<?xml version="1.0" encoding="UTF-8" standalone="no"?>
<!-- Created with Inkscape (http://www.inkscape.org/) -->

<svg
   xmlns:dc="http://purl.org/dc/elements/1.1/"
   xmlns:cc="http://creativecommons.org/ns#"
   xmlns:rdf="http://www.w3.org/1999/02/22-rdf-syntax-ns#"
   xmlns:svg="http://www.w3.org/2000/svg"
   xmlns="http://www.w3.org/2000/svg"
   xmlns:sodipodi="http://sodipodi.sourceforge.net/DTD/sodipodi-0.dtd"
   xmlns:inkscape="http://www.inkscape.org/namespaces/inkscape"
   sodipodi:docname="cloud.svg"
   inkscape:version="0.92.2 (5c3e80d, 2017-08-06)"
   version="1.1"
   id="svg2"
   viewBox="0 0 20.625 20.625"
   height="22"
   width="22"
   inkscape:export-filename="/home/juergen/Desktop/ic_launcher.png"
   inkscape:export-xdpi="628.36365"
   inkscape:export-ydpi="628.36365">
  <sodipodi:namedview
     inkscape:snap-to-guides="true"
     inkscape:snap-grids="true"
     inkscape:window-maximized="1"
     inkscape:window-y="33"
     inkscape:window-x="0"
     inkscape:window-height="699"
     inkscape:window-width="1366"
     inkscape:guide-bbox="true"
     showguides="false"
     fit-margin-bottom="1"
     fit-margin-right="1"
     fit-margin-left="1"
     fit-margin-top="1"
     showgrid="true"
     inkscape:current-layer="layer2"
     inkscape:document-units="px"
     inkscape:cy="11.230965"
     inkscape:cx="6.2273204"
     inkscape:zoom="15.839192"
     inkscape:pageshadow="2"
     inkscape:pageopacity="0.0"
     borderopacity="1.0"
     bordercolor="#666666"
     pagecolor="#ffffff"
     id="base"
     units="px">
    <inkscape:grid
       type="xygrid"
       id="grid4138"
       originx="6.5625002"
       originy="18.750001" />
    <sodipodi:guide
       position="11.874978,21.095829"
       orientation="0,1"
       id="guide4140"
       inkscape:locked="false" />
    <sodipodi:guide
       position="11.874978,5.0958282"
       orientation="0,1"
       id="guide4142"
       inkscape:locked="false" />
    <sodipodi:guide
       position="3.874978,13.095829"
       orientation="1,0"
       id="guide4144"
       inkscape:locked="false" />
    <sodipodi:guide
       position="1.8749779,3.0958281"
       orientation="0,20"
       id="guide4146"
       inkscape:locked="false" />
    <sodipodi:guide
       position="21.874978,3.0958281"
       orientation="-20,0"
       id="guide4148"
       inkscape:locked="false" />
    <sodipodi:guide
       position="21.874978,23.095829"
       orientation="0,-20"
       id="guide4150"
       inkscape:locked="false" />
    <sodipodi:guide
       position="1.8749779,23.095829"
       orientation="20,0"
       id="guide4152"
       inkscape:locked="false" />
    <sodipodi:guide
       position="19.874978,13.095829"
       orientation="1,0"
       id="guide4154"
       inkscape:locked="false" />
    <sodipodi:guide
       position="11.874978,13.095829"
       orientation="-0.70710678,0.70710678"
       id="guide4156"
       inkscape:locked="false" />
    <sodipodi:guide
       position="11.874978,13.095829"
       orientation="0.70710678,0.70710678"
       id="guide4158"
       inkscape:locked="false" />
    <sodipodi:guide
       position="5.8749781,13.095829"
       orientation="1,0"
       id="guide4160"
       inkscape:locked="false" />
    <sodipodi:guide
       position="17.874978,13.095829"
       orientation="1,0"
       id="guide4162"
       inkscape:locked="false" />
    <sodipodi:guide
       position="11.874978,19.095829"
       orientation="0,1"
       id="guide4164"
       inkscape:locked="false" />
    <sodipodi:guide
       position="11.874978,7.0958282"
       orientation="0,1"
       id="guide4166"
       inkscape:locked="false" />
    <sodipodi:guide
       position="11.874978,18.095829"
       orientation="0,1"
       id="guide4168"
       inkscape:locked="false" />
    <sodipodi:guide
       position="11.874978,8.0958282"
       orientation="0,1"
       id="guide4170"
       inkscape:locked="false" />
    <sodipodi:guide
       position="6.8749781,13.095829"
       orientation="1,0"
       id="guide4172"
       inkscape:locked="false" />
    <sodipodi:guide
       position="16.874978,13.095829"
       orientation="1,0"
       id="guide4174"
       inkscape:locked="false" />
  </sodipodi:namedview>
  <defs
     id="defs4">
    <clipPath
       id="clipPath12478"
       clipPathUnits="userSpaceOnUse">
      <circle
         r="10"
         cy="10.000005"
         cx="9.9999781"
         id="circle12480"
         style="opacity:1;fill:#2196f3;fill-opacity:1;stroke:none;stroke-width:0.05069799;stroke-miterlimit:4;stroke-dasharray:none;stroke-opacity:1" />
    </clipPath>
    <clipPath
       clipPathUnits="userSpaceOnUse"
       id="clipPath5790">
      <circle
         r="10"
         cy="10.000005"
         cx="9.9999781"
         id="circle5792"
         style="opacity:1;fill:#2196f3;fill-opacity:1;stroke:none;stroke-width:0.05069799;stroke-miterlimit:4;stroke-dasharray:none;stroke-opacity:1"
         inkscape:export-filename="/home/juergen/path4136.png"
         inkscape:export-xdpi="648"
         inkscape:export-ydpi="648" />
    </clipPath>
    <clipPath
       id="clipPath7690"
       clipPathUnits="userSpaceOnUse">
      <circle
         r="10"
         cy="10.000005"
         cx="9.9999781"
         id="circle7692"
         style="opacity:1;fill:#2196f3;fill-opacity:1;stroke:none;stroke-width:0.05069799;stroke-miterlimit:4;stroke-dasharray:none;stroke-opacity:1"
         inkscape:export-filename="/home/juergen/Schreibtisch/path4136.png"
         inkscape:export-xdpi="648"
         inkscape:export-ydpi="648" />
    </clipPath>
    <clipPath
       clipPathUnits="userSpaceOnUse"
       id="clipPath5119">
      <circle
         r="10"
         cy="10.000005"
         cx="9.9999781"
         id="circle5121"
         style="opacity:1;fill:#ff9800;fill-opacity:1;stroke:none;stroke-width:0.05069799;stroke-miterlimit:4;stroke-dasharray:none;stroke-opacity:1"
         inkscape:export-filename="/home/juergen/Schreibtisch/path4136.png"
         inkscape:export-xdpi="648"
         inkscape:export-ydpi="648" />
    </clipPath>
    <clipPath
       id="clipPath3591"
       clipPathUnits="userSpaceOnUse">
      <rect
         y="8.63554"
         x="4.000071"
         height="20"
         width="20"
         id="rect3593"
         style="fill:#ea80fc;fill-opacity:0.95685281;stroke:none;stroke-width:5.75974274;stroke-miterlimit:4;stroke-dasharray:none;stroke-opacity:1"
         inkscape:export-filename="/home/juergen/Desktop/ic_launcher.png"
         inkscape:export-xdpi="691.20001"
         inkscape:export-ydpi="691.20001" />
    </clipPath>
    <clipPath
       id="clipPath3595"
       clipPathUnits="userSpaceOnUse">
      <rect
         y="3.4083283"
         x="-0.93747789"
         height="18.75"
         width="18.75"
         id="rect3597"
         style="fill:#ea80fc;fill-opacity:0.95685281;stroke:none;stroke-width:5.39975882;stroke-miterlimit:4;stroke-dasharray:none;stroke-opacity:1"
         inkscape:export-filename="/home/juergen/Desktop/ic_launcher.png"
         inkscape:export-xdpi="691.20001"
         inkscape:export-ydpi="691.20001" />
    </clipPath>
    <clipPath
       id="clipPath3599"
       clipPathUnits="userSpaceOnUse">
      <rect
         y="3.4083283"
         x="-0.93747789"
         height="18.75"
         width="18.75"
         id="rect3601"
         style="fill:#ea80fc;fill-opacity:0.95685281;stroke:none;stroke-width:5.39975882;stroke-miterlimit:4;stroke-dasharray:none;stroke-opacity:1"
         inkscape:export-filename="/home/juergen/Desktop/ic_launcher.png"
         inkscape:export-xdpi="691.20001"
         inkscape:export-ydpi="691.20001" />
    </clipPath>
    <clipPath
       id="clipPath3603"
       clipPathUnits="userSpaceOnUse">
      <rect
         y="3.4083283"
         x="-0.93747789"
         height="18.75"
         width="18.75"
         id="rect3605"
         style="fill:#ea80fc;fill-opacity:0.95685281;stroke:none;stroke-width:5.39975882;stroke-miterlimit:4;stroke-dasharray:none;stroke-opacity:1"
         inkscape:export-filename="/home/juergen/Desktop/ic_launcher.png"
         inkscape:export-xdpi="691.20001"
         inkscape:export-ydpi="691.20001" />
    </clipPath>
    <clipPath
       id="clipPath3617"
       clipPathUnits="userSpaceOnUse">
      <rect
         y="3.4083283"
         x="-0.93747789"
         height="18.75"
         width="18.75"
         id="rect3619"
         style="fill:#8bc34a;fill-opacity:0.95685281;stroke:none;stroke-width:5.39975882;stroke-miterlimit:4;stroke-dasharray:none;stroke-opacity:1"
         inkscape:export-filename="/home/juergen/Desktop/ic_launcher.png"
         inkscape:export-xdpi="691.20001"
         inkscape:export-ydpi="691.20001"
         ry="0.93749899" />
    </clipPath>
    <clipPath
       id="clipPath3621"
       clipPathUnits="userSpaceOnUse">
      <rect
         y="8.63554"
         x="4.000071"
         height="20"
         width="20"
         id="rect3623"
         style="fill:#8bc34a;fill-opacity:0.95685281;stroke:none;stroke-width:5.75974274;stroke-miterlimit:4;stroke-dasharray:none;stroke-opacity:1"
         inkscape:export-filename="/home/juergen/Desktop/ic_launcher.png"
         inkscape:export-xdpi="691.20001"
         inkscape:export-ydpi="691.20001"
         ry="0.99999893" />
    </clipPath>
    <clipPath
       id="clipPath3627"
       clipPathUnits="userSpaceOnUse">
      <rect
         y="3.4083283"
         x="-0.93747789"
         height="18.75"
         width="18.75"
         id="rect3629"
         style="fill:#8bc34a;fill-opacity:0.95685281;stroke:none;stroke-width:5.39975882;stroke-miterlimit:4;stroke-dasharray:none;stroke-opacity:1"
         inkscape:export-filename="/home/juergen/Desktop/ic_launcher.png"
         inkscape:export-xdpi="691.20001"
         inkscape:export-ydpi="691.20001"
         ry="1.874999" />
    </clipPath>
    <clipPath
       id="clipPath3631"
       clipPathUnits="userSpaceOnUse">
      <rect
         y="8.63554"
         x="4.000071"
         height="20"
         width="20"
         id="rect3633"
         style="fill:#8bc34a;fill-opacity:0.95685281;stroke:none;stroke-width:5.75974274;stroke-miterlimit:4;stroke-dasharray:none;stroke-opacity:1"
         inkscape:export-filename="/home/juergen/Desktop/ic_launcher.png"
         inkscape:export-xdpi="691.20001"
         inkscape:export-ydpi="691.20001"
         ry="1.9999989" />
    </clipPath>
    <clipPath
       clipPathUnits="userSpaceOnUse"
       id="clipPath1784">
      <rect
         y="1"
         x="1"
         height="20"
         width="20"
         id="rect1786"
         style="fill:#ffc107;fill-opacity:0.95685281;stroke:none;stroke-width:5.75974274;stroke-miterlimit:4;stroke-dasharray:none;stroke-opacity:1"
         inkscape:export-filename="/home/juergen/Desktop/ic_launcher.png"
         inkscape:export-xdpi="691.20001"
         inkscape:export-ydpi="691.20001"
         ry="1.9999989" />
    </clipPath>
    <clipPath
       clipPathUnits="userSpaceOnUse"
       id="clipPath1788">
      <rect
         y="3.4083283"
         x="-0.93747789"
         height="18.75"
         width="18.75"
         id="rect1790"
         style="fill:#ffc107;fill-opacity:0.95685281;stroke:none;stroke-width:5.39975882;stroke-miterlimit:4;stroke-dasharray:none;stroke-opacity:1"
         inkscape:export-filename="/home/juergen/Desktop/ic_launcher.png"
         inkscape:export-xdpi="691.20001"
         inkscape:export-ydpi="691.20001"
         ry="1.874999" />
    </clipPath>
    <clipPath
       clipPathUnits="userSpaceOnUse"
       id="clipPath1792">
      <rect
         y="3.4083283"
         x="-0.93747789"
         height="18.75"
         width="18.75"
         id="rect1794"
         style="fill:#ffc107;fill-opacity:0.95685281;stroke:none;stroke-width:5.39975882;stroke-miterlimit:4;stroke-dasharray:none;stroke-opacity:1"
         inkscape:export-filename="/home/juergen/Desktop/ic_launcher.png"
         inkscape:export-xdpi="691.20001"
         inkscape:export-ydpi="691.20001"
         ry="1.874999" />
    </clipPath>
  </defs>
  <metadata
     id="metadata7">
    <rdf:RDF>
      <cc:Work
         rdf:about="">
        <dc:format>image/svg+xml</dc:format>
        <dc:type
           rdf:resource="http://purl.org/dc/dcmitype/StillImage" />
        <dc:title></dc:title>
      </cc:Work>
    </rdf:RDF>
  </metadata>
  <g
     inkscape:label="Hintergrund"
     inkscape:groupmode="layer"
     id="layer1"
     transform="translate(1060.0177,-864.40447)" />
  <g
     style="display:inline"
     inkscape:groupmode="layer"
     id="layer2"
     inkscape:label="Icon"
     transform="translate(1.8749779,-2.4708283)">
    <rect
       ry="1.874999"
       inkscape:export-ydpi="691.20001"
       inkscape:export-xdpi="691.20001"
       inkscape:export-filename="/home/juergen/Desktop/ic_launcher.png"
       style="fill:#4caf50;fill-opacity:0.95685281;stroke:none;stroke-width:5.39975882;stroke-miterlimit:4;stroke-dasharray:none;stroke-opacity:1"
       id="rect849"
       width="18.75"
       height="18.75"
       x="-0.93747789"
       y="3.4083283" />
    <path
       d="M 3.9999777,4.0333382 H 15.999978 V 15.966671 H 3.9999777 Z"
       id="path4"
       inkscape:connector-curvature="0"
       style="fill:none" />
    <path
       clip-path="url(#clipPath3603)"
       style="fill:none"
       inkscape:connector-curvature="0"
       id="path9754"
       d="m 18.999978,19.033339 h 12 v 11.933333 h -12 z" />
    <path
       clip-path="url(#clipPath3595)"
       style="fill:#212121"
       id="path1785"
       d="m 21.500022,22.845828 h -3 c -0.555,0 -1,0.445 -1,1 v 6 a 1,1 0 0 0 1,1 h 8 a 1,1 0 0 0 1,-1 v -5 c 0,-0.555 -0.45,-1 -1,-1 h -4 z"
       inkscape:connector-curvature="0" />
    <path
       style="display:inline;fill:#212121;stroke-width:0.99999988;opacity:0.2"
       d="M 11.148438 7.8164062 C 9.9442706 7.8164062 8.8997395 8.498307 8.3789062 9.4941406 C 7.1247396 9.6316414 6.1484375 10.690757 6.1484375 11.982422 C 6.1484372 12.645464 6.4120184 13.281159 6.8808594 13.75 C 6.9059686 13.775109 6.9368446 13.792484 6.9628906 13.816406 C 6.9868124 13.842452 7.0041876 13.873328 7.0292969 13.898438 C 7.0544061 13.923547 7.0852821 13.940922 7.1113281 13.964844 C 7.1347136 13.990255 7.1512639 14.020404 7.1757812 14.044922 C 7.2021985 14.071339 7.2342659 14.090132 7.2617188 14.115234 C 7.2841263 14.139494 7.3007767 14.167964 7.3242188 14.191406 C 7.3477327 14.21492 7.376054 14.231433 7.4003906 14.253906 C 7.4249035 14.280655 7.4429868 14.312127 7.46875 14.337891 C 7.4951672 14.364308 7.5272346 14.383101 7.5546875 14.408203 C 7.5764982 14.431764 7.5924463 14.459634 7.6152344 14.482422 C 7.6396896 14.506877 7.6699681 14.523546 7.6953125 14.546875 C 7.7186416 14.572219 7.7353104 14.602498 7.7597656 14.626953 C 7.7826234 14.649811 7.8103487 14.665626 7.8339844 14.6875 C 7.8584972 14.714249 7.8765805 14.745721 7.9023438 14.771484 C 7.9264398 14.79558 7.9555092 14.812935 7.9804688 14.835938 C 8.0034716 14.860897 8.0208258 14.889966 8.0449219 14.914062 C 8.0690179 14.938159 8.0980874 14.955513 8.1230469 14.978516 C 8.1460497 15.003475 8.163404 15.032545 8.1875 15.056641 C 8.211596 15.080737 8.2406655 15.098091 8.265625 15.121094 C 8.2880862 15.145416 8.3046241 15.173765 8.328125 15.197266 C 8.3538882 15.223029 8.3853605 15.241112 8.4121094 15.265625 C 8.4333215 15.288489 8.448569 15.315757 8.4707031 15.337891 C 8.4929048 15.360092 8.5200328 15.37521 8.5429688 15.396484 C 8.5668905 15.42253 8.5842658 15.453406 8.609375 15.478516 C 8.6331763 15.502317 8.662856 15.518281 8.6875 15.541016 C 8.7096928 15.565024 8.7248403 15.593981 8.7480469 15.617188 C 8.7718482 15.640989 8.8015279 15.656953 8.8261719 15.679688 C 8.8483647 15.703696 8.8635122 15.732653 8.8867188 15.755859 C 8.9101608 15.779301 8.9386308 15.795952 8.9628906 15.818359 C 8.9852982 15.842619 9.0019486 15.871089 9.0253906 15.894531 C 9.0484734 15.917614 9.0757334 15.934951 9.0996094 15.957031 C 9.1216893 15.980907 9.1390266 16.008167 9.1621094 16.03125 C 9.1851922 16.054333 9.2124522 16.07167 9.2363281 16.09375 C 9.258408 16.117626 9.2757453 16.144886 9.2988281 16.167969 C 9.3216162 16.190757 9.3494856 16.206705 9.3730469 16.228516 C 9.3948576 16.252077 9.4108057 16.279946 9.4335938 16.302734 C 9.4563818 16.325522 9.4842512 16.341471 9.5078125 16.363281 C 9.5296232 16.386843 9.5455713 16.414712 9.5683594 16.4375 C 9.5911474 16.460288 9.6190169 16.476236 9.6425781 16.498047 C 9.6643888 16.521608 9.6803369 16.549478 9.703125 16.572266 C 9.7255538 16.594694 9.7522125 16.61133 9.7753906 16.632812 C 9.7968728 16.655991 9.8135087 16.682649 9.8359375 16.705078 C 9.8583663 16.727507 9.885025 16.744143 9.9082031 16.765625 C 9.9296853 16.788803 9.9463212 16.815462 9.96875 16.837891 C 9.9911788 16.860319 10.017838 16.876955 10.041016 16.898438 C 10.061948 16.920977 10.07778 16.946921 10.099609 16.96875 C 10.123705 16.992846 10.152775 17.0102 10.177734 17.033203 C 10.197413 17.054295 10.211955 17.079142 10.232422 17.099609 C 10.252952 17.120139 10.27767 17.13456 10.298828 17.154297 C 10.321236 17.178557 10.337886 17.207027 10.361328 17.230469 C 10.38477 17.253911 10.41324 17.270561 10.4375 17.292969 C 10.457237 17.314127 10.471658 17.338845 10.492188 17.359375 C 10.513962 17.38115 10.540019 17.397086 10.5625 17.417969 C 10.583383 17.44045 10.599319 17.466506 10.621094 17.488281 C 10.640907 17.508094 10.665148 17.521941 10.685547 17.541016 C 10.707954 17.565275 10.724605 17.593745 10.748047 17.617188 C 10.769822 17.638962 10.795878 17.654899 10.818359 17.675781 C 10.83869 17.697623 10.853826 17.722967 10.875 17.744141 C 10.89648 17.765621 10.923145 17.780169 10.945312 17.800781 C 10.965925 17.822949 10.980473 17.849614 11.001953 17.871094 C 11.024741 17.893882 11.052611 17.90983 11.076172 17.931641 C 11.095303 17.952104 11.109033 17.97622 11.128906 17.996094 C 11.148719 18.015907 11.17296 18.029753 11.193359 18.048828 C 11.21517 18.072389 11.231118 18.100259 11.253906 18.123047 C 11.274785 18.143926 11.300736 18.157675 11.322266 18.177734 C 11.342325 18.199264 11.356074 18.225215 11.376953 18.246094 C 11.398074 18.267215 11.423526 18.282453 11.445312 18.302734 C 11.465594 18.32452 11.480832 18.349973 11.501953 18.371094 C 11.524143 18.393284 11.551295 18.408424 11.574219 18.429688 C 11.592688 18.449395 11.605841 18.473029 11.625 18.492188 C 11.644159 18.511346 11.667793 18.5245 11.6875 18.542969 C 11.708712 18.565833 11.72396 18.5931 11.746094 18.615234 C 11.766561 18.635701 11.791408 18.650243 11.8125 18.669922 C 11.832179 18.691014 11.846721 18.715861 11.867188 18.736328 C 11.887654 18.756795 11.912502 18.771337 11.933594 18.791016 C 11.953273 18.812108 11.967814 18.836955 11.988281 18.857422 C 12.008748 18.877889 12.033596 18.89243 12.054688 18.912109 C 12.073808 18.932561 12.087559 18.9567 12.107422 18.976562 C 12.127889 18.997029 12.152736 19.011571 12.173828 19.03125 C 12.192949 19.051702 12.2067 19.07584 12.226562 19.095703 C 12.246735 19.115875 12.272189 19.129031 12.292969 19.148438 C 12.312376 19.169217 12.325531 19.194672 12.345703 19.214844 C 12.365516 19.234657 12.389757 19.248503 12.410156 19.267578 C 12.429277 19.28803 12.443028 19.312169 12.462891 19.332031 C 12.482704 19.351844 12.506945 19.365691 12.527344 19.384766 C 12.546418 19.405165 12.560265 19.429406 12.580078 19.449219 C 12.599891 19.469032 12.624132 19.482878 12.644531 19.501953 C 12.663606 19.522352 12.677453 19.546593 12.697266 19.566406 C 12.716473 19.585614 12.740007 19.598674 12.759766 19.617188 C 12.77884 19.637587 12.792687 19.661828 12.8125 19.681641 C 12.833326 19.702467 12.859386 19.716318 12.880859 19.736328 C 12.898162 19.754713 12.909829 19.777017 12.927734 19.794922 C 12.945226 19.812414 12.966425 19.82488 12.984375 19.841797 C 13.004657 19.863583 13.019895 19.889035 13.041016 19.910156 C 13.060175 19.929315 13.083808 19.942469 13.103516 19.960938 C 13.121984 19.980645 13.135138 20.004279 13.154297 20.023438 C 13.174764 20.043904 13.199611 20.058446 13.220703 20.078125 C 13.23762 20.096074 13.250086 20.117274 13.267578 20.134766 C 13.28507 20.152257 13.306269 20.164724 13.324219 20.181641 C 13.343898 20.202733 13.358439 20.22758 13.378906 20.248047 C 13.398769 20.26791 13.422908 20.28166 13.443359 20.300781 C 13.460326 20.318787 13.472689 20.339876 13.490234 20.357422 C 13.507072 20.37426 13.52766 20.386039 13.544922 20.402344 C 13.564601 20.423436 13.579142 20.448283 13.599609 20.46875 C 13.618114 20.487255 13.641139 20.499717 13.660156 20.517578 C 13.678017 20.536595 13.690479 20.55962 13.708984 20.578125 C 13.727489 20.59663 13.750514 20.609092 13.769531 20.626953 C 13.787393 20.64597 13.799854 20.668995 13.818359 20.6875 C 13.836505 20.705646 13.858315 20.718801 13.876953 20.736328 C 13.89448 20.754966 13.907636 20.776776 13.925781 20.794922 C 13.943927 20.813068 13.965737 20.826223 13.984375 20.84375 C 14.001902 20.862388 14.015057 20.884198 14.033203 20.902344 C 14.051349 20.920489 14.073159 20.933645 14.091797 20.951172 C 14.109324 20.96981 14.122479 20.99162 14.140625 21.009766 C 14.15816 21.027301 14.17927 21.039683 14.197266 21.056641 C 14.214792 21.075279 14.227948 21.097089 14.246094 21.115234 C 14.265253 21.134393 14.288886 21.147547 14.308594 21.166016 C 14.324332 21.182644 14.335329 21.202517 14.351562 21.21875 C 14.367746 21.234934 14.387721 21.246027 14.404297 21.261719 C 14.422766 21.281426 14.435919 21.30506 14.455078 21.324219 C 14.47257 21.341711 14.493769 21.354177 14.511719 21.371094 C 14.528636 21.389043 14.541102 21.410243 14.558594 21.427734 C 14.576086 21.445226 14.597285 21.457693 14.615234 21.474609 C 14.632151 21.492559 14.644618 21.513758 14.662109 21.53125 C 14.678989 21.54813 14.69949 21.559827 14.716797 21.576172 C 14.733714 21.594121 14.74618 21.615321 14.763672 21.632812 C 14.780869 21.650009 14.802673 21.661093 14.820312 21.677734 C 14.836954 21.695374 14.848037 21.717178 14.865234 21.734375 C 14.882072 21.751213 14.90266 21.762992 14.919922 21.779297 C 14.936267 21.796603 14.947964 21.817104 14.964844 21.833984 C 14.983349 21.852489 15.006374 21.864951 15.025391 21.882812 C 15.040467 21.898704 15.050876 21.918064 15.066406 21.933594 C 15.081282 21.94847 15.100027 21.958196 15.115234 21.972656 C 15.133096 21.991673 15.145558 22.014698 15.164062 22.033203 C 15.1809 22.050041 15.201488 22.06182 15.21875 22.078125 C 15.235055 22.095387 15.246834 22.115975 15.263672 22.132812 C 15.279896 22.149037 15.299787 22.160051 15.316406 22.175781 C 15.332711 22.193043 15.34449 22.213631 15.361328 22.230469 C 15.377553 22.246693 15.397444 22.257707 15.414062 22.273438 C 15.429754 22.290014 15.440848 22.309988 15.457031 22.326172 C 15.475177 22.344318 15.496987 22.357473 15.515625 22.375 C 15.529746 22.389833 15.540171 22.407358 15.554688 22.421875 C 15.569608 22.436796 15.588261 22.446435 15.603516 22.460938 C 15.620198 22.478623 15.631196 22.500337 15.648438 22.517578 C 15.664621 22.533762 15.684596 22.544855 15.701172 22.560547 C 15.716864 22.577123 15.727957 22.597097 15.744141 22.613281 C 15.759965 22.629106 15.778722 22.640896 15.794922 22.65625 C 15.810276 22.67245 15.822066 22.691207 15.837891 22.707031 C 15.853715 22.722856 15.872472 22.734646 15.888672 22.75 C 15.904026 22.7662 15.915816 22.784957 15.931641 22.800781 C 15.946849 22.815989 15.964914 22.827023 15.980469 22.841797 C 15.995823 22.857997 16.007613 22.876754 16.023438 22.892578 C 16.038967 22.908108 16.058328 22.918517 16.074219 22.933594 C 16.089296 22.949485 16.099705 22.968845 16.115234 22.984375 C 16.132072 23.001213 16.15266 23.012992 16.169922 23.029297 C 16.183424 23.043448 16.193169 23.060356 16.207031 23.074219 C 16.220936 23.088124 16.237758 23.097786 16.251953 23.111328 C 16.268258 23.12859 16.280037 23.149178 16.296875 23.166016 C 16.3131 23.18224 16.33299 23.193254 16.349609 23.208984 C 16.363111 23.223135 16.372856 23.240044 16.386719 23.253906 C 16.400264 23.267452 16.415866 23.277814 16.429688 23.291016 C 16.445656 23.307901 16.458131 23.327271 16.474609 23.34375 C 16.489485 23.358626 16.50823 23.368352 16.523438 23.382812 C 16.537898 23.39802 16.547624 23.416765 16.5625 23.431641 C 16.577376 23.446516 16.59612 23.456243 16.611328 23.470703 C 16.625788 23.485911 16.635515 23.504655 16.650391 23.519531 C 16.664649 23.53379 16.682702 23.542764 16.697266 23.556641 C 16.711726 23.571848 16.721452 23.590593 16.736328 23.605469 C 16.750845 23.619985 16.76837 23.63041 16.783203 23.644531 C 16.797324 23.659364 16.807749 23.67689 16.822266 23.691406 C 16.836782 23.705923 16.854308 23.716348 16.869141 23.730469 C 16.882675 23.744656 16.892353 23.761493 16.90625 23.775391 C 16.922434 23.791574 16.942408 23.802668 16.958984 23.818359 C 16.971243 23.831151 16.979633 23.84682 16.992188 23.859375 C 17.004742 23.87193 17.020412 23.880319 17.033203 23.892578 C 17.048317 23.908511 17.05865 23.92779 17.074219 23.943359 C 17.088441 23.957581 17.106568 23.966627 17.121094 23.980469 C 17.134936 23.994994 17.143981 24.013122 17.158203 24.027344 C 17.1721 24.041241 17.188938 24.050918 17.203125 24.064453 C 17.216627 24.078604 17.226372 24.095512 17.240234 24.109375 C 17.253837 24.122978 17.271276 24.131276 17.285156 24.144531 C 17.298412 24.158412 17.30671 24.17585 17.320312 24.189453 C 17.334175 24.203316 17.351083 24.213061 17.365234 24.226562 C 17.378736 24.240714 17.388481 24.257622 17.402344 24.271484 C 17.417257 24.286398 17.435925 24.296051 17.451172 24.310547 C 17.462807 24.32266 17.470521 24.337709 17.482422 24.349609 C 17.494359 24.361546 17.509333 24.36919 17.521484 24.380859 C 17.535945 24.396067 17.545671 24.414812 17.560547 24.429688 C 17.573755 24.442896 17.590045 24.451963 17.603516 24.464844 C 17.616397 24.478314 17.625463 24.494604 17.638672 24.507812 C 17.65188 24.521021 17.66817 24.530088 17.681641 24.542969 C 17.694522 24.556439 17.703588 24.572729 17.716797 24.585938 C 17.729646 24.598787 17.744715 24.608554 17.757812 24.621094 C 17.770352 24.634191 17.780119 24.64926 17.792969 24.662109 C 17.805818 24.674959 17.820887 24.684726 17.833984 24.697266 C 17.846524 24.710363 17.856291 24.725432 17.869141 24.738281 C 17.88199 24.751131 17.897059 24.760898 17.910156 24.773438 C 17.922696 24.786535 17.932463 24.801604 17.945312 24.814453 C 17.957899 24.82704 17.973504 24.835367 17.986328 24.847656 C 17.998587 24.860448 18.006977 24.876117 18.019531 24.888672 C 18.032086 24.901226 18.047755 24.909616 18.060547 24.921875 C 18.072806 24.934667 18.081195 24.950336 18.09375 24.962891 C 18.105681 24.974822 18.120667 24.982477 18.132812 24.994141 C 18.145071 25.006932 18.153461 25.022602 18.166016 25.035156 C 18.178211 25.047352 18.192659 25.056443 18.205078 25.068359 C 18.216994 25.080778 18.226086 25.095226 18.238281 25.107422 C 18.250477 25.119617 18.264925 25.128709 18.277344 25.140625 C 18.28926 25.153044 18.298351 25.167492 18.310547 25.179688 C 18.322448 25.191588 18.337496 25.199303 18.349609 25.210938 C 18.361244 25.223051 18.368959 25.238099 18.380859 25.25 C 18.39276 25.261901 18.407808 25.269615 18.419922 25.28125 C 18.431557 25.293364 18.439271 25.308412 18.451172 25.320312 C 18.463073 25.332213 18.478121 25.339928 18.490234 25.351562 C 18.501869 25.363676 18.509584 25.378724 18.521484 25.390625 C 18.53276 25.401901 18.547127 25.408885 18.558594 25.419922 C 18.570229 25.432035 18.577943 25.447084 18.589844 25.458984 C 18.601385 25.470526 18.615211 25.478943 18.626953 25.490234 C 18.638245 25.501976 18.646662 25.515802 18.658203 25.527344 C 18.669118 25.538258 18.682266 25.54595 18.693359 25.556641 C 18.704651 25.568382 18.713068 25.582209 18.724609 25.59375 C 18.735856 25.604997 18.750282 25.612037 18.761719 25.623047 C 18.772728 25.634484 18.779769 25.64891 18.791016 25.660156 C 18.802262 25.671403 18.816688 25.678444 18.828125 25.689453 C 18.839134 25.70089 18.846175 25.715316 18.857422 25.726562 C 18.868309 25.73745 18.881512 25.745194 18.892578 25.755859 C 18.903243 25.766925 18.910988 25.780128 18.921875 25.791016 C 18.932762 25.801903 18.945965 25.809647 18.957031 25.820312 C 18.967696 25.831378 18.975441 25.844581 18.986328 25.855469 C 18.997216 25.866356 19.010419 25.874101 19.021484 25.884766 C 19.031546 25.895183 19.038569 25.90771 19.048828 25.917969 C 19.061024 25.930164 19.075472 25.939256 19.087891 25.951172 C 19.096979 25.96055 19.104032 25.97122 19.113281 25.980469 C 19.122207 25.989394 19.133533 25.99513 19.142578 26.003906 C 19.154213 26.01602 19.161927 26.031068 19.173828 26.042969 C 19.184421 26.053561 19.198223 26.05993 19.208984 26.070312 C 19.219367 26.081074 19.225735 26.094876 19.236328 26.105469 C 19.246587 26.115728 19.259114 26.122751 19.269531 26.132812 C 19.279568 26.143204 19.286642 26.155782 19.296875 26.166016 C 19.306479 26.175619 19.318382 26.181975 19.328125 26.191406 C 19.338162 26.201797 19.345235 26.214376 19.355469 26.224609 C 19.367369 26.23651 19.382418 26.244224 19.394531 26.255859 C 19.402675 26.264234 19.407744 26.274932 19.416016 26.283203 C 19.424312 26.2915 19.434959 26.29652 19.443359 26.304688 C 19.454396 26.316154 19.461381 26.330521 19.472656 26.341797 C 19.48253 26.351671 19.493885 26.359449 19.503906 26.369141 C 19.513598 26.379162 19.521376 26.390516 19.53125 26.400391 C 19.540829 26.40997 19.552782 26.416374 19.5625 26.425781 C 19.571907 26.435499 19.578311 26.447452 19.587891 26.457031 C 19.598778 26.467919 19.611981 26.475663 19.623047 26.486328 C 19.630866 26.49436 19.636594 26.503782 19.644531 26.511719 C 19.652444 26.519631 19.661915 26.525408 19.669922 26.533203 C 19.680587 26.544269 19.688331 26.557472 19.699219 26.568359 C 19.708439 26.57758 19.719167 26.584689 19.728516 26.59375 C 19.737577 26.603098 19.744686 26.613827 19.753906 26.623047 C 19.762832 26.631972 19.774158 26.637708 19.783203 26.646484 C 19.792001 26.655553 19.797692 26.666833 19.806641 26.675781 C 19.817528 26.686669 19.830731 26.694413 19.841797 26.705078 C 19.848978 26.712439 19.854047 26.721235 19.861328 26.728516 C 19.868586 26.735774 19.877428 26.740887 19.884766 26.748047 C 19.894827 26.758464 19.90185 26.770991 19.912109 26.78125 C 19.921035 26.790175 19.932361 26.795911 19.941406 26.804688 C 19.950182 26.813733 19.955918 26.825059 19.964844 26.833984 C 19.97341 26.842551 19.983511 26.848993 19.992188 26.857422 C 20.000616 26.866099 20.007059 26.876199 20.015625 26.884766 C 20.025858 26.894999 20.038437 26.902072 20.048828 26.912109 C 20.055351 26.91878 20.059802 26.926989 20.066406 26.933594 C 20.073011 26.940198 20.08122 26.944649 20.087891 26.951172 C 20.097928 26.961563 20.105001 26.974142 20.115234 26.984375 C 20.123506 26.992647 20.134203 26.997716 20.142578 27.005859 C 20.150721 27.014234 20.155791 27.024932 20.164062 27.033203 C 20.171994 27.041135 20.181426 27.046874 20.189453 27.054688 C 20.197248 27.062694 20.203025 27.072166 20.210938 27.080078 C 20.21885 27.08799 20.228321 27.093768 20.236328 27.101562 C 20.244142 27.109589 20.249881 27.119021 20.257812 27.126953 C 20.265725 27.134865 20.275196 27.140643 20.283203 27.148438 C 20.290998 27.156444 20.296775 27.165916 20.304688 27.173828 C 20.314267 27.183408 20.32622 27.189811 20.335938 27.199219 C 20.341822 27.205223 20.345612 27.2128 20.351562 27.21875 C 20.35918 27.226368 20.369248 27.230772 20.376953 27.238281 C 20.384462 27.245986 20.388867 27.256054 20.396484 27.263672 C 20.402435 27.269622 20.410012 27.273413 20.416016 27.279297 C 20.424792 27.288342 20.430528 27.299668 20.439453 27.308594 C 20.446711 27.315852 20.455553 27.320965 20.462891 27.328125 C 20.470068 27.335481 20.475146 27.344286 20.482422 27.351562 C 20.48968 27.358821 20.498522 27.363934 20.505859 27.371094 C 20.513019 27.378432 20.518132 27.387273 20.525391 27.394531 C 20.532649 27.40179 20.54149 27.406903 20.548828 27.414062 C 20.555988 27.4214 20.561101 27.430242 20.568359 27.4375 C 20.57498 27.444121 20.583157 27.448539 20.589844 27.455078 C 20.597003 27.462416 20.602117 27.471257 20.609375 27.478516 C 20.617941 27.487082 20.628042 27.493524 20.636719 27.501953 C 20.64161 27.506927 20.645454 27.512641 20.650391 27.517578 C 20.655328 27.522515 20.661042 27.526359 20.666016 27.53125 C 20.674444 27.539927 20.680887 27.550027 20.689453 27.558594 C 20.696057 27.565198 20.704267 27.569649 20.710938 27.576172 C 20.71746 27.582842 20.721911 27.591052 20.728516 27.597656 C 20.73512 27.604261 20.74333 27.608712 20.75 27.615234 C 20.755899 27.621254 20.75966 27.6288 20.765625 27.634766 C 20.772229 27.64137 20.780439 27.645821 20.787109 27.652344 C 20.793632 27.659014 20.798083 27.667224 20.804688 27.673828 C 20.810653 27.679794 20.818199 27.683554 20.824219 27.689453 C 20.830118 27.695472 20.833878 27.703019 20.839844 27.708984 C 20.846089 27.715229 20.853071 27.72039 20.859375 27.726562 C 20.865547 27.732867 20.870708 27.739849 20.876953 27.746094 C 20.882903 27.752044 20.890481 27.755835 20.896484 27.761719 C 20.902368 27.767723 20.906159 27.7753 20.912109 27.78125 C 20.91806 27.7872 20.925637 27.790991 20.931641 27.796875 C 20.937525 27.802879 20.941315 27.810456 20.947266 27.816406 C 20.95287 27.822011 20.959192 27.826486 20.964844 27.832031 C 20.970376 27.83767 20.974878 27.844018 20.980469 27.849609 C 20.98606 27.8552 20.992409 27.859702 20.998047 27.865234 C 21.003579 27.870873 21.008081 27.877221 21.013672 27.882812 C 21.018968 27.888109 21.025911 27.891241 21.03125 27.896484 C 21.036507 27.901837 21.039612 27.908752 21.044922 27.914062 C 21.05218 27.921321 21.061022 27.926434 21.068359 27.933594 C 21.071964 27.937243 21.074496 27.941683 21.078125 27.945312 C 21.081754 27.948942 21.086195 27.951474 21.089844 27.955078 C 21.096383 27.961765 21.100801 27.969942 21.107422 27.976562 C 21.112718 27.981859 21.119661 27.984991 21.125 27.990234 C 21.130244 27.995573 21.133376 28.002516 21.138672 28.007812 C 21.143621 28.012762 21.149311 28.016581 21.154297 28.021484 C 21.159188 28.026458 21.163032 28.032172 21.167969 28.037109 C 21.172623 28.041764 21.178906 28.044214 21.183594 28.048828 C 21.188208 28.053516 21.190658 28.059798 21.195312 28.064453 C 21.20025 28.06939 21.205964 28.073234 21.210938 28.078125 C 21.215829 28.083099 21.219672 28.088813 21.224609 28.09375 C 21.230575 28.099715 21.238121 28.103476 21.244141 28.109375 C 21.247099 28.112364 21.248978 28.116165 21.251953 28.119141 C 21.254937 28.122125 21.258721 28.123986 21.261719 28.126953 C 21.267603 28.132957 21.271393 28.140534 21.277344 28.146484 C 21.281627 28.150767 21.286705 28.153954 21.291016 28.158203 C 21.295264 28.162514 21.298451 28.167592 21.302734 28.171875 C 21.307017 28.176158 21.312095 28.179345 21.316406 28.183594 C 21.320655 28.187905 21.323842 28.192982 21.328125 28.197266 C 21.332113 28.201254 21.337784 28.203073 21.341797 28.207031 C 21.345755 28.211044 21.347574 28.216715 21.351562 28.220703 C 21.355551 28.224692 21.361222 28.22651 21.365234 28.230469 C 21.369193 28.234481 21.371012 28.240152 21.375 28.244141 C 21.378988 28.248129 21.384659 28.249948 21.388672 28.253906 C 21.39263 28.257919 21.394449 28.26359 21.398438 28.267578 C 21.402067 28.271207 21.406507 28.273739 21.410156 28.277344 C 21.413761 28.280993 21.416293 28.285433 21.419922 28.289062 C 21.423551 28.292692 21.427992 28.295224 21.431641 28.298828 C 21.435245 28.302477 21.437777 28.306918 21.441406 28.310547 C 21.444676 28.313817 21.447886 28.317063 21.451172 28.320312 C 21.454422 28.323599 21.457668 28.326808 21.460938 28.330078 C 21.464567 28.333707 21.469007 28.336239 21.472656 28.339844 C 21.475622 28.34284 21.477486 28.346627 21.480469 28.349609 C 21.483739 28.352879 21.486948 28.356125 21.490234 28.359375 C 21.493484 28.362661 21.49673 28.365871 21.5 28.369141 C 21.502975 28.372116 21.506777 28.373995 21.509766 28.376953 C 21.512732 28.379949 21.514595 28.383736 21.517578 28.386719 C 21.520553 28.389694 21.524355 28.391573 21.527344 28.394531 C 21.530302 28.39752 21.532181 28.401322 21.535156 28.404297 C 21.538131 28.407272 21.541933 28.409151 21.544922 28.412109 C 21.54788 28.415098 21.549759 28.4189 21.552734 28.421875 C 21.55535 28.424491 21.557921 28.427084 21.560547 28.429688 C 21.56315 28.432314 21.565743 28.434884 21.568359 28.4375 C 21.570975 28.440116 21.573546 28.442709 21.576172 28.445312 C 21.578775 28.447939 21.581368 28.450509 21.583984 28.453125 C 21.586306 28.455446 21.589468 28.456673 21.591797 28.458984 C 21.594108 28.461314 21.595335 28.464476 21.597656 28.466797 C 21.599977 28.469118 21.603139 28.470345 21.605469 28.472656 C 21.60778 28.474986 21.609007 28.478148 21.611328 28.480469 C 21.613649 28.48279 21.616811 28.484017 21.619141 28.486328 C 21.621452 28.488657 21.622679 28.491819 21.625 28.494141 C 21.626962 28.496103 21.628892 28.498045 21.630859 28.5 C 21.632814 28.501968 21.634757 28.503897 21.636719 28.505859 C 21.638681 28.507821 21.64061 28.509764 21.642578 28.511719 C 21.644533 28.513687 21.646476 28.515616 21.648438 28.517578 C 21.650399 28.51954 21.652329 28.521483 21.654297 28.523438 C 21.656252 28.525405 21.658194 28.527335 21.660156 28.529297 C 21.661828 28.530969 21.664339 28.531536 21.666016 28.533203 C 21.667678 28.534875 21.668255 28.537395 21.669922 28.539062 C 21.672905 28.542045 21.676691 28.543909 21.679688 28.546875 C 21.682646 28.549864 21.684525 28.553665 21.6875 28.556641 C 21.688808 28.557948 21.690096 28.559242 21.691406 28.560547 C 21.692711 28.561857 21.694005 28.563145 21.695312 28.564453 C 21.696984 28.566125 21.701449 28.568646 21.703125 28.570312 C 21.705436 28.572642 21.706663 28.575804 21.708984 28.578125 C 21.710014 28.579155 21.713812 28.581004 21.714844 28.582031 C 21.714844 28.582031 21.714844 28.583984 21.714844 28.583984 C 21.716123 28.585269 21.717468 28.586608 21.71875 28.587891 C 21.71875 28.587891 21.720703 28.589844 21.720703 28.589844 C 21.720703 28.589844 21.722656 28.591797 21.722656 28.591797 C 21.722656 28.591797 21.724609 28.59375 21.724609 28.59375 C 21.724609 28.59375 21.726562 28.595703 21.726562 28.595703 C 21.728517 28.597671 21.73046 28.599601 21.732422 28.601562 C 21.812889 28.68203 21.904539 28.746382 21.994141 28.814453 C 22.031658 28.842911 22.064575 28.878084 22.103516 28.904297 C 22.10503 28.905312 22.105905 28.907192 22.107422 28.908203 C 22.107422 28.908203 22.109375 28.910156 22.109375 28.910156 C 22.109375 28.910156 22.111328 28.912109 22.111328 28.912109 C 22.111747 28.912389 22.112863 28.91183 22.113281 28.912109 C 22.175774 28.953718 22.244782 28.981867 22.310547 29.017578 C 22.363859 29.046587 22.415489 29.078489 22.470703 29.103516 C 22.49435 29.114184 22.515098 29.130698 22.539062 29.140625 C 22.539592 29.140846 22.540486 29.140405 22.541016 29.140625 C 22.827221 29.25953 23.135923 29.321901 23.451172 29.328125 C 23.466963 29.328424 23.482223 29.332031 23.498047 29.332031 C 23.498701 29.332032 23.499346 29.332031 23.5 29.332031 L 28.916016 29.332031 C 29.192283 29.332031 29.46251 29.277539 29.712891 29.173828 C 29.838538 29.121783 29.958648 29.058301 30.072266 28.982422 C 30.18552 28.906902 30.290996 28.820331 30.388672 28.722656 C 30.38903 28.722298 30.388314 28.721061 30.388672 28.720703 C 30.681104 28.427845 30.879036 28.058164 30.958984 27.658203 C 30.959111 27.657571 30.958859 27.656882 30.958984 27.65625 C 30.985418 27.523368 31 27.387479 31 27.25 C 31 26.871646 30.893472 26.521271 30.716797 26.216797 C 30.700593 26.188871 30.689332 26.157938 30.671875 26.130859 C 30.671875 26.130859 30.669922 26.128906 30.669922 26.128906 C 30.60182 26.023096 30.52325 25.923507 30.4375 25.832031 C 30.436872 25.831365 30.436175 25.830743 30.435547 25.830078 C 30.435547 25.830078 30.433594 25.828125 30.433594 25.828125 C 30.433594 25.828125 30.431641 25.826172 30.431641 25.826172 C 30.431641 25.826172 30.429688 25.824219 30.429688 25.824219 C 30.429688 25.824219 30.427734 25.822266 30.427734 25.822266 C 30.427734 25.822266 30.425781 25.820312 30.425781 25.820312 C 30.425781 25.820312 30.423828 25.818359 30.423828 25.818359 C 30.423828 25.818359 30.421875 25.816406 30.421875 25.816406 C 30.421875 25.816406 30.419922 25.814453 30.419922 25.814453 C 30.418667 25.813121 30.415321 25.809922 30.414062 25.808594 C 30.409627 25.803843 30.40487 25.799631 30.400391 25.794922 C 30.398494 25.79291 30.394482 25.789114 30.392578 25.787109 C 30.3869 25.781011 30.38075 25.775561 30.375 25.769531 C 30.371862 25.766202 30.368394 25.763075 30.365234 25.759766 C 30.361469 25.75577 30.357312 25.752013 30.353516 25.748047 C 30.349723 25.744022 30.345621 25.740322 30.341797 25.736328 C 30.338005 25.732304 30.333902 25.728604 30.330078 25.724609 C 30.325654 25.719914 30.320874 25.715591 30.316406 25.710938 C 30.311982 25.706242 30.307202 25.70192 30.302734 25.697266 C 30.29831 25.692571 30.29353 25.688248 30.289062 25.683594 C 30.284022 25.678245 30.278534 25.673264 30.273438 25.667969 C 30.268381 25.662603 30.262926 25.657656 30.257812 25.652344 C 30.25402 25.648319 30.249918 25.644619 30.246094 25.640625 C 30.242337 25.636607 30.238163 25.632895 30.234375 25.628906 C 30.225585 25.61944 30.214043 25.608911 30.205078 25.599609 C 30.20095 25.595229 30.195572 25.592235 30.191406 25.587891 C 30.185083 25.581118 30.178288 25.575048 30.171875 25.568359 C 30.165552 25.561586 30.158756 25.555516 30.152344 25.548828 C 30.145401 25.541391 30.13791 25.534679 30.130859 25.527344 C 30.123907 25.519897 30.116435 25.513204 30.109375 25.505859 C 30.101805 25.497751 30.093636 25.490409 30.085938 25.482422 C 30.078986 25.474975 30.071513 25.468282 30.064453 25.460938 C 30.056261 25.45214 30.047405 25.444202 30.039062 25.435547 C 30.031475 25.427419 30.023342 25.420115 30.015625 25.412109 C 30.007433 25.403312 29.998577 25.395374 29.990234 25.386719 C 29.982043 25.377921 29.973186 25.369983 29.964844 25.361328 C 29.956047 25.35188 29.946471 25.343268 29.9375 25.333984 C 29.930281 25.326231 29.923352 25.31819 29.916016 25.310547 C 29.902272 25.295669 29.887218 25.28205 29.873047 25.267578 C 29.866733 25.260878 29.857964 25.256616 29.851562 25.25 C 29.841811 25.239511 29.832231 25.229036 29.822266 25.21875 C 29.812505 25.208239 29.800991 25.19976 29.791016 25.189453 C 29.782498 25.180291 29.774306 25.171117 29.765625 25.162109 C 29.752166 25.147518 29.738479 25.133342 29.724609 25.119141 C 29.715502 25.1094 29.704605 25.101362 29.695312 25.091797 C 29.68462 25.080283 29.673059 25.069864 29.662109 25.058594 C 29.651124 25.046764 29.63821 25.036963 29.626953 25.025391 C 29.615587 25.013133 29.603454 25.002216 29.591797 24.990234 C 29.582017 24.979687 29.572496 24.969327 29.5625 24.958984 C 29.547489 24.942667 29.531149 24.927941 29.515625 24.912109 C 29.506818 24.902675 29.497262 24.894035 29.488281 24.884766 C 29.47327 24.868448 29.45693 24.853722 29.441406 24.837891 C 29.430066 24.825711 29.417879 24.81464 29.40625 24.802734 C 29.393993 24.7895 29.379784 24.778538 29.367188 24.765625 C 29.354011 24.751377 29.339741 24.738485 29.326172 24.724609 C 29.31298 24.710345 29.298742 24.697485 29.285156 24.683594 C 29.271706 24.66905 29.258 24.654781 29.244141 24.640625 C 29.232251 24.627754 29.219242 24.616083 29.207031 24.603516 C 29.190182 24.585152 29.171793 24.56853 29.154297 24.550781 C 29.141733 24.537253 29.128153 24.52491 29.115234 24.511719 C 29.101172 24.496494 29.084823 24.48355 29.070312 24.46875 C 29.055292 24.452464 29.03897 24.437675 29.023438 24.421875 C 29.010254 24.407583 28.996 24.394778 28.982422 24.380859 C 28.964289 24.361067 28.944665 24.343298 28.925781 24.324219 C 28.911921 24.309272 28.897105 24.295785 28.882812 24.28125 C 28.867191 24.264314 28.850159 24.248832 28.833984 24.232422 C 28.818322 24.215442 28.801374 24.200045 28.785156 24.183594 C 28.769515 24.166635 28.752523 24.151197 28.736328 24.134766 C 28.720033 24.117053 28.702445 24.101124 28.685547 24.083984 C 28.670532 24.067663 28.6542 24.052945 28.638672 24.037109 C 28.61904 24.015624 28.598639 23.995256 28.578125 23.974609 C 28.564045 23.959406 28.54773 23.946419 28.533203 23.931641 C 28.513241 23.909794 28.491577 23.89012 28.470703 23.869141 C 28.454352 23.85146 28.436876 23.835465 28.419922 23.818359 C 28.412684 23.810492 28.405795 23.802677 28.398438 23.794922 C 28.397809 23.79426 28.39516 23.791677 28.394531 23.791016 C 28.384937 23.779521 28.378896 23.76526 28.369141 23.753906 C 28.36854 23.753207 28.367789 23.752652 28.367188 23.751953 C 28.367188 23.751953 28.365234 23.75 28.365234 23.75 C 28.365234 23.75 28.363281 23.748047 28.363281 23.748047 C 28.36208 23.746648 28.360579 23.745537 28.359375 23.744141 C 28.35817 23.742738 28.356676 23.741634 28.355469 23.740234 C 28.354267 23.738836 28.352767 23.737725 28.351562 23.736328 C 28.349765 23.734236 28.347506 23.732556 28.345703 23.730469 C 28.345397 23.73012 28.344057 23.730818 28.34375 23.730469 C 28.341981 23.728411 28.339665 23.726662 28.337891 23.724609 C 28.337891 23.724609 28.335938 23.722656 28.335938 23.722656 C 28.335938 23.722656 28.335938 23.720703 28.335938 23.720703 C 28.335938 23.720703 28.333984 23.71875 28.333984 23.71875 C 28.333984 23.71875 28.332031 23.716797 28.332031 23.716797 C 28.329628 23.714 28.326632 23.711773 28.324219 23.708984 C 28.321815 23.706187 28.318819 23.70396 28.316406 23.701172 C 28.31341 23.697685 28.309652 23.69488 28.306641 23.691406 C 28.303636 23.68791 28.299894 23.685123 28.296875 23.681641 C 28.29327 23.677445 28.288783 23.674098 28.285156 23.669922 C 28.285156 23.669922 28.283203 23.667969 28.283203 23.667969 C 28.283203 23.667969 28.28125 23.666016 28.28125 23.666016 C 28.280934 23.665676 28.279613 23.666355 28.279297 23.666016 C 28.279297 23.666016 28.277344 23.664062 28.277344 23.664062 C 28.276151 23.662684 28.272679 23.65958 28.271484 23.658203 C 28.270222 23.656853 28.268843 23.655644 28.267578 23.654297 C 28.267265 23.653964 28.267892 23.652676 28.267578 23.652344 C 28.267578 23.652344 28.265625 23.650391 28.265625 23.650391 C 28.264368 23.649043 28.262978 23.64783 28.261719 23.646484 C 28.260523 23.645093 28.25901 23.643967 28.257812 23.642578 C 28.257493 23.642242 28.256179 23.642915 28.255859 23.642578 C 28.255859 23.642578 28.253906 23.640625 28.253906 23.640625 C 28.252114 23.638552 28.249845 23.636834 28.248047 23.634766 C 28.246845 23.633367 28.245345 23.632256 28.244141 23.630859 C 28.242225 23.628867 28.240203 23.626988 28.238281 23.625 C 28.237004 23.623672 28.235655 23.62242 28.234375 23.621094 C 28.233173 23.619695 28.231673 23.618584 28.230469 23.617188 C 28.229191 23.615859 28.227842 23.614607 28.226562 23.613281 C 28.226562 23.613281 28.224609 23.611328 28.224609 23.611328 C 28.224609 23.611328 28.224609 23.609375 28.224609 23.609375 C 28.224609 23.609375 28.222656 23.607422 28.222656 23.607422 C 28.222656 23.607422 28.220703 23.605469 28.220703 23.605469 C 28.215896 23.599875 28.209924 23.595403 28.205078 23.589844 C 28.205078 23.589844 28.203125 23.587891 28.203125 23.587891 C 28.201596 23.586114 28.198799 23.585758 28.197266 23.583984 C 28.197266 23.583984 28.195312 23.582031 28.195312 23.582031 C 28.194108 23.58064 28.192614 23.579514 28.191406 23.578125 C 28.191406 23.578125 28.189453 23.576172 28.189453 23.576172 C 28.189453 23.576172 28.189453 23.574219 28.189453 23.574219 C 28.184344 23.568272 28.177029 23.564501 28.171875 23.558594 C 28.166421 23.552342 28.1598 23.547224 28.154297 23.541016 C 28.150692 23.53682 28.146205 23.533473 28.142578 23.529297 C 28.14132 23.52795 28.139932 23.526735 28.138672 23.525391 C 28.138672 23.525391 28.138672 23.523438 28.138672 23.523438 C 28.138672 23.523438 28.136719 23.521484 28.136719 23.521484 C 28.13159 23.515515 28.122361 23.509836 28.117188 23.503906 C 28.115363 23.501819 28.113158 23.50013 28.111328 23.498047 C 28.106911 23.493323 28.102102 23.489072 28.097656 23.484375 C 28.097656 23.484375 28.095703 23.482422 28.095703 23.482422 C 28.091871 23.478437 28.087838 23.474668 28.083984 23.470703 C 28.083038 23.469701 28.082979 23.467798 28.082031 23.466797 C 28.080792 23.465425 28.079366 23.46426 28.078125 23.462891 C 28.071814 23.455546 28.063019 23.450645 28.056641 23.443359 C 28.056641 23.443359 28.056641 23.441406 28.056641 23.441406 C 28.050329 23.434061 28.041535 23.427207 28.035156 23.419922 C 28.035156 23.419922 28.033203 23.417969 28.033203 23.417969 C 28.026867 23.410607 28.018123 23.405739 28.011719 23.398438 C 28.005109 23.390746 27.994964 23.382626 27.988281 23.375 C 27.987083 23.373606 27.985576 23.372486 27.984375 23.371094 C 27.979445 23.365611 27.973718 23.360917 27.96875 23.355469 C 27.96875 23.355469 27.966797 23.353516 27.966797 23.353516 C 27.966797 23.353516 27.966797 23.351562 27.966797 23.351562 C 27.966797 23.351562 27.964844 23.349609 27.964844 23.349609 C 27.957634 23.341218 27.946751 23.332532 27.939453 23.324219 C 27.932224 23.315806 27.921379 23.307163 27.914062 23.298828 C 27.906852 23.290437 27.895969 23.281751 27.888672 23.273438 C 27.880882 23.264371 27.86922 23.255069 27.861328 23.246094 C 27.852613 23.235952 27.840873 23.228778 27.832031 23.21875 C 27.825422 23.211058 27.81723 23.204892 27.810547 23.197266 C 27.809365 23.195881 27.807825 23.194742 27.806641 23.193359 C 27.805693 23.192358 27.805636 23.190453 27.804688 23.189453 C 27.796276 23.179663 27.783921 23.16984 27.775391 23.160156 C 27.766675 23.150013 27.752984 23.140889 27.744141 23.130859 C 27.741737 23.128062 27.738741 23.125835 27.736328 23.123047 C 27.731219 23.117733 27.72585 23.112699 27.720703 23.107422 C 27.719521 23.106037 27.717982 23.104898 27.716797 23.103516 C 27.716797 23.103516 27.716797 23.101562 27.716797 23.101562 C 27.716797 23.101562 27.714844 23.099609 27.714844 23.099609 C 27.704953 23.088099 27.691696 23.079723 27.681641 23.068359 C 27.681641 23.068359 27.679688 23.066406 27.679688 23.066406 C 27.672023 23.058436 27.663998 23.050858 27.65625 23.042969 C 27.65625 23.042969 27.654297 23.041016 27.654297 23.041016 C 27.652756 23.039317 27.651935 23.036851 27.650391 23.035156 C 27.640777 23.023968 27.626956 23.013003 27.617188 23.001953 C 27.607574 22.990765 27.593753 22.9798 27.583984 22.96875 C 27.57377 22.956862 27.559218 22.945325 27.548828 22.933594 C 27.538614 22.921706 27.524061 22.910168 27.513672 22.898438 C 27.511288 22.895663 27.508253 22.893391 27.505859 22.890625 C 27.505859 22.890625 27.503906 22.890625 27.503906 22.890625 C 27.500291 22.886452 27.495824 22.88306 27.492188 22.878906 C 27.487078 22.873593 27.481709 22.868559 27.476562 22.863281 C 27.472894 22.85915 27.468534 22.855674 27.464844 22.851562 C 27.457643 22.843791 27.450638 22.835822 27.443359 22.828125 C 27.443359 22.828125 27.441406 22.826172 27.441406 22.826172 C 27.429687 22.812533 27.414293 22.802494 27.402344 22.789062 C 27.398138 22.784168 27.392908 22.780259 27.388672 22.775391 C 27.382924 22.769413 27.376889 22.763745 27.371094 22.757812 C 27.370165 22.756724 27.370071 22.754993 27.369141 22.753906 C 27.367894 22.752548 27.366483 22.751356 27.365234 22.75 C 27.353818 22.736714 27.337807 22.724028 27.326172 22.710938 C 27.314756 22.697651 27.298744 22.684965 27.287109 22.671875 C 27.276019 22.658968 27.259343 22.647487 27.248047 22.634766 C 27.248047 22.634766 27.248047 22.632812 27.248047 22.632812 C 27.248047 22.632812 27.246094 22.630859 27.246094 22.630859 C 27.234077 22.616874 27.217337 22.603612 27.205078 22.589844 C 27.192157 22.574807 27.17531 22.563614 27.162109 22.548828 C 27.149491 22.534143 27.132025 22.520304 27.119141 22.505859 C 27.108325 22.493272 27.094996 22.483114 27.083984 22.470703 C 27.068093 22.452059 27.049522 22.43623 27.033203 22.417969 C 27.020316 22.402971 27.0034 22.391701 26.990234 22.376953 C 26.989295 22.375941 26.989222 22.374058 26.988281 22.373047 C 26.974795 22.357352 26.95715 22.3455 26.943359 22.330078 C 26.9277 22.313263 26.910555 22.297715 26.894531 22.28125 C 26.880097 22.265806 26.864351 22.251476 26.849609 22.236328 C 26.849609 22.236328 26.847656 22.234375 26.847656 22.234375 C 26.843142 22.229122 26.834626 22.225926 26.830078 22.220703 C 26.822511 22.212022 26.814301 22.203909 26.806641 22.195312 C 26.806641 22.195312 26.806641 22.193359 26.806641 22.193359 C 26.790178 22.17408 26.768873 22.155587 26.751953 22.136719 C 26.737533 22.119936 26.717893 22.10436 26.703125 22.087891 C 26.68844 22.070801 26.669342 22.057781 26.654297 22.041016 C 26.653354 22.04001 26.653288 22.038114 26.652344 22.037109 C 26.637322 22.019628 26.616961 22.00347 26.601562 21.986328 C 26.585638 21.967795 26.565177 21.953698 26.548828 21.935547 C 26.542219 21.927855 26.534027 21.921689 26.527344 21.914062 C 26.520318 21.906756 26.512955 21.899816 26.505859 21.892578 C 26.505859 21.892578 26.503906 21.890625 26.503906 21.890625 C 26.501702 21.888275 26.500258 21.885155 26.498047 21.882812 C 26.481521 21.86358 26.460342 21.848899 26.443359 21.830078 C 26.42954 21.813995 26.412577 21.800952 26.398438 21.785156 C 26.398438 21.785156 26.396484 21.783203 26.396484 21.783203 C 26.394276 21.780857 26.392841 21.77773 26.390625 21.775391 C 26.373801 21.755811 26.353234 21.739856 26.335938 21.720703 C 26.319714 21.701823 26.297913 21.684499 26.28125 21.666016 C 26.264724 21.646783 26.243545 21.632102 26.226562 21.613281 C 26.225614 21.612281 26.225559 21.610374 26.224609 21.609375 C 26.208084 21.590142 26.186904 21.575461 26.169922 21.556641 C 26.168972 21.555641 26.168919 21.553733 26.167969 21.552734 C 26.147237 21.528607 26.121058 21.509806 26.099609 21.486328 C 26.083642 21.469723 26.06711 21.453749 26.050781 21.4375 C 26.033655 21.417568 26.011757 21.402302 25.994141 21.382812 C 25.994141 21.382812 25.992188 21.380859 25.992188 21.380859 C 25.992188 21.380859 25.992188 21.378906 25.992188 21.378906 C 25.976263 21.360373 25.955802 21.346276 25.939453 21.328125 C 25.918449 21.3035 25.894795 21.281766 25.873047 21.257812 C 25.854718 21.236482 25.829436 21.218089 25.810547 21.197266 C 25.810547 21.197266 25.808594 21.195312 25.808594 21.195312 C 25.791988 21.178043 25.774809 21.161415 25.757812 21.144531 C 25.754954 21.141532 25.75287 21.137753 25.75 21.134766 C 25.730521 21.112096 25.705659 21.094362 25.685547 21.072266 C 25.676534 21.061777 25.665399 21.053336 25.65625 21.042969 C 25.648092 21.03424 25.639116 21.026213 25.630859 21.017578 C 25.608424 20.991256 25.581878 20.968914 25.558594 20.943359 C 25.538714 20.920224 25.514679 20.901444 25.494141 20.878906 C 25.473712 20.855131 25.448859 20.835644 25.427734 20.8125 C 25.407253 20.788663 25.382509 20.769296 25.361328 20.746094 C 25.340846 20.722257 25.316103 20.70289 25.294922 20.679688 C 25.273892 20.655213 25.24833 20.635134 25.226562 20.611328 C 25.205533 20.586854 25.17997 20.566774 25.158203 20.542969 C 25.136871 20.518142 25.109982 20.498748 25.087891 20.474609 C 25.067159 20.450482 25.04098 20.429727 25.019531 20.40625 C 25.019531 20.40625 25.017578 20.404297 25.017578 20.404297 C 24.998649 20.382267 24.974605 20.365238 24.955078 20.34375 C 24.955078 20.34375 24.953125 20.341797 24.953125 20.341797 C 24.928826 20.31331 24.900292 20.289306 24.875 20.261719 C 24.852768 20.235846 24.825789 20.214578 24.802734 20.189453 C 24.782906 20.166377 24.758765 20.147482 24.738281 20.125 C 24.712855 20.095169 24.682765 20.06986 24.65625 20.041016 C 24.633418 20.014443 24.605732 19.99258 24.582031 19.966797 C 24.558598 19.939525 24.530207 19.917065 24.505859 19.890625 C 24.482366 19.863283 24.4541 19.840959 24.429688 19.814453 C 24.406194 19.787111 24.377928 19.764787 24.353516 19.738281 C 24.329482 19.71031 24.300386 19.687252 24.275391 19.660156 C 24.251294 19.632113 24.222328 19.609194 24.197266 19.582031 C 24.172929 19.553708 24.14251 19.531332 24.117188 19.503906 C 24.095855 19.479079 24.068966 19.459685 24.046875 19.435547 C 24.019027 19.402842 23.986185 19.375269 23.957031 19.34375 C 23.943813 19.328366 23.927574 19.315902 23.914062 19.300781 C 23.905121 19.291482 23.895774 19.282625 23.886719 19.273438 C 23.858337 19.24008 23.824661 19.211812 23.794922 19.179688 C 23.769383 19.149966 23.737561 19.126388 23.710938 19.097656 C 23.688403 19.071431 23.660099 19.050847 23.636719 19.025391 C 23.635713 19.024447 23.635772 19.022426 23.634766 19.021484 C 23.606681 18.988594 23.572375 18.961374 23.542969 18.929688 C 23.540565 18.92689 23.537569 18.924663 23.535156 18.921875 C 23.513819 18.899045 23.490757 18.877649 23.46875 18.855469 C 23.439174 18.820708 23.404096 18.791233 23.373047 18.757812 C 23.346609 18.727045 23.314708 18.701582 23.287109 18.671875 C 23.260071 18.640408 23.227472 18.614341 23.199219 18.583984 C 23.17218 18.552517 23.139581 18.526451 23.111328 18.496094 C 23.08429 18.464627 23.05169 18.43856 23.023438 18.408203 C 22.995872 18.376122 22.962421 18.349286 22.933594 18.318359 C 22.905955 18.286193 22.872658 18.259522 22.84375 18.228516 C 22.788915 18.164699 22.723813 18.109953 22.664062 18.050781 C 22.662496 18.049097 22.661726 18.046603 22.660156 18.044922 C 22.631916 18.012056 22.597923 17.984779 22.568359 17.953125 C 22.539518 17.91956 22.504831 17.891675 22.474609 17.859375 C 22.445768 17.82581 22.411081 17.797925 22.380859 17.765625 C 22.351716 17.731708 22.315709 17.704501 22.285156 17.671875 C 22.259017 17.641454 22.226494 17.617275 22.199219 17.587891 C 22.166666 17.549661 22.128082 17.517073 22.09375 17.480469 C 22.06701 17.449348 22.033788 17.424566 22.005859 17.394531 C 21.972933 17.355862 21.935137 17.322162 21.900391 17.285156 C 21.870045 17.24984 21.832654 17.221415 21.800781 17.1875 C 21.77344 17.15568 21.73952 17.130294 21.710938 17.099609 C 21.710938 17.099609 21.708984 17.097656 21.708984 17.097656 C 21.675791 17.058742 21.6366 17.025507 21.601562 16.988281 C 21.573621 16.955762 21.539004 16.92977 21.509766 16.898438 C 21.475643 16.858364 21.436466 16.823442 21.400391 16.785156 C 21.369146 16.748794 21.33169 16.71847 21.298828 16.683594 C 21.266983 16.646532 21.228838 16.615595 21.195312 16.580078 C 21.16549 16.545371 21.128954 16.517729 21.097656 16.484375 C 21.063813 16.44474 21.024038 16.410927 20.988281 16.373047 C 20.955835 16.335286 20.917002 16.303735 20.882812 16.267578 C 20.850366 16.229817 20.811533 16.198266 20.777344 16.162109 C 20.744297 16.123649 20.704777 16.091483 20.669922 16.054688 C 20.638895 16.018578 20.600982 15.989722 20.568359 15.955078 C 20.535333 15.916399 20.495788 15.884665 20.460938 15.847656 C 20.425299 15.805918 20.383462 15.770259 20.345703 15.730469 C 20.314074 15.693659 20.275475 15.664193 20.242188 15.628906 C 20.20856 15.589523 20.16833 15.557182 20.132812 15.519531 C 20.096576 15.477093 20.054053 15.440814 20.015625 15.400391 C 19.981376 15.360532 19.940486 15.327132 19.904297 15.289062 C 19.871635 15.25105 19.831304 15.21998 19.796875 15.183594 C 19.760039 15.140453 19.716833 15.103558 19.677734 15.0625 C 19.642885 15.021942 19.601311 14.987923 19.564453 14.949219 C 19.529003 14.907962 19.486747 14.873323 19.449219 14.833984 C 19.413768 14.792727 19.371512 14.758089 19.333984 14.71875 C 19.298231 14.677141 19.254663 14.643173 19.216797 14.603516 C 19.182246 14.563305 19.140042 14.530577 19.103516 14.492188 C 19.101845 14.490607 19.101283 14.487905 19.099609 14.486328 C 19.066861 14.448215 19.026712 14.417338 18.992188 14.380859 C 18.952939 14.334684 18.905113 14.293799 18.863281 14.25 C 18.826629 14.207344 18.783012 14.171463 18.744141 14.130859 C 18.710791 14.092047 18.669956 14.060554 18.634766 14.023438 C 18.594415 13.975966 18.546986 13.935584 18.503906 13.890625 C 18.469956 13.851113 18.428436 13.819004 18.392578 13.78125 C 18.353928 13.735778 18.308735 13.697465 18.267578 13.654297 C 18.230231 13.610558 18.184204 13.5748 18.144531 13.533203 C 18.104083 13.485784 18.056848 13.445291 18.013672 13.400391 C 17.979121 13.36018 17.936917 13.327452 17.900391 13.289062 C 17.86004 13.241591 17.812611 13.201209 17.769531 13.15625 C 17.731148 13.111377 17.685363 13.073863 17.644531 13.03125 C 17.604301 12.984134 17.554643 12.943064 17.511719 12.898438 C 17.475365 12.856129 17.431116 12.82154 17.392578 12.78125 C 17.353278 12.735095 17.307509 12.696119 17.265625 12.652344 C 17.225936 12.60578 17.177085 12.567576 17.134766 12.523438 C 17.092521 12.473912 17.043263 12.43154 16.998047 12.384766 C 16.961693 12.342457 16.917444 12.307868 16.878906 12.267578 C 16.835675 12.216717 16.782687 12.171018 16.736328 12.123047 C 16.699373 12.080039 16.654445 12.044828 16.615234 12.003906 C 16.573092 11.954327 16.523631 11.91207 16.478516 11.865234 C 16.438285 11.818118 16.390581 11.779002 16.347656 11.734375 C 16.303985 11.683139 16.251926 11.640089 16.205078 11.591797 C 16.16572 11.545992 16.118086 11.508278 16.076172 11.464844 C 16.036034 11.417836 15.988132 11.378514 15.945312 11.333984 C 15.901976 11.283 15.851166 11.239487 15.804688 11.191406 C 15.762953 11.142529 15.7126 11.102836 15.667969 11.056641 C 15.623327 11.004305 15.571393 10.959416 15.523438 10.910156 C 15.482878 10.862953 15.433897 10.823981 15.390625 10.779297 C 15.348103 10.729498 15.297481 10.687639 15.251953 10.640625 C 15.210618 10.592215 15.161365 10.55164 15.117188 10.505859 C 15.070383 10.450794 15.015307 10.403233 14.964844 10.351562 C 14.924885 10.305058 14.876577 10.266716 14.833984 10.222656 C 14.786952 10.167324 14.732366 10.120263 14.681641 10.068359 C 14.641081 10.021156 14.5921 9.9821843 14.548828 9.9375 C 14.501197 9.8814632 14.445948 9.8337693 14.394531 9.78125 C 14.353971 9.7340465 14.304991 9.6950749 14.261719 9.6503906 C 14.213723 9.5939242 14.157309 9.5450815 14.105469 9.4921875 C 14.064308 9.4442847 14.014656 9.4046824 13.970703 9.359375 C 13.922112 9.3022079 13.86503 9.2527228 13.8125 9.1992188 C 13.770738 9.1506167 13.720416 9.1103825 13.675781 9.0644531 C 13.628862 9.0092532 13.574033 8.9619445 13.523438 8.9101562 C 12.951027 8.2397782 12.099863 7.8164062 11.148438 7.8164062 z "
       transform="matrix(0.9375,0,0,0.9375,-1.8749779,2.4708283)"
       id="path923"
       clip-path="url(#clipPath1784)" />
    <path
       style="display:inline;fill:#f5f5f5;stroke-width:0.93749988"
       id="path4231"
       d="M 11.308616,12.013797 C 11.04299,10.670047 9.8593963,9.6583288 8.437522,9.6583288 c -1.1289065,0 -2.1093751,0.6406242 -2.5976563,1.5742182 -1.1757812,0.128907 -2.0898436,1.121094 -2.0898436,2.33203 a 2.3437498,2.3437498 0 0 0 2.3437499,2.343751 h 5.078124 a 1.9531248,1.9531248 0 0 0 1.953126,-1.953125 c 0,-1.03125 -0.800782,-1.867187 -1.816406,-1.941406 z"
       inkscape:connector-curvature="0"
       clip-path="url(#clipPath1792)" />
    <path
       inkscape:connector-curvature="0"
       d="m 25.371116,26.076297 c -0.265626,-1.34375 -1.44922,-2.355468 -2.871094,-2.355468 -1.128907,0 -2.109375,0.640624 -2.597656,1.574218 -1.175782,0.128907 -2.089844,1.121094 -2.089844,2.33203 a 2.3437498,2.3437498 0 0 0 2.34375,2.343751 h 5.078124 a 1.9531248,1.9531248 0 0 0 1.953126,-1.953125 c 0,-1.03125 -0.800782,-1.867187 -1.816406,-1.941406 z"
       id="path868"
       style="display:inline;fill:#212121;stroke-width:0.93749988"
       clip-path="url(#clipPath1788)" />
  </g>
</svg>
