<?xml version="1.0" encoding="UTF-8" standalone="no"?>
<!-- Created with Inkscape (http://www.inkscape.org/) -->

<svg
   xmlns:dc="http://purl.org/dc/elements/1.1/"
   xmlns:cc="http://creativecommons.org/ns#"
   xmlns:rdf="http://www.w3.org/1999/02/22-rdf-syntax-ns#"
   xmlns:svg="http://www.w3.org/2000/svg"
   xmlns="http://www.w3.org/2000/svg"
   xmlns:sodipodi="http://sodipodi.sourceforge.net/DTD/sodipodi-0.dtd"
   xmlns:inkscape="http://www.inkscape.org/namespaces/inkscape"
   sodipodi:docname="cloud.svg"
   inkscape:version="0.92.2 (5c3e80d, 2017-08-06)"
   version="1.1"
   id="svg2"
   viewBox="0 0 28.125 28.125"
   height="30"
   width="30"
   inkscape:export-filename="/home/juergen/Desktop/ic_launcher_foreground.png"
   inkscape:export-xdpi="460.79999"
   inkscape:export-ydpi="460.79999">
  <sodipodi:namedview
     inkscape:snap-to-guides="true"
     inkscape:snap-grids="true"
     inkscape:window-maximized="1"
     inkscape:window-y="33"
     inkscape:window-x="0"
     inkscape:window-height="699"
     inkscape:window-width="1366"
     inkscape:guide-bbox="true"
     showguides="false"
     fit-margin-bottom="5"
     fit-margin-right="5"
     fit-margin-left="5"
     fit-margin-top="5"
     showgrid="true"
     inkscape:current-layer="layer2"
     inkscape:document-units="px"
     inkscape:cy="19.589679"
     inkscape:cx="20.031687"
     inkscape:zoom="31.678384"
     inkscape:pageshadow="2"
     inkscape:pageopacity="0.0"
     borderopacity="1.0"
     bordercolor="#666666"
     pagecolor="#ffffff"
     id="base"
     units="px">
    <inkscape:grid
       type="xygrid"
       id="grid4138"
       originx="10.3125"
       originy="22.500001" />
    <sodipodi:guide
       position="15.624978,24.845829"
       orientation="0,1"
       id="guide4140"
       inkscape:locked="false" />
    <sodipodi:guide
       position="15.624978,8.8458282"
       orientation="0,1"
       id="guide4142"
       inkscape:locked="false" />
    <sodipodi:guide
       position="7.624978,16.845829"
       orientation="1,0"
       id="guide4144"
       inkscape:locked="false" />
    <sodipodi:guide
       position="5.6249779,6.8458281"
       orientation="0,20"
       id="guide4146"
       inkscape:locked="false" />
    <sodipodi:guide
       position="25.624978,6.8458281"
       orientation="-20,0"
       id="guide4148"
       inkscape:locked="false" />
    <sodipodi:guide
       position="25.624978,26.845829"
       orientation="0,-20"
       id="guide4150"
       inkscape:locked="false" />
    <sodipodi:guide
       position="5.6249779,26.845829"
       orientation="20,0"
       id="guide4152"
       inkscape:locked="false" />
    <sodipodi:guide
       position="23.624978,16.845829"
       orientation="1,0"
       id="guide4154"
       inkscape:locked="false" />
    <sodipodi:guide
       position="15.624978,16.845829"
       orientation="-0.70710678,0.70710678"
       id="guide4156"
       inkscape:locked="false" />
    <sodipodi:guide
       position="15.624978,16.845829"
       orientation="0.70710678,0.70710678"
       id="guide4158"
       inkscape:locked="false" />
    <sodipodi:guide
       position="9.6249781,16.845829"
       orientation="1,0"
       id="guide4160"
       inkscape:locked="false" />
    <sodipodi:guide
       position="21.624978,16.845829"
       orientation="1,0"
       id="guide4162"
       inkscape:locked="false" />
    <sodipodi:guide
       position="15.624978,22.845829"
       orientation="0,1"
       id="guide4164"
       inkscape:locked="false" />
    <sodipodi:guide
       position="15.624978,10.845828"
       orientation="0,1"
       id="guide4166"
       inkscape:locked="false" />
    <sodipodi:guide
       position="15.624978,21.845829"
       orientation="0,1"
       id="guide4168"
       inkscape:locked="false" />
    <sodipodi:guide
       position="15.624978,11.845828"
       orientation="0,1"
       id="guide4170"
       inkscape:locked="false" />
    <sodipodi:guide
       position="10.624978,16.845829"
       orientation="1,0"
       id="guide4172"
       inkscape:locked="false" />
    <sodipodi:guide
       position="20.624978,16.845829"
       orientation="1,0"
       id="guide4174"
       inkscape:locked="false" />
  </sodipodi:namedview>
  <defs
     id="defs4">
    <clipPath
       id="clipPath12478"
       clipPathUnits="userSpaceOnUse">
      <circle
         r="10"
         cy="10.000005"
         cx="9.9999781"
         id="circle12480"
         style="opacity:1;fill:#2196f3;fill-opacity:1;stroke:none;stroke-width:0.05069799;stroke-miterlimit:4;stroke-dasharray:none;stroke-opacity:1" />
    </clipPath>
    <clipPath
       clipPathUnits="userSpaceOnUse"
       id="clipPath5790">
      <circle
         r="10"
         cy="10.000005"
         cx="9.9999781"
         id="circle5792"
         style="opacity:1;fill:#2196f3;fill-opacity:1;stroke:none;stroke-width:0.05069799;stroke-miterlimit:4;stroke-dasharray:none;stroke-opacity:1"
         inkscape:export-filename="/home/juergen/path4136.png"
         inkscape:export-xdpi="648"
         inkscape:export-ydpi="648" />
    </clipPath>
    <clipPath
       id="clipPath7690"
       clipPathUnits="userSpaceOnUse">
      <circle
         r="10"
         cy="10.000005"
         cx="9.9999781"
         id="circle7692"
         style="opacity:1;fill:#2196f3;fill-opacity:1;stroke:none;stroke-width:0.05069799;stroke-miterlimit:4;stroke-dasharray:none;stroke-opacity:1"
         inkscape:export-filename="/home/juergen/Schreibtisch/path4136.png"
         inkscape:export-xdpi="648"
         inkscape:export-ydpi="648" />
    </clipPath>
    <clipPath
       clipPathUnits="userSpaceOnUse"
       id="clipPath5119">
      <circle
         r="10"
         cy="10.000005"
         cx="9.9999781"
         id="circle5121"
         style="opacity:1;fill:#ff9800;fill-opacity:1;stroke:none;stroke-width:0.05069799;stroke-miterlimit:4;stroke-dasharray:none;stroke-opacity:1"
         inkscape:export-filename="/home/juergen/Schreibtisch/path4136.png"
         inkscape:export-xdpi="648"
         inkscape:export-ydpi="648" />
    </clipPath>
    <clipPath
       id="clipPath3591"
       clipPathUnits="userSpaceOnUse">
      <rect
         y="8.63554"
         x="4.000071"
         height="20"
         width="20"
         id="rect3593"
         style="fill:#ea80fc;fill-opacity:0.95685281;stroke:none;stroke-width:5.75974274;stroke-miterlimit:4;stroke-dasharray:none;stroke-opacity:1"
         inkscape:export-filename="/home/juergen/Desktop/ic_launcher.png"
         inkscape:export-xdpi="691.20001"
         inkscape:export-ydpi="691.20001" />
    </clipPath>
    <clipPath
       id="clipPath3595"
       clipPathUnits="userSpaceOnUse">
      <rect
         y="3.4083283"
         x="-0.93747789"
         height="18.75"
         width="18.75"
         id="rect3597"
         style="fill:#ea80fc;fill-opacity:0.95685281;stroke:none;stroke-width:5.39975882;stroke-miterlimit:4;stroke-dasharray:none;stroke-opacity:1"
         inkscape:export-filename="/home/juergen/Desktop/ic_launcher.png"
         inkscape:export-xdpi="691.20001"
         inkscape:export-ydpi="691.20001" />
    </clipPath>
    <clipPath
       id="clipPath3599"
       clipPathUnits="userSpaceOnUse">
      <rect
         y="3.4083283"
         x="-0.93747789"
         height="18.75"
         width="18.75"
         id="rect3601"
         style="fill:#ea80fc;fill-opacity:0.95685281;stroke:none;stroke-width:5.39975882;stroke-miterlimit:4;stroke-dasharray:none;stroke-opacity:1"
         inkscape:export-filename="/home/juergen/Desktop/ic_launcher.png"
         inkscape:export-xdpi="691.20001"
         inkscape:export-ydpi="691.20001" />
    </clipPath>
    <clipPath
       id="clipPath3603"
       clipPathUnits="userSpaceOnUse">
      <rect
         y="3.4083283"
         x="-0.93747789"
         height="18.75"
         width="18.75"
         id="rect3605"
         style="fill:#ea80fc;fill-opacity:0.95685281;stroke:none;stroke-width:5.39975882;stroke-miterlimit:4;stroke-dasharray:none;stroke-opacity:1"
         inkscape:export-filename="/home/juergen/Desktop/ic_launcher.png"
         inkscape:export-xdpi="691.20001"
         inkscape:export-ydpi="691.20001" />
    </clipPath>
    <clipPath
       id="clipPath3617"
       clipPathUnits="userSpaceOnUse">
      <rect
         y="3.4083283"
         x="-0.93747789"
         height="18.75"
         width="18.75"
         id="rect3619"
         style="fill:#8bc34a;fill-opacity:0.95685281;stroke:none;stroke-width:5.39975882;stroke-miterlimit:4;stroke-dasharray:none;stroke-opacity:1"
         inkscape:export-filename="/home/juergen/Desktop/ic_launcher.png"
         inkscape:export-xdpi="691.20001"
         inkscape:export-ydpi="691.20001"
         ry="0.93749899" />
    </clipPath>
    <clipPath
       id="clipPath3621"
       clipPathUnits="userSpaceOnUse">
      <rect
         y="8.63554"
         x="4.000071"
         height="20"
         width="20"
         id="rect3623"
         style="fill:#8bc34a;fill-opacity:0.95685281;stroke:none;stroke-width:5.75974274;stroke-miterlimit:4;stroke-dasharray:none;stroke-opacity:1"
         inkscape:export-filename="/home/juergen/Desktop/ic_launcher.png"
         inkscape:export-xdpi="691.20001"
         inkscape:export-ydpi="691.20001"
         ry="0.99999893" />
    </clipPath>
    <clipPath
       id="clipPath3627"
       clipPathUnits="userSpaceOnUse">
      <rect
         y="3.4083283"
         x="-0.93747789"
         height="18.75"
         width="18.75"
         id="rect3629"
         style="fill:#8bc34a;fill-opacity:0.95685281;stroke:none;stroke-width:5.39975882;stroke-miterlimit:4;stroke-dasharray:none;stroke-opacity:1"
         inkscape:export-filename="/home/juergen/Desktop/ic_launcher.png"
         inkscape:export-xdpi="691.20001"
         inkscape:export-ydpi="691.20001"
         ry="1.874999" />
    </clipPath>
    <clipPath
       id="clipPath3631"
       clipPathUnits="userSpaceOnUse">
      <rect
         y="8.63554"
         x="4.000071"
         height="20"
         width="20"
         id="rect3633"
         style="fill:#8bc34a;fill-opacity:0.95685281;stroke:none;stroke-width:5.75974274;stroke-miterlimit:4;stroke-dasharray:none;stroke-opacity:1"
         inkscape:export-filename="/home/juergen/Desktop/ic_launcher.png"
         inkscape:export-xdpi="691.20001"
         inkscape:export-ydpi="691.20001"
         ry="1.9999989" />
    </clipPath>
    <clipPath
       clipPathUnits="userSpaceOnUse"
       id="clipPath1784">
      <rect
         y="1"
         x="1"
         height="20"
         width="20"
         id="rect1786"
         style="fill:#ffc107;fill-opacity:0.95685281;stroke:none;stroke-width:5.75974274;stroke-miterlimit:4;stroke-dasharray:none;stroke-opacity:1"
         inkscape:export-filename="/home/juergen/Desktop/ic_launcher.png"
         inkscape:export-xdpi="691.20001"
         inkscape:export-ydpi="691.20001"
         ry="1.9999989" />
    </clipPath>
    <clipPath
       clipPathUnits="userSpaceOnUse"
       id="clipPath1788">
      <rect
         y="3.4083283"
         x="-0.93747789"
         height="18.75"
         width="18.75"
         id="rect1790"
         style="fill:#ffc107;fill-opacity:0.95685281;stroke:none;stroke-width:5.39975882;stroke-miterlimit:4;stroke-dasharray:none;stroke-opacity:1"
         inkscape:export-filename="/home/juergen/Desktop/ic_launcher.png"
         inkscape:export-xdpi="691.20001"
         inkscape:export-ydpi="691.20001"
         ry="1.874999" />
    </clipPath>
    <clipPath
       clipPathUnits="userSpaceOnUse"
       id="clipPath1792">
      <rect
         y="3.4083283"
         x="-0.93747789"
         height="18.75"
         width="18.75"
         id="rect1794"
         style="fill:#ffc107;fill-opacity:0.95685281;stroke:none;stroke-width:5.39975882;stroke-miterlimit:4;stroke-dasharray:none;stroke-opacity:1"
         inkscape:export-filename="/home/juergen/Desktop/ic_launcher.png"
         inkscape:export-xdpi="691.20001"
         inkscape:export-ydpi="691.20001"
         ry="1.874999" />
    </clipPath>
  </defs>
  <metadata
     id="metadata7">
    <rdf:RDF>
      <cc:Work
         rdf:about="">
        <dc:format>image/svg+xml</dc:format>
        <dc:type
           rdf:resource="http://purl.org/dc/dcmitype/StillImage" />
        <dc:title></dc:title>
      </cc:Work>
    </rdf:RDF>
  </metadata>
  <g
     inkscape:label="Hintergrund"
     inkscape:groupmode="layer"
     id="layer1"
     transform="translate(1063.7677,-860.65447)" />
  <g
     style="display:inline"
     inkscape:groupmode="layer"
     id="layer2"
     inkscape:label="Icon"
     transform="translate(5.6249779,1.2791717)">
    <rect
       ry="0"
       inkscape:export-ydpi="691.20001"
       inkscape:export-xdpi="691.20001"
       inkscape:export-filename="/home/juergen/Desktop/ic_launcher.png"
       style="fill:#4caf50;fill-opacity:0.95685281;stroke:none;stroke-width:5.39975882;stroke-miterlimit:4;stroke-dasharray:none;stroke-opacity:1"
       id="rect849"
       width="18.75"
       height="18.75"
       x="-0.93747789"
       y="3.4083283" />
    <path
       d="M 3.9999777,4.0333382 H 15.999978 V 15.966671 H 3.9999777 Z"
       id="path4"
       inkscape:connector-curvature="0"
       style="fill:none" />
    <path
       clip-path="url(#clipPath3603)"
       style="fill:none"
       inkscape:connector-curvature="0"
       id="path9754"
       d="m 18.999978,19.033339 h 12 v 11.933333 h -12 z" />
    <path
       clip-path="url(#clipPath3595)"
       style="fill:#212121"
       id="path1785"
       d="m 21.500022,22.845828 h -3 c -0.555,0 -1,0.445 -1,1 v 6 a 1,1 0 0 0 1,1 h 8 a 1,1 0 0 0 1,-1 v -5 c 0,-0.555 -0.45,-1 -1,-1 h -4 z"
       inkscape:connector-curvature="0" />
    <path
       style="display:inline;opacity:0.2;fill:#212121;stroke-width:0.99999988"
       d="m 11.148438,7.8164062 c -1.2041674,0 -2.2486985,0.6819008 -2.7695318,1.6777344 -1.2541666,0.1375008 -2.2304687,1.1966164 -2.2304687,2.4882814 -3e-7,0.663042 0.2635809,1.298737 0.7324219,1.767578 0.025109,0.02511 0.055985,0.04248 0.082031,0.06641 0.023922,0.02605 0.041297,0.05692 0.066406,0.08203 0.025109,0.02511 0.055985,0.04248 0.082031,0.06641 0.023386,0.02541 0.039936,0.05556 0.064453,0.08008 0.026417,0.02642 0.058485,0.04521 0.085938,0.07031 0.022407,0.02426 0.039058,0.05273 0.0625,0.07617 0.023514,0.02351 0.051835,0.04003 0.076172,0.0625 0.024513,0.02675 0.042596,0.05822 0.068359,0.08399 0.026417,0.02642 0.058485,0.04521 0.085937,0.07031 0.021811,0.02356 0.037759,0.05143 0.060547,0.07422 0.024455,0.02445 0.054734,0.04112 0.080078,0.06445 0.023329,0.02534 0.039998,0.05562 0.064453,0.08008 0.022858,0.02286 0.050583,0.03867 0.074219,0.06055 0.024513,0.02675 0.042596,0.05822 0.068359,0.08398 0.024096,0.0241 0.053165,0.04145 0.078125,0.06445 0.023003,0.02496 0.040357,0.05403 0.064453,0.07812 0.024096,0.0241 0.053166,0.04145 0.078125,0.06445 0.023003,0.02496 0.040357,0.05403 0.064453,0.07813 0.024096,0.0241 0.053166,0.04145 0.078125,0.06445 0.022461,0.02432 0.038999,0.05267 0.0625,0.07617 0.025763,0.02576 0.057236,0.04385 0.083984,0.06836 0.021212,0.02286 0.03646,0.05013 0.058594,0.07227 0.022202,0.0222 0.04933,0.03732 0.072266,0.05859 0.023922,0.02605 0.041297,0.05692 0.066406,0.08203 0.023801,0.0238 0.053481,0.03976 0.078125,0.0625 0.022193,0.02401 0.03734,0.05296 0.060547,0.07617 0.023801,0.0238 0.053481,0.03976 0.078125,0.0625 0.022193,0.02401 0.03734,0.05297 0.060547,0.07617 0.023442,0.02344 0.051912,0.04009 0.076172,0.0625 0.022408,0.02426 0.039058,0.05273 0.0625,0.07617 0.023083,0.02308 0.050343,0.04042 0.074219,0.0625 0.02208,0.02388 0.039417,0.05114 0.0625,0.07422 0.023083,0.02308 0.050343,0.04042 0.074219,0.0625 0.02208,0.02388 0.039417,0.05114 0.0625,0.07422 0.022788,0.02279 0.050657,0.03874 0.074219,0.06055 0.021811,0.02356 0.037759,0.05143 0.060547,0.07422 0.022788,0.02279 0.050657,0.03874 0.074219,0.06055 0.021811,0.02356 0.037759,0.05143 0.060547,0.07422 0.022788,0.02279 0.050657,0.03874 0.074219,0.06055 0.021811,0.02356 0.037759,0.05143 0.060547,0.07422 0.022429,0.02243 0.049088,0.03906 0.072266,0.06055 0.021482,0.02318 0.038118,0.04984 0.060547,0.07227 0.022429,0.02243 0.049088,0.03907 0.072266,0.06055 0.021482,0.02318 0.038118,0.04984 0.060547,0.07227 0.022429,0.02243 0.049088,0.03906 0.072266,0.06055 0.02093,0.02254 0.03676,0.04848 0.05859,0.07031 0.0241,0.0241 0.05317,0.04145 0.07813,0.06445 0.01968,0.02109 0.03422,0.04594 0.05469,0.06641 0.02053,0.02053 0.04525,0.03495 0.06641,0.05469 0.02241,0.02426 0.03906,0.05273 0.0625,0.07617 0.02344,0.02344 0.05191,0.04009 0.07617,0.0625 0.01974,0.02116 0.03416,0.04588 0.05469,0.06641 0.02177,0.02178 0.04783,0.03771 0.07031,0.05859 0.02088,0.02248 0.03682,0.04854 0.05859,0.07031 0.01981,0.01981 0.04405,0.03366 0.06445,0.05273 0.02241,0.02426 0.03906,0.05273 0.0625,0.07617 0.02177,0.02177 0.04783,0.03771 0.07031,0.05859 0.02033,0.02184 0.03547,0.04719 0.05664,0.06836 0.02148,0.02148 0.04814,0.03603 0.07031,0.05664 0.02061,0.02217 0.03516,0.04883 0.05664,0.07031 0.02279,0.02279 0.05066,0.03874 0.07422,0.06055 0.01913,0.02046 0.03286,0.04458 0.05273,0.06445 0.01981,0.01981 0.04405,0.03366 0.06445,0.05273 0.02181,0.02356 0.03776,0.05143 0.06055,0.07422 0.02088,0.02088 0.04683,0.03463 0.06836,0.05469 0.02006,0.02153 0.03381,0.04748 0.05469,0.06836 0.02112,0.02112 0.04657,0.03636 0.06836,0.05664 0.02028,0.02179 0.03552,0.04724 0.05664,0.06836 0.02219,0.02219 0.04934,0.03733 0.07227,0.05859 0.01847,0.01971 0.03162,0.04334 0.05078,0.0625 0.01916,0.01916 0.04279,0.03231 0.0625,0.05078 0.02121,0.02286 0.03646,0.05013 0.05859,0.07227 0.02047,0.02047 0.04531,0.03501 0.06641,0.05469 0.01968,0.02109 0.03422,0.04594 0.05469,0.06641 0.02047,0.02047 0.04531,0.03501 0.06641,0.05469 0.01968,0.02109 0.03422,0.04594 0.05469,0.06641 0.02047,0.02047 0.04531,0.03501 0.06641,0.05469 0.01912,0.02045 0.03287,0.04459 0.05273,0.06445 0.02047,0.02047 0.04531,0.03501 0.06641,0.05469 0.01912,0.02045 0.03287,0.04459 0.05273,0.06445 0.02017,0.02017 0.04563,0.03333 0.06641,0.05273 0.01941,0.02078 0.03256,0.04623 0.05273,0.06641 0.01981,0.01981 0.04405,0.03366 0.06445,0.05273 0.01912,0.02045 0.03287,0.04459 0.05274,0.06445 0.01981,0.01981 0.04405,0.03366 0.06445,0.05273 0.01907,0.0204 0.03292,0.04464 0.05273,0.06445 0.01981,0.01981 0.04405,0.03366 0.06445,0.05273 0.01907,0.0204 0.03292,0.04464 0.05274,0.06445 0.01921,0.01921 0.04274,0.03227 0.0625,0.05078 0.01907,0.0204 0.03292,0.04464 0.05273,0.06445 0.02083,0.02083 0.04689,0.03468 0.06836,0.05469 0.0173,0.01838 0.02897,0.04069 0.04687,0.05859 0.01749,0.01749 0.03869,0.02996 0.05664,0.04687 0.02028,0.02179 0.03552,0.04724 0.05664,0.06836 0.01916,0.01916 0.04279,0.03231 0.0625,0.05078 0.01847,0.01971 0.03162,0.04334 0.05078,0.0625 0.02047,0.02047 0.04531,0.03501 0.06641,0.05469 0.01692,0.01795 0.02938,0.03915 0.04687,0.05664 0.01749,0.01749 0.03869,0.02996 0.05664,0.04687 0.01968,0.02109 0.03422,0.04594 0.05469,0.06641 0.01986,0.01986 0.044,0.03361 0.06445,0.05273 0.01697,0.01801 0.02933,0.03909 0.04687,0.05664 0.01684,0.01684 0.03743,0.02862 0.05469,0.04492 0.01968,0.02109 0.03422,0.04594 0.05469,0.06641 0.01851,0.01851 0.04153,0.03097 0.06055,0.04883 0.01786,0.01902 0.03032,0.04204 0.04883,0.06055 0.01851,0.01851 0.04153,0.03097 0.06055,0.04883 0.01786,0.01902 0.03032,0.04204 0.04883,0.06055 0.01815,0.01815 0.03996,0.0313 0.05859,0.04883 0.01753,0.01864 0.03068,0.04045 0.04883,0.05859 0.01815,0.01815 0.03996,0.0313 0.05859,0.04883 0.01753,0.01864 0.03068,0.04045 0.04883,0.05859 0.01815,0.01815 0.03996,0.0313 0.05859,0.04883 0.01753,0.01864 0.03068,0.04045 0.04883,0.05859 0.01754,0.01754 0.03865,0.02992 0.05664,0.04687 0.01753,0.01864 0.03068,0.04045 0.04883,0.05859 0.01916,0.01916 0.04279,0.03231 0.0625,0.05078 0.01574,0.01663 0.02674,0.0365 0.04297,0.05273 0.01618,0.01618 0.03616,0.02728 0.05274,0.04297 0.01847,0.01971 0.03162,0.04334 0.05078,0.0625 0.01749,0.01749 0.03869,0.02996 0.05664,0.04687 0.01692,0.01795 0.02938,0.03915 0.04687,0.05664 0.01749,0.01749 0.03869,0.02996 0.05664,0.04687 0.01692,0.01795 0.02938,0.03915 0.04687,0.05664 0.01688,0.01688 0.03738,0.02858 0.05469,0.04492 0.01692,0.01795 0.02938,0.03915 0.04687,0.05664 0.0172,0.0172 0.039,0.02828 0.05664,0.04492 0.01664,0.01764 0.02773,0.03944 0.04492,0.05664 0.01684,0.01684 0.03743,0.02862 0.05469,0.04492 0.01635,0.01731 0.02804,0.03781 0.04492,0.05469 0.01851,0.0185 0.04153,0.03097 0.06055,0.04883 0.01508,0.01589 0.02548,0.03525 0.04101,0.05078 0.01488,0.01488 0.03362,0.0246 0.04883,0.03906 0.01786,0.01902 0.03032,0.04204 0.04883,0.06055 0.01684,0.01684 0.03743,0.02862 0.05469,0.04492 0.0163,0.01726 0.02808,0.03785 0.04492,0.05469 0.01622,0.01622 0.03612,0.02724 0.05273,0.04297 0.0163,0.01726 0.02808,0.03785 0.04492,0.05469 0.01623,0.01622 0.03612,0.02724 0.05273,0.04297 0.01569,0.01658 0.02679,0.03655 0.04297,0.05273 0.01815,0.01815 0.03996,0.0313 0.05859,0.04883 0.01412,0.01483 0.02455,0.03236 0.03906,0.04687 0.01492,0.01492 0.03357,0.02456 0.04883,0.03906 0.01668,0.01769 0.02768,0.0394 0.04492,0.05664 0.01618,0.01618 0.03616,0.02728 0.05273,0.04297 0.01569,0.01658 0.02679,0.03655 0.04297,0.05273 0.01582,0.01582 0.03458,0.02762 0.05078,0.04297 0.01535,0.0162 0.02714,0.03496 0.04297,0.05078 0.01582,0.01582 0.03458,0.02762 0.05078,0.04297 0.01535,0.0162 0.02714,0.03496 0.04297,0.05078 0.01521,0.01521 0.03327,0.02624 0.04883,0.04102 0.01535,0.0162 0.02714,0.03496 0.04297,0.05078 0.01553,0.01553 0.03489,0.02594 0.05078,0.04102 0.01508,0.01589 0.02549,0.03525 0.04102,0.05078 0.01684,0.01684 0.03743,0.02862 0.05469,0.04492 0.0135,0.01415 0.02325,0.03106 0.03711,0.04492 0.0139,0.01391 0.03073,0.02357 0.04492,0.03711 0.0163,0.01726 0.02808,0.03785 0.04492,0.05469 0.01622,0.01622 0.03611,0.02724 0.05273,0.04297 0.0135,0.01415 0.02325,0.03106 0.03711,0.04492 0.01355,0.01355 0.02915,0.02391 0.04297,0.03711 0.01597,0.01689 0.02844,0.03626 0.04492,0.05273 0.01488,0.01488 0.03362,0.0246 0.04883,0.03906 0.01446,0.01521 0.02419,0.03395 0.03906,0.04883 0.01488,0.01487 0.03362,0.0246 0.04883,0.03906 0.01446,0.01521 0.02419,0.03395 0.03906,0.04883 0.01426,0.01426 0.03231,0.02323 0.04687,0.03711 0.01446,0.01521 0.02419,0.03395 0.03906,0.04883 0.01452,0.01452 0.03204,0.02494 0.04687,0.03906 0.01412,0.01483 0.02455,0.03236 0.03906,0.04687 0.01452,0.01452 0.03204,0.02494 0.04687,0.03906 0.01353,0.01419 0.02321,0.03102 0.03711,0.04492 0.01618,0.01618 0.03616,0.02728 0.05273,0.04297 0.01226,0.01279 0.02065,0.02846 0.0332,0.04102 0.01255,0.01255 0.02822,0.02094 0.04102,0.0332 0.01511,0.01593 0.02545,0.03521 0.04102,0.05078 0.01422,0.01422 0.03235,0.02327 0.04687,0.03711 0.01384,0.01452 0.02289,0.03265 0.03711,0.04687 0.0139,0.0139 0.03073,0.02357 0.04492,0.03711 0.0135,0.01415 0.02325,0.03106 0.03711,0.04492 0.0136,0.0136 0.03104,0.0219 0.04492,0.03516 0.01326,0.01388 0.02155,0.03132 0.03516,0.04492 0.01386,0.01386 0.03077,0.02361 0.04492,0.03711 0.0135,0.01415 0.02325,0.03106 0.03711,0.04492 0.01491,0.01491 0.03358,0.02457 0.04883,0.03906 0.01164,0.01211 0.01935,0.02716 0.03125,0.03906 0.01194,0.01194 0.02691,0.01958 0.03906,0.03125 0.01446,0.01521 0.02419,0.03395 0.03906,0.04883 0.01321,0.01321 0.0295,0.02228 0.04297,0.03516 0.01288,0.01347 0.02195,0.02976 0.03516,0.04297 0.01321,0.01321 0.0295,0.02228 0.04297,0.03516 0.01288,0.01347 0.02195,0.02976 0.03516,0.04297 0.01285,0.01285 0.02792,0.02262 0.04102,0.03516 0.01254,0.0131 0.02231,0.02817 0.03516,0.04102 0.01285,0.01285 0.02792,0.02262 0.04102,0.03516 0.01254,0.0131 0.02231,0.02817 0.03516,0.04102 0.01285,0.01285 0.02792,0.02262 0.04102,0.03516 0.01254,0.0131 0.02231,0.02817 0.03516,0.04102 0.01259,0.01259 0.02819,0.02091 0.04102,0.0332 0.01226,0.01279 0.02065,0.02846 0.0332,0.04102 0.01255,0.01255 0.02822,0.02094 0.04102,0.0332 0.01226,0.01279 0.02065,0.02846 0.0332,0.04102 0.01193,0.01193 0.02692,0.01959 0.03906,0.03125 0.01226,0.01279 0.02065,0.02846 0.0332,0.04102 0.0122,0.0122 0.02664,0.02129 0.03906,0.0332 0.01192,0.01242 0.02101,0.02687 0.0332,0.03906 0.0122,0.0122 0.02664,0.02129 0.03906,0.0332 0.01192,0.01242 0.02101,0.02687 0.0332,0.03906 0.0119,0.0119 0.02695,0.01962 0.03906,0.03125 0.01163,0.01211 0.01935,0.02716 0.03125,0.03906 0.0119,0.0119 0.02695,0.01962 0.03906,0.03125 0.01164,0.01211 0.01935,0.02716 0.03125,0.03906 0.0119,0.0119 0.02695,0.01962 0.03906,0.03125 0.01163,0.01211 0.01935,0.02716 0.03125,0.03906 0.01128,0.01128 0.02564,0.01826 0.03711,0.0293 0.01164,0.01211 0.01935,0.02716 0.03125,0.03906 0.01154,0.01154 0.02537,0.01996 0.03711,0.03125 0.01129,0.01174 0.01971,0.02557 0.03125,0.03711 0.01092,0.01091 0.02406,0.01861 0.03516,0.0293 0.01129,0.01174 0.01971,0.02557 0.03125,0.03711 0.01125,0.01125 0.02567,0.01829 0.03711,0.0293 0.01101,0.01144 0.01805,0.02586 0.0293,0.03711 0.01125,0.01125 0.02567,0.01829 0.03711,0.0293 0.01101,0.01144 0.01805,0.02586 0.0293,0.03711 0.01089,0.01089 0.02409,0.01863 0.03516,0.0293 0.01066,0.01107 0.01841,0.02427 0.0293,0.03516 0.01089,0.01089 0.02409,0.01863 0.03516,0.0293 0.01066,0.01107 0.01841,0.02427 0.0293,0.03516 0.01089,0.01089 0.02409,0.01863 0.03516,0.0293 0.01006,0.01042 0.01708,0.02294 0.02734,0.0332 0.0122,0.0122 0.02664,0.02129 0.03906,0.0332 0.0091,0.0094 0.01614,0.02005 0.02539,0.0293 0.0089,0.0089 0.02025,0.01466 0.0293,0.02344 0.01163,0.01211 0.01935,0.02716 0.03125,0.03906 0.01059,0.01059 0.02439,0.01696 0.03516,0.02734 0.01038,0.01076 0.01675,0.02456 0.02734,0.03516 0.01026,0.01026 0.02279,0.01728 0.0332,0.02734 0.01004,0.01039 0.01711,0.02297 0.02734,0.0332 0.0096,0.0096 0.02151,0.01596 0.03125,0.02539 0.01004,0.01039 0.01711,0.02297 0.02734,0.0332 0.0119,0.0119 0.02695,0.01961 0.03906,0.03125 0.0081,0.0084 0.01321,0.01907 0.02148,0.02734 0.0083,0.0083 0.01894,0.01332 0.02734,0.02148 0.01104,0.01147 0.01802,0.02583 0.0293,0.03711 0.0099,0.0099 0.02123,0.01765 0.03125,0.02734 0.0097,0.01002 0.01747,0.02138 0.02734,0.03125 0.0096,0.0096 0.02153,0.01598 0.03125,0.02539 0.0094,0.0097 0.01581,0.02167 0.02539,0.03125 0.01089,0.01089 0.02409,0.01863 0.03516,0.0293 0.0078,0.008 0.01355,0.01745 0.02148,0.02539 0.0079,0.0079 0.01738,0.01369 0.02539,0.02148 0.01066,0.01107 0.01841,0.02427 0.0293,0.03516 0.0092,0.0092 0.01995,0.01633 0.0293,0.02539 0.0091,0.0093 0.01617,0.02008 0.02539,0.0293 0.0089,0.0089 0.02025,0.01466 0.0293,0.02344 0.0088,0.0091 0.01449,0.02035 0.02344,0.0293 0.01089,0.01089 0.02409,0.01863 0.03516,0.0293 0.0072,0.0074 0.01225,0.01616 0.01953,0.02344 0.0073,0.0073 0.0161,0.01237 0.02344,0.01953 0.01006,0.01042 0.01708,0.02294 0.02734,0.0332 0.0089,0.0089 0.02025,0.01466 0.0293,0.02344 0.0088,0.009 0.01451,0.02037 0.02344,0.0293 0.0086,0.0086 0.01867,0.01501 0.02734,0.02344 0.0084,0.0087 0.01487,0.01878 0.02344,0.02734 0.01023,0.01023 0.02281,0.01731 0.0332,0.02734 0.0065,0.0067 0.01097,0.01488 0.01758,0.02148 0.0066,0.0066 0.01481,0.01105 0.02148,0.01758 0.01004,0.01039 0.01711,0.02297 0.02734,0.0332 0.0083,0.0083 0.01897,0.01334 0.02734,0.02148 0.0081,0.0084 0.01321,0.01907 0.02148,0.02734 0.0079,0.0079 0.01736,0.01367 0.02539,0.02148 0.0078,0.008 0.01357,0.01748 0.02148,0.02539 0.0079,0.0079 0.01738,0.01369 0.02539,0.02148 0.0078,0.008 0.01355,0.01746 0.02148,0.02539 0.0079,0.0079 0.01738,0.01369 0.02539,0.02148 0.0078,0.008 0.01357,0.01748 0.02148,0.02539 0.0096,0.0096 0.02153,0.01598 0.03125,0.02539 0.0059,0.006 0.0097,0.01358 0.01562,0.01953 0.0076,0.0076 0.01769,0.01202 0.02539,0.01953 0.0075,0.0077 0.01191,0.01777 0.01953,0.02539 0.006,0.0059 0.01353,0.0097 0.01953,0.01563 0.0088,0.009 0.01451,0.02037 0.02344,0.0293 0.0073,0.0073 0.0161,0.01237 0.02344,0.01953 0.0072,0.0074 0.01225,0.01616 0.01953,0.02344 0.0073,0.0073 0.0161,0.01237 0.02344,0.01953 0.0072,0.0073 0.01227,0.01618 0.01953,0.02344 0.0073,0.0073 0.0161,0.01237 0.02344,0.01953 0.0072,0.0073 0.01227,0.01618 0.01953,0.02344 0.0066,0.0066 0.0148,0.01104 0.02148,0.01758 0.0072,0.0073 0.01227,0.01618 0.01953,0.02344 0.0086,0.0086 0.01867,0.01501 0.02734,0.02344 0.0049,0.005 0.0087,0.01069 0.01367,0.01563 0.0049,0.0049 0.01065,0.0088 0.01563,0.01367 0.0084,0.0087 0.01487,0.01878 0.02344,0.02734 0.0066,0.0066 0.01481,0.01105 0.02148,0.01758 0.0065,0.0067 0.01097,0.01488 0.01758,0.02148 0.0066,0.0066 0.01481,0.01106 0.02148,0.01758 0.0059,0.006 0.0097,0.01357 0.01563,0.01953 0.0066,0.0066 0.01481,0.01106 0.02148,0.01758 0.0065,0.0067 0.01097,0.01488 0.01758,0.02148 0.006,0.006 0.01351,0.0097 0.01953,0.01563 0.0059,0.006 0.0097,0.01357 0.01563,0.01953 0.0062,0.0062 0.01323,0.01141 0.01953,0.01758 0.0062,0.0063 0.01133,0.01329 0.01758,0.01953 0.0059,0.006 0.01353,0.0097 0.01953,0.01563 0.0059,0.006 0.0097,0.01358 0.01563,0.01953 0.006,0.0059 0.01353,0.0097 0.01953,0.01563 0.0059,0.006 0.0097,0.01358 0.01563,0.01953 0.0056,0.0056 0.01193,0.01008 0.01758,0.01563 0.0055,0.0056 0.01003,0.01199 0.01563,0.01758 0.0056,0.0056 0.01194,0.01009 0.01758,0.01563 0.0055,0.0056 0.01003,0.01199 0.01563,0.01758 0.0053,0.0053 0.01224,0.0084 0.01758,0.01367 0.0053,0.0054 0.0084,0.01227 0.01367,0.01758 0.0073,0.0073 0.0161,0.01237 0.02344,0.01953 0.0036,0.0036 0.0061,0.0081 0.0098,0.01172 0.0036,0.0036 0.0081,0.0062 0.01172,0.0098 0.0065,0.0067 0.01096,0.01486 0.01758,0.02148 0.0053,0.0053 0.01224,0.0084 0.01758,0.01367 0.0052,0.0053 0.0084,0.01228 0.01367,0.01758 0.0049,0.0049 0.01064,0.0088 0.01563,0.01367 0.0049,0.005 0.0087,0.01069 0.01367,0.01563 0.0047,0.0047 0.01094,0.0071 0.01563,0.01172 0.0046,0.0047 0.0071,0.01097 0.01172,0.01563 0.0049,0.0049 0.01065,0.0088 0.01563,0.01367 0.0049,0.005 0.0087,0.01069 0.01367,0.01563 0.006,0.006 0.01351,0.0097 0.01953,0.01563 0.003,0.003 0.0048,0.0068 0.0078,0.0098 0.003,0.003 0.0068,0.0048 0.0098,0.0078 0.0059,0.006 0.0097,0.01358 0.01563,0.01953 0.0043,0.0043 0.0094,0.0075 0.01367,0.01172 0.0042,0.0043 0.0074,0.0094 0.01172,0.01367 0.0043,0.0043 0.0094,0.0075 0.01367,0.01172 0.0042,0.0043 0.0074,0.0094 0.01172,0.01367 0.004,0.004 0.0097,0.0058 0.01367,0.0098 0.004,0.004 0.0058,0.0097 0.0098,0.01367 0.004,0.004 0.0097,0.0058 0.01367,0.0098 0.004,0.004 0.0058,0.0097 0.0098,0.01367 0.004,0.004 0.0097,0.0058 0.01367,0.0098 0.004,0.004 0.0058,0.0097 0.0098,0.01367 0.0036,0.0036 0.0081,0.0062 0.01172,0.0098 0.0036,0.0036 0.0061,0.0081 0.0098,0.01172 0.0036,0.0036 0.0081,0.0062 0.01172,0.0098 0.0036,0.0036 0.0061,0.0081 0.0098,0.01172 0.0033,0.0033 0.0065,0.0065 0.0098,0.0098 0.0033,0.0033 0.0065,0.0065 0.0098,0.0098 0.0036,0.0036 0.0081,0.0062 0.01172,0.0098 0.003,0.003 0.0048,0.0068 0.0078,0.0098 0.0033,0.0033 0.0065,0.0065 0.0098,0.0098 0.0032,0.0033 0.0065,0.0065 0.0098,0.0098 0.003,0.003 0.0068,0.0049 0.0098,0.0078 0.003,0.003 0.0048,0.0068 0.0078,0.0098 0.003,0.003 0.0068,0.0049 0.0098,0.0078 0.003,0.003 0.0048,0.0068 0.0078,0.0098 0.003,0.003 0.0068,0.0049 0.0098,0.0078 0.003,0.003 0.0048,0.0068 0.0078,0.0098 0.0026,0.0026 0.0052,0.0052 0.0078,0.0078 0.0026,0.0026 0.0052,0.0052 0.0078,0.0078 0.0026,0.0026 0.0052,0.0052 0.0078,0.0078 0.0026,0.0026 0.0052,0.0052 0.0078,0.0078 0.0023,0.0023 0.0055,0.0035 0.0078,0.0059 0.0023,0.0023 0.0035,0.0055 0.0059,0.0078 0.0023,0.0023 0.0055,0.0035 0.0078,0.0059 0.0023,0.0023 0.0035,0.0055 0.0059,0.0078 0.0023,0.0023 0.0055,0.0035 0.0078,0.0059 0.0023,0.0023 0.0035,0.0055 0.0059,0.0078 0.002,0.002 0.0039,0.0039 0.0059,0.0059 0.002,0.002 0.0039,0.0039 0.0059,0.0059 0.002,0.002 0.0039,0.0039 0.0059,0.0059 0.002,0.002 0.0039,0.0039 0.0059,0.0059 0.002,0.002 0.0039,0.0039 0.0059,0.0059 0.002,0.002 0.0039,0.0039 0.0059,0.0059 0.0017,0.0017 0.0042,0.0022 0.0059,0.0039 0.0017,0.0017 0.0022,0.0042 0.0039,0.0059 0.003,0.003 0.0068,0.0048 0.0098,0.0078 0.003,0.003 0.0048,0.0068 0.0078,0.0098 0.0013,0.0013 0.0026,0.0026 0.0039,0.0039 0.0013,0.0013 0.0026,0.0026 0.0039,0.0039 0.0017,0.0017 0.0061,0.0042 0.0078,0.0059 0.0023,0.0023 0.0035,0.0055 0.0059,0.0078 10e-4,0.001 0.0048,0.0029 0.0059,0.0039 0,0 0,0.002 0,0.002 0.0013,0.0013 0.0026,0.0026 0.0039,0.0039 0,0 0.002,0.002 0.002,0.002 0,0 0.002,0.002 0.002,0.002 0,0 0.002,0.002 0.002,0.002 0,0 0.002,0.002 0.002,0.002 0.002,0.002 0.0039,0.0039 0.0059,0.0059 0.08047,0.08047 0.172117,0.14482 0.261719,0.212891 0.03752,0.02846 0.07043,0.06363 0.109375,0.08984 0.0015,10e-4 0.0024,0.0029 0.0039,0.0039 0,0 0.002,0.002 0.002,0.002 0,0 0.002,0.002 0.002,0.002 4.19e-4,2.8e-4 0.0015,-2.79e-4 0.002,0 0.06249,0.04161 0.131501,0.06976 0.197266,0.105469 0.05331,0.02901 0.104942,0.06091 0.160156,0.08594 0.02365,0.01067 0.04439,0.02718 0.06836,0.03711 5.3e-4,2.21e-4 0.0014,-2.2e-4 0.002,0 0.286205,0.118905 0.594907,0.181276 0.910156,0.1875 0.01579,2.99e-4 0.03105,0.0039 0.04687,0.0039 6.54e-4,10e-7 0.0013,0 0.002,0 h 5.416016 c 0.276267,0 0.546494,-0.05449 0.796875,-0.158203 0.125647,-0.05204 0.245757,-0.115527 0.359375,-0.191406 0.113254,-0.07552 0.21873,-0.162091 0.316406,-0.259766 3.58e-4,-3.58e-4 -3.58e-4,-0.0016 0,-0.002 0.292432,-0.292858 0.490364,-0.662539 0.570312,-1.0625 1.27e-4,-6.32e-4 -1.25e-4,-0.0013 0,-0.002 C 30.985418,27.523368 31,27.387479 31,27.25 c 0,-0.378354 -0.106528,-0.728729 -0.283203,-1.033203 -0.0162,-0.02793 -0.02746,-0.05886 -0.04492,-0.08594 0,0 -0.002,-0.002 -0.002,-0.002 -0.0681,-0.10581 -0.146672,-0.205399 -0.232422,-0.296875 -6.28e-4,-6.66e-4 -0.0013,-0.0013 -0.002,-0.002 0,0 -0.002,-0.002 -0.002,-0.002 0,0 -0.002,-0.002 -0.002,-0.002 0,0 -0.002,-0.002 -0.002,-0.002 0,0 -0.002,-0.002 -0.002,-0.002 0,0 -0.002,-0.002 -0.002,-0.002 0,0 -0.002,-0.002 -0.002,-0.002 0,0 -0.002,-0.002 -0.002,-0.002 0,0 -0.002,-0.002 -0.002,-0.002 -0.0013,-0.0013 -0.0046,-0.0045 -0.0059,-0.0059 -0.0044,-0.0048 -0.0092,-0.009 -0.01367,-0.01367 -0.0019,-0.002 -0.0059,-0.0058 -0.0078,-0.0078 -0.0057,-0.0061 -0.01183,-0.01155 -0.01758,-0.01758 -0.0031,-0.0033 -0.0066,-0.0065 -0.0098,-0.0098 -0.0038,-0.004 -0.0079,-0.0078 -0.01172,-0.01172 -0.0038,-0.004 -0.0079,-0.0077 -0.01172,-0.01172 -0.0038,-0.004 -0.0079,-0.0077 -0.01172,-0.01172 -0.0044,-0.0047 -0.0092,-0.009 -0.01367,-0.01367 -0.0044,-0.0047 -0.0092,-0.009 -0.01367,-0.01367 -0.0044,-0.0047 -0.0092,-0.009 -0.01367,-0.01367 -0.005,-0.0053 -0.01053,-0.01033 -0.01562,-0.01563 -0.0051,-0.0054 -0.01051,-0.01031 -0.01563,-0.01563 -0.0038,-0.004 -0.0079,-0.0077 -0.01172,-0.01172 -0.0038,-0.004 -0.0079,-0.0077 -0.01172,-0.01172 -0.0088,-0.0095 -0.02033,-0.02 -0.0293,-0.0293 -0.0041,-0.0044 -0.0095,-0.0074 -0.01367,-0.01172 -0.0063,-0.0068 -0.01312,-0.01284 -0.01953,-0.01953 -0.0063,-0.0068 -0.01312,-0.01284 -0.01953,-0.01953 -0.0069,-0.0074 -0.01443,-0.01415 -0.02148,-0.02148 -0.007,-0.0074 -0.01442,-0.01414 -0.02148,-0.02148 -0.0076,-0.0081 -0.01574,-0.01545 -0.02344,-0.02344 -0.007,-0.0074 -0.01442,-0.01414 -0.02148,-0.02148 -0.0082,-0.0088 -0.01705,-0.01674 -0.02539,-0.02539 -0.0076,-0.0081 -0.01572,-0.01543 -0.02344,-0.02344 -0.0082,-0.0088 -0.01705,-0.01674 -0.02539,-0.02539 -0.0082,-0.0088 -0.01705,-0.01674 -0.02539,-0.02539 -0.0088,-0.0094 -0.01837,-0.01806 -0.02734,-0.02734 -0.0072,-0.0078 -0.01415,-0.01579 -0.02148,-0.02344 -0.01374,-0.01488 -0.0288,-0.0285 -0.04297,-0.04297 -0.0063,-0.0067 -0.01508,-0.01096 -0.02148,-0.01758 -0.0098,-0.01049 -0.01933,-0.02096 -0.0293,-0.03125 -0.0098,-0.01051 -0.02127,-0.01899 -0.03125,-0.0293 -0.0085,-0.0092 -0.01671,-0.01834 -0.02539,-0.02734 -0.01346,-0.01459 -0.02715,-0.02877 -0.04102,-0.04297 -0.0091,-0.0097 -0.02,-0.01778 -0.0293,-0.02734 -0.01069,-0.01151 -0.02225,-0.02193 -0.0332,-0.0332 -0.01099,-0.01183 -0.0239,-0.02163 -0.03516,-0.0332 -0.01137,-0.01226 -0.0235,-0.02317 -0.03516,-0.03516 -0.0098,-0.01055 -0.0193,-0.02091 -0.0293,-0.03125 -0.01501,-0.01632 -0.03135,-0.03104 -0.04687,-0.04687 -0.0088,-0.0094 -0.01836,-0.01807 -0.02734,-0.02734 -0.01501,-0.01632 -0.03135,-0.03104 -0.04687,-0.04687 -0.01134,-0.01218 -0.02353,-0.02325 -0.03516,-0.03516 -0.01226,-0.01323 -0.02647,-0.0242 -0.03906,-0.03711 -0.01318,-0.01425 -0.02745,-0.02714 -0.04102,-0.04102 -0.01319,-0.01426 -0.02743,-0.02712 -0.04102,-0.04102 -0.01345,-0.01454 -0.02716,-0.02881 -0.04102,-0.04297 -0.01189,-0.01287 -0.0249,-0.02454 -0.03711,-0.03711 -0.01685,-0.01836 -0.03524,-0.03499 -0.05273,-0.05273 -0.01256,-0.01353 -0.02614,-0.02587 -0.03906,-0.03906 -0.01406,-0.01523 -0.03041,-0.02817 -0.04492,-0.04297 -0.01502,-0.01629 -0.03134,-0.03108 -0.04687,-0.04687 -0.01318,-0.01429 -0.02744,-0.0271 -0.04102,-0.04102 -0.01813,-0.01979 -0.03776,-0.03756 -0.05664,-0.05664 -0.01386,-0.01495 -0.02868,-0.02843 -0.04297,-0.04297 -0.01562,-0.01694 -0.03265,-0.03242 -0.04883,-0.04883 -0.01566,-0.01698 -0.03261,-0.03238 -0.04883,-0.04883 -0.01564,-0.01696 -0.03263,-0.0324 -0.04883,-0.04883 -0.01629,-0.01771 -0.03388,-0.03364 -0.05078,-0.05078 -0.01501,-0.01632 -0.03135,-0.03104 -0.04687,-0.04687 -0.01963,-0.02149 -0.04003,-0.04185 -0.06055,-0.0625 -0.01408,-0.0152 -0.03039,-0.02819 -0.04492,-0.04297 -0.01996,-0.02185 -0.04163,-0.04152 -0.0625,-0.0625 -0.01635,-0.01768 -0.03383,-0.03368 -0.05078,-0.05078 -0.0072,-0.0079 -0.01413,-0.01568 -0.02148,-0.02344 -6.29e-4,-6.62e-4 -0.0033,-0.0032 -0.0039,-0.0039 -0.0096,-0.0115 -0.01563,-0.02576 -0.02539,-0.03711 -6.01e-4,-6.99e-4 -0.0014,-0.0013 -0.002,-0.002 0,0 -0.002,-0.002 -0.002,-0.002 0,0 -0.002,-0.002 -0.002,-0.002 -0.0012,-0.0014 -0.0027,-0.0025 -0.0039,-0.0039 -0.0012,-0.0014 -0.0027,-0.0025 -0.0039,-0.0039 -0.0012,-0.0014 -0.0027,-0.0025 -0.0039,-0.0039 -0.0018,-0.0021 -0.0041,-0.0038 -0.0059,-0.0059 -3.06e-4,-3.49e-4 -0.0016,3.49e-4 -0.002,0 -0.0018,-0.0021 -0.0041,-0.0038 -0.0059,-0.0059 0,0 -0.002,-0.002 -0.002,-0.002 0,0 0,-0.002 0,-0.002 0,0 -0.002,-0.002 -0.002,-0.002 0,0 -0.002,-0.002 -0.002,-0.002 -0.0024,-0.0028 -0.0054,-0.005 -0.0078,-0.0078 -0.0024,-0.0028 -0.0054,-0.005 -0.0078,-0.0078 -0.003,-0.0035 -0.0068,-0.0063 -0.0098,-0.0098 -0.003,-0.0035 -0.0067,-0.0063 -0.0098,-0.0098 -0.0036,-0.0042 -0.0081,-0.0075 -0.01172,-0.01172 0,0 -0.002,-0.002 -0.002,-0.002 0,0 -0.002,-0.002 -0.002,-0.002 -3.16e-4,-3.4e-4 -0.0016,3.39e-4 -0.002,0 0,0 -0.002,-0.002 -0.002,-0.002 -0.0012,-0.0014 -0.0047,-0.0045 -0.0059,-0.0059 -0.0013,-0.0013 -0.0026,-0.0026 -0.0039,-0.0039 -3.13e-4,-3.33e-4 3.14e-4,-0.0016 0,-0.002 0,0 -0.002,-0.002 -0.002,-0.002 -0.0013,-0.0013 -0.0026,-0.0026 -0.0039,-0.0039 -0.0012,-0.0014 -0.0027,-0.0025 -0.0039,-0.0039 -3.19e-4,-3.36e-4 -0.0016,3.37e-4 -0.002,0 0,0 -0.002,-0.002 -0.002,-0.002 -0.0018,-0.0021 -0.0041,-0.0038 -0.0059,-0.0059 -0.0012,-0.0014 -0.0027,-0.0025 -0.0039,-0.0039 -0.0019,-0.002 -0.0039,-0.0039 -0.0059,-0.0059 -0.0013,-0.0013 -0.0026,-0.0026 -0.0039,-0.0039 -0.0012,-0.0014 -0.0027,-0.0025 -0.0039,-0.0039 -0.0013,-0.0013 -0.0026,-0.0026 -0.0039,-0.0039 0,0 -0.002,-0.002 -0.002,-0.002 0,0 0,-0.002 0,-0.002 0,0 -0.002,-0.002 -0.002,-0.002 0,0 -0.002,-0.002 -0.002,-0.002 -0.0048,-0.0056 -0.01078,-0.01007 -0.01563,-0.01563 0,0 -0.002,-0.002 -0.002,-0.002 -0.0015,-0.0018 -0.0043,-0.0021 -0.0059,-0.0039 0,0 -0.002,-0.002 -0.002,-0.002 -0.0012,-0.0014 -0.0027,-0.0025 -0.0039,-0.0039 0,0 -0.002,-0.002 -0.002,-0.002 0,0 0,-0.002 0,-0.002 -0.0051,-0.0059 -0.01242,-0.0097 -0.01758,-0.01563 -0.0055,-0.0063 -0.01207,-0.01137 -0.01758,-0.01758 -0.0036,-0.0042 -0.0081,-0.0075 -0.01172,-0.01172 -0.0013,-0.0013 -0.0026,-0.0026 -0.0039,-0.0039 0,0 0,-0.002 0,-0.002 0,0 -0.002,-0.002 -0.002,-0.002 -0.0051,-0.006 -0.01436,-0.01165 -0.01953,-0.01758 -0.0018,-0.0021 -0.004,-0.0038 -0.0059,-0.0059 -0.0044,-0.0047 -0.0092,-0.009 -0.01367,-0.01367 0,0 -0.002,-0.002 -0.002,-0.002 -0.0038,-0.004 -0.0079,-0.0078 -0.01172,-0.01172 -9.46e-4,-10e-4 -10e-4,-0.0029 -0.002,-0.0039 -0.0012,-0.0014 -0.0027,-0.0025 -0.0039,-0.0039 -0.0063,-0.0073 -0.01511,-0.01225 -0.02148,-0.01953 0,0 0,-0.002 0,-0.002 -0.0063,-0.0073 -0.01511,-0.0142 -0.02148,-0.02148 0,0 -0.002,-0.002 -0.002,-0.002 -0.0063,-0.0074 -0.01508,-0.01223 -0.02148,-0.01953 -0.0066,-0.0077 -0.01675,-0.01581 -0.02344,-0.02344 -0.0012,-0.0014 -0.0027,-0.0025 -0.0039,-0.0039 -0.0049,-0.0055 -0.01066,-0.01018 -0.01563,-0.01563 0,0 -0.002,-0.002 -0.002,-0.002 0,0 0,-0.002 0,-0.002 0,0 -0.002,-0.002 -0.002,-0.002 -0.0072,-0.0084 -0.01809,-0.01708 -0.02539,-0.02539 -0.0072,-0.0084 -0.01807,-0.01706 -0.02539,-0.02539 -0.0072,-0.0084 -0.01809,-0.01708 -0.02539,-0.02539 -0.0078,-0.0091 -0.01945,-0.01837 -0.02734,-0.02734 -0.0087,-0.01014 -0.02046,-0.01732 -0.0293,-0.02734 -0.0066,-0.0077 -0.0148,-0.01386 -0.02148,-0.02148 -0.0012,-0.0014 -0.0027,-0.0025 -0.0039,-0.0039 -9.48e-4,-0.001 -10e-4,-0.0029 -0.002,-0.0039 -0.0084,-0.0098 -0.02077,-0.01961 -0.0293,-0.0293 -0.0087,-0.01014 -0.02241,-0.01927 -0.03125,-0.0293 -0.0024,-0.0028 -0.0054,-0.005 -0.0078,-0.0078 -0.0051,-0.0053 -0.01048,-0.01035 -0.01563,-0.01563 -0.0012,-0.0014 -0.0027,-0.0025 -0.0039,-0.0039 0,0 0,-0.002 0,-0.002 0,0 -0.002,-0.002 -0.002,-0.002 -0.0099,-0.01151 -0.02315,-0.01989 -0.0332,-0.03125 0,0 -0.002,-0.002 -0.002,-0.002 -0.0077,-0.008 -0.01569,-0.01555 -0.02344,-0.02344 0,0 -0.002,-0.002 -0.002,-0.002 -0.0015,-0.0017 -0.0024,-0.0042 -0.0039,-0.0059 -0.0096,-0.01119 -0.02343,-0.02215 -0.0332,-0.0332 -0.0096,-0.01119 -0.02343,-0.02215 -0.0332,-0.0332 -0.01021,-0.01189 -0.02477,-0.02342 -0.03516,-0.03516 -0.01021,-0.01189 -0.02477,-0.02343 -0.03516,-0.03516 -0.0024,-0.0028 -0.0054,-0.005 -0.0078,-0.0078 0,0 -0.002,0 -0.002,0 -0.0036,-0.0042 -0.0081,-0.0076 -0.01172,-0.01172 -0.0051,-0.0053 -0.01048,-0.01035 -0.01563,-0.01563 -0.0037,-0.0041 -0.008,-0.0076 -0.01172,-0.01172 -0.0072,-0.0078 -0.01421,-0.01574 -0.02148,-0.02344 0,0 -0.002,-0.002 -0.002,-0.002 -0.01172,-0.01364 -0.02711,-0.02368 -0.03906,-0.03711 -0.0042,-0.0049 -0.0094,-0.0088 -0.01367,-0.01367 -0.0057,-0.006 -0.01178,-0.01165 -0.01758,-0.01758 -9.29e-4,-0.0011 -10e-4,-0.0028 -0.002,-0.0039 -0.0012,-0.0014 -0.0027,-0.0025 -0.0039,-0.0039 -0.01142,-0.01329 -0.02743,-0.02597 -0.03906,-0.03906 -0.01142,-0.01329 -0.02743,-0.02597 -0.03906,-0.03906 -0.01109,-0.01291 -0.02777,-0.02439 -0.03906,-0.03711 0,0 0,-0.002 0,-0.002 0,0 -0.002,-0.002 -0.002,-0.002 -0.01202,-0.01399 -0.02876,-0.02725 -0.04102,-0.04102 -0.01292,-0.01504 -0.02977,-0.02623 -0.04297,-0.04102 -0.01262,-0.01469 -0.03008,-0.02852 -0.04297,-0.04297 -0.01082,-0.01259 -0.02415,-0.02275 -0.03516,-0.03516 -0.01589,-0.01864 -0.03446,-0.03447 -0.05078,-0.05273 -0.01289,-0.015 -0.0298,-0.02627 -0.04297,-0.04102 -9.39e-4,-10e-4 -0.001,-0.0029 -0.002,-0.0039 -0.01349,-0.0157 -0.03113,-0.02755 -0.04492,-0.04297 -0.01566,-0.01682 -0.0328,-0.03236 -0.04883,-0.04883 -0.01443,-0.01544 -0.03018,-0.02977 -0.04492,-0.04492 0,0 -0.002,-0.002 -0.002,-0.002 -0.0045,-0.0053 -0.01303,-0.0084 -0.01758,-0.01367 -0.0076,-0.0087 -0.01578,-0.01679 -0.02344,-0.02539 0,0 0,-0.002 0,-0.002 -0.01646,-0.01928 -0.03777,-0.03777 -0.05469,-0.05664 -0.01442,-0.01678 -0.03406,-0.03236 -0.04883,-0.04883 -0.01469,-0.01709 -0.03378,-0.03011 -0.04883,-0.04687 -9.43e-4,-0.001 -0.001,-0.0029 -0.002,-0.0039 -0.01502,-0.01748 -0.03538,-0.03364 -0.05078,-0.05078 -0.01592,-0.01853 -0.03639,-0.03263 -0.05273,-0.05078 -0.0066,-0.0077 -0.0148,-0.01386 -0.02148,-0.02148 -0.007,-0.0073 -0.01439,-0.01425 -0.02148,-0.02148 0,0 -0.002,-0.002 -0.002,-0.002 -0.0022,-0.0023 -0.0036,-0.0055 -0.0059,-0.0078 -0.01653,-0.01923 -0.0377,-0.03391 -0.05469,-0.05273 -0.01382,-0.01608 -0.03078,-0.02913 -0.04492,-0.04492 0,0 -0.002,-0.002 -0.002,-0.002 -0.0022,-0.0023 -0.0036,-0.0055 -0.0059,-0.0078 -0.01682,-0.01958 -0.03739,-0.03553 -0.05469,-0.05469 -0.01622,-0.01888 -0.03802,-0.0362 -0.05469,-0.05469 -0.01653,-0.01923 -0.0377,-0.03391 -0.05469,-0.05273 -9.48e-4,-10e-4 -0.001,-0.0029 -0.002,-0.0039 -0.01653,-0.01923 -0.03771,-0.03391 -0.05469,-0.05273 -9.5e-4,-0.001 -0.001,-0.0029 -0.002,-0.0039 -0.02073,-0.02413 -0.04691,-0.04293 -0.06836,-0.06641 -0.01597,-0.01661 -0.0325,-0.03258 -0.04883,-0.04883 -0.01713,-0.01993 -0.03902,-0.0352 -0.05664,-0.05469 0,0 -0.002,-0.002 -0.002,-0.002 0,0 0,-0.002 0,-0.002 -0.01592,-0.01853 -0.03639,-0.03263 -0.05273,-0.05078 -0.021,-0.02463 -0.04466,-0.04636 -0.06641,-0.07031 -0.01833,-0.02133 -0.04361,-0.03972 -0.0625,-0.06055 0,0 -0.002,-0.002 -0.002,-0.002 -0.01661,-0.01727 -0.03378,-0.0339 -0.05078,-0.05078 -0.0029,-0.003 -0.0049,-0.0068 -0.0078,-0.0098 -0.01948,-0.02267 -0.04434,-0.0404 -0.06445,-0.0625 -0.009,-0.01049 -0.02015,-0.01893 -0.0293,-0.0293 -0.0082,-0.0087 -0.01713,-0.01676 -0.02539,-0.02539 -0.02244,-0.02632 -0.04898,-0.04866 -0.07227,-0.07422 -0.01988,-0.02313 -0.04391,-0.04191 -0.06445,-0.06445 -0.02043,-0.02378 -0.04528,-0.04326 -0.06641,-0.06641 -0.02048,-0.02384 -0.04523,-0.0432 -0.06641,-0.06641 -0.02048,-0.02384 -0.04523,-0.0432 -0.06641,-0.06641 -0.02103,-0.02447 -0.04659,-0.04455 -0.06836,-0.06836 -0.02103,-0.02447 -0.04659,-0.04455 -0.06836,-0.06836 -0.02133,-0.02483 -0.04822,-0.04422 -0.07031,-0.06836 -0.02073,-0.02413 -0.04691,-0.04488 -0.06836,-0.06836 0,0 -0.002,-0.002 -0.002,-0.002 -0.01893,-0.02203 -0.04297,-0.03906 -0.0625,-0.06055 0,0 -0.002,-0.002 -0.002,-0.002 -0.0243,-0.02849 -0.05283,-0.05249 -0.07813,-0.08008 -0.02223,-0.02587 -0.04921,-0.04714 -0.07227,-0.07227 -0.01983,-0.02308 -0.04397,-0.04197 -0.06445,-0.06445 -0.02543,-0.02983 -0.05552,-0.05514 -0.08203,-0.08398 -0.02283,-0.02657 -0.05052,-0.04844 -0.07422,-0.07422 -0.02343,-0.02727 -0.05182,-0.04973 -0.07617,-0.07617 -0.02349,-0.02734 -0.05176,-0.04967 -0.07617,-0.07617 -0.02349,-0.02734 -0.05176,-0.04967 -0.07617,-0.07617 -0.02403,-0.02797 -0.05313,-0.05103 -0.07813,-0.07813 -0.0241,-0.02804 -0.05306,-0.05096 -0.07813,-0.07813 -0.02434,-0.02832 -0.05476,-0.0507 -0.08008,-0.07813 -0.02133,-0.02483 -0.04822,-0.04422 -0.07031,-0.06836 -0.02785,-0.0327 -0.06069,-0.06028 -0.08984,-0.0918 -0.01322,-0.01538 -0.02946,-0.02785 -0.04297,-0.04297 -0.0089,-0.0093 -0.01829,-0.01816 -0.02734,-0.02734 -0.02838,-0.03336 -0.06206,-0.06163 -0.0918,-0.09375 -0.02554,-0.02972 -0.05736,-0.0533 -0.08398,-0.08203 -0.02253,-0.02623 -0.05084,-0.04681 -0.07422,-0.07227 -10e-4,-9.44e-4 -9.47e-4,-0.003 -0.002,-0.0039 -0.02809,-0.03289 -0.06239,-0.06011 -0.0918,-0.0918 -0.0024,-0.0028 -0.0054,-0.005 -0.0078,-0.0078 -0.02134,-0.02283 -0.0444,-0.04423 -0.06641,-0.06641 -0.02958,-0.03476 -0.06465,-0.06424 -0.0957,-0.09766 -0.02644,-0.03077 -0.05834,-0.05623 -0.08594,-0.08594 -0.02704,-0.03147 -0.05964,-0.05753 -0.08789,-0.08789 -0.02704,-0.03147 -0.05964,-0.05753 -0.08789,-0.08789 -0.02704,-0.03147 -0.05964,-0.05753 -0.08789,-0.08789 -0.02757,-0.03208 -0.06102,-0.05892 -0.08984,-0.08984 -0.02764,-0.03217 -0.06094,-0.05884 -0.08984,-0.08984 -0.05484,-0.06382 -0.119937,-0.118563 -0.179688,-0.177735 -0.0016,-0.0017 -0.0023,-0.0042 -0.0039,-0.0059 -0.02824,-0.03287 -0.06223,-0.06014 -0.0918,-0.0918 -0.02884,-0.03356 -0.06353,-0.06145 -0.09375,-0.09375 -0.02884,-0.03356 -0.06353,-0.06145 -0.09375,-0.09375 -0.02914,-0.03392 -0.06515,-0.06112 -0.0957,-0.09375 -0.02614,-0.03042 -0.05866,-0.0546 -0.08594,-0.08398 -0.03255,-0.03823 -0.07114,-0.07082 -0.105469,-0.107422 -0.02674,-0.03112 -0.05996,-0.0559 -0.08789,-0.08594 -0.03293,-0.03867 -0.07072,-0.07237 -0.105468,-0.109375 -0.03035,-0.03532 -0.06774,-0.06374 -0.09961,-0.09766 -0.02734,-0.03182 -0.06126,-0.05721 -0.08984,-0.08789 0,0 -0.002,-0.002 -0.002,-0.002 -0.03319,-0.03891 -0.07238,-0.07215 -0.107422,-0.109375 -0.02794,-0.03252 -0.06256,-0.05851 -0.0918,-0.08984 -0.03412,-0.04007 -0.0733,-0.075 -0.109375,-0.113282 -0.03124,-0.03636 -0.0687,-0.06669 -0.101563,-0.101562 -0.03185,-0.03706 -0.06999,-0.068 -0.103516,-0.103516 -0.02982,-0.03471 -0.06636,-0.06235 -0.09766,-0.0957 -0.03384,-0.03964 -0.07362,-0.07345 -0.109375,-0.111328 -0.03245,-0.03776 -0.07128,-0.06931 -0.105469,-0.105469 -0.03245,-0.03776 -0.07128,-0.06931 -0.105468,-0.105469 -0.03305,-0.03846 -0.07257,-0.07063 -0.107422,-0.107421 -0.03103,-0.03611 -0.06894,-0.06497 -0.101563,-0.09961 -0.03303,-0.03868 -0.07257,-0.07041 -0.107421,-0.107422 -0.03564,-0.04174 -0.07748,-0.0774 -0.115235,-0.117187 -0.03163,-0.03681 -0.07023,-0.06628 -0.103515,-0.101563 -0.03363,-0.03938 -0.07386,-0.07172 -0.109376,-0.109375 -0.03624,-0.04244 -0.07876,-0.07872 -0.117187,-0.11914 -0.03425,-0.03986 -0.07514,-0.07326 -0.111328,-0.111329 -0.03266,-0.03801 -0.07299,-0.06908 -0.107422,-0.105468 -0.03684,-0.04314 -0.08004,-0.08004 -0.119141,-0.121094 -0.03485,-0.04056 -0.07642,-0.07458 -0.113281,-0.113281 -0.03545,-0.04126 -0.07771,-0.0759 -0.115234,-0.115235 -0.03545,-0.04126 -0.07771,-0.07589 -0.115235,-0.115234 -0.03575,-0.04161 -0.07932,-0.07558 -0.117187,-0.115234 -0.03455,-0.04021 -0.07675,-0.07294 -0.113281,-0.111328 -0.0017,-0.0016 -0.0022,-0.0043 -0.0039,-0.0059 -0.03275,-0.03811 -0.0729,-0.06899 -0.107421,-0.105469 -0.03925,-0.04617 -0.08707,-0.08706 -0.128907,-0.130859 -0.03665,-0.04266 -0.08027,-0.07854 -0.11914,-0.119141 -0.03335,-0.03881 -0.07418,-0.0703 -0.109375,-0.107421 -0.04035,-0.04747 -0.08778,-0.08785 -0.13086,-0.132813 -0.03395,-0.03951 -0.07547,-0.07162 -0.111328,-0.109375 -0.03865,-0.04547 -0.08384,-0.08379 -0.125,-0.126953 -0.03735,-0.04374 -0.08337,-0.0795 -0.123047,-0.121094 -0.04045,-0.04742 -0.08768,-0.08791 -0.130859,-0.132812 -0.03455,-0.04021 -0.07675,-0.07294 -0.113281,-0.111329 -0.04035,-0.04747 -0.08778,-0.08785 -0.13086,-0.132812 -0.03838,-0.04487 -0.08417,-0.08239 -0.125,-0.125 -0.04023,-0.04712 -0.08989,-0.08819 -0.132812,-0.132812 -0.03635,-0.04231 -0.0806,-0.0769 -0.119141,-0.117188 -0.0393,-0.04616 -0.08507,-0.08513 -0.126953,-0.128906 -0.03969,-0.04656 -0.08854,-0.08477 -0.130859,-0.128906 -0.04224,-0.04953 -0.0915,-0.0919 -0.136719,-0.138672 -0.03635,-0.04231 -0.0806,-0.0769 -0.119141,-0.117188 -0.04323,-0.05086 -0.09622,-0.09656 -0.142578,-0.144531 -0.03695,-0.04301 -0.08188,-0.07822 -0.121094,-0.119141 -0.04214,-0.04958 -0.0916,-0.09184 -0.136718,-0.138672 -0.04023,-0.04712 -0.08793,-0.08623 -0.13086,-0.130859 -0.04367,-0.05124 -0.09573,-0.09429 -0.142578,-0.142578 -0.03936,-0.0458 -0.08699,-0.08352 -0.128906,-0.126953 -0.04014,-0.04701 -0.08804,-0.08633 -0.13086,-0.13086 -0.04334,-0.05098 -0.09415,-0.0945 -0.140624,-0.142578 -0.04174,-0.04888 -0.09209,-0.08857 -0.136719,-0.134765 -0.04464,-0.05234 -0.09658,-0.09723 -0.144531,-0.146485 -0.04056,-0.0472 -0.08954,-0.08618 -0.132813,-0.130859 -0.04252,-0.0498 -0.09314,-0.09166 -0.138672,-0.138672 -0.04134,-0.04841 -0.09059,-0.08898 -0.134765,-0.134766 -0.04681,-0.05506 -0.101881,-0.102626 -0.152344,-0.154297 -0.03996,-0.0465 -0.08827,-0.08485 -0.13086,-0.128906 -0.04703,-0.05533 -0.101618,-0.102393 -0.152343,-0.154297 -0.04056,-0.0472 -0.08954,-0.086175 -0.132813,-0.130859 -0.04763,-0.056037 -0.10288,-0.1037307 -0.154297,-0.15625 -0.04056,-0.047204 -0.08954,-0.086175 -0.132812,-0.1308594 -0.048,-0.056466 -0.10441,-0.1053091 -0.15625,-0.1582031 -0.04116,-0.047903 -0.09081,-0.087505 -0.134766,-0.1328125 -0.04859,-0.057167 -0.105673,-0.1066522 -0.158203,-0.1601562 -0.04176,-0.048602 -0.09208,-0.088836 -0.136719,-0.1347657 -0.04692,-0.0552 -0.101748,-0.1025086 -0.152343,-0.1542969 -0.572411,-0.670378 -1.423575,-1.09375 -2.375,-1.09375 z"
       transform="matrix(0.9375,0,0,0.9375,-1.8749779,2.4708283)"
       id="path923"
       clip-path="url(#clipPath1784)"
       inkscape:connector-curvature="0" />
    <path
       style="display:inline;fill:#f5f5f5;stroke-width:0.93749988"
       id="path4231"
       d="M 11.308616,12.013797 C 11.04299,10.670047 9.8593963,9.6583288 8.437522,9.6583288 c -1.1289065,0 -2.1093751,0.6406242 -2.5976563,1.5742182 -1.1757812,0.128907 -2.0898436,1.121094 -2.0898436,2.33203 a 2.3437498,2.3437498 0 0 0 2.3437499,2.343751 h 5.078124 a 1.9531248,1.9531248 0 0 0 1.953126,-1.953125 c 0,-1.03125 -0.800782,-1.867187 -1.816406,-1.941406 z"
       inkscape:connector-curvature="0"
       clip-path="url(#clipPath1792)" />
    <path
       inkscape:connector-curvature="0"
       d="m 25.371116,26.076297 c -0.265626,-1.34375 -1.44922,-2.355468 -2.871094,-2.355468 -1.128907,0 -2.109375,0.640624 -2.597656,1.574218 -1.175782,0.128907 -2.089844,1.121094 -2.089844,2.33203 a 2.3437498,2.3437498 0 0 0 2.34375,2.343751 h 5.078124 a 1.9531248,1.9531248 0 0 0 1.953126,-1.953125 c 0,-1.03125 -0.800782,-1.867187 -1.816406,-1.941406 z"
       id="path868"
       style="display:inline;fill:#212121;stroke-width:0.93749988"
       clip-path="url(#clipPath1788)" />
  </g>
</svg>
