<?xml version="1.0" encoding="UTF-8" standalone="no"?>
<!-- Created with Inkscape (http://www.inkscape.org/) -->

<svg
   xmlns:dc="http://purl.org/dc/elements/1.1/"
   xmlns:cc="http://creativecommons.org/ns#"
   xmlns:rdf="http://www.w3.org/1999/02/22-rdf-syntax-ns#"
   xmlns:svg="http://www.w3.org/2000/svg"
   xmlns="http://www.w3.org/2000/svg"
   xmlns:sodipodi="http://sodipodi.sourceforge.net/DTD/sodipodi-0.dtd"
   xmlns:inkscape="http://www.inkscape.org/namespaces/inkscape"
   sodipodi:docname="datei.svg"
   inkscape:version="0.92.3 (2405546, 2018-03-11)"
   version="1.1"
   id="svg2"
   viewBox="0 0 28.125 28.125"
   height="30"
   width="30"
   inkscape:export-filename="/home/juergen/Desktop/ic_foreground.png"
   inkscape:export-xdpi="627.20001"
   inkscape:export-ydpi="627.20001">
  <sodipodi:namedview
     inkscape:snap-to-guides="true"
     inkscape:snap-grids="true"
     inkscape:window-maximized="1"
     inkscape:window-y="27"
     inkscape:window-x="0"
     inkscape:window-height="704"
     inkscape:window-width="1366"
     inkscape:guide-bbox="true"
     showguides="false"
     fit-margin-bottom="5"
     fit-margin-right="5"
     fit-margin-left="5"
     fit-margin-top="5"
     showgrid="true"
     inkscape:current-layer="layer2"
     inkscape:document-units="px"
     inkscape:cy="23.860417"
     inkscape:cx="15.581827"
     inkscape:zoom="11.2"
     inkscape:pageshadow="2"
     inkscape:pageopacity="0.0"
     borderopacity="1.0"
     bordercolor="#666666"
     pagecolor="#ffffff"
     id="base"
     units="px">
    <inkscape:grid
       originy="22.500001"
       originx="10.3125"
       id="grid4138"
       type="xygrid" />
    <sodipodi:guide
       inkscape:locked="false"
       id="guide4140"
       orientation="0,1"
       position="15.624978,24.845829" />
    <sodipodi:guide
       inkscape:locked="false"
       id="guide4142"
       orientation="0,1"
       position="15.624978,8.8458282" />
    <sodipodi:guide
       inkscape:locked="false"
       id="guide4144"
       orientation="1,0"
       position="7.624978,16.845829" />
    <sodipodi:guide
       inkscape:locked="false"
       id="guide4146"
       orientation="0,20"
       position="5.6249779,6.8458281" />
    <sodipodi:guide
       inkscape:locked="false"
       id="guide4148"
       orientation="-20,0"
       position="25.624978,6.8458281" />
    <sodipodi:guide
       inkscape:locked="false"
       id="guide4150"
       orientation="0,-20"
       position="25.624978,26.845829" />
    <sodipodi:guide
       inkscape:locked="false"
       id="guide4152"
       orientation="20,0"
       position="5.6249779,26.845829" />
    <sodipodi:guide
       inkscape:locked="false"
       id="guide4154"
       orientation="1,0"
       position="23.624978,16.845829" />
    <sodipodi:guide
       inkscape:locked="false"
       id="guide4156"
       orientation="-0.70710678,0.70710678"
       position="15.624978,16.845829" />
    <sodipodi:guide
       inkscape:locked="false"
       id="guide4158"
       orientation="0.70710678,0.70710678"
       position="15.624978,16.845829" />
    <sodipodi:guide
       inkscape:locked="false"
       id="guide4160"
       orientation="1,0"
       position="9.6249781,16.845829" />
    <sodipodi:guide
       inkscape:locked="false"
       id="guide4162"
       orientation="1,0"
       position="21.624978,16.845829" />
    <sodipodi:guide
       inkscape:locked="false"
       id="guide4164"
       orientation="0,1"
       position="15.624978,22.845829" />
    <sodipodi:guide
       inkscape:locked="false"
       id="guide4166"
       orientation="0,1"
       position="15.624978,10.845828" />
    <sodipodi:guide
       inkscape:locked="false"
       id="guide4168"
       orientation="0,1"
       position="15.624978,21.845829" />
    <sodipodi:guide
       inkscape:locked="false"
       id="guide4170"
       orientation="0,1"
       position="15.624978,11.845828" />
    <sodipodi:guide
       inkscape:locked="false"
       id="guide4172"
       orientation="1,0"
       position="10.624978,16.845829" />
    <sodipodi:guide
       inkscape:locked="false"
       id="guide4174"
       orientation="1,0"
       position="20.624978,16.845829" />
  </sodipodi:namedview>
  <defs
     id="defs4">
    <clipPath
       clipPathUnits="userSpaceOnUse"
       id="clipPath12478">
      <circle
         style="opacity:1;fill:#2196f3;fill-opacity:1;stroke:none;stroke-width:0.05069799;stroke-miterlimit:4;stroke-dasharray:none;stroke-opacity:1"
         id="circle12480"
         cx="9.9999781"
         cy="10.000005"
         r="10" />
    </clipPath>
    <clipPath
       id="clipPath5790"
       clipPathUnits="userSpaceOnUse">
      <circle
         inkscape:export-ydpi="648"
         inkscape:export-xdpi="648"
         inkscape:export-filename="/home/juergen/path4136.png"
         style="opacity:1;fill:#2196f3;fill-opacity:1;stroke:none;stroke-width:0.05069799;stroke-miterlimit:4;stroke-dasharray:none;stroke-opacity:1"
         id="circle5792"
         cx="9.9999781"
         cy="10.000005"
         r="10" />
    </clipPath>
    <clipPath
       clipPathUnits="userSpaceOnUse"
       id="clipPath7690">
      <circle
         inkscape:export-ydpi="648"
         inkscape:export-xdpi="648"
         inkscape:export-filename="/home/juergen/Schreibtisch/path4136.png"
         style="opacity:1;fill:#2196f3;fill-opacity:1;stroke:none;stroke-width:0.05069799;stroke-miterlimit:4;stroke-dasharray:none;stroke-opacity:1"
         id="circle7692"
         cx="9.9999781"
         cy="10.000005"
         r="10" />
    </clipPath>
    <clipPath
       id="clipPath5119"
       clipPathUnits="userSpaceOnUse">
      <circle
         inkscape:export-ydpi="648"
         inkscape:export-xdpi="648"
         inkscape:export-filename="/home/juergen/Schreibtisch/path4136.png"
         style="opacity:1;fill:#ff9800;fill-opacity:1;stroke:none;stroke-width:0.05069799;stroke-miterlimit:4;stroke-dasharray:none;stroke-opacity:1"
         id="circle5121"
         cx="9.9999781"
         cy="10.000005"
         r="10" />
    </clipPath>
    <clipPath
       clipPathUnits="userSpaceOnUse"
       id="clipPath3591">
      <rect
         inkscape:export-ydpi="691.20001"
         inkscape:export-xdpi="691.20001"
         inkscape:export-filename="/home/juergen/Desktop/ic_launcher.png"
         style="fill:#ea80fc;fill-opacity:0.95685281;stroke:none;stroke-width:5.75974274;stroke-miterlimit:4;stroke-dasharray:none;stroke-opacity:1"
         id="rect3593"
         width="20"
         height="20"
         x="4.000071"
         y="8.63554" />
    </clipPath>
    <clipPath
       clipPathUnits="userSpaceOnUse"
       id="clipPath3595">
      <rect
         inkscape:export-ydpi="691.20001"
         inkscape:export-xdpi="691.20001"
         inkscape:export-filename="/home/juergen/Desktop/ic_launcher.png"
         style="fill:#ea80fc;fill-opacity:0.95685281;stroke:none;stroke-width:5.39975882;stroke-miterlimit:4;stroke-dasharray:none;stroke-opacity:1"
         id="rect3597"
         width="18.75"
         height="18.75"
         x="-0.93747789"
         y="3.4083283" />
    </clipPath>
    <clipPath
       clipPathUnits="userSpaceOnUse"
       id="clipPath3599">
      <rect
         inkscape:export-ydpi="691.20001"
         inkscape:export-xdpi="691.20001"
         inkscape:export-filename="/home/juergen/Desktop/ic_launcher.png"
         style="fill:#ea80fc;fill-opacity:0.95685281;stroke:none;stroke-width:5.39975882;stroke-miterlimit:4;stroke-dasharray:none;stroke-opacity:1"
         id="rect3601"
         width="18.75"
         height="18.75"
         x="-0.93747789"
         y="3.4083283" />
    </clipPath>
    <clipPath
       clipPathUnits="userSpaceOnUse"
       id="clipPath3603">
      <rect
         inkscape:export-ydpi="691.20001"
         inkscape:export-xdpi="691.20001"
         inkscape:export-filename="/home/juergen/Desktop/ic_launcher.png"
         style="fill:#ea80fc;fill-opacity:0.95685281;stroke:none;stroke-width:5.39975882;stroke-miterlimit:4;stroke-dasharray:none;stroke-opacity:1"
         id="rect3605"
         width="18.75"
         height="18.75"
         x="-0.93747789"
         y="3.4083283" />
    </clipPath>
    <clipPath
       clipPathUnits="userSpaceOnUse"
       id="clipPath3617">
      <rect
         ry="0.93749899"
         inkscape:export-ydpi="691.20001"
         inkscape:export-xdpi="691.20001"
         inkscape:export-filename="/home/juergen/Desktop/ic_launcher.png"
         style="fill:#8bc34a;fill-opacity:0.95685281;stroke:none;stroke-width:5.39975882;stroke-miterlimit:4;stroke-dasharray:none;stroke-opacity:1"
         id="rect3619"
         width="18.75"
         height="18.75"
         x="-0.93747789"
         y="3.4083283" />
    </clipPath>
    <clipPath
       clipPathUnits="userSpaceOnUse"
       id="clipPath3621">
      <rect
         ry="0.99999893"
         inkscape:export-ydpi="691.20001"
         inkscape:export-xdpi="691.20001"
         inkscape:export-filename="/home/juergen/Desktop/ic_launcher.png"
         style="fill:#8bc34a;fill-opacity:0.95685281;stroke:none;stroke-width:5.75974274;stroke-miterlimit:4;stroke-dasharray:none;stroke-opacity:1"
         id="rect3623"
         width="20"
         height="20"
         x="4.000071"
         y="8.63554" />
    </clipPath>
    <clipPath
       clipPathUnits="userSpaceOnUse"
       id="clipPath3627">
      <rect
         ry="1.874999"
         inkscape:export-ydpi="691.20001"
         inkscape:export-xdpi="691.20001"
         inkscape:export-filename="/home/juergen/Desktop/ic_launcher.png"
         style="fill:#8bc34a;fill-opacity:0.95685281;stroke:none;stroke-width:5.39975882;stroke-miterlimit:4;stroke-dasharray:none;stroke-opacity:1"
         id="rect3629"
         width="18.75"
         height="18.75"
         x="-0.93747789"
         y="3.4083283" />
    </clipPath>
    <clipPath
       clipPathUnits="userSpaceOnUse"
       id="clipPath3631">
      <rect
         ry="1.9999989"
         inkscape:export-ydpi="691.20001"
         inkscape:export-xdpi="691.20001"
         inkscape:export-filename="/home/juergen/Desktop/ic_launcher.png"
         style="fill:#8bc34a;fill-opacity:0.95685281;stroke:none;stroke-width:5.75974274;stroke-miterlimit:4;stroke-dasharray:none;stroke-opacity:1"
         id="rect3633"
         width="20"
         height="20"
         x="4.000071"
         y="8.63554" />
    </clipPath>
  </defs>
  <metadata
     id="metadata7">
    <rdf:RDF>
      <cc:Work
         rdf:about="">
        <dc:format>image/svg+xml</dc:format>
        <dc:type
           rdf:resource="http://purl.org/dc/dcmitype/StillImage" />
        <dc:title></dc:title>
      </cc:Work>
    </rdf:RDF>
  </metadata>
  <g
     transform="translate(1063.7677,-860.65447)"
     id="layer1"
     inkscape:groupmode="layer"
     inkscape:label="Hintergrund" />
  <g
     transform="translate(5.6249779,1.2791717)"
     inkscape:label="Icon"
     id="layer2"
     inkscape:groupmode="layer"
     style="display:inline">
    <rect
       y="3.4083283"
       x="-0.93747789"
       height="18.75"
       width="18.75"
       id="rect849"
       style="fill:#cddc39;fill-opacity:0.95685281;stroke:none;stroke-width:5.39975882;stroke-miterlimit:4;stroke-dasharray:none;stroke-opacity:1"
       inkscape:export-filename="/home/juergen/Desktop/ic_launcher.png"
       inkscape:export-xdpi="691.20001"
       inkscape:export-ydpi="691.20001"
       ry="0" />
    <path
       style="fill:none"
       inkscape:connector-curvature="0"
       id="path4"
       d="M 3.9999777,4.0333382 H 15.999978 V 15.966671 H 3.9999777 Z" />
    <path
       d="m 18.999978,19.033339 h 12 v 11.933333 h -12 z"
       id="path9754"
       inkscape:connector-curvature="0"
       style="fill:none"
       clip-path="url(#clipPath3603)" />
    <path
       style="opacity:0.2;fill:#212121;stroke-width:1.06666672"
       d="m 9.734375,14.369141 c -0.1473353,0 -0.288724,0.03069 -0.4160156,0.08398 -5.743e-4,2.4e-4 -0.00138,-2.41e-4 -0.00195,0 -0.38325,0.16125 -0.6484374,0.538422 -0.6484374,0.982422 -1.3e-6,6.67e-4 0,0.0013 0,0.002 v 6.398438 0.002 c 0,0.02772 0.013491,0.05264 0.015625,0.08008 0.00899,0.112795 0.023358,0.224939 0.066406,0.328125 0,0 0.00195,0.002 0.00195,0.002 0.031802,0.07569 0.088078,0.138254 0.1367188,0.205078 0.032499,0.04465 0.052257,0.09718 0.091797,0.136719 3.912e-4,3.92e-4 -3.919e-4,0.0016 0,0.002 3.895e-4,3.89e-4 0.00156,-3.88e-4 0.00195,0 0,0 0,0.002 0,0.002 3.904e-4,3.88e-4 0.00156,-3.87e-4 0.00195,0 0,0 0,0.002 0,0.002 0,0 0.00195,0.002 0.00195,0.002 0,0 0.00195,0.002 0.00195,0.002 0,0 0.00195,0.002 0.00195,0.002 0,0 0.00195,0.002 0.00195,0.002 0.0017,0.0017 0.00415,0.0022 0.00586,0.0039 0.00168,0.0017 0.00221,0.0042 0.00391,0.0059 0.00207,0.0021 0.00572,0.0019 0.00781,0.0039 0,0 0,0.002 0,0.002 0,0 0.00195,0 0.00195,0 0,0 0,0.002 0,0.002 0.00166,0.0017 0.00224,0.0042 0.00391,0.0059 0.0013,0.0013 0.0026,0.0026 0.00391,0.0039 0.0013,0.0013 0.0026,0.0026 0.00391,0.0039 0.00234,0.0023 0.00546,0.0035 0.00781,0.0059 0,0 0.00195,0.002 0.00195,0.002 0,0 0.00195,0.002 0.00195,0.002 0.00232,0.0024 0.00351,0.0055 0.00586,0.0078 0.00273,0.0027 0.00701,0.0032 0.00977,0.0059 0.00104,0.001 9.132e-4,0.0029 0.00195,0.0039 0.00104,10e-4 0.00286,9.18e-4 0.00391,0.002 0.00271,0.0028 0.00312,0.007 0.00586,0.0098 0.00209,0.0021 0.00571,0.0018 0.00781,0.0039 0.00206,0.0021 0.00183,0.0057 0.00391,0.0078 0.00209,0.0021 0.00571,0.0018 0.00781,0.0039 0.00207,0.0021 0.00182,0.0057 0.00391,0.0078 0.00235,0.0023 0.00545,0.0035 0.00781,0.0059 0.00231,0.0024 0.00352,0.0055 0.00586,0.0078 0.00235,0.0023 0.00545,0.0035 0.00781,0.0059 0.00231,0.0024 0.00352,0.0055 0.00586,0.0078 0.00235,0.0023 0.00545,0.0035 0.00781,0.0059 0.00232,0.0024 0.00351,0.0055 0.00586,0.0078 0.00273,0.0027 0.00701,0.0032 0.00977,0.0059 0.00271,0.0028 0.00312,0.007 0.00586,0.0098 0.00274,0.0027 0.007,0.0032 0.00977,0.0059 0.00271,0.0028 0.00312,0.007 0.00586,0.0098 0.00299,0.003 0.00675,0.0049 0.00977,0.0078 0.00295,0.003 0.00483,0.0068 0.00781,0.0098 0.00378,0.0038 0.00984,0.0041 0.013672,0.0078 0.00206,0.0021 0.00183,0.0057 0.00391,0.0078 0.00234,0.0023 0.00545,0.0035 0.00781,0.0059 0.00397,0.0041 0.00572,0.0096 0.00977,0.01367 0.00404,0.004 0.00957,0.0058 0.013672,0.0098 0.00232,0.0024 0.00352,0.0055 0.00586,0.0078 0.00273,0.0027 0.00701,0.0032 0.00977,0.0059 0.00433,0.0045 0.00535,0.01121 0.00977,0.01563 0.00339,0.0034 0.00829,0.0045 0.011719,0.0078 0.00334,0.0034 0.00442,0.0083 0.00781,0.01172 0.00377,0.0038 0.00985,0.0041 0.013672,0.0078 0.00372,0.0038 0.00403,0.0099 0.00781,0.01367 0.00378,0.0038 0.00984,0.0041 0.013672,0.0078 0.00372,0.0038 0.00403,0.0099 0.00781,0.01367 0.00403,0.004 0.00959,0.0058 0.013672,0.0098 0.00396,0.0041 0.00574,0.0096 0.00977,0.01367 0.00404,0.004 0.00957,0.0058 0.013672,0.0098 0.00396,0.0041 0.00574,0.0096 0.00977,0.01367 0.00404,0.004 0.00957,0.0058 0.013672,0.0098 0.00397,0.0041 0.00572,0.0096 0.00977,0.01367 0.00442,0.0044 0.011139,0.0054 0.015625,0.0098 0.00435,0.0045 0.00533,0.01119 0.00977,0.01563 0.00443,0.0044 0.011122,0.0054 0.015625,0.0098 0.00435,0.0045 0.00533,0.01119 0.00977,0.01563 0.00548,0.0055 0.013949,0.0064 0.019531,0.01172 0.00371,0.0038 0.00404,0.0099 0.00781,0.01367 0.00468,0.0047 0.010864,0.0071 0.015625,0.01172 0.00459,0.0048 0.00704,0.01094 0.011719,0.01563 0.00468,0.0047 0.010864,0.0071 0.015625,0.01172 0.00459,0.0048 0.00704,0.01094 0.011719,0.01563 0.00403,0.004 0.00958,0.0058 0.013672,0.0098 0.00559,0.0059 0.00793,0.01379 0.013672,0.01953 0.00507,0.0051 0.012422,0.0068 0.017578,0.01172 0.00497,0.0052 0.00663,0.01249 0.011719,0.01758 0.00544,0.0054 0.013986,0.0064 0.019531,0.01172 0.00531,0.0055 0.00628,0.01409 0.011719,0.01953 0.00613,0.0061 0.015223,0.0077 0.021484,0.01367 0.00434,0.0045 0.00534,0.0112 0.00977,0.01563 0.00546,0.0055 0.013965,0.0064 0.019531,0.01172 0.00533,0.0056 0.00626,0.01407 0.011719,0.01953 0.00468,0.0047 0.010864,0.0071 0.015625,0.01172 0.00621,0.0065 0.00924,0.01509 0.015625,0.02148 0.00572,0.0057 0.013701,0.0081 0.019531,0.01367 0.00559,0.0059 0.00793,0.01379 0.013672,0.01953 0.00678,0.0068 0.016495,0.009 0.023437,0.01563 0.00496,0.0052 0.00665,0.01251 0.011719,0.01758 0.00507,0.0051 0.012415,0.0068 0.017578,0.01172 0.00658,0.0069 0.00884,0.01666 0.015625,0.02344 0.00613,0.0061 0.015223,0.0077 0.021484,0.01367 0.00596,0.0063 0.00754,0.01536 0.013672,0.02148 0.00717,0.0072 0.018038,0.0087 0.025391,0.01563 0.00533,0.0056 0.00626,0.01407 0.011719,0.01953 0.00637,0.0064 0.014967,0.0094 0.021484,0.01563 0.0062,0.0065 0.00925,0.01511 0.015625,0.02148 0.00637,0.0064 0.014968,0.0094 0.021484,0.01563 0.0062,0.0065 0.00925,0.01511 0.015625,0.02148 0.00572,0.0057 0.013693,0.0081 0.019531,0.01367 0.00719,0.0076 0.010145,0.01796 0.017578,0.02539 0.00675,0.0068 0.016523,0.0091 0.023437,0.01563 0.0066,0.0069 0.0088,0.01666 0.01563,0.02344 0.0078,0.0078 0.01931,0.01002 0.02734,0.01758 0.0059,0.0062 0.0076,0.01537 0.01367,0.02148 0.0061,0.0061 0.01524,0.0077 0.02148,0.01367 0.0076,0.008 0.0098,0.01952 0.01758,0.02734 0.0071,0.0071 0.01807,0.0087 0.02539,0.01563 0.0069,0.0074 0.0085,0.01822 0.01563,0.02539 0.0074,0.0074 0.01779,0.01042 0.02539,0.01758 0.0072,0.0076 0.01017,0.01799 0.01758,0.02539 0.0081,0.0081 0.01903,0.01173 0.02734,0.01953 0.0062,0.0065 0.0093,0.01511 0.01563,0.02148 0.0068,0.0068 0.01651,0.0091 0.02344,0.01563 0.0082,0.0087 0.01105,0.02082 0.01953,0.0293 0.0085,0.0085 0.02057,0.01137 0.0293,0.01953 0.0066,0.0069 0.0089,0.01667 0.01563,0.02344 0.0078,0.0078 0.01933,0.01004 0.02734,0.01758 0.0075,0.008 0.0098,0.01954 0.01758,0.02734 0.0074,0.0074 0.01778,0.01041 0.02539,0.01758 0.0082,0.0087 0.01106,0.02082 0.01953,0.0293 0.0085,0.0085 0.02057,0.01137 0.0293,0.01953 0.0072,0.0076 0.01016,0.01798 0.01758,0.02539 0.0074,0.0074 0.01778,0.01041 0.02539,0.01758 0.0087,0.0094 0.01239,0.02216 0.02148,0.03125 0.0081,0.0081 0.01903,0.01173 0.02734,0.01953 0.0078,0.0083 0.01145,0.01926 0.01953,0.02734 0.0084,0.0084 0.02063,0.01142 0.0293,0.01953 0.0082,0.0087 0.01106,0.02082 0.01953,0.0293 0.0095,0.0095 0.02341,0.0124 0.0332,0.02148 0.0075,0.008 0.0098,0.01954 0.01758,0.02734 0.0078,0.0078 0.01933,0.01004 0.02734,0.01758 0.0091,0.0098 0.01197,0.02368 0.02148,0.0332 0.0088,0.0088 0.02214,0.01104 0.03125,0.01953 0.0085,0.0091 0.01066,0.02238 0.01953,0.03125 0.0095,0.0095 0.02341,0.0124 0.0332,0.02148 0.0081,0.0087 0.01108,0.02084 0.01953,0.0293 0.0091,0.0091 0.02186,0.01274 0.03125,0.02148 0.0087,0.0094 0.01238,0.02215 0.02148,0.03125 0.0091,0.0091 0.02186,0.01275 0.03125,0.02148 0.0087,0.0094 0.01238,0.02215 0.02149,0.03125 0.0085,0.0085 0.02059,0.01139 0.0293,0.01953 0.0097,0.01053 0.01327,0.02499 0.02344,0.03516 0.0095,0.0095 0.02341,0.0124 0.0332,0.02148 0.0091,0.0098 0.01197,0.02368 0.02149,0.0332 0.01017,0.01017 0.02462,0.01372 0.03516,0.02344 0.0087,0.0094 0.01238,0.02214 0.02148,0.03125 0.0091,0.0091 0.02186,0.01274 0.03125,0.02148 0.0097,0.01053 0.01327,0.02499 0.02344,0.03516 0.0098,0.0098 0.02309,0.01408 0.0332,0.02344 0.0094,0.01011 0.01366,0.02342 0.02344,0.0332 0.01013,0.01013 0.02467,0.01376 0.03516,0.02344 0.0097,0.01046 0.01333,0.02505 0.02344,0.03516 0.01082,0.01082 0.02588,0.01508 0.03711,0.02539 0.0087,0.0094 0.01238,0.02214 0.02148,0.03125 0.0095,0.0095 0.02339,0.01239 0.0332,0.02148 0.01062,0.01161 0.01422,0.02789 0.02539,0.03906 0.01121,0.01121 0.02741,0.01473 0.03906,0.02539 0.0091,0.0098 0.01199,0.02371 0.02149,0.0332 0.01053,0.01053 0.02619,0.01339 0.03711,0.02344 0.01004,0.01092 0.0129,0.02658 0.02344,0.03711 0.01014,0.01014 0.02465,0.01375 0.03516,0.02344 0.01062,0.0116 0.01422,0.02789 0.02539,0.03906 0.01121,0.01121 0.02741,0.01473 0.03906,0.02539 0.0097,0.0105 0.01329,0.02501 0.02344,0.03516 0.0108,0.0108 0.02591,0.01511 0.03711,0.02539 0.01028,0.0112 0.01459,0.02631 0.02539,0.03711 0.01015,0.01014 0.02465,0.01375 0.03516,0.02344 0.01124,0.01236 0.01548,0.02915 0.02734,0.04102 0.01121,0.01121 0.02741,0.01473 0.03906,0.02539 0.01066,0.01165 0.01418,0.02785 0.02539,0.03906 0.01121,0.01121 0.02741,0.01473 0.03906,0.02539 0.01066,0.01165 0.01418,0.02785 0.02539,0.03906 0.01117,0.01117 0.02746,0.01477 0.03906,0.02539 0.01124,0.01236 0.01548,0.02915 0.02734,0.04102 0.01148,0.01148 0.02713,0.01645 0.03906,0.02734 0.01089,0.01193 0.01587,0.02759 0.02734,0.03906 0.01148,0.01148 0.02713,0.01645 0.03906,0.02734 0.01089,0.01193 0.01587,0.02759 0.02734,0.03906 0.01179,0.01179 0.02874,0.01617 0.04102,0.02734 0.01125,0.01236 0.01548,0.02915 0.02734,0.04102 0.01187,0.01187 0.02866,0.0161 0.04101,0.02734 0.01125,0.01236 0.01548,0.02915 0.02734,0.04102 0.01221,0.01221 0.03024,0.01579 0.04297,0.02734 0.01155,0.01273 0.01513,0.03076 0.02734,0.04297 0.01226,0.01226 0.03019,0.01575 0.04297,0.02734 0.01155,0.01273 0.01513,0.03076 0.02734,0.04297 0.01226,0.01226 0.03019,0.01575 0.04297,0.02734 0.01159,0.01278 0.01509,0.03071 0.02734,0.04297 0.01252,0.01252 0.02991,0.01747 0.04297,0.0293 0.01178,0.01301 0.01683,0.0305 0.0293,0.04297 0.01252,0.01252 0.02991,0.01747 0.04297,0.0293 0.01178,0.01301 0.01683,0.0305 0.0293,0.04297 0.01252,0.01252 0.02991,0.01747 0.04297,0.0293 0.01183,0.01306 0.01678,0.03045 0.0293,0.04297 0.01286,0.01286 0.03149,0.01717 0.04492,0.0293 0.01217,0.01349 0.01639,0.03201 0.0293,0.04492 0.01291,0.01291 0.03144,0.01712 0.04492,0.0293 0.01217,0.01349 0.01639,0.03201 0.0293,0.04492 0.01309,0.01309 0.03124,0.01892 0.04492,0.03125 0.0124,0.01377 0.01808,0.03175 0.03125,0.04492 0.01317,0.01317 0.03115,0.01885 0.04492,0.03125 0.0124,0.01377 0.01808,0.03175 0.03125,0.04492 0.01317,0.01317 0.03115,0.01885 0.04492,0.03125 0.0124,0.01377 0.01808,0.03175 0.03125,0.04492 0.01351,0.01351 0.03273,0.01855 0.04687,0.03125 0.01275,0.0142 0.01769,0.03331 0.03125,0.04687 0.01356,0.01356 0.03268,0.0185 0.04687,0.03125 0.01275,0.0142 0.01769,0.03331 0.03125,0.04687 0.0146,0.0146 0.03544,0.01954 0.05078,0.0332 0.01214,0.01345 0.01642,0.03205 0.0293,0.04492 0.01392,0.01392 0.03424,0.01819 0.04883,0.03125 0.01306,0.01459 0.01733,0.03491 0.03125,0.04883 0.01392,0.01392 0.03424,0.01819 0.04883,0.03125 0.01306,0.01459 0.01733,0.03491 0.03125,0.04883 0.01353,0.01353 0.03271,0.01853 0.04687,0.03125 0.01366,0.01534 0.0186,0.03618 0.0332,0.05078 0.01416,0.01416 0.03398,0.01993 0.04883,0.0332 0.01332,0.01491 0.01899,0.03461 0.0332,0.04883 0.01451,0.01451 0.03554,0.01962 0.05078,0.0332 0.01358,0.01524 0.01869,0.03627 0.0332,0.05078 0.01526,0.01526 0.03667,0.02093 0.05273,0.03516 0.01272,0.01416 0.01772,0.03335 0.03125,0.04687 0.01457,0.01457 0.03548,0.01958 0.05078,0.0332 0.01363,0.0153 0.01864,0.03621 0.0332,0.05078 0.01418,0.01418 0.03396,0.01992 0.04883,0.0332 0.01423,0.01606 0.0199,0.03748 0.03516,0.05273 0.01455,0.01455 0.0355,0.01959 0.05078,0.0332 0.01423,0.01606 0.0199,0.03748 0.03516,0.05273 0.01591,0.01591 0.03791,0.02232 0.05469,0.03711 0.01329,0.01487 0.01903,0.03465 0.0332,0.04883 0.01418,0.01418 0.03396,0.01992 0.04883,0.0332 0.01479,0.01678 0.0212,0.03878 0.03711,0.05469 0.01526,0.01526 0.03667,0.02093 0.05273,0.03516 0.01423,0.01606 0.0199,0.03748 0.03516,0.05273 0.0163,0.0163 0.03943,0.02199 0.05664,0.03711 0.01363,0.0153 0.01864,0.03621 0.0332,0.05078 0.01457,0.01457 0.03548,0.01958 0.05078,0.0332 0.01512,0.01722 0.02081,0.04034 0.03711,0.05664 0.01646,0.01645 0.03926,0.02381 0.05664,0.03906 0.01385,0.01559 0.02033,0.03595 0.03516,0.05078 0.01522,0.01522 0.03672,0.02097 0.05274,0.03516 0.01512,0.01721 0.02081,0.04034 0.03711,0.05664 0.01591,0.01591 0.03791,0.02232 0.05469,0.03711 0.01479,0.01678 0.0212,0.03878 0.03711,0.05469 0.01695,0.01695 0.04065,0.02338 0.05859,0.03906 0.01419,0.01601 0.01994,0.03752 0.03516,0.05273 0.01522,0.01522 0.03672,0.02096 0.05273,0.03516 0.01568,0.01794 0.02211,0.04164 0.03906,0.05859 0.0163,0.0163 0.03943,0.02199 0.05664,0.03711 0.01512,0.01722 0.02081,0.04034 0.03711,0.05664 0.01689,0.01689 0.04073,0.02344 0.05859,0.03906 0.01475,0.01674 0.02124,0.03882 0.03711,0.05469 0.01652,0.01652 0.03918,0.02375 0.05664,0.03906 0.01531,0.01746 0.02254,0.04012 0.03906,0.05664 0.01626,0.01626 0.03947,0.02202 0.05664,0.03711 0.01595,0.0183 0.02179,0.04327 0.03906,0.06055 0.0176,0.0176 0.04188,0.02479 0.06055,0.04102 0.01475,0.01674 0.02124,0.03882 0.03711,0.05469 0.01691,0.01691 0.0407,0.02342 0.05859,0.03906 0.01564,0.01789 0.02215,0.04169 0.03906,0.05859 0.01652,0.01652 0.03918,0.02375 0.05664,0.03906 0.01617,0.01859 0.02348,0.04301 0.04102,0.06055 0.018,0.018 0.04339,0.02446 0.0625,0.04102 0.01509,0.01717 0.02085,0.04038 0.03711,0.05664 0.01717,0.01717 0.04041,0.02515 0.05859,0.04102 0.01586,0.01818 0.02385,0.04142 0.04102,0.05859 0.01691,0.01691 0.0407,0.02342 0.05859,0.03906 0.01656,0.01911 0.02302,0.04451 0.04101,0.0625 0.0176,0.0176 0.04188,0.02479 0.06055,0.04102 0.01623,0.01867 0.02341,0.04294 0.04102,0.06055 0.0176,0.0176 0.04188,0.02479 0.06055,0.04102 0.01623,0.01867 0.02341,0.04294 0.04102,0.06055 0.01788,0.01788 0.04352,0.02455 0.0625,0.04102 0.01656,0.01911 0.02302,0.0445 0.04102,0.0625 0.01799,0.018 0.04339,0.02446 0.0625,0.04102 0.01656,0.0191 0.02302,0.0445 0.04102,0.0625 0.01865,0.01865 0.04462,0.02586 0.06445,0.04297 0.01619,0.01862 0.02346,0.04299 0.04102,0.06055 0.01756,0.01756 0.04193,0.02482 0.06055,0.04102 0.0171,0.01984 0.02432,0.04581 0.04297,0.06445 0.01897,0.01897 0.04621,0.0256 0.06641,0.04297 0.01652,0.01905 0.02307,0.04455 0.04102,0.0625 0.01756,0.01756 0.04193,0.02482 0.06055,0.04102 0.01765,0.02057 0.02562,0.04711 0.04492,0.06641 0.01865,0.01865 0.04462,0.02586 0.06445,0.04297 0.0171,0.01984 0.02432,0.04581 0.04297,0.06445 0.01865,0.01865 0.04462,0.02586 0.06445,0.04297 0.01711,0.01984 0.02432,0.04581 0.04297,0.06445 0.01857,0.01857 0.0447,0.02593 0.06445,0.04297 0.01765,0.02057 0.02562,0.04711 0.04492,0.06641 0.01904,0.01904 0.04613,0.02554 0.06641,0.04297 0.01743,0.02028 0.02393,0.04737 0.04297,0.06641 0.01969,0.01969 0.04734,0.02695 0.06836,0.04492 0.01706,0.01978 0.02437,0.04585 0.04297,0.06445 0.0186,0.0186 0.04467,0.02591 0.06445,0.04297 0.01797,0.02101 0.02523,0.04867 0.04492,0.06836 0.02026,0.02026 0.04865,0.02844 0.07031,0.04687 0.01706,0.01978 0.02437,0.04585 0.04297,0.06445 0.0186,0.0186 0.04467,0.02591 0.06445,0.04297 0.0185,0.02175 0.02653,0.04997 0.04687,0.07031 0.01969,0.01969 0.04734,0.02695 0.06836,0.04492 0.01797,0.02102 0.02523,0.04867 0.04492,0.06836 0.02034,0.02034 0.04856,0.02837 0.07031,0.04687 0.0176,0.02052 0.02567,0.04716 0.04492,0.06641 0.01925,0.01925 0.04589,0.02732 0.06641,0.04492 0.0185,0.02175 0.02653,0.04997 0.04688,0.07031 0.01961,0.01961 0.04743,0.02702 0.06836,0.04492 0.0185,0.02175 0.02653,0.04997 0.04687,0.07031 0.02026,0.02026 0.04865,0.02844 0.07031,0.04687 0.01844,0.02166 0.02661,0.05005 0.04687,0.07031 0.02099,0.02099 0.04977,0.02979 0.07227,0.04883 0.0176,0.02052 0.02567,0.04716 0.04492,0.06641 0.0199,0.0199 0.04711,0.02873 0.06836,0.04687 0.01903,0.0225 0.02783,0.05127 0.04883,0.07227 0.02099,0.02099 0.04977,0.02979 0.07227,0.04883 0.01814,0.02125 0.02697,0.04846 0.04687,0.06836 0.02055,0.02055 0.04832,0.03015 0.07031,0.04883 0.01867,0.02199 0.02828,0.04976 0.04883,0.07031 0.02029,0.02029 0.04862,0.02841 0.07031,0.04687 0.01935,0.02294 0.02744,0.05283 0.04883,0.07422 0.02099,0.02099 0.04977,0.02979 0.07227,0.04883 0.01897,0.0224 0.02792,0.05135 0.04883,0.07227 0.02099,0.02099 0.04977,0.02979 0.07227,0.04883 0.01904,0.0225 0.02783,0.05127 0.04883,0.07227 0.02204,0.02204 0.05248,0.0309 0.07617,0.05078 0.01846,0.02169 0.02659,0.05002 0.04687,0.07031 0.02133,0.02133 0.05134,0.02952 0.07422,0.04883 0.01931,0.02288 0.0275,0.05289 0.04883,0.07422 0.02094,0.02094 0.04983,0.02984 0.07227,0.04883 0.01976,0.02352 0.02889,0.05428 0.05078,0.07617 0.02204,0.02204 0.05248,0.0309 0.07617,0.05078 0.01899,0.02243 0.02789,0.05132 0.04883,0.07227 0.02159,0.02159 0.05104,0.03126 0.07422,0.05078 0.01952,0.02318 0.02919,0.05263 0.05078,0.07422 0.02094,0.02094 0.04983,0.02984 0.07227,0.04883 0.0204,0.02444 0.03004,0.05543 0.05273,0.07812 0.02204,0.02204 0.05248,0.0309 0.07617,0.05078 0.01976,0.02352 0.02889,0.05428 0.05078,0.07617 0.02204,0.02204 0.05248,0.0309 0.07617,0.05078 0.01988,0.02369 0.02874,0.05413 0.05078,0.07617 0.02269,0.02269 0.05369,0.03234 0.07813,0.05273 0.01952,0.02318 0.02919,0.05263 0.05078,0.07422 0.02224,0.02224 0.05225,0.03269 0.07617,0.05273 0.02004,0.02392 0.03049,0.05393 0.05273,0.07617 0.02198,0.02198 0.05255,0.03095 0.07617,0.05078 0.02064,0.02478 0.02974,0.05709 0.05273,0.08008 0.02308,0.02308 0.05519,0.03202 0.08008,0.05273 0.01983,0.02362 0.0288,0.05419 0.05078,0.07617 0.02263,0.02263 0.05375,0.03238 0.07813,0.05273 0.02035,0.02437 0.0301,0.05549 0.05273,0.07813 0.02198,0.02198 0.05255,0.03095 0.07617,0.05078 0.02122,0.02564 0.03095,0.0583 0.05469,0.08203 0.02308,0.02308 0.05519,0.03203 0.08008,0.05273 0.02071,0.02489 0.02965,0.057 0.05273,0.08008 0.02308,0.02308 0.05519,0.03202 0.08008,0.05273 0.02071,0.02489 0.02965,0.057 0.05273,0.08008 0.02325,0.02325 0.055,0.03384 0.08008,0.05469 0.02084,0.02508 0.03144,0.05683 0.05469,0.08008 0.02373,0.02373 0.05639,0.03346 0.08203,0.05469 0.02064,0.02478 0.02974,0.05709 0.05273,0.08008 0.02334,0.02334 0.05489,0.03377 0.08008,0.05469 0.02092,0.02519 0.03135,0.05674 0.05469,0.08008 0.02364,0.02364 0.0565,0.03354 0.08203,0.05469 0.02122,0.02564 0.03095,0.0583 0.05469,0.08203 0.02373,0.02373 0.05639,0.03346 0.08203,0.05469 0.02122,0.02564 0.03095,0.0583 0.05469,0.08203 0.02438,0.02439 0.05759,0.03491 0.08398,0.05664 0.02087,0.02512 0.03141,0.0568 0.05469,0.08008 0.02393,0.02393 0.05616,0.03526 0.08203,0.05664 0.02138,0.02587 0.03271,0.0581 0.05664,0.08203 0.02367,0.02367 0.05646,0.03351 0.08203,0.05469 0.02197,0.02674 0.03196,0.06126 0.05664,0.08594 0.02478,0.02478 0.05909,0.0346 0.08594,0.05664 0.02117,0.02557 0.03102,0.05836 0.05469,0.08203 0.02432,0.02432 0.05766,0.03495 0.08398,0.05664 0.02169,0.02632 0.03232,0.05966 0.05664,0.08398 0.02367,0.02367 0.05646,0.03351 0.08203,0.05469 0.02255,0.02761 0.03317,0.06246 0.05859,0.08789 0.02478,0.02478 0.05909,0.0346 0.08594,0.05664 0.02197,0.02674 0.03196,0.06126 0.05664,0.08594 0.02478,0.02478 0.05909,0.0346 0.08594,0.05664 0.02204,0.02685 0.03186,0.06116 0.05664,0.08594 0.02543,0.02543 0.06028,0.03605 0.08789,0.05859 0.02169,0.02632 0.03232,0.05966 0.05664,0.08398 0.02497,0.02497 0.05886,0.0364 0.08594,0.05859 0.02219,0.02708 0.03362,0.06096 0.05859,0.08594 0.02471,0.02471 0.05916,0.03465 0.08594,0.05664 0.02277,0.02795 0.03287,0.06412 0.05859,0.08984 0.02608,0.02608 0.06147,0.0375 0.08984,0.06055 0.02169,0.02632 0.03232,0.05966 0.05664,0.08398 0.02536,0.02536 0.06036,0.0361 0.08789,0.05859 0.02249,0.02753 0.03323,0.06253 0.05859,0.08789 0.02497,0.02497 0.05886,0.0364 0.08594,0.05859 0.02305,0.02837 0.03447,0.06376 0.06055,0.08984 0.02582,0.02582 0.06178,0.03575 0.08984,0.05859 0.02285,0.02807 0.03277,0.06402 0.05859,0.08984 0.200039,0.20004 0.471008,0.3125 0.753906,0.3125 h 8.533204 c 0.282897,0 0.55582,-0.11246 0.755859,-0.3125 0.200039,-0.200038 0.310547,-0.471009 0.310547,-0.753906 v -5.333984 c 0,-0.334174 -0.161646,-0.619327 -0.400391,-0.814454 -0.04498,-0.05492 -0.09159,-0.103495 -0.146484,-0.148437 -0.04503,-0.05488 -0.0935,-0.101584 -0.148438,-0.146484 -0.04485,-0.05455 -0.09183,-0.101816 -0.146484,-0.146485 -0.04444,-0.05401 -0.09047,-0.102165 -0.144531,-0.146484 -0.04425,-0.05365 -0.09078,-0.100467 -0.144532,-0.144531 -0.04425,-0.05365 -0.09078,-0.100468 -0.144531,-0.144532 -0.04366,-0.05289 -0.08967,-0.099 -0.142578,-0.142578 -0.04395,-0.05324 -0.09122,-0.09878 -0.144531,-0.142578 -0.04291,-0.05187 -0.08685,-0.09772 -0.138672,-0.140625 -0.04367,-0.05295 -0.08964,-0.09896 -0.142578,-0.142578 -0.04322,-0.05214 -0.08839,-0.09758 -0.140625,-0.140625 -0.04258,-0.05132 -0.08735,-0.09616 -0.138672,-0.138672 -0.04265,-0.05144 -0.08724,-0.09607 -0.138672,-0.138672 -0.04265,-0.05144 -0.08724,-0.09607 -0.138672,-0.138672 -0.04268,-0.05141 -0.08722,-0.09611 -0.138672,-0.138671 -0.04161,-0.04989 -0.08486,-0.09324 -0.134765,-0.134766 -0.04233,-0.05099 -0.08575,-0.09638 -0.136719,-0.138672 -0.04151,-0.04962 -0.08503,-0.09344 -0.134766,-0.134766 -0.04128,-0.04934 -0.08535,-0.09167 -0.134765,-0.132812 -0.04164,-0.04991 -0.08482,-0.09323 -0.134766,-0.134766 -0.0408,-0.04867 -0.08213,-0.09214 -0.130859,-0.132812 -0.04102,-0.04901 -0.08376,-0.09189 -0.132813,-0.132813 -0.04053,-0.04824 -0.08252,-0.09049 -0.130859,-0.130859 -0.04053,-0.04824 -0.08252,-0.09049 -0.13086,-0.13086 -0.03989,-0.04744 -0.08146,-0.08908 -0.128906,-0.128906 -0.03995,-0.04755 -0.08137,-0.089 -0.128906,-0.128906 -0.04019,-0.04782 -0.08105,-0.09077 -0.128906,-0.130859 -0.03961,-0.04696 -0.08188,-0.08747 -0.128907,-0.126953 -0.03949,-0.04675 -0.08011,-0.08763 -0.126953,-0.126954 -0.03907,-0.04623 -0.07872,-0.08798 -0.125,-0.126953 -0.03944,-0.04655 -0.0802,-0.08779 -0.126953,-0.126953 -0.03767,-0.04431 -0.07677,-0.08349 -0.121094,-0.121094 -0.03874,-0.04597 -0.07914,-0.08619 -0.125,-0.125 -0.03827,-0.04517 -0.07788,-0.08482 -0.123046,-0.123046 -0.03862,-0.04558 -0.07936,-0.08454 -0.125,-0.123047 -0.03802,-0.04475 -0.07629,-0.08513 -0.121094,-0.123047 -0.03773,-0.04428 -0.07671,-0.08353 -0.121094,-0.121094 -0.0372,-0.04365 -0.07547,-0.08201 -0.119141,-0.119141 -0.03721,-0.04369 -0.07545,-0.08197 -0.11914,-0.11914 -0.03744,-0.04397 -0.07514,-0.08374 -0.119141,-0.121094 -0.03686,-0.04312 -0.07595,-0.08045 -0.11914,-0.117187 -0.03673,-0.04291 -0.07419,-0.08061 -0.117188,-0.117188 -0.03691,-0.04309 -0.07396,-0.08244 -0.117188,-0.119141 -0.03524,-0.0409 -0.07231,-0.07621 -0.113281,-0.111328 -0.03628,-0.04256 -0.07279,-0.08082 -0.115234,-0.117187 -0.03585,-0.04175 -0.07343,-0.07753 -0.115235,-0.113282 -0.0358,-0.04178 -0.07152,-0.07945 -0.113281,-0.115234 -0.03552,-0.04132 -0.07193,-0.07785 -0.113281,-0.113281 -0.0356,-0.04125 -0.07185,-0.07793 -0.113281,-0.113281 -0.0338,-0.03902 -0.06838,-0.07368 -0.107422,-0.107422 -0.0355,-0.04134 -0.07194,-0.07782 -0.113281,-0.113282 -0.0344,-0.03984 -0.06952,-0.07503 -0.109375,-0.109374 -0.03436,-0.03979 -0.06958,-0.07507 -0.109375,-0.109376 -0.03443,-0.03986 -0.06948,-0.07502 -0.109375,-0.109374 -0.03387,-0.03901 -0.06831,-0.0737 -0.107422,-0.107422 -0.03332,-0.03838 -0.06707,-0.07221 -0.105469,-0.105469 -0.03392,-0.0391 -0.06823,-0.07363 -0.107422,-0.107422 -0.03299,-0.03799 -0.06554,-0.0725 -0.103516,-0.105469 -0.03327,-0.03823 -0.06715,-0.07233 -0.105468,-0.105468 -0.03266,-0.03751 -0.06598,-0.07091 -0.103516,-0.103516 -0.03302,-0.03792 -0.06748,-0.07061 -0.105469,-0.103516 -0.0316,-0.03612 -0.06347,-0.06806 -0.09961,-0.09961 -0.03303,-0.03805 -0.06549,-0.07245 -0.103516,-0.105469 -0.03159,-0.03608 -0.06349,-0.06808 -0.09961,-0.09961 -0.03158,-0.0361 -0.0635,-0.06807 -0.09961,-0.09961 -0.03182,-0.03638 -0.0632,-0.06982 -0.09961,-0.101562 -0.03182,-0.03625 -0.06517,-0.06798 -0.101562,-0.09961 -0.03079,-0.0349 -0.06261,-0.0651 -0.09766,-0.0957 -0.03014,-0.03427 -0.05951,-0.06556 -0.09375,-0.0957 -0.03117,-0.03561 -0.06208,-0.06843 -0.09766,-0.09961 -0.03041,-0.03448 -0.06114,-0.06542 -0.0957,-0.0957 -0.03017,-0.03421 -0.06144,-0.06367 -0.0957,-0.09375 -0.03012,-0.03423 -0.05953,-0.06559 -0.09375,-0.0957 -0.02982,-0.03378 -0.05993,-0.06399 -0.09375,-0.09375 -0.02965,-0.03345 -0.06017,-0.06231 -0.09375,-0.0918 -0.02965,-0.03353 -0.05821,-0.06419 -0.0918,-0.09375 -0.0287,-0.03235 -0.05746,-0.0612 -0.08984,-0.08984 -0.02965,-0.03345 -0.06017,-0.06231 -0.09375,-0.0918 -0.02759,-0.03095 -0.05496,-0.05839 -0.08594,-0.08594 -0.029,-0.03282 -0.05706,-0.06278 -0.08984,-0.0918 -0.0287,-0.03235 -0.05746,-0.0612 -0.08984,-0.08984 -0.02816,-0.03159 -0.05621,-0.05985 -0.08789,-0.08789 -0.02691,-0.03011 -0.05386,-0.05711 -0.08398,-0.08398 -0.0281,-0.03167 -0.05626,-0.05977 -0.08789,-0.08789 -0.02721,-0.03052 -0.05348,-0.05873 -0.08398,-0.08594 -0.02725,-0.0305 -0.05539,-0.05681 -0.08594,-0.08398 -0.02704,-0.03019 -0.05371,-0.05705 -0.08398,-0.08398 -0.02764,-0.03087 -0.05492,-0.05848 -0.08594,-0.08594 -0.02585,-0.02862 -0.05131,-0.05441 -0.08008,-0.08008 -0.02541,-0.02829 -0.04986,-0.05466 -0.07813,-0.08008 -0.02629,-0.02942 -0.05267,-0.0557 -0.08203,-0.08203 -0.02576,-0.02868 -0.05139,-0.05435 -0.08008,-0.08008 -0.02576,-0.02868 -0.05139,-0.05435 -0.08008,-0.08008 -0.02576,-0.02866 -0.05139,-0.05436 -0.08008,-0.08008 -0.02518,-0.02788 -0.05017,-0.05305 -0.07813,-0.07813 -0.02487,-0.02752 -0.0486,-0.05333 -0.07617,-0.07813 -0.02449,-0.02704 -0.04906,-0.05178 -0.07617,-0.07617 -0.02486,-0.02744 -0.05057,-0.05146 -0.07812,-0.07617 -0.02279,-0.02503 -0.04526,-0.04755 -0.07031,-0.07031 -0.02576,-0.02866 -0.05139,-0.05436 -0.08008,-0.08008 -0.02224,-0.02431 -0.04398,-0.04621 -0.06836,-0.06836 -0.02421,-0.0268 -0.04744,-0.05195 -0.07422,-0.07617 -0.02334,-0.02564 -0.04656,-0.04902 -0.07227,-0.07227 -0.02278,-0.02501 -0.04528,-0.04757 -0.07031,-0.07031 -0.0231,-0.02537 -0.04685,-0.04728 -0.07227,-0.07031 -0.02313,-0.02534 -0.04487,-0.04926 -0.07031,-0.07227 -0.0213,-0.02321 -0.04315,-0.04322 -0.06641,-0.06445 -0.02372,-0.02612 -0.0461,-0.05057 -0.07227,-0.07422 -0.02038,-0.02209 -0.04034,-0.0422 -0.0625,-0.0625 -0.02237,-0.02457 -0.04381,-0.04793 -0.06836,-0.07031 -0.02149,-0.02341 -0.04293,-0.045 -0.06641,-0.06641 -0.02129,-0.02319 -0.04316,-0.04323 -0.06641,-0.06445 -0.02069,-0.02249 -0.03998,-0.04382 -0.0625,-0.06445 -0.02092,-0.02279 -0.04164,-0.04356 -0.06445,-0.06445 -0.02036,-0.02208 -0.04036,-0.04221 -0.0625,-0.0625 -0.02036,-0.02208 -0.04036,-0.04221 -0.0625,-0.0625 -0.02073,-0.02248 -0.04189,-0.04188 -0.06445,-0.0625 -0.0192,-0.02071 -0.03782,-0.03947 -0.05859,-0.05859 -0.01915,-0.02076 -0.03787,-0.03942 -0.05859,-0.05859 -0.02005,-0.02179 -0.03877,-0.04244 -0.06055,-0.0625 -0.01919,-0.0207 -0.03784,-0.03948 -0.05859,-0.05859 -0.01919,-0.0207 -0.03784,-0.03948 -0.05859,-0.05859 -0.01858,-0.02003 -0.0366,-0.03809 -0.05664,-0.05664 -0.01857,-0.02003 -0.0366,-0.0381 -0.05664,-0.05664 -0.01825,-0.01959 -0.03502,-0.03848 -0.05469,-0.05664 -0.01824,-0.0196 -0.03699,-0.03651 -0.05664,-0.05469 -0.01764,-0.01892 -0.03378,-0.03709 -0.05273,-0.05469 -0.0173,-0.01851 -0.03418,-0.0355 -0.05273,-0.05273 -0.0173,-0.01851 -0.03418,-0.0355 -0.05273,-0.05273 -0.0173,-0.01851 -0.03418,-0.0355 -0.05273,-0.05273 -0.01668,-0.01784 -0.03293,-0.03413 -0.05078,-0.05078 -0.01668,-0.01784 -0.03293,-0.03413 -0.05078,-0.05078 -0.0161,-0.01714 -0.03164,-0.03279 -0.04883,-0.04883 -0.0173,-0.0185 -0.03417,-0.03551 -0.05273,-0.05273 -0.01419,-0.01498 -0.02794,-0.02883 -0.04297,-0.04297 -0.01628,-0.01741 -0.03143,-0.0345 -0.04883,-0.05078 -0.01539,-0.01633 -0.0305,-0.03155 -0.04687,-0.04687 -0.01511,-0.01603 -0.03081,-0.02986 -0.04687,-0.04492 -0.0149,-0.01578 -0.02909,-0.03008 -0.04492,-0.04492 -0.0149,-0.01578 -0.02909,-0.03008 -0.04492,-0.04492 -0.0145,-0.01536 -0.02759,-0.03045 -0.04297,-0.04492 -0.01418,-0.01497 -0.02795,-0.02884 -0.04297,-0.04297 -0.01478,-0.0156 -0.02924,-0.03024 -0.04492,-0.04492 -0.01225,-0.01283 -0.02424,-0.0249 -0.03711,-0.03711 -0.01414,-0.015 -0.02799,-0.02881 -0.04297,-0.04297 -0.01297,-0.01363 -0.02539,-0.02614 -0.03906,-0.03906 -0.01356,-0.01431 -0.02669,-0.02747 -0.04102,-0.04102 -0.0126,-0.01323 -0.02385,-0.02649 -0.03711,-0.03906 -0.01225,-0.01282 -0.02425,-0.02491 -0.03711,-0.03711 -0.01225,-0.01282 -0.02425,-0.02491 -0.03711,-0.03711 -0.01225,-0.01282 -0.02425,-0.02491 -0.03711,-0.03711 -0.01199,-0.01256 -0.02452,-0.0232 -0.03711,-0.03516 -0.01138,-0.01189 -0.02129,-0.0238 -0.0332,-0.03516 -0.0114,-0.01188 -0.02323,-0.02187 -0.03516,-0.0332 -0.01138,-0.01189 -0.02129,-0.0238 -0.0332,-0.03516 -0.01039,-0.01083 -0.02041,-0.02087 -0.03125,-0.03125 -0.0104,-0.01084 -0.02041,-0.02086 -0.03125,-0.03125 -0.0104,-0.01084 -0.02041,-0.02086 -0.03125,-0.03125 -0.0114,-0.01188 -0.02323,-0.02186 -0.03516,-0.0332 -0.0092,-0.0095 -0.0178,-0.0182 -0.02734,-0.02734 -0.0088,-0.0091 -0.01628,-0.01854 -0.02539,-0.02734 -0.01002,-0.01045 -0.01886,-0.02122 -0.0293,-0.03125 -0.0091,-0.0094 -0.01795,-0.01832 -0.02734,-0.02734 -0.0091,-0.0094 -0.01795,-0.01832 -0.02734,-0.02734 -0.0088,-0.0091 -0.01823,-0.01661 -0.02734,-0.02539 -0.0085,-0.0088 -0.01655,-0.01688 -0.02539,-0.02539 -0.0082,-0.0084 -0.01498,-0.01723 -0.02344,-0.02539 -0.0078,-0.008 -0.01539,-0.01566 -0.02344,-0.02344 -0.0078,-0.008 -0.01539,-0.01566 -0.02344,-0.02344 -0.0076,-0.0078 -0.01564,-0.01394 -0.02344,-0.02148 -0.0069,-0.0071 -0.0124,-0.01456 -0.01953,-0.02148 -0.0072,-0.0074 -0.01409,-0.01431 -0.02148,-0.02148 -0.0066,-0.0067 -0.0128,-0.01299 -0.01953,-0.01953 -0.0066,-0.0067 -0.01278,-0.01298 -0.01953,-0.01953 -0.0062,-0.0063 -0.01123,-0.01335 -0.01758,-0.01953 -0.0058,-0.0059 -0.01161,-0.01177 -0.01758,-0.01758 -0.0058,-0.0059 -0.01161,-0.01177 -0.01758,-0.01758 -0.0056,-0.0057 -0.01188,-0.01007 -0.01758,-0.01563 -0.0053,-0.0054 -0.01019,-0.01032 -0.01563,-0.01563 -0.0049,-0.005 -0.0086,-0.01069 -0.01367,-0.01563 -0.0046,-0.0046 -0.009,-0.0091 -0.01367,-0.01367 -0.0046,-0.0046 -0.009,-0.0091 -0.01367,-0.01367 -0.0043,-0.0044 -0.0093,-0.0074 -0.01367,-0.01172 -0.0041,-0.0041 -0.0076,-0.0077 -0.01172,-0.01172 -0.0037,-0.0037 -0.006,-0.008 -0.0098,-0.01172 -0.0043,-0.0044 -0.0093,-0.0074 -0.01367,-0.01172 -10e-4,-0.001 -0.0029,-0.0048 -0.0039,-0.0059 -0.0039,-0.004 -0.0077,-0.0078 -0.01172,-0.01172 -0.0029,-0.003 -0.0049,-0.0068 -0.0078,-0.0098 -0.0023,-0.0023 -0.0055,-0.0036 -0.0078,-0.0059 -0.0024,-0.0025 -0.0073,-0.0054 -0.0098,-0.0078 0,0 0,-0.002 0,-0.002 -0.0027,-0.0027 -0.0051,-0.0051 -0.0078,-0.0078 -0.001,-10e-4 -0.0029,-0.0048 -0.0039,-0.0059 0,0 -0.002,-0.002 -0.002,-0.002 0,0 -0.002,-0.002 -0.002,-0.002 0,0 -0.002,-0.002 -0.002,-0.002 0,0 -0.002,0 -0.002,0 0,0 0,-0.002 0,-0.002 0,0 -0.002,0 -0.002,0 0,0 0,-0.002 0,-0.002 -3.83e-4,-3.82e-4 -0.0016,3.81e-4 -0.002,0 -0.0647,-0.06448 -0.147185,-0.106116 -0.226562,-0.152344 -0.03829,-0.02227 -0.07023,-0.05872 -0.111328,-0.07617 -0.1275,-0.05375 -0.267396,-0.08398 -0.414063,-0.08398 H 14 l -0.02344,-0.02344 -0.03906,-0.03906 -0.03906,-0.03906 -0.03711,-0.03711 -0.03711,-0.03711 -0.03516,-0.03516 -0.03516,-0.03516 -0.03516,-0.03516 -0.0332,-0.0332 -0.0332,-0.0332 -0.0332,-0.0332 -0.03125,-0.03125 -0.03125,-0.03125 -0.0293,-0.0293 -0.0293,-0.0293 -0.0293,-0.0293 -0.02734,-0.02734 -0.02734,-0.02734 -0.02539,-0.02539 -0.02539,-0.02539 -0.02539,-0.02539 -0.02344,-0.02344 -0.02344,-0.02344 -0.02344,-0.02344 -0.02148,-0.02148 -0.02149,-0.02149 -0.02148,-0.02148 -0.01953,-0.01953 -0.01758,-0.01758 -0.01953,-0.01953 -0.01758,-0.01758 -0.01563,-0.01563 -0.01563,-0.01563 -0.01563,-0.01563 -0.01367,-0.01563 h -0.002 l -0.01367,-0.01367 -0.01172,-0.01172 -0.01172,-0.01172 -0.01172,-0.01172 -0.01172,-0.01172 -0.0098,-0.0098 -0.0098,-0.0098 -0.0078,-0.0078 -0.0078,-0.0078 -0.0078,-0.0078 -0.0059,-0.0059 -0.0059,-0.0059 -0.0039,-0.0039 -0.0039,-0.0039 -0.0039,-0.0039 -0.002,-0.002 -0.002,-0.002 -0.002,-0.002 z"
       transform="matrix(0.93749998,0,0,0.93749998,-4.6875444,-4.6874903)"
       id="path2709"
       clip-path="url(#clipPath3631)"
       inkscape:connector-curvature="0" />
    <path
       style="fill:#f5f5f5"
       id="path4219"
       d="m 7.437522,8.7833282 h -3 c -0.555,0 -1,0.445 -1,1 v 5.9999998 a 1,1 0 0 0 1,1 h 8 a 1,1 0 0 0 1,-1 v -5 c 0,-0.555 -0.45,-0.9999998 -1,-0.9999998 h -4 z"
       inkscape:connector-curvature="0"
       clip-path="url(#clipPath3627)" />
    <path
       inkscape:connector-curvature="0"
       d="m 21.500022,22.845828 h -3 c -0.555,0 -1,0.445 -1,1 v 6 a 1,1 0 0 0 1,1 h 8 a 1,1 0 0 0 1,-1 v -5 c 0,-0.555 -0.45,-1 -1,-1 h -4 z"
       id="path1785"
       style="fill:#212121"
       clip-path="url(#clipPath3595)" />
  </g>
</svg>
