<?xml version="1.0" encoding="UTF-8" standalone="no"?>
<!-- Created with Inkscape (http://www.inkscape.org/) -->

<svg
   xmlns:dc="http://purl.org/dc/elements/1.1/"
   xmlns:cc="http://creativecommons.org/ns#"
   xmlns:rdf="http://www.w3.org/1999/02/22-rdf-syntax-ns#"
   xmlns:svg="http://www.w3.org/2000/svg"
   xmlns="http://www.w3.org/2000/svg"
   xmlns:sodipodi="http://sodipodi.sourceforge.net/DTD/sodipodi-0.dtd"
   xmlns:inkscape="http://www.inkscape.org/namespaces/inkscape"
   sodipodi:docname="einstellungen.svg"
   inkscape:version="0.92.2 (5c3e80d, 2017-08-06)"
   version="1.1"
   id="svg2"
   viewBox="0 0 28.125 28.125"
   height="30"
   width="30"
   inkscape:export-filename="/home/juergen/Desktop/ic_launcher_settings.png"
   inkscape:export-xdpi="460.79999"
   inkscape:export-ydpi="460.79999">
  <sodipodi:namedview
     inkscape:snap-to-guides="true"
     inkscape:snap-grids="true"
     inkscape:window-maximized="1"
     inkscape:window-y="33"
     inkscape:window-x="0"
     inkscape:window-height="699"
     inkscape:window-width="1366"
     inkscape:guide-bbox="true"
     showguides="false"
     fit-margin-bottom="5"
     fit-margin-right="5"
     fit-margin-left="5"
     fit-margin-top="5"
     showgrid="true"
     inkscape:current-layer="layer2"
     inkscape:document-units="px"
     inkscape:cy="3.5934811"
     inkscape:cx="12.742422"
     inkscape:zoom="11.2"
     inkscape:pageshadow="2"
     inkscape:pageopacity="0.0"
     borderopacity="1.0"
     bordercolor="#666666"
     pagecolor="#ffffff"
     id="base"
     units="px">
    <inkscape:grid
       originy="22.500001"
       originx="10.3125"
       id="grid4138"
       type="xygrid" />
    <sodipodi:guide
       inkscape:locked="false"
       id="guide4140"
       orientation="0,1"
       position="15.624978,24.845829" />
    <sodipodi:guide
       inkscape:locked="false"
       id="guide4142"
       orientation="0,1"
       position="15.624978,8.8458282" />
    <sodipodi:guide
       inkscape:locked="false"
       id="guide4144"
       orientation="1,0"
       position="7.624978,16.845829" />
    <sodipodi:guide
       inkscape:locked="false"
       id="guide4146"
       orientation="0,20"
       position="5.6249779,6.8458281" />
    <sodipodi:guide
       inkscape:locked="false"
       id="guide4148"
       orientation="-20,0"
       position="25.624978,6.8458281" />
    <sodipodi:guide
       inkscape:locked="false"
       id="guide4150"
       orientation="0,-20"
       position="25.624978,26.845829" />
    <sodipodi:guide
       inkscape:locked="false"
       id="guide4152"
       orientation="20,0"
       position="5.6249779,26.845829" />
    <sodipodi:guide
       inkscape:locked="false"
       id="guide4154"
       orientation="1,0"
       position="23.624978,16.845829" />
    <sodipodi:guide
       inkscape:locked="false"
       id="guide4156"
       orientation="-0.70710678,0.70710678"
       position="15.624978,16.845829" />
    <sodipodi:guide
       inkscape:locked="false"
       id="guide4158"
       orientation="0.70710678,0.70710678"
       position="15.624978,16.845829" />
    <sodipodi:guide
       inkscape:locked="false"
       id="guide4160"
       orientation="1,0"
       position="9.6249781,16.845829" />
    <sodipodi:guide
       inkscape:locked="false"
       id="guide4162"
       orientation="1,0"
       position="21.624978,16.845829" />
    <sodipodi:guide
       inkscape:locked="false"
       id="guide4164"
       orientation="0,1"
       position="15.624978,22.845829" />
    <sodipodi:guide
       inkscape:locked="false"
       id="guide4166"
       orientation="0,1"
       position="15.624978,10.845828" />
    <sodipodi:guide
       inkscape:locked="false"
       id="guide4168"
       orientation="0,1"
       position="15.624978,21.845829" />
    <sodipodi:guide
       inkscape:locked="false"
       id="guide4170"
       orientation="0,1"
       position="15.624978,11.845828" />
    <sodipodi:guide
       inkscape:locked="false"
       id="guide4172"
       orientation="1,0"
       position="10.624978,16.845829" />
    <sodipodi:guide
       inkscape:locked="false"
       id="guide4174"
       orientation="1,0"
       position="20.624978,16.845829" />
  </sodipodi:namedview>
  <defs
     id="defs4">
    <clipPath
       clipPathUnits="userSpaceOnUse"
       id="clipPath12478">
      <circle
         style="opacity:1;fill:#2196f3;fill-opacity:1;stroke:none;stroke-width:0.05069799;stroke-miterlimit:4;stroke-dasharray:none;stroke-opacity:1"
         id="circle12480"
         cx="9.9999781"
         cy="10.000005"
         r="10" />
    </clipPath>
    <clipPath
       id="clipPath5790"
       clipPathUnits="userSpaceOnUse">
      <circle
         inkscape:export-ydpi="648"
         inkscape:export-xdpi="648"
         inkscape:export-filename="/home/juergen/path4136.png"
         style="opacity:1;fill:#2196f3;fill-opacity:1;stroke:none;stroke-width:0.05069799;stroke-miterlimit:4;stroke-dasharray:none;stroke-opacity:1"
         id="circle5792"
         cx="9.9999781"
         cy="10.000005"
         r="10" />
    </clipPath>
    <clipPath
       clipPathUnits="userSpaceOnUse"
       id="clipPath7690">
      <circle
         inkscape:export-ydpi="648"
         inkscape:export-xdpi="648"
         inkscape:export-filename="/home/juergen/Schreibtisch/path4136.png"
         style="opacity:1;fill:#2196f3;fill-opacity:1;stroke:none;stroke-width:0.05069799;stroke-miterlimit:4;stroke-dasharray:none;stroke-opacity:1"
         id="circle7692"
         cx="9.9999781"
         cy="10.000005"
         r="10" />
    </clipPath>
    <clipPath
       id="clipPath5119"
       clipPathUnits="userSpaceOnUse">
      <circle
         inkscape:export-ydpi="648"
         inkscape:export-xdpi="648"
         inkscape:export-filename="/home/juergen/Schreibtisch/path4136.png"
         style="opacity:1;fill:#ff9800;fill-opacity:1;stroke:none;stroke-width:0.05069799;stroke-miterlimit:4;stroke-dasharray:none;stroke-opacity:1"
         id="circle5121"
         cx="9.9999781"
         cy="10.000005"
         r="10" />
    </clipPath>
    <clipPath
       clipPathUnits="userSpaceOnUse"
       id="clipPath3591">
      <rect
         inkscape:export-ydpi="691.20001"
         inkscape:export-xdpi="691.20001"
         inkscape:export-filename="/home/juergen/Desktop/ic_launcher.png"
         style="fill:#ea80fc;fill-opacity:0.95685281;stroke:none;stroke-width:5.75974274;stroke-miterlimit:4;stroke-dasharray:none;stroke-opacity:1"
         id="rect3593"
         width="20"
         height="20"
         x="4.000071"
         y="8.63554" />
    </clipPath>
    <clipPath
       clipPathUnits="userSpaceOnUse"
       id="clipPath3595">
      <rect
         inkscape:export-ydpi="691.20001"
         inkscape:export-xdpi="691.20001"
         inkscape:export-filename="/home/juergen/Desktop/ic_launcher.png"
         style="fill:#ea80fc;fill-opacity:0.95685281;stroke:none;stroke-width:5.39975882;stroke-miterlimit:4;stroke-dasharray:none;stroke-opacity:1"
         id="rect3597"
         width="18.75"
         height="18.75"
         x="-0.93747789"
         y="3.4083283" />
    </clipPath>
    <clipPath
       clipPathUnits="userSpaceOnUse"
       id="clipPath3599">
      <rect
         inkscape:export-ydpi="691.20001"
         inkscape:export-xdpi="691.20001"
         inkscape:export-filename="/home/juergen/Desktop/ic_launcher.png"
         style="fill:#ea80fc;fill-opacity:0.95685281;stroke:none;stroke-width:5.39975882;stroke-miterlimit:4;stroke-dasharray:none;stroke-opacity:1"
         id="rect3601"
         width="18.75"
         height="18.75"
         x="-0.93747789"
         y="3.4083283" />
    </clipPath>
    <clipPath
       clipPathUnits="userSpaceOnUse"
       id="clipPath3603">
      <rect
         inkscape:export-ydpi="691.20001"
         inkscape:export-xdpi="691.20001"
         inkscape:export-filename="/home/juergen/Desktop/ic_launcher.png"
         style="fill:#ea80fc;fill-opacity:0.95685281;stroke:none;stroke-width:5.39975882;stroke-miterlimit:4;stroke-dasharray:none;stroke-opacity:1"
         id="rect3605"
         width="18.75"
         height="18.75"
         x="-0.93747789"
         y="3.4083283" />
    </clipPath>
    <clipPath
       clipPathUnits="userSpaceOnUse"
       id="clipPath3617">
      <rect
         ry="0.93749899"
         inkscape:export-ydpi="691.20001"
         inkscape:export-xdpi="691.20001"
         inkscape:export-filename="/home/juergen/Desktop/ic_launcher.png"
         style="fill:#8bc34a;fill-opacity:0.95685281;stroke:none;stroke-width:5.39975882;stroke-miterlimit:4;stroke-dasharray:none;stroke-opacity:1"
         id="rect3619"
         width="18.75"
         height="18.75"
         x="-0.93747789"
         y="3.4083283" />
    </clipPath>
    <clipPath
       clipPathUnits="userSpaceOnUse"
       id="clipPath3621">
      <rect
         ry="0.99999893"
         inkscape:export-ydpi="691.20001"
         inkscape:export-xdpi="691.20001"
         inkscape:export-filename="/home/juergen/Desktop/ic_launcher.png"
         style="fill:#8bc34a;fill-opacity:0.95685281;stroke:none;stroke-width:5.75974274;stroke-miterlimit:4;stroke-dasharray:none;stroke-opacity:1"
         id="rect3623"
         width="20"
         height="20"
         x="4.000071"
         y="8.63554" />
    </clipPath>
    <clipPath
       clipPathUnits="userSpaceOnUse"
       id="clipPath3627">
      <rect
         ry="1.874999"
         inkscape:export-ydpi="691.20001"
         inkscape:export-xdpi="691.20001"
         inkscape:export-filename="/home/juergen/Desktop/ic_launcher.png"
         style="fill:#8bc34a;fill-opacity:0.95685281;stroke:none;stroke-width:5.39975882;stroke-miterlimit:4;stroke-dasharray:none;stroke-opacity:1"
         id="rect3629"
         width="18.75"
         height="18.75"
         x="-0.93747789"
         y="3.4083283" />
    </clipPath>
    <clipPath
       clipPathUnits="userSpaceOnUse"
       id="clipPath3631">
      <rect
         ry="1.9999989"
         inkscape:export-ydpi="691.20001"
         inkscape:export-xdpi="691.20001"
         inkscape:export-filename="/home/juergen/Desktop/ic_launcher.png"
         style="fill:#8bc34a;fill-opacity:0.95685281;stroke:none;stroke-width:5.75974274;stroke-miterlimit:4;stroke-dasharray:none;stroke-opacity:1"
         id="rect3633"
         width="20"
         height="20"
         x="4.000071"
         y="8.63554" />
    </clipPath>
    <clipPath
       id="clipPath1792"
       clipPathUnits="userSpaceOnUse">
      <rect
         ry="1.874999"
         inkscape:export-ydpi="691.20001"
         inkscape:export-xdpi="691.20001"
         inkscape:export-filename="/home/juergen/Desktop/ic_launcher.png"
         style="fill:#009688;fill-opacity:0.95685281;stroke:none;stroke-width:5.39975882;stroke-miterlimit:4;stroke-dasharray:none;stroke-opacity:1"
         id="rect1794"
         width="18.75"
         height="18.75"
         x="-0.93747789"
         y="3.4083283" />
    </clipPath>
    <clipPath
       id="clipPath1796"
       clipPathUnits="userSpaceOnUse">
      <rect
         ry="1.874999"
         inkscape:export-ydpi="691.20001"
         inkscape:export-xdpi="691.20001"
         inkscape:export-filename="/home/juergen/Desktop/ic_launcher.png"
         style="fill:#009688;fill-opacity:0.95685281;stroke:none;stroke-width:5.39975882;stroke-miterlimit:4;stroke-dasharray:none;stroke-opacity:1"
         id="rect1798"
         width="18.75"
         height="18.75"
         x="-0.93747789"
         y="3.4083283" />
    </clipPath>
    <clipPath
       id="clipPath1800"
       clipPathUnits="userSpaceOnUse">
      <rect
         ry="1.9999989"
         inkscape:export-ydpi="691.20001"
         inkscape:export-xdpi="691.20001"
         inkscape:export-filename="/home/juergen/Desktop/ic_launcher.png"
         style="fill:#009688;fill-opacity:0.95685281;stroke:none;stroke-width:5.75974274;stroke-miterlimit:4;stroke-dasharray:none;stroke-opacity:1"
         id="rect1802"
         width="20"
         height="20"
         x="1"
         y="1" />
    </clipPath>
    <clipPath
       clipPathUnits="userSpaceOnUse"
       id="clipPath2828">
      <rect
         ry="1.9999989"
         inkscape:export-ydpi="691.20001"
         inkscape:export-xdpi="691.20001"
         inkscape:export-filename="/home/juergen/Desktop/ic_launcher.png"
         style="fill:#009688;fill-opacity:0.95685281;stroke:none;stroke-width:5.75974274;stroke-miterlimit:4;stroke-dasharray:none;stroke-opacity:1"
         id="rect2830"
         width="20"
         height="20"
         x="1"
         y="1" />
    </clipPath>
    <clipPath
       clipPathUnits="userSpaceOnUse"
       id="clipPath2832">
      <rect
         ry="1.874999"
         inkscape:export-ydpi="691.20001"
         inkscape:export-xdpi="691.20001"
         inkscape:export-filename="/home/juergen/Desktop/ic_launcher.png"
         style="fill:#009688;fill-opacity:0.95685281;stroke:none;stroke-width:5.39975882;stroke-miterlimit:4;stroke-dasharray:none;stroke-opacity:1"
         id="rect2834"
         width="18.75"
         height="18.75"
         x="-0.93747789"
         y="3.4083283" />
    </clipPath>
    <clipPath
       clipPathUnits="userSpaceOnUse"
       id="clipPath2836">
      <rect
         ry="1.874999"
         inkscape:export-ydpi="691.20001"
         inkscape:export-xdpi="691.20001"
         inkscape:export-filename="/home/juergen/Desktop/ic_launcher.png"
         style="fill:#009688;fill-opacity:0.95685281;stroke:none;stroke-width:5.39975882;stroke-miterlimit:4;stroke-dasharray:none;stroke-opacity:1"
         id="rect2838"
         width="18.75"
         height="18.75"
         x="-0.93747789"
         y="3.4083283" />
    </clipPath>
    <clipPath
       id="clipPath3589"
       clipPathUnits="userSpaceOnUse">
      <rect
         ry="1.874999"
         inkscape:export-ydpi="691.20001"
         inkscape:export-xdpi="691.20001"
         inkscape:export-filename="/home/juergen/Desktop/ic_launcher.png"
         style="fill:#607d8b;fill-opacity:0.95685281;stroke:none;stroke-width:5.39975882;stroke-miterlimit:4;stroke-dasharray:none;stroke-opacity:1"
         id="rect3591"
         width="18.75"
         height="18.75"
         x="-0.93747789"
         y="3.4083283" />
    </clipPath>
    <clipPath
       id="clipPath3593"
       clipPathUnits="userSpaceOnUse">
      <rect
         ry="1.874999"
         inkscape:export-ydpi="691.20001"
         inkscape:export-xdpi="691.20001"
         inkscape:export-filename="/home/juergen/Desktop/ic_launcher.png"
         style="fill:#607d8b;fill-opacity:0.95685281;stroke:none;stroke-width:5.39975882;stroke-miterlimit:4;stroke-dasharray:none;stroke-opacity:1"
         id="rect3595"
         width="18.75"
         height="18.75"
         x="-0.93747789"
         y="3.4083283" />
    </clipPath>
    <clipPath
       id="clipPath3597"
       clipPathUnits="userSpaceOnUse">
      <rect
         ry="1.874999"
         inkscape:export-ydpi="691.20001"
         inkscape:export-xdpi="691.20001"
         inkscape:export-filename="/home/juergen/Desktop/ic_launcher.png"
         style="fill:#607d8b;fill-opacity:0.95685281;stroke:none;stroke-width:5.39975882;stroke-miterlimit:4;stroke-dasharray:none;stroke-opacity:1"
         id="rect3599"
         width="18.75"
         height="18.75"
         x="-0.93747789"
         y="3.4083283" />
    </clipPath>
    <clipPath
       clipPathUnits="userSpaceOnUse"
       id="clipPath2042">
      <rect
         ry="1.9999989"
         inkscape:export-ydpi="691.20001"
         inkscape:export-xdpi="691.20001"
         inkscape:export-filename="/home/juergen/Desktop/ic_launcher.png"
         style="fill:#607d8b;fill-opacity:0.99746189;stroke:none;stroke-width:5.75974274;stroke-miterlimit:4;stroke-dasharray:none;stroke-opacity:1"
         id="rect2044"
         width="20"
         height="20"
         x="5"
         y="5" />
    </clipPath>
    <clipPath
       clipPathUnits="userSpaceOnUse"
       id="clipPath2046">
      <rect
         ry="1.874999"
         inkscape:export-ydpi="691.20001"
         inkscape:export-xdpi="691.20001"
         inkscape:export-filename="/home/juergen/Desktop/ic_launcher.png"
         style="fill:#607d8b;fill-opacity:0.99746189;stroke:none;stroke-width:5.39975882;stroke-miterlimit:4;stroke-dasharray:none;stroke-opacity:1"
         id="rect2048"
         width="18.75"
         height="18.75"
         x="-0.93747789"
         y="3.4083283" />
    </clipPath>
    <clipPath
       clipPathUnits="userSpaceOnUse"
       id="clipPath2050">
      <rect
         ry="1.874999"
         inkscape:export-ydpi="691.20001"
         inkscape:export-xdpi="691.20001"
         inkscape:export-filename="/home/juergen/Desktop/ic_launcher.png"
         style="fill:#607d8b;fill-opacity:0.99746189;stroke:none;stroke-width:5.39975882;stroke-miterlimit:4;stroke-dasharray:none;stroke-opacity:1"
         id="rect2052"
         width="18.75"
         height="18.75"
         x="-0.93747789"
         y="3.4083283" />
    </clipPath>
  </defs>
  <metadata
     id="metadata7">
    <rdf:RDF>
      <cc:Work
         rdf:about="">
        <dc:format>image/svg+xml</dc:format>
        <dc:type
           rdf:resource="http://purl.org/dc/dcmitype/StillImage" />
        <dc:title />
      </cc:Work>
    </rdf:RDF>
  </metadata>
  <g
     transform="translate(1063.7677,-860.65447)"
     id="layer1"
     inkscape:groupmode="layer"
     inkscape:label="Hintergrund" />
  <g
     transform="translate(5.6249779,1.2791717)"
     inkscape:label="Icon"
     id="layer2"
     inkscape:groupmode="layer"
     style="display:inline">
    <rect
       y="3.4083283"
       x="-0.93747789"
       height="18.75"
       width="18.75"
       id="rect849"
       style="fill:#cddc39;fill-opacity:0.99746192;stroke:none;stroke-width:5.39975882;stroke-miterlimit:4;stroke-dasharray:none;stroke-opacity:1"
       inkscape:export-filename="/home/juergen/Desktop/ic_launcher.png"
       inkscape:export-xdpi="691.20001"
       inkscape:export-ydpi="691.20001"
       ry="1.874999" />
    <path
       style="fill:none"
       inkscape:connector-curvature="0"
       id="path4"
       d="M 3.9999777,4.0333382 H 15.999978 V 15.966671 H 3.9999777 Z" />
    <path
       d="m 18.999978,19.033339 h 12 v 11.933333 h -12 z"
       id="path9754"
       inkscape:connector-curvature="0"
       style="fill:none"
       clip-path="url(#clipPath3603)" />
    <path
       inkscape:connector-curvature="0"
       d="m 21.500022,22.845828 h -3 c -0.555,0 -1,0.445 -1,1 v 6 a 1,1 0 0 0 1,1 h 8 a 1,1 0 0 0 1,-1 v -5 c 0,-0.555 -0.45,-1 -1,-1 h -4 z"
       id="path1785"
       style="fill:#212121"
       clip-path="url(#clipPath3595)" />
    <path
       clip-path="url(#clipPath1792)"
       inkscape:connector-curvature="0"
       d="m 22.500022,22.158329 c -2.467105,0 -4.440789,1.973683 -4.440789,4.440788 v 3.453947 a 1.4802631,1.4802631 0 0 0 1.480264,1.480264 h 1.480263 v -3.94737 h -1.973684 v -0.986841 a 3.4539473,3.4539473 0 0 1 3.453946,-3.453946 3.4539473,3.4539473 0 0 1 3.453947,3.453946 v 0.986841 h -1.973684 v 3.94737 h 1.480263 a 1.4802631,1.4802631 0 0 0 1.480263,-1.480264 v -3.453947 c 0,-2.467105 -1.988487,-4.440788 -4.440789,-4.440788 z"
       id="path868"
       style="display:inline;fill:#212121;fill-opacity:1;stroke:none;stroke-width:0.93749994" />
    <path
       id="path1898"
       d="m 18.515647,29.892703 a 0.70312501,0.70312501 0 0 1 0.703125,0.703125 0.70312501,0.70312501 0 0 1 -0.703125,0.703125 0.70312501,0.70312501 0 0 1 -0.703125,-0.703125 0.70312501,0.70312501 0 0 1 0.703125,-0.703125 m 2.34375,-1.40625 a 1.171875,1.171875 0 0 1 1.171875,1.171875 1.171875,1.171875 0 0 1 -1.171875,1.171875 1.171875,1.171875 0 0 1 -1.171875,-1.171875 1.171875,1.171875 0 0 1 1.171875,-1.171875 m 2.8125,-0.46875 c -0.557812,0 -1.064062,-0.234375 -1.40625,-0.632813 -0.342187,0.398438 -0.848437,0.632813 -1.40625,0.632813 -0.91875,0 -1.682812,-0.660938 -1.842187,-1.528125 -0.703125,-0.271875 -1.204688,-0.95625 -1.204688,-1.753125 a 1.875,1.875 0 0 1 1.875,-1.875 c 0.121875,0 0.234375,0.01406 0.360938,0.03281 0.342187,-0.309375 0.7875,-0.501563 1.279687,-0.501563 0.557813,0 1.064063,0.234375 1.40625,0.632813 0.342188,-0.398438 0.848438,-0.632813 1.40625,-0.632813 0.91875,0 1.682813,0.660938 1.842188,1.528126 0.703125,0.271875 1.204687,0.95625 1.204687,1.753125 a 1.875,1.875 0 0 1 -1.875,1.875 l -0.360937,-0.03281 c -0.342188,0.309375 -0.7875,0.501562 -1.279688,0.501562 z"
       inkscape:connector-curvature="0"
       style="fill:#212121;stroke-width:0.46875"
       clip-path="url(#clipPath2832)" />
    <path
       clip-path="url(#clipPath3593)"
       style="display:inline;fill:#212121;stroke-width:0.94497204"
       d="M 23.772432,30.723777 C 23.50994,30.357413 23.100384,29.78539 22.86231,29.452616 c -0.24316,-0.339883 -0.440984,-0.60515 -0.451393,-0.605285 -0.0107,-1.37e-4 -0.393263,0.514122 -0.90491,1.216413 -0.487509,0.669159 -0.890435,1.216652 -0.895393,1.216652 -0.01386,0 -1.757583,-1.228208 -1.762071,-1.241135 -0.0022,-0.0062 0.392024,-0.584919 0.875989,-1.285922 0.483966,-0.701002 0.879938,-1.285595 0.879938,-1.299098 0,-0.02177 -0.156829,-0.07684 -1.386983,-0.486942 -0.76284,-0.254317 -1.394453,-0.465311 -1.403583,-0.468876 -0.0127,-0.005 0.05993,-0.247955 0.309065,-1.034086 0.179117,-0.565184 0.329717,-1.032222 0.334668,-1.037861 0.0049,-0.0057 0.667949,0.20652 1.473329,0.471465 0.80538,0.264946 1.471066,0.481715 1.479303,0.481707 0.0082,-7e-6 0.01756,-0.01233 0.0207,-0.02739 0.0032,-0.01505 0.0101,-0.700791 0.01544,-1.523856 0.0053,-0.823065 0.01414,-1.503325 0.01955,-1.51169 0.0078,-0.01197 0.233984,-0.01517 1.06457,-0.01502 0.580099,9.7e-5 1.060771,0.0043 1.068159,0.0092 0.0094,0.0062 0.02522,0.458693 0.05187,1.475004 0.04376,1.668782 0.0447,1.691146 0.07131,1.691146 0.01032,0 0.648605,-0.213651 1.418413,-0.47478 0.769807,-0.261128 1.403402,-0.470545 1.40799,-0.465369 0.01555,0.01755 0.646947,2.073098 0.639174,2.080872 -0.0042,0.0043 -0.646714,0.22427 -1.427706,0.488943 -1.074347,0.364089 -1.420921,0.486184 -1.423831,0.501595 -0.0022,0.01138 0.367308,0.563502 0.83709,1.250964 0.462515,0.676825 0.839238,1.235638 0.837164,1.241807 -0.0047,0.01417 -1.735327,1.288895 -1.749799,1.288895 -0.0059,0 -0.22545,-0.299753 -0.487942,-0.666117 z"
       id="path2846"
       inkscape:connector-curvature="0" />
    <path
       style="display:inline;fill:#212121;stroke-width:0.99999982;opacity:0.2"
       d="M 14.150391 10.148438 C 14.025391 10.148438 13.920391 10.239375 13.900391 10.359375 L 13.714844 11.683594 C 13.399844 11.808594 13.129141 11.978828 12.869141 12.173828 L 11.625 11.673828 C 11.515 11.628829 11.380312 11.673203 11.320312 11.783203 L 10.320312 13.513672 C 10.255313 13.623672 10.28586 13.758984 10.380859 13.833984 L 10.486328 13.916016 C 10.500847 13.938242 10.505769 13.965389 10.527344 13.982422 L 10.638672 14.068359 C 10.652486 14.08823 10.656152 14.113409 10.675781 14.128906 L 10.783203 14.212891 C 10.797301 14.233654 10.801894 14.259307 10.822266 14.275391 L 10.929688 14.359375 C 10.943786 14.380138 10.948378 14.405792 10.96875 14.421875 L 11.074219 14.503906 C 11.088317 14.52467 11.092909 14.550323 11.113281 14.566406 L 11.220703 14.648438 C 11.234696 14.66886 11.237723 14.695077 11.257812 14.710938 L 11.363281 14.792969 C 11.377334 14.813587 11.382092 14.839481 11.402344 14.855469 L 11.421875 14.871094 C 11.414344 14.96352 11.400391 15.056866 11.400391 15.148438 C 11.400391 15.313437 11.415547 15.474766 11.435547 15.634766 L 10.380859 16.464844 C 10.285859 16.539841 10.255312 16.673203 10.320312 16.783203 L 11.320312 18.513672 C 11.347672 18.563831 11.392339 18.595133 11.441406 18.615234 L 11.46875 18.662109 C 11.495633 18.711395 11.53989 18.741438 11.587891 18.761719 L 11.615234 18.808594 C 11.640942 18.855725 11.685089 18.883654 11.730469 18.904297 L 11.761719 18.957031 C 11.788133 19.005457 11.833907 19.032295 11.880859 19.052734 L 11.908203 19.101562 C 11.934351 19.1495 11.977079 19.178697 12.023438 19.199219 L 12.052734 19.248047 C 12.079173 19.296517 12.124868 19.325271 12.171875 19.345703 L 12.197266 19.390625 C 12.223232 19.43823 12.268499 19.465755 12.314453 19.486328 L 12.341797 19.535156 C 12.368204 19.583569 12.412048 19.61237 12.458984 19.632812 L 12.484375 19.677734 C 12.510782 19.726147 12.554626 19.754949 12.601562 19.775391 L 12.626953 19.820312 C 12.652884 19.867852 12.696313 19.895432 12.742188 19.916016 L 12.767578 19.960938 C 12.792342 20.006338 12.835621 20.031886 12.878906 20.052734 L 12.908203 20.103516 C 12.933405 20.149719 12.977229 20.17455 13.021484 20.195312 L 13.048828 20.242188 C 13.074499 20.289252 13.116811 20.317238 13.162109 20.337891 L 13.1875 20.380859 C 13.212264 20.42626 13.255543 20.451808 13.298828 20.472656 L 13.326172 20.519531 C 13.350936 20.564932 13.394214 20.590479 13.4375 20.611328 L 13.464844 20.658203 C 13.490039 20.704394 13.531932 20.731189 13.576172 20.751953 L 13.601562 20.794922 C 13.626757 20.841113 13.668651 20.867908 13.712891 20.888672 L 13.738281 20.931641 C 13.763 20.976958 13.804471 21.002581 13.847656 21.023438 L 13.873047 21.066406 C 13.897766 21.111724 13.939237 21.137346 13.982422 21.158203 L 14.007812 21.201172 C 14.032531 21.246489 14.074002 21.272112 14.117188 21.292969 L 14.142578 21.335938 C 14.167297 21.381255 14.208768 21.406878 14.251953 21.427734 L 14.275391 21.46875 C 14.300109 21.514068 14.34158 21.53969 14.384766 21.560547 L 14.408203 21.601562 C 14.432445 21.646007 14.473491 21.670476 14.515625 21.691406 L 14.539062 21.732422 C 14.562152 21.774753 14.602973 21.797331 14.642578 21.818359 L 14.669922 21.865234 C 14.693437 21.908346 14.734855 21.930167 14.775391 21.951172 L 14.800781 21.994141 C 14.824071 22.036838 14.864255 22.059059 14.904297 22.080078 L 14.929688 22.125 C 14.952777 22.167331 14.993598 22.189909 15.033203 22.210938 L 15.058594 22.253906 C 15.082156 22.297103 15.123425 22.320795 15.164062 22.341797 L 15.1875 22.380859 C 15.211007 22.423955 15.250498 22.447744 15.291016 22.46875 L 15.314453 22.507812 C 15.33733 22.549753 15.37883 22.570763 15.417969 22.591797 L 15.441406 22.634766 C 15.463961 22.676115 15.502577 22.697714 15.541016 22.71875 L 15.566406 22.761719 C 15.589024 22.803185 15.629392 22.824667 15.667969 22.845703 L 15.691406 22.886719 C 15.714496 22.92905 15.755317 22.951628 15.794922 22.972656 L 15.816406 23.009766 C 15.83808 23.049502 15.877528 23.068848 15.914062 23.089844 L 15.939453 23.134766 C 15.961599 23.175367 16.00151 23.195772 16.039062 23.216797 L 16.0625 23.257812 C 16.085118 23.299279 16.125486 23.320761 16.164062 23.341797 L 16.185547 23.378906 C 16.208101 23.420256 16.246718 23.441855 16.285156 23.462891 L 16.306641 23.5 C 16.329195 23.54135 16.367812 23.562949 16.40625 23.583984 L 16.427734 23.621094 C 16.449812 23.66157 16.487985 23.682103 16.525391 23.703125 L 16.546875 23.740234 C 16.568291 23.779497 16.6066 23.799341 16.642578 23.820312 L 16.666016 23.859375 C 16.687431 23.898637 16.72574 23.918481 16.761719 23.939453 L 16.785156 23.978516 C 16.806758 24.018119 16.844481 24.037604 16.880859 24.058594 L 16.902344 24.095703 C 16.923288 24.1341 16.961126 24.152915 16.996094 24.173828 L 17.019531 24.212891 C 17.040398 24.251145 17.076526 24.270114 17.111328 24.291016 L 17.134766 24.330078 C 17.15644 24.369814 17.195888 24.38916 17.232422 24.410156 L 17.251953 24.445312 C 17.272343 24.482694 17.308009 24.500663 17.341797 24.521484 L 17.365234 24.560547 C 17.386437 24.599418 17.425417 24.617724 17.460938 24.638672 L 17.480469 24.673828 C 17.501335 24.712083 17.537464 24.731051 17.572266 24.751953 L 17.59375 24.787109 C 17.613923 24.824093 17.650266 24.84055 17.683594 24.861328 L 17.705078 24.900391 C 17.724745 24.936447 17.760707 24.951994 17.792969 24.972656 L 17.816406 25.011719 C 17.836406 25.048385 17.873287 25.065197 17.90625 25.085938 L 17.927734 25.123047 C 17.948206 25.160579 17.985569 25.178382 18.019531 25.199219 L 18.039062 25.232422 C 18.059235 25.269405 18.095578 25.285863 18.128906 25.306641 L 18.148438 25.341797 C 18.16861 25.37878 18.204953 25.395238 18.238281 25.416016 L 18.257812 25.451172 C 18.277726 25.48768 18.312922 25.504669 18.345703 25.525391 L 18.365234 25.558594 C 18.385148 25.595102 18.420344 25.612091 18.453125 25.632812 L 18.472656 25.666016 C 18.491617 25.700777 18.525856 25.715863 18.556641 25.736328 L 18.578125 25.773438 C 18.598125 25.810104 18.635006 25.826916 18.667969 25.847656 L 18.685547 25.878906 C 18.704032 25.912795 18.737781 25.926957 18.767578 25.947266 L 18.789062 25.984375 C 18.808591 26.020176 18.844983 26.036014 18.876953 26.056641 L 18.894531 26.087891 C 18.913492 26.122652 18.947731 26.137738 18.978516 26.158203 L 18.998047 26.191406 C 19.016272 26.22482 19.048862 26.23955 19.078125 26.259766 L 19.099609 26.294922 C 19.118666 26.329858 19.154564 26.34474 19.185547 26.365234 L 19.203125 26.396484 C 19.222086 26.431246 19.256324 26.446332 19.287109 26.466797 L 19.304688 26.498047 C 19.323172 26.531935 19.356921 26.546098 19.386719 26.566406 L 19.404297 26.597656 C 19.421679 26.629523 19.454882 26.642235 19.482422 26.662109 L 19.503906 26.699219 C 19.522232 26.732816 19.556468 26.747326 19.585938 26.767578 L 19.603516 26.796875 C 19.620426 26.827877 19.653101 26.839717 19.679688 26.859375 L 19.701172 26.896484 C 19.718554 26.928351 19.751757 26.941063 19.779297 26.960938 L 19.798828 26.994141 C 19.816682 27.026873 19.850405 27.040474 19.878906 27.060547 L 19.896484 27.089844 C 19.913757 27.121511 19.945338 27.134471 19.972656 27.154297 L 19.992188 27.1875 C 20.00948 27.219203 20.042954 27.230165 20.070312 27.25 L 20.087891 27.28125 C 20.105273 27.313117 20.138476 27.325829 20.166016 27.345703 L 20.183594 27.376953 C 20.200867 27.40862 20.232447 27.42158 20.259766 27.441406 L 20.277344 27.470703 C 20.293664 27.500624 20.324204 27.511889 20.349609 27.53125 L 20.369141 27.564453 C 20.386523 27.59632 20.419726 27.609032 20.447266 27.628906 L 20.462891 27.65625 C 20.479687 27.687044 20.510751 27.699147 20.537109 27.71875 L 20.554688 27.748047 C 20.571008 27.777967 20.601547 27.789233 20.626953 27.808594 L 20.644531 27.839844 C 20.660612 27.869325 20.691867 27.879205 20.716797 27.898438 L 20.734375 27.929688 C 20.750555 27.95935 20.781514 27.970948 20.806641 27.990234 L 20.824219 28.019531 C 20.840774 28.049883 20.872562 28.060595 20.898438 28.080078 L 20.914062 28.107422 C 20.930383 28.137342 20.960922 28.148608 20.986328 28.167969 L 21.001953 28.195312 C 21.017321 28.223487 21.046785 28.233131 21.070312 28.251953 L 21.087891 28.283203 C 21.10407 28.312866 21.13503 28.324464 21.160156 28.34375 L 21.175781 28.369141 C 21.191625 28.398188 21.221631 28.408634 21.246094 28.427734 L 21.261719 28.455078 C 21.277086 28.483252 21.30655 28.492897 21.330078 28.511719 L 21.345703 28.539062 C 21.360467 28.56613 21.389753 28.575308 21.412109 28.59375 L 21.429688 28.625 C 21.445395 28.653798 21.475806 28.664571 21.5 28.683594 L 21.513672 28.707031 C 21.527964 28.733233 21.556673 28.741642 21.578125 28.759766 L 21.595703 28.791016 C 21.610467 28.818083 21.639753 28.827262 21.662109 28.845703 L 21.677734 28.873047 C 21.69297 28.900979 21.722823 28.910946 21.746094 28.929688 L 21.759766 28.953125 C 21.773586 28.978462 21.801709 28.986119 21.822266 29.003906 L 21.839844 29.035156 C 21.854608 29.062224 21.883894 29.071402 21.90625 29.089844 L 21.919922 29.113281 C 21.934214 29.139483 21.962923 29.147892 21.984375 29.166016 L 22 29.193359 C 22.014415 29.219787 22.042767 29.227886 22.064453 29.246094 L 22.078125 29.271484 C 22.09254 29.297912 22.120892 29.306011 22.142578 29.324219 L 22.15625 29.349609 C 22.170406 29.375562 22.197558 29.384315 22.21875 29.402344 L 22.232422 29.425781 C 22.246578 29.451734 22.27373 29.460487 22.294922 29.478516 L 22.308594 29.501953 C 22.321797 29.526159 22.347786 29.533461 22.367188 29.550781 L 22.382812 29.578125 C 22.397105 29.604327 22.425814 29.612736 22.447266 29.630859 L 22.458984 29.652344 C 22.471711 29.675677 22.497103 29.68228 22.515625 29.699219 L 22.53125 29.726562 C 22.54507 29.7519 22.573194 29.759557 22.59375 29.777344 L 22.605469 29.798828 C 22.618672 29.823034 22.644661 29.830336 22.664062 29.847656 L 22.677734 29.871094 C 22.690938 29.8953 22.716927 29.902602 22.736328 29.919922 L 22.75 29.943359 C 22.762944 29.96709 22.787719 29.975073 22.806641 29.992188 L 22.820312 30.013672 C 22.833257 30.037403 22.858032 30.045385 22.876953 30.0625 L 22.890625 30.083984 C 22.902876 30.106444 22.92766 30.112368 22.945312 30.128906 L 22.958984 30.154297 C 22.972074 30.178295 22.998387 30.185894 23.017578 30.203125 L 23.029297 30.222656 C 23.041071 30.244243 23.065236 30.249506 23.082031 30.265625 L 23.095703 30.291016 C 23.108321 30.314149 23.134022 30.321042 23.152344 30.337891 L 23.164062 30.357422 C 23.176313 30.379882 23.201097 30.385806 23.21875 30.402344 L 23.230469 30.423828 C 23.242719 30.446288 23.267503 30.452212 23.285156 30.46875 L 23.296875 30.490234 C 23.308867 30.512219 23.332424 30.518844 23.349609 30.535156 L 23.361328 30.554688 C 23.37332 30.576672 23.396878 30.583297 23.414062 30.599609 L 23.425781 30.619141 C 23.437297 30.640252 23.460229 30.646225 23.476562 30.662109 L 23.488281 30.681641 C 23.499012 30.701313 23.522154 30.705566 23.537109 30.720703 L 23.550781 30.746094 C 23.562455 30.767496 23.5869 30.773034 23.603516 30.789062 L 23.613281 30.806641 C 23.623753 30.825839 23.645647 30.830822 23.660156 30.845703 L 23.673828 30.869141 C 23.684772 30.889204 23.707329 30.894811 23.722656 30.910156 L 23.734375 30.929688 C 23.745791 30.950616 23.768999 30.956864 23.785156 30.972656 L 23.794922 30.988281 C 23.805225 31.007171 23.825623 31.012633 23.839844 31.027344 L 23.853516 31.048828 C 23.864324 31.068643 23.887253 31.072677 23.902344 31.087891 L 23.912109 31.105469 C 23.922581 31.124667 23.944475 31.129651 23.958984 31.144531 L 23.970703 31.164062 C 23.981266 31.183427 24.002912 31.188153 24.017578 31.203125 L 24.027344 31.220703 C 24.036954 31.238322 24.057265 31.241874 24.070312 31.255859 L 24.082031 31.277344 C 24.092762 31.297016 24.115904 31.301269 24.130859 31.316406 L 24.138672 31.332031 C 24.148758 31.350523 24.169744 31.354653 24.183594 31.369141 L 24.193359 31.386719 C 24.203187 31.404735 24.222916 31.409611 24.236328 31.423828 L 24.246094 31.439453 C 24.25515 31.456056 24.27498 31.459277 24.287109 31.472656 L 24.298828 31.494141 C 24.308828 31.512474 24.330046 31.516852 24.34375 31.53125 L 24.351562 31.544922 C 24.361091 31.56239 24.381621 31.566181 24.394531 31.580078 L 24.404297 31.597656 C 24.413648 31.6148 24.432697 31.619107 24.445312 31.632812 L 24.455078 31.648438 C 24.463476 31.663834 24.481125 31.667061 24.492188 31.679688 L 24.503906 31.699219 C 24.513434 31.716687 24.533965 31.720477 24.546875 31.734375 L 24.554688 31.748047 C 24.563086 31.763444 24.580734 31.76667 24.591797 31.779297 L 24.601562 31.796875 C 24.610832 31.813869 24.630097 31.818415 24.642578 31.832031 L 24.650391 31.84375 C 24.659048 31.859622 24.677973 31.862073 24.689453 31.875 L 24.697266 31.890625 C 24.705591 31.905889 24.723428 31.909333 24.734375 31.921875 L 24.744141 31.9375 C 24.752063 31.952024 24.76899 31.954737 24.779297 31.966797 L 24.789062 31.984375 C 24.796972 31.998875 24.813932 32.001627 24.824219 32.013672 L 24.833984 32.029297 C 24.842569 32.045035 24.861685 32.047704 24.873047 32.060547 L 24.878906 32.072266 C 24.886828 32.086789 24.903756 32.089502 24.914062 32.101562 L 24.921875 32.115234 C 24.929729 32.129633 24.946831 32.132554 24.957031 32.144531 L 24.964844 32.158203 C 24.971813 32.17098 24.987257 32.172721 24.996094 32.183594 L 25.005859 32.201172 C 25.014185 32.216436 25.032022 32.21988 25.042969 32.232422 L 25.048828 32.242188 C 25.055538 32.25449 25.069678 32.257041 25.078125 32.267578 L 25.087891 32.283203 C 25.095745 32.297602 25.112847 32.300522 25.123047 32.3125 L 25.128906 32.322266 C 25.136093 32.335441 25.15099 32.33846 25.160156 32.349609 L 25.167969 32.361328 C 25.174938 32.374105 25.190382 32.375846 25.199219 32.386719 L 25.205078 32.398438 C 25.211258 32.409767 25.22476 32.412041 25.232422 32.421875 L 25.242188 32.4375 C 25.249311 32.45056 25.264367 32.453774 25.273438 32.464844 L 25.279297 32.472656 C 25.285949 32.484851 25.300235 32.487586 25.308594 32.498047 L 25.316406 32.509766 C 25.322899 32.52167 25.33758 32.522951 25.345703 32.533203 L 25.351562 32.544922 C 25.35732 32.555478 25.369903 32.557149 25.376953 32.566406 L 25.384766 32.580078 C 25.391676 32.592747 25.407269 32.594672 25.416016 32.605469 L 25.419922 32.613281 C 25.426156 32.62471 25.439525 32.626812 25.447266 32.636719 L 25.453125 32.646484 C 25.458883 32.65704 25.471465 32.658711 25.478516 32.667969 L 25.484375 32.677734 C 25.489611 32.687334 25.501501 32.688739 25.507812 32.697266 L 25.515625 32.710938 C 25.521805 32.722267 25.535307 32.724541 25.542969 32.734375 L 25.546875 32.740234 C 25.551639 32.748968 25.5627 32.749966 25.568359 32.757812 L 25.576172 32.771484 C 25.581408 32.781084 25.593298 32.782489 25.599609 32.791016 L 25.605469 32.800781 C 25.611177 32.811246 25.62388 32.813077 25.630859 32.822266 L 25.634766 32.828125 C 25.639058 32.835994 25.649274 32.836601 25.654297 32.84375 L 25.662109 32.857422 C 25.666873 32.866156 25.677934 32.867154 25.683594 32.875 L 25.689453 32.884766 C 25.694726 32.894433 25.706527 32.895718 25.712891 32.904297 L 25.716797 32.910156 C 25.721602 32.918965 25.732566 32.919828 25.738281 32.927734 L 25.742188 32.935547 C 25.746993 32.944356 25.757956 32.945219 25.763672 32.953125 L 25.767578 32.960938 C 25.771907 32.968873 25.782037 32.969359 25.787109 32.976562 L 25.791016 32.984375 C 25.795344 32.992311 25.805475 32.992796 25.810547 33 L 25.814453 33.007812 C 25.818782 33.015748 25.828912 33.016234 25.833984 33.023438 L 25.837891 33.03125 C 25.84196 33.038711 25.85074 33.040061 25.855469 33.046875 L 25.859375 33.052734 C 25.863445 33.060195 25.872225 33.061546 25.876953 33.068359 L 25.880859 33.074219 C 25.884453 33.080806 25.892375 33.081807 25.896484 33.087891 L 25.900391 33.09375 C 25.90374 33.099891 25.912216 33.099766 25.916016 33.105469 L 25.919922 33.113281 C 25.923484 33.119811 25.931477 33.120919 25.935547 33.126953 L 25.939453 33.132812 C 25.94257 33.138527 25.949617 33.139196 25.953125 33.144531 L 25.957031 33.150391 C 25.960121 33.156054 25.96723 33.156818 25.970703 33.162109 L 25.974609 33.167969 C 25.977699 33.173634 25.984807 33.174395 25.988281 33.179688 L 25.992188 33.185547 C 25.995087 33.190863 26.002621 33.190324 26.005859 33.195312 L 26.007812 33.201172 C 26.010712 33.206488 26.018246 33.205949 26.021484 33.210938 L 26.023438 33.216797 C 26.026078 33.221638 26.032234 33.221993 26.035156 33.226562 L 26.037109 33.230469 C 26.03975 33.23531 26.045905 33.235665 26.048828 33.240234 L 26.050781 33.244141 C 26.053422 33.248982 26.059577 33.249337 26.0625 33.253906 L 26.064453 33.257812 C 26.066617 33.26178 26.071864 33.26184 26.074219 33.265625 L 26.076172 33.269531 C 26.078336 33.273499 26.083583 33.273558 26.085938 33.277344 L 26.087891 33.28125 C 26.089102 33.283472 26.092478 33.282992 26.09375 33.285156 L 26.097656 33.292969 C 26.09933 33.296038 26.10368 33.295868 26.105469 33.298828 L 26.107422 33.302734 C 26.109257 33.305651 26.113291 33.305787 26.115234 33.308594 L 26.117188 33.3125 C 26.119349 33.316463 26.124602 33.316532 26.126953 33.320312 C 26.128382 33.322932 26.1313 33.323632 26.132812 33.326172 L 26.134766 33.328125 C 26.135792 33.3298 26.13761 33.330392 26.138672 33.332031 L 26.140625 33.333984 C 26.140625 33.333984 26.142578 33.335938 26.142578 33.335938 L 26.146484 33.341797 C 26.147428 33.343527 26.14941 33.344007 26.150391 33.345703 L 26.152344 33.347656 C 26.154389 33.351094 26.159917 33.350224 26.162109 33.353516 L 26.162109 33.355469 C 26.162946 33.356709 26.165159 33.356203 26.166016 33.357422 L 26.166016 33.359375 C 26.166016 33.359375 26.167969 33.361328 26.167969 33.361328 C 26.167969 33.361328 26.169922 33.363281 26.169922 33.363281 L 26.169922 33.365234 C 26.197562 33.415909 26.245225 33.446811 26.294922 33.466797 C 26.296655 33.46743 26.297082 33.470108 26.298828 33.470703 C 26.298828 33.470703 26.300781 33.472656 26.300781 33.472656 C 26.300781 33.472656 26.302734 33.474609 26.302734 33.474609 C 26.358397 33.494253 26.420697 33.494924 26.476562 33.474609 L 27.115234 33.214844 C 27.124462 33.223201 27.136093 33.225482 27.146484 33.232422 C 27.162548 33.25222 27.175982 33.269026 27.197266 33.283203 C 27.212936 33.302142 27.225586 33.318336 27.246094 33.332031 C 27.261793 33.350966 27.274385 33.367179 27.294922 33.380859 C 27.310253 33.39935 27.321838 33.416195 27.341797 33.429688 C 27.356864 33.447612 27.369218 33.4634 27.388672 33.476562 C 27.403225 33.493875 27.414932 33.508599 27.433594 33.521484 C 27.448269 33.538943 27.459665 33.555407 27.478516 33.568359 C 27.492939 33.585284 27.505057 33.600652 27.523438 33.613281 C 27.537737 33.63006 27.550167 33.643689 27.568359 33.65625 C 27.582489 33.672701 27.593437 33.686855 27.611328 33.699219 C 27.62508 33.71523 27.635017 33.730038 27.652344 33.742188 C 27.666209 33.758112 27.67789 33.771163 27.695312 33.783203 C 27.708606 33.79838 27.717826 33.812583 27.734375 33.824219 C 27.747841 33.839685 27.758559 33.853423 27.775391 33.865234 C 27.788464 33.879998 27.798276 33.892923 27.814453 33.904297 C 27.827468 33.918952 27.837438 33.932055 27.853516 33.943359 C 27.866145 33.957558 27.875109 33.971366 27.890625 33.982422 C 27.902968 33.996112 27.912683 34.008807 27.927734 34.019531 C 27.940078 34.033221 27.949792 34.045916 27.964844 34.056641 C 27.976762 34.069632 27.985613 34.081526 28 34.091797 C 28.011918 34.104788 28.020769 34.116683 28.035156 34.126953 C 28.046473 34.139241 28.054818 34.150305 28.068359 34.160156 C 28.079721 34.172541 28.087947 34.183438 28.101562 34.193359 C 28.112868 34.205651 28.121236 34.216704 28.134766 34.226562 C 28.146083 34.23885 28.154428 34.249914 28.167969 34.259766 C 28.178802 34.271281 28.186402 34.281691 28.199219 34.291016 C 28.20965 34.302103 28.21624 34.313204 28.228516 34.322266 C 28.238614 34.332856 28.246014 34.342849 28.257812 34.351562 C 28.267911 34.362153 28.275311 34.372146 28.287109 34.380859 C 28.297208 34.39145 28.304608 34.401443 28.316406 34.410156 C 28.325993 34.419999 28.332672 34.429318 28.34375 34.4375 C 28.353337 34.447343 28.360016 34.456662 28.371094 34.464844 C 28.379381 34.473254 28.385138 34.481093 28.394531 34.488281 C 28.40407 34.498285 28.410813 34.50729 28.421875 34.515625 C 28.430496 34.524301 28.435511 34.533657 28.445312 34.541016 C 28.453565 34.549376 28.459402 34.557303 28.46875 34.564453 C 28.477003 34.572813 28.48284 34.58074 28.492188 34.587891 C 28.500474 34.596109 28.506268 34.604313 28.515625 34.611328 C 28.52257 34.618134 28.527465 34.624885 28.535156 34.630859 C 28.542845 34.638492 28.548025 34.645744 28.556641 34.652344 C 28.563912 34.659556 28.568069 34.667537 28.576172 34.673828 C 28.583524 34.681023 28.589471 34.687098 28.597656 34.693359 C 28.603583 34.699044 28.606823 34.705846 28.613281 34.710938 C 28.620186 34.717695 28.62517 34.724533 28.632812 34.730469 C 28.63871 34.736119 28.642014 34.742984 28.648438 34.748047 C 28.654823 34.754087 28.660979 34.758318 28.667969 34.763672 C 28.67269 34.768105 28.674635 34.77328 28.679688 34.777344 C 28.685576 34.78299 28.688899 34.789862 28.695312 34.794922 C 28.700676 34.799992 28.705145 34.804004 28.710938 34.808594 C 28.715637 34.813002 28.71763 34.818223 28.722656 34.822266 C 28.727429 34.826689 28.731223 34.829936 28.736328 34.833984 C 28.741027 34.838392 28.74302 34.843614 28.748047 34.847656 C 28.752359 34.851647 28.755183 34.855689 28.759766 34.859375 C 28.763451 34.862715 28.765652 34.86602 28.769531 34.869141 C 28.773217 34.87248 28.775418 34.875786 28.779297 34.878906 C 28.782532 34.881837 28.783725 34.885909 28.787109 34.888672 C 28.789937 34.8912 28.791982 34.894084 28.794922 34.896484 C 28.797749 34.899013 28.799794 34.901896 28.802734 34.904297 C 28.805565 34.906827 28.807603 34.909707 28.810547 34.912109 C 28.812732 34.914022 28.814155 34.916131 28.816406 34.917969 C 28.818592 34.919881 28.820015 34.921991 28.822266 34.923828 C 28.822266 34.923828 28.824219 34.925781 28.824219 34.925781 C 28.825975 34.927351 28.826325 34.93012 28.828125 34.931641 C 28.828125 34.931641 28.830078 34.931641 28.830078 34.931641 C 28.830078 34.931641 28.830078 34.933594 28.830078 34.933594 C 28.83032 34.933811 28.831789 34.933377 28.832031 34.933594 C 28.833132 34.934557 28.832867 34.936556 28.833984 34.9375 C 28.83423 34.937712 28.835691 34.937289 28.835938 34.9375 C 28.835938 34.9375 28.835938 34.939453 28.835938 34.939453 C 28.880313 34.976953 28.9375 35 29 35 L 31 35 C 31.061851 35 31.119879 34.976254 31.164062 34.939453 C 31.209173 34.90188 31.239896 34.849688 31.25 34.789062 L 31.435547 33.464844 C 31.750027 33.335059 32.019694 33.168304 32.279297 32.96875 L 32.53125 33.070312 L 33.525391 33.474609 C 33.63539 33.514609 33.770078 33.475234 33.830078 33.365234 L 33.830078 33.363281 L 34.830078 31.634766 C 34.830406 31.634165 34.829755 31.633415 34.830078 31.632812 C 34.888827 31.523144 34.865963 31.389044 34.771484 31.314453 L 34.769531 31.314453 L 34.767578 31.3125 C 34.767103 31.31211 34.768057 31.310934 34.767578 31.310547 L 34.765625 31.308594 L 34.761719 31.306641 C 34.761719 31.306641 34.759766 31.304688 34.759766 31.304688 L 34.757812 31.300781 L 34.751953 31.296875 C 34.751953 31.296875 34.75 31.294922 34.75 31.294922 C 34.748819 31.293953 34.74925 31.291966 34.748047 31.291016 L 34.740234 31.285156 L 34.738281 31.283203 C 34.736385 31.281609 34.736331 31.278888 34.734375 31.277344 L 34.726562 31.269531 L 34.716797 31.261719 L 34.712891 31.259766 C 34.712891 31.259766 34.712891 31.257812 34.712891 31.257812 C 34.711012 31.256234 34.710922 31.253483 34.708984 31.251953 L 34.701172 31.246094 C 34.699984 31.245119 34.70043 31.243143 34.699219 31.242188 L 34.6875 31.232422 L 34.677734 31.224609 C 34.676546 31.223634 34.676992 31.221659 34.675781 31.220703 L 34.669922 31.214844 C 34.66736 31.21264 34.666735 31.209142 34.664062 31.207031 L 34.650391 31.195312 L 34.640625 31.1875 C 34.638729 31.185906 34.638675 31.183185 34.636719 31.181641 L 34.628906 31.175781 C 34.625896 31.173151 34.626213 31.168516 34.623047 31.166016 L 34.611328 31.15625 C 34.60945 31.154672 34.609358 31.151919 34.607422 31.150391 L 34.595703 31.140625 C 34.593807 31.139031 34.593753 31.13631 34.591797 31.134766 L 34.576172 31.123047 C 34.574984 31.122072 34.57543 31.120097 34.574219 31.119141 L 34.560547 31.109375 C 34.558217 31.107387 34.559062 31.103474 34.556641 31.101562 L 34.544922 31.091797 C 34.541939 31.089194 34.542198 31.084507 34.539062 31.082031 L 34.521484 31.068359 C 34.520296 31.067384 34.520742 31.065409 34.519531 31.064453 L 34.503906 31.052734 C 34.501576 31.050746 34.502422 31.046834 34.5 31.044922 L 34.488281 31.035156 C 34.484608 31.03187 34.48438 31.026526 34.480469 31.023438 L 34.464844 31.009766 C 34.462282 31.007562 34.461657 31.004063 34.458984 31.001953 L 34.443359 30.988281 C 34.440772 30.986054 34.440201 30.982601 34.4375 30.980469 L 34.417969 30.964844 C 34.416072 30.963249 34.416018 30.960529 34.414062 30.958984 L 34.396484 30.945312 C 34.393474 30.942682 34.393792 30.938047 34.390625 30.935547 L 34.375 30.923828 C 34.370921 30.920126 34.371565 30.913612 34.367188 30.910156 L 34.345703 30.892578 C 34.343807 30.890984 34.343753 30.888263 34.341797 30.886719 L 34.324219 30.873047 C 34.320176 30.869382 34.320741 30.862798 34.316406 30.859375 L 34.292969 30.841797 C 34.290653 30.839822 34.291468 30.835883 34.289062 30.833984 L 34.271484 30.820312 C 34.267406 30.81661 34.268049 30.810097 34.263672 30.806641 L 34.240234 30.787109 C 34.237647 30.784882 34.237076 30.781429 34.234375 30.779297 L 34.216797 30.765625 C 34.212084 30.761245 34.212154 30.754044 34.207031 30.75 L 34.185547 30.732422 C 34.181874 30.729136 34.181646 30.723791 34.177734 30.720703 L 34.152344 30.701172 C 34.149333 30.698542 34.149651 30.693906 34.146484 30.691406 L 34.123047 30.673828 C 34.118991 30.67015 34.119585 30.663591 34.115234 30.660156 L 34.091797 30.640625 C 34.088124 30.637339 34.087896 30.631995 34.083984 30.628906 L 34.0625 30.611328 C 34.057787 30.606948 34.057857 30.599747 34.052734 30.595703 L 34.027344 30.576172 C 34.023301 30.572507 34.023866 30.565923 34.019531 30.5625 L 33.994141 30.542969 C 33.990062 30.539266 33.990705 30.532753 33.986328 30.529297 L 33.958984 30.507812 C 33.954942 30.504148 33.955507 30.497563 33.951172 30.494141 L 33.923828 30.472656 C 33.919786 30.468992 33.920351 30.462407 33.916016 30.458984 L 33.886719 30.435547 C 33.883064 30.43228 33.882796 30.426899 33.878906 30.423828 L 33.853516 30.404297 C 33.848415 30.399487 33.849338 30.391131 33.84375 30.386719 L 33.8125 30.361328 C 33.808827 30.358042 33.808599 30.352698 33.804688 30.349609 L 33.779297 30.330078 C 33.77359 30.32457 33.773911 30.315547 33.767578 30.310547 L 33.738281 30.287109 C 33.734293 30.283409 33.73475 30.276899 33.730469 30.273438 C 33.738271 30.182311 33.75 30.091471 33.75 29.998047 C 33.75 29.833688 33.734727 29.669301 33.714844 29.5 L 34.771484 28.685547 C 34.860009 28.61566 34.879166 28.493984 34.833984 28.388672 C 34.830681 28.380971 34.834166 28.37273 34.830078 28.365234 L 34.830078 28.363281 L 34.828125 28.361328 L 33.830078 26.634766 L 33.830078 26.632812 C 33.830078 26.632812 33.828125 26.630859 33.828125 26.630859 C 33.827401 26.629533 33.824964 26.630214 33.824219 26.628906 L 33.822266 26.626953 C 33.822266 26.626953 33.822266 26.625 33.822266 26.625 C 33.822266 26.625 33.820312 26.623047 33.820312 26.623047 C 33.820312 26.623047 33.818359 26.623047 33.818359 26.623047 C 33.818359 26.623047 33.818359 26.621094 33.818359 26.621094 C 33.817625 26.619748 33.813256 26.618514 33.8125 26.617188 C 33.8125 26.617188 33.810547 26.615234 33.810547 26.615234 C 33.810547 26.615234 33.808594 26.613281 33.808594 26.613281 C 33.808594 26.613281 33.806641 26.611328 33.806641 26.611328 C 33.805604 26.609698 33.803805 26.60902 33.802734 26.607422 C 33.802734 26.607422 33.800781 26.605469 33.800781 26.605469 C 33.800781 26.605469 33.798828 26.603516 33.798828 26.603516 L 33.794922 26.597656 C 33.793515 26.595077 33.788597 26.592351 33.787109 26.589844 C 33.784979 26.585938 33.779659 26.585772 33.777344 26.582031 C 33.777344 26.582031 33.775391 26.580078 33.775391 26.580078 C 33.773836 26.577632 33.771162 26.576592 33.769531 26.574219 C 33.769531 26.574219 33.767578 26.572266 33.767578 26.572266 C 33.765685 26.568795 33.759851 26.56584 33.757812 26.5625 C 33.756393 26.559897 33.753455 26.55917 33.751953 26.556641 L 33.748047 26.550781 C 33.745916 26.546875 33.740596 26.54671 33.738281 26.542969 L 33.736328 26.539062 C 33.734182 26.535128 33.728896 26.535017 33.726562 26.53125 L 33.724609 26.527344 C 33.721541 26.521719 33.714385 26.520907 33.710938 26.515625 C 33.708807 26.511719 33.703487 26.511553 33.701172 26.507812 L 33.697266 26.5 C 33.693917 26.493861 33.685439 26.492058 33.681641 26.486328 C 33.679492 26.48239 33.674211 26.482286 33.671875 26.478516 L 33.667969 26.470703 C 33.6649 26.465078 33.657744 26.464266 33.654297 26.458984 L 33.652344 26.455078 C 33.648552 26.448126 33.639132 26.44588 33.634766 26.439453 C 33.631697 26.433828 33.624541 26.433016 33.621094 26.427734 L 33.617188 26.421875 C 33.614566 26.417069 33.608368 26.416665 33.605469 26.412109 L 33.599609 26.402344 C 33.595603 26.394999 33.584723 26.391523 33.580078 26.384766 C 33.57651 26.378225 33.56853 26.37717 33.564453 26.371094 L 33.560547 26.365234 C 33.556541 26.35789 33.547614 26.356367 33.542969 26.349609 L 33.539062 26.34375 C 33.535968 26.338076 33.528871 26.337356 33.525391 26.332031 L 33.519531 26.322266 C 33.514118 26.312342 33.502654 26.309629 33.496094 26.300781 C 33.492526 26.29424 33.484546 26.293186 33.480469 26.287109 L 33.474609 26.277344 C 33.470317 26.269475 33.460101 26.268913 33.455078 26.261719 L 33.451172 26.253906 C 33.44688 26.246037 33.436664 26.245476 33.431641 26.238281 L 33.427734 26.230469 C 33.423005 26.221797 33.411863 26.220742 33.40625 26.212891 L 33.402344 26.205078 C 33.397614 26.196407 33.386472 26.195351 33.380859 26.1875 L 33.376953 26.179688 C 33.371285 26.169297 33.358484 26.167413 33.351562 26.158203 L 33.349609 26.154297 C 33.344367 26.144685 33.332493 26.143368 33.326172 26.134766 L 33.322266 26.126953 C 33.317023 26.117341 33.30515 26.116025 33.298828 26.107422 L 33.294922 26.099609 C 33.289461 26.089598 33.278112 26.087041 33.271484 26.078125 L 33.265625 26.070312 C 33.260164 26.060301 33.248815 26.057744 33.242188 26.048828 L 33.236328 26.041016 C 33.230867 26.031004 33.219518 26.028447 33.212891 26.019531 L 33.207031 26.011719 C 33.201364 26.001328 33.188562 25.999444 33.181641 25.990234 L 33.175781 25.980469 C 33.170065 25.969989 33.157382 25.968262 33.150391 25.958984 L 33.144531 25.949219 C 33.139288 25.939607 33.127415 25.93829 33.121094 25.929688 L 33.113281 25.916016 C 33.107145 25.904765 33.093536 25.902442 33.085938 25.892578 L 33.080078 25.882812 C 33.073218 25.870235 33.0575 25.868262 33.048828 25.857422 L 33.044922 25.849609 C 33.039206 25.83913 33.026522 25.837403 33.019531 25.828125 L 33.011719 25.814453 C 33.005327 25.802736 32.990394 25.801228 32.982422 25.791016 L 32.976562 25.779297 C 32.969233 25.76586 32.952745 25.763405 32.943359 25.751953 L 32.939453 25.744141 C 32.932535 25.731458 32.916962 25.729666 32.908203 25.71875 L 32.902344 25.707031 C 32.895426 25.694348 32.879852 25.692557 32.871094 25.681641 L 32.865234 25.669922 C 32.858572 25.657707 32.844313 25.655109 32.835938 25.644531 L 32.828125 25.630859 C 32.821051 25.61789 32.805871 25.614637 32.796875 25.603516 L 32.789062 25.591797 C 32.781264 25.5775 32.764019 25.574546 32.753906 25.5625 L 32.748047 25.552734 C 32.740438 25.538785 32.724661 25.535246 32.714844 25.523438 L 32.707031 25.511719 C 32.699422 25.497769 32.683645 25.49423 32.673828 25.482422 L 32.666016 25.470703 C 32.658407 25.456753 32.64263 25.453214 32.632812 25.441406 L 32.625 25.429688 C 32.617202 25.415391 32.599956 25.412436 32.589844 25.400391 L 32.582031 25.386719 C 32.574422 25.372769 32.558645 25.36923 32.548828 25.357422 L 32.539062 25.341797 C 32.530327 25.325781 32.511607 25.321777 32.5 25.308594 L 32.494141 25.298828 C 32.485803 25.283543 32.467997 25.280286 32.457031 25.267578 L 32.449219 25.253906 C 32.441354 25.239488 32.424279 25.236738 32.414062 25.224609 L 32.404297 25.207031 C 32.395306 25.190548 32.375304 25.187308 32.363281 25.173828 L 32.357422 25.162109 C 32.349084 25.146824 32.331278 25.143568 32.320312 25.130859 L 32.310547 25.113281 C 32.301277 25.096287 32.282012 25.091924 32.269531 25.078125 L 32.261719 25.066406 C 32.252435 25.049386 32.233208 25.045065 32.220703 25.03125 L 32.212891 25.017578 C 32.203607 25.000558 32.18438 24.996237 32.171875 24.982422 L 32.164062 24.96875 C 32.155252 24.952597 32.136729 24.948817 32.125 24.935547 L 32.115234 24.917969 C 32.105092 24.899374 32.084259 24.893666 32.070312 24.878906 L 32.0625 24.867188 C 32.052961 24.849699 32.03246 24.846133 32.019531 24.832031 L 32.011719 24.816406 C 32.001962 24.798518 31.982044 24.79364 31.96875 24.779297 L 31.958984 24.763672 C 31.949227 24.745784 31.929309 24.740905 31.916016 24.726562 L 31.90625 24.710938 C 31.896966 24.693917 31.877739 24.689597 31.865234 24.675781 L 31.853516 24.65625 C 31.843587 24.638048 31.822177 24.63367 31.808594 24.619141 L 31.798828 24.601562 C 31.787962 24.581641 31.765192 24.576056 31.75 24.560547 L 31.742188 24.546875 C 31.73243 24.528987 31.712513 24.524108 31.699219 24.509766 L 31.6875 24.490234 C 31.676165 24.469453 31.652734 24.463239 31.636719 24.447266 L 31.628906 24.433594 C 31.618203 24.413971 31.596941 24.407922 31.582031 24.392578 L 31.572266 24.376953 C 31.561307 24.356862 31.538791 24.35154 31.523438 24.335938 L 31.513672 24.318359 C 31.502713 24.298268 31.480197 24.292946 31.464844 24.277344 L 31.455078 24.259766 C 31.444212 24.239844 31.421442 24.234259 31.40625 24.21875 L 31.394531 24.199219 C 31.383099 24.17826 31.359936 24.172317 31.34375 24.15625 L 31.333984 24.138672 C 31.322552 24.117713 31.299389 24.11177 31.283203 24.095703 L 31.273438 24.078125 C 31.262102 24.057343 31.238671 24.051129 31.222656 24.035156 L 31.210938 24.015625 C 31.199032 23.993799 31.175233 23.987216 31.158203 23.970703 L 31.148438 23.953125 C 31.137261 23.932634 31.115345 23.925974 31.099609 23.910156 L 31.085938 23.888672 C 31.074133 23.867031 31.050052 23.860169 31.033203 23.84375 L 31.021484 23.824219 C 31.008956 23.801251 30.983001 23.794417 30.964844 23.777344 L 30.955078 23.759766 C 30.943646 23.738807 30.920483 23.732863 30.904297 23.716797 L 30.890625 23.693359 C 30.878566 23.671251 30.853244 23.665092 30.835938 23.648438 L 30.824219 23.626953 C 30.811222 23.603125 30.784644 23.595599 30.765625 23.578125 L 30.755859 23.560547 C 30.743954 23.53872 30.720155 23.532138 30.703125 23.515625 L 30.689453 23.492188 C 30.675987 23.4675 30.648797 23.459263 30.628906 23.441406 L 30.619141 23.423828 C 30.606762 23.401134 30.582338 23.393894 30.564453 23.376953 L 30.550781 23.353516 C 30.537691 23.329517 30.511378 23.322239 30.492188 23.304688 L 30.480469 23.285156 C 30.468196 23.262655 30.443475 23.255129 30.425781 23.238281 L 30.410156 23.212891 C 30.39669 23.188203 30.3695 23.179966 30.349609 23.162109 L 30.337891 23.142578 C 30.325148 23.119218 30.299799 23.111008 30.28125 23.09375 L 30.265625 23.068359 C 30.251805 23.043022 30.223681 23.035713 30.203125 23.017578 L 30.191406 22.996094 C 30.178299 22.972064 30.152035 22.964831 30.132812 22.947266 L 30.119141 22.921875 C 30.104737 22.895468 30.076352 22.885757 30.054688 22.867188 L 30.042969 22.847656 C 30.029644 22.823227 30.004003 22.814619 29.984375 22.796875 L 29.96875 22.771484 C 29.954815 22.745937 29.927023 22.736972 29.90625 22.71875 L 29.892578 22.695312 C 29.877706 22.668046 29.848738 22.65757 29.826172 22.638672 L 29.814453 22.619141 C 29.800655 22.593844 29.774421 22.584524 29.753906 22.566406 L 29.738281 22.541016 C 29.723878 22.514609 29.695493 22.504897 29.673828 22.486328 L 29.660156 22.462891 C 29.645029 22.435157 29.614857 22.425319 29.591797 22.40625 L 29.580078 22.384766 C 29.565078 22.357266 29.536484 22.347109 29.513672 22.328125 L 29.5 22.304688 C 29.485 22.277188 29.456406 22.267031 29.433594 22.248047 L 29.419922 22.224609 C 29.404449 22.196242 29.375296 22.185309 29.351562 22.166016 L 29.337891 22.142578 C 29.322417 22.114211 29.293265 22.103277 29.269531 22.083984 L 29.255859 22.060547 C 29.240386 22.032179 29.211234 22.021246 29.1875 22.001953 L 29.173828 21.978516 C 29.157882 21.949281 29.12818 21.937552 29.103516 21.917969 L 29.089844 21.894531 C 29.073897 21.865296 29.044196 21.853568 29.019531 21.833984 L 29.005859 21.810547 C 28.990386 21.782179 28.961234 21.771246 28.9375 21.751953 L 28.921875 21.724609 C 28.906279 21.696016 28.875538 21.685386 28.851562 21.666016 L 28.835938 21.638672 C 28.819403 21.608359 28.787551 21.596089 28.761719 21.576172 L 28.748047 21.552734 C 28.732574 21.524367 28.703421 21.513434 28.679688 21.494141 L 28.662109 21.464844 C 28.646044 21.435391 28.614743 21.42395 28.589844 21.404297 L 28.574219 21.376953 C 28.557216 21.345781 28.52482 21.332664 28.498047 21.3125 L 28.484375 21.289062 C 28.467482 21.258092 28.436708 21.244717 28.410156 21.224609 L 28.394531 21.199219 C 28.377638 21.168249 28.346864 21.154873 28.320312 21.134766 L 28.304688 21.109375 C 28.288268 21.079272 28.258026 21.06673 28.232422 21.046875 L 28.214844 21.017578 C 28.198055 20.986798 28.165014 20.975131 28.138672 20.955078 L 28.123047 20.925781 C 28.10532 20.893282 28.07121 20.879882 28.042969 20.859375 L 28.029297 20.833984 C 28.012622 20.803414 27.981192 20.791478 27.955078 20.771484 L 27.9375 20.740234 C 27.919559 20.707343 27.886101 20.692475 27.857422 20.671875 L 27.841797 20.646484 C 27.824175 20.614178 27.791698 20.600538 27.763672 20.580078 L 27.748047 20.552734 C 27.729952 20.519561 27.696963 20.50504 27.667969 20.484375 L 27.652344 20.457031 C 27.634249 20.423858 27.60126 20.409336 27.572266 20.388672 L 27.556641 20.361328 C 27.538914 20.328829 27.504804 20.315429 27.476562 20.294922 L 27.458984 20.263672 C 27.440417 20.229631 27.406923 20.21421 27.376953 20.193359 L 27.361328 20.166016 C 27.342978 20.132374 27.308816 20.118423 27.279297 20.097656 L 27.263672 20.068359 C 27.245476 20.035001 27.210842 20.020706 27.181641 20 L 27.164062 19.96875 C 27.145495 19.934709 27.112001 19.919288 27.082031 19.898438 L 27.064453 19.869141 C 27.046358 19.835967 27.013369 19.821446 26.984375 19.800781 L 26.964844 19.767578 C 26.946179 19.73336 26.911029 19.718152 26.880859 19.697266 L 26.863281 19.666016 C 26.843679 19.630078 26.807517 19.612987 26.775391 19.591797 L 26.759766 19.564453 C 26.741198 19.530412 26.707704 19.514991 26.677734 19.494141 L 26.658203 19.460938 C 26.63907 19.425859 26.60341 19.409719 26.572266 19.388672 L 26.554688 19.357422 C 26.535085 19.321484 26.498923 19.304393 26.466797 19.283203 L 26.449219 19.253906 C 26.429449 19.217662 26.393806 19.200924 26.361328 19.179688 L 26.34375 19.148438 C 26.32398 19.112193 26.288337 19.095455 26.255859 19.074219 L 26.238281 19.042969 C 26.218985 19.007592 26.183829 18.991802 26.152344 18.970703 L 26.132812 18.935547 C 26.11321 18.899609 26.077048 18.882518 26.044922 18.861328 L 26.025391 18.828125 C 26.00485 18.790468 25.967701 18.771419 25.933594 18.75 L 25.916016 18.720703 C 25.896246 18.684459 25.860602 18.667721 25.828125 18.646484 L 25.808594 18.611328 C 25.788522 18.574531 25.751864 18.55647 25.71875 18.535156 L 25.699219 18.501953 C 25.678424 18.463829 25.640119 18.445296 25.605469 18.423828 L 25.587891 18.392578 C 25.567175 18.354599 25.530575 18.335906 25.496094 18.314453 L 25.476562 18.28125 C 25.455846 18.243271 25.419247 18.224578 25.384766 18.203125 L 25.365234 18.169922 C 25.344992 18.13281 25.308867 18.115105 25.275391 18.09375 L 25.253906 18.056641 C 25.233111 18.018516 25.194806 17.999983 25.160156 17.978516 L 25.140625 17.943359 C 25.118892 17.903516 25.079629 17.882928 25.042969 17.861328 L 25.025391 17.830078 C 25.004675 17.792099 24.968075 17.773406 24.933594 17.751953 L 24.912109 17.714844 C 24.890376 17.675 24.851114 17.654412 24.814453 17.632812 L 24.794922 17.599609 C 24.773733 17.560762 24.736664 17.541064 24.701172 17.519531 L 24.679688 17.482422 C 24.658013 17.442686 24.618565 17.423937 24.582031 17.402344 L 24.5625 17.367188 C 24.540838 17.327473 24.503306 17.306749 24.466797 17.285156 L 24.445312 17.248047 C 24.423111 17.207344 24.383377 17.185699 24.345703 17.164062 L 24.326172 17.130859 C 24.303781 17.089809 24.264646 17.068521 24.226562 17.046875 L 24.207031 17.011719 C 24.185113 16.971536 24.146435 16.951304 24.109375 16.929688 L 24.087891 16.890625 C 24.06522 16.849062 24.02502 16.826342 23.986328 16.804688 L 23.966797 16.771484 C 23.945064 16.731641 23.905801 16.711053 23.869141 16.689453 L 23.845703 16.648438 C 23.822778 16.606408 23.781434 16.584156 23.742188 16.5625 L 23.722656 16.527344 C 23.699574 16.485027 23.660682 16.461107 23.621094 16.439453 L 23.599609 16.404297 C 23.576527 16.36198 23.537635 16.338061 23.498047 16.316406 L 23.476562 16.28125 C 23.453225 16.238465 23.413193 16.215006 23.373047 16.193359 L 23.351562 16.15625 C 23.328225 16.113465 23.288193 16.090006 23.248047 16.068359 L 23.226562 16.03125 C 23.203698 15.989332 23.164113 15.966969 23.125 15.945312 L 23.101562 15.904297 C 23.077954 15.861014 23.036834 15.836086 22.996094 15.814453 L 22.974609 15.779297 C 22.951939 15.737734 22.911738 15.715014 22.873047 15.693359 L 22.847656 15.650391 C 22.823793 15.606641 22.781534 15.58216 22.740234 15.560547 L 22.71875 15.523438 C 22.694466 15.478917 22.653553 15.453209 22.611328 15.431641 L 22.589844 15.394531 C 22.566033 15.350879 22.525559 15.326305 22.484375 15.304688 L 22.460938 15.263672 C 22.436904 15.21961 22.39519 15.195425 22.353516 15.173828 L 22.330078 15.134766 C 22.305321 15.089378 22.263973 15.062514 22.220703 15.041016 L 22.199219 15.003906 C 22.174935 14.959386 22.134022 14.933677 22.091797 14.912109 L 22.068359 14.871094 C 22.044027 14.826485 22.001316 14.800859 21.958984 14.779297 L 21.935547 14.738281 C 21.910277 14.691953 21.866672 14.663979 21.822266 14.642578 L 21.800781 14.605469 C 21.776497 14.560948 21.735585 14.53524 21.693359 14.513672 L 21.667969 14.470703 C 21.643677 14.426168 21.600837 14.402426 21.558594 14.380859 L 21.533203 14.335938 C 21.507967 14.289672 21.464253 14.263596 21.419922 14.242188 L 21.396484 14.201172 C 21.371727 14.155784 21.33038 14.128921 21.287109 14.107422 L 21.261719 14.064453 C 21.236918 14.018984 21.193758 13.992194 21.150391 13.970703 L 21.125 13.927734 C 21.099261 13.880546 21.055214 13.851369 21.009766 13.830078 L 20.986328 13.791016 C 20.960369 13.743424 20.917032 13.714592 20.871094 13.693359 L 20.847656 13.652344 C 20.822171 13.60562 20.779261 13.577993 20.734375 13.556641 L 20.708984 13.511719 C 20.683277 13.464588 20.639129 13.437315 20.59375 13.416016 L 20.568359 13.373047 C 20.541927 13.324588 20.498165 13.29453 20.451172 13.273438 L 20.427734 13.232422 C 20.401775 13.18483 20.358438 13.155998 20.3125 13.134766 L 20.287109 13.089844 C 20.261116 13.042188 20.215938 13.01341 20.169922 12.992188 L 20.144531 12.947266 C 20.118823 12.900135 20.074676 12.872861 20.029297 12.851562 L 20.001953 12.804688 C 19.975021 12.755313 19.928969 12.724047 19.880859 12.703125 L 19.857422 12.662109 C 19.830043 12.611915 19.785438 12.579344 19.736328 12.558594 L 19.712891 12.517578 C 19.686241 12.46872 19.643183 12.437036 19.595703 12.416016 L 19.568359 12.371094 C 19.541449 12.321759 19.495327 12.292414 19.447266 12.271484 L 19.421875 12.226562 C 19.394496 12.176368 19.349891 12.143797 19.300781 12.123047 L 19.275391 12.080078 C 19.248485 12.030752 19.204301 11.999447 19.15625 11.978516 L 19.128906 11.931641 C 19.101975 11.882266 19.055922 11.851 19.007812 11.830078 L 18.980469 11.783203 C 18.920469 11.673203 18.78578 11.628828 18.675781 11.673828 L 18.03125 11.933594 C 18.013137 11.919733 17.988281 11.918788 17.966797 11.910156 C 17.942429 11.842215 17.892883 11.796238 17.826172 11.769531 C 17.801804 11.70159 17.752258 11.655613 17.685547 11.628906 C 17.660927 11.560264 17.610656 11.512738 17.542969 11.486328 C 17.518349 11.417685 17.468077 11.37016 17.400391 11.34375 C 17.375771 11.275107 17.325499 11.227582 17.257812 11.201172 C 17.233663 11.131426 17.181659 11.085384 17.113281 11.058594 C 17.089418 10.988073 17.037666 10.941063 16.96875 10.914062 C 16.944649 10.842839 16.892159 10.79426 16.822266 10.767578 C 16.798402 10.697057 16.746651 10.650048 16.677734 10.623047 C 16.654339 10.551305 16.601013 10.503895 16.53125 10.476562 C 16.507624 10.404114 16.453556 10.355132 16.382812 10.328125 C 16.349733 10.226688 16.262453 10.148438 16.150391 10.148438 L 14.150391 10.148438 z "
       transform="matrix(0.9375,0,0,0.9375,-5.6249779,-1.2791717)"
       id="path1160"
       clip-path="url(#clipPath2042)" />
    <path
       inkscape:connector-curvature="0"
       d="m 8.438558,14.423952 a 1.6406247,1.6406247 0 0 1 -1.6406246,-1.640625 1.6406247,1.6406247 0 0 1 1.6406246,-1.640625 1.6406247,1.6406247 0 0 1 1.640625,1.640625 1.6406247,1.6406247 0 0 1 -1.640625,1.640625 m 3.482812,-1.185938 c 0.01875,-0.15 0.03281,-0.3 0.03281,-0.454687 0,-0.154688 -0.01406,-0.309375 -0.03281,-0.46875 l 0.989062,-0.764062 c 0.08906,-0.07031 0.1125,-0.196875 0.05625,-0.3 L 12.029183,9.6286405 C 11.972933,9.5255156 11.84637,9.4833281 11.743246,9.5255156 L 10.576058,9.9942653 C 10.332308,9.8114533 10.079183,9.652078 9.7838704,9.5348906 L 9.6104329,8.2927033 c -0.01875,-0.1125 -0.1171876,-0.196875 -0.234375,-0.196875 H 7.5010582 c -0.1171875,0 -0.215625,0.084375 -0.234375,0.196875 L 7.0932458,9.5348906 C 6.7979334,9.652078 6.5448084,9.8114533 6.3010584,9.9942653 L 5.1338711,9.5255156 c -0.1031249,-0.042187 -0.2296874,0 -0.2859374,0.1031249 l -0.9375,1.6218745 c -0.060937,0.103125 -0.032812,0.229687 0.05625,0.3 l 0.9890623,0.764062 c -0.01875,0.159375 -0.032813,0.314062 -0.032813,0.46875 0,0.154687 0.014063,0.304687 0.032813,0.454687 l -0.9890623,0.778125 c -0.089063,0.07031 -0.1171875,0.196875 -0.05625,0.3 l 0.9375,1.621876 c 0.05625,0.103125 0.1828125,0.140625 0.2859374,0.103125 l 1.1671873,-0.473438 c 0.24375,0.1875 0.496875,0.346875 0.7921874,0.464063 l 0.1734374,1.242188 c 0.01875,0.1125 0.1171875,0.196875 0.234375,0.196875 h 1.8749997 c 0.1171874,0 0.215625,-0.08437 0.234375,-0.196875 L 9.7838704,16.031765 C 10.079183,15.90989 10.332308,15.755202 10.576058,15.567702 l 1.167188,0.473438 c 0.103124,0.0375 0.229687,0 0.285937,-0.103125 l 0.937499,-1.621876 c 0.05625,-0.103125 0.03281,-0.229687 -0.05625,-0.3 z"
       id="path4167"
       style="display:inline;fill:#f5f5f5;stroke-width:0.93749982"
       clip-path="url(#clipPath2050)" />
    <path
       style="display:inline;fill:#212121;stroke-width:0.93749982"
       id="path1084"
       d="m 22.501058,28.486452 a 1.6406247,1.6406247 0 0 1 -1.640625,-1.640625 1.6406247,1.6406247 0 0 1 1.640625,-1.640625 1.6406247,1.6406247 0 0 1 1.640625,1.640625 1.6406247,1.6406247 0 0 1 -1.640625,1.640625 m 3.482812,-1.185938 c 0.01875,-0.15 0.03281,-0.3 0.03281,-0.454687 0,-0.154688 -0.01406,-0.309375 -0.03281,-0.46875 l 0.989062,-0.764062 c 0.08906,-0.07031 0.1125,-0.196875 0.05625,-0.3 l -0.937499,-1.621874 c -0.05625,-0.103125 -0.182813,-0.145313 -0.285937,-0.103125 l -1.167188,0.468749 c -0.24375,-0.182812 -0.496875,-0.342187 -0.792188,-0.459374 l -0.173437,-1.242188 c -0.01875,-0.1125 -0.117188,-0.196875 -0.234375,-0.196875 h -1.875 c -0.117187,0 -0.215625,0.08437 -0.234375,0.196875 l -0.173437,1.242188 c -0.295313,0.117187 -0.548438,0.276562 -0.792188,0.459374 l -1.167187,-0.468749 c -0.103125,-0.04219 -0.229687,0 -0.285937,0.103125 l -0.9375,1.621874 c -0.06094,0.103125 -0.03281,0.229687 0.05625,0.3 l 0.989062,0.764062 c -0.01875,0.159375 -0.03281,0.314062 -0.03281,0.46875 0,0.154687 0.01406,0.304687 0.03281,0.454687 l -0.989062,0.778125 c -0.08906,0.07031 -0.117188,0.196875 -0.05625,0.3 l 0.9375,1.621876 c 0.05625,0.103125 0.182812,0.140625 0.285937,0.103125 l 1.167187,-0.473438 c 0.24375,0.1875 0.496875,0.346875 0.792188,0.464063 l 0.173437,1.242188 c 0.01875,0.1125 0.117188,0.196875 0.234375,0.196875 h 1.875 c 0.117187,0 0.215625,-0.08437 0.234375,-0.196875 l 0.173437,-1.242188 c 0.295313,-0.121875 0.548438,-0.276563 0.792188,-0.464063 l 1.167188,0.473438 c 0.103124,0.0375 0.229687,0 0.285937,-0.103125 l 0.937499,-1.621876 c 0.05625,-0.103125 0.03281,-0.229687 -0.05625,-0.3 z"
       inkscape:connector-curvature="0"
       clip-path="url(#clipPath2046)" />
  </g>
</svg>
