<?xml version="1.0" encoding="UTF-8" standalone="no"?>
<!-- Created with Inkscape (http://www.inkscape.org/) -->

<svg
   xmlns:dc="http://purl.org/dc/elements/1.1/"
   xmlns:cc="http://creativecommons.org/ns#"
   xmlns:rdf="http://www.w3.org/1999/02/22-rdf-syntax-ns#"
   xmlns:svg="http://www.w3.org/2000/svg"
   xmlns="http://www.w3.org/2000/svg"
   xmlns:sodipodi="http://sodipodi.sourceforge.net/DTD/sodipodi-0.dtd"
   xmlns:inkscape="http://www.inkscape.org/namespaces/inkscape"
   sodipodi:docname="f_droid.svg"
   inkscape:version="0.92.3 (2405546, 2018-03-11)"
   version="1.1"
   id="svg2"
   viewBox="0 0 20.625 20.625"
   height="22"
   width="22"
   inkscape:export-filename="/home/juergen/Desktop/ic_launcher.png"
   inkscape:export-xdpi="628.36365"
   inkscape:export-ydpi="628.36365">
  <sodipodi:namedview
     inkscape:snap-to-guides="true"
     inkscape:snap-grids="true"
     inkscape:window-maximized="1"
     inkscape:window-y="27"
     inkscape:window-x="0"
     inkscape:window-height="704"
     inkscape:window-width="1366"
     inkscape:guide-bbox="true"
     showguides="false"
     fit-margin-bottom="1"
     fit-margin-right="1"
     fit-margin-left="1"
     fit-margin-top="1"
     showgrid="true"
     inkscape:current-layer="layer2"
     inkscape:document-units="px"
     inkscape:cy="14.86201"
     inkscape:cx="5.602933"
     inkscape:zoom="11.2"
     inkscape:pageshadow="2"
     inkscape:pageopacity="0.0"
     borderopacity="1.0"
     bordercolor="#666666"
     pagecolor="#ffffff"
     id="base"
     units="px">
    <inkscape:grid
       type="xygrid"
       id="grid4138"
       originx="6.5625002"
       originy="18.750001" />
    <sodipodi:guide
       position="11.874978,21.095829"
       orientation="0,1"
       id="guide4140"
       inkscape:locked="false" />
    <sodipodi:guide
       position="11.874978,5.0958282"
       orientation="0,1"
       id="guide4142"
       inkscape:locked="false" />
    <sodipodi:guide
       position="3.874978,13.095829"
       orientation="1,0"
       id="guide4144"
       inkscape:locked="false" />
    <sodipodi:guide
       position="1.8749779,3.0958281"
       orientation="0,20"
       id="guide4146"
       inkscape:locked="false" />
    <sodipodi:guide
       position="21.874978,3.0958281"
       orientation="-20,0"
       id="guide4148"
       inkscape:locked="false" />
    <sodipodi:guide
       position="21.874978,23.095829"
       orientation="0,-20"
       id="guide4150"
       inkscape:locked="false" />
    <sodipodi:guide
       position="1.8749779,23.095829"
       orientation="20,0"
       id="guide4152"
       inkscape:locked="false" />
    <sodipodi:guide
       position="19.874978,13.095829"
       orientation="1,0"
       id="guide4154"
       inkscape:locked="false" />
    <sodipodi:guide
       position="11.874978,13.095829"
       orientation="-0.70710678,0.70710678"
       id="guide4156"
       inkscape:locked="false" />
    <sodipodi:guide
       position="11.874978,13.095829"
       orientation="0.70710678,0.70710678"
       id="guide4158"
       inkscape:locked="false" />
    <sodipodi:guide
       position="5.8749781,13.095829"
       orientation="1,0"
       id="guide4160"
       inkscape:locked="false" />
    <sodipodi:guide
       position="17.874978,13.095829"
       orientation="1,0"
       id="guide4162"
       inkscape:locked="false" />
    <sodipodi:guide
       position="11.874978,19.095829"
       orientation="0,1"
       id="guide4164"
       inkscape:locked="false" />
    <sodipodi:guide
       position="11.874978,7.0958282"
       orientation="0,1"
       id="guide4166"
       inkscape:locked="false" />
    <sodipodi:guide
       position="11.874978,18.095829"
       orientation="0,1"
       id="guide4168"
       inkscape:locked="false" />
    <sodipodi:guide
       position="11.874978,8.0958282"
       orientation="0,1"
       id="guide4170"
       inkscape:locked="false" />
    <sodipodi:guide
       position="6.8749781,13.095829"
       orientation="1,0"
       id="guide4172"
       inkscape:locked="false" />
    <sodipodi:guide
       position="16.874978,13.095829"
       orientation="1,0"
       id="guide4174"
       inkscape:locked="false" />
  </sodipodi:namedview>
  <defs
     id="defs4">
    <clipPath
       id="clipPath12478"
       clipPathUnits="userSpaceOnUse">
      <circle
         r="10"
         cy="10.000005"
         cx="9.9999781"
         id="circle12480"
         style="opacity:1;fill:#2196f3;fill-opacity:1;stroke:none;stroke-width:0.05069799;stroke-miterlimit:4;stroke-dasharray:none;stroke-opacity:1" />
    </clipPath>
    <clipPath
       clipPathUnits="userSpaceOnUse"
       id="clipPath5790">
      <circle
         r="10"
         cy="10.000005"
         cx="9.9999781"
         id="circle5792"
         style="opacity:1;fill:#2196f3;fill-opacity:1;stroke:none;stroke-width:0.05069799;stroke-miterlimit:4;stroke-dasharray:none;stroke-opacity:1"
         inkscape:export-filename="/home/juergen/path4136.png"
         inkscape:export-xdpi="648"
         inkscape:export-ydpi="648" />
    </clipPath>
    <clipPath
       id="clipPath7690"
       clipPathUnits="userSpaceOnUse">
      <circle
         r="10"
         cy="10.000005"
         cx="9.9999781"
         id="circle7692"
         style="opacity:1;fill:#2196f3;fill-opacity:1;stroke:none;stroke-width:0.05069799;stroke-miterlimit:4;stroke-dasharray:none;stroke-opacity:1"
         inkscape:export-filename="/home/juergen/Schreibtisch/path4136.png"
         inkscape:export-xdpi="648"
         inkscape:export-ydpi="648" />
    </clipPath>
    <clipPath
       clipPathUnits="userSpaceOnUse"
       id="clipPath5119">
      <circle
         r="10"
         cy="10.000005"
         cx="9.9999781"
         id="circle5121"
         style="opacity:1;fill:#ff9800;fill-opacity:1;stroke:none;stroke-width:0.05069799;stroke-miterlimit:4;stroke-dasharray:none;stroke-opacity:1"
         inkscape:export-filename="/home/juergen/Schreibtisch/path4136.png"
         inkscape:export-xdpi="648"
         inkscape:export-ydpi="648" />
    </clipPath>
    <clipPath
       id="clipPath3591"
       clipPathUnits="userSpaceOnUse">
      <rect
         y="8.63554"
         x="4.000071"
         height="20"
         width="20"
         id="rect3593"
         style="fill:#ea80fc;fill-opacity:0.95685281;stroke:none;stroke-width:5.75974274;stroke-miterlimit:4;stroke-dasharray:none;stroke-opacity:1"
         inkscape:export-filename="/home/juergen/Desktop/ic_launcher.png"
         inkscape:export-xdpi="691.20001"
         inkscape:export-ydpi="691.20001" />
    </clipPath>
    <clipPath
       id="clipPath3595"
       clipPathUnits="userSpaceOnUse">
      <rect
         y="3.4083283"
         x="-0.93747789"
         height="18.75"
         width="18.75"
         id="rect3597"
         style="fill:#ea80fc;fill-opacity:0.95685281;stroke:none;stroke-width:5.39975882;stroke-miterlimit:4;stroke-dasharray:none;stroke-opacity:1"
         inkscape:export-filename="/home/juergen/Desktop/ic_launcher.png"
         inkscape:export-xdpi="691.20001"
         inkscape:export-ydpi="691.20001" />
    </clipPath>
    <clipPath
       id="clipPath3599"
       clipPathUnits="userSpaceOnUse">
      <rect
         y="3.4083283"
         x="-0.93747789"
         height="18.75"
         width="18.75"
         id="rect3601"
         style="fill:#ea80fc;fill-opacity:0.95685281;stroke:none;stroke-width:5.39975882;stroke-miterlimit:4;stroke-dasharray:none;stroke-opacity:1"
         inkscape:export-filename="/home/juergen/Desktop/ic_launcher.png"
         inkscape:export-xdpi="691.20001"
         inkscape:export-ydpi="691.20001" />
    </clipPath>
    <clipPath
       id="clipPath3603"
       clipPathUnits="userSpaceOnUse">
      <rect
         y="3.4083283"
         x="-0.93747789"
         height="18.75"
         width="18.75"
         id="rect3605"
         style="fill:#ea80fc;fill-opacity:0.95685281;stroke:none;stroke-width:5.39975882;stroke-miterlimit:4;stroke-dasharray:none;stroke-opacity:1"
         inkscape:export-filename="/home/juergen/Desktop/ic_launcher.png"
         inkscape:export-xdpi="691.20001"
         inkscape:export-ydpi="691.20001" />
    </clipPath>
    <clipPath
       id="clipPath3617"
       clipPathUnits="userSpaceOnUse">
      <rect
         y="3.4083283"
         x="-0.93747789"
         height="18.75"
         width="18.75"
         id="rect3619"
         style="fill:#8bc34a;fill-opacity:0.95685281;stroke:none;stroke-width:5.39975882;stroke-miterlimit:4;stroke-dasharray:none;stroke-opacity:1"
         inkscape:export-filename="/home/juergen/Desktop/ic_launcher.png"
         inkscape:export-xdpi="691.20001"
         inkscape:export-ydpi="691.20001"
         ry="0.93749899" />
    </clipPath>
    <clipPath
       id="clipPath3621"
       clipPathUnits="userSpaceOnUse">
      <rect
         y="8.63554"
         x="4.000071"
         height="20"
         width="20"
         id="rect3623"
         style="fill:#8bc34a;fill-opacity:0.95685281;stroke:none;stroke-width:5.75974274;stroke-miterlimit:4;stroke-dasharray:none;stroke-opacity:1"
         inkscape:export-filename="/home/juergen/Desktop/ic_launcher.png"
         inkscape:export-xdpi="691.20001"
         inkscape:export-ydpi="691.20001"
         ry="0.99999893" />
    </clipPath>
    <clipPath
       id="clipPath3627"
       clipPathUnits="userSpaceOnUse">
      <rect
         y="3.4083283"
         x="-0.93747789"
         height="18.75"
         width="18.75"
         id="rect3629"
         style="fill:#8bc34a;fill-opacity:0.95685281;stroke:none;stroke-width:5.39975882;stroke-miterlimit:4;stroke-dasharray:none;stroke-opacity:1"
         inkscape:export-filename="/home/juergen/Desktop/ic_launcher.png"
         inkscape:export-xdpi="691.20001"
         inkscape:export-ydpi="691.20001"
         ry="1.874999" />
    </clipPath>
    <clipPath
       id="clipPath3631"
       clipPathUnits="userSpaceOnUse">
      <rect
         y="8.63554"
         x="4.000071"
         height="20"
         width="20"
         id="rect3633"
         style="fill:#8bc34a;fill-opacity:0.95685281;stroke:none;stroke-width:5.75974274;stroke-miterlimit:4;stroke-dasharray:none;stroke-opacity:1"
         inkscape:export-filename="/home/juergen/Desktop/ic_launcher.png"
         inkscape:export-xdpi="691.20001"
         inkscape:export-ydpi="691.20001"
         ry="1.9999989" />
    </clipPath>
    <clipPath
       clipPathUnits="userSpaceOnUse"
       id="clipPath1784">
      <rect
         y="1"
         x="1"
         height="20"
         width="20"
         id="rect1786"
         style="fill:#4caf50;fill-opacity:0.95685281;stroke:none;stroke-width:5.75974274;stroke-miterlimit:4;stroke-dasharray:none;stroke-opacity:1"
         inkscape:export-filename="/home/juergen/Desktop/ic_launcher.png"
         inkscape:export-xdpi="691.20001"
         inkscape:export-ydpi="691.20001"
         ry="1.9999989" />
    </clipPath>
    <clipPath
       clipPathUnits="userSpaceOnUse"
       id="clipPath1788">
      <rect
         y="3.4083283"
         x="-0.93747789"
         height="18.75"
         width="18.75"
         id="rect1790"
         style="fill:#4caf50;fill-opacity:0.95685281;stroke:none;stroke-width:5.39975882;stroke-miterlimit:4;stroke-dasharray:none;stroke-opacity:1"
         inkscape:export-filename="/home/juergen/Desktop/ic_launcher.png"
         inkscape:export-xdpi="691.20001"
         inkscape:export-ydpi="691.20001"
         ry="1.874999" />
    </clipPath>
    <clipPath
       clipPathUnits="userSpaceOnUse"
       id="clipPath1792">
      <rect
         y="3.4083283"
         x="-0.93747789"
         height="18.75"
         width="18.75"
         id="rect1794"
         style="fill:#4caf50;fill-opacity:0.95685281;stroke:none;stroke-width:5.39975882;stroke-miterlimit:4;stroke-dasharray:none;stroke-opacity:1"
         inkscape:export-filename="/home/juergen/Desktop/ic_launcher.png"
         inkscape:export-xdpi="691.20001"
         inkscape:export-ydpi="691.20001"
         ry="1.874999" />
    </clipPath>
    <clipPath
       clipPathUnits="userSpaceOnUse"
       id="clipPath872">
      <rect
         y="1"
         x="1"
         height="20"
         width="20"
         id="rect874"
         style="fill:#304ffe;fill-opacity:0.95685281;stroke:none;stroke-width:5.75974274;stroke-miterlimit:4;stroke-dasharray:none;stroke-opacity:1"
         inkscape:export-filename="/home/juergen/Desktop/ic_launcher.png"
         inkscape:export-xdpi="691.20001"
         inkscape:export-ydpi="691.20001"
         ry="10" />
    </clipPath>
  </defs>
  <metadata
     id="metadata7">
    <rdf:RDF>
      <cc:Work
         rdf:about="">
        <dc:format>image/svg+xml</dc:format>
        <dc:type
           rdf:resource="http://purl.org/dc/dcmitype/StillImage" />
        <dc:title />
      </cc:Work>
    </rdf:RDF>
  </metadata>
  <g
     inkscape:label="Hintergrund"
     inkscape:groupmode="layer"
     id="layer1"
     transform="translate(1060.0177,-864.40447)" />
  <g
     style="display:inline"
     inkscape:groupmode="layer"
     id="layer2"
     inkscape:label="Icon"
     transform="translate(1.8749779,-2.4708283)">
    <rect
       ry="9.375"
       inkscape:export-ydpi="691.20001"
       inkscape:export-xdpi="691.20001"
       inkscape:export-filename="/home/juergen/Desktop/ic_launcher.png"
       style="fill:#304ffe;fill-opacity:0.95685281;stroke:none;stroke-width:5.39975882;stroke-miterlimit:4;stroke-dasharray:none;stroke-opacity:1"
       id="rect849"
       width="18.75"
       height="18.75"
       x="-0.93747789"
       y="3.4083283" />
    <path
       d="M 3.9999777,4.0333382 H 15.999978 V 15.966671 H 3.9999777 Z"
       id="path4"
       inkscape:connector-curvature="0"
       style="fill:none" />
    <path
       clip-path="url(#clipPath3603)"
       style="fill:none"
       inkscape:connector-curvature="0"
       id="path9754"
       d="m 18.999978,19.033339 h 12 v 11.933333 h -12 z" />
    <path
       clip-path="url(#clipPath3595)"
       style="fill:#212121"
       id="path1785"
       d="m 21.500022,22.845828 h -3 c -0.555,0 -1,0.445 -1,1 v 6 a 1,1 0 0 0 1,1 h 8 a 1,1 0 0 0 1,-1 v -5 c 0,-0.555 -0.45,-1 -1,-1 h -4 z"
       inkscape:connector-curvature="0" />
    <path
       style="display:inline;fill:#212121;stroke-width:0.99999988;opacity:0.2"
       d="M 11.115234 6.171875 C 9.8080767 6.1718752 8.7500005 7.2319052 8.75 8.5390625 C 8.75 8.5390625 7.8066406 8.5541727 7.8066406 8.5683594 C 7.2833159 8.5825354 6.8632812 9.0157366 6.8632812 9.5390625 C 6.8632812 9.5442892 6.8678309 15.205078 6.8730469 15.205078 C 6.8730469 15.510634 7.0322599 15.771053 7.265625 15.943359 C 7.312251 15.996814 7.363942 16.041273 7.421875 16.083984 C 7.4692971 16.137899 7.518858 16.185303 7.578125 16.228516 C 7.6250005 16.280876 7.6739605 16.326757 7.7324219 16.369141 C 7.780938 16.42287 7.8295557 16.472226 7.890625 16.515625 C 7.9369238 16.565472 7.9814708 16.61333 8.0390625 16.654297 C 8.0880107 16.706879 8.135438 16.757888 8.1972656 16.800781 C 8.244507 16.849997 8.2886248 16.896805 8.3476562 16.9375 C 8.3957466 16.987397 8.4374773 17.038772 8.4980469 17.080078 C 8.5460705 17.128973 8.5879861 17.180023 8.6484375 17.220703 C 8.6965269 17.268912 8.7382258 17.319097 8.7988281 17.359375 C 8.8467417 17.406681 8.8849154 17.458325 8.9453125 17.498047 C 8.9932732 17.544912 9.0311665 17.595264 9.0917969 17.634766 C 9.0971005 17.639896 9.1019488 17.64534 9.1074219 17.650391 C 9.131898 17.686586 9.1787237 17.712743 9.2109375 17.746094 C 9.2230908 17.754525 9.22757 17.76729 9.2402344 17.775391 C 9.2402344 17.775391 9.2421875 17.775391 9.2421875 17.775391 C 9.2448611 17.77791 9.2472838 17.780703 9.25 17.783203 C 9.2846307 17.835126 9.3457493 17.875889 9.3964844 17.921875 C 9.4304948 17.972157 9.4893489 18.011915 9.5390625 18.056641 C 9.5728887 18.106478 9.6318148 18.146993 9.6816406 18.191406 C 9.7146352 18.23988 9.7715995 18.278882 9.8203125 18.322266 C 9.8540537 18.372592 9.9116564 18.414078 9.9628906 18.458984 C 9.9962995 18.507996 10.052869 18.547938 10.103516 18.591797 C 10.136141 18.639573 10.190604 18.679744 10.240234 18.722656 C 10.272184 18.769816 10.325872 18.809091 10.375 18.851562 C 10.408406 18.901841 10.464054 18.945243 10.517578 18.990234 C 10.54907 19.035839 10.601605 19.074018 10.650391 19.115234 C 10.682436 19.163079 10.735432 19.204961 10.787109 19.248047 C 10.818891 19.295013 10.870464 19.336534 10.921875 19.378906 C 10.95303 19.424606 11.004238 19.464507 11.054688 19.505859 C 11.085676 19.551907 11.136236 19.593102 11.1875 19.634766 C 11.2184 19.680929 11.268311 19.721902 11.320312 19.763672 C 11.35078 19.808973 11.399626 19.849558 11.451172 19.890625 C 11.481091 19.935214 11.528984 19.975128 11.580078 20.015625 C 11.610087 20.061194 11.658062 20.103214 11.710938 20.144531 C 11.740096 20.188354 11.786766 20.227695 11.837891 20.267578 C 11.867585 20.312857 11.916783 20.355411 11.970703 20.396484 C 11.998903 20.438404 12.041967 20.477325 12.091797 20.515625 C 12.120552 20.560427 12.16844 20.601874 12.222656 20.642578 C 12.25119 20.685983 12.296269 20.728057 12.349609 20.767578 C 12.377124 20.80912 12.419581 20.848739 12.470703 20.886719 C 12.470703 20.886719 12.470703 20.888672 12.470703 20.888672 C 12.498047 20.931092 12.542904 20.969091 12.595703 21.007812 C 12.62309 21.051444 12.667437 21.093088 12.722656 21.132812 C 12.750049 21.17543 12.79272 21.215058 12.847656 21.253906 C 12.874819 21.295889 12.915831 21.334744 12.970703 21.373047 C 12.997843 21.415652 13.039041 21.457288 13.095703 21.496094 C 13.122706 21.536874 13.161699 21.57603 13.216797 21.613281 C 13.243096 21.653746 13.282925 21.693474 13.337891 21.730469 C 13.364083 21.771305 13.402576 21.81232 13.458984 21.849609 C 13.484785 21.889385 13.524532 21.928457 13.580078 21.964844 C 13.605304 22.00432 13.641675 22.043945 13.697266 22.080078 C 13.721852 22.119503 13.758489 22.159221 13.814453 22.195312 C 13.838298 22.233978 13.876487 22.271188 13.931641 22.306641 C 13.954534 22.345902 13.990564 22.383956 14.046875 22.419922 C 14.069328 22.459151 14.107044 22.497278 14.164062 22.533203 C 14.185616 22.57093 14.220622 22.607917 14.275391 22.642578 C 14.295694 22.681445 14.333848 22.718269 14.390625 22.753906 C 14.410381 22.792441 14.446978 22.827937 14.503906 22.863281 C 14.522713 22.901043 14.557423 22.937963 14.613281 22.972656 C 14.631041 23.011045 14.669148 23.046811 14.726562 23.082031 C 14.743585 23.120018 14.778636 23.156535 14.835938 23.191406 C 14.852514 23.229034 14.889701 23.264281 14.947266 23.298828 C 14.962895 23.335777 14.998027 23.37228 15.054688 23.40625 C 15.069466 23.443026 15.107122 23.477906 15.164062 23.511719 C 15.177811 23.547776 15.213688 23.582031 15.269531 23.615234 C 15.281363 23.652318 15.319003 23.686626 15.376953 23.720703 C 15.388167 23.757233 15.42475 23.792581 15.482422 23.826172 C 15.492784 23.862146 15.53074 23.894626 15.587891 23.927734 C 15.596911 23.963598 15.634119 23.99824 15.691406 24.03125 C 15.699643 24.067297 15.738074 24.101627 15.796875 24.134766 C 15.804875 24.169005 15.840987 24.202781 15.896484 24.234375 C 15.901905 24.269821 15.941823 24.301363 16 24.333984 C 16.00457 24.368784 16.042192 24.403488 16.099609 24.435547 C 16.102838 24.467978 16.138301 24.497277 16.189453 24.527344 C 16.194334 24.536067 16.200153 24.533364 16.205078 24.541016 C 16.210353 24.570312 16.239086 24.599634 16.285156 24.626953 C 16.293698 24.642125 16.303827 24.63843 16.3125 24.650391 C 16.320964 24.674445 16.341638 24.698034 16.378906 24.720703 C 16.378906 24.720703 16.378906 24.722656 16.378906 24.722656 C 16.390054 24.742656 16.402693 24.739222 16.414062 24.753906 C 16.423398 24.775501 16.441059 24.795956 16.474609 24.816406 C 16.490625 24.845178 16.506972 24.84723 16.523438 24.865234 C 16.534411 24.881094 16.543674 24.896903 16.568359 24.912109 C 16.584845 24.941286 16.602183 24.944756 16.619141 24.962891 C 16.629788 24.978665 16.639319 24.992689 16.664062 25.007812 C 16.684014 25.042529 16.703979 25.04948 16.724609 25.068359 C 16.734913 25.079782 16.739757 25.090499 16.757812 25.101562 C 16.779736 25.139364 16.801483 25.148768 16.824219 25.167969 C 16.833438 25.177236 16.83506 25.186287 16.849609 25.195312 C 16.873735 25.236532 16.898729 25.24829 16.923828 25.267578 C 16.931448 25.27441 16.930756 25.284319 16.941406 25.291016 C 16.967842 25.335308 16.995852 25.348585 17.023438 25.367188 C 17.027481 25.370389 17.026507 25.373782 17.03125 25.376953 C 17.059889 25.425047 17.089157 25.444112 17.119141 25.462891 C 17.147636 25.510949 17.177194 25.532661 17.207031 25.552734 C 17.236098 25.601362 17.266416 25.624108 17.296875 25.644531 C 17.32478 25.690558 17.353622 25.711457 17.382812 25.732422 C 17.412156 25.780447 17.441899 25.805081 17.472656 25.826172 C 17.500377 25.870164 17.52962 25.891327 17.558594 25.912109 C 17.585983 25.955262 17.613962 25.976796 17.642578 25.998047 C 17.670545 26.041752 17.699272 26.064377 17.728516 26.085938 C 17.755869 26.127827 17.78393 26.150494 17.8125 26.171875 C 17.839514 26.212734 17.866331 26.236316 17.894531 26.257812 C 17.921885 26.29866 17.949949 26.322167 17.978516 26.34375 C 18.00534 26.382997 18.032562 26.406441 18.060547 26.427734 C 18.085968 26.464346 18.112206 26.486775 18.138672 26.507812 C 18.166035 26.547207 18.194084 26.571932 18.222656 26.59375 C 18.247798 26.62882 18.272671 26.653098 18.298828 26.673828 C 18.324818 26.709931 18.351829 26.734645 18.378906 26.755859 C 18.404451 26.790661 18.43044 26.815091 18.457031 26.835938 C 18.482847 26.870659 18.508275 26.897094 18.535156 26.917969 C 18.558903 26.949131 18.582774 26.974304 18.607422 26.994141 C 18.633347 27.028087 18.660502 27.053448 18.6875 27.074219 C 18.711546 27.104857 18.734801 27.130725 18.759766 27.150391 C 18.784035 27.181064 18.808778 27.206746 18.833984 27.226562 C 18.858255 27.256789 18.881043 27.285015 18.90625 27.304688 C 18.930431 27.334198 18.955363 27.359588 18.980469 27.378906 C 19.003951 27.407059 19.026428 27.434304 19.050781 27.453125 C 19.074531 27.481351 19.098406 27.508398 19.123047 27.527344 C 19.145693 27.553712 19.167951 27.58143 19.191406 27.599609 C 19.214593 27.626236 19.237686 27.653612 19.261719 27.671875 C 19.284379 27.697404 19.306612 27.724425 19.330078 27.742188 C 19.352409 27.767041 19.37337 27.796929 19.396484 27.814453 C 19.418892 27.838949 19.441649 27.865506 19.464844 27.882812 C 19.486756 27.906423 19.506632 27.936197 19.529297 27.953125 C 19.551697 27.976958 19.574471 28.004458 19.597656 28.021484 C 19.618928 28.043606 19.640131 28.073688 19.662109 28.089844 C 19.675386 28.10339 19.687615 28.12148 19.701172 28.132812 C 19.701172 28.132812 19.703125 28.134766 19.703125 28.134766 C 19.709577 28.140102 19.716144 28.149491 19.722656 28.154297 C 19.727652 28.160685 19.733237 28.163807 19.738281 28.169922 C 19.746964 28.178168 19.754872 28.189939 19.763672 28.197266 C 19.764426 28.198279 19.76487 28.200164 19.765625 28.201172 C 19.772796 28.207047 19.779865 28.217421 19.787109 28.222656 C 19.79897 28.237429 19.81209 28.246539 19.824219 28.259766 C 19.842197 28.283633 19.86223 28.297956 19.880859 28.318359 C 19.899912 28.343527 19.919665 28.361444 19.939453 28.382812 C 19.959488 28.408874 19.981106 28.42727 20.001953 28.449219 C 20.020588 28.472883 20.03926 28.489566 20.058594 28.509766 C 20.077817 28.533815 20.097221 28.551823 20.117188 28.572266 C 20.134265 28.593215 20.152257 28.608765 20.169922 28.626953 C 20.188867 28.650098 20.20689 28.669639 20.226562 28.689453 C 20.244675 28.711098 20.262475 28.729373 20.28125 28.748047 C 20.298734 28.768639 20.315882 28.786794 20.333984 28.804688 C 20.352093 28.825711 20.3699 28.845092 20.388672 28.863281 C 20.405036 28.881922 20.420594 28.899627 20.4375 28.916016 C 20.455347 28.936221 20.471739 28.95703 20.490234 28.974609 C 20.507197 28.993398 20.52347 29.012825 20.541016 29.029297 C 20.558084 29.047943 20.574137 29.067633 20.591797 29.083984 C 20.608309 29.101691 20.62356 29.121111 20.640625 29.136719 C 20.65826 29.155374 20.675094 29.175101 20.693359 29.191406 C 20.708822 29.20738 20.722335 29.22602 20.738281 29.240234 C 20.753666 29.256002 20.767336 29.274998 20.783203 29.289062 C 20.800995 29.307112 20.815548 29.329898 20.833984 29.345703 C 20.848881 29.360376 20.861608 29.379438 20.876953 29.392578 C 20.892475 29.407752 20.905863 29.427864 20.921875 29.441406 C 20.937297 29.456221 20.950892 29.475045 20.966797 29.488281 C 20.982951 29.503564 20.995036 29.525481 21.011719 29.539062 C 21.025906 29.552167 21.03814 29.570208 21.052734 29.582031 C 21.067594 29.595635 21.078442 29.616682 21.09375 29.628906 C 21.102219 29.636543 21.108571 29.649045 21.117188 29.65625 C 21.12783 29.67243 21.143122 29.68165 21.154297 29.697266 C 21.164297 29.712289 21.177028 29.721799 21.1875 29.736328 C 21.196997 29.750484 21.20687 29.761677 21.216797 29.775391 C 21.228653 29.792951 21.24333 29.8054 21.255859 29.822266 C 21.266054 29.837002 21.278378 29.8471 21.289062 29.861328 C 21.29794 29.873986 21.309111 29.882255 21.318359 29.894531 C 21.32869 29.909203 21.33877 29.921394 21.349609 29.935547 C 21.359101 29.948778 21.370942 29.957907 21.380859 29.970703 C 21.389609 29.982776 21.39909 29.992201 21.408203 30.003906 C 21.418129 30.017522 21.427103 30.029829 21.4375 30.042969 C 21.44571 30.054028 21.454361 30.063481 21.462891 30.074219 C 21.473416 30.088324 21.48504 30.099709 21.496094 30.113281 C 21.503048 30.122381 21.510397 30.1298 21.517578 30.138672 C 21.527736 30.152002 21.538177 30.162945 21.548828 30.175781 C 21.557376 30.186736 21.565328 30.196422 21.574219 30.207031 C 21.580737 30.215269 21.587032 30.222431 21.59375 30.230469 C 21.602025 30.240965 21.608586 30.251547 21.617188 30.261719 C 21.625757 30.272439 21.63366 30.282595 21.642578 30.292969 C 21.650334 30.302497 21.657977 30.311066 21.666016 30.320312 C 21.67322 30.329071 21.680052 30.337187 21.6875 30.345703 C 21.693548 30.352983 21.698859 30.360078 21.705078 30.367188 C 21.713849 30.377727 21.721334 30.38826 21.730469 30.398438 C 21.736273 30.405235 21.742087 30.411327 21.748047 30.417969 C 21.753585 30.424447 21.75799 30.431164 21.763672 30.4375 C 21.770759 30.445785 21.775878 30.45484 21.783203 30.462891 C 21.789407 30.470023 21.794397 30.477421 21.800781 30.484375 C 21.806388 30.490766 21.810653 30.49766 21.816406 30.503906 C 21.822646 30.510962 21.827563 30.518515 21.833984 30.525391 C 21.839323 30.531333 21.844139 30.537158 21.849609 30.542969 C 21.854 30.547819 21.856849 30.553831 21.861328 30.558594 C 21.866927 30.564768 21.871209 30.572095 21.876953 30.578125 C 21.880746 30.582245 21.884813 30.585789 21.888672 30.589844 C 21.893829 30.595447 21.897064 30.601941 21.902344 30.607422 C 21.906553 30.611929 21.909772 30.616667 21.914062 30.621094 C 21.916661 30.623861 21.919245 30.630076 21.921875 30.632812 C 21.926705 30.637955 21.93061 30.643401 21.935547 30.648438 C 21.937172 30.650135 21.937816 30.652612 21.939453 30.654297 C 21.94268 30.657701 21.945943 30.664612 21.949219 30.667969 C 21.952734 30.671628 21.955413 30.676084 21.958984 30.679688 C 21.960243 30.680981 21.961625 30.682307 21.962891 30.683594 C 21.962891 30.683594 21.964844 30.683594 21.964844 30.683594 C 21.965843 30.684642 21.965793 30.686456 21.966797 30.6875 C 21.96781 30.688536 21.967732 30.690375 21.96875 30.691406 C 21.96875 30.691406 21.970703 30.691406 21.970703 30.691406 C 21.973732 30.694521 21.975446 30.698099 21.978516 30.701172 C 21.979526 30.702199 21.981407 30.706008 21.982422 30.707031 C 21.982422 30.707031 21.984375 30.708984 21.984375 30.708984 C 21.985394 30.710016 21.987258 30.713817 21.988281 30.714844 C 21.988281 30.714844 21.990234 30.716797 21.990234 30.716797 C 21.990872 30.71744 21.991548 30.718108 21.992188 30.71875 C 22.077956 30.804828 22.179539 30.873495 22.292969 30.921875 C 22.292969 30.921875 22.294922 30.923828 22.294922 30.923828 C 22.40886 30.972033 22.534523 31 22.666016 31 C 22.666016 31.000013 24.333361 31 26 31 L 29.332031 31 C 29.463528 31 29.589184 30.972021 29.703125 30.923828 C 29.81757 30.875422 29.919451 30.805451 30.005859 30.71875 C 30.177535 30.546494 30.285156 30.309286 30.285156 30.046875 L 30.285156 27.189453 C 30.285156 25.760904 30.285169 24.332031 30.285156 24.332031 C 30.285156 24.067164 30.177197 23.830311 30.003906 23.658203 C 30.003522 23.657821 30.002338 23.658584 30.001953 23.658203 C 30.001953 23.658203 30.001953 23.65625 30.001953 23.65625 C 30.001546 23.655841 30.002361 23.654705 30.001953 23.654297 C 30.000319 23.65266 29.997739 23.652016 29.996094 23.650391 C 29.996094 23.650391 29.996094 23.648438 29.996094 23.648438 C 29.993167 23.645488 29.989293 23.643536 29.986328 23.640625 C 29.985304 23.639604 29.983451 23.639688 29.982422 23.638672 C 29.982422 23.638672 29.982422 23.636719 29.982422 23.636719 C 29.982422 23.636719 29.980469 23.634766 29.980469 23.634766 C 29.979441 23.633741 29.977595 23.633832 29.976562 23.632812 C 29.974268 23.630505 29.973021 23.627284 29.970703 23.625 C 29.968154 23.62243 29.965469 23.619728 29.962891 23.617188 C 29.959323 23.613592 29.952843 23.609007 29.949219 23.605469 C 29.949219 23.605469 29.947266 23.603516 29.947266 23.603516 C 29.942958 23.599134 29.937985 23.596094 29.933594 23.591797 C 29.928895 23.587029 29.924719 23.582793 29.919922 23.578125 C 29.916867 23.575053 29.913252 23.573342 29.910156 23.570312 C 29.906858 23.566966 29.905691 23.561891 29.902344 23.558594 C 29.896527 23.552643 29.890736 23.546811 29.884766 23.541016 C 29.88082 23.537038 29.875109 23.535157 29.871094 23.53125 C 29.866157 23.526212 29.862469 23.520552 29.857422 23.515625 C 29.852474 23.510591 29.846856 23.506875 29.841797 23.501953 C 29.835473 23.495497 29.828771 23.490647 29.822266 23.484375 C 29.81731 23.479345 29.81366 23.473667 29.808594 23.46875 C 29.802777 23.462798 29.796987 23.456967 29.791016 23.451172 C 29.784828 23.444841 29.777847 23.439748 29.771484 23.433594 C 29.764929 23.426863 29.758706 23.420594 29.751953 23.414062 C 29.744398 23.406305 29.736334 23.40007 29.728516 23.392578 C 29.721548 23.385464 29.714221 23.379935 29.707031 23.373047 C 29.700719 23.366603 29.693994 23.361728 29.6875 23.355469 C 29.679943 23.347681 29.673837 23.339551 29.666016 23.332031 C 29.658223 23.323983 29.650654 23.316357 29.642578 23.308594 C 29.634775 23.300534 29.627228 23.29293 29.619141 23.285156 C 29.610324 23.276048 29.600976 23.268507 29.591797 23.259766 C 29.583223 23.250958 29.573368 23.244789 29.564453 23.236328 C 29.557149 23.228799 29.550523 23.222121 29.542969 23.214844 C 29.533225 23.204644 29.525822 23.193338 29.515625 23.183594 C 29.505573 23.173145 29.494905 23.164262 29.484375 23.154297 C 29.47494 23.144547 29.464932 23.136278 29.455078 23.126953 C 29.446265 23.117844 29.436914 23.1103 29.427734 23.101562 C 29.416964 23.090325 29.405856 23.080989 29.394531 23.070312 C 29.385362 23.060801 29.376757 23.052076 29.367188 23.042969 C 29.356448 23.031695 29.345282 23.022431 29.333984 23.011719 C 29.323264 23.00049 29.31401 22.989184 29.302734 22.978516 C 29.291133 22.966334 29.279833 22.95488 29.267578 22.943359 C 29.257181 22.932542 29.245292 22.924353 29.234375 22.914062 C 29.222033 22.901052 29.210353 22.88921 29.197266 22.876953 C 29.185495 22.864661 29.172598 22.85536 29.160156 22.84375 C 29.148778 22.831825 29.138964 22.819879 29.126953 22.808594 C 29.114762 22.795708 29.102771 22.783628 29.089844 22.771484 C 29.07669 22.757581 29.062839 22.745457 29.048828 22.732422 C 29.036232 22.719188 29.023144 22.707753 29.009766 22.695312 C 28.997808 22.682744 28.985321 22.672008 28.972656 22.660156 C 28.958763 22.645407 28.944548 22.632909 28.929688 22.619141 C 28.917 22.605753 28.904117 22.594604 28.890625 22.582031 C 28.876164 22.56662 28.863176 22.551449 28.847656 22.537109 C 28.834479 22.523164 28.820693 22.511105 28.806641 22.498047 C 28.792563 22.483001 28.778764 22.4691 28.763672 22.455078 C 28.74863 22.438999 28.732998 22.425061 28.716797 22.410156 C 28.702898 22.395385 28.688714 22.382912 28.673828 22.369141 C 28.658424 22.352603 28.643588 22.337559 28.626953 22.322266 C 28.611496 22.305728 28.594818 22.292627 28.578125 22.277344 C 28.563685 22.261933 28.550677 22.246738 28.535156 22.232422 C 28.518909 22.214918 28.502009 22.199693 28.484375 22.183594 C 28.469321 22.167478 28.45374 22.153586 28.4375 22.138672 C 28.420593 22.120388 28.403191 22.104637 28.384766 22.087891 C 28.368397 22.070294 28.35177 22.05522 28.333984 22.039062 C 28.317326 22.021143 28.301334 22.004703 28.283203 21.988281 C 28.267195 21.971022 28.249801 21.957277 28.232422 21.941406 C 28.213933 21.921299 28.196119 21.902992 28.175781 21.884766 C 28.160074 21.867921 28.143981 21.853393 28.126953 21.837891 C 28.109471 21.81882 28.091425 21.802531 28.072266 21.785156 C 28.053276 21.764361 28.034653 21.745338 28.013672 21.726562 C 27.997097 21.70866 27.979013 21.694114 27.960938 21.677734 C 27.941944 21.656908 27.923349 21.637927 27.902344 21.619141 C 27.884645 21.599809 27.867104 21.582015 27.847656 21.564453 C 27.828458 21.54334 27.808387 21.524865 27.787109 21.505859 C 27.768075 21.485053 27.747633 21.467953 27.726562 21.449219 C 27.708179 21.429045 27.690226 21.410808 27.669922 21.392578 C 27.649435 21.369926 27.628366 21.35028 27.605469 21.330078 C 27.587051 21.30992 27.56723 21.293582 27.546875 21.275391 C 27.526697 21.252969 27.506931 21.232905 27.484375 21.212891 C 27.464874 21.191296 27.445552 21.171688 27.423828 21.152344 C 27.402498 21.128554 27.379488 21.10895 27.355469 21.087891 C 27.336161 21.066625 27.316414 21.048344 27.294922 21.029297 C 27.273248 21.004983 27.251062 20.984341 27.226562 20.962891 C 27.205779 20.939736 27.185483 20.918964 27.162109 20.898438 C 27.141177 20.875038 27.119287 20.854696 27.095703 20.833984 C 27.07414 20.809854 27.051735 20.788834 27.027344 20.767578 C 27.005742 20.74339 26.983441 20.722457 26.958984 20.701172 C 26.937061 20.676597 26.913553 20.656329 26.888672 20.634766 C 26.866813 20.610158 26.845147 20.587993 26.820312 20.566406 C 26.797897 20.541081 26.773621 20.520164 26.748047 20.498047 C 26.725642 20.472778 26.703304 20.449783 26.677734 20.427734 C 26.65514 20.402177 26.631311 20.379676 26.605469 20.357422 C 26.583454 20.33249 26.560282 20.31084 26.535156 20.289062 C 26.511389 20.261793 26.486453 20.238362 26.458984 20.214844 C 26.435109 20.187638 26.410405 20.164039 26.382812 20.140625 C 26.360435 20.115213 26.336205 20.094346 26.310547 20.072266 C 26.285613 20.043447 26.259582 20.018711 26.230469 19.994141 C 26.207566 19.967981 26.18461 19.944477 26.158203 19.921875 C 26.133437 19.893138 26.107091 19.868227 26.078125 19.84375 C 26.053836 19.81574 26.028321 19.791487 26 19.767578 C 25.975297 19.739048 25.948827 19.715654 25.919922 19.691406 C 25.895021 19.662514 25.86907 19.637772 25.839844 19.613281 C 25.814415 19.58375 25.78778 19.558101 25.757812 19.533203 C 25.732884 19.504316 25.707046 19.479492 25.677734 19.455078 C 25.65269 19.425826 25.625253 19.401626 25.595703 19.376953 C 25.569794 19.346495 25.542518 19.320404 25.511719 19.294922 C 25.4858 19.264421 25.458588 19.238368 25.427734 19.212891 C 25.401825 19.182346 25.37464 19.156336 25.34375 19.130859 C 25.317879 19.100305 25.290652 19.074281 25.259766 19.048828 C 25.233488 19.0175 25.205386 18.990817 25.173828 18.964844 C 25.146927 18.932709 25.11842 18.905363 25.085938 18.878906 C 25.059101 18.846848 25.030481 18.819327 24.998047 18.792969 C 24.970304 18.759762 24.940022 18.732114 24.90625 18.705078 C 24.87989 18.673758 24.852119 18.646847 24.820312 18.621094 C 24.793024 18.588037 24.763799 18.560127 24.730469 18.533203 C 24.702632 18.499407 24.672857 18.470691 24.638672 18.443359 C 24.610569 18.409239 24.579543 18.380978 24.544922 18.353516 C 24.51815 18.321183 24.489743 18.29386 24.457031 18.267578 C 24.42803 18.231692 24.39562 18.202347 24.359375 18.173828 C 24.331583 18.139958 24.301949 18.111132 24.267578 18.083984 C 24.23934 18.049165 24.209032 18.019915 24.173828 17.992188 C 24.145275 17.956652 24.113958 17.92658 24.078125 17.898438 C 24.049558 17.862788 24.018372 17.83284 23.982422 17.804688 C 23.952444 17.767174 23.919036 17.73614 23.880859 17.707031 C 23.852093 17.671619 23.821383 17.641008 23.785156 17.613281 C 23.756319 17.577338 23.724048 17.547576 23.6875 17.519531 C 23.657738 17.481783 23.626144 17.449002 23.587891 17.419922 C 23.558094 17.382307 23.524654 17.351124 23.486328 17.322266 C 23.457413 17.285628 23.425771 17.254852 23.388672 17.226562 C 23.358693 17.188065 23.324172 17.156223 23.285156 17.126953 C 23.256008 17.089447 23.223378 17.057979 23.185547 17.029297 C 23.154477 16.988592 23.119373 16.954137 23.078125 16.923828 C 23.048014 16.885222 23.014095 16.85316 22.974609 16.824219 C 22.944766 16.785464 22.910441 16.753639 22.871094 16.724609 C 22.840729 16.684335 22.80625 16.650938 22.765625 16.621094 C 22.735299 16.580707 22.700897 16.547376 22.660156 16.517578 C 22.629418 16.47647 22.594346 16.442121 22.552734 16.412109 C 22.521179 16.369725 22.484591 16.335117 22.441406 16.304688 C 22.410816 16.263962 22.375522 16.230633 22.333984 16.201172 C 22.302918 16.159221 22.267335 16.123719 22.224609 16.09375 C 22.193971 16.052184 22.157456 16.017977 22.115234 15.988281 C 22.083375 15.944451 22.046703 15.907494 22.001953 15.876953 C 21.971303 15.835148 21.935211 15.800955 21.892578 15.771484 C 21.861553 15.72809 21.825193 15.692305 21.78125 15.662109 C 21.749788 15.617388 21.711255 15.581437 21.666016 15.550781 C 21.634835 15.506586 21.597583 15.469645 21.552734 15.439453 C 21.521031 15.393974 21.483762 15.35669 21.4375 15.326172 C 21.405909 15.281047 21.366467 15.244909 21.320312 15.214844 C 21.289066 15.169677 21.251075 15.13155 21.205078 15.101562 C 21.173554 15.055241 21.135024 15.016596 21.087891 14.986328 C 21.056728 14.940209 21.01755 14.903065 20.970703 14.873047 C 20.938957 14.825297 20.898254 14.786193 20.849609 14.755859 C 20.81805 14.708729 20.778804 14.670329 20.730469 14.640625 C 20.698879 14.592502 20.658583 14.551361 20.609375 14.521484 C 20.578346 14.474016 20.538705 14.435683 20.490234 14.40625 C 20.459181 14.357067 20.418968 14.317055 20.369141 14.287109 C 20.337746 14.2369 20.295304 14.195814 20.244141 14.166016 C 20.21292 14.116428 20.17199 14.075962 20.121094 14.046875 C 20.090627 13.997338 20.050364 13.956779 20 13.927734 C 19.969271 13.875685 19.925752 13.8342 19.873047 13.804688 C 19.842713 13.753056 19.800413 13.712581 19.748047 13.683594 C 19.725548 13.644247 19.69438 13.608862 19.658203 13.582031 C 19.642931 13.565821 19.625209 13.55827 19.609375 13.544922 C 19.590164 13.515285 19.568689 13.488515 19.541016 13.466797 C 19.514 13.437176 19.485802 13.413307 19.457031 13.392578 C 19.445908 13.378988 19.439014 13.366988 19.425781 13.355469 C 19.393327 13.318241 19.361242 13.284359 19.326172 13.259766 C 19.317803 13.25002 19.312259 13.241028 19.302734 13.232422 C 19.26598 13.189776 19.231543 13.147885 19.191406 13.121094 C 19.187992 13.117485 19.185231 13.114761 19.181641 13.111328 C 19.142463 13.065064 19.105603 13.018904 19.0625 12.990234 C 19.021033 12.940263 18.981525 12.888121 18.935547 12.857422 C 18.893737 12.807293 18.853069 12.755744 18.806641 12.724609 C 18.76443 12.674496 18.722712 12.623157 18.675781 12.591797 C 18.634097 12.542661 18.595154 12.490421 18.548828 12.458984 C 18.505769 12.408388 18.466019 12.352549 18.417969 12.320312 C 18.375789 12.271341 18.336055 12.217496 18.289062 12.185547 C 18.245165 12.134796 18.203442 12.079689 18.154297 12.046875 C 18.111327 11.997832 18.071459 11.942596 18.023438 11.910156 C 17.979589 11.860348 17.939783 11.802544 17.890625 11.769531 C 17.847262 11.720773 17.80836 11.66372 17.759766 11.630859 C 17.714913 11.580541 17.67356 11.523993 17.623047 11.490234 C 17.578228 11.440583 17.538777 11.3813 17.488281 11.347656 C 17.444056 11.299244 17.40526 11.240365 17.355469 11.207031 C 17.350769 11.201894 17.346567 11.196389 17.341797 11.191406 C 17.308757 11.139977 17.264859 11.110582 17.226562 11.068359 C 17.226562 11.068359 17.224609 11.066406 17.224609 11.066406 C 17.217695 11.058828 17.210194 11.052173 17.203125 11.044922 C 17.169401 10.993202 17.125159 10.96231 17.085938 10.919922 C 17.085938 10.919922 17.083984 10.919922 17.083984 10.919922 C 17.077959 10.913429 17.072549 10.906644 17.066406 10.900391 C 17.026282 10.839487 16.975622 10.799797 16.927734 10.751953 C 16.887709 10.692003 16.836884 10.652781 16.789062 10.605469 C 16.749294 10.546501 16.699922 10.505794 16.652344 10.458984 C 16.611228 10.398354 16.559384 10.35647 16.509766 10.308594 C 16.468831 10.24911 16.418579 10.207348 16.369141 10.160156 C 16.327574 10.100316 16.278988 10.055257 16.228516 10.007812 C 16.186623 9.9482026 16.136998 9.9027885 16.085938 9.8554688 C 16.04432 9.7969707 15.99611 9.7517525 15.945312 9.7050781 C 15.902574 9.6452961 15.85343 9.5982963 15.800781 9.5507812 C 15.758033 9.4916904 15.711025 9.4435897 15.658203 9.3964844 C 15.615523 9.3381045 15.568536 9.2888834 15.515625 9.2421875 C 15.472793 9.1839656 15.426451 9.1345511 15.373047 9.0878906 C 15.328558 9.0275116 15.280859 8.9757592 15.224609 8.9277344 C 15.051771 8.6979496 14.794776 8.5390625 14.492188 8.5390625 C 14.492188 8.5338358 14.487649 8.5292969 14.482422 8.5292969 L 14.472656 8.5292969 C 14.472656 8.5231775 14.243457 8.521773 14.019531 8.5175781 C 13.985373 8.4668036 13.947991 8.4201346 13.910156 8.3730469 C 13.8497 8.2793693 13.787438 8.1873909 13.714844 8.1054688 C 13.677321 8.0531145 13.643183 7.9977289 13.601562 7.9492188 C 13.563233 7.8940964 13.527254 7.8382843 13.484375 7.7871094 C 13.445427 7.7297454 13.407169 7.6725176 13.363281 7.6191406 C 13.326826 7.5644449 13.290967 7.5102927 13.25 7.4589844 C 13.213258 7.4023677 13.174379 7.3481663 13.132812 7.2949219 C 13.034596 7.140038 12.926135 6.9925163 12.792969 6.8632812 C 12.350885 6.4211983 11.740434 6.1718748 11.115234 6.171875 z "
       transform="matrix(0.9375,0,0,0.9375,-1.8749779,2.4708283)"
       id="path923"
       clip-path="url(#clipPath872)" />
    <rect
       style="opacity:1;fill:#ffab00;fill-opacity:0.99746189;stroke:none;stroke-width:6.07322836;stroke-miterlimit:4;stroke-dasharray:none;stroke-opacity:1"
       id="rect1796"
       width="5.625"
       height="2.8125"
       x="5.6250219"
       y="10.908327" />
    <path
       inkscape:connector-curvature="0"
       d="M 8.4375215,13.45297 A 2.2321426,2.2321426 0 0 1 6.2053792,11.220828 h 0.892857 a 1.3392855,1.3392855 0 0 0 1.3392853,1.339286 1.3392855,1.3392855 0 0 0 1.3392858,-1.339286 H 10.669665 A 2.2321426,2.2321426 0 0 1 8.4375215,13.45297 m 0,-4.4642846 A 1.3392855,1.3392855 0 0 1 9.7768073,10.32797 H 7.0982362 A 1.3392855,1.3392855 0 0 1 8.4375215,8.9886854 M 11.562522,10.32797 H 10.669665 A 2.2321426,2.2321426 0 0 0 8.4375215,8.0958283 2.2321426,2.2321426 0 0 0 6.2053792,10.32797 H 5.312522 c -0.4955353,0 -0.8928571,0.397322 -0.8928571,0.892858 v 5.357143 a 0.89285711,0.89285711 0 0 0 0.8928571,0.892857 h 6.25 a 0.89285711,0.89285711 0 0 0 0.892857,-0.892857 v -5.357143 c 0,-0.495536 -0.401787,-0.892858 -0.892857,-0.892858 z"
       id="path5201"
       style="display:inline;fill:#f5f5f5;stroke-width:0.93749988"
       clip-path="url(#clipPath1792)" />
    <path
       style="display:inline;fill:#212121;stroke-width:0.93749988"
       id="path868"
       d="m 22.500022,27.51547 a 2.2321426,2.2321426 0 0 1 -2.232143,-2.232142 h 0.892857 a 1.3392855,1.3392855 0 0 0 1.339286,1.339286 1.3392855,1.3392855 0 0 0 1.339285,-1.339286 h 0.892858 a 2.2321426,2.2321426 0 0 1 -2.232143,2.232142 m 0,-4.464285 a 1.3392855,1.3392855 0 0 1 1.339285,1.339285 h -2.678571 a 1.3392855,1.3392855 0 0 1 1.339286,-1.339285 m 3.125,1.339285 h -0.892857 a 2.2321426,2.2321426 0 0 0 -2.232143,-2.232142 2.2321426,2.2321426 0 0 0 -2.232143,2.232142 h -0.892857 c -0.495535,0 -0.892857,0.397322 -0.892857,0.892858 v 5.357143 a 0.89285711,0.89285711 0 0 0 0.892857,0.892857 h 6.25 a 0.89285711,0.89285711 0 0 0 0.892857,-0.892857 v -5.357143 c 0,-0.495536 -0.401787,-0.892858 -0.892857,-0.892858 z"
       inkscape:connector-curvature="0"
       clip-path="url(#clipPath1788)" />
  </g>
</svg>
