<?xml version="1.0" encoding="UTF-8" standalone="no"?>
<!-- Created with Inkscape (http://www.inkscape.org/) -->

<svg
   xmlns:dc="http://purl.org/dc/elements/1.1/"
   xmlns:cc="http://creativecommons.org/ns#"
   xmlns:rdf="http://www.w3.org/1999/02/22-rdf-syntax-ns#"
   xmlns:svg="http://www.w3.org/2000/svg"
   xmlns="http://www.w3.org/2000/svg"
   xmlns:sodipodi="http://sodipodi.sourceforge.net/DTD/sodipodi-0.dtd"
   xmlns:inkscape="http://www.inkscape.org/namespaces/inkscape"
   sodipodi:docname="gallerie.svg"
   inkscape:version="0.92.2 (5c3e80d, 2017-08-06)"
   version="1.1"
   id="svg2"
   viewBox="0 0 28.125 28.125"
   height="30"
   width="30"
   inkscape:export-filename="/home/juergen/Desktop/ic_launcher_foreground.png"
   inkscape:export-xdpi="460.79999"
   inkscape:export-ydpi="460.79999">
  <sodipodi:namedview
     inkscape:snap-to-guides="true"
     inkscape:snap-grids="true"
     inkscape:window-maximized="1"
     inkscape:window-y="33"
     inkscape:window-x="0"
     inkscape:window-height="699"
     inkscape:window-width="1366"
     inkscape:guide-bbox="true"
     showguides="false"
     fit-margin-bottom="5"
     fit-margin-right="5"
     fit-margin-left="5"
     fit-margin-top="5"
     showgrid="true"
     inkscape:current-layer="layer2"
     inkscape:document-units="px"
     inkscape:cy="15.279609"
     inkscape:cx="15"
     inkscape:zoom="15.839192"
     inkscape:pageshadow="2"
     inkscape:pageopacity="0.0"
     borderopacity="1.0"
     bordercolor="#666666"
     pagecolor="#ffffff"
     id="base"
     units="px">
    <inkscape:grid
       originy="22.500001"
       originx="10.3125"
       id="grid4138"
       type="xygrid" />
    <sodipodi:guide
       inkscape:locked="false"
       id="guide4140"
       orientation="0,1"
       position="15.624978,24.845829" />
    <sodipodi:guide
       inkscape:locked="false"
       id="guide4142"
       orientation="0,1"
       position="15.624978,8.8458282" />
    <sodipodi:guide
       inkscape:locked="false"
       id="guide4144"
       orientation="1,0"
       position="7.624978,16.845829" />
    <sodipodi:guide
       inkscape:locked="false"
       id="guide4146"
       orientation="0,20"
       position="5.6249779,6.8458281" />
    <sodipodi:guide
       inkscape:locked="false"
       id="guide4148"
       orientation="-20,0"
       position="25.624978,6.8458281" />
    <sodipodi:guide
       inkscape:locked="false"
       id="guide4150"
       orientation="0,-20"
       position="25.624978,26.845829" />
    <sodipodi:guide
       inkscape:locked="false"
       id="guide4152"
       orientation="20,0"
       position="5.6249779,26.845829" />
    <sodipodi:guide
       inkscape:locked="false"
       id="guide4154"
       orientation="1,0"
       position="23.624978,16.845829" />
    <sodipodi:guide
       inkscape:locked="false"
       id="guide4156"
       orientation="-0.70710678,0.70710678"
       position="15.624978,16.845829" />
    <sodipodi:guide
       inkscape:locked="false"
       id="guide4158"
       orientation="0.70710678,0.70710678"
       position="15.624978,16.845829" />
    <sodipodi:guide
       inkscape:locked="false"
       id="guide4160"
       orientation="1,0"
       position="9.6249781,16.845829" />
    <sodipodi:guide
       inkscape:locked="false"
       id="guide4162"
       orientation="1,0"
       position="21.624978,16.845829" />
    <sodipodi:guide
       inkscape:locked="false"
       id="guide4164"
       orientation="0,1"
       position="15.624978,22.845829" />
    <sodipodi:guide
       inkscape:locked="false"
       id="guide4166"
       orientation="0,1"
       position="15.624978,10.845828" />
    <sodipodi:guide
       inkscape:locked="false"
       id="guide4168"
       orientation="0,1"
       position="15.624978,21.845829" />
    <sodipodi:guide
       inkscape:locked="false"
       id="guide4170"
       orientation="0,1"
       position="15.624978,11.845828" />
    <sodipodi:guide
       inkscape:locked="false"
       id="guide4172"
       orientation="1,0"
       position="10.624978,16.845829" />
    <sodipodi:guide
       inkscape:locked="false"
       id="guide4174"
       orientation="1,0"
       position="20.624978,16.845829" />
  </sodipodi:namedview>
  <defs
     id="defs4">
    <clipPath
       clipPathUnits="userSpaceOnUse"
       id="clipPath12478">
      <circle
         style="opacity:1;fill:#2196f3;fill-opacity:1;stroke:none;stroke-width:0.05069799;stroke-miterlimit:4;stroke-dasharray:none;stroke-opacity:1"
         id="circle12480"
         cx="9.9999781"
         cy="10.000005"
         r="10" />
    </clipPath>
    <clipPath
       id="clipPath5790"
       clipPathUnits="userSpaceOnUse">
      <circle
         inkscape:export-ydpi="648"
         inkscape:export-xdpi="648"
         inkscape:export-filename="/home/juergen/path4136.png"
         style="opacity:1;fill:#2196f3;fill-opacity:1;stroke:none;stroke-width:0.05069799;stroke-miterlimit:4;stroke-dasharray:none;stroke-opacity:1"
         id="circle5792"
         cx="9.9999781"
         cy="10.000005"
         r="10" />
    </clipPath>
    <clipPath
       clipPathUnits="userSpaceOnUse"
       id="clipPath7690">
      <circle
         inkscape:export-ydpi="648"
         inkscape:export-xdpi="648"
         inkscape:export-filename="/home/juergen/Schreibtisch/path4136.png"
         style="opacity:1;fill:#2196f3;fill-opacity:1;stroke:none;stroke-width:0.05069799;stroke-miterlimit:4;stroke-dasharray:none;stroke-opacity:1"
         id="circle7692"
         cx="9.9999781"
         cy="10.000005"
         r="10" />
    </clipPath>
    <clipPath
       id="clipPath5119"
       clipPathUnits="userSpaceOnUse">
      <circle
         inkscape:export-ydpi="648"
         inkscape:export-xdpi="648"
         inkscape:export-filename="/home/juergen/Schreibtisch/path4136.png"
         style="opacity:1;fill:#ff9800;fill-opacity:1;stroke:none;stroke-width:0.05069799;stroke-miterlimit:4;stroke-dasharray:none;stroke-opacity:1"
         id="circle5121"
         cx="9.9999781"
         cy="10.000005"
         r="10" />
    </clipPath>
    <clipPath
       clipPathUnits="userSpaceOnUse"
       id="clipPath3591">
      <rect
         inkscape:export-ydpi="691.20001"
         inkscape:export-xdpi="691.20001"
         inkscape:export-filename="/home/juergen/Desktop/ic_launcher.png"
         style="fill:#ea80fc;fill-opacity:0.95685281;stroke:none;stroke-width:5.75974274;stroke-miterlimit:4;stroke-dasharray:none;stroke-opacity:1"
         id="rect3593"
         width="20"
         height="20"
         x="4.000071"
         y="8.63554" />
    </clipPath>
    <clipPath
       clipPathUnits="userSpaceOnUse"
       id="clipPath3595">
      <rect
         inkscape:export-ydpi="691.20001"
         inkscape:export-xdpi="691.20001"
         inkscape:export-filename="/home/juergen/Desktop/ic_launcher.png"
         style="fill:#ea80fc;fill-opacity:0.95685281;stroke:none;stroke-width:5.39975882;stroke-miterlimit:4;stroke-dasharray:none;stroke-opacity:1"
         id="rect3597"
         width="18.75"
         height="18.75"
         x="-0.93747789"
         y="3.4083283" />
    </clipPath>
    <clipPath
       clipPathUnits="userSpaceOnUse"
       id="clipPath3599">
      <rect
         inkscape:export-ydpi="691.20001"
         inkscape:export-xdpi="691.20001"
         inkscape:export-filename="/home/juergen/Desktop/ic_launcher.png"
         style="fill:#ea80fc;fill-opacity:0.95685281;stroke:none;stroke-width:5.39975882;stroke-miterlimit:4;stroke-dasharray:none;stroke-opacity:1"
         id="rect3601"
         width="18.75"
         height="18.75"
         x="-0.93747789"
         y="3.4083283" />
    </clipPath>
    <clipPath
       clipPathUnits="userSpaceOnUse"
       id="clipPath3603">
      <rect
         inkscape:export-ydpi="691.20001"
         inkscape:export-xdpi="691.20001"
         inkscape:export-filename="/home/juergen/Desktop/ic_launcher.png"
         style="fill:#ea80fc;fill-opacity:0.95685281;stroke:none;stroke-width:5.39975882;stroke-miterlimit:4;stroke-dasharray:none;stroke-opacity:1"
         id="rect3605"
         width="18.75"
         height="18.75"
         x="-0.93747789"
         y="3.4083283" />
    </clipPath>
    <clipPath
       clipPathUnits="userSpaceOnUse"
       id="clipPath3617">
      <rect
         ry="0.93749899"
         inkscape:export-ydpi="691.20001"
         inkscape:export-xdpi="691.20001"
         inkscape:export-filename="/home/juergen/Desktop/ic_launcher.png"
         style="fill:#8bc34a;fill-opacity:0.95685281;stroke:none;stroke-width:5.39975882;stroke-miterlimit:4;stroke-dasharray:none;stroke-opacity:1"
         id="rect3619"
         width="18.75"
         height="18.75"
         x="-0.93747789"
         y="3.4083283" />
    </clipPath>
    <clipPath
       clipPathUnits="userSpaceOnUse"
       id="clipPath3621">
      <rect
         ry="0.99999893"
         inkscape:export-ydpi="691.20001"
         inkscape:export-xdpi="691.20001"
         inkscape:export-filename="/home/juergen/Desktop/ic_launcher.png"
         style="fill:#8bc34a;fill-opacity:0.95685281;stroke:none;stroke-width:5.75974274;stroke-miterlimit:4;stroke-dasharray:none;stroke-opacity:1"
         id="rect3623"
         width="20"
         height="20"
         x="4.000071"
         y="8.63554" />
    </clipPath>
    <clipPath
       clipPathUnits="userSpaceOnUse"
       id="clipPath3627">
      <rect
         ry="1.874999"
         inkscape:export-ydpi="691.20001"
         inkscape:export-xdpi="691.20001"
         inkscape:export-filename="/home/juergen/Desktop/ic_launcher.png"
         style="fill:#8bc34a;fill-opacity:0.95685281;stroke:none;stroke-width:5.39975882;stroke-miterlimit:4;stroke-dasharray:none;stroke-opacity:1"
         id="rect3629"
         width="18.75"
         height="18.75"
         x="-0.93747789"
         y="3.4083283" />
    </clipPath>
    <clipPath
       clipPathUnits="userSpaceOnUse"
       id="clipPath3631">
      <rect
         ry="1.9999989"
         inkscape:export-ydpi="691.20001"
         inkscape:export-xdpi="691.20001"
         inkscape:export-filename="/home/juergen/Desktop/ic_launcher.png"
         style="fill:#8bc34a;fill-opacity:0.95685281;stroke:none;stroke-width:5.75974274;stroke-miterlimit:4;stroke-dasharray:none;stroke-opacity:1"
         id="rect3633"
         width="20"
         height="20"
         x="4.000071"
         y="8.63554" />
    </clipPath>
    <clipPath
       id="clipPath1784"
       clipPathUnits="userSpaceOnUse">
      <rect
         ry="1.9999989"
         inkscape:export-ydpi="691.20001"
         inkscape:export-xdpi="691.20001"
         inkscape:export-filename="/home/juergen/Desktop/ic_launcher.png"
         style="fill:#ffc107;fill-opacity:0.95685281;stroke:none;stroke-width:5.75974274;stroke-miterlimit:4;stroke-dasharray:none;stroke-opacity:1"
         id="rect1786"
         width="20"
         height="20"
         x="1"
         y="1" />
    </clipPath>
    <clipPath
       id="clipPath1788"
       clipPathUnits="userSpaceOnUse">
      <rect
         ry="1.874999"
         inkscape:export-ydpi="691.20001"
         inkscape:export-xdpi="691.20001"
         inkscape:export-filename="/home/juergen/Desktop/ic_launcher.png"
         style="fill:#ffc107;fill-opacity:0.95685281;stroke:none;stroke-width:5.39975882;stroke-miterlimit:4;stroke-dasharray:none;stroke-opacity:1"
         id="rect1790"
         width="18.75"
         height="18.75"
         x="-0.93747789"
         y="3.4083283" />
    </clipPath>
    <clipPath
       id="clipPath1792"
       clipPathUnits="userSpaceOnUse">
      <rect
         ry="1.874999"
         inkscape:export-ydpi="691.20001"
         inkscape:export-xdpi="691.20001"
         inkscape:export-filename="/home/juergen/Desktop/ic_launcher.png"
         style="fill:#ffc107;fill-opacity:0.95685281;stroke:none;stroke-width:5.39975882;stroke-miterlimit:4;stroke-dasharray:none;stroke-opacity:1"
         id="rect1794"
         width="18.75"
         height="18.75"
         x="-0.93747789"
         y="3.4083283" />
    </clipPath>
    <clipPath
       clipPathUnits="userSpaceOnUse"
       id="clipPath2763">
      <rect
         ry="1.9999989"
         inkscape:export-ydpi="691.20001"
         inkscape:export-xdpi="691.20001"
         inkscape:export-filename="/home/juergen/Desktop/ic_launcher.png"
         style="fill:#880e4f;fill-opacity:0.99492385;stroke:none;stroke-width:5.75974274;stroke-miterlimit:4;stroke-dasharray:none;stroke-opacity:1"
         id="rect2765"
         width="20"
         height="20"
         x="1"
         y="1" />
    </clipPath>
    <clipPath
       clipPathUnits="userSpaceOnUse"
       id="clipPath2767">
      <rect
         ry="1.874999"
         inkscape:export-ydpi="691.20001"
         inkscape:export-xdpi="691.20001"
         inkscape:export-filename="/home/juergen/Desktop/ic_launcher.png"
         style="fill:#880e4f;fill-opacity:0.99492385;stroke:none;stroke-width:5.39975882;stroke-miterlimit:4;stroke-dasharray:none;stroke-opacity:1"
         id="rect2769"
         width="18.75"
         height="18.75"
         x="-0.93747789"
         y="3.4083283" />
    </clipPath>
    <clipPath
       clipPathUnits="userSpaceOnUse"
       id="clipPath2771">
      <rect
         ry="1.874999"
         inkscape:export-ydpi="691.20001"
         inkscape:export-xdpi="691.20001"
         inkscape:export-filename="/home/juergen/Desktop/ic_launcher.png"
         style="fill:#880e4f;fill-opacity:0.99492385;stroke:none;stroke-width:5.39975882;stroke-miterlimit:4;stroke-dasharray:none;stroke-opacity:1"
         id="rect2773"
         width="18.75"
         height="18.75"
         x="-0.93747789"
         y="3.4083283" />
    </clipPath>
  </defs>
  <metadata
     id="metadata7">
    <rdf:RDF>
      <cc:Work
         rdf:about="">
        <dc:format>image/svg+xml</dc:format>
        <dc:type
           rdf:resource="http://purl.org/dc/dcmitype/StillImage" />
        <dc:title></dc:title>
      </cc:Work>
    </rdf:RDF>
  </metadata>
  <g
     transform="translate(1063.7677,-860.65447)"
     id="layer1"
     inkscape:groupmode="layer"
     inkscape:label="Hintergrund" />
  <g
     transform="translate(5.6249779,1.2791717)"
     inkscape:label="Icon"
     id="layer2"
     inkscape:groupmode="layer"
     style="display:inline">
    <rect
       y="3.4083283"
       x="-0.93747789"
       height="18.75"
       width="18.75"
       id="rect849"
       style="fill:#4caf50;fill-opacity:0.99492385;stroke:none;stroke-width:5.39975882;stroke-miterlimit:4;stroke-dasharray:none;stroke-opacity:1"
       inkscape:export-filename="/home/juergen/Desktop/ic_launcher.png"
       inkscape:export-xdpi="691.20001"
       inkscape:export-ydpi="691.20001"
       ry="0" />
    <path
       style="fill:none"
       inkscape:connector-curvature="0"
       id="path4"
       d="M 3.9999777,4.0333382 H 15.999978 V 15.966671 H 3.9999777 Z" />
    <path
       d="m 18.999978,19.033339 h 12 v 11.933333 h -12 z"
       id="path9754"
       inkscape:connector-curvature="0"
       style="fill:none"
       clip-path="url(#clipPath3603)" />
    <path
       inkscape:connector-curvature="0"
       d="m 21.500022,22.845828 h -3 c -0.555,0 -1,0.445 -1,1 v 6 a 1,1 0 0 0 1,1 h 8 a 1,1 0 0 0 1,-1 v -5 c 0,-0.555 -0.45,-1 -1,-1 h -4 z"
       id="path1785"
       style="fill:#212121"
       clip-path="url(#clipPath3595)" />
    <path
       clip-path="url(#clipPath1788)"
       style="display:inline;fill:#212121;stroke-width:0.9375"
       id="path868"
       d="m 22.500022,23.010601 -4.6875,2.556818 4.6875,2.556819 3.835227,-2.09233 v 2.944602 h 0.852273 v -3.409091 m -7.670454,1.78125 v 1.704546 l 2.982954,1.627841 2.982954,-1.627841 v -1.704546 l -2.982954,1.627841 z"
       inkscape:connector-curvature="0" />
    <path
       style="display:inline;opacity:0.2;fill:#212121;stroke-width:1"
       d="M 6.1484375,7.9667969 V 14.330078 H 6.296875 v 0.148438 h 0.1484375 v 0.148437 h 0.1464844 v 0.146485 h 0.1445312 v 0.144531 h 0.1464844 v 0.146484 h 0.1445313 v 0.144531 h 0.1425781 v 0.142578 H 7.3125 v 0.142579 h 0.1425781 v 0.142578 h 0.1425781 v 0.142578 h 0.140625 v 0.140625 h 0.1386719 v 0.138672 h 0.140625 v 0.140625 h 0.1367188 v 0.138672 h 0.1386719 v 0.136718 h 0.1367187 v 0.136719 h 0.1367187 v 0.136719 h 0.1347657 v 0.134765 h 0.1347656 v 0.134766 h 0.1347656 v 0.134766 h 0.1328125 v 0.132812 h 0.1328125 v 0.132813 h 0.1328125 v 0.132812 H 9.5 v 0.13086 h 0.1289062 v 0.128906 h 0.1308594 v 0.130859 h 0.1289063 v 0.128906 h 0.1269531 v 0.126954 h 0.126953 v 0.128906 h 0.126953 v 0.125 h 0.126953 v 0.126953 h 0.125 v 0.125 h 0.123047 v 0.125 h 0.125 v 0.123047 h 0.123047 v 0.123047 h 0.121094 v 0.121093 h 0.121094 v 0.121094 h 0.121093 V 19.4375 h 0.121094 v 0.121094 h 0.119141 v 0.11914 h 0.117187 v 0.117188 h 0.117188 v 0.11914 h 0.117187 v 0.115235 h 0.117188 v 0.117187 h 0.115234 v 0.115235 h 0.115234 v 0.115234 h 0.113282 v 0.113281 h 0.113281 v 0.113282 h 0.113281 v 0.113281 h 0.111328 v 0.111328 h 0.111328 v 0.111328 h 0.109376 v 0.109375 h 0.109374 v 0.109375 h 0.109376 v 0.109375 h 0.107421 V 21.375 h 0.107422 v 0.107422 h 0.107422 v 0.107422 h 0.105469 v 0.105468 h 0.105469 v 0.105469 h 0.103515 v 0.103516 h 0.103516 v 0.103515 h 0.103516 v 0.103516 h 0.101562 v 0.101563 h 0.101562 v 0.101562 h 0.101563 v 0.101563 h 0.09961 v 0.09961 h 0.09766 v 0.09961 h 0.09961 v 0.09766 h 0.09766 v 0.09766 h 0.0957 v 0.0957 h 0.09766 v 0.09766 h 0.09375 v 0.0957 h 0.0957 v 0.09375 h 0.09375 v 0.09375 h 0.09375 v 0.09375 h 0.0918 v 0.0918 h 0.0918 v 0.0918 h 0.0918 v 0.0918 h 0.08984 v 0.08984 h 0.08984 v 0.08984 h 0.08789 v 0.08789 h 0.08789 v 0.08789 h 0.08789 v 0.08789 h 0.08594 v 0.08594 h 0.08594 v 0.08594 h 0.08594 v 0.08594 h 0.08398 v 0.08398 h 0.08203 v 0.08398 h 0.08398 v 0.08203 h 0.08203 v 0.08203 h 0.08008 v 0.08203 h 0.08203 v 0.08008 H 16.75 v 0.08008 h 0.07813 v 0.07813 h 0.07813 v 0.07813 h 0.07813 v 0.07813 h 0.07617 v 0.07617 h 0.07617 v 0.07617 h 0.07617 v 0.07617 h 0.07422 v 0.07422 h 0.07422 v 0.07422 h 0.07227 v 0.07227 h 0.07227 v 0.07227 h 0.07227 v 0.07227 h 0.07031 v 0.07031 h 0.07031 v 0.07031 h 0.07031 v 0.07031 h 0.06836 v 0.06836 h 0.06836 v 0.06836 h 0.06641 v 0.06641 h 0.06641 v 0.06641 H 18.125 v 0.06641 h 0.06445 v 0.06445 h 0.06445 v 0.06445 h 0.06445 V 26.5 h 0.0625 v 0.0625 h 0.06055 v 0.0625 h 0.0625 v 0.06055 h 0.06055 v 0.06055 h 0.05859 v 0.05859 h 0.06055 v 0.06055 h 0.05664 v 0.05859 h 0.05859 v 0.05664 h 0.05664 v 0.05664 h 0.05664 v 0.05664 h 0.05469 v 0.05469 h 0.05469 v 0.05469 h 0.05469 v 0.05469 h 0.05273 v 0.05273 h 0.05273 v 0.05273 h 0.05078 v 0.05078 h 0.05078 v 0.05078 h 0.05078 v 0.05078 h 0.04883 v 0.04883 h 0.04883 v 0.04883 h 0.04687 v 0.04687 h 0.04883 v 0.04883 h 0.04492 v 0.04492 h 0.04687 v 0.04687 h 0.04492 v 0.04492 h 0.04297 v 0.04297 h 0.04492 v 0.04492 h 0.04102 v 0.04102 h 0.04297 v 0.04297 h 0.04102 v 0.04102 h 0.04102 v 0.04102 h 0.03906 v 0.03906 h 0.03906 v 0.03906 h 0.03906 v 0.03906 h 0.03711 v 0.03711 h 0.03711 v 0.03711 h 0.03516 v 0.03516 h 0.03516 v 0.03516 h 0.03516 v 0.03516 h 0.0332 v 0.0332 h 0.0332 v 0.0332 h 0.0332 v 0.0332 h 0.03125 v 0.03125 h 0.0293 v 0.03125 h 0.03125 v 0.0293 h 0.0293 v 0.0293 h 0.0293 v 0.0293 h 0.02734 v 0.02734 h 0.02734 v 0.02734 h 0.02539 v 0.02539 h 0.02539 v 0.02539 h 0.02539 v 0.02539 h 0.02344 v 0.02344 h 0.02344 v 0.02344 h 0.02344 v 0.02344 h 0.02148 v 0.02148 h 0.02148 v 0.02148 h 0.01953 v 0.02148 h 0.01953 v 0.01953 h 0.01953 v 0.01758 h 0.01953 v 0.01953 h 0.01563 v 0.01758 h 0.01758 v 0.01563 h 0.01563 v 0.01563 h 0.01562 v 0.01563 h 0.01367 v 0.01367 h 0.01367 v 0.01563 h 0.01367 v 0.01172 h 0.01172 v 0.01172 H 20.916 v 0.01172 h 0.01172 v 0.01172 h 0.0098 v 0.0098 h 0.0098 v 0.0098 h 0.0078 v 0.0078 h 0.0078 v 0.0078 h 0.0078 v 0.0078 h 0.0059 v 0.0059 h 0.0059 v 0.0059 h 0.0039 v 0.0039 h 0.0039 v 0.0039 h 0.0039 v 0.0039 h 0.002 v 0.002 h 0.002 v 0.002 H 21 v 0.002 h 0.908203 v -0.002 -0.925782 h 0.01758 v 0.03711 h 0.03711 v 0.03516 h 0.03516 v 0.03516 h 0.03516 v 0.03516 h 0.0332 v 0.0332 h 0.0332 v 0.0332 h 0.03125 v 0.0332 h 0.0332 v 0.03125 h 0.0293 v 0.03125 h 0.03125 v 0.0293 h 0.0293 v 0.0293 h 0.02734 v 0.0293 h 0.0293 v 0.02734 h 0.02734 v 0.02734 h 0.02539 v 0.02539 h 0.02539 v 0.02539 h 0.02539 v 0.02539 h 0.02344 v 0.02344 h 0.02344 v 0.02344 h 0.02344 v 0.02344 h 0.02148 v 0.02148 h 0.02148 v 0.02148 h 0.01953 v 0.02148 h 0.01953 v 0.01953 h 0.01953 v 0.01758 h 0.01758 v 0.01953 h 0.01758 v 0.01758 h 0.01758 v 0.01563 h 0.01563 v 0.01563 h 0.01563 v 0.01563 h 0.01367 v 0.01367 h 0.01367 v 0.01563 h 0.01367 v 0.01172 h 0.01172 v 0.01172 h 0.01172 v 0.01172 h 0.01172 v 0.01172 h 0.0098 v 0.0098 h 0.0098 v 0.0098 h 0.0078 v 0.0078 h 0.0078 v 0.0078 h 0.0078 v 0.0078 h 0.0059 v 0.0059 h 0.0059 v 0.0059 h 0.0039 v 0.0039 h 0.0039 v 0.0039 h 0.0039 v 0.0039 h 0.002 v 0.002 h 0.002 v 0.002 h 0.002 v 0.002 h 0.908203 v -0.002 -1.173829 c 0.0066,0.0066 0.0164,0.0094 0.02344,0.01563 0.01304,0.01476 0.02618,0.02806 0.04102,0.04102 0.01069,0.01188 0.02133,0.02251 0.0332,0.0332 0.0126,0.01443 0.02475,0.02828 0.03906,0.04102 0.01157,0.013 0.02414,0.02356 0.03711,0.03516 0.01132,0.01266 0.0225,0.02383 0.03516,0.03516 0.01132,0.01266 0.0225,0.02384 0.03516,0.03516 0.01096,0.01225 0.02099,0.02415 0.0332,0.03516 0.01064,0.01182 0.02139,0.02256 0.0332,0.0332 0.01064,0.01181 0.02139,0.02256 0.0332,0.0332 0.01013,0.01112 0.02007,0.02118 0.03125,0.03125 0.01007,0.01118 0.02013,0.02112 0.03125,0.03125 0.0099,0.01085 0.02037,0.01945 0.03125,0.0293 0.0098,0.01085 0.01848,0.02139 0.0293,0.03125 0.0095,0.01041 0.01888,0.0198 0.0293,0.0293 0.009,0.0097 0.01757,0.01843 0.02734,0.02734 0.0091,0.01002 0.01736,0.02013 0.02734,0.0293 0.0086,0.0093 0.01802,0.01679 0.02734,0.02539 0.0083,0.009 0.01636,0.01706 0.02539,0.02539 0.0083,0.009 0.01636,0.01706 0.02539,0.02539 0.008,0.0086 0.01484,0.0174 0.02344,0.02539 0.0076,0.0082 0.01523,0.01581 0.02344,0.02344 0.0076,0.0082 0.01523,0.01581 0.02344,0.02344 0.0074,0.0079 0.01552,0.01409 0.02344,0.02148 0.0071,0.0077 0.01383,0.01434 0.02148,0.02148 0.0068,0.0073 0.01229,0.01468 0.01953,0.02148 0.0065,0.0069 0.01267,0.01308 0.01953,0.01953 0.0065,0.0069 0.01267,0.01308 0.01953,0.01953 0.0064,0.0068 0.01269,0.0131 0.01953,0.01953 0.0059,0.0062 0.01138,0.01175 0.01758,0.01758 0.0055,0.0058 0.0098,0.01209 0.01563,0.01758 0.0055,0.0058 0.01182,0.01015 0.01758,0.01563 0.0052,0.0055 0.01013,0.0104 0.01563,0.01563 0.0049,0.0051 0.0086,0.01075 0.01367,0.01563 0.0045,0.0047 0.009,0.0092 0.01367,0.01367 0.0045,0.0047 0.009,0.0092 0.01367,0.01367 0.0042,0.0044 0.0092,0.0075 0.01367,0.01172 0.004,0.0042 0.0076,0.0077 0.01172,0.01172 0.004,0.0042 0.0076,0.0077 0.01172,0.01172 0.0036,0.0038 0.006,0.0081 0.0098,0.01172 0.0033,0.0034 0.0064,0.0065 0.0098,0.0098 0.0029,0.003 0.0048,0.0069 0.0078,0.0098 0.0025,0.0026 0.0052,0.0053 0.0078,0.0078 0.0025,0.0026 0.0052,0.0053 0.0078,0.0078 0.0023,0.0023 0.0055,0.0036 0.0078,0.0059 0.002,0.0021 0.0038,0.0038 0.0059,0.0059 0.001,10e-4 0.0029,0.0048 0.0039,0.0059 0,0 0.002,0.002 0.002,0.002 0,0 0.002,0.002 0.002,0.002 0,0 0.002,0.002 0.002,0.002 0,0 0.002,0.002 0.002,0.002 0,0 0.002,0.002 0.002,0.002 0,0 0.002,0 0.002,0 0,0 0,0.002 0,0.002 0.0013,0.0013 0.0026,0.0026 0.0039,0.0039 0.03985,0.03985 0.08826,0.07085 0.140625,0.09375 0,0 0.002,0.002 0.002,0.002 0.05505,0.02368 0.114,0.03711 0.177735,0.03711 h 5.455078 C 30.79596,29.181641 31,28.9776 31,28.726562 v -5.455078 c 0,-0.06374 -0.01343,-0.122679 -0.03711,-0.177734 0,0 -0.002,-0.002 -0.002,-0.002 -0.0229,-0.05236 -0.0539,-0.100776 -0.09375,-0.140625 -0.0017,-0.0017 -0.0042,-0.0023 -0.0059,-0.0039 0,0 0,-0.002 0,-0.002 0,0 -0.002,-0.002 -0.002,-0.002 0,0 -0.002,-0.002 -0.002,-0.002 0,0 -0.002,-0.002 -0.002,-0.002 0,0 -0.002,-0.002 -0.002,-0.002 0,0 -0.002,-0.002 -0.002,-0.002 0,0 -0.002,-0.002 -0.002,-0.002 -0.001,-0.001 -0.0029,-9.42e-4 -0.0039,-0.002 -0.003,-0.0031 -0.0066,-0.0068 -0.0098,-0.0098 0,0 -0.002,0 -0.002,0 0,0 0,-0.002 0,-0.002 -0.0029,-0.003 -0.0049,-0.0069 -0.0078,-0.0098 -0.0035,-0.0036 -0.01002,-0.0082 -0.01367,-0.01172 0,0 -0.002,-0.002 -0.002,-0.002 -0.0039,-0.004 -0.0077,-0.0078 -0.01172,-0.01172 -0.0037,-0.0038 -0.0079,-0.0061 -0.01172,-0.0098 -0.004,-0.0042 -0.0076,-0.0077 -0.01172,-0.01172 -0.004,-0.0042 -0.0075,-0.0077 -0.01172,-0.01172 -0.0043,-0.0044 -0.0073,-0.0094 -0.01172,-0.01367 -0.0045,-0.0047 -0.009,-0.0092 -0.01367,-0.01367 -0.0045,-0.0047 -0.009,-0.0092 -0.01367,-0.01367 -0.0049,-0.0051 -0.01052,-0.0088 -0.01563,-0.01367 -0.0052,-0.0055 -0.01013,-0.0104 -0.01563,-0.01563 -0.0062,-0.0065 -0.01293,-0.01142 -0.01953,-0.01758 -0.0049,-0.0051 -0.0085,-0.01076 -0.01367,-0.01563 -0.0051,-0.0054 -0.01028,-0.0105 -0.01563,-0.01563 -0.0076,-0.0082 -0.01523,-0.01581 -0.02344,-0.02344 -0.0049,-0.0051 -0.01052,-0.0088 -0.01563,-0.01367 -0.0074,-0.008 -0.01357,-0.016 -0.02148,-0.02344 -0.0068,-0.0072 -0.01422,-0.01275 -0.02148,-0.01953 -0.0071,-0.0077 -0.01383,-0.01434 -0.02148,-0.02148 -0.0074,-0.0079 -0.01355,-0.01606 -0.02148,-0.02344 -0.0076,-0.0082 -0.0152,-0.01579 -0.02344,-0.02344 -0.0076,-0.0082 -0.0152,-0.01579 -0.02344,-0.02344 -0.008,-0.0086 -0.01676,-0.01547 -0.02539,-0.02344 -0.0083,-0.009 -0.01636,-0.01706 -0.02539,-0.02539 -0.0093,-0.01009 -0.01912,-0.01813 -0.0293,-0.02734 -0.0074,-0.0079 -0.01354,-0.01606 -0.02148,-0.02344 -0.01013,-0.01112 -0.02007,-0.02118 -0.03125,-0.03125 -0.0076,-0.0082 -0.01523,-0.01581 -0.02344,-0.02344 -0.01004,-0.01114 -0.02017,-0.02115 -0.03125,-0.03125 -0.01047,-0.01148 -0.02162,-0.02089 -0.0332,-0.03125 -0.0084,-0.0091 -0.01632,-0.01703 -0.02539,-0.02539 -0.0116,-0.01297 -0.02216,-0.02554 -0.03516,-0.03711 -0.0088,-0.0096 -0.01776,-0.01854 -0.02734,-0.02734 -0.01117,-0.01255 -0.02267,-0.02391 -0.03516,-0.03516 -0.01064,-0.01181 -0.02139,-0.02256 -0.0332,-0.0332 -0.01103,-0.01225 -0.02286,-0.02221 -0.03516,-0.0332 -0.01132,-0.01266 -0.0225,-0.02384 -0.03516,-0.03516 -0.01253,-0.01401 -0.02491,-0.0267 -0.03906,-0.03906 -0.0101,-0.01108 -0.02011,-0.02121 -0.03125,-0.03125 -0.01308,-0.01481 -0.02613,-0.02802 -0.04102,-0.04102 -0.01064,-0.01181 -0.02139,-0.02256 -0.0332,-0.0332 -0.01296,-0.01484 -0.02626,-0.02797 -0.04102,-0.04102 -0.01244,-0.01408 -0.02498,-0.02662 -0.03906,-0.03906 -0.01283,-0.01453 -0.02644,-0.02627 -0.04102,-0.03906 -0.01311,-0.01494 -0.02608,-0.02791 -0.04102,-0.04102 -0.01335,-0.01521 -0.02577,-0.02966 -0.04102,-0.04297 -0.01395,-0.01598 -0.02889,-0.02908 -0.04492,-0.04297 -0.01244,-0.01408 -0.02498,-0.02662 -0.03906,-0.03906 -0.01528,-0.01784 -0.03099,-0.03354 -0.04883,-0.04883 -0.01371,-0.01552 -0.02728,-0.02945 -0.04297,-0.04297 -0.01362,-0.01559 -0.02737,-0.02936 -0.04297,-0.04297 -0.01587,-0.01853 -0.03216,-0.03502 -0.05078,-0.05078 -0.01304,-0.01476 -0.02618,-0.02806 -0.04102,-0.04102 -0.01523,-0.01799 -0.03102,-0.0334 -0.04883,-0.04883 -0.01529,-0.01784 -0.03099,-0.03354 -0.04883,-0.04883 -0.01529,-0.01784 -0.03099,-0.03354 -0.04883,-0.04883 -0.01568,-0.01832 -0.03242,-0.03321 -0.05078,-0.04883 -0.01592,-0.01872 -0.03206,-0.03486 -0.05078,-0.05078 -0.01675,-0.01969 -0.03291,-0.0381 -0.05273,-0.05469 -0.01499,-0.01738 -0.03139,-0.03194 -0.04883,-0.04687 -0.0176,-0.02097 -0.03558,-0.03915 -0.05664,-0.05664 -0.01529,-0.01784 -0.03099,-0.03354 -0.04883,-0.04883 -0.01744,-0.021 -0.03575,-0.03908 -0.05664,-0.05664 -0.01721,-0.02048 -0.03416,-0.03948 -0.05469,-0.05664 -0.01697,-0.02007 -0.03452,-0.03782 -0.05469,-0.05469 -0.0174,-0.0208 -0.03584,-0.03924 -0.05664,-0.05664 -0.01832,-0.02191 -0.03846,-0.04048 -0.06055,-0.05859 -0.01728,-0.02042 -0.03606,-0.0376 -0.05664,-0.05469 -0.01744,-0.021 -0.03575,-0.03908 -0.05664,-0.05664 -0.01878,-0.02306 -0.03766,-0.04352 -0.06055,-0.0625 -0.01836,-0.02211 -0.03837,-0.04031 -0.06055,-0.05859 -0.01943,-0.02358 -0.03876,-0.04521 -0.0625,-0.06445 -0.01781,-0.02133 -0.03721,-0.03889 -0.05859,-0.05664 -0.02025,-0.0249 -0.04139,-0.04628 -0.06641,-0.06641 -0.01801,-0.0217 -0.0369,-0.04058 -0.05859,-0.05859 -0.02006,-0.02494 -0.04159,-0.0462 -0.06641,-0.06641 -0.01964,-0.02411 -0.04034,-0.04482 -0.06445,-0.06445 -0.01987,-0.02439 -0.04001,-0.0466 -0.06445,-0.06641 -0.02004,-0.02473 -0.04168,-0.04637 -0.06641,-0.06641 -0.02004,-0.02473 -0.04168,-0.04637 -0.06641,-0.06641 -0.02038,-0.02515 -0.04314,-0.04612 -0.06836,-0.06641 -0.02063,-0.02564 -0.04272,-0.04773 -0.06836,-0.06836 -0.02086,-0.02593 -0.04238,-0.04951 -0.06836,-0.07031 -0.02086,-0.02606 -0.04429,-0.04745 -0.07031,-0.06836 -0.02111,-0.02656 -0.04387,-0.04907 -0.07031,-0.07031 -0.02161,-0.02718 -0.04508,-0.05066 -0.07227,-0.07227 -0.02145,-0.02698 -0.04532,-0.04882 -0.07227,-0.07031 -0.02169,-0.02749 -0.0449,-0.05044 -0.07227,-0.07227 -0.02218,-0.02811 -0.04611,-0.05204 -0.07422,-0.07422 -0.02218,-0.02811 -0.04611,-0.05204 -0.07422,-0.07422 -0.02241,-0.0284 -0.04576,-0.05383 -0.07422,-0.07617 -0.02257,-0.02874 -0.04743,-0.05361 -0.07617,-0.07617 -0.02256,-0.02874 -0.04743,-0.05361 -0.07617,-0.07617 -0.0229,-0.02917 -0.04888,-0.05337 -0.07812,-0.07617 -0.02313,-0.02968 -0.04845,-0.055 -0.07813,-0.07813 -0.02402,-0.03082 -0.05098,-0.05635 -0.08203,-0.08008 -0.02241,-0.0284 -0.04576,-0.05383 -0.07422,-0.07617 -0.02466,-0.03209 -0.05177,-0.05948 -0.08398,-0.08398 -0.02257,-0.02874 -0.04743,-0.05361 -0.07617,-0.07617 -0.02443,-0.03212 -0.05202,-0.05937 -0.08398,-0.08398 -0.02494,-0.0324 -0.0533,-0.05935 -0.08594,-0.08398 -0.02335,-0.02996 -0.0481,-0.0568 -0.07813,-0.08008 -0.0259,-0.03412 -0.0555,-0.06228 -0.08984,-0.08789 -0.02313,-0.02968 -0.04845,-0.055 -0.07813,-0.07813 -0.02553,-0.03425 -0.0539,-0.06399 -0.08789,-0.08984 -0.02497,-0.03284 -0.0531,-0.06096 -0.08594,-0.08594 -0.0253,-0.03327 -0.05453,-0.06075 -0.08789,-0.08594 -0.02551,-0.0338 -0.0541,-0.06238 -0.08789,-0.08789 -0.02638,-0.03495 -0.05659,-0.06379 -0.0918,-0.08984 -0.02495,-0.03264 -0.05125,-0.06111 -0.08398,-0.08594 -0.02694,-0.03613 -0.05745,-0.06702 -0.09375,-0.09375 -0.02497,-0.03284 -0.0531,-0.06096 -0.08594,-0.08594 -0.02673,-0.0363 -0.05762,-0.06681 -0.09375,-0.09375 -0.02672,-0.03584 -0.05781,-0.0652 -0.09375,-0.0918 -0.02664,-0.03562 -0.05604,-0.06534 -0.0918,-0.0918 -0.02692,-0.03637 -0.05738,-0.06683 -0.09375,-0.09375 -0.02767,-0.03739 -0.05807,-0.07029 -0.0957,-0.09766 -0.02674,-0.0356 -0.05789,-0.06539 -0.09375,-0.0918 -0.02685,-0.03646 -0.05741,-0.06674 -0.09375,-0.09375 -0.02763,-0.03829 -0.05968,-0.06961 -0.09766,-0.09766 -0.02777,-0.038 -0.05965,-0.06988 -0.09766,-0.09766 -0.02799,-0.0383 -0.05929,-0.07171 -0.09766,-0.09961 -0.02799,-0.03849 -0.06116,-0.06962 -0.09961,-0.09766 -0.02889,-0.03961 -0.06162,-0.0731 -0.101562,-0.101562 -0.02726,-0.03703 -0.05868,-0.06844 -0.0957,-0.0957 -0.02891,-0.04056 -0.06314,-0.07437 -0.103516,-0.103515 -0.02861,-0.03964 -0.06192,-0.07295 -0.101562,-0.101563 -0.02893,-0.04008 -0.06333,-0.07277 -0.103516,-0.101562 -0.0291,-0.04063 -0.06289,-0.07441 -0.103516,-0.103516 -0.02932,-0.04093 -0.06252,-0.07625 -0.103515,-0.105469 -0.02919,-0.04053 -0.06283,-0.07452 -0.103516,-0.103515 -0.02975,-0.04174 -0.06557,-0.07587 -0.107422,-0.105469 -0.02968,-0.04153 -0.06379,-0.07599 -0.105468,-0.105469 -0.02991,-0.04229 -0.06513,-0.07751 -0.107422,-0.107422 -0.02991,-0.04229 -0.06513,-0.07751 -0.107422,-0.107422 -0.03012,-0.04259 -0.06476,-0.07935 -0.107422,-0.109374 -0.03024,-0.04296 -0.06641,-0.07914 -0.109375,-0.109376 -0.03055,-0.0434 -0.06781,-0.07898 -0.111328,-0.109374 -0.03049,-0.0432 -0.06602,-0.0791 -0.109375,-0.109376 -0.03153,-0.04515 -0.06977,-0.08217 -0.115235,-0.113281 -0.03027,-0.04279 -0.0645,-0.07928 -0.107421,-0.109375 -0.03127,-0.04535 -0.06997,-0.0819 -0.115235,-0.113281 -0.03138,-0.04527 -0.06793,-0.08396 -0.113281,-0.115234 -0.03127,-0.04488 -0.06824,-0.08222 -0.113281,-0.113282 -0.03148,-0.04565 -0.06959,-0.08376 -0.115235,-0.115234 -0.03178,-0.04609 -0.07097,-0.08361 -0.117187,-0.115234 -0.03203,-0.04681 -0.07034,-0.08521 -0.117188,-0.117188 -0.03127,-0.04535 -0.06997,-0.0819 -0.115234,-0.113281 -0.03311,-0.04939 -0.07366,-0.08994 -0.123047,-0.123047 -0.03189,-0.04601 -0.06894,-0.08567 -0.115234,-0.117187 -0.03172,-0.0466 -0.07079,-0.0852 -0.117188,-0.117188 -0.03289,-0.04932 -0.07393,-0.08986 -0.123047,-0.123047 -0.03226,-0.04776 -0.07155,-0.08665 -0.11914,-0.119141 -0.0334,-0.05008 -0.07492,-0.0916 -0.125,-0.125 -0.03331,-0.04879 -0.07376,-0.08847 -0.123047,-0.121093 -0.03365,-0.04967 -0.07291,-0.09199 -0.123047,-0.125 -0.03254,-0.04779 -0.07318,-0.08677 -0.121094,-0.119141 -0.03386,-0.05132 -0.07568,-0.09302 -0.126953,-0.126953 -0.03366,-0.05034 -0.07449,-0.09158 -0.125,-0.125 -0.03432,-0.05187 -0.07682,-0.09489 -0.128906,-0.128906 -0.03298,-0.04881 -0.07411,-0.08829 -0.123047,-0.121094 -0.03463,-0.05343 -0.07756,-0.098 -0.130859,-0.132813 -0.03416,-0.0511 -0.07547,-0.09333 -0.126954,-0.126953 -0.03437,-0.05207 -0.07666,-0.09478 -0.128906,-0.128906 -0.03492,-0.05347 -0.07916,-0.09619 -0.132812,-0.130859 -0.03432,-0.05187 -0.07682,-0.09489 -0.128907,-0.128906 -0.03402,-0.05208 -0.07704,-0.09458 -0.128906,-0.128907 -0.0351,-0.05487 -0.08012,-0.09935 -0.134765,-0.134765 -0.03492,-0.05388 -0.07893,-0.09789 -0.132813,-0.132813 -0.03512,-0.05419 -0.07853,-0.09977 -0.132813,-0.134765 -0.03481,-0.05399 -0.079,-0.09776 -0.132812,-0.132813 -0.03498,-0.05498 -0.08019,-0.09922 -0.134766,-0.134766 -0.03565,-0.05603 -0.08273,-0.100934 -0.138672,-0.136718 -0.03559,-0.05564 -0.08108,-0.101132 -0.136718,-0.136719 -0.03637,-0.05686 -0.0834,-0.102834 -0.140625,-0.138672 -0.03562,-0.05495 -0.0795,-0.101554 -0.134766,-0.136719 C 17.903552,9.994532 17.857542,9.9490762 17.802193,9.9133915 17.765703,9.8548105 17.718013,9.8075641 17.659615,9.7708134 17.623105,9.7134294 17.576685,9.6662441 17.51899,9.6301884 17.48334,9.5741524 17.43626,9.5292538 17.380318,9.4934696 17.343578,9.4340066 17.295008,9.3860285 17.235787,9.3489384 17.199547,9.2910714 17.152847,9.2448099 17.095162,9.2083134 17.057752,9.1477654 17.009322,9.0971483 16.948678,9.0598759 16.912048,9.0023069 16.864038,8.9553415 16.8061,8.9192509 16.769899,8.8609351 16.722992,8.8122155 16.664062,8.7753906 16.626674,8.7145556 16.576422,8.6663513 16.515625,8.6289062 16.478481,8.5692733 16.428916,8.521312 16.369141,8.484375 16.332396,8.4249115 16.283835,8.3769338 16.224609,8.3398438 16.187009,8.2776697 16.138054,8.2255324 16.076172,8.1875 15.996207,8.05739 15.859231,7.966797 15.695312,7.9667969 h -5.455078 c -0.251038,2e-7 -0.4550778,0.2040402 -0.4550778,0.4550781 v 0.5664062 h -0.03125 V 8.8457031 H 9.609375 V 8.7011719 H 9.4648438 V 8.5546875 H 9.3183594 V 8.4101562 H 9.171875 V 8.2617188 H 9.0234375 V 8.1152344 H 8.8769531 V 7.9667969 H 7.9667969 v 1.0214843 h -0.03125 V 8.8457031 H 7.7910156 V 8.7011719 H 7.6464844 V 8.5546875 H 7.5 V 8.4101562 H 7.3535156 V 8.2617188 H 7.2070312 V 8.1152344 H 7.0585938 V 7.9667969 Z"
       transform="matrix(0.9375,0,0,0.9375,-1.8749779,2.4708283)"
       id="path1895"
       clip-path="url(#clipPath2763)"
       inkscape:connector-curvature="0" />
    <path
       style="fill:#9e9e9e;stroke:none;stroke-width:0.9375px;stroke-linecap:butt;stroke-linejoin:miter;stroke-opacity:1"
       d="m 7.5000221,15.595827 h 4.6874999 l 0.9375,-0.9375 -1.875,-1.875 H 7.5000221 Z"
       id="path2777"
       inkscape:connector-curvature="0"
       sodipodi:nodetypes="cccccc" />
    <path
       style="display:inline;fill:#f5f5f5;stroke-width:0.9375"
       id="path3436"
       d="M 3.7500221,9.8003736 H 4.6022949 V 15.766283 H 3.7500221 V 9.8003736 m 1.7045456,0 H 6.3068406 V 15.766283 H 5.4545677 V 9.8003736 m 7.2443183,0 H 7.5852493 A 0.42613636,0.42613636 0 0 0 7.1591133,10.22651 v 5.113637 a 0.42613636,0.42613636 0 0 0 0.426136,0.426136 h 5.1136367 a 0.42613636,0.42613636 0 0 0 0.426136,-0.426136 V 10.22651 A 0.42613636,0.42613636 0 0 0 12.698886,9.8003736 m -4.6874998,5.1136364 1.0653406,-1.34233 0.7627837,0.916194 1.0653415,-1.37216 1.367898,1.798296 z"
       inkscape:connector-curvature="0"
       clip-path="url(#clipPath2771)" />
    <path
       inkscape:connector-curvature="0"
       d="m 17.812522,23.862874 h 0.852273 v 5.965909 h -0.852273 v -5.965909 m 1.704546,0 h 0.852273 v 5.965909 h -0.852273 v -5.965909 m 7.244318,0 h -5.113637 a 0.42613636,0.42613636 0 0 0 -0.426136,0.426136 v 5.113637 a 0.42613636,0.42613636 0 0 0 0.426136,0.426136 h 5.113637 a 0.42613636,0.42613636 0 0 0 0.426136,-0.426136 V 24.28901 a 0.42613636,0.42613636 0 0 0 -0.426136,-0.426136 m -4.6875,5.113636 1.065341,-1.34233 0.762784,0.916194 1.065341,-1.37216 1.367898,1.798296 z"
       id="path1833"
       style="display:inline;fill:#212121;stroke-width:0.9375"
       clip-path="url(#clipPath2767)" />
  </g>
</svg>
