<?xml version="1.0" encoding="UTF-8" standalone="no"?>
<!-- Created with Inkscape (http://www.inkscape.org/) -->

<svg
   xmlns:dc="http://purl.org/dc/elements/1.1/"
   xmlns:cc="http://creativecommons.org/ns#"
   xmlns:rdf="http://www.w3.org/1999/02/22-rdf-syntax-ns#"
   xmlns:svg="http://www.w3.org/2000/svg"
   xmlns="http://www.w3.org/2000/svg"
   xmlns:sodipodi="http://sodipodi.sourceforge.net/DTD/sodipodi-0.dtd"
   xmlns:inkscape="http://www.inkscape.org/namespaces/inkscape"
   sodipodi:docname="github.svg"
   inkscape:version="0.92.2 (5c3e80d, 2017-08-06)"
   version="1.1"
   id="svg2"
   viewBox="0 0 28.125 28.125"
   height="30"
   width="30"
   inkscape:export-filename="/home/juergen/Desktop/ic_foreground.png"
   inkscape:export-xdpi="460.79999"
   inkscape:export-ydpi="460.79999">
  <sodipodi:namedview
     inkscape:snap-to-guides="true"
     inkscape:snap-grids="true"
     inkscape:window-maximized="1"
     inkscape:window-y="33"
     inkscape:window-x="0"
     inkscape:window-height="699"
     inkscape:window-width="1366"
     inkscape:guide-bbox="true"
     showguides="false"
     fit-margin-bottom="5"
     fit-margin-right="5"
     fit-margin-left="5"
     fit-margin-top="5"
     showgrid="true"
     inkscape:current-layer="layer2"
     inkscape:document-units="px"
     inkscape:cy="12.146385"
     inkscape:cx="8.5137878"
     inkscape:zoom="15.839192"
     inkscape:pageshadow="2"
     inkscape:pageopacity="0.0"
     borderopacity="1.0"
     bordercolor="#666666"
     pagecolor="#ffffff"
     id="base"
     units="px">
    <inkscape:grid
       type="xygrid"
       id="grid4138"
       originx="10.3125"
       originy="22.500001" />
    <sodipodi:guide
       position="15.624978,24.845829"
       orientation="0,1"
       id="guide4140"
       inkscape:locked="false" />
    <sodipodi:guide
       position="15.624978,8.8458282"
       orientation="0,1"
       id="guide4142"
       inkscape:locked="false" />
    <sodipodi:guide
       position="7.624978,16.845829"
       orientation="1,0"
       id="guide4144"
       inkscape:locked="false" />
    <sodipodi:guide
       position="5.6249779,6.8458281"
       orientation="0,20"
       id="guide4146"
       inkscape:locked="false" />
    <sodipodi:guide
       position="25.624978,6.8458281"
       orientation="-20,0"
       id="guide4148"
       inkscape:locked="false" />
    <sodipodi:guide
       position="25.624978,26.845829"
       orientation="0,-20"
       id="guide4150"
       inkscape:locked="false" />
    <sodipodi:guide
       position="5.6249779,26.845829"
       orientation="20,0"
       id="guide4152"
       inkscape:locked="false" />
    <sodipodi:guide
       position="23.624978,16.845829"
       orientation="1,0"
       id="guide4154"
       inkscape:locked="false" />
    <sodipodi:guide
       position="15.624978,16.845829"
       orientation="-0.70710678,0.70710678"
       id="guide4156"
       inkscape:locked="false" />
    <sodipodi:guide
       position="15.624978,16.845829"
       orientation="0.70710678,0.70710678"
       id="guide4158"
       inkscape:locked="false" />
    <sodipodi:guide
       position="9.6249781,16.845829"
       orientation="1,0"
       id="guide4160"
       inkscape:locked="false" />
    <sodipodi:guide
       position="21.624978,16.845829"
       orientation="1,0"
       id="guide4162"
       inkscape:locked="false" />
    <sodipodi:guide
       position="15.624978,22.845829"
       orientation="0,1"
       id="guide4164"
       inkscape:locked="false" />
    <sodipodi:guide
       position="15.624978,10.845828"
       orientation="0,1"
       id="guide4166"
       inkscape:locked="false" />
    <sodipodi:guide
       position="15.624978,21.845829"
       orientation="0,1"
       id="guide4168"
       inkscape:locked="false" />
    <sodipodi:guide
       position="15.624978,11.845828"
       orientation="0,1"
       id="guide4170"
       inkscape:locked="false" />
    <sodipodi:guide
       position="10.624978,16.845829"
       orientation="1,0"
       id="guide4172"
       inkscape:locked="false" />
    <sodipodi:guide
       position="20.624978,16.845829"
       orientation="1,0"
       id="guide4174"
       inkscape:locked="false" />
  </sodipodi:namedview>
  <defs
     id="defs4">
    <clipPath
       id="clipPath12478"
       clipPathUnits="userSpaceOnUse">
      <circle
         r="10"
         cy="10.000005"
         cx="9.9999781"
         id="circle12480"
         style="opacity:1;fill:#2196f3;fill-opacity:1;stroke:none;stroke-width:0.05069799;stroke-miterlimit:4;stroke-dasharray:none;stroke-opacity:1" />
    </clipPath>
    <clipPath
       clipPathUnits="userSpaceOnUse"
       id="clipPath5790">
      <circle
         r="10"
         cy="10.000005"
         cx="9.9999781"
         id="circle5792"
         style="opacity:1;fill:#2196f3;fill-opacity:1;stroke:none;stroke-width:0.05069799;stroke-miterlimit:4;stroke-dasharray:none;stroke-opacity:1"
         inkscape:export-filename="/home/juergen/path4136.png"
         inkscape:export-xdpi="648"
         inkscape:export-ydpi="648" />
    </clipPath>
    <clipPath
       id="clipPath7690"
       clipPathUnits="userSpaceOnUse">
      <circle
         r="10"
         cy="10.000005"
         cx="9.9999781"
         id="circle7692"
         style="opacity:1;fill:#2196f3;fill-opacity:1;stroke:none;stroke-width:0.05069799;stroke-miterlimit:4;stroke-dasharray:none;stroke-opacity:1"
         inkscape:export-filename="/home/juergen/Schreibtisch/path4136.png"
         inkscape:export-xdpi="648"
         inkscape:export-ydpi="648" />
    </clipPath>
    <clipPath
       clipPathUnits="userSpaceOnUse"
       id="clipPath5119">
      <circle
         r="10"
         cy="10.000005"
         cx="9.9999781"
         id="circle5121"
         style="opacity:1;fill:#ff9800;fill-opacity:1;stroke:none;stroke-width:0.05069799;stroke-miterlimit:4;stroke-dasharray:none;stroke-opacity:1"
         inkscape:export-filename="/home/juergen/Schreibtisch/path4136.png"
         inkscape:export-xdpi="648"
         inkscape:export-ydpi="648" />
    </clipPath>
    <clipPath
       id="clipPath3591"
       clipPathUnits="userSpaceOnUse">
      <rect
         y="8.63554"
         x="4.000071"
         height="20"
         width="20"
         id="rect3593"
         style="fill:#ea80fc;fill-opacity:0.95685281;stroke:none;stroke-width:5.75974274;stroke-miterlimit:4;stroke-dasharray:none;stroke-opacity:1"
         inkscape:export-filename="/home/juergen/Desktop/ic_launcher.png"
         inkscape:export-xdpi="691.20001"
         inkscape:export-ydpi="691.20001" />
    </clipPath>
    <clipPath
       id="clipPath3595"
       clipPathUnits="userSpaceOnUse">
      <rect
         y="3.4083283"
         x="-0.93747789"
         height="18.75"
         width="18.75"
         id="rect3597"
         style="fill:#ea80fc;fill-opacity:0.95685281;stroke:none;stroke-width:5.39975882;stroke-miterlimit:4;stroke-dasharray:none;stroke-opacity:1"
         inkscape:export-filename="/home/juergen/Desktop/ic_launcher.png"
         inkscape:export-xdpi="691.20001"
         inkscape:export-ydpi="691.20001" />
    </clipPath>
    <clipPath
       id="clipPath3599"
       clipPathUnits="userSpaceOnUse">
      <rect
         y="3.4083283"
         x="-0.93747789"
         height="18.75"
         width="18.75"
         id="rect3601"
         style="fill:#ea80fc;fill-opacity:0.95685281;stroke:none;stroke-width:5.39975882;stroke-miterlimit:4;stroke-dasharray:none;stroke-opacity:1"
         inkscape:export-filename="/home/juergen/Desktop/ic_launcher.png"
         inkscape:export-xdpi="691.20001"
         inkscape:export-ydpi="691.20001" />
    </clipPath>
    <clipPath
       id="clipPath3603"
       clipPathUnits="userSpaceOnUse">
      <rect
         y="3.4083283"
         x="-0.93747789"
         height="18.75"
         width="18.75"
         id="rect3605"
         style="fill:#ea80fc;fill-opacity:0.95685281;stroke:none;stroke-width:5.39975882;stroke-miterlimit:4;stroke-dasharray:none;stroke-opacity:1"
         inkscape:export-filename="/home/juergen/Desktop/ic_launcher.png"
         inkscape:export-xdpi="691.20001"
         inkscape:export-ydpi="691.20001" />
    </clipPath>
    <clipPath
       id="clipPath3617"
       clipPathUnits="userSpaceOnUse">
      <rect
         y="3.4083283"
         x="-0.93747789"
         height="18.75"
         width="18.75"
         id="rect3619"
         style="fill:#8bc34a;fill-opacity:0.95685281;stroke:none;stroke-width:5.39975882;stroke-miterlimit:4;stroke-dasharray:none;stroke-opacity:1"
         inkscape:export-filename="/home/juergen/Desktop/ic_launcher.png"
         inkscape:export-xdpi="691.20001"
         inkscape:export-ydpi="691.20001"
         ry="0.93749899" />
    </clipPath>
    <clipPath
       id="clipPath3621"
       clipPathUnits="userSpaceOnUse">
      <rect
         y="8.63554"
         x="4.000071"
         height="20"
         width="20"
         id="rect3623"
         style="fill:#8bc34a;fill-opacity:0.95685281;stroke:none;stroke-width:5.75974274;stroke-miterlimit:4;stroke-dasharray:none;stroke-opacity:1"
         inkscape:export-filename="/home/juergen/Desktop/ic_launcher.png"
         inkscape:export-xdpi="691.20001"
         inkscape:export-ydpi="691.20001"
         ry="0.99999893" />
    </clipPath>
    <clipPath
       id="clipPath3627"
       clipPathUnits="userSpaceOnUse">
      <rect
         y="3.4083283"
         x="-0.93747789"
         height="18.75"
         width="18.75"
         id="rect3629"
         style="fill:#8bc34a;fill-opacity:0.95685281;stroke:none;stroke-width:5.39975882;stroke-miterlimit:4;stroke-dasharray:none;stroke-opacity:1"
         inkscape:export-filename="/home/juergen/Desktop/ic_launcher.png"
         inkscape:export-xdpi="691.20001"
         inkscape:export-ydpi="691.20001"
         ry="1.874999" />
    </clipPath>
    <clipPath
       id="clipPath3631"
       clipPathUnits="userSpaceOnUse">
      <rect
         y="8.63554"
         x="4.000071"
         height="20"
         width="20"
         id="rect3633"
         style="fill:#8bc34a;fill-opacity:0.95685281;stroke:none;stroke-width:5.75974274;stroke-miterlimit:4;stroke-dasharray:none;stroke-opacity:1"
         inkscape:export-filename="/home/juergen/Desktop/ic_launcher.png"
         inkscape:export-xdpi="691.20001"
         inkscape:export-ydpi="691.20001"
         ry="1.9999989" />
    </clipPath>
    <clipPath
       clipPathUnits="userSpaceOnUse"
       id="clipPath1792">
      <rect
         y="1"
         x="1"
         height="20"
         width="20"
         id="rect1794"
         style="fill:#ffc107;fill-opacity:0.95685281;stroke:none;stroke-width:5.75974274;stroke-miterlimit:4;stroke-dasharray:none;stroke-opacity:1"
         inkscape:export-filename="/home/juergen/Desktop/ic_launcher.png"
         inkscape:export-xdpi="691.20001"
         inkscape:export-ydpi="691.20001"
         ry="1.9999989" />
    </clipPath>
    <clipPath
       clipPathUnits="userSpaceOnUse"
       id="clipPath1796">
      <rect
         y="3.4083283"
         x="-0.93747789"
         height="18.75"
         width="18.75"
         id="rect1798"
         style="fill:#ffc107;fill-opacity:0.95685281;stroke:none;stroke-width:5.39975882;stroke-miterlimit:4;stroke-dasharray:none;stroke-opacity:1"
         inkscape:export-filename="/home/juergen/Desktop/ic_launcher.png"
         inkscape:export-xdpi="691.20001"
         inkscape:export-ydpi="691.20001"
         ry="1.874999" />
    </clipPath>
    <clipPath
       clipPathUnits="userSpaceOnUse"
       id="clipPath1800">
      <rect
         y="3.4083283"
         x="-0.93747789"
         height="18.75"
         width="18.75"
         id="rect1802"
         style="fill:#ffc107;fill-opacity:0.95685281;stroke:none;stroke-width:5.39975882;stroke-miterlimit:4;stroke-dasharray:none;stroke-opacity:1"
         inkscape:export-filename="/home/juergen/Desktop/ic_launcher.png"
         inkscape:export-xdpi="691.20001"
         inkscape:export-ydpi="691.20001"
         ry="1.874999" />
    </clipPath>
  </defs>
  <metadata
     id="metadata7">
    <rdf:RDF>
      <cc:Work
         rdf:about="">
        <dc:format>image/svg+xml</dc:format>
        <dc:type
           rdf:resource="http://purl.org/dc/dcmitype/StillImage" />
        <dc:title />
      </cc:Work>
    </rdf:RDF>
  </metadata>
  <g
     inkscape:label="Hintergrund"
     inkscape:groupmode="layer"
     id="layer1"
     transform="translate(1063.7677,-860.65447)" />
  <g
     style="display:inline"
     inkscape:groupmode="layer"
     id="layer2"
     inkscape:label="Icon"
     transform="translate(5.6249779,1.2791717)">
    <rect
       ry="0"
       inkscape:export-ydpi="691.20001"
       inkscape:export-xdpi="691.20001"
       inkscape:export-filename="/home/juergen/Desktop/ic_launcher.png"
       style="fill:#009688;fill-opacity:0.95685281;stroke:none;stroke-width:5.39975882;stroke-miterlimit:4;stroke-dasharray:none;stroke-opacity:1"
       id="rect849"
       width="18.75"
       height="18.75"
       x="-0.93747789"
       y="3.4083283" />
    <path
       d="M 3.9999777,4.0333382 H 15.999978 V 15.966671 H 3.9999777 Z"
       id="path4"
       inkscape:connector-curvature="0"
       style="fill:none" />
    <path
       clip-path="url(#clipPath3603)"
       style="fill:none"
       inkscape:connector-curvature="0"
       id="path9754"
       d="m 18.999978,19.033339 h 12 v 11.933333 h -12 z" />
    <path
       clip-path="url(#clipPath3595)"
       style="fill:#212121"
       id="path1785"
       d="m 21.500022,22.845828 h -3 c -0.555,0 -1,0.445 -1,1 v 6 a 1,1 0 0 0 1,1 h 8 a 1,1 0 0 0 1,-1 v -5 c 0,-0.555 -0.45,-1 -1,-1 h -4 z"
       inkscape:connector-curvature="0" />
    <path
       style="display:inline;opacity:0.2;fill:#212121;fill-opacity:1;fill-rule:evenodd;stroke-width:1;stroke-linejoin:round"
       d="m 11.144531,6.2695312 c -2.7591479,0.00426 -4.9960935,2.2426939 -4.9960935,5.0039068 0,1.416551 0.5949038,2.68946 1.5410156,3.599609 0.051705,0.05405 0.1041404,0.106506 0.1582031,0.158203 0.046475,0.0483 0.092258,0.09618 0.140625,0.142578 0.047977,0.04999 0.096484,0.09851 0.1464844,0.146484 0.047683,0.04969 0.096803,0.09684 0.1464844,0.144532 0.047401,0.04937 0.095156,0.09714 0.1445312,0.144531 0.045149,0.04702 0.089778,0.09344 0.1367188,0.138672 0.051037,0.05333 0.1029167,0.10522 0.15625,0.15625 0.042983,0.04459 0.08626,0.08788 0.1308594,0.130859 0.049797,0.05197 0.1003634,0.102554 0.1523437,0.152344 0.044602,0.04627 0.090377,0.09023 0.1367188,0.134766 0.046154,0.04802 0.092601,0.09448 0.140625,0.140625 0.045812,0.04766 0.091018,0.09481 0.1386719,0.140625 0.045483,0.04729 0.091375,0.0932 0.1386718,0.138672 0.043571,0.0453 0.087575,0.08917 0.1328125,0.132812 0.04665,0.04864 0.094013,0.09586 0.1425781,0.142578 0.044822,0.04658 0.090136,0.0919 0.1367188,0.136719 0.04673,0.04856 0.093936,0.09594 0.142578,0.142578 0.04239,0.04388 0.08495,0.08659 0.128906,0.128906 0.04232,0.04396 0.08502,0.08652 0.128907,0.128907 0.04541,0.04729 0.09145,0.0932 0.138671,0.138671 0.04358,0.04523 0.08758,0.08924 0.132813,0.132813 0.04514,0.04686 0.0898,0.0936 0.136719,0.138672 0.04142,0.04285 0.08403,0.08364 0.126953,0.125 0.04298,0.04459 0.08626,0.08788 0.130859,0.130859 0.04269,0.04429 0.08658,0.08621 0.13086,0.128906 0.04202,0.04357 0.08339,0.08688 0.126953,0.128907 0.04298,0.04459 0.08626,0.08788 0.130859,0.130859 0.04169,0.0432 0.08374,0.08527 0.126953,0.126953 0.04173,0.04325 0.0837,0.08523 0.126953,0.126953 0.04135,0.04285 0.08216,0.0856 0.125,0.126953 0.04072,0.04218 0.08283,0.08232 0.125,0.123047 0.04105,0.04255 0.08247,0.08393 0.125,0.125 0.04109,0.04258 0.08243,0.08389 0.125,0.125 0.04044,0.04186 0.08118,0.08261 0.123047,0.123047 0.04048,0.0419 0.08114,0.08258 0.123047,0.123047 0.04006,0.04147 0.07963,0.08298 0.121094,0.123047 0.03789,0.03919 0.0761,0.07729 0.115234,0.115234 0.0429,0.04451 0.08635,0.08797 0.13086,0.13086 0.03765,0.03883 0.07635,0.07569 0.115234,0.113281 0.03922,0.04056 0.07858,0.07992 0.119141,0.119141 0.03881,0.04013 0.07706,0.08033 0.117187,0.11914 0.03855,0.03984 0.07735,0.07865 0.117188,0.117188 0.03663,0.03785 0.07353,0.07464 0.111328,0.111328 0.03974,0.04118 0.07997,0.08129 0.121094,0.121094 0.03981,0.04112 0.07991,0.08136 0.121093,0.121093 0.03348,0.03444 0.06711,0.06809 0.101563,0.101563 0.0394,0.04083 0.07839,0.08162 0.11914,0.121094 0.03884,0.04009 0.07899,0.07841 0.119141,0.117187 0.03351,0.03448 0.06708,0.06806 0.101563,0.101563 0.0404,0.04182 0.08122,0.08265 0.123046,0.123046 0.03221,0.03311 0.06454,0.06545 0.09766,0.09766 0.0404,0.04182 0.08122,0.08265 0.123047,0.123047 0.03221,0.03311 0.06454,0.06545 0.09766,0.09766 0.03944,0.04078 0.07834,0.08167 0.11914,0.121094 0.03351,0.03442 0.06904,0.06617 0.103516,0.09961 0.03504,0.03611 0.06936,0.07238 0.105469,0.107422 0.03282,0.03381 0.06585,0.06674 0.09961,0.09961 0.03851,0.03982 0.07738,0.07866 0.117188,0.117188 0.0306,0.03142 0.06038,0.06314 0.0918,0.09375 0.03627,0.03747 0.07392,0.07305 0.111329,0.109375 0.03412,0.03513 0.06838,0.0694 0.103515,0.103515 0.03378,0.03477 0.06679,0.06973 0.101563,0.103516 0.03344,0.03441 0.06715,0.06812 0.101562,0.101562 0.03536,0.03638 0.07098,0.07212 0.107422,0.107422 0.03096,0.03173 0.06196,0.06285 0.09375,0.09375 0.03283,0.03376 0.06585,0.06679 0.09961,0.09961 0.03253,0.03345 0.06616,0.06512 0.09961,0.09766 0.03221,0.03311 0.06454,0.06545 0.09766,0.09766 0.03221,0.03311 0.06454,0.06545 0.09766,0.09766 0.0319,0.03279 0.06292,0.06575 0.0957,0.09766 0.03156,0.03242 0.06328,0.06414 0.0957,0.0957 0.02964,0.03045 0.05944,0.06016 0.08984,0.08984 0.03279,0.03377 0.06589,0.06677 0.09961,0.09961 0.03284,0.03372 0.06583,0.06683 0.09961,0.09961 0.02647,0.02707 0.05301,0.05361 0.08008,0.08008 0.03244,0.03341 0.0643,0.06711 0.09766,0.09961 0.03187,0.0327 0.06491,0.06389 0.09766,0.0957 0.02649,0.02709 0.05298,0.05359 0.08008,0.08008 0.03344,0.03441 0.06715,0.06812 0.101562,0.101563 0.02522,0.02577 0.0504,0.05095 0.07617,0.07617 0.03118,0.03208 0.06172,0.06446 0.09375,0.0957 0.0306,0.03136 0.06234,0.06124 0.09375,0.0918 0.02485,0.02539 0.04883,0.05131 0.07422,0.07617 0.03055,0.03141 0.06239,0.06119 0.09375,0.0918 0.03032,0.03105 0.06069,0.06154 0.0918,0.0918 0.02588,0.02641 0.05167,0.05229 0.07813,0.07813 0.02776,0.02842 0.05556,0.05622 0.08398,0.08398 0.02584,0.02645 0.05171,0.05225 0.07813,0.07813 0.029,0.02977 0.05816,0.05884 0.08789,0.08789 0.02905,0.02972 0.05811,0.05889 0.08789,0.08789 0.02461,0.02508 0.04909,0.04966 0.07422,0.07422 0.02647,0.02707 0.05301,0.05361 0.08008,0.08008 0.02457,0.02512 0.04913,0.04961 0.07422,0.07422 0.02966,0.03041 0.05943,0.06019 0.08984,0.08984 0.02199,0.02242 0.044,0.04441 0.06641,0.06641 0.02966,0.03041 0.05943,0.06019 0.08984,0.08984 0.02333,0.02376 0.04651,0.04702 0.07031,0.07031 0.02293,0.02342 0.04498,0.04735 0.06836,0.07031 0.02671,0.02737 0.05275,0.05527 0.08008,0.08203 0.02449,0.025 0.04921,0.04973 0.07422,0.07422 0.02612,0.02667 0.05337,0.05204 0.08008,0.07813 0.02235,0.02274 0.04558,0.04409 0.06836,0.06641 0.02167,0.02212 0.04237,0.04469 0.06445,0.06641 0.02771,0.02837 0.05561,0.05628 0.08398,0.08398 0.02137,0.02172 0.04269,0.04312 0.06445,0.06445 0.02133,0.02176 0.04273,0.04309 0.06445,0.06445 0.02452,0.02508 0.04918,0.04966 0.07422,0.07422 0.02263,0.02307 0.04528,0.04573 0.06836,0.06836 0.02456,0.02503 0.04914,0.0497 0.07422,0.07422 0.02006,0.02037 0.04014,0.04052 0.06055,0.06055 0.02004,0.02041 0.04016,0.04048 0.06055,0.06055 0.02325,0.02375 0.0466,0.04703 0.07031,0.07031 0.02136,0.02175 0.0427,0.0431 0.06445,0.06445 0.02329,0.02371 0.04656,0.04707 0.07031,0.07031 0.01881,0.01908 0.03753,0.03786 0.05664,0.05664 0.02071,0.02108 0.04142,0.04179 0.0625,0.0625 0.02042,0.02078 0.04173,0.04013 0.0625,0.06055 0.02011,0.02045 0.0401,0.04044 0.06055,0.06055 0.02011,0.02045 0.0401,0.04044 0.06055,0.06055 0.01978,0.02012 0.03848,0.04077 0.05859,0.06055 0.01944,0.01976 0.03883,0.03916 0.05859,0.05859 0.0175,0.01779 0.03497,0.03521 0.05273,0.05273 0.02071,0.02111 0.04143,0.04176 0.0625,0.0625 0.02074,0.02107 0.04139,0.0418 0.0625,0.0625 0.0143,0.01447 0.0285,0.02867 0.04297,0.04297 0.02036,0.02075 0.03983,0.0421 0.06055,0.0625 0.02005,0.02036 0.04015,0.04053 0.06055,0.06055 0.01561,0.01579 0.03301,0.02934 0.04883,0.04492 0.0172,0.01746 0.03333,0.03553 0.05078,0.05273 0.01558,0.01582 0.03109,0.03127 0.04687,0.04687 0.01909,0.01943 0.03724,0.03947 0.05664,0.05859 0.01878,0.01904 0.03756,0.0379 0.05664,0.05664 0.01234,0.01246 0.02464,0.02478 0.03711,0.03711 0.0184,0.01872 0.036,0.03821 0.05469,0.05664 0.01814,0.01839 0.03822,0.03463 0.05664,0.05273 0.01368,0.01382 0.02718,0.02736 0.04102,0.04102 0.0156,0.0158 0.03107,0.03128 0.04687,0.04687 0.01525,0.01545 0.02948,0.03163 0.04492,0.04687 0.0149,0.01509 0.02983,0.03002 0.04492,0.04492 0.0149,0.01509 0.02983,0.03002 0.04492,0.04492 0.01461,0.01479 0.03013,0.02836 0.04492,0.04297 0.01431,0.01448 0.02848,0.02866 0.04297,0.04297 0.01203,0.01217 0.02301,0.02506 0.03516,0.03711 0.01584,0.01609 0.03082,0.03296 0.04687,0.04883 0.01523,0.01541 0.03145,0.02971 0.04687,0.04492 0.0098,0.0098 0.01946,0.01954 0.0293,0.0293 0.01491,0.01513 0.02982,0.02999 0.04492,0.04492 0.01494,0.0151 0.0298,0.03001 0.04492,0.04492 0.01041,0.01048 0.02075,0.02086 0.03125,0.03125 0.01232,0.01245 0.02466,0.02479 0.03711,0.03711 0.01039,0.0105 0.02076,0.02084 0.03125,0.03125 0.01363,0.01381 0.02723,0.02736 0.04102,0.04102 0.01365,0.01379 0.0272,0.02739 0.04102,0.04102 0.0072,0.0072 0.01427,0.01431 0.02148,0.02148 0.01328,0.01346 0.02563,0.02771 0.03906,0.04102 0.01296,0.01308 0.02596,0.02612 0.03906,0.03906 0.0085,0.0085 0.01881,0.01498 0.02734,0.02344 0.01045,0.01054 0.0207,0.0208 0.03125,0.03125 0.0082,0.0082 0.01522,0.01721 0.02344,0.02539 0.012,0.01215 0.02303,0.02509 0.03516,0.03711 0.01168,0.01177 0.02336,0.0235 0.03516,0.03516 0.0072,0.0072 0.01621,0.01236 0.02344,0.01953 0.0088,0.0089 0.01652,0.01854 0.02539,0.02734 0.0072,0.0072 0.01427,0.0143 0.02148,0.02148 0.013,0.01314 0.02592,0.02606 0.03906,0.03906 0.0042,0.0043 0.0075,0.0094 0.01172,0.01367 0.01231,0.01244 0.02467,0.0248 0.03711,0.03711 0.0058,0.0059 0.01171,0.01175 0.01758,0.01758 0.0055,0.0056 0.01202,0.01008 0.01758,0.01563 0.0094,0.0095 0.01783,0.01985 0.02734,0.0293 0.0072,0.0072 0.01428,0.01432 0.02148,0.02148 0.0091,0.0092 0.01817,0.01826 0.02734,0.02734 0.0045,0.0046 0.0091,0.0091 0.01367,0.01367 0.0042,0.0043 0.0094,0.0075 0.01367,0.01172 0.01043,0.01052 0.02072,0.02082 0.03125,0.03125 0.0039,0.004 0.0078,0.0078 0.01172,0.01172 0.0029,0.003 0.0068,0.0088 0.0098,0.01172 0.0075,0.0075 0.01398,0.01597 0.02148,0.02344 0.0052,0.0052 0.01042,0.01045 0.01563,0.01563 0.0072,0.0072 0.01622,0.01237 0.02344,0.01953 0,0 0,0.002 0,0.002 0.0017,0.0017 0.0062,0.0042 0.0078,0.0059 0.01265,0.01279 0.02432,0.02641 0.03711,0.03906 0.0019,0.0019 0.0059,0.0059 0.0078,0.0078 0.001,0.001 0.0029,9.39e-4 0.0039,0.002 0.0016,0.0017 0.0023,0.0042 0.0039,0.0059 0.0059,0.0059 0.01363,0.01365 0.01953,0.01953 0.0042,0.0043 0.0075,0.0094 0.01172,0.01367 0.0029,0.003 0.0088,0.0068 0.01172,0.0098 0.0033,0.0033 0.0084,0.0084 0.01172,0.01172 0.0016,0.0016 0.0042,0.0062 0.0059,0.0078 0.001,0.001 0.0029,9.41e-4 0.0039,0.002 0.002,0.002 0.0039,0.0039 0.0059,0.0059 3e-4,3.01e-4 0.0017,-3e-4 0.002,0 0,0 0,0.002 0,0.002 0.177091,0.176574 0.368494,0.339689 0.570312,0.488282 0.0015,0.0011 0.0024,0.0028 0.0039,0.0039 0.0015,0.0011 0.0024,0.0028 0.0039,0.0039 0,0 0.002,0.002 0.002,0.002 0,0 0.002,0.002 0.002,0.002 3.99e-4,2.93e-4 0.0016,-2.93e-4 0.002,0 0.125241,0.09162 0.262782,0.166215 0.396484,0.246094 0.08574,0.05132 0.164938,0.111974 0.253907,0.158203 0.229668,0.119339 0.469952,0.221641 0.71875,0.304688 0,0 0.002,0.002 0.002,0.002 5.73e-4,1.91e-4 0.0014,-1.91e-4 0.002,0 0.06159,0.01104 0.114979,0.01 0.158203,0 0.04453,-0.01028 0.07823,-0.02932 0.105469,-0.05469 0.05306,-0.04941 0.07813,-0.119831 0.07813,-0.185547 0,-0.118788 -0.0098,-0.433997 -0.0098,-0.851562 -7.08e-4,1.54e-4 -0.0012,-1.53e-4 -0.002,0 0,-9.57e-4 0,-9.96e-4 0,-0.002 0,0 -0.002,0 -0.002,0 0,0 0,-0.002 0,-0.002 0,0 -0.002,0 -0.002,0 0,0 0,-0.002 0,-0.002 -0.0014,3.07e-4 -0.0025,-3.06e-4 -0.0039,0 -1e-6,-0.0019 0,-0.002 0,-0.0039 -0.0014,3.08e-4 -0.0025,-3.05e-4 -0.0039,0 0,-0.0019 0,-0.002 0,-0.0039 -0.0021,4.61e-4 -0.0037,-4.56e-4 -0.0059,0 0,-0.0019 0,-0.002 0,-0.0039 -0.0014,3.09e-4 -0.0025,-3.07e-4 -0.0039,0 -1e-6,-0.0029 0,-0.003 0,-0.0059 -0.0028,6.16e-4 -0.005,-6.04e-4 -0.0078,0 -1e-6,-0.0029 0,-0.003 0,-0.0059 -0.0021,4.64e-4 -0.0037,-4.58e-4 -0.0059,0 -2e-6,-0.0038 0,-0.004 0,-0.0078 -0.0028,6.15e-4 -0.005,-6.05e-4 -0.0078,0 -1e-6,-0.0038 0,-0.004 0,-0.0078 -0.0036,7.88e-4 -0.0062,0.0012 -0.0098,0.002 -3e-6,-0.0048 0,-0.005 0,-0.0098 -0.0028,6.19e-4 -0.005,-6.07e-4 -0.0078,0 -2e-6,-0.0048 0,-0.005 0,-0.0098 -0.0036,7.88e-4 -0.0062,0.0012 -0.0098,0.002 -4e-6,-0.0057 0,-0.006 0,-0.01172 -0.0043,9.42e-4 -0.0074,10e-4 -0.01172,0.002 -5e-6,-0.0066 0,-0.007 0,-0.01367 -0.0043,9.43e-4 -0.0074,0.001 -0.01172,0.002 -5e-6,-0.0067 0,-0.007 0,-0.01367 -0.0043,9.42e-4 -0.0074,0.001 -0.01172,0.002 -5e-6,-0.0067 0,-0.007 0,-0.01367 -0.005,0.0011 -0.0087,8.91e-4 -0.01367,0.002 -6e-6,-0.0076 0,-0.008 0,-0.01563 -0.0051,0.0011 -0.0086,8.87e-4 -0.01367,0.002 -7e-6,-0.0076 0,-0.008 0,-0.01563 -0.005,0.0011 -0.0087,8.91e-4 -0.01367,0.002 -7e-6,-0.0076 0,-0.008 0,-0.01563 -0.0058,0.0012 -0.0099,7.47e-4 -0.01563,0.002 -9e-6,-0.0085 0,-0.009 0,-0.01758 -0.0058,0.0012 -0.0099,7.47e-4 -0.01563,0.002 -9e-6,-0.0085 0,-0.009 0,-0.01758 -0.0065,0.0014 -0.01117,6.05e-4 -0.01758,0.002 -9e-6,-0.0085 0,-0.0089 0,-0.01758 -0.0065,0.0014 -0.01114,5.99e-4 -0.01758,0.002 -10e-6,-0.0095 0,-0.0099 0,-0.01953 -0.0065,0.0014 -0.01114,5.99e-4 -0.01758,0.002 -1.2e-5,-0.0104 0,-0.01095 0,-0.02148 -0.0072,0.0016 -0.01242,4.63e-4 -0.01953,0.002 -10e-6,-0.0095 0,-0.0099 0,-0.01953 -0.0072,0.0016 -0.01239,4.56e-4 -0.01953,0.002 -1.5e-5,-0.01133 0,-0.01195 0,-0.02344 -0.0072,0.0016 -0.01239,4.58e-4 -0.01953,0.002 -1.3e-5,-0.0104 0,-0.01095 0,-0.02148 -0.0079,0.0017 -0.01368,3.24e-4 -0.02148,0.002 -1.5e-5,-0.01133 0,-0.01195 0,-0.02344 -0.0079,0.0017 -0.01368,3.23e-4 -0.02148,0.002 -1.5e-5,-0.01133 0,-0.01195 0,-0.02344 -0.0086,0.0019 -0.01494,1.85e-4 -0.02344,0.002 -1.7e-5,-0.01226 0,-0.01294 0,-0.02539 -0.0086,0.0019 -0.01494,1.85e-4 -0.02344,0.002 -1.7e-5,-0.01226 0,-0.01294 0,-0.02539 -0.0086,0.0019 -0.01494,1.84e-4 -0.02344,0.002 -1.7e-5,-0.01226 0,-0.01294 0,-0.02539 -0.0094,0.002 -0.01611,0.002 -0.02539,0.0039 -2.3e-5,-0.01412 0,-0.01493 0,-0.0293 -0.0094,0.002 -0.01611,0.002 -0.02539,0.0039 -2.3e-5,-0.01412 0,-0.01493 0,-0.0293 -0.01009,0.0022 -0.01737,0.0018 -0.02734,0.0039 -2.3e-5,-0.01415 0,-0.0149 0,-0.0293 -0.0094,0.002 -0.01607,0.002 -0.02539,0.0039 -2.6e-5,-0.01504 0,-0.01593 0,-0.03125 -0.0108,0.0023 -0.01863,0.0017 -0.0293,0.0039 -2.6e-5,-0.01507 0,-0.01589 0,-0.03125 -0.01013,0.0022 -0.01733,0.0018 -0.02734,0.0039 -2.9e-5,-0.01596 0,-0.01692 0,-0.0332 -0.0108,0.0023 -0.01863,0.0017 -0.0293,0.0039 -2.9e-5,-0.01596 0,-0.01692 0,-0.0332 -0.0115,0.0025 -0.0199,0.0016 -0.03125,0.0039 -2.9e-5,-0.016 0,-0.01689 0,-0.0332 -0.01156,0.0025 -0.01985,0.0016 -0.03125,0.0039 -2.7e-5,-0.0141 5e-6,-0.01495 0,-0.0293 0.136965,0.01275 0.26911,-0.0045 0.384766,-0.03125 7.05e-4,-1.64e-4 0.0012,1.65e-4 0.002,0 0.11503,-0.02676 0.213878,-0.06368 0.285156,-0.0957 0.02252,-0.161701 0.06518,-0.297024 0.121094,-0.408203 2.68e-4,-5.33e-4 -2.69e-4,-0.0014 0,-0.002 0.02614,-0.05198 0.06122,-0.07985 0.0918,-0.121094 0.01621,0.02044 0.03388,0.0366 0.05859,0.05078 0.01681,0.02277 0.02979,0.04308 0.05664,0.05859 0.01695,0.02263 0.03162,0.04325 0.05859,0.05859 0.0161,0.02108 0.02979,0.03999 0.05469,0.05469 0.01649,0.02201 0.03069,0.04148 0.05664,0.05664 0.01631,0.02167 0.02917,0.04163 0.05469,0.05664 0.01543,0.01984 0.02944,0.03665 0.05273,0.05078 0.01573,0.02093 0.02844,0.03991 0.05273,0.05469 0.01552,0.02035 0.02904,0.03827 0.05273,0.05273 0.01507,0.01969 0.02805,0.03658 0.05078,0.05078 0.01583,0.02076 0.03034,0.03813 0.05469,0.05273 0.0147,0.01876 0.02511,0.03712 0.04687,0.05078 0.01497,0.01922 0.02842,0.0369 0.05078,0.05078 0.01471,0.01846 0.02719,0.03539 0.04883,0.04883 0.01471,0.01846 0.02719,0.03539 0.04883,0.04883 0.01435,0.01796 0.02596,0.03366 0.04687,0.04687 0.01435,0.01796 0.02596,0.03366 0.04687,0.04687 0.014,0.01751 0.02468,0.03386 0.04492,0.04687 0.01363,0.01676 0.02551,0.03234 0.04492,0.04492 0.01363,0.01676 0.02551,0.03234 0.04492,0.04492 0.01327,0.0163 0.02423,0.03061 0.04297,0.04297 0.01319,0.01621 0.02438,0.03064 0.04297,0.04297 0.01328,0.01633 0.0242,0.03059 0.04297,0.04297 0.01282,0.01541 0.02323,0.0292 0.04102,0.04102 0.01282,0.01541 0.02323,0.0292 0.04102,0.04102 0.01279,0.01533 0.02331,0.02924 0.04102,0.04102 0.0123,0.01451 0.0223,0.02779 0.03906,0.03906 0.01179,0.0139 0.02123,0.02615 0.03711,0.03711 0.012,0.01438 0.02079,0.02778 0.03711,0.03906 0.01172,0.01383 0.02135,0.02619 0.03711,0.03711 0.01202,0.01415 0.0228,0.02603 0.03906,0.03711 0.01104,0.0127 0.01868,0.02497 0.0332,0.03516 0.01128,0.01327 0.02015,0.02456 0.03516,0.03516 0.01098,0.01263 0.01879,0.02501 0.0332,0.03516 0.01065,0.01231 0.01931,0.02323 0.0332,0.0332 0.01068,0.01206 0.01935,0.02344 0.0332,0.0332 0.01024,0.01155 0.0181,0.02181 0.03125,0.03125 0.01012,0.01142 0.01828,0.02189 0.03125,0.03125 0.0099,0.01115 0.0167,0.02205 0.0293,0.03125 0.0095,0.01053 0.01735,0.02053 0.0293,0.0293 0.0095,0.01053 0.01735,0.02053 0.0293,0.0293 0.009,0.01001 0.0161,0.01893 0.02734,0.02734 0.0093,0.01034 0.01762,0.01871 0.0293,0.02734 0.0088,0.0097 0.0145,0.01916 0.02539,0.02734 0.009,0.01 0.01612,0.01894 0.02734,0.02734 0.0086,0.0092 0.01491,0.01755 0.02539,0.02539 0.0077,0.0081 0.01428,0.01445 0.02344,0.02148 0.0084,0.0092 0.0132,0.01754 0.02344,0.02539 0.0077,0.0083 0.01229,0.01627 0.02148,0.02344 0.0078,0.0083 0.01409,0.0163 0.02344,0.02344 0.0069,0.0073 0.01138,0.01503 0.01953,0.02148 0.0069,0.0072 0.01341,0.01322 0.02148,0.01953 0.0069,0.0074 0.01137,0.01502 0.01953,0.02148 0.0066,0.0068 0.01188,0.01347 0.01953,0.01953 0.0064,0.0066 0.01214,0.01168 0.01953,0.01758 0.0062,0.0064 0.01039,0.01184 0.01758,0.01758 0.0064,0.0066 0.01014,0.01364 0.01758,0.01953 0.0047,0.0047 0.0085,0.0094 0.01367,0.01367 0.0056,0.0059 0.0092,0.01229 0.01563,0.01758 0.005,0.005 0.01,0.0091 0.01563,0.01367 0.0051,0.0052 0.008,0.01092 0.01367,0.01563 0.0047,0.0047 0.0085,0.0094 0.01367,0.01367 0.0041,0.0041 0.0072,0.0079 0.01172,0.01172 0.0041,0.0041 0.0072,0.0079 0.01172,0.01172 0.0041,0.0041 0.0072,0.0079 0.01172,0.01172 0.0035,0.0034 0.006,0.0066 0.0098,0.0098 0.0035,0.0034 0.006,0.0066 0.0098,0.0098 0.0035,0.0034 0.006,0.0066 0.0098,0.0098 0.0027,0.0026 0.005,0.0054 0.0078,0.0078 0.0021,0.002 0.0037,0.0039 0.0059,0.0059 0.0025,0.0025 0.0032,0.0055 0.0059,0.0078 0.0021,0.002 0.0037,0.0039 0.0059,0.0059 0.0021,0.002 0.0037,0.0039 0.0059,0.0059 0.0011,0.0011 0.0028,0.0048 0.0039,0.0059 0,0 0.002,0.002 0.002,0.002 0,0 0.002,0 0.002,0 0,0 0,0.002 0,0.002 0,0 0.002,0.002 0.002,0.002 0,0 0.002,0.002 0.002,0.002 6.72e-4,6.3e-4 0.0013,0.0013 0.002,0.002 0.02654,0.02423 0.06266,0.04275 0.105469,0.05273 0.04472,0.01043 0.09723,0.01249 0.162109,0 0.248349,-0.08287 0.487488,-0.185675 0.716797,-0.304688 0.45906,-0.238256 0.87616,-0.545668 1.238281,-0.908203 0.361423,-0.361835 0.668775,-0.778004 0.90625,-1.236328 2.75e-4,-5.3e-4 -2.74e-4,-0.0014 0,-0.002 0.118578,-0.228853 0.220174,-0.467033 0.302735,-0.714844 1.97e-4,-5.94e-4 -1.98e-4,-0.0014 0,-0.002 0.08247,-0.247831 0.14641,-0.504197 0.189453,-0.767578 1.03e-4,-6.31e-4 -1.03e-4,-0.0013 0,-0.002 C 30.976439,26.670145 31,26.398634 31,26.123047 c 0,-0.584036 -0.120795,-1.135172 -0.304688,-1.65625 -0.03386,-0.09595 -0.0504,-0.199808 -0.08984,-0.292969 0,0 -0.002,-0.002 -0.002,-0.002 -0.126201,-0.297912 -0.280021,-0.580623 -0.458985,-0.845703 -2.82e-4,-4.18e-4 2.83e-4,-0.0015 0,-0.002 0,0 -0.002,-0.002 -0.002,-0.002 -0.0015,-0.0023 -0.0043,-0.0036 -0.0059,-0.0059 -0.178085,-0.262337 -0.380131,-0.506964 -0.603516,-0.730468 -3.55e-4,-3.56e-4 -0.0016,-0.0016 -0.002,-0.002 0,0 0,-0.002 0,-0.002 0,0 -0.002,0 -0.002,0 0,0 -0.002,-0.002 -0.002,-0.002 0,0 -0.002,-0.002 -0.002,-0.002 0,0 0,-0.002 0,-0.002 0,0 -0.002,-0.002 -0.002,-0.002 0,0 -0.002,-0.002 -0.002,-0.002 0,0 -0.002,-0.002 -0.002,-0.002 0,0 -0.002,0 -0.002,0 0,0 0,-0.002 0,-0.002 0,0 -0.002,-0.002 -0.002,-0.002 -0.0017,-0.0017 -0.0042,-0.0023 -0.0059,-0.0039 0,0 -0.002,-0.002 -0.002,-0.002 -0.0017,-0.0017 -0.0022,-0.0042 -0.0039,-0.0059 -9.4e-4,-9.44e-4 -0.003,-0.001 -0.0039,-0.002 -9.43e-4,-9.41e-4 -0.001,-0.003 -0.002,-0.0039 -0.0013,-0.0013 -0.0026,-0.0026 -0.0039,-0.0039 -0.0013,-0.0013 -0.0026,-0.0026 -0.0039,-0.0039 -0.0016,-0.0016 -0.0043,-0.0023 -0.0059,-0.0039 -0.0016,-0.0016 -0.0023,-0.0043 -0.0039,-0.0059 -0.0029,-0.0029 -0.0068,-0.0049 -0.0098,-0.0078 -0.0052,-0.0052 -0.01045,-0.01043 -0.01563,-0.01563 -0.0016,-0.0016 -0.0023,-0.0043 -0.0039,-0.0059 -0.0019,-0.0019 -0.0039,-0.0039 -0.0059,-0.0059 -0.0039,-0.0039 -0.0078,-0.0078 -0.01172,-0.01172 -0.0042,-0.0043 -0.0094,-0.0075 -0.01367,-0.01172 -0.0046,-0.0046 -0.0091,-0.0091 -0.01367,-0.01367 -0.0065,-0.0066 -0.01491,-0.01496 -0.02148,-0.02148 0,0 -0.002,-0.002 -0.002,-0.002 -0.0068,-0.0069 -0.01268,-0.01467 -0.01953,-0.02148 -0.0055,-0.0056 -0.01202,-0.0101 -0.01758,-0.01562 -0.0059,-0.0059 -0.01167,-0.0117 -0.01758,-0.01758 -0.0059,-0.0059 -0.01167,-0.01169 -0.01758,-0.01758 -0.0062,-0.0062 -0.01137,-0.01336 -0.01758,-0.01953 -0.0065,-0.0065 -0.01303,-0.01307 -0.01953,-0.01953 -0.0085,-0.0085 -0.01882,-0.01498 -0.02734,-0.02344 -0.0033,-0.0033 -0.0065,-0.0065 -0.0098,-0.0098 -0.01074,-0.01083 -0.02042,-0.02247 -0.03125,-0.0332 -0.0039,-0.0039 -0.0078,-0.0078 -0.01172,-0.01172 -0.0095,-0.0095 -0.01977,-0.01788 -0.0293,-0.02734 -0.0079,-0.0079 -0.01551,-0.01556 -0.02344,-0.02344 -0.0082,-0.0082 -0.01521,-0.01722 -0.02344,-0.02539 -0.0085,-0.0085 -0.01687,-0.01693 -0.02539,-0.02539 -0.0088,-0.0089 -0.01847,-0.01658 -0.02734,-0.02539 -0.0092,-0.0092 -0.01811,-0.01819 -0.02734,-0.02734 -0.0092,-0.0092 -0.01811,-0.01818 -0.02734,-0.02734 -0.0111,-0.01119 -0.022,-0.02212 -0.0332,-0.0332 -0.0078,-0.0079 -0.01556,-0.01563 -0.02344,-0.02344 -0.0085,-0.0085 -0.01687,-0.01693 -0.02539,-0.02539 -0.01173,-0.01186 -0.02331,-0.02341 -0.03516,-0.03516 -0.01045,-0.01054 -0.02071,-0.0208 -0.03125,-0.03125 -0.01239,-0.0125 -0.02459,-0.02474 -0.03711,-0.03711 -0.0072,-0.0072 -0.01427,-0.01431 -0.02148,-0.02148 -0.01301,-0.01317 -0.02591,-0.02604 -0.03906,-0.03906 -0.01138,-0.01149 -0.02171,-0.02377 -0.0332,-0.03516 -0.01139,-0.01149 -0.02366,-0.02182 -0.03516,-0.0332 -0.01203,-0.01215 -0.02301,-0.02509 -0.03516,-0.03711 -0.01232,-0.01245 -0.02466,-0.02479 -0.03711,-0.03711 -0.01232,-0.01244 -0.02466,-0.0248 -0.03711,-0.03711 -0.01431,-0.01446 -0.03043,-0.02673 -0.04492,-0.04102 -0.0095,-0.0095 -0.01781,-0.01984 -0.02734,-0.0293 -0.01465,-0.01484 -0.03009,-0.02831 -0.04492,-0.04297 -0.0153,-0.01548 -0.02942,-0.03159 -0.04492,-0.04687 -0.01175,-0.01184 -0.02525,-0.02148 -0.03711,-0.0332 -0.01208,-0.01222 -0.02295,-0.02501 -0.03516,-0.03711 -0.01592,-0.01616 -0.03074,-0.03289 -0.04687,-0.04883 -0.0143,-0.01448 -0.02849,-0.02867 -0.04297,-0.04297 -0.01465,-0.01483 -0.03008,-0.02832 -0.04492,-0.04297 -0.015,-0.01519 -0.02973,-0.02992 -0.04492,-0.04492 -0.015,-0.01519 -0.02973,-0.02992 -0.04492,-0.04492 -0.0153,-0.01549 -0.02943,-0.03158 -0.04492,-0.04687 -0.01558,-0.01579 -0.03109,-0.03129 -0.04687,-0.04687 -0.01722,-0.01745 -0.03526,-0.03358 -0.05273,-0.05078 -0.01466,-0.01482 -0.03008,-0.02833 -0.04492,-0.04297 -0.01464,-0.01485 -0.02814,-0.03026 -0.04297,-0.04492 -0.01818,-0.01849 -0.03622,-0.03648 -0.05469,-0.05469 -0.01821,-0.01846 -0.03619,-0.03651 -0.05469,-0.05469 -0.0143,-0.01448 -0.02849,-0.02867 -0.04297,-0.04297 -0.01883,-0.01915 -0.03751,-0.03779 -0.05664,-0.05664 -0.01756,-0.01782 -0.03491,-0.03518 -0.05273,-0.05273 -0.01756,-0.01782 -0.03491,-0.03517 -0.05273,-0.05273 -0.01785,-0.01812 -0.03461,-0.03684 -0.05273,-0.05469 -0.01849,-0.01877 -0.03786,-0.03621 -0.05664,-0.05469 -0.01848,-0.01878 -0.03591,-0.03815 -0.05469,-0.05664 -0.02041,-0.02073 -0.04173,-0.04017 -0.0625,-0.06055 -0.01558,-0.01579 -0.03109,-0.03129 -0.04687,-0.04687 -0.02138,-0.02179 -0.04269,-0.04305 -0.06445,-0.06445 -0.01911,-0.01942 -0.03721,-0.03949 -0.05664,-0.05859 -0.01977,-0.02009 -0.04044,-0.03883 -0.06055,-0.05859 -0.0214,-0.02176 -0.04266,-0.04308 -0.06445,-0.06445 -0.01686,-0.0171 -0.03368,-0.03392 -0.05078,-0.05078 -0.02265,-0.02311 -0.04527,-0.04569 -0.06836,-0.06836 -0.02011,-0.02046 -0.04009,-0.04044 -0.06055,-0.06055 -0.02139,-0.02178 -0.04267,-0.04307 -0.06445,-0.06445 -0.02075,-0.02111 -0.04138,-0.04176 -0.0625,-0.0625 -0.02301,-0.02343 -0.04685,-0.04539 -0.07031,-0.06836 -0.01849,-0.01878 -0.03591,-0.03815 -0.05469,-0.05664 -0.02363,-0.02414 -0.04816,-0.04666 -0.07227,-0.07031 -0.02401,-0.02446 -0.04776,-0.0483 -0.07227,-0.07227 -0.01884,-0.01914 -0.0375,-0.0378 -0.05664,-0.05664 -0.02589,-0.02647 -0.05166,-0.05223 -0.07813,-0.07813 -0.02011,-0.02046 -0.04009,-0.04043 -0.06055,-0.06055 -0.02461,-0.02516 -0.04908,-0.04958 -0.07422,-0.07422 -0.02336,-0.02382 -0.04649,-0.04696 -0.07031,-0.07031 -0.02364,-0.02412 -0.04619,-0.04863 -0.07031,-0.07227 -0.02393,-0.02442 -0.04784,-0.04834 -0.07227,-0.07227 -0.02557,-0.02609 -0.052,-0.05064 -0.07813,-0.07617 -0.02139,-0.02178 -0.04267,-0.04307 -0.06445,-0.06445 -0.0278,-0.02845 -0.05552,-0.0562 -0.08398,-0.08398 -0.02139,-0.02178 -0.04267,-0.04307 -0.06445,-0.06445 -0.0268,-0.02745 -0.05266,-0.0552 -0.08008,-0.08203 -0.02718,-0.02777 -0.05616,-0.05294 -0.08398,-0.08008 -0.02208,-0.0225 -0.0439,-0.04432 -0.06641,-0.06641 -0.02749,-0.02818 -0.05389,-0.05646 -0.08203,-0.08398 -0.02589,-0.02647 -0.05166,-0.05223 -0.07813,-0.07813 -0.02716,-0.0278 -0.05423,-0.05487 -0.08203,-0.08203 -0.02589,-0.02647 -0.05166,-0.05224 -0.07813,-0.07813 -0.0288,-0.02947 -0.05838,-0.05719 -0.08789,-0.08594 -0.02528,-0.02579 -0.05034,-0.05093 -0.07617,-0.07617 -0.02553,-0.02613 -0.05008,-0.05256 -0.07617,-0.07813 -0.02968,-0.03047 -0.0594,-0.06014 -0.08984,-0.08984 -0.02716,-0.02779 -0.05424,-0.05487 -0.08203,-0.08203 -0.02843,-0.02912 -0.05681,-0.05751 -0.08594,-0.08594 -0.0278,-0.02845 -0.05552,-0.0562 -0.08398,-0.08398 -0.03005,-0.03079 -0.06096,-0.05983 -0.0918,-0.08984 -0.0259,-0.02647 -0.05165,-0.05223 -0.07813,-0.07813 -0.03035,-0.03118 -0.06065,-0.06142 -0.0918,-0.0918 -0.02941,-0.03014 -0.05774,-0.06045 -0.08789,-0.08984 -0.0313,-0.0321 -0.06356,-0.0625 -0.0957,-0.09375 -0.02654,-0.02713 -0.05294,-0.05356 -0.08008,-0.08008 -0.03125,-0.03214 -0.06165,-0.06441 -0.09375,-0.0957 -0.03004,-0.03081 -0.06098,-0.05982 -0.0918,-0.08984 -0.03067,-0.03147 -0.06031,-0.06309 -0.0918,-0.09375 -0.03066,-0.03148 -0.06227,-0.06113 -0.09375,-0.0918 -0.0323,-0.03314 -0.06446,-0.06541 -0.09766,-0.09766 -0.02843,-0.02912 -0.05681,-0.05751 -0.08594,-0.08594 -0.03289,-0.03386 -0.06578,-0.06669 -0.09961,-0.09961 -0.03162,-0.03249 -0.06321,-0.06408 -0.0957,-0.0957 -0.03229,-0.03317 -0.06447,-0.06539 -0.09766,-0.09766 -0.03193,-0.0328 -0.06289,-0.06574 -0.0957,-0.09766 -0.03192,-0.03281 -0.06485,-0.06377 -0.09766,-0.0957 -0.03291,-0.03384 -0.06576,-0.0667 -0.09961,-0.09961 -0.0329,-0.03384 -0.06577,-0.06671 -0.09961,-0.09961 -0.03291,-0.03384 -0.06576,-0.0667 -0.09961,-0.09961 -0.0329,-0.03384 -0.06577,-0.06671 -0.09961,-0.09961 -0.03542,-0.03646 -0.07092,-0.07205 -0.107422,-0.107422 -0.03067,-0.03148 -0.06227,-0.06113 -0.09375,-0.0918 -0.03574,-0.0369 -0.07057,-0.07358 -0.107421,-0.109375 -0.03449,-0.03551 -0.06995,-0.06904 -0.105469,-0.103515 -0.03613,-0.03722 -0.07211,-0.07329 -0.109375,-0.109375 -0.03165,-0.03251 -0.06319,-0.06406 -0.0957,-0.0957 -0.03635,-0.03757 -0.07187,-0.07491 -0.109375,-0.111329 -0.03543,-0.03651 -0.07091,-0.072 -0.107422,-0.107421 -0.03705,-0.03819 -0.07504,-0.07433 -0.113282,-0.111329 -0.03291,-0.03384 -0.06576,-0.0667 -0.09961,-0.09961 -0.03735,-0.0386 -0.07472,-0.07589 -0.113281,-0.113281 -0.03637,-0.03751 -0.07185,-0.07497 -0.109375,-0.111328 -0.03831,-0.03952 -0.07761,-0.07699 -0.117188,-0.115235 -0.03355,-0.0345 -0.06704,-0.06804 -0.101562,-0.101562 -0.03825,-0.03957 -0.07571,-0.07889 -0.115235,-0.117188 -0.03702,-0.0382 -0.07506,-0.07431 -0.113281,-0.111328 -0.03765,-0.03888 -0.0744,-0.07759 -0.113281,-0.115234 -0.03956,-0.04086 -0.08017,-0.07964 -0.121094,-0.119141 -0.03608,-0.03715 -0.07216,-0.07335 -0.109375,-0.109375 -0.03666,-0.03787 -0.0735,-0.07463 -0.111328,-0.111328 -0.03985,-0.04128 -0.07985,-0.0812 -0.121094,-0.121094 -0.03862,-0.03992 -0.07726,-0.07857 -0.117187,-0.117187 -0.03891,-0.04022 -0.07696,-0.08024 -0.117188,-0.119141 -0.03919,-0.04053 -0.07861,-0.07995 -0.11914,-0.11914 -0.03919,-0.04053 -0.07861,-0.07995 -0.119141,-0.119141 -0.03951,-0.04086 -0.08022,-0.07965 -0.121094,-0.119141 -0.03988,-0.04126 -0.07983,-0.08122 -0.121093,-0.121093 -0.04051,-0.04192 -0.0811,-0.08256 -0.123047,-0.123047 -0.04022,-0.04162 -0.08141,-0.08089 -0.123047,-0.121094 -0.04021,-0.04163 -0.07947,-0.08283 -0.121094,-0.123047 -0.04113,-0.0426 -0.0824,-0.08388 -0.125,-0.125 -0.04112,-0.0426 -0.0824,-0.08388 -0.125,-0.125 -0.04112,-0.0426 -0.0824,-0.08388 -0.125,-0.125 -0.04148,-0.04296 -0.08397,-0.08354 -0.126953,-0.125 -0.04181,-0.04334 -0.08361,-0.08514 -0.126953,-0.126953 -0.0421,-0.04364 -0.0833,-0.08682 -0.126953,-0.128906 -0.04237,-0.04394 -0.08497,-0.08654 -0.128907,-0.128907 -0.04237,-0.04394 -0.08496,-0.08654 -0.128906,-0.128906 -0.04301,-0.0446 -0.08623,-0.08787 -0.130859,-0.130859 -0.04269,-0.04427 -0.08657,-0.08623 -0.130859,-0.128906 -0.04335,-0.04498 -0.08587,-0.08948 -0.13086,-0.132813 -0.04301,-0.0446 -0.08624,-0.08788 -0.130859,-0.130859 -0.04525,-0.04697 -0.09164,-0.09154 -0.138672,-0.136719 -0.04113,-0.0426 -0.0824,-0.08388 -0.125,-0.125 -0.04553,-0.0474 -0.09132,-0.09309 -0.138672,-0.138672 -0.04622,-0.04801 -0.09254,-0.09449 -0.140625,-0.140625 -0.04113,-0.0426 -0.0824,-0.08388 -0.125,-0.125 -0.04639,-0.04835 -0.09234,-0.096122 -0.140625,-0.142578 -0.04521,-0.04699 -0.09167,-0.09152 -0.138672,-0.1367188 -0.04556,-0.047372 -0.0913,-0.09312 -0.138672,-0.1386718 -0.04556,-0.047372 -0.0913,-0.09312 -0.138672,-0.1386719 -0.04619,-0.048033 -0.09256,-0.094463 -0.140625,-0.140625 -0.04581,-0.047632 -0.09102,-0.094833 -0.138672,-0.140625 -0.04612,-0.047981 -0.09264,-0.09451 -0.140624,-0.140625 -0.04643,-0.048305 -0.09426,-0.094211 -0.142579,-0.140625 -0.0468,-0.048719 -0.09385,-0.095781 -0.142578,-0.1425781 -0.04715,-0.049081 -0.09543,-0.095448 -0.144531,-0.1425782 -0.04777,-0.049757 -0.09476,-0.098731 -0.144531,-0.1464843 -0.04679,-0.048711 -0.09386,-0.095789 -0.142578,-0.1425781 -0.04804,-0.050068 -0.09641,-0.098444 -0.146485,-0.1464844 C 15.142558,8.2049094 15.094118,8.1564554 15.044084,8.108453 14.996044,8.058385 14.947674,8.010009 14.8976,7.9619686 14.850402,7.912828 14.802016,7.8644412 14.751953,7.8164062 13.842771,6.8678647 12.569462,6.2717181 11.152344,6.2695312 Z M 24.066406,29.123047 c 0.0058,7.14e-4 0.01175,0.0033 0.01758,0.0039 -0.0064,0.0014 -0.01118,6.44e-4 -0.01758,0.002 -5e-6,-0.0028 5e-6,-0.003 0,-0.0059 z"
       id="path923"
       transform="matrix(0.9375,0,0,0.9375,-1.8749779,2.4708283)"
       clip-path="url(#clipPath1792)"
       inkscape:connector-curvature="0" />
    <path
       id="path8286"
       d="m 8.4406633,8.2080905 c -2.5900993,0 -4.6906434,2.1002435 -4.6906434,4.6913465 0,2.072417 1.3439767,3.830676 3.2080936,4.451073 0.2347386,0.04306 0.3202088,-0.101796 0.3202088,-0.226117 0,-0.111364 -0.00938,-0.406382 -0.00938,-0.797849 -1.3047618,0.283479 -1.5801246,-0.62884 -1.5801246,-0.62884 -0.2133474,-0.541916 -0.5209844,-0.686212 -0.5209844,-0.686212 -0.4258507,-0.291078 0.031899,-0.285167 0.031899,-0.285167 0.4708844,0.03312 0.7185701,0.483457 0.7185701,0.483457 0.4183451,0.716844 1.0979798,0.509876 1.3652739,0.389786 0.042219,-0.30319 0.1638105,-0.509876 0.2977859,-0.627152 -1.0416875,-0.118401 -2.1368526,-0.520844 -2.1368526,-2.31846 0,-0.512128 0.1828559,-0.930886 0.4829873,-1.258816 -0.048787,-0.118674 -0.2094071,-0.595628 0.045972,-1.241488 0,0 0.3936702,-0.126132 1.2898422,0.480895 0.3740612,-0.104037 0.7755185,-0.156079 1.1743488,-0.15789 0.3986428,0.0019 0.7998188,0.05385 1.1744438,0.15789 0.8956093,-0.607027 1.2887163,-0.480895 1.2887163,-0.480895 0.256035,0.64586 0.09504,1.122814 0.04691,1.241488 0.300695,0.32793 0.482144,0.746688 0.482144,1.258816 0,1.80212 -1.096949,2.198652 -2.1417325,2.314801 0.1682203,0.144812 0.318239,0.431114 0.318239,0.86874 0,0.627105 -0.00938,1.133078 -0.00938,1.286896 0,0.125447 0.084441,0.271385 0.3225543,0.225554 1.8626162,-0.621523 3.2054662,-2.378657 3.2054662,-4.45051 0,-2.591103 -2.100543,-4.6913465 -4.6914873,-4.6913465 z"
       inkscape:connector-curvature="0"
       style="display:inline;fill:#f5f5f5;fill-opacity:1;fill-rule:evenodd;stroke-width:0.9375;stroke-linejoin:round"
       clip-path="url(#clipPath1800)" />
    <path
       style="display:inline;fill:#212121;fill-opacity:1;fill-rule:evenodd;stroke-width:0.9375;stroke-linejoin:round"
       inkscape:connector-curvature="0"
       d="m 22.503163,22.270591 c -2.590099,0 -4.690643,2.100243 -4.690643,4.691346 0,2.072417 1.343977,3.830676 3.208094,4.451073 0.234738,0.04306 0.320208,-0.101796 0.320208,-0.226117 0,-0.111364 -0.0094,-0.406382 -0.0094,-0.797849 -1.304762,0.283479 -1.580124,-0.62884 -1.580124,-0.62884 -0.213348,-0.541916 -0.520985,-0.686212 -0.520985,-0.686212 -0.42585,-0.291078 0.0319,-0.285167 0.0319,-0.285167 0.470885,0.03312 0.71857,0.483457 0.71857,0.483457 0.418346,0.716844 1.09798,0.509876 1.365274,0.389786 0.04222,-0.30319 0.163811,-0.509876 0.297786,-0.627152 -1.041687,-0.118401 -2.136852,-0.520844 -2.136852,-2.31846 0,-0.512128 0.182856,-0.930886 0.482987,-1.258816 -0.04879,-0.118674 -0.209407,-0.595628 0.04597,-1.241488 0,0 0.39367,-0.126132 1.289842,0.480895 0.374061,-0.104037 0.775519,-0.156079 1.174349,-0.15789 0.398643,0.0019 0.799819,0.05385 1.174444,0.15789 0.895609,-0.607027 1.288716,-0.480895 1.288716,-0.480895 0.256035,0.64586 0.09504,1.122814 0.04691,1.241488 0.300695,0.32793 0.482144,0.746688 0.482144,1.258816 0,1.80212 -1.096949,2.198652 -2.141732,2.314801 0.16822,0.144812 0.318239,0.431114 0.318239,0.86874 0,0.627105 -0.0094,1.133078 -0.0094,1.286896 0,0.125447 0.08444,0.271385 0.322554,0.225554 1.862616,-0.621523 3.205466,-2.378657 3.205466,-4.45051 0,-2.591103 -2.100543,-4.691346 -4.691487,-4.691346 z"
       id="path868"
       clip-path="url(#clipPath1796)" />
  </g>
</svg>
