<?xml version="1.0" encoding="UTF-8" standalone="no"?>
<!-- Created with Inkscape (http://www.inkscape.org/) -->

<svg
   xmlns:dc="http://purl.org/dc/elements/1.1/"
   xmlns:cc="http://creativecommons.org/ns#"
   xmlns:rdf="http://www.w3.org/1999/02/22-rdf-syntax-ns#"
   xmlns:svg="http://www.w3.org/2000/svg"
   xmlns="http://www.w3.org/2000/svg"
   xmlns:sodipodi="http://sodipodi.sourceforge.net/DTD/sodipodi-0.dtd"
   xmlns:inkscape="http://www.inkscape.org/namespaces/inkscape"
   sodipodi:docname="moodle.svg"
   inkscape:version="0.92.2 (5c3e80d, 2017-08-06)"
   version="1.1"
   id="svg2"
   viewBox="0 0 20.625 20.625"
   height="22"
   width="22"
   inkscape:export-filename="/home/juergen/Desktop/ic_launcher.png"
   inkscape:export-xdpi="628.36365"
   inkscape:export-ydpi="628.36365">
  <sodipodi:namedview
     inkscape:snap-to-guides="true"
     inkscape:snap-grids="true"
     inkscape:window-maximized="1"
     inkscape:window-y="33"
     inkscape:window-x="0"
     inkscape:window-height="699"
     inkscape:window-width="1366"
     inkscape:guide-bbox="true"
     showguides="false"
     fit-margin-bottom="1"
     fit-margin-right="1"
     fit-margin-left="1"
     fit-margin-top="1"
     showgrid="true"
     inkscape:current-layer="layer2"
     inkscape:document-units="px"
     inkscape:cy="10.89788"
     inkscape:cx="8.0271724"
     inkscape:zoom="15.839192"
     inkscape:pageshadow="2"
     inkscape:pageopacity="0.0"
     borderopacity="1.0"
     bordercolor="#666666"
     pagecolor="#ffffff"
     id="base"
     units="px">
    <inkscape:grid
       type="xygrid"
       id="grid4138"
       originx="6.5625002"
       originy="18.750001" />
    <sodipodi:guide
       position="11.874978,21.095829"
       orientation="0,1"
       id="guide4140"
       inkscape:locked="false" />
    <sodipodi:guide
       position="11.874978,5.0958282"
       orientation="0,1"
       id="guide4142"
       inkscape:locked="false" />
    <sodipodi:guide
       position="3.874978,13.095829"
       orientation="1,0"
       id="guide4144"
       inkscape:locked="false" />
    <sodipodi:guide
       position="1.8749779,3.0958281"
       orientation="0,20"
       id="guide4146"
       inkscape:locked="false" />
    <sodipodi:guide
       position="21.874978,3.0958281"
       orientation="-20,0"
       id="guide4148"
       inkscape:locked="false" />
    <sodipodi:guide
       position="21.874978,23.095829"
       orientation="0,-20"
       id="guide4150"
       inkscape:locked="false" />
    <sodipodi:guide
       position="1.8749779,23.095829"
       orientation="20,0"
       id="guide4152"
       inkscape:locked="false" />
    <sodipodi:guide
       position="19.874978,13.095829"
       orientation="1,0"
       id="guide4154"
       inkscape:locked="false" />
    <sodipodi:guide
       position="11.874978,13.095829"
       orientation="-0.70710678,0.70710678"
       id="guide4156"
       inkscape:locked="false" />
    <sodipodi:guide
       position="11.874978,13.095829"
       orientation="0.70710678,0.70710678"
       id="guide4158"
       inkscape:locked="false" />
    <sodipodi:guide
       position="5.8749781,13.095829"
       orientation="1,0"
       id="guide4160"
       inkscape:locked="false" />
    <sodipodi:guide
       position="17.874978,13.095829"
       orientation="1,0"
       id="guide4162"
       inkscape:locked="false" />
    <sodipodi:guide
       position="11.874978,19.095829"
       orientation="0,1"
       id="guide4164"
       inkscape:locked="false" />
    <sodipodi:guide
       position="11.874978,7.0958282"
       orientation="0,1"
       id="guide4166"
       inkscape:locked="false" />
    <sodipodi:guide
       position="11.874978,18.095829"
       orientation="0,1"
       id="guide4168"
       inkscape:locked="false" />
    <sodipodi:guide
       position="11.874978,8.0958282"
       orientation="0,1"
       id="guide4170"
       inkscape:locked="false" />
    <sodipodi:guide
       position="6.8749781,13.095829"
       orientation="1,0"
       id="guide4172"
       inkscape:locked="false" />
    <sodipodi:guide
       position="16.874978,13.095829"
       orientation="1,0"
       id="guide4174"
       inkscape:locked="false" />
  </sodipodi:namedview>
  <defs
     id="defs4">
    <clipPath
       id="clipPath12478"
       clipPathUnits="userSpaceOnUse">
      <circle
         r="10"
         cy="10.000005"
         cx="9.9999781"
         id="circle12480"
         style="opacity:1;fill:#2196f3;fill-opacity:1;stroke:none;stroke-width:0.05069799;stroke-miterlimit:4;stroke-dasharray:none;stroke-opacity:1" />
    </clipPath>
    <clipPath
       clipPathUnits="userSpaceOnUse"
       id="clipPath5790">
      <circle
         r="10"
         cy="10.000005"
         cx="9.9999781"
         id="circle5792"
         style="opacity:1;fill:#2196f3;fill-opacity:1;stroke:none;stroke-width:0.05069799;stroke-miterlimit:4;stroke-dasharray:none;stroke-opacity:1"
         inkscape:export-filename="/home/juergen/path4136.png"
         inkscape:export-xdpi="648"
         inkscape:export-ydpi="648" />
    </clipPath>
    <clipPath
       id="clipPath7690"
       clipPathUnits="userSpaceOnUse">
      <circle
         r="10"
         cy="10.000005"
         cx="9.9999781"
         id="circle7692"
         style="opacity:1;fill:#2196f3;fill-opacity:1;stroke:none;stroke-width:0.05069799;stroke-miterlimit:4;stroke-dasharray:none;stroke-opacity:1"
         inkscape:export-filename="/home/juergen/Schreibtisch/path4136.png"
         inkscape:export-xdpi="648"
         inkscape:export-ydpi="648" />
    </clipPath>
    <clipPath
       clipPathUnits="userSpaceOnUse"
       id="clipPath5119">
      <circle
         r="10"
         cy="10.000005"
         cx="9.9999781"
         id="circle5121"
         style="opacity:1;fill:#ff9800;fill-opacity:1;stroke:none;stroke-width:0.05069799;stroke-miterlimit:4;stroke-dasharray:none;stroke-opacity:1"
         inkscape:export-filename="/home/juergen/Schreibtisch/path4136.png"
         inkscape:export-xdpi="648"
         inkscape:export-ydpi="648" />
    </clipPath>
    <clipPath
       id="clipPath3591"
       clipPathUnits="userSpaceOnUse">
      <rect
         y="8.63554"
         x="4.000071"
         height="20"
         width="20"
         id="rect3593"
         style="fill:#ea80fc;fill-opacity:0.95685281;stroke:none;stroke-width:5.75974274;stroke-miterlimit:4;stroke-dasharray:none;stroke-opacity:1"
         inkscape:export-filename="/home/juergen/Desktop/ic_launcher.png"
         inkscape:export-xdpi="691.20001"
         inkscape:export-ydpi="691.20001" />
    </clipPath>
    <clipPath
       id="clipPath3595"
       clipPathUnits="userSpaceOnUse">
      <rect
         y="3.4083283"
         x="-0.93747789"
         height="18.75"
         width="18.75"
         id="rect3597"
         style="fill:#ea80fc;fill-opacity:0.95685281;stroke:none;stroke-width:5.39975882;stroke-miterlimit:4;stroke-dasharray:none;stroke-opacity:1"
         inkscape:export-filename="/home/juergen/Desktop/ic_launcher.png"
         inkscape:export-xdpi="691.20001"
         inkscape:export-ydpi="691.20001" />
    </clipPath>
    <clipPath
       id="clipPath3599"
       clipPathUnits="userSpaceOnUse">
      <rect
         y="3.4083283"
         x="-0.93747789"
         height="18.75"
         width="18.75"
         id="rect3601"
         style="fill:#ea80fc;fill-opacity:0.95685281;stroke:none;stroke-width:5.39975882;stroke-miterlimit:4;stroke-dasharray:none;stroke-opacity:1"
         inkscape:export-filename="/home/juergen/Desktop/ic_launcher.png"
         inkscape:export-xdpi="691.20001"
         inkscape:export-ydpi="691.20001" />
    </clipPath>
    <clipPath
       id="clipPath3603"
       clipPathUnits="userSpaceOnUse">
      <rect
         y="3.4083283"
         x="-0.93747789"
         height="18.75"
         width="18.75"
         id="rect3605"
         style="fill:#ea80fc;fill-opacity:0.95685281;stroke:none;stroke-width:5.39975882;stroke-miterlimit:4;stroke-dasharray:none;stroke-opacity:1"
         inkscape:export-filename="/home/juergen/Desktop/ic_launcher.png"
         inkscape:export-xdpi="691.20001"
         inkscape:export-ydpi="691.20001" />
    </clipPath>
    <clipPath
       id="clipPath3617"
       clipPathUnits="userSpaceOnUse">
      <rect
         y="3.4083283"
         x="-0.93747789"
         height="18.75"
         width="18.75"
         id="rect3619"
         style="fill:#8bc34a;fill-opacity:0.95685281;stroke:none;stroke-width:5.39975882;stroke-miterlimit:4;stroke-dasharray:none;stroke-opacity:1"
         inkscape:export-filename="/home/juergen/Desktop/ic_launcher.png"
         inkscape:export-xdpi="691.20001"
         inkscape:export-ydpi="691.20001"
         ry="0.93749899" />
    </clipPath>
    <clipPath
       id="clipPath3621"
       clipPathUnits="userSpaceOnUse">
      <rect
         y="8.63554"
         x="4.000071"
         height="20"
         width="20"
         id="rect3623"
         style="fill:#8bc34a;fill-opacity:0.95685281;stroke:none;stroke-width:5.75974274;stroke-miterlimit:4;stroke-dasharray:none;stroke-opacity:1"
         inkscape:export-filename="/home/juergen/Desktop/ic_launcher.png"
         inkscape:export-xdpi="691.20001"
         inkscape:export-ydpi="691.20001"
         ry="0.99999893" />
    </clipPath>
    <clipPath
       id="clipPath3627"
       clipPathUnits="userSpaceOnUse">
      <rect
         y="3.4083283"
         x="-0.93747789"
         height="18.75"
         width="18.75"
         id="rect3629"
         style="fill:#8bc34a;fill-opacity:0.95685281;stroke:none;stroke-width:5.39975882;stroke-miterlimit:4;stroke-dasharray:none;stroke-opacity:1"
         inkscape:export-filename="/home/juergen/Desktop/ic_launcher.png"
         inkscape:export-xdpi="691.20001"
         inkscape:export-ydpi="691.20001"
         ry="1.874999" />
    </clipPath>
    <clipPath
       id="clipPath3631"
       clipPathUnits="userSpaceOnUse">
      <rect
         y="8.63554"
         x="4.000071"
         height="20"
         width="20"
         id="rect3633"
         style="fill:#8bc34a;fill-opacity:0.95685281;stroke:none;stroke-width:5.75974274;stroke-miterlimit:4;stroke-dasharray:none;stroke-opacity:1"
         inkscape:export-filename="/home/juergen/Desktop/ic_launcher.png"
         inkscape:export-xdpi="691.20001"
         inkscape:export-ydpi="691.20001"
         ry="1.9999989" />
    </clipPath>
    <clipPath
       clipPathUnits="userSpaceOnUse"
       id="clipPath1784">
      <rect
         y="1"
         x="1"
         height="20"
         width="20"
         id="rect1786"
         style="fill:#ffc107;fill-opacity:0.95685281;stroke:none;stroke-width:5.75974274;stroke-miterlimit:4;stroke-dasharray:none;stroke-opacity:1"
         inkscape:export-filename="/home/juergen/Desktop/ic_launcher.png"
         inkscape:export-xdpi="691.20001"
         inkscape:export-ydpi="691.20001"
         ry="1.9999989" />
    </clipPath>
    <clipPath
       clipPathUnits="userSpaceOnUse"
       id="clipPath1788">
      <rect
         y="3.4083283"
         x="-0.93747789"
         height="18.75"
         width="18.75"
         id="rect1790"
         style="fill:#ffc107;fill-opacity:0.95685281;stroke:none;stroke-width:5.39975882;stroke-miterlimit:4;stroke-dasharray:none;stroke-opacity:1"
         inkscape:export-filename="/home/juergen/Desktop/ic_launcher.png"
         inkscape:export-xdpi="691.20001"
         inkscape:export-ydpi="691.20001"
         ry="1.874999" />
    </clipPath>
    <clipPath
       clipPathUnits="userSpaceOnUse"
       id="clipPath1792">
      <rect
         y="3.4083283"
         x="-0.93747789"
         height="18.75"
         width="18.75"
         id="rect1794"
         style="fill:#ffc107;fill-opacity:0.95685281;stroke:none;stroke-width:5.39975882;stroke-miterlimit:4;stroke-dasharray:none;stroke-opacity:1"
         inkscape:export-filename="/home/juergen/Desktop/ic_launcher.png"
         inkscape:export-xdpi="691.20001"
         inkscape:export-ydpi="691.20001"
         ry="1.874999" />
    </clipPath>
  </defs>
  <metadata
     id="metadata7">
    <rdf:RDF>
      <cc:Work
         rdf:about="">
        <dc:format>image/svg+xml</dc:format>
        <dc:type
           rdf:resource="http://purl.org/dc/dcmitype/StillImage" />
        <dc:title></dc:title>
      </cc:Work>
    </rdf:RDF>
  </metadata>
  <g
     inkscape:label="Hintergrund"
     inkscape:groupmode="layer"
     id="layer1"
     transform="translate(1060.0177,-864.40447)" />
  <g
     style="display:inline"
     inkscape:groupmode="layer"
     id="layer2"
     inkscape:label="Icon"
     transform="translate(1.8749779,-2.4708283)">
    <rect
       ry="1.874999"
       inkscape:export-ydpi="691.20001"
       inkscape:export-xdpi="691.20001"
       inkscape:export-filename="/home/juergen/Desktop/ic_launcher.png"
       style="fill:#880e4f;fill-opacity:0.99492383;stroke:none;stroke-width:5.39975882;stroke-miterlimit:4;stroke-dasharray:none;stroke-opacity:1"
       id="rect849"
       width="18.75"
       height="18.75"
       x="-0.93747789"
       y="3.4083283" />
    <path
       style="display:inline;fill:#212121;stroke-width:1;opacity:0.2"
       d="M 11.148438 7.0585938 L 6.1484375 9.7851562 L 6.359375 9.9003906 L 6.296875 9.9335938 L 6.5058594 10.046875 L 6.4453125 10.080078 L 6.6523438 10.193359 L 6.5917969 10.226562 L 6.7988281 10.339844 L 6.7363281 10.373047 L 6.9414062 10.484375 L 6.8828125 10.517578 L 7.0878906 10.628906 L 7.0273438 10.662109 L 7.2304688 10.773438 L 7.1699219 10.806641 L 7.3710938 10.916016 L 7.3125 10.949219 L 7.5136719 11.058594 L 7.4550781 11.091797 L 7.65625 11.201172 L 7.5976562 11.232422 L 7.796875 11.341797 L 7.7382812 11.373047 L 7.9355469 11.480469 L 7.8769531 11.513672 L 8.0742188 11.621094 L 8.0175781 11.652344 L 8.2128906 11.759766 L 8.15625 11.789062 L 7.9667969 11.685547 L 7.9667969 13.503906 L 8.1152344 13.583984 L 8.1152344 13.652344 L 8.2617188 13.732422 L 8.2617188 13.798828 L 8.4101562 13.878906 L 8.4101562 13.945312 L 8.5546875 14.023438 L 8.5546875 14.091797 L 8.7011719 14.171875 L 8.7011719 14.236328 L 8.8457031 14.314453 L 8.8457031 14.380859 L 8.9882812 14.458984 L 8.9882812 14.525391 L 9.1308594 14.603516 L 9.1308594 14.667969 L 9.2734375 14.746094 L 9.2734375 14.810547 L 9.4160156 14.888672 L 9.4160156 14.951172 L 9.5566406 15.027344 L 9.5566406 15.091797 L 9.6953125 15.167969 L 9.6953125 15.232422 L 9.8359375 15.308594 L 9.8359375 15.371094 L 9.9726562 15.445312 L 9.9726562 15.509766 L 10.111328 15.585938 L 10.111328 15.648438 L 10.248047 15.722656 L 10.248047 15.785156 L 10.384766 15.859375 L 10.384766 15.919922 L 10.519531 15.994141 L 10.519531 16.056641 L 10.654297 16.130859 L 10.654297 16.191406 L 10.789062 16.265625 L 10.789062 16.324219 L 10.921875 16.396484 L 10.921875 16.458984 L 11.054688 16.53125 L 11.054688 16.591797 L 11.185547 16.664062 L 11.185547 16.722656 L 11.318359 16.794922 L 11.318359 16.853516 L 11.447266 16.923828 L 11.447266 16.984375 L 11.578125 17.056641 L 11.578125 17.113281 L 11.707031 17.183594 L 11.707031 17.242188 L 11.833984 17.310547 L 11.833984 17.371094 L 11.960938 17.439453 L 11.960938 17.498047 L 12.087891 17.566406 L 12.087891 17.625 L 12.214844 17.693359 L 12.214844 17.75 L 12.339844 17.818359 L 12.339844 17.875 L 12.462891 17.941406 L 12.462891 18 L 12.587891 18.068359 L 12.587891 18.123047 L 12.710938 18.189453 L 12.710938 18.246094 L 12.832031 18.3125 L 12.832031 18.369141 L 12.953125 18.435547 L 12.953125 18.490234 L 13.074219 18.556641 L 13.074219 18.611328 L 13.193359 18.675781 L 13.193359 18.730469 L 13.3125 18.794922 L 13.3125 18.849609 L 13.431641 18.914062 L 13.431641 18.96875 L 13.548828 19.033203 L 13.548828 19.085938 L 13.666016 19.150391 L 13.666016 19.203125 L 13.783203 19.267578 L 13.783203 19.318359 L 13.898438 19.380859 L 13.898438 19.435547 L 14.013672 19.498047 L 14.013672 19.548828 L 14.126953 19.611328 L 14.126953 19.664062 L 14.240234 19.726562 L 14.240234 19.777344 L 14.353516 19.839844 L 14.353516 19.888672 L 14.464844 19.949219 L 14.464844 20 L 14.576172 20.060547 L 14.576172 20.111328 L 14.685547 20.171875 L 14.685547 20.222656 L 14.794922 20.283203 L 14.794922 20.332031 L 14.904297 20.392578 L 14.904297 20.439453 L 15.011719 20.498047 L 15.011719 20.548828 L 15.119141 20.607422 L 15.119141 20.65625 L 15.226562 20.714844 L 15.226562 20.761719 L 15.332031 20.818359 L 15.332031 20.867188 L 15.4375 20.923828 L 15.4375 20.972656 L 15.541016 21.029297 L 15.541016 21.078125 L 15.644531 21.134766 L 15.644531 21.181641 L 15.748047 21.238281 L 15.748047 21.283203 L 15.849609 21.337891 L 15.849609 21.386719 L 15.951172 21.441406 L 15.951172 21.488281 L 16.050781 21.542969 L 16.050781 21.587891 L 16.152344 21.642578 L 16.152344 21.6875 L 16.25 21.740234 L 16.25 21.787109 L 16.349609 21.841797 L 16.349609 21.884766 L 16.447266 21.9375 L 16.447266 21.982422 L 16.542969 22.035156 L 16.542969 22.080078 L 16.640625 22.132812 L 16.640625 22.175781 L 16.734375 22.226562 L 16.734375 22.271484 L 16.830078 22.324219 L 16.830078 22.365234 L 16.923828 22.416016 L 16.923828 22.460938 L 17.017578 22.511719 L 17.017578 22.552734 L 17.109375 22.603516 L 17.109375 22.646484 L 17.201172 22.697266 L 17.201172 22.738281 L 17.292969 22.789062 L 17.292969 22.828125 L 17.382812 22.876953 L 17.382812 22.917969 L 17.472656 22.966797 L 17.472656 23.007812 L 17.560547 23.056641 L 17.560547 23.097656 L 17.648438 23.146484 L 17.648438 23.185547 L 17.736328 23.234375 L 17.736328 23.271484 L 17.822266 23.318359 L 17.822266 23.359375 L 17.908203 23.40625 L 17.908203 23.445312 L 17.992188 23.490234 L 17.992188 23.529297 L 18.078125 23.576172 L 18.078125 23.613281 L 18.160156 23.658203 L 18.160156 23.697266 L 18.244141 23.742188 L 18.244141 23.779297 L 18.326172 23.824219 L 18.326172 23.861328 L 18.40625 23.904297 L 18.40625 23.943359 L 18.488281 23.988281 L 18.488281 24.023438 L 18.568359 24.066406 L 18.568359 24.103516 L 18.646484 24.146484 L 18.646484 24.183594 L 18.724609 24.226562 L 18.724609 24.261719 L 18.802734 24.304688 L 18.802734 24.337891 L 18.878906 24.378906 L 18.878906 24.416016 L 18.955078 24.457031 L 18.955078 24.492188 L 19.03125 24.533203 L 19.03125 24.566406 L 19.105469 24.607422 L 19.105469 24.642578 L 19.179688 24.683594 L 19.179688 24.714844 L 19.251953 24.753906 L 19.251953 24.789062 L 19.324219 24.828125 L 19.324219 24.861328 L 19.396484 24.900391 L 19.396484 24.933594 L 19.466797 24.972656 L 19.466797 25.003906 L 19.537109 25.042969 L 19.537109 25.074219 L 19.607422 25.113281 L 19.607422 25.142578 L 19.675781 25.179688 L 19.675781 25.212891 L 19.744141 25.25 L 19.744141 25.279297 L 19.810547 25.316406 L 19.810547 25.347656 L 19.876953 25.384766 L 19.876953 25.414062 L 19.943359 25.451172 L 19.943359 25.478516 L 20.007812 25.513672 L 20.007812 25.544922 L 20.072266 25.580078 L 20.072266 25.609375 L 20.134766 25.642578 L 20.134766 25.671875 L 20.199219 25.707031 L 20.199219 25.734375 L 20.259766 25.767578 L 20.259766 25.796875 L 20.322266 25.830078 L 20.322266 25.857422 L 20.382812 25.890625 L 20.382812 25.917969 L 20.441406 25.949219 L 20.441406 25.978516 L 20.501953 26.011719 L 20.501953 26.037109 L 20.558594 26.068359 L 20.558594 26.095703 L 20.617188 26.126953 L 20.617188 26.152344 L 20.673828 26.183594 L 20.673828 26.210938 L 20.730469 26.242188 L 20.730469 26.265625 L 20.785156 26.294922 L 20.785156 26.322266 L 20.839844 26.351562 L 20.839844 26.376953 L 20.892578 26.40625 L 20.892578 26.429688 L 20.947266 26.458984 L 20.947266 26.482422 L 20.998047 26.509766 L 20.998047 26.535156 L 21.050781 26.564453 L 21.050781 26.585938 L 21.101562 26.613281 L 21.101562 26.638672 L 21.152344 26.666016 L 21.152344 26.6875 L 21.201172 26.714844 L 21.201172 26.736328 L 21.25 26.763672 L 21.25 26.785156 L 21.296875 26.810547 L 21.296875 26.833984 L 21.34375 26.859375 L 21.34375 26.880859 L 21.390625 26.90625 L 21.390625 26.927734 L 21.4375 26.953125 L 21.4375 26.972656 L 21.482422 26.998047 L 21.482422 27.017578 L 21.525391 27.041016 L 21.525391 27.0625 L 21.568359 27.085938 L 21.568359 27.105469 L 21.611328 27.128906 L 21.611328 27.148438 L 21.654297 27.171875 L 21.654297 27.189453 L 21.695312 27.210938 L 21.695312 27.230469 L 21.736328 27.251953 L 21.736328 27.271484 L 21.775391 27.292969 L 21.775391 27.3125 L 21.814453 27.333984 L 21.814453 27.351562 L 21.851562 27.371094 L 21.851562 27.388672 L 21.890625 27.410156 L 21.890625 27.425781 L 21.925781 27.445312 L 21.925781 27.462891 L 21.962891 27.482422 L 21.962891 27.5 L 21.998047 27.519531 L 21.998047 27.535156 L 22.033203 27.554688 L 22.033203 27.568359 L 22.066406 27.585938 L 22.066406 27.603516 L 22.099609 27.621094 L 22.099609 27.636719 L 22.130859 27.654297 L 22.130859 27.667969 L 22.164062 27.685547 L 22.164062 27.699219 L 22.193359 27.714844 L 22.193359 27.730469 L 22.224609 27.748047 L 22.224609 27.759766 L 22.253906 27.775391 L 22.253906 27.789062 L 22.28125 27.804688 L 22.28125 27.818359 L 22.310547 27.833984 L 22.310547 27.845703 L 22.337891 27.861328 L 22.337891 27.873047 L 22.363281 27.886719 L 22.363281 27.900391 L 22.388672 27.914062 L 22.388672 27.925781 L 22.414062 27.939453 L 22.414062 27.951172 L 22.4375 27.964844 L 22.4375 27.974609 L 22.460938 27.988281 L 22.460938 27.998047 L 22.484375 28.011719 L 22.484375 28.019531 L 22.505859 28.03125 L 22.505859 28.042969 L 22.527344 28.054688 L 22.527344 28.0625 L 22.546875 28.072266 L 22.546875 28.083984 L 22.566406 28.09375 L 22.566406 28.103516 L 22.585938 28.113281 L 22.585938 28.123047 L 22.603516 28.132812 L 22.603516 28.140625 L 22.621094 28.150391 L 22.621094 28.158203 L 22.638672 28.167969 L 22.638672 28.175781 L 22.654297 28.183594 L 22.654297 28.191406 L 22.669922 28.199219 L 22.669922 28.205078 L 22.683594 28.212891 L 22.683594 28.220703 L 22.697266 28.228516 L 22.697266 28.234375 L 22.710938 28.242188 L 22.710938 28.248047 L 22.722656 28.253906 L 22.722656 28.259766 L 22.734375 28.265625 L 22.734375 28.271484 L 22.746094 28.277344 L 22.746094 28.28125 L 22.755859 28.287109 L 22.755859 28.291016 L 22.765625 28.296875 L 22.765625 28.300781 L 22.773438 28.304688 L 22.773438 28.310547 L 22.78125 28.314453 L 22.78125 28.318359 L 22.789062 28.322266 L 22.789062 28.324219 L 22.794922 28.328125 L 22.794922 28.330078 L 22.800781 28.333984 L 22.800781 28.335938 L 22.804688 28.337891 L 22.804688 28.341797 L 22.808594 28.34375 L 22.808594 28.345703 L 22.814453 28.349609 L 22.814453 28.351562 L 22.816406 28.353516 L 22.818359 28.353516 L 25.996094 30.087891 L 26 30.089844 L 29.179688 28.353516 L 29.181641 28.353516 L 29.181641 27.34375 L 29.199219 27.34375 L 29.199219 27.380859 L 29.236328 27.380859 L 29.236328 27.417969 L 29.271484 27.417969 L 29.271484 27.453125 L 29.304688 27.453125 L 29.304688 27.486328 L 29.339844 27.486328 L 29.339844 27.521484 L 29.373047 27.521484 L 29.373047 27.554688 L 29.404297 27.554688 L 29.404297 27.585938 L 29.435547 27.585938 L 29.435547 27.617188 L 29.466797 27.617188 L 29.466797 27.648438 L 29.496094 27.648438 L 29.496094 27.677734 L 29.525391 27.677734 L 29.525391 27.708984 L 29.554688 27.708984 L 29.554688 27.736328 L 29.582031 27.736328 L 29.582031 27.763672 L 29.609375 27.763672 L 29.609375 27.791016 L 29.636719 27.791016 L 29.636719 27.818359 L 29.662109 27.818359 L 29.662109 27.84375 L 29.6875 27.84375 L 29.6875 27.869141 L 29.710938 27.869141 L 29.710938 27.892578 L 29.734375 27.892578 L 29.734375 27.916016 L 29.755859 27.916016 L 29.755859 27.939453 L 29.779297 27.939453 L 29.779297 27.960938 L 29.800781 27.960938 L 29.800781 27.982422 L 29.820312 27.982422 L 29.820312 28.001953 L 29.839844 28.001953 L 29.839844 28.021484 L 29.859375 28.021484 L 29.859375 28.041016 L 29.876953 28.041016 L 29.876953 28.058594 L 29.894531 28.058594 L 29.894531 28.076172 L 29.912109 28.076172 L 29.912109 28.09375 L 29.927734 28.09375 L 29.927734 28.109375 L 29.943359 28.109375 L 29.943359 28.125 L 29.957031 28.125 L 29.957031 28.138672 L 29.970703 28.138672 L 29.970703 28.152344 L 29.984375 28.152344 L 29.984375 28.166016 L 29.996094 28.166016 L 29.996094 28.177734 L 30.007812 28.177734 L 30.007812 28.189453 L 30.017578 28.189453 L 30.017578 28.199219 L 30.027344 28.199219 L 30.027344 28.210938 L 30.037109 28.210938 L 30.037109 28.21875 L 30.046875 28.21875 L 30.046875 28.228516 L 30.054688 28.228516 L 30.054688 28.236328 L 30.060547 28.236328 L 30.060547 28.242188 L 30.066406 28.242188 L 30.066406 28.248047 L 30.072266 28.248047 L 30.072266 28.253906 L 30.078125 28.253906 L 30.078125 28.259766 L 30.082031 28.259766 L 30.082031 28.263672 L 30.085938 28.263672 L 30.085938 28.267578 L 30.087891 28.267578 L 30.087891 28.269531 L 30.089844 28.269531 L 30.089844 28.271484 L 30.998047 28.271484 L 31 28.271484 L 31 24.636719 L 30.998047 24.634766 L 30.996094 24.632812 L 30.994141 24.630859 L 30.990234 24.628906 L 30.990234 24.626953 L 30.986328 24.625 L 30.986328 24.623047 L 30.982422 24.621094 L 30.982422 24.619141 L 30.976562 24.615234 L 30.976562 24.613281 L 30.970703 24.609375 L 30.970703 24.605469 L 30.962891 24.601562 L 30.962891 24.599609 L 30.955078 24.595703 L 30.955078 24.591797 L 30.947266 24.587891 L 30.947266 24.582031 L 30.9375 24.576172 L 30.9375 24.574219 L 30.927734 24.568359 L 30.927734 24.564453 L 30.916016 24.558594 L 30.916016 24.552734 L 30.904297 24.546875 L 30.904297 24.541016 L 30.892578 24.535156 L 30.892578 24.529297 L 30.878906 24.521484 L 30.878906 24.515625 L 30.865234 24.507812 L 30.865234 24.501953 L 30.851562 24.494141 L 30.851562 24.488281 L 30.835938 24.480469 L 30.835938 24.472656 L 30.820312 24.464844 L 30.820312 24.457031 L 30.802734 24.447266 L 30.802734 24.439453 L 30.787109 24.431641 L 30.787109 24.421875 L 30.767578 24.412109 L 30.767578 24.404297 L 30.748047 24.394531 L 30.748047 24.384766 L 30.728516 24.375 L 30.728516 24.365234 L 30.708984 24.355469 L 30.708984 24.345703 L 30.6875 24.333984 L 30.6875 24.324219 L 30.666016 24.3125 L 30.666016 24.302734 L 30.642578 24.289062 L 30.642578 24.279297 L 30.619141 24.265625 L 30.619141 24.255859 L 30.595703 24.242188 L 30.595703 24.232422 L 30.570312 24.21875 L 30.570312 24.207031 L 30.544922 24.193359 L 30.544922 24.181641 L 30.519531 24.167969 L 30.519531 24.154297 L 30.492188 24.138672 L 30.492188 24.128906 L 30.464844 24.113281 L 30.464844 24.099609 L 30.435547 24.083984 L 30.435547 24.072266 L 30.40625 24.056641 L 30.40625 24.042969 L 30.375 24.025391 L 30.375 24.011719 L 30.345703 23.996094 L 30.345703 23.980469 L 30.314453 23.962891 L 30.314453 23.949219 L 30.28125 23.931641 L 30.28125 23.917969 L 30.248047 23.900391 L 30.248047 23.884766 L 30.214844 23.867188 L 30.214844 23.851562 L 30.179688 23.832031 L 30.179688 23.816406 L 30.144531 23.796875 L 30.144531 23.78125 L 30.109375 23.761719 L 30.109375 23.744141 L 30.072266 23.724609 L 30.072266 23.708984 L 30.035156 23.689453 L 30.035156 23.669922 L 29.996094 23.648438 L 29.996094 23.632812 L 29.957031 23.611328 L 29.957031 23.59375 L 29.917969 23.572266 L 29.917969 23.554688 L 29.876953 23.533203 L 29.876953 23.513672 L 29.835938 23.492188 L 29.835938 23.472656 L 29.792969 23.449219 L 29.792969 23.429688 L 29.751953 23.408203 L 29.751953 23.386719 L 29.707031 23.361328 L 29.707031 23.34375 L 29.664062 23.320312 L 29.664062 23.298828 L 29.619141 23.273438 L 29.619141 23.253906 L 29.572266 23.228516 L 29.572266 23.208984 L 29.527344 23.183594 L 29.527344 23.162109 L 29.478516 23.134766 L 29.478516 23.115234 L 29.431641 23.089844 L 29.431641 23.068359 L 29.382812 23.041016 L 29.382812 23.019531 L 29.333984 22.992188 L 29.333984 22.96875 L 29.283203 22.941406 L 29.283203 22.919922 L 29.232422 22.892578 L 29.232422 22.869141 L 29.181641 22.841797 L 29.181641 22.816406 L 29.128906 22.787109 L 29.128906 22.765625 L 29.076172 22.736328 L 29.076172 22.710938 L 29.021484 22.681641 L 29.021484 22.658203 L 28.966797 22.628906 L 28.966797 22.603516 L 28.912109 22.574219 L 28.912109 22.548828 L 28.855469 22.517578 L 28.855469 22.492188 L 28.798828 22.460938 L 28.798828 22.435547 L 28.740234 22.404297 L 28.740234 22.376953 L 28.683594 22.345703 L 28.683594 22.318359 L 28.623047 22.285156 L 28.623047 22.259766 L 28.564453 22.228516 L 28.564453 22.201172 L 28.503906 22.167969 L 28.503906 22.140625 L 28.441406 22.107422 L 28.441406 22.078125 L 28.380859 22.044922 L 28.380859 22.017578 L 28.318359 21.984375 L 28.318359 21.953125 L 28.253906 21.917969 L 28.253906 21.890625 L 28.189453 21.855469 L 28.189453 21.826172 L 28.125 21.791016 L 28.125 21.761719 L 28.058594 21.724609 L 28.058594 21.695312 L 27.992188 21.658203 L 27.992188 21.628906 L 27.925781 21.591797 L 27.925781 21.5625 L 27.857422 21.525391 L 27.857422 21.494141 L 27.789062 21.457031 L 27.789062 21.425781 L 27.71875 21.386719 L 27.71875 21.355469 L 27.648438 21.316406 L 27.648438 21.285156 L 27.578125 21.246094 L 27.578125 21.214844 L 27.505859 21.175781 L 27.505859 21.142578 L 27.433594 21.103516 L 27.433594 21.070312 L 27.361328 21.03125 L 27.361328 20.998047 L 27.287109 20.957031 L 27.287109 20.923828 L 27.212891 20.882812 L 27.212891 20.849609 L 27.136719 20.808594 L 27.136719 20.773438 L 27.060547 20.732422 L 27.060547 20.697266 L 26.984375 20.65625 L 26.984375 20.621094 L 26.90625 20.578125 L 26.90625 20.542969 L 26.828125 20.5 L 26.828125 20.464844 L 26.75 20.421875 L 26.75 20.384766 L 26.669922 20.341797 L 26.669922 20.306641 L 26.587891 20.261719 L 26.587891 20.224609 L 26.507812 20.181641 L 26.507812 20.144531 L 26.425781 20.099609 L 26.425781 20.0625 L 26.341797 20.017578 L 26.341797 19.978516 L 26.259766 19.933594 L 26.259766 19.896484 L 26.175781 19.851562 L 26.175781 19.810547 L 26.089844 19.763672 L 26.089844 19.726562 L 26.003906 19.679688 L 26.003906 19.640625 L 25.917969 19.59375 L 25.917969 19.554688 L 25.830078 19.505859 L 25.830078 19.466797 L 25.742188 19.417969 L 25.742188 19.378906 L 25.654297 19.330078 L 25.654297 19.289062 L 25.564453 19.240234 L 25.564453 19.201172 L 25.474609 19.152344 L 25.474609 19.109375 L 25.382812 19.058594 L 25.382812 19.019531 L 25.291016 18.96875 L 25.291016 18.927734 L 25.199219 18.876953 L 25.199219 18.835938 L 25.105469 18.785156 L 25.105469 18.742188 L 25.011719 18.691406 L 25.011719 18.648438 L 24.916016 18.595703 L 24.916016 18.552734 L 24.822266 18.501953 L 24.822266 18.457031 L 24.724609 18.404297 L 24.724609 18.361328 L 24.628906 18.308594 L 24.628906 18.265625 L 24.53125 18.212891 L 24.53125 18.167969 L 24.431641 18.113281 L 24.431641 18.068359 L 24.333984 18.015625 L 24.333984 17.96875 L 24.234375 17.914062 L 24.234375 17.869141 L 24.132812 17.814453 L 24.132812 17.769531 L 24.03125 17.714844 L 24.03125 17.667969 L 23.929688 17.613281 L 23.929688 17.566406 L 23.826172 17.509766 L 23.826172 17.462891 L 23.722656 17.40625 L 23.722656 17.359375 L 23.619141 17.302734 L 23.619141 17.255859 L 23.513672 17.199219 L 23.513672 17.150391 L 23.408203 17.09375 L 23.408203 17.044922 L 23.300781 16.986328 L 23.300781 16.9375 L 23.193359 16.878906 L 23.193359 16.830078 L 23.085938 16.771484 L 23.085938 16.722656 L 22.976562 16.662109 L 22.976562 16.613281 L 22.867188 16.552734 L 22.867188 16.503906 L 22.757812 16.443359 L 22.757812 16.394531 L 22.646484 16.333984 L 22.646484 16.283203 L 22.535156 16.222656 L 22.535156 16.169922 L 22.421875 16.107422 L 22.421875 16.058594 L 22.308594 15.996094 L 22.308594 15.945312 L 22.195312 15.882812 L 22.195312 15.832031 L 22.080078 15.769531 L 22.080078 15.716797 L 21.964844 15.654297 L 21.964844 15.601562 L 21.847656 15.537109 L 21.847656 15.484375 L 21.730469 15.419922 L 21.730469 15.367188 L 21.613281 15.302734 L 21.613281 15.25 L 21.496094 15.185547 L 21.496094 15.130859 L 21.376953 15.066406 L 21.376953 15.011719 L 21.255859 14.945312 L 21.255859 14.892578 L 21.134766 14.826172 L 21.134766 14.771484 L 21.013672 14.705078 L 21.013672 14.650391 L 20.892578 14.583984 L 20.892578 14.529297 L 20.769531 14.462891 L 20.769531 14.40625 L 20.644531 14.337891 L 20.644531 14.28125 L 20.521484 14.214844 L 20.521484 14.158203 L 20.396484 14.089844 L 20.396484 14.033203 L 20.269531 13.964844 L 20.269531 13.90625 L 20.142578 13.837891 L 20.142578 13.779297 L 20.015625 13.710938 L 20.015625 13.652344 L 19.888672 13.583984 L 19.888672 13.523438 L 19.759766 13.453125 L 19.759766 13.396484 L 19.628906 13.324219 L 19.628906 13.265625 L 19.5 13.195312 L 19.5 13.134766 L 19.369141 13.0625 L 19.369141 13.003906 L 19.236328 12.931641 L 19.236328 12.873047 L 19.103516 12.800781 L 19.103516 12.740234 L 18.970703 12.667969 L 18.970703 12.607422 L 18.835938 12.533203 L 18.835938 12.472656 L 18.701172 12.398438 L 18.701172 12.337891 L 18.566406 12.263672 L 18.566406 12.203125 L 18.429688 12.128906 L 18.429688 12.066406 L 18.292969 11.992188 L 18.292969 11.929688 L 18.154297 11.853516 L 18.154297 11.791016 L 18.017578 11.716797 L 18.017578 11.652344 L 17.876953 11.576172 L 17.876953 11.513672 L 17.738281 11.4375 L 17.738281 11.373047 L 17.597656 11.296875 L 17.597656 11.232422 L 17.455078 11.154297 L 17.455078 11.091797 L 17.3125 11.013672 L 17.3125 10.949219 L 17.169922 10.871094 L 17.169922 10.806641 L 17.027344 10.728516 L 17.027344 10.662109 L 16.882812 10.583984 L 16.882812 10.517578 L 16.736328 10.4375 L 16.736328 10.373047 L 16.591797 10.294922 L 16.591797 10.226562 L 16.445312 10.146484 L 16.445312 10.080078 L 16.296875 10 L 16.296875 9.9335938 L 16.148438 9.8535156 L 16.148438 9.7851562 L 11.148438 7.0585938 z "
       transform="matrix(0.9375,0,0,0.9375,-1.8749779,2.4708283)"
       id="path923"
       clip-path="url(#clipPath1784)" />
    <path
       d="M 3.9999777,4.0333382 H 15.999978 V 15.966671 H 3.9999777 Z"
       id="path4"
       inkscape:connector-curvature="0"
       style="fill:none" />
    <path
       clip-path="url(#clipPath3603)"
       style="fill:none"
       inkscape:connector-curvature="0"
       id="path9754"
       d="m 18.999978,19.033339 h 12 v 11.933333 h -12 z" />
    <path
       clip-path="url(#clipPath3595)"
       style="fill:#212121"
       id="path1785"
       d="m 21.500022,22.845828 h -3 c -0.555,0 -1,0.445 -1,1 v 6 a 1,1 0 0 0 1,1 h 8 a 1,1 0 0 0 1,-1 v -5 c 0,-0.555 -0.45,-1 -1,-1 h -4 z"
       inkscape:connector-curvature="0" />
    <path
       style="display:inline;fill:#f5f5f5;stroke-width:0.9375"
       id="path4233"
       d="m 8.4375221,8.9481008 -4.6875,2.5568182 4.6875,2.556819 3.8352269,-2.09233 v 2.944602 h 0.852273 v -3.409091 m -7.6704543,1.78125 v 1.704546 l 2.9829544,1.627841 2.9829539,-1.627841 V 13.286169 L 8.4375221,14.91401 Z"
       inkscape:connector-curvature="0"
       clip-path="url(#clipPath1792)" />
    <path
       inkscape:connector-curvature="0"
       d="m 22.500022,23.010601 -4.6875,2.556818 4.6875,2.556819 3.835227,-2.09233 v 2.944602 h 0.852273 v -3.409091 m -7.670454,1.78125 v 1.704546 l 2.982954,1.627841 2.982954,-1.627841 v -1.704546 l -2.982954,1.627841 z"
       id="path868"
       style="display:inline;fill:#212121;stroke-width:0.9375"
       clip-path="url(#clipPath1788)" />
    <path
       clip-path="url(#clipPath1792)"
       inkscape:connector-curvature="0"
       d="m 8.4375221,8.9481008 -4.6875,2.5568182 4.6875,2.556819 3.8352269,-2.09233 v 2.944602 h 0.852273 v -3.409091"
       id="path1806"
       style="display:inline;fill:#ff9800;stroke-width:0.9375"
       sodipodi:nodetypes="ccccccc" />
  </g>
</svg>
