<?xml version="1.0" encoding="UTF-8" standalone="no"?>
<!-- Created with Inkscape (http://www.inkscape.org/) -->

<svg
   xmlns:dc="http://purl.org/dc/elements/1.1/"
   xmlns:cc="http://creativecommons.org/ns#"
   xmlns:rdf="http://www.w3.org/1999/02/22-rdf-syntax-ns#"
   xmlns:svg="http://www.w3.org/2000/svg"
   xmlns="http://www.w3.org/2000/svg"
   xmlns:sodipodi="http://sodipodi.sourceforge.net/DTD/sodipodi-0.dtd"
   xmlns:inkscape="http://www.inkscape.org/namespaces/inkscape"
   sodipodi:docname="podcast.svg"
   inkscape:version="0.92.3 (2405546, 2018-03-11)"
   version="1.1"
   id="svg2"
   viewBox="0 0 20.625 20.625"
   height="22"
   width="22"
   inkscape:export-filename="/home/juergen/Desktop/ic_launcher.png"
   inkscape:export-xdpi="628.36365"
   inkscape:export-ydpi="628.36365">
  <sodipodi:namedview
     inkscape:snap-to-guides="true"
     inkscape:snap-grids="true"
     inkscape:window-maximized="1"
     inkscape:window-y="27"
     inkscape:window-x="0"
     inkscape:window-height="704"
     inkscape:window-width="1366"
     inkscape:guide-bbox="true"
     showguides="false"
     fit-margin-bottom="1"
     fit-margin-right="1"
     fit-margin-left="1"
     fit-margin-top="1"
     showgrid="true"
     inkscape:current-layer="layer2"
     inkscape:document-units="px"
     inkscape:cy="13.078203"
     inkscape:cx="8.4142783"
     inkscape:zoom="15.839192"
     inkscape:pageshadow="2"
     inkscape:pageopacity="0.0"
     borderopacity="1.0"
     bordercolor="#666666"
     pagecolor="#ffffff"
     id="base"
     units="px">
    <inkscape:grid
       type="xygrid"
       id="grid4138"
       originx="6.5625002"
       originy="18.750001" />
    <sodipodi:guide
       position="11.874978,21.095829"
       orientation="0,1"
       id="guide4140"
       inkscape:locked="false" />
    <sodipodi:guide
       position="11.874978,5.0958282"
       orientation="0,1"
       id="guide4142"
       inkscape:locked="false" />
    <sodipodi:guide
       position="3.874978,13.095829"
       orientation="1,0"
       id="guide4144"
       inkscape:locked="false" />
    <sodipodi:guide
       position="1.8749779,3.0958281"
       orientation="0,20"
       id="guide4146"
       inkscape:locked="false" />
    <sodipodi:guide
       position="21.874978,3.0958281"
       orientation="-20,0"
       id="guide4148"
       inkscape:locked="false" />
    <sodipodi:guide
       position="21.874978,23.095829"
       orientation="0,-20"
       id="guide4150"
       inkscape:locked="false" />
    <sodipodi:guide
       position="1.8749779,23.095829"
       orientation="20,0"
       id="guide4152"
       inkscape:locked="false" />
    <sodipodi:guide
       position="19.874978,13.095829"
       orientation="1,0"
       id="guide4154"
       inkscape:locked="false" />
    <sodipodi:guide
       position="11.874978,13.095829"
       orientation="-0.70710678,0.70710678"
       id="guide4156"
       inkscape:locked="false" />
    <sodipodi:guide
       position="11.874978,13.095829"
       orientation="0.70710678,0.70710678"
       id="guide4158"
       inkscape:locked="false" />
    <sodipodi:guide
       position="5.8749781,13.095829"
       orientation="1,0"
       id="guide4160"
       inkscape:locked="false" />
    <sodipodi:guide
       position="17.874978,13.095829"
       orientation="1,0"
       id="guide4162"
       inkscape:locked="false" />
    <sodipodi:guide
       position="11.874978,19.095829"
       orientation="0,1"
       id="guide4164"
       inkscape:locked="false" />
    <sodipodi:guide
       position="11.874978,7.0958282"
       orientation="0,1"
       id="guide4166"
       inkscape:locked="false" />
    <sodipodi:guide
       position="11.874978,18.095829"
       orientation="0,1"
       id="guide4168"
       inkscape:locked="false" />
    <sodipodi:guide
       position="11.874978,8.0958282"
       orientation="0,1"
       id="guide4170"
       inkscape:locked="false" />
    <sodipodi:guide
       position="6.8749781,13.095829"
       orientation="1,0"
       id="guide4172"
       inkscape:locked="false" />
    <sodipodi:guide
       position="16.874978,13.095829"
       orientation="1,0"
       id="guide4174"
       inkscape:locked="false" />
  </sodipodi:namedview>
  <defs
     id="defs4">
    <clipPath
       id="clipPath12478"
       clipPathUnits="userSpaceOnUse">
      <circle
         r="10"
         cy="10.000005"
         cx="9.9999781"
         id="circle12480"
         style="opacity:1;fill:#2196f3;fill-opacity:1;stroke:none;stroke-width:0.05069799;stroke-miterlimit:4;stroke-dasharray:none;stroke-opacity:1" />
    </clipPath>
    <clipPath
       clipPathUnits="userSpaceOnUse"
       id="clipPath5790">
      <circle
         r="10"
         cy="10.000005"
         cx="9.9999781"
         id="circle5792"
         style="opacity:1;fill:#2196f3;fill-opacity:1;stroke:none;stroke-width:0.05069799;stroke-miterlimit:4;stroke-dasharray:none;stroke-opacity:1"
         inkscape:export-filename="/home/juergen/path4136.png"
         inkscape:export-xdpi="648"
         inkscape:export-ydpi="648" />
    </clipPath>
    <clipPath
       id="clipPath7690"
       clipPathUnits="userSpaceOnUse">
      <circle
         r="10"
         cy="10.000005"
         cx="9.9999781"
         id="circle7692"
         style="opacity:1;fill:#2196f3;fill-opacity:1;stroke:none;stroke-width:0.05069799;stroke-miterlimit:4;stroke-dasharray:none;stroke-opacity:1"
         inkscape:export-filename="/home/juergen/Schreibtisch/path4136.png"
         inkscape:export-xdpi="648"
         inkscape:export-ydpi="648" />
    </clipPath>
    <clipPath
       clipPathUnits="userSpaceOnUse"
       id="clipPath5119">
      <circle
         r="10"
         cy="10.000005"
         cx="9.9999781"
         id="circle5121"
         style="opacity:1;fill:#ff9800;fill-opacity:1;stroke:none;stroke-width:0.05069799;stroke-miterlimit:4;stroke-dasharray:none;stroke-opacity:1"
         inkscape:export-filename="/home/juergen/Schreibtisch/path4136.png"
         inkscape:export-xdpi="648"
         inkscape:export-ydpi="648" />
    </clipPath>
    <clipPath
       id="clipPath3591"
       clipPathUnits="userSpaceOnUse">
      <rect
         y="8.63554"
         x="4.000071"
         height="20"
         width="20"
         id="rect3593"
         style="fill:#ea80fc;fill-opacity:0.95685281;stroke:none;stroke-width:5.75974274;stroke-miterlimit:4;stroke-dasharray:none;stroke-opacity:1"
         inkscape:export-filename="/home/juergen/Desktop/ic_launcher.png"
         inkscape:export-xdpi="691.20001"
         inkscape:export-ydpi="691.20001" />
    </clipPath>
    <clipPath
       id="clipPath3595"
       clipPathUnits="userSpaceOnUse">
      <rect
         y="3.4083283"
         x="-0.93747789"
         height="18.75"
         width="18.75"
         id="rect3597"
         style="fill:#ea80fc;fill-opacity:0.95685281;stroke:none;stroke-width:5.39975882;stroke-miterlimit:4;stroke-dasharray:none;stroke-opacity:1"
         inkscape:export-filename="/home/juergen/Desktop/ic_launcher.png"
         inkscape:export-xdpi="691.20001"
         inkscape:export-ydpi="691.20001" />
    </clipPath>
    <clipPath
       id="clipPath3599"
       clipPathUnits="userSpaceOnUse">
      <rect
         y="3.4083283"
         x="-0.93747789"
         height="18.75"
         width="18.75"
         id="rect3601"
         style="fill:#ea80fc;fill-opacity:0.95685281;stroke:none;stroke-width:5.39975882;stroke-miterlimit:4;stroke-dasharray:none;stroke-opacity:1"
         inkscape:export-filename="/home/juergen/Desktop/ic_launcher.png"
         inkscape:export-xdpi="691.20001"
         inkscape:export-ydpi="691.20001" />
    </clipPath>
    <clipPath
       id="clipPath3603"
       clipPathUnits="userSpaceOnUse">
      <rect
         y="3.4083283"
         x="-0.93747789"
         height="18.75"
         width="18.75"
         id="rect3605"
         style="fill:#ea80fc;fill-opacity:0.95685281;stroke:none;stroke-width:5.39975882;stroke-miterlimit:4;stroke-dasharray:none;stroke-opacity:1"
         inkscape:export-filename="/home/juergen/Desktop/ic_launcher.png"
         inkscape:export-xdpi="691.20001"
         inkscape:export-ydpi="691.20001" />
    </clipPath>
    <clipPath
       id="clipPath3617"
       clipPathUnits="userSpaceOnUse">
      <rect
         y="3.4083283"
         x="-0.93747789"
         height="18.75"
         width="18.75"
         id="rect3619"
         style="fill:#8bc34a;fill-opacity:0.95685281;stroke:none;stroke-width:5.39975882;stroke-miterlimit:4;stroke-dasharray:none;stroke-opacity:1"
         inkscape:export-filename="/home/juergen/Desktop/ic_launcher.png"
         inkscape:export-xdpi="691.20001"
         inkscape:export-ydpi="691.20001"
         ry="0.93749899" />
    </clipPath>
    <clipPath
       id="clipPath3621"
       clipPathUnits="userSpaceOnUse">
      <rect
         y="8.63554"
         x="4.000071"
         height="20"
         width="20"
         id="rect3623"
         style="fill:#8bc34a;fill-opacity:0.95685281;stroke:none;stroke-width:5.75974274;stroke-miterlimit:4;stroke-dasharray:none;stroke-opacity:1"
         inkscape:export-filename="/home/juergen/Desktop/ic_launcher.png"
         inkscape:export-xdpi="691.20001"
         inkscape:export-ydpi="691.20001"
         ry="0.99999893" />
    </clipPath>
    <clipPath
       id="clipPath3627"
       clipPathUnits="userSpaceOnUse">
      <rect
         y="3.4083283"
         x="-0.93747789"
         height="18.75"
         width="18.75"
         id="rect3629"
         style="fill:#8bc34a;fill-opacity:0.95685281;stroke:none;stroke-width:5.39975882;stroke-miterlimit:4;stroke-dasharray:none;stroke-opacity:1"
         inkscape:export-filename="/home/juergen/Desktop/ic_launcher.png"
         inkscape:export-xdpi="691.20001"
         inkscape:export-ydpi="691.20001"
         ry="1.874999" />
    </clipPath>
    <clipPath
       id="clipPath3631"
       clipPathUnits="userSpaceOnUse">
      <rect
         y="8.63554"
         x="4.000071"
         height="20"
         width="20"
         id="rect3633"
         style="fill:#8bc34a;fill-opacity:0.95685281;stroke:none;stroke-width:5.75974274;stroke-miterlimit:4;stroke-dasharray:none;stroke-opacity:1"
         inkscape:export-filename="/home/juergen/Desktop/ic_launcher.png"
         inkscape:export-xdpi="691.20001"
         inkscape:export-ydpi="691.20001"
         ry="1.9999989" />
    </clipPath>
    <clipPath
       clipPathUnits="userSpaceOnUse"
       id="clipPath1792">
      <rect
         y="3.4083283"
         x="-0.93747789"
         height="18.75"
         width="18.75"
         id="rect1794"
         style="fill:#009688;fill-opacity:0.95685281;stroke:none;stroke-width:5.39975882;stroke-miterlimit:4;stroke-dasharray:none;stroke-opacity:1"
         inkscape:export-filename="/home/juergen/Desktop/ic_launcher.png"
         inkscape:export-xdpi="691.20001"
         inkscape:export-ydpi="691.20001"
         ry="1.874999" />
    </clipPath>
    <clipPath
       clipPathUnits="userSpaceOnUse"
       id="clipPath1796">
      <rect
         y="3.4083283"
         x="-0.93747789"
         height="18.75"
         width="18.75"
         id="rect1798"
         style="fill:#009688;fill-opacity:0.95685281;stroke:none;stroke-width:5.39975882;stroke-miterlimit:4;stroke-dasharray:none;stroke-opacity:1"
         inkscape:export-filename="/home/juergen/Desktop/ic_launcher.png"
         inkscape:export-xdpi="691.20001"
         inkscape:export-ydpi="691.20001"
         ry="1.874999" />
    </clipPath>
    <clipPath
       clipPathUnits="userSpaceOnUse"
       id="clipPath1800">
      <rect
         y="1"
         x="1"
         height="20"
         width="20"
         id="rect1802"
         style="fill:#009688;fill-opacity:0.95685281;stroke:none;stroke-width:5.75974274;stroke-miterlimit:4;stroke-dasharray:none;stroke-opacity:1"
         inkscape:export-filename="/home/juergen/Desktop/ic_launcher.png"
         inkscape:export-xdpi="691.20001"
         inkscape:export-ydpi="691.20001"
         ry="1.9999989" />
    </clipPath>
    <clipPath
       clipPathUnits="userSpaceOnUse"
       id="clipPath66">
      <rect
         y="1"
         x="1"
         height="20"
         width="20"
         id="rect68"
         style="fill:#009688;fill-opacity:0.95685281;stroke:none;stroke-width:5.75974274;stroke-miterlimit:4;stroke-dasharray:none;stroke-opacity:1"
         inkscape:export-filename="/home/juergen/Desktop/ic_launcher.png"
         inkscape:export-xdpi="940.79999"
         inkscape:export-ydpi="940.79999"
         ry="10" />
    </clipPath>
  </defs>
  <metadata
     id="metadata7">
    <rdf:RDF>
      <cc:Work
         rdf:about="">
        <dc:format>image/svg+xml</dc:format>
        <dc:type
           rdf:resource="http://purl.org/dc/dcmitype/StillImage" />
        <dc:title />
      </cc:Work>
    </rdf:RDF>
  </metadata>
  <g
     inkscape:label="Hintergrund"
     inkscape:groupmode="layer"
     id="layer1"
     transform="translate(1060.0177,-864.40447)" />
  <g
     style="display:inline"
     inkscape:groupmode="layer"
     id="layer2"
     inkscape:label="Icon"
     transform="translate(1.8749779,-2.4708283)">
    <rect
       ry="9.375"
       inkscape:export-ydpi="940.79999"
       inkscape:export-xdpi="940.79999"
       inkscape:export-filename="/home/juergen/Desktop/ic_launcher.png"
       style="fill:#009688;fill-opacity:0.95685281;stroke:none;stroke-width:5.39975882;stroke-miterlimit:4;stroke-dasharray:none;stroke-opacity:1"
       id="rect849"
       width="18.75"
       height="18.75"
       x="-0.93747789"
       y="3.4083283" />
    <path
       d="M 3.9999777,4.0333382 H 15.999978 V 15.966671 H 3.9999777 Z"
       id="path4"
       inkscape:connector-curvature="0"
       style="fill:none" />
    <path
       clip-path="url(#clipPath3603)"
       style="fill:none"
       inkscape:connector-curvature="0"
       id="path9754"
       d="m 18.999978,19.033339 h 12 v 11.933333 h -12 z" />
    <path
       clip-path="url(#clipPath3595)"
       style="fill:#212121"
       id="path1785"
       d="m 21.500022,22.845828 h -3 c -0.555,0 -1,0.445 -1,1 v 6 a 1,1 0 0 0 1,1 h 8 a 1,1 0 0 0 1,-1 v -5 c 0,-0.555 -0.45,-1 -1,-1 h -4 z"
       inkscape:connector-curvature="0" />
    <path
       style="display:inline;fill:#212121;fill-opacity:1;stroke:none;stroke-width:0.99999994;opacity:0.2"
       d="M 11.148438 6.1484375 C 8.5168586 6.1484375 6.4121094 8.253187 6.4121094 10.884766 L 6.4121094 14.570312 C 6.4121092 14.989076 6.5788898 15.389437 6.875 15.685547 C 6.9001337 15.710681 6.9304314 15.728711 6.9570312 15.751953 C 6.9802729 15.778553 6.9983038 15.808851 7.0234375 15.833984 C 7.0469025 15.857449 7.0748634 15.874667 7.0996094 15.896484 C 7.1239568 15.924547 7.1434789 15.955979 7.1699219 15.982422 C 7.1946961 16.007196 7.2238005 16.025892 7.25 16.048828 C 7.2729362 16.075028 7.291632 16.104132 7.3164062 16.128906 C 7.34154 16.15404 7.3718376 16.172071 7.3984375 16.195312 C 7.4210219 16.221053 7.4385293 16.251029 7.4628906 16.275391 C 7.4873697 16.29987 7.5170976 16.317159 7.5429688 16.339844 C 7.5656536 16.365715 7.5829428 16.395443 7.6074219 16.419922 C 7.6319009 16.444401 7.6616288 16.46169 7.6875 16.484375 C 7.7101848 16.510246 7.7274741 16.539974 7.7519531 16.564453 C 7.7777415 16.590241 7.8086071 16.609017 7.8359375 16.632812 C 7.8571911 16.656835 7.8736741 16.684221 7.8964844 16.707031 C 7.9195899 16.730137 7.9463549 16.748023 7.9707031 16.769531 C 7.9940899 16.796322 8.0137576 16.826258 8.0390625 16.851562 C 8.0648509 16.877351 8.0957165 16.896126 8.1230469 16.919922 C 8.1437343 16.943222 8.159485 16.970032 8.1816406 16.992188 C 8.2037963 17.014343 8.2306063 17.030094 8.2539062 17.050781 C 8.2777021 17.078112 8.2964773 17.108977 8.3222656 17.134766 C 8.3460901 17.15859 8.3752463 17.17514 8.4003906 17.197266 C 8.422516 17.22241 8.4390662 17.251566 8.4628906 17.275391 C 8.4870102 17.29951 8.5155438 17.317466 8.5410156 17.339844 C 8.562735 17.364464 8.5801644 17.392664 8.6035156 17.416016 C 8.6264171 17.438917 8.6536117 17.45523 8.6777344 17.476562 C 8.7001123 17.502034 8.7180679 17.530568 8.7421875 17.554688 C 8.7656524 17.578152 8.7936134 17.59537 8.8183594 17.617188 C 8.8401765 17.641933 8.8573944 17.669894 8.8808594 17.693359 C 8.9059931 17.718493 8.9362908 17.736524 8.9628906 17.759766 C 8.9830094 17.782345 8.9980302 17.808577 9.0195312 17.830078 C 9.0426367 17.853184 9.0694018 17.87107 9.09375 17.892578 C 9.115258 17.916926 9.1331445 17.943691 9.15625 17.966797 C 9.1773915 17.987938 9.2024244 18.003632 9.2246094 18.023438 C 9.2475456 18.049637 9.2662414 18.078741 9.2910156 18.103516 C 9.3140745 18.126574 9.3428908 18.142595 9.3671875 18.164062 C 9.3886554 18.188359 9.4046755 18.217175 9.4277344 18.240234 C 9.4506358 18.263136 9.4778304 18.279449 9.5019531 18.300781 C 9.5231115 18.324681 9.5398 18.3523 9.5625 18.375 C 9.5851068 18.397607 9.6129213 18.412516 9.6367188 18.433594 C 9.6577967 18.457391 9.6727056 18.485206 9.6953125 18.507812 C 9.7190226 18.531523 9.7484199 18.548285 9.7734375 18.570312 C 9.7935562 18.592892 9.8085771 18.619124 9.8300781 18.640625 C 9.852529 18.663076 9.8787185 18.680229 9.9023438 18.701172 C 9.9232868 18.724797 9.9404398 18.750987 9.9628906 18.773438 C 9.9833775 18.793924 10.007829 18.808892 10.029297 18.828125 C 10.051675 18.853597 10.06963 18.88213 10.09375 18.90625 C 10.115906 18.928406 10.142716 18.944156 10.166016 18.964844 C 10.186703 18.988144 10.202454 19.014954 10.224609 19.037109 C 10.24742 19.05992 10.274806 19.076403 10.298828 19.097656 C 10.318857 19.120122 10.334071 19.146571 10.355469 19.167969 C 10.377265 19.189765 10.402877 19.206187 10.425781 19.226562 C 10.446157 19.249467 10.462579 19.275079 10.484375 19.296875 C 10.506171 19.318671 10.531783 19.335093 10.554688 19.355469 C 10.575063 19.378373 10.591485 19.403985 10.613281 19.425781 C 10.636746 19.449246 10.664707 19.466464 10.689453 19.488281 C 10.70811 19.509033 10.722355 19.532902 10.742188 19.552734 C 10.76202 19.572567 10.785888 19.586812 10.806641 19.605469 C 10.828458 19.630215 10.845676 19.658176 10.869141 19.681641 C 10.891951 19.704451 10.919337 19.720934 10.943359 19.742188 C 10.962017 19.76294 10.976261 19.786808 10.996094 19.806641 C 11.015926 19.826473 11.039795 19.840718 11.060547 19.859375 C 11.0818 19.883397 11.098283 19.910783 11.121094 19.933594 C 11.142235 19.954735 11.167268 19.970429 11.189453 19.990234 C 11.209258 20.012419 11.224952 20.037452 11.246094 20.058594 C 11.267235 20.079735 11.292268 20.095429 11.314453 20.115234 C 11.334258 20.137419 11.349952 20.162452 11.371094 20.183594 C 11.39194 20.20444 11.417592 20.218734 11.439453 20.238281 C 11.459001 20.260143 11.473294 20.285794 11.494141 20.306641 C 11.514987 20.327487 11.540639 20.341781 11.5625 20.361328 C 11.582047 20.383189 11.596341 20.408841 11.617188 20.429688 C 11.639343 20.451843 11.666153 20.467594 11.689453 20.488281 C 11.707532 20.50832 11.721057 20.531604 11.740234 20.550781 C 11.759412 20.569959 11.782696 20.583483 11.802734 20.601562 C 11.823329 20.624745 11.839279 20.651779 11.861328 20.673828 C 11.883484 20.695984 11.910294 20.711734 11.933594 20.732422 C 11.951092 20.751749 11.963899 20.774446 11.982422 20.792969 C 12.000945 20.811492 12.023642 20.824298 12.042969 20.841797 C 12.063656 20.865097 12.079407 20.891907 12.101562 20.914062 C 12.12169 20.93419 12.144941 20.949833 12.166016 20.96875 C 12.184933 20.989825 12.200576 21.013076 12.220703 21.033203 C 12.242499 21.054999 12.268111 21.071421 12.291016 21.091797 C 12.308194 21.110734 12.32168 21.132227 12.339844 21.150391 C 12.358007 21.168554 12.3795 21.18204 12.398438 21.199219 C 12.418813 21.222123 12.435235 21.247735 12.457031 21.269531 C 12.477518 21.290018 12.50197 21.304986 12.523438 21.324219 C 12.541435 21.344157 12.555134 21.367634 12.574219 21.386719 C 12.593692 21.406192 12.616359 21.421113 12.636719 21.439453 C 12.655059 21.459813 12.66998 21.48248 12.689453 21.501953 C 12.710199 21.522699 12.736061 21.537181 12.757812 21.556641 C 12.775311 21.575968 12.788118 21.598665 12.806641 21.617188 C 12.824149 21.634696 12.845053 21.647469 12.863281 21.664062 C 12.883087 21.686247 12.89878 21.71128 12.919922 21.732422 C 12.941063 21.753563 12.966096 21.769257 12.988281 21.789062 C 13.004875 21.807291 13.017647 21.828194 13.035156 21.845703 C 13.054334 21.864881 13.077618 21.878405 13.097656 21.896484 C 13.115735 21.916523 13.12926 21.939807 13.148438 21.958984 C 13.165946 21.976493 13.18685 21.989265 13.205078 22.005859 C 13.224311 22.027327 13.239279 22.051779 13.259766 22.072266 C 13.278584 22.091084 13.300665 22.105286 13.320312 22.123047 C 13.338073 22.142695 13.352276 22.164776 13.371094 22.183594 C 13.389528 22.202028 13.41241 22.215003 13.431641 22.232422 C 13.44972 22.252461 13.463244 22.275744 13.482422 22.294922 C 13.502909 22.315409 13.52736 22.330377 13.548828 22.349609 C 13.564835 22.367131 13.576896 22.387443 13.59375 22.404297 C 13.612273 22.42282 13.63497 22.435626 13.654297 22.453125 C 13.671795 22.472452 13.684602 22.495149 13.703125 22.513672 C 13.719979 22.530526 13.740291 22.542587 13.757812 22.558594 C 13.776539 22.579432 13.790635 22.603136 13.810547 22.623047 C 13.830283 22.642783 13.854353 22.657209 13.875 22.675781 C 13.891007 22.693303 13.903068 22.713615 13.919922 22.730469 C 13.938085 22.748632 13.959579 22.762118 13.978516 22.779297 C 13.995694 22.798234 14.00918 22.819727 14.027344 22.837891 C 14.043543 22.85409 14.063262 22.865443 14.080078 22.880859 C 14.098735 22.901612 14.11298 22.92548 14.132812 22.945312 C 14.150681 22.963181 14.172789 22.975272 14.191406 22.992188 C 14.208322 23.010805 14.220413 23.032913 14.238281 23.050781 C 14.255705 23.068205 14.276786 23.081139 14.294922 23.097656 C 14.3121 23.116593 14.325587 23.138087 14.34375 23.15625 C 14.362928 23.175428 14.386211 23.188952 14.40625 23.207031 C 14.421667 23.223848 14.433019 23.243566 14.449219 23.259766 C 14.466728 23.277274 14.487631 23.290047 14.505859 23.306641 C 14.522453 23.324869 14.535226 23.345772 14.552734 23.363281 C 14.568279 23.378826 14.587402 23.389472 14.603516 23.404297 C 14.621595 23.424336 14.635119 23.447619 14.654297 23.466797 C 14.673474 23.485975 14.696758 23.499499 14.716797 23.517578 C 14.731621 23.533692 14.742268 23.552814 14.757812 23.568359 C 14.775026 23.585573 14.796544 23.596952 14.814453 23.613281 C 14.830783 23.631191 14.842161 23.652708 14.859375 23.669922 C 14.87456 23.685107 14.892475 23.696439 14.908203 23.710938 C 14.925964 23.730585 14.940166 23.752666 14.958984 23.771484 C 14.975839 23.788339 14.99615 23.8004 15.013672 23.816406 C 15.029679 23.833928 15.04174 23.85424 15.058594 23.871094 C 15.075448 23.887948 15.09576 23.900009 15.113281 23.916016 C 15.129288 23.933537 15.141349 23.953849 15.158203 23.970703 C 15.174698 23.987198 15.193803 23.999942 15.210938 24.015625 C 15.226621 24.032759 15.239365 24.051865 15.255859 24.068359 C 15.272354 24.084854 15.29146 24.097598 15.308594 24.113281 C 15.324277 24.130415 15.337021 24.149521 15.353516 24.166016 C 15.37037 24.18287 15.390682 24.194931 15.408203 24.210938 C 15.423549 24.22767 15.435051 24.247551 15.451172 24.263672 C 15.467371 24.279871 15.48709 24.291224 15.503906 24.306641 C 15.519323 24.323457 15.530675 24.343175 15.546875 24.359375 C 15.563075 24.375575 15.582793 24.386927 15.599609 24.402344 C 15.615026 24.41916 15.626379 24.438879 15.642578 24.455078 C 15.658778 24.471278 15.678496 24.48263 15.695312 24.498047 C 15.710194 24.514228 15.720721 24.533221 15.736328 24.548828 C 15.753752 24.566252 15.774833 24.579185 15.792969 24.595703 C 15.80687 24.610732 15.8175 24.628047 15.832031 24.642578 C 15.845907 24.656454 15.862623 24.666385 15.876953 24.679688 C 15.893547 24.697916 15.906319 24.718819 15.923828 24.736328 C 15.941337 24.753837 15.96224 24.766609 15.980469 24.783203 C 15.993771 24.797534 16.003702 24.814249 16.017578 24.828125 C 16.033123 24.84367 16.052246 24.854316 16.068359 24.869141 C 16.083184 24.885254 16.09383 24.904377 16.109375 24.919922 C 16.123251 24.933798 16.139966 24.943729 16.154297 24.957031 C 16.170304 24.974553 16.182365 24.994865 16.199219 25.011719 C 16.214404 25.026904 16.232318 25.038236 16.248047 25.052734 C 16.262545 25.068463 16.273877 25.086377 16.289062 25.101562 C 16.304248 25.116748 16.322162 25.12808 16.337891 25.142578 C 16.352389 25.158307 16.363721 25.176221 16.378906 25.191406 C 16.39576 25.20826 16.416072 25.220321 16.433594 25.236328 C 16.446295 25.249962 16.455529 25.266075 16.46875 25.279297 C 16.48364 25.294187 16.502165 25.30413 16.517578 25.318359 C 16.531808 25.333772 16.54175 25.352297 16.556641 25.367188 C 16.569862 25.380409 16.585975 25.389643 16.599609 25.402344 C 16.615026 25.41916 16.626379 25.438879 16.642578 25.455078 C 16.658778 25.471278 16.678496 25.48263 16.695312 25.498047 C 16.708013 25.511681 16.717247 25.527794 16.730469 25.541016 C 16.745 25.555546 16.762315 25.566177 16.777344 25.580078 C 16.791245 25.595107 16.801875 25.612422 16.816406 25.626953 C 16.828973 25.63952 16.844482 25.64806 16.857422 25.660156 C 16.872839 25.676973 16.884191 25.696691 16.900391 25.712891 C 16.914626 25.727126 16.932552 25.736368 16.947266 25.75 C 16.960897 25.764713 16.970139 25.782639 16.984375 25.796875 C 16.998611 25.811111 17.016537 25.820353 17.03125 25.833984 C 17.044882 25.848698 17.054124 25.866624 17.068359 25.880859 C 17.082236 25.894736 17.098951 25.904666 17.113281 25.917969 C 17.126584 25.932299 17.136514 25.949014 17.150391 25.962891 C 17.164267 25.976767 17.180982 25.986698 17.195312 26 C 17.208615 26.01433 17.218546 26.031046 17.232422 26.044922 C 17.245938 26.058438 17.263396 26.067106 17.277344 26.080078 C 17.290975 26.094792 17.300218 26.112717 17.314453 26.126953 C 17.328034 26.140534 17.345359 26.149078 17.359375 26.162109 C 17.372407 26.176126 17.38095 26.19345 17.394531 26.207031 C 17.408112 26.220612 17.425437 26.229156 17.439453 26.242188 C 17.452485 26.256204 17.461028 26.273528 17.474609 26.287109 C 17.489795 26.302295 17.507709 26.313627 17.523438 26.328125 C 17.534593 26.339994 17.543135 26.353682 17.554688 26.365234 C 17.567909 26.378456 17.584022 26.38769 17.597656 26.400391 C 17.610357 26.414025 17.619591 26.430138 17.632812 26.443359 C 17.644365 26.454912 17.658053 26.463454 17.669922 26.474609 C 17.683876 26.489699 17.694396 26.506896 17.708984 26.521484 C 17.722142 26.534642 17.738387 26.543999 17.751953 26.556641 C 17.764595 26.570207 17.773952 26.586452 17.787109 26.599609 C 17.801041 26.613541 17.817642 26.623366 17.832031 26.636719 C 17.843187 26.648587 17.851728 26.662275 17.863281 26.673828 C 17.874179 26.684726 17.887258 26.69258 17.898438 26.703125 C 17.912339 26.718153 17.922969 26.735469 17.9375 26.75 C 17.952031 26.764531 17.969347 26.775161 17.984375 26.789062 C 17.99492 26.800242 18.002774 26.813321 18.013672 26.824219 C 18.02457 26.835117 18.037649 26.842971 18.048828 26.853516 C 18.062131 26.867846 18.072061 26.884561 18.085938 26.898438 C 18.098444 26.910944 18.114077 26.9196 18.126953 26.931641 C 18.138994 26.944517 18.14765 26.96015 18.160156 26.972656 C 18.172723 26.985223 18.188232 26.993763 18.201172 27.005859 C 18.212609 27.018047 18.220567 27.033067 18.232422 27.044922 C 18.246298 27.058798 18.263013 27.068729 18.277344 27.082031 C 18.287275 27.092524 18.294444 27.104991 18.304688 27.115234 C 18.315586 27.126132 18.328664 27.133987 18.339844 27.144531 C 18.352486 27.158098 18.361842 27.174342 18.375 27.1875 C 18.387207 27.199707 18.401503 27.208939 18.414062 27.220703 C 18.425165 27.232512 18.433816 27.246316 18.445312 27.257812 C 18.456865 27.269365 18.470553 27.277907 18.482422 27.289062 C 18.493577 27.300931 18.502119 27.314619 18.513672 27.326172 C 18.526829 27.339329 18.543074 27.348686 18.556641 27.361328 C 18.566572 27.37182 18.573741 27.384288 18.583984 27.394531 C 18.593573 27.40412 18.605427 27.410606 18.615234 27.419922 C 18.627935 27.433556 18.637169 27.449669 18.650391 27.462891 C 18.663612 27.476112 18.679725 27.485346 18.693359 27.498047 C 18.702675 27.507854 18.709161 27.519708 18.71875 27.529297 C 18.730008 27.540554 18.744302 27.547713 18.755859 27.558594 C 18.76674 27.570151 18.773899 27.584446 18.785156 27.595703 C 18.794745 27.605292 18.806599 27.611778 18.816406 27.621094 C 18.828503 27.634034 18.837043 27.649543 18.849609 27.662109 C 18.862116 27.674616 18.877749 27.683272 18.890625 27.695312 C 18.89994 27.70512 18.906427 27.716974 18.916016 27.726562 C 18.926914 27.737461 18.939992 27.745315 18.951172 27.755859 C 18.961717 27.767039 18.969571 27.780118 18.980469 27.791016 C 18.989403 27.79995 19.000642 27.805756 19.009766 27.814453 C 19.021862 27.827393 19.030402 27.842902 19.042969 27.855469 C 19.053572 27.866072 19.067256 27.872544 19.078125 27.882812 C 19.088393 27.893682 19.094866 27.907366 19.105469 27.917969 C 19.116072 27.928572 19.129756 27.935044 19.140625 27.945312 C 19.150894 27.956182 19.157366 27.969866 19.167969 27.980469 C 19.178212 27.990712 19.19068 27.997881 19.201172 28.007812 C 19.211103 28.018305 19.218272 28.030772 19.228516 28.041016 C 19.238759 28.051259 19.251226 28.058428 19.261719 28.068359 C 19.27165 28.078852 19.278819 28.091319 19.289062 28.101562 C 19.299306 28.111806 19.311773 28.118975 19.322266 28.128906 C 19.33215 28.139346 19.339416 28.151916 19.349609 28.162109 C 19.359493 28.171993 19.370744 28.17986 19.380859 28.189453 C 19.390453 28.199569 19.398319 28.210819 19.408203 28.220703 C 19.418087 28.230587 19.429337 28.238453 19.439453 28.248047 C 19.449047 28.258163 19.456913 28.269413 19.466797 28.279297 C 19.476386 28.288886 19.48824 28.295372 19.498047 28.304688 C 19.507362 28.314495 19.513849 28.326349 19.523438 28.335938 C 19.534641 28.347141 19.549046 28.354404 19.560547 28.365234 C 19.568623 28.373677 19.573752 28.384299 19.582031 28.392578 C 19.589951 28.400498 19.599353 28.406329 19.607422 28.414062 C 19.617967 28.425242 19.625821 28.438321 19.636719 28.449219 C 19.647617 28.460117 19.660696 28.467971 19.671875 28.478516 C 19.679609 28.486585 19.685439 28.495986 19.693359 28.503906 C 19.702589 28.513136 19.713225 28.520321 19.722656 28.529297 C 19.731632 28.538729 19.738818 28.549364 19.748047 28.558594 C 19.755312 28.565859 19.764093 28.571016 19.771484 28.578125 C 19.782029 28.589304 19.789883 28.602383 19.800781 28.613281 C 19.809715 28.622215 19.820954 28.628022 19.830078 28.636719 C 19.838775 28.645843 19.844581 28.657081 19.853516 28.666016 C 19.86245 28.67495 19.873689 28.680756 19.882812 28.689453 C 19.891509 28.698577 19.897316 28.709816 19.90625 28.71875 C 19.915184 28.727684 19.926423 28.733491 19.935547 28.742188 C 19.943655 28.750665 19.948718 28.761218 19.957031 28.769531 C 19.967225 28.779725 19.979794 28.78699 19.990234 28.796875 C 19.997343 28.804266 20.0025 28.813047 20.009766 28.820312 C 20.016376 28.826923 20.024535 28.83141 20.03125 28.837891 C 20.041181 28.848383 20.04835 28.86085 20.058594 28.871094 C 20.067168 28.879668 20.077188 28.886175 20.085938 28.894531 C 20.093701 28.902633 20.099471 28.911971 20.107422 28.919922 C 20.115662 28.928162 20.126364 28.933368 20.134766 28.941406 C 20.142841 28.949849 20.14797 28.96047 20.15625 28.96875 C 20.16453 28.97703 20.175151 28.982159 20.183594 28.990234 C 20.191632 28.998636 20.196838 29.009338 20.205078 29.017578 C 20.212998 29.025498 20.222399 29.031329 20.230469 29.039062 C 20.238202 29.047132 20.244033 29.056533 20.251953 29.064453 C 20.261542 29.074042 20.273396 29.080528 20.283203 29.089844 C 20.289054 29.095885 20.292872 29.103419 20.298828 29.109375 C 20.304784 29.115331 20.312319 29.119149 20.318359 29.125 C 20.327675 29.134807 20.334161 29.146661 20.34375 29.15625 C 20.351375 29.163875 20.361377 29.168329 20.369141 29.175781 C 20.376593 29.183545 20.381047 29.193547 20.388672 29.201172 C 20.396592 29.209092 20.405993 29.214923 20.414062 29.222656 C 20.421137 29.230011 20.426364 29.238864 20.433594 29.246094 C 20.440888 29.253388 20.44961 29.258489 20.457031 29.265625 C 20.46414 29.273016 20.469297 29.281797 20.476562 29.289062 C 20.483828 29.296328 20.492609 29.301485 20.5 29.308594 C 20.507075 29.315948 20.512301 29.324801 20.519531 29.332031 C 20.526501 29.339001 20.535883 29.342783 20.542969 29.349609 C 20.549795 29.356695 20.553577 29.366077 20.560547 29.373047 C 20.567485 29.379985 20.576932 29.38383 20.583984 29.390625 C 20.590838 29.397741 20.594563 29.407063 20.601562 29.414062 C 20.608141 29.420641 20.616365 29.42519 20.623047 29.431641 C 20.630155 29.439032 20.635313 29.447813 20.642578 29.455078 C 20.651153 29.463653 20.661172 29.470159 20.669922 29.478516 C 20.674791 29.483516 20.678652 29.489199 20.683594 29.494141 C 20.690204 29.500751 20.698363 29.505238 20.705078 29.511719 C 20.711559 29.518434 20.716046 29.526592 20.722656 29.533203 C 20.727303 29.53785 20.733583 29.540339 20.738281 29.544922 C 20.746357 29.553364 20.751486 29.563986 20.759766 29.572266 C 20.766017 29.578517 20.772952 29.583708 20.779297 29.589844 C 20.785432 29.596188 20.790624 29.603124 20.796875 29.609375 C 20.803126 29.615626 20.810062 29.620818 20.816406 29.626953 C 20.822542 29.633298 20.827733 29.640233 20.833984 29.646484 C 20.841904 29.654404 20.851306 29.660235 20.859375 29.667969 C 20.863608 29.6723 20.866806 29.677353 20.871094 29.681641 C 20.87705 29.687597 20.884584 29.691415 20.890625 29.697266 C 20.896476 29.703306 20.900294 29.710841 20.90625 29.716797 C 20.910537 29.721084 20.915591 29.724283 20.919922 29.728516 C 20.92703 29.735907 20.932188 29.744688 20.939453 29.751953 C 20.946719 29.759219 20.955499 29.764376 20.962891 29.771484 C 20.967123 29.775816 20.970322 29.780869 20.974609 29.785156 C 20.978602 29.789148 20.984251 29.790977 20.988281 29.794922 C 20.995135 29.802038 20.99886 29.81136 21.005859 29.818359 C 21.011136 29.823636 21.018095 29.826838 21.023438 29.832031 C 21.029288 29.838072 21.033106 29.845606 21.039062 29.851562 C 21.044364 29.856864 21.051272 29.860016 21.056641 29.865234 C 21.061859 29.870603 21.065011 29.877511 21.070312 29.882812 C 21.075614 29.888114 21.082522 29.891266 21.087891 29.896484 C 21.093109 29.901853 21.096261 29.908761 21.101562 29.914062 C 21.106505 29.919005 21.112187 29.922865 21.117188 29.927734 C 21.122057 29.932735 21.125917 29.938417 21.130859 29.943359 C 21.135801 29.948301 21.141484 29.952162 21.146484 29.957031 C 21.151354 29.962032 21.155214 29.967714 21.160156 29.972656 C 21.165074 29.977574 21.170806 29.981482 21.175781 29.986328 C 21.180651 29.991328 21.184511 29.997011 21.189453 30.001953 C 21.1941 30.0066 21.20038 30.009089 21.205078 30.013672 C 21.209661 30.01837 21.21215 30.02465 21.216797 30.029297 C 21.221444 30.033944 21.227723 30.036433 21.232422 30.041016 C 21.237005 30.045714 21.239494 30.051994 21.244141 30.056641 C 21.250097 30.062597 21.257631 30.066415 21.263672 30.072266 C 21.266624 30.075265 21.268506 30.079053 21.271484 30.082031 C 21.275772 30.086319 21.280825 30.089517 21.285156 30.09375 C 21.289389 30.098081 21.292588 30.103135 21.296875 30.107422 C 21.301162 30.111709 21.306216 30.114908 21.310547 30.119141 C 21.31478 30.123472 21.317978 30.128525 21.322266 30.132812 C 21.324589 30.135136 21.327742 30.136364 21.330078 30.138672 C 21.335901 30.144683 21.339776 30.152276 21.345703 30.158203 C 21.34999 30.16249 21.355044 30.165689 21.359375 30.169922 C 21.362951 30.173568 21.365526 30.178026 21.369141 30.181641 C 21.372788 30.185288 21.377181 30.187799 21.380859 30.191406 C 21.384453 30.195071 21.386992 30.199492 21.390625 30.203125 C 21.395901 30.208401 21.40286 30.211603 21.408203 30.216797 C 21.410511 30.219133 21.411739 30.222286 21.414062 30.224609 C 21.416026 30.226573 21.417949 30.228516 21.419922 30.230469 C 21.42481 30.235488 21.428633 30.241133 21.433594 30.246094 C 21.437209 30.249709 21.441666 30.252283 21.445312 30.255859 C 21.448906 30.259524 21.451445 30.263945 21.455078 30.267578 C 21.458351 30.270851 21.461545 30.274102 21.464844 30.277344 C 21.468085 30.280643 21.471336 30.283836 21.474609 30.287109 C 21.479551 30.292051 21.485234 30.295912 21.490234 30.300781 C 21.491539 30.302095 21.492831 30.303378 21.494141 30.304688 C 21.495469 30.305972 21.496715 30.307314 21.498047 30.308594 C 21.502916 30.313594 21.506777 30.319277 21.511719 30.324219 C 21.514697 30.327197 21.518485 30.329079 21.521484 30.332031 C 21.524436 30.335031 21.526319 30.338819 21.529297 30.341797 C 21.533584 30.346084 21.538637 30.349283 21.542969 30.353516 C 21.544273 30.354829 21.545566 30.356113 21.546875 30.357422 C 21.549528 30.359996 21.552019 30.362681 21.554688 30.365234 C 21.557286 30.367869 21.559881 30.370428 21.5625 30.373047 C 21.5625 30.373047 21.564453 30.375 21.564453 30.375 C 21.568702 30.379348 21.571868 30.384368 21.576172 30.388672 C 21.578777 30.391277 21.581363 30.3939 21.583984 30.396484 C 21.586569 30.399106 21.589192 30.401692 21.591797 30.404297 C 21.59412 30.40662 21.597273 30.407849 21.599609 30.410156 C 21.601917 30.412493 21.603145 30.415645 21.605469 30.417969 C 21.609101 30.421601 21.613523 30.424141 21.617188 30.427734 C 21.617188 30.427734 21.619141 30.429688 21.619141 30.429688 C 21.619141 30.429688 21.621094 30.431641 21.621094 30.431641 C 21.62467 30.435287 21.627244 30.439744 21.630859 30.443359 C 21.634492 30.446992 21.638914 30.449531 21.642578 30.453125 C 21.646172 30.456789 21.648711 30.461211 21.652344 30.464844 C 21.654013 30.466513 21.656528 30.467089 21.658203 30.46875 C 21.659864 30.470425 21.660441 30.472941 21.662109 30.474609 C 21.663792 30.476263 21.66628 30.476871 21.667969 30.478516 C 21.669629 30.480191 21.670206 30.482706 21.671875 30.484375 C 21.676162 30.488662 21.681216 30.491861 21.685547 30.496094 C 21.686851 30.497407 21.688144 30.498691 21.689453 30.5 C 21.691761 30.502336 21.692989 30.505489 21.695312 30.507812 C 21.696327 30.508827 21.698202 30.508755 21.699219 30.509766 C 21.70023 30.510782 21.700158 30.512658 21.701172 30.513672 C 21.702191 30.514681 21.704056 30.514619 21.705078 30.515625 C 21.706089 30.516642 21.706017 30.518517 21.707031 30.519531 C 21.708315 30.520815 21.711603 30.522158 21.712891 30.523438 C 21.712891 30.523438 21.714844 30.525391 21.714844 30.525391 C 21.714844 30.525391 21.716797 30.527344 21.716797 30.527344 C 21.716797 30.527344 21.716797 30.529297 21.716797 30.529297 C 21.716797 30.529297 21.71875 30.53125 21.71875 30.53125 C 21.71875 30.53125 21.720703 30.533203 21.720703 30.533203 C 21.720703 30.533203 21.722656 30.535156 21.722656 30.535156 C 21.722951 30.535452 21.724315 30.534861 21.724609 30.535156 C 21.724968 30.535516 21.72425 30.53675 21.724609 30.537109 C 21.758677 30.571177 21.799211 30.596376 21.835938 30.626953 C 21.953632 30.724941 22.081517 30.809409 22.220703 30.869141 C 22.225524 30.871194 22.229534 30.874948 22.234375 30.876953 C 22.234375 30.876953 22.236328 30.878906 22.236328 30.878906 C 22.236858 30.879126 22.237752 30.878687 22.238281 30.878906 C 22.332633 30.917858 22.430697 30.94865 22.53125 30.96875 C 22.531863 30.968873 22.53259 30.968627 22.533203 30.96875 C 22.542845 30.970665 22.552815 30.97092 22.5625 30.972656 C 22.654443 30.989255 22.747077 31 22.841797 31 L 24.419922 31 L 24.419922 30.998047 L 24.419922 27.789062 L 24.435547 27.789062 L 24.435547 27.857422 L 24.503906 27.857422 L 24.503906 27.925781 L 24.572266 27.925781 L 24.572266 27.992188 L 24.638672 27.992188 L 24.638672 28.058594 L 24.703125 28.058594 L 24.703125 28.125 L 24.769531 28.125 L 24.769531 28.189453 L 24.832031 28.189453 L 24.832031 28.253906 L 24.896484 28.253906 L 24.896484 28.318359 L 24.958984 28.318359 L 24.958984 28.380859 L 25.021484 28.380859 L 25.021484 28.441406 L 25.082031 28.441406 L 25.082031 28.503906 L 25.142578 28.503906 L 25.142578 28.564453 L 25.203125 28.564453 L 25.203125 28.623047 L 25.261719 28.623047 L 25.261719 28.683594 L 25.320312 28.683594 L 25.320312 28.740234 L 25.376953 28.740234 L 25.376953 28.798828 L 25.433594 28.798828 L 25.433594 28.855469 L 25.490234 28.855469 L 25.490234 28.912109 L 25.544922 28.912109 L 25.544922 28.966797 L 25.599609 28.966797 L 25.599609 29.021484 L 25.654297 29.021484 L 25.654297 29.076172 L 25.707031 29.076172 L 25.707031 29.128906 L 25.759766 29.128906 L 25.759766 29.181641 L 25.810547 29.181641 L 25.810547 29.232422 L 25.861328 29.232422 L 25.861328 29.283203 L 25.912109 29.283203 L 25.912109 29.333984 L 25.960938 29.333984 L 25.960938 29.382812 L 26.009766 29.382812 L 26.009766 29.431641 L 26.058594 29.431641 L 26.058594 29.478516 L 26.105469 29.478516 L 26.105469 29.527344 L 26.152344 29.527344 L 26.152344 29.572266 L 26.197266 29.572266 L 26.197266 29.619141 L 26.242188 29.619141 L 26.242188 29.664062 L 26.287109 29.664062 L 26.287109 29.707031 L 26.330078 29.707031 L 26.330078 29.751953 L 26.373047 29.751953 L 26.373047 29.792969 L 26.414062 29.792969 L 26.414062 29.835938 L 26.455078 29.835938 L 26.455078 29.876953 L 26.496094 29.876953 L 26.496094 29.917969 L 26.535156 29.917969 L 26.535156 29.957031 L 26.574219 29.957031 L 26.574219 29.996094 L 26.613281 29.996094 L 26.613281 30.035156 L 26.650391 30.035156 L 26.650391 30.072266 L 26.6875 30.072266 L 26.6875 30.109375 L 26.722656 30.109375 L 26.722656 30.144531 L 26.759766 30.144531 L 26.759766 30.179688 L 26.792969 30.179688 L 26.792969 30.214844 L 26.826172 30.214844 L 26.826172 30.248047 L 26.859375 30.248047 L 26.859375 30.28125 L 26.892578 30.28125 L 26.892578 30.314453 L 26.923828 30.314453 L 26.923828 30.345703 L 26.955078 30.345703 L 26.955078 30.375 L 26.984375 30.375 L 26.984375 30.40625 L 27.013672 30.40625 L 27.013672 30.435547 L 27.042969 30.435547 L 27.042969 30.464844 L 27.070312 30.464844 L 27.070312 30.492188 L 27.097656 30.492188 L 27.097656 30.519531 L 27.125 30.519531 L 27.125 30.544922 L 27.150391 30.544922 L 27.150391 30.570312 L 27.173828 30.570312 L 27.173828 30.595703 L 27.199219 30.595703 L 27.199219 30.619141 L 27.222656 30.619141 L 27.222656 30.642578 L 27.244141 30.642578 L 27.244141 30.666016 L 27.267578 30.666016 L 27.267578 30.6875 L 27.287109 30.6875 L 27.287109 30.708984 L 27.308594 30.708984 L 27.308594 30.728516 L 27.328125 30.728516 L 27.328125 30.748047 L 27.347656 30.748047 L 27.347656 30.767578 L 27.365234 30.767578 L 27.365234 30.787109 L 27.382812 30.787109 L 27.382812 30.802734 L 27.398438 30.802734 L 27.398438 30.820312 L 27.416016 30.820312 L 27.416016 30.835938 L 27.429688 30.835938 L 27.429688 30.851562 L 27.445312 30.851562 L 27.445312 30.865234 L 27.458984 30.865234 L 27.458984 30.878906 L 27.470703 30.878906 L 27.470703 30.892578 L 27.484375 30.892578 L 27.484375 30.904297 L 27.496094 30.904297 L 27.496094 30.916016 L 27.505859 30.916016 L 27.505859 30.927734 L 27.515625 30.927734 L 27.515625 30.9375 L 27.525391 30.9375 L 27.525391 30.947266 L 27.533203 30.947266 L 27.533203 30.955078 L 27.541016 30.955078 L 27.541016 30.962891 L 27.548828 30.962891 L 27.548828 30.970703 L 27.554688 30.970703 L 27.554688 30.976562 L 27.560547 30.976562 L 27.560547 30.982422 L 27.566406 30.982422 L 27.566406 30.986328 L 27.570312 30.986328 L 27.570312 30.990234 L 27.572266 30.990234 L 27.572266 30.994141 L 27.576172 30.994141 L 27.576172 30.996094 L 27.578125 30.996094 L 27.578125 30.998047 L 27.578125 31 L 29.158203 31 C 29.262894 31 29.365631 30.988972 29.466797 30.96875 C 29.568525 30.948415 29.666354 30.918529 29.761719 30.878906 C 29.951481 30.800304 30.125383 30.685164 30.273438 30.537109 C 30.273797 30.53675 30.273078 30.535516 30.273438 30.535156 C 30.347105 30.461488 30.413661 30.382242 30.470703 30.296875 C 30.471022 30.296397 30.470385 30.2954 30.470703 30.294922 C 30.584663 30.123615 30.664746 29.932238 30.705078 29.730469 C 30.705204 29.729839 30.704953 29.729146 30.705078 29.728516 C 30.7253 29.627349 30.736328 29.524613 30.736328 29.419922 L 30.736328 25.736328 C 30.736328 25.180166 30.623342 24.65635 30.449219 24.162109 C 30.417175 24.071154 30.400606 23.973026 30.363281 23.884766 C 30.363281 23.884766 30.361328 23.882812 30.361328 23.882812 C 30.242007 23.600819 30.096875 23.332525 29.927734 23.082031 C 29.927219 23.081269 29.926297 23.08084 29.925781 23.080078 C 29.925781 23.080078 29.923828 23.078125 29.923828 23.078125 C 29.923828 23.078125 29.921875 23.076172 29.921875 23.076172 C 29.920845 23.074648 29.919001 23.073788 29.917969 23.072266 C 29.915614 23.0688 29.91252 23.065959 29.910156 23.0625 C 29.811641 22.918513 29.691539 22.791984 29.578125 22.660156 C 29.49934 22.56858 29.43314 22.466092 29.347656 22.380859 C 29.3473 22.380504 29.34606 22.381215 29.345703 22.380859 C 29.345703 22.380859 29.345703 22.378906 29.345703 22.378906 C 29.345101 22.378305 29.344352 22.377554 29.34375 22.376953 C 29.343457 22.376661 29.344043 22.375292 29.34375 22.375 C 29.342744 22.373997 29.34085 22.374049 29.339844 22.373047 C 29.339844 22.373047 29.337891 22.371094 29.337891 22.371094 C 29.337891 22.371094 29.335938 22.369141 29.335938 22.369141 C 29.335938 22.369141 29.335938 22.367188 29.335938 22.367188 C 29.332721 22.363971 29.329398 22.360629 29.326172 22.357422 C 29.323868 22.355123 29.320668 22.353856 29.318359 22.351562 C 29.318359 22.351562 29.316406 22.349609 29.316406 22.349609 C 29.314756 22.34795 29.314153 22.345407 29.3125 22.34375 C 29.309903 22.341159 29.30729 22.338522 29.304688 22.335938 C 29.301735 22.332991 29.297883 22.331063 29.294922 22.328125 C 29.291989 22.325167 29.29005 22.32131 29.287109 22.318359 C 29.283864 22.315121 29.280599 22.311823 29.277344 22.308594 C 29.273742 22.305 29.269239 22.30241 29.265625 22.298828 C 29.26368 22.296887 29.261714 22.294906 29.259766 22.292969 C 29.25782 22.291021 29.253902 22.2871 29.251953 22.285156 C 29.244777 22.27795 29.235738 22.268878 29.228516 22.261719 C 29.22658 22.259788 29.224595 22.257787 29.222656 22.255859 C 29.222656 22.255859 29.220703 22.255859 29.220703 22.255859 C 29.218404 22.253556 29.215195 22.248393 29.212891 22.246094 C 29.204426 22.237584 29.194076 22.227195 29.185547 22.21875 C 29.185547 22.21875 29.183594 22.216797 29.183594 22.216797 C 29.183594 22.216797 29.181641 22.216797 29.181641 22.216797 C 29.181641 22.216797 29.181641 22.214844 29.181641 22.214844 C 29.171895 22.205047 29.162175 22.195258 29.152344 22.185547 C 29.149391 22.182601 29.145539 22.180673 29.142578 22.177734 C 29.136691 22.17183 29.130918 22.16603 29.125 22.160156 C 29.119113 22.154252 29.11334 22.148452 29.107422 22.142578 C 29.100892 22.136021 29.094459 22.129566 29.087891 22.123047 C 29.08265 22.117784 29.077531 22.11266 29.072266 22.107422 C 29.063455 22.098549 29.055755 22.088881 29.046875 22.080078 C 29.039699 22.072872 29.032613 22.065753 29.025391 22.058594 C 29.016565 22.049732 29.006942 22.041995 28.998047 22.033203 C 28.991803 22.026948 28.984794 22.021845 28.978516 22.015625 C 28.972278 22.009358 28.96721 22.002326 28.960938 21.996094 C 28.949196 21.984255 28.937647 21.972652 28.925781 21.960938 C 28.919245 21.954389 28.912825 21.947916 28.90625 21.941406 C 28.89943 21.93455 28.893581 21.926737 28.886719 21.919922 C 28.875969 21.909078 28.864369 21.899411 28.853516 21.888672 C 28.842405 21.877495 28.831534 21.866534 28.820312 21.855469 C 28.814425 21.849564 28.808652 21.843764 28.802734 21.837891 C 28.791355 21.826403 28.781028 21.814104 28.769531 21.802734 C 28.758132 21.791261 28.745891 21.780887 28.734375 21.769531 C 28.727193 21.762319 28.720119 21.755212 28.712891 21.748047 C 28.69921 21.734237 28.685724 21.720672 28.671875 21.707031 C 28.664698 21.699824 28.657614 21.692708 28.650391 21.685547 C 28.637728 21.67275 28.626088 21.659136 28.613281 21.646484 C 28.602244 21.635363 28.591225 21.624293 28.580078 21.613281 C 28.568686 21.601803 28.55643 21.59144 28.544922 21.580078 C 28.53318 21.568239 28.521631 21.556636 28.509766 21.544922 C 28.496378 21.531423 28.482299 21.519196 28.46875 21.505859 C 28.459926 21.496983 28.452253 21.487322 28.443359 21.478516 C 28.427773 21.462745 28.41229 21.44719 28.396484 21.431641 C 28.387022 21.422117 28.37673 21.413739 28.367188 21.404297 C 28.352542 21.389469 28.339058 21.374008 28.324219 21.359375 C 28.311194 21.346227 28.298334 21.333307 28.285156 21.320312 C 28.272121 21.307154 28.259282 21.294255 28.246094 21.28125 C 28.232432 21.267444 28.218908 21.253872 28.205078 21.240234 C 28.189482 21.224472 28.174019 21.208901 28.158203 21.193359 C 28.14552 21.180579 28.131968 21.168885 28.119141 21.15625 C 28.104832 21.14179 28.090665 21.127556 28.076172 21.113281 C 28.063505 21.10048 28.051874 21.086875 28.039062 21.074219 C 28.022837 21.057763 28.006698 21.041607 27.990234 21.025391 C 27.972992 21.007945 27.955011 20.991785 27.9375 20.974609 C 27.923822 20.960818 27.91033 20.947216 27.896484 20.933594 C 27.880895 20.917821 27.865418 20.902271 27.849609 20.886719 C 27.835308 20.872249 27.821127 20.858034 27.806641 20.84375 C 27.789086 20.825936 27.77174 20.808549 27.753906 20.791016 C 27.737618 20.774525 27.721606 20.758437 27.705078 20.742188 C 27.688486 20.725389 27.67309 20.707954 27.65625 20.691406 C 27.639385 20.674323 27.622591 20.65745 27.605469 20.640625 C 27.586961 20.621878 27.567645 20.604373 27.548828 20.585938 C 27.53452 20.571477 27.520352 20.557243 27.505859 20.542969 C 27.485389 20.522172 27.464209 20.502836 27.443359 20.482422 C 27.428703 20.467601 27.415241 20.452126 27.400391 20.4375 C 27.380639 20.41741 27.361902 20.396687 27.341797 20.376953 C 27.323655 20.358555 27.305549 20.340365 27.287109 20.322266 C 27.268614 20.303509 27.249274 20.286024 27.230469 20.267578 C 27.211627 20.248458 27.192992 20.229735 27.173828 20.210938 C 27.153345 20.190152 27.13219 20.170794 27.111328 20.150391 C 27.093738 20.132582 27.076463 20.115184 27.058594 20.097656 C 27.039102 20.077853 27.019836 20.058519 27 20.039062 C 26.981797 20.020568 26.963816 20.002567 26.945312 19.984375 C 26.923591 19.962242 26.90301 19.939671 26.880859 19.917969 C 26.859103 19.895865 26.836638 19.875187 26.814453 19.853516 C 26.797227 19.836054 26.781167 19.817973 26.763672 19.800781 C 26.73972 19.776362 26.71588 19.75241 26.691406 19.728516 C 26.673551 19.710408 26.654862 19.693599 26.636719 19.675781 C 26.612443 19.651017 26.589265 19.625788 26.564453 19.601562 C 26.545955 19.582803 26.52662 19.565323 26.507812 19.546875 C 26.483184 19.521751 26.458774 19.497225 26.433594 19.472656 C 26.413111 19.451871 26.391956 19.432513 26.371094 19.412109 C 26.350639 19.391291 26.331381 19.370046 26.310547 19.349609 C 26.286286 19.324831 26.263078 19.299629 26.238281 19.275391 C 26.215619 19.252314 26.19305 19.229639 26.169922 19.207031 C 26.145622 19.182287 26.120539 19.15897 26.095703 19.134766 C 26.073947 19.112661 26.051482 19.091985 26.029297 19.070312 C 26.007557 19.048159 25.987014 19.025627 25.964844 19.003906 C 25.937681 18.976133 25.910648 18.948971 25.882812 18.921875 C 25.86104 18.899754 25.838608 18.87911 25.816406 18.857422 C 25.793409 18.833961 25.771526 18.810087 25.748047 18.787109 C 25.722167 18.760647 25.696413 18.734832 25.669922 18.708984 C 25.645294 18.68386 25.620883 18.659334 25.595703 18.634766 C 25.569439 18.607972 25.542517 18.582802 25.515625 18.556641 C 25.492251 18.532851 25.469182 18.509619 25.445312 18.486328 C 25.421046 18.461543 25.39785 18.436355 25.373047 18.412109 C 25.34462 18.383009 25.316274 18.35453 25.287109 18.326172 C 25.264444 18.303091 25.241882 18.280424 25.21875 18.257812 C 25.189349 18.22768 25.159098 18.19926 25.128906 18.169922 C 25.105878 18.146457 25.084057 18.122589 25.060547 18.099609 C 25.030857 18.06918 25.001199 18.039384 24.970703 18.009766 C 24.947057 17.985658 24.922592 17.963049 24.898438 17.939453 C 24.869687 17.909968 24.842008 17.880287 24.8125 17.851562 C 24.783703 17.822118 24.754162 17.794308 24.724609 17.765625 C 24.700314 17.740839 24.677177 17.715652 24.652344 17.691406 C 24.621655 17.659916 24.590145 17.630232 24.558594 17.599609 C 24.533336 17.573813 24.508261 17.548649 24.482422 17.523438 C 24.452409 17.492623 24.423416 17.461626 24.392578 17.431641 C 24.364151 17.40254 24.335806 17.374061 24.306641 17.345703 C 24.278214 17.316603 24.249868 17.288124 24.220703 17.259766 C 24.191653 17.229993 24.162634 17.200872 24.132812 17.171875 C 24.103763 17.142102 24.074744 17.112981 24.044922 17.083984 C 24.015207 17.053529 23.9856 17.023784 23.955078 16.994141 C 23.923755 16.962039 23.891594 16.93159 23.859375 16.900391 C 23.832186 16.87259 23.805207 16.845482 23.777344 16.818359 C 23.74572 16.785853 23.714182 16.754241 23.681641 16.722656 C 23.651258 16.691498 23.621071 16.661168 23.589844 16.630859 C 23.559461 16.599701 23.529274 16.569371 23.498047 16.539062 C 23.467043 16.50723 23.436181 16.476259 23.404297 16.445312 C 23.371374 16.41151 23.338603 16.378507 23.304688 16.345703 C 23.276897 16.317254 23.249199 16.289458 23.220703 16.261719 C 23.185545 16.225494 23.149575 16.191332 23.113281 16.15625 C 23.084489 16.126756 23.056893 16.097091 23.027344 16.068359 C 22.993843 16.033843 22.960315 16.000276 22.925781 15.966797 C 22.891599 15.931661 22.857519 15.897339 22.822266 15.863281 C 22.793192 15.833483 22.764222 15.804412 22.734375 15.775391 C 22.698312 15.738189 22.662261 15.702013 22.625 15.666016 C 22.594683 15.634908 22.564362 15.60448 22.533203 15.574219 C 22.498446 15.538367 22.463604 15.503484 22.427734 15.46875 C 22.394213 15.434253 22.360726 15.400647 22.326172 15.367188 C 22.290733 15.330717 22.255342 15.295075 22.21875 15.259766 C 22.186165 15.226329 22.152698 15.194567 22.119141 15.162109 C 22.086602 15.128622 22.054996 15.09501 22.021484 15.0625 C 21.985473 15.025311 21.949317 14.989112 21.912109 14.953125 C 21.877331 14.917293 21.842531 14.88237 21.806641 14.847656 C 21.769946 14.80985 21.733244 14.772889 21.695312 14.736328 C 21.661467 14.701559 21.626691 14.668478 21.591797 14.634766 C 21.557651 14.599583 21.5235 14.565354 21.488281 14.53125 C 21.449669 14.49135 21.411081 14.452579 21.371094 14.414062 C 21.33691 14.378922 21.302834 14.344608 21.267578 14.310547 C 21.232814 14.274686 21.197987 14.239821 21.162109 14.205078 C 21.124158 14.165816 21.086157 14.127769 21.046875 14.089844 C 21.010153 14.051942 20.973511 14.015169 20.935547 13.978516 C 20.898157 13.939922 20.860943 13.902533 20.822266 13.865234 C 20.784906 13.826674 20.74763 13.789221 20.708984 13.751953 C 20.671625 13.713392 20.634348 13.675939 20.595703 13.638672 C 20.558343 13.600111 20.521067 13.562658 20.482422 13.525391 C 20.444447 13.48615 20.406492 13.44806 20.367188 13.410156 C 20.3273 13.368938 20.287448 13.328804 20.246094 13.289062 C 20.209396 13.251251 20.172701 13.2143 20.134766 13.177734 C 20.09622 13.137882 20.057495 13.099021 20.017578 13.060547 C 19.978683 13.020332 19.938728 12.982171 19.898438 12.943359 C 19.859174 12.902739 19.819984 12.863407 19.779297 12.824219 C 19.740066 12.783632 19.700809 12.744236 19.660156 12.705078 C 19.620289 12.663831 19.580398 12.623756 19.539062 12.583984 C 19.499195 12.542737 19.459304 12.502662 19.417969 12.462891 C 19.379723 12.423321 19.342331 12.383915 19.302734 12.345703 C 19.261001 12.302375 19.219129 12.260456 19.175781 12.21875 C 19.133395 12.174848 19.090921 12.132074 19.046875 12.089844 C 19.009207 12.050942 18.970617 12.014149 18.931641 11.976562 C 18.888972 11.932238 18.847092 11.888331 18.802734 11.845703 C 18.759998 11.801439 18.716298 11.759361 18.671875 11.716797 C 18.631985 11.675574 18.592138 11.635449 18.550781 11.595703 C 18.509024 11.5524 18.4672 11.51043 18.423828 11.46875 C 18.38337 11.426794 18.342755 11.386136 18.300781 11.345703 C 18.257118 11.30029 18.213403 11.256525 18.167969 11.212891 C 18.123618 11.166869 18.079375 11.122314 18.033203 11.078125 C 17.993972 11.037536 17.954715 10.998144 17.914062 10.958984 C 17.867884 10.910899 17.821598 10.864451 17.773438 10.818359 C 17.732956 10.776431 17.692387 10.735718 17.650391 10.695312 C 17.60425 10.647269 17.557886 10.600741 17.509766 10.554688 C 17.468648 10.512098 17.427446 10.470705 17.384766 10.429688 C 17.337989 10.380983 17.290997 10.333768 17.242188 10.287109 C 17.199449 10.24284 17.155754 10.200773 17.111328 10.158203 C 17.068652 10.113868 17.026787 10.069981 16.982422 10.027344 C 16.93504 9.977951 16.887362 9.9301042 16.837891 9.8828125 C 16.795525 9.8388788 16.753011 9.7961689 16.708984 9.7539062 C 16.661254 9.7041502 16.612351 9.6569987 16.5625 9.609375 C 16.518814 9.5640457 16.47514 9.5201135 16.429688 9.4765625 C 16.383502 9.4284729 16.33723 9.3820332 16.289062 9.3359375 C 16.245141 9.2902558 16.201963 9.2450532 16.15625 9.2011719 C 16.107241 9.1500198 16.057107 9.1016355 16.005859 9.0527344 C 15.96089 9.0060192 15.915984 8.9608441 15.869141 8.9160156 C 15.822359 8.8673023 15.775378 8.8201046 15.726562 8.7734375 C 15.679781 8.7247242 15.6328 8.6775265 15.583984 8.6308594 C 15.537203 8.5821461 15.490222 8.5349483 15.441406 8.4882812 C 15.395599 8.4405298 15.350495 8.3934451 15.302734 8.3476562 C 15.252486 8.29515 15.201041 8.2454497 15.148438 8.1953125 C 15.102264 8.147288 15.055965 8.1007205 15.007812 8.0546875 C 14.959779 8.0045571 14.911512 7.9561722 14.861328 7.9082031 C 14.814603 7.8594377 14.767511 7.8123461 14.71875 7.765625 C 14.666975 7.7114309 14.614827 7.6590966 14.560547 7.6074219 C 13.698427 6.7107408 12.491841 6.1484375 11.148438 6.1484375 z "
       transform="matrix(0.9375,0,0,0.9375,-1.8749779,2.4708283)"
       id="path923"
       clip-path="url(#clipPath66)" />
    <path
       inkscape:connector-curvature="0"
       d="m 8.4375224,8.0958285 c -2.4671052,0 -4.4407891,1.9736835 -4.4407891,4.4407885 v 3.453947 a 1.4802631,1.4802631 0 0 0 1.4802636,1.480264 h 1.4802628 v -3.94737 H 4.9835757 V 12.536617 A 3.4539473,3.4539473 0 0 1 8.4375224,9.0826709 3.4539473,3.4539473 0 0 1 11.891469,12.536617 v 0.986841 H 9.9177851 v 3.94737 h 1.4802629 a 1.4802631,1.4802631 0 0 0 1.480263,-1.480264 v -3.453947 c 0,-2.467105 -1.988487,-4.4407885 -4.4407886,-4.4407885 z"
       id="path4228"
       style="display:inline;fill:#ff9800;fill-opacity:1;stroke:none;stroke-width:0.93749994"
       clip-path="url(#clipPath1796)" />
    <path
       style="display:inline;fill:#212121;fill-opacity:1;stroke:none;stroke-width:0.93749994"
       id="path868"
       d="m 22.500022,22.158329 c -2.467105,0 -4.440789,1.973683 -4.440789,4.440788 v 3.453947 a 1.4802631,1.4802631 0 0 0 1.480264,1.480264 h 1.480263 v -3.94737 h -1.973684 v -0.986841 a 3.4539473,3.4539473 0 0 1 3.453946,-3.453946 3.4539473,3.4539473 0 0 1 3.453947,3.453946 v 0.986841 h -1.973684 v 3.94737 h 1.480263 a 1.4802631,1.4802631 0 0 0 1.480263,-1.480264 v -3.453947 c 0,-2.467105 -1.988487,-4.440788 -4.440789,-4.440788 z"
       inkscape:connector-curvature="0"
       clip-path="url(#clipPath1792)" />
  </g>
</svg>
