<?xml version="1.0" encoding="UTF-8" standalone="no"?>
<!-- Created with Inkscape (http://www.inkscape.org/) -->

<svg
   xmlns:dc="http://purl.org/dc/elements/1.1/"
   xmlns:cc="http://creativecommons.org/ns#"
   xmlns:rdf="http://www.w3.org/1999/02/22-rdf-syntax-ns#"
   xmlns:svg="http://www.w3.org/2000/svg"
   xmlns="http://www.w3.org/2000/svg"
   xmlns:sodipodi="http://sodipodi.sourceforge.net/DTD/sodipodi-0.dtd"
   xmlns:inkscape="http://www.inkscape.org/namespaces/inkscape"
   sodipodi:docname="zwischenablage.svg"
   inkscape:version="0.92.2 (5c3e80d, 2017-08-06)"
   version="1.1"
   id="svg2"
   viewBox="0 0 20.625 20.625"
   height="22"
   width="22"
   inkscape:export-filename="/home/juergen/Desktop/ic_launcher.png"
   inkscape:export-xdpi="628.36365"
   inkscape:export-ydpi="628.36365">
  <sodipodi:namedview
     inkscape:snap-to-guides="true"
     inkscape:snap-grids="true"
     inkscape:window-maximized="1"
     inkscape:window-y="33"
     inkscape:window-x="0"
     inkscape:window-height="699"
     inkscape:window-width="1366"
     inkscape:guide-bbox="true"
     showguides="false"
     fit-margin-bottom="1"
     fit-margin-right="1"
     fit-margin-left="1"
     fit-margin-top="1"
     showgrid="true"
     inkscape:current-layer="layer2"
     inkscape:document-units="px"
     inkscape:cy="8.0034668"
     inkscape:cx="10.562"
     inkscape:zoom="15.839192"
     inkscape:pageshadow="2"
     inkscape:pageopacity="0.0"
     borderopacity="1.0"
     bordercolor="#666666"
     pagecolor="#ffffff"
     id="base"
     units="px">
    <inkscape:grid
       originy="18.750001"
       originx="6.5625002"
       id="grid4138"
       type="xygrid" />
    <sodipodi:guide
       inkscape:locked="false"
       id="guide4140"
       orientation="0,1"
       position="11.874978,21.095829" />
    <sodipodi:guide
       inkscape:locked="false"
       id="guide4142"
       orientation="0,1"
       position="11.874978,5.0958282" />
    <sodipodi:guide
       inkscape:locked="false"
       id="guide4144"
       orientation="1,0"
       position="3.874978,13.095829" />
    <sodipodi:guide
       inkscape:locked="false"
       id="guide4146"
       orientation="0,20"
       position="1.8749779,3.0958281" />
    <sodipodi:guide
       inkscape:locked="false"
       id="guide4148"
       orientation="-20,0"
       position="21.874978,3.0958281" />
    <sodipodi:guide
       inkscape:locked="false"
       id="guide4150"
       orientation="0,-20"
       position="21.874978,23.095829" />
    <sodipodi:guide
       inkscape:locked="false"
       id="guide4152"
       orientation="20,0"
       position="1.8749779,23.095829" />
    <sodipodi:guide
       inkscape:locked="false"
       id="guide4154"
       orientation="1,0"
       position="19.874978,13.095829" />
    <sodipodi:guide
       inkscape:locked="false"
       id="guide4156"
       orientation="-0.70710678,0.70710678"
       position="11.874978,13.095829" />
    <sodipodi:guide
       inkscape:locked="false"
       id="guide4158"
       orientation="0.70710678,0.70710678"
       position="11.874978,13.095829" />
    <sodipodi:guide
       inkscape:locked="false"
       id="guide4160"
       orientation="1,0"
       position="5.8749781,13.095829" />
    <sodipodi:guide
       inkscape:locked="false"
       id="guide4162"
       orientation="1,0"
       position="17.874978,13.095829" />
    <sodipodi:guide
       inkscape:locked="false"
       id="guide4164"
       orientation="0,1"
       position="11.874978,19.095829" />
    <sodipodi:guide
       inkscape:locked="false"
       id="guide4166"
       orientation="0,1"
       position="11.874978,7.0958282" />
    <sodipodi:guide
       inkscape:locked="false"
       id="guide4168"
       orientation="0,1"
       position="11.874978,18.095829" />
    <sodipodi:guide
       inkscape:locked="false"
       id="guide4170"
       orientation="0,1"
       position="11.874978,8.0958282" />
    <sodipodi:guide
       inkscape:locked="false"
       id="guide4172"
       orientation="1,0"
       position="6.8749781,13.095829" />
    <sodipodi:guide
       inkscape:locked="false"
       id="guide4174"
       orientation="1,0"
       position="16.874978,13.095829" />
  </sodipodi:namedview>
  <defs
     id="defs4">
    <clipPath
       clipPathUnits="userSpaceOnUse"
       id="clipPath12478">
      <circle
         style="opacity:1;fill:#2196f3;fill-opacity:1;stroke:none;stroke-width:0.05069799;stroke-miterlimit:4;stroke-dasharray:none;stroke-opacity:1"
         id="circle12480"
         cx="9.9999781"
         cy="10.000005"
         r="10" />
    </clipPath>
    <clipPath
       id="clipPath5790"
       clipPathUnits="userSpaceOnUse">
      <circle
         inkscape:export-ydpi="648"
         inkscape:export-xdpi="648"
         inkscape:export-filename="/home/juergen/path4136.png"
         style="opacity:1;fill:#2196f3;fill-opacity:1;stroke:none;stroke-width:0.05069799;stroke-miterlimit:4;stroke-dasharray:none;stroke-opacity:1"
         id="circle5792"
         cx="9.9999781"
         cy="10.000005"
         r="10" />
    </clipPath>
    <clipPath
       clipPathUnits="userSpaceOnUse"
       id="clipPath7690">
      <circle
         inkscape:export-ydpi="648"
         inkscape:export-xdpi="648"
         inkscape:export-filename="/home/juergen/Schreibtisch/path4136.png"
         style="opacity:1;fill:#2196f3;fill-opacity:1;stroke:none;stroke-width:0.05069799;stroke-miterlimit:4;stroke-dasharray:none;stroke-opacity:1"
         id="circle7692"
         cx="9.9999781"
         cy="10.000005"
         r="10" />
    </clipPath>
    <clipPath
       id="clipPath5119"
       clipPathUnits="userSpaceOnUse">
      <circle
         inkscape:export-ydpi="648"
         inkscape:export-xdpi="648"
         inkscape:export-filename="/home/juergen/Schreibtisch/path4136.png"
         style="opacity:1;fill:#ff9800;fill-opacity:1;stroke:none;stroke-width:0.05069799;stroke-miterlimit:4;stroke-dasharray:none;stroke-opacity:1"
         id="circle5121"
         cx="9.9999781"
         cy="10.000005"
         r="10" />
    </clipPath>
    <clipPath
       clipPathUnits="userSpaceOnUse"
       id="clipPath3591">
      <rect
         inkscape:export-ydpi="691.20001"
         inkscape:export-xdpi="691.20001"
         inkscape:export-filename="/home/juergen/Desktop/ic_launcher.png"
         style="fill:#ea80fc;fill-opacity:0.95685281;stroke:none;stroke-width:5.75974274;stroke-miterlimit:4;stroke-dasharray:none;stroke-opacity:1"
         id="rect3593"
         width="20"
         height="20"
         x="4.000071"
         y="8.63554" />
    </clipPath>
    <clipPath
       clipPathUnits="userSpaceOnUse"
       id="clipPath3595">
      <rect
         inkscape:export-ydpi="691.20001"
         inkscape:export-xdpi="691.20001"
         inkscape:export-filename="/home/juergen/Desktop/ic_launcher.png"
         style="fill:#ea80fc;fill-opacity:0.95685281;stroke:none;stroke-width:5.39975882;stroke-miterlimit:4;stroke-dasharray:none;stroke-opacity:1"
         id="rect3597"
         width="18.75"
         height="18.75"
         x="-0.93747789"
         y="3.4083283" />
    </clipPath>
    <clipPath
       clipPathUnits="userSpaceOnUse"
       id="clipPath3599">
      <rect
         inkscape:export-ydpi="691.20001"
         inkscape:export-xdpi="691.20001"
         inkscape:export-filename="/home/juergen/Desktop/ic_launcher.png"
         style="fill:#ea80fc;fill-opacity:0.95685281;stroke:none;stroke-width:5.39975882;stroke-miterlimit:4;stroke-dasharray:none;stroke-opacity:1"
         id="rect3601"
         width="18.75"
         height="18.75"
         x="-0.93747789"
         y="3.4083283" />
    </clipPath>
    <clipPath
       clipPathUnits="userSpaceOnUse"
       id="clipPath3603">
      <rect
         inkscape:export-ydpi="691.20001"
         inkscape:export-xdpi="691.20001"
         inkscape:export-filename="/home/juergen/Desktop/ic_launcher.png"
         style="fill:#ea80fc;fill-opacity:0.95685281;stroke:none;stroke-width:5.39975882;stroke-miterlimit:4;stroke-dasharray:none;stroke-opacity:1"
         id="rect3605"
         width="18.75"
         height="18.75"
         x="-0.93747789"
         y="3.4083283" />
    </clipPath>
    <clipPath
       clipPathUnits="userSpaceOnUse"
       id="clipPath3617">
      <rect
         ry="0.93749899"
         inkscape:export-ydpi="691.20001"
         inkscape:export-xdpi="691.20001"
         inkscape:export-filename="/home/juergen/Desktop/ic_launcher.png"
         style="fill:#8bc34a;fill-opacity:0.95685281;stroke:none;stroke-width:5.39975882;stroke-miterlimit:4;stroke-dasharray:none;stroke-opacity:1"
         id="rect3619"
         width="18.75"
         height="18.75"
         x="-0.93747789"
         y="3.4083283" />
    </clipPath>
    <clipPath
       clipPathUnits="userSpaceOnUse"
       id="clipPath3621">
      <rect
         ry="0.99999893"
         inkscape:export-ydpi="691.20001"
         inkscape:export-xdpi="691.20001"
         inkscape:export-filename="/home/juergen/Desktop/ic_launcher.png"
         style="fill:#8bc34a;fill-opacity:0.95685281;stroke:none;stroke-width:5.75974274;stroke-miterlimit:4;stroke-dasharray:none;stroke-opacity:1"
         id="rect3623"
         width="20"
         height="20"
         x="4.000071"
         y="8.63554" />
    </clipPath>
    <clipPath
       clipPathUnits="userSpaceOnUse"
       id="clipPath3627">
      <rect
         ry="1.874999"
         inkscape:export-ydpi="691.20001"
         inkscape:export-xdpi="691.20001"
         inkscape:export-filename="/home/juergen/Desktop/ic_launcher.png"
         style="fill:#8bc34a;fill-opacity:0.95685281;stroke:none;stroke-width:5.39975882;stroke-miterlimit:4;stroke-dasharray:none;stroke-opacity:1"
         id="rect3629"
         width="18.75"
         height="18.75"
         x="-0.93747789"
         y="3.4083283" />
    </clipPath>
    <clipPath
       clipPathUnits="userSpaceOnUse"
       id="clipPath3631">
      <rect
         ry="1.9999989"
         inkscape:export-ydpi="691.20001"
         inkscape:export-xdpi="691.20001"
         inkscape:export-filename="/home/juergen/Desktop/ic_launcher.png"
         style="fill:#8bc34a;fill-opacity:0.95685281;stroke:none;stroke-width:5.75974274;stroke-miterlimit:4;stroke-dasharray:none;stroke-opacity:1"
         id="rect3633"
         width="20"
         height="20"
         x="4.000071"
         y="8.63554" />
    </clipPath>
    <clipPath
       id="clipPath1784"
       clipPathUnits="userSpaceOnUse">
      <rect
         ry="1.9999989"
         inkscape:export-ydpi="691.20001"
         inkscape:export-xdpi="691.20001"
         inkscape:export-filename="/home/juergen/Desktop/ic_launcher.png"
         style="fill:#ffc107;fill-opacity:0.95685281;stroke:none;stroke-width:5.75974274;stroke-miterlimit:4;stroke-dasharray:none;stroke-opacity:1"
         id="rect1786"
         width="20"
         height="20"
         x="1"
         y="1" />
    </clipPath>
    <clipPath
       id="clipPath1788"
       clipPathUnits="userSpaceOnUse">
      <rect
         ry="1.874999"
         inkscape:export-ydpi="691.20001"
         inkscape:export-xdpi="691.20001"
         inkscape:export-filename="/home/juergen/Desktop/ic_launcher.png"
         style="fill:#ffc107;fill-opacity:0.95685281;stroke:none;stroke-width:5.39975882;stroke-miterlimit:4;stroke-dasharray:none;stroke-opacity:1"
         id="rect1790"
         width="18.75"
         height="18.75"
         x="-0.93747789"
         y="3.4083283" />
    </clipPath>
    <clipPath
       id="clipPath1792"
       clipPathUnits="userSpaceOnUse">
      <rect
         ry="1.874999"
         inkscape:export-ydpi="691.20001"
         inkscape:export-xdpi="691.20001"
         inkscape:export-filename="/home/juergen/Desktop/ic_launcher.png"
         style="fill:#ffc107;fill-opacity:0.95685281;stroke:none;stroke-width:5.39975882;stroke-miterlimit:4;stroke-dasharray:none;stroke-opacity:1"
         id="rect1794"
         width="18.75"
         height="18.75"
         x="-0.93747789"
         y="3.4083283" />
    </clipPath>
    <clipPath
       clipPathUnits="userSpaceOnUse"
       id="clipPath2751">
      <rect
         ry="1.9999989"
         inkscape:export-ydpi="691.20001"
         inkscape:export-xdpi="691.20001"
         inkscape:export-filename="/home/juergen/Desktop/ic_launcher.png"
         style="fill:#4caf50;fill-opacity:0.95685281;stroke:none;stroke-width:5.75974274;stroke-miterlimit:4;stroke-dasharray:none;stroke-opacity:1"
         id="rect2753"
         width="20"
         height="20"
         x="1"
         y="1" />
    </clipPath>
    <clipPath
       clipPathUnits="userSpaceOnUse"
       id="clipPath2755">
      <rect
         ry="1.874999"
         inkscape:export-ydpi="691.20001"
         inkscape:export-xdpi="691.20001"
         inkscape:export-filename="/home/juergen/Desktop/ic_launcher.png"
         style="fill:#4caf50;fill-opacity:0.95685281;stroke:none;stroke-width:5.39975882;stroke-miterlimit:4;stroke-dasharray:none;stroke-opacity:1"
         id="rect2757"
         width="18.75"
         height="18.75"
         x="-0.93747789"
         y="3.4083283" />
    </clipPath>
    <clipPath
       clipPathUnits="userSpaceOnUse"
       id="clipPath2759">
      <rect
         ry="1.874999"
         inkscape:export-ydpi="691.20001"
         inkscape:export-xdpi="691.20001"
         inkscape:export-filename="/home/juergen/Desktop/ic_launcher.png"
         style="fill:#4caf50;fill-opacity:0.95685281;stroke:none;stroke-width:5.39975882;stroke-miterlimit:4;stroke-dasharray:none;stroke-opacity:1"
         id="rect2761"
         width="18.75"
         height="18.75"
         x="-0.93747789"
         y="3.4083283" />
    </clipPath>
  </defs>
  <metadata
     id="metadata7">
    <rdf:RDF>
      <cc:Work
         rdf:about="">
        <dc:format>image/svg+xml</dc:format>
        <dc:type
           rdf:resource="http://purl.org/dc/dcmitype/StillImage" />
        <dc:title></dc:title>
      </cc:Work>
    </rdf:RDF>
  </metadata>
  <g
     transform="translate(1060.0177,-864.40447)"
     id="layer1"
     inkscape:groupmode="layer"
     inkscape:label="Hintergrund" />
  <g
     transform="translate(1.8749779,-2.4708283)"
     inkscape:label="Icon"
     id="layer2"
     inkscape:groupmode="layer"
     style="display:inline">
    <rect
       y="3.4083283"
       x="-0.93747789"
       height="18.75"
       width="18.75"
       id="rect849"
       style="fill:#00bcd4;fill-opacity:0.95685281;stroke:none;stroke-width:5.39975882;stroke-miterlimit:4;stroke-dasharray:none;stroke-opacity:1"
       inkscape:export-filename="/home/juergen/Desktop/ic_launcher.png"
       inkscape:export-xdpi="691.20001"
       inkscape:export-ydpi="691.20001"
       ry="1.874999" />
    <path
       style="fill:none"
       inkscape:connector-curvature="0"
       id="path4"
       d="M 3.9999777,4.0333382 H 15.999978 V 15.966671 H 3.9999777 Z" />
    <path
       d="m 18.999978,19.033339 h 12 v 11.933333 h -12 z"
       id="path9754"
       inkscape:connector-curvature="0"
       style="fill:none"
       clip-path="url(#clipPath3603)" />
    <path
       inkscape:connector-curvature="0"
       d="m 21.500022,22.845828 h -3 c -0.555,0 -1,0.445 -1,1 v 6 a 1,1 0 0 0 1,1 h 8 a 1,1 0 0 0 1,-1 v -5 c 0,-0.555 -0.45,-1 -1,-1 h -4 z"
       id="path1785"
       style="fill:#212121"
       clip-path="url(#clipPath3595)" />
    <path
       clip-path="url(#clipPath1788)"
       style="display:inline;fill:#212121;stroke-width:0.93749988"
       id="path868"
       d="m 25.371116,26.076297 c -0.265626,-1.34375 -1.44922,-2.355468 -2.871094,-2.355468 -1.128907,0 -2.109375,0.640624 -2.597656,1.574218 -1.175782,0.128907 -2.089844,1.121094 -2.089844,2.33203 a 2.3437498,2.3437498 0 0 0 2.34375,2.343751 h 5.078124 a 1.9531248,1.9531248 0 0 0 1.953126,-1.953125 c 0,-1.03125 -0.800782,-1.867187 -1.816406,-1.941406 z"
       inkscape:connector-curvature="0" />
    <path
       style="display:inline;fill:#212121;stroke-width:0.99999988;opacity:0.2"
       d="M 11.138672 6.1523438 C 10.315675 6.1551359 9.6484375 6.8242843 9.6484375 7.6484375 L 9.6289062 7.6484375 C 9.6262738 7.6484375 7.6444448 7.6504877 7.6425781 7.6523438 C 7.0939137 7.6542051 6.6484376 8.0990028 6.6484375 8.6484375 L 6.6484375 15.148438 C 6.6484375 15.413655 6.7538698 15.667933 6.9414062 15.855469 C 6.9671921 15.881255 7.0030832 15.891444 7.03125 15.914062 C 7.0538683 15.942229 7.0640579 15.97812 7.0898438 16.003906 C 7.1145879 16.028651 7.1488392 16.038717 7.1757812 16.060547 C 7.1988057 16.089354 7.2100003 16.126016 7.2363281 16.152344 C 7.262656 16.178672 7.2993182 16.189866 7.328125 16.212891 C 7.3499546 16.239833 7.3600215 16.274084 7.3847656 16.298828 C 7.4097708 16.323834 7.4434548 16.335394 7.4707031 16.357422 C 7.4927313 16.38467 7.5042917 16.418354 7.5292969 16.443359 C 7.5546924 16.468755 7.5894804 16.479629 7.6171875 16.501953 C 7.639512 16.52966 7.650385 16.564448 7.6757812 16.589844 C 7.7007864 16.614849 7.7344704 16.626409 7.7617188 16.648438 C 7.7837469 16.675685 7.7953075 16.70937 7.8203125 16.734375 C 7.8450566 16.759119 7.8793079 16.769186 7.90625 16.791016 C 7.9280796 16.817958 7.9381465 16.852209 7.9628906 16.876953 C 7.9876348 16.901698 8.021886 16.911764 8.0488281 16.933594 C 8.0706577 16.960536 8.0807246 16.994787 8.1054688 17.019531 C 8.1302129 17.044276 8.1644642 17.054342 8.1914062 17.076172 C 8.2132358 17.103114 8.2233027 17.137365 8.2480469 17.162109 C 8.272791 17.186854 8.3070423 17.19692 8.3339844 17.21875 C 8.355814 17.245692 8.3658808 17.279943 8.390625 17.304688 C 8.4149788 17.329042 8.4481245 17.339797 8.4746094 17.361328 C 8.4961408 17.387813 8.506896 17.420958 8.53125 17.445312 C 8.5553428 17.469406 8.5890546 17.478669 8.6152344 17.5 C 8.6365654 17.52618 8.6458291 17.559892 8.6699219 17.583984 C 8.6942757 17.608339 8.7274213 17.619093 8.7539062 17.640625 C 8.7754375 17.66711 8.7861931 17.700255 8.8105469 17.724609 C 8.833598 17.747661 8.8656588 17.756819 8.890625 17.777344 C 8.9123765 17.804166 8.9226238 17.838639 8.9472656 17.863281 C 8.9719075 17.887923 9.006381 17.89817 9.0332031 17.919922 C 9.053728 17.944888 9.0628864 17.976949 9.0859375 18 C 9.10964 18.023703 9.1422445 18.033657 9.1679688 18.054688 C 9.1889989 18.080412 9.1989538 18.113016 9.2226562 18.136719 C 9.2463587 18.160421 9.2789633 18.170376 9.3046875 18.191406 C 9.3257177 18.21713 9.3356725 18.249735 9.359375 18.273438 C 9.3826871 18.29675 9.4141835 18.307397 9.4394531 18.328125 C 9.460181 18.353395 9.4708285 18.384891 9.4941406 18.408203 C 9.5174528 18.431516 9.5489491 18.442163 9.5742188 18.462891 C 9.5949466 18.48816 9.6055941 18.519657 9.6289062 18.542969 C 9.6522184 18.566281 9.6837148 18.576928 9.7089844 18.597656 C 9.7297123 18.622926 9.7403598 18.654422 9.7636719 18.677734 C 9.786723 18.700786 9.8187838 18.709944 9.84375 18.730469 C 9.864275 18.755435 9.8734331 18.787496 9.8964844 18.810547 C 9.9195355 18.833598 9.9515963 18.842756 9.9765625 18.863281 C 9.9970874 18.888248 10.006246 18.920308 10.029297 18.943359 C 10.051958 18.96602 10.082909 18.975874 10.107422 18.996094 C 10.127922 19.021023 10.137137 19.053152 10.160156 19.076172 C 10.18376 19.099776 10.216578 19.109905 10.242188 19.130859 C 10.261896 19.154619 10.270959 19.185022 10.292969 19.207031 C 10.315369 19.229431 10.346883 19.237797 10.371094 19.257812 C 10.391109 19.282023 10.399475 19.313538 10.421875 19.335938 C 10.444536 19.358598 10.475487 19.368452 10.5 19.388672 C 10.520221 19.413186 10.530073 19.444135 10.552734 19.466797 C 10.575134 19.489197 10.606648 19.497562 10.630859 19.517578 C 10.650875 19.541789 10.659241 19.573303 10.681641 19.595703 C 10.70365 19.617713 10.734053 19.626776 10.757812 19.646484 C 10.777521 19.670244 10.786584 19.700647 10.808594 19.722656 C 10.830603 19.744666 10.861006 19.753729 10.884766 19.773438 C 10.904474 19.797197 10.913537 19.8276 10.935547 19.849609 C 10.957465 19.871528 10.988065 19.880754 11.011719 19.900391 C 11.031427 19.92415 11.040491 19.954553 11.0625 19.976562 C 11.084509 19.998572 11.114912 20.007635 11.138672 20.027344 C 11.15838 20.051103 11.167444 20.081506 11.189453 20.103516 C 11.211072 20.125135 11.240363 20.134897 11.263672 20.154297 C 11.283071 20.177606 11.292834 20.206897 11.314453 20.228516 C 11.335811 20.249874 11.365663 20.258152 11.388672 20.277344 C 11.407864 20.300353 11.416142 20.330204 11.4375 20.351562 C 11.45877 20.372833 11.488812 20.381269 11.511719 20.400391 C 11.531427 20.42415 11.540491 20.454553 11.5625 20.476562 C 11.583858 20.497921 11.61371 20.506198 11.636719 20.525391 C 11.655911 20.548399 11.664189 20.578251 11.685547 20.599609 C 11.706515 20.620577 11.735252 20.629557 11.757812 20.648438 C 11.776693 20.670998 11.785673 20.699735 11.806641 20.720703 C 11.827608 20.741671 11.856346 20.75065 11.878906 20.769531 C 11.897787 20.792091 11.906767 20.820829 11.927734 20.841797 C 11.948702 20.862765 11.97744 20.871744 12 20.890625 C 12.018881 20.913185 12.02786 20.941923 12.048828 20.962891 C 12.069796 20.983859 12.098534 20.992838 12.121094 21.011719 C 12.139905 21.034179 12.149041 21.063104 12.169922 21.083984 C 12.190629 21.104691 12.219927 21.112187 12.242188 21.130859 C 12.260859 21.15312 12.268356 21.182418 12.289062 21.203125 C 12.309379 21.223442 12.337561 21.231642 12.359375 21.25 C 12.377733 21.271814 12.385934 21.299996 12.40625 21.320312 C 12.425915 21.339978 12.453539 21.347403 12.474609 21.365234 C 12.493731 21.388142 12.502168 21.418183 12.523438 21.439453 C 12.544318 21.460334 12.573243 21.46947 12.595703 21.488281 C 12.613216 21.508907 12.62135 21.535413 12.640625 21.554688 C 12.660941 21.575004 12.689124 21.583204 12.710938 21.601562 C 12.729295 21.623376 12.737496 21.651559 12.757812 21.671875 C 12.777739 21.691801 12.804804 21.700707 12.826172 21.71875 C 12.844215 21.740118 12.853121 21.767183 12.873047 21.787109 C 12.892973 21.807036 12.920039 21.815941 12.941406 21.833984 C 12.959449 21.855352 12.968355 21.882418 12.988281 21.902344 C 13.007946 21.922009 13.035571 21.929434 13.056641 21.947266 C 13.074472 21.968336 13.081897 21.99596 13.101562 22.015625 C 13.121228 22.03529 13.148852 22.042716 13.169922 22.060547 C 13.187753 22.081617 13.195179 22.109241 13.214844 22.128906 C 13.234509 22.148572 13.262133 22.155997 13.283203 22.173828 C 13.301034 22.194898 13.30846 22.222522 13.328125 22.242188 C 13.3474 22.261462 13.373906 22.269596 13.394531 22.287109 C 13.412045 22.307735 13.420178 22.334241 13.439453 22.353516 C 13.458728 22.372791 13.485234 22.380924 13.505859 22.398438 C 13.523373 22.419063 13.531507 22.445569 13.550781 22.464844 C 13.569795 22.483858 13.596858 22.490512 13.617188 22.507812 C 13.634488 22.528142 13.641143 22.555205 13.660156 22.574219 C 13.67917 22.593233 13.706233 22.599887 13.726562 22.617188 C 13.743863 22.637517 13.750517 22.66458 13.769531 22.683594 C 13.788545 22.702608 13.815608 22.709262 13.835938 22.726562 C 13.853238 22.746892 13.859893 22.773955 13.878906 22.792969 C 13.89753 22.811592 13.923473 22.818958 13.943359 22.835938 C 13.960339 22.855824 13.967705 22.881767 13.986328 22.900391 C 14.004952 22.919014 14.030895 22.926379 14.050781 22.943359 C 14.067761 22.963246 14.075127 22.989189 14.09375 23.007812 C 14.112373 23.026436 14.138317 23.033801 14.158203 23.050781 C 14.175183 23.070668 14.182549 23.096611 14.201172 23.115234 C 14.219405 23.133468 14.244227 23.141545 14.263672 23.158203 C 14.28033 23.177648 14.288408 23.20247 14.306641 23.220703 C 14.324874 23.238936 14.349696 23.247014 14.369141 23.263672 C 14.385799 23.283117 14.393876 23.307939 14.412109 23.326172 C 14.430081 23.344144 14.455459 23.350745 14.474609 23.367188 C 14.491052 23.386338 14.497653 23.411715 14.515625 23.429688 C 14.533597 23.44766 14.558975 23.454261 14.578125 23.470703 C 14.594567 23.489853 14.601169 23.515231 14.619141 23.533203 C 14.637113 23.551175 14.662491 23.557776 14.681641 23.574219 C 14.698083 23.593369 14.704684 23.618747 14.722656 23.636719 C 14.740238 23.654301 14.764493 23.661616 14.783203 23.677734 C 14.799321 23.696444 14.806637 23.7207 14.824219 23.738281 C 14.8418 23.755863 14.866056 23.763179 14.884766 23.779297 C 14.900884 23.798007 14.9082 23.822262 14.925781 23.839844 C 14.942712 23.856774 14.966397 23.863332 14.984375 23.878906 C 15.000797 23.898029 15.007443 23.923459 15.025391 23.941406 C 15.043288 23.959304 15.068824 23.966041 15.087891 23.982422 C 15.103464 24.0004 15.110023 24.024085 15.126953 24.041016 C 15.143884 24.057946 15.167569 24.064504 15.185547 24.080078 C 15.201121 24.098056 15.207679 24.121742 15.224609 24.138672 C 15.24193 24.155993 15.26674 24.161834 15.285156 24.177734 C 15.301057 24.196151 15.306898 24.220961 15.324219 24.238281 C 15.341149 24.255212 15.364834 24.26177 15.382812 24.277344 C 15.398386 24.295322 15.404945 24.319007 15.421875 24.335938 C 15.438415 24.352478 15.460975 24.359754 15.478516 24.375 C 15.493761 24.392541 15.501038 24.415101 15.517578 24.431641 C 15.534508 24.448571 15.558194 24.455129 15.576172 24.470703 C 15.591746 24.488681 15.598304 24.512366 15.615234 24.529297 C 15.631123 24.545186 15.653108 24.551711 15.669922 24.566406 C 15.685437 24.584306 15.692124 24.60814 15.708984 24.625 C 15.725845 24.64186 15.749679 24.648548 15.767578 24.664062 C 15.782273 24.680876 15.788799 24.702861 15.804688 24.71875 C 15.820966 24.735029 15.844079 24.740834 15.861328 24.755859 C 15.876353 24.773109 15.882159 24.796221 15.898438 24.8125 C 15.914717 24.828779 15.937829 24.834584 15.955078 24.849609 C 15.970104 24.866859 15.975908 24.889971 15.992188 24.90625 C 16.008076 24.922139 16.030061 24.928664 16.046875 24.943359 C 16.06157 24.960173 16.068096 24.982158 16.083984 24.998047 C 16.099873 25.013936 16.121858 25.020461 16.138672 25.035156 C 16.153367 25.05197 16.159893 25.073955 16.175781 25.089844 C 16.19167 25.105733 16.213655 25.112258 16.230469 25.126953 C 16.245164 25.143767 16.25169 25.165752 16.267578 25.181641 C 16.283206 25.197268 16.305742 25.202324 16.322266 25.216797 C 16.336739 25.23332 16.341794 25.255857 16.357422 25.271484 C 16.373049 25.287112 16.395586 25.292168 16.412109 25.306641 C 16.426582 25.323164 16.431638 25.345701 16.447266 25.361328 C 16.462503 25.376566 16.48391 25.382344 16.5 25.396484 C 16.51414 25.412574 16.519919 25.433981 16.535156 25.449219 C 16.550394 25.464456 16.571801 25.470235 16.587891 25.484375 C 16.60203 25.500464 16.60781 25.521872 16.623047 25.537109 C 16.638284 25.552347 16.659692 25.558126 16.675781 25.572266 C 16.689921 25.588355 16.6957 25.609763 16.710938 25.625 C 16.725785 25.639847 16.746062 25.646351 16.761719 25.660156 C 16.775524 25.675813 16.782028 25.696091 16.796875 25.710938 C 16.811722 25.725785 16.831999 25.732288 16.847656 25.746094 C 16.861462 25.761751 16.867966 25.782028 16.882812 25.796875 C 16.897008 25.811071 16.916704 25.816834 16.931641 25.830078 C 16.945762 25.846144 16.951581 25.867597 16.966797 25.882812 C 16.981971 25.897987 17.003512 25.903883 17.019531 25.917969 C 17.032775 25.932906 17.038539 25.952601 17.052734 25.966797 C 17.06693 25.980993 17.086625 25.986756 17.101562 26 C 17.114806 26.014937 17.12057 26.034633 17.134766 26.048828 C 17.149291 26.063354 17.170245 26.068502 17.185547 26.082031 C 17.199128 26.097399 17.204164 26.118227 17.21875 26.132812 C 17.232946 26.147008 17.252641 26.152772 17.267578 26.166016 C 17.280822 26.180953 17.286586 26.200648 17.300781 26.214844 C 17.314326 26.228388 17.333436 26.233415 17.347656 26.246094 C 17.361185 26.261395 17.366334 26.282349 17.380859 26.296875 C 17.395385 26.311401 17.416339 26.316549 17.431641 26.330078 C 17.444319 26.344298 17.449346 26.363409 17.462891 26.376953 C 17.476825 26.390888 17.497069 26.395185 17.511719 26.408203 C 17.524736 26.422853 17.529034 26.443097 17.542969 26.457031 C 17.556513 26.470576 17.575624 26.475603 17.589844 26.488281 C 17.602522 26.502502 17.60755 26.521612 17.621094 26.535156 C 17.634638 26.548701 17.653748 26.553728 17.667969 26.566406 C 17.680647 26.580626 17.685674 26.599737 17.699219 26.613281 C 17.712763 26.626826 17.731874 26.631853 17.746094 26.644531 C 17.758772 26.658751 17.7638 26.677862 17.777344 26.691406 C 17.790498 26.70456 17.808474 26.710319 17.822266 26.722656 C 17.834603 26.736448 17.840362 26.754424 17.853516 26.767578 C 17.86667 26.780732 17.884645 26.786491 17.898438 26.798828 C 17.910775 26.81262 17.916534 26.830596 17.929688 26.84375 C 17.942841 26.856904 17.960817 26.862663 17.974609 26.875 C 17.986947 26.888792 17.992705 26.906768 18.005859 26.919922 C 18.018752 26.932815 18.037275 26.93711 18.050781 26.949219 C 18.06289 26.962725 18.067185 26.981248 18.080078 26.994141 C 18.092971 27.007034 18.111494 27.011329 18.125 27.023438 C 18.137109 27.036944 18.141404 27.055466 18.154297 27.068359 C 18.1668 27.080862 18.184186 27.085891 18.197266 27.097656 C 18.209031 27.110736 18.21406 27.128122 18.226562 27.140625 C 18.239065 27.153128 18.256451 27.158157 18.269531 27.169922 C 18.281296 27.183002 18.286326 27.200388 18.298828 27.212891 C 18.311331 27.225393 18.328717 27.230422 18.341797 27.242188 C 18.353562 27.255267 18.358591 27.272654 18.371094 27.285156 C 18.383335 27.297398 18.401267 27.300965 18.414062 27.3125 C 18.425597 27.325295 18.429165 27.343227 18.441406 27.355469 C 18.453648 27.367711 18.47158 27.371278 18.484375 27.382812 C 18.49591 27.395608 18.499477 27.41354 18.511719 27.425781 C 18.52396 27.438023 18.541892 27.44159 18.554688 27.453125 C 18.566222 27.46592 18.56979 27.483852 18.582031 27.496094 C 18.593883 27.507945 18.610676 27.512248 18.623047 27.523438 C 18.634236 27.535808 18.638539 27.552602 18.650391 27.564453 C 18.662242 27.576305 18.679035 27.580608 18.691406 27.591797 C 18.702595 27.604168 18.706899 27.620961 18.71875 27.632812 C 18.730211 27.644274 18.745865 27.649314 18.757812 27.660156 C 18.768654 27.672104 18.773695 27.687758 18.785156 27.699219 C 18.796617 27.71068 18.812272 27.715721 18.824219 27.726562 C 18.835061 27.73851 18.840102 27.754164 18.851562 27.765625 C 18.863023 27.777086 18.878678 27.782127 18.890625 27.792969 C 18.901467 27.804916 18.906508 27.82057 18.917969 27.832031 C 18.929169 27.843231 18.945367 27.846813 18.957031 27.857422 C 18.96764 27.869087 18.971222 27.885284 18.982422 27.896484 C 18.993622 27.907684 19.00982 27.911266 19.021484 27.921875 C 19.032093 27.93354 19.035675 27.949738 19.046875 27.960938 C 19.058075 27.972138 19.074273 27.975719 19.085938 27.986328 C 19.096546 27.997993 19.100128 28.014191 19.111328 28.025391 C 19.122138 28.0362 19.137195 28.040522 19.148438 28.050781 C 19.158697 28.062024 19.163019 28.077081 19.173828 28.087891 C 19.184377 28.098439 19.199976 28.101304 19.210938 28.111328 C 19.220962 28.122289 19.223826 28.137889 19.234375 28.148438 C 19.245139 28.159202 19.26029 28.16361 19.271484 28.173828 C 19.281743 28.185071 19.286065 28.200128 19.296875 28.210938 C 19.307424 28.221486 19.323023 28.22435 19.333984 28.234375 C 19.344009 28.245336 19.346873 28.260936 19.357422 28.271484 C 19.36758 28.281643 19.382037 28.285249 19.392578 28.294922 C 19.40225 28.305463 19.405857 28.31992 19.416016 28.330078 C 19.426564 28.340627 19.442164 28.343491 19.453125 28.353516 C 19.463149 28.364477 19.466014 28.380076 19.476562 28.390625 C 19.485679 28.399742 19.498387 28.403384 19.507812 28.412109 C 19.518031 28.423303 19.522439 28.438454 19.533203 28.449219 C 19.543739 28.459754 19.559365 28.462644 19.570312 28.472656 C 19.579394 28.482499 19.58229 28.496353 19.591797 28.505859 C 19.601565 28.515627 19.614877 28.519978 19.625 28.529297 C 19.634319 28.539419 19.63867 28.552732 19.648438 28.5625 C 19.658205 28.572268 19.671518 28.576619 19.681641 28.585938 C 19.690959 28.59606 19.69531 28.609373 19.705078 28.619141 C 19.714585 28.628648 19.728438 28.631543 19.738281 28.640625 C 19.747363 28.650468 19.750259 28.664321 19.759766 28.673828 C 19.769273 28.683335 19.783126 28.686231 19.792969 28.695312 C 19.80205 28.705155 19.804946 28.719009 19.814453 28.728516 C 19.82396 28.738023 19.837813 28.740918 19.847656 28.75 C 19.856702 28.759801 19.859673 28.773735 19.869141 28.783203 C 19.878257 28.79232 19.890965 28.795962 19.900391 28.804688 C 19.909116 28.814113 19.912759 28.826821 19.921875 28.835938 C 19.930991 28.845054 19.943699 28.848696 19.953125 28.857422 C 19.961816 28.866807 19.965531 28.879594 19.974609 28.888672 C 19.983465 28.897527 19.996712 28.899716 20.005859 28.908203 C 20.014346 28.917351 20.016535 28.930598 20.025391 28.939453 C 20.034246 28.948309 20.047493 28.950498 20.056641 28.958984 C 20.065127 28.968132 20.067316 28.981379 20.076172 28.990234 C 20.085027 28.99909 20.098274 29.001279 20.107422 29.009766 C 20.115908 29.018913 20.118098 29.03216 20.126953 29.041016 C 20.135418 29.049481 20.147518 29.052419 20.15625 29.060547 C 20.164378 29.069279 20.167316 29.081379 20.175781 29.089844 C 20.184246 29.098309 20.196346 29.101247 20.205078 29.109375 C 20.213206 29.118107 20.216144 29.130207 20.224609 29.138672 C 20.232684 29.146747 20.243635 29.150435 20.251953 29.158203 C 20.259721 29.166521 20.26341 29.177472 20.271484 29.185547 C 20.278908 29.19297 20.289246 29.19596 20.296875 29.203125 C 20.305566 29.21251 20.309281 29.225297 20.318359 29.234375 C 20.327179 29.243195 20.3405 29.245453 20.349609 29.253906 C 20.356531 29.261261 20.358072 29.272134 20.365234 29.279297 C 20.373309 29.287372 20.38426 29.29106 20.392578 29.298828 C 20.400346 29.307146 20.404035 29.318097 20.412109 29.326172 C 20.419923 29.333986 20.431411 29.336223 20.439453 29.34375 C 20.44698 29.351792 20.449217 29.36328 20.457031 29.371094 C 20.464455 29.378517 20.474792 29.381507 20.482422 29.388672 C 20.489586 29.396301 20.492577 29.406639 20.5 29.414062 C 20.506772 29.420835 20.516494 29.423131 20.523438 29.429688 C 20.531533 29.438383 20.534539 29.450554 20.542969 29.458984 C 20.551009 29.467025 20.562031 29.470779 20.570312 29.478516 C 20.576503 29.48505 20.579556 29.493618 20.585938 29.5 C 20.593361 29.507424 20.603699 29.510414 20.611328 29.517578 C 20.618493 29.525208 20.621483 29.535545 20.628906 29.542969 C 20.636069 29.550131 20.646943 29.551672 20.654297 29.558594 C 20.661218 29.565948 20.662759 29.576822 20.669922 29.583984 C 20.677084 29.591147 20.687958 29.592688 20.695312 29.599609 C 20.702234 29.606964 20.703775 29.617838 20.710938 29.625 C 20.71771 29.631772 20.727431 29.634068 20.734375 29.640625 C 20.740932 29.647569 20.743228 29.65729 20.75 29.664062 C 20.756772 29.670835 20.766494 29.673131 20.773438 29.679688 C 20.779994 29.686631 20.78229 29.696353 20.789062 29.703125 C 20.795835 29.709897 20.805556 29.712193 20.8125 29.71875 C 20.819057 29.725694 20.821353 29.735415 20.828125 29.742188 C 20.834507 29.748569 20.843075 29.751622 20.849609 29.757812 C 20.8558 29.764347 20.858853 29.772915 20.865234 29.779297 C 20.871616 29.785679 20.880184 29.788731 20.886719 29.794922 C 20.892909 29.801456 20.895962 29.810024 20.902344 29.816406 C 20.908465 29.822527 20.917567 29.824133 20.923828 29.830078 C 20.929773 29.836339 20.931379 29.845442 20.9375 29.851562 C 20.943621 29.857683 20.952723 29.859289 20.958984 29.865234 C 20.964929 29.871496 20.966535 29.880598 20.972656 29.886719 C 20.978777 29.89284 20.987879 29.894446 20.994141 29.900391 C 21.000086 29.906652 21.001692 29.915754 21.007812 29.921875 C 21.013543 29.927606 21.02149 29.929971 21.027344 29.935547 C 21.03292 29.941401 21.035285 29.949348 21.041016 29.955078 C 21.046746 29.960809 21.054693 29.963174 21.060547 29.96875 C 21.066123 29.974604 21.068488 29.982551 21.074219 29.988281 C 21.078908 29.99297 21.085072 29.995414 21.089844 30 C 21.096009 30.006506 21.099114 30.01513 21.105469 30.021484 C 21.111823 30.027839 21.120447 30.030944 21.126953 30.037109 C 21.131539 30.041881 21.133983 30.048046 21.138672 30.052734 C 21.143751 30.057814 21.151074 30.059495 21.15625 30.064453 C 21.161208 30.069629 21.16289 30.076952 21.167969 30.082031 C 21.173416 30.087479 21.181941 30.088442 21.1875 30.09375 C 21.192829 30.099332 21.193749 30.107812 21.199219 30.113281 C 21.204298 30.11836 21.211621 30.120042 21.216797 30.125 C 21.221755 30.130176 21.223437 30.137499 21.228516 30.142578 C 21.232553 30.146616 21.238089 30.148383 21.242188 30.152344 C 21.247741 30.158172 21.250153 30.166169 21.255859 30.171875 C 21.261566 30.177581 21.269562 30.179993 21.275391 30.185547 C 21.279352 30.189646 21.281119 30.195181 21.285156 30.199219 C 21.289845 30.203908 21.29601 30.206352 21.300781 30.210938 C 21.305367 30.215709 21.307811 30.221874 21.3125 30.226562 C 21.316928 30.23099 21.323623 30.231992 21.328125 30.236328 C 21.332461 30.24083 21.333463 30.247525 21.337891 30.251953 C 21.342318 30.256381 21.349014 30.257383 21.353516 30.261719 C 21.357851 30.26622 21.358854 30.272916 21.363281 30.277344 C 21.367709 30.281772 21.374405 30.282773 21.378906 30.287109 C 21.383242 30.291611 21.384244 30.298307 21.388672 30.302734 C 21.392709 30.306772 21.398245 30.308539 21.402344 30.3125 C 21.406305 30.316599 21.408072 30.322134 21.412109 30.326172 C 21.416147 30.330209 21.421682 30.331976 21.425781 30.335938 C 21.429742 30.340036 21.431509 30.345572 21.435547 30.349609 C 21.439584 30.353647 21.44512 30.355414 21.449219 30.359375 C 21.45318 30.363474 21.454947 30.369009 21.458984 30.373047 C 21.462761 30.376823 21.468826 30.37715 21.472656 30.380859 C 21.476366 30.38469 21.476692 30.390755 21.480469 30.394531 C 21.484245 30.398308 21.49031 30.398634 21.494141 30.402344 C 21.49785 30.406174 21.498177 30.412239 21.501953 30.416016 C 21.505339 30.419402 21.510243 30.420496 21.513672 30.423828 C 21.517004 30.427257 21.518098 30.432161 21.521484 30.435547 C 21.524219 30.438282 21.528487 30.438707 21.53125 30.441406 C 21.535569 30.445889 21.536606 30.452622 21.541016 30.457031 C 21.545036 30.461052 21.550606 30.462852 21.554688 30.466797 C 21.557006 30.469162 21.558202 30.472265 21.560547 30.474609 C 21.562891 30.476954 21.565994 30.47815 21.568359 30.480469 C 21.572304 30.48455 21.574105 30.49012 21.578125 30.494141 C 21.581886 30.497902 21.587982 30.498258 21.591797 30.501953 C 21.59386 30.504053 21.59362 30.507682 21.595703 30.509766 C 21.598699 30.512761 21.602439 30.514624 21.605469 30.517578 C 21.608422 30.520608 21.610286 30.524348 21.613281 30.527344 C 21.616016 30.530079 21.620284 30.530503 21.623047 30.533203 C 21.625747 30.535966 21.626172 30.540234 21.628906 30.542969 C 21.631641 30.545704 21.635909 30.546128 21.638672 30.548828 C 21.641372 30.551591 21.641797 30.555859 21.644531 30.558594 C 21.646876 30.560938 21.649979 30.562134 21.652344 30.564453 C 21.654662 30.566818 21.655859 30.569921 21.658203 30.572266 C 21.660548 30.57461 21.66365 30.575806 21.666016 30.578125 C 21.668334 30.58049 21.669531 30.583593 21.671875 30.585938 C 21.674219 30.588282 21.677322 30.589478 21.679688 30.591797 C 21.682006 30.594162 21.683202 30.597265 21.685547 30.599609 C 21.68763 30.601693 21.69126 30.601453 21.693359 30.603516 C 21.695422 30.605615 21.695182 30.609245 21.697266 30.611328 C 21.699349 30.613412 21.702978 30.613171 21.705078 30.615234 C 21.707141 30.617334 21.706901 30.620964 21.708984 30.623047 C 21.711068 30.62513 21.714697 30.62489 21.716797 30.626953 C 21.71886 30.629053 21.71862 30.632682 21.720703 30.634766 C 21.722396 30.636459 21.724859 30.636992 21.726562 30.638672 C 21.728242 30.640376 21.728776 30.642838 21.730469 30.644531 C 21.732162 30.646224 21.734624 30.646758 21.736328 30.648438 C 21.738008 30.650141 21.738541 30.652604 21.740234 30.654297 C 21.741537 30.6556 21.742832 30.656908 21.744141 30.658203 C 21.745435 30.659512 21.746744 30.660807 21.748047 30.662109 C 21.74935 30.663412 21.750644 30.664721 21.751953 30.666016 C 21.753248 30.667325 21.754557 30.668619 21.755859 30.669922 C 21.757162 30.671225 21.758457 30.672533 21.759766 30.673828 C 21.76106 30.675137 21.762369 30.676432 21.763672 30.677734 C 21.764714 30.678776 21.766532 30.678651 21.767578 30.679688 C 21.768615 30.680733 21.76849 30.682552 21.769531 30.683594 C 21.770573 30.684635 21.772392 30.68451 21.773438 30.685547 C 21.774474 30.686593 21.774349 30.688411 21.775391 30.689453 C 21.775391 30.689453 21.777344 30.691406 21.777344 30.691406 C 21.777344 30.691406 21.779297 30.693359 21.779297 30.693359 C 21.779297 30.693359 21.78125 30.695312 21.78125 30.695312 C 21.78125 30.695312 21.783203 30.697266 21.783203 30.697266 C 21.783203 30.697266 21.785156 30.699219 21.785156 30.699219 C 21.785156 30.699219 21.787109 30.701172 21.787109 30.701172 C 21.787109 30.701172 21.789062 30.701172 21.789062 30.701172 C 21.789062 30.701172 21.789062 30.703125 21.789062 30.703125 C 21.790357 30.704434 21.791666 30.705729 21.792969 30.707031 C 21.885435 30.799498 21.995036 30.870191 22.113281 30.919922 C 22.113281 30.919922 22.115234 30.921875 22.115234 30.921875 C 22.236116 30.97233 22.36647 31 22.5 31 L 29.5 31 C 29.765253 31 30.0195 30.894563 30.207031 30.707031 C 30.394569 30.5195 30.499996 30.265215 30.5 30 C 30.500004 29.999996 30.5 23.500006 30.5 23.5 C 30.5 23.234789 30.394563 22.980541 30.207031 22.792969 C 30.205599 22.791536 30.202612 22.792438 30.201172 22.791016 C 30.201172 22.791016 30.201172 22.789062 30.201172 22.789062 C 30.200516 22.788416 30.199876 22.787754 30.199219 22.787109 C 30.199219 22.787109 30.197266 22.785156 30.197266 22.785156 C 30.196225 22.78411 30.194405 22.784245 30.193359 22.783203 C 30.193359 22.783203 30.191406 22.78125 30.191406 22.78125 C 30.191406 22.78125 30.189453 22.779297 30.189453 22.779297 C 30.187767 22.777593 30.185291 22.777081 30.183594 22.775391 C 30.181913 22.773687 30.179426 22.773175 30.177734 22.771484 C 30.176082 22.769803 30.173538 22.769246 30.171875 22.767578 C 30.171875 22.767578 30.169922 22.767578 30.169922 22.767578 C 30.169922 22.767578 30.169922 22.765625 30.169922 22.765625 C 30.167592 22.763245 30.16446 22.76212 30.162109 22.759766 C 30.15978 22.757376 30.156646 22.75627 30.154297 22.753906 C 30.152622 22.75218 30.150123 22.751713 30.148438 22.75 C 30.147421 22.748938 30.147505 22.747152 30.146484 22.746094 C 30.144174 22.743699 30.139049 22.740651 30.136719 22.738281 C 30.133397 22.734819 30.128364 22.733879 30.125 22.730469 C 30.121667 22.726974 30.116656 22.726098 30.113281 22.722656 C 30.109961 22.719152 30.104925 22.718296 30.101562 22.714844 C 30.099921 22.7131 30.097355 22.712669 30.095703 22.710938 C 30.094347 22.709693 30.093159 22.708267 30.091797 22.707031 C 30.091797 22.707031 30.089844 22.705078 30.089844 22.705078 C 30.086559 22.701563 30.081451 22.70073 30.078125 22.697266 C 30.077129 22.696183 30.077172 22.694438 30.076172 22.693359 C 30.067699 22.684225 30.055618 22.680667 30.046875 22.671875 C 30.042338 22.666904 30.035866 22.66503 30.03125 22.660156 C 30.03125 22.660156 30.029297 22.660156 30.029297 22.660156 C 30.022532 22.652703 30.012797 22.649813 30.005859 22.642578 C 30.005859 22.642578 30.003906 22.640625 30.003906 22.640625 C 30.001914 22.638651 30.000052 22.636722 29.998047 22.634766 C 29.992936 22.629015 29.985679 22.62672 29.980469 22.621094 C 29.957525 22.595027 29.92526 22.584023 29.900391 22.560547 C 29.874711 22.537559 29.847709 22.518143 29.820312 22.498047 C 29.81095 22.490331 29.802538 22.481958 29.792969 22.474609 C 29.7702 22.456023 29.748529 22.436297 29.724609 22.419922 C 29.66407 22.365903 29.609331 22.302362 29.541016 22.265625 C 29.541016 22.265625 29.539062 22.263672 29.539062 22.263672 C 29.52969 22.258181 29.523171 22.247315 29.513672 22.242188 C 29.506383 22.23788 29.501506 22.228695 29.494141 22.224609 C 29.485379 22.219282 29.479577 22.208126 29.470703 22.203125 C 29.461655 22.197521 29.456433 22.184938 29.447266 22.179688 C 29.438083 22.173315 29.431193 22.162248 29.421875 22.15625 C 29.421875 22.15625 29.419922 22.154297 29.419922 22.154297 C 29.410948 22.148556 29.403624 22.138196 29.394531 22.132812 C 29.385251 22.12676 29.378547 22.115039 29.369141 22.109375 C 29.35744 22.10157 29.34784 22.089208 29.335938 22.082031 C 29.327178 22.076145 29.31942 22.062171 29.310547 22.056641 C 29.299477 22.04905 29.290547 22.036308 29.279297 22.029297 C 29.269038 22.022142 29.260414 22.010556 29.25 22.003906 C 29.238202 21.995508 29.228801 21.982327 29.216797 21.974609 C 29.206536 21.967221 29.197916 21.956085 29.1875 21.949219 C 29.174832 21.939855 29.165251 21.924567 29.152344 21.916016 C 29.141525 21.907946 29.132086 21.89614 29.121094 21.888672 C 29.108102 21.878721 29.097228 21.864534 29.083984 21.855469 C 29.0717 21.845997 29.061335 21.832886 29.048828 21.824219 C 29.037381 21.81523 29.027266 21.8032 29.015625 21.794922 C 29.002956 21.784703 28.993378 21.769097 28.980469 21.759766 C 28.966623 21.748423 28.953584 21.734869 28.939453 21.724609 C 28.926644 21.714007 28.915395 21.701066 28.902344 21.691406 C 28.888893 21.68006 28.877001 21.666536 28.863281 21.65625 C 28.850669 21.645412 28.839021 21.632936 28.826172 21.623047 C 28.810738 21.60949 28.797037 21.594132 28.78125 21.582031 C 28.769372 21.57154 28.758181 21.560398 28.746094 21.550781 C 28.730866 21.536885 28.716745 21.522188 28.701172 21.509766 C 28.685868 21.495677 28.6719 21.481318 28.65625 21.46875 C 28.643825 21.457182 28.631794 21.446097 28.619141 21.435547 C 28.603469 21.420476 28.588303 21.405989 28.572266 21.392578 C 28.556493 21.377266 28.541531 21.363201 28.525391 21.349609 C 28.510597 21.335078 28.495585 21.323534 28.480469 21.310547 C 28.465199 21.295208 28.451161 21.281236 28.435547 21.267578 C 28.420355 21.252057 28.404205 21.240383 28.388672 21.226562 C 28.37292 21.210179 28.357915 21.196154 28.341797 21.181641 C 28.32574 21.164652 28.309406 21.151719 28.292969 21.136719 C 28.276237 21.118745 28.25933 21.105605 28.242188 21.089844 C 28.226773 21.073075 28.209122 21.06368 28.193359 21.048828 C 28.176766 21.030306 28.161531 21.016247 28.144531 21 C 28.127013 20.980158 28.107812 20.968412 28.089844 20.951172 C 28.073955 20.932971 28.057275 20.922266 28.041016 20.90625 C 28.023054 20.885159 28.004763 20.871738 27.986328 20.853516 C 27.969483 20.83356 27.950853 20.824015 27.933594 20.806641 C 27.922234 20.792905 27.90999 20.785991 27.898438 20.773438 C 27.8926 20.768283 27.886735 20.762643 27.880859 20.757812 C 27.878292 20.754643 27.875625 20.753109 27.873047 20.75 C 27.83966 20.716668 27.806105 20.678228 27.771484 20.65625 C 27.753652 20.641159 27.736899 20.61724 27.71875 20.605469 C 27.700989 20.590115 27.682139 20.566666 27.664062 20.554688 C 27.645399 20.53828 27.628385 20.514528 27.609375 20.501953 C 27.590885 20.485373 27.573519 20.461943 27.554688 20.449219 C 27.534197 20.430395 27.515049 20.406524 27.494141 20.392578 C 27.476411 20.376248 27.45945 20.354393 27.441406 20.341797 C 27.421077 20.322309 27.401604 20.297642 27.380859 20.283203 C 27.361338 20.26441 27.342167 20.242525 27.322266 20.228516 C 27.301916 20.208467 27.282483 20.184627 27.261719 20.169922 C 27.241642 20.149913 27.22165 20.127947 27.201172 20.113281 C 27.180755 20.092578 27.161458 20.069708 27.140625 20.054688 C 27.119897 20.03327 27.099282 20.011491 27.078125 19.996094 C 27.057056 19.973943 27.037136 19.951301 27.015625 19.935547 C 26.994238 19.912633 26.973015 19.891138 26.951172 19.875 C 26.931036 19.853168 26.911166 19.832078 26.890625 19.816406 C 26.868612 19.791769 26.846718 19.769007 26.824219 19.751953 C 26.802725 19.727778 26.78172 19.706186 26.759766 19.689453 C 26.737271 19.663641 26.714405 19.642412 26.691406 19.625 C 26.670352 19.600544 26.648451 19.581363 26.626953 19.564453 C 26.60425 19.537294 26.581814 19.516163 26.558594 19.498047 C 26.535068 19.469583 26.512357 19.448127 26.488281 19.429688 C 26.466276 19.402881 26.444363 19.383034 26.421875 19.365234 C 26.398841 19.336573 26.375124 19.317313 26.351562 19.298828 C 26.328212 19.269241 26.305143 19.249283 26.28125 19.230469 C 26.257612 19.199953 26.233178 19.181255 26.208984 19.162109 C 26.1857 19.131657 26.162497 19.112843 26.138672 19.09375 C 26.115731 19.063145 26.091827 19.044658 26.068359 19.025391 C 26.043417 18.991265 26.017752 18.971435 25.992188 18.951172 C 25.967349 18.917143 25.941463 18.900682 25.916016 18.880859 C 25.892459 18.848019 25.869813 18.83027 25.845703 18.810547 C 25.820754 18.774767 25.795103 18.756917 25.769531 18.736328 C 25.744651 18.700185 25.718857 18.682668 25.693359 18.662109 C 25.66779 18.624461 25.641453 18.608518 25.615234 18.587891 C 25.589951 18.550143 25.564981 18.53426 25.539062 18.513672 C 25.512699 18.473472 25.486036 18.456454 25.458984 18.435547 C 25.433912 18.396983 25.40851 18.381928 25.382812 18.361328 C 25.356688 18.32028 25.329537 18.304075 25.302734 18.283203 C 25.276688 18.241706 25.249376 18.225865 25.222656 18.205078 C 25.195637 18.161129 25.168367 18.145886 25.140625 18.125 C 25.114146 18.081491 25.08772 18.065563 25.060547 18.044922 C 25.033965 18.000501 25.005798 17.987402 24.978516 17.966797 C 24.951459 17.920683 24.924267 17.905359 24.896484 17.884766 C 24.868735 17.836662 24.839058 17.821075 24.810547 17.800781 C 24.78288 17.752334 24.754983 17.738587 24.726562 17.71875 C 24.698994 17.669728 24.670897 17.656364 24.642578 17.636719 C 24.61347 17.583795 24.582674 17.567733 24.552734 17.548828 C 24.552734 17.548828 24.552734 17.546875 24.552734 17.546875 C 24.52907 17.50411 24.504698 17.496381 24.480469 17.476562 C 24.476733 17.472036 24.473883 17.467366 24.46875 17.462891 C 24.461425 17.449345 24.454652 17.4489 24.447266 17.4375 C 24.447266 17.4375 24.445312 17.4375 24.445312 17.4375 C 24.4304 17.414699 24.415513 17.407873 24.400391 17.394531 C 24.388694 17.378833 24.380487 17.364671 24.353516 17.349609 C 24.344305 17.335988 24.335464 17.332194 24.326172 17.322266 C 24.316224 17.300168 24.296713 17.278708 24.257812 17.257812 C 24.257812 17.228246 24.222179 17.199465 24.171875 17.171875 C 24.171875 17.141198 24.135912 17.11256 24.083984 17.083984 C 24.082589 17.053203 24.047636 17.02282 23.996094 16.994141 C 23.99394 16.963012 23.957652 16.935251 23.90625 16.90625 C 23.903508 16.874284 23.868941 16.844194 23.816406 16.814453 C 23.811702 16.782491 23.77699 16.752396 23.724609 16.722656 C 23.717832 16.691516 23.684996 16.659893 23.634766 16.630859 C 23.627316 16.598958 23.594159 16.566817 23.542969 16.537109 C 23.534735 16.504525 23.501221 16.47367 23.449219 16.443359 C 23.439385 16.411687 23.407014 16.381093 23.357422 16.351562 C 23.347582 16.318642 23.314768 16.284542 23.263672 16.253906 C 23.252729 16.221251 23.219879 16.190574 23.169922 16.160156 C 23.158655 16.126103 23.126179 16.094142 23.074219 16.0625 C 23.061772 16.028736 23.029398 15.996245 22.978516 15.964844 C 22.964845 15.930925 22.931733 15.898724 22.880859 15.867188 C 22.866564 15.833368 22.835039 15.800999 22.785156 15.769531 C 22.770604 15.735246 22.737254 15.703769 22.6875 15.671875 C 22.672272 15.636354 22.639352 15.601328 22.587891 15.568359 C 22.57133 15.533633 22.538101 15.501031 22.488281 15.46875 C 22.47159 15.433223 22.438868 15.400184 22.388672 15.367188 C 22.370853 15.330944 22.338341 15.295329 22.287109 15.261719 C 22.268652 15.226634 22.236122 15.192778 22.1875 15.160156 C 22.168658 15.124005 22.135561 15.088246 22.085938 15.054688 C 22.066363 15.018542 22.031568 14.984731 21.982422 14.951172 C 21.962611 14.914616 21.92979 14.879635 21.880859 14.845703 C 21.860487 14.808569 21.826594 14.77272 21.777344 14.738281 C 21.756363 14.700671 21.721319 14.665714 21.671875 14.630859 C 21.65016 14.593153 21.615602 14.556421 21.566406 14.521484 C 21.544089 14.483551 21.50803 14.447245 21.458984 14.412109 C 21.436289 14.374482 21.401519 14.337614 21.353516 14.302734 C 21.330375 14.264405 21.294483 14.226898 21.246094 14.191406 C 21.222057 14.152343 21.185905 14.114237 21.136719 14.078125 C 21.112637 14.039851 21.07665 14.004197 21.029297 13.96875 C 21.004569 13.92885 20.966982 13.890362 20.917969 13.853516 C 20.893056 13.81468 20.85761 13.77617 20.810547 13.740234 C 20.785268 13.700542 20.746753 13.663633 20.699219 13.626953 C 20.672953 13.58563 20.635323 13.545873 20.585938 13.507812 C 20.560058 13.468603 20.52253 13.430793 20.476562 13.394531 C 20.450084 13.353452 20.410949 13.31326 20.363281 13.275391 C 20.334342 13.231397 20.29032 13.188701 20.238281 13.148438 C 20.20979 13.107861 20.172428 13.068603 20.125 13.03125 C 20.095697 12.988798 20.05506 12.949097 20.005859 12.910156 C 19.976875 12.868823 19.937794 12.829012 19.890625 12.791016 C 19.860975 12.748543 19.819572 12.708872 19.771484 12.669922 C 19.741705 12.6273 19.701946 12.58595 19.654297 12.546875 C 19.624086 12.503396 19.581291 12.46362 19.533203 12.423828 C 19.503536 12.381382 19.462126 12.343618 19.416016 12.304688 C 19.385578 12.260178 19.342731 12.2184 19.294922 12.177734 C 19.264248 12.132999 19.221379 12.093576 19.173828 12.052734 C 19.143126 12.00793 19.099737 11.966675 19.052734 11.925781 C 19.021575 11.880188 18.97707 11.838409 18.929688 11.796875 C 18.898773 11.751718 18.852895 11.71304 18.806641 11.671875 C 18.775279 11.625305 18.730652 11.583355 18.683594 11.541016 C 18.651672 11.493674 18.604144 11.453099 18.556641 11.410156 C 18.525752 11.364622 18.480377 11.324652 18.435547 11.283203 C 18.403368 11.234623 18.355994 11.192384 18.308594 11.148438 C 18.27677 11.10057 18.227719 11.06092 18.181641 11.017578 C 18.149784 10.969389 18.10242 10.928356 18.056641 10.884766 C 18.024335 10.83537 17.974118 10.794554 17.927734 10.75 C 17.896117 10.70144 17.847506 10.661059 17.802734 10.617188 C 17.770136 10.566216 17.718401 10.524321 17.671875 10.478516 C 17.639021 10.4273 17.587415 10.385787 17.541016 10.339844 C 17.508917 10.289728 17.45676 10.250117 17.412109 10.205078 C 17.37935 10.152947 17.327089 10.111093 17.28125 10.064453 C 17.248796 10.012618 17.195346 9.9721497 17.150391 9.9257812 C 17.117422 9.8726533 17.063212 9.8305503 17.017578 9.7832031 C 16.985103 9.7306214 16.931208 9.689458 16.886719 9.6425781 C 16.821542 9.5356762 16.728558 9.4402247 16.621094 9.359375 C 16.578583 9.3134521 16.54506 9.2580124 16.494141 9.21875 C 16.44967 9.1694227 16.41328 9.1158878 16.359375 9.0742188 C 16.314859 9.0241653 16.278652 8.9698402 16.224609 8.9277344 C 16.180549 8.8776635 16.143286 8.8252355 16.089844 8.7832031 C 16.046674 8.733335 16.009376 8.6824897 15.957031 8.640625 C 15.913929 8.5896358 15.876752 8.5367852 15.824219 8.4941406 C 15.781259 8.4423342 15.742006 8.3908248 15.689453 8.3476562 C 15.645696 8.2938288 15.604731 8.241728 15.550781 8.1972656 C 15.508136 8.1442039 15.468495 8.0926937 15.416016 8.0488281 C 15.229456 7.8120778 14.949873 7.6484374 14.628906 7.6484375 C 14.628906 7.6456057 13.782511 7.6410316 13.205078 7.6386719 C 13.185123 7.6186578 13.169632 7.5951013 13.148438 7.5761719 C 13.143166 7.5714635 13.136191 7.5690783 13.130859 7.5644531 C 13.092912 7.5208737 13.058886 7.4747358 13.015625 7.4355469 C 13.007264 7.4279731 12.996794 7.4233788 12.988281 7.4160156 C 12.952781 7.3753296 12.921002 7.3318049 12.880859 7.2949219 C 12.870485 7.2853899 12.858269 7.2787369 12.847656 7.2695312 C 12.813942 7.2307839 12.784014 7.1896344 12.746094 7.1542969 C 12.732723 7.1418365 12.716898 7.1330085 12.703125 7.1210938 C 12.671854 7.085221 12.644257 7.0466416 12.609375 7.0136719 C 12.597141 7.002109 12.58289 6.9935258 12.570312 6.9824219 C 12.538421 6.9451028 12.510358 6.9053627 12.474609 6.8710938 C 12.457737 6.8549197 12.437456 6.8434195 12.419922 6.828125 C 12.391509 6.7951813 12.367376 6.759081 12.335938 6.7285156 C 12.320148 6.7131651 12.301538 6.7020764 12.285156 6.6875 C 12.256101 6.6531343 12.231524 6.6158379 12.199219 6.5839844 C 11.916758 6.3054718 11.53534 6.1495491 11.138672 6.1523438 z "
       transform="matrix(0.9375,0,0,0.9375,-1.8749779,2.4708283)"
       id="path1883"
       clip-path="url(#clipPath2751)" />
    <path
       style="fill:#ffc107;stroke:none;stroke-width:0.9375px;stroke-linecap:butt;stroke-linejoin:miter;stroke-opacity:1"
       d="M 4.6875223,9.9708273 V 16.533327 H 12.187522 V 9.9708273 Z"
       id="path2765"
       inkscape:connector-curvature="0" />
    <path
       style="display:inline;fill:#f5f5f5;stroke-width:0.93749988"
       id="path7188"
       d="m 6.0937721,11.377078 v -0.9375 H 5.1562722 v 6.09375 h 6.5624998 v -6.09375 h -0.9375 v 0.9375 H 6.0937721 m 0.9375,-1.8749997 a 1.40625,1.40625 0 0 1 1.40625,-1.40625 1.40625,1.40625 0 0 1 1.4062502,1.40625 h 1.8749997 a 0.93749991,0.93749991 0 0 1 0.9375,0.9374997 v 6.09375 a 0.93749991,0.93749991 0 0 1 -0.9375,0.9375 H 5.1562722 a 0.93749991,0.93749991 0 0 1 -0.9375,-0.9375 v -6.09375 a 0.93749991,0.93749991 0 0 1 0.9375,-0.9374997 h 1.8749999 m 1.40625,-0.46875 a 0.46874997,0.46874997 0 0 0 -0.4687501,0.46875 0.46874997,0.46874997 0 0 0 0.4687501,0.46875 0.46874997,0.46874997 0 0 0 0.4687503,-0.46875 0.46874997,0.46874997 0 0 0 -0.4687503,-0.46875 z"
       inkscape:connector-curvature="0"
       clip-path="url(#clipPath2759)" />
    <path
       inkscape:connector-curvature="0"
       d="m 20.156272,25.439578 v -0.9375 h -0.9375 v 6.09375 h 6.5625 v -6.09375 h -0.9375 v 0.9375 h -4.6875 m 0.9375,-1.875 a 1.40625,1.40625 0 0 1 1.40625,-1.40625 1.40625,1.40625 0 0 1 1.40625,1.40625 h 1.875 a 0.93749991,0.93749991 0 0 1 0.9375,0.9375 v 6.09375 a 0.93749991,0.93749991 0 0 1 -0.9375,0.9375 h -6.5625 a 0.93749991,0.93749991 0 0 1 -0.9375,-0.9375 v -6.09375 a 0.93749991,0.93749991 0 0 1 0.9375,-0.9375 h 1.875 m 1.40625,-0.46875 a 0.46874997,0.46874997 0 0 0 -0.46875,0.46875 0.46874997,0.46874997 0 0 0 0.46875,0.46875 0.46874997,0.46874997 0 0 0 0.46875,-0.46875 0.46874997,0.46874997 0 0 0 -0.46875,-0.46875 z"
       id="path1821"
       style="display:inline;fill:#212121;stroke-width:0.93749988"
       clip-path="url(#clipPath2755)" />
  </g>
</svg>
