<?xml version="1.0" encoding="UTF-8" standalone="no"?>
<!-- Created with Inkscape (http://www.inkscape.org/) -->

<svg
   xmlns:dc="http://purl.org/dc/elements/1.1/"
   xmlns:cc="http://creativecommons.org/ns#"
   xmlns:rdf="http://www.w3.org/1999/02/22-rdf-syntax-ns#"
   xmlns:svg="http://www.w3.org/2000/svg"
   xmlns="http://www.w3.org/2000/svg"
   xmlns:xlink="http://www.w3.org/1999/xlink"
   xmlns:sodipodi="http://sodipodi.sourceforge.net/DTD/sodipodi-0.dtd"
   xmlns:inkscape="http://www.inkscape.org/namespaces/inkscape"
   width="5.6444445mm"
   height="5.6444445mm"
   viewBox="0 0 20 20"
   id="svg2"
   version="1.1"
   inkscape:version="0.91 r13725"
   sodipodi:docname="Adawy.svg"
   inkscape:export-filename="/home/juergen/Schreibtisch/Icons/Email.svg.png"
   inkscape:export-xdpi="648"
   inkscape:export-ydpi="648">
  <sodipodi:namedview
     id="base"
     pagecolor="#ffffff"
     bordercolor="#666666"
     borderopacity="1.0"
     inkscape:pageopacity="0.0"
     inkscape:pageshadow="2"
     inkscape:zoom="11.2"
     inkscape:cx="15.669643"
     inkscape:cy="13.777748"
     inkscape:document-units="px"
     inkscape:current-layer="layer2"
     showgrid="false"
     fit-margin-top="0"
     fit-margin-left="0"
     fit-margin-right="0"
     fit-margin-bottom="0"
     showguides="true"
     inkscape:guide-bbox="true"
     inkscape:window-width="1366"
     inkscape:window-height="726"
     inkscape:window-x="0"
     inkscape:window-y="0"
     inkscape:window-maximized="1"
     inkscape:snap-grids="true"
     inkscape:snap-to-guides="true"
     inkscape:snap-page="false">
    <inkscape:grid
       id="grid4138"
       type="xygrid" />
    <sodipodi:guide
       id="guide4140"
       orientation="0,1"
       position="10,18" />
    <sodipodi:guide
       id="guide4142"
       orientation="0,1"
       position="10,2" />
    <sodipodi:guide
       id="guide4144"
       orientation="1,0"
       position="2,10" />
    <sodipodi:guide
       id="guide4146"
       orientation="0,20"
       position="0,0" />
    <sodipodi:guide
       id="guide4148"
       orientation="-20,0"
       position="20,0" />
    <sodipodi:guide
       id="guide4150"
       orientation="0,-20"
       position="20,20" />
    <sodipodi:guide
       id="guide4152"
       orientation="20,0"
       position="0,20" />
    <sodipodi:guide
       id="guide4154"
       orientation="1,0"
       position="18,10" />
    <sodipodi:guide
       id="guide4156"
       orientation="-0.70710678,0.70710678"
       position="10,10" />
    <sodipodi:guide
       id="guide4160"
       orientation="1,0"
       position="4,10" />
    <sodipodi:guide
       id="guide4162"
       orientation="1,0"
       position="16,10" />
    <sodipodi:guide
       id="guide4164"
       orientation="0,1"
       position="10,16" />
    <sodipodi:guide
       id="guide4166"
       orientation="0,1"
       position="10,4" />
    <sodipodi:guide
       id="guide4168"
       orientation="0,1"
       position="10,15" />
    <sodipodi:guide
       id="guide4170"
       orientation="0,1"
       position="10,5" />
    <sodipodi:guide
       id="guide4172"
       orientation="1,0"
       position="5,10" />
    <sodipodi:guide
       id="guide4174"
       orientation="1,0"
       position="15,10" />
  </sodipodi:namedview>
  <defs
     id="defs4">
    <linearGradient
       inkscape:collect="always"
       id="linearGradient8137">
      <stop
         style="stop-color:#000000;stop-opacity:1;"
         offset="0"
         id="stop8139" />
      <stop
         style="stop-color:#000000;stop-opacity:0;"
         offset="1"
         id="stop8141" />
    </linearGradient>
    <clipPath
       clipPathUnits="userSpaceOnUse"
       id="clipPath12478">
      <circle
         style="opacity:1;fill:#2196f3;fill-opacity:1;stroke:none;stroke-width:0.05069799;stroke-miterlimit:4;stroke-dasharray:none;stroke-opacity:1"
         id="circle12480"
         cx="9.9999781"
         cy="10.000005"
         r="10" />
    </clipPath>
    <clipPath
       id="clipPath5790"
       clipPathUnits="userSpaceOnUse">
      <circle
         inkscape:export-ydpi="648"
         inkscape:export-xdpi="648"
         inkscape:export-filename="/home/juergen/path4136.png"
         style="opacity:1;fill:#2196f3;fill-opacity:1;stroke:none;stroke-width:0.05069799;stroke-miterlimit:4;stroke-dasharray:none;stroke-opacity:1"
         id="circle5792"
         cx="9.9999781"
         cy="10.000005"
         r="10" />
    </clipPath>
    <clipPath
       clipPathUnits="userSpaceOnUse"
       id="clipPath5055">
      <circle
         inkscape:export-ydpi="648"
         inkscape:export-xdpi="648"
         inkscape:export-filename="/home/juergen/path4136.png"
         style="opacity:1;fill:#2196f3;fill-opacity:1;stroke:none;stroke-width:0.05069799;stroke-miterlimit:4;stroke-dasharray:none;stroke-opacity:1"
         id="circle5057"
         cx="9.9999781"
         cy="10.000005"
         r="10" />
    </clipPath>
    <clipPath
       id="clipPath5119"
       clipPathUnits="userSpaceOnUse">
      <circle
         inkscape:export-ydpi="648"
         inkscape:export-xdpi="648"
         inkscape:export-filename="/home/juergen/Schreibtisch/path4136.png"
         style="opacity:1;fill:#2196f3;fill-opacity:1;stroke:none;stroke-width:0.05069799;stroke-miterlimit:4;stroke-dasharray:none;stroke-opacity:1"
         id="circle5121"
         cx="9.9999781"
         cy="10.000005"
         r="10" />
    </clipPath>
    <clipPath
       clipPathUnits="userSpaceOnUse"
       id="clipPath5194">
      <circle
         inkscape:export-ydpi="648"
         inkscape:export-xdpi="648"
         inkscape:export-filename="/home/juergen/Schreibtisch/path4136.png"
         style="opacity:1;fill:#cddc39;fill-opacity:1;stroke:none;stroke-width:0.05069799;stroke-miterlimit:4;stroke-dasharray:none;stroke-opacity:1"
         id="circle5196"
         cx="9.9999781"
         cy="10.000005"
         r="10" />
    </clipPath>
    <clipPath
       id="clipPath6175"
       clipPathUnits="userSpaceOnUse">
      <circle
         inkscape:export-ydpi="648"
         inkscape:export-xdpi="648"
         inkscape:export-filename="/home/juergen/Schreibtisch/path4136.png"
         style="opacity:1;fill:#f44336;fill-opacity:1;stroke:none;stroke-width:0.05069799;stroke-miterlimit:4;stroke-dasharray:none;stroke-opacity:1"
         id="circle6177"
         cx="9.9999781"
         cy="10.000005"
         r="10" />
    </clipPath>
    <clipPath
       clipPathUnits="userSpaceOnUse"
       id="clipPath7176">
      <circle
         inkscape:export-ydpi="648"
         inkscape:export-xdpi="648"
         inkscape:export-filename="/home/juergen/Schreibtisch/path4136.png"
         style="opacity:1;fill:#9c27b0;fill-opacity:1;stroke:none;stroke-width:0.05069799;stroke-miterlimit:4;stroke-dasharray:none;stroke-opacity:1"
         id="circle7178"
         cx="9.9999781"
         cy="10.000005"
         r="10" />
    </clipPath>
    <clipPath
       id="clipPath8165"
       clipPathUnits="userSpaceOnUse">
      <circle
         inkscape:export-ydpi="648"
         inkscape:export-xdpi="648"
         inkscape:export-filename="/home/juergen/Schreibtisch/path4136.png"
         style="opacity:1;fill:#ffc107;fill-opacity:1;stroke:none;stroke-width:0.05069799;stroke-miterlimit:4;stroke-dasharray:none;stroke-opacity:1"
         id="circle8167"
         cx="9.9999781"
         cy="10.000005"
         r="10" />
    </clipPath>
    <clipPath
       clipPathUnits="userSpaceOnUse"
       id="clipPath9162">
      <circle
         inkscape:export-ydpi="648"
         inkscape:export-xdpi="648"
         inkscape:export-filename="/home/juergen/Schreibtisch/path4136.png"
         style="opacity:1;fill:#ff9800;fill-opacity:1;stroke:none;stroke-width:0.05069799;stroke-miterlimit:4;stroke-dasharray:none;stroke-opacity:1"
         id="circle9164"
         cx="9.9999781"
         cy="10.000005"
         r="10" />
    </clipPath>
    <clipPath
       id="clipPath5147"
       clipPathUnits="userSpaceOnUse">
      <circle
         inkscape:export-ydpi="648"
         inkscape:export-xdpi="648"
         inkscape:export-filename="/home/juergen/Schreibtisch/path4136.png"
         style="opacity:1;fill:#ff9800;fill-opacity:1;stroke:none;stroke-width:0.05069799;stroke-miterlimit:4;stroke-dasharray:none;stroke-opacity:1"
         id="circle5149"
         cx="9.9999781"
         cy="10.000005"
         r="10" />
    </clipPath>
    <clipPath
       clipPathUnits="userSpaceOnUse"
       id="clipPath6144">
      <circle
         inkscape:export-ydpi="648"
         inkscape:export-xdpi="648"
         inkscape:export-filename="/home/juergen/Schreibtisch/path4136.png"
         style="opacity:1;fill:#e91e63;fill-opacity:1;stroke:none;stroke-width:0.05069799;stroke-miterlimit:4;stroke-dasharray:none;stroke-opacity:1"
         id="circle6146"
         cx="9.9999781"
         cy="10.000005"
         r="10" />
    </clipPath>
    <clipPath
       id="clipPath7143"
       clipPathUnits="userSpaceOnUse">
      <circle
         inkscape:export-ydpi="648"
         inkscape:export-xdpi="648"
         inkscape:export-filename="/home/juergen/Schreibtisch/path4136.png"
         style="opacity:1;fill:#ffeb3b;fill-opacity:1;stroke:none;stroke-width:0.05069799;stroke-miterlimit:4;stroke-dasharray:none;stroke-opacity:1"
         id="circle7145"
         cx="9.9999781"
         cy="10.000005"
         r="10" />
    </clipPath>
    <linearGradient
       inkscape:collect="always"
       xlink:href="#linearGradient8137"
       id="linearGradient8143"
       x1="10"
       y1="10"
       x2="20"
       y2="20"
       gradientUnits="userSpaceOnUse" />
    <clipPath
       clipPathUnits="userSpaceOnUse"
       id="clipPath8148">
      <circle
         inkscape:export-ydpi="648"
         inkscape:export-xdpi="648"
         inkscape:export-filename="/home/juergen/Schreibtisch/path4136.png"
         style="opacity:1;fill:#9c27b0;fill-opacity:1;stroke:none;stroke-width:0.05069799;stroke-miterlimit:4;stroke-dasharray:none;stroke-opacity:1"
         id="circle8150"
         cx="9.9999781"
         cy="10.000005"
         r="10" />
    </clipPath>
  </defs>
  <metadata
     id="metadata7">
    <rdf:RDF>
      <cc:Work
         rdf:about="">
        <dc:format>image/svg+xml</dc:format>
        <dc:type
           rdf:resource="http://purl.org/dc/dcmitype/StillImage" />
        <dc:title></dc:title>
      </cc:Work>
    </rdf:RDF>
  </metadata>
  <g
     transform="translate(1058.1428,-861.93365)"
     id="layer1"
     inkscape:groupmode="layer"
     inkscape:label="Hintergrund">
    <circle
       r="10"
       cy="871.93365"
       cx="-1048.1428"
       id="path4136"
       style="opacity:1;fill:#f44336;fill-opacity:1;stroke:none;stroke-width:0.05069799;stroke-miterlimit:4;stroke-dasharray:none;stroke-opacity:1"
       inkscape:export-filename="/home/juergen/Schreibtisch/path4136.png"
       inkscape:export-xdpi="648"
       inkscape:export-ydpi="648" />
  </g>
  <g
     inkscape:label="Icon"
     id="layer2"
     inkscape:groupmode="layer"
     style="display:inline">
    <path
       d="M 10.148438 5.1484375 L 6.0585938 6.9667969 L 6.0585938 9.6953125 C 6.0585938 11.301572 6.7691077 12.835916 7.8886719 13.890625 C 7.9359738 13.938653 7.9823451 13.986994 8.03125 14.033203 C 8.081805 14.084664 8.1312031 14.136169 8.1835938 14.185547 C 8.2342303 14.23694 8.283467 14.288584 8.3359375 14.337891 C 8.3807888 14.383256 8.4244171 14.428922 8.4707031 14.472656 C 8.5202838 14.523076 8.5677963 14.574628 8.6191406 14.623047 C 8.669155 14.673782 8.7196817 14.722783 8.7714844 14.771484 C 8.8176968 14.818205 8.8624223 14.865167 8.9101562 14.910156 C 8.9576141 14.95823 9.0036682 15.00649 9.0527344 15.052734 C 9.097893 15.098479 9.140884 15.145363 9.1875 15.189453 C 9.236169 15.238898 9.2836178 15.28842 9.3339844 15.335938 C 9.3824401 15.385022 9.430337 15.433292 9.4804688 15.480469 C 9.5233997 15.52383 9.5631782 15.569459 9.6074219 15.611328 C 9.6554048 15.66005 9.7023209 15.709009 9.7519531 15.755859 C 9.7997217 15.804223 9.8470877 15.851927 9.8964844 15.898438 C 9.940701 15.943071 9.9836894 15.988199 10.029297 16.03125 C 10.072851 16.075303 10.115248 16.119593 10.160156 16.162109 C 10.208878 16.211511 10.256223 16.261122 10.306641 16.308594 C 10.349974 16.352295 10.392833 16.395318 10.4375 16.4375 C 10.480114 16.480582 10.520544 16.524794 10.564453 16.566406 C 10.613147 16.61578 10.660549 16.665445 10.710938 16.712891 C 10.753289 16.755561 10.794266 16.798624 10.837891 16.839844 C 10.880135 16.882529 10.921327 16.925556 10.964844 16.966797 C 11.009997 17.012536 11.052999 17.059431 11.099609 17.103516 C 11.145484 17.149871 11.190908 17.195585 11.238281 17.240234 C 11.2777 17.279911 11.314948 17.320953 11.355469 17.359375 C 11.40029 17.404754 11.443978 17.450391 11.490234 17.494141 C 11.534836 17.539166 11.578983 17.583539 11.625 17.626953 C 11.664418 17.66663 11.701666 17.707671 11.742188 17.746094 C 11.787995 17.792423 11.833556 17.838184 11.880859 17.882812 C 11.918999 17.921165 11.954969 17.960868 11.994141 17.998047 C 12.03769 18.042095 12.080097 18.086394 12.125 18.128906 C 12.166673 18.170934 12.207092 18.213283 12.25 18.253906 C 12.291634 18.295892 12.332133 18.338322 12.375 18.378906 C 12.416047 18.420262 12.455803 18.461959 12.498047 18.501953 C 12.540749 18.544977 12.582956 18.587357 12.626953 18.628906 C 12.666122 18.668254 12.703886 18.707983 12.744141 18.746094 C 12.784565 18.786783 12.82365 18.827818 12.865234 18.867188 C 12.903353 18.905555 12.939366 18.945226 12.978516 18.982422 C 13.020166 19.024468 13.06063 19.066779 13.103516 19.107422 C 13.145235 19.149414 13.185562 19.191836 13.228516 19.232422 C 13.264115 19.268131 13.299442 19.303201 13.335938 19.337891 C 13.378593 19.380932 13.41894 19.425228 13.462891 19.466797 C 13.498134 19.502149 13.532238 19.537913 13.568359 19.572266 C 13.610682 19.614948 13.651717 19.657985 13.695312 19.699219 C 13.730526 19.734539 13.764691 19.770365 13.800781 19.804688 C 13.842477 19.846698 13.88285 19.889083 13.925781 19.929688 C 13.961667 19.965648 13.996408 20.002185 14.033203 20.037109 C 14.069025 20.073111 14.103893 20.109564 14.140625 20.144531 C 14.180016 20.184219 14.217318 20.225237 14.257812 20.263672 C 14.294983 20.300993 14.330992 20.338792 14.369141 20.375 C 14.407969 20.413986 14.446433 20.452463 14.486328 20.490234 C 14.521612 20.525558 14.555635 20.561381 14.591797 20.595703 C 14.626032 20.630044 14.658295 20.665821 14.693359 20.699219 C 14.733422 20.739522 14.773253 20.779351 14.814453 20.818359 C 14.84881 20.852721 14.88278 20.886508 14.917969 20.919922 C 14.951614 20.953656 14.983132 20.98866 15.017578 21.021484 C 15.05477 21.058883 15.090733 21.096529 15.128906 21.132812 C 15.164481 21.168481 15.197905 21.205584 15.234375 21.240234 C 15.271293 21.277231 15.307823 21.31371 15.345703 21.349609 C 15.37907 21.382949 15.411162 21.416773 15.445312 21.449219 C 15.477632 21.481575 15.507959 21.515358 15.541016 21.546875 C 15.578837 21.58485 15.615464 21.623334 15.654297 21.660156 C 15.686674 21.69249 15.718839 21.724367 15.751953 21.755859 C 15.78395 21.787891 15.814937 21.820353 15.847656 21.851562 C 15.882581 21.886613 15.915384 21.922962 15.951172 21.957031 C 15.986808 21.992708 16.022062 22.027845 16.058594 22.0625 C 16.087704 22.09153 16.114825 22.122039 16.144531 22.150391 C 16.179119 22.185086 16.212612 22.220174 16.248047 22.253906 C 16.282693 22.288558 16.31607 22.323734 16.351562 22.357422 C 16.38004 22.385806 16.408453 22.413671 16.4375 22.441406 C 16.471436 22.475431 16.502359 22.511823 16.537109 22.544922 C 16.570767 22.578568 16.604216 22.611795 16.638672 22.644531 C 16.66845 22.674211 16.698114 22.703453 16.728516 22.732422 C 16.758237 22.762118 16.786062 22.793278 16.816406 22.822266 C 16.851033 22.856932 16.884449 22.892079 16.919922 22.925781 C 16.949065 22.954799 16.978073 22.98338 17.007812 23.011719 C 17.036247 23.040101 17.062793 23.069921 17.091797 23.097656 C 17.124112 23.130008 17.154447 23.163799 17.1875 23.195312 C 17.217576 23.225319 17.246632 23.255875 17.277344 23.285156 C 17.309082 23.316822 17.3406 23.348049 17.373047 23.378906 C 17.401197 23.406908 17.428326 23.435523 17.457031 23.462891 C 17.484159 23.489929 17.509465 23.518472 17.537109 23.544922 C 17.570115 23.577916 17.602945 23.610459 17.636719 23.642578 C 17.663578 23.66927 17.689432 23.696541 17.716797 23.722656 C 17.743605 23.749375 17.769562 23.77659 17.796875 23.802734 C 17.826977 23.832812 17.855978 23.863227 17.886719 23.892578 C 17.915209 23.920962 17.941643 23.950781 17.970703 23.978516 C 17.998175 24.005869 18.024733 24.033797 18.052734 24.060547 C 18.080233 24.087928 18.106737 24.115802 18.134766 24.142578 C 18.162264 24.169959 18.188768 24.197833 18.216797 24.224609 C 18.244295 24.25199 18.270799 24.279864 18.298828 24.306641 C 18.325689 24.333361 18.351539 24.360575 18.378906 24.386719 C 18.407433 24.415096 18.435747 24.442977 18.464844 24.470703 C 18.489773 24.495429 18.513699 24.520692 18.539062 24.544922 C 18.562969 24.56868 18.585068 24.593885 18.609375 24.617188 C 18.639156 24.646871 18.668815 24.676105 18.699219 24.705078 C 18.722873 24.728517 18.745486 24.752397 18.769531 24.775391 C 18.793142 24.798855 18.815842 24.822684 18.839844 24.845703 C 18.868693 24.874444 18.896348 24.903566 18.925781 24.931641 C 18.947094 24.952758 18.966651 24.975338 18.988281 24.996094 C 19.016791 25.024482 19.045139 25.05234 19.074219 25.080078 C 19.096874 25.102505 19.117612 25.126419 19.140625 25.148438 C 19.164548 25.172177 19.188567 25.195467 19.212891 25.21875 C 19.23715 25.242834 19.260485 25.267401 19.285156 25.291016 C 19.308796 25.314463 19.331438 25.338326 19.355469 25.361328 C 19.376786 25.382472 19.396333 25.404999 19.417969 25.425781 C 19.445189 25.452859 19.472261 25.479374 19.5 25.505859 C 19.519375 25.52502 19.537004 25.545591 19.556641 25.564453 C 19.582864 25.590514 19.608061 25.617067 19.634766 25.642578 C 19.655782 25.663352 19.675941 25.684656 19.697266 25.705078 C 19.7176 25.725217 19.737189 25.745815 19.757812 25.765625 C 19.783397 25.791026 19.807942 25.816918 19.833984 25.841797 C 19.853703 25.861268 19.872589 25.881228 19.892578 25.900391 C 19.91224 25.919862 19.93124 25.93982 19.951172 25.958984 C 19.974436 25.982081 19.995888 26.006631 20.019531 26.029297 C 20.040531 26.050075 20.060724 26.07137 20.082031 26.091797 C 20.102716 26.112262 20.123548 26.132219 20.144531 26.152344 C 20.164936 26.172523 20.184383 26.193042 20.205078 26.212891 C 20.227448 26.235014 20.248766 26.257572 20.271484 26.279297 C 20.287289 26.294873 20.302381 26.310794 20.318359 26.326172 C 20.340329 26.347963 20.360505 26.371172 20.382812 26.392578 C 20.40222 26.411761 20.421737 26.430335 20.441406 26.449219 C 20.462479 26.470039 20.482524 26.491252 20.503906 26.511719 C 20.519337 26.526927 20.533232 26.543575 20.548828 26.558594 C 20.571484 26.581032 20.594173 26.602971 20.617188 26.625 C 20.633647 26.641206 20.649368 26.657837 20.666016 26.673828 C 20.682438 26.690045 20.698233 26.706653 20.714844 26.722656 C 20.734876 26.742487 20.753125 26.763692 20.773438 26.783203 C 20.791197 26.800724 20.808193 26.818667 20.826172 26.835938 C 20.843276 26.852811 20.859646 26.870077 20.876953 26.886719 C 20.896373 26.905876 20.915865 26.924501 20.935547 26.943359 C 20.94903 26.956622 20.961 26.971257 20.974609 26.984375 C 20.993001 27.002555 21.010669 27.021152 21.029297 27.039062 C 21.045747 27.055275 21.061487 27.071893 21.078125 27.087891 C 21.096553 27.106052 21.114149 27.124686 21.132812 27.142578 C 21.145018 27.154566 21.157613 27.165865 21.169922 27.177734 C 21.189684 27.197259 21.208482 27.217114 21.228516 27.236328 C 21.240058 27.247659 21.250084 27.260259 21.261719 27.271484 C 21.278812 27.288363 21.295204 27.305619 21.3125 27.322266 C 21.329627 27.339128 21.345951 27.356417 21.363281 27.373047 C 21.37418 27.383741 21.385503 27.393697 21.396484 27.404297 C 21.414948 27.422521 21.432472 27.441031 21.451172 27.458984 C 21.461407 27.469022 21.470161 27.480279 21.480469 27.490234 C 21.496557 27.506105 21.511076 27.523397 21.527344 27.539062 C 21.541142 27.552628 21.554429 27.566664 21.568359 27.580078 C 21.58384 27.595297 21.599588 27.609971 21.615234 27.625 C 21.626792 27.636329 21.638741 27.64698 21.650391 27.658203 C 21.661255 27.668879 21.670695 27.680824 21.681641 27.691406 C 21.696427 27.705979 21.709671 27.721929 21.724609 27.736328 C 21.73711 27.748606 21.74911 27.761283 21.761719 27.773438 C 21.775895 27.787361 21.790372 27.800689 21.804688 27.814453 C 21.815236 27.824783 21.825313 27.835461 21.835938 27.845703 C 21.845448 27.855035 21.853708 27.86574 21.863281 27.875 C 21.878751 27.890223 21.894521 27.904888 21.910156 27.919922 C 21.919396 27.928961 21.928201 27.938293 21.9375 27.947266 C 21.946713 27.956305 21.955572 27.965637 21.964844 27.974609 C 21.97768 27.987236 21.989002 28.001176 22.001953 28.013672 C 22.012499 28.024009 22.022581 28.034672 22.033203 28.044922 C 22.043442 28.054958 22.054142 28.064265 22.064453 28.074219 C 22.074399 28.083963 22.083736 28.093849 22.09375 28.103516 C 22.103696 28.11326 22.113033 28.123146 22.123047 28.132812 C 22.132631 28.142203 22.140743 28.152791 22.150391 28.162109 C 22.159628 28.171156 22.168438 28.180474 22.177734 28.189453 C 22.188946 28.200433 22.199639 28.211776 22.210938 28.222656 C 22.217875 28.229426 22.225451 28.235455 22.232422 28.242188 C 22.24101 28.250589 22.249173 28.259234 22.257812 28.267578 C 22.265735 28.275329 22.273284 28.283315 22.28125 28.291016 C 22.289179 28.298773 22.296715 28.306745 22.304688 28.314453 C 22.31064 28.320277 22.316288 28.326235 22.322266 28.332031 C 22.333815 28.343358 22.343827 28.355966 22.355469 28.367188 C 22.361093 28.372671 22.3674 28.377354 22.373047 28.382812 C 22.379958 28.389567 22.385635 28.39758 22.392578 28.404297 C 22.39651 28.408138 22.402307 28.41414 22.40625 28.417969 C 22.416503 28.428019 22.429127 28.439251 22.439453 28.449219 C 22.440455 28.450203 22.440404 28.452141 22.441406 28.453125 C 22.441406 28.453125 22.443359 28.455078 22.443359 28.455078 C 22.443359 28.455078 22.445312 28.457031 22.445312 28.457031 C 22.453234 28.464789 22.460785 28.472761 22.46875 28.480469 C 22.476687 28.488219 22.484207 28.496206 22.492188 28.503906 C 22.495186 28.506824 22.500902 28.510761 22.503906 28.513672 C 22.506879 28.516571 22.50874 28.520545 22.511719 28.523438 C 22.520958 28.532477 22.529764 28.541809 22.539062 28.550781 C 22.539062 28.550781 22.541016 28.552734 22.541016 28.552734 C 22.542999 28.55466 22.544889 28.556671 22.546875 28.558594 C 22.551178 28.562788 22.556232 28.566132 22.560547 28.570312 C 22.565196 28.574847 22.569555 28.579467 22.574219 28.583984 C 22.576537 28.586243 22.57971 28.591496 22.582031 28.59375 C 22.583068 28.594756 22.5849 28.594698 22.585938 28.595703 C 22.585938 28.595703 22.587891 28.597656 22.587891 28.597656 C 22.58956 28.599282 22.590125 28.601892 22.591797 28.603516 C 22.596742 28.608344 22.600507 28.614332 22.605469 28.619141 C 22.608757 28.622343 22.611939 28.625712 22.615234 28.628906 C 22.620205 28.633747 22.625872 28.637757 22.630859 28.642578 C 22.632824 28.6445 22.636704 28.648472 22.638672 28.650391 C 22.638672 28.650391 22.640625 28.652344 22.640625 28.652344 C 22.642295 28.653969 22.644813 28.658533 22.646484 28.660156 C 22.647797 28.661434 22.651029 28.664739 22.652344 28.666016 C 22.654692 28.668301 22.657804 28.669594 22.660156 28.671875 C 22.660156 28.671875 22.662109 28.673828 22.662109 28.673828 C 22.662109 28.673828 22.664062 28.675781 22.664062 28.675781 C 22.664062 28.675781 22.666016 28.677734 22.666016 28.677734 C 22.666671 28.678374 22.667313 28.679048 22.667969 28.679688 C 22.668372 28.680079 22.667566 28.681249 22.667969 28.681641 C 22.668275 28.681939 22.669615 28.681342 22.669922 28.681641 C 22.670535 28.682236 22.671261 28.682999 22.671875 28.683594 C 22.671875 28.683594 22.673828 28.685547 22.673828 28.685547 C 22.763894 28.773058 22.867429 28.842898 22.962891 28.923828 C 23.070652 29.015185 23.174861 29.111006 23.289062 29.193359 C 23.314184 29.211465 23.335908 29.234303 23.361328 29.251953 C 23.362829 29.252993 23.363732 29.254821 23.365234 29.255859 C 23.365234 29.255859 23.367188 29.257812 23.367188 29.257812 C 23.367188 29.257812 23.369141 29.259766 23.369141 29.259766 C 23.369554 29.260051 23.370681 29.25948 23.371094 29.259766 C 23.468848 29.327294 23.577728 29.374987 23.679688 29.435547 C 23.83444 29.527549 23.984795 29.628322 24.148438 29.703125 C 24.149245 29.703494 24.149582 29.704709 24.150391 29.705078 C 24.421833 29.82898 24.705727 29.9265 24.998047 29.998047 C 24.998857 29.998245 24.99919 29.999802 25 30 C 25.58581 29.856953 26.133849 29.600403 26.626953 29.259766 C 26.627365 29.259481 26.628494 29.26005 26.628906 29.259766 C 26.876038 29.088929 27.107124 28.896484 27.324219 28.685547 C 27.757812 28.264471 28.12706 27.769514 28.414062 27.226562 C 28.844049 26.412522 29.089844 25.490333 29.089844 24.544922 L 29.089844 21.818359 L 29.089844 21.816406 L 29.087891 21.816406 L 29.087891 21.814453 L 29.082031 21.8125 L 29.082031 21.808594 L 29.078125 21.806641 L 29.078125 21.804688 L 29.072266 21.800781 L 29.066406 21.798828 L 29.066406 21.794922 L 29.060547 21.792969 L 29.060547 21.789062 L 29.054688 21.787109 L 29.054688 21.78125 L 29.046875 21.777344 L 29.046875 21.773438 L 29.037109 21.769531 L 29.037109 21.765625 L 29.027344 21.761719 L 29.027344 21.755859 L 29.017578 21.751953 L 29.017578 21.746094 L 29.007812 21.742188 L 29.007812 21.734375 L 28.996094 21.728516 L 28.996094 21.722656 L 28.984375 21.716797 L 28.984375 21.710938 L 28.970703 21.705078 L 28.970703 21.697266 L 28.957031 21.691406 L 28.957031 21.683594 L 28.941406 21.675781 L 28.941406 21.669922 L 28.927734 21.664062 L 28.927734 21.654297 L 28.912109 21.646484 L 28.912109 21.638672 L 28.894531 21.630859 L 28.894531 21.621094 L 28.876953 21.613281 L 28.876953 21.603516 L 28.859375 21.595703 L 28.859375 21.585938 L 28.839844 21.578125 L 28.839844 21.566406 L 28.820312 21.558594 L 28.820312 21.546875 L 28.800781 21.539062 L 28.800781 21.527344 L 28.779297 21.517578 L 28.779297 21.505859 L 28.755859 21.496094 L 28.755859 21.484375 L 28.734375 21.474609 L 28.734375 21.460938 L 28.710938 21.451172 L 28.710938 21.4375 L 28.6875 21.427734 L 28.6875 21.414062 L 28.662109 21.402344 L 28.662109 21.388672 L 28.636719 21.376953 L 28.636719 21.363281 L 28.609375 21.351562 L 28.609375 21.337891 L 28.582031 21.326172 L 28.582031 21.310547 L 28.554688 21.298828 L 28.554688 21.28125 L 28.525391 21.267578 L 28.525391 21.253906 L 28.496094 21.240234 L 28.496094 21.224609 L 28.466797 21.210938 L 28.466797 21.193359 L 28.435547 21.179688 L 28.435547 21.164062 L 28.404297 21.150391 L 28.404297 21.130859 L 28.373047 21.117188 L 28.373047 21.099609 L 28.339844 21.083984 L 28.339844 21.066406 L 28.304688 21.050781 L 28.304688 21.033203 L 28.271484 21.017578 L 28.271484 20.998047 L 28.236328 20.982422 L 28.236328 20.962891 L 28.199219 20.947266 L 28.199219 20.925781 L 28.162109 20.910156 L 28.162109 20.890625 L 28.125 20.875 L 28.125 20.851562 L 28.087891 20.835938 L 28.087891 20.814453 L 28.048828 20.796875 L 28.048828 20.775391 L 28.007812 20.757812 L 28.007812 20.736328 L 27.966797 20.71875 L 27.966797 20.695312 L 27.925781 20.677734 L 27.925781 20.654297 L 27.884766 20.636719 L 27.884766 20.611328 L 27.841797 20.591797 L 27.841797 20.568359 L 27.798828 20.548828 L 27.798828 20.525391 L 27.753906 20.505859 L 27.753906 20.482422 L 27.708984 20.462891 L 27.708984 20.4375 L 27.664062 20.417969 L 27.664062 20.390625 L 27.617188 20.369141 L 27.617188 20.34375 L 27.570312 20.322266 L 27.570312 20.296875 L 27.521484 20.275391 L 27.521484 20.25 L 27.472656 20.228516 L 27.472656 20.201172 L 27.423828 20.179688 L 27.423828 20.152344 L 27.375 20.130859 L 27.375 20.101562 L 27.322266 20.078125 L 27.322266 20.050781 L 27.271484 20.027344 L 27.271484 19.998047 L 27.21875 19.974609 L 27.21875 19.947266 L 27.166016 19.923828 L 27.166016 19.892578 L 27.113281 19.869141 L 27.113281 19.839844 L 27.058594 19.816406 L 27.058594 19.785156 L 27.001953 19.759766 L 27.001953 19.730469 L 26.947266 19.707031 L 26.947266 19.673828 L 26.888672 19.648438 L 26.888672 19.617188 L 26.832031 19.591797 L 26.832031 19.558594 L 26.773438 19.533203 L 26.773438 19.501953 L 26.714844 19.476562 L 26.714844 19.441406 L 26.654297 19.414062 L 26.654297 19.382812 L 26.59375 19.355469 L 26.59375 19.322266 L 26.533203 19.294922 L 26.533203 19.259766 L 26.470703 19.232422 L 26.470703 19.199219 L 26.408203 19.171875 L 26.408203 19.134766 L 26.345703 19.107422 L 26.345703 19.072266 L 26.28125 19.042969 L 26.28125 19.007812 L 26.214844 18.978516 L 26.214844 18.943359 L 26.150391 18.914062 L 26.150391 18.876953 L 26.083984 18.847656 L 26.083984 18.810547 L 26.015625 18.779297 L 26.015625 18.744141 L 25.949219 18.714844 L 25.949219 18.675781 L 25.878906 18.644531 L 25.878906 18.607422 L 25.810547 18.576172 L 25.810547 18.537109 L 25.740234 18.505859 L 25.740234 18.466797 L 25.669922 18.435547 L 25.669922 18.396484 L 25.597656 18.365234 L 25.597656 18.324219 L 25.525391 18.292969 L 25.525391 18.251953 L 25.451172 18.21875 L 25.451172 18.179688 L 25.378906 18.148438 L 25.378906 18.105469 L 25.302734 18.072266 L 25.302734 18.03125 L 25.228516 17.998047 L 25.228516 17.955078 L 25.152344 17.921875 L 25.152344 17.878906 L 25.074219 17.84375 L 25.074219 17.802734 L 24.998047 17.769531 L 24.998047 17.724609 L 24.919922 17.689453 L 24.919922 17.646484 L 24.839844 17.611328 L 24.839844 17.568359 L 24.759766 17.533203 L 24.759766 17.488281 L 24.679688 17.453125 L 24.679688 17.40625 L 24.597656 17.369141 L 24.597656 17.326172 L 24.515625 17.289062 L 24.515625 17.244141 L 24.433594 17.207031 L 24.433594 17.160156 L 24.349609 17.123047 L 24.349609 17.078125 L 24.265625 17.041016 L 24.265625 16.992188 L 24.181641 16.955078 L 24.181641 16.908203 L 24.095703 16.869141 L 24.095703 16.822266 L 24.007812 16.783203 L 24.007812 16.736328 L 23.921875 16.697266 L 23.921875 16.648438 L 23.833984 16.609375 L 23.833984 16.560547 L 23.744141 16.521484 L 23.744141 16.472656 L 23.654297 16.433594 L 23.654297 16.382812 L 23.564453 16.34375 L 23.564453 16.292969 L 23.474609 16.253906 L 23.474609 16.201172 L 23.382812 16.160156 L 23.382812 16.109375 L 23.289062 16.068359 L 23.289062 16.017578 L 23.197266 15.976562 L 23.197266 15.923828 L 23.103516 15.882812 L 23.103516 15.830078 L 23.007812 15.787109 L 23.007812 15.734375 L 22.912109 15.691406 L 22.912109 15.640625 L 22.816406 15.597656 L 22.816406 15.542969 L 22.71875 15.5 L 22.71875 15.447266 L 22.621094 15.404297 L 22.621094 15.349609 L 22.523438 15.306641 L 22.523438 15.25 L 22.423828 15.205078 L 22.423828 15.152344 L 22.324219 15.107422 L 22.324219 15.050781 L 22.224609 15.005859 L 22.224609 14.951172 L 22.123047 14.90625 L 22.123047 14.849609 L 22.019531 14.802734 L 22.019531 14.748047 L 21.917969 14.703125 L 21.917969 14.644531 L 21.814453 14.597656 L 21.814453 14.541016 L 21.708984 14.494141 L 21.708984 14.4375 L 21.603516 14.390625 L 21.603516 14.332031 L 21.498047 14.285156 L 21.498047 14.226562 L 21.392578 14.179688 L 21.392578 14.119141 L 21.285156 14.072266 L 21.285156 14.011719 L 21.175781 13.962891 L 21.175781 13.904297 L 21.068359 13.857422 L 21.068359 13.794922 L 20.958984 13.746094 L 20.958984 13.685547 L 20.847656 13.636719 L 20.847656 13.576172 L 20.736328 13.527344 L 20.736328 13.464844 L 20.625 13.416016 L 20.625 13.353516 L 20.513672 13.304688 L 20.513672 13.240234 L 20.400391 13.189453 L 20.400391 13.126953 L 20.285156 13.076172 L 20.285156 13.013672 L 20.171875 12.962891 L 20.171875 12.898438 L 20.054688 12.845703 L 20.054688 12.783203 L 19.939453 12.732422 L 19.939453 12.666016 L 19.822266 12.613281 L 19.822266 12.548828 L 19.705078 12.496094 L 19.705078 12.431641 L 19.585938 12.378906 L 19.585938 12.3125 L 19.466797 12.259766 L 19.466797 12.193359 L 19.347656 12.140625 L 19.347656 12.074219 L 19.226562 12.019531 L 19.226562 11.953125 L 19.105469 11.898438 L 19.105469 11.832031 L 18.982422 11.777344 L 18.982422 11.710938 L 18.859375 11.65625 L 18.859375 11.587891 L 18.736328 11.533203 L 18.736328 11.462891 L 18.611328 11.408203 L 18.611328 11.339844 L 18.486328 11.285156 L 18.486328 11.214844 L 18.361328 11.160156 L 18.361328 11.087891 L 18.234375 11.03125 L 18.234375 10.960938 L 18.107422 10.904297 L 18.107422 10.833984 L 17.978516 10.777344 L 17.978516 10.707031 L 17.849609 10.650391 L 17.849609 10.578125 L 17.720703 10.521484 L 17.720703 10.447266 L 17.589844 10.388672 L 17.589844 10.318359 L 17.458984 10.259766 L 17.458984 10.185547 L 17.328125 10.126953 L 17.328125 10.054688 L 17.195312 9.9960938 L 17.195312 9.921875 L 17.060547 9.8613281 L 17.060547 9.7890625 L 16.927734 9.7304688 L 16.927734 9.6542969 L 16.792969 9.59375 L 16.792969 9.5195312 L 16.65625 9.4589844 L 16.65625 9.3847656 L 16.521484 9.3242188 L 16.521484 9.2480469 L 16.384766 9.1875 L 16.384766 9.1113281 L 16.246094 9.0488281 L 16.246094 8.9726562 L 16.107422 8.9101562 L 16.107422 8.8359375 L 15.96875 8.7734375 L 15.96875 8.6953125 L 15.828125 8.6328125 L 15.828125 8.5566406 L 15.6875 8.4941406 L 15.6875 8.4160156 L 15.546875 8.3535156 L 15.546875 8.2734375 L 15.404297 8.2109375 L 15.404297 8.1308594 L 15.261719 8.0683594 L 15.261719 7.9882812 L 15.117188 7.9238281 L 15.117188 7.8457031 L 14.972656 7.78125 L 14.972656 7.7011719 L 14.828125 7.6367188 L 14.828125 7.5546875 L 14.681641 7.4902344 L 14.681641 7.4101562 L 14.535156 7.3457031 L 14.535156 7.2617188 L 14.388672 7.1972656 L 14.388672 7.1152344 L 14.240234 7.0488281 L 14.240234 6.9667969 L 10.148438 5.1484375 z "
       id="path7284"
       style="fill-opacity:1;fill:url(#linearGradient8143);opacity:0.2"
       clip-path="url(#clipPath8148)" />
    <path
       style="fill:none"
       inkscape:connector-curvature="0"
       id="path4"
       d="m 3.9999777,4.0333382 12.0000003,0 0,11.9333328 -12.0000003,0 z" />
    <path
       d="m 18.999978,19.033339 12,0 0,11.933333 -12,0 z"
       id="path9754"
       inkscape:connector-curvature="0"
       style="fill:none" />
    <path
       inkscape:connector-curvature="0"
       d="m 9.9999777,5.0000048 -4.090909,1.8181816 0,2.7272728 c 0,2.5227268 1.745455,4.8818178 4.090909,5.4545458 2.3454553,-0.572728 4.0909093,-2.931819 4.0909093,-5.4545458 l 0,-2.7272728 -4.0909093,-1.8181816 z"
       id="path7218"
       style="fill:#ffffff" />
  </g>
</svg>
