<?xml version="1.0" encoding="UTF-8" standalone="no"?>
<!-- Created with Inkscape (http://www.inkscape.org/) -->

<svg
   xmlns:dc="http://purl.org/dc/elements/1.1/"
   xmlns:cc="http://creativecommons.org/ns#"
   xmlns:rdf="http://www.w3.org/1999/02/22-rdf-syntax-ns#"
   xmlns:svg="http://www.w3.org/2000/svg"
   xmlns="http://www.w3.org/2000/svg"
   xmlns:xlink="http://www.w3.org/1999/xlink"
   xmlns:sodipodi="http://sodipodi.sourceforge.net/DTD/sodipodi-0.dtd"
   xmlns:inkscape="http://www.inkscape.org/namespaces/inkscape"
   width="5.6444445mm"
   height="5.6444445mm"
   viewBox="0 0 20 20"
   id="svg2"
   version="1.1"
   inkscape:version="0.91 r13725"
   sodipodi:docname="aDRESS.svg"
   inkscape:export-filename="/home/juergen/Projekte/Android/Android_Studio/Baumann_Theme/theme/src/main/assets/icons/res/drawable-xxhdpi/a150.png"
   inkscape:export-xdpi="648"
   inkscape:export-ydpi="648">
  <sodipodi:namedview
     id="base"
     pagecolor="#ffffff"
     bordercolor="#666666"
     borderopacity="1.0"
     inkscape:pageopacity="0.0"
     inkscape:pageshadow="2"
     inkscape:zoom="15.839192"
     inkscape:cx="8.8341339"
     inkscape:cy="9.9410736"
     inkscape:document-units="px"
     inkscape:current-layer="layer2"
     showgrid="false"
     fit-margin-top="0"
     fit-margin-left="0"
     fit-margin-right="0"
     fit-margin-bottom="0"
     showguides="true"
     inkscape:guide-bbox="true"
     inkscape:window-width="1366"
     inkscape:window-height="744"
     inkscape:window-x="0"
     inkscape:window-y="24"
     inkscape:window-maximized="1"
     inkscape:snap-grids="true"
     inkscape:snap-to-guides="true"
     inkscape:snap-page="false">
    <inkscape:grid
       type="xygrid"
       id="grid4138" />
    <sodipodi:guide
       position="10,18"
       orientation="0,1"
       id="guide4140" />
    <sodipodi:guide
       position="10,2"
       orientation="0,1"
       id="guide4142" />
    <sodipodi:guide
       position="2,10"
       orientation="1,0"
       id="guide4144" />
    <sodipodi:guide
       position="0,0"
       orientation="0,20"
       id="guide4146" />
    <sodipodi:guide
       position="20,0"
       orientation="-20,0"
       id="guide4148" />
    <sodipodi:guide
       position="20,20"
       orientation="0,-20"
       id="guide4150" />
    <sodipodi:guide
       position="0,20"
       orientation="20,0"
       id="guide4152" />
    <sodipodi:guide
       position="18,10"
       orientation="1,0"
       id="guide4154" />
    <sodipodi:guide
       position="10,10"
       orientation="-0.70710678,0.70710678"
       id="guide4156" />
    <sodipodi:guide
       position="4,10"
       orientation="1,0"
       id="guide4160" />
    <sodipodi:guide
       position="16,10"
       orientation="1,0"
       id="guide4162" />
    <sodipodi:guide
       position="10,16"
       orientation="0,1"
       id="guide4164" />
    <sodipodi:guide
       position="10,4"
       orientation="0,1"
       id="guide4166" />
    <sodipodi:guide
       position="10,15"
       orientation="0,1"
       id="guide4168" />
    <sodipodi:guide
       position="10,5"
       orientation="0,1"
       id="guide4170" />
    <sodipodi:guide
       position="5,10"
       orientation="1,0"
       id="guide4172" />
    <sodipodi:guide
       position="15,10"
       orientation="1,0"
       id="guide4174" />
  </sodipodi:namedview>
  <defs
     id="defs4">
    <linearGradient
       inkscape:collect="always"
       id="linearGradient6199">
      <stop
         style="stop-color:#000000;stop-opacity:0.2"
         offset="0"
         id="stop6201" />
      <stop
         style="stop-color:#000000;stop-opacity:0;"
         offset="1"
         id="stop6203" />
    </linearGradient>
    <clipPath
       id="clipPath12478"
       clipPathUnits="userSpaceOnUse">
      <circle
         r="10"
         cy="10.000005"
         cx="9.9999781"
         id="circle12480"
         style="opacity:1;fill:#2196f3;fill-opacity:1;stroke:none;stroke-width:0.05069799;stroke-miterlimit:4;stroke-dasharray:none;stroke-opacity:1" />
    </clipPath>
    <clipPath
       clipPathUnits="userSpaceOnUse"
       id="clipPath5790">
      <circle
         r="10"
         cy="10.000005"
         cx="9.9999781"
         id="circle5792"
         style="opacity:1;fill:#2196f3;fill-opacity:1;stroke:none;stroke-width:0.05069799;stroke-miterlimit:4;stroke-dasharray:none;stroke-opacity:1"
         inkscape:export-filename="/home/juergen/path4136.png"
         inkscape:export-xdpi="648"
         inkscape:export-ydpi="648" />
    </clipPath>
    <clipPath
       id="clipPath5055"
       clipPathUnits="userSpaceOnUse">
      <circle
         r="10"
         cy="10.000005"
         cx="9.9999781"
         id="circle5057"
         style="opacity:1;fill:#2196f3;fill-opacity:1;stroke:none;stroke-width:0.05069799;stroke-miterlimit:4;stroke-dasharray:none;stroke-opacity:1"
         inkscape:export-filename="/home/juergen/path4136.png"
         inkscape:export-xdpi="648"
         inkscape:export-ydpi="648" />
    </clipPath>
    <clipPath
       clipPathUnits="userSpaceOnUse"
       id="clipPath5119">
      <circle
         r="10"
         cy="10.000005"
         cx="9.9999781"
         id="circle5121"
         style="opacity:1;fill:#2196f3;fill-opacity:1;stroke:none;stroke-width:0.05069799;stroke-miterlimit:4;stroke-dasharray:none;stroke-opacity:1"
         inkscape:export-filename="/home/juergen/Schreibtisch/path4136.png"
         inkscape:export-xdpi="648"
         inkscape:export-ydpi="648" />
    </clipPath>
    <clipPath
       id="clipPath5194"
       clipPathUnits="userSpaceOnUse">
      <circle
         r="10"
         cy="10.000005"
         cx="9.9999781"
         id="circle5196"
         style="opacity:1;fill:#cddc39;fill-opacity:1;stroke:none;stroke-width:0.05069799;stroke-miterlimit:4;stroke-dasharray:none;stroke-opacity:1"
         inkscape:export-filename="/home/juergen/Schreibtisch/path4136.png"
         inkscape:export-xdpi="648"
         inkscape:export-ydpi="648" />
    </clipPath>
    <clipPath
       clipPathUnits="userSpaceOnUse"
       id="clipPath6175">
      <circle
         r="10"
         cy="10.000005"
         cx="9.9999781"
         id="circle6177"
         style="opacity:1;fill:#f44336;fill-opacity:1;stroke:none;stroke-width:0.05069799;stroke-miterlimit:4;stroke-dasharray:none;stroke-opacity:1"
         inkscape:export-filename="/home/juergen/Schreibtisch/path4136.png"
         inkscape:export-xdpi="648"
         inkscape:export-ydpi="648" />
    </clipPath>
    <clipPath
       id="clipPath7176"
       clipPathUnits="userSpaceOnUse">
      <circle
         r="10"
         cy="10.000005"
         cx="9.9999781"
         id="circle7178"
         style="opacity:1;fill:#9c27b0;fill-opacity:1;stroke:none;stroke-width:0.05069799;stroke-miterlimit:4;stroke-dasharray:none;stroke-opacity:1"
         inkscape:export-filename="/home/juergen/Schreibtisch/path4136.png"
         inkscape:export-xdpi="648"
         inkscape:export-ydpi="648" />
    </clipPath>
    <clipPath
       clipPathUnits="userSpaceOnUse"
       id="clipPath8165">
      <circle
         r="10"
         cy="10.000005"
         cx="9.9999781"
         id="circle8167"
         style="opacity:1;fill:#ffc107;fill-opacity:1;stroke:none;stroke-width:0.05069799;stroke-miterlimit:4;stroke-dasharray:none;stroke-opacity:1"
         inkscape:export-filename="/home/juergen/Schreibtisch/path4136.png"
         inkscape:export-xdpi="648"
         inkscape:export-ydpi="648" />
    </clipPath>
    <clipPath
       id="clipPath9162"
       clipPathUnits="userSpaceOnUse">
      <circle
         r="10"
         cy="10.000005"
         cx="9.9999781"
         id="circle9164"
         style="opacity:1;fill:#ff9800;fill-opacity:1;stroke:none;stroke-width:0.05069799;stroke-miterlimit:4;stroke-dasharray:none;stroke-opacity:1"
         inkscape:export-filename="/home/juergen/Schreibtisch/path4136.png"
         inkscape:export-xdpi="648"
         inkscape:export-ydpi="648" />
    </clipPath>
    <clipPath
       clipPathUnits="userSpaceOnUse"
       id="clipPath5147">
      <circle
         r="10"
         cy="10.000005"
         cx="9.9999781"
         id="circle5149"
         style="opacity:1;fill:#ff9800;fill-opacity:1;stroke:none;stroke-width:0.05069799;stroke-miterlimit:4;stroke-dasharray:none;stroke-opacity:1"
         inkscape:export-filename="/home/juergen/Schreibtisch/path4136.png"
         inkscape:export-xdpi="648"
         inkscape:export-ydpi="648" />
    </clipPath>
    <clipPath
       id="clipPath6144"
       clipPathUnits="userSpaceOnUse">
      <circle
         r="10"
         cy="10.000005"
         cx="9.9999781"
         id="circle6146"
         style="opacity:1;fill:#e91e63;fill-opacity:1;stroke:none;stroke-width:0.05069799;stroke-miterlimit:4;stroke-dasharray:none;stroke-opacity:1"
         inkscape:export-filename="/home/juergen/Schreibtisch/path4136.png"
         inkscape:export-xdpi="648"
         inkscape:export-ydpi="648" />
    </clipPath>
    <clipPath
       clipPathUnits="userSpaceOnUse"
       id="clipPath7143">
      <circle
         r="10"
         cy="10.000005"
         cx="9.9999781"
         id="circle7145"
         style="opacity:1;fill:#ffeb3b;fill-opacity:1;stroke:none;stroke-width:0.05069799;stroke-miterlimit:4;stroke-dasharray:none;stroke-opacity:1"
         inkscape:export-filename="/home/juergen/Schreibtisch/path4136.png"
         inkscape:export-xdpi="648"
         inkscape:export-ydpi="648" />
    </clipPath>
    <clipPath
       id="clipPath8148"
       clipPathUnits="userSpaceOnUse">
      <circle
         r="10"
         cy="10.000005"
         cx="9.9999781"
         id="circle8150"
         style="opacity:1;fill:#9c27b0;fill-opacity:1;stroke:none;stroke-width:0.05069799;stroke-miterlimit:4;stroke-dasharray:none;stroke-opacity:1"
         inkscape:export-filename="/home/juergen/Schreibtisch/path4136.png"
         inkscape:export-xdpi="648"
         inkscape:export-ydpi="648" />
    </clipPath>
    <clipPath
       clipPathUnits="userSpaceOnUse"
       id="clipPath5383">
      <circle
         r="10"
         cy="10.000005"
         cx="9.9999781"
         id="circle5385"
         style="opacity:1;fill:#f44336;fill-opacity:1;stroke:none;stroke-width:0.05069799;stroke-miterlimit:4;stroke-dasharray:none;stroke-opacity:1"
         inkscape:export-filename="/home/juergen/Schreibtisch/path4136.png"
         inkscape:export-xdpi="648"
         inkscape:export-ydpi="648" />
    </clipPath>
    <clipPath
       id="clipPath5185"
       clipPathUnits="userSpaceOnUse">
      <circle
         r="10"
         cy="10.000005"
         cx="9.9999781"
         id="circle5187"
         style="opacity:1;fill:#00bcd4;fill-opacity:1;stroke:none;stroke-width:0.05069799;stroke-miterlimit:4;stroke-dasharray:none;stroke-opacity:1"
         inkscape:export-filename="/home/juergen/Schreibtisch/path4136.png"
         inkscape:export-xdpi="648"
         inkscape:export-ydpi="648" />
    </clipPath>
    <linearGradient
       inkscape:collect="always"
       xlink:href="#linearGradient6199"
       id="linearGradient6205"
       x1="10"
       y1="10"
       x2="20"
       y2="20"
       gradientUnits="userSpaceOnUse" />
    <clipPath
       clipPathUnits="userSpaceOnUse"
       id="clipPath6210">
      <circle
         r="10"
         cy="10.000005"
         cx="9.9999781"
         id="circle6212"
         style="opacity:1;fill:#673ab7;fill-opacity:1;stroke:none;stroke-width:0.05069799;stroke-miterlimit:4;stroke-dasharray:none;stroke-opacity:1"
         inkscape:export-filename="/home/juergen/Projekte/Android/Android_Studio/Baumann_Theme/theme/src/main/assets/icons/res/drawable-xxhdpi/a169.png"
         inkscape:export-xdpi="648"
         inkscape:export-ydpi="648" />
    </clipPath>
  </defs>
  <metadata
     id="metadata7">
    <rdf:RDF>
      <cc:Work
         rdf:about="">
        <dc:format>image/svg+xml</dc:format>
        <dc:type
           rdf:resource="http://purl.org/dc/dcmitype/StillImage" />
        <dc:title></dc:title>
      </cc:Work>
    </rdf:RDF>
  </metadata>
  <g
     inkscape:label="Hintergrund"
     inkscape:groupmode="layer"
     id="layer1"
     transform="translate(1058.1428,-861.93365)">
    <circle
       inkscape:export-ydpi="648"
       inkscape:export-xdpi="648"
       inkscape:export-filename="/home/juergen/Projekte/Android/Android_Studio/Baumann_Theme/theme/src/main/assets/icons/res/drawable-xxhdpi/a169.png"
       style="opacity:1;fill:#cddc39;fill-opacity:1;stroke:none;stroke-width:0.05069799;stroke-miterlimit:4;stroke-dasharray:none;stroke-opacity:1"
       id="path4136"
       cx="-1048.1428"
       cy="871.93365"
       r="10" />
  </g>
  <g
     style="display:inline"
     inkscape:groupmode="layer"
     id="layer2"
     inkscape:label="Icon">
    <path
       style="opacity:1;fill-opacity:1;fill:url(#linearGradient6205)"
       d="M 10 5 C 8.4238094 5 7.1425781 6.2673177 7.1425781 7.8339844 C 7.1425781 9.9577938 10 13.095703 10 13.095703 C 10 13.095703 10.005808 13.0899 10.005859 13.089844 C 10.013928 13.098826 10.07421 13.169913 10.074219 13.169922 C 10.074219 13.169922 10.080027 13.164119 10.080078 13.164062 C 10.088154 13.173052 10.148421 13.244122 10.148438 13.244141 C 10.148438 13.244141 10.154226 13.236407 10.154297 13.236328 C 10.162768 13.245761 10.224584 13.318331 10.224609 13.318359 C 10.224609 13.318359 10.228479 13.312541 10.228516 13.3125 C 10.236958 13.321901 10.298794 13.394494 10.298828 13.394531 C 10.298828 13.394531 10.304636 13.388728 10.304688 13.388672 C 10.312722 13.397615 10.373005 13.468704 10.373047 13.46875 C 10.373047 13.46875 10.378855 13.462947 10.378906 13.462891 C 10.386981 13.471879 10.447216 13.542915 10.447266 13.542969 C 10.447266 13.542969 10.453074 13.537166 10.453125 13.537109 C 10.461236 13.54614 10.521427 13.617122 10.521484 13.617188 C 10.521484 13.617188 10.527272 13.609453 10.527344 13.609375 C 10.53585 13.618849 10.59759 13.691332 10.597656 13.691406 C 10.597656 13.691406 10.601526 13.685587 10.601562 13.685547 C 10.610043 13.694991 10.671797 13.767492 10.671875 13.767578 C 10.671875 13.767578 10.677683 13.761775 10.677734 13.761719 C 10.685805 13.770702 10.74601 13.841705 10.746094 13.841797 C 10.746094 13.841797 10.751902 13.835994 10.751953 13.835938 C 10.76003 13.844928 10.820221 13.915916 10.820312 13.916016 C 10.820312 13.916016 10.826121 13.910213 10.826172 13.910156 C 10.832476 13.917176 10.877395 13.97099 10.878906 13.972656 C 10.631131 14.006658 10.37588 14.032791 10.103516 14.037109 L 10.058594 13.974609 C 10.052804 13.976846 10.048727 13.980166 10.042969 13.982422 L 10.03125 13.966797 L 9.984375 13.898438 C 9.9780038 13.900898 9.9731302 13.903766 9.9667969 13.90625 L 9.9550781 13.888672 L 9.9101562 13.824219 C 9.9037858 13.826679 9.8989108 13.829547 9.8925781 13.832031 L 9.8789062 13.8125 L 9.8359375 13.75 C 9.829578 13.752456 9.8246816 13.755333 9.8183594 13.757812 L 9.8027344 13.736328 L 9.7617188 13.675781 C 9.7553601 13.678237 9.7504622 13.681115 9.7441406 13.683594 L 9.7265625 13.658203 L 9.6855469 13.601562 C 9.679745 13.603803 9.675693 13.607115 9.6699219 13.609375 L 9.6503906 13.582031 L 9.6113281 13.525391 C 9.6049534 13.527853 9.6000878 13.530718 9.59375 13.533203 L 9.5742188 13.505859 L 9.5371094 13.451172 C 9.531327 13.453405 9.5272366 13.456732 9.5214844 13.458984 L 9.5 13.429688 L 9.4628906 13.376953 C 9.4571097 13.379186 9.4530165 13.382514 9.4472656 13.384766 L 9.4238281 13.351562 L 9.3886719 13.302734 C 9.3828834 13.30497 9.3788054 13.308292 9.3730469 13.310547 L 9.3476562 13.275391 L 9.3125 13.226562 C 9.3067041 13.228801 9.3026411 13.232118 9.296875 13.234375 L 9.2714844 13.199219 L 9.2382812 13.152344 C 9.2324948 13.154579 9.2284131 13.157903 9.2226562 13.160156 L 9.1953125 13.121094 L 9.1640625 13.078125 C 9.1582854 13.080356 9.1541853 13.083688 9.1484375 13.085938 L 9.1191406 13.044922 L 9.0898438 13.003906 C 9.0840515 13.006143 9.0799818 13.009463 9.0742188 13.011719 L 9.0429688 12.96875 L 9.015625 12.929688 C 9.009842 12.931921 9.005754 12.935248 9 12.9375 L 8.9667969 12.890625 L 8.9394531 12.853516 C 8.9336629 12.855752 8.9295894 12.859074 8.9238281 12.861328 L 8.890625 12.814453 L 8.8652344 12.779297 C 8.8594533 12.78153 8.8553618 12.784859 8.8496094 12.787109 L 8.8144531 12.738281 L 8.7910156 12.705078 C 8.785236 12.70731 8.7811418 12.71064 8.7753906 12.712891 L 8.7382812 12.660156 L 8.7167969 12.630859 C 8.71101 12.633094 8.7069303 12.636419 8.7011719 12.638672 L 8.6621094 12.583984 L 8.640625 12.556641 C 8.6348235 12.558881 8.6307731 12.562195 8.625 12.564453 L 8.5859375 12.507812 L 8.5664062 12.480469 C 8.5606213 12.482703 8.556538 12.486029 8.5507812 12.488281 L 8.5097656 12.429688 L 8.4921875 12.40625 C 8.486404 12.408484 8.482318 12.411811 8.4765625 12.414062 L 8.4335938 12.353516 L 8.4179688 12.332031 C 8.4121782 12.334268 8.4081064 12.33759 8.4023438 12.339844 L 8.3574219 12.277344 L 8.34375 12.257812 C 8.3373867 12.26027 8.3325017 12.263146 8.3261719 12.265625 L 8.28125 12.201172 L 8.2675781 12.183594 C 8.2617821 12.185832 8.2577215 12.18915 8.2519531 12.191406 L 8.2050781 12.123047 L 8.1933594 12.107422 C 8.1875795 12.109654 8.1834869 12.112985 8.1777344 12.115234 L 8.1289062 12.046875 L 8.1191406 12.033203 C 8.1127637 12.035666 8.1079063 12.038532 8.1015625 12.041016 L 8.0527344 11.970703 L 8.0449219 11.958984 C 8.0391365 11.961219 8.0350551 11.964545 8.0292969 11.966797 L 7.9765625 11.892578 L 7.9707031 11.884766 C 7.9643366 11.887225 7.9594589 11.890099 7.953125 11.892578 L 7.9003906 11.816406 L 7.8945312 11.810547 C 7.8887405 11.812784 7.8846701 11.816106 7.8789062 11.818359 L 7.8242188 11.740234 L 7.8203125 11.734375 C 7.8145151 11.736614 7.8104581 11.739932 7.8046875 11.742188 L 7.7480469 11.662109 L 7.7460938 11.660156 C 7.7403049 11.662392 7.736231 11.665716 7.7304688 11.667969 L 7.671875 11.585938 C 6.7723145 11.933386 6.1919733 12.479829 6.1914062 13.09375 L 6.1914062 13.095703 C 6.1914062 13.383161 6.3268917 13.652167 6.5546875 13.896484 C 6.5773503 13.923791 6.6096584 13.947966 6.6347656 13.974609 C 6.6538018 13.997254 6.6823922 14.016878 6.703125 14.039062 C 6.7232886 14.063275 6.7513288 14.085689 6.7734375 14.109375 C 6.795529 14.135999 6.8271116 14.159562 6.8515625 14.185547 C 6.8714135 14.209249 6.9001393 14.230716 6.921875 14.253906 C 6.9425233 14.278652 6.9733829 14.300033 6.9960938 14.324219 C 7.0168531 14.349153 7.0454961 14.37212 7.0683594 14.396484 C 7.0895785 14.421916 7.1211122 14.443916 7.1445312 14.46875 C 7.1638302 14.491796 7.1917724 14.512604 7.2128906 14.535156 C 7.2350151 14.561837 7.2664486 14.58531 7.2910156 14.611328 C 7.3108389 14.635003 7.3395658 14.656539 7.3613281 14.679688 C 7.3820025 14.704473 7.4127387 14.725794 7.4355469 14.75 C 7.456273 14.774906 7.4849214 14.797948 7.5078125 14.822266 C 7.5282305 14.846748 7.5575559 14.868667 7.5800781 14.892578 C 7.6006855 14.91729 7.6315346 14.938765 7.6542969 14.962891 C 7.6750706 14.987861 7.7035779 15.010787 7.7265625 15.035156 C 7.7477975 15.060623 7.7791873 15.082584 7.8027344 15.107422 C 7.8226123 15.131172 7.8511443 15.152582 7.8730469 15.175781 C 7.8937149 15.200574 7.9243818 15.221904 7.9472656 15.246094 C 7.9680456 15.27108 7.9964894 15.293987 8.0195312 15.318359 C 8.0407727 15.343842 8.0720962 15.365787 8.0957031 15.390625 C 8.1147038 15.413331 8.1431693 15.432887 8.1640625 15.455078 C 8.1854338 15.480951 8.2144481 15.504092 8.2382812 15.529297 C 8.259782 15.555162 8.2904762 15.578325 8.3144531 15.603516 C 8.3335018 15.626283 8.3618291 15.645727 8.3828125 15.667969 C 8.4051927 15.695072 8.4358123 15.719737 8.4609375 15.746094 C 8.4808377 15.769882 8.5092151 15.791246 8.53125 15.814453 C 8.5518749 15.839212 8.5825211 15.86064 8.6054688 15.884766 C 8.6262653 15.909793 8.6545519 15.932653 8.6777344 15.957031 C 8.699482 15.98314 8.7315011 16.005854 8.7558594 16.03125 C 8.7740476 16.052907 8.8003105 16.072587 8.8203125 16.09375 C 8.8420973 16.120198 8.8719942 16.144208 8.8964844 16.169922 C 8.9176726 16.195368 8.9489438 16.217431 8.9726562 16.242188 C 8.9919375 16.265247 9.0196449 16.286104 9.0410156 16.308594 C 9.0630848 16.335285 9.0942661 16.358839 9.1191406 16.384766 C 9.1390082 16.408529 9.1673411 16.429974 9.1894531 16.453125 C 9.2100979 16.477928 9.2405704 16.499305 9.2636719 16.523438 C 9.2844319 16.548446 9.3126661 16.571379 9.3359375 16.595703 C 9.3571573 16.6212 9.3882632 16.64319 9.4121094 16.667969 C 9.4311008 16.690691 9.4593736 16.710273 9.4804688 16.732422 C 9.5018051 16.758321 9.5306124 16.781486 9.5546875 16.806641 C 9.5761538 16.832514 9.6066403 16.855738 9.6308594 16.880859 C 9.6498967 16.903641 9.6780273 16.923119 9.6992188 16.945312 C 9.7215666 16.972455 9.7519343 16.997131 9.7773438 17.023438 C 9.7972355 17.047245 9.825384 17.06864 9.8476562 17.091797 C 9.8693476 17.117881 9.9012207 17.140718 9.9257812 17.166016 C 9.9445521 17.188382 9.9712854 17.208686 9.9921875 17.230469 C 10.014463 17.257461 10.044931 17.282452 10.070312 17.308594 C 10.089545 17.331554 10.119119 17.350709 10.140625 17.373047 C 10.16072 17.397293 10.188297 17.419808 10.210938 17.443359 C 10.232933 17.470027 10.263974 17.493709 10.289062 17.519531 C 10.308874 17.543256 10.33709 17.564843 10.359375 17.587891 C 10.379959 17.612664 10.4103 17.634173 10.433594 17.658203 C 10.454296 17.683193 10.482383 17.706238 10.505859 17.730469 C 10.527018 17.755938 10.557971 17.778062 10.582031 17.802734 C 10.601299 17.825816 10.628717 17.846718 10.650391 17.869141 C 10.672426 17.895886 10.703243 17.919454 10.728516 17.945312 C 10.748661 17.96945 10.777971 17.990266 10.800781 18.013672 C 10.821196 18.038211 10.849861 18.060206 10.873047 18.083984 C 10.893702 18.108938 10.921775 18.132087 10.945312 18.15625 C 10.965407 18.180454 10.994751 18.201155 11.017578 18.224609 C 11.038425 18.249807 11.067971 18.272495 11.091797 18.296875 C 11.112251 18.321598 11.140719 18.343257 11.164062 18.367188 C 11.18548 18.39308 11.215628 18.416391 11.240234 18.441406 C 11.259526 18.464536 11.28673 18.485389 11.308594 18.507812 C 11.33056 18.534519 11.361315 18.558223 11.386719 18.583984 C 11.406606 18.607833 11.434372 18.629259 11.457031 18.652344 C 11.47785 18.677447 11.507342 18.700357 11.53125 18.724609 C 11.55134 18.748833 11.580526 18.769542 11.603516 18.792969 C 11.624145 18.817935 11.652052 18.84112 11.675781 18.865234 C 11.696864 18.890668 11.727629 18.91296 11.751953 18.9375 C 11.771162 18.960548 11.798414 18.981599 11.820312 19.003906 C 11.842241 19.030605 11.872891 19.054375 11.898438 19.080078 C 11.918516 19.104174 11.947642 19.125166 11.970703 19.148438 C 11.990498 19.172282 12.018278 19.193763 12.041016 19.216797 C 12.062463 19.242928 12.092191 19.265861 12.117188 19.291016 C 12.138112 19.316226 12.167144 19.338994 12.191406 19.363281 C 12.210569 19.38629 12.237794 19.407454 12.259766 19.429688 C 12.280647 19.455151 12.30965 19.47744 12.333984 19.501953 C 12.355305 19.527806 12.385247 19.551312 12.410156 19.576172 C 12.429387 19.599272 12.456385 19.62028 12.478516 19.642578 C 12.500358 19.66923 12.530928 19.693168 12.556641 19.71875 C 12.576469 19.742574 12.603991 19.764153 12.626953 19.787109 C 12.647681 19.812171 12.676954 19.835279 12.701172 19.859375 C 12.721543 19.884005 12.749667 19.905999 12.773438 19.929688 C 12.795028 19.955798 12.826124 19.978865 12.851562 20.003906 C 12.852546 20.005081 12.852524 20.00664 12.853516 20.007812 C 12.873276 20.027125 12.894061 20.04583 12.916016 20.064453 C 12.937854 20.091424 12.966187 20.116753 12.992188 20.142578 C 13.013206 20.168014 13.043592 20.19045 13.068359 20.214844 C 13.087528 20.237897 13.114433 20.259061 13.136719 20.28125 C 13.158555 20.307961 13.188811 20.331875 13.214844 20.357422 C 13.234897 20.381546 13.263586 20.402623 13.287109 20.425781 C 13.307395 20.450291 13.335478 20.472589 13.359375 20.496094 C 13.379977 20.521151 13.407236 20.544358 13.431641 20.568359 C 13.452698 20.593873 13.482776 20.616221 13.507812 20.640625 C 13.528139 20.665095 13.55605 20.687502 13.580078 20.710938 C 13.598419 20.733022 13.625093 20.7522 13.646484 20.773438 C 13.668939 20.801289 13.699258 20.827009 13.726562 20.853516 C 13.746304 20.877292 13.773536 20.899103 13.796875 20.921875 C 13.81721 20.946546 13.846856 20.968605 13.871094 20.992188 C 13.891672 21.017269 13.918712 21.040506 13.943359 21.064453 C 13.964828 21.090513 13.995582 21.113855 14.021484 21.138672 C 14.025111 21.143011 14.031403 21.146085 14.035156 21.150391 C 14.051315 21.16533 14.066279 21.180876 14.083984 21.195312 C 14.101503 21.217366 14.131587 21.234684 14.152344 21.255859 C 14.171072 21.28025 14.199954 21.300894 14.222656 21.324219 C 14.242244 21.349969 14.272823 21.37193 14.296875 21.396484 C 14.315955 21.421567 14.345778 21.44286 14.369141 21.466797 C 14.388229 21.491929 14.417974 21.513139 14.441406 21.537109 C 14.460758 21.562653 14.491742 21.583091 14.515625 21.607422 C 14.53493 21.633036 14.563983 21.655303 14.587891 21.679688 C 14.607658 21.705822 14.639454 21.727118 14.664062 21.751953 C 14.682334 21.77593 14.710017 21.797443 14.732422 21.820312 C 14.752529 21.847173 14.785223 21.869069 14.810547 21.894531 C 14.829117 21.918962 14.857906 21.939636 14.880859 21.962891 C 14.900258 21.988683 14.930753 22.010686 14.955078 22.035156 C 14.97424 22.060634 15.005271 22.081296 15.029297 22.105469 C 15.048029 22.130354 15.076179 22.152156 15.099609 22.175781 C 15.118994 22.201703 15.149297 22.223506 15.173828 22.248047 C 15.192976 22.273652 15.223816 22.294118 15.248047 22.318359 C 15.267438 22.34425 15.297617 22.36615 15.322266 22.390625 C 15.340652 22.415058 15.369442 22.435828 15.392578 22.458984 C 15.411894 22.484994 15.44205 22.506699 15.466797 22.53125 C 15.485562 22.556518 15.515103 22.577688 15.539062 22.601562 C 15.558726 22.628101 15.589781 22.650804 15.615234 22.675781 C 15.633262 22.699749 15.662713 22.719516 15.685547 22.742188 C 15.704434 22.767903 15.733348 22.790233 15.757812 22.814453 C 15.777214 22.840805 15.808654 22.861965 15.833984 22.886719 C 15.852204 22.911241 15.880857 22.931962 15.904297 22.955078 C 15.923992 22.982081 15.954393 23.005967 15.980469 23.03125 C 15.99858 23.055522 16.027412 23.076759 16.050781 23.099609 C 16.069544 23.125141 16.100359 23.145977 16.125 23.169922 C 16.145592 23.198139 16.179194 23.221803 16.207031 23.248047 C 16.226958 23.274279 16.256882 23.29585 16.283203 23.320312 C 16.301947 23.344755 16.329118 23.365793 16.353516 23.388672 C 16.372922 23.414506 16.399996 23.43686 16.425781 23.460938 C 16.445277 23.486727 16.474049 23.509201 16.5 23.533203 C 16.518559 23.557589 16.547831 23.57685 16.572266 23.599609 C 16.592516 23.62697 16.620735 23.650481 16.648438 23.675781 C 16.667032 23.700222 16.694071 23.721389 16.71875 23.744141 C 16.737968 23.76977 16.766979 23.790702 16.792969 23.814453 C 16.812185 23.840338 16.839011 23.862773 16.865234 23.886719 C 16.88454 23.91255 16.913051 23.935128 16.939453 23.958984 C 16.95807 23.983736 16.986462 24.004441 17.011719 24.027344 C 17.030572 24.052942 17.057936 24.07405 17.083984 24.097656 C 17.103422 24.124123 17.130959 24.147582 17.158203 24.171875 C 17.176708 24.196633 17.204979 24.217427 17.230469 24.240234 C 17.249324 24.265787 17.278282 24.287102 17.304688 24.310547 C 17.323546 24.336436 17.350221 24.359115 17.376953 24.382812 C 17.396045 24.408843 17.423972 24.431321 17.451172 24.455078 C 17.469495 24.479857 17.497606 24.500765 17.523438 24.523438 C 17.54259 24.549968 17.569784 24.57357 17.597656 24.597656 C 17.615955 24.622547 17.64376 24.643338 17.669922 24.666016 C 17.688582 24.691783 17.716916 24.71297 17.744141 24.736328 C 17.762762 24.76241 17.788851 24.785018 17.816406 24.808594 C 17.834658 24.833954 17.861782 24.855978 17.888672 24.878906 C 17.907083 24.904596 17.935439 24.926082 17.962891 24.949219 C 17.981263 24.975283 18.007301 24.99809 18.035156 25.021484 C 18.053495 25.047304 18.081517 25.068675 18.109375 25.091797 C 18.127432 25.117325 18.154068 25.139278 18.181641 25.162109 C 18.200226 25.188834 18.226654 25.212622 18.255859 25.236328 C 18.273567 25.261193 18.300946 25.282528 18.328125 25.304688 C 18.346217 25.330663 18.373718 25.352033 18.402344 25.375 C 18.420054 25.400911 18.446175 25.422447 18.474609 25.445312 C 18.492363 25.471466 18.517935 25.494612 18.546875 25.517578 C 18.564798 25.543741 18.591682 25.56699 18.621094 25.589844 C 18.638488 25.615311 18.664772 25.637909 18.693359 25.660156 C 18.710948 25.686184 18.73801 25.707904 18.767578 25.730469 C 18.784872 25.756271 18.810448 25.778478 18.839844 25.800781 C 18.857233 25.827353 18.883526 25.85028 18.914062 25.873047 C 18.931074 25.898752 18.956606 25.921354 18.986328 25.943359 C 19.003662 25.969811 19.029389 25.993236 19.060547 26.015625 C 19.07722 26.040876 19.103086 26.062573 19.132812 26.083984 C 19.149422 26.110491 19.173734 26.134051 19.205078 26.15625 C 19.22171 26.182535 19.247673 26.206669 19.279297 26.228516 C 19.295413 26.25367 19.321169 26.275968 19.351562 26.296875 C 19.367807 26.32394 19.39261 26.347107 19.425781 26.369141 C 19.441397 26.39484 19.466504 26.416548 19.498047 26.4375 C 19.508505 26.455614 19.522081 26.472442 19.541016 26.488281 C 19.551753 26.501175 19.568683 26.514626 19.580078 26.527344 C 19.58306 26.531251 19.584461 26.535273 19.587891 26.539062 C 19.602765 26.557501 19.618566 26.575662 19.634766 26.59375 C 19.653792 26.618046 19.672061 26.642316 19.693359 26.666016 C 19.712595 26.690391 19.732396 26.714506 19.753906 26.738281 C 19.771234 26.760076 19.789453 26.781418 19.808594 26.802734 C 19.82603 26.824818 19.843996 26.845589 19.863281 26.867188 C 19.882611 26.891884 19.900253 26.917311 19.921875 26.941406 C 19.941123 26.965757 19.960954 26.989906 19.982422 27.013672 C 19.999825 27.035535 20.017923 27.056732 20.037109 27.078125 C 20.054837 27.100541 20.072207 27.122605 20.091797 27.144531 C 20.111627 27.169754 20.132128 27.194142 20.154297 27.21875 C 20.172026 27.241053 20.189432 27.263334 20.208984 27.285156 C 20.227216 27.308179 20.245462 27.331 20.265625 27.353516 C 20.283314 27.375843 20.300816 27.398069 20.320312 27.419922 C 20.340452 27.445503 20.36032 27.471132 20.382812 27.496094 C 20.400228 27.517916 20.418375 27.539175 20.4375 27.560547 C 20.45572 27.583516 20.47404 27.606432 20.494141 27.628906 C 20.511877 27.651267 20.529317 27.673418 20.548828 27.695312 C 20.568981 27.720869 20.588877 27.746533 20.611328 27.771484 C 20.62875 27.793287 20.646923 27.814575 20.666016 27.835938 C 20.68431 27.858974 20.702509 27.881747 20.722656 27.904297 C 20.741487 27.928002 20.760469 27.951417 20.78125 27.974609 C 20.799272 27.997281 20.818093 28.018811 20.837891 28.041016 C 20.85651 28.064491 20.874019 28.08835 20.894531 28.111328 C 20.912835 28.134344 20.931057 28.157148 20.951172 28.179688 C 20.970287 28.203718 20.99064 28.226486 21.011719 28.25 C 21.028968 28.271595 21.045623 28.293273 21.064453 28.314453 C 21.083608 28.338662 21.101921 28.363027 21.123047 28.386719 C 21.141334 28.409683 21.159634 28.432578 21.179688 28.455078 C 21.198291 28.478441 21.217858 28.500554 21.238281 28.523438 C 21.256915 28.546873 21.274467 28.570793 21.294922 28.59375 C 21.313238 28.616727 21.331504 28.639591 21.351562 28.662109 C 21.369919 28.685138 21.388105 28.707898 21.408203 28.730469 C 21.427605 28.754799 21.447414 28.778913 21.46875 28.802734 C 22.031134 29.503564 23.396724 30 25 30 C 27.104762 30 28.808594 29.148084 28.808594 28.095703 C 28.808594 27.77142 28.638786 27.468682 28.353516 27.201172 C 28.327843 27.174122 28.301549 27.147418 28.273438 27.121094 C 28.248114 27.094457 28.221061 27.068898 28.193359 27.042969 C 28.167488 27.015751 28.139694 26.989365 28.111328 26.962891 C 28.08699 26.937404 28.059743 26.913502 28.033203 26.888672 C 28.007917 26.862049 27.980823 26.836452 27.953125 26.810547 C 27.92783 26.78391 27.900768 26.758336 27.873047 26.732422 C 27.84891 26.706997 27.823235 26.682968 27.796875 26.658203 C 27.770662 26.630434 27.743716 26.603151 27.714844 26.576172 C 27.68983 26.549803 27.662193 26.52565 27.634766 26.5 C 27.609435 26.473241 27.582515 26.447891 27.554688 26.421875 C 27.528502 26.394205 27.501523 26.366716 27.472656 26.339844 C 27.448346 26.314327 27.42114 26.290456 27.394531 26.265625 C 27.369299 26.238995 27.342198 26.213383 27.314453 26.1875 C 27.289227 26.160867 27.262127 26.135256 27.234375 26.109375 C 27.20915 26.08274 27.182061 26.057129 27.154297 26.03125 C 27.129079 26.004613 27.10199 25.979002 27.074219 25.953125 C 27.049032 25.926516 27.021889 25.900847 26.994141 25.875 C 26.968961 25.848389 26.941818 25.822719 26.914062 25.796875 C 26.888274 25.769612 26.860536 25.74325 26.832031 25.716797 C 26.819763 25.703893 26.811714 25.690457 26.798828 25.677734 C 27.369054 24.749005 27.857134 23.708902 27.857422 22.833984 C 27.857422 22.03525 27.521611 21.317411 26.986328 20.802734 C 26.960013 20.775474 26.933634 20.748858 26.90625 20.722656 C 26.879831 20.695444 26.853659 20.668727 26.826172 20.642578 C 26.803228 20.619062 26.779605 20.596937 26.755859 20.574219 C 26.732944 20.550614 26.711221 20.526713 26.6875 20.503906 C 26.661185 20.476646 26.634806 20.45003 26.607422 20.423828 C 26.582943 20.398616 26.558601 20.37391 26.533203 20.349609 C 26.506785 20.322397 26.480612 20.295681 26.453125 20.269531 C 26.430151 20.245982 26.406591 20.223921 26.382812 20.201172 C 26.359897 20.177567 26.338175 20.153666 26.314453 20.130859 C 26.288138 20.103599 26.261759 20.076983 26.234375 20.050781 C 26.209868 20.025537 26.185585 20.000893 26.160156 19.976562 C 26.133738 19.94935 26.107566 19.922634 26.080078 19.896484 C 26.057104 19.872936 26.033544 19.850874 26.009766 19.828125 C 25.98685 19.80452 25.965128 19.780619 25.941406 19.757812 C 25.915091 19.730552 25.888712 19.703936 25.861328 19.677734 C 25.83491 19.650522 25.808737 19.623806 25.78125 19.597656 C 25.758306 19.57414 25.734683 19.552015 25.710938 19.529297 C 25.686393 19.504014 25.662187 19.479444 25.636719 19.455078 C 25.613803 19.431473 25.592081 19.407572 25.568359 19.384766 C 25.542044 19.357505 25.515665 19.330889 25.488281 19.304688 C 25.461863 19.277475 25.435691 19.250759 25.408203 19.224609 C 25.385259 19.201094 25.361636 19.178968 25.337891 19.15625 C 25.313346 19.130967 25.28914 19.106397 25.263672 19.082031 C 25.240807 19.058478 25.21898 19.034477 25.195312 19.011719 C 25.168998 18.984459 25.142619 18.957842 25.115234 18.931641 C 25.088816 18.904428 25.062644 18.877712 25.035156 18.851562 C 25.012213 18.828047 24.98859 18.805921 24.964844 18.783203 C 24.941928 18.759598 24.920206 18.735697 24.896484 18.712891 C 24.870169 18.68563 24.84379 18.659014 24.816406 18.632812 C 24.791927 18.6076 24.767585 18.582894 24.742188 18.558594 C 24.715769 18.531381 24.689597 18.504665 24.662109 18.478516 C 24.639136 18.454967 24.615575 18.432905 24.591797 18.410156 C 24.568881 18.386552 24.547159 18.36265 24.523438 18.339844 C 24.497123 18.312584 24.470744 18.285967 24.443359 18.259766 C 24.418852 18.234522 24.394569 18.209877 24.369141 18.185547 C 24.342722 18.158334 24.31655 18.131618 24.289062 18.105469 C 24.266089 18.08192 24.242528 18.059858 24.21875 18.037109 C 24.195835 18.013505 24.174112 17.989603 24.150391 17.966797 C 24.124076 17.939537 24.097697 17.91292 24.070312 17.886719 C 24.043894 17.859506 24.017722 17.83279 23.990234 17.806641 C 23.967291 17.783125 23.943668 17.760999 23.919922 17.738281 C 23.895377 17.712999 23.871171 17.688428 23.845703 17.664062 C 23.822788 17.640458 23.801065 17.616556 23.777344 17.59375 C 23.751029 17.56649 23.72465 17.539873 23.697266 17.513672 C 23.670847 17.486459 23.644675 17.459743 23.617188 17.433594 C 23.594244 17.410078 23.570621 17.387952 23.546875 17.365234 C 23.52233 17.339952 23.498124 17.315382 23.472656 17.291016 C 23.449791 17.267463 23.427965 17.243461 23.404297 17.220703 C 23.377982 17.193443 23.351603 17.166827 23.324219 17.140625 C 23.2978 17.113412 23.271628 17.086696 23.244141 17.060547 C 23.221197 17.037031 23.197574 17.014906 23.173828 16.992188 C 23.150913 16.968583 23.12919 16.944681 23.105469 16.921875 C 23.079154 16.894615 23.052775 16.867998 23.025391 16.841797 C 23.000883 16.816553 22.9766 16.791908 22.951172 16.767578 C 22.924753 16.740366 22.898581 16.713649 22.871094 16.6875 C 22.84812 16.663951 22.824559 16.64189 22.800781 16.619141 C 22.777866 16.595536 22.756143 16.571635 22.732422 16.548828 C 22.706107 16.521568 22.679728 16.494952 22.652344 16.46875 C 22.627836 16.443506 22.603553 16.418861 22.578125 16.394531 C 22.551706 16.367319 22.525534 16.340602 22.498047 16.314453 C 22.475073 16.290904 22.451512 16.268843 22.427734 16.246094 C 22.404819 16.222489 22.383096 16.198588 22.359375 16.175781 C 22.33306 16.148521 22.306681 16.121905 22.279297 16.095703 C 22.252878 16.068491 22.226706 16.041774 22.199219 16.015625 C 22.176275 15.992109 22.152652 15.969984 22.128906 15.947266 C 22.104362 15.921983 22.080156 15.897413 22.054688 15.873047 C 22.0318 15.849471 22.01002 15.825514 21.986328 15.802734 C 21.960013 15.775474 21.933634 15.748858 21.90625 15.722656 C 21.879831 15.695444 21.853659 15.668727 21.826172 15.642578 C 21.803228 15.619062 21.779605 15.596937 21.755859 15.574219 C 21.732944 15.550614 21.711221 15.526713 21.6875 15.503906 C 21.661185 15.476646 21.634806 15.45003 21.607422 15.423828 C 21.582943 15.398616 21.558601 15.37391 21.533203 15.349609 C 21.506785 15.322397 21.480612 15.295681 21.453125 15.269531 C 21.430151 15.245982 21.406591 15.223921 21.382812 15.201172 C 21.359897 15.177567 21.338175 15.153666 21.314453 15.130859 C 21.288138 15.103599 21.261759 15.076983 21.234375 15.050781 C 21.209868 15.025537 21.185585 15.000893 21.160156 14.976562 C 21.133738 14.94935 21.107566 14.922634 21.080078 14.896484 C 21.057104 14.872936 21.033544 14.850874 21.009766 14.828125 C 20.98685 14.80452 20.965128 14.780619 20.941406 14.757812 C 20.915091 14.730552 20.888712 14.703936 20.861328 14.677734 C 20.83491 14.650522 20.808737 14.623806 20.78125 14.597656 C 20.758306 14.57414 20.734683 14.552015 20.710938 14.529297 C 20.686393 14.504014 20.662187 14.479444 20.636719 14.455078 C 20.613803 14.431473 20.592081 14.407572 20.568359 14.384766 C 20.542044 14.357505 20.515665 14.330889 20.488281 14.304688 C 20.461863 14.277475 20.435691 14.250759 20.408203 14.224609 C 20.385259 14.201094 20.361636 14.178968 20.337891 14.15625 C 20.313346 14.130967 20.28914 14.106397 20.263672 14.082031 C 20.240807 14.058478 20.21898 14.034477 20.195312 14.011719 C 20.168998 13.984459 20.142619 13.957842 20.115234 13.931641 C 20.088816 13.904428 20.062644 13.877712 20.035156 13.851562 C 20.012213 13.828047 19.98859 13.805921 19.964844 13.783203 C 19.941928 13.759598 19.920206 13.735697 19.896484 13.712891 C 19.870169 13.68563 19.84379 13.659014 19.816406 13.632812 C 19.791927 13.6076 19.767585 13.582894 19.742188 13.558594 C 19.715769 13.531381 19.689597 13.504665 19.662109 13.478516 C 19.639136 13.454967 19.615575 13.432905 19.591797 13.410156 C 19.568881 13.386552 19.547159 13.36265 19.523438 13.339844 C 19.497123 13.312584 19.470744 13.285967 19.443359 13.259766 C 19.418852 13.234522 19.394569 13.209877 19.369141 13.185547 C 19.342722 13.158334 19.31655 13.131618 19.289062 13.105469 C 19.266089 13.08192 19.242528 13.059858 19.21875 13.037109 C 19.195835 13.013505 19.174112 12.989603 19.150391 12.966797 C 19.124076 12.939537 19.097697 12.91292 19.070312 12.886719 C 19.043894 12.859506 19.017722 12.83279 18.990234 12.806641 C 18.967291 12.783125 18.943668 12.760999 18.919922 12.738281 C 18.895377 12.712999 18.871171 12.688428 18.845703 12.664062 C 18.822788 12.640458 18.801065 12.616556 18.777344 12.59375 C 18.751029 12.56649 18.72465 12.539873 18.697266 12.513672 C 18.670847 12.486459 18.644675 12.459743 18.617188 12.433594 C 18.594244 12.410078 18.570621 12.387952 18.546875 12.365234 C 18.52233 12.339952 18.498124 12.315382 18.472656 12.291016 C 18.449791 12.267463 18.427965 12.243461 18.404297 12.220703 C 18.377982 12.193443 18.351603 12.166827 18.324219 12.140625 C 18.2978 12.113412 18.271628 12.086696 18.244141 12.060547 C 18.221197 12.037031 18.197574 12.014906 18.173828 11.992188 C 18.150913 11.968583 18.12919 11.944681 18.105469 11.921875 C 18.079154 11.894615 18.052775 11.867998 18.025391 11.841797 C 18.000883 11.816553 17.9766 11.791908 17.951172 11.767578 C 17.924753 11.740366 17.898581 11.713649 17.871094 11.6875 C 17.84812 11.663951 17.824559 11.64189 17.800781 11.619141 C 17.777866 11.595536 17.756143 11.571635 17.732422 11.548828 C 17.706107 11.521568 17.679728 11.494952 17.652344 11.46875 C 17.627836 11.443506 17.603553 11.418861 17.578125 11.394531 C 17.551706 11.367319 17.525534 11.340602 17.498047 11.314453 C 17.475073 11.290904 17.451512 11.268843 17.427734 11.246094 C 17.404819 11.222489 17.383096 11.198588 17.359375 11.175781 C 17.33306 11.148521 17.306681 11.121905 17.279297 11.095703 C 17.252878 11.068491 17.226706 11.041774 17.199219 11.015625 C 17.176275 10.992109 17.152652 10.969984 17.128906 10.947266 C 17.104362 10.921983 17.080156 10.897413 17.054688 10.873047 C 17.0318 10.849471 17.01002 10.825514 16.986328 10.802734 C 16.960013 10.775474 16.933634 10.748858 16.90625 10.722656 C 16.879831 10.695444 16.853659 10.668727 16.826172 10.642578 C 16.803228 10.619062 16.779605 10.596937 16.755859 10.574219 C 16.732944 10.550614 16.711221 10.526713 16.6875 10.503906 C 16.661185 10.476646 16.634806 10.45003 16.607422 10.423828 C 16.582943 10.398616 16.558601 10.37391 16.533203 10.349609 C 16.506785 10.322397 16.480612 10.295681 16.453125 10.269531 C 16.430151 10.245982 16.406591 10.223921 16.382812 10.201172 C 16.359897 10.177567 16.338175 10.153666 16.314453 10.130859 C 16.288138 10.103599 16.261759 10.076983 16.234375 10.050781 C 16.209868 10.025537 16.185585 10.000893 16.160156 9.9765625 C 16.133738 9.9493499 16.107566 9.9226337 16.080078 9.8964844 C 16.057104 9.8729356 16.033544 9.850874 16.009766 9.828125 C 15.98685 9.8045204 15.965128 9.7806189 15.941406 9.7578125 C 15.915091 9.7305523 15.888712 9.7039359 15.861328 9.6777344 C 15.83491 9.6505218 15.808737 9.6238056 15.78125 9.5976562 C 15.758306 9.5741405 15.734683 9.552015 15.710938 9.5292969 C 15.686393 9.5040142 15.662187 9.4794441 15.636719 9.4550781 C 15.613803 9.4314735 15.592081 9.407572 15.568359 9.3847656 C 15.542044 9.3575054 15.515666 9.3308891 15.488281 9.3046875 C 15.461863 9.2774749 15.435691 9.2507587 15.408203 9.2246094 C 15.385259 9.2010936 15.361636 9.1789681 15.337891 9.15625 C 15.313346 9.1309673 15.28914 9.1063972 15.263672 9.0820312 C 15.240807 9.0584782 15.21898 9.034477 15.195312 9.0117188 C 15.168998 8.9844585 15.142619 8.9578422 15.115234 8.9316406 C 15.088816 8.9044281 15.062644 8.8777119 15.035156 8.8515625 C 15.012213 8.8280467 14.98859 8.8059212 14.964844 8.7832031 C 14.941928 8.7595985 14.920206 8.735697 14.896484 8.7128906 C 14.870169 8.6856304 14.84379 8.6590141 14.816406 8.6328125 C 14.791927 8.6076002 14.767585 8.5828944 14.742188 8.5585938 C 14.715769 8.5313812 14.689597 8.504665 14.662109 8.4785156 C 14.639136 8.4549668 14.615575 8.4329052 14.591797 8.4101562 C 14.568881 8.3865516 14.547159 8.3626501 14.523438 8.3398438 C 14.497123 8.3125835 14.470744 8.2859672 14.443359 8.2597656 C 14.418852 8.2345216 14.394569 8.209877 14.369141 8.1855469 C 14.342722 8.1583343 14.31655 8.1316181 14.289062 8.1054688 C 14.266089 8.08192 14.242528 8.0598583 14.21875 8.0371094 C 14.195835 8.0135047 14.174112 7.9896033 14.150391 7.9667969 C 14.124076 7.9395366 14.097697 7.9129203 14.070312 7.8867188 C 14.043894 7.8595062 14.017722 7.83279 13.990234 7.8066406 C 13.967291 7.7831248 13.943668 7.7609993 13.919922 7.7382812 C 13.895377 7.7129986 13.871171 7.6884285 13.845703 7.6640625 C 13.822788 7.6404579 13.801065 7.6165564 13.777344 7.59375 C 13.751029 7.5664898 13.72465 7.5398735 13.697266 7.5136719 C 13.670847 7.4864593 13.644675 7.4597431 13.617188 7.4335938 C 13.594244 7.410078 13.570621 7.3879525 13.546875 7.3652344 C 13.52233 7.3399517 13.498124 7.3153816 13.472656 7.2910156 C 13.449791 7.2674626 13.427965 7.2434614 13.404297 7.2207031 C 13.377982 7.1934429 13.351603 7.1668266 13.324219 7.140625 C 13.2978 7.1134124 13.271628 7.0866962 13.244141 7.0605469 C 13.221197 7.0370311 13.197574 7.0149056 13.173828 6.9921875 C 13.150913 6.9685829 13.12919 6.9446814 13.105469 6.921875 C 13.079154 6.8946148 13.052775 6.8679985 13.025391 6.8417969 C 13.000883 6.8165528 12.9766 6.7919083 12.951172 6.7675781 C 12.924753 6.7403656 12.898581 6.7136494 12.871094 6.6875 C 12.84812 6.6639512 12.824559 6.6418896 12.800781 6.6191406 C 12.777866 6.595536 12.756143 6.5716345 12.732422 6.5488281 C 12.706107 6.5215679 12.679728 6.4949516 12.652344 6.46875 C 12.627836 6.443506 12.603553 6.4188614 12.578125 6.3945312 C 12.551706 6.3673187 12.525534 6.3406025 12.498047 6.3144531 C 12.475073 6.2909043 12.451512 6.2688427 12.427734 6.2460938 C 12.404819 6.2224891 12.383096 6.1985876 12.359375 6.1757812 C 12.33306 6.148521 12.306681 6.1219047 12.279297 6.0957031 C 12.252878 6.0684906 12.226706 6.0417744 12.199219 6.015625 C 12.176275 5.9921092 12.152652 5.9699837 12.128906 5.9472656 C 12.104362 5.921983 12.080156 5.8974129 12.054688 5.8730469 C 11.534625 5.3373442 10.808168 5 10 5 z "
       id="path5332"
       clip-path="url(#clipPath6210)" />
    <path
       d="m 3.9999777,4.0333382 12.0000003,0 0,11.9333328 -12.0000003,0 z"
       id="path4"
       inkscape:connector-curvature="0"
       style="fill:none" />
    <path
       style="fill:none"
       inkscape:connector-curvature="0"
       id="path9754"
       d="m 18.999978,19.033339 12,0 0,11.933333 -12,0 z" />
    <ellipse
       style="opacity:1;fill:#efebe9;fill-opacity:1;stroke:none"
       id="path6214"
       cx="9.7069349"
       cy="7.8623857"
       rx="1.246907"
       ry="1.1837726" />
    <path
       inkscape:connector-curvature="0"
       d="m 9.9999776,5.0000048 c 1.5761904,0 2.8571434,1.2666666 2.8571434,2.8333333 0,2.1238094 -2.8571434,5.2619049 -2.8571434,5.2619049 0,0 -2.8571429,-3.1380955 -2.8571429,-5.2619049 0,-1.5666667 1.2809523,-2.8333333 2.8571429,-2.8333333 m 0,1.9047618 A 0.95238094,0.95238094 0 0 0 9.0475965,7.8571476 0.95238094,0.95238094 0 0 0 9.9999776,8.8095285 0.95238094,0.95238094 0 0 0 10.952359,7.8571476 0.95238094,0.95238094 0 0 0 9.9999776,6.9047666 m 3.8095244,6.1904764 c 0,1.052381 -1.704762,1.904762 -3.8095244,1.904762 -2.1047619,0 -3.8095238,-0.852381 -3.8095238,-1.904762 0,-0.614286 0.5809524,-1.161905 1.4809524,-1.509524 l 0.3047618,0.433333 c -0.5142856,0.214286 -0.8333333,0.509524 -0.8333333,0.838096 0,0.657143 1.2809523,1.190476 2.8571429,1.190476 1.5761904,0 2.8571434,-0.533333 2.8571434,-1.190476 0,-0.328572 -0.319048,-0.62381 -0.833334,-0.838096 l 0.304762,-0.433333 c 0.9,0.347619 1.480953,0.895238 1.480953,1.509524 z"
       id="path5260"
       style="fill:#f44336" />
  </g>
</svg>
