<?xml version="1.0" encoding="UTF-8" standalone="no"?>
<!-- Created with Inkscape (http://www.inkscape.org/) -->

<svg
   xmlns:dc="http://purl.org/dc/elements/1.1/"
   xmlns:cc="http://creativecommons.org/ns#"
   xmlns:rdf="http://www.w3.org/1999/02/22-rdf-syntax-ns#"
   xmlns:svg="http://www.w3.org/2000/svg"
   xmlns="http://www.w3.org/2000/svg"
   xmlns:xlink="http://www.w3.org/1999/xlink"
   xmlns:sodipodi="http://sodipodi.sourceforge.net/DTD/sodipodi-0.dtd"
   xmlns:inkscape="http://www.inkscape.org/namespaces/inkscape"
   sodipodi:docname="B.svg"
   inkscape:version="0.91 r13725"
   version="1.1"
   id="svg2"
   viewBox="0 0 20 20"
   height="5.6444445mm"
   width="5.6444445mm">
  <sodipodi:namedview
     inkscape:snap-to-guides="true"
     inkscape:snap-grids="true"
     inkscape:window-maximized="1"
     inkscape:window-y="24"
     inkscape:window-x="0"
     inkscape:window-height="744"
     inkscape:window-width="1366"
     inkscape:guide-bbox="true"
     showguides="true"
     fit-margin-bottom="0"
     fit-margin-right="0"
     fit-margin-left="0"
     fit-margin-top="0"
     showgrid="true"
     inkscape:current-layer="layer1"
     inkscape:document-units="px"
     inkscape:cy="4.0652705"
     inkscape:cx="11.975975"
     inkscape:zoom="15.839192"
     inkscape:pageshadow="2"
     inkscape:pageopacity="0.0"
     borderopacity="1.0"
     bordercolor="#666666"
     pagecolor="#ffffff"
     id="base">
    <inkscape:grid
       type="xygrid"
       id="grid4138" />
    <sodipodi:guide
       position="10,18"
       orientation="0,1"
       id="guide4140" />
    <sodipodi:guide
       position="10,2"
       orientation="0,1"
       id="guide4142" />
    <sodipodi:guide
       position="2,10"
       orientation="1,0"
       id="guide4144" />
    <sodipodi:guide
       position="0,0"
       orientation="0,20"
       id="guide4146" />
    <sodipodi:guide
       position="20,0"
       orientation="-20,0"
       id="guide4148" />
    <sodipodi:guide
       position="20,20"
       orientation="0,-20"
       id="guide4150" />
    <sodipodi:guide
       position="0,20"
       orientation="20,0"
       id="guide4152" />
    <sodipodi:guide
       position="18,10"
       orientation="1,0"
       id="guide4154" />
    <sodipodi:guide
       position="10,10"
       orientation="-0.70710678,0.70710678"
       id="guide4156" />
    <sodipodi:guide
       position="10,10"
       orientation="0.70710678,0.70710678"
       id="guide4158" />
    <sodipodi:guide
       position="4,10"
       orientation="1,0"
       id="guide4160" />
    <sodipodi:guide
       position="16,10"
       orientation="1,0"
       id="guide4162" />
    <sodipodi:guide
       position="10,16"
       orientation="0,1"
       id="guide4164" />
    <sodipodi:guide
       position="10,4"
       orientation="0,1"
       id="guide4166" />
    <sodipodi:guide
       position="10,15"
       orientation="0,1"
       id="guide4168" />
    <sodipodi:guide
       position="10,5"
       orientation="0,1"
       id="guide4170" />
    <sodipodi:guide
       position="5,10"
       orientation="1,0"
       id="guide4172" />
    <sodipodi:guide
       position="15,10"
       orientation="1,0"
       id="guide4174" />
  </sodipodi:namedview>
  <defs
     id="defs4">
    <linearGradient
       inkscape:collect="always"
       id="linearGradient8208">
      <stop
         style="stop-color:#000000;stop-opacity:0.2"
         offset="0"
         id="stop8210" />
      <stop
         style="stop-color:#000000;stop-opacity:0;"
         offset="1"
         id="stop8212" />
    </linearGradient>
    <clipPath
       id="clipPath12478"
       clipPathUnits="userSpaceOnUse">
      <circle
         r="10"
         cy="10.000005"
         cx="9.9999781"
         id="circle12480"
         style="opacity:1;fill:#2196f3;fill-opacity:1;stroke:none;stroke-width:0.05069799;stroke-miterlimit:4;stroke-dasharray:none;stroke-opacity:1" />
    </clipPath>
    <clipPath
       clipPathUnits="userSpaceOnUse"
       id="clipPath5790">
      <circle
         r="10"
         cy="10.000005"
         cx="9.9999781"
         id="circle5792"
         style="opacity:1;fill:#2196f3;fill-opacity:1;stroke:none;stroke-width:0.05069799;stroke-miterlimit:4;stroke-dasharray:none;stroke-opacity:1"
         inkscape:export-filename="/home/juergen/path4136.png"
         inkscape:export-xdpi="648"
         inkscape:export-ydpi="648" />
    </clipPath>
    <clipPath
       id="clipPath7690"
       clipPathUnits="userSpaceOnUse">
      <circle
         r="10"
         cy="10.000005"
         cx="9.9999781"
         id="circle7692"
         style="opacity:1;fill:#2196f3;fill-opacity:1;stroke:none;stroke-width:0.05069799;stroke-miterlimit:4;stroke-dasharray:none;stroke-opacity:1"
         inkscape:export-filename="/home/juergen/Schreibtisch/path4136.png"
         inkscape:export-xdpi="648"
         inkscape:export-ydpi="648" />
    </clipPath>
    <clipPath
       clipPathUnits="userSpaceOnUse"
       id="clipPath5119">
      <circle
         r="10"
         cy="10.000005"
         cx="9.9999781"
         id="circle5121"
         style="opacity:1;fill:#ff9800;fill-opacity:1;stroke:none;stroke-width:0.05069799;stroke-miterlimit:4;stroke-dasharray:none;stroke-opacity:1"
         inkscape:export-filename="/home/juergen/Schreibtisch/path4136.png"
         inkscape:export-xdpi="648"
         inkscape:export-ydpi="648" />
    </clipPath>
    <clipPath
       id="clipPath5125"
       clipPathUnits="userSpaceOnUse">
      <circle
         r="10"
         cy="10.000005"
         cx="9.9999781"
         id="circle5127"
         style="opacity:1;fill:#e91e63;fill-opacity:1;stroke:none;stroke-width:0.05069799;stroke-miterlimit:4;stroke-dasharray:none;stroke-opacity:1"
         inkscape:export-filename="/home/juergen/Schreibtisch/path4136.png"
         inkscape:export-xdpi="648"
         inkscape:export-ydpi="648" />
    </clipPath>
    <clipPath
       clipPathUnits="userSpaceOnUse"
       id="clipPath6122">
      <circle
         r="10"
         cy="10.000005"
         cx="9.9999781"
         id="circle6124"
         style="opacity:1;fill:#ffc107;fill-opacity:1;stroke:none;stroke-width:0.05069799;stroke-miterlimit:4;stroke-dasharray:none;stroke-opacity:1"
         inkscape:export-filename="/home/juergen/Schreibtisch/path4136.png"
         inkscape:export-xdpi="648"
         inkscape:export-ydpi="648" />
    </clipPath>
    <clipPath
       id="clipPath5142"
       clipPathUnits="userSpaceOnUse">
      <circle
         r="10"
         cy="10.000005"
         cx="9.9999781"
         id="circle5144"
         style="opacity:1;fill:#ffc107;fill-opacity:1;stroke:none;stroke-width:0.05069799;stroke-miterlimit:4;stroke-dasharray:none;stroke-opacity:1"
         inkscape:export-filename="/home/juergen/Schreibtisch/path4136.png"
         inkscape:export-xdpi="648"
         inkscape:export-ydpi="648" />
    </clipPath>
    <clipPath
       clipPathUnits="userSpaceOnUse"
       id="clipPath6137">
      <circle
         r="10"
         cy="10.000005"
         cx="9.9999781"
         id="circle6139"
         style="opacity:1;fill:#ffc107;fill-opacity:1;stroke:none;stroke-width:0.05069799;stroke-miterlimit:4;stroke-dasharray:none;stroke-opacity:1"
         inkscape:export-filename="/home/juergen/Projekte/Android/Android_Studio/Baumann_Theme/theme/src/main/assets/icons/res/drawable-xxhdpi/a159.png"
         inkscape:export-xdpi="648"
         inkscape:export-ydpi="648" />
    </clipPath>
    <linearGradient
       inkscape:collect="always"
       xlink:href="#linearGradient8208"
       id="linearGradient8214"
       x1="10"
       y1="10"
       x2="20.013647"
       y2="20.063135"
       gradientUnits="userSpaceOnUse" />
    <clipPath
       clipPathUnits="userSpaceOnUse"
       id="clipPath8232">
      <circle
         r="10"
         cy="10.000005"
         cx="9.9999781"
         id="circle8234"
         style="opacity:1;fill:#3f51b5;fill-opacity:1;stroke:none;stroke-width:0.05069799;stroke-miterlimit:4;stroke-dasharray:none;stroke-opacity:1"
         inkscape:export-filename="/home/juergen/Projekte/Android/Android_Studio/Baumann_Theme/theme/src/main/assets/icons/res/drawable-xxhdpi/a161.png"
         inkscape:export-xdpi="648"
         inkscape:export-ydpi="648" />
    </clipPath>
    <clipPath
       clipPathUnits="userSpaceOnUse"
       id="clipPath8239">
      <circle
         r="10"
         cy="10.000005"
         cx="9.9999781"
         id="circle8241"
         style="opacity:1;fill:#3f51b5;fill-opacity:1;stroke:none;stroke-width:0.05069799;stroke-miterlimit:4;stroke-dasharray:none;stroke-opacity:1"
         inkscape:export-filename="/home/juergen/Projekte/Android/Android_Studio/Baumann_Theme/theme/src/main/assets/icons/res/drawable-xxhdpi/a161.png"
         inkscape:export-xdpi="648"
         inkscape:export-ydpi="648" />
    </clipPath>
  </defs>
  <metadata
     id="metadata7">
    <rdf:RDF>
      <cc:Work
         rdf:about="">
        <dc:format>image/svg+xml</dc:format>
        <dc:type
           rdf:resource="http://purl.org/dc/dcmitype/StillImage" />
        <dc:title></dc:title>
      </cc:Work>
    </rdf:RDF>
  </metadata>
  <g
     inkscape:label="Hintergrund"
     inkscape:groupmode="layer"
     id="layer1"
     transform="translate(1058.1428,-861.93365)">
    <circle
       inkscape:export-ydpi="648"
       inkscape:export-xdpi="648"
       inkscape:export-filename="/home/juergen/Projekte/Android/Android_Studio/Baumann_Theme/theme/src/main/assets/icons/res/drawable-xxhdpi/a161.png"
       style="opacity:1;fill:#3f51b5;fill-opacity:1;stroke:none;stroke-width:0.05069799;stroke-miterlimit:4;stroke-dasharray:none;stroke-opacity:1"
       id="path4136"
       cx="-1048.1428"
       cy="871.93365"
       r="10" />
    <circle
       r="10"
       cy="871.93365"
       cx="-1048.1428"
       id="circle6169"
       style="opacity:1;fill:#3f51b5;fill-opacity:1;stroke:none;stroke-width:0.05069799;stroke-miterlimit:4;stroke-dasharray:none;stroke-opacity:1"
       inkscape:export-filename="/home/juergen/Projekte/Android/Android_Studio/Baumann_Theme/theme/src/main/assets/icons/res/drawable-xxhdpi/a161.png"
       inkscape:export-xdpi="648"
       inkscape:export-ydpi="648" />
    <circle
       inkscape:export-ydpi="648"
       inkscape:export-xdpi="648"
       inkscape:export-filename="/home/juergen/Projekte/Android/Android_Studio/Baumann_Theme/theme/src/main/assets/icons/res/drawable-xxhdpi/a161.png"
       style="opacity:1;fill:#03a9f4;fill-opacity:1;stroke:none;stroke-width:0.05069799;stroke-miterlimit:4;stroke-dasharray:none;stroke-opacity:1"
       id="circle8216"
       cx="-1048.1428"
       cy="871.93365"
       r="10" />
  </g>
  <g
     style="display:inline"
     inkscape:groupmode="layer"
     id="layer2"
     inkscape:label="Icon">
    <path
       style="font-style:normal;font-weight:normal;font-size:medium;line-height:125%;font-family:sans-serif;letter-spacing:0px;word-spacing:0px;fill:url(#linearGradient8214);fill-opacity:1;stroke:none;stroke-width:1;stroke-linecap:butt;stroke-linejoin:miter;stroke-opacity:1"
       d="M 6.453125 5 L 6.453125 15 L 6.5273438 15 L 6.5273438 15.074219 L 6.546875 15.074219 L 6.6035156 15.074219 L 6.6035156 15.148438 L 6.6386719 15.148438 L 6.6777344 15.148438 L 6.6777344 15.224609 L 6.7304688 15.224609 L 6.7519531 15.224609 L 6.7519531 15.298828 L 6.8242188 15.298828 L 6.8261719 15.298828 L 6.8261719 15.373047 L 6.9003906 15.373047 L 6.9003906 15.447266 L 6.9765625 15.447266 L 6.9765625 15.521484 L 7.0507812 15.521484 L 7.0507812 15.597656 L 7.125 15.597656 L 7.125 15.671875 L 7.1992188 15.671875 L 7.1992188 15.746094 L 7.2734375 15.746094 L 7.2734375 15.820312 L 7.3496094 15.820312 L 7.3496094 15.896484 L 7.4238281 15.896484 L 7.4238281 15.970703 L 7.4980469 15.970703 L 7.4980469 16.044922 L 7.5722656 16.044922 L 7.5722656 16.119141 L 7.6484375 16.119141 L 7.6484375 16.193359 L 7.7226562 16.193359 L 7.7226562 16.269531 L 7.796875 16.269531 L 7.796875 16.34375 L 7.8710938 16.34375 L 7.8710938 16.417969 L 7.9453125 16.417969 L 7.9453125 16.492188 L 8.0214844 16.492188 L 8.0214844 16.566406 L 8.0957031 16.566406 L 8.0957031 16.642578 L 8.1699219 16.642578 L 8.1699219 16.716797 L 8.2441406 16.716797 L 8.2441406 16.791016 L 8.3183594 16.791016 L 8.3183594 16.865234 L 8.3945312 16.865234 L 8.3945312 16.939453 L 8.46875 16.939453 L 8.46875 17.015625 L 8.5429688 17.015625 L 8.5429688 17.089844 L 8.6171875 17.089844 L 8.6171875 17.164062 L 8.6914062 17.164062 L 8.6914062 17.238281 L 8.7675781 17.238281 L 8.7675781 17.3125 L 8.8417969 17.3125 L 8.8417969 17.388672 L 8.9160156 17.388672 L 8.9160156 17.462891 L 8.9902344 17.462891 L 8.9902344 17.537109 L 9.0644531 17.537109 L 9.0644531 17.611328 L 9.140625 17.611328 L 9.140625 17.6875 L 9.2148438 17.6875 L 9.2148438 17.761719 L 9.2890625 17.761719 L 9.2890625 17.835938 L 9.3632812 17.835938 L 9.3632812 17.910156 L 9.4394531 17.910156 L 9.4394531 17.984375 L 9.5136719 17.984375 L 9.5136719 18.060547 L 9.5878906 18.060547 L 9.5878906 18.134766 L 9.6621094 18.134766 L 9.6621094 18.208984 L 9.7363281 18.208984 L 9.7363281 18.283203 L 9.8125 18.283203 L 9.8125 18.357422 L 9.8867188 18.357422 L 9.8867188 18.433594 L 9.9609375 18.433594 L 9.9609375 18.507812 L 10.035156 18.507812 L 10.035156 18.582031 L 10.109375 18.582031 L 10.109375 18.65625 L 10.185547 18.65625 L 10.185547 18.730469 L 10.259766 18.730469 L 10.259766 18.806641 L 10.333984 18.806641 L 10.333984 18.880859 L 10.408203 18.880859 L 10.408203 18.955078 L 10.482422 18.955078 L 10.482422 19.029297 L 10.558594 19.029297 L 10.558594 19.103516 L 10.632812 19.103516 L 10.632812 19.179688 L 10.707031 19.179688 L 10.707031 19.253906 L 10.78125 19.253906 L 10.78125 19.328125 L 10.855469 19.328125 L 10.855469 19.402344 L 10.931641 19.402344 L 10.931641 19.478516 L 11.005859 19.478516 L 11.005859 19.552734 L 11.080078 19.552734 L 11.080078 19.626953 L 11.154297 19.626953 L 11.154297 19.701172 L 11.230469 19.701172 L 11.230469 19.775391 L 11.304688 19.775391 L 11.304688 19.851562 L 11.378906 19.851562 L 11.378906 19.925781 L 11.453125 19.925781 L 11.453125 20 L 11.527344 20 L 11.527344 20.074219 L 11.603516 20.074219 L 11.603516 20.148438 L 11.677734 20.148438 L 11.677734 20.224609 L 11.751953 20.224609 L 11.751953 20.298828 L 11.826172 20.298828 L 11.826172 20.373047 L 11.900391 20.373047 L 11.900391 20.447266 L 11.976562 20.447266 L 11.976562 20.521484 L 12.050781 20.521484 L 12.050781 20.597656 L 12.125 20.597656 L 12.125 20.671875 L 12.199219 20.671875 L 12.199219 20.746094 L 12.273438 20.746094 L 12.273438 20.820312 L 12.349609 20.820312 L 12.349609 20.896484 L 12.423828 20.896484 L 12.423828 20.970703 L 12.498047 20.970703 L 12.498047 21.044922 L 12.572266 21.044922 L 12.572266 21.119141 L 12.646484 21.119141 L 12.646484 21.193359 L 12.722656 21.193359 L 12.722656 21.269531 L 12.796875 21.269531 L 12.796875 21.34375 L 12.871094 21.34375 L 12.871094 21.417969 L 12.945312 21.417969 L 12.945312 21.492188 L 13.021484 21.492188 L 13.021484 21.566406 L 13.095703 21.566406 L 13.095703 21.642578 L 13.169922 21.642578 L 13.169922 21.716797 L 13.244141 21.716797 L 13.244141 21.791016 L 13.318359 21.791016 L 13.318359 21.865234 L 13.394531 21.865234 L 13.394531 21.939453 L 13.46875 21.939453 L 13.46875 22.015625 L 13.542969 22.015625 L 13.542969 22.089844 L 13.617188 22.089844 L 13.617188 22.164062 L 13.691406 22.164062 L 13.691406 22.238281 L 13.767578 22.238281 L 13.767578 22.3125 L 13.841797 22.3125 L 13.841797 22.388672 L 13.916016 22.388672 L 13.916016 22.462891 L 13.990234 22.462891 L 13.990234 22.537109 L 14.064453 22.537109 L 14.064453 22.611328 L 14.140625 22.611328 L 14.140625 22.6875 L 14.214844 22.6875 L 14.214844 22.761719 L 14.289062 22.761719 L 14.289062 22.835938 L 14.363281 22.835938 L 14.363281 22.910156 L 14.439453 22.910156 L 14.439453 22.984375 L 14.513672 22.984375 L 14.513672 23.060547 L 14.587891 23.060547 L 14.587891 23.134766 L 14.662109 23.134766 L 14.662109 23.208984 L 14.736328 23.208984 L 14.736328 23.283203 L 14.8125 23.283203 L 14.8125 23.357422 L 14.886719 23.357422 L 14.886719 23.433594 L 14.960938 23.433594 L 14.960938 23.507812 L 15.035156 23.507812 L 15.035156 23.582031 L 15.109375 23.582031 L 15.109375 23.65625 L 15.185547 23.65625 L 15.185547 23.730469 L 15.259766 23.730469 L 15.259766 23.806641 L 15.333984 23.806641 L 15.333984 23.880859 L 15.408203 23.880859 L 15.408203 23.955078 L 15.482422 23.955078 L 15.482422 24.029297 L 15.558594 24.029297 L 15.558594 24.103516 L 15.632812 24.103516 L 15.632812 24.179688 L 15.707031 24.179688 L 15.707031 24.253906 L 15.78125 24.253906 L 15.78125 24.328125 L 15.855469 24.328125 L 15.855469 24.402344 L 15.931641 24.402344 L 15.931641 24.478516 L 16.005859 24.478516 L 16.005859 24.552734 L 16.080078 24.552734 L 16.080078 24.626953 L 16.154297 24.626953 L 16.154297 24.701172 L 16.230469 24.701172 L 16.230469 24.775391 L 16.304688 24.775391 L 16.304688 24.851562 L 16.378906 24.851562 L 16.378906 24.925781 L 16.453125 24.925781 L 16.453125 25 L 16.527344 25 L 16.527344 25.074219 L 16.603516 25.074219 L 16.603516 25.148438 L 16.677734 25.148438 L 16.677734 25.224609 L 16.751953 25.224609 L 16.751953 25.298828 L 16.826172 25.298828 L 16.826172 25.373047 L 16.900391 25.373047 L 16.900391 25.447266 L 16.976562 25.447266 L 16.976562 25.521484 L 17.050781 25.521484 L 17.050781 25.597656 L 17.125 25.597656 L 17.125 25.671875 L 17.199219 25.671875 L 17.199219 25.746094 L 17.273438 25.746094 L 17.273438 25.820312 L 17.349609 25.820312 L 17.349609 25.896484 L 17.423828 25.896484 L 17.423828 25.970703 L 17.498047 25.970703 L 17.498047 26.044922 L 17.572266 26.044922 L 17.572266 26.119141 L 17.646484 26.119141 L 17.646484 26.193359 L 17.722656 26.193359 L 17.722656 26.269531 L 17.796875 26.269531 L 17.796875 26.34375 L 17.871094 26.34375 L 17.871094 26.417969 L 17.945312 26.417969 L 17.945312 26.492188 L 18.021484 26.492188 L 18.021484 26.566406 L 18.095703 26.566406 L 18.095703 26.642578 L 18.169922 26.642578 L 18.169922 26.716797 L 18.244141 26.716797 L 18.244141 26.791016 L 18.318359 26.791016 L 18.318359 26.865234 L 18.394531 26.865234 L 18.394531 26.939453 L 18.46875 26.939453 L 18.46875 27.015625 L 18.542969 27.015625 L 18.542969 27.089844 L 18.617188 27.089844 L 18.617188 27.164062 L 18.691406 27.164062 L 18.691406 27.238281 L 18.767578 27.238281 L 18.767578 27.3125 L 18.841797 27.3125 L 18.841797 27.388672 L 18.916016 27.388672 L 18.916016 27.462891 L 18.990234 27.462891 L 18.990234 27.537109 L 19.064453 27.537109 L 19.064453 27.611328 L 19.140625 27.611328 L 19.140625 27.6875 L 19.214844 27.6875 L 19.214844 27.761719 L 19.289062 27.761719 L 19.289062 27.835938 L 19.363281 27.835938 L 19.363281 27.910156 L 19.439453 27.910156 L 19.439453 27.984375 L 19.513672 27.984375 L 19.513672 28.060547 L 19.587891 28.060547 L 19.587891 28.134766 L 19.662109 28.134766 L 19.662109 28.208984 L 19.736328 28.208984 L 19.736328 28.283203 L 19.8125 28.283203 L 19.8125 28.357422 L 19.886719 28.357422 L 19.886719 28.433594 L 19.960938 28.433594 L 19.960938 28.507812 L 20.035156 28.507812 L 20.035156 28.582031 L 20.109375 28.582031 L 20.109375 28.65625 L 20.185547 28.65625 L 20.185547 28.730469 L 20.259766 28.730469 L 20.259766 28.806641 L 20.333984 28.806641 L 20.333984 28.880859 L 20.408203 28.880859 L 20.408203 28.955078 L 20.482422 28.955078 L 20.482422 29.029297 L 20.558594 29.029297 L 20.558594 29.103516 L 20.632812 29.103516 L 20.632812 29.179688 L 20.707031 29.179688 L 20.707031 29.253906 L 20.78125 29.253906 L 20.78125 29.328125 L 20.855469 29.328125 L 20.855469 29.402344 L 20.931641 29.402344 L 20.931641 29.478516 L 21.005859 29.478516 L 21.005859 29.552734 L 21.080078 29.552734 L 21.080078 29.626953 L 21.154297 29.626953 L 21.154297 29.701172 L 21.230469 29.701172 L 21.230469 29.775391 L 21.304688 29.775391 L 21.304688 29.851562 L 21.378906 29.851562 L 21.378906 29.875 L 21.378906 29.925781 L 21.453125 29.925781 L 21.453125 30 L 25.042969 30 C 26.163481 30 27.02751 29.75601 27.634766 29.269531 C 28.241896 28.782934 28.546727 28.093912 28.546875 27.201172 C 28.546875 26.52278 28.36049 25.956743 27.990234 25.505859 C 27.896703 25.389516 27.79274 25.283448 27.679688 25.1875 C 27.658083 25.165551 27.637691 25.142152 27.615234 25.121094 C 27.61347 25.119583 27.611145 25.118693 27.609375 25.117188 C 27.583805 25.093353 27.561825 25.065654 27.535156 25.042969 C 27.511911 25.021341 27.490954 24.993331 27.466797 24.972656 C 27.438188 24.945895 27.412816 24.915929 27.382812 24.890625 C 27.359172 24.868772 27.339041 24.843129 27.314453 24.822266 C 27.290148 24.799677 27.269457 24.773486 27.244141 24.751953 C 27.21859 24.728083 27.196601 24.700425 27.169922 24.677734 C 27.144333 24.653874 27.122427 24.626189 27.095703 24.603516 C 27.07016 24.579691 27.048165 24.551932 27.021484 24.529297 C 26.99959 24.508915 26.981717 24.484349 26.958984 24.464844 C 27.263215 24.344872 27.514951 24.169602 27.703125 23.931641 C 27.988903 23.569953 28.130859 23.082446 28.130859 22.470703 C 28.130859 21.680348 27.853082 21.071245 27.294922 20.642578 C 27.29019 20.638944 27.284063 20.636416 27.279297 20.632812 C 27.258623 20.615756 27.244163 20.594642 27.222656 20.578125 C 27.222656 20.574225 27.22155 20.570459 27.21875 20.568359 C 27.212191 20.563322 27.20389 20.559665 27.197266 20.554688 C 27.1808 20.541303 27.169331 20.524765 27.152344 20.511719 C 27.152344 20.503859 27.150131 20.498441 27.144531 20.494141 C 27.133247 20.485474 27.118901 20.479192 27.107422 20.470703 C 27.09814 20.463345 27.091476 20.454519 27.082031 20.447266 C 27.082031 20.435466 27.078612 20.426322 27.070312 20.419922 C 27.055671 20.408677 27.036456 20.40157 27.021484 20.390625 C 27.017734 20.387707 27.015496 20.38376 27.011719 20.380859 C 27.011719 20.365139 27.007194 20.35225 26.996094 20.34375 C 26.978954 20.330587 26.957048 20.321344 26.939453 20.308594 C 26.937929 20.292391 26.934012 20.278852 26.921875 20.269531 C 26.904307 20.256039 26.881331 20.247432 26.863281 20.234375 C 26.859854 20.219842 26.857531 20.204405 26.845703 20.195312 C 26.829234 20.182664 26.80791 20.174373 26.791016 20.162109 C 26.786645 20.146832 26.784272 20.13092 26.771484 20.121094 C 26.755016 20.108446 26.733693 20.100152 26.716797 20.087891 C 26.711357 20.073452 26.709946 20.056619 26.697266 20.046875 C 26.680829 20.034252 26.659442 20.025908 26.642578 20.013672 C 26.636348 19.999161 26.636142 19.980763 26.623047 19.970703 C 26.605458 19.957195 26.582534 19.948609 26.564453 19.935547 C 26.557682 19.923323 26.558606 19.905498 26.546875 19.896484 C 26.530386 19.883821 26.509111 19.875551 26.492188 19.863281 C 26.484787 19.850232 26.485255 19.831946 26.472656 19.822266 C 26.456168 19.809603 26.434894 19.80133 26.417969 19.789062 C 26.410149 19.77636 26.410986 19.757687 26.398438 19.748047 C 26.381982 19.735409 26.360643 19.727085 26.34375 19.714844 C 26.335528 19.70222 26.336893 19.683566 26.324219 19.673828 C 26.307764 19.661191 26.286426 19.652864 26.269531 19.640625 C 26.260872 19.627789 26.263026 19.607665 26.25 19.597656 C 26.232426 19.58416 26.209484 19.57554 26.191406 19.5625 C 26.182924 19.551194 26.18569 19.532553 26.173828 19.523438 C 26.15732 19.510759 26.136097 19.502508 26.119141 19.490234 C 26.11008 19.478143 26.112292 19.458963 26.099609 19.449219 C 26.082705 19.436236 26.060344 19.428571 26.042969 19.416016 C 26.033821 19.40436 26.037804 19.384537 26.025391 19.375 C 26.008916 19.362348 25.987628 19.354041 25.970703 19.341797 C 25.96104 19.329511 25.964267 19.308891 25.951172 19.298828 C 25.934268 19.285846 25.911912 19.278175 25.894531 19.265625 C 25.885076 19.254265 25.8893 19.234096 25.876953 19.224609 C 25.859359 19.211097 25.836473 19.202495 25.818359 19.189453 C 25.809021 19.178676 25.812663 19.159519 25.800781 19.150391 C 25.793095 19.144487 25.783177 19.140579 25.775391 19.134766 C 25.761857 19.113273 25.747931 19.092588 25.726562 19.076172 C 25.718184 19.069737 25.707716 19.06492 25.699219 19.058594 C 25.685527 19.038108 25.673071 19.017881 25.652344 19.001953 C 25.644674 18.996062 25.634724 18.992128 25.626953 18.986328 C 25.612683 18.965077 25.599658 18.942326 25.578125 18.925781 C 25.569317 18.919016 25.55777 18.914847 25.548828 18.908203 C 25.534779 18.888787 25.524042 18.867034 25.503906 18.851562 C 25.493997 18.843952 25.480782 18.839488 25.470703 18.832031 C 25.456774 18.813731 25.447028 18.792167 25.427734 18.777344 C 25.420038 18.771433 25.410143 18.767537 25.402344 18.761719 C 25.387319 18.741248 25.374844 18.719512 25.353516 18.703125 C 25.345144 18.696696 25.334666 18.691866 25.326172 18.685547 C 25.311205 18.665976 25.299962 18.644785 25.279297 18.628906 C 25.270926 18.622477 25.260447 18.617646 25.251953 18.611328 C 25.236646 18.591559 25.226038 18.568839 25.205078 18.552734 C 25.196278 18.545976 25.184719 18.541791 25.175781 18.535156 C 25.160689 18.516435 25.150982 18.493978 25.130859 18.478516 C 25.121368 18.471226 25.109261 18.466129 25.099609 18.458984 C 25.084499 18.440683 25.074523 18.419537 25.054688 18.404297 C 25.046568 18.398061 25.035581 18.394801 25.027344 18.388672 C 25.011493 18.369265 25.001422 18.346178 24.980469 18.330078 C 24.972086 18.32364 24.961634 18.318823 24.953125 18.3125 C 24.937291 18.293552 24.926873 18.271704 24.90625 18.255859 C 24.897886 18.249436 24.887397 18.24459 24.878906 18.238281 C 24.862754 18.219091 24.85297 18.195775 24.832031 18.179688 C 24.822527 18.172388 24.81045 18.167307 24.800781 18.160156 C 24.785282 18.142512 24.775408 18.120489 24.755859 18.105469 C 24.747465 18.099022 24.737039 18.094221 24.728516 18.087891 C 24.712299 18.069259 24.702214 18.047058 24.681641 18.03125 C 24.673539 18.025028 24.662519 18.021738 24.654297 18.015625 C 24.637748 17.996697 24.628357 17.973116 24.607422 17.957031 C 24.599078 17.950623 24.588551 17.945744 24.580078 17.939453 C 24.563615 17.920956 24.553795 17.898635 24.533203 17.882812 C 24.525121 17.876605 24.514063 17.873285 24.505859 17.867188 C 24.488831 17.847982 24.480335 17.823046 24.458984 17.806641 C 24.449525 17.799376 24.437362 17.794223 24.427734 17.787109 C 24.411612 17.769637 24.402525 17.747568 24.382812 17.732422 C 24.374439 17.725991 24.363975 17.721155 24.355469 17.714844 C 24.338722 17.696588 24.329145 17.673993 24.308594 17.658203 C 24.300481 17.651972 24.289488 17.648696 24.28125 17.642578 C 24.264175 17.624011 24.255296 17.600059 24.234375 17.583984 C 24.226711 17.578098 24.216761 17.574144 24.208984 17.568359 C 24.191385 17.549166 24.18176 17.524411 24.160156 17.507812 C 24.151353 17.501051 24.139812 17.496861 24.130859 17.490234 C 24.114114 17.472551 24.106084 17.449073 24.085938 17.433594 C 24.076466 17.426319 24.064333 17.42118 24.054688 17.414062 C 24.038163 17.396864 24.029469 17.374514 24.009766 17.359375 C 24.00138 17.352935 23.990944 17.348113 23.982422 17.341797 C 23.965264 17.323832 23.956081 17.300934 23.935547 17.285156 C 23.927181 17.278731 23.916706 17.273879 23.908203 17.267578 C 23.891003 17.249706 23.881815 17.226679 23.861328 17.210938 C 23.853654 17.205043 23.843728 17.201102 23.835938 17.195312 C 23.817914 17.176398 23.80871 17.151362 23.787109 17.134766 C 23.778314 17.128011 23.766761 17.123803 23.757812 17.117188 C 23.740629 17.099618 23.733157 17.076118 23.712891 17.060547 C 23.703406 17.053263 23.691305 17.048137 23.681641 17.041016 C 23.664797 17.024033 23.656415 17.001462 23.636719 16.986328 C 23.628341 16.979894 23.617894 16.975057 23.609375 16.96875 C 23.591889 16.951018 23.58302 16.927876 23.5625 16.912109 C 23.553692 16.905345 23.542168 16.901154 23.533203 16.894531 C 23.515861 16.87711 23.508515 16.853437 23.488281 16.837891 C 23.480615 16.832003 23.470677 16.828045 23.462891 16.822266 C 23.444524 16.803576 23.435661 16.778314 23.414062 16.761719 C 23.405255 16.754954 23.393732 16.750761 23.384766 16.744141 C 23.367306 16.726779 23.36009 16.703056 23.339844 16.6875 C 23.330369 16.680223 23.318254 16.675078 23.308594 16.667969 C 23.29149 16.651163 23.283362 16.62841 23.263672 16.613281 C 23.255281 16.606837 23.244865 16.602015 23.236328 16.595703 C 23.218575 16.57816 23.209962 16.55482 23.189453 16.539062 C 23.180654 16.532305 23.169117 16.528095 23.160156 16.521484 C 23.142568 16.504246 23.135452 16.480378 23.115234 16.464844 C 23.107556 16.458947 23.097646 16.455003 23.089844 16.449219 C 23.071111 16.430605 23.062729 16.405355 23.041016 16.388672 C 23.031526 16.381384 23.019446 16.376256 23.009766 16.369141 C 22.992461 16.352424 22.984564 16.329605 22.964844 16.314453 C 22.956439 16.307998 22.946056 16.303193 22.9375 16.296875 C 22.919604 16.279508 22.911075 16.255947 22.890625 16.240234 C 22.882242 16.233796 22.871815 16.228958 22.863281 16.222656 C 22.845306 16.205271 22.836905 16.181766 22.816406 16.166016 C 22.808024 16.159578 22.797597 16.154737 22.789062 16.148438 C 22.770931 16.130938 22.762838 16.107664 22.742188 16.091797 C 22.734518 16.085907 22.724595 16.081946 22.716797 16.076172 C 22.697832 16.057724 22.689671 16.0323 22.667969 16.015625 C 22.658464 16.008326 22.646422 16.003213 22.636719 15.996094 C 22.619228 15.979507 22.61151 15.956553 22.591797 15.941406 C 22.5834 15.934957 22.573006 15.930136 22.564453 15.923828 C 22.546361 15.906594 22.538024 15.882897 22.517578 15.867188 C 22.509181 15.860739 22.498788 15.855916 22.490234 15.849609 C 22.472071 15.832357 22.46385 15.808713 22.443359 15.792969 C 22.435677 15.787069 22.425783 15.783124 22.417969 15.777344 C 22.398819 15.75898 22.390868 15.733491 22.369141 15.716797 C 22.360745 15.710349 22.350352 15.705522 22.341797 15.699219 C 22.323555 15.682001 22.315425 15.658331 22.294922 15.642578 C 22.285428 15.635286 22.273372 15.630153 22.263672 15.623047 C 22.246023 15.606572 22.238457 15.583501 22.21875 15.568359 C 22.210338 15.561899 22.199981 15.557095 22.191406 15.550781 C 22.173146 15.533661 22.164973 15.509847 22.144531 15.494141 C 22.136182 15.487729 22.125698 15.482828 22.117188 15.476562 C 22.098792 15.459343 22.090887 15.43573 22.070312 15.419922 C 22.062654 15.41404 22.052717 15.410055 22.044922 15.404297 C 22.025599 15.38606 22.01781 15.360436 21.996094 15.34375 C 21.987747 15.337339 21.977261 15.332434 21.96875 15.326172 C 21.950357 15.309063 21.94237 15.285279 21.921875 15.269531 C 21.91241 15.262262 21.900302 15.257077 21.890625 15.25 C 21.872839 15.233621 21.865405 15.21045 21.845703 15.195312 C 21.836911 15.18856 21.825383 15.18432 21.816406 15.177734 C 21.798221 15.160958 21.791649 15.136587 21.771484 15.121094 C 21.763122 15.114672 21.752671 15.109786 21.744141 15.103516 C 21.72561 15.086401 21.717828 15.062674 21.697266 15.046875 C 21.689617 15.041001 21.679666 15.036996 21.671875 15.03125 C 21.652402 15.013124 21.644754 14.987382 21.623047 14.970703 C 21.614686 14.964282 21.604234 14.959391 21.595703 14.953125 C 21.577179 14.93611 21.569317 14.912227 21.548828 14.896484 C 21.539376 14.889225 21.52725 14.884013 21.517578 14.876953 C 21.499673 14.860657 21.492354 14.8374 21.472656 14.822266 C 21.464279 14.815832 21.453864 14.810964 21.445312 14.804688 C 21.426665 14.787624 21.419016 14.763859 21.398438 14.748047 C 21.390086 14.741633 21.37962 14.736725 21.371094 14.730469 C 21.35809 14.718599 21.351819 14.702676 21.337891 14.691406 C 21.314645 14.660539 21.285678 14.633342 21.257812 14.605469 C 21.235242 14.57667 21.204386 14.549592 21.177734 14.523438 C 21.159561 14.500895 21.133972 14.483802 21.113281 14.462891 C 21.090868 14.434011 21.063503 14.409113 21.037109 14.382812 C 21.01492 14.354821 20.986876 14.33025 20.960938 14.304688 C 20.939849 14.278528 20.911081 14.256459 20.886719 14.232422 C 20.884171 14.229262 20.879548 14.227739 20.876953 14.224609 C 20.858797 14.207167 20.842183 14.188176 20.822266 14.171875 C 20.799894 14.143093 20.772245 14.11813 20.746094 14.091797 C 20.723691 14.063556 20.69402 14.039548 20.667969 14.013672 C 20.663432 14.008044 20.657026 14.003581 20.652344 13.998047 C 20.634994 13.981587 20.620444 13.962733 20.601562 13.947266 C 20.580561 13.920644 20.551505 13.899574 20.527344 13.875 C 20.506253 13.848329 20.479311 13.825416 20.455078 13.800781 C 20.433734 13.773892 20.405372 13.751399 20.380859 13.726562 C 20.35859 13.698517 20.330368 13.674273 20.304688 13.648438 C 20.285379 13.624486 20.258124 13.606324 20.236328 13.583984 C 20.215561 13.55774 20.187748 13.536072 20.164062 13.511719 C 20.142481 13.484451 20.114544 13.460793 20.089844 13.435547 C 20.068929 13.409222 20.041378 13.387737 20.017578 13.363281 C 19.995387 13.335354 19.966812 13.311 19.941406 13.285156 C 19.921342 13.260267 19.893711 13.240031 19.871094 13.216797 C 19.850224 13.19054 19.822484 13.168983 19.798828 13.144531 C 19.777975 13.118298 19.750171 13.096714 19.726562 13.072266 C 19.706281 13.046755 19.679111 13.025792 19.65625 13.001953 C 19.632978 12.972437 19.602846 12.947234 19.576172 12.919922 C 19.556653 12.895709 19.529634 12.876237 19.507812 12.853516 C 19.487011 12.82736 19.458985 12.805697 19.435547 12.78125 C 19.41532 12.75582 19.387931 12.734767 19.365234 12.710938 C 19.342464 12.682079 19.311061 12.655734 19.285156 12.628906 C 19.264187 12.602895 19.23642 12.580993 19.212891 12.556641 C 19.194011 12.533221 19.167421 12.514274 19.146484 12.492188 C 19.123751 12.463392 19.092177 12.436983 19.066406 12.410156 C 19.046804 12.38584 19.019827 12.366655 18.998047 12.34375 C 18.977531 12.317976 18.950655 12.2957 18.927734 12.271484 C 18.906361 12.244506 18.877492 12.222557 18.853516 12.197266 C 18.831065 12.169066 18.800671 12.145506 18.775391 12.119141 C 18.756416 12.095603 18.72993 12.076948 18.708984 12.054688 C 18.687273 12.027218 18.659103 12.004283 18.634766 11.978516 C 18.612255 11.950249 18.581923 11.926861 18.556641 11.900391 C 18.537053 11.876093 18.509917 11.856955 18.488281 11.833984 C 18.46804 11.808574 18.440413 11.787655 18.417969 11.763672 C 18.396298 11.736269 18.36795 11.713264 18.34375 11.6875 C 18.321769 11.659912 18.290161 11.635307 18.265625 11.609375 C 18.24638 11.585503 18.220377 11.565602 18.199219 11.542969 C 18.178077 11.51632 18.148481 11.495836 18.125 11.470703 C 18.10387 11.444118 18.076177 11.421571 18.052734 11.396484 C 18.031361 11.369667 18.002228 11.347567 17.978516 11.322266 C 17.957554 11.295969 17.929444 11.274851 17.90625 11.25 C 17.883977 11.222059 17.854851 11.198196 17.830078 11.171875 C 17.809414 11.146242 17.778627 11.123879 17.755859 11.099609 C 17.737473 11.076801 17.711446 11.058846 17.691406 11.037109 C 17.669194 11.008948 17.63991 10.985549 17.615234 10.958984 C 17.594331 10.932771 17.566007 10.911549 17.542969 10.886719 C 17.520193 10.858159 17.490135 10.833571 17.464844 10.806641 C 17.445297 10.782394 17.417844 10.763306 17.396484 10.740234 C 17.375621 10.714079 17.347161 10.692777 17.324219 10.667969 C 17.303919 10.642519 17.27616 10.62184 17.253906 10.597656 C 17.230565 10.568207 17.199755 10.543399 17.173828 10.515625 C 17.154254 10.491344 17.126809 10.472356 17.105469 10.449219 C 17.084645 10.42312 17.056037 10.401749 17.033203 10.376953 C 17.011824 10.350159 16.982468 10.328165 16.958984 10.302734 C 16.938035 10.276482 16.909675 10.255421 16.886719 10.230469 C 16.864449 10.202563 16.835068 10.178791 16.810547 10.152344 C 16.791599 10.12884 16.764685 10.11036 16.744141 10.087891 C 16.721364 10.059177 16.68918 10.033056 16.664062 10.005859 C 16.6445 9.9815933 16.616944 9.9626313 16.595703 9.9394531 C 16.575369 9.9139796 16.54755 9.8934315 16.525391 9.8691406 C 16.503686 9.8417875 16.474959 9.8189729 16.451172 9.7929688 C 16.428613 9.7647132 16.397821 9.7416636 16.373047 9.7148438 C 16.354097 9.6913369 16.327124 9.6729039 16.306641 9.6503906 C 16.2849 9.6230022 16.256208 9.6002813 16.232422 9.5742188 C 16.210385 9.5466212 16.178406 9.5223485 16.154297 9.4960938 C 16.133331 9.470086 16.104838 9.4486434 16.082031 9.4238281 C 16.063056 9.4002904 16.036097 9.3819424 16.015625 9.359375 C 15.993917 9.3320369 15.965101 9.309254 15.941406 9.2832031 C 15.919126 9.2553075 15.887625 9.2316367 15.863281 9.2050781 C 15.844273 9.1814992 15.817357 9.1632487 15.796875 9.140625 C 15.775134 9.1132547 15.746351 9.0905574 15.722656 9.0644531 C 15.700691 9.0369574 15.668463 9.0125492 15.644531 8.9863281 C 15.625555 8.962789 15.598543 8.94448 15.578125 8.921875 C 15.556346 8.8944635 15.527609 8.8718682 15.503906 8.8457031 C 15.481628 8.8178209 15.451998 8.7941738 15.427734 8.7675781 C 15.406527 8.7412716 15.37649 8.7204738 15.353516 8.6953125 C 15.33458 8.6718239 15.307445 8.6534405 15.287109 8.6308594 C 15.265367 8.6035037 15.236503 8.5808316 15.212891 8.5546875 C 15.191986 8.5285292 15.163235 8.5074749 15.140625 8.4824219 C 15.117833 8.453903 15.087308 8.4295567 15.0625 8.4023438 C 15.042913 8.3780471 15.01519 8.3592863 14.994141 8.3359375 C 14.973266 8.3098214 14.94442 8.2887058 14.921875 8.2636719 C 14.900445 8.2368618 14.870836 8.2151294 14.847656 8.1894531 C 14.82668 8.1632124 14.798034 8.1423483 14.775391 8.1171875 C 14.753081 8.0892801 14.723403 8.0657555 14.699219 8.0390625 C 14.679683 8.0148293 14.651808 7.9959738 14.630859 7.9726562 C 14.609466 7.9458964 14.579738 7.9240936 14.556641 7.8984375 C 14.535702 7.8722489 14.506936 7.8513093 14.484375 7.8261719 C 14.463443 7.7999927 14.434653 7.7790409 14.412109 7.7539062 C 14.391803 7.7285097 14.363612 7.7080129 14.341797 7.6835938 C 14.318358 7.6541341 14.287169 7.6297188 14.261719 7.6015625 C 14.242182 7.5773279 14.214262 7.5585059 14.193359 7.5351562 C 14.173026 7.50973 14.144867 7.4893065 14.123047 7.4648438 C 14.100134 7.4360512 14.067771 7.4103805 14.042969 7.3828125 C 14.021987 7.3567852 13.993234 7.3355702 13.970703 7.3105469 C 13.951769 7.2870597 13.924486 7.2687679 13.904297 7.2460938 C 13.882541 7.2187611 13.85351 7.1961688 13.830078 7.1699219 C 13.807758 7.1420173 13.776016 7.1185722 13.751953 7.0917969 C 13.732367 7.0675005 13.704501 7.048831 13.683594 7.0253906 C 13.663261 6.9999724 13.635045 6.9795694 13.613281 6.9550781 C 13.591557 6.9277927 13.562421 6.9051326 13.539062 6.8789062 C 13.516775 6.8510469 13.484926 6.8275387 13.460938 6.8007812 C 13.441955 6.7772339 13.414729 6.7590883 13.394531 6.7363281 C 13.372772 6.7090044 13.343685 6.6864344 13.320312 6.6601562 C 13.297716 6.6319144 13.266504 6.6091583 13.242188 6.5820312 C 13.223231 6.5585163 13.19593 6.5403203 13.175781 6.5175781 C 13.153998 6.4902303 13.124937 6.4677227 13.101562 6.4414062 C 13.080626 6.4152417 13.051688 6.394363 13.029297 6.3691406 C 13.006732 6.3409427 12.975416 6.3181248 12.951172 6.2910156 C 12.932196 6.2674767 12.904912 6.2493428 12.884766 6.2265625 C 12.863014 6.1992598 12.833854 6.1766859 12.810547 6.1503906 C 12.788227 6.1225016 12.75636 6.0991056 12.732422 6.0722656 C 12.71342 6.0486944 12.686174 6.0306344 12.666016 6.0078125 C 12.559836 5.8745606 12.437582 5.7521907 12.294922 5.6425781 C 11.736898 5.2140157 10.941269 5.0001047 9.9101562 5 L 6.453125 5 z "
       id="path7351"
       clip-path="url(#clipPath8239)" />
    <path
       d="m 3.9999777,4.0333382 12.0000003,0 0,11.9333328 -12.0000003,0 z"
       id="path4"
       inkscape:connector-curvature="0"
       style="fill:none" />
    <path
       style="fill:none"
       inkscape:connector-curvature="0"
       id="path9754"
       d="m 18.999978,19.033339 12,0 0,11.933333 -12,0 z" />
    <g
       style="font-style:normal;font-weight:normal;font-size:40px;line-height:125%;font-family:sans-serif;letter-spacing:0px;word-spacing:0px;fill:#000000;fill-opacity:1;stroke:none;stroke-width:1px;stroke-linecap:butt;stroke-linejoin:miter;stroke-opacity:1"
       id="text6162"
       transform="matrix(0.34293369,0,0,0.34293369,2.4739039,11.968716)">
      <path
         d="m 15.549665,-5.0864954 0,10.6835938 6.328125,0 q 3.183594,0 4.707031,-1.3085938 1.542969,-1.328125 1.542969,-4.04296875 0,-2.73437495 -1.542969,-4.02343745 -1.523437,-1.3085938 -4.707031,-1.3085938 l -6.328125,0 z m 0,-11.9921876 0,8.7890626 5.839844,0 q 2.890625,0 4.296875,-1.0742187 1.425781,-1.0937499 1.425781,-3.3203129 0,-2.207031 -1.425781,-3.300781 -1.40625,-1.09375 -4.296875,-1.09375 l -5.839844,0 z m -3.945313,-3.242187 10.078125,0 q 4.511719,0 6.953125,1.875 2.441407,1.875 2.441407,5.332031 0,2.675781 -1.25,4.2578124 -1.25,1.5820312 -3.671875,1.9726562 2.910156,0.625 4.511718,2.6171875 1.621094,1.9726563 1.621094,4.94140625 0,3.90625005 -2.65625,6.03515625 -2.65625,2.1289063 -7.558594,2.1289063 l -10.46875,0 0,-29.1601559 z"
         id="path6167"
         inkscape:connector-curvature="0" />
    </g>
    <path
       id="path6173"
       style="font-style:normal;font-weight:normal;font-size:medium;line-height:125%;font-family:sans-serif;letter-spacing:0px;word-spacing:0px;fill:#fafafa;fill-opacity:1;stroke:none;stroke-width:1px;stroke-linecap:butt;stroke-linejoin:miter;stroke-opacity:1"
       d="m 7.8064079,10.224385 0,3.663765 2.1701273,0 q 1.0917618,0 1.6141998,-0.448761 0.529136,-0.455459 0.529136,-1.38647 0,-0.93771 -0.529136,-1.379773 -0.522438,-0.448761 -1.6141998,-0.448761 l -2.1701273,0 z m 0,-4.1125248 0,3.0140657 2.0026792,0 q 0.9912929,0 1.4735429,-0.3683858 0.488949,-0.3750837 0.488949,-1.1386471 0,-0.7568653 -0.488949,-1.1319491 Q 10.80038,6.1118602 9.8090871,6.1118602 l -2.0026792,0 z m -1.3529807,-1.1118551 3.4561285,0 q 1.5472203,0 2.3844613,0.6430006 0.83724,0.6430007 0.83724,1.8285331 0,0.9176155 -0.428667,1.4601473 -0.428667,0.5425318 -1.259209,0.6764903 0.99799,0.2143335 1.54722,0.8975216 0.555927,0.67649 0.555927,1.694575 0,1.339585 -0.910917,2.069658 -0.910918,0.730074 -2.592097,0.730074 l -3.5900868,0 0,-9.9999999 z" />
    <path
       d="m 22.806408,25.224385 0,3.663765 2.170127,0 q 1.091762,0 1.6142,-0.448761 0.529136,-0.455459 0.529136,-1.38647 0,-0.93771 -0.529136,-1.379773 -0.522438,-0.448761 -1.6142,-0.448761 l -2.170127,0 z m 0,-4.112525 0,3.014066 2.002679,0 q 0.991293,0 1.473543,-0.368386 0.488949,-0.375084 0.488949,-1.138647 0,-0.756865 -0.488949,-1.131949 -0.48225,-0.375084 -1.473543,-0.375084 l -2.002679,0 z m -1.352981,-1.111855 3.456129,0 q 1.54722,0 2.384461,0.643001 0.83724,0.643 0.83724,1.828533 0,0.917615 -0.428667,1.460147 -0.428667,0.542532 -1.259209,0.67649 0.99799,0.214334 1.54722,0.897522 0.555927,0.67649 0.555927,1.694575 0,1.339585 -0.910917,2.069658 -0.910918,0.730074 -2.592097,0.730074 l -3.590087,0 0,-10 z"
       style="font-style:normal;font-weight:normal;font-size:medium;line-height:125%;font-family:sans-serif;letter-spacing:0px;word-spacing:0px;fill:#000000;fill-opacity:1;stroke:none;stroke-width:1px;stroke-linecap:butt;stroke-linejoin:miter;stroke-opacity:1"
       id="path6185"
       inkscape:connector-curvature="0"
       clip-path="url(#clipPath8232)" />
  </g>
</svg>
