<?xml version="1.0" encoding="UTF-8" standalone="no"?>
<!-- Created with Inkscape (http://www.inkscape.org/) -->

<svg
   xmlns:dc="http://purl.org/dc/elements/1.1/"
   xmlns:cc="http://creativecommons.org/ns#"
   xmlns:rdf="http://www.w3.org/1999/02/22-rdf-syntax-ns#"
   xmlns:svg="http://www.w3.org/2000/svg"
   xmlns="http://www.w3.org/2000/svg"
   xmlns:xlink="http://www.w3.org/1999/xlink"
   xmlns:sodipodi="http://sodipodi.sourceforge.net/DTD/sodipodi-0.dtd"
   xmlns:inkscape="http://www.inkscape.org/namespaces/inkscape"
   inkscape:export-ydpi="648"
   inkscape:export-xdpi="648"
   inkscape:export-filename="/home/juergen/Projekte/Android/Android_Studio/Baumann_Theme/theme/src/main/assets/icons/res/drawable-xxhdpi/a102.png"
   sodipodi:docname="bABBEL.svg"
   inkscape:version="0.91 r13725"
   version="1.1"
   id="svg2"
   viewBox="0 0 20 20"
   height="5.6444445mm"
   width="5.6444445mm">
  <sodipodi:namedview
     inkscape:snap-page="false"
     inkscape:snap-to-guides="false"
     inkscape:snap-grids="false"
     inkscape:window-maximized="1"
     inkscape:window-y="24"
     inkscape:window-x="0"
     inkscape:window-height="744"
     inkscape:window-width="1366"
     inkscape:guide-bbox="true"
     showguides="true"
     fit-margin-bottom="0"
     fit-margin-right="0"
     fit-margin-left="0"
     fit-margin-top="0"
     showgrid="false"
     inkscape:current-layer="layer1"
     inkscape:document-units="px"
     inkscape:cy="8.7284405"
     inkscape:cx="7.1392116"
     inkscape:zoom="22.627417"
     inkscape:pageshadow="2"
     inkscape:pageopacity="0.0"
     borderopacity="1.0"
     bordercolor="#666666"
     pagecolor="#ffffff"
     id="base">
    <inkscape:grid
       type="xygrid"
       id="grid4138" />
    <sodipodi:guide
       position="10,18"
       orientation="0,1"
       id="guide4140" />
    <sodipodi:guide
       position="10,2"
       orientation="0,1"
       id="guide4142" />
    <sodipodi:guide
       position="2,10"
       orientation="1,0"
       id="guide4144" />
    <sodipodi:guide
       position="0,0"
       orientation="0,20"
       id="guide4146" />
    <sodipodi:guide
       position="20,0"
       orientation="-20,0"
       id="guide4148" />
    <sodipodi:guide
       position="20,20"
       orientation="0,-20"
       id="guide4150" />
    <sodipodi:guide
       position="0,20"
       orientation="20,0"
       id="guide4152" />
    <sodipodi:guide
       position="18,10"
       orientation="1,0"
       id="guide4154" />
    <sodipodi:guide
       position="10,10"
       orientation="-0.70710678,0.70710678"
       id="guide4156" />
    <sodipodi:guide
       position="4,10"
       orientation="1,0"
       id="guide4160" />
    <sodipodi:guide
       position="16,10"
       orientation="1,0"
       id="guide4162" />
    <sodipodi:guide
       position="10,16"
       orientation="0,1"
       id="guide4164" />
    <sodipodi:guide
       position="10,4"
       orientation="0,1"
       id="guide4166" />
    <sodipodi:guide
       position="10,15"
       orientation="0,1"
       id="guide4168" />
    <sodipodi:guide
       position="10,5"
       orientation="0,1"
       id="guide4170" />
    <sodipodi:guide
       position="5,10"
       orientation="1,0"
       id="guide4172" />
    <sodipodi:guide
       position="15,10"
       orientation="1,0"
       id="guide4174" />
  </sodipodi:namedview>
  <defs
     id="defs4">
    <linearGradient
       inkscape:collect="always"
       id="linearGradient7899">
      <stop
         style="stop-color:#000000;stop-opacity:0.2"
         offset="0"
         id="stop7901" />
      <stop
         style="stop-color:#000000;stop-opacity:0;"
         offset="1"
         id="stop7903" />
    </linearGradient>
    <clipPath
       id="clipPath12478"
       clipPathUnits="userSpaceOnUse">
      <circle
         r="10"
         cy="10.000005"
         cx="9.9999781"
         id="circle12480"
         style="opacity:1;fill:#2196f3;fill-opacity:1;stroke:none;stroke-width:0.05069799;stroke-miterlimit:4;stroke-dasharray:none;stroke-opacity:1" />
    </clipPath>
    <clipPath
       clipPathUnits="userSpaceOnUse"
       id="clipPath5790">
      <circle
         r="10"
         cy="10.000005"
         cx="9.9999781"
         id="circle5792"
         style="opacity:1;fill:#2196f3;fill-opacity:1;stroke:none;stroke-width:0.05069799;stroke-miterlimit:4;stroke-dasharray:none;stroke-opacity:1"
         inkscape:export-filename="/home/juergen/path4136.png"
         inkscape:export-xdpi="648"
         inkscape:export-ydpi="648" />
    </clipPath>
    <clipPath
       id="clipPath5055"
       clipPathUnits="userSpaceOnUse">
      <circle
         r="10"
         cy="10.000005"
         cx="9.9999781"
         id="circle5057"
         style="opacity:1;fill:#2196f3;fill-opacity:1;stroke:none;stroke-width:0.05069799;stroke-miterlimit:4;stroke-dasharray:none;stroke-opacity:1"
         inkscape:export-filename="/home/juergen/path4136.png"
         inkscape:export-xdpi="648"
         inkscape:export-ydpi="648" />
    </clipPath>
    <clipPath
       clipPathUnits="userSpaceOnUse"
       id="clipPath5119">
      <circle
         r="10"
         cy="10.000005"
         cx="9.9999781"
         id="circle5121"
         style="opacity:1;fill:#2196f3;fill-opacity:1;stroke:none;stroke-width:0.05069799;stroke-miterlimit:4;stroke-dasharray:none;stroke-opacity:1"
         inkscape:export-filename="/home/juergen/Schreibtisch/path4136.png"
         inkscape:export-xdpi="648"
         inkscape:export-ydpi="648" />
    </clipPath>
    <clipPath
       id="clipPath5194"
       clipPathUnits="userSpaceOnUse">
      <circle
         r="10"
         cy="10.000005"
         cx="9.9999781"
         id="circle5196"
         style="opacity:1;fill:#cddc39;fill-opacity:1;stroke:none;stroke-width:0.05069799;stroke-miterlimit:4;stroke-dasharray:none;stroke-opacity:1"
         inkscape:export-filename="/home/juergen/Schreibtisch/path4136.png"
         inkscape:export-xdpi="648"
         inkscape:export-ydpi="648" />
    </clipPath>
    <clipPath
       clipPathUnits="userSpaceOnUse"
       id="clipPath6175">
      <circle
         r="10"
         cy="10.000005"
         cx="9.9999781"
         id="circle6177"
         style="opacity:1;fill:#f44336;fill-opacity:1;stroke:none;stroke-width:0.05069799;stroke-miterlimit:4;stroke-dasharray:none;stroke-opacity:1"
         inkscape:export-filename="/home/juergen/Schreibtisch/path4136.png"
         inkscape:export-xdpi="648"
         inkscape:export-ydpi="648" />
    </clipPath>
    <clipPath
       id="clipPath7176"
       clipPathUnits="userSpaceOnUse">
      <circle
         r="10"
         cy="10.000005"
         cx="9.9999781"
         id="circle7178"
         style="opacity:1;fill:#9c27b0;fill-opacity:1;stroke:none;stroke-width:0.05069799;stroke-miterlimit:4;stroke-dasharray:none;stroke-opacity:1"
         inkscape:export-filename="/home/juergen/Schreibtisch/path4136.png"
         inkscape:export-xdpi="648"
         inkscape:export-ydpi="648" />
    </clipPath>
    <clipPath
       clipPathUnits="userSpaceOnUse"
       id="clipPath8165">
      <circle
         r="10"
         cy="10.000005"
         cx="9.9999781"
         id="circle8167"
         style="opacity:1;fill:#ffc107;fill-opacity:1;stroke:none;stroke-width:0.05069799;stroke-miterlimit:4;stroke-dasharray:none;stroke-opacity:1"
         inkscape:export-filename="/home/juergen/Schreibtisch/path4136.png"
         inkscape:export-xdpi="648"
         inkscape:export-ydpi="648" />
    </clipPath>
    <clipPath
       id="clipPath9162"
       clipPathUnits="userSpaceOnUse">
      <circle
         r="10"
         cy="10.000005"
         cx="9.9999781"
         id="circle9164"
         style="opacity:1;fill:#ff9800;fill-opacity:1;stroke:none;stroke-width:0.05069799;stroke-miterlimit:4;stroke-dasharray:none;stroke-opacity:1"
         inkscape:export-filename="/home/juergen/Schreibtisch/path4136.png"
         inkscape:export-xdpi="648"
         inkscape:export-ydpi="648" />
    </clipPath>
    <clipPath
       clipPathUnits="userSpaceOnUse"
       id="clipPath5147">
      <circle
         r="10"
         cy="10.000005"
         cx="9.9999781"
         id="circle5149"
         style="opacity:1;fill:#ff9800;fill-opacity:1;stroke:none;stroke-width:0.05069799;stroke-miterlimit:4;stroke-dasharray:none;stroke-opacity:1"
         inkscape:export-filename="/home/juergen/Schreibtisch/path4136.png"
         inkscape:export-xdpi="648"
         inkscape:export-ydpi="648" />
    </clipPath>
    <clipPath
       id="clipPath6144"
       clipPathUnits="userSpaceOnUse">
      <circle
         r="10"
         cy="10.000005"
         cx="9.9999781"
         id="circle6146"
         style="opacity:1;fill:#e91e63;fill-opacity:1;stroke:none;stroke-width:0.05069799;stroke-miterlimit:4;stroke-dasharray:none;stroke-opacity:1"
         inkscape:export-filename="/home/juergen/Schreibtisch/path4136.png"
         inkscape:export-xdpi="648"
         inkscape:export-ydpi="648" />
    </clipPath>
    <clipPath
       clipPathUnits="userSpaceOnUse"
       id="clipPath7143">
      <circle
         r="10"
         cy="10.000005"
         cx="9.9999781"
         id="circle7145"
         style="opacity:1;fill:#ffeb3b;fill-opacity:1;stroke:none;stroke-width:0.05069799;stroke-miterlimit:4;stroke-dasharray:none;stroke-opacity:1"
         inkscape:export-filename="/home/juergen/Schreibtisch/path4136.png"
         inkscape:export-xdpi="648"
         inkscape:export-ydpi="648" />
    </clipPath>
    <clipPath
       id="clipPath8148"
       clipPathUnits="userSpaceOnUse">
      <circle
         r="10"
         cy="10.000005"
         cx="9.9999781"
         id="circle8150"
         style="opacity:1;fill:#9c27b0;fill-opacity:1;stroke:none;stroke-width:0.05069799;stroke-miterlimit:4;stroke-dasharray:none;stroke-opacity:1"
         inkscape:export-filename="/home/juergen/Schreibtisch/path4136.png"
         inkscape:export-xdpi="648"
         inkscape:export-ydpi="648" />
    </clipPath>
    <clipPath
       clipPathUnits="userSpaceOnUse"
       id="clipPath5171">
      <circle
         r="10"
         cy="10.000005"
         cx="9.9999781"
         id="circle5173"
         style="opacity:1;fill:#f44336;fill-opacity:1;stroke:none;stroke-width:0.05069799;stroke-miterlimit:4;stroke-dasharray:none;stroke-opacity:1"
         inkscape:export-filename="/home/juergen/Schreibtisch/path4136.png"
         inkscape:export-xdpi="648"
         inkscape:export-ydpi="648" />
    </clipPath>
    <clipPath
       id="clipPath6181"
       clipPathUnits="userSpaceOnUse">
      <circle
         r="10"
         cy="10.000005"
         cx="9.9999781"
         id="circle6183"
         style="opacity:1;fill:#2196f3;fill-opacity:1;stroke:none;stroke-width:0.05069799;stroke-miterlimit:4;stroke-dasharray:none;stroke-opacity:1"
         inkscape:export-filename="/home/juergen/Schreibtisch/path4136.png"
         inkscape:export-xdpi="648"
         inkscape:export-ydpi="648" />
    </clipPath>
    <clipPath
       clipPathUnits="userSpaceOnUse"
       id="clipPath7195">
      <circle
         r="10"
         cy="10.000005"
         cx="9.9999781"
         id="circle7197"
         style="opacity:1;fill:#795548;fill-opacity:1;stroke:none;stroke-width:0.05069799;stroke-miterlimit:4;stroke-dasharray:none;stroke-opacity:1"
         inkscape:export-filename="/home/juergen/Schreibtisch/path4136.png"
         inkscape:export-xdpi="648"
         inkscape:export-ydpi="648" />
    </clipPath>
    <clipPath
       id="clipPath8213"
       clipPathUnits="userSpaceOnUse">
      <circle
         r="10"
         cy="10.000005"
         cx="9.9999781"
         id="circle8215"
         style="opacity:1;fill:#f44336;fill-opacity:1;stroke:none;stroke-width:0.05069799;stroke-miterlimit:4;stroke-dasharray:none;stroke-opacity:1"
         inkscape:export-filename="/home/juergen/Schreibtisch/path4136.png"
         inkscape:export-xdpi="648"
         inkscape:export-ydpi="648" />
    </clipPath>
    <clipPath
       clipPathUnits="userSpaceOnUse"
       id="clipPath9235">
      <circle
         r="10"
         cy="10.000005"
         cx="9.9999781"
         id="circle9237"
         style="opacity:1;fill:#f44336;fill-opacity:1;stroke:none;stroke-width:0.05069799;stroke-miterlimit:4;stroke-dasharray:none;stroke-opacity:1"
         inkscape:export-filename="/home/juergen/Schreibtisch/path4136.png"
         inkscape:export-xdpi="648"
         inkscape:export-ydpi="648" />
    </clipPath>
    <clipPath
       id="clipPath5965"
       clipPathUnits="userSpaceOnUse">
      <circle
         r="10"
         cy="10.000005"
         cx="9.9999781"
         id="circle5967"
         style="opacity:1;fill:#009688;fill-opacity:1;stroke:none;stroke-width:0.05069799;stroke-miterlimit:4;stroke-dasharray:none;stroke-opacity:1"
         inkscape:export-filename="/home/juergen/Schreibtisch/path4136.png"
         inkscape:export-xdpi="648"
         inkscape:export-ydpi="648" />
    </clipPath>
    <linearGradient
       inkscape:collect="always"
       xlink:href="#linearGradient7899"
       id="linearGradient7905"
       x1="10.089286"
       y1="10"
       x2="17.901785"
       y2="17.991072"
       gradientUnits="userSpaceOnUse" />
    <clipPath
       clipPathUnits="userSpaceOnUse"
       id="clipPath7910">
      <circle
         r="10"
         cy="10.000005"
         cx="9.9999781"
         id="circle7912"
         style="opacity:1;fill:#ffeb3b;fill-opacity:1;stroke:none;stroke-width:0.05069799;stroke-miterlimit:4;stroke-dasharray:none;stroke-opacity:1"
         inkscape:export-filename="/home/juergen/Schreibtisch/path4136.png"
         inkscape:export-xdpi="648"
         inkscape:export-ydpi="648" />
    </clipPath>
    <clipPath
       clipPathUnits="userSpaceOnUse"
       id="clipPath4223">
      <rect
         style="opacity:1;fill:#4caf50;fill-opacity:1;stroke:none;stroke-width:1.25;stroke-linecap:round;stroke-linejoin:round;stroke-miterlimit:4;stroke-dasharray:none;stroke-opacity:1"
         id="rect4225"
         width="2.8571429"
         height="2.5446429"
         x="4.3749776"
         y="6.5625048" />
    </clipPath>
    <clipPath
       clipPathUnits="userSpaceOnUse"
       id="clipPath4231">
      <path
         style="opacity:0.43599997;fill:#ff5722;fill-rule:evenodd;stroke:none;stroke-width:1px;stroke-linecap:butt;stroke-linejoin:miter;stroke-opacity:1"
         d="m 7.25,7.2109376 0,1.1796875 -0.5545827,3.4776469 1.8119611,2.386485 3.7344076,1.458408 3.137786,-3.027301 -0.0221,-0.994369 L 8.3526988,10.785515 8.639961,6.8522334 10.00998,6.0788353 7.6013979,4.3994567 5.8778251,6.4102916 Z"
         id="path4233"
         inkscape:connector-curvature="0"
         sodipodi:nodetypes="ccccccccccccc" />
    </clipPath>
    <clipPath
       clipPathUnits="userSpaceOnUse"
       id="clipPath4239">
      <path
         style="fill:none;fill-rule:evenodd;stroke:#000000;stroke-width:1px;stroke-linecap:butt;stroke-linejoin:miter;stroke-opacity:1"
         d="m 11.542969,12.746094 1.457031,0 0.987456,1.022528 -1.59099,1.800912 -1.90035,-1.911398 z"
         id="path4241"
         inkscape:connector-curvature="0" />
    </clipPath>
  </defs>
  <metadata
     id="metadata7">
    <rdf:RDF>
      <cc:Work
         rdf:about="">
        <dc:format>image/svg+xml</dc:format>
        <dc:type
           rdf:resource="http://purl.org/dc/dcmitype/StillImage" />
        <dc:title />
      </cc:Work>
    </rdf:RDF>
  </metadata>
  <g
     inkscape:label="Hintergrund"
     inkscape:groupmode="layer"
     id="layer1"
     transform="translate(1058.1428,-861.93365)">
    <circle
       inkscape:export-ydpi="648"
       inkscape:export-xdpi="648"
       inkscape:export-filename="/home/juergen/Schreibtisch/path4136.png"
       style="opacity:1;fill:#ffeb3b;fill-opacity:1;stroke:none;stroke-width:0.05069799;stroke-miterlimit:4;stroke-dasharray:none;stroke-opacity:1"
       id="path4136"
       cx="-1048.1428"
       cy="871.93365"
       r="10" />
  </g>
  <g
     style="display:inline"
     inkscape:groupmode="layer"
     id="layer2"
     inkscape:label="Icon">
    <path
       style="fill:url(#linearGradient7905);fill-opacity:1"
       d="M 7.7089844 4.9589844 L 6.3339844 6.3339844 L 6.3378906 6.3339844 L 6.3359375 6.3359375 L 6.34375 6.3359375 L 6.3398438 6.3398438 L 6.34375 6.3398438 L 6.3417969 6.3417969 L 6.3535156 6.3417969 L 6.3476562 6.3476562 L 6.3554688 6.3476562 L 6.3515625 6.3515625 L 6.3632812 6.3515625 L 6.3574219 6.3574219 L 6.3691406 6.3574219 L 6.3632812 6.3632812 L 6.3789062 6.3632812 L 6.3710938 6.3710938 L 6.3867188 6.3710938 L 6.3789062 6.3789062 L 6.3945312 6.3789062 L 6.3867188 6.3867188 L 6.40625 6.3867188 L 6.3964844 6.3964844 L 6.4160156 6.3964844 L 6.40625 6.40625 L 6.4257812 6.40625 L 6.4160156 6.4160156 L 6.4394531 6.4160156 L 6.4277344 6.4277344 L 6.4550781 6.4277344 L 6.4414062 6.4414062 L 6.4648438 6.4414062 L 6.453125 6.453125 L 6.4804688 6.453125 L 6.4667969 6.4667969 L 6.4980469 6.4667969 L 6.4824219 6.4824219 L 6.5097656 6.4824219 L 6.4960938 6.4960938 L 6.53125 6.4960938 L 6.5136719 6.5136719 L 6.5449219 6.5136719 L 6.5292969 6.5292969 L 6.5644531 6.5292969 L 6.546875 6.546875 L 6.5820312 6.546875 L 6.5644531 6.5644531 L 6.6035156 6.5644531 L 6.5839844 6.5839844 L 6.6230469 6.5839844 L 6.6035156 6.6035156 L 6.6464844 6.6035156 L 6.625 6.625 L 6.6679688 6.625 L 6.6464844 6.6464844 L 6.6894531 6.6464844 L 6.6679688 6.6679688 L 6.7109375 6.6679688 L 6.6894531 6.6894531 L 6.7363281 6.6894531 L 6.7128906 6.7128906 L 6.7636719 6.7128906 L 6.7382812 6.7382812 L 6.7851562 6.7382812 L 6.7617188 6.7617188 L 6.8164062 6.7617188 L 6.7890625 6.7890625 L 6.8398438 6.7890625 L 6.8144531 6.8144531 L 6.8691406 6.8144531 L 6.8417969 6.8417969 L 6.8964844 6.8417969 L 6.8691406 6.8691406 L 6.9277344 6.8691406 L 6.8984375 6.8984375 L 6.9570312 6.8984375 L 6.9277344 6.9277344 L 6.9863281 6.9277344 L 6.9570312 6.9570312 L 7.0195312 6.9570312 L 6.9882812 6.9882812 L 7.0507812 6.9882812 L 7.0195312 7.0195312 L 7.0859375 7.0195312 L 7.0527344 7.0527344 L 7.1191406 7.0527344 L 7.0859375 7.0859375 L 7.1523438 7.0859375 L 7.1191406 7.1191406 L 7.1894531 7.1191406 L 7.1542969 7.1542969 L 7.2246094 7.1542969 L 7.1894531 7.1894531 L 7.25 7.1894531 L 7.25 7.1992188 L 7.2246094 7.2246094 L 7.25 7.2246094 L 7.25 7.25 L 5.4179688 7.25 L 5.4179688 7.2519531 L 5.4179688 8.1679688 L 5.4199219 8.1679688 L 5.4199219 8.1699219 L 5.421875 8.1699219 L 5.421875 8.171875 L 5.4257812 8.171875 L 5.4257812 8.1757812 L 5.4296875 8.1757812 L 5.4296875 8.1796875 L 5.4355469 8.1796875 L 5.4355469 8.1855469 L 5.4394531 8.1855469 L 5.4394531 8.1894531 L 5.4472656 8.1894531 L 5.4472656 8.1972656 L 5.453125 8.1972656 L 5.453125 8.203125 L 5.4609375 8.203125 L 5.4609375 8.2109375 L 5.4707031 8.2109375 L 5.4707031 8.2207031 L 5.4785156 8.2207031 L 5.4785156 8.2285156 L 5.4902344 8.2285156 L 5.4902344 8.2402344 L 5.5 8.2402344 L 5.5 8.25 L 5.5117188 8.25 L 5.5117188 8.2617188 L 5.5234375 8.2617188 L 5.5234375 8.2734375 L 5.5371094 8.2734375 L 5.5371094 8.2871094 L 5.5507812 8.2871094 L 5.5507812 8.3007812 L 5.5644531 8.3007812 L 5.5644531 8.3144531 L 5.5800781 8.3144531 L 5.5800781 8.3300781 L 5.5957031 8.3300781 L 5.5957031 8.3457031 L 5.6132812 8.3457031 L 5.6132812 8.3632812 L 5.6308594 8.3632812 L 5.6308594 8.3808594 L 5.6484375 8.3808594 L 5.6484375 8.3984375 L 5.6679688 8.3984375 L 5.6679688 8.4179688 L 5.6875 8.4179688 L 5.6875 8.4375 L 5.7070312 8.4375 L 5.7070312 8.4570312 L 5.7285156 8.4570312 L 5.7285156 8.4785156 L 5.75 8.4785156 L 5.75 8.5 L 5.7734375 8.5 L 5.7734375 8.5234375 L 5.796875 8.5234375 L 5.796875 8.546875 L 5.8203125 8.546875 L 5.8203125 8.5703125 L 5.8457031 8.5703125 L 5.8457031 8.5957031 L 5.8710938 8.5957031 L 5.8710938 8.6210938 L 5.8984375 8.6210938 L 5.8984375 8.6484375 L 5.9257812 8.6484375 L 5.9257812 8.6757812 L 5.953125 8.6757812 L 5.953125 8.703125 L 5.9804688 8.703125 L 5.9804688 8.7304688 L 6.0097656 8.7304688 L 6.0097656 8.7597656 L 6.0410156 8.7597656 L 6.0410156 8.7910156 L 6.0722656 8.7910156 L 6.0722656 8.8222656 L 6.1035156 8.8222656 L 6.1035156 8.8535156 L 6.1347656 8.8535156 L 6.1347656 8.8847656 L 6.1679688 8.8847656 L 6.1679688 8.9179688 L 6.203125 8.9179688 L 6.203125 8.953125 L 6.2363281 8.953125 L 6.2363281 8.9863281 L 6.2714844 8.9863281 L 6.2714844 9.0214844 L 6.3085938 9.0214844 L 6.3085938 9.0585938 L 6.3457031 9.0585938 L 6.3457031 9.0957031 L 6.3828125 9.0957031 L 6.3828125 9.1328125 L 6.4199219 9.1328125 L 6.4199219 9.1699219 L 6.4589844 9.1699219 L 6.4589844 9.2089844 L 6.5 9.2089844 L 6.5 9.25 L 6.5390625 9.25 L 6.5390625 9.2890625 L 6.5800781 9.2890625 L 6.5800781 9.3300781 L 6.6230469 9.3300781 L 6.6230469 9.3730469 L 6.6660156 9.3730469 L 6.6660156 9.4160156 L 6.7089844 9.4160156 L 6.7089844 9.4589844 L 6.7539062 9.4589844 L 6.7539062 9.5039062 L 6.7988281 9.5039062 L 6.7988281 9.5488281 L 6.84375 9.5488281 L 6.84375 9.59375 L 6.890625 9.59375 L 6.890625 9.640625 L 6.9375 9.640625 L 6.9375 9.6875 L 6.984375 9.6875 L 6.984375 9.734375 L 7.0332031 9.734375 L 7.0332031 9.7832031 L 7.0839844 9.7832031 L 7.0839844 9.8339844 L 7.1328125 9.8339844 L 7.1328125 9.8828125 L 7.1835938 9.8828125 L 7.1835938 9.9335938 L 7.2363281 9.9335938 L 7.2363281 9.9863281 L 7.25 9.9863281 L 7.25 11.833984 C 7.25 11.960999 7.2769875 12.081158 7.3242188 12.191406 C 7.3242188 12.191406 7.3261719 12.193359 7.3261719 12.193359 C 7.3726329 12.300911 7.4377402 12.398678 7.5195312 12.480469 C 7.52017 12.481111 7.5208438 12.481781 7.5214844 12.482422 C 7.5218675 12.482803 7.5230537 12.482042 7.5234375 12.482422 C 7.5234375 12.482422 7.5234375 12.484375 7.5234375 12.484375 C 7.5238217 12.484755 7.5250057 12.483996 7.5253906 12.484375 C 7.5253906 12.484375 7.5253906 12.486328 7.5253906 12.486328 C 7.5253906 12.486328 7.5273438 12.488281 7.5273438 12.488281 C 7.5273438 12.488281 7.5292969 12.490234 7.5292969 12.490234 C 7.5292969 12.490234 7.53125 12.492188 7.53125 12.492188 C 7.53125 12.492188 7.5332031 12.494141 7.5332031 12.494141 C 7.5332031 12.494141 7.5351562 12.496094 7.5351562 12.496094 C 7.5351562 12.496094 7.5371094 12.498047 7.5371094 12.498047 C 7.5381323 12.49907 7.5399879 12.498982 7.5410156 12.5 C 7.5420338 12.501028 7.5419458 12.502883 7.5429688 12.503906 C 7.5429688 12.503906 7.5449219 12.503906 7.5449219 12.503906 C 7.5489746 12.508035 7.5525115 12.511573 7.5566406 12.515625 C 7.5566406 12.515625 7.5566406 12.517578 7.5566406 12.517578 C 7.5579225 12.51886 7.5592575 12.52021 7.5605469 12.521484 C 7.5618213 12.522774 7.5651243 12.526062 7.5664062 12.527344 C 7.5709633 12.531997 7.5754242 12.536459 7.5800781 12.541016 C 7.5800781 12.541016 7.5820312 12.542969 7.5820312 12.542969 C 7.5836952 12.544633 7.5862141 12.545224 7.5878906 12.546875 C 7.5915722 12.550613 7.595865 12.552966 7.5996094 12.556641 C 7.6036629 12.560771 7.6071982 12.564306 7.6113281 12.568359 C 7.6153816 12.572489 7.6189169 12.576025 7.6230469 12.580078 C 7.6263435 12.583437 7.6275121 12.588489 7.6308594 12.591797 C 7.6360222 12.5971 7.6411963 12.602243 7.6464844 12.607422 C 7.6520489 12.613105 7.6583538 12.617508 7.6640625 12.623047 C 7.6683801 12.627431 7.6733305 12.630468 7.6777344 12.634766 C 7.6830419 12.640205 7.68792 12.645083 7.6933594 12.650391 C 7.6980338 12.655181 7.7022544 12.659374 7.7070312 12.664062 C 7.713556 12.670812 7.7178831 12.678998 7.7246094 12.685547 C 7.7314177 12.69254 7.7390684 12.698302 7.7460938 12.705078 C 7.7506548 12.709736 7.7551076 12.714189 7.7597656 12.71875 C 7.7669177 12.726166 7.7738553 12.733061 7.78125 12.740234 C 7.7887874 12.748004 7.7968831 12.754217 7.8046875 12.761719 C 7.8110054 12.768194 7.8177144 12.773009 7.8242188 12.779297 C 7.8315119 12.786841 7.8381586 12.793488 7.8457031 12.800781 C 7.8532508 12.808589 7.8593708 12.81668 7.8671875 12.824219 C 7.8749802 12.832299 7.8825447 12.839864 7.890625 12.847656 C 7.8984177 12.855737 7.9059822 12.863301 7.9140625 12.871094 C 7.9222302 12.879563 7.9309696 12.886378 7.9394531 12.894531 C 7.9479804 12.903404 7.9559707 12.911395 7.9648438 12.919922 C 7.9733711 12.928795 7.9813613 12.936785 7.9902344 12.945312 C 7.9990154 12.95445 8.0064775 12.963886 8.015625 12.972656 C 8.0240214 12.981414 8.0322828 12.989625 8.0410156 12.998047 C 8.0519705 13.009579 8.0626863 13.020295 8.0742188 13.03125 C 8.0830157 13.040372 8.0923997 13.047886 8.1015625 13.056641 C 8.1106901 13.066194 8.1193796 13.074829 8.1289062 13.083984 C 8.140568 13.096304 8.1517439 13.107478 8.1640625 13.119141 C 8.1732179 13.128667 8.1818528 13.137357 8.1914062 13.146484 C 8.2030866 13.158824 8.2142232 13.16996 8.2265625 13.181641 C 8.2369425 13.192505 8.2469177 13.202542 8.2578125 13.212891 C 8.2687851 13.224443 8.2794636 13.235121 8.2910156 13.246094 C 8.3023603 13.258038 8.3142082 13.267973 8.3261719 13.279297 C 8.3378671 13.291653 8.3489721 13.302758 8.3613281 13.314453 C 8.3724002 13.326151 8.3828662 13.33655 8.3945312 13.347656 C 8.4077408 13.361739 8.4195326 13.375439 8.4335938 13.388672 C 8.4445663 13.400224 8.4552448 13.410902 8.4667969 13.421875 C 8.4808555 13.436899 8.4947407 13.450787 8.5097656 13.464844 C 8.5217346 13.477445 8.5342179 13.48809 8.546875 13.5 C 8.5597767 13.513711 8.5722268 13.526161 8.5859375 13.539062 C 8.5992094 13.553167 8.6128257 13.564878 8.6269531 13.578125 C 8.6405701 13.592647 8.6534472 13.605524 8.6679688 13.619141 C 8.6808466 13.632874 8.69139 13.647231 8.7050781 13.660156 C 8.7197405 13.675926 8.7342779 13.690366 8.75 13.705078 C 8.7650663 13.721182 8.7807008 13.735009 8.796875 13.75 C 8.8103979 13.764371 8.82348 13.777535 8.8378906 13.791016 C 8.85236 13.806483 8.8673199 13.819542 8.8828125 13.833984 C 8.8978732 13.85014 8.9115608 13.865818 8.9277344 13.880859 C 8.9424081 13.896637 8.9569216 13.911062 8.9726562 13.925781 C 8.988262 13.942618 9.0027217 13.958974 9.0195312 13.974609 C 9.0357889 13.992094 9.0527562 14.007256 9.0703125 14.023438 C 9.0854012 14.039567 9.1009875 14.053346 9.1171875 14.068359 C 9.1331845 14.085621 9.1487544 14.10119 9.1660156 14.117188 C 9.1822616 14.134717 9.1972946 14.151743 9.2148438 14.167969 C 9.2313178 14.185787 9.2478069 14.202276 9.265625 14.21875 C 9.2814836 14.235902 9.2973475 14.25167 9.3144531 14.267578 C 9.3325005 14.287274 9.3514169 14.304198 9.3710938 14.322266 C 9.3870908 14.339527 9.4026607 14.355097 9.4199219 14.371094 C 9.4389081 14.391887 9.4577201 14.410704 9.4785156 14.429688 C 9.4954962 14.44801 9.5128479 14.463573 9.53125 14.480469 C 9.5491238 14.499937 9.5664696 14.517282 9.5859375 14.535156 C 9.604059 14.554894 9.6208657 14.573699 9.640625 14.591797 C 9.6589707 14.611826 9.6772362 14.630092 9.6972656 14.648438 C 9.714999 14.667798 9.7326446 14.685335 9.7519531 14.703125 C 9.7714835 14.724646 9.7910397 14.744076 9.8125 14.763672 C 9.8315302 14.784513 9.850246 14.803243 9.8710938 14.822266 C 9.8910879 14.844178 9.9115951 14.862912 9.9335938 14.882812 C 9.9523284 14.903218 9.9697514 14.922755 9.9902344 14.941406 C 10.009496 14.96256 10.029651 14.980714 10.050781 15 C 10.071848 15.023295 10.091918 15.045363 10.115234 15.066406 C 10.133945 15.086834 10.153367 15.104372 10.173828 15.123047 C 10.195796 15.147474 10.217757 15.169443 10.242188 15.191406 C 10.262202 15.213335 10.282665 15.23204 10.304688 15.251953 C 10.325571 15.275049 10.346045 15.295523 10.369141 15.316406 C 10.39027 15.339774 10.410201 15.361711 10.433594 15.382812 C 10.454941 15.406477 10.476335 15.427872 10.5 15.449219 C 10.521347 15.472884 10.542741 15.494278 10.566406 15.515625 C 10.588115 15.539691 10.610661 15.560364 10.634766 15.582031 C 10.656794 15.606537 10.678619 15.628362 10.703125 15.650391 C 10.725398 15.675169 10.746679 15.698459 10.771484 15.720703 C 10.793123 15.744833 10.815804 15.765372 10.839844 15.787109 C 10.863903 15.814138 10.887016 15.839241 10.914062 15.863281 C 10.935771 15.887347 10.958318 15.90802 10.982422 15.929688 C 11.006792 15.957051 11.031163 15.981563 11.058594 16.005859 C 11.081228 16.03104 11.103659 16.053611 11.128906 16.076172 C 11.152432 16.102498 11.176757 16.124958 11.203125 16.148438 C 11.226964 16.175209 11.250572 16.198817 11.277344 16.222656 C 11.301427 16.249701 11.324489 16.274777 11.351562 16.298828 C 11.375857 16.326176 11.400387 16.350706 11.427734 16.375 C 11.452029 16.402347 11.476559 16.426878 11.503906 16.451172 C 11.528559 16.478923 11.554236 16.502739 11.582031 16.527344 C 11.606995 16.555543 11.631957 16.580505 11.660156 16.605469 C 11.684519 16.632989 11.70888 16.657198 11.736328 16.681641 C 11.762701 16.711697 11.788337 16.739215 11.818359 16.765625 C 11.843013 16.793376 11.868689 16.817192 11.896484 16.841797 C 11.92319 16.872245 11.950021 16.899075 11.980469 16.925781 C 12.006033 16.95466 12.031593 16.980379 12.060547 17.005859 C 12.086027 17.034814 12.111747 17.060373 12.140625 17.085938 C 12.168388 17.117778 12.196681 17.146058 12.228516 17.173828 C 12.25408 17.202707 12.27964 17.228426 12.308594 17.253906 C 12.336363 17.285741 12.364644 17.314034 12.396484 17.341797 C 12.423163 17.372112 12.450074 17.399191 12.480469 17.425781 C 12.507656 17.456858 12.535329 17.484531 12.566406 17.511719 C 12.59395 17.543202 12.622764 17.570167 12.654297 17.597656 C 12.682141 17.629596 12.710248 17.657703 12.742188 17.685547 C 12.770031 17.717487 12.798138 17.745594 12.830078 17.773438 C 12.858163 17.805653 12.885719 17.835234 12.917969 17.863281 C 12.946256 17.895807 12.975287 17.924838 13.007812 17.953125 C 13.036454 17.986059 13.066625 18.014384 13.099609 18.042969 C 13.128548 18.076362 13.158013 18.105827 13.191406 18.134766 C 13.220345 18.168158 13.24981 18.197624 13.283203 18.226562 C 13.312496 18.260364 13.3431 18.289125 13.376953 18.318359 C 13.406541 18.352622 13.436441 18.382522 13.470703 18.412109 C 13.499937 18.445962 13.528699 18.476567 13.5625 18.505859 C 13.593128 18.541529 13.624486 18.572887 13.660156 18.603516 C 13.689449 18.637317 13.720053 18.666078 13.753906 18.695312 C 13.785364 18.732079 13.816719 18.765451 13.853516 18.796875 C 13.883402 18.831362 13.914591 18.860898 13.949219 18.890625 C 13.979536 18.925941 14.00966 18.957903 14.044922 18.988281 C 14.076572 19.02536 14.109413 19.058184 14.146484 19.089844 C 14.176863 19.125106 14.208825 19.155229 14.244141 19.185547 C 14.276478 19.223566 14.309638 19.256725 14.347656 19.289062 C 14.378916 19.325477 14.410759 19.357517 14.447266 19.388672 C 14.479009 19.425869 14.511631 19.458491 14.548828 19.490234 C 14.580922 19.527842 14.614679 19.559768 14.652344 19.591797 C 14.684723 19.629874 14.717783 19.662933 14.755859 19.695312 C 14.788239 19.733389 14.821298 19.766449 14.859375 19.798828 C 14.891992 19.837184 14.924496 19.871725 14.962891 19.904297 C 14.995699 19.942971 15.029685 19.976957 15.068359 20.009766 C 15.101518 20.048852 15.136636 20.082144 15.175781 20.115234 C 15.209221 20.154793 15.243645 20.189216 15.283203 20.222656 C 15.316643 20.262215 15.351067 20.296638 15.390625 20.330078 C 15.424301 20.369916 15.458168 20.405823 15.498047 20.439453 C 15.531913 20.479612 15.567263 20.514962 15.607422 20.548828 C 15.641288 20.588987 15.676638 20.624337 15.716797 20.658203 C 15.751011 20.698775 15.787492 20.733434 15.828125 20.767578 C 15.862617 20.808625 15.898407 20.844414 15.939453 20.878906 C 15.974293 20.920367 16.011212 20.955466 16.052734 20.990234 C 16.08785 21.032171 16.124079 21.0684 16.166016 21.103516 C 16.201131 21.145452 16.23736 21.181682 16.279297 21.216797 C 16.314647 21.259015 16.350318 21.29673 16.392578 21.332031 C 16.428114 21.374573 16.465271 21.41173 16.507812 21.447266 C 16.543695 21.490222 16.58198 21.526692 16.625 21.5625 C 16.660574 21.605238 16.697602 21.642037 16.740234 21.677734 C 16.777189 21.722279 16.814787 21.761924 16.859375 21.798828 C 16.894911 21.84137 16.932068 21.878527 16.974609 21.914062 C 17.011123 21.958154 17.049757 21.996575 17.09375 22.033203 C 17.131186 22.078409 17.171514 22.116952 17.216797 22.154297 C 17.252951 22.197733 17.290549 22.23533 17.333984 22.271484 C 17.372313 22.318003 17.412381 22.358255 17.458984 22.396484 C 17.495719 22.440617 17.533883 22.479019 17.578125 22.515625 C 17.615654 22.560983 17.655747 22.599268 17.701172 22.636719 C 17.738623 22.682143 17.776908 22.722236 17.822266 22.759766 C 17.860967 22.806975 17.902022 22.848003 17.949219 22.886719 C 17.986982 22.932359 18.026513 22.972135 18.072266 23.009766 C 18.110816 23.056637 18.152279 23.096296 18.199219 23.134766 C 18.237688 23.181705 18.277348 23.223168 18.324219 23.261719 C 18.363493 23.309626 18.405114 23.351475 18.453125 23.390625 C 18.491675 23.437496 18.533139 23.477156 18.580078 23.515625 C 18.619123 23.563266 18.659343 23.605543 18.707031 23.644531 C 18.746594 23.692922 18.789429 23.733958 18.837891 23.773438 C 18.87737 23.821899 18.918406 23.864734 18.966797 23.904297 C 19.005786 23.951985 19.048062 23.992206 19.095703 24.03125 C 19.136447 24.081695 19.180132 24.125142 19.230469 24.166016 C 19.270631 24.215315 19.31391 24.256798 19.363281 24.296875 C 19.403699 24.346666 19.446303 24.38927 19.496094 24.429688 C 19.536743 24.479763 19.578781 24.523863 19.628906 24.564453 C 19.669727 24.614863 19.713262 24.658398 19.763672 24.699219 C 19.804493 24.749628 19.848028 24.793163 19.898438 24.833984 C 19.939599 24.884814 19.984253 24.927676 20.035156 24.96875 C 20.076569 25.020074 20.120551 25.064056 20.171875 25.105469 C 20.212949 25.156372 20.255811 25.201026 20.306641 25.242188 C 20.348419 25.294258 20.393367 25.338931 20.445312 25.380859 C 20.487949 25.433963 20.534695 25.478957 20.587891 25.521484 C 20.629534 25.573094 20.67295 25.618573 20.724609 25.660156 C 20.766192 25.711816 20.811672 25.755232 20.863281 25.796875 C 20.906571 25.851311 20.953491 25.897979 21.007812 25.941406 C 21.050551 25.994692 21.097029 26.039385 21.150391 26.082031 C 21.193375 26.135816 21.239184 26.181625 21.292969 26.224609 C 21.335615 26.277971 21.380308 26.324449 21.433594 26.367188 C 21.477548 26.422459 21.524767 26.469766 21.580078 26.513672 C 21.623384 26.567665 21.670409 26.613194 21.724609 26.65625 C 21.767666 26.71045 21.813194 26.757475 21.867188 26.800781 C 21.911542 26.856892 21.959607 26.904751 22.015625 26.949219 C 22.060041 27.005071 22.108062 27.053421 22.164062 27.097656 C 22.208006 27.152776 22.255296 27.200357 22.310547 27.244141 C 22.478812 27.456475 22.727233 27.601562 23.017578 27.601562 L 24.851562 27.601562 L 24.861328 27.611328 L 24.890625 27.640625 L 24.998047 27.748047 L 25.035156 27.785156 L 25.136719 27.886719 L 25.179688 27.929688 L 25.275391 28.025391 L 25.326172 28.076172 L 25.414062 28.164062 L 25.472656 28.222656 L 25.554688 28.304688 L 25.619141 28.369141 L 25.695312 28.445312 L 25.767578 28.517578 L 25.835938 28.585938 L 25.978516 28.728516 L 27.142578 29.892578 L 28.517578 28.517578 L 28.220703 28.517578 L 28.369141 28.369141 L 28.076172 28.369141 L 28.222656 28.222656 L 27.929688 28.222656 L 28.076172 28.076172 L 27.783203 28.076172 L 27.929688 27.929688 L 27.640625 27.929688 L 27.785156 27.785156 L 27.601562 27.785156 L 27.601562 27.679688 L 27.640625 27.640625 L 27.601562 27.640625 L 27.601562 27.601562 L 29.433594 27.601562 L 29.433594 26.683594 L 29.287109 26.683594 L 29.287109 26.537109 L 29.138672 26.537109 L 29.138672 26.388672 L 28.992188 26.388672 L 28.992188 26.242188 L 28.845703 26.242188 L 28.845703 26.095703 L 28.701172 26.095703 L 28.701172 25.951172 L 28.556641 25.951172 L 28.556641 25.806641 L 28.412109 25.806641 L 28.412109 25.662109 L 28.269531 25.662109 L 28.269531 25.519531 L 28.126953 25.519531 L 28.126953 25.376953 L 27.986328 25.376953 L 27.986328 25.236328 L 27.845703 25.236328 L 27.845703 25.095703 L 27.705078 25.095703 L 27.705078 24.955078 L 27.601562 24.955078 L 27.601562 23.017578 C 27.601562 22.727233 27.456475 22.478812 27.244141 22.310547 C 27.200357 22.255296 27.152776 22.208006 27.097656 22.164062 C 27.053421 22.108062 27.005071 22.060041 26.949219 22.015625 C 26.904751 21.959607 26.856892 21.911542 26.800781 21.867188 C 26.757475 21.813194 26.71045 21.767666 26.65625 21.724609 C 26.613194 21.670409 26.567665 21.623384 26.513672 21.580078 C 26.469766 21.524767 26.422459 21.477548 26.367188 21.433594 C 26.324449 21.380308 26.277971 21.335615 26.224609 21.292969 C 26.181625 21.239184 26.135816 21.193375 26.082031 21.150391 C 26.039385 21.097029 25.994692 21.050551 25.941406 21.007812 C 25.897979 20.953491 25.851311 20.906571 25.796875 20.863281 C 25.755232 20.811672 25.711816 20.766192 25.660156 20.724609 C 25.618573 20.67295 25.573094 20.629534 25.521484 20.587891 C 25.478957 20.534695 25.433963 20.487949 25.380859 20.445312 C 25.338931 20.393367 25.294258 20.348419 25.242188 20.306641 C 25.201026 20.255811 25.156372 20.212949 25.105469 20.171875 C 25.064056 20.120551 25.020074 20.076569 24.96875 20.035156 C 24.927676 19.984253 24.884814 19.939599 24.833984 19.898438 C 24.793163 19.848028 24.749628 19.804493 24.699219 19.763672 C 24.658398 19.713262 24.614863 19.669727 24.564453 19.628906 C 24.523863 19.578781 24.479763 19.536743 24.429688 19.496094 C 24.38927 19.446303 24.346666 19.403699 24.296875 19.363281 C 24.256798 19.31391 24.215315 19.270631 24.166016 19.230469 C 24.125142 19.180132 24.081695 19.136447 24.03125 19.095703 C 23.992206 19.048062 23.951985 19.005786 23.904297 18.966797 C 23.864734 18.918406 23.821899 18.87737 23.773438 18.837891 C 23.733958 18.789429 23.692922 18.746594 23.644531 18.707031 C 23.605543 18.659343 23.563266 18.619123 23.515625 18.580078 C 23.477156 18.533139 23.437496 18.491675 23.390625 18.453125 C 23.351475 18.405114 23.309626 18.363493 23.261719 18.324219 C 23.223168 18.277348 23.181705 18.237688 23.134766 18.199219 C 23.096296 18.152279 23.056637 18.110816 23.009766 18.072266 C 22.972135 18.026513 22.932359 17.986982 22.886719 17.949219 C 22.848003 17.902022 22.806975 17.860967 22.759766 17.822266 C 22.722236 17.776908 22.682143 17.738623 22.636719 17.701172 C 22.599268 17.655747 22.560983 17.615654 22.515625 17.578125 C 22.479019 17.533883 22.440617 17.495719 22.396484 17.458984 C 22.358255 17.412381 22.318003 17.372313 22.271484 17.333984 C 22.23533 17.290549 22.197733 17.252951 22.154297 17.216797 C 22.116952 17.171514 22.078409 17.131186 22.033203 17.09375 C 21.996575 17.049757 21.958154 17.011123 21.914062 16.974609 C 21.878527 16.932068 21.84137 16.894911 21.798828 16.859375 C 21.761924 16.814787 21.722279 16.777189 21.677734 16.740234 C 21.642037 16.697602 21.605238 16.660574 21.5625 16.625 C 21.526692 16.58198 21.490222 16.543695 21.447266 16.507812 C 21.41173 16.465271 21.374573 16.428114 21.332031 16.392578 C 21.29673 16.350318 21.259015 16.314647 21.216797 16.279297 C 21.181682 16.23736 21.145452 16.201131 21.103516 16.166016 C 21.0684 16.124079 21.032171 16.08785 20.990234 16.052734 C 20.955466 16.011212 20.920367 15.974293 20.878906 15.939453 C 20.844414 15.898407 20.808625 15.862617 20.767578 15.828125 C 20.733434 15.787492 20.698775 15.751011 20.658203 15.716797 C 20.624337 15.676638 20.588987 15.641288 20.548828 15.607422 C 20.514962 15.567263 20.479612 15.531913 20.439453 15.498047 C 20.405823 15.458168 20.369916 15.424301 20.330078 15.390625 C 20.296638 15.351067 20.262215 15.316643 20.222656 15.283203 C 20.189216 15.243645 20.154793 15.209221 20.115234 15.175781 C 20.082144 15.136636 20.048852 15.101518 20.009766 15.068359 C 19.976957 15.029685 19.942971 14.995699 19.904297 14.962891 C 19.871725 14.924496 19.837184 14.891992 19.798828 14.859375 C 19.766449 14.821298 19.733389 14.788239 19.695312 14.755859 C 19.662933 14.717783 19.629874 14.684723 19.591797 14.652344 C 19.559768 14.614679 19.527842 14.580922 19.490234 14.548828 C 19.458491 14.511631 19.425869 14.479009 19.388672 14.447266 C 19.357517 14.410759 19.325477 14.378916 19.289062 14.347656 C 19.256725 14.309638 19.223566 14.276478 19.185547 14.244141 C 19.155229 14.208825 19.125106 14.176863 19.089844 14.146484 C 19.058184 14.109413 19.02536 14.076572 18.988281 14.044922 C 18.957903 14.00966 18.925941 13.979536 18.890625 13.949219 C 18.860898 13.914591 18.831362 13.883402 18.796875 13.853516 C 18.765451 13.816719 18.732079 13.785364 18.695312 13.753906 C 18.666078 13.720053 18.637317 13.689449 18.603516 13.660156 C 18.572887 13.624486 18.541529 13.593128 18.505859 13.5625 C 18.476567 13.528699 18.445962 13.499937 18.412109 13.470703 C 18.382522 13.436441 18.352622 13.406541 18.318359 13.376953 C 18.289125 13.3431 18.260364 13.312496 18.226562 13.283203 C 18.197624 13.24981 18.168158 13.220345 18.134766 13.191406 C 18.105827 13.158013 18.076362 13.128548 18.042969 13.099609 C 18.014384 13.066625 17.986059 13.036454 17.953125 13.007812 C 17.924838 12.975287 17.895807 12.946256 17.863281 12.917969 C 17.835234 12.885719 17.805653 12.858163 17.773438 12.830078 C 17.745594 12.798138 17.717487 12.770031 17.685547 12.742188 C 17.657703 12.710248 17.629596 12.682141 17.597656 12.654297 C 17.570167 12.622764 17.543202 12.59395 17.511719 12.566406 C 17.484531 12.535329 17.456858 12.507656 17.425781 12.480469 C 17.399191 12.450074 17.372112 12.423163 17.341797 12.396484 C 17.314034 12.364644 17.285741 12.336363 17.253906 12.308594 C 17.228426 12.27964 17.202707 12.25408 17.173828 12.228516 C 17.146058 12.196681 17.117778 12.168388 17.085938 12.140625 C 17.060373 12.111747 17.034814 12.086027 17.005859 12.060547 C 16.980379 12.031593 16.95466 12.006033 16.925781 11.980469 C 16.899075 11.950021 16.872245 11.92319 16.841797 11.896484 C 16.817192 11.868689 16.793376 11.843013 16.765625 11.818359 C 16.739215 11.788337 16.711697 11.762701 16.681641 11.736328 C 16.657198 11.70888 16.632989 11.684519 16.605469 11.660156 C 16.580505 11.631957 16.555543 11.606995 16.527344 11.582031 C 16.502739 11.554236 16.478923 11.528559 16.451172 11.503906 C 16.426878 11.476559 16.402347 11.452029 16.375 11.427734 C 16.350706 11.400387 16.326176 11.375857 16.298828 11.351562 C 16.274777 11.324489 16.249701 11.301427 16.222656 11.277344 C 16.198817 11.250572 16.175209 11.226964 16.148438 11.203125 C 16.124958 11.176757 16.102498 11.152432 16.076172 11.128906 C 16.053611 11.103659 16.03104 11.081228 16.005859 11.058594 C 15.981563 11.031163 15.957051 11.006792 15.929688 10.982422 C 15.90802 10.958318 15.887347 10.935771 15.863281 10.914062 C 15.839241 10.887016 15.814138 10.863903 15.787109 10.839844 C 15.765372 10.815804 15.744833 10.793123 15.720703 10.771484 C 15.698459 10.746679 15.675169 10.725398 15.650391 10.703125 C 15.628362 10.678619 15.606537 10.656794 15.582031 10.634766 C 15.560364 10.610661 15.539691 10.588115 15.515625 10.566406 C 15.494278 10.542741 15.472884 10.521347 15.449219 10.5 C 15.427872 10.476335 15.406477 10.454941 15.382812 10.433594 C 15.361711 10.410201 15.339774 10.39027 15.316406 10.369141 C 15.295523 10.346045 15.275049 10.325571 15.251953 10.304688 C 15.23204 10.282665 15.213335 10.262202 15.191406 10.242188 C 15.169443 10.217757 15.147474 10.195796 15.123047 10.173828 C 15.104372 10.153367 15.086834 10.133945 15.066406 10.115234 C 15.045363 10.091918 15.023295 10.071848 15 10.050781 C 14.980714 10.029651 14.96256 10.009496 14.941406 9.9902344 C 14.922755 9.9697514 14.903218 9.9523284 14.882812 9.9335938 C 14.862912 9.9115951 14.844178 9.8910879 14.822266 9.8710938 C 14.803243 9.850246 14.784513 9.8315302 14.763672 9.8125 C 14.744076 9.7910397 14.724646 9.7714835 14.703125 9.7519531 C 14.685335 9.7326446 14.667798 9.714999 14.648438 9.6972656 C 14.630092 9.6772362 14.611826 9.6589707 14.591797 9.640625 C 14.573699 9.6208657 14.554894 9.604059 14.535156 9.5859375 C 14.517282 9.5664696 14.499937 9.5491238 14.480469 9.53125 C 14.463573 9.5128479 14.44801 9.4954962 14.429688 9.4785156 C 14.410704 9.4577201 14.391887 9.4389081 14.371094 9.4199219 C 14.355097 9.4026607 14.339527 9.3870908 14.322266 9.3710938 C 14.304198 9.3514169 14.287274 9.3325005 14.267578 9.3144531 C 14.25167 9.2973475 14.235902 9.2814836 14.21875 9.265625 C 14.202276 9.2478069 14.185787 9.2313178 14.167969 9.2148438 C 14.151743 9.1972946 14.134717 9.1822616 14.117188 9.1660156 C 14.10119 9.1487544 14.085621 9.1331845 14.068359 9.1171875 C 14.053346 9.1009875 14.039567 9.0854012 14.023438 9.0703125 C 14.007256 9.0527562 13.992094 9.0357889 13.974609 9.0195312 C 13.958974 9.0027217 13.942618 8.988262 13.925781 8.9726562 C 13.911062 8.9569216 13.896637 8.9424081 13.880859 8.9277344 C 13.865818 8.9115608 13.85014 8.8978732 13.833984 8.8828125 C 13.819542 8.8673199 13.806483 8.85236 13.791016 8.8378906 C 13.777535 8.82348 13.764371 8.8103979 13.75 8.796875 C 13.735009 8.7807008 13.721182 8.7650663 13.705078 8.75 C 13.690366 8.7342779 13.675926 8.7197405 13.660156 8.7050781 C 13.647231 8.69139 13.632874 8.6808466 13.619141 8.6679688 C 13.605524 8.6534472 13.592647 8.6405701 13.578125 8.6269531 C 13.564878 8.6128257 13.553167 8.5992094 13.539062 8.5859375 C 13.526161 8.5722268 13.513711 8.5597767 13.5 8.546875 C 13.48809 8.5342179 13.477445 8.5217346 13.464844 8.5097656 C 13.450787 8.4947407 13.436899 8.4808555 13.421875 8.4667969 C 13.410902 8.4552448 13.400224 8.4445663 13.388672 8.4335938 C 13.375439 8.4195326 13.361739 8.4077408 13.347656 8.3945312 C 13.33655 8.3828662 13.326151 8.3724002 13.314453 8.3613281 C 13.302758 8.3489721 13.291653 8.3378671 13.279297 8.3261719 C 13.267973 8.3142082 13.258038 8.3023603 13.246094 8.2910156 C 13.235121 8.2794636 13.224443 8.2687851 13.212891 8.2578125 C 13.202542 8.2469177 13.192505 8.2369425 13.181641 8.2265625 C 13.16996 8.2142232 13.158824 8.2030866 13.146484 8.1914062 C 13.137357 8.1818528 13.128667 8.1732179 13.119141 8.1640625 C 13.107478 8.1517439 13.096304 8.140568 13.083984 8.1289062 C 13.074829 8.1193796 13.066194 8.1106901 13.056641 8.1015625 C 13.047886 8.0923997 13.040372 8.0830157 13.03125 8.0742188 C 13.020295 8.0626863 13.009579 8.0519705 12.998047 8.0410156 C 12.989625 8.0322828 12.981414 8.0240214 12.972656 8.015625 C 12.963886 8.0064775 12.95445 7.9990154 12.945312 7.9902344 C 12.936785 7.9813613 12.928795 7.9733711 12.919922 7.9648438 C 12.911395 7.9559707 12.903404 7.9479804 12.894531 7.9394531 C 12.886378 7.9309696 12.879563 7.9222302 12.871094 7.9140625 C 12.863301 7.9059822 12.855737 7.8984177 12.847656 7.890625 C 12.839864 7.8825447 12.832299 7.8749802 12.824219 7.8671875 C 12.81668 7.8593708 12.808589 7.8532508 12.800781 7.8457031 C 12.793488 7.8381586 12.786841 7.8315119 12.779297 7.8242188 C 12.773009 7.8177144 12.768194 7.8110054 12.761719 7.8046875 C 12.754217 7.7968831 12.748004 7.7887874 12.740234 7.78125 C 12.733061 7.7738553 12.726166 7.7669177 12.71875 7.7597656 C 12.714189 7.7551076 12.709736 7.7506548 12.705078 7.7460938 C 12.698302 7.7390684 12.69254 7.7314177 12.685547 7.7246094 C 12.678998 7.7178831 12.670812 7.713556 12.664062 7.7070312 C 12.659374 7.7022544 12.655181 7.6980338 12.650391 7.6933594 C 12.645083 7.68792 12.640205 7.6830419 12.634766 7.6777344 C 12.630468 7.6733305 12.627431 7.6683801 12.623047 7.6640625 C 12.617508 7.6583538 12.613105 7.6520489 12.607422 7.6464844 C 12.602243 7.6411963 12.5971 7.6360222 12.591797 7.6308594 C 12.588489 7.6275121 12.583437 7.6263435 12.580078 7.6230469 C 12.576025 7.6189169 12.572489 7.6153816 12.568359 7.6113281 C 12.564306 7.6071982 12.560771 7.6036629 12.556641 7.5996094 C 12.552966 7.595865 12.550613 7.5915722 12.546875 7.5878906 C 12.545224 7.5862141 12.54268 7.581742 12.541016 7.5800781 C 12.536459 7.5754242 12.530044 7.5690102 12.525391 7.5644531 C 12.524109 7.5631712 12.522774 7.5618213 12.521484 7.5605469 C 12.52021 7.5592575 12.516907 7.5579225 12.515625 7.5566406 C 12.511573 7.5525115 12.508035 7.5470215 12.503906 7.5429688 C 12.502883 7.5419458 12.501028 7.5420338 12.5 7.5410156 C 12.498982 7.5399879 12.497117 7.5361792 12.496094 7.5351562 C 12.496094 7.5351562 12.494141 7.5332031 12.494141 7.5332031 C 12.494141 7.5332031 12.492188 7.53125 12.492188 7.53125 C 12.492188 7.53125 12.490234 7.5292969 12.490234 7.5292969 C 12.490234 7.5292969 12.488281 7.5273438 12.488281 7.5273438 C 12.488281 7.5273438 12.486328 7.5253906 12.486328 7.5253906 C 12.486328 7.5253906 12.484375 7.5253906 12.484375 7.5253906 C 12.483739 7.5247448 12.48306 7.5240814 12.482422 7.5234375 C 12.482422 7.5234375 12.482422 7.5214844 12.482422 7.5214844 C 12.481781 7.5208438 12.481111 7.52017 12.480469 7.5195312 C 12.398678 7.4377402 12.300911 7.3726329 12.193359 7.3261719 C 12.193359 7.3261719 12.191406 7.3242188 12.191406 7.3242188 C 12.081158 7.2769875 11.960999 7.25 11.833984 7.25 L 10 7.25 L 9.9667969 7.2167969 L 9.9101562 7.1601562 L 9.8535156 7.1035156 L 9.796875 7.046875 L 9.7421875 6.9921875 L 9.6875 6.9375 L 9.6328125 6.8828125 L 9.5800781 6.8300781 L 9.5273438 6.7773438 L 9.4765625 6.7265625 L 9.4257812 6.6757812 L 9.375 6.625 L 9.3261719 6.5761719 L 9.2773438 6.5273438 L 9.2285156 6.4785156 L 9.1816406 6.4316406 L 9.1347656 6.3847656 L 9.0898438 6.3398438 L 9.0839844 6.3339844 L 9.0449219 6.2949219 L 9 6.25 L 8.9570312 6.2070312 L 8.9140625 6.1640625 L 8.8730469 6.1230469 L 8.8320312 6.0820312 L 8.7910156 6.0410156 L 8.7519531 6.0019531 L 8.7128906 5.9628906 L 8.6738281 5.9238281 L 8.6367188 5.8867188 L 8.5996094 5.8496094 L 8.5644531 5.8144531 L 8.5292969 5.7792969 L 8.4941406 5.7441406 L 8.4609375 5.7109375 L 8.4277344 5.6777344 L 8.3945312 5.6445312 L 8.3632812 5.6132812 L 8.3320312 5.5820312 L 8.3027344 5.5527344 L 8.2734375 5.5234375 L 8.2441406 5.4941406 L 8.2167969 5.4667969 L 8.1894531 5.4394531 L 8.1640625 5.4140625 L 8.1367188 5.3867188 L 8.1132812 5.3632812 L 8.0878906 5.3378906 L 8.0644531 5.3144531 L 8.0429688 5.2929688 L 8.0214844 5.2714844 L 8 5.25 L 7.9785156 5.2285156 L 7.9589844 5.2089844 L 7.9394531 5.1894531 L 7.921875 5.171875 L 7.9042969 5.1542969 L 7.8886719 5.1386719 L 7.8710938 5.1210938 L 7.8574219 5.1074219 L 7.8417969 5.0917969 L 7.828125 5.078125 L 7.8164062 5.0664062 L 7.8027344 5.0527344 L 7.7910156 5.0410156 L 7.78125 5.03125 L 7.7714844 5.0214844 L 7.7617188 5.0117188 L 7.7539062 5.0039062 L 7.7460938 4.9960938 L 7.7382812 4.9882812 L 7.7324219 4.9824219 L 7.7265625 4.9765625 L 7.7226562 4.9726562 L 7.7167969 4.9667969 L 7.7148438 4.9648438 L 7.7109375 4.9609375 L 7.7089844 4.9589844 z "
       id="path7015"
       clip-path="url(#clipPath7910)" />
    <path
       d="m 3.9999777,4.0333382 12.0000003,0 0,11.9333328 -12.0000003,0 z"
       id="path4"
       inkscape:connector-curvature="0"
       style="fill:none" />
    <path
       style="fill:none"
       inkscape:connector-curvature="0"
       id="path9754"
       d="m 18.999978,19.033339 12,0 0,11.933333 -12,0 z" />
    <g
       id="g4860"
       transform="matrix(0.03184582,0,0,0.03184582,4.9999993,4.9999873)" />
    <g
       id="g4862"
       transform="matrix(0.03184582,0,0,0.03184582,4.9999993,4.9999873)" />
    <g
       id="g4864"
       transform="matrix(0.03184582,0,0,0.03184582,4.9999993,4.9999873)" />
    <g
       id="g4866"
       transform="matrix(0.03184582,0,0,0.03184582,4.9999993,4.9999873)" />
    <g
       id="g4868"
       transform="matrix(0.03184582,0,0,0.03184582,4.9999993,4.9999873)" />
    <g
       id="g4870"
       transform="matrix(0.03184582,0,0,0.03184582,4.9999993,4.9999873)" />
    <g
       id="g4872"
       transform="matrix(0.03184582,0,0,0.03184582,4.9999993,4.9999873)" />
    <g
       id="g4874"
       transform="matrix(0.03184582,0,0,0.03184582,4.9999993,4.9999873)" />
    <g
       id="g4876"
       transform="matrix(0.03184582,0,0,0.03184582,4.9999993,4.9999873)" />
    <g
       id="g4878"
       transform="matrix(0.03184582,0,0,0.03184582,4.9999993,4.9999873)" />
    <g
       id="g4880"
       transform="matrix(0.03184582,0,0,0.03184582,4.9999993,4.9999873)" />
    <g
       id="g4882"
       transform="matrix(0.03184582,0,0,0.03184582,4.9999993,4.9999873)" />
    <g
       id="g4884"
       transform="matrix(0.03184582,0,0,0.03184582,4.9999993,4.9999873)" />
    <g
       id="g4886"
       transform="matrix(0.03184582,0,0,0.03184582,4.9999993,4.9999873)" />
    <g
       id="g4888"
       transform="matrix(0.03184582,0,0,0.03184582,4.9999993,4.9999873)" />
    <path
       id="path6048"
       d="M 4.5000001,4.5000001 15.5,4.5000001 15.5,15.5 4.5000001,15.5 Z"
       inkscape:connector-curvature="0"
       style="fill:none" />
    <path
       id="path6050"
       d="m 14.583333,12.75 0,-0.916667 -6.4166663,0 0,-5.4999996 0.9166667,0 -1.375,-1.375 -1.375,1.375 0.9166667,0 0,0.9166667 -1.8333333,0 0,0.9166666 1.8333333,0 0,3.6666663 c 0,0.504167 0.4125,0.916667 0.9166666,0.916667 l 3.6666663,0 0,0.916667 -0.916666,0 1.375,1.375 1.375,-1.375 -0.916667,0 0,-0.916667 1.833333,0 z m -5.4999996,-4.5833333 2.7499996,0 0,2.7500003 0.916667,0 0,-2.7500003 c 0,-0.5041666 -0.4125,-0.9166666 -0.916667,-0.9166666 l -2.7499996,0 0,0.9166666 z"
       inkscape:connector-curvature="0"
       style="fill:#f44336" />
    <path
       style="fill:none"
       inkscape:connector-curvature="0"
       d="m 19.5,19.5 11,0 0,11 -11,0 z"
       id="path6064" />
    <path
       style="fill:#4caf50"
       inkscape:connector-curvature="0"
       d="m 14.583333,12.75 0,-0.916667 -6.4166663,0 0,-5.4999996 0.9166667,0 -1.375,-1.375 -1.375,1.375 0.9166667,0 0,0.9166667 -1.8333333,0 0,0.9166666 1.8333333,0 0,3.6666663 c 0,0.504167 0.4125,0.916667 0.9166666,0.916667 l 3.6666663,0 0,0.916667 -0.916666,0 1.375,1.375 1.375,-1.375 -0.916667,0 0,-0.916667 1.833333,0 z m -5.4999996,-4.5833333 2.7499996,0 0,2.7500003 0.916667,0 0,-2.7500003 c 0,-0.5041666 -0.4125,-0.9166666 -0.916667,-0.9166666 l -2.7499996,0 0,0.9166666 z"
       id="path4227"
       clip-path="url(#clipPath4231)" />
    <path
       clip-path="url(#clipPath4239)"
       id="path4235"
       d="m 14.583333,12.75 0,-0.916667 -6.4166663,0 0,-5.4999996 0.9166667,0 -1.375,-1.375 -1.375,1.375 0.9166667,0 0,0.9166667 -1.8333333,0 0,0.9166666 1.8333333,0 0,3.6666663 c 0,0.504167 0.4125,0.916667 0.9166666,0.916667 l 3.6666663,0 0,0.916667 -0.916666,0 1.375,1.375 1.375,-1.375 -0.916667,0 0,-0.916667 1.833333,0 z m -5.4999996,-4.5833333 2.7499996,0 0,2.7500003 0.916667,0 0,-2.7500003 c 0,-0.5041666 -0.4125,-0.9166666 -0.916667,-0.9166666 l -2.7499996,0 0,0.9166666 z"
       inkscape:connector-curvature="0"
       style="fill:#f44336" />
  </g>
</svg>
