<?xml version="1.0" encoding="UTF-8" standalone="no"?>
<!-- Created with Inkscape (http://www.inkscape.org/) -->

<svg
   xmlns:dc="http://purl.org/dc/elements/1.1/"
   xmlns:cc="http://creativecommons.org/ns#"
   xmlns:rdf="http://www.w3.org/1999/02/22-rdf-syntax-ns#"
   xmlns:svg="http://www.w3.org/2000/svg"
   xmlns="http://www.w3.org/2000/svg"
   xmlns:xlink="http://www.w3.org/1999/xlink"
   xmlns:sodipodi="http://sodipodi.sourceforge.net/DTD/sodipodi-0.dtd"
   xmlns:inkscape="http://www.inkscape.org/namespaces/inkscape"
   width="5.6444445mm"
   height="5.6444445mm"
   viewBox="0 0 20 20"
   id="svg2"
   version="1.1"
   inkscape:version="0.91 r13725"
   sodipodi:docname="Bank.svg"
   inkscape:export-filename="/home/juergen/Projekte/Android/Android_Studio/Baumann_Theme/theme/src/main/assets/icons/res/drawable-xxhdpi/a077.png"
   inkscape:export-xdpi="648"
   inkscape:export-ydpi="648">
  <sodipodi:namedview
     id="base"
     pagecolor="#ffffff"
     bordercolor="#666666"
     borderopacity="1.0"
     inkscape:pageopacity="0.0"
     inkscape:pageshadow="2"
     inkscape:zoom="22.4"
     inkscape:cx="11.187659"
     inkscape:cy="9.6873965"
     inkscape:document-units="px"
     inkscape:current-layer="layer2"
     showgrid="false"
     fit-margin-top="0"
     fit-margin-left="0"
     fit-margin-right="0"
     fit-margin-bottom="0"
     showguides="true"
     inkscape:guide-bbox="true"
     inkscape:window-width="1366"
     inkscape:window-height="744"
     inkscape:window-x="0"
     inkscape:window-y="24"
     inkscape:window-maximized="1"
     inkscape:snap-grids="true"
     inkscape:snap-to-guides="true"
     inkscape:snap-page="false">
    <inkscape:grid
       type="xygrid"
       id="grid4138" />
    <sodipodi:guide
       position="10,18"
       orientation="0,1"
       id="guide4140" />
    <sodipodi:guide
       position="10,2"
       orientation="0,1"
       id="guide4142" />
    <sodipodi:guide
       position="2,10"
       orientation="1,0"
       id="guide4144" />
    <sodipodi:guide
       position="0,0"
       orientation="0,20"
       id="guide4146" />
    <sodipodi:guide
       position="20,0"
       orientation="-20,0"
       id="guide4148" />
    <sodipodi:guide
       position="20,20"
       orientation="0,-20"
       id="guide4150" />
    <sodipodi:guide
       position="0,20"
       orientation="20,0"
       id="guide4152" />
    <sodipodi:guide
       position="18,10"
       orientation="1,0"
       id="guide4154" />
    <sodipodi:guide
       position="10,10"
       orientation="-0.70710678,0.70710678"
       id="guide4156" />
    <sodipodi:guide
       position="4,10"
       orientation="1,0"
       id="guide4160" />
    <sodipodi:guide
       position="16,10"
       orientation="1,0"
       id="guide4162" />
    <sodipodi:guide
       position="10,16"
       orientation="0,1"
       id="guide4164" />
    <sodipodi:guide
       position="10,4"
       orientation="0,1"
       id="guide4166" />
    <sodipodi:guide
       position="10,15"
       orientation="0,1"
       id="guide4168" />
    <sodipodi:guide
       position="10,5"
       orientation="0,1"
       id="guide4170" />
    <sodipodi:guide
       position="5,10"
       orientation="1,0"
       id="guide4172" />
    <sodipodi:guide
       position="15,10"
       orientation="1,0"
       id="guide4174" />
  </sodipodi:namedview>
  <defs
     id="defs4">
    <linearGradient
       inkscape:collect="always"
       id="linearGradient5160">
      <stop
         style="stop-color:#000000;stop-opacity:0.2"
         offset="0"
         id="stop5162" />
      <stop
         style="stop-color:#000000;stop-opacity:0;"
         offset="1"
         id="stop5164" />
    </linearGradient>
    <clipPath
       id="clipPath12478"
       clipPathUnits="userSpaceOnUse">
      <circle
         r="10"
         cy="10.000005"
         cx="9.9999781"
         id="circle12480"
         style="opacity:1;fill:#2196f3;fill-opacity:1;stroke:none;stroke-width:0.05069799;stroke-miterlimit:4;stroke-dasharray:none;stroke-opacity:1" />
    </clipPath>
    <clipPath
       clipPathUnits="userSpaceOnUse"
       id="clipPath5790">
      <circle
         r="10"
         cy="10.000005"
         cx="9.9999781"
         id="circle5792"
         style="opacity:1;fill:#2196f3;fill-opacity:1;stroke:none;stroke-width:0.05069799;stroke-miterlimit:4;stroke-dasharray:none;stroke-opacity:1"
         inkscape:export-filename="/home/juergen/path4136.png"
         inkscape:export-xdpi="648"
         inkscape:export-ydpi="648" />
    </clipPath>
    <clipPath
       id="clipPath5055"
       clipPathUnits="userSpaceOnUse">
      <circle
         r="10"
         cy="10.000005"
         cx="9.9999781"
         id="circle5057"
         style="opacity:1;fill:#2196f3;fill-opacity:1;stroke:none;stroke-width:0.05069799;stroke-miterlimit:4;stroke-dasharray:none;stroke-opacity:1"
         inkscape:export-filename="/home/juergen/path4136.png"
         inkscape:export-xdpi="648"
         inkscape:export-ydpi="648" />
    </clipPath>
    <clipPath
       clipPathUnits="userSpaceOnUse"
       id="clipPath5119">
      <circle
         r="10"
         cy="10.000005"
         cx="9.9999781"
         id="circle5121"
         style="opacity:1;fill:#2196f3;fill-opacity:1;stroke:none;stroke-width:0.05069799;stroke-miterlimit:4;stroke-dasharray:none;stroke-opacity:1"
         inkscape:export-filename="/home/juergen/Schreibtisch/path4136.png"
         inkscape:export-xdpi="648"
         inkscape:export-ydpi="648" />
    </clipPath>
    <clipPath
       id="clipPath5194"
       clipPathUnits="userSpaceOnUse">
      <circle
         r="10"
         cy="10.000005"
         cx="9.9999781"
         id="circle5196"
         style="opacity:1;fill:#cddc39;fill-opacity:1;stroke:none;stroke-width:0.05069799;stroke-miterlimit:4;stroke-dasharray:none;stroke-opacity:1"
         inkscape:export-filename="/home/juergen/Schreibtisch/path4136.png"
         inkscape:export-xdpi="648"
         inkscape:export-ydpi="648" />
    </clipPath>
    <clipPath
       clipPathUnits="userSpaceOnUse"
       id="clipPath6175">
      <circle
         r="10"
         cy="10.000005"
         cx="9.9999781"
         id="circle6177"
         style="opacity:1;fill:#f44336;fill-opacity:1;stroke:none;stroke-width:0.05069799;stroke-miterlimit:4;stroke-dasharray:none;stroke-opacity:1"
         inkscape:export-filename="/home/juergen/Schreibtisch/path4136.png"
         inkscape:export-xdpi="648"
         inkscape:export-ydpi="648" />
    </clipPath>
    <clipPath
       id="clipPath7176"
       clipPathUnits="userSpaceOnUse">
      <circle
         r="10"
         cy="10.000005"
         cx="9.9999781"
         id="circle7178"
         style="opacity:1;fill:#9c27b0;fill-opacity:1;stroke:none;stroke-width:0.05069799;stroke-miterlimit:4;stroke-dasharray:none;stroke-opacity:1"
         inkscape:export-filename="/home/juergen/Schreibtisch/path4136.png"
         inkscape:export-xdpi="648"
         inkscape:export-ydpi="648" />
    </clipPath>
    <clipPath
       clipPathUnits="userSpaceOnUse"
       id="clipPath8165">
      <circle
         r="10"
         cy="10.000005"
         cx="9.9999781"
         id="circle8167"
         style="opacity:1;fill:#ffc107;fill-opacity:1;stroke:none;stroke-width:0.05069799;stroke-miterlimit:4;stroke-dasharray:none;stroke-opacity:1"
         inkscape:export-filename="/home/juergen/Schreibtisch/path4136.png"
         inkscape:export-xdpi="648"
         inkscape:export-ydpi="648" />
    </clipPath>
    <clipPath
       id="clipPath9162"
       clipPathUnits="userSpaceOnUse">
      <circle
         r="10"
         cy="10.000005"
         cx="9.9999781"
         id="circle9164"
         style="opacity:1;fill:#ff9800;fill-opacity:1;stroke:none;stroke-width:0.05069799;stroke-miterlimit:4;stroke-dasharray:none;stroke-opacity:1"
         inkscape:export-filename="/home/juergen/Schreibtisch/path4136.png"
         inkscape:export-xdpi="648"
         inkscape:export-ydpi="648" />
    </clipPath>
    <clipPath
       clipPathUnits="userSpaceOnUse"
       id="clipPath5147">
      <circle
         r="10"
         cy="10.000005"
         cx="9.9999781"
         id="circle5149"
         style="opacity:1;fill:#ff9800;fill-opacity:1;stroke:none;stroke-width:0.05069799;stroke-miterlimit:4;stroke-dasharray:none;stroke-opacity:1"
         inkscape:export-filename="/home/juergen/Schreibtisch/path4136.png"
         inkscape:export-xdpi="648"
         inkscape:export-ydpi="648" />
    </clipPath>
    <clipPath
       id="clipPath6144"
       clipPathUnits="userSpaceOnUse">
      <circle
         r="10"
         cy="10.000005"
         cx="9.9999781"
         id="circle6146"
         style="opacity:1;fill:#e91e63;fill-opacity:1;stroke:none;stroke-width:0.05069799;stroke-miterlimit:4;stroke-dasharray:none;stroke-opacity:1"
         inkscape:export-filename="/home/juergen/Schreibtisch/path4136.png"
         inkscape:export-xdpi="648"
         inkscape:export-ydpi="648" />
    </clipPath>
    <clipPath
       clipPathUnits="userSpaceOnUse"
       id="clipPath7143">
      <circle
         r="10"
         cy="10.000005"
         cx="9.9999781"
         id="circle7145"
         style="opacity:1;fill:#ffeb3b;fill-opacity:1;stroke:none;stroke-width:0.05069799;stroke-miterlimit:4;stroke-dasharray:none;stroke-opacity:1"
         inkscape:export-filename="/home/juergen/Schreibtisch/path4136.png"
         inkscape:export-xdpi="648"
         inkscape:export-ydpi="648" />
    </clipPath>
    <clipPath
       id="clipPath8148"
       clipPathUnits="userSpaceOnUse">
      <circle
         r="10"
         cy="10.000005"
         cx="9.9999781"
         id="circle8150"
         style="opacity:1;fill:#9c27b0;fill-opacity:1;stroke:none;stroke-width:0.05069799;stroke-miterlimit:4;stroke-dasharray:none;stroke-opacity:1"
         inkscape:export-filename="/home/juergen/Schreibtisch/path4136.png"
         inkscape:export-xdpi="648"
         inkscape:export-ydpi="648" />
    </clipPath>
    <linearGradient
       inkscape:collect="always"
       xlink:href="#linearGradient5160"
       id="linearGradient5166"
       x1="10"
       y1="10"
       x2="20"
       y2="20"
       gradientUnits="userSpaceOnUse" />
    <clipPath
       clipPathUnits="userSpaceOnUse"
       id="clipPath5171">
      <circle
         r="10"
         cy="10.000005"
         cx="9.9999781"
         id="circle5173"
         style="opacity:1;fill:#f44336;fill-opacity:1;stroke:none;stroke-width:0.05069799;stroke-miterlimit:4;stroke-dasharray:none;stroke-opacity:1"
         inkscape:export-filename="/home/juergen/Schreibtisch/path4136.png"
         inkscape:export-xdpi="648"
         inkscape:export-ydpi="648" />
    </clipPath>
  </defs>
  <metadata
     id="metadata7">
    <rdf:RDF>
      <cc:Work
         rdf:about="">
        <dc:format>image/svg+xml</dc:format>
        <dc:type
           rdf:resource="http://purl.org/dc/dcmitype/StillImage" />
        <dc:title />
      </cc:Work>
    </rdf:RDF>
  </metadata>
  <g
     inkscape:label="Hintergrund"
     inkscape:groupmode="layer"
     id="layer1"
     transform="translate(1058.1428,-861.93365)">
    <circle
       inkscape:export-ydpi="648"
       inkscape:export-xdpi="648"
       inkscape:export-filename="/home/juergen/Schreibtisch/path4136.png"
       style="opacity:1;fill:#ff9800;fill-opacity:1;stroke:none;stroke-width:0.05069799;stroke-miterlimit:4;stroke-dasharray:none;stroke-opacity:1"
       id="path4136"
       cx="-1048.1428"
       cy="871.93365"
       r="10" />
  </g>
  <g
     style="display:inline"
     inkscape:groupmode="layer"
     id="layer2"
     inkscape:label="Icon">
    <path
       d="m 3.9999777,4.0333382 12.0000003,0 0,11.9333328 -12.0000003,0 z"
       id="path4"
       inkscape:connector-curvature="0"
       style="fill:none" />
    <path
       style="fill:none"
       inkscape:connector-curvature="0"
       id="path9754"
       d="m 18.999978,19.033339 12,0 0,11.933333 -12,0 z" />
    <path
       style="fill:url(#linearGradient5166);fill-opacity:1;stroke-linejoin:round"
       d="M 10.148438 5.1484375 L 5.625 7.5292969 L 5.625 8.4824219 L 5.7734375 8.4824219 L 5.7734375 8.6308594 L 5.9199219 8.6308594 L 5.9199219 8.7773438 L 6.0664062 8.7773438 L 6.0664062 8.9238281 L 6.2128906 8.9238281 L 6.2128906 9.0703125 L 6.3574219 9.0703125 L 6.3574219 9.2148438 L 6.5019531 9.2148438 L 6.5019531 9.359375 L 6.6464844 9.359375 L 6.6464844 9.4355469 L 6.578125 9.4355469 L 6.578125 12.767578 L 6.7265625 12.767578 L 6.7265625 12.916016 L 6.8730469 12.916016 L 6.8730469 13.0625 L 7.0195312 13.0625 L 7.0195312 13.210938 L 7.1660156 13.210938 L 7.1660156 13.355469 L 7.3105469 13.355469 L 7.3105469 13.501953 L 7.4550781 13.501953 L 7.4550781 13.646484 L 7.5996094 13.646484 L 7.5996094 13.720703 L 5.625 13.720703 L 5.625 15.148438 L 5.7734375 15.148438 L 5.7734375 15.296875 L 5.9199219 15.296875 L 5.9199219 15.445312 L 6.0664062 15.445312 L 6.0664062 15.591797 L 6.2128906 15.591797 L 6.2128906 15.736328 L 6.3574219 15.736328 L 6.3574219 15.882812 L 6.5019531 15.882812 L 6.5019531 16.027344 L 6.6464844 16.027344 L 6.6464844 16.169922 L 6.7890625 16.169922 L 6.7890625 16.3125 L 6.9316406 16.3125 L 6.9316406 16.455078 L 7.0722656 16.455078 L 7.0722656 16.597656 L 7.2128906 16.597656 L 7.2128906 16.738281 L 7.3535156 16.738281 L 7.3535156 16.876953 L 7.4921875 16.876953 L 7.4921875 17.017578 L 7.6308594 17.017578 L 7.6308594 17.154297 L 7.7695312 17.154297 L 7.7695312 17.292969 L 7.90625 17.292969 L 7.90625 17.429688 L 8.0429688 17.429688 L 8.0429688 17.566406 L 8.1777344 17.566406 L 8.1777344 17.701172 L 8.3125 17.701172 L 8.3125 17.835938 L 8.4472656 17.835938 L 8.4472656 17.970703 L 8.5800781 17.970703 L 8.5800781 18.103516 L 8.7128906 18.103516 L 8.7128906 18.236328 L 8.84375 18.236328 L 8.84375 18.369141 L 8.9746094 18.369141 L 8.9746094 18.5 L 9.1054688 18.5 L 9.1054688 18.628906 L 9.2363281 18.628906 L 9.2363281 18.759766 L 9.3632812 18.759766 L 9.3632812 18.888672 L 9.4921875 18.888672 L 9.4921875 19.015625 L 9.6191406 19.015625 L 9.6191406 19.142578 L 9.7460938 19.142578 L 9.7460938 19.269531 L 9.8730469 19.269531 L 9.8730469 19.396484 L 9.9980469 19.396484 L 9.9980469 19.521484 L 10.121094 19.521484 L 10.121094 19.644531 L 10.246094 19.644531 L 10.246094 19.769531 L 10.367188 19.769531 L 10.367188 19.892578 L 10.490234 19.892578 L 10.490234 20.013672 L 10.611328 20.013672 L 10.611328 20.134766 L 10.732422 20.134766 L 10.732422 20.255859 L 10.851562 20.255859 L 10.851562 20.376953 L 10.970703 20.376953 L 10.970703 20.496094 L 11.089844 20.496094 L 11.089844 20.613281 L 11.207031 20.613281 L 11.207031 20.730469 L 11.324219 20.730469 L 11.324219 20.847656 L 11.441406 20.847656 L 11.441406 20.964844 L 11.556641 20.964844 L 11.556641 21.080078 L 11.671875 21.080078 L 11.671875 21.195312 L 11.785156 21.195312 L 11.785156 21.308594 L 11.898438 21.308594 L 11.898438 21.421875 L 12.009766 21.421875 L 12.009766 21.535156 L 12.123047 21.535156 L 12.123047 21.646484 L 12.234375 21.646484 L 12.234375 21.757812 L 12.34375 21.757812 L 12.34375 21.867188 L 12.453125 21.867188 L 12.453125 21.976562 L 12.5625 21.976562 L 12.5625 22.085938 L 12.669922 22.085938 L 12.669922 22.193359 L 12.777344 22.193359 L 12.777344 22.300781 L 12.884766 22.300781 L 12.884766 22.408203 L 12.990234 22.408203 L 12.990234 22.513672 L 13.095703 22.513672 L 13.095703 22.619141 L 13.199219 22.619141 L 13.199219 22.722656 L 13.302734 22.722656 L 13.302734 22.826172 L 13.40625 22.826172 L 13.40625 22.929688 L 13.507812 22.929688 L 13.507812 23.03125 L 13.609375 23.03125 L 13.609375 23.132812 L 13.708984 23.132812 L 13.708984 23.234375 L 13.808594 23.234375 L 13.808594 23.333984 L 13.908203 23.333984 L 13.908203 23.431641 L 14.007812 23.431641 L 14.007812 23.53125 L 14.105469 23.53125 L 14.105469 23.628906 L 14.201172 23.628906 L 14.201172 23.724609 L 14.296875 23.724609 L 14.296875 23.822266 L 14.392578 23.822266 L 14.392578 23.916016 L 14.488281 23.916016 L 14.488281 24.011719 L 14.582031 24.011719 L 14.582031 24.105469 L 14.675781 24.105469 L 14.675781 24.199219 L 14.767578 24.199219 L 14.767578 24.291016 L 14.859375 24.291016 L 14.859375 24.382812 L 14.949219 24.382812 L 14.949219 24.474609 L 15.041016 24.474609 L 15.041016 24.564453 L 15.128906 24.564453 L 15.128906 24.654297 L 15.21875 24.654297 L 15.21875 24.742188 L 15.306641 24.742188 L 15.306641 24.830078 L 15.394531 24.830078 L 15.394531 24.917969 L 15.480469 24.917969 L 15.480469 25.003906 L 15.566406 25.003906 L 15.566406 25.089844 L 15.650391 25.089844 L 15.650391 25.175781 L 15.734375 25.175781 L 15.734375 25.259766 L 15.818359 25.259766 L 15.818359 25.341797 L 15.902344 25.341797 L 15.902344 25.425781 L 15.984375 25.425781 L 15.984375 25.507812 L 16.064453 25.507812 L 16.064453 25.587891 L 16.146484 25.587891 L 16.146484 25.669922 L 16.224609 25.669922 L 16.224609 25.75 L 16.304688 25.75 L 16.304688 25.828125 L 16.382812 25.828125 L 16.382812 25.90625 L 16.460938 25.90625 L 16.460938 25.984375 L 16.537109 25.984375 L 16.537109 26.060547 L 16.613281 26.060547 L 16.613281 26.136719 L 16.689453 26.136719 L 16.689453 26.212891 L 16.763672 26.212891 L 16.763672 26.287109 L 16.837891 26.287109 L 16.837891 26.361328 L 16.910156 26.361328 L 16.910156 26.433594 L 16.982422 26.433594 L 16.982422 26.505859 L 17.054688 26.505859 L 17.054688 26.578125 L 17.125 26.578125 L 17.125 26.648438 L 17.195312 26.648438 L 17.195312 26.71875 L 17.265625 26.71875 L 17.265625 26.789062 L 17.333984 26.789062 L 17.333984 26.857422 L 17.402344 26.857422 L 17.402344 26.925781 L 17.46875 26.925781 L 17.46875 26.992188 L 17.535156 26.992188 L 17.535156 27.058594 L 17.601562 27.058594 L 17.601562 27.125 L 17.666016 27.125 L 17.666016 27.189453 L 17.730469 27.189453 L 17.730469 27.253906 L 17.792969 27.253906 L 17.792969 27.318359 L 17.857422 27.318359 L 17.857422 27.380859 L 17.917969 27.380859 L 17.917969 27.441406 L 17.980469 27.441406 L 17.980469 27.503906 L 18.041016 27.503906 L 18.041016 27.564453 L 18.099609 27.564453 L 18.099609 27.623047 L 18.158203 27.623047 L 18.158203 27.683594 L 18.216797 27.683594 L 18.216797 27.740234 L 18.275391 27.740234 L 18.275391 27.798828 L 18.332031 27.798828 L 18.332031 27.855469 L 18.388672 27.855469 L 18.388672 27.912109 L 18.443359 27.912109 L 18.443359 27.966797 L 18.498047 27.966797 L 18.498047 28.021484 L 18.550781 28.021484 L 18.550781 28.076172 L 18.605469 28.076172 L 18.605469 28.128906 L 18.65625 28.128906 L 18.65625 28.181641 L 18.708984 28.181641 L 18.708984 28.232422 L 18.759766 28.232422 L 18.759766 28.283203 L 18.808594 28.283203 L 18.808594 28.333984 L 18.859375 28.333984 L 18.859375 28.382812 L 18.908203 28.382812 L 18.908203 28.431641 L 18.955078 28.431641 L 18.955078 28.478516 L 19.001953 28.478516 L 19.001953 28.527344 L 19.048828 28.527344 L 19.048828 28.572266 L 19.09375 28.572266 L 19.09375 28.619141 L 19.138672 28.619141 L 19.138672 28.664062 L 19.183594 28.664062 L 19.183594 28.707031 L 19.226562 28.707031 L 19.226562 28.751953 L 19.269531 28.751953 L 19.269531 28.792969 L 19.3125 28.792969 L 19.3125 28.835938 L 19.353516 28.835938 L 19.353516 28.876953 L 19.392578 28.876953 L 19.392578 28.917969 L 19.433594 28.917969 L 19.433594 28.957031 L 19.472656 28.957031 L 19.472656 28.996094 L 19.509766 28.996094 L 19.509766 29.035156 L 19.548828 29.035156 L 19.548828 29.072266 L 19.583984 29.072266 L 19.583984 29.109375 L 19.621094 29.109375 L 19.621094 29.144531 L 19.65625 29.144531 L 19.65625 29.179688 L 19.691406 29.179688 L 19.691406 29.214844 L 19.724609 29.214844 L 19.724609 29.248047 L 19.757812 29.248047 L 19.757812 29.28125 L 19.789062 29.28125 L 19.789062 29.314453 L 19.820312 29.314453 L 19.820312 29.345703 L 19.851562 29.345703 L 19.851562 29.375 L 19.882812 29.375 L 19.882812 29.40625 L 19.912109 29.40625 L 19.912109 29.435547 L 19.939453 29.435547 L 19.939453 29.464844 L 19.96875 29.464844 L 19.96875 29.492188 L 19.994141 29.492188 L 19.994141 29.519531 L 20.021484 29.519531 L 20.021484 29.544922 L 20.046875 29.544922 L 20.046875 29.570312 L 20.072266 29.570312 L 20.072266 29.595703 L 20.095703 29.595703 L 20.095703 29.619141 L 20.119141 29.619141 L 20.119141 29.642578 L 20.142578 29.642578 L 20.142578 29.666016 L 20.164062 29.666016 L 20.164062 29.6875 L 20.185547 29.6875 L 20.185547 29.708984 L 20.205078 29.708984 L 20.205078 29.728516 L 20.224609 29.728516 L 20.224609 29.748047 L 20.244141 29.748047 L 20.244141 29.767578 L 20.261719 29.767578 L 20.261719 29.787109 L 20.279297 29.787109 L 20.279297 29.802734 L 20.296875 29.802734 L 20.296875 29.820312 L 20.3125 29.820312 L 20.3125 29.835938 L 20.328125 29.835938 L 20.328125 29.851562 L 20.341797 29.851562 L 20.341797 29.865234 L 20.355469 29.865234 L 20.355469 29.878906 L 20.369141 29.878906 L 20.369141 29.892578 L 20.380859 29.892578 L 20.380859 29.904297 L 20.392578 29.904297 L 20.392578 29.916016 L 20.404297 29.916016 L 20.404297 29.927734 L 20.414062 29.927734 L 20.414062 29.9375 L 20.421875 29.9375 L 20.421875 29.947266 L 20.431641 29.947266 L 20.431641 29.955078 L 20.439453 29.955078 L 20.439453 29.962891 L 20.445312 29.962891 L 20.445312 29.970703 L 20.453125 29.970703 L 20.453125 29.976562 L 20.457031 29.976562 L 20.457031 29.982422 L 20.462891 29.982422 L 20.462891 29.986328 L 20.466797 29.986328 L 20.466797 29.990234 L 20.470703 29.990234 L 20.470703 29.994141 L 20.472656 29.994141 L 20.472656 29.996094 L 20.474609 29.996094 L 20.474609 29.998047 L 20.476562 29.998047 L 20.476562 30 L 29.523438 30 L 29.523438 28.570312 L 29.521484 28.570312 L 29.519531 28.570312 L 29.519531 28.568359 L 29.517578 28.568359 L 29.517578 28.566406 L 29.513672 28.566406 L 29.513672 28.5625 L 29.509766 28.5625 L 29.509766 28.558594 L 29.505859 28.558594 L 29.505859 28.552734 L 29.5 28.552734 L 29.5 28.546875 L 29.494141 28.546875 L 29.494141 28.541016 L 29.486328 28.541016 L 29.486328 28.535156 L 29.478516 28.535156 L 29.478516 28.527344 L 29.470703 28.527344 L 29.470703 28.517578 L 29.460938 28.517578 L 29.460938 28.507812 L 29.451172 28.507812 L 29.451172 28.498047 L 29.439453 28.498047 L 29.439453 28.488281 L 29.429688 28.488281 L 29.429688 28.476562 L 29.416016 28.476562 L 29.416016 28.464844 L 29.404297 28.464844 L 29.404297 28.451172 L 29.390625 28.451172 L 29.390625 28.4375 L 29.375 28.4375 L 29.375 28.423828 L 29.359375 28.423828 L 29.359375 28.408203 L 29.34375 28.408203 L 29.34375 28.392578 L 29.328125 28.392578 L 29.328125 28.375 L 29.310547 28.375 L 29.310547 28.357422 L 29.291016 28.357422 L 29.291016 28.339844 L 29.273438 28.339844 L 29.273438 28.320312 L 29.253906 28.320312 L 29.253906 28.300781 L 29.232422 28.300781 L 29.232422 28.28125 L 29.210938 28.28125 L 29.210938 28.259766 L 29.189453 28.259766 L 29.189453 28.236328 L 29.167969 28.236328 L 29.167969 28.214844 L 29.144531 28.214844 L 29.144531 28.191406 L 29.119141 28.191406 L 29.119141 28.167969 L 29.09375 28.167969 L 29.09375 28.142578 L 29.068359 28.142578 L 29.068359 28.117188 L 29.042969 28.117188 L 29.042969 28.089844 L 29.015625 28.089844 L 29.015625 28.0625 L 28.988281 28.0625 L 28.988281 28.035156 L 28.958984 28.035156 L 28.958984 28.005859 L 28.929688 28.005859 L 28.929688 27.976562 L 28.900391 27.976562 L 28.900391 27.947266 L 28.869141 27.947266 L 28.869141 27.916016 L 28.837891 27.916016 L 28.837891 27.884766 L 28.804688 27.884766 L 28.804688 27.853516 L 28.771484 27.853516 L 28.771484 27.820312 L 28.738281 27.820312 L 28.738281 27.785156 L 28.703125 27.785156 L 28.703125 27.751953 L 28.667969 27.751953 L 28.667969 27.716797 L 28.632812 27.716797 L 28.632812 27.679688 L 28.595703 27.679688 L 28.595703 27.642578 L 28.558594 27.642578 L 28.558594 27.619141 L 28.570312 27.619141 L 28.570312 27.617188 L 28.570312 24.285156 L 28.568359 24.285156 L 28.568359 24.283203 L 28.566406 24.283203 L 28.566406 24.279297 L 28.5625 24.279297 L 28.5625 24.277344 L 28.558594 24.277344 L 28.558594 24.271484 L 28.552734 24.271484 L 28.552734 24.267578 L 28.546875 24.267578 L 28.546875 24.261719 L 28.541016 24.261719 L 28.541016 24.255859 L 28.535156 24.255859 L 28.535156 24.248047 L 28.527344 24.248047 L 28.527344 24.240234 L 28.517578 24.240234 L 28.517578 24.232422 L 28.507812 24.232422 L 28.507812 24.222656 L 28.498047 24.222656 L 28.498047 24.212891 L 28.488281 24.212891 L 28.488281 24.203125 L 28.476562 24.203125 L 28.476562 24.191406 L 28.464844 24.191406 L 28.464844 24.177734 L 28.451172 24.177734 L 28.451172 24.166016 L 28.4375 24.166016 L 28.4375 24.152344 L 28.423828 24.152344 L 28.423828 24.136719 L 28.408203 24.136719 L 28.408203 24.121094 L 28.392578 24.121094 L 28.392578 24.105469 L 28.375 24.105469 L 28.375 24.089844 L 28.357422 24.089844 L 28.357422 24.072266 L 28.339844 24.072266 L 28.339844 24.052734 L 28.320312 24.052734 L 28.320312 24.035156 L 28.300781 24.035156 L 28.300781 24.015625 L 28.28125 24.015625 L 28.28125 23.994141 L 28.259766 23.994141 L 28.259766 23.972656 L 28.236328 23.972656 L 28.236328 23.951172 L 28.214844 23.951172 L 28.214844 23.929688 L 28.191406 23.929688 L 28.191406 23.90625 L 28.167969 23.90625 L 28.167969 23.880859 L 28.142578 23.880859 L 28.142578 23.857422 L 28.117188 23.857422 L 28.117188 23.830078 L 28.089844 23.830078 L 28.089844 23.804688 L 28.0625 23.804688 L 28.0625 23.777344 L 28.035156 23.777344 L 28.035156 23.75 L 28.005859 23.75 L 28.005859 23.720703 L 27.976562 23.720703 L 27.976562 23.691406 L 27.947266 23.691406 L 27.947266 23.662109 L 27.916016 23.662109 L 27.916016 23.630859 L 27.884766 23.630859 L 27.884766 23.599609 L 27.853516 23.599609 L 27.853516 23.566406 L 27.820312 23.566406 L 27.820312 23.533203 L 27.785156 23.533203 L 27.785156 23.5 L 27.751953 23.5 L 27.751953 23.464844 L 27.716797 23.464844 L 27.716797 23.429688 L 27.679688 23.429688 L 27.679688 23.394531 L 27.642578 23.394531 L 27.642578 23.357422 L 27.605469 23.357422 L 27.605469 23.332031 L 29.521484 23.332031 L 29.523438 23.332031 L 29.523438 22.380859 L 29.521484 22.378906 L 29.519531 22.376953 L 29.517578 22.375 L 29.513672 22.373047 L 29.513672 22.371094 L 29.509766 22.369141 L 29.509766 22.367188 L 29.505859 22.365234 L 29.505859 22.363281 L 29.5 22.359375 L 29.5 22.357422 L 29.494141 22.353516 L 29.494141 22.351562 L 29.486328 22.347656 L 29.486328 22.34375 L 29.478516 22.339844 L 29.478516 22.335938 L 29.470703 22.332031 L 29.470703 22.328125 L 29.460938 22.322266 L 29.460938 22.318359 L 29.451172 22.3125 L 29.451172 22.308594 L 29.439453 22.302734 L 29.439453 22.296875 L 29.429688 22.291016 L 29.429688 22.285156 L 29.416016 22.277344 L 29.416016 22.273438 L 29.404297 22.267578 L 29.404297 22.259766 L 29.390625 22.251953 L 29.390625 22.246094 L 29.375 22.238281 L 29.375 22.232422 L 29.359375 22.224609 L 29.359375 22.216797 L 29.34375 22.208984 L 29.34375 22.201172 L 29.328125 22.193359 L 29.328125 22.183594 L 29.310547 22.173828 L 29.310547 22.167969 L 29.291016 22.158203 L 29.291016 22.148438 L 29.273438 22.138672 L 29.273438 22.130859 L 29.253906 22.121094 L 29.253906 22.109375 L 29.232422 22.097656 L 29.232422 22.089844 L 29.210938 22.078125 L 29.210938 22.068359 L 29.189453 22.056641 L 29.189453 22.046875 L 29.167969 22.035156 L 29.167969 22.023438 L 29.144531 22.011719 L 29.144531 22 L 29.119141 21.986328 L 29.119141 21.976562 L 29.09375 21.962891 L 29.09375 21.951172 L 29.068359 21.9375 L 29.068359 21.925781 L 29.042969 21.912109 L 29.042969 21.900391 L 29.015625 21.886719 L 29.015625 21.873047 L 28.988281 21.859375 L 28.988281 21.845703 L 28.958984 21.830078 L 28.958984 21.816406 L 28.929688 21.800781 L 28.929688 21.787109 L 28.900391 21.771484 L 28.900391 21.755859 L 28.869141 21.740234 L 28.869141 21.726562 L 28.837891 21.710938 L 28.837891 21.695312 L 28.804688 21.677734 L 28.804688 21.662109 L 28.771484 21.644531 L 28.771484 21.628906 L 28.738281 21.611328 L 28.738281 21.595703 L 28.703125 21.578125 L 28.703125 21.560547 L 28.667969 21.542969 L 28.667969 21.525391 L 28.632812 21.507812 L 28.632812 21.490234 L 28.595703 21.470703 L 28.595703 21.453125 L 28.558594 21.433594 L 28.558594 21.416016 L 28.519531 21.394531 L 28.519531 21.376953 L 28.480469 21.355469 L 28.480469 21.337891 L 28.441406 21.316406 L 28.441406 21.298828 L 28.400391 21.277344 L 28.400391 21.257812 L 28.359375 21.236328 L 28.359375 21.216797 L 28.318359 21.195312 L 28.318359 21.173828 L 28.275391 21.150391 L 28.275391 21.132812 L 28.230469 21.109375 L 28.230469 21.087891 L 28.1875 21.064453 L 28.1875 21.044922 L 28.142578 21.021484 L 28.142578 21 L 28.095703 20.974609 L 28.095703 20.953125 L 28.050781 20.929688 L 28.050781 20.908203 L 28.003906 20.882812 L 28.003906 20.859375 L 27.955078 20.833984 L 27.955078 20.8125 L 27.90625 20.787109 L 27.90625 20.763672 L 27.857422 20.738281 L 27.857422 20.714844 L 27.806641 20.6875 L 27.806641 20.664062 L 27.755859 20.636719 L 27.755859 20.613281 L 27.705078 20.585938 L 27.705078 20.5625 L 27.652344 20.535156 L 27.652344 20.509766 L 27.599609 20.482422 L 27.599609 20.457031 L 27.544922 20.427734 L 27.544922 20.402344 L 27.490234 20.373047 L 27.490234 20.347656 L 27.435547 20.318359 L 27.435547 20.292969 L 27.378906 20.263672 L 27.378906 20.236328 L 27.322266 20.207031 L 27.322266 20.179688 L 27.265625 20.150391 L 27.265625 20.123047 L 27.207031 20.091797 L 27.207031 20.064453 L 27.148438 20.033203 L 27.148438 20.003906 L 27.087891 19.972656 L 27.087891 19.945312 L 27.027344 19.914062 L 27.027344 19.884766 L 26.966797 19.853516 L 26.966797 19.822266 L 26.904297 19.789062 L 26.904297 19.761719 L 26.841797 19.728516 L 26.841797 19.699219 L 26.777344 19.666016 L 26.777344 19.634766 L 26.712891 19.601562 L 26.712891 19.570312 L 26.648438 19.537109 L 26.648438 19.505859 L 26.582031 19.470703 L 26.582031 19.439453 L 26.515625 19.404297 L 26.515625 19.373047 L 26.449219 19.337891 L 26.449219 19.306641 L 26.380859 19.271484 L 26.380859 19.238281 L 26.3125 19.203125 L 26.3125 19.169922 L 26.244141 19.134766 L 26.244141 19.099609 L 26.173828 19.0625 L 26.173828 19.029297 L 26.101562 18.992188 L 26.101562 18.958984 L 26.03125 18.921875 L 26.03125 18.886719 L 25.958984 18.849609 L 25.958984 18.814453 L 25.884766 18.775391 L 25.884766 18.742188 L 25.810547 18.703125 L 25.810547 18.667969 L 25.736328 18.628906 L 25.736328 18.59375 L 25.660156 18.552734 L 25.660156 18.517578 L 25.583984 18.476562 L 25.583984 18.441406 L 25.507812 18.400391 L 25.507812 18.365234 L 25.429688 18.324219 L 25.429688 18.287109 L 25.351562 18.246094 L 25.351562 18.208984 L 25.273438 18.167969 L 25.273438 18.130859 L 25.193359 18.087891 L 25.193359 18.050781 L 25.113281 18.007812 L 25.113281 17.970703 L 25.03125 17.927734 L 25.03125 17.888672 L 24.949219 17.845703 L 24.949219 17.806641 L 24.867188 17.763672 L 24.867188 17.724609 L 24.783203 17.679688 L 24.783203 17.640625 L 24.699219 17.595703 L 24.699219 17.556641 L 24.613281 17.511719 L 24.613281 17.470703 L 24.527344 17.425781 L 24.527344 17.384766 L 24.441406 17.339844 L 24.441406 17.298828 L 24.353516 17.251953 L 24.353516 17.210938 L 24.265625 17.164062 L 24.265625 17.123047 L 24.177734 17.076172 L 24.177734 17.035156 L 24.087891 16.988281 L 24.087891 16.945312 L 23.998047 16.898438 L 23.998047 16.855469 L 23.90625 16.806641 L 23.90625 16.763672 L 23.814453 16.714844 L 23.814453 16.671875 L 23.722656 16.623047 L 23.722656 16.580078 L 23.628906 16.53125 L 23.628906 16.486328 L 23.535156 16.4375 L 23.535156 16.392578 L 23.441406 16.34375 L 23.441406 16.298828 L 23.345703 16.248047 L 23.345703 16.203125 L 23.25 16.152344 L 23.25 16.105469 L 23.152344 16.054688 L 23.152344 16.009766 L 23.054688 15.958984 L 23.054688 15.912109 L 22.957031 15.861328 L 22.957031 15.8125 L 22.857422 15.759766 L 22.857422 15.714844 L 22.757812 15.662109 L 22.757812 15.615234 L 22.65625 15.5625 L 22.65625 15.513672 L 22.554688 15.460938 L 22.554688 15.412109 L 22.453125 15.359375 L 22.453125 15.310547 L 22.349609 15.255859 L 22.349609 15.207031 L 22.246094 15.152344 L 22.246094 15.103516 L 22.142578 15.048828 L 22.142578 15 L 22.037109 14.945312 L 22.037109 14.894531 L 21.931641 14.839844 L 21.931641 14.789062 L 21.824219 14.732422 L 21.824219 14.681641 L 21.716797 14.625 L 21.716797 14.574219 L 21.609375 14.517578 L 21.609375 14.466797 L 21.5 14.410156 L 21.5 14.357422 L 21.390625 14.300781 L 21.390625 14.248047 L 21.28125 14.191406 L 21.28125 14.138672 L 21.169922 14.080078 L 21.169922 14.027344 L 21.058594 13.96875 L 21.058594 13.916016 L 20.945312 13.855469 L 20.945312 13.802734 L 20.832031 13.742188 L 20.832031 13.689453 L 20.71875 13.628906 L 20.71875 13.576172 L 20.603516 13.515625 L 20.603516 13.460938 L 20.488281 13.400391 L 20.488281 13.345703 L 20.373047 13.285156 L 20.373047 13.228516 L 20.255859 13.166016 L 20.255859 13.113281 L 20.136719 13.050781 L 20.136719 12.994141 L 20.019531 12.931641 L 20.019531 12.876953 L 19.900391 12.814453 L 19.900391 12.757812 L 19.779297 12.693359 L 19.779297 12.636719 L 19.660156 12.574219 L 19.660156 12.515625 L 19.537109 12.451172 L 19.537109 12.394531 L 19.416016 12.330078 L 19.416016 12.273438 L 19.292969 12.208984 L 19.292969 12.150391 L 19.169922 12.085938 L 19.169922 12.027344 L 19.044922 11.960938 L 19.044922 11.902344 L 18.919922 11.835938 L 18.919922 11.777344 L 18.792969 11.710938 L 18.792969 11.650391 L 18.667969 11.583984 L 18.667969 11.523438 L 18.539062 11.455078 L 18.539062 11.396484 L 18.412109 11.330078 L 18.412109 11.269531 L 18.283203 11.201172 L 18.283203 11.140625 L 18.154297 11.072266 L 18.154297 11.009766 L 18.023438 10.941406 L 18.023438 10.880859 L 17.892578 10.8125 L 17.892578 10.75 L 17.759766 10.679688 L 17.759766 10.617188 L 17.626953 10.546875 L 17.626953 10.484375 L 17.494141 10.414062 L 17.494141 10.351562 L 17.361328 10.28125 L 17.361328 10.216797 L 17.226562 10.146484 L 17.226562 10.082031 L 17.089844 10.009766 L 17.089844 9.9472656 L 16.953125 9.875 L 16.953125 9.8105469 L 16.816406 9.7382812 L 16.816406 9.6738281 L 16.679688 9.6015625 L 16.679688 9.5371094 L 16.541016 9.4648438 L 16.541016 9.3984375 L 16.400391 9.3242188 L 16.400391 9.2578125 L 16.261719 9.1855469 L 16.261719 9.1191406 L 16.121094 9.0449219 L 16.121094 8.9785156 L 15.978516 8.9042969 L 15.978516 8.8359375 L 15.837891 8.7617188 L 15.837891 8.6933594 L 15.693359 8.6171875 L 15.693359 8.5507812 L 15.550781 8.4765625 L 15.550781 8.4082031 L 15.40625 8.3320312 L 15.40625 8.2636719 L 15.261719 8.1875 L 15.261719 8.1171875 L 15.115234 8.0410156 L 15.115234 7.9726562 L 14.96875 7.8964844 L 14.96875 7.8261719 L 14.820312 7.7480469 L 14.820312 7.6777344 L 14.671875 7.5996094 L 14.671875 7.5292969 L 10.148438 5.1484375 z "
       id="path4305"
       clip-path="url(#clipPath5171)" />
    <path
       style="fill:#2196f3;fill-opacity:1;stroke-linejoin:round"
       inkscape:connector-curvature="0"
       d="m 10,5 -4.5238096,2.3809523 0,0.952381 9.0476196,0 0,-0.952381 m -2.380953,1.904762 0,3.3333337 1.428572,0 0,-3.3333337 M 5.4761904,15 l 9.0476196,0 0,-1.428571 -9.0476196,0 m 3.8095238,-4.2857147 0,3.3333337 1.4285718,0 0,-3.3333337 m -4.2857146,0 0,3.3333337 1.4285714,0 0,-3.3333337 -1.4285714,0 z"
       id="path4237" />
  </g>
</svg>
