<?xml version="1.0" encoding="UTF-8" standalone="no"?>
<!-- Created with Inkscape (http://www.inkscape.org/) -->

<svg
   xmlns:dc="http://purl.org/dc/elements/1.1/"
   xmlns:cc="http://creativecommons.org/ns#"
   xmlns:rdf="http://www.w3.org/1999/02/22-rdf-syntax-ns#"
   xmlns:svg="http://www.w3.org/2000/svg"
   xmlns="http://www.w3.org/2000/svg"
   xmlns:xlink="http://www.w3.org/1999/xlink"
   xmlns:sodipodi="http://sodipodi.sourceforge.net/DTD/sodipodi-0.dtd"
   xmlns:inkscape="http://www.inkscape.org/namespaces/inkscape"
   sodipodi:docname="BAtteryStats.svg"
   inkscape:version="0.91 r13725"
   version="1.1"
   id="svg2"
   viewBox="0 0 20 20"
   height="5.6444445mm"
   width="5.6444445mm">
  <sodipodi:namedview
     inkscape:snap-to-guides="false"
     inkscape:snap-grids="false"
     inkscape:window-maximized="1"
     inkscape:window-y="0"
     inkscape:window-x="0"
     inkscape:window-height="726"
     inkscape:window-width="1366"
     inkscape:guide-bbox="true"
     showguides="true"
     fit-margin-bottom="0"
     fit-margin-right="0"
     fit-margin-left="0"
     fit-margin-top="0"
     showgrid="true"
     inkscape:current-layer="layer2"
     inkscape:document-units="px"
     inkscape:cy="3.9634248"
     inkscape:cx="9.5448121"
     inkscape:zoom="15.839192"
     inkscape:pageshadow="2"
     inkscape:pageopacity="0.0"
     borderopacity="1.0"
     bordercolor="#666666"
     pagecolor="#ffffff"
     id="base">
    <inkscape:grid
       type="xygrid"
       id="grid4138" />
    <sodipodi:guide
       position="10,18"
       orientation="0,1"
       id="guide4140" />
    <sodipodi:guide
       position="10,2"
       orientation="0,1"
       id="guide4142" />
    <sodipodi:guide
       position="2,10"
       orientation="1,0"
       id="guide4144" />
    <sodipodi:guide
       position="0,0"
       orientation="0,20"
       id="guide4146" />
    <sodipodi:guide
       position="20,0"
       orientation="-20,0"
       id="guide4148" />
    <sodipodi:guide
       position="20,20"
       orientation="0,-20"
       id="guide4150" />
    <sodipodi:guide
       position="0,20"
       orientation="20,0"
       id="guide4152" />
    <sodipodi:guide
       position="18,10"
       orientation="1,0"
       id="guide4154" />
    <sodipodi:guide
       position="10,10"
       orientation="-0.70710678,0.70710678"
       id="guide4156" />
    <sodipodi:guide
       position="10,10"
       orientation="0.70710678,0.70710678"
       id="guide4158" />
    <sodipodi:guide
       position="4,10"
       orientation="1,0"
       id="guide4160" />
    <sodipodi:guide
       position="16,10"
       orientation="1,0"
       id="guide4162" />
    <sodipodi:guide
       position="10,16"
       orientation="0,1"
       id="guide4164" />
    <sodipodi:guide
       position="10,4"
       orientation="0,1"
       id="guide4166" />
    <sodipodi:guide
       position="10,15"
       orientation="0,1"
       id="guide4168" />
    <sodipodi:guide
       position="10,5"
       orientation="0,1"
       id="guide4170" />
    <sodipodi:guide
       position="5,10"
       orientation="1,0"
       id="guide4172" />
    <sodipodi:guide
       position="15,10"
       orientation="1,0"
       id="guide4174" />
  </sodipodi:namedview>
  <defs
     id="defs4">
    <linearGradient
       inkscape:collect="always"
       id="linearGradient6095">
      <stop
         style="stop-color:#000000;stop-opacity:1;"
         offset="0"
         id="stop6097" />
      <stop
         style="stop-color:#000000;stop-opacity:0;"
         offset="1"
         id="stop6099" />
    </linearGradient>
    <clipPath
       id="clipPath12478"
       clipPathUnits="userSpaceOnUse">
      <circle
         r="10"
         cy="10.000005"
         cx="9.9999781"
         id="circle12480"
         style="opacity:1;fill:#2196f3;fill-opacity:1;stroke:none;stroke-width:0.05069799;stroke-miterlimit:4;stroke-dasharray:none;stroke-opacity:1" />
    </clipPath>
    <clipPath
       clipPathUnits="userSpaceOnUse"
       id="clipPath5790">
      <circle
         r="10"
         cy="10.000005"
         cx="9.9999781"
         id="circle5792"
         style="opacity:1;fill:#2196f3;fill-opacity:1;stroke:none;stroke-width:0.05069799;stroke-miterlimit:4;stroke-dasharray:none;stroke-opacity:1"
         inkscape:export-filename="/home/juergen/path4136.png"
         inkscape:export-xdpi="648"
         inkscape:export-ydpi="648" />
    </clipPath>
    <clipPath
       id="clipPath7690"
       clipPathUnits="userSpaceOnUse">
      <circle
         r="10"
         cy="10.000005"
         cx="9.9999781"
         id="circle7692"
         style="opacity:1;fill:#2196f3;fill-opacity:1;stroke:none;stroke-width:0.05069799;stroke-miterlimit:4;stroke-dasharray:none;stroke-opacity:1"
         inkscape:export-filename="/home/juergen/Schreibtisch/path4136.png"
         inkscape:export-xdpi="648"
         inkscape:export-ydpi="648" />
    </clipPath>
    <clipPath
       clipPathUnits="userSpaceOnUse"
       id="clipPath5119">
      <circle
         r="10"
         cy="10.000005"
         cx="9.9999781"
         id="circle5121"
         style="opacity:1;fill:#ff9800;fill-opacity:1;stroke:none;stroke-width:0.05069799;stroke-miterlimit:4;stroke-dasharray:none;stroke-opacity:1"
         inkscape:export-filename="/home/juergen/Schreibtisch/path4136.png"
         inkscape:export-xdpi="648"
         inkscape:export-ydpi="648" />
    </clipPath>
    <clipPath
       id="clipPath5125"
       clipPathUnits="userSpaceOnUse">
      <circle
         r="10"
         cy="10.000005"
         cx="9.9999781"
         id="circle5127"
         style="opacity:1;fill:#e91e63;fill-opacity:1;stroke:none;stroke-width:0.05069799;stroke-miterlimit:4;stroke-dasharray:none;stroke-opacity:1"
         inkscape:export-filename="/home/juergen/Schreibtisch/path4136.png"
         inkscape:export-xdpi="648"
         inkscape:export-ydpi="648" />
    </clipPath>
    <linearGradient
       inkscape:collect="always"
       xlink:href="#linearGradient6095"
       id="linearGradient6101"
       x1="10"
       y1="10"
       x2="20"
       y2="20"
       gradientUnits="userSpaceOnUse" />
    <clipPath
       clipPathUnits="userSpaceOnUse"
       id="clipPath6122">
      <circle
         r="10"
         cy="10.000005"
         cx="9.9999781"
         id="circle6124"
         style="opacity:1;fill:#ffc107;fill-opacity:1;stroke:none;stroke-width:0.05069799;stroke-miterlimit:4;stroke-dasharray:none;stroke-opacity:1"
         inkscape:export-filename="/home/juergen/Schreibtisch/path4136.png"
         inkscape:export-xdpi="648"
         inkscape:export-ydpi="648" />
    </clipPath>
  </defs>
  <metadata
     id="metadata7">
    <rdf:RDF>
      <cc:Work
         rdf:about="">
        <dc:format>image/svg+xml</dc:format>
        <dc:type
           rdf:resource="http://purl.org/dc/dcmitype/StillImage" />
        <dc:title></dc:title>
      </cc:Work>
    </rdf:RDF>
  </metadata>
  <g
     inkscape:label="Hintergrund"
     inkscape:groupmode="layer"
     id="layer1"
     transform="translate(1058.1428,-861.93365)">
    <circle
       inkscape:export-ydpi="648"
       inkscape:export-xdpi="648"
       inkscape:export-filename="/home/juergen/Schreibtisch/path4136.png"
       style="opacity:1;fill:#ffc107;fill-opacity:1;stroke:none;stroke-width:0.05069799;stroke-miterlimit:4;stroke-dasharray:none;stroke-opacity:1"
       id="path4136"
       cx="-1048.1428"
       cy="871.93365"
       r="10" />
  </g>
  <g
     style="display:inline"
     inkscape:groupmode="layer"
     id="layer2"
     inkscape:label="Icon">
    <path
       d="m 3.9999777,4.0333382 12.0000003,0 0,11.9333328 -12.0000003,0 z"
       id="path4"
       inkscape:connector-curvature="0"
       style="fill:none" />
    <path
       style="fill:none"
       inkscape:connector-curvature="0"
       id="path9754"
       d="m 18.999978,19.033339 12,0 0,11.933333 -12,0 z" />
    <path
       inkscape:connector-curvature="0"
       d="m 11.999978,11.000005 -4.0000003,0 0,-4.0000002 4.0000003,0 m 0.335,-1 -0.835,0 0,-1 -3.0000003,0 0,1 -0.835,0 a 0.66499999,0.66499999 0 0 0 -0.665,0.665 l 0,7.6700002 c 0,0.365 0.3,0.665 0.665,0.665 l 4.6700003,0 a 0.66499999,0.66499999 0 0 0 0.665,-0.665 l 0,-7.6700002 c 0,-0.365 -0.3,-0.665 -0.665,-0.665 z"
       id="path5198" />
    <path
       d="M 8.6484375 5.1484375 L 8.6484375 6.1484375 L 7.8144531 6.1484375 C 7.6380841 6.1484375 7.4684617 6.2190381 7.34375 6.34375 C 7.2190384 6.4684617 7.1484375 6.6380842 7.1484375 6.8144531 L 7.1484375 14.484375 C 7.1484375 14.704494 7.26497 14.890421 7.4316406 15.011719 C 7.47348 15.069824 7.5221927 15.118029 7.5800781 15.160156 C 7.621943 15.217918 7.670754 15.266729 7.7285156 15.308594 C 7.7692727 15.364429 7.8153874 15.4122 7.8710938 15.453125 C 7.9127527 15.510685 7.962085 15.557802 8.0195312 15.599609 C 8.0613388 15.657056 8.1084558 15.706388 8.1660156 15.748047 C 8.2060433 15.802144 8.2524703 15.846785 8.3066406 15.886719 C 8.3478582 15.943473 8.394563 15.991796 8.4511719 16.033203 C 8.4910193 16.087443 8.5377653 16.131759 8.5917969 16.171875 C 8.6330144 16.228629 8.6797192 16.276952 8.7363281 16.318359 C 8.7765752 16.372753 8.8224179 16.41892 8.8769531 16.458984 C 8.9166606 16.512649 8.9619861 16.557915 9.015625 16.597656 C 9.0561263 16.652672 9.103127 16.697858 9.1582031 16.738281 C 9.197778 16.791584 9.2415779 16.837431 9.2949219 16.876953 C 9.334038 16.929749 9.3790083 16.974346 9.4316406 17.013672 C 9.4714091 17.067692 9.5164591 17.11236 9.5703125 17.152344 C 9.6096291 17.205299 9.6541137 17.249698 9.7070312 17.289062 C 9.7460721 17.341544 9.7893749 17.386664 9.8417969 17.425781 C 9.8803741 17.477479 9.9249654 17.519888 9.9765625 17.558594 C 10.01534 17.610824 10.059297 17.654328 10.111328 17.693359 C 10.150227 17.745751 10.193864 17.789018 10.246094 17.828125 C 10.28421 17.879031 10.326177 17.922656 10.376953 17.960938 C 10.415871 18.013092 10.459565 18.056785 10.511719 18.095703 C 10.549632 18.14577 10.592354 18.188849 10.642578 18.226562 C 10.680319 18.276463 10.723467 18.317817 10.773438 18.355469 C 10.810869 18.405146 10.852799 18.446776 10.902344 18.484375 C 10.940504 18.535244 10.982393 18.578952 11.033203 18.617188 C 11.070259 18.665929 11.111381 18.707126 11.160156 18.744141 C 11.197717 18.793635 11.239446 18.83564 11.289062 18.873047 C 11.325196 18.920366 11.364879 18.961802 11.412109 18.998047 C 11.449267 19.047176 11.491982 19.087722 11.541016 19.125 C 11.578072 19.173742 11.619194 19.214938 11.667969 19.251953 C 11.704668 19.299825 11.744913 19.340484 11.792969 19.376953 C 11.828512 19.423111 11.867904 19.462504 11.914062 19.498047 C 11.95079 19.546357 11.990811 19.588198 12.039062 19.625 C 12.074659 19.671202 12.113924 19.710535 12.160156 19.746094 C 12.196045 19.792755 12.236484 19.831372 12.283203 19.867188 C 12.317937 19.912295 12.355494 19.951333 12.400391 19.986328 C 12.436316 20.033431 12.476515 20.073224 12.523438 20.109375 C 12.558431 20.154595 12.597358 20.193523 12.642578 20.228516 C 12.677016 20.273018 12.715406 20.311088 12.759766 20.345703 C 12.795324 20.391935 12.834657 20.431201 12.880859 20.466797 C 12.915247 20.510866 12.953893 20.547747 12.998047 20.582031 C 13.031846 20.62556 13.068005 20.663214 13.111328 20.697266 C 13.146038 20.742317 13.183665 20.781447 13.228516 20.816406 C 13.26303 20.860685 13.301339 20.897232 13.345703 20.931641 C 13.379428 20.974694 13.415904 21.011229 13.458984 21.044922 C 13.492344 21.087576 13.527767 21.124711 13.570312 21.158203 C 13.604493 21.202054 13.641696 21.239257 13.685547 21.273438 C 13.718704 21.315557 13.75473 21.35164 13.796875 21.384766 C 13.830032 21.426885 13.866058 21.462968 13.908203 21.496094 C 13.941024 21.537787 13.975941 21.574533 14.017578 21.607422 C 14.049908 21.648351 14.086102 21.682419 14.126953 21.714844 C 14.159521 21.756279 14.195052 21.791457 14.236328 21.824219 C 14.268997 21.865783 14.304275 21.90076 14.345703 21.933594 C 14.377871 21.974181 14.412562 22.008819 14.453125 22.041016 C 14.485293 22.081603 14.519984 22.116241 14.560547 22.148438 C 14.592406 22.188576 14.625932 22.223933 14.666016 22.255859 C 14.698044 22.296071 14.733147 22.329396 14.773438 22.361328 C 14.804662 22.400344 14.837915 22.433646 14.876953 22.464844 C 14.907813 22.50346 14.939998 22.537381 14.978516 22.568359 C 15.009879 22.607737 15.044682 22.640421 15.083984 22.671875 C 15.11487 22.710468 15.147008 22.74444 15.185547 22.775391 C 15.216159 22.813508 15.249014 22.846315 15.287109 22.876953 C 15.318159 22.915614 15.351888 22.947558 15.390625 22.978516 C 15.420229 23.01504 15.451757 23.046568 15.488281 23.076172 C 15.519167 23.114764 15.551305 23.148737 15.589844 23.179688 C 15.618855 23.215305 15.649929 23.24638 15.685547 23.275391 C 15.715615 23.312777 15.747873 23.344808 15.785156 23.375 C 15.815376 23.412268 15.847353 23.444562 15.884766 23.474609 C 15.913405 23.509483 15.943512 23.539874 15.978516 23.568359 C 16.007573 23.604066 16.038525 23.634989 16.074219 23.664062 C 16.102657 23.698978 16.133171 23.729235 16.167969 23.757812 C 16.197114 23.793804 16.227801 23.824227 16.263672 23.853516 C 16.292617 23.888966 16.321923 23.92033 16.357422 23.949219 C 16.385463 23.98335 16.41507 24.012996 16.449219 24.041016 C 16.477238 24.075164 16.506885 24.104772 16.541016 24.132812 C 16.569701 24.167773 16.599688 24.198017 16.634766 24.226562 C 16.661524 24.258748 16.690416 24.285805 16.722656 24.3125 C 16.751302 24.347538 16.78135 24.377627 16.816406 24.40625 C 16.842637 24.437697 16.868911 24.465995 16.900391 24.492188 C 16.927838 24.525638 16.956913 24.554431 16.990234 24.582031 C 17.017235 24.614669 17.045504 24.642902 17.078125 24.669922 C 17.104799 24.702125 17.131909 24.731081 17.164062 24.757812 C 17.190217 24.789272 17.218599 24.815574 17.25 24.841797 C 17.277086 24.874537 17.30515 24.902601 17.337891 24.929688 C 17.363222 24.959885 17.389724 24.986387 17.419922 25.011719 C 17.446596 25.043922 17.473705 25.072878 17.505859 25.099609 C 17.530569 25.128923 17.556624 25.154978 17.585938 25.179688 C 17.611761 25.210711 17.638989 25.237743 17.669922 25.263672 C 17.695872 25.294595 17.722862 25.321847 17.753906 25.347656 C 17.777907 25.375898 17.803732 25.399894 17.832031 25.423828 C 17.858019 25.454948 17.884881 25.481842 17.916016 25.507812 C 17.939516 25.535393 17.962623 25.560519 17.990234 25.583984 C 18.015004 25.613534 18.040878 25.63916 18.070312 25.664062 C 18.094613 25.692816 18.119697 25.717872 18.148438 25.742188 C 18.172464 25.770618 18.196238 25.796218 18.224609 25.820312 C 18.248043 25.847905 18.273239 25.87104 18.300781 25.894531 C 18.324733 25.922872 18.348684 25.948623 18.376953 25.972656 C 18.400398 26.000233 18.425574 26.0234 18.453125 26.046875 C 18.476438 26.074236 18.499983 26.097781 18.527344 26.121094 C 18.550245 26.147944 18.572803 26.17236 18.599609 26.195312 C 18.622797 26.222394 18.646664 26.246438 18.673828 26.269531 C 18.695226 26.294385 18.717415 26.316402 18.742188 26.337891 C 18.765621 26.365484 18.790817 26.388618 18.818359 26.412109 C 18.839317 26.436371 18.860583 26.457469 18.884766 26.478516 C 18.90742 26.505104 18.930547 26.528008 18.957031 26.550781 C 18.978858 26.576165 19.000049 26.599218 19.025391 26.621094 C 19.046981 26.646105 19.068739 26.667863 19.09375 26.689453 C 19.114929 26.713965 19.135686 26.736586 19.160156 26.757812 C 19.180792 26.781601 19.202817 26.801582 19.226562 26.822266 C 19.247732 26.846789 19.268507 26.869386 19.292969 26.890625 C 19.313612 26.9144 19.335624 26.934408 19.359375 26.955078 C 19.379808 26.978556 19.400359 26.999088 19.423828 27.019531 C 19.444922 27.043768 19.465911 27.064941 19.490234 27.085938 C 19.50913 27.107357 19.527378 27.127624 19.548828 27.146484 C 19.569711 27.170537 19.591173 27.192018 19.615234 27.212891 C 19.63358 27.233586 19.653088 27.251235 19.673828 27.269531 C 19.693915 27.292591 19.713308 27.313852 19.736328 27.333984 C 19.755606 27.355832 19.774941 27.375349 19.796875 27.394531 C 19.815261 27.415273 19.834678 27.43284 19.855469 27.451172 C 19.874156 27.472366 19.892873 27.491073 19.914062 27.509766 C 19.931759 27.529826 19.948804 27.548582 19.96875 27.566406 C 19.98758 27.587919 20.005946 27.607995 20.027344 27.626953 C 20.045403 27.647337 20.063601 27.665535 20.083984 27.683594 C 20.10175 27.70363 20.120611 27.720491 20.140625 27.738281 C 20.15823 27.758087 20.175507 27.775364 20.195312 27.792969 C 20.213521 27.813454 20.231394 27.831483 20.251953 27.849609 C 20.267678 27.867064 20.283327 27.882713 20.300781 27.898438 C 20.319099 27.919197 20.336699 27.938672 20.357422 27.957031 C 20.372466 27.973651 20.387677 27.988862 20.404297 28.003906 C 20.42151 28.023335 20.439654 28.039318 20.458984 28.056641 C 20.4757 28.075294 20.491085 28.092689 20.509766 28.109375 C 20.525511 28.126849 20.541114 28.142463 20.558594 28.158203 C 20.574383 28.175738 20.589887 28.191242 20.607422 28.207031 C 20.623776 28.22518 20.639982 28.241538 20.658203 28.257812 C 20.672735 28.273737 20.687139 28.28827 20.703125 28.302734 C 20.717562 28.318683 20.732157 28.333156 20.748047 28.347656 C 20.763425 28.364734 20.777886 28.38106 20.794922 28.396484 C 20.809736 28.412846 20.825454 28.426571 20.841797 28.441406 C 20.85603 28.457075 20.869127 28.472063 20.884766 28.486328 C 20.899639 28.502633 20.915244 28.516476 20.931641 28.53125 C 20.944978 28.545747 20.958105 28.558987 20.972656 28.572266 C 20.985597 28.586447 20.997619 28.600252 21.011719 28.613281 C 21.025923 28.62897 21.041029 28.641962 21.056641 28.65625 C 21.070364 28.671245 21.082639 28.68552 21.097656 28.699219 C 21.110396 28.713065 21.122869 28.725545 21.136719 28.738281 C 21.149496 28.752175 21.161888 28.764567 21.175781 28.777344 C 21.189173 28.791906 21.20218 28.805026 21.216797 28.818359 C 21.22764 28.829996 21.238363 28.840719 21.25 28.851562 C 21.263293 28.866127 21.276502 28.879231 21.291016 28.892578 C 21.301859 28.904215 21.312582 28.914938 21.324219 28.925781 C 21.336381 28.939006 21.348153 28.950676 21.361328 28.962891 C 21.372889 28.975361 21.384017 28.986483 21.396484 28.998047 C 21.40768 29.010117 21.417642 29.021982 21.429688 29.033203 C 21.440575 29.044891 21.451203 29.055518 21.462891 29.066406 C 21.474398 29.078759 21.485648 29.090105 21.498047 29.101562 C 21.507352 29.111421 21.517463 29.119624 21.527344 29.128906 C 21.538908 29.141374 21.55003 29.152502 21.5625 29.164062 C 21.570945 29.172981 21.578972 29.181008 21.587891 29.189453 C 21.598468 29.200857 21.607803 29.212009 21.619141 29.222656 C 21.629425 29.233603 21.6394 29.243668 21.650391 29.253906 C 21.658116 29.262025 21.665709 29.269618 21.673828 29.277344 C 21.684434 29.288723 21.695666 29.297972 21.707031 29.308594 C 21.714532 29.316453 21.720645 29.324542 21.728516 29.332031 C 21.737558 29.34166 21.746269 29.350292 21.755859 29.359375 C 21.764316 29.368307 21.772319 29.376308 21.78125 29.384766 C 21.78936 29.393332 21.796141 29.402026 21.804688 29.410156 C 21.812419 29.418284 21.819999 29.425861 21.828125 29.433594 C 21.835857 29.441721 21.843436 29.449298 21.851562 29.457031 C 21.859043 29.464892 21.86715 29.471024 21.875 29.478516 C 21.882242 29.486104 21.888897 29.492757 21.896484 29.5 C 21.904376 29.508268 21.911622 29.515579 21.919922 29.523438 C 21.925823 29.529541 21.931373 29.535139 21.9375 29.541016 C 21.943005 29.546755 21.947421 29.553052 21.953125 29.558594 C 21.960857 29.566721 21.968436 29.574298 21.976562 29.582031 C 21.981729 29.587349 21.986848 29.592511 21.992188 29.597656 C 21.997077 29.60273 22.002766 29.60641 22.007812 29.611328 C 22.014075 29.61789 22.01887 29.624555 22.025391 29.630859 C 22.030671 29.636321 22.035555 29.641204 22.041016 29.646484 C 22.046943 29.652616 22.052439 29.65816 22.058594 29.664062 C 22.062524 29.668075 22.066284 29.671868 22.070312 29.675781 C 22.073847 29.679419 22.076463 29.683943 22.080078 29.6875 C 22.084989 29.692596 22.090635 29.696232 22.095703 29.701172 C 22.099741 29.705315 22.103279 29.708852 22.107422 29.712891 C 22.11146 29.717034 22.114997 29.720571 22.119141 29.724609 C 22.122801 29.728364 22.12516 29.732659 22.128906 29.736328 C 22.132833 29.740337 22.1366 29.744137 22.140625 29.748047 C 22.140625 29.748047 22.142578 29.75 22.142578 29.75 C 22.142578 29.75 22.144531 29.751953 22.144531 29.751953 C 22.148074 29.7556 22.150673 29.760106 22.154297 29.763672 C 22.157199 29.766621 22.16306 29.768589 22.166016 29.771484 C 22.166016 29.771484 22.166016 29.773438 22.166016 29.773438 C 22.166016 29.773438 22.167969 29.773438 22.167969 29.773438 C 22.170995 29.776542 22.172696 29.780158 22.175781 29.783203 C 22.176795 29.784229 22.178668 29.788043 22.179688 29.789062 C 22.179688 29.789062 22.181641 29.791016 22.181641 29.791016 C 22.181641 29.791016 22.183594 29.792969 22.183594 29.792969 C 22.183594 29.792969 22.185547 29.794922 22.185547 29.794922 C 22.185547 29.794922 22.1875 29.796875 22.1875 29.796875 C 22.1875 29.796875 22.189453 29.798828 22.189453 29.798828 C 22.189453 29.798828 22.191406 29.798828 22.191406 29.798828 C 22.191406 29.798828 22.191406 29.800781 22.191406 29.800781 C 22.192672 29.802067 22.194037 29.803412 22.195312 29.804688 C 22.223074 29.832008 22.260832 29.846959 22.292969 29.869141 C 22.400832 29.944706 22.523496 30 22.664062 30 L 27.333984 30 C 27.510353 30 27.679976 29.929401 27.804688 29.804688 C 27.929399 29.679976 28 29.510353 28 29.333984 L 28 21.664062 C 28 21.523496 27.944706 21.400832 27.869141 21.292969 C 27.846984 21.260506 27.832068 21.223363 27.804688 21.195312 C 27.80303 21.193655 27.800503 21.193047 27.798828 21.191406 C 27.798828 21.191406 27.798828 21.189453 27.798828 21.189453 C 27.798828 21.189453 27.796875 21.1875 27.796875 21.1875 C 27.796875 21.1875 27.794922 21.185547 27.794922 21.185547 C 27.794922 21.185547 27.792969 21.183594 27.792969 21.183594 C 27.792969 21.183594 27.791016 21.181641 27.791016 21.181641 C 27.791016 21.181641 27.789062 21.179688 27.789062 21.179688 C 27.789062 21.179688 27.787109 21.177734 27.787109 21.177734 C 27.78609 21.176715 27.784229 21.176795 27.783203 21.175781 C 27.780158 21.172696 27.776542 21.169042 27.773438 21.166016 C 27.773438 21.166016 27.771484 21.166016 27.771484 21.166016 C 27.771484 21.166016 27.771484 21.164062 27.771484 21.164062 C 27.768589 21.161107 27.766621 21.157199 27.763672 21.154297 C 27.760106 21.150673 27.753647 21.146121 27.75 21.142578 C 27.75 21.142578 27.748047 21.140625 27.748047 21.140625 C 27.744137 21.1366 27.740337 21.132833 27.736328 21.128906 C 27.732659 21.12516 27.728364 21.122801 27.724609 21.119141 C 27.720571 21.114997 27.717034 21.11146 27.712891 21.107422 C 27.708852 21.103279 27.705315 21.099741 27.701172 21.095703 C 27.696243 21.090647 27.692584 21.084978 27.6875 21.080078 C 27.683943 21.076463 27.679419 21.073847 27.675781 21.070312 C 27.671868 21.066284 27.668075 21.062524 27.664062 21.058594 C 27.65816 21.052439 27.652616 21.046943 27.646484 21.041016 C 27.641204 21.035555 27.636321 21.030671 27.630859 21.025391 C 27.624555 21.01887 27.61789 21.014075 27.611328 21.007812 C 27.60641 21.002766 27.60273 20.997077 27.597656 20.992188 C 27.592511 20.986848 27.587349 20.981729 27.582031 20.976562 C 27.574298 20.968436 27.566721 20.960857 27.558594 20.953125 C 27.553052 20.947421 27.546755 20.943005 27.541016 20.9375 C 27.535125 20.931358 27.529556 20.925838 27.523438 20.919922 C 27.515579 20.911622 27.508268 20.904376 27.5 20.896484 C 27.492757 20.888897 27.486104 20.882242 27.478516 20.875 C 27.471024 20.86715 27.464892 20.859043 27.457031 20.851562 C 27.448672 20.842778 27.44046 20.834495 27.431641 20.826172 C 27.425483 20.819782 27.418514 20.814737 27.412109 20.808594 C 27.403041 20.798937 27.394385 20.790357 27.384766 20.78125 C 27.376308 20.772319 27.368307 20.764316 27.359375 20.755859 C 27.350292 20.746269 27.34166 20.737558 27.332031 20.728516 C 27.324542 20.720645 27.316453 20.714532 27.308594 20.707031 C 27.297972 20.695666 27.288723 20.684434 27.277344 20.673828 C 27.269618 20.665709 27.262025 20.658116 27.253906 20.650391 C 27.243668 20.6394 27.233603 20.629425 27.222656 20.619141 C 27.212009 20.607803 27.200857 20.598468 27.189453 20.587891 C 27.181008 20.578972 27.172981 20.570945 27.164062 20.5625 C 27.152502 20.55003 27.141374 20.538908 27.128906 20.527344 C 27.119624 20.517463 27.111421 20.507352 27.101562 20.498047 C 27.090105 20.485648 27.078759 20.474398 27.066406 20.462891 C 27.055551 20.451243 27.044853 20.44054 27.033203 20.429688 C 27.021982 20.417642 27.010117 20.40768 26.998047 20.396484 C 26.986483 20.384017 26.975361 20.372889 26.962891 20.361328 C 26.950676 20.348153 26.939006 20.336381 26.925781 20.324219 C 26.915534 20.313222 26.905488 20.303258 26.894531 20.292969 C 26.88063 20.277729 26.866798 20.263906 26.851562 20.25 C 26.840719 20.238363 26.829996 20.22764 26.818359 20.216797 C 26.805026 20.20218 26.791906 20.189173 26.777344 20.175781 C 26.764567 20.161888 26.752175 20.149496 26.738281 20.136719 C 26.725545 20.122869 26.713065 20.110396 26.699219 20.097656 C 26.68552 20.082639 26.671245 20.070364 26.65625 20.056641 C 26.641962 20.041029 26.62897 20.025923 26.613281 20.011719 C 26.600252 19.997619 26.586447 19.985597 26.572266 19.972656 C 26.558987 19.958105 26.545747 19.944978 26.53125 19.931641 C 26.515505 19.914167 26.499901 19.898552 26.482422 19.882812 C 26.469055 19.868283 26.455993 19.855103 26.441406 19.841797 C 26.42694 19.825816 26.412409 19.811402 26.396484 19.796875 C 26.380739 19.779401 26.365136 19.763787 26.347656 19.748047 C 26.333156 19.732157 26.318683 19.717562 26.302734 19.703125 C 26.28827 19.687139 26.273737 19.672735 26.257812 19.658203 C 26.241538 19.639982 26.22518 19.623776 26.207031 19.607422 C 26.190688 19.589272 26.17446 19.572918 26.15625 19.556641 C 26.14142 19.540258 26.125736 19.526572 26.109375 19.511719 C 26.092374 19.492592 26.075698 19.476062 26.056641 19.458984 C 26.039318 19.439654 26.023335 19.42151 26.003906 19.404297 C 25.988862 19.387677 25.973651 19.372466 25.957031 19.357422 C 25.938672 19.336699 25.919197 19.319099 25.898438 19.300781 C 25.882713 19.283327 25.867064 19.267678 25.849609 19.251953 C 25.831483 19.231394 25.813454 19.213521 25.792969 19.195312 C 25.775364 19.175507 25.758087 19.15823 25.738281 19.140625 C 25.720491 19.120611 25.70363 19.10175 25.683594 19.083984 C 25.665535 19.063601 25.647337 19.045403 25.626953 19.027344 C 25.607995 19.005946 25.587919 18.98758 25.566406 18.96875 C 25.548582 18.948804 25.529826 18.931759 25.509766 18.914062 C 25.491073 18.892873 25.472366 18.874156 25.451172 18.855469 C 25.43284 18.834678 25.415273 18.815261 25.394531 18.796875 C 25.375349 18.774941 25.355832 18.755606 25.333984 18.736328 C 25.313852 18.713308 25.292591 18.693915 25.269531 18.673828 C 25.251235 18.653088 25.233586 18.63358 25.212891 18.615234 C 25.192018 18.591173 25.170537 18.569711 25.146484 18.548828 C 25.12738 18.527101 25.107665 18.507385 25.085938 18.488281 C 25.065295 18.464506 25.043282 18.444499 25.019531 18.423828 C 24.999088 18.400359 24.978556 18.379808 24.955078 18.359375 C 24.934408 18.335624 24.9144 18.313612 24.890625 18.292969 C 24.869386 18.268507 24.846789 18.247732 24.822266 18.226562 C 24.801582 18.202817 24.781601 18.180792 24.757812 18.160156 C 24.736586 18.135686 24.713965 18.114929 24.689453 18.09375 C 24.667863 18.068739 24.646105 18.046981 24.621094 18.025391 C 24.599218 18.000049 24.576165 17.978858 24.550781 17.957031 C 24.528008 17.930547 24.505104 17.90742 24.478516 17.884766 C 24.457469 17.860583 24.436371 17.839317 24.412109 17.818359 C 24.388618 17.790817 24.365484 17.765621 24.337891 17.742188 C 24.316402 17.717415 24.294385 17.695226 24.269531 17.673828 C 24.246438 17.646664 24.222394 17.622797 24.195312 17.599609 C 24.17236 17.572803 24.147944 17.550245 24.121094 17.527344 C 24.097781 17.499983 24.074236 17.476438 24.046875 17.453125 C 24.0234 17.425574 24.000233 17.400398 23.972656 17.376953 C 23.948623 17.348684 23.922872 17.324733 23.894531 17.300781 C 23.87104 17.273239 23.847905 17.248043 23.820312 17.224609 C 23.796295 17.196329 23.770514 17.172402 23.742188 17.148438 C 23.717872 17.119697 23.692816 17.094613 23.664062 17.070312 C 23.63916 17.040878 23.613534 17.015004 23.583984 16.990234 C 23.560519 16.962623 23.535393 16.939516 23.507812 16.916016 C 23.481842 16.884881 23.454948 16.858019 23.423828 16.832031 C 23.399894 16.803732 23.375898 16.777907 23.347656 16.753906 C 23.321847 16.722862 23.294595 16.695872 23.263672 16.669922 C 23.237743 16.638989 23.210711 16.611761 23.179688 16.585938 C 23.154978 16.556624 23.128923 16.530569 23.099609 16.505859 C 23.072878 16.473705 23.043922 16.446596 23.011719 16.419922 C 22.986387 16.389724 22.959885 16.363222 22.929688 16.337891 C 22.902601 16.30515 22.874537 16.277086 22.841797 16.25 C 22.815574 16.218599 22.789272 16.190217 22.757812 16.164062 C 22.731081 16.131909 22.702125 16.104799 22.669922 16.078125 C 22.642902 16.045504 22.614669 16.017235 22.582031 15.990234 C 22.554431 15.956913 22.525638 15.927838 22.492188 15.900391 C 22.465995 15.868911 22.437697 15.842637 22.40625 15.816406 C 22.377627 15.78135 22.347538 15.751302 22.3125 15.722656 C 22.285459 15.689998 22.257279 15.661793 22.224609 15.634766 C 22.196307 15.600148 22.167379 15.569378 22.132812 15.541016 C 22.104772 15.506885 22.075164 15.477238 22.041016 15.449219 C 22.012653 15.414652 21.981884 15.385724 21.947266 15.357422 C 21.91862 15.322384 21.888572 15.292295 21.853516 15.263672 C 21.824227 15.227801 21.793804 15.197114 21.757812 15.167969 C 21.729235 15.133171 21.698978 15.102657 21.664062 15.074219 C 21.634989 15.038525 21.604066 15.007573 21.568359 14.978516 C 21.539874 14.943512 21.509483 14.913405 21.474609 14.884766 C 21.444562 14.847353 21.412268 14.815376 21.375 14.785156 C 21.344808 14.747873 21.312777 14.715615 21.275391 14.685547 C 21.245761 14.649137 21.214253 14.617391 21.177734 14.587891 C 21.147893 14.55095 21.115029 14.520119 21.078125 14.490234 C 21.048098 14.452882 21.015744 14.4208 20.978516 14.390625 C 20.947558 14.351888 20.915614 14.318159 20.876953 14.287109 C 20.846315 14.249014 20.813508 14.216159 20.775391 14.185547 C 20.74444 14.147008 20.710468 14.11487 20.671875 14.083984 C 20.640421 14.044682 20.607737 14.009879 20.568359 13.978516 C 20.537381 13.939998 20.50346 13.907813 20.464844 13.876953 C 20.433646 13.837915 20.400344 13.804662 20.361328 13.773438 C 20.329721 13.733558 20.295586 13.699762 20.255859 13.667969 C 20.223692 13.627381 20.189001 13.592744 20.148438 13.560547 C 20.116241 13.519984 20.081603 13.485293 20.041016 13.453125 C 20.008819 13.412562 19.974181 13.377871 19.933594 13.345703 C 19.90109 13.304692 19.865286 13.270717 19.824219 13.238281 C 19.791219 13.196501 19.756704 13.159855 19.714844 13.126953 C 19.682419 13.086102 19.648351 13.049908 19.607422 13.017578 C 19.574533 12.975941 19.537787 12.941024 19.496094 12.908203 C 19.462634 12.865633 19.425439 12.830265 19.382812 12.796875 C 19.350194 12.75542 19.314775 12.720262 19.273438 12.6875 C 19.239104 12.643305 19.202341 12.604717 19.158203 12.570312 C 19.124711 12.527767 19.087576 12.492344 19.044922 12.458984 C 19.011229 12.415904 18.974694 12.379428 18.931641 12.345703 C 18.897232 12.301339 18.860685 12.26303 18.816406 12.228516 C 18.781447 12.183665 18.742317 12.146038 18.697266 12.111328 C 18.663214 12.068005 18.62556 12.031846 18.582031 11.998047 C 18.547747 11.953893 18.510866 11.915247 18.466797 11.880859 C 18.431201 11.834657 18.391935 11.795324 18.345703 11.759766 C 18.311239 11.715599 18.272786 11.678867 18.228516 11.644531 C 18.193301 11.598799 18.15502 11.55876 18.109375 11.523438 C 18.073224 11.476515 18.033431 11.436316 17.986328 11.400391 C 17.951333 11.355494 17.912295 11.317937 17.867188 11.283203 C 17.831372 11.236484 17.792755 11.196045 17.746094 11.160156 C 17.710535 11.113924 17.671202 11.074659 17.625 11.039062 C 17.588198 10.990811 17.546357 10.95079 17.498047 10.914062 C 17.462504 10.867904 17.423111 10.828512 17.376953 10.792969 C 17.340484 10.744913 17.299825 10.704668 17.251953 10.667969 C 17.214938 10.619194 17.173742 10.578072 17.125 10.541016 C 17.087722 10.491982 17.047176 10.449267 16.998047 10.412109 C 16.961802 10.364879 16.920366 10.325196 16.873047 10.289062 C 16.835092 10.23872 16.792565 10.196114 16.742188 10.158203 C 16.705872 10.110645 16.664706 10.071522 16.617188 10.035156 C 16.578747 9.9838171 16.535679 9.9408295 16.484375 9.9023438 C 16.446776 9.8527988 16.405146 9.8108689 16.355469 9.7734375 C 16.317817 9.7234668 16.276463 9.6803192 16.226562 9.6425781 C 16.188849 9.5923545 16.14577 9.5496316 16.095703 9.5117188 C 16.056785 9.4595647 16.013092 9.4158708 15.960938 9.3769531 C 15.922656 9.3261771 15.879031 9.2842098 15.828125 9.2460938 C 15.789467 9.1944645 15.74697 9.1499494 15.695312 9.1113281 C 15.656146 9.0589417 15.611115 9.0155565 15.558594 8.9765625 C 15.519888 8.9249654 15.477479 8.8803742 15.425781 8.8417969 C 15.386664 8.7893749 15.341544 8.7460721 15.289062 8.7070312 C 15.249698 8.6541137 15.205299 8.609629 15.152344 8.5703125 C 15.11236 8.5164591 15.067692 8.4714091 15.013672 8.4316406 C 14.974346 8.3790083 14.929749 8.334038 14.876953 8.2949219 C 14.837431 8.2415779 14.791584 8.197778 14.738281 8.1582031 C 14.697858 8.103127 14.652672 8.0561263 14.597656 8.015625 C 14.557915 7.9619861 14.512649 7.9166606 14.458984 7.8769531 C 14.41892 7.8224179 14.372753 7.7765752 14.318359 7.7363281 C 14.276952 7.6797192 14.228629 7.6330144 14.171875 7.5917969 C 14.131759 7.5377653 14.087443 7.4910193 14.033203 7.4511719 C 13.991796 7.394563 13.943473 7.3478582 13.886719 7.3066406 C 13.846463 7.2520332 13.800728 7.2062365 13.746094 7.1660156 C 13.705208 7.1096044 13.657658 7.062781 13.601562 7.0214844 C 13.559454 6.9631316 13.511417 6.9132825 13.453125 6.8710938 C 13.4122 6.8153874 13.364429 6.7692727 13.308594 6.7285156 C 13.266729 6.670754 13.217918 6.621943 13.160156 6.5800781 C 13.118029 6.5221927 13.069824 6.47348 13.011719 6.4316406 C 12.926578 6.3146512 12.811321 6.2279886 12.669922 6.1855469 L 12.669922 6.1699219 L 12.591797 6.1699219 C 12.569956 6.1661726 12.549828 6.1577826 12.527344 6.15625 L 12.527344 6.0273438 L 12.382812 6.0273438 L 12.382812 5.8828125 L 12.236328 5.8828125 L 12.236328 5.7363281 L 12.091797 5.7363281 L 12.091797 5.5917969 L 11.945312 5.5917969 L 11.945312 5.4453125 L 11.796875 5.4453125 L 11.796875 5.296875 L 11.648438 5.296875 L 11.648438 5.1484375 L 8.6484375 5.1484375 z "
       id="path5254"
       style="fill-opacity:1;fill:url(#linearGradient6101);opacity:0.2"
       clip-path="url(#clipPath6122)" />
    <rect
       style="opacity:1;fill:#8bc34a;fill-opacity:1;stroke:none;stroke-width:2;stroke-miterlimit:4;stroke-dasharray:none;stroke-opacity:1"
       id="rect6117"
       width="5.0507627"
       height="5.3033009"
       x="7.5761442"
       y="6.4892097" />
    <path
       style="fill:#ffffff"
       id="path5207"
       d="m 11.999978,11.000005 -4.0000004,0 0,-4.0000002 4.0000004,0 m 0.335,-1 -0.835,0 0,-1 -3.0000004,0 0,1 -0.835,0 a 0.66499999,0.66499999 0 0 0 -0.665,0.665 l 0,7.6700002 c 0,0.365 0.3,0.665 0.665,0.665 l 4.6700004,0 a 0.66499999,0.66499999 0 0 0 0.665,-0.665 l 0,-7.6700002 c 0,-0.365 -0.3,-0.665 -0.665,-0.665 z"
       inkscape:connector-curvature="0" />
  </g>
</svg>
