<?xml version="1.0" encoding="UTF-8" standalone="no"?>
<!-- Created with Inkscape (http://www.inkscape.org/) -->

<svg
   xmlns:dc="http://purl.org/dc/elements/1.1/"
   xmlns:cc="http://creativecommons.org/ns#"
   xmlns:rdf="http://www.w3.org/1999/02/22-rdf-syntax-ns#"
   xmlns:svg="http://www.w3.org/2000/svg"
   xmlns="http://www.w3.org/2000/svg"
   xmlns:xlink="http://www.w3.org/1999/xlink"
   xmlns:sodipodi="http://sodipodi.sourceforge.net/DTD/sodipodi-0.dtd"
   xmlns:inkscape="http://www.inkscape.org/namespaces/inkscape"
   inkscape:export-ydpi="648"
   inkscape:export-xdpi="648"
   inkscape:export-filename="/home/juergen/Projekte/Android/Android_Studio/Baumann_Theme/theme/src/main/assets/icons/res/drawable-xxhdpi/a119.png"
   width="5.6444445mm"
   height="5.6444445mm"
   viewBox="0 0 20 20"
   id="svg2"
   version="1.1"
   inkscape:version="0.91 r13725"
   sodipodi:docname="Bitcoin.svg">
  <sodipodi:namedview
     id="base"
     pagecolor="#ffffff"
     bordercolor="#666666"
     borderopacity="1.0"
     inkscape:pageopacity="0.0"
     inkscape:pageshadow="2"
     inkscape:zoom="22.4"
     inkscape:cx="10.086023"
     inkscape:cy="6.2277955"
     inkscape:document-units="px"
     inkscape:current-layer="layer1"
     showgrid="true"
     fit-margin-top="0"
     fit-margin-left="0"
     fit-margin-right="0"
     fit-margin-bottom="0"
     showguides="true"
     inkscape:guide-bbox="true"
     inkscape:window-width="1366"
     inkscape:window-height="744"
     inkscape:window-x="0"
     inkscape:window-y="24"
     inkscape:window-maximized="1"
     inkscape:snap-grids="false"
     inkscape:snap-to-guides="false"
     inkscape:snap-page="false">
    <inkscape:grid
       type="xygrid"
       id="grid4138" />
    <sodipodi:guide
       position="24,18"
       orientation="0,1"
       id="guide4140" />
    <sodipodi:guide
       position="10,2"
       orientation="0,1"
       id="guide4142" />
    <sodipodi:guide
       position="2,10"
       orientation="1,0"
       id="guide4144" />
    <sodipodi:guide
       position="0,0"
       orientation="0,20"
       id="guide4146" />
    <sodipodi:guide
       position="20,0"
       orientation="-20,0"
       id="guide4148" />
    <sodipodi:guide
       position="20,20"
       orientation="0,-20"
       id="guide4150" />
    <sodipodi:guide
       position="0,20"
       orientation="20,0"
       id="guide4152" />
    <sodipodi:guide
       position="18,10"
       orientation="1,0"
       id="guide4154" />
    <sodipodi:guide
       position="10,10"
       orientation="-0.70710678,0.70710678"
       id="guide4156" />
    <sodipodi:guide
       position="10,10"
       orientation="0.70710678,0.70710678"
       id="guide4158" />
    <sodipodi:guide
       position="4,10"
       orientation="1,0"
       id="guide4160" />
    <sodipodi:guide
       position="16,10"
       orientation="1,0"
       id="guide4162" />
    <sodipodi:guide
       position="10,16"
       orientation="0,1"
       id="guide4164" />
    <sodipodi:guide
       position="10,4"
       orientation="0,1"
       id="guide4166" />
    <sodipodi:guide
       position="10,15"
       orientation="0,1"
       id="guide4168" />
    <sodipodi:guide
       position="10,5"
       orientation="0,1"
       id="guide4170" />
    <sodipodi:guide
       position="5,10"
       orientation="1,0"
       id="guide4172" />
    <sodipodi:guide
       position="15,10"
       orientation="1,0"
       id="guide4174" />
  </sodipodi:namedview>
  <defs
     id="defs4">
    <linearGradient
       inkscape:collect="always"
       id="linearGradient8866">
      <stop
         style="stop-color:#000000;stop-opacity:0.2"
         offset="0"
         id="stop8868" />
      <stop
         style="stop-color:#000000;stop-opacity:0;"
         offset="1"
         id="stop8870" />
    </linearGradient>
    <clipPath
       id="clipPath12478"
       clipPathUnits="userSpaceOnUse">
      <circle
         r="10"
         cy="10.000005"
         cx="9.9999781"
         id="circle12480"
         style="opacity:1;fill:#2196f3;fill-opacity:1;stroke:none;stroke-width:0.05069799;stroke-miterlimit:4;stroke-dasharray:none;stroke-opacity:1" />
    </clipPath>
    <clipPath
       clipPathUnits="userSpaceOnUse"
       id="clipPath5790">
      <circle
         r="10"
         cy="10.000005"
         cx="9.9999781"
         id="circle5792"
         style="opacity:1;fill:#2196f3;fill-opacity:1;stroke:none;stroke-width:0.05069799;stroke-miterlimit:4;stroke-dasharray:none;stroke-opacity:1"
         inkscape:export-filename="/home/juergen/path4136.png"
         inkscape:export-xdpi="648"
         inkscape:export-ydpi="648" />
    </clipPath>
    <clipPath
       id="clipPath7690"
       clipPathUnits="userSpaceOnUse">
      <circle
         r="10"
         cy="10.000005"
         cx="9.9999781"
         id="circle7692"
         style="opacity:1;fill:#2196f3;fill-opacity:1;stroke:none;stroke-width:0.05069799;stroke-miterlimit:4;stroke-dasharray:none;stroke-opacity:1"
         inkscape:export-filename="/home/juergen/Schreibtisch/path4136.png"
         inkscape:export-xdpi="648"
         inkscape:export-ydpi="648" />
    </clipPath>
    <clipPath
       clipPathUnits="userSpaceOnUse"
       id="clipPath5119">
      <circle
         r="10"
         cy="10.000005"
         cx="9.9999781"
         id="circle5121"
         style="opacity:1;fill:#ff9800;fill-opacity:1;stroke:none;stroke-width:0.05069799;stroke-miterlimit:4;stroke-dasharray:none;stroke-opacity:1"
         inkscape:export-filename="/home/juergen/Schreibtisch/path4136.png"
         inkscape:export-xdpi="648"
         inkscape:export-ydpi="648" />
    </clipPath>
    <clipPath
       id="clipPath6101"
       clipPathUnits="userSpaceOnUse">
      <circle
         r="10"
         cy="10.000005"
         cx="9.9999781"
         id="circle6103"
         style="opacity:1;fill:#8bc34a;fill-opacity:1;stroke:none;stroke-width:0.05069799;stroke-miterlimit:4;stroke-dasharray:none;stroke-opacity:1"
         inkscape:export-filename="/home/juergen/Schreibtisch/path4136.png"
         inkscape:export-xdpi="648"
         inkscape:export-ydpi="648" />
    </clipPath>
    <clipPath
       clipPathUnits="userSpaceOnUse"
       id="clipPath5127">
      <circle
         r="10"
         cy="10.000005"
         cx="9.9999781"
         id="circle5129"
         style="opacity:1;fill:#8bc34a;fill-opacity:1;stroke:none;stroke-width:0.05069799;stroke-miterlimit:4;stroke-dasharray:none;stroke-opacity:1"
         inkscape:export-filename="/home/juergen/Schreibtisch/path4136.png"
         inkscape:export-xdpi="648"
         inkscape:export-ydpi="648" />
    </clipPath>
    <clipPath
       id="clipPath5293"
       clipPathUnits="userSpaceOnUse">
      <circle
         r="10"
         cy="10.000005"
         cx="9.9999781"
         id="circle5295"
         style="opacity:1;fill:#8bc34a;fill-opacity:1;stroke:none;stroke-width:0.05069799;stroke-miterlimit:4;stroke-dasharray:none;stroke-opacity:1"
         inkscape:export-filename="/home/juergen/Schreibtisch/path4136.png"
         inkscape:export-xdpi="648"
         inkscape:export-ydpi="648" />
    </clipPath>
    <clipPath
       clipPathUnits="userSpaceOnUse"
       id="clipPath6369">
      <circle
         r="10"
         cy="10.000005"
         cx="9.9999781"
         id="circle6371"
         style="opacity:1;fill:#8bc34a;fill-opacity:1;stroke:none;stroke-width:0.05069799;stroke-miterlimit:4;stroke-dasharray:none;stroke-opacity:1"
         inkscape:export-filename="/home/juergen/Schreibtisch/path4136.png"
         inkscape:export-xdpi="648"
         inkscape:export-ydpi="648" />
    </clipPath>
    <clipPath
       id="clipPath7689"
       clipPathUnits="userSpaceOnUse">
      <circle
         r="10"
         cy="10.000005"
         cx="9.9999781"
         id="circle7691"
         style="opacity:1;fill:#ff5722;fill-opacity:1;stroke:none;stroke-width:0.05069799;stroke-miterlimit:4;stroke-dasharray:none;stroke-opacity:1"
         inkscape:export-filename="/home/juergen/Schreibtisch/path4136.png"
         inkscape:export-xdpi="648"
         inkscape:export-ydpi="648" />
    </clipPath>
    <linearGradient
       inkscape:collect="always"
       xlink:href="#linearGradient8866"
       id="linearGradient8872"
       x1="10"
       y1="10"
       x2="20"
       y2="20"
       gradientUnits="userSpaceOnUse" />
    <clipPath
       clipPathUnits="userSpaceOnUse"
       id="clipPath8877">
      <circle
         r="10"
         cy="10.000005"
         cx="9.9999781"
         id="circle8879"
         style="opacity:1;fill:#f44336;fill-opacity:1;stroke:none;stroke-width:0.05069799;stroke-miterlimit:4;stroke-dasharray:none;stroke-opacity:1"
         inkscape:export-filename="/home/juergen/Schreibtisch/path4136.png"
         inkscape:export-xdpi="648"
         inkscape:export-ydpi="648" />
    </clipPath>
  </defs>
  <metadata
     id="metadata7">
    <rdf:RDF>
      <cc:Work
         rdf:about="">
        <dc:format>image/svg+xml</dc:format>
        <dc:type
           rdf:resource="http://purl.org/dc/dcmitype/StillImage" />
        <dc:title></dc:title>
      </cc:Work>
    </rdf:RDF>
  </metadata>
  <g
     inkscape:label="Hintergrund"
     inkscape:groupmode="layer"
     id="layer1"
     transform="translate(1058.1428,-861.93365)">
    <circle
       inkscape:export-ydpi="648"
       inkscape:export-xdpi="648"
       inkscape:export-filename="/home/juergen/Schreibtisch/path4136.png"
       style="opacity:1;fill:#cddc39;fill-opacity:1;stroke:none;stroke-width:0.05069799;stroke-miterlimit:4;stroke-dasharray:none;stroke-opacity:1"
       id="path4136"
       cx="-1048.1428"
       cy="871.93365"
       r="10" />
  </g>
  <g
     style="display:inline"
     inkscape:groupmode="layer"
     id="layer2"
     inkscape:label="Icon">
    <path
       d="m 3.9999777,4.0333382 12.0000003,0 0,11.9333328 -12.0000003,0 z"
       id="path4"
       inkscape:connector-curvature="0"
       style="fill:none" />
    <path
       style="fill:none"
       inkscape:connector-curvature="0"
       id="path9754"
       d="m 18.999978,19.033339 12,0 0,11.933333 -12,0 z" />
    <g
       id="g4258"
       transform="matrix(0.21880402,0,0,0.21880402,5,5)" />
    <g
       id="g4260"
       transform="matrix(0.21880402,0,0,0.21880402,5,5)" />
    <g
       id="g4262"
       transform="matrix(0.21880402,0,0,0.21880402,5,5)" />
    <g
       id="g4264"
       transform="matrix(0.21880402,0,0,0.21880402,5,5)" />
    <g
       id="g4266"
       transform="matrix(0.21880402,0,0,0.21880402,5,5)" />
    <g
       id="g4268"
       transform="matrix(0.21880402,0,0,0.21880402,5,5)" />
    <g
       id="g4270"
       transform="matrix(0.21880402,0,0,0.21880402,5,5)" />
    <g
       id="g4272"
       transform="matrix(0.21880402,0,0,0.21880402,5,5)" />
    <g
       id="g4274"
       transform="matrix(0.21880402,0,0,0.21880402,5,5)" />
    <g
       id="g4276"
       transform="matrix(0.21880402,0,0,0.21880402,5,5)" />
    <g
       id="g4278"
       transform="matrix(0.21880402,0,0,0.21880402,5,5)" />
    <g
       id="g4280"
       transform="matrix(0.21880402,0,0,0.21880402,5,5)" />
    <g
       id="g4282"
       transform="matrix(0.21880402,0,0,0.21880402,5,5)" />
    <g
       id="g4284"
       transform="matrix(0.21880402,0,0,0.21880402,5,5)" />
    <g
       id="g4286"
       transform="matrix(0.21880402,0,0,0.21880402,5,5)" />
    <path
       style="fill:none"
       inkscape:connector-curvature="0"
       d="m 19.946074,-2.1015253 24,0 0,24.0000003 -24,0 0,-24.0000003 z"
       id="path6734" />
    <path
       d="M 10 5 C 7.2386413 5 5 7.2386163 5 10 C 5 11.38068 5.5600137 12.630332 6.4648438 13.535156 C 6.4654897 13.535803 6.4661505 13.536463 6.4667969 13.537109 C 6.4678001 13.538112 6.469699 13.538061 6.4707031 13.539062 C 6.4707031 13.539062 6.4707031 13.541016 6.4707031 13.541016 C 6.4707031 13.541016 6.4726562 13.542969 6.4726562 13.542969 C 6.4726562 13.542969 6.4746094 13.544922 6.4746094 13.544922 C 6.4746094 13.544922 6.4765625 13.546875 6.4765625 13.546875 C 6.4765625 13.546875 6.4785156 13.548828 6.4785156 13.548828 C 6.4818181 13.55214 6.4869227 13.557244 6.4902344 13.560547 C 6.4954832 13.56581 6.5005873 13.570932 6.5058594 13.576172 C 6.5071531 13.577468 6.5084704 13.578783 6.5097656 13.580078 C 6.5156515 13.585993 6.5214285 13.59177 6.5273438 13.597656 C 6.5289944 13.599307 6.5315502 13.599914 6.5332031 13.601562 C 6.5332031 13.601562 6.5351562 13.603516 6.5351562 13.603516 C 6.5381146 13.606479 6.540003 13.610325 6.5429688 13.613281 C 6.5449092 13.615228 6.5468845 13.617197 6.5488281 13.619141 C 6.556004 13.62636 6.5630929 13.633449 6.5703125 13.640625 C 6.5703125 13.640625 6.5722656 13.642578 6.5722656 13.642578 C 6.5722656 13.642578 6.5742188 13.644531 6.5742188 13.644531 C 6.5801014 13.65045 6.5858849 13.65622 6.5917969 13.662109 C 6.5983333 13.668671 6.6047555 13.675115 6.6113281 13.681641 C 6.6113281 13.681641 6.6132812 13.683594 6.6132812 13.683594 C 6.6158728 13.686185 6.6184966 13.68882 6.6210938 13.691406 C 6.6262655 13.696601 6.6315243 13.70186 6.6367188 13.707031 C 6.6405976 13.710927 6.6445459 13.714867 6.6484375 13.71875 C 6.6556095 13.725973 6.6627062 13.733055 6.6699219 13.740234 C 6.6777488 13.7481 6.6854806 13.755858 6.6933594 13.763672 C 6.6959481 13.766266 6.6985775 13.768896 6.7011719 13.771484 C 6.7092775 13.779657 6.7164479 13.788758 6.7246094 13.796875 C 6.7330812 13.805393 6.7434205 13.811855 6.7519531 13.820312 C 6.7571907 13.825565 6.7623174 13.830709 6.7675781 13.835938 C 6.7747448 13.843148 6.7818522 13.850255 6.7890625 13.857422 C 6.7949374 13.863332 6.8007365 13.869119 6.8066406 13.875 C 6.8158063 13.884247 6.8247472 13.893168 6.8339844 13.902344 C 6.8438067 13.912232 6.8533771 13.921835 6.8632812 13.931641 C 6.8698092 13.938194 6.8762485 13.944655 6.8828125 13.951172 C 6.8912731 13.959693 6.8996817 13.968102 6.9082031 13.976562 C 6.9153659 13.983777 6.9224811 13.990876 6.9296875 13.998047 C 6.9414297 14.009906 6.9529841 14.021461 6.9648438 14.033203 C 6.9707264 14.039115 6.9765099 14.044899 6.9824219 14.050781 C 6.9954477 14.063952 7.0083139 14.076818 7.0214844 14.089844 C 7.0293013 14.0977 7.0370532 14.105477 7.0449219 14.113281 C 7.0533711 14.1218 7.0618025 14.130213 7.0703125 14.138672 C 7.0820483 14.150538 7.0936155 14.162079 7.1054688 14.173828 C 7.115926 14.184378 7.1261685 14.194621 7.1367188 14.205078 C 7.1491132 14.217583 7.1613031 14.229814 7.1738281 14.242188 C 7.1829326 14.251347 7.1919971 14.260442 7.2011719 14.269531 C 7.2121959 14.280659 7.2232475 14.29171 7.234375 14.302734 C 7.245761 14.314227 7.2580349 14.324555 7.2695312 14.335938 C 7.2812581 14.347781 7.2928435 14.359367 7.3046875 14.371094 C 7.314772 14.381279 7.3238133 14.392245 7.3339844 14.402344 C 7.3495731 14.41814 7.365063 14.43363 7.3808594 14.449219 C 7.3899655 14.45839 7.3990266 14.467461 7.4082031 14.476562 C 7.4237919 14.492359 7.4392817 14.507849 7.4550781 14.523438 C 7.4664616 14.534915 7.4787408 14.545273 7.4902344 14.556641 C 7.5016019 14.568134 7.5119598 14.580413 7.5234375 14.591797 C 7.5403055 14.608908 7.5571073 14.62571 7.5742188 14.642578 C 7.5859556 14.654412 7.5994742 14.664064 7.6113281 14.675781 C 7.6233977 14.687992 7.6342904 14.700804 7.6464844 14.712891 C 7.6624128 14.729059 7.6772136 14.745768 7.6933594 14.761719 C 7.7093103 14.777864 7.7260195 14.792665 7.7421875 14.808594 C 7.7539234 14.820447 7.7654905 14.832014 7.7773438 14.84375 C 7.7936253 14.860276 7.8096633 14.876279 7.8261719 14.892578 C 7.843116 14.909739 7.859764 14.926444 7.8769531 14.943359 C 7.8886891 14.955212 7.9002561 14.96678 7.9121094 14.978516 C 7.9293158 14.996 7.9454303 15.014019 7.9628906 15.03125 C 7.9801214 15.04871 7.9981407 15.064825 8.015625 15.082031 C 8.0302755 15.096844 8.0457135 15.11037 8.0605469 15.125 C 8.0751767 15.139833 8.0887027 15.155272 8.1035156 15.169922 C 8.1236375 15.190391 8.1435933 15.210347 8.1640625 15.230469 C 8.1790044 15.245576 8.1938522 15.260474 8.2089844 15.275391 C 8.2245448 15.291175 8.2400918 15.306688 8.2558594 15.322266 C 8.2759812 15.342735 8.2959371 15.362691 8.3164062 15.382812 C 8.3307071 15.397288 8.3448996 15.41148 8.359375 15.425781 C 8.3807711 15.44757 8.4020389 15.468838 8.4238281 15.490234 C 8.4400497 15.506654 8.4562102 15.522868 8.4726562 15.539062 C 8.4907795 15.557467 8.5089392 15.575627 8.5273438 15.59375 C 8.5458334 15.612527 8.565202 15.629953 8.5839844 15.648438 C 8.6028062 15.667563 8.6214997 15.686256 8.640625 15.705078 C 8.6578094 15.72254 8.6739686 15.740604 8.6914062 15.757812 C 8.7124381 15.779254 8.7324939 15.801204 8.7539062 15.822266 C 8.7733286 15.842011 8.7927542 15.861437 8.8125 15.880859 C 8.8335617 15.902272 8.8555114 15.922328 8.8769531 15.943359 C 8.895452 15.962125 8.9148023 15.979574 8.9335938 15.998047 C 8.9524206 16.017199 8.9711033 16.03584 8.9902344 16.054688 C 9.0136007 16.078523 9.0367108 16.101634 9.0605469 16.125 C 9.0781179 16.142836 9.095446 16.160163 9.1132812 16.177734 C 9.1379181 16.202894 9.1623403 16.227316 9.1875 16.251953 C 9.2069753 16.271721 9.2262941 16.291104 9.2460938 16.310547 C 9.2674625 16.332308 9.2887859 16.353631 9.3105469 16.375 C 9.3322673 16.397119 9.3548276 16.417739 9.3769531 16.439453 C 9.3993266 16.462251 9.4205558 16.485445 9.4433594 16.507812 C 9.4653881 16.530245 9.4873203 16.552203 9.5097656 16.574219 C 9.5317764 16.596633 9.5537451 16.618627 9.5761719 16.640625 C 9.598812 16.663706 9.6214504 16.686344 9.6445312 16.708984 C 9.6658882 16.730757 9.6872351 16.752057 9.7089844 16.773438 C 9.7336075 16.79861 9.758057 16.823006 9.7832031 16.847656 C 9.8084959 16.873457 9.8335322 16.898578 9.859375 16.923828 C 9.879471 16.94427 9.8994794 16.964279 9.9199219 16.984375 C 9.9454618 17.010514 9.9699904 17.036924 9.9960938 17.0625 C 10.02167 17.088603 10.04808 17.113132 10.074219 17.138672 C 10.097223 17.162098 10.121073 17.18406 10.144531 17.207031 C 10.169136 17.232157 10.193624 17.256645 10.21875 17.28125 C 10.243645 17.306672 10.26754 17.332533 10.292969 17.357422 C 10.318167 17.383167 10.343395 17.408396 10.369141 17.433594 C 10.394355 17.459355 10.41955 17.484552 10.445312 17.509766 C 10.470842 17.535849 10.497346 17.560416 10.523438 17.585938 C 10.54933 17.612408 10.575092 17.63817 10.601562 17.664062 C 10.626154 17.689202 10.650668 17.713663 10.675781 17.738281 C 10.704915 17.768149 10.733804 17.797038 10.763672 17.826172 C 10.787316 17.850291 10.80986 17.8748 10.833984 17.898438 C 10.863689 17.928905 10.89336 17.958577 10.923828 17.988281 C 10.949372 18.014351 10.975848 18.038946 11.001953 18.064453 C 11.027811 18.090917 11.053642 18.116691 11.080078 18.142578 C 11.109196 18.172462 11.138117 18.201319 11.167969 18.230469 C 11.195837 18.259008 11.223414 18.286585 11.251953 18.314453 C 11.281744 18.344961 11.31124 18.374556 11.341797 18.404297 C 11.368325 18.431387 11.394741 18.457891 11.421875 18.484375 C 11.450279 18.513476 11.478712 18.541909 11.507812 18.570312 C 11.536589 18.599796 11.566211 18.627482 11.595703 18.65625 C 11.624799 18.686078 11.653766 18.715045 11.683594 18.744141 C 11.71106 18.772297 11.737506 18.80062 11.765625 18.828125 C 11.798547 18.861987 11.831372 18.894813 11.865234 18.927734 C 11.891748 18.954839 11.918193 18.981314 11.945312 19.007812 C 11.978234 19.041674 12.01106 19.074501 12.044922 19.107422 C 12.073692 19.136866 12.103328 19.16463 12.132812 19.193359 C 12.163171 19.224516 12.193453 19.254798 12.224609 19.285156 C 12.25528 19.316634 12.284921 19.348243 12.316406 19.378906 C 12.347335 19.410664 12.378399 19.441727 12.410156 19.472656 C 12.439807 19.503101 12.469588 19.532816 12.5 19.5625 C 12.532903 19.59638 12.565766 19.62917 12.599609 19.662109 C 12.63127 19.694638 12.662783 19.726152 12.695312 19.757812 C 12.728603 19.792017 12.762624 19.824179 12.796875 19.857422 C 12.827272 19.888585 12.857476 19.918855 12.888672 19.949219 C 12.919949 19.981389 12.950295 20.013599 12.982422 20.044922 C 13.016584 20.080136 13.05076 20.114237 13.085938 20.148438 C 13.118859 20.182299 13.151685 20.215126 13.185547 20.248047 C 13.220098 20.283585 13.255429 20.317061 13.291016 20.351562 C 13.322942 20.384328 13.35391 20.417336 13.386719 20.449219 C 13.420168 20.483638 13.453861 20.517333 13.488281 20.550781 C 13.52208 20.585561 13.557007 20.618556 13.591797 20.652344 C 13.625935 20.687493 13.660163 20.721722 13.695312 20.755859 C 13.72945 20.791009 13.763678 20.825237 13.798828 20.859375 C 13.833342 20.894913 13.868749 20.928387 13.904297 20.962891 C 13.938774 20.998411 13.972303 21.033872 14.007812 21.068359 C 14.043234 21.104873 14.078722 21.140359 14.115234 21.175781 C 14.150657 21.212294 14.186143 21.247782 14.222656 21.283203 C 14.258079 21.319716 14.293565 21.355204 14.330078 21.390625 C 14.365822 21.427469 14.402598 21.462314 14.439453 21.498047 C 14.475853 21.535589 14.511276 21.572986 14.548828 21.609375 C 14.584572 21.646219 14.621348 21.681064 14.658203 21.716797 C 14.694624 21.754364 14.730003 21.791712 14.767578 21.828125 C 14.802953 21.864628 14.838535 21.900133 14.875 21.935547 C 14.914893 21.976829 14.954812 22.016748 14.996094 22.056641 C 15.031858 22.093465 15.068594 22.12835 15.105469 22.164062 C 15.142806 22.202614 15.180199 22.240007 15.21875 22.277344 C 15.256403 22.316223 15.293143 22.354934 15.332031 22.392578 C 15.369935 22.431734 15.40811 22.469909 15.447266 22.507812 C 15.483895 22.545652 15.520795 22.58247 15.558594 22.619141 C 15.598464 22.660444 15.638427 22.700319 15.679688 22.740234 C 15.719953 22.781856 15.761056 22.821121 15.802734 22.861328 C 15.838845 22.898572 15.874864 22.934594 15.912109 22.970703 C 15.952604 23.012679 15.991274 23.055161 16.033203 23.095703 C 16.074034 23.13793 16.115919 23.177978 16.158203 23.21875 C 16.194853 23.256569 16.231712 23.293428 16.269531 23.330078 C 16.312275 23.374407 16.356048 23.416254 16.400391 23.458984 C 16.437757 23.497565 16.47509 23.534901 16.513672 23.572266 C 16.556752 23.61697 16.599827 23.660046 16.644531 23.703125 C 16.682185 23.742005 16.718924 23.780715 16.757812 23.818359 C 16.801456 23.863671 16.845313 23.907529 16.890625 23.951172 C 16.930182 23.992037 16.970799 24.030812 17.011719 24.070312 C 17.053191 24.113276 17.095697 24.153853 17.138672 24.195312 C 17.178858 24.236966 17.218167 24.278117 17.259766 24.318359 C 17.304381 24.364707 17.348172 24.410475 17.394531 24.455078 C 17.434068 24.495965 17.474725 24.534696 17.515625 24.574219 C 17.560589 24.620929 17.605608 24.665999 17.652344 24.710938 C 17.691625 24.751544 17.730858 24.790818 17.771484 24.830078 C 17.815787 24.876152 17.860224 24.920491 17.90625 24.964844 C 17.94933 25.009548 17.992405 25.052624 18.037109 25.095703 C 18.082099 25.142389 18.127068 25.187509 18.173828 25.232422 C 18.21558 25.275626 18.257508 25.317694 18.300781 25.359375 C 18.34437 25.404627 18.388341 25.448599 18.433594 25.492188 C 18.475911 25.53612 18.518614 25.578729 18.5625 25.621094 C 18.609668 25.670201 18.657909 25.716519 18.707031 25.763672 C 18.750144 25.808359 18.793153 25.85147 18.837891 25.894531 C 18.882449 25.940818 18.926358 25.986703 18.972656 26.03125 C 19.017491 26.077847 19.062778 26.123135 19.109375 26.167969 C 19.152939 26.213245 19.196959 26.257168 19.242188 26.300781 C 19.28898 26.349552 19.336046 26.396514 19.384766 26.443359 C 19.43196 26.492441 19.480149 26.538812 19.529297 26.585938 C 19.572383 26.630646 19.615445 26.673713 19.660156 26.716797 C 19.707569 26.766243 19.753342 26.815812 19.802734 26.863281 C 19.850491 26.912972 19.899461 26.960125 19.949219 27.007812 C 19.992807 27.053065 20.036778 27.097037 20.082031 27.140625 C 20.131684 27.192433 20.182551 27.241378 20.234375 27.291016 C 20.278646 27.337004 20.323152 27.381511 20.369141 27.425781 C 20.417857 27.476643 20.46677 27.525447 20.517578 27.574219 C 20.56508 27.623703 20.612624 27.671249 20.662109 27.71875 C 20.709898 27.768534 20.756845 27.817459 20.806641 27.865234 C 20.854703 27.915329 20.90303 27.963656 20.953125 28.011719 C 21.002806 28.0635 21.053618 28.1125 21.105469 28.162109 C 21.152603 28.211126 21.200917 28.257622 21.25 28.304688 C 22.160037 29.253705 23.432939 29.851562 24.851562 29.851562 C 27.612948 29.851562 29.851562 27.612922 29.851562 24.851562 C 29.851562 23.432926 29.253708 22.16004 28.304688 21.25 C 28.257621 21.200917 28.211126 21.152603 28.162109 21.105469 C 28.1125 21.053618 28.0635 21.002807 28.011719 20.953125 C 27.963656 20.90303 27.915329 20.854704 27.865234 20.806641 C 27.817458 20.756845 27.768534 20.709898 27.71875 20.662109 C 27.671249 20.612624 27.623704 20.56508 27.574219 20.517578 C 27.525447 20.466769 27.476643 20.417857 27.425781 20.369141 C 27.38151 20.323152 27.337004 20.278646 27.291016 20.234375 C 27.241378 20.182551 27.192434 20.131685 27.140625 20.082031 C 27.097037 20.036778 27.053065 19.992807 27.007812 19.949219 C 26.960125 19.899461 26.912972 19.850491 26.863281 19.802734 C 26.815812 19.753342 26.766244 19.707569 26.716797 19.660156 C 26.673713 19.615445 26.630647 19.572383 26.585938 19.529297 C 26.538811 19.480149 26.492441 19.43196 26.443359 19.384766 C 26.396514 19.336046 26.349552 19.28898 26.300781 19.242188 C 26.257168 19.196958 26.213245 19.152939 26.167969 19.109375 C 26.123134 19.062778 26.077847 19.017491 26.03125 18.972656 C 25.986703 18.926358 25.940819 18.882449 25.894531 18.837891 C 25.850199 18.791833 25.80582 18.74746 25.759766 18.703125 C 25.715434 18.657067 25.671055 18.612694 25.625 18.568359 C 25.581077 18.522732 25.537802 18.477531 25.492188 18.433594 C 25.448599 18.388341 25.404628 18.34437 25.359375 18.300781 C 25.317694 18.257508 25.275626 18.21558 25.232422 18.173828 C 25.187509 18.127068 25.142389 18.082099 25.095703 18.037109 C 25.052624 17.992405 25.009548 17.94933 24.964844 17.90625 C 24.920491 17.860224 24.876152 17.815787 24.830078 17.771484 C 24.790818 17.730858 24.751544 17.691625 24.710938 17.652344 C 24.665999 17.605608 24.620929 17.560589 24.574219 17.515625 C 24.534696 17.474725 24.495965 17.434068 24.455078 17.394531 C 24.410475 17.348172 24.364708 17.304381 24.318359 17.259766 C 24.278117 17.218167 24.236966 17.178858 24.195312 17.138672 C 24.153826 17.095669 24.113305 17.053217 24.070312 17.011719 C 24.030812 16.970799 23.992037 16.930182 23.951172 16.890625 C 23.907529 16.845313 23.863671 16.801456 23.818359 16.757812 C 23.780715 16.718924 23.742005 16.682185 23.703125 16.644531 C 23.660045 16.599827 23.61697 16.556752 23.572266 16.513672 C 23.534901 16.475089 23.497566 16.437757 23.458984 16.400391 C 23.416254 16.356048 23.374407 16.312275 23.330078 16.269531 C 23.293428 16.231712 23.256569 16.194853 23.21875 16.158203 C 23.177978 16.115919 23.13793 16.074034 23.095703 16.033203 C 23.055161 15.991273 23.012679 15.952604 22.970703 15.912109 C 22.934594 15.874864 22.898572 15.838845 22.861328 15.802734 C 22.821121 15.761056 22.781856 15.719953 22.740234 15.679688 C 22.700319 15.638427 22.660444 15.598464 22.619141 15.558594 C 22.58247 15.520794 22.545652 15.483895 22.507812 15.447266 C 22.469909 15.408109 22.431734 15.369935 22.392578 15.332031 C 22.354933 15.293143 22.316224 15.256404 22.277344 15.21875 C 22.240007 15.180199 22.202614 15.142806 22.164062 15.105469 C 22.12835 15.068594 22.093465 15.031858 22.056641 14.996094 C 22.016748 14.954812 21.976829 14.914893 21.935547 14.875 C 21.900132 14.838535 21.864628 14.802953 21.828125 14.767578 C 21.791712 14.730003 21.754365 14.694624 21.716797 14.658203 C 21.681064 14.621348 21.646219 14.584572 21.609375 14.548828 C 21.572985 14.511276 21.535589 14.475853 21.498047 14.439453 C 21.462314 14.402598 21.427469 14.365822 21.390625 14.330078 C 21.355203 14.293564 21.319716 14.258079 21.283203 14.222656 C 21.247782 14.186143 21.212294 14.150657 21.175781 14.115234 C 21.140359 14.078722 21.104873 14.043234 21.068359 14.007812 C 21.033872 13.972302 20.998411 13.938774 20.962891 13.904297 C 20.928387 13.868749 20.894913 13.833342 20.859375 13.798828 C 20.825237 13.763678 20.791009 13.72945 20.755859 13.695312 C 20.721722 13.660162 20.687494 13.625935 20.652344 13.591797 C 20.618556 13.557007 20.585561 13.52208 20.550781 13.488281 C 20.517333 13.453861 20.483639 13.420168 20.449219 13.386719 C 20.417336 13.35391 20.384328 13.322942 20.351562 13.291016 C 20.317061 13.255429 20.283585 13.220098 20.248047 13.185547 C 20.215125 13.151685 20.182299 13.118859 20.148438 13.085938 C 20.114237 13.05076 20.080137 13.016584 20.044922 12.982422 C 20.013599 12.950295 19.98139 12.919949 19.949219 12.888672 C 19.918855 12.857476 19.888585 12.827273 19.857422 12.796875 C 19.824179 12.762624 19.792017 12.728604 19.757812 12.695312 C 19.726152 12.662783 19.694638 12.63127 19.662109 12.599609 C 19.629169 12.565765 19.59638 12.532903 19.5625 12.5 C 19.532816 12.469588 19.503101 12.439807 19.472656 12.410156 C 19.441727 12.378398 19.410664 12.347336 19.378906 12.316406 C 19.348243 12.284921 19.316634 12.25528 19.285156 12.224609 C 19.254798 12.193453 19.224516 12.163171 19.193359 12.132812 C 19.16463 12.103328 19.136866 12.073692 19.107422 12.044922 C 19.0745 12.01106 19.041674 11.978234 19.007812 11.945312 C 18.981314 11.918193 18.954839 11.891748 18.927734 11.865234 C 18.894813 11.831372 18.861987 11.798547 18.828125 11.765625 C 18.80062 11.737506 18.772297 11.71106 18.744141 11.683594 C 18.715045 11.653766 18.686078 11.624799 18.65625 11.595703 C 18.627482 11.566211 18.599796 11.536589 18.570312 11.507812 C 18.541909 11.478711 18.513476 11.450279 18.484375 11.421875 C 18.457891 11.394741 18.431387 11.368325 18.404297 11.341797 C 18.374556 11.31124 18.344961 11.281744 18.314453 11.251953 C 18.286585 11.223414 18.259008 11.195837 18.230469 11.167969 C 18.201319 11.138117 18.172462 11.109196 18.142578 11.080078 C 18.116691 11.053642 18.090917 11.027812 18.064453 11.001953 C 18.038946 10.975848 18.014351 10.949372 17.988281 10.923828 C 17.958577 10.89336 17.928906 10.863689 17.898438 10.833984 C 17.874799 10.80986 17.850291 10.787316 17.826172 10.763672 C 17.797038 10.733804 17.768149 10.704915 17.738281 10.675781 C 17.713663 10.650668 17.689202 10.626154 17.664062 10.601562 C 17.63817 10.575091 17.612408 10.549331 17.585938 10.523438 C 17.560416 10.497346 17.535849 10.470842 17.509766 10.445312 C 17.484552 10.41955 17.459355 10.394355 17.433594 10.369141 C 17.408396 10.343395 17.383167 10.318167 17.357422 10.292969 C 17.332533 10.26754 17.306672 10.243645 17.28125 10.21875 C 17.256645 10.193624 17.232158 10.169136 17.207031 10.144531 C 17.18406 10.121073 17.162098 10.097223 17.138672 10.074219 C 17.113132 10.04808 17.088603 10.02167 17.0625 9.9960938 C 17.036924 9.9699903 17.010514 9.9454619 16.984375 9.9199219 C 16.964279 9.8994794 16.94427 9.8794711 16.923828 9.859375 C 16.898578 9.8335321 16.873457 9.808496 16.847656 9.7832031 C 16.823006 9.7580569 16.798611 9.7336076 16.773438 9.7089844 C 16.752057 9.687235 16.730757 9.6658882 16.708984 9.6445312 C 16.686344 9.6214503 16.663706 9.5988121 16.640625 9.5761719 C 16.618627 9.553745 16.596633 9.5317765 16.574219 9.5097656 C 16.552203 9.4873202 16.530245 9.4653881 16.507812 9.4433594 C 16.485445 9.4205557 16.462251 9.3993267 16.439453 9.3769531 C 16.417739 9.3548275 16.397119 9.3322673 16.375 9.3105469 C 16.353631 9.2887858 16.332308 9.2674626 16.310547 9.2460938 C 16.291104 9.226294 16.271721 9.2069753 16.251953 9.1875 C 16.227316 9.1623403 16.202894 9.1379182 16.177734 9.1132812 C 16.160163 9.0954459 16.142836 9.0781179 16.125 9.0605469 C 16.101634 9.0367107 16.078523 9.0136008 16.054688 8.9902344 C 16.03584 8.9711033 16.017199 8.9524207 15.998047 8.9335938 C 15.979574 8.9148023 15.962125 8.895452 15.943359 8.8769531 C 15.922328 8.8555113 15.902272 8.8335617 15.880859 8.8125 C 15.861437 8.7927542 15.842011 8.7733287 15.822266 8.7539062 C 15.801204 8.7324938 15.779254 8.7124382 15.757812 8.6914062 C 15.740604 8.6739686 15.72254 8.6578095 15.705078 8.640625 C 15.686256 8.6214996 15.667563 8.6028062 15.648438 8.5839844 C 15.629953 8.5652019 15.612527 8.5458335 15.59375 8.5273438 C 15.575627 8.5089391 15.557467 8.4907796 15.539062 8.4726562 C 15.522868 8.4562102 15.506654 8.4400497 15.490234 8.4238281 C 15.468838 8.4020388 15.44757 8.3807711 15.425781 8.359375 C 15.41148 8.3448996 15.397288 8.3307071 15.382812 8.3164062 C 15.362691 8.295937 15.342735 8.2759813 15.322266 8.2558594 C 15.306688 8.2400917 15.291175 8.2245448 15.275391 8.2089844 C 15.260474 8.1938522 15.245576 8.1790045 15.230469 8.1640625 C 15.210347 8.1435932 15.190391 8.1236375 15.169922 8.1035156 C 15.155271 8.0887026 15.139833 8.0751768 15.125 8.0605469 C 15.11037 8.0457135 15.096844 8.0302755 15.082031 8.015625 C 15.064825 7.9981406 15.04871 7.9801215 15.03125 7.9628906 C 15.014019 7.9454303 14.996 7.9293159 14.978516 7.9121094 C 14.96678 7.9002561 14.955212 7.8886891 14.943359 7.8769531 C 14.926443 7.8597639 14.909739 7.843116 14.892578 7.8261719 C 14.876279 7.8096633 14.860276 7.7936254 14.84375 7.7773438 C 14.832014 7.7654905 14.820447 7.7539235 14.808594 7.7421875 C 14.792665 7.7260194 14.777864 7.7093104 14.761719 7.6933594 C 14.745768 7.6772136 14.729059 7.6624129 14.712891 7.6464844 C 14.700804 7.6342904 14.687992 7.6233978 14.675781 7.6113281 C 14.664064 7.5994742 14.654412 7.5859556 14.642578 7.5742188 C 14.62571 7.5571073 14.608908 7.5403056 14.591797 7.5234375 C 14.580413 7.5119597 14.568134 7.5016019 14.556641 7.4902344 C 14.545273 7.4787408 14.534915 7.4664616 14.523438 7.4550781 C 14.507849 7.4392817 14.492359 7.4237919 14.476562 7.4082031 C 14.467461 7.3990265 14.45839 7.3899656 14.449219 7.3808594 C 14.43363 7.3650629 14.41814 7.3495732 14.402344 7.3339844 C 14.392245 7.3238132 14.381279 7.314772 14.371094 7.3046875 C 14.359367 7.2928435 14.347781 7.2812581 14.335938 7.2695312 C 14.324555 7.2580348 14.314227 7.2457611 14.302734 7.234375 C 14.29171 7.2232475 14.280659 7.2121959 14.269531 7.2011719 C 14.260442 7.1919971 14.251347 7.1829326 14.242188 7.1738281 C 14.229814 7.161303 14.217583 7.1491133 14.205078 7.1367188 C 14.194621 7.1261685 14.184378 7.115926 14.173828 7.1054688 C 14.162079 7.0936155 14.150538 7.0820483 14.138672 7.0703125 C 14.130213 7.0618025 14.1218 7.0533712 14.113281 7.0449219 C 14.105477 7.0370532 14.0977 7.0293013 14.089844 7.0214844 C 14.076818 7.0083138 14.063952 6.9954477 14.050781 6.9824219 C 14.044899 6.9765099 14.039115 6.9707264 14.033203 6.9648438 C 14.021461 6.952984 14.009906 6.9414298 13.998047 6.9296875 C 13.990876 6.9224811 13.983777 6.9153659 13.976562 6.9082031 C 13.968102 6.8996817 13.959693 6.8912732 13.951172 6.8828125 C 13.944655 6.8762485 13.938194 6.8698092 13.931641 6.8632812 C 13.920252 6.8517791 13.909936 6.8395167 13.898438 6.828125 C 13.892549 6.822217 13.884824 6.8183786 13.878906 6.8125 C 13.871388 6.8049315 13.864988 6.796583 13.857422 6.7890625 C 13.850255 6.7818522 13.843148 6.7747449 13.835938 6.7675781 C 13.830709 6.7623174 13.825565 6.7571907 13.820312 6.7519531 C 13.811855 6.7434205 13.805393 6.7330812 13.796875 6.7246094 C 13.787464 6.715147 13.777064 6.7066528 13.767578 6.6972656 C 13.766282 6.6959698 13.764969 6.6946537 13.763672 6.6933594 C 13.755858 6.6854806 13.7481 6.6777488 13.740234 6.6699219 C 13.731761 6.6614057 13.723378 6.6529865 13.714844 6.6445312 C 13.712252 6.6419397 13.709628 6.6393046 13.707031 6.6367188 C 13.70186 6.6315243 13.696601 6.6262655 13.691406 6.6210938 C 13.68882 6.6184965 13.684232 6.6139197 13.681641 6.6113281 C 13.675115 6.6047555 13.668671 6.5983333 13.662109 6.5917969 C 13.65622 6.5858849 13.648497 6.5781483 13.642578 6.5722656 C 13.642578 6.5722656 13.640625 6.5703125 13.640625 6.5703125 C 13.633449 6.5630929 13.62636 6.5560041 13.619141 6.5488281 C 13.617197 6.5468845 13.615228 6.5449092 13.613281 6.5429688 C 13.610325 6.540003 13.604526 6.5361615 13.601562 6.5332031 C 13.599968 6.5316134 13.599253 6.5289313 13.597656 6.5273438 C 13.59177 6.5214285 13.585993 6.5156515 13.580078 6.5097656 C 13.577488 6.5071753 13.574862 6.5045378 13.572266 6.5019531 C 13.568314 6.4979866 13.562558 6.4922346 13.558594 6.4882812 C 13.555291 6.4849695 13.55214 6.4818181 13.548828 6.4785156 C 13.548828 6.4785156 13.546875 6.4765625 13.546875 6.4765625 C 13.546875 6.4765625 13.544922 6.4746094 13.544922 6.4746094 C 13.544922 6.4746094 13.542969 6.4726562 13.542969 6.4726562 C 13.542969 6.4726562 13.541016 6.4707031 13.541016 6.4707031 C 13.540723 6.4704096 13.539355 6.4709966 13.539062 6.4707031 C 13.539062 6.4707031 13.539062 6.46875 13.539062 6.46875 C 13.53877 6.4684566 13.537402 6.4690433 13.537109 6.46875 C 13.537109 6.46875 13.537109 6.4667969 13.537109 6.4667969 C 13.536463 6.4661505 13.535803 6.4654897 13.535156 6.4648438 C 12.630329 5.5600105 11.380693 5 10 5 z "
       id="path7987"
       style="fill-opacity:1;fill:url(#linearGradient8872)"
       clip-path="url(#clipPath8877)" />
    <ellipse
       style="opacity:1;fill:#009688;fill-opacity:1;stroke:none;stroke-width:1.25;stroke-linecap:round;stroke-linejoin:round;stroke-miterlimit:4;stroke-dasharray:none;stroke-opacity:1"
       id="path8881"
       cx="10"
       cy="9.8883924"
       rx="4.4642859"
       ry="4.3973212" />
    <path
       inkscape:connector-curvature="0"
       d="M 10,5 C 7.238641,5 5,7.238641 5,10.000025 5,12.761385 7.238641,15 10,15 12.761385,15 15,12.761385 15,10.000025 15,7.238641 12.761385,5 10,5 Z m 0,9.178626 C 7.6922414,14.178626 5.8213743,12.307759 5.8213743,10 5.8213743,7.6922161 7.6922414,5.8213743 10,5.8213743 c 2.307784,0 4.178651,1.8708671 4.178651,4.1786257 0,2.307759 -1.870867,4.178626 -4.178651,4.178626 z m 1.887247,-4.3086208 c 0.160142,-0.2260396 0.255679,-0.5089757 0.255679,-0.8163794 0,-0.7396552 -0.551724,-1.3393002 -1.232049,-1.3393002 -0.05446,0 -0.120689,0 -0.196399,0 l 0,-1.0356998 c 0,-0.058976 -0.04828,-0.107074 -0.107074,-0.107074 l -0.357404,0 c -0.05898,0 -0.107074,0.048276 -0.107074,0.107074 l 0,1.0356998 -0.5713996,0 0,-1.0356998 c 0,-0.058976 -0.048276,-0.107074 -0.107074,-0.107074 l -0.357074,0 c -0.058976,0 -0.1070741,0.048276 -0.1070741,0.107074 l 0,1.0356998 -1.1786258,0 c -0.059153,0 -0.107074,0.047921 -0.107074,0.107074 l 0,0.3606998 c 0,0.055172 0.041202,0.1029412 0.096197,0.1079362 0.402434,0.036891 0.6181034,0.3068965 0.6181034,0.6386156 l 0,2.2143258 c 0,0.298453 -0.1539807,0.535319 -0.4905172,0.567748 -0.047769,0.0047 -0.087424,0.03862 -0.096374,0.08588 l -0.068281,0.364122 c -0.012246,0.06499 0.037753,0.125203 0.1039807,0.125203 l 1.1222364,0 0,1.0357 c 0,0.05895 0.048276,0.107074 0.107074,0.107074 l 0.357074,0 c 0.05895,0 0.1070741,-0.04828 0.1070741,-0.107074 l 0,-1.0357 0.5713995,0 0,1.0357 c 0,0.05895 0.04828,0.107074 0.107074,0.107074 l 0.357049,0 c 0.05898,0 0.107074,-0.04828 0.107074,-0.107074 l 0,-1.0357 c 0.202434,0 0.370512,0 0.482099,0 0.680528,0 1.232049,-0.591557 1.232049,-1.321374 6.85e-4,-0.455578 -0.21392,-0.856947 -0.540669,-1.0945488 z M 9.5713743,8.5713743 c 0,0 0.5494677,0 0.8749747,0 0.325558,0 0.5893,0.2637931 0.5893,0.5893256 0,0.3255071 -0.263742,0.5893002 -0.5893,0.5893002 -0.325507,0 -0.8749747,0 -0.8749747,0 l 0,-1.1786258 z m 1.1606747,2.8929517 c -0.325507,0 -1.1606747,0 -1.1606747,0 l 0,-1.178601 c 0,0 0.8351677,0 1.1606747,0 0.325558,0 0.5893,0.263768 0.5893,0.5893 0,0.325482 -0.263742,0.589301 -0.5893,0.589301 z"
       id="path7796"
       style="fill:#fafafa" />
    <g
       transform="matrix(0.02535497,0,0,0.02535497,5,5)"
       id="g7798" />
    <g
       transform="matrix(0.02535497,0,0,0.02535497,5,5)"
       id="g7800" />
    <g
       transform="matrix(0.02535497,0,0,0.02535497,5,5)"
       id="g7802" />
    <g
       transform="matrix(0.02535497,0,0,0.02535497,5,5)"
       id="g7804" />
    <g
       transform="matrix(0.02535497,0,0,0.02535497,5,5)"
       id="g7806" />
    <g
       transform="matrix(0.02535497,0,0,0.02535497,5,5)"
       id="g7808" />
    <g
       transform="matrix(0.02535497,0,0,0.02535497,5,5)"
       id="g7810" />
    <g
       transform="matrix(0.02535497,0,0,0.02535497,5,5)"
       id="g7812" />
    <g
       transform="matrix(0.02535497,0,0,0.02535497,5,5)"
       id="g7814" />
    <g
       transform="matrix(0.02535497,0,0,0.02535497,5,5)"
       id="g7816" />
    <g
       transform="matrix(0.02535497,0,0,0.02535497,5,5)"
       id="g7818" />
    <g
       transform="matrix(0.02535497,0,0,0.02535497,5,5)"
       id="g7820" />
    <g
       transform="matrix(0.02535497,0,0,0.02535497,5,5)"
       id="g7822" />
    <g
       transform="matrix(0.02535497,0,0,0.02535497,5,5)"
       id="g7824" />
    <g
       transform="matrix(0.02535497,0,0,0.02535497,5,5)"
       id="g7826" />
  </g>
</svg>
