<?xml version="1.0" encoding="UTF-8" standalone="no"?>
<!-- Created with Inkscape (http://www.inkscape.org/) -->

<svg
   xmlns:dc="http://purl.org/dc/elements/1.1/"
   xmlns:cc="http://creativecommons.org/ns#"
   xmlns:rdf="http://www.w3.org/1999/02/22-rdf-syntax-ns#"
   xmlns:svg="http://www.w3.org/2000/svg"
   xmlns="http://www.w3.org/2000/svg"
   xmlns:xlink="http://www.w3.org/1999/xlink"
   xmlns:sodipodi="http://sodipodi.sourceforge.net/DTD/sodipodi-0.dtd"
   xmlns:inkscape="http://www.inkscape.org/namespaces/inkscape"
   width="5.6444445mm"
   height="5.6444445mm"
   viewBox="0 0 20 20"
   id="svg2"
   version="1.1"
   inkscape:version="0.91 r13725"
   sodipodi:docname="Blitz.svg"
   inkscape:export-filename="/home/juergen/Projekte/Android/Android_Studio/Baumann_Theme/theme/src/main/assets/icons/res/drawable-xxhdpi/a150.png"
   inkscape:export-xdpi="648"
   inkscape:export-ydpi="648">
  <sodipodi:namedview
     id="base"
     pagecolor="#ffffff"
     bordercolor="#666666"
     borderopacity="1.0"
     inkscape:pageopacity="0.0"
     inkscape:pageshadow="2"
     inkscape:zoom="15.839192"
     inkscape:cx="16.605972"
     inkscape:cy="9.3861105"
     inkscape:document-units="px"
     inkscape:current-layer="layer1"
     showgrid="false"
     fit-margin-top="0"
     fit-margin-left="0"
     fit-margin-right="0"
     fit-margin-bottom="0"
     showguides="true"
     inkscape:guide-bbox="true"
     inkscape:window-width="1366"
     inkscape:window-height="744"
     inkscape:window-x="0"
     inkscape:window-y="24"
     inkscape:window-maximized="1"
     inkscape:snap-grids="true"
     inkscape:snap-to-guides="false"
     inkscape:snap-page="true">
    <inkscape:grid
       id="grid4138"
       type="xygrid" />
    <sodipodi:guide
       id="guide4140"
       orientation="0,1"
       position="10,18" />
    <sodipodi:guide
       id="guide4142"
       orientation="0,1"
       position="10,2" />
    <sodipodi:guide
       id="guide4144"
       orientation="1,0"
       position="2,10" />
    <sodipodi:guide
       id="guide4146"
       orientation="0,20"
       position="0,0" />
    <sodipodi:guide
       id="guide4148"
       orientation="-20,0"
       position="20,0" />
    <sodipodi:guide
       id="guide4150"
       orientation="0,-20"
       position="20,20" />
    <sodipodi:guide
       id="guide4152"
       orientation="20,0"
       position="0,20" />
    <sodipodi:guide
       id="guide4154"
       orientation="1,0"
       position="18,10" />
    <sodipodi:guide
       id="guide4156"
       orientation="-0.70710678,0.70710678"
       position="10,10" />
    <sodipodi:guide
       id="guide4160"
       orientation="1,0"
       position="4,10" />
    <sodipodi:guide
       id="guide4162"
       orientation="1,0"
       position="16,10" />
    <sodipodi:guide
       id="guide4164"
       orientation="0,1"
       position="10,16" />
    <sodipodi:guide
       id="guide4166"
       orientation="0,1"
       position="10,4" />
    <sodipodi:guide
       id="guide4168"
       orientation="0,1"
       position="10,15" />
    <sodipodi:guide
       id="guide4170"
       orientation="0,1"
       position="10,5" />
    <sodipodi:guide
       id="guide4172"
       orientation="1,0"
       position="5,10" />
    <sodipodi:guide
       id="guide4174"
       orientation="1,0"
       position="15,10" />
  </sodipodi:namedview>
  <defs
     id="defs4">
    <linearGradient
       inkscape:collect="always"
       id="linearGradient9293">
      <stop
         style="stop-color:#000000;stop-opacity:0.2"
         offset="0"
         id="stop9295" />
      <stop
         style="stop-color:#000000;stop-opacity:0;"
         offset="1"
         id="stop9297" />
    </linearGradient>
    <clipPath
       clipPathUnits="userSpaceOnUse"
       id="clipPath12478">
      <circle
         style="opacity:1;fill:#2196f3;fill-opacity:1;stroke:none;stroke-width:0.05069799;stroke-miterlimit:4;stroke-dasharray:none;stroke-opacity:1"
         id="circle12480"
         cx="9.9999781"
         cy="10.000005"
         r="10" />
    </clipPath>
    <clipPath
       id="clipPath5790"
       clipPathUnits="userSpaceOnUse">
      <circle
         inkscape:export-ydpi="648"
         inkscape:export-xdpi="648"
         inkscape:export-filename="/home/juergen/path4136.png"
         style="opacity:1;fill:#2196f3;fill-opacity:1;stroke:none;stroke-width:0.05069799;stroke-miterlimit:4;stroke-dasharray:none;stroke-opacity:1"
         id="circle5792"
         cx="9.9999781"
         cy="10.000005"
         r="10" />
    </clipPath>
    <clipPath
       clipPathUnits="userSpaceOnUse"
       id="clipPath5055">
      <circle
         inkscape:export-ydpi="648"
         inkscape:export-xdpi="648"
         inkscape:export-filename="/home/juergen/path4136.png"
         style="opacity:1;fill:#2196f3;fill-opacity:1;stroke:none;stroke-width:0.05069799;stroke-miterlimit:4;stroke-dasharray:none;stroke-opacity:1"
         id="circle5057"
         cx="9.9999781"
         cy="10.000005"
         r="10" />
    </clipPath>
    <clipPath
       id="clipPath5119"
       clipPathUnits="userSpaceOnUse">
      <circle
         inkscape:export-ydpi="648"
         inkscape:export-xdpi="648"
         inkscape:export-filename="/home/juergen/Schreibtisch/path4136.png"
         style="opacity:1;fill:#2196f3;fill-opacity:1;stroke:none;stroke-width:0.05069799;stroke-miterlimit:4;stroke-dasharray:none;stroke-opacity:1"
         id="circle5121"
         cx="9.9999781"
         cy="10.000005"
         r="10" />
    </clipPath>
    <clipPath
       clipPathUnits="userSpaceOnUse"
       id="clipPath5194">
      <circle
         inkscape:export-ydpi="648"
         inkscape:export-xdpi="648"
         inkscape:export-filename="/home/juergen/Schreibtisch/path4136.png"
         style="opacity:1;fill:#cddc39;fill-opacity:1;stroke:none;stroke-width:0.05069799;stroke-miterlimit:4;stroke-dasharray:none;stroke-opacity:1"
         id="circle5196"
         cx="9.9999781"
         cy="10.000005"
         r="10" />
    </clipPath>
    <clipPath
       id="clipPath6175"
       clipPathUnits="userSpaceOnUse">
      <circle
         inkscape:export-ydpi="648"
         inkscape:export-xdpi="648"
         inkscape:export-filename="/home/juergen/Schreibtisch/path4136.png"
         style="opacity:1;fill:#f44336;fill-opacity:1;stroke:none;stroke-width:0.05069799;stroke-miterlimit:4;stroke-dasharray:none;stroke-opacity:1"
         id="circle6177"
         cx="9.9999781"
         cy="10.000005"
         r="10" />
    </clipPath>
    <clipPath
       clipPathUnits="userSpaceOnUse"
       id="clipPath7176">
      <circle
         inkscape:export-ydpi="648"
         inkscape:export-xdpi="648"
         inkscape:export-filename="/home/juergen/Schreibtisch/path4136.png"
         style="opacity:1;fill:#9c27b0;fill-opacity:1;stroke:none;stroke-width:0.05069799;stroke-miterlimit:4;stroke-dasharray:none;stroke-opacity:1"
         id="circle7178"
         cx="9.9999781"
         cy="10.000005"
         r="10" />
    </clipPath>
    <clipPath
       id="clipPath8165"
       clipPathUnits="userSpaceOnUse">
      <circle
         inkscape:export-ydpi="648"
         inkscape:export-xdpi="648"
         inkscape:export-filename="/home/juergen/Schreibtisch/path4136.png"
         style="opacity:1;fill:#ffc107;fill-opacity:1;stroke:none;stroke-width:0.05069799;stroke-miterlimit:4;stroke-dasharray:none;stroke-opacity:1"
         id="circle8167"
         cx="9.9999781"
         cy="10.000005"
         r="10" />
    </clipPath>
    <clipPath
       clipPathUnits="userSpaceOnUse"
       id="clipPath9162">
      <circle
         inkscape:export-ydpi="648"
         inkscape:export-xdpi="648"
         inkscape:export-filename="/home/juergen/Schreibtisch/path4136.png"
         style="opacity:1;fill:#ff9800;fill-opacity:1;stroke:none;stroke-width:0.05069799;stroke-miterlimit:4;stroke-dasharray:none;stroke-opacity:1"
         id="circle9164"
         cx="9.9999781"
         cy="10.000005"
         r="10" />
    </clipPath>
    <clipPath
       id="clipPath5147"
       clipPathUnits="userSpaceOnUse">
      <circle
         inkscape:export-ydpi="648"
         inkscape:export-xdpi="648"
         inkscape:export-filename="/home/juergen/Schreibtisch/path4136.png"
         style="opacity:1;fill:#ff9800;fill-opacity:1;stroke:none;stroke-width:0.05069799;stroke-miterlimit:4;stroke-dasharray:none;stroke-opacity:1"
         id="circle5149"
         cx="9.9999781"
         cy="10.000005"
         r="10" />
    </clipPath>
    <clipPath
       clipPathUnits="userSpaceOnUse"
       id="clipPath6144">
      <circle
         inkscape:export-ydpi="648"
         inkscape:export-xdpi="648"
         inkscape:export-filename="/home/juergen/Schreibtisch/path4136.png"
         style="opacity:1;fill:#e91e63;fill-opacity:1;stroke:none;stroke-width:0.05069799;stroke-miterlimit:4;stroke-dasharray:none;stroke-opacity:1"
         id="circle6146"
         cx="9.9999781"
         cy="10.000005"
         r="10" />
    </clipPath>
    <clipPath
       id="clipPath7143"
       clipPathUnits="userSpaceOnUse">
      <circle
         inkscape:export-ydpi="648"
         inkscape:export-xdpi="648"
         inkscape:export-filename="/home/juergen/Schreibtisch/path4136.png"
         style="opacity:1;fill:#ffeb3b;fill-opacity:1;stroke:none;stroke-width:0.05069799;stroke-miterlimit:4;stroke-dasharray:none;stroke-opacity:1"
         id="circle7145"
         cx="9.9999781"
         cy="10.000005"
         r="10" />
    </clipPath>
    <clipPath
       clipPathUnits="userSpaceOnUse"
       id="clipPath8148">
      <circle
         inkscape:export-ydpi="648"
         inkscape:export-xdpi="648"
         inkscape:export-filename="/home/juergen/Schreibtisch/path4136.png"
         style="opacity:1;fill:#9c27b0;fill-opacity:1;stroke:none;stroke-width:0.05069799;stroke-miterlimit:4;stroke-dasharray:none;stroke-opacity:1"
         id="circle8150"
         cx="9.9999781"
         cy="10.000005"
         r="10" />
    </clipPath>
    <clipPath
       id="clipPath5383"
       clipPathUnits="userSpaceOnUse">
      <circle
         inkscape:export-ydpi="648"
         inkscape:export-xdpi="648"
         inkscape:export-filename="/home/juergen/Schreibtisch/path4136.png"
         style="opacity:1;fill:#f44336;fill-opacity:1;stroke:none;stroke-width:0.05069799;stroke-miterlimit:4;stroke-dasharray:none;stroke-opacity:1"
         id="circle5385"
         cx="9.9999781"
         cy="10.000005"
         r="10" />
    </clipPath>
    <clipPath
       clipPathUnits="userSpaceOnUse"
       id="clipPath5185">
      <circle
         inkscape:export-ydpi="648"
         inkscape:export-xdpi="648"
         inkscape:export-filename="/home/juergen/Schreibtisch/path4136.png"
         style="opacity:1;fill:#00bcd4;fill-opacity:1;stroke:none;stroke-width:0.05069799;stroke-miterlimit:4;stroke-dasharray:none;stroke-opacity:1"
         id="circle5187"
         cx="9.9999781"
         cy="10.000005"
         r="10" />
    </clipPath>
    <clipPath
       id="clipPath6210"
       clipPathUnits="userSpaceOnUse">
      <circle
         inkscape:export-ydpi="648"
         inkscape:export-xdpi="648"
         inkscape:export-filename="/home/juergen/Projekte/Android/Android_Studio/Baumann_Theme/theme/src/main/assets/icons/res/drawable-xxhdpi/a169.png"
         style="opacity:1;fill:#673ab7;fill-opacity:1;stroke:none;stroke-width:0.05069799;stroke-miterlimit:4;stroke-dasharray:none;stroke-opacity:1"
         id="circle6212"
         cx="9.9999781"
         cy="10.000005"
         r="10" />
    </clipPath>
    <clipPath
       clipPathUnits="userSpaceOnUse"
       id="clipPath7239">
      <circle
         inkscape:export-ydpi="648"
         inkscape:export-xdpi="648"
         inkscape:export-filename="/home/juergen/Projekte/Android/Android_Studio/Baumann_Theme/theme/src/main/assets/icons/res/drawable-xxhdpi/a171.png"
         style="opacity:1;fill:#cddc39;fill-opacity:1;stroke:none;stroke-width:0.05069799;stroke-miterlimit:4;stroke-dasharray:none;stroke-opacity:1"
         id="circle7241"
         cx="9.9999781"
         cy="10.000005"
         r="10" />
    </clipPath>
    <clipPath
       clipPathUnits="userSpaceOnUse"
       id="clipPath7295">
      <path
         style="fill:none;fill-rule:evenodd;stroke:#000000;stroke-width:1px;stroke-linecap:butt;stroke-linejoin:miter;stroke-opacity:1"
         d="m 11.6964,14.46429 -0.089,-2.36608 -0.1785,-0.9375 -1.25,-1.20535 -0.3125,-3.75 -3.259,-0.13393 -1.4285,2.27678 -1.5179,3.16965 0.1339,2.14285 7.9018,0.9375 z"
         id="path7297"
         inkscape:connector-curvature="0" />
    </clipPath>
    <clipPath
       id="clipPath8265"
       clipPathUnits="userSpaceOnUse">
      <circle
         inkscape:export-ydpi="648"
         inkscape:export-xdpi="648"
         inkscape:export-filename="/home/juergen/Projekte/Android/Android_Studio/Baumann_Theme/theme/src/main/assets/icons/res/drawable-xxhdpi/a172.png"
         style="opacity:1;fill:#009688;fill-opacity:1;stroke:none;stroke-width:0.05069799;stroke-miterlimit:4;stroke-dasharray:none;stroke-opacity:1"
         id="circle8267"
         cx="9.9999781"
         cy="10.000005"
         r="10" />
    </clipPath>
    <linearGradient
       inkscape:collect="always"
       xlink:href="#linearGradient9293"
       id="linearGradient9299"
       x1="9.9121218"
       y1="9.8984737"
       x2="20"
       y2="20"
       gradientUnits="userSpaceOnUse" />
    <clipPath
       clipPathUnits="userSpaceOnUse"
       id="clipPath9303">
      <circle
         inkscape:export-ydpi="648"
         inkscape:export-xdpi="648"
         inkscape:export-filename="/home/juergen/Projekte/Android/Android_Studio/Baumann_Theme/theme/src/main/assets/icons/res/drawable-xxhdpi/a173.png"
         style="opacity:1;fill:#757575;fill-opacity:1;stroke:none;stroke-width:0.05069799;stroke-miterlimit:4;stroke-dasharray:none;stroke-opacity:1"
         id="circle9305"
         cx="9.9999781"
         cy="10.000005"
         r="10" />
    </clipPath>
  </defs>
  <metadata
     id="metadata7">
    <rdf:RDF>
      <cc:Work
         rdf:about="">
        <dc:format>image/svg+xml</dc:format>
        <dc:type
           rdf:resource="http://purl.org/dc/dcmitype/StillImage" />
        <dc:title></dc:title>
      </cc:Work>
    </rdf:RDF>
  </metadata>
  <g
     transform="translate(1058.1428,-861.93365)"
     id="layer1"
     inkscape:groupmode="layer"
     inkscape:label="Hintergrund">
    <circle
       r="10"
       cy="871.93365"
       cx="-1048.1428"
       id="path4136"
       style="opacity:1;fill:#757575;fill-opacity:1;stroke:none;stroke-width:0.05069799;stroke-miterlimit:4;stroke-dasharray:none;stroke-opacity:1"
       inkscape:export-filename="/home/juergen/Projekte/Android/Android_Studio/Baumann_Theme/theme/src/main/assets/icons/res/drawable-xxhdpi/a176.png"
       inkscape:export-xdpi="648"
       inkscape:export-ydpi="648" />
    <path
       style="opacity:1;fill-opacity:1;fill:url(#linearGradient9299)"
       d="M 12 7 L 12.894531 7.8964844 L 12.896484 7.8964844 L 13.144531 8.1445312 L 10.705078 10.583984 L 10.421875 10.300781 L 10.347656 10.226562 L 10.123047 10.001953 L 10.048828 9.9277344 L 9.9746094 9.8535156 L 9.75 9.6289062 L 9.6757812 9.5546875 L 9.3769531 9.2558594 L 9.3027344 9.1816406 L 9.0039062 8.8828125 L 8.9296875 8.8105469 L 8.9296875 8.8085938 L 8.8535156 8.734375 L 8.7792969 8.6601562 L 8.7050781 8.5859375 L 5 12.294922 L 5.0742188 12.369141 L 5.5214844 12.816406 L 5.5214844 12.818359 L 5.7050781 13 L 5.7792969 13.074219 L 5.8535156 13.148438 L 5.8945312 13.189453 L 5.8945312 13.191406 L 5.9296875 13.224609 L 6.0039062 13.298828 L 6.1523438 13.447266 L 6.2265625 13.521484 L 6.3027344 13.597656 L 6.3769531 13.671875 L 6.5253906 13.820312 L 6.5996094 13.896484 L 6.6757812 13.970703 L 6.75 14.044922 L 6.8242188 14.119141 L 6.8984375 14.193359 L 6.9746094 14.269531 L 7.0488281 14.34375 L 7.1230469 14.417969 L 7.1972656 14.492188 L 7.2714844 14.566406 L 7.3125 14.607422 L 7.3125 14.609375 L 7.3476562 14.642578 L 7.421875 14.716797 L 7.4960938 14.791016 L 7.5703125 14.865234 L 7.6445312 14.939453 L 7.7207031 15.015625 L 7.7949219 15.089844 L 7.9433594 15.238281 L 8.0175781 15.3125 L 8.09375 15.388672 L 8.1679688 15.462891 L 8.3164062 15.611328 L 8.390625 15.6875 L 8.4667969 15.761719 L 8.5410156 15.835938 L 8.6152344 15.910156 L 8.6894531 15.984375 L 8.765625 16.060547 L 8.8398438 16.134766 L 8.9140625 16.208984 L 8.9882812 16.283203 L 9.0625 16.357422 L 9.1386719 16.433594 L 9.2128906 16.507812 L 9.2871094 16.582031 L 9.3613281 16.65625 L 9.4355469 16.730469 L 9.5117188 16.806641 L 9.5859375 16.880859 L 9.6601562 16.955078 L 9.734375 17.029297 L 9.8085938 17.103516 L 9.8847656 17.179688 L 9.9589844 17.253906 L 10.107422 17.402344 L 10.181641 17.478516 L 10.257812 17.552734 L 10.332031 17.626953 L 10.40625 17.701172 L 10.480469 17.775391 L 10.521484 17.816406 L 10.521484 17.818359 L 10.556641 17.851562 L 10.630859 17.925781 L 10.705078 18 L 10.779297 18.074219 L 10.853516 18.148438 L 10.894531 18.189453 L 10.894531 18.191406 L 10.929688 18.224609 L 11.003906 18.298828 L 11.152344 18.447266 L 11.226562 18.521484 L 11.302734 18.597656 L 11.376953 18.671875 L 11.525391 18.820312 L 11.599609 18.896484 L 11.675781 18.970703 L 11.75 19.044922 L 11.824219 19.119141 L 11.898438 19.193359 L 11.974609 19.269531 L 12.048828 19.34375 L 12.123047 19.417969 L 12.197266 19.492188 L 12.271484 19.566406 L 12.3125 19.607422 L 12.3125 19.609375 L 12.347656 19.642578 L 12.421875 19.716797 L 12.496094 19.791016 L 12.570312 19.865234 L 12.644531 19.939453 L 12.720703 20.015625 L 12.794922 20.089844 L 12.943359 20.238281 L 13.017578 20.3125 L 13.09375 20.388672 L 13.167969 20.462891 L 13.316406 20.611328 L 13.390625 20.6875 L 13.466797 20.761719 L 13.541016 20.835938 L 13.615234 20.910156 L 13.689453 20.984375 L 13.765625 21.060547 L 13.839844 21.134766 L 13.914062 21.208984 L 13.988281 21.283203 L 14.0625 21.357422 L 14.138672 21.433594 L 14.212891 21.507812 L 14.287109 21.582031 L 14.361328 21.65625 L 14.435547 21.730469 L 14.511719 21.806641 L 14.585938 21.880859 L 14.660156 21.955078 L 14.734375 22.029297 L 14.808594 22.103516 L 14.884766 22.179688 L 14.958984 22.253906 L 15.107422 22.402344 L 15.181641 22.478516 L 15.257812 22.552734 L 15.332031 22.626953 L 15.40625 22.701172 L 15.480469 22.775391 L 15.521484 22.816406 L 15.521484 22.818359 L 15.556641 22.851562 L 15.630859 22.925781 L 15.705078 23 L 15.779297 23.074219 L 15.853516 23.148438 L 15.894531 23.189453 L 15.894531 23.191406 L 15.929688 23.224609 L 16.003906 23.298828 L 16.152344 23.447266 L 16.226562 23.521484 L 16.302734 23.597656 L 16.376953 23.671875 L 16.525391 23.820312 L 16.599609 23.896484 L 16.675781 23.970703 L 16.75 24.044922 L 16.824219 24.119141 L 16.898438 24.193359 L 16.974609 24.269531 L 17.048828 24.34375 L 17.123047 24.417969 L 17.197266 24.492188 L 17.271484 24.566406 L 17.3125 24.607422 L 17.3125 24.609375 L 17.347656 24.642578 L 17.421875 24.716797 L 17.496094 24.791016 L 17.570312 24.865234 L 17.644531 24.939453 L 17.720703 25.015625 L 17.794922 25.089844 L 17.943359 25.238281 L 18.017578 25.3125 L 18.09375 25.388672 L 18.167969 25.462891 L 18.316406 25.611328 L 18.390625 25.6875 L 18.466797 25.761719 L 18.541016 25.835938 L 18.615234 25.910156 L 18.689453 25.984375 L 18.765625 26.060547 L 18.839844 26.134766 L 18.914062 26.208984 L 18.988281 26.283203 L 19.0625 26.357422 L 19.138672 26.433594 L 19.212891 26.507812 L 19.287109 26.582031 L 19.361328 26.65625 L 19.435547 26.730469 L 19.511719 26.806641 L 19.585938 26.880859 L 19.660156 26.955078 L 19.734375 27.029297 L 19.808594 27.103516 L 19.884766 27.179688 L 19.958984 27.253906 L 20 27.294922 L 20.107422 27.402344 L 20.181641 27.478516 L 20.257812 27.552734 L 20.332031 27.626953 L 20.40625 27.701172 L 20.480469 27.775391 L 20.556641 27.851562 L 20.630859 27.925781 L 20.705078 28 L 23.705078 25 L 23.765625 25.060547 L 23.839844 25.134766 L 23.914062 25.208984 L 23.988281 25.283203 L 24.0625 25.357422 L 24.138672 25.433594 L 24.212891 25.507812 L 24.287109 25.582031 L 24.361328 25.65625 L 24.435547 25.730469 L 24.511719 25.806641 L 24.585938 25.880859 L 24.660156 25.955078 L 24.734375 26.029297 L 24.808594 26.103516 L 24.884766 26.179688 L 24.958984 26.253906 L 25.107422 26.402344 L 25.181641 26.478516 L 25.183594 26.478516 L 25.257812 26.552734 L 25.332031 26.626953 L 25.40625 26.701172 L 25.480469 26.775391 L 25.556641 26.851562 L 25.630859 26.925781 L 25.705078 27 L 28.855469 23.855469 L 28.880859 23.880859 L 28.955078 23.955078 L 29.179688 24.179688 L 29.253906 24.253906 L 29.328125 24.328125 L 29.402344 24.402344 L 29.478516 24.478516 L 29.552734 24.552734 L 29.626953 24.626953 L 29.701172 24.701172 L 29.775391 24.775391 L 29.851562 24.851562 L 29.925781 24.925781 L 30 25 L 30 22 L 29.925781 22 L 29.925781 21.925781 L 29.851562 21.925781 L 29.851562 21.851562 L 29.775391 21.851562 L 29.775391 21.775391 L 29.701172 21.775391 L 29.701172 21.701172 L 29.626953 21.701172 L 29.626953 21.626953 L 29.552734 21.626953 L 29.552734 21.552734 L 29.478516 21.552734 L 29.478516 21.478516 L 29.402344 21.478516 L 29.402344 21.402344 L 29.328125 21.402344 L 29.328125 21.328125 L 29.253906 21.328125 L 29.253906 21.253906 L 29.179688 21.253906 L 29.179688 21.179688 L 29.105469 21.179688 L 29.105469 21.103516 L 29.029297 21.103516 L 29.029297 21.029297 L 28.955078 21.029297 L 28.955078 20.955078 L 28.880859 20.955078 L 28.880859 20.880859 L 28.806641 20.880859 L 28.806641 20.806641 L 28.730469 20.806641 L 28.730469 20.730469 L 28.65625 20.730469 L 28.65625 20.65625 L 28.582031 20.65625 L 28.582031 20.582031 L 28.507812 20.582031 L 28.507812 20.507812 L 28.433594 20.507812 L 28.433594 20.433594 L 28.357422 20.433594 L 28.357422 20.357422 L 28.283203 20.357422 L 28.283203 20.283203 L 28.208984 20.283203 L 28.208984 20.208984 L 28.134766 20.208984 L 28.134766 20.134766 L 28.060547 20.134766 L 28.060547 20.060547 L 27.984375 20.060547 L 27.984375 19.984375 L 27.910156 19.984375 L 27.910156 19.910156 L 27.835938 19.910156 L 27.835938 19.835938 L 27.761719 19.835938 L 27.761719 19.761719 L 27.6875 19.761719 L 27.6875 19.6875 L 27.611328 19.6875 L 27.611328 19.611328 L 27.537109 19.611328 L 27.537109 19.537109 L 27.462891 19.537109 L 27.462891 19.462891 L 27.388672 19.462891 L 27.388672 19.388672 L 27.3125 19.388672 L 27.3125 19.3125 L 27.238281 19.3125 L 27.238281 19.238281 L 27.164062 19.238281 L 27.164062 19.164062 L 27.089844 19.164062 L 27.089844 19.089844 L 27.015625 19.089844 L 27.015625 19.015625 L 26.939453 19.015625 L 26.939453 18.939453 L 26.865234 18.939453 L 26.865234 18.865234 L 26.791016 18.865234 L 26.791016 18.791016 L 26.716797 18.791016 L 26.716797 18.716797 L 26.642578 18.716797 L 26.642578 18.642578 L 26.566406 18.642578 L 26.566406 18.566406 L 26.492188 18.566406 L 26.492188 18.492188 L 26.417969 18.492188 L 26.417969 18.417969 L 26.34375 18.417969 L 26.34375 18.34375 L 26.269531 18.34375 L 26.269531 18.269531 L 26.193359 18.269531 L 26.193359 18.193359 L 26.119141 18.193359 L 26.119141 18.119141 L 26.044922 18.119141 L 26.044922 18.044922 L 25.970703 18.044922 L 25.970703 17.970703 L 25.894531 17.970703 L 25.894531 17.896484 L 25.820312 17.896484 L 25.820312 17.820312 L 25.746094 17.820312 L 25.746094 17.746094 L 25.671875 17.746094 L 25.671875 17.671875 L 25.597656 17.671875 L 25.597656 17.597656 L 25.521484 17.597656 L 25.521484 17.521484 L 25.447266 17.521484 L 25.447266 17.447266 L 25.373047 17.447266 L 25.373047 17.373047 L 25.298828 17.373047 L 25.298828 17.298828 L 25.224609 17.298828 L 25.224609 17.224609 L 25.148438 17.224609 L 25.148438 17.148438 L 25.074219 17.148438 L 25.074219 17.074219 L 25 17.074219 L 25 17 L 24.925781 17 L 24.925781 16.925781 L 24.851562 16.925781 L 24.851562 16.851562 L 24.775391 16.851562 L 24.775391 16.775391 L 24.701172 16.775391 L 24.701172 16.701172 L 24.626953 16.701172 L 24.626953 16.626953 L 24.552734 16.626953 L 24.552734 16.552734 L 24.478516 16.552734 L 24.478516 16.478516 L 24.402344 16.478516 L 24.402344 16.402344 L 24.328125 16.402344 L 24.328125 16.328125 L 24.253906 16.328125 L 24.253906 16.253906 L 24.179688 16.253906 L 24.179688 16.179688 L 24.105469 16.179688 L 24.105469 16.103516 L 24.029297 16.103516 L 24.029297 16.029297 L 23.955078 16.029297 L 23.955078 15.955078 L 23.880859 15.955078 L 23.880859 15.880859 L 23.806641 15.880859 L 23.806641 15.806641 L 23.730469 15.806641 L 23.730469 15.730469 L 23.65625 15.730469 L 23.65625 15.65625 L 23.582031 15.65625 L 23.582031 15.582031 L 23.507812 15.582031 L 23.507812 15.507812 L 23.433594 15.507812 L 23.433594 15.433594 L 23.357422 15.433594 L 23.357422 15.357422 L 23.283203 15.357422 L 23.283203 15.283203 L 23.208984 15.283203 L 23.208984 15.208984 L 23.134766 15.208984 L 23.134766 15.134766 L 23.060547 15.134766 L 23.060547 15.060547 L 22.984375 15.060547 L 22.984375 14.984375 L 22.910156 14.984375 L 22.910156 14.910156 L 22.835938 14.910156 L 22.835938 14.835938 L 22.761719 14.835938 L 22.761719 14.761719 L 22.6875 14.761719 L 22.6875 14.6875 L 22.611328 14.6875 L 22.611328 14.611328 L 22.537109 14.611328 L 22.537109 14.537109 L 22.462891 14.537109 L 22.462891 14.462891 L 22.388672 14.462891 L 22.388672 14.388672 L 22.3125 14.388672 L 22.3125 14.3125 L 22.238281 14.3125 L 22.238281 14.238281 L 22.164062 14.238281 L 22.164062 14.164062 L 22.089844 14.164062 L 22.089844 14.089844 L 22.015625 14.089844 L 22.015625 14.015625 L 21.939453 14.015625 L 21.939453 13.939453 L 21.865234 13.939453 L 21.865234 13.865234 L 21.791016 13.865234 L 21.791016 13.791016 L 21.716797 13.791016 L 21.716797 13.716797 L 21.642578 13.716797 L 21.642578 13.642578 L 21.566406 13.642578 L 21.566406 13.566406 L 21.492188 13.566406 L 21.492188 13.492188 L 21.417969 13.492188 L 21.417969 13.417969 L 21.34375 13.417969 L 21.34375 13.34375 L 21.269531 13.34375 L 21.269531 13.269531 L 21.193359 13.269531 L 21.193359 13.193359 L 21.119141 13.193359 L 21.119141 13.119141 L 21.044922 13.119141 L 21.044922 13.044922 L 20.970703 13.044922 L 20.970703 12.970703 L 20.894531 12.970703 L 20.894531 12.896484 L 20.820312 12.896484 L 20.820312 12.820312 L 20.746094 12.820312 L 20.746094 12.746094 L 20.671875 12.746094 L 20.671875 12.671875 L 20.597656 12.671875 L 20.597656 12.597656 L 20.521484 12.597656 L 20.521484 12.521484 L 20.447266 12.521484 L 20.447266 12.447266 L 20.373047 12.447266 L 20.373047 12.373047 L 20.298828 12.373047 L 20.298828 12.298828 L 20.224609 12.298828 L 20.224609 12.224609 L 20.148438 12.224609 L 20.148438 12.148438 L 20.074219 12.148438 L 20.074219 12.074219 L 20 12.074219 L 20 12 L 19.925781 12 L 19.925781 11.925781 L 19.851562 11.925781 L 19.851562 11.851562 L 19.775391 11.851562 L 19.775391 11.775391 L 19.701172 11.775391 L 19.701172 11.701172 L 19.626953 11.701172 L 19.626953 11.626953 L 19.552734 11.626953 L 19.552734 11.552734 L 19.478516 11.552734 L 19.478516 11.478516 L 19.402344 11.478516 L 19.402344 11.402344 L 19.328125 11.402344 L 19.328125 11.328125 L 19.253906 11.328125 L 19.253906 11.253906 L 19.179688 11.253906 L 19.179688 11.179688 L 19.105469 11.179688 L 19.105469 11.103516 L 19.029297 11.103516 L 19.029297 11.029297 L 18.955078 11.029297 L 18.955078 10.955078 L 18.880859 10.955078 L 18.880859 10.880859 L 18.806641 10.880859 L 18.806641 10.806641 L 18.730469 10.806641 L 18.730469 10.730469 L 18.65625 10.730469 L 18.65625 10.65625 L 18.582031 10.65625 L 18.582031 10.582031 L 18.507812 10.582031 L 18.507812 10.507812 L 18.433594 10.507812 L 18.433594 10.433594 L 18.357422 10.433594 L 18.357422 10.357422 L 18.283203 10.357422 L 18.283203 10.283203 L 18.208984 10.283203 L 18.208984 10.208984 L 18.134766 10.208984 L 18.134766 10.134766 L 18.060547 10.134766 L 18.060547 10.060547 L 17.984375 10.060547 L 17.984375 9.984375 L 17.910156 9.984375 L 17.910156 9.9101562 L 17.835938 9.9101562 L 17.835938 9.8359375 L 17.761719 9.8359375 L 17.761719 9.7617188 L 17.6875 9.7617188 L 17.6875 9.6875 L 17.611328 9.6875 L 17.611328 9.6113281 L 17.537109 9.6113281 L 17.537109 9.5371094 L 17.462891 9.5371094 L 17.462891 9.4628906 L 17.388672 9.4628906 L 17.388672 9.3886719 L 17.3125 9.3886719 L 17.3125 9.3125 L 17.238281 9.3125 L 17.238281 9.2382812 L 17.164062 9.2382812 L 17.164062 9.1640625 L 17.089844 9.1640625 L 17.089844 9.0898438 L 17.015625 9.0898438 L 17.015625 9.015625 L 16.939453 9.015625 L 16.939453 8.9394531 L 16.865234 8.9394531 L 16.865234 8.8652344 L 16.791016 8.8652344 L 16.791016 8.7910156 L 16.716797 8.7910156 L 16.716797 8.7167969 L 16.642578 8.7167969 L 16.642578 8.6425781 L 16.566406 8.6425781 L 16.566406 8.5664062 L 16.492188 8.5664062 L 16.492188 8.4921875 L 16.417969 8.4921875 L 16.417969 8.4179688 L 16.34375 8.4179688 L 16.34375 8.34375 L 16.269531 8.34375 L 16.269531 8.2695312 L 16.193359 8.2695312 L 16.193359 8.1933594 L 16.119141 8.1933594 L 16.119141 8.1191406 L 16.044922 8.1191406 L 16.044922 8.0449219 L 15.970703 8.0449219 L 15.970703 7.9707031 L 15.894531 7.9707031 L 15.894531 7.8964844 L 15.820312 7.8964844 L 15.820312 7.8203125 L 15.746094 7.8203125 L 15.746094 7.7460938 L 15.671875 7.7460938 L 15.671875 7.671875 L 15.597656 7.671875 L 15.597656 7.5976562 L 15.521484 7.5976562 L 15.521484 7.5214844 L 15.447266 7.5214844 L 15.447266 7.4472656 L 15.373047 7.4472656 L 15.373047 7.3730469 L 15.298828 7.3730469 L 15.298828 7.2988281 L 15.224609 7.2988281 L 15.224609 7.2246094 L 15.148438 7.2246094 L 15.148438 7.1484375 L 15.074219 7.1484375 L 15.074219 7.0742188 L 15 7.0742188 L 15 7 L 12 7 z "
       transform="translate(-1058.1428,861.93365)"
       id="path8415"
       clip-path="url(#clipPath9303)" />
    <path
       inkscape:connector-curvature="0"
       d="m -1046.1428,868.93365 1.145,1.145 -2.44,2.44 -2,-2 -3.705,3.71 0.705,0.705 3,-3 2,2 3.15,-3.145 1.145,1.145 0,-3 -3,0 z"
       id="path8338"
       style="fill:#d4e157" />
  </g>
  <g
     inkscape:label="Icon"
     id="layer2"
     inkscape:groupmode="layer"
     style="display:inline">
    <path
       style="fill:none"
       inkscape:connector-curvature="0"
       id="path4"
       d="m 3.9999777,4.0333382 12.0000003,0 0,11.9333328 -12.0000003,0 z" />
    <path
       d="m 18.999978,19.033339 12,0 0,11.933333 -12,0 z"
       id="path9754"
       inkscape:connector-curvature="0"
       style="fill:none" />
  </g>
</svg>
