<?xml version="1.0" encoding="UTF-8" standalone="no"?>
<!-- Created with Inkscape (http://www.inkscape.org/) -->

<svg
   xmlns:dc="http://purl.org/dc/elements/1.1/"
   xmlns:cc="http://creativecommons.org/ns#"
   xmlns:rdf="http://www.w3.org/1999/02/22-rdf-syntax-ns#"
   xmlns:svg="http://www.w3.org/2000/svg"
   xmlns="http://www.w3.org/2000/svg"
   xmlns:xlink="http://www.w3.org/1999/xlink"
   xmlns:sodipodi="http://sodipodi.sourceforge.net/DTD/sodipodi-0.dtd"
   xmlns:inkscape="http://www.inkscape.org/namespaces/inkscape"
   inkscape:export-ydpi="648"
   inkscape:export-xdpi="648"
   inkscape:export-filename="/home/juergen/Projekte/Android/Android_Studio/Baumann_Theme/theme/src/main/assets/icons/res/drawable-xxhdpi/a103.png"
   sodipodi:docname="BoomBeach.svg"
   inkscape:version="0.91 r13725"
   version="1.1"
   id="svg2"
   viewBox="0 0 20 20"
   height="5.6444445mm"
   width="5.6444445mm">
  <sodipodi:namedview
     inkscape:snap-page="false"
     inkscape:snap-to-guides="true"
     inkscape:snap-grids="true"
     inkscape:window-maximized="1"
     inkscape:window-y="24"
     inkscape:window-x="0"
     inkscape:window-height="744"
     inkscape:window-width="1366"
     inkscape:guide-bbox="true"
     showguides="true"
     fit-margin-bottom="0"
     fit-margin-right="0"
     fit-margin-left="0"
     fit-margin-top="0"
     showgrid="false"
     inkscape:current-layer="layer1"
     inkscape:document-units="px"
     inkscape:cy="3.731098"
     inkscape:cx="8.4055464"
     inkscape:zoom="15.839192"
     inkscape:pageshadow="2"
     inkscape:pageopacity="0.0"
     borderopacity="1.0"
     bordercolor="#666666"
     pagecolor="#ffffff"
     id="base">
    <inkscape:grid
       type="xygrid"
       id="grid4138" />
    <sodipodi:guide
       position="10,18"
       orientation="0,1"
       id="guide4140" />
    <sodipodi:guide
       position="10,2"
       orientation="0,1"
       id="guide4142" />
    <sodipodi:guide
       position="2,10"
       orientation="1,0"
       id="guide4144" />
    <sodipodi:guide
       position="0,0"
       orientation="0,20"
       id="guide4146" />
    <sodipodi:guide
       position="20,0"
       orientation="-20,0"
       id="guide4148" />
    <sodipodi:guide
       position="20,20"
       orientation="0,-20"
       id="guide4150" />
    <sodipodi:guide
       position="0,20"
       orientation="20,0"
       id="guide4152" />
    <sodipodi:guide
       position="18,10"
       orientation="1,0"
       id="guide4154" />
    <sodipodi:guide
       position="10,10"
       orientation="-0.70710678,0.70710678"
       id="guide4156" />
    <sodipodi:guide
       position="4,10"
       orientation="1,0"
       id="guide4160" />
    <sodipodi:guide
       position="16,10"
       orientation="1,0"
       id="guide4162" />
    <sodipodi:guide
       position="10,16"
       orientation="0,1"
       id="guide4164" />
    <sodipodi:guide
       position="10,4"
       orientation="0,1"
       id="guide4166" />
    <sodipodi:guide
       position="10,15"
       orientation="0,1"
       id="guide4168" />
    <sodipodi:guide
       position="10,5"
       orientation="0,1"
       id="guide4170" />
    <sodipodi:guide
       position="5,10"
       orientation="1,0"
       id="guide4172" />
    <sodipodi:guide
       position="15,10"
       orientation="1,0"
       id="guide4174" />
  </sodipodi:namedview>
  <defs
     id="defs4">
    <linearGradient
       inkscape:collect="always"
       id="linearGradient10257">
      <stop
         style="stop-color:#000000;stop-opacity:0.2"
         offset="0"
         id="stop10259" />
      <stop
         style="stop-color:#000000;stop-opacity:0;"
         offset="1"
         id="stop10261" />
    </linearGradient>
    <clipPath
       id="clipPath12478"
       clipPathUnits="userSpaceOnUse">
      <circle
         r="10"
         cy="10.000005"
         cx="9.9999781"
         id="circle12480"
         style="opacity:1;fill:#2196f3;fill-opacity:1;stroke:none;stroke-width:0.05069799;stroke-miterlimit:4;stroke-dasharray:none;stroke-opacity:1" />
    </clipPath>
    <clipPath
       clipPathUnits="userSpaceOnUse"
       id="clipPath5790">
      <circle
         r="10"
         cy="10.000005"
         cx="9.9999781"
         id="circle5792"
         style="opacity:1;fill:#2196f3;fill-opacity:1;stroke:none;stroke-width:0.05069799;stroke-miterlimit:4;stroke-dasharray:none;stroke-opacity:1"
         inkscape:export-filename="/home/juergen/path4136.png"
         inkscape:export-xdpi="648"
         inkscape:export-ydpi="648" />
    </clipPath>
    <clipPath
       id="clipPath5055"
       clipPathUnits="userSpaceOnUse">
      <circle
         r="10"
         cy="10.000005"
         cx="9.9999781"
         id="circle5057"
         style="opacity:1;fill:#2196f3;fill-opacity:1;stroke:none;stroke-width:0.05069799;stroke-miterlimit:4;stroke-dasharray:none;stroke-opacity:1"
         inkscape:export-filename="/home/juergen/path4136.png"
         inkscape:export-xdpi="648"
         inkscape:export-ydpi="648" />
    </clipPath>
    <clipPath
       clipPathUnits="userSpaceOnUse"
       id="clipPath5119">
      <circle
         r="10"
         cy="10.000005"
         cx="9.9999781"
         id="circle5121"
         style="opacity:1;fill:#2196f3;fill-opacity:1;stroke:none;stroke-width:0.05069799;stroke-miterlimit:4;stroke-dasharray:none;stroke-opacity:1"
         inkscape:export-filename="/home/juergen/Schreibtisch/path4136.png"
         inkscape:export-xdpi="648"
         inkscape:export-ydpi="648" />
    </clipPath>
    <clipPath
       id="clipPath5194"
       clipPathUnits="userSpaceOnUse">
      <circle
         r="10"
         cy="10.000005"
         cx="9.9999781"
         id="circle5196"
         style="opacity:1;fill:#cddc39;fill-opacity:1;stroke:none;stroke-width:0.05069799;stroke-miterlimit:4;stroke-dasharray:none;stroke-opacity:1"
         inkscape:export-filename="/home/juergen/Schreibtisch/path4136.png"
         inkscape:export-xdpi="648"
         inkscape:export-ydpi="648" />
    </clipPath>
    <clipPath
       clipPathUnits="userSpaceOnUse"
       id="clipPath6175">
      <circle
         r="10"
         cy="10.000005"
         cx="9.9999781"
         id="circle6177"
         style="opacity:1;fill:#f44336;fill-opacity:1;stroke:none;stroke-width:0.05069799;stroke-miterlimit:4;stroke-dasharray:none;stroke-opacity:1"
         inkscape:export-filename="/home/juergen/Schreibtisch/path4136.png"
         inkscape:export-xdpi="648"
         inkscape:export-ydpi="648" />
    </clipPath>
    <clipPath
       id="clipPath7176"
       clipPathUnits="userSpaceOnUse">
      <circle
         r="10"
         cy="10.000005"
         cx="9.9999781"
         id="circle7178"
         style="opacity:1;fill:#9c27b0;fill-opacity:1;stroke:none;stroke-width:0.05069799;stroke-miterlimit:4;stroke-dasharray:none;stroke-opacity:1"
         inkscape:export-filename="/home/juergen/Schreibtisch/path4136.png"
         inkscape:export-xdpi="648"
         inkscape:export-ydpi="648" />
    </clipPath>
    <clipPath
       clipPathUnits="userSpaceOnUse"
       id="clipPath8165">
      <circle
         r="10"
         cy="10.000005"
         cx="9.9999781"
         id="circle8167"
         style="opacity:1;fill:#ffc107;fill-opacity:1;stroke:none;stroke-width:0.05069799;stroke-miterlimit:4;stroke-dasharray:none;stroke-opacity:1"
         inkscape:export-filename="/home/juergen/Schreibtisch/path4136.png"
         inkscape:export-xdpi="648"
         inkscape:export-ydpi="648" />
    </clipPath>
    <clipPath
       id="clipPath9162"
       clipPathUnits="userSpaceOnUse">
      <circle
         r="10"
         cy="10.000005"
         cx="9.9999781"
         id="circle9164"
         style="opacity:1;fill:#ff9800;fill-opacity:1;stroke:none;stroke-width:0.05069799;stroke-miterlimit:4;stroke-dasharray:none;stroke-opacity:1"
         inkscape:export-filename="/home/juergen/Schreibtisch/path4136.png"
         inkscape:export-xdpi="648"
         inkscape:export-ydpi="648" />
    </clipPath>
    <clipPath
       clipPathUnits="userSpaceOnUse"
       id="clipPath5147">
      <circle
         r="10"
         cy="10.000005"
         cx="9.9999781"
         id="circle5149"
         style="opacity:1;fill:#ff9800;fill-opacity:1;stroke:none;stroke-width:0.05069799;stroke-miterlimit:4;stroke-dasharray:none;stroke-opacity:1"
         inkscape:export-filename="/home/juergen/Schreibtisch/path4136.png"
         inkscape:export-xdpi="648"
         inkscape:export-ydpi="648" />
    </clipPath>
    <clipPath
       id="clipPath6144"
       clipPathUnits="userSpaceOnUse">
      <circle
         r="10"
         cy="10.000005"
         cx="9.9999781"
         id="circle6146"
         style="opacity:1;fill:#e91e63;fill-opacity:1;stroke:none;stroke-width:0.05069799;stroke-miterlimit:4;stroke-dasharray:none;stroke-opacity:1"
         inkscape:export-filename="/home/juergen/Schreibtisch/path4136.png"
         inkscape:export-xdpi="648"
         inkscape:export-ydpi="648" />
    </clipPath>
    <clipPath
       clipPathUnits="userSpaceOnUse"
       id="clipPath7143">
      <circle
         r="10"
         cy="10.000005"
         cx="9.9999781"
         id="circle7145"
         style="opacity:1;fill:#ffeb3b;fill-opacity:1;stroke:none;stroke-width:0.05069799;stroke-miterlimit:4;stroke-dasharray:none;stroke-opacity:1"
         inkscape:export-filename="/home/juergen/Schreibtisch/path4136.png"
         inkscape:export-xdpi="648"
         inkscape:export-ydpi="648" />
    </clipPath>
    <clipPath
       id="clipPath8148"
       clipPathUnits="userSpaceOnUse">
      <circle
         r="10"
         cy="10.000005"
         cx="9.9999781"
         id="circle8150"
         style="opacity:1;fill:#9c27b0;fill-opacity:1;stroke:none;stroke-width:0.05069799;stroke-miterlimit:4;stroke-dasharray:none;stroke-opacity:1"
         inkscape:export-filename="/home/juergen/Schreibtisch/path4136.png"
         inkscape:export-xdpi="648"
         inkscape:export-ydpi="648" />
    </clipPath>
    <clipPath
       clipPathUnits="userSpaceOnUse"
       id="clipPath5171">
      <circle
         r="10"
         cy="10.000005"
         cx="9.9999781"
         id="circle5173"
         style="opacity:1;fill:#f44336;fill-opacity:1;stroke:none;stroke-width:0.05069799;stroke-miterlimit:4;stroke-dasharray:none;stroke-opacity:1"
         inkscape:export-filename="/home/juergen/Schreibtisch/path4136.png"
         inkscape:export-xdpi="648"
         inkscape:export-ydpi="648" />
    </clipPath>
    <clipPath
       id="clipPath6181"
       clipPathUnits="userSpaceOnUse">
      <circle
         r="10"
         cy="10.000005"
         cx="9.9999781"
         id="circle6183"
         style="opacity:1;fill:#2196f3;fill-opacity:1;stroke:none;stroke-width:0.05069799;stroke-miterlimit:4;stroke-dasharray:none;stroke-opacity:1"
         inkscape:export-filename="/home/juergen/Schreibtisch/path4136.png"
         inkscape:export-xdpi="648"
         inkscape:export-ydpi="648" />
    </clipPath>
    <clipPath
       clipPathUnits="userSpaceOnUse"
       id="clipPath7195">
      <circle
         r="10"
         cy="10.000005"
         cx="9.9999781"
         id="circle7197"
         style="opacity:1;fill:#795548;fill-opacity:1;stroke:none;stroke-width:0.05069799;stroke-miterlimit:4;stroke-dasharray:none;stroke-opacity:1"
         inkscape:export-filename="/home/juergen/Schreibtisch/path4136.png"
         inkscape:export-xdpi="648"
         inkscape:export-ydpi="648" />
    </clipPath>
    <clipPath
       id="clipPath8213"
       clipPathUnits="userSpaceOnUse">
      <circle
         r="10"
         cy="10.000005"
         cx="9.9999781"
         id="circle8215"
         style="opacity:1;fill:#f44336;fill-opacity:1;stroke:none;stroke-width:0.05069799;stroke-miterlimit:4;stroke-dasharray:none;stroke-opacity:1"
         inkscape:export-filename="/home/juergen/Schreibtisch/path4136.png"
         inkscape:export-xdpi="648"
         inkscape:export-ydpi="648" />
    </clipPath>
    <clipPath
       clipPathUnits="userSpaceOnUse"
       id="clipPath9235">
      <circle
         r="10"
         cy="10.000005"
         cx="9.9999781"
         id="circle9237"
         style="opacity:1;fill:#f44336;fill-opacity:1;stroke:none;stroke-width:0.05069799;stroke-miterlimit:4;stroke-dasharray:none;stroke-opacity:1"
         inkscape:export-filename="/home/juergen/Schreibtisch/path4136.png"
         inkscape:export-xdpi="648"
         inkscape:export-ydpi="648" />
    </clipPath>
    <clipPath
       id="clipPath5965"
       clipPathUnits="userSpaceOnUse">
      <circle
         r="10"
         cy="10.000005"
         cx="9.9999781"
         id="circle5967"
         style="opacity:1;fill:#009688;fill-opacity:1;stroke:none;stroke-width:0.05069799;stroke-miterlimit:4;stroke-dasharray:none;stroke-opacity:1"
         inkscape:export-filename="/home/juergen/Schreibtisch/path4136.png"
         inkscape:export-xdpi="648"
         inkscape:export-ydpi="648" />
    </clipPath>
    <clipPath
       clipPathUnits="userSpaceOnUse"
       id="clipPath7910">
      <circle
         r="10"
         cy="10.000005"
         cx="9.9999781"
         id="circle7912"
         style="opacity:1;fill:#ffeb3b;fill-opacity:1;stroke:none;stroke-width:0.05069799;stroke-miterlimit:4;stroke-dasharray:none;stroke-opacity:1"
         inkscape:export-filename="/home/juergen/Schreibtisch/path4136.png"
         inkscape:export-xdpi="648"
         inkscape:export-ydpi="648" />
    </clipPath>
    <clipPath
       id="clipPath8990"
       clipPathUnits="userSpaceOnUse">
      <circle
         r="10"
         cy="10.000005"
         cx="9.9999781"
         id="circle8992"
         style="opacity:1;fill:#ffc107;fill-opacity:1;stroke:none;stroke-width:0.05069799;stroke-miterlimit:4;stroke-dasharray:none;stroke-opacity:1"
         inkscape:export-filename="/home/juergen/Schreibtisch/path4136.png"
         inkscape:export-xdpi="648"
         inkscape:export-ydpi="648" />
    </clipPath>
    <linearGradient
       inkscape:collect="always"
       xlink:href="#linearGradient10257"
       id="linearGradient10263"
       x1="10"
       y1="10"
       x2="20"
       y2="20"
       gradientUnits="userSpaceOnUse" />
    <clipPath
       clipPathUnits="userSpaceOnUse"
       id="clipPath10267">
      <circle
         r="10"
         cy="10.000005"
         cx="9.9999781"
         id="circle10269"
         style="opacity:1;fill:#80cbc4;fill-opacity:1;stroke:none;stroke-width:0.05069799;stroke-miterlimit:4;stroke-dasharray:none;stroke-opacity:1"
         inkscape:export-filename="/home/juergen/Schreibtisch/path4136.png"
         inkscape:export-xdpi="648"
         inkscape:export-ydpi="648" />
    </clipPath>
  </defs>
  <metadata
     id="metadata7">
    <rdf:RDF>
      <cc:Work
         rdf:about="">
        <dc:format>image/svg+xml</dc:format>
        <dc:type
           rdf:resource="http://purl.org/dc/dcmitype/StillImage" />
        <dc:title></dc:title>
      </cc:Work>
    </rdf:RDF>
  </metadata>
  <g
     inkscape:label="Hintergrund"
     inkscape:groupmode="layer"
     id="layer1"
     transform="translate(1058.1428,-861.93365)">
    <circle
       inkscape:export-ydpi="648"
       inkscape:export-xdpi="648"
       inkscape:export-filename="/home/juergen/Schreibtisch/path4136.png"
       style="opacity:1;fill:#3f51b5;fill-opacity:1;stroke:none;stroke-width:0.05069799;stroke-miterlimit:4;stroke-dasharray:none;stroke-opacity:1"
       id="path4136"
       cx="-1048.1428"
       cy="871.93365"
       r="10" />
    <path
       style="fill:url(#linearGradient10263);fill-opacity:1"
       d="M 12.421875 7.421875 C 10.917375 7.421875 9.6953125 8.6438875 9.6953125 10.148438 C 9.6953125 10.208675 9.7090311 10.264945 9.7128906 10.324219 C 9.6840254 10.294781 9.6499394 10.271567 9.6191406 10.244141 C 9.5761096 10.196358 9.5321989 10.150408 9.484375 10.107422 C 9.4369812 10.054294 9.3872484 10.004276 9.3339844 9.9570312 C 9.29125 9.9096561 9.24667 9.864917 9.1992188 9.8222656 C 9.1531119 9.7704445 9.1044258 9.7220302 9.0527344 9.6757812 C 9.0068238 9.6243365 8.9576741 9.5771831 8.90625 9.53125 C 8.8603151 9.4798274 8.813165 9.4306744 8.7617188 9.3847656 C 8.715533 9.3330125 8.6669984 9.2844549 8.6152344 9.2382812 C 8.5677551 9.1850572 8.518214 9.135209 8.4648438 9.0878906 C 8.4188527 9.0365962 8.3698447 8.989141 8.3183594 8.9433594 C 7.9854323 8.5703007 7.5064099 8.3300781 6.9667969 8.3300781 C 5.9621969 8.3300781 5.1484375 9.1438875 5.1484375 10.148438 C 5.1484375 10.68974 5.3905571 11.170903 5.765625 11.503906 C 5.8104305 11.553988 5.8562062 11.601638 5.90625 11.646484 C 5.9540198 11.70034 6.0048112 11.750978 6.0585938 11.798828 C 6.1042322 11.849836 6.1520569 11.897786 6.203125 11.943359 C 6.2490335 11.994804 6.2981868 12.041957 6.3496094 12.087891 C 6.3955422 12.139313 6.4426959 12.188466 6.4941406 12.234375 C 6.5395031 12.285075 6.5879438 12.331622 6.6386719 12.376953 C 6.6833912 12.426997 6.7293498 12.474706 6.7792969 12.519531 C 6.8242581 12.569915 6.8716199 12.617007 6.921875 12.662109 C 6.9675456 12.713288 7.0152773 12.760916 7.0664062 12.806641 C 7.1108965 12.856215 7.1573982 12.902839 7.2070312 12.947266 C 7.2511868 12.996467 7.2964802 13.043758 7.3457031 13.087891 C 7.3898349 13.137114 7.4371269 13.182406 7.4863281 13.226562 C 7.5302072 13.275456 7.5761154 13.321345 7.625 13.365234 C 7.6695016 13.414802 7.715981 13.461441 7.765625 13.505859 C 7.8084381 13.553345 7.8528396 13.597882 7.9003906 13.640625 C 7.9437472 13.68886 7.9888746 13.733987 8.0371094 13.777344 C 8.0792369 13.824211 8.1231833 13.867888 8.1699219 13.910156 C 8.2131234 13.958422 8.2585648 14.003467 8.3066406 14.046875 C 8.350529 14.09576 8.3964194 14.141667 8.4453125 14.185547 C 8.4857302 14.23024 8.5276341 14.272015 8.5722656 14.3125 C 8.6160793 14.361449 8.6621134 14.407221 8.7109375 14.451172 C 8.7513552 14.495865 8.7932591 14.53764 8.8378906 14.578125 C 8.8810896 14.626242 8.9265584 14.671573 8.9746094 14.714844 C 9.0156302 14.760139 9.0581661 14.802788 9.1035156 14.84375 C 9.1447539 14.889406 9.1867926 14.933341 9.2324219 14.974609 C 9.2739671 15.020546 9.3172894 15.063983 9.3632812 15.105469 C 9.4036635 15.149984 9.4456647 15.192098 9.4902344 15.232422 C 9.5305579 15.276992 9.5726721 15.318992 9.6171875 15.359375 C 9.657511 15.403945 9.6996252 15.445945 9.7441406 15.486328 C 9.7844642 15.530898 9.8265783 15.572899 9.8710938 15.613281 C 9.911476 15.657797 9.9534772 15.69991 9.9980469 15.740234 C 10.037262 15.783333 10.077943 15.824123 10.121094 15.863281 C 10.160591 15.906806 10.202589 15.946809 10.246094 15.986328 C 10.285613 16.029833 10.325616 16.07183 10.369141 16.111328 C 10.408356 16.154427 10.449036 16.195216 10.492188 16.234375 C 10.530176 16.276111 10.569643 16.315471 10.611328 16.353516 C 10.651103 16.397347 10.69249 16.438748 10.736328 16.478516 C 10.772228 16.517789 10.810423 16.553851 10.849609 16.589844 C 10.889549 16.634062 10.930546 16.676689 10.974609 16.716797 C 11.012316 16.758112 11.050463 16.798252 11.091797 16.835938 C 11.128864 16.876594 11.168404 16.914023 11.208984 16.951172 C 11.246355 16.992229 11.285222 17.030872 11.326172 17.068359 C 11.363821 17.109723 11.402079 17.149762 11.443359 17.1875 C 11.481715 17.229456 11.522355 17.268438 11.564453 17.306641 C 11.598961 17.344163 11.634353 17.379554 11.671875 17.414062 C 11.710474 17.456484 11.750554 17.496549 11.792969 17.535156 C 11.828439 17.573725 11.865645 17.60915 11.904297 17.644531 C 11.939677 17.683183 11.975104 17.720389 12.013672 17.755859 C 12.050482 17.796193 12.088635 17.834216 12.128906 17.871094 C 12.164596 17.909963 12.201317 17.946784 12.240234 17.982422 C 12.275585 18.020922 12.311091 18.058419 12.349609 18.09375 C 12.385016 18.132351 12.422348 18.167705 12.460938 18.203125 C 12.496635 18.241991 12.53334 18.27882 12.572266 18.314453 C 12.60496 18.349896 12.638435 18.383268 12.673828 18.416016 C 12.709405 18.454985 12.746344 18.491598 12.785156 18.527344 C 12.819612 18.564857 12.855112 18.600259 12.892578 18.634766 C 12.927984 18.67321 12.963383 18.710822 13.001953 18.746094 C 13.033764 18.780418 13.067212 18.811967 13.101562 18.84375 C 13.137252 18.882619 13.173973 18.91944 13.212891 18.955078 C 13.243408 18.987962 13.273787 19.020231 13.306641 19.050781 C 13.341292 19.088674 13.3783 19.123362 13.416016 19.158203 C 13.450236 19.195247 13.484319 19.231535 13.521484 19.265625 C 13.553005 19.299533 13.585137 19.331862 13.619141 19.363281 C 13.650276 19.396978 13.683216 19.427725 13.716797 19.458984 C 13.750852 19.496063 13.785268 19.532265 13.822266 19.566406 C 13.853737 19.600315 13.88597 19.632637 13.919922 19.664062 C 13.951627 19.698318 13.983345 19.731943 14.017578 19.763672 C 14.049307 19.797906 14.082932 19.829622 14.117188 19.861328 C 14.148318 19.89487 14.179332 19.927872 14.212891 19.958984 C 14.244003 19.992543 14.277005 20.023557 14.310547 20.054688 C 14.341395 20.087926 14.373016 20.119537 14.40625 20.150391 C 14.437727 20.184298 14.469947 20.216624 14.503906 20.248047 C 14.533597 20.27989 14.563815 20.310201 14.595703 20.339844 C 14.62472 20.371059 14.65442 20.400577 14.685547 20.429688 C 14.71759 20.464318 14.75053 20.497248 14.785156 20.529297 C 14.813982 20.560119 14.844111 20.588433 14.875 20.617188 C 14.903754 20.648077 14.932069 20.678206 14.962891 20.707031 C 14.993117 20.739599 15.024123 20.770502 15.056641 20.800781 C 15.085711 20.831916 15.11531 20.861597 15.146484 20.890625 C 15.176462 20.922731 15.206069 20.954511 15.238281 20.984375 C 15.265576 21.013424 15.295083 21.039203 15.324219 21.066406 C 15.351422 21.095542 15.377201 21.125049 15.40625 21.152344 C 15.436782 21.185187 15.469089 21.215584 15.501953 21.246094 C 15.528638 21.274454 15.555543 21.301526 15.583984 21.328125 C 15.610241 21.3562 15.636089 21.383792 15.664062 21.410156 C 15.692959 21.441232 15.722918 21.471011 15.753906 21.5 C 15.780824 21.528694 15.809177 21.555133 15.837891 21.582031 C 15.864788 21.610745 15.891228 21.639097 15.919922 21.666016 C 15.94684 21.69471 15.975193 21.721149 16.003906 21.748047 C 16.030218 21.776056 16.05596 21.803782 16.083984 21.830078 C 16.11028 21.858103 16.138006 21.883845 16.166016 21.910156 C 16.192327 21.938166 16.218069 21.965892 16.246094 21.992188 C 16.273053 22.020839 16.301326 22.047366 16.330078 22.074219 C 16.353056 22.098493 16.376116 22.121553 16.400391 22.144531 C 16.428214 22.174323 16.456576 22.202604 16.486328 22.230469 C 16.508962 22.254379 16.530796 22.278128 16.554688 22.300781 C 16.580595 22.328475 16.607187 22.354831 16.634766 22.380859 C 16.659501 22.407142 16.68469 22.432259 16.710938 22.457031 C 16.736966 22.48461 16.763322 22.511202 16.791016 22.537109 C 16.812092 22.559271 16.833307 22.580486 16.855469 22.601562 C 16.880792 22.628557 16.906679 22.65428 16.933594 22.679688 C 16.957111 22.7046 16.98098 22.728401 17.005859 22.751953 C 17.030636 22.778201 17.055744 22.80339 17.082031 22.828125 C 17.102474 22.849621 17.123067 22.87015 17.144531 22.890625 C 17.16888 22.916575 17.192929 22.942313 17.21875 22.966797 C 17.241596 22.990959 17.264932 23.014229 17.289062 23.037109 C 17.312917 23.062267 17.338034 23.085614 17.363281 23.109375 C 17.383122 23.130175 17.403029 23.150081 17.423828 23.169922 C 17.447001 23.194475 17.469645 23.218956 17.494141 23.242188 C 17.515762 23.264986 17.537779 23.28694 17.560547 23.308594 C 17.582168 23.331392 17.604186 23.353346 17.626953 23.375 C 17.648321 23.397468 17.670876 23.418101 17.693359 23.439453 C 17.715691 23.462968 17.738168 23.485519 17.761719 23.507812 C 17.779973 23.526891 17.797343 23.546183 17.816406 23.564453 C 17.838585 23.58791 17.861376 23.610563 17.884766 23.632812 C 17.904903 23.653922 17.926141 23.673238 17.947266 23.693359 C 17.967387 23.714484 17.986703 23.735722 18.007812 23.755859 C 18.027604 23.776606 18.047614 23.796613 18.068359 23.816406 C 18.088151 23.837153 18.108161 23.85716 18.128906 23.876953 C 18.148351 23.897333 18.167135 23.91804 18.1875 23.9375 C 18.206614 23.957503 18.226092 23.976978 18.246094 23.996094 C 18.266192 24.017124 18.287515 24.036593 18.308594 24.056641 C 18.326255 24.075014 18.344867 24.091756 18.363281 24.109375 C 18.380265 24.127126 18.396378 24.145058 18.414062 24.162109 C 18.435085 24.184214 18.456413 24.205537 18.478516 24.226562 C 18.495219 24.243886 18.511923 24.260693 18.529297 24.277344 C 18.545312 24.294055 18.561487 24.310081 18.578125 24.326172 C 18.597221 24.346247 18.61673 24.365579 18.636719 24.384766 C 18.654034 24.402808 18.671412 24.420183 18.689453 24.4375 C 18.708006 24.456829 18.726709 24.475646 18.746094 24.494141 C 18.761545 24.510118 18.776945 24.525612 18.792969 24.541016 C 18.808372 24.55704 18.823867 24.572439 18.839844 24.587891 C 18.859032 24.607944 18.878356 24.627325 18.898438 24.646484 C 18.911353 24.659799 18.924185 24.672631 18.9375 24.685547 C 18.95479 24.703618 18.972217 24.720935 18.990234 24.738281 C 19.005957 24.754613 19.02079 24.771374 19.037109 24.787109 C 19.052498 24.803067 19.068026 24.818597 19.083984 24.833984 C 19.099086 24.849645 19.115208 24.863795 19.130859 24.878906 C 19.145971 24.894557 19.160121 24.910679 19.175781 24.925781 C 19.190267 24.94076 19.205714 24.954275 19.220703 24.96875 C 19.235178 24.98374 19.248694 24.999186 19.263672 25.013672 C 19.277785 25.028264 19.292049 25.042527 19.306641 25.056641 C 19.320492 25.070961 19.335298 25.083796 19.349609 25.097656 C 19.364742 25.113283 19.37885 25.129455 19.394531 25.144531 C 19.405203 25.155482 19.416791 25.165102 19.427734 25.175781 C 19.444093 25.192775 19.459558 25.210214 19.476562 25.226562 C 19.487894 25.238154 19.500083 25.248479 19.511719 25.259766 C 19.523005 25.271401 19.53333 25.283591 19.544922 25.294922 C 19.559013 25.309535 19.57332 25.323755 19.587891 25.337891 C 19.600154 25.350495 19.612378 25.362755 19.625 25.375 C 19.638539 25.388916 19.65204 25.402538 19.666016 25.416016 C 19.676077 25.426278 19.686965 25.43529 19.697266 25.445312 C 19.707288 25.455613 19.7163 25.466501 19.726562 25.476562 C 19.7407 25.491181 19.754914 25.505393 19.769531 25.519531 C 19.779242 25.529435 19.788895 25.539147 19.798828 25.548828 C 19.807867 25.558103 19.816938 25.567091 19.826172 25.576172 C 19.838396 25.58881 19.850698 25.601001 19.863281 25.613281 C 19.873645 25.623901 19.883912 25.634167 19.894531 25.644531 C 19.904543 25.654789 19.913578 25.665761 19.923828 25.675781 C 19.933498 25.685673 19.943233 25.695408 19.953125 25.705078 C 19.962795 25.71497 19.97253 25.724705 19.982422 25.734375 C 19.991803 25.743971 20.002129 25.752331 20.011719 25.761719 C 20.020817 25.771013 20.029768 25.779964 20.039062 25.789062 C 20.04944 25.799664 20.05968 25.809966 20.070312 25.820312 C 20.07618 25.826261 20.081942 25.832023 20.087891 25.837891 C 20.099165 25.849477 20.109516 25.861763 20.121094 25.873047 C 20.125968 25.87798 20.131789 25.881841 20.136719 25.886719 C 20.146073 25.896332 20.154499 25.906611 20.164062 25.916016 C 20.171822 25.923929 20.179598 25.931682 20.1875 25.939453 C 20.196554 25.94866 20.205597 25.957784 20.214844 25.966797 C 20.220372 25.972376 20.226822 25.976915 20.232422 25.982422 C 20.237636 25.987724 20.242768 25.992809 20.248047 25.998047 C 20.256136 26.006335 20.26324 26.015305 20.271484 26.023438 C 20.277971 26.030033 20.28443 26.036473 20.291016 26.042969 C 20.297502 26.049564 20.303961 26.056004 20.310547 26.0625 C 20.316401 26.068434 20.322191 26.074225 20.328125 26.080078 C 20.335268 26.087319 20.342347 26.094442 20.349609 26.101562 C 20.352201 26.10417 20.354815 26.106783 20.357422 26.109375 C 20.365164 26.117271 20.374928 26.125058 20.382812 26.132812 C 20.382812 26.132812 20.382812 26.134766 20.382812 26.134766 C 20.382812 26.134766 20.384766 26.136719 20.384766 26.136719 C 20.384766 26.136719 20.386719 26.138672 20.386719 26.138672 C 20.393193 26.145275 20.399676 26.151699 20.40625 26.158203 C 20.412115 26.164131 20.417883 26.169935 20.423828 26.175781 C 20.423828 26.175781 20.425781 26.177734 20.425781 26.177734 C 20.425781 26.177734 20.427734 26.179688 20.427734 26.179688 C 20.433223 26.185268 20.437799 26.191756 20.443359 26.197266 C 20.446938 26.200877 20.451469 26.20345 20.455078 26.207031 C 20.458368 26.210346 20.461529 26.213507 20.464844 26.216797 C 20.466492 26.218458 20.467095 26.221002 20.46875 26.222656 C 20.470411 26.224292 20.472942 26.224933 20.474609 26.226562 C 20.479188 26.231177 20.483654 26.235669 20.488281 26.240234 C 20.488281 26.240234 20.490234 26.240234 20.490234 26.240234 C 20.490234 26.240234 20.492188 26.242188 20.492188 26.242188 C 20.492188 26.242188 20.494141 26.244141 20.494141 26.244141 C 20.495156 26.245161 20.495076 26.247029 20.496094 26.248047 C 20.499381 26.25137 20.502546 26.254515 20.505859 26.257812 C 20.507862 26.259824 20.509707 26.261669 20.511719 26.263672 C 20.513734 26.265697 20.515553 26.267516 20.517578 26.269531 C 20.517578 26.269531 20.519531 26.271484 20.519531 26.271484 C 20.521173 26.273139 20.52179 26.275696 20.523438 26.277344 C 20.523728 26.277638 20.5251 26.27705 20.525391 26.277344 C 20.525391 26.277344 20.527344 26.279297 20.527344 26.279297 C 20.527344 26.279297 20.529297 26.28125 20.529297 26.28125 C 20.529653 26.281608 20.528941 26.282846 20.529297 26.283203 C 20.529297 26.283203 20.53125 26.285156 20.53125 26.285156 C 20.611553 26.36546 20.700786 26.437746 20.794922 26.501953 C 20.794922 26.501953 20.796875 26.503906 20.796875 26.503906 C 21.08794 26.701789 21.439659 26.818359 21.818359 26.818359 C 22.320069 26.818359 22.772659 26.613509 23.101562 26.285156 C 23.266546 26.120449 23.40001 25.925042 23.492188 25.707031 C 23.559578 25.547646 23.597775 25.374127 23.617188 25.195312 C 23.628548 25.206835 23.638829 25.219148 23.650391 25.230469 C 23.670028 25.250709 23.690687 25.269436 23.710938 25.289062 C 23.723891 25.302281 23.736782 25.315171 23.75 25.328125 C 23.768697 25.347379 23.787388 25.366067 23.806641 25.384766 C 23.819594 25.397984 23.832485 25.410874 23.845703 25.423828 C 23.864072 25.442744 23.881486 25.462089 23.900391 25.480469 C 23.912359 25.492669 23.925306 25.50365 23.9375 25.515625 C 23.954302 25.532928 23.971029 25.549552 23.988281 25.566406 C 24.004495 25.583002 24.020481 25.599054 24.037109 25.615234 C 24.048792 25.627132 24.060369 25.638708 24.072266 25.650391 C 24.089374 25.667973 24.105474 25.686007 24.123047 25.703125 C 24.134032 25.714301 24.145075 25.725342 24.15625 25.736328 C 24.173347 25.75388 24.191425 25.770021 24.208984 25.787109 C 24.219393 25.797688 24.229656 25.807951 24.240234 25.818359 C 24.256431 25.834972 24.272451 25.85099 24.289062 25.867188 C 24.300759 25.879075 24.312308 25.890671 24.324219 25.902344 C 24.335536 25.913892 24.345903 25.926153 24.357422 25.9375 C 24.371291 25.951709 24.384264 25.966563 24.398438 25.980469 C 24.410705 25.992974 24.423042 26.00531 24.435547 26.017578 C 24.449452 26.031752 24.464307 26.044724 24.478516 26.058594 C 24.48859 26.068801 24.499533 26.077842 24.509766 26.087891 C 24.51981 26.098119 24.528859 26.10907 24.539062 26.119141 C 24.553298 26.133696 24.567476 26.147874 24.582031 26.162109 C 24.591753 26.17196 24.601458 26.181704 24.611328 26.191406 C 24.620383 26.200617 24.629488 26.209668 24.638672 26.21875 C 24.650983 26.231338 24.66323 26.24351 24.675781 26.255859 C 24.6862 26.266449 24.696442 26.27669 24.707031 26.287109 C 24.717085 26.297327 24.726116 26.3083 24.736328 26.318359 C 24.746035 26.328214 24.75577 26.337949 24.765625 26.347656 C 24.775332 26.357511 24.785067 26.367246 24.794922 26.376953 C 24.80435 26.386525 24.814652 26.394864 24.824219 26.404297 C 24.833361 26.41357 24.84229 26.422499 24.851562 26.431641 C 24.861992 26.44222 24.872213 26.452482 24.882812 26.462891 C 24.889973 26.470117 24.897056 26.477229 24.904297 26.484375 C 24.912729 26.492919 24.921144 26.501333 24.929688 26.509766 C 24.937827 26.518013 24.946835 26.52506 24.955078 26.533203 C 24.962578 26.540795 24.968975 26.549136 24.976562 26.556641 C 24.983066 26.56323 24.989524 26.569649 24.996094 26.576172 C 25.006791 26.587044 25.016468 26.598683 25.027344 26.609375 C 25.03287 26.614934 25.039349 26.619488 25.044922 26.625 C 25.051721 26.631875 25.057582 26.639682 25.064453 26.646484 C 25.069324 26.651404 25.07517 26.655273 25.080078 26.660156 C 25.090131 26.670374 25.099163 26.681347 25.109375 26.691406 C 25.111963 26.694004 25.114589 26.696631 25.117188 26.699219 C 25.126251 26.70842 25.135339 26.71749 25.144531 26.726562 C 25.148765 26.730813 25.153942 26.734059 25.158203 26.738281 C 25.163718 26.743847 25.168266 26.750341 25.173828 26.755859 C 25.179001 26.761074 25.184239 26.766311 25.189453 26.771484 C 25.194325 26.776395 25.200169 26.780282 25.205078 26.785156 C 25.20966 26.789771 25.214135 26.794246 25.21875 26.798828 C 25.223332 26.803443 25.227807 26.807918 25.232422 26.8125 C 25.236651 26.816759 25.239884 26.821941 25.244141 26.826172 C 25.248018 26.830073 25.251959 26.834013 25.255859 26.837891 C 25.257801 26.839844 25.259771 26.841802 25.261719 26.84375 C 25.266942 26.849032 25.272078 26.854136 25.277344 26.859375 C 25.280637 26.862686 25.283799 26.865847 25.287109 26.869141 C 25.292997 26.875059 25.298746 26.880854 25.304688 26.886719 C 25.305979 26.888016 25.307299 26.889331 25.308594 26.890625 C 25.311889 26.893944 25.315047 26.897089 25.318359 26.900391 C 25.320366 26.902404 25.322206 26.904243 25.324219 26.90625 C 25.326873 26.908913 25.329366 26.911411 25.332031 26.914062 C 25.332031 26.914062 25.333984 26.916016 25.333984 26.916016 C 25.333984 26.916016 25.335938 26.917969 25.335938 26.917969 C 25.335938 26.917969 25.337891 26.919922 25.337891 26.919922 C 25.337891 26.919922 25.339844 26.921875 25.339844 26.921875 C 25.340491 26.922525 25.341149 26.923179 25.341797 26.923828 C 25.342444 26.924478 25.343102 26.925132 25.34375 26.925781 C 25.463227 27.045393 25.594508 27.152144 25.734375 27.248047 C 25.734375 27.248047 25.736328 27.25 25.736328 27.25 C 25.738613 27.251555 25.739898 27.254312 25.742188 27.255859 C 25.742188 27.255859 25.744141 27.257812 25.744141 27.257812 C 25.744559 27.258096 25.745675 27.257529 25.746094 27.257812 C 25.746094 27.257812 25.748047 27.259766 25.748047 27.259766 C 25.754785 27.264321 25.762751 27.266988 25.769531 27.271484 C 25.908132 27.363196 26.054279 27.44425 26.208984 27.509766 C 26.208984 27.509766 26.210938 27.511719 26.210938 27.511719 C 26.537136 27.649858 26.895359 27.726562 27.271484 27.726562 C 27.646981 27.726562 28.006274 27.649404 28.332031 27.511719 C 28.495606 27.442451 28.651406 27.358217 28.796875 27.259766 C 28.942401 27.161393 29.075495 27.049641 29.199219 26.925781 C 29.322656 26.802344 29.435112 26.668546 29.533203 26.523438 C 29.729384 26.233221 29.870616 25.903675 29.943359 25.548828 C 29.943487 25.548203 29.943232 25.5475 29.943359 25.546875 C 29.979482 25.370033 30 25.187405 30 25 C 30 24.830679 29.978849 24.666701 29.949219 24.505859 C 29.945823 24.487428 29.947124 24.467519 29.943359 24.449219 C 29.932129 24.394434 29.909001 24.344556 29.894531 24.291016 C 29.861997 24.170992 29.831134 24.050379 29.783203 23.9375 C 29.714327 23.775293 29.630803 23.618991 29.533203 23.474609 C 29.533203 23.474609 29.53125 23.472656 29.53125 23.472656 C 29.486626 23.406642 29.428984 23.350799 29.378906 23.289062 C 29.319539 23.216061 29.26569 23.138737 29.199219 23.072266 C 29.198864 23.07191 29.199573 23.070668 29.199219 23.070312 C 29.199219 23.070312 29.197266 23.070312 29.197266 23.070312 C 29.197266 23.070312 29.197266 23.068359 29.197266 23.068359 C 29.197266 23.068359 29.195312 23.068359 29.195312 23.068359 C 29.195312 23.068359 29.195312 23.066406 29.195312 23.066406 C 29.195312 23.066406 29.193359 23.064453 29.193359 23.064453 C 29.193359 23.064453 29.191406 23.0625 29.191406 23.0625 C 29.191406 23.0625 29.189453 23.060547 29.189453 23.060547 C 29.189453 23.060547 29.1875 23.058594 29.1875 23.058594 C 29.186232 23.057325 29.184865 23.055953 29.183594 23.054688 C 29.183594 23.054688 29.181641 23.054688 29.181641 23.054688 C 29.181641 23.054688 29.179688 23.052734 29.179688 23.052734 C 29.178744 23.051798 29.178679 23.049763 29.177734 23.048828 C 29.175438 23.046532 29.172226 23.045257 29.169922 23.042969 C 29.169922 23.042969 29.167969 23.041016 29.167969 23.041016 C 29.165033 23.038042 29.163105 23.034211 29.160156 23.03125 C 29.158859 23.029958 29.15755 23.028633 29.15625 23.027344 C 29.153307 23.0244 29.149441 23.022461 29.146484 23.019531 C 29.139973 23.01296 29.13353 23.006505 29.126953 23 C 29.121447 22.994433 29.116881 22.987942 29.111328 22.982422 C 29.107452 22.978523 29.103509 22.974579 29.099609 22.970703 C 29.09538 22.966449 29.090194 22.963211 29.085938 22.958984 C 29.081356 22.95437 29.07688 22.949894 29.072266 22.945312 C 29.067684 22.940698 29.063208 22.936222 29.058594 22.931641 C 29.05372 22.926732 29.049832 22.920887 29.044922 22.916016 C 29.039754 22.910806 29.034506 22.905559 29.029297 22.900391 C 29.023782 22.894831 29.017281 22.890278 29.011719 22.884766 C 29.005852 22.878845 29.000061 22.873055 28.994141 22.867188 C 28.988274 22.861267 28.982483 22.855476 28.976562 22.849609 C 28.970695 22.843689 28.964905 22.837898 28.958984 22.832031 C 28.95248 22.825454 28.946024 22.819011 28.939453 22.8125 C 28.932657 22.805629 28.92679 22.797815 28.919922 22.791016 C 28.913123 22.784148 28.905309 22.77828 28.898438 22.771484 C 28.891288 22.764255 28.884183 22.75715 28.876953 22.75 C 28.869451 22.742414 28.861106 22.736014 28.853516 22.728516 C 28.846018 22.720926 28.839617 22.71258 28.832031 22.705078 C 28.823892 22.696832 28.814884 22.689784 28.806641 22.681641 C 28.798498 22.673398 28.79145 22.664389 28.783203 22.65625 C 28.774773 22.647709 28.766354 22.639289 28.757812 22.630859 C 28.747745 22.620659 28.736789 22.611605 28.726562 22.601562 C 28.71904 22.593971 28.710735 22.587581 28.703125 22.580078 C 28.695622 22.572468 28.689232 22.564163 28.681641 22.556641 C 28.670616 22.545391 28.659654 22.534496 28.648438 22.523438 C 28.639016 22.513881 28.630654 22.503558 28.621094 22.494141 C 28.611035 22.483928 28.600061 22.474897 28.589844 22.464844 C 28.57815 22.45296 28.566595 22.441357 28.554688 22.429688 C 28.547526 22.422446 28.540445 22.415365 28.533203 22.408203 C 28.520908 22.395632 28.508628 22.383426 28.496094 22.371094 C 28.485397 22.360222 28.47572 22.348583 28.464844 22.337891 C 28.452227 22.325056 28.438648 22.313366 28.425781 22.300781 C 28.417337 22.292225 28.408947 22.283835 28.400391 22.275391 C 28.387452 22.262161 28.374531 22.249294 28.361328 22.236328 C 28.347724 22.222474 28.334207 22.208875 28.320312 22.195312 C 28.309933 22.184796 28.29961 22.17441 28.289062 22.164062 C 28.276786 22.151548 28.264467 22.13923 28.251953 22.126953 C 28.240962 22.11575 28.229931 22.104763 28.21875 22.09375 C 28.204544 22.079196 28.190306 22.065017 28.175781 22.050781 C 28.160908 22.035605 28.14608 22.020687 28.130859 22.005859 C 28.120783 21.995629 28.109845 21.986634 28.099609 21.976562 C 28.084421 21.960985 28.070241 21.9449 28.054688 21.929688 C 28.041096 21.915818 28.027554 21.90225 28.013672 21.888672 C 27.999452 21.874134 27.985242 21.859922 27.970703 21.845703 C 27.956484 21.831165 27.942273 21.816953 27.927734 21.802734 C 27.91188 21.786525 27.895157 21.771672 27.878906 21.755859 C 27.865569 21.742277 27.851507 21.730099 27.837891 21.716797 C 27.824588 21.70318 27.81241 21.689118 27.798828 21.675781 C 27.781759 21.658205 27.76558 21.64016 27.748047 21.623047 C 27.732562 21.607183 27.717036 21.591656 27.701172 21.576172 C 27.685687 21.560308 27.670161 21.544781 27.654297 21.529297 C 27.638462 21.513074 27.6217 21.498248 27.605469 21.482422 C 27.587374 21.463864 27.569393 21.445774 27.550781 21.427734 C 27.537517 21.414199 27.52526 21.399977 27.511719 21.386719 C 27.493728 21.368176 27.475537 21.350059 27.457031 21.332031 C 27.439934 21.31448 27.421857 21.298338 27.404297 21.28125 C 27.385578 21.262014 27.36693 21.243289 27.347656 21.224609 C 27.331778 21.208375 27.315103 21.193571 27.298828 21.177734 C 27.282642 21.161099 27.266602 21.145126 27.25 21.128906 C 27.230344 21.108602 27.211679 21.088048 27.191406 21.068359 C 27.172052 21.048469 27.15276 21.029061 27.132812 21.009766 C 27.117301 20.993874 27.101829 20.978402 27.085938 20.962891 C 27.066003 20.94228 27.04596 20.92232 27.025391 20.902344 C 27.006404 20.882793 26.988309 20.862728 26.96875 20.84375 C 26.948144 20.822513 26.925578 20.803764 26.904297 20.783203 C 26.887803 20.766286 26.872393 20.748908 26.855469 20.732422 C 26.83301 20.709157 26.810375 20.686521 26.787109 20.664062 C 26.768701 20.645165 26.749413 20.627735 26.730469 20.609375 C 26.71176 20.59007 26.693095 20.571482 26.673828 20.552734 C 26.650684 20.528734 26.627517 20.505565 26.603516 20.482422 C 26.584477 20.462856 26.566488 20.442818 26.546875 20.423828 C 26.527595 20.403916 26.508154 20.384554 26.488281 20.365234 C 26.465845 20.341945 26.443166 20.319359 26.419922 20.296875 C 26.39869 20.274923 26.377421 20.253654 26.355469 20.232422 C 26.333913 20.210135 26.31136 20.189513 26.289062 20.167969 C 26.267518 20.145671 26.246896 20.123118 26.224609 20.101562 C 26.201163 20.077275 26.176668 20.054658 26.152344 20.03125 C 26.132357 20.010626 26.11242 19.99069 26.091797 19.970703 C 26.068389 19.946378 26.045772 19.921884 26.021484 19.898438 C 25.998678 19.874811 25.97481 19.852873 25.951172 19.830078 C 25.928377 19.80644 25.906439 19.782572 25.882812 19.759766 C 25.859392 19.735456 25.834847 19.712884 25.810547 19.689453 C 25.787116 19.665153 25.764544 19.640608 25.740234 19.617188 C 25.716814 19.592878 25.692268 19.570306 25.667969 19.546875 C 25.643927 19.521894 25.620672 19.496711 25.595703 19.472656 C 25.571649 19.447687 25.546466 19.424432 25.521484 19.400391 C 25.497095 19.375045 25.47261 19.350563 25.447266 19.326172 C 25.422589 19.300528 25.398701 19.274667 25.373047 19.25 C 25.34838 19.224346 25.322519 19.200458 25.296875 19.175781 C 25.271589 19.149454 25.247018 19.122956 25.220703 19.097656 C 25.195404 19.071342 25.168905 19.046771 25.142578 19.021484 C 25.116943 18.994794 25.091145 18.968993 25.064453 18.943359 C 25.037204 18.914986 25.008911 18.888507 24.980469 18.861328 C 24.955724 18.835665 24.931974 18.809838 24.90625 18.785156 C 24.88128 18.759132 24.856052 18.734006 24.830078 18.708984 C 24.802279 18.679866 24.773192 18.652869 24.744141 18.625 C 24.717539 18.59727 24.691803 18.569559 24.664062 18.542969 C 24.63684 18.514566 24.608494 18.488146 24.580078 18.460938 C 24.551253 18.430833 24.522352 18.401811 24.492188 18.373047 C 24.467469 18.347359 24.443668 18.321582 24.417969 18.296875 C 24.388608 18.26606 24.358884 18.23645 24.328125 18.207031 C 24.300616 18.17833 24.272868 18.150529 24.244141 18.123047 C 24.216026 18.093655 24.187594 18.065225 24.158203 18.037109 C 24.129417 18.007011 24.100436 17.977978 24.070312 17.949219 C 24.041566 17.919165 24.012503 17.890047 23.982422 17.861328 C 23.952063 17.82959 23.920517 17.79978 23.888672 17.769531 C 23.862707 17.742494 23.837596 17.715406 23.810547 17.689453 C 23.778343 17.655577 23.744827 17.623987 23.710938 17.591797 C 23.684017 17.563709 23.656994 17.536686 23.628906 17.509766 C 23.597393 17.476586 23.566332 17.443675 23.533203 17.412109 C 23.50161 17.379015 23.468752 17.347884 23.435547 17.316406 C 23.407991 17.287655 23.380341 17.259949 23.351562 17.232422 C 23.319704 17.198878 23.287416 17.166659 23.253906 17.134766 C 23.223247 17.102614 23.192337 17.071644 23.160156 17.041016 C 23.12763 17.006842 23.094788 16.973862 23.060547 16.941406 C 23.032385 16.911964 23.004052 16.883631 22.974609 16.855469 C 22.940298 16.819202 22.905375 16.784345 22.869141 16.75 C 22.840028 16.719502 22.809781 16.691236 22.779297 16.662109 C 22.745838 16.626765 22.713022 16.592112 22.677734 16.558594 C 22.64398 16.523058 22.609824 16.488759 22.574219 16.455078 C 22.544472 16.423916 22.5136 16.394964 22.482422 16.365234 C 22.448369 16.329202 22.414856 16.293904 22.378906 16.259766 C 22.345787 16.224895 22.312246 16.191289 22.277344 16.158203 C 22.244225 16.123332 22.210683 16.089727 22.175781 16.056641 C 22.142662 16.02177 22.109121 15.988164 22.074219 15.955078 C 22.040464 15.919466 22.006315 15.885318 21.970703 15.851562 C 21.935384 15.8143 21.898679 15.779368 21.861328 15.744141 C 21.82973 15.710937 21.798843 15.678067 21.765625 15.646484 C 21.728836 15.607515 21.691347 15.569956 21.652344 15.533203 C 21.620474 15.499683 21.588207 15.467417 21.554688 15.435547 C 21.518848 15.397512 21.481308 15.362102 21.443359 15.326172 C 21.408094 15.288855 21.373237 15.252081 21.335938 15.216797 C 21.300654 15.179497 21.263879 15.144641 21.226562 15.109375 C 21.190951 15.071692 21.154873 15.035609 21.117188 15 C 21.080276 14.960936 21.043044 14.923553 21.003906 14.886719 C 20.970135 14.851088 20.936021 14.816975 20.900391 14.783203 C 20.861717 14.74211 20.822379 14.702698 20.78125 14.664062 C 20.747478 14.628432 20.713365 14.594319 20.677734 14.560547 C 20.639444 14.519779 20.601252 14.479763 20.560547 14.441406 C 20.522157 14.400742 20.482205 14.362468 20.441406 14.324219 C 20.407003 14.287922 20.372269 14.253117 20.335938 14.21875 C 20.297304 14.177617 20.257888 14.138287 20.216797 14.099609 C 20.17934 14.059889 20.141318 14.021795 20.101562 13.984375 C 20.063859 13.944318 20.026366 13.90491 19.986328 13.867188 C 19.948359 13.826812 19.90948 13.788007 19.869141 13.75 C 19.829569 13.707921 19.788237 13.66841 19.746094 13.628906 C 19.708611 13.589201 19.67064 13.551075 19.630859 13.513672 C 19.593112 13.473526 19.553762 13.436243 19.513672 13.398438 C 19.473458 13.355489 19.43351 13.313718 19.390625 13.273438 C 19.351361 13.23164 19.311331 13.191604 19.269531 13.152344 C 19.229012 13.109209 19.18775 13.067774 19.144531 13.027344 C 19.105829 12.986264 19.066548 12.946824 19.025391 12.908203 C 18.98677 12.867046 18.947329 12.827765 18.90625 12.789062 C 18.863641 12.743431 18.819053 12.700829 18.773438 12.658203 C 18.73407 12.616372 18.694254 12.576394 18.652344 12.537109 C 18.61306 12.495199 18.573081 12.455383 18.53125 12.416016 C 18.489293 12.371033 18.447222 12.327224 18.402344 12.285156 C 18.361286 12.241273 18.319235 12.199302 18.275391 12.158203 C 18.232735 12.112613 18.188238 12.069926 18.142578 12.027344 C 18.101995 11.984134 18.06087 11.942841 18.017578 11.902344 C 17.977081 11.859052 17.935788 11.817927 17.892578 11.777344 C 17.848167 11.729634 17.803548 11.683105 17.755859 11.638672 C 17.715982 11.596175 17.675309 11.555502 17.632812 11.515625 C 17.589047 11.468567 17.543047 11.424735 17.496094 11.380859 C 17.453126 11.334877 17.409303 11.290973 17.363281 11.248047 C 17.320605 11.202377 17.278111 11.15789 17.232422 11.115234 C 17.189192 11.06893 17.143981 11.02563 17.097656 10.982422 C 17.054448 10.936097 17.011148 10.890886 16.964844 10.847656 C 16.921031 10.800641 16.875124 10.756721 16.828125 10.712891 C 16.783953 10.665525 16.738813 10.620301 16.691406 10.576172 C 16.647524 10.529117 16.603715 10.483314 16.556641 10.439453 C 16.512208 10.391765 16.465678 10.347146 16.417969 10.302734 C 16.372246 10.253616 16.324584 10.207752 16.275391 10.162109 C 16.232978 10.11672 16.18992 10.073663 16.144531 10.03125 C 16.097067 9.9800001 16.049275 9.9302999 15.998047 9.8828125 C 15.953833 9.8354528 15.908777 9.7902131 15.861328 9.7460938 C 15.816867 9.6982775 15.770407 9.6539052 15.722656 9.609375 C 15.676386 9.5594051 15.629929 9.5112404 15.580078 9.4648438 C 15.533551 9.4146604 15.485687 9.3668854 15.435547 9.3203125 C 15.388294 9.2694397 15.34003 9.2209797 15.289062 9.1738281 C 15.243644 9.1250801 15.197277 9.0785245 15.148438 9.0332031 C 15.103116 8.9843636 15.05656 8.9379967 15.007812 8.8925781 C 14.958556 8.8392381 14.906838 8.7895097 14.853516 8.7402344 C 14.808691 8.6920712 14.763007 8.646387 14.714844 8.6015625 C 14.66583 8.5484268 14.615547 8.4983273 14.5625 8.4492188 C 14.515271 8.3983156 14.466962 8.3499174 14.416016 8.3027344 C 13.917614 7.7645778 13.212025 7.421875 12.421875 7.421875 z "
       transform="translate(-1058.1428,861.93365)"
       id="path9331"
       clip-path="url(#clipPath10267)" />
    <g
       transform="matrix(0.01119865,0,0,0.01119865,-1053.404,867.49955)"
       id="g9099" />
    <g
       transform="matrix(0.01119865,0,0,0.01119865,-1053.404,867.49955)"
       id="g9101" />
    <g
       transform="matrix(0.01119865,0,0,0.01119865,-1053.404,867.49955)"
       id="g9103" />
    <g
       transform="matrix(0.01119865,0,0,0.01119865,-1053.404,867.49955)"
       id="g9105" />
    <g
       transform="matrix(0.01119865,0,0,0.01119865,-1053.404,867.49955)"
       id="g9107" />
    <g
       transform="matrix(0.01119865,0,0,0.01119865,-1053.404,867.49955)"
       id="g9109" />
    <g
       transform="matrix(0.01119865,0,0,0.01119865,-1053.404,867.49955)"
       id="g9111" />
    <g
       transform="matrix(0.01119865,0,0,0.01119865,-1053.404,867.49955)"
       id="g9113" />
    <g
       transform="matrix(0.01119865,0,0,0.01119865,-1053.404,867.49955)"
       id="g9115" />
    <g
       transform="matrix(0.01119865,0,0,0.01119865,-1053.404,867.49955)"
       id="g9117" />
    <g
       transform="matrix(0.01119865,0,0,0.01119865,-1053.404,867.49955)"
       id="g9119" />
    <g
       transform="matrix(0.01119865,0,0,0.01119865,-1053.404,867.49955)"
       id="g9121" />
    <g
       transform="matrix(0.01119865,0,0,0.01119865,-1053.404,867.49955)"
       id="g9123" />
    <g
       transform="matrix(0.01119865,0,0,0.01119865,-1053.404,867.49955)"
       id="g9125" />
    <g
       transform="matrix(0.01119865,0,0,0.01119865,-1053.404,867.49955)"
       id="g9127" />
    <path
       id="path9227"
       d="m -1055.5892,857.16579 24,0 0,24 -24,0 z"
       inkscape:connector-curvature="0"
       style="fill:none" />
    <ellipse
       style="opacity:1;fill:#795548;fill-opacity:1;stroke:none;stroke-width:1.25;stroke-linecap:round;stroke-linejoin:round;stroke-miterlimit:4;stroke-dasharray:none;stroke-opacity:1"
       id="path10271"
       cx="-1045.7815"
       cy="871.76898"
       rx="2.6386409"
       ry="2.0834396" />
    <path
       id="path9229"
       d="m -1051.3246,870.11548 c -1.0046,0 -1.8182,0.81363 -1.8182,1.81818 0,1.00454 0.8136,1.81818 1.8182,1.81818 1.0045,0 1.8182,-0.81364 1.8182,-1.81818 0,-1.00455 -0.8137,-1.81818 -1.8182,-1.81818 z m 5.4545,-0.9091 c -1.5045,0 -2.7272,1.22273 -2.7272,2.72728 0,1.50454 1.2227,2.72727 2.7272,2.72727 1.5046,0 2.7273,-1.22273 2.7273,-2.72727 0,-1.50455 -1.2227,-2.72728 -2.7273,-2.72728 z m 0,4.54546 c -1.0045,0 -1.8182,-0.81364 -1.8182,-1.81818 0,-1.00455 0.8137,-1.81818 1.8182,-1.81818 1.0046,0 1.8182,0.81363 1.8182,1.81818 0,1.00454 -0.8136,1.81818 -1.8182,1.81818 z"
       inkscape:connector-curvature="0"
       style="fill:#f5f5f5" />
  </g>
  <g
     style="display:inline"
     inkscape:groupmode="layer"
     id="layer2"
     inkscape:label="Icon">
    <path
       d="m 3.9999777,4.0333382 12.0000003,0 0,11.9333328 -12.0000003,0 z"
       id="path4"
       inkscape:connector-curvature="0"
       style="fill:none" />
    <path
       style="fill:none"
       inkscape:connector-curvature="0"
       id="path9754"
       d="m 18.999978,19.033339 12,0 0,11.933333 -12,0 z" />
    <g
       id="g4860"
       transform="matrix(0.03184582,0,0,0.03184582,4.9999993,4.9999873)" />
    <g
       id="g4862"
       transform="matrix(0.03184582,0,0,0.03184582,4.9999993,4.9999873)" />
    <g
       id="g4864"
       transform="matrix(0.03184582,0,0,0.03184582,4.9999993,4.9999873)" />
    <g
       id="g4866"
       transform="matrix(0.03184582,0,0,0.03184582,4.9999993,4.9999873)" />
    <g
       id="g4868"
       transform="matrix(0.03184582,0,0,0.03184582,4.9999993,4.9999873)" />
    <g
       id="g4870"
       transform="matrix(0.03184582,0,0,0.03184582,4.9999993,4.9999873)" />
    <g
       id="g4872"
       transform="matrix(0.03184582,0,0,0.03184582,4.9999993,4.9999873)" />
    <g
       id="g4874"
       transform="matrix(0.03184582,0,0,0.03184582,4.9999993,4.9999873)" />
    <g
       id="g4876"
       transform="matrix(0.03184582,0,0,0.03184582,4.9999993,4.9999873)" />
    <g
       id="g4878"
       transform="matrix(0.03184582,0,0,0.03184582,4.9999993,4.9999873)" />
    <g
       id="g4880"
       transform="matrix(0.03184582,0,0,0.03184582,4.9999993,4.9999873)" />
    <g
       id="g4882"
       transform="matrix(0.03184582,0,0,0.03184582,4.9999993,4.9999873)" />
    <g
       id="g4884"
       transform="matrix(0.03184582,0,0,0.03184582,4.9999993,4.9999873)" />
    <g
       id="g4886"
       transform="matrix(0.03184582,0,0,0.03184582,4.9999993,4.9999873)" />
    <g
       id="g4888"
       transform="matrix(0.03184582,0,0,0.03184582,4.9999993,4.9999873)" />
    <path
       id="path6048"
       d="M 4.5000001,4.5000001 15.5,4.5000001 15.5,15.5 4.5000001,15.5 Z"
       inkscape:connector-curvature="0"
       style="fill:none" />
    <path
       style="fill:none"
       inkscape:connector-curvature="0"
       d="m 19.5,19.5 11,0 0,11 -11,0 z"
       id="path6064" />
    <path
       style="fill:none"
       inkscape:connector-curvature="0"
       d="m 5.6339285,-4.0982141 23.9999995,0 0,24.0000001 -23.9999995,0 z"
       id="path7985" />
  </g>
</svg>
