<?xml version="1.0" encoding="UTF-8" standalone="no"?>
<!-- Created with Inkscape (http://www.inkscape.org/) -->

<svg
   xmlns:dc="http://purl.org/dc/elements/1.1/"
   xmlns:cc="http://creativecommons.org/ns#"
   xmlns:rdf="http://www.w3.org/1999/02/22-rdf-syntax-ns#"
   xmlns:svg="http://www.w3.org/2000/svg"
   xmlns="http://www.w3.org/2000/svg"
   xmlns:xlink="http://www.w3.org/1999/xlink"
   xmlns:sodipodi="http://sodipodi.sourceforge.net/DTD/sodipodi-0.dtd"
   xmlns:inkscape="http://www.inkscape.org/namespaces/inkscape"
   width="5.6444445mm"
   height="5.6444445mm"
   viewBox="0 0 20 20"
   id="svg2"
   version="1.1"
   inkscape:version="0.91 r13725"
   sodipodi:docname="Browser2.svg"
   inkscape:export-filename="/home/juergen/Projekte/Android/Android_Studio/Baumann_Theme/theme/src/main/assets/icons/res/drawable-xxhdpi/a051.png"
   inkscape:export-xdpi="648"
   inkscape:export-ydpi="648">
  <sodipodi:namedview
     id="base"
     pagecolor="#ffffff"
     bordercolor="#666666"
     borderopacity="1.0"
     inkscape:pageopacity="0.0"
     inkscape:pageshadow="2"
     inkscape:zoom="15.839192"
     inkscape:cx="9.0888993"
     inkscape:cy="-0.37837073"
     inkscape:document-units="px"
     inkscape:current-layer="layer1"
     showgrid="false"
     fit-margin-top="0"
     fit-margin-left="0"
     fit-margin-right="0"
     fit-margin-bottom="0"
     showguides="true"
     inkscape:guide-bbox="true"
     inkscape:window-width="1920"
     inkscape:window-height="1016"
     inkscape:window-x="0"
     inkscape:window-y="27"
     inkscape:window-maximized="1"
     inkscape:snap-grids="true"
     inkscape:snap-to-guides="true">
    <inkscape:grid
       id="grid4138"
       type="xygrid" />
    <sodipodi:guide
       id="guide4140"
       orientation="0,1"
       position="10,18" />
    <sodipodi:guide
       id="guide4142"
       orientation="0,1"
       position="10,2" />
    <sodipodi:guide
       id="guide4144"
       orientation="1,0"
       position="2,10" />
    <sodipodi:guide
       id="guide4146"
       orientation="0,20"
       position="0,0" />
    <sodipodi:guide
       id="guide4148"
       orientation="-20,0"
       position="20,0" />
    <sodipodi:guide
       id="guide4150"
       orientation="0,-20"
       position="20,20" />
    <sodipodi:guide
       id="guide4152"
       orientation="20,0"
       position="0,20" />
    <sodipodi:guide
       id="guide4154"
       orientation="1,0"
       position="18,10" />
    <sodipodi:guide
       id="guide4156"
       orientation="-0.70710678,0.70710678"
       position="10,10" />
    <sodipodi:guide
       id="guide4160"
       orientation="1,0"
       position="4,10" />
    <sodipodi:guide
       id="guide4162"
       orientation="1,0"
       position="16,10" />
    <sodipodi:guide
       id="guide4164"
       orientation="0,1"
       position="10,16" />
    <sodipodi:guide
       id="guide4166"
       orientation="0,1"
       position="10,4" />
    <sodipodi:guide
       id="guide4168"
       orientation="0,1"
       position="10,15" />
    <sodipodi:guide
       id="guide4170"
       orientation="0,1"
       position="10,5" />
    <sodipodi:guide
       id="guide4172"
       orientation="1,0"
       position="5,10" />
    <sodipodi:guide
       id="guide4174"
       orientation="1,0"
       position="15,10" />
  </sodipodi:namedview>
  <defs
     id="defs4">
    <linearGradient
       inkscape:collect="always"
       id="linearGradient11319">
      <stop
         style="stop-color:#000000;stop-opacity:1;"
         offset="0"
         id="stop11321" />
      <stop
         style="stop-color:#000000;stop-opacity:0;"
         offset="1"
         id="stop11323" />
    </linearGradient>
    <clipPath
       clipPathUnits="userSpaceOnUse"
       id="clipPath12478">
      <circle
         style="opacity:1;fill:#2196f3;fill-opacity:1;stroke:none;stroke-width:0.05069799;stroke-miterlimit:4;stroke-dasharray:none;stroke-opacity:1"
         id="circle12480"
         cx="9.9999781"
         cy="10.000005"
         r="10" />
    </clipPath>
    <clipPath
       id="clipPath5790"
       clipPathUnits="userSpaceOnUse">
      <circle
         inkscape:export-ydpi="648"
         inkscape:export-xdpi="648"
         inkscape:export-filename="/home/juergen/path4136.png"
         style="opacity:1;fill:#2196f3;fill-opacity:1;stroke:none;stroke-width:0.05069799;stroke-miterlimit:4;stroke-dasharray:none;stroke-opacity:1"
         id="circle5792"
         cx="9.9999781"
         cy="10.000005"
         r="10" />
    </clipPath>
    <clipPath
       clipPathUnits="userSpaceOnUse"
       id="clipPath5055">
      <circle
         inkscape:export-ydpi="648"
         inkscape:export-xdpi="648"
         inkscape:export-filename="/home/juergen/path4136.png"
         style="opacity:1;fill:#2196f3;fill-opacity:1;stroke:none;stroke-width:0.05069799;stroke-miterlimit:4;stroke-dasharray:none;stroke-opacity:1"
         id="circle5057"
         cx="9.9999781"
         cy="10.000005"
         r="10" />
    </clipPath>
    <clipPath
       id="clipPath5119"
       clipPathUnits="userSpaceOnUse">
      <circle
         inkscape:export-ydpi="648"
         inkscape:export-xdpi="648"
         inkscape:export-filename="/home/juergen/Schreibtisch/path4136.png"
         style="opacity:1;fill:#2196f3;fill-opacity:1;stroke:none;stroke-width:0.05069799;stroke-miterlimit:4;stroke-dasharray:none;stroke-opacity:1"
         id="circle5121"
         cx="9.9999781"
         cy="10.000005"
         r="10" />
    </clipPath>
    <clipPath
       clipPathUnits="userSpaceOnUse"
       id="clipPath5194">
      <circle
         inkscape:export-ydpi="648"
         inkscape:export-xdpi="648"
         inkscape:export-filename="/home/juergen/Schreibtisch/path4136.png"
         style="opacity:1;fill:#cddc39;fill-opacity:1;stroke:none;stroke-width:0.05069799;stroke-miterlimit:4;stroke-dasharray:none;stroke-opacity:1"
         id="circle5196"
         cx="9.9999781"
         cy="10.000005"
         r="10" />
    </clipPath>
    <clipPath
       id="clipPath6175"
       clipPathUnits="userSpaceOnUse">
      <circle
         inkscape:export-ydpi="648"
         inkscape:export-xdpi="648"
         inkscape:export-filename="/home/juergen/Schreibtisch/path4136.png"
         style="opacity:1;fill:#f44336;fill-opacity:1;stroke:none;stroke-width:0.05069799;stroke-miterlimit:4;stroke-dasharray:none;stroke-opacity:1"
         id="circle6177"
         cx="9.9999781"
         cy="10.000005"
         r="10" />
    </clipPath>
    <clipPath
       clipPathUnits="userSpaceOnUse"
       id="clipPath7176">
      <circle
         inkscape:export-ydpi="648"
         inkscape:export-xdpi="648"
         inkscape:export-filename="/home/juergen/Schreibtisch/path4136.png"
         style="opacity:1;fill:#9c27b0;fill-opacity:1;stroke:none;stroke-width:0.05069799;stroke-miterlimit:4;stroke-dasharray:none;stroke-opacity:1"
         id="circle7178"
         cx="9.9999781"
         cy="10.000005"
         r="10" />
    </clipPath>
    <clipPath
       id="clipPath8165"
       clipPathUnits="userSpaceOnUse">
      <circle
         inkscape:export-ydpi="648"
         inkscape:export-xdpi="648"
         inkscape:export-filename="/home/juergen/Schreibtisch/path4136.png"
         style="opacity:1;fill:#ffc107;fill-opacity:1;stroke:none;stroke-width:0.05069799;stroke-miterlimit:4;stroke-dasharray:none;stroke-opacity:1"
         id="circle8167"
         cx="9.9999781"
         cy="10.000005"
         r="10" />
    </clipPath>
    <clipPath
       clipPathUnits="userSpaceOnUse"
       id="clipPath9162">
      <circle
         inkscape:export-ydpi="648"
         inkscape:export-xdpi="648"
         inkscape:export-filename="/home/juergen/Schreibtisch/path4136.png"
         style="opacity:1;fill:#ff9800;fill-opacity:1;stroke:none;stroke-width:0.05069799;stroke-miterlimit:4;stroke-dasharray:none;stroke-opacity:1"
         id="circle9164"
         cx="9.9999781"
         cy="10.000005"
         r="10" />
    </clipPath>
    <clipPath
       id="clipPath10753"
       clipPathUnits="userSpaceOnUse">
      <circle
         inkscape:export-ydpi="648"
         inkscape:export-xdpi="648"
         inkscape:export-filename="/home/juergen/Schreibtisch/path4136.png"
         style="opacity:1;fill:#607d8b;fill-opacity:1;stroke:none;stroke-width:0.05069799;stroke-miterlimit:4;stroke-dasharray:none;stroke-opacity:1"
         id="circle10755"
         cx="9.9999781"
         cy="10.000005"
         r="10" />
    </clipPath>
    <clipPath
       clipPathUnits="userSpaceOnUse"
       id="clipPath5153">
      <circle
         inkscape:export-ydpi="648"
         inkscape:export-xdpi="648"
         inkscape:export-filename="/home/juergen/Schreibtisch/path4136.png"
         style="opacity:1;fill:#2196f3;fill-opacity:1;stroke:none;stroke-width:0.05069799;stroke-miterlimit:4;stroke-dasharray:none;stroke-opacity:1"
         id="circle5155"
         cx="9.9999781"
         cy="10.000005"
         r="10" />
    </clipPath>
    <clipPath
       id="clipPath6152"
       clipPathUnits="userSpaceOnUse">
      <circle
         inkscape:export-ydpi="648"
         inkscape:export-xdpi="648"
         inkscape:export-filename="/home/juergen/Schreibtisch/path4136.png"
         style="opacity:1;fill:#2196f3;fill-opacity:1;stroke:none;stroke-width:0.05069799;stroke-miterlimit:4;stroke-dasharray:none;stroke-opacity:1"
         id="circle6154"
         cx="9.9999781"
         cy="10.000005"
         r="10" />
    </clipPath>
    <clipPath
       clipPathUnits="userSpaceOnUse"
       id="clipPath7155">
      <circle
         inkscape:export-ydpi="648"
         inkscape:export-xdpi="648"
         inkscape:export-filename="/home/juergen/Schreibtisch/path4136.png"
         style="opacity:1;fill:#2196f3;fill-opacity:1;stroke:none;stroke-width:0.05069799;stroke-miterlimit:4;stroke-dasharray:none;stroke-opacity:1"
         id="circle7157"
         cx="9.9999781"
         cy="10.000005"
         r="10" />
    </clipPath>
    <clipPath
       id="clipPath8162"
       clipPathUnits="userSpaceOnUse">
      <circle
         inkscape:export-ydpi="648"
         inkscape:export-xdpi="648"
         inkscape:export-filename="/home/juergen/Schreibtisch/path4136.png"
         style="opacity:1;fill:#2196f3;fill-opacity:1;stroke:none;stroke-width:0.05069799;stroke-miterlimit:4;stroke-dasharray:none;stroke-opacity:1"
         id="circle8164"
         cx="9.9999781"
         cy="10.000005"
         r="10" />
    </clipPath>
    <clipPath
       clipPathUnits="userSpaceOnUse"
       id="clipPath5177">
      <circle
         inkscape:export-ydpi="648"
         inkscape:export-xdpi="648"
         inkscape:export-filename="/home/juergen/Schreibtisch/path4136.png"
         style="opacity:1;fill:#8bc34a;fill-opacity:1;stroke:none;stroke-width:0.05069799;stroke-miterlimit:4;stroke-dasharray:none;stroke-opacity:1"
         id="circle5179"
         cx="9.9999781"
         cy="10.000005"
         r="10" />
    </clipPath>
    <clipPath
       id="clipPath6194"
       clipPathUnits="userSpaceOnUse">
      <circle
         inkscape:export-ydpi="648"
         inkscape:export-xdpi="648"
         inkscape:export-filename="/home/juergen/Schreibtisch/path4136.png"
         style="opacity:1;fill:#4caf50;fill-opacity:1;stroke:none;stroke-width:0.05069799;stroke-miterlimit:4;stroke-dasharray:none;stroke-opacity:1"
         id="circle6196"
         cx="9.9999781"
         cy="10.000005"
         r="10" />
    </clipPath>
    <clipPath
       clipPathUnits="userSpaceOnUse"
       id="clipPath7213">
      <circle
         inkscape:export-ydpi="648"
         inkscape:export-xdpi="648"
         inkscape:export-filename="/home/juergen/Schreibtisch/path4136.png"
         style="opacity:1;fill:#4caf50;fill-opacity:1;stroke:none;stroke-width:0.05069799;stroke-miterlimit:4;stroke-dasharray:none;stroke-opacity:1"
         id="circle7215"
         cx="9.9999781"
         cy="10.000005"
         r="10" />
    </clipPath>
    <clipPath
       id="clipPath8236"
       clipPathUnits="userSpaceOnUse">
      <circle
         inkscape:export-ydpi="648"
         inkscape:export-xdpi="648"
         inkscape:export-filename="/home/juergen/Schreibtisch/path4136.png"
         style="opacity:1;fill:#4caf50;fill-opacity:1;stroke:none;stroke-width:0.05069799;stroke-miterlimit:4;stroke-dasharray:none;stroke-opacity:1"
         id="circle8238"
         cx="9.9999781"
         cy="10.000005"
         r="10" />
    </clipPath>
    <clipPath
       clipPathUnits="userSpaceOnUse"
       id="clipPath9263">
      <circle
         inkscape:export-ydpi="648"
         inkscape:export-xdpi="648"
         inkscape:export-filename="/home/juergen/Schreibtisch/path4136.png"
         style="opacity:1;fill:#607d8b;fill-opacity:1;stroke:none;stroke-width:0.05069799;stroke-miterlimit:4;stroke-dasharray:none;stroke-opacity:1"
         id="circle9265"
         cx="9.9999781"
         cy="10.000005"
         r="10" />
    </clipPath>
    <clipPath
       id="clipPath10295"
       clipPathUnits="userSpaceOnUse">
      <circle
         inkscape:export-ydpi="648"
         inkscape:export-xdpi="648"
         inkscape:export-filename="/home/juergen/Schreibtisch/path4136.png"
         style="opacity:1;fill:#009688;fill-opacity:1;stroke:none;stroke-width:0.05069799;stroke-miterlimit:4;stroke-dasharray:none;stroke-opacity:1"
         id="circle10297"
         cx="9.9999781"
         cy="10.000005"
         r="10" />
    </clipPath>
    <linearGradient
       inkscape:collect="always"
       xlink:href="#linearGradient11319"
       id="linearGradient11325"
       x1="10"
       y1="10"
       x2="20"
       y2="20"
       gradientUnits="userSpaceOnUse" />
    <clipPath
       clipPathUnits="userSpaceOnUse"
       id="clipPath11330">
      <circle
         inkscape:export-ydpi="648"
         inkscape:export-xdpi="648"
         inkscape:export-filename="/home/juergen/Schreibtisch/path4136.png"
         style="opacity:1;fill:#00bcd4;fill-opacity:1;stroke:none;stroke-width:0.05069799;stroke-miterlimit:4;stroke-dasharray:none;stroke-opacity:1"
         id="circle11332"
         cx="9.9999781"
         cy="10.000005"
         r="10" />
    </clipPath>
  </defs>
  <metadata
     id="metadata7">
    <rdf:RDF>
      <cc:Work
         rdf:about="">
        <dc:format>image/svg+xml</dc:format>
        <dc:type
           rdf:resource="http://purl.org/dc/dcmitype/StillImage" />
        <dc:title></dc:title>
      </cc:Work>
    </rdf:RDF>
  </metadata>
  <g
     transform="translate(1058.1428,-861.93365)"
     id="layer1"
     inkscape:groupmode="layer"
     inkscape:label="Hintergrund">
    <circle
       r="10"
       cy="871.93365"
       cx="-1048.1428"
       id="path4136"
       style="opacity:1;fill:#ff9800;fill-opacity:1;stroke:none;stroke-width:0.05069799;stroke-miterlimit:4;stroke-dasharray:none;stroke-opacity:1"
       inkscape:export-filename="/home/thomas/Programme/android/BlueIconsMinimal/app/src/main/res/drawable-xxhdpi/a224.png"
       inkscape:export-xdpi="648"
       inkscape:export-ydpi="648" />
  </g>
  <g
     inkscape:label="Icon"
     id="layer2"
     inkscape:groupmode="layer"
     style="display:inline">
    <path
       d="M 10.148438 5.1484375 C 8.8223552 5.1484375 7.5509631 5.6755993 6.6132812 6.6132812 C 5.6755993 7.5509632 5.1484374 8.8223555 5.1484375 10.148438 C 5.1484375 11.474521 5.6755993 12.745912 6.6132812 13.683594 C 6.6383905 13.708703 6.6697295 13.725482 6.6953125 13.75 C 6.7198302 13.775583 6.7366095 13.806922 6.7617188 13.832031 C 6.7851608 13.855473 6.8140353 13.871605 6.8378906 13.894531 C 6.8636846 13.921507 6.8817527 13.954018 6.9082031 13.980469 C 6.932984 14.00525 6.9630388 14.02267 6.9882812 14.046875 C 7.0124861 14.072117 7.0299066 14.102172 7.0546875 14.126953 C 7.0794375 14.151703 7.1095552 14.169184 7.1347656 14.193359 C 7.158941 14.21857 7.1764219 14.248687 7.2011719 14.273438 C 7.2256582 14.297924 7.256313 14.313967 7.28125 14.337891 C 7.3051739 14.362828 7.3212168 14.393482 7.3457031 14.417969 C 7.3704531 14.442719 7.4005709 14.4602 7.4257812 14.484375 C 7.4493614 14.508939 7.4661082 14.538374 7.4902344 14.5625 C 7.5159976 14.588263 7.5479569 14.605719 7.5742188 14.630859 C 7.5965198 14.654038 7.6119776 14.68229 7.6347656 14.705078 C 7.6575537 14.727866 7.6858057 14.743324 7.7089844 14.765625 C 7.7341248 14.791887 7.7515805 14.823846 7.7773438 14.849609 C 7.8027794 14.875045 7.8334533 14.89314 7.859375 14.917969 C 7.8813321 14.940776 7.897493 14.967806 7.9199219 14.990234 C 7.9423507 15.012663 7.9693802 15.028824 7.9921875 15.050781 C 8.0170161 15.076703 8.0351113 15.107377 8.0605469 15.132812 C 8.0843785 15.156644 8.1144132 15.172014 8.1386719 15.195312 C 8.1619708 15.219571 8.1773402 15.249606 8.2011719 15.273438 C 8.2249732 15.297239 8.2550697 15.312668 8.2792969 15.335938 C 8.3025668 15.360165 8.3179956 15.390261 8.3417969 15.414062 C 8.3652684 15.437534 8.394083 15.453608 8.4179688 15.476562 C 8.4409235 15.500448 8.4569972 15.529263 8.4804688 15.552734 C 8.5039403 15.576206 8.5327548 15.59228 8.5566406 15.615234 C 8.5795954 15.63912 8.5956691 15.667935 8.6191406 15.691406 C 8.6439215 15.716187 8.6739763 15.733608 8.6992188 15.757812 C 8.720549 15.779944 8.7360376 15.80635 8.7578125 15.828125 C 8.7808953 15.851208 8.8085477 15.868042 8.8320312 15.890625 C 8.8546143 15.914109 8.8714484 15.941761 8.8945312 15.964844 C 8.9176141 15.987927 8.9452665 16.004761 8.96875 16.027344 C 8.9913331 16.050827 9.0081672 16.07848 9.03125 16.101562 C 9.0523709 16.122683 9.0781527 16.137501 9.0996094 16.158203 C 9.1237847 16.183413 9.1412656 16.213531 9.1660156 16.238281 C 9.1888324 16.261098 9.217026 16.2765 9.2402344 16.298828 C 9.2625354 16.322007 9.2779932 16.350259 9.3007812 16.373047 C 9.3249075 16.397173 9.3543425 16.41392 9.3789062 16.4375 C 9.3996089 16.458957 9.414426 16.484739 9.4355469 16.505859 C 9.4579757 16.528288 9.4850052 16.544449 9.5078125 16.566406 C 9.5297696 16.589214 9.5459305 16.616243 9.5683594 16.638672 C 9.5907882 16.661101 9.6178177 16.677262 9.640625 16.699219 C 9.6625821 16.722026 9.678743 16.749056 9.7011719 16.771484 C 9.721998 16.79231 9.7483786 16.805752 9.7695312 16.826172 C 9.7928302 16.850431 9.8081996 16.880465 9.8320312 16.904297 C 9.8541933 16.926459 9.8817652 16.941189 9.9042969 16.962891 C 9.9259984 16.985422 9.9407285 17.012994 9.9628906 17.035156 C 9.9850247 17.05729 10.012654 17.072075 10.035156 17.09375 C 10.056831 17.116253 10.071616 17.143882 10.09375 17.166016 C 10.115552 17.187818 10.141903 17.203253 10.164062 17.224609 C 10.185419 17.246769 10.200854 17.27312 10.222656 17.294922 C 10.24479 17.317056 10.272419 17.331841 10.294922 17.353516 C 10.315996 17.375371 10.330055 17.402321 10.351562 17.423828 C 10.375005 17.44727 10.403879 17.463402 10.427734 17.486328 C 10.447208 17.506468 10.460626 17.530938 10.480469 17.550781 C 10.500282 17.570594 10.524813 17.584071 10.544922 17.603516 C 10.567877 17.627401 10.58395 17.656216 10.607422 17.679688 C 10.630239 17.702504 10.658432 17.717906 10.681641 17.740234 C 10.701115 17.760374 10.714532 17.784844 10.734375 17.804688 C 10.755855 17.826168 10.78286 17.840281 10.804688 17.861328 C 10.825735 17.883155 10.839848 17.910161 10.861328 17.931641 C 10.882482 17.952794 10.908197 17.967547 10.929688 17.988281 C 10.95039 18.009738 10.965207 18.03552 10.986328 18.056641 C 11.006171 18.076484 11.030641 18.089901 11.050781 18.109375 C 11.072483 18.131907 11.087213 18.159479 11.109375 18.181641 C 11.131832 18.204097 11.158805 18.220204 11.181641 18.242188 C 11.20074 18.261926 11.214921 18.285234 11.234375 18.304688 C 11.253563 18.323876 11.277409 18.336626 11.296875 18.355469 C 11.318577 18.378 11.333307 18.405572 11.355469 18.427734 C 11.377603 18.449868 11.405232 18.464653 11.427734 18.486328 C 11.446577 18.505794 11.459327 18.52964 11.478516 18.548828 C 11.497675 18.567987 11.52158 18.580795 11.541016 18.599609 C 11.56269 18.622112 11.577475 18.649741 11.599609 18.671875 C 11.621411 18.693677 11.647762 18.709113 11.669922 18.730469 C 11.68839 18.749535 11.701903 18.772216 11.720703 18.791016 C 11.739503 18.809815 11.762184 18.823328 11.78125 18.841797 C 11.802606 18.863957 11.818042 18.890307 11.839844 18.912109 C 11.860042 18.932307 11.885745 18.945028 11.90625 18.964844 C 11.926066 18.985349 11.938786 19.011052 11.958984 19.03125 C 11.980492 19.052757 12.007441 19.066817 12.029297 19.087891 C 12.047508 19.106683 12.059592 19.129904 12.078125 19.148438 C 12.09663 19.166942 12.119909 19.179082 12.138672 19.197266 C 12.159746 19.219121 12.173805 19.246071 12.195312 19.267578 C 12.21515 19.287416 12.239631 19.300844 12.259766 19.320312 C 12.279211 19.340421 12.292687 19.364953 12.3125 19.384766 C 12.333647 19.405913 12.359375 19.420678 12.380859 19.441406 C 12.398696 19.4598 12.411542 19.481854 12.429688 19.5 C 12.449141 19.519454 12.472449 19.533635 12.492188 19.552734 C 12.511286 19.572473 12.525468 19.595781 12.544922 19.615234 C 12.564376 19.634688 12.587683 19.64887 12.607422 19.667969 C 12.626521 19.687708 12.640703 19.711015 12.660156 19.730469 C 12.679344 19.749657 12.703191 19.762407 12.722656 19.78125 C 12.741471 19.800685 12.754279 19.824591 12.773438 19.84375 C 12.792596 19.862909 12.816502 19.875716 12.835938 19.894531 C 12.854752 19.913967 12.86756 19.937872 12.886719 19.957031 C 12.90421 19.974523 12.925637 19.986701 12.943359 20.003906 C 12.963458 20.024715 12.977554 20.04982 12.998047 20.070312 C 13.018514 20.090779 13.043671 20.104926 13.064453 20.125 C 13.081658 20.142722 13.093836 20.164149 13.111328 20.181641 C 13.130128 20.20044 13.152809 20.213953 13.171875 20.232422 C 13.190343 20.251488 13.203857 20.274169 13.222656 20.292969 C 13.241189 20.311502 13.264411 20.323586 13.283203 20.341797 C 13.301387 20.36056 13.313526 20.383839 13.332031 20.402344 C 13.350536 20.420849 13.373815 20.432988 13.392578 20.451172 C 13.410789 20.469964 13.422873 20.493186 13.441406 20.511719 C 13.459911 20.530224 13.48319 20.542363 13.501953 20.560547 C 13.520137 20.57931 13.532276 20.602589 13.550781 20.621094 C 13.568927 20.639239 13.590981 20.652085 13.609375 20.669922 C 13.627239 20.688345 13.640029 20.710342 13.658203 20.728516 C 13.676349 20.746661 13.698403 20.759507 13.716797 20.777344 C 13.734634 20.795738 13.747479 20.817792 13.765625 20.835938 C 13.783771 20.854083 13.805825 20.866929 13.824219 20.884766 C 13.842056 20.90316 13.854901 20.925214 13.873047 20.943359 C 13.891221 20.961533 13.913218 20.974323 13.931641 20.992188 C 13.948846 21.00991 13.961024 21.031336 13.978516 21.048828 C 13.996367 21.066679 14.019018 21.078151 14.037109 21.095703 C 14.054662 21.113794 14.066133 21.136446 14.083984 21.154297 C 14.101503 21.171816 14.122875 21.183941 14.140625 21.201172 C 14.15783 21.218894 14.170008 21.240321 14.1875 21.257812 C 14.204992 21.275304 14.226418 21.287482 14.244141 21.304688 C 14.261346 21.32241 14.273524 21.343836 14.291016 21.361328 C 14.308507 21.37882 14.329934 21.390998 14.347656 21.408203 C 14.364861 21.425926 14.37704 21.447352 14.394531 21.464844 C 14.411728 21.482041 14.433752 21.492846 14.451172 21.509766 C 14.468092 21.527186 14.478897 21.549209 14.496094 21.566406 C 14.513291 21.583603 14.535314 21.594408 14.552734 21.611328 C 14.569654 21.628748 14.580459 21.650772 14.597656 21.667969 C 14.613186 21.683499 14.632726 21.693681 14.648438 21.708984 C 14.666644 21.727772 14.678737 21.751003 14.697266 21.769531 C 14.714124 21.78639 14.73488 21.797861 14.751953 21.814453 C 14.768546 21.831526 14.780016 21.852282 14.796875 21.869141 C 14.813713 21.885978 14.834511 21.89749 14.851562 21.914062 C 14.868155 21.931136 14.879625 21.951891 14.896484 21.96875 C 14.914653 21.986918 14.936661 21.999719 14.955078 22.017578 C 14.970033 22.032922 14.980923 22.051236 14.996094 22.066406 C 15.012957 22.08327 15.033703 22.094731 15.050781 22.111328 C 15.06672 22.127709 15.077566 22.147879 15.09375 22.164062 C 15.108648 22.178961 15.127512 22.188435 15.142578 22.203125 C 15.160152 22.22124 15.171579 22.243845 15.189453 22.261719 C 15.205657 22.277923 15.225785 22.288729 15.242188 22.304688 C 15.258146 22.32109 15.268952 22.341218 15.285156 22.357422 C 15.30134 22.373606 15.321509 22.384452 15.337891 22.400391 C 15.353849 22.416793 15.364655 22.436921 15.380859 22.453125 C 15.398373 22.470639 15.419755 22.482774 15.4375 22.5 C 15.451819 22.514676 15.462046 22.532358 15.476562 22.546875 C 15.492387 22.5627 15.51133 22.574254 15.527344 22.589844 C 15.542934 22.605857 15.554488 22.6248 15.570312 22.640625 C 15.586137 22.65645 15.60508 22.668004 15.621094 22.683594 C 15.636684 22.699607 15.648238 22.71855 15.664062 22.734375 C 15.679616 22.749928 15.699108 22.760064 15.714844 22.775391 C 15.730148 22.791102 15.74033 22.810642 15.755859 22.826172 C 15.771389 22.841702 15.790929 22.851884 15.806641 22.867188 C 15.821944 22.882899 15.832126 22.902439 15.847656 22.917969 C 15.861519 22.931831 15.87857 22.941396 15.892578 22.955078 C 15.909171 22.972151 15.920641 22.992907 15.9375 23.009766 C 15.954338 23.026603 15.975136 23.038115 15.992188 23.054688 C 16.00587 23.068695 16.015434 23.085747 16.029297 23.099609 C 16.042505 23.112818 16.058925 23.12172 16.072266 23.134766 C 16.088858 23.151839 16.100329 23.172594 16.117188 23.189453 C 16.134025 23.206291 16.154823 23.217803 16.171875 23.234375 C 16.18492 23.247715 16.193823 23.264135 16.207031 23.277344 C 16.221907 23.29222 16.240817 23.301738 16.255859 23.316406 C 16.270528 23.331449 16.280046 23.350359 16.294922 23.365234 C 16.309798 23.38011 16.328707 23.389628 16.34375 23.404297 C 16.358419 23.41934 16.367937 23.438249 16.382812 23.453125 C 16.397351 23.467664 16.414989 23.477847 16.429688 23.492188 C 16.444007 23.506863 16.454233 23.524546 16.46875 23.539062 C 16.483267 23.553579 16.500949 23.563806 16.515625 23.578125 C 16.529944 23.592801 16.540171 23.610483 16.554688 23.625 C 16.567242 23.637555 16.583029 23.645796 16.595703 23.658203 C 16.611661 23.674605 16.622468 23.694733 16.638672 23.710938 C 16.652912 23.725178 16.671154 23.733997 16.685547 23.748047 C 16.699597 23.76244 16.708416 23.780682 16.722656 23.794922 C 16.737173 23.809438 16.754856 23.819665 16.769531 23.833984 C 16.783231 23.84801 16.792761 23.865026 16.806641 23.878906 C 16.82219 23.894456 16.84169 23.904599 16.857422 23.919922 C 16.869829 23.932596 16.87807 23.948383 16.890625 23.960938 C 16.904488 23.9748 16.921539 23.984364 16.935547 23.998047 C 16.949229 24.012055 16.958794 24.029106 16.972656 24.042969 C 16.984852 24.055164 16.999411 24.064116 17.011719 24.076172 C 17.026692 24.091535 17.037545 24.109811 17.052734 24.125 C 17.067924 24.140189 17.086199 24.151042 17.101562 24.166016 C 17.113619 24.178323 17.12257 24.192883 17.134766 24.205078 C 17.146684 24.216997 17.161802 24.224542 17.173828 24.236328 C 17.188515 24.25139 17.197996 24.270261 17.212891 24.285156 C 17.228061 24.300327 17.246374 24.311217 17.261719 24.326172 C 17.273135 24.337814 17.281427 24.35174 17.292969 24.363281 C 17.306177 24.37649 17.322597 24.385392 17.335938 24.398438 C 17.349002 24.411799 17.357865 24.428177 17.371094 24.441406 C 17.384302 24.454615 17.400722 24.463517 17.414062 24.476562 C 17.427108 24.489903 17.43601 24.506323 17.449219 24.519531 C 17.461773 24.532086 17.477561 24.540327 17.490234 24.552734 C 17.503299 24.566095 17.512162 24.582474 17.525391 24.595703 C 17.537945 24.608258 17.553733 24.616499 17.566406 24.628906 C 17.579471 24.642267 17.588334 24.658646 17.601562 24.671875 C 17.614412 24.684724 17.629604 24.694336 17.642578 24.707031 C 17.655273 24.720005 17.664885 24.735197 17.677734 24.748047 C 17.690289 24.760601 17.706076 24.768843 17.71875 24.78125 C 17.731157 24.793924 17.739399 24.809711 17.751953 24.822266 C 17.764508 24.83482 17.780295 24.843062 17.792969 24.855469 C 17.805376 24.868142 17.813617 24.88393 17.826172 24.896484 C 17.837059 24.907372 17.850351 24.915005 17.861328 24.925781 C 17.875011 24.939789 17.884575 24.956841 17.898438 24.970703 C 17.910648 24.982914 17.925177 24.991835 17.9375 25.003906 C 17.949571 25.016229 17.958493 25.030758 17.970703 25.042969 C 17.984583 25.056849 18.0016 25.066379 18.015625 25.080078 C 18.02576 25.090391 18.032735 25.103048 18.042969 25.113281 C 18.053202 25.123515 18.065859 25.13049 18.076172 25.140625 C 18.089854 25.154633 18.099419 25.171684 18.113281 25.185547 C 18.125197 25.197463 18.140321 25.205014 18.152344 25.216797 C 18.164112 25.228805 18.171693 25.243959 18.183594 25.255859 C 18.196819 25.269085 18.213205 25.277954 18.226562 25.291016 C 18.236698 25.301328 18.243673 25.313985 18.253906 25.324219 C 18.265448 25.33576 18.279374 25.344052 18.291016 25.355469 C 18.302432 25.367111 18.310724 25.381037 18.322266 25.392578 C 18.333807 25.40412 18.347733 25.412411 18.359375 25.423828 C 18.370792 25.43547 18.379084 25.449396 18.390625 25.460938 C 18.401872 25.472184 18.416392 25.479106 18.427734 25.490234 C 18.438879 25.501594 18.445768 25.51608 18.457031 25.527344 C 18.468278 25.53859 18.482798 25.545512 18.494141 25.556641 C 18.505285 25.568 18.512174 25.582486 18.523438 25.59375 C 18.534684 25.604997 18.549205 25.611919 18.560547 25.623047 C 18.571675 25.634389 18.578597 25.64891 18.589844 25.660156 C 18.600731 25.671044 18.614023 25.678677 18.625 25.689453 C 18.635776 25.70043 18.643409 25.713722 18.654297 25.724609 C 18.665184 25.735497 18.678476 25.74313 18.689453 25.753906 C 18.70023 25.764883 18.707863 25.778175 18.71875 25.789062 C 18.727675 25.797988 18.739061 25.803649 18.748047 25.8125 C 18.760469 25.82519 18.768679 25.840945 18.78125 25.853516 C 18.791856 25.864122 18.805715 25.870358 18.816406 25.880859 C 18.826907 25.891551 18.833144 25.905409 18.84375 25.916016 C 18.854637 25.926903 18.867929 25.934536 18.878906 25.945312 C 18.889054 25.955638 18.896004 25.968269 18.90625 25.978516 C 18.918166 25.990431 18.933289 25.997983 18.945312 26.009766 C 18.954163 26.018751 18.959825 26.030137 18.96875 26.039062 C 18.978983 26.049296 18.99164 26.056271 19.001953 26.066406 C 19.012089 26.076719 19.019063 26.089376 19.029297 26.099609 C 19.037876 26.108189 19.048005 26.114536 19.056641 26.123047 C 19.068057 26.134689 19.076349 26.148615 19.087891 26.160156 C 19.097842 26.170108 19.111067 26.175688 19.121094 26.185547 C 19.130953 26.195574 19.136533 26.208798 19.146484 26.21875 C 19.156718 26.228983 19.169375 26.235958 19.179688 26.246094 C 19.189193 26.255755 19.195487 26.267752 19.205078 26.277344 C 19.216339 26.288605 19.23083 26.295498 19.242188 26.306641 C 19.250395 26.314964 19.2554 26.325713 19.263672 26.333984 C 19.273251 26.343564 19.285273 26.349881 19.294922 26.359375 C 19.304415 26.369024 19.310733 26.381046 19.320312 26.390625 C 19.329892 26.400204 19.341914 26.406522 19.351562 26.416016 C 19.361056 26.425665 19.367374 26.437686 19.376953 26.447266 C 19.386188 26.4565 19.396951 26.463501 19.40625 26.472656 C 19.415391 26.481941 19.42242 26.492733 19.431641 26.501953 C 19.440861 26.511173 19.451653 26.518203 19.460938 26.527344 C 19.470078 26.536628 19.477108 26.54742 19.486328 26.556641 C 19.493586 26.563899 19.502467 26.568963 19.509766 26.576172 C 19.520555 26.587163 19.528162 26.600427 19.539062 26.611328 C 19.549963 26.622229 19.563228 26.629835 19.574219 26.640625 C 19.581428 26.647923 19.586492 26.656804 19.59375 26.664062 C 19.601019 26.671332 19.609878 26.676374 19.617188 26.683594 C 19.627335 26.693919 19.634285 26.706551 19.644531 26.716797 C 19.654778 26.727043 19.667409 26.733993 19.677734 26.744141 C 19.684943 26.751439 19.690007 26.76032 19.697266 26.767578 C 19.705832 26.776144 19.715988 26.782518 19.724609 26.791016 C 19.733107 26.799637 19.739481 26.809793 19.748047 26.818359 C 19.754651 26.824964 19.762894 26.829374 19.769531 26.835938 C 19.779679 26.846263 19.786629 26.858894 19.796875 26.869141 C 19.807108 26.879374 19.819765 26.886349 19.830078 26.896484 C 19.836642 26.903122 19.841052 26.911364 19.847656 26.917969 C 19.855928 26.92624 19.866677 26.931246 19.875 26.939453 C 19.883207 26.947776 19.888213 26.958525 19.896484 26.966797 C 19.903089 26.973401 19.911331 26.977812 19.917969 26.984375 C 19.927462 26.994024 19.93378 27.006046 19.943359 27.015625 C 19.951281 27.023547 19.96078 27.029246 19.96875 27.037109 C 19.976613 27.045079 19.982312 27.054578 19.990234 27.0625 C 19.999826 27.072092 20.011823 27.078385 20.021484 27.087891 C 20.027411 27.093877 20.03115 27.101463 20.037109 27.107422 C 20.04306 27.113372 20.050663 27.11713 20.056641 27.123047 C 20.066146 27.132708 20.07244 27.144705 20.082031 27.154297 C 20.089649 27.161914 20.09976 27.166265 20.107422 27.173828 C 20.114995 27.1815 20.119326 27.191591 20.126953 27.199219 C 20.135879 27.208144 20.147264 27.213805 20.15625 27.222656 C 20.162176 27.228643 20.165916 27.236228 20.171875 27.242188 C 20.177825 27.248138 20.185429 27.251895 20.191406 27.257812 C 20.200268 27.26681 20.205907 27.278173 20.214844 27.287109 C 20.222111 27.294377 20.230974 27.299423 20.238281 27.306641 C 20.24549 27.313939 20.250554 27.32282 20.257812 27.330078 C 20.266749 27.339015 20.278112 27.344654 20.287109 27.353516 C 20.292379 27.358833 20.295485 27.365797 20.300781 27.371094 C 20.307745 27.378057 20.317218 27.381754 20.324219 27.388672 C 20.331137 27.395672 20.334833 27.405146 20.341797 27.412109 C 20.347093 27.417406 20.354057 27.420511 20.359375 27.425781 C 20.367593 27.434115 20.372577 27.444843 20.380859 27.453125 C 20.389426 27.461691 20.399581 27.468065 20.408203 27.476562 C 20.413117 27.481518 20.416938 27.48725 20.421875 27.492188 C 20.428479 27.498792 20.436722 27.503202 20.443359 27.509766 C 20.449923 27.516403 20.454333 27.524646 20.460938 27.53125 C 20.465875 27.536187 20.471607 27.540008 20.476562 27.544922 C 20.484426 27.552891 20.490125 27.56239 20.498047 27.570312 C 20.505969 27.578235 20.515468 27.583934 20.523438 27.591797 C 20.528352 27.596752 20.532172 27.602485 20.537109 27.607422 C 20.541759 27.612071 20.548069 27.614512 20.552734 27.619141 C 20.560307 27.626812 20.564638 27.636904 20.572266 27.644531 C 20.580188 27.652453 20.589687 27.658152 20.597656 27.666016 C 20.601922 27.670313 20.605092 27.675404 20.609375 27.679688 C 20.615325 27.685638 20.622929 27.689395 20.628906 27.695312 C 20.634823 27.70129 20.638581 27.708893 20.644531 27.714844 C 20.650482 27.720794 20.658085 27.724552 20.664062 27.730469 C 20.66998 27.736446 20.673737 27.74405 20.679688 27.75 C 20.685287 27.7556 20.691642 27.760054 20.697266 27.765625 C 20.702827 27.77124 20.7073 27.777612 20.712891 27.783203 C 20.718482 27.788794 20.724854 27.793266 20.730469 27.798828 C 20.736031 27.804443 20.740503 27.810815 20.746094 27.816406 C 20.749723 27.820035 20.754173 27.822555 20.757812 27.826172 C 20.76503 27.833479 20.770076 27.842342 20.777344 27.849609 C 20.782647 27.854913 20.789597 27.858004 20.794922 27.863281 C 20.800199 27.868606 20.803291 27.875556 20.808594 27.880859 C 20.81389 27.886156 20.820854 27.889261 20.826172 27.894531 C 20.831449 27.899856 20.834541 27.906806 20.839844 27.912109 C 20.846456 27.918722 20.854682 27.923116 20.861328 27.929688 C 20.864945 27.933327 20.867465 27.937777 20.871094 27.941406 C 20.876031 27.946343 20.881763 27.950164 20.886719 27.955078 C 20.891633 27.960034 20.895454 27.965766 20.900391 27.970703 C 20.903366 27.973678 20.907174 27.975549 20.910156 27.978516 C 20.916728 27.985161 20.921122 27.993387 20.927734 28 C 20.934347 28.006613 20.942573 28.011006 20.949219 28.017578 C 20.952186 28.02056 20.954056 28.024369 20.957031 28.027344 C 20.960011 28.030323 20.96381 28.032185 20.966797 28.035156 C 20.972722 28.041141 20.976464 28.04873 20.982422 28.054688 C 20.988372 28.060638 20.995976 28.064395 21.001953 28.070312 C 21.00492 28.073294 21.00679 28.077103 21.009766 28.080078 C 21.014049 28.084361 21.01914 28.087531 21.023438 28.091797 C 21.02771 28.096101 21.030866 28.101179 21.035156 28.105469 C 21.039439 28.109752 21.044531 28.112922 21.048828 28.117188 C 21.053094 28.121485 21.056264 28.126576 21.060547 28.130859 C 21.062868 28.133181 21.066034 28.134403 21.068359 28.136719 C 21.074277 28.142696 21.078034 28.1503 21.083984 28.15625 C 21.087978 28.160244 21.09365 28.162037 21.097656 28.166016 C 21.10163 28.170016 21.103434 28.175699 21.107422 28.179688 C 21.112725 28.184991 21.119675 28.188082 21.125 28.193359 C 21.127316 28.195685 21.128538 28.198851 21.130859 28.201172 C 21.134489 28.204801 21.138939 28.207321 21.142578 28.210938 C 21.146195 28.214577 21.148715 28.219027 21.152344 28.222656 C 21.155973 28.226285 21.160423 28.228805 21.164062 28.232422 C 21.167679 28.236061 21.170199 28.240511 21.173828 28.244141 C 21.17579 28.246103 21.177723 28.248042 21.179688 28.25 C 21.184608 28.254962 21.188416 28.260682 21.193359 28.265625 C 21.196698 28.268964 21.201731 28.270109 21.205078 28.273438 C 21.208407 28.276785 21.209552 28.281817 21.212891 28.285156 C 21.217834 28.290099 21.223554 28.293908 21.228516 28.298828 C 21.229822 28.300137 21.231114 28.301426 21.232422 28.302734 C 21.23373 28.304042 21.235019 28.305334 21.236328 28.306641 C 21.241248 28.311602 21.245057 28.317323 21.25 28.322266 C 21.252979 28.325245 21.25678 28.327107 21.259766 28.330078 C 21.262736 28.333064 21.264599 28.336865 21.267578 28.339844 C 21.271866 28.344132 21.276948 28.347291 21.28125 28.351562 C 21.282556 28.352872 21.283848 28.354161 21.285156 28.355469 C 21.287772 28.358085 21.290348 28.360672 21.292969 28.363281 C 21.295578 28.365902 21.298165 28.368478 21.300781 28.371094 C 21.303397 28.37371 21.305973 28.376297 21.308594 28.378906 C 21.311203 28.381527 21.31379 28.384103 21.316406 28.386719 C 21.316406 28.386719 21.318359 28.388672 21.318359 28.388672 C 21.322625 28.392969 21.325795 28.398061 21.330078 28.402344 C 21.332402 28.404668 21.335562 28.405884 21.337891 28.408203 C 21.34021 28.410531 21.341426 28.413691 21.34375 28.416016 C 21.347384 28.419649 21.351825 28.42216 21.355469 28.425781 C 21.355469 28.425781 21.357422 28.427734 21.357422 28.427734 C 21.357422 28.427734 21.359375 28.429688 21.359375 28.429688 C 21.362992 28.433327 21.365511 28.437777 21.369141 28.441406 C 21.372774 28.44504 21.377216 28.447551 21.380859 28.451172 C 21.382821 28.453134 21.384754 28.455073 21.386719 28.457031 C 21.388677 28.458996 21.390616 28.460929 21.392578 28.462891 C 21.393561 28.463879 21.397453 28.465809 21.398438 28.466797 C 21.400102 28.468466 21.400677 28.470989 21.402344 28.472656 C 21.405314 28.475642 21.407177 28.479443 21.410156 28.482422 C 21.414439 28.486705 21.419531 28.489875 21.423828 28.494141 C 21.423828 28.494141 21.425781 28.496094 21.425781 28.496094 C 21.425781 28.496094 21.427734 28.498047 21.427734 28.498047 C 21.430054 28.500375 21.43127 28.503535 21.433594 28.505859 C 21.435267 28.507533 21.439731 28.510048 21.441406 28.511719 C 21.443073 28.51339 21.443643 28.515909 21.445312 28.517578 C 21.44698 28.519245 21.451456 28.521773 21.453125 28.523438 C 21.453125 28.523438 21.455078 28.525391 21.455078 28.525391 C 21.455078 28.525391 21.457031 28.527344 21.457031 28.527344 C 21.457031 28.527344 21.458984 28.529297 21.458984 28.529297 C 21.460943 28.531262 21.462882 28.533194 21.464844 28.535156 C 21.696109 28.766166 21.949142 28.971066 22.216797 29.150391 C 22.218312 29.151404 22.219187 29.153286 22.220703 29.154297 C 22.220703 29.154297 22.222656 29.15625 22.222656 29.15625 C 22.222656 29.15625 22.224609 29.158203 22.224609 29.158203 C 22.225367 29.158709 22.225804 29.159651 22.226562 29.160156 C 22.706491 29.480181 23.241979 29.697298 23.800781 29.835938 C 23.874439 29.854187 23.943024 29.887441 24.017578 29.902344 C 24.018192 29.902467 24.018918 29.902221 24.019531 29.902344 C 24.050818 29.908585 24.083804 29.906463 24.115234 29.912109 C 24.405647 29.964397 24.700847 30 25 30 C 25.330867 30 25.658757 29.966132 25.978516 29.902344 C 25.979129 29.902221 25.979856 29.902467 25.980469 29.902344 C 26.941549 29.710232 27.831895 29.238418 28.535156 28.535156 C 29.238418 27.831895 29.710232 26.941549 29.902344 25.980469 C 29.90247 25.979837 29.902218 25.979148 29.902344 25.978516 C 29.966132 25.658757 30 25.330867 30 25 C 30 24.700847 29.964397 24.405647 29.912109 24.115234 C 29.906341 24.083196 29.90873 24.049467 29.902344 24.017578 C 29.887441 23.943024 29.854187 23.874439 29.835938 23.800781 C 29.697298 23.241979 29.480181 22.706491 29.160156 22.226562 C 29.159651 22.225804 29.158709 22.225367 29.158203 22.224609 C 29.158203 22.224609 29.15625 22.222656 29.15625 22.222656 C 29.15625 22.222656 29.154297 22.220703 29.154297 22.220703 C 29.153286 22.219187 29.151404 22.218312 29.150391 22.216797 C 28.971066 21.949142 28.766166 21.696109 28.535156 21.464844 C 28.534143 21.463831 28.532264 21.463903 28.53125 21.462891 C 28.53125 21.462891 28.53125 21.460938 28.53125 21.460938 C 28.530595 21.460284 28.529952 21.459637 28.529297 21.458984 C 28.529297 21.458984 28.527344 21.457031 28.527344 21.457031 C 28.527344 21.457031 28.525391 21.455078 28.525391 21.455078 C 28.525391 21.455078 28.523438 21.453125 28.523438 21.453125 C 28.523438 21.453125 28.521484 21.451172 28.521484 21.451172 C 28.51982 21.449503 28.519245 21.44698 28.517578 21.445312 C 28.515909 21.443643 28.51339 21.443073 28.511719 21.441406 C 28.511719 21.441406 28.509766 21.439453 28.509766 21.439453 C 28.508095 21.437777 28.507533 21.435267 28.505859 21.433594 C 28.503535 21.43127 28.500375 21.430054 28.498047 21.427734 C 28.498047 21.427734 28.496094 21.425781 28.496094 21.425781 C 28.496094 21.425781 28.494141 21.423828 28.494141 21.423828 C 28.492831 21.422522 28.491545 21.421227 28.490234 21.419922 C 28.487264 21.416936 28.485401 21.413135 28.482422 21.410156 C 28.479443 21.407177 28.475642 21.405314 28.472656 21.402344 C 28.470989 21.400677 28.466513 21.398149 28.464844 21.396484 C 28.463891 21.39554 28.463844 21.393522 28.462891 21.392578 C 28.460929 21.390616 28.458996 21.388677 28.457031 21.386719 C 28.455073 21.384754 28.453134 21.382821 28.451172 21.380859 C 28.447551 21.377216 28.44504 21.372774 28.441406 21.369141 C 28.437777 21.365511 28.431374 21.361039 28.427734 21.357422 C 28.427734 21.357422 28.425781 21.355469 28.425781 21.355469 C 28.42216 21.351825 28.419649 21.347384 28.416016 21.34375 C 28.413691 21.341426 28.410531 21.34021 28.408203 21.337891 C 28.405884 21.335562 28.404668 21.332402 28.402344 21.330078 C 28.398061 21.325795 28.391016 21.320672 28.386719 21.316406 C 28.384103 21.31379 28.381527 21.311203 28.378906 21.308594 C 28.376297 21.305973 28.37371 21.303397 28.371094 21.300781 C 28.368478 21.298165 28.365902 21.295578 28.363281 21.292969 C 28.360672 21.290348 28.358085 21.287772 28.355469 21.285156 C 28.354161 21.283848 28.352872 21.282556 28.351562 21.28125 C 28.347291 21.276948 28.344132 21.271866 28.339844 21.267578 C 28.336865 21.264599 28.333064 21.262736 28.330078 21.259766 C 28.327107 21.25678 28.325245 21.252979 28.322266 21.25 C 28.316013 21.243748 28.309016 21.238638 28.302734 21.232422 C 28.301426 21.231114 28.300137 21.229822 28.298828 21.228516 C 28.293908 21.223554 28.290099 21.217834 28.285156 21.212891 C 28.281817 21.209552 28.276785 21.208407 28.273438 21.205078 C 28.270109 21.201731 28.268964 21.196698 28.265625 21.193359 C 28.260682 21.188416 28.254962 21.184608 28.25 21.179688 C 28.248042 21.177723 28.246103 21.17579 28.244141 21.173828 C 28.240511 21.170199 28.236061 21.167679 28.232422 21.164062 C 28.228805 21.160423 28.226285 21.155973 28.222656 21.152344 C 28.219027 21.148715 28.214577 21.146195 28.210938 21.142578 C 28.207321 21.138939 28.204801 21.134489 28.201172 21.130859 C 28.198851 21.128538 28.195685 21.127316 28.193359 21.125 C 28.188082 21.119675 28.184991 21.112725 28.179688 21.107422 C 28.175699 21.103434 28.170016 21.10163 28.166016 21.097656 C 28.162037 21.09365 28.160244 21.087978 28.15625 21.083984 C 28.1503 21.078034 28.142696 21.074277 28.136719 21.068359 C 28.134403 21.066034 28.133181 21.062868 28.130859 21.060547 C 28.126576 21.056264 28.121485 21.053094 28.117188 21.048828 C 28.112922 21.044531 28.109752 21.039439 28.105469 21.035156 C 28.101179 21.030866 28.096101 21.02771 28.091797 21.023438 C 28.087531 21.01914 28.084361 21.014049 28.080078 21.009766 C 28.077103 21.00679 28.073294 21.00492 28.070312 21.001953 C 28.064395 20.995976 28.060638 20.988372 28.054688 20.982422 C 28.04873 20.976464 28.041141 20.972722 28.035156 20.966797 C 28.032185 20.96381 28.030323 20.960011 28.027344 20.957031 C 28.024369 20.954056 28.02056 20.952186 28.017578 20.949219 C 28.011006 20.942573 28.006613 20.934347 28 20.927734 C 27.993387 20.921122 27.985161 20.916728 27.978516 20.910156 C 27.975549 20.907174 27.973678 20.903366 27.970703 20.900391 C 27.965766 20.895454 27.960034 20.891633 27.955078 20.886719 C 27.950164 20.881763 27.946343 20.876031 27.941406 20.871094 C 27.937777 20.867465 27.933327 20.864945 27.929688 20.861328 C 27.923116 20.854682 27.918722 20.846456 27.912109 20.839844 C 27.906806 20.834541 27.899856 20.831449 27.894531 20.826172 C 27.889261 20.820854 27.886156 20.81389 27.880859 20.808594 C 27.875556 20.803291 27.868606 20.800199 27.863281 20.794922 C 27.858004 20.789597 27.854913 20.782647 27.849609 20.777344 C 27.842342 20.770076 27.833479 20.76503 27.826172 20.757812 C 27.822555 20.754173 27.820035 20.749723 27.816406 20.746094 C 27.810815 20.740503 27.804443 20.736031 27.798828 20.730469 C 27.793266 20.724854 27.788794 20.718482 27.783203 20.712891 C 27.777612 20.7073 27.77124 20.702827 27.765625 20.697266 C 27.760054 20.691642 27.7556 20.685287 27.75 20.679688 C 27.74405 20.673737 27.736446 20.66998 27.730469 20.664062 C 27.724552 20.658085 27.720794 20.650482 27.714844 20.644531 C 27.708893 20.638581 27.70129 20.634823 27.695312 20.628906 C 27.689395 20.622929 27.685638 20.615325 27.679688 20.609375 C 27.675404 20.605092 27.670313 20.601922 27.666016 20.597656 C 27.658152 20.589687 27.652453 20.580188 27.644531 20.572266 C 27.636904 20.564638 27.626812 20.560307 27.619141 20.552734 C 27.614512 20.548069 27.612071 20.541759 27.607422 20.537109 C 27.602485 20.532172 27.596752 20.528352 27.591797 20.523438 C 27.583934 20.515468 27.578235 20.505969 27.570312 20.498047 C 27.56239 20.490125 27.552891 20.484426 27.544922 20.476562 C 27.540008 20.471607 27.536187 20.465875 27.53125 20.460938 C 27.524646 20.454333 27.516403 20.449923 27.509766 20.443359 C 27.503202 20.436722 27.498792 20.428479 27.492188 20.421875 C 27.48725 20.416938 27.481518 20.413117 27.476562 20.408203 C 27.468065 20.399581 27.461691 20.389426 27.453125 20.380859 C 27.444843 20.372577 27.434115 20.367593 27.425781 20.359375 C 27.420511 20.354057 27.417406 20.347093 27.412109 20.341797 C 27.405146 20.334833 27.395672 20.331137 27.388672 20.324219 C 27.381754 20.317218 27.378057 20.307745 27.371094 20.300781 C 27.365797 20.295485 27.358833 20.292379 27.353516 20.287109 C 27.344654 20.278112 27.339015 20.266749 27.330078 20.257812 C 27.32282 20.250554 27.313939 20.24549 27.306641 20.238281 C 27.299423 20.230974 27.294377 20.222111 27.287109 20.214844 C 27.278173 20.205907 27.26681 20.200268 27.257812 20.191406 C 27.251895 20.185429 27.248138 20.177825 27.242188 20.171875 C 27.236228 20.165916 27.228643 20.162176 27.222656 20.15625 C 27.213805 20.147264 27.208144 20.135879 27.199219 20.126953 C 27.191591 20.119326 27.1815 20.114995 27.173828 20.107422 C 27.166265 20.09976 27.161914 20.089649 27.154297 20.082031 C 27.144705 20.07244 27.132708 20.066146 27.123047 20.056641 C 27.11713 20.050663 27.113372 20.04306 27.107422 20.037109 C 27.101463 20.03115 27.093877 20.027411 27.087891 20.021484 C 27.078385 20.011823 27.072092 19.999826 27.0625 19.990234 C 27.054578 19.982312 27.045079 19.976613 27.037109 19.96875 C 27.029246 19.96078 27.023547 19.951281 27.015625 19.943359 C 27.006046 19.93378 26.994024 19.927462 26.984375 19.917969 C 26.977812 19.911331 26.973401 19.903089 26.966797 19.896484 C 26.958525 19.888213 26.947776 19.883207 26.939453 19.875 C 26.931246 19.866677 26.92624 19.855928 26.917969 19.847656 C 26.911364 19.841052 26.903122 19.836642 26.896484 19.830078 C 26.886349 19.819765 26.879374 19.807108 26.869141 19.796875 C 26.858894 19.786629 26.846263 19.779679 26.835938 19.769531 C 26.829374 19.762894 26.824964 19.754651 26.818359 19.748047 C 26.809793 19.739481 26.799637 19.733107 26.791016 19.724609 C 26.782518 19.715988 26.776144 19.705832 26.767578 19.697266 C 26.76032 19.690007 26.751439 19.684943 26.744141 19.677734 C 26.733993 19.667409 26.727043 19.654778 26.716797 19.644531 C 26.706551 19.634285 26.693919 19.627335 26.683594 19.617188 C 26.676374 19.609878 26.671332 19.601019 26.664062 19.59375 C 26.656804 19.586492 26.647923 19.581428 26.640625 19.574219 C 26.629835 19.563228 26.622229 19.549963 26.611328 19.539062 C 26.600427 19.528162 26.587163 19.520555 26.576172 19.509766 C 26.568963 19.502467 26.563899 19.493586 26.556641 19.486328 C 26.54742 19.477108 26.536628 19.470078 26.527344 19.460938 C 26.518203 19.451653 26.511173 19.440861 26.501953 19.431641 C 26.492733 19.42242 26.481941 19.415391 26.472656 19.40625 C 26.463501 19.396951 26.4565 19.386188 26.447266 19.376953 C 26.437686 19.367374 26.425665 19.361056 26.416016 19.351562 C 26.406522 19.341914 26.400204 19.329892 26.390625 19.320312 C 26.381046 19.310733 26.369024 19.304415 26.359375 19.294922 C 26.349881 19.285273 26.343564 19.273251 26.333984 19.263672 C 26.325713 19.2554 26.314964 19.250395 26.306641 19.242188 C 26.295498 19.23083 26.288605 19.216339 26.277344 19.205078 C 26.267392 19.195126 26.254167 19.189547 26.244141 19.179688 C 26.234282 19.169661 26.228702 19.156436 26.21875 19.146484 C 26.208798 19.136533 26.195574 19.130953 26.185547 19.121094 C 26.175688 19.111067 26.170108 19.097842 26.160156 19.087891 C 26.148601 19.076335 26.134704 19.068071 26.123047 19.056641 C 26.114549 19.048019 26.108176 19.037863 26.099609 19.029297 C 26.089376 19.019063 26.076719 19.012089 26.066406 19.001953 C 26.056271 18.99164 26.049296 18.978983 26.039062 18.96875 C 26.030137 18.959825 26.018751 18.954163 26.009766 18.945312 C 25.997983 18.933289 25.990431 18.918166 25.978516 18.90625 C 25.9666 18.894334 25.951476 18.886783 25.939453 18.875 C 25.930589 18.866 25.924955 18.854642 25.916016 18.845703 C 25.90709 18.836778 25.895705 18.831117 25.886719 18.822266 C 25.874296 18.809576 25.866086 18.793821 25.853516 18.78125 C 25.840945 18.768679 25.82519 18.760469 25.8125 18.748047 C 25.803649 18.739061 25.797988 18.727675 25.789062 18.71875 C 25.778175 18.707863 25.764883 18.70023 25.753906 18.689453 C 25.74313 18.678476 25.735497 18.665184 25.724609 18.654297 C 25.713722 18.643409 25.70043 18.635776 25.689453 18.625 C 25.678677 18.614023 25.671044 18.600731 25.660156 18.589844 C 25.64891 18.578597 25.634389 18.571675 25.623047 18.560547 C 25.611919 18.549205 25.604997 18.534684 25.59375 18.523438 C 25.582486 18.512174 25.568 18.505285 25.556641 18.494141 C 25.545512 18.482798 25.53859 18.468278 25.527344 18.457031 C 25.51608 18.445768 25.501594 18.438879 25.490234 18.427734 C 25.479106 18.416392 25.472184 18.401872 25.460938 18.390625 C 25.449396 18.379084 25.43547 18.370792 25.423828 18.359375 C 25.412411 18.347733 25.40412 18.333807 25.392578 18.322266 C 25.381037 18.310724 25.367111 18.302432 25.355469 18.291016 C 25.344052 18.279374 25.33576 18.265448 25.324219 18.253906 C 25.313985 18.243673 25.301328 18.236698 25.291016 18.226562 C 25.277954 18.213205 25.269085 18.196819 25.255859 18.183594 C 25.243959 18.171693 25.228805 18.164112 25.216797 18.152344 C 25.205014 18.140321 25.197463 18.125197 25.185547 18.113281 C 25.171667 18.099401 25.15465 18.089871 25.140625 18.076172 C 25.13049 18.065859 25.123515 18.053202 25.113281 18.042969 C 25.103048 18.032735 25.090391 18.02576 25.080078 18.015625 C 25.066379 18.0016 25.056849 17.984583 25.042969 17.970703 C 25.030758 17.958493 25.016229 17.949571 25.003906 17.9375 C 24.991835 17.925177 24.982914 17.910648 24.970703 17.898438 C 24.956841 17.884575 24.939789 17.875011 24.925781 17.861328 C 24.915005 17.850351 24.907372 17.837059 24.896484 17.826172 C 24.88393 17.813617 24.868142 17.805376 24.855469 17.792969 C 24.843062 17.780295 24.83482 17.764508 24.822266 17.751953 C 24.809711 17.739399 24.793924 17.731157 24.78125 17.71875 C 24.768843 17.706076 24.760601 17.690289 24.748047 17.677734 C 24.735197 17.664885 24.720005 17.655273 24.707031 17.642578 C 24.694336 17.629604 24.684724 17.614412 24.671875 17.601562 C 24.658646 17.588334 24.642267 17.579471 24.628906 17.566406 C 24.616499 17.553733 24.608258 17.537945 24.595703 17.525391 C 24.582474 17.512162 24.566095 17.503299 24.552734 17.490234 C 24.540327 17.477561 24.532086 17.461773 24.519531 17.449219 C 24.506323 17.43601 24.489903 17.427108 24.476562 17.414062 C 24.463517 17.400722 24.454615 17.384302 24.441406 17.371094 C 24.428198 17.357885 24.411778 17.348983 24.398438 17.335938 C 24.385392 17.322597 24.37649 17.306177 24.363281 17.292969 C 24.351381 17.281068 24.336226 17.273487 24.324219 17.261719 C 24.309532 17.246656 24.300051 17.227785 24.285156 17.212891 C 24.270261 17.197996 24.25139 17.188515 24.236328 17.173828 C 24.224542 17.161802 24.216997 17.146684 24.205078 17.134766 C 24.192883 17.12257 24.178323 17.113619 24.166016 17.101562 C 24.151042 17.086199 24.140189 17.067924 24.125 17.052734 C 24.109811 17.037545 24.091535 17.026692 24.076172 17.011719 C 24.064116 16.999411 24.055164 16.984852 24.042969 16.972656 C 24.029106 16.958794 24.012055 16.949229 23.998047 16.935547 C 23.984364 16.921539 23.9748 16.904488 23.960938 16.890625 C 23.948383 16.87807 23.932596 16.869829 23.919922 16.857422 C 23.904599 16.84169 23.894456 16.82219 23.878906 16.806641 C 23.865026 16.792761 23.84801 16.783231 23.833984 16.769531 C 23.819665 16.754856 23.809438 16.737173 23.794922 16.722656 C 23.780682 16.708416 23.76244 16.699597 23.748047 16.685547 C 23.733997 16.671154 23.725178 16.652912 23.710938 16.638672 C 23.694733 16.622468 23.674605 16.611661 23.658203 16.595703 C 23.645796 16.583029 23.637555 16.567242 23.625 16.554688 C 23.610483 16.540171 23.592801 16.529944 23.578125 16.515625 C 23.563806 16.500949 23.553579 16.483267 23.539062 16.46875 C 23.524546 16.454233 23.506863 16.444007 23.492188 16.429688 C 23.477868 16.415012 23.467642 16.397329 23.453125 16.382812 C 23.438249 16.367937 23.41934 16.358419 23.404297 16.34375 C 23.389628 16.328707 23.38011 16.309798 23.365234 16.294922 C 23.350359 16.280046 23.331449 16.270528 23.316406 16.255859 C 23.301738 16.240817 23.29222 16.221907 23.277344 16.207031 C 23.264135 16.193823 23.247715 16.18492 23.234375 16.171875 C 23.217803 16.154823 23.206291 16.134025 23.189453 16.117188 C 23.172594 16.100329 23.151839 16.088858 23.134766 16.072266 C 23.12172 16.058925 23.112818 16.042505 23.099609 16.029297 C 23.085747 16.015434 23.068695 16.00587 23.054688 15.992188 C 23.038115 15.975136 23.026603 15.954338 23.009766 15.9375 C 22.992907 15.920641 22.972151 15.909171 22.955078 15.892578 C 22.941396 15.87857 22.931831 15.861519 22.917969 15.847656 C 22.902439 15.832126 22.882899 15.821944 22.867188 15.806641 C 22.851884 15.790929 22.841702 15.771389 22.826172 15.755859 C 22.810642 15.74033 22.791102 15.730148 22.775391 15.714844 C 22.760064 15.699108 22.749928 15.679616 22.734375 15.664062 C 22.71855 15.648238 22.699607 15.636684 22.683594 15.621094 C 22.668004 15.60508 22.65645 15.586137 22.640625 15.570312 C 22.6248 15.554488 22.605857 15.542934 22.589844 15.527344 C 22.574254 15.51133 22.5627 15.492387 22.546875 15.476562 C 22.532358 15.462046 22.514676 15.451819 22.5 15.4375 C 22.482774 15.419755 22.470639 15.398373 22.453125 15.380859 C 22.436921 15.364655 22.416793 15.353849 22.400391 15.337891 C 22.384452 15.321509 22.373606 15.30134 22.357422 15.285156 C 22.341218 15.268952 22.32109 15.258146 22.304688 15.242188 C 22.288729 15.225785 22.277923 15.205657 22.261719 15.189453 C 22.243845 15.171579 22.22124 15.160152 22.203125 15.142578 C 22.188456 15.127535 22.178938 15.108626 22.164062 15.09375 C 22.147584 15.077271 22.128011 15.065052 22.111328 15.048828 C 22.095104 15.032145 22.082885 15.012572 22.066406 14.996094 C 22.051236 14.980923 22.032922 14.970033 22.017578 14.955078 C 21.999719 14.936661 21.986918 14.914653 21.96875 14.896484 C 21.951891 14.879625 21.931136 14.868155 21.914062 14.851562 C 21.89749 14.834511 21.885978 14.813713 21.869141 14.796875 C 21.852282 14.780016 21.831526 14.768546 21.814453 14.751953 C 21.797861 14.73488 21.78639 14.714124 21.769531 14.697266 C 21.751003 14.678737 21.727772 14.666644 21.708984 14.648438 C 21.693681 14.632726 21.683499 14.613186 21.667969 14.597656 C 21.650772 14.580459 21.628748 14.569654 21.611328 14.552734 C 21.594408 14.535314 21.583603 14.513291 21.566406 14.496094 C 21.549209 14.478897 21.527186 14.468092 21.509766 14.451172 C 21.492846 14.433752 21.482041 14.411728 21.464844 14.394531 C 21.447352 14.37704 21.425926 14.364861 21.408203 14.347656 C 21.390998 14.329934 21.37882 14.308507 21.361328 14.291016 C 21.343836 14.273524 21.32241 14.261346 21.304688 14.244141 C 21.287482 14.226418 21.275304 14.204992 21.257812 14.1875 C 21.240321 14.170008 21.218894 14.15783 21.201172 14.140625 C 21.183941 14.122875 21.171816 14.101503 21.154297 14.083984 C 21.136446 14.066133 21.113794 14.054662 21.095703 14.037109 C 21.078151 14.019018 21.066679 13.996367 21.048828 13.978516 C 21.031336 13.961024 21.00991 13.948846 20.992188 13.931641 C 20.974323 13.913218 20.961533 13.891221 20.943359 13.873047 C 20.925214 13.854901 20.90316 13.842056 20.884766 13.824219 C 20.866929 13.805825 20.854083 13.783771 20.835938 13.765625 C 20.817792 13.747479 20.795738 13.734634 20.777344 13.716797 C 20.759507 13.698403 20.746661 13.676349 20.728516 13.658203 C 20.710342 13.640029 20.688345 13.627239 20.669922 13.609375 C 20.652085 13.590981 20.639239 13.568927 20.621094 13.550781 C 20.602589 13.532276 20.57931 13.520137 20.560547 13.501953 C 20.542363 13.48319 20.530224 13.459911 20.511719 13.441406 C 20.493186 13.422873 20.469964 13.410789 20.451172 13.392578 C 20.432988 13.373815 20.420849 13.350536 20.402344 13.332031 C 20.383839 13.313526 20.36056 13.301387 20.341797 13.283203 C 20.323586 13.264411 20.311502 13.241189 20.292969 13.222656 C 20.274169 13.203857 20.251488 13.190343 20.232422 13.171875 C 20.213953 13.152809 20.20044 13.130128 20.181641 13.111328 C 20.164149 13.093836 20.142722 13.081658 20.125 13.064453 C 20.104926 13.043671 20.090779 13.018514 20.070312 12.998047 C 20.04982 12.977554 20.024715 12.963458 20.003906 12.943359 C 19.986701 12.925637 19.974523 12.90421 19.957031 12.886719 C 19.937872 12.86756 19.913967 12.854752 19.894531 12.835938 C 19.875716 12.816502 19.862909 12.792596 19.84375 12.773438 C 19.824591 12.754279 19.800685 12.741471 19.78125 12.722656 C 19.762407 12.703191 19.749657 12.679344 19.730469 12.660156 C 19.711015 12.640703 19.687708 12.626521 19.667969 12.607422 C 19.64887 12.587683 19.634688 12.564376 19.615234 12.544922 C 19.595781 12.525468 19.572473 12.511286 19.552734 12.492188 C 19.533635 12.472449 19.519454 12.449141 19.5 12.429688 C 19.481854 12.411542 19.4598 12.398696 19.441406 12.380859 C 19.420678 12.359375 19.405913 12.333647 19.384766 12.3125 C 19.364953 12.292687 19.340421 12.279211 19.320312 12.259766 C 19.300844 12.239631 19.287416 12.21515 19.267578 12.195312 C 19.246071 12.173805 19.219121 12.159746 19.197266 12.138672 C 19.179082 12.119909 19.166942 12.09663 19.148438 12.078125 C 19.129904 12.059592 19.106683 12.047508 19.087891 12.029297 C 19.066817 12.007441 19.052757 11.980492 19.03125 11.958984 C 19.011052 11.938786 18.985349 11.926066 18.964844 11.90625 C 18.945028 11.885745 18.932307 11.860042 18.912109 11.839844 C 18.890307 11.818042 18.863957 11.802606 18.841797 11.78125 C 18.823328 11.762184 18.809815 11.739503 18.791016 11.720703 C 18.772216 11.701903 18.749535 11.68839 18.730469 11.669922 C 18.709113 11.647762 18.693677 11.621411 18.671875 11.599609 C 18.649741 11.577475 18.622112 11.56269 18.599609 11.541016 C 18.580795 11.52158 18.567987 11.497675 18.548828 11.478516 C 18.52964 11.459327 18.505794 11.446577 18.486328 11.427734 C 18.464653 11.405232 18.449868 11.377603 18.427734 11.355469 C 18.405572 11.333307 18.378 11.318577 18.355469 11.296875 C 18.336626 11.277409 18.323876 11.253563 18.304688 11.234375 C 18.285234 11.214921 18.261926 11.20074 18.242188 11.181641 C 18.220204 11.158805 18.204097 11.131832 18.181641 11.109375 C 18.159479 11.087213 18.131907 11.072483 18.109375 11.050781 C 18.089901 11.030641 18.076484 11.006171 18.056641 10.986328 C 18.03552 10.965207 18.009738 10.95039 17.988281 10.929688 C 17.967547 10.908197 17.952794 10.882482 17.931641 10.861328 C 17.910161 10.839848 17.883155 10.825735 17.861328 10.804688 C 17.840281 10.78286 17.826168 10.755855 17.804688 10.734375 C 17.784844 10.714532 17.760374 10.701115 17.740234 10.681641 C 17.717906 10.658432 17.702504 10.630239 17.679688 10.607422 C 17.656216 10.58395 17.627401 10.567877 17.603516 10.544922 C 17.584071 10.524813 17.570594 10.500282 17.550781 10.480469 C 17.530938 10.460626 17.506468 10.447208 17.486328 10.427734 C 17.463402 10.403879 17.44727 10.375005 17.423828 10.351562 C 17.401011 10.328746 17.372818 10.313344 17.349609 10.291016 C 17.329505 10.270201 17.31542 10.245108 17.294922 10.224609 C 17.274455 10.204142 17.249298 10.189996 17.228516 10.169922 C 17.205561 10.146036 17.189487 10.117222 17.166016 10.09375 C 17.143882 10.071616 17.116253 10.056831 17.09375 10.035156 C 17.072075 10.012654 17.05729 9.9850247 17.035156 9.9628906 C 17.012994 9.9407285 16.985422 9.9259984 16.962891 9.9042969 C 16.941189 9.8817652 16.926459 9.8541933 16.904297 9.8320312 C 16.880465 9.8081996 16.850431 9.7928302 16.826172 9.7695312 C 16.805752 9.7483786 16.79231 9.721998 16.771484 9.7011719 C 16.749056 9.678743 16.722026 9.6625821 16.699219 9.640625 C 16.677262 9.6178177 16.661101 9.5907882 16.638672 9.5683594 C 16.616243 9.5459305 16.589214 9.5297696 16.566406 9.5078125 C 16.544449 9.4850052 16.528288 9.4579757 16.505859 9.4355469 C 16.484739 9.414426 16.458957 9.3996089 16.4375 9.3789062 C 16.41392 9.3543425 16.397173 9.3249075 16.373047 9.3007812 C 16.350259 9.2779932 16.322007 9.2625354 16.298828 9.2402344 C 16.2765 9.217026 16.261098 9.1888324 16.238281 9.1660156 C 16.213531 9.1412656 16.183414 9.1237847 16.158203 9.0996094 C 16.137501 9.0781527 16.122683 9.0523709 16.101562 9.03125 C 16.07848 9.0081672 16.050827 8.9913331 16.027344 8.96875 C 16.004761 8.9452664 15.987927 8.9176141 15.964844 8.8945312 C 15.941761 8.8714484 15.914109 8.8546143 15.890625 8.8320312 C 15.868042 8.8085477 15.851208 8.7808953 15.828125 8.7578125 C 15.80635 8.7360376 15.779944 8.720549 15.757812 8.6992188 C 15.733608 8.6739763 15.716187 8.6439215 15.691406 8.6191406 C 15.667935 8.5956691 15.63912 8.5795954 15.615234 8.5566406 C 15.59228 8.5327548 15.576206 8.5039403 15.552734 8.4804688 C 15.527593 8.4553277 15.496319 8.4386105 15.470703 8.4140625 C 15.449028 8.3915598 15.434243 8.363931 15.412109 8.3417969 C 15.389942 8.319629 15.362381 8.3049101 15.339844 8.2832031 C 15.315326 8.2576201 15.298547 8.2262811 15.273438 8.2011719 C 15.249606 8.1773402 15.219571 8.1619708 15.195312 8.1386719 C 15.172014 8.1144132 15.156644 8.0843785 15.132812 8.0605469 C 15.107377 8.0351113 15.076703 8.0170161 15.050781 7.9921875 C 15.028824 7.9693802 15.012663 7.9423507 14.990234 7.9199219 C 14.967806 7.897493 14.940776 7.8813321 14.917969 7.859375 C 14.89314 7.8334533 14.875045 7.8027794 14.849609 7.7773438 C 14.823846 7.7515805 14.791887 7.7341248 14.765625 7.7089844 C 14.743324 7.6858057 14.727866 7.6575537 14.705078 7.6347656 C 14.68229 7.6119776 14.654038 7.5965198 14.630859 7.5742188 C 14.605688 7.5479231 14.588296 7.5160301 14.5625 7.4902344 C 14.538374 7.4661082 14.508939 7.4493614 14.484375 7.4257812 C 14.4602 7.4005709 14.442719 7.3704531 14.417969 7.3457031 C 14.393482 7.3212168 14.362828 7.3051739 14.337891 7.28125 C 14.313967 7.256313 14.297924 7.2256582 14.273438 7.2011719 C 14.248687 7.1764219 14.21857 7.158941 14.193359 7.1347656 C 14.169184 7.1095552 14.151703 7.0794375 14.126953 7.0546875 C 14.102172 7.0299066 14.072117 7.0124861 14.046875 6.9882812 C 14.02267 6.9630388 14.00525 6.932984 13.980469 6.9082031 C 13.954018 6.8817527 13.921507 6.8636846 13.894531 6.8378906 C 13.871605 6.8140353 13.855473 6.7851608 13.832031 6.7617188 C 13.806922 6.7366095 13.775583 6.7198302 13.75 6.6953125 C 13.725482 6.6697295 13.708703 6.6383905 13.683594 6.6132812 C 12.745912 5.6755993 11.474521 5.1484374 10.148438 5.1484375 z "
       id="path10450"
       style="fill-opacity:1;fill:url(#linearGradient11325);opacity:0.2"
       clip-path="url(#clipPath11330)" />
    <path
       style="opacity:1;fill:#da8200;fill-opacity:1;stroke:none;stroke-width:2;stroke-miterlimit:4;stroke-dasharray:none;stroke-opacity:1"
       d="m 15,10 a 5,5 0 0 1 -5,5 5,5 0 0 1 -5,-5 5,5 0 0 1 5,-5 5,5 0 0 1 5,5 z"
       id="path11334" />
    <path
       style="fill:none"
       inkscape:connector-curvature="0"
       id="path4"
       d="m 3.9999777,4.0333382 12.0000003,0 0,11.9333328 -12.0000003,0 z" />
    <path
       d="m 18.999978,19.033339 12,0 0,11.933333 -12,0 z"
       id="path9754"
       inkscape:connector-curvature="0"
       style="fill:none" />
    <path
       inkscape:connector-curvature="0"
       d="m 12.949978,12.695005 c -0.13,-0.4 -0.505,-0.695 -0.95,-0.695 l -0.5,0 0,-1.5 a 0.5,0.5 0 0 0 -0.5,-0.5 l -3.0000003,0 0,-1.0000003 1,0 a 0.5,0.5 0 0 0 0.5,-0.5 l 0,-1 1.0000003,0 a 1,1 0 0 0 1,-0.9999999 l 0,-0.205 c 1.465,0.59 2.5,2.0249999 2.5,3.7050002 0,1.04 -0.4,1.985 -1.05,2.695 m -3.4500003,1.27 c -1.975,-0.245 -3.5,-1.925 -3.5,-3.965 0,-0.3100003 0.04,-0.6100003 0.105,-0.8950003 l 2.395,2.3950003 0,0.5 a 1,1 0 0 0 1,1 m 0.5,-8.0000002 a 5,5 0 0 0 -5,5.0000002 5,5 0 0 0 5,5 5,5 0 0 0 5.0000003,-5 5,5 0 0 0 -5.0000003,-5.0000002 z"
       id="path10368"
       style="fill:#ffffff" />
  </g>
</svg>
