<?xml version="1.0" encoding="UTF-8" standalone="no"?>
<!-- Created with Inkscape (http://www.inkscape.org/) -->

<svg
   xmlns:dc="http://purl.org/dc/elements/1.1/"
   xmlns:cc="http://creativecommons.org/ns#"
   xmlns:rdf="http://www.w3.org/1999/02/22-rdf-syntax-ns#"
   xmlns:svg="http://www.w3.org/2000/svg"
   xmlns="http://www.w3.org/2000/svg"
   xmlns:xlink="http://www.w3.org/1999/xlink"
   xmlns:sodipodi="http://sodipodi.sourceforge.net/DTD/sodipodi-0.dtd"
   xmlns:inkscape="http://www.inkscape.org/namespaces/inkscape"
   sodipodi:docname="Calculator.svg"
   inkscape:version="0.91 r13725"
   version="1.1"
   id="svg2"
   viewBox="0 0 20 20"
   height="5.6444445mm"
   width="5.6444445mm"
   inkscape:export-filename="/home/juergen/Schreibtisch/qdad.png"
   inkscape:export-xdpi="648"
   inkscape:export-ydpi="648">
  <sodipodi:namedview
     inkscape:snap-to-guides="false"
     inkscape:snap-grids="false"
     inkscape:window-maximized="1"
     inkscape:window-y="0"
     inkscape:window-x="0"
     inkscape:window-height="726"
     inkscape:window-width="1366"
     inkscape:guide-bbox="true"
     showguides="true"
     fit-margin-bottom="0"
     fit-margin-right="0"
     fit-margin-left="0"
     fit-margin-top="0"
     showgrid="true"
     inkscape:current-layer="layer2"
     inkscape:document-units="px"
     inkscape:cy="6.8760908"
     inkscape:cx="-0.20629041"
     inkscape:zoom="15.839192"
     inkscape:pageshadow="2"
     inkscape:pageopacity="0.0"
     borderopacity="1.0"
     bordercolor="#666666"
     pagecolor="#ffffff"
     id="base">
    <inkscape:grid
       id="grid4138"
       type="xygrid" />
    <sodipodi:guide
       id="guide4140"
       orientation="0,1"
       position="10,18" />
    <sodipodi:guide
       id="guide4142"
       orientation="0,1"
       position="10,2" />
    <sodipodi:guide
       id="guide4144"
       orientation="1,0"
       position="2,10" />
    <sodipodi:guide
       id="guide4146"
       orientation="0,20"
       position="0,0" />
    <sodipodi:guide
       id="guide4148"
       orientation="-20,0"
       position="20,0" />
    <sodipodi:guide
       id="guide4150"
       orientation="0,-20"
       position="20,20" />
    <sodipodi:guide
       id="guide4152"
       orientation="20,0"
       position="0,20" />
    <sodipodi:guide
       id="guide4154"
       orientation="1,0"
       position="18,10" />
    <sodipodi:guide
       id="guide4156"
       orientation="-0.70710678,0.70710678"
       position="10,10" />
    <sodipodi:guide
       id="guide4158"
       orientation="0.70710678,0.70710678"
       position="10,10" />
    <sodipodi:guide
       id="guide4160"
       orientation="1,0"
       position="4,10" />
    <sodipodi:guide
       id="guide4162"
       orientation="1,0"
       position="16,10" />
    <sodipodi:guide
       id="guide4164"
       orientation="0,1"
       position="10,16" />
    <sodipodi:guide
       id="guide4166"
       orientation="0,1"
       position="10,4" />
    <sodipodi:guide
       id="guide4168"
       orientation="0,1"
       position="10,15" />
    <sodipodi:guide
       id="guide4170"
       orientation="0,1"
       position="10,5" />
    <sodipodi:guide
       id="guide4172"
       orientation="1,0"
       position="5,10" />
    <sodipodi:guide
       id="guide4174"
       orientation="1,0"
       position="15,10" />
  </sodipodi:namedview>
  <defs
     id="defs4">
    <linearGradient
       inkscape:collect="always"
       id="linearGradient6110">
      <stop
         style="stop-color:#000000;stop-opacity:1;"
         offset="0"
         id="stop6112" />
      <stop
         style="stop-color:#000000;stop-opacity:0;"
         offset="1"
         id="stop6114" />
    </linearGradient>
    <clipPath
       clipPathUnits="userSpaceOnUse"
       id="clipPath12478">
      <circle
         style="opacity:1;fill:#2196f3;fill-opacity:1;stroke:none;stroke-width:0.05069799;stroke-miterlimit:4;stroke-dasharray:none;stroke-opacity:1"
         id="circle12480"
         cx="9.9999781"
         cy="10.000005"
         r="10" />
    </clipPath>
    <clipPath
       id="clipPath13251"
       clipPathUnits="userSpaceOnUse">
      <circle
         inkscape:export-ydpi="648"
         inkscape:export-xdpi="648"
         inkscape:export-filename="/home/juergen/path4136.png"
         style="opacity:1;fill:#2196f3;fill-opacity:1;stroke:none;stroke-width:0.05069799;stroke-miterlimit:4;stroke-dasharray:none;stroke-opacity:1"
         id="circle13253"
         cx="9.9999781"
         cy="10.000005"
         r="10" />
    </clipPath>
    <clipPath
       clipPathUnits="userSpaceOnUse"
       id="clipPath5054">
      <circle
         inkscape:export-ydpi="648"
         inkscape:export-xdpi="648"
         inkscape:export-filename="/home/juergen/path4136.png"
         style="opacity:1;fill:#2196f3;fill-opacity:1;stroke:none;stroke-width:0.05069799;stroke-miterlimit:4;stroke-dasharray:none;stroke-opacity:1"
         id="circle5056"
         cx="9.9999781"
         cy="10.000005"
         r="10" />
    </clipPath>
    <clipPath
       id="clipPath5149"
       clipPathUnits="userSpaceOnUse">
      <circle
         inkscape:export-ydpi="648"
         inkscape:export-xdpi="648"
         inkscape:export-filename="/home/juergen/Schreibtisch/qqq.png"
         style="opacity:1;fill:#3f51b5;fill-opacity:1;stroke:none;stroke-width:0.05069799;stroke-miterlimit:4;stroke-dasharray:none;stroke-opacity:1"
         id="circle5151"
         cx="9.9999781"
         cy="10.000005"
         r="10" />
    </clipPath>
    <clipPath
       clipPathUnits="userSpaceOnUse"
       id="clipPath6126">
      <circle
         inkscape:export-ydpi="648"
         inkscape:export-xdpi="648"
         inkscape:export-filename="/home/juergen/Schreibtisch/qqq.png"
         style="opacity:1;fill:#9ccc65;fill-opacity:1;stroke:none;stroke-width:0.05069799;stroke-miterlimit:4;stroke-dasharray:none;stroke-opacity:1"
         id="circle6128"
         cx="9.9999781"
         cy="10.000005"
         r="10" />
    </clipPath>
    <clipPath
       id="clipPath7107"
       clipPathUnits="userSpaceOnUse">
      <circle
         inkscape:export-ydpi="648"
         inkscape:export-xdpi="648"
         inkscape:export-filename="/home/juergen/Schreibtisch/qqq.png"
         style="opacity:1;fill:#f44336;fill-opacity:1;stroke:none;stroke-width:0.05069799;stroke-miterlimit:4;stroke-dasharray:none;stroke-opacity:1"
         id="circle7109"
         cx="9.9999781"
         cy="10.000005"
         r="10" />
    </clipPath>
    <clipPath
       clipPathUnits="userSpaceOnUse"
       id="clipPath8092">
      <circle
         inkscape:export-ydpi="648"
         inkscape:export-xdpi="648"
         inkscape:export-filename="/home/juergen/Schreibtisch/qqq.png"
         style="opacity:1;fill:#00bcd4;fill-opacity:1;stroke:none;stroke-width:0.05069799;stroke-miterlimit:4;stroke-dasharray:none;stroke-opacity:1"
         id="circle8094"
         cx="9.9999781"
         cy="10.000005"
         r="10" />
    </clipPath>
    <clipPath
       id="clipPath5132"
       clipPathUnits="userSpaceOnUse">
      <circle
         inkscape:export-ydpi="648"
         inkscape:export-xdpi="648"
         inkscape:export-filename="/home/juergen/Schreibtisch/qqq.png"
         style="opacity:1;fill:#009688;fill-opacity:1;stroke:none;stroke-width:0.05069799;stroke-miterlimit:4;stroke-dasharray:none;stroke-opacity:1"
         id="circle5134"
         cx="9.9999781"
         cy="10.000005"
         r="10" />
    </clipPath>
    <linearGradient
       inkscape:collect="always"
       xlink:href="#linearGradient6110"
       id="linearGradient6116"
       x1="10"
       y1="10"
       x2="20"
       y2="20"
       gradientUnits="userSpaceOnUse" />
    <clipPath
       clipPathUnits="userSpaceOnUse"
       id="clipPath6121">
      <circle
         inkscape:export-ydpi="648"
         inkscape:export-xdpi="648"
         inkscape:export-filename="/home/juergen/Schreibtisch/qqq.png"
         style="opacity:1;fill:#009688;fill-opacity:1;stroke:none;stroke-width:0.05069799;stroke-miterlimit:4;stroke-dasharray:none;stroke-opacity:1"
         id="circle6123"
         cx="9.9999781"
         cy="10.000005"
         r="10" />
    </clipPath>
  </defs>
  <metadata
     id="metadata7">
    <rdf:RDF>
      <cc:Work
         rdf:about="">
        <dc:format>image/svg+xml</dc:format>
        <dc:type
           rdf:resource="http://purl.org/dc/dcmitype/StillImage" />
        <dc:title />
      </cc:Work>
    </rdf:RDF>
  </metadata>
  <g
     transform="translate(1058.1428,-861.93365)"
     id="layer1"
     inkscape:groupmode="layer"
     inkscape:label="Hintergrund">
    <circle
       r="10"
       cy="871.93365"
       cx="-1048.1428"
       id="path4136"
       style="opacity:1;fill:#e91e63;fill-opacity:1;stroke:none;stroke-width:0.05069799;stroke-miterlimit:4;stroke-dasharray:none;stroke-opacity:1"
       inkscape:export-filename="/home/juergen/Schreibtisch/qqq.png"
       inkscape:export-xdpi="648"
       inkscape:export-ydpi="648" />
  </g>
  <g
     inkscape:label="Icon"
     id="layer2"
     inkscape:groupmode="layer"
     style="display:inline">
    <path
       d="M 7.6484375 5.1484375 C 7.099002 5.1484374 6.6542038 5.5939137 6.6523438 6.1425781 C 6.6504838 6.1444395 6.6484375 8.1265938 6.6484375 10.109375 L 6.6484375 14.148438 C 6.6484375 14.413654 6.7538699 14.667933 6.9414062 14.855469 C 6.9671921 14.881255 7.0030832 14.891444 7.03125 14.914062 C 7.0538683 14.942229 7.0640579 14.97812 7.0898438 15.003906 C 7.1158906 15.029953 7.1512127 15.041639 7.1796875 15.064453 C 7.2019318 15.092036 7.2129911 15.127054 7.2382812 15.152344 C 7.2636768 15.177739 7.2984648 15.188613 7.3261719 15.210938 C 7.3484959 15.238645 7.3593701 15.273433 7.3847656 15.298828 C 7.4097708 15.323833 7.4434548 15.335394 7.4707031 15.357422 C 7.4927313 15.38467 7.5042917 15.418354 7.5292969 15.443359 C 7.5546924 15.468755 7.5894804 15.479629 7.6171875 15.501953 C 7.6395115 15.52966 7.6503857 15.564448 7.6757812 15.589844 C 7.7007864 15.614849 7.7344704 15.626409 7.7617188 15.648438 C 7.783747 15.675686 7.7953073 15.70937 7.8203125 15.734375 C 7.8450567 15.759119 7.8793079 15.769186 7.90625 15.791016 C 7.9280796 15.817958 7.9381465 15.852209 7.9628906 15.876953 C 7.9876348 15.901697 8.021886 15.911764 8.0488281 15.933594 C 8.0706577 15.960536 8.0807246 15.994787 8.1054688 16.019531 C 8.1302129 16.044275 8.1644642 16.054342 8.1914062 16.076172 C 8.2132358 16.103114 8.2233027 16.137365 8.2480469 16.162109 C 8.272791 16.186854 8.3070423 16.19692 8.3339844 16.21875 C 8.355814 16.245692 8.3658808 16.279943 8.390625 16.304688 C 8.4149788 16.329041 8.4481245 16.339797 8.4746094 16.361328 C 8.4961407 16.387813 8.5068962 16.420959 8.53125 16.445312 C 8.5553428 16.469405 8.5890546 16.478669 8.6152344 16.5 C 8.6365654 16.52618 8.6458291 16.559892 8.6699219 16.583984 C 8.6942757 16.608338 8.7274213 16.619094 8.7539062 16.640625 C 8.7754375 16.66711 8.7861931 16.700255 8.8105469 16.724609 C 8.833598 16.74766 8.8656588 16.756819 8.890625 16.777344 C 8.9123765 16.804166 8.9226238 16.838639 8.9472656 16.863281 C 8.9719075 16.887923 9.006381 16.89817 9.0332031 16.919922 C 9.053728 16.944888 9.0628864 16.976949 9.0859375 17 C 9.10964 17.023703 9.1422446 17.033657 9.1679688 17.054688 C 9.1889989 17.080412 9.1989538 17.113016 9.2226562 17.136719 C 9.2463587 17.160421 9.2789633 17.170376 9.3046875 17.191406 C 9.3257177 17.21713 9.3356725 17.249735 9.359375 17.273438 C 9.3826871 17.29675 9.4141835 17.307397 9.4394531 17.328125 C 9.460181 17.353395 9.4708285 17.384891 9.4941406 17.408203 C 9.5174528 17.431515 9.5489491 17.442163 9.5742188 17.462891 C 9.5949466 17.48816 9.6055941 17.519657 9.6289062 17.542969 C 9.6522184 17.566281 9.6837147 17.576928 9.7089844 17.597656 C 9.7297127 17.622926 9.7403591 17.654422 9.7636719 17.677734 C 9.786723 17.700785 9.8187838 17.709944 9.84375 17.730469 C 9.8642749 17.755435 9.8734333 17.787496 9.8964844 17.810547 C 9.9195355 17.833598 9.9515963 17.842756 9.9765625 17.863281 C 9.9970874 17.888248 10.006246 17.920308 10.029297 17.943359 C 10.051306 17.965369 10.081709 17.974432 10.105469 17.994141 C 10.126423 18.01975 10.136552 18.052568 10.160156 18.076172 C 10.18376 18.099776 10.216578 18.109905 10.242188 18.130859 C 10.261896 18.154619 10.270959 18.185022 10.292969 18.207031 C 10.315368 18.229431 10.346883 18.237797 10.371094 18.257812 C 10.391109 18.282023 10.399475 18.313538 10.421875 18.335938 C 10.444536 18.358598 10.475487 18.368452 10.5 18.388672 C 10.52022 18.413185 10.530074 18.444136 10.552734 18.466797 C 10.575134 18.489197 10.606648 18.497563 10.630859 18.517578 C 10.650875 18.541789 10.659241 18.573303 10.681641 18.595703 C 10.70365 18.617713 10.734053 18.626776 10.757812 18.646484 C 10.777521 18.670244 10.786584 18.700647 10.808594 18.722656 C 10.830603 18.744666 10.861006 18.753729 10.884766 18.773438 C 10.904474 18.797197 10.913537 18.8276 10.935547 18.849609 C 10.957465 18.871527 10.988065 18.880755 11.011719 18.900391 C 11.031427 18.92415 11.04049 18.954553 11.0625 18.976562 C 11.084509 18.998572 11.114912 19.007636 11.138672 19.027344 C 11.15838 19.051103 11.167444 19.081506 11.189453 19.103516 C 11.211072 19.125135 11.240363 19.134898 11.263672 19.154297 C 11.283071 19.177606 11.292834 19.206897 11.314453 19.228516 C 11.335421 19.249483 11.364159 19.258463 11.386719 19.277344 C 11.406355 19.300998 11.415582 19.331598 11.4375 19.353516 C 11.459478 19.375494 11.489948 19.384613 11.513672 19.404297 C 11.532553 19.426857 11.541532 19.455595 11.5625 19.476562 C 11.583858 19.497921 11.61371 19.506199 11.636719 19.525391 C 11.655911 19.548399 11.664189 19.578251 11.685547 19.599609 C 11.706515 19.620577 11.735252 19.629557 11.757812 19.648438 C 11.776693 19.670998 11.785673 19.699735 11.806641 19.720703 C 11.827608 19.741671 11.856346 19.75065 11.878906 19.769531 C 11.897787 19.792091 11.906767 19.820829 11.927734 19.841797 C 11.948702 19.862765 11.97744 19.871744 12 19.890625 C 12.018881 19.913185 12.02786 19.941923 12.048828 19.962891 C 12.069796 19.983858 12.098534 19.992838 12.121094 20.011719 C 12.139975 20.034279 12.148954 20.063017 12.169922 20.083984 C 12.190629 20.104691 12.219927 20.112188 12.242188 20.130859 C 12.260859 20.15312 12.268356 20.182418 12.289062 20.203125 C 12.309379 20.223441 12.337561 20.231642 12.359375 20.25 C 12.377733 20.271814 12.385934 20.299996 12.40625 20.320312 C 12.425915 20.339978 12.453539 20.347403 12.474609 20.365234 C 12.493731 20.388142 12.502168 20.418183 12.523438 20.439453 C 12.544318 20.460334 12.573243 20.46947 12.595703 20.488281 C 12.613216 20.508907 12.62135 20.535413 12.640625 20.554688 C 12.660941 20.575004 12.689124 20.583205 12.710938 20.601562 C 12.729295 20.623376 12.737496 20.651559 12.757812 20.671875 C 12.777739 20.691801 12.804804 20.700707 12.826172 20.71875 C 12.844215 20.740118 12.853121 20.767183 12.873047 20.787109 C 12.892973 20.807036 12.920039 20.815942 12.941406 20.833984 C 12.959449 20.855352 12.968355 20.882418 12.988281 20.902344 C 13.007946 20.922009 13.035571 20.929434 13.056641 20.947266 C 13.074472 20.968336 13.081897 20.99596 13.101562 21.015625 C 13.121228 21.03529 13.148852 21.042716 13.169922 21.060547 C 13.187753 21.081617 13.195179 21.109241 13.214844 21.128906 C 13.234509 21.148571 13.262133 21.155997 13.283203 21.173828 C 13.301034 21.194898 13.30846 21.222522 13.328125 21.242188 C 13.3474 21.261462 13.373906 21.269596 13.394531 21.287109 C 13.412045 21.307735 13.420178 21.334241 13.439453 21.353516 C 13.458728 21.37279 13.485234 21.380924 13.505859 21.398438 C 13.523373 21.419063 13.531506 21.445569 13.550781 21.464844 C 13.569795 21.483858 13.596858 21.490512 13.617188 21.507812 C 13.634488 21.528142 13.641143 21.555205 13.660156 21.574219 C 13.67917 21.593232 13.706233 21.599887 13.726562 21.617188 C 13.743863 21.637517 13.750518 21.66458 13.769531 21.683594 C 13.788545 21.702607 13.815608 21.709262 13.835938 21.726562 C 13.853238 21.746892 13.859892 21.773955 13.878906 21.792969 C 13.89753 21.811592 13.923473 21.818958 13.943359 21.835938 C 13.960339 21.855824 13.967705 21.881767 13.986328 21.900391 C 14.004952 21.919014 14.030895 21.92638 14.050781 21.943359 C 14.067761 21.963246 14.075127 21.989189 14.09375 22.007812 C 14.112373 22.026436 14.138317 22.033801 14.158203 22.050781 C 14.175183 22.070668 14.182549 22.096611 14.201172 22.115234 C 14.219405 22.133467 14.244227 22.141545 14.263672 22.158203 C 14.28033 22.177648 14.288408 22.20247 14.306641 22.220703 C 14.324874 22.238936 14.349696 22.247014 14.369141 22.263672 C 14.385799 22.283117 14.393876 22.307939 14.412109 22.326172 C 14.430081 22.344144 14.455459 22.350745 14.474609 22.367188 C 14.491052 22.386338 14.497653 22.411716 14.515625 22.429688 C 14.533597 22.44766 14.558975 22.454261 14.578125 22.470703 C 14.594567 22.489853 14.601169 22.515231 14.619141 22.533203 C 14.637113 22.551175 14.662491 22.557777 14.681641 22.574219 C 14.698083 22.593369 14.704684 22.618747 14.722656 22.636719 C 14.740238 22.6543 14.764493 22.661616 14.783203 22.677734 C 14.799321 22.696444 14.806637 22.7207 14.824219 22.738281 C 14.8418 22.755863 14.866055 22.763179 14.884766 22.779297 C 14.900884 22.798007 14.9082 22.822262 14.925781 22.839844 C 14.942712 22.856774 14.966397 22.863333 14.984375 22.878906 C 15.000756 22.897973 15.007493 22.923508 15.025391 22.941406 C 15.043288 22.959304 15.068824 22.966041 15.087891 22.982422 C 15.103464 23.0004 15.110023 23.024085 15.126953 23.041016 C 15.143884 23.057946 15.167569 23.064504 15.185547 23.080078 C 15.201121 23.098056 15.207679 23.121742 15.224609 23.138672 C 15.24193 23.155993 15.26674 23.161834 15.285156 23.177734 C 15.301057 23.196151 15.306898 23.220961 15.324219 23.238281 C 15.341149 23.255212 15.364834 23.26177 15.382812 23.277344 C 15.398386 23.295322 15.404945 23.319007 15.421875 23.335938 C 15.438415 23.352477 15.460974 23.359754 15.478516 23.375 C 15.493761 23.392541 15.501038 23.415101 15.517578 23.431641 C 15.534508 23.448571 15.558194 23.455129 15.576172 23.470703 C 15.591746 23.488681 15.598304 23.512366 15.615234 23.529297 C 15.631123 23.545185 15.653108 23.551711 15.669922 23.566406 C 15.685437 23.584306 15.692124 23.60814 15.708984 23.625 C 15.725845 23.64186 15.749679 23.648548 15.767578 23.664062 C 15.782273 23.680876 15.788799 23.702861 15.804688 23.71875 C 15.820967 23.735029 15.844079 23.740834 15.861328 23.755859 C 15.876354 23.773109 15.882158 23.796221 15.898438 23.8125 C 15.914716 23.828779 15.937829 23.834584 15.955078 23.849609 C 15.970103 23.866859 15.975909 23.889971 15.992188 23.90625 C 16.008076 23.922139 16.030061 23.928665 16.046875 23.943359 C 16.06157 23.960173 16.068096 23.982158 16.083984 23.998047 C 16.099873 24.013936 16.121858 24.020461 16.138672 24.035156 C 16.153367 24.05197 16.159893 24.073955 16.175781 24.089844 C 16.19167 24.105732 16.213655 24.112258 16.230469 24.126953 C 16.245164 24.143767 16.25169 24.165752 16.267578 24.181641 C 16.283206 24.197268 16.305742 24.202324 16.322266 24.216797 C 16.336739 24.23332 16.341794 24.255857 16.357422 24.271484 C 16.373049 24.287112 16.395586 24.292168 16.412109 24.306641 C 16.426582 24.323164 16.431638 24.345701 16.447266 24.361328 C 16.462503 24.376565 16.483911 24.382344 16.5 24.396484 C 16.51414 24.412574 16.519919 24.433981 16.535156 24.449219 C 16.550394 24.464456 16.571801 24.470235 16.587891 24.484375 C 16.60203 24.500465 16.60781 24.521872 16.623047 24.537109 C 16.638284 24.552347 16.659692 24.558126 16.675781 24.572266 C 16.689921 24.588355 16.6957 24.609763 16.710938 24.625 C 16.725785 24.639847 16.746062 24.646351 16.761719 24.660156 C 16.775524 24.675813 16.782028 24.69609 16.796875 24.710938 C 16.811722 24.725784 16.831999 24.732288 16.847656 24.746094 C 16.861462 24.761751 16.867966 24.782028 16.882812 24.796875 C 16.897008 24.811071 16.916704 24.816834 16.931641 24.830078 C 16.945726 24.846097 16.951623 24.867638 16.966797 24.882812 C 16.981971 24.897987 17.003512 24.903883 17.019531 24.917969 C 17.032775 24.932906 17.038539 24.952601 17.052734 24.966797 C 17.06693 24.980992 17.086625 24.986756 17.101562 25 C 17.114806 25.014937 17.12057 25.034633 17.134766 25.048828 C 17.149291 25.063354 17.170245 25.068502 17.185547 25.082031 C 17.199128 25.097399 17.204164 25.118227 17.21875 25.132812 C 17.232946 25.147008 17.252641 25.152772 17.267578 25.166016 C 17.280822 25.180953 17.286586 25.200648 17.300781 25.214844 C 17.314325 25.228388 17.333436 25.233416 17.347656 25.246094 C 17.361185 25.261395 17.366334 25.282349 17.380859 25.296875 C 17.395385 25.311401 17.416339 25.316549 17.431641 25.330078 C 17.444319 25.344298 17.449346 25.363409 17.462891 25.376953 C 17.476825 25.390888 17.497069 25.395185 17.511719 25.408203 C 17.524736 25.422853 17.529034 25.443097 17.542969 25.457031 C 17.556513 25.470575 17.575624 25.475603 17.589844 25.488281 C 17.602522 25.502502 17.60755 25.521612 17.621094 25.535156 C 17.634638 25.5487 17.653748 25.553728 17.667969 25.566406 C 17.680647 25.580627 17.685674 25.599737 17.699219 25.613281 C 17.712763 25.626825 17.731874 25.631853 17.746094 25.644531 C 17.758772 25.658752 17.7638 25.677862 17.777344 25.691406 C 17.790498 25.70456 17.808474 25.710319 17.822266 25.722656 C 17.834603 25.736448 17.840362 25.754424 17.853516 25.767578 C 17.86667 25.780732 17.884645 25.786491 17.898438 25.798828 C 17.910775 25.81262 17.916534 25.830596 17.929688 25.84375 C 17.942841 25.856904 17.960817 25.862663 17.974609 25.875 C 17.986947 25.888792 17.992705 25.906768 18.005859 25.919922 C 18.018752 25.932815 18.037275 25.93711 18.050781 25.949219 C 18.06289 25.962725 18.067185 25.981248 18.080078 25.994141 C 18.092971 26.007034 18.111494 26.011329 18.125 26.023438 C 18.137109 26.036944 18.141404 26.055466 18.154297 26.068359 C 18.166799 26.080862 18.184186 26.085891 18.197266 26.097656 C 18.209031 26.110736 18.21406 26.128122 18.226562 26.140625 C 18.239065 26.153128 18.256451 26.158157 18.269531 26.169922 C 18.281296 26.183002 18.286326 26.200388 18.298828 26.212891 C 18.311331 26.225393 18.328717 26.230422 18.341797 26.242188 C 18.353562 26.255267 18.358591 26.272654 18.371094 26.285156 C 18.383335 26.297398 18.401267 26.300965 18.414062 26.3125 C 18.425597 26.325295 18.429165 26.343227 18.441406 26.355469 C 18.453648 26.36771 18.47158 26.371278 18.484375 26.382812 C 18.49591 26.395608 18.499477 26.41354 18.511719 26.425781 C 18.52396 26.438023 18.541892 26.44159 18.554688 26.453125 C 18.566222 26.46592 18.56979 26.483852 18.582031 26.496094 C 18.593883 26.507945 18.610676 26.512249 18.623047 26.523438 C 18.634236 26.535808 18.638539 26.552602 18.650391 26.564453 C 18.662242 26.576304 18.679035 26.580608 18.691406 26.591797 C 18.702595 26.604168 18.706899 26.620961 18.71875 26.632812 C 18.730211 26.644273 18.745865 26.649314 18.757812 26.660156 C 18.768654 26.672103 18.773695 26.687758 18.785156 26.699219 C 18.796617 26.71068 18.812272 26.715721 18.824219 26.726562 C 18.835061 26.73851 18.840102 26.754164 18.851562 26.765625 C 18.863023 26.777086 18.878678 26.782127 18.890625 26.792969 C 18.901467 26.804916 18.906508 26.82057 18.917969 26.832031 C 18.929169 26.843231 18.945367 26.846813 18.957031 26.857422 C 18.96764 26.869086 18.971222 26.885285 18.982422 26.896484 C 18.993622 26.907684 19.00982 26.911266 19.021484 26.921875 C 19.032093 26.93354 19.035675 26.949738 19.046875 26.960938 C 19.058075 26.972137 19.074273 26.975719 19.085938 26.986328 C 19.096546 26.997993 19.100128 27.014191 19.111328 27.025391 C 19.122138 27.0362 19.137195 27.040522 19.148438 27.050781 C 19.158697 27.062024 19.163019 27.077081 19.173828 27.087891 C 19.184377 27.098439 19.199976 27.101304 19.210938 27.111328 C 19.220962 27.122289 19.223826 27.137889 19.234375 27.148438 C 19.245185 27.159247 19.260242 27.163569 19.271484 27.173828 C 19.281743 27.185071 19.286065 27.200128 19.296875 27.210938 C 19.307424 27.221486 19.323023 27.224351 19.333984 27.234375 C 19.344009 27.245336 19.346873 27.260936 19.357422 27.271484 C 19.36758 27.281643 19.382037 27.28525 19.392578 27.294922 C 19.40225 27.305463 19.405857 27.31992 19.416016 27.330078 C 19.426564 27.340627 19.442164 27.343491 19.453125 27.353516 C 19.463149 27.364477 19.466014 27.380076 19.476562 27.390625 C 19.485679 27.399742 19.498387 27.403384 19.507812 27.412109 C 19.518031 27.423303 19.522439 27.438454 19.533203 27.449219 C 19.543739 27.459754 19.559365 27.462644 19.570312 27.472656 C 19.579394 27.482499 19.58229 27.496353 19.591797 27.505859 C 19.601565 27.515627 19.614877 27.519978 19.625 27.529297 C 19.634319 27.539419 19.63867 27.552732 19.648438 27.5625 C 19.658205 27.572268 19.671518 27.576619 19.681641 27.585938 C 19.690959 27.59606 19.69531 27.609373 19.705078 27.619141 C 19.714585 27.628648 19.728438 27.631544 19.738281 27.640625 C 19.747363 27.650468 19.750259 27.664321 19.759766 27.673828 C 19.769273 27.683335 19.783126 27.686231 19.792969 27.695312 C 19.80205 27.705156 19.804946 27.719009 19.814453 27.728516 C 19.82396 27.738022 19.837813 27.740919 19.847656 27.75 C 19.856702 27.759801 19.859673 27.773735 19.869141 27.783203 C 19.878257 27.79232 19.890965 27.795962 19.900391 27.804688 C 19.909116 27.814113 19.912759 27.826821 19.921875 27.835938 C 19.93034 27.844403 19.94244 27.847341 19.951172 27.855469 C 19.960242 27.865298 19.963162 27.879178 19.972656 27.888672 C 19.982383 27.898398 19.995781 27.902828 20.005859 27.912109 C 20.013628 27.920428 20.017316 27.931378 20.025391 27.939453 C 20.034246 27.948309 20.047493 27.950498 20.056641 27.958984 C 20.065127 27.968132 20.067316 27.981379 20.076172 27.990234 C 20.085027 27.99909 20.098274 28.001279 20.107422 28.009766 C 20.115908 28.018913 20.118098 28.03216 20.126953 28.041016 C 20.135418 28.049481 20.147518 28.052419 20.15625 28.060547 C 20.164378 28.069279 20.167316 28.081379 20.175781 28.089844 C 20.184246 28.098309 20.196346 28.101247 20.205078 28.109375 C 20.213206 28.118107 20.216144 28.130207 20.224609 28.138672 C 20.232684 28.146747 20.243635 28.150435 20.251953 28.158203 C 20.259721 28.166521 20.26341 28.177472 20.271484 28.185547 C 20.278908 28.19297 20.289246 28.19596 20.296875 28.203125 C 20.305566 28.21251 20.309281 28.225297 20.318359 28.234375 C 20.327179 28.243194 20.3405 28.245453 20.349609 28.253906 C 20.356531 28.261261 20.358072 28.272134 20.365234 28.279297 C 20.373309 28.287372 20.38426 28.29106 20.392578 28.298828 C 20.400346 28.307146 20.404035 28.318097 20.412109 28.326172 C 20.419923 28.333986 20.431411 28.336223 20.439453 28.34375 C 20.44698 28.351792 20.449217 28.36328 20.457031 28.371094 C 20.464455 28.378517 20.474792 28.381507 20.482422 28.388672 C 20.489586 28.396301 20.492576 28.406639 20.5 28.414062 C 20.506772 28.420835 20.516494 28.423131 20.523438 28.429688 C 20.531533 28.438383 20.534539 28.450554 20.542969 28.458984 C 20.551009 28.467025 20.562031 28.470779 20.570312 28.478516 C 20.576503 28.48505 20.579556 28.493618 20.585938 28.5 C 20.593361 28.507423 20.603699 28.510414 20.611328 28.517578 C 20.618493 28.525208 20.621483 28.535545 20.628906 28.542969 C 20.636069 28.550131 20.646943 28.551672 20.654297 28.558594 C 20.661218 28.565948 20.662759 28.576822 20.669922 28.583984 C 20.677084 28.591147 20.687958 28.592688 20.695312 28.599609 C 20.702234 28.606964 20.703775 28.617838 20.710938 28.625 C 20.71771 28.631772 20.727431 28.634068 20.734375 28.640625 C 20.740932 28.647569 20.743228 28.65729 20.75 28.664062 C 20.756772 28.670835 20.766494 28.673131 20.773438 28.679688 C 20.779994 28.686631 20.78229 28.696353 20.789062 28.703125 C 20.795835 28.709897 20.805556 28.712193 20.8125 28.71875 C 20.819057 28.725694 20.821353 28.735415 20.828125 28.742188 C 20.834507 28.748569 20.843075 28.751622 20.849609 28.757812 C 20.8558 28.764347 20.858853 28.772915 20.865234 28.779297 C 20.871616 28.785679 20.880184 28.788731 20.886719 28.794922 C 20.892909 28.801456 20.895962 28.810024 20.902344 28.816406 C 20.908465 28.822527 20.917567 28.824133 20.923828 28.830078 C 20.929773 28.836339 20.931379 28.845442 20.9375 28.851562 C 20.943621 28.857683 20.952723 28.859289 20.958984 28.865234 C 20.964929 28.871496 20.966535 28.880598 20.972656 28.886719 C 20.978777 28.89284 20.987879 28.894446 20.994141 28.900391 C 21.000086 28.906652 21.001692 28.915754 21.007812 28.921875 C 21.013543 28.927605 21.02149 28.929971 21.027344 28.935547 C 21.03292 28.9414 21.035285 28.949348 21.041016 28.955078 C 21.046746 28.960809 21.054693 28.963174 21.060547 28.96875 C 21.066123 28.974604 21.068488 28.982551 21.074219 28.988281 C 21.078908 28.99297 21.085072 28.995414 21.089844 29 C 21.096009 29.006506 21.099114 29.01513 21.105469 29.021484 C 21.111823 29.027839 21.120447 29.030944 21.126953 29.037109 C 21.131539 29.041881 21.133983 29.048046 21.138672 29.052734 C 21.143751 29.057813 21.151074 29.059495 21.15625 29.064453 C 21.161208 29.069629 21.16289 29.076952 21.167969 29.082031 C 21.173416 29.087479 21.181941 29.088442 21.1875 29.09375 C 21.192829 29.099332 21.193749 29.107812 21.199219 29.113281 C 21.204298 29.11836 21.211621 29.120042 21.216797 29.125 C 21.221755 29.130176 21.223437 29.137499 21.228516 29.142578 C 21.232553 29.146616 21.238089 29.148383 21.242188 29.152344 C 21.247741 29.158172 21.250153 29.166169 21.255859 29.171875 C 21.261566 29.177581 21.269562 29.179993 21.275391 29.185547 C 21.279352 29.189646 21.281119 29.195181 21.285156 29.199219 C 21.289845 29.203908 21.29601 29.206352 21.300781 29.210938 C 21.305367 29.215709 21.307811 29.221874 21.3125 29.226562 C 21.316928 29.23099 21.323623 29.231992 21.328125 29.236328 C 21.332461 29.24083 21.333463 29.247525 21.337891 29.251953 C 21.342318 29.256381 21.349014 29.257383 21.353516 29.261719 C 21.357851 29.26622 21.358854 29.272916 21.363281 29.277344 C 21.367709 29.281772 21.374405 29.282774 21.378906 29.287109 C 21.383242 29.291611 21.384244 29.298307 21.388672 29.302734 C 21.392709 29.306772 21.398245 29.308539 21.402344 29.3125 C 21.406305 29.316599 21.408072 29.322134 21.412109 29.326172 C 21.416147 29.330209 21.421682 29.331976 21.425781 29.335938 C 21.429742 29.340036 21.431509 29.345572 21.435547 29.349609 C 21.439584 29.353647 21.44512 29.355414 21.449219 29.359375 C 21.45318 29.363474 21.454947 29.369009 21.458984 29.373047 C 21.462761 29.376823 21.468826 29.37715 21.472656 29.380859 C 21.476366 29.38469 21.476692 29.390755 21.480469 29.394531 C 21.484245 29.398308 21.49031 29.398634 21.494141 29.402344 C 21.49785 29.406174 21.498177 29.412239 21.501953 29.416016 C 21.505339 29.419402 21.510243 29.420496 21.513672 29.423828 C 21.517004 29.427257 21.518098 29.432161 21.521484 29.435547 C 21.524219 29.438282 21.528487 29.438707 21.53125 29.441406 C 21.535569 29.445889 21.536606 29.452622 21.541016 29.457031 C 21.545036 29.461052 21.550606 29.462852 21.554688 29.466797 C 21.557006 29.469162 21.558202 29.472265 21.560547 29.474609 C 21.562891 29.476954 21.565994 29.47815 21.568359 29.480469 C 21.572304 29.48455 21.574105 29.49012 21.578125 29.494141 C 21.581886 29.497902 21.587982 29.498258 21.591797 29.501953 C 21.59386 29.504053 21.59362 29.507682 21.595703 29.509766 C 21.598699 29.512761 21.602439 29.514624 21.605469 29.517578 C 21.608422 29.520608 21.610286 29.524348 21.613281 29.527344 C 21.616016 29.530078 21.620284 29.530503 21.623047 29.533203 C 21.625747 29.535966 21.626172 29.540234 21.628906 29.542969 C 21.631641 29.545703 21.635909 29.546128 21.638672 29.548828 C 21.641372 29.551591 21.641797 29.555859 21.644531 29.558594 C 21.646876 29.560938 21.649979 29.562134 21.652344 29.564453 C 21.654662 29.566818 21.655859 29.569921 21.658203 29.572266 C 21.660548 29.57461 21.66365 29.575806 21.666016 29.578125 C 21.668334 29.58049 21.669531 29.583593 21.671875 29.585938 C 21.674219 29.588282 21.677322 29.589478 21.679688 29.591797 C 21.682006 29.594162 21.683202 29.597265 21.685547 29.599609 C 21.68763 29.601693 21.69126 29.601453 21.693359 29.603516 C 21.695422 29.605615 21.695182 29.609245 21.697266 29.611328 C 21.699349 29.613411 21.702978 29.613171 21.705078 29.615234 C 21.707141 29.617334 21.706901 29.620964 21.708984 29.623047 C 21.711068 29.62513 21.714697 29.62489 21.716797 29.626953 C 21.71886 29.629053 21.71862 29.632682 21.720703 29.634766 C 21.722396 29.636459 21.724859 29.636992 21.726562 29.638672 C 21.728242 29.640376 21.728776 29.642838 21.730469 29.644531 C 21.732162 29.646224 21.734624 29.646758 21.736328 29.648438 C 21.738008 29.650141 21.738541 29.652604 21.740234 29.654297 C 21.741537 29.6556 21.742831 29.656908 21.744141 29.658203 C 21.745435 29.659512 21.746744 29.660807 21.748047 29.662109 C 21.74935 29.663412 21.750644 29.664721 21.751953 29.666016 C 21.753248 29.667325 21.754557 29.668619 21.755859 29.669922 C 21.757162 29.671225 21.758456 29.672533 21.759766 29.673828 C 21.76106 29.675137 21.762369 29.676432 21.763672 29.677734 C 21.764714 29.678776 21.766532 29.678651 21.767578 29.679688 C 21.768615 29.680733 21.76849 29.682552 21.769531 29.683594 C 21.770573 29.684635 21.772392 29.68451 21.773438 29.685547 C 21.774474 29.686593 21.774349 29.688411 21.775391 29.689453 C 21.775391 29.689453 21.777344 29.691406 21.777344 29.691406 C 21.777344 29.691406 21.779297 29.693359 21.779297 29.693359 C 21.779297 29.693359 21.78125 29.695312 21.78125 29.695312 C 21.78125 29.695312 21.783203 29.697266 21.783203 29.697266 C 21.783203 29.697266 21.785156 29.699219 21.785156 29.699219 C 21.785156 29.699219 21.787109 29.701172 21.787109 29.701172 C 21.787109 29.701172 21.789062 29.701172 21.789062 29.701172 C 21.789062 29.701172 21.789062 29.703125 21.789062 29.703125 C 21.790357 29.704434 21.791666 29.705729 21.792969 29.707031 C 21.885434 29.799497 21.995036 29.87019 22.113281 29.919922 C 22.113281 29.919922 22.115234 29.921875 22.115234 29.921875 C 22.236116 29.97233 22.36647 30 22.5 30 L 27.5 30 C 27.765216 30 28.019494 29.894567 28.207031 29.707031 C 28.394567 29.519494 28.5 29.265216 28.5 29 L 28.5 21 C 28.5 20.866449 28.472329 20.736131 28.421875 20.615234 C 28.372117 20.496005 28.300145 20.386083 28.207031 20.292969 C 28.205338 20.291276 28.202876 20.290742 28.201172 20.289062 C 28.201172 20.289062 28.201172 20.287109 28.201172 20.287109 C 28.201172 20.287109 28.199219 20.285156 28.199219 20.285156 C 28.199219 20.285156 28.197266 20.283203 28.197266 20.283203 C 28.197266 20.283203 28.195312 20.28125 28.195312 20.28125 C 28.195312 20.28125 28.193359 20.279297 28.193359 20.279297 C 28.193359 20.279297 28.191406 20.277344 28.191406 20.277344 C 28.191406 20.277344 28.189453 20.275391 28.189453 20.275391 C 28.188413 20.274346 28.186591 20.274477 28.185547 20.273438 C 28.184516 20.272397 28.18463 20.270567 28.183594 20.269531 C 28.182554 20.268486 28.180732 20.268618 28.179688 20.267578 C 28.178657 20.266538 28.17877 20.264708 28.177734 20.263672 C 28.175655 20.26158 28.172018 20.259884 28.169922 20.257812 C 28.168625 20.256506 28.167319 20.255205 28.166016 20.253906 C 28.164737 20.252613 28.163396 20.251287 28.162109 20.25 C 28.160813 20.248692 28.159506 20.247394 28.158203 20.246094 C 28.156925 20.244801 28.155583 20.243473 28.154297 20.242188 C 28.154297 20.242188 28.152344 20.240234 28.152344 20.240234 C 28.150049 20.237891 28.148805 20.234742 28.146484 20.232422 C 28.14378 20.229684 28.139452 20.229266 28.136719 20.226562 C 28.135699 20.225533 28.13579 20.223681 28.134766 20.222656 C 28.133086 20.220952 28.130597 20.220441 28.128906 20.21875 C 28.127252 20.21707 28.126667 20.214558 28.125 20.212891 C 28.122289 20.210135 28.117975 20.209752 28.115234 20.207031 C 28.114216 20.206003 28.114305 20.204148 28.113281 20.203125 C 28.110964 20.200764 28.107808 20.199601 28.105469 20.197266 C 28.103817 20.195588 28.103227 20.193071 28.101562 20.191406 C 28.099891 20.189699 28.097386 20.189194 28.095703 20.1875 C 28.09306 20.184789 28.092521 20.180411 28.089844 20.177734 C 28.086504 20.174315 28.08151 20.173288 28.078125 20.169922 C 28.07711 20.168897 28.077192 20.167036 28.076172 20.166016 C 28.072844 20.1626 28.067825 20.161566 28.064453 20.158203 C 28.062813 20.156537 28.0622 20.153997 28.060547 20.152344 C 28.058878 20.150626 28.056368 20.150142 28.054688 20.148438 C 28.05145 20.145094 28.050164 20.140008 28.046875 20.136719 C 28.043934 20.133682 28.040086 20.131901 28.037109 20.128906 C 28.034866 20.126612 28.033518 20.123362 28.03125 20.121094 C 28.027293 20.116996 28.0216 20.115351 28.017578 20.111328 C 28.015957 20.10968 28.015306 20.107103 28.013672 20.105469 C 28.010725 20.102406 28.00689 20.100677 28.003906 20.097656 C 28.001668 20.095366 28.000309 20.092106 27.998047 20.089844 C 27.994747 20.086403 27.989674 20.085419 27.986328 20.082031 C 27.983729 20.07936 27.983101 20.074898 27.980469 20.072266 C 27.976161 20.067758 27.96923 20.066917 27.964844 20.0625 C 27.962864 20.060478 27.962936 20.056686 27.960938 20.054688 C 27.957021 20.050575 27.951247 20.04896 27.947266 20.044922 C 27.944694 20.042278 27.94401 20.03776 27.941406 20.035156 C 27.937495 20.031034 27.931711 20.029438 27.927734 20.025391 C 27.925167 20.022749 27.924475 20.018225 27.921875 20.015625 C 27.917337 20.010823 27.910877 20.008607 27.90625 20.003906 C 27.904065 20.001667 27.902599 19.998303 27.900391 19.996094 C 27.896116 19.991551 27.889121 19.990781 27.884766 19.986328 C 27.88186 19.983325 27.881853 19.977556 27.878906 19.974609 C 27.874638 19.970054 27.867631 19.969309 27.863281 19.964844 C 27.860372 19.961835 27.860373 19.956076 27.857422 19.953125 C 27.852917 19.948296 27.846393 19.946134 27.841797 19.941406 C 27.838695 19.938189 27.837134 19.932837 27.833984 19.929688 C 27.828859 19.92417 27.82165 19.921403 27.816406 19.916016 C 27.814258 19.913811 27.812718 19.910374 27.810547 19.908203 C 27.806068 19.903359 27.799492 19.901228 27.794922 19.896484 C 27.791824 19.893266 27.790255 19.887911 27.787109 19.884766 C 27.782029 19.879244 27.774732 19.876486 27.769531 19.871094 C 27.766464 19.867907 27.764833 19.862489 27.761719 19.859375 C 27.755664 19.852763 27.746461 19.850177 27.740234 19.84375 C 27.737764 19.841201 27.736876 19.836485 27.734375 19.833984 C 27.729292 19.828405 27.722003 19.825761 27.716797 19.820312 C 27.713754 19.817147 27.712074 19.811683 27.708984 19.808594 C 27.703586 19.802638 27.694991 19.800729 27.689453 19.794922 C 27.686072 19.791386 27.685079 19.784689 27.681641 19.78125 C 27.676253 19.775274 27.667638 19.773406 27.662109 19.767578 C 27.65874 19.764052 27.657723 19.757332 27.654297 19.753906 C 27.64769 19.746538 27.637681 19.743472 27.630859 19.736328 C 27.628427 19.733813 27.627462 19.729024 27.625 19.726562 C 27.620262 19.721249 27.612272 19.720041 27.607422 19.714844 C 27.602817 19.70993 27.600417 19.701979 27.595703 19.697266 C 27.589753 19.690554 27.580348 19.688168 27.574219 19.681641 C 27.570543 19.677766 27.568197 19.671713 27.564453 19.667969 C 27.558509 19.661226 27.549093 19.658903 27.542969 19.652344 C 27.539301 19.648474 27.536939 19.642408 27.533203 19.638672 C 27.528233 19.633 27.520724 19.630543 27.515625 19.625 C 27.510806 19.61982 27.506892 19.612361 27.501953 19.607422 C 27.49666 19.601345 27.487862 19.59968 27.482422 19.59375 C 27.477831 19.588825 27.475403 19.580872 27.470703 19.576172 C 27.464237 19.568701 27.453955 19.565844 27.447266 19.558594 C 27.443603 19.554715 27.441232 19.548654 27.4375 19.544922 C 27.431067 19.537442 27.420719 19.534603 27.414062 19.527344 C 27.409852 19.52284 27.406646 19.516021 27.402344 19.511719 C 27.396862 19.505303 27.38846 19.502349 27.382812 19.496094 C 27.378014 19.490905 27.374059 19.483434 27.369141 19.478516 C 27.363115 19.471416 27.353885 19.467841 27.347656 19.460938 C 27.342908 19.455798 27.338851 19.448226 27.333984 19.443359 C 27.327044 19.435127 27.315807 19.431799 27.308594 19.423828 C 27.304425 19.419352 27.301135 19.412463 27.296875 19.408203 C 27.289589 19.399502 27.277122 19.397084 27.269531 19.388672 C 27.26561 19.384474 27.263767 19.377048 27.259766 19.373047 C 27.253446 19.365447 27.242881 19.36285 27.236328 19.355469 C 27.231328 19.350004 27.227789 19.34107 27.222656 19.335938 C 27.214866 19.326501 27.201509 19.323554 27.193359 19.314453 C 27.189489 19.3103 27.187543 19.302778 27.183594 19.298828 C 27.176741 19.290468 27.165339 19.287396 27.158203 19.279297 C 27.153761 19.274472 27.151031 19.266265 27.146484 19.261719 C 27.138178 19.25151 27.123962 19.248103 27.115234 19.238281 C 27.111363 19.234114 27.109419 19.226606 27.105469 19.222656 C 27.098116 19.213551 27.085814 19.209972 27.078125 19.201172 C 27.073743 19.196399 27.070891 19.188078 27.066406 19.183594 C 27.057622 19.172633 27.042474 19.168725 27.033203 19.158203 C 27.029384 19.154082 27.027334 19.146474 27.023438 19.142578 C 27.014969 19.131928 27.001117 19.127426 26.992188 19.117188 C 26.988707 19.113451 26.985966 19.10706 26.982422 19.103516 C 26.974607 19.093611 26.961339 19.089631 26.953125 19.080078 C 26.948277 19.074716 26.944428 19.065521 26.939453 19.060547 C 26.93049 19.049095 26.915747 19.044188 26.90625 19.033203 C 26.902802 19.029491 26.899996 19.023043 26.896484 19.019531 C 26.887295 19.007695 26.871088 19.003529 26.861328 18.992188 C 26.857586 18.988127 26.85538 18.98038 26.851562 18.976562 C 26.843276 18.9658 26.829073 18.961529 26.820312 18.951172 C 26.816002 18.946425 26.813005 18.938005 26.808594 18.933594 C 26.798709 18.920648 26.782052 18.914707 26.771484 18.902344 C 26.768098 18.898684 26.765167 18.89212 26.761719 18.888672 C 26.75242 18.876389 26.736478 18.871138 26.726562 18.859375 C 26.722847 18.855322 26.720587 18.84754 26.716797 18.84375 C 26.706705 18.830305 26.688564 18.825327 26.677734 18.8125 C 26.674566 18.809081 26.673145 18.802051 26.669922 18.798828 C 26.659377 18.784656 26.640271 18.779116 26.628906 18.765625 C 26.625749 18.762213 26.624305 18.755165 26.621094 18.751953 C 26.610299 18.737316 26.591748 18.730714 26.580078 18.716797 C 26.577278 18.713791 26.575109 18.707921 26.572266 18.705078 C 26.562089 18.691155 26.544173 18.685154 26.533203 18.671875 C 26.529598 18.667919 26.527114 18.659927 26.523438 18.65625 C 26.478645 18.594409 26.426301 18.540526 26.367188 18.492188 C 26.351566 18.477125 26.337007 18.461173 26.320312 18.447266 C 26.302124 18.429326 26.285314 18.410873 26.265625 18.394531 C 26.24876 18.377933 26.234956 18.358979 26.216797 18.34375 C 26.198661 18.325721 26.181764 18.307446 26.162109 18.291016 C 26.144099 18.273052 26.128896 18.252711 26.109375 18.236328 C 26.091683 18.218599 26.075806 18.199793 26.056641 18.183594 C 26.037487 18.164169 26.018959 18.144564 25.998047 18.126953 C 25.979781 18.108467 25.963227 18.089107 25.943359 18.072266 C 25.923924 18.052449 25.906035 18.031611 25.884766 18.013672 C 25.86691 17.99551 25.849486 17.977521 25.830078 17.960938 C 25.811053 17.941265 25.792317 17.922152 25.771484 17.904297 C 25.750942 17.88284 25.731664 17.861113 25.708984 17.841797 C 25.690949 17.82312 25.673972 17.804153 25.654297 17.787109 C 25.634599 17.766291 25.615462 17.745396 25.59375 17.726562 C 25.574721 17.706314 25.556093 17.686358 25.535156 17.667969 C 25.51334 17.644495 25.491152 17.622558 25.466797 17.601562 C 25.446716 17.580203 25.426505 17.560299 25.404297 17.541016 C 25.384692 17.520014 25.36541 17.499482 25.34375 17.480469 C 25.324238 17.45927 25.304801 17.43913 25.283203 17.419922 C 25.260753 17.395109 25.238163 17.371736 25.212891 17.349609 C 25.192791 17.327728 25.172716 17.306871 25.150391 17.287109 C 25.129557 17.264105 25.107263 17.243355 25.083984 17.222656 C 25.06164 17.197729 25.038868 17.174588 25.013672 17.152344 C 24.993745 17.130293 24.973355 17.109784 24.951172 17.089844 C 24.928426 17.064064 24.904687 17.04054 24.878906 17.017578 C 24.857857 16.993928 24.836128 16.972433 24.8125 16.951172 C 24.790806 16.926458 24.76668 16.904957 24.742188 16.882812 C 24.719622 16.856973 24.695538 16.833589 24.669922 16.810547 C 24.647949 16.785365 24.624486 16.762766 24.599609 16.740234 C 24.576461 16.71349 24.551796 16.689791 24.525391 16.666016 C 24.504726 16.64221 24.482251 16.621067 24.458984 16.599609 C 24.43503 16.571318 24.408426 16.546533 24.380859 16.521484 C 24.35883 16.495707 24.333651 16.474239 24.308594 16.451172 C 24.285834 16.424205 24.260428 16.400992 24.234375 16.376953 C 24.210011 16.347867 24.182467 16.322573 24.154297 16.296875 C 24.131866 16.270351 24.105703 16.248297 24.080078 16.224609 C 24.056423 16.196125 24.029256 16.171757 24.001953 16.146484 C 23.978846 16.118629 23.952382 16.095105 23.925781 16.070312 C 23.901906 16.041284 23.875306 16.015964 23.847656 15.990234 C 23.823818 15.961143 23.795203 15.937902 23.767578 15.912109 C 23.743028 15.881996 23.71414 15.856672 23.685547 15.830078 C 23.662075 15.801358 23.634585 15.777472 23.607422 15.751953 C 23.583639 15.722429 23.555003 15.69807 23.527344 15.671875 C 23.502812 15.641176 23.47206 15.616971 23.443359 15.589844 C 23.418791 15.558937 23.390113 15.533168 23.361328 15.505859 C 23.335751 15.473564 23.3036 15.448297 23.273438 15.419922 C 23.2495 15.389847 23.221296 15.364561 23.193359 15.337891 C 23.168069 15.305779 23.135283 15.280218 23.105469 15.251953 C 23.081513 15.221495 23.051473 15.196938 23.023438 15.169922 C 22.997508 15.136338 22.964422 15.109544 22.933594 15.080078 C 22.909518 15.049181 22.877862 15.02544 22.849609 14.998047 C 22.822913 14.962995 22.789803 14.934925 22.757812 14.904297 C 22.732958 14.872101 22.701235 14.846787 22.671875 14.818359 C 22.645502 14.783695 22.611622 14.756914 22.580078 14.726562 C 22.555678 14.694584 22.522964 14.670895 22.494141 14.642578 C 22.466831 14.605945 22.431457 14.576837 22.398438 14.544922 C 22.37325 14.511602 22.340501 14.486414 22.310547 14.457031 C 22.284646 14.422255 22.249802 14.395785 22.21875 14.365234 C 22.192453 14.329645 22.156666 14.302685 22.125 14.271484 C 22.097902 14.234757 22.060138 14.203929 22.027344 14.171875 C 22.00094 14.13658 21.965286 14.109051 21.933594 14.078125 C 21.907202 14.042563 21.871582 14.015544 21.839844 13.984375 C 21.813461 13.94854 21.77593 13.922041 21.744141 13.890625 C 21.717905 13.854703 21.680085 13.826447 21.648438 13.794922 C 21.621542 13.757799 21.583423 13.729728 21.550781 13.697266 C 21.524167 13.660236 21.485436 13.634002 21.453125 13.601562 C 21.426392 13.564068 21.388015 13.536738 21.355469 13.503906 C 21.302 13.428311 21.235618 13.362069 21.160156 13.306641 C 21.127081 13.272692 21.098956 13.235395 21.060547 13.207031 C 21.026817 13.172192 20.998298 13.132519 20.958984 13.103516 C 20.924875 13.068347 20.895258 13.02921 20.855469 13 C 20.821859 12.965352 20.793028 12.927312 20.753906 12.898438 C 20.720557 12.86373 20.691191 12.825869 20.652344 12.796875 C 20.617226 12.760039 20.586172 12.719902 20.544922 12.689453 C 20.510948 12.654104 20.481056 12.615364 20.441406 12.585938 C 20.407698 12.550532 20.377258 12.511968 20.337891 12.482422 C 20.302784 12.445147 20.271783 12.405859 20.230469 12.375 C 20.194246 12.336542 20.161942 12.295293 20.119141 12.263672 C 20.085644 12.228504 20.056631 12.189563 20.017578 12.160156 C 19.98184 12.121748 19.948492 12.082498 19.90625 12.050781 C 19.870666 12.012665 19.838863 11.972916 19.796875 11.941406 C 19.761731 11.903593 19.73088 11.863394 19.689453 11.832031 C 19.652726 11.792202 19.617849 11.751481 19.574219 11.71875 C 19.539617 11.681534 19.50942 11.642317 19.46875 11.611328 C 19.431213 11.570061 19.396416 11.527926 19.351562 11.494141 C 19.316239 11.45586 19.283868 11.416531 19.242188 11.384766 C 19.205215 11.344134 19.170997 11.302937 19.126953 11.269531 C 19.090429 11.229411 19.057082 11.189339 19.013672 11.15625 C 18.97649 11.11515 18.942797 11.072843 18.898438 11.039062 C 18.861089 10.997788 18.825817 10.955775 18.78125 10.921875 C 18.744981 10.881812 18.71104 10.841731 18.667969 10.808594 C 18.629807 10.765854 18.59463 10.722476 18.548828 10.6875 C 18.511741 10.646181 18.475886 10.606309 18.431641 10.572266 C 18.393843 10.529691 18.359779 10.486128 18.314453 10.451172 C 18.275702 10.407485 18.238044 10.365751 18.191406 10.330078 C 18.153834 10.28792 18.119151 10.245621 18.074219 10.210938 C 18.035238 10.166745 17.998155 10.123965 17.951172 10.087891 C 17.912219 10.043862 17.875012 10.0008 17.828125 9.9648438 C 17.79035 9.9222287 17.754198 9.8807706 17.708984 9.8457031 C 17.669597 9.8006612 17.631576 9.7574416 17.583984 9.7207031 C 17.545121 9.676346 17.507753 9.6339659 17.460938 9.5976562 C 17.421947 9.5529599 17.384914 9.509239 17.337891 9.4726562 C 17.298669 9.427523 17.26026 9.3845679 17.212891 9.3476562 C 17.172555 9.300941 17.132978 9.2567239 17.083984 9.21875 C 17.044108 9.1729318 17.005252 9.1291506 16.957031 9.0917969 C 16.918143 9.0469335 16.88085 9.0036178 16.833984 8.9667969 C 16.793311 8.9191642 16.752668 8.8746538 16.703125 8.8359375 C 16.662806 8.7890354 16.623147 8.7452435 16.574219 8.7070312 C 16.533942 8.6599916 16.494207 8.6164855 16.445312 8.578125 C 16.404936 8.5306788 16.365497 8.4859647 16.316406 8.4472656 C 16.275207 8.3986612 16.233878 8.3539268 16.183594 8.3144531 C 16.14331 8.267064 16.10361 8.2223093 16.054688 8.1835938 C 16.013084 8.1341717 15.970823 8.0889228 15.919922 8.0488281 C 15.879159 8.0004996 15.838713 7.9554399 15.789062 7.9160156 C 15.747555 7.8666144 15.705031 7.8213981 15.654297 7.78125 C 15.612887 7.7318162 15.570139 7.6867098 15.519531 7.6464844 C 15.477383 7.5960591 15.434478 7.5506432 15.382812 7.5097656 C 15.340617 7.4593855 15.297767 7.4138962 15.246094 7.3730469 C 15.204865 7.323672 15.16359 7.2785744 15.113281 7.2382812 C 15.069733 7.18551 15.024484 7.1382218 14.970703 7.0957031 C 14.92904 7.0457571 14.886819 6.9996871 14.835938 6.9589844 C 14.793484 6.9075674 14.749395 6.8620606 14.697266 6.8203125 C 14.654149 6.7678176 14.609772 6.7202251 14.556641 6.6777344 C 14.513897 6.6259173 14.468512 6.5811155 14.416016 6.5390625 C 14.372237 6.4854927 14.327539 6.4377844 14.273438 6.3945312 C 14.230852 6.3427347 14.18702 6.2960381 14.134766 6.2539062 C 14.090889 6.2000032 14.044473 6.1529338 13.990234 6.109375 C 13.946858 6.0562312 13.901092 6.0098912 13.847656 5.9667969 C 13.804075 5.9130308 13.758884 5.8658515 13.705078 5.8222656 C 13.66054 5.767175 13.613798 5.7182722 13.558594 5.6738281 C 13.514995 5.6201344 13.467798 5.5748254 13.414062 5.53125 C 13.231292 5.30407 12.962762 5.1484374 12.648438 5.1484375 L 7.6484375 5.1484375 z "
       id="path5264"
       style="opacity:0.2;fill-opacity:1;fill:url(#linearGradient6116)"
       clip-path="url(#clipPath6121)" />
    <rect
       style="opacity:1;fill:#ffffff;fill-opacity:1;stroke:none;stroke-width:2;stroke-miterlimit:4;stroke-dasharray:none;stroke-opacity:1"
       id="rect6127"
       width="5.7452426"
       height="2.7147849"
       x="7.1973367"
       y="5.542192" />
    <rect
       style="opacity:1;fill:#ffffff;fill-opacity:1;stroke:none;stroke-width:2;stroke-miterlimit:4;stroke-dasharray:none;stroke-opacity:1"
       id="rect6125"
       width="6.3765879"
       height="6.3134532"
       x="6.8816643"
       y="8.3201113" />
    <path
       inkscape:connector-curvature="0"
       d="m 7.4999777,5.0000048 5.0000003,0 a 0.99999998,0.99999998 0 0 1 1,0.9999999 l 0,8.0000003 a 0.99999998,0.99999998 0 0 1 -1,1 l -5.0000003,0 a 0.99999998,0.99999998 0 0 1 -1,-1 l 0,-8.0000003 a 0.99999998,0.99999998 0 0 1 1,-0.9999999 m 0,0.9999999 0,2 5.0000003,0 0,-2 -5.0000003,0 m 0,3 0,1.0000003 1,0 0,-1.0000003 -1,0 m 2,0 0,1.0000003 1.0000003,0 0,-1.0000003 -1.0000003,0 m 2.0000003,0 0,1.0000003 1,0 0,-1.0000003 -1,0 m -4.0000003,2.0000003 0,1 1,0 0,-1 -1,0 m 2,0 0,1 1.0000003,0 0,-1 -1.0000003,0 m 2.0000003,0 0,1 1,0 0,-1 -1,0 m -4.0000003,2 0,1 1,0 0,-1 -1,0 m 2,0 0,1 1.0000003,0 0,-1 -1.0000003,0 m 2.0000003,0 0,1 1,0 0,-1 -1,0 z"
       id="path5205"
       style="fill:#8bc34a" />
    <path
       style="fill:none"
       inkscape:connector-curvature="0"
       id="path4"
       d="m 3.9999777,4.0333382 12.0000003,0 0,11.9333328 -12.0000003,0 z" />
    <path
       d="m 18.999978,19.033339 12,0 0,11.933333 -12,0 z"
       id="path9754"
       inkscape:connector-curvature="0"
       style="fill:none" />
  </g>
</svg>
