<?xml version="1.0" encoding="UTF-8" standalone="no"?>
<!-- Created with Inkscape (http://www.inkscape.org/) -->

<svg
   xmlns:dc="http://purl.org/dc/elements/1.1/"
   xmlns:cc="http://creativecommons.org/ns#"
   xmlns:rdf="http://www.w3.org/1999/02/22-rdf-syntax-ns#"
   xmlns:svg="http://www.w3.org/2000/svg"
   xmlns="http://www.w3.org/2000/svg"
   xmlns:xlink="http://www.w3.org/1999/xlink"
   xmlns:sodipodi="http://sodipodi.sourceforge.net/DTD/sodipodi-0.dtd"
   xmlns:inkscape="http://www.inkscape.org/namespaces/inkscape"
   sodipodi:docname="cgeo.svg"
   inkscape:version="0.91 r13725"
   version="1.1"
   id="svg2"
   viewBox="0 0 20 20"
   height="5.6444445mm"
   width="5.6444445mm">
  <sodipodi:namedview
     inkscape:snap-to-guides="true"
     inkscape:snap-grids="true"
     inkscape:window-maximized="1"
     inkscape:window-y="0"
     inkscape:window-x="0"
     inkscape:window-height="726"
     inkscape:window-width="1366"
     inkscape:guide-bbox="true"
     showguides="true"
     fit-margin-bottom="0"
     fit-margin-right="0"
     fit-margin-left="0"
     fit-margin-top="0"
     showgrid="true"
     inkscape:current-layer="layer2"
     inkscape:document-units="px"
     inkscape:cy="3.9634248"
     inkscape:cx="9.5448121"
     inkscape:zoom="15.839192"
     inkscape:pageshadow="2"
     inkscape:pageopacity="0.0"
     borderopacity="1.0"
     bordercolor="#666666"
     pagecolor="#ffffff"
     id="base">
    <inkscape:grid
       id="grid4138"
       type="xygrid" />
    <sodipodi:guide
       id="guide4140"
       orientation="0,1"
       position="10,18" />
    <sodipodi:guide
       id="guide4142"
       orientation="0,1"
       position="10,2" />
    <sodipodi:guide
       id="guide4144"
       orientation="1,0"
       position="2,10" />
    <sodipodi:guide
       id="guide4146"
       orientation="0,20"
       position="0,0" />
    <sodipodi:guide
       id="guide4148"
       orientation="-20,0"
       position="20,0" />
    <sodipodi:guide
       id="guide4150"
       orientation="0,-20"
       position="20,20" />
    <sodipodi:guide
       id="guide4152"
       orientation="20,0"
       position="0,20" />
    <sodipodi:guide
       id="guide4154"
       orientation="1,0"
       position="18,10" />
    <sodipodi:guide
       id="guide4156"
       orientation="-0.70710678,0.70710678"
       position="10,10" />
    <sodipodi:guide
       id="guide4158"
       orientation="0.70710678,0.70710678"
       position="10,10" />
    <sodipodi:guide
       id="guide4160"
       orientation="1,0"
       position="4,10" />
    <sodipodi:guide
       id="guide4162"
       orientation="1,0"
       position="16,10" />
    <sodipodi:guide
       id="guide4164"
       orientation="0,1"
       position="10,16" />
    <sodipodi:guide
       id="guide4166"
       orientation="0,1"
       position="10,4" />
    <sodipodi:guide
       id="guide4168"
       orientation="0,1"
       position="10,15" />
    <sodipodi:guide
       id="guide4170"
       orientation="0,1"
       position="10,5" />
    <sodipodi:guide
       id="guide4172"
       orientation="1,0"
       position="5,10" />
    <sodipodi:guide
       id="guide4174"
       orientation="1,0"
       position="15,10" />
  </sodipodi:namedview>
  <defs
     id="defs4">
    <linearGradient
       inkscape:collect="always"
       id="linearGradient7096">
      <stop
         style="stop-color:#000000;stop-opacity:1;"
         offset="0"
         id="stop7098" />
      <stop
         style="stop-color:#000000;stop-opacity:0;"
         offset="1"
         id="stop7100" />
    </linearGradient>
    <clipPath
       clipPathUnits="userSpaceOnUse"
       id="clipPath12478">
      <circle
         style="opacity:1;fill:#2196f3;fill-opacity:1;stroke:none;stroke-width:0.05069799;stroke-miterlimit:4;stroke-dasharray:none;stroke-opacity:1"
         id="circle12480"
         cx="9.9999781"
         cy="10.000005"
         r="10" />
    </clipPath>
    <clipPath
       id="clipPath5790"
       clipPathUnits="userSpaceOnUse">
      <circle
         inkscape:export-ydpi="648"
         inkscape:export-xdpi="648"
         inkscape:export-filename="/home/juergen/path4136.png"
         style="opacity:1;fill:#2196f3;fill-opacity:1;stroke:none;stroke-width:0.05069799;stroke-miterlimit:4;stroke-dasharray:none;stroke-opacity:1"
         id="circle5792"
         cx="9.9999781"
         cy="10.000005"
         r="10" />
    </clipPath>
    <clipPath
       clipPathUnits="userSpaceOnUse"
       id="clipPath7690">
      <circle
         inkscape:export-ydpi="648"
         inkscape:export-xdpi="648"
         inkscape:export-filename="/home/juergen/Schreibtisch/path4136.png"
         style="opacity:1;fill:#2196f3;fill-opacity:1;stroke:none;stroke-width:0.05069799;stroke-miterlimit:4;stroke-dasharray:none;stroke-opacity:1"
         id="circle7692"
         cx="9.9999781"
         cy="10.000005"
         r="10" />
    </clipPath>
    <clipPath
       id="clipPath5119"
       clipPathUnits="userSpaceOnUse">
      <circle
         inkscape:export-ydpi="648"
         inkscape:export-xdpi="648"
         inkscape:export-filename="/home/juergen/Schreibtisch/path4136.png"
         style="opacity:1;fill:#ff9800;fill-opacity:1;stroke:none;stroke-width:0.05069799;stroke-miterlimit:4;stroke-dasharray:none;stroke-opacity:1"
         id="circle5121"
         cx="9.9999781"
         cy="10.000005"
         r="10" />
    </clipPath>
    <clipPath
       clipPathUnits="userSpaceOnUse"
       id="clipPath5125">
      <circle
         inkscape:export-ydpi="648"
         inkscape:export-xdpi="648"
         inkscape:export-filename="/home/juergen/Schreibtisch/path4136.png"
         style="opacity:1;fill:#e91e63;fill-opacity:1;stroke:none;stroke-width:0.05069799;stroke-miterlimit:4;stroke-dasharray:none;stroke-opacity:1"
         id="circle5127"
         cx="9.9999781"
         cy="10.000005"
         r="10" />
    </clipPath>
    <clipPath
       id="clipPath6122"
       clipPathUnits="userSpaceOnUse">
      <circle
         inkscape:export-ydpi="648"
         inkscape:export-xdpi="648"
         inkscape:export-filename="/home/juergen/Schreibtisch/path4136.png"
         style="opacity:1;fill:#ffc107;fill-opacity:1;stroke:none;stroke-width:0.05069799;stroke-miterlimit:4;stroke-dasharray:none;stroke-opacity:1"
         id="circle6124"
         cx="9.9999781"
         cy="10.000005"
         r="10" />
    </clipPath>
    <linearGradient
       inkscape:collect="always"
       xlink:href="#linearGradient7096"
       id="linearGradient7102"
       x1="10"
       y1="10"
       x2="20"
       y2="20"
       gradientUnits="userSpaceOnUse" />
    <clipPath
       clipPathUnits="userSpaceOnUse"
       id="clipPath7115">
      <circle
         inkscape:export-ydpi="648"
         inkscape:export-xdpi="648"
         inkscape:export-filename="/home/juergen/Schreibtisch/path4136.png"
         style="opacity:1;fill:#9c27b0;fill-opacity:1;stroke:none;stroke-width:0.05069799;stroke-miterlimit:4;stroke-dasharray:none;stroke-opacity:1"
         id="circle7117"
         cx="9.9999781"
         cy="10.000005"
         r="10" />
    </clipPath>
  </defs>
  <metadata
     id="metadata7">
    <rdf:RDF>
      <cc:Work
         rdf:about="">
        <dc:format>image/svg+xml</dc:format>
        <dc:type
           rdf:resource="http://purl.org/dc/dcmitype/StillImage" />
        <dc:title></dc:title>
      </cc:Work>
    </rdf:RDF>
  </metadata>
  <g
     transform="translate(1058.1428,-861.93365)"
     id="layer1"
     inkscape:groupmode="layer"
     inkscape:label="Hintergrund">
    <circle
       r="10"
       cy="871.93365"
       cx="-1048.1428"
       id="path4136"
       style="opacity:1;fill:#9c27b0;fill-opacity:1;stroke:none;stroke-width:0.05069799;stroke-miterlimit:4;stroke-dasharray:none;stroke-opacity:1"
       inkscape:export-filename="/home/juergen/Schreibtisch/path4136.png"
       inkscape:export-xdpi="648"
       inkscape:export-ydpi="648" />
    <ellipse
       style="opacity:0.2;fill:#9c27b0;fill-opacity:1;stroke:none;stroke-width:2;stroke-miterlimit:4;stroke-dasharray:none;stroke-opacity:1"
       id="path7104"
       cx="-1048.1428"
       cy="870.43365"
       rx="2"
       ry="1.5" />
  </g>
  <g
     inkscape:label="Icon"
     id="layer2"
     inkscape:groupmode="layer"
     style="display:inline">
    <path
       style="fill:none"
       inkscape:connector-curvature="0"
       id="path4"
       d="m 3.9999777,4.0333382 12.0000003,0 0,11.9333328 -12.0000003,0 z" />
    <path
       d="m 18.999978,19.033339 12,0 0,11.933333 -12,0 z"
       id="path9754"
       inkscape:connector-curvature="0"
       style="fill:none" />
    <path
       inkscape:connector-curvature="0"
       d="m 9.9999777,9.7500048 a 1.25,1.25 0 0 1 -1.25,-1.25 1.25,1.25 0 0 1 1.25,-1.25 1.25,1.25 0 0 1 1.2500003,1.25 1.25,1.25 0 0 1 -1.2500003,1.25 m 0,-4.75 a 3.5,3.5 0 0 0 -3.5,3.5 c 0,2.6250002 3.5,6.5000002 3.5,6.5000002 0,0 3.5000003,-3.875 3.5000003,-6.5000002 a 3.5,3.5 0 0 0 -3.5000003,-3.5 z"
       id="path6195" />
    <path
       d="M 10.148438 5.1484375 C 9.2201799 5.1484375 8.3302054 5.5174508 7.6738281 6.1738281 C 7.0174508 6.8302054 6.6484375 7.7201797 6.6484375 8.6484375 C 6.6484375 11.26041 10.122174 15.114081 10.130859 15.126953 C 10.130913 15.127033 10.144212 15.111543 10.144531 15.111328 C 10.164104 15.13378 10.26079 15.250577 10.261719 15.251953 C 10.261828 15.252115 10.275011 15.236467 10.275391 15.236328 C 10.295106 15.25912 10.391194 15.374901 10.392578 15.376953 C 10.392732 15.377181 10.405858 15.363318 10.40625 15.363281 C 10.425505 15.38571 10.51968 15.499278 10.521484 15.501953 C 10.521707 15.502283 10.534656 15.486308 10.535156 15.486328 C 10.554616 15.509161 10.648145 15.621671 10.650391 15.625 C 10.650671 15.625416 10.6635 15.609273 10.664062 15.609375 C 10.683613 15.632477 10.776622 15.744082 10.779297 15.748047 C 10.779615 15.748518 10.792402 15.734182 10.792969 15.734375 C 10.812124 15.757173 10.903195 15.866565 10.90625 15.871094 C 10.906624 15.871647 10.919296 15.85715 10.919922 15.857422 C 10.93917 15.880484 11.029737 15.989004 11.033203 15.994141 C 11.03413 15.995514 11.048682 15.980409 11.050781 15.980469 C 11.069413 16.002951 11.156367 16.109619 11.160156 16.115234 C 11.161157 16.116718 11.175658 16.103239 11.177734 16.103516 C 11.195951 16.125649 11.281044 16.230233 11.285156 16.236328 C 11.286275 16.237986 11.300534 16.224167 11.302734 16.224609 C 11.320869 16.246784 11.405692 16.348852 11.410156 16.355469 C 11.411489 16.357444 11.427093 16.343193 11.429688 16.34375 C 11.447697 16.36591 11.530357 16.467496 11.535156 16.474609 C 11.536456 16.476536 11.55043 16.464047 11.552734 16.464844 C 11.570611 16.486975 11.653081 16.586159 11.658203 16.59375 C 11.659737 16.596023 11.675017 16.583045 11.677734 16.583984 C 11.695532 16.606148 11.775808 16.704824 11.78125 16.712891 C 11.783039 16.715542 11.799567 16.70203 11.802734 16.703125 C 11.820147 16.724944 11.898604 16.821641 11.904297 16.830078 C 11.906072 16.83271 11.920875 16.819011 11.923828 16.820312 C 11.941381 16.842422 12.019355 16.93832 12.025391 16.947266 C 12.027438 16.950301 12.043459 16.936012 12.046875 16.9375 C 12.064098 16.959323 12.140215 17.053208 12.146484 17.0625 C 12.148768 17.065885 12.16614 17.052998 12.169922 17.054688 C 12.186776 17.076168 12.261102 17.168135 12.267578 17.177734 C 12.269834 17.181077 12.28551 17.168049 12.289062 17.169922 C 12.3061 17.191736 12.379912 17.28288 12.386719 17.292969 C 12.391644 17.300269 12.407619 17.295771 12.417969 17.296875 C 12.432593 17.315789 12.499439 17.398687 12.505859 17.408203 C 12.51137 17.416371 12.527471 17.412854 12.539062 17.414062 C 12.553001 17.432206 12.616594 17.51192 12.623047 17.521484 C 12.628939 17.530217 12.646049 17.52579 12.658203 17.527344 C 12.672249 17.545707 12.735477 17.624819 12.742188 17.634766 C 12.748331 17.643872 12.765031 17.640552 12.777344 17.642578 C 12.791075 17.660626 12.85255 17.737931 12.859375 17.748047 C 12.865604 17.757279 12.882531 17.753258 12.894531 17.755859 C 12.908012 17.773666 12.967664 17.84908 12.974609 17.859375 C 12.981653 17.869815 12.999911 17.86839 13.013672 17.871094 C 13.026617 17.888291 13.084849 17.960406 13.091797 17.970703 C 13.099057 17.981464 13.11706 17.979202 13.130859 17.982422 C 13.143756 17.999626 13.199917 18.071486 13.207031 18.082031 C 13.214609 18.093263 13.231971 18.09203 13.246094 18.095703 C 13.25852 18.112368 13.313207 18.180876 13.320312 18.191406 C 13.328286 18.203224 13.346682 18.202932 13.361328 18.207031 C 13.373483 18.223406 13.426435 18.290171 13.433594 18.300781 C 13.442033 18.313289 13.461222 18.313849 13.476562 18.318359 C 13.488427 18.334415 13.539684 18.399499 13.546875 18.410156 C 13.555781 18.423356 13.575778 18.424746 13.591797 18.429688 C 13.603183 18.445173 13.653034 18.507021 13.660156 18.517578 C 13.669257 18.531066 13.689079 18.531641 13.705078 18.537109 C 13.716416 18.552582 13.764246 18.614272 13.771484 18.625 C 13.781645 18.640059 13.802178 18.642677 13.820312 18.648438 C 13.831012 18.663116 13.875754 18.72196 13.882812 18.732422 C 13.893441 18.748175 13.914833 18.751558 13.933594 18.757812 C 13.943829 18.77192 13.987199 18.827602 13.994141 18.837891 C 14.005129 18.854177 14.025816 18.858445 14.044922 18.865234 C 14.0549 18.879039 14.0966 18.933109 14.103516 18.943359 C 14.115035 18.960432 14.136392 18.967314 14.15625 18.974609 C 14.165751 18.987813 14.206134 19.038813 14.212891 19.048828 C 14.224528 19.066077 14.246002 19.070251 14.265625 19.078125 C 14.275094 19.091319 14.31348 19.142216 14.320312 19.152344 C 14.333306 19.171602 14.356605 19.179207 14.378906 19.1875 C 14.387571 19.199639 14.423236 19.246298 14.429688 19.255859 C 14.442741 19.275206 14.464434 19.28405 14.486328 19.292969 C 14.494888 19.304993 14.530644 19.349793 14.537109 19.359375 C 14.549592 19.377875 14.571677 19.385041 14.591797 19.394531 C 14.600648 19.40698 14.635859 19.452932 14.642578 19.462891 C 14.655839 19.482545 14.679799 19.489941 14.701172 19.5 C 14.709434 19.51167 14.741626 19.554936 14.748047 19.564453 C 14.762197 19.585426 14.785741 19.594817 14.808594 19.605469 C 14.816391 19.616522 14.847334 19.656853 14.853516 19.666016 C 14.868436 19.688129 14.893919 19.697726 14.917969 19.708984 C 14.925187 19.719257 14.953136 19.756957 14.958984 19.765625 C 14.974334 19.788376 14.998948 19.800639 15.023438 19.8125 C 15.030199 19.822156 15.056921 19.856966 15.0625 19.865234 C 15.078303 19.888656 15.103932 19.901591 15.128906 19.914062 C 15.135423 19.923393 15.160569 19.95677 15.166016 19.964844 C 15.182498 19.989273 15.208443 20.002505 15.234375 20.015625 C 15.240625 20.024595 15.26424 20.056611 15.269531 20.064453 C 15.286928 20.090238 15.312476 20.105325 15.339844 20.119141 C 15.345327 20.127043 15.366346 20.155073 15.371094 20.162109 C 15.388401 20.187761 15.414711 20.202429 15.441406 20.216797 C 15.446952 20.224798 15.467832 20.252616 15.472656 20.259766 C 15.49088 20.286776 15.516821 20.303257 15.544922 20.318359 C 15.549719 20.325308 15.568005 20.349154 15.572266 20.355469 C 15.591264 20.383627 15.619238 20.402142 15.648438 20.417969 C 15.652661 20.424105 15.668062 20.445521 15.671875 20.451172 C 15.691018 20.479545 15.719034 20.499204 15.748047 20.515625 C 15.752136 20.521575 15.767767 20.541366 15.771484 20.546875 C 15.791829 20.577028 15.820623 20.597958 15.851562 20.615234 C 15.855071 20.620354 15.867855 20.637778 15.871094 20.642578 C 15.892108 20.673725 15.921339 20.69487 15.953125 20.712891 C 15.956065 20.717194 15.965996 20.732246 15.96875 20.736328 C 15.989902 20.767678 16.019208 20.789968 16.050781 20.808594 C 16.053582 20.812697 16.063769 20.826169 16.066406 20.830078 C 16.087403 20.861198 16.115666 20.883234 16.146484 20.902344 C 16.149315 20.906493 16.159438 20.919869 16.162109 20.923828 C 16.18541 20.958364 16.217159 20.9835 16.251953 21.003906 C 16.253431 21.006084 16.258332 21.0135 16.259766 21.015625 C 16.282913 21.049933 16.313648 21.074769 16.347656 21.095703 C 16.349149 21.097903 16.35402 21.105274 16.355469 21.107422 C 16.378455 21.141491 16.408158 21.166089 16.441406 21.1875 C 16.442915 21.189724 16.447752 21.197045 16.449219 21.199219 C 16.473412 21.235076 16.504013 21.262739 16.539062 21.285156 C 16.539644 21.286016 16.542394 21.28821 16.542969 21.289062 C 16.544951 21.290282 16.546814 21.291789 16.548828 21.292969 C 16.571856 21.325568 16.60084 21.351559 16.632812 21.373047 C 16.633575 21.374174 16.635967 21.377791 16.636719 21.378906 C 16.639431 21.380648 16.641761 21.383099 16.644531 21.384766 C 16.67091 21.421525 16.700958 21.453512 16.738281 21.476562 C 16.765714 21.51456 16.797263 21.546458 16.835938 21.570312 C 16.862739 21.605805 16.89311 21.637025 16.929688 21.660156 C 16.956455 21.695203 16.985481 21.726675 17.021484 21.75 C 17.049133 21.785869 17.080199 21.817839 17.117188 21.841797 C 17.14367 21.874936 17.172639 21.906684 17.207031 21.929688 C 17.234365 21.963858 17.265378 21.993795 17.300781 22.017578 C 17.328368 22.051602 17.357221 22.083451 17.392578 22.107422 C 17.420287 22.140752 17.449351 22.171508 17.484375 22.195312 C 17.511029 22.226895 17.539201 22.256095 17.572266 22.279297 C 17.599264 22.311406 17.62681 22.343409 17.660156 22.367188 C 17.687197 22.398986 17.714962 22.429302 17.748047 22.453125 C 17.775942 22.48565 17.805834 22.514659 17.839844 22.539062 C 17.874491 22.578629 17.911711 22.614792 17.955078 22.642578 C 17.9563 22.644386 17.95973 22.648601 17.960938 22.650391 C 17.977081 22.674318 18.004755 22.68244 18.023438 22.703125 C 18.0278 22.709553 18.038776 22.724254 18.042969 22.730469 C 18.060172 22.755966 18.089398 22.765169 18.109375 22.787109 C 18.112822 22.792196 18.121657 22.803639 18.125 22.808594 C 18.142111 22.833955 18.171647 22.843279 18.191406 22.865234 C 18.195091 22.870671 18.203461 22.88338 18.207031 22.888672 C 18.225881 22.916609 18.25736 22.927228 18.279297 22.951172 C 18.281482 22.954402 18.286917 22.961664 18.289062 22.964844 C 18.307054 22.991509 18.336711 23.00225 18.357422 23.025391 C 18.360203 23.0295 18.366421 23.038938 18.369141 23.042969 C 18.388181 23.071189 18.419433 23.083022 18.441406 23.107422 C 18.443259 23.110162 18.447393 23.116435 18.449219 23.119141 C 18.467469 23.14619 18.496722 23.157994 18.517578 23.181641 C 18.519811 23.184942 18.525149 23.19206 18.527344 23.195312 C 18.546097 23.223108 18.576249 23.23545 18.597656 23.259766 C 18.599534 23.262543 18.603617 23.26874 18.605469 23.271484 C 18.625337 23.300932 18.65695 23.314179 18.679688 23.339844 C 18.680627 23.341234 18.682661 23.344321 18.683594 23.345703 C 18.702668 23.373974 18.732272 23.38722 18.753906 23.412109 C 18.75522 23.414054 18.758464 23.417993 18.759766 23.419922 C 18.796738 23.474721 18.850595 23.506184 18.896484 23.548828 C 18.899482 23.552466 18.903206 23.555019 18.90625 23.558594 C 18.90758 23.560563 18.91079 23.564451 18.912109 23.566406 C 18.985681 23.67545 19.077891 23.76123 19.181641 23.826172 C 19.187439 23.832137 19.193296 23.837969 19.199219 23.84375 C 19.220812 23.86036 19.234998 23.887746 19.257812 23.902344 C 19.257812 23.902344 19.259766 23.902344 19.259766 23.902344 C 19.286467 23.92417 19.30538 23.957867 19.333984 23.976562 C 19.360653 23.998661 19.379682 24.031753 19.408203 24.050781 C 19.434661 24.072966 19.454189 24.105783 19.482422 24.125 C 19.482422 24.125 19.484375 24.125 19.484375 24.125 C 19.509742 24.146363 19.529696 24.18052 19.556641 24.199219 C 19.583939 24.222535 19.605691 24.255108 19.634766 24.275391 C 19.658193 24.295345 19.678436 24.325969 19.703125 24.34375 C 19.729218 24.366408 19.749721 24.397974 19.777344 24.417969 C 19.80248 24.439849 19.823105 24.468813 19.849609 24.488281 C 19.87614 24.511596 19.897776 24.54182 19.925781 24.5625 C 19.949063 24.582923 19.967811 24.610461 19.992188 24.628906 C 20.016503 24.650585 20.037018 24.677715 20.0625 24.697266 C 20.086595 24.718941 20.105652 24.747954 20.130859 24.767578 C 20.155456 24.789828 20.177411 24.815781 20.203125 24.835938 C 20.224392 24.855275 20.241593 24.880635 20.263672 24.898438 C 20.287897 24.920871 20.30873 24.948286 20.333984 24.96875 C 20.356778 24.989925 20.376717 25.015687 20.400391 25.035156 C 20.424291 25.057524 20.44587 25.082988 20.470703 25.103516 C 20.492202 25.123646 20.510978 25.14734 20.533203 25.166016 C 20.555222 25.186917 20.574894 25.211073 20.597656 25.230469 C 20.620673 25.252468 20.642216 25.276491 20.666016 25.296875 C 20.684929 25.314975 20.701279 25.336483 20.720703 25.353516 C 20.742483 25.374756 20.762712 25.398132 20.785156 25.417969 C 20.808017 25.440353 20.829954 25.463506 20.853516 25.484375 C 20.871003 25.501478 20.886414 25.520873 20.904297 25.537109 C 20.926289 25.559059 20.948099 25.580973 20.970703 25.601562 C 20.991817 25.622642 21.011552 25.644209 21.033203 25.664062 C 21.052009 25.682897 21.070626 25.70087 21.089844 25.71875 C 21.109764 25.738957 21.128068 25.760148 21.148438 25.779297 C 21.169368 25.800645 21.189532 25.821596 21.210938 25.841797 C 21.226561 25.857747 21.241933 25.873349 21.257812 25.888672 C 21.278101 25.909778 21.29765 25.931114 21.318359 25.951172 C 21.338165 25.971797 21.358719 25.99012 21.378906 26.009766 C 21.394461 26.026002 21.41 26.040997 21.425781 26.056641 C 21.445048 26.077067 21.464771 26.095709 21.484375 26.115234 C 21.504107 26.136204 21.522901 26.155739 21.542969 26.175781 C 21.558492 26.192286 21.574121 26.206715 21.589844 26.222656 C 21.607141 26.241266 21.625042 26.257472 21.642578 26.275391 C 21.659545 26.293758 21.678125 26.30846 21.695312 26.326172 C 21.711951 26.34431 21.729251 26.359436 21.746094 26.376953 C 21.762381 26.394815 21.778448 26.410459 21.794922 26.427734 C 21.811448 26.44598 21.828993 26.460865 21.845703 26.478516 C 21.861953 26.49656 21.878112 26.511819 21.894531 26.529297 C 21.910434 26.547043 21.927303 26.560913 21.943359 26.578125 C 21.972344 26.610656 22.003759 26.635232 22.033203 26.666016 C 22.035277 26.668381 22.036987 26.671472 22.039062 26.673828 C 22.052392 26.687689 22.066675 26.699386 22.080078 26.712891 C 22.140064 26.781679 22.204222 26.840749 22.265625 26.902344 C 22.342235 26.985431 22.418623 27.070653 22.496094 27.142578 C 22.510494 27.156495 22.526619 27.17592 22.541016 27.189453 C 22.554714 27.202826 22.56834 27.219395 22.582031 27.232422 C 22.595952 27.24617 22.611089 27.265903 22.625 27.279297 C 22.625 27.279297 22.626953 27.279297 22.626953 27.279297 C 22.639553 27.291847 22.651474 27.308051 22.664062 27.320312 C 22.679459 27.335828 22.693609 27.354053 22.708984 27.369141 C 22.719897 27.38021 22.733241 27.395394 22.744141 27.40625 C 22.762493 27.425104 22.780521 27.442684 22.798828 27.460938 C 22.812672 27.475176 22.824078 27.490008 22.837891 27.503906 C 22.848769 27.515201 22.858283 27.527977 22.869141 27.539062 C 22.8837 27.554352 22.897591 27.569067 22.912109 27.583984 C 22.92484 27.597445 22.936522 27.609869 22.949219 27.623047 C 22.962041 27.636719 22.973543 27.648723 22.986328 27.662109 C 22.995991 27.672498 23.004031 27.683132 23.013672 27.693359 C 23.027517 27.70841 23.040891 27.721606 23.054688 27.736328 C 23.066528 27.749271 23.076089 27.760734 23.087891 27.773438 C 23.099375 27.786092 23.109648 27.796163 23.121094 27.808594 C 23.129834 27.818297 23.137767 27.826363 23.146484 27.835938 C 23.162093 27.853447 23.175876 27.867665 23.191406 27.884766 C 23.191406 27.884766 23.193359 27.886719 23.193359 27.886719 C 23.20239 27.896867 23.209747 27.902098 23.21875 27.912109 C 23.229032 27.92378 23.237802 27.931865 23.248047 27.943359 C 23.255539 27.951927 23.262059 27.958322 23.269531 27.966797 C 23.293027 27.993917 23.312657 28.012854 23.335938 28.039062 C 23.335938 28.039062 23.337891 28.041016 23.337891 28.041016 C 23.343325 28.04713 23.348094 28.050577 23.353516 28.056641 C 23.380922 28.088906 23.404563 28.109585 23.431641 28.140625 C 23.504031 28.227413 23.563335 28.287064 23.632812 28.365234 C 23.636368 28.369295 23.639032 28.372916 23.642578 28.376953 C 23.680233 28.421022 23.713407 28.4565 23.75 28.498047 C 23.810756 28.56969 23.87031 28.636406 23.927734 28.701172 C 23.927734 28.701172 23.927734 28.703125 23.927734 28.703125 C 23.927734 28.703125 23.929688 28.705078 23.929688 28.705078 C 23.929688 28.705078 23.931641 28.707031 23.931641 28.707031 C 23.931641 28.707031 23.931641 28.708984 23.931641 28.708984 C 23.932816 28.710396 23.934373 28.711482 23.935547 28.712891 C 23.935547 28.712891 23.9375 28.714844 23.9375 28.714844 C 23.9375 28.714844 23.939453 28.716797 23.939453 28.716797 C 23.940375 28.717833 23.940485 28.719669 23.941406 28.720703 C 23.948851 28.729366 23.95746 28.737545 23.964844 28.746094 C 23.966369 28.747972 23.967227 28.750079 23.96875 28.751953 C 23.96875 28.751953 23.970703 28.753906 23.970703 28.753906 C 23.972216 28.755724 23.973099 28.757952 23.974609 28.759766 C 23.974609 28.759766 23.976562 28.761719 23.976562 28.761719 C 23.983104 28.769429 23.9896 28.777535 23.996094 28.785156 C 24.007062 28.79827 24.020415 28.813304 24.03125 28.826172 C 24.03125 28.826172 24.033203 28.828125 24.033203 28.828125 C 24.057807 28.857323 24.083558 28.890074 24.107422 28.917969 C 24.108883 28.919768 24.109869 28.922033 24.111328 28.923828 C 24.111328 28.923828 24.113281 28.925781 24.113281 28.925781 C 24.113281 28.925781 24.113281 28.927734 24.113281 28.927734 C 24.113281 28.927734 24.115234 28.929688 24.115234 28.929688 C 24.127845 28.945001 24.141887 28.961595 24.154297 28.976562 C 24.160534 28.984181 24.167642 28.992468 24.173828 29 C 24.194799 29.02595 24.217894 29.055101 24.238281 29.080078 C 24.238281 29.080078 24.240234 29.082031 24.240234 29.082031 C 24.240234 29.082031 24.242188 29.083984 24.242188 29.083984 C 24.244114 29.086343 24.248079 29.0914 24.25 29.09375 C 24.262467 29.109471 24.276811 29.127209 24.289062 29.142578 C 24.292896 29.147399 24.296969 29.153417 24.300781 29.158203 C 24.302686 29.160592 24.304741 29.163636 24.306641 29.166016 C 24.323463 29.187112 24.342993 29.213971 24.359375 29.234375 C 24.3678 29.244847 24.378415 29.259247 24.386719 29.269531 C 24.386719 29.269531 24.388672 29.271484 24.388672 29.271484 C 24.388672 29.271484 24.390625 29.273438 24.390625 29.273438 C 24.390625 29.273438 24.392578 29.275391 24.392578 29.275391 C 24.394908 29.278283 24.39807 29.282279 24.400391 29.285156 C 24.408441 29.295133 24.41785 29.310517 24.425781 29.320312 C 24.426779 29.321543 24.428691 29.322991 24.429688 29.324219 C 24.429688 29.324219 24.431641 29.326172 24.431641 29.326172 C 24.431641 29.326172 24.433594 29.328125 24.433594 29.328125 C 24.433594 29.328125 24.435547 29.330078 24.435547 29.330078 C 24.435547 29.330078 24.435547 29.332031 24.435547 29.332031 C 24.435547 29.332031 24.4375 29.333984 24.4375 29.333984 C 24.440542 29.337728 24.444242 29.34394 24.447266 29.347656 C 24.448256 29.348877 24.450183 29.350345 24.451172 29.351562 C 24.451666 29.352171 24.452632 29.352908 24.453125 29.353516 C 24.485702 29.393428 24.477572 29.381416 24.507812 29.417969 C 24.780364 29.749051 24.997357 29.995447 24.998047 29.996094 C 24.998058 29.996106 25 30 25 30 C 25 29.999977 28.500017 26.124952 28.5 23.5 C 28.499998 23.282496 28.473518 23.07176 28.435547 22.865234 C 28.431222 22.841714 28.432527 22.816322 28.427734 22.792969 C 28.416759 22.739342 28.392304 22.691374 28.378906 22.638672 C 28.278428 22.24413 28.124038 21.871115 27.902344 21.542969 C 27.901829 21.542206 27.900906 21.541778 27.900391 21.541016 C 27.900391 21.541016 27.898438 21.539062 27.898438 21.539062 C 27.898438 21.539062 27.896484 21.537109 27.896484 21.537109 C 27.895454 21.535585 27.893611 21.534726 27.892578 21.533203 C 27.768802 21.351237 27.629585 21.180602 27.474609 21.025391 C 27.473606 21.024387 27.471708 21.02444 27.470703 21.023438 C 27.470703 21.023438 27.470703 21.021484 27.470703 21.021484 C 27.470054 21.020837 27.4694 21.020178 27.46875 21.019531 C 27.46875 21.019531 27.466797 21.017578 27.466797 21.017578 C 27.466797 21.017578 27.464844 21.015625 27.464844 21.015625 C 27.464844 21.015625 27.462891 21.013672 27.462891 21.013672 C 27.462891 21.013672 27.460938 21.011719 27.460938 21.011719 C 27.460938 21.011719 27.458984 21.009766 27.458984 21.009766 C 27.458984 21.009766 27.457031 21.009766 27.457031 21.009766 C 27.457031 21.009766 27.457031 21.007812 27.457031 21.007812 C 27.457031 21.007812 27.455078 21.005859 27.455078 21.005859 C 27.453134 21.003916 27.451168 21.001939 27.449219 21 C 27.447271 20.998054 27.445311 20.996082 27.443359 20.994141 C 27.442065 20.99284 27.440749 20.991533 27.439453 20.990234 C 27.438155 20.988941 27.436847 20.987619 27.435547 20.986328 C 27.4326 20.983385 27.428738 20.981449 27.425781 20.978516 C 27.419609 20.972308 27.414422 20.965146 27.408203 20.958984 C 27.404604 20.955391 27.400099 20.952796 27.396484 20.949219 C 27.394539 20.947277 27.392575 20.945297 27.390625 20.943359 C 27.386743 20.939467 27.382807 20.935514 27.378906 20.931641 C 27.374667 20.927392 27.369495 20.924149 27.365234 20.919922 C 27.360638 20.915313 27.356184 20.910833 27.351562 20.90625 C 27.345027 20.899699 27.336665 20.891265 27.330078 20.884766 C 27.327482 20.882178 27.32487 20.879533 27.322266 20.876953 C 27.317084 20.871759 27.311855 20.866489 27.306641 20.861328 C 27.301101 20.855778 27.294639 20.851217 27.289062 20.845703 C 27.283173 20.839799 27.277416 20.833987 27.271484 20.828125 C 27.262362 20.818985 27.253363 20.80982 27.244141 20.800781 C 27.241182 20.797839 27.237344 20.795901 27.234375 20.792969 C 27.227831 20.786407 27.22144 20.779947 27.214844 20.773438 C 27.207662 20.76624 27.200604 20.759088 27.193359 20.751953 C 27.186172 20.744755 27.179124 20.737604 27.171875 20.730469 C 27.163024 20.721608 27.153478 20.713844 27.144531 20.705078 C 27.138631 20.699193 27.132896 20.693343 27.126953 20.6875 C 27.11912 20.679655 27.111423 20.671833 27.103516 20.664062 C 27.095031 20.65557 27.086697 20.647077 27.078125 20.638672 C 27.067984 20.628528 27.057141 20.619394 27.046875 20.609375 C 27.039665 20.60219 27.032663 20.595012 27.025391 20.587891 C 27.016903 20.579411 27.008575 20.570892 27 20.5625 C 26.989226 20.551727 26.977711 20.541881 26.966797 20.53125 C 26.958586 20.523071 26.949699 20.515909 26.941406 20.507812 C 26.931558 20.49797 26.922076 20.488239 26.912109 20.478516 C 26.900314 20.466736 26.888917 20.454969 26.876953 20.443359 C 26.868438 20.434897 26.860165 20.426343 26.851562 20.417969 C 26.839452 20.405885 26.826742 20.394717 26.814453 20.382812 C 26.80363 20.372056 26.792214 20.362176 26.78125 20.351562 C 26.771712 20.342091 26.761601 20.33358 26.751953 20.324219 C 26.740789 20.313097 26.730065 20.301985 26.71875 20.291016 C 26.70693 20.279233 26.695583 20.267471 26.683594 20.255859 C 26.669823 20.242144 26.656578 20.228327 26.642578 20.214844 C 26.630444 20.202819 26.61778 20.191533 26.605469 20.179688 C 26.59498 20.169302 26.58484 20.158689 26.574219 20.148438 C 26.561427 20.135723 26.548146 20.123842 26.535156 20.111328 C 26.520716 20.096978 26.50688 20.082454 26.492188 20.068359 C 26.480677 20.056978 26.468702 20.046376 26.457031 20.035156 C 26.441568 20.019796 26.425909 20.005301 26.410156 19.990234 C 26.398279 19.978505 26.387047 19.966635 26.375 19.955078 C 26.359241 19.939457 26.344185 19.92352 26.328125 19.908203 C 26.315947 19.896193 26.303372 19.884875 26.291016 19.873047 C 26.274613 19.856797 26.258917 19.840138 26.242188 19.824219 C 26.229 19.811222 26.214569 19.799893 26.201172 19.787109 C 26.184041 19.770163 26.167877 19.752913 26.150391 19.736328 C 26.135232 19.721412 26.120904 19.706041 26.105469 19.691406 C 26.091297 19.677468 26.076913 19.664083 26.0625 19.650391 C 26.045031 19.633159 26.027604 19.616465 26.009766 19.599609 C 25.995232 19.585338 25.981585 19.570653 25.966797 19.556641 C 25.950336 19.540419 25.934758 19.5237 25.917969 19.507812 C 25.899842 19.489973 25.881806 19.472513 25.863281 19.455078 C 25.846417 19.438557 25.829707 19.422422 25.8125 19.40625 C 25.794993 19.389095 25.777642 19.372246 25.759766 19.355469 C 25.743929 19.339973 25.72903 19.323781 25.712891 19.308594 C 25.694724 19.290757 25.676769 19.273289 25.658203 19.255859 C 25.639014 19.23706 25.621196 19.217564 25.601562 19.199219 C 25.583359 19.181455 25.565477 19.16384 25.546875 19.146484 C 25.528011 19.128074 25.509527 19.109768 25.490234 19.091797 C 25.471372 19.073418 25.452884 19.05505 25.433594 19.037109 C 25.414031 19.018074 25.395023 18.999032 25.375 18.980469 C 25.357408 18.963379 25.34023 18.946396 25.322266 18.929688 C 25.301083 18.909026 25.28149 18.887293 25.259766 18.867188 C 25.241468 18.84944 25.223778 18.831787 25.205078 18.814453 C 25.183206 18.793153 25.163075 18.770707 25.140625 18.75 C 25.12038 18.730399 25.100815 18.710501 25.080078 18.691406 C 25.060461 18.672415 25.041564 18.653281 25.021484 18.634766 C 24.997236 18.611234 24.974176 18.587254 24.949219 18.564453 C 24.930888 18.546829 24.913263 18.528929 24.894531 18.511719 C 24.87152 18.489466 24.84982 18.466908 24.826172 18.445312 C 24.804198 18.42414 24.784272 18.401433 24.761719 18.380859 C 24.739424 18.359401 24.718204 18.337248 24.695312 18.316406 C 24.674655 18.296561 24.655935 18.275176 24.634766 18.255859 C 24.610467 18.232445 24.587509 18.208227 24.5625 18.185547 C 24.53946 18.16346 24.517816 18.140568 24.494141 18.119141 C 24.472458 18.098366 24.451934 18.076831 24.429688 18.056641 C 24.402665 18.030692 24.377509 18.003554 24.349609 17.978516 C 24.329159 17.959065 24.310011 17.938855 24.289062 17.919922 C 24.26329 17.895233 24.239461 17.869563 24.212891 17.845703 C 24.186419 17.820483 24.162074 17.793879 24.134766 17.769531 C 24.113961 17.749837 24.095538 17.728143 24.074219 17.708984 C 24.047769 17.683747 24.023383 17.657176 23.996094 17.632812 C 23.972032 17.609949 23.950536 17.584643 23.925781 17.5625 C 23.898676 17.536714 23.873689 17.509243 23.845703 17.484375 C 23.818179 17.458339 23.792098 17.431341 23.763672 17.40625 C 23.739786 17.383785 23.717922 17.359647 23.693359 17.337891 C 23.666842 17.312842 23.642591 17.285889 23.615234 17.261719 C 23.588674 17.236688 23.564511 17.209697 23.537109 17.185547 C 23.510514 17.160504 23.486423 17.133535 23.458984 17.109375 C 23.433438 17.08534 23.41109 17.058376 23.384766 17.035156 C 23.355511 17.007559 23.329108 16.977696 23.298828 16.951172 C 23.269134 16.923328 23.24168 16.893927 23.210938 16.867188 C 23.186597 16.844502 23.165667 16.818823 23.140625 16.796875 C 23.110322 16.768415 23.084135 16.736291 23.052734 16.708984 C 23.02428 16.682444 22.998166 16.654434 22.96875 16.628906 C 22.939388 16.601534 22.913198 16.571214 22.882812 16.544922 C 22.854033 16.518164 22.82859 16.488611 22.798828 16.462891 C 22.768674 16.434883 22.74217 16.403821 22.710938 16.376953 C 22.681807 16.349976 22.657089 16.318883 22.626953 16.292969 C 22.595063 16.263444 22.566297 16.231373 22.533203 16.203125 C 22.504977 16.177161 22.480336 16.148015 22.451172 16.123047 C 22.422031 16.096139 22.397335 16.064905 22.367188 16.039062 C 22.332295 16.006773 22.301963 15.970207 22.265625 15.939453 C 22.236981 15.91328 22.211247 15.884523 22.181641 15.859375 C 22.149619 15.829972 22.123077 15.795693 22.089844 15.767578 C 22.057544 15.737998 22.029623 15.704051 21.996094 15.675781 C 21.961671 15.644362 21.930345 15.610008 21.894531 15.580078 C 21.871051 15.552877 21.842771 15.528349 21.818359 15.501953 C 21.818359 15.501953 21.816406 15.501953 21.816406 15.501953 C 21.781929 15.470386 21.752681 15.434364 21.716797 15.404297 C 21.651122 15.339409 21.590807 15.270025 21.519531 15.210938 C 21.519531 15.210938 21.517578 15.208984 21.517578 15.208984 C 21.517578 15.208984 21.515625 15.207031 21.515625 15.207031 C 21.515625 15.207031 21.515625 15.205078 21.515625 15.205078 C 21.486508 15.171375 21.450476 15.143783 21.419922 15.111328 C 21.386272 15.07232 21.346119 15.039285 21.310547 15.001953 C 21.281506 14.968665 21.245299 14.942209 21.214844 14.910156 C 21.183972 14.874621 21.147716 14.844678 21.115234 14.810547 C 21.081382 14.77164 21.041644 14.738387 21.005859 14.701172 C 20.975155 14.666224 20.938526 14.637083 20.90625 14.603516 C 20.871653 14.564093 20.831517 14.529849 20.794922 14.492188 C 20.763493 14.456728 20.726419 14.426597 20.693359 14.392578 C 20.660684 14.355677 20.622334 14.324402 20.587891 14.289062 C 20.553028 14.249793 20.513431 14.215224 20.476562 14.177734 C 20.44398 14.141339 20.405412 14.111023 20.371094 14.076172 C 20.335686 14.036622 20.297224 14.000611 20.259766 13.962891 C 20.226711 13.926254 20.189123 13.894426 20.154297 13.859375 C 20.11943 13.820709 20.07981 13.786898 20.042969 13.75 C 20.007049 13.710363 19.96769 13.674483 19.929688 13.636719 C 19.893394 13.596949 19.852854 13.561302 19.814453 13.523438 C 19.780422 13.486372 19.742905 13.453366 19.707031 13.417969 C 19.671468 13.379226 19.63328 13.343558 19.595703 13.306641 C 19.557873 13.265537 19.516664 13.22849 19.476562 13.189453 C 19.439222 13.149221 19.398905 13.112447 19.359375 13.074219 C 19.324752 13.037153 19.288447 13.002149 19.251953 12.966797 C 19.214572 12.926678 19.174335 12.889675 19.134766 12.851562 C 19.095668 12.809769 19.055151 12.770069 19.013672 12.730469 C 18.976016 12.690603 18.936323 12.653079 18.896484 12.615234 C 18.85969 12.576408 18.822077 12.538853 18.783203 12.501953 C 18.744774 12.461398 18.704761 12.423216 18.664062 12.384766 C 18.623979 12.342656 18.583552 12.301541 18.541016 12.261719 C 18.503662 12.222801 18.465245 12.185381 18.425781 12.148438 C 18.384163 12.10503 18.343068 12.062431 18.298828 12.021484 C 18.261241 11.982695 18.223294 11.945003 18.183594 11.908203 C 18.143433 11.866655 18.105081 11.824424 18.0625 11.785156 C 18.020406 11.741841 17.978325 11.699017 17.933594 11.658203 C 17.893231 11.617076 17.853305 11.575953 17.810547 11.537109 C 17.771003 11.496922 17.733244 11.455968 17.691406 11.417969 C 17.650222 11.376141 17.612029 11.332419 17.568359 11.292969 C 17.52553 11.249651 17.484954 11.204813 17.439453 11.164062 C 17.397754 11.122223 17.356705 11.080434 17.3125 11.041016 C 17.271381 10.99993 17.232996 10.956707 17.189453 10.917969 C 17.145067 10.873689 17.10384 10.826697 17.056641 10.785156 C 17.015921 10.74494 16.978606 10.701992 16.935547 10.664062 C 16.908164 10.633582 16.878274 10.605538 16.849609 10.576172 C 16.839092 10.564044 16.827125 10.552977 16.816406 10.541016 C 16.813977 10.538872 16.811031 10.537293 16.808594 10.535156 C 16.77816 10.501418 16.744894 10.469863 16.712891 10.4375 C 16.674207 10.393422 16.629208 10.356251 16.587891 10.314453 C 16.546274 10.266978 16.499741 10.224516 16.455078 10.179688 C 16.412747 10.131811 16.365751 10.088122 16.320312 10.042969 C 16.280843 9.9987298 16.235495 9.9598606 16.193359 9.9179688 C 16.150365 9.8697095 16.104749 9.8247617 16.058594 9.7792969 C 16.017973 9.7341691 15.973085 9.6930466 15.929688 9.6503906 C 15.882703 9.5982064 15.83388 9.5488652 15.783203 9.5 C 15.741483 9.4545608 15.696893 9.412009 15.652344 9.3691406 C 15.610772 9.3239419 15.567805 9.2809312 15.523438 9.2382812 C 15.478151 9.1890546 15.431399 9.1418999 15.382812 9.0957031 C 15.338197 9.0477384 15.29385 9.0001279 15.246094 8.9550781 C 15.203815 8.9100057 15.162246 8.8647408 15.117188 8.8222656 C 15.070767 8.7727972 15.024356 8.724067 14.974609 8.6777344 C 14.934002 8.6349816 14.894668 8.5911641 14.851562 8.5507812 C 14.79407 8.4899098 14.732384 8.4349679 14.669922 8.3789062 C 14.622637 8.330861 14.581697 8.2792799 14.53125 8.234375 C 14.480562 8.1833156 14.435104 8.129501 14.380859 8.0820312 C 14.333983 8.0356366 14.293968 7.9847762 14.244141 7.9414062 C 14.193666 7.8916951 14.151493 7.8352768 14.097656 7.7890625 C 14.048459 7.7413668 14.007374 7.6869927 13.955078 7.6425781 C 13.930076 7.6185824 13.910562 7.5895702 13.884766 7.5664062 C 13.88202 7.5625598 13.879723 7.5585202 13.876953 7.5546875 C 13.838525 7.5054009 13.787334 7.4686895 13.746094 7.421875 C 13.738322 7.411119 13.732566 7.399321 13.724609 7.3886719 C 13.688739 7.3438627 13.641703 7.3102882 13.603516 7.2675781 C 13.592306 7.2523947 13.583836 7.2356729 13.572266 7.2207031 C 13.534637 7.1749339 13.485341 7.1411696 13.445312 7.0976562 C 13.43453 7.083612 13.429056 7.0665923 13.417969 7.0527344 C 13.381894 7.0100216 13.335028 6.9781905 13.296875 6.9375 C 13.283318 6.9203228 13.275722 6.899709 13.261719 6.8828125 C 13.227947 6.8439023 13.183923 6.8164787 13.148438 6.7792969 C 13.131669 6.7586398 13.122863 6.733139 13.105469 6.7128906 C 13.074808 6.678526 13.035894 6.654069 13.003906 6.6210938 C 12.983358 6.5964882 12.970627 6.5669909 12.949219 6.5429688 C 12.923152 6.5145587 12.890248 6.4942278 12.863281 6.4667969 C 12.837295 6.4364668 12.82021 6.4005355 12.792969 6.3710938 C 12.770318 6.347096 12.742036 6.3299171 12.71875 6.3066406 C 12.688398 6.2723239 12.666658 6.2323894 12.634766 6.1992188 C 11.984903 5.5301704 11.086667 5.1484374 10.148438 5.1484375 z "
       id="path6253"
       style="fill-opacity:1;fill:url(#linearGradient7102);opacity:0.2"
       clip-path="url(#clipPath7115)" />
    <circle
       style="opacity:1;fill:#ffffff;fill-opacity:1;stroke:none;stroke-width:2;stroke-miterlimit:4;stroke-dasharray:none;stroke-opacity:1"
       id="path7109"
       cx="10.020921"
       cy="8.4739857"
       r="1.5" />
    <path
       style="fill:#8bc34a"
       id="path6204"
       d="m 9.9999776,9.7500047 a 1.25,1.25 0 0 1 -1.25,-1.25 1.25,1.25 0 0 1 1.25,-1.25 1.25,1.25 0 0 1 1.2500004,1.25 1.25,1.25 0 0 1 -1.2500004,1.25 m 0,-4.75 a 3.5,3.5 0 0 0 -3.5,3.5 c 0,2.6250003 3.5,6.5000003 3.5,6.5000003 0,0 3.5000004,-3.875 3.5000004,-6.5000003 a 3.5,3.5 0 0 0 -3.5000004,-3.5 z"
       inkscape:connector-curvature="0" />
  </g>
</svg>
