<?xml version="1.0" encoding="UTF-8" standalone="no"?>
<!-- Created with Inkscape (http://www.inkscape.org/) -->

<svg
   xmlns:dc="http://purl.org/dc/elements/1.1/"
   xmlns:cc="http://creativecommons.org/ns#"
   xmlns:rdf="http://www.w3.org/1999/02/22-rdf-syntax-ns#"
   xmlns:svg="http://www.w3.org/2000/svg"
   xmlns="http://www.w3.org/2000/svg"
   xmlns:xlink="http://www.w3.org/1999/xlink"
   xmlns:sodipodi="http://sodipodi.sourceforge.net/DTD/sodipodi-0.dtd"
   xmlns:inkscape="http://www.inkscape.org/namespaces/inkscape"
   sodipodi:docname="Chess.svg"
   inkscape:version="0.91 r13725"
   version="1.1"
   id="svg2"
   viewBox="0 0 20 20"
   height="5.6444445mm"
   width="5.6444445mm"
   inkscape:export-filename="/home/juergen/Projekte/Android/Android_Studio/Baumann_Theme/theme/src/main/assets/icons/res/drawable-xxhdpi/a003.png"
   inkscape:export-xdpi="648"
   inkscape:export-ydpi="648">
  <sodipodi:namedview
     inkscape:snap-to-guides="true"
     inkscape:snap-grids="true"
     inkscape:window-maximized="1"
     inkscape:window-y="24"
     inkscape:window-x="0"
     inkscape:window-height="744"
     inkscape:window-width="1366"
     inkscape:guide-bbox="true"
     showguides="true"
     fit-margin-bottom="0"
     fit-margin-right="0"
     fit-margin-left="0"
     fit-margin-top="0"
     showgrid="true"
     inkscape:current-layer="layer1"
     inkscape:document-units="px"
     inkscape:cy="3.9634248"
     inkscape:cx="-0.51551188"
     inkscape:zoom="15.839192"
     inkscape:pageshadow="2"
     inkscape:pageopacity="0.0"
     borderopacity="1.0"
     bordercolor="#666666"
     pagecolor="#ffffff"
     id="base">
    <inkscape:grid
       id="grid4138"
       type="xygrid" />
    <sodipodi:guide
       id="guide4140"
       orientation="0,1"
       position="24,18" />
    <sodipodi:guide
       id="guide4142"
       orientation="0,1"
       position="10,2" />
    <sodipodi:guide
       id="guide4144"
       orientation="1,0"
       position="2,10" />
    <sodipodi:guide
       id="guide4146"
       orientation="0,20"
       position="0,0" />
    <sodipodi:guide
       id="guide4148"
       orientation="-20,0"
       position="20,0" />
    <sodipodi:guide
       id="guide4150"
       orientation="0,-20"
       position="20,20" />
    <sodipodi:guide
       id="guide4152"
       orientation="20,0"
       position="0,20" />
    <sodipodi:guide
       id="guide4154"
       orientation="1,0"
       position="18,10" />
    <sodipodi:guide
       id="guide4156"
       orientation="-0.70710678,0.70710678"
       position="10,10" />
    <sodipodi:guide
       id="guide4158"
       orientation="0.70710678,0.70710678"
       position="10,10" />
    <sodipodi:guide
       id="guide4160"
       orientation="1,0"
       position="4,10" />
    <sodipodi:guide
       id="guide4162"
       orientation="1,0"
       position="16,10" />
    <sodipodi:guide
       id="guide4164"
       orientation="0,1"
       position="10,16" />
    <sodipodi:guide
       id="guide4166"
       orientation="0,1"
       position="10,4" />
    <sodipodi:guide
       id="guide4168"
       orientation="0,1"
       position="10,15" />
    <sodipodi:guide
       id="guide4170"
       orientation="0,1"
       position="10,5" />
    <sodipodi:guide
       id="guide4172"
       orientation="1,0"
       position="5,10" />
    <sodipodi:guide
       id="guide4174"
       orientation="1,0"
       position="15,10" />
  </sodipodi:namedview>
  <defs
     id="defs4">
    <linearGradient
       inkscape:collect="always"
       id="linearGradient6085">
      <stop
         style="stop-color:#000000;stop-opacity:1;"
         offset="0"
         id="stop6087" />
      <stop
         style="stop-color:#000000;stop-opacity:0;"
         offset="1"
         id="stop6089" />
    </linearGradient>
    <clipPath
       clipPathUnits="userSpaceOnUse"
       id="clipPath12478">
      <circle
         style="opacity:1;fill:#2196f3;fill-opacity:1;stroke:none;stroke-width:0.05069799;stroke-miterlimit:4;stroke-dasharray:none;stroke-opacity:1"
         id="circle12480"
         cx="9.9999781"
         cy="10.000005"
         r="10" />
    </clipPath>
    <clipPath
       id="clipPath5790"
       clipPathUnits="userSpaceOnUse">
      <circle
         inkscape:export-ydpi="648"
         inkscape:export-xdpi="648"
         inkscape:export-filename="/home/juergen/path4136.png"
         style="opacity:1;fill:#2196f3;fill-opacity:1;stroke:none;stroke-width:0.05069799;stroke-miterlimit:4;stroke-dasharray:none;stroke-opacity:1"
         id="circle5792"
         cx="9.9999781"
         cy="10.000005"
         r="10" />
    </clipPath>
    <clipPath
       clipPathUnits="userSpaceOnUse"
       id="clipPath7690">
      <circle
         inkscape:export-ydpi="648"
         inkscape:export-xdpi="648"
         inkscape:export-filename="/home/juergen/Schreibtisch/path4136.png"
         style="opacity:1;fill:#2196f3;fill-opacity:1;stroke:none;stroke-width:0.05069799;stroke-miterlimit:4;stroke-dasharray:none;stroke-opacity:1"
         id="circle7692"
         cx="9.9999781"
         cy="10.000005"
         r="10" />
    </clipPath>
    <clipPath
       id="clipPath5119"
       clipPathUnits="userSpaceOnUse">
      <circle
         inkscape:export-ydpi="648"
         inkscape:export-xdpi="648"
         inkscape:export-filename="/home/juergen/Schreibtisch/path4136.png"
         style="opacity:1;fill:#ff9800;fill-opacity:1;stroke:none;stroke-width:0.05069799;stroke-miterlimit:4;stroke-dasharray:none;stroke-opacity:1"
         id="circle5121"
         cx="9.9999781"
         cy="10.000005"
         r="10" />
    </clipPath>
    <linearGradient
       inkscape:collect="always"
       xlink:href="#linearGradient6085"
       id="linearGradient6091"
       x1="10"
       y1="10"
       x2="20"
       y2="20"
       gradientUnits="userSpaceOnUse" />
    <clipPath
       clipPathUnits="userSpaceOnUse"
       id="clipPath6101">
      <circle
         inkscape:export-ydpi="648"
         inkscape:export-xdpi="648"
         inkscape:export-filename="/home/juergen/Schreibtisch/path4136.png"
         style="opacity:1;fill:#8bc34a;fill-opacity:1;stroke:none;stroke-width:0.05069799;stroke-miterlimit:4;stroke-dasharray:none;stroke-opacity:1"
         id="circle6103"
         cx="9.9999781"
         cy="10.000005"
         r="10" />
    </clipPath>
  </defs>
  <metadata
     id="metadata7">
    <rdf:RDF>
      <cc:Work
         rdf:about="">
        <dc:format>image/svg+xml</dc:format>
        <dc:type
           rdf:resource="http://purl.org/dc/dcmitype/StillImage" />
        <dc:title></dc:title>
      </cc:Work>
    </rdf:RDF>
  </metadata>
  <g
     transform="translate(1058.1428,-861.93365)"
     id="layer1"
     inkscape:groupmode="layer"
     inkscape:label="Hintergrund">
    <circle
       r="10"
       cy="871.93365"
       cx="-1048.1428"
       id="path4136"
       style="opacity:1;fill:#9e9e9e;fill-opacity:1;stroke:none;stroke-width:0.05069799;stroke-miterlimit:4;stroke-dasharray:none;stroke-opacity:1"
       inkscape:export-filename="/home/juergen/Schreibtisch/path4136.png"
       inkscape:export-xdpi="648"
       inkscape:export-ydpi="648" />
  </g>
  <g
     inkscape:label="Icon"
     id="layer2"
     inkscape:groupmode="layer"
     style="display:inline">
    <path
       d="M 5.1484375 5.9824219 L 6.2597656 12.09375 L 6.3808594 12.09375 L 6.4082031 12.242188 L 6.5273438 12.242188 L 6.5546875 12.388672 L 6.6757812 12.388672 L 6.703125 12.535156 L 6.8203125 12.535156 L 6.8476562 12.681641 L 6.96875 12.681641 L 6.9941406 12.826172 L 7.1113281 12.826172 L 7.1367188 12.970703 L 7.2558594 12.970703 L 7.28125 13.115234 L 7.3984375 13.115234 L 7.4140625 13.205078 L 6.2597656 13.205078 L 6.2597656 13.759766 C 6.2597654 13.907109 6.317688 14.048157 6.421875 14.152344 C 6.4477279 14.178197 6.4817696 14.192857 6.5117188 14.212891 C 6.5315727 14.242412 6.5447895 14.275258 6.5703125 14.300781 C 6.5959068 14.326376 6.6305425 14.339482 6.6601562 14.359375 C 6.6800493 14.388989 6.6931557 14.423624 6.71875 14.449219 C 6.744273 14.474742 6.7771192 14.487958 6.8066406 14.507812 C 6.8263201 14.536924 6.8400279 14.570497 6.8652344 14.595703 C 6.8907574 14.621226 6.9236036 14.634443 6.953125 14.654297 C 6.9726928 14.683149 6.9867132 14.715229 7.0117188 14.740234 C 7.0364619 14.764978 7.0691422 14.777454 7.0976562 14.796875 C 7.1175493 14.826489 7.1306557 14.861124 7.15625 14.886719 C 7.1811189 14.911588 7.2135114 14.923868 7.2421875 14.943359 C 7.261867 14.972471 7.2755747 15.006043 7.3007812 15.03125 C 7.3256502 15.056119 7.3580426 15.068399 7.3867188 15.087891 C 7.4062101 15.116567 7.4184905 15.148959 7.4433594 15.173828 C 7.4685659 15.199035 7.5021381 15.212742 7.53125 15.232422 C 7.5504501 15.260435 7.5635369 15.292052 7.5878906 15.316406 C 7.6122444 15.34076 7.6438618 15.353847 7.671875 15.373047 C 7.6913663 15.401723 7.7036467 15.434115 7.7285156 15.458984 C 7.7530758 15.483545 7.7861745 15.496307 7.8144531 15.515625 C 7.8337706 15.543904 7.8465335 15.577002 7.8710938 15.601562 C 7.8955694 15.626038 7.9269083 15.638934 7.9550781 15.658203 C 7.9741746 15.685984 7.9875464 15.718015 8.0117188 15.742188 C 8.0359336 15.766403 8.0678682 15.777754 8.0957031 15.796875 C 8.1148239 15.82471 8.1261758 15.856645 8.1503906 15.880859 C 8.174563 15.905032 8.2065945 15.918403 8.234375 15.9375 C 8.2534715 15.965281 8.2668432 15.997312 8.2910156 16.021484 C 8.3148371 16.045306 8.3457158 16.057278 8.3730469 16.076172 C 8.3921433 16.103952 8.4055151 16.135984 8.4296875 16.160156 C 8.453509 16.183978 8.4843877 16.19595 8.5117188 16.214844 C 8.5306129 16.242175 8.5425847 16.273053 8.5664062 16.296875 C 8.59076 16.321229 8.6223774 16.334315 8.6503906 16.353516 C 8.6689015 16.380012 8.6799576 16.410426 8.703125 16.433594 C 8.7262633 16.456732 8.7567436 16.469788 8.7832031 16.488281 C 8.8021799 16.515795 8.8158794 16.546348 8.8398438 16.570312 C 8.8641975 16.594666 8.8958149 16.607753 8.9238281 16.626953 C 8.9420368 16.652806 8.9539017 16.682417 8.9765625 16.705078 C 8.9998751 16.728391 9.0299592 16.741169 9.0566406 16.759766 C 9.0752373 16.786447 9.0880156 16.816531 9.1113281 16.839844 C 9.1335995 16.862115 9.1621398 16.874605 9.1875 16.892578 C 9.2064768 16.920092 9.2201763 16.950645 9.2441406 16.974609 C 9.2674532 16.997922 9.2975374 17.0107 9.3242188 17.029297 C 9.3424954 17.055294 9.3541791 17.084648 9.3769531 17.107422 C 9.3998329 17.130302 9.4309003 17.141816 9.4570312 17.160156 C 9.4755422 17.186653 9.4865982 17.217067 9.5097656 17.240234 C 9.5326454 17.263115 9.5637128 17.274629 9.5898438 17.292969 C 9.6081837 17.3191 9.6196983 17.350167 9.6425781 17.373047 C 9.6653522 17.395821 9.6947064 17.407504 9.7207031 17.425781 C 9.7388101 17.45142 9.7509455 17.481414 9.7734375 17.503906 C 9.7966049 17.527074 9.8270191 17.53813 9.8535156 17.556641 C 9.8713285 17.58167 9.8822879 17.610804 9.9042969 17.632812 C 9.9263057 17.654822 9.9554399 17.665781 9.9804688 17.683594 C 9.9988086 17.709725 10.010323 17.740792 10.033203 17.763672 C 10.055323 17.785792 10.084206 17.796572 10.109375 17.814453 C 10.127482 17.840092 10.139617 17.870086 10.162109 17.892578 C 10.184229 17.914699 10.213112 17.925478 10.238281 17.943359 C 10.256162 17.968528 10.266943 17.997411 10.289062 18.019531 C 10.311554 18.042023 10.341548 18.054159 10.367188 18.072266 C 10.38476 18.096804 10.396349 18.124865 10.417969 18.146484 C 10.439326 18.167842 10.467978 18.177903 10.492188 18.195312 C 10.510307 18.220979 10.520455 18.250924 10.542969 18.273438 C 10.564814 18.295284 10.594318 18.306506 10.619141 18.324219 C 10.636853 18.349042 10.648076 18.378545 10.669922 18.400391 C 10.691388 18.421857 10.719795 18.431741 10.744141 18.449219 C 10.761954 18.474248 10.772913 18.503382 10.794922 18.525391 C 10.817042 18.547511 10.845925 18.558291 10.871094 18.576172 C 10.888258 18.599893 10.898954 18.62747 10.919922 18.648438 C 10.9405 18.669016 10.966999 18.680349 10.990234 18.697266 C 11.008207 18.722626 11.020697 18.751166 11.042969 18.773438 C 11.064435 18.794904 11.092842 18.804788 11.117188 18.822266 C 11.134498 18.846277 11.144816 18.875285 11.166016 18.896484 C 11.187088 18.917557 11.214429 18.928082 11.238281 18.945312 C 11.255512 18.969165 11.266037 18.996506 11.287109 19.017578 C 11.308955 19.039424 11.338458 19.050647 11.363281 19.068359 C 11.38003 19.091268 11.38984 19.118356 11.410156 19.138672 C 11.430472 19.158988 11.45756 19.168798 11.480469 19.185547 C 11.497946 19.209892 11.507831 19.2383 11.529297 19.259766 C 11.550108 19.280578 11.578036 19.291528 11.601562 19.308594 C 11.618628 19.33212 11.629579 19.360048 11.650391 19.380859 C 11.670809 19.401278 11.697667 19.41092 11.720703 19.427734 C 11.737769 19.45126 11.74872 19.479188 11.769531 19.5 C 11.78995 19.520419 11.816808 19.53006 11.839844 19.546875 C 11.856658 19.569911 11.8663 19.596769 11.886719 19.617188 C 11.907272 19.637741 11.935781 19.647162 11.958984 19.664062 C 11.975885 19.687266 11.985306 19.715775 12.005859 19.736328 C 12.026671 19.75714 12.054599 19.766137 12.078125 19.783203 C 12.09445 19.805303 12.103383 19.831898 12.123047 19.851562 C 12.142322 19.870837 12.167834 19.880416 12.189453 19.896484 C 12.206618 19.920206 12.217313 19.947782 12.238281 19.96875 C 12.258597 19.989066 12.285685 19.998876 12.308594 20.015625 C 12.324984 20.037849 12.333751 20.06422 12.353516 20.083984 C 12.373832 20.104301 12.40092 20.114111 12.423828 20.130859 C 12.440058 20.15278 12.449231 20.1797 12.46875 20.199219 C 12.488514 20.218983 12.514886 20.22775 12.537109 20.244141 C 12.5535 20.266364 12.562267 20.292736 12.582031 20.3125 C 12.60155 20.332019 12.62847 20.341192 12.650391 20.357422 C 12.666781 20.379646 12.675548 20.406017 12.695312 20.425781 C 12.714831 20.445301 12.741752 20.454474 12.763672 20.470703 C 12.779901 20.492623 12.789075 20.519544 12.808594 20.539062 C 12.827704 20.558173 12.853584 20.566072 12.875 20.582031 C 12.891325 20.604131 12.900258 20.630726 12.919922 20.650391 C 12.939586 20.670055 12.966181 20.678988 12.988281 20.695312 C 13.004081 20.716436 13.012377 20.742846 13.03125 20.761719 C 13.05036 20.780829 13.07624 20.788729 13.097656 20.804688 C 13.113615 20.826104 13.121515 20.851984 13.140625 20.871094 C 13.159756 20.890225 13.185589 20.900043 13.207031 20.916016 C 13.222727 20.936948 13.231283 20.961752 13.25 20.980469 C 13.268485 20.998954 13.293805 21.007899 13.314453 21.023438 C 13.330521 21.045056 13.3401 21.070569 13.359375 21.089844 C 13.37865 21.109119 13.404162 21.118697 13.425781 21.134766 C 13.441032 21.154898 13.448734 21.179203 13.466797 21.197266 C 13.485282 21.215751 13.510602 21.224696 13.53125 21.240234 C 13.546945 21.261167 13.555502 21.285971 13.574219 21.304688 C 13.592704 21.323173 13.618024 21.332117 13.638672 21.347656 C 13.654304 21.368474 13.663018 21.393486 13.681641 21.412109 C 13.699703 21.430172 13.724008 21.437874 13.744141 21.453125 C 13.759773 21.473942 13.768486 21.498955 13.787109 21.517578 C 13.805732 21.536201 13.830745 21.544915 13.851562 21.560547 C 13.86666 21.580406 13.87474 21.605208 13.892578 21.623047 C 13.910641 21.64111 13.934946 21.648811 13.955078 21.664062 C 13.970329 21.684195 13.978031 21.7085 13.996094 21.726562 C 14.013932 21.744401 14.038735 21.752481 14.058594 21.767578 C 14.073845 21.78771 14.081547 21.812016 14.099609 21.830078 C 14.11706 21.847529 14.140769 21.856265 14.160156 21.871094 C 14.175524 21.891435 14.184891 21.91536 14.203125 21.933594 C 14.221096 21.951565 14.245604 21.959421 14.265625 21.974609 C 14.280424 21.993946 14.287279 22.017748 14.304688 22.035156 C 14.322138 22.052607 14.345847 22.061343 14.365234 22.076172 C 14.380215 22.095825 14.388581 22.119049 14.40625 22.136719 C 14.423832 22.154301 14.44725 22.162815 14.466797 22.177734 C 14.481625 22.197122 14.490362 22.220831 14.507812 22.238281 C 14.524828 22.255297 14.547546 22.26282 14.566406 22.277344 C 14.581235 22.296731 14.589971 22.32044 14.607422 22.337891 C 14.625091 22.35556 14.648316 22.363926 14.667969 22.378906 C 14.682156 22.397194 14.690491 22.419006 14.707031 22.435547 C 14.723309 22.451825 14.7457 22.458656 14.763672 22.472656 C 14.77886 22.492677 14.786716 22.517185 14.804688 22.535156 C 14.82131 22.551778 14.842943 22.559973 14.861328 22.574219 C 14.875976 22.593293 14.885151 22.61562 14.902344 22.632812 C 14.919752 22.650221 14.943554 22.657076 14.962891 22.671875 C 14.976891 22.689847 14.983722 22.712237 15 22.728516 C 15.015889 22.744405 15.037182 22.751905 15.054688 22.765625 C 15.069516 22.785012 15.078252 22.808721 15.095703 22.826172 C 15.112064 22.842533 15.134272 22.849221 15.152344 22.863281 C 15.166719 22.881887 15.174602 22.905071 15.191406 22.921875 C 15.207374 22.937843 15.228494 22.945208 15.246094 22.958984 C 15.260281 22.977272 15.268616 22.999084 15.285156 23.015625 C 15.301697 23.032166 15.323509 23.0405 15.341797 23.054688 C 15.355574 23.072287 15.362938 23.093407 15.378906 23.109375 C 15.394676 23.125145 15.41623 23.132851 15.433594 23.146484 C 15.447781 23.164772 15.456116 23.186584 15.472656 23.203125 C 15.488624 23.219093 15.509744 23.226458 15.527344 23.240234 C 15.541121 23.257834 15.548485 23.278954 15.564453 23.294922 C 15.580223 23.310692 15.601777 23.318398 15.619141 23.332031 C 15.632917 23.349631 15.640282 23.370751 15.65625 23.386719 C 15.67202 23.402489 15.693574 23.410195 15.710938 23.423828 C 15.724571 23.441192 15.732277 23.462745 15.748047 23.478516 C 15.763361 23.49383 15.783962 23.500372 15.800781 23.513672 C 15.814501 23.531177 15.822002 23.552471 15.837891 23.568359 C 15.853779 23.584248 15.875073 23.591749 15.892578 23.605469 C 15.905739 23.622062 15.91261 23.643079 15.927734 23.658203 C 15.943048 23.673517 15.96365 23.680059 15.980469 23.693359 C 15.993769 23.710178 16.000311 23.73078 16.015625 23.746094 C 16.030749 23.761218 16.051766 23.76809 16.068359 23.78125 C 16.08166 23.798069 16.088202 23.818671 16.103516 23.833984 C 16.11864 23.849108 16.139657 23.85598 16.15625 23.869141 C 16.169494 23.885868 16.176169 23.906638 16.191406 23.921875 C 16.206327 23.936796 16.225836 23.944021 16.242188 23.957031 C 16.255197 23.973383 16.262423 23.992892 16.277344 24.007812 C 16.292468 24.022937 16.313485 24.029808 16.330078 24.042969 C 16.342894 24.059012 16.348622 24.07909 16.363281 24.09375 C 16.378518 24.108987 16.399288 24.115662 16.416016 24.128906 C 16.428696 24.144734 16.434741 24.16521 16.449219 24.179688 C 16.463878 24.194347 16.483957 24.200074 16.5 24.212891 C 16.51268 24.228718 16.518726 24.249194 16.533203 24.263672 C 16.548517 24.278986 16.569118 24.285528 16.585938 24.298828 C 16.59791 24.313558 16.603644 24.332159 16.617188 24.345703 C 16.630731 24.359247 16.649332 24.36498 16.664062 24.376953 C 16.677306 24.393681 16.683982 24.414451 16.699219 24.429688 C 16.713415 24.443884 16.732551 24.450422 16.748047 24.462891 C 16.760515 24.478386 16.767054 24.497523 16.78125 24.511719 C 16.795446 24.525915 16.814583 24.532454 16.830078 24.544922 C 16.842466 24.560293 16.849191 24.57966 16.863281 24.59375 C 16.876894 24.607363 16.895346 24.612975 16.910156 24.625 C 16.922544 24.640371 16.92927 24.659738 16.943359 24.673828 C 16.956972 24.687441 16.975424 24.693053 16.990234 24.705078 C 17.002622 24.720449 17.009348 24.739816 17.023438 24.753906 C 17.03705 24.767519 17.055502 24.773131 17.070312 24.785156 C 17.082337 24.799967 17.08795 24.818419 17.101562 24.832031 C 17.115006 24.845475 17.133825 24.851386 17.148438 24.863281 C 17.160462 24.878092 17.166075 24.896544 17.179688 24.910156 C 17.193131 24.9236 17.21195 24.929511 17.226562 24.941406 C 17.238535 24.956137 17.244269 24.974737 17.257812 24.988281 C 17.271356 25.001825 17.289957 25.007558 17.304688 25.019531 C 17.316208 25.033578 17.321026 25.051495 17.333984 25.064453 C 17.347428 25.077897 17.366247 25.083808 17.380859 25.095703 C 17.39238 25.10975 17.397198 25.127667 17.410156 25.140625 C 17.422953 25.153422 17.441218 25.158526 17.455078 25.169922 C 17.467051 25.184652 17.472784 25.203253 17.486328 25.216797 C 17.499483 25.229952 17.516974 25.236374 17.53125 25.248047 C 17.542464 25.261637 17.547982 25.278451 17.560547 25.291016 C 17.573344 25.303813 17.591609 25.308917 17.605469 25.320312 C 17.616938 25.334283 17.621873 25.352342 17.634766 25.365234 C 17.64831 25.378779 17.66691 25.384512 17.681641 25.396484 C 17.692291 25.40925 17.697133 25.425649 17.708984 25.4375 C 17.721487 25.450003 17.738435 25.455631 17.751953 25.466797 C 17.763119 25.480315 17.768747 25.497263 17.78125 25.509766 C 17.793101 25.521617 17.8095 25.526459 17.822266 25.537109 C 17.833787 25.551156 17.838604 25.569073 17.851562 25.582031 C 17.86436 25.594829 17.882625 25.599932 17.896484 25.611328 C 17.907135 25.624094 17.911977 25.640493 17.923828 25.652344 C 17.936068 25.664584 17.953582 25.668728 17.966797 25.679688 C 17.977756 25.692902 17.9819 25.710416 17.994141 25.722656 C 18.00534 25.733856 18.021185 25.737919 18.033203 25.748047 C 18.044673 25.762017 18.049608 25.780077 18.0625 25.792969 C 18.074351 25.80482 18.09075 25.809662 18.103516 25.820312 C 18.114214 25.833147 18.118949 25.849417 18.130859 25.861328 C 18.142622 25.873091 18.15921 25.878091 18.171875 25.888672 C 18.182526 25.901438 18.187368 25.917837 18.199219 25.929688 C 18.21107 25.941539 18.227469 25.946381 18.240234 25.957031 C 18.250409 25.969115 18.254368 25.984837 18.265625 25.996094 C 18.277388 26.007857 18.293976 26.012857 18.306641 26.023438 C 18.316815 26.035522 18.320775 26.051243 18.332031 26.0625 C 18.343148 26.073617 18.35917 26.077829 18.371094 26.087891 C 18.381744 26.100656 18.386587 26.117055 18.398438 26.128906 C 18.409899 26.140368 18.425181 26.14591 18.4375 26.15625 C 18.447356 26.167885 18.452027 26.182496 18.462891 26.193359 C 18.474007 26.204476 18.490029 26.208688 18.501953 26.21875 C 18.512128 26.230834 18.516087 26.246556 18.527344 26.257812 C 18.53846 26.268929 18.554482 26.273142 18.566406 26.283203 C 18.576468 26.295127 18.58068 26.311149 18.591797 26.322266 C 18.60266 26.333129 18.617271 26.3378 18.628906 26.347656 C 18.638653 26.359139 18.643568 26.374037 18.654297 26.384766 C 18.665554 26.396022 18.681275 26.399982 18.693359 26.410156 C 18.702637 26.420991 18.706639 26.435155 18.716797 26.445312 C 18.726565 26.455081 18.739604 26.459795 18.75 26.46875 C 18.760339 26.481069 18.765882 26.496351 18.777344 26.507812 C 18.787553 26.518022 18.801607 26.52193 18.8125 26.53125 C 18.822312 26.542824 18.827081 26.55755 18.837891 26.568359 C 18.848754 26.579223 18.863365 26.583894 18.875 26.59375 C 18.883955 26.604146 18.888669 26.617185 18.898438 26.626953 C 18.907944 26.636459 18.92154 26.639701 18.931641 26.648438 C 18.941702 26.660362 18.945915 26.676383 18.957031 26.6875 C 18.967895 26.698363 18.982505 26.703035 18.994141 26.712891 C 19.00255 26.722555 19.006508 26.735024 19.015625 26.744141 C 19.024742 26.753257 19.037211 26.757216 19.046875 26.765625 C 19.056687 26.777199 19.061456 26.791925 19.072266 26.802734 C 19.082424 26.812892 19.096587 26.816894 19.107422 26.826172 C 19.116199 26.836327 19.119351 26.84982 19.128906 26.859375 C 19.139064 26.869533 19.153228 26.873534 19.164062 26.882812 C 19.17274 26.892835 19.176111 26.906579 19.185547 26.916016 C 19.195102 26.925571 19.208594 26.928723 19.21875 26.9375 C 19.227527 26.947656 19.230679 26.961148 19.240234 26.970703 C 19.249671 26.98014 19.263415 26.98351 19.273438 26.992188 C 19.282215 27.002343 19.285367 27.015836 19.294922 27.025391 C 19.304428 27.034897 19.318024 27.038139 19.328125 27.046875 C 19.336803 27.056897 19.340173 27.070642 19.349609 27.080078 C 19.358771 27.08924 19.371145 27.093116 19.380859 27.101562 C 19.389211 27.111151 19.393295 27.123764 19.402344 27.132812 C 19.411506 27.141974 19.423879 27.14585 19.433594 27.154297 C 19.441945 27.163885 19.44603 27.176498 19.455078 27.185547 C 19.463586 27.194055 19.475389 27.197186 19.484375 27.205078 C 19.492784 27.214743 19.496743 27.227211 19.505859 27.236328 C 19.514976 27.245445 19.527445 27.249403 19.537109 27.257812 C 19.545001 27.266798 19.548133 27.278602 19.556641 27.287109 C 19.565757 27.296226 19.578226 27.300185 19.587891 27.308594 C 19.595692 27.317462 19.59902 27.329488 19.607422 27.337891 C 19.61593 27.346398 19.627733 27.34953 19.636719 27.357422 C 19.644574 27.36636 19.647785 27.378254 19.65625 27.386719 C 19.664715 27.395184 19.676608 27.398395 19.685547 27.40625 C 19.693402 27.415188 19.696613 27.427082 19.705078 27.435547 C 19.714195 27.444664 19.726664 27.448622 19.736328 27.457031 C 19.743284 27.464821 19.746482 27.474998 19.753906 27.482422 C 19.76133 27.489846 19.771507 27.493044 19.779297 27.5 C 19.787648 27.509588 19.791733 27.522202 19.800781 27.53125 C 19.808635 27.539104 19.819863 27.541499 19.828125 27.548828 C 19.835454 27.55709 19.83785 27.568318 19.845703 27.576172 C 19.853718 27.584186 19.864607 27.588235 19.873047 27.595703 C 19.880515 27.604143 19.884564 27.615032 19.892578 27.623047 C 19.900432 27.630901 19.91166 27.633296 19.919922 27.640625 C 19.927166 27.648779 19.929744 27.660213 19.9375 27.667969 C 19.94496 27.675429 19.955061 27.678559 19.962891 27.685547 C 19.969878 27.693376 19.973008 27.703477 19.980469 27.710938 C 19.988225 27.718693 19.999658 27.721271 20.007812 27.728516 C 20.015057 27.73667 20.017635 27.748104 20.025391 27.755859 C 20.033244 27.763713 20.044472 27.766108 20.052734 27.773438 C 20.059117 27.780515 20.061587 27.790103 20.068359 27.796875 C 20.074742 27.803258 20.08319 27.806463 20.089844 27.8125 C 20.097365 27.821007 20.101299 27.831768 20.109375 27.839844 C 20.116536 27.847005 20.127264 27.848743 20.134766 27.855469 C 20.141491 27.862971 20.143229 27.873698 20.150391 27.880859 C 20.157814 27.888283 20.167992 27.891482 20.175781 27.898438 C 20.182119 27.90546 20.184685 27.915153 20.191406 27.921875 C 20.198212 27.928681 20.207729 27.931087 20.214844 27.9375 C 20.221257 27.944614 20.223663 27.954131 20.230469 27.960938 C 20.237241 27.96771 20.246829 27.97018 20.253906 27.976562 C 20.260319 27.983677 20.262725 27.993194 20.269531 28 C 20.276303 28.006772 20.285892 28.009242 20.292969 28.015625 C 20.299307 28.022647 20.301872 28.032341 20.308594 28.039062 C 20.314746 28.045215 20.323674 28.046903 20.330078 28.052734 C 20.336461 28.059811 20.338931 28.0694 20.345703 28.076172 C 20.352116 28.082585 20.360501 28.085733 20.367188 28.091797 C 20.373181 28.098398 20.376479 28.106947 20.382812 28.113281 C 20.388965 28.119433 20.397892 28.121122 20.404297 28.126953 C 20.410128 28.133358 20.411817 28.142285 20.417969 28.148438 C 20.424089 28.154558 20.433083 28.156307 20.439453 28.162109 C 20.445284 28.168514 20.446973 28.177442 20.453125 28.183594 C 20.4592 28.189669 20.468288 28.191503 20.474609 28.197266 C 20.480412 28.203636 20.482161 28.21263 20.488281 28.21875 C 20.49404 28.224509 20.501832 28.226944 20.507812 28.232422 C 20.51329 28.238402 20.515726 28.246194 20.521484 28.251953 C 20.527172 28.257641 20.535112 28.260212 20.541016 28.265625 C 20.546493 28.271605 20.548929 28.279398 20.554688 28.285156 C 20.560418 28.290887 20.568269 28.293376 20.574219 28.298828 C 20.579632 28.304732 20.582203 28.312672 20.587891 28.318359 C 20.593389 28.323857 20.601722 28.324836 20.607422 28.330078 C 20.612601 28.335704 20.613712 28.34418 20.619141 28.349609 C 20.625293 28.355762 20.634221 28.35745 20.640625 28.363281 C 20.644886 28.36784 20.645963 28.374479 20.650391 28.378906 C 20.654818 28.383334 20.661457 28.38441 20.666016 28.388672 C 20.671818 28.395042 20.673567 28.404036 20.679688 28.410156 C 20.684766 28.415235 20.692014 28.417014 20.697266 28.421875 C 20.702126 28.427127 20.703905 28.434374 20.708984 28.439453 C 20.714063 28.444532 20.721311 28.446311 20.726562 28.451172 C 20.731389 28.456383 20.73324 28.463709 20.738281 28.46875 C 20.742732 28.473201 20.749323 28.474233 20.753906 28.478516 C 20.758767 28.483767 20.760546 28.491015 20.765625 28.496094 C 20.770336 28.500805 20.77639 28.503289 20.78125 28.507812 C 20.78572 28.512611 20.788315 28.518784 20.792969 28.523438 C 20.797419 28.527888 20.80401 28.52892 20.808594 28.533203 C 20.812877 28.537787 20.813909 28.544378 20.818359 28.548828 C 20.822754 28.553223 20.82946 28.554362 20.833984 28.558594 C 20.838267 28.563177 20.8393 28.569768 20.84375 28.574219 C 20.848145 28.578614 20.85485 28.579753 20.859375 28.583984 C 20.863658 28.588568 20.86469 28.595159 20.869141 28.599609 C 20.87422 28.604688 20.881467 28.606468 20.886719 28.611328 C 20.890008 28.614791 20.891145 28.619661 20.894531 28.623047 C 20.898569 28.627085 20.904056 28.628913 20.908203 28.632812 C 20.912103 28.63696 20.913931 28.642447 20.917969 28.646484 C 20.920965 28.649481 20.924677 28.651376 20.927734 28.654297 C 20.932238 28.659134 20.934764 28.665232 20.939453 28.669922 C 20.943491 28.67396 20.948978 28.675788 20.953125 28.679688 C 20.95643 28.683169 20.957534 28.688003 20.960938 28.691406 C 20.964686 28.695155 20.970766 28.695589 20.974609 28.699219 C 20.978264 28.70309 20.978646 28.709115 20.982422 28.712891 C 20.986849 28.717318 20.993488 28.718395 20.998047 28.722656 C 21.000718 28.725441 21.001172 28.729688 21.003906 28.732422 C 21.00664 28.735156 21.010887 28.73561 21.013672 28.738281 C 21.017903 28.742806 21.019043 28.749511 21.023438 28.753906 C 21.026447 28.756916 21.030132 28.758785 21.033203 28.761719 C 21.036136 28.76479 21.038006 28.768475 21.041016 28.771484 C 21.044376 28.774845 21.049297 28.776031 21.052734 28.779297 C 21.056 28.782734 21.057186 28.787655 21.060547 28.791016 C 21.064343 28.794812 21.070325 28.795154 21.074219 28.798828 C 21.076265 28.80094 21.076043 28.804558 21.078125 28.806641 C 21.080207 28.808723 21.083826 28.808501 21.085938 28.810547 C 21.089612 28.81444 21.089954 28.820422 21.09375 28.824219 C 21.096484 28.826953 21.100731 28.827407 21.103516 28.830078 C 21.106201 28.832878 21.106626 28.837095 21.109375 28.839844 C 21.11209 28.842558 21.116376 28.843051 21.119141 28.845703 C 21.121812 28.848488 21.122266 28.852735 21.125 28.855469 C 21.128386 28.858855 21.133255 28.859992 21.136719 28.863281 C 21.138388 28.864994 21.138932 28.867448 21.140625 28.869141 C 21.14297 28.871485 21.146055 28.872702 21.148438 28.875 C 21.150736 28.877382 21.151952 28.880468 21.154297 28.882812 C 21.1556 28.884116 21.156888 28.885429 21.158203 28.886719 C 21.161136 28.88979 21.163006 28.893475 21.166016 28.896484 C 21.168989 28.899458 21.172748 28.901398 21.175781 28.904297 C 21.177071 28.905612 21.178384 28.9069 21.179688 28.908203 C 21.180729 28.909244 21.182545 28.909124 21.183594 28.910156 C 21.186279 28.912956 21.186704 28.917173 21.189453 28.919922 C 21.191521 28.92199 21.195168 28.921796 21.197266 28.923828 C 21.199298 28.925925 21.199104 28.929572 21.201172 28.931641 C 21.202873 28.933342 21.20531 28.93387 21.207031 28.935547 C 21.2087 28.937259 21.209245 28.939713 21.210938 28.941406 C 21.21263 28.943099 21.215084 28.943644 21.216797 28.945312 C 21.218454 28.947012 21.219023 28.949491 21.220703 28.951172 C 21.22201 28.952479 21.223291 28.953786 21.224609 28.955078 C 21.225903 28.956398 21.227207 28.957676 21.228516 28.958984 C 21.229819 28.960288 21.231107 28.961601 21.232422 28.962891 C 21.233716 28.96421 21.23502 28.965489 21.236328 28.966797 C 21.237632 28.9681 21.238919 28.969414 21.240234 28.970703 C 21.241513 28.972007 21.242848 28.973317 21.244141 28.974609 C 21.245188 28.975657 21.246992 28.975524 21.248047 28.976562 C 21.249079 28.977611 21.248959 28.979428 21.25 28.980469 C 21.251041 28.98151 21.252858 28.98139 21.253906 28.982422 C 21.254931 28.983463 21.254825 28.985294 21.255859 28.986328 C 21.255859 28.986328 21.257812 28.988281 21.257812 28.988281 C 21.257812 28.988281 21.259766 28.990234 21.259766 28.990234 C 21.259766 28.990234 21.261719 28.992188 21.261719 28.992188 C 21.261719 28.992188 21.263672 28.994141 21.263672 28.994141 C 21.263672 28.994141 21.265625 28.996094 21.265625 28.996094 C 21.265625 28.996094 21.267578 28.998047 21.267578 28.998047 C 21.267578 28.998047 21.269531 28.998047 21.269531 28.998047 C 21.269531 28.998047 21.269531 29 21.269531 29 C 21.270821 29.001315 21.272134 29.002603 21.273438 29.003906 C 21.297562 29.027561 21.329802 29.039923 21.357422 29.058594 C 21.387623 29.078733 21.413881 29.105313 21.447266 29.119141 C 21.448584 29.119706 21.451802 29.122491 21.453125 29.123047 C 21.519893 29.150703 21.592344 29.166016 21.666016 29.166016 L 28.332031 29.166016 C 28.405703 29.166016 28.478154 29.150703 28.544922 29.123047 C 28.61169 29.095391 28.674469 29.056 28.726562 29.003906 C 28.778657 28.951813 28.818047 28.890987 28.845703 28.824219 C 28.845911 28.82372 28.845496 28.822765 28.845703 28.822266 C 28.872888 28.755992 28.888672 28.68435 28.888672 28.611328 L 28.888672 28.054688 L 28.886719 28.054688 L 28.884766 28.054688 L 28.884766 28.052734 L 28.882812 28.052734 L 28.882812 28.048828 L 28.878906 28.048828 L 28.878906 28.046875 L 28.875 28.046875 L 28.875 28.042969 L 28.871094 28.042969 L 28.871094 28.037109 L 28.865234 28.037109 L 28.865234 28.03125 L 28.859375 28.03125 L 28.859375 28.025391 L 28.851562 28.025391 L 28.851562 28.017578 L 28.84375 28.017578 L 28.84375 28.009766 L 28.835938 28.009766 L 28.835938 28.001953 L 28.826172 28.001953 L 28.826172 27.992188 L 28.816406 27.992188 L 28.816406 27.982422 L 28.804688 27.982422 L 28.804688 27.972656 L 28.792969 27.972656 L 28.792969 27.960938 L 28.78125 27.960938 L 28.78125 27.949219 L 28.769531 27.949219 L 28.769531 27.935547 L 28.753906 27.935547 L 28.753906 27.921875 L 28.740234 27.921875 L 28.740234 27.90625 L 28.724609 27.90625 L 28.724609 27.892578 L 28.708984 27.892578 L 28.708984 27.875 L 28.693359 27.875 L 28.693359 27.859375 L 28.675781 27.859375 L 28.675781 27.841797 L 28.65625 27.841797 L 28.65625 27.824219 L 28.638672 27.824219 L 28.638672 27.804688 L 28.619141 27.804688 L 28.619141 27.785156 L 28.597656 27.785156 L 28.597656 27.763672 L 28.576172 27.763672 L 28.576172 27.744141 L 28.554688 27.744141 L 28.554688 27.720703 L 28.53125 27.720703 L 28.53125 27.699219 L 28.507812 27.699219 L 28.507812 27.675781 L 28.484375 27.675781 L 28.484375 27.650391 L 28.458984 27.650391 L 28.458984 27.626953 L 28.433594 27.626953 L 28.433594 27.601562 L 28.408203 27.601562 L 28.408203 27.574219 L 28.380859 27.574219 L 28.380859 27.546875 L 28.353516 27.546875 L 28.353516 27.519531 L 28.324219 27.519531 L 28.324219 27.490234 L 28.294922 27.490234 L 28.294922 27.460938 L 28.265625 27.460938 L 28.265625 27.431641 L 28.234375 27.431641 L 28.234375 27.400391 L 28.203125 27.400391 L 28.203125 27.369141 L 28.169922 27.369141 L 28.169922 27.335938 L 28.136719 27.335938 L 28.136719 27.304688 L 28.103516 27.304688 L 28.103516 27.269531 L 28.068359 27.269531 L 28.068359 27.236328 L 28.033203 27.236328 L 28.033203 27.199219 L 27.998047 27.199219 L 27.998047 27.164062 L 27.960938 27.164062 L 27.960938 27.126953 L 27.923828 27.126953 L 27.923828 27.089844 L 27.884766 27.089844 L 27.884766 27.050781 L 27.845703 27.050781 L 27.845703 27.011719 L 27.806641 27.011719 L 27.806641 26.972656 L 27.765625 26.972656 L 27.765625 26.943359 L 28.886719 26.943359 L 28.888672 26.943359 L 30 20.832031 L 29.998047 20.835938 L 29.998047 20.832031 L 29.994141 20.835938 L 29.996094 20.830078 L 29.992188 20.833984 L 29.994141 20.828125 L 29.988281 20.835938 L 29.990234 20.824219 L 29.984375 20.832031 L 29.986328 20.820312 L 29.980469 20.828125 L 29.982422 20.814453 L 29.974609 20.826172 L 29.976562 20.810547 L 29.966797 20.822266 L 29.970703 20.802734 L 29.958984 20.818359 L 29.962891 20.796875 L 29.951172 20.8125 L 29.955078 20.789062 L 29.943359 20.804688 L 29.947266 20.779297 L 29.933594 20.796875 L 29.9375 20.771484 L 29.921875 20.791016 L 29.927734 20.759766 L 29.910156 20.78125 L 29.916016 20.75 L 29.898438 20.773438 L 29.904297 20.738281 L 29.886719 20.761719 L 29.892578 20.726562 L 29.871094 20.753906 L 29.878906 20.712891 L 29.857422 20.740234 L 29.865234 20.699219 L 29.84375 20.726562 L 29.851562 20.685547 L 29.828125 20.716797 L 29.835938 20.669922 L 29.8125 20.701172 L 29.820312 20.654297 L 29.792969 20.689453 L 29.802734 20.636719 L 29.775391 20.671875 L 29.785156 20.619141 L 29.757812 20.654297 L 29.767578 20.601562 L 29.738281 20.640625 L 29.748047 20.582031 L 29.71875 20.621094 L 29.728516 20.5625 L 29.699219 20.601562 L 29.708984 20.542969 L 29.675781 20.585938 L 29.6875 20.521484 L 29.654297 20.564453 L 29.666016 20.5 L 29.630859 20.544922 L 29.642578 20.476562 L 29.607422 20.521484 L 29.619141 20.453125 L 29.583984 20.498047 L 29.595703 20.429688 L 29.556641 20.478516 L 29.570312 20.404297 L 29.53125 20.453125 L 29.544922 20.378906 L 29.505859 20.429688 L 29.519531 20.351562 L 29.476562 20.404297 L 29.492188 20.324219 L 29.447266 20.380859 L 29.462891 20.296875 L 29.419922 20.349609 L 29.435547 20.269531 L 29.390625 20.326172 L 29.40625 20.240234 L 29.357422 20.300781 L 29.375 20.208984 L 29.330078 20.267578 L 29.345703 20.177734 L 29.296875 20.238281 L 29.314453 20.146484 L 29.263672 20.210938 L 29.28125 20.115234 L 29.230469 20.179688 L 29.248047 20.082031 L 29.197266 20.148438 L 29.214844 20.046875 L 29.162109 20.115234 L 29.179688 20.013672 L 29.125 20.082031 L 29.144531 19.978516 L 29.089844 20.048828 L 29.109375 19.941406 L 29.052734 20.013672 L 29.072266 19.904297 L 29.015625 19.976562 L 29.035156 19.867188 L 28.974609 19.943359 L 28.996094 19.830078 L 28.935547 19.90625 L 28.957031 19.791016 L 28.896484 19.867188 L 28.917969 19.75 L 28.855469 19.830078 L 28.876953 19.710938 L 28.814453 19.791016 L 28.835938 19.669922 L 28.769531 19.753906 L 28.792969 19.626953 L 28.728516 19.707031 L 28.751953 19.583984 L 28.683594 19.671875 L 28.707031 19.541016 L 28.640625 19.625 L 28.664062 19.496094 L 28.595703 19.583984 L 28.619141 19.451172 L 28.546875 19.542969 L 28.572266 19.40625 L 28.501953 19.494141 L 28.527344 19.359375 L 28.453125 19.455078 L 28.478516 19.3125 L 28.40625 19.404297 L 28.431641 19.265625 L 28.357422 19.361328 L 28.382812 19.216797 L 28.306641 19.3125 L 28.333984 19.166016 L 28.255859 19.265625 L 28.283203 19.117188 L 28.205078 19.216797 L 28.232422 19.066406 L 28.154297 19.166016 L 28.181641 19.013672 L 28.099609 19.117188 L 28.128906 18.960938 L 28.046875 19.064453 L 28.076172 18.908203 L 27.992188 19.013672 L 28.021484 18.855469 L 27.9375 18.962891 L 27.966797 18.800781 L 27.882812 18.908203 L 27.912109 18.744141 L 27.826172 18.853516 L 27.855469 18.689453 L 27.767578 18.800781 L 27.798828 18.632812 L 27.708984 18.748047 L 27.740234 18.574219 L 27.652344 18.685547 L 27.683594 18.515625 L 27.591797 18.632812 L 27.623047 18.457031 L 27.533203 18.572266 L 27.564453 18.396484 L 27.470703 18.515625 L 27.503906 18.335938 L 27.408203 18.457031 L 27.441406 18.275391 L 27.347656 18.394531 L 27.380859 18.212891 L 27.285156 18.335938 L 27.318359 18.150391 L 27.21875 18.275391 L 27.253906 18.087891 L 27.154297 18.214844 L 27.189453 18.023438 L 27.089844 18.150391 L 27.125 17.958984 L 27.023438 18.089844 L 27.058594 17.892578 L 26.957031 18.023438 L 26.992188 17.826172 L 26.888672 17.957031 L 26.925781 17.757812 L 26.820312 17.890625 L 26.857422 17.691406 L 26.751953 17.826172 L 26.789062 17.623047 L 26.681641 17.759766 L 26.71875 17.552734 L 26.611328 17.689453 L 26.648438 17.482422 L 26.541016 17.619141 L 26.578125 17.412109 L 26.466797 17.552734 L 26.505859 17.339844 L 26.394531 17.480469 L 26.433594 17.267578 L 26.322266 17.408203 L 26.361328 17.195312 L 26.248047 17.339844 L 26.287109 17.121094 L 26.173828 17.265625 L 26.212891 17.046875 L 26.095703 17.195312 L 26.136719 16.970703 L 26.019531 17.119141 L 26.060547 16.894531 L 25.943359 17.042969 L 25.984375 16.818359 L 25.863281 16.970703 L 25.90625 16.740234 L 25.785156 16.892578 L 25.828125 16.662109 L 25.707031 16.816406 L 25.75 16.582031 L 25.626953 16.738281 L 25.669922 16.501953 L 25.544922 16.662109 L 25.587891 16.421875 L 25.464844 16.578125 L 25.507812 16.341797 L 25.380859 16.501953 L 25.425781 16.259766 L 25.296875 16.423828 L 25.341797 16.175781 L 25.214844 16.337891 L 25.259766 16.091797 L 25.130859 16.255859 L 25.175781 16.007812 L 25.044922 16.175781 L 25.089844 15.923828 L 24.957031 16.091797 L 25.003906 15.837891 L 24.871094 16.005859 L 24.917969 15.75 L 24.783203 15.921875 L 24.830078 15.664062 L 24.695312 15.835938 L 24.742188 15.576172 L 24.607422 15.748047 L 24.654297 15.486328 L 24.515625 15.662109 L 24.564453 15.396484 L 24.425781 15.572266 L 24.474609 15.306641 L 24.333984 15.486328 L 24.382812 15.216797 L 24.242188 15.396484 L 24.291016 15.125 L 24.148438 15.304688 L 24.199219 15.03125 L 24.054688 15.214844 L 24.105469 14.939453 L 23.960938 15.123047 L 24.011719 14.845703 L 23.865234 15.033203 L 23.916016 14.75 L 23.771484 14.933594 L 23.822266 14.654297 L 23.671875 14.84375 L 23.724609 14.558594 L 23.576172 14.746094 L 23.628906 14.460938 L 23.478516 14.652344 L 23.53125 14.363281 L 23.378906 14.556641 L 23.431641 14.265625 L 23.28125 14.457031 L 23.333984 14.166016 L 23.181641 14.361328 L 23.234375 14.066406 L 23.078125 14.263672 L 23.132812 13.966797 L 22.976562 14.166016 L 23.03125 13.865234 L 22.875 14.064453 L 22.929688 13.763672 L 22.771484 13.966797 L 22.826172 13.660156 L 22.666016 13.863281 L 22.722656 13.556641 L 22.5625 13.759766 L 22.619141 13.451172 L 22.457031 13.65625 L 22.513672 13.347656 L 22.351562 13.554688 L 22.408203 13.240234 L 22.244141 13.449219 L 22.300781 13.134766 L 22.134766 13.345703 L 22.193359 13.027344 L 22.027344 13.238281 L 22.085938 12.919922 L 21.917969 13.134766 L 21.976562 12.810547 L 21.808594 13.025391 L 21.867188 12.701172 L 21.699219 12.916016 L 21.757812 12.589844 L 21.587891 12.806641 L 21.646484 12.480469 L 21.474609 12.699219 L 21.535156 12.367188 L 21.361328 12.587891 L 21.421875 12.255859 L 21.248047 12.478516 L 21.308594 12.142578 L 21.134766 12.365234 L 21.195312 12.027344 L 21.019531 12.251953 L 21.080078 11.914062 L 20.902344 12.140625 L 20.964844 11.798828 L 20.785156 12.027344 L 20.847656 11.681641 L 20.667969 11.910156 L 20.730469 11.564453 L 20.550781 11.792969 L 20.613281 11.447266 L 20.431641 11.677734 L 20.496094 11.328125 L 20.3125 11.560547 L 20.376953 11.208984 L 20.191406 11.445312 L 20.255859 11.089844 L 20.070312 11.326172 L 20.134766 10.96875 L 19.949219 11.205078 L 20.013672 10.847656 L 19.826172 11.085938 L 19.892578 10.724609 L 19.703125 10.964844 L 19.769531 10.601562 L 19.578125 10.845703 L 19.644531 10.478516 L 19.455078 10.720703 L 19.521484 10.353516 L 19.330078 10.597656 L 19.396484 10.228516 L 19.201172 10.476562 L 19.269531 10.103516 L 19.074219 10.351562 L 19.142578 9.9765625 L 18.947266 10.224609 L 19.015625 9.8496094 L 18.820312 10.099609 L 18.888672 9.7207031 L 18.691406 9.9726562 L 18.759766 9.5917969 L 18.558594 9.8476562 L 18.628906 9.4628906 L 18.429688 9.7167969 L 18.5 9.3320312 L 18.298828 9.5878906 L 18.369141 9.2011719 L 18.166016 9.4609375 L 18.236328 9.0703125 L 18.03125 9.3300781 L 18.103516 8.9375 L 17.898438 9.1972656 L 17.970703 8.8046875 L 17.763672 9.0683594 L 17.835938 8.6699219 L 17.628906 8.9335938 L 17.701172 8.5351562 L 17.494141 8.7988281 L 17.566406 8.4003906 L 17.355469 8.6679688 L 17.429688 8.2636719 L 17.21875 8.53125 L 17.292969 8.1269531 L 17.080078 8.3984375 L 17.154297 7.9882812 L 16.943359 8.2558594 L 17.017578 7.8496094 L 16.802734 8.125 L 16.876953 7.7109375 L 16.664062 7.9824219 L 16.738281 7.5703125 L 16.521484 7.8457031 L 16.597656 7.4296875 L 16.378906 7.7070312 L 16.455078 7.2890625 L 16.236328 7.5683594 L 16.3125 7.1464844 L 16.09375 7.4257812 L 16.169922 7.0039062 L 15.951172 7.2832031 L 16.027344 6.859375 L 15.804688 7.1425781 L 15.882812 6.7148438 L 15.658203 7 L 15.736328 6.5703125 L 15.513672 6.8535156 L 15.591797 6.4238281 L 15.367188 6.7109375 L 15.445312 6.2773438 L 15.216797 6.5664062 L 15.296875 6.1308594 L 15.068359 6.421875 L 15.148438 5.9824219 L 12.912109 8.8242188 L 12.835938 8.6699219 L 12.802734 8.7382812 L 12.701172 8.5351562 L 12.667969 8.6035156 L 12.566406 8.4003906 L 12.53125 8.46875 L 12.429688 8.2636719 L 12.396484 8.3320312 L 12.292969 8.1269531 L 12.257812 8.1953125 L 12.154297 7.9882812 L 12.121094 8.0566406 L 12.017578 7.8496094 L 11.982422 7.9199219 L 11.876953 7.7109375 L 11.841797 7.7792969 L 11.738281 7.5703125 L 11.703125 7.640625 L 11.597656 7.4296875 L 11.560547 7.5019531 L 11.455078 7.2890625 L 11.419922 7.359375 L 11.3125 7.1464844 L 11.277344 7.2167969 L 11.169922 7.0039062 L 11.134766 7.0742188 L 11.027344 6.859375 L 10.990234 6.9316406 L 10.882812 6.7148438 L 10.845703 6.7890625 L 10.736328 6.5703125 L 10.701172 6.6425781 L 10.591797 6.4238281 L 10.554688 6.4980469 L 10.445312 6.2773438 L 10.408203 6.3515625 L 10.296875 6.1308594 L 10.259766 6.2050781 L 10.148438 5.9824219 L 8.4726562 9.3339844 L 8.3691406 9.2011719 L 8.3789062 9.2519531 L 8.2363281 9.0703125 L 8.2441406 9.1171875 L 8.1035156 8.9375 L 8.1113281 8.984375 L 7.9707031 8.8046875 L 7.9785156 8.8515625 L 7.8359375 8.6699219 L 7.84375 8.7167969 L 7.7011719 8.5351562 L 7.7089844 8.5820312 L 7.5664062 8.4003906 L 7.5761719 8.4492188 L 7.4296875 8.2636719 L 7.4394531 8.3125 L 7.2929688 8.1269531 L 7.3027344 8.1757812 L 7.1542969 7.9882812 L 7.1621094 8.0351562 L 7.0175781 7.8496094 L 7.0273438 7.9023438 L 6.8769531 7.7109375 L 6.8847656 7.7578125 L 6.7382812 7.5703125 L 6.7480469 7.6210938 L 6.5976562 7.4296875 L 6.6074219 7.4824219 L 6.4550781 7.2890625 L 6.4648438 7.3398438 L 6.3125 7.1464844 L 6.3222656 7.1972656 L 6.1699219 7.0039062 L 6.1777344 7.0527344 L 6.0273438 6.859375 L 6.0371094 6.9101562 L 5.8828125 6.7148438 L 5.8925781 6.7695312 L 5.7363281 6.5703125 L 5.7460938 6.6191406 L 5.5917969 6.4238281 L 5.6015625 6.4765625 L 5.4453125 6.2773438 L 5.4550781 6.3320312 L 5.296875 6.1308594 L 5.3066406 6.1835938 L 5.1484375 5.9824219 z "
       id="path5246"
       style="fill-opacity:1;fill:url(#linearGradient6091);opacity:0.2"
       clip-path="url(#clipPath6101)" />
    <path
       style="fill:none"
       inkscape:connector-curvature="0"
       id="path4"
       d="m 3.9999777,4.0333382 12.0000003,0 0,11.9333328 -12.0000003,0 z" />
    <path
       d="m 18.999978,19.033339 12,0 0,11.933333 -12,0 z"
       id="path9754"
       inkscape:connector-curvature="0"
       style="fill:none" />
    <path
       inkscape:connector-curvature="0"
       d="m 6.1110887,11.94445 -1.111111,-6.111112 3.055556,3.8888886 1.944444,-3.8888886 1.9444443,3.8888886 3.055556,-3.8888886 -1.111111,6.111112 -7.7777783,0 m 7.7777783,1.666666 a 0.55555556,0.55555556 0 0 1 -0.555556,0.555556 l -6.6666663,0 a 0.55555556,0.55555556 0 0 1 -0.555556,-0.555556 l 0,-0.555555 7.7777783,0 0,0.555555 z"
       id="path5192"
       style="fill:#f5f5f5" />
  </g>
</svg>
