<?xml version="1.0" encoding="UTF-8" standalone="no"?>
<!-- Created with Inkscape (http://www.inkscape.org/) -->

<svg
   xmlns:dc="http://purl.org/dc/elements/1.1/"
   xmlns:cc="http://creativecommons.org/ns#"
   xmlns:rdf="http://www.w3.org/1999/02/22-rdf-syntax-ns#"
   xmlns:svg="http://www.w3.org/2000/svg"
   xmlns="http://www.w3.org/2000/svg"
   xmlns:xlink="http://www.w3.org/1999/xlink"
   xmlns:sodipodi="http://sodipodi.sourceforge.net/DTD/sodipodi-0.dtd"
   xmlns:inkscape="http://www.inkscape.org/namespaces/inkscape"
   inkscape:export-ydpi="648"
   inkscape:export-xdpi="648"
   inkscape:export-filename="/home/juergen/Projekte/Android/Android_Studio/Baumann_Theme/theme/src/main/assets/icons/res/drawable-xxhdpi/a104.png"
   sodipodi:docname="Chromecast.svg"
   inkscape:version="0.91 r13725"
   version="1.1"
   id="svg2"
   viewBox="0 0 20 20"
   height="5.6444445mm"
   width="5.6444445mm">
  <sodipodi:namedview
     inkscape:snap-page="false"
     inkscape:snap-to-guides="false"
     inkscape:snap-grids="false"
     inkscape:window-maximized="1"
     inkscape:window-y="24"
     inkscape:window-x="0"
     inkscape:window-height="744"
     inkscape:window-width="1366"
     inkscape:guide-bbox="true"
     showguides="true"
     fit-margin-bottom="0"
     fit-margin-right="0"
     fit-margin-left="0"
     fit-margin-top="0"
     showgrid="false"
     inkscape:current-layer="layer1"
     inkscape:document-units="px"
     inkscape:cy="3.731098"
     inkscape:cx="8.4055464"
     inkscape:zoom="15.839192"
     inkscape:pageshadow="2"
     inkscape:pageopacity="0.0"
     borderopacity="1.0"
     bordercolor="#666666"
     pagecolor="#ffffff"
     id="base">
    <inkscape:grid
       id="grid4138"
       type="xygrid" />
    <sodipodi:guide
       id="guide4140"
       orientation="0,1"
       position="10,18" />
    <sodipodi:guide
       id="guide4142"
       orientation="0,1"
       position="10,2" />
    <sodipodi:guide
       id="guide4144"
       orientation="1,0"
       position="2,10" />
    <sodipodi:guide
       id="guide4146"
       orientation="0,20"
       position="0,0" />
    <sodipodi:guide
       id="guide4148"
       orientation="-20,0"
       position="20,0" />
    <sodipodi:guide
       id="guide4150"
       orientation="0,-20"
       position="20,20" />
    <sodipodi:guide
       id="guide4152"
       orientation="20,0"
       position="0,20" />
    <sodipodi:guide
       id="guide4154"
       orientation="1,0"
       position="18,10" />
    <sodipodi:guide
       id="guide4156"
       orientation="-0.70710678,0.70710678"
       position="10,10" />
    <sodipodi:guide
       id="guide4160"
       orientation="1,0"
       position="4,10" />
    <sodipodi:guide
       id="guide4162"
       orientation="1,0"
       position="16,10" />
    <sodipodi:guide
       id="guide4164"
       orientation="0,1"
       position="10,16" />
    <sodipodi:guide
       id="guide4166"
       orientation="0,1"
       position="10,4" />
    <sodipodi:guide
       id="guide4168"
       orientation="0,1"
       position="10,15" />
    <sodipodi:guide
       id="guide4170"
       orientation="0,1"
       position="10,5" />
    <sodipodi:guide
       id="guide4172"
       orientation="1,0"
       position="5,10" />
    <sodipodi:guide
       id="guide4174"
       orientation="1,0"
       position="15,10" />
  </sodipodi:namedview>
  <defs
     id="defs4">
    <linearGradient
       inkscape:collect="always"
       id="linearGradient11380">
      <stop
         style="stop-color:#000000;stop-opacity:0.2"
         offset="0"
         id="stop11382" />
      <stop
         style="stop-color:#000000;stop-opacity:0;"
         offset="1"
         id="stop11384" />
    </linearGradient>
    <clipPath
       clipPathUnits="userSpaceOnUse"
       id="clipPath12478">
      <circle
         style="opacity:1;fill:#2196f3;fill-opacity:1;stroke:none;stroke-width:0.05069799;stroke-miterlimit:4;stroke-dasharray:none;stroke-opacity:1"
         id="circle12480"
         cx="9.9999781"
         cy="10.000005"
         r="10" />
    </clipPath>
    <clipPath
       id="clipPath5790"
       clipPathUnits="userSpaceOnUse">
      <circle
         inkscape:export-ydpi="648"
         inkscape:export-xdpi="648"
         inkscape:export-filename="/home/juergen/path4136.png"
         style="opacity:1;fill:#2196f3;fill-opacity:1;stroke:none;stroke-width:0.05069799;stroke-miterlimit:4;stroke-dasharray:none;stroke-opacity:1"
         id="circle5792"
         cx="9.9999781"
         cy="10.000005"
         r="10" />
    </clipPath>
    <clipPath
       clipPathUnits="userSpaceOnUse"
       id="clipPath5055">
      <circle
         inkscape:export-ydpi="648"
         inkscape:export-xdpi="648"
         inkscape:export-filename="/home/juergen/path4136.png"
         style="opacity:1;fill:#2196f3;fill-opacity:1;stroke:none;stroke-width:0.05069799;stroke-miterlimit:4;stroke-dasharray:none;stroke-opacity:1"
         id="circle5057"
         cx="9.9999781"
         cy="10.000005"
         r="10" />
    </clipPath>
    <clipPath
       id="clipPath5119"
       clipPathUnits="userSpaceOnUse">
      <circle
         inkscape:export-ydpi="648"
         inkscape:export-xdpi="648"
         inkscape:export-filename="/home/juergen/Schreibtisch/path4136.png"
         style="opacity:1;fill:#2196f3;fill-opacity:1;stroke:none;stroke-width:0.05069799;stroke-miterlimit:4;stroke-dasharray:none;stroke-opacity:1"
         id="circle5121"
         cx="9.9999781"
         cy="10.000005"
         r="10" />
    </clipPath>
    <clipPath
       clipPathUnits="userSpaceOnUse"
       id="clipPath5194">
      <circle
         inkscape:export-ydpi="648"
         inkscape:export-xdpi="648"
         inkscape:export-filename="/home/juergen/Schreibtisch/path4136.png"
         style="opacity:1;fill:#cddc39;fill-opacity:1;stroke:none;stroke-width:0.05069799;stroke-miterlimit:4;stroke-dasharray:none;stroke-opacity:1"
         id="circle5196"
         cx="9.9999781"
         cy="10.000005"
         r="10" />
    </clipPath>
    <clipPath
       id="clipPath6175"
       clipPathUnits="userSpaceOnUse">
      <circle
         inkscape:export-ydpi="648"
         inkscape:export-xdpi="648"
         inkscape:export-filename="/home/juergen/Schreibtisch/path4136.png"
         style="opacity:1;fill:#f44336;fill-opacity:1;stroke:none;stroke-width:0.05069799;stroke-miterlimit:4;stroke-dasharray:none;stroke-opacity:1"
         id="circle6177"
         cx="9.9999781"
         cy="10.000005"
         r="10" />
    </clipPath>
    <clipPath
       clipPathUnits="userSpaceOnUse"
       id="clipPath7176">
      <circle
         inkscape:export-ydpi="648"
         inkscape:export-xdpi="648"
         inkscape:export-filename="/home/juergen/Schreibtisch/path4136.png"
         style="opacity:1;fill:#9c27b0;fill-opacity:1;stroke:none;stroke-width:0.05069799;stroke-miterlimit:4;stroke-dasharray:none;stroke-opacity:1"
         id="circle7178"
         cx="9.9999781"
         cy="10.000005"
         r="10" />
    </clipPath>
    <clipPath
       id="clipPath8165"
       clipPathUnits="userSpaceOnUse">
      <circle
         inkscape:export-ydpi="648"
         inkscape:export-xdpi="648"
         inkscape:export-filename="/home/juergen/Schreibtisch/path4136.png"
         style="opacity:1;fill:#ffc107;fill-opacity:1;stroke:none;stroke-width:0.05069799;stroke-miterlimit:4;stroke-dasharray:none;stroke-opacity:1"
         id="circle8167"
         cx="9.9999781"
         cy="10.000005"
         r="10" />
    </clipPath>
    <clipPath
       clipPathUnits="userSpaceOnUse"
       id="clipPath9162">
      <circle
         inkscape:export-ydpi="648"
         inkscape:export-xdpi="648"
         inkscape:export-filename="/home/juergen/Schreibtisch/path4136.png"
         style="opacity:1;fill:#ff9800;fill-opacity:1;stroke:none;stroke-width:0.05069799;stroke-miterlimit:4;stroke-dasharray:none;stroke-opacity:1"
         id="circle9164"
         cx="9.9999781"
         cy="10.000005"
         r="10" />
    </clipPath>
    <clipPath
       id="clipPath5147"
       clipPathUnits="userSpaceOnUse">
      <circle
         inkscape:export-ydpi="648"
         inkscape:export-xdpi="648"
         inkscape:export-filename="/home/juergen/Schreibtisch/path4136.png"
         style="opacity:1;fill:#ff9800;fill-opacity:1;stroke:none;stroke-width:0.05069799;stroke-miterlimit:4;stroke-dasharray:none;stroke-opacity:1"
         id="circle5149"
         cx="9.9999781"
         cy="10.000005"
         r="10" />
    </clipPath>
    <clipPath
       clipPathUnits="userSpaceOnUse"
       id="clipPath6144">
      <circle
         inkscape:export-ydpi="648"
         inkscape:export-xdpi="648"
         inkscape:export-filename="/home/juergen/Schreibtisch/path4136.png"
         style="opacity:1;fill:#e91e63;fill-opacity:1;stroke:none;stroke-width:0.05069799;stroke-miterlimit:4;stroke-dasharray:none;stroke-opacity:1"
         id="circle6146"
         cx="9.9999781"
         cy="10.000005"
         r="10" />
    </clipPath>
    <clipPath
       id="clipPath7143"
       clipPathUnits="userSpaceOnUse">
      <circle
         inkscape:export-ydpi="648"
         inkscape:export-xdpi="648"
         inkscape:export-filename="/home/juergen/Schreibtisch/path4136.png"
         style="opacity:1;fill:#ffeb3b;fill-opacity:1;stroke:none;stroke-width:0.05069799;stroke-miterlimit:4;stroke-dasharray:none;stroke-opacity:1"
         id="circle7145"
         cx="9.9999781"
         cy="10.000005"
         r="10" />
    </clipPath>
    <clipPath
       clipPathUnits="userSpaceOnUse"
       id="clipPath8148">
      <circle
         inkscape:export-ydpi="648"
         inkscape:export-xdpi="648"
         inkscape:export-filename="/home/juergen/Schreibtisch/path4136.png"
         style="opacity:1;fill:#9c27b0;fill-opacity:1;stroke:none;stroke-width:0.05069799;stroke-miterlimit:4;stroke-dasharray:none;stroke-opacity:1"
         id="circle8150"
         cx="9.9999781"
         cy="10.000005"
         r="10" />
    </clipPath>
    <clipPath
       id="clipPath5171"
       clipPathUnits="userSpaceOnUse">
      <circle
         inkscape:export-ydpi="648"
         inkscape:export-xdpi="648"
         inkscape:export-filename="/home/juergen/Schreibtisch/path4136.png"
         style="opacity:1;fill:#f44336;fill-opacity:1;stroke:none;stroke-width:0.05069799;stroke-miterlimit:4;stroke-dasharray:none;stroke-opacity:1"
         id="circle5173"
         cx="9.9999781"
         cy="10.000005"
         r="10" />
    </clipPath>
    <clipPath
       clipPathUnits="userSpaceOnUse"
       id="clipPath6181">
      <circle
         inkscape:export-ydpi="648"
         inkscape:export-xdpi="648"
         inkscape:export-filename="/home/juergen/Schreibtisch/path4136.png"
         style="opacity:1;fill:#2196f3;fill-opacity:1;stroke:none;stroke-width:0.05069799;stroke-miterlimit:4;stroke-dasharray:none;stroke-opacity:1"
         id="circle6183"
         cx="9.9999781"
         cy="10.000005"
         r="10" />
    </clipPath>
    <clipPath
       id="clipPath7195"
       clipPathUnits="userSpaceOnUse">
      <circle
         inkscape:export-ydpi="648"
         inkscape:export-xdpi="648"
         inkscape:export-filename="/home/juergen/Schreibtisch/path4136.png"
         style="opacity:1;fill:#795548;fill-opacity:1;stroke:none;stroke-width:0.05069799;stroke-miterlimit:4;stroke-dasharray:none;stroke-opacity:1"
         id="circle7197"
         cx="9.9999781"
         cy="10.000005"
         r="10" />
    </clipPath>
    <clipPath
       clipPathUnits="userSpaceOnUse"
       id="clipPath8213">
      <circle
         inkscape:export-ydpi="648"
         inkscape:export-xdpi="648"
         inkscape:export-filename="/home/juergen/Schreibtisch/path4136.png"
         style="opacity:1;fill:#f44336;fill-opacity:1;stroke:none;stroke-width:0.05069799;stroke-miterlimit:4;stroke-dasharray:none;stroke-opacity:1"
         id="circle8215"
         cx="9.9999781"
         cy="10.000005"
         r="10" />
    </clipPath>
    <clipPath
       id="clipPath9235"
       clipPathUnits="userSpaceOnUse">
      <circle
         inkscape:export-ydpi="648"
         inkscape:export-xdpi="648"
         inkscape:export-filename="/home/juergen/Schreibtisch/path4136.png"
         style="opacity:1;fill:#f44336;fill-opacity:1;stroke:none;stroke-width:0.05069799;stroke-miterlimit:4;stroke-dasharray:none;stroke-opacity:1"
         id="circle9237"
         cx="9.9999781"
         cy="10.000005"
         r="10" />
    </clipPath>
    <clipPath
       clipPathUnits="userSpaceOnUse"
       id="clipPath5965">
      <circle
         inkscape:export-ydpi="648"
         inkscape:export-xdpi="648"
         inkscape:export-filename="/home/juergen/Schreibtisch/path4136.png"
         style="opacity:1;fill:#009688;fill-opacity:1;stroke:none;stroke-width:0.05069799;stroke-miterlimit:4;stroke-dasharray:none;stroke-opacity:1"
         id="circle5967"
         cx="9.9999781"
         cy="10.000005"
         r="10" />
    </clipPath>
    <clipPath
       id="clipPath7910"
       clipPathUnits="userSpaceOnUse">
      <circle
         inkscape:export-ydpi="648"
         inkscape:export-xdpi="648"
         inkscape:export-filename="/home/juergen/Schreibtisch/path4136.png"
         style="opacity:1;fill:#ffeb3b;fill-opacity:1;stroke:none;stroke-width:0.05069799;stroke-miterlimit:4;stroke-dasharray:none;stroke-opacity:1"
         id="circle7912"
         cx="9.9999781"
         cy="10.000005"
         r="10" />
    </clipPath>
    <clipPath
       clipPathUnits="userSpaceOnUse"
       id="clipPath8990">
      <circle
         inkscape:export-ydpi="648"
         inkscape:export-xdpi="648"
         inkscape:export-filename="/home/juergen/Schreibtisch/path4136.png"
         style="opacity:1;fill:#ffc107;fill-opacity:1;stroke:none;stroke-width:0.05069799;stroke-miterlimit:4;stroke-dasharray:none;stroke-opacity:1"
         id="circle8992"
         cx="9.9999781"
         cy="10.000005"
         r="10" />
    </clipPath>
    <clipPath
       id="clipPath10267"
       clipPathUnits="userSpaceOnUse">
      <circle
         inkscape:export-ydpi="648"
         inkscape:export-xdpi="648"
         inkscape:export-filename="/home/juergen/Schreibtisch/path4136.png"
         style="opacity:1;fill:#80cbc4;fill-opacity:1;stroke:none;stroke-width:0.05069799;stroke-miterlimit:4;stroke-dasharray:none;stroke-opacity:1"
         id="circle10269"
         cx="9.9999781"
         cy="10.000005"
         r="10" />
    </clipPath>
    <linearGradient
       inkscape:collect="always"
       xlink:href="#linearGradient11380"
       id="linearGradient11386"
       x1="10"
       y1="10"
       x2="20"
       y2="20"
       gradientUnits="userSpaceOnUse" />
    <clipPath
       clipPathUnits="userSpaceOnUse"
       id="clipPath11390">
      <circle
         inkscape:export-ydpi="648"
         inkscape:export-xdpi="648"
         inkscape:export-filename="/home/juergen/Schreibtisch/path4136.png"
         style="opacity:1;fill:#3f51b5;fill-opacity:1;stroke:none;stroke-width:0.05069799;stroke-miterlimit:4;stroke-dasharray:none;stroke-opacity:1"
         id="circle11392"
         cx="9.9999781"
         cy="10.000005"
         r="10" />
    </clipPath>
  </defs>
  <metadata
     id="metadata7">
    <rdf:RDF>
      <cc:Work
         rdf:about="">
        <dc:format>image/svg+xml</dc:format>
        <dc:type
           rdf:resource="http://purl.org/dc/dcmitype/StillImage" />
        <dc:title></dc:title>
      </cc:Work>
    </rdf:RDF>
  </metadata>
  <g
     transform="translate(1058.1428,-861.93365)"
     id="layer1"
     inkscape:groupmode="layer"
     inkscape:label="Hintergrund">
    <circle
       r="10"
       cy="871.93365"
       cx="-1048.1428"
       id="path4136"
       style="opacity:1;fill:#2196f3;fill-opacity:1;stroke:none;stroke-width:0.05069799;stroke-miterlimit:4;stroke-dasharray:none;stroke-opacity:1"
       inkscape:export-filename="/home/juergen/Schreibtisch/path4136.png"
       inkscape:export-xdpi="648"
       inkscape:export-ydpi="648" />
    <g
       id="g9099"
       transform="matrix(0.01119865,0,0,0.01119865,-1053.404,867.49955)" />
    <g
       id="g9101"
       transform="matrix(0.01119865,0,0,0.01119865,-1053.404,867.49955)" />
    <g
       id="g9103"
       transform="matrix(0.01119865,0,0,0.01119865,-1053.404,867.49955)" />
    <g
       id="g9105"
       transform="matrix(0.01119865,0,0,0.01119865,-1053.404,867.49955)" />
    <g
       id="g9107"
       transform="matrix(0.01119865,0,0,0.01119865,-1053.404,867.49955)" />
    <g
       id="g9109"
       transform="matrix(0.01119865,0,0,0.01119865,-1053.404,867.49955)" />
    <g
       id="g9111"
       transform="matrix(0.01119865,0,0,0.01119865,-1053.404,867.49955)" />
    <g
       id="g9113"
       transform="matrix(0.01119865,0,0,0.01119865,-1053.404,867.49955)" />
    <g
       id="g9115"
       transform="matrix(0.01119865,0,0,0.01119865,-1053.404,867.49955)" />
    <g
       id="g9117"
       transform="matrix(0.01119865,0,0,0.01119865,-1053.404,867.49955)" />
    <g
       id="g9119"
       transform="matrix(0.01119865,0,0,0.01119865,-1053.404,867.49955)" />
    <g
       id="g9121"
       transform="matrix(0.01119865,0,0,0.01119865,-1053.404,867.49955)" />
    <g
       id="g9123"
       transform="matrix(0.01119865,0,0,0.01119865,-1053.404,867.49955)" />
    <g
       id="g9125"
       transform="matrix(0.01119865,0,0,0.01119865,-1053.404,867.49955)" />
    <g
       id="g9127"
       transform="matrix(0.01119865,0,0,0.01119865,-1053.404,867.49955)" />
    <path
       style="fill:none"
       inkscape:connector-curvature="0"
       d="m -1055.5892,857.16579 24,0 0,24 -24,0 z"
       id="path9227" />
    <path
       id="path10344"
       d="m -1056.6951,862.86258 24,0 0,24 -24,0 0,-24 z"
       inkscape:connector-curvature="0"
       style="fill:none" />
    <path
       style="fill:url(#linearGradient11386);fill-opacity:1"
       d="M 8.3300781 5.6035156 L 8.0078125 5.9257812 L 8.15625 6.0742188 L 8.3046875 6.2207031 L 8.3027344 6.2226562 L 8.5957031 6.5136719 L 8.8867188 6.8046875 L 8.9511719 6.8691406 L 9.4570312 7.375 L 9.5019531 7.421875 L 6.0585938 7.421875 C 5.5585938 7.421875 5.1484375 7.8255381 5.1484375 8.3300781 L 5.1484375 13.785156 C 5.1484375 14.073396 5.292956 14.321423 5.5039062 14.488281 C 5.5479532 14.543966 5.5967123 14.590654 5.6523438 14.634766 C 5.696229 14.69011 5.7434832 14.737365 5.7988281 14.78125 C 5.8427134 14.836594 5.8899675 14.88385 5.9453125 14.927734 C 5.9888616 14.982655 6.0350015 15.030575 6.0898438 15.074219 C 6.1331513 15.128637 6.1799561 15.175443 6.234375 15.21875 C 6.2776826 15.273168 6.3244874 15.319974 6.3789062 15.363281 C 6.4219862 15.417413 6.4693573 15.462717 6.5234375 15.505859 C 6.566353 15.559653 6.6122212 15.605523 6.6660156 15.648438 C 6.7085937 15.701808 6.7533461 15.748345 6.8066406 15.791016 C 6.8489734 15.843887 6.8943935 15.889309 6.9472656 15.931641 C 6.9895984 15.984512 7.0350185 16.029934 7.0878906 16.072266 C 7.1298852 16.124715 7.1741885 16.170806 7.2265625 16.212891 C 7.2683094 16.264842 7.3132821 16.309816 7.3652344 16.351562 C 7.4069812 16.403514 7.451954 16.448488 7.5039062 16.490234 C 7.5454241 16.541901 7.5909615 16.585375 7.6425781 16.626953 C 7.6844961 16.67899 7.7290855 16.72386 7.78125 16.765625 C 7.8210112 16.814511 7.8632232 16.856724 7.9121094 16.896484 C 7.9535373 16.948226 7.9972865 16.993489 8.0488281 17.035156 C 8.0901563 17.086276 8.1343013 17.130697 8.1855469 17.171875 C 8.2247089 17.219851 8.2664767 17.26162 8.3144531 17.300781 C 8.3554032 17.351741 8.4003853 17.394389 8.4511719 17.435547 C 8.4911885 17.484924 8.5327254 17.528258 8.5820312 17.568359 C 8.6217924 17.617245 8.6640044 17.659458 8.7128906 17.699219 C 8.7526518 17.748104 8.7948638 17.790318 8.84375 17.830078 C 8.8831698 17.878544 8.9242608 17.921434 8.9726562 17.960938 C 9.0118183 18.008913 9.0535861 18.050682 9.1015625 18.089844 C 9.1407246 18.13782 9.1824923 18.179589 9.2304688 18.21875 C 9.2693997 18.266443 9.3117291 18.306717 9.359375 18.345703 C 9.3981305 18.393066 9.4389651 18.433901 9.4863281 18.472656 C 9.5247411 18.5196 9.5644529 18.561115 9.6113281 18.599609 C 9.650398 18.647184 9.6924711 18.687715 9.7402344 18.726562 C 9.777022 18.77109 9.8149135 18.810792 9.859375 18.847656 C 9.8985371 18.895632 9.9403048 18.937401 9.9882812 18.976562 C 10.024568 19.020326 10.063702 19.057413 10.107422 19.09375 C 10.145603 19.140411 10.185876 19.180433 10.232422 19.21875 C 10.269819 19.264178 10.308154 19.304321 10.353516 19.341797 C 10.390648 19.386741 10.429665 19.425759 10.474609 19.462891 C 10.511397 19.507418 10.549289 19.54712 10.59375 19.583984 C 10.63027 19.628029 10.668846 19.666606 10.712891 19.703125 C 10.74941 19.74717 10.787986 19.785746 10.832031 19.822266 C 10.868318 19.866029 10.907452 19.903116 10.951172 19.939453 C 10.987276 19.982891 11.024921 20.020537 11.068359 20.056641 C 11.105043 20.100776 11.143254 20.139227 11.1875 20.175781 C 11.221946 20.216829 11.25778 20.252664 11.298828 20.287109 C 11.334806 20.330656 11.372686 20.368066 11.416016 20.404297 C 11.451318 20.446516 11.487034 20.484279 11.529297 20.519531 C 11.56455 20.561793 11.602311 20.59751 11.644531 20.632812 C 11.679253 20.674336 11.714397 20.711301 11.755859 20.746094 C 11.791236 20.78825 11.828768 20.824196 11.871094 20.859375 C 11.904141 20.898521 11.937476 20.933682 11.976562 20.966797 C 12.011469 21.008644 12.048102 21.04505 12.089844 21.080078 C 12.123942 21.120711 12.158646 21.157238 12.199219 21.191406 C 12.233736 21.232392 12.27139 21.266407 12.3125 21.300781 C 12.344839 21.338858 12.377938 21.371959 12.416016 21.404297 C 12.450156 21.445126 12.484726 21.481296 12.525391 21.515625 C 12.558438 21.554771 12.591773 21.589932 12.630859 21.623047 C 12.664561 21.662825 12.700295 21.696953 12.740234 21.730469 C 12.771587 21.767253 12.803115 21.800615 12.839844 21.832031 C 12.873081 21.871496 12.9079 21.906102 12.947266 21.939453 C 12.979796 21.977848 13.014378 22.010394 13.052734 22.042969 C 13.08566 22.081736 13.119336 22.115626 13.158203 22.148438 C 13.188835 22.184163 13.220134 22.215462 13.255859 22.246094 C 13.288323 22.284547 13.321077 22.318921 13.359375 22.351562 C 13.390728 22.388347 13.422256 22.421709 13.458984 22.453125 C 13.49005 22.489442 13.522276 22.52167 13.558594 22.552734 C 13.589659 22.589052 13.621885 22.621279 13.658203 22.652344 C 13.689971 22.689483 13.724466 22.720315 13.761719 22.751953 C 13.791864 22.7869 13.822384 22.817614 13.857422 22.847656 C 13.887112 22.882283 13.916687 22.913508 13.951172 22.943359 C 13.981937 22.979454 14.01288 23.012036 14.048828 23.042969 C 14.078817 23.077819 14.10968 23.108683 14.144531 23.138672 C 14.17452 23.173522 14.205383 23.204386 14.240234 23.234375 C 14.269985 23.268949 14.301399 23.298334 14.335938 23.328125 C 14.366082 23.363072 14.396603 23.393786 14.431641 23.423828 C 14.459453 23.455765 14.487593 23.483907 14.519531 23.511719 C 14.549222 23.546345 14.578796 23.577571 14.613281 23.607422 C 14.641832 23.640404 14.670194 23.670611 14.703125 23.699219 C 14.732328 23.732833 14.763121 23.761971 14.796875 23.791016 C 14.823791 23.821814 14.852046 23.848048 14.882812 23.875 C 14.911659 23.908442 14.939317 23.939787 14.972656 23.96875 C 15.00067 24.000997 15.030287 24.028589 15.0625 24.056641 C 15.090907 24.089261 15.119638 24.118173 15.152344 24.146484 C 15.178394 24.176116 15.204743 24.202465 15.234375 24.228516 C 15.262333 24.260812 15.290102 24.290251 15.322266 24.318359 C 15.349182 24.349158 15.377437 24.375392 15.408203 24.402344 C 15.434915 24.432835 15.461696 24.459617 15.492188 24.486328 C 15.518899 24.516819 15.54568 24.543601 15.576172 24.570312 C 15.60348 24.601485 15.630855 24.629033 15.662109 24.65625 C 15.687646 24.685125 15.713236 24.710876 15.742188 24.736328 C 15.767283 24.764873 15.791887 24.791178 15.820312 24.816406 C 15.846517 24.84639 15.872485 24.874047 15.902344 24.900391 C 15.927731 24.929165 15.953647 24.955082 15.982422 24.980469 C 16.007809 25.009243 16.033726 25.03516 16.0625 25.060547 C 16.087645 25.089047 16.114108 25.113493 16.142578 25.138672 C 16.168115 25.167547 16.193705 25.193298 16.222656 25.21875 C 16.245798 25.244669 16.269003 25.267874 16.294922 25.291016 C 16.320017 25.31956 16.344622 25.345866 16.373047 25.371094 C 16.398275 25.399519 16.42458 25.424124 16.453125 25.449219 C 16.475132 25.473721 16.496982 25.495572 16.521484 25.517578 C 16.546937 25.546529 16.572687 25.57212 16.601562 25.597656 C 16.623569 25.622158 16.64542 25.644009 16.669922 25.666016 C 16.6939 25.693128 16.717142 25.718083 16.744141 25.742188 C 16.767282 25.768106 16.790487 25.791312 16.816406 25.814453 C 16.839188 25.839969 16.861243 25.863893 16.886719 25.886719 C 16.909184 25.911791 16.931958 25.934566 16.957031 25.957031 C 16.980218 25.982909 17.00529 26.004248 17.03125 26.027344 C 17.052114 26.050436 17.072611 26.070934 17.095703 26.091797 C 17.119159 26.118161 17.141646 26.142514 17.167969 26.166016 C 17.188147 26.18827 17.208215 26.208338 17.230469 26.228516 C 17.252647 26.253356 17.274094 26.276535 17.298828 26.298828 C 17.321122 26.323562 17.3443 26.34501 17.369141 26.367188 C 17.388163 26.388043 17.406879 26.40676 17.427734 26.425781 C 17.449669 26.450349 17.471657 26.472063 17.496094 26.494141 C 17.516595 26.516831 17.535939 26.538053 17.558594 26.558594 C 17.578772 26.580848 17.59884 26.600916 17.621094 26.621094 C 17.641272 26.643348 17.66134 26.663416 17.683594 26.683594 C 17.70438 26.706519 17.72506 26.727328 17.748047 26.748047 C 17.766129 26.767801 17.784954 26.784629 17.804688 26.802734 C 17.825189 26.825425 17.844533 26.846647 17.867188 26.867188 C 17.88621 26.888043 17.904926 26.90676 17.925781 26.925781 C 17.944803 26.946637 17.963519 26.965353 17.984375 26.984375 C 18.004007 27.0059 18.023339 27.025353 18.044922 27.044922 C 18.062082 27.063559 18.079019 27.080497 18.097656 27.097656 C 18.116617 27.118568 18.135451 27.137167 18.15625 27.15625 C 18.174355 27.175983 18.191183 27.194809 18.210938 27.212891 C 18.229019 27.232645 18.247845 27.249473 18.267578 27.267578 C 18.285071 27.286644 18.301278 27.30474 18.320312 27.322266 C 18.337472 27.340902 18.35441 27.35784 18.373047 27.375 C 18.390207 27.393637 18.407144 27.410575 18.425781 27.427734 C 18.442941 27.446371 18.459879 27.463309 18.478516 27.480469 C 18.495428 27.498837 18.512902 27.514316 18.53125 27.53125 C 18.54757 27.548932 18.562425 27.565681 18.580078 27.582031 C 18.597044 27.600349 18.614414 27.615932 18.632812 27.632812 C 18.648229 27.649359 18.663095 27.66432 18.679688 27.679688 C 18.694688 27.695883 18.708485 27.711486 18.724609 27.726562 C 18.74079 27.744135 18.755942 27.761082 18.773438 27.777344 C 18.788715 27.79378 18.803876 27.808941 18.820312 27.824219 C 18.835341 27.840388 18.851036 27.854093 18.867188 27.869141 C 18.881987 27.885024 18.896226 27.899264 18.912109 27.914062 C 18.926909 27.929946 18.941147 27.944185 18.957031 27.958984 C 18.971462 27.974473 18.984537 27.989449 19 28.003906 C 19.014089 28.018974 19.027901 28.032787 19.042969 28.046875 C 19.057676 28.062604 19.072117 28.077136 19.087891 28.091797 C 19.100064 28.104694 19.112102 28.116733 19.125 28.128906 C 19.139044 28.144016 19.152943 28.157742 19.167969 28.171875 C 19.181231 28.185975 19.194861 28.1977 19.208984 28.210938 C 19.222222 28.225061 19.233947 28.238691 19.248047 28.251953 C 19.260568 28.265266 19.271866 28.278471 19.285156 28.291016 C 19.29733 28.303913 19.309368 28.315952 19.322266 28.328125 C 19.334439 28.341022 19.346477 28.353061 19.359375 28.365234 C 19.371549 28.378132 19.383587 28.39017 19.396484 28.402344 C 19.408407 28.414975 19.420976 28.425562 19.433594 28.4375 C 19.445903 28.45051 19.457656 28.462339 19.470703 28.474609 C 19.48045 28.484814 19.489795 28.49416 19.5 28.503906 C 19.511901 28.516559 19.52256 28.529056 19.535156 28.541016 C 19.545869 28.552298 19.557089 28.56154 19.568359 28.572266 C 19.578834 28.583271 19.588604 28.593042 19.599609 28.603516 C 19.610084 28.614521 19.619854 28.624292 19.630859 28.634766 C 19.641958 28.646427 19.652368 28.656905 19.664062 28.667969 C 19.673212 28.677492 19.681856 28.686191 19.691406 28.695312 C 19.700154 28.704472 19.707679 28.713866 19.716797 28.722656 C 19.726765 28.733155 19.735642 28.743889 19.746094 28.753906 C 19.75511 28.763314 19.76403 28.772233 19.773438 28.78125 C 19.782454 28.790657 19.791374 28.799577 19.800781 28.808594 C 19.809545 28.817737 19.818992 28.82521 19.828125 28.833984 C 19.836647 28.842854 19.844646 28.850853 19.853516 28.859375 C 19.861663 28.867855 19.868487 28.876604 19.876953 28.884766 C 19.88474 28.892842 19.892314 28.900416 19.900391 28.908203 C 19.908806 28.916932 19.917028 28.925204 19.925781 28.933594 C 19.931589 28.939561 19.937392 28.945364 19.943359 28.951172 C 19.951497 28.959662 19.960294 28.966437 19.96875 28.974609 C 19.975663 28.981763 19.98114 28.989168 19.988281 28.996094 C 19.994831 29.002847 20.001059 29.009075 20.007812 29.015625 C 20.014362 29.022378 20.02059 29.028607 20.027344 29.035156 C 20.033517 29.041522 20.038567 29.048503 20.044922 29.054688 C 20.050729 29.060655 20.056533 29.066458 20.0625 29.072266 C 20.068308 29.078233 20.074111 29.084036 20.080078 29.089844 C 20.085631 29.095549 20.091957 29.099909 20.097656 29.105469 C 20.102961 29.110906 20.107844 29.115789 20.113281 29.121094 C 20.118208 29.126144 20.121911 29.131783 20.126953 29.136719 C 20.131511 29.141374 20.135969 29.145833 20.140625 29.150391 C 20.145183 29.155046 20.149641 29.159505 20.154297 29.164062 C 20.158599 29.168457 20.163579 29.171474 20.167969 29.175781 C 20.172021 29.17991 20.175559 29.183448 20.179688 29.1875 C 20.183361 29.191243 20.185717 29.195539 20.189453 29.199219 C 20.193768 29.203601 20.198723 29.206643 20.203125 29.210938 C 20.204143 29.211965 20.206009 29.215774 20.207031 29.216797 C 20.210955 29.220805 20.214753 29.22458 20.21875 29.228516 C 20.221671 29.231482 20.223601 29.235355 20.226562 29.238281 C 20.228852 29.240598 20.232061 29.241848 20.234375 29.244141 C 20.236818 29.246606 20.24167 29.249515 20.244141 29.251953 C 20.244141 29.251953 20.244141 29.253906 20.244141 29.253906 C 20.246806 29.256612 20.249255 29.259046 20.251953 29.261719 C 20.252971 29.262746 20.254837 29.266556 20.255859 29.267578 C 20.255859 29.267578 20.257812 29.269531 20.257812 29.269531 C 20.257812 29.269531 20.259766 29.271484 20.259766 29.271484 C 20.259766 29.271484 20.261719 29.273438 20.261719 29.273438 C 20.261719 29.273438 20.263672 29.273438 20.263672 29.273438 C 20.263672 29.273438 20.263672 29.275391 20.263672 29.275391 C 20.263929 29.27565 20.265368 29.275132 20.265625 29.275391 C 20.265625 29.275391 20.265625 29.277344 20.265625 29.277344 C 20.265883 29.277602 20.26732 29.277086 20.267578 29.277344 C 20.348682 29.357685 20.446426 29.425157 20.552734 29.470703 C 20.552734 29.470703 20.554688 29.472656 20.554688 29.472656 C 20.555191 29.472871 20.556137 29.472442 20.556641 29.472656 C 20.664842 29.518359 20.783866 29.544922 20.908203 29.544922 L 29.089844 29.544922 C 29.464844 29.544922 29.789237 29.314275 29.927734 28.988281 C 29.9739 28.879617 30 28.761719 30 28.636719 L 30 23.181641 C 30 23.055506 29.9739 22.935049 29.927734 22.826172 C 29.927734 22.826172 29.925781 22.824219 29.925781 22.824219 C 29.879657 22.716358 29.814169 22.618574 29.732422 22.537109 C 29.732037 22.536726 29.730854 22.537492 29.730469 22.537109 C 29.730469 22.537109 29.730469 22.535156 29.730469 22.535156 C 29.730469 22.535156 29.728516 22.533203 29.728516 22.533203 C 29.728516 22.533203 29.726562 22.53125 29.726562 22.53125 C 29.726562 22.53125 29.724609 22.53125 29.724609 22.53125 C 29.724609 22.53125 29.724609 22.529297 29.724609 22.529297 C 29.722946 22.52764 29.720426 22.527035 29.71875 22.525391 C 29.716081 22.52269 29.71364 22.520245 29.710938 22.517578 C 29.708898 22.515526 29.707137 22.513751 29.705078 22.511719 C 29.702783 22.509409 29.701539 22.506191 29.699219 22.503906 C 29.696669 22.501335 29.693986 22.498634 29.691406 22.496094 C 29.688857 22.493523 29.686173 22.490822 29.683594 22.488281 C 29.680662 22.485325 29.6768 22.483385 29.673828 22.480469 C 29.670522 22.477123 29.667419 22.473997 29.664062 22.470703 C 29.660757 22.467358 29.657654 22.464231 29.654297 22.460938 C 29.650617 22.457214 29.646321 22.454832 29.642578 22.451172 C 29.637636 22.446153 29.633963 22.44045 29.628906 22.435547 C 29.626353 22.432972 29.623677 22.430279 29.621094 22.427734 C 29.615918 22.422434 29.610771 22.417282 29.605469 22.412109 C 29.600533 22.407084 29.594894 22.403347 29.589844 22.398438 C 29.583896 22.392361 29.57838 22.386767 29.572266 22.380859 C 29.568586 22.377135 29.56429 22.374754 29.560547 22.371094 C 29.554254 22.364603 29.549451 22.357863 29.542969 22.351562 C 29.537409 22.345883 29.533049 22.339517 29.527344 22.333984 C 29.520516 22.326992 29.512907 22.321223 29.505859 22.314453 C 29.501302 22.309813 29.496843 22.305323 29.492188 22.300781 C 29.485019 22.29337 29.478118 22.286461 29.470703 22.279297 C 29.463777 22.272179 29.456372 22.266654 29.449219 22.259766 C 29.441286 22.251584 29.434013 22.244207 29.425781 22.236328 C 29.420222 22.230648 29.415862 22.224283 29.410156 22.21875 C 29.402006 22.210274 29.393235 22.203467 29.384766 22.195312 C 29.377223 22.187533 29.371095 22.179381 29.363281 22.171875 C 29.355119 22.163436 29.346371 22.156555 29.337891 22.148438 C 29.329732 22.139972 29.322932 22.13119 29.314453 22.123047 C 29.305287 22.113571 29.294723 22.106726 29.285156 22.097656 C 29.277867 22.090138 29.271214 22.083434 29.263672 22.076172 C 29.25393 22.065968 29.24653 22.054663 29.236328 22.044922 C 29.227298 22.035531 29.218406 22.026574 29.208984 22.017578 C 29.199578 22.007796 29.189519 21.999587 29.179688 21.990234 C 29.169925 21.980045 29.160613 21.970662 29.150391 21.960938 C 29.140628 21.950749 29.131316 21.941366 29.121094 21.931641 C 29.110974 21.921078 29.100458 21.912407 29.089844 21.902344 C 29.079727 21.891747 29.07116 21.881191 29.060547 21.871094 C 29.049566 21.859565 29.03891 21.848829 29.027344 21.837891 C 29.015738 21.825705 29.004446 21.814259 28.992188 21.802734 C 28.982776 21.792944 28.972728 21.784751 28.962891 21.775391 C 28.949979 21.761705 28.937557 21.749189 28.923828 21.736328 C 28.913061 21.725088 28.901951 21.715753 28.890625 21.705078 C 28.879907 21.693782 28.870654 21.682607 28.859375 21.671875 C 28.846256 21.657887 28.834282 21.643992 28.820312 21.630859 C 28.808121 21.617983 28.796121 21.605894 28.783203 21.59375 C 28.770638 21.580479 28.757476 21.569133 28.744141 21.556641 C 28.730607 21.542295 28.717556 21.529063 28.703125 21.515625 C 28.691764 21.503694 28.679956 21.49372 28.667969 21.482422 C 28.654135 21.467619 28.641736 21.453301 28.626953 21.439453 C 28.613463 21.425069 28.600327 21.411917 28.585938 21.398438 C 28.572447 21.384053 28.559311 21.370901 28.544922 21.357422 C 28.530833 21.3424 28.517021 21.328487 28.501953 21.314453 C 28.487843 21.299408 28.474077 21.285538 28.458984 21.271484 C 28.444527 21.256069 28.429551 21.24289 28.414062 21.228516 C 28.399239 21.212654 28.385052 21.198357 28.369141 21.183594 C 28.354318 21.167732 28.34013 21.153435 28.324219 21.138672 C 28.309171 21.122569 28.295466 21.106767 28.279297 21.091797 C 28.263996 21.075385 28.248885 21.060161 28.232422 21.044922 C 28.216776 21.02814 28.200454 21.013602 28.183594 20.998047 C 28.167585 20.980814 28.152052 20.965162 28.134766 20.949219 C 28.118757 20.931986 28.103223 20.916334 28.085938 20.900391 C 28.069929 20.883158 28.054395 20.867506 28.037109 20.851562 C 28.020538 20.833617 28.004279 20.817338 27.986328 20.800781 C 27.969757 20.782836 27.953497 20.766557 27.935547 20.75 C 27.91836 20.731389 27.90148 20.714381 27.882812 20.697266 C 27.865626 20.678655 27.848746 20.661647 27.830078 20.644531 C 27.812523 20.625521 27.79449 20.609246 27.775391 20.591797 C 27.75689 20.571691 27.738972 20.553521 27.71875 20.535156 C 27.702733 20.517908 27.687219 20.502286 27.669922 20.486328 C 27.650323 20.464773 27.630936 20.445361 27.609375 20.425781 C 27.592179 20.407152 27.575321 20.390179 27.556641 20.373047 C 27.537651 20.352163 27.51888 20.333486 27.498047 20.314453 C 27.478995 20.293625 27.460344 20.274832 27.439453 20.255859 C 27.420401 20.235031 27.401751 20.216238 27.380859 20.197266 C 27.361227 20.175803 27.341896 20.156209 27.320312 20.136719 C 27.301261 20.11589 27.28261 20.097097 27.261719 20.078125 C 27.24212 20.05657 27.222732 20.037158 27.201172 20.017578 C 27.180994 19.995387 27.160926 19.975174 27.138672 19.955078 C 27.118463 19.932853 27.098464 19.912702 27.076172 19.892578 C 27.054988 19.86928 27.033234 19.849109 27.009766 19.828125 C 26.989729 19.806211 26.969333 19.787434 26.947266 19.767578 C 26.927372 19.745621 26.908643 19.724994 26.886719 19.705078 C 26.864751 19.68054 26.842837 19.658736 26.818359 19.636719 C 26.796281 19.612351 26.774568 19.590203 26.75 19.568359 C 26.729822 19.546168 26.709754 19.525955 26.6875 19.505859 C 26.664323 19.479971 26.641198 19.45667 26.615234 19.433594 C 26.594652 19.410947 26.573524 19.391558 26.550781 19.371094 C 26.527893 19.345437 26.50609 19.321737 26.480469 19.298828 C 26.458218 19.274123 26.43691 19.250645 26.412109 19.228516 C 26.388679 19.202438 26.364152 19.17946 26.337891 19.15625 C 26.316521 19.132595 26.2952 19.111132 26.271484 19.089844 C 26.247817 19.06325 26.223861 19.039271 26.197266 19.015625 C 26.173764 18.989374 26.149411 18.966717 26.123047 18.943359 C 26.09859 18.915944 26.074442 18.891456 26.046875 18.867188 C 26.024823 18.842691 26.003075 18.820795 25.978516 18.798828 C 25.953983 18.770996 25.930063 18.74534 25.902344 18.720703 C 25.878075 18.693434 25.853515 18.668698 25.826172 18.644531 C 25.801545 18.616858 25.775838 18.592835 25.748047 18.568359 C 25.723672 18.540872 25.699368 18.516535 25.671875 18.492188 C 25.646399 18.463458 25.620672 18.437402 25.591797 18.412109 C 25.567722 18.385041 25.54273 18.361905 25.515625 18.337891 C 25.489828 18.30852 25.464877 18.281679 25.435547 18.255859 C 25.410055 18.22694 25.384393 18.201244 25.355469 18.175781 C 25.329378 18.146182 25.303121 18.119724 25.273438 18.09375 C 25.247346 18.06415 25.221089 18.037693 25.191406 18.011719 C 25.165315 17.982119 25.139058 17.955662 25.109375 17.929688 C 25.082967 17.899729 25.055475 17.873899 25.025391 17.847656 C 24.998995 17.817604 24.973449 17.790002 24.943359 17.763672 C 24.916401 17.732905 24.888243 17.706561 24.857422 17.679688 C 24.829566 17.647782 24.801526 17.619526 24.769531 17.591797 C 24.743429 17.562166 24.717201 17.535766 24.6875 17.509766 C 24.65855 17.476408 24.629153 17.446786 24.595703 17.417969 C 24.568697 17.387332 24.540612 17.360731 24.509766 17.333984 C 24.482494 17.302728 24.455075 17.275303 24.423828 17.248047 C 24.395177 17.214914 24.36707 17.184925 24.333984 17.15625 C 24.305629 17.123577 24.276818 17.094728 24.244141 17.066406 C 24.214835 17.032638 24.184304 17.003721 24.150391 16.974609 C 24.121929 16.941989 24.093327 16.913019 24.060547 16.884766 C 24.032179 16.852055 24.003402 16.823274 23.970703 16.794922 C 23.940377 16.759641 23.910322 16.727513 23.875 16.697266 C 23.84669 16.66474 23.817756 16.63562 23.785156 16.607422 C 23.755224 16.572515 23.724273 16.541716 23.689453 16.511719 C 23.659655 16.477177 23.62835 16.447669 23.59375 16.417969 C 23.56366 16.382963 23.533056 16.352318 23.498047 16.322266 C 23.467415 16.286628 23.436116 16.255107 23.400391 16.224609 C 23.36971 16.188916 23.338524 16.15749 23.302734 16.126953 C 23.272054 16.09126 23.240868 16.059834 23.205078 16.029297 C 23.174208 15.993383 23.143462 15.960379 23.107422 15.929688 C 23.076546 15.89368 23.043879 15.862805 23.007812 15.832031 C 22.975707 15.794454 22.942031 15.762357 22.904297 15.730469 C 22.873017 15.694051 22.841277 15.661908 22.804688 15.630859 C 22.773572 15.594441 22.741492 15.562335 22.705078 15.53125 C 22.671629 15.491722 22.637287 15.457117 22.597656 15.423828 C 22.566082 15.387095 22.533068 15.355481 22.496094 15.324219 C 22.464455 15.287055 22.433624 15.252331 22.396484 15.220703 C 22.363432 15.181549 22.328179 15.14829 22.289062 15.115234 C 22.256199 15.076399 22.222431 15.042586 22.183594 15.009766 C 22.149559 14.969546 22.114646 14.934144 22.074219 14.900391 C 22.042515 14.863285 22.009853 14.830391 21.972656 14.798828 C 21.938558 14.758289 21.903854 14.721515 21.863281 14.6875 C 21.829643 14.647653 21.793816 14.613601 21.753906 14.580078 C 21.719341 14.539231 21.683729 14.50292 21.642578 14.46875 C 21.609812 14.430168 21.575784 14.395901 21.537109 14.363281 C 21.502149 14.321466 21.465644 14.284912 21.423828 14.25 C 21.389328 14.208984 21.353621 14.173005 21.3125 14.138672 C 21.277416 14.096962 21.241142 14.060181 21.199219 14.025391 C 21.164986 13.984806 21.128619 13.950039 21.087891 13.916016 C 21.053265 13.874565 21.017927 13.837414 20.976562 13.802734 C 20.940799 13.759699 20.902367 13.723265 20.859375 13.6875 C 20.823794 13.644789 20.786852 13.607797 20.744141 13.572266 C 20.70856 13.529554 20.671618 13.492563 20.628906 13.457031 C 20.592802 13.413691 20.555157 13.375783 20.511719 13.339844 C 20.474977 13.295739 20.436905 13.257134 20.392578 13.220703 C 20.357325 13.178538 20.319564 13.142564 20.277344 13.107422 C 20.240466 13.062723 20.202834 13.023232 20.158203 12.986328 C 20.120666 12.940995 20.08067 12.902505 20.035156 12.865234 C 19.999398 12.822309 19.96288 12.783717 19.919922 12.748047 C 19.881427 12.701274 19.839913 12.66128 19.792969 12.623047 C 19.756864 12.579707 19.71922 12.541799 19.675781 12.505859 C 19.637885 12.459647 19.598876 12.418782 19.552734 12.380859 C 19.515101 12.335133 19.475412 12.295392 19.429688 12.257812 C 19.391536 12.211457 19.351145 12.170786 19.304688 12.132812 C 19.266708 12.086666 19.225901 12.047609 19.179688 12.009766 C 19.141446 11.963132 19.101319 11.922951 19.054688 11.884766 C 19.015932 11.837505 18.975097 11.796387 18.927734 11.757812 C 18.888979 11.710552 18.848144 11.669434 18.800781 11.630859 C 18.761794 11.583317 18.721521 11.540702 18.673828 11.501953 C 18.634836 11.454288 18.592655 11.413851 18.544922 11.375 C 18.505672 11.326845 18.464167 11.285285 18.416016 11.246094 C 18.376254 11.197312 18.334042 11.154809 18.285156 11.115234 C 18.245333 11.066376 18.203273 11.023995 18.154297 10.984375 C 18.1139 10.934813 18.071287 10.891607 18.021484 10.851562 C 17.981569 10.802721 17.937742 10.762236 17.888672 10.722656 C 17.848996 10.673802 17.80858 10.629503 17.759766 10.589844 C 17.719093 10.539332 17.675382 10.495837 17.625 10.455078 C 17.584242 10.404768 17.54065 10.360878 17.490234 10.320312 C 17.449136 10.269582 17.404426 10.226362 17.353516 10.185547 C 17.311531 10.133534 17.267106 10.088489 17.214844 10.046875 C 17.174511 9.9973912 17.131742 9.9540605 17.082031 9.9140625 C 17.041009 9.8630634 16.99622 9.8203584 16.945312 9.7792969 C 16.903235 9.7266587 16.859195 9.6807753 16.806641 9.6386719 C 16.76481 9.5865323 16.720102 9.5417658 16.667969 9.5 C 16.625636 9.4472351 16.580216 9.4015048 16.527344 9.359375 C 16.484945 9.3065276 16.439689 9.2609276 16.386719 9.21875 C 16.343752 9.1651947 16.29795 9.1187567 16.244141 9.0761719 C 16.202623 9.0246106 16.157085 8.9808339 16.105469 8.9394531 C 16.061356 8.883931 16.01467 8.8348484 15.958984 8.7910156 C 15.917238 8.73917 15.872265 8.6938914 15.820312 8.6523438 C 15.77676 8.5973912 15.728718 8.5513595 15.673828 8.5078125 C 15.630438 8.4531998 15.583901 8.4066014 15.529297 8.3632812 C 15.485412 8.308045 15.438157 8.2604693 15.382812 8.2167969 C 15.339196 8.1618994 15.293224 8.113794 15.238281 8.0703125 C 15.193601 8.0139373 15.144474 7.9662181 15.087891 7.921875 C 15.044738 7.8676995 14.997566 7.8223334 14.943359 7.7792969 C 14.776564 7.5672967 14.529634 7.421875 14.240234 7.421875 L 13.783203 7.421875 L 13.695312 7.3320312 L 13.556641 7.1914062 L 13.554688 7.1933594 L 13.416016 7.0507812 L 13.414062 7.0527344 L 13.273438 6.9101562 L 13.271484 6.9121094 L 12.988281 6.625 L 12.986328 6.6269531 L 12.845703 6.4804688 L 12.84375 6.4824219 L 12.701172 6.3359375 L 12.699219 6.3378906 L 12.554688 6.1914062 L 12.410156 6.0449219 L 12.408203 6.046875 L 12.261719 5.8984375 L 12.259766 5.9003906 L 11.966797 5.6035156 L 10.148438 7.421875 L 9.9199219 7.1914062 L 9.7792969 7.0507812 L 9.7773438 7.0507812 L 9.6367188 6.9101562 L 9.4941406 6.7675781 L 9.3515625 6.625 L 9.2089844 6.4804688 L 9.2070312 6.4804688 L 9.0644531 6.3378906 L 9.0644531 6.3359375 L 8.9179688 6.1914062 L 8.7734375 6.0449219 L 8.6269531 5.8984375 L 8.625 5.8984375 L 8.4785156 5.7519531 L 8.3300781 5.6035156 z "
       transform="translate(-1058.1428,861.93365)"
       id="path10451"
       clip-path="url(#clipPath11390)" />
    <rect
       style="opacity:1;fill:#9e9e9e;fill-opacity:1;stroke:none;stroke-width:1.25;stroke-linecap:round;stroke-linejoin:round;stroke-miterlimit:4;stroke-dasharray:none;stroke-opacity:1"
       id="rect11394"
       width="8.901969"
       height="6.250319"
       x="-1052.5238"
       y="869.74866" />
    <path
       id="path10346"
       d="m -1044.0519,869.20638 -3.45,0 1.4955,-1.49545 -0.3182,-0.32273 -1.8182,1.81818 -1.8182,-1.81818 -0.3227,0.32273 1.5,1.49545 -3.45,0 c -0.5,0 -0.9091,0.40455 -0.9091,0.90909 l 0,5.45455 c 0,0.5 0.4091,0.90909 0.9091,0.90909 l 8.1818,0 c 0.5,0 0.9091,-0.40909 0.9091,-0.90909 l 0,-5.45455 c 0,-0.50454 -0.4091,-0.90909 -0.9091,-0.90909 z m 0,6.36364 -8.1818,0 0,-5.45455 8.1818,0 0,5.45455 z m -5.4545,-4.54546 0,3.63637 3.1818,-1.81818 z"
       inkscape:connector-curvature="0"
       style="fill:#fafafa" />
  </g>
  <g
     inkscape:label="Icon"
     id="layer2"
     inkscape:groupmode="layer"
     style="display:inline">
    <path
       style="fill:none"
       inkscape:connector-curvature="0"
       id="path4"
       d="m 3.9999777,4.0333382 12.0000003,0 0,11.9333328 -12.0000003,0 z" />
    <path
       d="m 18.999978,19.033339 12,0 0,11.933333 -12,0 z"
       id="path9754"
       inkscape:connector-curvature="0"
       style="fill:none" />
    <g
       transform="matrix(0.03184582,0,0,0.03184582,4.9999993,4.9999873)"
       id="g4860" />
    <g
       transform="matrix(0.03184582,0,0,0.03184582,4.9999993,4.9999873)"
       id="g4862" />
    <g
       transform="matrix(0.03184582,0,0,0.03184582,4.9999993,4.9999873)"
       id="g4864" />
    <g
       transform="matrix(0.03184582,0,0,0.03184582,4.9999993,4.9999873)"
       id="g4866" />
    <g
       transform="matrix(0.03184582,0,0,0.03184582,4.9999993,4.9999873)"
       id="g4868" />
    <g
       transform="matrix(0.03184582,0,0,0.03184582,4.9999993,4.9999873)"
       id="g4870" />
    <g
       transform="matrix(0.03184582,0,0,0.03184582,4.9999993,4.9999873)"
       id="g4872" />
    <g
       transform="matrix(0.03184582,0,0,0.03184582,4.9999993,4.9999873)"
       id="g4874" />
    <g
       transform="matrix(0.03184582,0,0,0.03184582,4.9999993,4.9999873)"
       id="g4876" />
    <g
       transform="matrix(0.03184582,0,0,0.03184582,4.9999993,4.9999873)"
       id="g4878" />
    <g
       transform="matrix(0.03184582,0,0,0.03184582,4.9999993,4.9999873)"
       id="g4880" />
    <g
       transform="matrix(0.03184582,0,0,0.03184582,4.9999993,4.9999873)"
       id="g4882" />
    <g
       transform="matrix(0.03184582,0,0,0.03184582,4.9999993,4.9999873)"
       id="g4884" />
    <g
       transform="matrix(0.03184582,0,0,0.03184582,4.9999993,4.9999873)"
       id="g4886" />
    <g
       transform="matrix(0.03184582,0,0,0.03184582,4.9999993,4.9999873)"
       id="g4888" />
    <path
       style="fill:none"
       inkscape:connector-curvature="0"
       d="M 4.5000001,4.5000001 15.5,4.5000001 15.5,15.5 4.5000001,15.5 Z"
       id="path6048" />
    <path
       id="path6064"
       d="m 19.5,19.5 11,0 0,11 -11,0 z"
       inkscape:connector-curvature="0"
       style="fill:none" />
    <path
       id="path7985"
       d="m 5.6339285,-4.0982141 23.9999995,0 0,24.0000001 -23.9999995,0 z"
       inkscape:connector-curvature="0"
       style="fill:none" />
  </g>
</svg>
