<?xml version="1.0" encoding="UTF-8" standalone="no"?>
<!-- Created with Inkscape (http://www.inkscape.org/) -->

<svg
   xmlns:dc="http://purl.org/dc/elements/1.1/"
   xmlns:cc="http://creativecommons.org/ns#"
   xmlns:rdf="http://www.w3.org/1999/02/22-rdf-syntax-ns#"
   xmlns:svg="http://www.w3.org/2000/svg"
   xmlns="http://www.w3.org/2000/svg"
   xmlns:xlink="http://www.w3.org/1999/xlink"
   xmlns:sodipodi="http://sodipodi.sourceforge.net/DTD/sodipodi-0.dtd"
   xmlns:inkscape="http://www.inkscape.org/namespaces/inkscape"
   inkscape:export-ydpi="648"
   inkscape:export-xdpi="648"
   inkscape:export-filename="/home/juergen/Projekte/Android/Android_Studio/Baumann_Theme/theme/src/main/assets/icons/res/drawable-xxhdpi/a106.png"
   sodipodi:docname="Clash2.svg"
   inkscape:version="0.91 r13725"
   version="1.1"
   id="svg2"
   viewBox="0 0 20 20"
   height="5.6444445mm"
   width="5.6444445mm">
  <sodipodi:namedview
     inkscape:snap-page="false"
     inkscape:snap-to-guides="false"
     inkscape:snap-grids="false"
     inkscape:window-maximized="1"
     inkscape:window-y="24"
     inkscape:window-x="0"
     inkscape:window-height="744"
     inkscape:window-width="1366"
     inkscape:guide-bbox="true"
     showguides="true"
     fit-margin-bottom="0"
     fit-margin-right="0"
     fit-margin-left="0"
     fit-margin-top="0"
     showgrid="false"
     inkscape:current-layer="layer2"
     inkscape:document-units="px"
     inkscape:cy="8.3032667"
     inkscape:cx="9.0145416"
     inkscape:zoom="63.356768"
     inkscape:pageshadow="2"
     inkscape:pageopacity="0.0"
     borderopacity="1.0"
     bordercolor="#666666"
     pagecolor="#ffffff"
     id="base">
    <inkscape:grid
       id="grid4138"
       type="xygrid" />
    <sodipodi:guide
       id="guide4140"
       orientation="0,1"
       position="10,18" />
    <sodipodi:guide
       id="guide4142"
       orientation="0,1"
       position="10,2" />
    <sodipodi:guide
       id="guide4144"
       orientation="1,0"
       position="2,10" />
    <sodipodi:guide
       id="guide4146"
       orientation="0,20"
       position="0,0" />
    <sodipodi:guide
       id="guide4148"
       orientation="-20,0"
       position="20,0" />
    <sodipodi:guide
       id="guide4150"
       orientation="0,-20"
       position="20,20" />
    <sodipodi:guide
       id="guide4152"
       orientation="20,0"
       position="0,20" />
    <sodipodi:guide
       id="guide4154"
       orientation="1,0"
       position="18,10" />
    <sodipodi:guide
       id="guide4156"
       orientation="-0.70710678,0.70710678"
       position="10,10" />
    <sodipodi:guide
       id="guide4160"
       orientation="1,0"
       position="4,10" />
    <sodipodi:guide
       id="guide4162"
       orientation="1,0"
       position="16,10" />
    <sodipodi:guide
       id="guide4164"
       orientation="0,1"
       position="10,16" />
    <sodipodi:guide
       id="guide4166"
       orientation="0,1"
       position="10,4" />
    <sodipodi:guide
       id="guide4168"
       orientation="0,1"
       position="10,15" />
    <sodipodi:guide
       id="guide4170"
       orientation="0,1"
       position="10,5" />
    <sodipodi:guide
       id="guide4172"
       orientation="1,0"
       position="5,10" />
    <sodipodi:guide
       id="guide4174"
       orientation="1,0"
       position="15,10" />
  </sodipodi:namedview>
  <defs
     id="defs4">
    <linearGradient
       inkscape:collect="always"
       id="linearGradient5502">
      <stop
         style="stop-color:#000000;stop-opacity:0.2"
         offset="0"
         id="stop5504" />
      <stop
         style="stop-color:#000000;stop-opacity:0;"
         offset="1"
         id="stop5506" />
    </linearGradient>
    <clipPath
       clipPathUnits="userSpaceOnUse"
       id="clipPath12478">
      <circle
         style="opacity:1;fill:#2196f3;fill-opacity:1;stroke:none;stroke-width:0.05069799;stroke-miterlimit:4;stroke-dasharray:none;stroke-opacity:1"
         id="circle12480"
         cx="9.9999781"
         cy="10.000005"
         r="10" />
    </clipPath>
    <clipPath
       id="clipPath5790"
       clipPathUnits="userSpaceOnUse">
      <circle
         inkscape:export-ydpi="648"
         inkscape:export-xdpi="648"
         inkscape:export-filename="/home/juergen/path4136.png"
         style="opacity:1;fill:#2196f3;fill-opacity:1;stroke:none;stroke-width:0.05069799;stroke-miterlimit:4;stroke-dasharray:none;stroke-opacity:1"
         id="circle5792"
         cx="9.9999781"
         cy="10.000005"
         r="10" />
    </clipPath>
    <clipPath
       clipPathUnits="userSpaceOnUse"
       id="clipPath5055">
      <circle
         inkscape:export-ydpi="648"
         inkscape:export-xdpi="648"
         inkscape:export-filename="/home/juergen/path4136.png"
         style="opacity:1;fill:#2196f3;fill-opacity:1;stroke:none;stroke-width:0.05069799;stroke-miterlimit:4;stroke-dasharray:none;stroke-opacity:1"
         id="circle5057"
         cx="9.9999781"
         cy="10.000005"
         r="10" />
    </clipPath>
    <clipPath
       id="clipPath5119"
       clipPathUnits="userSpaceOnUse">
      <circle
         inkscape:export-ydpi="648"
         inkscape:export-xdpi="648"
         inkscape:export-filename="/home/juergen/Schreibtisch/path4136.png"
         style="opacity:1;fill:#2196f3;fill-opacity:1;stroke:none;stroke-width:0.05069799;stroke-miterlimit:4;stroke-dasharray:none;stroke-opacity:1"
         id="circle5121"
         cx="9.9999781"
         cy="10.000005"
         r="10" />
    </clipPath>
    <clipPath
       clipPathUnits="userSpaceOnUse"
       id="clipPath5194">
      <circle
         inkscape:export-ydpi="648"
         inkscape:export-xdpi="648"
         inkscape:export-filename="/home/juergen/Schreibtisch/path4136.png"
         style="opacity:1;fill:#cddc39;fill-opacity:1;stroke:none;stroke-width:0.05069799;stroke-miterlimit:4;stroke-dasharray:none;stroke-opacity:1"
         id="circle5196"
         cx="9.9999781"
         cy="10.000005"
         r="10" />
    </clipPath>
    <clipPath
       id="clipPath6175"
       clipPathUnits="userSpaceOnUse">
      <circle
         inkscape:export-ydpi="648"
         inkscape:export-xdpi="648"
         inkscape:export-filename="/home/juergen/Schreibtisch/path4136.png"
         style="opacity:1;fill:#f44336;fill-opacity:1;stroke:none;stroke-width:0.05069799;stroke-miterlimit:4;stroke-dasharray:none;stroke-opacity:1"
         id="circle6177"
         cx="9.9999781"
         cy="10.000005"
         r="10" />
    </clipPath>
    <clipPath
       clipPathUnits="userSpaceOnUse"
       id="clipPath7176">
      <circle
         inkscape:export-ydpi="648"
         inkscape:export-xdpi="648"
         inkscape:export-filename="/home/juergen/Schreibtisch/path4136.png"
         style="opacity:1;fill:#9c27b0;fill-opacity:1;stroke:none;stroke-width:0.05069799;stroke-miterlimit:4;stroke-dasharray:none;stroke-opacity:1"
         id="circle7178"
         cx="9.9999781"
         cy="10.000005"
         r="10" />
    </clipPath>
    <clipPath
       id="clipPath8165"
       clipPathUnits="userSpaceOnUse">
      <circle
         inkscape:export-ydpi="648"
         inkscape:export-xdpi="648"
         inkscape:export-filename="/home/juergen/Schreibtisch/path4136.png"
         style="opacity:1;fill:#ffc107;fill-opacity:1;stroke:none;stroke-width:0.05069799;stroke-miterlimit:4;stroke-dasharray:none;stroke-opacity:1"
         id="circle8167"
         cx="9.9999781"
         cy="10.000005"
         r="10" />
    </clipPath>
    <clipPath
       clipPathUnits="userSpaceOnUse"
       id="clipPath9162">
      <circle
         inkscape:export-ydpi="648"
         inkscape:export-xdpi="648"
         inkscape:export-filename="/home/juergen/Schreibtisch/path4136.png"
         style="opacity:1;fill:#ff9800;fill-opacity:1;stroke:none;stroke-width:0.05069799;stroke-miterlimit:4;stroke-dasharray:none;stroke-opacity:1"
         id="circle9164"
         cx="9.9999781"
         cy="10.000005"
         r="10" />
    </clipPath>
    <clipPath
       id="clipPath5147"
       clipPathUnits="userSpaceOnUse">
      <circle
         inkscape:export-ydpi="648"
         inkscape:export-xdpi="648"
         inkscape:export-filename="/home/juergen/Schreibtisch/path4136.png"
         style="opacity:1;fill:#ff9800;fill-opacity:1;stroke:none;stroke-width:0.05069799;stroke-miterlimit:4;stroke-dasharray:none;stroke-opacity:1"
         id="circle5149"
         cx="9.9999781"
         cy="10.000005"
         r="10" />
    </clipPath>
    <clipPath
       clipPathUnits="userSpaceOnUse"
       id="clipPath6144">
      <circle
         inkscape:export-ydpi="648"
         inkscape:export-xdpi="648"
         inkscape:export-filename="/home/juergen/Schreibtisch/path4136.png"
         style="opacity:1;fill:#e91e63;fill-opacity:1;stroke:none;stroke-width:0.05069799;stroke-miterlimit:4;stroke-dasharray:none;stroke-opacity:1"
         id="circle6146"
         cx="9.9999781"
         cy="10.000005"
         r="10" />
    </clipPath>
    <clipPath
       id="clipPath7143"
       clipPathUnits="userSpaceOnUse">
      <circle
         inkscape:export-ydpi="648"
         inkscape:export-xdpi="648"
         inkscape:export-filename="/home/juergen/Schreibtisch/path4136.png"
         style="opacity:1;fill:#ffeb3b;fill-opacity:1;stroke:none;stroke-width:0.05069799;stroke-miterlimit:4;stroke-dasharray:none;stroke-opacity:1"
         id="circle7145"
         cx="9.9999781"
         cy="10.000005"
         r="10" />
    </clipPath>
    <clipPath
       clipPathUnits="userSpaceOnUse"
       id="clipPath8148">
      <circle
         inkscape:export-ydpi="648"
         inkscape:export-xdpi="648"
         inkscape:export-filename="/home/juergen/Schreibtisch/path4136.png"
         style="opacity:1;fill:#9c27b0;fill-opacity:1;stroke:none;stroke-width:0.05069799;stroke-miterlimit:4;stroke-dasharray:none;stroke-opacity:1"
         id="circle8150"
         cx="9.9999781"
         cy="10.000005"
         r="10" />
    </clipPath>
    <clipPath
       id="clipPath5171"
       clipPathUnits="userSpaceOnUse">
      <circle
         inkscape:export-ydpi="648"
         inkscape:export-xdpi="648"
         inkscape:export-filename="/home/juergen/Schreibtisch/path4136.png"
         style="opacity:1;fill:#f44336;fill-opacity:1;stroke:none;stroke-width:0.05069799;stroke-miterlimit:4;stroke-dasharray:none;stroke-opacity:1"
         id="circle5173"
         cx="9.9999781"
         cy="10.000005"
         r="10" />
    </clipPath>
    <clipPath
       clipPathUnits="userSpaceOnUse"
       id="clipPath6181">
      <circle
         inkscape:export-ydpi="648"
         inkscape:export-xdpi="648"
         inkscape:export-filename="/home/juergen/Schreibtisch/path4136.png"
         style="opacity:1;fill:#2196f3;fill-opacity:1;stroke:none;stroke-width:0.05069799;stroke-miterlimit:4;stroke-dasharray:none;stroke-opacity:1"
         id="circle6183"
         cx="9.9999781"
         cy="10.000005"
         r="10" />
    </clipPath>
    <clipPath
       id="clipPath7195"
       clipPathUnits="userSpaceOnUse">
      <circle
         inkscape:export-ydpi="648"
         inkscape:export-xdpi="648"
         inkscape:export-filename="/home/juergen/Schreibtisch/path4136.png"
         style="opacity:1;fill:#795548;fill-opacity:1;stroke:none;stroke-width:0.05069799;stroke-miterlimit:4;stroke-dasharray:none;stroke-opacity:1"
         id="circle7197"
         cx="9.9999781"
         cy="10.000005"
         r="10" />
    </clipPath>
    <clipPath
       clipPathUnits="userSpaceOnUse"
       id="clipPath8213">
      <circle
         inkscape:export-ydpi="648"
         inkscape:export-xdpi="648"
         inkscape:export-filename="/home/juergen/Schreibtisch/path4136.png"
         style="opacity:1;fill:#f44336;fill-opacity:1;stroke:none;stroke-width:0.05069799;stroke-miterlimit:4;stroke-dasharray:none;stroke-opacity:1"
         id="circle8215"
         cx="9.9999781"
         cy="10.000005"
         r="10" />
    </clipPath>
    <clipPath
       id="clipPath9235"
       clipPathUnits="userSpaceOnUse">
      <circle
         inkscape:export-ydpi="648"
         inkscape:export-xdpi="648"
         inkscape:export-filename="/home/juergen/Schreibtisch/path4136.png"
         style="opacity:1;fill:#f44336;fill-opacity:1;stroke:none;stroke-width:0.05069799;stroke-miterlimit:4;stroke-dasharray:none;stroke-opacity:1"
         id="circle9237"
         cx="9.9999781"
         cy="10.000005"
         r="10" />
    </clipPath>
    <clipPath
       clipPathUnits="userSpaceOnUse"
       id="clipPath5965">
      <circle
         inkscape:export-ydpi="648"
         inkscape:export-xdpi="648"
         inkscape:export-filename="/home/juergen/Schreibtisch/path4136.png"
         style="opacity:1;fill:#009688;fill-opacity:1;stroke:none;stroke-width:0.05069799;stroke-miterlimit:4;stroke-dasharray:none;stroke-opacity:1"
         id="circle5967"
         cx="9.9999781"
         cy="10.000005"
         r="10" />
    </clipPath>
    <clipPath
       id="clipPath7910"
       clipPathUnits="userSpaceOnUse">
      <circle
         inkscape:export-ydpi="648"
         inkscape:export-xdpi="648"
         inkscape:export-filename="/home/juergen/Schreibtisch/path4136.png"
         style="opacity:1;fill:#ffeb3b;fill-opacity:1;stroke:none;stroke-width:0.05069799;stroke-miterlimit:4;stroke-dasharray:none;stroke-opacity:1"
         id="circle7912"
         cx="9.9999781"
         cy="10.000005"
         r="10" />
    </clipPath>
    <clipPath
       clipPathUnits="userSpaceOnUse"
       id="clipPath8990">
      <circle
         inkscape:export-ydpi="648"
         inkscape:export-xdpi="648"
         inkscape:export-filename="/home/juergen/Schreibtisch/path4136.png"
         style="opacity:1;fill:#ffc107;fill-opacity:1;stroke:none;stroke-width:0.05069799;stroke-miterlimit:4;stroke-dasharray:none;stroke-opacity:1"
         id="circle8992"
         cx="9.9999781"
         cy="10.000005"
         r="10" />
    </clipPath>
    <clipPath
       id="clipPath10267"
       clipPathUnits="userSpaceOnUse">
      <circle
         inkscape:export-ydpi="648"
         inkscape:export-xdpi="648"
         inkscape:export-filename="/home/juergen/Schreibtisch/path4136.png"
         style="opacity:1;fill:#80cbc4;fill-opacity:1;stroke:none;stroke-width:0.05069799;stroke-miterlimit:4;stroke-dasharray:none;stroke-opacity:1"
         id="circle10269"
         cx="9.9999781"
         cy="10.000005"
         r="10" />
    </clipPath>
    <clipPath
       clipPathUnits="userSpaceOnUse"
       id="clipPath11390">
      <circle
         inkscape:export-ydpi="648"
         inkscape:export-xdpi="648"
         inkscape:export-filename="/home/juergen/Schreibtisch/path4136.png"
         style="opacity:1;fill:#3f51b5;fill-opacity:1;stroke:none;stroke-width:0.05069799;stroke-miterlimit:4;stroke-dasharray:none;stroke-opacity:1"
         id="circle11392"
         cx="9.9999781"
         cy="10.000005"
         r="10" />
    </clipPath>
    <clipPath
       id="clipPath12508"
       clipPathUnits="userSpaceOnUse">
      <circle
         inkscape:export-ydpi="648"
         inkscape:export-xdpi="648"
         inkscape:export-filename="/home/juergen/Schreibtisch/path4136.png"
         style="opacity:1;fill:#2196f3;fill-opacity:1;stroke:none;stroke-width:0.05069799;stroke-miterlimit:4;stroke-dasharray:none;stroke-opacity:1"
         id="circle12510"
         cx="9.9999781"
         cy="10.000005"
         r="10" />
    </clipPath>
    <linearGradient
       inkscape:collect="always"
       xlink:href="#linearGradient5502"
       id="linearGradient5508"
       x1="10"
       y1="10"
       x2="20"
       y2="20"
       gradientUnits="userSpaceOnUse" />
    <clipPath
       clipPathUnits="userSpaceOnUse"
       id="clipPath5513">
      <circle
         inkscape:export-ydpi="648"
         inkscape:export-xdpi="648"
         inkscape:export-filename="/home/juergen/Schreibtisch/path4136.png"
         style="opacity:1;fill:#cddc39;fill-opacity:1;stroke:none;stroke-width:0.05069799;stroke-miterlimit:4;stroke-dasharray:none;stroke-opacity:1"
         id="circle5515"
         cx="9.9999781"
         cy="10.000005"
         r="10" />
    </clipPath>
  </defs>
  <metadata
     id="metadata7">
    <rdf:RDF>
      <cc:Work
         rdf:about="">
        <dc:format>image/svg+xml</dc:format>
        <dc:type
           rdf:resource="http://purl.org/dc/dcmitype/StillImage" />
        <dc:title></dc:title>
      </cc:Work>
    </rdf:RDF>
  </metadata>
  <g
     transform="translate(1058.1428,-861.93365)"
     id="layer1"
     inkscape:groupmode="layer"
     inkscape:label="Hintergrund">
    <circle
       r="10"
       cy="871.93365"
       cx="-1048.1428"
       id="path4136"
       style="opacity:1;fill:#cddc39;fill-opacity:1;stroke:none;stroke-width:0.05069799;stroke-miterlimit:4;stroke-dasharray:none;stroke-opacity:1"
       inkscape:export-filename="/home/juergen/Schreibtisch/path4136.png"
       inkscape:export-xdpi="648"
       inkscape:export-ydpi="648" />
    <g
       id="g9099"
       transform="matrix(0.01119865,0,0,0.01119865,-1053.404,867.49955)" />
    <g
       id="g9101"
       transform="matrix(0.01119865,0,0,0.01119865,-1053.404,867.49955)" />
    <g
       id="g9103"
       transform="matrix(0.01119865,0,0,0.01119865,-1053.404,867.49955)" />
    <g
       id="g9105"
       transform="matrix(0.01119865,0,0,0.01119865,-1053.404,867.49955)" />
    <g
       id="g9107"
       transform="matrix(0.01119865,0,0,0.01119865,-1053.404,867.49955)" />
    <g
       id="g9109"
       transform="matrix(0.01119865,0,0,0.01119865,-1053.404,867.49955)" />
    <g
       id="g9111"
       transform="matrix(0.01119865,0,0,0.01119865,-1053.404,867.49955)" />
    <g
       id="g9113"
       transform="matrix(0.01119865,0,0,0.01119865,-1053.404,867.49955)" />
    <g
       id="g9115"
       transform="matrix(0.01119865,0,0,0.01119865,-1053.404,867.49955)" />
    <g
       id="g9117"
       transform="matrix(0.01119865,0,0,0.01119865,-1053.404,867.49955)" />
    <g
       id="g9119"
       transform="matrix(0.01119865,0,0,0.01119865,-1053.404,867.49955)" />
    <g
       id="g9121"
       transform="matrix(0.01119865,0,0,0.01119865,-1053.404,867.49955)" />
    <g
       id="g9123"
       transform="matrix(0.01119865,0,0,0.01119865,-1053.404,867.49955)" />
    <g
       id="g9125"
       transform="matrix(0.01119865,0,0,0.01119865,-1053.404,867.49955)" />
    <g
       id="g9127"
       transform="matrix(0.01119865,0,0,0.01119865,-1053.404,867.49955)" />
    <path
       style="fill:none"
       inkscape:connector-curvature="0"
       d="m -1055.5892,857.16579 24,0 0,24 -24,0 z"
       id="path9227" />
    <path
       id="path10344"
       d="m -1056.6951,862.86258 24,0 0,24 -24,0 0,-24 z"
       inkscape:connector-curvature="0"
       style="fill:none" />
    <g
       transform="matrix(0.01686508,0,0,0.01686508,-1053.1428,866.93365)"
       id="g4330" />
    <g
       transform="matrix(0.01686508,0,0,0.01686508,-1053.1428,866.93365)"
       id="g4332" />
    <g
       transform="matrix(0.01686508,0,0,0.01686508,-1053.1428,866.93365)"
       id="g4334" />
    <g
       transform="matrix(0.01686508,0,0,0.01686508,-1053.1428,866.93365)"
       id="g4336" />
    <g
       transform="matrix(0.01686508,0,0,0.01686508,-1053.1428,866.93365)"
       id="g4338" />
    <g
       transform="matrix(0.01686508,0,0,0.01686508,-1053.1428,866.93365)"
       id="g4340" />
    <g
       transform="matrix(0.01686508,0,0,0.01686508,-1053.1428,866.93365)"
       id="g4342" />
    <g
       transform="matrix(0.01686508,0,0,0.01686508,-1053.1428,866.93365)"
       id="g4344" />
    <g
       transform="matrix(0.01686508,0,0,0.01686508,-1053.1428,866.93365)"
       id="g4346" />
    <g
       transform="matrix(0.01686508,0,0,0.01686508,-1053.1428,866.93365)"
       id="g4348" />
    <g
       transform="matrix(0.01686508,0,0,0.01686508,-1053.1428,866.93365)"
       id="g4350" />
    <g
       transform="matrix(0.01686508,0,0,0.01686508,-1053.1428,866.93365)"
       id="g4352" />
    <g
       transform="matrix(0.01686508,0,0,0.01686508,-1053.1428,866.93365)"
       id="g4354" />
    <g
       transform="matrix(0.01686508,0,0,0.01686508,-1053.1428,866.93365)"
       id="g4356" />
    <g
       transform="matrix(0.01686508,0,0,0.01686508,-1053.1428,866.93365)"
       id="g4358" />
  </g>
  <g
     inkscape:label="Icon"
     id="layer2"
     inkscape:groupmode="layer"
     style="display:inline">
    <path
       style="fill:none"
       inkscape:connector-curvature="0"
       id="path4"
       d="m 3.9999777,4.0333382 12.0000003,0 0,11.9333328 -12.0000003,0 z" />
    <path
       d="m 18.999978,19.033339 12,0 0,11.933333 -12,0 z"
       id="path9754"
       inkscape:connector-curvature="0"
       style="fill:none" />
    <g
       transform="matrix(0.03184582,0,0,0.03184582,4.9999993,4.9999873)"
       id="g4860" />
    <g
       transform="matrix(0.03184582,0,0,0.03184582,4.9999993,4.9999873)"
       id="g4862" />
    <g
       transform="matrix(0.03184582,0,0,0.03184582,4.9999993,4.9999873)"
       id="g4864" />
    <g
       transform="matrix(0.03184582,0,0,0.03184582,4.9999993,4.9999873)"
       id="g4866" />
    <g
       transform="matrix(0.03184582,0,0,0.03184582,4.9999993,4.9999873)"
       id="g4868" />
    <g
       transform="matrix(0.03184582,0,0,0.03184582,4.9999993,4.9999873)"
       id="g4870" />
    <g
       transform="matrix(0.03184582,0,0,0.03184582,4.9999993,4.9999873)"
       id="g4872" />
    <g
       transform="matrix(0.03184582,0,0,0.03184582,4.9999993,4.9999873)"
       id="g4874" />
    <g
       transform="matrix(0.03184582,0,0,0.03184582,4.9999993,4.9999873)"
       id="g4876" />
    <g
       transform="matrix(0.03184582,0,0,0.03184582,4.9999993,4.9999873)"
       id="g4878" />
    <g
       transform="matrix(0.03184582,0,0,0.03184582,4.9999993,4.9999873)"
       id="g4880" />
    <g
       transform="matrix(0.03184582,0,0,0.03184582,4.9999993,4.9999873)"
       id="g4882" />
    <g
       transform="matrix(0.03184582,0,0,0.03184582,4.9999993,4.9999873)"
       id="g4884" />
    <g
       transform="matrix(0.03184582,0,0,0.03184582,4.9999993,4.9999873)"
       id="g4886" />
    <g
       transform="matrix(0.03184582,0,0,0.03184582,4.9999993,4.9999873)"
       id="g4888" />
    <path
       style="fill:none"
       inkscape:connector-curvature="0"
       d="M 4.5000001,4.5000001 15.5,4.5000001 15.5,15.5 4.5000001,15.5 Z"
       id="path6048" />
    <path
       id="path6064"
       d="m 19.5,19.5 11,0 0,11 -11,0 z"
       inkscape:connector-curvature="0"
       style="fill:none" />
    <path
       id="path7985"
       d="m 5.6339285,-4.0982141 23.9999995,0 0,24.0000001 -23.9999995,0 z"
       inkscape:connector-curvature="0"
       style="fill:none" />
    <path
       d="M 8.7929688 5.0097656 C 8.7541787 4.9929006 8.7100446 4.9986557 8.6796875 5.0273438 C 8.6493305 5.0559978 8.6408049 5.0998824 8.6542969 5.1386719 C 8.6545072 5.1393164 8.6540736 5.1399832 8.6542969 5.140625 L 8.65625 5.1425781 L 8.9511719 5.9414062 L 5.9550781 5.9140625 L 5.953125 5.9140625 C 5.9055084 5.9131595 5.8759942 5.9380304 5.859375 5.9746094 C 5.84251 6.0117294 5.849702 6.05558 5.875 6.0859375 L 5.8769531 6.0878906 L 5.8789062 6.0898438 C 5.8789062 6.0898438 5.8789062 6.0917969 5.8789062 6.0917969 L 6.7011719 7.0351562 L 6.3847656 7.1972656 L 5.4472656 7.6738281 C 5.4084756 7.6940661 5.3875191 7.7351808 5.3925781 7.7773438 C 5.3925781 7.7773438 5.3945312 7.7792969 5.3945312 7.7792969 C 5.3947655 7.7812484 5.3980962 7.7812821 5.3984375 7.7832031 C 5.3984375 7.7832031 5.4003906 7.7851562 5.4003906 7.7851562 C 5.400513 7.7856717 5.4002606 7.7865966 5.4003906 7.7871094 C 5.4006498 7.7890037 5.4039367 7.7891513 5.4042969 7.7910156 C 5.4042969 7.7910156 5.40625 7.7929688 5.40625 7.7929688 C 5.4066893 7.7959142 5.4114271 7.7959593 5.4121094 7.7988281 C 5.4246992 7.8273273 5.4369749 7.85829 5.46875 7.8671875 L 5.4707031 7.8671875 C 5.4707031 7.8671875 5.4726562 7.8691406 5.4726562 7.8691406 C 5.4726562 7.8691406 5.4746094 7.8710938 5.4746094 7.8710938 C 5.4765055 7.8717383 5.4765678 7.8744546 5.4785156 7.875 C 5.4804396 7.8756558 5.4804446 7.8783526 5.4824219 7.8789062 C 5.4824219 7.8789062 5.484375 7.8789062 5.484375 7.8789062 C 5.4867697 7.8797602 5.4858022 7.8840715 5.4882812 7.8847656 C 5.4907019 7.885631 5.4896806 7.889923 5.4921875 7.890625 L 5.4960938 7.890625 C 5.4984834 7.8914768 5.4975264 7.8957917 5.5 7.8964844 C 5.5028433 7.8975422 5.5028947 7.9015136 5.5058594 7.9023438 C 5.5058594 7.9023438 5.5078125 7.9023438 5.5078125 7.9023438 C 5.5111324 7.9036346 5.5101826 7.9091792 5.5136719 7.9101562 L 5.515625 7.9101562 C 5.515625 7.9101562 5.5175781 7.9121094 5.5175781 7.9121094 C 5.5208619 7.913382 5.5199883 7.918956 5.5234375 7.9199219 C 5.5276309 7.921687 5.5267744 7.9284343 5.53125 7.9296875 C 5.53125 7.9296875 5.5332031 7.9296875 5.5332031 7.9296875 C 5.5373965 7.9314526 5.5365401 7.9381999 5.5410156 7.9394531 L 5.5449219 7.9414062 C 5.54861 7.9428894 5.5488335 7.9481264 5.5527344 7.9492188 C 5.5527344 7.9492188 5.5546875 7.9492188 5.5546875 7.9492188 C 5.5596715 7.9514698 5.5590535 7.9594255 5.5644531 7.9609375 C 5.5644531 7.9609375 5.5664062 7.9609375 5.5664062 7.9609375 C 5.5714465 7.9632252 5.5707054 7.9711255 5.5761719 7.9726562 L 5.578125 7.9726562 C 5.5839143 7.9754632 5.5834678 7.9845428 5.5898438 7.9863281 C 5.5898438 7.9863281 5.5917969 7.9863281 5.5917969 7.9863281 C 5.5975867 7.9891354 5.5971391 7.9982145 5.6035156 8 L 5.6054688 8 C 5.6113804 8.0028971 5.6106599 8.011844 5.6171875 8.0136719 L 5.6191406 8.0136719 C 5.6257738 8.0171349 5.6253693 8.0272127 5.6328125 8.0292969 C 5.6328125 8.0292969 5.6347656 8.0292969 5.6347656 8.0292969 C 5.6413992 8.0327603 5.6409937 8.0428375 5.6484375 8.0449219 L 5.6523438 8.0449219 C 5.6593065 8.0486639 5.6581415 8.0602951 5.6660156 8.0625 L 5.6699219 8.0625 C 5.6768847 8.066242 5.6757196 8.0778732 5.6835938 8.0800781 L 5.6875 8.0800781 C 5.6944628 8.0838202 5.6932977 8.0954514 5.7011719 8.0976562 L 5.7050781 8.0976562 C 5.712763 8.1020589 5.7118532 8.1147094 5.7207031 8.1171875 L 5.7246094 8.1171875 C 5.7322943 8.1215901 5.7313844 8.1342406 5.7402344 8.1367188 L 5.7441406 8.1367188 C 5.7519783 8.1412705 5.7507032 8.1537124 5.7597656 8.15625 L 5.7636719 8.15625 C 5.7721258 8.1614402 5.7713056 8.1749498 5.78125 8.1777344 C 5.78125 8.1777344 5.7832031 8.1777344 5.7832031 8.1777344 C 5.792305 8.1836669 5.7918142 8.1981141 5.8027344 8.2011719 L 5.8085938 8.203125 C 5.8166029 8.2078483 5.8168681 8.2200511 5.8261719 8.2226562 L 5.8300781 8.2246094 C 5.8387558 8.2300471 5.8393341 8.2432165 5.8496094 8.2460938 L 5.8535156 8.2460938 C 5.8626258 8.2520363 5.8621138 8.2664698 5.8730469 8.2695312 L 5.8789062 8.2714844 C 5.8879319 8.2773254 5.8876351 8.291897 5.8984375 8.2949219 L 5.9023438 8.2949219 C 5.9120727 8.3016543 5.9119065 8.3169743 5.9238281 8.3203125 L 5.9277344 8.3222656 C 5.9376491 8.3292527 5.9389408 8.3442314 5.9511719 8.3476562 L 5.953125 8.3476562 C 5.9558945 8.3496845 5.956007 8.3536994 5.9589844 8.3554688 L 5.5820312 8.7441406 C 5.5516742 8.7761676 5.5459021 8.8225386 5.5644531 8.8613281 C 5.5647364 8.8619516 5.564157 8.862662 5.5644531 8.8632812 C 5.5644531 8.8632812 5.5664062 8.8652344 5.5664062 8.8652344 C 5.5671395 8.8666397 5.5695227 8.8658227 5.5703125 8.8671875 C 5.5703125 8.8671875 5.5722656 8.8691406 5.5722656 8.8691406 C 5.5722656 8.8691406 5.5722656 8.8710938 5.5722656 8.8710938 C 5.5729988 8.8724991 5.5753821 8.8716821 5.5761719 8.8730469 C 5.5761719 8.8730469 5.5761719 8.875 5.5761719 8.875 C 5.5773461 8.8772506 5.5807134 8.8767608 5.5820312 8.8789062 C 5.5832163 8.8811777 5.5865592 8.8806482 5.5878906 8.8828125 C 5.5878906 8.8828125 5.5878906 8.8847656 5.5878906 8.8847656 C 5.5890757 8.8870371 5.5924186 8.8865076 5.59375 8.8886719 C 5.59375 8.8886719 5.59375 8.890625 5.59375 8.890625 C 5.595226 8.893454 5.5998612 8.8918696 5.6015625 8.8945312 C 5.6021057 8.8957926 5.6009672 8.8971928 5.6015625 8.8984375 C 5.6030503 8.9012891 5.6076583 8.8996623 5.609375 8.9023438 C 5.6099182 8.9036051 5.6087797 8.9050053 5.609375 8.90625 C 5.6108628 8.9091016 5.6154708 8.9074748 5.6171875 8.9101562 C 5.6177385 8.9114379 5.6165827 8.912798 5.6171875 8.9140625 C 5.6191106 8.9177484 5.6246515 8.9165231 5.6269531 8.9199219 C 5.6275042 8.9212035 5.6263484 8.9225636 5.6269531 8.9238281 C 5.6288762 8.9275141 5.6344171 8.9262887 5.6367188 8.9296875 C 5.6372698 8.9309692 5.636114 8.9323292 5.6367188 8.9335938 C 5.6386418 8.9372797 5.6441827 8.9360543 5.6464844 8.9394531 C 5.647257 8.941347 5.6455959 8.9434547 5.6464844 8.9453125 C 5.648684 8.9495286 5.6555114 8.9473339 5.6582031 8.9511719 C 5.6589757 8.9530658 5.6573147 8.9551735 5.6582031 8.9570312 C 5.6604028 8.9612473 5.6672302 8.9590527 5.6699219 8.9628906 C 5.6706945 8.9647845 5.6690334 8.9668922 5.6699219 8.96875 C 5.6725625 8.9738113 5.6802515 8.9720517 5.6835938 8.9765625 C 5.6841422 8.9778375 5.6829921 8.9792107 5.6835938 8.9804688 C 5.6865043 8.9860474 5.6954614 8.9833756 5.6992188 8.9882812 C 5.7002288 8.9909275 5.6960325 8.9935152 5.6972656 8.9960938 C 5.7001985 9.0017152 5.7090984 8.9989686 5.7128906 9.0039062 C 5.7136665 9.0058098 5.7119977 9.0078986 5.7128906 9.0097656 C 5.7158662 9.0154688 5.7246565 9.0125794 5.7285156 9.0175781 C 5.7295257 9.0202244 5.7253293 9.0228121 5.7265625 9.0253906 C 5.7299364 9.0318573 5.7396418 9.0296036 5.7441406 9.0351562 C 5.7449165 9.0370598 5.7432477 9.0391486 5.7441406 9.0410156 C 5.7474115 9.0472849 5.7573879 9.0434159 5.7617188 9.0488281 C 5.7627417 9.0515189 5.7585122 9.0540197 5.7597656 9.0566406 C 5.7634039 9.063614 5.7743591 9.0605022 5.7792969 9.0664062 C 5.7803199 9.069097 5.7760903 9.0715978 5.7773438 9.0742188 C 5.7810337 9.0812912 5.79185 9.0780131 5.796875 9.0839844 C 5.7980614 9.0872837 5.7933925 9.0905522 5.7949219 9.09375 C 5.7988802 9.1013369 5.8109219 9.0972036 5.8164062 9.1035156 C 5.8174292 9.1062064 5.8131997 9.1087072 5.8144531 9.1113281 C 5.8185901 9.1192575 5.830141 9.1165157 5.8359375 9.1230469 C 5.8369605 9.1257376 5.8327309 9.1282385 5.8339844 9.1308594 C 5.8383503 9.1392274 5.8512185 9.1357753 5.8574219 9.1425781 C 5.8586098 9.1458836 5.8539367 9.1491402 5.8554688 9.1523438 C 5.8596367 9.1603324 5.8711021 9.157494 5.8769531 9.1640625 C 5.8781396 9.1673619 5.8734707 9.1706304 5.875 9.1738281 C 5.8796916 9.1828204 5.8935947 9.1783751 5.9003906 9.1855469 C 5.9015924 9.1889081 5.8968802 9.1920563 5.8984375 9.1953125 C 5.9029008 9.2038673 5.915496 9.2001158 5.921875 9.2070312 C 5.9232122 9.2109894 5.9180964 9.214933 5.9199219 9.21875 C 5.9238785 9.2263337 5.9359248 9.2222057 5.9414062 9.2285156 C 5.7141857 9.5448335 5.5761719 9.9451656 5.5761719 10.412109 C 5.5761719 10.61462 5.6006796 10.80467 5.6464844 10.982422 C 5.691849 11.158466 5.7583632 11.322105 5.84375 11.46875 C 5.84375 11.46875 5.8457031 11.470703 5.8457031 11.470703 C 5.8466417 11.472315 5.8486662 11.473001 5.8496094 11.474609 C 5.8496094 11.474609 5.8515625 11.476562 5.8515625 11.476562 C 5.9362914 11.619982 6.035694 11.74933 6.1542969 11.859375 C 6.154959 11.859991 6.1555869 11.860713 6.15625 11.861328 C 6.15625 11.861328 6.1582031 11.863281 6.1582031 11.863281 C 6.1582031 11.863281 6.1601562 11.865234 6.1601562 11.865234 C 6.1601562 11.865234 6.1621094 11.867188 6.1621094 11.867188 C 6.1621094 11.867188 6.1640625 11.869141 6.1640625 11.869141 C 6.1640625 11.869141 6.1660156 11.871094 6.1660156 11.871094 C 6.1660156 11.871094 6.1679688 11.873047 6.1679688 11.873047 C 6.1679688 11.873047 6.1699219 11.875 6.1699219 11.875 C 6.1699219 11.875 6.171875 11.876953 6.171875 11.876953 C 6.171875 11.876953 6.1738281 11.878906 6.1738281 11.878906 C 6.1768679 11.881745 6.1805332 11.883903 6.1835938 11.886719 C 6.1835938 11.886719 6.1855469 11.888672 6.1855469 11.888672 C 6.1889528 11.89187 6.1918802 11.89527 6.1953125 11.898438 C 6.1993818 11.902245 6.2029246 11.906391 6.2070312 11.910156 C 6.2070312 11.910156 6.2089844 11.912109 6.2089844 11.912109 C 6.2133153 11.916189 6.2163295 11.92175 6.2207031 11.925781 C 6.2244025 11.929248 6.2286915 11.932115 6.2324219 11.935547 C 6.2364842 11.939361 6.2400408 11.943494 6.2441406 11.947266 C 6.2482031 11.95108 6.2517595 11.955213 6.2558594 11.958984 C 6.2609769 11.963789 6.2663075 11.967919 6.2714844 11.972656 C 6.2731786 11.974242 6.275643 11.978891 6.2773438 11.980469 C 6.2833582 11.986171 6.2888245 11.992438 6.2949219 11.998047 C 6.3000351 12.002863 6.3053742 12.00697 6.3105469 12.011719 C 6.3156252 12.016511 6.3190816 12.022618 6.3242188 12.027344 C 6.3312985 12.034035 6.338509 12.040314 6.3457031 12.046875 C 6.3504282 12.051311 6.3545993 12.056168 6.359375 12.060547 C 6.3643569 12.065255 6.3680083 12.071528 6.3730469 12.076172 C 6.3814134 12.084131 6.3899102 12.091832 6.3984375 12.099609 C 6.4038165 12.104676 6.4086177 12.110242 6.4140625 12.115234 C 6.4200865 12.120946 6.4255335 12.127194 6.4316406 12.132812 C 6.4397223 12.140516 6.446846 12.148717 6.4550781 12.15625 C 6.4625093 12.163309 6.4690046 12.170818 6.4765625 12.177734 C 6.4842608 12.185048 6.4902126 12.194012 6.4980469 12.201172 C 6.5060216 12.208758 6.5133635 12.217188 6.5214844 12.224609 C 6.5294591 12.232196 6.536801 12.240626 6.5449219 12.248047 C 6.5532962 12.256014 6.5617771 12.2637 6.5703125 12.271484 C 6.5790368 12.279799 6.5868036 12.288759 6.5957031 12.296875 C 6.6044356 12.305198 6.6121858 12.314141 6.6210938 12.322266 C 6.6281138 12.328957 6.6334914 12.337187 6.640625 12.34375 C 6.6410504 12.344141 6.6421523 12.343359 6.6425781 12.34375 C 6.8086408 12.820028 7.0619495 13.283328 7.4023438 13.685547 C 7.4029332 13.686244 7.403707 13.686803 7.4042969 13.6875 C 7.4042969 13.6875 7.40625 13.689453 7.40625 13.689453 C 7.40625 13.689453 7.4082031 13.691406 7.4082031 13.691406 C 7.4093794 13.6928 7.4109312 13.69392 7.4121094 13.695312 C 7.4132869 13.696708 7.4148363 13.697825 7.4160156 13.699219 C 7.4160156 13.699219 7.4160156 13.701172 7.4160156 13.701172 C 7.420751 13.706782 7.4268759 13.711211 7.4316406 13.716797 C 7.4387869 13.725241 7.4478655 13.731844 7.4550781 13.740234 C 7.4610333 13.747271 7.468608 13.752766 7.4746094 13.759766 C 7.4746094 13.759766 7.4765625 13.761719 7.4765625 13.761719 C 7.4977229 13.78669 7.5251376 13.809492 7.546875 13.833984 C 7.5628048 13.851909 7.5814224 13.867108 7.5976562 13.884766 C 7.638259 13.92682 7.6783769 13.969468 7.7207031 14.009766 C 7.7263798 14.015182 7.730621 14.02196 7.7363281 14.027344 C 7.7668194 14.056044 7.7928748 14.089454 7.8242188 14.117188 C 7.8245713 14.1175 7.8238661 14.118829 7.8242188 14.119141 C 7.8242188 14.119141 7.8261719 14.121094 7.8261719 14.121094 C 7.8261719 14.121094 7.828125 14.121094 7.828125 14.121094 C 7.828125 14.121094 7.8300781 14.123047 7.8300781 14.123047 C 7.8300781 14.123047 7.8300781 14.125 7.8300781 14.125 C 7.8300781 14.125 7.8320312 14.126953 7.8320312 14.126953 C 7.8351647 14.129733 7.8406081 14.133949 7.84375 14.136719 C 7.8451258 14.137939 7.8462788 14.139406 7.8476562 14.140625 C 7.8486764 14.141559 7.8505414 14.141645 7.8515625 14.142578 C 7.8515625 14.142578 7.8515625 14.144531 7.8515625 14.144531 C 7.8515625 14.144531 7.8535156 14.146484 7.8535156 14.146484 C 7.8562446 14.148912 7.8605458 14.15383 7.8632812 14.15625 C 7.8653395 14.158079 7.8690318 14.162238 7.8710938 14.164062 C 7.8731592 14.165898 7.8768372 14.170044 7.8789062 14.171875 C 7.8816538 14.174319 7.8839647 14.177251 7.8867188 14.179688 C 7.8901606 14.182754 7.8930323 14.186399 7.8964844 14.189453 C 7.9002743 14.192832 7.9044008 14.199761 7.9082031 14.203125 C 7.9140823 14.208363 7.9198723 14.213547 7.9257812 14.21875 C 7.9278439 14.220583 7.9295743 14.222781 7.9316406 14.224609 C 7.9316406 14.224609 7.9335938 14.226562 7.9335938 14.226562 C 7.938455 14.230896 7.942384 14.235924 7.9472656 14.240234 C 7.953497 14.24579 7.9585789 14.252296 7.9648438 14.257812 C 7.9675924 14.260258 7.9699011 14.263187 7.9726562 14.265625 C 7.980246 14.27241 7.9865011 14.280383 7.9941406 14.287109 C 7.9975744 14.290169 8.0004623 14.293828 8.0039062 14.296875 C 8.0097485 14.302105 8.0156125 14.311211 8.0214844 14.316406 C 8.0269687 14.321312 8.0335522 14.329109 8.0390625 14.333984 C 8.0445588 14.338901 8.0511182 14.346676 8.0566406 14.351562 C 8.0628203 14.357098 8.0699591 14.365597 8.0761719 14.371094 C 8.0854647 14.379418 8.094148 14.388248 8.1035156 14.396484 C 8.1076322 14.400157 8.1130562 14.406501 8.1171875 14.410156 C 8.1240341 14.416298 8.1317845 14.425547 8.1386719 14.431641 C 8.1455192 14.437783 8.151315 14.445077 8.1582031 14.451172 C 8.1660931 14.458264 8.1736965 14.469533 8.1816406 14.476562 C 8.1922939 14.486132 8.2021388 14.496405 8.2128906 14.505859 C 8.2183745 14.510765 8.2230057 14.516609 8.2285156 14.521484 C 8.2401868 14.53199 8.249929 14.544321 8.2617188 14.554688 C 8.2678848 14.560211 8.2750509 14.568734 8.28125 14.574219 C 8.2894757 14.581618 8.298356 14.592279 8.3066406 14.599609 C 8.3155466 14.607631 8.3230561 14.617059 8.3320312 14.625 C 8.346785 14.638316 8.3600562 14.652922 8.375 14.666016 C 8.375 14.666016 8.3769531 14.667969 8.3769531 14.667969 C 8.382783 14.673173 8.3867189 14.680377 8.3925781 14.685547 C 8.4014604 14.693547 8.4090176 14.703017 8.4179688 14.710938 C 8.4316768 14.723327 8.4431587 14.737802 8.4570312 14.75 C 8.4645761 14.756777 8.4709212 14.764765 8.4785156 14.771484 C 8.4928732 14.784478 8.5049931 14.799717 8.5195312 14.8125 C 8.5288053 14.820842 8.537526 14.829636 8.546875 14.837891 C 8.558523 14.848418 8.5683113 14.860705 8.5800781 14.871094 C 8.5920433 14.881908 8.6011907 14.895582 8.6132812 14.90625 C 8.6252621 14.917085 8.6363309 14.928764 8.6484375 14.939453 C 8.6596954 14.949642 8.6702715 14.96455 8.6816406 14.974609 C 8.6932589 14.985132 8.7050601 14.999381 8.7167969 15.009766 C 8.7290913 15.020916 8.7395257 15.033926 8.7519531 15.044922 C 8.768713 15.060152 8.7837741 15.076854 8.8007812 15.091797 C 8.8117538 15.1017 8.8209534 15.113266 8.8320312 15.123047 C 8.8446381 15.134488 8.8563939 15.150831 8.8691406 15.162109 C 8.8834659 15.175119 8.8956503 15.190325 8.9101562 15.203125 C 8.9241583 15.21584 8.9369973 15.229673 8.9511719 15.242188 C 8.9644519 15.254255 8.9748458 15.269362 8.9882812 15.28125 C 9.004 15.295574 9.017266 15.312101 9.0332031 15.326172 C 9.0485083 15.340099 9.06066 15.357406 9.0761719 15.371094 C 9.0935834 15.386928 9.1092746 15.404399 9.1269531 15.419922 C 9.1385707 15.430444 9.1484202 15.442741 9.1601562 15.453125 C 9.1758183 15.467426 9.1891987 15.483997 9.2050781 15.498047 C 9.2224288 15.513901 9.2362887 15.533283 9.2539062 15.548828 C 9.2705992 15.564049 9.2857951 15.580768 9.3027344 15.595703 C 9.3211573 15.612491 9.3367462 15.631998 9.3554688 15.648438 C 9.3684081 15.660188 9.3794914 15.673968 9.3925781 15.685547 C 9.4106018 15.702048 9.4270002 15.72016 9.4453125 15.736328 C 9.4647858 15.754122 9.482144 15.773611 9.5019531 15.791016 C 9.5141347 15.80292 9.5247832 15.816374 9.5371094 15.828125 C 9.5405911 15.831216 9.5433828 15.834812 9.546875 15.837891 C 9.5628401 15.852478 9.5756058 15.87044 9.5917969 15.884766 C 9.6128468 15.904077 9.6308996 15.926457 9.6523438 15.945312 C 9.6673341 15.958982 9.6801233 15.974842 9.6953125 15.988281 C 9.7177006 16.008848 9.7369311 16.032684 9.7597656 16.052734 C 9.776459 16.067956 9.791654 16.084674 9.8085938 16.099609 C 9.8272463 16.116698 9.8423663 16.137565 9.8613281 16.154297 C 9.8807343 16.17209 9.8982276 16.191579 9.9179688 16.208984 C 9.9359382 16.22547 9.952446 16.247518 9.9707031 16.263672 C 9.9896676 16.281105 10.006105 16.301295 10.025391 16.318359 C 10.048861 16.339981 10.069788 16.363712 10.09375 16.384766 C 10.110421 16.40002 10.123707 16.418625 10.140625 16.433594 C 10.165431 16.456477 10.187535 16.481659 10.212891 16.503906 C 10.23126 16.520713 10.246956 16.540181 10.265625 16.556641 C 10.284927 16.574396 10.300678 16.595908 10.320312 16.613281 C 10.345397 16.636453 10.36693 16.663026 10.392578 16.685547 C 10.4116 16.702988 10.427922 16.723165 10.447266 16.740234 C 10.469621 16.760843 10.488916 16.784594 10.511719 16.804688 C 10.532013 16.823394 10.549649 16.844998 10.570312 16.863281 C 10.596433 16.887443 10.619751 16.914044 10.646484 16.9375 C 10.66512 16.95462 10.680273 16.975424 10.699219 16.992188 C 10.724283 17.015403 10.745855 17.041887 10.771484 17.064453 C 10.796282 17.087328 10.818403 17.112526 10.84375 17.134766 C 10.865457 17.154734 10.884123 17.177783 10.90625 17.197266 C 10.929945 17.219151 10.950411 17.244319 10.974609 17.265625 C 10.995903 17.285293 11.013455 17.308924 11.035156 17.328125 C 11.035156 17.328125 11.037109 17.328125 11.037109 17.328125 C 11.06317 17.352313 11.084655 17.380812 11.111328 17.404297 C 11.137745 17.428733 11.160457 17.456755 11.1875 17.480469 C 11.207794 17.499175 11.225431 17.52078 11.246094 17.539062 C 11.273138 17.564214 11.296514 17.592794 11.324219 17.617188 C 11.351296 17.642268 11.374607 17.670991 11.402344 17.695312 C 11.425703 17.716874 11.446855 17.740721 11.470703 17.761719 C 11.496378 17.78553 11.518653 17.812808 11.544922 17.835938 C 11.568201 17.857526 11.587561 17.883267 11.611328 17.904297 C 11.639687 17.930743 11.664271 17.960716 11.693359 17.986328 C 11.722137 18.013056 11.747819 18.04249 11.777344 18.068359 C 11.7993 18.088667 11.817454 18.113002 11.839844 18.132812 C 11.871238 18.162128 11.899353 18.194366 11.931641 18.222656 C 11.956274 18.245471 11.976774 18.272734 12.001953 18.294922 C 12.028655 18.319771 12.052732 18.346982 12.080078 18.371094 C 12.10605 18.395313 12.127713 18.423744 12.154297 18.447266 C 12.154297 18.447266 12.15625 18.447266 12.15625 18.447266 C 12.188638 18.477572 12.216658 18.511802 12.25 18.541016 C 12.276346 18.56545 12.2992 18.593472 12.326172 18.617188 C 12.351428 18.640705 12.374557 18.670502 12.400391 18.693359 C 12.432433 18.723362 12.461164 18.756222 12.494141 18.785156 C 12.518119 18.807456 12.539955 18.835716 12.564453 18.857422 C 12.598023 18.888935 12.627511 18.92474 12.662109 18.955078 C 12.689425 18.980496 12.714197 19.008558 12.742188 19.033203 C 12.7718 19.06089 12.797715 19.092365 12.828125 19.119141 C 12.857738 19.146827 12.883652 19.178302 12.914062 19.205078 C 12.944329 19.233414 12.970853 19.265585 13.001953 19.292969 C 13.031551 19.320678 13.057495 19.352107 13.087891 19.378906 C 13.118874 19.407956 13.145876 19.440699 13.177734 19.46875 C 13.207985 19.497109 13.23454 19.529233 13.265625 19.556641 C 13.297261 19.586343 13.324872 19.619777 13.357422 19.648438 C 13.388992 19.678074 13.416738 19.711635 13.449219 19.740234 C 13.48041 19.769514 13.506983 19.803763 13.539062 19.832031 C 13.571022 19.862057 13.599919 19.894866 13.632812 19.923828 C 13.665034 19.954116 13.693391 19.988371 13.726562 20.017578 C 13.757449 20.046611 13.784646 20.079381 13.816406 20.107422 C 13.852034 20.14103 13.883129 20.178656 13.919922 20.210938 C 13.94852 20.237751 13.972608 20.268957 14.001953 20.294922 C 14.039859 20.330799 14.074052 20.369924 14.113281 20.404297 C 14.144264 20.433346 14.171267 20.46609 14.203125 20.494141 C 14.234337 20.523563 14.260862 20.557529 14.292969 20.585938 C 14.33152 20.622475 14.366327 20.662286 14.40625 20.697266 C 14.435503 20.72473 14.462152 20.758581 14.492188 20.785156 C 14.530666 20.821619 14.565625 20.861573 14.605469 20.896484 C 14.638069 20.927129 14.667599 20.960697 14.701172 20.990234 C 14.736047 21.023172 14.766741 21.06013 14.802734 21.091797 C 14.834854 21.122132 14.861461 21.15824 14.894531 21.1875 C 14.933323 21.224364 14.967627 21.265495 15.007812 21.300781 C 15.044415 21.335332 15.077401 21.3731 15.115234 21.40625 C 15.149491 21.438543 15.17951 21.474791 15.214844 21.505859 C 15.250307 21.539419 15.281737 21.57713 15.318359 21.609375 C 15.352171 21.64142 15.381147 21.678133 15.416016 21.708984 C 15.455809 21.746903 15.491938 21.787963 15.533203 21.824219 C 15.571437 21.860431 15.60495 21.900866 15.644531 21.935547 C 15.678303 21.967464 15.707365 22.004429 15.742188 22.035156 C 15.781623 22.072683 15.816544 22.114496 15.857422 22.150391 C 15.895964 22.186919 15.930791 22.226747 15.970703 22.261719 C 16.006905 22.295984 16.038762 22.334293 16.076172 22.367188 C 16.113569 22.402721 16.146854 22.442494 16.185547 22.476562 C 16.224331 22.513469 16.258649 22.554515 16.298828 22.589844 C 16.33791 22.627027 16.373565 22.667544 16.414062 22.703125 C 16.451786 22.738992 16.484395 22.780077 16.523438 22.814453 C 16.562865 22.852022 16.5978 22.89375 16.638672 22.929688 C 16.678018 22.967173 16.713122 23.009061 16.753906 23.044922 C 16.791549 23.080785 16.824321 23.121872 16.863281 23.15625 C 16.90529 23.19644 16.942673 23.240964 16.986328 23.279297 C 17.026791 23.317853 17.063485 23.359648 17.105469 23.396484 C 17.146269 23.435336 17.182265 23.478523 17.224609 23.515625 C 17.260362 23.549647 17.291185 23.588409 17.328125 23.621094 C 17.372598 23.663863 17.412655 23.711272 17.458984 23.751953 C 17.499705 23.790807 17.535862 23.833983 17.578125 23.871094 C 17.619871 23.910979 17.657803 23.954135 17.701172 23.992188 C 17.743255 24.032368 17.780488 24.076917 17.824219 24.115234 C 17.863626 24.152835 17.898601 24.194499 17.939453 24.230469 C 17.981423 24.27073 18.01888 24.315109 18.0625 24.353516 C 18.107147 24.396374 18.146846 24.44362 18.193359 24.484375 C 18.233785 24.522999 18.270551 24.564656 18.3125 24.601562 C 18.354132 24.641526 18.390337 24.68647 18.433594 24.724609 C 18.478854 24.768173 18.519222 24.816022 18.566406 24.857422 C 18.610416 24.899611 18.649493 24.946181 18.695312 24.986328 C 18.738674 25.027841 18.777149 25.073749 18.822266 25.113281 C 18.864258 25.15351 18.901672 25.197956 18.945312 25.236328 C 18.988559 25.277925 19.027262 25.323656 19.072266 25.363281 C 19.11882 25.40815 19.160392 25.457423 19.208984 25.5 C 19.249918 25.539267 19.285622 25.58359 19.328125 25.621094 C 19.376823 25.668176 19.42172 25.719103 19.472656 25.763672 C 19.513877 25.803207 19.550938 25.847018 19.59375 25.884766 C 19.642593 25.931967 19.687188 25.982672 19.738281 26.027344 C 19.78011 26.067489 19.815906 26.11404 19.859375 26.152344 C 19.90685 26.198253 19.950395 26.247493 20 26.291016 C 20.047589 26.336882 20.090907 26.386219 20.140625 26.429688 C 20.183091 26.470499 20.219513 26.517729 20.263672 26.556641 C 20.313457 26.604849 20.35998 26.655594 20.412109 26.701172 C 20.456247 26.743647 20.495048 26.791612 20.541016 26.832031 C 20.590126 26.879555 20.634157 26.931597 20.685547 26.976562 C 20.73009 27.019464 20.769997 27.066615 20.816406 27.107422 C 20.866148 27.15562 20.910807 27.208334 20.962891 27.253906 C 21.008069 27.297479 21.048601 27.345303 21.095703 27.386719 C 21.142758 27.432344 21.18522 27.48211 21.234375 27.525391 C 21.284338 27.573933 21.328526 27.627937 21.380859 27.673828 C 21.429249 27.720685 21.472833 27.772032 21.523438 27.816406 C 21.572849 27.864253 21.618201 27.915681 21.669922 27.960938 C 21.716369 28.005853 21.758154 28.055023 21.806641 28.097656 C 21.854958 28.144631 21.89868 28.195736 21.949219 28.240234 C 22.001476 28.291141 22.048658 28.346531 22.103516 28.394531 C 22.14928 28.438846 22.190533 28.487198 22.238281 28.529297 C 22.292342 28.58209 22.341586 28.639777 22.398438 28.689453 C 22.444762 28.734301 22.4868 28.783595 22.535156 28.826172 C 23.158605 29.434326 23.965007 29.851562 24.863281 29.851562 C 26.522788 29.851562 27.893996 28.45217 28.310547 26.988281 C 28.919393 26.698202 29.300781 26.066166 29.300781 25.261719 C 29.300781 24.642771 29.072556 24.128318 28.691406 23.791016 L 29.390625 23.546875 C 29.429435 23.533365 29.453924 23.499444 29.458984 23.458984 C 29.464084 23.418474 29.443603 23.379615 29.408203 23.359375 L 29.306641 23.302734 C 29.307718 23.26576 29.294332 23.229584 29.261719 23.210938 L 29.259766 23.210938 L 29.158203 23.154297 C 29.158249 23.118374 29.145084 23.082636 29.113281 23.064453 L 29.011719 23.007812 C 29.011765 22.971889 28.9986 22.936152 28.966797 22.917969 L 28.865234 22.861328 C 28.865281 22.825405 28.852115 22.789668 28.820312 22.771484 L 28.757812 22.736328 L 28.916016 22.330078 C 28.934566 22.281188 28.914661 22.226736 28.869141 22.203125 L 28.767578 22.150391 C 28.769038 22.111581 28.756048 22.073021 28.720703 22.054688 L 28.621094 22.001953 C 28.622545 21.963152 28.609557 21.926533 28.574219 21.908203 L 28.474609 21.855469 C 28.47606 21.816668 28.463072 21.778095 28.427734 21.759766 L 28.328125 21.707031 C 28.328484 21.669276 28.315698 21.633102 28.28125 21.615234 L 28.183594 21.5625 C 28.184303 21.5244 28.171458 21.486769 28.136719 21.46875 L 28.039062 21.416016 C 28.039059 21.378625 28.026328 21.341927 27.992188 21.324219 L 27.894531 21.271484 C 27.893843 21.234812 27.881197 21.199038 27.847656 21.181641 L 27.751953 21.130859 C 27.752312 21.093104 27.739526 21.05693 27.705078 21.039062 L 27.609375 20.988281 C 27.609372 20.950891 27.59664 20.914193 27.5625 20.896484 L 27.46875 20.847656 C 27.46946 20.809556 27.456614 20.771925 27.421875 20.753906 L 27.328125 20.705078 C 27.328122 20.667688 27.31539 20.63099 27.28125 20.613281 L 27.222656 20.582031 C 27.020718 20.140351 26.898715 19.928988 26.847656 19.927734 C 26.772817 19.806201 26.73037 19.77764 26.697266 19.777344 C 26.625866 19.662703 26.582906 19.633351 26.550781 19.632812 C 26.478692 19.516603 26.436574 19.486869 26.404297 19.486328 C 26.333326 19.371921 26.291635 19.340626 26.259766 19.339844 C 26.189479 19.22699 26.146951 19.196091 26.115234 19.195312 C 26.04606 19.084246 26.003977 19.051839 25.972656 19.050781 C 25.902225 18.937601 25.85792 18.90703 25.826172 18.90625 C 25.758129 18.797737 25.716609 18.764721 25.685547 18.763672 C 25.617359 18.654831 25.574065 18.622144 25.542969 18.621094 C 25.475592 18.514081 25.433252 18.481513 25.402344 18.480469 C 25.334967 18.373456 25.292627 18.340888 25.261719 18.339844 C 25.194342 18.232831 25.152002 18.200263 25.121094 18.199219 C 25.054827 18.094697 25.013072 18.061582 24.982422 18.060547 C 24.917244 17.957743 24.875967 17.923218 24.845703 17.921875 C 24.779465 17.817297 24.737652 17.784289 24.707031 17.783203 C 24.643177 17.683093 24.600217 17.64989 24.570312 17.648438 C 24.504747 17.545365 24.464056 17.512799 24.433594 17.511719 C 24.369504 17.411341 24.328832 17.376332 24.298828 17.375 C 24.235767 17.276652 24.193775 17.243631 24.164062 17.242188 C 24.102199 17.145626 24.06249 17.111252 24.033203 17.109375 C 23.970431 17.010961 23.92797 16.976412 23.898438 16.974609 C 23.834372 16.874881 23.793776 16.840911 23.763672 16.839844 C 23.703782 16.747795 23.663583 16.712697 23.634766 16.710938 C 23.573834 16.616597 23.532985 16.581853 23.503906 16.580078 C 23.442975 16.485737 23.402126 16.450994 23.373047 16.449219 C 23.313157 16.35717 23.272958 16.322072 23.244141 16.320312 C 23.184251 16.228264 23.144052 16.193165 23.115234 16.191406 C 23.056403 16.100983 23.016733 16.06463 22.988281 16.0625 C 22.930058 15.973408 22.889624 15.937665 22.861328 15.935547 C 22.803105 15.846455 22.762671 15.810712 22.734375 15.808594 C 22.676121 15.720124 22.635822 15.685327 22.607422 15.683594 C 22.550715 15.597633 22.512254 15.560783 22.484375 15.558594 C 22.427165 15.471709 22.387408 15.435692 22.359375 15.433594 C 22.303165 15.34888 22.264099 15.312625 22.236328 15.310547 C 22.180118 15.225833 22.141052 15.189579 22.113281 15.1875 C 22.058481 15.10491 22.019469 15.069017 21.992188 15.066406 C 21.938422 14.985377 21.899979 14.948341 21.873047 14.945312 C 21.818079 14.862362 21.777327 14.826833 21.75 14.824219 C 21.696176 14.74373 21.657876 14.707663 21.630859 14.705078 C 21.577035 14.624589 21.538736 14.588523 21.511719 14.585938 C 21.458921 14.506984 21.421197 14.469795 21.394531 14.466797 C 21.342304 14.389062 21.303851 14.35259 21.277344 14.349609 C 21.224094 14.270353 21.185063 14.234992 21.158203 14.232422 C 21.107452 14.15762 21.070993 14.120262 21.044922 14.117188 C 20.992188 14.038841 20.95443 14.002681 20.927734 14 C 20.878397 13.927741 20.842031 13.89006 20.816406 13.886719 C 20.765272 13.811105 20.727352 13.774572 20.701172 13.771484 C 20.65097 13.697846 20.613805 13.661259 20.587891 13.658203 C 20.5381 13.585636 20.500425 13.549778 20.474609 13.546875 C 20.426349 13.476662 20.390526 13.439002 20.365234 13.435547 C 20.317805 13.366422 20.280855 13.330086 20.255859 13.326172 C 20.20635 13.253549 20.168253 13.216238 20.142578 13.212891 C 20.096048 13.145638 20.059882 13.10934 20.035156 13.105469 C 19.987529 13.036339 19.950866 13.001656 19.925781 12.998047 C 19.878718 12.929685 19.843246 12.892569 19.818359 12.888672 C 19.772017 12.821809 19.735606 12.785113 19.710938 12.78125 C 19.665294 12.715836 19.629923 12.67961 19.605469 12.675781 C 19.559753 12.609984 19.524461 12.574328 19.5 12.570312 C 19.45534 12.506309 19.420595 12.469114 19.396484 12.464844 C 19.351649 12.400478 19.315181 12.363654 19.291016 12.359375 C 19.246069 12.2954 19.209786 12.259655 19.185547 12.255859 C 19.142817 12.195567 19.109423 12.158653 19.085938 12.154297 C 19.042946 12.093104 19.007927 12.055459 18.984375 12.050781 C 18.940304 11.988373 18.904809 11.95315 18.880859 11.949219 C 18.838427 11.88977 18.804653 11.853754 18.78125 11.849609 C 18.738817 11.79016 18.705044 11.754144 18.681641 11.75 C 18.639208 11.690551 18.605434 11.654535 18.582031 11.650391 C 18.540634 11.592799 18.507427 11.55701 18.484375 11.552734 C 18.444319 11.497008 18.411238 11.461915 18.388672 11.457031 C 18.34755 11.399419 18.313948 11.364113 18.291016 11.359375 C 18.250722 11.303428 18.217969 11.268353 18.195312 11.263672 C 18.155974 11.209051 18.123874 11.173087 18.101562 11.167969 C 18.061507 11.112242 18.028425 11.07715 18.005859 11.072266 C 17.965286 11.01633 17.932935 10.980788 17.910156 10.976562 C 17.873141 10.92628 17.841805 10.89188 17.820312 10.886719 C 17.782553 10.834663 17.750263 10.798472 17.728516 10.792969 C 17.689747 10.739812 17.656893 10.705961 17.634766 10.701172 C 17.597503 10.650665 17.566511 10.61628 17.544922 10.611328 C 17.508864 10.562346 17.478166 10.527079 17.457031 10.521484 C 17.420387 10.471625 17.388539 10.437044 17.367188 10.431641 C 17.330172 10.381358 17.298837 10.346958 17.277344 10.341797 C 17.241609 10.293713 17.210476 10.259226 17.189453 10.253906 C 17.15591 10.209027 17.125658 10.175973 17.105469 10.169922 C 17.06941 10.12094 17.038713 10.085672 17.017578 10.080078 C 16.982739 10.033465 16.952328 9.9996165 16.931641 9.9941406 C 16.897912 9.9493803 16.867922 9.9157805 16.847656 9.9101562 C 16.813927 9.8653959 16.783938 9.8317961 16.763672 9.8261719 C 16.729025 9.7801928 16.698358 9.7474061 16.677734 9.7421875 C 16.645666 9.7001171 16.617276 9.6679898 16.597656 9.6621094 C 16.564855 9.6186492 16.53553 9.5860439 16.515625 9.5800781 C 16.483444 9.5375432 16.455208 9.5041821 16.435547 9.4980469 C 16.403801 9.4563346 16.374959 9.4240507 16.355469 9.4179688 C 16.323723 9.3762565 16.294881 9.3439725 16.275391 9.3378906 C 16.243322 9.2958202 16.214932 9.2636929 16.195312 9.2578125 C 16.164399 9.2176652 16.136347 9.1856661 16.117188 9.1796875 C 16.087029 9.1406695 16.059869 9.1096644 16.041016 9.1035156 C 16.010896 9.0643385 15.98368 9.0317614 15.964844 9.0253906 C 15.934246 8.9858333 15.905751 8.9551577 15.886719 8.9492188 C 15.858322 8.9129397 15.832574 8.8814012 15.814453 8.875 C 15.783529 8.8350807 15.755495 8.8045728 15.736328 8.7988281 C 15.708613 8.7637926 15.683846 8.732861 15.666016 8.7265625 C 15.637017 8.6894599 15.61017 8.6585581 15.591797 8.6523438 C 15.564693 8.6180293 15.539052 8.5886163 15.521484 8.5820312 C 15.493087 8.5457522 15.46734 8.5142137 15.449219 8.5078125 C 15.422515 8.4742196 15.396298 8.4459726 15.378906 8.4394531 C 15.350598 8.4036145 15.324724 8.3733037 15.306641 8.3671875 C 15.281214 8.3355919 15.257059 8.307367 15.240234 8.3007812 C 15.21252 8.2657457 15.187752 8.2348141 15.169922 8.2285156 C 15.144879 8.1975991 15.120166 8.17058 15.103516 8.1640625 C 15.07796 8.1320543 15.053994 8.102498 15.037109 8.0957031 C 15.011071 8.0633013 14.985848 8.035706 14.96875 8.0292969 C 14.944855 7.9999312 14.922374 7.9716146 14.90625 7.9648438 C 14.881169 7.9336777 14.856513 7.9051457 14.839844 7.8984375 C 14.815065 7.8679855 14.79192 7.8404546 14.775391 7.8339844 C 14.751514 7.8049285 14.729003 7.7779685 14.712891 7.7714844 C 14.689014 7.7424285 14.666503 7.7154685 14.650391 7.7089844 C 14.626514 7.6799285 14.604003 7.6529685 14.587891 7.6464844 C 14.564997 7.6188504 14.542993 7.5925088 14.527344 7.5859375 C 14.505647 7.559748 14.483824 7.5342744 14.46875 7.5273438 C 14.445732 7.4993332 14.423914 7.471607 14.408203 7.4648438 C 14.386176 7.4385268 14.36484 7.4128065 14.349609 7.40625 C 14.327582 7.379933 14.306246 7.3542128 14.291016 7.3476562 C 14.271049 7.3239533 14.250534 7.29992 14.236328 7.2929688 C 14.214631 7.2667792 14.192808 7.2413057 14.177734 7.234375 C 14.157462 7.2104381 14.137405 7.1864274 14.123047 7.1796875 C 14.101958 7.1545247 14.081177 7.129838 14.066406 7.1230469 C 14.045917 7.0988855 14.026186 7.0750109 14.011719 7.0683594 C 13.992872 7.0463719 13.974558 7.0224138 13.960938 7.015625 C 13.941855 6.993253 13.921949 6.969742 13.908203 6.9628906 C 13.88912 6.9405186 13.869214 6.9170076 13.855469 6.9101562 C 13.836959 6.8884826 13.818132 6.8643651 13.804688 6.8574219 C 13.785746 6.8354005 13.765621 6.8133288 13.751953 6.8066406 C 13.734022 6.7861274 13.716251 6.7643552 13.703125 6.7578125 C 13.685522 6.737562 13.667248 6.715709 13.654297 6.7089844 C 13.63793 6.690188 13.619692 6.6689894 13.607422 6.6621094 C 13.589749 6.6416407 13.571586 6.6181855 13.558594 6.6113281 C 13.541818 6.5922797 13.524211 6.5710467 13.511719 6.5644531 C 13.494943 6.5454046 13.477336 6.5241717 13.464844 6.5175781 C 13.44862 6.4993892 13.432101 6.4790844 13.419922 6.4726562 C 13.403698 6.4544674 13.387179 6.4341625 13.375 6.4277344 C 13.359883 6.4107863 13.343576 6.3913256 13.332031 6.3847656 C 13.316914 6.3678175 13.300608 6.3483569 13.289062 6.3417969 C 13.272839 6.323608 13.25632 6.3033031 13.244141 6.296875 C 13.230531 6.2819457 13.215717 6.2641032 13.205078 6.2578125 C 13.190568 6.2415621 13.175251 6.2214322 13.164062 6.2148438 C 13.149795 6.199177 13.134083 6.1820523 13.123047 6.1757812 C 13.109129 6.1603953 13.094813 6.1411684 13.083984 6.1347656 C 13.070375 6.1198363 13.055561 6.1019938 13.044922 6.0957031 C 13.031177 6.0808103 13.016577 6.0646836 13.005859 6.0585938 C 12.993578 6.0452998 12.980511 6.0275851 12.970703 6.0214844 C 12.957754 6.0074544 12.943822 5.990493 12.933594 5.984375 C 12.921312 5.9710811 12.908246 5.9533663 12.898438 5.9472656 C 12.886453 5.9343964 12.872897 5.9180906 12.863281 5.9121094 C 12.851926 5.9000717 12.839282 5.884689 12.830078 5.8789062 C 12.818094 5.866037 12.804538 5.8497312 12.794922 5.84375 C 12.783434 5.8315822 12.77101 5.8163258 12.761719 5.8105469 C 12.751136 5.7994838 12.739157 5.7868035 12.730469 5.78125 C 12.719596 5.7697889 12.708103 5.7556785 12.699219 5.75 C 12.688063 5.7382405 12.67704 5.7224963 12.667969 5.7167969 C 12.658344 5.7068275 12.646704 5.6947894 12.638672 5.6894531 C 12.629563 5.6799389 12.619 5.6654914 12.611328 5.6601562 C 12.601525 5.6499087 12.590188 5.6363202 12.582031 5.6308594 C 12.572703 5.6212463 12.562511 5.6087533 12.554688 5.6035156 C 12.545359 5.5939025 12.535168 5.5814096 12.527344 5.5761719 C 12.518815 5.5673892 12.509208 5.5539053 12.501953 5.5488281 C 12.493674 5.5403697 12.483635 5.5283868 12.476562 5.5234375 C 12.468194 5.5148932 12.45831 5.5030103 12.451172 5.4980469 C 12.44335 5.4901725 12.434469 5.4793222 12.427734 5.4746094 C 12.419148 5.4659655 12.409636 5.4560537 12.402344 5.4511719 C 12.395918 5.4447974 12.388487 5.4358278 12.382812 5.4316406 C 12.374743 5.4234508 12.366294 5.4110916 12.359375 5.40625 C 12.352935 5.3998669 12.345529 5.390905 12.339844 5.3867188 C 12.333231 5.3801606 12.326131 5.3694831 12.320312 5.3652344 C 12.314234 5.3592601 12.306182 5.3516594 12.300781 5.3476562 C 12.29446 5.3413913 12.286842 5.3322696 12.28125 5.328125 C 12.275347 5.3223595 12.268934 5.3144466 12.263672 5.3105469 C 12.257769 5.3047814 12.251355 5.2968685 12.246094 5.2929688 C 12.240896 5.287895 12.235163 5.2790008 12.230469 5.2753906 C 12.225584 5.2706656 12.219282 5.2631895 12.214844 5.2597656 C 12.209871 5.254956 12.203728 5.247604 12.199219 5.2441406 C 12.19474 5.2398746 12.189646 5.2336314 12.185547 5.2304688 C 12.181068 5.2262027 12.175974 5.2199595 12.171875 5.2167969 C 12.167346 5.2124843 12.162345 5.2063099 12.158203 5.203125 C 12.154138 5.1993144 12.150234 5.1942994 12.146484 5.1914062 C 12.143156 5.1882869 12.139833 5.1821844 12.136719 5.1796875 C 12.132896 5.1761391 12.128542 5.1726547 12.125 5.1699219 C 12.123652 5.1686705 12.1185 5.163255 12.117188 5.1621094 C 12.11386 5.15899 12.110536 5.1528875 12.107422 5.1503906 C 12.104295 5.1474888 12.100593 5.1429746 12.097656 5.140625 C 12.096691 5.1397437 12.092744 5.1355922 12.091797 5.1347656 C 12.089112 5.1323146 12.086528 5.1289932 12.083984 5.1269531 C 12.083984 5.1269531 12.082031 5.1269531 12.082031 5.1269531 C 12.081443 5.1264251 12.080659 5.1235544 12.080078 5.1230469 C 12.079107 5.1221607 12.07517 5.1180184 12.074219 5.1171875 C 12.073253 5.1163062 12.069306 5.1121547 12.068359 5.1113281 C 12.067767 5.1107967 12.065038 5.1059794 12.064453 5.1054688 C 12.064453 5.1054688 12.0625 5.1054688 12.0625 5.1054688 C 12.061903 5.1049241 12.061136 5.1020861 12.060547 5.1015625 C 12.060547 5.1015625 12.058594 5.0996094 12.058594 5.0996094 C 12.057876 5.0989823 12.057348 5.1002059 12.056641 5.0996094 C 12.046799 5.0910169 12.041379 5.0955557 12.033203 5.0917969 C 12.018556 5.0853445 12.000663 5.0742361 11.988281 5.0742188 C 11.946653 5.0742188 11.900539 5.1082973 11.884766 5.1464844 C 11.884564 5.1469718 11.883004 5.1459953 11.882812 5.1464844 C 11.856036 5.2134262 11.715247 5.5074297 11.59375 5.7617188 C 11.590988 5.7569386 11.583571 5.7580753 11.580078 5.7539062 L 11.576172 5.7441406 C 11.572687 5.7371762 11.563532 5.73625 11.558594 5.7304688 L 11.554688 5.7226562 C 11.551589 5.7164635 11.54332 5.7161997 11.539062 5.7109375 L 11.535156 5.703125 C 11.532154 5.6971248 11.523624 5.696534 11.519531 5.6914062 L 11.515625 5.6835938 C 11.512623 5.6775935 11.504093 5.6770028 11.5 5.671875 L 11.496094 5.6640625 C 11.49328 5.6584384 11.486198 5.6572033 11.482422 5.6523438 L 11.478516 5.6464844 C 11.475934 5.6413242 11.46824 5.6412374 11.464844 5.6367188 L 11.460938 5.6289062 C 11.458356 5.6237461 11.450662 5.6236593 11.447266 5.6191406 L 11.443359 5.6113281 C 11.440943 5.6064989 11.434773 5.6058312 11.431641 5.6015625 L 11.427734 5.5957031 C 11.425349 5.5909358 11.419099 5.5901588 11.416016 5.5859375 L 11.412109 5.5800781 C 11.410127 5.5761153 11.404813 5.5758533 11.402344 5.5722656 L 11.398438 5.5664062 C 11.396276 5.5620861 11.389456 5.5624669 11.386719 5.5585938 L 11.384766 5.5527344 C 11.382604 5.5484142 11.375785 5.548795 11.373047 5.5449219 L 11.371094 5.5390625 C 11.369296 5.535469 11.363528 5.5364889 11.361328 5.5332031 L 11.359375 5.5273438 C 11.357454 5.5235036 11.351988 5.5230194 11.349609 5.5195312 L 11.347656 5.515625 C 11.345458 5.5112308 11.338732 5.5097909 11.335938 5.5058594 C 11.334409 5.5028054 11.329945 5.5028326 11.328125 5.5 L 11.326172 5.4960938 C 11.325315 5.4943803 11.323216 5.4938319 11.322266 5.4921875 L 11.318359 5.4863281 C 11.316858 5.483328 11.31233 5.4832553 11.310547 5.4804688 L 11.308594 5.4765625 C 11.307478 5.4743325 11.304007 5.4747689 11.302734 5.4726562 L 11.300781 5.46875 C 11.299914 5.4670172 11.295884 5.4645529 11.294922 5.4628906 C 11.293421 5.4598905 11.288892 5.4598178 11.287109 5.4570312 C 11.286254 5.4553211 11.282199 5.4528133 11.28125 5.4511719 C 11.28125 5.4511719 11.279297 5.4492188 11.279297 5.4492188 L 11.277344 5.4453125 C 11.276673 5.4439721 11.274165 5.4427045 11.273438 5.4414062 C 11.272766 5.4400637 11.27026 5.4407534 11.269531 5.4394531 L 11.269531 5.4375 C 11.269531 5.4375 11.267578 5.4355469 11.267578 5.4355469 C 11.267578 5.4355469 11.265625 5.4335938 11.265625 5.4335938 C 11.265383 5.4331101 11.263921 5.4340719 11.263672 5.4335938 C 11.250162 5.4065927 11.225663 5.3876224 11.195312 5.3808594 C 11.166643 5.3741294 11.134938 5.3798695 11.111328 5.3984375 L 10.544922 5.8164062 L 8.796875 5.0117188 L 8.7929688 5.0097656 z "
       id="path4575"
       style="fill-opacity:1;fill:url(#linearGradient5508)"
       clip-path="url(#clipPath5513)" />
    <path
       style="fill:#f5f5f5;fill-rule:evenodd;stroke:#000000;stroke-width:1px;stroke-linecap:butt;stroke-linejoin:miter;stroke-opacity:1"
       d="m 7.3867404,8.1938422 3.6933706,-1.2626907 2.020305,1.3573925 0.536643,1.2626907 0.157837,1.5783633 -0.69448,0.789182 -0.441942,1.167989 -1.7362,1.388959 L 9.47018,14.286325 8.0180858,13.465576 7.2289041,12.581692 6.8185296,11.539972 5.9977807,10.403551 6.6922606,9.4249656 Z"
       id="path5536"
       inkscape:connector-curvature="0" />
    <ellipse
       ry="0.38669902"
       rx="0.41037446"
       cy="10.064203"
       cx="11.301082"
       id="ellipse5549"
       style="opacity:1;fill:#f44336;fill-opacity:1;stroke:none;stroke-width:1.25;stroke-linecap:round;stroke-linejoin:round;stroke-miterlimit:4;stroke-dasharray:none;stroke-opacity:1" />
    <ellipse
       style="opacity:1;fill:#f44336;fill-opacity:1;stroke:none;stroke-width:1.25;stroke-linecap:round;stroke-linejoin:round;stroke-miterlimit:4;stroke-dasharray:none;stroke-opacity:1"
       id="path5538"
       cx="8.6020803"
       cy="10.521929"
       rx="0.41037446"
       ry="0.38669902" />
    <path
       inkscape:connector-curvature="0"
       d="m 9.7512135,10.456528 c -0.00843,-0.02698 -0.026984,-0.0506 -0.053968,-0.06409 L 7.8049832,9.4631748 c -0.035417,-0.016865 -0.077579,-0.013509 -0.1079365,0.010119 -0.030357,0.023611 -0.047222,0.062401 -0.03879,0.1011905 0.2192461,1.1721227 0.5750993,1.7657737 1.0591271,1.7657737 0.541369,0 1.0034722,-0.770734 1.0237103,-0.802778 0.015179,-0.02361 0.018552,-0.05395 0.010119,-0.08095 z m -1.1299604,0.305275 c -0.1332341,0 -0.2411706,-0.107937 -0.2411706,-0.241171 0,-0.133234 0.1079365,-0.241187 0.2411706,-0.241187 0.1332341,0 0.2411707,0.107936 0.2411707,0.241187 -0.0017,0.133217 -0.1096231,0.241171 -0.2411707,0.241171 z m 1.7725029,0.930952 c 0,0.07082 -0.0118,0.13998 -0.03542,0.207441 -0.01349,0.04216 -0.05397,0.06915 -0.09782,0.06915 l 0,0 c -0.04387,0 -0.08264,-0.02867 -0.09783,-0.06915 -0.03203,-0.09107 -0.09105,-0.151786 -0.150083,-0.151786 -0.059027,0 -0.1180552,0.05903 -0.1500989,0.151786 -0.013492,0.04046 -0.053968,0.06915 -0.097817,0.06915 l 0,0 c -0.043849,0 -0.082639,-0.02867 -0.097818,-0.06915 -0.023611,-0.06746 -0.035417,-0.136624 -0.035417,-0.207441 0,-0.278274 0.1669643,-0.49752 0.3794645,-0.49752 0.2125,0 0.382837,0.219246 0.382837,0.49752 z M 14.557761,8.5086112 13.827503,8.0954168 14.065301,7.4798414 c 0.01855,-0.048892 -0.0017,-0.1045635 -0.04722,-0.1281746 L 12.786928,6.6973017 C 12.151114,5.0731776 12.068459,5.0731776 11.987523,5.0731776 c -0.04216,0 -0.08939,0.03373 -0.104563,0.072537 -0.03373,0.084325 -0.220933,0.4772818 -0.364286,0.7757937 L 11.264011,5.4324207 c -0.01351,-0.027001 -0.03881,-0.045536 -0.06916,-0.052299 -0.02867,-0.00673 -0.06071,0 -0.08432,0.018568 L 10.543855,5.8169445 8.7932601,5.0091071 c -0.03879,-0.016865 -0.082639,-0.010119 -0.1129961,0.018569 -0.030357,0.028654 -0.040476,0.07252 -0.026984,0.1113095 L 8.9501053,5.9400764 5.9531806,5.9130923 c -0.048909,-0.0017 -0.077579,0.023594 -0.094444,0.060714 -0.016865,0.03712 -0.010119,0.080952 0.015179,0.1113095 L 6.7019901,7.034637 5.4472282,7.6738066 c -0.03879,0.020238 -0.060714,0.060731 -0.055655,0.1028939 0.00506,0.042163 0.035417,0.077579 0.077579,0.089385 L 6.239887,8.0634069 5.5821488,8.7430696 c -0.030357,0.032027 -0.037103,0.079266 -0.018552,0.1180555 0.020238,0.03879 0.062401,0.062401 0.10625,0.055655 L 6.3242124,8.830768 c -0.4637897,0.3288691 -0.7488096,0.8887729 -0.7488096,1.580258 0,0.806151 0.3828373,1.436888 0.9899802,1.726967 0.418254,1.462203 1.7876985,2.862004 3.447222,2.862004 1.659507,0 3.030655,-1.398115 3.447206,-2.862004 0.608846,-0.290079 0.98998,-0.92252 0.98998,-1.726967 0,-0.6189484 -0.227679,-1.1333334 -0.608829,-1.470635 l 0.698197,-0.2445436 c 0.03881,-0.013509 0.0641,-0.047239 0.06916,-0.087699 0.0051,-0.04051 -0.01516,-0.0793 -0.05056,-0.099538 z M 12.653677,11.28123 c -0.03203,0 -0.0624,-0.0051 -0.09276,-0.0084 -0.01855,1.155258 -1.150199,2.69504 -2.546627,2.69504 -1.3964288,0 -2.5280756,-1.539782 -2.5466272,-2.69504 -0.030357,0.0034 -0.060714,0.0084 -0.094444,0.0084 -0.527877,0 -0.7656746,-0.389583 -0.7656746,-0.870238 0,-0.4806714 0.2377976,-0.8702547 0.7656746,-0.8702547 0.032044,0 0.060714,0.00506 0.091071,0.00843 l 0,-0.3356151 1.2581349,0 c 0.050595,0 0.094444,-0.037086 0.102877,-0.089385 L 8.9298672,8.3871658 9.510026,8.9673246 c 0.030357,0.030357 0.074206,0.03879 0.112996,0.021925 0.03879,-0.015162 0.064087,-0.053968 0.064087,-0.094444 l 0,-0.8061508 0.8904767,0.5700397 c 0.03203,0.021925 0.07419,0.021925 0.107919,0.00169 0.03373,-0.020238 0.0523,-0.055655 0.0506,-0.096131 l -0.03879,-0.634127 0.968055,0.8786707 c 0.02867,0.025298 0.06915,0.03373 0.10625,0.020238 0.0371,-0.013492 0.0624,-0.047222 0.06577,-0.086012 l 0.07758,-0.7994048 0.645932,1.0405754 0,0.5632937 c 0.03036,-0.00337 0.06073,-0.00843 0.09107,-0.00843 0.527877,0 0.765657,0.3895833 0.765657,0.8702382 0.0017,0.482375 -0.234374,0.871941 -0.763954,0.871941 z M 12.313002,9.2338097 c -0.210813,-0.059028 -0.411491,-0.089385 -0.59871,-0.089385 -1.160318,0 -1.420023,1.1535712 -1.423396,1.1653942 -0.01014,0.04385 0.01012,0.08939 0.04889,0.111309 0.35248,0.204068 0.669544,0.306945 0.944444,0.306945 0.81627,0 1.077679,-0.9073585 1.101307,-1.3880133 0.0051,-0.048909 -0.027,-0.092758 -0.07254,-0.10625 z m -0.991666,1.1316633 c -0.133218,0 -0.241171,-0.107936 -0.241171,-0.24117 0,-0.1332344 0.107936,-0.2411877 0.241171,-0.2411877 0.133234,0 0.24117,0.1079365 0.24117,0.2411877 0,0.133217 -0.107919,0.24117 -0.24117,0.24117 z"
       id="path4328" />
  </g>
</svg>
