<?xml version="1.0" encoding="UTF-8" standalone="no"?>
<!-- Created with Inkscape (http://www.inkscape.org/) -->

<svg
   xmlns:dc="http://purl.org/dc/elements/1.1/"
   xmlns:cc="http://creativecommons.org/ns#"
   xmlns:rdf="http://www.w3.org/1999/02/22-rdf-syntax-ns#"
   xmlns:svg="http://www.w3.org/2000/svg"
   xmlns="http://www.w3.org/2000/svg"
   xmlns:xlink="http://www.w3.org/1999/xlink"
   xmlns:sodipodi="http://sodipodi.sourceforge.net/DTD/sodipodi-0.dtd"
   xmlns:inkscape="http://www.inkscape.org/namespaces/inkscape"
   inkscape:export-ydpi="648"
   inkscape:export-xdpi="648"
   inkscape:export-filename="/home/juergen/Projekte/Android/Android_Studio/Baumann_Theme/theme/src/main/assets/icons/res/drawable-xxhdpi/a105.png"
   sodipodi:docname="Clash.svg"
   inkscape:version="0.91 r13725"
   version="1.1"
   id="svg2"
   viewBox="0 0 20 20"
   height="5.6444445mm"
   width="5.6444445mm">
  <sodipodi:namedview
     inkscape:snap-page="false"
     inkscape:snap-to-guides="false"
     inkscape:snap-grids="false"
     inkscape:window-maximized="1"
     inkscape:window-y="24"
     inkscape:window-x="0"
     inkscape:window-height="744"
     inkscape:window-width="1366"
     inkscape:guide-bbox="true"
     showguides="true"
     fit-margin-bottom="0"
     fit-margin-right="0"
     fit-margin-left="0"
     fit-margin-top="0"
     showgrid="false"
     inkscape:current-layer="layer1"
     inkscape:document-units="px"
     inkscape:cy="3.731098"
     inkscape:cx="8.4055464"
     inkscape:zoom="15.839192"
     inkscape:pageshadow="2"
     inkscape:pageopacity="0.0"
     borderopacity="1.0"
     bordercolor="#666666"
     pagecolor="#ffffff"
     id="base">
    <inkscape:grid
       type="xygrid"
       id="grid4138" />
    <sodipodi:guide
       position="10,18"
       orientation="0,1"
       id="guide4140" />
    <sodipodi:guide
       position="10,2"
       orientation="0,1"
       id="guide4142" />
    <sodipodi:guide
       position="2,10"
       orientation="1,0"
       id="guide4144" />
    <sodipodi:guide
       position="0,0"
       orientation="0,20"
       id="guide4146" />
    <sodipodi:guide
       position="20,0"
       orientation="-20,0"
       id="guide4148" />
    <sodipodi:guide
       position="20,20"
       orientation="0,-20"
       id="guide4150" />
    <sodipodi:guide
       position="0,20"
       orientation="20,0"
       id="guide4152" />
    <sodipodi:guide
       position="18,10"
       orientation="1,0"
       id="guide4154" />
    <sodipodi:guide
       position="10,10"
       orientation="-0.70710678,0.70710678"
       id="guide4156" />
    <sodipodi:guide
       position="4,10"
       orientation="1,0"
       id="guide4160" />
    <sodipodi:guide
       position="16,10"
       orientation="1,0"
       id="guide4162" />
    <sodipodi:guide
       position="10,16"
       orientation="0,1"
       id="guide4164" />
    <sodipodi:guide
       position="10,4"
       orientation="0,1"
       id="guide4166" />
    <sodipodi:guide
       position="10,15"
       orientation="0,1"
       id="guide4168" />
    <sodipodi:guide
       position="10,5"
       orientation="0,1"
       id="guide4170" />
    <sodipodi:guide
       position="5,10"
       orientation="1,0"
       id="guide4172" />
    <sodipodi:guide
       position="15,10"
       orientation="1,0"
       id="guide4174" />
  </sodipodi:namedview>
  <defs
     id="defs4">
    <linearGradient
       inkscape:collect="always"
       id="linearGradient12498">
      <stop
         style="stop-color:#000000;stop-opacity:0.2"
         offset="0"
         id="stop12500" />
      <stop
         style="stop-color:#000000;stop-opacity:0;"
         offset="1"
         id="stop12502" />
    </linearGradient>
    <clipPath
       id="clipPath12478"
       clipPathUnits="userSpaceOnUse">
      <circle
         r="10"
         cy="10.000005"
         cx="9.9999781"
         id="circle12480"
         style="opacity:1;fill:#2196f3;fill-opacity:1;stroke:none;stroke-width:0.05069799;stroke-miterlimit:4;stroke-dasharray:none;stroke-opacity:1" />
    </clipPath>
    <clipPath
       clipPathUnits="userSpaceOnUse"
       id="clipPath5790">
      <circle
         r="10"
         cy="10.000005"
         cx="9.9999781"
         id="circle5792"
         style="opacity:1;fill:#2196f3;fill-opacity:1;stroke:none;stroke-width:0.05069799;stroke-miterlimit:4;stroke-dasharray:none;stroke-opacity:1"
         inkscape:export-filename="/home/juergen/path4136.png"
         inkscape:export-xdpi="648"
         inkscape:export-ydpi="648" />
    </clipPath>
    <clipPath
       id="clipPath5055"
       clipPathUnits="userSpaceOnUse">
      <circle
         r="10"
         cy="10.000005"
         cx="9.9999781"
         id="circle5057"
         style="opacity:1;fill:#2196f3;fill-opacity:1;stroke:none;stroke-width:0.05069799;stroke-miterlimit:4;stroke-dasharray:none;stroke-opacity:1"
         inkscape:export-filename="/home/juergen/path4136.png"
         inkscape:export-xdpi="648"
         inkscape:export-ydpi="648" />
    </clipPath>
    <clipPath
       clipPathUnits="userSpaceOnUse"
       id="clipPath5119">
      <circle
         r="10"
         cy="10.000005"
         cx="9.9999781"
         id="circle5121"
         style="opacity:1;fill:#2196f3;fill-opacity:1;stroke:none;stroke-width:0.05069799;stroke-miterlimit:4;stroke-dasharray:none;stroke-opacity:1"
         inkscape:export-filename="/home/juergen/Schreibtisch/path4136.png"
         inkscape:export-xdpi="648"
         inkscape:export-ydpi="648" />
    </clipPath>
    <clipPath
       id="clipPath5194"
       clipPathUnits="userSpaceOnUse">
      <circle
         r="10"
         cy="10.000005"
         cx="9.9999781"
         id="circle5196"
         style="opacity:1;fill:#cddc39;fill-opacity:1;stroke:none;stroke-width:0.05069799;stroke-miterlimit:4;stroke-dasharray:none;stroke-opacity:1"
         inkscape:export-filename="/home/juergen/Schreibtisch/path4136.png"
         inkscape:export-xdpi="648"
         inkscape:export-ydpi="648" />
    </clipPath>
    <clipPath
       clipPathUnits="userSpaceOnUse"
       id="clipPath6175">
      <circle
         r="10"
         cy="10.000005"
         cx="9.9999781"
         id="circle6177"
         style="opacity:1;fill:#f44336;fill-opacity:1;stroke:none;stroke-width:0.05069799;stroke-miterlimit:4;stroke-dasharray:none;stroke-opacity:1"
         inkscape:export-filename="/home/juergen/Schreibtisch/path4136.png"
         inkscape:export-xdpi="648"
         inkscape:export-ydpi="648" />
    </clipPath>
    <clipPath
       id="clipPath7176"
       clipPathUnits="userSpaceOnUse">
      <circle
         r="10"
         cy="10.000005"
         cx="9.9999781"
         id="circle7178"
         style="opacity:1;fill:#9c27b0;fill-opacity:1;stroke:none;stroke-width:0.05069799;stroke-miterlimit:4;stroke-dasharray:none;stroke-opacity:1"
         inkscape:export-filename="/home/juergen/Schreibtisch/path4136.png"
         inkscape:export-xdpi="648"
         inkscape:export-ydpi="648" />
    </clipPath>
    <clipPath
       clipPathUnits="userSpaceOnUse"
       id="clipPath8165">
      <circle
         r="10"
         cy="10.000005"
         cx="9.9999781"
         id="circle8167"
         style="opacity:1;fill:#ffc107;fill-opacity:1;stroke:none;stroke-width:0.05069799;stroke-miterlimit:4;stroke-dasharray:none;stroke-opacity:1"
         inkscape:export-filename="/home/juergen/Schreibtisch/path4136.png"
         inkscape:export-xdpi="648"
         inkscape:export-ydpi="648" />
    </clipPath>
    <clipPath
       id="clipPath9162"
       clipPathUnits="userSpaceOnUse">
      <circle
         r="10"
         cy="10.000005"
         cx="9.9999781"
         id="circle9164"
         style="opacity:1;fill:#ff9800;fill-opacity:1;stroke:none;stroke-width:0.05069799;stroke-miterlimit:4;stroke-dasharray:none;stroke-opacity:1"
         inkscape:export-filename="/home/juergen/Schreibtisch/path4136.png"
         inkscape:export-xdpi="648"
         inkscape:export-ydpi="648" />
    </clipPath>
    <clipPath
       clipPathUnits="userSpaceOnUse"
       id="clipPath5147">
      <circle
         r="10"
         cy="10.000005"
         cx="9.9999781"
         id="circle5149"
         style="opacity:1;fill:#ff9800;fill-opacity:1;stroke:none;stroke-width:0.05069799;stroke-miterlimit:4;stroke-dasharray:none;stroke-opacity:1"
         inkscape:export-filename="/home/juergen/Schreibtisch/path4136.png"
         inkscape:export-xdpi="648"
         inkscape:export-ydpi="648" />
    </clipPath>
    <clipPath
       id="clipPath6144"
       clipPathUnits="userSpaceOnUse">
      <circle
         r="10"
         cy="10.000005"
         cx="9.9999781"
         id="circle6146"
         style="opacity:1;fill:#e91e63;fill-opacity:1;stroke:none;stroke-width:0.05069799;stroke-miterlimit:4;stroke-dasharray:none;stroke-opacity:1"
         inkscape:export-filename="/home/juergen/Schreibtisch/path4136.png"
         inkscape:export-xdpi="648"
         inkscape:export-ydpi="648" />
    </clipPath>
    <clipPath
       clipPathUnits="userSpaceOnUse"
       id="clipPath7143">
      <circle
         r="10"
         cy="10.000005"
         cx="9.9999781"
         id="circle7145"
         style="opacity:1;fill:#ffeb3b;fill-opacity:1;stroke:none;stroke-width:0.05069799;stroke-miterlimit:4;stroke-dasharray:none;stroke-opacity:1"
         inkscape:export-filename="/home/juergen/Schreibtisch/path4136.png"
         inkscape:export-xdpi="648"
         inkscape:export-ydpi="648" />
    </clipPath>
    <clipPath
       id="clipPath8148"
       clipPathUnits="userSpaceOnUse">
      <circle
         r="10"
         cy="10.000005"
         cx="9.9999781"
         id="circle8150"
         style="opacity:1;fill:#9c27b0;fill-opacity:1;stroke:none;stroke-width:0.05069799;stroke-miterlimit:4;stroke-dasharray:none;stroke-opacity:1"
         inkscape:export-filename="/home/juergen/Schreibtisch/path4136.png"
         inkscape:export-xdpi="648"
         inkscape:export-ydpi="648" />
    </clipPath>
    <clipPath
       clipPathUnits="userSpaceOnUse"
       id="clipPath5171">
      <circle
         r="10"
         cy="10.000005"
         cx="9.9999781"
         id="circle5173"
         style="opacity:1;fill:#f44336;fill-opacity:1;stroke:none;stroke-width:0.05069799;stroke-miterlimit:4;stroke-dasharray:none;stroke-opacity:1"
         inkscape:export-filename="/home/juergen/Schreibtisch/path4136.png"
         inkscape:export-xdpi="648"
         inkscape:export-ydpi="648" />
    </clipPath>
    <clipPath
       id="clipPath6181"
       clipPathUnits="userSpaceOnUse">
      <circle
         r="10"
         cy="10.000005"
         cx="9.9999781"
         id="circle6183"
         style="opacity:1;fill:#2196f3;fill-opacity:1;stroke:none;stroke-width:0.05069799;stroke-miterlimit:4;stroke-dasharray:none;stroke-opacity:1"
         inkscape:export-filename="/home/juergen/Schreibtisch/path4136.png"
         inkscape:export-xdpi="648"
         inkscape:export-ydpi="648" />
    </clipPath>
    <clipPath
       clipPathUnits="userSpaceOnUse"
       id="clipPath7195">
      <circle
         r="10"
         cy="10.000005"
         cx="9.9999781"
         id="circle7197"
         style="opacity:1;fill:#795548;fill-opacity:1;stroke:none;stroke-width:0.05069799;stroke-miterlimit:4;stroke-dasharray:none;stroke-opacity:1"
         inkscape:export-filename="/home/juergen/Schreibtisch/path4136.png"
         inkscape:export-xdpi="648"
         inkscape:export-ydpi="648" />
    </clipPath>
    <clipPath
       id="clipPath8213"
       clipPathUnits="userSpaceOnUse">
      <circle
         r="10"
         cy="10.000005"
         cx="9.9999781"
         id="circle8215"
         style="opacity:1;fill:#f44336;fill-opacity:1;stroke:none;stroke-width:0.05069799;stroke-miterlimit:4;stroke-dasharray:none;stroke-opacity:1"
         inkscape:export-filename="/home/juergen/Schreibtisch/path4136.png"
         inkscape:export-xdpi="648"
         inkscape:export-ydpi="648" />
    </clipPath>
    <clipPath
       clipPathUnits="userSpaceOnUse"
       id="clipPath9235">
      <circle
         r="10"
         cy="10.000005"
         cx="9.9999781"
         id="circle9237"
         style="opacity:1;fill:#f44336;fill-opacity:1;stroke:none;stroke-width:0.05069799;stroke-miterlimit:4;stroke-dasharray:none;stroke-opacity:1"
         inkscape:export-filename="/home/juergen/Schreibtisch/path4136.png"
         inkscape:export-xdpi="648"
         inkscape:export-ydpi="648" />
    </clipPath>
    <clipPath
       id="clipPath5965"
       clipPathUnits="userSpaceOnUse">
      <circle
         r="10"
         cy="10.000005"
         cx="9.9999781"
         id="circle5967"
         style="opacity:1;fill:#009688;fill-opacity:1;stroke:none;stroke-width:0.05069799;stroke-miterlimit:4;stroke-dasharray:none;stroke-opacity:1"
         inkscape:export-filename="/home/juergen/Schreibtisch/path4136.png"
         inkscape:export-xdpi="648"
         inkscape:export-ydpi="648" />
    </clipPath>
    <clipPath
       clipPathUnits="userSpaceOnUse"
       id="clipPath7910">
      <circle
         r="10"
         cy="10.000005"
         cx="9.9999781"
         id="circle7912"
         style="opacity:1;fill:#ffeb3b;fill-opacity:1;stroke:none;stroke-width:0.05069799;stroke-miterlimit:4;stroke-dasharray:none;stroke-opacity:1"
         inkscape:export-filename="/home/juergen/Schreibtisch/path4136.png"
         inkscape:export-xdpi="648"
         inkscape:export-ydpi="648" />
    </clipPath>
    <clipPath
       id="clipPath8990"
       clipPathUnits="userSpaceOnUse">
      <circle
         r="10"
         cy="10.000005"
         cx="9.9999781"
         id="circle8992"
         style="opacity:1;fill:#ffc107;fill-opacity:1;stroke:none;stroke-width:0.05069799;stroke-miterlimit:4;stroke-dasharray:none;stroke-opacity:1"
         inkscape:export-filename="/home/juergen/Schreibtisch/path4136.png"
         inkscape:export-xdpi="648"
         inkscape:export-ydpi="648" />
    </clipPath>
    <clipPath
       clipPathUnits="userSpaceOnUse"
       id="clipPath10267">
      <circle
         r="10"
         cy="10.000005"
         cx="9.9999781"
         id="circle10269"
         style="opacity:1;fill:#80cbc4;fill-opacity:1;stroke:none;stroke-width:0.05069799;stroke-miterlimit:4;stroke-dasharray:none;stroke-opacity:1"
         inkscape:export-filename="/home/juergen/Schreibtisch/path4136.png"
         inkscape:export-xdpi="648"
         inkscape:export-ydpi="648" />
    </clipPath>
    <clipPath
       id="clipPath11390"
       clipPathUnits="userSpaceOnUse">
      <circle
         r="10"
         cy="10.000005"
         cx="9.9999781"
         id="circle11392"
         style="opacity:1;fill:#3f51b5;fill-opacity:1;stroke:none;stroke-width:0.05069799;stroke-miterlimit:4;stroke-dasharray:none;stroke-opacity:1"
         inkscape:export-filename="/home/juergen/Schreibtisch/path4136.png"
         inkscape:export-xdpi="648"
         inkscape:export-ydpi="648" />
    </clipPath>
    <linearGradient
       inkscape:collect="always"
       xlink:href="#linearGradient12498"
       id="linearGradient12504"
       x1="10.101525"
       y1="10.087878"
       x2="19.950512"
       y2="20"
       gradientUnits="userSpaceOnUse" />
    <clipPath
       clipPathUnits="userSpaceOnUse"
       id="clipPath12508">
      <circle
         r="10"
         cy="10.000005"
         cx="9.9999781"
         id="circle12510"
         style="opacity:1;fill:#2196f3;fill-opacity:1;stroke:none;stroke-width:0.05069799;stroke-miterlimit:4;stroke-dasharray:none;stroke-opacity:1"
         inkscape:export-filename="/home/juergen/Schreibtisch/path4136.png"
         inkscape:export-xdpi="648"
         inkscape:export-ydpi="648" />
    </clipPath>
  </defs>
  <metadata
     id="metadata7">
    <rdf:RDF>
      <cc:Work
         rdf:about="">
        <dc:format>image/svg+xml</dc:format>
        <dc:type
           rdf:resource="http://purl.org/dc/dcmitype/StillImage" />
        <dc:title></dc:title>
      </cc:Work>
    </rdf:RDF>
  </metadata>
  <g
     inkscape:label="Hintergrund"
     inkscape:groupmode="layer"
     id="layer1"
     transform="translate(1058.1428,-861.93365)">
    <circle
       inkscape:export-ydpi="648"
       inkscape:export-xdpi="648"
       inkscape:export-filename="/home/juergen/Schreibtisch/path4136.png"
       style="opacity:1;fill:#cddc39;fill-opacity:1;stroke:none;stroke-width:0.05069799;stroke-miterlimit:4;stroke-dasharray:none;stroke-opacity:1"
       id="path4136"
       cx="-1048.1428"
       cy="871.93365"
       r="10" />
    <g
       transform="matrix(0.01119865,0,0,0.01119865,-1053.404,867.49955)"
       id="g9099" />
    <g
       transform="matrix(0.01119865,0,0,0.01119865,-1053.404,867.49955)"
       id="g9101" />
    <g
       transform="matrix(0.01119865,0,0,0.01119865,-1053.404,867.49955)"
       id="g9103" />
    <g
       transform="matrix(0.01119865,0,0,0.01119865,-1053.404,867.49955)"
       id="g9105" />
    <g
       transform="matrix(0.01119865,0,0,0.01119865,-1053.404,867.49955)"
       id="g9107" />
    <g
       transform="matrix(0.01119865,0,0,0.01119865,-1053.404,867.49955)"
       id="g9109" />
    <g
       transform="matrix(0.01119865,0,0,0.01119865,-1053.404,867.49955)"
       id="g9111" />
    <g
       transform="matrix(0.01119865,0,0,0.01119865,-1053.404,867.49955)"
       id="g9113" />
    <g
       transform="matrix(0.01119865,0,0,0.01119865,-1053.404,867.49955)"
       id="g9115" />
    <g
       transform="matrix(0.01119865,0,0,0.01119865,-1053.404,867.49955)"
       id="g9117" />
    <g
       transform="matrix(0.01119865,0,0,0.01119865,-1053.404,867.49955)"
       id="g9119" />
    <g
       transform="matrix(0.01119865,0,0,0.01119865,-1053.404,867.49955)"
       id="g9121" />
    <g
       transform="matrix(0.01119865,0,0,0.01119865,-1053.404,867.49955)"
       id="g9123" />
    <g
       transform="matrix(0.01119865,0,0,0.01119865,-1053.404,867.49955)"
       id="g9125" />
    <g
       transform="matrix(0.01119865,0,0,0.01119865,-1053.404,867.49955)"
       id="g9127" />
    <path
       id="path9227"
       d="m -1055.5892,857.16579 24,0 0,24 -24,0 z"
       inkscape:connector-curvature="0"
       style="fill:none" />
    <path
       style="fill:none"
       inkscape:connector-curvature="0"
       d="m -1056.6951,862.86258 24,0 0,24 -24,0 0,-24 z"
       id="path10344" />
    <path
       style="fill:url(#linearGradient12504);fill-opacity:1;stroke-width:1.33333004;stroke-linejoin:miter"
       d="M 10.148438 5.1484375 C 7.6631375 5.1484375 5.6484375 7.1631375 5.6484375 9.6484375 L 5.6484375 15.148438 L 5.796875 15 L 5.796875 15.296875 L 5.9453125 15.148438 L 5.9453125 15.445312 L 6.0917969 15.298828 L 6.0917969 15.591797 L 6.2363281 15.447266 L 6.2363281 15.736328 L 6.3828125 15.589844 L 6.3828125 15.882812 L 6.5273438 15.738281 L 6.5273438 16.027344 L 6.6699219 15.884766 L 6.6699219 16.169922 L 6.8125 16.027344 L 6.8125 16.3125 L 6.9550781 16.169922 L 6.9550781 16.455078 L 7.0976562 16.3125 L 7.0976562 16.597656 L 7.2382812 16.457031 L 7.2382812 16.738281 L 7.3769531 16.599609 L 7.3769531 16.876953 L 7.5175781 16.736328 L 7.5175781 17.017578 L 7.65625 16.878906 L 7.65625 17.154297 L 7.7929688 17.017578 L 7.7929688 17.292969 L 7.9296875 17.15625 L 7.9296875 17.429688 L 8.0664062 17.292969 L 8.0664062 17.566406 L 8.2011719 17.431641 L 8.2011719 17.701172 L 8.3359375 17.566406 L 8.3359375 17.835938 L 8.4707031 17.701172 L 8.4707031 17.970703 L 8.6035156 17.837891 L 8.6035156 18.103516 L 8.7363281 17.970703 L 8.7363281 18.236328 L 8.8691406 18.103516 L 8.8691406 18.369141 L 9 18.238281 L 9 18.5 L 9.1289062 18.371094 L 9.1289062 18.628906 L 9.2597656 18.498047 L 9.2597656 18.759766 L 9.3886719 18.630859 L 9.3886719 18.888672 L 9.515625 18.761719 L 9.515625 19.015625 L 9.6425781 18.888672 L 9.6425781 19.142578 L 9.7695312 19.015625 L 9.7695312 19.269531 L 9.8964844 19.142578 L 9.8964844 19.396484 L 10.021484 19.271484 L 10.021484 19.521484 L 10.144531 19.398438 L 10.144531 19.644531 L 10.269531 19.519531 L 10.269531 19.769531 L 10.392578 19.646484 L 10.392578 19.892578 L 10.513672 19.771484 L 10.513672 20.013672 L 10.634766 19.892578 L 10.634766 20.134766 L 10.755859 20.013672 L 10.755859 20.255859 L 10.876953 20.134766 L 10.876953 20.376953 L 10.996094 20.257812 L 10.996094 20.496094 L 11.113281 20.378906 L 11.113281 20.613281 L 11.230469 20.496094 L 11.230469 20.730469 L 11.347656 20.613281 L 11.347656 20.847656 L 11.464844 20.730469 L 11.464844 20.964844 L 11.580078 20.849609 L 11.580078 21.080078 L 11.695312 20.964844 L 11.695312 21.195312 L 11.808594 21.082031 L 11.808594 21.308594 L 11.921875 21.195312 L 11.921875 21.421875 L 12.035156 21.308594 L 12.035156 21.535156 L 12.146484 21.423828 L 12.146484 21.646484 L 12.257812 21.535156 L 12.257812 21.757812 L 12.367188 21.648438 L 12.367188 21.867188 L 12.476562 21.757812 L 12.476562 21.976562 L 12.585938 21.867188 L 12.585938 22.085938 L 12.693359 21.978516 L 12.693359 22.193359 L 12.800781 22.085938 L 12.800781 22.300781 L 12.908203 22.193359 L 12.908203 22.408203 L 13.013672 22.302734 L 13.013672 22.513672 L 13.119141 22.408203 L 13.119141 22.619141 L 13.222656 22.515625 L 13.222656 22.722656 L 13.326172 22.619141 L 13.326172 22.826172 L 13.429688 22.722656 L 13.429688 22.929688 L 13.53125 22.828125 L 13.53125 23.03125 L 13.632812 22.929688 L 13.632812 23.132812 L 13.734375 23.03125 L 13.734375 23.234375 L 13.833984 23.134766 L 13.833984 23.333984 L 13.931641 23.236328 L 13.931641 23.431641 L 14.03125 23.332031 L 14.03125 23.53125 L 14.128906 23.433594 L 14.128906 23.628906 L 14.224609 23.533203 L 14.224609 23.724609 L 14.322266 23.626953 L 14.322266 23.822266 L 14.417969 23.726562 L 14.417969 23.916016 L 14.511719 23.822266 L 14.511719 24.011719 L 14.605469 23.917969 L 14.605469 24.105469 L 14.699219 24.011719 L 14.699219 24.199219 L 14.791016 24.107422 L 14.791016 24.291016 L 14.882812 24.199219 L 14.882812 24.382812 L 14.974609 24.291016 L 14.974609 24.474609 L 15.064453 24.384766 L 15.064453 24.564453 L 15.154297 24.474609 L 15.154297 24.654297 L 15.242188 24.566406 L 15.242188 24.742188 L 15.330078 24.654297 L 15.330078 24.830078 L 15.417969 24.742188 L 15.417969 24.917969 L 15.503906 24.832031 L 15.503906 25.003906 L 15.589844 24.917969 L 15.589844 25.089844 L 15.675781 25.003906 L 15.675781 25.175781 L 15.759766 25.091797 L 15.759766 25.259766 L 15.841797 25.177734 L 15.841797 25.341797 L 15.925781 25.257812 L 15.925781 25.425781 L 16.007812 25.34375 L 16.007812 25.507812 L 16.087891 25.427734 L 16.087891 25.587891 L 16.169922 25.505859 L 16.169922 25.669922 L 16.25 25.589844 L 16.25 25.75 L 16.328125 25.671875 L 16.328125 25.828125 L 16.40625 25.75 L 16.40625 25.90625 L 16.484375 25.828125 L 16.484375 25.984375 L 16.560547 25.908203 L 16.560547 26.060547 L 16.636719 25.984375 L 16.636719 26.136719 L 16.712891 26.060547 L 16.712891 26.212891 L 16.787109 26.138672 L 16.787109 26.287109 L 16.861328 26.212891 L 16.861328 26.361328 L 16.933594 26.289062 L 16.933594 26.433594 L 17.005859 26.361328 L 17.005859 26.505859 L 17.078125 26.433594 L 17.078125 26.578125 L 17.148438 26.507812 L 17.148438 26.648438 L 17.21875 26.578125 L 17.21875 26.71875 L 17.289062 26.648438 L 17.289062 26.789062 L 17.357422 26.720703 L 17.357422 26.857422 L 17.425781 26.789062 L 17.425781 26.925781 L 17.492188 26.859375 L 17.492188 26.992188 L 17.558594 26.925781 L 17.558594 27.058594 L 17.625 26.992188 L 17.625 27.125 L 17.689453 27.060547 L 17.689453 27.189453 L 17.753906 27.125 L 17.753906 27.253906 L 17.818359 27.189453 L 17.818359 27.318359 L 17.880859 27.255859 L 17.880859 27.380859 L 17.941406 27.320312 L 17.941406 27.441406 L 18.003906 27.378906 L 18.003906 27.503906 L 18.064453 27.443359 L 18.064453 27.564453 L 18.123047 27.505859 L 18.123047 27.623047 L 18.183594 27.5625 L 18.183594 27.683594 L 18.240234 27.626953 L 18.240234 27.740234 L 18.298828 27.681641 L 18.298828 27.798828 L 18.355469 27.742188 L 18.355469 27.855469 L 18.412109 27.798828 L 18.412109 27.912109 L 18.466797 27.857422 L 18.466797 27.966797 L 18.521484 27.912109 L 18.521484 28.021484 L 18.576172 27.966797 L 18.576172 28.076172 L 18.628906 28.023438 L 18.628906 28.128906 L 18.681641 28.076172 L 18.681641 28.181641 L 18.732422 28.130859 L 18.732422 28.232422 L 18.783203 28.181641 L 18.783203 28.283203 L 18.833984 28.232422 L 18.833984 28.333984 L 18.882812 28.285156 L 18.882812 28.382812 L 18.931641 28.333984 L 18.931641 28.431641 L 18.978516 28.384766 L 18.978516 28.478516 L 19.027344 28.429688 L 19.027344 28.527344 L 19.072266 28.482422 L 19.072266 28.572266 L 19.119141 28.525391 L 19.119141 28.619141 L 19.164062 28.574219 L 19.164062 28.664062 L 19.207031 28.621094 L 19.207031 28.707031 L 19.251953 28.662109 L 19.251953 28.751953 L 19.292969 28.710938 L 19.292969 28.792969 L 19.335938 28.75 L 19.335938 28.835938 L 19.376953 28.794922 L 19.376953 28.876953 L 19.417969 28.835938 L 19.417969 28.917969 L 19.457031 28.878906 L 19.457031 28.957031 L 19.496094 28.917969 L 19.496094 28.996094 L 19.535156 28.957031 L 19.535156 29.035156 L 19.572266 28.998047 L 19.572266 29.072266 L 19.609375 29.035156 L 19.609375 29.109375 L 19.644531 29.074219 L 19.644531 29.144531 L 19.679688 29.109375 L 19.679688 29.179688 L 19.714844 29.144531 L 19.714844 29.214844 L 19.748047 29.181641 L 19.748047 29.248047 L 19.78125 29.214844 L 19.78125 29.28125 L 19.814453 29.248047 L 19.814453 29.314453 L 19.845703 29.283203 L 19.845703 29.345703 L 19.875 29.316406 L 19.875 29.375 L 19.90625 29.34375 L 19.90625 29.40625 L 19.935547 29.376953 L 19.935547 29.435547 L 19.964844 29.40625 L 19.964844 29.464844 L 19.992188 29.4375 L 19.992188 29.492188 L 20.019531 29.464844 L 20.019531 29.519531 L 20.044922 29.494141 L 20.044922 29.544922 L 20.070312 29.519531 L 20.070312 29.570312 L 20.095703 29.544922 L 20.095703 29.595703 L 20.119141 29.572266 L 20.119141 29.619141 L 20.142578 29.595703 L 20.142578 29.642578 L 20.166016 29.619141 L 20.166016 29.666016 L 20.1875 29.644531 L 20.1875 29.6875 L 20.208984 29.666016 L 20.208984 29.708984 L 20.228516 29.689453 L 20.228516 29.728516 L 20.248047 29.708984 L 20.248047 29.748047 L 20.267578 29.728516 L 20.267578 29.767578 L 20.285156 29.75 L 20.285156 29.787109 L 20.302734 29.769531 L 20.302734 29.802734 L 20.320312 29.785156 L 20.320312 29.820312 L 20.335938 29.804688 L 20.335938 29.835938 L 20.351562 29.820312 L 20.351562 29.851562 L 20.365234 29.837891 L 20.365234 29.865234 L 20.378906 29.851562 L 20.378906 29.878906 L 20.392578 29.865234 L 20.392578 29.892578 L 20.404297 29.880859 L 20.404297 29.904297 L 20.416016 29.892578 L 20.416016 29.916016 L 20.427734 29.904297 L 20.427734 29.927734 L 20.4375 29.917969 L 20.4375 29.9375 L 20.447266 29.927734 L 20.447266 29.947266 L 20.455078 29.939453 L 20.455078 29.955078 L 20.462891 29.947266 L 20.462891 29.962891 L 20.470703 29.955078 L 20.470703 29.970703 L 20.476562 29.964844 L 20.476562 29.976562 L 20.482422 29.970703 L 20.482422 29.982422 L 20.486328 29.978516 L 20.486328 29.986328 L 20.490234 29.982422 L 20.490234 29.990234 L 20.494141 29.986328 L 20.494141 29.994141 L 20.496094 29.992188 L 20.496094 29.996094 L 20.498047 29.994141 L 20.498047 29.998047 L 20.5 29.996094 L 20.5 30 L 22 28.5 L 22.027344 28.527344 L 22.072266 28.572266 L 22.119141 28.619141 L 22.164062 28.664062 L 22.207031 28.707031 L 22.251953 28.751953 L 22.292969 28.792969 L 22.335938 28.835938 L 22.376953 28.876953 L 22.417969 28.917969 L 22.457031 28.957031 L 22.496094 28.996094 L 22.535156 29.035156 L 22.572266 29.072266 L 22.609375 29.109375 L 22.644531 29.144531 L 22.679688 29.179688 L 22.714844 29.214844 L 22.748047 29.248047 L 22.78125 29.28125 L 22.814453 29.314453 L 22.845703 29.345703 L 22.875 29.375 L 22.90625 29.40625 L 22.935547 29.435547 L 22.964844 29.464844 L 22.992188 29.492188 L 23.019531 29.519531 L 23.044922 29.544922 L 23.070312 29.570312 L 23.095703 29.595703 L 23.119141 29.619141 L 23.142578 29.642578 L 23.166016 29.666016 L 23.1875 29.6875 L 23.208984 29.708984 L 23.228516 29.728516 L 23.267578 29.767578 L 23.285156 29.785156 L 23.285156 29.787109 L 23.302734 29.802734 L 23.320312 29.820312 L 23.335938 29.835938 L 23.351562 29.851562 L 23.365234 29.865234 L 23.378906 29.878906 L 23.392578 29.892578 L 23.404297 29.904297 L 23.416016 29.916016 L 23.427734 29.927734 L 23.4375 29.9375 L 23.447266 29.947266 L 23.455078 29.955078 L 23.462891 29.962891 L 23.470703 29.970703 L 23.476562 29.976562 L 23.482422 29.982422 L 23.486328 29.986328 L 23.490234 29.990234 L 23.494141 29.994141 L 23.496094 29.996094 L 23.498047 29.998047 L 23.5 30 L 25 28.5 L 25.027344 28.527344 L 25.072266 28.572266 L 25.119141 28.619141 L 25.164062 28.664062 L 25.207031 28.707031 L 25.251953 28.751953 L 25.292969 28.792969 L 25.335938 28.835938 L 25.376953 28.876953 L 25.417969 28.917969 L 25.457031 28.957031 L 25.496094 28.996094 L 25.535156 29.035156 L 25.572266 29.072266 L 25.609375 29.109375 L 25.644531 29.144531 L 25.679688 29.179688 L 25.714844 29.214844 L 25.748047 29.248047 L 25.78125 29.28125 L 25.814453 29.314453 L 25.845703 29.345703 L 25.875 29.375 L 25.90625 29.40625 L 25.935547 29.435547 L 25.964844 29.464844 L 25.992188 29.492188 L 26.019531 29.519531 L 26.044922 29.544922 L 26.070312 29.570312 L 26.095703 29.595703 L 26.119141 29.619141 L 26.142578 29.642578 L 26.166016 29.666016 L 26.1875 29.6875 L 26.208984 29.708984 L 26.228516 29.728516 L 26.267578 29.767578 L 26.285156 29.785156 L 26.285156 29.787109 L 26.302734 29.802734 L 26.320312 29.820312 L 26.335938 29.835938 L 26.351562 29.851562 L 26.365234 29.865234 L 26.378906 29.878906 L 26.392578 29.892578 L 26.404297 29.904297 L 26.416016 29.916016 L 26.427734 29.927734 L 26.4375 29.9375 L 26.447266 29.947266 L 26.455078 29.955078 L 26.462891 29.962891 L 26.470703 29.970703 L 26.476562 29.976562 L 26.482422 29.982422 L 26.486328 29.986328 L 26.490234 29.990234 L 26.494141 29.994141 L 26.496094 29.996094 L 26.498047 29.998047 L 26.5 30 L 28 28.5 L 28.027344 28.527344 L 28.072266 28.572266 L 28.119141 28.619141 L 28.164062 28.664062 L 28.207031 28.707031 L 28.251953 28.751953 L 28.292969 28.792969 L 28.335938 28.835938 L 28.376953 28.876953 L 28.417969 28.917969 L 28.457031 28.957031 L 28.496094 28.996094 L 28.535156 29.035156 L 28.572266 29.072266 L 28.609375 29.109375 L 28.644531 29.144531 L 28.679688 29.179688 L 28.714844 29.214844 L 28.748047 29.248047 L 28.78125 29.28125 L 28.814453 29.314453 L 28.845703 29.345703 L 28.875 29.375 L 28.90625 29.40625 L 28.935547 29.435547 L 28.964844 29.464844 L 28.992188 29.492188 L 29.019531 29.519531 L 29.044922 29.544922 L 29.070312 29.570312 L 29.095703 29.595703 L 29.119141 29.619141 L 29.142578 29.642578 L 29.166016 29.666016 L 29.1875 29.6875 L 29.208984 29.708984 L 29.228516 29.728516 L 29.267578 29.767578 L 29.285156 29.785156 L 29.285156 29.787109 L 29.302734 29.802734 L 29.320312 29.820312 L 29.335938 29.835938 L 29.351562 29.851562 L 29.365234 29.865234 L 29.378906 29.878906 L 29.392578 29.892578 L 29.404297 29.904297 L 29.416016 29.916016 L 29.427734 29.927734 L 29.4375 29.9375 L 29.447266 29.947266 L 29.455078 29.955078 L 29.462891 29.962891 L 29.470703 29.970703 L 29.476562 29.976562 L 29.482422 29.982422 L 29.486328 29.986328 L 29.490234 29.990234 L 29.494141 29.994141 L 29.496094 29.996094 L 29.498047 29.998047 L 29.5 30 L 29.5 24.5 C 29.5 23.877729 29.3729 23.285124 29.144531 22.746094 C 29.073149 22.577607 28.975351 22.424823 28.884766 22.267578 C 28.830857 22.173999 28.790761 22.071602 28.730469 21.982422 C 28.730469 21.982422 28.728516 21.980469 28.728516 21.980469 C 28.726972 21.978184 28.724204 21.976892 28.722656 21.974609 C 28.562932 21.739428 28.381865 21.518827 28.181641 21.318359 C 28.180638 21.317357 28.178738 21.317408 28.177734 21.316406 C 28.177734 21.316406 28.177734 21.314453 28.177734 21.314453 C 28.177086 21.313806 28.17643 21.313147 28.175781 21.3125 C 28.175781 21.3125 28.173828 21.310547 28.173828 21.310547 C 28.173828 21.310547 28.171875 21.308594 28.171875 21.308594 C 28.171875 21.308594 28.169922 21.306641 28.169922 21.306641 C 28.169922 21.306641 28.167969 21.304688 28.167969 21.304688 C 28.167969 21.304688 28.166016 21.302734 28.166016 21.302734 C 28.166016 21.302734 28.164062 21.300781 28.164062 21.300781 C 28.164062 21.300781 28.162109 21.298828 28.162109 21.298828 C 28.162109 21.298828 28.160156 21.298828 28.160156 21.298828 C 28.160156 21.298828 28.160156 21.296875 28.160156 21.296875 C 28.160156 21.296875 28.158203 21.294922 28.158203 21.294922 C 28.15361 21.290309 28.149144 21.285843 28.144531 21.28125 C 28.143239 21.279951 28.141919 21.278641 28.140625 21.277344 C 28.139328 21.27605 28.138017 21.27473 28.136719 21.273438 C 28.130835 21.267521 28.125057 21.261743 28.119141 21.255859 C 28.117555 21.254264 28.114869 21.253546 28.113281 21.251953 C 28.113281 21.251953 28.111328 21.25 28.111328 21.25 C 28.110382 21.249063 28.110322 21.24703 28.109375 21.246094 C 28.107432 21.24415 28.105462 21.242174 28.103516 21.240234 C 28.101576 21.238288 28.0996 21.236318 28.097656 21.234375 C 28.090484 21.227154 28.08144 21.21811 28.074219 21.210938 C 28.074219 21.210938 28.072266 21.208984 28.072266 21.208984 C 28.066386 21.203065 28.0606 21.197293 28.054688 21.191406 C 28.048153 21.184844 28.039777 21.176444 28.033203 21.169922 C 28.030612 21.167331 28.027988 21.164694 28.025391 21.162109 C 28.020218 21.156911 28.014964 21.151657 28.009766 21.146484 C 28.007181 21.143887 28.004544 21.141263 28.001953 21.138672 C 27.993503 21.130134 27.98508 21.121752 27.976562 21.113281 C 27.967445 21.104113 27.958414 21.095027 27.949219 21.085938 C 27.939838 21.076447 27.931339 21.066048 27.921875 21.056641 C 27.913407 21.048121 27.903067 21.041655 27.894531 21.033203 C 27.889293 21.027949 27.88417 21.022806 27.878906 21.017578 C 27.871739 21.010362 27.864638 21.003261 27.857422 20.996094 C 27.849901 20.988522 27.841559 20.982128 27.833984 20.974609 C 27.828109 20.96869 27.824267 20.960965 27.818359 20.955078 C 27.806975 20.943575 27.79471 20.933256 27.783203 20.921875 C 27.776678 20.915322 27.770237 20.908857 27.763672 20.902344 C 27.755218 20.893822 27.746803 20.885407 27.738281 20.876953 C 27.731119 20.869734 27.724008 20.86264 27.716797 20.855469 C 27.705063 20.843604 27.693505 20.832047 27.681641 20.820312 C 27.675762 20.814401 27.669974 20.808614 27.664062 20.802734 C 27.651046 20.789558 27.638177 20.776688 27.625 20.763672 C 27.617183 20.755812 27.609437 20.748037 27.601562 20.740234 C 27.593113 20.731707 27.584689 20.723304 27.576172 20.714844 C 27.564445 20.702972 27.552873 20.691429 27.541016 20.679688 C 27.530565 20.669134 27.52032 20.658888 27.509766 20.648438 C 27.497379 20.635928 27.485188 20.623692 27.472656 20.611328 C 27.463552 20.602162 27.454495 20.593072 27.445312 20.583984 C 27.434289 20.572846 27.423248 20.561804 27.412109 20.550781 C 27.400734 20.539287 27.388451 20.52895 27.376953 20.517578 C 27.365227 20.505722 27.353653 20.494147 27.341797 20.482422 C 27.331715 20.472228 27.322678 20.46127 27.3125 20.451172 C 27.296925 20.435366 27.281431 20.419872 27.265625 20.404297 C 27.256526 20.395125 27.247459 20.386047 27.238281 20.376953 C 27.222706 20.361147 27.207212 20.345653 27.191406 20.330078 C 27.180031 20.318598 27.167748 20.308232 27.15625 20.296875 C 27.143243 20.283708 27.130355 20.270819 27.117188 20.257812 C 27.103526 20.243982 27.090011 20.23045 27.076172 20.216797 C 27.062521 20.202978 27.048983 20.189423 27.035156 20.175781 C 27.023437 20.163917 27.01185 20.152359 27 20.140625 C 26.984087 20.124446 26.969279 20.107735 26.953125 20.091797 C 26.937187 20.075642 26.920476 20.060835 26.904297 20.044922 C 26.892925 20.033424 26.882588 20.021141 26.871094 20.009766 C 26.854542 19.992928 26.837125 19.977514 26.820312 19.960938 C 26.803383 19.943766 26.786733 19.927055 26.769531 19.910156 C 26.757806 19.8983 26.746231 19.886726 26.734375 19.875 C 26.717186 19.857503 26.701065 19.839481 26.683594 19.822266 C 26.666378 19.804795 26.648357 19.788673 26.630859 19.771484 C 26.616213 19.756657 26.600787 19.743139 26.585938 19.728516 C 26.571311 19.713663 26.557799 19.698243 26.542969 19.683594 C 26.522869 19.663108 26.502908 19.643147 26.482422 19.623047 C 26.467493 19.607934 26.45264 19.593026 26.4375 19.578125 C 26.421945 19.56232 26.406411 19.546825 26.390625 19.53125 C 26.370525 19.510764 26.350564 19.490803 26.330078 19.470703 C 26.315792 19.456223 26.301589 19.442021 26.287109 19.427734 C 26.265738 19.405926 26.244464 19.384653 26.222656 19.363281 C 26.20645 19.346855 26.190284 19.33063 26.173828 19.314453 C 26.155712 19.296025 26.137569 19.277881 26.119141 19.259766 C 26.100674 19.24098 26.081292 19.223539 26.0625 19.205078 C 26.043687 19.185927 26.02501 19.167251 26.005859 19.148438 C 25.988682 19.130951 25.972538 19.112908 25.955078 19.095703 C 25.934072 19.074241 25.914007 19.05229 25.892578 19.03125 C 25.873176 19.011489 25.853746 18.992058 25.833984 18.972656 C 25.812592 18.950868 25.789406 18.931507 25.767578 18.910156 C 25.749386 18.891683 25.731397 18.873627 25.712891 18.855469 C 25.694088 18.836306 25.67539 18.817654 25.65625 18.798828 C 25.632623 18.774673 25.610099 18.750183 25.585938 18.726562 C 25.568745 18.709094 25.550677 18.692968 25.533203 18.675781 C 25.508599 18.650596 25.48417 18.626167 25.458984 18.601562 C 25.439515 18.581768 25.42022 18.562401 25.400391 18.542969 C 25.379034 18.521176 25.35773 18.499872 25.335938 18.478516 C 25.31423 18.456365 25.291689 18.435763 25.269531 18.414062 C 25.247831 18.391905 25.227229 18.369363 25.205078 18.347656 C 25.182742 18.324837 25.159532 18.303592 25.136719 18.28125 C 25.114377 18.258436 25.093132 18.235226 25.070312 18.212891 C 25.047687 18.189775 25.025069 18.167157 25.001953 18.144531 C 24.980609 18.122725 24.95928 18.101449 24.9375 18.080078 C 24.912911 18.054878 24.888451 18.030479 24.863281 18.005859 C 24.83802 17.980033 24.812981 17.954902 24.787109 17.929688 C 24.767024 17.909217 24.747034 17.889226 24.726562 17.869141 C 24.699428 17.841298 24.672374 17.814244 24.644531 17.787109 C 24.62187 17.763985 24.599324 17.741383 24.576172 17.71875 C 24.551928 17.693951 24.52676 17.67072 24.501953 17.646484 C 24.477366 17.621318 24.452901 17.596852 24.427734 17.572266 C 24.402858 17.546802 24.378986 17.520964 24.353516 17.496094 C 24.328646 17.470624 24.302807 17.446751 24.277344 17.421875 C 24.251843 17.395741 24.227297 17.369259 24.201172 17.34375 C 24.175663 17.317624 24.14918 17.293079 24.123047 17.267578 C 24.097195 17.241085 24.071416 17.215305 24.044922 17.189453 C 24.020702 17.164632 23.99744 17.139492 23.972656 17.115234 C 23.942998 17.084728 23.913319 17.055049 23.882812 17.025391 C 23.859546 17.00162 23.836284 16.97833 23.8125 16.955078 C 23.782491 16.924211 23.75158 16.895233 23.720703 16.865234 C 23.695462 16.839428 23.670383 16.814258 23.644531 16.789062 C 23.618695 16.762552 23.592885 16.736806 23.566406 16.710938 C 23.536057 16.6797 23.505847 16.64949 23.474609 16.619141 C 23.449712 16.593655 23.425882 16.56786 23.400391 16.542969 C 23.369122 16.510767 23.336899 16.480476 23.304688 16.449219 C 23.27818 16.422086 23.25179 16.395599 23.224609 16.369141 C 23.196232 16.339988 23.167825 16.31158 23.138672 16.283203 C 23.109945 16.253691 23.080302 16.225983 23.050781 16.197266 C 23.022064 16.167744 22.994356 16.138102 22.964844 16.109375 C 22.937124 16.080864 22.90932 16.053162 22.880859 16.025391 C 22.847995 15.991481 22.815159 15.958646 22.78125 15.925781 C 22.754759 15.898632 22.728337 15.872179 22.701172 15.845703 C 22.668307 15.811794 22.635472 15.778958 22.601562 15.746094 C 22.572816 15.716598 22.543213 15.688857 22.513672 15.660156 C 22.483344 15.628942 22.45309 15.598686 22.421875 15.568359 C 22.391259 15.536847 22.361598 15.505217 22.330078 15.474609 C 22.29947 15.443089 22.26784 15.413428 22.236328 15.382812 C 22.206391 15.351962 22.177288 15.321001 22.146484 15.291016 C 22.11364 15.257086 22.080764 15.224291 22.046875 15.191406 C 22.015267 15.158834 21.983745 15.127311 21.951172 15.095703 C 21.917648 15.061156 21.884218 15.027602 21.849609 14.994141 C 21.818966 14.962659 21.787406 14.93292 21.755859 14.902344 C 21.725262 14.870812 21.695565 14.839222 21.664062 14.808594 C 21.629964 14.773326 21.595773 14.739219 21.560547 14.705078 C 21.527682 14.671169 21.494847 14.638333 21.460938 14.605469 C 21.426446 14.569881 21.39111 14.536389 21.355469 14.501953 C 21.323598 14.46915 21.292616 14.436119 21.259766 14.404297 C 21.226295 14.369745 21.190805 14.338155 21.15625 14.304688 C 21.122433 14.269773 21.089611 14.23498 21.054688 14.201172 C 21.020591 14.165951 20.986394 14.131752 20.951172 14.097656 C 20.917076 14.062435 20.882878 14.028236 20.847656 13.994141 C 20.812924 13.95826 20.778088 13.923384 20.742188 13.888672 C 20.707455 13.852792 20.672619 13.817915 20.636719 13.783203 C 20.601986 13.747323 20.567151 13.712446 20.53125 13.677734 C 20.495901 13.641174 20.460389 13.605661 20.423828 13.570312 C 20.388479 13.533753 20.352967 13.498239 20.316406 13.462891 C 20.280709 13.425969 20.243964 13.391154 20.207031 13.355469 C 20.171346 13.318536 20.136531 13.281791 20.099609 13.246094 C 20.063296 13.208492 20.025874 13.173041 19.988281 13.136719 C 19.951959 13.099126 19.916508 13.061704 19.878906 13.025391 C 19.843579 12.988807 19.808024 12.953341 19.771484 12.917969 C 19.731675 12.876616 19.691744 12.836684 19.650391 12.796875 C 19.614669 12.759974 19.577973 12.725117 19.541016 12.689453 C 19.50373 12.650818 19.46637 12.613457 19.427734 12.576172 C 19.389814 12.536877 19.351817 12.498836 19.3125 12.460938 C 19.274579 12.421642 19.236583 12.383601 19.197266 12.345703 C 19.160965 12.308087 19.125472 12.270711 19.087891 12.234375 C 19.048106 12.192998 19.008125 12.153116 18.966797 12.113281 C 18.926613 12.071591 18.885503 12.032307 18.84375 11.992188 C 18.808064 11.955255 18.773249 11.91851 18.736328 11.882812 C 18.695646 11.840451 18.65558 11.79856 18.613281 11.757812 C 18.572534 11.715514 18.530643 11.675447 18.488281 11.634766 C 18.451968 11.597163 18.414546 11.561713 18.376953 11.525391 C 18.333971 11.480603 18.290881 11.437514 18.246094 11.394531 C 18.207534 11.354576 18.168909 11.315854 18.128906 11.277344 C 18.088457 11.235323 18.047902 11.194724 18.005859 11.154297 C 17.967062 11.113995 17.928936 11.073993 17.888672 11.035156 C 17.84478 10.989396 17.799681 10.946221 17.753906 10.902344 C 17.714713 10.86173 17.67545 10.822323 17.634766 10.783203 C 17.593392 10.740173 17.550856 10.699564 17.507812 10.658203 C 17.467723 10.616483 17.428378 10.575309 17.386719 10.535156 C 17.342207 10.488719 17.298403 10.442936 17.251953 10.398438 C 17.213142 10.35815 17.17309 10.320071 17.132812 10.28125 C 17.087347 10.23376 17.041631 10.188044 16.994141 10.142578 C 16.954971 10.10194 16.915661 10.062583 16.875 10.023438 C 16.830803 9.9772723 16.786346 9.9329247 16.740234 9.8886719 C 16.697252 9.8438843 16.654163 9.800795 16.609375 9.7578125 C 16.564487 9.7110395 16.519511 9.6658966 16.472656 9.6210938 C 16.431253 9.5780879 16.388774 9.5374292 16.345703 9.4960938 C 16.301857 9.4503534 16.258618 9.4051881 16.212891 9.3613281 C 16.170646 9.3172852 16.127975 9.2747211 16.083984 9.2324219 C 16.036932 9.1832144 15.988676 9.1368796 15.939453 9.0898438 C 15.896434 9.0450753 15.853418 9.0019462 15.808594 8.9589844 C 15.764114 8.9125803 15.720243 8.8667341 15.673828 8.8222656 C 15.62936 8.7758506 15.583513 8.7319798 15.537109 8.6875 C 15.493292 8.6417338 15.449996 8.5966213 15.404297 8.5527344 C 15.357622 8.5038619 15.310534 8.4568905 15.261719 8.4101562 C 15.216253 8.3626659 15.170537 8.3169499 15.123047 8.2714844 C 15.077295 8.2236947 15.032177 8.1765984 14.984375 8.1308594 C 14.938349 8.0827577 14.891852 8.0362599 14.84375 7.9902344 C 14.796108 7.9404439 14.74713 7.8932678 14.697266 7.8457031 C 14.654038 7.8006383 14.609507 7.7580821 14.564453 7.7148438 C 14.514598 7.6625434 14.46441 7.6123548 14.412109 7.5625 C 14.368263 7.5167596 14.325024 7.4715944 14.279297 7.4277344 C 14.230436 7.3764485 14.180119 7.3282339 14.128906 7.2792969 C 14.081523 7.2297101 14.033962 7.1821489 13.984375 7.1347656 C 13.936705 7.0848793 13.889743 7.0359372 13.839844 6.9882812 C 13.791902 6.9380821 13.743559 6.889739 13.693359 6.8417969 C 13.643803 6.7899073 13.592982 6.7408827 13.541016 6.6914062 C 13.494313 6.6426265 13.447276 6.5954704 13.398438 6.5488281 C 12.578921 5.6897431 11.42947 5.1484375 10.148438 5.1484375 z "
       transform="translate(-1058.1428,861.93365)"
       id="path11567"
       clip-path="url(#clipPath12508)" />
    <ellipse
       style="opacity:1;fill:#ff5722;fill-opacity:1;stroke:none;stroke-width:1.25;stroke-linecap:round;stroke-linejoin:round;stroke-miterlimit:4;stroke-dasharray:none;stroke-opacity:1"
       id="path12512"
       cx="-1049.7775"
       cy="871.29547"
       rx="1.5467961"
       ry="1.6730652" />
    <ellipse
       style="opacity:1;fill:#03a9f4;fill-opacity:1;stroke:none;stroke-width:1.25;stroke-linecap:round;stroke-linejoin:round;stroke-miterlimit:4;stroke-dasharray:none;stroke-opacity:1"
       id="path12514"
       cx="-1046.5576"
       cy="871.01135"
       rx="1.4836615"
       ry="1.3258252" />
    <path
       style="fill:#795548;fill-opacity:1;stroke-width:1.33333004;stroke-linejoin:miter"
       inkscape:connector-curvature="0"
       d="m -1048.1428,866.93365 c -2.4853,0 -4.5,2.0147 -4.5,4.5 l 0,5.5 1.5,-1.5 1.5,1.5 1.5,-1.5 1.5,1.5 1.5,-1.5 1.5,1.5 0,-5.5 c 0,-2.4853 -2.0147,-4.5 -4.5,-4.5 z m -1.5,3 c 0.5523,0 1,0.4477 1,1 0,0.5523 -0.4477,1 -1,1 -0.5523,0 -1,-0.4477 -1,-1 0,-0.5523 0.4477,-1 1,-1 z m 3,0 c 0.5523,0 1,0.4477 1,1 0,0.5523 -0.4477,1 -1,1 -0.5523,0 -1,-0.4477 -1,-1 0,-0.5523 0.4477,-1 1,-1 z"
       id="path11465" />
  </g>
  <g
     style="display:inline"
     inkscape:groupmode="layer"
     id="layer2"
     inkscape:label="Icon">
    <path
       d="m 3.9999777,4.0333382 12.0000003,0 0,11.9333328 -12.0000003,0 z"
       id="path4"
       inkscape:connector-curvature="0"
       style="fill:none" />
    <path
       style="fill:none"
       inkscape:connector-curvature="0"
       id="path9754"
       d="m 18.999978,19.033339 12,0 0,11.933333 -12,0 z" />
    <g
       id="g4860"
       transform="matrix(0.03184582,0,0,0.03184582,4.9999993,4.9999873)" />
    <g
       id="g4862"
       transform="matrix(0.03184582,0,0,0.03184582,4.9999993,4.9999873)" />
    <g
       id="g4864"
       transform="matrix(0.03184582,0,0,0.03184582,4.9999993,4.9999873)" />
    <g
       id="g4866"
       transform="matrix(0.03184582,0,0,0.03184582,4.9999993,4.9999873)" />
    <g
       id="g4868"
       transform="matrix(0.03184582,0,0,0.03184582,4.9999993,4.9999873)" />
    <g
       id="g4870"
       transform="matrix(0.03184582,0,0,0.03184582,4.9999993,4.9999873)" />
    <g
       id="g4872"
       transform="matrix(0.03184582,0,0,0.03184582,4.9999993,4.9999873)" />
    <g
       id="g4874"
       transform="matrix(0.03184582,0,0,0.03184582,4.9999993,4.9999873)" />
    <g
       id="g4876"
       transform="matrix(0.03184582,0,0,0.03184582,4.9999993,4.9999873)" />
    <g
       id="g4878"
       transform="matrix(0.03184582,0,0,0.03184582,4.9999993,4.9999873)" />
    <g
       id="g4880"
       transform="matrix(0.03184582,0,0,0.03184582,4.9999993,4.9999873)" />
    <g
       id="g4882"
       transform="matrix(0.03184582,0,0,0.03184582,4.9999993,4.9999873)" />
    <g
       id="g4884"
       transform="matrix(0.03184582,0,0,0.03184582,4.9999993,4.9999873)" />
    <g
       id="g4886"
       transform="matrix(0.03184582,0,0,0.03184582,4.9999993,4.9999873)" />
    <g
       id="g4888"
       transform="matrix(0.03184582,0,0,0.03184582,4.9999993,4.9999873)" />
    <path
       id="path6048"
       d="M 4.5000001,4.5000001 15.5,4.5000001 15.5,15.5 4.5000001,15.5 Z"
       inkscape:connector-curvature="0"
       style="fill:none" />
    <path
       style="fill:none"
       inkscape:connector-curvature="0"
       d="m 19.5,19.5 11,0 0,11 -11,0 z"
       id="path6064" />
    <path
       style="fill:none"
       inkscape:connector-curvature="0"
       d="m 5.6339285,-4.0982141 23.9999995,0 0,24.0000001 -23.9999995,0 z"
       id="path7985" />
  </g>
</svg>
