<?xml version="1.0" encoding="UTF-8" standalone="no"?>
<!-- Created with Inkscape (http://www.inkscape.org/) -->

<svg
   xmlns:dc="http://purl.org/dc/elements/1.1/"
   xmlns:cc="http://creativecommons.org/ns#"
   xmlns:rdf="http://www.w3.org/1999/02/22-rdf-syntax-ns#"
   xmlns:svg="http://www.w3.org/2000/svg"
   xmlns="http://www.w3.org/2000/svg"
   xmlns:xlink="http://www.w3.org/1999/xlink"
   xmlns:sodipodi="http://sodipodi.sourceforge.net/DTD/sodipodi-0.dtd"
   xmlns:inkscape="http://www.inkscape.org/namespaces/inkscape"
   sodipodi:docname="ClipStack.svg"
   inkscape:version="0.91 r13725"
   version="1.1"
   id="svg2"
   viewBox="0 0 20 20"
   height="5.6444445mm"
   width="5.6444445mm"
   inkscape:export-filename="/home/juergen/Projekte/Android/Android_Studio/Baumann_Theme/theme/src/main/assets/icons/res/drawable-xxhdpi/a064.png"
   inkscape:export-xdpi="648"
   inkscape:export-ydpi="648">
  <sodipodi:namedview
     inkscape:snap-to-guides="true"
     inkscape:snap-grids="true"
     inkscape:window-maximized="1"
     inkscape:window-y="24"
     inkscape:window-x="0"
     inkscape:window-height="744"
     inkscape:window-width="1366"
     inkscape:guide-bbox="true"
     showguides="true"
     fit-margin-bottom="0"
     fit-margin-right="0"
     fit-margin-left="0"
     fit-margin-top="0"
     showgrid="true"
     inkscape:current-layer="layer2"
     inkscape:document-units="px"
     inkscape:cy="5.0855067"
     inkscape:cx="9.8581457"
     inkscape:zoom="15.839192"
     inkscape:pageshadow="2"
     inkscape:pageopacity="0.0"
     borderopacity="1.0"
     bordercolor="#666666"
     pagecolor="#ffffff"
     id="base">
    <inkscape:grid
       type="xygrid"
       id="grid4138" />
    <sodipodi:guide
       position="10,18"
       orientation="0,1"
       id="guide4140" />
    <sodipodi:guide
       position="10,2"
       orientation="0,1"
       id="guide4142" />
    <sodipodi:guide
       position="2,10"
       orientation="1,0"
       id="guide4144" />
    <sodipodi:guide
       position="0,0"
       orientation="0,20"
       id="guide4146" />
    <sodipodi:guide
       position="20,0"
       orientation="-20,0"
       id="guide4148" />
    <sodipodi:guide
       position="20,20"
       orientation="0,-20"
       id="guide4150" />
    <sodipodi:guide
       position="0,20"
       orientation="20,0"
       id="guide4152" />
    <sodipodi:guide
       position="18,10"
       orientation="1,0"
       id="guide4154" />
    <sodipodi:guide
       position="10,10"
       orientation="-0.70710678,0.70710678"
       id="guide4156" />
    <sodipodi:guide
       position="10,10"
       orientation="0.70710678,0.70710678"
       id="guide4158" />
    <sodipodi:guide
       position="4,10"
       orientation="1,0"
       id="guide4160" />
    <sodipodi:guide
       position="16,10"
       orientation="1,0"
       id="guide4162" />
    <sodipodi:guide
       position="10,16"
       orientation="0,1"
       id="guide4164" />
    <sodipodi:guide
       position="10,4"
       orientation="0,1"
       id="guide4166" />
    <sodipodi:guide
       position="10,15"
       orientation="0,1"
       id="guide4168" />
    <sodipodi:guide
       position="10,5"
       orientation="0,1"
       id="guide4170" />
    <sodipodi:guide
       position="5,10"
       orientation="1,0"
       id="guide4172" />
    <sodipodi:guide
       position="15,10"
       orientation="1,0"
       id="guide4174" />
  </sodipodi:namedview>
  <defs
     id="defs4">
    <linearGradient
       inkscape:collect="always"
       id="linearGradient8103">
      <stop
         style="stop-color:#000000;stop-opacity:1;"
         offset="0"
         id="stop8105" />
      <stop
         style="stop-color:#000000;stop-opacity:0;"
         offset="1"
         id="stop8107" />
    </linearGradient>
    <clipPath
       id="clipPath12478"
       clipPathUnits="userSpaceOnUse">
      <circle
         r="10"
         cy="10.000005"
         cx="9.9999781"
         id="circle12480"
         style="opacity:1;fill:#2196f3;fill-opacity:1;stroke:none;stroke-width:0.05069799;stroke-miterlimit:4;stroke-dasharray:none;stroke-opacity:1" />
    </clipPath>
    <clipPath
       clipPathUnits="userSpaceOnUse"
       id="clipPath5790">
      <circle
         r="10"
         cy="10.000005"
         cx="9.9999781"
         id="circle5792"
         style="opacity:1;fill:#2196f3;fill-opacity:1;stroke:none;stroke-width:0.05069799;stroke-miterlimit:4;stroke-dasharray:none;stroke-opacity:1"
         inkscape:export-filename="/home/juergen/path4136.png"
         inkscape:export-xdpi="648"
         inkscape:export-ydpi="648" />
    </clipPath>
    <clipPath
       id="clipPath7690"
       clipPathUnits="userSpaceOnUse">
      <circle
         r="10"
         cy="10.000005"
         cx="9.9999781"
         id="circle7692"
         style="opacity:1;fill:#2196f3;fill-opacity:1;stroke:none;stroke-width:0.05069799;stroke-miterlimit:4;stroke-dasharray:none;stroke-opacity:1"
         inkscape:export-filename="/home/juergen/Schreibtisch/path4136.png"
         inkscape:export-xdpi="648"
         inkscape:export-ydpi="648" />
    </clipPath>
    <clipPath
       clipPathUnits="userSpaceOnUse"
       id="clipPath5119">
      <circle
         r="10"
         cy="10.000005"
         cx="9.9999781"
         id="circle5121"
         style="opacity:1;fill:#ff9800;fill-opacity:1;stroke:none;stroke-width:0.05069799;stroke-miterlimit:4;stroke-dasharray:none;stroke-opacity:1"
         inkscape:export-filename="/home/juergen/Schreibtisch/path4136.png"
         inkscape:export-xdpi="648"
         inkscape:export-ydpi="648" />
    </clipPath>
    <clipPath
       id="clipPath5125"
       clipPathUnits="userSpaceOnUse">
      <circle
         r="10"
         cy="10.000005"
         cx="9.9999781"
         id="circle5127"
         style="opacity:1;fill:#e91e63;fill-opacity:1;stroke:none;stroke-width:0.05069799;stroke-miterlimit:4;stroke-dasharray:none;stroke-opacity:1"
         inkscape:export-filename="/home/juergen/Schreibtisch/path4136.png"
         inkscape:export-xdpi="648"
         inkscape:export-ydpi="648" />
    </clipPath>
    <clipPath
       clipPathUnits="userSpaceOnUse"
       id="clipPath6122">
      <circle
         r="10"
         cy="10.000005"
         cx="9.9999781"
         id="circle6124"
         style="opacity:1;fill:#ffc107;fill-opacity:1;stroke:none;stroke-width:0.05069799;stroke-miterlimit:4;stroke-dasharray:none;stroke-opacity:1"
         inkscape:export-filename="/home/juergen/Schreibtisch/path4136.png"
         inkscape:export-xdpi="648"
         inkscape:export-ydpi="648" />
    </clipPath>
    <clipPath
       id="clipPath7115"
       clipPathUnits="userSpaceOnUse">
      <circle
         r="10"
         cy="10.000005"
         cx="9.9999781"
         id="circle7117"
         style="opacity:1;fill:#9c27b0;fill-opacity:1;stroke:none;stroke-width:0.05069799;stroke-miterlimit:4;stroke-dasharray:none;stroke-opacity:1"
         inkscape:export-filename="/home/juergen/Schreibtisch/path4136.png"
         inkscape:export-xdpi="648"
         inkscape:export-ydpi="648" />
    </clipPath>
    <linearGradient
       inkscape:collect="always"
       xlink:href="#linearGradient8103"
       id="linearGradient8109"
       x1="10"
       y1="10"
       x2="20"
       y2="20"
       gradientUnits="userSpaceOnUse" />
    <clipPath
       clipPathUnits="userSpaceOnUse"
       id="clipPath8114">
      <circle
         r="10"
         cy="10.000005"
         cx="9.9999781"
         id="circle8116"
         style="opacity:1;fill:#009688;fill-opacity:1;stroke:none;stroke-width:0.05069799;stroke-miterlimit:4;stroke-dasharray:none;stroke-opacity:1"
         inkscape:export-filename="/home/juergen/Schreibtisch/path4136.png"
         inkscape:export-xdpi="648"
         inkscape:export-ydpi="648" />
    </clipPath>
  </defs>
  <metadata
     id="metadata7">
    <rdf:RDF>
      <cc:Work
         rdf:about="">
        <dc:format>image/svg+xml</dc:format>
        <dc:type
           rdf:resource="http://purl.org/dc/dcmitype/StillImage" />
        <dc:title />
      </cc:Work>
    </rdf:RDF>
  </metadata>
  <g
     inkscape:label="Hintergrund"
     inkscape:groupmode="layer"
     id="layer1"
     transform="translate(1058.1428,-861.93365)">
    <circle
       inkscape:export-ydpi="648"
       inkscape:export-xdpi="648"
       inkscape:export-filename="/home/juergen/Schreibtisch/path4136.png"
       style="opacity:1;fill:#009688;fill-opacity:1;stroke:none;stroke-width:0.05069799;stroke-miterlimit:4;stroke-dasharray:none;stroke-opacity:1"
       id="path4136"
       cx="-1048.1428"
       cy="871.93365"
       r="10" />
  </g>
  <g
     style="display:inline"
     inkscape:groupmode="layer"
     id="layer2"
     inkscape:label="Icon">
    <path
       d="M 10.138672,5.1523438 C 9.3156756,5.1551358 8.6484376,5.8242843 8.6484375,6.6484375 l -2,0 c -0.2652164,0 -0.519495,0.1054324 -0.7070313,0.2929687 C 5.7538698,7.1289427 5.6484375,7.383221 5.6484375,7.6484375 l 0,6.5000005 c 0,0.265216 0.1054324,0.519495 0.2929687,0.707031 0.025786,0.02579 0.061677,0.03598 0.089844,0.05859 0.022618,0.02817 0.032808,0.06406 0.058594,0.08984 0.026047,0.02605 0.061369,0.03773 0.089844,0.06055 0.022244,0.02758 0.033304,0.0626 0.058594,0.08789 0.025396,0.0254 0.060184,0.03627 0.087891,0.05859 0.022324,0.02771 0.033198,0.0625 0.058594,0.08789 0.025005,0.02501 0.058689,0.03657 0.085938,0.05859 0.022028,0.02725 0.033589,0.06093 0.058594,0.08594 0.025396,0.0254 0.060183,0.03627 0.087891,0.05859 0.022324,0.02771 0.033198,0.0625 0.058594,0.08789 0.025005,0.02501 0.058689,0.03657 0.085938,0.05859 0.022028,0.02725 0.033589,0.06093 0.058594,0.08594 0.024744,0.02474 0.058995,0.03481 0.085938,0.05664 0.02183,0.02694 0.031897,0.06119 0.056641,0.08594 0.024744,0.02474 0.058995,0.03481 0.085938,0.05664 0.02183,0.02694 0.031897,0.06119 0.056641,0.08594 0.024744,0.02474 0.058995,0.03481 0.085937,0.05664 0.02183,0.02694 0.031896,0.06119 0.056641,0.08594 0.024744,0.02474 0.058995,0.03481 0.085938,0.05664 0.02183,0.02694 0.031896,0.06119 0.056641,0.08594 0.024354,0.02435 0.057499,0.03511 0.083984,0.05664 0.021531,0.02649 0.032287,0.05963 0.056641,0.08398 0.024093,0.02409 0.057805,0.03336 0.083984,0.05469 0.021331,0.02618 0.030595,0.05989 0.054688,0.08398 0.024354,0.02435 0.057499,0.03511 0.083984,0.05664 0.021531,0.02649 0.032287,0.05963 0.056641,0.08398 0.023051,0.02305 0.055112,0.03221 0.080078,0.05273 0.021751,0.02682 0.031999,0.0613 0.056641,0.08594 0.024642,0.02464 0.059115,0.03489 0.085938,0.05664 0.020525,0.02497 0.029683,0.05703 0.052734,0.08008 0.023703,0.0237 0.056307,0.03366 0.082031,0.05469 0.02103,0.02572 0.030985,0.05833 0.054687,0.08203 0.023703,0.0237 0.056307,0.03366 0.082031,0.05469 0.02103,0.02572 0.030985,0.05833 0.054688,0.08203 0.023312,0.02331 0.054809,0.03396 0.080078,0.05469 0.020728,0.02527 0.031375,0.05677 0.054688,0.08008 0.023312,0.02331 0.054809,0.03396 0.080078,0.05469 0.020728,0.02527 0.031375,0.05677 0.054687,0.08008 0.023312,0.02331 0.054809,0.03396 0.080078,0.05469 0.020728,0.02527 0.031375,0.05677 0.054688,0.08008 0.023051,0.02305 0.055112,0.03221 0.080078,0.05273 0.020525,0.02497 0.029683,0.05703 0.052734,0.08008 0.023051,0.02305 0.055112,0.03221 0.080078,0.05273 0.020525,0.02497 0.029683,0.05703 0.052734,0.08008 0.022009,0.02201 0.052412,0.03107 0.076172,0.05078 0.020954,0.02561 0.031083,0.05843 0.054687,0.08203 0.023604,0.0236 0.056422,0.03373 0.082031,0.05469 0.019708,0.02376 0.028772,0.05416 0.050781,0.07617 0.0224,0.0224 0.053914,0.03077 0.078125,0.05078 0.020015,0.02421 0.028381,0.05573 0.050781,0.07813 0.022661,0.02266 0.053612,0.03251 0.078125,0.05273 0.02022,0.02451 0.030074,0.05546 0.052734,0.07813 0.0224,0.0224 0.053914,0.03077 0.078125,0.05078 0.020015,0.02421 0.028381,0.05572 0.050781,0.07813 0.02201,0.02201 0.052412,0.03107 0.076172,0.05078 0.019708,0.02376 0.028772,0.05416 0.050781,0.07617 0.022009,0.02201 0.052412,0.03107 0.076172,0.05078 0.019708,0.02376 0.028772,0.05416 0.050781,0.07617 0.021918,0.02192 0.052518,0.03115 0.076172,0.05078 0.01971,0.02376 0.02877,0.05416 0.05078,0.07617 0.02201,0.02201 0.05241,0.03107 0.07617,0.05078 0.01971,0.02376 0.02877,0.05416 0.05078,0.07617 0.02162,0.02162 0.05091,0.03138 0.07422,0.05078 0.0194,0.02331 0.02916,0.0526 0.05078,0.07422 0.02097,0.02097 0.04971,0.02995 0.07227,0.04883 0.01964,0.02365 0.02886,0.05425 0.05078,0.07617 0.02198,0.02198 0.05245,0.0311 0.07617,0.05078 0.01888,0.02256 0.02786,0.0513 0.04883,0.07227 0.02136,0.02136 0.05121,0.02964 0.07422,0.04883 0.01919,0.02301 0.02747,0.05286 0.04883,0.07422 0.02097,0.02097 0.0497,0.02995 0.07226,0.04883 0.01888,0.02256 0.02786,0.0513 0.04883,0.07227 0.02097,0.02097 0.0497,0.02995 0.07226,0.04883 0.01888,0.02256 0.02786,0.0513 0.04883,0.07227 0.02097,0.02097 0.04971,0.02995 0.07227,0.04883 0.01888,0.02256 0.02786,0.0513 0.04883,0.07227 0.02097,0.02097 0.04971,0.02995 0.07227,0.04883 0.01888,0.02256 0.02786,0.0513 0.04883,0.07227 0.02071,0.02071 0.05001,0.0282 0.07227,0.04687 0.01867,0.02226 0.02617,0.05156 0.04687,0.07227 0.02032,0.02032 0.0485,0.02852 0.07031,0.04687 0.01836,0.02181 0.02656,0.05 0.04687,0.07031 0.01966,0.01967 0.04729,0.02709 0.06836,0.04492 0.01912,0.02291 0.02756,0.05295 0.04883,0.07422 0.02088,0.02088 0.0498,0.03002 0.07226,0.04883 0.01751,0.02063 0.02565,0.04713 0.04492,0.06641 0.02032,0.02032 0.0485,0.02852 0.07031,0.04687 0.01836,0.02181 0.02656,0.05 0.04687,0.07031 0.01993,0.01993 0.04699,0.02883 0.06836,0.04687 0.01804,0.02137 0.02695,0.04843 0.04687,0.06836 0.01993,0.01993 0.04699,0.02883 0.06836,0.04687 0.01804,0.02137 0.02695,0.04843 0.04687,0.06836 0.01966,0.01966 0.04729,0.02709 0.06836,0.04492 0.01783,0.02107 0.02526,0.04869 0.04492,0.06836 0.01967,0.01966 0.04729,0.02709 0.06836,0.04492 0.01783,0.02107 0.02526,0.04869 0.04492,0.06836 0.01966,0.01966 0.04729,0.02709 0.06836,0.04492 0.01783,0.02107 0.02526,0.04869 0.04492,0.06836 0.01928,0.01927 0.04578,0.02741 0.06641,0.04492 0.01751,0.02063 0.02565,0.04713 0.04492,0.06641 0.01928,0.01927 0.04578,0.02741 0.06641,0.04492 0.01751,0.02063 0.02565,0.04713 0.04492,0.06641 0.01901,0.01901 0.04608,0.02567 0.06641,0.04297 0.0173,0.02033 0.02395,0.04739 0.04297,0.06641 0.01901,0.01901 0.04608,0.02567 0.06641,0.04297 0.0173,0.02033 0.02396,0.04739 0.04297,0.06641 0.01901,0.01901 0.04608,0.02567 0.06641,0.04297 0.0173,0.02033 0.02395,0.04739 0.04297,0.06641 0.01862,0.01862 0.04457,0.02599 0.06445,0.04297 0.01698,0.01989 0.02435,0.04583 0.04297,0.06445 0.01862,0.01862 0.04457,0.02599 0.06445,0.04297 0.01698,0.01989 0.02435,0.04583 0.04297,0.06445 0.01862,0.01862 0.04457,0.02599 0.06445,0.04297 0.01698,0.01989 0.02435,0.04583 0.04297,0.06445 0.01823,0.01823 0.04306,0.02631 0.0625,0.04297 0.01666,0.01945 0.02474,0.04427 0.04297,0.0625 0.01823,0.01823 0.04305,0.02631 0.0625,0.04297 0.01666,0.01945 0.02473,0.04427 0.04297,0.0625 0.01797,0.01797 0.04335,0.02457 0.0625,0.04102 0.01644,0.01915 0.02304,0.04453 0.04102,0.0625 0.01797,0.01797 0.04335,0.02457 0.0625,0.04102 0.01644,0.01915 0.02304,0.04453 0.04102,0.0625 0.01797,0.01797 0.04335,0.02457 0.0625,0.04102 0.01644,0.01915 0.02304,0.04453 0.04101,0.0625 0.01758,0.01758 0.04184,0.0249 0.06055,0.04102 0.01612,0.01871 0.02343,0.04297 0.04102,0.06055 0.01758,0.01758 0.04184,0.0249 0.06055,0.04102 0.01612,0.01871 0.02343,0.04296 0.04101,0.06055 0.01693,0.01693 0.04062,0.02349 0.05859,0.03906 0.01638,0.01907 0.02312,0.0446 0.04102,0.0625 0.0179,0.0179 0.04343,0.02463 0.0625,0.04102 0.01557,0.01798 0.02213,0.04166 0.03906,0.05859 0.01693,0.01693 0.04062,0.02349 0.05859,0.03906 0.01557,0.01798 0.02213,0.04166 0.03906,0.05859 0.01732,0.01732 0.04213,0.02316 0.06055,0.03906 0.0159,0.01842 0.02174,0.04323 0.03906,0.06055 0.01693,0.01693 0.04062,0.02349 0.05859,0.03906 0.01557,0.01798 0.02213,0.04166 0.03906,0.05859 0.01654,0.01654 0.0391,0.02382 0.05664,0.03906 0.01524,0.01754 0.02252,0.0401 0.03906,0.05664 0.01693,0.01693 0.04062,0.02349 0.05859,0.03906 0.01557,0.01798 0.02213,0.04166 0.03906,0.05859 0.01589,0.01589 0.03787,0.02241 0.05469,0.03711 0.01552,0.0179 0.0222,0.04173 0.03906,0.05859 0.01686,0.01686 0.0407,0.02355 0.05859,0.03906 0.01469,0.01681 0.02122,0.0388 0.03711,0.05469 0.01628,0.01628 0.03939,0.02208 0.05664,0.03711 0.01503,0.01725 0.02083,0.04036 0.03711,0.05664 0.01628,0.01628 0.03939,0.02208 0.05664,0.03711 0.01503,0.01725 0.02083,0.04036 0.03711,0.05664 0.01589,0.01589 0.03787,0.02241 0.05469,0.03711 0.01469,0.01681 0.02122,0.0388 0.03711,0.05469 0.01589,0.01589 0.03787,0.02241 0.05469,0.03711 0.01469,0.01681 0.02122,0.0388 0.03711,0.05469 0.01589,0.01589 0.03787,0.02241 0.05469,0.03711 0.0147,0.01681 0.02122,0.0388 0.03711,0.05469 0.01563,0.01563 0.03816,0.02068 0.05469,0.03516 0.01447,0.01652 0.01953,0.03906 0.03516,0.05469 0.01563,0.01563 0.03816,0.02068 0.05469,0.03516 0.01447,0.01652 0.01953,0.03906 0.03516,0.05469 0.01524,0.01524 0.03665,0.02102 0.05273,0.03516 0.01414,0.01609 0.01992,0.0375 0.03516,0.05273 0.01524,0.01524 0.03665,0.02102 0.05274,0.03516 0.01414,0.01609 0.01992,0.0375 0.03516,0.05273 0.01524,0.01524 0.03665,0.02102 0.05273,0.03516 0.01414,0.01609 0.01992,0.0375 0.03516,0.05273 0.01485,0.01485 0.03512,0.02135 0.05078,0.03516 0.01381,0.01566 0.02031,0.03593 0.03516,0.05078 0.01485,0.01485 0.03512,0.02135 0.05078,0.03516 0.01381,0.01566 0.02031,0.03593 0.03516,0.05078 0.0142,0.0142 0.03389,0.01996 0.04883,0.0332 0.01408,0.01602 0.01998,0.03756 0.03516,0.05273 0.01517,0.01517 0.03672,0.02107 0.05273,0.03516 0.01324,0.01494 0.01901,0.03463 0.0332,0.04883 0.0142,0.0142 0.03389,0.01996 0.04883,0.0332 0.01324,0.01494 0.01901,0.03463 0.0332,0.04883 0.01453,0.01453 0.03548,0.01967 0.05078,0.0332 0.01358,0.01537 0.01862,0.0362 0.0332,0.05078 0.0142,0.0142 0.03389,0.01996 0.04883,0.0332 0.01324,0.01494 0.01901,0.03463 0.0332,0.04883 0.01355,0.01354 0.03265,0.01857 0.04687,0.03125 0.01353,0.0153 0.01868,0.03626 0.0332,0.05078 0.01453,0.01453 0.03548,0.01967 0.05078,0.0332 0.01268,0.01422 0.0177,0.03333 0.03125,0.04687 0.01393,0.01394 0.03418,0.01823 0.04883,0.03125 0.01302,0.01465 0.01731,0.03489 0.03125,0.04883 0.01354,0.01354 0.03265,0.01857 0.04687,0.03125 0.01268,0.01422 0.01771,0.03333 0.03125,0.04687 0.01354,0.01354 0.03265,0.01857 0.04687,0.03125 0.01268,0.01422 0.01771,0.03333 0.03125,0.04687 0.01354,0.01354 0.03266,0.01857 0.04687,0.03125 0.01268,0.01422 0.01771,0.03333 0.03125,0.04687 0.01315,0.01315 0.03113,0.01891 0.04492,0.03125 0.01234,0.01379 0.0181,0.03177 0.03125,0.04492 0.01315,0.01315 0.03113,0.01891 0.04492,0.03125 0.01234,0.01379 0.0181,0.03177 0.03125,0.04492 0.01315,0.01315 0.03113,0.01891 0.04492,0.03125 0.01234,0.01379 0.0181,0.03177 0.03125,0.04492 0.01289,0.01289 0.03142,0.01719 0.04492,0.0293 0.01211,0.01351 0.0164,0.03203 0.0293,0.04492 0.01289,0.01289 0.03142,0.01719 0.04492,0.0293 0.01211,0.01351 0.0164,0.03203 0.0293,0.04492 0.0125,0.0125 0.02989,0.01753 0.04297,0.0293 0.01177,0.01308 0.01679,0.03047 0.0293,0.04297 0.0125,0.0125 0.02989,0.01753 0.04297,0.0293 0.01177,0.01308 0.01679,0.03047 0.0293,0.04297 0.0125,0.0125 0.02989,0.01753 0.04297,0.0293 0.01177,0.01308 0.01679,0.03047 0.0293,0.04297 0.01224,0.01224 0.03017,0.01581 0.04297,0.02734 0.01153,0.0128 0.0151,0.03073 0.02734,0.04297 0.01224,0.01224 0.03017,0.01581 0.04297,0.02734 0.01153,0.0128 0.0151,0.03073 0.02734,0.04297 0.01224,0.01224 0.03017,0.01581 0.04297,0.02734 0.01153,0.0128 0.0151,0.03073 0.02734,0.04297 0.01185,0.01185 0.02865,0.01616 0.04102,0.02734 0.01119,0.01237 0.01549,0.02916 0.02734,0.04102 0.01185,0.01185 0.02864,0.01616 0.04102,0.02734 0.01119,0.01237 0.01549,0.02916 0.02734,0.04102 0.01146,0.01146 0.02711,0.0165 0.03906,0.02734 0.01084,0.01195 0.01588,0.0276 0.02734,0.03906 0.01146,0.01146 0.02712,0.0165 0.03906,0.02734 0.01084,0.01195 0.01588,0.0276 0.02734,0.03906 0.01146,0.01146 0.02712,0.0165 0.03906,0.02734 0.01084,0.01195 0.01588,0.0276 0.02734,0.03906 0.0112,0.0112 0.0274,0.01478 0.03906,0.02539 0.01061,0.01166 0.01419,0.02786 0.02539,0.03906 0.0112,0.0112 0.0274,0.01478 0.03906,0.02539 0.01061,0.01167 0.01419,0.02786 0.02539,0.03906 0.0112,0.0112 0.0274,0.01478 0.03906,0.02539 0.01061,0.01167 0.01419,0.02786 0.02539,0.03906 0.01081,0.01081 0.02587,0.01513 0.03711,0.02539 0.01026,0.01124 0.01458,0.0263 0.02539,0.03711 0.01055,0.01055 0.02615,0.01341 0.03711,0.02344 0.01002,0.01096 0.01289,0.02656 0.02344,0.03711 0.01081,0.01081 0.02587,0.01513 0.03711,0.02539 0.01026,0.01124 0.01458,0.0263 0.02539,0.03711 0.01055,0.01055 0.02615,0.01341 0.03711,0.02344 0.01002,0.01096 0.01289,0.02656 0.02344,0.03711 0.01016,0.01016 0.02462,0.01377 0.03516,0.02344 0.0097,0.01054 0.01328,0.025 0.02344,0.03516 0.01055,0.01055 0.02615,0.01341 0.03711,0.02344 0.01002,0.01096 0.01289,0.02656 0.02344,0.03711 0.0091,0.0091 0.02182,0.01276 0.03125,0.02148 0.01022,0.01119 0.01463,0.02634 0.02539,0.03711 0.01054,0.01054 0.02616,0.01343 0.03711,0.02344 0.0091,0.0098 0.01198,0.0237 0.02148,0.0332 0.0098,0.0098 0.02308,0.01412 0.0332,0.02344 0.0093,0.01012 0.01367,0.02343 0.02344,0.0332 0.0098,0.0098 0.02308,0.01412 0.0332,0.02344 0.0093,0.01012 0.01367,0.02344 0.02344,0.0332 0.0095,0.0095 0.02336,0.0124 0.0332,0.02148 0.0091,0.0098 0.01198,0.0237 0.02148,0.0332 0.0095,0.0095 0.02336,0.0124 0.0332,0.02148 0.0091,0.0098 0.01198,0.0237 0.02148,0.0332 0.0095,0.0095 0.02336,0.0124 0.0332,0.02148 0.009,0.0098 0.01202,0.02373 0.02148,0.0332 0.0091,0.0091 0.02182,0.01276 0.03125,0.02148 0.0087,0.0094 0.01237,0.02213 0.02148,0.03125 0.0085,0.0085 0.02057,0.0114 0.0293,0.01953 0.0091,0.0098 0.01199,0.02371 0.02148,0.0332 0.0097,0.0097 0.02313,0.01416 0.0332,0.02344 0.0078,0.0083 0.01146,0.01927 0.01953,0.02734 0.0089,0.0089 0.0221,0.01104 0.03125,0.01953 0.0085,0.0091 0.01068,0.02239 0.01953,0.03125 0.0089,0.0089 0.0221,0.01104 0.03125,0.01953 0.0085,0.0091 0.01068,0.02239 0.01953,0.03125 0.0085,0.0085 0.02057,0.0114 0.0293,0.01953 0.0081,0.0087 0.01107,0.02083 0.01953,0.0293 0.0085,0.0085 0.02056,0.0114 0.0293,0.01953 0.0081,0.0087 0.01107,0.02083 0.01953,0.0293 0.0081,0.0081 0.01903,0.01176 0.02734,0.01953 0.0078,0.0083 0.01146,0.01927 0.01953,0.02734 0.0074,0.0074 0.01776,0.01041 0.02539,0.01758 0.0087,0.0094 0.01241,0.02217 0.02148,0.03125 0.0088,0.0088 0.02214,0.01108 0.03125,0.01953 0.0069,0.0074 0.0085,0.01823 0.01563,0.02539 0.0081,0.0081 0.01903,0.01176 0.02734,0.01953 0.0078,0.0083 0.01146,0.01927 0.01953,0.02734 0.0078,0.0078 0.0193,0.01005 0.02734,0.01758 0.0075,0.008 0.0098,0.01953 0.01758,0.02734 0.0074,0.0074 0.01776,0.01041 0.02539,0.01758 0.0072,0.0076 0.01015,0.01797 0.01758,0.02539 0.0068,0.0068 0.01649,0.0091 0.02344,0.01563 0.0081,0.0087 0.0111,0.02087 0.01953,0.0293 0.008,0.008 0.01906,0.01179 0.02734,0.01953 0.0062,0.0065 0.0092,0.0151 0.01563,0.02148 0.0074,0.0074 0.01776,0.01041 0.02539,0.01758 0.0072,0.0076 0.01016,0.01797 0.01758,0.02539 0.0072,0.0072 0.01804,0.0087 0.02539,0.01563 0.0069,0.0074 0.0085,0.01823 0.01563,0.02539 0.0072,0.0072 0.01804,0.0087 0.02539,0.01563 0.0069,0.0074 0.0085,0.01823 0.01563,0.02539 0.0068,0.0068 0.01649,0.0091 0.02344,0.01563 0.0066,0.0069 0.0089,0.01666 0.01563,0.02344 0.0068,0.0068 0.01649,0.0091 0.02344,0.01563 0.0066,0.0069 0.0089,0.01666 0.01562,0.02344 0.0068,0.0068 0.01649,0.0091 0.02344,0.01563 0.0066,0.0069 0.0089,0.01666 0.01563,0.02344 0.0064,0.0064 0.01495,0.0094 0.02148,0.01562 0.0062,0.0065 0.0092,0.0151 0.01563,0.02148 0.0064,0.0064 0.01495,0.0094 0.02148,0.01563 0.0062,0.0065 0.0092,0.0151 0.01563,0.02148 0.0061,0.0061 0.01522,0.0077 0.02148,0.01367 0.0059,0.0063 0.0076,0.01536 0.01367,0.02148 0.0061,0.0061 0.01522,0.0077 0.02148,0.01367 0.0059,0.0063 0.0076,0.01536 0.01367,0.02148 0.0061,0.0061 0.01522,0.0077 0.02148,0.01367 0.0059,0.0063 0.0076,0.01536 0.01367,0.02148 0.0057,0.0057 0.01368,0.0081 0.01953,0.01367 0.0056,0.0059 0.0079,0.0138 0.01367,0.01953 0.0057,0.0057 0.01368,0.0081 0.01953,0.01367 0.0056,0.0059 0.0079,0.0138 0.01367,0.01953 0.0047,0.0047 0.01085,0.0071 0.01563,0.01172 0.0062,0.0065 0.0093,0.01513 0.01563,0.02148 0.0064,0.0064 0.01498,0.0095 0.02148,0.01563 0.0046,0.0048 0.007,0.01094 0.01172,0.01563 0.0051,0.0051 0.0124,0.0068 0.01758,0.01172 0.005,0.0052 0.0066,0.0125 0.01172,0.01758 0.0054,0.0054 0.01397,0.0064 0.01953,0.01172 0.0053,0.0056 0.0062,0.01406 0.01172,0.01953 0.0051,0.0051 0.0124,0.0068 0.01758,0.01172 0.005,0.0052 0.0066,0.0125 0.01172,0.01758 0.004,0.004 0.0096,0.0058 0.01367,0.0098 0.0056,0.0058 0.008,0.01383 0.01367,0.01953 0.0057,0.0057 0.0137,0.0081 0.01953,0.01367 0.004,0.0041 0.0057,0.0096 0.0098,0.01367 0.0047,0.0047 0.01085,0.0071 0.01563,0.01172 0.0046,0.0048 0.007,0.01094 0.01172,0.01562 0.0044,0.0044 0.01112,0.0054 0.01563,0.0098 0.0043,0.0045 0.0053,0.0112 0.0098,0.01563 0.0044,0.0044 0.01112,0.0054 0.01563,0.0098 0.0043,0.0045 0.0053,0.0112 0.0098,0.01563 0.0044,0.0044 0.01112,0.0054 0.01563,0.0098 0.0043,0.0045 0.0053,0.0112 0.0098,0.01563 0.004,0.004 0.0096,0.0058 0.01367,0.0098 0.004,0.0041 0.0057,0.0096 0.0098,0.01367 0.004,0.004 0.0096,0.0058 0.01367,0.0098 0.004,0.0041 0.0057,0.0096 0.0098,0.01367 0.004,0.004 0.0096,0.0058 0.01367,0.0098 0.004,0.0041 0.0057,0.0096 0.0098,0.01367 0.0038,0.0038 0.0098,0.0041 0.01367,0.0078 0.0037,0.0038 0.004,0.0099 0.0078,0.01367 0.0038,0.0038 0.0098,0.0041 0.01367,0.0078 0.0037,0.0038 0.004,0.0099 0.0078,0.01367 0.0034,0.0034 0.0083,0.0045 0.01172,0.0078 0.0033,0.0034 0.0044,0.0083 0.0078,0.01172 0.0027,0.0027 0.007,0.0032 0.0098,0.0059 0.0043,0.0045 0.0054,0.01122 0.0098,0.01563 0.004,0.004 0.0096,0.0058 0.01367,0.0098 0.0023,0.0024 0.0035,0.0055 0.0059,0.0078 0.0023,0.0023 0.0054,0.0035 0.0078,0.0059 0.0039,0.0041 0.0057,0.0097 0.0098,0.01367 0.0038,0.0038 0.0099,0.0041 0.01367,0.0078 0.0021,0.0021 0.0018,0.0057 0.0039,0.0078 0.003,0.003 0.0068,0.0049 0.0098,0.0078 0.003,0.003 0.0048,0.0068 0.0078,0.0098 0.0027,0.0027 0.007,0.0032 0.0098,0.0059 0.0027,0.0028 0.0031,0.007 0.0059,0.0098 0.0027,0.0027 0.007,0.0032 0.0098,0.0059 0.0027,0.0028 0.0031,0.007 0.0059,0.0098 0.0023,0.0023 0.0054,0.0035 0.0078,0.0059 0.0023,0.0024 0.0035,0.0055 0.0059,0.0078 0.0023,0.0023 0.0054,0.0035 0.0078,0.0059 0.0023,0.0024 0.0035,0.0055 0.0059,0.0078 0.0023,0.0023 0.0054,0.0035 0.0078,0.0059 0.0023,0.0024 0.0035,0.0055 0.0059,0.0078 0.0021,0.0021 0.0057,0.0018 0.0078,0.0039 0.0021,0.0021 0.0018,0.0057 0.0039,0.0078 0.0021,0.0021 0.0057,0.0018 0.0078,0.0039 0.0021,0.0021 0.0018,0.0057 0.0039,0.0078 0.0021,0.0021 0.0057,0.0018 0.0078,0.0039 0.0021,0.0021 0.0018,0.0057 0.0039,0.0078 0.0017,0.0017 0.0042,0.0022 0.0059,0.0039 0.0017,0.0017 0.0022,0.0042 0.0039,0.0059 0.0017,0.0017 0.0042,0.0022 0.0059,0.0039 0.0017,0.0017 0.0022,0.0042 0.0039,0.0059 0.0013,0.0013 0.0026,0.0026 0.0039,0.0039 0.0013,0.0013 0.0026,0.0026 0.0039,0.0039 0.0013,0.0013 0.0026,0.0026 0.0039,0.0039 0.0013,0.0013 0.0026,0.0026 0.0039,0.0039 0.0013,0.0013 0.0026,0.0026 0.0039,0.0039 0.0013,0.0013 0.0026,0.0026 0.0039,0.0039 0.001,0.001 0.0029,9.17e-4 0.0039,0.002 0.001,10e-4 9.12e-4,0.0029 0.002,0.0039 0.001,0.001 0.0029,9.16e-4 0.0039,0.002 0.001,0.001 9.11e-4,0.0029 0.002,0.0039 0,0 0.002,0.002 0.002,0.002 0,0 0.002,0.002 0.002,0.002 0,0 0.002,0.002 0.002,0.002 0,0 0.002,0.002 0.002,0.002 0,0 0.002,0.002 0.002,0.002 0,0 0.002,0.002 0.002,0.002 0,0 0.002,0 0.002,0 0,0 0,0.002 0,0.002 0.0013,0.0013 0.0026,0.0026 0.0039,0.0039 0.09247,0.09247 0.202067,0.163159 0.320312,0.212891 0,0 0.002,0.002 0.002,0.002 C 21.236116,29.97233 21.36647,30 21.5,30 l 7,0 c 0.265253,0 0.519499,-0.105438 0.707031,-0.292969 C 29.394569,29.519499 29.499996,29.265215 29.5,29 l 0,-6.5 c 0,-0.133526 -0.02767,-0.263847 -0.07813,-0.384766 -0.04943,-0.119495 -0.12202,-0.228925 -0.214844,-0.322265 -0.0017,-0.0017 -0.0042,-0.0022 -0.0059,-0.0039 0,0 0,-0.002 0,-0.002 0,0 -0.002,-0.002 -0.002,-0.002 0,0 -0.002,-0.002 -0.002,-0.002 0,0 -0.002,-0.002 -0.002,-0.002 0,0 -0.002,-0.002 -0.002,-0.002 0,0 -0.002,-0.002 -0.002,-0.002 0,0 -0.002,-0.002 -0.002,-0.002 -0.001,-10e-4 -0.0029,-9.16e-4 -0.0039,-0.002 -0.001,-0.001 -9.25e-4,-0.0029 -0.002,-0.0039 -0.001,-0.001 -0.0029,-9.16e-4 -0.0039,-0.002 -0.001,-10e-4 -9.26e-4,-0.0029 -0.002,-0.0039 -0.0021,-0.0021 -0.0057,-0.0038 -0.0078,-0.0059 -0.0013,-0.0013 -0.0026,-0.0026 -0.0039,-0.0039 -0.0013,-0.0013 -0.0026,-0.0026 -0.0039,-0.0039 -0.0013,-0.0013 -0.0026,-0.0026 -0.0039,-0.0039 -0.0013,-0.0013 -0.0026,-0.0026 -0.0039,-0.0039 0,0 -0.002,-0.002 -0.002,-0.002 -0.0022,-0.0023 -0.0036,-0.0055 -0.0059,-0.0078 -0.0027,-0.0027 -0.007,-0.0032 -0.0098,-0.0059 -0.001,-10e-4 -9.48e-4,-0.0029 -0.002,-0.0039 -0.0017,-0.0017 -0.0042,-0.0022 -0.0059,-0.0039 -0.0016,-0.0016 -0.0023,-0.0042 -0.0039,-0.0059 -0.0027,-0.0028 -0.007,-0.0031 -0.0098,-0.0059 -9.95e-4,-10e-4 -9.53e-4,-0.0029 -0.002,-0.0039 -0.0023,-0.0024 -0.0055,-0.0035 -0.0078,-0.0059 -0.0016,-0.0016 -0.0023,-0.0042 -0.0039,-0.0059 -0.0017,-0.0017 -0.0042,-0.0022 -0.0059,-0.0039 -0.0026,-0.0026 -0.0033,-0.0072 -0.0059,-0.0098 -0.0034,-0.0034 -0.0083,-0.0045 -0.01172,-0.0078 -9.81e-4,-9.92e-4 -9.68e-4,-0.0029 -0.002,-0.0039 -0.0034,-0.0034 -0.0083,-0.0045 -0.01172,-0.0078 -0.0016,-0.0016 -0.0023,-0.0043 -0.0039,-0.0059 -0.0023,-0.0024 -0.0055,-0.0035 -0.0078,-0.0059 -0.0025,-0.0026 -0.0033,-0.0072 -0.0059,-0.0098 -0.003,-0.003 -0.0068,-0.0048 -0.0098,-0.0078 -0.0021,-0.0022 -0.0037,-0.0057 -0.0059,-0.0078 -0.004,-0.0041 -0.0096,-0.0058 -0.01367,-0.0098 -0.0015,-0.0016 -0.0024,-0.0043 -0.0039,-0.0059 -0.0034,-0.0034 -0.0083,-0.0044 -0.01172,-0.0078 -0.0019,-0.0019 -0.002,-0.0059 -0.0039,-0.0078 -0.0027,-0.0027 -0.007,-0.0031 -0.0098,-0.0059 -0.0031,-0.0033 -0.0047,-0.0086 -0.0078,-0.01172 -0.004,-0.0041 -0.0096,-0.0058 -0.01367,-0.0098 -0.0022,-0.0022 -0.0037,-0.0056 -0.0059,-0.0078 -0.003,-0.003 -0.0068,-0.0048 -0.0098,-0.0078 -0.0033,-0.0035 -0.0064,-0.0084 -0.0098,-0.01172 -0.0033,-0.0034 -0.0083,-0.0044 -0.01172,-0.0078 -0.003,-0.0032 -0.0047,-0.0086 -0.0078,-0.01172 -0.0044,-0.0045 -0.0112,-0.0054 -0.01563,-0.0098 -0.0025,-0.0026 -0.0034,-0.0073 -0.0059,-0.0098 -0.0033,-0.0034 -0.0083,-0.0044 -0.01172,-0.0078 -0.0036,-0.0038 -0.0061,-0.01003 -0.0098,-0.01367 -0.0033,-0.0034 -0.0083,-0.0044 -0.01172,-0.0078 -0.0036,-0.0038 -0.0061,-0.01001 -0.0098,-0.01367 -0.004,-0.0041 -0.0096,-0.0057 -0.01367,-0.0098 -0.0035,-0.0038 -0.0062,-0.01008 -0.0098,-0.01367 -0.0046,-0.0048 -0.01093,-0.007 -0.01563,-0.01172 -0.0026,-0.0028 -0.0051,-0.0071 -0.0078,-0.0098 -0.0039,-0.0041 -0.0097,-0.0057 -0.01367,-0.0098 -0.0035,-0.0038 -0.0062,-0.01009 -0.0098,-0.01367 -0.0046,-0.0048 -0.01096,-0.0071 -0.01563,-0.01172 -0.0035,-0.0037 -0.0062,-0.01012 -0.0098,-0.01367 -0.0056,-0.0058 -0.01381,-0.008 -0.01953,-0.01367 -0.0029,-0.0031 -0.0049,-0.0088 -0.0078,-0.01172 -0.0046,-0.0048 -0.01095,-0.007 -0.01563,-0.01172 -0.0034,-0.0037 -0.0063,-0.01019 -0.0098,-0.01367 -0.0049,-0.0052 -0.01253,-0.0066 -0.01758,-0.01172 -0.0037,-0.004 -0.006,-0.01184 -0.0098,-0.01563 -0.0049,-0.0052 -0.01254,-0.0066 -0.01758,-0.01172 -0.0037,-0.004 -0.006,-0.01186 -0.0098,-0.01563 -0.0062,-0.0065 -0.01513,-0.0093 -0.02148,-0.01563 -0.0028,-0.003 -0.005,-0.0089 -0.0078,-0.01172 -0.0056,-0.0059 -0.01383,-0.0079 -0.01953,-0.01367 -0.0036,-0.004 -0.0061,-0.01193 -0.0098,-0.01563 -0.0066,-0.007 -0.01669,-0.0089 -0.02344,-0.01563 -0.0031,-0.0033 -0.0047,-0.01054 -0.0078,-0.01367 -0.0068,-0.0073 -0.0164,-0.01052 -0.02344,-0.01758 -0.0028,-0.003 -0.005,-0.0089 -0.0078,-0.01172 -0.0062,-0.0066 -0.01515,-0.0092 -0.02148,-0.01563 -0.0036,-0.0039 -0.0061,-0.012 -0.0098,-0.01563 -0.0062,-0.0066 -0.01516,-0.0092 -0.02148,-0.01563 -0.0035,-0.0039 -0.0062,-0.01202 -0.0098,-0.01563 -0.0071,-0.0077 -0.01803,-0.01015 -0.02539,-0.01758 -0.003,-0.0033 -0.0048,-0.01062 -0.0078,-0.01367 -0.0077,-0.0083 -0.01935,-0.01149 -0.02734,-0.01953 -0.003,-0.0032 -0.0048,-0.01067 -0.0078,-0.01367 -0.0068,-0.0073 -0.01649,-0.0105 -0.02344,-0.01758 -0.0034,-0.0038 -0.0063,-0.01213 -0.0098,-0.01563 -0.0074,-0.008 -0.01779,-0.01181 -0.02539,-0.01953 -0.0034,-0.0038 -0.0063,-0.01216 -0.0098,-0.01563 -0.0083,-0.0091 -0.02066,-0.01276 -0.0293,-0.02148 -0.0029,-0.0032 -0.0049,-0.01074 -0.0078,-0.01367 -0.0083,-0.0091 -0.02064,-0.01271 -0.0293,-0.02148 -0.0029,-0.0032 -0.0049,-0.01077 -0.0078,-0.01367 -0.0079,-0.0087 -0.01912,-0.01309 -0.02734,-0.02148 -0.0033,-0.0037 -0.0064,-0.01229 -0.0098,-0.01562 -0.0089,-0.0098 -0.02197,-0.01401 -0.03125,-0.02344 -0.0028,-0.0031 -0.005,-0.01084 -0.0078,-0.01367 -0.0083,-0.0092 -0.0207,-0.01267 -0.0293,-0.02148 -0.0031,-0.0035 -0.0047,-0.01251 -0.0078,-0.01563 -0.0095,-0.01056 -0.02329,-0.0153 -0.0332,-0.02539 -0.0027,-0.0031 -0.005,-0.01089 -0.0078,-0.01367 -0.0089,-0.0099 -0.02199,-0.01393 -0.03125,-0.02344 -0.003,-0.0034 -0.0048,-0.01257 -0.0078,-0.01563 -0.01004,-0.01124 -0.02465,-0.01663 -0.03516,-0.02734 -0.0027,-0.003 -0.0051,-0.01097 -0.0078,-0.01367 -0.0095,-0.01068 -0.02329,-0.01518 -0.0332,-0.02539 -0.0027,-0.003 -0.0051,-0.01097 -0.0078,-0.01367 -0.0098,-0.01105 -0.02492,-0.01484 -0.03516,-0.02539 -0.0032,-0.0036 -0.0046,-0.01436 -0.0078,-0.01758 -0.01038,-0.01176 -0.02623,-0.01614 -0.03711,-0.02734 -0.0025,-0.0028 -0.0034,-0.01119 -0.0059,-0.01367 -0.01093,-0.01244 -0.02758,-0.01749 -0.03906,-0.0293 -0.0024,-0.0027 -0.0034,-0.01123 -0.0059,-0.01367 -0.01,-0.0114 -0.02471,-0.01646 -0.03516,-0.02734 -0.0028,-0.0032 -0.005,-0.01277 -0.0078,-0.01563 -0.01151,-0.01322 -0.02887,-0.01873 -0.04102,-0.03125 -0.0024,-0.0027 -0.0035,-0.01127 -0.0059,-0.01367 -0.01056,-0.01219 -0.02601,-0.0177 -0.03711,-0.0293 -0.0027,-0.0032 -0.005,-0.01285 -0.0078,-0.01563 -0.01139,-0.01321 -0.02899,-0.01873 -0.04102,-0.03125 -0.0023,-0.0026 -0.0035,-0.01133 -0.0059,-0.01367 -0.012,-0.01399 -0.03026,-0.01999 -0.04297,-0.0332 -0.0023,-0.0026 -0.0036,-0.01137 -0.0059,-0.01367 -0.01201,-0.01406 -0.03025,-0.01992 -0.04297,-0.0332 -0.0023,-0.0026 -0.0036,-0.01139 -0.0059,-0.01367 -0.01193,-0.01403 -0.03033,-0.01994 -0.04297,-0.0332 -0.0025,-0.0029 -0.0033,-0.01311 -0.0059,-0.01563 -0.01224,-0.01447 -0.02998,-0.0215 -0.04297,-0.03516 -0.0019,-0.0022 -0.0039,-0.0098 -0.0059,-0.01172 -0.01248,-0.01484 -0.03165,-0.02116 -0.04492,-0.03516 -0.0024,-0.0028 -0.0034,-0.01317 -0.0059,-0.01563 -0.01363,-0.01629 -0.03425,-0.02379 -0.04883,-0.03906 -0.0015,-0.0017 -0.0024,-0.0082 -0.0039,-0.0098 -0.01266,-0.01522 -0.03143,-0.02278 -0.04492,-0.03711 -0.0021,-0.0024 -0.0037,-0.01154 -0.0059,-0.01367 -0.01353,-0.01635 -0.03434,-0.02373 -0.04883,-0.03906 -0.0017,-0.002 -0.0022,-0.01 -0.0039,-0.01172 -0.01374,-0.0167 -0.03409,-0.02537 -0.04883,-0.04102 -0.0018,-0.0021 -0.004,-0.0099 -0.0059,-0.01172 -0.0132,-0.01613 -0.03274,-0.02391 -0.04687,-0.03906 -0.002,-0.0023 -0.0038,-0.01163 -0.0059,-0.01367 -0.01455,-0.01788 -0.03705,-0.02629 -0.05273,-0.04297 -0.0014,-0.0016 -0.0025,-0.0083 -0.0039,-0.0098 -0.01369,-0.01692 -0.03412,-0.02516 -0.04883,-0.04102 -0.002,-0.0023 -0.0039,-0.01168 -0.0059,-0.01367 -0.0148,-0.01841 -0.03673,-0.02777 -0.05273,-0.04492 -0.0014,-0.0016 -0.0025,-0.0084 -0.0039,-0.0098 -0.01469,-0.01837 -0.03685,-0.02779 -0.05273,-0.04492 -0.0014,-0.0015 -0.0025,-0.0084 -0.0039,-0.0098 -0.01515,-0.01907 -0.03825,-0.02913 -0.05469,-0.04688 -0.0013,-0.0015 -0.0026,-0.0084 -0.0039,-0.0098 -0.01514,-0.01917 -0.03825,-0.02903 -0.05469,-0.04687 -0.0013,-0.0015 -0.0026,-0.0084 -0.0039,-0.0098 -0.01513,-0.01928 -0.03825,-0.02893 -0.05469,-0.04687 -0.0015,-0.0018 -0.0024,-0.01018 -0.0039,-0.01172 -0.01563,-0.02005 -0.03959,-0.03022 -0.05664,-0.04883 -0.0013,-0.0015 -0.0026,-0.0085 -0.0039,-0.0098 -0.01589,-0.0205 -0.03928,-0.03177 -0.05664,-0.05078 -0.001,-0.0012 -0.0029,-0.0068 -0.0039,-0.0078 -0.01663,-0.0216 -0.04228,-0.03278 -0.06055,-0.05273 -9.5e-4,-0.001 -9.98e-4,-0.0069 -0.002,-0.0078 -0.01573,-0.02058 -0.03942,-0.03168 -0.05664,-0.05078 -0.0012,-0.0014 -0.0027,-0.0085 -0.0039,-0.0098 -0.01709,-0.0225 -0.04364,-0.03394 -0.0625,-0.05469 -7.09e-4,-7.68e-4 -0.0012,-0.0051 -0.002,-0.0059 -0.01644,-0.0218 -0.04244,-0.03257 -0.06055,-0.05273 -0.0011,-0.0013 -8.28e-4,-0.0086 -0.002,-0.0098 -0.01718,-0.02294 -0.04349,-0.0355 -0.0625,-0.05664 -6.87e-4,-7.46e-4 -0.0013,-0.0052 -0.002,-0.0059 -0.01772,-0.02383 -0.04476,-0.0367 -0.06445,-0.05859 -4.75e-4,-5.04e-4 -0.0015,-0.0034 -0.002,-0.0039 -0.01707,-0.02312 -0.04357,-0.03532 -0.0625,-0.05664 -8.66e-4,-9.66e-4 -0.0011,-0.0069 -0.002,-0.0078 -0.01864,-0.02543 -0.04748,-0.03924 -0.06836,-0.0625 0,0 0,-0.002 0,-0.002 -0.0177,-0.02433 -0.04471,-0.03818 -0.06445,-0.06055 -6.44e-4,-7.02e-4 -0.0013,-0.0052 -0.002,-0.0059 -0.01814,-0.02513 -0.04608,-0.03945 -0.06641,-0.0625 -4.42e-4,-4.69e-4 -0.0015,-0.0035 -0.002,-0.0039 -0.01839,-0.02567 -0.04769,-0.03899 -0.06836,-0.0625 -3.8e-4,-4.02e-4 3.81e-4,-0.0035 0,-0.0039 -0.01902,-0.02676 -0.04883,-0.04198 -0.07031,-0.06641 -0.01891,-0.02681 -0.04893,-0.04387 -0.07031,-0.06836 -0.01886,-0.02696 -0.04895,-0.04177 -0.07031,-0.06641 -3.64e-4,-3.86e-4 3.64e-4,-0.0035 0,-0.0039 -0.01928,-0.02778 -0.05034,-0.04303 -0.07227,-0.06836 -0.01942,-0.02821 -0.05012,-0.0446 -0.07227,-0.07031 -0.01512,-0.02216 -0.03983,-0.03405 -0.05664,-0.05469 -0.0058,-0.0046 -0.0097,-0.01121 -0.01563,-0.01563 0,0 0,-0.002 0,-0.002 -0.01976,-0.02921 -0.05155,-0.0457 -0.07422,-0.07227 -0.0197,-0.02937 -0.05157,-0.04554 -0.07422,-0.07227 -0.06914,-0.103967 -0.160023,-0.191496 -0.261719,-0.259765 -0.02631,-0.0224 -0.04565,-0.05682 -0.07422,-0.07617 -0.02707,-0.02319 -0.04669,-0.05427 -0.07617,-0.07422 -0.02719,-0.02354 -0.04651,-0.05593 -0.07617,-0.07617 -0.0276,-0.02412 -0.04794,-0.05547 -0.07813,-0.07617 -0.0279,-0.02454 -0.04756,-0.05709 -0.07813,-0.07812 -0.02769,-0.02455 -0.04777,-0.05704 -0.07813,-0.07813 -0.02808,-0.02514 -0.04922,-0.05657 -0.08008,-0.07812 -0.02883,-0.0261 -0.05023,-0.05975 -0.08203,-0.08203 -0.02809,-0.02551 -0.04914,-0.0582 -0.08008,-0.08008 -0.02847,-0.0261 -0.0506,-0.05772 -0.08203,-0.08008 -0.02832,-0.02615 -0.04879,-0.0596 -0.08008,-0.08203 -0.02941,-0.02751 -0.05327,-0.05858 -0.08594,-0.08203 -0.02872,-0.02707 -0.05016,-0.06079 -0.08203,-0.08398 -0.02944,-0.02798 -0.05315,-0.06011 -0.08594,-0.08398 -0.02902,-0.02776 -0.05167,-0.06022 -0.08398,-0.08398 -0.03002,-0.02914 -0.05428,-0.06308 -0.08789,-0.08789 -0.02971,-0.02894 -0.05464,-0.06124 -0.08789,-0.08594 -0.02976,-0.02921 -0.05453,-0.061 -0.08789,-0.08594 -0.03001,-0.0297 -0.05417,-0.06257 -0.08789,-0.08789 -0.03088,-0.03086 -0.05693,-0.06366 -0.0918,-0.08984 -0.02914,-0.02923 -0.05321,-0.06086 -0.08594,-0.08594 -0.03106,-0.03177 -0.05655,-0.06678 -0.0918,-0.09375 -0.03008,-0.03081 -0.05582,-0.06353 -0.08984,-0.08984 -0.03095,-0.03206 -0.05855,-0.06454 -0.09375,-0.0918 -0.03115,-0.03251 -0.05825,-0.06613 -0.09375,-0.09375 -0.03082,-0.03231 -0.05863,-0.06429 -0.09375,-0.0918 -0.03113,-0.03306 -0.05814,-0.06758 -0.09375,-0.0957 -0.03121,-0.03336 -0.05995,-0.06733 -0.0957,-0.0957 -0.03096,-0.03329 -0.06022,-0.06538 -0.0957,-0.09375 -0.03117,-0.03382 -0.05988,-0.0669 -0.0957,-0.0957 -0.03196,-0.03505 -0.06268,-0.06793 -0.09961,-0.09766 -0.03029,-0.0334 -0.05894,-0.06514 -0.09375,-0.09375 -0.03244,-0.0365 -0.06379,-0.07065 -0.101562,-0.101563 -0.03184,-0.03582 -0.06262,-0.06916 -0.09961,-0.09961 -0.03163,-0.03597 -0.06281,-0.06898 -0.09961,-0.09961 -0.03189,-0.0365 -0.06436,-0.06856 -0.101563,-0.09961 -0.03207,-0.03703 -0.06404,-0.07008 -0.101562,-0.101562 -0.03245,-0.03788 -0.06539,-0.07136 -0.103516,-0.103516 -0.03199,-0.03756 -0.06399,-0.07154 -0.101562,-0.103516 -0.03241,-0.03839 -0.06725,-0.07089 -0.105469,-0.103515 -0.03259,-0.03896 -0.06692,-0.07238 -0.105469,-0.105469 -0.03248,-0.03906 -0.06701,-0.07226 -0.105469,-0.105469 -0.03235,-0.03916 -0.06712,-0.07213 -0.105468,-0.105468 -0.0327,-0.04006 -0.06847,-0.07337 -0.107422,-0.107422 -0.03253,-0.04011 -0.06864,-0.07328 -0.107422,-0.107422 -0.03269,-0.04058 -0.06834,-0.07485 -0.107422,-0.109375 -0.03247,-0.04067 -0.07051,-0.07275 -0.109375,-0.107422 -0.03287,-0.0416 -0.06984,-0.07593 -0.109375,-0.111328 -0.0324,-0.04135 -0.0704,-0.07408 -0.109375,-0.109375 -0.03308,-0.04253 -0.07328,-0.07514 -0.113281,-0.111328 -0.03297,-0.04283 -0.07136,-0.0768 -0.111328,-0.113282 -0.03272,-0.04267 -0.07166,-0.07687 -0.111328,-0.113281 -0.03306,-0.04351 -0.07497,-0.0762 -0.115235,-0.113281 -0.03297,-0.04385 -0.07303,-0.07783 -0.113281,-0.115234 -0.03271,-0.04368 -0.07334,-0.0779 -0.113281,-0.115235 -0.03328,-0.04486 -0.07632,-0.07895 -0.117188,-0.117187 -0.03269,-0.04439 -0.07512,-0.07726 -0.115234,-0.115235 -0.03322,-0.04572 -0.07614,-0.08012 -0.117188,-0.11914 -0.03252,-0.04494 -0.0771,-0.07671 -0.117187,-0.115235 -0.03327,-0.04654 -0.0778,-0.08134 -0.119141,-0.121094 -0.03315,-0.04654 -0.07793,-0.08129 -0.11914,-0.121093 -0.03306,-0.04686 -0.07794,-0.08098 -0.119141,-0.121094 -0.03303,-0.04703 -0.07987,-0.08081 -0.121094,-0.121094 -0.03281,-0.04711 -0.08008,-0.08067 -0.121094,-0.121093 -0.03298,-0.04802 -0.07963,-0.08186 -0.121093,-0.123047 -0.03345,-0.04893 -0.08276,-0.08312 -0.125,-0.125 -0.03266,-0.04817 -0.07994,-0.08161 -0.121094,-0.123047 -0.03319,-0.04947 -0.08289,-0.08449 -0.125,-0.126953 -0.03333,-0.04992 -0.0826,-0.08608 -0.125,-0.128907 -0.03274,-0.04905 -0.0835,-0.08275 -0.125,-0.125 -0.03244,-0.04934 -0.08373,-0.08241 -0.125,-0.125 -0.03215,-0.04963 -0.08201,-0.08402 -0.123047,-0.126953 -0.0038,-0.0027 -0.0059,-0.0071 -0.0098,-0.0098 -0.04169,-0.04235 -0.0734,-0.09275 -0.123046,-0.126954 -10e-4,-10e-4 -0.0048,-9.38e-4 -0.0059,-0.002 -0.04057,-0.04135 -0.07099,-0.09134 -0.11914,-0.125 -0.001,-10e-4 -0.0048,-9.24e-4 -0.0059,-0.002 -0.0406,-0.04209 -0.07077,-0.09263 -0.11914,-0.126953 -0.0015,-0.0015 -0.0062,-0.0024 -0.0078,-0.0039 -0.03986,-0.04164 -0.06975,-0.09085 -0.117187,-0.1250001 -0.0023,-0.00228 -0.0092,-0.00361 -0.01172,-0.00586 -0.03914,-0.041234 -0.06868,-0.090997 -0.115235,-0.125 -0.0031,-0.00308 -0.01215,-0.00479 -0.01562,-0.00781 -0.03816,-0.040408 -0.06606,-0.089498 -0.111329,-0.1230469 -0.0039,-0.00393 -0.015,-0.00593 -0.01953,-0.00977 -0.03719,-0.03958 -0.06343,-0.088015 -0.107422,-0.1210937 -0.0049,-0.00492 -0.01765,-0.0089 -0.02344,-0.013672 -0.03645,-0.039111 -0.0624,-0.086279 -0.105469,-0.1191407 -0.0055,-0.0055 -0.01886,-0.010296 -0.02539,-0.015625 -0.03551,-0.03831 -0.06167,-0.084796 -0.103515,-0.1171874 -0.0064,-0.0064 -0.0216,-0.011409 -0.0293,-0.017578 -0.03476,-0.03779 -0.05871,-0.083115 -0.09961,-0.1152344 -0.0073,-0.00726 -0.02438,-0.012563 -0.0332,-0.019531 -0.0341,-0.037408 -0.05756,-0.083291 -0.09766,-0.1152344 -0.0082,-0.00824 -0.02701,-0.013622 -0.03711,-0.021484 -0.03315,-0.036566 -0.05488,-0.081868 -0.09375,-0.1132812 -0.0094,-0.0094 -0.02938,-0.016476 -0.04102,-0.025391 -0.03244,-0.03607 -0.05382,-0.080192 -0.0918,-0.1113282 -0.01044,-0.010443 -0.03193,-0.017494 -0.04492,-0.027344 -0.03131,-0.034934 -0.05139,-0.079018 -0.08789,-0.109375 -0.01119,-0.011186 -0.03299,-0.018786 -0.04687,-0.029297 -0.03061,-0.03443 -0.05031,-0.077365 -0.08594,-0.1074218 -0.01323,-0.013229 -0.03802,-0.022863 -0.05469,-0.035156 -0.02898,-0.032533 -0.0466,-0.072913 -0.08008,-0.1015625 -0.01389,-0.01389 -0.03928,-0.02424 -0.05664,-0.037109 -0.02857,-0.032443 -0.04511,-0.072905 -0.07813,-0.1015625 -0.01438,-0.014377 -0.03886,-0.025768 -0.05664,-0.039063 -0.02829,-0.03254 -0.0454,-0.072749 -0.07813,-0.1015625 -0.01649,-0.016487 -0.04394,-0.027893 -0.06445,-0.042969 -0.02671,-0.030669 -0.04161,-0.070277 -0.07226,-0.097656 -0.01787,-0.01787 -0.04624,-0.030647 -0.06836,-0.046875 -0.02552,-0.029378 -0.03922,-0.067357 -0.06836,-0.09375 -0.01924,-0.019241 -0.04863,-0.033426 -0.07227,-0.050781 -0.02463,-0.028529 -0.03838,-0.064089 -0.06641,-0.089844 -0.01989,-0.019892 -0.0482,-0.034838 -0.07227,-0.052734 -0.02417,-0.028292 -0.03696,-0.064226 -0.06445,-0.089844 -0.01635,-0.016352 -0.04753,-0.022088 -0.06641,-0.037109 -0.02727,-0.033611 -0.04242,-0.075409 -0.07422,-0.1054687 -0.01667,-0.016666 -0.04551,-0.023765 -0.06445,-0.039063 -0.02714,-0.033959 -0.04249,-0.075051 -0.07422,-0.1054688 -0.01851,-0.018514 -0.04941,-0.026129 -0.07031,-0.042969 -0.02585,-0.032374 -0.04029,-0.072375 -0.07031,-0.1015625 -0.02058,-0.020583 -0.05314,-0.028344 -0.07617,-0.046875 -0.02459,-0.030826 -0.03609,-0.069689 -0.06445,-0.097656 -0.185675,-0.185675 -0.458118,-0.2910156 -0.720703,-0.2910156 0,-0.00283 -0.846395,-0.00741 -1.423828,-0.00977 -0.01995,-0.020014 -0.03545,-0.043571 -0.05664,-0.0625 -0.006,-0.00532 -0.0135,-0.00846 -0.01953,-0.013672 -0.03753,-0.042967 -0.07253,-0.088268 -0.115234,-0.1269531 -0.0066,-0.00602 -0.01474,-0.00974 -0.02148,-0.015625 -0.03654,-0.042198 -0.06982,-0.08686 -0.111329,-0.125 -0.01037,-0.00953 -0.02259,-0.016185 -0.0332,-0.025391 -0.03371,-0.038747 -0.06364,-0.079897 -0.101562,-0.1152343 -0.01337,-0.01246 -0.0292,-0.021288 -0.04297,-0.033203 -0.03127,-0.035873 -0.05887,-0.074452 -0.09375,-0.1074219 -0.01328,-0.012553 -0.02928,-0.021192 -0.04297,-0.033203 -0.03125,-0.036396 -0.05882,-0.075894 -0.09375,-0.109375 -0.01562,-0.014976 -0.03459,-0.024841 -0.05078,-0.039063 -0.02923,-0.034093 -0.05347,-0.071954 -0.08594,-0.1035156 -0.01579,-0.01535 -0.0344,-0.026439 -0.05078,-0.041016 -0.02906,-0.034366 -0.05363,-0.071662 -0.08594,-0.1035156 -0.280204,-0.2769397 -0.661621,-0.4328579 -1.05829,-0.4300678 z"
       id="path7256"
       style="opacity:0.2;fill:url(#linearGradient8109);fill-opacity:1"
       clip-path="url(#clipPath8114)"
       inkscape:connector-curvature="0" />
    <g
       id="g7201"
       transform="translate(11.806158,0.18940369)"
       style="fill:#ff9800">
      <rect
         style="opacity:1;fill:#ff9800;fill-opacity:1;stroke:none;stroke-width:2;stroke-miterlimit:4;stroke-dasharray:none;stroke-opacity:1"
         id="rect7199"
         width="7.5761442"
         height="7.1342025"
         x="-5.6189733"
         y="6.8680172" />
      <path
         inkscape:connector-curvature="0"
         d="m -4.3061803,8.3106012 0,-1 -1,0 0,6.4999998 7.0000005,0 0,-6.4999998 -0.99999999,0 0,1 -5.00000051,0 m 1.0000001,-2 a 1.5,1.5 0 0 1 1.5,-1.5 1.5,1.5 0 0 1 1.50000041,1.5 l 1.99999999,0 a 1,1 0 0 1 1,1 l 0,6.4999998 a 1,1 0 0 1 -1,1 l -7.0000005,0 a 1,1 0 0 1 -1,-1 l 0,-6.4999998 a 1,1 0 0 1 1,-1 l 2.0000001,0 m 1.5,-0.5 a 0.5,0.5 0 0 0 -0.5,0.5 0.5,0.5 0 0 0 0.5,0.5 0.5,0.5 0 0 0 0.5000004,-0.5 0.5,0.5 0 0 0 -0.5000004,-0.5 z"
         id="path7197"
         style="fill:#ff9800" />
    </g>
    <path
       d="m 3.9999777,4.0333382 12.0000003,0 0,11.9333328 -12.0000003,0 z"
       id="path4"
       inkscape:connector-curvature="0"
       style="fill:none" />
    <path
       style="fill:none"
       inkscape:connector-curvature="0"
       id="path9754"
       d="m 18.999978,19.033339 12,0 0,11.933333 -12,0 z" />
    <path
       inkscape:connector-curvature="0"
       d="m 7.4999774,8.5000047 0,-1 -1,0 0,6.5000003 7.0000006,0 0,-6.5000003 -1,0 0,1 -5.0000006,0 m 1.0000001,-2 a 1.5,1.5 0 0 1 1.5,-1.4999999 1.5,1.5 0 0 1 1.5000005,1.4999999 l 2,0 a 1,1 0 0 1 1,1 l 0,6.5000003 a 1,1 0 0 1 -1,1 l -7.0000006,0 a 1,1 0 0 1 -1,-1 l 0,-6.5000003 a 1,1 0 0 1 1,-1 l 2.0000001,0 m 1.5,-0.5 a 0.5,0.5 0 0 0 -0.5,0.5 0.5,0.5 0 0 0 0.5,0.5 0.5,0.5 0 0 0 0.5000005,-0.5 0.5,0.5 0 0 0 -0.5000005,-0.5 z"
       id="path7188"
       style="fill:#fafafa" />
  </g>
</svg>
