<?xml version="1.0" encoding="UTF-8" standalone="no"?>
<!-- Created with Inkscape (http://www.inkscape.org/) -->

<svg
   xmlns:dc="http://purl.org/dc/elements/1.1/"
   xmlns:cc="http://creativecommons.org/ns#"
   xmlns:rdf="http://www.w3.org/1999/02/22-rdf-syntax-ns#"
   xmlns:svg="http://www.w3.org/2000/svg"
   xmlns="http://www.w3.org/2000/svg"
   xmlns:xlink="http://www.w3.org/1999/xlink"
   xmlns:sodipodi="http://sodipodi.sourceforge.net/DTD/sodipodi-0.dtd"
   xmlns:inkscape="http://www.inkscape.org/namespaces/inkscape"
   width="5.6444445mm"
   height="5.6444445mm"
   viewBox="0 0 20 20"
   id="svg2"
   version="1.1"
   inkscape:version="0.91 r13725"
   sodipodi:docname="Cloud.svg"
   inkscape:export-filename="/home/juergen/Schreibtisch/Icons/Email.svg.png"
   inkscape:export-xdpi="648"
   inkscape:export-ydpi="648">
  <sodipodi:namedview
     id="base"
     pagecolor="#ffffff"
     bordercolor="#666666"
     borderopacity="1.0"
     inkscape:pageopacity="0.0"
     inkscape:pageshadow="2"
     inkscape:zoom="11.2"
     inkscape:cx="9.7737152"
     inkscape:cy="9.1400923"
     inkscape:document-units="px"
     inkscape:current-layer="layer2"
     showgrid="false"
     fit-margin-top="0"
     fit-margin-left="0"
     fit-margin-right="0"
     fit-margin-bottom="0"
     showguides="true"
     inkscape:guide-bbox="true"
     inkscape:window-width="1366"
     inkscape:window-height="726"
     inkscape:window-x="0"
     inkscape:window-y="0"
     inkscape:window-maximized="1"
     inkscape:snap-grids="true"
     inkscape:snap-to-guides="true">
    <inkscape:grid
       id="grid4138"
       type="xygrid" />
    <sodipodi:guide
       id="guide4140"
       orientation="0,1"
       position="10,18" />
    <sodipodi:guide
       id="guide4142"
       orientation="0,1"
       position="10,2" />
    <sodipodi:guide
       id="guide4144"
       orientation="1,0"
       position="2,10" />
    <sodipodi:guide
       id="guide4146"
       orientation="0,20"
       position="0,0" />
    <sodipodi:guide
       id="guide4148"
       orientation="-20,0"
       position="20,0" />
    <sodipodi:guide
       id="guide4150"
       orientation="0,-20"
       position="20,20" />
    <sodipodi:guide
       id="guide4152"
       orientation="20,0"
       position="0,20" />
    <sodipodi:guide
       id="guide4154"
       orientation="1,0"
       position="18,10" />
    <sodipodi:guide
       id="guide4156"
       orientation="-0.70710678,0.70710678"
       position="10,10" />
    <sodipodi:guide
       id="guide4160"
       orientation="1,0"
       position="4,10" />
    <sodipodi:guide
       id="guide4162"
       orientation="1,0"
       position="16,10" />
    <sodipodi:guide
       id="guide4164"
       orientation="0,1"
       position="10,16" />
    <sodipodi:guide
       id="guide4166"
       orientation="0,1"
       position="10,4" />
    <sodipodi:guide
       id="guide4168"
       orientation="0,1"
       position="10,15" />
    <sodipodi:guide
       id="guide4170"
       orientation="0,1"
       position="10,5" />
    <sodipodi:guide
       id="guide4172"
       orientation="1,0"
       position="5,10" />
    <sodipodi:guide
       id="guide4174"
       orientation="1,0"
       position="15,10" />
  </sodipodi:namedview>
  <defs
     id="defs4">
    <linearGradient
       inkscape:collect="always"
       id="linearGradient5142">
      <stop
         style="stop-color:#000000;stop-opacity:1;"
         offset="0"
         id="stop5144" />
      <stop
         style="stop-color:#000000;stop-opacity:0;"
         offset="1"
         id="stop5146" />
    </linearGradient>
    <clipPath
       clipPathUnits="userSpaceOnUse"
       id="clipPath12478">
      <circle
         style="opacity:1;fill:#2196f3;fill-opacity:1;stroke:none;stroke-width:0.05069799;stroke-miterlimit:4;stroke-dasharray:none;stroke-opacity:1"
         id="circle12480"
         cx="9.9999781"
         cy="10.000005"
         r="10" />
    </clipPath>
    <clipPath
       id="clipPath5790"
       clipPathUnits="userSpaceOnUse">
      <circle
         inkscape:export-ydpi="648"
         inkscape:export-xdpi="648"
         inkscape:export-filename="/home/juergen/path4136.png"
         style="opacity:1;fill:#2196f3;fill-opacity:1;stroke:none;stroke-width:0.05069799;stroke-miterlimit:4;stroke-dasharray:none;stroke-opacity:1"
         id="circle5792"
         cx="9.9999781"
         cy="10.000005"
         r="10" />
    </clipPath>
    <clipPath
       clipPathUnits="userSpaceOnUse"
       id="clipPath5055">
      <circle
         inkscape:export-ydpi="648"
         inkscape:export-xdpi="648"
         inkscape:export-filename="/home/juergen/path4136.png"
         style="opacity:1;fill:#2196f3;fill-opacity:1;stroke:none;stroke-width:0.05069799;stroke-miterlimit:4;stroke-dasharray:none;stroke-opacity:1"
         id="circle5057"
         cx="9.9999781"
         cy="10.000005"
         r="10" />
    </clipPath>
    <clipPath
       id="clipPath5119"
       clipPathUnits="userSpaceOnUse">
      <circle
         inkscape:export-ydpi="648"
         inkscape:export-xdpi="648"
         inkscape:export-filename="/home/juergen/Schreibtisch/path4136.png"
         style="opacity:1;fill:#2196f3;fill-opacity:1;stroke:none;stroke-width:0.05069799;stroke-miterlimit:4;stroke-dasharray:none;stroke-opacity:1"
         id="circle5121"
         cx="9.9999781"
         cy="10.000005"
         r="10" />
    </clipPath>
    <clipPath
       clipPathUnits="userSpaceOnUse"
       id="clipPath5194">
      <circle
         inkscape:export-ydpi="648"
         inkscape:export-xdpi="648"
         inkscape:export-filename="/home/juergen/Schreibtisch/path4136.png"
         style="opacity:1;fill:#cddc39;fill-opacity:1;stroke:none;stroke-width:0.05069799;stroke-miterlimit:4;stroke-dasharray:none;stroke-opacity:1"
         id="circle5196"
         cx="9.9999781"
         cy="10.000005"
         r="10" />
    </clipPath>
    <clipPath
       id="clipPath6175"
       clipPathUnits="userSpaceOnUse">
      <circle
         inkscape:export-ydpi="648"
         inkscape:export-xdpi="648"
         inkscape:export-filename="/home/juergen/Schreibtisch/path4136.png"
         style="opacity:1;fill:#f44336;fill-opacity:1;stroke:none;stroke-width:0.05069799;stroke-miterlimit:4;stroke-dasharray:none;stroke-opacity:1"
         id="circle6177"
         cx="9.9999781"
         cy="10.000005"
         r="10" />
    </clipPath>
    <clipPath
       clipPathUnits="userSpaceOnUse"
       id="clipPath7176">
      <circle
         inkscape:export-ydpi="648"
         inkscape:export-xdpi="648"
         inkscape:export-filename="/home/juergen/Schreibtisch/path4136.png"
         style="opacity:1;fill:#9c27b0;fill-opacity:1;stroke:none;stroke-width:0.05069799;stroke-miterlimit:4;stroke-dasharray:none;stroke-opacity:1"
         id="circle7178"
         cx="9.9999781"
         cy="10.000005"
         r="10" />
    </clipPath>
    <clipPath
       id="clipPath8165"
       clipPathUnits="userSpaceOnUse">
      <circle
         inkscape:export-ydpi="648"
         inkscape:export-xdpi="648"
         inkscape:export-filename="/home/juergen/Schreibtisch/path4136.png"
         style="opacity:1;fill:#ffc107;fill-opacity:1;stroke:none;stroke-width:0.05069799;stroke-miterlimit:4;stroke-dasharray:none;stroke-opacity:1"
         id="circle8167"
         cx="9.9999781"
         cy="10.000005"
         r="10" />
    </clipPath>
    <clipPath
       clipPathUnits="userSpaceOnUse"
       id="clipPath9162">
      <circle
         inkscape:export-ydpi="648"
         inkscape:export-xdpi="648"
         inkscape:export-filename="/home/juergen/Schreibtisch/path4136.png"
         style="opacity:1;fill:#ff9800;fill-opacity:1;stroke:none;stroke-width:0.05069799;stroke-miterlimit:4;stroke-dasharray:none;stroke-opacity:1"
         id="circle9164"
         cx="9.9999781"
         cy="10.000005"
         r="10" />
    </clipPath>
    <clipPath
       id="clipPath10753"
       clipPathUnits="userSpaceOnUse">
      <circle
         inkscape:export-ydpi="648"
         inkscape:export-xdpi="648"
         inkscape:export-filename="/home/juergen/Schreibtisch/path4136.png"
         style="opacity:1;fill:#607d8b;fill-opacity:1;stroke:none;stroke-width:0.05069799;stroke-miterlimit:4;stroke-dasharray:none;stroke-opacity:1"
         id="circle10755"
         cx="9.9999781"
         cy="10.000005"
         r="10" />
    </clipPath>
    <linearGradient
       inkscape:collect="always"
       xlink:href="#linearGradient5142"
       id="linearGradient5148"
       x1="10"
       y1="10"
       x2="20"
       y2="20"
       gradientUnits="userSpaceOnUse" />
    <clipPath
       clipPathUnits="userSpaceOnUse"
       id="clipPath5153">
      <circle
         inkscape:export-ydpi="648"
         inkscape:export-xdpi="648"
         inkscape:export-filename="/home/juergen/Schreibtisch/path4136.png"
         style="opacity:1;fill:#2196f3;fill-opacity:1;stroke:none;stroke-width:0.05069799;stroke-miterlimit:4;stroke-dasharray:none;stroke-opacity:1"
         id="circle5155"
         cx="9.9999781"
         cy="10.000005"
         r="10" />
    </clipPath>
  </defs>
  <metadata
     id="metadata7">
    <rdf:RDF>
      <cc:Work
         rdf:about="">
        <dc:format>image/svg+xml</dc:format>
        <dc:type
           rdf:resource="http://purl.org/dc/dcmitype/StillImage" />
        <dc:title></dc:title>
      </cc:Work>
    </rdf:RDF>
  </metadata>
  <g
     transform="translate(1058.1428,-861.93365)"
     id="layer1"
     inkscape:groupmode="layer"
     inkscape:label="Hintergrund">
    <circle
       r="10"
       cy="871.93365"
       cx="-1048.1428"
       id="path4136"
       style="opacity:1;fill:#2196f3;fill-opacity:1;stroke:none;stroke-width:0.05069799;stroke-miterlimit:4;stroke-dasharray:none;stroke-opacity:1"
       inkscape:export-filename="/home/juergen/Schreibtisch/path4136.png"
       inkscape:export-xdpi="648"
       inkscape:export-ydpi="648" />
  </g>
  <g
     inkscape:label="Icon"
     id="layer2"
     inkscape:groupmode="layer"
     style="display:inline">
    <path
       d="M 10.148438 6.8164062 C 8.9442709 6.8164062 7.8997395 7.4983072 7.3789062 8.4941406 C 6.1247394 8.6316406 5.1484375 9.6907558 5.1484375 10.982422 C 5.1484375 11.645464 5.4120185 12.281159 5.8808594 12.75 C 5.9059686 12.775109 5.9368446 12.792484 5.9628906 12.816406 C 5.9868124 12.842452 6.0041876 12.873328 6.0292969 12.898438 C 6.0544061 12.923547 6.0852821 12.940922 6.1113281 12.964844 C 6.1347136 12.990255 6.1512639 13.020404 6.1757812 13.044922 C 6.2021985 13.071339 6.2342659 13.090132 6.2617188 13.115234 C 6.2841263 13.139494 6.3007767 13.167964 6.3242188 13.191406 C 6.3477327 13.21492 6.376054 13.231433 6.4003906 13.253906 C 6.4249035 13.280655 6.4429868 13.312127 6.46875 13.337891 C 6.4951672 13.364308 6.5272346 13.383101 6.5546875 13.408203 C 6.5764982 13.431764 6.5924463 13.459634 6.6152344 13.482422 C 6.6396896 13.506877 6.6699681 13.523546 6.6953125 13.546875 C 6.7186416 13.572219 6.7353104 13.602498 6.7597656 13.626953 C 6.7826234 13.649811 6.8103487 13.665626 6.8339844 13.6875 C 6.8584972 13.714249 6.8765805 13.745721 6.9023438 13.771484 C 6.9264398 13.79558 6.9555092 13.812935 6.9804688 13.835938 C 7.0034716 13.860897 7.0208258 13.889966 7.0449219 13.914062 C 7.0690179 13.938159 7.0980874 13.955513 7.1230469 13.978516 C 7.1460497 14.003475 7.163404 14.032545 7.1875 14.056641 C 7.211596 14.080737 7.2406655 14.098091 7.265625 14.121094 C 7.2880862 14.145416 7.3046241 14.173765 7.328125 14.197266 C 7.3538882 14.223029 7.3853605 14.241112 7.4121094 14.265625 C 7.4333216 14.288489 7.448569 14.315757 7.4707031 14.337891 C 7.4929048 14.360092 7.5200328 14.37521 7.5429688 14.396484 C 7.5668905 14.42253 7.5842658 14.453406 7.609375 14.478516 C 7.6331763 14.502317 7.662856 14.518281 7.6875 14.541016 C 7.7096928 14.565024 7.7248403 14.593981 7.7480469 14.617188 C 7.7718482 14.640989 7.8015279 14.656953 7.8261719 14.679688 C 7.8483647 14.703696 7.8635122 14.732653 7.8867188 14.755859 C 7.9101608 14.779301 7.9386308 14.795952 7.9628906 14.818359 C 7.9852982 14.842619 8.0019486 14.871089 8.0253906 14.894531 C 8.0484734 14.917614 8.0757334 14.934951 8.0996094 14.957031 C 8.1216893 14.980907 8.1390266 15.008167 8.1621094 15.03125 C 8.1851922 15.054333 8.2124522 15.07167 8.2363281 15.09375 C 8.258408 15.117626 8.2757453 15.144886 8.2988281 15.167969 C 8.3216162 15.190757 8.3494856 15.206705 8.3730469 15.228516 C 8.3948576 15.252077 8.4108057 15.279946 8.4335938 15.302734 C 8.4563818 15.325522 8.4842512 15.341471 8.5078125 15.363281 C 8.5296232 15.386842 8.5455713 15.414712 8.5683594 15.4375 C 8.5911474 15.460288 8.6190169 15.476236 8.6425781 15.498047 C 8.6643888 15.521608 8.6803369 15.549478 8.703125 15.572266 C 8.7255538 15.594694 8.7522125 15.61133 8.7753906 15.632812 C 8.7968728 15.655991 8.8135087 15.682649 8.8359375 15.705078 C 8.8583663 15.727507 8.885025 15.744143 8.9082031 15.765625 C 8.9296853 15.788803 8.9463212 15.815462 8.96875 15.837891 C 8.9911788 15.860319 9.0178375 15.876955 9.0410156 15.898438 C 9.0619481 15.920977 9.0777803 15.946921 9.0996094 15.96875 C 9.1237054 15.992846 9.1527749 16.0102 9.1777344 16.033203 C 9.1974134 16.054295 9.211955 16.079142 9.2324219 16.099609 C 9.2529516 16.120139 9.2776695 16.13456 9.2988281 16.154297 C 9.3212357 16.178557 9.3378861 16.207027 9.3613281 16.230469 C 9.3847702 16.253911 9.4132402 16.270561 9.4375 16.292969 C 9.457237 16.314127 9.4716577 16.338845 9.4921875 16.359375 C 9.5139624 16.38115 9.5400185 16.397086 9.5625 16.417969 C 9.5833827 16.44045 9.5993189 16.466506 9.6210938 16.488281 C 9.6409067 16.508094 9.6651479 16.521941 9.6855469 16.541016 C 9.7079544 16.565275 9.7246048 16.593745 9.7480469 16.617188 C 9.769527 16.638668 9.7961915 16.653216 9.8183594 16.673828 C 9.8389714 16.695996 9.8535199 16.722661 9.875 16.744141 C 9.8964801 16.765621 9.9231446 16.780169 9.9453125 16.800781 C 9.9659245 16.822949 9.980473 16.849614 10.001953 16.871094 C 10.024741 16.893882 10.052611 16.90983 10.076172 16.931641 C 10.095303 16.952104 10.109033 16.97622 10.128906 16.996094 C 10.148719 17.015907 10.17296 17.029753 10.193359 17.048828 C 10.21517 17.072389 10.231118 17.100259 10.253906 17.123047 C 10.274785 17.143926 10.300736 17.157675 10.322266 17.177734 C 10.342325 17.199264 10.356074 17.225215 10.376953 17.246094 C 10.398074 17.267215 10.423526 17.282453 10.445312 17.302734 C 10.465594 17.32452 10.480832 17.349973 10.501953 17.371094 C 10.524143 17.393284 10.551295 17.408424 10.574219 17.429688 C 10.592688 17.449395 10.605841 17.473029 10.625 17.492188 C 10.644159 17.511346 10.667793 17.5245 10.6875 17.542969 C 10.708712 17.565833 10.72396 17.5931 10.746094 17.615234 C 10.766561 17.635701 10.791408 17.650243 10.8125 17.669922 C 10.832179 17.691014 10.846721 17.715861 10.867188 17.736328 C 10.887654 17.756795 10.912502 17.771337 10.933594 17.791016 C 10.953273 17.812108 10.967814 17.836955 10.988281 17.857422 C 11.008748 17.877889 11.033596 17.89243 11.054688 17.912109 C 11.073808 17.932561 11.087559 17.9567 11.107422 17.976562 C 11.127889 17.997029 11.152736 18.011571 11.173828 18.03125 C 11.192949 18.051702 11.2067 18.07584 11.226562 18.095703 C 11.246735 18.115875 11.272189 18.129031 11.292969 18.148438 C 11.312376 18.169217 11.325531 18.194672 11.345703 18.214844 C 11.365516 18.234657 11.389757 18.248503 11.410156 18.267578 C 11.429277 18.28803 11.443028 18.312168 11.462891 18.332031 C 11.482704 18.351844 11.506945 18.365691 11.527344 18.384766 C 11.546418 18.405165 11.560265 18.429406 11.580078 18.449219 C 11.599891 18.469032 11.624132 18.482878 11.644531 18.501953 C 11.663606 18.522352 11.677453 18.546593 11.697266 18.566406 C 11.716473 18.585614 11.740007 18.598674 11.759766 18.617188 C 11.77884 18.637586 11.792687 18.661828 11.8125 18.681641 C 11.833326 18.702467 11.859386 18.716318 11.880859 18.736328 C 11.898162 18.754713 11.909829 18.777017 11.927734 18.794922 C 11.945226 18.812414 11.966426 18.82488 11.984375 18.841797 C 12.004657 18.863583 12.019895 18.889035 12.041016 18.910156 C 12.060175 18.929315 12.083808 18.942469 12.103516 18.960938 C 12.121984 18.980645 12.135138 19.004279 12.154297 19.023438 C 12.174764 19.043904 12.199611 19.058446 12.220703 19.078125 C 12.23762 19.096074 12.250086 19.117274 12.267578 19.134766 C 12.28507 19.152257 12.306269 19.164724 12.324219 19.181641 C 12.343898 19.202733 12.358439 19.22758 12.378906 19.248047 C 12.398769 19.26791 12.422908 19.28166 12.443359 19.300781 C 12.460326 19.318787 12.472689 19.339876 12.490234 19.357422 C 12.507072 19.37426 12.52766 19.386039 12.544922 19.402344 C 12.564601 19.423436 12.579142 19.448283 12.599609 19.46875 C 12.618114 19.487255 12.641139 19.499717 12.660156 19.517578 C 12.678018 19.536595 12.690479 19.55962 12.708984 19.578125 C 12.727489 19.59663 12.750514 19.609092 12.769531 19.626953 C 12.787393 19.64597 12.799854 19.668995 12.818359 19.6875 C 12.836505 19.705646 12.858315 19.718801 12.876953 19.736328 C 12.89448 19.754966 12.907636 19.776776 12.925781 19.794922 C 12.943927 19.813068 12.965737 19.826223 12.984375 19.84375 C 13.001902 19.862388 13.015057 19.884198 13.033203 19.902344 C 13.051349 19.920489 13.073159 19.933645 13.091797 19.951172 C 13.109324 19.96981 13.122479 19.99162 13.140625 20.009766 C 13.15816 20.027301 13.17927 20.039683 13.197266 20.056641 C 13.214792 20.075279 13.227948 20.097089 13.246094 20.115234 C 13.263945 20.133085 13.28636 20.144857 13.304688 20.162109 C 13.32194 20.180437 13.333712 20.202852 13.351562 20.220703 C 13.368804 20.237944 13.390517 20.248942 13.408203 20.265625 C 13.425455 20.283953 13.437227 20.306368 13.455078 20.324219 C 13.47257 20.34171 13.493769 20.354177 13.511719 20.371094 C 13.528636 20.389043 13.541102 20.410243 13.558594 20.427734 C 13.576086 20.445226 13.597285 20.457693 13.615234 20.474609 C 13.632151 20.492559 13.644618 20.513758 13.662109 20.53125 C 13.678989 20.54813 13.69949 20.559827 13.716797 20.576172 C 13.733714 20.594121 13.74618 20.615321 13.763672 20.632812 C 13.780869 20.650009 13.802673 20.661093 13.820312 20.677734 C 13.836954 20.695374 13.848037 20.717178 13.865234 20.734375 C 13.882072 20.751213 13.90266 20.762992 13.919922 20.779297 C 13.936267 20.796603 13.947964 20.817104 13.964844 20.833984 C 13.983349 20.852489 14.006374 20.864951 14.025391 20.882812 C 14.040467 20.898704 14.050876 20.918064 14.066406 20.933594 C 14.081282 20.94847 14.100027 20.958196 14.115234 20.972656 C 14.133096 20.991673 14.145558 21.014698 14.164062 21.033203 C 14.1809 21.050041 14.201488 21.06182 14.21875 21.078125 C 14.235055 21.095387 14.246834 21.115975 14.263672 21.132812 C 14.279896 21.149037 14.299787 21.160051 14.316406 21.175781 C 14.332711 21.193043 14.34449 21.213631 14.361328 21.230469 C 14.377553 21.246693 14.397444 21.257707 14.414062 21.273438 C 14.429754 21.290014 14.440847 21.309988 14.457031 21.326172 C 14.475177 21.344318 14.496987 21.357473 14.515625 21.375 C 14.529746 21.389833 14.540171 21.407358 14.554688 21.421875 C 14.569608 21.436796 14.588261 21.446435 14.603516 21.460938 C 14.620198 21.478623 14.631196 21.500337 14.648438 21.517578 C 14.664621 21.533762 14.684596 21.544855 14.701172 21.560547 C 14.716864 21.577123 14.727957 21.597097 14.744141 21.613281 C 14.759965 21.629106 14.778722 21.640896 14.794922 21.65625 C 14.810276 21.67245 14.822066 21.691207 14.837891 21.707031 C 14.853715 21.722856 14.872472 21.734646 14.888672 21.75 C 14.904026 21.7662 14.915816 21.784957 14.931641 21.800781 C 14.946849 21.815989 14.964914 21.827023 14.980469 21.841797 C 14.995823 21.857997 15.007613 21.876754 15.023438 21.892578 C 15.038967 21.908108 15.058327 21.918517 15.074219 21.933594 C 15.089296 21.949485 15.099705 21.968845 15.115234 21.984375 C 15.132072 22.001213 15.15266 22.012992 15.169922 22.029297 C 15.183424 22.043448 15.193169 22.060356 15.207031 22.074219 C 15.220936 22.088124 15.237758 22.097786 15.251953 22.111328 C 15.268258 22.12859 15.280037 22.149178 15.296875 22.166016 C 15.3131 22.18224 15.332991 22.193254 15.349609 22.208984 C 15.363111 22.223135 15.372856 22.240044 15.386719 22.253906 C 15.400264 22.267452 15.415866 22.277814 15.429688 22.291016 C 15.445656 22.307901 15.458131 22.327271 15.474609 22.34375 C 15.489485 22.358626 15.50823 22.368352 15.523438 22.382812 C 15.537898 22.39802 15.547624 22.416765 15.5625 22.431641 C 15.577376 22.446516 15.59612 22.456243 15.611328 22.470703 C 15.625788 22.485911 15.635515 22.504655 15.650391 22.519531 C 15.664649 22.53379 15.682702 22.542764 15.697266 22.556641 C 15.711726 22.571848 15.721452 22.590593 15.736328 22.605469 C 15.750845 22.619985 15.76837 22.63041 15.783203 22.644531 C 15.797324 22.659364 15.807749 22.67689 15.822266 22.691406 C 15.836782 22.705923 15.854308 22.716348 15.869141 22.730469 C 15.882675 22.744656 15.892353 22.761493 15.90625 22.775391 C 15.922434 22.791574 15.942408 22.802668 15.958984 22.818359 C 15.971243 22.831151 15.979633 22.84682 15.992188 22.859375 C 16.004742 22.87193 16.020412 22.880319 16.033203 22.892578 C 16.048317 22.908511 16.05865 22.92779 16.074219 22.943359 C 16.088441 22.957581 16.106568 22.966627 16.121094 22.980469 C 16.134936 22.994994 16.143981 23.013122 16.158203 23.027344 C 16.1721 23.041241 16.188938 23.050918 16.203125 23.064453 C 16.216627 23.078604 16.226372 23.095512 16.240234 23.109375 C 16.253837 23.122978 16.271276 23.131276 16.285156 23.144531 C 16.298412 23.158412 16.30671 23.17585 16.320312 23.189453 C 16.334175 23.203316 16.351083 23.213061 16.365234 23.226562 C 16.378736 23.240714 16.388481 23.257622 16.402344 23.271484 C 16.417257 23.286398 16.435925 23.296051 16.451172 23.310547 C 16.462807 23.32266 16.470521 23.337709 16.482422 23.349609 C 16.494359 23.361546 16.509333 23.36919 16.521484 23.380859 C 16.535945 23.396067 16.545671 23.414812 16.560547 23.429688 C 16.573755 23.442896 16.590045 23.451963 16.603516 23.464844 C 16.616397 23.478314 16.625463 23.494604 16.638672 23.507812 C 16.65188 23.521021 16.66817 23.530088 16.681641 23.542969 C 16.694522 23.556439 16.703588 23.572729 16.716797 23.585938 C 16.729646 23.598787 16.744715 23.608554 16.757812 23.621094 C 16.770352 23.634191 16.780119 23.64926 16.792969 23.662109 C 16.805818 23.674959 16.820887 23.684726 16.833984 23.697266 C 16.846524 23.710363 16.856291 23.725432 16.869141 23.738281 C 16.88199 23.751131 16.897059 23.760898 16.910156 23.773438 C 16.922696 23.786535 16.932463 23.801604 16.945312 23.814453 C 16.957899 23.82704 16.973504 23.835367 16.986328 23.847656 C 16.998587 23.860448 17.006977 23.876117 17.019531 23.888672 C 17.032086 23.901226 17.047755 23.909616 17.060547 23.921875 C 17.072806 23.934666 17.081195 23.950336 17.09375 23.962891 C 17.105681 23.974822 17.120667 23.982477 17.132812 23.994141 C 17.145071 24.006932 17.153461 24.022602 17.166016 24.035156 C 17.178211 24.047352 17.192659 24.056443 17.205078 24.068359 C 17.216994 24.080778 17.226086 24.095226 17.238281 24.107422 C 17.250477 24.119617 17.264925 24.128709 17.277344 24.140625 C 17.28926 24.153044 17.298351 24.167492 17.310547 24.179688 C 17.322448 24.191588 17.337496 24.199303 17.349609 24.210938 C 17.361244 24.223051 17.368959 24.238099 17.380859 24.25 C 17.39276 24.261901 17.407808 24.269615 17.419922 24.28125 C 17.431557 24.293364 17.439271 24.308412 17.451172 24.320312 C 17.463073 24.332213 17.478121 24.339928 17.490234 24.351562 C 17.501869 24.363676 17.509584 24.378724 17.521484 24.390625 C 17.53276 24.401901 17.547127 24.408885 17.558594 24.419922 C 17.570229 24.432035 17.577943 24.447084 17.589844 24.458984 C 17.601385 24.470526 17.615211 24.478943 17.626953 24.490234 C 17.638245 24.501976 17.646662 24.515802 17.658203 24.527344 C 17.669118 24.538258 17.682266 24.54595 17.693359 24.556641 C 17.704651 24.568382 17.713068 24.582209 17.724609 24.59375 C 17.735856 24.604997 17.750282 24.612037 17.761719 24.623047 C 17.772728 24.634484 17.779769 24.64891 17.791016 24.660156 C 17.802262 24.671403 17.816688 24.678444 17.828125 24.689453 C 17.839134 24.70089 17.846175 24.715316 17.857422 24.726562 C 17.868309 24.73745 17.881512 24.745194 17.892578 24.755859 C 17.903243 24.766925 17.910988 24.780128 17.921875 24.791016 C 17.932762 24.801903 17.945965 24.809647 17.957031 24.820312 C 17.967696 24.831378 17.975441 24.844581 17.986328 24.855469 C 17.997216 24.866356 18.010419 24.874101 18.021484 24.884766 C 18.031546 24.895183 18.038569 24.90771 18.048828 24.917969 C 18.061024 24.930164 18.075472 24.939256 18.087891 24.951172 C 18.096979 24.96055 18.104032 24.97122 18.113281 24.980469 C 18.122207 24.989394 18.133533 24.99513 18.142578 25.003906 C 18.154213 25.01602 18.161927 25.031068 18.173828 25.042969 C 18.184421 25.053561 18.198223 25.05993 18.208984 25.070312 C 18.219367 25.081074 18.225735 25.094876 18.236328 25.105469 C 18.246587 25.115728 18.259114 25.122751 18.269531 25.132812 C 18.279568 25.143204 18.286642 25.155782 18.296875 25.166016 C 18.306479 25.175619 18.318382 25.181975 18.328125 25.191406 C 18.338162 25.201797 18.345235 25.214376 18.355469 25.224609 C 18.367369 25.23651 18.382418 25.244224 18.394531 25.255859 C 18.402675 25.264234 18.407744 25.274932 18.416016 25.283203 C 18.424312 25.2915 18.434959 25.29652 18.443359 25.304688 C 18.454396 25.316154 18.461381 25.330521 18.472656 25.341797 C 18.48253 25.351671 18.493885 25.359449 18.503906 25.369141 C 18.513598 25.379162 18.521376 25.390516 18.53125 25.400391 C 18.540829 25.40997 18.552782 25.416374 18.5625 25.425781 C 18.571907 25.435499 18.578311 25.447452 18.587891 25.457031 C 18.598778 25.467919 18.611981 25.475663 18.623047 25.486328 C 18.630866 25.49436 18.636594 25.503782 18.644531 25.511719 C 18.652444 25.519631 18.661915 25.525408 18.669922 25.533203 C 18.680587 25.544269 18.688331 25.557472 18.699219 25.568359 C 18.708439 25.57758 18.719167 25.584689 18.728516 25.59375 C 18.737577 25.603098 18.744686 25.613827 18.753906 25.623047 C 18.762832 25.631972 18.774158 25.637708 18.783203 25.646484 C 18.792001 25.655553 18.797692 25.666833 18.806641 25.675781 C 18.815861 25.685001 18.826589 25.692111 18.835938 25.701172 C 18.844998 25.71052 18.852108 25.721249 18.861328 25.730469 C 18.869915 25.739056 18.879973 25.745457 18.888672 25.753906 C 18.897121 25.762605 18.903522 25.772663 18.912109 25.78125 C 18.921035 25.790175 18.932361 25.795911 18.941406 25.804688 C 18.950182 25.813733 18.955918 25.825059 18.964844 25.833984 C 18.97341 25.842551 18.983511 25.848993 18.992188 25.857422 C 19.000616 25.866099 19.007059 25.876199 19.015625 25.884766 C 19.025858 25.894999 19.038437 25.902072 19.048828 25.912109 C 19.055351 25.91878 19.059802 25.926989 19.066406 25.933594 C 19.073011 25.940198 19.08122 25.944649 19.087891 25.951172 C 19.097928 25.961563 19.105001 25.974142 19.115234 25.984375 C 19.123506 25.992646 19.134203 25.997716 19.142578 26.005859 C 19.150721 26.014234 19.155791 26.024932 19.164062 26.033203 C 19.171994 26.041135 19.181426 26.046874 19.189453 26.054688 C 19.197248 26.062694 19.203025 26.072166 19.210938 26.080078 C 19.21885 26.08799 19.228321 26.093768 19.236328 26.101562 C 19.244142 26.109589 19.249881 26.119021 19.257812 26.126953 C 19.265725 26.134865 19.275196 26.140643 19.283203 26.148438 C 19.290998 26.156444 19.296775 26.165916 19.304688 26.173828 C 19.314267 26.183408 19.32622 26.189811 19.335938 26.199219 C 19.341822 26.205223 19.345612 26.2128 19.351562 26.21875 C 19.35918 26.226368 19.369248 26.230772 19.376953 26.238281 C 19.384462 26.245986 19.388867 26.256054 19.396484 26.263672 C 19.402435 26.269622 19.410012 26.273413 19.416016 26.279297 C 19.424792 26.288342 19.430528 26.299668 19.439453 26.308594 C 19.446711 26.315852 19.455553 26.320965 19.462891 26.328125 C 19.470068 26.335481 19.475146 26.344286 19.482422 26.351562 C 19.48968 26.358821 19.498522 26.363934 19.505859 26.371094 C 19.513019 26.378432 19.518132 26.387273 19.525391 26.394531 C 19.532649 26.40179 19.54149 26.406903 19.548828 26.414062 C 19.555988 26.4214 19.561101 26.430242 19.568359 26.4375 C 19.57498 26.444121 19.583157 26.448539 19.589844 26.455078 C 19.597003 26.462416 19.602117 26.471257 19.609375 26.478516 C 19.617941 26.487082 19.628042 26.493524 19.636719 26.501953 C 19.64161 26.506927 19.645454 26.512641 19.650391 26.517578 C 19.655328 26.522515 19.661042 26.526359 19.666016 26.53125 C 19.674444 26.539927 19.680887 26.550027 19.689453 26.558594 C 19.696057 26.565198 19.704267 26.569649 19.710938 26.576172 C 19.71746 26.582842 19.721911 26.591052 19.728516 26.597656 C 19.73512 26.604261 19.74333 26.608712 19.75 26.615234 C 19.755899 26.621254 19.75966 26.6288 19.765625 26.634766 C 19.772229 26.64137 19.780439 26.645821 19.787109 26.652344 C 19.793632 26.659014 19.798083 26.667224 19.804688 26.673828 C 19.810653 26.679794 19.818199 26.683554 19.824219 26.689453 C 19.830118 26.695472 19.833878 26.703019 19.839844 26.708984 C 19.846089 26.715229 19.853071 26.72039 19.859375 26.726562 C 19.865547 26.732867 19.870708 26.739849 19.876953 26.746094 C 19.882903 26.752044 19.890481 26.755835 19.896484 26.761719 C 19.902368 26.767723 19.906159 26.7753 19.912109 26.78125 C 19.91806 26.7872 19.925637 26.790991 19.931641 26.796875 C 19.937525 26.802879 19.941315 26.810456 19.947266 26.816406 C 19.95287 26.822011 19.959192 26.826486 19.964844 26.832031 C 19.970376 26.83767 19.974878 26.844018 19.980469 26.849609 C 19.98606 26.8552 19.992409 26.859702 19.998047 26.865234 C 20.003579 26.870873 20.008081 26.877221 20.013672 26.882812 C 20.018968 26.888109 20.025911 26.891241 20.03125 26.896484 C 20.036507 26.901837 20.039612 26.908752 20.044922 26.914062 C 20.05218 26.921321 20.061022 26.926434 20.068359 26.933594 C 20.071964 26.937243 20.074496 26.941683 20.078125 26.945312 C 20.081754 26.948942 20.086195 26.951474 20.089844 26.955078 C 20.096366 26.961748 20.100818 26.969958 20.107422 26.976562 C 20.112718 26.981859 20.119661 26.984991 20.125 26.990234 C 20.130244 26.995573 20.133376 27.002516 20.138672 27.007812 C 20.143621 27.012762 20.149311 27.016581 20.154297 27.021484 C 20.159188 27.026458 20.163032 27.032172 20.167969 27.037109 C 20.172623 27.041764 20.178906 27.044214 20.183594 27.048828 C 20.188208 27.053516 20.190658 27.059798 20.195312 27.064453 C 20.20025 27.06939 20.205964 27.073234 20.210938 27.078125 C 20.215829 27.083099 20.219672 27.088813 20.224609 27.09375 C 20.230575 27.099715 20.238121 27.103476 20.244141 27.109375 C 20.247099 27.112364 20.248978 27.116165 20.251953 27.119141 C 20.254937 27.122125 20.258721 27.123986 20.261719 27.126953 C 20.267603 27.132957 20.271393 27.140534 20.277344 27.146484 C 20.281627 27.150768 20.286705 27.153954 20.291016 27.158203 C 20.295264 27.162514 20.298451 27.167592 20.302734 27.171875 C 20.307018 27.176158 20.312095 27.179345 20.316406 27.183594 C 20.320655 27.187905 20.323842 27.192982 20.328125 27.197266 C 20.332113 27.201254 20.337784 27.203073 20.341797 27.207031 C 20.345755 27.211044 20.347574 27.216715 20.351562 27.220703 C 20.355551 27.224691 20.361222 27.22651 20.365234 27.230469 C 20.369193 27.234481 20.371012 27.240152 20.375 27.244141 C 20.378988 27.248129 20.384659 27.249948 20.388672 27.253906 C 20.39263 27.257919 20.394449 27.26359 20.398438 27.267578 C 20.402067 27.271207 20.406507 27.273739 20.410156 27.277344 C 20.413761 27.280993 20.416293 27.285433 20.419922 27.289062 C 20.423551 27.292692 20.427992 27.295224 20.431641 27.298828 C 20.435245 27.302477 20.437777 27.306918 20.441406 27.310547 C 20.444676 27.313817 20.447886 27.317063 20.451172 27.320312 C 20.454422 27.323599 20.457668 27.326808 20.460938 27.330078 C 20.464567 27.333707 20.469007 27.336239 20.472656 27.339844 C 20.475622 27.34284 20.477486 27.346627 20.480469 27.349609 C 20.483739 27.352879 20.486948 27.356125 20.490234 27.359375 C 20.493484 27.362661 20.49673 27.365871 20.5 27.369141 C 20.502975 27.372116 20.506777 27.373995 20.509766 27.376953 C 20.512732 27.379949 20.514595 27.383736 20.517578 27.386719 C 20.520553 27.389694 20.524355 27.391573 20.527344 27.394531 C 20.530302 27.39752 20.532181 27.401322 20.535156 27.404297 C 20.538131 27.407272 20.541933 27.409151 20.544922 27.412109 C 20.54788 27.415098 20.549759 27.4189 20.552734 27.421875 C 20.55535 27.424491 20.557921 27.427084 20.560547 27.429688 C 20.56315 27.432314 20.565743 27.434884 20.568359 27.4375 C 20.570975 27.440116 20.573546 27.442709 20.576172 27.445312 C 20.578775 27.447939 20.581368 27.450509 20.583984 27.453125 C 20.586306 27.455446 20.589468 27.456673 20.591797 27.458984 C 20.594108 27.461314 20.595335 27.464476 20.597656 27.466797 C 20.599977 27.469118 20.603139 27.470345 20.605469 27.472656 C 20.60778 27.474986 20.609007 27.478148 20.611328 27.480469 C 20.613649 27.48279 20.616811 27.484017 20.619141 27.486328 C 20.621452 27.488657 20.622679 27.491819 20.625 27.494141 C 20.626962 27.496103 20.628892 27.498045 20.630859 27.5 C 20.632814 27.501968 20.634757 27.503897 20.636719 27.505859 C 20.638681 27.507821 20.64061 27.509764 20.642578 27.511719 C 20.644533 27.513687 20.646476 27.515616 20.648438 27.517578 C 20.650399 27.51954 20.652329 27.521483 20.654297 27.523438 C 20.656252 27.525405 20.658194 27.527335 20.660156 27.529297 C 20.661828 27.530969 20.664339 27.531536 20.666016 27.533203 C 20.667678 27.534875 20.668255 27.537395 20.669922 27.539062 C 20.672905 27.542045 20.676691 27.543909 20.679688 27.546875 C 20.682646 27.549864 20.684525 27.553665 20.6875 27.556641 C 20.688808 27.557948 20.690096 27.559242 20.691406 27.560547 C 20.692711 27.561857 20.694005 27.563145 20.695312 27.564453 C 20.696326 27.565467 20.698203 27.565394 20.699219 27.566406 C 20.700233 27.567424 20.700155 27.569296 20.701172 27.570312 C 20.70248 27.57162 20.703768 27.572914 20.705078 27.574219 C 20.706383 27.575529 20.707676 27.576817 20.708984 27.578125 C 20.710015 27.579146 20.713812 27.581012 20.714844 27.582031 C 20.714844 27.582031 20.714844 27.583984 20.714844 27.583984 C 20.716123 27.585269 20.717468 27.586608 20.71875 27.587891 C 20.71875 27.587891 20.720703 27.589844 20.720703 27.589844 C 20.720703 27.589844 20.722656 27.591797 20.722656 27.591797 C 20.722656 27.591797 20.724609 27.59375 20.724609 27.59375 C 20.724609 27.59375 20.726562 27.595703 20.726562 27.595703 C 20.728517 27.597671 20.73046 27.599601 20.732422 27.601562 C 20.812889 27.68203 20.904539 27.746382 20.994141 27.814453 C 21.031658 27.842911 21.064575 27.878084 21.103516 27.904297 C 21.10503 27.905312 21.105905 27.907192 21.107422 27.908203 C 21.107422 27.908203 21.109375 27.910156 21.109375 27.910156 C 21.109375 27.910156 21.111328 27.912109 21.111328 27.912109 C 21.111747 27.912389 21.112863 27.91183 21.113281 27.912109 C 21.175774 27.953718 21.244782 27.981867 21.310547 28.017578 C 21.363859 28.046587 21.415489 28.078489 21.470703 28.103516 C 21.49435 28.114184 21.515098 28.130698 21.539062 28.140625 C 21.539592 28.140846 21.540486 28.140405 21.541016 28.140625 C 21.827221 28.25953 22.135922 28.321901 22.451172 28.328125 C 22.466963 28.328424 22.482223 28.332031 22.498047 28.332031 C 22.498701 28.332032 22.499346 28.332031 22.5 28.332031 L 27.916016 28.332031 C 28.192283 28.332031 28.46251 28.277539 28.712891 28.173828 C 28.838538 28.121783 28.958648 28.058301 29.072266 27.982422 C 29.18552 27.906902 29.290997 27.820332 29.388672 27.722656 C 29.38903 27.722298 29.388314 27.721061 29.388672 27.720703 C 29.681105 27.427844 29.879035 27.058164 29.958984 26.658203 C 29.959111 26.657571 29.958859 26.656882 29.958984 26.65625 C 29.985418 26.523369 30 26.387479 30 26.25 C 30 25.871646 29.893472 25.521271 29.716797 25.216797 C 29.700593 25.188871 29.689332 25.157938 29.671875 25.130859 C 29.671875 25.130859 29.669922 25.128906 29.669922 25.128906 C 29.60182 25.023096 29.52325 24.923508 29.4375 24.832031 C 29.436872 24.831365 29.436175 24.830743 29.435547 24.830078 C 29.435547 24.830078 29.433594 24.828125 29.433594 24.828125 C 29.433594 24.828125 29.431641 24.826172 29.431641 24.826172 C 29.431641 24.826172 29.429688 24.824219 29.429688 24.824219 C 29.429688 24.824219 29.427734 24.822266 29.427734 24.822266 C 29.427734 24.822266 29.425781 24.820312 29.425781 24.820312 C 29.425781 24.820312 29.423828 24.818359 29.423828 24.818359 C 29.423828 24.818359 29.421875 24.816406 29.421875 24.816406 C 29.421875 24.816406 29.419922 24.814453 29.419922 24.814453 C 29.418667 24.813121 29.415321 24.809922 29.414062 24.808594 C 29.409627 24.803843 29.40487 24.799631 29.400391 24.794922 C 29.398494 24.79291 29.394482 24.789114 29.392578 24.787109 C 29.3869 24.781011 29.38075 24.775561 29.375 24.769531 C 29.371862 24.766202 29.368394 24.763075 29.365234 24.759766 C 29.361469 24.75577 29.357312 24.752013 29.353516 24.748047 C 29.349723 24.744022 29.345621 24.740322 29.341797 24.736328 C 29.338005 24.732304 29.333902 24.728604 29.330078 24.724609 C 29.325654 24.719914 29.320874 24.715591 29.316406 24.710938 C 29.311982 24.706242 29.307202 24.70192 29.302734 24.697266 C 29.29831 24.69257 29.29353 24.688248 29.289062 24.683594 C 29.284022 24.678245 29.278534 24.673264 29.273438 24.667969 C 29.268381 24.662603 29.262926 24.657656 29.257812 24.652344 C 29.25402 24.648319 29.249918 24.644619 29.246094 24.640625 C 29.240449 24.634587 29.234232 24.629017 29.228516 24.623047 C 29.222871 24.617009 29.216654 24.611439 29.210938 24.605469 C 29.204958 24.599073 29.197465 24.59421 29.191406 24.587891 C 29.185083 24.581118 29.178288 24.575048 29.171875 24.568359 C 29.165552 24.561586 29.158756 24.555516 29.152344 24.548828 C 29.145401 24.541391 29.13791 24.534679 29.130859 24.527344 C 29.1239 24.519889 29.116443 24.513211 29.109375 24.505859 C 29.101805 24.497751 29.093636 24.490409 29.085938 24.482422 C 29.078986 24.474975 29.071513 24.468282 29.064453 24.460938 C 29.056261 24.45214 29.047405 24.444202 29.039062 24.435547 C 29.031475 24.427419 29.023342 24.420115 29.015625 24.412109 C 29.007433 24.403312 28.998577 24.395374 28.990234 24.386719 C 28.982034 24.377911 28.973195 24.369992 28.964844 24.361328 C 28.956047 24.35188 28.946471 24.343268 28.9375 24.333984 C 28.928372 24.324181 28.917518 24.316267 28.908203 24.306641 C 28.899043 24.296788 28.890209 24.287018 28.880859 24.277344 C 28.871743 24.267553 28.860865 24.259614 28.851562 24.25 C 28.841811 24.239511 28.832231 24.229036 28.822266 24.21875 C 28.812505 24.208239 28.800991 24.19976 28.791016 24.189453 C 28.782498 24.180291 28.774306 24.171117 28.765625 24.162109 C 28.752166 24.147518 28.738479 24.133342 28.724609 24.119141 C 28.715478 24.109374 28.70463 24.101387 28.695312 24.091797 C 28.68462 24.080283 28.673059 24.069864 28.662109 24.058594 C 28.651124 24.046764 28.63821 24.036963 28.626953 24.025391 C 28.615587 24.013133 28.603454 24.002216 28.591797 23.990234 C 28.582017 23.979687 28.572496 23.969327 28.5625 23.958984 C 28.547489 23.942667 28.531149 23.927941 28.515625 23.912109 C 28.506818 23.902675 28.497262 23.894035 28.488281 23.884766 C 28.47327 23.868448 28.45693 23.853722 28.441406 23.837891 C 28.430066 23.825711 28.417879 23.81464 28.40625 23.802734 C 28.393993 23.7895 28.379784 23.778538 28.367188 23.765625 C 28.354011 23.751376 28.339741 23.738485 28.326172 23.724609 C 28.31298 23.710345 28.298742 23.697485 28.285156 23.683594 C 28.271706 23.66905 28.258 23.654781 28.244141 23.640625 C 28.232251 23.627754 28.219242 23.616083 28.207031 23.603516 C 28.190182 23.585152 28.171793 23.56853 28.154297 23.550781 C 28.141733 23.537253 28.128153 23.52491 28.115234 23.511719 C 28.101172 23.496494 28.084823 23.48355 28.070312 23.46875 C 28.055292 23.452464 28.03897 23.437675 28.023438 23.421875 C 28.010254 23.407583 27.996 23.394778 27.982422 23.380859 C 27.964289 23.361067 27.944665 23.343298 27.925781 23.324219 C 27.911921 23.309272 27.897105 23.295785 27.882812 23.28125 C 27.867191 23.264314 27.850159 23.248832 27.833984 23.232422 C 27.818322 23.215442 27.801374 23.200045 27.785156 23.183594 C 27.769515 23.166635 27.752523 23.151197 27.736328 23.134766 C 27.720033 23.117053 27.702445 23.101124 27.685547 23.083984 C 27.670532 23.067663 27.6542 23.052945 27.638672 23.037109 C 27.61904 23.015624 27.598639 22.995256 27.578125 22.974609 C 27.564045 22.959406 27.54773 22.946419 27.533203 22.931641 C 27.513241 22.909794 27.491577 22.89012 27.470703 22.869141 C 27.454352 22.85146 27.436876 22.835465 27.419922 22.818359 C 27.412684 22.810492 27.405795 22.802677 27.398438 22.794922 C 27.397809 22.79426 27.39516 22.791677 27.394531 22.791016 C 27.384937 22.779521 27.378896 22.76526 27.369141 22.753906 C 27.36854 22.753207 27.367789 22.752652 27.367188 22.751953 C 27.367188 22.751953 27.365234 22.75 27.365234 22.75 C 27.365234 22.75 27.363281 22.748047 27.363281 22.748047 C 27.36208 22.746648 27.360579 22.745537 27.359375 22.744141 C 27.35817 22.742738 27.356676 22.741634 27.355469 22.740234 C 27.354267 22.738836 27.352767 22.737725 27.351562 22.736328 C 27.349765 22.734236 27.347506 22.732556 27.345703 22.730469 C 27.345397 22.73012 27.344057 22.730818 27.34375 22.730469 C 27.341981 22.728411 27.339665 22.726662 27.337891 22.724609 C 27.337891 22.724609 27.335938 22.722656 27.335938 22.722656 C 27.335938 22.722656 27.335938 22.720703 27.335938 22.720703 C 27.335938 22.720703 27.333984 22.71875 27.333984 22.71875 C 27.333984 22.71875 27.332031 22.716797 27.332031 22.716797 C 27.329628 22.714 27.326632 22.711773 27.324219 22.708984 C 27.324219 22.708984 27.322266 22.707031 27.322266 22.707031 C 27.322266 22.707031 27.320312 22.705078 27.320312 22.705078 C 27.320312 22.705078 27.318359 22.703125 27.318359 22.703125 C 27.318049 22.70278 27.316717 22.70347 27.316406 22.703125 C 27.316406 22.703125 27.314453 22.701172 27.314453 22.701172 C 27.314453 22.701172 27.3125 22.699219 27.3125 22.699219 C 27.310727 22.697142 27.308419 22.695432 27.306641 22.693359 C 27.306641 22.693359 27.306641 22.691406 27.306641 22.691406 C 27.303636 22.68791 27.299894 22.685123 27.296875 22.681641 C 27.29327 22.677445 27.288783 22.674098 27.285156 22.669922 C 27.285156 22.669922 27.283203 22.667969 27.283203 22.667969 C 27.283203 22.667969 27.28125 22.666016 27.28125 22.666016 C 27.28125 22.666016 27.279297 22.664062 27.279297 22.664062 C 27.279297 22.664062 27.277344 22.662109 27.277344 22.662109 C 27.276398 22.661096 27.274385 22.661168 27.273438 22.660156 C 27.273438 22.660156 27.271484 22.658203 27.271484 22.658203 C 27.270222 22.656853 27.268843 22.655644 27.267578 22.654297 C 27.267578 22.654297 27.265625 22.652344 27.265625 22.652344 C 27.265311 22.652011 27.265939 22.650723 27.265625 22.650391 C 27.264368 22.649043 27.262978 22.64783 27.261719 22.646484 C 27.260523 22.645093 27.25901 22.643967 27.257812 22.642578 C 27.257493 22.642242 27.256179 22.642915 27.255859 22.642578 C 27.255859 22.642578 27.253906 22.640625 27.253906 22.640625 C 27.252114 22.638552 27.249845 22.636834 27.248047 22.634766 C 27.246845 22.633367 27.245345 22.632256 27.244141 22.630859 C 27.242225 22.628867 27.240203 22.626988 27.238281 22.625 C 27.237004 22.623672 27.235655 22.62242 27.234375 22.621094 C 27.233173 22.619695 27.231673 22.618584 27.230469 22.617188 C 27.229191 22.615859 27.227842 22.614607 27.226562 22.613281 C 27.226562 22.613281 27.224609 22.611328 27.224609 22.611328 C 27.224609 22.611328 27.224609 22.609375 27.224609 22.609375 C 27.224609 22.609375 27.222656 22.607422 27.222656 22.607422 C 27.222656 22.607422 27.220703 22.605469 27.220703 22.605469 C 27.215896 22.599875 27.209924 22.595403 27.205078 22.589844 C 27.205078 22.589844 27.203125 22.587891 27.203125 22.587891 C 27.201596 22.586114 27.198799 22.585758 27.197266 22.583984 C 27.197266 22.583984 27.195312 22.582031 27.195312 22.582031 C 27.194108 22.58064 27.192614 22.579514 27.191406 22.578125 C 27.191406 22.578125 27.189453 22.576172 27.189453 22.576172 C 27.189453 22.576172 27.189453 22.574219 27.189453 22.574219 C 27.184344 22.568272 27.177029 22.564501 27.171875 22.558594 C 27.166421 22.552342 27.1598 22.547224 27.154297 22.541016 C 27.150692 22.53682 27.146205 22.533473 27.142578 22.529297 C 27.14132 22.52795 27.139932 22.526735 27.138672 22.525391 C 27.138672 22.525391 27.138672 22.523438 27.138672 22.523438 C 27.138672 22.523438 27.136719 22.521484 27.136719 22.521484 C 27.13159 22.515515 27.122361 22.509836 27.117188 22.503906 C 27.115363 22.501819 27.113158 22.50013 27.111328 22.498047 C 27.106911 22.493323 27.102102 22.489072 27.097656 22.484375 C 27.097656 22.484375 27.095703 22.482422 27.095703 22.482422 C 27.091871 22.478437 27.087838 22.474668 27.083984 22.470703 C 27.083038 22.469701 27.082979 22.467798 27.082031 22.466797 C 27.080792 22.465425 27.079366 22.46426 27.078125 22.462891 C 27.071814 22.455546 27.063019 22.450645 27.056641 22.443359 C 27.056641 22.443359 27.056641 22.441406 27.056641 22.441406 C 27.050329 22.434061 27.041535 22.427207 27.035156 22.419922 C 27.035156 22.419922 27.033203 22.417969 27.033203 22.417969 C 27.026867 22.410607 27.018123 22.405739 27.011719 22.398438 C 27.005109 22.390746 26.994964 22.382626 26.988281 22.375 C 26.987083 22.373606 26.985576 22.372486 26.984375 22.371094 C 26.979445 22.365611 26.973718 22.360917 26.96875 22.355469 C 26.96875 22.355469 26.966797 22.353516 26.966797 22.353516 C 26.966797 22.353516 26.966797 22.351562 26.966797 22.351562 C 26.966797 22.351562 26.964844 22.349609 26.964844 22.349609 C 26.957634 22.341218 26.946751 22.332532 26.939453 22.324219 C 26.932224 22.315806 26.921379 22.307163 26.914062 22.298828 C 26.906852 22.290437 26.895969 22.281751 26.888672 22.273438 C 26.880882 22.264371 26.86922 22.255069 26.861328 22.246094 C 26.852613 22.235952 26.840873 22.228778 26.832031 22.21875 C 26.825422 22.211058 26.81723 22.204892 26.810547 22.197266 C 26.809365 22.195881 26.807825 22.194742 26.806641 22.193359 C 26.805693 22.192358 26.805636 22.190453 26.804688 22.189453 C 26.796276 22.179663 26.783921 22.16984 26.775391 22.160156 C 26.766675 22.150013 26.752984 22.140889 26.744141 22.130859 C 26.741737 22.128062 26.738741 22.125835 26.736328 22.123047 C 26.731219 22.117733 26.72585 22.112699 26.720703 22.107422 C 26.719521 22.106037 26.717982 22.104898 26.716797 22.103516 C 26.716797 22.103516 26.716797 22.101562 26.716797 22.101562 C 26.716797 22.101562 26.714844 22.099609 26.714844 22.099609 C 26.707931 22.092195 26.700343 22.085472 26.693359 22.078125 C 26.69002 22.074314 26.684998 22.072154 26.681641 22.068359 C 26.681641 22.068359 26.679688 22.066406 26.679688 22.066406 C 26.672023 22.058436 26.663998 22.050858 26.65625 22.042969 C 26.65625 22.042969 26.654297 22.041016 26.654297 22.041016 C 26.652756 22.039317 26.651935 22.036851 26.650391 22.035156 C 26.640777 22.023968 26.626956 22.013003 26.617188 22.001953 C 26.607574 21.990765 26.593753 21.9798 26.583984 21.96875 C 26.57377 21.956862 26.559218 21.945325 26.548828 21.933594 C 26.538614 21.921706 26.524061 21.910168 26.513672 21.898438 C 26.511288 21.895663 26.508253 21.893391 26.505859 21.890625 C 26.505859 21.890625 26.503906 21.890625 26.503906 21.890625 C 26.500291 21.886452 26.495824 21.88306 26.492188 21.878906 C 26.487078 21.873593 26.481709 21.868559 26.476562 21.863281 C 26.472894 21.85915 26.468534 21.855674 26.464844 21.851562 C 26.457643 21.843791 26.450638 21.835822 26.443359 21.828125 C 26.443359 21.828125 26.441406 21.826172 26.441406 21.826172 C 26.429687 21.812533 26.414293 21.802494 26.402344 21.789062 C 26.398138 21.784168 26.392908 21.780259 26.388672 21.775391 C 26.382924 21.769413 26.376889 21.763745 26.371094 21.757812 C 26.370165 21.756724 26.370071 21.754993 26.369141 21.753906 C 26.367894 21.752548 26.366483 21.751356 26.365234 21.75 C 26.353818 21.736714 26.337807 21.724028 26.326172 21.710938 C 26.314756 21.697651 26.298744 21.684965 26.287109 21.671875 C 26.276019 21.658968 26.259343 21.647487 26.248047 21.634766 C 26.248047 21.634766 26.248047 21.632812 26.248047 21.632812 C 26.248047 21.632812 26.246094 21.630859 26.246094 21.630859 C 26.234077 21.616874 26.217337 21.603612 26.205078 21.589844 C 26.192157 21.574807 26.17531 21.563614 26.162109 21.548828 C 26.149491 21.534143 26.132025 21.520304 26.119141 21.505859 C 26.108325 21.493272 26.094996 21.483114 26.083984 21.470703 C 26.068093 21.452059 26.049522 21.43623 26.033203 21.417969 C 26.020316 21.402971 26.0034 21.391701 25.990234 21.376953 C 25.989295 21.375941 25.989222 21.374058 25.988281 21.373047 C 25.974795 21.357352 25.95715 21.3455 25.943359 21.330078 C 25.9277 21.313263 25.910555 21.297715 25.894531 21.28125 C 25.880097 21.265806 25.864351 21.251476 25.849609 21.236328 C 25.849609 21.236328 25.847656 21.234375 25.847656 21.234375 C 25.843142 21.229122 25.834626 21.225926 25.830078 21.220703 C 25.822511 21.212022 25.814301 21.203909 25.806641 21.195312 C 25.806641 21.195312 25.806641 21.193359 25.806641 21.193359 C 25.790178 21.17408 25.768873 21.155587 25.751953 21.136719 C 25.737533 21.119936 25.717893 21.10436 25.703125 21.087891 C 25.68844 21.0708 25.669342 21.057781 25.654297 21.041016 C 25.653354 21.04001 25.653288 21.038114 25.652344 21.037109 C 25.637322 21.019628 25.616961 21.00347 25.601562 20.986328 C 25.585638 20.967795 25.565177 20.953698 25.548828 20.935547 C 25.542219 20.927855 25.534027 20.921689 25.527344 20.914062 C 25.520318 20.906756 25.512955 20.899816 25.505859 20.892578 C 25.505859 20.892578 25.503906 20.890625 25.503906 20.890625 C 25.501702 20.888275 25.500258 20.885155 25.498047 20.882812 C 25.481521 20.86358 25.460342 20.848899 25.443359 20.830078 C 25.42954 20.813995 25.412577 20.800952 25.398438 20.785156 C 25.398438 20.785156 25.396484 20.783203 25.396484 20.783203 C 25.394276 20.780857 25.392841 20.77773 25.390625 20.775391 C 25.373801 20.755811 25.353234 20.739856 25.335938 20.720703 C 25.319714 20.701823 25.297913 20.684499 25.28125 20.666016 C 25.264724 20.646783 25.243545 20.632102 25.226562 20.613281 C 25.225614 20.612281 25.225559 20.610374 25.224609 20.609375 C 25.208084 20.590142 25.186904 20.575461 25.169922 20.556641 C 25.168972 20.555641 25.168919 20.553733 25.167969 20.552734 C 25.147237 20.528607 25.121058 20.509806 25.099609 20.486328 C 25.083642 20.469723 25.06711 20.453749 25.050781 20.4375 C 25.033655 20.417568 25.011757 20.402302 24.994141 20.382812 C 24.994141 20.382812 24.992188 20.380859 24.992188 20.380859 C 24.992188 20.380859 24.992188 20.378906 24.992188 20.378906 C 24.976263 20.360373 24.955802 20.346276 24.939453 20.328125 C 24.918449 20.3035 24.894795 20.281766 24.873047 20.257812 C 24.854718 20.236482 24.829436 20.218089 24.810547 20.197266 C 24.810547 20.197266 24.808594 20.195312 24.808594 20.195312 C 24.791988 20.178043 24.774809 20.161415 24.757812 20.144531 C 24.754954 20.141532 24.75287 20.137753 24.75 20.134766 C 24.730521 20.112096 24.705659 20.094362 24.685547 20.072266 C 24.676534 20.061777 24.665399 20.053336 24.65625 20.042969 C 24.648092 20.03424 24.639116 20.026213 24.630859 20.017578 C 24.608424 19.991256 24.581878 19.968914 24.558594 19.943359 C 24.538714 19.920224 24.514679 19.901444 24.494141 19.878906 C 24.473712 19.855131 24.448859 19.835644 24.427734 19.8125 C 24.407253 19.788663 24.382509 19.769296 24.361328 19.746094 C 24.340846 19.722257 24.316103 19.70289 24.294922 19.679688 C 24.273892 19.655213 24.24833 19.635134 24.226562 19.611328 C 24.205533 19.586854 24.17997 19.566774 24.158203 19.542969 C 24.136871 19.518142 24.109982 19.498748 24.087891 19.474609 C 24.067159 19.450482 24.04098 19.429727 24.019531 19.40625 C 24.019531 19.40625 24.017578 19.404297 24.017578 19.404297 C 23.998649 19.382267 23.974605 19.365238 23.955078 19.34375 C 23.955078 19.34375 23.953125 19.341797 23.953125 19.341797 C 23.928826 19.31331 23.900292 19.289306 23.875 19.261719 C 23.852768 19.235846 23.825789 19.214578 23.802734 19.189453 C 23.782906 19.166377 23.758765 19.147482 23.738281 19.125 C 23.712855 19.095169 23.682765 19.06986 23.65625 19.041016 C 23.633418 19.014443 23.605732 18.99258 23.582031 18.966797 C 23.558598 18.939525 23.530207 18.917065 23.505859 18.890625 C 23.482664 18.86363 23.453779 18.842586 23.429688 18.816406 C 23.408956 18.792279 23.382776 18.773477 23.361328 18.75 C 23.361328 18.75 23.359375 18.748047 23.359375 18.748047 C 23.359375 18.748047 23.359375 18.746094 23.359375 18.746094 C 23.33333 18.715592 23.302574 18.689624 23.275391 18.660156 C 23.251294 18.632113 23.222328 18.609194 23.197266 18.582031 C 23.172929 18.553708 23.14251 18.531332 23.117188 18.503906 C 23.095855 18.479079 23.068966 18.459685 23.046875 18.435547 C 23.019027 18.402842 22.986185 18.375269 22.957031 18.34375 C 22.943813 18.328366 22.927574 18.315902 22.914062 18.300781 C 22.905121 18.291482 22.895774 18.282625 22.886719 18.273438 C 22.858337 18.24008 22.824661 18.211812 22.794922 18.179688 C 22.769383 18.149966 22.737561 18.126389 22.710938 18.097656 C 22.688403 18.071431 22.660099 18.050847 22.636719 18.025391 C 22.635713 18.024447 22.635772 18.022426 22.634766 18.021484 C 22.606681 17.988594 22.572375 17.961374 22.542969 17.929688 C 22.540565 17.92689 22.537569 17.924663 22.535156 17.921875 C 22.513819 17.899045 22.490757 17.877649 22.46875 17.855469 C 22.439174 17.820708 22.404096 17.791233 22.373047 17.757812 C 22.346609 17.727045 22.314708 17.701582 22.287109 17.671875 C 22.260071 17.640408 22.227472 17.614341 22.199219 17.583984 C 22.17218 17.552517 22.139581 17.526451 22.111328 17.496094 C 22.08429 17.464627 22.05169 17.43856 22.023438 17.408203 C 21.995872 17.376122 21.962421 17.349286 21.933594 17.318359 C 21.905652 17.285841 21.871035 17.259848 21.841797 17.228516 C 21.831582 17.216628 21.818983 17.207043 21.808594 17.195312 C 21.793265 17.179371 21.77738 17.16405 21.761719 17.148438 C 21.730351 17.111571 21.693179 17.080279 21.660156 17.044922 C 21.631916 17.012056 21.597923 16.984779 21.568359 16.953125 C 21.539518 16.91956 21.504831 16.891675 21.474609 16.859375 C 21.445768 16.82581 21.411081 16.797925 21.380859 16.765625 C 21.351716 16.731708 21.315709 16.704501 21.285156 16.671875 C 21.259017 16.641454 21.226494 16.617275 21.199219 16.587891 C 21.166666 16.549661 21.128082 16.517073 21.09375 16.480469 C 21.067611 16.450048 21.035088 16.425868 21.007812 16.396484 C 20.974333 16.357096 20.935757 16.322822 20.900391 16.285156 C 20.870045 16.24984 20.832654 16.221415 20.800781 16.1875 C 20.77344 16.15568 20.73952 16.130294 20.710938 16.099609 C 20.710938 16.099609 20.708984 16.097656 20.708984 16.097656 C 20.675791 16.058742 20.6366 16.025507 20.601562 15.988281 C 20.573621 15.955762 20.539004 15.92977 20.509766 15.898438 C 20.475643 15.858364 20.436466 15.823442 20.400391 15.785156 C 20.369146 15.748794 20.33169 15.71847 20.298828 15.683594 C 20.266983 15.646532 20.228838 15.615595 20.195312 15.580078 C 20.16549 15.545371 20.128954 15.517729 20.097656 15.484375 C 20.063813 15.44474 20.024038 15.410927 19.988281 15.373047 C 19.955835 15.335286 19.917002 15.303735 19.882812 15.267578 C 19.850366 15.229817 19.811533 15.198266 19.777344 15.162109 C 19.744297 15.123649 19.704777 15.091483 19.669922 15.054688 C 19.638895 15.018578 19.600982 14.989722 19.568359 14.955078 C 19.535333 14.916399 19.495788 14.884665 19.460938 14.847656 C 19.425299 14.805918 19.383462 14.770259 19.345703 14.730469 C 19.314074 14.693659 19.275475 14.664193 19.242188 14.628906 C 19.20856 14.589523 19.16833 14.557182 19.132812 14.519531 C 19.096576 14.477093 19.054053 14.440814 19.015625 14.400391 C 18.981376 14.360532 18.940486 14.327132 18.904297 14.289062 C 18.871635 14.25105 18.831304 14.21998 18.796875 14.183594 C 18.760039 14.140453 18.716833 14.103558 18.677734 14.0625 C 18.642885 14.021942 18.601311 13.987923 18.564453 13.949219 C 18.529003 13.907962 18.486747 13.873323 18.449219 13.833984 C 18.413768 13.792727 18.371512 13.758089 18.333984 13.71875 C 18.298231 13.677141 18.254663 13.643173 18.216797 13.603516 C 18.182246 13.563305 18.140042 13.530577 18.103516 13.492188 C 18.101845 13.490607 18.101283 13.487905 18.099609 13.486328 C 18.066861 13.448215 18.026712 13.417338 17.992188 13.380859 C 17.952939 13.334684 17.905113 13.293799 17.863281 13.25 C 17.826629 13.207344 17.783012 13.171463 17.744141 13.130859 C 17.710791 13.092047 17.669956 13.060554 17.634766 13.023438 C 17.594918 12.976557 17.546416 12.935055 17.503906 12.890625 C 17.469956 12.851113 17.428436 12.819004 17.392578 12.78125 C 17.353928 12.735778 17.308735 12.697465 17.267578 12.654297 C 17.230231 12.610558 17.184204 12.574801 17.144531 12.533203 C 17.104083 12.485784 17.056848 12.445291 17.013672 12.400391 C 16.979121 12.36018 16.936917 12.327452 16.900391 12.289062 C 16.86004 12.241591 16.812611 12.201209 16.769531 12.15625 C 16.731148 12.111377 16.685363 12.073863 16.644531 12.03125 C 16.604301 11.984134 16.554643 11.943064 16.511719 11.898438 C 16.475365 11.856129 16.431116 11.82154 16.392578 11.78125 C 16.353278 11.735095 16.307509 11.696119 16.265625 11.652344 C 16.225936 11.60578 16.177085 11.567576 16.134766 11.523438 C 16.093223 11.474735 16.042464 11.430809 15.998047 11.384766 C 15.961693 11.342457 15.917444 11.307868 15.878906 11.267578 C 15.835675 11.216717 15.782687 11.171018 15.736328 11.123047 C 15.699373 11.080039 15.654445 11.044828 15.615234 11.003906 C 15.573092 10.954327 15.523631 10.91207 15.478516 10.865234 C 15.438285 10.818118 15.390581 10.779002 15.347656 10.734375 C 15.303985 10.683139 15.251926 10.640089 15.205078 10.591797 C 15.16572 10.545992 15.118085 10.508278 15.076172 10.464844 C 15.036034 10.417836 14.988132 10.378514 14.945312 10.333984 C 14.901976 10.283 14.851166 10.239487 14.804688 10.191406 C 14.762953 10.142529 14.7126 10.102836 14.667969 10.056641 C 14.623327 10.004305 14.571393 9.9594162 14.523438 9.9101562 C 14.482878 9.8629527 14.433897 9.8239812 14.390625 9.7792969 C 14.348103 9.7294978 14.297481 9.687639 14.251953 9.640625 C 14.210618 9.5922147 14.161365 9.5516398 14.117188 9.5058594 C 14.070383 9.4507942 14.015307 9.4032328 13.964844 9.3515625 C 13.924885 9.3050582 13.876577 9.2667163 13.833984 9.2226562 C 13.786952 9.1673238 13.732366 9.1202635 13.681641 9.0683594 C 13.641081 9.0211558 13.5921 8.9821843 13.548828 8.9375 C 13.501197 8.8814632 13.445948 8.8337693 13.394531 8.78125 C 13.353971 8.7340464 13.304991 8.695075 13.261719 8.6503906 C 13.213723 8.5939242 13.157309 8.5450815 13.105469 8.4921875 C 13.062505 8.4421869 13.010846 8.4006855 12.964844 8.3535156 C 12.919927 8.3009119 12.866626 8.2565227 12.818359 8.2070312 C 12.77464 8.1558299 12.722676 8.1127082 12.675781 8.0644531 C 12.628862 8.0092531 12.574033 7.9619445 12.523438 7.9101562 C 11.951027 7.2397779 11.099863 6.8164062 10.148438 6.8164062 z "
       id="path4293"
       style="fill-opacity:1;fill:url(#linearGradient5148);opacity:0.2"
       clip-path="url(#clipPath5153)" />
    <path
       style="fill:none"
       inkscape:connector-curvature="0"
       id="path4"
       d="m 3.9999777,4.0333382 12.0000003,0 0,11.9333328 -12.0000003,0 z" />
    <path
       d="m 18.999978,19.033339 12,0 0,11.933333 -12,0 z"
       id="path9754"
       inkscape:connector-curvature="0"
       style="fill:none" />
    <path
       inkscape:connector-curvature="0"
       d="m 13.062478,9.1791715 c -0.283334,-1.4333333 -1.545834,-2.5125 -3.0625001,-2.5125 -1.204167,0 -2.2500003,0.6833333 -2.7708336,1.6791667 -1.2541668,0.1375 -2.2291668,1.1958333 -2.2291668,2.4874998 a 2.5,2.5 0 0 0 2.5000001,2.5 l 5.4166664,0 a 2.0833333,2.0833333 0 0 0 2.083334,-2.083333 c 0,-1.1 -0.854167,-1.9916668 -1.9375,-2.0708335 z"
       id="path4231"
       style="fill:#ffffff" />
  </g>
</svg>
