<?xml version="1.0" encoding="UTF-8" standalone="no"?>
<!-- Created with Inkscape (http://www.inkscape.org/) -->

<svg
   xmlns:dc="http://purl.org/dc/elements/1.1/"
   xmlns:cc="http://creativecommons.org/ns#"
   xmlns:rdf="http://www.w3.org/1999/02/22-rdf-syntax-ns#"
   xmlns:svg="http://www.w3.org/2000/svg"
   xmlns="http://www.w3.org/2000/svg"
   xmlns:xlink="http://www.w3.org/1999/xlink"
   xmlns:sodipodi="http://sodipodi.sourceforge.net/DTD/sodipodi-0.dtd"
   xmlns:inkscape="http://www.inkscape.org/namespaces/inkscape"
   sodipodi:docname="Coin.svg"
   inkscape:version="0.91 r13725"
   version="1.1"
   id="svg2"
   viewBox="0 0 20 20"
   height="5.6444445mm"
   width="5.6444445mm"
   inkscape:export-filename="/home/juergen/Projekte/Android/Android_Studio/Baumann_Theme/theme/src/main/assets/icons/res/drawable-xxhdpi/a003.png"
   inkscape:export-xdpi="648"
   inkscape:export-ydpi="648">
  <sodipodi:namedview
     inkscape:snap-to-guides="true"
     inkscape:snap-grids="true"
     inkscape:window-maximized="1"
     inkscape:window-y="24"
     inkscape:window-x="0"
     inkscape:window-height="744"
     inkscape:window-width="1366"
     inkscape:guide-bbox="true"
     showguides="true"
     fit-margin-bottom="0"
     fit-margin-right="0"
     fit-margin-left="0"
     fit-margin-top="0"
     showgrid="true"
     inkscape:current-layer="layer2"
     inkscape:document-units="px"
     inkscape:cy="5.1607123"
     inkscape:cx="8.4734765"
     inkscape:zoom="22.4"
     inkscape:pageshadow="2"
     inkscape:pageopacity="0.0"
     borderopacity="1.0"
     bordercolor="#666666"
     pagecolor="#ffffff"
     id="base">
    <inkscape:grid
       type="xygrid"
       id="grid4138" />
    <sodipodi:guide
       position="24,18"
       orientation="0,1"
       id="guide4140" />
    <sodipodi:guide
       position="10,2"
       orientation="0,1"
       id="guide4142" />
    <sodipodi:guide
       position="2,10"
       orientation="1,0"
       id="guide4144" />
    <sodipodi:guide
       position="0,0"
       orientation="0,20"
       id="guide4146" />
    <sodipodi:guide
       position="20,0"
       orientation="-20,0"
       id="guide4148" />
    <sodipodi:guide
       position="20,20"
       orientation="0,-20"
       id="guide4150" />
    <sodipodi:guide
       position="0,20"
       orientation="20,0"
       id="guide4152" />
    <sodipodi:guide
       position="18,10"
       orientation="1,0"
       id="guide4154" />
    <sodipodi:guide
       position="10,10"
       orientation="-0.70710678,0.70710678"
       id="guide4156" />
    <sodipodi:guide
       position="10,10"
       orientation="0.70710678,0.70710678"
       id="guide4158" />
    <sodipodi:guide
       position="4,10"
       orientation="1,0"
       id="guide4160" />
    <sodipodi:guide
       position="16,10"
       orientation="1,0"
       id="guide4162" />
    <sodipodi:guide
       position="10,16"
       orientation="0,1"
       id="guide4164" />
    <sodipodi:guide
       position="10,4"
       orientation="0,1"
       id="guide4166" />
    <sodipodi:guide
       position="10,15"
       orientation="0,1"
       id="guide4168" />
    <sodipodi:guide
       position="10,5"
       orientation="0,1"
       id="guide4170" />
    <sodipodi:guide
       position="5,10"
       orientation="1,0"
       id="guide4172" />
    <sodipodi:guide
       position="15,10"
       orientation="1,0"
       id="guide4174" />
  </sodipodi:namedview>
  <defs
     id="defs4">
    <linearGradient
       inkscape:collect="always"
       id="linearGradient5115">
      <stop
         style="stop-color:#000000;stop-opacity:0.2"
         offset="0"
         id="stop5117" />
      <stop
         style="stop-color:#000000;stop-opacity:0;"
         offset="1"
         id="stop5119" />
    </linearGradient>
    <clipPath
       id="clipPath12478"
       clipPathUnits="userSpaceOnUse">
      <circle
         r="10"
         cy="10.000005"
         cx="9.9999781"
         id="circle12480"
         style="opacity:1;fill:#2196f3;fill-opacity:1;stroke:none;stroke-width:0.05069799;stroke-miterlimit:4;stroke-dasharray:none;stroke-opacity:1" />
    </clipPath>
    <clipPath
       clipPathUnits="userSpaceOnUse"
       id="clipPath5790">
      <circle
         r="10"
         cy="10.000005"
         cx="9.9999781"
         id="circle5792"
         style="opacity:1;fill:#2196f3;fill-opacity:1;stroke:none;stroke-width:0.05069799;stroke-miterlimit:4;stroke-dasharray:none;stroke-opacity:1"
         inkscape:export-filename="/home/juergen/path4136.png"
         inkscape:export-xdpi="648"
         inkscape:export-ydpi="648" />
    </clipPath>
    <clipPath
       id="clipPath7690"
       clipPathUnits="userSpaceOnUse">
      <circle
         r="10"
         cy="10.000005"
         cx="9.9999781"
         id="circle7692"
         style="opacity:1;fill:#2196f3;fill-opacity:1;stroke:none;stroke-width:0.05069799;stroke-miterlimit:4;stroke-dasharray:none;stroke-opacity:1"
         inkscape:export-filename="/home/juergen/Schreibtisch/path4136.png"
         inkscape:export-xdpi="648"
         inkscape:export-ydpi="648" />
    </clipPath>
    <clipPath
       clipPathUnits="userSpaceOnUse"
       id="clipPath5119">
      <circle
         r="10"
         cy="10.000005"
         cx="9.9999781"
         id="circle5121"
         style="opacity:1;fill:#ff9800;fill-opacity:1;stroke:none;stroke-width:0.05069799;stroke-miterlimit:4;stroke-dasharray:none;stroke-opacity:1"
         inkscape:export-filename="/home/juergen/Schreibtisch/path4136.png"
         inkscape:export-xdpi="648"
         inkscape:export-ydpi="648" />
    </clipPath>
    <clipPath
       id="clipPath6101"
       clipPathUnits="userSpaceOnUse">
      <circle
         r="10"
         cy="10.000005"
         cx="9.9999781"
         id="circle6103"
         style="opacity:1;fill:#8bc34a;fill-opacity:1;stroke:none;stroke-width:0.05069799;stroke-miterlimit:4;stroke-dasharray:none;stroke-opacity:1"
         inkscape:export-filename="/home/juergen/Schreibtisch/path4136.png"
         inkscape:export-xdpi="648"
         inkscape:export-ydpi="648" />
    </clipPath>
    <linearGradient
       inkscape:collect="always"
       xlink:href="#linearGradient5115"
       id="linearGradient5121"
       x1="10"
       y1="10"
       x2="20"
       y2="20"
       gradientUnits="userSpaceOnUse" />
    <clipPath
       clipPathUnits="userSpaceOnUse"
       id="clipPath5126">
      <circle
         r="10"
         cy="10.000005"
         cx="9.9999781"
         id="circle5128"
         style="opacity:1;fill:#9e9e9e;fill-opacity:1;stroke:none;stroke-width:0.05069799;stroke-miterlimit:4;stroke-dasharray:none;stroke-opacity:1"
         inkscape:export-filename="/home/juergen/Schreibtisch/path4136.png"
         inkscape:export-xdpi="648"
         inkscape:export-ydpi="648" />
    </clipPath>
  </defs>
  <metadata
     id="metadata7">
    <rdf:RDF>
      <cc:Work
         rdf:about="">
        <dc:format>image/svg+xml</dc:format>
        <dc:type
           rdf:resource="http://purl.org/dc/dcmitype/StillImage" />
        <dc:title></dc:title>
      </cc:Work>
    </rdf:RDF>
  </metadata>
  <g
     inkscape:label="Hintergrund"
     inkscape:groupmode="layer"
     id="layer1"
     transform="translate(1058.1428,-861.93365)">
    <circle
       inkscape:export-ydpi="648"
       inkscape:export-xdpi="648"
       inkscape:export-filename="/home/juergen/Schreibtisch/path4136.png"
       style="opacity:1;fill:#9e9e9e;fill-opacity:1;stroke:none;stroke-width:0.05069799;stroke-miterlimit:4;stroke-dasharray:none;stroke-opacity:1"
       id="path4136"
       cx="-1048.1428"
       cy="871.93365"
       r="10" />
  </g>
  <g
     style="display:inline"
     inkscape:groupmode="layer"
     id="layer2"
     inkscape:label="Icon">
    <path
       d="M 10.148438 5.1484375 C 8.8223552 5.1484375 7.5509631 5.6755993 6.6132812 6.6132812 C 5.6755993 7.5509633 5.1484374 8.8223555 5.1484375 10.148438 C 5.1484375 11.528608 5.7081331 12.778446 6.6132812 13.683594 C 6.6381568 13.708469 6.6699202 13.725651 6.6953125 13.75 C 6.7196692 13.775401 6.7368343 13.807147 6.7617188 13.832031 C 6.7849514 13.855264 6.8142074 13.871758 6.8378906 13.894531 C 6.8635282 13.921329 6.8819785 13.954244 6.9082031 13.980469 C 6.9327027 14.004968 6.9632814 14.022887 6.9882812 14.046875 C 7.0123438 14.071957 7.030109 14.102375 7.0546875 14.126953 C 7.0791958 14.151461 7.1097572 14.169364 7.1347656 14.193359 C 7.1587686 14.218376 7.1766549 14.248921 7.2011719 14.273438 C 7.2250716 14.297337 7.2549219 14.314479 7.2792969 14.337891 C 7.3033076 14.362916 7.3211776 14.393443 7.3457031 14.417969 C 7.3699359 14.442202 7.4010605 14.458692 7.4257812 14.482422 C 7.449519 14.507151 7.4659931 14.538259 7.4902344 14.5625 C 7.5157724 14.588038 7.5481396 14.60588 7.5742188 14.630859 C 7.5964117 14.653916 7.6121336 14.682446 7.6347656 14.705078 C 7.657333 14.727646 7.6859944 14.743494 7.7089844 14.765625 C 7.7339791 14.791721 7.751788 14.824054 7.7773438 14.849609 C 7.8028995 14.875165 7.8352317 14.892974 7.8613281 14.917969 C 7.8828771 14.940332 7.8979586 14.968271 7.9199219 14.990234 C 7.9421498 15.012462 7.9695504 15.028978 7.9921875 15.050781 C 8.0168574 15.076524 8.0353297 15.107595 8.0605469 15.132812 C 8.0841094 15.156375 8.1126971 15.174181 8.1367188 15.197266 C 8.159811 15.221295 8.1776013 15.249867 8.2011719 15.273438 C 8.2247686 15.297034 8.2552401 15.31282 8.2792969 15.335938 C 8.3024214 15.360002 8.3181922 15.390458 8.3417969 15.414062 C 8.3650819 15.437348 8.3942362 15.453745 8.4179688 15.476562 C 8.4407586 15.500265 8.4572123 15.529478 8.4804688 15.552734 C 8.5037252 15.575991 8.5329382 15.592445 8.5566406 15.615234 C 8.5794375 15.638944 8.5958764 15.668142 8.6191406 15.691406 C 8.6437029 15.715969 8.6741597 15.733771 8.6992188 15.757812 C 8.720438 15.779821 8.7361893 15.806502 8.7578125 15.828125 C 8.780735 15.851048 8.8086763 15.868157 8.8320312 15.890625 C 8.8545064 15.913987 8.8716012 15.941914 8.8945312 15.964844 C 8.9174252 15.987738 8.9454251 16.004903 8.96875 16.027344 C 8.9911973 16.050676 9.0083486 16.078661 9.03125 16.101562 C 9.0522374 16.12255 9.0782599 16.137597 9.0996094 16.158203 C 9.1236493 16.183261 9.1414525 16.213718 9.1660156 16.238281 C 9.1886605 16.260926 9.2171686 16.276628 9.2402344 16.298828 C 9.2624133 16.321871 9.2781583 16.350424 9.3007812 16.373047 C 9.3247337 16.396999 9.3544836 16.414045 9.3789062 16.4375 C 9.3994993 16.458836 9.4145719 16.484884 9.4355469 16.505859 C 9.457821 16.528133 9.4851319 16.544563 9.5078125 16.566406 C 9.5296623 16.589094 9.5460781 16.616391 9.5683594 16.638672 C 9.5906406 16.660953 9.6179374 16.677369 9.640625 16.699219 C 9.6624812 16.721913 9.6788835 16.749196 9.7011719 16.771484 C 9.7215102 16.791823 9.7469013 16.806193 9.7675781 16.826172 C 9.7909947 16.850554 9.8081164 16.880382 9.8320312 16.904297 C 9.8539988 16.926264 9.8819351 16.941343 9.9042969 16.962891 C 9.9258505 16.985259 9.9409162 17.013182 9.9628906 17.035156 C 9.984865 17.057131 10.012788 17.072196 10.035156 17.09375 C 10.056716 17.116125 10.071769 17.144034 10.09375 17.166016 C 10.11703 17.189296 10.1462 17.205708 10.169922 17.228516 C 10.189868 17.249158 10.204303 17.274616 10.224609 17.294922 C 10.244322 17.314635 10.269033 17.328282 10.289062 17.347656 C 10.311883 17.371393 10.328268 17.400533 10.351562 17.423828 C 10.374857 17.447123 10.403998 17.463508 10.427734 17.486328 C 10.447119 17.50637 10.460744 17.531056 10.480469 17.550781 C 10.500431 17.570744 10.524635 17.585855 10.544922 17.605469 C 10.567413 17.628849 10.58447 17.656735 10.607422 17.679688 C 10.630081 17.702346 10.658565 17.718025 10.681641 17.740234 C 10.700983 17.76023 10.714694 17.785006 10.734375 17.804688 C 10.755712 17.826024 10.782981 17.84039 10.804688 17.861328 C 10.825631 17.883041 10.839985 17.910297 10.861328 17.931641 C 10.882315 17.952628 10.908343 17.96768 10.929688 17.988281 C 10.950294 18.009632 10.965335 18.035647 10.986328 18.056641 C 11.005665 18.075977 11.029188 18.090366 11.048828 18.109375 C 11.070658 18.132042 11.08711 18.159375 11.109375 18.181641 C 11.131376 18.203641 11.159248 18.218659 11.181641 18.240234 C 11.201004 18.260253 11.21467 18.284983 11.234375 18.304688 C 11.253429 18.323742 11.277527 18.336734 11.296875 18.355469 C 11.318462 18.377874 11.333455 18.405721 11.355469 18.427734 C 11.377454 18.44972 11.405358 18.464768 11.427734 18.486328 C 11.44648 18.505687 11.45945 18.529763 11.478516 18.548828 C 11.497195 18.567507 11.520101 18.581237 11.539062 18.599609 C 11.560916 18.622302 11.577318 18.649584 11.599609 18.671875 C 11.621251 18.693516 11.647903 18.70924 11.669922 18.730469 C 11.688332 18.749471 11.701984 18.772296 11.720703 18.791016 C 11.7391 18.809412 11.76258 18.821746 11.78125 18.839844 C 11.802833 18.862245 11.817833 18.890099 11.839844 18.912109 C 11.85984 18.932106 11.883978 18.947154 11.904297 18.966797 C 11.923945 18.987121 11.938983 19.011248 11.958984 19.03125 C 11.980644 19.05291 12.007259 19.068598 12.029297 19.089844 C 12.047064 19.108161 12.06007 19.130382 12.078125 19.148438 C 12.096513 19.166826 12.120011 19.179176 12.138672 19.197266 C 12.159646 19.219011 12.173934 19.2462 12.195312 19.267578 C 12.215032 19.287297 12.239734 19.300937 12.259766 19.320312 C 12.279116 19.340318 12.292806 19.365071 12.3125 19.384766 C 12.333527 19.405793 12.359477 19.420771 12.380859 19.441406 C 12.398618 19.459715 12.41164 19.481953 12.429688 19.5 C 12.448766 19.519079 12.472816 19.532025 12.492188 19.550781 C 12.511553 19.570803 12.525212 19.595524 12.544922 19.615234 C 12.564632 19.634945 12.589353 19.648603 12.609375 19.667969 C 12.628089 19.687295 12.641121 19.711433 12.660156 19.730469 C 12.679246 19.749558 12.703275 19.762484 12.722656 19.78125 C 12.741403 19.800611 12.754367 19.82468 12.773438 19.84375 C 12.792507 19.86282 12.816576 19.875784 12.835938 19.894531 C 12.854689 19.913898 12.867644 19.937956 12.886719 19.957031 C 12.904134 19.974447 12.925701 19.98676 12.943359 20.003906 C 12.963368 20.024616 12.977669 20.049935 12.998047 20.070312 C 13.018398 20.090664 13.04377 20.105017 13.064453 20.125 C 13.081582 20.14264 13.09393 20.164243 13.111328 20.181641 C 13.130056 20.200369 13.152866 20.214006 13.171875 20.232422 C 13.190267 20.251405 13.203952 20.274265 13.222656 20.292969 C 13.241095 20.311407 13.264493 20.323661 13.283203 20.341797 C 13.301316 20.360483 13.313616 20.383929 13.332031 20.402344 C 13.350446 20.420759 13.373892 20.433059 13.392578 20.451172 C 13.410695 20.469862 13.422986 20.493299 13.441406 20.511719 C 13.459826 20.530139 13.483263 20.54243 13.501953 20.560547 C 13.520075 20.579242 13.532357 20.602669 13.550781 20.621094 C 13.568849 20.639161 13.591047 20.652146 13.609375 20.669922 C 13.627155 20.688254 13.640131 20.710444 13.658203 20.728516 C 13.676275 20.746588 13.698465 20.759563 13.716797 20.777344 C 13.734582 20.79568 13.747548 20.817861 13.765625 20.835938 C 13.783702 20.854014 13.805882 20.866981 13.824219 20.884766 C 13.841985 20.903083 13.854989 20.925301 13.873047 20.943359 C 13.890834 20.961146 13.913602 20.97273 13.931641 20.990234 C 13.949149 21.008277 13.960724 21.031037 13.978516 21.048828 C 13.996307 21.06662 14.019066 21.078195 14.037109 21.095703 C 14.054573 21.113699 14.066239 21.136551 14.083984 21.154297 C 14.101423 21.171735 14.122945 21.184006 14.140625 21.201172 C 14.157795 21.218856 14.170057 21.24037 14.1875 21.257812 C 14.20492 21.275233 14.226479 21.287539 14.244141 21.304688 C 14.261315 21.322376 14.273569 21.343881 14.291016 21.361328 C 14.308413 21.378726 14.330019 21.391077 14.347656 21.408203 C 14.364786 21.425845 14.377129 21.447442 14.394531 21.464844 C 14.411688 21.482 14.433782 21.492873 14.451172 21.509766 C 14.468068 21.52716 14.478933 21.549246 14.496094 21.566406 C 14.513206 21.583518 14.53539 21.594479 14.552734 21.611328 C 14.569587 21.628676 14.58054 21.650852 14.597656 21.667969 C 14.613113 21.683426 14.632791 21.693742 14.648438 21.708984 C 14.666578 21.7277 14.678819 21.751085 14.697266 21.769531 C 14.71405 21.786316 14.734946 21.797922 14.751953 21.814453 C 14.768488 21.831464 14.780086 21.852352 14.796875 21.869141 C 14.813664 21.885929 14.834551 21.897527 14.851562 21.914062 C 14.868101 21.931078 14.879692 21.951957 14.896484 21.96875 C 14.914581 21.986847 14.936723 21.999776 14.955078 22.017578 C 14.969987 22.032873 14.980979 22.051292 14.996094 22.066406 C 15.012511 22.082824 15.032198 22.095153 15.048828 22.111328 C 15.065007 22.127962 15.077329 22.147641 15.09375 22.164062 C 15.108574 22.178886 15.127581 22.188499 15.142578 22.203125 C 15.160059 22.221139 15.171688 22.243954 15.189453 22.261719 C 15.205605 22.27787 15.22583 22.288771 15.242188 22.304688 C 15.258083 22.321023 15.269026 22.341292 15.285156 22.357422 C 15.301266 22.373532 15.321577 22.384515 15.337891 22.400391 C 15.35377 22.416708 15.364746 22.437012 15.380859 22.453125 C 15.398275 22.470541 15.419846 22.482858 15.4375 22.5 C 15.45179 22.514644 15.462083 22.532396 15.476562 22.546875 C 15.492346 22.562659 15.511364 22.574285 15.527344 22.589844 C 15.542906 22.605827 15.554525 22.624838 15.570312 22.640625 C 15.5861 22.656413 15.60511 22.668031 15.621094 22.683594 C 15.636635 22.699555 15.648296 22.718609 15.664062 22.734375 C 15.679559 22.749871 15.699159 22.760111 15.714844 22.775391 C 15.730126 22.791079 15.74036 22.810672 15.755859 22.826172 C 15.771335 22.841648 15.790977 22.851928 15.806641 22.867188 C 15.821903 22.882855 15.832177 22.90249 15.847656 22.917969 C 15.861474 22.931786 15.878611 22.941433 15.892578 22.955078 C 15.909109 22.972086 15.920713 22.992979 15.9375 23.009766 C 15.954287 23.026552 15.97518 23.038156 15.992188 23.054688 C 16.005838 23.068661 16.015473 23.085786 16.029297 23.099609 C 16.042468 23.112781 16.058958 23.121752 16.072266 23.134766 C 16.088804 23.15178 16.100394 23.172659 16.117188 23.189453 C 16.133981 23.206247 16.15486 23.217837 16.171875 23.234375 C 16.184894 23.247688 16.193854 23.264167 16.207031 23.277344 C 16.221871 23.292184 16.240847 23.301766 16.255859 23.316406 C 16.270502 23.331422 16.280079 23.350391 16.294922 23.365234 C 16.309746 23.380058 16.328754 23.389672 16.34375 23.404297 C 16.358377 23.419296 16.367986 23.438298 16.382812 23.453125 C 16.3973 23.467613 16.415036 23.47789 16.429688 23.492188 C 16.443987 23.506842 16.454259 23.524572 16.46875 23.539062 C 16.483222 23.553535 16.500989 23.563843 16.515625 23.578125 C 16.52991 23.592764 16.540212 23.610525 16.554688 23.625 C 16.567501 23.637813 16.582762 23.647492 16.595703 23.660156 C 16.611255 23.676129 16.622894 23.69516 16.638672 23.710938 C 16.652852 23.725118 16.671209 23.734049 16.685547 23.748047 C 16.699547 23.762387 16.708473 23.780739 16.722656 23.794922 C 16.736839 23.809105 16.755191 23.818031 16.769531 23.832031 C 16.783534 23.846374 16.792455 23.86472 16.806641 23.878906 C 16.822131 23.894397 16.841744 23.90465 16.857422 23.919922 C 16.869807 23.932573 16.878096 23.948409 16.890625 23.960938 C 16.904459 23.974772 16.921564 23.984387 16.935547 23.998047 C 16.949188 24.012011 16.958841 24.029153 16.972656 24.042969 C 16.984829 24.055142 16.99943 24.064134 17.011719 24.076172 C 17.02665 24.091491 17.037594 24.109859 17.052734 24.125 C 17.067875 24.140141 17.086243 24.151084 17.101562 24.166016 C 17.113586 24.178289 17.122607 24.19292 17.134766 24.205078 C 17.146648 24.216961 17.161835 24.224574 17.173828 24.236328 C 17.188479 24.251352 17.198038 24.270304 17.212891 24.285156 C 17.227743 24.300009 17.246695 24.309568 17.261719 24.324219 C 17.273459 24.336197 17.2811 24.351412 17.292969 24.363281 C 17.306142 24.376455 17.322629 24.385422 17.335938 24.398438 C 17.348975 24.411769 17.357897 24.42821 17.371094 24.441406 C 17.38427 24.454582 17.400752 24.463545 17.414062 24.476562 C 17.427082 24.489876 17.43604 24.506353 17.449219 24.519531 C 17.462039 24.532351 17.477286 24.542018 17.490234 24.554688 C 17.502907 24.567638 17.512568 24.582881 17.525391 24.595703 C 17.538213 24.608526 17.553456 24.618187 17.566406 24.630859 C 17.579081 24.643812 17.588738 24.65905 17.601562 24.671875 C 17.614387 24.6847 17.629626 24.694357 17.642578 24.707031 C 17.655255 24.719986 17.664907 24.73522 17.677734 24.748047 C 17.690267 24.760579 17.706096 24.768861 17.71875 24.78125 C 17.731141 24.793907 17.739418 24.809731 17.751953 24.822266 C 17.764488 24.8348 17.780312 24.843078 17.792969 24.855469 C 17.805362 24.868128 17.813635 24.883947 17.826172 24.896484 C 17.837044 24.907357 17.850364 24.915017 17.861328 24.925781 C 17.874977 24.939753 17.884613 24.956879 17.898438 24.970703 C 17.910618 24.982884 17.925204 24.991862 17.9375 25.003906 C 17.949528 25.016184 17.95854 25.030805 17.970703 25.042969 C 17.98453 25.056795 18.00165 25.066427 18.015625 25.080078 C 18.025754 25.090383 18.032744 25.103057 18.042969 25.113281 C 18.053193 25.123506 18.065867 25.130496 18.076172 25.140625 C 18.089827 25.154604 18.09945 25.171716 18.113281 25.185547 C 18.125155 25.197421 18.140361 25.205052 18.152344 25.216797 C 18.16409 25.228782 18.171718 25.243984 18.183594 25.255859 C 18.196775 25.26904 18.213247 25.277994 18.226562 25.291016 C 18.236683 25.301313 18.24369 25.314002 18.253906 25.324219 C 18.265443 25.335756 18.279376 25.344054 18.291016 25.355469 C 18.302432 25.36711 18.310727 25.381039 18.322266 25.392578 C 18.333804 25.404117 18.347733 25.412412 18.359375 25.423828 C 18.370762 25.435439 18.379117 25.449429 18.390625 25.460938 C 18.401871 25.472183 18.416391 25.479105 18.427734 25.490234 C 18.438866 25.50158 18.445784 25.516096 18.457031 25.527344 C 18.468247 25.53856 18.482828 25.54554 18.494141 25.556641 C 18.505273 25.567988 18.512188 25.582501 18.523438 25.59375 C 18.534655 25.604968 18.549232 25.611945 18.560547 25.623047 C 18.57165 25.634363 18.578624 25.648937 18.589844 25.660156 C 18.600736 25.671048 18.614017 25.67867 18.625 25.689453 C 18.635784 25.700438 18.643403 25.713716 18.654297 25.724609 C 18.66516 25.735472 18.678499 25.743152 18.689453 25.753906 C 18.700209 25.764862 18.707885 25.778198 18.71875 25.789062 C 18.727657 25.797969 18.739079 25.803666 18.748047 25.8125 C 18.760448 25.825167 18.768704 25.84097 18.78125 25.853516 C 18.791835 25.864101 18.805734 25.870377 18.816406 25.880859 C 18.82689 25.891533 18.833163 25.905429 18.84375 25.916016 C 18.854337 25.926603 18.868233 25.932876 18.878906 25.943359 C 18.889391 25.954034 18.895661 25.967927 18.90625 25.978516 C 18.918146 25.990412 18.933308 25.998 18.945312 26.009766 C 18.954151 26.018739 18.959838 26.030151 18.96875 26.039062 C 18.978968 26.04928 18.991655 26.056285 19.001953 26.066406 C 19.012076 26.076706 19.019077 26.08939 19.029297 26.099609 C 19.037852 26.108164 19.04803 26.11456 19.056641 26.123047 C 19.068042 26.134673 19.076367 26.148633 19.087891 26.160156 C 19.097765 26.170031 19.109191 26.177716 19.119141 26.1875 C 19.128926 26.197451 19.136609 26.208874 19.146484 26.21875 C 19.15641 26.228676 19.169686 26.234306 19.179688 26.244141 C 19.189523 26.254143 19.195151 26.267417 19.205078 26.277344 C 19.216311 26.288577 19.230857 26.295524 19.242188 26.306641 C 19.250389 26.314958 19.255407 26.32572 19.263672 26.333984 C 19.273243 26.343556 19.28528 26.349888 19.294922 26.359375 C 19.30441 26.369018 19.31074 26.381052 19.320312 26.390625 C 19.329885 26.400198 19.341919 26.406528 19.351562 26.416016 C 19.361052 26.42566 19.367379 26.437692 19.376953 26.447266 C 19.386168 26.456481 19.396969 26.463519 19.40625 26.472656 C 19.415388 26.481938 19.422424 26.492737 19.431641 26.501953 C 19.440857 26.51117 19.451656 26.518206 19.460938 26.527344 C 19.470077 26.536627 19.47711 26.547423 19.486328 26.556641 C 19.493943 26.564256 19.504059 26.568611 19.511719 26.576172 C 19.522203 26.586846 19.528474 26.60074 19.539062 26.611328 C 19.549931 26.622197 19.563259 26.629866 19.574219 26.640625 C 19.581417 26.647912 19.586503 26.656816 19.59375 26.664062 C 19.601008 26.67132 19.609889 26.676385 19.617188 26.683594 C 19.627309 26.693892 19.634313 26.706578 19.644531 26.716797 C 19.65475 26.727015 19.667436 26.734019 19.677734 26.744141 C 19.684945 26.751441 19.690006 26.760318 19.697266 26.767578 C 19.705834 26.776146 19.715985 26.782516 19.724609 26.791016 C 19.73311 26.799641 19.739478 26.80979 19.748047 26.818359 C 19.754653 26.824966 19.762891 26.829372 19.769531 26.835938 C 19.779669 26.846253 19.78664 26.858906 19.796875 26.869141 C 19.807097 26.879363 19.819776 26.886359 19.830078 26.896484 C 19.836636 26.903115 19.841058 26.911371 19.847656 26.917969 C 19.855932 26.926245 19.866672 26.931241 19.875 26.939453 C 19.883201 26.94777 19.88822 26.958533 19.896484 26.966797 C 19.903093 26.973406 19.911327 26.977807 19.917969 26.984375 C 19.927456 26.994017 19.933787 27.006053 19.943359 27.015625 C 19.951266 27.023531 19.960796 27.029261 19.96875 27.037109 C 19.976599 27.045064 19.982327 27.054593 19.990234 27.0625 C 19.999808 27.072073 20.011841 27.078402 20.021484 27.087891 C 20.027408 27.093874 20.031153 27.101466 20.037109 27.107422 C 20.043056 27.113369 20.050666 27.117133 20.056641 27.123047 C 20.066131 27.132692 20.072456 27.144722 20.082031 27.154297 C 20.089645 27.161911 20.099763 27.166268 20.107422 27.173828 C 20.114983 27.181487 20.119338 27.191604 20.126953 27.199219 C 20.135876 27.208141 20.147267 27.213808 20.15625 27.222656 C 20.162175 27.228641 20.165917 27.236229 20.171875 27.242188 C 20.177816 27.248129 20.185438 27.251904 20.191406 27.257812 C 20.200257 27.266798 20.205919 27.278185 20.214844 27.287109 C 20.222101 27.294367 20.230984 27.299432 20.238281 27.306641 C 20.24549 27.313939 20.250554 27.32282 20.257812 27.330078 C 20.266738 27.339003 20.278123 27.344664 20.287109 27.353516 C 20.29238 27.358834 20.295485 27.365797 20.300781 27.371094 C 20.307745 27.378058 20.317218 27.381753 20.324219 27.388672 C 20.331138 27.395674 20.334832 27.405145 20.341797 27.412109 C 20.346735 27.417047 20.352465 27.420866 20.357422 27.425781 C 20.365922 27.434406 20.372291 27.444557 20.380859 27.453125 C 20.389121 27.461386 20.39989 27.466412 20.408203 27.474609 C 20.413475 27.479929 20.416577 27.486889 20.421875 27.492188 C 20.428482 27.498794 20.436719 27.5032 20.443359 27.509766 C 20.449926 27.516406 20.45433 27.524643 20.460938 27.53125 C 20.465877 27.536189 20.471605 27.540005 20.476562 27.544922 C 20.484421 27.552886 20.49013 27.562396 20.498047 27.570312 C 20.505951 27.578217 20.515486 27.583951 20.523438 27.591797 C 20.528349 27.59675 20.532175 27.602488 20.537109 27.607422 C 20.541395 27.611708 20.546481 27.614872 20.550781 27.619141 C 20.558641 27.627106 20.564348 27.636613 20.572266 27.644531 C 20.580171 27.652437 20.589703 27.658168 20.597656 27.666016 C 20.601926 27.670316 20.605089 27.675401 20.609375 27.679688 C 20.615322 27.685635 20.622932 27.689398 20.628906 27.695312 C 20.634829 27.701295 20.638576 27.708888 20.644531 27.714844 C 20.650479 27.720792 20.658088 27.724554 20.664062 27.730469 C 20.669978 27.736444 20.673739 27.744052 20.679688 27.75 C 20.685284 27.755596 20.691645 27.760058 20.697266 27.765625 C 20.702833 27.771246 20.707294 27.777606 20.712891 27.783203 C 20.718481 27.788793 20.724855 27.793267 20.730469 27.798828 C 20.73603 27.804442 20.740503 27.810816 20.746094 27.816406 C 20.749722 27.820035 20.754174 27.822555 20.757812 27.826172 C 20.765019 27.833468 20.770088 27.842354 20.777344 27.849609 C 20.782638 27.854904 20.789606 27.858013 20.794922 27.863281 C 20.800191 27.868598 20.803299 27.875564 20.808594 27.880859 C 20.813889 27.886154 20.820855 27.889262 20.826172 27.894531 C 20.831441 27.899848 20.834548 27.906814 20.839844 27.912109 C 20.846447 27.918712 20.854692 27.923125 20.861328 27.929688 C 20.864946 27.933327 20.867464 27.937777 20.871094 27.941406 C 20.876038 27.94635 20.881756 27.950157 20.886719 27.955078 C 20.891634 27.960035 20.895452 27.965765 20.900391 27.970703 C 20.90337 27.973683 20.90717 27.975544 20.910156 27.978516 C 20.91672 27.985153 20.92113 27.993396 20.927734 28 C 20.934339 28.006604 20.942581 28.011014 20.949219 28.017578 C 20.952182 28.020556 20.95406 28.024372 20.957031 28.027344 C 20.960011 28.030324 20.96381 28.032185 20.966797 28.035156 C 20.972715 28.041134 20.976471 28.048736 20.982422 28.054688 C 20.988373 28.060639 20.995975 28.064394 21.001953 28.070312 C 21.004921 28.073296 21.006789 28.077102 21.009766 28.080078 C 21.014051 28.084363 21.019138 28.087529 21.023438 28.091797 C 21.027711 28.096102 21.030865 28.101178 21.035156 28.105469 C 21.039435 28.109748 21.044535 28.112926 21.048828 28.117188 C 21.053097 28.121487 21.056261 28.126574 21.060547 28.130859 C 21.062869 28.133182 21.066033 28.134401 21.068359 28.136719 C 21.074279 28.142698 21.078032 28.150297 21.083984 28.15625 C 21.087975 28.16024 21.093654 28.16204 21.097656 28.166016 C 21.101632 28.170018 21.103431 28.175697 21.107422 28.179688 C 21.112721 28.184986 21.11968 28.188087 21.125 28.193359 C 21.127314 28.195683 21.12854 28.198853 21.130859 28.201172 C 21.134491 28.204804 21.138936 28.207318 21.142578 28.210938 C 21.146198 28.21458 21.148712 28.219024 21.152344 28.222656 C 21.15597 28.226283 21.160426 28.228808 21.164062 28.232422 C 21.167677 28.236059 21.170201 28.240514 21.173828 28.244141 C 21.175792 28.246104 21.177721 28.24804 21.179688 28.25 C 21.184605 28.254958 21.188419 28.260685 21.193359 28.265625 C 21.196696 28.268962 21.201733 28.270111 21.205078 28.273438 C 21.208405 28.276783 21.209553 28.281819 21.212891 28.285156 C 21.217536 28.289802 21.223853 28.292249 21.228516 28.296875 C 21.230182 28.298546 21.230753 28.301066 21.232422 28.302734 C 21.233729 28.304042 21.23502 28.305335 21.236328 28.306641 C 21.241246 28.3116 21.245059 28.317325 21.25 28.322266 C 21.252977 28.325243 21.256781 28.327109 21.259766 28.330078 C 21.262735 28.333062 21.264601 28.336866 21.267578 28.339844 C 21.271865 28.34413 21.27695 28.347293 21.28125 28.351562 C 21.282556 28.352871 21.283849 28.354161 21.285156 28.355469 C 21.287771 28.358084 21.290349 28.360673 21.292969 28.363281 C 21.295582 28.365906 21.298162 28.368474 21.300781 28.371094 C 21.303396 28.373709 21.305974 28.376298 21.308594 28.378906 C 21.311202 28.381526 21.313791 28.384104 21.316406 28.386719 C 21.316406 28.386719 21.318359 28.388672 21.318359 28.388672 C 21.322629 28.392973 21.325791 28.398057 21.330078 28.402344 C 21.332402 28.404667 21.335563 28.405885 21.337891 28.408203 C 21.340209 28.410531 21.341426 28.413692 21.34375 28.416016 C 21.347383 28.419648 21.351826 28.422161 21.355469 28.425781 C 21.355469 28.425781 21.357422 28.427734 21.357422 28.427734 C 21.357422 28.427734 21.359375 28.429688 21.359375 28.429688 C 21.362991 28.433326 21.365512 28.437778 21.369141 28.441406 C 21.372773 28.445039 21.377217 28.447551 21.380859 28.451172 C 21.382821 28.453133 21.384754 28.455073 21.386719 28.457031 C 21.388677 28.458996 21.390617 28.460929 21.392578 28.462891 C 21.393605 28.463918 21.397409 28.465771 21.398438 28.466797 C 21.400102 28.468466 21.400677 28.470989 21.402344 28.472656 C 21.405314 28.475642 21.407178 28.479443 21.410156 28.482422 C 21.414445 28.48671 21.419526 28.48987 21.423828 28.494141 C 21.423828 28.494141 21.425781 28.496094 21.425781 28.496094 C 21.425781 28.496094 21.427734 28.498047 21.427734 28.498047 C 21.430053 28.500375 21.43127 28.503535 21.433594 28.505859 C 21.435267 28.507533 21.439731 28.510048 21.441406 28.511719 C 21.443073 28.51339 21.443643 28.515909 21.445312 28.517578 C 21.44698 28.519245 21.451456 28.521773 21.453125 28.523438 C 21.453125 28.523438 21.455078 28.525391 21.455078 28.525391 C 21.455078 28.525391 21.457031 28.527344 21.457031 28.527344 C 21.457031 28.527344 21.458984 28.529297 21.458984 28.529297 C 21.460943 28.531262 21.462882 28.533194 21.464844 28.535156 C 21.696108 28.766165 21.949143 28.971067 22.216797 29.150391 C 22.218312 29.151404 22.219187 29.153286 22.220703 29.154297 C 22.220703 29.154297 22.222656 29.15625 22.222656 29.15625 C 22.222656 29.15625 22.224609 29.158203 22.224609 29.158203 C 22.225367 29.158709 22.225804 29.159651 22.226562 29.160156 C 22.70649 29.480181 23.241979 29.697298 23.800781 29.835938 C 23.874439 29.854188 23.943024 29.887441 24.017578 29.902344 C 24.018192 29.902467 24.018918 29.902221 24.019531 29.902344 C 24.050818 29.908585 24.083804 29.906463 24.115234 29.912109 C 24.405648 29.964397 24.700846 30 25 30 C 25.330867 30 25.658757 29.966132 25.978516 29.902344 C 25.979129 29.902221 25.979856 29.902467 25.980469 29.902344 C 26.941549 29.710232 27.831895 29.238418 28.535156 28.535156 C 29.238418 27.831895 29.710232 26.941549 29.902344 25.980469 C 29.90247 25.979837 29.902218 25.979148 29.902344 25.978516 C 29.966132 25.658757 30 25.330867 30 25 C 30 24.700847 29.964397 24.405647 29.912109 24.115234 C 29.906341 24.083196 29.90873 24.049467 29.902344 24.017578 C 29.887441 23.943024 29.854187 23.874439 29.835938 23.800781 C 29.697298 23.241979 29.480181 22.706491 29.160156 22.226562 C 29.159651 22.225804 29.158709 22.225367 29.158203 22.224609 C 29.158203 22.224609 29.15625 22.222656 29.15625 22.222656 C 29.15625 22.222656 29.154297 22.220703 29.154297 22.220703 C 29.153286 22.219187 29.151404 22.218312 29.150391 22.216797 C 28.971066 21.949142 28.766166 21.696109 28.535156 21.464844 C 28.534143 21.463831 28.532264 21.463903 28.53125 21.462891 C 28.53125 21.462891 28.53125 21.460938 28.53125 21.460938 C 28.530595 21.460284 28.529952 21.459637 28.529297 21.458984 C 28.529297 21.458984 28.527344 21.457031 28.527344 21.457031 C 28.527344 21.457031 28.525391 21.455078 28.525391 21.455078 C 28.525391 21.455078 28.523438 21.453125 28.523438 21.453125 C 28.523438 21.453125 28.521484 21.451172 28.521484 21.451172 C 28.51982 21.449503 28.519245 21.44698 28.517578 21.445312 C 28.515909 21.443643 28.51339 21.443073 28.511719 21.441406 C 28.511719 21.441406 28.509766 21.439453 28.509766 21.439453 C 28.508095 21.437777 28.507533 21.435267 28.505859 21.433594 C 28.503535 21.43127 28.500375 21.430054 28.498047 21.427734 C 28.498047 21.427734 28.496094 21.425781 28.496094 21.425781 C 28.496094 21.425781 28.494141 21.423828 28.494141 21.423828 C 28.492831 21.422522 28.491545 21.421227 28.490234 21.419922 C 28.487267 21.41694 28.485397 21.413131 28.482422 21.410156 C 28.479443 21.407177 28.475642 21.405314 28.472656 21.402344 C 28.470989 21.400677 28.466513 21.398149 28.464844 21.396484 C 28.463891 21.39554 28.463844 21.393522 28.462891 21.392578 C 28.460929 21.390616 28.458996 21.388677 28.457031 21.386719 C 28.455073 21.384754 28.453134 21.382821 28.451172 21.380859 C 28.447551 21.377216 28.44504 21.372774 28.441406 21.369141 C 28.437777 21.365511 28.431374 21.361039 28.427734 21.357422 C 28.427734 21.357422 28.425781 21.355469 28.425781 21.355469 C 28.42216 21.351825 28.419649 21.347384 28.416016 21.34375 C 28.413691 21.341426 28.410531 21.34021 28.408203 21.337891 C 28.405884 21.335562 28.404668 21.332402 28.402344 21.330078 C 28.398061 21.325795 28.391016 21.320672 28.386719 21.316406 C 28.384103 21.31379 28.381527 21.311203 28.378906 21.308594 C 28.376297 21.305973 28.37371 21.303397 28.371094 21.300781 C 28.368478 21.298165 28.365902 21.295578 28.363281 21.292969 C 28.360672 21.290348 28.358085 21.287772 28.355469 21.285156 C 28.354161 21.283848 28.352872 21.282556 28.351562 21.28125 C 28.347291 21.276948 28.344132 21.271866 28.339844 21.267578 C 28.336865 21.264599 28.333064 21.262736 28.330078 21.259766 C 28.327107 21.25678 28.325245 21.252979 28.322266 21.25 C 28.316013 21.243748 28.309016 21.238638 28.302734 21.232422 C 28.301426 21.231114 28.300137 21.229822 28.298828 21.228516 C 28.293908 21.223554 28.290099 21.217834 28.285156 21.212891 C 28.281817 21.209552 28.276785 21.208407 28.273438 21.205078 C 28.270109 21.201731 28.268964 21.196698 28.265625 21.193359 C 28.260682 21.188416 28.254962 21.184608 28.25 21.179688 C 28.248042 21.177723 28.246103 21.17579 28.244141 21.173828 C 28.240511 21.170199 28.236061 21.167679 28.232422 21.164062 C 28.228805 21.160423 28.226285 21.155973 28.222656 21.152344 C 28.219027 21.148715 28.214577 21.146195 28.210938 21.142578 C 28.207321 21.138939 28.204801 21.134489 28.201172 21.130859 C 28.198851 21.128538 28.195685 21.127316 28.193359 21.125 C 28.188082 21.119675 28.184991 21.112725 28.179688 21.107422 C 28.175699 21.103434 28.170016 21.10163 28.166016 21.097656 C 28.162037 21.09365 28.160244 21.087978 28.15625 21.083984 C 28.1503 21.078034 28.142696 21.074277 28.136719 21.068359 C 28.134403 21.066034 28.133181 21.062868 28.130859 21.060547 C 28.126576 21.056264 28.121485 21.053094 28.117188 21.048828 C 28.112922 21.044531 28.109752 21.039439 28.105469 21.035156 C 28.101179 21.030866 28.096101 21.02771 28.091797 21.023438 C 28.087531 21.01914 28.084361 21.014049 28.080078 21.009766 C 28.077103 21.00679 28.073294 21.00492 28.070312 21.001953 C 28.064395 20.995976 28.060638 20.988372 28.054688 20.982422 C 28.04873 20.976464 28.041141 20.972722 28.035156 20.966797 C 28.032185 20.96381 28.030323 20.960011 28.027344 20.957031 C 28.024369 20.954056 28.02056 20.952186 28.017578 20.949219 C 28.011006 20.942573 28.006613 20.934347 28 20.927734 C 27.993387 20.921122 27.985161 20.916728 27.978516 20.910156 C 27.975549 20.907174 27.973678 20.903366 27.970703 20.900391 C 27.965766 20.895454 27.960034 20.891633 27.955078 20.886719 C 27.950164 20.881763 27.946343 20.876031 27.941406 20.871094 C 27.937777 20.867465 27.933327 20.864945 27.929688 20.861328 C 27.923116 20.854682 27.918722 20.846456 27.912109 20.839844 C 27.906806 20.834541 27.899856 20.831449 27.894531 20.826172 C 27.889261 20.820854 27.886156 20.81389 27.880859 20.808594 C 27.875556 20.803291 27.868606 20.800199 27.863281 20.794922 C 27.858004 20.789597 27.854913 20.782647 27.849609 20.777344 C 27.842342 20.770076 27.833479 20.76503 27.826172 20.757812 C 27.822555 20.754173 27.820035 20.749723 27.816406 20.746094 C 27.810815 20.740503 27.804443 20.736031 27.798828 20.730469 C 27.793266 20.724854 27.788794 20.718482 27.783203 20.712891 C 27.777612 20.7073 27.77124 20.702827 27.765625 20.697266 C 27.760054 20.691642 27.7556 20.685287 27.75 20.679688 C 27.74405 20.673737 27.736446 20.66998 27.730469 20.664062 C 27.724552 20.658085 27.720794 20.650482 27.714844 20.644531 C 27.708893 20.638581 27.70129 20.634823 27.695312 20.628906 C 27.689395 20.622929 27.685638 20.615325 27.679688 20.609375 C 27.675404 20.605092 27.670313 20.601922 27.666016 20.597656 C 27.658152 20.589687 27.652453 20.580188 27.644531 20.572266 C 27.636904 20.564638 27.626812 20.560307 27.619141 20.552734 C 27.614512 20.548069 27.612071 20.541759 27.607422 20.537109 C 27.602485 20.532172 27.596752 20.528352 27.591797 20.523438 C 27.583934 20.515468 27.578235 20.505969 27.570312 20.498047 C 27.56239 20.490125 27.552891 20.484426 27.544922 20.476562 C 27.540008 20.471607 27.536187 20.465875 27.53125 20.460938 C 27.524646 20.454333 27.516403 20.449923 27.509766 20.443359 C 27.503202 20.436722 27.498792 20.428479 27.492188 20.421875 C 27.48725 20.416938 27.481518 20.413117 27.476562 20.408203 C 27.468065 20.399581 27.461691 20.389426 27.453125 20.380859 C 27.444843 20.372577 27.434115 20.367593 27.425781 20.359375 C 27.420511 20.354057 27.417406 20.347093 27.412109 20.341797 C 27.405146 20.334833 27.395672 20.331137 27.388672 20.324219 C 27.381754 20.317218 27.378057 20.307745 27.371094 20.300781 C 27.365797 20.295485 27.358833 20.292379 27.353516 20.287109 C 27.344654 20.278112 27.339015 20.266749 27.330078 20.257812 C 27.32282 20.250554 27.313939 20.24549 27.306641 20.238281 C 27.299423 20.230974 27.294377 20.222111 27.287109 20.214844 C 27.278173 20.205907 27.26681 20.200268 27.257812 20.191406 C 27.251895 20.185429 27.248138 20.177825 27.242188 20.171875 C 27.236228 20.165916 27.228643 20.162176 27.222656 20.15625 C 27.213805 20.147264 27.208144 20.135879 27.199219 20.126953 C 27.191591 20.119326 27.1815 20.114995 27.173828 20.107422 C 27.166265 20.09976 27.161914 20.089649 27.154297 20.082031 C 27.144705 20.07244 27.132708 20.066146 27.123047 20.056641 C 27.11713 20.050663 27.113372 20.04306 27.107422 20.037109 C 27.101463 20.03115 27.093877 20.027411 27.087891 20.021484 C 27.078385 20.011823 27.072092 19.999826 27.0625 19.990234 C 27.054578 19.982312 27.045079 19.976613 27.037109 19.96875 C 27.029246 19.96078 27.023547 19.951281 27.015625 19.943359 C 27.006046 19.93378 26.994024 19.927462 26.984375 19.917969 C 26.977812 19.911331 26.973401 19.903089 26.966797 19.896484 C 26.958525 19.888213 26.947776 19.883207 26.939453 19.875 C 26.931246 19.866677 26.92624 19.855928 26.917969 19.847656 C 26.911364 19.841052 26.903122 19.836642 26.896484 19.830078 C 26.886349 19.819765 26.879374 19.807108 26.869141 19.796875 C 26.858894 19.786629 26.846263 19.779679 26.835938 19.769531 C 26.829374 19.762894 26.824964 19.754651 26.818359 19.748047 C 26.809793 19.739481 26.799637 19.733107 26.791016 19.724609 C 26.782518 19.715988 26.776144 19.705832 26.767578 19.697266 C 26.76032 19.690007 26.751439 19.684943 26.744141 19.677734 C 26.733993 19.667409 26.727043 19.654778 26.716797 19.644531 C 26.706551 19.634285 26.693919 19.627335 26.683594 19.617188 C 26.676374 19.609878 26.671332 19.601019 26.664062 19.59375 C 26.656804 19.586492 26.647923 19.581428 26.640625 19.574219 C 26.629835 19.563228 26.622229 19.549963 26.611328 19.539062 C 26.600427 19.528162 26.587163 19.520555 26.576172 19.509766 C 26.568963 19.502467 26.563899 19.493586 26.556641 19.486328 C 26.54742 19.477108 26.536628 19.470078 26.527344 19.460938 C 26.518203 19.451653 26.511173 19.440861 26.501953 19.431641 C 26.492733 19.42242 26.481941 19.415391 26.472656 19.40625 C 26.463501 19.396951 26.4565 19.386188 26.447266 19.376953 C 26.437686 19.367374 26.425665 19.361056 26.416016 19.351562 C 26.406522 19.341914 26.400204 19.329892 26.390625 19.320312 C 26.381046 19.310733 26.369024 19.304415 26.359375 19.294922 C 26.349881 19.285273 26.343564 19.273251 26.333984 19.263672 C 26.325713 19.2554 26.314964 19.250395 26.306641 19.242188 C 26.295498 19.23083 26.288605 19.216339 26.277344 19.205078 C 26.267392 19.195126 26.254167 19.189547 26.244141 19.179688 C 26.234282 19.169661 26.228702 19.156436 26.21875 19.146484 C 26.208798 19.136533 26.195574 19.130953 26.185547 19.121094 C 26.175688 19.111067 26.170108 19.097842 26.160156 19.087891 C 26.148601 19.076335 26.134704 19.068071 26.123047 19.056641 C 26.114549 19.048019 26.108176 19.037863 26.099609 19.029297 C 26.089376 19.019063 26.076719 19.012089 26.066406 19.001953 C 26.056271 18.99164 26.049296 18.978983 26.039062 18.96875 C 26.030137 18.959825 26.018751 18.954163 26.009766 18.945312 C 25.997983 18.933289 25.990431 18.918166 25.978516 18.90625 C 25.9666 18.894334 25.951476 18.886783 25.939453 18.875 C 25.930589 18.866 25.924955 18.854642 25.916016 18.845703 C 25.90709 18.836778 25.895705 18.831117 25.886719 18.822266 C 25.874296 18.809576 25.866086 18.793821 25.853516 18.78125 C 25.840945 18.768679 25.82519 18.760469 25.8125 18.748047 C 25.803649 18.739061 25.797988 18.727675 25.789062 18.71875 C 25.778175 18.707863 25.764883 18.70023 25.753906 18.689453 C 25.74313 18.678476 25.735497 18.665184 25.724609 18.654297 C 25.713722 18.643409 25.70043 18.635776 25.689453 18.625 C 25.678677 18.614023 25.671044 18.600731 25.660156 18.589844 C 25.64891 18.578597 25.634389 18.571675 25.623047 18.560547 C 25.611919 18.549205 25.604997 18.534684 25.59375 18.523438 C 25.582486 18.512174 25.568 18.505285 25.556641 18.494141 C 25.545512 18.482798 25.53859 18.468278 25.527344 18.457031 C 25.51608 18.445768 25.501594 18.438879 25.490234 18.427734 C 25.479106 18.416392 25.472184 18.401872 25.460938 18.390625 C 25.449396 18.379084 25.43547 18.370792 25.423828 18.359375 C 25.412411 18.347733 25.40412 18.333807 25.392578 18.322266 C 25.381037 18.310724 25.367111 18.302432 25.355469 18.291016 C 25.344052 18.279374 25.33576 18.265448 25.324219 18.253906 C 25.313985 18.243673 25.301328 18.236698 25.291016 18.226562 C 25.277954 18.213205 25.269085 18.196819 25.255859 18.183594 C 25.243959 18.171693 25.228805 18.164112 25.216797 18.152344 C 25.205014 18.140321 25.197463 18.125197 25.185547 18.113281 C 25.171667 18.099401 25.15465 18.089871 25.140625 18.076172 C 25.13049 18.065859 25.123515 18.053202 25.113281 18.042969 C 25.103048 18.032735 25.090391 18.02576 25.080078 18.015625 C 25.066379 18.0016 25.056849 17.984583 25.042969 17.970703 C 25.030758 17.958493 25.016229 17.949571 25.003906 17.9375 C 24.991835 17.925177 24.982914 17.910648 24.970703 17.898438 C 24.956841 17.884575 24.939789 17.875011 24.925781 17.861328 C 24.915005 17.850351 24.907372 17.837059 24.896484 17.826172 C 24.88393 17.813617 24.868142 17.805376 24.855469 17.792969 C 24.843062 17.780295 24.83482 17.764508 24.822266 17.751953 C 24.809711 17.739399 24.793924 17.731157 24.78125 17.71875 C 24.768843 17.706076 24.760601 17.690289 24.748047 17.677734 C 24.735197 17.664885 24.720005 17.655273 24.707031 17.642578 C 24.694336 17.629604 24.684724 17.614412 24.671875 17.601562 C 24.658646 17.588334 24.642267 17.579471 24.628906 17.566406 C 24.616499 17.553733 24.608258 17.537945 24.595703 17.525391 C 24.582474 17.512162 24.566095 17.503299 24.552734 17.490234 C 24.540327 17.477561 24.532086 17.461773 24.519531 17.449219 C 24.506323 17.43601 24.489903 17.427108 24.476562 17.414062 C 24.463517 17.400722 24.454615 17.384302 24.441406 17.371094 C 24.428198 17.357885 24.411778 17.348983 24.398438 17.335938 C 24.385392 17.322597 24.37649 17.306177 24.363281 17.292969 C 24.351381 17.281068 24.336226 17.273487 24.324219 17.261719 C 24.309532 17.246656 24.300051 17.227785 24.285156 17.212891 C 24.270261 17.197996 24.25139 17.188515 24.236328 17.173828 C 24.224542 17.161802 24.216997 17.146684 24.205078 17.134766 C 24.192883 17.12257 24.178323 17.113619 24.166016 17.101562 C 24.151042 17.086199 24.140189 17.067924 24.125 17.052734 C 24.109811 17.037545 24.091535 17.026692 24.076172 17.011719 C 24.064116 16.999411 24.055164 16.984852 24.042969 16.972656 C 24.029106 16.958794 24.012055 16.949229 23.998047 16.935547 C 23.984364 16.921539 23.9748 16.904488 23.960938 16.890625 C 23.948383 16.87807 23.932596 16.869829 23.919922 16.857422 C 23.904599 16.84169 23.894456 16.82219 23.878906 16.806641 C 23.865026 16.792761 23.84801 16.783231 23.833984 16.769531 C 23.819665 16.754856 23.809438 16.737173 23.794922 16.722656 C 23.780682 16.708416 23.76244 16.699597 23.748047 16.685547 C 23.733997 16.671154 23.725178 16.652912 23.710938 16.638672 C 23.694733 16.622468 23.674605 16.611661 23.658203 16.595703 C 23.645796 16.583029 23.637555 16.567242 23.625 16.554688 C 23.610483 16.540171 23.592801 16.529944 23.578125 16.515625 C 23.563806 16.500949 23.553579 16.483267 23.539062 16.46875 C 23.524546 16.454233 23.506863 16.444007 23.492188 16.429688 C 23.477868 16.415012 23.467642 16.397329 23.453125 16.382812 C 23.438249 16.367937 23.41934 16.358419 23.404297 16.34375 C 23.389628 16.328707 23.38011 16.309798 23.365234 16.294922 C 23.350359 16.280046 23.331449 16.270528 23.316406 16.255859 C 23.301738 16.240817 23.29222 16.221907 23.277344 16.207031 C 23.264135 16.193823 23.247715 16.18492 23.234375 16.171875 C 23.217803 16.154823 23.206291 16.134025 23.189453 16.117188 C 23.172594 16.100329 23.151839 16.088858 23.134766 16.072266 C 23.12172 16.058925 23.112818 16.042505 23.099609 16.029297 C 23.085747 16.015434 23.068695 16.00587 23.054688 15.992188 C 23.038115 15.975136 23.026603 15.954338 23.009766 15.9375 C 22.992907 15.920641 22.972151 15.909171 22.955078 15.892578 C 22.941396 15.87857 22.931831 15.861519 22.917969 15.847656 C 22.902439 15.832126 22.882899 15.821944 22.867188 15.806641 C 22.851884 15.790929 22.841702 15.771389 22.826172 15.755859 C 22.810642 15.74033 22.791102 15.730148 22.775391 15.714844 C 22.760064 15.699108 22.749928 15.679616 22.734375 15.664062 C 22.71855 15.648238 22.699607 15.636684 22.683594 15.621094 C 22.668004 15.60508 22.65645 15.586137 22.640625 15.570312 C 22.6248 15.554488 22.605857 15.542934 22.589844 15.527344 C 22.574254 15.51133 22.5627 15.492387 22.546875 15.476562 C 22.532358 15.462046 22.514676 15.451819 22.5 15.4375 C 22.482774 15.419755 22.470639 15.398373 22.453125 15.380859 C 22.436921 15.364655 22.416793 15.353849 22.400391 15.337891 C 22.384452 15.321509 22.373606 15.30134 22.357422 15.285156 C 22.341218 15.268952 22.32109 15.258146 22.304688 15.242188 C 22.288729 15.225785 22.277923 15.205657 22.261719 15.189453 C 22.243845 15.171579 22.22124 15.160152 22.203125 15.142578 C 22.188456 15.127535 22.178938 15.108626 22.164062 15.09375 C 22.147584 15.077271 22.128011 15.065052 22.111328 15.048828 C 22.095104 15.032145 22.082885 15.012572 22.066406 14.996094 C 22.051236 14.980923 22.032922 14.970033 22.017578 14.955078 C 21.999719 14.936661 21.986918 14.914653 21.96875 14.896484 C 21.951891 14.879625 21.931136 14.868155 21.914062 14.851562 C 21.89749 14.834511 21.885978 14.813713 21.869141 14.796875 C 21.852282 14.780016 21.831526 14.768546 21.814453 14.751953 C 21.797861 14.73488 21.78639 14.714124 21.769531 14.697266 C 21.751003 14.678737 21.727772 14.666644 21.708984 14.648438 C 21.693681 14.632726 21.683499 14.613186 21.667969 14.597656 C 21.650772 14.580459 21.628748 14.569654 21.611328 14.552734 C 21.594408 14.535314 21.583603 14.513291 21.566406 14.496094 C 21.549209 14.478897 21.527186 14.468092 21.509766 14.451172 C 21.492846 14.433752 21.482041 14.411728 21.464844 14.394531 C 21.447352 14.37704 21.425926 14.364861 21.408203 14.347656 C 21.390998 14.329934 21.37882 14.308507 21.361328 14.291016 C 21.343836 14.273524 21.32241 14.261346 21.304688 14.244141 C 21.287482 14.226418 21.275304 14.204992 21.257812 14.1875 C 21.240321 14.170008 21.218894 14.15783 21.201172 14.140625 C 21.183941 14.122875 21.171816 14.101503 21.154297 14.083984 C 21.136446 14.066133 21.113794 14.054662 21.095703 14.037109 C 21.078151 14.019018 21.066679 13.996367 21.048828 13.978516 C 21.031336 13.961024 21.00991 13.948846 20.992188 13.931641 C 20.974323 13.913218 20.961533 13.891221 20.943359 13.873047 C 20.925214 13.854901 20.90316 13.842056 20.884766 13.824219 C 20.866929 13.805825 20.854083 13.783771 20.835938 13.765625 C 20.817792 13.747479 20.795738 13.734634 20.777344 13.716797 C 20.759507 13.698403 20.746661 13.676349 20.728516 13.658203 C 20.710342 13.640029 20.688345 13.627239 20.669922 13.609375 C 20.652085 13.590981 20.639239 13.568927 20.621094 13.550781 C 20.602589 13.532276 20.57931 13.520137 20.560547 13.501953 C 20.542363 13.48319 20.530224 13.459911 20.511719 13.441406 C 20.493186 13.422873 20.469964 13.410789 20.451172 13.392578 C 20.432988 13.373815 20.420849 13.350536 20.402344 13.332031 C 20.383839 13.313526 20.36056 13.301387 20.341797 13.283203 C 20.323586 13.264411 20.311502 13.241189 20.292969 13.222656 C 20.274169 13.203857 20.251488 13.190343 20.232422 13.171875 C 20.213953 13.152809 20.20044 13.130128 20.181641 13.111328 C 20.164149 13.093836 20.142722 13.081658 20.125 13.064453 C 20.104926 13.043671 20.090779 13.018514 20.070312 12.998047 C 20.04982 12.977554 20.024715 12.963458 20.003906 12.943359 C 19.986701 12.925637 19.974523 12.90421 19.957031 12.886719 C 19.937872 12.86756 19.913967 12.854752 19.894531 12.835938 C 19.875716 12.816502 19.862909 12.792596 19.84375 12.773438 C 19.824591 12.754279 19.800685 12.741471 19.78125 12.722656 C 19.762407 12.703191 19.749657 12.679344 19.730469 12.660156 C 19.711015 12.640703 19.687708 12.626521 19.667969 12.607422 C 19.64887 12.587683 19.634688 12.564376 19.615234 12.544922 C 19.595781 12.525468 19.572473 12.511286 19.552734 12.492188 C 19.533635 12.472449 19.519454 12.449141 19.5 12.429688 C 19.481854 12.411542 19.4598 12.398696 19.441406 12.380859 C 19.420678 12.359375 19.405913 12.333647 19.384766 12.3125 C 19.364953 12.292687 19.340421 12.279211 19.320312 12.259766 C 19.300844 12.239631 19.287416 12.21515 19.267578 12.195312 C 19.246071 12.173805 19.219121 12.159746 19.197266 12.138672 C 19.179082 12.119909 19.166942 12.09663 19.148438 12.078125 C 19.129904 12.059592 19.106683 12.047508 19.087891 12.029297 C 19.066817 12.007441 19.052757 11.980492 19.03125 11.958984 C 19.011052 11.938786 18.985349 11.926066 18.964844 11.90625 C 18.945028 11.885745 18.932307 11.860042 18.912109 11.839844 C 18.890307 11.818042 18.863957 11.802606 18.841797 11.78125 C 18.823328 11.762184 18.809815 11.739503 18.791016 11.720703 C 18.772216 11.701903 18.749535 11.68839 18.730469 11.669922 C 18.709113 11.647762 18.693677 11.621411 18.671875 11.599609 C 18.649741 11.577475 18.622112 11.56269 18.599609 11.541016 C 18.580795 11.52158 18.567987 11.497675 18.548828 11.478516 C 18.52964 11.459327 18.505794 11.446577 18.486328 11.427734 C 18.464653 11.405232 18.449868 11.377603 18.427734 11.355469 C 18.405572 11.333307 18.378 11.318577 18.355469 11.296875 C 18.336626 11.277409 18.323876 11.253563 18.304688 11.234375 C 18.285234 11.214921 18.261926 11.20074 18.242188 11.181641 C 18.220204 11.158805 18.204097 11.131832 18.181641 11.109375 C 18.159479 11.087213 18.131907 11.072483 18.109375 11.050781 C 18.089901 11.030641 18.076484 11.006171 18.056641 10.986328 C 18.03552 10.965207 18.009738 10.95039 17.988281 10.929688 C 17.967547 10.908197 17.952794 10.882482 17.931641 10.861328 C 17.910161 10.839848 17.883155 10.825735 17.861328 10.804688 C 17.840281 10.78286 17.826168 10.755855 17.804688 10.734375 C 17.784844 10.714532 17.760374 10.701115 17.740234 10.681641 C 17.717906 10.658432 17.702504 10.630239 17.679688 10.607422 C 17.656216 10.58395 17.627401 10.567877 17.603516 10.544922 C 17.584071 10.524813 17.570594 10.500282 17.550781 10.480469 C 17.530938 10.460626 17.506468 10.447208 17.486328 10.427734 C 17.463402 10.403879 17.44727 10.375005 17.423828 10.351562 C 17.401011 10.328746 17.372818 10.313344 17.349609 10.291016 C 17.329505 10.270201 17.31542 10.245108 17.294922 10.224609 C 17.274455 10.204142 17.249298 10.189996 17.228516 10.169922 C 17.205561 10.146036 17.189487 10.117222 17.166016 10.09375 C 17.143882 10.071616 17.116253 10.056831 17.09375 10.035156 C 17.072075 10.012654 17.05729 9.9850247 17.035156 9.9628906 C 17.012994 9.9407285 16.985422 9.9259984 16.962891 9.9042969 C 16.941189 9.8817652 16.926459 9.8541933 16.904297 9.8320312 C 16.880465 9.8081996 16.850431 9.7928302 16.826172 9.7695312 C 16.805752 9.7483786 16.79231 9.721998 16.771484 9.7011719 C 16.749056 9.678743 16.722026 9.6625821 16.699219 9.640625 C 16.677262 9.6178177 16.661101 9.5907882 16.638672 9.5683594 C 16.616243 9.5459305 16.589214 9.5297696 16.566406 9.5078125 C 16.544449 9.4850052 16.528288 9.4579757 16.505859 9.4355469 C 16.484739 9.414426 16.458957 9.3996089 16.4375 9.3789062 C 16.41392 9.3543425 16.397173 9.3249075 16.373047 9.3007812 C 16.348297 9.2760312 16.318179 9.2585503 16.292969 9.234375 C 16.272266 9.2129183 16.257449 9.1871365 16.236328 9.1660156 C 16.213505 9.1431927 16.185324 9.1278032 16.162109 9.1054688 C 16.139808 9.0822901 16.124351 9.0540381 16.101562 9.03125 C 16.07848 9.0081672 16.050827 8.9913331 16.027344 8.96875 C 16.004761 8.9452664 15.987927 8.9176141 15.964844 8.8945312 C 15.941761 8.8714484 15.914109 8.8546143 15.890625 8.8320312 C 15.868042 8.8085477 15.851208 8.7808953 15.828125 8.7578125 C 15.80635 8.7360376 15.779944 8.720549 15.757812 8.6992188 C 15.733608 8.6739763 15.716187 8.6439215 15.691406 8.6191406 C 15.667935 8.5956691 15.63912 8.5795954 15.615234 8.5566406 C 15.59228 8.5327548 15.576206 8.5039403 15.552734 8.4804688 C 15.527593 8.4553277 15.496319 8.4386105 15.470703 8.4140625 C 15.449028 8.3915598 15.434243 8.363931 15.412109 8.3417969 C 15.389942 8.319629 15.362381 8.3049101 15.339844 8.2832031 C 15.315326 8.2576201 15.298547 8.2262811 15.273438 8.2011719 C 15.249606 8.1773402 15.219571 8.1619708 15.195312 8.1386719 C 15.172014 8.1144132 15.156644 8.0843785 15.132812 8.0605469 C 15.107377 8.0351113 15.076703 8.0170161 15.050781 7.9921875 C 15.028824 7.9693802 15.012663 7.9423507 14.990234 7.9199219 C 14.967806 7.897493 14.940776 7.8813321 14.917969 7.859375 C 14.89314 7.8334533 14.875045 7.8027794 14.849609 7.7773438 C 14.823846 7.7515805 14.791887 7.7341248 14.765625 7.7089844 C 14.743324 7.6858057 14.727866 7.6575537 14.705078 7.6347656 C 14.68229 7.6119776 14.654038 7.5965198 14.630859 7.5742188 C 14.605688 7.5479231 14.588296 7.5160301 14.5625 7.4902344 C 14.538374 7.4661082 14.508939 7.4493614 14.484375 7.4257812 C 14.4602 7.4005709 14.442719 7.3704531 14.417969 7.3457031 C 14.393482 7.3212168 14.362828 7.3051739 14.337891 7.28125 C 14.313967 7.256313 14.297924 7.2256582 14.273438 7.2011719 C 14.248687 7.1764219 14.21857 7.158941 14.193359 7.1347656 C 14.169184 7.1095552 14.151703 7.0794375 14.126953 7.0546875 C 14.102172 7.0299066 14.072117 7.0124861 14.046875 6.9882812 C 14.02267 6.9630388 14.00525 6.932984 13.980469 6.9082031 C 13.954018 6.8817527 13.921507 6.8636846 13.894531 6.8378906 C 13.871605 6.8140353 13.855473 6.7851608 13.832031 6.7617188 C 13.806922 6.7366095 13.775583 6.7198302 13.75 6.6953125 C 13.725482 6.6697295 13.708703 6.6383905 13.683594 6.6132812 C 12.745912 5.6755993 11.474521 5.1484374 10.148438 5.1484375 z "
       id="path4275"
       style="fill-opacity:1;fill:url(#linearGradient5121)"
       clip-path="url(#clipPath5126)" />
    <path
       d="m 3.9999777,4.0333382 12.0000003,0 0,11.9333328 -12.0000003,0 z"
       id="path4"
       inkscape:connector-curvature="0"
       style="fill:none" />
    <path
       style="fill:none"
       inkscape:connector-curvature="0"
       id="path9754"
       d="m 18.999978,19.033339 12,0 0,11.933333 -12,0 z" />
    <circle
       style="opacity:1;fill:#fafafa;fill-opacity:1;stroke:none;stroke-width:0.2;stroke-linecap:round;stroke-linejoin:round;stroke-miterlimit:4;stroke-dasharray:none;stroke-opacity:1"
       id="path5130"
       cx="9.9598207"
       cy="10.049107"
       r="4.3348212" />
    <path
       inkscape:connector-curvature="0"
       d="m 9.9999777,5.0000048 a 5,5 0 0 1 5.0000003,5.0000002 5,5 0 0 1 -5.0000003,5 5,5 0 0 1 -4.9999999,-5 5,5 0 0 1 4.9999999,-5.0000002 m 0,1 a 4,4 0 0 0 -3.9999999,4.0000002 4,4 0 0 0 3.9999999,4 4,4 0 0 0 4.0000003,-4 4,4 0 0 0 -4.0000003,-4.0000002 m -0.5,6.5000002 0,-0.5 -0.9999999,0 0,-1 2.0000002,0 0,-0.5 -1.5000002,0 a 0.5,0.5 0 0 1 -0.5,-0.5 l 0,-1.5000002 a 0.5,0.5 0 0 1 0.5,-0.5 l 0.4999999,0 0,-0.5 1.0000003,0 0,0.5 1,0 0,1 -2.0000003,0 0,0.5 1.5000003,0 a 0.5,0.5 0 0 1 0.5,0.5000002 l 0,1.5 a 0.5,0.5 0 0 1 -0.5,0.5 l -0.5,0 0,0.5 -1.0000003,0 z"
       id="path4222" />
  </g>
</svg>
