<?xml version="1.0" encoding="UTF-8" standalone="no"?>
<!-- Created with Inkscape (http://www.inkscape.org/) -->

<svg
   xmlns:dc="http://purl.org/dc/elements/1.1/"
   xmlns:cc="http://creativecommons.org/ns#"
   xmlns:rdf="http://www.w3.org/1999/02/22-rdf-syntax-ns#"
   xmlns:svg="http://www.w3.org/2000/svg"
   xmlns="http://www.w3.org/2000/svg"
   xmlns:xlink="http://www.w3.org/1999/xlink"
   xmlns:sodipodi="http://sodipodi.sourceforge.net/DTD/sodipodi-0.dtd"
   xmlns:inkscape="http://www.inkscape.org/namespaces/inkscape"
   width="5.6444445mm"
   height="5.6444445mm"
   viewBox="0 0 20 20"
   id="svg2"
   version="1.1"
   inkscape:version="0.91 r13725"
   sodipodi:docname="Color.svg"
   inkscape:export-filename="/home/juergen/Schreibtisch/Icons/Email.svg.png"
   inkscape:export-xdpi="648"
   inkscape:export-ydpi="648">
  <sodipodi:namedview
     id="base"
     pagecolor="#ffffff"
     bordercolor="#666666"
     borderopacity="1.0"
     inkscape:pageopacity="0.0"
     inkscape:pageshadow="2"
     inkscape:zoom="11.2"
     inkscape:cx="9.7737152"
     inkscape:cy="9.1400923"
     inkscape:document-units="px"
     inkscape:current-layer="layer2"
     showgrid="false"
     fit-margin-top="0"
     fit-margin-left="0"
     fit-margin-right="0"
     fit-margin-bottom="0"
     showguides="true"
     inkscape:guide-bbox="true"
     inkscape:window-width="1366"
     inkscape:window-height="726"
     inkscape:window-x="0"
     inkscape:window-y="0"
     inkscape:window-maximized="1"
     inkscape:snap-grids="false"
     inkscape:snap-to-guides="false">
    <inkscape:grid
       id="grid4138"
       type="xygrid" />
    <sodipodi:guide
       id="guide4140"
       orientation="0,1"
       position="10,18" />
    <sodipodi:guide
       id="guide4142"
       orientation="0,1"
       position="10,2" />
    <sodipodi:guide
       id="guide4144"
       orientation="1,0"
       position="2,10" />
    <sodipodi:guide
       id="guide4146"
       orientation="0,20"
       position="0,0" />
    <sodipodi:guide
       id="guide4148"
       orientation="-20,0"
       position="20,0" />
    <sodipodi:guide
       id="guide4150"
       orientation="0,-20"
       position="20,20" />
    <sodipodi:guide
       id="guide4152"
       orientation="20,0"
       position="0,20" />
    <sodipodi:guide
       id="guide4154"
       orientation="1,0"
       position="18,10" />
    <sodipodi:guide
       id="guide4156"
       orientation="-0.70710678,0.70710678"
       position="10,10" />
    <sodipodi:guide
       id="guide4160"
       orientation="1,0"
       position="4,10" />
    <sodipodi:guide
       id="guide4162"
       orientation="1,0"
       position="16,10" />
    <sodipodi:guide
       id="guide4164"
       orientation="0,1"
       position="10,16" />
    <sodipodi:guide
       id="guide4166"
       orientation="0,1"
       position="10,4" />
    <sodipodi:guide
       id="guide4168"
       orientation="0,1"
       position="10,15" />
    <sodipodi:guide
       id="guide4170"
       orientation="0,1"
       position="10,5" />
    <sodipodi:guide
       id="guide4172"
       orientation="1,0"
       position="5,10" />
    <sodipodi:guide
       id="guide4174"
       orientation="1,0"
       position="15,10" />
  </sodipodi:namedview>
  <defs
     id="defs4">
    <linearGradient
       inkscape:collect="always"
       id="linearGradient9169">
      <stop
         style="stop-color:#000000;stop-opacity:1;"
         offset="0"
         id="stop9171" />
      <stop
         style="stop-color:#000000;stop-opacity:0;"
         offset="1"
         id="stop9173" />
    </linearGradient>
    <clipPath
       clipPathUnits="userSpaceOnUse"
       id="clipPath12478">
      <circle
         style="opacity:1;fill:#2196f3;fill-opacity:1;stroke:none;stroke-width:0.05069799;stroke-miterlimit:4;stroke-dasharray:none;stroke-opacity:1"
         id="circle12480"
         cx="9.9999781"
         cy="10.000005"
         r="10" />
    </clipPath>
    <clipPath
       id="clipPath5790"
       clipPathUnits="userSpaceOnUse">
      <circle
         inkscape:export-ydpi="648"
         inkscape:export-xdpi="648"
         inkscape:export-filename="/home/juergen/path4136.png"
         style="opacity:1;fill:#2196f3;fill-opacity:1;stroke:none;stroke-width:0.05069799;stroke-miterlimit:4;stroke-dasharray:none;stroke-opacity:1"
         id="circle5792"
         cx="9.9999781"
         cy="10.000005"
         r="10" />
    </clipPath>
    <clipPath
       clipPathUnits="userSpaceOnUse"
       id="clipPath5055">
      <circle
         inkscape:export-ydpi="648"
         inkscape:export-xdpi="648"
         inkscape:export-filename="/home/juergen/path4136.png"
         style="opacity:1;fill:#2196f3;fill-opacity:1;stroke:none;stroke-width:0.05069799;stroke-miterlimit:4;stroke-dasharray:none;stroke-opacity:1"
         id="circle5057"
         cx="9.9999781"
         cy="10.000005"
         r="10" />
    </clipPath>
    <clipPath
       id="clipPath5119"
       clipPathUnits="userSpaceOnUse">
      <circle
         inkscape:export-ydpi="648"
         inkscape:export-xdpi="648"
         inkscape:export-filename="/home/juergen/Schreibtisch/path4136.png"
         style="opacity:1;fill:#2196f3;fill-opacity:1;stroke:none;stroke-width:0.05069799;stroke-miterlimit:4;stroke-dasharray:none;stroke-opacity:1"
         id="circle5121"
         cx="9.9999781"
         cy="10.000005"
         r="10" />
    </clipPath>
    <clipPath
       clipPathUnits="userSpaceOnUse"
       id="clipPath5194">
      <circle
         inkscape:export-ydpi="648"
         inkscape:export-xdpi="648"
         inkscape:export-filename="/home/juergen/Schreibtisch/path4136.png"
         style="opacity:1;fill:#cddc39;fill-opacity:1;stroke:none;stroke-width:0.05069799;stroke-miterlimit:4;stroke-dasharray:none;stroke-opacity:1"
         id="circle5196"
         cx="9.9999781"
         cy="10.000005"
         r="10" />
    </clipPath>
    <clipPath
       id="clipPath6175"
       clipPathUnits="userSpaceOnUse">
      <circle
         inkscape:export-ydpi="648"
         inkscape:export-xdpi="648"
         inkscape:export-filename="/home/juergen/Schreibtisch/path4136.png"
         style="opacity:1;fill:#f44336;fill-opacity:1;stroke:none;stroke-width:0.05069799;stroke-miterlimit:4;stroke-dasharray:none;stroke-opacity:1"
         id="circle6177"
         cx="9.9999781"
         cy="10.000005"
         r="10" />
    </clipPath>
    <clipPath
       clipPathUnits="userSpaceOnUse"
       id="clipPath7176">
      <circle
         inkscape:export-ydpi="648"
         inkscape:export-xdpi="648"
         inkscape:export-filename="/home/juergen/Schreibtisch/path4136.png"
         style="opacity:1;fill:#9c27b0;fill-opacity:1;stroke:none;stroke-width:0.05069799;stroke-miterlimit:4;stroke-dasharray:none;stroke-opacity:1"
         id="circle7178"
         cx="9.9999781"
         cy="10.000005"
         r="10" />
    </clipPath>
    <clipPath
       id="clipPath8165"
       clipPathUnits="userSpaceOnUse">
      <circle
         inkscape:export-ydpi="648"
         inkscape:export-xdpi="648"
         inkscape:export-filename="/home/juergen/Schreibtisch/path4136.png"
         style="opacity:1;fill:#ffc107;fill-opacity:1;stroke:none;stroke-width:0.05069799;stroke-miterlimit:4;stroke-dasharray:none;stroke-opacity:1"
         id="circle8167"
         cx="9.9999781"
         cy="10.000005"
         r="10" />
    </clipPath>
    <clipPath
       clipPathUnits="userSpaceOnUse"
       id="clipPath9162">
      <circle
         inkscape:export-ydpi="648"
         inkscape:export-xdpi="648"
         inkscape:export-filename="/home/juergen/Schreibtisch/path4136.png"
         style="opacity:1;fill:#ff9800;fill-opacity:1;stroke:none;stroke-width:0.05069799;stroke-miterlimit:4;stroke-dasharray:none;stroke-opacity:1"
         id="circle9164"
         cx="9.9999781"
         cy="10.000005"
         r="10" />
    </clipPath>
    <clipPath
       id="clipPath10753"
       clipPathUnits="userSpaceOnUse">
      <circle
         inkscape:export-ydpi="648"
         inkscape:export-xdpi="648"
         inkscape:export-filename="/home/juergen/Schreibtisch/path4136.png"
         style="opacity:1;fill:#607d8b;fill-opacity:1;stroke:none;stroke-width:0.05069799;stroke-miterlimit:4;stroke-dasharray:none;stroke-opacity:1"
         id="circle10755"
         cx="9.9999781"
         cy="10.000005"
         r="10" />
    </clipPath>
    <clipPath
       clipPathUnits="userSpaceOnUse"
       id="clipPath5153">
      <circle
         inkscape:export-ydpi="648"
         inkscape:export-xdpi="648"
         inkscape:export-filename="/home/juergen/Schreibtisch/path4136.png"
         style="opacity:1;fill:#2196f3;fill-opacity:1;stroke:none;stroke-width:0.05069799;stroke-miterlimit:4;stroke-dasharray:none;stroke-opacity:1"
         id="circle5155"
         cx="9.9999781"
         cy="10.000005"
         r="10" />
    </clipPath>
    <clipPath
       id="clipPath6152"
       clipPathUnits="userSpaceOnUse">
      <circle
         inkscape:export-ydpi="648"
         inkscape:export-xdpi="648"
         inkscape:export-filename="/home/juergen/Schreibtisch/path4136.png"
         style="opacity:1;fill:#2196f3;fill-opacity:1;stroke:none;stroke-width:0.05069799;stroke-miterlimit:4;stroke-dasharray:none;stroke-opacity:1"
         id="circle6154"
         cx="9.9999781"
         cy="10.000005"
         r="10" />
    </clipPath>
    <clipPath
       clipPathUnits="userSpaceOnUse"
       id="clipPath7155">
      <circle
         inkscape:export-ydpi="648"
         inkscape:export-xdpi="648"
         inkscape:export-filename="/home/juergen/Schreibtisch/path4136.png"
         style="opacity:1;fill:#2196f3;fill-opacity:1;stroke:none;stroke-width:0.05069799;stroke-miterlimit:4;stroke-dasharray:none;stroke-opacity:1"
         id="circle7157"
         cx="9.9999781"
         cy="10.000005"
         r="10" />
    </clipPath>
    <clipPath
       id="clipPath8162"
       clipPathUnits="userSpaceOnUse">
      <circle
         inkscape:export-ydpi="648"
         inkscape:export-xdpi="648"
         inkscape:export-filename="/home/juergen/Schreibtisch/path4136.png"
         style="opacity:1;fill:#2196f3;fill-opacity:1;stroke:none;stroke-width:0.05069799;stroke-miterlimit:4;stroke-dasharray:none;stroke-opacity:1"
         id="circle8164"
         cx="9.9999781"
         cy="10.000005"
         r="10" />
    </clipPath>
    <linearGradient
       inkscape:collect="always"
       xlink:href="#linearGradient9169"
       id="linearGradient9175"
       x1="10"
       y1="10"
       x2="20"
       y2="20"
       gradientUnits="userSpaceOnUse" />
    <clipPath
       clipPathUnits="userSpaceOnUse"
       id="clipPath9180">
      <circle
         inkscape:export-ydpi="648"
         inkscape:export-xdpi="648"
         inkscape:export-filename="/home/juergen/Schreibtisch/path4136.png"
         style="opacity:1;fill:#8bc34a;fill-opacity:1;stroke:none;stroke-width:0.05069799;stroke-miterlimit:4;stroke-dasharray:none;stroke-opacity:1"
         id="circle9182"
         cx="9.9999781"
         cy="10.000005"
         r="10" />
    </clipPath>
  </defs>
  <metadata
     id="metadata7">
    <rdf:RDF>
      <cc:Work
         rdf:about="">
        <dc:format>image/svg+xml</dc:format>
        <dc:type
           rdf:resource="http://purl.org/dc/dcmitype/StillImage" />
        <dc:title></dc:title>
      </cc:Work>
    </rdf:RDF>
  </metadata>
  <g
     transform="translate(1058.1428,-861.93365)"
     id="layer1"
     inkscape:groupmode="layer"
     inkscape:label="Hintergrund">
    <circle
       r="10"
       cy="871.93365"
       cx="-1048.1428"
       id="path4136"
       style="opacity:1;fill:#e91e63;fill-opacity:1;stroke:none;stroke-width:0.05069799;stroke-miterlimit:4;stroke-dasharray:none;stroke-opacity:1"
       inkscape:export-filename="/home/juergen/Schreibtisch/path4136.png"
       inkscape:export-xdpi="648"
       inkscape:export-ydpi="648" />
  </g>
  <g
     inkscape:label="Icon"
     id="layer2"
     inkscape:groupmode="layer"
     style="display:inline">
    <path
       d="M 7.5683594 5.2792969 L 6.7851562 6.0625 L 6.7871094 6.0644531 L 6.7910156 6.0683594 L 6.7929688 6.0703125 L 6.796875 6.0742188 L 6.8027344 6.0800781 L 6.8085938 6.0859375 L 6.8144531 6.0917969 L 6.8222656 6.0996094 L 6.8300781 6.1074219 L 6.8378906 6.1152344 L 6.8476562 6.125 L 6.8574219 6.1347656 L 6.8671875 6.1445312 L 6.8789062 6.15625 L 6.8925781 6.1699219 L 6.9042969 6.1816406 L 6.9179688 6.1953125 L 6.9335938 6.2109375 L 6.9472656 6.2246094 L 6.9648438 6.2421875 L 6.9804688 6.2578125 L 6.9980469 6.2753906 L 7.015625 6.2929688 L 7.0351562 6.3125 L 7.0546875 6.3320312 L 7.0761719 6.3535156 L 7.078125 6.3554688 L 7.0800781 6.3574219 L 7.0859375 6.3632812 L 7.0878906 6.3652344 L 7.0976562 6.3730469 L 7.1152344 6.390625 L 7.1171875 6.3945312 L 7.1191406 6.3964844 L 7.140625 6.4179688 L 7.1640625 6.4414062 L 7.1894531 6.4667969 L 7.2128906 6.4902344 L 7.2148438 6.4921875 L 7.2324219 6.5097656 L 7.2402344 6.515625 L 7.2421875 6.5175781 L 7.2441406 6.5214844 L 7.2460938 6.5234375 L 7.2480469 6.5253906 L 7.2519531 6.5292969 L 7.2558594 6.5332031 L 7.2597656 6.5371094 L 7.2636719 6.5410156 L 7.265625 6.5429688 L 7.2929688 6.5703125 L 7.3203125 6.5976562 L 7.3496094 6.6269531 L 7.3789062 6.65625 L 7.4082031 6.6855469 L 7.4394531 6.7167969 L 7.4707031 6.7480469 L 7.5039062 6.78125 L 7.5371094 6.8144531 L 7.5703125 6.8476562 L 7.5722656 6.8496094 L 7.5976562 6.875 L 7.5996094 6.8769531 L 7.6015625 6.8789062 L 7.6035156 6.8808594 L 7.6152344 6.890625 L 7.6210938 6.8964844 L 7.6210938 6.8984375 L 7.6230469 6.9003906 L 7.625 6.9023438 L 7.6289062 6.90625 L 7.6367188 6.9140625 L 7.640625 6.9179688 L 7.6757812 6.953125 L 7.7128906 6.9902344 L 7.75 7.0273438 L 7.7890625 7.0664062 L 7.828125 7.1054688 L 7.8671875 7.1445312 L 7.9082031 7.1855469 L 7.9492188 7.2265625 L 7.9902344 7.2675781 L 8.0332031 7.3105469 L 8.0761719 7.3535156 L 8.1074219 7.3847656 L 5.2460938 10.244141 C 5.1641607 10.321908 5.1034665 10.414293 5.0625 10.513672 C 5.0622976 10.51416 5.0627014 10.515136 5.0625 10.515625 C 4.9812998 10.713964 4.9808117 10.942214 5.0625 11.144531 C 5.0625 11.144531 5.0644531 11.146484 5.0644531 11.146484 C 5.0644531 11.146484 5.0664062 11.148438 5.0664062 11.148438 C 5.0664062 11.148438 5.0664062 11.150391 5.0664062 11.150391 C 5.0866236 11.200463 5.1280084 11.240948 5.1582031 11.287109 C 5.1882504 11.33214 5.2064607 11.382242 5.2460938 11.421875 C 5.246752 11.422538 5.247386 11.423167 5.2480469 11.423828 C 5.2480469 11.423828 5.25 11.425781 5.25 11.425781 C 5.25 11.425781 5.2519531 11.427734 5.2519531 11.427734 C 5.2532648 11.429064 5.2545371 11.430318 5.2558594 11.431641 C 5.2571719 11.432971 5.2584424 11.434224 5.2597656 11.435547 C 5.2610883 11.436887 5.2623383 11.43812 5.2636719 11.439453 L 5.2695312 11.445312 L 5.2753906 11.451172 L 5.2832031 11.458984 L 5.2910156 11.466797 L 5.2988281 11.474609 L 5.3085938 11.484375 L 5.3183594 11.494141 L 5.3300781 11.505859 L 5.3417969 11.517578 L 5.3535156 11.529297 L 5.3613281 11.537109 C 5.3630362 11.538847 5.3635081 11.541243 5.3652344 11.542969 L 5.3789062 11.556641 L 5.3945312 11.570312 L 5.4101562 11.585938 L 5.4257812 11.601562 L 5.4375 11.613281 L 5.4414062 11.619141 L 5.4589844 11.636719 L 5.4765625 11.654297 L 5.4785156 11.654297 L 5.4921875 11.667969 L 5.4960938 11.673828 L 5.515625 11.693359 L 5.5175781 11.693359 L 5.5371094 11.712891 L 5.5585938 11.734375 L 5.5800781 11.755859 L 5.6035156 11.779297 L 5.6210938 11.796875 L 5.625 11.802734 L 5.6269531 11.804688 L 5.6289062 11.806641 L 5.6308594 11.808594 L 5.6328125 11.810547 L 5.6347656 11.8125 L 5.6425781 11.820312 L 5.6445312 11.820312 L 5.6464844 11.822266 L 5.6484375 11.824219 L 5.6503906 11.826172 L 5.6757812 11.851562 L 5.7011719 11.876953 L 5.7265625 11.902344 L 5.7539062 11.929688 L 5.7773438 11.953125 L 5.7773438 11.955078 L 5.78125 11.958984 L 5.7832031 11.960938 L 5.7851562 11.962891 L 5.7871094 11.964844 L 5.7890625 11.966797 L 5.7910156 11.96875 L 5.7929688 11.970703 L 5.7949219 11.972656 L 5.8046875 11.980469 L 5.8066406 11.982422 L 5.8085938 11.984375 L 5.8105469 11.986328 L 5.8398438 12.015625 L 5.8652344 12.041016 L 5.8652344 12.042969 L 5.8691406 12.046875 L 5.8710938 12.048828 L 5.8984375 12.074219 L 5.9003906 12.076172 L 5.9277344 12.103516 L 5.9316406 12.107422 L 5.9316406 12.109375 L 5.9335938 12.111328 L 5.9355469 12.113281 L 5.9628906 12.138672 L 5.9648438 12.140625 L 5.9980469 12.173828 L 6.03125 12.207031 L 6.0664062 12.242188 L 6.1015625 12.277344 L 6.1367188 12.3125 L 6.1738281 12.349609 L 6.2070312 12.382812 L 6.2109375 12.386719 L 6.2109375 12.388672 L 6.2148438 12.392578 L 6.2167969 12.392578 L 6.21875 12.394531 L 6.2480469 12.423828 L 6.25 12.425781 L 6.2890625 12.464844 L 6.328125 12.503906 L 6.3691406 12.544922 L 6.4101562 12.585938 L 6.4472656 12.623047 L 6.4511719 12.626953 L 6.4511719 12.628906 L 6.4941406 12.671875 L 6.5371094 12.714844 L 6.5390625 12.714844 L 6.5820312 12.757812 L 6.6269531 12.802734 L 6.6738281 12.849609 L 6.7148438 12.890625 L 6.7148438 12.892578 L 6.71875 12.896484 L 6.765625 12.943359 L 6.8125 12.990234 L 6.8144531 12.990234 L 6.8632812 13.039062 L 6.9121094 13.087891 L 6.9628906 13.138672 L 7.0136719 13.189453 L 7.0605469 13.236328 L 7.0644531 13.240234 L 7.0644531 13.242188 L 7.0742188 13.251953 L 7.0761719 13.251953 L 7.1171875 13.292969 L 7.1660156 13.341797 L 7.1660156 13.34375 L 7.1699219 13.347656 L 7.171875 13.349609 L 7.2207031 13.398438 L 7.2226562 13.398438 L 7.2246094 13.400391 L 7.2792969 13.455078 L 7.3339844 13.509766 L 7.390625 13.566406 L 7.4472656 13.623047 L 7.5 13.675781 L 7.5 13.677734 L 7.5039062 13.681641 L 7.5507812 13.728516 L 7.5527344 13.728516 L 7.5625 13.738281 L 7.6171875 13.792969 L 7.6210938 13.796875 L 7.6210938 13.798828 L 7.6230469 13.800781 L 7.6601562 13.837891 L 7.6621094 13.839844 L 7.6640625 13.841797 L 7.6660156 13.841797 L 7.6816406 13.857422 L 7.7421875 13.917969 L 7.7988281 13.974609 L 7.8027344 13.978516 L 7.8027344 13.980469 L 7.8574219 14.035156 L 7.859375 14.035156 L 7.8652344 14.041016 L 7.9238281 14.099609 L 7.9238281 14.101562 L 7.9277344 14.105469 L 7.9296875 14.107422 L 7.96875 14.146484 L 7.9707031 14.146484 L 7.9726562 14.148438 L 7.9746094 14.150391 L 7.9921875 14.167969 L 8.0566406 14.232422 L 8.1210938 14.296875 L 8.1875 14.363281 L 8.2539062 14.429688 L 8.3007812 14.476562 L 8.3027344 14.478516 L 8.3046875 14.480469 L 8.3066406 14.482422 L 8.3105469 14.486328 L 8.3144531 14.490234 L 8.3183594 14.496094 L 8.3203125 14.496094 C 8.3216286 14.497404 8.3228953 14.4987 8.3242188 14.5 L 8.3300781 14.507812 C 8.3317889 14.509523 8.3342142 14.510026 8.3359375 14.511719 L 8.3378906 14.513672 L 8.3457031 14.521484 L 8.3535156 14.53125 C 8.3552264 14.532961 8.3576517 14.533463 8.359375 14.535156 L 8.3632812 14.539062 L 8.3730469 14.550781 C 8.3747662 14.552501 8.3771744 14.552986 8.3789062 14.554688 L 8.3847656 14.560547 L 8.3886719 14.564453 L 8.3964844 14.572266 L 8.4082031 14.583984 L 8.421875 14.597656 L 8.4355469 14.611328 L 8.4492188 14.625 L 8.4570312 14.632812 L 8.4648438 14.640625 L 8.4804688 14.65625 L 8.4980469 14.673828 L 8.515625 14.691406 L 8.5273438 14.703125 L 8.5332031 14.708984 L 8.5527344 14.728516 L 8.5722656 14.748047 L 8.5917969 14.767578 L 8.5917969 14.769531 C 8.593114 14.770866 8.5943753 14.77211 8.5957031 14.773438 L 8.609375 14.787109 L 8.6132812 14.789062 L 8.6308594 14.808594 L 8.6328125 14.808594 L 8.6347656 14.810547 L 8.6503906 14.826172 L 8.6582031 14.833984 L 8.6679688 14.84375 L 8.6816406 14.857422 L 8.7050781 14.880859 L 8.7304688 14.90625 L 8.734375 14.910156 L 8.7363281 14.912109 L 8.7382812 14.914062 L 8.7382812 14.916016 L 8.7519531 14.929688 L 8.7539062 14.929688 L 8.7558594 14.931641 L 8.7578125 14.933594 L 8.78125 14.958984 C 8.7829608 14.960695 8.7853861 14.961197 8.7871094 14.962891 L 8.7910156 14.966797 L 8.8085938 14.986328 L 8.8125 14.988281 C 8.8125 14.988281 8.8144531 14.990234 8.8144531 14.990234 L 8.8378906 15.013672 L 8.8652344 15.041016 L 8.8847656 15.060547 L 8.8945312 15.070312 L 8.9257812 15.101562 L 8.9550781 15.132812 L 8.9589844 15.134766 C 8.9589844 15.134766 8.9609375 15.136719 8.9609375 15.136719 L 8.9882812 15.164062 L 9.0195312 15.195312 L 9.0332031 15.208984 L 9.0527344 15.228516 L 9.0859375 15.263672 C 9.0876568 15.265391 9.090065 15.265877 9.0917969 15.267578 L 9.109375 15.285156 L 9.1210938 15.296875 L 9.15625 15.332031 L 9.1855469 15.361328 L 9.1914062 15.369141 C 9.1924601 15.370194 9.1942539 15.370047 9.1953125 15.371094 L 9.2285156 15.40625 C 9.2302349 15.407969 9.2326431 15.408455 9.234375 15.410156 L 9.2617188 15.4375 L 9.2675781 15.443359 L 9.3046875 15.480469 L 9.3398438 15.515625 L 9.34375 15.519531 L 9.3828125 15.560547 C 9.3845233 15.562258 9.3869486 15.56276 9.3886719 15.564453 L 9.4179688 15.59375 L 9.4238281 15.599609 L 9.4648438 15.640625 L 9.4960938 15.671875 L 9.5078125 15.683594 L 9.5507812 15.726562 L 9.5761719 15.751953 L 9.59375 15.769531 L 9.6367188 15.814453 C 9.6384295 15.816164 9.6408549 15.816666 9.6425781 15.818359 L 9.6523438 15.828125 L 9.6542969 15.830078 L 9.6542969 15.832031 C 9.6542969 15.832031 9.65625 15.833984 9.65625 15.833984 L 9.6777344 15.855469 L 9.6816406 15.859375 L 9.7050781 15.882812 L 9.7070312 15.882812 L 9.7089844 15.884766 L 9.7382812 15.914062 L 9.7753906 15.951172 L 9.8203125 15.996094 L 9.8222656 15.998047 L 9.8691406 16.044922 L 9.8984375 16.074219 L 9.9003906 16.076172 L 9.9003906 16.078125 L 9.9023438 16.080078 L 9.9082031 16.085938 L 9.9179688 16.09375 L 9.9433594 16.121094 L 9.9453125 16.121094 L 9.9511719 16.126953 L 9.9667969 16.144531 L 9.9707031 16.146484 C 9.9707031 16.146484 9.9726562 16.148438 9.9726562 16.148438 L 9.9863281 16.162109 L 10.017578 16.193359 L 10.066406 16.242188 L 10.066406 16.244141 L 10.068359 16.244141 L 10.070312 16.248047 L 10.074219 16.251953 L 10.076172 16.251953 L 10.078125 16.253906 L 10.083984 16.259766 L 10.085938 16.261719 L 10.121094 16.296875 L 10.15625 16.332031 L 10.171875 16.349609 C 10.173594 16.351329 10.176002 16.351814 10.177734 16.353516 L 10.226562 16.402344 L 10.242188 16.417969 L 10.279297 16.455078 L 10.328125 16.503906 L 10.333984 16.509766 L 10.388672 16.566406 C 10.390391 16.568126 10.392799 16.568611 10.394531 16.570312 L 10.416016 16.591797 L 10.445312 16.621094 L 10.501953 16.677734 L 10.503906 16.679688 L 10.560547 16.736328 L 10.591797 16.767578 L 10.617188 16.794922 C 10.618898 16.796633 10.621324 16.797135 10.623047 16.798828 L 10.677734 16.853516 L 10.681641 16.857422 L 10.736328 16.914062 C 10.738047 16.915782 10.740456 16.916267 10.742188 16.917969 L 10.771484 16.947266 L 10.796875 16.974609 C 10.798594 16.976329 10.801002 16.976814 10.802734 16.978516 L 10.859375 17.035156 L 10.863281 17.039062 L 10.919922 17.097656 C 10.921633 17.099367 10.924058 17.099869 10.925781 17.101562 L 10.955078 17.130859 L 10.982422 17.160156 C 10.984133 17.161867 10.986558 17.162369 10.988281 17.164062 L 11.046875 17.222656 L 11.111328 17.287109 L 11.140625 17.316406 L 11.175781 17.351562 L 11.234375 17.410156 L 11.242188 17.417969 L 11.308594 17.484375 L 11.324219 17.5 L 11.324219 17.501953 C 11.325536 17.503288 11.326797 17.504532 11.328125 17.505859 L 11.375 17.550781 L 11.376953 17.554688 L 11.378906 17.554688 L 11.380859 17.556641 L 11.382812 17.558594 L 11.423828 17.599609 L 11.443359 17.619141 L 11.511719 17.6875 L 11.515625 17.691406 L 11.515625 17.693359 L 11.519531 17.697266 L 11.570312 17.748047 L 11.572266 17.748047 L 11.574219 17.75 L 11.578125 17.753906 L 11.582031 17.757812 L 11.617188 17.792969 L 11.652344 17.828125 L 11.714844 17.890625 L 11.722656 17.898438 L 11.794922 17.970703 L 11.808594 17.984375 L 11.808594 17.986328 L 11.8125 17.990234 L 11.830078 18.007812 L 11.832031 18.007812 L 11.867188 18.042969 L 11.912109 18.087891 L 11.939453 18.115234 L 12.007812 18.183594 L 12.007812 18.185547 L 12.011719 18.189453 L 12.013672 18.189453 L 12.019531 18.197266 L 12.021484 18.199219 L 12.023438 18.199219 L 12.025391 18.201172 L 12.027344 18.203125 L 12.029297 18.205078 L 12.083984 18.259766 L 12.087891 18.263672 L 12.113281 18.289062 L 12.164062 18.339844 L 12.214844 18.390625 L 12.240234 18.416016 L 12.316406 18.492188 L 12.394531 18.570312 L 12.419922 18.595703 L 12.472656 18.648438 L 12.523438 18.699219 L 12.550781 18.728516 C 12.552492 18.730226 12.554917 18.730729 12.556641 18.732422 L 12.626953 18.802734 L 12.630859 18.808594 C 12.632579 18.810313 12.634987 18.810798 12.636719 18.8125 L 12.712891 18.888672 L 12.732422 18.908203 L 12.792969 18.96875 L 12.837891 19.013672 L 12.875 19.050781 L 12.945312 19.121094 L 12.958984 19.134766 L 13.041016 19.21875 C 13.042726 19.220461 13.045152 19.220963 13.046875 19.222656 L 13.052734 19.228516 L 13.126953 19.302734 L 13.160156 19.335938 L 13.210938 19.386719 L 13.269531 19.445312 L 13.296875 19.472656 L 13.378906 19.554688 L 13.382812 19.560547 C 13.384532 19.562266 13.38694 19.562752 13.388672 19.564453 L 13.470703 19.646484 L 13.488281 19.664062 L 13.558594 19.734375 L 13.599609 19.775391 L 13.646484 19.824219 C 13.648195 19.82593 13.65062 19.826432 13.652344 19.828125 L 13.710938 19.886719 L 13.736328 19.912109 L 13.824219 20 L 13.826172 20.003906 C 13.827883 20.005617 13.830308 20.006119 13.832031 20.007812 L 13.917969 20.09375 L 13.9375 20.113281 L 14.009766 20.185547 L 14.050781 20.226562 L 14.101562 20.279297 C 14.103282 20.281016 14.10569 20.281502 14.107422 20.283203 L 14.166016 20.341797 L 14.195312 20.371094 L 14.28125 20.457031 L 14.289062 20.464844 L 14.384766 20.560547 L 14.392578 20.568359 L 14.392578 20.570312 C 14.393895 20.571647 14.395157 20.572891 14.396484 20.574219 L 14.478516 20.65625 L 14.513672 20.691406 L 14.517578 20.695312 L 14.576172 20.751953 L 14.585938 20.763672 L 14.632812 20.808594 L 14.671875 20.849609 C 14.673594 20.851329 14.676002 20.851814 14.677734 20.853516 L 14.75 20.925781 L 14.769531 20.947266 C 14.771251 20.948985 14.773659 20.94947 14.775391 20.951172 L 14.865234 21.041016 L 14.867188 21.042969 L 14.867188 21.044922 L 14.869141 21.044922 L 14.869141 21.046875 L 14.957031 21.132812 L 14.966797 21.144531 C 14.968508 21.146242 14.970933 21.146744 14.972656 21.148438 L 14.990234 21.166016 L 15.068359 21.244141 L 15.105469 21.28125 L 15.109375 21.285156 L 15.109375 21.287109 L 15.167969 21.34375 L 15.224609 21.402344 L 15.226562 21.402344 L 15.228516 21.404297 L 15.232422 21.408203 L 15.269531 21.445312 L 15.353516 21.529297 L 15.371094 21.546875 L 15.474609 21.650391 L 15.476562 21.652344 L 15.578125 21.753906 L 15.595703 21.771484 L 15.597656 21.773438 L 15.599609 21.775391 L 15.599609 21.777344 L 15.613281 21.791016 L 15.615234 21.791016 L 15.617188 21.792969 L 15.681641 21.859375 C 15.68336 21.861094 15.685768 21.86158 15.6875 21.863281 L 15.724609 21.900391 L 15.787109 21.962891 L 15.849609 22.025391 L 15.892578 22.070312 C 15.894297 22.072032 15.896706 22.072517 15.898438 22.074219 L 15.976562 22.152344 L 16 22.175781 L 16.097656 22.273438 L 16.097656 22.275391 L 16.101562 22.279297 L 16.107422 22.283203 L 16.134766 22.3125 L 16.230469 22.40625 L 16.324219 22.5 L 16.357422 22.533203 L 16.433594 22.609375 L 16.486328 22.662109 L 16.542969 22.720703 C 16.544688 22.722422 16.547096 22.722908 16.548828 22.724609 L 16.611328 22.787109 L 16.615234 22.791016 L 16.615234 22.792969 L 16.628906 22.806641 L 16.630859 22.806641 L 16.632812 22.808594 L 16.634766 22.810547 L 16.654297 22.830078 L 16.746094 22.921875 L 16.765625 22.943359 C 16.767336 22.94507 16.769761 22.945572 16.771484 22.947266 L 16.873047 23.048828 L 16.873047 23.050781 L 16.876953 23.054688 L 16.878906 23.054688 L 16.878906 23.056641 L 16.880859 23.058594 L 16.882812 23.058594 L 16.884766 23.060547 L 16.886719 23.0625 L 16.888672 23.064453 L 16.992188 23.167969 L 17.009766 23.185547 L 17.105469 23.283203 C 17.107188 23.284922 17.109596 23.285408 17.111328 23.287109 L 17.142578 23.318359 L 17.220703 23.396484 L 17.275391 23.451172 L 17.335938 23.511719 L 17.410156 23.585938 L 17.453125 23.628906 L 17.544922 23.720703 L 17.570312 23.746094 L 17.679688 23.855469 L 17.6875 23.863281 L 17.804688 23.982422 C 17.806398 23.984133 17.808824 23.984635 17.810547 23.986328 L 17.816406 23.992188 L 17.923828 24.101562 C 17.925539 24.103273 17.927964 24.103776 17.929688 24.105469 L 17.953125 24.128906 L 18.044922 24.220703 L 18.085938 24.261719 L 18.085938 24.263672 L 18.087891 24.265625 C 18.087891 24.265625 18.089844 24.267578 18.089844 24.267578 L 18.128906 24.306641 L 18.130859 24.306641 L 18.148438 24.324219 L 18.166016 24.341797 L 18.228516 24.404297 L 18.287109 24.462891 L 18.369141 24.544922 L 18.408203 24.585938 C 18.409914 24.587648 18.412339 24.588151 18.414062 24.589844 L 18.507812 24.683594 L 18.53125 24.708984 C 18.532969 24.710704 18.535377 24.711189 18.537109 24.712891 L 18.648438 24.824219 L 18.65625 24.832031 L 18.779297 24.957031 C 18.781016 24.958751 18.783424 24.959236 18.785156 24.960938 L 18.791016 24.966797 L 18.904297 25.082031 C 18.906016 25.083751 18.908424 25.084236 18.910156 25.085938 L 18.927734 25.103516 L 18.927734 25.105469 C 18.929051 25.106804 18.930313 25.108047 18.931641 25.109375 L 19.021484 25.199219 L 19.029297 25.205078 L 19.03125 25.207031 L 19.076172 25.251953 L 19.158203 25.333984 L 19.21875 25.394531 L 19.285156 25.460938 L 19.363281 25.539062 L 19.412109 25.589844 C 19.41382 25.591555 19.416245 25.592057 19.417969 25.59375 L 19.509766 25.685547 L 19.541016 25.71875 C 19.542735 25.720469 19.545143 25.720955 19.546875 25.722656 L 19.654297 25.830078 L 19.671875 25.847656 L 19.796875 25.972656 L 19.796875 25.974609 C 19.798192 25.975944 19.799453 25.977188 19.800781 25.978516 L 19.882812 26.058594 L 19.912109 26.087891 L 19.933594 26.109375 L 19.935547 26.111328 L 19.949219 26.125 L 20.064453 26.240234 L 20.097656 26.273438 L 20.197266 26.373047 L 20.330078 26.505859 L 20.390625 26.566406 L 20.464844 26.640625 L 20.599609 26.775391 L 20.734375 26.910156 L 20.871094 27.046875 L 21.007812 27.183594 L 21.146484 27.322266 L 21.283203 27.460938 C 21.284914 27.462648 21.287339 27.463151 21.289062 27.464844 L 21.423828 27.599609 L 21.5625 27.740234 L 21.703125 27.880859 C 21.704836 27.88257 21.707261 27.883072 21.708984 27.884766 L 21.845703 28.021484 L 21.988281 28.164062 L 22.130859 28.306641 L 22.273438 28.451172 L 22.417969 28.595703 C 22.41968 28.597414 22.422105 28.597916 22.423828 28.599609 L 22.564453 28.740234 L 22.708984 28.886719 C 22.710695 28.88843 22.71312 28.888932 22.714844 28.890625 L 22.857422 29.033203 L 23.003906 29.179688 L 23.152344 29.328125 C 23.313433 29.489213 23.529152 29.572266 23.740234 29.572266 C 23.951315 29.572266 24.168989 29.489215 24.330078 29.328125 L 26.191406 27.466797 C 26.205605 27.482739 26.211384 27.504353 26.226562 27.519531 C 26.250321 27.54329 26.282997 27.552873 26.308594 27.574219 C 26.330457 27.600568 26.340823 27.633792 26.365234 27.658203 C 26.389494 27.682463 26.423045 27.693101 26.449219 27.714844 C 26.471082 27.741193 26.481448 27.774417 26.505859 27.798828 C 26.530507 27.823476 26.565174 27.833419 26.591797 27.855469 C 26.613847 27.882092 26.623789 27.916758 26.648438 27.941406 C 26.673893 27.966862 26.70877 27.977317 26.736328 28 C 26.757626 28.025528 26.767317 28.058333 26.791016 28.082031 C 26.815366 28.106382 26.848721 28.116857 26.875 28.138672 C 26.897559 28.166046 26.908297 28.201265 26.933594 28.226562 C 26.958397 28.251365 26.992729 28.261032 27.019531 28.283203 C 27.041703 28.310005 27.051369 28.344338 27.076172 28.369141 C 27.10108 28.394049 27.135185 28.40548 27.162109 28.427734 C 27.184486 28.454839 27.195639 28.488608 27.220703 28.513672 C 27.246063 28.539032 27.281146 28.549657 27.308594 28.572266 C 27.331153 28.59964 27.34189 28.634859 27.367188 28.660156 C 27.392252 28.68522 27.42602 28.696373 27.453125 28.71875 C 27.475502 28.745855 27.486654 28.779623 27.511719 28.804688 C 27.537016 28.829985 27.572235 28.840722 27.599609 28.863281 C 27.622292 28.89084 27.632747 28.925716 27.658203 28.951172 C 27.684149 28.977118 27.719918 28.988654 27.748047 29.011719 C 27.770655 29.039167 27.78128 29.074249 27.806641 29.099609 C 27.832096 29.125065 27.866973 29.13552 27.894531 29.158203 C 27.917596 29.186332 27.929132 29.222101 27.955078 29.248047 C 28.163423 29.456392 28.445589 29.572266 28.740234 29.572266 C 29.034878 29.572266 29.317046 29.456392 29.525391 29.248047 C 29.733736 29.039702 29.851562 28.755581 29.851562 28.460938 C 29.851562 27.722151 28.740234 26.517578 28.740234 26.517578 C 28.740234 26.517578 28.724992 26.53474 28.724609 26.535156 C 28.696737 26.503659 28.591797 26.369141 28.591797 26.369141 C 28.591797 26.369141 28.576605 26.3882 28.576172 26.388672 C 28.548526 26.357437 28.445312 26.222656 28.445312 26.222656 C 28.445312 26.222656 28.430069 26.239819 28.429688 26.240234 C 28.402326 26.209328 28.298828 26.076172 28.298828 26.076172 C 28.298828 26.076172 28.283586 26.093333 28.283203 26.09375 C 28.255929 26.062945 28.152344 25.929688 28.152344 25.929688 C 28.152344 25.929688 28.139015 25.946892 28.138672 25.947266 C 28.11168 25.916787 28.007812 25.785156 28.007812 25.785156 C 28.007812 25.785156 27.994485 25.80236 27.994141 25.802734 C 27.967149 25.772256 27.863281 25.640625 27.863281 25.640625 C 27.863281 25.640625 27.848039 25.657786 27.847656 25.658203 C 27.821044 25.628163 27.71875 25.496094 27.71875 25.496094 C 27.71875 25.496094 27.705422 25.513297 27.705078 25.513672 C 27.678832 25.484054 27.576172 25.353516 27.576172 25.353516 C 27.576172 25.353516 27.568468 25.363163 27.568359 25.363281 C 27.527394 25.264467 27.466293 25.173085 27.384766 25.095703 L 27.236328 24.947266 L 27.089844 24.800781 L 26.943359 24.654297 L 26.796875 24.507812 L 26.652344 24.361328 L 26.507812 24.21875 L 26.363281 24.074219 L 26.220703 23.931641 L 26.078125 23.789062 L 25.9375 23.648438 L 25.796875 23.505859 L 25.65625 23.367188 L 25.517578 23.228516 L 25.378906 23.089844 L 25.240234 22.951172 L 25.103516 22.814453 L 24.966797 22.677734 L 24.832031 22.542969 L 24.697266 22.408203 L 24.5625 22.273438 L 24.429688 22.140625 L 24.296875 22.007812 L 24.166016 21.876953 L 24.035156 21.746094 L 23.904297 21.615234 L 23.775391 21.484375 L 23.646484 21.355469 L 23.517578 21.228516 L 23.390625 21.101562 L 23.263672 20.974609 L 23.138672 20.847656 L 23.011719 20.722656 L 22.888672 20.599609 L 22.763672 20.474609 L 22.642578 20.351562 L 22.519531 20.230469 L 22.417969 20.128906 L 22.398438 20.109375 L 22.396484 20.107422 L 22.357422 20.068359 L 22.3125 20.023438 L 22.298828 20.009766 L 22.296875 20.005859 L 22.271484 19.980469 L 22.269531 19.980469 L 22.158203 19.869141 L 22.123047 19.833984 L 22.039062 19.75 L 21.976562 19.6875 L 21.919922 19.630859 L 21.830078 19.541016 L 21.802734 19.513672 L 21.685547 19.396484 L 21.568359 19.279297 L 21.541016 19.251953 L 21.453125 19.164062 L 21.396484 19.107422 L 21.339844 19.048828 L 21.253906 18.964844 L 21.224609 18.935547 L 21.111328 18.822266 L 21 18.708984 L 20.970703 18.681641 L 20.886719 18.597656 L 20.830078 18.541016 L 20.777344 18.486328 L 20.689453 18.400391 L 20.666016 18.376953 L 20.556641 18.267578 L 20.550781 18.261719 L 20.447266 18.158203 L 20.412109 18.123047 L 20.339844 18.050781 L 20.275391 17.986328 L 20.232422 17.943359 L 20.136719 17.847656 L 20.125 17.835938 L 20.019531 17.730469 L 20.001953 17.712891 L 19.914062 17.625 L 19.865234 17.576172 L 19.810547 17.521484 L 19.730469 17.441406 L 19.707031 17.417969 L 19.603516 17.314453 L 19.597656 17.308594 L 19.501953 17.212891 L 19.462891 17.173828 L 19.400391 17.111328 L 19.332031 17.042969 L 19.300781 17.011719 L 19.201172 16.910156 L 19.199219 16.910156 L 19.101562 16.8125 L 19.068359 16.779297 L 19.001953 16.712891 L 18.9375 16.648438 L 18.904297 16.615234 L 18.808594 16.519531 L 18.712891 16.421875 L 18.679688 16.390625 L 18.617188 16.328125 L 18.550781 16.261719 L 18.521484 16.232422 L 18.427734 16.138672 L 18.423828 16.134766 L 18.333984 16.044922 L 18.296875 16.007812 L 18.242188 15.953125 L 18.171875 15.882812 L 18.150391 15.861328 L 18.060547 15.771484 L 18.046875 15.757812 L 17.96875 15.679688 L 17.921875 15.632812 L 17.880859 15.589844 L 17.798828 15.509766 L 17.791016 15.501953 L 17.703125 15.414062 L 17.675781 15.386719 L 17.615234 15.326172 L 17.552734 15.263672 L 17.529297 15.240234 L 17.443359 15.154297 L 17.431641 15.142578 L 17.359375 15.070312 L 17.310547 15.021484 L 17.275391 14.984375 L 17.191406 14.902344 L 17.107422 14.818359 L 17.072266 14.783203 L 17.025391 14.736328 L 16.953125 14.664062 L 16.945312 14.65625 L 16.863281 14.574219 L 16.835938 14.546875 L 16.785156 14.496094 L 16.71875 14.429688 L 16.705078 14.416016 L 16.626953 14.337891 L 16.603516 14.314453 L 16.548828 14.259766 L 16.488281 14.199219 L 16.472656 14.183594 L 16.396484 14.107422 L 16.373047 14.083984 L 16.365234 14.076172 L 16.353516 14.064453 L 16.328125 14.039062 L 16.320312 14.03125 L 16.310547 14.021484 L 16.310547 14.019531 L 16.308594 14.017578 L 16.304688 14.013672 L 16.294922 14.003906 L 16.261719 13.970703 L 16.259766 13.96875 L 16.246094 13.957031 L 16.171875 13.882812 L 16.146484 13.855469 L 16.109375 13.818359 L 16.107422 13.818359 L 16.105469 13.816406 L 16.033203 13.744141 L 16.027344 13.738281 L 15.955078 13.666016 L 15.921875 13.632812 L 15.884766 13.595703 L 15.814453 13.525391 L 15.810547 13.521484 L 15.744141 13.455078 L 15.699219 13.410156 L 15.675781 13.386719 L 15.607422 13.318359 L 15.589844 13.300781 L 15.541016 13.251953 L 15.482422 13.193359 L 15.474609 13.185547 L 15.408203 13.119141 L 15.373047 13.083984 L 15.34375 13.054688 L 15.279297 12.990234 L 15.265625 12.976562 L 15.216797 12.927734 L 15.160156 12.871094 L 15.158203 12.869141 L 15.154297 12.863281 L 15.091797 12.802734 L 15.054688 12.765625 L 15.029297 12.740234 L 14.96875 12.679688 L 14.949219 12.660156 L 14.910156 12.621094 L 14.851562 12.5625 L 14.84375 12.554688 L 14.792969 12.503906 L 14.740234 12.451172 L 14.734375 12.445312 L 14.677734 12.388672 L 14.638672 12.349609 L 14.630859 12.341797 L 14.628906 12.339844 L 14.626953 12.337891 C 14.626953 12.337891 14.626953 12.335938 14.626953 12.335938 L 14.625 12.333984 L 14.623047 12.332031 L 14.619141 12.328125 L 14.615234 12.324219 L 14.537109 12.246094 L 14.535156 12.246094 L 14.511719 12.222656 L 14.458984 12.169922 L 14.435547 12.146484 L 14.404297 12.115234 L 14.353516 12.064453 L 14.333984 12.044922 L 14.300781 12.011719 L 14.25 11.960938 L 14.234375 11.945312 L 14.201172 11.910156 L 14.150391 11.861328 L 14.134766 11.845703 L 14.101562 11.8125 L 14.054688 11.765625 L 14.037109 11.748047 L 14.007812 11.71875 L 13.960938 11.671875 L 13.939453 11.650391 L 13.916016 11.625 L 13.871094 11.580078 L 13.841797 11.552734 L 13.826172 11.537109 L 13.783203 11.494141 L 13.746094 11.457031 L 13.740234 11.451172 L 13.697266 11.408203 L 13.65625 11.367188 L 13.650391 11.361328 L 13.617188 11.326172 L 13.576172 11.287109 L 13.556641 11.267578 L 13.537109 11.248047 L 13.5 11.210938 L 13.462891 11.173828 L 13.462891 11.171875 L 13.460938 11.171875 L 13.458984 11.167969 L 13.435547 11.144531 L 13.425781 11.136719 L 13.425781 11.134766 L 13.416016 11.125 L 13.414062 11.125 L 13.412109 11.123047 L 13.388672 11.099609 L 13.386719 11.097656 L 13.376953 11.087891 L 13.369141 11.080078 L 13.361328 11.072266 L 13.353516 11.064453 L 13.349609 11.060547 L 13.318359 11.029297 L 13.310547 11.021484 L 13.308594 11.019531 L 13.308594 11.017578 L 13.304688 11.013672 L 13.294922 11.003906 L 13.287109 10.996094 L 13.285156 10.996094 L 13.279297 10.988281 L 13.277344 10.986328 L 13.251953 10.962891 L 13.251953 10.960938 L 13.203125 10.912109 L 13.201172 10.912109 L 13.199219 10.910156 L 13.191406 10.902344 L 13.189453 10.898438 L 13.185547 10.896484 L 13.185547 10.894531 L 13.169922 10.878906 L 13.167969 10.876953 L 13.166016 10.875 L 13.164062 10.875 L 13.162109 10.873047 L 13.158203 10.869141 L 13.126953 10.837891 L 13.097656 10.808594 L 13.09375 10.804688 L 13.070312 10.78125 L 13.041016 10.751953 L 13.015625 10.726562 L 13.003906 10.714844 L 12.988281 10.699219 L 12.962891 10.673828 L 12.9375 10.648438 L 12.914062 10.625 L 12.904297 10.615234 L 12.890625 10.601562 L 12.886719 10.597656 L 12.876953 10.587891 L 12.871094 10.582031 L 12.869141 10.580078 L 12.869141 10.578125 L 12.867188 10.578125 L 12.847656 10.556641 L 12.845703 10.556641 L 12.832031 10.541016 L 12.828125 10.537109 L 12.826172 10.535156 L 12.824219 10.535156 L 12.822266 10.53125 L 12.804688 10.515625 L 12.785156 10.494141 L 12.783203 10.494141 L 12.78125 10.492188 L 12.748047 10.458984 L 12.746094 10.457031 L 12.738281 10.449219 L 12.738281 10.447266 L 12.730469 10.441406 L 12.71875 10.427734 L 12.712891 10.423828 L 12.697266 10.408203 L 12.697266 10.40625 L 12.681641 10.392578 L 12.677734 10.386719 L 12.671875 10.380859 L 12.669922 10.378906 L 12.667969 10.378906 L 12.666016 10.376953 L 12.654297 10.365234 L 12.650391 10.361328 L 12.644531 10.355469 L 12.640625 10.351562 L 12.632812 10.34375 L 12.628906 10.339844 L 12.625 10.335938 L 12.623047 10.333984 L 12.623047 10.332031 L 12.621094 10.330078 L 12.617188 10.328125 L 12.605469 10.316406 L 12.599609 10.308594 L 12.595703 10.306641 L 12.587891 10.298828 L 12.578125 10.289062 L 12.578125 10.287109 L 12.564453 10.273438 L 12.5625 10.273438 L 12.556641 10.267578 L 12.552734 10.261719 L 12.546875 10.257812 L 12.542969 10.253906 L 12.539062 10.25 L 12.537109 10.248047 L 12.535156 10.246094 L 12.533203 10.244141 L 12.478516 10.189453 L 12.392578 10.103516 L 12.308594 10.019531 L 12.224609 9.9355469 L 12.142578 9.8535156 L 12.060547 9.7714844 L 11.978516 9.6894531 L 11.898438 9.609375 L 11.818359 9.5292969 L 11.802734 9.5136719 L 11.789062 9.5 L 11.779297 9.4902344 L 11.777344 9.4882812 L 11.777344 9.4863281 L 11.775391 9.484375 L 11.771484 9.4804688 L 11.751953 9.4609375 L 11.740234 9.4492188 L 11.738281 9.4492188 L 11.660156 9.3710938 L 11.583984 9.2949219 L 11.505859 9.2167969 L 11.429688 9.140625 L 11.355469 9.0664062 L 11.28125 8.9921875 L 11.207031 8.9179688 L 11.132812 8.84375 L 11.060547 8.7714844 L 11.060547 8.7695312 L 11.058594 8.7675781 L 11.050781 8.7597656 L 11 8.7089844 L 10.990234 8.6992188 L 10.988281 8.6992188 L 10.917969 8.6289062 L 10.847656 8.5585938 L 10.779297 8.4902344 L 10.710938 8.421875 L 10.642578 8.3535156 L 10.574219 8.2851562 L 10.507812 8.21875 L 10.443359 8.1542969 L 10.376953 8.0878906 L 10.314453 8.0253906 L 10.314453 8.0234375 L 10.291016 8 L 10.285156 7.9941406 L 10.283203 7.9941406 L 10.28125 7.9921875 L 10.25 7.9609375 L 10.1875 7.8984375 L 10.125 7.8359375 L 10.064453 7.7753906 L 10.003906 7.7148438 L 9.9433594 7.6542969 L 9.8847656 7.5957031 L 9.8261719 7.5371094 L 9.7695312 7.4804688 L 9.7128906 7.4238281 L 9.65625 7.3671875 L 9.6015625 7.3125 L 9.546875 7.2578125 L 9.4921875 7.203125 L 9.4394531 7.1503906 L 9.3867188 7.0976562 L 9.3359375 7.046875 L 9.2851562 6.9960938 L 9.234375 6.9453125 L 9.1855469 6.8964844 L 9.0878906 6.7988281 L 9.0410156 6.7519531 L 8.9941406 6.7050781 L 8.9492188 6.6601562 L 8.9042969 6.6152344 L 8.859375 6.5703125 L 8.8164062 6.5273438 L 8.7734375 6.484375 L 8.7324219 6.4433594 L 8.6914062 6.4023438 L 8.6503906 6.3613281 L 8.6113281 6.3222656 L 8.5722656 6.2832031 L 8.5332031 6.2441406 L 8.4960938 6.2070312 L 8.4589844 6.1699219 L 8.421875 6.1328125 L 8.4179688 6.1289062 L 8.3984375 6.1074219 L 8.3945312 6.1035156 L 8.390625 6.0996094 L 8.3886719 6.0976562 L 8.3867188 6.0976562 L 8.3535156 6.0644531 L 8.3203125 6.03125 L 8.2871094 5.9980469 L 8.2539062 5.9648438 L 8.2226562 5.9335938 L 8.1914062 5.9023438 L 8.1621094 5.8730469 L 8.1328125 5.84375 L 8.1035156 5.8144531 L 8.0761719 5.7871094 L 8.0488281 5.7597656 L 8.0234375 5.734375 L 8.0234375 5.7324219 L 8.0214844 5.7304688 L 7.9960938 5.7070312 L 7.9726562 5.6835938 L 7.9472656 5.6582031 L 7.9238281 5.6347656 L 7.9023438 5.6132812 L 7.9003906 5.6113281 L 7.8789062 5.5898438 L 7.859375 5.5703125 L 7.8378906 5.5488281 L 7.8183594 5.5292969 L 7.7988281 5.5097656 L 7.78125 5.4921875 L 7.7636719 5.4746094 L 7.7480469 5.4589844 L 7.7304688 5.4414062 L 7.7167969 5.4277344 L 7.7011719 5.4121094 L 7.6875 5.3984375 L 7.6757812 5.3867188 L 7.6757812 5.3847656 L 7.6621094 5.3730469 L 7.6503906 5.3613281 L 7.640625 5.3515625 L 7.6308594 5.3417969 L 7.6210938 5.3320312 L 7.6132812 5.3242188 L 7.6054688 5.3164062 L 7.5976562 5.3085938 L 7.5917969 5.3027344 L 7.5859375 5.296875 L 7.5800781 5.2910156 L 7.5761719 5.2871094 L 7.5742188 5.2851562 L 7.5703125 5.28125 L 7.5683594 5.2792969 z "
       id="path8312"
       style="fill-opacity:1;fill:url(#linearGradient9175);opacity:0.2"
       clip-path="url(#clipPath9180)" />
    <path
       style="fill:none"
       inkscape:connector-curvature="0"
       id="path4"
       d="m 3.9999777,4.0333382 12.0000003,0 0,11.9333328 -12.0000003,0 z" />
    <path
       d="m 18.999978,19.033339 12,0 0,11.933333 -12,0 z"
       id="path9754"
       inkscape:connector-curvature="0"
       style="fill:none" />
    <path
       style="fill:#ffffff;fill-rule:evenodd;stroke:none;stroke-width:1px;stroke-linecap:butt;stroke-linejoin:miter;stroke-opacity:1"
       d="M 5.8035714,10.714286 8.75,7.2321429 l 3.482143,3.8392861 -1.964286,0.892857 z"
       id="path9184"
       inkscape:connector-curvature="0" />
    <path
       inkscape:connector-curvature="0"
       d="m 13.889021,11.66644 c 0,0 -1.110957,1.205388 -1.110957,1.944174 a 1.1109568,1.1109568 0 0 0 1.110957,1.110957 1.1109568,1.1109568 0 0 0 1.110957,-1.110957 c 0,-0.738786 -1.110957,-1.944174 -1.110957,-1.944174 M 6.2289738,10.833222 8.8897157,8.1724808 11.550457,10.833222 M 12.533654,10.244415 7.5676767,5.2784383 6.7844522,6.0616629 8.1064907,7.3837015 5.245777,10.244415 c -0.3277323,0.311068 -0.3277323,0.849882 0,1.177614 l 3.0551312,3.055132 c 0.1610887,0.161088 0.3777253,0.24441 0.5888075,0.24441 0.211081,0 0.427718,-0.08332 0.588807,-0.24441 l 3.0551313,-3.055132 c 0.327732,-0.327732 0.327732,-0.866546 0,-1.177614 z"
       id="path8235"
       style="fill:#ffc107" />
  </g>
</svg>
