<?xml version="1.0" encoding="UTF-8" standalone="no"?>
<!-- Created with Inkscape (http://www.inkscape.org/) -->

<svg
   xmlns:dc="http://purl.org/dc/elements/1.1/"
   xmlns:cc="http://creativecommons.org/ns#"
   xmlns:rdf="http://www.w3.org/1999/02/22-rdf-syntax-ns#"
   xmlns:svg="http://www.w3.org/2000/svg"
   xmlns="http://www.w3.org/2000/svg"
   xmlns:xlink="http://www.w3.org/1999/xlink"
   xmlns:sodipodi="http://sodipodi.sourceforge.net/DTD/sodipodi-0.dtd"
   xmlns:inkscape="http://www.inkscape.org/namespaces/inkscape"
   inkscape:export-ydpi="648"
   inkscape:export-xdpi="648"
   inkscape:export-filename="/home/juergen/Projekte/Android/Android_Studio/Baumann_Theme/theme/src/main/assets/icons/res/drawable-xxhdpi/a132.png"
   width="5.6444445mm"
   height="5.6444445mm"
   viewBox="0 0 20 20"
   id="svg2"
   version="1.1"
   inkscape:version="0.91 r13725"
   sodipodi:docname="Connect.svg">
  <sodipodi:namedview
     id="base"
     pagecolor="#ffffff"
     bordercolor="#666666"
     borderopacity="1.0"
     inkscape:pageopacity="0.0"
     inkscape:pageshadow="2"
     inkscape:zoom="22.4"
     inkscape:cx="10.275093"
     inkscape:cy="7.4739324"
     inkscape:document-units="px"
     inkscape:current-layer="layer2"
     showgrid="true"
     fit-margin-top="0"
     fit-margin-left="0"
     fit-margin-right="0"
     fit-margin-bottom="0"
     showguides="true"
     inkscape:guide-bbox="true"
     inkscape:window-width="1366"
     inkscape:window-height="744"
     inkscape:window-x="0"
     inkscape:window-y="24"
     inkscape:window-maximized="1"
     inkscape:snap-grids="false"
     inkscape:snap-to-guides="false">
    <inkscape:grid
       type="xygrid"
       id="grid4138" />
    <sodipodi:guide
       position="10,18"
       orientation="0,1"
       id="guide4140" />
    <sodipodi:guide
       position="10,2"
       orientation="0,1"
       id="guide4142" />
    <sodipodi:guide
       position="2,10"
       orientation="1,0"
       id="guide4144" />
    <sodipodi:guide
       position="0,0"
       orientation="0,20"
       id="guide4146" />
    <sodipodi:guide
       position="20,0"
       orientation="-20,0"
       id="guide4148" />
    <sodipodi:guide
       position="20,20"
       orientation="0,-20"
       id="guide4150" />
    <sodipodi:guide
       position="0,20"
       orientation="20,0"
       id="guide4152" />
    <sodipodi:guide
       position="18,10"
       orientation="1,0"
       id="guide4154" />
    <sodipodi:guide
       position="10,10"
       orientation="-0.70710678,0.70710678"
       id="guide4156" />
    <sodipodi:guide
       position="10,10"
       orientation="0.70710678,0.70710678"
       id="guide4158" />
    <sodipodi:guide
       position="4,10"
       orientation="1,0"
       id="guide4160" />
    <sodipodi:guide
       position="16,10"
       orientation="1,0"
       id="guide4162" />
    <sodipodi:guide
       position="10,16"
       orientation="0,1"
       id="guide4164" />
    <sodipodi:guide
       position="10,4"
       orientation="0,1"
       id="guide4166" />
    <sodipodi:guide
       position="10,15"
       orientation="0,1"
       id="guide4168" />
    <sodipodi:guide
       position="10,5"
       orientation="0,1"
       id="guide4170" />
    <sodipodi:guide
       position="5,10"
       orientation="1,0"
       id="guide4172" />
    <sodipodi:guide
       position="15,10"
       orientation="1,0"
       id="guide4174" />
  </sodipodi:namedview>
  <defs
     id="defs4">
    <linearGradient
       inkscape:collect="always"
       id="linearGradient6004">
      <stop
         style="stop-color:#000000;stop-opacity:0.2"
         offset="0"
         id="stop6006" />
      <stop
         style="stop-color:#000000;stop-opacity:0;"
         offset="1"
         id="stop6008" />
    </linearGradient>
    <clipPath
       id="clipPath12478"
       clipPathUnits="userSpaceOnUse">
      <circle
         r="10"
         cy="10.000005"
         cx="9.9999781"
         id="circle12480"
         style="opacity:1;fill:#2196f3;fill-opacity:1;stroke:none;stroke-width:0.05069799;stroke-miterlimit:4;stroke-dasharray:none;stroke-opacity:1" />
    </clipPath>
    <clipPath
       clipPathUnits="userSpaceOnUse"
       id="clipPath13251">
      <circle
         r="10"
         cy="10.000005"
         cx="9.9999781"
         id="circle13253"
         style="opacity:1;fill:#2196f3;fill-opacity:1;stroke:none;stroke-width:0.05069799;stroke-miterlimit:4;stroke-dasharray:none;stroke-opacity:1"
         inkscape:export-filename="/home/juergen/path4136.png"
         inkscape:export-xdpi="648"
         inkscape:export-ydpi="648" />
    </clipPath>
    <clipPath
       id="clipPath5054"
       clipPathUnits="userSpaceOnUse">
      <circle
         r="10"
         cy="10.000005"
         cx="9.9999781"
         id="circle5056"
         style="opacity:1;fill:#2196f3;fill-opacity:1;stroke:none;stroke-width:0.05069799;stroke-miterlimit:4;stroke-dasharray:none;stroke-opacity:1"
         inkscape:export-filename="/home/juergen/path4136.png"
         inkscape:export-xdpi="648"
         inkscape:export-ydpi="648" />
    </clipPath>
    <clipPath
       clipPathUnits="userSpaceOnUse"
       id="clipPath5838">
      <circle
         r="10"
         cy="10.000005"
         cx="9.9999781"
         id="circle5840"
         style="opacity:1;fill:#f44336;fill-opacity:1;stroke:none;stroke-width:0.05069799;stroke-miterlimit:4;stroke-dasharray:none;stroke-opacity:1"
         inkscape:export-filename="/home/juergen/path4136.png"
         inkscape:export-xdpi="648"
         inkscape:export-ydpi="648" />
    </clipPath>
    <clipPath
       clipPathUnits="userSpaceOnUse"
       id="clipPath5850">
      <rect
         style="opacity:0.96300001;fill:#fdd835;fill-opacity:1;stroke:none;stroke-width:1.25;stroke-linecap:round;stroke-linejoin:round;stroke-miterlimit:4;stroke-dasharray:none;stroke-opacity:1"
         id="rect5852"
         width="5.7452426"
         height="4.0406103"
         x="7.0710678"
         y="3.9638286" />
    </clipPath>
    <linearGradient
       inkscape:collect="always"
       xlink:href="#linearGradient6004"
       id="linearGradient6010"
       x1="10"
       y1="10"
       x2="20"
       y2="20"
       gradientUnits="userSpaceOnUse" />
    <clipPath
       clipPathUnits="userSpaceOnUse"
       id="clipPath6016">
      <circle
         r="10"
         cy="10.000005"
         cx="9.9999781"
         id="circle6018"
         style="opacity:1;fill:#03a9f4;fill-opacity:1;stroke:none;stroke-width:0.05069799;stroke-miterlimit:4;stroke-dasharray:none;stroke-opacity:1"
         inkscape:export-filename="/home/juergen/path4136.png"
         inkscape:export-xdpi="648"
         inkscape:export-ydpi="648" />
    </clipPath>
    <clipPath
       clipPathUnits="userSpaceOnUse"
       id="clipPath6024">
      <path
         style="fill:none;fill-rule:evenodd;stroke:#000000;stroke-width:1px;stroke-linecap:butt;stroke-linejoin:miter;stroke-opacity:1"
         d="M 4.5535714,14.642857 10.580357,14.598214 10.178571,11.830357 8.6160714,9.8214286 7.0535714,8.9285715 4.3303571,8.7500001 Z"
         id="path6026"
         inkscape:connector-curvature="0" />
    </clipPath>
  </defs>
  <metadata
     id="metadata7">
    <rdf:RDF>
      <cc:Work
         rdf:about="">
        <dc:format>image/svg+xml</dc:format>
        <dc:type
           rdf:resource="http://purl.org/dc/dcmitype/StillImage" />
        <dc:title></dc:title>
      </cc:Work>
    </rdf:RDF>
  </metadata>
  <g
     inkscape:label="Hintergrund"
     inkscape:groupmode="layer"
     id="layer1"
     transform="translate(1058.1428,-861.93365)">
    <circle
       inkscape:export-ydpi="648"
       inkscape:export-xdpi="648"
       inkscape:export-filename="/home/juergen/path4136.png"
       style="opacity:1;fill:#03a9f4;fill-opacity:1;stroke:none;stroke-width:0.05069799;stroke-miterlimit:4;stroke-dasharray:none;stroke-opacity:1"
       id="path4136"
       cx="-1048.1428"
       cy="871.93365"
       r="10" />
  </g>
  <g
     style="display:inline"
     inkscape:groupmode="layer"
     id="layer2"
     inkscape:label="Icon">
    <path
       d="M 6.0585938 6.0585938 C 5.5540477 6.0585938 5.1484375 6.4622515 5.1484375 6.9667969 L 5.1484375 8.3300781 L 5.296875 8.3300781 L 5.296875 8.4785156 L 5.4453125 8.4785156 L 5.4453125 8.6269531 L 5.5917969 8.6269531 L 5.5917969 8.7734375 L 5.7363281 8.7734375 L 5.7363281 8.9179688 L 5.8828125 8.9179688 L 5.8828125 9.0644531 L 6.0273438 9.0644531 L 6.0273438 9.2089844 L 6.1699219 9.2089844 L 6.1699219 9.3457031 C 5.8402197 9.2772632 5.4983183 9.2402344 5.1484375 9.2402344 L 5.1484375 10.148438 C 5.1993168 10.148438 5.2464456 10.162221 5.296875 10.164062 L 5.296875 10.296875 C 5.3477543 10.296875 5.3948831 10.310658 5.4453125 10.3125 L 5.4453125 10.445312 C 5.4954747 10.445312 5.5420718 10.457194 5.5917969 10.458984 L 5.5917969 10.591797 C 5.6412964 10.591797 5.687254 10.603725 5.7363281 10.605469 L 5.7363281 10.736328 C 5.7865451 10.736328 5.8330336 10.750159 5.8828125 10.751953 L 5.8828125 10.882812 C 5.932312 10.882812 5.9782697 10.894741 6.0273438 10.896484 L 6.0273438 11.027344 C 6.0761806 11.027344 6.1214989 11.039318 6.1699219 11.041016 L 6.1699219 11.169922 C 6.2187466 11.169922 6.2640889 11.181897 6.3125 11.183594 L 6.3125 11.285156 C 5.95121 11.14267 5.560354 11.058594 5.1484375 11.058594 L 5.1484375 11.966797 C 5.1991954 11.966797 5.2469459 11.979146 5.296875 11.982422 L 5.296875 12.115234 C 5.3476329 12.115234 5.3953834 12.127583 5.4453125 12.130859 L 5.4453125 12.261719 C 5.4956216 12.261719 5.5423016 12.274125 5.5917969 12.277344 L 5.5917969 12.410156 C 5.6413967 12.410156 5.6875187 12.420698 5.7363281 12.423828 L 5.7363281 12.554688 C 5.7864253 12.554688 5.8335221 12.56712 5.8828125 12.570312 L 5.8828125 12.701172 C 5.9324123 12.701172 5.9785343 12.711714 6.0273438 12.714844 L 6.0273438 12.845703 C 6.0762795 12.845703 6.1217548 12.856328 6.1699219 12.859375 L 6.1699219 12.988281 C 6.21863 12.988281 6.2645532 12.998934 6.3125 13.001953 L 6.3125 13.130859 C 6.3612081 13.130859 6.4071313 13.141512 6.4550781 13.144531 L 6.4550781 13.273438 C 6.5037863 13.273438 6.5497094 13.28409 6.5976562 13.287109 L 6.5976562 13.416016 C 6.6459279 13.416016 6.690757 13.426722 6.7382812 13.429688 L 6.7382812 13.556641 C 6.7858888 13.556641 6.8300719 13.567427 6.8769531 13.570312 L 6.8769531 13.695312 C 6.9250005 13.695312 6.970271 13.706046 7.0175781 13.708984 L 7.0175781 13.835938 C 7.064521 13.835938 7.1080596 13.846804 7.1542969 13.849609 L 7.1542969 13.972656 C 7.201683 13.972656 7.246302 13.98347 7.2929688 13.986328 L 7.2929688 14.111328 C 7.3330195 14.111328 7.3706148 14.121 7.4101562 14.123047 C 7.4122028 14.162588 7.421875 14.200184 7.421875 14.240234 L 7.4296875 14.240234 L 7.4296875 14.248047 C 7.4731095 14.248047 7.5138197 14.259316 7.5566406 14.261719 C 7.5583415 14.292026 7.5659045 14.320949 7.5664062 14.351562 L 7.5664062 14.384766 C 7.5677344 14.384766 7.5689848 14.384763 7.5703125 14.384766 C 7.5703148 14.386086 7.5703125 14.387351 7.5703125 14.388672 L 7.6054688 14.388672 C 7.6382005 14.389239 7.6687915 14.396501 7.7011719 14.398438 L 7.7011719 14.519531 C 7.7058647 14.519531 7.7101576 14.521456 7.7148438 14.521484 C 7.7148724 14.526192 7.7167969 14.530442 7.7167969 14.535156 L 7.8359375 14.535156 L 7.8359375 14.654297 C 7.8445949 14.654297 7.8526936 14.656153 7.8613281 14.65625 C 7.8614256 14.664926 7.8632812 14.672941 7.8632812 14.681641 L 7.9707031 14.681641 L 7.9707031 14.789062 C 7.9827873 14.789062 7.9938199 14.792781 8.0058594 14.792969 C 8.0060456 14.804953 8.0097656 14.816096 8.0097656 14.828125 L 8.1035156 14.828125 L 8.1035156 14.921875 C 8.1195089 14.921875 8.1344761 14.925452 8.1503906 14.925781 C 8.1507225 14.941771 8.1542969 14.956587 8.1542969 14.972656 L 8.2363281 14.972656 L 8.2363281 15.054688 C 8.2556927 15.054688 8.2737201 15.060065 8.2929688 15.060547 C 8.2934547 15.079884 8.2988281 15.097734 8.2988281 15.117188 L 8.3691406 15.117188 L 8.3691406 15.185547 C 8.3919728 15.185547 8.4128766 15.192691 8.4355469 15.193359 C 8.436249 15.216587 8.4433594 15.238321 8.4433594 15.261719 L 8.5 15.261719 L 8.5 15.318359 C 8.5268248 15.318359 8.5515249 15.32525 8.578125 15.326172 C 8.5790383 15.352649 8.5859375 15.377597 8.5859375 15.404297 L 8.6289062 15.404297 L 8.6289062 15.447266 C 8.6602996 15.447266 8.6896193 15.45577 8.7207031 15.457031 C 8.7219065 15.487403 8.7285156 15.516208 8.7285156 15.546875 L 8.7597656 15.546875 L 8.7597656 15.578125 C 8.7939607 15.578125 8.8255484 15.586396 8.859375 15.587891 C 8.8608696 15.621717 8.8691406 15.653305 8.8691406 15.6875 L 8.8886719 15.6875 L 8.8886719 15.707031 C 8.9269168 15.707031 8.9622184 15.716883 9 15.71875 C 9.0017972 15.75582 9.0097656 15.790609 9.0097656 15.828125 L 9.015625 15.828125 L 9.015625 15.833984 C 9.057658 15.833984 9.0972012 15.84345 9.1386719 15.845703 C 9.1394228 15.859527 9.1420753 15.87283 9.1425781 15.886719 L 9.1425781 15.960938 C 9.1452212 15.960938 9.1477497 15.960928 9.1503906 15.960938 C 9.1503997 15.96358 9.1503906 15.966105 9.1503906 15.96875 L 9.21875 15.96875 C 9.2359914 15.96933 9.2523893 15.973647 9.2695312 15.974609 L 9.2695312 16.087891 C 9.2755456 16.087891 9.281106 16.089797 9.2871094 16.089844 C 9.2871564 16.095875 9.2890625 16.10138 9.2890625 16.107422 L 9.3964844 16.107422 L 9.3964844 16.214844 C 9.406511 16.214844 9.4157853 16.216667 9.4257812 16.216797 C 9.4259106 16.226788 9.4277344 16.236072 9.4277344 16.246094 L 9.5214844 16.246094 L 9.5214844 16.339844 C 9.5355609 16.339844 9.5484844 16.343495 9.5625 16.34375 C 9.5627525 16.357701 9.5664062 16.370754 9.5664062 16.384766 L 9.6445312 16.384766 L 9.6445312 16.462891 C 9.6625743 16.462891 9.6793231 16.468332 9.6972656 16.46875 C 9.6976838 16.486692 9.703125 16.503442 9.703125 16.521484 L 9.7695312 16.521484 L 9.7695312 16.587891 C 9.7916421 16.587891 9.8120252 16.593123 9.8339844 16.59375 C 9.8345741 16.615045 9.8398437 16.634813 9.8398438 16.65625 L 9.8925781 16.65625 L 9.8925781 16.710938 C 9.9180747 16.710938 9.9415029 16.717917 9.9667969 16.71875 C 9.9676224 16.743928 9.9746094 16.76759 9.9746094 16.792969 L 10.013672 16.792969 L 10.013672 16.832031 C 10.043083 16.832031 10.070469 16.84069 10.099609 16.841797 C 10.100717 16.870937 10.109375 16.898324 10.109375 16.927734 L 10.134766 16.927734 L 10.134766 16.953125 C 10.168802 16.953125 10.200704 16.96141 10.234375 16.962891 C 10.235811 16.996054 10.244141 17.02703 10.244141 17.060547 L 10.255859 17.060547 L 10.255859 17.074219 C 10.293267 17.074219 10.32827 17.084151 10.365234 17.085938 C 10.36699 17.12225 10.376922 17.158573 10.376953 17.195312 L 10.396484 17.195312 C 10.430594 17.195608 10.462358 17.203296 10.496094 17.205078 L 10.496094 17.3125 C 10.500143 17.3125 10.503768 17.314432 10.507812 17.314453 C 10.507841 17.319138 10.509766 17.323434 10.509766 17.328125 L 10.613281 17.328125 L 10.613281 17.431641 C 10.621939 17.431641 10.630037 17.433497 10.638672 17.433594 C 10.638769 17.442268 10.640625 17.450287 10.640625 17.458984 L 10.730469 17.458984 L 10.730469 17.548828 C 10.743158 17.548828 10.754938 17.552527 10.767578 17.552734 C 10.767787 17.565433 10.771484 17.577095 10.771484 17.589844 L 10.847656 17.589844 L 10.847656 17.666016 C 10.864378 17.666016 10.879849 17.671516 10.896484 17.671875 C 10.896844 17.688511 10.902344 17.703981 10.902344 17.720703 L 10.964844 17.720703 L 10.964844 17.783203 C 10.985626 17.783203 11.004742 17.788508 11.025391 17.789062 C 11.025945 17.80971 11.03125 17.828828 11.03125 17.849609 L 11.080078 17.849609 L 11.080078 17.898438 C 11.105564 17.898438 11.129013 17.905418 11.154297 17.90625 C 11.155083 17.930828 11.160156 17.953747 11.160156 17.978516 L 11.195312 17.978516 L 11.195312 18.013672 C 11.22413 18.013672 11.25074 18.020421 11.279297 18.021484 C 11.280404 18.050625 11.289062 18.07801 11.289062 18.107422 L 11.308594 18.107422 L 11.308594 18.126953 C 11.341969 18.126953 11.373225 18.135295 11.40625 18.136719 C 11.407674 18.169742 11.416016 18.201001 11.416016 18.234375 L 11.421875 18.234375 L 11.421875 18.240234 C 11.459283 18.240234 11.494285 18.250166 11.53125 18.251953 C 11.531856 18.264492 11.534754 18.276471 11.535156 18.289062 L 11.535156 18.353516 C 11.537813 18.353516 11.540315 18.353507 11.542969 18.353516 C 11.542978 18.356155 11.542969 18.358686 11.542969 18.361328 L 11.615234 18.361328 C 11.625897 18.361707 11.63586 18.364709 11.646484 18.365234 L 11.646484 18.464844 C 11.653191 18.464844 11.659323 18.466739 11.666016 18.466797 C 11.666074 18.473489 11.667969 18.479622 11.667969 18.486328 L 11.757812 18.486328 L 11.757812 18.576172 C 11.768569 18.576172 11.778342 18.579929 11.789062 18.580078 C 11.789211 18.590797 11.792969 18.600574 11.792969 18.611328 L 11.867188 18.611328 L 11.867188 18.685547 C 11.88252 18.685547 11.896849 18.689151 11.912109 18.689453 C 11.912441 18.705436 11.917969 18.720266 11.917969 18.736328 L 11.976562 18.736328 L 11.976562 18.794922 C 11.996588 18.794922 12.015255 18.800266 12.035156 18.800781 C 12.035676 18.820774 12.041016 18.839257 12.041016 18.859375 L 12.085938 18.859375 L 12.085938 18.904297 C 12.11076 18.904297 12.133572 18.911319 12.158203 18.912109 C 12.158948 18.936033 12.164062 18.958318 12.164062 18.982422 L 12.193359 18.982422 L 12.193359 19.011719 C 12.222703 19.011719 12.250223 19.018429 12.279297 19.019531 C 12.280399 19.048606 12.287109 19.076124 12.287109 19.105469 L 12.300781 19.105469 L 12.300781 19.119141 C 12.334157 19.119141 12.365413 19.127482 12.398438 19.128906 C 12.399862 19.161931 12.408203 19.193187 12.408203 19.226562 C 12.444457 19.226563 12.477833 19.236602 12.513672 19.238281 L 12.513672 19.332031 C 12.518386 19.332031 12.522637 19.333956 12.527344 19.333984 C 12.527372 19.338668 12.529297 19.342966 12.529297 19.347656 L 12.619141 19.347656 L 12.619141 19.4375 C 12.628503 19.4375 12.637149 19.43934 12.646484 19.439453 C 12.646597 19.448789 12.648438 19.457434 12.648438 19.466797 L 12.722656 19.466797 L 12.722656 19.541016 C 12.736667 19.541016 12.749721 19.544669 12.763672 19.544922 C 12.763927 19.558937 12.767578 19.571861 12.767578 19.585938 L 12.826172 19.585938 L 12.826172 19.644531 C 12.844876 19.644531 12.862264 19.649941 12.880859 19.650391 C 12.881309 19.668986 12.886719 19.686375 12.886719 19.705078 L 12.929688 19.705078 L 12.929688 19.748047 C 12.953127 19.748047 12.974779 19.753202 12.998047 19.753906 C 12.998751 19.777164 13.003906 19.798837 13.003906 19.822266 L 13.03125 19.822266 L 13.03125 19.849609 C 13.059272 19.849609 13.085505 19.856416 13.113281 19.857422 C 13.114287 19.885199 13.121094 19.911431 13.121094 19.939453 L 13.132812 19.939453 L 13.132812 19.951172 C 13.164867 19.951172 13.194831 19.959623 13.226562 19.960938 C 13.227613 19.986176 13.234155 20.009711 13.234375 20.035156 L 13.234375 20.050781 C 13.234375 20.050781 13.236328 20.050781 13.236328 20.050781 C 13.23633 20.052108 13.236328 20.05336 13.236328 20.054688 L 13.273438 20.054688 C 13.294197 20.055047 13.313364 20.061587 13.333984 20.0625 L 13.333984 20.152344 C 13.340026 20.152344 13.345531 20.15425 13.351562 20.154297 C 13.351609 20.1603 13.353516 20.165861 13.353516 20.171875 L 13.431641 20.171875 L 13.431641 20.25 C 13.442348 20.25 13.452219 20.253759 13.462891 20.253906 C 13.46304 20.264628 13.466797 20.274399 13.466797 20.285156 L 13.53125 20.285156 L 13.53125 20.349609 C 13.547319 20.349609 13.562136 20.353184 13.578125 20.353516 C 13.578454 20.36943 13.582031 20.384397 13.582031 20.400391 L 13.628906 20.400391 L 13.628906 20.447266 C 13.649689 20.447266 13.668804 20.452571 13.689453 20.453125 C 13.690002 20.473678 13.695312 20.492986 13.695312 20.513672 L 13.724609 20.513672 L 13.724609 20.542969 C 13.749988 20.542969 13.77365 20.549956 13.798828 20.550781 C 13.799661 20.576075 13.806641 20.599503 13.806641 20.625 L 13.822266 20.625 L 13.822266 20.640625 C 13.852411 20.640625 13.880296 20.647274 13.910156 20.648438 C 13.910857 20.666386 13.915734 20.683119 13.916016 20.701172 L 13.916016 20.734375 C 13.917337 20.734375 13.918601 20.734373 13.919922 20.734375 C 13.919922 20.734375 13.919922 20.736328 13.919922 20.736328 L 13.935547 20.736328 C 13.961532 20.736552 13.985948 20.743051 14.011719 20.744141 L 14.011719 20.830078 C 14.017095 20.830078 14.021976 20.831994 14.027344 20.832031 C 14.027381 20.837402 14.029297 20.842277 14.029297 20.847656 L 14.105469 20.847656 L 14.105469 20.923828 C 14.116176 20.923828 14.126047 20.927587 14.136719 20.927734 C 14.136866 20.938407 14.140625 20.948277 14.140625 20.958984 L 14.199219 20.958984 L 14.199219 21.017578 C 14.214623 21.017578 14.228809 21.021179 14.244141 21.021484 C 14.244472 21.037467 14.25 21.052297 14.25 21.068359 L 14.291016 21.068359 L 14.291016 21.109375 C 14.312363 21.109375 14.33231 21.11465 14.353516 21.115234 C 14.354069 21.135873 14.359375 21.155009 14.359375 21.175781 L 14.382812 21.175781 L 14.382812 21.201172 C 14.408852 21.201172 14.433156 21.208115 14.458984 21.208984 C 14.459853 21.234812 14.466797 21.259117 14.466797 21.285156 L 14.474609 21.285156 L 14.474609 21.292969 C 14.505484 21.292969 14.533878 21.301515 14.564453 21.302734 L 14.564453 21.382812 C 14.567774 21.382812 14.570902 21.382798 14.574219 21.382812 C 14.574233 21.386111 14.574219 21.389277 14.574219 21.392578 L 14.654297 21.392578 L 14.654297 21.472656 C 14.662331 21.472656 14.66972 21.474526 14.677734 21.474609 C 14.677818 21.482624 14.679688 21.490012 14.679688 21.498047 L 14.742188 21.498047 L 14.742188 21.560547 C 14.756198 21.560547 14.769252 21.564201 14.783203 21.564453 C 14.783434 21.577803 14.787109 21.59011 14.787109 21.603516 L 14.830078 21.603516 L 14.830078 21.648438 C 14.848782 21.648438 14.86617 21.653848 14.884766 21.654297 C 14.885219 21.672977 14.890625 21.690195 14.890625 21.708984 L 14.917969 21.708984 L 14.917969 21.736328 C 14.942137 21.736328 14.964295 21.743392 14.988281 21.744141 C 14.989023 21.768018 14.996094 21.790396 14.996094 21.814453 L 15.003906 21.814453 L 15.003906 21.822266 C 15.033318 21.822266 15.060703 21.830924 15.089844 21.832031 L 15.089844 21.908203 C 15.093148 21.908203 15.096309 21.908189 15.099609 21.908203 C 15.099623 21.911507 15.099609 21.914662 15.099609 21.917969 L 15.175781 21.917969 L 15.175781 21.992188 C 15.183812 21.992188 15.191208 21.994058 15.199219 21.994141 C 15.199316 22.002816 15.201172 22.010832 15.201172 22.019531 L 15.259766 22.019531 L 15.259766 22.078125 C 15.273842 22.078125 15.286766 22.081776 15.300781 22.082031 C 15.301034 22.095982 15.304688 22.109036 15.304688 22.123047 L 15.341797 22.123047 L 15.341797 22.160156 C 15.361822 22.160156 15.380489 22.165501 15.400391 22.166016 C 15.400905 22.185916 15.40625 22.204584 15.40625 22.224609 L 15.425781 22.224609 L 15.425781 22.244141 C 15.450614 22.244141 15.473406 22.251163 15.498047 22.251953 C 15.498837 22.276594 15.505859 22.299386 15.505859 22.324219 L 15.507812 22.324219 L 15.507812 22.326172 C 15.535298 22.326172 15.560641 22.333017 15.587891 22.333984 L 15.587891 22.40625 C 15.593244 22.40625 15.598171 22.408166 15.603516 22.408203 C 15.603553 22.41357 15.605469 22.418452 15.605469 22.423828 L 15.669922 22.423828 L 15.669922 22.488281 C 15.680678 22.488281 15.690451 22.492039 15.701172 22.492188 C 15.701319 22.502858 15.705078 22.512731 15.705078 22.523438 L 15.75 22.523438 L 15.75 22.568359 C 15.766733 22.568359 15.782182 22.571906 15.798828 22.572266 C 15.799188 22.588912 15.802734 22.604361 15.802734 22.621094 L 15.828125 22.621094 L 15.828125 22.646484 C 15.850793 22.646484 15.872022 22.651685 15.894531 22.652344 C 15.895197 22.674957 15.900391 22.695975 15.900391 22.71875 L 15.90625 22.71875 L 15.90625 22.724609 C 15.932949 22.724609 15.957899 22.731509 15.984375 22.732422 L 15.984375 22.802734 C 15.988425 22.802734 15.992049 22.804666 15.996094 22.804688 C 15.996115 22.808712 15.998047 22.812377 15.998047 22.816406 L 16.060547 22.816406 L 16.060547 22.878906 C 16.070593 22.878906 16.079828 22.882683 16.089844 22.882812 C 16.089975 22.892874 16.09375 22.902016 16.09375 22.912109 L 16.136719 22.912109 L 16.136719 22.955078 C 16.15344 22.955078 16.168912 22.960578 16.185547 22.960938 C 16.185878 22.976919 16.189453 22.991752 16.189453 23.007812 L 16.212891 23.007812 L 16.212891 23.03125 C 16.235666 23.03125 16.256683 23.036444 16.279297 23.037109 C 16.279956 23.059618 16.285156 23.080847 16.285156 23.103516 L 16.287109 23.103516 L 16.287109 23.105469 C 16.312486 23.105469 16.336153 23.112456 16.361328 23.113281 L 16.361328 23.179688 C 16.366706 23.179688 16.371584 23.181603 16.376953 23.181641 C 16.37699 23.186984 16.378906 23.191914 16.378906 23.197266 L 16.433594 23.197266 L 16.433594 23.251953 C 16.444962 23.251953 16.455468 23.255693 16.466797 23.255859 C 16.466965 23.267241 16.470703 23.277641 16.470703 23.289062 L 16.505859 23.289062 L 16.505859 23.324219 C 16.523902 23.324219 16.540651 23.32966 16.558594 23.330078 C 16.559012 23.348021 16.564453 23.364769 16.564453 23.382812 L 16.578125 23.382812 L 16.578125 23.396484 C 16.602182 23.396484 16.62456 23.403555 16.648438 23.404297 L 16.648438 23.466797 C 16.651081 23.466797 16.653609 23.466788 16.65625 23.466797 C 16.656259 23.469435 16.65625 23.471969 16.65625 23.474609 L 16.71875 23.474609 L 16.71875 23.537109 C 16.727407 23.537109 16.735506 23.538966 16.744141 23.539062 C 16.744238 23.547734 16.746094 23.555758 16.746094 23.564453 L 16.789062 23.564453 L 16.789062 23.607422 C 16.803803 23.607422 16.817357 23.611049 16.832031 23.611328 C 16.832311 23.625999 16.835937 23.639559 16.835938 23.654297 L 16.857422 23.654297 L 16.857422 23.675781 C 16.878769 23.675781 16.898716 23.681056 16.919922 23.681641 C 16.920512 23.702942 16.925781 23.722697 16.925781 23.744141 C 16.948556 23.744141 16.969574 23.749335 16.992188 23.75 L 16.992188 23.810547 C 16.999523 23.810547 17.006352 23.812431 17.013672 23.8125 C 17.013741 23.819817 17.015625 23.826651 17.015625 23.833984 L 17.058594 23.833984 L 17.058594 23.876953 C 17.072605 23.876953 17.085659 23.880607 17.099609 23.880859 C 17.099862 23.894808 17.103516 23.907866 17.103516 23.921875 L 17.125 23.921875 L 17.125 23.943359 C 17.145119 23.943359 17.1636 23.948699 17.183594 23.949219 C 17.184113 23.969211 17.189453 23.987695 17.189453 24.007812 C 17.211461 24.007812 17.232049 24.01305 17.253906 24.013672 L 17.253906 24.072266 C 17.261242 24.072266 17.268071 24.074149 17.275391 24.074219 C 17.27546 24.081535 17.277344 24.088371 17.277344 24.095703 L 17.318359 24.095703 L 17.318359 24.134766 C 17.33243 24.134766 17.345366 24.138417 17.359375 24.138672 C 17.359652 24.153277 17.363281 24.166969 17.363281 24.181641 L 17.380859 24.181641 L 17.380859 24.199219 C 17.401642 24.199219 17.420757 24.204524 17.441406 24.205078 L 17.441406 24.259766 C 17.443389 24.259766 17.445285 24.259761 17.447266 24.259766 C 17.447271 24.261757 17.447266 24.263632 17.447266 24.265625 L 17.498047 24.265625 C 17.500021 24.265674 17.501933 24.265571 17.503906 24.265625 L 17.503906 24.322266 C 17.512605 24.322266 17.520621 24.324121 17.529297 24.324219 C 17.529394 24.332895 17.53125 24.340911 17.53125 24.349609 L 17.564453 24.349609 L 17.564453 24.382812 C 17.580522 24.382813 17.595339 24.386387 17.611328 24.386719 C 17.611657 24.402635 17.615234 24.417599 17.615234 24.433594 L 17.623047 24.433594 L 17.623047 24.441406 C 17.643804 24.441406 17.66297 24.448666 17.683594 24.449219 L 17.683594 24.501953 C 17.687644 24.501953 17.691268 24.503885 17.695312 24.503906 C 17.695334 24.507948 17.697266 24.511578 17.697266 24.515625 L 17.740234 24.515625 L 17.740234 24.558594 C 17.752263 24.558594 17.763406 24.562314 17.775391 24.5625 C 17.775579 24.574539 17.779297 24.585573 17.779297 24.597656 L 17.798828 24.597656 L 17.798828 24.617188 C 17.818283 24.617188 17.836131 24.622561 17.855469 24.623047 L 17.855469 24.673828 C 17.857451 24.673828 17.859347 24.673823 17.861328 24.673828 C 17.861333 24.675817 17.861328 24.677697 17.861328 24.679688 L 17.912109 24.679688 L 17.912109 24.730469 C 17.921472 24.730469 17.930117 24.732309 17.939453 24.732422 C 17.939566 24.741757 17.941406 24.750404 17.941406 24.759766 L 17.966797 24.759766 L 17.966797 24.785156 C 17.984179 24.785156 18.000289 24.790627 18.017578 24.791016 C 18.017938 24.807662 18.021484 24.823111 18.021484 24.839844 C 18.040267 24.839844 18.057498 24.84525 18.076172 24.845703 L 18.076172 24.892578 C 18.084202 24.892578 18.091599 24.894448 18.099609 24.894531 C 18.099706 24.903164 18.101562 24.911266 18.101562 24.919922 L 18.128906 24.919922 L 18.128906 24.947266 C 18.144975 24.947266 18.159792 24.95084 18.175781 24.951172 C 18.17611 24.967087 18.179687 24.982053 18.179688 24.998047 L 18.181641 24.998047 C 18.199097 24.998047 18.21506 25.003515 18.232422 25.003906 L 18.232422 25.050781 C 18.240452 25.050781 18.247849 25.052651 18.255859 25.052734 C 18.255929 25.060083 18.257812 25.066854 18.257812 25.074219 L 18.283203 25.074219 L 18.283203 25.101562 C 18.299196 25.101562 18.314164 25.10514 18.330078 25.105469 C 18.330407 25.121384 18.333984 25.13635 18.333984 25.152344 C 18.350718 25.152344 18.366165 25.15589 18.382812 25.15625 L 18.382812 25.201172 C 18.391506 25.201172 18.399532 25.203028 18.408203 25.203125 C 18.4083 25.211757 18.410156 25.219861 18.410156 25.228516 L 18.431641 25.228516 L 18.431641 25.25 C 18.447709 25.25 18.462526 25.253574 18.478516 25.253906 L 18.478516 25.296875 C 18.480498 25.296875 18.482394 25.29687 18.484375 25.296875 C 18.48438 25.298861 18.484375 25.300747 18.484375 25.302734 L 18.527344 25.302734 L 18.527344 25.34375 C 18.537433 25.34375 18.546583 25.347525 18.556641 25.347656 C 18.556788 25.358329 18.560547 25.368198 18.560547 25.378906 L 18.572266 25.378906 L 18.572266 25.390625 C 18.588258 25.390625 18.603227 25.394202 18.619141 25.394531 L 18.619141 25.4375 C 18.623855 25.4375 18.628105 25.439424 18.632812 25.439453 C 18.632834 25.443498 18.634766 25.447122 18.634766 25.451172 L 18.664062 25.451172 L 18.664062 25.482422 C 18.677475 25.482422 18.689768 25.486097 18.703125 25.486328 C 18.703354 25.499623 18.707031 25.512041 18.707031 25.525391 C 18.722364 25.525391 18.736692 25.528995 18.751953 25.529297 L 18.751953 25.568359 C 18.759984 25.568359 18.76738 25.570229 18.775391 25.570312 C 18.775504 25.579675 18.779297 25.588266 18.779297 25.597656 L 18.792969 25.597656 L 18.792969 25.611328 C 18.807638 25.611328 18.821335 25.614958 18.835938 25.615234 L 18.835938 25.654297 C 18.840651 25.654297 18.844902 25.656221 18.849609 25.65625 C 18.849638 25.660938 18.851562 25.665228 18.851562 25.669922 L 18.876953 25.669922 L 18.876953 25.695312 C 18.891023 25.695312 18.903959 25.698964 18.917969 25.699219 L 18.917969 25.736328 C 18.919297 25.736328 18.920547 25.736326 18.921875 25.736328 C 18.921877 25.73765 18.921875 25.738912 18.921875 25.740234 L 18.957031 25.740234 L 18.957031 25.775391 C 18.967738 25.775391 18.977609 25.779149 18.988281 25.779297 C 18.988429 25.789971 18.992188 25.799838 18.992188 25.810547 L 18.996094 25.810547 L 18.996094 25.814453 C 19.0095 25.814453 19.021805 25.818128 19.035156 25.818359 L 19.035156 25.851562 C 19.043187 25.851562 19.050583 25.853433 19.058594 25.853516 C 19.058691 25.862189 19.060547 25.87021 19.060547 25.878906 L 19.072266 25.878906 L 19.072266 25.890625 C 19.085013 25.890625 19.096677 25.894322 19.109375 25.894531 L 19.109375 25.925781 C 19.116078 25.925781 19.122217 25.927676 19.128906 25.927734 C 19.128976 25.935053 19.130859 25.941884 19.130859 25.949219 L 19.144531 25.949219 L 19.144531 25.962891 C 19.156558 25.962891 19.167705 25.966611 19.179688 25.966797 L 19.179688 25.998047 C 19.185041 25.998047 19.189968 25.999963 19.195312 26 C 19.19535 26.005366 19.197266 26.01025 19.197266 26.015625 L 19.214844 26.015625 L 19.214844 26.033203 C 19.226202 26.033203 19.236728 26.03499 19.248047 26.035156 L 19.248047 26.066406 C 19.2534 26.066406 19.258327 26.068322 19.263672 26.068359 C 19.263709 26.073705 19.265625 26.07863 19.265625 26.083984 L 19.28125 26.083984 L 19.28125 26.099609 C 19.292603 26.099609 19.303139 26.101397 19.314453 26.101562 L 19.314453 26.130859 C 19.319829 26.130859 19.324711 26.132775 19.330078 26.132812 C 19.330125 26.138813 19.332031 26.144379 19.332031 26.150391 L 19.345703 26.150391 L 19.345703 26.164062 C 19.355732 26.164062 19.365002 26.165886 19.375 26.166016 L 19.375 26.193359 C 19.382336 26.193359 19.389165 26.195243 19.396484 26.195312 C 19.396542 26.202001 19.398437 26.208142 19.398438 26.214844 L 19.40625 26.214844 L 19.40625 26.224609 C 19.416345 26.224609 19.425483 26.228384 19.435547 26.228516 L 19.435547 26.253906 C 19.444245 26.253906 19.452262 26.255762 19.460938 26.255859 C 19.461034 26.264495 19.462891 26.272591 19.462891 26.28125 C 19.472936 26.28125 19.482173 26.285026 19.492188 26.285156 L 19.492188 26.310547 C 19.50162 26.310547 19.510126 26.314339 19.519531 26.314453 L 19.519531 26.337891 C 19.522188 26.337891 19.52469 26.337882 19.527344 26.337891 C 19.527353 26.340524 19.527344 26.343068 19.527344 26.345703 L 19.544922 26.345703 L 19.544922 26.363281 C 19.55358 26.363281 19.561677 26.365138 19.570312 26.365234 L 19.570312 26.388672 C 19.576327 26.388672 19.581887 26.390578 19.587891 26.390625 C 19.587938 26.396656 19.589844 26.402161 19.589844 26.408203 L 19.595703 26.408203 L 19.595703 26.414062 C 19.603732 26.414062 19.611132 26.415933 19.619141 26.416016 L 19.619141 26.4375 C 19.627212 26.4375 19.634526 26.441322 19.642578 26.441406 L 19.642578 26.460938 C 19.645882 26.460938 19.649043 26.460923 19.652344 26.460938 C 19.652358 26.464263 19.652344 26.467375 19.652344 26.470703 L 19.666016 26.470703 L 19.666016 26.484375 C 19.673386 26.484375 19.680147 26.486258 19.6875 26.486328 L 19.6875 26.505859 C 19.694833 26.505859 19.701667 26.507743 19.708984 26.507812 L 19.708984 26.527344 C 19.710975 26.527344 19.712854 26.527339 19.714844 26.527344 C 19.714849 26.529329 19.714844 26.531217 19.714844 26.533203 L 19.728516 26.533203 L 19.728516 26.546875 C 19.73519 26.546875 19.741386 26.548771 19.748047 26.548828 L 19.748047 26.566406 C 19.754718 26.566406 19.76092 26.568302 19.767578 26.568359 L 19.767578 26.585938 C 19.770221 26.585938 19.77275 26.585928 19.775391 26.585938 C 19.7754 26.588596 19.775391 26.591089 19.775391 26.59375 L 19.785156 26.59375 L 19.785156 26.603516 C 19.791168 26.603516 19.796734 26.605422 19.802734 26.605469 L 19.802734 26.621094 C 19.808747 26.621094 19.814311 26.623 19.820312 26.623047 L 19.820312 26.638672 C 19.825689 26.638672 19.83057 26.640588 19.835938 26.640625 C 19.835966 26.645278 19.835938 26.649637 19.835938 26.654297 C 19.841292 26.654297 19.846217 26.656213 19.851562 26.65625 L 19.851562 26.669922 C 19.856274 26.669922 19.86053 26.671846 19.865234 26.671875 L 19.865234 26.683594 C 19.869871 26.683594 19.874277 26.683566 19.878906 26.683594 L 19.878906 26.697266 C 19.883601 26.697266 19.88789 26.69919 19.892578 26.699219 L 19.892578 26.710938 C 19.8939 26.710938 19.895163 26.710935 19.896484 26.710938 C 19.896487 26.712252 19.896484 26.713529 19.896484 26.714844 L 19.904297 26.714844 L 19.904297 26.722656 C 19.908268 26.722656 19.91205 26.722636 19.916016 26.722656 L 19.916016 26.734375 C 19.92005 26.734375 19.923705 26.736307 19.927734 26.736328 L 19.927734 26.746094 C 19.93106 26.746094 19.934177 26.746079 19.9375 26.746094 L 19.9375 26.755859 C 19.940892 26.755859 19.943877 26.757798 19.947266 26.757812 L 19.947266 26.765625 C 19.949922 26.765625 19.952424 26.765616 19.955078 26.765625 C 19.955087 26.768265 19.955078 26.770795 19.955078 26.773438 C 19.957719 26.773438 19.960252 26.773428 19.962891 26.773438 L 19.962891 26.78125 C 19.965548 26.78125 19.968048 26.781241 19.970703 26.78125 L 19.970703 26.789062 C 19.972694 26.789063 19.974573 26.789057 19.976562 26.789062 L 19.976562 26.794922 C 19.978548 26.794922 19.980437 26.794917 19.982422 26.794922 L 19.982422 26.800781 C 19.983752 26.800781 19.984998 26.800779 19.986328 26.800781 L 19.986328 26.804688 C 19.987651 26.804688 19.988912 26.804685 19.990234 26.804688 L 19.990234 26.808594 C 19.991555 26.808594 19.992821 26.808591 19.994141 26.808594 L 19.994141 26.8125 C 19.994141 26.8125 19.996094 26.8125 19.996094 26.8125 L 19.996094 26.814453 C 19.996094 26.814453 19.998047 26.814453 19.998047 26.814453 L 19.998047 26.816406 C 19.998708 26.816406 19.999339 26.816406 20 26.816406 L 20 26.818359 C 20.002656 26.818359 20.005158 26.81835 20.007812 26.818359 C 20.007845 26.823403 20.013672 26.82698 20.013672 26.832031 L 20.066406 26.832031 C 20.066892 26.851361 20.072266 26.869225 20.072266 26.888672 L 20.123047 26.888672 C 20.123562 26.908573 20.128906 26.92724 20.128906 26.947266 L 20.177734 26.947266 C 20.178188 26.965947 20.183594 26.983163 20.183594 27.001953 L 20.234375 27.001953 C 20.234857 27.021202 20.240234 27.039229 20.240234 27.058594 L 20.289062 27.058594 C 20.289512 27.077189 20.294922 27.094577 20.294922 27.113281 L 20.341797 27.113281 C 20.342219 27.131306 20.347656 27.147889 20.347656 27.166016 L 20.394531 27.166016 C 20.394953 27.18404 20.400391 27.200624 20.400391 27.21875 L 20.447266 27.21875 C 20.447688 27.236775 20.453125 27.253358 20.453125 27.271484 L 20.5 27.271484 C 20.500418 27.289427 20.505859 27.306176 20.505859 27.324219 L 20.550781 27.324219 C 20.551169 27.341508 20.556641 27.357618 20.556641 27.375 L 20.601562 27.375 C 20.601922 27.391647 20.605469 27.407095 20.605469 27.423828 L 20.650391 27.423828 C 20.650753 27.440534 20.65625 27.455864 20.65625 27.472656 L 20.699219 27.472656 C 20.699579 27.489303 20.703125 27.504751 20.703125 27.521484 L 20.746094 27.521484 C 20.746453 27.53812 20.751953 27.553591 20.751953 27.570312 L 20.794922 27.570312 C 20.795253 27.586294 20.798828 27.601127 20.798828 27.617188 L 20.841797 27.617188 C 20.842126 27.633102 20.845703 27.648069 20.845703 27.664062 L 20.886719 27.664062 C 20.887024 27.679394 20.890625 27.69358 20.890625 27.708984 L 20.931641 27.708984 C 20.931946 27.724316 20.935547 27.738502 20.935547 27.753906 L 20.976562 27.753906 C 20.976865 27.769166 20.980469 27.783496 20.980469 27.798828 L 21.019531 27.798828 C 21.019811 27.813502 21.023438 27.827056 21.023438 27.841797 L 21.0625 27.841797 C 21.062777 27.856402 21.066406 27.870094 21.066406 27.884766 L 21.103516 27.884766 C 21.10377 27.898781 21.107422 27.911705 21.107422 27.925781 L 21.146484 27.925781 C 21.146761 27.940387 21.150391 27.954078 21.150391 27.96875 L 21.185547 27.96875 C 21.185778 27.982107 21.189453 27.9944 21.189453 28.007812 L 21.226562 28.007812 C 21.226815 28.021763 21.230469 28.034817 21.230469 28.048828 L 21.265625 28.048828 C 21.265854 28.062124 21.269531 28.07454 21.269531 28.087891 L 21.302734 28.087891 C 21.302943 28.100589 21.306641 28.112252 21.306641 28.125 L 21.339844 28.125 C 21.340053 28.137698 21.34375 28.149361 21.34375 28.162109 L 21.376953 28.162109 C 21.377162 28.174808 21.380859 28.18647 21.380859 28.199219 L 21.414062 28.199219 C 21.41427 28.211859 21.417969 28.223639 21.417969 28.236328 L 21.449219 28.236328 C 21.449405 28.248312 21.453125 28.259456 21.453125 28.271484 L 21.482422 28.271484 C 21.48259 28.282865 21.486328 28.293267 21.486328 28.304688 L 21.517578 28.304688 C 21.517764 28.316672 21.521484 28.327815 21.521484 28.339844 L 21.550781 28.339844 C 21.550948 28.351172 21.554688 28.361679 21.554688 28.373047 L 21.582031 28.373047 C 21.58218 28.383764 21.585938 28.393544 21.585938 28.404297 L 21.613281 28.404297 C 21.61343 28.415018 21.617188 28.424791 21.617188 28.435547 L 21.644531 28.435547 C 21.644679 28.446219 21.648438 28.45609 21.648438 28.466797 L 21.675781 28.466797 C 21.675911 28.476793 21.677734 28.486067 21.677734 28.496094 L 21.705078 28.496094 C 21.705208 28.50609 21.707031 28.515364 21.707031 28.525391 L 21.732422 28.525391 C 21.732553 28.535449 21.736328 28.544598 21.736328 28.554688 L 21.761719 28.554688 C 21.761832 28.564023 21.763672 28.572669 21.763672 28.582031 L 21.789062 28.582031 C 21.789175 28.591367 21.791016 28.600012 21.791016 28.609375 L 21.816406 28.609375 C 21.816518 28.618667 21.818359 28.627401 21.818359 28.636719 L 21.841797 28.636719 C 21.841893 28.645353 21.84375 28.653452 21.84375 28.662109 L 21.867188 28.662109 C 21.867284 28.670744 21.869141 28.678843 21.869141 28.6875 L 21.890625 28.6875 C 21.890707 28.695477 21.892578 28.702941 21.892578 28.710938 L 21.914062 28.710938 C 21.914145 28.718915 21.916016 28.726378 21.916016 28.734375 L 21.9375 28.734375 C 21.93757 28.741725 21.939453 28.748493 21.939453 28.755859 L 21.958984 28.755859 C 21.959067 28.763837 21.960938 28.7713 21.960938 28.779297 L 21.980469 28.779297 C 21.980538 28.786616 21.982422 28.793445 21.982422 28.800781 L 22 28.800781 C 22.000057 28.807443 22.001953 28.813637 22.001953 28.820312 L 22.019531 28.820312 C 22.019589 28.827002 22.021484 28.83314 22.021484 28.839844 L 22.039062 28.839844 C 22.03912 28.846505 22.041016 28.8527 22.041016 28.859375 L 22.056641 28.859375 C 22.056688 28.865404 22.058594 28.870913 22.058594 28.876953 L 22.074219 28.876953 C 22.074265 28.882956 22.076172 28.888517 22.076172 28.894531 L 22.091797 28.894531 C 22.091844 28.900535 22.09375 28.906095 22.09375 28.912109 L 22.107422 28.912109 C 22.107459 28.917454 22.109375 28.922381 22.109375 28.927734 L 22.123047 28.927734 C 22.123084 28.933079 22.125 28.938006 22.125 28.943359 L 22.136719 28.943359 C 22.136747 28.948046 22.138672 28.952338 22.138672 28.957031 L 22.150391 28.957031 C 22.150419 28.961717 22.152344 28.96601 22.152344 28.970703 L 22.164062 28.970703 C 22.164091 28.975389 22.166016 28.979682 22.166016 28.984375 L 22.175781 28.984375 C 22.175802 28.988402 22.177734 28.992062 22.177734 28.996094 L 22.1875 28.996094 C 22.187521 29.000121 22.189453 29.00378 22.189453 29.007812 L 22.199219 29.007812 C 22.199233 29.01113 22.199219 29.014258 22.199219 29.017578 L 22.208984 29.017578 C 22.208999 29.020895 22.208984 29.024023 22.208984 29.027344 L 22.21875 29.027344 C 22.218764 29.030661 22.21875 29.033789 22.21875 29.037109 L 22.226562 29.037109 C 22.226577 29.040477 22.228516 29.043504 22.228516 29.046875 L 22.236328 29.046875 C 22.236337 29.049516 22.236328 29.052044 22.236328 29.054688 L 22.242188 29.054688 C 22.242193 29.056679 22.242188 29.058555 22.242188 29.060547 L 22.248047 29.060547 C 22.248052 29.062538 22.248047 29.064414 22.248047 29.066406 L 22.253906 29.066406 C 22.253911 29.068397 22.253906 29.070273 22.253906 29.072266 L 22.259766 29.072266 C 22.259771 29.074247 22.259766 29.076143 22.259766 29.078125 L 22.263672 29.078125 C 22.263674 29.079446 22.263672 29.08071 22.263672 29.082031 L 22.267578 29.082031 C 22.26758 29.083352 22.267578 29.084616 22.267578 29.085938 L 22.269531 29.085938 C 22.269531 29.085938 22.269531 29.087891 22.269531 29.087891 L 22.271484 29.087891 C 22.271485 29.088555 22.271484 29.08918 22.271484 29.089844 L 23.179688 29.089844 L 23.181641 29.089844 C 23.181641 28.693672 23.101048 28.318588 22.96875 27.96875 L 23.003906 27.96875 C 23.004035 27.982105 23.007812 27.994427 23.007812 28.007812 L 23.044922 28.007812 C 23.045062 28.021791 23.048828 28.034816 23.048828 28.048828 L 23.083984 28.048828 C 23.084112 28.062149 23.087891 28.07454 23.087891 28.087891 L 23.121094 28.087891 C 23.12121 28.100586 23.125 28.112277 23.125 28.125 L 23.158203 28.125 C 23.158319 28.137695 23.162109 28.149387 23.162109 28.162109 L 23.195312 28.162109 C 23.195428 28.174805 23.199219 28.186496 23.199219 28.199219 L 23.232422 28.199219 C 23.232537 28.211882 23.236328 28.223638 23.236328 28.236328 L 23.267578 28.236328 C 23.267682 28.248361 23.271484 28.259427 23.271484 28.271484 L 23.300781 28.271484 C 23.300874 28.28286 23.304688 28.29329 23.304688 28.304688 L 23.335938 28.304688 C 23.336041 28.316692 23.339844 28.327815 23.339844 28.339844 L 23.369141 28.339844 C 23.369233 28.35119 23.373047 28.361678 23.373047 28.373047 L 23.400391 28.373047 C 23.400473 28.38376 23.404297 28.393564 23.404297 28.404297 L 23.431641 28.404297 C 23.431723 28.415012 23.435547 28.424812 23.435547 28.435547 L 23.462891 28.435547 C 23.462973 28.44626 23.466797 28.456064 23.466797 28.466797 L 23.494141 28.466797 C 23.494212 28.476786 23.496094 28.486088 23.496094 28.496094 L 23.523438 28.496094 C 23.523509 28.506083 23.525391 28.515385 23.525391 28.525391 L 23.550781 28.525391 C 23.550854 28.535444 23.554688 28.544617 23.554688 28.554688 L 23.580078 28.554688 C 23.580141 28.564016 23.582031 28.572688 23.582031 28.582031 L 23.607422 28.582031 C 23.607484 28.59136 23.609375 28.600032 23.609375 28.609375 L 23.634766 28.609375 C 23.634828 28.618701 23.636719 28.627378 23.636719 28.636719 L 23.660156 28.636719 C 23.66021 28.645384 23.662109 28.653431 23.662109 28.662109 L 23.685547 28.662109 C 23.685601 28.670755 23.6875 28.678842 23.6875 28.6875 L 23.708984 28.6875 C 23.70903 28.695505 23.710938 28.702922 23.710938 28.710938 L 23.732422 28.710938 C 23.732468 28.718942 23.734375 28.726359 23.734375 28.734375 L 23.753906 28.734375 C 23.753945 28.741721 23.755859 28.748504 23.755859 28.755859 L 23.777344 28.755859 C 23.77739 28.763864 23.779297 28.771281 23.779297 28.779297 L 23.798828 28.779297 C 23.798867 28.786624 23.800781 28.793445 23.800781 28.800781 L 23.818359 28.800781 C 23.818391 28.807465 23.820312 28.813621 23.820312 28.820312 L 23.837891 28.820312 C 23.837923 28.826996 23.839844 28.833153 23.839844 28.839844 L 23.857422 28.839844 C 23.857454 28.846527 23.859375 28.852684 23.859375 28.859375 L 23.875 28.859375 C 23.875026 28.865398 23.876953 28.870924 23.876953 28.876953 L 23.892578 28.876953 C 23.892604 28.882976 23.894531 28.888503 23.894531 28.894531 L 23.910156 28.894531 C 23.910182 28.90054 23.912109 28.906095 23.912109 28.912109 L 23.925781 28.912109 C 23.925802 28.917471 23.927734 28.922368 23.927734 28.927734 L 23.939453 28.927734 C 23.939474 28.933084 23.941406 28.938005 23.941406 28.943359 L 23.955078 28.943359 C 23.955094 28.94806 23.957031 28.952327 23.957031 28.957031 L 23.96875 28.957031 C 23.968766 28.961732 23.970703 28.965999 23.970703 28.970703 L 23.982422 28.970703 C 23.982438 28.975392 23.984375 28.979682 23.984375 28.984375 L 23.994141 28.984375 C 23.994152 28.988414 23.996094 28.992052 23.996094 28.996094 L 24.005859 28.996094 C 24.005871 29.000133 24.007812 29.003771 24.007812 29.007812 L 24.017578 29.007812 C 24.017586 29.011124 24.017578 29.014265 24.017578 29.017578 L 24.027344 29.017578 C 24.027352 29.02089 24.027344 29.02403 24.027344 29.027344 L 24.037109 29.027344 C 24.037117 29.030655 24.037109 29.033796 24.037109 29.037109 L 24.044922 29.037109 C 24.04493 29.040479 24.046875 29.043504 24.046875 29.046875 L 24.054688 29.046875 C 24.054693 29.049517 24.054688 29.052044 24.054688 29.054688 L 24.060547 29.054688 C 24.06055 29.056675 24.060547 29.058559 24.060547 29.060547 L 24.066406 29.060547 C 24.066409 29.062534 24.066406 29.064418 24.066406 29.066406 L 24.072266 29.066406 C 24.072268 29.068394 24.072266 29.070278 24.072266 29.072266 L 24.078125 29.072266 C 24.078128 29.074252 24.078125 29.076138 24.078125 29.078125 L 24.082031 29.078125 C 24.082033 29.079449 24.082031 29.080707 24.082031 29.082031 L 24.083984 29.082031 C 24.083986 29.083353 24.083984 29.084615 24.083984 29.085938 L 24.087891 29.085938 C 24.087891 29.085938 24.087891 29.087891 24.087891 29.087891 L 24.089844 29.087891 C 24.089844 29.088553 24.089844 29.089181 24.089844 29.089844 L 24.998047 29.089844 L 25 29.089844 C 25 28.732241 24.95998 28.385071 24.888672 28.048828 L 24.904297 28.048828 L 24.904297 28.087891 L 24.943359 28.087891 L 24.943359 28.125 L 24.980469 28.125 L 24.980469 28.162109 L 25.017578 28.162109 L 25.017578 28.199219 L 25.052734 28.199219 L 25.052734 28.236328 L 25.089844 28.236328 L 25.089844 28.271484 L 25.123047 28.271484 L 25.123047 28.304688 L 25.158203 28.304688 L 25.158203 28.339844 L 25.189453 28.339844 L 25.189453 28.373047 L 25.222656 28.373047 L 25.222656 28.404297 L 25.253906 28.404297 L 25.253906 28.435547 L 25.285156 28.435547 L 25.285156 28.466797 L 25.314453 28.466797 L 25.314453 28.496094 L 25.34375 28.496094 L 25.34375 28.525391 L 25.373047 28.525391 L 25.373047 28.554688 L 25.400391 28.554688 L 25.400391 28.582031 L 25.427734 28.582031 L 25.427734 28.609375 L 25.455078 28.609375 L 25.455078 28.636719 L 25.480469 28.636719 L 25.480469 28.662109 L 25.503906 28.662109 L 25.503906 28.6875 L 25.529297 28.6875 L 25.529297 28.710938 L 25.552734 28.710938 L 25.552734 28.734375 L 25.574219 28.734375 L 25.574219 28.755859 L 25.597656 28.755859 L 25.597656 28.779297 L 25.617188 28.779297 L 25.617188 28.800781 L 25.638672 28.800781 L 25.638672 28.820312 L 25.658203 28.820312 L 25.658203 28.839844 L 25.677734 28.839844 L 25.677734 28.859375 L 25.695312 28.859375 L 25.695312 28.876953 L 25.712891 28.876953 L 25.712891 28.894531 L 25.728516 28.894531 L 25.728516 28.912109 L 25.746094 28.912109 L 25.746094 28.927734 L 25.759766 28.927734 L 25.759766 28.943359 L 25.775391 28.943359 L 25.775391 28.957031 L 25.789062 28.957031 L 25.789062 28.970703 L 25.802734 28.970703 L 25.802734 28.984375 L 25.814453 28.984375 L 25.814453 28.996094 L 25.826172 28.996094 L 25.826172 29.007812 L 25.835938 29.007812 L 25.835938 29.017578 L 25.845703 29.017578 L 25.845703 29.027344 L 25.855469 29.027344 L 25.855469 29.037109 L 25.863281 29.037109 L 25.863281 29.046875 L 25.871094 29.046875 L 25.871094 29.054688 L 25.878906 29.054688 L 25.878906 29.060547 L 25.884766 29.060547 L 25.884766 29.066406 L 25.890625 29.066406 L 25.890625 29.072266 L 25.896484 29.072266 L 25.896484 29.078125 L 25.900391 29.078125 L 25.900391 29.082031 L 25.902344 29.082031 L 25.902344 29.085938 L 25.90625 29.085938 L 25.90625 29.087891 L 25.908203 29.087891 L 25.908203 29.089844 L 29.089844 29.089844 C 29.33095 29.089844 29.561935 28.994706 29.732422 28.824219 C 29.732812 28.823829 29.732033 28.822656 29.732422 28.822266 C 29.817276 28.737412 29.884445 28.637973 29.929688 28.529297 C 29.929932 28.528707 29.929444 28.527934 29.929688 28.527344 C 29.97447 28.418582 30 28.301543 30 28.181641 L 30 21.818359 C 30 21.71713 29.971772 21.623922 29.941406 21.533203 C 29.933759 21.510358 29.937103 21.482921 29.927734 21.460938 C 29.927734 21.460938 29.925781 21.458984 29.925781 21.458984 C 29.879977 21.350957 29.813922 21.255533 29.732422 21.173828 C 29.732037 21.173445 29.730854 21.174211 29.730469 21.173828 C 29.730469 21.173828 29.730469 21.171875 29.730469 21.171875 C 29.730469 21.171875 29.728516 21.169922 29.728516 21.169922 C 29.728516 21.169922 29.726562 21.167969 29.726562 21.167969 C 29.726562 21.167969 29.724609 21.167969 29.724609 21.167969 C 29.724609 21.167969 29.724609 21.166016 29.724609 21.166016 C 29.723587 21.164997 29.721731 21.165077 29.720703 21.164062 C 29.719691 21.163032 29.717814 21.159229 29.716797 21.158203 C 29.716797 21.158203 29.714844 21.15625 29.714844 21.15625 C 29.713817 21.155227 29.711969 21.155315 29.710938 21.154297 C 29.708898 21.152245 29.707137 21.15047 29.705078 21.148438 C 29.702786 21.146131 29.701536 21.142907 29.699219 21.140625 C 29.696669 21.138054 29.693986 21.135353 29.691406 21.132812 C 29.688857 21.130242 29.686173 21.12754 29.683594 21.125 C 29.680667 21.122049 29.676794 21.120098 29.673828 21.117188 C 29.670522 21.113842 29.667419 21.110716 29.664062 21.107422 C 29.659738 21.103046 29.654802 21.099991 29.650391 21.095703 C 29.648351 21.093651 29.64659 21.091876 29.644531 21.089844 C 29.639604 21.08481 29.635901 21.079137 29.630859 21.074219 C 29.62655 21.069831 29.621585 21.0668 29.617188 21.0625 C 29.61288 21.058125 29.609863 21.053115 29.605469 21.048828 C 29.600533 21.043803 29.594894 21.040066 29.589844 21.035156 C 29.58453 21.029728 29.579665 21.024825 29.574219 21.019531 C 29.568905 21.014103 29.56404 21.0092 29.558594 21.003906 C 29.55328 20.998478 29.548415 20.993575 29.542969 20.988281 C 29.537409 20.982601 29.533049 20.976236 29.527344 20.970703 C 29.520528 20.963723 29.512895 20.95793 29.505859 20.951172 C 29.501291 20.94652 29.496854 20.942052 29.492188 20.9375 C 29.485029 20.930099 29.478107 20.92317 29.470703 20.916016 C 29.463777 20.908898 29.456372 20.903372 29.449219 20.896484 C 29.441917 20.888954 29.43529 20.882274 29.427734 20.875 C 29.420433 20.867469 29.413806 20.86079 29.40625 20.853516 C 29.398948 20.845985 29.392321 20.839306 29.384766 20.832031 C 29.377223 20.824252 29.371095 20.816099 29.363281 20.808594 C 29.355119 20.800155 29.346371 20.793273 29.337891 20.785156 C 29.329732 20.776691 29.322931 20.767909 29.314453 20.759766 C 29.30602 20.751045 29.297835 20.742752 29.289062 20.734375 C 29.280285 20.725246 29.270867 20.71774 29.261719 20.708984 C 29.252944 20.69988 29.245472 20.690372 29.236328 20.681641 C 29.227299 20.67225 29.218406 20.663292 29.208984 20.654297 C 29.199594 20.64453 29.189502 20.636291 29.179688 20.626953 C 29.169925 20.616764 29.160612 20.607381 29.150391 20.597656 C 29.140629 20.587467 29.131316 20.578084 29.121094 20.568359 C 29.110974 20.557797 29.100458 20.549126 29.089844 20.539062 C 29.079727 20.528466 29.07116 20.517909 29.060547 20.507812 C 29.049583 20.496301 29.038891 20.485532 29.027344 20.474609 C 29.016363 20.46308 29.005707 20.452345 28.994141 20.441406 C 28.98316 20.429877 28.972504 20.419141 28.960938 20.408203 C 28.949582 20.396281 28.937762 20.38629 28.925781 20.375 C 28.914076 20.362666 28.902998 20.351504 28.890625 20.339844 C 28.878919 20.32751 28.867842 20.316348 28.855469 20.304688 C 28.843531 20.292109 28.832944 20.279455 28.820312 20.267578 C 28.808121 20.254702 28.796121 20.242613 28.783203 20.230469 C 28.770659 20.217219 28.757453 20.205833 28.744141 20.193359 C 28.731229 20.179673 28.718807 20.167158 28.705078 20.154297 C 28.692166 20.140611 28.679745 20.128095 28.666016 20.115234 C 28.653104 20.101548 28.640682 20.089033 28.626953 20.076172 C 28.613463 20.061788 28.600327 20.048635 28.585938 20.035156 C 28.572447 20.020772 28.559311 20.00762 28.544922 19.994141 C 28.530834 19.979118 28.517021 19.965206 28.501953 19.951172 C 28.487865 19.93615 28.474052 19.922237 28.458984 19.908203 C 28.444496 19.89275 28.429586 19.879642 28.414062 19.865234 C 28.39924 19.849373 28.385052 19.835076 28.369141 19.820312 C 28.354689 19.804848 28.341659 19.789812 28.326172 19.775391 C 28.310861 19.758962 28.295772 19.743769 28.279297 19.728516 C 28.264019 19.712128 28.248858 19.696858 28.232422 19.681641 C 28.216776 19.664859 28.200454 19.65032 28.183594 19.634766 C 28.167585 19.617533 28.152051 19.601881 28.134766 19.585938 C 28.118757 19.568705 28.103223 19.553053 28.085938 19.537109 C 28.069929 19.519877 28.054395 19.504225 28.037109 19.488281 C 28.020538 19.470336 28.004278 19.454057 27.986328 19.4375 C 27.969757 19.419555 27.953497 19.403275 27.935547 19.386719 C 27.918387 19.368137 27.901449 19.351076 27.882812 19.333984 C 27.865626 19.315374 27.848746 19.298366 27.830078 19.28125 C 27.812552 19.262271 27.794456 19.245939 27.775391 19.228516 C 27.757504 19.209077 27.740201 19.191641 27.720703 19.173828 C 27.702816 19.15439 27.685513 19.136953 27.666016 19.119141 C 27.648129 19.099702 27.630826 19.082266 27.611328 19.064453 C 27.592888 19.044294 27.574853 19.026235 27.554688 19.007812 C 27.536248 18.987653 27.518212 18.969595 27.498047 18.951172 C 27.479025 18.930376 27.460308 18.911523 27.439453 18.892578 C 27.420431 18.871783 27.401715 18.85293 27.380859 18.833984 C 27.361227 18.812521 27.341895 18.792927 27.320312 18.773438 C 27.301261 18.752609 27.28261 18.733816 27.261719 18.714844 C 27.24212 18.693289 27.222732 18.673877 27.201172 18.654297 C 27.180994 18.632106 27.160926 18.611893 27.138672 18.591797 C 27.118463 18.569571 27.098463 18.54942 27.076172 18.529297 C 27.055631 18.506706 27.03441 18.487214 27.011719 18.466797 C 26.990822 18.443733 26.970398 18.423152 26.947266 18.402344 C 26.926369 18.37928 26.905945 18.358699 26.882812 18.337891 C 26.86228 18.315229 26.843005 18.293923 26.820312 18.273438 C 26.797975 18.248711 26.774896 18.227214 26.75 18.205078 C 26.72978 18.182831 26.709806 18.162721 26.6875 18.142578 C 26.664928 18.117365 26.642406 18.094815 26.617188 18.072266 C 26.595147 18.047793 26.573372 18.025853 26.548828 18.003906 C 26.526787 17.979433 26.505013 17.957493 26.480469 17.935547 C 26.458218 17.910842 26.43691 17.887364 26.412109 17.865234 C 26.389284 17.839829 26.365359 17.817609 26.339844 17.794922 C 26.317271 17.769709 26.29475 17.747158 26.269531 17.724609 C 26.24639 17.698761 26.223185 17.675389 26.197266 17.652344 C 26.173764 17.626093 26.149411 17.603436 26.123047 17.580078 C 26.099556 17.553745 26.077148 17.529294 26.050781 17.505859 C 26.027079 17.479225 26.003202 17.455318 25.976562 17.431641 C 25.95286 17.405007 25.928983 17.381099 25.902344 17.357422 C 25.878026 17.330081 25.853579 17.305473 25.826172 17.28125 C 25.801496 17.253506 25.775902 17.22961 25.748047 17.205078 C 25.72247 17.176234 25.696971 17.150379 25.667969 17.125 C 25.64442 17.098683 25.620175 17.076146 25.59375 17.052734 C 25.567953 17.023363 25.543001 16.996523 25.513672 16.970703 C 25.488493 16.942309 25.464047 16.915664 25.435547 16.890625 C 25.410363 16.862156 25.383988 16.837606 25.355469 16.8125 C 25.329418 16.782946 25.303069 16.756409 25.273438 16.730469 C 25.247347 16.700869 25.221089 16.674412 25.191406 16.648438 C 25.165315 16.618838 25.139058 16.592381 25.109375 16.566406 C 25.082968 16.536448 25.055475 16.510618 25.025391 16.484375 C 24.998995 16.454323 24.973448 16.42672 24.943359 16.400391 C 24.916203 16.369398 24.888495 16.341493 24.857422 16.314453 C 24.830464 16.283686 24.802305 16.257342 24.771484 16.230469 C 24.744225 16.199246 24.716774 16.171759 24.685547 16.144531 C 24.657691 16.112626 24.62965 16.08437 24.597656 16.056641 C 24.569801 16.024735 24.541759 15.996479 24.509766 15.96875 C 24.48191 15.936844 24.453869 15.908589 24.421875 15.880859 C 24.393823 15.848729 24.366231 15.818909 24.333984 15.791016 C 24.305927 15.758801 24.27641 15.731093 24.244141 15.703125 C 24.215236 15.669819 24.185734 15.640107 24.152344 15.611328 C 24.123394 15.57797 24.093996 15.548348 24.060547 15.519531 C 24.031597 15.486173 24.002199 15.456551 23.96875 15.427734 C 23.939801 15.394376 23.910402 15.364754 23.876953 15.335938 C 23.847511 15.301807 23.817337 15.271594 23.783203 15.242188 C 23.753761 15.208057 23.723587 15.177844 23.689453 15.148438 C 23.659464 15.113674 23.628601 15.082592 23.59375 15.052734 C 23.563761 15.017971 23.532897 14.986889 23.498047 14.957031 C 23.467705 14.921859 23.435705 14.891475 23.400391 14.861328 C 23.36971 14.825635 23.338523 14.794209 23.302734 14.763672 C 23.272054 14.727979 23.240867 14.696553 23.205078 14.666016 C 23.174208 14.630102 23.143462 14.597098 23.107422 14.566406 C 23.076546 14.530399 23.043879 14.499524 23.007812 14.46875 C 22.976109 14.431644 22.943446 14.39875 22.90625 14.367188 C 22.874498 14.330024 22.84195 14.297228 22.804688 14.265625 C 22.772935 14.228461 22.740387 14.195665 22.703125 14.164062 C 22.671373 14.126899 22.638825 14.094103 22.601562 14.0625 C 22.569333 14.02455 22.535999 13.991172 22.498047 13.958984 C 22.465818 13.921035 22.432483 13.887657 22.394531 13.855469 C 22.36195 13.817105 22.327487 13.784425 22.289062 13.751953 C 22.2562 13.713118 22.222431 13.679304 22.183594 13.646484 C 22.149794 13.606542 22.114326 13.57263 22.074219 13.539062 C 22.04217 13.501388 22.010351 13.467533 21.972656 13.435547 C 21.938495 13.394899 21.903949 13.358314 21.863281 13.324219 C 21.829994 13.284787 21.795293 13.25004 21.755859 13.216797 C 21.721627 13.176212 21.685259 13.141445 21.644531 13.107422 C 21.610616 13.0671 21.575479 13.031917 21.535156 12.998047 C 21.500657 12.957031 21.464949 12.921051 21.423828 12.886719 C 21.389329 12.845703 21.353621 12.809723 21.3125 12.775391 C 21.278001 12.734375 21.242293 12.698395 21.201172 12.664062 C 21.166212 12.622247 21.129706 12.585694 21.087891 12.550781 C 21.052931 12.508966 21.016425 12.472412 20.974609 12.4375 C 20.939301 12.395268 20.901671 12.359405 20.859375 12.324219 C 20.823795 12.281507 20.786852 12.244516 20.744141 12.208984 C 20.70856 12.166273 20.671617 12.129281 20.628906 12.09375 C 20.592802 12.05041 20.555157 12.012502 20.511719 11.976562 C 20.475036 11.932527 20.436823 11.893808 20.392578 11.857422 C 20.35726 11.815142 20.319662 11.779366 20.277344 11.744141 C 20.24029 11.699229 20.20308 11.658133 20.158203 11.621094 C 20.121339 11.576733 20.081636 11.538571 20.037109 11.501953 C 20.000498 11.457738 19.962183 11.419372 19.917969 11.382812 C 19.879915 11.336855 19.839211 11.297428 19.792969 11.259766 C 19.7568 11.216309 19.71932 11.1786 19.675781 11.142578 C 19.637885 11.096365 19.598876 11.0555 19.552734 11.017578 C 19.515101 10.971852 19.475412 10.932111 19.429688 10.894531 C 19.391537 10.848176 19.351144 10.807505 19.304688 10.769531 C 19.266709 10.723385 19.2259 10.684328 19.179688 10.646484 C 19.141447 10.599851 19.101318 10.55967 19.054688 10.521484 C 19.015864 10.474096 18.975207 10.433195 18.927734 10.394531 C 18.889322 10.347689 18.849609 10.305894 18.802734 10.267578 C 18.763504 10.219574 18.721916 10.177742 18.673828 10.138672 C 18.634837 10.091007 18.592654 10.050569 18.544922 10.011719 C 18.505672 9.9635639 18.464167 9.922004 18.416016 9.8828125 C 18.376255 9.8340305 18.334042 9.7915271 18.285156 9.7519531 C 18.245396 9.7031712 18.203182 9.6606677 18.154297 9.6210938 C 18.114195 9.571893 18.070862 9.5300618 18.021484 9.4902344 C 17.981406 9.4408841 17.94002 9.3973817 17.890625 9.3574219 C 17.850375 9.3077385 17.807491 9.2647987 17.757812 9.2246094 C 17.717563 9.174926 17.674678 9.1319862 17.625 9.0917969 C 17.584242 9.0414864 17.54065 8.9975963 17.490234 8.9570312 C 17.449137 8.906301 17.404426 8.8630802 17.353516 8.8222656 C 17.312443 8.7713822 17.269678 8.7264967 17.21875 8.6855469 C 17.177509 8.6343284 17.133244 8.5900066 17.082031 8.5488281 C 17.04079 8.4976096 16.996525 8.4532878 16.945312 8.4121094 C 16.903566 8.3602638 16.858592 8.3149849 16.806641 8.2734375 C 16.764894 8.2215919 16.71992 8.1763131 16.667969 8.1347656 C 16.625884 8.0824992 16.579793 8.0378869 16.527344 7.9960938 C 16.485012 7.9433289 16.43959 7.8975984 16.386719 7.8554688 C 16.344049 7.8022824 16.297511 7.7572167 16.244141 7.7148438 C 16.201497 7.6614967 16.156907 7.6147794 16.103516 7.5722656 C 16.060617 7.5187945 16.014646 7.472224 15.960938 7.4296875 C 15.918129 7.3760022 15.872036 7.3298504 15.818359 7.2871094 C 15.775052 7.2327988 15.728246 7.1856764 15.673828 7.1425781 C 15.630681 7.0884677 15.583478 7.0429843 15.529297 7 C 15.485412 6.9447638 15.438157 6.8971879 15.382812 6.8535156 C 15.338928 6.7982795 15.291672 6.7507035 15.236328 6.7070312 C 15.192216 6.6515092 15.145528 6.6024264 15.089844 6.5585938 C 15.045165 6.5022186 14.996035 6.4544992 14.939453 6.4101562 C 14.772553 6.2006206 14.527676 6.0585938 14.240234 6.0585938 L 6.0585938 6.0585938 z M 6.1875 9.3515625 L 6.3125 9.3515625 L 6.3125 9.390625 C 6.2696198 9.3803527 6.2308002 9.3607216 6.1875 9.3515625 z M 6.4121094 11.322266 C 6.42673 11.322624 6.4404959 11.325661 6.4550781 11.326172 L 6.4550781 11.345703 C 6.4401295 11.338939 6.4271801 11.328804 6.4121094 11.322266 z M 5.1484375 12.876953 L 5.1484375 14.240234 L 5.296875 14.240234 L 5.296875 14.388672 L 5.4453125 14.388672 L 5.4453125 14.535156 L 5.5917969 14.535156 L 5.5917969 14.681641 L 5.7363281 14.681641 L 5.7363281 14.828125 L 5.8828125 14.828125 L 5.8828125 14.972656 L 6.0273438 14.972656 L 6.0273438 15.117188 L 6.1699219 15.117188 L 6.1699219 15.261719 L 6.3125 15.261719 L 6.3125 15.404297 L 6.4550781 15.404297 L 6.4550781 15.546875 L 6.5976562 15.546875 L 6.5976562 15.6875 L 6.7382812 15.6875 L 6.7382812 15.828125 L 6.8769531 15.828125 L 6.8769531 15.96875 L 7.0175781 15.96875 L 7.0175781 16.107422 L 7.1542969 16.107422 L 7.1542969 16.246094 L 7.2929688 16.246094 L 7.2929688 16.384766 L 7.4296875 16.384766 L 7.4296875 16.521484 L 7.5664062 16.521484 L 7.5664062 16.65625 L 7.7011719 16.65625 L 7.7011719 16.792969 L 7.8359375 16.792969 L 7.8359375 16.927734 L 7.9707031 16.927734 L 7.9707031 17.060547 L 8.1035156 17.060547 L 8.1035156 17.195312 L 8.2363281 17.195312 L 8.2363281 17.328125 L 8.3691406 17.328125 L 8.3691406 17.458984 L 8.5 17.458984 L 8.5 17.589844 L 8.6289062 17.589844 L 8.6289062 17.720703 L 8.7597656 17.720703 L 8.7597656 17.849609 L 8.8886719 17.849609 L 8.8886719 17.978516 L 9.015625 17.978516 L 9.015625 18.107422 L 9.1425781 18.107422 L 9.1425781 18.234375 L 9.2695312 18.234375 L 9.2695312 18.361328 L 9.3964844 18.361328 L 9.3964844 18.486328 L 9.5214844 18.486328 L 9.5214844 18.611328 L 9.6445312 18.611328 L 9.6445312 18.736328 L 9.7695312 18.736328 L 9.7695312 18.859375 L 9.8925781 18.859375 L 9.8925781 18.982422 L 10.013672 18.982422 L 10.013672 19.105469 L 10.134766 19.105469 L 10.134766 19.226562 L 10.255859 19.226562 L 10.255859 19.347656 L 10.376953 19.347656 L 10.376953 19.466797 L 10.496094 19.466797 L 10.496094 19.585938 L 10.613281 19.585938 L 10.613281 19.705078 L 10.730469 19.705078 L 10.730469 19.822266 L 10.847656 19.822266 L 10.847656 19.939453 L 10.964844 19.939453 L 10.964844 20.054688 L 11.080078 20.054688 L 11.080078 20.171875 L 11.195312 20.171875 L 11.195312 20.285156 L 11.308594 20.285156 L 11.308594 20.400391 L 11.421875 20.400391 L 11.421875 20.513672 L 11.535156 20.513672 L 11.535156 20.625 L 11.646484 20.625 L 11.646484 20.736328 L 11.757812 20.736328 L 11.757812 20.847656 L 11.867188 20.847656 L 11.867188 20.958984 L 11.976562 20.958984 L 11.976562 21.068359 L 12.085938 21.068359 L 12.085938 21.175781 L 12.193359 21.175781 L 12.193359 21.285156 L 12.300781 21.285156 L 12.300781 21.392578 L 12.408203 21.392578 L 12.408203 21.498047 L 12.513672 21.498047 L 12.513672 21.603516 L 12.619141 21.603516 L 12.619141 21.708984 L 12.722656 21.708984 L 12.722656 21.814453 L 12.826172 21.814453 L 12.826172 21.917969 L 12.929688 21.917969 L 12.929688 22.019531 L 13.03125 22.019531 L 13.03125 22.123047 L 13.132812 22.123047 L 13.132812 22.224609 L 13.234375 22.224609 L 13.234375 22.324219 L 13.333984 22.324219 L 13.333984 22.423828 L 13.431641 22.423828 L 13.431641 22.523438 L 13.53125 22.523438 L 13.53125 22.621094 L 13.628906 22.621094 L 13.628906 22.71875 L 13.724609 22.71875 L 13.724609 22.816406 L 13.822266 22.816406 L 13.822266 22.912109 L 13.916016 22.912109 L 13.916016 23.007812 L 14.011719 23.007812 L 14.011719 23.103516 L 14.105469 23.103516 L 14.105469 23.197266 L 14.199219 23.197266 L 14.199219 23.289062 L 14.291016 23.289062 L 14.291016 23.382812 L 14.382812 23.382812 L 14.382812 23.474609 L 14.474609 23.474609 L 14.474609 23.564453 L 14.564453 23.564453 L 14.564453 23.654297 L 14.654297 23.654297 L 14.654297 23.744141 L 14.742188 23.744141 L 14.742188 23.833984 L 14.830078 23.833984 L 14.830078 23.921875 L 14.917969 23.921875 L 14.917969 24.007812 L 15.003906 24.007812 L 15.003906 24.095703 L 15.089844 24.095703 L 15.089844 24.181641 L 15.175781 24.181641 L 15.175781 24.265625 L 15.259766 24.265625 L 15.259766 24.349609 L 15.341797 24.349609 L 15.341797 24.433594 L 15.425781 24.433594 L 15.425781 24.515625 L 15.507812 24.515625 L 15.507812 24.597656 L 15.587891 24.597656 L 15.587891 24.679688 L 15.669922 24.679688 L 15.669922 24.759766 L 15.75 24.759766 L 15.75 24.839844 L 15.828125 24.839844 L 15.828125 24.919922 L 15.90625 24.919922 L 15.90625 24.998047 L 15.984375 24.998047 L 15.984375 25.074219 L 16.060547 25.074219 L 16.060547 25.152344 L 16.136719 25.152344 L 16.136719 25.228516 L 16.212891 25.228516 L 16.212891 25.302734 L 16.287109 25.302734 L 16.287109 25.378906 L 16.361328 25.378906 L 16.361328 25.451172 L 16.433594 25.451172 L 16.433594 25.525391 L 16.505859 25.525391 L 16.505859 25.597656 L 16.578125 25.597656 L 16.578125 25.669922 L 16.648438 25.669922 L 16.648438 25.740234 L 16.71875 25.740234 L 16.71875 25.810547 L 16.789062 25.810547 L 16.789062 25.878906 L 16.857422 25.878906 L 16.857422 25.949219 L 16.925781 25.949219 L 16.925781 26.015625 L 16.992188 26.015625 L 16.992188 26.083984 L 17.058594 26.083984 L 17.058594 26.150391 L 17.125 26.150391 L 17.125 26.214844 L 17.189453 26.214844 L 17.189453 26.28125 L 17.253906 26.28125 L 17.253906 26.345703 L 17.318359 26.345703 L 17.318359 26.408203 L 17.380859 26.408203 L 17.380859 26.470703 L 17.441406 26.470703 L 17.441406 26.533203 L 17.503906 26.533203 L 17.503906 26.59375 L 17.564453 26.59375 L 17.564453 26.654297 L 17.623047 26.654297 L 17.623047 26.714844 L 17.683594 26.714844 L 17.683594 26.773438 L 17.740234 26.773438 L 17.740234 26.832031 L 17.798828 26.832031 L 17.798828 26.888672 L 17.855469 26.888672 L 17.855469 26.947266 L 17.912109 26.947266 L 17.912109 27.001953 L 17.966797 27.001953 L 17.966797 27.058594 L 18.021484 27.058594 L 18.021484 27.113281 L 18.076172 27.113281 L 18.076172 27.166016 L 18.128906 27.166016 L 18.128906 27.21875 L 18.181641 27.21875 L 18.181641 27.271484 L 18.232422 27.271484 L 18.232422 27.324219 L 18.283203 27.324219 L 18.283203 27.375 L 18.333984 27.375 L 18.333984 27.423828 L 18.382812 27.423828 L 18.382812 27.472656 L 18.431641 27.472656 L 18.431641 27.521484 L 18.478516 27.521484 L 18.478516 27.570312 L 18.527344 27.570312 L 18.527344 27.617188 L 18.572266 27.617188 L 18.572266 27.664062 L 18.619141 27.664062 L 18.619141 27.708984 L 18.664062 27.708984 L 18.664062 27.753906 L 18.707031 27.753906 L 18.707031 27.798828 L 18.751953 27.798828 L 18.751953 27.841797 L 18.792969 27.841797 L 18.792969 27.884766 L 18.835938 27.884766 L 18.835938 27.925781 L 18.876953 27.925781 L 18.876953 27.96875 L 18.917969 27.96875 L 18.917969 28.007812 L 18.957031 28.007812 L 18.957031 28.048828 L 18.996094 28.048828 L 18.996094 28.087891 L 19.035156 28.087891 L 19.035156 28.125 L 19.072266 28.125 L 19.072266 28.162109 L 19.109375 28.162109 L 19.109375 28.199219 L 19.144531 28.199219 L 19.144531 28.236328 L 19.179688 28.236328 L 19.179688 28.271484 L 19.214844 28.271484 L 19.214844 28.304688 L 19.248047 28.304688 L 19.248047 28.339844 L 19.28125 28.339844 L 19.28125 28.373047 L 19.314453 28.373047 L 19.314453 28.404297 L 19.345703 28.404297 L 19.345703 28.435547 L 19.375 28.435547 L 19.375 28.466797 L 19.40625 28.466797 L 19.40625 28.496094 L 19.435547 28.496094 L 19.435547 28.525391 L 19.462891 28.525391 L 19.462891 28.554688 L 19.492188 28.554688 L 19.492188 28.582031 L 19.519531 28.582031 L 19.519531 28.609375 L 19.544922 28.609375 L 19.544922 28.636719 L 19.570312 28.636719 L 19.570312 28.662109 L 19.595703 28.662109 L 19.595703 28.6875 L 19.619141 28.6875 L 19.619141 28.710938 L 19.642578 28.710938 L 19.642578 28.734375 L 19.666016 28.734375 L 19.666016 28.755859 L 19.6875 28.755859 L 19.6875 28.779297 L 19.708984 28.779297 L 19.708984 28.800781 L 19.728516 28.800781 L 19.728516 28.820312 L 19.748047 28.820312 L 19.748047 28.839844 L 19.767578 28.839844 L 19.767578 28.859375 L 19.785156 28.859375 L 19.785156 28.876953 L 19.802734 28.876953 L 19.802734 28.894531 L 19.820312 28.894531 L 19.820312 28.912109 L 19.835938 28.912109 L 19.835938 28.927734 L 19.851562 28.927734 L 19.851562 28.943359 L 19.865234 28.943359 L 19.865234 28.957031 L 19.878906 28.957031 L 19.878906 28.970703 L 19.892578 28.970703 L 19.892578 28.984375 L 19.904297 28.984375 L 19.904297 28.996094 L 19.916016 28.996094 L 19.916016 29.007812 L 19.927734 29.007812 L 19.927734 29.017578 L 19.9375 29.017578 L 19.9375 29.027344 L 19.947266 29.027344 L 19.947266 29.037109 L 19.955078 29.037109 L 19.955078 29.046875 L 19.962891 29.046875 L 19.962891 29.054688 L 19.970703 29.054688 L 19.970703 29.060547 L 19.976562 29.060547 L 19.976562 29.066406 L 19.982422 29.066406 L 19.982422 29.072266 L 19.986328 29.072266 L 19.986328 29.078125 L 19.990234 29.078125 L 19.990234 29.082031 L 19.994141 29.082031 L 19.994141 29.085938 L 19.996094 29.085938 L 19.996094 29.087891 L 19.998047 29.087891 L 19.998047 29.089844 L 20 29.089844 L 21.361328 29.089844 L 21.363281 29.089844 C 21.363281 28.930408 21.331534 28.780886 21.28125 28.638672 C 21.27196 28.612397 21.266687 28.584102 21.255859 28.558594 C 21.255859 28.558594 21.253906 28.556641 21.253906 28.556641 C 21.220095 28.476701 21.178623 28.399414 21.130859 28.328125 C 21.130345 28.327363 21.129422 28.326932 21.128906 28.326172 C 21.128906 28.326172 21.126953 28.324219 21.126953 28.324219 C 21.126953 28.324219 21.125 28.322266 21.125 28.322266 C 21.123967 28.320736 21.122133 28.319884 21.121094 28.318359 C 21.097609 28.284197 21.069389 28.254474 21.042969 28.222656 C 21.016361 28.190713 20.992265 28.156328 20.962891 28.126953 C 20.962533 28.126595 20.961295 28.125358 20.960938 28.125 C 20.960938 28.125 20.960938 28.123047 20.960938 28.123047 C 20.960938 28.123047 20.958984 28.123047 20.958984 28.123047 C 20.958984 28.123047 20.958984 28.121094 20.958984 28.121094 C 20.958984 28.121094 20.957031 28.119141 20.957031 28.119141 C 20.957031 28.119141 20.955078 28.117188 20.955078 28.117188 C 20.955078 28.117188 20.953125 28.115234 20.953125 28.115234 C 20.953125 28.115234 20.951172 28.113281 20.951172 28.113281 C 20.950152 28.112262 20.946335 28.110391 20.945312 28.109375 C 20.945312 28.109375 20.943359 28.107422 20.943359 28.107422 C 20.942408 28.106484 20.94236 28.10445 20.941406 28.103516 C 20.938832 28.100941 20.936189 28.098257 20.933594 28.095703 C 20.931643 28.093752 20.929697 28.091783 20.927734 28.089844 C 20.925149 28.087259 20.922528 28.084596 20.919922 28.082031 C 20.918274 28.080383 20.915719 28.079765 20.914062 28.078125 C 20.909842 28.073862 20.906619 28.068661 20.902344 28.064453 C 20.898773 28.060883 20.894235 28.058218 20.890625 28.054688 C 20.885128 28.049067 20.880592 28.042635 20.875 28.037109 C 20.871134 28.033197 20.867194 28.029257 20.863281 28.025391 C 20.859061 28.02112 20.853885 28.017887 20.849609 28.013672 C 20.84504 28.009037 20.840572 28.004569 20.835938 28 C 20.831368 27.995365 20.8269 27.990897 20.822266 27.986328 C 20.817408 27.981401 20.813525 27.975556 20.808594 27.970703 C 20.803433 27.965459 20.798213 27.960239 20.792969 27.955078 C 20.787471 27.949492 20.780983 27.944945 20.775391 27.939453 C 20.769546 27.933501 20.763765 27.927719 20.757812 27.921875 C 20.751968 27.915923 20.746187 27.910141 20.740234 27.904297 C 20.733729 27.897671 20.727342 27.891258 20.720703 27.884766 C 20.714214 27.878157 20.707793 27.87171 20.701172 27.865234 C 20.695036 27.858986 20.689848 27.851833 20.683594 27.845703 C 20.676824 27.838796 20.669024 27.832935 20.662109 27.826172 C 20.654995 27.818897 20.6479 27.811802 20.640625 27.804688 C 20.633159 27.797053 20.62483 27.790661 20.617188 27.783203 C 20.609087 27.774903 20.602059 27.765905 20.59375 27.757812 C 20.586283 27.750178 20.577956 27.743787 20.570312 27.736328 C 20.562216 27.72803 20.555179 27.719027 20.546875 27.710938 C 20.538471 27.702309 20.530113 27.693951 20.521484 27.685547 C 20.513105 27.676944 20.504696 27.668536 20.496094 27.660156 C 20.485484 27.649222 20.473859 27.639481 20.462891 27.628906 C 20.456766 27.622669 20.451555 27.615494 20.445312 27.609375 C 20.434733 27.598384 20.423049 27.588757 20.412109 27.578125 C 20.402773 27.568518 20.394379 27.558157 20.384766 27.548828 C 20.374802 27.538557 20.363796 27.529486 20.353516 27.519531 C 20.341907 27.50754 20.330398 27.495934 20.318359 27.484375 C 20.310617 27.476459 20.302853 27.468664 20.294922 27.460938 C 20.283369 27.448908 20.271749 27.437381 20.259766 27.425781 C 20.249437 27.415111 20.239185 27.404861 20.228516 27.394531 C 20.215667 27.381204 20.20283 27.368265 20.189453 27.355469 C 20.181088 27.346881 20.17265 27.338443 20.164062 27.330078 C 20.15126 27.316691 20.138334 27.303873 20.125 27.291016 C 20.11342 27.279004 20.101854 27.26744 20.089844 27.255859 C 20.075771 27.24121 20.061584 27.226901 20.046875 27.212891 C 20.037871 27.203647 20.028793 27.194533 20.019531 27.185547 C 20.005844 27.171181 19.992813 27.156337 19.978516 27.142578 C 19.966025 27.129598 19.952445 27.117947 19.939453 27.105469 C 19.925013 27.09043 19.909642 27.076865 19.894531 27.0625 C 19.884224 27.051853 19.873928 27.041557 19.863281 27.03125 C 19.84891 27.016128 19.835358 27.000779 19.820312 26.986328 C 19.806279 26.971654 19.792015 26.957396 19.777344 26.943359 C 19.763276 26.928653 19.749083 26.914457 19.734375 26.900391 C 19.720307 26.885684 19.706115 26.871488 19.691406 26.857422 C 19.675679 26.840977 19.659104 26.82619 19.642578 26.810547 C 19.629403 26.796883 19.615293 26.78459 19.601562 26.771484 C 19.588169 26.757452 19.576476 26.741967 19.5625 26.728516 C 19.545955 26.711005 19.529162 26.694349 19.511719 26.677734 C 19.496415 26.661672 19.480908 26.646161 19.464844 26.630859 C 19.44954 26.614797 19.434033 26.599286 19.417969 26.583984 C 19.402359 26.567596 19.385542 26.552706 19.369141 26.537109 C 19.351904 26.518973 19.334609 26.501542 19.316406 26.484375 C 19.30271 26.470056 19.289694 26.455118 19.275391 26.441406 C 19.25795 26.422873 19.239147 26.406206 19.220703 26.388672 C 19.203499 26.370496 19.186142 26.353145 19.167969 26.335938 C 19.149497 26.316429 19.130914 26.297688 19.111328 26.279297 C 19.096653 26.263955 19.081777 26.249019 19.066406 26.234375 C 19.04802 26.214801 19.029269 26.196196 19.009766 26.177734 C 18.992561 26.159559 18.975204 26.142207 18.957031 26.125 C 18.937633 26.104424 18.917117 26.085744 18.896484 26.066406 C 18.880882 26.049994 18.866005 26.033198 18.849609 26.017578 C 18.830005 25.996615 18.809942 25.976723 18.789062 25.957031 C 18.770291 25.937121 18.750397 25.919143 18.730469 25.900391 C 18.711716 25.880462 18.693739 25.860568 18.673828 25.841797 C 18.654225 25.820934 18.634151 25.800846 18.613281 25.78125 C 18.592959 25.759701 18.572457 25.738939 18.550781 25.71875 C 18.532672 25.699666 18.513317 25.682075 18.494141 25.664062 C 18.475501 25.644218 18.457286 25.624169 18.4375 25.605469 C 18.415093 25.581423 18.391263 25.559485 18.367188 25.537109 C 18.349729 25.51867 18.332908 25.499864 18.314453 25.482422 C 18.292773 25.45907 18.269346 25.437801 18.246094 25.416016 C 18.225786 25.39434 18.205265 25.373827 18.183594 25.353516 C 18.162361 25.330761 18.141871 25.308367 18.119141 25.287109 C 18.098287 25.264811 18.076981 25.243514 18.054688 25.222656 C 18.032848 25.199209 18.009755 25.178111 17.986328 25.15625 C 17.964751 25.133127 17.943045 25.111421 17.919922 25.089844 C 17.898177 25.066541 17.876831 25.043217 17.853516 25.021484 C 17.831737 24.998103 17.808513 24.976882 17.785156 24.955078 C 17.762212 24.93039 17.739543 24.905744 17.714844 24.882812 C 17.692153 24.858462 17.668932 24.835137 17.644531 24.8125 C 17.622124 24.788454 17.598294 24.766516 17.574219 24.744141 C 17.551221 24.719395 17.528668 24.694856 17.503906 24.671875 C 17.4803 24.64644 17.455154 24.623183 17.429688 24.599609 C 17.406681 24.574865 17.384145 24.550323 17.359375 24.527344 C 17.335831 24.501965 17.310552 24.478604 17.285156 24.455078 C 17.261583 24.429611 17.238326 24.404466 17.212891 24.380859 C 17.188494 24.354455 17.163113 24.329095 17.136719 24.304688 C 17.112194 24.278144 17.08709 24.25304 17.060547 24.228516 C 17.036022 24.201973 17.010918 24.176868 16.984375 24.152344 C 16.959922 24.125878 16.934663 24.100631 16.908203 24.076172 C 16.882767 24.048531 16.855742 24.023508 16.828125 23.998047 C 16.803019 23.970814 16.777227 23.945035 16.75 23.919922 C 16.723134 23.890689 16.695315 23.862732 16.666016 23.835938 C 16.642171 23.810244 16.617539 23.785512 16.591797 23.761719 C 16.565277 23.732735 16.538673 23.704336 16.509766 23.677734 C 16.483845 23.649567 16.455919 23.623559 16.427734 23.597656 C 16.400888 23.568418 16.37303 23.540474 16.34375 23.513672 C 16.315865 23.483318 16.286364 23.455457 16.255859 23.427734 C 16.231081 23.400976 16.206519 23.37431 16.179688 23.349609 C 16.151931 23.319151 16.12218 23.291509 16.091797 23.263672 C 16.064855 23.234265 16.037212 23.206636 16.007812 23.179688 C 15.979077 23.148196 15.94951 23.118524 15.917969 23.089844 C 15.89234 23.061943 15.865739 23.03545 15.837891 23.009766 C 15.808998 22.977845 15.77981 22.947032 15.748047 22.917969 C 15.718445 22.885468 15.686882 22.855683 15.654297 22.826172 C 15.628048 22.797597 15.600841 22.770389 15.572266 22.744141 C 15.542491 22.711245 15.511335 22.680247 15.478516 22.650391 C 15.449617 22.618624 15.420421 22.587511 15.388672 22.558594 C 15.360024 22.527141 15.330273 22.497406 15.298828 22.46875 C 15.268058 22.434831 15.235179 22.403722 15.201172 22.373047 C 15.173744 22.343067 15.145214 22.314538 15.115234 22.287109 C 15.08484 22.253394 15.053115 22.221944 15.019531 22.191406 C 14.989074 22.157757 14.957469 22.12617 14.923828 22.095703 C 14.893361 22.062062 14.861775 22.030457 14.828125 22 C 14.797105 21.965764 14.764784 21.933278 14.730469 21.902344 C 14.699313 21.86808 14.667274 21.835629 14.632812 21.804688 C 14.602976 21.771944 14.571926 21.740643 14.539062 21.710938 C 14.508742 21.677394 14.476841 21.645621 14.443359 21.615234 C 14.40996 21.578058 14.375146 21.54308 14.337891 21.509766 C 14.308335 21.47733 14.276668 21.447425 14.244141 21.417969 C 14.211674 21.38175 14.178705 21.34702 14.142578 21.314453 C 14.11096 21.279379 14.078033 21.246472 14.042969 21.214844 C 14.010806 21.179021 13.977154 21.145526 13.941406 21.113281 C 13.908709 21.076864 13.87429 21.042483 13.837891 21.009766 C 13.805022 20.973157 13.770983 20.939118 13.734375 20.90625 C 13.700277 20.868273 13.665069 20.832774 13.626953 20.798828 C 13.596019 20.764605 13.56352 20.732106 13.529297 20.701172 C 13.494229 20.661796 13.457332 20.624925 13.417969 20.589844 C 13.386155 20.554506 13.351714 20.52208 13.316406 20.490234 C 13.281556 20.451016 13.24614 20.413877 13.207031 20.378906 C 13.173009 20.340859 13.137656 20.305506 13.099609 20.271484 C 13.065686 20.233548 13.030113 20.197998 12.992188 20.164062 C 12.957294 20.124883 12.920007 20.089616 12.880859 20.054688 C 12.844983 20.014478 12.807934 19.977122 12.767578 19.941406 C 12.734857 19.904981 12.700488 19.870612 12.664062 19.837891 C 12.626716 19.795693 12.587171 19.756039 12.544922 19.71875 C 12.511922 19.682015 12.478172 19.646248 12.441406 19.613281 C 12.40555 19.572692 12.366569 19.536067 12.326172 19.5 C 12.289343 19.458386 12.250585 19.419656 12.208984 19.382812 C 12.17458 19.344203 12.138149 19.307919 12.099609 19.273438 C 12.062859 19.231744 12.023952 19.19318 11.982422 19.15625 C 11.945076 19.114052 11.90553 19.074399 11.863281 19.037109 C 11.826351 18.995579 11.787787 18.956672 11.746094 18.919922 C 11.709775 18.879079 11.671788 18.840911 11.630859 18.804688 C 11.593924 18.762954 11.555406 18.724435 11.513672 18.6875 C 11.475774 18.644561 11.435542 18.604277 11.392578 18.566406 C 11.355459 18.524494 11.31735 18.484333 11.275391 18.447266 C 11.236999 18.403807 11.195923 18.364429 11.152344 18.326172 C 11.11489 18.283882 11.075582 18.244386 11.033203 18.207031 C 10.993917 18.162462 10.952933 18.121139 10.908203 18.082031 C 10.870835 18.039926 10.831319 18.000092 10.789062 17.962891 C 10.750926 17.919572 10.709299 17.879972 10.666016 17.841797 C 10.625693 17.795798 10.583206 17.753104 10.537109 17.712891 C 10.499125 17.669997 10.459064 17.629611 10.416016 17.591797 C 10.377926 17.548436 10.338163 17.506972 10.294922 17.46875 C 10.25409 17.421859 10.21087 17.378815 10.164062 17.337891 C 10.12463 17.293006 10.082053 17.252258 10.037109 17.212891 C 9.9960844 17.166054 9.9532533 17.122869 9.90625 17.082031 C 9.8671383 17.037686 9.8257539 16.995967 9.78125 16.957031 C 9.7414366 16.911524 9.69976 16.867988 9.6542969 16.828125 C 9.6132358 16.781008 9.5685798 16.73835 9.5214844 16.697266 C 9.4801283 16.649927 9.4361244 16.605682 9.3886719 16.564453 C 9.3483496 16.518454 9.3058621 16.47576 9.2597656 16.435547 C 9.2189511 16.388761 9.1756756 16.34552 9.1289062 16.304688 C 9.0871917 16.256676 9.044059 16.211689 8.9960938 16.169922 C 8.9544477 16.122095 8.9091843 16.078722 8.8613281 16.037109 C 8.8187806 15.988178 8.7736445 15.942821 8.7246094 15.900391 C 8.6831717 15.852928 8.6393603 15.808903 8.5917969 15.767578 C 8.5498724 15.719324 8.5052678 15.674756 8.4570312 15.632812 C 8.4142081 15.583324 8.3697533 15.537018 8.3203125 15.494141 C 8.2775597 15.444843 8.230968 15.400141 8.1816406 15.357422 C 8.1385913 15.307713 8.0926953 15.261779 8.0429688 15.21875 C 8.000004 15.169173 7.9539067 15.123006 7.9042969 15.080078 C 7.8599397 15.028816 7.8131615 14.981653 7.7617188 14.9375 C 7.7201358 14.889777 7.6747218 14.846219 7.6269531 14.804688 C 7.5824563 14.752813 7.5360949 14.702875 7.484375 14.658203 C 7.439792 14.606586 7.3916022 14.560049 7.3398438 14.515625 C 7.2961921 14.465221 7.2497303 14.418531 7.1992188 14.375 C 7.1549636 14.323648 7.1079929 14.276677 7.0566406 14.232422 C 7.0108845 14.179197 6.9615586 14.129593 6.9082031 14.083984 C 6.8649132 14.034101 6.8175972 13.98845 6.7675781 13.945312 C 6.7220645 13.892213 6.6741623 13.842423 6.6210938 13.796875 C 6.5753376 13.74365 6.5260117 13.694046 6.4726562 13.648438 C 6.427906 13.596556 6.3801177 13.548531 6.328125 13.503906 C 6.2831723 13.451532 6.233954 13.404397 6.1816406 13.359375 C 5.931524 13.066119 5.5640782 12.876954 5.1484375 12.876953 z M 22.955078 27.925781 L 22.962891 27.925781 C 22.963024 27.938441 22.966779 27.950203 22.966797 27.962891 C 22.962213 27.95084 22.959804 27.937762 22.955078 27.925781 z "
       id="path5162"
       style="display:inline;fill-opacity:1;fill:url(#linearGradient6010)"
       clip-path="url(#clipPath6016)" />
    <path
       d="m 3.9999777,4.0333382 12.0000003,0 0,11.9333328 -12.0000003,0 z"
       id="path4"
       inkscape:connector-curvature="0"
       style="fill:none" />
    <path
       style="fill:none"
       inkscape:connector-curvature="0"
       id="path9754"
       d="m 18.999978,19.033339 12,0 0,11.933333 -12,0 z" />
    <rect
       style="opacity:0.963;fill:#37474f;fill-opacity:0;stroke:none;stroke-width:1.25;stroke-linecap:round;stroke-linejoin:round;stroke-miterlimit:4;stroke-dasharray:none;stroke-opacity:1"
       id="rect5842"
       width="9.2176418"
       height="6.8816643"
       x="7.0710678"
       y="8.1307077" />
    <rect
       style="opacity:0.96300001;fill:#37474f;fill-opacity:0;stroke:none;stroke-width:1.25;stroke-linecap:round;stroke-linejoin:round;stroke-miterlimit:4;stroke-dasharray:none;stroke-opacity:1"
       id="rect5844"
       width="11.743023"
       height="8.207489"
       x="4.4194174"
       y="8.0675735" />
    <path
       id="path4205"
       d="m 14.090887,5.9090957 -8.1818183,0 c -0.504546,0 -0.909091,0.4045455 -0.909091,0.9090909 l 0,1.3636364 0.909091,0 0,-1.3636364 8.1818183,0 0,6.3636364 -3.181818,0 0,0.909091 3.181818,0 a 0.90909091,0.90909091 0 0 0 0.909091,-0.909091 l 0,-6.3636364 c 0,-0.5045454 -0.409091,-0.9090909 -0.909091,-0.9090909 m -9.0909093,3.1818182 0,0.9090911 a 4.0909091,4.0909091 0 0 1 4.090909,4.090909 l 0.909091,0 c 0,-2.763636 -2.240909,-5.0000001 -5,-5.0000001 m 8.1818183,-1.3636364 -6.3636363,0 0,0.7409091 c 1.8,0.5818182 3.2227273,2.0045454 3.8045453,3.8045454 l 2.559091,0 m -8.1818183,-1.363636 0,0.909091 a 2.2727273,2.2727273 0 0 1 2.272727,2.272727 l 0.909091,0 a 3.1818182,3.1818182 0 0 0 -3.181818,-3.181818 m 0,1.818182 0,1.363636 1.363636,0 a 1.3636364,1.3636364 0 0 0 -1.363636,-1.363636 z"
       inkscape:connector-curvature="0"
       style="fill:#fafafa" />
    <path
       inkscape:connector-curvature="0"
       d="m 14.090887,5.9090957 -8.1818183,0 c -0.504546,0 -0.909091,0.4045455 -0.909091,0.9090909 l 0,1.3636364 0.909091,0 0,-1.3636364 8.1818183,0 0,6.3636364 -3.181818,0 0,0.909091 3.181818,0 a 0.90909091,0.90909091 0 0 0 0.909091,-0.909091 l 0,-6.3636364 c 0,-0.5045454 -0.409091,-0.9090909 -0.909091,-0.9090909 m -9.0909093,3.1818182 0,0.9090911 a 4.0909091,4.0909091 0 0 1 4.090909,4.090909 l 0.909091,0 c 0,-2.763636 -2.240909,-5.0000001 -5,-5.0000001 m 8.1818183,-1.3636364 -6.3636363,0 0,0.7409091 c 1.8,0.5818182 3.2227273,2.0045454 3.8045453,3.8045454 l 2.559091,0 m -8.1818183,-1.363636 0,0.909091 a 2.2727273,2.2727273 0 0 1 2.272727,2.272727 l 0.909091,0 a 3.1818182,3.1818182 0 0 0 -3.181818,-3.181818 m 0,1.818182 0,1.363636 1.363636,0 a 1.3636364,1.3636364 0 0 0 -1.363636,-1.363636 z"
       id="path6020"
       style="fill:#f44336"
       clip-path="url(#clipPath6024)" />
  </g>
</svg>
