<?xml version="1.0" encoding="UTF-8" standalone="no"?>
<!-- Created with Inkscape (http://www.inkscape.org/) -->

<svg
   xmlns:dc="http://purl.org/dc/elements/1.1/"
   xmlns:cc="http://creativecommons.org/ns#"
   xmlns:rdf="http://www.w3.org/1999/02/22-rdf-syntax-ns#"
   xmlns:svg="http://www.w3.org/2000/svg"
   xmlns="http://www.w3.org/2000/svg"
   xmlns:xlink="http://www.w3.org/1999/xlink"
   xmlns:sodipodi="http://sodipodi.sourceforge.net/DTD/sodipodi-0.dtd"
   xmlns:inkscape="http://www.inkscape.org/namespaces/inkscape"
   inkscape:export-ydpi="648"
   inkscape:export-xdpi="648"
   inkscape:export-filename="/home/juergen/Projekte/Android/Android_Studio/Baumann_Theme/theme/src/main/assets/icons/res/drawable-xxhdpi/a024.png"
   sodipodi:docname="Dictionary.svg"
   inkscape:version="0.91 r13725"
   version="1.1"
   id="svg2"
   viewBox="0 0 20 20"
   height="5.6444445mm"
   width="5.6444445mm">
  <sodipodi:namedview
     inkscape:snap-to-guides="true"
     inkscape:snap-grids="true"
     inkscape:window-maximized="1"
     inkscape:window-y="24"
     inkscape:window-x="0"
     inkscape:window-height="744"
     inkscape:window-width="1366"
     inkscape:guide-bbox="true"
     showguides="true"
     fit-margin-bottom="0"
     fit-margin-right="0"
     fit-margin-left="0"
     fit-margin-top="0"
     showgrid="false"
     inkscape:current-layer="layer2"
     inkscape:document-units="px"
     inkscape:cy="5.1647267"
     inkscape:cx="1.7069483"
     inkscape:zoom="11.313709"
     inkscape:pageshadow="2"
     inkscape:pageopacity="0.0"
     borderopacity="1.0"
     bordercolor="#666666"
     pagecolor="#ffffff"
     id="base">
    <inkscape:grid
       id="grid4138"
       type="xygrid" />
    <sodipodi:guide
       id="guide4140"
       orientation="0,1"
       position="10,18" />
    <sodipodi:guide
       id="guide4142"
       orientation="0,1"
       position="10,2" />
    <sodipodi:guide
       id="guide4144"
       orientation="1,0"
       position="2,10" />
    <sodipodi:guide
       id="guide4146"
       orientation="0,20"
       position="0,0" />
    <sodipodi:guide
       id="guide4148"
       orientation="-20,0"
       position="20,0" />
    <sodipodi:guide
       id="guide4150"
       orientation="0,-20"
       position="20,20" />
    <sodipodi:guide
       id="guide4152"
       orientation="20,0"
       position="0,20" />
    <sodipodi:guide
       id="guide4154"
       orientation="1,0"
       position="18,10" />
    <sodipodi:guide
       id="guide4156"
       orientation="-0.70710678,0.70710678"
       position="10,10" />
    <sodipodi:guide
       id="guide4160"
       orientation="1,0"
       position="4,10" />
    <sodipodi:guide
       id="guide4162"
       orientation="1,0"
       position="16,10" />
    <sodipodi:guide
       id="guide4164"
       orientation="0,1"
       position="10,16" />
    <sodipodi:guide
       id="guide4166"
       orientation="0,1"
       position="10,4" />
    <sodipodi:guide
       id="guide4168"
       orientation="0,1"
       position="10,15" />
    <sodipodi:guide
       id="guide4170"
       orientation="0,1"
       position="10,5" />
    <sodipodi:guide
       id="guide4172"
       orientation="1,0"
       position="5,10" />
    <sodipodi:guide
       id="guide4174"
       orientation="1,0"
       position="15,10" />
  </sodipodi:namedview>
  <defs
     id="defs4">
    <linearGradient
       inkscape:collect="always"
       id="linearGradient7156">
      <stop
         style="stop-color:#000000;stop-opacity:1;"
         offset="0"
         id="stop7158" />
      <stop
         style="stop-color:#000000;stop-opacity:0;"
         offset="1"
         id="stop7160" />
    </linearGradient>
    <clipPath
       clipPathUnits="userSpaceOnUse"
       id="clipPath12478">
      <circle
         style="opacity:1;fill:#2196f3;fill-opacity:1;stroke:none;stroke-width:0.05069799;stroke-miterlimit:4;stroke-dasharray:none;stroke-opacity:1"
         id="circle12480"
         cx="9.9999781"
         cy="10.000005"
         r="10" />
    </clipPath>
    <clipPath
       id="clipPath5790"
       clipPathUnits="userSpaceOnUse">
      <circle
         inkscape:export-ydpi="648"
         inkscape:export-xdpi="648"
         inkscape:export-filename="/home/juergen/path4136.png"
         style="opacity:1;fill:#2196f3;fill-opacity:1;stroke:none;stroke-width:0.05069799;stroke-miterlimit:4;stroke-dasharray:none;stroke-opacity:1"
         id="circle5792"
         cx="9.9999781"
         cy="10.000005"
         r="10" />
    </clipPath>
    <clipPath
       clipPathUnits="userSpaceOnUse"
       id="clipPath5055">
      <circle
         inkscape:export-ydpi="648"
         inkscape:export-xdpi="648"
         inkscape:export-filename="/home/juergen/path4136.png"
         style="opacity:1;fill:#2196f3;fill-opacity:1;stroke:none;stroke-width:0.05069799;stroke-miterlimit:4;stroke-dasharray:none;stroke-opacity:1"
         id="circle5057"
         cx="9.9999781"
         cy="10.000005"
         r="10" />
    </clipPath>
    <clipPath
       id="clipPath5119"
       clipPathUnits="userSpaceOnUse">
      <circle
         inkscape:export-ydpi="648"
         inkscape:export-xdpi="648"
         inkscape:export-filename="/home/juergen/Schreibtisch/path4136.png"
         style="opacity:1;fill:#2196f3;fill-opacity:1;stroke:none;stroke-width:0.05069799;stroke-miterlimit:4;stroke-dasharray:none;stroke-opacity:1"
         id="circle5121"
         cx="9.9999781"
         cy="10.000005"
         r="10" />
    </clipPath>
    <clipPath
       clipPathUnits="userSpaceOnUse"
       id="clipPath5194">
      <circle
         inkscape:export-ydpi="648"
         inkscape:export-xdpi="648"
         inkscape:export-filename="/home/juergen/Schreibtisch/path4136.png"
         style="opacity:1;fill:#cddc39;fill-opacity:1;stroke:none;stroke-width:0.05069799;stroke-miterlimit:4;stroke-dasharray:none;stroke-opacity:1"
         id="circle5196"
         cx="9.9999781"
         cy="10.000005"
         r="10" />
    </clipPath>
    <clipPath
       id="clipPath6175"
       clipPathUnits="userSpaceOnUse">
      <circle
         inkscape:export-ydpi="648"
         inkscape:export-xdpi="648"
         inkscape:export-filename="/home/juergen/Schreibtisch/path4136.png"
         style="opacity:1;fill:#f44336;fill-opacity:1;stroke:none;stroke-width:0.05069799;stroke-miterlimit:4;stroke-dasharray:none;stroke-opacity:1"
         id="circle6177"
         cx="9.9999781"
         cy="10.000005"
         r="10" />
    </clipPath>
    <clipPath
       clipPathUnits="userSpaceOnUse"
       id="clipPath7176">
      <circle
         inkscape:export-ydpi="648"
         inkscape:export-xdpi="648"
         inkscape:export-filename="/home/juergen/Schreibtisch/path4136.png"
         style="opacity:1;fill:#9c27b0;fill-opacity:1;stroke:none;stroke-width:0.05069799;stroke-miterlimit:4;stroke-dasharray:none;stroke-opacity:1"
         id="circle7178"
         cx="9.9999781"
         cy="10.000005"
         r="10" />
    </clipPath>
    <clipPath
       id="clipPath8165"
       clipPathUnits="userSpaceOnUse">
      <circle
         inkscape:export-ydpi="648"
         inkscape:export-xdpi="648"
         inkscape:export-filename="/home/juergen/Schreibtisch/path4136.png"
         style="opacity:1;fill:#ffc107;fill-opacity:1;stroke:none;stroke-width:0.05069799;stroke-miterlimit:4;stroke-dasharray:none;stroke-opacity:1"
         id="circle8167"
         cx="9.9999781"
         cy="10.000005"
         r="10" />
    </clipPath>
    <clipPath
       clipPathUnits="userSpaceOnUse"
       id="clipPath9162">
      <circle
         inkscape:export-ydpi="648"
         inkscape:export-xdpi="648"
         inkscape:export-filename="/home/juergen/Schreibtisch/path4136.png"
         style="opacity:1;fill:#ff9800;fill-opacity:1;stroke:none;stroke-width:0.05069799;stroke-miterlimit:4;stroke-dasharray:none;stroke-opacity:1"
         id="circle9164"
         cx="9.9999781"
         cy="10.000005"
         r="10" />
    </clipPath>
    <clipPath
       id="clipPath10753"
       clipPathUnits="userSpaceOnUse">
      <circle
         inkscape:export-ydpi="648"
         inkscape:export-xdpi="648"
         inkscape:export-filename="/home/juergen/Schreibtisch/path4136.png"
         style="opacity:1;fill:#607d8b;fill-opacity:1;stroke:none;stroke-width:0.05069799;stroke-miterlimit:4;stroke-dasharray:none;stroke-opacity:1"
         id="circle10755"
         cx="9.9999781"
         cy="10.000005"
         r="10" />
    </clipPath>
    <clipPath
       clipPathUnits="userSpaceOnUse"
       id="clipPath5153">
      <circle
         inkscape:export-ydpi="648"
         inkscape:export-xdpi="648"
         inkscape:export-filename="/home/juergen/Schreibtisch/path4136.png"
         style="opacity:1;fill:#2196f3;fill-opacity:1;stroke:none;stroke-width:0.05069799;stroke-miterlimit:4;stroke-dasharray:none;stroke-opacity:1"
         id="circle5155"
         cx="9.9999781"
         cy="10.000005"
         r="10" />
    </clipPath>
    <clipPath
       id="clipPath6158"
       clipPathUnits="userSpaceOnUse">
      <circle
         r="10"
         cy="10.000005"
         cx="9.9999781"
         id="circle6160"
         style="opacity:1;fill:#ff9800;fill-opacity:1;stroke:none;stroke-width:0.05069799;stroke-miterlimit:4;stroke-dasharray:none;stroke-opacity:1"
         inkscape:export-filename="/home/juergen/Schreibtisch/path4136.png"
         inkscape:export-xdpi="648"
         inkscape:export-ydpi="648" />
    </clipPath>
    <linearGradient
       inkscape:collect="always"
       xlink:href="#linearGradient7156"
       id="linearGradient7162"
       x1="10"
       y1="10"
       x2="20"
       y2="20"
       gradientUnits="userSpaceOnUse" />
    <clipPath
       clipPathUnits="userSpaceOnUse"
       id="clipPath7167">
      <circle
         r="10"
         cy="10.000005"
         cx="9.9999781"
         id="circle7169"
         style="opacity:1;fill:#e91e63;fill-opacity:1;stroke:none;stroke-width:0.05069799;stroke-miterlimit:4;stroke-dasharray:none;stroke-opacity:1"
         inkscape:export-filename="/home/juergen/Schreibtisch/path4136.png"
         inkscape:export-xdpi="648"
         inkscape:export-ydpi="648" />
    </clipPath>
  </defs>
  <metadata
     id="metadata7">
    <rdf:RDF>
      <cc:Work
         rdf:about="">
        <dc:format>image/svg+xml</dc:format>
        <dc:type
           rdf:resource="http://purl.org/dc/dcmitype/StillImage" />
        <dc:title />
      </cc:Work>
    </rdf:RDF>
  </metadata>
  <g
     transform="translate(1058.1428,-861.93365)"
     id="layer1"
     inkscape:groupmode="layer"
     inkscape:label="Hintergrund">
    <circle
       r="10"
       cy="871.93365"
       cx="-1048.1428"
       id="path4136"
       style="opacity:1;fill:#ff9800;fill-opacity:1;stroke:none;stroke-width:0.05069799;stroke-miterlimit:4;stroke-dasharray:none;stroke-opacity:1"
       inkscape:export-filename="/home/juergen/Schreibtisch/path4136.png"
       inkscape:export-xdpi="648"
       inkscape:export-ydpi="648" />
    <circle
       inkscape:export-ydpi="648"
       inkscape:export-xdpi="648"
       inkscape:export-filename="/home/juergen/Schreibtisch/path4136.png"
       style="opacity:1;fill:#e91e63;fill-opacity:1;stroke:none;stroke-width:0.05069799;stroke-miterlimit:4;stroke-dasharray:none;stroke-opacity:1"
       id="circle6153"
       cx="-1048.1428"
       cy="871.93365"
       r="10" />
  </g>
  <g
     inkscape:label="Icon"
     id="layer2"
     inkscape:groupmode="layer"
     style="display:inline">
    <path
       style="fill:url(#linearGradient7162);fill-opacity:1;opacity:0.2"
       d="M 8.1679688 5.4179688 L 8.1679688 6.3339844 L 4.9589844 6.3339844 L 4.9589844 7.2460938 L 4.9609375 7.2460938 L 4.9609375 7.2480469 L 4.9648438 7.2480469 L 4.9648438 7.2519531 L 4.9667969 7.2519531 L 4.9667969 7.2539062 L 4.9707031 7.2539062 L 4.9707031 7.2578125 L 4.9765625 7.2578125 L 4.9765625 7.2636719 L 4.9824219 7.2636719 L 4.9824219 7.2695312 L 4.9882812 7.2695312 L 4.9882812 7.2753906 L 4.9960938 7.2753906 L 4.9960938 7.2832031 L 5.0039062 7.2832031 L 5.0039062 7.2910156 L 5.0117188 7.2910156 L 5.0117188 7.2988281 L 5.0214844 7.2988281 L 5.0214844 7.3085938 L 5.03125 7.3085938 L 5.03125 7.3183594 L 5.0410156 7.3183594 L 5.0410156 7.328125 L 5.0527344 7.328125 L 5.0527344 7.3398438 L 5.0664062 7.3398438 L 5.0664062 7.3535156 L 5.078125 7.3535156 L 5.078125 7.3652344 L 5.0917969 7.3652344 L 5.0917969 7.3789062 L 5.1074219 7.3789062 L 5.1074219 7.3945312 L 5.1210938 7.3945312 L 5.1210938 7.4082031 L 5.1386719 7.4082031 L 5.1386719 7.4257812 L 5.1542969 7.4257812 L 5.1542969 7.4414062 L 5.171875 7.4414062 L 5.171875 7.4589844 L 5.1894531 7.4589844 L 5.1894531 7.4765625 L 5.2089844 7.4765625 L 5.2089844 7.4960938 L 5.2285156 7.4960938 L 5.2285156 7.515625 L 5.25 7.515625 L 5.25 7.5371094 L 5.2714844 7.5371094 L 5.2714844 7.5585938 L 5.2929688 7.5585938 L 5.2929688 7.5800781 L 5.3144531 7.5800781 L 5.3144531 7.6015625 L 5.3378906 7.6015625 L 5.3378906 7.625 L 5.3632812 7.625 L 5.3632812 7.6503906 L 5.3867188 7.6503906 L 5.3867188 7.6738281 L 5.4140625 7.6738281 L 5.4140625 7.7011719 L 5.4394531 7.7011719 L 5.4394531 7.7265625 L 5.4667969 7.7265625 L 5.4667969 7.7539062 L 5.4941406 7.7539062 L 5.4941406 7.78125 L 5.5234375 7.78125 L 5.5234375 7.8105469 L 5.5527344 7.8105469 L 5.5527344 7.8398438 L 5.5820312 7.8398438 L 5.5820312 7.8691406 L 5.6132812 7.8691406 L 5.6132812 7.9003906 L 5.6445312 7.9003906 L 5.6445312 7.9316406 L 5.6777344 7.9316406 L 5.6777344 7.9648438 L 5.7109375 7.9648438 L 5.7109375 7.9980469 L 5.7441406 7.9980469 L 5.7441406 8.03125 L 5.7792969 8.03125 L 5.7792969 8.0664062 L 5.8144531 8.0664062 L 5.8144531 8.1015625 L 5.8496094 8.1015625 L 5.8496094 8.1367188 L 5.8867188 8.1367188 L 5.8867188 8.1738281 L 5.9238281 8.1738281 L 5.9238281 8.2109375 L 5.9628906 8.2109375 L 5.9628906 8.25 L 6.0019531 8.25 L 6.0019531 8.2890625 L 6.0410156 8.2890625 L 6.0410156 8.328125 L 6.0820312 8.328125 L 6.0820312 8.3691406 L 6.1230469 8.3691406 L 6.1230469 8.4101562 L 6.1640625 8.4101562 L 6.1640625 8.4511719 L 6.2070312 8.4511719 L 6.2070312 8.4941406 L 6.25 8.4941406 L 6.25 8.5371094 L 6.2949219 8.5371094 L 6.2949219 8.5820312 L 6.3398438 8.5820312 L 6.3398438 8.6269531 L 6.3847656 8.6269531 L 6.3847656 8.671875 L 6.4316406 8.671875 L 6.4316406 8.71875 L 6.4785156 8.71875 L 6.4785156 8.765625 L 6.5273438 8.765625 L 6.5273438 8.8144531 L 6.5761719 8.8144531 L 6.5761719 8.8632812 L 6.625 8.8632812 L 6.625 8.9121094 L 6.6757812 8.9121094 L 6.6757812 8.9628906 L 6.7265625 8.9628906 L 6.7265625 9.0136719 L 6.7773438 9.0136719 L 6.7773438 9.0644531 L 6.8300781 9.0644531 L 6.8300781 9.1171875 L 6.8828125 9.1171875 L 6.8828125 9.1699219 L 6.9375 9.1699219 L 6.9375 9.2246094 L 6.9921875 9.2246094 L 6.9921875 9.2792969 L 7.046875 9.2792969 L 7.046875 9.3339844 L 7.1035156 9.3339844 L 7.1035156 9.390625 L 7.1601562 9.390625 L 7.1601562 9.4472656 L 7.2167969 9.4472656 L 7.2167969 9.5039062 L 7.2753906 9.5039062 L 7.2753906 9.5625 L 7.3339844 9.5625 L 7.3339844 9.6210938 L 7.3945312 9.6210938 L 7.3945312 9.6816406 L 7.4550781 9.6816406 L 7.4550781 9.7421875 L 7.515625 9.7421875 L 7.515625 9.8027344 L 7.578125 9.8027344 L 7.578125 9.8652344 L 7.640625 9.8652344 L 7.640625 9.9277344 L 7.7050781 9.9277344 L 7.7050781 9.9921875 L 7.7675781 9.9921875 L 7.7675781 10.054688 L 7.8339844 10.054688 L 7.8339844 10.121094 L 7.8984375 10.121094 L 7.8984375 10.185547 L 7.9609375 10.185547 C 7.9625044 10.187328 7.9632751 10.189626 7.9648438 10.191406 L 7.9648438 10.251953 L 8.0117188 10.251953 C 8.0133067 10.253722 8.0140353 10.256045 8.015625 10.257812 L 5.6835938 12.558594 L 5.6855469 12.560547 L 5.6875 12.5625 L 5.6914062 12.566406 L 5.6953125 12.570312 L 5.7011719 12.576172 L 5.7070312 12.582031 L 5.7128906 12.587891 L 5.71875 12.59375 L 5.7265625 12.601562 L 5.7363281 12.611328 L 5.7460938 12.621094 L 5.7558594 12.630859 L 5.765625 12.640625 L 5.7773438 12.652344 L 5.7890625 12.664062 L 5.8027344 12.677734 L 5.8164062 12.691406 L 5.8300781 12.705078 L 5.8457031 12.720703 L 5.8613281 12.736328 L 5.8789062 12.753906 L 5.8964844 12.771484 L 5.9140625 12.789062 L 5.9335938 12.808594 L 5.953125 12.828125 L 5.9726562 12.847656 L 5.9941406 12.869141 L 6.0175781 12.892578 L 6.0390625 12.914062 L 6.0625 12.9375 L 6.0859375 12.960938 L 6.1113281 12.986328 L 6.1367188 13.011719 L 6.1640625 13.039062 L 6.1914062 13.066406 L 6.21875 13.09375 L 6.2480469 13.123047 L 6.2773438 13.152344 L 6.3066406 13.181641 L 6.3339844 13.208984 L 6.3359375 13.210938 L 6.3378906 13.212891 L 6.3398438 13.214844 L 6.3417969 13.216797 L 6.3476562 13.222656 L 6.3691406 13.244141 L 6.3710938 13.246094 L 6.4003906 13.275391 L 6.4335938 13.308594 L 6.46875 13.34375 L 6.4960938 13.371094 L 6.4960938 13.373047 L 6.5019531 13.376953 L 6.5371094 13.412109 L 6.5742188 13.449219 L 6.6113281 13.486328 L 6.6484375 13.523438 L 6.6855469 13.560547 L 6.7246094 13.599609 L 6.765625 13.640625 L 6.8046875 13.679688 L 6.8476562 13.722656 L 6.8886719 13.763672 L 6.9316406 13.806641 L 6.9746094 13.849609 L 7.0195312 13.894531 L 7.0644531 13.939453 L 7.109375 13.984375 L 7.15625 14.03125 L 7.203125 14.078125 L 7.2519531 14.126953 L 7.2988281 14.173828 L 7.3496094 14.224609 L 7.3984375 14.273438 L 7.4492188 14.324219 L 7.5019531 14.376953 L 7.5546875 14.429688 L 7.6074219 14.482422 L 7.6601562 14.535156 L 7.7148438 14.589844 L 7.7714844 14.646484 L 7.8261719 14.701172 L 7.8535156 14.728516 L 7.8828125 14.759766 L 7.8847656 14.759766 L 7.9023438 14.777344 L 7.9414062 14.816406 L 7.9511719 14.826172 L 8 14.875 L 8.0507812 14.925781 L 8.0585938 14.933594 L 8.1015625 14.976562 L 8.1191406 14.994141 L 8.1523438 15.027344 L 8.1796875 15.054688 L 8.2050781 15.080078 L 8.2402344 15.115234 L 8.2578125 15.132812 L 8.3027344 15.177734 L 8.3125 15.1875 L 8.3652344 15.240234 L 8.3671875 15.242188 L 8.421875 15.296875 L 8.4277344 15.302734 L 8.4785156 15.353516 L 8.4921875 15.367188 L 8.5585938 15.433594 L 8.6230469 15.498047 L 8.6894531 15.564453 L 8.7578125 15.632812 L 8.8242188 15.699219 L 8.8945312 15.769531 L 8.9628906 15.837891 L 9.0332031 15.908203 L 9.1035156 15.978516 L 9.1757812 16.050781 L 9.2480469 16.123047 L 9.3222656 16.197266 L 9.3945312 16.269531 L 9.4707031 16.345703 L 9.5449219 16.419922 L 9.6210938 16.496094 L 9.6835938 16.558594 L 9.6972656 16.574219 L 9.6992188 16.574219 L 9.7558594 16.630859 L 9.7753906 16.650391 L 9.8261719 16.701172 L 9.8535156 16.728516 L 9.8984375 16.773438 L 9.9335938 16.808594 L 9.9726562 16.847656 L 10.013672 16.888672 L 10.046875 16.921875 L 10.09375 16.96875 L 10.121094 16.996094 L 10.175781 17.050781 L 10.195312 17.070312 L 10.257812 17.132812 L 10.271484 17.146484 L 10.339844 17.214844 L 10.423828 17.298828 L 10.425781 17.300781 L 10.507812 17.382812 L 10.591797 17.466797 L 10.677734 17.552734 L 10.765625 17.640625 L 10.851562 17.726562 L 10.939453 17.814453 L 11.029297 17.904297 L 11.119141 17.994141 L 11.208984 18.083984 L 11.298828 18.173828 L 11.390625 18.265625 L 11.484375 18.359375 L 11.576172 18.451172 L 11.669922 18.544922 L 11.765625 18.640625 L 11.861328 18.736328 L 11.957031 18.832031 L 12.054688 18.929688 L 12.152344 19.027344 L 12.25 19.125 L 12.349609 19.224609 L 12.449219 19.324219 L 12.548828 19.423828 L 12.650391 19.525391 L 12.753906 19.628906 L 12.855469 19.730469 L 12.958984 19.833984 L 13.064453 19.939453 L 13.099609 19.974609 L 13.167969 20.044922 L 13.169922 20.044922 L 13.201172 20.076172 L 13.275391 20.150391 L 13.302734 20.177734 L 13.380859 20.255859 L 13.404297 20.279297 L 13.488281 20.363281 L 13.505859 20.380859 L 13.595703 20.470703 L 13.611328 20.486328 L 13.705078 20.580078 L 13.714844 20.589844 L 13.814453 20.689453 L 13.925781 20.800781 L 14.037109 20.912109 L 14.148438 21.023438 L 14.259766 21.134766 L 14.373047 21.248047 L 14.488281 21.363281 L 14.601562 21.476562 L 14.71875 21.59375 L 14.833984 21.708984 L 14.951172 21.826172 L 15.068359 21.943359 L 15.1875 22.0625 L 15.306641 22.181641 L 15.425781 22.300781 L 15.546875 22.421875 L 15.667969 22.542969 L 15.791016 22.666016 L 15.914062 22.789062 L 16.037109 22.912109 L 16.078125 22.953125 L 16.162109 23.037109 L 16.287109 23.162109 L 16.412109 23.287109 L 16.539062 23.414062 L 16.666016 23.541016 L 16.794922 23.669922 L 16.923828 23.798828 L 17.052734 23.927734 L 17.183594 24.058594 L 17.314453 24.189453 L 17.316406 24.191406 L 17.445312 24.320312 L 17.578125 24.453125 L 17.710938 24.585938 L 17.845703 24.720703 L 17.980469 24.855469 L 18.097656 24.972656 L 18.115234 24.992188 L 18.117188 24.992188 L 18.228516 25.103516 L 18.251953 25.126953 L 18.363281 25.238281 L 18.388672 25.263672 L 18.496094 25.371094 L 18.527344 25.402344 L 18.630859 25.505859 L 18.666016 25.541016 L 18.804688 25.679688 L 18.902344 25.777344 L 18.902344 25.779297 L 18.945312 25.820312 L 19.085938 25.960938 L 19.226562 26.101562 L 19.369141 26.244141 L 19.511719 26.386719 L 19.65625 26.53125 L 19.800781 26.675781 L 19.945312 26.820312 L 20.091797 26.966797 L 20.238281 27.113281 L 20.384766 27.259766 L 20.533203 27.408203 L 21.183594 28.058594 L 22.361328 26.880859 L 22.484375 26.880859 L 22.433594 27.017578 L 22.621094 27.017578 L 22.570312 27.154297 L 22.757812 27.154297 L 22.707031 27.291016 L 22.894531 27.291016 L 22.84375 27.427734 L 23.035156 27.427734 L 22.982422 27.566406 L 23.175781 27.566406 L 23.123047 27.705078 L 23.314453 27.705078 L 23.261719 27.845703 L 23.455078 27.845703 L 23.402344 27.986328 L 23.597656 27.986328 L 23.544922 28.126953 L 23.740234 28.126953 L 23.6875 28.269531 L 23.882812 28.269531 L 23.830078 28.412109 L 24.027344 28.412109 L 23.972656 28.556641 L 24.171875 28.556641 L 24.117188 28.701172 L 24.318359 28.701172 L 24.263672 28.845703 L 24.462891 28.845703 L 24.408203 28.992188 L 24.609375 28.992188 L 24.554688 29.138672 L 24.757812 29.138672 L 24.703125 29.287109 L 24.90625 29.287109 L 24.851562 29.433594 L 25.767578 29.433594 L 26.28125 28.058594 L 27.644531 28.058594 L 27.669922 28.126953 L 27.757812 28.126953 L 27.8125 28.269531 L 27.902344 28.269531 L 27.955078 28.412109 L 28.042969 28.412109 L 28.097656 28.556641 L 28.1875 28.556641 L 28.242188 28.701172 L 28.333984 28.701172 L 28.388672 28.845703 L 28.478516 28.845703 L 28.533203 28.992188 L 28.625 28.992188 L 28.679688 29.138672 L 28.771484 29.138672 L 28.828125 29.287109 L 28.921875 29.287109 L 28.976562 29.433594 L 29.892578 29.433594 L 27.830078 23.933594 L 27.736328 23.933594 L 27.681641 23.787109 L 27.589844 23.787109 L 27.535156 23.638672 L 27.443359 23.638672 L 27.388672 23.492188 L 27.296875 23.492188 L 27.242188 23.345703 L 27.152344 23.345703 L 27.097656 23.201172 L 27.007812 23.201172 L 26.953125 23.056641 L 26.863281 23.056641 L 26.808594 22.912109 L 26.71875 22.912109 L 26.666016 22.769531 L 26.576172 22.769531 L 26.523438 22.626953 L 26.435547 22.626953 L 26.382812 22.486328 L 26.294922 22.486328 L 26.242188 22.345703 L 26.154297 22.345703 L 26.101562 22.205078 L 26.015625 22.205078 L 25.976562 22.101562 L 27.142578 22.101562 L 27.142578 21.183594 L 26.994141 21.183594 L 26.994141 21.037109 L 26.847656 21.037109 L 26.847656 20.888672 L 26.701172 20.888672 L 26.701172 20.742188 L 26.554688 20.742188 L 26.554688 20.595703 L 26.410156 20.595703 L 26.410156 20.451172 L 26.265625 20.451172 L 26.265625 20.306641 L 26.121094 20.306641 L 26.121094 20.162109 L 25.978516 20.162109 L 25.978516 20.019531 L 25.835938 20.019531 L 25.835938 19.876953 L 25.695312 19.876953 L 25.695312 19.736328 L 25.554688 19.736328 L 25.554688 19.595703 L 25.414062 19.595703 L 25.414062 19.455078 L 25.275391 19.455078 L 25.275391 19.316406 L 25.136719 19.316406 L 25.136719 19.177734 L 24.998047 19.177734 L 24.998047 19.041016 L 24.861328 19.041016 L 24.861328 18.904297 L 24.724609 18.904297 L 24.724609 18.767578 L 24.589844 18.767578 L 24.589844 18.630859 L 24.455078 18.630859 L 24.455078 18.496094 L 24.320312 18.496094 L 24.320312 18.363281 L 24.1875 18.363281 L 24.1875 18.228516 L 24.054688 18.228516 L 24.054688 18.097656 L 23.923828 18.097656 L 23.923828 17.964844 L 23.792969 17.964844 L 23.792969 17.833984 L 23.662109 17.833984 L 23.662109 17.703125 L 23.533203 17.703125 L 23.533203 17.574219 L 23.404297 17.574219 L 23.404297 17.445312 L 23.275391 17.445312 L 23.275391 17.316406 L 23.148438 17.316406 L 23.148438 17.189453 L 23.021484 17.189453 L 23.021484 17.0625 L 22.896484 17.0625 L 22.896484 16.9375 L 22.771484 16.9375 L 22.771484 16.8125 L 22.646484 16.8125 L 22.646484 16.6875 L 22.523438 16.6875 L 22.523438 16.564453 L 22.400391 16.564453 L 22.400391 16.441406 L 22.277344 16.441406 L 22.277344 16.318359 L 22.15625 16.318359 L 22.15625 16.197266 L 22.035156 16.197266 L 22.035156 16.078125 L 21.916016 16.078125 L 21.916016 15.957031 L 21.796875 15.957031 L 21.796875 15.837891 L 21.677734 15.837891 L 21.677734 15.71875 L 21.560547 15.71875 L 21.560547 15.601562 L 21.443359 15.601562 L 21.443359 15.484375 L 21.326172 15.484375 L 21.326172 15.369141 L 21.210938 15.369141 L 21.210938 15.253906 L 21.097656 15.253906 L 21.097656 15.138672 L 20.982422 15.138672 L 20.982422 15.025391 L 20.869141 15.025391 L 20.869141 14.912109 L 20.757812 14.912109 L 20.757812 14.798828 L 20.644531 14.798828 L 20.644531 14.6875 L 20.535156 14.6875 L 20.535156 14.576172 L 20.423828 14.576172 L 20.423828 14.464844 L 20.314453 14.464844 L 20.314453 14.355469 L 20.205078 14.355469 L 20.205078 14.248047 L 20.097656 14.248047 L 20.097656 14.138672 L 19.990234 14.138672 L 19.990234 14.03125 L 19.884766 14.03125 L 19.884766 13.925781 L 19.777344 13.925781 L 19.777344 13.820312 L 19.673828 13.820312 L 19.673828 13.714844 L 19.568359 13.714844 L 19.568359 13.611328 L 19.464844 13.611328 L 19.464844 13.505859 L 19.361328 13.505859 L 19.361328 13.404297 L 19.259766 13.404297 L 19.259766 13.302734 L 19.158203 13.302734 L 19.158203 13.201172 L 19.058594 13.201172 L 19.058594 13.099609 L 18.958984 13.099609 L 18.958984 13 L 18.859375 13 L 18.859375 12.900391 L 18.761719 12.900391 L 18.761719 12.802734 L 18.664062 12.802734 L 18.664062 12.705078 L 18.566406 12.705078 L 18.566406 12.607422 L 18.470703 12.607422 L 18.470703 12.511719 L 18.375 12.511719 L 18.375 12.416016 L 18.279297 12.416016 L 18.279297 12.322266 L 18.185547 12.322266 L 18.185547 12.228516 L 18.09375 12.228516 L 18.09375 12.134766 L 18 12.134766 L 18 12.042969 L 17.908203 12.042969 L 17.908203 11.951172 L 17.818359 11.951172 L 17.818359 11.859375 L 17.726562 11.859375 L 17.726562 11.769531 L 17.638672 11.769531 L 17.638672 11.679688 L 17.548828 11.679688 L 17.548828 11.591797 L 17.460938 11.591797 L 17.460938 11.503906 L 17.375 11.503906 L 17.375 11.416016 L 17.287109 11.416016 L 17.287109 11.330078 L 17.201172 11.330078 L 17.201172 11.244141 L 17.117188 11.244141 L 17.117188 11.158203 L 17.033203 11.158203 L 17.033203 11.074219 L 16.949219 11.074219 L 16.949219 10.990234 L 16.865234 10.990234 L 16.865234 10.908203 L 16.783203 10.908203 L 16.783203 10.826172 L 16.703125 10.826172 L 16.703125 10.744141 L 16.623047 10.744141 L 16.623047 10.664062 L 16.542969 10.664062 L 16.542969 10.583984 L 16.462891 10.583984 L 16.462891 10.505859 L 16.384766 10.505859 L 16.384766 10.425781 L 16.306641 10.425781 L 16.306641 10.349609 L 16.230469 10.349609 L 16.230469 10.271484 L 16.154297 10.271484 L 16.154297 10.195312 L 16.078125 10.195312 L 16.078125 10.121094 L 16.003906 10.121094 L 16.003906 10.046875 L 15.929688 10.046875 L 15.929688 9.9726562 L 15.857422 9.9726562 L 15.857422 9.8984375 L 15.785156 9.8984375 L 15.785156 9.8261719 L 15.712891 9.8261719 L 15.712891 9.7558594 L 15.642578 9.7558594 L 15.642578 9.6835938 L 15.572266 9.6835938 L 15.572266 9.6132812 L 15.501953 9.6132812 L 15.501953 9.5449219 L 15.433594 9.5449219 L 15.433594 9.4765625 L 15.365234 9.4765625 L 15.365234 9.4082031 L 15.298828 9.4082031 L 15.298828 9.3398438 L 15.232422 9.3398438 L 15.232422 9.2734375 L 15.166016 9.2734375 L 15.166016 9.2089844 L 15.101562 9.2089844 L 15.101562 9.1425781 L 15.037109 9.1425781 L 15.037109 9.0800781 L 14.974609 9.0800781 L 14.974609 9.015625 L 14.912109 9.015625 L 14.912109 8.953125 L 14.849609 8.953125 L 14.849609 8.890625 L 14.789062 8.890625 L 14.789062 8.8300781 L 14.728516 8.8300781 L 14.728516 8.7695312 L 14.667969 8.7695312 L 14.667969 8.7089844 L 14.609375 8.7089844 L 14.609375 8.6503906 L 14.550781 8.6503906 L 14.550781 8.5917969 L 14.492188 8.5917969 L 14.492188 8.5351562 L 14.435547 8.5351562 L 14.435547 8.4785156 L 14.380859 8.4785156 L 14.380859 8.421875 L 14.324219 8.421875 L 14.324219 8.3671875 L 14.269531 8.3671875 L 14.269531 8.3125 L 14.216797 8.3125 L 14.216797 8.2578125 L 14.164062 8.2578125 L 14.164062 8.2050781 L 14.111328 8.2050781 L 14.111328 8.1523438 L 14.058594 8.1523438 L 14.058594 8.1015625 L 14.007812 8.1015625 L 14.007812 8.0507812 L 13.958984 8.0507812 L 13.958984 8 L 13.908203 8 L 13.908203 7.9511719 L 13.859375 7.9511719 L 13.859375 7.9023438 L 13.8125 7.9023438 L 13.8125 7.8535156 L 13.765625 7.8535156 L 13.765625 7.8066406 L 13.71875 7.8066406 L 13.71875 7.7597656 L 13.673828 7.7597656 L 13.673828 7.7148438 L 13.628906 7.7148438 L 13.628906 7.6699219 L 13.583984 7.6699219 L 13.583984 7.625 L 13.541016 7.625 L 13.541016 7.5820312 L 13.498047 7.5820312 L 13.498047 7.5390625 L 13.455078 7.5390625 L 13.455078 7.4980469 L 13.414062 7.4980469 L 13.414062 7.4570312 L 13.375 7.4570312 L 13.375 7.4160156 L 13.333984 7.4160156 L 13.333984 7.3769531 L 13.294922 7.3769531 L 13.294922 7.3378906 L 13.257812 7.3378906 L 13.257812 7.2988281 L 13.220703 7.2988281 L 13.220703 7.2617188 L 13.183594 7.2617188 L 13.183594 7.2246094 L 13.146484 7.2246094 L 13.146484 7.1894531 L 13.111328 7.1894531 L 13.111328 7.1542969 L 13.078125 7.1542969 L 13.078125 7.1191406 L 13.042969 7.1191406 L 13.042969 7.0859375 L 13.009766 7.0859375 L 13.009766 7.0527344 L 12.978516 7.0527344 L 12.978516 7.0195312 L 12.947266 7.0195312 L 12.947266 6.9882812 L 12.916016 6.9882812 L 12.916016 6.9570312 L 12.884766 6.9570312 L 12.884766 6.9277344 L 12.855469 6.9277344 L 12.855469 6.8984375 L 12.828125 6.8984375 L 12.828125 6.8691406 L 12.800781 6.8691406 L 12.800781 6.8417969 L 12.773438 6.8417969 L 12.773438 6.8144531 L 12.746094 6.8144531 L 12.746094 6.7890625 L 12.720703 6.7890625 L 12.720703 6.7617188 L 12.695312 6.7617188 L 12.695312 6.7382812 L 12.671875 6.7382812 L 12.671875 6.7128906 L 12.648438 6.7128906 L 12.648438 6.6894531 L 12.625 6.6894531 L 12.625 6.6679688 L 12.603516 6.6679688 L 12.603516 6.6464844 L 12.582031 6.6464844 L 12.582031 6.625 L 12.5625 6.625 L 12.5625 6.6035156 L 12.542969 6.6035156 L 12.542969 6.5839844 L 12.523438 6.5839844 L 12.523438 6.5644531 L 12.505859 6.5644531 L 12.505859 6.546875 L 12.488281 6.546875 L 12.488281 6.5292969 L 12.470703 6.5292969 L 12.470703 6.5136719 L 12.455078 6.5136719 L 12.455078 6.4980469 L 12.439453 6.4980469 L 12.439453 6.4824219 L 12.425781 6.4824219 L 12.425781 6.4667969 L 12.412109 6.4667969 L 12.412109 6.453125 L 12.398438 6.453125 L 12.398438 6.4414062 L 12.386719 6.4414062 L 12.386719 6.4277344 L 12.375 6.4277344 L 12.375 6.4160156 L 12.365234 6.4160156 L 12.365234 6.40625 L 12.353516 6.40625 L 12.353516 6.3964844 L 12.345703 6.3964844 L 12.345703 6.3867188 L 12.335938 6.3867188 L 12.335938 6.3789062 L 12.328125 6.3789062 L 12.328125 6.3710938 L 12.322266 6.3710938 L 12.322266 6.3632812 L 12.314453 6.3632812 L 12.314453 6.3574219 L 12.310547 6.3574219 L 12.310547 6.3515625 L 12.304688 6.3515625 L 12.304688 6.3476562 L 12.300781 6.3476562 L 12.300781 6.3417969 L 12.296875 6.3417969 L 12.296875 6.3398438 L 12.294922 6.3398438 L 12.294922 6.3359375 L 12.292969 6.3359375 L 12.292969 6.3339844 L 9.9746094 6.3339844 L 9.9746094 6.3085938 L 9.9394531 6.3085938 L 9.9394531 6.2714844 L 9.9042969 6.2714844 L 9.9042969 6.2363281 L 9.8691406 6.2363281 L 9.8691406 6.203125 L 9.8359375 6.203125 L 9.8359375 6.1679688 L 9.8027344 6.1679688 L 9.8027344 6.1347656 L 9.7695312 6.1347656 L 9.7695312 6.1035156 L 9.7382812 6.1035156 L 9.7382812 6.0722656 L 9.7070312 6.0722656 L 9.7070312 6.0410156 L 9.6777344 6.0410156 L 9.6777344 6.0097656 L 9.6484375 6.0097656 L 9.6484375 5.9804688 L 9.6191406 5.9804688 L 9.6191406 5.953125 L 9.5917969 5.953125 L 9.5917969 5.9257812 L 9.5644531 5.9257812 L 9.5644531 5.8984375 L 9.5390625 5.8984375 L 9.5390625 5.8710938 L 9.5117188 5.8710938 L 9.5117188 5.8457031 L 9.4882812 5.8457031 L 9.4882812 5.8203125 L 9.4628906 5.8203125 L 9.4628906 5.796875 L 9.4394531 5.796875 L 9.4394531 5.7734375 L 9.4179688 5.7734375 L 9.4179688 5.75 L 9.3964844 5.75 L 9.3964844 5.7285156 L 9.375 5.7285156 L 9.375 5.7070312 L 9.3535156 5.7070312 L 9.3535156 5.6875 L 9.3339844 5.6875 L 9.3339844 5.6679688 L 9.3144531 5.6679688 L 9.3144531 5.6484375 L 9.296875 5.6484375 L 9.296875 5.6308594 L 9.2792969 5.6308594 L 9.2792969 5.6132812 L 9.2636719 5.6132812 L 9.2636719 5.5957031 L 9.2460938 5.5957031 L 9.2460938 5.5800781 L 9.2324219 5.5800781 L 9.2324219 5.5644531 L 9.2167969 5.5644531 L 9.2167969 5.5507812 L 9.203125 5.5507812 L 9.203125 5.5371094 L 9.1914062 5.5371094 L 9.1914062 5.5234375 L 9.1777344 5.5234375 L 9.1777344 5.5117188 L 9.1660156 5.5117188 L 9.1660156 5.5 L 9.15625 5.5 L 9.15625 5.4902344 L 9.1464844 5.4902344 L 9.1464844 5.4785156 L 9.1367188 5.4785156 L 9.1367188 5.4707031 L 9.1289062 5.4707031 L 9.1289062 5.4609375 L 9.1210938 5.4609375 L 9.1210938 5.453125 L 9.1132812 5.453125 L 9.1132812 5.4472656 L 9.1074219 5.4472656 L 9.1074219 5.4414062 L 9.1015625 5.4414062 L 9.1015625 5.4355469 L 9.0957031 5.4355469 L 9.0957031 5.4296875 L 9.0917969 5.4296875 L 9.0917969 5.4257812 L 9.0898438 5.4257812 L 9.0898438 5.421875 L 9.0859375 5.421875 L 9.0859375 5.4199219 L 9.0839844 5.4199219 L 9.0839844 5.4179688 L 8.1679688 5.4179688 z "
       id="path6300"
       clip-path="url(#clipPath7167)" />
    <path
       style="fill:none"
       inkscape:connector-curvature="0"
       id="path4"
       d="m 3.9999777,4.0333382 12.0000003,0 0,11.9333328 -12.0000003,0 z" />
    <path
       d="m 18.999978,19.033339 12,0 0,11.933333 -12,0 z"
       id="path9754"
       inkscape:connector-curvature="0"
       style="fill:none" />
    <path
       style="fill:none"
       inkscape:connector-curvature="0"
       id="path4-0"
       d="m 4.4999778,4.5000048 11.0000002,0 0,11.0000002 -11.0000002,0 z" />
    <path
       inkscape:connector-curvature="0"
       id="path6"
       d="m 10.398728,11.407088 -1.1641669,-1.150417 0.01375,-0.01375 C 10.045811,9.3537548 10.614144,8.3316715 10.948728,7.2500048 l 1.342916,0 0,-0.9166666 -3.2083329,0 0,-0.9166667 -0.9166667,0 0,0.9166667 -3.2083333,0 0,0.9120833 5.1195829,0 C 9.7708111,8.1300048 9.2849777,8.9687548 8.6249777,9.7020881 c -0.42625,-0.4720833 -0.7791666,-0.99 -1.05875,-1.5354166 l -0.9166666,0 c 0.3345833,0.7470833 0.7929166,1.4529166 1.3658333,2.0899995 l -2.3329166,2.300834 0.6508333,0.650833 2.2916666,-2.291667 1.4254163,1.425417 0.348334,-0.935 z m 2.580416,-2.3237499 -0.916666,0 -2.0625003,5.4999999 0.9166663,0 0.513334,-1.375 2.177083,0 0.517917,1.375 0.916666,0 -2.0625,-5.4999999 z m -1.200833,3.2083329 0.7425,-1.984583 0.7425,1.984583 -1.485,0 z"
       style="fill:#76ff03" />
    <path
       d="m 19.499978,19.500004 11,0 0,11 -11,0 z"
       id="path4261"
       inkscape:connector-curvature="0"
       style="fill:none" />
  </g>
</svg>
