<?xml version="1.0" encoding="UTF-8" standalone="no"?>
<!-- Created with Inkscape (http://www.inkscape.org/) -->

<svg
   xmlns:dc="http://purl.org/dc/elements/1.1/"
   xmlns:cc="http://creativecommons.org/ns#"
   xmlns:rdf="http://www.w3.org/1999/02/22-rdf-syntax-ns#"
   xmlns:svg="http://www.w3.org/2000/svg"
   xmlns="http://www.w3.org/2000/svg"
   xmlns:xlink="http://www.w3.org/1999/xlink"
   xmlns:sodipodi="http://sodipodi.sourceforge.net/DTD/sodipodi-0.dtd"
   xmlns:inkscape="http://www.inkscape.org/namespaces/inkscape"
   sodipodi:docname="Downloads.svg"
   inkscape:version="0.91 r13725"
   version="1.1"
   id="svg2"
   viewBox="0 0 20 20"
   height="5.6444445mm"
   width="5.6444445mm"
   inkscape:export-filename="/home/juergen/Schreibtisch/qdad.png"
   inkscape:export-xdpi="648"
   inkscape:export-ydpi="648">
  <sodipodi:namedview
     inkscape:snap-to-guides="true"
     inkscape:snap-grids="true"
     inkscape:window-maximized="1"
     inkscape:window-y="24"
     inkscape:window-x="0"
     inkscape:window-height="744"
     inkscape:window-width="1366"
     inkscape:guide-bbox="true"
     showguides="true"
     fit-margin-bottom="0"
     fit-margin-right="0"
     fit-margin-left="0"
     fit-margin-top="0"
     showgrid="true"
     inkscape:current-layer="layer1"
     inkscape:document-units="px"
     inkscape:cy="8.5875196"
     inkscape:cx="-1.6567197"
     inkscape:zoom="15.839192"
     inkscape:pageshadow="2"
     inkscape:pageopacity="0.0"
     borderopacity="1.0"
     bordercolor="#666666"
     pagecolor="#ffffff"
     id="base">
    <inkscape:grid
       type="xygrid"
       id="grid4138" />
    <sodipodi:guide
       position="10,18"
       orientation="0,1"
       id="guide4140" />
    <sodipodi:guide
       position="10,2"
       orientation="0,1"
       id="guide4142" />
    <sodipodi:guide
       position="2,10"
       orientation="1,0"
       id="guide4144" />
    <sodipodi:guide
       position="0,0"
       orientation="0,20"
       id="guide4146" />
    <sodipodi:guide
       position="20,0"
       orientation="-20,0"
       id="guide4148" />
    <sodipodi:guide
       position="20,20"
       orientation="0,-20"
       id="guide4150" />
    <sodipodi:guide
       position="0,20"
       orientation="20,0"
       id="guide4152" />
    <sodipodi:guide
       position="18,10"
       orientation="1,0"
       id="guide4154" />
    <sodipodi:guide
       position="10,10"
       orientation="-0.70710678,0.70710678"
       id="guide4156" />
    <sodipodi:guide
       position="10,10"
       orientation="0.70710678,0.70710678"
       id="guide4158" />
    <sodipodi:guide
       position="4,10"
       orientation="1,0"
       id="guide4160" />
    <sodipodi:guide
       position="16,10"
       orientation="1,0"
       id="guide4162" />
    <sodipodi:guide
       position="10,16"
       orientation="0,1"
       id="guide4164" />
    <sodipodi:guide
       position="10,4"
       orientation="0,1"
       id="guide4166" />
    <sodipodi:guide
       position="10,15"
       orientation="0,1"
       id="guide4168" />
    <sodipodi:guide
       position="10,5"
       orientation="0,1"
       id="guide4170" />
    <sodipodi:guide
       position="5,10"
       orientation="1,0"
       id="guide4172" />
    <sodipodi:guide
       position="15,10"
       orientation="1,0"
       id="guide4174" />
  </sodipodi:namedview>
  <defs
     id="defs4">
    <linearGradient
       inkscape:collect="always"
       id="linearGradient5108">
      <stop
         style="stop-color:#000000;stop-opacity:1;"
         offset="0"
         id="stop5110" />
      <stop
         style="stop-color:#000000;stop-opacity:0;"
         offset="1"
         id="stop5112" />
    </linearGradient>
    <clipPath
       id="clipPath12478"
       clipPathUnits="userSpaceOnUse">
      <circle
         r="10"
         cy="10.000005"
         cx="9.9999781"
         id="circle12480"
         style="opacity:1;fill:#2196f3;fill-opacity:1;stroke:none;stroke-width:0.05069799;stroke-miterlimit:4;stroke-dasharray:none;stroke-opacity:1" />
    </clipPath>
    <clipPath
       clipPathUnits="userSpaceOnUse"
       id="clipPath13251">
      <circle
         r="10"
         cy="10.000005"
         cx="9.9999781"
         id="circle13253"
         style="opacity:1;fill:#2196f3;fill-opacity:1;stroke:none;stroke-width:0.05069799;stroke-miterlimit:4;stroke-dasharray:none;stroke-opacity:1"
         inkscape:export-filename="/home/juergen/path4136.png"
         inkscape:export-xdpi="648"
         inkscape:export-ydpi="648" />
    </clipPath>
    <clipPath
       id="clipPath5054"
       clipPathUnits="userSpaceOnUse">
      <circle
         r="10"
         cy="10.000005"
         cx="9.9999781"
         id="circle5056"
         style="opacity:1;fill:#2196f3;fill-opacity:1;stroke:none;stroke-width:0.05069799;stroke-miterlimit:4;stroke-dasharray:none;stroke-opacity:1"
         inkscape:export-filename="/home/juergen/path4136.png"
         inkscape:export-xdpi="648"
         inkscape:export-ydpi="648" />
    </clipPath>
    <linearGradient
       inkscape:collect="always"
       xlink:href="#linearGradient5108"
       id="linearGradient5114"
       x1="10"
       y1="10"
       x2="20"
       y2="20"
       gradientUnits="userSpaceOnUse" />
    <clipPath
       clipPathUnits="userSpaceOnUse"
       id="clipPath5119">
      <circle
         r="10"
         cy="10.000005"
         cx="9.9999781"
         id="circle5121"
         style="opacity:1;fill:#2196f3;fill-opacity:1;stroke:none;stroke-width:0.05069799;stroke-miterlimit:4;stroke-dasharray:none;stroke-opacity:1"
         inkscape:export-filename="/home/juergen/path4136.png"
         inkscape:export-xdpi="648"
         inkscape:export-ydpi="648" />
    </clipPath>
  </defs>
  <metadata
     id="metadata7">
    <rdf:RDF>
      <cc:Work
         rdf:about="">
        <dc:format>image/svg+xml</dc:format>
        <dc:type
           rdf:resource="http://purl.org/dc/dcmitype/StillImage" />
        <dc:title />
      </cc:Work>
    </rdf:RDF>
  </metadata>
  <g
     inkscape:label="Hintergrund"
     inkscape:groupmode="layer"
     id="layer1"
     transform="translate(1058.1428,-861.93365)">
    <circle
       inkscape:export-ydpi="648"
       inkscape:export-xdpi="648"
       inkscape:export-filename="/home/juergen/path4136.png"
       style="opacity:1;fill:#ffc107;fill-opacity:1;stroke:none;stroke-width:0.05069799;stroke-miterlimit:4;stroke-dasharray:none;stroke-opacity:1"
       id="path4136"
       cx="-1048.1428"
       cy="871.93365"
       r="10" />
  </g>
  <g
     style="display:inline"
     inkscape:groupmode="layer"
     id="layer2"
     inkscape:label="Icon">
    <path
       d="M 8.3847656 5.1484375 L 8.3847656 8.6777344 L 6.03125 8.6777344 L 6.1796875 8.8261719 L 6.3261719 8.9746094 L 6.328125 8.9746094 L 6.4726562 9.1210938 L 6.4746094 9.1210938 L 6.7636719 9.4121094 L 6.765625 9.4121094 L 6.9082031 9.5566406 L 6.9101562 9.5566406 L 7.4785156 10.126953 L 7.4804688 10.126953 L 7.6191406 10.267578 L 7.6210938 10.267578 L 7.8984375 10.546875 L 7.9003906 10.546875 L 8.0371094 10.685547 L 8.0390625 10.685547 L 9.25 11.898438 L 9.2519531 11.898438 L 9.3808594 12.029297 L 9.3828125 12.029297 L 9.640625 12.289062 L 9.6425781 12.289062 L 9.7695312 12.417969 L 9.7714844 12.417969 L 10.025391 12.673828 L 10.027344 12.673828 L 10.148438 12.794922 L 10.148438 12.796875 L 10.277344 12.925781 L 10.279297 12.927734 L 10.28125 12.929688 L 10.283203 12.931641 L 10.285156 12.933594 L 10.287109 12.935547 L 10.291016 12.9375 L 10.296875 12.943359 L 10.445312 13.091797 L 10.527344 13.175781 L 10.529297 13.175781 L 10.591797 13.238281 L 10.601562 13.248047 L 10.615234 13.261719 L 10.617188 13.263672 L 10.617188 13.265625 L 10.619141 13.267578 L 10.621094 13.269531 L 10.638672 13.287109 L 10.71875 13.367188 L 10.759766 13.408203 L 10.763672 13.410156 L 10.773438 13.421875 L 10.775391 13.421875 L 10.777344 13.423828 L 10.882812 13.529297 L 11.169922 13.816406 L 11.183594 13.830078 L 11.201172 13.847656 L 11.212891 13.859375 L 11.216797 13.863281 L 11.21875 13.865234 L 11.21875 13.867188 L 11.296875 13.945312 L 11.314453 13.962891 L 11.316406 13.964844 L 11.318359 13.966797 L 11.320312 13.96875 L 11.322266 13.970703 L 11.324219 13.972656 L 6.03125 13.972656 L 6.03125 15.148438 L 6.1796875 15.148438 L 6.1796875 15.296875 L 6.3261719 15.296875 L 6.3261719 15.445312 L 6.4726562 15.445312 L 6.4726562 15.591797 L 6.6191406 15.591797 L 6.6191406 15.736328 L 6.7636719 15.736328 L 6.7636719 15.882812 L 6.9082031 15.882812 L 6.9082031 16.027344 L 7.0527344 16.027344 L 7.0527344 16.169922 L 7.1953125 16.169922 L 7.1953125 16.3125 L 7.3378906 16.3125 L 7.3378906 16.455078 L 7.4785156 16.455078 L 7.4785156 16.597656 L 7.6191406 16.597656 L 7.6191406 16.738281 L 7.7597656 16.738281 L 7.7597656 16.876953 L 7.8984375 16.876953 L 7.8984375 17.017578 L 8.0371094 17.017578 L 8.0371094 17.154297 L 8.1757812 17.154297 L 8.1757812 17.292969 L 8.3125 17.292969 L 8.3125 17.429688 L 8.4492188 17.429688 L 8.4492188 17.566406 L 8.5839844 17.566406 L 8.5839844 17.701172 L 8.71875 17.701172 L 8.71875 17.835938 L 8.8535156 17.835938 L 8.8535156 17.970703 L 8.9863281 17.970703 L 8.9863281 18.103516 L 9.1191406 18.103516 L 9.1191406 18.236328 L 9.25 18.236328 L 9.25 18.369141 L 9.3808594 18.369141 L 9.3808594 18.5 L 9.5117188 18.5 L 9.5117188 18.628906 L 9.640625 18.628906 L 9.640625 18.759766 L 9.7695312 18.759766 L 9.7695312 18.888672 L 9.8984375 18.888672 L 9.8984375 19.015625 L 10.025391 19.015625 L 10.025391 19.142578 L 10.152344 19.142578 L 10.152344 19.269531 L 10.277344 19.269531 L 10.277344 19.396484 L 10.404297 19.396484 L 10.404297 19.521484 L 10.527344 19.521484 L 10.527344 19.644531 L 10.652344 19.644531 L 10.652344 19.769531 L 10.773438 19.769531 L 10.773438 19.892578 L 10.896484 19.892578 L 10.896484 20.013672 L 11.017578 20.013672 L 11.017578 20.134766 L 11.138672 20.134766 L 11.138672 20.255859 L 11.257812 20.255859 L 11.257812 20.376953 L 11.376953 20.376953 L 11.376953 20.496094 L 11.496094 20.496094 L 11.496094 20.613281 L 11.613281 20.613281 L 11.613281 20.730469 L 11.730469 20.730469 L 11.730469 20.847656 L 11.847656 20.847656 L 11.847656 20.964844 L 11.962891 20.964844 L 11.962891 21.080078 L 12.076172 21.080078 L 12.076172 21.195312 L 12.191406 21.195312 L 12.191406 21.308594 L 12.304688 21.308594 L 12.304688 21.421875 L 12.416016 21.421875 L 12.416016 21.535156 L 12.529297 21.535156 L 12.529297 21.646484 L 12.638672 21.646484 L 12.638672 21.757812 L 12.75 21.757812 L 12.75 21.867188 L 12.859375 21.867188 L 12.859375 21.976562 L 12.96875 21.976562 L 12.96875 22.085938 L 13.076172 22.085938 L 13.076172 22.193359 L 13.183594 22.193359 L 13.183594 22.300781 L 13.291016 22.300781 L 13.291016 22.408203 L 13.396484 22.408203 L 13.396484 22.513672 L 13.5 22.513672 L 13.5 22.619141 L 13.605469 22.619141 L 13.605469 22.722656 L 13.708984 22.722656 L 13.708984 22.826172 L 13.8125 22.826172 L 13.8125 22.929688 L 13.914062 22.929688 L 13.914062 23.03125 L 14.015625 23.03125 L 14.015625 23.132812 L 14.115234 23.132812 L 14.115234 23.234375 L 14.214844 23.234375 L 14.214844 23.333984 L 14.314453 23.333984 L 14.314453 23.431641 L 14.414062 23.431641 L 14.414062 23.53125 L 14.511719 23.53125 L 14.511719 23.628906 L 14.607422 23.628906 L 14.607422 23.724609 L 14.703125 23.724609 L 14.703125 23.822266 L 14.798828 23.822266 L 14.798828 23.916016 L 14.894531 23.916016 L 14.894531 24.011719 L 14.988281 24.011719 L 14.988281 24.105469 L 15.082031 24.105469 L 15.082031 24.199219 L 15.173828 24.199219 L 15.173828 24.291016 L 15.265625 24.291016 L 15.265625 24.382812 L 15.355469 24.382812 L 15.355469 24.474609 L 15.447266 24.474609 L 15.447266 24.564453 L 15.535156 24.564453 L 15.535156 24.654297 L 15.625 24.654297 L 15.625 24.742188 L 15.712891 24.742188 L 15.712891 24.830078 L 15.800781 24.830078 L 15.800781 24.917969 L 15.886719 24.917969 L 15.886719 25.003906 L 15.972656 25.003906 L 15.972656 25.089844 L 16.056641 25.089844 L 16.056641 25.175781 L 16.140625 25.175781 L 16.140625 25.259766 L 16.224609 25.259766 L 16.224609 25.341797 L 16.308594 25.341797 L 16.308594 25.425781 L 16.390625 25.425781 L 16.390625 25.507812 L 16.470703 25.507812 L 16.470703 25.587891 L 16.550781 25.587891 L 16.550781 25.669922 L 16.630859 25.669922 L 16.630859 25.75 L 16.710938 25.75 L 16.710938 25.828125 L 16.789062 25.828125 L 16.789062 25.90625 L 16.867188 25.90625 L 16.867188 25.984375 L 16.943359 25.984375 L 16.943359 26.060547 L 17.019531 26.060547 L 17.019531 26.136719 L 17.095703 26.136719 L 17.095703 26.212891 L 17.169922 26.212891 L 17.169922 26.287109 L 17.244141 26.287109 L 17.244141 26.361328 L 17.316406 26.361328 L 17.316406 26.433594 L 17.388672 26.433594 L 17.388672 26.505859 L 17.460938 26.505859 L 17.460938 26.578125 L 17.53125 26.578125 L 17.53125 26.648438 L 17.601562 26.648438 L 17.601562 26.71875 L 17.671875 26.71875 L 17.671875 26.789062 L 17.740234 26.789062 L 17.740234 26.857422 L 17.808594 26.857422 L 17.808594 26.925781 L 17.875 26.925781 L 17.875 26.992188 L 17.941406 26.992188 L 17.941406 27.058594 L 18.007812 27.058594 L 18.007812 27.125 L 18.072266 27.125 L 18.072266 27.189453 L 18.136719 27.189453 L 18.136719 27.253906 L 18.199219 27.253906 L 18.199219 27.318359 L 18.261719 27.318359 L 18.261719 27.380859 L 18.324219 27.380859 L 18.324219 27.441406 L 18.386719 27.441406 L 18.386719 27.503906 L 18.447266 27.503906 L 18.447266 27.564453 L 18.505859 27.564453 L 18.505859 27.623047 L 18.564453 27.623047 L 18.564453 27.683594 L 18.623047 27.683594 L 18.623047 27.740234 L 18.681641 27.740234 L 18.681641 27.798828 L 18.738281 27.798828 L 18.738281 27.855469 L 18.792969 27.855469 L 18.792969 27.912109 L 18.849609 27.912109 L 18.849609 27.966797 L 18.904297 27.966797 L 18.904297 28.021484 L 18.957031 28.021484 L 18.957031 28.076172 L 19.009766 28.076172 L 19.009766 28.128906 L 19.0625 28.128906 L 19.0625 28.181641 L 19.115234 28.181641 L 19.115234 28.232422 L 19.166016 28.232422 L 19.166016 28.283203 L 19.214844 28.283203 L 19.214844 28.333984 L 19.265625 28.333984 L 19.265625 28.382812 L 19.314453 28.382812 L 19.314453 28.431641 L 19.361328 28.431641 L 19.361328 28.478516 L 19.408203 28.478516 L 19.408203 28.527344 L 19.455078 28.527344 L 19.455078 28.572266 L 19.5 28.572266 L 19.5 28.619141 L 19.544922 28.619141 L 19.544922 28.664062 L 19.589844 28.664062 L 19.589844 28.707031 L 19.632812 28.707031 L 19.632812 28.751953 L 19.675781 28.751953 L 19.675781 28.792969 L 19.71875 28.792969 L 19.71875 28.835938 L 19.759766 28.835938 L 19.759766 28.876953 L 19.798828 28.876953 L 19.798828 28.917969 L 19.839844 28.917969 L 19.839844 28.957031 L 19.878906 28.957031 L 19.878906 28.996094 L 19.916016 28.996094 L 19.916016 29.035156 L 19.955078 29.035156 L 19.955078 29.072266 L 19.990234 29.072266 L 19.990234 29.109375 L 20.027344 29.109375 L 20.027344 29.144531 L 20.0625 29.144531 L 20.0625 29.179688 L 20.097656 29.179688 L 20.097656 29.214844 L 20.130859 29.214844 L 20.130859 29.248047 L 20.164062 29.248047 L 20.164062 29.28125 L 20.195312 29.28125 L 20.195312 29.314453 L 20.226562 29.314453 L 20.226562 29.345703 L 20.257812 29.345703 L 20.257812 29.375 L 20.289062 29.375 L 20.289062 29.40625 L 20.318359 29.40625 L 20.318359 29.435547 L 20.345703 29.435547 L 20.345703 29.464844 L 20.375 29.464844 L 20.375 29.492188 L 20.400391 29.492188 L 20.400391 29.519531 L 20.427734 29.519531 L 20.427734 29.544922 L 20.453125 29.544922 L 20.453125 29.570312 L 20.478516 29.570312 L 20.478516 29.595703 L 20.501953 29.595703 L 20.501953 29.619141 L 20.525391 29.619141 L 20.525391 29.642578 L 20.548828 29.642578 L 20.548828 29.666016 L 20.570312 29.666016 L 20.570312 29.6875 L 20.591797 29.6875 L 20.591797 29.708984 L 20.611328 29.708984 L 20.611328 29.728516 L 20.630859 29.728516 L 20.630859 29.748047 L 20.650391 29.748047 L 20.650391 29.767578 L 20.667969 29.767578 L 20.667969 29.787109 L 20.685547 29.787109 L 20.685547 29.802734 L 20.703125 29.802734 L 20.703125 29.820312 L 20.71875 29.820312 L 20.71875 29.835938 L 20.734375 29.835938 L 20.734375 29.851562 L 20.748047 29.851562 L 20.748047 29.865234 L 20.761719 29.865234 L 20.761719 29.878906 L 20.775391 29.878906 L 20.775391 29.892578 L 20.787109 29.892578 L 20.787109 29.904297 L 20.798828 29.904297 L 20.798828 29.916016 L 20.808594 29.916016 L 20.808594 29.927734 L 20.820312 29.927734 L 20.820312 29.9375 L 20.828125 29.9375 L 20.828125 29.947266 L 20.837891 29.947266 L 20.837891 29.955078 L 20.845703 29.955078 L 20.845703 29.962891 L 20.851562 29.962891 L 20.851562 29.970703 L 20.859375 29.970703 L 20.859375 29.976562 L 20.863281 29.976562 L 20.863281 29.982422 L 20.869141 29.982422 L 20.869141 29.986328 L 20.873047 29.986328 L 20.873047 29.990234 L 20.876953 29.990234 L 20.876953 29.994141 L 20.878906 29.994141 L 20.878906 29.996094 L 20.880859 29.996094 L 20.880859 29.998047 L 20.882812 29.998047 L 20.882812 30 L 29.117188 30 L 29.117188 28.822266 L 29.115234 28.822266 L 29.115234 28.820312 L 29.111328 28.820312 L 29.111328 28.818359 L 29.107422 28.818359 L 29.107422 28.814453 L 29.103516 28.814453 L 29.103516 28.810547 L 29.099609 28.810547 L 29.099609 28.804688 L 29.09375 28.804688 L 29.09375 28.798828 L 29.087891 28.798828 L 29.087891 28.792969 L 29.080078 28.792969 L 29.080078 28.787109 L 29.072266 28.787109 L 29.072266 28.779297 L 29.064453 28.779297 L 29.064453 28.769531 L 29.054688 28.769531 L 29.054688 28.761719 L 29.044922 28.761719 L 29.044922 28.75 L 29.033203 28.75 L 29.033203 28.740234 L 29.023438 28.740234 L 29.023438 28.728516 L 29.009766 28.728516 L 29.009766 28.716797 L 28.998047 28.716797 L 28.998047 28.703125 L 28.984375 28.703125 L 28.984375 28.689453 L 28.96875 28.689453 L 28.96875 28.675781 L 28.953125 28.675781 L 28.953125 28.660156 L 28.9375 28.660156 L 28.9375 28.644531 L 28.921875 28.644531 L 28.921875 28.626953 L 28.904297 28.626953 L 28.904297 28.609375 L 28.884766 28.609375 L 28.884766 28.591797 L 28.867188 28.591797 L 28.867188 28.572266 L 28.847656 28.572266 L 28.847656 28.552734 L 28.826172 28.552734 L 28.826172 28.533203 L 28.804688 28.533203 L 28.804688 28.511719 L 28.783203 28.511719 L 28.783203 28.490234 L 28.761719 28.490234 L 28.761719 28.466797 L 28.738281 28.466797 L 28.738281 28.443359 L 28.712891 28.443359 L 28.712891 28.419922 L 28.6875 28.419922 L 28.6875 28.394531 L 28.662109 28.394531 L 28.662109 28.369141 L 28.636719 28.369141 L 28.636719 28.341797 L 28.609375 28.341797 L 28.609375 28.314453 L 28.582031 28.314453 L 28.582031 28.287109 L 28.552734 28.287109 L 28.552734 28.259766 L 28.523438 28.259766 L 28.523438 28.228516 L 28.494141 28.228516 L 28.494141 28.199219 L 28.462891 28.199219 L 28.462891 28.167969 L 28.431641 28.167969 L 28.431641 28.136719 L 28.398438 28.136719 L 28.398438 28.105469 L 28.365234 28.105469 L 28.365234 28.072266 L 28.332031 28.072266 L 28.332031 28.037109 L 28.296875 28.037109 L 28.296875 28.003906 L 28.261719 28.003906 L 28.261719 27.96875 L 28.226562 27.96875 L 28.226562 27.931641 L 28.189453 27.931641 L 28.189453 27.894531 L 28.152344 27.894531 L 28.152344 27.857422 L 28.113281 27.857422 L 28.113281 27.820312 L 28.074219 27.820312 L 28.074219 27.78125 L 28.035156 27.78125 L 28.035156 27.740234 L 27.994141 27.740234 L 27.994141 27.701172 L 27.953125 27.701172 L 27.953125 27.660156 L 27.912109 27.660156 L 27.912109 27.617188 L 27.869141 27.617188 L 27.869141 27.574219 L 27.826172 27.574219 L 27.826172 27.53125 L 27.78125 27.53125 L 27.78125 27.486328 L 27.736328 27.486328 L 27.736328 27.441406 L 27.691406 27.441406 L 27.691406 27.396484 L 27.644531 27.396484 L 27.644531 27.349609 L 27.597656 27.349609 L 27.597656 27.302734 L 27.548828 27.302734 L 27.548828 27.255859 L 27.5 27.255859 L 27.5 27.207031 L 27.451172 27.207031 L 27.451172 27.15625 L 27.400391 27.15625 L 27.400391 27.107422 L 27.349609 27.107422 L 27.349609 27.056641 L 27.298828 27.056641 L 27.298828 27.003906 L 27.246094 27.003906 L 27.246094 26.951172 L 27.193359 26.951172 L 27.193359 26.898438 L 27.138672 26.898438 L 27.138672 26.845703 L 27.083984 26.845703 L 27.083984 26.791016 L 27.029297 26.791016 L 27.029297 26.734375 L 26.972656 26.734375 L 26.972656 26.679688 L 26.916016 26.679688 L 26.916016 26.623047 L 26.859375 26.623047 L 26.859375 26.564453 L 26.800781 26.564453 L 26.800781 26.505859 L 26.742188 26.505859 L 26.742188 26.447266 L 26.681641 26.447266 L 26.681641 26.386719 L 26.621094 26.386719 L 26.621094 26.326172 L 26.560547 26.326172 L 26.560547 26.265625 L 26.498047 26.265625 L 26.498047 26.203125 L 26.443359 26.203125 L 29.117188 23.529297 L 29.111328 23.529297 L 29.113281 23.527344 L 29.115234 23.527344 L 29.115234 23.525391 L 29.109375 23.525391 L 29.111328 23.523438 L 29.103516 23.523438 L 29.107422 23.519531 L 29.099609 23.519531 L 29.103516 23.515625 L 29.095703 23.515625 L 29.099609 23.511719 L 29.087891 23.511719 L 29.09375 23.505859 L 29.082031 23.505859 L 29.087891 23.5 L 29.072266 23.5 L 29.080078 23.492188 L 29.064453 23.492188 L 29.072266 23.484375 L 29.056641 23.484375 L 29.064453 23.476562 L 29.044922 23.476562 L 29.054688 23.466797 L 29.035156 23.466797 L 29.044922 23.457031 L 29.021484 23.457031 L 29.033203 23.445312 L 29.011719 23.445312 L 29.023438 23.433594 L 28.998047 23.433594 L 29.009766 23.421875 L 28.984375 23.421875 L 28.998047 23.408203 L 28.970703 23.408203 L 28.984375 23.394531 L 28.955078 23.394531 L 28.96875 23.380859 L 28.9375 23.380859 L 28.953125 23.365234 L 28.921875 23.365234 L 28.9375 23.349609 L 28.90625 23.349609 L 28.921875 23.333984 L 28.886719 23.333984 L 28.904297 23.316406 L 28.865234 23.316406 L 28.884766 23.296875 L 28.849609 23.296875 L 28.867188 23.279297 L 28.826172 23.279297 L 28.847656 23.257812 L 28.806641 23.257812 L 28.826172 23.238281 L 28.783203 23.238281 L 28.804688 23.216797 L 28.761719 23.216797 L 28.783203 23.195312 L 28.738281 23.195312 L 28.761719 23.171875 L 28.714844 23.171875 L 28.738281 23.148438 L 28.689453 23.148438 L 28.712891 23.125 L 28.662109 23.125 L 28.6875 23.099609 L 28.636719 23.099609 L 28.662109 23.074219 L 28.611328 23.074219 L 28.636719 23.048828 L 28.582031 23.048828 L 28.609375 23.021484 L 28.554688 23.021484 L 28.582031 22.994141 L 28.523438 22.994141 L 28.552734 22.964844 L 28.494141 22.964844 L 28.523438 22.935547 L 28.464844 22.935547 L 28.494141 22.90625 L 28.431641 22.90625 L 28.462891 22.875 L 28.400391 22.875 L 28.431641 22.84375 L 28.365234 22.84375 L 28.398438 22.810547 L 28.332031 22.810547 L 28.365234 22.777344 L 28.298828 22.777344 L 28.332031 22.744141 L 28.261719 22.744141 L 28.296875 22.708984 L 28.226562 22.708984 L 28.261719 22.673828 L 28.191406 22.673828 L 28.226562 22.638672 L 28.152344 22.638672 L 28.189453 22.601562 L 28.115234 22.601562 L 28.152344 22.564453 L 28.074219 22.564453 L 28.113281 22.525391 L 28.035156 22.525391 L 28.074219 22.486328 L 27.996094 22.486328 L 28.035156 22.447266 L 27.953125 22.447266 L 27.994141 22.40625 L 27.912109 22.40625 L 27.953125 22.365234 L 27.869141 22.365234 L 27.912109 22.322266 L 27.828125 22.322266 L 27.869141 22.28125 L 27.78125 22.28125 L 27.826172 22.236328 L 27.738281 22.236328 L 27.78125 22.193359 L 27.691406 22.193359 L 27.736328 22.148438 L 27.644531 22.148438 L 27.691406 22.101562 L 27.599609 22.101562 L 27.644531 22.056641 L 27.548828 22.056641 L 27.597656 22.007812 L 27.501953 22.007812 L 27.548828 21.960938 L 27.451172 21.960938 L 27.5 21.912109 L 27.402344 21.912109 L 27.451172 21.863281 L 27.349609 21.863281 L 27.400391 21.8125 L 27.298828 21.8125 L 27.349609 21.761719 L 27.248047 21.761719 L 27.298828 21.710938 L 27.193359 21.710938 L 27.246094 21.658203 L 27.140625 21.658203 L 27.193359 21.605469 L 27.083984 21.605469 L 27.138672 21.550781 L 27.029297 21.550781 L 27.083984 21.496094 L 26.974609 21.496094 L 27.029297 21.441406 L 26.916016 21.441406 L 26.972656 21.384766 L 26.859375 21.384766 L 26.916016 21.328125 L 26.802734 21.328125 L 26.859375 21.271484 L 26.763672 21.271484 L 26.763672 21.25 L 26.800781 21.212891 L 26.763672 21.212891 L 26.763672 20 L 26.763672 19.998047 L 26.761719 19.998047 L 26.761719 19.996094 L 26.757812 19.996094 L 26.757812 19.994141 L 26.755859 19.994141 L 26.755859 19.990234 L 26.751953 19.990234 L 26.751953 19.986328 L 26.746094 19.986328 L 26.746094 19.982422 L 26.740234 19.982422 L 26.740234 19.976562 L 26.734375 19.976562 L 26.734375 19.970703 L 26.728516 19.970703 L 26.728516 19.962891 L 26.720703 19.962891 L 26.720703 19.955078 L 26.710938 19.955078 L 26.710938 19.947266 L 26.701172 19.947266 L 26.701172 19.9375 L 26.691406 19.9375 L 26.691406 19.927734 L 26.681641 19.927734 L 26.681641 19.916016 L 26.669922 19.916016 L 26.669922 19.904297 L 26.658203 19.904297 L 26.658203 19.892578 L 26.644531 19.892578 L 26.644531 19.878906 L 26.630859 19.878906 L 26.630859 19.865234 L 26.615234 19.865234 L 26.615234 19.851562 L 26.601562 19.851562 L 26.601562 19.835938 L 26.585938 19.835938 L 26.585938 19.820312 L 26.568359 19.820312 L 26.568359 19.802734 L 26.550781 19.802734 L 26.550781 19.787109 L 26.533203 19.787109 L 26.533203 19.767578 L 26.513672 19.767578 L 26.513672 19.748047 L 26.494141 19.748047 L 26.494141 19.728516 L 26.472656 19.728516 L 26.472656 19.708984 L 26.453125 19.708984 L 26.453125 19.6875 L 26.429688 19.6875 L 26.429688 19.666016 L 26.408203 19.666016 L 26.408203 19.642578 L 26.384766 19.642578 L 26.384766 19.619141 L 26.361328 19.619141 L 26.361328 19.595703 L 26.335938 19.595703 L 26.335938 19.570312 L 26.310547 19.570312 L 26.310547 19.544922 L 26.283203 19.544922 L 26.283203 19.519531 L 26.255859 19.519531 L 26.255859 19.492188 L 26.228516 19.492188 L 26.228516 19.464844 L 26.199219 19.464844 L 26.199219 19.435547 L 26.169922 19.435547 L 26.169922 19.40625 L 26.140625 19.40625 L 26.140625 19.375 L 26.109375 19.375 L 26.109375 19.345703 L 26.078125 19.345703 L 26.078125 19.314453 L 26.044922 19.314453 L 26.044922 19.28125 L 26.013672 19.28125 L 26.013672 19.248047 L 25.978516 19.248047 L 25.978516 19.214844 L 25.945312 19.214844 L 25.945312 19.179688 L 25.910156 19.179688 L 25.910156 19.144531 L 25.873047 19.144531 L 25.873047 19.109375 L 25.835938 19.109375 L 25.835938 19.072266 L 25.798828 19.072266 L 25.798828 19.035156 L 25.761719 19.035156 L 25.761719 18.996094 L 25.722656 18.996094 L 25.722656 18.957031 L 25.681641 18.957031 L 25.681641 18.917969 L 25.640625 18.917969 L 25.640625 18.876953 L 25.599609 18.876953 L 25.599609 18.835938 L 25.558594 18.835938 L 25.558594 18.792969 L 25.515625 18.792969 L 25.515625 18.751953 L 25.472656 18.751953 L 25.472656 18.707031 L 25.427734 18.707031 L 25.427734 18.664062 L 25.382812 18.664062 L 25.382812 18.619141 L 25.337891 18.619141 L 25.337891 18.572266 L 25.291016 18.572266 L 25.291016 18.527344 L 25.244141 18.527344 L 25.244141 18.478516 L 25.195312 18.478516 L 25.195312 18.431641 L 25.146484 18.431641 L 25.146484 18.382812 L 25.097656 18.382812 L 25.097656 18.333984 L 25.048828 18.333984 L 25.048828 18.283203 L 24.996094 18.283203 L 24.996094 18.232422 L 24.945312 18.232422 L 24.945312 18.181641 L 24.892578 18.181641 L 24.892578 18.128906 L 24.839844 18.128906 L 24.839844 18.076172 L 24.787109 18.076172 L 24.787109 18.021484 L 24.732422 18.021484 L 24.732422 17.966797 L 24.675781 17.966797 L 24.675781 17.912109 L 24.621094 17.912109 L 24.621094 17.855469 L 24.5625 17.855469 L 24.5625 17.798828 L 24.505859 17.798828 L 24.505859 17.740234 L 24.447266 17.740234 L 24.447266 17.683594 L 24.388672 17.683594 L 24.388672 17.623047 L 24.328125 17.623047 L 24.328125 17.564453 L 24.267578 17.564453 L 24.267578 17.503906 L 24.207031 17.503906 L 24.207031 17.441406 L 24.144531 17.441406 L 24.144531 17.380859 L 24.082031 17.380859 L 24.082031 17.318359 L 24.019531 17.318359 L 24.019531 17.253906 L 23.955078 17.253906 L 23.955078 17.189453 L 23.888672 17.189453 L 23.888672 17.125 L 23.824219 17.125 L 23.824219 17.058594 L 23.757812 17.058594 L 23.757812 16.992188 L 23.689453 16.992188 L 23.689453 16.925781 L 23.623047 16.925781 L 23.623047 16.857422 L 23.552734 16.857422 L 23.552734 16.789062 L 23.484375 16.789062 L 23.484375 16.71875 L 23.414062 16.71875 L 23.414062 16.648438 L 23.34375 16.648438 L 23.34375 16.578125 L 23.271484 16.578125 L 23.271484 16.505859 L 23.199219 16.505859 L 23.199219 16.433594 L 23.125 16.433594 L 23.125 16.361328 L 23.052734 16.361328 L 23.052734 16.287109 L 22.976562 16.287109 L 22.976562 16.212891 L 22.902344 16.212891 L 22.902344 16.136719 L 22.826172 16.136719 L 22.826172 16.060547 L 22.748047 16.060547 L 22.748047 15.984375 L 22.671875 15.984375 L 22.671875 15.90625 L 22.59375 15.90625 L 22.59375 15.828125 L 22.513672 15.828125 L 22.513672 15.75 L 22.433594 15.75 L 22.433594 15.669922 L 22.353516 15.669922 L 22.353516 15.587891 L 22.271484 15.587891 L 22.271484 15.507812 L 22.189453 15.507812 L 22.189453 15.425781 L 22.107422 15.425781 L 22.107422 15.341797 L 22.023438 15.341797 L 22.023438 15.259766 L 21.939453 15.259766 L 21.939453 15.175781 L 21.855469 15.175781 L 21.855469 15.089844 L 21.769531 15.089844 L 21.769531 15.003906 L 21.681641 15.003906 L 21.681641 14.917969 L 21.595703 14.917969 L 21.595703 14.830078 L 21.507812 14.830078 L 21.507812 14.742188 L 21.417969 14.742188 L 21.417969 14.654297 L 21.328125 14.654297 L 21.328125 14.564453 L 21.238281 14.564453 L 21.238281 14.474609 L 21.148438 14.474609 L 21.148438 14.382812 L 21.056641 14.382812 L 21.056641 14.291016 L 20.962891 14.291016 L 20.962891 14.199219 L 20.871094 14.199219 L 20.871094 14.105469 L 20.775391 14.105469 L 20.775391 14.011719 L 20.681641 14.011719 L 20.681641 13.916016 L 20.585938 13.916016 L 20.585938 13.822266 L 20.490234 13.822266 L 20.490234 13.724609 L 20.392578 13.724609 L 20.392578 13.628906 L 20.294922 13.628906 L 20.294922 13.53125 L 20.197266 13.53125 L 20.197266 13.431641 L 20.097656 13.431641 L 20.097656 13.333984 L 19.998047 13.333984 L 19.998047 13.234375 L 19.898438 13.234375 L 19.898438 13.132812 L 19.796875 13.132812 L 19.796875 13.03125 L 19.693359 13.03125 L 19.693359 12.929688 L 19.591797 12.929688 L 19.591797 12.826172 L 19.488281 12.826172 L 19.488281 12.722656 L 19.382812 12.722656 L 19.382812 12.619141 L 19.277344 12.619141 L 19.277344 12.513672 L 19.171875 12.513672 L 19.171875 12.408203 L 19.066406 12.408203 L 19.066406 12.300781 L 18.958984 12.300781 L 18.958984 12.193359 L 18.849609 12.193359 L 18.849609 12.085938 L 18.742188 12.085938 L 18.742188 11.976562 L 18.632812 11.976562 L 18.632812 11.867188 L 18.521484 11.867188 L 18.521484 11.757812 L 18.410156 11.757812 L 18.410156 11.646484 L 18.298828 11.646484 L 18.298828 11.535156 L 18.1875 11.535156 L 18.1875 11.421875 L 18.074219 11.421875 L 18.074219 11.308594 L 17.958984 11.308594 L 17.958984 11.195312 L 17.845703 11.195312 L 17.845703 11.080078 L 17.728516 11.080078 L 17.728516 10.964844 L 17.613281 10.964844 L 17.613281 10.847656 L 17.496094 10.847656 L 17.496094 10.730469 L 17.378906 10.730469 L 17.378906 10.613281 L 17.259766 10.613281 L 17.259766 10.496094 L 17.140625 10.496094 L 17.140625 10.376953 L 17.021484 10.376953 L 17.021484 10.255859 L 16.900391 10.255859 L 16.900391 10.134766 L 16.779297 10.134766 L 16.779297 10.013672 L 16.65625 10.013672 L 16.65625 9.8925781 L 16.533203 9.8925781 L 16.533203 9.7695312 L 16.410156 9.7695312 L 16.410156 9.6445312 L 16.285156 9.6445312 L 16.285156 9.5214844 L 16.160156 9.5214844 L 16.160156 9.3964844 L 16.035156 9.3964844 L 16.035156 9.2695312 L 15.908203 9.2695312 L 15.908203 9.1425781 L 15.78125 9.1425781 L 15.78125 9.015625 L 15.652344 9.015625 L 15.652344 8.8886719 L 15.523438 8.8886719 L 15.523438 8.7597656 L 15.394531 8.7597656 L 15.394531 8.6289062 L 15.263672 8.6289062 L 15.263672 8.5 L 15.132812 8.5 L 15.132812 8.3691406 L 15.001953 8.3691406 L 15.001953 8.2363281 L 14.869141 8.2363281 L 14.869141 8.1035156 L 14.734375 8.1035156 L 14.734375 7.9707031 L 14.601562 7.9707031 L 14.601562 7.8359375 L 14.466797 7.8359375 L 14.466797 7.7011719 L 14.330078 7.7011719 L 14.330078 7.5664062 L 14.195312 7.5664062 L 14.195312 7.4296875 L 14.058594 7.4296875 L 14.058594 7.2929688 L 13.919922 7.2929688 L 13.919922 7.1542969 L 13.78125 7.1542969 L 13.78125 7.0175781 L 13.642578 7.0175781 L 13.642578 6.8769531 L 13.501953 6.8769531 L 13.501953 6.7382812 L 13.361328 6.7382812 L 13.361328 6.5976562 L 13.220703 6.5976562 L 13.220703 6.4550781 L 13.078125 6.4550781 L 13.078125 6.3125 L 12.935547 6.3125 L 12.935547 6.1699219 L 12.791016 6.1699219 L 12.791016 6.0273438 L 12.646484 6.0273438 L 12.646484 5.8828125 L 12.501953 5.8828125 L 12.501953 5.7363281 L 12.355469 5.7363281 L 12.355469 5.5917969 L 12.208984 5.5917969 L 12.208984 5.4453125 L 12.0625 5.4453125 L 12.0625 5.296875 L 11.914062 5.296875 L 11.914062 5.1484375 L 8.3847656 5.1484375 z "
       id="path4271"
       style="fill-opacity:1;fill:url(#linearGradient5114);opacity:0.2"
       clip-path="url(#clipPath5119)" />
    <path
       d="m 3.9999777,4.0333382 12.0000003,0 0,11.9333328 -12.0000003,0 z"
       id="path4"
       inkscape:connector-curvature="0"
       style="fill:none" />
    <path
       style="fill:none"
       inkscape:connector-curvature="0"
       id="path9754"
       d="m 18.999978,19.033339 12,0 0,11.933333 -12,0 z" />
    <path
       inkscape:connector-curvature="0"
       d="m 5.8823307,15.000005 8.2352943,0 0,-1.176471 -8.2352943,0 m 8.2352943,-5.2941175 -2.352941,0 0,-3.5294117 -3.5294123,0 0,3.5294117 -2.352941,0 4.117647,4.1176475 4.1176473,-4.1176475 z"
       id="path4219"
       style="fill:#fafafa" />
  </g>
</svg>
