<?xml version="1.0" encoding="UTF-8" standalone="no"?>
<!-- Created with Inkscape (http://www.inkscape.org/) -->

<svg
   xmlns:dc="http://purl.org/dc/elements/1.1/"
   xmlns:cc="http://creativecommons.org/ns#"
   xmlns:rdf="http://www.w3.org/1999/02/22-rdf-syntax-ns#"
   xmlns:svg="http://www.w3.org/2000/svg"
   xmlns="http://www.w3.org/2000/svg"
   xmlns:xlink="http://www.w3.org/1999/xlink"
   xmlns:sodipodi="http://sodipodi.sourceforge.net/DTD/sodipodi-0.dtd"
   xmlns:inkscape="http://www.inkscape.org/namespaces/inkscape"
   sodipodi:docname="ebay.svg"
   inkscape:version="0.91 r13725"
   version="1.1"
   id="svg2"
   viewBox="0 0 20 20"
   height="5.6444445mm"
   width="5.6444445mm">
  <sodipodi:namedview
     inkscape:snap-to-guides="true"
     inkscape:snap-grids="true"
     inkscape:window-maximized="1"
     inkscape:window-y="24"
     inkscape:window-x="0"
     inkscape:window-height="744"
     inkscape:window-width="1366"
     inkscape:guide-bbox="true"
     showguides="true"
     fit-margin-bottom="0"
     fit-margin-right="0"
     fit-margin-left="0"
     fit-margin-top="0"
     showgrid="true"
     inkscape:current-layer="layer2"
     inkscape:document-units="px"
     inkscape:cy="-5.0039484"
     inkscape:cx="10.076059"
     inkscape:zoom="15.839192"
     inkscape:pageshadow="2"
     inkscape:pageopacity="0.0"
     borderopacity="1.0"
     bordercolor="#666666"
     pagecolor="#ffffff"
     id="base">
    <inkscape:grid
       id="grid4138"
       type="xygrid" />
    <sodipodi:guide
       id="guide4140"
       orientation="0,1"
       position="10,18" />
    <sodipodi:guide
       id="guide4142"
       orientation="0,1"
       position="10,2" />
    <sodipodi:guide
       id="guide4144"
       orientation="1,0"
       position="2,10" />
    <sodipodi:guide
       id="guide4146"
       orientation="0,20"
       position="0,0" />
    <sodipodi:guide
       id="guide4148"
       orientation="-20,0"
       position="20,0" />
    <sodipodi:guide
       id="guide4150"
       orientation="0,-20"
       position="20,20" />
    <sodipodi:guide
       id="guide4152"
       orientation="20,0"
       position="0,20" />
    <sodipodi:guide
       id="guide4154"
       orientation="1,0"
       position="18,10" />
    <sodipodi:guide
       id="guide4160"
       orientation="1,0"
       position="4,10" />
    <sodipodi:guide
       id="guide4162"
       orientation="1,0"
       position="16,10" />
    <sodipodi:guide
       id="guide4164"
       orientation="0,1"
       position="10,16" />
    <sodipodi:guide
       id="guide4166"
       orientation="0,1"
       position="10,4" />
    <sodipodi:guide
       id="guide4168"
       orientation="0,1"
       position="10,15" />
    <sodipodi:guide
       id="guide4170"
       orientation="0,1"
       position="10,5" />
    <sodipodi:guide
       id="guide4172"
       orientation="1,0"
       position="5,10" />
    <sodipodi:guide
       id="guide4174"
       orientation="1,0"
       position="15,10" />
  </sodipodi:namedview>
  <defs
     id="defs4">
    <linearGradient
       inkscape:collect="always"
       id="linearGradient11428">
      <stop
         style="stop-color:#000000;stop-opacity:0.2"
         offset="0"
         id="stop11430" />
      <stop
         style="stop-color:#000000;stop-opacity:0;"
         offset="1"
         id="stop11432" />
    </linearGradient>
    <clipPath
       clipPathUnits="userSpaceOnUse"
       id="clipPath12478">
      <circle
         style="opacity:1;fill:#2196f3;fill-opacity:1;stroke:none;stroke-width:0.05069799;stroke-miterlimit:4;stroke-dasharray:none;stroke-opacity:1"
         id="circle12480"
         cx="9.9999781"
         cy="10.000005"
         r="10" />
    </clipPath>
    <clipPath
       id="clipPath5790"
       clipPathUnits="userSpaceOnUse">
      <circle
         inkscape:export-ydpi="648"
         inkscape:export-xdpi="648"
         inkscape:export-filename="/home/juergen/path4136.png"
         style="opacity:1;fill:#2196f3;fill-opacity:1;stroke:none;stroke-width:0.05069799;stroke-miterlimit:4;stroke-dasharray:none;stroke-opacity:1"
         id="circle5792"
         cx="9.9999781"
         cy="10.000005"
         r="10" />
    </clipPath>
    <clipPath
       clipPathUnits="userSpaceOnUse"
       id="clipPath7690">
      <circle
         inkscape:export-ydpi="648"
         inkscape:export-xdpi="648"
         inkscape:export-filename="/home/juergen/Schreibtisch/path4136.png"
         style="opacity:1;fill:#2196f3;fill-opacity:1;stroke:none;stroke-width:0.05069799;stroke-miterlimit:4;stroke-dasharray:none;stroke-opacity:1"
         id="circle7692"
         cx="9.9999781"
         cy="10.000005"
         r="10" />
    </clipPath>
    <clipPath
       id="clipPath5119"
       clipPathUnits="userSpaceOnUse">
      <circle
         inkscape:export-ydpi="648"
         inkscape:export-xdpi="648"
         inkscape:export-filename="/home/juergen/Schreibtisch/path4136.png"
         style="opacity:1;fill:#ff9800;fill-opacity:1;stroke:none;stroke-width:0.05069799;stroke-miterlimit:4;stroke-dasharray:none;stroke-opacity:1"
         id="circle5121"
         cx="9.9999781"
         cy="10.000005"
         r="10" />
    </clipPath>
    <clipPath
       clipPathUnits="userSpaceOnUse"
       id="clipPath5125">
      <circle
         inkscape:export-ydpi="648"
         inkscape:export-xdpi="648"
         inkscape:export-filename="/home/juergen/Schreibtisch/path4136.png"
         style="opacity:1;fill:#e91e63;fill-opacity:1;stroke:none;stroke-width:0.05069799;stroke-miterlimit:4;stroke-dasharray:none;stroke-opacity:1"
         id="circle5127"
         cx="9.9999781"
         cy="10.000005"
         r="10" />
    </clipPath>
    <clipPath
       id="clipPath6122"
       clipPathUnits="userSpaceOnUse">
      <circle
         inkscape:export-ydpi="648"
         inkscape:export-xdpi="648"
         inkscape:export-filename="/home/juergen/Schreibtisch/path4136.png"
         style="opacity:1;fill:#ffc107;fill-opacity:1;stroke:none;stroke-width:0.05069799;stroke-miterlimit:4;stroke-dasharray:none;stroke-opacity:1"
         id="circle6124"
         cx="9.9999781"
         cy="10.000005"
         r="10" />
    </clipPath>
    <clipPath
       clipPathUnits="userSpaceOnUse"
       id="clipPath5142">
      <circle
         inkscape:export-ydpi="648"
         inkscape:export-xdpi="648"
         inkscape:export-filename="/home/juergen/Schreibtisch/path4136.png"
         style="opacity:1;fill:#ffc107;fill-opacity:1;stroke:none;stroke-width:0.05069799;stroke-miterlimit:4;stroke-dasharray:none;stroke-opacity:1"
         id="circle5144"
         cx="9.9999781"
         cy="10.000005"
         r="10" />
    </clipPath>
    <clipPath
       id="clipPath6137"
       clipPathUnits="userSpaceOnUse">
      <circle
         inkscape:export-ydpi="648"
         inkscape:export-xdpi="648"
         inkscape:export-filename="/home/juergen/Projekte/Android/Android_Studio/Baumann_Theme/theme/src/main/assets/icons/res/drawable-xxhdpi/a159.png"
         style="opacity:1;fill:#ffc107;fill-opacity:1;stroke:none;stroke-width:0.05069799;stroke-miterlimit:4;stroke-dasharray:none;stroke-opacity:1"
         id="circle6139"
         cx="9.9999781"
         cy="10.000005"
         r="10" />
    </clipPath>
    <clipPath
       id="clipPath8232"
       clipPathUnits="userSpaceOnUse">
      <circle
         inkscape:export-ydpi="648"
         inkscape:export-xdpi="648"
         inkscape:export-filename="/home/juergen/Projekte/Android/Android_Studio/Baumann_Theme/theme/src/main/assets/icons/res/drawable-xxhdpi/a161.png"
         style="opacity:1;fill:#3f51b5;fill-opacity:1;stroke:none;stroke-width:0.05069799;stroke-miterlimit:4;stroke-dasharray:none;stroke-opacity:1"
         id="circle8234"
         cx="9.9999781"
         cy="10.000005"
         r="10" />
    </clipPath>
    <clipPath
       id="clipPath8239"
       clipPathUnits="userSpaceOnUse">
      <circle
         inkscape:export-ydpi="648"
         inkscape:export-xdpi="648"
         inkscape:export-filename="/home/juergen/Projekte/Android/Android_Studio/Baumann_Theme/theme/src/main/assets/icons/res/drawable-xxhdpi/a161.png"
         style="opacity:1;fill:#3f51b5;fill-opacity:1;stroke:none;stroke-width:0.05069799;stroke-miterlimit:4;stroke-dasharray:none;stroke-opacity:1"
         id="circle8241"
         cx="9.9999781"
         cy="10.000005"
         r="10" />
    </clipPath>
    <clipPath
       clipPathUnits="userSpaceOnUse"
       id="clipPath9250">
      <circle
         inkscape:export-ydpi="648"
         inkscape:export-xdpi="648"
         inkscape:export-filename="/home/juergen/Projekte/Android/Android_Studio/Baumann_Theme/theme/src/main/assets/icons/res/drawable-xxhdpi/a162.png"
         style="opacity:1;fill:#03a9f4;fill-opacity:1;stroke:none;stroke-width:0.05069799;stroke-miterlimit:4;stroke-dasharray:none;stroke-opacity:1"
         id="circle9252"
         cx="9.9999781"
         cy="10.000005"
         r="10" />
    </clipPath>
    <clipPath
       clipPathUnits="userSpaceOnUse"
       id="clipPath9257">
      <circle
         inkscape:export-ydpi="648"
         inkscape:export-xdpi="648"
         inkscape:export-filename="/home/juergen/Projekte/Android/Android_Studio/Baumann_Theme/theme/src/main/assets/icons/res/drawable-xxhdpi/a162.png"
         style="opacity:1;fill:#03a9f4;fill-opacity:1;stroke:none;stroke-width:0.05069799;stroke-miterlimit:4;stroke-dasharray:none;stroke-opacity:1"
         id="circle9259"
         cx="9.9999781"
         cy="10.000005"
         r="10" />
    </clipPath>
    <clipPath
       id="clipPath10280"
       clipPathUnits="userSpaceOnUse">
      <circle
         inkscape:export-ydpi="648"
         inkscape:export-xdpi="648"
         inkscape:export-filename="/home/juergen/Projekte/Android/Android_Studio/Baumann_Theme/theme/src/main/assets/icons/res/drawable-xxhdpi/a162.png"
         style="opacity:1;fill:#4caf50;fill-opacity:1;stroke:none;stroke-width:0.05069799;stroke-miterlimit:4;stroke-dasharray:none;stroke-opacity:1"
         id="circle10282"
         cx="9.9999781"
         cy="10.000005"
         r="10" />
    </clipPath>
    <linearGradient
       inkscape:collect="always"
       xlink:href="#linearGradient11428"
       id="linearGradient11434"
       x1="10"
       y1="10"
       x2="20"
       y2="20"
       gradientUnits="userSpaceOnUse" />
    <clipPath
       clipPathUnits="userSpaceOnUse"
       id="clipPath11439">
      <circle
         inkscape:export-ydpi="648"
         inkscape:export-xdpi="648"
         inkscape:export-filename="/home/juergen/Projekte/Android/Android_Studio/Baumann_Theme/theme/src/main/assets/icons/res/drawable-xxhdpi/a163.png"
         style="opacity:1;fill:#03a9f4;fill-opacity:1;stroke:none;stroke-width:0.05069799;stroke-miterlimit:4;stroke-dasharray:none;stroke-opacity:1"
         id="circle11441"
         cx="9.9999781"
         cy="10.000005"
         r="10" />
    </clipPath>
  </defs>
  <metadata
     id="metadata7">
    <rdf:RDF>
      <cc:Work
         rdf:about="">
        <dc:format>image/svg+xml</dc:format>
        <dc:type
           rdf:resource="http://purl.org/dc/dcmitype/StillImage" />
        <dc:title></dc:title>
      </cc:Work>
    </rdf:RDF>
  </metadata>
  <g
     transform="translate(1058.1428,-861.93365)"
     id="layer1"
     inkscape:groupmode="layer"
     inkscape:label="Hintergrund">
    <circle
       r="10"
       cy="871.93365"
       cx="-1048.1428"
       id="path4136"
       style="opacity:1;fill:#3f51b5;fill-opacity:1;stroke:none;stroke-width:0.05069799;stroke-miterlimit:4;stroke-dasharray:none;stroke-opacity:1"
       inkscape:export-filename="/home/juergen/Projekte/Android/Android_Studio/Baumann_Theme/theme/src/main/assets/icons/res/drawable-xxhdpi/a161.png"
       inkscape:export-xdpi="648"
       inkscape:export-ydpi="648" />
    <circle
       inkscape:export-ydpi="648"
       inkscape:export-xdpi="648"
       inkscape:export-filename="/home/juergen/Projekte/Android/Android_Studio/Baumann_Theme/theme/src/main/assets/icons/res/drawable-xxhdpi/a161.png"
       style="opacity:1;fill:#3f51b5;fill-opacity:1;stroke:none;stroke-width:0.05069799;stroke-miterlimit:4;stroke-dasharray:none;stroke-opacity:1"
       id="circle6169"
       cx="-1048.1428"
       cy="871.93365"
       r="10" />
    <circle
       r="10"
       cy="871.93365"
       cx="-1048.1428"
       id="circle8216"
       style="opacity:1;fill:#f44336;fill-opacity:1;stroke:none;stroke-width:0.05069799;stroke-miterlimit:4;stroke-dasharray:none;stroke-opacity:1"
       inkscape:export-filename="/home/juergen/Projekte/Android/Android_Studio/Baumann_Theme/theme/src/main/assets/icons/res/drawable-xxhdpi/a163.png"
       inkscape:export-xdpi="648"
       inkscape:export-ydpi="648" />
  </g>
  <g
     inkscape:label="Icon"
     id="layer2"
     inkscape:groupmode="layer"
     style="display:inline">
    <path
       d="M 11.373047 7.8339844 L 11.558594 8.2089844 C 11.454111 8.1973134 11.337042 8.1855469 11.208984 8.1855469 C 10.918413 8.1855469 10.66242 8.2323647 10.488281 8.3730469 C 10.302077 8.490131 10.197266 8.7110374 10.197266 9.0507812 L 10.285156 9.0507812 C 10.283484 9.0794247 10.271484 9.0964245 10.271484 9.1269531 L 10.361328 9.1269531 C 10.359735 9.1549504 10.347656 9.171379 10.347656 9.2011719 L 10.435547 9.2011719 C 10.433956 9.229149 10.421875 9.2456207 10.421875 9.2753906 L 10.509766 9.2753906 C 10.508161 9.3034851 10.496094 9.319706 10.496094 9.3496094 L 10.583984 9.3496094 C 10.583308 9.3614454 10.578518 9.3687031 10.578125 9.3808594 C 10.569338 9.3850446 10.561305 9.3900793 10.552734 9.3945312 L 10.484375 9.3945312 L 10.484375 9.3203125 L 10.410156 9.3203125 L 10.410156 9.2460938 L 10.335938 9.2460938 L 10.335938 9.171875 L 10.261719 9.171875 L 10.261719 9.0957031 L 10.259766 9.0957031 L 10.185547 9.0957031 L 10.185547 9.0214844 L 10.111328 9.0214844 L 10.111328 8.9472656 L 10.037109 8.9472656 L 10.037109 8.8730469 L 9.9628906 8.8730469 L 9.9628906 8.796875 L 9.8867188 8.796875 L 9.8867188 8.7226562 L 9.8125 8.7226562 L 9.8125 8.6484375 L 9.7382812 8.6484375 L 9.7382812 8.5742188 L 9.6640625 8.5742188 L 9.6640625 8.5 L 9.5898438 8.5 L 9.5898438 8.4238281 L 9.5136719 8.4238281 L 9.5136719 8.3496094 L 9.4394531 8.3496094 L 9.4394531 8.2753906 L 9.3652344 8.2753906 L 9.3652344 8.2011719 L 9.2910156 8.2011719 L 9.2910156 8.1269531 L 8.5234375 8.1269531 L 8.5234375 9.4492188 C 8.4072134 9.3906763 8.2681683 9.3556749 8.1054688 9.3203125 C 7.8379607 9.2617705 7.4886607 9.2265625 7.046875 9.2265625 C 5.1980106 9.2265625 5 9.8010965 5 10.46875 C 5 10.860311 5.0627532 11.190078 5.3574219 11.421875 C 5.3816354 11.446224 5.4012252 11.471628 5.4296875 11.494141 C 5.4557105 11.520541 5.4768195 11.549965 5.5078125 11.574219 C 5.5324695 11.598821 5.5530033 11.625722 5.5820312 11.648438 C 5.6075817 11.673931 5.6299058 11.701143 5.6601562 11.724609 C 5.6837282 11.747974 5.7029376 11.773265 5.7304688 11.794922 C 5.7546824 11.81927 5.774272 11.844675 5.8027344 11.867188 C 5.8287575 11.893588 5.8498663 11.923012 5.8808594 11.947266 C 5.90641 11.972759 5.9287339 11.999971 5.9589844 12.023438 C 5.9831116 12.047352 6.0029715 12.073579 6.03125 12.095703 C 6.055376 12.119775 6.0752085 12.145702 6.1035156 12.167969 C 6.1277294 12.192317 6.1473187 12.217722 6.1757812 12.240234 C 6.2018045 12.266634 6.2229131 12.296059 6.2539062 12.320312 C 6.279457 12.345805 6.3017807 12.373018 6.3320312 12.396484 C 6.3561585 12.420399 6.3760183 12.446626 6.4042969 12.46875 C 6.4284117 12.49281 6.4482705 12.518759 6.4765625 12.541016 C 6.5007764 12.565363 6.5203655 12.590769 6.5488281 12.613281 C 6.5748515 12.639681 6.5959599 12.669106 6.6269531 12.693359 C 6.652504 12.718852 6.6748274 12.746065 6.7050781 12.769531 C 6.7286504 12.792895 6.7478592 12.818188 6.7753906 12.839844 C 6.7996046 12.864191 6.8191936 12.889597 6.8476562 12.912109 C 6.8736798 12.938509 6.8947879 12.967935 6.9257812 12.992188 C 6.9504387 13.016788 6.9709717 13.043691 7 13.066406 C 7.025551 13.091898 7.0478742 13.119112 7.078125 13.142578 C 7.1016974 13.165942 7.120906 13.191235 7.1484375 13.212891 C 7.1726516 13.237238 7.1922403 13.262645 7.2207031 13.285156 C 7.2467268 13.311556 7.2678347 13.340982 7.2988281 13.365234 C 7.3243792 13.390726 7.3467023 13.417941 7.3769531 13.441406 C 7.4010808 13.46532 7.4209399 13.491548 7.4492188 13.513672 C 7.4733452 13.537742 7.4931769 13.563672 7.5214844 13.585938 C 7.5456986 13.610285 7.5652871 13.635692 7.59375 13.658203 C 7.6197738 13.684602 7.6408814 13.714029 7.671875 13.738281 C 7.6974262 13.763773 7.719749 13.790988 7.75 13.814453 C 7.7741278 13.838367 7.7939867 13.864595 7.8222656 13.886719 C 7.8463809 13.910778 7.8662389 13.936728 7.8945312 13.958984 C 7.9187456 13.983331 7.9383339 14.008739 7.9667969 14.03125 C 7.9928208 14.057649 8.0139282 14.087076 8.0449219 14.111328 C 8.0704733 14.13682 8.0927958 14.164035 8.1230469 14.1875 C 8.1466197 14.210863 8.1658276 14.236157 8.1933594 14.257812 C 8.2175739 14.282159 8.2371619 14.307567 8.265625 14.330078 C 8.291649 14.356477 8.3127563 14.385905 8.34375 14.410156 C 8.368408 14.434756 8.3889401 14.461661 8.4179688 14.484375 C 8.4435203 14.509866 8.4658426 14.537082 8.4960938 14.560547 C 8.5196666 14.58391 8.5388744 14.609205 8.5664062 14.630859 C 8.5906209 14.655206 8.6102087 14.680614 8.6386719 14.703125 C 8.6646961 14.729523 8.685803 14.758952 8.7167969 14.783203 C 8.741455 14.807803 8.7619869 14.834708 8.7910156 14.857422 C 8.8165673 14.882913 8.8388894 14.910129 8.8691406 14.933594 C 8.8927137 14.956956 8.9119212 14.982252 8.9394531 15.003906 C 8.9636679 15.028252 8.9832555 15.053661 9.0117188 15.076172 C 9.0377431 15.10257 9.0588498 15.131999 9.0898438 15.15625 C 9.1153955 15.181741 9.1377174 15.208958 9.1679688 15.232422 C 9.192097 15.256334 9.2119551 15.282565 9.2402344 15.304688 C 9.2643614 15.328757 9.284192 15.354689 9.3125 15.376953 C 9.3367149 15.401299 9.3563023 15.426709 9.3847656 15.449219 C 9.4107901 15.475616 9.4318966 15.505046 9.4628906 15.529297 C 9.4884425 15.554787 9.5107642 15.582005 9.5410156 15.605469 C 9.565144 15.629381 9.5850018 15.655612 9.6132812 15.677734 C 9.6373971 15.701792 9.6572541 15.727745 9.6855469 15.75 C 9.7097479 15.774331 9.7293681 15.799768 9.7578125 15.822266 C 9.7838371 15.848663 9.8049433 15.878093 9.8359375 15.902344 C 9.8614895 15.927834 9.883811 15.955052 9.9140625 15.978516 C 9.9376359 16.001877 9.9568428 16.027174 9.984375 16.048828 C 10.00859 16.073173 10.028177 16.098584 10.056641 16.121094 C 10.082665 16.147491 10.103771 16.176921 10.134766 16.201172 C 10.159424 16.22577 10.179955 16.252678 10.208984 16.275391 C 10.234537 16.30088 10.256858 16.328099 10.287109 16.351562 C 10.310683 16.374924 10.32989 16.400221 10.357422 16.421875 C 10.381637 16.44622 10.401224 16.471631 10.429688 16.494141 C 10.455712 16.520537 10.476818 16.549969 10.507812 16.574219 C 10.533365 16.599708 10.555686 16.626927 10.585938 16.650391 C 10.610066 16.674302 10.629923 16.700535 10.658203 16.722656 C 10.682331 16.746724 10.70216 16.772658 10.730469 16.794922 C 10.754684 16.819267 10.774271 16.844678 10.802734 16.867188 C 10.828759 16.893584 10.849865 16.923016 10.880859 16.947266 C 10.906412 16.972755 10.928733 16.999974 10.958984 17.023438 C 10.983113 17.047349 11.00297 17.073582 11.03125 17.095703 C 11.055366 17.11976 11.075222 17.145715 11.103516 17.167969 C 11.127731 17.192313 11.147317 17.217725 11.175781 17.240234 C 11.201806 17.266631 11.222912 17.296063 11.253906 17.320312 C 11.279459 17.345801 11.301779 17.373022 11.332031 17.396484 C 11.355605 17.419845 11.374811 17.445144 11.402344 17.466797 C 11.426559 17.491141 11.446145 17.516554 11.474609 17.539062 C 11.500635 17.565458 11.52174 17.594891 11.552734 17.619141 C 11.577393 17.643738 11.597924 17.670648 11.626953 17.693359 C 11.652506 17.718848 11.674826 17.746069 11.705078 17.769531 C 11.728652 17.792892 11.747858 17.818191 11.775391 17.839844 C 11.799606 17.864188 11.819192 17.889601 11.847656 17.912109 C 11.873682 17.938505 11.894787 17.967938 11.925781 17.992188 C 11.95044 18.016785 11.97097 18.043695 12 18.066406 C 12.025553 18.091895 12.047873 18.119116 12.078125 18.142578 C 12.101699 18.165938 12.120905 18.191238 12.148438 18.212891 C 12.172653 18.237234 12.192239 18.262648 12.220703 18.285156 C 12.246729 18.311552 12.267833 18.340986 12.298828 18.365234 C 12.324381 18.390723 12.346701 18.417944 12.376953 18.441406 C 12.401082 18.465316 12.420939 18.491552 12.449219 18.513672 C 12.473347 18.537739 12.493176 18.563675 12.521484 18.585938 C 12.5457 18.610281 12.565286 18.635695 12.59375 18.658203 C 12.619776 18.684598 12.64088 18.714033 12.671875 18.738281 C 12.697428 18.763769 12.719748 18.790991 12.75 18.814453 C 12.773574 18.837813 12.79278 18.863114 12.820312 18.884766 C 12.844529 18.909109 12.864114 18.934523 12.892578 18.957031 C 12.918604 18.983426 12.939708 19.012861 12.970703 19.037109 C 12.995363 19.061706 13.015892 19.088617 13.044922 19.111328 C 13.070475 19.136816 13.092794 19.164038 13.123047 19.1875 C 13.146621 19.21086 13.165826 19.236161 13.193359 19.257812 C 13.217576 19.282155 13.237161 19.30757 13.265625 19.330078 C 13.291651 19.356473 13.312755 19.385908 13.34375 19.410156 C 13.36841 19.434752 13.388939 19.461664 13.417969 19.484375 C 13.443522 19.509862 13.465841 19.537086 13.496094 19.560547 C 13.519668 19.583906 13.538873 19.609208 13.566406 19.630859 C 13.590623 19.655202 13.610207 19.680618 13.638672 19.703125 C 13.664698 19.729519 13.685802 19.758955 13.716797 19.783203 C 13.74235 19.80869 13.764669 19.835914 13.794922 19.859375 C 13.819052 19.883284 13.838907 19.909521 13.867188 19.931641 C 13.891316 19.955706 13.911144 19.981645 13.939453 20.003906 C 13.96367 20.028249 13.983254 20.053665 14.011719 20.076172 C 14.037745 20.102566 14.058848 20.132002 14.089844 20.15625 C 14.115397 20.181737 14.137716 20.208961 14.167969 20.232422 C 14.192099 20.256331 14.211954 20.282568 14.240234 20.304688 C 14.264352 20.328742 14.284206 20.354701 14.3125 20.376953 C 14.336717 20.401295 14.356301 20.426712 14.384766 20.449219 C 14.410792 20.475612 14.431895 20.50505 14.462891 20.529297 C 14.488444 20.554783 14.510763 20.582008 14.541016 20.605469 C 14.56459 20.628827 14.583795 20.65413 14.611328 20.675781 C 14.635545 20.700123 14.655129 20.72554 14.683594 20.748047 C 14.70962 20.77444 14.730723 20.803878 14.761719 20.828125 C 14.786379 20.85272 14.806907 20.879634 14.835938 20.902344 C 14.861491 20.92783 14.88381 20.955055 14.914062 20.978516 C 14.937637 21.001874 14.956842 21.027177 14.984375 21.048828 C 15.008592 21.07317 15.028176 21.098587 15.056641 21.121094 C 15.082667 21.147487 15.10377 21.176925 15.134766 21.201172 C 15.159426 21.225767 15.179954 21.252681 15.208984 21.275391 C 15.234625 21.30099 15.256731 21.328005 15.287109 21.351562 C 15.310684 21.374921 15.329888 21.400225 15.357422 21.421875 C 15.381639 21.446216 15.401223 21.471634 15.429688 21.494141 C 15.455714 21.520534 15.476817 21.549972 15.507812 21.574219 C 15.533367 21.599705 15.555684 21.626931 15.585938 21.650391 C 15.610068 21.674298 15.629922 21.700538 15.658203 21.722656 C 15.682332 21.746721 15.702159 21.772662 15.730469 21.794922 C 15.754686 21.819263 15.774269 21.844682 15.802734 21.867188 C 15.828761 21.89358 15.849864 21.923019 15.880859 21.947266 C 15.906414 21.972751 15.928731 21.999978 15.958984 22.023438 C 15.98256 22.046795 16.001763 22.0721 16.029297 22.09375 C 16.053514 22.118091 16.073097 22.14351 16.101562 22.166016 C 16.127589 22.192408 16.148692 22.221848 16.179688 22.246094 C 16.204348 22.270688 16.224876 22.297604 16.253906 22.320312 C 16.279461 22.345798 16.301778 22.373025 16.332031 22.396484 C 16.355607 22.419842 16.37481 22.445147 16.402344 22.466797 C 16.426561 22.491138 16.446144 22.516557 16.474609 22.539062 C 16.500636 22.565455 16.521738 22.594895 16.552734 22.619141 C 16.577395 22.643734 16.597922 22.670651 16.626953 22.693359 C 16.652508 22.718844 16.674825 22.746072 16.705078 22.769531 C 16.728654 22.792888 16.747857 22.818194 16.775391 22.839844 C 16.799608 22.864184 16.819191 22.889604 16.847656 22.912109 C 16.873683 22.938501 16.894785 22.967942 16.925781 22.992188 C 16.951336 23.017672 16.973653 23.044901 17.003906 23.068359 C 17.028037 23.092266 17.047891 23.118508 17.076172 23.140625 C 17.100302 23.164689 17.120128 23.190631 17.148438 23.212891 C 17.172655 23.237231 17.192238 23.262651 17.220703 23.285156 C 17.246731 23.311548 17.267832 23.340989 17.298828 23.365234 C 17.324383 23.390719 17.3467 23.417948 17.376953 23.441406 C 17.400529 23.464763 17.419732 23.49007 17.447266 23.511719 C 17.472043 23.536621 17.492257 23.562957 17.521484 23.585938 C 17.545688 23.610263 17.565304 23.63571 17.59375 23.658203 C 17.619778 23.684594 17.640879 23.714036 17.671875 23.738281 C 17.69743 23.763765 17.719746 23.790995 17.75 23.814453 C 17.773576 23.837809 17.792778 23.863117 17.820312 23.884766 C 17.84453 23.909105 17.864113 23.934527 17.892578 23.957031 C 17.918606 23.983422 17.939707 24.012865 17.970703 24.037109 C 17.995364 24.061702 18.015891 24.088621 18.044922 24.111328 C 18.070477 24.136812 18.092793 24.164042 18.123047 24.1875 C 18.146623 24.210856 18.165825 24.236164 18.193359 24.257812 C 18.217577 24.282152 18.237159 24.307574 18.265625 24.330078 C 18.291653 24.356469 18.312754 24.385912 18.34375 24.410156 C 18.369305 24.43564 18.391621 24.46287 18.421875 24.486328 C 18.446006 24.510234 18.465859 24.536478 18.494141 24.558594 C 18.518271 24.582656 18.538096 24.608601 18.566406 24.630859 C 18.590624 24.655198 18.610206 24.680621 18.638672 24.703125 C 18.6647 24.729515 18.6858 24.758959 18.716797 24.783203 C 18.742352 24.808686 18.764668 24.835917 18.794922 24.859375 C 18.819053 24.883281 18.838906 24.909525 18.867188 24.931641 C 18.891318 24.955703 18.911143 24.981648 18.939453 25.003906 C 18.963671 25.028245 18.983253 25.053668 19.011719 25.076172 C 19.037747 25.102562 19.058847 25.132006 19.089844 25.15625 C 19.115399 25.181733 19.137715 25.208965 19.167969 25.232422 C 19.191545 25.255777 19.210747 25.281086 19.238281 25.302734 C 19.2625 25.327073 19.282081 25.352496 19.310547 25.375 C 19.336575 25.40139 19.357675 25.430834 19.388672 25.455078 C 19.413334 25.47967 19.433859 25.50659 19.462891 25.529297 C 19.488446 25.55478 19.510762 25.582012 19.541016 25.605469 C 19.564592 25.628824 19.583794 25.654134 19.611328 25.675781 C 19.635547 25.70012 19.655128 25.725544 19.683594 25.748047 C 19.709622 25.774436 19.730722 25.803882 19.761719 25.828125 C 19.786381 25.852716 19.806906 25.879637 19.835938 25.902344 C 19.861493 25.927826 19.883808 25.955059 19.914062 25.978516 C 19.937639 26.00187 19.95684 26.027181 19.984375 26.048828 C 20.008594 26.073166 20.028175 26.098591 20.056641 26.121094 C 20.082669 26.147483 20.103769 26.176929 20.134766 26.201172 C 20.160321 26.226654 20.182636 26.253887 20.212891 26.277344 C 20.237023 26.301248 20.256874 26.327494 20.285156 26.349609 C 20.553987 26.617666 21.063857 26.78125 22.046875 26.78125 C 22.465289 26.781204 22.824851 26.73241 23.115234 26.673828 L 23.117188 26.673828 C 23.129535 26.67096 23.138202 26.665136 23.150391 26.662109 L 23.150391 26.734375 L 23.224609 26.734375 L 23.224609 26.810547 L 23.298828 26.810547 L 23.298828 26.884766 L 23.300781 26.884766 L 23.373047 26.884766 L 23.373047 26.958984 L 23.375 26.958984 L 23.449219 26.958984 L 23.449219 27.033203 L 23.523438 27.033203 L 23.523438 27.107422 L 24.255859 27.107422 L 24.255859 26.839844 C 24.264065 26.847821 24.274683 26.852016 24.283203 26.859375 C 24.307698 26.889464 24.333576 26.915986 24.361328 26.939453 C 24.496121 27.102033 24.675717 27.166016 24.917969 27.166016 L 24.919922 27.166016 C 25.558679 27.165456 25.662123 26.593173 25.685547 26.078125 L 25.6875 26.078125 C 25.74533 26.089705 25.803455 26.089844 25.873047 26.089844 C 26.139825 26.089626 26.332435 25.996828 26.482422 25.820312 C 26.48448 25.842429 26.490234 25.892578 26.490234 25.892578 L 26.556641 25.892578 C 26.558875 25.916592 26.564453 25.96875 26.564453 25.96875 L 26.632812 25.96875 C 26.634936 25.991624 26.638672 26.042969 26.638672 26.042969 L 26.640625 26.042969 L 26.892578 26.042969 L 26.892578 26.044922 L 26.894531 26.044922 L 26.966797 26.044922 L 26.966797 26.121094 L 26.96875 26.121094 L 27.042969 26.121094 L 27.042969 26.195312 L 27.117188 26.195312 L 27.117188 26.269531 L 27.191406 26.269531 L 27.191406 26.34375 L 27.265625 26.34375 L 27.265625 26.417969 L 27.267578 26.417969 L 27.341797 26.417969 L 27.341797 26.494141 L 27.416016 26.494141 L 27.416016 26.568359 L 27.490234 26.568359 L 27.490234 26.642578 L 27.564453 26.642578 L 27.564453 26.716797 L 27.566406 26.716797 L 27.638672 26.716797 L 27.638672 26.792969 L 27.640625 26.792969 L 28.650391 26.792969 L 28.650391 26.791016 L 28.650391 25.421875 L 30 22.833984 L 29.886719 22.833984 L 29.925781 22.757812 L 29.923828 22.757812 L 29.8125 22.757812 L 29.851562 22.683594 L 29.849609 22.683594 L 29.736328 22.683594 L 29.775391 22.609375 L 29.662109 22.609375 L 29.701172 22.535156 L 29.587891 22.535156 L 29.626953 22.460938 L 29.513672 22.460938 L 29.552734 22.384766 L 29.550781 22.384766 L 29.439453 22.384766 L 29.478516 22.310547 L 29.476562 22.310547 L 29.363281 22.310547 L 29.402344 22.236328 L 29.289062 22.236328 L 29.328125 22.162109 L 29.214844 22.162109 L 29.253906 22.087891 L 29.140625 22.087891 L 29.179688 22.011719 L 29.177734 22.011719 L 29.064453 22.011719 L 29.103516 21.9375 L 28.990234 21.9375 L 29.029297 21.863281 L 28.916016 21.863281 L 28.955078 21.789062 L 28.841797 21.789062 L 28.880859 21.714844 L 28.767578 21.714844 L 28.806641 21.638672 L 28.804688 21.638672 L 28.691406 21.638672 L 28.730469 21.564453 L 28.617188 21.564453 L 28.65625 21.490234 L 28.542969 21.490234 L 28.582031 21.416016 L 28.46875 21.416016 L 28.507812 21.339844 L 28.505859 21.339844 L 28.394531 21.339844 L 28.433594 21.265625 L 28.431641 21.265625 L 28.318359 21.265625 L 28.357422 21.191406 L 28.244141 21.191406 L 28.283203 21.117188 L 28.169922 21.117188 L 28.208984 21.042969 L 28.095703 21.042969 L 28.134766 20.966797 L 28.132812 20.966797 L 28.021484 20.966797 L 28.060547 20.892578 L 28.058594 20.892578 L 27.945312 20.892578 L 27.984375 20.818359 L 27.871094 20.818359 L 27.910156 20.744141 L 27.796875 20.744141 L 27.835938 20.669922 L 27.722656 20.669922 L 27.761719 20.59375 L 27.759766 20.59375 L 27.648438 20.59375 L 27.6875 20.519531 L 27.685547 20.519531 L 27.572266 20.519531 L 27.611328 20.445312 L 27.498047 20.445312 L 27.537109 20.371094 L 27.423828 20.371094 L 27.462891 20.296875 L 27.349609 20.296875 L 27.388672 20.220703 L 27.386719 20.220703 L 27.273438 20.220703 L 27.3125 20.146484 L 27.199219 20.146484 L 27.238281 20.072266 L 27.125 20.072266 L 27.164062 19.998047 L 27.050781 19.998047 L 27.089844 19.923828 L 26.976562 19.923828 L 27.015625 19.847656 L 27.013672 19.847656 L 26.900391 19.847656 L 26.939453 19.773438 L 26.826172 19.773438 L 26.865234 19.699219 L 26.751953 19.699219 L 26.791016 19.625 L 26.677734 19.625 L 26.716797 19.548828 L 26.714844 19.548828 L 26.603516 19.548828 L 26.642578 19.474609 L 26.640625 19.474609 L 26.527344 19.474609 L 26.566406 19.400391 L 26.453125 19.400391 L 26.492188 19.326172 L 26.378906 19.326172 L 26.417969 19.251953 L 26.304688 19.251953 L 26.34375 19.175781 L 26.341797 19.175781 L 26.230469 19.175781 L 26.269531 19.101562 L 26.267578 19.101562 L 26.154297 19.101562 L 26.193359 19.027344 L 26.080078 19.027344 L 26.119141 18.953125 L 26.005859 18.953125 L 26.044922 18.878906 L 25.931641 18.878906 L 25.970703 18.802734 L 25.96875 18.802734 L 25.855469 18.802734 L 25.894531 18.728516 L 25.78125 18.728516 L 25.820312 18.654297 L 25.707031 18.654297 L 25.746094 18.580078 L 25.632812 18.580078 L 25.671875 18.505859 L 25.558594 18.505859 L 25.597656 18.429688 L 25.595703 18.429688 L 25.482422 18.429688 L 25.521484 18.355469 L 25.408203 18.355469 L 25.447266 18.28125 L 25.333984 18.28125 L 25.373047 18.207031 L 25.259766 18.207031 L 25.298828 18.132812 L 25.185547 18.132812 L 25.224609 18.056641 L 25.222656 18.056641 L 25.109375 18.056641 L 25.148438 17.982422 L 25.035156 17.982422 L 25.074219 17.908203 L 24.960938 17.908203 L 25 17.833984 L 24.886719 17.833984 L 24.925781 17.757812 L 24.8125 17.757812 L 24.851562 17.683594 L 24.849609 17.683594 L 24.736328 17.683594 L 24.775391 17.609375 L 24.662109 17.609375 L 24.701172 17.535156 L 24.587891 17.535156 L 24.626953 17.460938 L 24.513672 17.460938 L 24.552734 17.384766 L 24.550781 17.384766 L 24.439453 17.384766 L 24.478516 17.310547 L 24.476562 17.310547 L 24.363281 17.310547 L 24.402344 17.236328 L 24.289062 17.236328 L 24.328125 17.162109 L 24.214844 17.162109 L 24.253906 17.087891 L 24.140625 17.087891 L 24.179688 17.011719 L 24.177734 17.011719 L 24.064453 17.011719 L 24.103516 16.9375 L 23.990234 16.9375 L 24.029297 16.863281 L 23.916016 16.863281 L 23.955078 16.789062 L 23.841797 16.789062 L 23.880859 16.714844 L 23.767578 16.714844 L 23.806641 16.638672 L 23.804688 16.638672 L 23.691406 16.638672 L 23.730469 16.564453 L 23.617188 16.564453 L 23.65625 16.490234 L 23.542969 16.490234 L 23.582031 16.416016 L 23.46875 16.416016 L 23.507812 16.339844 L 23.394531 16.339844 L 23.433594 16.265625 L 23.431641 16.265625 L 23.318359 16.265625 L 23.357422 16.191406 L 23.244141 16.191406 L 23.283203 16.117188 L 23.169922 16.117188 L 23.208984 16.042969 L 23.095703 16.042969 L 23.134766 15.966797 L 23.021484 15.966797 L 23.060547 15.892578 L 23.058594 15.892578 L 22.945312 15.892578 L 22.984375 15.818359 L 22.871094 15.818359 L 22.910156 15.744141 L 22.796875 15.744141 L 22.835938 15.669922 L 22.722656 15.669922 L 22.761719 15.59375 L 22.648438 15.59375 L 22.6875 15.519531 L 22.685547 15.519531 L 22.572266 15.519531 L 22.611328 15.445312 L 22.498047 15.445312 L 22.537109 15.371094 L 22.423828 15.371094 L 22.462891 15.296875 L 22.349609 15.296875 L 22.388672 15.220703 L 22.386719 15.220703 L 22.273438 15.220703 L 22.3125 15.146484 L 22.199219 15.146484 L 22.238281 15.072266 L 22.125 15.072266 C 22.127148 15.068144 22.164062 14.998047 22.164062 14.998047 L 22.050781 14.998047 L 22.089844 14.923828 L 21.976562 14.923828 L 22.015625 14.847656 L 22.013672 14.847656 L 21.900391 14.847656 L 21.939453 14.773438 L 21.826172 14.773438 L 21.865234 14.699219 L 21.751953 14.699219 L 21.791016 14.625 L 21.677734 14.625 L 21.716797 14.548828 L 21.603516 14.548828 C 21.605665 14.544704 21.642578 14.474609 21.642578 14.474609 L 21.640625 14.474609 L 21.527344 14.474609 C 21.529494 14.470483 21.566406 14.400391 21.566406 14.400391 L 21.453125 14.400391 C 21.455276 14.396264 21.492188 14.326172 21.492188 14.326172 L 21.378906 14.326172 C 21.381056 14.322047 21.417969 14.251953 21.417969 14.251953 L 21.304688 14.251953 C 21.306923 14.247664 21.34375 14.175781 21.34375 14.175781 L 21.230469 14.175781 C 21.232619 14.171656 21.269531 14.101562 21.269531 14.101562 L 21.267578 14.101562 L 21.154297 14.101562 C 21.156448 14.097434 21.193359 14.027344 21.193359 14.027344 L 21.080078 14.027344 C 21.08223 14.023215 21.119141 13.953125 21.119141 13.953125 L 21.005859 13.953125 C 21.00801 13.948999 21.044922 13.878906 21.044922 13.878906 L 20.931641 13.878906 C 20.933877 13.874615 20.970703 13.802734 20.970703 13.802734 L 20.855469 13.802734 C 20.857621 13.798605 20.894531 13.728516 20.894531 13.728516 L 20.78125 13.728516 C 20.783402 13.724386 20.820312 13.654297 20.820312 13.654297 L 20.707031 13.654297 C 20.709182 13.650169 20.746094 13.580078 20.746094 13.580078 L 20.632812 13.580078 C 20.634964 13.57595 20.671875 13.505859 20.671875 13.505859 L 20.558594 13.505859 C 20.560831 13.501567 20.597656 13.429688 20.597656 13.429688 L 20.482422 13.429688 C 20.484575 13.425557 20.521484 13.355469 20.521484 13.355469 L 20.408203 13.355469 C 20.410356 13.351337 20.447266 13.28125 20.447266 13.28125 L 20.333984 13.28125 C 20.336136 13.277121 20.373047 13.207031 20.373047 13.207031 L 20.259766 13.207031 C 20.261918 13.202902 20.298828 13.132812 20.298828 13.132812 L 20.185547 13.132812 C 20.187788 13.128513 20.224609 13.056641 20.224609 13.056641 L 20.222656 13.056641 L 20.109375 13.056641 C 20.111529 13.052508 20.148438 12.982422 20.148438 12.982422 L 20.035156 12.982422 C 20.03731 12.978289 20.074219 12.908203 20.074219 12.908203 L 19.960938 12.908203 C 19.96309 12.904072 20 12.833984 20 12.833984 L 19.886719 12.833984 C 19.888957 12.829689 19.925781 12.757812 19.925781 12.757812 L 19.8125 12.757812 C 19.814653 12.753681 19.851562 12.683594 19.851562 12.683594 L 19.849609 12.683594 L 19.736328 12.683594 L 19.775391 12.609375 L 19.662109 12.609375 L 19.701172 12.535156 L 19.587891 12.535156 L 19.626953 12.460938 L 19.513672 12.460938 L 19.552734 12.384766 L 19.439453 12.384766 L 19.478516 12.310547 L 19.476562 12.310547 L 19.363281 12.310547 L 19.402344 12.236328 L 19.289062 12.236328 C 19.291217 12.232195 19.328125 12.162109 19.328125 12.162109 L 19.214844 12.162109 C 19.216998 12.157976 19.253906 12.087891 19.253906 12.087891 L 19.140625 12.087891 C 19.142865 12.083592 19.179688 12.011719 19.179688 12.011719 L 19.064453 12.011719 C 19.066609 12.007582 19.103516 11.9375 19.103516 11.9375 L 18.990234 11.9375 C 18.99239 11.933363 19.029297 11.863281 19.029297 11.863281 L 18.916016 11.863281 C 18.918171 11.859146 18.955078 11.789062 18.955078 11.789062 L 18.841797 11.789062 C 18.843952 11.784927 18.880859 11.714844 18.880859 11.714844 L 18.767578 11.714844 C 18.769819 11.710543 18.806641 11.638672 18.806641 11.638672 L 18.691406 11.638672 C 18.693563 11.634533 18.730469 11.564453 18.730469 11.564453 L 18.617188 11.564453 C 18.619344 11.560314 18.65625 11.490234 18.65625 11.490234 L 18.542969 11.490234 C 18.545125 11.486098 18.582031 11.416016 18.582031 11.416016 L 18.46875 11.416016 C 18.470992 11.411714 18.507812 11.339844 18.507812 11.339844 L 18.394531 11.339844 C 18.396685 11.335711 18.433594 11.265625 18.433594 11.265625 L 18.318359 11.265625 C 18.320517 11.261485 18.357422 11.191406 18.357422 11.191406 L 18.244141 11.191406 C 18.246298 11.187266 18.283203 11.117188 18.283203 11.117188 L 18.169922 11.117188 C 18.172079 11.113049 18.208984 11.042969 18.208984 11.042969 L 18.095703 11.042969 C 18.097946 11.038665 18.134766 10.966797 18.134766 10.966797 L 18.021484 10.966797 C 18.023641 10.962658 18.060547 10.892578 18.060547 10.892578 L 18.058594 10.892578 L 17.945312 10.892578 C 17.947471 10.888436 17.984375 10.818359 17.984375 10.818359 L 17.871094 10.818359 C 17.873252 10.814217 17.910156 10.744141 17.910156 10.744141 L 17.796875 10.744141 L 17.835938 10.669922 L 17.722656 10.669922 L 17.761719 10.59375 L 17.648438 10.59375 L 17.6875 10.519531 L 17.685547 10.519531 L 17.572266 10.519531 L 17.611328 10.445312 L 17.498047 10.445312 L 17.537109 10.371094 L 17.423828 10.371094 C 17.425986 10.366952 17.462891 10.296875 17.462891 10.296875 L 17.349609 10.296875 C 17.351854 10.292568 17.388672 10.220703 17.388672 10.220703 L 17.273438 10.220703 C 17.275597 10.216558 17.3125 10.146484 17.3125 10.146484 L 17.199219 10.146484 C 17.201379 10.142339 17.238281 10.072266 17.238281 10.072266 L 17.125 10.072266 C 17.127159 10.068123 17.164062 9.9980469 17.164062 9.9980469 L 17.050781 9.9980469 C 17.05294 9.9939038 17.089844 9.9238281 17.089844 9.9238281 L 16.976562 9.9238281 C 16.978808 9.9195195 17.015625 9.8476562 17.015625 9.8476562 L 16.900391 9.8476562 L 16.939453 9.7734375 L 16.826172 9.7734375 L 16.865234 9.6992188 L 16.751953 9.6992188 L 16.791016 9.625 L 16.677734 9.625 L 16.716797 9.5488281 L 16.603516 9.5488281 L 16.642578 9.4746094 L 16.527344 9.4746094 L 16.566406 9.4003906 L 16.453125 9.4003906 C 16.455287 9.3962426 16.492188 9.3261719 16.492188 9.3261719 L 16.378906 9.3261719 C 16.381067 9.322026 16.417969 9.2519531 16.417969 9.2519531 L 16.304688 9.2519531 C 16.306934 9.2476416 16.34375 9.1757812 16.34375 9.1757812 L 16.230469 9.1757812 C 16.23263 9.1716348 16.269531 9.1015625 16.269531 9.1015625 L 16.154297 9.1015625 C 16.156459 9.0974132 16.193359 9.0273438 16.193359 9.0273438 L 16.080078 9.0273438 C 16.082239 9.0231966 16.119141 8.953125 16.119141 8.953125 L 16.005859 8.953125 C 16.008021 8.9489776 16.044922 8.8789062 16.044922 8.8789062 L 15.931641 8.8789062 C 15.933889 8.8745931 15.970703 8.8027344 15.970703 8.8027344 L 15.855469 8.8027344 C 15.857632 8.7985838 15.894531 8.7285156 15.894531 8.7285156 L 15.78125 8.7285156 C 15.783413 8.7243647 15.820312 8.6542969 15.820312 8.6542969 L 15.707031 8.6542969 C 15.709193 8.6501482 15.746094 8.5800781 15.746094 8.5800781 L 15.632812 8.5800781 L 15.671875 8.5058594 L 15.558594 8.5058594 L 15.597656 8.4296875 L 15.482422 8.4296875 L 15.521484 8.3554688 L 15.408203 8.3554688 L 15.447266 8.28125 L 15.333984 8.28125 L 15.373047 8.2070312 L 15.259766 8.2070312 L 15.298828 8.1328125 L 15.185547 8.1328125 L 15.224609 8.0566406 L 15.109375 8.0566406 L 15.148438 7.9824219 L 15.035156 7.9824219 L 15.074219 7.9082031 L 14.960938 7.9082031 L 15 7.8339844 L 13.976562 7.8339844 L 13.486328 8.8789062 L 13.478516 8.8789062 C 13.475714 8.8723978 13.447266 8.8027344 13.447266 8.8027344 L 13.404297 8.8027344 C 13.401614 8.7965002 13.373047 8.7285156 13.373047 8.7285156 L 13.328125 8.7285156 L 13.296875 8.6542969 L 13.253906 8.6542969 L 13.222656 8.5800781 L 13.179688 8.5800781 C 13.176998 8.5738309 13.148438 8.5058594 13.148438 8.5058594 L 13.107422 8.5058594 C 13.104568 8.4992295 13.074219 8.4296875 13.074219 8.4296875 L 13.03125 8.4296875 L 13 8.3554688 L 12.955078 8.3554688 L 12.923828 8.28125 L 12.880859 8.28125 L 12.849609 8.2070312 L 12.806641 8.2070312 L 12.775391 8.1328125 L 12.734375 8.1328125 L 12.701172 8.0566406 L 12.658203 8.0566406 L 12.626953 7.9824219 L 12.582031 7.9824219 L 12.550781 7.9082031 L 12.507812 7.9082031 L 12.476562 7.8339844 L 11.373047 7.8339844 z "
       id="path10546"
       style="fill-opacity:1;fill:url(#linearGradient11434)"
       clip-path="url(#clipPath11439)" />
    <path
       style="fill:none"
       inkscape:connector-curvature="0"
       id="path4"
       d="m 3.9999777,4.0333382 12.0000003,0 0,11.9333328 -12.0000003,0 z" />
    <path
       d="m 18.999978,19.033339 12,0 0,11.933333 -12,0 z"
       id="path9754"
       inkscape:connector-curvature="0"
       style="fill:none" />
    <path
       clip-path="url(#clipPath8232)"
       inkscape:connector-curvature="0"
       id="path6185"
       style="font-style:normal;font-weight:normal;font-size:medium;line-height:125%;font-family:sans-serif;letter-spacing:0px;word-spacing:0px;fill:#000000;fill-opacity:1;stroke:none;stroke-width:1px;stroke-linecap:butt;stroke-linejoin:miter;stroke-opacity:1"
       d="m 22.806408,25.224385 0,3.663765 2.170127,0 q 1.091762,0 1.6142,-0.448761 0.529136,-0.455459 0.529136,-1.38647 0,-0.93771 -0.529136,-1.379773 -0.522438,-0.448761 -1.6142,-0.448761 l -2.170127,0 z m 0,-4.112525 0,3.014066 2.002679,0 q 0.991293,0 1.473543,-0.368386 0.488949,-0.375084 0.488949,-1.138647 0,-0.756865 -0.488949,-1.131949 -0.48225,-0.375084 -1.473543,-0.375084 l -2.002679,0 z m -1.352981,-1.111855 3.456129,0 q 1.54722,0 2.384461,0.643001 0.83724,0.643 0.83724,1.828533 0,0.917615 -0.428667,1.460147 -0.428667,0.542532 -1.259209,0.67649 0.99799,0.214334 1.54722,0.897522 0.555927,0.67649 0.555927,1.694575 0,1.339585 -0.910917,2.069658 -0.910918,0.730074 -2.592097,0.730074 l -3.590087,0 0,-10 z" />
    <path
       id="path8321"
       d="m 23.333311,24.76191 a 1.1904762,1.1904762 0 0 0 1.190476,-1.190476 1.1904762,1.1904762 0 0 0 -1.190476,-1.190476 1.1904762,1.1904762 0 0 0 -1.190476,1.190476 1.1904762,1.1904762 0 0 0 1.190476,1.190476 m 0,-4.52381 c 1.838095,0 3.333333,1.490477 3.333333,3.333334 0,2.5 -3.333333,6.190476 -3.333333,6.190476 0,0 -3.333334,-3.690476 -3.333334,-6.190476 A 3.3333333,3.3333333 0 0 1 23.333311,20.2381 m 2.857143,7.142858 3.809524,0 0,0.952381 -3.809524,0 0,-0.952381 z"
       inkscape:connector-curvature="0"
       clip-path="url(#clipPath9250)" />
    <path
       d="m 13.976746,7.8333322 -0.779088,1.6749122 -0.720918,-1.6749122 -1.104627,0 0.185995,0.3747808 C 11.453625,8.196442 11.337192,8.184678 11.209134,8.184678 c -0.290571,0 -0.546547,0.046871 -0.720686,0.1875532 -0.186204,0.1170841 -0.290804,0.3395579 -0.290804,0.6793018 l 0.767348,0 c 0,-0.2225435 0.01174,-0.4333229 0.290804,-0.4333229 0.279086,0 0.313914,0.1756727 0.313914,0.4098875 l 0,0.2224505 c -0.441949,-0.011787 -0.872063,0 -1.139548,0.2106631 -0.116317,-0.1169679 -0.267578,-0.1873439 -0.5000023,-0.1873439 -0.2791326,0 -0.4652211,0.08214 -0.6278741,0.316262 l -0.011671,0 0,-1.4639236 -0.7673474,0 0,1.3233343 C 8.4070431,9.3909975 8.267407,9.3560072 8.1047075,9.3206448 7.8371995,9.2621027 7.4882721,9.2271123 7.0464864,9.2271123 c -1.8488644,0 -2.0465078,0.5737727 -2.0465078,1.2414267 0,0.772997 0.2326803,1.311849 2.0464381,1.311849 0.4186757,0 0.7792511,-0.04708 1.069776,-0.105692 0.151098,-0.03504 0.2908039,-0.08191 0.4070045,-0.140612 l 0,0.574214 0.7326826,0 0,-0.304684 0.011555,0 c 0.1396361,0.269415 0.3488345,0.363063 0.6511003,0.363063 0.6395919,0 0.7440749,-0.573912 0.7675099,-1.089212 0.05805,0.01172 0.116224,0.01172 0.186089,0.01172 0.337023,0 0.558056,-0.140612 0.720825,-0.421535 l 0.0116,0 0.03483,0.374781 0.721151,0 c -0.0116,-0.175696 -0.03483,-0.351346 -0.03483,-0.527042 l 0,-0.7378202 0.313705,0.6441952 0,1.370228 1.011606,0 0,-1.370228 1.348955,-2.5884288 -1.023231,0 z M 7.0464167,9.6486477 c 0.6744194,0 0.6511933,0.3398369 0.6511933,0.5739823 l -1.2790674,0 c 0,-0.199085 -0.011555,-0.5739823 0.6278741,-0.5739823 z m 1.069776,1.2415663 -0.011555,0 -0.4535498,0 c 0,0.210686 -0.1046457,0.444878 -0.604648,0.444878 -0.6161099,0 -0.6278741,-0.433277 -0.6278741,-0.726127 l 2.1046547,0 0,0.281156 -0.4070045,0 0,9.3e-5 z m 1.8140135,-0.199132 c 0,0.702691 -0.046429,0.995541 -0.3255617,0.995541 -0.267508,0 -0.3140766,-0.292873 -0.3140766,-0.995541 0,-0.550453 0,-0.9369516 0.3140766,-0.9369516 0.3372329,0 0.3255617,0.3864986 0.3255617,0.9369516 z m 1.2557478,-0.08214 c -0.255767,0 -0.290594,-0.245863 -0.290594,-0.444878 0,-0.4920971 0.290594,-0.4568045 0.674373,-0.4803096 0,0.3047302 0.06966,0.9251876 -0.383779,0.9251876 z"
       id="eBay"
       style="fill:#fafafa" />
    <g
       transform="matrix(0.02324943,0,0,0.02324943,4.9999786,5.0000172)"
       id="g10391" />
    <g
       transform="matrix(0.02324943,0,0,0.02324943,4.9999786,5.0000172)"
       id="g10393" />
    <g
       transform="matrix(0.02324943,0,0,0.02324943,4.9999786,5.0000172)"
       id="g10395" />
    <g
       transform="matrix(0.02324943,0,0,0.02324943,4.9999786,5.0000172)"
       id="g10397" />
    <g
       transform="matrix(0.02324943,0,0,0.02324943,4.9999786,5.0000172)"
       id="g10399" />
    <g
       transform="matrix(0.02324943,0,0,0.02324943,4.9999786,5.0000172)"
       id="g10401" />
    <g
       transform="matrix(0.02324943,0,0,0.02324943,4.9999786,5.0000172)"
       id="g10403" />
    <g
       transform="matrix(0.02324943,0,0,0.02324943,4.9999786,5.0000172)"
       id="g10405" />
    <g
       transform="matrix(0.02324943,0,0,0.02324943,4.9999786,5.0000172)"
       id="g10407" />
    <g
       transform="matrix(0.02324943,0,0,0.02324943,4.9999786,5.0000172)"
       id="g10409" />
    <g
       transform="matrix(0.02324943,0,0,0.02324943,4.9999786,5.0000172)"
       id="g10411" />
    <g
       transform="matrix(0.02324943,0,0,0.02324943,4.9999786,5.0000172)"
       id="g10413" />
    <g
       transform="matrix(0.02324943,0,0,0.02324943,4.9999786,5.0000172)"
       id="g10415" />
    <g
       transform="matrix(0.02324943,0,0,0.02324943,4.9999786,5.0000172)"
       id="g10417" />
    <g
       transform="matrix(0.02324943,0,0,0.02324943,4.9999786,5.0000172)"
       id="g10419" />
  </g>
</svg>
