<?xml version="1.0" encoding="UTF-8" standalone="no"?>
<!-- Created with Inkscape (http://www.inkscape.org/) -->

<svg
   xmlns:dc="http://purl.org/dc/elements/1.1/"
   xmlns:cc="http://creativecommons.org/ns#"
   xmlns:rdf="http://www.w3.org/1999/02/22-rdf-syntax-ns#"
   xmlns:svg="http://www.w3.org/2000/svg"
   xmlns="http://www.w3.org/2000/svg"
   xmlns:xlink="http://www.w3.org/1999/xlink"
   xmlns:sodipodi="http://sodipodi.sourceforge.net/DTD/sodipodi-0.dtd"
   xmlns:inkscape="http://www.inkscape.org/namespaces/inkscape"
   width="7.6444445mm"
   height="7.6444445mm"
   viewBox="0 0 27.086614 27.086614"
   id="svg2"
   version="1.1"
   inkscape:version="0.92.2 (5c3e80d, 2017-08-06)"
   sodipodi:docname="Email.svg"
   inkscape:export-filename="/home/juergen/Desktop/mail.png"
   inkscape:export-xdpi="478.46509"
   inkscape:export-ydpi="478.46509">
  <sodipodi:namedview
     id="base"
     pagecolor="#ffffff"
     bordercolor="#666666"
     borderopacity="1.0"
     inkscape:pageopacity="0.0"
     inkscape:pageshadow="2"
     inkscape:zoom="22.4"
     inkscape:cx="16.406702"
     inkscape:cy="14.646086"
     inkscape:document-units="px"
     inkscape:current-layer="layer2"
     showgrid="false"
     fit-margin-top="1"
     fit-margin-left="1"
     fit-margin-right="1"
     fit-margin-bottom="1"
     showguides="true"
     inkscape:guide-bbox="true"
     inkscape:window-width="1366"
     inkscape:window-height="699"
     inkscape:window-x="0"
     inkscape:window-y="33"
     inkscape:window-maximized="1"
     inkscape:snap-grids="false"
     inkscape:snap-to-guides="false">
    <inkscape:grid
       type="xygrid"
       id="grid4138"
       originx="3.5433292"
       originy="3.5433123" />
    <sodipodi:guide
       position="13.543329,21.543312"
       orientation="0,1"
       id="guide4140"
       inkscape:locked="false" />
    <sodipodi:guide
       position="13.543329,5.5433123"
       orientation="0,1"
       id="guide4142"
       inkscape:locked="false" />
    <sodipodi:guide
       position="5.5433292,13.543312"
       orientation="1,0"
       id="guide4144"
       inkscape:locked="false" />
    <sodipodi:guide
       position="3.5433292,3.5433123"
       orientation="0,20"
       id="guide4146"
       inkscape:locked="false" />
    <sodipodi:guide
       position="23.543329,3.5433123"
       orientation="-20,0"
       id="guide4148"
       inkscape:locked="false" />
    <sodipodi:guide
       position="23.543329,23.543312"
       orientation="0,-20"
       id="guide4150"
       inkscape:locked="false" />
    <sodipodi:guide
       position="3.5433292,23.543312"
       orientation="20,0"
       id="guide4152"
       inkscape:locked="false" />
    <sodipodi:guide
       position="21.543329,13.543312"
       orientation="1,0"
       id="guide4154"
       inkscape:locked="false" />
    <sodipodi:guide
       position="13.543329,13.543312"
       orientation="-0.70710678,0.70710678"
       id="guide4156"
       inkscape:locked="false" />
    <sodipodi:guide
       position="13.543329,13.543312"
       orientation="0.70710678,0.70710678"
       id="guide4158"
       inkscape:locked="false" />
    <sodipodi:guide
       position="7.5433292,13.543312"
       orientation="1,0"
       id="guide4160"
       inkscape:locked="false" />
    <sodipodi:guide
       position="19.543329,13.543312"
       orientation="1,0"
       id="guide4162"
       inkscape:locked="false" />
    <sodipodi:guide
       position="13.543329,19.543312"
       orientation="0,1"
       id="guide4164"
       inkscape:locked="false" />
    <sodipodi:guide
       position="13.543329,7.5433122"
       orientation="0,1"
       id="guide4166"
       inkscape:locked="false" />
    <sodipodi:guide
       position="13.543329,18.543312"
       orientation="0,1"
       id="guide4168"
       inkscape:locked="false" />
    <sodipodi:guide
       position="13.543329,8.5433122"
       orientation="0,1"
       id="guide4170"
       inkscape:locked="false" />
    <sodipodi:guide
       position="8.5433292,13.543312"
       orientation="1,0"
       id="guide4172"
       inkscape:locked="false" />
    <sodipodi:guide
       position="18.543329,13.543312"
       orientation="1,0"
       id="guide4174"
       inkscape:locked="false" />
  </sodipodi:namedview>
  <defs
     id="defs4">
    <linearGradient
       inkscape:collect="always"
       id="linearGradient5108">
      <stop
         style="stop-color:#000000;stop-opacity:1;"
         offset="0"
         id="stop5110" />
      <stop
         style="stop-color:#000000;stop-opacity:0;"
         offset="1"
         id="stop5112" />
    </linearGradient>
    <clipPath
       id="clipPath12478"
       clipPathUnits="userSpaceOnUse">
      <circle
         r="10"
         cy="10.000005"
         cx="9.9999781"
         id="circle12480"
         style="opacity:1;fill:#2196f3;fill-opacity:1;stroke:none;stroke-width:0.05069799;stroke-miterlimit:4;stroke-dasharray:none;stroke-opacity:1" />
    </clipPath>
    <clipPath
       clipPathUnits="userSpaceOnUse"
       id="clipPath5790">
      <circle
         r="10"
         cy="10.000005"
         cx="9.9999781"
         id="circle5792"
         style="opacity:1;fill:#2196f3;fill-opacity:1;stroke:none;stroke-width:0.05069799;stroke-miterlimit:4;stroke-dasharray:none;stroke-opacity:1"
         inkscape:export-filename="/home/juergen/path4136.png"
         inkscape:export-xdpi="648"
         inkscape:export-ydpi="648" />
    </clipPath>
    <clipPath
       id="clipPath5055"
       clipPathUnits="userSpaceOnUse">
      <circle
         r="10"
         cy="10.000005"
         cx="9.9999781"
         id="circle5057"
         style="opacity:1;fill:#2196f3;fill-opacity:1;stroke:none;stroke-width:0.05069799;stroke-miterlimit:4;stroke-dasharray:none;stroke-opacity:1"
         inkscape:export-filename="/home/juergen/path4136.png"
         inkscape:export-xdpi="648"
         inkscape:export-ydpi="648" />
    </clipPath>
    <linearGradient
       inkscape:collect="always"
       xlink:href="#linearGradient5108"
       id="linearGradient5114"
       x1="10"
       y1="10"
       x2="20"
       y2="20"
       gradientUnits="userSpaceOnUse" />
    <clipPath
       clipPathUnits="userSpaceOnUse"
       id="clipPath5119">
      <circle
         r="10"
         cy="10.000005"
         cx="9.9999781"
         id="circle5121"
         style="opacity:1;fill:#2196f3;fill-opacity:1;stroke:none;stroke-width:0.05069799;stroke-miterlimit:4;stroke-dasharray:none;stroke-opacity:1"
         inkscape:export-filename="/home/juergen/Schreibtisch/path4136.png"
         inkscape:export-xdpi="648"
         inkscape:export-ydpi="648" />
    </clipPath>
  </defs>
  <metadata
     id="metadata7">
    <rdf:RDF>
      <cc:Work
         rdf:about="">
        <dc:format>image/svg+xml</dc:format>
        <dc:type
           rdf:resource="http://purl.org/dc/dcmitype/StillImage" />
        <dc:title></dc:title>
      </cc:Work>
    </rdf:RDF>
  </metadata>
  <g
     inkscape:label="Hintergrund"
     inkscape:groupmode="layer"
     id="layer1"
     transform="translate(1061.6861,-858.39035)">
    <circle
       inkscape:export-ydpi="648"
       inkscape:export-xdpi="648"
       inkscape:export-filename="/home/juergen/Schreibtisch/path4136.png"
       style="opacity:1;fill:#ff9800;fill-opacity:1;stroke:none;stroke-width:0.05069799;stroke-miterlimit:4;stroke-dasharray:none;stroke-opacity:1"
       id="path4136"
       cx="-1048.1428"
       cy="871.93365"
       r="10" />
    <rect
       style="fill:#ffff00;fill-opacity:0.99492385;stroke:#616161;stroke-width:4.05011177;stroke-miterlimit:4;stroke-dasharray:none;stroke-opacity:1"
       id="rect852"
       width="4.7197576"
       height="3.0161934"
       x="-1050.4015"
       y="870.50745" />
  </g>
  <g
     style="display:inline"
     inkscape:groupmode="layer"
     id="layer2"
     inkscape:label="Icon"
     transform="translate(3.5433292,3.5433022)">
    <path
       d="m 6.1484375,6.1484375 c -0.555,0 -1,0.445 -1,1 v 6.0000005 c 0,0.265216 0.1054324,0.519495 0.2929687,0.707031 0.025786,0.02579 0.061677,0.03598 0.089844,0.05859 0.022618,0.02817 0.032808,0.06406 0.058594,0.08984 0.025396,0.0254 0.060183,0.03627 0.087891,0.05859 0.022592,0.02813 0.032843,0.06409 0.058594,0.08984 0.026328,0.02633 0.06299,0.03752 0.091797,0.06055 0.02183,0.02694 0.031897,0.06119 0.056641,0.08594 0.025005,0.02501 0.058689,0.03657 0.085937,0.05859 0.022028,0.02725 0.033589,0.06093 0.058594,0.08594 0.025396,0.0254 0.060183,0.03627 0.087891,0.05859 0.022324,0.02771 0.033198,0.0625 0.058594,0.08789 0.025005,0.02501 0.058689,0.03657 0.085938,0.05859 0.022028,0.02725 0.033589,0.06093 0.058594,0.08594 0.024744,0.02474 0.058995,0.03481 0.085937,0.05664 0.02183,0.02694 0.031897,0.06119 0.056641,0.08594 0.024744,0.02474 0.058995,0.03481 0.085937,0.05664 0.02183,0.02694 0.031897,0.06119 0.056641,0.08594 0.024744,0.02474 0.058995,0.03481 0.085937,0.05664 0.02183,0.02694 0.031896,0.06119 0.056641,0.08594 0.024744,0.02475 0.058995,0.03481 0.085937,0.05664 0.02183,0.02694 0.031896,0.06119 0.056641,0.08594 0.024354,0.02435 0.057499,0.03511 0.083984,0.05664 0.021531,0.02648 0.032287,0.05963 0.056641,0.08398 0.024093,0.02409 0.057805,0.03336 0.083984,0.05469 0.021331,0.02618 0.030595,0.05989 0.054687,0.08398 0.024354,0.02435 0.057499,0.03511 0.083984,0.05664 0.021531,0.02648 0.032287,0.05963 0.056641,0.08398 0.023051,0.02305 0.055112,0.03221 0.080078,0.05274 0.021751,0.02682 0.031999,0.0613 0.056641,0.08594 0.024642,0.02464 0.059115,0.03489 0.085937,0.05664 0.020525,0.02497 0.029683,0.05703 0.052734,0.08008 0.023702,0.0237 0.056307,0.03366 0.082031,0.05469 0.02103,0.02572 0.030985,0.05833 0.054687,0.08203 0.023702,0.0237 0.056307,0.03366 0.082031,0.05469 0.02103,0.02572 0.030985,0.05833 0.054687,0.08203 0.023312,0.02331 0.054809,0.03396 0.080078,0.05469 0.020728,0.02527 0.031375,0.05677 0.054687,0.08008 0.023312,0.02331 0.054809,0.03396 0.080078,0.05469 0.020728,0.02527 0.031375,0.05677 0.054687,0.08008 0.023312,0.02331 0.054809,0.03396 0.080078,0.05469 0.020728,0.02527 0.031375,0.05677 0.054687,0.08008 0.023051,0.02305 0.055112,0.03221 0.080078,0.05273 0.020525,0.02497 0.029683,0.05703 0.052734,0.08008 0.023051,0.02305 0.055112,0.03221 0.080078,0.05273 0.020525,0.02497 0.029683,0.05703 0.052734,0.08008 0.022009,0.02201 0.052412,0.03107 0.076172,0.05078 0.020954,0.02561 0.031083,0.05843 0.054687,0.08203 0.023604,0.0236 0.056422,0.03373 0.082031,0.05469 0.019708,0.02376 0.028772,0.05416 0.050781,0.07617 0.0224,0.0224 0.053914,0.03077 0.078125,0.05078 0.020015,0.02421 0.028381,0.05573 0.050781,0.07813 0.022661,0.02266 0.053612,0.03251 0.078125,0.05273 0.02022,0.02451 0.030074,0.05546 0.052734,0.07813 0.0224,0.0224 0.053914,0.03077 0.078125,0.05078 0.020015,0.02421 0.028381,0.05572 0.050781,0.07813 0.02201,0.02201 0.052412,0.03107 0.076172,0.05078 0.019708,0.02376 0.028772,0.05416 0.050781,0.07617 0.022009,0.02201 0.052412,0.03107 0.076172,0.05078 0.019708,0.02376 0.028772,0.05416 0.050781,0.07617 0.021918,0.02192 0.052518,0.03115 0.076172,0.05078 0.019708,0.02376 0.028772,0.05416 0.050781,0.07617 0.022009,0.02201 0.052412,0.03107 0.076172,0.05078 0.019708,0.02376 0.028772,0.05416 0.050781,0.07617 0.021619,0.02162 0.050909,0.03138 0.074219,0.05078 0.019399,0.02331 0.029162,0.0526 0.050781,0.07422 0.020968,0.02097 0.049706,0.02995 0.072266,0.04883 0.019636,0.02365 0.028863,0.05425 0.050781,0.07617 0.021978,0.02198 0.052448,0.0311 0.076172,0.05078 0.01888,0.02256 0.02786,0.0513 0.04883,0.07227 0.02136,0.02136 0.05121,0.02964 0.07422,0.04883 0.01919,0.02301 0.02747,0.05286 0.04883,0.07422 0.02097,0.02097 0.0497,0.02995 0.07226,0.04883 0.01888,0.02256 0.02786,0.0513 0.04883,0.07227 0.02097,0.02097 0.0497,0.02995 0.07226,0.04883 0.01888,0.02256 0.02786,0.0513 0.04883,0.07227 0.02097,0.02097 0.04971,0.02995 0.07227,0.04883 0.01888,0.02256 0.02786,0.0513 0.04883,0.07227 0.02097,0.02097 0.04971,0.02995 0.07227,0.04883 0.01888,0.02256 0.02786,0.0513 0.04883,0.07227 0.02071,0.02071 0.05001,0.0282 0.07227,0.04687 0.01867,0.02226 0.02617,0.05156 0.04687,0.07227 0.02032,0.02032 0.0485,0.02852 0.07031,0.04687 0.01836,0.02181 0.02656,0.05 0.04687,0.07031 0.01966,0.01967 0.04729,0.02709 0.06836,0.04492 0.01912,0.02291 0.02756,0.05295 0.04883,0.07422 0.02088,0.02088 0.0498,0.03002 0.07226,0.04883 0.01751,0.02063 0.02565,0.04713 0.04492,0.06641 0.02032,0.02032 0.0485,0.02852 0.07031,0.04687 0.01836,0.02181 0.02656,0.05 0.04687,0.07031 0.01993,0.01993 0.04699,0.02883 0.06836,0.04687 0.01804,0.02137 0.02695,0.04843 0.04687,0.06836 0.01993,0.01993 0.04699,0.02883 0.06836,0.04687 0.01804,0.02137 0.02695,0.04843 0.04687,0.06836 0.01966,0.01966 0.04729,0.02709 0.06836,0.04492 0.01783,0.02107 0.02526,0.04869 0.04492,0.06836 0.01967,0.01966 0.04729,0.02709 0.06836,0.04492 0.01783,0.02107 0.02526,0.04869 0.04492,0.06836 0.01966,0.01966 0.04729,0.02709 0.06836,0.04492 0.01783,0.02107 0.02526,0.04869 0.04492,0.06836 0.01928,0.01927 0.04578,0.02741 0.06641,0.04492 0.01751,0.02063 0.02565,0.04713 0.04492,0.06641 0.01928,0.01927 0.04578,0.02741 0.06641,0.04492 0.01751,0.02063 0.02565,0.04713 0.04492,0.06641 0.01901,0.01901 0.04608,0.02567 0.06641,0.04297 0.0173,0.02033 0.02395,0.04739 0.04297,0.06641 0.01901,0.01901 0.04608,0.02567 0.06641,0.04297 0.0173,0.02033 0.02396,0.04739 0.04297,0.06641 0.01901,0.01901 0.04608,0.02567 0.06641,0.04297 0.0173,0.02033 0.02395,0.04739 0.04297,0.06641 0.01862,0.01862 0.04457,0.02599 0.06445,0.04297 0.01698,0.01989 0.02435,0.04583 0.04297,0.06445 0.01862,0.01862 0.04457,0.02599 0.06445,0.04297 0.01698,0.01989 0.02435,0.04583 0.04297,0.06445 0.01862,0.01862 0.04457,0.02599 0.06445,0.04297 0.01698,0.01989 0.02435,0.04583 0.04297,0.06445 0.01823,0.01823 0.04306,0.02631 0.0625,0.04297 0.01666,0.01945 0.02474,0.04427 0.04297,0.0625 0.01823,0.01823 0.04305,0.02631 0.0625,0.04297 0.01666,0.01945 0.02473,0.04427 0.04297,0.0625 0.01797,0.01797 0.04335,0.02457 0.0625,0.04102 0.01644,0.01915 0.02304,0.04453 0.04102,0.0625 0.01797,0.01797 0.04335,0.02457 0.0625,0.04102 0.01644,0.01915 0.02304,0.04453 0.04102,0.0625 0.01797,0.01797 0.04335,0.02457 0.0625,0.04102 0.01644,0.01915 0.02304,0.04453 0.04101,0.0625 0.01758,0.01758 0.04184,0.0249 0.06055,0.04102 0.01612,0.01871 0.02343,0.04297 0.04102,0.06055 0.01758,0.01758 0.04184,0.0249 0.06055,0.04102 0.01612,0.01871 0.02343,0.04296 0.04101,0.06055 0.01693,0.01693 0.04062,0.02349 0.05859,0.03906 0.01638,0.01907 0.02312,0.0446 0.04102,0.0625 0.0179,0.0179 0.04343,0.02463 0.0625,0.04102 0.01557,0.01798 0.02213,0.04166 0.03906,0.05859 0.01693,0.01693 0.04062,0.02349 0.05859,0.03906 0.01557,0.01798 0.02213,0.04166 0.03906,0.05859 0.01732,0.01732 0.04213,0.02316 0.06055,0.03906 0.0159,0.01842 0.02174,0.04323 0.03906,0.06055 0.01693,0.01693 0.04062,0.02349 0.05859,0.03906 0.01557,0.01798 0.02213,0.04166 0.03906,0.05859 0.01654,0.01654 0.0391,0.02382 0.05664,0.03906 0.01524,0.01754 0.02252,0.0401 0.03906,0.05664 0.01693,0.01693 0.04062,0.02349 0.05859,0.03906 0.01557,0.01798 0.02213,0.04166 0.03906,0.05859 0.01589,0.01589 0.03787,0.02241 0.05469,0.03711 0.01552,0.0179 0.0222,0.04173 0.03906,0.05859 0.01686,0.01686 0.0407,0.02355 0.05859,0.03906 0.01469,0.01681 0.02122,0.0388 0.03711,0.05469 0.01628,0.01628 0.03939,0.02208 0.05664,0.03711 0.01503,0.01725 0.02083,0.04036 0.03711,0.05664 0.01628,0.01628 0.03939,0.02208 0.05664,0.03711 0.01502,0.01725 0.02083,0.04036 0.03711,0.05664 0.01589,0.01589 0.03787,0.02241 0.05469,0.03711 0.01469,0.01681 0.02122,0.0388 0.03711,0.05469 0.01589,0.01589 0.03787,0.02241 0.05469,0.03711 0.01469,0.01681 0.02122,0.0388 0.03711,0.05469 0.01589,0.01589 0.03787,0.02241 0.05469,0.03711 0.0147,0.01681 0.02122,0.0388 0.03711,0.05469 0.01563,0.01563 0.03816,0.02068 0.05469,0.03516 0.01447,0.01652 0.01953,0.03906 0.03516,0.05469 0.01563,0.01563 0.03816,0.02068 0.05469,0.03516 0.01447,0.01652 0.01953,0.03906 0.03516,0.05469 0.01524,0.01524 0.03665,0.02102 0.05273,0.03516 0.01414,0.01609 0.01992,0.0375 0.03516,0.05273 0.01524,0.01524 0.03665,0.02102 0.05274,0.03516 0.01414,0.01609 0.01992,0.0375 0.03516,0.05273 0.01524,0.01524 0.03665,0.02102 0.05273,0.03516 0.01414,0.01609 0.01992,0.0375 0.03516,0.05273 0.01485,0.01485 0.03512,0.02135 0.05078,0.03516 0.01381,0.01566 0.02031,0.03593 0.03516,0.05078 0.01485,0.01485 0.03512,0.02135 0.05078,0.03516 0.01381,0.01566 0.02031,0.03593 0.03516,0.05078 0.0142,0.0142 0.03389,0.01996 0.04883,0.0332 0.01408,0.01602 0.01998,0.03756 0.03516,0.05273 0.01517,0.01517 0.03672,0.02107 0.05273,0.03516 0.01324,0.01494 0.01901,0.03463 0.0332,0.04883 0.0142,0.0142 0.03389,0.01996 0.04883,0.0332 0.01324,0.01494 0.01901,0.03463 0.0332,0.04883 0.01452,0.01453 0.03548,0.01967 0.05078,0.0332 0.01358,0.01537 0.01862,0.0362 0.0332,0.05078 0.0142,0.0142 0.03389,0.01996 0.04883,0.0332 0.01324,0.01494 0.01901,0.03463 0.0332,0.04883 0.01354,0.01354 0.03266,0.01857 0.04687,0.03125 0.01353,0.0153 0.01868,0.03626 0.0332,0.05078 0.01453,0.01453 0.03548,0.01967 0.05078,0.0332 0.01268,0.01422 0.0177,0.03333 0.03125,0.04687 0.01393,0.01394 0.03418,0.01823 0.04883,0.03125 0.01302,0.01465 0.01731,0.03489 0.03125,0.04883 0.01354,0.01354 0.03266,0.01857 0.04687,0.03125 0.01268,0.01422 0.01771,0.03333 0.03125,0.04687 0.01354,0.01354 0.03265,0.01857 0.04687,0.03125 0.01268,0.01422 0.0177,0.03333 0.03125,0.04687 0.01354,0.01354 0.03266,0.01857 0.04687,0.03125 0.01268,0.01422 0.01771,0.03333 0.03125,0.04687 0.01315,0.01315 0.03113,0.01891 0.04492,0.03125 0.01234,0.01379 0.0181,0.03177 0.03125,0.04492 0.01315,0.01315 0.03113,0.01891 0.04492,0.03125 0.01234,0.01379 0.0181,0.03177 0.03125,0.04492 0.01315,0.01315 0.03113,0.01891 0.04492,0.03125 0.01234,0.01379 0.0181,0.03177 0.03125,0.04492 0.01289,0.01289 0.03142,0.01719 0.04492,0.0293 0.01211,0.01351 0.0164,0.03203 0.0293,0.04492 0.01289,0.01289 0.03142,0.01719 0.04492,0.0293 0.01211,0.01351 0.0164,0.03203 0.0293,0.04492 0.0125,0.0125 0.02989,0.01753 0.04297,0.0293 0.01177,0.01308 0.01679,0.03047 0.0293,0.04297 0.0125,0.0125 0.02989,0.01753 0.04297,0.0293 0.01177,0.01308 0.01679,0.03047 0.0293,0.04297 0.0125,0.0125 0.02989,0.01753 0.04297,0.0293 0.01177,0.01308 0.01679,0.03047 0.0293,0.04297 0.01224,0.01224 0.03017,0.01581 0.04297,0.02734 0.01153,0.0128 0.0151,0.03073 0.02734,0.04297 0.01224,0.01224 0.03017,0.01581 0.04297,0.02734 0.01153,0.0128 0.0151,0.03073 0.02734,0.04297 0.01224,0.01224 0.03017,0.01581 0.04297,0.02734 0.01153,0.0128 0.0151,0.03073 0.02734,0.04297 0.01185,0.01185 0.02865,0.01616 0.04102,0.02734 0.01119,0.01237 0.01549,0.02916 0.02734,0.04102 0.01185,0.01185 0.02864,0.01616 0.04102,0.02734 0.01119,0.01237 0.01549,0.02916 0.02734,0.04102 0.01146,0.01146 0.02711,0.0165 0.03906,0.02734 0.01084,0.01195 0.01588,0.0276 0.02734,0.03906 0.01146,0.01146 0.02712,0.0165 0.03906,0.02734 0.01084,0.01195 0.01588,0.0276 0.02734,0.03906 0.01146,0.01146 0.02712,0.0165 0.03906,0.02734 0.01084,0.01195 0.01588,0.0276 0.02734,0.03906 0.0112,0.0112 0.0274,0.01478 0.03906,0.02539 0.01061,0.01166 0.01419,0.02786 0.02539,0.03906 0.0112,0.0112 0.0274,0.01478 0.03906,0.02539 0.01061,0.01167 0.01419,0.02786 0.02539,0.03906 0.0112,0.0112 0.0274,0.01478 0.03906,0.02539 0.01061,0.01167 0.01419,0.02786 0.02539,0.03906 0.01081,0.01081 0.02587,0.01513 0.03711,0.02539 0.01026,0.01124 0.01458,0.0263 0.02539,0.03711 0.01055,0.01055 0.02615,0.01341 0.03711,0.02344 0.01002,0.01096 0.01289,0.02656 0.02344,0.03711 0.01081,0.01081 0.02587,0.01513 0.03711,0.02539 0.01026,0.01124 0.01458,0.0263 0.02539,0.03711 0.01055,0.01055 0.02615,0.01341 0.03711,0.02344 0.01002,0.01096 0.01289,0.02656 0.02344,0.03711 0.01016,0.01016 0.02462,0.01377 0.03516,0.02344 0.0097,0.01054 0.01328,0.025 0.02344,0.03516 0.01055,0.01055 0.02615,0.01341 0.03711,0.02344 0.01002,0.01096 0.01289,0.02656 0.02344,0.03711 0.0091,0.0091 0.02182,0.01276 0.03125,0.02148 0.01022,0.01119 0.01463,0.02634 0.02539,0.03711 0.01054,0.01054 0.02616,0.01343 0.03711,0.02344 0.0091,0.0098 0.01198,0.0237 0.02148,0.0332 0.0098,0.0098 0.02308,0.01412 0.0332,0.02344 0.0093,0.01012 0.01367,0.02343 0.02344,0.0332 0.0098,0.0098 0.02308,0.01412 0.0332,0.02344 0.0093,0.01012 0.01367,0.02344 0.02344,0.0332 0.0095,0.0095 0.02336,0.0124 0.0332,0.02148 0.0091,0.0098 0.01198,0.0237 0.02148,0.0332 0.0095,0.0095 0.02336,0.0124 0.0332,0.02148 0.0091,0.0098 0.01198,0.0237 0.02148,0.0332 0.0095,0.0095 0.02336,0.0124 0.0332,0.02148 0.009,0.0098 0.01202,0.02373 0.02148,0.0332 0.0091,0.0091 0.02182,0.01276 0.03125,0.02148 0.0087,0.0094 0.01237,0.02213 0.02148,0.03125 0.0085,0.0085 0.02057,0.0114 0.0293,0.01953 0.0091,0.0098 0.01199,0.02371 0.02148,0.0332 0.0097,0.0097 0.02313,0.01416 0.0332,0.02344 0.0078,0.0083 0.01146,0.01927 0.01953,0.02734 0.0089,0.0089 0.0221,0.01104 0.03125,0.01953 0.0085,0.0091 0.01068,0.02239 0.01953,0.03125 0.0089,0.0089 0.0221,0.01104 0.03125,0.01953 0.0085,0.0091 0.01068,0.02239 0.01953,0.03125 0.0085,0.0085 0.02057,0.0114 0.0293,0.01953 0.0081,0.0087 0.01107,0.02083 0.01953,0.0293 0.0085,0.0085 0.02056,0.0114 0.0293,0.01953 0.0081,0.0087 0.01107,0.02083 0.01953,0.0293 0.0081,0.0081 0.01903,0.01176 0.02734,0.01953 0.0078,0.0083 0.01146,0.01927 0.01953,0.02734 0.0074,0.0074 0.01776,0.01041 0.02539,0.01758 0.0087,0.0094 0.01241,0.02217 0.02148,0.03125 0.0088,0.0088 0.02214,0.01108 0.03125,0.01953 0.0069,0.0074 0.0085,0.01823 0.01563,0.02539 0.0081,0.0081 0.01903,0.01176 0.02734,0.01953 0.0078,0.0083 0.01146,0.01927 0.01953,0.02734 0.0078,0.0078 0.0193,0.01005 0.02734,0.01758 0.0075,0.008 0.0098,0.01953 0.01758,0.02734 0.0074,0.0074 0.01776,0.01041 0.02539,0.01758 0.0072,0.0076 0.01015,0.01797 0.01758,0.02539 0.0068,0.0068 0.01649,0.0091 0.02344,0.01563 0.0081,0.0087 0.0111,0.02087 0.01953,0.0293 0.008,0.008 0.01906,0.01179 0.02734,0.01953 0.0062,0.0065 0.0092,0.0151 0.01563,0.02148 0.0074,0.0074 0.01776,0.01041 0.02539,0.01758 0.0072,0.0076 0.01016,0.01797 0.01758,0.02539 0.0072,0.0072 0.01804,0.0087 0.02539,0.01563 0.0069,0.0074 0.0085,0.01823 0.01563,0.02539 0.0072,0.0072 0.01804,0.0087 0.02539,0.01563 0.0069,0.0074 0.0085,0.01823 0.01563,0.02539 0.0068,0.0068 0.01649,0.0091 0.02344,0.01563 0.0066,0.0069 0.0089,0.01666 0.01563,0.02344 0.0068,0.0068 0.01649,0.0091 0.02344,0.01563 0.0066,0.0069 0.0089,0.01666 0.01562,0.02344 0.0068,0.0068 0.01649,0.0091 0.02344,0.01563 0.0066,0.0069 0.0089,0.01666 0.01563,0.02344 0.0064,0.0064 0.01495,0.0094 0.02148,0.01562 0.0062,0.0065 0.0092,0.0151 0.01563,0.02148 0.0064,0.0064 0.01495,0.0094 0.02148,0.01563 0.0062,0.0065 0.0092,0.0151 0.01563,0.02148 0.0061,0.0061 0.01522,0.0077 0.02148,0.01367 0.0059,0.0063 0.0076,0.01536 0.01367,0.02148 0.0061,0.0061 0.01522,0.0077 0.02148,0.01367 0.0059,0.0063 0.0076,0.01536 0.01367,0.02148 0.0061,0.0061 0.01522,0.0077 0.02148,0.01367 0.0059,0.0063 0.0076,0.01536 0.01367,0.02148 0.0057,0.0057 0.01368,0.0081 0.01953,0.01367 0.0056,0.0059 0.0079,0.0138 0.01367,0.01953 0.0057,0.0057 0.01368,0.0081 0.01953,0.01367 0.0056,0.0059 0.0079,0.0138 0.01367,0.01953 0.0047,0.0047 0.01085,0.0071 0.01563,0.01172 0.0062,0.0065 0.0093,0.01513 0.01563,0.02148 0.0064,0.0064 0.01498,0.0095 0.02148,0.01563 0.0046,0.0048 0.007,0.01094 0.01172,0.01563 0.0051,0.0051 0.0124,0.0068 0.01758,0.01172 0.005,0.0052 0.0066,0.0125 0.01172,0.01758 0.0054,0.0054 0.01397,0.0064 0.01953,0.01172 0.0053,0.0056 0.0062,0.01406 0.01172,0.01953 0.0051,0.0051 0.0124,0.0068 0.01758,0.01172 0.005,0.0052 0.0066,0.0125 0.01172,0.01758 0.004,0.004 0.0096,0.0058 0.01367,0.0098 0.0056,0.0058 0.008,0.01383 0.01367,0.01953 0.0057,0.0057 0.0137,0.0081 0.01953,0.01367 0.004,0.0041 0.0057,0.0096 0.0098,0.01367 0.0047,0.0047 0.01085,0.0071 0.01563,0.01172 0.0046,0.0048 0.007,0.01094 0.01172,0.01562 0.0044,0.0044 0.01112,0.0054 0.01563,0.0098 0.0043,0.0045 0.0053,0.0112 0.0098,0.01563 0.0044,0.0044 0.01112,0.0054 0.01563,0.0098 0.0043,0.0045 0.0053,0.0112 0.0098,0.01563 0.0044,0.0044 0.01112,0.0054 0.01563,0.0098 0.0043,0.0045 0.0053,0.0112 0.0098,0.01563 0.004,0.004 0.0096,0.0058 0.01367,0.0098 0.004,0.0041 0.0057,0.0096 0.0098,0.01367 0.004,0.004 0.0096,0.0058 0.01367,0.0098 0.004,0.0041 0.0057,0.0096 0.0098,0.01367 0.004,0.004 0.0096,0.0058 0.01367,0.0098 0.004,0.0041 0.0057,0.0096 0.0098,0.01367 0.0038,0.0038 0.0098,0.0041 0.01367,0.0078 0.0037,0.0038 0.004,0.0099 0.0078,0.01367 0.0038,0.0038 0.0098,0.0041 0.01367,0.0078 0.0037,0.0038 0.004,0.0099 0.0078,0.01367 0.0034,0.0034 0.0083,0.0045 0.01172,0.0078 0.0033,0.0034 0.0044,0.0083 0.0078,0.01172 0.0027,0.0027 0.007,0.0032 0.0098,0.0059 0.0043,0.0045 0.0054,0.01122 0.0098,0.01563 0.004,0.004 0.0096,0.0058 0.01367,0.0098 0.0023,0.0024 0.0035,0.0055 0.0059,0.0078 0.0023,0.0023 0.0054,0.0035 0.0078,0.0059 0.0039,0.0041 0.0057,0.0097 0.0098,0.01367 0.0038,0.0038 0.0099,0.0041 0.01367,0.0078 0.0021,0.0021 0.0018,0.0057 0.0039,0.0078 0.003,0.003 0.0067,0.0049 0.0098,0.0078 0.003,0.003 0.0048,0.0068 0.0078,0.0098 0.0027,0.0027 0.007,0.0032 0.0098,0.0059 0.0027,0.0028 0.0031,0.007 0.0059,0.0098 0.0027,0.0027 0.007,0.0032 0.0098,0.0059 0.0027,0.0028 0.0031,0.007 0.0059,0.0098 0.0023,0.0023 0.0054,0.0035 0.0078,0.0059 0.0023,0.0024 0.0035,0.0055 0.0059,0.0078 0.0023,0.0023 0.0054,0.0035 0.0078,0.0059 0.0023,0.0024 0.0035,0.0055 0.0059,0.0078 0.0023,0.0023 0.0054,0.0035 0.0078,0.0059 0.0023,0.0024 0.0035,0.0055 0.0059,0.0078 0.0021,0.0021 0.0057,0.0018 0.0078,0.0039 0.0021,0.0021 0.0018,0.0057 0.0039,0.0078 0.0021,0.0021 0.0057,0.0018 0.0078,0.0039 0.0021,0.0021 0.0018,0.0057 0.0039,0.0078 0.0021,0.0021 0.0057,0.0018 0.0078,0.0039 0.0021,0.0021 0.0018,0.0057 0.0039,0.0078 0.0017,0.0017 0.0042,0.0022 0.0059,0.0039 0.0017,0.0017 0.0022,0.0042 0.0039,0.0059 0.0017,0.0017 0.0042,0.0022 0.0059,0.0039 0.0017,0.0017 0.0022,0.0042 0.0039,0.0059 0.0013,0.0013 0.0026,0.0026 0.0039,0.0039 0.0013,0.0013 0.0026,0.0026 0.0039,0.0039 0.0013,0.0013 0.0026,0.0026 0.0039,0.0039 0.0013,0.0013 0.0026,0.0026 0.0039,0.0039 0.0013,0.0013 0.0026,0.0026 0.0039,0.0039 0.0013,0.0013 0.0026,0.0026 0.0039,0.0039 0.001,0.001 0.0029,9.17e-4 0.0039,0.002 10e-4,10e-4 9.12e-4,0.0029 0.002,0.0039 0.001,0.001 0.0029,9.16e-4 0.0039,0.002 10e-4,10e-4 9.11e-4,0.0029 0.002,0.0039 0,0 0.002,0.002 0.002,0.002 0,0 0.002,0.002 0.002,0.002 0,0 0.002,0.002 0.002,0.002 0,0 0.002,0.002 0.002,0.002 0,0 0.002,0.002 0.002,0.002 0,0 0.002,0.002 0.002,0.002 0,0 0.002,0 0.002,0 0,0 0,0.002 0,0.002 0.0013,0.0013 0.0026,0.0026 0.0039,0.0039 0.09247,0.09247 0.202067,0.163159 0.320312,0.212891 0,0 0.002,0.002 0.002,0.002 C 20.736116,28.97233 20.86647,29 21,29 h 8 c 0.265216,0 0.519494,-0.105433 0.707031,-0.292969 C 29.894567,28.519494 30,28.265216 30,28 v -6 c 0,-0.111027 -0.03124,-0.212959 -0.06445,-0.3125 -0.0085,-0.02538 -0.0052,-0.05567 -0.01563,-0.08008 0,0 -0.002,-0.002 -0.002,-0.002 0,0 -0.002,-0.002 -0.002,-0.002 -0.05038,-0.117899 -0.121838,-0.223226 -0.210938,-0.3125 -3.85e-4,-3.84e-4 -0.0016,3.83e-4 -0.002,0 0,0 0,-0.002 0,-0.002 -0.002,-0.002 -0.0038,-0.0038 -0.0059,-0.0059 0,0 -0.002,-0.002 -0.002,-0.002 0,0 -0.002,-0.002 -0.002,-0.002 -0.001,-10e-4 -0.0029,-9.39e-4 -0.0039,-0.002 -0.002,-0.002 -0.0038,-0.0038 -0.0059,-0.0059 -0.002,-0.0021 -0.0038,-0.0038 -0.0059,-0.0059 -0.001,-10e-4 -9.41e-4,-0.0029 -0.002,-0.0039 0,0 -0.002,0 -0.002,0 -0.0033,-0.0033 -0.0045,-0.0084 -0.0078,-0.01172 -0.0036,-0.0036 -0.01005,-0.0082 -0.01367,-0.01172 -0.0017,-0.0017 -0.0042,-0.0023 -0.0059,-0.0039 -0.0033,-0.0033 -0.0064,-0.0065 -0.0098,-0.0098 -0.0033,-0.0033 -0.0064,-0.0065 -0.0098,-0.0098 -0.0037,-0.0037 -0.008,-0.0061 -0.01172,-0.0098 -0.0041,-0.0041 -0.0076,-0.0077 -0.01172,-0.01172 -0.0043,-0.0044 -0.0073,-0.0094 -0.01172,-0.01367 -0.0046,-0.0046 -0.009,-0.0091 -0.01367,-0.01367 -0.0039,-0.004 -0.0077,-0.0078 -0.01172,-0.01172 -0.0066,-0.0067 -0.01278,-0.01299 -0.01953,-0.01953 -0.0037,-0.0037 -0.008,-0.0061 -0.01172,-0.0098 -0.0073,-0.0075 -0.01395,-0.01421 -0.02148,-0.02148 -0.0049,-0.005 -0.0086,-0.01072 -0.01367,-0.01563 -0.0058,-0.0059 -0.01162,-0.01178 -0.01758,-0.01758 -0.0062,-0.0063 -0.01317,-0.01141 -0.01953,-0.01758 -0.0066,-0.0067 -0.01278,-0.01299 -0.01953,-0.01953 -0.0059,-0.0061 -0.0115,-0.01166 -0.01758,-0.01758 -0.0085,-0.0088 -0.01653,-0.01688 -0.02539,-0.02539 -0.0056,-0.0057 -0.0099,-0.01203 -0.01563,-0.01758 -0.009,-0.0094 -0.01795,-0.01834 -0.02734,-0.02734 -0.0068,-0.007 -0.01445,-0.01275 -0.02148,-0.01953 -0.0072,-0.0074 -0.01408,-0.01431 -0.02148,-0.02148 -0.0098,-0.01016 -0.01911,-0.01956 -0.0293,-0.0293 -0.0076,-0.0078 -0.01562,-0.01397 -0.02344,-0.02148 -0.0088,-0.0091 -0.01625,-0.01858 -0.02539,-0.02734 -0.009,-0.0094 -0.01795,-0.01834 -0.02734,-0.02734 -0.0091,-0.0094 -0.01793,-0.01832 -0.02734,-0.02734 -0.0094,-0.0098 -0.0195,-0.01798 -0.0293,-0.02734 -0.0098,-0.01018 -0.01908,-0.01954 -0.0293,-0.0293 -0.0098,-0.01018 -0.01908,-0.01954 -0.0293,-0.0293 -0.01013,-0.01053 -0.02067,-0.01922 -0.03125,-0.0293 -0.01013,-0.01056 -0.01872,-0.02114 -0.0293,-0.03125 -0.01,-0.01045 -0.01886,-0.02125 -0.0293,-0.03125 -0.01221,-0.01283 -0.02424,-0.02494 -0.03711,-0.03711 -0.01042,-0.0108 -0.02231,-0.01898 -0.0332,-0.0293 -0.01138,-0.01192 -0.02126,-0.02381 -0.0332,-0.03516 -0.01075,-0.01124 -0.02194,-0.02052 -0.0332,-0.03125 -0.01329,-0.01405 -0.02499,-0.02776 -0.03906,-0.04102 -0.01162,-0.01215 -0.02294,-0.02361 -0.03516,-0.03516 -0.01224,-0.01286 -0.02421,-0.02492 -0.03711,-0.03711 -0.01159,-0.01217 -0.02297,-0.02358 -0.03516,-0.03516 -0.01352,-0.01433 -0.02668,-0.02751 -0.04102,-0.04102 -0.01393,-0.01469 -0.02818,-0.0272 -0.04297,-0.04102 -0.01173,-0.01229 -0.02283,-0.02348 -0.03516,-0.03516 -0.01511,-0.01606 -0.02879,-0.03184 -0.04492,-0.04687 -0.01299,-0.01365 -0.02728,-0.02422 -0.04102,-0.03711 -0.01389,-0.01469 -0.02627,-0.02915 -0.04102,-0.04297 -0.01414,-0.01499 -0.02793,-0.02888 -0.04297,-0.04297 -0.01452,-0.01539 -0.02946,-0.02853 -0.04492,-0.04297 -0.01486,-0.0158 -0.02907,-0.03012 -0.04492,-0.04492 -0.01486,-0.0158 -0.02907,-0.03012 -0.04492,-0.04492 -0.01512,-0.01607 -0.02878,-0.03183 -0.04492,-0.04687 -0.01509,-0.01608 -0.03076,-0.02987 -0.04687,-0.04492 -0.01606,-0.01717 -0.03161,-0.03283 -0.04883,-0.04883 -0.01509,-0.01613 -0.0288,-0.03177 -0.04492,-0.04687 -0.01761,-0.01892 -0.03568,-0.03523 -0.05469,-0.05273 -0.01486,-0.0158 -0.02907,-0.03012 -0.04492,-0.04492 -0.01696,-0.01829 -0.03251,-0.03576 -0.05078,-0.05273 -0.01786,-0.01919 -0.03539,-0.03696 -0.05469,-0.05469 -0.01633,-0.0174 -0.03326,-0.03264 -0.05078,-0.04883 -0.01728,-0.01857 -0.03411,-0.03553 -0.05273,-0.05273 -0.01662,-0.01786 -0.03291,-0.03418 -0.05078,-0.05078 -0.01851,-0.02006 -0.03657,-0.03816 -0.05664,-0.05664 -0.01856,-0.02001 -0.03652,-0.03821 -0.05664,-0.05664 -0.01666,-0.0179 -0.03287,-0.03415 -0.05078,-0.05078 -0.01906,-0.02078 -0.03786,-0.0395 -0.05859,-0.05859 -0.01973,-0.02139 -0.03904,-0.04095 -0.06055,-0.06055 -0.01823,-0.01959 -0.03692,-0.03662 -0.05664,-0.05469 -0.01912,-0.02073 -0.03781,-0.03955 -0.05859,-0.05859 -0.01946,-0.02109 -0.03936,-0.03925 -0.06055,-0.05859 -0.01949,-0.0212 -0.03736,-0.0411 -0.05859,-0.06055 -0.01972,-0.02149 -0.03904,-0.04086 -0.06055,-0.06055 -0.02026,-0.02208 -0.04036,-0.04232 -0.0625,-0.0625 -0.02029,-0.02211 -0.04032,-0.0423 -0.0625,-0.0625 -0.02029,-0.02211 -0.04032,-0.0423 -0.0625,-0.0625 -0.02066,-0.02253 -0.04183,-0.04195 -0.06445,-0.0625 -0.02124,-0.02323 -0.04114,-0.04528 -0.06445,-0.06641 -0.02125,-0.02328 -0.04307,-0.04327 -0.06641,-0.06445 -0.02124,-0.02323 -0.04114,-0.04528 -0.06445,-0.06641 -0.02182,-0.02392 -0.04434,-0.04471 -0.06836,-0.06641 -0.02121,-0.02331 -0.04116,-0.04519 -0.06445,-0.06641 -0.02365,-0.02614 -0.04796,-0.04876 -0.07422,-0.07227 -0.02164,-0.02366 -0.04261,-0.04492 -0.06641,-0.06641 -0.02239,-0.02463 -0.04364,-0.04803 -0.06836,-0.07031 -0.02233,-0.0246 -0.04567,-0.0461 -0.07031,-0.06836 -0.0233,-0.02576 -0.04643,-0.04906 -0.07227,-0.07227 -0.02325,-0.0257 -0.04649,-0.04911 -0.07227,-0.07227 -0.02366,-0.02616 -0.04795,-0.04874 -0.07422,-0.07227 -0.02305,-0.02556 -0.04478,-0.04921 -0.07031,-0.07227 -0.02511,-0.02799 -0.05005,-0.05313 -0.07813,-0.07813 -0.02334,-0.02579 -0.04639,-0.04903 -0.07227,-0.07227 -0.02444,-0.02717 -0.04893,-0.05183 -0.07617,-0.07617 -0.02384,-0.0265 -0.04771,-0.0504 -0.07422,-0.07422 -0.02624,-0.02941 -0.05253,-0.05591 -0.08203,-0.08203 -0.02427,-0.02683 -0.04916,-0.05016 -0.07617,-0.07422 -0.02536,-0.02829 -0.04974,-0.05485 -0.07813,-0.08008 -0.02532,-0.02829 -0.05173,-0.05288 -0.08008,-0.07813 -0.02569,-0.0288 -0.05126,-0.05443 -0.08008,-0.08008 -0.02624,-0.02941 -0.05253,-0.05591 -0.08203,-0.08203 -0.02629,-0.02948 -0.05246,-0.05586 -0.08203,-0.08203 -0.02629,-0.02948 -0.05246,-0.05586 -0.08203,-0.08203 -0.02656,-0.02977 -0.05409,-0.05563 -0.08398,-0.08203 -0.02655,-0.02986 -0.05213,-0.0575 -0.08203,-0.08398 -0.02616,-0.02948 -0.05261,-0.05583 -0.08203,-0.08203 -0.02854,-0.03245 -0.05738,-0.06134 -0.08984,-0.08984 -0.02721,-0.03052 -0.05523,-0.05701 -0.08594,-0.08398 -0.02748,-0.03108 -0.05484,-0.0585 -0.08594,-0.08594 -0.02804,-0.03172 -0.05609,-0.05996 -0.08789,-0.08789 -0.02828,-0.03199 -0.05579,-0.06171 -0.08789,-0.08984 -0.02823,-0.032 -0.05779,-0.05975 -0.08984,-0.08789 -0.0286,-0.03252 -0.05731,-0.06129 -0.08984,-0.08984 -0.02854,-0.03245 -0.05738,-0.06134 -0.08984,-0.08984 -0.02915,-0.03316 -0.05856,-0.06276 -0.0918,-0.0918 -0.02951,-0.03357 -0.06006,-0.06246 -0.09375,-0.0918 -0.0295,-0.03365 -0.05809,-0.06433 -0.0918,-0.09375 -0.02879,-0.03275 -0.05706,-0.06306 -0.08984,-0.0918 -0.0311,-0.03575 -0.0638,-0.06666 -0.09961,-0.09766 -0.0295,-0.03354 -0.06007,-0.06249 -0.09375,-0.0918 -0.0303,-0.03475 -0.06094,-0.06545 -0.0957,-0.0957 -0.03085,-0.03539 -0.06218,-0.06693 -0.09766,-0.09766 -0.03096,-0.03551 -0.06204,-0.06684 -0.09766,-0.09766 -0.03096,-0.03551 -0.06204,-0.06684 -0.09766,-0.09766 -0.03109,-0.03566 -0.06187,-0.06869 -0.09766,-0.09961 -0.0311,-0.03574 -0.0638,-0.06666 -0.09961,-0.09766 -0.0308,-0.03552 -0.06221,-0.06681 -0.09766,-0.09766 -0.03313,-0.03854 -0.06692,-0.07239 -0.105468,-0.105469 -0.03186,-0.03656 -0.06478,-0.06804 -0.101563,-0.09961 -0.03235,-0.03743 -0.06408,-0.07126 -0.101562,-0.103515 -0.032,-0.03692 -0.06456,-0.06969 -0.101563,-0.101563 -0.03308,-0.03838 -0.067,-0.07252 -0.105468,-0.105469 -0.03195,-0.03705 -0.06458,-0.06957 -0.101563,-0.101562 -0.03479,-0.04069 -0.07053,-0.0767 -0.111328,-0.111328 -0.03241,-0.03738 -0.06597,-0.06937 -0.103516,-0.101563 -0.03373,-0.03926 -0.06808,-0.07383 -0.107422,-0.107422 -0.03314,-0.03857 -0.0669,-0.07236 -0.105468,-0.105469 -0.03507,-0.04116 -0.07012,-0.07831 -0.111329,-0.113281 -0.03344,-0.03879 -0.06849,-0.07223 -0.107421,-0.105469 -0.0348,-0.04073 -0.07051,-0.07667 -0.111329,-0.111328 -0.03486,-0.04078 -0.07043,-0.07664 -0.111328,-0.111328 -0.03486,-0.04078 -0.07043,-0.07664 -0.111328,-0.111328 -0.03455,-0.04041 -0.07085,-0.07494 -0.111328,-0.109375 -0.03509,-0.0412 -0.0701,-0.07827 -0.111328,-0.113281 -0.03587,-0.04221 -0.07294,-0.07951 -0.115234,-0.115234 -0.03475,-0.04087 -0.07053,-0.07654 -0.111328,-0.111329 -0.03754,-0.04453 -0.07645,-0.08373 -0.121094,-0.121093 -0.03522,-0.04119 -0.07191,-0.07636 -0.113282,-0.111328 -0.0365,-0.04309 -0.07401,-0.08084 -0.117187,-0.117188 -0.03614,-0.04264 -0.07255,-0.08116 -0.115234,-0.117188 -0.03692,-0.04369 -0.07536,-0.08237 -0.119141,-0.11914 -0.03667,-0.04337 -0.0757,-0.08064 -0.119141,-0.117188 -0.03695,-0.04384 -0.07529,-0.08224 -0.11914,-0.11914 -0.03755,-0.04458 -0.07642,-0.0837 -0.121094,-0.121094 -0.03749,-0.04447 -0.07652,-0.08378 -0.121094,-0.121094 -0.0379,-0.04499 -0.0779,-0.08342 -0.123047,-0.121094 -0.03781,-0.04501 -0.07603,-0.08534 -0.121093,-0.123046 -0.03843,-0.04584 -0.07907,-0.08477 -0.125,-0.123047 -0.03816,-0.04542 -0.07751,-0.08507 -0.123047,-0.123047 -0.03894,-0.0466 -0.07833,-0.08815 -0.125,-0.126953 -0.03843,-0.04584 -0.07907,-0.08477 -0.125,-0.123047 -0.03921,-0.04697 -0.0799,-0.0879 -0.126953,-0.126953 -0.03915,-0.04685 -0.07999,-0.08798 -0.126953,-0.126953 -0.03945,-0.04725 -0.07957,-0.08967 -0.126954,-0.128907 -0.03939,-0.04724 -0.08159,-0.08771 -0.128906,-0.126953 -0.03966,-0.04772 -0.08117,-0.08932 -0.128906,-0.128906 -0.04024,-0.048471 -0.0823,-0.09078 -0.13086,-0.1308594 -0.04024,-0.04842 -0.08232,-0.09082 -0.130859,-0.1308594 C 18.087643,9.6909753 18.047251,9.6486947 18,9.609375 17.958298,9.5586347 17.914029,9.5142865 17.863281,9.4726562 17.823651,9.4250831 17.78204,9.3832178 17.734375,9.34375 17.692328,9.2925902 17.64694,9.2489238 17.595703,9.2070312 17.55488,9.1578651 17.512262,9.1147423 17.462891,9.0742188 17.422196,9.0249357 17.379342,8.9820639 17.330078,8.9414062 17.28777,8.8897591 17.243061,8.8449685 17.191406,8.8027344 17.150368,8.753035 17.106387,8.710844 17.056641,8.6699219 17.0135,8.6170844 16.968908,8.5703518 16.916016,8.5273438 16.874409,8.4769978 16.829834,8.4338986 16.779297,8.3925781 16.736989,8.340931 16.69228,8.2961404 16.640625,8.2539062 16.597735,8.201503 16.552497,8.1559932 16.5,8.1132812 c -0.04288,-0.052348 -0.08815,-0.097957 -0.140625,-0.140625 -0.04231,-0.051647 -0.08702,-0.096438 -0.138672,-0.1386718 -0.04332,-0.053228 -0.08938,-0.099293 -0.142578,-0.1425782 -0.04332,-0.053228 -0.08938,-0.099293 -0.142578,-0.1425781 -0.04389,-0.053929 -0.09051,-0.1008193 -0.144531,-0.1445312 -0.04366,-0.053589 -0.09086,-0.099084 -0.144532,-0.1425781 -0.04391,-0.054081 -0.09044,-0.100697 -0.144531,-0.1445313 -0.04449,-0.054842 -0.09155,-0.10218 -0.146484,-0.1464844 C 15.311327,6.9163402 15.265355,6.8682235 15.210938,6.8242188 15.166853,6.7698054 15.118823,6.7237511 15.064453,6.6796875 15.019538,6.6240142 14.971659,6.5761246 14.916016,6.53125 14.732329,6.3035646 14.462388,6.1484375 14.148438,6.1484375 Z"
       id="path4271"
       style="opacity:0.2;fill:url(#linearGradient5114);fill-opacity:1"
       clip-path="url(#clipPath5119)"
       inkscape:connector-curvature="0" />
    <path
       style="fill:#ffffff"
       id="path4228"
       d="M 13.999978,8.0000047 9.9999775,10.500005 5.9999776,8.0000047 v -1 l 3.9999999,2.5 4.0000005,-2.5 m 0,-1 H 5.9999776 c -0.555,0 -1,0.445 -1,1 v 6.0000003 a 0.99999999,0.99999999 0 0 0 1,1 h 8.0000004 a 0.99999999,0.99999999 0 0 0 1,-1 V 7.0000047 c 0,-0.555 -0.45,-1 -1,-1 z"
       inkscape:connector-curvature="0" />
    <path
       d="M 3.9999777,4.0333382 H 15.999978 V 15.966671 H 3.9999777 Z"
       id="path4"
       inkscape:connector-curvature="0"
       style="fill:none" />
    <path
       style="fill:none"
       inkscape:connector-curvature="0"
       id="path9754"
       d="m 18.999978,19.033339 h 12 v 11.933333 h -12 z" />
  </g>
</svg>
