<?xml version="1.0" encoding="UTF-8" standalone="no"?>
<!-- Created with Inkscape (http://www.inkscape.org/) -->

<svg
   xmlns:dc="http://purl.org/dc/elements/1.1/"
   xmlns:cc="http://creativecommons.org/ns#"
   xmlns:rdf="http://www.w3.org/1999/02/22-rdf-syntax-ns#"
   xmlns:svg="http://www.w3.org/2000/svg"
   xmlns="http://www.w3.org/2000/svg"
   xmlns:xlink="http://www.w3.org/1999/xlink"
   xmlns:sodipodi="http://sodipodi.sourceforge.net/DTD/sodipodi-0.dtd"
   xmlns:inkscape="http://www.inkscape.org/namespaces/inkscape"
   width="5.6444445mm"
   height="5.6444445mm"
   viewBox="0 0 20 20"
   id="svg2"
   version="1.1"
   inkscape:version="0.91 r13725"
   sodipodi:docname="Fahrplan.svg"
   inkscape:export-filename="/home/juergen/Projekte/Android/Android_Studio/Baumann_Theme/theme/src/main/assets/icons/res/drawable-xxhdpi/a127.png"
   inkscape:export-xdpi="648"
   inkscape:export-ydpi="648">
  <sodipodi:namedview
     id="base"
     pagecolor="#ffffff"
     bordercolor="#666666"
     borderopacity="1.0"
     inkscape:pageopacity="0.0"
     inkscape:pageshadow="2"
     inkscape:zoom="22.627417"
     inkscape:cx="-1.6709868"
     inkscape:cy="6.3628196"
     inkscape:document-units="px"
     inkscape:current-layer="layer1"
     showgrid="false"
     fit-margin-top="0"
     fit-margin-left="0"
     fit-margin-right="0"
     fit-margin-bottom="0"
     showguides="true"
     inkscape:guide-bbox="true"
     inkscape:window-width="1366"
     inkscape:window-height="744"
     inkscape:window-x="0"
     inkscape:window-y="24"
     inkscape:window-maximized="1"
     inkscape:snap-grids="false"
     inkscape:snap-to-guides="false">
    <inkscape:grid
       id="grid4138"
       type="xygrid" />
    <sodipodi:guide
       id="guide4140"
       orientation="0,1"
       position="10,18" />
    <sodipodi:guide
       id="guide4142"
       orientation="0,1"
       position="10,2" />
    <sodipodi:guide
       id="guide4144"
       orientation="1,0"
       position="2,10" />
    <sodipodi:guide
       id="guide4146"
       orientation="0,20"
       position="0,0" />
    <sodipodi:guide
       id="guide4148"
       orientation="-20,0"
       position="20,0" />
    <sodipodi:guide
       id="guide4150"
       orientation="0,-20"
       position="20,20" />
    <sodipodi:guide
       id="guide4152"
       orientation="20,0"
       position="0,20" />
    <sodipodi:guide
       id="guide4154"
       orientation="1,0"
       position="18,10" />
    <sodipodi:guide
       id="guide4156"
       orientation="-0.70710678,0.70710678"
       position="10,10" />
    <sodipodi:guide
       id="guide4160"
       orientation="1,0"
       position="4,10" />
    <sodipodi:guide
       id="guide4162"
       orientation="1,0"
       position="16,10" />
    <sodipodi:guide
       id="guide4164"
       orientation="0,1"
       position="10,16" />
    <sodipodi:guide
       id="guide4166"
       orientation="0,1"
       position="10,4" />
    <sodipodi:guide
       id="guide4168"
       orientation="0,1"
       position="10,15" />
    <sodipodi:guide
       id="guide4170"
       orientation="0,1"
       position="10,5" />
    <sodipodi:guide
       id="guide4172"
       orientation="1,0"
       position="5,10" />
    <sodipodi:guide
       id="guide4174"
       orientation="1,0"
       position="15,10" />
  </sodipodi:namedview>
  <defs
     id="defs4">
    <linearGradient
       inkscape:collect="always"
       id="linearGradient8898">
      <stop
         style="stop-color:#000000;stop-opacity:0.2"
         offset="0"
         id="stop8900" />
      <stop
         style="stop-color:#000000;stop-opacity:0;"
         offset="1"
         id="stop8902" />
    </linearGradient>
    <clipPath
       clipPathUnits="userSpaceOnUse"
       id="clipPath12478">
      <circle
         style="opacity:1;fill:#2196f3;fill-opacity:1;stroke:none;stroke-width:0.05069799;stroke-miterlimit:4;stroke-dasharray:none;stroke-opacity:1"
         id="circle12480"
         cx="9.9999781"
         cy="10.000005"
         r="10" />
    </clipPath>
    <clipPath
       id="clipPath5790"
       clipPathUnits="userSpaceOnUse">
      <circle
         inkscape:export-ydpi="648"
         inkscape:export-xdpi="648"
         inkscape:export-filename="/home/juergen/path4136.png"
         style="opacity:1;fill:#2196f3;fill-opacity:1;stroke:none;stroke-width:0.05069799;stroke-miterlimit:4;stroke-dasharray:none;stroke-opacity:1"
         id="circle5792"
         cx="9.9999781"
         cy="10.000005"
         r="10" />
    </clipPath>
    <clipPath
       clipPathUnits="userSpaceOnUse"
       id="clipPath5055">
      <circle
         inkscape:export-ydpi="648"
         inkscape:export-xdpi="648"
         inkscape:export-filename="/home/juergen/path4136.png"
         style="opacity:1;fill:#2196f3;fill-opacity:1;stroke:none;stroke-width:0.05069799;stroke-miterlimit:4;stroke-dasharray:none;stroke-opacity:1"
         id="circle5057"
         cx="9.9999781"
         cy="10.000005"
         r="10" />
    </clipPath>
    <clipPath
       id="clipPath5119"
       clipPathUnits="userSpaceOnUse">
      <circle
         inkscape:export-ydpi="648"
         inkscape:export-xdpi="648"
         inkscape:export-filename="/home/juergen/Schreibtisch/path4136.png"
         style="opacity:1;fill:#2196f3;fill-opacity:1;stroke:none;stroke-width:0.05069799;stroke-miterlimit:4;stroke-dasharray:none;stroke-opacity:1"
         id="circle5121"
         cx="9.9999781"
         cy="10.000005"
         r="10" />
    </clipPath>
    <clipPath
       clipPathUnits="userSpaceOnUse"
       id="clipPath5194">
      <circle
         inkscape:export-ydpi="648"
         inkscape:export-xdpi="648"
         inkscape:export-filename="/home/juergen/Schreibtisch/path4136.png"
         style="opacity:1;fill:#cddc39;fill-opacity:1;stroke:none;stroke-width:0.05069799;stroke-miterlimit:4;stroke-dasharray:none;stroke-opacity:1"
         id="circle5196"
         cx="9.9999781"
         cy="10.000005"
         r="10" />
    </clipPath>
    <clipPath
       id="clipPath6175"
       clipPathUnits="userSpaceOnUse">
      <circle
         inkscape:export-ydpi="648"
         inkscape:export-xdpi="648"
         inkscape:export-filename="/home/juergen/Schreibtisch/path4136.png"
         style="opacity:1;fill:#f44336;fill-opacity:1;stroke:none;stroke-width:0.05069799;stroke-miterlimit:4;stroke-dasharray:none;stroke-opacity:1"
         id="circle6177"
         cx="9.9999781"
         cy="10.000005"
         r="10" />
    </clipPath>
    <clipPath
       clipPathUnits="userSpaceOnUse"
       id="clipPath7176">
      <circle
         inkscape:export-ydpi="648"
         inkscape:export-xdpi="648"
         inkscape:export-filename="/home/juergen/Schreibtisch/path4136.png"
         style="opacity:1;fill:#9c27b0;fill-opacity:1;stroke:none;stroke-width:0.05069799;stroke-miterlimit:4;stroke-dasharray:none;stroke-opacity:1"
         id="circle7178"
         cx="9.9999781"
         cy="10.000005"
         r="10" />
    </clipPath>
    <clipPath
       id="clipPath8165"
       clipPathUnits="userSpaceOnUse">
      <circle
         inkscape:export-ydpi="648"
         inkscape:export-xdpi="648"
         inkscape:export-filename="/home/juergen/Schreibtisch/path4136.png"
         style="opacity:1;fill:#ffc107;fill-opacity:1;stroke:none;stroke-width:0.05069799;stroke-miterlimit:4;stroke-dasharray:none;stroke-opacity:1"
         id="circle8167"
         cx="9.9999781"
         cy="10.000005"
         r="10" />
    </clipPath>
    <clipPath
       clipPathUnits="userSpaceOnUse"
       id="clipPath9162">
      <circle
         inkscape:export-ydpi="648"
         inkscape:export-xdpi="648"
         inkscape:export-filename="/home/juergen/Schreibtisch/path4136.png"
         style="opacity:1;fill:#ff9800;fill-opacity:1;stroke:none;stroke-width:0.05069799;stroke-miterlimit:4;stroke-dasharray:none;stroke-opacity:1"
         id="circle9164"
         cx="9.9999781"
         cy="10.000005"
         r="10" />
    </clipPath>
    <clipPath
       id="clipPath10753"
       clipPathUnits="userSpaceOnUse">
      <circle
         inkscape:export-ydpi="648"
         inkscape:export-xdpi="648"
         inkscape:export-filename="/home/juergen/Schreibtisch/path4136.png"
         style="opacity:1;fill:#607d8b;fill-opacity:1;stroke:none;stroke-width:0.05069799;stroke-miterlimit:4;stroke-dasharray:none;stroke-opacity:1"
         id="circle10755"
         cx="9.9999781"
         cy="10.000005"
         r="10" />
    </clipPath>
    <clipPath
       clipPathUnits="userSpaceOnUse"
       id="clipPath5153">
      <circle
         inkscape:export-ydpi="648"
         inkscape:export-xdpi="648"
         inkscape:export-filename="/home/juergen/Schreibtisch/path4136.png"
         style="opacity:1;fill:#2196f3;fill-opacity:1;stroke:none;stroke-width:0.05069799;stroke-miterlimit:4;stroke-dasharray:none;stroke-opacity:1"
         id="circle5155"
         cx="9.9999781"
         cy="10.000005"
         r="10" />
    </clipPath>
    <clipPath
       id="clipPath6158"
       clipPathUnits="userSpaceOnUse">
      <circle
         r="10"
         cy="10.000005"
         cx="9.9999781"
         id="circle6160"
         style="opacity:1;fill:#ff9800;fill-opacity:1;stroke:none;stroke-width:0.05069799;stroke-miterlimit:4;stroke-dasharray:none;stroke-opacity:1"
         inkscape:export-filename="/home/juergen/Schreibtisch/path4136.png"
         inkscape:export-xdpi="648"
         inkscape:export-ydpi="648" />
    </clipPath>
    <clipPath
       clipPathUnits="userSpaceOnUse"
       id="clipPath6428">
      <circle
         inkscape:export-ydpi="648"
         inkscape:export-xdpi="648"
         inkscape:export-filename="/home/juergen/Schreibtisch/path4136.png"
         style="opacity:1;fill:#ff9800;fill-opacity:1;stroke:none;stroke-width:0.05069799;stroke-miterlimit:4;stroke-dasharray:none;stroke-opacity:1"
         id="circle6430"
         cx="9.9999781"
         cy="10.000005"
         r="10" />
    </clipPath>
    <clipPath
       id="clipPath7808"
       clipPathUnits="userSpaceOnUse">
      <circle
         inkscape:export-ydpi="648"
         inkscape:export-xdpi="648"
         inkscape:export-filename="/home/juergen/Schreibtisch/path4136.png"
         style="opacity:1;fill:#9c27b0;fill-opacity:1;stroke:none;stroke-width:0.05069799;stroke-miterlimit:4;stroke-dasharray:none;stroke-opacity:1"
         id="circle7810"
         cx="9.9999781"
         cy="10.000005"
         r="10" />
    </clipPath>
    <linearGradient
       inkscape:collect="always"
       xlink:href="#linearGradient8898"
       id="linearGradient8904"
       x1="10"
       y1="10"
       x2="20"
       y2="20"
       gradientUnits="userSpaceOnUse" />
    <clipPath
       clipPathUnits="userSpaceOnUse"
       id="clipPath8909">
      <circle
         inkscape:export-ydpi="648"
         inkscape:export-xdpi="648"
         inkscape:export-filename="/home/juergen/Schreibtisch/path4136.png"
         style="opacity:1;fill:#e91e63;fill-opacity:1;stroke:none;stroke-width:0.05069799;stroke-miterlimit:4;stroke-dasharray:none;stroke-opacity:1"
         id="circle8911"
         cx="9.9999781"
         cy="10.000005"
         r="10" />
    </clipPath>
  </defs>
  <metadata
     id="metadata7">
    <rdf:RDF>
      <cc:Work
         rdf:about="">
        <dc:format>image/svg+xml</dc:format>
        <dc:type
           rdf:resource="http://purl.org/dc/dcmitype/StillImage" />
        <dc:title />
      </cc:Work>
    </rdf:RDF>
  </metadata>
  <g
     transform="translate(1058.1428,-861.93365)"
     id="layer1"
     inkscape:groupmode="layer"
     inkscape:label="Hintergrund">
    <circle
       r="10"
       cy="871.93365"
       cx="-1048.1428"
       id="path4136"
       style="opacity:1;fill:#2196f3;fill-opacity:1;stroke:none;stroke-width:0.05069799;stroke-miterlimit:4;stroke-dasharray:none;stroke-opacity:1"
       inkscape:export-filename="/home/juergen/Projekte/Android/Android_Studio/Baumann_Theme/theme/src/main/assets/icons/res/drawable-xxhdpi/a180.png"
       inkscape:export-xdpi="648"
       inkscape:export-ydpi="648" />
    <g
       transform="matrix(0.0114705,0,0,0.0114705,-1053.1428,866.93365)"
       id="g5327" />
    <g
       transform="matrix(0.0114705,0,0,0.0114705,-1053.1428,866.93365)"
       id="g5329" />
    <g
       transform="matrix(0.0114705,0,0,0.0114705,-1053.1428,866.93365)"
       id="g5331" />
    <g
       transform="matrix(0.0114705,0,0,0.0114705,-1053.1428,866.93365)"
       id="g5333" />
    <g
       transform="matrix(0.0114705,0,0,0.0114705,-1053.1428,866.93365)"
       id="g5335" />
    <g
       transform="matrix(0.0114705,0,0,0.0114705,-1053.1428,866.93365)"
       id="g5337" />
    <g
       transform="matrix(0.0114705,0,0,0.0114705,-1053.1428,866.93365)"
       id="g5339" />
    <g
       transform="matrix(0.0114705,0,0,0.0114705,-1053.1428,866.93365)"
       id="g5341" />
    <g
       transform="matrix(0.0114705,0,0,0.0114705,-1053.1428,866.93365)"
       id="g5343" />
    <g
       transform="matrix(0.0114705,0,0,0.0114705,-1053.1428,866.93365)"
       id="g5345" />
    <g
       transform="matrix(0.0114705,0,0,0.0114705,-1053.1428,866.93365)"
       id="g5347" />
    <g
       transform="matrix(0.0114705,0,0,0.0114705,-1053.1428,866.93365)"
       id="g5349" />
    <g
       transform="matrix(0.0114705,0,0,0.0114705,-1053.1428,866.93365)"
       id="g5351" />
    <g
       transform="matrix(0.0114705,0,0,0.0114705,-1053.1428,866.93365)"
       id="g5353" />
    <g
       transform="matrix(0.0114705,0,0,0.0114705,-1053.1428,866.93365)"
       id="g5355" />
  </g>
  <g
     inkscape:label="Icon"
     id="layer2"
     inkscape:groupmode="layer"
     style="display:inline">
    <path
       style="fill:none"
       inkscape:connector-curvature="0"
       id="path4"
       d="m 3.9999777,4.0333382 12.0000003,0 0,11.9333328 -12.0000003,0 z" />
    <path
       d="m 18.999978,19.033339 12,0 0,11.933333 -12,0 z"
       id="path9754"
       inkscape:connector-curvature="0"
       style="fill:none" />
    <g
       id="g6567"
       transform="matrix(0.3537988,0,0,0.3537988,4.9999385,4.999877)" />
    <g
       id="g6569"
       transform="matrix(0.3537988,0,0,0.3537988,4.9999385,4.999877)" />
    <g
       id="g6571"
       transform="matrix(0.3537988,0,0,0.3537988,4.9999385,4.999877)" />
    <g
       id="g6573"
       transform="matrix(0.3537988,0,0,0.3537988,4.9999385,4.999877)" />
    <g
       id="g6575"
       transform="matrix(0.3537988,0,0,0.3537988,4.9999385,4.999877)" />
    <g
       id="g6577"
       transform="matrix(0.3537988,0,0,0.3537988,4.9999385,4.999877)" />
    <g
       id="g6579"
       transform="matrix(0.3537988,0,0,0.3537988,4.9999385,4.999877)" />
    <g
       id="g6581"
       transform="matrix(0.3537988,0,0,0.3537988,4.9999385,4.999877)" />
    <g
       id="g6583"
       transform="matrix(0.3537988,0,0,0.3537988,4.9999385,4.999877)" />
    <g
       id="g6585"
       transform="matrix(0.3537988,0,0,0.3537988,4.9999385,4.999877)" />
    <g
       id="g6587"
       transform="matrix(0.3537988,0,0,0.3537988,4.9999385,4.999877)" />
    <g
       id="g6589"
       transform="matrix(0.3537988,0,0,0.3537988,4.9999385,4.999877)" />
    <g
       id="g6591"
       transform="matrix(0.3537988,0,0,0.3537988,4.9999385,4.999877)" />
    <g
       id="g6593"
       transform="matrix(0.3537988,0,0,0.3537988,4.9999385,4.999877)" />
    <g
       id="g6595"
       transform="matrix(0.3537988,0,0,0.3537988,4.9999385,4.999877)" />
    <g
       id="g6597"
       transform="matrix(0.3537988,0,0,0.3537988,4.9999385,4.999877)" />
    <g
       id="g6599"
       transform="matrix(0.3537988,0,0,0.3537988,4.9999385,4.999877)" />
    <g
       id="g6601"
       transform="matrix(0.3537988,0,0,0.3537988,4.9999385,4.999877)" />
    <g
       id="g6603"
       transform="matrix(0.3537988,0,0,0.3537988,4.9999385,4.999877)" />
    <g
       id="g6605"
       transform="matrix(0.3537988,0,0,0.3537988,4.9999385,4.999877)" />
    <g
       id="g6607"
       transform="matrix(0.3537988,0,0,0.3537988,4.9999385,4.999877)" />
    <g
       id="g6609"
       transform="matrix(0.3537988,0,0,0.3537988,4.9999385,4.999877)" />
    <g
       id="g6611"
       transform="matrix(0.3537988,0,0,0.3537988,4.9999385,4.999877)" />
    <g
       id="g6613"
       transform="matrix(0.3537988,0,0,0.3537988,4.9999385,4.999877)" />
    <g
       id="g6615"
       transform="matrix(0.3537988,0,0,0.3537988,4.9999385,4.999877)" />
    <g
       id="g6617"
       transform="matrix(0.3537988,0,0,0.3537988,4.9999385,4.999877)" />
    <g
       id="g6619"
       transform="matrix(0.3537988,0,0,0.3537988,4.9999385,4.999877)" />
    <g
       id="g6621"
       transform="matrix(0.3537988,0,0,0.3537988,4.9999385,4.999877)" />
    <g
       id="g6623"
       transform="matrix(0.3537988,0,0,0.3537988,4.9999385,4.999877)" />
    <g
       id="g6625"
       transform="matrix(0.3537988,0,0,0.3537988,4.9999385,4.999877)" />
    <path
       d="M 10.109375 5.1679688 C 7.921311 5.1679688 6.1484375 5.4685415 6.1484375 7.2011719 L 6.1484375 12.398438 C 6.1484375 12.862566 6.3339207 13.308531 6.6621094 13.636719 C 6.6875694 13.662179 6.7173189 13.681368 6.7441406 13.705078 C 6.7671903 13.731056 6.7858512 13.760461 6.8105469 13.785156 C 6.8353513 13.809961 6.8645269 13.828419 6.890625 13.851562 C 6.9137689 13.877661 6.9322268 13.906836 6.9570312 13.931641 C 6.9818357 13.956445 7.0110113 13.974903 7.0371094 13.998047 C 7.0602533 14.024145 7.0787112 14.053321 7.1035156 14.078125 C 7.1282113 14.102821 7.1576156 14.121482 7.1835938 14.144531 C 7.2066435 14.170509 7.2253044 14.199914 7.25 14.224609 C 7.2745084 14.249118 7.3043063 14.266175 7.3300781 14.289062 C 7.3529656 14.314834 7.3700228 14.344632 7.3945312 14.369141 C 7.4179217 14.392531 7.4461602 14.409726 7.4707031 14.431641 C 7.4934679 14.457393 7.5127307 14.485267 7.5371094 14.509766 L 7.1484375 14.898438 L 7.1484375 15.148438 L 7.296875 15.148438 L 7.296875 15.296875 L 7.4453125 15.296875 L 7.4453125 15.445312 L 7.5917969 15.445312 L 7.5917969 15.591797 L 7.7363281 15.591797 L 7.7363281 15.736328 L 7.8828125 15.736328 L 7.8828125 15.882812 L 8.0273438 15.882812 L 8.0273438 16.027344 L 8.1699219 16.027344 L 8.1699219 16.169922 L 8.3125 16.169922 L 8.3125 16.3125 L 8.4550781 16.3125 L 8.4550781 16.455078 L 8.5976562 16.455078 L 8.5976562 16.597656 L 8.7382812 16.597656 L 8.7382812 16.738281 L 8.8769531 16.738281 L 8.8769531 16.876953 L 9.0175781 16.876953 L 9.0175781 17.017578 L 9.1542969 17.017578 L 9.1542969 17.154297 L 9.2929688 17.154297 L 9.2929688 17.292969 L 9.4296875 17.292969 L 9.4296875 17.429688 L 9.5664062 17.429688 L 9.5664062 17.566406 L 9.7011719 17.566406 L 9.7011719 17.701172 L 9.8359375 17.701172 L 9.8359375 17.835938 L 9.9707031 17.835938 L 9.9707031 17.970703 L 10.103516 17.970703 L 10.103516 18.103516 L 10.236328 18.103516 L 10.236328 18.236328 L 10.369141 18.236328 L 10.369141 18.369141 L 10.5 18.369141 L 10.5 18.5 L 10.628906 18.5 L 10.628906 18.628906 L 10.759766 18.628906 L 10.759766 18.759766 L 10.888672 18.759766 L 10.888672 18.888672 L 11.015625 18.888672 L 11.015625 19.015625 L 11.142578 19.015625 L 11.142578 19.142578 L 11.269531 19.142578 L 11.269531 19.269531 L 11.396484 19.269531 L 11.396484 19.396484 L 11.521484 19.396484 L 11.521484 19.521484 L 11.644531 19.521484 L 11.644531 19.644531 L 11.769531 19.644531 L 11.769531 19.769531 L 11.892578 19.769531 L 11.892578 19.892578 L 12.013672 19.892578 L 12.013672 20.013672 L 12.134766 20.013672 L 12.134766 20.134766 L 12.255859 20.134766 L 12.255859 20.255859 L 12.376953 20.255859 L 12.376953 20.376953 L 12.496094 20.376953 L 12.496094 20.496094 L 12.613281 20.496094 L 12.613281 20.613281 L 12.730469 20.613281 L 12.730469 20.730469 L 12.847656 20.730469 L 12.847656 20.847656 L 12.964844 20.847656 L 12.964844 20.964844 L 13.080078 20.964844 L 13.080078 21.080078 L 13.195312 21.080078 L 13.195312 21.195312 L 13.308594 21.195312 L 13.308594 21.308594 L 13.421875 21.308594 L 13.421875 21.421875 L 13.535156 21.421875 L 13.535156 21.535156 L 13.646484 21.535156 L 13.646484 21.646484 L 13.757812 21.646484 L 13.757812 21.757812 L 13.867188 21.757812 L 13.867188 21.867188 L 13.976562 21.867188 L 13.976562 21.976562 L 14.085938 21.976562 L 14.085938 22.085938 L 14.193359 22.085938 L 14.193359 22.193359 L 14.300781 22.193359 L 14.300781 22.300781 L 14.408203 22.300781 L 14.408203 22.408203 L 14.513672 22.408203 L 14.513672 22.513672 L 14.619141 22.513672 L 14.619141 22.619141 L 14.722656 22.619141 L 14.722656 22.722656 L 14.826172 22.722656 L 14.826172 22.826172 L 14.929688 22.826172 L 14.929688 22.929688 L 15.03125 22.929688 L 15.03125 23.03125 L 15.132812 23.03125 L 15.132812 23.132812 L 15.234375 23.132812 L 15.234375 23.234375 L 15.333984 23.234375 L 15.333984 23.333984 L 15.431641 23.333984 L 15.431641 23.431641 L 15.53125 23.431641 L 15.53125 23.53125 L 15.628906 23.53125 L 15.628906 23.628906 L 15.724609 23.628906 L 15.724609 23.724609 L 15.822266 23.724609 L 15.822266 23.822266 L 15.916016 23.822266 L 15.916016 23.916016 L 16.011719 23.916016 L 16.011719 24.011719 L 16.105469 24.011719 L 16.105469 24.105469 L 16.199219 24.105469 L 16.199219 24.199219 L 16.291016 24.199219 L 16.291016 24.291016 L 16.382812 24.291016 L 16.382812 24.382812 L 16.474609 24.382812 L 16.474609 24.474609 L 16.564453 24.474609 L 16.564453 24.564453 L 16.654297 24.564453 L 16.654297 24.654297 L 16.742188 24.654297 L 16.742188 24.742188 L 16.830078 24.742188 L 16.830078 24.830078 L 16.917969 24.830078 L 16.917969 24.917969 L 17.003906 24.917969 L 17.003906 25.003906 L 17.089844 25.003906 L 17.089844 25.089844 L 17.175781 25.089844 L 17.175781 25.175781 L 17.259766 25.175781 L 17.259766 25.259766 L 17.341797 25.259766 L 17.341797 25.341797 L 17.425781 25.341797 L 17.425781 25.425781 L 17.507812 25.425781 L 17.507812 25.507812 L 17.587891 25.507812 L 17.587891 25.587891 L 17.669922 25.587891 L 17.669922 25.669922 L 17.75 25.669922 L 17.75 25.75 L 17.828125 25.75 L 17.828125 25.828125 L 17.90625 25.828125 L 17.90625 25.90625 L 17.984375 25.90625 L 17.984375 25.984375 L 18.060547 25.984375 L 18.060547 26.060547 L 18.136719 26.060547 L 18.136719 26.136719 L 18.212891 26.136719 L 18.212891 26.212891 L 18.287109 26.212891 L 18.287109 26.287109 L 18.361328 26.287109 L 18.361328 26.361328 L 18.433594 26.361328 L 18.433594 26.433594 L 18.505859 26.433594 L 18.505859 26.505859 L 18.578125 26.505859 L 18.578125 26.578125 L 18.648438 26.578125 L 18.648438 26.648438 L 18.71875 26.648438 L 18.71875 26.71875 L 18.789062 26.71875 L 18.789062 26.789062 L 18.857422 26.789062 L 18.857422 26.857422 L 18.925781 26.857422 L 18.925781 26.925781 L 18.992188 26.925781 L 18.992188 26.992188 L 19.058594 26.992188 L 19.058594 27.058594 L 19.125 27.058594 L 19.125 27.125 L 19.189453 27.125 L 19.189453 27.189453 L 19.253906 27.189453 L 19.253906 27.253906 L 19.318359 27.253906 L 19.318359 27.318359 L 19.380859 27.318359 L 19.380859 27.380859 L 19.441406 27.380859 L 19.441406 27.441406 L 19.503906 27.441406 L 19.503906 27.503906 L 19.564453 27.503906 L 19.564453 27.564453 L 19.623047 27.564453 L 19.623047 27.623047 L 19.683594 27.623047 L 19.683594 27.683594 L 19.740234 27.683594 L 19.740234 27.740234 L 19.798828 27.740234 L 19.798828 27.798828 L 19.855469 27.798828 L 19.855469 27.855469 L 19.912109 27.855469 L 19.912109 27.912109 L 19.966797 27.912109 L 19.966797 27.966797 L 20.021484 27.966797 L 20.021484 28.021484 L 20.076172 28.021484 L 20.076172 28.076172 L 20.128906 28.076172 L 20.128906 28.128906 L 20.181641 28.128906 L 20.181641 28.181641 L 20.232422 28.181641 L 20.232422 28.232422 L 20.283203 28.232422 L 20.283203 28.283203 L 20.333984 28.283203 L 20.333984 28.333984 L 20.382812 28.333984 L 20.382812 28.382812 L 20.431641 28.382812 L 20.431641 28.431641 L 20.478516 28.431641 L 20.478516 28.478516 L 20.527344 28.478516 L 20.527344 28.527344 L 20.572266 28.527344 L 20.572266 28.572266 L 20.619141 28.572266 L 20.619141 28.619141 L 20.664062 28.619141 L 20.664062 28.664062 L 20.707031 28.664062 L 20.707031 28.707031 L 20.751953 28.707031 L 20.751953 28.751953 L 20.792969 28.751953 L 20.792969 28.792969 L 20.835938 28.792969 L 20.835938 28.835938 L 20.876953 28.835938 L 20.876953 28.876953 L 20.917969 28.876953 L 20.917969 28.917969 L 20.957031 28.917969 L 20.957031 28.957031 L 20.996094 28.957031 L 20.996094 28.996094 L 21.035156 28.996094 L 21.035156 29.035156 L 21.072266 29.035156 L 21.072266 29.072266 L 21.109375 29.072266 L 21.109375 29.109375 L 21.144531 29.109375 L 21.144531 29.144531 L 21.179688 29.144531 L 21.179688 29.179688 L 21.214844 29.179688 L 21.214844 29.214844 L 21.248047 29.214844 L 21.248047 29.248047 L 21.28125 29.248047 L 21.28125 29.28125 L 21.314453 29.28125 L 21.314453 29.314453 L 21.345703 29.314453 L 21.345703 29.345703 L 21.375 29.345703 L 21.375 29.375 L 21.40625 29.375 L 21.40625 29.40625 L 21.435547 29.40625 L 21.435547 29.435547 L 21.464844 29.435547 L 21.464844 29.462891 L 21.492188 29.462891 L 21.492188 29.492188 L 21.519531 29.492188 L 21.519531 29.519531 L 21.544922 29.519531 L 21.544922 29.544922 L 21.570312 29.544922 L 21.570312 29.570312 L 21.595703 29.570312 L 21.595703 29.595703 L 21.619141 29.595703 L 21.619141 29.619141 L 21.642578 29.619141 L 21.642578 29.642578 L 21.666016 29.642578 L 21.666016 29.666016 L 21.6875 29.666016 L 21.6875 29.6875 L 21.708984 29.6875 L 21.708984 29.708984 L 21.728516 29.708984 L 21.728516 29.728516 L 21.748047 29.728516 L 21.748047 29.748047 L 21.767578 29.748047 L 21.767578 29.767578 L 21.787109 29.767578 L 21.787109 29.787109 L 21.802734 29.787109 L 21.802734 29.802734 L 21.820312 29.802734 L 21.820312 29.820312 L 21.835938 29.820312 L 21.835938 29.835938 L 21.851562 29.835938 L 21.851562 29.851562 L 21.865234 29.851562 L 21.865234 29.865234 L 21.878906 29.865234 L 21.878906 29.878906 L 21.892578 29.878906 L 21.892578 29.892578 L 21.904297 29.892578 L 21.904297 29.904297 L 21.916016 29.904297 L 21.916016 29.916016 L 21.927734 29.916016 L 21.927734 29.927734 L 21.9375 29.927734 L 21.9375 29.9375 L 21.947266 29.9375 L 21.947266 29.947266 L 21.955078 29.947266 L 21.955078 29.955078 L 21.962891 29.955078 L 21.962891 29.962891 L 21.970703 29.962891 L 21.970703 29.970703 L 21.976562 29.970703 L 21.976562 29.976562 L 21.982422 29.976562 L 21.982422 29.982422 L 21.986328 29.982422 L 21.986328 29.986328 L 21.990234 29.986328 L 21.990234 29.990234 L 21.994141 29.990234 L 21.994141 29.994141 L 21.996094 29.994141 L 21.996094 29.996094 L 21.998047 29.996094 L 21.998047 29.998047 L 22 29.998047 L 22 30 L 28 30 L 28 29.75 L 27.998047 29.748047 L 27.996094 29.746094 L 27.994141 29.744141 L 27.990234 29.740234 L 27.986328 29.736328 L 27.982422 29.732422 L 27.976562 29.726562 L 27.970703 29.720703 L 27.962891 29.712891 L 27.955078 29.705078 L 27.947266 29.697266 L 27.9375 29.6875 L 27.927734 29.677734 L 27.916016 29.666016 L 27.904297 29.654297 L 27.892578 29.642578 L 27.878906 29.628906 L 27.865234 29.615234 L 27.851562 29.601562 L 27.835938 29.585938 L 27.820312 29.570312 L 27.802734 29.552734 L 27.787109 29.537109 L 27.767578 29.517578 L 27.748047 29.498047 L 27.728516 29.478516 L 27.708984 29.458984 L 27.6875 29.4375 L 27.666016 29.416016 L 27.642578 29.392578 L 27.619141 29.369141 L 27.595703 29.345703 L 27.570312 29.320312 L 27.544922 29.294922 L 27.519531 29.269531 L 27.492188 29.242188 L 27.464844 29.212891 L 27.435547 29.185547 L 27.40625 29.15625 L 27.375 29.125 L 27.345703 29.095703 L 27.314453 29.064453 L 27.28125 29.03125 L 27.25 29 C 27.490971 29 27.720775 28.94943 27.929688 28.861328 C 27.930218 28.861104 27.93111 28.861553 27.931641 28.861328 C 28.141005 28.772775 28.327986 28.644669 28.486328 28.486328 C 28.644671 28.327987 28.772773 28.141004 28.861328 27.931641 C 28.861567 27.931077 28.86109 27.930252 28.861328 27.929688 C 28.949432 27.720776 28.999998 27.49097 29 27.25 L 29 22 C 29 21.807415 28.969266 21.640343 28.927734 21.482422 C 28.921934 21.460366 28.924539 21.431573 28.917969 21.410156 C 28.900157 21.351856 28.863214 21.309555 28.839844 21.255859 C 28.793247 21.149091 28.751006 21.03884 28.683594 20.949219 C 28.683594 20.949219 28.681641 20.947266 28.681641 20.947266 C 28.681641 20.947266 28.679688 20.945312 28.679688 20.945312 C 28.583699 20.818694 28.465939 20.709005 28.332031 20.613281 C 28.325861 20.608869 28.322652 20.602007 28.316406 20.597656 C 28.315718 20.597177 28.315142 20.596181 28.314453 20.595703 C 28.313313 20.594911 28.311689 20.59454 28.310547 20.59375 C 28.310547 20.59375 28.308594 20.591797 28.308594 20.591797 C 28.307449 20.591001 28.305835 20.590638 28.304688 20.589844 C 28.30355 20.589049 28.301921 20.588683 28.300781 20.587891 C 28.300781 20.587891 28.298828 20.585938 28.298828 20.585938 C 28.29614 20.584044 28.291764 20.580007 28.289062 20.578125 C 28.28679 20.576533 28.283532 20.575803 28.28125 20.574219 C 28.280104 20.573431 28.278492 20.573052 28.277344 20.572266 C 28.274661 20.570368 28.272228 20.568293 28.269531 20.566406 C 28.266851 20.564507 28.264413 20.562435 28.261719 20.560547 C 28.260184 20.559439 28.259352 20.557745 28.257812 20.556641 C 28.256677 20.55584 28.255044 20.555486 28.253906 20.554688 C 28.249333 20.551424 28.242895 20.5462 28.238281 20.542969 C 28.236018 20.541365 28.232742 20.540658 28.230469 20.539062 C 28.226667 20.536345 28.22258 20.533945 28.21875 20.53125 C 28.216074 20.529333 28.213628 20.527297 28.210938 20.525391 C 28.205614 20.521542 28.200692 20.517475 28.195312 20.513672 C 28.189628 20.509565 28.181529 20.504057 28.175781 20.5 C 28.173525 20.49838 28.170235 20.497706 28.167969 20.496094 C 28.162666 20.492227 28.157702 20.488197 28.152344 20.484375 C 28.146449 20.480076 28.140728 20.474947 28.134766 20.470703 C 28.130602 20.467661 28.125292 20.465906 28.121094 20.462891 C 28.114016 20.457677 28.106786 20.4524 28.099609 20.447266 C 28.094038 20.443173 28.087664 20.439591 28.082031 20.435547 C 28.076466 20.431443 28.07008 20.427884 28.064453 20.423828 C 28.058133 20.419135 28.051321 20.414787 28.044922 20.410156 C 28.038611 20.40545 28.031781 20.401128 28.025391 20.396484 C 28.019102 20.391775 28.012227 20.38746 28.005859 20.382812 C 27.998822 20.377503 27.991512 20.372419 27.984375 20.367188 C 27.977355 20.361868 27.970009 20.356805 27.962891 20.351562 C 27.954775 20.345384 27.945747 20.34006 27.9375 20.333984 C 27.929718 20.32805 27.920012 20.3242 27.912109 20.318359 C 27.904453 20.3125 27.896446 20.306549 27.888672 20.300781 C 27.880646 20.294599 27.871437 20.289286 27.863281 20.283203 C 27.855286 20.277012 27.846014 20.271716 27.837891 20.265625 C 27.829915 20.259416 27.820604 20.254157 27.8125 20.248047 C 27.803797 20.241215 27.794012 20.23523 27.785156 20.228516 C 27.776472 20.22166 27.76665 20.215723 27.757812 20.208984 C 27.747373 20.200695 27.73527 20.193667 27.724609 20.185547 C 27.716725 20.179287 27.707228 20.174133 27.699219 20.167969 C 27.688836 20.159626 27.676619 20.152707 27.666016 20.144531 C 27.657104 20.137368 27.645792 20.132041 27.636719 20.125 C 27.627767 20.117739 27.616537 20.112606 27.607422 20.105469 C 27.595003 20.095285 27.579142 20.084163 27.566406 20.074219 C 27.560316 20.069257 27.549134 20.065452 27.542969 20.060547 C 27.529952 20.049732 27.513366 20.037897 27.5 20.027344 C 27.491516 20.020337 27.479334 20.016662 27.470703 20.009766 C 27.460201 20.000969 27.44823 19.993003 27.4375 19.984375 C 27.424323 19.973244 27.408068 19.96399 27.394531 19.953125 C 27.38586 19.945809 27.37406 19.940795 27.365234 19.933594 C 27.352783 19.922922 27.335039 19.912778 27.322266 19.902344 C 27.311286 19.892941 27.294432 19.88422 27.283203 19.875 C 27.271826 19.865183 27.255785 19.859231 27.244141 19.849609 C 27.23663 19.843077 27.226378 19.838478 27.21875 19.832031 C 27.216275 19.830044 27.213424 19.828151 27.210938 19.826172 C 27.197941 19.814688 27.179367 19.804196 27.166016 19.792969 C 27.154087 19.782429 27.137226 19.775951 27.125 19.765625 C 27.117558 19.758995 27.107168 19.754593 27.099609 19.748047 C 27.095261 19.744656 27.090319 19.741647 27.085938 19.738281 C 27.085938 19.738281 27.083984 19.736328 27.083984 19.736328 C 27.083984 19.736328 27.082031 19.734375 27.082031 19.734375 C 27.075965 19.729491 27.068634 19.725537 27.0625 19.720703 C 27.056317 19.715281 27.047276 19.712397 27.041016 19.707031 C 27.034662 19.701276 27.02597 19.697101 27.019531 19.691406 C 27.01325 19.68668 27.006348 19.682411 27 19.677734 C 27 19.677734 26.998047 19.675781 26.998047 19.675781 C 26.996368 19.674248 26.993872 19.673404 26.992188 19.671875 C 26.989027 19.669307 26.985601 19.666617 26.982422 19.664062 C 26.97588 19.65819 26.963662 19.654248 26.957031 19.648438 C 26.957031 19.648438 26.955078 19.646484 26.955078 19.646484 C 26.94856 19.640801 26.940196 19.636483 26.933594 19.630859 C 26.915529 19.617795 26.897487 19.604474 26.878906 19.591797 C 26.878906 19.591797 26.876953 19.589844 26.876953 19.589844 C 26.84202 19.563353 26.806463 19.536719 26.769531 19.511719 C 26.744449 19.493788 26.721344 19.474246 26.695312 19.457031 C 26.604063 19.38152 26.513633 19.305135 26.408203 19.240234 C 26.383101 19.223862 26.363796 19.203244 26.337891 19.1875 C 26.319824 19.175866 26.305582 19.161705 26.287109 19.150391 C 26.271939 19.140536 26.261551 19.126817 26.246094 19.117188 C 26.229051 19.105919 26.214674 19.09106 26.197266 19.080078 C 26.178374 19.067446 26.163873 19.051342 26.144531 19.039062 C 26.126802 19.027111 26.111875 19.013594 26.09375 19.001953 C 26.0765 18.990191 26.062547 18.976311 26.044922 18.964844 C 26.027889 18.953055 26.015448 18.937281 25.998047 18.925781 C 25.979097 18.912482 25.962767 18.897705 25.943359 18.884766 C 25.924945 18.871715 25.909473 18.85646 25.890625 18.84375 C 25.87003 18.828962 25.851217 18.813188 25.830078 18.798828 C 25.813325 18.786727 25.798361 18.773538 25.78125 18.761719 C 25.764655 18.74952 25.751325 18.734575 25.734375 18.722656 C 25.711967 18.705877 25.69103 18.68814 25.667969 18.671875 C 25.649223 18.657802 25.630527 18.644574 25.611328 18.630859 C 25.593468 18.617255 25.576867 18.603122 25.558594 18.589844 C 25.539399 18.574988 25.52163 18.559398 25.501953 18.544922 C 25.480623 18.528182 25.459427 18.512361 25.4375 18.496094 C 25.418141 18.480791 25.398755 18.466086 25.378906 18.451172 C 25.360755 18.436618 25.342803 18.422413 25.324219 18.408203 C 25.302262 18.390278 25.280408 18.372887 25.257812 18.355469 C 25.238118 18.339279 25.217472 18.324376 25.197266 18.308594 C 25.177025 18.291712 25.155549 18.276215 25.134766 18.259766 C 25.114631 18.242755 25.09294 18.227518 25.072266 18.210938 C 25.052329 18.193875 25.030232 18.178748 25.009766 18.162109 C 24.989231 18.144271 24.966413 18.128714 24.945312 18.111328 C 24.924938 18.093394 24.901792 18.078033 24.880859 18.060547 C 24.856904 18.039176 24.829415 18.020746 24.804688 18 C 24.787292 17.984409 24.765847 17.972294 24.748047 17.957031 C 24.72572 17.936565 24.696831 17.918355 24.673828 17.898438 C 24.653622 17.879756 24.62818 17.865888 24.607422 17.847656 C 24.595022 17.836011 24.579016 17.827882 24.566406 17.816406 C 24.558714 17.809861 24.550733 17.803357 24.542969 17.796875 C 24.542969 17.796875 24.541016 17.794922 24.541016 17.794922 C 24.473913 17.730898 24.395363 17.677884 24.322266 17.619141 C 24.252712 17.559261 24.1824 17.499648 24.107422 17.445312 C 24.056938 17.405987 24.013895 17.358749 23.960938 17.322266 C 23.93743 17.30481 23.918543 17.282474 23.894531 17.265625 C 23.870881 17.247728 23.85229 17.224304 23.828125 17.207031 C 23.802324 17.187146 23.780323 17.163659 23.753906 17.144531 C 23.729419 17.125395 23.708636 17.102427 23.683594 17.083984 C 23.658787 17.064268 23.636707 17.04243 23.611328 17.023438 C 23.587573 17.004224 23.567252 16.981429 23.542969 16.962891 C 23.518263 16.942531 23.495984 16.920006 23.470703 16.900391 C 23.442245 16.876517 23.415943 16.850989 23.386719 16.828125 C 23.363249 16.808263 23.340396 16.788697 23.316406 16.769531 C 23.292532 16.748888 23.270511 16.72694 23.246094 16.707031 C 23.218574 16.682738 23.192309 16.65806 23.164062 16.634766 C 23.139043 16.612437 23.11351 16.591801 23.087891 16.570312 C 23.062048 16.546818 23.036252 16.524531 23.009766 16.501953 C 22.984098 16.478238 22.957947 16.456387 22.931641 16.433594 C 22.906116 16.409622 22.879674 16.388274 22.853516 16.365234 C 22.827489 16.340344 22.800126 16.318822 22.773438 16.294922 C 22.747576 16.269775 22.719878 16.248757 22.693359 16.224609 C 22.667681 16.199217 22.639611 16.17868 22.613281 16.154297 C 22.587133 16.127957 22.558077 16.107301 22.53125 16.082031 C 22.501974 16.052032 22.469583 16.028619 22.439453 16 C 22.414423 15.974093 22.385028 15.956518 22.359375 15.931641 C 22.356776 15.928894 22.354168 15.926563 22.351562 15.923828 C 22.328226 15.901355 22.303127 15.882889 22.279297 15.861328 C 22.254405 15.834474 22.224738 15.816801 22.199219 15.791016 C 22.155819 15.743205 22.105847 15.708448 22.060547 15.664062 C 22.019167 15.627151 21.98024 15.58646 21.9375 15.552734 C 21.859036 15.477147 21.784669 15.393091 21.701172 15.330078 C 21.673931 15.307113 21.650828 15.275348 21.623047 15.253906 C 21.594914 15.229651 21.56973 15.198361 21.541016 15.175781 C 21.512136 15.150346 21.486529 15.117362 21.457031 15.09375 C 21.428156 15.067846 21.400591 15.037694 21.371094 15.013672 C 21.341247 14.986393 21.313718 14.954887 21.283203 14.929688 C 21.256663 14.90502 21.232151 14.87649 21.205078 14.853516 C 21.174216 14.824063 21.144872 14.792702 21.113281 14.765625 C 21.085984 14.73919 21.05912 14.712019 21.03125 14.6875 C 20.99975 14.656204 20.969771 14.624349 20.9375 14.595703 C 20.909647 14.567695 20.881973 14.541493 20.853516 14.515625 C 20.824331 14.485537 20.795482 14.457341 20.765625 14.429688 C 20.737047 14.399574 20.708916 14.371446 20.679688 14.34375 C 20.649252 14.31096 20.617118 14.283846 20.585938 14.253906 C 20.554774 14.219746 20.524135 14.19121 20.492188 14.160156 C 20.463723 14.128455 20.43342 14.105188 20.404297 14.076172 C 20.373154 14.040639 20.340533 14.014605 20.308594 13.982422 C 20.280728 13.950063 20.251166 13.928018 20.222656 13.898438 C 20.190372 13.859854 20.156206 13.833515 20.123047 13.798828 C 20.094082 13.763767 20.062876 13.74274 20.033203 13.710938 C 20.002997 13.673409 19.970439 13.651022 19.939453 13.617188 C 19.909993 13.579814 19.877866 13.559103 19.847656 13.525391 C 19.81664 13.485065 19.781857 13.463818 19.75 13.427734 C 19.640441 13.282686 19.525493 13.162603 19.40625 13.080078 C 19.375932 13.053167 19.349278 13.008333 19.318359 12.986328 C 19.28846 12.959016 19.260961 12.914904 19.230469 12.892578 C 19.198716 12.862656 19.169151 12.816994 19.136719 12.792969 C 19.105265 12.762766 19.075097 12.719447 19.042969 12.695312 C 19.0099 12.662754 18.979137 12.617303 18.945312 12.591797 C 18.914354 12.56091 18.885143 12.518543 18.853516 12.494141 C 18.822504 12.462313 18.793413 12.419523 18.761719 12.394531 C 18.728899 12.359884 18.697658 12.315638 18.664062 12.289062 C 18.631586 12.254176 18.599651 12.212101 18.566406 12.185547 C 18.533193 12.149121 18.500824 12.107297 18.466797 12.080078 C 18.436103 12.045784 18.406401 12.006483 18.375 11.980469 C 18.341759 11.94199 18.309475 11.899284 18.275391 11.871094 C 18.241901 11.831673 18.208184 11.792018 18.173828 11.763672 C 18.142096 11.725582 18.110648 11.687726 18.078125 11.660156 C 18.044565 11.618554 18.011023 11.577917 17.976562 11.548828 C 17.94241 11.505718 17.908144 11.466801 17.873047 11.4375 C 17.841215 11.396576 17.810012 11.360217 17.777344 11.332031 C 17.743346 11.286705 17.708799 11.246592 17.673828 11.216797 C 17.640523 11.171657 17.606519 11.134677 17.572266 11.105469 C 17.538809 11.05897 17.505134 11.021467 17.470703 10.992188 C 17.436428 10.943297 17.400551 10.904472 17.365234 10.875 C 17.331267 10.825645 17.296727 10.786651 17.261719 10.757812 C 17.223167 10.700618 17.184435 10.659294 17.144531 10.630859 C 17.111719 10.583759 17.07872 10.546149 17.044922 10.521484 C 17.011233 10.471 16.976164 10.43309 16.941406 10.408203 C 16.912952 10.364075 16.884717 10.32532 16.855469 10.300781 C 16.844611 10.288727 16.833419 10.277357 16.822266 10.265625 C 16.791272 10.226246 16.764342 10.18279 16.730469 10.146484 C 16.698493 10.104787 16.669955 10.059783 16.634766 10.021484 C 16.604723 9.9816574 16.575954 9.9410401 16.542969 9.9042969 C 16.511429 9.8612713 16.482217 9.8168268 16.447266 9.7773438 C 16.418594 9.7375533 16.390976 9.6969336 16.359375 9.6601562 C 16.328061 9.615216 16.296731 9.5704675 16.261719 9.5292969 C 16.2323 9.4865455 16.198801 9.4475516 16.166016 9.4082031 C 16.136656 9.3642602 16.105162 9.3236045 16.072266 9.2832031 C 16.043085 9.2384795 16.011352 9.1973447 15.978516 9.15625 C 15.949703 9.1109902 15.915362 9.0708815 15.882812 9.0292969 C 15.854384 8.9835703 15.819345 8.944358 15.787109 8.9023438 C 15.758351 8.8548489 15.722303 8.8150235 15.689453 8.7714844 C 15.662286 8.7256306 15.626686 8.688682 15.595703 8.6464844 C 15.568178 8.5985763 15.531666 8.5596 15.5 8.515625 C 15.471767 8.4652001 15.433194 8.4250248 15.400391 8.3789062 C 15.374124 8.3311691 15.335064 8.2958515 15.304688 8.2519531 C 15.278082 8.2020482 15.238101 8.1649107 15.207031 8.1191406 C 15.181174 8.0693261 15.139669 8.0340208 15.109375 7.9882812 C 15.032113 7.8353452 14.933578 7.7001977 14.816406 7.5839844 C 14.782976 7.542173 14.760142 7.4892524 14.722656 7.4511719 C 14.687432 7.4060041 14.662966 7.3514409 14.623047 7.3105469 C 14.590103 7.267737 14.566468 7.2167374 14.529297 7.1777344 C 14.494668 7.1314971 14.469203 7.0770396 14.429688 7.0351562 C 14.396698 6.9905037 14.371538 6.939066 14.333984 6.8984375 C 14.300446 6.8519082 14.272836 6.8000472 14.234375 6.7578125 C 14.200383 6.7098155 14.172029 6.6567665 14.132812 6.6132812 C 14.100164 6.5665717 14.070807 6.5170842 14.033203 6.4746094 C 14.000172 6.4262047 13.971912 6.3740096 13.933594 6.3300781 C 13.901278 6.2819391 13.871523 6.2312647 13.833984 6.1875 C 13.2567 5.3103408 11.808833 5.1544779 10.109375 5.1679688 z "
       id="path7996"
       style="fill-opacity:1;fill:url(#linearGradient8904)"
       clip-path="url(#clipPath8909)" />
    <rect
       style="opacity:1;fill:#f5f5f5;fill-opacity:1;stroke:none;stroke-width:1.25;stroke-linecap:round;stroke-linejoin:round;stroke-miterlimit:4;stroke-dasharray:none;stroke-opacity:1"
       id="rect8913"
       width="6.5407376"
       height="3.2261746"
       x="6.7617087"
       y="6.5207767" />
    <ellipse
       style="opacity:1;fill:#ffc107;fill-opacity:1;stroke:none;stroke-width:1.25;stroke-linecap:round;stroke-linejoin:round;stroke-miterlimit:4;stroke-dasharray:none;stroke-opacity:1"
       id="path8915"
       cx="9.8111067"
       cy="12.045049"
       rx="1.6793786"
       ry="1.4142135" />
    <path
       inkscape:connector-curvature="0"
       d="m 13,9.5 -5.9999997,0 0,-2.5 L 13,7 m -3.0000002,6 c -0.5549997,0 -0.9999997,-0.45 -0.9999997,-1 0,-0.555 0.445,-1 0.9999997,-1 A 1,1 0 0 1 11,12 1,1 0 0 1 9.9999998,13 M 6.0000003,12.25 a 1.75,1.75 0 0 0 1.75,1.75 l -0.75,0.75 0,0.25 L 13,15 13,14.75 12.25,14 A 1.75,1.75 0 0 0 14,12.25 L 14,7 C 14,5.25 12.21,5 9.9999998,5 7.7900003,5 6.0000003,5.25 6.0000003,7 l 0,5.25 z"
       id="path7881"
       style="fill:#424242" />
  </g>
</svg>
