<?xml version="1.0" encoding="UTF-8" standalone="no"?>
<!-- Created with Inkscape (http://www.inkscape.org/) -->

<svg
   xmlns:dc="http://purl.org/dc/elements/1.1/"
   xmlns:cc="http://creativecommons.org/ns#"
   xmlns:rdf="http://www.w3.org/1999/02/22-rdf-syntax-ns#"
   xmlns:svg="http://www.w3.org/2000/svg"
   xmlns="http://www.w3.org/2000/svg"
   xmlns:xlink="http://www.w3.org/1999/xlink"
   xmlns:sodipodi="http://sodipodi.sourceforge.net/DTD/sodipodi-0.dtd"
   xmlns:inkscape="http://www.inkscape.org/namespaces/inkscape"
   sodipodi:docname="Fdroid.svg"
   inkscape:version="0.91 r13725"
   version="1.1"
   id="svg2"
   viewBox="0 0 20 20"
   height="5.6444445mm"
   width="5.6444445mm"
   inkscape:export-filename="/home/juergen/Projekte/Android/Android_Studio/Baumann_Theme/theme/src/main/assets/icons/res/drawable-xxhdpi/a012.png"
   inkscape:export-xdpi="648"
   inkscape:export-ydpi="648">
  <sodipodi:namedview
     inkscape:snap-to-guides="true"
     inkscape:snap-grids="true"
     inkscape:window-maximized="1"
     inkscape:window-y="24"
     inkscape:window-x="0"
     inkscape:window-height="744"
     inkscape:window-width="1366"
     inkscape:guide-bbox="true"
     showguides="true"
     fit-margin-bottom="0"
     fit-margin-right="0"
     fit-margin-left="0"
     fit-margin-top="0"
     showgrid="true"
     inkscape:current-layer="layer2"
     inkscape:document-units="px"
     inkscape:cy="15.442923"
     inkscape:cx="5.0745375"
     inkscape:zoom="15.839192"
     inkscape:pageshadow="2"
     inkscape:pageopacity="0.0"
     borderopacity="1.0"
     bordercolor="#666666"
     pagecolor="#ffffff"
     id="base">
    <inkscape:grid
       id="grid4138"
       type="xygrid" />
    <sodipodi:guide
       id="guide4140"
       orientation="0,1"
       position="10,18" />
    <sodipodi:guide
       id="guide4142"
       orientation="0,1"
       position="10,2" />
    <sodipodi:guide
       id="guide4144"
       orientation="1,0"
       position="2,10" />
    <sodipodi:guide
       id="guide4146"
       orientation="0,20"
       position="0,0" />
    <sodipodi:guide
       id="guide4148"
       orientation="-20,0"
       position="20,0" />
    <sodipodi:guide
       id="guide4150"
       orientation="0,-20"
       position="20,20" />
    <sodipodi:guide
       id="guide4152"
       orientation="20,0"
       position="0,20" />
    <sodipodi:guide
       id="guide4154"
       orientation="1,0"
       position="18,10" />
    <sodipodi:guide
       id="guide4156"
       orientation="-0.70710678,0.70710678"
       position="10,10" />
    <sodipodi:guide
       id="guide4158"
       orientation="0.70710678,0.70710678"
       position="10,10" />
    <sodipodi:guide
       id="guide4160"
       orientation="1,0"
       position="4,10" />
    <sodipodi:guide
       id="guide4162"
       orientation="1,0"
       position="16,10" />
    <sodipodi:guide
       id="guide4164"
       orientation="0,1"
       position="10,16" />
    <sodipodi:guide
       id="guide4166"
       orientation="0,1"
       position="10,4" />
    <sodipodi:guide
       id="guide4168"
       orientation="0,1"
       position="10,15" />
    <sodipodi:guide
       id="guide4170"
       orientation="0,1"
       position="10,5" />
    <sodipodi:guide
       id="guide4172"
       orientation="1,0"
       position="5,10" />
    <sodipodi:guide
       id="guide4174"
       orientation="1,0"
       position="15,10" />
  </sodipodi:namedview>
  <defs
     id="defs4">
    <linearGradient
       inkscape:collect="always"
       id="linearGradient6085">
      <stop
         style="stop-color:#000000;stop-opacity:1;"
         offset="0"
         id="stop6087" />
      <stop
         style="stop-color:#000000;stop-opacity:0;"
         offset="1"
         id="stop6089" />
    </linearGradient>
    <clipPath
       clipPathUnits="userSpaceOnUse"
       id="clipPath12478">
      <circle
         style="opacity:1;fill:#2196f3;fill-opacity:1;stroke:none;stroke-width:0.05069799;stroke-miterlimit:4;stroke-dasharray:none;stroke-opacity:1"
         id="circle12480"
         cx="9.9999781"
         cy="10.000005"
         r="10" />
    </clipPath>
    <clipPath
       id="clipPath13251"
       clipPathUnits="userSpaceOnUse">
      <circle
         inkscape:export-ydpi="648"
         inkscape:export-xdpi="648"
         inkscape:export-filename="/home/juergen/path4136.png"
         style="opacity:1;fill:#2196f3;fill-opacity:1;stroke:none;stroke-width:0.05069799;stroke-miterlimit:4;stroke-dasharray:none;stroke-opacity:1"
         id="circle13253"
         cx="9.9999781"
         cy="10.000005"
         r="10" />
    </clipPath>
    <clipPath
       clipPathUnits="userSpaceOnUse"
       id="clipPath5054">
      <circle
         inkscape:export-ydpi="648"
         inkscape:export-xdpi="648"
         inkscape:export-filename="/home/juergen/path4136.png"
         style="opacity:1;fill:#2196f3;fill-opacity:1;stroke:none;stroke-width:0.05069799;stroke-miterlimit:4;stroke-dasharray:none;stroke-opacity:1"
         id="circle5056"
         cx="9.9999781"
         cy="10.000005"
         r="10" />
    </clipPath>
    <clipPath
       id="clipPath5119"
       clipPathUnits="userSpaceOnUse">
      <circle
         inkscape:export-ydpi="648"
         inkscape:export-xdpi="648"
         inkscape:export-filename="/home/juergen/path4136.png"
         style="opacity:1;fill:#2196f3;fill-opacity:1;stroke:none;stroke-width:0.05069799;stroke-miterlimit:4;stroke-dasharray:none;stroke-opacity:1"
         id="circle5121"
         cx="9.9999781"
         cy="10.000005"
         r="10" />
    </clipPath>
    <linearGradient
       inkscape:collect="always"
       xlink:href="#linearGradient6085"
       id="linearGradient6091"
       x1="10"
       y1="10"
       x2="20"
       y2="20"
       gradientUnits="userSpaceOnUse" />
    <clipPath
       clipPathUnits="userSpaceOnUse"
       id="clipPath6096">
      <circle
         inkscape:export-ydpi="648"
         inkscape:export-xdpi="648"
         inkscape:export-filename="/home/juergen/path4136.png"
         style="opacity:1;fill:#4caf50;fill-opacity:1;stroke:none;stroke-width:0.05069799;stroke-miterlimit:4;stroke-dasharray:none;stroke-opacity:1"
         id="circle6098"
         cx="9.9999781"
         cy="10.000005"
         r="10" />
    </clipPath>
  </defs>
  <metadata
     id="metadata7">
    <rdf:RDF>
      <cc:Work
         rdf:about="">
        <dc:format>image/svg+xml</dc:format>
        <dc:type
           rdf:resource="http://purl.org/dc/dcmitype/StillImage" />
        <dc:title />
      </cc:Work>
    </rdf:RDF>
  </metadata>
  <g
     transform="translate(1058.1428,-861.93365)"
     id="layer1"
     inkscape:groupmode="layer"
     inkscape:label="Hintergrund">
    <circle
       r="10"
       cy="871.93365"
       cx="-1048.1428"
       id="path4136"
       style="opacity:1;fill:#4caf50;fill-opacity:1;stroke:none;stroke-width:0.05069799;stroke-miterlimit:4;stroke-dasharray:none;stroke-opacity:1"
       inkscape:export-filename="/home/juergen/path4136.png"
       inkscape:export-xdpi="648"
       inkscape:export-ydpi="648" />
  </g>
  <g
     inkscape:label="Icon"
     id="layer2"
     inkscape:groupmode="layer"
     style="display:inline">
    <path
       style="fill:none"
       inkscape:connector-curvature="0"
       id="path4"
       d="m 3.9999777,4.0333382 12.0000003,0 0,11.9333328 -12.0000003,0 z" />
    <path
       d="m 18.999978,19.033339 12,0 0,11.933333 -12,0 z"
       id="path9754"
       inkscape:connector-curvature="0"
       style="fill:none" />
    <path
       inkscape:connector-curvature="0"
       d="M 9.9999772,10.71429 A 2.3809524,2.3809524 0 0 1 7.6190252,8.3333381 l 0.952381,0 a 1.4285714,1.4285714 0 0 0 1.428571,1.4285715 1.4285714,1.4285714 0 0 0 1.4285718,-1.4285715 l 0.952381,0 A 2.3809524,2.3809524 0 0 1 9.9999772,10.71429 m 0,-4.7619043 a 1.4285714,1.4285714 0 0 1 1.4285718,1.4285715 l -2.8571428,0 a 1.4285714,1.4285714 0 0 1 1.428571,-1.4285715 m 3.3333338,1.4285715 -0.952381,0 A 2.3809524,2.3809524 0 0 0 9.9999772,5.0000048 2.3809524,2.3809524 0 0 0 7.6190252,7.3809572 l -0.952381,0 c -0.528571,0 -0.952381,0.4238095 -0.952381,0.9523809 l 0,5.7142859 a 0.95238096,0.95238096 0 0 0 0.952381,0.952381 l 6.6666668,0 a 0.95238096,0.95238096 0 0 0 0.952381,-0.952381 l 0,-5.7142859 c 0,-0.5285714 -0.428572,-0.9523809 -0.952381,-0.9523809 z"
       id="path5192" />
    <path
       d="M 10.166016 5.15625 C 8.8596719 5.15182 7.7972832 6.2039475 7.7910156 7.5058594 C 7.7779636 7.5058594 6.8242188 7.5162449 6.8242188 7.5292969 C 6.3008941 7.5292969 5.8730469 7.9493311 5.8730469 8.4726562 C 5.8677969 8.4726562 5.8632812 9.8909081 5.8632812 11.310547 L 5.8632812 14.197266 C 5.8632811 14.449854 5.963972 14.690534 6.1425781 14.869141 C 6.1682244 14.894787 6.2023561 14.907334 6.2304688 14.929688 C 6.2528222 14.9578 6.2653694 14.991932 6.2910156 15.017578 C 6.3157491 15.042312 6.3499205 15.052546 6.3769531 15.074219 C 6.3998808 15.103258 6.4110742 15.13959 6.4375 15.166016 C 6.4629591 15.191475 6.4974998 15.202395 6.5253906 15.224609 C 6.54755 15.252412 6.5585996 15.287115 6.5839844 15.3125 C 6.6093691 15.337885 6.6440723 15.348934 6.671875 15.371094 C 6.6939523 15.398766 6.7051943 15.43371 6.7304688 15.458984 C 6.7552753 15.483791 6.7892874 15.493897 6.8164062 15.515625 C 6.8385657 15.543428 6.8496152 15.578131 6.875 15.603516 C 6.899995 15.628511 6.933596 15.64024 6.9609375 15.662109 C 6.9828064 15.689451 6.9945363 15.723052 7.0195312 15.748047 C 7.0449904 15.773506 7.0795311 15.784426 7.1074219 15.806641 C 7.1288018 15.833214 7.1397188 15.866281 7.1640625 15.890625 C 7.1884062 15.914969 7.2214737 15.925886 7.2480469 15.947266 C 7.2701242 15.974938 7.2813662 16.009882 7.3066406 16.035156 C 7.3320998 16.060615 7.3666405 16.071535 7.3945312 16.09375 C 7.4154177 16.119558 7.4255263 16.152089 7.4492188 16.175781 C 7.4729112 16.199474 7.5054424 16.209582 7.53125 16.230469 C 7.5534094 16.258271 7.564459 16.292975 7.5898438 16.318359 C 7.6139977 16.342513 7.6474784 16.35181 7.6738281 16.373047 C 7.6955012 16.40008 7.7057353 16.434251 7.7304688 16.458984 C 7.7554637 16.483979 7.7890648 16.495709 7.8164062 16.517578 C 7.8369953 16.542929 7.8477911 16.574354 7.8710938 16.597656 C 7.8943964 16.620959 7.9258211 16.631755 7.9511719 16.652344 C 7.9730407 16.679685 7.9847706 16.713286 8.0097656 16.738281 C 8.0335275 16.762043 8.0659078 16.772029 8.0917969 16.792969 C 8.1130966 16.819417 8.1242 16.852715 8.1484375 16.876953 C 8.172852 16.901368 8.2057654 16.912161 8.2324219 16.933594 C 8.253011 16.958945 8.2638067 16.990369 8.2871094 17.013672 C 8.3108018 17.037364 8.343333 17.047473 8.3691406 17.068359 C 8.3900271 17.094167 8.4001357 17.126698 8.4238281 17.150391 C 8.4468693 17.173432 8.4788614 17.182736 8.5039062 17.203125 C 8.5251428 17.229475 8.5344398 17.262955 8.5585938 17.287109 C 8.5828313 17.311347 8.61613 17.32245 8.6425781 17.34375 C 8.6626668 17.36834 8.6726611 17.399224 8.6953125 17.421875 C 8.7179639 17.444526 8.7488478 17.454521 8.7734375 17.474609 C 8.7947372 17.501058 8.8058406 17.534356 8.8300781 17.558594 C 8.8531874 17.581703 8.8850318 17.590887 8.9101562 17.611328 C 8.9305972 17.636453 8.9397814 17.668297 8.9628906 17.691406 C 8.9864801 17.714996 9.0192351 17.725286 9.0449219 17.746094 C 9.0650106 17.770683 9.0750049 17.801567 9.0976562 17.824219 C 9.1206974 17.84726 9.1526895 17.856564 9.1777344 17.876953 C 9.1981231 17.901998 9.2074276 17.93399 9.2304688 17.957031 C 9.2524689 17.979031 9.2828091 17.988229 9.3066406 18.007812 C 9.3275271 18.03362 9.3376357 18.066151 9.3613281 18.089844 C 9.3837848 18.1123 9.4150904 18.120687 9.4394531 18.140625 C 9.4598418 18.16567 9.4691463 18.197662 9.4921875 18.220703 C 9.5148389 18.243355 9.5457228 18.253349 9.5703125 18.273438 C 9.5903249 18.297912 9.6004943 18.32901 9.6230469 18.351562 C 9.6455035 18.374019 9.6768091 18.382406 9.7011719 18.402344 C 9.7211101 18.426706 9.7294965 18.458012 9.7519531 18.480469 C 9.7739533 18.502469 9.8042934 18.511666 9.828125 18.53125 C 9.8482137 18.55584 9.858208 18.586724 9.8808594 18.609375 C 9.9039006 18.632416 9.9358926 18.641721 9.9609375 18.662109 C 9.9800122 18.685186 9.9884167 18.714979 10.009766 18.736328 C 10.031114 18.757677 10.060908 18.766082 10.083984 18.785156 C 10.104296 18.810085 10.113777 18.842293 10.136719 18.865234 C 10.159175 18.887691 10.190481 18.896077 10.214844 18.916016 C 10.233918 18.939092 10.242323 18.968886 10.263672 18.990234 C 10.285021 19.011583 10.314814 19.019988 10.337891 19.039062 C 10.357829 19.063425 10.366215 19.094731 10.388672 19.117188 C 10.410672 19.139188 10.441012 19.148385 10.464844 19.167969 C 10.483968 19.191118 10.49226 19.220775 10.513672 19.242188 C 10.535672 19.264188 10.566012 19.273385 10.589844 19.292969 C 10.608846 19.315938 10.617415 19.345931 10.638672 19.367188 C 10.660084 19.388599 10.689741 19.396891 10.712891 19.416016 C 10.732015 19.439165 10.740307 19.468822 10.761719 19.490234 C 10.783329 19.511845 10.812558 19.521736 10.835938 19.541016 C 10.854753 19.563711 10.863746 19.592261 10.884766 19.613281 C 10.906766 19.635281 10.937106 19.644479 10.960938 19.664062 C 10.979189 19.685937 10.987505 19.714067 11.007812 19.734375 C 11.02812 19.754683 11.05625 19.762998 11.078125 19.78125 C 11.097634 19.804971 11.107002 19.835517 11.128906 19.857422 C 11.150318 19.878834 11.179976 19.887126 11.203125 19.90625 C 11.221377 19.928125 11.229692 19.956255 11.25 19.976562 C 11.269918 19.996481 11.296932 20.005497 11.318359 20.023438 C 11.337639 20.046817 11.34753 20.076046 11.369141 20.097656 C 11.389508 20.118024 11.41751 20.126232 11.439453 20.144531 C 11.458221 20.167157 11.467322 20.195838 11.488281 20.216797 C 11.509301 20.237817 11.537851 20.246809 11.560547 20.265625 C 11.578488 20.287052 11.587504 20.314066 11.607422 20.333984 C 11.627079 20.353641 11.654654 20.361175 11.675781 20.378906 C 11.694783 20.401876 11.703353 20.431869 11.724609 20.453125 C 11.744977 20.473492 11.772979 20.481701 11.794922 20.5 C 11.813103 20.521773 11.821577 20.550093 11.841797 20.570312 C 11.861772 20.590288 11.888664 20.599201 11.910156 20.617188 C 11.928143 20.63868 11.937056 20.665572 11.957031 20.685547 C 11.977899 20.706414 12.006777 20.715679 12.029297 20.734375 C 12.046714 20.755056 12.054952 20.781514 12.074219 20.800781 C 12.093486 20.820048 12.119944 20.828286 12.140625 20.845703 C 12.158924 20.867646 12.167133 20.895648 12.1875 20.916016 C 12.208459 20.936975 12.23714 20.946076 12.259766 20.964844 C 12.276656 20.984781 12.284119 21.010681 12.302734 21.029297 C 12.322391 21.048953 12.349967 21.056488 12.371094 21.074219 C 12.388825 21.095346 12.396359 21.122921 12.416016 21.142578 C 12.434631 21.161194 12.460531 21.168657 12.480469 21.185547 C 12.49872 21.207422 12.507036 21.235552 12.527344 21.255859 C 12.547 21.275516 12.574576 21.28305 12.595703 21.300781 C 12.612955 21.321228 12.61961 21.348125 12.638672 21.367188 C 12.657855 21.38637 12.684493 21.39476 12.705078 21.412109 C 12.722541 21.432854 12.730677 21.459193 12.75 21.478516 C 12.769918 21.498434 12.796932 21.50745 12.818359 21.525391 C 12.834932 21.544885 12.843102 21.569665 12.861328 21.587891 C 12.880333 21.606896 12.907352 21.613653 12.927734 21.630859 C 12.944941 21.651242 12.951698 21.67826 12.970703 21.697266 C 12.988929 21.715491 13.013709 21.723662 13.033203 21.740234 C 13.050666 21.760979 13.058802 21.787318 13.078125 21.806641 C 13.097697 21.826212 13.125455 21.8339 13.146484 21.851562 C 13.162843 21.87076 13.169536 21.896098 13.1875 21.914062 C 13.206115 21.932678 13.232015 21.940141 13.251953 21.957031 C 13.268843 21.976969 13.276306 22.002869 13.294922 22.021484 C 13.312496 22.039059 13.336713 22.046462 13.355469 22.0625 C 13.372931 22.083245 13.381068 22.109584 13.400391 22.128906 C 13.419006 22.147522 13.444906 22.154985 13.464844 22.171875 C 13.481246 22.191133 13.487842 22.216358 13.505859 22.234375 C 13.524394 22.25291 13.550467 22.26052 13.570312 22.277344 C 13.586714 22.296602 13.593311 22.321826 13.611328 22.339844 C 13.630595 22.359111 13.657054 22.367348 13.677734 22.384766 C 13.693233 22.402786 13.699874 22.426436 13.716797 22.443359 C 13.734761 22.461324 13.760099 22.468017 13.779297 22.484375 C 13.795655 22.503573 13.802348 22.528911 13.820312 22.546875 C 13.837236 22.563798 13.860886 22.570438 13.878906 22.585938 C 13.895841 22.605937 13.903205 22.631721 13.921875 22.650391 C 13.94041 22.668925 13.966483 22.676535 13.986328 22.693359 C 14.001827 22.71138 14.008467 22.73503 14.025391 22.751953 C 14.042965 22.769528 14.067182 22.776931 14.085938 22.792969 C 14.101975 22.811725 14.109379 22.835941 14.126953 22.853516 C 14.143487 22.870049 14.166012 22.877404 14.183594 22.892578 C 14.200166 22.912072 14.208337 22.936852 14.226562 22.955078 C 14.243535 22.972051 14.26708 22.9786 14.285156 22.994141 C 14.301194 23.012897 14.308597 23.037113 14.326172 23.054688 C 14.343746 23.072262 14.367963 23.079665 14.386719 23.095703 C 14.402157 23.113641 14.408932 23.137447 14.425781 23.154297 C 14.442754 23.17127 14.466299 23.177819 14.484375 23.193359 C 14.499915 23.211436 14.506465 23.23498 14.523438 23.251953 C 14.540287 23.268803 14.564094 23.275578 14.582031 23.291016 C 14.597571 23.309092 14.604121 23.332637 14.621094 23.349609 C 14.637943 23.366459 14.66175 23.373234 14.679688 23.388672 C 14.695125 23.406609 14.7019 23.430416 14.71875 23.447266 C 14.73507 23.463586 14.758048 23.469379 14.775391 23.484375 C 14.79089 23.502395 14.79753 23.526046 14.814453 23.542969 C 14.831376 23.559892 14.855026 23.566532 14.873047 23.582031 C 14.887944 23.59924 14.893955 23.62247 14.910156 23.638672 C 14.926476 23.654992 14.949455 23.660785 14.966797 23.675781 C 14.981793 23.693123 14.987586 23.716102 15.003906 23.732422 C 15.020756 23.749271 15.044562 23.756046 15.0625 23.771484 C 15.077129 23.788335 15.083727 23.81029 15.099609 23.826172 C 15.11484 23.841403 15.13622 23.847249 15.152344 23.861328 C 15.167884 23.879404 15.174433 23.902949 15.191406 23.919922 C 15.208329 23.936845 15.23198 23.943485 15.25 23.958984 C 15.264079 23.975108 15.269925 23.996488 15.285156 24.011719 C 15.301038 24.027601 15.322993 24.034199 15.339844 24.048828 C 15.354473 24.065679 15.361071 24.087634 15.376953 24.103516 C 15.391794 24.118357 15.412045 24.124924 15.427734 24.138672 C 15.442909 24.156254 15.450263 24.178779 15.466797 24.195312 C 15.482679 24.211195 15.504633 24.217793 15.521484 24.232422 C 15.535601 24.248595 15.541365 24.269881 15.556641 24.285156 C 15.571805 24.300321 15.593325 24.30629 15.609375 24.320312 C 15.624004 24.337164 15.630602 24.359118 15.646484 24.375 C 15.662756 24.391272 15.685837 24.397153 15.703125 24.412109 C 15.71665 24.427508 15.721749 24.448311 15.736328 24.462891 C 15.751559 24.478121 15.772939 24.483968 15.789062 24.498047 C 15.803141 24.51417 15.808988 24.53555 15.824219 24.550781 C 15.838409 24.564971 15.85808 24.570794 15.873047 24.583984 C 15.887714 24.600887 15.894228 24.622744 15.910156 24.638672 C 15.925969 24.654485 15.94807 24.661211 15.964844 24.675781 C 15.978034 24.690748 15.983857 24.71042 15.998047 24.724609 C 16.012888 24.73945 16.033139 24.746018 16.048828 24.759766 C 16.062576 24.775455 16.069143 24.795706 16.083984 24.810547 C 16.097913 24.824475 16.118135 24.828831 16.132812 24.841797 C 16.147221 24.858355 16.152348 24.880864 16.167969 24.896484 C 16.182592 24.911107 16.203303 24.916126 16.21875 24.929688 C 16.232312 24.945134 16.23733 24.965846 16.251953 24.980469 C 16.266533 24.995048 16.287336 25.000147 16.302734 25.013672 C 16.316205 25.029001 16.321421 25.049937 16.335938 25.064453 C 16.350168 25.078684 16.369754 25.08443 16.384766 25.097656 C 16.397992 25.112668 16.403738 25.132254 16.417969 25.146484 C 16.432097 25.160612 16.451899 25.16655 16.466797 25.179688 C 16.480023 25.194699 16.485769 25.214285 16.5 25.228516 C 16.514128 25.242643 16.53393 25.248581 16.548828 25.261719 C 16.561966 25.276616 16.567903 25.296419 16.582031 25.310547 C 16.596002 25.324517 16.616136 25.328795 16.630859 25.341797 C 16.643861 25.35652 16.648139 25.376655 16.662109 25.390625 C 16.676038 25.404553 16.69626 25.408909 16.710938 25.421875 C 16.723903 25.436552 16.728259 25.456775 16.742188 25.470703 C 16.75681 25.485326 16.777522 25.490345 16.792969 25.503906 C 16.805033 25.517436 16.809378 25.535941 16.822266 25.548828 C 16.835804 25.562367 16.854894 25.567449 16.869141 25.580078 C 16.88177 25.594325 16.886852 25.613415 16.900391 25.626953 C 16.912888 25.639451 16.930257 25.644526 16.943359 25.65625 C 16.956585 25.671262 16.962332 25.690847 16.976562 25.705078 C 16.99069 25.719206 17.010493 25.725144 17.025391 25.738281 C 17.037114 25.751384 17.04219 25.768753 17.054688 25.78125 C 17.067836 25.794399 17.085792 25.800208 17.099609 25.8125 C 17.111901 25.826317 17.117711 25.844273 17.130859 25.857422 C 17.143357 25.869919 17.160726 25.874995 17.173828 25.886719 C 17.186492 25.901009 17.1915 25.920016 17.205078 25.933594 C 17.218558 25.947073 17.237771 25.952265 17.251953 25.964844 C 17.263677 25.977946 17.268753 25.995315 17.28125 26.007812 C 17.293096 26.019659 17.309875 26.024005 17.322266 26.035156 C 17.334929 26.049447 17.339937 26.068453 17.353516 26.082031 C 17.366347 26.094863 17.384969 26.099313 17.398438 26.111328 C 17.410453 26.124797 17.414903 26.143418 17.427734 26.15625 C 17.440268 26.168784 17.457561 26.173792 17.470703 26.185547 C 17.482379 26.198589 17.487557 26.216073 17.5 26.228516 C 17.512926 26.241441 17.53135 26.245715 17.544922 26.257812 C 17.556073 26.270203 17.560419 26.286982 17.572266 26.298828 C 17.584112 26.310674 17.600891 26.315021 17.613281 26.326172 C 17.625297 26.339641 17.629746 26.358262 17.642578 26.371094 C 17.654851 26.383367 17.67269 26.386911 17.685547 26.398438 C 17.696995 26.411196 17.700707 26.429223 17.712891 26.441406 C 17.724772 26.453287 17.741478 26.457568 17.753906 26.46875 C 17.765088 26.481178 17.769369 26.497885 17.78125 26.509766 C 17.794082 26.522597 17.812703 26.527047 17.826172 26.539062 C 17.836746 26.550744 17.840368 26.56693 17.851562 26.578125 C 17.862368 26.58893 17.877413 26.593288 17.888672 26.603516 C 17.900427 26.616657 17.905435 26.633951 17.917969 26.646484 C 17.930412 26.658927 17.947895 26.664106 17.960938 26.675781 C 17.971165 26.68704 17.975523 26.702085 17.986328 26.712891 C 17.997785 26.724347 18.013425 26.729428 18.025391 26.740234 C 18.036197 26.7522 18.041278 26.76784 18.052734 26.779297 C 18.06354 26.790102 18.078585 26.79446 18.089844 26.804688 C 18.101026 26.817116 18.105307 26.833822 18.117188 26.845703 C 18.128982 26.857498 18.145869 26.861941 18.158203 26.873047 C 18.168431 26.884306 18.172789 26.899351 18.183594 26.910156 C 18.194789 26.921351 18.210974 26.924972 18.222656 26.935547 C 18.233231 26.947229 18.236852 26.963414 18.248047 26.974609 C 18.258201 26.984763 18.272648 26.988403 18.283203 26.998047 C 18.294354 27.010437 18.298701 27.027216 18.310547 27.039062 C 18.321383 27.049899 18.336363 27.054198 18.347656 27.064453 C 18.357911 27.075746 18.362211 27.090726 18.373047 27.101562 C 18.383852 27.112368 18.398897 27.116726 18.410156 27.126953 C 18.420341 27.138161 18.424789 27.153305 18.435547 27.164062 C 18.446123 27.174638 18.461645 27.177478 18.472656 27.1875 C 18.482679 27.198511 18.485518 27.214034 18.496094 27.224609 C 18.506592 27.235108 18.522276 27.238094 18.533203 27.248047 C 18.543225 27.259058 18.546065 27.27458 18.556641 27.285156 C 18.567139 27.295655 18.582822 27.29864 18.59375 27.308594 C 18.603703 27.319521 18.606689 27.335205 18.617188 27.345703 C 18.627371 27.355887 18.641756 27.35947 18.652344 27.369141 C 18.661988 27.379696 18.665627 27.394143 18.675781 27.404297 C 18.685935 27.414451 18.700382 27.41809 18.710938 27.427734 C 18.720542 27.438242 18.724265 27.452781 18.734375 27.462891 C 18.744167 27.472682 18.757413 27.477011 18.767578 27.486328 C 18.776896 27.496493 18.781224 27.50974 18.791016 27.519531 C 18.801773 27.530289 18.816917 27.534737 18.828125 27.544922 C 18.836827 27.554359 18.840496 27.567059 18.849609 27.576172 C 18.858722 27.585285 18.871422 27.588954 18.880859 27.597656 C 18.89053 27.608244 18.894113 27.622629 18.904297 27.632812 C 18.914841 27.643356 18.93043 27.646256 18.941406 27.65625 C 18.94987 27.665407 18.952086 27.678649 18.960938 27.6875 C 18.97044 27.697003 18.984286 27.699928 18.994141 27.708984 C 19.003197 27.718839 19.006122 27.732685 19.015625 27.742188 C 19.024087 27.750649 19.03618 27.753611 19.044922 27.761719 C 19.054566 27.772274 19.058205 27.786721 19.068359 27.796875 C 19.077498 27.806014 19.090144 27.809633 19.099609 27.818359 C 19.108336 27.827824 19.111955 27.84047 19.121094 27.849609 C 19.130207 27.858722 19.142907 27.862391 19.152344 27.871094 C 19.161046 27.880531 19.164715 27.893231 19.173828 27.902344 C 19.182707 27.911222 19.195892 27.913386 19.205078 27.921875 C 19.213567 27.931061 19.215731 27.944247 19.224609 27.953125 C 19.23433 27.962846 19.247723 27.967309 19.257812 27.976562 C 19.265563 27.984889 19.269272 27.995834 19.277344 28.003906 C 19.285154 28.011717 19.296638 28.013975 19.304688 28.021484 C 19.313744 28.031339 19.316669 28.045185 19.326172 28.054688 C 19.334633 28.063149 19.346727 28.066111 19.355469 28.074219 C 19.363599 28.082987 19.366514 28.095029 19.375 28.103516 C 19.383425 28.11194 19.395594 28.114973 19.404297 28.123047 C 19.412427 28.131815 19.415342 28.143857 19.423828 28.152344 C 19.432253 28.160769 19.444423 28.163801 19.453125 28.171875 C 19.461199 28.180577 19.464231 28.192747 19.472656 28.201172 C 19.48049 28.209006 19.491926 28.211219 19.5 28.21875 C 19.508108 28.227492 19.51107 28.239585 19.519531 28.248047 C 19.528018 28.256533 19.54006 28.259448 19.548828 28.267578 C 19.555977 28.275215 19.558986 28.285548 19.566406 28.292969 C 19.573565 28.300128 19.584437 28.301688 19.591797 28.308594 C 19.600261 28.317751 19.602477 28.330992 19.611328 28.339844 C 19.619138 28.347654 19.630623 28.349913 19.638672 28.357422 C 19.646181 28.365471 19.64844 28.376955 19.65625 28.384766 C 19.664712 28.393227 19.676805 28.396189 19.685547 28.404297 C 19.69209 28.411246 19.694403 28.420965 19.701172 28.427734 C 19.707941 28.434504 19.71766 28.436816 19.724609 28.443359 C 19.732717 28.452101 19.735679 28.464195 19.744141 28.472656 C 19.751582 28.480098 19.761872 28.483066 19.769531 28.490234 C 19.77665 28.497836 19.779721 28.508237 19.787109 28.515625 C 19.794291 28.522806 19.805117 28.524323 19.8125 28.53125 C 19.819427 28.538633 19.820944 28.549459 19.828125 28.556641 C 19.835254 28.563769 19.846188 28.565388 19.853516 28.572266 C 19.860442 28.579649 19.861959 28.590475 19.869141 28.597656 C 19.876269 28.604785 19.887203 28.606403 19.894531 28.613281 C 19.901458 28.620665 19.902975 28.631491 19.910156 28.638672 C 19.917967 28.646482 19.929451 28.648741 19.9375 28.65625 C 19.943433 28.662515 19.945054 28.671616 19.951172 28.677734 C 19.957941 28.684504 19.96766 28.686816 19.974609 28.693359 C 19.981153 28.700309 19.983465 28.710028 19.990234 28.716797 C 19.995963 28.722525 20.003908 28.724902 20.009766 28.730469 C 20.016914 28.738105 20.019923 28.748439 20.027344 28.755859 C 20.033741 28.762256 20.04227 28.765289 20.048828 28.771484 C 20.055023 28.778042 20.058056 28.786572 20.064453 28.792969 C 20.070833 28.799348 20.079398 28.802415 20.085938 28.808594 C 20.092116 28.815133 20.095183 28.823699 20.101562 28.830078 C 20.108352 28.836867 20.11803 28.839141 20.125 28.845703 C 20.130567 28.85156 20.132944 28.859506 20.138672 28.865234 C 20.14479 28.871352 20.153891 28.872973 20.160156 28.878906 C 20.16609 28.885171 20.16771 28.894273 20.173828 28.900391 C 20.178905 28.905468 20.186228 28.907159 20.191406 28.912109 C 20.197968 28.919079 20.200242 28.928758 20.207031 28.935547 C 20.213801 28.942316 20.22352 28.944629 20.230469 28.951172 C 20.235419 28.95635 20.237111 28.963673 20.242188 28.96875 C 20.247916 28.974478 20.255861 28.976855 20.261719 28.982422 C 20.267285 28.988279 20.269662 28.996225 20.275391 29.001953 C 20.280078 29.00664 20.286242 29.009093 20.291016 29.013672 C 20.297194 29.020211 20.300261 29.028777 20.306641 29.035156 C 20.312125 29.04064 20.32057 29.041539 20.326172 29.046875 C 20.331491 29.052459 20.332424 29.06094 20.337891 29.066406 C 20.343357 29.071873 20.351837 29.072806 20.357422 29.078125 C 20.36272 29.083685 20.363697 29.092213 20.369141 29.097656 C 20.374232 29.102748 20.381525 29.104411 20.386719 29.109375 C 20.391683 29.114569 20.393346 29.121861 20.398438 29.126953 C 20.403492 29.132008 20.41086 29.133743 20.416016 29.138672 C 20.42098 29.143866 20.422643 29.151158 20.427734 29.15625 C 20.432789 29.161305 20.440157 29.16304 20.445312 29.167969 C 20.450242 29.173124 20.451976 29.180492 20.457031 29.185547 C 20.461731 29.190247 20.467869 29.192675 20.472656 29.197266 C 20.477247 29.202053 20.479675 29.208191 20.484375 29.212891 C 20.489062 29.217578 20.495226 29.22003 20.5 29.224609 C 20.504579 29.229383 20.507032 29.235547 20.511719 29.240234 C 20.517185 29.245701 20.525666 29.246634 20.53125 29.251953 C 20.534954 29.255784 20.535288 29.261851 20.539062 29.265625 C 20.543488 29.270051 20.550184 29.271061 20.554688 29.275391 C 20.559017 29.279894 20.560027 29.28659 20.564453 29.291016 C 20.568879 29.295441 20.575575 29.296452 20.580078 29.300781 C 20.584407 29.305284 20.585418 29.311981 20.589844 29.316406 C 20.593228 29.319791 20.598133 29.32089 20.601562 29.324219 C 20.606492 29.329374 20.608226 29.336742 20.613281 29.341797 C 20.617981 29.346497 20.624119 29.348925 20.628906 29.353516 C 20.631857 29.356546 20.633724 29.360286 20.636719 29.363281 C 20.639714 29.366276 20.643454 29.368143 20.646484 29.371094 C 20.651075 29.375881 20.653503 29.382019 20.658203 29.386719 C 20.662869 29.391385 20.669076 29.393879 20.673828 29.398438 C 20.676779 29.401468 20.678646 29.405208 20.681641 29.408203 C 20.684374 29.410936 20.688643 29.411366 20.691406 29.414062 C 20.695748 29.41858 20.696733 29.425248 20.701172 29.429688 C 20.704931 29.433446 20.711029 29.433811 20.714844 29.4375 C 20.718533 29.441315 20.718897 29.447413 20.722656 29.451172 C 20.726051 29.454566 20.730935 29.455647 20.734375 29.458984 C 20.737689 29.462399 20.738818 29.467333 20.742188 29.470703 C 20.746235 29.47475 20.751747 29.476502 20.755859 29.480469 C 20.758176 29.482834 20.759375 29.485938 20.761719 29.488281 C 20.764062 29.490625 20.767166 29.491824 20.769531 29.494141 C 20.77347 29.498222 20.775279 29.503795 20.779297 29.507812 C 20.782299 29.510815 20.786024 29.512667 20.789062 29.515625 C 20.792 29.518641 20.793894 29.52241 20.796875 29.525391 C 20.800662 29.529177 20.806704 29.529487 20.810547 29.533203 C 20.812608 29.535302 20.812371 29.538934 20.814453 29.541016 C 20.817186 29.543749 20.821456 29.544178 20.824219 29.546875 C 20.826915 29.549638 20.827345 29.553907 20.830078 29.556641 C 20.83177 29.558333 20.834234 29.558869 20.835938 29.560547 C 20.839275 29.563987 20.840355 29.568871 20.84375 29.572266 C 20.846472 29.574987 20.850764 29.57544 20.853516 29.578125 C 20.856201 29.580876 20.856653 29.585169 20.859375 29.587891 C 20.861725 29.590241 20.864816 29.591427 20.867188 29.59375 C 20.869494 29.596105 20.870714 29.599229 20.873047 29.601562 C 20.876049 29.604565 20.879774 29.606417 20.882812 29.609375 C 20.884107 29.610684 20.885416 29.611979 20.886719 29.613281 C 20.888021 29.614584 20.889316 29.615893 20.890625 29.617188 C 20.893562 29.620204 20.895456 29.623972 20.898438 29.626953 C 20.901179 29.629695 20.905431 29.630108 20.908203 29.632812 C 20.909239 29.633858 20.909115 29.635678 20.910156 29.636719 C 20.911197 29.63776 20.913017 29.637636 20.914062 29.638672 C 20.916767 29.641444 20.91718 29.645696 20.919922 29.648438 C 20.921614 29.65013 20.924078 29.650666 20.925781 29.652344 C 20.927464 29.654052 20.92799 29.656506 20.929688 29.658203 C 20.931372 29.659888 20.933851 29.660438 20.935547 29.662109 C 20.937225 29.663813 20.937761 29.666276 20.939453 29.667969 C 20.941797 29.670312 20.9449 29.671512 20.947266 29.673828 C 20.947266 29.673828 20.949219 29.675781 20.949219 29.675781 C 20.950536 29.677064 20.951801 29.678413 20.953125 29.679688 C 20.954419 29.680997 20.955729 29.682291 20.957031 29.683594 C 20.957031 29.683594 20.958984 29.683594 20.958984 29.683594 C 20.961045 29.685693 20.960809 29.689324 20.962891 29.691406 C 20.963935 29.692451 20.965748 29.69232 20.966797 29.693359 C 20.967836 29.694408 20.967705 29.696221 20.96875 29.697266 C 20.969787 29.698303 20.971615 29.698187 20.972656 29.699219 C 20.973692 29.700264 20.973568 29.702084 20.974609 29.703125 C 20.976302 29.704817 20.980718 29.707306 20.982422 29.708984 C 20.982422 29.708984 20.984375 29.710938 20.984375 29.710938 C 20.985414 29.711987 20.985283 29.713799 20.986328 29.714844 C 20.987365 29.715881 20.989193 29.715765 20.990234 29.716797 C 20.990884 29.717452 20.991536 29.718096 20.992188 29.71875 C 20.992579 29.719143 20.991795 29.720311 20.992188 29.720703 C 21.012796 29.741312 21.042232 29.749088 21.064453 29.767578 C 21.079804 29.780237 21.097236 29.789155 21.113281 29.800781 C 21.173333 29.844723 21.230712 29.895161 21.298828 29.923828 C 21.298828 29.923828 21.300781 29.925781 21.300781 29.925781 C 21.415936 29.973862 21.538806 30 21.666016 30 L 28.332031 30 C 28.584653 30 28.827257 29.899304 29.005859 29.720703 C 29.006249 29.720313 29.00547 29.71914 29.005859 29.71875 C 29.183737 29.540261 29.285151 29.29891 29.285156 29.046875 L 29.285156 23.333984 C 29.285156 23.311229 29.275 23.291873 29.273438 23.269531 C 29.256818 23.031817 29.162309 22.815557 29.003906 22.658203 C 29.003522 22.657821 29.002338 22.658585 29.001953 22.658203 C 29.001953 22.658203 29.001953 22.65625 29.001953 22.65625 C 29.001567 22.655869 29.000386 22.65663 29 22.65625 C 29 22.65625 29 22.654297 29 22.654297 C 28.998975 22.653272 28.997124 22.653364 28.996094 22.652344 C 28.996094 22.652344 28.994141 22.650391 28.994141 22.650391 C 28.99349 22.649761 28.99284 22.649066 28.992188 22.648438 C 28.992188 22.648438 28.990234 22.646484 28.990234 22.646484 C 28.990234 22.646484 28.988281 22.644531 28.988281 22.644531 C 28.986621 22.64286 28.984094 22.642284 28.982422 22.640625 C 28.980767 22.638954 28.978229 22.638377 28.976562 22.636719 C 28.976562 22.636719 28.974609 22.634766 28.974609 22.634766 C 28.972938 22.633112 28.970433 22.632501 28.96875 22.630859 C 28.965178 22.627226 28.960659 22.62467 28.957031 22.621094 C 28.950214 22.614021 28.940616 22.610377 28.933594 22.603516 C 28.931682 22.601534 28.929662 22.599622 28.927734 22.597656 C 28.927734 22.597656 28.925781 22.597656 28.925781 22.597656 C 28.925781 22.597656 28.923828 22.595703 28.923828 22.595703 C 28.920929 22.592679 28.915046 22.588924 28.912109 22.585938 C 28.909212 22.582897 28.903325 22.579174 28.900391 22.576172 C 28.897496 22.573114 28.891604 22.569426 28.888672 22.566406 C 28.884792 22.56228 28.878946 22.560699 28.875 22.556641 C 28.874012 22.555582 28.872086 22.555742 28.871094 22.554688 C 28.867505 22.551028 28.863017 22.548524 28.859375 22.544922 C 28.855244 22.540463 28.84991 22.537585 28.845703 22.533203 C 28.841248 22.528356 28.834621 22.526241 28.830078 22.521484 C 28.824999 22.515913 28.817693 22.513267 28.8125 22.507812 C 28.808064 22.502904 28.801398 22.500912 28.796875 22.496094 C 28.791488 22.49008 28.782859 22.488303 28.777344 22.482422 C 28.772943 22.477464 28.766205 22.475573 28.761719 22.470703 C 28.761719 22.470703 28.759766 22.46875 28.759766 22.46875 C 28.759766 22.46875 28.759766 22.466797 28.759766 22.466797 C 28.753846 22.460764 28.746289 22.457051 28.740234 22.451172 C 28.73463 22.444735 28.726447 22.44184 28.720703 22.435547 C 28.6841 22.393076 28.633991 22.369721 28.591797 22.333984 C 28.588506 22.331369 28.585352 22.328743 28.582031 22.326172 C 28.577851 22.321682 28.572605 22.318865 28.568359 22.314453 C 28.568359 22.314453 28.566406 22.3125 28.566406 22.3125 C 28.561092 22.307996 28.556176 22.303212 28.550781 22.298828 C 28.542334 22.291493 28.534043 22.284372 28.525391 22.277344 C 28.493873 22.249867 28.463909 22.220212 28.429688 22.197266 C 28.395339 22.168028 28.365442 22.133093 28.328125 22.109375 C 28.319141 22.10312 28.311887 22.09379 28.302734 22.087891 C 28.298059 22.085155 28.295731 22.078813 28.291016 22.076172 C 28.288716 22.074748 28.287466 22.071713 28.285156 22.070312 C 28.260125 22.051935 28.241181 22.023263 28.214844 22.007812 C 28.204714 22.001189 28.197824 21.988575 28.1875 21.982422 C 28.177388 21.975704 28.170462 21.963273 28.160156 21.957031 C 28.150131 21.950267 28.141076 21.93793 28.130859 21.931641 C 28.120534 21.924539 28.112092 21.908934 28.101562 21.902344 C 28.089718 21.894094 28.080471 21.880611 28.068359 21.873047 C 28.056806 21.864921 28.046963 21.853166 28.035156 21.845703 C 28.025254 21.838645 28.017901 21.826878 28.007812 21.820312 C 27.99583 21.811517 27.986867 21.797122 27.974609 21.789062 C 27.961512 21.77929 27.950926 21.764735 27.9375 21.755859 C 27.926593 21.747683 27.917384 21.736062 27.90625 21.728516 C 27.893199 21.718472 27.882518 21.704435 27.869141 21.695312 C 27.85732 21.686113 27.848025 21.672495 27.835938 21.664062 C 27.823566 21.654209 27.813448 21.639857 27.800781 21.630859 C 27.786841 21.61956 27.77408 21.605893 27.759766 21.595703 C 27.747336 21.585539 27.737335 21.571768 27.724609 21.5625 C 27.710436 21.550633 27.698155 21.536067 27.683594 21.525391 C 27.669494 21.513446 27.65706 21.499024 27.642578 21.488281 C 27.62991 21.477418 27.618445 21.464956 27.605469 21.455078 C 27.590473 21.441868 27.57793 21.425858 27.5625 21.414062 C 27.548155 21.401308 27.534272 21.38839 27.519531 21.376953 C 27.505231 21.364033 27.493209 21.349474 27.478516 21.337891 C 27.464081 21.324648 27.450382 21.310681 27.435547 21.298828 C 27.421183 21.285404 27.407341 21.271786 27.392578 21.259766 C 27.377301 21.245181 27.363385 21.229759 27.347656 21.216797 C 27.332723 21.202394 27.318097 21.188601 27.302734 21.175781 C 27.288247 21.161544 27.272706 21.149437 27.257812 21.136719 C 27.240729 21.119505 27.224681 21.102934 27.207031 21.087891 C 27.191808 21.072518 27.175826 21.060492 27.160156 21.046875 C 27.143975 21.030169 27.128015 21.016629 27.111328 21.001953 C 27.095178 20.985047 27.079153 20.97187 27.0625 20.957031 C 27.046214 20.93965 27.030471 20.925388 27.013672 20.910156 C 26.997501 20.892617 26.979568 20.880607 26.962891 20.865234 C 26.946121 20.846727 26.929424 20.832528 26.912109 20.816406 C 26.89507 20.797293 26.876977 20.784169 26.859375 20.767578 C 26.841688 20.747448 26.822978 20.73414 26.804688 20.716797 C 26.787681 20.697214 26.769517 20.684917 26.751953 20.667969 C 26.735028 20.648092 26.716698 20.63635 26.699219 20.619141 C 26.680743 20.59701 26.661714 20.583315 26.642578 20.564453 C 26.625785 20.544191 26.605228 20.531177 26.587891 20.513672 C 26.539324 20.453889 26.486366 20.404793 26.433594 20.371094 C 26.414005 20.354016 26.397101 20.329223 26.376953 20.316406 C 26.368909 20.307314 26.359721 20.301361 26.351562 20.292969 C 26.34212 20.285594 26.333785 20.271993 26.324219 20.265625 C 26.304396 20.247513 26.286027 20.222515 26.265625 20.208984 C 26.245977 20.190824 26.227248 20.167838 26.207031 20.154297 C 26.186816 20.135197 26.167304 20.111735 26.146484 20.097656 C 26.126588 20.07858 26.108374 20.05315 26.087891 20.039062 C 26.068496 20.020196 26.049251 19.996428 26.029297 19.982422 C 26.008758 19.961965 25.987965 19.938679 25.966797 19.923828 C 25.945989 19.902792 25.92575 19.878405 25.904297 19.863281 C 25.883673 19.842186 25.863055 19.819817 25.841797 19.804688 C 25.820395 19.782299 25.799431 19.75797 25.777344 19.742188 C 25.756138 19.71977 25.734768 19.697394 25.712891 19.681641 C 25.691359 19.658496 25.670664 19.63522 25.648438 19.619141 C 25.628483 19.597302 25.608447 19.574228 25.587891 19.558594 C 25.586856 19.557563 25.585043 19.557647 25.583984 19.556641 C 25.564212 19.534576 25.543804 19.509952 25.523438 19.494141 C 25.521606 19.492727 25.519414 19.493547 25.517578 19.492188 C 25.499765 19.472072 25.481188 19.450473 25.462891 19.435547 C 25.457074 19.429365 25.449945 19.427236 25.443359 19.421875 C 25.428914 19.405753 25.415154 19.385679 25.400391 19.373047 C 25.392775 19.364596 25.383968 19.360526 25.375 19.353516 C 25.362546 19.339524 25.350581 19.31993 25.337891 19.308594 C 25.328406 19.297814 25.316264 19.293677 25.304688 19.285156 C 25.294156 19.273293 25.284138 19.256012 25.273438 19.246094 C 25.261565 19.231806 25.247716 19.225433 25.232422 19.214844 C 25.224379 19.205777 25.215173 19.187593 25.207031 19.179688 C 25.194654 19.164838 25.180055 19.157402 25.164062 19.146484 C 25.157776 19.139286 25.150879 19.127566 25.144531 19.121094 C 25.128439 19.09943 25.110891 19.086479 25.087891 19.072266 C 25.086011 19.070131 25.083917 19.066521 25.082031 19.064453 C 25.064035 19.037005 25.043779 19.020795 25.015625 19.003906 C 24.997391 18.973572 24.979235 18.952195 24.949219 18.933594 C 24.93043 18.901891 24.910217 18.880591 24.878906 18.861328 C 24.859879 18.829674 24.839933 18.808447 24.808594 18.789062 C 24.789009 18.756842 24.768444 18.734473 24.736328 18.714844 C 24.717077 18.684006 24.69671 18.663892 24.666016 18.644531 C 24.645797 18.611306 24.624848 18.588722 24.591797 18.568359 C 24.572093 18.536806 24.552744 18.514169 24.521484 18.494141 C 24.501205 18.461398 24.479692 18.438602 24.447266 18.417969 C 24.426534 18.384718 24.404138 18.362721 24.371094 18.341797 C 24.35029 18.308942 24.329576 18.286549 24.296875 18.265625 C 24.275784 18.231962 24.254014 18.208992 24.220703 18.1875 C 24.199506 18.154019 24.177669 18.13096 24.144531 18.109375 C 24.122964 18.075019 24.100281 18.051447 24.066406 18.029297 C 24.044554 17.995321 24.022068 17.973191 23.988281 17.951172 C 23.965614 17.91536 23.943774 17.890091 23.908203 17.867188 C 23.885973 17.833248 23.863914 17.80939 23.830078 17.787109 C 23.807548 17.752312 23.784471 17.727967 23.75 17.705078 C 23.726539 17.668686 23.702238 17.644688 23.666016 17.621094 C 23.647305 17.592832 23.634057 17.569597 23.607422 17.548828 C 23.587218 17.513415 23.559072 17.48999 23.527344 17.464844 C 23.503442 17.423044 23.470954 17.388676 23.431641 17.361328 C 23.408977 17.327412 23.380984 17.298765 23.347656 17.275391 C 23.32463 17.240931 23.297525 17.211261 23.263672 17.1875 C 23.240235 17.152798 23.212012 17.123534 23.177734 17.099609 C 23.154682 17.065764 23.127028 17.037402 23.09375 17.013672 C 23.070336 16.978832 23.041831 16.950211 23.007812 16.925781 C 22.98365 16.889652 22.955258 16.859126 22.919922 16.833984 C 22.89546 16.798062 22.86549 16.7692 22.830078 16.744141 C 22.805624 16.708625 22.777246 16.679276 22.742188 16.654297 C 22.717429 16.618047 22.687947 16.588035 22.652344 16.5625 C 22.627534 16.526448 22.597919 16.496268 22.5625 16.470703 C 22.536829 16.433223 22.507611 16.401344 22.470703 16.375 C 22.445137 16.338269 22.415197 16.307316 22.378906 16.28125 C 22.353598 16.245135 22.324643 16.21343 22.289062 16.1875 C 22.262977 16.149888 22.232302 16.118618 22.195312 16.091797 C 22.169169 16.05435 22.138399 16.022956 22.101562 15.996094 C 22.07484 15.958063 22.043463 15.925637 22.005859 15.898438 C 21.980041 15.86192 21.949854 15.831369 21.914062 15.804688 C 21.886632 15.765188 21.855182 15.731418 21.816406 15.703125 C 21.789517 15.664951 21.758141 15.633233 21.720703 15.605469 C 21.692685 15.565521 21.660436 15.532629 21.621094 15.503906 C 21.594145 15.466198 21.564383 15.433983 21.527344 15.40625 C 21.499016 15.365818 21.465401 15.332033 21.425781 15.302734 C 21.397472 15.263059 21.365299 15.230107 21.326172 15.201172 C 21.29774 15.161452 21.265711 15.128696 21.226562 15.099609 C 21.198125 15.059694 21.16606 15.025489 21.126953 14.996094 C 21.097974 14.955546 21.065234 14.920429 21.025391 14.890625 C 20.995966 14.849705 20.962236 14.815217 20.921875 14.785156 C 20.892424 14.74448 20.858515 14.709723 20.818359 14.679688 C 20.789364 14.639829 20.755988 14.605939 20.716797 14.576172 C 20.687085 14.534704 20.653798 14.499595 20.613281 14.46875 C 20.582695 14.426185 20.547668 14.390846 20.505859 14.359375 C 20.475826 14.318229 20.44283 14.282745 20.402344 14.251953 C 20.371713 14.209613 20.336426 14.174191 20.294922 14.142578 C 20.263857 14.099938 20.229477 14.063075 20.1875 14.03125 C 20.156544 13.989206 20.121572 13.953448 20.080078 13.921875 C 20.049233 13.87972 20.01395 13.844353 19.972656 13.8125 C 19.93989 13.767393 19.903848 13.728799 19.859375 13.695312 C 19.828161 13.653522 19.793275 13.617663 19.751953 13.585938 C 19.719726 13.5422 19.683696 13.505642 19.640625 13.472656 C 19.60843 13.428978 19.574141 13.390525 19.53125 13.357422 C 19.498066 13.312399 19.460398 13.274142 19.416016 13.240234 C 19.383071 13.196127 19.346376 13.15845 19.302734 13.125 C 19.270018 13.081353 19.234505 13.043089 19.191406 13.009766 C 19.158185 12.965125 19.122036 12.926631 19.078125 12.892578 C 19.044583 12.847665 19.00714 12.809682 18.962891 12.775391 C 18.928446 12.729209 18.891306 12.689383 18.845703 12.654297 C 18.811414 12.608787 18.773575 12.569927 18.728516 12.535156 C 18.694519 12.490181 18.657707 12.450616 18.613281 12.416016 C 18.5785 12.369836 18.539756 12.330325 18.494141 12.294922 C 18.459447 12.249105 18.422225 12.209119 18.376953 12.173828 C 18.341787 12.127135 18.303808 12.086732 18.257812 12.050781 C 18.222317 12.003884 18.183035 11.963869 18.136719 11.927734 C 18.101109 11.880827 18.061957 11.840929 18.015625 11.804688 C 17.980298 11.758289 17.942215 11.717713 17.896484 11.681641 C 17.860123 11.633634 17.820763 11.59181 17.773438 11.554688 C 17.736966 11.506758 17.697695 11.464896 17.650391 11.427734 C 17.613979 11.380096 17.57437 11.337867 17.527344 11.300781 C 17.489875 11.251841 17.448923 11.209766 17.400391 11.171875 C 17.363884 11.124733 17.324089 11.083792 17.277344 11.046875 C 17.240057 10.99821 17.200358 10.955974 17.152344 10.917969 C 17.11503 10.869396 17.075249 10.827116 17.027344 10.789062 C 16.989601 10.739768 16.948903 10.696823 16.900391 10.658203 C 16.862 10.608191 16.820845 10.5645 16.771484 10.525391 C 16.733158 10.475804 16.691615 10.433451 16.642578 10.394531 C 16.604557 10.34532 16.564097 10.302516 16.515625 10.263672 C 16.476532 10.212833 16.43485 10.16884 16.384766 10.128906 C 16.345156 10.077595 16.302653 10.032462 16.251953 9.9921875 C 16.213785 9.9434031 16.173191 9.9001404 16.125 9.8613281 C 16.084571 9.8089126 16.040033 9.7638122 15.988281 9.7226562 C 15.949386 9.6730233 15.908434 9.6293582 15.859375 9.5898438 C 15.818994 9.5377296 15.775993 9.4923595 15.724609 9.4511719 C 15.684664 9.4000981 15.642263 9.355056 15.591797 9.3144531 C 15.551063 9.2621826 15.50669 9.217234 15.455078 9.1757812 C 15.414386 9.1238336 15.371672 9.0784343 15.320312 9.0371094 C 15.279207 8.9845138 15.23551 8.9383316 15.183594 8.8964844 C 15.142434 8.8439273 15.098737 8.7977792 15.046875 8.7558594 C 15.005083 8.7026666 14.960856 8.6556464 14.908203 8.6132812 C 14.866428 8.5603495 14.821983 8.5149324 14.769531 8.4726562 C 14.728434 8.4205518 14.686125 8.3739465 14.634766 8.3320312 C 14.591422 8.2765733 14.544994 8.2276986 14.490234 8.1835938 C 14.448351 8.1309403 14.403755 8.0853294 14.351562 8.0429688 C 14.3096 7.9898648 14.265211 7.9432147 14.212891 7.9003906 C 14.039911 7.6800562 13.782944 7.5292969 13.482422 7.5292969 L 13.435547 7.5292969 L 13.404297 7.5292969 C 13.387218 7.5113885 13.372848 7.490035 13.355469 7.4726562 C 13.332496 7.4458128 13.303365 7.4260444 13.279297 7.4003906 C 13.254281 7.3734828 13.232797 7.3421721 13.207031 7.3164062 C 13.186322 7.2925503 13.16025 7.2748551 13.138672 7.2519531 C 13.11083 7.2216633 13.087469 7.187078 13.058594 7.1582031 C 13.037737 7.134516 13.01195 7.1164811 12.990234 7.09375 C 12.961952 7.0628544 12.937643 7.0274872 12.908203 6.9980469 C 12.886193 6.9734029 12.858878 6.9552324 12.835938 6.9316406 C 12.808806 6.9020402 12.786083 6.868114 12.757812 6.8398438 C 12.739441 6.819563 12.716272 6.8047137 12.697266 6.7851562 C 12.66596 6.7504137 12.640383 6.7106953 12.607422 6.6777344 C 12.585965 6.6543817 12.559407 6.6376111 12.537109 6.6152344 C 12.508424 6.5836139 12.485219 6.5477192 12.455078 6.5175781 C 12.435431 6.4964956 12.41096 6.481212 12.390625 6.4609375 C 12.359934 6.4267709 12.335205 6.3879392 12.302734 6.3554688 C 12.283593 6.3352165 12.260013 6.3202756 12.240234 6.3007812 C 12.208455 6.2651652 12.182236 6.2252049 12.148438 6.1914062 C 12.12911 6.1712445 12.105897 6.1561168 12.085938 6.1367188 C 12.05422 6.1010898 12.027967 6.06117 11.994141 6.0273438 C 11.974278 6.0069139 11.950201 5.9922887 11.929688 5.9726562 C 11.898206 5.9372397 11.873493 5.8969308 11.839844 5.8632812 C 11.397744 5.41493 10.795648 5.1606818 10.166016 5.15625 z "
       id="path5246"
       style="fill-opacity:1;fill:url(#linearGradient6091);opacity:0.2"
       clip-path="url(#clipPath6096)" />
    <rect
       style="opacity:1;fill:#ff5722;fill-opacity:1;stroke:none;stroke-width:1.25;stroke-linecap:round;stroke-linejoin:round;stroke-miterlimit:4;stroke-dasharray:none;stroke-opacity:1"
       id="rect4173"
       width="6"
       height="3"
       x="7"
       y="8" />
    <path
       style="fill:#ffffff"
       id="path5201"
       d="M 9.9999774,10.71429 A 2.3809524,2.3809524 0 0 1 7.6190253,8.333338 l 0.952381,0 A 1.4285714,1.4285714 0 0 0 9.9999774,9.7619095 1.4285714,1.4285714 0 0 0 11.428549,8.333338 l 0.952381,0 A 2.3809524,2.3809524 0 0 1 9.9999774,10.71429 m 0,-4.7619044 a 1.4285714,1.4285714 0 0 1 1.4285716,1.4285715 l -2.8571427,0 A 1.4285714,1.4285714 0 0 1 9.9999774,5.9523856 m 3.3333336,1.4285715 -0.952381,0 A 2.3809524,2.3809524 0 0 0 9.9999774,5.0000047 2.3809524,2.3809524 0 0 0 7.6190253,7.3809571 l -0.952381,0 c -0.528571,0 -0.952381,0.4238095 -0.952381,0.9523809 l 0,5.714286 a 0.95238096,0.95238096 0 0 0 0.952381,0.952381 l 6.6666667,0 a 0.95238096,0.95238096 0 0 0 0.952381,-0.952381 l 0,-5.714286 c 0,-0.5285714 -0.428572,-0.9523809 -0.952381,-0.9523809 z"
       inkscape:connector-curvature="0" />
  </g>
</svg>
