<?xml version="1.0" encoding="UTF-8" standalone="no"?>
<!-- Created with Inkscape (http://www.inkscape.org/) -->

<svg
   xmlns:dc="http://purl.org/dc/elements/1.1/"
   xmlns:cc="http://creativecommons.org/ns#"
   xmlns:rdf="http://www.w3.org/1999/02/22-rdf-syntax-ns#"
   xmlns:svg="http://www.w3.org/2000/svg"
   xmlns="http://www.w3.org/2000/svg"
   xmlns:xlink="http://www.w3.org/1999/xlink"
   xmlns:sodipodi="http://sodipodi.sourceforge.net/DTD/sodipodi-0.dtd"
   xmlns:inkscape="http://www.inkscape.org/namespaces/inkscape"
   width="5.6444445mm"
   height="5.6444445mm"
   viewBox="0 0 20 20"
   id="svg2"
   version="1.1"
   inkscape:version="0.91 r13725"
   sodipodi:docname="Feather.svg"
   inkscape:export-filename="/home/juergen/Schreibtisch/Icons/Email.svg.png"
   inkscape:export-xdpi="648"
   inkscape:export-ydpi="648">
  <sodipodi:namedview
     id="base"
     pagecolor="#ffffff"
     bordercolor="#666666"
     borderopacity="1.0"
     inkscape:pageopacity="0.0"
     inkscape:pageshadow="2"
     inkscape:zoom="11.313709"
     inkscape:cx="-3.5715671"
     inkscape:cy="3.8987679"
     inkscape:document-units="px"
     inkscape:current-layer="layer1"
     showgrid="false"
     fit-margin-top="0"
     fit-margin-left="0"
     fit-margin-right="0"
     fit-margin-bottom="0"
     showguides="true"
     inkscape:guide-bbox="true"
     inkscape:window-width="1366"
     inkscape:window-height="744"
     inkscape:window-x="0"
     inkscape:window-y="24"
     inkscape:window-maximized="1"
     inkscape:snap-grids="true"
     inkscape:snap-to-guides="true">
    <inkscape:grid
       id="grid4138"
       type="xygrid" />
    <sodipodi:guide
       id="guide4140"
       orientation="0,1"
       position="10,18" />
    <sodipodi:guide
       id="guide4142"
       orientation="0,1"
       position="10,2" />
    <sodipodi:guide
       id="guide4144"
       orientation="1,0"
       position="2,10" />
    <sodipodi:guide
       id="guide4146"
       orientation="0,20"
       position="0,0" />
    <sodipodi:guide
       id="guide4148"
       orientation="-20,0"
       position="20,0" />
    <sodipodi:guide
       id="guide4150"
       orientation="0,-20"
       position="20,20" />
    <sodipodi:guide
       id="guide4152"
       orientation="20,0"
       position="0,20" />
    <sodipodi:guide
       id="guide4154"
       orientation="1,0"
       position="18,10" />
    <sodipodi:guide
       id="guide4156"
       orientation="-0.70710678,0.70710678"
       position="10,10" />
    <sodipodi:guide
       id="guide4160"
       orientation="1,0"
       position="4,10" />
    <sodipodi:guide
       id="guide4162"
       orientation="1,0"
       position="16,10" />
    <sodipodi:guide
       id="guide4164"
       orientation="0,1"
       position="10,16" />
    <sodipodi:guide
       id="guide4166"
       orientation="0,1"
       position="10,4" />
    <sodipodi:guide
       id="guide4168"
       orientation="0,1"
       position="10,15" />
    <sodipodi:guide
       id="guide4170"
       orientation="0,1"
       position="10,5" />
    <sodipodi:guide
       id="guide4172"
       orientation="1,0"
       position="5,10" />
    <sodipodi:guide
       id="guide4174"
       orientation="1,0"
       position="15,10" />
  </sodipodi:namedview>
  <defs
     id="defs4">
    <linearGradient
       inkscape:collect="always"
       id="linearGradient5165">
      <stop
         style="stop-color:#000000;stop-opacity:0.2"
         offset="0"
         id="stop5167" />
      <stop
         style="stop-color:#000000;stop-opacity:0;"
         offset="1"
         id="stop5169" />
    </linearGradient>
    <clipPath
       clipPathUnits="userSpaceOnUse"
       id="clipPath12478">
      <circle
         style="opacity:1;fill:#2196f3;fill-opacity:1;stroke:none;stroke-width:0.05069799;stroke-miterlimit:4;stroke-dasharray:none;stroke-opacity:1"
         id="circle12480"
         cx="9.9999781"
         cy="10.000005"
         r="10" />
    </clipPath>
    <clipPath
       id="clipPath5790"
       clipPathUnits="userSpaceOnUse">
      <circle
         inkscape:export-ydpi="648"
         inkscape:export-xdpi="648"
         inkscape:export-filename="/home/juergen/path4136.png"
         style="opacity:1;fill:#2196f3;fill-opacity:1;stroke:none;stroke-width:0.05069799;stroke-miterlimit:4;stroke-dasharray:none;stroke-opacity:1"
         id="circle5792"
         cx="9.9999781"
         cy="10.000005"
         r="10" />
    </clipPath>
    <clipPath
       clipPathUnits="userSpaceOnUse"
       id="clipPath5055">
      <circle
         inkscape:export-ydpi="648"
         inkscape:export-xdpi="648"
         inkscape:export-filename="/home/juergen/path4136.png"
         style="opacity:1;fill:#2196f3;fill-opacity:1;stroke:none;stroke-width:0.05069799;stroke-miterlimit:4;stroke-dasharray:none;stroke-opacity:1"
         id="circle5057"
         cx="9.9999781"
         cy="10.000005"
         r="10" />
    </clipPath>
    <clipPath
       id="clipPath5119"
       clipPathUnits="userSpaceOnUse">
      <circle
         inkscape:export-ydpi="648"
         inkscape:export-xdpi="648"
         inkscape:export-filename="/home/juergen/Schreibtisch/path4136.png"
         style="opacity:1;fill:#2196f3;fill-opacity:1;stroke:none;stroke-width:0.05069799;stroke-miterlimit:4;stroke-dasharray:none;stroke-opacity:1"
         id="circle5121"
         cx="9.9999781"
         cy="10.000005"
         r="10" />
    </clipPath>
    <clipPath
       clipPathUnits="userSpaceOnUse"
       id="clipPath5194">
      <circle
         inkscape:export-ydpi="648"
         inkscape:export-xdpi="648"
         inkscape:export-filename="/home/juergen/Schreibtisch/path4136.png"
         style="opacity:1;fill:#cddc39;fill-opacity:1;stroke:none;stroke-width:0.05069799;stroke-miterlimit:4;stroke-dasharray:none;stroke-opacity:1"
         id="circle5196"
         cx="9.9999781"
         cy="10.000005"
         r="10" />
    </clipPath>
    <clipPath
       id="clipPath6175"
       clipPathUnits="userSpaceOnUse">
      <circle
         inkscape:export-ydpi="648"
         inkscape:export-xdpi="648"
         inkscape:export-filename="/home/juergen/Schreibtisch/path4136.png"
         style="opacity:1;fill:#f44336;fill-opacity:1;stroke:none;stroke-width:0.05069799;stroke-miterlimit:4;stroke-dasharray:none;stroke-opacity:1"
         id="circle6177"
         cx="9.9999781"
         cy="10.000005"
         r="10" />
    </clipPath>
    <clipPath
       clipPathUnits="userSpaceOnUse"
       id="clipPath7176">
      <circle
         inkscape:export-ydpi="648"
         inkscape:export-xdpi="648"
         inkscape:export-filename="/home/juergen/Schreibtisch/path4136.png"
         style="opacity:1;fill:#9c27b0;fill-opacity:1;stroke:none;stroke-width:0.05069799;stroke-miterlimit:4;stroke-dasharray:none;stroke-opacity:1"
         id="circle7178"
         cx="9.9999781"
         cy="10.000005"
         r="10" />
    </clipPath>
    <clipPath
       id="clipPath8165"
       clipPathUnits="userSpaceOnUse">
      <circle
         inkscape:export-ydpi="648"
         inkscape:export-xdpi="648"
         inkscape:export-filename="/home/juergen/Schreibtisch/path4136.png"
         style="opacity:1;fill:#ffc107;fill-opacity:1;stroke:none;stroke-width:0.05069799;stroke-miterlimit:4;stroke-dasharray:none;stroke-opacity:1"
         id="circle8167"
         cx="9.9999781"
         cy="10.000005"
         r="10" />
    </clipPath>
    <clipPath
       clipPathUnits="userSpaceOnUse"
       id="clipPath9162">
      <circle
         inkscape:export-ydpi="648"
         inkscape:export-xdpi="648"
         inkscape:export-filename="/home/juergen/Schreibtisch/path4136.png"
         style="opacity:1;fill:#ff9800;fill-opacity:1;stroke:none;stroke-width:0.05069799;stroke-miterlimit:4;stroke-dasharray:none;stroke-opacity:1"
         id="circle9164"
         cx="9.9999781"
         cy="10.000005"
         r="10" />
    </clipPath>
    <clipPath
       id="clipPath10753"
       clipPathUnits="userSpaceOnUse">
      <circle
         inkscape:export-ydpi="648"
         inkscape:export-xdpi="648"
         inkscape:export-filename="/home/juergen/Schreibtisch/path4136.png"
         style="opacity:1;fill:#607d8b;fill-opacity:1;stroke:none;stroke-width:0.05069799;stroke-miterlimit:4;stroke-dasharray:none;stroke-opacity:1"
         id="circle10755"
         cx="9.9999781"
         cy="10.000005"
         r="10" />
    </clipPath>
    <clipPath
       clipPathUnits="userSpaceOnUse"
       id="clipPath5153">
      <circle
         inkscape:export-ydpi="648"
         inkscape:export-xdpi="648"
         inkscape:export-filename="/home/juergen/Schreibtisch/path4136.png"
         style="opacity:1;fill:#2196f3;fill-opacity:1;stroke:none;stroke-width:0.05069799;stroke-miterlimit:4;stroke-dasharray:none;stroke-opacity:1"
         id="circle5155"
         cx="9.9999781"
         cy="10.000005"
         r="10" />
    </clipPath>
    <clipPath
       id="clipPath6158"
       clipPathUnits="userSpaceOnUse">
      <circle
         r="10"
         cy="10.000005"
         cx="9.9999781"
         id="circle6160"
         style="opacity:1;fill:#ff9800;fill-opacity:1;stroke:none;stroke-width:0.05069799;stroke-miterlimit:4;stroke-dasharray:none;stroke-opacity:1"
         inkscape:export-filename="/home/juergen/Schreibtisch/path4136.png"
         inkscape:export-xdpi="648"
         inkscape:export-ydpi="648" />
    </clipPath>
    <linearGradient
       inkscape:collect="always"
       xlink:href="#linearGradient5165"
       id="linearGradient5171"
       x1="10"
       y1="10"
       x2="20"
       y2="20"
       gradientUnits="userSpaceOnUse" />
    <clipPath
       clipPathUnits="userSpaceOnUse"
       id="clipPath5176">
      <circle
         r="10"
         cy="10.000005"
         cx="9.9999781"
         id="circle5178"
         style="opacity:1;fill:#ff9800;fill-opacity:1;stroke:none;stroke-width:0.05069799;stroke-miterlimit:4;stroke-dasharray:none;stroke-opacity:1"
         inkscape:export-filename="/home/juergen/Schreibtisch/path4136.png"
         inkscape:export-xdpi="648"
         inkscape:export-ydpi="648" />
    </clipPath>
  </defs>
  <metadata
     id="metadata7">
    <rdf:RDF>
      <cc:Work
         rdf:about="">
        <dc:format>image/svg+xml</dc:format>
        <dc:type
           rdf:resource="http://purl.org/dc/dcmitype/StillImage" />
        <dc:title></dc:title>
      </cc:Work>
    </rdf:RDF>
  </metadata>
  <g
     transform="translate(1058.1428,-861.93365)"
     id="layer1"
     inkscape:groupmode="layer"
     inkscape:label="Hintergrund">
    <circle
       r="10"
       cy="871.93365"
       cx="-1048.1428"
       id="path4136"
       style="opacity:1;fill:#ff9800;fill-opacity:1;stroke:none;stroke-width:0.05069799;stroke-miterlimit:4;stroke-dasharray:none;stroke-opacity:1"
       inkscape:export-filename="/home/juergen/Schreibtisch/path4136.png"
       inkscape:export-xdpi="648"
       inkscape:export-ydpi="648" />
    <circle
       inkscape:export-ydpi="1350"
       inkscape:export-xdpi="1350"
       inkscape:export-filename="/home/juergen/Schreibtisch/ic_launcher.png"
       style="opacity:1;fill:#2196f3;fill-opacity:1;stroke:none;stroke-width:0.05069799;stroke-miterlimit:4;stroke-dasharray:none;stroke-opacity:1"
       id="circle6153"
       cx="-1048.1428"
       cy="871.93365"
       r="10" />
  </g>
  <g
     inkscape:label="Icon"
     id="layer2"
     inkscape:groupmode="layer"
     style="display:inline">
    <path
       d="M 15 5 C 15 5 11.179922 4.8164063 8.1699219 8.9414062 C 5.8599219 12.106407 5 15 5 15 L 5.1230469 14.9375 C 5.1147205 14.964017 5.0763089 15.073758 5.0761719 15.074219 L 5.1953125 15.013672 C 5.1871488 15.039697 5.1484375 15.150391 5.1484375 15.150391 L 5.1503906 15.150391 L 5.2714844 15.087891 C 5.2633012 15.113976 5.2246094 15.224609 5.2246094 15.224609 L 5.3457031 15.162109 C 5.33752 15.188195 5.2988281 15.298828 5.2988281 15.298828 L 5.4199219 15.236328 C 5.4117387 15.262413 5.3730469 15.373047 5.3730469 15.373047 L 5.4960938 15.310547 C 5.4877869 15.337003 5.4493557 15.446805 5.4492188 15.447266 L 5.5683594 15.386719 C 5.5601957 15.412743 5.5214844 15.523438 5.5214844 15.523438 L 5.5234375 15.523438 L 5.6445312 15.460938 C 5.6363481 15.487023 5.5976562 15.597656 5.5976562 15.597656 L 5.71875 15.535156 C 5.7105669 15.561241 5.671875 15.671875 5.671875 15.671875 L 5.7929688 15.609375 C 5.7847856 15.63546 5.7460938 15.746094 5.7460938 15.746094 L 5.8691406 15.683594 C 5.8608338 15.71005 5.8224026 15.819852 5.8222656 15.820312 L 5.9414062 15.759766 C 5.9332426 15.78579 5.8945312 15.896484 5.8945312 15.896484 L 5.8964844 15.896484 L 6.0175781 15.833984 C 6.009395 15.860069 5.9707031 15.970703 5.9707031 15.970703 L 6.0917969 15.908203 C 6.0836138 15.934288 6.0449219 16.044922 6.0449219 16.044922 L 6.1660156 15.982422 C 6.1577744 16.008687 6.1191406 16.119141 6.1191406 16.119141 L 6.2421875 16.056641 C 6.2338807 16.083097 6.1954495 16.192899 6.1953125 16.193359 L 6.3164062 16.130859 C 6.3080099 16.157605 6.2695312 16.269531 6.2695312 16.269531 L 6.390625 16.207031 C 6.3824419 16.233116 6.34375 16.34375 6.34375 16.34375 L 6.4648438 16.28125 C 6.4566607 16.307335 6.4179688 16.417969 6.4179688 16.417969 L 6.5390625 16.355469 C 6.5307722 16.381877 6.4922899 16.491843 6.4921875 16.492188 L 6.6132812 16.429688 C 6.6049052 16.456371 6.5664062 16.568359 6.5664062 16.568359 L 6.5683594 16.568359 L 6.6894531 16.505859 C 6.6812701 16.531944 6.6425781 16.642578 6.6425781 16.642578 L 6.7636719 16.580078 C 6.7554888 16.606163 6.7167969 16.716797 6.7167969 16.716797 L 6.8378906 16.654297 C 6.8297076 16.680382 6.7910156 16.791016 6.7910156 16.791016 L 6.9140625 16.728516 C 6.9057362 16.755032 6.8673246 16.864773 6.8671875 16.865234 L 6.9863281 16.804688 C 6.9781646 16.830712 6.9394531 16.941406 6.9394531 16.941406 L 6.9414062 16.941406 L 7.0625 16.878906 C 7.054317 16.904991 7.015625 17.015625 7.015625 17.015625 L 7.1367188 16.953125 C 7.1285357 16.97921 7.0898438 17.089844 7.0898438 17.089844 L 7.2109375 17.027344 C 7.2027545 17.053429 7.1640625 17.164062 7.1640625 17.164062 L 7.2871094 17.101562 C 7.2788026 17.128019 7.2403713 17.237821 7.2402344 17.238281 L 7.359375 17.177734 C 7.3512115 17.203759 7.3125 17.314453 7.3125 17.314453 L 7.3144531 17.314453 L 7.4355469 17.251953 C 7.4273639 17.278038 7.3886719 17.388672 7.3886719 17.388672 L 7.5097656 17.326172 C 7.5015826 17.352257 7.4628906 17.462891 7.4628906 17.462891 L 7.5839844 17.400391 C 7.5757432 17.426656 7.5371094 17.537109 7.5371094 17.537109 L 7.6601562 17.474609 C 7.6518495 17.501065 7.6134182 17.610868 7.6132812 17.611328 L 7.734375 17.548828 C 7.7259787 17.575574 7.6875 17.6875 7.6875 17.6875 L 7.8085938 17.625 C 7.8004108 17.651085 7.7617188 17.761719 7.7617188 17.761719 L 7.8828125 17.699219 C 7.8746295 17.725303 7.8359375 17.835938 7.8359375 17.835938 L 7.9570312 17.773438 C 7.9487901 17.799702 7.9101562 17.910156 7.9101562 17.910156 L 8.03125 17.847656 C 8.022874 17.874339 7.984375 17.986328 7.984375 17.986328 L 7.9863281 17.986328 L 8.1074219 17.923828 C 8.0992389 17.949913 8.0605469 18.060547 8.0605469 18.060547 L 8.1816406 17.998047 C 8.1734577 18.024131 8.1347656 18.134766 8.1347656 18.134766 L 8.2558594 18.072266 C 8.2476764 18.09835 8.2089844 18.208984 8.2089844 18.208984 L 8.3300781 18.146484 C 8.321788 18.172892 8.2833055 18.282859 8.2832031 18.283203 L 8.4042969 18.220703 C 8.3959209 18.247386 8.3574219 18.359375 8.3574219 18.359375 L 8.359375 18.359375 L 8.4804688 18.296875 C 8.4722858 18.32296 8.4335938 18.433594 8.4335938 18.433594 L 8.5546875 18.371094 C 8.5465046 18.397178 8.5078125 18.507812 8.5078125 18.507812 L 8.6289062 18.445312 C 8.6207233 18.471397 8.5820312 18.582031 8.5820312 18.582031 L 8.703125 18.519531 C 8.6948548 18.545877 8.656352 18.655907 8.65625 18.65625 L 8.7773438 18.59375 C 8.7689678 18.620433 8.7304688 18.732422 8.7304688 18.732422 L 8.7324219 18.732422 L 8.8535156 18.669922 C 8.8453327 18.696006 8.8066406 18.806641 8.8066406 18.806641 L 8.9277344 18.744141 C 8.9195515 18.770225 8.8808594 18.880859 8.8808594 18.880859 L 9.0019531 18.818359 C 8.9937702 18.844444 8.9550781 18.955078 8.9550781 18.955078 L 9.078125 18.892578 C 9.0698183 18.919034 9.031387 19.028836 9.03125 19.029297 L 9.1503906 18.96875 C 9.1422272 18.994774 9.1035156 19.105469 9.1035156 19.105469 L 9.1054688 19.105469 L 9.2265625 19.042969 C 9.2183796 19.069053 9.1796875 19.179688 9.1796875 19.179688 L 9.3007812 19.117188 C 9.2925984 19.143272 9.2539062 19.253906 9.2539062 19.253906 L 9.375 19.191406 C 9.366759 19.217671 9.328125 19.328125 9.328125 19.328125 L 9.4492188 19.265625 C 9.4408429 19.292308 9.4023438 19.404297 9.4023438 19.404297 L 9.4042969 19.404297 L 9.5253906 19.341797 C 9.5172078 19.367881 9.4785156 19.478516 9.4785156 19.478516 L 9.5996094 19.416016 C 9.5914265 19.4421 9.5527344 19.552734 9.5527344 19.552734 L 9.6738281 19.490234 C 9.6656453 19.516319 9.6269531 19.626953 9.6269531 19.626953 L 9.7480469 19.564453 C 9.7398059 19.590718 9.7011719 19.701172 9.7011719 19.701172 L 9.8222656 19.638672 C 9.8138898 19.665354 9.7753906 19.777344 9.7753906 19.777344 L 9.7773438 19.777344 L 9.8984375 19.714844 C 9.8902547 19.740928 9.8515625 19.851562 9.8515625 19.851562 L 9.9726562 19.789062 C 9.9644734 19.815147 9.9257812 19.925781 9.9257812 19.925781 L 10.046875 19.863281 C 10.038692 19.889365 10 20 10 20 L 10.121094 19.9375 C 10.112804 19.963907 10.074321 20.073874 10.074219 20.074219 L 10.195312 20.011719 C 10.186937 20.038401 10.148438 20.150391 10.148438 20.150391 L 10.150391 20.150391 C 10.152802 20.149153 10.243655 20.102233 10.271484 20.087891 C 10.263302 20.113975 10.224609 20.224609 10.224609 20.224609 C 10.227002 20.223372 10.317884 20.176452 10.345703 20.162109 C 10.33752 20.188193 10.298828 20.298828 10.298828 20.298828 L 10.419922 20.236328 C 10.411739 20.262412 10.373047 20.373047 10.373047 20.373047 C 10.375399 20.371836 10.46642 20.324835 10.494141 20.310547 C 10.485871 20.336892 10.447368 20.446922 10.447266 20.447266 C 10.449601 20.446067 10.540608 20.399068 10.568359 20.384766 C 10.559984 20.411448 10.521484 20.523438 10.521484 20.523438 L 10.523438 20.523438 C 10.525758 20.522237 10.616751 20.475259 10.644531 20.460938 C 10.636348 20.487022 10.597656 20.597656 10.597656 20.597656 L 10.71875 20.535156 C 10.710567 20.56124 10.671875 20.671875 10.671875 20.671875 C 10.674155 20.670702 10.765287 20.623643 10.792969 20.609375 C 10.784728 20.635639 10.746094 20.746094 10.746094 20.746094 C 10.748355 20.744933 10.839516 20.697855 10.867188 20.683594 C 10.858812 20.710276 10.820312 20.822266 10.820312 20.822266 L 10.822266 20.822266 C 10.824469 20.821126 10.914616 20.775531 10.941406 20.761719 C 10.933453 20.787091 10.894531 20.896484 10.894531 20.896484 L 10.896484 20.896484 L 11.017578 20.833984 C 11.009395 20.860068 10.970703 20.970703 10.970703 20.970703 C 10.972913 20.969566 11.064076 20.922491 11.091797 20.908203 C 11.083614 20.934287 11.044922 21.044922 11.044922 21.044922 C 11.047111 21.043799 11.138383 20.996662 11.166016 20.982422 C 11.157775 21.008686 11.119141 21.119141 11.119141 21.119141 C 11.121311 21.118017 11.212612 21.070881 11.240234 21.056641 C 11.231859 21.083323 11.193359 21.195312 11.193359 21.195312 L 11.195312 21.195312 C 11.197468 21.1942 11.288716 21.147087 11.316406 21.132812 C 11.308223 21.158896 11.269531 21.269531 11.269531 21.269531 C 11.271669 21.268431 11.362944 21.221299 11.390625 21.207031 C 11.382442 21.233115 11.34375 21.34375 11.34375 21.34375 C 11.345869 21.342662 11.437173 21.295511 11.464844 21.28125 C 11.456661 21.307334 11.417969 21.417969 11.417969 21.417969 C 11.420065 21.416883 11.51148 21.369689 11.539062 21.355469 C 11.530773 21.381876 11.49229 21.491843 11.492188 21.492188 C 11.494268 21.491113 11.585668 21.443922 11.613281 21.429688 C 11.604906 21.45637 11.566406 21.568359 11.566406 21.568359 L 11.568359 21.568359 L 11.689453 21.505859 C 11.68127 21.531943 11.642578 21.642578 11.642578 21.642578 C 11.644624 21.641528 11.73604 21.594319 11.763672 21.580078 C 11.755489 21.606162 11.716797 21.716797 11.716797 21.716797 C 11.718824 21.715747 11.810269 21.668537 11.837891 21.654297 C 11.829708 21.680381 11.791016 21.791016 11.791016 21.791016 C 11.793022 21.78998 11.884576 21.742709 11.912109 21.728516 C 11.903819 21.754923 11.865337 21.86489 11.865234 21.865234 C 11.867224 21.86421 11.958765 21.816942 11.986328 21.802734 C 11.977952 21.829416 11.939453 21.941406 11.939453 21.941406 L 11.941406 21.941406 C 11.943379 21.940394 12.034908 21.893127 12.0625 21.878906 C 12.054317 21.90499 12.015625 22.015625 12.015625 22.015625 C 12.01758 22.014612 12.109136 21.967345 12.136719 21.953125 C 12.128536 21.979209 12.089844 22.089844 12.089844 22.089844 C 12.09178 22.088844 12.183365 22.041557 12.210938 22.027344 C 12.202755 22.053427 12.164062 22.164062 12.164062 22.164062 L 12.285156 22.101562 C 12.276886 22.127908 12.238383 22.237938 12.238281 22.238281 C 12.24018 22.237307 12.331861 22.189961 12.359375 22.175781 C 12.350999 22.202463 12.3125 22.314453 12.3125 22.314453 L 12.314453 22.314453 C 12.316334 22.313478 12.408004 22.266153 12.435547 22.251953 C 12.427364 22.278037 12.388672 22.388672 12.388672 22.388672 C 12.390536 22.387709 12.482233 22.340365 12.509766 22.326172 C 12.501583 22.352256 12.462891 22.462891 12.462891 22.462891 L 12.583984 22.400391 C 12.575744 22.426655 12.537109 22.537109 12.537109 22.537109 C 12.538933 22.536173 12.630769 22.488748 12.658203 22.474609 C 12.649827 22.501291 12.611328 22.613281 12.611328 22.613281 C 12.613157 22.612333 12.706319 22.565246 12.734375 22.550781 C 12.726192 22.576865 12.6875 22.6875 12.6875 22.6875 C 12.68929 22.686575 12.781101 22.639173 12.808594 22.625 C 12.800411 22.651084 12.761719 22.761719 12.761719 22.761719 L 12.882812 22.699219 C 12.87463 22.725302 12.835938 22.835938 12.835938 22.835938 C 12.837688 22.835039 12.929637 22.787556 12.957031 22.773438 C 12.94879 22.799701 12.910156 22.910156 12.910156 22.910156 C 12.911888 22.909258 13.003865 22.861775 13.03125 22.847656 C 13.022874 22.874338 12.984375 22.986328 12.984375 22.986328 L 12.986328 22.986328 C 12.988046 22.985441 13.079968 22.937981 13.107422 22.923828 C 13.099239 22.949912 13.060547 23.060547 13.060547 23.060547 L 13.181641 22.998047 C 13.173458 23.02413 13.134766 23.134766 13.134766 23.134766 C 13.136446 23.133903 13.228426 23.086405 13.255859 23.072266 C 13.247677 23.098349 13.208984 23.208984 13.208984 23.208984 C 13.210644 23.208123 13.302733 23.160583 13.330078 23.146484 C 13.321788 23.172891 13.283306 23.282859 13.283203 23.283203 C 13.284846 23.282354 13.376921 23.234816 13.404297 23.220703 C 13.395921 23.247385 13.357422 23.359375 13.357422 23.359375 L 13.359375 23.359375 L 13.480469 23.296875 C 13.472286 23.322958 13.433594 23.433594 13.433594 23.433594 C 13.435201 23.432769 13.527293 23.385212 13.554688 23.371094 C 13.546505 23.397177 13.507812 23.507812 13.507812 23.507812 C 13.509401 23.506988 13.601522 23.459431 13.628906 23.445312 C 13.620724 23.471396 13.582031 23.582031 13.582031 23.582031 C 13.5836 23.58122 13.675829 23.533603 13.703125 23.519531 C 13.694855 23.545876 13.656352 23.655907 13.65625 23.65625 L 13.777344 23.59375 C 13.768968 23.620432 13.730469 23.732422 13.730469 23.732422 L 13.732422 23.732422 C 13.733957 23.731634 13.826161 23.68402 13.853516 23.669922 C 13.845333 23.696005 13.806641 23.806641 13.806641 23.806641 C 13.808157 23.805853 13.90039 23.758239 13.927734 23.744141 C 13.919552 23.770224 13.880859 23.880859 13.880859 23.880859 C 13.882357 23.880084 13.974619 23.832451 14.001953 23.818359 C 13.993771 23.844443 13.955078 23.955078 13.955078 23.955078 L 14.076172 23.892578 C 14.067796 23.91926 14.029297 24.03125 14.029297 24.03125 C 14.030756 24.030501 14.123154 23.982788 14.150391 23.96875 C 14.142228 23.994773 14.103516 24.105469 14.103516 24.105469 L 14.105469 24.105469 C 14.106911 24.104719 14.199258 24.057047 14.226562 24.042969 C 14.21838 24.069052 14.179688 24.179688 14.179688 24.179688 C 14.181112 24.17895 14.273486 24.131259 14.300781 24.117188 C 14.292599 24.143271 14.253906 24.253906 14.253906 24.253906 L 14.375 24.191406 C 14.366759 24.21767 14.328125 24.328125 14.328125 24.328125 C 14.329512 24.327414 14.422022 24.279642 14.449219 24.265625 C 14.440843 24.292307 14.402344 24.404297 14.402344 24.404297 C 14.403729 24.403589 14.497573 24.356133 14.525391 24.341797 C 14.517208 24.36788 14.478516 24.478516 14.478516 24.478516 C 14.479867 24.477816 14.572354 24.430067 14.599609 24.416016 C 14.591427 24.442099 14.552734 24.552734 14.552734 24.552734 L 14.673828 24.490234 C 14.665646 24.516318 14.626953 24.626953 14.626953 24.626953 C 14.628266 24.626279 14.72089 24.57845 14.748047 24.564453 C 14.739806 24.590717 14.701172 24.701172 14.701172 24.701172 C 14.702466 24.70051 14.795119 24.652662 14.822266 24.638672 C 14.81389 24.665353 14.775391 24.777344 14.775391 24.777344 C 14.776684 24.776674 14.870669 24.729159 14.898438 24.714844 C 14.890255 24.740927 14.851562 24.851562 14.851562 24.851562 L 14.972656 24.789062 C 14.964474 24.815146 14.925781 24.925781 14.925781 24.925781 L 15.046875 24.863281 C 15.038692 24.889364 15 25 15 25 C 15.001223 24.999376 15.093985 24.95147 15.121094 24.9375 C 15.112804 24.963906 15.074321 25.073874 15.074219 25.074219 C 15.075418 25.073594 15.168177 25.025709 15.195312 25.011719 C 15.186937 25.0384 15.148438 25.150391 15.148438 25.150391 L 15.150391 25.150391 L 15.271484 25.087891 C 15.263302 25.113974 15.224609 25.224609 15.224609 25.224609 C 15.225784 25.224009 15.318543 25.176106 15.345703 25.162109 C 15.337521 25.188192 15.298828 25.298828 15.298828 25.298828 C 15.299978 25.298241 15.392776 25.250318 15.419922 25.236328 C 15.411739 25.262411 15.373047 25.373047 15.373047 25.373047 L 15.494141 25.310547 C 15.485765 25.337228 15.447266 25.449219 15.447266 25.449219 C 15.448376 25.448645 15.541312 25.400662 15.568359 25.386719 C 15.560196 25.412741 15.521484 25.523438 15.521484 25.523438 L 15.523438 25.523438 C 15.524538 25.522875 15.617412 25.474914 15.644531 25.460938 C 15.636349 25.487021 15.597656 25.597656 15.597656 25.597656 C 15.598731 25.597106 15.691644 25.549126 15.71875 25.535156 C 15.710568 25.561239 15.671875 25.671875 15.671875 25.671875 C 15.672936 25.671326 15.765948 25.623304 15.792969 25.609375 C 15.784728 25.635638 15.746094 25.746094 15.746094 25.746094 C 15.74713 25.745557 15.840181 25.697516 15.867188 25.683594 C 15.858812 25.710275 15.820312 25.822266 15.820312 25.822266 C 15.821336 25.821741 15.914406 25.773681 15.941406 25.759766 C 15.933243 25.785788 15.894531 25.896484 15.894531 25.896484 L 15.896484 25.896484 C 15.897484 25.895972 15.990513 25.847934 16.017578 25.833984 C 16.009396 25.860067 15.970703 25.970703 15.970703 25.970703 C 15.971691 25.970191 16.064739 25.922153 16.091797 25.908203 C 16.083614 25.934286 16.044922 26.044922 16.044922 26.044922 C 16.045883 26.044423 16.139049 25.996324 16.166016 25.982422 C 16.157775 26.008685 16.119141 26.119141 16.119141 26.119141 C 16.120089 26.118654 16.213275 26.070536 16.240234 26.056641 C 16.231859 26.083322 16.193359 26.195312 16.193359 26.195312 C 16.194307 26.194832 16.288823 26.147026 16.316406 26.132812 C 16.308224 26.158895 16.269531 26.269531 16.269531 26.269531 C 16.270444 26.269056 16.363607 26.22096 16.390625 26.207031 C 16.382443 26.233114 16.34375 26.34375 16.34375 26.34375 C 16.34465 26.343287 16.437833 26.295172 16.464844 26.28125 C 16.456661 26.307333 16.417969 26.417969 16.417969 26.417969 L 16.539062 26.355469 C 16.530773 26.381875 16.49229 26.491843 16.492188 26.492188 C 16.493049 26.49175 16.586329 26.443577 16.613281 26.429688 C 16.604906 26.456369 16.566406 26.568359 16.566406 26.568359 C 16.567253 26.567917 16.661924 26.520053 16.689453 26.505859 C 16.681271 26.531942 16.642578 26.642578 16.642578 26.642578 L 16.763672 26.580078 C 16.755489 26.606161 16.716797 26.716797 16.716797 26.716797 L 16.837891 26.654297 C 16.829708 26.68038 16.791016 26.791016 16.791016 26.791016 C 16.791802 26.790616 16.885238 26.742364 16.912109 26.728516 C 16.903714 26.755259 16.865234 26.867188 16.865234 26.867188 C 16.865996 26.866788 16.95947 26.818536 16.986328 26.804688 C 16.978165 26.83071 16.939453 26.941406 16.939453 26.941406 L 17.0625 26.878906 C 17.054318 26.904989 17.015625 27.015625 17.015625 27.015625 L 17.136719 26.953125 C 17.128536 26.979208 17.089844 27.089844 17.089844 27.089844 C 17.090556 27.089481 17.184028 27.041212 17.210938 27.027344 C 17.202755 27.053426 17.164062 27.164062 17.164062 27.164062 C 17.164761 27.163701 17.258332 27.11539 17.285156 27.101562 C 17.276781 27.128243 17.238281 27.240234 17.238281 27.240234 C 17.238955 27.239885 17.332564 27.191555 17.359375 27.177734 C 17.351212 27.203757 17.3125 27.314453 17.3125 27.314453 L 17.314453 27.314453 C 17.315116 27.314116 17.408665 27.265808 17.435547 27.251953 C 17.427365 27.278036 17.388672 27.388672 17.388672 27.388672 C 17.389309 27.388347 17.482897 27.34002 17.509766 27.326172 C 17.501583 27.352255 17.462891 27.462891 17.462891 27.462891 C 17.463515 27.462566 17.557201 27.414198 17.583984 27.400391 C 17.575744 27.426654 17.537109 27.537109 17.537109 27.537109 C 17.537708 27.536797 17.631433 27.48841 17.658203 27.474609 C 17.649828 27.50129 17.611328 27.613281 17.611328 27.613281 C 17.611922 27.612978 17.706982 27.5649 17.734375 27.550781 C 17.726193 27.576864 17.6875 27.6875 17.6875 27.6875 C 17.688063 27.687213 17.781766 27.638828 17.808594 27.625 C 17.800411 27.651083 17.761719 27.761719 17.761719 27.761719 C 17.762269 27.761431 17.855991 27.713046 17.882812 27.699219 C 17.87463 27.725301 17.835938 27.835938 17.835938 27.835938 C 17.836462 27.835663 17.930302 27.787218 17.957031 27.773438 C 17.948791 27.7997 17.910156 27.910156 17.910156 27.910156 C 17.910668 27.909894 18.004527 27.86143 18.03125 27.847656 C 18.022875 27.874337 17.984375 27.986328 17.984375 27.986328 L 18.107422 27.923828 C 18.09924 27.949911 18.060547 28.060547 18.060547 28.060547 C 18.061022 28.060297 18.15486 28.011854 18.181641 27.998047 C 18.173458 28.024129 18.134766 28.134766 18.134766 28.134766 L 18.255859 28.072266 C 18.247677 28.098348 18.208984 28.208984 18.208984 28.208984 L 18.330078 28.146484 C 18.321789 28.17289 18.283305 28.282859 18.283203 28.283203 C 18.283628 28.282991 18.377581 28.23447 18.404297 28.220703 C 18.395922 28.247384 18.357422 28.359375 18.357422 28.359375 C 18.357826 28.35916 18.453177 28.310946 18.480469 28.296875 C 18.472286 28.322957 18.433594 28.433594 18.433594 28.433594 L 18.554688 28.371094 C 18.546505 28.397176 18.507812 28.507812 18.507812 28.507812 L 18.628906 28.445312 C 18.620724 28.471395 18.582031 28.582031 18.582031 28.582031 C 18.582381 28.581857 18.67649 28.533257 18.703125 28.519531 C 18.694729 28.546275 18.65625 28.658203 18.65625 28.658203 C 18.656574 28.658028 18.750723 28.609429 18.777344 28.595703 C 18.769181 28.621725 18.730469 28.732422 18.730469 28.732422 C 18.730785 28.732258 18.826272 28.683966 18.853516 28.669922 C 18.845333 28.696004 18.806641 28.806641 18.806641 28.806641 C 18.806928 28.806491 18.901055 28.757894 18.927734 28.744141 C 18.919552 28.770223 18.880859 28.880859 18.880859 28.880859 C 18.881134 28.880722 18.975281 28.832106 19.001953 28.818359 C 18.993713 28.844622 18.955078 28.955078 18.955078 28.955078 C 18.955328 28.954941 19.049591 28.906284 19.076172 28.892578 C 19.067797 28.919259 19.029297 29.03125 19.029297 29.03125 L 19.150391 28.96875 C 19.142228 28.994772 19.103516 29.105469 19.103516 29.105469 L 19.105469 29.105469 C 19.105694 29.105356 19.199917 29.056702 19.226562 29.042969 C 19.21838 29.069051 19.179688 29.179688 19.179688 29.179688 L 19.300781 29.117188 C 19.292599 29.14327 19.253906 29.253906 19.253906 29.253906 C 19.254093 29.253812 19.348453 29.205089 19.375 29.191406 C 19.36676 29.217669 19.328125 29.328125 19.328125 29.328125 L 19.449219 29.265625 C 19.440844 29.292305 19.402344 29.404297 19.402344 29.404297 C 19.402495 29.404221 19.498235 29.355794 19.525391 29.341797 C 19.517208 29.367879 19.478516 29.478516 19.478516 29.478516 C 19.478641 29.47845 19.573018 29.429723 19.599609 29.416016 C 19.591427 29.442098 19.552734 29.552734 19.552734 29.552734 L 19.673828 29.490234 C 19.665646 29.516317 19.626953 29.626953 19.626953 29.626953 L 19.748047 29.564453 C 19.739807 29.590716 19.701172 29.701172 19.701172 29.701172 L 19.822266 29.638672 C 19.81389 29.665352 19.775391 29.777344 19.775391 29.777344 L 19.898438 29.714844 C 19.890255 29.740926 19.851562 29.851562 19.851562 29.851562 L 19.972656 29.789062 C 19.964474 29.815145 19.925781 29.925781 19.925781 29.925781 L 20.046875 29.863281 C 20.038693 29.889363 20 30 20 30 L 20.970703 29.5 C 21.690703 28.25 22.064531 27.735 22.769531 27 C 24.034531 27.37 25.355 27.325 26.5 26 C 26.457314 25.988048 26.418956 25.985327 26.376953 25.974609 C 26.392958 25.956659 26.409843 25.944225 26.425781 25.925781 C 26.383229 25.913867 26.344607 25.911078 26.302734 25.900391 C 26.318776 25.882402 26.335589 25.870047 26.351562 25.851562 C 26.308362 25.839467 26.269063 25.837003 26.226562 25.826172 C 26.24264 25.808144 26.259381 25.79587 26.275391 25.777344 C 26.232079 25.765216 26.192999 25.76281 26.150391 25.751953 C 26.167039 25.733306 26.184596 25.720353 26.201172 25.701172 C 26.158486 25.68922 26.120127 25.686498 26.078125 25.675781 C 26.09413 25.657831 26.111015 25.645397 26.126953 25.626953 C 26.084378 25.615032 26.045801 25.612255 26.003906 25.601562 C 26.019911 25.583613 26.036796 25.571178 26.052734 25.552734 C 26.010182 25.54082 25.97156 25.538031 25.929688 25.527344 C 25.945729 25.509355 25.962542 25.497 25.978516 25.478516 C 25.935316 25.46642 25.896016 25.463956 25.853516 25.453125 C 25.869593 25.435097 25.886334 25.422823 25.902344 25.404297 C 25.859032 25.39217 25.819952 25.389762 25.777344 25.378906 C 25.793992 25.360259 25.81155 25.347306 25.828125 25.328125 C 25.785439 25.316173 25.74708 25.313451 25.705078 25.302734 C 25.721083 25.284785 25.737968 25.27235 25.753906 25.253906 C 25.711331 25.241986 25.672754 25.239208 25.630859 25.228516 C 25.646864 25.210566 25.66375 25.198131 25.679688 25.179688 C 25.636488 25.167592 25.597187 25.165128 25.554688 25.154297 C 25.570764 25.136269 25.587506 25.123995 25.603516 25.105469 C 25.560853 25.093524 25.522448 25.09079 25.480469 25.080078 C 25.49651 25.062089 25.513323 25.049735 25.529297 25.03125 C 25.504326 25.024258 25.481762 25.024144 25.457031 25.017578 C 25.948585 24.918385 26.438566 24.91017 27 25 L 27.5 24 C 27.463005 23.993014 27.432507 23.990832 27.396484 23.984375 L 27.425781 23.925781 L 27.423828 23.925781 C 27.387405 23.918903 27.357745 23.916522 27.322266 23.910156 L 27.351562 23.851562 L 27.349609 23.851562 C 27.312502 23.844555 27.282223 23.842413 27.246094 23.835938 L 27.275391 23.777344 C 27.238283 23.770337 27.208004 23.768194 27.171875 23.761719 L 27.201172 23.701172 C 27.164159 23.694183 27.133695 23.692007 27.097656 23.685547 L 27.126953 23.626953 C 27.089958 23.619967 27.05946 23.617786 27.023438 23.611328 L 27.052734 23.552734 L 27.050781 23.552734 C 27.014358 23.545856 26.984699 23.543475 26.949219 23.537109 L 26.978516 23.478516 L 26.976562 23.478516 C 26.939455 23.471508 26.909176 23.469366 26.873047 23.462891 L 26.902344 23.404297 C 26.865236 23.39729 26.834957 23.395147 26.798828 23.388672 L 26.828125 23.328125 C 26.791112 23.321136 26.760649 23.31896 26.724609 23.3125 L 26.753906 23.253906 C 26.716911 23.24692 26.686413 23.244739 26.650391 23.238281 L 26.679688 23.179688 L 26.677734 23.179688 C 26.667944 23.177839 26.660111 23.177593 26.650391 23.175781 C 27.04723 23.04431 27.469493 22.971735 28 23 L 28.605469 22.035156 L 28.603516 22.035156 C 28.56098 22.03216 28.527139 22.033414 28.486328 22.03125 L 28.53125 21.960938 L 28.529297 21.960938 C 28.486057 21.957892 28.451617 21.959217 28.410156 21.957031 L 28.455078 21.886719 C 28.411838 21.883673 28.377398 21.884998 28.335938 21.882812 L 28.380859 21.8125 C 28.337775 21.809465 28.303035 21.810775 28.261719 21.808594 L 28.306641 21.736328 C 28.263553 21.733293 28.22882 21.734603 28.1875 21.732422 L 28.232422 21.662109 L 28.230469 21.662109 C 28.187228 21.659063 28.152789 21.660389 28.111328 21.658203 L 28.15625 21.587891 C 28.113009 21.584845 28.07857 21.58617 28.037109 21.583984 L 28.082031 21.513672 C 28.038947 21.510637 28.004208 21.511947 27.962891 21.509766 L 28.007812 21.439453 C 27.964728 21.436418 27.929989 21.437728 27.888672 21.435547 L 27.916016 21.392578 C 28.266337 21.27038 28.637016 21.186478 29.070312 21.160156 C 29.086312 21.131486 29.601328 20.211641 30 20 C 30 20 29.860706 20.010078 29.828125 20.009766 C 29.860461 19.985297 29.894575 19.942348 29.925781 19.925781 C 29.925781 19.925781 29.786498 19.935859 29.753906 19.935547 C 29.786347 19.910979 29.820258 19.868181 29.851562 19.851562 C 29.851562 19.851562 29.711053 19.861632 29.677734 19.861328 C 29.710299 19.836642 29.743969 19.794024 29.775391 19.777344 C 29.775391 19.777344 29.635079 19.787411 29.601562 19.787109 C 29.634739 19.761837 29.669175 19.718158 29.701172 19.701172 C 29.701172 19.701172 29.561878 19.71125 29.529297 19.710938 C 29.561764 19.686345 29.595624 19.643585 29.626953 19.626953 C 29.626953 19.626953 29.48767 19.637031 29.455078 19.636719 C 29.487427 19.612238 29.521516 19.569307 29.552734 19.552734 C 29.552734 19.552734 29.413451 19.562813 29.380859 19.5625 C 29.413313 19.537919 29.447198 19.495141 29.478516 19.478516 C 29.478516 19.478516 29.338006 19.488585 29.304688 19.488281 C 29.337266 19.463582 29.37091 19.420984 29.402344 19.404297 C 29.402344 19.404297 29.262032 19.414364 29.228516 19.414062 C 29.261706 19.388777 29.296116 19.345118 29.328125 19.328125 C 29.328125 19.328125 29.188831 19.338203 29.15625 19.337891 C 29.18861 19.3134 29.222678 19.270484 29.253906 19.253906 C 29.253906 19.253906 29.114623 19.263984 29.082031 19.263672 C 29.114394 19.239178 29.148456 19.196267 29.179688 19.179688 C 29.179688 19.179688 29.039178 19.189757 29.005859 19.189453 C 29.038448 19.164744 29.072072 19.122161 29.103516 19.105469 C 29.103516 19.105469 28.964426 19.115545 28.931641 19.115234 C 28.964232 19.090522 28.99785 19.047944 29.029297 19.03125 C 29.029297 19.03125 28.888985 19.041317 28.855469 19.041016 C 28.888672 19.015717 28.923056 18.972077 28.955078 18.955078 C 28.955078 18.955078 28.815784 18.965156 28.783203 18.964844 C 28.815576 18.94034 28.849618 18.897444 28.880859 18.880859 C 28.880859 18.880859 28.741576 18.890938 28.708984 18.890625 C 28.74136 18.866119 28.775397 18.823227 28.806641 18.806641 C 28.806641 18.806641 28.666131 18.81671 28.632812 18.816406 C 28.665414 18.791684 28.699012 18.749121 28.730469 18.732422 C 28.730469 18.732422 28.591379 18.742498 28.558594 18.742188 C 28.591198 18.717463 28.624791 18.674904 28.65625 18.658203 C 28.65625 18.658203 28.515938 18.668271 28.482422 18.667969 C 28.515516 18.642775 28.550112 18.598976 28.582031 18.582031 C 28.582031 18.582031 28.442737 18.592109 28.410156 18.591797 C 28.442542 18.567281 28.476559 18.524404 28.507812 18.507812 C 28.507812 18.507812 28.368529 18.517891 28.335938 18.517578 C 28.368326 18.49306 28.402338 18.450186 28.433594 18.433594 C 28.433594 18.433594 28.293084 18.443664 28.259766 18.443359 C 28.292381 18.418625 28.325953 18.376081 28.357422 18.359375 C 28.357422 18.359375 28.218332 18.369451 28.185547 18.369141 C 28.218165 18.344404 28.251732 18.301863 28.283203 18.285156 C 28.283203 18.285156 28.142891 18.295224 28.109375 18.294922 C 28.142482 18.269716 28.177053 18.225936 28.208984 18.208984 C 28.208984 18.208984 28.06969 18.219063 28.037109 18.21875 C 28.069508 18.194222 28.1035 18.151363 28.134766 18.134766 C 28.134766 18.134766 27.995482 18.144844 27.962891 18.144531 C 27.995292 18.12 28.029279 18.077146 28.060547 18.060547 C 28.060547 18.060547 27.920037 18.070617 27.886719 18.070312 C 27.919347 18.045565 27.952894 18.00304 27.984375 17.986328 C 27.984375 17.986328 27.844063 17.996396 27.810547 17.996094 C 27.843665 17.970877 27.878215 17.927113 27.910156 17.910156 C 27.910156 17.910156 27.770862 17.920234 27.738281 17.919922 C 27.770691 17.895383 27.804662 17.85254 27.835938 17.835938 C 27.835938 17.835938 27.696654 17.846016 27.664062 17.845703 C 27.696475 17.821162 27.730441 17.778323 27.761719 17.761719 C 27.761719 17.761719 27.622435 17.771797 27.589844 17.771484 C 27.622259 17.746941 27.65622 17.704106 27.6875 17.6875 C 27.6875 17.6875 27.54699 17.69757 27.513672 17.697266 C 27.546313 17.672506 27.579835 17.63 27.611328 17.613281 C 27.611328 17.613281 27.471016 17.623349 27.4375 17.623047 C 27.470631 17.597817 27.505155 17.554073 27.537109 17.537109 C 27.537109 17.537109 27.397815 17.547188 27.365234 17.546875 C 27.397657 17.522324 27.431603 17.4795 27.462891 17.462891 C 27.462891 17.462891 27.323607 17.472969 27.291016 17.472656 C 27.323441 17.448103 27.357382 17.405283 27.388672 17.388672 C 27.388672 17.388672 27.248162 17.398742 27.214844 17.398438 C 27.247392 17.373767 27.281094 17.331125 27.3125 17.314453 C 27.3125 17.314453 27.17341 17.324529 27.140625 17.324219 C 27.173056 17.29966 27.206986 17.256848 27.238281 17.240234 C 27.238281 17.240234 27.097969 17.250302 27.064453 17.25 C 27.097598 17.224758 27.132096 17.181033 27.164062 17.164062 C 27.164062 17.164062 27.024768 17.174141 26.992188 17.173828 C 27.024623 17.149265 27.058544 17.10646 27.089844 17.089844 C 27.089844 17.089844 26.95056 17.099922 26.917969 17.099609 C 26.950407 17.075043 26.984323 17.032242 27.015625 17.015625 C 27.015625 17.015625 26.875115 17.025695 26.841797 17.025391 C 26.874358 17.000707 26.908035 16.958085 26.939453 16.941406 C 26.939453 16.941406 26.800363 16.951482 26.767578 16.951172 C 26.800022 16.926601 26.833927 16.883807 26.865234 16.867188 C 26.865234 16.867188 26.724922 16.877255 26.691406 16.876953 C 26.724564 16.851698 26.759036 16.807992 26.791016 16.791016 C 26.791016 16.791016 26.651722 16.801094 26.619141 16.800781 C 26.65159 16.776205 26.685485 16.733419 26.716797 16.716797 C 26.716797 16.716797 26.577513 16.726875 26.544922 16.726562 C 26.577373 16.701984 26.611263 16.659202 26.642578 16.642578 C 26.642578 16.642578 26.502068 16.652648 26.46875 16.652344 C 26.501204 16.627763 26.535089 16.584985 26.566406 16.568359 C 26.566406 16.568359 26.427317 16.578435 26.394531 16.578125 C 26.426988 16.553541 26.460868 16.510767 26.492188 16.494141 C 26.492188 16.494141 26.351678 16.50421 26.318359 16.503906 C 26.351531 16.478638 26.385977 16.434952 26.417969 16.417969 C 26.417969 16.417969 26.278685 16.428047 26.246094 16.427734 C 26.278556 16.403146 26.312425 16.360379 26.34375 16.34375 C 26.34375 16.34375 26.204467 16.353828 26.171875 16.353516 C 26.20434 16.328925 26.238204 16.286162 26.269531 16.269531 C 26.269531 16.269531 26.129021 16.279601 26.095703 16.279297 C 26.12817 16.254703 26.16203 16.211944 26.193359 16.195312 C 26.193359 16.195312 26.053047 16.20538 26.019531 16.205078 C 26.052609 16.1799 26.087237 16.136077 26.119141 16.119141 C 26.119141 16.119141 25.979847 16.129219 25.947266 16.128906 C 25.979738 16.104308 26.013587 16.061556 26.044922 16.044922 C 26.044922 16.044922 25.905638 16.055 25.873047 16.054688 C 25.905522 16.030086 25.939366 15.987339 25.970703 15.970703 C 25.970703 15.970703 25.830193 15.980773 25.796875 15.980469 C 25.829353 15.955865 25.863192 15.913121 25.894531 15.896484 C 25.894531 15.896484 25.755442 15.90656 25.722656 15.90625 C 25.755137 15.881644 25.788971 15.838904 25.820312 15.822266 C 25.820312 15.822266 25.680001 15.832333 25.646484 15.832031 C 25.679575 15.806841 25.714178 15.763037 25.746094 15.746094 C 25.746094 15.746094 25.6068 15.756172 25.574219 15.755859 C 25.606704 15.731248 25.640528 15.688516 25.671875 15.671875 C 25.671875 15.671875 25.532592 15.681953 25.5 15.681641 C 25.532488 15.657027 25.566307 15.614299 25.597656 15.597656 C 25.597656 15.597656 25.457146 15.607726 25.423828 15.607422 C 25.456319 15.582806 25.490133 15.540081 25.521484 15.523438 C 25.521484 15.523438 25.382395 15.533513 25.349609 15.533203 C 25.382103 15.508585 25.415911 15.465864 25.447266 15.449219 C 25.447266 15.449219 25.306954 15.459286 25.273438 15.458984 C 25.306542 15.433781 25.341118 15.389997 25.373047 15.373047 C 25.373047 15.373047 25.233753 15.383125 25.201172 15.382812 C 25.233671 15.358189 25.267469 15.315476 25.298828 15.298828 C 25.298828 15.298828 25.159545 15.308906 25.126953 15.308594 C 25.159334 15.284083 25.193361 15.241198 25.224609 15.224609 C 25.224609 15.224609 25.0841 15.234679 25.050781 15.234375 C 25.083285 15.209746 25.117073 15.167041 25.148438 15.150391 C 25.148438 15.150391 25.009348 15.160467 24.976562 15.160156 C 25.009069 15.135525 25.042852 15.092823 25.074219 15.076172 C 25.074219 15.076172 24.933907 15.086239 24.900391 15.085938 C 24.933508 15.060721 24.968059 15.016956 25 15 C 25 15 24.860706 15.010078 24.828125 15.009766 C 24.860637 14.98513 24.89441 14.942435 24.925781 14.925781 C 24.925781 14.925781 24.786498 14.935859 24.753906 14.935547 C 24.7863 14.911023 24.820302 14.868158 24.851562 14.851562 C 24.851562 14.851562 24.711053 14.861632 24.677734 14.861328 C 24.710251 14.836687 24.744014 14.794 24.775391 14.777344 C 24.775391 14.777344 24.635079 14.787411 24.601562 14.787109 C 24.634691 14.761883 24.669221 14.718134 24.701172 14.701172 C 24.701172 14.701172 24.561878 14.71125 24.529297 14.710938 C 24.561716 14.68639 24.595668 14.643561 24.626953 14.626953 C 24.626953 14.626953 24.48767 14.637031 24.455078 14.636719 C 24.487381 14.612282 24.521559 14.569284 24.552734 14.552734 C 24.552734 14.552734 24.413451 14.562813 24.380859 14.5625 C 24.413266 14.537964 24.447243 14.495117 24.478516 14.478516 C 24.478516 14.478516 24.338006 14.488585 24.304688 14.488281 C 24.337218 14.463628 24.370955 14.42096 24.402344 14.404297 C 24.402344 14.404297 24.262032 14.414364 24.228516 14.414062 C 24.261658 14.388823 24.296161 14.345093 24.328125 14.328125 C 24.328125 14.328125 24.188831 14.338203 24.15625 14.337891 C 24.188682 14.31333 24.222609 14.270521 24.253906 14.253906 C 24.253906 14.253906 24.114623 14.263984 24.082031 14.263672 C 24.114347 14.239222 24.1485 14.196244 24.179688 14.179688 C 24.179688 14.179688 24.039178 14.189757 24.005859 14.189453 C 24.0384 14.16479 24.072117 14.122137 24.103516 14.105469 C 24.103516 14.105469 23.964426 14.115545 23.931641 14.115234 C 23.964184 14.090568 23.997896 14.04792 24.029297 14.03125 C 24.029297 14.03125 23.888985 14.041317 23.855469 14.041016 C 23.888624 14.015763 23.923102 13.972053 23.955078 13.955078 C 23.955078 13.955078 23.815784 13.965156 23.783203 13.964844 C 23.815529 13.940384 23.849662 13.897421 23.880859 13.880859 C 23.880859 13.880859 23.741576 13.890938 23.708984 13.890625 C 23.741313 13.866163 23.775441 13.823203 23.806641 13.806641 C 23.806641 13.806641 23.666131 13.81671 23.632812 13.816406 C 23.665366 13.79173 23.699058 13.749097 23.730469 13.732422 C 23.730469 13.732422 23.591379 13.742498 23.558594 13.742188 C 23.59115 13.717509 23.624837 13.674879 23.65625 13.658203 C 23.65625 13.658203 23.515938 13.668271 23.482422 13.667969 C 23.51559 13.642704 23.550042 13.599013 23.582031 13.582031 C 23.582031 13.582031 23.442737 13.592109 23.410156 13.591797 C 23.442495 13.567325 23.476603 13.52438 23.507812 13.507812 C 23.507812 13.507812 23.368529 13.517891 23.335938 13.517578 C 23.36828 13.493104 23.402382 13.450163 23.433594 13.433594 C 23.433594 13.433594 23.293084 13.443664 23.259766 13.443359 C 23.292333 13.418671 23.325999 13.376056 23.357422 13.359375 C 23.357422 13.359375 23.218332 13.369451 23.185547 13.369141 C 23.218117 13.344449 23.251777 13.301839 23.283203 13.285156 C 23.283203 13.285156 23.142891 13.295224 23.109375 13.294922 C 23.142434 13.269761 23.177098 13.225912 23.208984 13.208984 C 23.208984 13.208984 23.06969 13.219063 23.037109 13.21875 C 23.069462 13.194266 23.103544 13.15134 23.134766 13.134766 C 23.134766 13.134766 22.995482 13.144844 22.962891 13.144531 C 22.995246 13.120045 23.029323 13.077123 23.060547 13.060547 C 23.060547 13.060547 22.920037 13.070617 22.886719 13.070312 C 22.919299 13.045611 22.952939 13.003016 22.984375 12.986328 C 22.984375 12.986328 22.844063 12.996396 22.810547 12.996094 C 22.84374 12.970806 22.878145 12.92715 22.910156 12.910156 C 22.910156 12.910156 22.770862 12.920234 22.738281 12.919922 C 22.770644 12.895428 22.804706 12.852517 22.835938 12.835938 C 22.835938 12.835938 22.696654 12.846016 22.664062 12.845703 C 22.696428 12.821206 22.730485 12.7783 22.761719 12.761719 C 22.761719 12.761719 22.622435 12.771797 22.589844 12.771484 C 22.622212 12.746985 22.656264 12.704082 22.6875 12.6875 C 22.6875 12.6875 22.54699 12.69757 22.513672 12.697266 C 22.546265 12.672552 22.57988 12.629976 22.611328 12.613281 C 22.611328 12.613281 22.471016 12.623349 22.4375 12.623047 C 22.470584 12.597863 22.5052 12.554049 22.537109 12.537109 C 22.537109 12.537109 22.397815 12.547188 22.365234 12.546875 C 22.39761 12.522369 22.431647 12.479477 22.462891 12.462891 C 22.462891 12.462891 22.323607 12.472969 22.291016 12.472656 C 22.323394 12.448147 22.357426 12.405259 22.388672 12.388672 C 22.388672 12.388672 22.248162 12.398742 22.214844 12.398438 C 22.247344 12.373812 22.281139 12.331101 22.3125 12.314453 C 22.3125 12.314453 22.17341 12.324529 22.140625 12.324219 C 22.173231 12.299493 22.206821 12.256935 22.238281 12.240234 C 22.238281 12.240234 22.097969 12.250302 22.064453 12.25 C 22.097551 12.224803 22.132141 12.181009 22.164062 12.164062 C 22.164062 12.164062 22.024768 12.174141 21.992188 12.173828 C 22.024576 12.149309 22.058588 12.106436 22.089844 12.089844 C 22.089844 12.089844 21.95056 12.099922 21.917969 12.099609 C 21.95036 12.075088 21.984367 12.032219 22.015625 12.015625 C 22.015625 12.015625 21.875115 12.025695 21.841797 12.025391 C 21.87431 12.000753 21.90808 11.958061 21.939453 11.941406 C 21.939453 11.941406 21.800363 11.951482 21.767578 11.951172 C 21.800077 11.926549 21.833875 11.883835 21.865234 11.867188 C 21.865234 11.867188 21.724922 11.877255 21.691406 11.876953 C 21.724517 11.851744 21.759081 11.807968 21.791016 11.791016 C 21.791016 11.791016 21.651722 11.801094 21.619141 11.800781 C 21.651542 11.77625 21.685529 11.733396 21.716797 11.716797 C 21.716797 11.716797 21.577513 11.726875 21.544922 11.726562 C 21.577326 11.702029 21.611307 11.659179 21.642578 11.642578 C 21.642578 11.642578 21.502068 11.652648 21.46875 11.652344 C 21.501276 11.627694 21.535021 11.585021 21.566406 11.568359 C 21.566406 11.568359 21.427317 11.578435 21.394531 11.578125 C 21.426941 11.553586 21.460912 11.510744 21.492188 11.494141 C 21.492188 11.494141 21.351678 11.50421 21.318359 11.503906 C 21.351483 11.478684 21.386022 11.434928 21.417969 11.417969 C 21.417969 11.417969 21.278685 11.428047 21.246094 11.427734 C 21.278508 11.403191 21.31247 11.360356 21.34375 11.34375 C 21.34375 11.34375 21.204467 11.353828 21.171875 11.353516 C 21.204292 11.328969 21.238248 11.286138 21.269531 11.269531 C 21.269531 11.269531 21.129021 11.279601 21.095703 11.279297 C 21.128243 11.254634 21.161962 11.21198 21.193359 11.195312 C 21.193359 11.195312 21.053047 11.20538 21.019531 11.205078 C 21.052562 11.179946 21.087282 11.136053 21.119141 11.119141 C 21.119141 11.119141 20.979847 11.129219 20.947266 11.128906 C 20.979691 11.104353 21.013632 11.061533 21.044922 11.044922 C 21.044922 11.044922 20.905638 11.055 20.873047 11.054688 C 20.905474 11.030131 20.93941 10.987315 20.970703 10.970703 C 20.970703 10.970703 20.830193 10.980773 20.796875 10.980469 C 20.829425 10.955796 20.863124 10.913157 20.894531 10.896484 C 20.894531 10.896484 20.755442 10.90656 20.722656 10.90625 C 20.75509 10.881689 20.789015 10.83888 20.820312 10.822266 C 20.820312 10.822266 20.680001 10.832333 20.646484 10.832031 C 20.679528 10.806886 20.714222 10.763013 20.746094 10.746094 C 20.746094 10.746094 20.6068 10.756172 20.574219 10.755859 C 20.606658 10.731293 20.640573 10.688492 20.671875 10.671875 C 20.671875 10.671875 20.532592 10.681953 20.5 10.681641 C 20.532441 10.657072 20.566351 10.614275 20.597656 10.597656 C 20.597656 10.597656 20.457146 10.607726 20.423828 10.607422 C 20.456391 10.582737 20.490065 10.540117 20.521484 10.523438 C 20.521484 10.523438 20.382395 10.533513 20.349609 10.533203 C 20.382056 10.50863 20.415956 10.46584 20.447266 10.449219 C 20.447266 10.449219 20.306954 10.459286 20.273438 10.458984 C 20.306494 10.433827 20.341163 10.389973 20.373047 10.373047 C 20.373047 10.373047 20.233753 10.383125 20.201172 10.382812 C 20.233624 10.358234 20.267513 10.315452 20.298828 10.298828 C 20.298828 10.298828 20.159545 10.308906 20.126953 10.308594 C 20.159407 10.284013 20.193292 10.241235 20.224609 10.224609 C 20.224609 10.224609 20.0841 10.234679 20.050781 10.234375 C 20.083238 10.209791 20.117118 10.167017 20.148438 10.150391 C 20.148438 10.150391 20.009348 10.160467 19.976562 10.160156 C 20.009022 10.13557 20.042897 10.0928 20.074219 10.076172 C 20.074219 10.076172 19.933907 10.086239 19.900391 10.085938 C 19.933461 10.060767 19.968104 10.016933 20 10 C 20 10 19.860706 10.010078 19.828125 10.009766 C 19.860589 9.9851747 19.894454 9.9424116 19.925781 9.9257812 C 19.925781 9.9257812 19.786498 9.9358594 19.753906 9.9355469 C 19.786373 9.9109539 19.820233 9.8681941 19.851562 9.8515625 C 19.851562 9.8515625 19.711053 9.8616323 19.677734 9.8613281 C 19.710204 9.836732 19.744059 9.7939767 19.775391 9.7773438 C 19.775391 9.7773438 19.635079 9.7874112 19.601562 9.7871094 C 19.634643 9.7619289 19.669266 9.7181098 19.701172 9.7011719 C 19.701172 9.7011719 19.561878 9.7112501 19.529297 9.7109375 C 19.56167 9.6864337 19.595712 9.6435377 19.626953 9.6269531 C 19.626953 9.6269531 19.48767 9.6370313 19.455078 9.6367188 C 19.487555 9.6121155 19.521395 9.5693712 19.552734 9.5527344 C 19.552734 9.5527344 19.413451 9.5628125 19.380859 9.5625 C 19.41322 9.5380086 19.447286 9.4950942 19.478516 9.4785156 C 19.478516 9.4785156 19.338006 9.4885854 19.304688 9.4882812 C 19.33717 9.4636729 19.371 9.4209363 19.402344 9.4042969 C 19.402344 9.4042969 19.262032 9.4143643 19.228516 9.4140625 C 19.26161 9.3888694 19.296206 9.3450695 19.328125 9.328125 C 19.328125 9.328125 19.188831 9.3382032 19.15625 9.3378906 C 19.188636 9.3133746 19.222653 9.2704973 19.253906 9.2539062 C 19.253906 9.2539062 19.114623 9.2639844 19.082031 9.2636719 C 19.114521 9.2390564 19.148336 9.1963308 19.179688 9.1796875 C 19.179688 9.1796875 19.039178 9.1897573 19.005859 9.1894531 C 19.038352 9.1648345 19.072162 9.1221134 19.103516 9.1054688 C 19.103516 9.1054688 18.964426 9.1155447 18.931641 9.1152344 C 18.964136 9.0906138 18.997941 9.0478959 19.029297 9.03125 C 19.029297 9.03125 18.888985 9.0413175 18.855469 9.0410156 C 18.888576 9.01581 18.923147 8.9720293 18.955078 8.9550781 C 18.955078 8.9550781 18.815784 8.9651564 18.783203 8.9648438 C 18.815602 8.9403156 18.849594 8.8974569 18.880859 8.8808594 C 18.880859 8.8808594 18.741576 8.8909375 18.708984 8.890625 C 18.741368 8.8661108 18.775389 8.8232308 18.806641 8.8066406 C 18.806641 8.8066406 18.666131 8.8167104 18.632812 8.8164062 C 18.665318 8.7917757 18.699103 8.749073 18.730469 8.7324219 C 18.730469 8.7324219 18.591379 8.7424978 18.558594 8.7421875 C 18.591102 8.7175545 18.624881 8.6748556 18.65625 8.6582031 C 18.65625 8.6582031 18.515938 8.6682706 18.482422 8.6679688 C 18.515542 8.64275 18.550088 8.598989 18.582031 8.5820312 C 18.582031 8.5820312 18.442737 8.5921095 18.410156 8.5917969 C 18.442568 8.5672565 18.476535 8.5244165 18.507812 8.5078125 C 18.507812 8.5078125 18.368529 8.5178906 18.335938 8.5175781 C 18.368233 8.4931477 18.402425 8.4501401 18.433594 8.4335938 C 18.433594 8.4335938 18.293084 8.4436636 18.259766 8.4433594 C 18.292284 8.4187165 18.326044 8.3760326 18.357422 8.359375 C 18.357422 8.359375 18.218332 8.369451 18.185547 8.3691406 C 18.218069 8.3444953 18.251822 8.3018152 18.283203 8.2851562 C 18.283203 8.2851562 18.142891 8.2952237 18.109375 8.2949219 C 18.142509 8.2696903 18.177028 8.2259488 18.208984 8.2089844 C 18.208984 8.2089844 18.06969 8.2190626 18.037109 8.21875 C 18.069416 8.1943098 18.103587 8.1513171 18.134766 8.1347656 C 18.134766 8.1347656 17.995482 8.1448438 17.962891 8.1445312 C 17.995199 8.1200886 18.029366 8.0770997 18.060547 8.0605469 C 18.060547 8.0605469 17.920037 8.0706167 17.886719 8.0703125 C 17.919251 8.0456572 17.952984 8.0029923 17.984375 7.9863281 C 17.984375 7.9863281 17.844063 7.9963956 17.810547 7.9960938 C 17.843691 7.970852 17.87819 7.9271259 17.910156 7.9101562 C 17.910156 7.9101562 17.770862 7.9202345 17.738281 7.9199219 C 17.770716 7.8953593 17.804638 7.8525531 17.835938 7.8359375 C 17.835938 7.8359375 17.696654 7.8460156 17.664062 7.8457031 C 17.696382 7.8212507 17.730528 7.7782767 17.761719 7.7617188 C 17.761719 7.7617188 17.622435 7.7717969 17.589844 7.7714844 C 17.622165 7.7470294 17.656307 7.7040592 17.6875 7.6875 C 17.6875 7.6875 17.54699 7.6975698 17.513672 7.6972656 C 17.546217 7.6725979 17.579925 7.6299519 17.611328 7.6132812 C 17.611328 7.6132812 17.471016 7.6233487 17.4375 7.6230469 C 17.470657 7.5977924 17.505131 7.5540857 17.537109 7.5371094 C 17.537109 7.5371094 17.397815 7.5471876 17.365234 7.546875 C 17.397564 7.5224127 17.43169 7.4794537 17.462891 7.4628906 C 17.462891 7.4628906 17.323607 7.4729688 17.291016 7.4726562 C 17.323348 7.4481914 17.357469 7.4052363 17.388672 7.3886719 C 17.388672 7.3886719 17.248162 7.3987417 17.214844 7.3984375 C 17.247296 7.3738576 17.281184 7.3310778 17.3125 7.3144531 C 17.3125 7.3144531 17.17341 7.3245291 17.140625 7.3242188 C 17.173183 7.2995386 17.206866 7.2569115 17.238281 7.2402344 C 17.238281 7.2402344 17.097969 7.2503018 17.064453 7.25 C 17.097624 7.2247329 17.132071 7.1810454 17.164062 7.1640625 C 17.164062 7.1640625 17.024768 7.1741407 16.992188 7.1738281 C 17.02453 7.1493535 17.058631 7.1064133 17.089844 7.0898438 C 17.089844 7.0898438 16.95056 7.0999219 16.917969 7.0996094 C 16.950315 7.0751323 16.98441 7.0321959 17.015625 7.015625 C 17.015625 7.015625 16.875115 7.0256948 16.841797 7.0253906 C 16.874263 7.0007984 16.908125 6.9580374 16.939453 6.9414062 C 16.939453 6.9414062 16.800363 6.9514822 16.767578 6.9511719 C 16.800149 6.9264794 16.833807 6.8838711 16.865234 6.8671875 C 16.865234 6.8671875 16.724922 6.877255 16.691406 6.8769531 C 16.724469 6.8517895 16.759126 6.8079448 16.791016 6.7910156 C 16.791016 6.7910156 16.651722 6.8010939 16.619141 6.8007812 C 16.651497 6.7762944 16.685572 6.7333729 16.716797 6.7167969 C 16.716797 6.7167969 16.577513 6.726875 16.544922 6.7265625 C 16.577279 6.7020732 16.611351 6.6591554 16.642578 6.6425781 C 16.642578 6.6425781 16.502068 6.6526479 16.46875 6.6523438 C 16.501229 6.6277392 16.535066 6.584997 16.566406 6.5683594 C 16.566406 6.5683594 16.427317 6.5784353 16.394531 6.578125 C 16.427115 6.5534201 16.460748 6.5108307 16.492188 6.4941406 C 16.492188 6.4941406 16.351678 6.5042104 16.318359 6.5039062 C 16.351436 6.47873 16.386067 6.4349045 16.417969 6.4179688 C 16.417969 6.4179688 16.278685 6.4280469 16.246094 6.4277344 C 16.278463 6.4032352 16.312513 6.3603325 16.34375 6.34375 C 16.34375 6.34375 16.204467 6.3538281 16.171875 6.3535156 C 16.204246 6.3290139 16.238292 6.286115 16.269531 6.2695312 C 16.269531 6.2695312 16.129021 6.2796011 16.095703 6.2792969 C 16.128195 6.2546799 16.162007 6.2119566 16.193359 6.1953125 C 16.193359 6.1953125 16.053047 6.20538 16.019531 6.2050781 C 16.052618 6.1798918 16.087229 6.1360816 16.119141 6.1191406 C 16.119141 6.1191406 15.979847 6.1292189 15.947266 6.1289062 C 15.979645 6.1043973 16.013675 6.0615095 16.044922 6.0449219 C 16.044922 6.0449219 15.905638 6.055 15.873047 6.0546875 C 15.905429 6.030176 15.939454 5.9872921 15.970703 5.9707031 C 15.970703 5.9707031 15.830193 5.9807729 15.796875 5.9804688 C 15.829377 5.9558419 15.863169 5.9131337 15.894531 5.8964844 C 15.894531 5.8964844 15.755442 5.9065603 15.722656 5.90625 C 15.755161 5.8816207 15.788947 5.8389162 15.820312 5.8222656 C 15.820312 5.8222656 15.680001 5.8323331 15.646484 5.8320312 C 15.679481 5.8069315 15.714266 5.7629897 15.746094 5.7460938 C 15.746094 5.7460938 15.6068 5.756172 15.574219 5.7558594 C 15.606611 5.731338 15.640616 5.6884691 15.671875 5.671875 C 15.671875 5.671875 15.532592 5.6819531 15.5 5.6816406 C 15.532394 5.6571169 15.566395 5.6142516 15.597656 5.5976562 C 15.597656 5.5976562 15.457146 5.6077261 15.423828 5.6074219 C 15.456343 5.5827827 15.490109 5.5400933 15.521484 5.5234375 C 15.521484 5.5234375 15.382395 5.5335135 15.349609 5.5332031 C 15.382009 5.5086745 15.416 5.4658167 15.447266 5.4492188 C 15.447266 5.4492188 15.306954 5.4592862 15.273438 5.4589844 C 15.306447 5.433872 15.341207 5.3899494 15.373047 5.3730469 C 15.373047 5.3730469 15.233753 5.3831251 15.201172 5.3828125 C 15.233577 5.3582789 15.267557 5.3154287 15.298828 5.2988281 C 15.298828 5.2988281 15.159545 5.3089063 15.126953 5.3085938 C 15.15936 5.2840577 15.193336 5.2412112 15.224609 5.2246094 C 15.224609 5.2246094 15.0841 5.2346792 15.050781 5.234375 C 15.08331 5.2097235 15.11705 5.1670529 15.148438 5.1503906 C 15.148438 5.1503906 15.009348 5.1604666 14.976562 5.1601562 C 15.008975 5.1356153 15.042941 5.0927763 15.074219 5.0761719 C 15.074219 5.0761719 14.933907 5.0862393 14.900391 5.0859375 C 14.933413 5.0608125 14.968148 5.0169091 15 5 z "
       id="path4303"
       style="fill-opacity:1;fill:url(#linearGradient5171)"
       clip-path="url(#clipPath5176)" />
    <path
       style="fill:none"
       inkscape:connector-curvature="0"
       id="path4"
       d="m 3.9999777,4.0333382 12.0000003,0 0,11.9333328 -12.0000003,0 z" />
    <path
       d="m 18.999978,19.033339 12,0 0,11.933333 -12,0 z"
       id="path9754"
       inkscape:connector-curvature="0"
       style="fill:none" />
    <path
       inkscape:connector-curvature="0"
       d="m 14.999978,5.0006314 c 0,0 -3.82,-0.185 -6.8300003,3.94 -2.31,3.1650006 -3.17,6.0600006 -3.17,6.0600006 l 0.97,-0.5 c 0.72,-1.25 1.095,-1.765 1.8,-2.5 1.265,0.37 2.5850003,0.325 3.7300003,-1 -1,-0.28 -1.8000003,-0.215 -2.9800003,-0.095 1.325,-0.905 2.2300003,-1.1050004 3.4800003,-0.905 l 0.5,-1.0000006 c -0.9,-0.17 -1.5,-0.185 -2.39,0.02 0.985,-0.695 1.67,-1.085 2.89,-1.02 l 0.605,-0.965 c -0.78,-0.055 -1.25,0.03 -2.145,0.25 0.805,-0.73 1.54,-1.06 2.61,-1.125 0,0 0.525,-0.945 0.93,-1.16 z"
       id="path4236"
       style="fill:#fafafa" />
  </g>
</svg>
