<?xml version="1.0" encoding="UTF-8" standalone="no"?>
<!-- Created with Inkscape (http://www.inkscape.org/) -->

<svg
   xmlns:dc="http://purl.org/dc/elements/1.1/"
   xmlns:cc="http://creativecommons.org/ns#"
   xmlns:rdf="http://www.w3.org/1999/02/22-rdf-syntax-ns#"
   xmlns:svg="http://www.w3.org/2000/svg"
   xmlns="http://www.w3.org/2000/svg"
   xmlns:xlink="http://www.w3.org/1999/xlink"
   xmlns:sodipodi="http://sodipodi.sourceforge.net/DTD/sodipodi-0.dtd"
   xmlns:inkscape="http://www.inkscape.org/namespaces/inkscape"
   sodipodi:docname="Flasche.svg"
   inkscape:version="0.91 r13725"
   version="1.1"
   id="svg2"
   viewBox="0 0 20 20"
   height="5.6444445mm"
   width="5.6444445mm">
  <sodipodi:namedview
     inkscape:snap-to-guides="true"
     inkscape:snap-grids="true"
     inkscape:window-maximized="1"
     inkscape:window-y="24"
     inkscape:window-x="0"
     inkscape:window-height="744"
     inkscape:window-width="1366"
     inkscape:guide-bbox="true"
     showguides="true"
     fit-margin-bottom="0"
     fit-margin-right="0"
     fit-margin-left="0"
     fit-margin-top="0"
     showgrid="true"
     inkscape:current-layer="layer2"
     inkscape:document-units="px"
     inkscape:cy="7.6229583"
     inkscape:cx="7.063994"
     inkscape:zoom="15.839192"
     inkscape:pageshadow="2"
     inkscape:pageopacity="0.0"
     borderopacity="1.0"
     bordercolor="#666666"
     pagecolor="#ffffff"
     id="base">
    <inkscape:grid
       type="xygrid"
       id="grid4138" />
    <sodipodi:guide
       position="10,18"
       orientation="0,1"
       id="guide4140" />
    <sodipodi:guide
       position="10,2"
       orientation="0,1"
       id="guide4142" />
    <sodipodi:guide
       position="2,10"
       orientation="1,0"
       id="guide4144" />
    <sodipodi:guide
       position="0,0"
       orientation="0,20"
       id="guide4146" />
    <sodipodi:guide
       position="20,0"
       orientation="-20,0"
       id="guide4148" />
    <sodipodi:guide
       position="20,20"
       orientation="0,-20"
       id="guide4150" />
    <sodipodi:guide
       position="0,20"
       orientation="20,0"
       id="guide4152" />
    <sodipodi:guide
       position="18,10"
       orientation="1,0"
       id="guide4154" />
    <sodipodi:guide
       position="4,10"
       orientation="1,0"
       id="guide4160" />
    <sodipodi:guide
       position="16,10"
       orientation="1,0"
       id="guide4162" />
    <sodipodi:guide
       position="10,16"
       orientation="0,1"
       id="guide4164" />
    <sodipodi:guide
       position="10,4"
       orientation="0,1"
       id="guide4166" />
    <sodipodi:guide
       position="10,15"
       orientation="0,1"
       id="guide4168" />
    <sodipodi:guide
       position="10,5"
       orientation="0,1"
       id="guide4170" />
    <sodipodi:guide
       position="5,10"
       orientation="1,0"
       id="guide4172" />
    <sodipodi:guide
       position="15,10"
       orientation="1,0"
       id="guide4174" />
  </sodipodi:namedview>
  <defs
     id="defs4">
    <linearGradient
       inkscape:collect="always"
       id="linearGradient12483">
      <stop
         style="stop-color:#000000;stop-opacity:0.2"
         offset="0"
         id="stop12485" />
      <stop
         style="stop-color:#000000;stop-opacity:0;"
         offset="1"
         id="stop12487" />
    </linearGradient>
    <clipPath
       id="clipPath12478"
       clipPathUnits="userSpaceOnUse">
      <circle
         r="10"
         cy="10.000005"
         cx="9.9999781"
         id="circle12480"
         style="opacity:1;fill:#2196f3;fill-opacity:1;stroke:none;stroke-width:0.05069799;stroke-miterlimit:4;stroke-dasharray:none;stroke-opacity:1" />
    </clipPath>
    <clipPath
       clipPathUnits="userSpaceOnUse"
       id="clipPath5790">
      <circle
         r="10"
         cy="10.000005"
         cx="9.9999781"
         id="circle5792"
         style="opacity:1;fill:#2196f3;fill-opacity:1;stroke:none;stroke-width:0.05069799;stroke-miterlimit:4;stroke-dasharray:none;stroke-opacity:1"
         inkscape:export-filename="/home/juergen/path4136.png"
         inkscape:export-xdpi="648"
         inkscape:export-ydpi="648" />
    </clipPath>
    <clipPath
       id="clipPath7690"
       clipPathUnits="userSpaceOnUse">
      <circle
         r="10"
         cy="10.000005"
         cx="9.9999781"
         id="circle7692"
         style="opacity:1;fill:#2196f3;fill-opacity:1;stroke:none;stroke-width:0.05069799;stroke-miterlimit:4;stroke-dasharray:none;stroke-opacity:1"
         inkscape:export-filename="/home/juergen/Schreibtisch/path4136.png"
         inkscape:export-xdpi="648"
         inkscape:export-ydpi="648" />
    </clipPath>
    <clipPath
       clipPathUnits="userSpaceOnUse"
       id="clipPath5119">
      <circle
         r="10"
         cy="10.000005"
         cx="9.9999781"
         id="circle5121"
         style="opacity:1;fill:#ff9800;fill-opacity:1;stroke:none;stroke-width:0.05069799;stroke-miterlimit:4;stroke-dasharray:none;stroke-opacity:1"
         inkscape:export-filename="/home/juergen/Schreibtisch/path4136.png"
         inkscape:export-xdpi="648"
         inkscape:export-ydpi="648" />
    </clipPath>
    <clipPath
       id="clipPath5125"
       clipPathUnits="userSpaceOnUse">
      <circle
         r="10"
         cy="10.000005"
         cx="9.9999781"
         id="circle5127"
         style="opacity:1;fill:#e91e63;fill-opacity:1;stroke:none;stroke-width:0.05069799;stroke-miterlimit:4;stroke-dasharray:none;stroke-opacity:1"
         inkscape:export-filename="/home/juergen/Schreibtisch/path4136.png"
         inkscape:export-xdpi="648"
         inkscape:export-ydpi="648" />
    </clipPath>
    <clipPath
       clipPathUnits="userSpaceOnUse"
       id="clipPath6122">
      <circle
         r="10"
         cy="10.000005"
         cx="9.9999781"
         id="circle6124"
         style="opacity:1;fill:#ffc107;fill-opacity:1;stroke:none;stroke-width:0.05069799;stroke-miterlimit:4;stroke-dasharray:none;stroke-opacity:1"
         inkscape:export-filename="/home/juergen/Schreibtisch/path4136.png"
         inkscape:export-xdpi="648"
         inkscape:export-ydpi="648" />
    </clipPath>
    <clipPath
       id="clipPath5142"
       clipPathUnits="userSpaceOnUse">
      <circle
         r="10"
         cy="10.000005"
         cx="9.9999781"
         id="circle5144"
         style="opacity:1;fill:#ffc107;fill-opacity:1;stroke:none;stroke-width:0.05069799;stroke-miterlimit:4;stroke-dasharray:none;stroke-opacity:1"
         inkscape:export-filename="/home/juergen/Schreibtisch/path4136.png"
         inkscape:export-xdpi="648"
         inkscape:export-ydpi="648" />
    </clipPath>
    <clipPath
       clipPathUnits="userSpaceOnUse"
       id="clipPath6137">
      <circle
         r="10"
         cy="10.000005"
         cx="9.9999781"
         id="circle6139"
         style="opacity:1;fill:#ffc107;fill-opacity:1;stroke:none;stroke-width:0.05069799;stroke-miterlimit:4;stroke-dasharray:none;stroke-opacity:1"
         inkscape:export-filename="/home/juergen/Projekte/Android/Android_Studio/Baumann_Theme/theme/src/main/assets/icons/res/drawable-xxhdpi/a159.png"
         inkscape:export-xdpi="648"
         inkscape:export-ydpi="648" />
    </clipPath>
    <clipPath
       clipPathUnits="userSpaceOnUse"
       id="clipPath8232">
      <circle
         r="10"
         cy="10.000005"
         cx="9.9999781"
         id="circle8234"
         style="opacity:1;fill:#3f51b5;fill-opacity:1;stroke:none;stroke-width:0.05069799;stroke-miterlimit:4;stroke-dasharray:none;stroke-opacity:1"
         inkscape:export-filename="/home/juergen/Projekte/Android/Android_Studio/Baumann_Theme/theme/src/main/assets/icons/res/drawable-xxhdpi/a161.png"
         inkscape:export-xdpi="648"
         inkscape:export-ydpi="648" />
    </clipPath>
    <clipPath
       clipPathUnits="userSpaceOnUse"
       id="clipPath8239">
      <circle
         r="10"
         cy="10.000005"
         cx="9.9999781"
         id="circle8241"
         style="opacity:1;fill:#3f51b5;fill-opacity:1;stroke:none;stroke-width:0.05069799;stroke-miterlimit:4;stroke-dasharray:none;stroke-opacity:1"
         inkscape:export-filename="/home/juergen/Projekte/Android/Android_Studio/Baumann_Theme/theme/src/main/assets/icons/res/drawable-xxhdpi/a161.png"
         inkscape:export-xdpi="648"
         inkscape:export-ydpi="648" />
    </clipPath>
    <clipPath
       id="clipPath9250"
       clipPathUnits="userSpaceOnUse">
      <circle
         r="10"
         cy="10.000005"
         cx="9.9999781"
         id="circle9252"
         style="opacity:1;fill:#03a9f4;fill-opacity:1;stroke:none;stroke-width:0.05069799;stroke-miterlimit:4;stroke-dasharray:none;stroke-opacity:1"
         inkscape:export-filename="/home/juergen/Projekte/Android/Android_Studio/Baumann_Theme/theme/src/main/assets/icons/res/drawable-xxhdpi/a162.png"
         inkscape:export-xdpi="648"
         inkscape:export-ydpi="648" />
    </clipPath>
    <clipPath
       id="clipPath9257"
       clipPathUnits="userSpaceOnUse">
      <circle
         r="10"
         cy="10.000005"
         cx="9.9999781"
         id="circle9259"
         style="opacity:1;fill:#03a9f4;fill-opacity:1;stroke:none;stroke-width:0.05069799;stroke-miterlimit:4;stroke-dasharray:none;stroke-opacity:1"
         inkscape:export-filename="/home/juergen/Projekte/Android/Android_Studio/Baumann_Theme/theme/src/main/assets/icons/res/drawable-xxhdpi/a162.png"
         inkscape:export-xdpi="648"
         inkscape:export-ydpi="648" />
    </clipPath>
    <clipPath
       clipPathUnits="userSpaceOnUse"
       id="clipPath10280">
      <circle
         r="10"
         cy="10.000005"
         cx="9.9999781"
         id="circle10282"
         style="opacity:1;fill:#4caf50;fill-opacity:1;stroke:none;stroke-width:0.05069799;stroke-miterlimit:4;stroke-dasharray:none;stroke-opacity:1"
         inkscape:export-filename="/home/juergen/Projekte/Android/Android_Studio/Baumann_Theme/theme/src/main/assets/icons/res/drawable-xxhdpi/a162.png"
         inkscape:export-xdpi="648"
         inkscape:export-ydpi="648" />
    </clipPath>
    <clipPath
       id="clipPath11439"
       clipPathUnits="userSpaceOnUse">
      <circle
         r="10"
         cy="10.000005"
         cx="9.9999781"
         id="circle11441"
         style="opacity:1;fill:#03a9f4;fill-opacity:1;stroke:none;stroke-width:0.05069799;stroke-miterlimit:4;stroke-dasharray:none;stroke-opacity:1"
         inkscape:export-filename="/home/juergen/Projekte/Android/Android_Studio/Baumann_Theme/theme/src/main/assets/icons/res/drawable-xxhdpi/a163.png"
         inkscape:export-xdpi="648"
         inkscape:export-ydpi="648" />
    </clipPath>
    <linearGradient
       inkscape:collect="always"
       xlink:href="#linearGradient12483"
       id="linearGradient12489"
       x1="10"
       y1="10"
       x2="20"
       y2="20"
       gradientUnits="userSpaceOnUse" />
    <clipPath
       clipPathUnits="userSpaceOnUse"
       id="clipPath12494">
      <circle
         r="10"
         cy="10.000005"
         cx="9.9999781"
         id="circle12496"
         style="opacity:1;fill:#f44336;fill-opacity:1;stroke:none;stroke-width:0.05069799;stroke-miterlimit:4;stroke-dasharray:none;stroke-opacity:1"
         inkscape:export-filename="/home/juergen/Projekte/Android/Android_Studio/Baumann_Theme/theme/src/main/assets/icons/res/drawable-xxhdpi/a164.png"
         inkscape:export-xdpi="648"
         inkscape:export-ydpi="648" />
    </clipPath>
  </defs>
  <metadata
     id="metadata7">
    <rdf:RDF>
      <cc:Work
         rdf:about="">
        <dc:format>image/svg+xml</dc:format>
        <dc:type
           rdf:resource="http://purl.org/dc/dcmitype/StillImage" />
        <dc:title></dc:title>
      </cc:Work>
    </rdf:RDF>
  </metadata>
  <g
     inkscape:label="Hintergrund"
     inkscape:groupmode="layer"
     id="layer1"
     transform="translate(1058.1428,-861.93365)">
    <circle
       inkscape:export-ydpi="648"
       inkscape:export-xdpi="648"
       inkscape:export-filename="/home/juergen/Projekte/Android/Android_Studio/Baumann_Theme/theme/src/main/assets/icons/res/drawable-xxhdpi/a161.png"
       style="opacity:1;fill:#3f51b5;fill-opacity:1;stroke:none;stroke-width:0.05069799;stroke-miterlimit:4;stroke-dasharray:none;stroke-opacity:1"
       id="path4136"
       cx="-1048.1428"
       cy="871.93365"
       r="10" />
    <circle
       r="10"
       cy="871.93365"
       cx="-1048.1428"
       id="circle6169"
       style="opacity:1;fill:#3f51b5;fill-opacity:1;stroke:none;stroke-width:0.05069799;stroke-miterlimit:4;stroke-dasharray:none;stroke-opacity:1"
       inkscape:export-filename="/home/juergen/Projekte/Android/Android_Studio/Baumann_Theme/theme/src/main/assets/icons/res/drawable-xxhdpi/a161.png"
       inkscape:export-xdpi="648"
       inkscape:export-ydpi="648" />
    <circle
       inkscape:export-ydpi="648"
       inkscape:export-xdpi="648"
       inkscape:export-filename="/home/juergen/Projekte/Android/Android_Studio/Baumann_Theme/theme/src/main/assets/icons/res/drawable-xxhdpi/a164.png"
       style="opacity:1;fill:#f44336;fill-opacity:1;stroke:none;stroke-width:0.05069799;stroke-miterlimit:4;stroke-dasharray:none;stroke-opacity:1"
       id="circle8216"
       cx="-1048.1428"
       cy="871.93365"
       r="10" />
  </g>
  <g
     style="display:inline"
     inkscape:groupmode="layer"
     id="layer2"
     inkscape:label="Icon">
    <path
       d="M 9 5 C 8.7350425 5 8.4804524 5.1057759 8.2929688 5.2929688 C 8.1056155 5.4803221 8.0002056 5.7350638 8 6 L 8 6.5 C 8 6.6323492 8.0530595 6.7598004 8.1464844 6.8535156 C 8.1593884 6.8664197 8.1773097 6.871495 8.1914062 6.8828125 C 8.202701 6.896925 8.2078209 6.9148123 8.2207031 6.9277344 C 8.2337958 6.9408271 8.2513058 6.9475254 8.265625 6.9589844 C 8.2766247 6.9726355 8.2824305 6.9894234 8.2949219 7.0019531 C 8.3080147 7.015046 8.3255244 7.0217441 8.3398438 7.0332031 C 8.3508436 7.0468544 8.3566491 7.0636421 8.3691406 7.0761719 L 8.3710938 7.078125 C 8.3837122 7.0907435 8.4003022 7.0963199 8.4140625 7.1074219 C 8.4254989 7.1217573 8.4322414 7.1392328 8.4453125 7.1523438 C 8.4582145 7.1652457 8.4761403 7.1703247 8.4902344 7.1816406 C 8.4940945 7.1864574 8.4959525 7.1925822 8.5 7.1972656 L 8.5 7.9042969 L 5.75 12.685547 C 5.5901563 12.920318 5.5001755 13.200332 5.5 13.5 C 5.5 13.89763 5.6584063 14.279282 5.9394531 14.560547 C 5.9520077 14.573102 5.9675223 14.58169 5.9804688 14.59375 C 5.9925182 14.606694 6.0011287 14.622213 6.0136719 14.634766 C 6.0262265 14.64732 6.0417411 14.655908 6.0546875 14.667969 C 6.066737 14.680913 6.0753474 14.696431 6.0878906 14.708984 C 6.1004452 14.721539 6.1159598 14.730127 6.1289062 14.742188 C 6.1410643 14.755257 6.1494483 14.770532 6.1621094 14.783203 L 6.1640625 14.785156 C 6.1766171 14.797711 6.1921317 14.806299 6.2050781 14.818359 C 6.2171277 14.831304 6.2257379 14.846822 6.2382812 14.859375 C 6.2508359 14.87193 6.2663504 14.880518 6.2792969 14.892578 C 6.2913465 14.905522 6.2999566 14.921041 6.3125 14.933594 C 6.3250546 14.946148 6.3405692 14.954736 6.3535156 14.966797 C 6.3655653 14.979741 6.3741753 14.99526 6.3867188 15.007812 C 6.3992734 15.020367 6.4147879 15.028955 6.4277344 15.041016 C 6.4397841 15.05396 6.448394 15.069478 6.4609375 15.082031 L 6.4609375 15.083984 C 6.4735451 15.096592 6.4889505 15.105078 6.5019531 15.117188 C 6.5140517 15.130188 6.5225598 15.145597 6.5351562 15.158203 L 6.5371094 15.158203 C 6.549664 15.170758 6.5651786 15.179346 6.578125 15.191406 C 6.5901749 15.20435 6.5987845 15.219869 6.6113281 15.232422 C 6.6238827 15.244977 6.6393973 15.253565 6.6523438 15.265625 C 6.6643937 15.278569 6.6730032 15.294088 6.6855469 15.306641 C 6.6981015 15.319195 6.7136161 15.327783 6.7265625 15.339844 C 6.7386125 15.352788 6.7472219 15.368306 6.7597656 15.380859 C 6.7723202 15.393414 6.7878348 15.402002 6.8007812 15.414062 C 6.8128313 15.427007 6.8214406 15.442525 6.8339844 15.455078 L 6.8339844 15.457031 C 6.8465919 15.469639 6.8619974 15.478125 6.875 15.490234 C 6.8870988 15.503235 6.8956064 15.518644 6.9082031 15.53125 L 6.9101562 15.53125 C 6.9227109 15.543805 6.9382254 15.552393 6.9511719 15.564453 C 6.963222 15.577397 6.9718311 15.592916 6.984375 15.605469 C 6.9969296 15.618023 7.0124442 15.626611 7.0253906 15.638672 C 7.0374408 15.651616 7.0460498 15.667135 7.0585938 15.679688 C 7.0711484 15.692242 7.0866629 15.70083 7.0996094 15.712891 C 7.1116596 15.725835 7.1202685 15.741353 7.1328125 15.753906 C 7.1453671 15.766461 7.1608817 15.775049 7.1738281 15.787109 C 7.1858784 15.800054 7.1944872 15.815572 7.2070312 15.828125 L 7.2070312 15.830078 C 7.2198806 15.842927 7.2347873 15.852903 7.2480469 15.865234 C 7.2598123 15.877851 7.2690149 15.892053 7.28125 15.904297 L 7.2832031 15.904297 C 7.2957577 15.916851 7.3112723 15.92544 7.3242188 15.9375 C 7.3362692 15.950444 7.3448777 15.965963 7.3574219 15.978516 C 7.3699765 15.99107 7.3854911 15.999658 7.3984375 16.011719 C 7.410488 16.024663 7.4190964 16.040181 7.4316406 16.052734 C 7.4441952 16.065289 7.4597098 16.073877 7.4726562 16.085938 C 7.4847068 16.098882 7.4933151 16.1144 7.5058594 16.126953 C 7.518414 16.139508 7.5339286 16.148096 7.546875 16.160156 C 7.5590341 16.173226 7.5674159 16.188501 7.5800781 16.201172 L 7.5820312 16.203125 C 7.5949475 16.216041 7.6097161 16.225888 7.6230469 16.238281 C 7.6347665 16.250845 7.6440645 16.26515 7.65625 16.277344 C 7.6688046 16.289898 7.6843192 16.298486 7.6972656 16.310547 C 7.7093163 16.323491 7.7179243 16.339009 7.7304688 16.351562 C 7.7430234 16.364117 7.7585379 16.372705 7.7714844 16.384766 C 7.7835351 16.39771 7.7921429 16.413228 7.8046875 16.425781 C 7.8172421 16.438336 7.8327567 16.446924 7.8457031 16.458984 C 7.8577539 16.471929 7.8663616 16.487447 7.8789062 16.5 C 7.8904477 16.511541 7.9041426 16.520126 7.9160156 16.53125 C 7.9293174 16.545649 7.9392157 16.562253 7.953125 16.576172 L 7.9550781 16.576172 C 7.9676327 16.588726 7.9831473 16.597315 7.9960938 16.609375 C 8.0081447 16.622319 8.0167522 16.637838 8.0292969 16.650391 C 8.0418515 16.662945 8.0573661 16.671533 8.0703125 16.683594 C 8.0823635 16.696538 8.0909708 16.712056 8.1035156 16.724609 C 8.1160702 16.737164 8.1315848 16.745752 8.1445312 16.757812 C 8.1565823 16.770757 8.1651895 16.786275 8.1777344 16.798828 C 8.190289 16.811383 8.2058036 16.819971 8.21875 16.832031 C 8.2308011 16.844976 8.2394082 16.860494 8.2519531 16.873047 L 8.2519531 16.875 C 8.2645607 16.887608 8.2799661 16.896094 8.2929688 16.908203 C 8.3050686 16.921204 8.313574 16.936613 8.3261719 16.949219 L 8.328125 16.949219 C 8.3406796 16.961773 8.3561942 16.970361 8.3691406 16.982422 C 8.3811918 16.995366 8.3897987 17.010884 8.4023438 17.023438 C 8.4148984 17.035992 8.4304129 17.04458 8.4433594 17.056641 C 8.4554106 17.069585 8.4640174 17.085103 8.4765625 17.097656 C 8.4891171 17.110211 8.5046317 17.118799 8.5175781 17.130859 C 8.5296294 17.143804 8.5382361 17.159322 8.5507812 17.171875 C 8.5633359 17.18443 8.5788504 17.193018 8.5917969 17.205078 C 8.6038482 17.218023 8.6124548 17.233541 8.625 17.246094 L 8.625 17.248047 C 8.6376076 17.260654 8.653013 17.269141 8.6660156 17.28125 C 8.6781158 17.294251 8.6866206 17.30966 8.6992188 17.322266 L 8.7011719 17.322266 C 8.7137265 17.33482 8.7292411 17.343408 8.7421875 17.355469 C 8.754239 17.368413 8.7628453 17.383931 8.7753906 17.396484 C 8.7879452 17.409039 8.8034598 17.417627 8.8164062 17.429688 C 8.8284578 17.442632 8.837064 17.45815 8.8496094 17.470703 C 8.862164 17.483258 8.8776786 17.491846 8.890625 17.503906 C 8.9026766 17.516851 8.9112827 17.532369 8.9238281 17.544922 C 8.9360235 17.557117 8.9503253 17.566396 8.9628906 17.578125 C 8.9752747 17.591454 8.98514 17.606226 8.9980469 17.619141 L 8.9980469 17.621094 C 9.0125634 17.63561 9.029883 17.646301 9.0449219 17.660156 C 9.0554303 17.671338 9.0633392 17.684426 9.0742188 17.695312 C 9.0867734 17.707867 9.1022879 17.716455 9.1152344 17.728516 C 9.1272861 17.74146 9.1358919 17.756978 9.1484375 17.769531 C 9.1609921 17.782086 9.1765067 17.790674 9.1894531 17.802734 C 9.2015049 17.815679 9.2101106 17.831197 9.2226562 17.84375 C 9.2352109 17.856305 9.2507254 17.864893 9.2636719 17.876953 C 9.2757237 17.889898 9.2843293 17.905415 9.296875 17.917969 C 9.3084164 17.92951 9.3221113 17.938095 9.3339844 17.949219 C 9.3472873 17.963618 9.3571833 17.980222 9.3710938 17.994141 L 9.3730469 17.994141 C 9.3856015 18.006695 9.4011161 18.015283 9.4140625 18.027344 C 9.4261145 18.040288 9.4347198 18.055806 9.4472656 18.068359 C 9.4598202 18.080914 9.4753348 18.089502 9.4882812 18.101562 C 9.5003333 18.114507 9.5089385 18.130025 9.5214844 18.142578 C 9.534039 18.155133 9.5495536 18.163721 9.5625 18.175781 C 9.5745521 18.188726 9.5831572 18.204244 9.5957031 18.216797 C 9.6082577 18.229351 9.6237723 18.23794 9.6367188 18.25 C 9.6487709 18.262945 9.6573759 18.278462 9.6699219 18.291016 L 9.6699219 18.292969 C 9.6825294 18.305576 9.6979349 18.314063 9.7109375 18.326172 C 9.7230384 18.339173 9.7315417 18.354581 9.7441406 18.367188 L 9.7460938 18.367188 C 9.7586484 18.379742 9.774163 18.38833 9.7871094 18.400391 C 9.7991616 18.413335 9.8077664 18.428853 9.8203125 18.441406 C 9.8328671 18.453961 9.8483817 18.462549 9.8613281 18.474609 C 9.8733804 18.487554 9.8819851 18.503072 9.8945312 18.515625 C 9.9070859 18.52818 9.9226004 18.536768 9.9355469 18.548828 C 9.9475992 18.561773 9.9562038 18.57729 9.96875 18.589844 C 9.9813046 18.602398 9.9968192 18.610986 10.009766 18.623047 C 10.021818 18.635992 10.030422 18.651509 10.042969 18.664062 L 10.042969 18.666016 C 10.055576 18.678623 10.070982 18.68711 10.083984 18.699219 C 10.096086 18.71222 10.104588 18.727628 10.117188 18.740234 L 10.119141 18.740234 C 10.131695 18.752789 10.14721 18.761377 10.160156 18.773438 C 10.172209 18.786382 10.180813 18.8019 10.193359 18.814453 C 10.205914 18.827008 10.221429 18.835596 10.234375 18.847656 C 10.246428 18.860601 10.255032 18.876119 10.267578 18.888672 C 10.280133 18.901227 10.295647 18.909815 10.308594 18.921875 C 10.320646 18.93482 10.32925 18.950337 10.341797 18.962891 C 10.354351 18.975445 10.369866 18.984033 10.382812 18.996094 C 10.394865 19.009039 10.403469 19.024556 10.416016 19.037109 L 10.416016 19.039062 C 10.430532 19.053579 10.447852 19.06427 10.462891 19.078125 C 10.4734 19.089306 10.481307 19.102395 10.492188 19.113281 C 10.504742 19.125836 10.520257 19.134424 10.533203 19.146484 C 10.545256 19.159429 10.55386 19.174947 10.566406 19.1875 C 10.578961 19.200055 10.594475 19.208643 10.607422 19.220703 C 10.619475 19.233648 10.628078 19.249165 10.640625 19.261719 C 10.65318 19.274273 10.668694 19.282861 10.681641 19.294922 C 10.693694 19.307867 10.702297 19.323384 10.714844 19.335938 C 10.726385 19.347479 10.74008 19.356064 10.751953 19.367188 C 10.765257 19.381587 10.775151 19.39819 10.789062 19.412109 L 10.791016 19.412109 C 10.803932 19.425026 10.818701 19.434872 10.832031 19.447266 C 10.843753 19.459829 10.853047 19.474134 10.865234 19.486328 C 10.877789 19.498883 10.893304 19.507471 10.90625 19.519531 C 10.918303 19.532476 10.926906 19.547993 10.939453 19.560547 C 10.952008 19.573102 10.967522 19.58169 10.980469 19.59375 C 10.992522 19.606695 11.001125 19.622212 11.013672 19.634766 C 11.026227 19.64732 11.041741 19.655908 11.054688 19.667969 C 11.066741 19.680914 11.075344 19.696431 11.087891 19.708984 C 11.099432 19.720526 11.113127 19.72911 11.125 19.740234 C 11.138304 19.754634 11.148197 19.771237 11.162109 19.785156 L 11.164062 19.785156 C 11.176617 19.797711 11.192132 19.806299 11.205078 19.818359 C 11.217131 19.831304 11.225734 19.846822 11.238281 19.859375 C 11.250836 19.87193 11.26635 19.880518 11.279297 19.892578 C 11.29135 19.905523 11.299953 19.92104 11.3125 19.933594 C 11.325055 19.946148 11.340569 19.954736 11.353516 19.966797 C 11.365569 19.979742 11.374171 19.995259 11.386719 20.007812 C 11.399273 20.020367 11.414788 20.028955 11.427734 20.041016 C 11.439788 20.053961 11.44839 20.069478 11.460938 20.082031 L 11.460938 20.083984 C 11.473545 20.096592 11.488951 20.105078 11.501953 20.117188 C 11.514055 20.130189 11.522556 20.145597 11.535156 20.158203 L 11.537109 20.158203 C 11.549664 20.170758 11.565179 20.179346 11.578125 20.191406 C 11.590179 20.204351 11.598781 20.219868 11.611328 20.232422 C 11.623883 20.244977 11.639397 20.253565 11.652344 20.265625 C 11.664397 20.27857 11.672999 20.294087 11.685547 20.306641 C 11.698102 20.319195 11.713616 20.327783 11.726562 20.339844 C 11.738616 20.352789 11.747218 20.368306 11.759766 20.380859 C 11.77232 20.393414 11.787835 20.402002 11.800781 20.414062 C 11.812835 20.427008 11.821437 20.442525 11.833984 20.455078 L 11.833984 20.457031 C 11.847905 20.470952 11.864505 20.480828 11.878906 20.494141 C 11.890024 20.506012 11.898621 20.51971 11.910156 20.53125 C 11.922711 20.543805 11.938225 20.552393 11.951172 20.564453 C 11.963226 20.577398 11.971827 20.592915 11.984375 20.605469 C 11.99693 20.618023 12.012444 20.626611 12.025391 20.638672 C 12.037445 20.651617 12.046046 20.667134 12.058594 20.679688 C 12.071148 20.692242 12.086663 20.70083 12.099609 20.712891 C 12.111663 20.725836 12.120265 20.741353 12.132812 20.753906 C 12.145367 20.766461 12.160882 20.775049 12.173828 20.787109 C 12.185991 20.80018 12.194365 20.815453 12.207031 20.828125 L 12.207031 20.830078 C 12.221548 20.844595 12.238867 20.855285 12.253906 20.869141 C 12.264417 20.880322 12.272321 20.89341 12.283203 20.904297 C 12.295758 20.916851 12.311272 20.92544 12.324219 20.9375 C 12.336273 20.950445 12.344874 20.965962 12.357422 20.978516 C 12.369977 20.99107 12.385491 20.999658 12.398438 21.011719 C 12.410492 21.024664 12.419093 21.040181 12.431641 21.052734 C 12.444195 21.065289 12.45971 21.073877 12.472656 21.085938 C 12.48471 21.098883 12.493311 21.114399 12.505859 21.126953 C 12.517401 21.138495 12.531096 21.147079 12.542969 21.158203 C 12.556274 21.172603 12.566165 21.189206 12.580078 21.203125 L 12.582031 21.203125 C 12.594948 21.216041 12.609716 21.225888 12.623047 21.238281 C 12.63477 21.250845 12.644061 21.265149 12.65625 21.277344 C 12.668805 21.289898 12.684319 21.298486 12.697266 21.310547 C 12.70932 21.323492 12.71792 21.339009 12.730469 21.351562 C 12.743023 21.364117 12.758538 21.372705 12.771484 21.384766 C 12.783539 21.397711 12.792139 21.413228 12.804688 21.425781 C 12.817242 21.438336 12.832757 21.446924 12.845703 21.458984 C 12.857758 21.47193 12.866358 21.487446 12.878906 21.5 C 12.890448 21.511541 12.904143 21.520126 12.916016 21.53125 C 12.929322 21.54565 12.939211 21.562253 12.953125 21.576172 L 12.955078 21.576172 C 12.967633 21.588726 12.983147 21.597315 12.996094 21.609375 C 13.008148 21.62232 13.016748 21.637837 13.029297 21.650391 C 13.041851 21.662945 13.057366 21.671533 13.070312 21.683594 C 13.082367 21.696539 13.090967 21.712056 13.103516 21.724609 C 13.11607 21.737164 13.131585 21.745752 13.144531 21.757812 C 13.156586 21.770758 13.165186 21.786274 13.177734 21.798828 C 13.190289 21.811383 13.205804 21.819971 13.21875 21.832031 C 13.230805 21.844976 13.239404 21.860493 13.251953 21.873047 L 13.251953 21.875 C 13.265873 21.88892 13.282474 21.898797 13.296875 21.912109 C 13.307994 21.923981 13.316589 21.937678 13.328125 21.949219 C 13.34068 21.961773 13.356194 21.970361 13.369141 21.982422 C 13.381196 21.995367 13.389795 22.010884 13.402344 22.023438 C 13.414898 22.035992 13.430413 22.04458 13.443359 22.056641 C 13.455414 22.069586 13.464014 22.085103 13.476562 22.097656 C 13.489117 22.110211 13.504632 22.118799 13.517578 22.130859 C 13.529633 22.143805 13.538232 22.159321 13.550781 22.171875 C 13.562977 22.18407 13.577278 22.193349 13.589844 22.205078 C 13.602231 22.218408 13.612089 22.233178 13.625 22.246094 L 13.625 22.248047 C 13.63892 22.261967 13.655521 22.271844 13.669922 22.285156 C 13.681041 22.297028 13.689636 22.310725 13.701172 22.322266 C 13.713726 22.33482 13.729241 22.343408 13.742188 22.355469 C 13.754243 22.368414 13.762841 22.383931 13.775391 22.396484 C 13.787945 22.409039 13.80346 22.417627 13.816406 22.429688 C 13.828461 22.442633 13.83706 22.458149 13.849609 22.470703 C 13.862164 22.483258 13.877679 22.491846 13.890625 22.503906 C 13.90268 22.516852 13.911279 22.532368 13.923828 22.544922 C 13.93537 22.556463 13.949064 22.565048 13.960938 22.576172 C 13.974244 22.590572 13.984132 22.607174 13.998047 22.621094 C 14.012563 22.63561 14.029883 22.646301 14.044922 22.660156 C 14.055434 22.671338 14.063336 22.684426 14.074219 22.695312 C 14.086773 22.707867 14.102288 22.716455 14.115234 22.728516 C 14.12729 22.741461 14.135888 22.756977 14.148438 22.769531 C 14.160992 22.782086 14.176507 22.790674 14.189453 22.802734 C 14.201509 22.81568 14.210107 22.831196 14.222656 22.84375 C 14.235211 22.856305 14.250725 22.864893 14.263672 22.876953 C 14.275727 22.889899 14.284325 22.905415 14.296875 22.917969 C 14.308416 22.92951 14.322111 22.938095 14.333984 22.949219 C 14.347291 22.963619 14.357179 22.980221 14.371094 22.994141 L 14.373047 22.994141 C 14.385601 23.006695 14.401116 23.015283 14.414062 23.027344 C 14.426118 23.040289 14.434716 23.055806 14.447266 23.068359 C 14.45982 23.080914 14.475335 23.089502 14.488281 23.101562 C 14.500337 23.114508 14.508935 23.130024 14.521484 23.142578 C 14.534039 23.155133 14.549554 23.163721 14.5625 23.175781 C 14.574556 23.188727 14.583153 23.204243 14.595703 23.216797 C 14.608258 23.229351 14.623772 23.23794 14.636719 23.25 C 14.648775 23.262945 14.657372 23.278462 14.669922 23.291016 L 14.669922 23.292969 C 14.683842 23.306889 14.700443 23.316766 14.714844 23.330078 C 14.725964 23.34195 14.734557 23.355647 14.746094 23.367188 C 14.758648 23.379742 14.774163 23.38833 14.787109 23.400391 C 14.799165 23.413336 14.807763 23.428852 14.820312 23.441406 C 14.832867 23.453961 14.848382 23.462549 14.861328 23.474609 C 14.873384 23.487555 14.881981 23.503071 14.894531 23.515625 C 14.907086 23.52818 14.9226 23.536768 14.935547 23.548828 C 14.947603 23.561774 14.9562 23.57729 14.96875 23.589844 C 14.980945 23.602039 14.995247 23.611318 15.007812 23.623047 C 15.020201 23.636377 15.030057 23.651147 15.042969 23.664062 L 15.042969 23.666016 C 15.056889 23.679936 15.07349 23.689813 15.087891 23.703125 C 15.099011 23.714997 15.107603 23.728694 15.119141 23.740234 C 15.131695 23.752789 15.14721 23.761377 15.160156 23.773438 C 15.172212 23.786383 15.180809 23.801899 15.193359 23.814453 C 15.205914 23.827008 15.221429 23.835596 15.234375 23.847656 C 15.246431 23.860602 15.255028 23.876118 15.267578 23.888672 C 15.280133 23.901227 15.295647 23.909815 15.308594 23.921875 C 15.32065 23.934821 15.329247 23.950337 15.341797 23.962891 C 15.353338 23.974432 15.367033 23.983017 15.378906 23.994141 C 15.392214 24.008541 15.4021 24.025143 15.416016 24.039062 C 15.430532 24.053579 15.447852 24.06427 15.462891 24.078125 C 15.473403 24.089307 15.481304 24.102394 15.492188 24.113281 C 15.504742 24.125836 15.520257 24.134424 15.533203 24.146484 C 15.54526 24.15943 15.553856 24.174946 15.566406 24.1875 C 15.578961 24.200055 15.594475 24.208643 15.607422 24.220703 C 15.619478 24.233649 15.628074 24.249165 15.640625 24.261719 C 15.65318 24.274273 15.668694 24.282861 15.681641 24.294922 C 15.693697 24.307868 15.702293 24.323383 15.714844 24.335938 C 15.726385 24.347479 15.74008 24.356064 15.751953 24.367188 C 15.765261 24.381588 15.775147 24.39819 15.789062 24.412109 L 15.791016 24.412109 C 15.803932 24.425026 15.8187 24.434872 15.832031 24.447266 C 15.843757 24.45983 15.853043 24.474133 15.865234 24.486328 C 15.877789 24.498883 15.893304 24.507471 15.90625 24.519531 C 15.918307 24.532477 15.926902 24.547993 15.939453 24.560547 C 15.952008 24.573102 15.967522 24.58169 15.980469 24.59375 C 15.992526 24.606696 16.001121 24.622212 16.013672 24.634766 C 16.026226 24.64732 16.041741 24.655908 16.054688 24.667969 C 16.066744 24.680914 16.07534 24.69643 16.087891 24.708984 C 16.099432 24.720526 16.113127 24.72911 16.125 24.740234 C 16.138308 24.754635 16.148193 24.771237 16.162109 24.785156 L 16.164062 24.785156 C 16.176617 24.797711 16.192132 24.806299 16.205078 24.818359 C 16.217135 24.831305 16.22573 24.846821 16.238281 24.859375 C 16.250836 24.87193 16.26635 24.880518 16.279297 24.892578 C 16.291354 24.905524 16.299949 24.92104 16.3125 24.933594 C 16.325055 24.946148 16.340569 24.954736 16.353516 24.966797 C 16.365573 24.979743 16.374168 24.995258 16.386719 25.007812 C 16.399273 25.020367 16.414788 25.028955 16.427734 25.041016 C 16.439792 25.053961 16.448386 25.069477 16.460938 25.082031 L 16.460938 25.083984 C 16.474858 25.097905 16.491458 25.107781 16.505859 25.121094 C 16.51698 25.132966 16.525571 25.146662 16.537109 25.158203 C 16.549664 25.170758 16.565179 25.179346 16.578125 25.191406 C 16.590182 25.204352 16.598777 25.219868 16.611328 25.232422 C 16.623883 25.244977 16.639397 25.253565 16.652344 25.265625 C 16.664401 25.278571 16.672995 25.294087 16.685547 25.306641 C 16.698102 25.319195 16.713616 25.327783 16.726562 25.339844 C 16.73862 25.35279 16.747214 25.368305 16.759766 25.380859 C 16.770653 25.391747 16.783739 25.39964 16.794922 25.410156 C 16.808774 25.425194 16.819471 25.442515 16.833984 25.457031 C 16.847905 25.470952 16.864505 25.480828 16.878906 25.494141 C 16.890027 25.506013 16.898618 25.519709 16.910156 25.53125 C 16.922711 25.543805 16.938225 25.552393 16.951172 25.564453 C 16.963229 25.577399 16.971823 25.592915 16.984375 25.605469 C 16.99693 25.618023 17.012444 25.626611 17.025391 25.638672 C 17.037448 25.651618 17.046042 25.667133 17.058594 25.679688 C 17.071148 25.692242 17.086663 25.70083 17.099609 25.712891 C 17.111667 25.725836 17.120261 25.741352 17.132812 25.753906 C 17.144354 25.765448 17.158049 25.774032 17.169922 25.785156 C 17.183231 25.799557 17.193114 25.816158 17.207031 25.830078 C 17.221548 25.844595 17.238867 25.855285 17.253906 25.869141 C 17.26442 25.880323 17.272318 25.89341 17.283203 25.904297 C 17.295758 25.916851 17.311272 25.92544 17.324219 25.9375 C 17.336277 25.950446 17.34487 25.965961 17.357422 25.978516 C 17.369977 25.99107 17.385491 25.999658 17.398438 26.011719 C 17.410495 26.024665 17.419089 26.04018 17.431641 26.052734 C 17.444195 26.065289 17.45971 26.073877 17.472656 26.085938 C 17.484714 26.098883 17.493307 26.114399 17.505859 26.126953 C 17.517401 26.138495 17.531096 26.147079 17.542969 26.158203 C 17.556278 26.172604 17.566161 26.189205 17.580078 26.203125 L 17.582031 26.203125 C 17.594948 26.216041 17.609716 26.225888 17.623047 26.238281 C 17.634774 26.250846 17.644057 26.265149 17.65625 26.277344 C 17.668805 26.289898 17.684319 26.298486 17.697266 26.310547 C 17.709324 26.323493 17.717917 26.339008 17.730469 26.351562 C 17.743023 26.364117 17.758538 26.372705 17.771484 26.384766 C 17.783542 26.397712 17.792135 26.413227 17.804688 26.425781 C 17.817242 26.438336 17.832757 26.446924 17.845703 26.458984 C 17.857761 26.47193 17.866354 26.487446 17.878906 26.5 C 17.891756 26.512849 17.906662 26.522825 17.919922 26.535156 C 17.932251 26.548415 17.942231 26.563323 17.955078 26.576172 C 17.967633 26.588726 17.983147 26.597315 17.996094 26.609375 C 18.008152 26.622321 18.016745 26.637836 18.029297 26.650391 C 18.041852 26.662945 18.057366 26.671533 18.070312 26.683594 C 18.082371 26.69654 18.090963 26.712055 18.103516 26.724609 C 18.11607 26.737164 18.131585 26.745752 18.144531 26.757812 C 18.15659 26.770758 18.165182 26.786274 18.177734 26.798828 C 18.188622 26.809716 18.201708 26.817609 18.212891 26.828125 C 18.226744 26.843163 18.237439 26.860484 18.251953 26.875 C 18.265873 26.88892 18.282474 26.898797 18.296875 26.912109 C 18.307997 26.923982 18.316585 26.937678 18.328125 26.949219 C 18.34068 26.961773 18.356194 26.970361 18.369141 26.982422 C 18.381199 26.995368 18.389791 27.010883 18.402344 27.023438 C 18.414898 27.035992 18.430413 27.04458 18.443359 27.056641 C 18.455418 27.069587 18.46401 27.085102 18.476562 27.097656 C 18.489117 27.110211 18.504632 27.118799 18.517578 27.130859 C 18.529637 27.143805 18.538228 27.159321 18.550781 27.171875 C 18.562323 27.183416 18.576018 27.192001 18.587891 27.203125 C 18.601201 27.217526 18.611082 27.234127 18.625 27.248047 C 18.63892 27.261967 18.655521 27.271844 18.669922 27.285156 C 18.681044 27.297029 18.689632 27.310724 18.701172 27.322266 C 18.713726 27.33482 18.729241 27.343408 18.742188 27.355469 C 18.754246 27.368415 18.762838 27.38393 18.775391 27.396484 C 18.787945 27.409039 18.80346 27.417627 18.816406 27.429688 C 18.828465 27.442634 18.837056 27.458149 18.849609 27.470703 C 18.862164 27.483258 18.877679 27.491846 18.890625 27.503906 C 18.902684 27.516852 18.911275 27.532368 18.923828 27.544922 C 18.93537 27.556463 18.949064 27.565048 18.960938 27.576172 C 18.974248 27.590573 18.984128 27.607174 18.998047 27.621094 C 19.012563 27.63561 19.029883 27.646301 19.044922 27.660156 C 19.055437 27.671339 19.063333 27.684425 19.074219 27.695312 C 19.086773 27.707867 19.102288 27.716455 19.115234 27.728516 C 19.127294 27.741462 19.135884 27.756977 19.148438 27.769531 C 19.160992 27.782086 19.176507 27.790674 19.189453 27.802734 C 19.201512 27.815681 19.210103 27.831196 19.222656 27.84375 C 19.235211 27.856305 19.250725 27.864893 19.263672 27.876953 C 19.275731 27.889899 19.284322 27.905414 19.296875 27.917969 C 19.309724 27.930818 19.324631 27.940793 19.337891 27.953125 C 19.350221 27.966384 19.360199 27.981291 19.373047 27.994141 C 19.385601 28.006695 19.401116 28.015283 19.414062 28.027344 C 19.426122 28.04029 19.434712 28.055805 19.447266 28.068359 C 19.45982 28.080914 19.475335 28.089502 19.488281 28.101562 C 19.500341 28.114509 19.508931 28.130024 19.521484 28.142578 C 19.534039 28.155133 19.549554 28.163721 19.5625 28.175781 C 19.574559 28.188727 19.58315 28.204242 19.595703 28.216797 C 19.607899 28.228992 19.6222 28.238271 19.634766 28.25 C 19.647158 28.263331 19.657007 28.278099 19.669922 28.291016 L 19.669922 28.292969 C 19.683842 28.306889 19.700443 28.316766 19.714844 28.330078 C 19.725967 28.341951 19.734553 28.355646 19.746094 28.367188 C 19.758648 28.379742 19.774163 28.38833 19.787109 28.400391 C 19.799169 28.413337 19.807759 28.428852 19.820312 28.441406 C 19.832867 28.453961 19.848382 28.462549 19.861328 28.474609 C 19.873388 28.487556 19.881977 28.503071 19.894531 28.515625 C 19.907086 28.52818 19.9226 28.536768 19.935547 28.548828 C 19.947607 28.561774 19.956196 28.577289 19.96875 28.589844 C 19.980291 28.601385 19.993986 28.60997 20.005859 28.621094 C 20.019171 28.635495 20.029049 28.652095 20.042969 28.666016 C 20.056889 28.679936 20.07349 28.689813 20.087891 28.703125 C 20.099014 28.714998 20.1076 28.728693 20.119141 28.740234 C 20.131695 28.752789 20.14721 28.761377 20.160156 28.773438 C 20.172216 28.786384 20.180805 28.801899 20.193359 28.814453 C 20.205914 28.827008 20.221429 28.835596 20.234375 28.847656 C 20.246435 28.860603 20.255024 28.876117 20.267578 28.888672 C 20.280133 28.901227 20.295647 28.909815 20.308594 28.921875 C 20.320654 28.934821 20.329243 28.950336 20.341797 28.962891 C 20.353338 28.974432 20.367033 28.983017 20.378906 28.994141 C 20.392218 29.008542 20.402096 29.025142 20.416016 29.039062 C 20.430532 29.053579 20.447852 29.06427 20.462891 29.078125 C 20.473406 29.089308 20.4813 29.102394 20.492188 29.113281 C 20.504742 29.125836 20.520257 29.134424 20.533203 29.146484 C 20.545263 29.159431 20.553852 29.174945 20.566406 29.1875 C 20.578961 29.200055 20.594475 29.208643 20.607422 29.220703 C 20.619482 29.23365 20.628071 29.249164 20.640625 29.261719 C 20.65318 29.274273 20.668694 29.282861 20.681641 29.294922 C 20.693701 29.307868 20.702289 29.323383 20.714844 29.335938 C 20.727693 29.348787 20.7426 29.358762 20.755859 29.371094 C 20.768191 29.384353 20.778166 29.39926 20.791016 29.412109 C 20.803932 29.425026 20.8187 29.434872 20.832031 29.447266 C 20.84376 29.459831 20.853039 29.474133 20.865234 29.486328 C 20.877789 29.498883 20.893304 29.507471 20.90625 29.519531 C 20.91831 29.532478 20.926898 29.547992 20.939453 29.560547 C 21.220757 29.841852 21.602175 30 22 30 L 28 30 C 28.397825 30 28.779243 29.841852 29.060547 29.560547 C 29.341852 29.279243 29.5 28.897825 29.5 28.5 C 29.5 28.2 29.41 27.920547 29.25 27.685547 L 26.5 22.904297 L 26.5 22 C 26.632608 22 26.759746 21.947286 26.853516 21.853516 C 26.947283 21.759748 27 21.632608 27 21.5 L 27 21 C 27 20.734784 26.894567 20.480506 26.707031 20.292969 C 26.694138 20.280076 26.675616 20.27578 26.662109 20.263672 C 26.650001 20.250166 26.645705 20.231643 26.632812 20.21875 C 26.61992 20.205857 26.601397 20.201562 26.587891 20.189453 C 26.575782 20.175947 26.571486 20.157424 26.558594 20.144531 C 26.54544 20.131377 26.527464 20.125618 26.513672 20.113281 C 26.501335 20.099489 26.495575 20.081513 26.482422 20.068359 C 26.469529 20.055467 26.451006 20.051171 26.4375 20.039062 C 26.425392 20.025556 26.421096 20.007033 26.408203 19.994141 C 26.395311 19.981248 26.376787 19.976952 26.363281 19.964844 C 26.351173 19.951338 26.346877 19.932815 26.333984 19.919922 C 26.321092 19.907029 26.302568 19.902733 26.289062 19.890625 C 26.276955 19.877119 26.272658 19.858596 26.259766 19.845703 C 26.246873 19.832811 26.22835 19.828514 26.214844 19.816406 C 26.202736 19.8029 26.198439 19.784377 26.185547 19.771484 C 26.172708 19.758645 26.154073 19.754249 26.140625 19.742188 C 26.127948 19.727968 26.122918 19.708857 26.109375 19.695312 C 26.096483 19.68242 26.077959 19.678124 26.064453 19.666016 C 26.052346 19.65251 26.048048 19.633987 26.035156 19.621094 C 26.022264 19.608201 26.00374 19.603905 25.990234 19.591797 C 25.978127 19.578291 25.973829 19.559768 25.960938 19.546875 C 25.948045 19.533983 25.929521 19.529686 25.916016 19.517578 C 25.903908 19.504072 25.89961 19.485549 25.886719 19.472656 C 25.874217 19.460154 25.856829 19.455124 25.84375 19.443359 C 25.831122 19.429201 25.825987 19.409972 25.8125 19.396484 C 25.799013 19.382997 25.779783 19.377863 25.765625 19.365234 C 25.753861 19.352155 25.748829 19.334768 25.736328 19.322266 C 25.723436 19.309373 25.704912 19.305077 25.691406 19.292969 C 25.679299 19.279463 25.675001 19.26094 25.662109 19.248047 C 25.649217 19.235155 25.630693 19.230858 25.617188 19.21875 C 25.605081 19.205244 25.600782 19.186721 25.587891 19.173828 C 25.574999 19.160936 25.556474 19.156639 25.542969 19.144531 C 25.530862 19.131025 25.526563 19.112502 25.513672 19.099609 C 25.500129 19.086066 25.481016 19.081037 25.466797 19.068359 C 25.454737 19.054912 25.450338 19.036277 25.4375 19.023438 C 25.424608 19.010546 25.406083 19.006248 25.392578 18.994141 C 25.380472 18.980635 25.376172 18.962111 25.363281 18.949219 C 25.350389 18.936327 25.331864 18.932029 25.318359 18.919922 C 25.306253 18.906416 25.301953 18.887893 25.289062 18.875 C 25.276171 18.862108 25.257646 18.857811 25.244141 18.845703 C 25.232034 18.832197 25.227734 18.813674 25.214844 18.800781 C 25.201952 18.78789 25.183427 18.783592 25.169922 18.771484 C 25.157816 18.757979 25.153515 18.739455 25.140625 18.726562 C 25.127472 18.71341 25.109494 18.707649 25.095703 18.695312 C 25.083368 18.681521 25.077604 18.663544 25.064453 18.650391 C 25.051562 18.637499 25.033036 18.633201 25.019531 18.621094 C 25.007425 18.607588 25.003125 18.589064 24.990234 18.576172 C 24.977343 18.56328 24.958817 18.558982 24.945312 18.546875 C 24.933207 18.533369 24.928906 18.514846 24.916016 18.501953 C 24.903124 18.489062 24.884598 18.484763 24.871094 18.472656 C 24.858988 18.459151 24.854687 18.440627 24.841797 18.427734 C 24.828906 18.414843 24.81038 18.410545 24.796875 18.398438 C 24.784769 18.384932 24.780468 18.366408 24.767578 18.353516 C 24.754426 18.340363 24.736446 18.334602 24.722656 18.322266 C 24.710322 18.308474 24.704557 18.290497 24.691406 18.277344 C 24.678515 18.264453 24.659989 18.260154 24.646484 18.248047 C 24.634379 18.234541 24.630077 18.216017 24.617188 18.203125 C 24.604296 18.190234 24.58577 18.185935 24.572266 18.173828 C 24.56016 18.160323 24.555858 18.141799 24.542969 18.128906 C 24.530078 18.116015 24.511551 18.111716 24.498047 18.099609 C 24.485942 18.086104 24.481639 18.06758 24.46875 18.054688 C 24.455859 18.041796 24.437332 18.037498 24.423828 18.025391 C 24.411723 18.011885 24.407421 17.993361 24.394531 17.980469 L 24.394531 17.978516 C 24.381008 17.964993 24.361853 17.959925 24.347656 17.947266 C 24.335895 17.934186 24.330858 17.916799 24.318359 17.904297 C 24.305468 17.891406 24.286942 17.887107 24.273438 17.875 C 24.261333 17.861495 24.25703 17.84297 24.244141 17.830078 C 24.23125 17.817187 24.212723 17.812888 24.199219 17.800781 C 24.187114 17.787276 24.182811 17.768752 24.169922 17.755859 C 24.157031 17.742969 24.138504 17.738669 24.125 17.726562 C 24.112895 17.713057 24.108592 17.694533 24.095703 17.681641 C 24.083203 17.66914 24.065812 17.664107 24.052734 17.652344 C 24.040109 17.638186 24.034968 17.618956 24.021484 17.605469 C 24.007999 17.591983 23.988765 17.586846 23.974609 17.574219 C 23.962848 17.56114 23.957811 17.543752 23.945312 17.53125 C 23.932422 17.518359 23.913894 17.51406 23.900391 17.501953 C 23.888286 17.488448 23.883982 17.469924 23.871094 17.457031 C 23.858203 17.444141 23.839676 17.439841 23.826172 17.427734 C 23.814068 17.414229 23.809763 17.395705 23.796875 17.382812 C 23.783985 17.369922 23.765457 17.365622 23.751953 17.353516 C 23.739849 17.34001 23.735544 17.321486 23.722656 17.308594 C 23.710156 17.296094 23.692765 17.29106 23.679688 17.279297 C 23.667031 17.265099 23.661958 17.245946 23.648438 17.232422 L 23.646484 17.232422 C 23.633594 17.219532 23.615066 17.215231 23.601562 17.203125 C 23.589459 17.18962 23.585154 17.171095 23.572266 17.158203 C 23.559375 17.145313 23.540847 17.141012 23.527344 17.128906 C 23.51524 17.115401 23.510935 17.096877 23.498047 17.083984 C 23.485157 17.071094 23.466628 17.066794 23.453125 17.054688 C 23.441021 17.041182 23.436716 17.022658 23.423828 17.009766 C 23.410938 16.996875 23.39241 16.992575 23.378906 16.980469 C 23.366803 16.966964 23.362497 16.948439 23.349609 16.935547 C 23.336458 16.922396 23.318476 16.916632 23.304688 16.904297 C 23.292355 16.890506 23.286586 16.872528 23.273438 16.859375 C 23.260547 16.846485 23.242019 16.842184 23.228516 16.830078 C 23.216412 16.816573 23.212106 16.798048 23.199219 16.785156 C 23.186329 16.772266 23.1678 16.767965 23.154297 16.755859 C 23.142194 16.742354 23.137887 16.72383 23.125 16.710938 C 23.11211 16.698048 23.093581 16.693747 23.080078 16.681641 C 23.067975 16.668136 23.063668 16.649611 23.050781 16.636719 C 23.037891 16.623829 23.019362 16.619528 23.005859 16.607422 C 22.993756 16.593917 22.98945 16.575392 22.976562 16.5625 C 22.963412 16.549349 22.945429 16.543585 22.931641 16.53125 C 22.919309 16.517459 22.913538 16.499481 22.900391 16.486328 C 22.887501 16.473438 22.868972 16.469137 22.855469 16.457031 C 22.843366 16.443526 22.839059 16.425001 22.826172 16.412109 C 22.813282 16.39922 22.794753 16.394918 22.78125 16.382812 C 22.769147 16.369308 22.76484 16.350783 22.751953 16.337891 C 22.739064 16.325001 22.720534 16.320699 22.707031 16.308594 C 22.694929 16.295089 22.690621 16.276564 22.677734 16.263672 C 22.664845 16.250782 22.646315 16.246481 22.632812 16.234375 C 22.62071 16.22087 22.616402 16.202345 22.603516 16.189453 L 22.603516 16.1875 C 22.589994 16.173978 22.570836 16.168908 22.556641 16.15625 C 22.544881 16.143172 22.53984 16.125783 22.527344 16.113281 C 22.514454 16.100392 22.495924 16.09609 22.482422 16.083984 C 22.47032 16.07048 22.466011 16.051954 22.453125 16.039062 C 22.440236 16.026173 22.421706 16.021871 22.408203 16.009766 C 22.396101 15.996261 22.391792 15.977736 22.378906 15.964844 C 22.366017 15.951954 22.347487 15.947652 22.333984 15.935547 C 22.321882 15.922042 22.317573 15.903517 22.304688 15.890625 C 22.291798 15.877736 22.273268 15.873433 22.259766 15.861328 C 22.247664 15.847823 22.243355 15.829298 22.230469 15.816406 L 22.228516 15.814453 C 22.215626 15.801564 22.197096 15.797261 22.183594 15.785156 C 22.171492 15.771652 22.167183 15.753126 22.154297 15.740234 C 22.141408 15.727345 22.122877 15.723043 22.109375 15.710938 C 22.097273 15.697433 22.092964 15.678907 22.080078 15.666016 C 22.067189 15.653127 22.048658 15.648824 22.035156 15.636719 C 22.023055 15.623214 22.018745 15.604689 22.005859 15.591797 C 21.99297 15.578908 21.97444 15.574605 21.960938 15.5625 C 21.948836 15.548995 21.944526 15.53047 21.931641 15.517578 C 21.919142 15.505079 21.901748 15.500043 21.888672 15.488281 C 21.876018 15.474084 21.870939 15.45493 21.857422 15.441406 L 21.855469 15.441406 C 21.84258 15.428517 21.824049 15.424214 21.810547 15.412109 C 21.798446 15.398605 21.794135 15.380079 21.78125 15.367188 C 21.768361 15.354299 21.74983 15.349996 21.736328 15.337891 C 21.724227 15.324386 21.719916 15.30586 21.707031 15.292969 C 21.694142 15.28008 21.675611 15.275777 21.662109 15.263672 C 21.650008 15.250167 21.645697 15.231642 21.632812 15.21875 C 21.619924 15.205861 21.601392 15.201558 21.587891 15.189453 C 21.57579 15.175949 21.571479 15.157423 21.558594 15.144531 C 21.545054 15.130992 21.525934 15.125955 21.511719 15.113281 C 21.499665 15.099835 21.495253 15.081198 21.482422 15.068359 C 21.469533 15.055471 21.451002 15.051167 21.4375 15.039062 C 21.425399 15.025558 21.421088 15.007032 21.408203 14.994141 C 21.395315 14.981252 21.376783 14.976948 21.363281 14.964844 C 21.351181 14.951339 21.346869 14.932813 21.333984 14.919922 C 21.321096 14.907033 21.302564 14.90273 21.289062 14.890625 C 21.276962 14.877121 21.27265 14.858595 21.259766 14.845703 C 21.246877 14.832815 21.228345 14.828511 21.214844 14.816406 C 21.202743 14.802902 21.198431 14.784376 21.185547 14.771484 C 21.172398 14.758335 21.154412 14.752568 21.140625 14.740234 C 21.128296 14.726444 21.12252 14.708465 21.109375 14.695312 C 21.096487 14.682424 21.077954 14.67812 21.064453 14.666016 C 21.052353 14.652511 21.04804 14.633985 21.035156 14.621094 C 21.022268 14.608206 21.003736 14.603901 20.990234 14.591797 C 20.978134 14.578293 20.973821 14.559767 20.960938 14.546875 C 20.948049 14.533987 20.929517 14.529682 20.916016 14.517578 C 20.903916 14.504074 20.899603 14.485548 20.886719 14.472656 C 20.873831 14.459768 20.855298 14.455464 20.841797 14.443359 C 20.829697 14.429855 20.825384 14.411329 20.8125 14.398438 L 20.8125 14.396484 C 20.799017 14.383001 20.779778 14.377859 20.765625 14.365234 C 20.753868 14.352156 20.748822 14.334767 20.736328 14.322266 C 20.72344 14.309378 20.704907 14.305073 20.691406 14.292969 C 20.679307 14.279465 20.674993 14.260938 20.662109 14.248047 C 20.649221 14.235159 20.630688 14.230854 20.617188 14.21875 C 20.605088 14.205246 20.600774 14.18672 20.587891 14.173828 C 20.575003 14.16094 20.55647 14.156635 20.542969 14.144531 C 20.530869 14.131027 20.526555 14.112501 20.513672 14.099609 C 20.500784 14.086722 20.482251 14.082416 20.46875 14.070312 C 20.456619 14.056769 20.452372 14.038318 20.439453 14.025391 L 20.4375 14.023438 C 20.424612 14.01055 20.406079 14.006245 20.392578 13.994141 C 20.380479 13.980637 20.376164 13.96211 20.363281 13.949219 C 20.350394 13.936331 20.33186 13.932026 20.318359 13.919922 C 20.30626 13.906418 20.301945 13.887891 20.289062 13.875 C 20.276175 13.862112 20.257641 13.857807 20.244141 13.845703 C 20.232042 13.832199 20.227726 13.813673 20.214844 13.800781 C 20.201956 13.787894 20.183422 13.783588 20.169922 13.771484 C 20.157823 13.75798 20.153508 13.739454 20.140625 13.726562 C 20.128128 13.714065 20.11073 13.709026 20.097656 13.697266 C 20.085005 13.683069 20.07992 13.663914 20.066406 13.650391 L 20.064453 13.650391 C 20.051566 13.637503 20.033032 13.633197 20.019531 13.621094 C 20.007433 13.60759 20.003117 13.589063 19.990234 13.576172 C 19.977347 13.563285 19.958813 13.558979 19.945312 13.546875 C 19.933214 13.533371 19.928898 13.514844 19.916016 13.501953 C 19.903128 13.489066 19.884594 13.48476 19.871094 13.472656 C 19.858995 13.459152 19.854679 13.440626 19.841797 13.427734 C 19.82891 13.414847 19.810375 13.410541 19.796875 13.398438 C 19.784777 13.384934 19.78046 13.366407 19.767578 13.353516 C 19.755081 13.341019 19.737683 13.335979 19.724609 13.324219 C 19.711959 13.310022 19.706873 13.290867 19.693359 13.277344 L 19.691406 13.277344 C 19.678519 13.264457 19.659984 13.26015 19.646484 13.248047 C 19.634386 13.234543 19.630069 13.216016 19.617188 13.203125 C 19.604301 13.190238 19.585765 13.185931 19.572266 13.173828 C 19.560168 13.160324 19.55585 13.141797 19.542969 13.128906 C 19.530082 13.116019 19.511547 13.111713 19.498047 13.099609 C 19.485949 13.086106 19.481631 13.067579 19.46875 13.054688 C 19.455863 13.041801 19.437328 13.037494 19.423828 13.025391 C 19.41173 13.011887 19.407413 12.99336 19.394531 12.980469 L 19.394531 12.978516 C 19.380956 12.96494 19.361911 12.959971 19.347656 12.947266 C 19.335902 12.934188 19.330851 12.916798 19.318359 12.904297 C 19.305473 12.89141 19.286937 12.887103 19.273438 12.875 C 19.26134 12.861496 19.257022 12.842969 19.244141 12.830078 C 19.231254 12.817191 19.212718 12.812884 19.199219 12.800781 C 19.187121 12.787278 19.182803 12.76875 19.169922 12.755859 C 19.157035 12.742973 19.138499 12.738666 19.125 12.726562 C 19.112903 12.713059 19.108584 12.694532 19.095703 12.681641 C 19.082817 12.668754 19.064281 12.664447 19.050781 12.652344 C 19.038684 12.63884 19.034365 12.620313 19.021484 12.607422 L 19.021484 12.605469 C 19.008003 12.591987 18.988761 12.586842 18.974609 12.574219 C 18.962855 12.561141 18.957803 12.543751 18.945312 12.53125 C 18.932426 12.518364 18.91389 12.514056 18.900391 12.501953 C 18.888294 12.48845 18.883974 12.469922 18.871094 12.457031 C 18.858207 12.444145 18.839671 12.439837 18.826172 12.427734 C 18.814075 12.414231 18.809755 12.395704 18.796875 12.382812 C 18.783989 12.369926 18.765452 12.365618 18.751953 12.353516 C 18.739856 12.340012 18.735537 12.321485 18.722656 12.308594 C 18.70977 12.295708 18.691233 12.2914 18.677734 12.279297 C 18.665606 12.265754 18.661354 12.247302 18.648438 12.234375 L 18.646484 12.232422 C 18.633598 12.219536 18.615061 12.215228 18.601562 12.203125 C 18.589466 12.189622 18.585146 12.171094 18.572266 12.158203 C 18.55938 12.145317 18.540843 12.141009 18.527344 12.128906 C 18.515247 12.115403 18.510927 12.096875 18.498047 12.083984 C 18.485161 12.071098 18.466624 12.06679 18.453125 12.054688 C 18.441029 12.041184 18.436708 12.022657 18.423828 12.009766 C 18.410942 11.99688 18.392405 11.992571 18.378906 11.980469 C 18.36681 11.966965 18.362489 11.948438 18.349609 11.935547 C 18.336723 11.922661 18.318186 11.918352 18.304688 11.90625 C 18.29256 11.892707 18.288307 11.874255 18.275391 11.861328 L 18.273438 11.859375 C 18.260552 11.846489 18.242014 11.84218 18.228516 11.830078 C 18.21642 11.816575 18.212098 11.798047 18.199219 11.785156 C 18.186333 11.772271 18.167795 11.767962 18.154297 11.755859 C 18.142201 11.742356 18.137879 11.723828 18.125 11.710938 C 18.112114 11.698052 18.093577 11.693743 18.080078 11.681641 C 18.067982 11.668137 18.063661 11.64961 18.050781 11.636719 C 18.037896 11.623833 18.019358 11.619524 18.005859 11.607422 C 17.993764 11.593919 17.989442 11.575391 17.976562 11.5625 C 17.964067 11.550005 17.946666 11.544962 17.933594 11.533203 C 17.920946 11.519007 17.915854 11.499851 17.902344 11.486328 L 17.900391 11.486328 C 17.887505 11.473443 17.868967 11.469133 17.855469 11.457031 C 17.843373 11.443528 17.839051 11.425 17.826172 11.412109 C 17.813286 11.399224 17.794748 11.394915 17.78125 11.382812 C 17.769155 11.369309 17.764832 11.350781 17.751953 11.337891 C 17.739068 11.325005 17.720529 11.320696 17.707031 11.308594 C 17.694936 11.295091 17.690613 11.276563 17.677734 11.263672 C 17.664849 11.250787 17.646311 11.246477 17.632812 11.234375 C 17.620718 11.220872 17.616394 11.202344 17.603516 11.189453 L 17.603516 11.1875 C 17.589942 11.173926 17.570893 11.168954 17.556641 11.15625 C 17.544889 11.143173 17.539832 11.125782 17.527344 11.113281 C 17.514459 11.100396 17.49592 11.096086 17.482422 11.083984 C 17.470327 11.070481 17.466003 11.051953 17.453125 11.039062 C 17.44024 11.026177 17.421701 11.021867 17.408203 11.009766 C 17.396108 10.996263 17.391785 10.977734 17.378906 10.964844 C 17.366021 10.951959 17.347482 10.947649 17.333984 10.935547 C 17.32189 10.922044 17.317566 10.903516 17.304688 10.890625 C 17.291802 10.87774 17.273263 10.87343 17.259766 10.861328 C 17.247671 10.847825 17.243347 10.829297 17.230469 10.816406 L 17.228516 10.814453 C 17.215631 10.801568 17.197091 10.797258 17.183594 10.785156 C 17.171499 10.771653 17.167175 10.753125 17.154297 10.740234 C 17.141412 10.72735 17.122873 10.723039 17.109375 10.710938 C 17.097281 10.697435 17.092956 10.678906 17.080078 10.666016 C 17.067193 10.653131 17.048654 10.64882 17.035156 10.636719 C 17.023062 10.623216 17.018737 10.604687 17.005859 10.591797 C 16.992975 10.578912 16.974435 10.574601 16.960938 10.5625 C 16.948843 10.548997 16.944518 10.530469 16.931641 10.517578 C 16.918756 10.504693 16.900216 10.500383 16.886719 10.488281 C 16.874593 10.474739 16.870336 10.456286 16.857422 10.443359 L 16.855469 10.441406 C 16.842584 10.428522 16.824044 10.424211 16.810547 10.412109 C 16.798453 10.398607 16.794127 10.380078 16.78125 10.367188 C 16.768365 10.354303 16.749825 10.349992 16.736328 10.337891 C 16.724234 10.324388 16.719908 10.305859 16.707031 10.292969 C 16.694147 10.280084 16.675607 10.275773 16.662109 10.263672 C 16.650016 10.250169 16.64569 10.23164 16.632812 10.21875 C 16.619928 10.205866 16.601388 10.201554 16.587891 10.189453 C 16.575797 10.17595 16.571471 10.157422 16.558594 10.144531 C 16.545709 10.131647 16.527169 10.127335 16.513672 10.115234 C 16.501547 10.101692 16.497288 10.083239 16.484375 10.070312 L 16.482422 10.068359 C 16.469538 10.055475 16.450997 10.051163 16.4375 10.039062 C 16.425407 10.02556 16.42108 10.007031 16.408203 9.9941406 C 16.395319 9.9812564 16.376778 9.9769447 16.363281 9.9648438 C 16.351188 9.9513411 16.346861 9.9328123 16.333984 9.9199219 C 16.3211 9.9070377 16.302559 9.9027259 16.289062 9.890625 C 16.276969 9.8771224 16.272642 9.8585935 16.259766 9.8457031 C 16.246881 9.832819 16.228341 9.8285071 16.214844 9.8164062 C 16.202751 9.8029036 16.198423 9.7843747 16.185547 9.7714844 C 16.173053 9.7589904 16.155649 9.7539452 16.142578 9.7421875 C 16.129933 9.7279923 16.124836 9.7088349 16.111328 9.6953125 L 16.109375 9.6953125 C 16.096491 9.6824285 16.07795 9.6781164 16.064453 9.6660156 C 16.05236 9.6525131 16.048032 9.6339841 16.035156 9.6210938 C 16.022272 9.6082098 16.003731 9.6038976 15.990234 9.5917969 C 15.978142 9.5782943 15.973813 9.5597653 15.960938 9.546875 C 15.948054 9.5339911 15.929512 9.5296788 15.916016 9.5175781 C 15.903923 9.5040756 15.899595 9.4855466 15.886719 9.4726562 C 15.873835 9.4597724 15.855293 9.45546 15.841797 9.4433594 C 15.829704 9.4298569 15.825376 9.4113278 15.8125 9.3984375 L 15.8125 9.3964844 C 15.79958 9.3835642 15.781114 9.3793199 15.767578 9.3671875 C 15.755454 9.3536453 15.751193 9.3351923 15.738281 9.3222656 L 15.736328 9.3222656 C 15.723444 9.3093819 15.704903 9.3050692 15.691406 9.2929688 C 15.679314 9.2794663 15.674985 9.2609371 15.662109 9.2480469 C 15.649226 9.2351632 15.630684 9.2308504 15.617188 9.21875 C 15.605095 9.2052476 15.600766 9.1867184 15.587891 9.1738281 C 15.575007 9.1609445 15.556465 9.1566316 15.542969 9.1445312 C 15.530877 9.1310289 15.526547 9.1124996 15.513672 9.0996094 C 15.500788 9.0867259 15.482246 9.0824128 15.46875 9.0703125 C 15.456658 9.0568101 15.452328 9.0382808 15.439453 9.0253906 L 15.4375 9.0234375 C 15.424563 9.0105007 15.406132 9.0062877 15.392578 8.9941406 C 15.380486 8.9806383 15.376156 8.9621089 15.363281 8.9492188 C 15.350398 8.9363353 15.331855 8.9320221 15.318359 8.9199219 C 15.306268 8.9064196 15.301937 8.8878902 15.289062 8.875 C 15.276179 8.8621167 15.257636 8.8578033 15.244141 8.8457031 C 15.232049 8.8322008 15.227719 8.8136714 15.214844 8.8007812 C 15.20196 8.787898 15.183418 8.7835845 15.169922 8.7714844 C 15.15783 8.7579821 15.1535 8.7394526 15.140625 8.7265625 C 15.127742 8.7136793 15.109199 8.7093657 15.095703 8.6972656 C 15.08358 8.6837236 15.079317 8.6652702 15.066406 8.6523438 L 15.064453 8.6503906 C 15.05157 8.6375075 15.033027 8.6331937 15.019531 8.6210938 C 15.00744 8.6075916 15.003109 8.589062 14.990234 8.5761719 C 14.977351 8.5632888 14.958808 8.5589749 14.945312 8.546875 C 14.933221 8.5333728 14.92889 8.5148432 14.916016 8.5019531 C 14.903133 8.4890701 14.884589 8.4847561 14.871094 8.4726562 C 14.859003 8.4591541 14.854671 8.4406244 14.841797 8.4277344 C 14.828914 8.4148514 14.81037 8.4105373 14.796875 8.3984375 C 14.784784 8.3849354 14.780452 8.3664057 14.767578 8.3535156 C 14.754695 8.3406327 14.736152 8.3363185 14.722656 8.3242188 C 14.710534 8.3106769 14.70627 8.2922233 14.693359 8.2792969 L 14.691406 8.2773438 C 14.678523 8.2644609 14.65998 8.2601466 14.646484 8.2480469 C 14.634394 8.2345448 14.630061 8.216015 14.617188 8.203125 C 14.604305 8.1902422 14.585761 8.1859278 14.572266 8.1738281 C 14.560175 8.1603261 14.555843 8.1417962 14.542969 8.1289062 C 14.530086 8.1160235 14.511542 8.111709 14.498047 8.0996094 C 14.485957 8.0861074 14.481624 8.0675775 14.46875 8.0546875 C 14.455867 8.0418048 14.437323 8.0374902 14.423828 8.0253906 C 14.411738 8.0118886 14.407405 7.9933587 14.394531 7.9804688 L 14.394531 7.9785156 C 14.38096 7.9649446 14.361906 7.9599672 14.347656 7.9472656 C 14.336455 7.934863 14.332179 7.9181314 14.320312 7.90625 L 14.318359 7.9042969 C 14.305477 7.8914143 14.286932 7.8870994 14.273438 7.875 C 14.261348 7.8614981 14.257014 7.842968 14.244141 7.8300781 C 14.231258 7.8171957 14.212714 7.8128806 14.199219 7.8007812 C 14.187129 7.7872794 14.182795 7.7687493 14.169922 7.7558594 C 14.157039 7.742977 14.138495 7.7386618 14.125 7.7265625 C 14.11291 7.7130606 14.108576 7.6945305 14.095703 7.6816406 C 14.082821 7.6687583 14.064276 7.664443 14.050781 7.6523438 C 14.038692 7.6388419 14.034357 7.6203117 14.021484 7.6074219 L 14.021484 7.6054688 C 14.008566 7.5925501 13.990097 7.588303 13.976562 7.5761719 C 13.964441 7.5626303 13.960175 7.5441762 13.947266 7.53125 L 13.945312 7.53125 C 13.93243 7.5183678 13.913885 7.5140523 13.900391 7.5019531 C 13.888301 7.4884513 13.883966 7.4699211 13.871094 7.4570312 C 13.858212 7.4441491 13.839666 7.4398335 13.826172 7.4277344 C 13.814083 7.4142326 13.809748 7.3957023 13.796875 7.3828125 C 13.783993 7.3699304 13.765448 7.3656147 13.751953 7.3535156 C 13.739864 7.3400139 13.735529 7.3214835 13.722656 7.3085938 C 13.709774 7.2957117 13.691229 7.2913959 13.677734 7.2792969 C 13.665645 7.2657952 13.66131 7.2472648 13.648438 7.234375 L 13.646484 7.2324219 C 13.633549 7.2194866 13.615115 7.2152707 13.601562 7.203125 C 13.589473 7.1896233 13.585138 7.1710929 13.572266 7.1582031 C 13.559384 7.1453212 13.540838 7.1410051 13.527344 7.1289062 C 13.515255 7.1154046 13.510919 7.0968741 13.498047 7.0839844 C 13.485165 7.0711025 13.466619 7.0667863 13.453125 7.0546875 C 13.441036 7.0411859 13.4367 7.0226553 13.423828 7.0097656 C 13.410946 6.9968839 13.3924 6.9925675 13.378906 6.9804688 C 13.366818 6.9669671 13.362481 6.9484366 13.349609 6.9355469 C 13.336728 6.9226652 13.318182 6.9183487 13.304688 6.90625 C 13.292567 6.8927086 13.288299 6.8742542 13.275391 6.8613281 L 13.273438 6.859375 C 13.260556 6.8464934 13.24201 6.8421768 13.228516 6.8300781 C 13.216427 6.8165766 13.21209 6.7980459 13.199219 6.7851562 C 13.186337 6.7722747 13.167791 6.767958 13.154297 6.7558594 C 13.142209 6.7423578 13.137872 6.7238271 13.125 6.7109375 C 13.112119 6.698056 13.093572 6.6937392 13.080078 6.6816406 C 13.06799 6.6681391 13.063653 6.6496084 13.050781 6.6367188 C 13.0379 6.6238373 13.019353 6.6195204 13.005859 6.6074219 C 12.993771 6.5939204 12.989434 6.5753896 12.976562 6.5625 C 12.963681 6.5496186 12.945134 6.5453016 12.931641 6.5332031 C 12.919521 6.5196619 12.915251 6.5012072 12.902344 6.4882812 L 12.900391 6.4863281 C 12.887509 6.4734468 12.868962 6.4691296 12.855469 6.4570312 C 12.843381 6.4435298 12.839043 6.4249989 12.826172 6.4121094 C 12.813291 6.3992281 12.794744 6.3949108 12.78125 6.3828125 C 12.769162 6.3693111 12.764824 6.3507802 12.751953 6.3378906 C 12.739072 6.3250094 12.720525 6.320692 12.707031 6.3085938 C 12.694944 6.2950924 12.690605 6.2765614 12.677734 6.2636719 C 12.664853 6.2507907 12.646306 6.2464732 12.632812 6.234375 C 12.620725 6.2208737 12.616386 6.2023426 12.603516 6.1894531 L 12.603516 6.1875 C 12.589946 6.1739306 12.570889 6.1689502 12.556641 6.15625 C 12.545442 6.1438479 12.54116 6.1271154 12.529297 6.1152344 L 12.527344 6.1132812 C 12.514463 6.1004002 12.495915 6.0960825 12.482422 6.0839844 C 12.470334 6.0704831 12.465995 6.051952 12.453125 6.0390625 C 12.440244 6.0261815 12.421696 6.0218637 12.408203 6.0097656 C 12.396116 5.9962644 12.391777 5.9777332 12.378906 5.9648438 C 12.366025 5.9519629 12.347478 5.9476449 12.333984 5.9355469 C 12.321897 5.9220456 12.317558 5.9035144 12.304688 5.890625 C 12.291807 5.8777442 12.273259 5.8734261 12.259766 5.8613281 C 12.247679 5.8478269 12.243339 5.8292957 12.230469 5.8164062 L 12.228516 5.8144531 C 12.216593 5.8025302 12.199949 5.798362 12.1875 5.7871094 C 12.174812 5.7728533 12.169808 5.7538126 12.15625 5.7402344 L 12.154297 5.7402344 C 12.141416 5.7273537 12.122868 5.7230353 12.109375 5.7109375 C 12.097288 5.6974363 12.092948 5.678905 12.080078 5.6660156 C 12.067197 5.653135 12.048649 5.6488165 12.035156 5.6367188 C 12.02307 5.6232176 12.018729 5.6046862 12.005859 5.5917969 C 11.992979 5.5789163 11.97443 5.5745977 11.960938 5.5625 C 11.948851 5.5489989 11.94451 5.5304675 11.931641 5.5175781 C 11.91876 5.5046976 11.900212 5.5003789 11.886719 5.4882812 C 11.874632 5.4747802 11.870291 5.4562487 11.857422 5.4433594 L 11.855469 5.4414062 C 11.84358 5.4295171 11.826865 5.4252852 11.814453 5.4140625 C 11.801765 5.3998066 11.79676 5.3807656 11.783203 5.3671875 L 11.78125 5.3671875 C 11.76837 5.3543071 11.749821 5.3499882 11.736328 5.3378906 C 11.724242 5.3243896 11.719901 5.305858 11.707031 5.2929688 C 11.519678 5.1056155 11.264936 5.0002056 11 5 L 9 5 z "
       id="path11600"
       style="fill-opacity:1;fill:url(#linearGradient12489)"
       clip-path="url(#clipPath12494)" />
    <path
       d="m 3.9999777,4.0333382 12.0000003,0 0,11.9333328 -12.0000003,0 z"
       id="path4"
       inkscape:connector-curvature="0"
       style="fill:none" />
    <path
       style="fill:none"
       inkscape:connector-curvature="0"
       id="path9754"
       d="m 18.999978,19.033339 12,0 0,11.933333 -12,0 z" />
    <path
       d="m 22.806408,25.224385 0,3.663765 2.170127,0 q 1.091762,0 1.6142,-0.448761 0.529136,-0.455459 0.529136,-1.38647 0,-0.93771 -0.529136,-1.379773 -0.522438,-0.448761 -1.6142,-0.448761 l -2.170127,0 z m 0,-4.112525 0,3.014066 2.002679,0 q 0.991293,0 1.473543,-0.368386 0.488949,-0.375084 0.488949,-1.138647 0,-0.756865 -0.488949,-1.131949 -0.48225,-0.375084 -1.473543,-0.375084 l -2.002679,0 z m -1.352981,-1.111855 3.456129,0 q 1.54722,0 2.384461,0.643001 0.83724,0.643 0.83724,1.828533 0,0.917615 -0.428667,1.460147 -0.428667,0.542532 -1.259209,0.67649 0.99799,0.214334 1.54722,0.897522 0.555927,0.67649 0.555927,1.694575 0,1.339585 -0.910917,2.069658 -0.910918,0.730074 -2.592097,0.730074 l -3.590087,0 0,-10 z"
       style="font-style:normal;font-weight:normal;font-size:medium;line-height:125%;font-family:sans-serif;letter-spacing:0px;word-spacing:0px;fill:#000000;fill-opacity:1;stroke:none;stroke-width:1px;stroke-linecap:butt;stroke-linejoin:miter;stroke-opacity:1"
       id="path6185"
       inkscape:connector-curvature="0"
       clip-path="url(#clipPath8232)" />
    <path
       clip-path="url(#clipPath9250)"
       inkscape:connector-curvature="0"
       d="m 23.333311,24.76191 a 1.1904762,1.1904762 0 0 0 1.190476,-1.190476 1.1904762,1.1904762 0 0 0 -1.190476,-1.190476 1.1904762,1.1904762 0 0 0 -1.190476,1.190476 1.1904762,1.1904762 0 0 0 1.190476,1.190476 m 0,-4.52381 c 1.838095,0 3.333333,1.490477 3.333333,3.333334 0,2.5 -3.333333,6.190476 -3.333333,6.190476 0,0 -3.333334,-3.690476 -3.333334,-6.190476 A 3.3333333,3.3333333 0 0 1 23.333311,20.2381 m 2.857143,7.142858 3.809524,0 0,0.952381 -3.809524,0 0,-0.952381 z"
       id="path8321" />
    <g
       id="g10391"
       transform="matrix(0.02324943,0,0,0.02324943,4.9999786,5.0000172)" />
    <g
       id="g10393"
       transform="matrix(0.02324943,0,0,0.02324943,4.9999786,5.0000172)" />
    <g
       id="g10395"
       transform="matrix(0.02324943,0,0,0.02324943,4.9999786,5.0000172)" />
    <g
       id="g10397"
       transform="matrix(0.02324943,0,0,0.02324943,4.9999786,5.0000172)" />
    <g
       id="g10399"
       transform="matrix(0.02324943,0,0,0.02324943,4.9999786,5.0000172)" />
    <g
       id="g10401"
       transform="matrix(0.02324943,0,0,0.02324943,4.9999786,5.0000172)" />
    <g
       id="g10403"
       transform="matrix(0.02324943,0,0,0.02324943,4.9999786,5.0000172)" />
    <g
       id="g10405"
       transform="matrix(0.02324943,0,0,0.02324943,4.9999786,5.0000172)" />
    <g
       id="g10407"
       transform="matrix(0.02324943,0,0,0.02324943,4.9999786,5.0000172)" />
    <g
       id="g10409"
       transform="matrix(0.02324943,0,0,0.02324943,4.9999786,5.0000172)" />
    <g
       id="g10411"
       transform="matrix(0.02324943,0,0,0.02324943,4.9999786,5.0000172)" />
    <g
       id="g10413"
       transform="matrix(0.02324943,0,0,0.02324943,4.9999786,5.0000172)" />
    <g
       id="g10415"
       transform="matrix(0.02324943,0,0,0.02324943,4.9999786,5.0000172)" />
    <g
       id="g10417"
       transform="matrix(0.02324943,0,0,0.02324943,4.9999786,5.0000172)" />
    <g
       id="g10419"
       transform="matrix(0.02324943,0,0,0.02324943,4.9999786,5.0000172)" />
    <path
       inkscape:connector-curvature="0"
       d="m 6.9999777,15.000005 a 1.5,1.5 0 0 1 -1.5,-1.5 c 0,-0.3 0.09,-0.58 0.25,-0.815 l 2.7500001,-4.7800002 0,-0.905 a 0.5,0.5 0 0 1 -0.5,-0.5 l 0,-0.5 a 1,1 0 0 1 1,-1 l 2.0000002,0 a 1,1 0 0 1 1,1 l 0,0.5 a 0.5,0.5 0 0 1 -0.5,0.5 l 0,0.905 2.75,4.7800002 c 0.16,0.235 0.25,0.515 0.25,0.815 a 1.5,1.5 0 0 1 -1.5,1.5 l -6.0000003,0 m -0.5,-1.5 a 0.5,0.5 0 0 0 0.5,0.5 l 6.0000003,0 a 0.5,0.5 0 0 0 0.5,-0.5 c 0,-0.105 -0.035,-0.205 -0.09,-0.285 l -1.145,-1.98 -1.265,1.265 L 8.4649778,9.9650048 6.5899777,13.215005 c -0.055,0.08 -0.09,0.18 -0.09,0.285 M 10.499978,9.0000048 a 0.5,0.5 0 0 0 -0.5000002,0.5 0.5,0.5 0 0 0 0.5000002,0.5000002 0.5,0.5 0 0 0 0.5,-0.5000002 0.5,0.5 0 0 0 -0.5,-0.5 z"
       id="path11512"
       style="fill:#fafafa" />
  </g>
</svg>
