<?xml version="1.0" encoding="UTF-8" standalone="no"?>
<!-- Created with Inkscape (http://www.inkscape.org/) -->

<svg
   xmlns:dc="http://purl.org/dc/elements/1.1/"
   xmlns:cc="http://creativecommons.org/ns#"
   xmlns:rdf="http://www.w3.org/1999/02/22-rdf-syntax-ns#"
   xmlns:svg="http://www.w3.org/2000/svg"
   xmlns="http://www.w3.org/2000/svg"
   xmlns:xlink="http://www.w3.org/1999/xlink"
   xmlns:sodipodi="http://sodipodi.sourceforge.net/DTD/sodipodi-0.dtd"
   xmlns:inkscape="http://www.inkscape.org/namespaces/inkscape"
   width="5.6444445mm"
   height="5.6444445mm"
   viewBox="0 0 20 20"
   id="svg2"
   version="1.1"
   inkscape:version="0.91 r13725"
   sodipodi:docname="Flash.svg"
   inkscape:export-filename="/home/juergen/Projekte/Android/Android_Studio/Baumann_Theme/theme/src/main/assets/icons/res/drawable-xxhdpi/a072.png"
   inkscape:export-xdpi="648"
   inkscape:export-ydpi="648">
  <sodipodi:namedview
     id="base"
     pagecolor="#ffffff"
     bordercolor="#666666"
     borderopacity="1.0"
     inkscape:pageopacity="0.0"
     inkscape:pageshadow="2"
     inkscape:zoom="16"
     inkscape:cx="14.892942"
     inkscape:cy="6.8522613"
     inkscape:document-units="px"
     inkscape:current-layer="layer1"
     showgrid="false"
     fit-margin-top="0"
     fit-margin-left="0"
     fit-margin-right="0"
     fit-margin-bottom="0"
     showguides="true"
     inkscape:guide-bbox="true"
     inkscape:window-width="1366"
     inkscape:window-height="744"
     inkscape:window-x="0"
     inkscape:window-y="24"
     inkscape:window-maximized="1"
     inkscape:snap-grids="true"
     inkscape:snap-to-guides="true">
    <inkscape:grid
       id="grid4138"
       type="xygrid" />
    <sodipodi:guide
       id="guide4140"
       orientation="0,1"
       position="10,18" />
    <sodipodi:guide
       id="guide4142"
       orientation="0,1"
       position="10,2" />
    <sodipodi:guide
       id="guide4144"
       orientation="1,0"
       position="2,10" />
    <sodipodi:guide
       id="guide4146"
       orientation="0,20"
       position="0,0" />
    <sodipodi:guide
       id="guide4148"
       orientation="-20,0"
       position="20,0" />
    <sodipodi:guide
       id="guide4150"
       orientation="0,-20"
       position="20,20" />
    <sodipodi:guide
       id="guide4152"
       orientation="20,0"
       position="0,20" />
    <sodipodi:guide
       id="guide4154"
       orientation="1,0"
       position="18,10" />
    <sodipodi:guide
       id="guide4156"
       orientation="-0.70710678,0.70710678"
       position="10,10" />
    <sodipodi:guide
       id="guide4160"
       orientation="1,0"
       position="4,10" />
    <sodipodi:guide
       id="guide4162"
       orientation="1,0"
       position="16,10" />
    <sodipodi:guide
       id="guide4164"
       orientation="0,1"
       position="10,16" />
    <sodipodi:guide
       id="guide4166"
       orientation="0,1"
       position="10,4" />
    <sodipodi:guide
       id="guide4168"
       orientation="0,1"
       position="10,15" />
    <sodipodi:guide
       id="guide4170"
       orientation="0,1"
       position="10,5" />
    <sodipodi:guide
       id="guide4172"
       orientation="1,0"
       position="5,10" />
    <sodipodi:guide
       id="guide4174"
       orientation="1,0"
       position="15,10" />
  </sodipodi:namedview>
  <defs
     id="defs4">
    <linearGradient
       inkscape:collect="always"
       id="linearGradient18084">
      <stop
         style="stop-color:#000000;stop-opacity:0.2"
         offset="0"
         id="stop18086" />
      <stop
         style="stop-color:#000000;stop-opacity:0;"
         offset="1"
         id="stop18088" />
    </linearGradient>
    <clipPath
       clipPathUnits="userSpaceOnUse"
       id="clipPath12478">
      <circle
         style="opacity:1;fill:#2196f3;fill-opacity:1;stroke:none;stroke-width:0.05069799;stroke-miterlimit:4;stroke-dasharray:none;stroke-opacity:1"
         id="circle12480"
         cx="9.9999781"
         cy="10.000005"
         r="10" />
    </clipPath>
    <clipPath
       id="clipPath5790"
       clipPathUnits="userSpaceOnUse">
      <circle
         inkscape:export-ydpi="648"
         inkscape:export-xdpi="648"
         inkscape:export-filename="/home/juergen/path4136.png"
         style="opacity:1;fill:#2196f3;fill-opacity:1;stroke:none;stroke-width:0.05069799;stroke-miterlimit:4;stroke-dasharray:none;stroke-opacity:1"
         id="circle5792"
         cx="9.9999781"
         cy="10.000005"
         r="10" />
    </clipPath>
    <clipPath
       clipPathUnits="userSpaceOnUse"
       id="clipPath5055">
      <circle
         inkscape:export-ydpi="648"
         inkscape:export-xdpi="648"
         inkscape:export-filename="/home/juergen/path4136.png"
         style="opacity:1;fill:#2196f3;fill-opacity:1;stroke:none;stroke-width:0.05069799;stroke-miterlimit:4;stroke-dasharray:none;stroke-opacity:1"
         id="circle5057"
         cx="9.9999781"
         cy="10.000005"
         r="10" />
    </clipPath>
    <clipPath
       id="clipPath5119"
       clipPathUnits="userSpaceOnUse">
      <circle
         inkscape:export-ydpi="648"
         inkscape:export-xdpi="648"
         inkscape:export-filename="/home/juergen/Schreibtisch/path4136.png"
         style="opacity:1;fill:#2196f3;fill-opacity:1;stroke:none;stroke-width:0.05069799;stroke-miterlimit:4;stroke-dasharray:none;stroke-opacity:1"
         id="circle5121"
         cx="9.9999781"
         cy="10.000005"
         r="10" />
    </clipPath>
    <clipPath
       clipPathUnits="userSpaceOnUse"
       id="clipPath5194">
      <circle
         inkscape:export-ydpi="648"
         inkscape:export-xdpi="648"
         inkscape:export-filename="/home/juergen/Schreibtisch/path4136.png"
         style="opacity:1;fill:#cddc39;fill-opacity:1;stroke:none;stroke-width:0.05069799;stroke-miterlimit:4;stroke-dasharray:none;stroke-opacity:1"
         id="circle5196"
         cx="9.9999781"
         cy="10.000005"
         r="10" />
    </clipPath>
    <clipPath
       id="clipPath6175"
       clipPathUnits="userSpaceOnUse">
      <circle
         inkscape:export-ydpi="648"
         inkscape:export-xdpi="648"
         inkscape:export-filename="/home/juergen/Schreibtisch/path4136.png"
         style="opacity:1;fill:#f44336;fill-opacity:1;stroke:none;stroke-width:0.05069799;stroke-miterlimit:4;stroke-dasharray:none;stroke-opacity:1"
         id="circle6177"
         cx="9.9999781"
         cy="10.000005"
         r="10" />
    </clipPath>
    <clipPath
       clipPathUnits="userSpaceOnUse"
       id="clipPath7176">
      <circle
         inkscape:export-ydpi="648"
         inkscape:export-xdpi="648"
         inkscape:export-filename="/home/juergen/Schreibtisch/path4136.png"
         style="opacity:1;fill:#9c27b0;fill-opacity:1;stroke:none;stroke-width:0.05069799;stroke-miterlimit:4;stroke-dasharray:none;stroke-opacity:1"
         id="circle7178"
         cx="9.9999781"
         cy="10.000005"
         r="10" />
    </clipPath>
    <clipPath
       id="clipPath8165"
       clipPathUnits="userSpaceOnUse">
      <circle
         inkscape:export-ydpi="648"
         inkscape:export-xdpi="648"
         inkscape:export-filename="/home/juergen/Schreibtisch/path4136.png"
         style="opacity:1;fill:#ffc107;fill-opacity:1;stroke:none;stroke-width:0.05069799;stroke-miterlimit:4;stroke-dasharray:none;stroke-opacity:1"
         id="circle8167"
         cx="9.9999781"
         cy="10.000005"
         r="10" />
    </clipPath>
    <clipPath
       clipPathUnits="userSpaceOnUse"
       id="clipPath9162">
      <circle
         inkscape:export-ydpi="648"
         inkscape:export-xdpi="648"
         inkscape:export-filename="/home/juergen/Schreibtisch/path4136.png"
         style="opacity:1;fill:#ff9800;fill-opacity:1;stroke:none;stroke-width:0.05069799;stroke-miterlimit:4;stroke-dasharray:none;stroke-opacity:1"
         id="circle9164"
         cx="9.9999781"
         cy="10.000005"
         r="10" />
    </clipPath>
    <clipPath
       id="clipPath10753"
       clipPathUnits="userSpaceOnUse">
      <circle
         inkscape:export-ydpi="648"
         inkscape:export-xdpi="648"
         inkscape:export-filename="/home/juergen/Schreibtisch/path4136.png"
         style="opacity:1;fill:#607d8b;fill-opacity:1;stroke:none;stroke-width:0.05069799;stroke-miterlimit:4;stroke-dasharray:none;stroke-opacity:1"
         id="circle10755"
         cx="9.9999781"
         cy="10.000005"
         r="10" />
    </clipPath>
    <clipPath
       clipPathUnits="userSpaceOnUse"
       id="clipPath5153">
      <circle
         inkscape:export-ydpi="648"
         inkscape:export-xdpi="648"
         inkscape:export-filename="/home/juergen/Schreibtisch/path4136.png"
         style="opacity:1;fill:#2196f3;fill-opacity:1;stroke:none;stroke-width:0.05069799;stroke-miterlimit:4;stroke-dasharray:none;stroke-opacity:1"
         id="circle5155"
         cx="9.9999781"
         cy="10.000005"
         r="10" />
    </clipPath>
    <clipPath
       id="clipPath6158"
       clipPathUnits="userSpaceOnUse">
      <circle
         r="10"
         cy="10.000005"
         cx="9.9999781"
         id="circle6160"
         style="opacity:1;fill:#ff9800;fill-opacity:1;stroke:none;stroke-width:0.05069799;stroke-miterlimit:4;stroke-dasharray:none;stroke-opacity:1"
         inkscape:export-filename="/home/juergen/Schreibtisch/path4136.png"
         inkscape:export-xdpi="648"
         inkscape:export-ydpi="648" />
    </clipPath>
    <clipPath
       clipPathUnits="userSpaceOnUse"
       id="clipPath16067">
      <circle
         inkscape:export-ydpi="648"
         inkscape:export-xdpi="648"
         inkscape:export-filename="/home/juergen/Schreibtisch/path4136.png"
         style="opacity:1;fill:#ff9800;fill-opacity:1;stroke:none;stroke-width:0.05069799;stroke-miterlimit:4;stroke-dasharray:none;stroke-opacity:1"
         id="circle16069"
         cx="9.9999781"
         cy="10.000005"
         r="10" />
    </clipPath>
    <clipPath
       id="clipPath17076"
       clipPathUnits="userSpaceOnUse">
      <circle
         inkscape:export-ydpi="648"
         inkscape:export-xdpi="648"
         inkscape:export-filename="/home/juergen/Schreibtisch/path4136.png"
         style="opacity:1;fill:#ffc107;fill-opacity:1;stroke:none;stroke-width:0.05069799;stroke-miterlimit:4;stroke-dasharray:none;stroke-opacity:1"
         id="circle17078"
         cx="9.9999781"
         cy="10.000005"
         r="10" />
    </clipPath>
    <linearGradient
       inkscape:collect="always"
       xlink:href="#linearGradient18084"
       id="linearGradient18090"
       x1="10"
       y1="10"
       x2="20"
       y2="20"
       gradientUnits="userSpaceOnUse" />
    <clipPath
       clipPathUnits="userSpaceOnUse"
       id="clipPath18107">
      <circle
         inkscape:export-ydpi="648"
         inkscape:export-xdpi="648"
         inkscape:export-filename="/home/juergen/Schreibtisch/path4136.png"
         style="opacity:1;fill:#9c27b0;fill-opacity:1;stroke:none;stroke-width:0.05069799;stroke-miterlimit:4;stroke-dasharray:none;stroke-opacity:1"
         id="circle18109"
         cx="9.9999781"
         cy="10.000005"
         r="10" />
    </clipPath>
  </defs>
  <metadata
     id="metadata7">
    <rdf:RDF>
      <cc:Work
         rdf:about="">
        <dc:format>image/svg+xml</dc:format>
        <dc:type
           rdf:resource="http://purl.org/dc/dcmitype/StillImage" />
        <dc:title />
      </cc:Work>
    </rdf:RDF>
  </metadata>
  <g
     transform="translate(1058.1428,-861.93365)"
     id="layer1"
     inkscape:groupmode="layer"
     inkscape:label="Hintergrund">
    <circle
       r="10"
       cy="871.93365"
       cx="-1048.1428"
       id="path4136"
       style="opacity:1;fill:#90a4ae;fill-opacity:1;stroke:none;stroke-width:0.05069799;stroke-miterlimit:4;stroke-dasharray:none;stroke-opacity:1"
       inkscape:export-filename="/home/juergen/Schreibtisch/path4136.png"
       inkscape:export-xdpi="648"
       inkscape:export-ydpi="648" />
    <path
       inkscape:connector-curvature="0"
       d="m -1050.6428,866.93365 0,5.5 1.5,0 0,4.5 3.5,-6 -2,0 2,-4 z"
       id="path17155" />
  </g>
  <g
     inkscape:label="Icon"
     id="layer2"
     inkscape:groupmode="layer"
     style="display:inline">
    <path
       d="M 7.6484375 5.1484375 L 7.6484375 10.648438 L 7.796875 10.648438 L 7.796875 10.796875 L 7.9453125 10.796875 L 7.9453125 10.945312 L 8.0917969 10.945312 L 8.0917969 11.091797 L 8.2363281 11.091797 L 8.2363281 11.236328 L 8.3828125 11.236328 L 8.3828125 11.382812 L 8.5273438 11.382812 L 8.5273438 11.527344 L 8.6699219 11.527344 L 8.6699219 11.669922 L 8.8125 11.669922 L 8.8125 11.8125 L 8.9550781 11.8125 L 8.9550781 11.955078 L 9.0976562 11.955078 L 9.0976562 12.097656 L 9.1484375 12.097656 L 9.1484375 15.148438 L 9.296875 14.894531 L 9.296875 15.296875 L 9.4453125 15.042969 L 9.4453125 15.445312 L 9.5917969 15.193359 L 9.5917969 15.591797 L 9.7363281 15.34375 L 9.7363281 15.736328 L 9.8828125 15.484375 L 9.8828125 15.882812 L 10.027344 15.634766 L 10.027344 16.027344 L 10.169922 15.783203 L 10.169922 16.169922 L 10.3125 15.925781 L 10.3125 16.3125 L 10.455078 16.068359 L 10.455078 16.455078 L 10.597656 16.210938 L 10.597656 16.597656 L 10.738281 16.357422 L 10.738281 16.738281 L 10.876953 16.5 L 10.876953 16.876953 L 11.017578 16.636719 L 11.017578 17.017578 L 11.15625 16.779297 L 11.15625 17.154297 L 11.292969 16.919922 L 11.292969 17.292969 L 11.429688 17.058594 L 11.429688 17.429688 L 11.566406 17.195312 L 11.566406 17.566406 L 11.701172 17.335938 L 11.701172 17.701172 L 11.835938 17.470703 L 11.835938 17.835938 L 11.970703 17.605469 L 11.970703 17.970703 L 12.103516 17.742188 L 12.103516 18.103516 L 12.236328 17.875 L 12.236328 18.236328 L 12.369141 18.007812 L 12.369141 18.369141 L 12.5 18.144531 L 12.5 18.5 L 12.628906 18.279297 L 12.628906 18.628906 L 12.759766 18.404297 L 12.759766 18.759766 L 12.888672 18.539062 L 12.888672 18.888672 L 13.015625 18.671875 L 13.015625 19.015625 L 13.142578 18.798828 L 13.142578 19.142578 L 13.269531 18.925781 L 13.269531 19.269531 L 13.396484 19.052734 L 13.396484 19.396484 L 13.521484 19.181641 L 13.521484 19.521484 L 13.644531 19.310547 L 13.644531 19.644531 L 13.769531 19.429688 L 13.769531 19.769531 L 13.892578 19.558594 L 13.892578 19.892578 L 14.013672 19.685547 L 14.013672 20.013672 L 14.134766 19.806641 L 14.134766 20.134766 L 14.255859 19.927734 L 14.255859 20.255859 L 14.376953 20.048828 L 14.376953 20.376953 L 14.496094 20.171875 L 14.496094 20.496094 L 14.613281 20.294922 L 14.613281 20.613281 L 14.730469 20.412109 L 14.730469 20.730469 L 14.847656 20.529297 L 14.847656 20.847656 L 14.964844 20.646484 L 14.964844 20.964844 L 15.080078 20.767578 L 15.080078 21.080078 L 15.195312 20.882812 L 15.195312 21.195312 L 15.308594 21.001953 L 15.308594 21.308594 L 15.421875 21.115234 L 15.421875 21.421875 L 15.535156 21.228516 L 15.535156 21.535156 L 15.646484 21.34375 L 15.646484 21.646484 L 15.757812 21.455078 L 15.757812 21.757812 L 15.867188 21.570312 L 15.867188 21.867188 L 15.976562 21.679688 L 15.976562 21.976562 L 16.085938 21.789062 L 16.085938 22.085938 L 16.193359 21.902344 L 16.193359 22.193359 L 16.300781 22.009766 L 16.300781 22.300781 L 16.408203 22.117188 L 16.408203 22.408203 L 16.513672 22.226562 L 16.513672 22.513672 L 16.619141 22.332031 L 16.619141 22.619141 L 16.722656 22.441406 L 16.722656 22.722656 L 16.826172 22.544922 L 16.826172 22.826172 L 16.929688 22.648438 L 16.929688 22.929688 L 17.03125 22.755859 L 17.03125 23.03125 L 17.132812 22.857422 L 17.132812 23.132812 L 17.234375 22.958984 L 17.234375 23.234375 L 17.333984 23.064453 L 17.333984 23.333984 L 17.431641 23.166016 L 17.431641 23.431641 L 17.53125 23.261719 L 17.53125 23.53125 L 17.628906 23.363281 L 17.628906 23.628906 L 17.724609 23.464844 L 17.724609 23.724609 L 17.822266 23.556641 L 17.822266 23.822266 L 17.917969 23.658203 L 17.917969 23.916016 L 18.011719 23.755859 L 18.011719 24.011719 L 18.105469 23.851562 L 18.105469 24.105469 L 18.199219 23.945312 L 18.199219 24.199219 L 18.291016 24.041016 L 18.291016 24.291016 L 18.382812 24.132812 L 18.382812 24.382812 L 18.474609 24.224609 L 18.474609 24.474609 L 18.564453 24.320312 L 18.564453 24.564453 L 18.654297 24.410156 L 18.654297 24.654297 L 18.742188 24.503906 L 18.742188 24.742188 L 18.830078 24.591797 L 18.830078 24.830078 L 18.917969 24.679688 L 18.917969 24.917969 L 19.003906 24.771484 L 19.003906 25.003906 L 19.089844 24.857422 L 19.089844 25.089844 L 19.175781 24.943359 L 19.175781 25.175781 L 19.259766 25.03125 L 19.259766 25.259766 L 19.341797 25.119141 L 19.341797 25.341797 L 19.425781 25.197266 L 19.425781 25.425781 L 19.507812 25.285156 L 19.507812 25.507812 L 19.587891 25.371094 L 19.587891 25.587891 L 19.669922 25.447266 L 19.669922 25.669922 L 19.75 25.533203 L 19.75 25.75 L 19.828125 25.615234 L 19.828125 25.828125 L 19.90625 25.693359 L 19.90625 25.90625 L 19.984375 25.771484 L 19.984375 25.984375 L 20.060547 25.853516 L 20.060547 26.060547 L 20.136719 25.929688 L 20.136719 26.136719 L 20.212891 26.005859 L 20.212891 26.212891 L 20.287109 26.085938 L 20.287109 26.287109 L 20.361328 26.160156 L 20.361328 26.361328 L 20.433594 26.238281 L 20.433594 26.433594 L 20.505859 26.310547 L 20.505859 26.505859 L 20.578125 26.382812 L 20.578125 26.578125 L 20.648438 26.457031 L 20.648438 26.648438 L 20.71875 26.527344 L 20.71875 26.71875 L 20.789062 26.597656 L 20.789062 26.789062 L 20.857422 26.671875 L 20.857422 26.857422 L 20.925781 26.740234 L 20.925781 26.925781 L 20.992188 26.8125 L 20.992188 26.992188 L 21.058594 26.878906 L 21.058594 27.058594 L 21.125 26.945312 L 21.125 27.125 L 21.189453 27.013672 L 21.189453 27.189453 L 21.253906 27.078125 L 21.253906 27.253906 L 21.318359 27.142578 L 21.318359 27.318359 L 21.380859 27.210938 L 21.380859 27.380859 L 21.441406 27.277344 L 21.441406 27.441406 L 21.503906 27.333984 L 21.503906 27.503906 L 21.564453 27.400391 L 21.564453 27.564453 L 21.623047 27.464844 L 21.623047 27.623047 L 21.683594 27.519531 L 21.683594 27.683594 L 21.740234 27.585938 L 21.740234 27.740234 L 21.798828 27.640625 L 21.798828 27.798828 L 21.855469 27.701172 L 21.855469 27.855469 L 21.912109 27.757812 L 21.912109 27.912109 L 21.966797 27.818359 L 21.966797 27.966797 L 22.021484 27.873047 L 22.021484 28.021484 L 22.076172 27.927734 L 22.076172 28.076172 L 22.128906 27.986328 L 22.128906 28.128906 L 22.181641 28.039062 L 22.181641 28.181641 L 22.232422 28.09375 L 22.232422 28.232422 L 22.283203 28.144531 L 22.283203 28.283203 L 22.333984 28.195312 L 22.333984 28.333984 L 22.382812 28.25 L 22.382812 28.382812 L 22.431641 28.298828 L 22.431641 28.431641 L 22.478516 28.351562 L 22.478516 28.478516 L 22.527344 28.394531 L 22.527344 28.527344 L 22.572266 28.451172 L 22.572266 28.572266 L 22.619141 28.492188 L 22.619141 28.619141 L 22.664062 28.542969 L 22.664062 28.664062 L 22.707031 28.589844 L 22.707031 28.707031 L 22.751953 28.630859 L 22.751953 28.751953 L 22.792969 28.681641 L 22.792969 28.792969 L 22.835938 28.71875 L 22.835938 28.835938 L 22.876953 28.765625 L 22.876953 28.876953 L 22.917969 28.806641 L 22.917969 28.917969 L 22.957031 28.851562 L 22.957031 28.957031 L 22.996094 28.890625 L 22.996094 28.996094 L 23.035156 28.929688 L 23.035156 29.035156 L 23.072266 28.970703 L 23.072266 29.072266 L 23.109375 29.007812 L 23.109375 29.109375 L 23.144531 29.048828 L 23.144531 29.144531 L 23.179688 29.083984 L 23.179688 29.179688 L 23.214844 29.119141 L 23.214844 29.214844 L 23.248047 29.158203 L 23.248047 29.248047 L 23.28125 29.191406 L 23.28125 29.28125 L 23.314453 29.224609 L 23.314453 29.314453 L 23.345703 29.261719 L 23.345703 29.345703 L 23.375 29.294922 L 23.375 29.375 L 23.40625 29.322266 L 23.40625 29.40625 L 23.435547 29.355469 L 23.435547 29.435547 L 23.464844 29.384766 L 23.464844 29.464844 L 23.492188 29.417969 L 23.492188 29.492188 L 23.519531 29.445312 L 23.519531 29.519531 L 23.544922 29.476562 L 23.544922 29.544922 L 23.570312 29.501953 L 23.570312 29.570312 L 23.595703 29.527344 L 23.595703 29.595703 L 23.619141 29.554688 L 23.619141 29.619141 L 23.642578 29.578125 L 23.642578 29.642578 L 23.666016 29.601562 L 23.666016 29.666016 L 23.6875 29.628906 L 23.6875 29.6875 L 23.708984 29.650391 L 23.708984 29.708984 L 23.728516 29.675781 L 23.728516 29.728516 L 23.748047 29.695312 L 23.748047 29.748047 L 23.767578 29.714844 L 23.767578 29.767578 L 23.785156 29.738281 L 23.785156 29.787109 L 23.802734 29.757812 L 23.802734 29.802734 L 23.820312 29.773438 L 23.820312 29.820312 L 23.835938 29.792969 L 23.835938 29.835938 L 23.851562 29.808594 L 23.851562 29.851562 L 23.865234 29.828125 L 23.865234 29.865234 L 23.878906 29.841797 L 23.878906 29.878906 L 23.892578 29.855469 L 23.892578 29.892578 L 23.904297 29.873047 L 23.904297 29.904297 L 23.916016 29.884766 L 23.916016 29.916016 L 23.927734 29.896484 L 23.927734 29.927734 L 23.9375 29.910156 L 23.9375 29.9375 L 23.947266 29.919922 L 23.947266 29.947266 L 23.955078 29.933594 L 23.955078 29.955078 L 23.962891 29.941406 L 23.962891 29.962891 L 23.970703 29.949219 L 23.970703 29.970703 L 23.976562 29.960938 L 23.976562 29.976562 L 23.982422 29.966797 L 23.982422 29.982422 L 23.986328 29.976562 L 23.986328 29.986328 L 23.990234 29.980469 L 23.990234 29.990234 L 23.994141 29.984375 L 23.994141 29.994141 L 23.996094 29.990234 L 23.996094 29.996094 L 23.998047 29.992188 L 23.998047 29.998047 L 24 29.994141 L 24 30 L 27.5 24 L 27.496094 24 L 27.498047 23.998047 L 27.494141 23.998047 L 27.496094 23.996094 L 27.492188 23.996094 L 27.494141 23.994141 L 27.488281 23.994141 L 27.490234 23.990234 L 27.484375 23.990234 L 27.486328 23.986328 L 27.480469 23.986328 L 27.482422 23.982422 L 27.472656 23.982422 L 27.476562 23.976562 L 27.466797 23.976562 L 27.470703 23.970703 L 27.458984 23.970703 L 27.462891 23.962891 L 27.451172 23.962891 L 27.455078 23.955078 L 27.443359 23.955078 L 27.447266 23.947266 L 27.431641 23.947266 L 27.4375 23.9375 L 27.421875 23.9375 L 27.427734 23.927734 L 27.410156 23.927734 L 27.416016 23.916016 L 27.398438 23.916016 L 27.404297 23.904297 L 27.386719 23.904297 L 27.392578 23.892578 L 27.371094 23.892578 L 27.378906 23.878906 L 27.357422 23.878906 L 27.365234 23.865234 L 27.34375 23.865234 L 27.351562 23.851562 L 27.326172 23.851562 L 27.335938 23.835938 L 27.310547 23.835938 L 27.320312 23.820312 L 27.292969 23.820312 L 27.302734 23.802734 L 27.275391 23.802734 L 27.285156 23.787109 L 27.255859 23.787109 L 27.267578 23.767578 L 27.236328 23.767578 L 27.248047 23.748047 L 27.216797 23.748047 L 27.228516 23.728516 L 27.197266 23.728516 L 27.208984 23.708984 L 27.175781 23.708984 L 27.1875 23.6875 L 27.154297 23.6875 L 27.166016 23.666016 L 27.128906 23.666016 L 27.142578 23.642578 L 27.105469 23.642578 L 27.119141 23.619141 L 27.082031 23.619141 L 27.095703 23.595703 L 27.054688 23.595703 L 27.070312 23.570312 L 27.029297 23.570312 L 27.044922 23.544922 L 27.003906 23.544922 L 27.019531 23.519531 L 26.976562 23.519531 L 26.992188 23.492188 L 26.949219 23.492188 L 26.964844 23.464844 L 26.917969 23.464844 L 26.935547 23.435547 L 26.888672 23.435547 L 26.90625 23.40625 L 26.857422 23.40625 L 26.875 23.375 L 26.828125 23.375 L 26.845703 23.345703 L 26.796875 23.345703 L 26.814453 23.314453 L 26.761719 23.314453 L 26.78125 23.28125 L 26.728516 23.28125 L 26.748047 23.248047 L 26.695312 23.248047 L 26.714844 23.214844 L 26.660156 23.214844 L 26.679688 23.179688 L 26.625 23.179688 L 26.644531 23.144531 L 26.589844 23.144531 L 26.609375 23.109375 L 26.550781 23.109375 L 26.572266 23.072266 L 26.513672 23.072266 L 26.535156 23.035156 L 26.472656 23.035156 L 26.496094 22.996094 L 26.433594 22.996094 L 26.457031 22.957031 L 26.394531 22.957031 L 26.417969 22.917969 L 26.353516 22.917969 L 26.376953 22.876953 L 26.3125 22.876953 L 26.335938 22.835938 L 26.267578 22.835938 L 26.292969 22.792969 L 26.228516 22.792969 L 26.251953 22.751953 L 26.181641 22.751953 L 26.207031 22.707031 L 26.146484 22.707031 L 27.5 20 L 27.496094 20 L 27.498047 19.998047 L 27.496094 19.998047 L 27.496094 19.996094 L 27.494141 19.996094 L 27.494141 19.994141 L 27.488281 19.994141 L 27.490234 19.990234 L 27.484375 19.990234 L 27.486328 19.986328 L 27.480469 19.986328 L 27.482422 19.982422 L 27.472656 19.982422 L 27.476562 19.976562 L 27.46875 19.976562 L 27.470703 19.970703 L 27.458984 19.970703 L 27.462891 19.962891 L 27.451172 19.962891 L 27.455078 19.955078 L 27.443359 19.955078 L 27.447266 19.947266 L 27.433594 19.947266 L 27.4375 19.9375 L 27.421875 19.9375 L 27.427734 19.927734 L 27.410156 19.927734 L 27.416016 19.916016 L 27.398438 19.916016 L 27.404297 19.904297 L 27.386719 19.904297 L 27.392578 19.892578 L 27.371094 19.892578 L 27.378906 19.878906 L 27.359375 19.878906 L 27.365234 19.865234 L 27.34375 19.865234 L 27.351562 19.851562 L 27.328125 19.851562 L 27.335938 19.835938 L 27.3125 19.835938 L 27.320312 19.820312 L 27.292969 19.820312 L 27.302734 19.802734 L 27.277344 19.802734 L 27.285156 19.787109 L 27.257812 19.787109 L 27.267578 19.767578 L 27.238281 19.767578 L 27.248047 19.748047 L 27.21875 19.748047 L 27.228516 19.728516 L 27.199219 19.728516 L 27.208984 19.708984 L 27.175781 19.708984 L 27.1875 19.6875 L 27.15625 19.6875 L 27.166016 19.666016 L 27.130859 19.666016 L 27.142578 19.642578 L 27.107422 19.642578 L 27.119141 19.619141 L 27.083984 19.619141 L 27.095703 19.595703 L 27.058594 19.595703 L 27.070312 19.570312 L 27.03125 19.570312 L 27.044922 19.544922 L 27.007812 19.544922 L 27.019531 19.519531 L 26.978516 19.519531 L 26.992188 19.492188 L 26.951172 19.492188 L 26.964844 19.464844 L 26.921875 19.464844 L 26.935547 19.435547 L 26.890625 19.435547 L 26.90625 19.40625 L 26.859375 19.40625 L 26.875 19.375 L 26.832031 19.375 L 26.845703 19.345703 L 26.798828 19.345703 L 26.814453 19.314453 L 26.763672 19.314453 L 26.78125 19.28125 L 26.730469 19.28125 L 26.748047 19.248047 L 26.699219 19.248047 L 26.714844 19.214844 L 26.662109 19.214844 L 26.679688 19.179688 L 26.626953 19.179688 L 26.644531 19.144531 L 26.591797 19.144531 L 26.609375 19.109375 L 26.554688 19.109375 L 26.572266 19.072266 L 26.517578 19.072266 L 26.535156 19.035156 L 26.476562 19.035156 L 26.496094 18.996094 L 26.4375 18.996094 L 26.457031 18.957031 L 26.398438 18.957031 L 26.417969 18.917969 L 26.355469 18.917969 L 26.376953 18.876953 L 26.316406 18.876953 L 26.335938 18.835938 L 26.271484 18.835938 L 26.292969 18.792969 L 26.230469 18.792969 L 26.251953 18.751953 L 26.185547 18.751953 L 26.207031 18.707031 L 26.142578 18.707031 L 26.164062 18.664062 L 26.097656 18.664062 L 26.119141 18.619141 L 26.048828 18.619141 L 26.072266 18.572266 L 26.003906 18.572266 L 26.027344 18.527344 L 25.953125 18.527344 L 25.978516 18.478516 L 25.908203 18.478516 L 25.931641 18.431641 L 25.859375 18.431641 L 25.882812 18.382812 L 25.810547 18.382812 L 25.833984 18.333984 L 25.757812 18.333984 L 25.783203 18.283203 L 25.707031 18.283203 L 25.732422 18.232422 L 25.65625 18.232422 L 25.681641 18.181641 L 25.603516 18.181641 L 25.628906 18.128906 L 25.548828 18.128906 L 25.576172 18.076172 L 25.494141 18.076172 L 25.521484 18.021484 L 25.439453 18.021484 L 25.466797 17.966797 L 25.384766 17.966797 L 25.412109 17.912109 L 25.328125 17.912109 L 25.355469 17.855469 L 25.269531 17.855469 L 25.298828 17.798828 L 25.210938 17.798828 L 25.240234 17.740234 L 25.154297 17.740234 L 25.183594 17.683594 L 25.09375 17.683594 L 25.123047 17.623047 L 25.035156 17.623047 L 25.064453 17.564453 L 24.972656 17.564453 L 25.003906 17.503906 L 24.910156 17.503906 L 24.941406 17.441406 L 24.851562 17.441406 L 24.880859 17.380859 L 24.787109 17.380859 L 24.818359 17.318359 L 24.722656 17.318359 L 24.753906 17.253906 L 24.658203 17.253906 L 24.689453 17.189453 L 24.59375 17.189453 L 24.625 17.125 L 24.525391 17.125 L 24.558594 17.058594 L 24.458984 17.058594 L 24.492188 16.992188 L 24.392578 16.992188 L 24.425781 16.925781 L 24.324219 16.925781 L 24.357422 16.857422 L 24.253906 16.857422 L 24.289062 16.789062 L 24.183594 16.789062 L 24.21875 16.71875 L 24.113281 16.71875 L 24.148438 16.648438 L 24.042969 16.648438 L 24.078125 16.578125 L 23.970703 16.578125 L 24.005859 16.505859 L 23.898438 16.505859 L 23.933594 16.433594 L 23.824219 16.433594 L 23.861328 16.361328 L 23.75 16.361328 L 23.787109 16.287109 L 23.675781 16.287109 L 23.712891 16.212891 L 23.597656 16.212891 L 23.636719 16.136719 L 23.521484 16.136719 L 23.560547 16.060547 L 23.445312 16.060547 L 23.484375 15.984375 L 23.367188 15.984375 L 23.40625 15.90625 L 23.289062 15.90625 L 23.328125 15.828125 L 23.210938 15.828125 L 23.25 15.75 L 23.128906 15.75 L 23.169922 15.669922 L 23.046875 15.669922 L 23.087891 15.587891 L 22.96875 15.587891 L 23.007812 15.507812 L 22.884766 15.507812 L 22.925781 15.425781 L 22.800781 15.425781 L 22.841797 15.341797 L 22.71875 15.341797 L 22.759766 15.259766 L 22.632812 15.259766 L 22.675781 15.175781 L 22.546875 15.175781 L 22.589844 15.089844 L 22.460938 15.089844 L 22.503906 15.003906 L 22.375 15.003906 L 22.417969 14.917969 L 22.287109 14.917969 L 22.330078 14.830078 L 22.199219 14.830078 L 22.242188 14.742188 L 22.109375 14.742188 L 22.154297 14.654297 L 22.019531 14.654297 L 22.064453 14.564453 L 21.929688 14.564453 L 21.974609 14.474609 L 21.835938 14.474609 L 21.882812 14.382812 L 21.746094 14.382812 L 21.791016 14.291016 L 21.652344 14.291016 L 21.699219 14.199219 L 21.558594 14.199219 L 21.605469 14.105469 L 21.464844 14.105469 L 21.511719 14.011719 L 21.371094 14.011719 L 21.417969 13.916016 L 21.275391 13.916016 L 21.322266 13.822266 L 21.175781 13.822266 L 21.224609 13.724609 L 21.082031 13.724609 L 21.128906 13.628906 L 20.982422 13.628906 L 21.03125 13.53125 L 20.882812 13.53125 L 20.931641 13.431641 L 20.785156 13.431641 L 20.833984 13.333984 L 20.683594 13.333984 L 20.734375 13.234375 L 20.582031 13.234375 L 20.632812 13.132812 L 20.480469 13.132812 L 20.53125 13.03125 L 20.378906 13.03125 L 20.429688 12.929688 L 20.275391 12.929688 L 20.326172 12.826172 L 20.171875 12.826172 L 20.222656 12.722656 L 20.066406 12.722656 L 20.119141 12.619141 L 19.960938 12.619141 L 20.013672 12.513672 L 19.855469 12.513672 L 19.908203 12.408203 L 19.746094 12.408203 L 19.800781 12.300781 L 19.640625 12.300781 L 19.693359 12.193359 L 19.53125 12.193359 L 19.585938 12.085938 L 19.421875 12.085938 L 19.476562 11.976562 L 19.3125 11.976562 L 19.367188 11.867188 L 19.203125 11.867188 L 19.257812 11.757812 L 19.089844 11.757812 L 19.146484 11.646484 L 18.980469 11.646484 L 19.035156 11.535156 L 18.865234 11.535156 L 18.921875 11.421875 L 18.751953 11.421875 L 18.808594 11.308594 L 18.638672 11.308594 L 18.695312 11.195312 L 18.521484 11.195312 L 18.580078 11.080078 L 18.40625 11.080078 L 18.464844 10.964844 L 18.289062 10.964844 L 18.347656 10.847656 L 18.171875 10.847656 L 18.230469 10.730469 L 18.054688 10.730469 L 18.113281 10.613281 L 17.9375 10.613281 L 17.996094 10.496094 L 17.816406 10.496094 L 17.876953 10.376953 L 17.695312 10.376953 L 17.755859 10.255859 L 17.574219 10.255859 L 17.634766 10.134766 L 17.453125 10.134766 L 17.513672 10.013672 L 17.332031 10.013672 L 17.392578 9.8925781 L 17.207031 9.8925781 L 17.269531 9.7695312 L 17.082031 9.7695312 L 17.144531 9.6445312 L 16.960938 9.6445312 L 17.021484 9.5214844 L 16.833984 9.5214844 L 16.896484 9.3964844 L 16.705078 9.3964844 L 16.769531 9.2695312 L 16.580078 9.2695312 L 16.642578 9.1425781 L 16.451172 9.1425781 L 16.515625 9.015625 L 16.326172 9.015625 L 16.388672 8.8886719 L 16.195312 8.8886719 L 16.259766 8.7597656 L 16.0625 8.7597656 L 16.128906 8.6289062 L 15.935547 8.6289062 L 16 8.5 L 15.804688 8.5 L 15.869141 8.3691406 L 15.669922 8.3691406 L 15.736328 8.2363281 L 15.537109 8.2363281 L 15.603516 8.1035156 L 15.404297 8.1035156 L 15.470703 7.9707031 L 15.269531 7.9707031 L 15.335938 7.8359375 L 15.132812 7.8359375 L 15.201172 7.7011719 L 15 7.7011719 L 15.066406 7.5664062 L 14.861328 7.5664062 L 14.929688 7.4296875 L 14.724609 7.4296875 L 14.792969 7.2929688 L 14.587891 7.2929688 L 14.65625 7.1542969 L 14.449219 7.1542969 L 14.517578 7.0175781 L 14.306641 7.0175781 L 14.376953 6.8769531 L 14.167969 6.8769531 L 14.238281 6.7382812 L 14.027344 6.7382812 L 14.097656 6.5976562 L 13.884766 6.5976562 L 13.955078 6.4550781 L 13.742188 6.4550781 L 13.8125 6.3125 L 13.597656 6.3125 L 13.669922 6.1699219 L 13.457031 6.1699219 L 13.527344 6.0273438 L 13.310547 6.0273438 L 13.382812 5.8828125 L 13.164062 5.8828125 L 13.236328 5.7363281 L 13.019531 5.7363281 L 13.091797 5.5917969 L 12.871094 5.5917969 L 12.945312 5.4453125 L 12.722656 5.4453125 L 12.796875 5.296875 L 12.574219 5.296875 L 12.648438 5.1484375 L 7.6484375 5.1484375 z "
       id="path17222"
       style="fill-opacity:1;fill:url(#linearGradient18090)"
       clip-path="url(#clipPath18107)" />
    <path
       style="fill:none"
       inkscape:connector-curvature="0"
       id="path4"
       d="m 3.9999777,4.0333382 12.0000003,0 0,11.9333328 -12.0000003,0 z" />
    <path
       d="m 18.999978,19.033339 12,0 0,11.933333 -12,0 z"
       id="path9754"
       inkscape:connector-curvature="0"
       style="fill:none" />
    <path
       id="path4240"
       d="M 11.242315,16.829805 1.7326961,11.339424 7.2230772,1.829805 16.732696,7.3201861 Z"
       inkscape:connector-curvature="0"
       style="fill:none" />
    <path
       id="path18180"
       d="m 7.5,5 0,5.5 1.5,0 0,4.5 3.5,-6 -2,0 2,-4 z"
       inkscape:connector-curvature="0"
       style="fill:#ffeb3b" />
  </g>
</svg>
