<?xml version="1.0" encoding="UTF-8" standalone="no"?>
<!-- Created with Inkscape (http://www.inkscape.org/) -->

<svg
   xmlns:dc="http://purl.org/dc/elements/1.1/"
   xmlns:cc="http://creativecommons.org/ns#"
   xmlns:rdf="http://www.w3.org/1999/02/22-rdf-syntax-ns#"
   xmlns:svg="http://www.w3.org/2000/svg"
   xmlns="http://www.w3.org/2000/svg"
   xmlns:xlink="http://www.w3.org/1999/xlink"
   xmlns:sodipodi="http://sodipodi.sourceforge.net/DTD/sodipodi-0.dtd"
   xmlns:inkscape="http://www.inkscape.org/namespaces/inkscape"
   inkscape:export-ydpi="460.79999"
   inkscape:export-xdpi="460.79999"
   inkscape:export-filename="/home/juergen/Desktop/1.png"
   width="30"
   height="30"
   viewBox="0 0 28.125 28.125"
   id="svg2"
   version="1.1"
   inkscape:version="0.92.2 (5c3e80d, 2017-08-06)"
   sodipodi:docname="flower.svg">
  <sodipodi:namedview
     id="base"
     pagecolor="#ffffff"
     bordercolor="#666666"
     borderopacity="1.0"
     inkscape:pageopacity="0.0"
     inkscape:pageshadow="2"
     inkscape:zoom="5.6"
     inkscape:cx="27.847852"
     inkscape:cy="14.363684"
     inkscape:document-units="px"
     inkscape:current-layer="layer1"
     showgrid="true"
     fit-margin-top="5"
     fit-margin-left="5"
     fit-margin-right="5"
     fit-margin-bottom="5"
     showguides="true"
     inkscape:guide-bbox="true"
     inkscape:window-width="1366"
     inkscape:window-height="699"
     inkscape:window-x="0"
     inkscape:window-y="33"
     inkscape:window-maximized="1"
     inkscape:snap-grids="false"
     inkscape:snap-to-guides="false"
     units="px">
    <inkscape:grid
       id="grid4138"
       type="xygrid"
       originx="4.6874805"
       originy="4.6875025" />
    <sodipodi:guide
       inkscape:locked="false"
       id="guide4140"
       orientation="0,1"
       position="14.68748,22.687502" />
    <sodipodi:guide
       inkscape:locked="false"
       id="guide4142"
       orientation="0,1"
       position="14.68748,6.6875025" />
    <sodipodi:guide
       inkscape:locked="false"
       id="guide4144"
       orientation="1,0"
       position="6.6874805,14.687502" />
    <sodipodi:guide
       inkscape:locked="false"
       id="guide4146"
       orientation="0,20"
       position="4.6874805,4.6875025" />
    <sodipodi:guide
       inkscape:locked="false"
       id="guide4148"
       orientation="-20,0"
       position="24.68748,4.6875025" />
    <sodipodi:guide
       inkscape:locked="false"
       id="guide4150"
       orientation="0,-20"
       position="24.68748,24.687502" />
    <sodipodi:guide
       inkscape:locked="false"
       id="guide4152"
       orientation="20,0"
       position="4.6874805,24.687502" />
    <sodipodi:guide
       inkscape:locked="false"
       id="guide4154"
       orientation="1,0"
       position="22.68748,14.687502" />
    <sodipodi:guide
       inkscape:locked="false"
       id="guide4156"
       orientation="-0.70710678,0.70710678"
       position="14.68748,14.687502" />
    <sodipodi:guide
       inkscape:locked="false"
       id="guide4158"
       orientation="0.70710678,0.70710678"
       position="14.68748,14.687502" />
    <sodipodi:guide
       inkscape:locked="false"
       id="guide4160"
       orientation="1,0"
       position="8.6874805,14.687502" />
    <sodipodi:guide
       inkscape:locked="false"
       id="guide4162"
       orientation="1,0"
       position="20.68748,14.687502" />
    <sodipodi:guide
       inkscape:locked="false"
       id="guide4164"
       orientation="0,1"
       position="14.68748,20.687502" />
    <sodipodi:guide
       inkscape:locked="false"
       id="guide4166"
       orientation="0,1"
       position="14.68748,8.6875025" />
    <sodipodi:guide
       inkscape:locked="false"
       id="guide4168"
       orientation="0,1"
       position="14.68748,19.687502" />
    <sodipodi:guide
       inkscape:locked="false"
       id="guide4170"
       orientation="0,1"
       position="14.68748,9.6875025" />
    <sodipodi:guide
       inkscape:locked="false"
       id="guide4172"
       orientation="1,0"
       position="9.6874805,14.687502" />
    <sodipodi:guide
       inkscape:locked="false"
       id="guide4174"
       orientation="1,0"
       position="19.68748,14.687502" />
  </sodipodi:namedview>
  <defs
     id="defs4">
    <linearGradient
       inkscape:collect="always"
       id="linearGradient4324">
      <stop
         style="stop-color:#000000;stop-opacity:1;"
         offset="0"
         id="stop4320" />
      <stop
         style="stop-color:#000000;stop-opacity:0;"
         offset="1"
         id="stop4322" />
    </linearGradient>
    <clipPath
       clipPathUnits="userSpaceOnUse"
       id="clipPath12478">
      <circle
         style="opacity:1;fill:#2196f3;fill-opacity:1;stroke:none;stroke-width:0.05069799;stroke-miterlimit:4;stroke-dasharray:none;stroke-opacity:1"
         id="circle12480"
         cx="9.9999781"
         cy="10.000005"
         r="10" />
    </clipPath>
    <clipPath
       id="clipPath13251"
       clipPathUnits="userSpaceOnUse">
      <circle
         inkscape:export-ydpi="648"
         inkscape:export-xdpi="648"
         inkscape:export-filename="/home/juergen/path4136.png"
         style="opacity:1;fill:#2196f3;fill-opacity:1;stroke:none;stroke-width:0.05069799;stroke-miterlimit:4;stroke-dasharray:none;stroke-opacity:1"
         id="circle13253"
         cx="9.9999781"
         cy="10.000005"
         r="10" />
    </clipPath>
    <clipPath
       clipPathUnits="userSpaceOnUse"
       id="clipPath5054">
      <circle
         inkscape:export-ydpi="648"
         inkscape:export-xdpi="648"
         inkscape:export-filename="/home/juergen/path4136.png"
         style="opacity:1;fill:#2196f3;fill-opacity:1;stroke:none;stroke-width:0.05069799;stroke-miterlimit:4;stroke-dasharray:none;stroke-opacity:1"
         id="circle5056"
         cx="9.9999781"
         cy="10.000005"
         r="10" />
    </clipPath>
    <clipPath
       id="clipPath5838"
       clipPathUnits="userSpaceOnUse">
      <circle
         inkscape:export-ydpi="648"
         inkscape:export-xdpi="648"
         inkscape:export-filename="/home/juergen/path4136.png"
         style="opacity:1;fill:#f44336;fill-opacity:1;stroke:none;stroke-width:0.05069799;stroke-miterlimit:4;stroke-dasharray:none;stroke-opacity:1"
         id="circle5840"
         cx="9.9999781"
         cy="10.000005"
         r="10" />
    </clipPath>
    <clipPath
       id="clipPath5850"
       clipPathUnits="userSpaceOnUse">
      <rect
         y="3.9638286"
         x="7.0710678"
         height="4.0406103"
         width="5.7452426"
         id="rect5852"
         style="opacity:0.96300001;fill:#fdd835;fill-opacity:1;stroke:none;stroke-width:1.25;stroke-linecap:round;stroke-linejoin:round;stroke-miterlimit:4;stroke-dasharray:none;stroke-opacity:1" />
    </clipPath>
    <linearGradient
       inkscape:collect="always"
       xlink:href="#linearGradient4324"
       id="linearGradient4326"
       x1="10.669736"
       y1="10.789866"
       x2="17.239939"
       y2="17.360067"
       gradientUnits="userSpaceOnUse" />
  </defs>
  <metadata
     id="metadata7">
    <rdf:RDF>
      <cc:Work
         rdf:about="">
        <dc:format>image/svg+xml</dc:format>
        <dc:type
           rdf:resource="http://purl.org/dc/dcmitype/StillImage" />
        <dc:title></dc:title>
      </cc:Work>
    </rdf:RDF>
  </metadata>
  <g
     transform="translate(1062.8303,-858.49615)"
     id="layer1"
     inkscape:groupmode="layer"
     inkscape:label="Hintergrund">
    <rect
       style="display:inline;opacity:1;fill:#9e9e9e;stroke-width:0.81504887"
       id="rect8846"
       width="28.125"
       height="28.125"
       x="-1062.8303"
       y="858.49615"
       inkscape:export-filename="/home/juergen/Desktop/rect8846.png"
       inkscape:export-xdpi="460.79999"
       inkscape:export-ydpi="460.79999" />
    <circle
       r="9.375"
       cy="872.55865"
       cx="-1048.7678"
       id="path4136"
       style="opacity:1;fill:#3f51b5;fill-opacity:1;stroke:none;stroke-width:0.04752936;stroke-miterlimit:4;stroke-dasharray:none;stroke-opacity:1"
       inkscape:export-filename="/home/juergen/Desktop/1.png"
       inkscape:export-xdpi="691.20001"
       inkscape:export-ydpi="691.20001" />
  </g>
  <g
     inkscape:label="Icon"
     id="layer2"
     inkscape:groupmode="layer"
     style="display:inline"
     transform="translate(4.6874795,3.4374955)">
    <path
       style="fill:none"
       inkscape:connector-curvature="0"
       id="path4"
       d="M 3.9999777,4.0333382 H 15.999978 V 15.966671 H 3.9999777 Z" />
    <path
       d="m 18.999978,19.033339 h 12 v 11.933333 h -12 z"
       id="path9754"
       inkscape:connector-curvature="0"
       style="fill:none" />
    <rect
       y="8.1307077"
       x="7.0710678"
       height="6.8816643"
       width="9.2176418"
       id="rect5842"
       style="opacity:0.96300001;fill:#37474f;fill-opacity:0;stroke:none;stroke-width:1.25;stroke-linecap:round;stroke-linejoin:round;stroke-miterlimit:4;stroke-dasharray:none;stroke-opacity:1" />
    <rect
       y="8.0675735"
       x="4.4194174"
       height="8.207489"
       width="11.743023"
       id="rect5844"
       style="opacity:0.96300001;fill:#37474f;fill-opacity:0;stroke:none;stroke-width:1.25;stroke-linecap:round;stroke-linejoin:round;stroke-miterlimit:4;stroke-dasharray:none;stroke-opacity:1" />
    <path
       style="opacity:0.2;fill:url(#linearGradient4326);fill-opacity:1;stroke-width:0.51546395"
       d="M 10,5.5664062 C 9.7693299,5.7004269 9.5573656,5.8622946 9.3691406,6.0488281 9.1809157,6.2353616 9.0164909,6.4463998 8.8808594,6.6757812 8.7452278,6.9051627 8.6392961,7.1534512 8.5664062,7.4160156 c -0.036445,0.1312822 -0.065128,0.264578 -0.083984,0.4023438 -8.77e-5,6.379e-4 8.73e-5,0.00132 0,0.00195 -0.018686,0.137158 -0.029297,0.2775397 -0.029297,0.4199219 0,0.1642959 0.015428,0.3290791 0.041016,0.4882812 -0.047999,-0.03994 -0.1051525,-0.071601 -0.15625,-0.109375 C 8.2586284,8.560546 8.1824204,8.4989134 8.0957031,8.4492188 c 0,0 -0.00195,-0.00195 -0.00195,-0.00195 C 7.9708049,8.376188 7.8426862,8.3141015 7.7148438,8.2617188 7.5855695,8.2088762 7.4548287,8.165084 7.3222656,8.1308594 7.2977226,8.1245064 7.272668,8.1229121 7.2480469,8.1171875 7.0079744,8.0613689 6.7653775,8.0308655 6.5234375,8.0332031 6.2566848,8.0357804 5.9924493,8.0729905 5.7363281,8.1425781 5.480207,8.2121658 5.2319587,8.3145337 5,8.4472656 c 0,0.4009959 0.078466,0.7974207 0.2285156,1.1679688 0.049584,0.1224476 0.1067407,0.2438295 0.171875,0.359375 0,0 0.00195,0.00195 0.00195,0.00195 0,0 0.00195,0.00195 0.00195,0.00195 0.027745,0.049018 0.061302,0.095037 0.091797,0.1425786 0.040819,0.06364 0.079321,0.128749 0.125,0.189453 0,0 0,0.002 0,0.002 0,0 0.00195,0.002 0.00195,0.002 0,0 0.00195,0.002 0.00195,0.002 0.00165,0.0022 0.0042,0.0037 0.00586,0.0059 0.010847,0.01426 0.024042,0.02692 0.035156,0.04101 0.069474,0.08806 0.1409271,0.173303 0.2207032,0.253907 2.99e-4,3.02e-4 -2.992e-4,0.0017 0,0.002 0,0 0.00195,0.002 0.00195,0.002 0,0 0.00195,0.002 0.00195,0.002 3.404e-4,3.42e-4 0.00161,-3.42e-4 0.00195,0 0,0 0.00195,0.002 0.00195,0.002 0,0 0.00195,0.002 0.00195,0.002 0,0 0,0.002 0,0.002 0,0 0.00195,0.002 0.00195,0.002 0,0 0.00195,0.002 0.00195,0.002 0,0 0.00195,0.002 0.00195,0.002 0,0 0.00195,0.002 0.00195,0.002 0,0 0.00195,0.002 0.00195,0.002 0,0 0.00195,0.002 0.00195,0.002 0.00128,0.0013 0.00263,0.0026 0.00391,0.0039 0,0 0.00195,0.002 0.00195,0.002 0.001,10e-4 0.00486,0.0029 0.00586,0.0039 0,0 0,0.002 0,0.002 0,0 0.00195,0.002 0.00195,0.002 0.00226,0.0023 0.00554,0.0036 0.00781,0.0059 0.00263,0.0027 0.00713,0.0071 0.00977,0.0098 9.467e-4,9.51e-4 0.00101,0.003 0.00195,0.0039 0.00256,0.0026 0.00524,0.0052 0.00781,0.0078 0.00419,0.0043 0.011408,0.0094 0.015625,0.01367 0.00422,0.0043 0.00747,0.0094 0.011719,0.01367 0.00322,0.0033 0.00653,0.0065 0.00977,0.0098 0.00292,0.003 0.00684,0.0049 0.00977,0.0078 0.00519,0.0053 0.012344,0.01234 0.017578,0.01758 0.00519,0.0053 0.01039,0.01036 0.015625,0.01563 0.00581,0.0059 0.013667,0.01367 0.019531,0.01953 0.00775,0.0079 0.01754,0.01754 0.025391,0.02539 0.00192,0.0019 0.00393,0.0039 0.00586,0.0059 0.00195,0.002 0.00391,0.0039 0.00586,0.0059 0.0074,0.0076 0.013999,0.01592 0.021484,0.02344 0.00483,0.0049 0.010753,0.0088 0.015625,0.01367 0.00519,0.0053 0.010388,0.01037 0.015625,0.01563 0.00484,0.0049 0.00879,0.01072 0.013672,0.01563 0.00549,0.0056 0.012038,0.01007 0.017578,0.01563 0.00518,0.0053 0.0104,0.01038 0.015625,0.01563 0.00584,0.006 0.011688,0.01167 0.017578,0.01758 0.00584,0.006 0.011688,0.01167 0.017578,0.01758 0.00837,0.0085 0.016904,0.01694 0.025391,0.02539 0,0 0.00195,0.002 0.00195,0.002 0,0 0.00195,0.002 0.00195,0.002 0.00901,0.0093 0.018197,0.01819 0.027344,0.02734 0.00647,0.0066 0.012989,0.01298 0.019531,0.01953 0.00871,0.0089 0.018508,0.0166 0.027344,0.02539 0.00228,0.0023 0.00357,0.0055 0.00586,0.0078 0.00903,0.0093 0.018184,0.01817 0.027344,0.02734 0.00711,0.0073 0.014288,0.01428 0.021484,0.02148 0.00741,0.0076 0.013982,0.01593 0.021484,0.02344 0.00739,0.0075 0.015957,0.01401 0.023437,0.02149 0.00775,0.0079 0.015587,0.01559 0.023437,0.02344 0.00774,0.0079 0.0156,0.01561 0.023437,0.02344 0.00774,0.0079 0.015599,0.0156 0.023437,0.02344 0.00774,0.0079 0.015602,0.01561 0.023437,0.02344 0.010929,0.01119 0.02208,0.02217 0.033203,0.0332 0.00577,0.0059 0.011751,0.01176 0.017578,0.01758 0.00643,0.0066 0.013038,0.01301 0.019531,0.01953 0.010573,0.01088 0.020494,0.02246 0.03125,0.0332 0.00867,0.0089 0.018555,0.01662 0.027344,0.02539 0.00901,0.0092 0.018199,0.01822 0.027344,0.02734 0.009,0.0092 0.018215,0.01824 0.027344,0.02734 0.00774,0.0079 0.015596,0.01559 0.023437,0.02344 -0.059112,0.02806 -0.1199445,0.04706 -0.1777344,0.08008 C 6.2994017,11.67932 6.0795846,11.850228 5.8886213,12.044091 5.6977086,12.236832 5.535418,12.45391 5.4042969,12.685547 5.2731757,12.917183 5.173365,13.163559 5.1054688,13.419922 5.0715206,13.548103 5.0448514,13.67863 5.0273438,13.810547 5.0098361,13.942463 5.0006443,14.074964 5,14.208984 c -3.5e-6,6.51e-4 3.1e-6,0.0013 0,0.002 5.054e-4,2.9e-4 0.00145,-2.91e-4 0.00195,0 0,0 0.00195,0.002 0.00195,0.002 0,0 0.00195,0.002 0.00195,0.002 0,0 0.00195,0.002 0.00195,0.002 0,0 0,0.002 0,0.002 0.00126,7.28e-4 0.00264,0.0012 0.00391,0.002 0.00126,7.28e-4 0.00264,0.0012 0.00391,0.002 0,0 0,0.002 0,0.002 0.00126,7.28e-4 0.00264,0.0012 0.00391,0.002 0,0 0,0.002 0,0.002 0.00126,7.27e-4 0.00264,0.0012 0.00391,0.002 -7.9e-6,0.0013 6.3e-6,0.0026 0,0.0039 0.00177,0.001 0.00409,9.37e-4 0.00586,0.002 0,0 0,0.002 0,0.002 0.00202,0.0012 0.00384,0.0027 0.00586,0.0039 0,0 0,0.002 0,0.002 0.00203,0.0012 0.00383,0.0027 0.00586,0.0039 0,0 0,0.002 0,0.002 0.00203,0.0012 0.00383,0.0027 0.00586,0.0039 0,0 0,0.002 0,0.002 0.00202,0.0012 0.00384,0.0027 0.00586,0.0039 -7.9e-6,0.0013 6.2e-6,0.0026 0,0.0039 0.00253,0.0015 0.00528,0.0025 0.00781,0.0039 -7.9e-6,0.0013 6.2e-6,0.0026 0,0.0039 0.00253,0.0015 0.00528,0.0025 0.00781,0.0039 -7.9e-6,0.0013 6.2e-6,0.0026 0,0.0039 0.00253,0.0015 0.00528,0.0025 0.00781,0.0039 -7.9e-6,0.0013 6.2e-6,0.0026 0,0.0039 0.00329,0.0019 0.00647,0.004 0.00977,0.0059 0,0 0,0.002 0,0.002 0.00329,0.0019 0.00647,0.004 0.00977,0.0059 -7.9e-6,0.0013 6.3e-6,0.0026 0,0.0039 0.00329,0.0019 0.00647,0.004 0.00977,0.0059 -8e-6,0.0013 6.2e-6,0.0026 0,0.0039 0.00329,0.0019 0.00647,0.004 0.00977,0.0059 -7.9e-6,0.0013 6.3e-6,0.0026 0,0.0039 0.00329,0.0019 0.00647,0.004 0.00977,0.0059 -1.3e-5,0.002 9.4e-6,0.0039 0,0.0059 0.00379,0.0022 0.00792,0.0037 0.011719,0.0059 -1.31e-5,0.002 9.3e-6,0.0039 0,0.0059 0.00379,0.0022 0.00792,0.0037 0.011719,0.0059 -1.3e-5,0.002 9.4e-6,0.0039 0,0.0059 0.00379,0.0022 0.00792,0.0037 0.011719,0.0059 -1.3e-5,0.002 9.4e-6,0.0039 0,0.0059 0.00455,0.0026 0.00911,0.0052 0.013672,0.0078 -7.9e-6,0.0013 6.3e-6,0.0026 0,0.0039 0.00455,0.0026 0.00911,0.0052 0.013672,0.0078 -1.3e-5,0.002 9.4e-6,0.0039 0,0.0059 0.00457,0.0026 0.00909,0.0052 0.013672,0.0078 -1.3e-5,0.002 9.4e-6,0.0039 0,0.0059 0.00457,0.0026 0.00909,0.0052 0.013672,0.0078 -1.31e-5,0.002 9.4e-6,0.0039 0,0.0059 0.00457,0.0026 0.00909,0.0052 0.013672,0.0078 -1.31e-5,0.002 9.5e-6,0.0039 0,0.0059 0.00505,0.0029 0.010563,0.0049 0.015625,0.0078 -1.91e-5,0.0026 1.26e-5,0.0052 0,0.0078 0.00506,0.0029 0.010552,0.0049 0.015625,0.0078 -1.91e-5,0.0026 1.26e-5,0.0052 0,0.0078 0.00506,0.0029 0.010552,0.0049 0.015625,0.0078 -1.91e-5,0.0026 1.26e-5,0.0052 0,0.0078 0.00506,0.0029 0.010552,0.0049 0.015625,0.0078 -2.57e-5,0.0033 1.57e-5,0.0065 0,0.0098 0.00582,0.0033 0.011743,0.0065 0.017578,0.0098 -1.31e-5,0.002 9.4e-6,0.0039 0,0.0059 0.00582,0.0033 0.011743,0.0065 0.017578,0.0098 -1.91e-5,0.0026 1.25e-5,0.0052 0,0.0078 0.00582,0.0033 0.011743,0.0065 0.017578,0.0098 -1.91e-5,0.0026 1.26e-5,0.0052 0,0.0078 0.00582,0.0033 0.011743,0.0065 0.017578,0.0098 -2.57e-5,0.0033 1.57e-5,0.0065 0,0.0098 0.00632,0.0036 0.013185,0.0062 0.019531,0.0098 -1.91e-5,0.0026 1.25e-5,0.0052 0,0.0078 0.00632,0.0036 0.013185,0.0062 0.019531,0.0098 -2.59e-5,0.0033 1.57e-5,0.0065 0,0.0098 0.00632,0.0036 0.013185,0.0062 0.019531,0.0098 -2.59e-5,0.0033 1.57e-5,0.0065 0,0.0098 0.00632,0.0036 0.013185,0.0062 0.019531,0.0098 -3.32e-5,0.0039 1.88e-5,0.0078 0,0.01172 0.00708,0.0041 0.014375,0.0077 0.021484,0.01172 -1.91e-5,0.0026 1.26e-5,0.0052 0,0.0078 0.00708,0.0041 0.014375,0.0077 0.021484,0.01172 -2.59e-5,0.0033 1.57e-5,0.0065 0,0.0098 0.00708,0.0041 0.014375,0.0077 0.021484,0.01172 -2.58e-5,0.0033 1.58e-5,0.0065 0,0.0098 0.00708,0.0041 0.014375,0.0077 0.021484,0.01172 -3.32e-5,0.0039 1.88e-5,0.0078 0,0.01172 0.00759,0.0044 0.015816,0.0074 0.023437,0.01172 -2.59e-5,0.0033 1.57e-5,0.0065 0,0.0098 0.00759,0.0044 0.015816,0.0074 0.023437,0.01172 -3.35e-5,0.0039 1.89e-5,0.0078 0,0.01172 0.00762,0.0044 0.015782,0.0074 0.023437,0.01172 -3.35e-5,0.0039 1.89e-5,0.0078 0,0.01172 0.00759,0.0044 0.015816,0.0074 0.023437,0.01172 -3.35e-5,0.0039 1.89e-5,0.0078 0,0.01172 0.00834,0.0048 0.017005,0.009 0.025391,0.01367 -3.34e-5,0.0039 1.89e-5,0.0078 0,0.01172 0.00762,0.0044 0.015782,0.0074 0.023438,0.01172 -4.17e-5,0.0046 2.18e-5,0.0091 0,0.01367 0.00834,0.0048 0.017005,0.009 0.025391,0.01367 -3.33e-5,0.0039 1.87e-5,0.0078 0,0.01172 0.00885,0.0051 0.018445,0.0087 0.027344,0.01367 -3.35e-5,0.0039 1.89e-5,0.0078 0,0.01172 0.00885,0.0051 0.018446,0.0087 0.027344,0.01367 -4.22e-5,0.0046 -0.00193,0.0091 -0.00195,0.01367 0.00885,0.0051 0.018446,0.0087 0.027344,0.01367 -3.35e-5,0.0039 1.89e-5,0.0078 0,0.01172 0.00885,0.0051 0.018446,0.0087 0.027344,0.01367 -4.19e-5,0.0046 2.21e-5,0.0091 0,0.01367 0.00936,0.0054 0.019886,0.0084 0.029297,0.01367 -5.14e-5,0.0052 -0.00193,0.01037 -0.00195,0.01562 0.00961,0.0055 0.019633,0.0102 0.029297,0.01563 -3.35e-5,0.0039 1.88e-5,0.0078 0,0.01172 0.010117,0.0058 0.021073,0.0099 0.03125,0.01563 -4.22e-5,0.0046 -0.00193,0.0091 -0.00195,0.01367 0.010161,0.0058 0.021028,0.0099 0.03125,0.01563 -4.23e-5,0.0046 -0.00193,0.0091 -0.00195,0.01367 0.010162,0.0058 0.021028,0.0099 0.03125,0.01563 -4.25e-5,0.0046 -0.00193,0.0091 -0.00195,0.01367 0.010117,0.0058 0.021073,0.0099 0.03125,0.01563 -5.14e-5,0.0052 -0.00193,0.01037 -0.00195,0.01563 0.010117,0.0058 0.021073,0.0099 0.03125,0.01563 -4.19e-5,0.0046 2.2e-5,0.0091 0,0.01367 0.010624,0.0061 0.022513,0.0096 0.033203,0.01563 -5.18e-5,0.0053 -0.00193,0.01035 -0.00195,0.01563 0.010624,0.0061 0.022513,0.0096 0.033203,0.01563 -6.15e-5,0.0059 -0.00192,0.01168 -0.00195,0.01758 0.011381,0.0065 0.023699,0.01118 0.035156,0.01758 -4.25e-5,0.0046 -0.00193,0.0091 -0.00195,0.01367 0.010671,0.0061 0.022466,0.0096 0.033203,0.01563 -6.14e-5,0.0059 -0.00192,0.01168 -0.00195,0.01758 0.011381,0.0065 0.023699,0.01118 0.035156,0.01758 -5.15e-5,0.0052 -0.00193,0.01037 -0.00195,0.01563 0.011889,0.0068 0.025138,0.0109 0.037109,0.01758 -5.14e-5,0.0052 -0.00193,0.01037 -0.00195,0.01563 0.011432,0.0066 0.023648,0.01115 0.035156,0.01758 -5.18e-5,0.0053 -0.00193,0.01035 -0.00195,0.01563 0.011889,0.0068 0.025138,0.0109 0.037109,0.01758 -6.19e-5,0.0059 -0.00192,0.01165 -0.00195,0.01758 0.011941,0.0069 0.025085,0.01087 0.037109,0.01758 -6.14e-5,0.0059 -0.00192,0.01168 -0.00195,0.01758 0.011941,0.0069 0.025085,0.01087 0.037109,0.01758 -6.19e-5,0.0059 -0.00192,0.01165 -0.00195,0.01758 0.011941,0.0069 0.025085,0.01087 0.037109,0.01758 -6.19e-5,0.0059 -0.00192,0.01165 -0.00195,0.01758 0.012619,0.0073 0.026351,0.01245 0.039063,0.01953 -6.19e-5,0.0059 -0.00192,0.01165 -0.00195,0.01758 0.012646,0.0073 0.026323,0.01244 0.039063,0.01953 -6.19e-5,0.0059 -0.00192,0.01165 -0.00195,0.01758 0.012702,0.0073 0.026266,0.01241 0.039062,0.01953 -6.19e-5,0.0059 -0.00192,0.01165 -0.00195,0.01758 0.012646,0.0073 0.026323,0.01244 0.039063,0.01953 -7.23e-5,0.0065 -0.00192,0.01298 -0.00195,0.01953 0.013153,0.0076 0.027761,0.01216 0.041016,0.01953 -6.19e-5,0.0059 -0.00192,0.01165 -0.00195,0.01758 0.013153,0.0076 0.027761,0.01216 0.041016,0.01953 -7.28e-5,0.0066 -0.00192,0.01295 -0.00195,0.01953 0.013211,0.0076 0.027702,0.01213 0.041016,0.01953 -7.28e-5,0.0066 -0.00192,0.01295 -0.00195,0.01953 0.013153,0.0076 0.027761,0.01216 0.041016,0.01953 -7.28e-5,0.0066 -0.00192,0.01295 -0.00195,0.01953 0.01388,0.008 0.028975,0.01372 0.042969,0.02148 -7.28e-5,0.0066 -0.00192,0.01295 -0.00195,0.01953 0.013911,0.008 0.028945,0.0137 0.042969,0.02148 -7.23e-5,0.0065 -0.00192,0.01298 -0.00195,0.01953 0.013972,0.008 0.028882,0.01367 0.042969,0.02149 -7.28e-5,0.0066 -0.00192,0.01295 -0.00195,0.01953 0.013972,0.008 0.028882,0.01367 0.042969,0.02148 -7.28e-5,0.0066 -0.00192,0.01295 -0.00195,0.01953 0.014418,0.0083 0.030382,0.01343 0.044922,0.02148 -8.39e-5,0.0072 -0.00192,0.01428 -0.00195,0.02148 0.013972,0.008 0.028882,0.01367 0.042969,0.02148 -8.39e-5,0.0072 -0.00192,0.01428 -0.00195,0.02148 0.014418,0.0083 0.030382,0.01343 0.044922,0.02148 -8.39e-5,0.0072 -0.00192,0.01428 -0.00195,0.02148 0.015175,0.0087 0.031565,0.01497 0.046875,0.02344 -7.28e-5,0.0066 -0.00192,0.01295 -0.00195,0.01953 0.014418,0.0083 0.030382,0.01343 0.044922,0.02148 -9.64e-5,0.0078 -0.00192,0.01558 -0.00195,0.02344 0.015175,0.0087 0.031565,0.01497 0.046875,0.02344 -7.29e-5,0.0066 -0.00192,0.01295 -0.00195,0.01953 0.015142,0.0087 0.031599,0.01499 0.046875,0.02344 -9.63e-5,0.0078 -0.00192,0.01558 -0.00195,0.02344 0.015175,0.0087 0.031565,0.01497 0.046875,0.02344 -8.39e-5,0.0072 -0.00192,0.01428 -0.00195,0.02148 0.015682,0.009 0.033002,0.0147 0.048828,0.02344 -8.46e-5,0.0072 -0.00192,0.01425 -0.00195,0.02148 0.015682,0.009 0.033002,0.0147 0.048828,0.02344 -9.71e-5,0.0079 -0.00192,0.01555 -0.00195,0.02344 0.015682,0.009 0.033002,0.0147 0.048828,0.02344 -9.71e-5,0.0079 -0.00192,0.01555 -0.00195,0.02344 0.015682,0.009 0.033002,0.0147 0.048828,0.02344 -9.71e-5,0.0079 -0.00192,0.01555 -0.00195,0.02344 0.01644,0.0095 0.034184,0.01624 0.050781,0.02539 -9.63e-5,0.0078 -0.00192,0.01558 -0.00195,0.02344 0.015751,0.0091 0.032932,0.01466 0.048828,0.02344 -1.095e-4,0.0085 -0.00191,0.01689 -0.00195,0.02539 0.01644,0.0095 0.034184,0.01624 0.050781,0.02539 -9.64e-5,0.0078 -0.00192,0.01558 -0.00195,0.02344 0.01644,0.0095 0.034184,0.01624 0.050781,0.02539 -9.64e-5,0.0078 -0.00192,0.01558 -0.00195,0.02344 0.016947,0.0098 0.03562,0.01597 0.052734,0.02539 -9.71e-5,0.0079 -0.00192,0.01555 -0.00195,0.02344 0.016947,0.0098 0.03562,0.01597 0.052734,0.02539 -1.105e-4,0.0085 -0.00191,0.01685 -0.00195,0.02539 0.017022,0.0098 0.035544,0.01593 0.052734,0.02539 -1.104e-4,0.0085 -0.00191,0.01685 -0.00195,0.02539 0.017022,0.0098 0.035544,0.01593 0.052734,0.02539 -1.105e-4,0.0085 -0.00191,0.01685 -0.00195,0.02539 0.016947,0.0098 0.03562,0.01597 0.052734,0.02539 -1.236e-4,0.0091 -0.00191,0.01819 -0.00195,0.02734 0.017704,0.01019 0.0368,0.01752 0.054687,0.02734 -9.71e-5,0.0079 -0.00192,0.01555 -0.00195,0.02344 0.017704,0.01019 0.0368,0.01752 0.054687,0.02734 -1.105e-4,0.0085 -0.00191,0.01685 -0.00195,0.02539 0.017704,0.01019 0.0368,0.01752 0.054687,0.02734 -1.104e-4,0.0085 -0.00191,0.01685 -0.00195,0.02539 0.018171,0.01046 0.038277,0.01727 0.056641,0.02734 -1.237e-4,0.0091 -0.00191,0.01819 -0.00195,0.02734 0.017783,0.01023 0.03672,0.01748 0.054687,0.02734 -1.236e-4,0.0091 -0.00191,0.01819 -0.00195,0.02734 0.018212,0.01048 0.038236,0.01725 0.056641,0.02734 -1.104e-4,0.0085 -0.00191,0.01685 -0.00195,0.02539 0.018171,0.01046 0.038277,0.01727 0.056641,0.02734 -1.384e-4,0.0098 -0.00191,0.01949 -0.00195,0.0293 0.018969,0.01091 0.039415,0.0188 0.058594,0.0293 -1.105e-4,0.0085 -0.00191,0.01685 -0.00195,0.02539 0.018292,0.01053 0.038154,0.0172 0.056641,0.02734 -1.384e-4,0.0098 -0.00191,0.01949 -0.00195,0.0293 0.018969,0.01092 0.039415,0.0188 0.058594,0.0293 -1.236e-4,0.0091 -0.00191,0.01819 -0.00195,0.02734 0.018969,0.01092 0.039415,0.0188 0.058594,0.0293 -1.236e-4,0.0091 -0.00191,0.01819 -0.00195,0.02734 0.019476,0.01121 0.04085,0.01853 0.060547,0.0293 -1.246e-4,0.0092 -0.00191,0.01814 -0.00195,0.02734 0.018969,0.01091 0.039415,0.0188 0.058594,0.0293 -1.385e-4,0.0098 -0.00191,0.01949 -0.00195,0.0293 0.019476,0.01121 0.04085,0.01853 0.060547,0.0293 -1.384e-4,0.0098 -0.00191,0.01949 -0.00195,0.0293 0.019476,0.01121 0.04085,0.01853 0.060547,0.0293 -1.385e-4,0.0098 -0.00191,0.01949 -0.00195,0.0293 0.020233,0.01164 0.042028,0.02008 0.0625,0.03125 -1.246e-4,0.0092 -0.00191,0.01814 -0.00195,0.02734 0.019476,0.01121 0.04085,0.01853 0.060547,0.0293 -1.541e-4,0.01045 -0.0019,0.02079 -0.00195,0.03125 0.020233,0.01164 0.042028,0.02008 0.0625,0.03125 -1.246e-4,0.0092 -0.00191,0.01815 -0.00195,0.02734 0.02019,0.01162 0.042073,0.0201 0.0625,0.03125 -1.541e-4,0.01045 -0.0019,0.02079 -0.00195,0.03125 0.020741,0.01194 0.043462,0.01981 0.064453,0.03125 -1.385e-4,0.0098 -0.00191,0.01949 -0.00195,0.0293 0.020323,0.01169 0.041937,0.02003 0.0625,0.03125 -1.395e-4,0.0098 -0.00191,0.01944 -0.00195,0.0293 0.020695,0.01191 0.043509,0.01984 0.064453,0.03125 -1.553e-4,0.0105 -0.0019,0.02074 -0.00195,0.03125 0.020741,0.01194 0.043462,0.01981 0.064453,0.03125 -1.553e-4,0.0105 -0.0019,0.02074 -0.00195,0.03125 0.020741,0.01194 0.043462,0.01981 0.064453,0.03125 -1.705e-4,0.0111 -0.0019,0.0221 -0.00195,0.0332 0.021498,0.01237 0.04464,0.02137 0.066406,0.0332 -1.396e-4,0.0098 -0.00191,0.01944 -0.00195,0.0293 0.021498,0.01237 0.04464,0.02137 0.066406,0.0332 -1.554e-4,0.0105 -0.0019,0.02074 -0.00195,0.03125 0.021593,0.01243 0.044542,0.02132 0.066406,0.0332 -1.554e-4,0.0105 -0.0019,0.02074 -0.00195,0.03125 0.021593,0.01243 0.044542,0.02132 0.066406,0.0332 -1.553e-4,0.0105 -0.0019,0.02074 -0.00195,0.03125 0.022005,0.01266 0.046072,0.0211 0.068359,0.0332 -1.706e-4,0.0111 -0.0019,0.0221 -0.00195,0.0332 0.021593,0.01243 0.044542,0.02132 0.066406,0.0332 -1.705e-4,0.0111 -0.0019,0.0221 -0.00195,0.0332 0.022005,0.01266 0.046072,0.0211 0.068359,0.0332 -1.706e-4,0.0111 -0.0019,0.0221 -0.00195,0.0332 0.022763,0.0131 0.047249,0.02266 0.070312,0.03516 -1.541e-4,0.01045 -0.0019,0.02079 -0.00195,0.03125 0.022102,0.01272 0.045973,0.02105 0.068359,0.0332 -1.72e-4,0.01115 -0.0019,0.02204 -0.00195,0.0332 0.022763,0.0131 0.047249,0.02266 0.070313,0.03516 -1.72e-4,0.01115 -0.0019,0.02204 -0.00195,0.0332 0.022763,0.0131 0.047249,0.02266 0.070312,0.03516 -1.719e-4,0.01115 -0.0019,0.02204 -0.00195,0.0332 0.022763,0.0131 0.047249,0.02266 0.070312,0.03516 -1.71e-4,0.01115 -0.0019,0.02204 -0.002,0.0332 0.02276,0.0131 0.04725,0.02266 0.07031,0.03516 -1.88e-4,0.01175 -0.0019,0.0234 -0.002,0.03516 0.02327,0.01339 0.04868,0.02239 0.07226,0.03516 -1.87e-4,0.01175 -0.0019,0.0234 -0.002,0.03516 0.02327,0.01339 0.04868,0.02239 0.07227,0.03516 -1.72e-4,0.01115 -0.0019,0.02204 -0.002,0.0332 0.02347,0.0135 0.04848,0.02424 0.07226,0.03711 -1.87e-4,0.01175 -0.0019,0.0234 -0.002,0.03516 0.02403,0.01383 0.04986,0.02395 0.07422,0.03711 -1.72e-4,0.01115 -0.0019,0.02204 -0.002,0.0332 0.02327,0.01339 0.04868,0.02239 0.07227,0.03516 -2.06e-4,0.0124 -0.0019,0.0247 -0.002,0.03711 0.02403,0.01383 0.04986,0.02395 0.07422,0.03711 -1.88e-4,0.01175 -0.0019,0.0234 -0.002,0.03516 0.02454,0.01412 0.05129,0.02369 0.07617,0.03711 -1.89e-4,0.0118 -0.0019,0.02334 -0.002,0.03516 0.02413,0.01389 0.04975,0.02389 0.07422,0.03711 -1.9e-4,0.0118 -0.0019,0.02334 -0.002,0.03516 0.02454,0.01412 0.05129,0.02369 0.07617,0.03711 -2.07e-4,0.01246 -0.0019,0.02464 -0.002,0.03711 0.02464,0.01418 0.05118,0.02363 0.07617,0.03711 -2.08e-4,0.01246 -0.0019,0.02464 -0.002,0.03711 0.02464,0.01418 0.05118,0.02363 0.07617,0.03711 -2.08e-4,0.01246 -0.0019,0.02464 -0.002,0.03711 0.02453,0.01412 0.05129,0.02369 0.07617,0.03711 -2.24e-4,0.01305 -0.0019,0.026 -0.002,0.03906 0.02529,0.01455 0.05246,0.02525 0.07813,0.03906 -1.89e-4,0.0118 -0.0019,0.02334 -0.002,0.03516 0.02529,0.01455 0.05246,0.02525 0.07813,0.03906 -2.07e-4,0.01246 -0.0019,0.02464 -0.002,0.03711 0.0254,0.01462 0.05235,0.02519 0.07813,0.03906 -2.07e-4,0.01246 -0.0019,0.02464 -0.002,0.03711 0.02529,0.01455 0.05246,0.02525 0.07813,0.03906 -2.25e-4,0.01305 -0.0019,0.026 -0.002,0.03906 0.0258,0.01485 0.05389,0.02499 0.08008,0.03906 -2.08e-4,0.01246 -0.0019,0.02464 -0.002,0.03711 0.0258,0.01485 0.05389,0.02499 0.08008,0.03906 -2.27e-4,0.01311 -0.0019,0.02594 -0.002,0.03906 0.02591,0.01491 0.05378,0.02493 0.08008,0.03906 -2.27e-4,0.01311 -0.0019,0.02594 -0.002,0.03906 0.0258,0.01485 0.05389,0.02499 0.08008,0.03906 -2.27e-4,0.01311 -0.0019,0.02594 -0.002,0.03906 0.0265,0.01525 0.05513,0.02658 0.08203,0.04102 -2.26e-4,0.01311 -0.0019,0.02594 -0.002,0.03906 0.02656,0.01528 0.05507,0.02655 0.08203,0.04102 -2.24e-4,0.01305 -0.0019,0.026 -0.002,0.03906 0.02667,0.01535 0.05495,0.02649 0.08203,0.04102 -2.26e-4,0.01311 -0.0019,0.02594 -0.002,0.03906 0.02667,0.01535 0.05495,0.02649 0.08203,0.04102 -2.26e-4,0.01311 -0.0019,0.02594 -0.002,0.03906 0.02706,0.01557 0.0565,0.02629 0.08399,0.04102 -2.45e-4,0.0137 -0.0019,0.02731 -0.002,0.04102 0.02667,0.01535 0.05495,0.02649 0.08203,0.04102 -2.44e-4,0.0137 -0.0019,0.02731 -0.002,0.04102 0.02706,0.01557 0.0565,0.02629 0.08398,0.04102 -2.44e-4,0.0137 -0.0019,0.02731 -0.002,0.04102 0.02782,0.01601 0.05767,0.02785 0.08594,0.04297 -2.27e-4,0.01311 -0.0019,0.02594 -0.002,0.03906 0.02706,0.01557 0.0565,0.02629 0.08399,0.04102 -2.65e-4,0.01434 -0.0019,0.02861 -0.002,0.04297 0.02782,0.01601 0.05767,0.02785 0.08594,0.04297 -2.26e-4,0.01311 -0.0019,0.02594 -0.002,0.03906 0.02782,0.01601 0.05767,0.02785 0.08594,0.04297 -2.47e-4,0.01376 -0.0019,0.02724 -0.002,0.04102 0.02833,0.0163 0.0591,0.0276 0.08789,0.04297 -2.66e-4,0.01439 -0.0038,0.02856 -0.0039,0.04297 0.02833,0.0163 0.0591,0.02759 0.08789,0.04297 -2.46e-4,0.01376 -0.0019,0.02724 -0.002,0.04102 0.02833,0.0163 0.0591,0.02759 0.08789,0.04297 -2.67e-4,0.01441 -0.0019,0.02854 -0.002,0.04297 0.02845,0.01637 0.05897,0.02753 0.08789,0.04297 -2.67e-4,0.01441 -0.0019,0.02854 -0.002,0.04297 0.02845,0.01637 0.05897,0.02753 0.08789,0.04297 -2.67e-4,0.01441 -0.0019,0.02854 -0.002,0.04297 0.02884,0.01659 0.06053,0.02734 0.08984,0.04297 -2.87e-4,0.01504 -0.0038,0.02987 -0.0039,0.04492 0.02909,0.01674 0.06027,0.02916 0.08984,0.04492 -2.46e-4,0.01376 -0.0019,0.02724 -0.002,0.04102 0.02953,0.01699 0.06177,0.02894 0.0918,0.04492 -2.69e-4,0.01446 -0.0038,0.02849 -0.0039,0.04297 0.02953,0.01699 0.06176,0.02894 0.0918,0.04492 -2.87e-4,0.01504 -0.0038,0.02987 -0.0039,0.04492 0.02959,0.01703 0.0617,0.02891 0.0918,0.04492 -2.67e-4,0.01441 -0.0019,0.02854 -0.002,0.04297 0.0301,0.01732 0.06313,0.02865 0.09375,0.04492 -2.88e-4,0.01504 -0.0038,0.02987 -0.0039,0.04492 0.02972,0.0171 0.06156,0.02884 0.0918,0.04492 -2.87e-4,0.01504 -0.0038,0.02987 -0.0039,0.04492 0.03086,0.01776 0.0643,0.03022 0.0957,0.04687 -2.68e-4,0.01446 -0.0038,0.02849 -0.0039,0.04297 0.03049,0.01754 0.06273,0.03041 0.09375,0.04687 -2.68e-4,0.01446 -0.0038,0.02849 -0.0039,0.04297 0.03079,0.01772 0.06437,0.03025 0.0957,0.04687 -2.9e-4,0.01511 -0.0038,0.02979 -0.0039,0.04492 0.03086,0.01776 0.0643,0.03022 0.0957,0.04687 -2.9e-4,0.01511 -0.0038,0.02979 -0.0039,0.04492 0.03086,0.01776 0.0643,0.03022 0.0957,0.04687 -2.9e-4,0.01511 -0.0038,0.02979 -0.0039,0.04492 0.03086,0.01776 0.0643,0.03022 0.0957,0.04687 -3.1e-4,0.01569 -0.0038,0.03117 -0.0039,0.04687 0.03137,0.01805 0.06573,0.02996 0.09766,0.04687 -2.9e-4,0.01511 -0.0038,0.02979 -0.0039,0.04492 0.03137,0.01805 0.06573,0.02996 0.09766,0.04687 -3.13e-4,0.01576 -0.0038,0.03109 -0.0039,0.04687 0.03137,0.01805 0.06573,0.02996 0.09766,0.04687 -3.13e-4,0.01576 -0.0038,0.03109 -0.0039,0.04687 0.03137,0.01805 0.06573,0.02996 0.09766,0.04687 -3.33e-4,0.01634 -0.0038,0.03247 -0.0039,0.04883 0.03212,0.01848 0.06689,0.03154 0.09961,0.04883 -2.9e-4,0.01511 -0.0038,0.02979 -0.0039,0.04492 0.03205,0.01844 0.06697,0.03157 0.09961,0.04883 -3.12e-4,0.01576 -0.0038,0.03109 -0.0039,0.04687 0.03212,0.01848 0.06689,0.03154 0.09961,0.04883 -3.12e-4,0.01576 -0.0038,0.03109 -0.0039,0.04687 0.03205,0.01844 0.06697,0.03157 0.09961,0.04883 -3.32e-4,0.01634 -0.0038,0.03247 -0.0039,0.04883 0.03263,0.01878 0.06832,0.03128 0.101562,0.04883 -3.12e-4,0.01576 -0.0038,0.03109 -0.0039,0.04688 0.03263,0.01878 0.06832,0.03128 0.101563,0.04883 -3.36e-4,0.01642 -0.0038,0.03239 -0.0039,0.04883 0.03263,0.01878 0.06832,0.03128 0.101563,0.04883 -3.36e-4,0.01642 -0.0038,0.03239 -0.0039,0.04883 0.03263,0.01878 0.06832,0.03128 0.101562,0.04883 -3.56e-4,0.01698 -0.0038,0.03377 -0.0039,0.05078 0.03339,0.01921 0.06949,0.03286 0.103516,0.05078 -3.13e-4,0.01576 -0.0038,0.03109 -0.0039,0.04687 0.03339,0.01921 0.06949,0.03286 0.103516,0.05078 -3.36e-4,0.01642 -0.0038,0.03239 -0.0039,0.04883 0.03339,0.01921 0.06949,0.03286 0.103515,0.05078 -3.35e-4,0.01642 -0.0038,0.03239 -0.0039,0.04883 0.03339,0.01921 0.06949,0.03286 0.103516,0.05078 -3.57e-4,0.01699 -0.0038,0.03377 -0.0039,0.05078 0.0339,0.0195 0.07092,0.03261 0.105469,0.05078 -3.35e-4,0.01642 -0.0038,0.03239 -0.0039,0.04883 0.03389,0.0195 0.07091,0.03261 0.105469,0.05078 -3.57e-4,0.01699 -0.0038,0.03377 -0.0039,0.05078 0.0343,0.01973 0.0705,0.03436 0.105469,0.05273 -3.35e-4,0.01642 -0.0038,0.03239 -0.0039,0.04883 0.0343,0.01973 0.0705,0.03436 0.105469,0.05273 -3.36e-4,0.01642 -0.0038,0.03239 -0.0039,0.04883 0.03389,0.0195 0.07091,0.03261 0.105469,0.05078 -3.81e-4,0.01763 -0.0038,0.03508 -0.0039,0.05273 0.03465,0.01994 0.07208,0.03418 0.107422,0.05273 -3.57e-4,0.01699 -0.0038,0.03377 -0.0039,0.05078 0.03465,0.01994 0.07208,0.03418 0.107421,0.05273 -3.56e-4,0.01699 -0.0038,0.03377 -0.0039,0.05078 0.03516,0.02023 0.07351,0.03393 0.109375,0.05273 -3.56e-4,0.01698 -0.0038,0.03377 -0.0039,0.05078 0.0348,0.02003 0.07192,0.03411 0.107422,0.05273 -3.6e-4,0.01707 -0.0038,0.03369 -0.0039,0.05078 0.03516,0.02023 0.07351,0.03393 0.109374,0.05273 -3.84e-4,0.01772 -0.0038,0.03499 -0.0039,0.05273 0.03516,0.02023 0.07351,0.03393 0.109375,0.05273 -3.84e-4,0.01772 -0.0038,0.03499 -0.0039,0.05273 0.03516,0.02023 0.07351,0.03393 0.109375,0.05273 -3.84e-4,0.01772 -0.0038,0.03499 -0.0039,0.05273 0.03592,0.02067 0.07467,0.03551 0.111328,0.05469 -3.81e-4,0.01763 -0.0038,0.03508 -0.0039,0.05273 0.03557,0.02047 0.07308,0.03569 0.109375,0.05469 -3.81e-4,0.01763 -0.0038,0.03508 -0.0039,0.05273 0.03592,0.02067 0.07467,0.03551 0.111328,0.05469 -3.8e-4,0.01763 -0.0038,0.03508 -0.0039,0.05273 0.03642,0.02096 0.0761,0.03526 0.113282,0.05469 -3.81e-4,0.01763 -0.0038,0.03508 -0.0039,0.05273 0.03608,0.02076 0.07451,0.03543 0.111328,0.05469 -3.84e-4,0.01772 -0.0038,0.03499 -0.0039,0.05273 0.03642,0.02096 0.0761,0.03526 0.113281,0.05469 -4.09e-4,0.01837 -0.0038,0.03629 -0.0039,0.05469 0.03684,0.0212 0.07567,0.03701 0.113281,0.05664 -3.84e-4,0.01772 -0.0038,0.03499 -0.0039,0.05273 0.03684,0.0212 0.07567,0.03701 0.113281,0.05664 -3.84e-4,0.01772 -0.0038,0.03499 -0.0039,0.05273 0.03642,0.02096 0.0761,0.03526 0.113281,0.05469 -4.32e-4,0.01893 -0.0038,0.03768 -0.0039,0.05664 0.03718,0.02139 0.07726,0.03684 0.115235,0.05664 -3.85e-4,0.01772 -0.0038,0.03499 -0.0039,0.05273 0.03718,0.02139 0.07726,0.03684 0.115235,0.05664 -4.1e-4,0.01837 -0.0038,0.03629 -0.0039,0.05469 0.03718,0.02139 0.07726,0.03684 0.115235,0.05664 -4.1e-4,0.01837 -0.0038,0.03629 -0.0039,0.05469 0.03718,0.02139 0.07726,0.03684 0.115234,0.05664 -4.32e-4,0.01893 -0.0038,0.03768 -0.0039,0.05664 0.03769,0.02169 0.07869,0.0366 0.117187,0.05664 -4.1e-4,0.01837 -0.0038,0.03629 -0.0039,0.05469 0.03786,0.02178 0.07851,0.03847 0.117187,0.05859 -4.09e-4,0.01837 -0.0038,0.03629 -0.0039,0.05469 0.03794,0.02183 0.07843,0.03843 0.117188,0.05859 -4.33e-4,0.01893 -0.0038,0.03768 -0.0039,0.05664 0.03844,0.02212 0.07985,0.03818 0.119141,0.05859 -4.06e-4,0.01828 -0.0038,0.03638 -0.0039,0.05469 0.03811,0.02193 0.07825,0.03835 0.117187,0.05859 -4.32e-4,0.01893 -0.0038,0.03768 -0.0039,0.05664 0.03844,0.02212 0.07985,0.03818 0.119141,0.05859 -4.1e-4,0.01837 -0.0038,0.03629 -0.0039,0.05469 0.03836,0.02207 0.07994,0.03822 0.119141,0.05859 -4.59e-4,0.01958 -0.0038,0.03898 -0.0039,0.05859 0.03895,0.02241 0.08127,0.03794 0.121094,0.05859 -4.33e-4,0.01893 -0.0038,0.03768 -0.0039,0.05664 0.03862,0.02222 0.07967,0.0381 0.119141,0.05859 -4.59e-4,0.01958 -0.0038,0.03898 -0.0039,0.05859 0.03895,0.02241 0.08127,0.03794 0.121093,0.05859 -4.36e-4,0.01902 -0.0038,0.03759 -0.0039,0.05664 0.0392,0.02256 0.08101,0.03977 0.121094,0.06055 -4.36e-4,0.01902 -0.0038,0.03759 -0.0039,0.05664 0.03962,0.0228 0.08253,0.03956 0.123047,0.06055 -4.6e-4,0.01959 -0.0038,0.03898 -0.0039,0.05859 0.03938,0.02266 0.08083,0.03968 0.121094,0.06055 -4.36e-4,0.01902 -0.0038,0.03759 -0.0039,0.05664 0.03971,0.02285 0.08244,0.03952 0.123047,0.06055 -4.64e-4,0.01968 -0.0038,0.03889 -0.0039,0.05859 0.681385,0.392081 1.50071,0.514121 2.283203,0.322265 0.02658,0.02684 0.05644,0.05031 0.08398,0.07617 0.03398,0.03527 0.06791,0.06988 0.103515,0.103516 0.0345,0.03605 0.06928,0.0711 0.105469,0.105469 0.03787,0.03982 0.07532,0.07942 0.115235,0.117187 0.03694,0.03868 0.0744,0.07654 0.113281,0.113281 0.03706,0.0388 0.07427,0.07643 0.113281,0.113282 0.03665,0.03837 0.07277,0.07682 0.111328,0.113281 0.03855,0.04039 0.07848,0.07891 0.119141,0.117187 0.03378,0.03526 0.06812,0.06987 0.103515,0.103516 0.03997,0.04214 0.08079,0.08319 0.123047,0.123047 0.03699,0.03872 0.07435,0.0765 0.113282,0.113281 0.03978,0.04172 0.08102,0.08163 0.123047,0.121094 0.03413,0.0356 0.06774,0.07152 0.103515,0.105469 0.04002,0.0422 0.08073,0.08314 0.123047,0.123047 0.03789,0.03973 0.07531,0.0795 0.115234,0.117187 0.03788,0.03976 0.07726,0.07752 0.117188,0.115234 0.0394,0.0414 0.07948,0.08191 0.121094,0.121094 0.04048,0.04244 0.0822,0.08294 0.125,0.123047 0.201908,0.210646 0.429602,0.397351 0.683593,0.544922 0.922681,-0.536082 1.546875,-1.531452 1.546875,-2.675781 0,-0.164949 -0.01523,-0.330441 -0.04102,-0.490235 0.123711,0.103094 0.25606,0.196822 0.40039,0.279297 0.989691,0.572164 2.165915,0.530927 3.09375,0 -0.004,-0.838016 -0.342737,-1.645114 -0.957031,-2.230469 -0.03839,-0.04088 -0.07826,-0.08019 -0.11914,-0.11914 -0.03591,-0.03818 -0.07325,-0.07483 -0.111329,-0.111328 -0.04143,-0.04433 -0.08456,-0.08684 -0.128906,-0.128907 -0.03411,-0.03613 -0.0694,-0.07085 -0.105469,-0.105468 -0.04172,-0.04464 -0.08423,-0.08851 -0.128906,-0.13086 -0.03346,-0.03535 -0.06818,-0.06961 -0.103516,-0.103515 -0.02333,-0.02495 -0.0441,-0.05193 -0.06836,-0.07617 0.05851,-0.02815 0.118566,-0.04934 0.175781,-0.08203 0.989691,-0.56701 1.54172,-1.59846 1.546875,-2.675781 -0.03971,-0.02285 -0.08244,-0.03952 -0.123047,-0.06055 4.56e-4,-0.01958 0.0038,-0.03898 0.0039,-0.05859 -0.03971,-0.02285 -0.08244,-0.03952 -0.123047,-0.06055 4.32e-4,-0.01903 0.0038,-0.03758 0.0039,-0.05664 -0.03938,-0.02266 -0.08083,-0.03968 -0.121094,-0.06055 4.33e-4,-0.01902 0.0038,-0.03759 0.0039,-0.05664 -0.03912,-0.02251 -0.0811,-0.03981 -0.121094,-0.06055 4.55e-4,-0.01958 0.0038,-0.03898 0.0039,-0.05859 -0.03895,-0.02241 -0.08127,-0.03794 -0.121094,-0.05859 4.33e-4,-0.01902 0.0038,-0.03759 0.0039,-0.05664 -0.03844,-0.02212 -0.07985,-0.03818 -0.119141,-0.05859 4.59e-4,-0.01967 0.0038,-0.03889 0.0039,-0.05859 -0.03895,-0.02241 -0.08127,-0.03793 -0.121093,-0.05859 4.32e-4,-0.01902 0.0038,-0.03759 0.0039,-0.05664 -0.03844,-0.02212 -0.07985,-0.03818 -0.119141,-0.05859 4.55e-4,-0.01958 0.0038,-0.03898 0.0039,-0.05859 -0.03844,-0.02212 -0.07985,-0.03818 -0.11914,-0.05859 4.06e-4,-0.01837 0.0038,-0.03629 0.0039,-0.05469 -0.03794,-0.02183 -0.07843,-0.03843 -0.117187,-0.05859 4.32e-4,-0.01902 0.0038,-0.03759 0.0039,-0.05664 -0.03844,-0.02212 -0.07985,-0.03818 -0.119141,-0.05859 4.06e-4,-0.01837 0.0038,-0.03629 0.0039,-0.05469 -0.03794,-0.02183 -0.07843,-0.03843 -0.117187,-0.05859 4.28e-4,-0.01893 0.0038,-0.03768 0.0039,-0.05664 -0.03769,-0.02169 -0.07869,-0.0366 -0.117187,-0.05664 4.06e-4,-0.01837 0.0038,-0.03629 0.0039,-0.05469 -0.03786,-0.02178 -0.07851,-0.03847 -0.117188,-0.05859 4.07e-4,-0.01837 0.0038,-0.03629 0.0039,-0.05469 -0.03734,-0.02149 -0.07709,-0.03676 -0.115235,-0.05664 4.29e-4,-0.01893 0.0038,-0.03768 0.0039,-0.05664 -0.03718,-0.02139 -0.07726,-0.03684 -0.115235,-0.05664 4.03e-4,-0.01828 0.0038,-0.03638 0.0039,-0.05469 -0.03718,-0.02139 -0.07726,-0.03684 -0.115234,-0.05664 4.03e-4,-0.01828 0.0038,-0.03638 0.0039,-0.05469 -0.03718,-0.02139 -0.07726,-0.03684 -0.115234,-0.05664 3.81e-4,-0.01772 0.0038,-0.03499 0.0039,-0.05273 -0.03683,-0.0212 -0.07567,-0.03701 -0.113281,-0.05664 4.03e-4,-0.01828 0.0038,-0.03638 0.0039,-0.05469 -0.03642,-0.02096 -0.0761,-0.03526 -0.113281,-0.05469 4.06e-4,-0.01837 0.0038,-0.03629 0.0039,-0.05469 -0.03642,-0.02096 -0.0761,-0.03526 -0.113281,-0.05469 4.06e-4,-0.01837 0.0038,-0.03629 0.0039,-0.05469 -0.03642,-0.02096 -0.0761,-0.03526 -0.113281,-0.05469 4.03e-4,-0.01828 0.0038,-0.03638 0.0039,-0.05469 -0.03592,-0.02067 -0.07467,-0.03551 -0.111328,-0.05469 3.81e-4,-0.01772 0.0038,-0.03499 0.0039,-0.05273 -0.03642,-0.02096 -0.0761,-0.03526 -0.113281,-0.05469 3.81e-4,-0.01772 0.0038,-0.03499 0.0039,-0.05273 -0.03607,-0.02076 -0.07451,-0.03543 -0.111328,-0.05469 3.81e-4,-0.01772 0.0038,-0.03499 0.0039,-0.05273 -0.03557,-0.02046 -0.07308,-0.03568 -0.109375,-0.05469 3.81e-4,-0.01772 0.0038,-0.03499 0.0039,-0.05273 -0.03592,-0.02067 -0.07467,-0.03551 -0.111328,-0.05469 3.77e-4,-0.01763 0.0038,-0.03508 0.0039,-0.05273 -0.03516,-0.02023 -0.07351,-0.03393 -0.109375,-0.05273 3.77e-4,-0.01763 0.0038,-0.03508 0.0039,-0.05273 -0.03516,-0.02023 -0.07351,-0.03393 -0.109375,-0.05273 3.78e-4,-0.01763 0.0038,-0.03508 0.0039,-0.05273 -0.03516,-0.02023 -0.07351,-0.03393 -0.109375,-0.05273 3.78e-4,-0.01763 0.0038,-0.03508 0.0039,-0.05273 -0.03465,-0.01994 -0.07208,-0.03418 -0.107422,-0.05273 3.56e-4,-0.01706 0.0038,-0.03369 0.0039,-0.05078 -0.03516,-0.02023 -0.07351,-0.03393 -0.109375,-0.05273 3.56e-4,-0.01706 0.0038,-0.03369 0.0039,-0.05078 -0.0348,-0.02003 -0.07192,-0.03411 -0.107422,-0.05273 3.57e-4,-0.01706 0.0038,-0.03369 0.0039,-0.05078 -0.03465,-0.01994 -0.07208,-0.03418 -0.107422,-0.05273 3.56e-4,-0.01706 0.0038,-0.03369 0.0039,-0.05078 -0.0343,-0.01973 -0.0705,-0.03436 -0.105469,-0.05273 3.53e-4,-0.01698 0.0038,-0.03377 0.0039,-0.05078 -0.03389,-0.0195 -0.07091,-0.03261 -0.105468,-0.05078 3.56e-4,-0.01706 0.0038,-0.03369 0.0039,-0.05078 -0.03389,-0.0195 -0.07091,-0.03261 -0.105469,-0.05078 3.56e-4,-0.01706 0.0038,-0.03369 0.0039,-0.05078 -0.03389,-0.0195 -0.07091,-0.03261 -0.105468,-0.05078 3.56e-4,-0.01706 0.0038,-0.03369 0.0039,-0.05078 -0.03389,-0.0195 -0.07091,-0.03261 -0.105469,-0.05078 3.33e-4,-0.01641 0.0038,-0.03239 0.0039,-0.04883 -0.03339,-0.01921 -0.06949,-0.03286 -0.103515,-0.05078 3.53e-4,-0.01698 0.0038,-0.03377 0.0039,-0.05078 -0.03339,-0.01921 -0.06949,-0.03286 -0.103516,-0.05078 3.3e-4,-0.01633 0.0038,-0.03247 0.0039,-0.04883 -0.03339,-0.01921 -0.06949,-0.03286 -0.103516,-0.05078 3.3e-4,-0.01633 0.0038,-0.03247 0.0039,-0.04883 -0.03339,-0.01921 -0.06949,-0.03286 -0.103515,-0.05078 3.09e-4,-0.01576 0.0038,-0.03109 0.0039,-0.04687 -0.03302,-0.019 -0.06791,-0.03304 -0.101563,-0.05078 3.3e-4,-0.01633 0.0038,-0.03247 0.0039,-0.04883 -0.03263,-0.01878 -0.06832,-0.03128 -0.101563,-0.04883 3.3e-4,-0.01633 0.0038,-0.03247 0.0039,-0.04883 -0.03263,-0.01878 -0.06832,-0.03128 -0.101562,-0.04883 3.3e-4,-0.01633 0.0038,-0.03247 0.0039,-0.04883 -0.03263,-0.01878 -0.06832,-0.03128 -0.101562,-0.04883 3.09e-4,-0.01576 0.0038,-0.03109 0.0039,-0.04687 -0.03226,-0.01856 -0.06675,-0.03147 -0.09961,-0.04883 3.29e-4,-0.01633 0.0038,-0.03247 0.0039,-0.04883 -0.03212,-0.01848 -0.06689,-0.03154 -0.09961,-0.04883 3.07e-4,-0.01568 0.0038,-0.03117 0.0039,-0.04688 -0.03212,-0.01848 -0.06689,-0.03154 -0.09961,-0.04883 3.07e-4,-0.01568 0.0038,-0.03117 0.0039,-0.04687 -0.03212,-0.01848 -0.06689,-0.03154 -0.09961,-0.04883 2.88e-4,-0.01511 0.0038,-0.02979 0.0039,-0.04492 -0.03175,-0.01827 -0.06532,-0.03172 -0.09766,-0.04883 3.07e-4,-0.01568 0.0038,-0.03117 0.0039,-0.04687 -0.03137,-0.01805 -0.06572,-0.02996 -0.09766,-0.04687 3.07e-4,-0.01568 0.0038,-0.03117 0.0039,-0.04687 -0.03137,-0.01805 -0.06572,-0.02996 -0.09766,-0.04687 3.07e-4,-0.01568 0.0038,-0.03117 0.0039,-0.04687 -0.03137,-0.01805 -0.06572,-0.02996 -0.09766,-0.04687 2.88e-4,-0.01511 0.0038,-0.02979 0.0039,-0.04492 -0.03099,-0.01783 -0.06416,-0.03015 -0.0957,-0.04687 3.07e-4,-0.01568 0.0038,-0.03117 0.0039,-0.04687 -0.03086,-0.01776 -0.0643,-0.03022 -0.0957,-0.04687 2.88e-4,-0.01511 0.0038,-0.02979 0.0039,-0.04492 -0.03086,-0.01776 -0.0643,-0.03022 -0.0957,-0.04687 2.85e-4,-0.01504 0.0038,-0.02987 0.0039,-0.04492 -0.03086,-0.01776 -0.0643,-0.03022 -0.0957,-0.04687 2.66e-4,-0.01446 0.0038,-0.02849 0.0039,-0.04297 -0.03028,-0.01743 -0.06294,-0.03051 -0.09375,-0.04687 2.87e-4,-0.01511 0.0038,-0.02979 0.0039,-0.04492 -0.03086,-0.01776 -0.0643,-0.03022 -0.0957,-0.04687 2.66e-4,-0.01446 0.0038,-0.02849 0.0039,-0.04297 -0.02972,-0.0171 -0.06156,-0.02884 -0.0918,-0.04492 2.88e-4,-0.01511 0.0038,-0.02979 0.0039,-0.04492 -0.0301,-0.01732 -0.06313,-0.02865 -0.09375,-0.04492 2.85e-4,-0.01504 0.0038,-0.02987 0.0039,-0.04492 -0.02959,-0.01703 -0.0617,-0.0289 -0.0918,-0.04492 2.65e-4,-0.01441 0.0019,-0.02854 0.002,-0.04297 -0.02972,-0.0171 -0.06156,-0.02884 -0.0918,-0.04492 2.85e-4,-0.01504 0.0038,-0.02987 0.0039,-0.04492 -0.02909,-0.01674 -0.06027,-0.02916 -0.08984,-0.04492 2.44e-4,-0.01376 0.0019,-0.02724 0.002,-0.04102 -0.02902,-0.0167 -0.06033,-0.0292 -0.08984,-0.04492 2.65e-4,-0.01441 0.0019,-0.02854 0.002,-0.04297 -0.02921,-0.01681 -0.06014,-0.0291 -0.08984,-0.04492 2.65e-4,-0.01439 0.0038,-0.02856 0.0039,-0.04297 -0.02833,-0.0163 -0.0591,-0.02759 -0.08789,-0.04297 2.65e-4,-0.01441 0.0019,-0.02854 0.002,-0.04297 -0.02833,-0.0163 -0.0591,-0.0276 -0.08789,-0.04297 2.64e-4,-0.01441 0.0019,-0.02854 0.002,-0.04297 -0.02833,-0.0163 -0.0591,-0.02759 -0.08789,-0.04297 2.63e-4,-0.01434 0.0019,-0.02861 0.002,-0.04297 -0.02833,-0.0163 -0.0591,-0.0276 -0.08789,-0.04297 2.44e-4,-0.01376 0.0019,-0.02724 0.002,-0.04102 -0.02794,-0.01608 -0.05754,-0.02779 -0.08594,-0.04297 2.63e-4,-0.01434 0.0019,-0.02861 0.002,-0.04297 -0.02782,-0.01601 -0.05767,-0.02785 -0.08594,-0.04297 2.42e-4,-0.01369 0.0019,-0.02731 0.002,-0.04102 -0.02782,-0.01601 -0.05767,-0.02785 -0.08594,-0.04297 2.25e-4,-0.01311 0.0019,-0.02594 0.002,-0.03906 -0.02706,-0.01557 -0.0565,-0.02629 -0.08398,-0.04102 2.65e-4,-0.01441 0.0019,-0.02854 0.002,-0.04297 -0.02782,-0.01601 -0.05767,-0.02785 -0.08594,-0.04297 2.25e-4,-0.01311 0.0019,-0.02594 0.002,-0.03906 -0.02718,-0.01564 -0.05637,-0.02623 -0.08398,-0.04102 2.44e-4,-0.01376 0.0019,-0.02724 0.002,-0.04101 -0.02667,-0.01535 -0.05495,-0.02649 -0.08203,-0.04102 2.44e-4,-0.01376 0.0019,-0.02724 0.002,-0.04102 -0.02706,-0.01557 -0.0565,-0.02629 -0.08398,-0.04101 2.43e-4,-0.01369 0.0019,-0.02731 0.002,-0.04102 -0.02656,-0.01528 -0.05507,-0.02655 -0.08203,-0.04101 2.25e-4,-0.01311 0.0019,-0.02594 0.002,-0.03906 -0.02656,-0.01528 -0.05507,-0.02655 -0.08203,-0.04101 2.25e-4,-0.01311 0.0019,-0.02594 0.002,-0.03906 -0.02656,-0.01528 -0.05507,-0.02655 -0.08203,-0.04102 2.25e-4,-0.01311 0.0019,-0.02594 0.002,-0.03906 -0.02656,-0.01528 -0.05507,-0.02655 -0.08203,-0.04102 2.06e-4,-0.01246 0.0019,-0.02464 0.002,-0.03711 -0.02599,-0.01496 -0.05369,-0.02684 -0.08008,-0.04102 2.24e-4,-0.01311 0.0019,-0.02594 0.002,-0.03906 -0.0258,-0.01485 -0.05389,-0.02499 -0.08008,-0.03906 2.24e-4,-0.01311 0.0019,-0.02594 0.002,-0.03906 -0.0258,-0.01485 -0.05389,-0.02499 -0.08008,-0.03906 2.23e-4,-0.01304 0.0019,-0.026 0.002,-0.03906 -0.0258,-0.01485 -0.05389,-0.02499 -0.08008,-0.03906 2.06e-4,-0.01246 0.0019,-0.02464 0.002,-0.03711 -0.02529,-0.01455 -0.05246,-0.02525 -0.07813,-0.03906 2.23e-4,-0.01304 0.0019,-0.026 0.002,-0.03906 -0.02529,-0.01455 -0.05246,-0.02525 -0.07813,-0.03906 2.06e-4,-0.01245 0.0019,-0.02464 0.002,-0.03711 -0.02529,-0.01455 -0.05246,-0.02525 -0.07813,-0.03906 2.04e-4,-0.01239 0.0019,-0.0247 0.002,-0.03711 -0.02529,-0.01455 -0.05246,-0.02525 -0.07813,-0.03906 1.88e-4,-0.0118 0.0019,-0.02334 0.002,-0.03516 -0.02473,-0.01423 -0.05109,-0.02554 -0.07617,-0.03906 2.05e-4,-0.01245 0.0019,-0.02464 0.002,-0.03711 -0.02454,-0.01412 -0.05129,-0.02369 -0.07617,-0.03711 2.06e-4,-0.01246 0.0019,-0.02464 0.002,-0.03711 -0.02454,-0.01412 -0.05129,-0.02369 -0.07617,-0.03711 2.06e-4,-0.01245 0.0019,-0.02464 0.002,-0.03711 -0.02453,-0.01412 -0.05129,-0.02369 -0.07617,-0.03711 2.04e-4,-0.0124 0.0019,-0.0247 0.002,-0.03711 -0.02403,-0.01383 -0.04986,-0.02395 -0.07422,-0.03711 1.87e-4,-0.0118 0.0019,-0.02334 0.002,-0.03516 -0.02454,-0.01412 -0.05129,-0.02369 -0.07617,-0.03711 1.88e-4,-0.0118 0.0019,-0.02334 0.002,-0.03516 -0.02413,-0.01389 -0.04975,-0.02389 -0.07422,-0.03711 1.88e-4,-0.0118 0.0019,-0.02334 0.002,-0.03516 -0.02337,-0.01345 -0.04858,-0.02234 -0.07227,-0.03516 2.06e-4,-0.01246 0.0019,-0.02464 0.002,-0.03711 -0.02403,-0.01383 -0.04986,-0.02395 -0.07422,-0.03711 1.71e-4,-0.01115 0.0019,-0.02204 0.002,-0.0332 -0.02337,-0.01345 -0.04858,-0.02234 -0.07227,-0.03516 1.87e-4,-0.0118 0.0019,-0.02334 0.002,-0.03516 -0.02322,-0.01336 -0.04873,-0.02242 -0.07227,-0.03516 1.88e-4,-0.0118 0.0019,-0.02334 0.002,-0.03516 -0.02327,-0.01339 -0.04868,-0.02239 -0.07227,-0.03516 1.87e-4,-0.0118 0.0019,-0.02334 0.002,-0.03516 -0.02286,-0.01316 -0.04715,-0.0226 -0.07031,-0.03516 1.87e-4,-0.01175 0.0019,-0.0234 0.002,-0.03516 -0.02276,-0.0131 -0.04725,-0.02266 -0.07031,-0.03516 1.7e-4,-0.01115 0.0019,-0.02204 0.002,-0.0332 -0.02276,-0.0131 -0.04725,-0.02266 -0.07031,-0.03516 1.7e-4,-0.01115 0.0019,-0.02204 0.002,-0.0332 -0.02276,-0.0131 -0.04725,-0.02266 -0.07031,-0.03516 1.69e-4,-0.0111 0.0019,-0.0221 0.002,-0.0332 -0.02201,-0.01266 -0.04607,-0.0211 -0.06836,-0.0332 1.7e-4,-0.01115 0.0019,-0.02204 0.002,-0.0332 -0.02276,-0.0131 -0.04725,-0.02266 -0.07031,-0.03516 1.55e-4,-0.0105 0.0019,-0.02074 0.002,-0.03125 -0.02201,-0.01266 -0.04607,-0.0211 -0.06836,-0.0332 1.71e-4,-0.01115 0.0019,-0.02204 0.002,-0.0332 -0.0215,-0.01237 -0.04464,-0.02137 -0.06641,-0.0332 1.71e-4,-0.01115 0.0019,-0.02204 0.002,-0.0332 -0.02201,-0.01266 -0.04607,-0.0211 -0.06836,-0.0332 1.69e-4,-0.0111 0.0019,-0.0221 0.002,-0.0332 -0.0215,-0.01237 -0.04464,-0.02137 -0.06641,-0.0332 1.54e-4,-0.0105 0.0019,-0.02074 0.002,-0.03125 -0.0215,-0.01237 -0.04464,-0.02137 -0.06641,-0.0332 1.54e-4,-0.0105 0.0019,-0.02074 0.002,-0.03125 -0.0215,-0.01237 -0.04464,-0.02137 -0.06641,-0.0332 1.52e-4,-0.01045 0.0019,-0.02079 0.002,-0.03125 -0.0215,-0.01237 -0.04464,-0.02137 -0.06641,-0.0332 1.39e-4,-0.0098 0.0019,-0.01944 0.002,-0.0293 -0.02083,-0.01199 -0.04337,-0.01976 -0.06445,-0.03125 1.7e-4,-0.01109 0.0019,-0.0221 0.002,-0.0332 -0.02074,-0.01193 -0.04346,-0.01981 -0.06445,-0.03125 1.53e-4,-0.01045 0.0019,-0.02079 0.002,-0.03125 -0.02074,-0.01193 -0.04346,-0.01981 -0.06445,-0.03125 1.39e-4,-0.0098 0.0019,-0.01944 0.002,-0.0293 -0.02019,-0.01162 -0.04207,-0.0201 -0.0625,-0.03125 1.54e-4,-0.0105 0.0019,-0.02074 0.002,-0.03125 -0.02074,-0.01193 -0.04346,-0.01981 -0.06445,-0.03125 1.38e-4,-0.0098 0.0019,-0.01944 0.002,-0.0293 -0.02023,-0.01164 -0.04203,-0.02008 -0.0625,-0.03125 1.38e-4,-0.0098 0.0019,-0.01945 0.002,-0.0293 -0.02019,-0.01162 -0.04207,-0.0201 -0.0625,-0.03125 1.38e-4,-0.0098 0.0019,-0.01944 0.002,-0.0293 -0.01956,-0.01126 -0.04076,-0.01848 -0.06055,-0.0293 1.54e-4,-0.0105 0.0019,-0.02074 0.002,-0.03125 -0.02023,-0.01164 -0.04203,-0.02008 -0.0625,-0.03125 1.24e-4,-0.0092 0.0019,-0.01815 0.002,-0.02734 -0.01956,-0.01126 -0.04076,-0.01848 -0.06055,-0.0293 1.39e-4,-0.0098 0.0019,-0.01944 0.002,-0.0293 -0.01948,-0.01121 -0.04085,-0.01853 -0.06055,-0.0293 1.38e-4,-0.0098 0.0019,-0.01945 0.002,-0.0293 -0.01905,-0.01096 -0.03933,-0.01875 -0.05859,-0.0293 1.38e-4,-0.0098 0.0019,-0.01944 0.002,-0.0293 -0.01948,-0.01121 -0.04085,-0.01853 -0.06055,-0.0293 1.24e-4,-0.0092 0.0019,-0.01815 0.002,-0.02734 -0.01905,-0.01096 -0.03933,-0.01875 -0.05859,-0.0293 1.23e-4,-0.0092 0.0019,-0.01814 0.002,-0.02734 -0.01897,-0.01091 -0.03941,-0.0188 -0.05859,-0.0293 1.24e-4,-0.0092 0.0019,-0.01815 0.002,-0.02734 -0.01829,-0.01052 -0.03815,-0.0172 -0.05664,-0.02734 1.39e-4,-0.0098 0.0019,-0.01944 0.002,-0.0293 -0.01897,-0.01092 -0.03942,-0.0188 -0.05859,-0.0293 1.09e-4,-0.0085 0.0019,-0.01685 0.002,-0.02539 -0.01829,-0.01052 -0.03815,-0.0172 -0.05664,-0.02734 1.24e-4,-0.0092 0.0019,-0.01815 0.002,-0.02734 -0.01817,-0.01046 -0.03828,-0.01727 -0.05664,-0.02734 1.23e-4,-0.0092 0.0019,-0.01814 0.002,-0.02734 -0.0177,-0.01019 -0.0368,-0.01752 -0.05469,-0.02734 1.24e-4,-0.0092 0.0019,-0.01815 0.002,-0.02734 -0.01821,-0.01048 -0.03824,-0.01725 -0.05664,-0.02734 1.1e-4,-0.0085 0.0019,-0.01685 0.002,-0.02539 -0.01767,-0.01017 -0.03684,-0.01754 -0.05469,-0.02734 1.22e-4,-0.0091 0.0019,-0.01819 0.002,-0.02734 -0.0177,-0.01019 -0.0368,-0.01752 -0.05469,-0.02734 1.09e-4,-0.0085 0.0019,-0.01689 0.002,-0.02539 -0.0177,-0.01019 -0.0368,-0.01752 -0.05469,-0.02734 9.6e-5,-0.0079 0.0019,-0.01555 0.002,-0.02344 -0.01702,-0.0098 -0.03554,-0.01593 -0.05273,-0.02539 1.22e-4,-0.0091 0.0019,-0.01819 0.002,-0.02734 -0.01695,-0.0098 -0.03562,-0.01597 -0.05273,-0.02539 1.1e-4,-0.0085 0.0019,-0.01685 0.002,-0.02539 -0.01695,-0.0098 -0.03562,-0.01597 -0.05273,-0.02539 1.1e-4,-0.0085 0.0019,-0.01685 0.002,-0.02539 -0.01695,-0.0098 -0.03562,-0.01597 -0.05273,-0.02539 1.09e-4,-0.0085 0.0019,-0.01689 0.002,-0.02539 -0.01695,-0.0098 -0.03562,-0.01597 -0.05273,-0.02539 9.6e-5,-0.0079 0.0019,-0.01555 0.002,-0.02344 -0.01651,-0.0095 -0.03411,-0.0162 -0.05078,-0.02539 9.6e-5,-0.0079 0.0019,-0.01555 0.002,-0.02344 -0.01644,-0.0095 -0.03418,-0.01624 -0.05078,-0.02539 9.7e-5,-0.0079 0.0019,-0.01555 0.002,-0.02344 -0.01568,-0.009 -0.033,-0.0147 -0.04883,-0.02344 1.1e-4,-0.0085 0.0019,-0.01685 0.002,-0.02539 -0.01644,-0.0095 -0.03418,-0.01624 -0.05078,-0.02539 9.6e-5,-0.0078 0.0019,-0.01558 0.002,-0.02344 -0.01568,-0.009 -0.033,-0.0147 -0.04883,-0.02344 9.7e-5,-0.0079 0.0019,-0.01555 0.002,-0.02344 -0.01568,-0.009 -0.033,-0.0147 -0.04883,-0.02344 9.7e-5,-0.0079 0.0019,-0.01555 0.002,-0.02344 -0.01568,-0.009 -0.033,-0.0147 -0.04883,-0.02344 9.6e-5,-0.0078 0.0019,-0.01558 0.002,-0.02344 -0.01568,-0.009 -0.033,-0.0147 -0.04883,-0.02344 8.4e-5,-0.0072 0.0019,-0.01425 0.002,-0.02149 -0.01524,-0.0088 -0.0315,-0.01493 -0.04687,-0.02344 8.4e-5,-0.0072 0.0019,-0.01425 0.002,-0.02149 -0.01514,-0.0087 -0.0316,-0.01499 -0.04688,-0.02344 8.4e-5,-0.0072 0.0019,-0.01425 0.002,-0.02148 -0.01514,-0.0087 -0.0316,-0.01499 -0.04687,-0.02344 8.4e-5,-0.0072 0.0019,-0.01425 0.002,-0.02148 -0.01448,-0.0083 -0.03032,-0.01339 -0.04492,-0.02149 9.6e-5,-0.0079 0.0019,-0.01555 0.002,-0.02344 -0.01517,-0.0087 -0.03157,-0.01497 -0.04687,-0.02344 7.2e-5,-0.0066 0.0019,-0.01295 0.002,-0.01953 -0.01448,-0.0083 -0.03032,-0.01339 -0.04492,-0.02148 8.4e-5,-0.0072 0.0019,-0.01425 0.002,-0.02149 -0.01397,-0.008 -0.02888,-0.01367 -0.04297,-0.02148 8.4e-5,-0.0072 0.0019,-0.01425 0.002,-0.02148 -0.01442,-0.0083 -0.03038,-0.01343 -0.04492,-0.02149 8.3e-5,-0.0072 0.0019,-0.01428 0.002,-0.02148 -0.01391,-0.008 -0.02895,-0.0137 -0.04297,-0.02148 7.3e-5,-0.0066 0.0019,-0.01295 0.002,-0.01953 -0.01391,-0.008 -0.02895,-0.0137 -0.04297,-0.02148 7.2e-5,-0.0066 0.0019,-0.01295 0.002,-0.01953 -0.01391,-0.008 -0.02895,-0.0137 -0.04297,-0.02149 7.2e-5,-0.0066 0.0019,-0.01295 0.002,-0.01953 -0.01391,-0.008 -0.02895,-0.0137 -0.04297,-0.02148 6.2e-5,-0.0059 0.0019,-0.01165 0.002,-0.01758 -0.01312,-0.0076 -0.02779,-0.01218 -0.04102,-0.01953 8.4e-5,-0.0072 0.0019,-0.01425 0.002,-0.02148 -0.01315,-0.0076 -0.02776,-0.01216 -0.04102,-0.01953 7.3e-5,-0.0066 0.0019,-0.01295 0.002,-0.01953 -0.01315,-0.0076 -0.02776,-0.01216 -0.04102,-0.01953 7.2e-5,-0.0066 0.0019,-0.01295 0.002,-0.01953 -0.01315,-0.0076 -0.02776,-0.01216 -0.04102,-0.019531 6.2e-5,-0.00593 0.0019,-0.011649 0.002,-0.017578 -0.01262,-0.00726 -0.02635,-0.012454 -0.03906,-0.019531 7.2e-5,-0.00658 0.0019,-0.012948 0.002,-0.019531 -0.01265,-0.00728 -0.02632,-0.012439 -0.03906,-0.019531 6.1e-5,-0.00593 0.0019,-0.011649 0.002,-0.017578 -0.01265,-0.00728 -0.02632,-0.012439 -0.03906,-0.019531 6.2e-5,-0.00593 0.0019,-0.011649 0.002,-0.017578 -0.01265,-0.00728 -0.02632,-0.012439 -0.03906,-0.019531 6.1e-5,-0.0059 0.0019,-0.011677 0.002,-0.017578 -0.01189,-0.00684 -0.02514,-0.0109 -0.03711,-0.017578 6.1e-5,-0.00593 0.0019,-0.011649 0.002,-0.017578 -0.01189,-0.00684 -0.02514,-0.0109 -0.03711,-0.017578 6.2e-5,-0.00593 0.0019,-0.011649 0.002,-0.017578 -0.01189,-0.00684 -0.02514,-0.0109 -0.03711,-0.017578 6.2e-5,-0.00593 0.0019,-0.011649 0.002,-0.017578 -0.01189,-0.00684 -0.02514,-0.0109 -0.03711,-0.017578 6.1e-5,-0.0059 0.0019,-0.011677 0.002,-0.017578 -0.01189,-0.00684 -0.02514,-0.0109 -0.03711,-0.017578 5.1e-5,-0.00527 0.0019,-0.010349 0.002,-0.015625 -0.01143,-0.00658 -0.02365,-0.011151 -0.03516,-0.017578 5.2e-5,-0.00527 0.0019,-0.01035 0.002,-0.015625 -0.01143,-0.00658 -0.02365,-0.011151 -0.03516,-0.017578 5.2e-5,-0.00527 0.0019,-0.01035 0.002,-0.015625 -0.01067,-0.00614 -0.02247,-0.00962 -0.0332,-0.015625 6.2e-5,-0.00593 0.0019,-0.011649 0.002,-0.017578 -0.01138,-0.00655 -0.0237,-0.011178 -0.03516,-0.017578 4.2e-5,-0.00462 0.0019,-0.00905 0.002,-0.013672 -0.01062,-0.00611 -0.02251,-0.00964 -0.0332,-0.015625 6.1e-5,-0.0059 0.0019,-0.011678 0.002,-0.017578 -0.01062,-0.00611 -0.02251,-0.00964 -0.0332,-0.015625 5.1e-5,-0.00525 0.0019,-0.010375 0.002,-0.015625 -0.01012,-0.00582 -0.02107,-0.00992 -0.03125,-0.015625 4.2e-5,-0.00458 -2.2e-5,-0.00909 0,-0.013672 -0.01016,-0.00585 -0.02103,-0.0099 -0.03125,-0.015625 5.1e-5,-0.00525 0.0019,-0.010375 0.002,-0.015625 -0.01012,-0.00582 -0.02107,-0.00992 -0.03125,-0.015625 4.3e-5,-0.00462 0.0019,-0.00905 0.002,-0.013672 -0.01012,-0.00582 -0.02107,-0.00992 -0.03125,-0.015625 4.2e-5,-0.00462 0.0019,-0.00905 0.002,-0.013672 -0.01012,-0.00582 -0.02107,-0.00992 -0.03125,-0.015625 4.2e-5,-0.0046 0.0019,-0.00907 0.002,-0.013672 -0.0096,-0.00553 -0.01963,-0.010202 -0.0293,-0.015625 3.3e-5,-0.00392 -1.9e-5,-0.0078 0,-0.011719 -0.0094,-0.00541 -0.01984,-0.00836 -0.0293,-0.013672 5.1e-5,-0.00525 0.0019,-0.010375 0.002,-0.015625 -0.0089,-0.00509 -0.01844,-0.00867 -0.02734,-0.013672 4.1e-5,-0.00455 -2.2e-5,-0.00912 0,-0.013672 -0.0089,-0.00509 -0.01845,-0.00867 -0.02734,-0.013672 3.3e-5,-0.00392 -1.9e-5,-0.0078 0,-0.011719 -0.0089,-0.00509 -0.01845,-0.00867 -0.02734,-0.013672 4.2e-5,-0.00462 0.0019,-0.00905 0.002,-0.013672 -0.0089,-0.00509 -0.01844,-0.00867 -0.02734,-0.013672 3.4e-5,-0.00392 -1.8e-5,-0.0078 0,-0.011719 -0.0084,-0.00482 -0.01697,-0.00893 -0.02539,-0.013672 3.3e-5,-0.00392 -1.9e-5,-0.0078 0,-0.011719 -0.0076,-0.00439 -0.01578,-0.0074 -0.02344,-0.011719 4.2e-5,-0.00458 -2.2e-5,-0.00909 0,-0.013672 -0.0083,-0.0048 -0.01701,-0.00895 -0.02539,-0.013672 3.3e-5,-0.0039 -1.9e-5,-0.00781 0,-0.011719 -0.0076,-0.00437 -0.01582,-0.00742 -0.02344,-0.011719 3.3e-5,-0.00392 -1.9e-5,-0.0078 0,-0.011719 -0.0076,-0.00437 -0.01582,-0.00742 -0.02344,-0.011719 3.3e-5,-0.00392 -1.9e-5,-0.0078 0,-0.011719 -0.0076,-0.00437 -0.01582,-0.00742 -0.02344,-0.011719 3.3e-5,-0.0039 -1.9e-5,-0.00781 0,-0.011719 -0.0076,-0.00437 -0.01582,-0.00742 -0.02344,-0.011719 2.5e-5,-0.00327 -1.6e-5,-0.0065 0,-0.00977 -0.0071,-0.00407 -0.01438,-0.0077 -0.02149,-0.011719 3.3e-5,-0.0039 -1.8e-5,-0.00781 0,-0.011719 -0.0071,-0.00407 -0.01438,-0.0077 -0.02148,-0.011719 2.5e-5,-0.00325 -1.6e-5,-0.00651 0,-0.00977 -0.0071,-0.00407 -0.01437,-0.0077 -0.02148,-0.011719 2.5e-5,-0.00325 -1.6e-5,-0.00651 0,-0.00977 -0.0071,-0.00407 -0.01438,-0.0077 -0.02149,-0.011719 1.9e-5,-0.00261 -1.2e-5,-0.0052 0,-0.00781 -0.0064,-0.00365 -0.01316,-0.00616 -0.01953,-0.00977 3.3e-5,-0.0039 -1.9e-5,-0.00781 0,-0.011719 -0.0063,-0.00364 -0.01319,-0.00617 -0.01953,-0.00977 2.5e-5,-0.00325 -1.6e-5,-0.00651 0,-0.00977 -0.0063,-0.00364 -0.01319,-0.00617 -0.01953,-0.00977 2.6e-5,-0.00325 -1.5e-5,-0.00651 0,-0.00977 -0.0063,-0.00364 -0.01318,-0.00617 -0.01953,-0.00977 1.9e-5,-0.00261 -1.2e-5,-0.0052 0,-0.00781 -0.0058,-0.00336 -0.01172,-0.00644 -0.01758,-0.00977 2.6e-5,-0.00325 -1.6e-5,-0.00651 0,-0.00977 -0.0058,-0.00335 -0.01174,-0.00646 -0.01758,-0.00977 1.9e-5,-0.0026 -1.3e-5,-0.00521 0,-0.00781 -0.0058,-0.00335 -0.01174,-0.00646 -0.01758,-0.00977 1.9e-5,-0.0026 -1.3e-5,-0.00521 0,-0.00781 -0.0058,-0.00335 -0.01174,-0.00646 -0.01758,-0.00977 1.3e-5,-0.00196 -10e-6,-0.0039 0,-0.00586 -0.0051,-0.00292 -0.01053,-0.00492 -0.01563,-0.00781 2.5e-5,-0.00325 -1.6e-5,-0.00651 0,-0.00977 -0.0051,-0.00291 -0.01055,-0.00493 -0.01563,-0.00781 1.9e-5,-0.00261 -1.3e-5,-0.0052 0,-0.00781 -0.0051,-0.00291 -0.01055,-0.00493 -0.01563,-0.00781 1.8e-5,-0.0026 -1.3e-5,-0.00521 0,-0.00781 -0.0051,-0.00291 -0.01055,-0.00493 -0.01563,-0.00781 1.3e-5,-0.00196 -10e-6,-0.0039 0,-0.00586 -0.0045,-0.00261 -0.0091,-0.00522 -0.01367,-0.00781 1.9e-5,-0.00261 -1.3e-5,-0.0052 0,-0.00781 -0.0046,-0.00262 -0.0091,-0.00522 -0.01367,-0.00781 1.3e-5,-0.00196 -10e-6,-0.0039 0,-0.00586 -0.0046,-0.00262 -0.0091,-0.00522 -0.01367,-0.00781 1.3e-5,-0.00196 -9e-6,-0.0039 0,-0.00586 -0.0046,-0.00262 -0.0091,-0.00522 -0.01367,-0.00781 1.3e-5,-0.00195 -9e-6,-0.00391 0,-0.00586 -0.0046,-0.00262 -0.0091,-0.00522 -0.01367,-0.00781 8e-6,-0.00131 -6e-6,-0.0026 0,-0.00391 -0.0038,-0.00219 -0.0079,-0.00368 -0.01172,-0.00586 1.3e-5,-0.00196 -10e-6,-0.0039 0,-0.00586 -0.0038,-0.00218 -0.0079,-0.0037 -0.01172,-0.00586 1.3e-5,-0.00196 -1e-5,-0.0039 0,-0.00586 -0.0038,-0.00218 -0.0079,-0.00369 -0.01172,-0.00586 1.3e-5,-0.00196 -9e-6,-0.0039 0,-0.00586 -0.0033,-0.0019 -0.0065,-0.00397 -0.0098,-0.00586 1.3e-5,-0.00195 -9e-6,-0.00391 0,-0.00586 -0.0033,-0.00189 -0.0065,-0.00398 -0.0098,-0.00586 8e-6,-0.00131 -7e-6,-0.0026 0,-0.00391 -0.0033,-0.00189 -0.0065,-0.00398 -0.0098,-0.00586 8e-6,-0.00131 -6e-6,-0.0026 0,-0.00391 -0.0033,-0.00189 -0.0065,-0.00398 -0.0098,-0.00586 7e-6,-0.0013 -7e-6,-0.0026 0,-0.00391 -0.0033,-0.00189 -0.0065,-0.00398 -0.0098,-0.00586 0,0 0,-0.00195 0,-0.00195 -0.0025,-0.00146 -0.0053,-0.00245 -0.0078,-0.00391 8e-6,-0.00131 -6e-6,-0.0026 0,-0.00391 -0.0025,-0.00146 -0.0053,-0.00246 -0.0078,-0.00391 8e-6,-0.00131 -6e-6,-0.0026 0,-0.00391 -0.0025,-0.00146 -0.0053,-0.00246 -0.0078,-0.00391 8e-6,-0.00131 -6e-6,-0.0026 0,-0.00391 -0.002,-0.00117 -0.0038,-0.00274 -0.0059,-0.00391 8e-6,-0.0013 -6e-6,-0.0026 0,-0.00391 -0.002,-0.00116 -0.0038,-0.00275 -0.0059,-0.00391 0,0 0,-0.00195 0,-0.00195 -0.002,-0.00116 -0.0038,-0.00275 -0.0059,-0.00391 0,0 0,-0.00195 0,-0.00195 -0.002,-0.00116 -0.0038,-0.00275 -0.0059,-0.00391 0,0 0,-0.00195 0,-0.00195 -0.0018,-0.00102 -0.0041,-0.00289 -0.0059,-0.00391 -0.0013,-7.261e-4 -0.0026,-0.00123 -0.0039,-0.00195 8e-6,-0.0013 -6e-6,-0.0026 0,-0.00391 -0.0013,-7.276e-4 -0.0026,-0.00123 -0.0039,-0.00195 0,0 0,-0.00195 0,-0.00195 -0.0013,-7.277e-4 -0.0026,-0.00123 -0.0039,-0.00195 0,0 0,-0.00195 0,-0.00195 -0.0013,-7.276e-4 -0.0046,-0.00318 -0.0059,-0.00391 0,0 0,-0.00195 0,-0.00195 0,0 -0.002,-0.00195 -0.002,-0.00195 0,0 -0.002,-0.00195 -0.002,-0.00195 0,0 -0.002,0 -0.002,0 4e-6,-6.507e-4 -3e-6,-0.0013 0,-0.00195 -0.114578,-0.06593 -0.23393,-0.1232373 -0.355469,-0.1738281 -7.66e-4,-3.183e-4 -0.0012,-0.00164 -0.002,-0.00195 -0.07961,-0.033061 -0.162134,-0.055717 -0.24414,-0.082031 -0.04269,-0.01366 -0.08372,-0.031164 -0.126954,-0.042969 -5.96e-4,-1.634e-4 -0.0014,1.631e-4 -0.002,0 0,0 -0.002,-0.00195 -0.002,-0.00195 -0.255477,-0.069588 -0.518404,-0.1067977 -0.785156,-0.109375 -6.5e-4,-6.7e-6 -0.0013,6.3e-6 -0.002,0 -0.256925,-0.00232 -0.51645,0.028431 -0.771485,0.091797 -0.01397,-0.014117 -0.02678,-0.02912 -0.04101,-0.042969 -0.01424,-0.014403 -0.02845,-0.028844 -0.04297,-0.042969 -0.01425,-0.014435 -0.02844,-0.028813 -0.04297,-0.042969 -0.01229,-0.012453 -0.02461,-0.024864 -0.03711,-0.037109 -0.01809,-0.01841 -0.03614,-0.03673 -0.05469,-0.054688 -0.01206,-0.012129 -0.02485,-0.023226 -0.03711,-0.035156 -0.01137,-0.011486 -0.02166,-0.023847 -0.0332,-0.035156 -0.01809,-0.01841 -0.03614,-0.03673 -0.05469,-0.054688 -0.01105,-0.011096 -0.02199,-0.022274 -0.0332,-0.033203 -0.01362,-0.013775 -0.02714,-0.027495 -0.04101,-0.041016 -0.01296,-0.013086 -0.02587,-0.026206 -0.03906,-0.039063 -0.01296,-0.013086 -0.02587,-0.026206 -0.03906,-0.039063 -0.01296,-0.013086 -0.02587,-0.026206 -0.03906,-0.039063 -0.01268,-0.012805 -0.02616,-0.024525 -0.03906,-0.037109 -0.01202,-0.012123 -0.02294,-0.025184 -0.03516,-0.037109 -0.01232,-0.012436 -0.02458,-0.024882 -0.03711,-0.037109 -0.01232,-0.012436 -0.02458,-0.024882 -0.03711,-0.037109 -0.01234,-0.012456 -0.02456,-0.024862 -0.03711,-0.037109 -0.0091,-0.00917 -0.01813,-0.018285 -0.02734,-0.027344 -0.01458,-0.014806 -0.0281,-0.030408 -0.04297,-0.044922 -0.01362,-0.013722 -0.02715,-0.027548 -0.04102,-0.041016 -0.0068,-0.00686 -0.01458,-0.012739 -0.02148,-0.019531 -0.01588,-0.0161 -0.03065,-0.033075 -0.04687,-0.048828 -0.0091,-0.00915 -0.02004,-0.01635 -0.0293,-0.025391 -0.01075,-0.010828 -0.02034,-0.022533 -0.03125,-0.033203 -0.0104,-0.010459 -0.02071,-0.020938 -0.03125,-0.03125 -0.01105,-0.01114 -0.02198,-0.02223 -0.0332,-0.033203 -0.01042,-0.010478 -0.02069,-0.02092 -0.03125,-0.03125 -0.01042,-0.010478 -0.02069,-0.02092 -0.03125,-0.03125 -0.01042,-0.010478 -0.02069,-0.02092 -0.03125,-0.03125 -0.0049,-0.00491 -0.0088,-0.010748 -0.01367,-0.015625 -0.01418,-0.014441 -0.02851,-0.028805 -0.04297,-0.042969 -0.01233,-0.012408 -0.02457,-0.024909 -0.03711,-0.037109 -0.0068,-0.00683 -0.01458,-0.012768 -0.02149,-0.019531 -0.0098,-0.00983 -0.0194,-0.019602 -0.0293,-0.029297 -0.0091,-0.00917 -0.0181,-0.018292 -0.02734,-0.027344 -0.0091,-0.00916 -0.0181,-0.018292 -0.02734,-0.027344 -0.0091,-0.00917 -0.0181,-0.018292 -0.02734,-0.027344 -0.0085,-0.00849 -0.01682,-0.016998 -0.02539,-0.025391 -0.0085,-0.00851 -0.01682,-0.016979 -0.02539,-0.025391 -0.0049,-0.00489 -0.0088,-0.010764 -0.01367,-0.015625 -0.01616,-0.016367 -0.03231,-0.03282 -0.04883,-0.048828 -0.0036,-0.00358 -0.0081,-0.0062 -0.01172,-0.00977 -0.0078,-0.00784 -0.01553,-0.015679 -0.02344,-0.023437 -0.0078,-0.00784 -0.01553,-0.015679 -0.02344,-0.023437 -0.0078,-0.00785 -0.01552,-0.015666 -0.02344,-0.023437 -0.0078,-0.00785 -0.01552,-0.015666 -0.02344,-0.023437 -0.0072,-0.0072 -0.01422,-0.014358 -0.02148,-0.021484 -0.0068,-0.00684 -0.01264,-0.014711 -0.01953,-0.021484 -0.0071,-0.00716 -0.01427,-0.014394 -0.02149,-0.021484 -0.0068,-0.00684 -0.01459,-0.012751 -0.02148,-0.019531 -0.0065,-0.00655 -0.01293,-0.013043 -0.01953,-0.019531 -0.0065,-0.00655 -0.01293,-0.013043 -0.01953,-0.019531 -0.0065,-0.00655 -0.01293,-0.013043 -0.01953,-0.019531 -0.0065,-0.00653 -0.01294,-0.013055 -0.01953,-0.019531 -0.0059,-0.00589 -0.01163,-0.011735 -0.01758,-0.017578 -0.0059,-0.00589 -0.01164,-0.011735 -0.01758,-0.017578 -0.0059,-0.00589 -0.01164,-0.011735 -0.01758,-0.017578 -0.0029,-0.00295 -0.0049,-0.00683 -0.0078,-0.00977 -0.0052,-0.00522 -0.0104,-0.010444 -0.01563,-0.015625 -0.0052,-0.00522 -0.0104,-0.010444 -0.01563,-0.015625 -0.0052,-0.00522 -0.0104,-0.010444 -0.01563,-0.015625 -0.0052,-0.00522 -0.0104,-0.010444 -0.01563,-0.015625 -0.0023,-0.00226 -0.0056,-0.0036 -0.0078,-0.00586 -0.0023,-0.00224 -0.0036,-0.00558 -0.0059,-0.00781 -0.0049,-0.00491 -0.0088,-0.010748 -0.01367,-0.015625 -0.0088,-0.0088 -0.01847,-0.016699 -0.02734,-0.025391 -0.0013,-0.0013 -0.0026,-0.00261 -0.0039,-0.00391 -0.001,-10e-4 -0.0029,-9.503e-4 -0.0039,-0.00195 -0.0023,-0.00229 -0.0036,-0.00553 -0.0059,-0.00781 -0.002,-0.00195 -0.0039,-0.00391 -0.0059,-0.00586 -0.002,-0.00194 -0.0039,-0.00393 -0.0059,-0.00586 -0.0019,-0.00195 -0.0039,-0.00391 -0.0059,-0.00586 -0.002,-0.00194 -0.0039,-0.00393 -0.0059,-0.00586 -0.0016,-0.0016 -0.0043,-0.00231 -0.0059,-0.00391 -0.0023,-0.00224 -0.0036,-0.00558 -0.0059,-0.00781 -0.0013,-0.0013 -0.0026,-0.00261 -0.0039,-0.00391 -0.002,-0.00194 -0.0039,-0.00392 -0.0059,-0.00586 -0.0016,-0.00161 -0.0042,-0.0023 -0.0059,-0.00391 -0.0029,-0.00295 -0.0049,-0.00682 -0.0078,-0.00977 -0.002,-0.00193 -0.0039,-0.00393 -0.0059,-0.00586 -0.0013,-0.0013 -0.0026,-0.00261 -0.0039,-0.00391 -0.002,-0.00193 -0.0039,-0.00393 -0.0059,-0.00586 -0.0013,-0.0013 -0.0026,-0.00261 -0.0039,-0.00391 -0.002,-0.00194 -0.0039,-0.00393 -0.0059,-0.00586 -0.0013,-0.0013 -0.0026,-0.00261 -0.0039,-0.00391 -0.0013,-0.0013 -0.0026,-0.00261 -0.0039,-0.00391 -0.0013,-0.0013 -0.0026,-0.00261 -0.0039,-0.00391 -0.0013,-0.00129 -0.0026,-0.00262 -0.0039,-0.00391 -0.0013,-0.0013 -0.0026,-0.00261 -0.0039,-0.00391 -0.0013,-0.00129 -0.0026,-0.00262 -0.0039,-0.00391 0,0 -0.002,-0.00195 -0.002,-0.00195 0,0 -0.002,-0.00195 -0.002,-0.00195 0,0 -0.002,-0.00195 -0.002,-0.00195 0,0 -0.002,-0.00195 -0.002,-0.00195 -0.0016,-0.00164 -0.0042,-0.00618 -0.0059,-0.00781 -0.0013,-0.00129 -0.0026,-0.00262 -0.0039,-0.00391 -0.0017,-0.00164 -0.0042,-0.00227 -0.0059,-0.00391 0,0 -0.002,-0.00195 -0.002,-0.00195 -0.0013,-0.00129 -0.0026,-0.00262 -0.0039,-0.00391 0,0 -0.002,-0.00195 -0.002,-0.00195 0,0 -0.002,-0.00195 -0.002,-0.00195 0,0 -0.002,-0.00195 -0.002,-0.00195 0,0 -0.002,-0.00195 -0.002,-0.00195 0,0 -0.002,-0.00195 -0.002,-0.00195 0,0 -0.002,-0.00195 -0.002,-0.00195 0,0 -0.002,-0.00195 -0.002,-0.00195 0,0 -0.002,-0.00195 -0.002,-0.00195 0,0 -0.002,-0.00195 -0.002,-0.00195 0,0 -0.002,-0.00195 -0.002,-0.00195 0,0 -0.002,-0.00195 -0.002,-0.00195 0,0 -0.002,-0.00195 -0.002,-0.00195 -0.09049,-0.089674 -0.186203,-0.1718821 -0.287109,-0.25 -0.0014,-0.00109 -0.0025,-0.00281 -0.0039,-0.00391 0,0 -0.002,-0.00195 -0.002,-0.00195 0,0 -0.002,-0.00195 -0.002,-0.00195 0,0 -0.002,-0.00195 -0.002,-0.00195 -3.89e-4,-2.99e-4 -0.0016,2.988e-4 -0.002,0 -0.05172,-0.039667 -0.10791,-0.072944 -0.162109,-0.109375 -0.05462,-0.036648 -0.107072,-0.076157 -0.164063,-0.109375 -0.0013,-7.312e-4 -0.0027,-0.00122 -0.0039,-0.00195 0,0 -0.002,-0.00195 -0.002,-0.00195 z"
       transform="scale(0.93749997)"
       id="path3274"
       inkscape:connector-curvature="0" />
    <rect
       style="opacity:1;fill:#f5f5f5;stroke-width:0.93749994"
       id="rect8825"
       width="5.0763307"
       height="4.816319"
       x="7.0710678"
       y="8.1307077" />
    <path
       style="fill:#ffc107;stroke-width:0.48324743"
       inkscape:connector-curvature="0"
       d="m 9.3749772,12.557994 a 1.9329897,1.9329897 0 0 1 -1.93299,-1.932989 1.9329897,1.9329897 0 0 1 1.93299,-1.9329898 1.9329897,1.9329897 0 0 1 1.9329898,1.9329898 1.9329897,1.9329897 0 0 1 -1.9329898,1.932989 m 3.2377568,-1.73969 c -0.135309,-0.07732 -0.275451,-0.140142 -0.415592,-0.193299 0.140141,-0.05316 0.280283,-0.115979 0.415592,-0.193299 0.927835,-0.5315718 1.44491,-1.4980668 1.449743,-2.5080541 -0.865013,-0.4977449 -1.966817,-0.5364046 -2.899484,0 -0.13531,0.07732 -0.260954,0.1691366 -0.376933,0.2609536 0.02416,-0.1498067 0.03866,-0.3044459 0.03866,-0.4590851 0,-1.0728092 -0.584729,-2.0054768 -1.4497418,-2.5080541 -0.865013,0.5025773 -1.449743,1.4352449 -1.449743,2.5080541 0,0.1546392 0.0145,0.3092784 0.03866,0.4590851 -0.115979,-0.096649 -0.241623,-0.1884665 -0.376932,-0.2657861 -0.927835,-0.5364046 -2.02964,-0.4977448 -2.899485,0 0,1.0003218 0.517075,1.9813148 1.449742,2.5080536 0.13531,0.07732 0.275451,0.140142 0.415593,0.198132 -0.140142,0.04833 -0.280283,0.111147 -0.415593,0.188466 -0.927835,0.536405 -1.44491,1.5029 -1.449742,2.508054 0.865013,0.497745 1.966817,0.536405 2.899485,0 0.135309,-0.07732 0.260953,-0.169136 0.376932,-0.260953 -0.02416,0.154639 -0.03866,0.309278 -0.03866,0.463917 0,1.072809 0.58473,2.005477 1.449743,2.508054 0.8650128,-0.502577 1.4497418,-1.435245 1.4497418,-2.508054 0,-0.154639 -0.01449,-0.309278 -0.03866,-0.459085 0.115979,0.09665 0.241623,0.183634 0.376933,0.260954 0.927835,0.536404 2.029638,0.497744 2.899484,0 -0.0048,-1.009987 -0.521908,-1.976482 -1.449743,-2.508054 z"
       id="path96" />
  </g>
</svg>
