<?xml version="1.0" encoding="UTF-8" standalone="no"?>
<!-- Created with Inkscape (http://www.inkscape.org/) -->

<svg
   xmlns:dc="http://purl.org/dc/elements/1.1/"
   xmlns:cc="http://creativecommons.org/ns#"
   xmlns:rdf="http://www.w3.org/1999/02/22-rdf-syntax-ns#"
   xmlns:svg="http://www.w3.org/2000/svg"
   xmlns="http://www.w3.org/2000/svg"
   xmlns:xlink="http://www.w3.org/1999/xlink"
   xmlns:sodipodi="http://sodipodi.sourceforge.net/DTD/sodipodi-0.dtd"
   xmlns:inkscape="http://www.inkscape.org/namespaces/inkscape"
   sodipodi:docname="Food.svg"
   inkscape:version="0.91 r13725"
   version="1.1"
   id="svg2"
   viewBox="0 0 20 20"
   height="5.6444445mm"
   width="5.6444445mm"
   inkscape:export-filename="/home/juergen/Projekte/Android/Android_Studio/Baumann_Theme/theme/src/main/assets/icons/res/drawable-xxhdpi/a003.png"
   inkscape:export-xdpi="648"
   inkscape:export-ydpi="648">
  <sodipodi:namedview
     inkscape:snap-to-guides="true"
     inkscape:snap-grids="true"
     inkscape:window-maximized="1"
     inkscape:window-y="24"
     inkscape:window-x="0"
     inkscape:window-height="744"
     inkscape:window-width="1366"
     inkscape:guide-bbox="true"
     showguides="true"
     fit-margin-bottom="0"
     fit-margin-right="0"
     fit-margin-left="0"
     fit-margin-top="0"
     showgrid="true"
     inkscape:current-layer="layer2"
     inkscape:document-units="px"
     inkscape:cy="5.1607123"
     inkscape:cx="8.4734765"
     inkscape:zoom="22.4"
     inkscape:pageshadow="2"
     inkscape:pageopacity="0.0"
     borderopacity="1.0"
     bordercolor="#666666"
     pagecolor="#ffffff"
     id="base">
    <inkscape:grid
       type="xygrid"
       id="grid4138" />
    <sodipodi:guide
       position="24,18"
       orientation="0,1"
       id="guide4140" />
    <sodipodi:guide
       position="10,2"
       orientation="0,1"
       id="guide4142" />
    <sodipodi:guide
       position="2,10"
       orientation="1,0"
       id="guide4144" />
    <sodipodi:guide
       position="0,0"
       orientation="0,20"
       id="guide4146" />
    <sodipodi:guide
       position="20,0"
       orientation="-20,0"
       id="guide4148" />
    <sodipodi:guide
       position="20,20"
       orientation="0,-20"
       id="guide4150" />
    <sodipodi:guide
       position="0,20"
       orientation="20,0"
       id="guide4152" />
    <sodipodi:guide
       position="18,10"
       orientation="1,0"
       id="guide4154" />
    <sodipodi:guide
       position="10,10"
       orientation="-0.70710678,0.70710678"
       id="guide4156" />
    <sodipodi:guide
       position="10,10"
       orientation="0.70710678,0.70710678"
       id="guide4158" />
    <sodipodi:guide
       position="4,10"
       orientation="1,0"
       id="guide4160" />
    <sodipodi:guide
       position="16,10"
       orientation="1,0"
       id="guide4162" />
    <sodipodi:guide
       position="10,16"
       orientation="0,1"
       id="guide4164" />
    <sodipodi:guide
       position="10,4"
       orientation="0,1"
       id="guide4166" />
    <sodipodi:guide
       position="10,15"
       orientation="0,1"
       id="guide4168" />
    <sodipodi:guide
       position="10,5"
       orientation="0,1"
       id="guide4170" />
    <sodipodi:guide
       position="5,10"
       orientation="1,0"
       id="guide4172" />
    <sodipodi:guide
       position="15,10"
       orientation="1,0"
       id="guide4174" />
  </sodipodi:namedview>
  <defs
     id="defs4">
    <linearGradient
       inkscape:collect="always"
       id="linearGradient7083">
      <stop
         style="stop-color:#000000;stop-opacity:0.2"
         offset="0"
         id="stop7085" />
      <stop
         style="stop-color:#000000;stop-opacity:0;"
         offset="1"
         id="stop7087" />
    </linearGradient>
    <clipPath
       id="clipPath12478"
       clipPathUnits="userSpaceOnUse">
      <circle
         r="10"
         cy="10.000005"
         cx="9.9999781"
         id="circle12480"
         style="opacity:1;fill:#2196f3;fill-opacity:1;stroke:none;stroke-width:0.05069799;stroke-miterlimit:4;stroke-dasharray:none;stroke-opacity:1" />
    </clipPath>
    <clipPath
       clipPathUnits="userSpaceOnUse"
       id="clipPath5790">
      <circle
         r="10"
         cy="10.000005"
         cx="9.9999781"
         id="circle5792"
         style="opacity:1;fill:#2196f3;fill-opacity:1;stroke:none;stroke-width:0.05069799;stroke-miterlimit:4;stroke-dasharray:none;stroke-opacity:1"
         inkscape:export-filename="/home/juergen/path4136.png"
         inkscape:export-xdpi="648"
         inkscape:export-ydpi="648" />
    </clipPath>
    <clipPath
       id="clipPath7690"
       clipPathUnits="userSpaceOnUse">
      <circle
         r="10"
         cy="10.000005"
         cx="9.9999781"
         id="circle7692"
         style="opacity:1;fill:#2196f3;fill-opacity:1;stroke:none;stroke-width:0.05069799;stroke-miterlimit:4;stroke-dasharray:none;stroke-opacity:1"
         inkscape:export-filename="/home/juergen/Schreibtisch/path4136.png"
         inkscape:export-xdpi="648"
         inkscape:export-ydpi="648" />
    </clipPath>
    <clipPath
       clipPathUnits="userSpaceOnUse"
       id="clipPath5119">
      <circle
         r="10"
         cy="10.000005"
         cx="9.9999781"
         id="circle5121"
         style="opacity:1;fill:#ff9800;fill-opacity:1;stroke:none;stroke-width:0.05069799;stroke-miterlimit:4;stroke-dasharray:none;stroke-opacity:1"
         inkscape:export-filename="/home/juergen/Schreibtisch/path4136.png"
         inkscape:export-xdpi="648"
         inkscape:export-ydpi="648" />
    </clipPath>
    <clipPath
       id="clipPath6101"
       clipPathUnits="userSpaceOnUse">
      <circle
         r="10"
         cy="10.000005"
         cx="9.9999781"
         id="circle6103"
         style="opacity:1;fill:#8bc34a;fill-opacity:1;stroke:none;stroke-width:0.05069799;stroke-miterlimit:4;stroke-dasharray:none;stroke-opacity:1"
         inkscape:export-filename="/home/juergen/Schreibtisch/path4136.png"
         inkscape:export-xdpi="648"
         inkscape:export-ydpi="648" />
    </clipPath>
    <clipPath
       clipPathUnits="userSpaceOnUse"
       id="clipPath5126">
      <circle
         r="10"
         cy="10.000005"
         cx="9.9999781"
         id="circle5128"
         style="opacity:1;fill:#9e9e9e;fill-opacity:1;stroke:none;stroke-width:0.05069799;stroke-miterlimit:4;stroke-dasharray:none;stroke-opacity:1"
         inkscape:export-filename="/home/juergen/Schreibtisch/path4136.png"
         inkscape:export-xdpi="648"
         inkscape:export-ydpi="648" />
    </clipPath>
    <clipPath
       id="clipPath6109"
       clipPathUnits="userSpaceOnUse">
      <circle
         r="10"
         cy="10.000005"
         cx="9.9999781"
         id="circle6111"
         style="opacity:1;fill:#9e9e9e;fill-opacity:1;stroke:none;stroke-width:0.05069799;stroke-miterlimit:4;stroke-dasharray:none;stroke-opacity:1"
         inkscape:export-filename="/home/juergen/Projekte/Android/Android_Studio/Baumann_Theme/theme/src/main/assets/icons/res/drawable-xxhdpi/a143.png"
         inkscape:export-xdpi="648"
         inkscape:export-ydpi="648" />
    </clipPath>
    <linearGradient
       inkscape:collect="always"
       xlink:href="#linearGradient7083"
       id="linearGradient7089"
       x1="10"
       y1="10"
       x2="20"
       y2="20"
       gradientUnits="userSpaceOnUse" />
    <clipPath
       clipPathUnits="userSpaceOnUse"
       id="clipPath7094">
      <circle
         r="10"
         cy="10.000005"
         cx="9.9999781"
         id="circle7096"
         style="opacity:1;fill:#ff5722;fill-opacity:1;stroke:none;stroke-width:0.05069799;stroke-miterlimit:4;stroke-dasharray:none;stroke-opacity:1"
         inkscape:export-filename="/home/juergen/Projekte/Android/Android_Studio/Baumann_Theme/theme/src/main/assets/icons/res/drawable-xxhdpi/a144.png"
         inkscape:export-xdpi="648"
         inkscape:export-ydpi="648" />
    </clipPath>
    <clipPath
       clipPathUnits="userSpaceOnUse"
       id="clipPath7102">
      <path
         style="fill:none;fill-rule:evenodd;stroke:#000000;stroke-width:1px;stroke-linecap:butt;stroke-linejoin:miter;stroke-opacity:1"
         d="M 11,17 10,4 16,4 16,17 Z"
         id="path7104"
         inkscape:connector-curvature="0" />
    </clipPath>
  </defs>
  <metadata
     id="metadata7">
    <rdf:RDF>
      <cc:Work
         rdf:about="">
        <dc:format>image/svg+xml</dc:format>
        <dc:type
           rdf:resource="http://purl.org/dc/dcmitype/StillImage" />
        <dc:title></dc:title>
      </cc:Work>
    </rdf:RDF>
  </metadata>
  <g
     inkscape:label="Hintergrund"
     inkscape:groupmode="layer"
     id="layer1"
     transform="translate(1058.1428,-861.93365)">
    <circle
       inkscape:export-ydpi="648"
       inkscape:export-xdpi="648"
       inkscape:export-filename="/home/juergen/Projekte/Android/Android_Studio/Baumann_Theme/theme/src/main/assets/icons/res/drawable-xxhdpi/a144.png"
       style="opacity:1;fill:#03a9f4;fill-opacity:1;stroke:none;stroke-width:0.05069799;stroke-miterlimit:4;stroke-dasharray:none;stroke-opacity:1"
       id="path4136"
       cx="-1048.1428"
       cy="871.93365"
       r="10" />
  </g>
  <g
     style="display:inline"
     inkscape:groupmode="layer"
     id="layer2"
     inkscape:label="Icon">
    <path
       d="m 3.9999777,4.0333382 12.0000003,0 0,11.9333328 -12.0000003,0 z"
       id="path4"
       inkscape:connector-curvature="0"
       style="fill:none" />
    <path
       style="fill:none"
       inkscape:connector-curvature="0"
       id="path9754"
       d="m 18.999978,19.033339 12,0 0,11.933333 -12,0 z" />
    <path
       d="M 12.568359 5.6484375 L 11.699219 5.8789062 L 12.263672 8.1484375 L 11.148438 8.1484375 L 11.523438 11.404297 C 11.52049 11.401299 11.5186 11.397506 11.515625 11.394531 C 11.490875 11.369781 11.461791 11.350943 11.435547 11.328125 C 11.413837 11.30334 11.396489 11.275395 11.373047 11.251953 C 11.348951 11.227857 11.320436 11.209765 11.294922 11.1875 C 11.272657 11.161986 11.254565 11.133471 11.230469 11.109375 C 11.206373 11.085279 11.177858 11.067187 11.152344 11.044922 C 11.130079 11.019408 11.111987 10.990893 11.087891 10.966797 C 11.063435 10.942342 11.033728 10.924913 11.007812 10.902344 C 10.985243 10.876429 10.967815 10.846721 10.943359 10.822266 C 10.918609 10.797516 10.889526 10.778677 10.863281 10.755859 C 10.840463 10.729615 10.821625 10.700531 10.796875 10.675781 C 10.77242 10.651326 10.742712 10.633897 10.716797 10.611328 C 10.694228 10.585413 10.676799 10.555705 10.652344 10.53125 C 10.628248 10.507154 10.599733 10.489062 10.574219 10.466797 C 10.55046 10.439295 10.531731 10.408684 10.505859 10.382812 C 10.479988 10.356941 10.449377 10.338212 10.421875 10.314453 C 10.39961 10.288939 10.381518 10.260424 10.357422 10.236328 C 10.332313 10.211219 10.302037 10.193042 10.275391 10.169922 C 10.25227 10.143275 10.234094 10.113 10.208984 10.087891 C 9.9276794 9.806586 9.5462623 9.6484374 9.1484375 9.6484375 L 6.6484375 9.6484375 C 6.2506127 9.6484375 5.8691952 9.8065861 5.5878906 10.087891 C 5.306586 10.369196 5.1484374 10.750614 5.1484375 11.148438 L 5.3125 11.148438 C 5.3074943 11.198161 5.296875 11.246458 5.296875 11.296875 L 5.4589844 11.296875 C 5.45405 11.346247 5.4453125 11.395258 5.4453125 11.445312 L 5.6054688 11.445312 C 5.6006676 11.49402 5.5917969 11.542427 5.5917969 11.591797 L 5.75 11.591797 C 5.7481481 11.610711 5.7472278 11.629409 5.7460938 11.648438 L 5.6484375 11.648438 C 5.5158292 11.648438 5.3886899 11.701152 5.2949219 11.794922 C 5.2011533 11.88869 5.1484375 12.01583 5.1484375 12.148438 C 5.1484375 12.281047 5.2011539 12.408183 5.2949219 12.501953 C 5.3208964 12.527927 5.3542587 12.543078 5.3847656 12.5625 C 5.4039381 12.592334 5.4178933 12.624924 5.4433594 12.650391 C 5.4689457 12.675976 5.5012571 12.691706 5.53125 12.710938 C 5.550482 12.74093 5.5662106 12.773241 5.5917969 12.798828 C 5.6166104 12.823641 5.6487603 12.836625 5.6777344 12.855469 C 5.6971566 12.885976 5.7123068 12.919338 5.7382812 12.945312 C 5.7634872 12.970518 5.7966811 12.982911 5.8261719 13.001953 C 5.8452145 13.031444 5.8576066 13.064637 5.8828125 13.089844 C 5.9077488 13.11478 5.9396145 13.129531 5.96875 13.148438 L 5.1484375 13.148438 C 5.1484375 13.546263 5.306586 13.927679 5.5878906 14.208984 C 5.6129999 14.234094 5.6432752 14.25227 5.6699219 14.275391 C 5.6930421 14.302037 5.7112189 14.332313 5.7363281 14.357422 C 5.7604242 14.381518 5.7889391 14.39961 5.8144531 14.421875 C 5.8382122 14.449377 5.856941 14.479988 5.8828125 14.505859 C 5.9092297 14.532277 5.9406345 14.551958 5.96875 14.576172 C 5.9904599 14.600957 6.007808 14.628902 6.03125 14.652344 C 6.0557053 14.676799 6.085413 14.694228 6.1113281 14.716797 C 6.1338973 14.742712 6.151326 14.77242 6.1757812 14.796875 C 6.2005313 14.821625 6.2296148 14.840463 6.2558594 14.863281 C 6.2786772 14.889526 6.2975156 14.918609 6.3222656 14.943359 C 6.3467209 14.967815 6.3764287 14.985243 6.4023438 15.007812 C 6.4249129 15.033728 6.4423416 15.063435 6.4667969 15.087891 C 6.4908929 15.111987 6.5194078 15.130079 6.5449219 15.152344 C 6.5671871 15.177858 6.585279 15.206373 6.609375 15.230469 C 6.633471 15.254565 6.6619859 15.272657 6.6875 15.294922 C 6.7097652 15.320436 6.7278571 15.348951 6.7519531 15.373047 C 6.7760492 15.397143 6.8045641 15.415235 6.8300781 15.4375 C 6.8523434 15.463014 6.8704352 15.491529 6.8945312 15.515625 C 6.9186273 15.539721 6.9471422 15.557813 6.9726562 15.580078 C 6.9949215 15.605592 7.0130133 15.634107 7.0371094 15.658203 C 7.061329 15.682423 7.0895825 15.700286 7.1152344 15.722656 C 7.1369442 15.747442 7.1542923 15.775386 7.1777344 15.798828 C 7.2011764 15.82227 7.2291207 15.839618 7.2539062 15.861328 C 7.2756161 15.886114 7.2929642 15.914058 7.3164062 15.9375 C 7.3402075 15.961301 7.3693458 15.977985 7.3945312 16 C 7.4165465 16.025185 7.43323 16.054324 7.4570312 16.078125 C 7.4799356 16.101029 7.507062 16.117421 7.53125 16.138672 C 7.553351 16.16397 7.5698477 16.192894 7.59375 16.216797 C 7.6183087 16.241356 7.6477974 16.258594 7.6738281 16.28125 C 7.6944189 16.304584 7.7102878 16.331382 7.7324219 16.353516 C 7.7555047 16.376598 7.7822545 16.394612 7.8066406 16.416016 C 7.8280442 16.440402 7.8460578 16.467152 7.8691406 16.490234 C 7.8922234 16.513317 7.9189732 16.531331 7.9433594 16.552734 C 7.964763 16.57712 7.9827766 16.60387 8.0058594 16.626953 C 8.0286474 16.649741 8.0560192 16.666348 8.0800781 16.6875 C 8.1012298 16.711559 8.1178369 16.738931 8.140625 16.761719 C 8.1634131 16.784507 8.1907849 16.801114 8.2148438 16.822266 C 8.2359955 16.846325 8.2526026 16.873696 8.2753906 16.896484 C 8.2981787 16.919272 8.3255505 16.93588 8.3496094 16.957031 C 8.3707611 16.98109 8.3873682 17.008462 8.4101562 17.03125 C 8.4325851 17.053679 8.4587613 17.070953 8.4824219 17.091797 C 8.5032658 17.115457 8.5205399 17.141634 8.5429688 17.164062 C 8.5653976 17.186491 8.5915738 17.203765 8.6152344 17.224609 C 8.6360783 17.24827 8.6533524 17.274446 8.6757812 17.296875 C 8.6969021 17.317996 8.7219253 17.333799 8.7441406 17.353516 C 8.7659339 17.37841 8.7831005 17.406147 8.8066406 17.429688 C 8.8307367 17.453783 8.8592516 17.471875 8.8847656 17.494141 C 8.903914 17.515636 8.9189862 17.54008 8.9394531 17.560547 C 8.961228 17.582322 8.9868286 17.598859 9.0097656 17.619141 C 9.0300471 17.642078 9.0465845 17.667678 9.0683594 17.689453 C 9.0904935 17.711587 9.1172908 17.727456 9.140625 17.748047 C 9.1612158 17.771381 9.1770847 17.798178 9.1992188 17.820312 C 9.2209936 17.842087 9.2465943 17.858625 9.2695312 17.878906 C 9.2898128 17.901843 9.3063501 17.927444 9.328125 17.949219 C 9.3496051 17.970699 9.375826 17.985832 9.3984375 18.005859 C 9.4184646 18.028471 9.433598 18.054692 9.4550781 18.076172 C 9.474891 18.095985 9.4987533 18.110329 9.5195312 18.128906 C 9.5412411 18.153692 9.5585892 18.181636 9.5820312 18.205078 C 9.6042586 18.227305 9.6308595 18.243001 9.6542969 18.263672 C 9.6734453 18.285168 9.6885175 18.309611 9.7089844 18.330078 C 9.7304645 18.351558 9.7566854 18.366692 9.7792969 18.386719 C 9.799324 18.40933 9.8144574 18.435551 9.8359375 18.457031 C 9.8570584 18.478152 9.8820815 18.493956 9.9042969 18.513672 C 9.9240132 18.535887 9.9398166 18.56091 9.9609375 18.582031 C 9.9800964 18.60119 10.003375 18.614808 10.023438 18.632812 C 10.044589 18.656871 10.061196 18.684243 10.083984 18.707031 C 10.106212 18.729259 10.132813 18.744954 10.15625 18.765625 C 10.174828 18.786403 10.189171 18.810265 10.208984 18.830078 C 10.22981 18.850904 10.255453 18.865305 10.277344 18.884766 C 10.296804 18.906656 10.311205 18.932299 10.332031 18.953125 C 10.352498 18.973592 10.376942 18.988664 10.398438 19.007812 C 10.417586 19.029308 10.432658 19.053752 10.453125 19.074219 C 10.473592 19.094686 10.498036 19.109758 10.519531 19.128906 C 10.53868 19.150402 10.553752 19.174846 10.574219 19.195312 C 10.594686 19.215779 10.619129 19.230852 10.640625 19.25 C 10.659773 19.271496 10.674846 19.295939 10.695312 19.316406 C 10.714471 19.335565 10.73775 19.349183 10.757812 19.367188 C 10.777918 19.389899 10.792882 19.415929 10.814453 19.4375 C 10.836587 19.459634 10.863384 19.475503 10.886719 19.496094 C 10.904147 19.515442 10.917042 19.538136 10.935547 19.556641 C 10.956119 19.577212 10.980342 19.592088 11.001953 19.611328 C 11.019957 19.63139 11.033575 19.654669 11.052734 19.673828 C 11.071534 19.692628 11.093611 19.706921 11.113281 19.724609 C 11.133074 19.746922 11.148713 19.77176 11.169922 19.792969 C 11.190836 19.813883 11.216293 19.828119 11.238281 19.847656 C 11.255709 19.867005 11.268604 19.889698 11.287109 19.908203 C 11.306922 19.928016 11.330785 19.94236 11.351562 19.960938 C 11.37014 19.981715 11.384484 20.005578 11.404297 20.025391 C 11.423751 20.044844 11.446412 20.059862 11.466797 20.078125 C 11.48506 20.09851 11.500078 20.121171 11.519531 20.140625 C 11.538985 20.160079 11.561647 20.175096 11.582031 20.193359 C 11.600294 20.213744 11.615312 20.236406 11.634766 20.255859 C 11.653925 20.275018 11.677203 20.288636 11.697266 20.306641 C 11.71527 20.326703 11.728888 20.349982 11.748047 20.369141 C 11.767206 20.3883 11.790485 20.401918 11.810547 20.419922 C 11.828551 20.439984 11.842169 20.463263 11.861328 20.482422 C 11.880487 20.501581 11.903766 20.515199 11.923828 20.533203 C 11.941832 20.553265 11.95545 20.576544 11.974609 20.595703 C 11.993409 20.614503 12.015486 20.628796 12.035156 20.646484 C 12.052844 20.666154 12.067138 20.688232 12.085938 20.707031 C 12.104737 20.725831 12.126814 20.740124 12.146484 20.757812 C 12.164173 20.777482 12.178466 20.79956 12.197266 20.818359 C 12.215771 20.836864 12.238464 20.849759 12.257812 20.867188 C 12.275241 20.886536 12.288136 20.909229 12.306641 20.927734 C 12.325146 20.946239 12.347839 20.959134 12.367188 20.976562 C 12.384616 20.995911 12.397511 21.018604 12.416016 21.037109 C 12.434521 21.055614 12.457214 21.068509 12.476562 21.085938 C 12.493991 21.105286 12.506886 21.127979 12.525391 21.146484 C 12.543536 21.16463 12.565027 21.178202 12.583984 21.195312 C 12.601095 21.21427 12.614667 21.235761 12.632812 21.253906 C 12.650958 21.272052 12.672449 21.285624 12.691406 21.302734 C 12.708517 21.321692 12.722089 21.343182 12.740234 21.361328 C 12.75838 21.379474 12.779871 21.393046 12.798828 21.410156 C 12.815939 21.429114 12.829511 21.450604 12.847656 21.46875 C 12.865507 21.486601 12.887613 21.498776 12.90625 21.515625 C 12.923099 21.534262 12.935274 21.556368 12.953125 21.574219 C 12.970976 21.59207 12.993082 21.604244 13.011719 21.621094 C 13.028568 21.63973 13.040743 21.661837 13.058594 21.679688 C 13.076086 21.697179 13.096988 21.710032 13.115234 21.726562 C 13.131764 21.744809 13.144618 21.765711 13.162109 21.783203 C 13.179601 21.800695 13.200503 21.813548 13.21875 21.830078 C 13.23528 21.848325 13.248133 21.869227 13.265625 21.886719 C 13.283117 21.904211 13.304019 21.917064 13.322266 21.933594 C 13.338796 21.95184 13.351649 21.972743 13.369141 21.990234 C 13.386338 22.007431 13.407854 22.018889 13.425781 22.035156 C 13.442049 22.053083 13.453506 22.0746 13.470703 22.091797 C 13.4879 22.108994 13.509417 22.120451 13.527344 22.136719 C 13.543611 22.154646 13.555069 22.176162 13.572266 22.193359 C 13.58809 22.209184 13.606603 22.22129 13.623047 22.236328 C 13.640224 22.255367 13.653654 22.276701 13.671875 22.294922 C 13.69038 22.313427 13.713073 22.326322 13.732422 22.34375 C 13.747194 22.359877 13.757908 22.379001 13.773438 22.394531 C 13.789621 22.410715 13.809341 22.422139 13.826172 22.4375 C 13.842196 22.455131 13.85417 22.475264 13.871094 22.492188 C 13.887932 22.509025 13.908243 22.521162 13.925781 22.537109 C 13.941728 22.554647 13.953865 22.574959 13.970703 22.591797 C 13.987182 22.608275 14.006288 22.621093 14.023438 22.636719 C 14.039063 22.653868 14.051881 22.672975 14.068359 22.689453 C 14.084543 22.705637 14.104262 22.717061 14.121094 22.732422 C 14.136455 22.749253 14.147879 22.768972 14.164062 22.785156 C 14.180541 22.801635 14.199647 22.814453 14.216797 22.830078 C 14.232422 22.847228 14.24524 22.866334 14.261719 22.882812 C 14.276595 22.897688 14.295123 22.907694 14.310547 22.921875 C 14.32688 22.939881 14.338198 22.961245 14.355469 22.978516 C 14.372739 22.995786 14.394103 23.007104 14.412109 23.023438 C 14.426291 23.038861 14.436296 23.05739 14.451172 23.072266 C 14.466996 23.08809 14.485509 23.100196 14.501953 23.115234 C 14.516991 23.131678 14.529097 23.150191 14.544922 23.166016 C 14.560746 23.18184 14.579259 23.193946 14.595703 23.208984 C 14.610741 23.225428 14.622847 23.243941 14.638672 23.259766 C 14.654202 23.275295 14.673327 23.286009 14.689453 23.300781 C 14.704226 23.316908 14.714939 23.336033 14.730469 23.351562 C 14.745999 23.367092 14.765123 23.377806 14.78125 23.392578 C 14.796023 23.408705 14.806736 23.42783 14.822266 23.443359 C 14.837795 23.458889 14.85692 23.469602 14.873047 23.484375 C 14.887819 23.500502 14.898533 23.519627 14.914062 23.535156 C 14.929233 23.550327 14.94715 23.561724 14.962891 23.576172 C 14.977339 23.591912 14.988736 23.609829 15.003906 23.625 C 15.019077 23.640171 15.036994 23.651568 15.052734 23.666016 C 15.067182 23.681756 15.078579 23.699673 15.09375 23.714844 C 15.108626 23.72972 15.127154 23.739725 15.142578 23.753906 C 15.156759 23.76933 15.166765 23.787859 15.181641 23.802734 C 15.196516 23.81761 15.215045 23.827616 15.230469 23.841797 C 15.24465 23.857221 15.254655 23.875749 15.269531 23.890625 C 15.284407 23.905501 15.302935 23.915506 15.318359 23.929688 C 15.332541 23.945111 15.342546 23.96364 15.357422 23.978516 C 15.371938 23.993032 15.389258 24.003723 15.404297 24.017578 C 15.418152 24.032617 15.428843 24.049937 15.443359 24.064453 C 15.457876 24.07897 15.475196 24.08966 15.490234 24.103516 C 15.50409 24.118554 15.51478 24.135874 15.529297 24.150391 C 15.542505 24.163599 15.558624 24.172885 15.572266 24.185547 C 15.587097 24.201744 15.597686 24.220733 15.613281 24.236328 C 15.629465 24.252512 15.649184 24.263936 15.666016 24.279297 C 15.678076 24.292243 15.686664 24.307758 15.699219 24.320312 C 15.711773 24.332867 15.727288 24.341455 15.740234 24.353516 C 15.755007 24.369642 15.76572 24.388767 15.78125 24.404297 C 15.796845 24.419892 15.815834 24.430481 15.832031 24.445312 C 15.844092 24.458259 15.85268 24.473773 15.865234 24.486328 C 15.879097 24.500191 15.895817 24.510178 15.910156 24.523438 C 15.923416 24.537777 15.933403 24.554497 15.947266 24.568359 C 15.95982 24.580914 15.975335 24.589502 15.988281 24.601562 C 16.00252 24.617054 16.012405 24.635452 16.027344 24.650391 C 16.042283 24.66533 16.06068 24.675215 16.076172 24.689453 C 16.088232 24.7024 16.09682 24.717914 16.109375 24.730469 C 16.122943 24.744037 16.140272 24.752635 16.154297 24.765625 C 16.167287 24.77965 16.175885 24.796979 16.189453 24.810547 C 16.202662 24.823755 16.21878 24.833042 16.232422 24.845703 C 16.245083 24.859345 16.25437 24.875463 16.267578 24.888672 C 16.280787 24.90188 16.296905 24.911167 16.310547 24.923828 C 16.323208 24.93747 16.332495 24.953588 16.345703 24.966797 C 16.358912 24.980005 16.37503 24.989292 16.388672 25.001953 C 16.401333 25.015595 16.41062 25.031713 16.423828 25.044922 C 16.436677 25.057771 16.451584 25.067746 16.464844 25.080078 C 16.477175 25.093338 16.487151 25.108244 16.5 25.121094 C 16.512849 25.133943 16.527756 25.143918 16.541016 25.15625 C 16.553347 25.16951 16.563323 25.184416 16.576172 25.197266 C 16.589021 25.210115 16.603928 25.22009 16.617188 25.232422 C 16.629519 25.245682 16.639494 25.260588 16.652344 25.273438 C 16.664898 25.285992 16.680413 25.29458 16.693359 25.306641 C 16.70542 25.319587 16.714008 25.335102 16.726562 25.347656 C 16.739117 25.360211 16.754632 25.368799 16.767578 25.380859 C 16.779639 25.393806 16.788227 25.40932 16.800781 25.421875 C 16.812977 25.43407 16.827278 25.443349 16.839844 25.455078 C 16.851573 25.467643 16.860852 25.481945 16.873047 25.494141 C 16.885242 25.506336 16.899544 25.515615 16.912109 25.527344 C 16.923839 25.539909 16.933117 25.554211 16.945312 25.566406 C 16.957508 25.578602 16.97181 25.58788 16.984375 25.599609 C 16.996104 25.612175 17.005383 25.626476 17.017578 25.638672 C 17.029479 25.650572 17.044388 25.658465 17.056641 25.669922 C 17.068097 25.682175 17.07599 25.697084 17.087891 25.708984 C 17.099791 25.720885 17.1147 25.728778 17.126953 25.740234 C 17.13841 25.752487 17.146302 25.767396 17.158203 25.779297 C 17.170104 25.791198 17.185013 25.79909 17.197266 25.810547 C 17.208722 25.8228 17.216615 25.837709 17.228516 25.849609 C 17.240057 25.861151 17.253752 25.869735 17.265625 25.880859 C 17.276749 25.892732 17.285334 25.906427 17.296875 25.917969 C 17.308416 25.92951 17.322111 25.938095 17.333984 25.949219 C 17.345108 25.961092 17.353693 25.974787 17.365234 25.986328 C 17.376481 25.997575 17.390782 26.004775 17.402344 26.015625 C 17.413194 26.027187 17.420394 26.041488 17.431641 26.052734 C 17.442887 26.063981 17.457188 26.071181 17.46875 26.082031 C 17.4796 26.093593 17.4868 26.107894 17.498047 26.119141 C 17.509294 26.130387 17.523595 26.137587 17.535156 26.148438 C 17.546007 26.159999 17.553206 26.1743 17.564453 26.185547 C 17.575341 26.196434 17.588427 26.204328 17.599609 26.214844 C 17.610125 26.226027 17.618019 26.239113 17.628906 26.25 C 17.639794 26.260887 17.65288 26.268781 17.664062 26.279297 C 17.674579 26.29048 17.682472 26.303566 17.693359 26.314453 C 17.702939 26.324033 17.714801 26.330552 17.724609 26.339844 C 17.736113 26.35215 17.743908 26.366955 17.755859 26.378906 C 17.768414 26.391461 17.783929 26.400049 17.796875 26.412109 C 17.805551 26.421234 17.811387 26.432481 17.820312 26.441406 C 17.829238 26.450332 17.840485 26.456168 17.849609 26.464844 C 17.861066 26.477097 17.868959 26.492006 17.880859 26.503906 C 17.892811 26.515857 17.907615 26.523653 17.919922 26.535156 C 17.928598 26.544281 17.934434 26.555528 17.943359 26.564453 C 17.953593 26.574687 17.966068 26.581891 17.976562 26.591797 C 17.986468 26.602292 17.993673 26.614767 18.003906 26.625 C 18.01378 26.634874 18.025039 26.642775 18.035156 26.652344 C 18.044725 26.662461 18.052626 26.67372 18.0625 26.683594 C 18.072733 26.693827 18.085208 26.701032 18.095703 26.710938 C 18.105609 26.721432 18.112813 26.733907 18.123047 26.744141 C 18.130959 26.752053 18.140369 26.757909 18.148438 26.765625 C 18.159562 26.777498 18.168146 26.791193 18.179688 26.802734 C 18.190982 26.814029 18.205184 26.821136 18.216797 26.832031 C 18.224854 26.840474 18.23001 26.851104 18.238281 26.859375 C 18.247861 26.868954 18.259723 26.875473 18.269531 26.884766 C 18.278823 26.894574 18.285342 26.906436 18.294922 26.916016 C 18.304501 26.925595 18.316363 26.932114 18.326172 26.941406 C 18.335464 26.951215 18.341983 26.963077 18.351562 26.972656 C 18.360783 26.981876 18.371427 26.989093 18.380859 26.998047 C 18.389814 27.007479 18.39703 27.018124 18.40625 27.027344 C 18.41547 27.036564 18.426114 27.04378 18.435547 27.052734 C 18.444501 27.062167 18.451717 27.072811 18.460938 27.082031 C 18.468555 27.089649 18.478565 27.094126 18.486328 27.101562 C 18.496612 27.112483 18.503033 27.12608 18.513672 27.136719 C 18.524559 27.147606 18.537645 27.1555 18.548828 27.166016 C 18.555922 27.173406 18.561101 27.182195 18.568359 27.189453 C 18.575618 27.196711 18.584407 27.201891 18.591797 27.208984 C 18.601742 27.219524 18.608864 27.231911 18.619141 27.242188 C 18.629374 27.252421 18.641849 27.259626 18.652344 27.269531 C 18.659437 27.276922 18.664617 27.28571 18.671875 27.292969 C 18.680441 27.301535 18.690469 27.30807 18.699219 27.316406 C 18.707555 27.325156 18.71409 27.335184 18.722656 27.34375 C 18.731222 27.352316 18.74125 27.358851 18.75 27.367188 C 18.758337 27.375937 18.764871 27.385965 18.773438 27.394531 C 18.781709 27.402803 18.792339 27.407958 18.800781 27.416016 C 18.808839 27.424458 18.813994 27.435088 18.822266 27.443359 C 18.830537 27.451631 18.841167 27.456786 18.849609 27.464844 C 18.857667 27.473286 18.862822 27.483916 18.871094 27.492188 C 18.879006 27.5001 18.888415 27.505955 18.896484 27.513672 C 18.904201 27.521741 18.910056 27.53115 18.917969 27.539062 C 18.924573 27.545667 18.932739 27.550173 18.939453 27.556641 C 18.948783 27.566491 18.955224 27.578271 18.964844 27.587891 C 18.973807 27.596854 18.984976 27.602616 18.994141 27.611328 C 19.000609 27.618042 19.005114 27.626208 19.011719 27.632812 C 19.019631 27.640725 19.02904 27.64658 19.037109 27.654297 C 19.044826 27.662366 19.050681 27.671775 19.058594 27.679688 C 19.066211 27.687305 19.076222 27.691783 19.083984 27.699219 C 19.09142 27.706982 19.095898 27.716992 19.103516 27.724609 C 19.110774 27.731868 19.119563 27.737047 19.126953 27.744141 C 19.134047 27.751531 19.139226 27.76032 19.146484 27.767578 C 19.152435 27.773528 19.159976 27.777363 19.166016 27.783203 C 19.174728 27.792367 19.18049 27.803537 19.189453 27.8125 C 19.198054 27.821101 19.208011 27.827568 19.216797 27.835938 C 19.22229 27.841607 19.226831 27.847925 19.232422 27.853516 C 19.23968 27.860774 19.248469 27.865953 19.255859 27.873047 C 19.262953 27.880437 19.268132 27.889226 19.275391 27.896484 C 19.282354 27.903448 19.291743 27.907251 19.298828 27.914062 C 19.30564 27.921148 19.309443 27.930536 19.316406 27.9375 C 19.32337 27.944464 19.332759 27.948266 19.339844 27.955078 C 19.346656 27.962163 19.350458 27.971552 19.357422 27.978516 C 19.364026 27.98512 19.372193 27.989626 19.378906 27.996094 C 19.385374 28.002807 19.38988 28.010974 19.396484 28.017578 C 19.403089 28.024182 19.411255 28.028688 19.417969 28.035156 C 19.424437 28.04187 19.428943 28.050036 19.435547 28.056641 C 19.440484 28.061578 19.446173 28.065452 19.451172 28.070312 C 19.458919 28.078415 19.464711 28.087758 19.472656 28.095703 C 19.480569 28.103615 19.489978 28.109471 19.498047 28.117188 C 19.502908 28.122186 19.506782 28.127875 19.511719 28.132812 C 19.517964 28.139058 19.524907 28.144267 19.53125 28.150391 C 19.537373 28.156734 19.542583 28.163677 19.548828 28.169922 C 19.554809 28.175902 19.562289 28.179678 19.568359 28.185547 C 19.574199 28.191586 19.578034 28.199128 19.583984 28.205078 C 19.589935 28.211028 19.597476 28.214863 19.603516 28.220703 C 19.609355 28.226742 19.61319 28.234284 19.619141 28.240234 C 19.625091 28.246185 19.632633 28.25002 19.638672 28.255859 C 19.644512 28.261899 19.648347 28.26944 19.654297 28.275391 C 19.659888 28.280982 19.666205 28.285522 19.671875 28.291016 C 19.677368 28.296685 19.681909 28.303003 19.6875 28.308594 C 19.693091 28.314185 19.699409 28.318725 19.705078 28.324219 C 19.710572 28.329888 19.715112 28.336206 19.720703 28.341797 C 19.724691 28.345785 19.730347 28.347624 19.734375 28.351562 C 19.741216 28.358679 19.744959 28.368006 19.751953 28.375 C 19.758947 28.381994 19.768274 28.385737 19.775391 28.392578 C 19.779329 28.396607 19.781168 28.402262 19.785156 28.40625 C 19.788785 28.409879 19.793213 28.412428 19.796875 28.416016 C 19.803343 28.422729 19.807849 28.430896 19.814453 28.4375 C 19.821085 28.444132 19.829195 28.448584 19.835938 28.455078 C 19.839526 28.45874 19.842074 28.463168 19.845703 28.466797 C 19.85064 28.471734 19.85633 28.475608 19.861328 28.480469 C 19.866189 28.485467 19.870063 28.491157 19.875 28.496094 C 19.877975 28.499069 19.881768 28.500959 19.884766 28.503906 C 19.89126 28.510649 19.895712 28.518759 19.902344 28.525391 C 19.908976 28.532023 19.917086 28.536474 19.923828 28.542969 C 19.926776 28.545966 19.928665 28.549759 19.931641 28.552734 C 19.936283 28.557377 19.942569 28.559878 19.947266 28.564453 C 19.951841 28.56915 19.954342 28.575436 19.958984 28.580078 C 19.963267 28.584361 19.968327 28.587571 19.972656 28.591797 C 19.976882 28.596126 19.980092 28.601186 19.984375 28.605469 C 19.988658 28.609752 19.993718 28.612962 19.998047 28.617188 C 20.002273 28.621517 20.005482 28.626576 20.009766 28.630859 C 20.014049 28.635142 20.019108 28.638352 20.023438 28.642578 C 20.027663 28.646907 20.030873 28.651967 20.035156 28.65625 C 20.039145 28.660238 20.0448 28.662077 20.048828 28.666016 C 20.052767 28.670044 20.054605 28.675699 20.058594 28.679688 C 20.062582 28.683676 20.068237 28.685514 20.072266 28.689453 C 20.076204 28.693482 20.078043 28.699137 20.082031 28.703125 C 20.08602 28.707113 20.091675 28.708952 20.095703 28.712891 C 20.099642 28.716919 20.10148 28.722574 20.105469 28.726562 C 20.109098 28.730192 20.113525 28.73274 20.117188 28.736328 C 20.120776 28.73999 20.123324 28.744418 20.126953 28.748047 C 20.130582 28.751676 20.13501 28.754224 20.138672 28.757812 C 20.14226 28.761475 20.144808 28.765902 20.148438 28.769531 C 20.151413 28.772506 20.155206 28.774396 20.158203 28.777344 C 20.161809 28.781025 20.164321 28.785415 20.167969 28.789062 C 20.169931 28.791024 20.171856 28.792972 20.173828 28.794922 C 20.178708 28.799941 20.182543 28.80559 20.1875 28.810547 C 20.192163 28.81521 20.198407 28.817671 20.203125 28.822266 C 20.204784 28.82394 20.205364 28.826458 20.207031 28.828125 C 20.208698 28.829792 20.211216 28.830373 20.212891 28.832031 C 20.217486 28.836749 20.219947 28.842993 20.224609 28.847656 C 20.227597 28.850644 20.231365 28.852509 20.234375 28.855469 C 20.237323 28.858466 20.239212 28.862259 20.242188 28.865234 C 20.246488 28.869535 20.251512 28.87271 20.255859 28.876953 C 20.257162 28.878265 20.258458 28.879551 20.259766 28.880859 C 20.262382 28.883475 20.264945 28.886077 20.267578 28.888672 C 20.270173 28.891305 20.272775 28.893868 20.275391 28.896484 C 20.278007 28.8991 20.28057 28.901702 20.283203 28.904297 C 20.285798 28.90693 20.2884 28.909493 20.291016 28.912109 C 20.293337 28.914431 20.296493 28.915664 20.298828 28.917969 C 20.301132 28.920304 20.302366 28.92346 20.304688 28.925781 C 20.307009 28.928102 20.310165 28.929336 20.3125 28.931641 C 20.314804 28.933975 20.316038 28.937132 20.318359 28.939453 C 20.320681 28.941774 20.323837 28.943008 20.326172 28.945312 C 20.328476 28.947647 20.32971 28.950804 20.332031 28.953125 C 20.333993 28.955087 20.335919 28.957034 20.337891 28.958984 C 20.339841 28.960956 20.341788 28.962882 20.34375 28.964844 C 20.345712 28.966806 20.347638 28.968753 20.349609 28.970703 C 20.351559 28.972675 20.353507 28.974601 20.355469 28.976562 C 20.357431 28.978524 20.359356 28.980472 20.361328 28.982422 C 20.363278 28.984394 20.365226 28.986319 20.367188 28.988281 C 20.368855 28.989948 20.371373 28.990529 20.373047 28.992188 C 20.374705 28.993862 20.375286 28.99638 20.376953 28.998047 C 20.378635 28.999698 20.381124 29.000311 20.382812 29.001953 C 20.384471 29.003627 20.385052 29.006145 20.386719 29.007812 C 20.388026 29.00912 20.389313 29.010417 20.390625 29.011719 C 20.391928 29.013031 20.393223 29.014317 20.394531 29.015625 C 20.395839 29.016932 20.397126 29.018229 20.398438 29.019531 C 20.39974 29.020844 20.401036 29.02213 20.402344 29.023438 C 20.403651 29.024745 20.404938 29.026042 20.40625 29.027344 C 20.407553 29.028656 20.408848 29.029942 20.410156 29.03125 C 20.41117 29.032264 20.413046 29.032192 20.414062 29.033203 C 20.415073 29.034219 20.415002 29.036096 20.416016 29.037109 C 20.417029 29.038123 20.418905 29.038052 20.419922 29.039062 C 20.419922 29.039062 20.419922 29.041016 20.419922 29.041016 C 20.419922 29.041016 20.421875 29.042969 20.421875 29.042969 C 20.421875 29.042969 20.423828 29.044922 20.423828 29.044922 C 20.423828 29.044922 20.425781 29.046875 20.425781 29.046875 C 20.425781 29.046875 20.427734 29.048828 20.427734 29.048828 C 20.427734 29.048828 20.429688 29.050781 20.429688 29.050781 C 20.429688 29.050781 20.431641 29.052734 20.431641 29.052734 C 20.431641 29.052734 20.433594 29.054688 20.433594 29.054688 C 20.435544 29.056659 20.437491 29.058585 20.439453 29.060547 C 20.50662 29.127467 20.580804 29.185851 20.658203 29.238281 C 20.659716 29.239298 20.660593 29.241176 20.662109 29.242188 C 20.662109 29.242188 20.664062 29.244141 20.664062 29.244141 C 20.664062 29.244141 20.666016 29.246094 20.666016 29.246094 C 20.737738 29.294109 20.814052 29.332326 20.892578 29.367188 C 20.902698 29.371665 20.913612 29.380513 20.923828 29.384766 C 20.924361 29.384987 20.925248 29.384545 20.925781 29.384766 C 20.946473 29.393306 20.969176 29.396689 20.990234 29.404297 C 21.152581 29.463143 21.324009 29.5 21.5 29.5 L 24 29.5 C 24.19828 29.5 24.392472 29.458978 24.572266 29.384766 C 24.572795 29.384546 24.573689 29.384986 24.574219 29.384766 C 24.754493 29.310094 24.919894 29.201199 25.060547 29.060547 C 25.201199 28.919894 25.310094 28.754493 25.384766 28.574219 C 25.384986 28.573689 25.384546 28.572795 25.384766 28.572266 C 25.432663 28.456225 25.460896 28.332307 25.478516 28.207031 L 25.496094 28.207031 L 25.501953 28.251953 L 25.539062 28.251953 L 25.542969 28.292969 L 25.580078 28.292969 L 25.585938 28.335938 L 25.623047 28.335938 L 25.626953 28.376953 L 25.664062 28.376953 L 25.667969 28.417969 L 25.703125 28.417969 L 25.707031 28.457031 L 25.742188 28.457031 L 25.746094 28.496094 L 25.78125 28.496094 L 25.785156 28.535156 L 25.818359 28.535156 L 25.822266 28.572266 L 25.855469 28.572266 L 25.859375 28.609375 L 25.890625 28.609375 L 25.894531 28.644531 L 25.925781 28.644531 L 25.929688 28.679688 L 25.960938 28.679688 L 25.964844 28.714844 L 25.994141 28.714844 L 25.998047 28.748047 L 26.027344 28.748047 L 26.03125 28.78125 L 26.060547 28.78125 L 26.064453 28.814453 L 26.091797 28.814453 L 26.095703 28.845703 L 26.121094 28.845703 L 26.125 28.875 L 26.152344 28.875 L 26.15625 28.90625 L 26.181641 28.90625 L 26.185547 28.935547 L 26.208984 28.935547 L 26.212891 28.964844 L 26.238281 28.964844 L 26.242188 28.992188 L 26.265625 28.992188 L 26.269531 29.019531 L 26.292969 29.019531 L 26.294922 29.044922 L 26.316406 29.044922 L 26.320312 29.070312 L 26.34375 29.070312 L 26.345703 29.095703 L 26.367188 29.095703 L 26.369141 29.119141 L 26.390625 29.119141 L 26.392578 29.142578 L 26.414062 29.142578 L 26.416016 29.166016 L 26.435547 29.166016 L 26.4375 29.1875 L 26.457031 29.1875 L 26.458984 29.208984 L 26.476562 29.208984 L 26.478516 29.228516 L 26.496094 29.228516 L 26.498047 29.248047 L 26.515625 29.248047 L 26.517578 29.267578 L 26.533203 29.267578 L 26.535156 29.287109 L 26.550781 29.287109 L 26.552734 29.302734 L 26.568359 29.302734 L 26.570312 29.320312 L 26.583984 29.320312 L 26.585938 29.335938 L 26.599609 29.335938 L 26.601562 29.351562 L 26.613281 29.351562 L 26.615234 29.365234 L 26.626953 29.365234 L 26.628906 29.378906 L 26.640625 29.378906 L 26.642578 29.392578 L 26.652344 29.392578 L 26.654297 29.404297 L 26.664062 29.404297 L 26.666016 29.416016 L 26.675781 29.416016 L 26.677734 29.427734 L 26.685547 29.427734 L 26.6875 29.4375 L 26.695312 29.4375 L 26.697266 29.447266 L 26.705078 29.447266 L 26.705078 29.455078 L 26.712891 29.455078 L 26.712891 29.462891 L 26.720703 29.462891 L 26.720703 29.470703 L 26.726562 29.470703 L 26.726562 29.476562 L 26.732422 29.476562 L 26.732422 29.482422 L 26.736328 29.482422 L 26.736328 29.486328 L 26.740234 29.486328 L 26.740234 29.490234 L 26.744141 29.490234 L 26.744141 29.494141 L 26.746094 29.494141 L 26.746094 29.496094 L 26.748047 29.496094 L 26.748047 29.498047 L 26.75 29.498047 L 26.75 29.5 L 29.25 29.5 L 30 23 L 29.998047 23 L 29.998047 22.998047 L 29.996094 22.998047 L 29.996094 22.996094 L 29.994141 22.996094 L 29.994141 22.994141 L 29.990234 22.994141 L 29.990234 22.990234 L 29.986328 22.990234 L 29.986328 22.986328 L 29.982422 22.986328 L 29.982422 22.982422 L 29.976562 22.982422 L 29.976562 22.976562 L 29.970703 22.976562 L 29.970703 22.970703 L 29.962891 22.970703 L 29.962891 22.962891 L 29.955078 22.962891 L 29.955078 22.955078 L 29.947266 22.955078 L 29.947266 22.947266 L 29.935547 22.947266 L 29.9375 22.9375 L 29.925781 22.9375 L 29.927734 22.927734 L 29.914062 22.927734 L 29.916016 22.916016 L 29.902344 22.916016 L 29.904297 22.904297 L 29.890625 22.904297 L 29.892578 22.892578 L 29.876953 22.892578 L 29.878906 22.878906 L 29.863281 22.878906 L 29.865234 22.865234 L 29.849609 22.865234 L 29.851562 22.851562 L 29.833984 22.851562 L 29.835938 22.835938 L 29.818359 22.835938 L 29.820312 22.820312 L 29.800781 22.820312 L 29.802734 22.802734 L 29.783203 22.802734 L 29.785156 22.787109 L 29.765625 22.787109 L 29.767578 22.767578 L 29.746094 22.767578 L 29.748047 22.748047 L 29.726562 22.748047 L 29.728516 22.728516 L 29.707031 22.728516 L 29.708984 22.708984 L 29.685547 22.708984 L 29.6875 22.6875 L 29.664062 22.6875 L 29.666016 22.666016 L 29.640625 22.666016 L 29.642578 22.642578 L 29.617188 22.642578 L 29.619141 22.619141 L 29.59375 22.619141 L 29.595703 22.595703 L 29.566406 22.595703 L 29.570312 22.570312 L 29.542969 22.570312 L 29.544922 22.544922 L 29.515625 22.544922 L 29.519531 22.519531 L 29.488281 22.519531 L 29.492188 22.492188 L 29.458984 22.492188 L 29.462891 22.464844 L 29.431641 22.464844 L 29.435547 22.435547 L 29.402344 22.435547 L 29.40625 22.40625 L 29.371094 22.40625 L 29.375 22.375 L 29.341797 22.375 L 29.345703 22.345703 L 29.310547 22.345703 L 29.314453 22.314453 L 29.277344 22.314453 L 29.28125 22.28125 L 29.244141 22.28125 L 29.248047 22.248047 L 29.210938 22.248047 L 29.214844 22.214844 L 29.175781 22.214844 L 29.179688 22.179688 L 29.140625 22.179688 L 29.144531 22.144531 L 29.105469 22.144531 L 29.109375 22.109375 L 29.068359 22.109375 L 29.072266 22.072266 L 29.03125 22.072266 L 29.035156 22.035156 L 28.992188 22.035156 L 28.996094 21.996094 L 28.953125 21.996094 L 28.957031 21.957031 L 28.914062 21.957031 L 28.917969 21.917969 L 28.873047 21.917969 L 28.876953 21.876953 L 28.832031 21.876953 L 28.835938 21.835938 L 28.787109 21.835938 L 28.792969 21.792969 L 28.748047 21.792969 L 28.751953 21.751953 L 28.701172 21.751953 L 28.707031 21.707031 L 28.658203 21.707031 L 28.664062 21.664062 L 28.613281 21.664062 L 28.619141 21.619141 L 28.566406 21.619141 L 28.572266 21.572266 L 28.521484 21.572266 L 28.527344 21.527344 L 28.472656 21.527344 L 28.478516 21.478516 L 28.425781 21.478516 L 28.431641 21.431641 L 28.376953 21.431641 L 28.382812 21.382812 L 28.328125 21.382812 L 28.333984 21.333984 L 28.277344 21.333984 L 28.283203 21.283203 L 28.226562 21.283203 L 28.232422 21.232422 L 28.175781 21.232422 L 28.181641 21.181641 L 28.123047 21.181641 L 28.128906 21.128906 L 28.070312 21.128906 L 28.076172 21.076172 L 28.015625 21.076172 L 28.021484 21.021484 L 27.960938 21.021484 L 27.966797 20.966797 L 27.90625 20.966797 L 27.912109 20.912109 L 27.849609 20.912109 L 27.855469 20.855469 L 27.792969 20.855469 L 27.798828 20.798828 L 27.734375 20.798828 L 27.740234 20.740234 L 27.677734 20.740234 L 27.683594 20.683594 L 27.615234 20.683594 L 27.623047 20.623047 L 27.558594 20.623047 L 27.564453 20.564453 L 27.496094 20.564453 L 27.503906 20.503906 L 27.433594 20.503906 L 27.441406 20.441406 L 27.373047 20.441406 L 27.380859 20.380859 L 27.310547 20.380859 L 27.318359 20.318359 L 27.246094 20.318359 L 27.253906 20.253906 L 27.181641 20.253906 L 27.189453 20.189453 L 27.117188 20.189453 L 27.125 20.125 L 27.050781 20.125 L 27.058594 20.058594 L 26.984375 20.058594 L 26.992188 19.992188 L 26.917969 19.992188 L 26.925781 19.925781 L 26.849609 19.925781 L 26.857422 19.857422 L 26.78125 19.857422 L 26.789062 19.789062 L 26.710938 19.789062 L 26.71875 19.71875 L 26.640625 19.71875 L 26.648438 19.648438 L 26.570312 19.648438 L 26.578125 19.578125 L 26.498047 19.578125 L 26.505859 19.505859 L 26.425781 19.505859 L 26.433594 19.433594 L 26.353516 19.433594 L 26.361328 19.361328 L 26.279297 19.361328 L 26.287109 19.287109 L 26.205078 19.287109 L 26.212891 19.212891 L 26.128906 19.212891 L 26.136719 19.136719 L 26.050781 19.136719 L 26.060547 19.060547 L 25.976562 19.060547 L 25.984375 18.984375 L 25.900391 18.984375 L 25.898438 18.978516 L 25.896484 18.978516 L 25.90625 18.90625 L 25.818359 18.90625 L 25.828125 18.828125 L 25.740234 18.828125 L 25.75 18.75 L 25.660156 18.75 L 25.669922 18.669922 L 25.578125 18.669922 L 25.587891 18.587891 L 25.5 18.587891 L 25.498047 18.587891 L 25.498047 18.585938 L 25.507812 18.507812 L 25.416016 18.507812 L 25.425781 18.425781 L 25.335938 18.425781 L 25.333984 18.416016 L 25.341797 18.341797 L 25.25 18.341797 L 25.259766 18.259766 L 25.166016 18.259766 L 25.175781 18.175781 L 25.080078 18.175781 L 25.089844 18.089844 L 24.994141 18.089844 L 25.003906 18.003906 L 24.908203 18.003906 L 24.917969 17.917969 L 24.820312 17.917969 L 24.830078 17.830078 L 24.742188 17.830078 L 24.738281 17.818359 L 24.734375 17.820312 L 24.742188 17.742188 L 24.644531 17.742188 L 24.654297 17.654297 L 24.554688 17.654297 L 24.564453 17.564453 L 24.480469 17.564453 L 24.478516 17.558594 L 24.464844 17.5625 L 24.474609 17.474609 L 24.373047 17.474609 L 24.382812 17.382812 L 24.283203 17.382812 L 24.28125 17.375 L 24.291016 17.291016 L 24.208984 17.291016 L 24.208984 17.289062 L 24.201172 17.291016 L 24.189453 17.291016 L 24.199219 17.199219 L 24.09375 17.199219 L 24.105469 17.105469 L 24.003906 17.105469 L 24.001953 17.091797 L 24.011719 17.011719 L 23.927734 17.011719 L 23.925781 17.005859 L 23.904297 17.011719 L 23.916016 16.916016 L 23.810547 16.916016 L 23.822266 16.822266 L 23.714844 16.822266 L 23.712891 16.814453 L 23.724609 16.724609 L 23.636719 16.724609 L 23.632812 16.712891 L 23.617188 16.716797 L 23.628906 16.628906 L 23.519531 16.628906 L 23.53125 16.53125 L 23.419922 16.53125 L 23.431641 16.431641 L 23.332031 16.431641 L 23.326172 16.40625 L 23.333984 16.333984 L 23.25 16.333984 L 23.248047 16.328125 L 23.222656 16.333984 L 23.234375 16.234375 L 23.121094 16.234375 L 23.132812 16.132812 L 23.021484 16.132812 L 23.019531 16.128906 L 23.03125 16.03125 L 22.933594 16.03125 L 22.927734 16.007812 L 22.919922 16.009766 L 22.929688 15.929688 L 22.847656 15.929688 L 22.845703 15.925781 L 22.830078 15.929688 L 22.814453 15.929688 L 22.826172 15.826172 L 22.710938 15.826172 L 22.722656 15.722656 L 22.607422 15.722656 L 22.619141 15.619141 L 22.517578 15.619141 L 22.509766 15.589844 L 22.505859 15.591797 L 22.513672 15.513672 L 22.425781 15.513672 L 22.423828 15.503906 L 22.396484 15.511719 L 22.408203 15.408203 L 22.289062 15.408203 L 22.300781 15.300781 L 22.181641 15.300781 L 22.193359 15.193359 L 22.083984 15.193359 L 22.078125 15.166016 L 22.085938 15.085938 L 21.990234 15.085938 L 21.984375 15.064453 L 21.966797 15.068359 L 21.976562 14.976562 L 21.894531 14.976562 L 21.894531 14.974609 L 21.886719 14.976562 L 21.855469 14.976562 L 21.867188 14.867188 L 21.746094 14.867188 L 21.757812 14.757812 L 21.632812 14.757812 L 21.632812 14.755859 L 21.646484 14.646484 L 21.535156 14.646484 L 21.525391 14.609375 L 21.535156 14.535156 L 21.4375 14.535156 L 21.431641 14.511719 L 21.410156 14.517578 L 21.421875 14.421875 L 21.339844 14.421875 L 21.337891 14.416016 L 21.316406 14.421875 L 21.294922 14.421875 L 21.308594 14.308594 L 21.181641 14.308594 L 21.195312 14.195312 L 21.066406 14.195312 L 21.080078 14.080078 L 20.962891 14.080078 L 20.955078 14.046875 L 20.964844 13.964844 L 20.859375 13.964844 L 20.851562 13.931641 L 20.837891 13.935547 L 20.847656 13.847656 L 20.757812 13.847656 L 20.753906 13.833984 L 20.716797 13.84375 L 20.730469 13.730469 L 20.599609 13.730469 L 20.613281 13.613281 L 20.482422 13.613281 L 20.496094 13.496094 L 20.367188 13.496094 L 20.363281 13.488281 L 20.376953 13.376953 L 20.257812 13.376953 L 20.248047 13.332031 L 20.255859 13.255859 L 20.150391 13.255859 L 20.142578 13.222656 L 20.125 13.226562 L 20.134766 13.134766 L 20.042969 13.134766 L 20.039062 13.119141 L 20 13.128906 L 20.013672 13.013672 L 19.878906 13.013672 L 19.892578 12.892578 L 19.755859 12.892578 L 19.769531 12.769531 L 19.632812 12.769531 L 19.630859 12.765625 L 19.644531 12.644531 L 19.519531 12.644531 L 19.511719 12.609375 L 19.521484 12.521484 L 19.408203 12.521484 L 19.396484 12.476562 L 19.386719 12.478516 L 19.396484 12.396484 L 19.294922 12.396484 L 19.287109 12.367188 L 19.255859 12.375 L 19.269531 12.269531 L 19.179688 12.269531 L 19.177734 12.257812 L 19.128906 12.269531 L 19.142578 12.142578 L 19 12.142578 L 19.015625 12.015625 L 18.875 12.015625 L 18.888672 11.888672 L 18.748047 11.888672 L 18.746094 11.876953 L 18.759766 11.759766 L 18.630859 11.759766 L 18.619141 11.710938 L 18.628906 11.628906 L 18.511719 11.628906 L 18.5 11.580078 L 18.490234 11.582031 L 18.5 11.5 L 18.394531 11.5 L 18.384766 11.464844 L 18.357422 11.472656 L 18.369141 11.369141 L 18.273438 11.369141 L 18.267578 11.347656 L 18.222656 11.359375 L 18.236328 11.236328 L 18.154297 11.236328 L 18.152344 11.230469 L 18.130859 11.236328 L 18.087891 11.236328 L 18.103516 11.103516 L 17.955078 11.103516 L 17.970703 10.970703 L 17.820312 10.970703 L 17.835938 10.835938 L 17.695312 10.835938 L 17.689453 10.808594 L 17.701172 10.701172 L 17.570312 10.701172 L 17.556641 10.644531 L 17.566406 10.566406 L 17.447266 10.566406 L 17.433594 10.513672 L 17.419922 10.517578 L 17.429688 10.429688 L 17.322266 10.429688 L 17.3125 10.392578 L 17.28125 10.400391 L 17.292969 10.292969 L 17.195312 10.292969 L 17.189453 10.269531 L 17.140625 10.283203 L 17.154297 10.154297 L 17.066406 10.154297 L 17.064453 10.144531 L 17.027344 10.154297 L 17.001953 10.154297 L 17.017578 10.017578 L 16.861328 10.017578 L 16.876953 9.8769531 L 16.722656 9.8769531 L 16.738281 9.7382812 L 16.585938 9.7382812 L 16.583984 9.7265625 L 16.597656 9.5976562 L 16.457031 9.5976562 L 16.445312 9.5507812 L 16.455078 9.4550781 L 16.324219 9.4550781 L 16.308594 9.3886719 L 16.304688 9.390625 L 16.3125 9.3125 L 16.193359 9.3125 L 16.179688 9.2597656 L 16.160156 9.265625 L 16.169922 9.1699219 L 16.058594 9.1699219 L 16.048828 9.1289062 L 16.015625 9.1386719 L 16.027344 9.0273438 L 15.925781 9.0273438 L 15.919922 9 L 15.867188 9.0136719 L 15.882812 8.8828125 L 15.792969 8.8828125 L 15.789062 8.8691406 L 15.736328 8.8828125 L 15.71875 8.8828125 L 15.736328 8.7363281 L 15.574219 8.7363281 L 15.591797 8.5917969 L 15.427734 8.5917969 L 15.445312 8.4453125 L 15.283203 8.4453125 L 15.28125 8.4355469 L 15.296875 8.296875 L 15.144531 8.296875 L 15.134766 8.2578125 L 15.148438 8.1484375 L 15.007812 8.1484375 L 14.986328 8.0664062 L 14.890625 8.0917969 L 14.849609 7.9296875 L 14.753906 7.9550781 L 14.712891 7.7929688 L 14.617188 7.8183594 L 14.576172 7.6542969 L 14.478516 7.6796875 L 14.4375 7.5175781 L 14.337891 7.5429688 L 14.296875 7.3769531 L 14.199219 7.4023438 L 14.158203 7.2382812 L 14.058594 7.2636719 L 14.017578 7.0976562 L 13.917969 7.1230469 L 13.875 6.9550781 L 13.775391 6.9824219 L 13.732422 6.8125 L 13.632812 6.8398438 L 13.589844 6.6699219 L 13.490234 6.6972656 L 13.447266 6.5273438 L 13.345703 6.5546875 L 13.302734 6.3828125 L 13.199219 6.4101562 L 13.15625 6.2363281 L 13.054688 6.2636719 L 13.011719 6.0917969 L 12.908203 6.1191406 L 12.865234 5.9453125 L 12.761719 5.9726562 L 12.716797 5.796875 L 12.613281 5.8242188 L 12.568359 5.6484375 z "
       id="path6239"
       style="fill-opacity:1;fill:url(#linearGradient7089)"
       clip-path="url(#clipPath7094)" />
    <path
       inkscape:connector-curvature="0"
       d="m 11.749978,14.500005 -0.75,-6.5000003 1.115,0 -0.565,-2.2699999 0.87,-0.23 0.625,2.4999999 1.955,0 -0.75,6.5000003 -2.5,0 m -5.2500002,-5.0000003 2.5,0 a 1.5,1.5 0 0 1 1.5000002,1.5000003 l -5.5000002,0 a 1.5,1.5 0 0 1 1.5,-1.5000003 m 4.0000002,3.5000003 a 1.5,1.5 0 0 1 -1.5000002,1.5 l -2.5,0 a 1.5,1.5 0 0 1 -1.5,-1.5 l 5.5000002,0 m -5.0000002,-1.5 2.5,0 0.75,0.75 0.75,-0.75 0.5,0 a 0.5,0.5 0 0 1 0.5000002,0.5 0.5,0.5 0 0 1 -0.5000002,0.5 l -4.5,0 a 0.5,0.5 0 0 1 -0.5,-0.5 0.5,0.5 0 0 1 0.5,-0.5 z"
       id="path6182"
       style="fill:#ffc107" />
    <path
       id="path7098"
       d="m 11.749978,14.500005 -0.75,-6.5000003 1.115,0 -0.565,-2.2699999 0.87,-0.23 0.625,2.4999999 1.955,0 -0.75,6.5000003 -2.5,0 m -5.2500002,-5.0000003 2.5,0 a 1.5,1.5 0 0 1 1.5000002,1.5000003 l -5.5000002,0 a 1.5,1.5 0 0 1 1.5,-1.5000003 m 4.0000002,3.5000003 a 1.5,1.5 0 0 1 -1.5000002,1.5 l -2.5,0 a 1.5,1.5 0 0 1 -1.5,-1.5 l 5.5000002,0 m -5.0000002,-1.5 2.5,0 0.75,0.75 0.75,-0.75 0.5,0 a 0.5,0.5 0 0 1 0.5000002,0.5 0.5,0.5 0 0 1 -0.5000002,0.5 l -4.5,0 a 0.5,0.5 0 0 1 -0.5,-0.5 0.5,0.5 0 0 1 0.5,-0.5 z"
       inkscape:connector-curvature="0"
       clip-path="url(#clipPath7102)"
       style="fill:#cddc39" />
  </g>
</svg>
