<?xml version="1.0" encoding="UTF-8" standalone="no"?>
<!-- Created with Inkscape (http://www.inkscape.org/) -->

<svg
   xmlns:dc="http://purl.org/dc/elements/1.1/"
   xmlns:cc="http://creativecommons.org/ns#"
   xmlns:rdf="http://www.w3.org/1999/02/22-rdf-syntax-ns#"
   xmlns:svg="http://www.w3.org/2000/svg"
   xmlns="http://www.w3.org/2000/svg"
   xmlns:xlink="http://www.w3.org/1999/xlink"
   xmlns:sodipodi="http://sodipodi.sourceforge.net/DTD/sodipodi-0.dtd"
   xmlns:inkscape="http://www.inkscape.org/namespaces/inkscape"
   inkscape:export-ydpi="648"
   inkscape:export-xdpi="648"
   inkscape:export-filename="/home/juergen/Schreibtisch/2.png"
   sodipodi:docname="Gallery2.svg"
   inkscape:version="0.91 r13725"
   version="1.1"
   id="svg2"
   viewBox="0 0 30 30"
   height="30"
   width="30">
  <sodipodi:namedview
     inkscape:snap-to-guides="true"
     inkscape:snap-grids="true"
     inkscape:window-maximized="1"
     inkscape:window-y="32"
     inkscape:window-x="0"
     inkscape:window-height="700"
     inkscape:window-width="1366"
     inkscape:guide-bbox="true"
     showguides="true"
     fit-margin-bottom="5"
     fit-margin-right="5"
     fit-margin-left="5"
     fit-margin-top="5"
     showgrid="false"
     inkscape:current-layer="layer1"
     inkscape:document-units="px"
     inkscape:cy="10.321108"
     inkscape:cx="-0.72485729"
     inkscape:zoom="11.313709"
     inkscape:pageshadow="2"
     inkscape:pageopacity="0.0"
     borderopacity="1.0"
     bordercolor="#666666"
     pagecolor="#ffffff"
     id="base"
     units="px">
    <inkscape:grid
       id="grid4138"
       type="xygrid"
       originx="5.0000223"
       originy="5.0000048" />
    <sodipodi:guide
       id="guide4140"
       orientation="0,1"
       position="15.000022,23.000005" />
    <sodipodi:guide
       id="guide4142"
       orientation="0,1"
       position="15.000022,7.0000048" />
    <sodipodi:guide
       id="guide4144"
       orientation="1,0"
       position="7.0000223,15.000005" />
    <sodipodi:guide
       id="guide4146"
       orientation="0,20"
       position="5.0000223,5.0000048" />
    <sodipodi:guide
       id="guide4148"
       orientation="-20,0"
       position="25.000022,5.0000048" />
    <sodipodi:guide
       id="guide4150"
       orientation="0,-20"
       position="25.000022,25.000005" />
    <sodipodi:guide
       id="guide4152"
       orientation="20,0"
       position="5.0000223,25.000005" />
    <sodipodi:guide
       id="guide4154"
       orientation="1,0"
       position="23.000022,15.000005" />
    <sodipodi:guide
       id="guide4156"
       orientation="-0.70710678,0.70710678"
       position="15.000022,15.000005" />
    <sodipodi:guide
       id="guide4160"
       orientation="1,0"
       position="9.0000223,15.000005" />
    <sodipodi:guide
       id="guide4162"
       orientation="1,0"
       position="21.000022,15.000005" />
    <sodipodi:guide
       id="guide4164"
       orientation="0,1"
       position="15.000022,21.000005" />
    <sodipodi:guide
       id="guide4166"
       orientation="0,1"
       position="15.000022,9.0000048" />
    <sodipodi:guide
       id="guide4170"
       orientation="0,1"
       position="15.000022,10.000005" />
    <sodipodi:guide
       id="guide4172"
       orientation="1,0"
       position="10.000022,15.000005" />
    <sodipodi:guide
       id="guide4174"
       orientation="1,0"
       position="20.000022,15.000005" />
  </sodipodi:namedview>
  <defs
     id="defs4">
    <linearGradient
       inkscape:collect="always"
       id="linearGradient4551">
      <stop
         style="stop-color:#000000;stop-opacity:1;"
         offset="0"
         id="stop4553" />
      <stop
         style="stop-color:#000000;stop-opacity:0;"
         offset="1"
         id="stop4555" />
    </linearGradient>
    <clipPath
       clipPathUnits="userSpaceOnUse"
       id="clipPath12478">
      <circle
         style="opacity:1;fill:#2196f3;fill-opacity:1;stroke:none;stroke-width:0.05069799;stroke-miterlimit:4;stroke-dasharray:none;stroke-opacity:1"
         id="circle12480"
         cx="9.9999781"
         cy="10.000005"
         r="10" />
    </clipPath>
    <clipPath
       id="clipPath5790"
       clipPathUnits="userSpaceOnUse">
      <circle
         inkscape:export-ydpi="648"
         inkscape:export-xdpi="648"
         inkscape:export-filename="/home/juergen/path4136.png"
         style="opacity:1;fill:#2196f3;fill-opacity:1;stroke:none;stroke-width:0.05069799;stroke-miterlimit:4;stroke-dasharray:none;stroke-opacity:1"
         id="circle5792"
         cx="9.9999781"
         cy="10.000005"
         r="10" />
    </clipPath>
    <clipPath
       clipPathUnits="userSpaceOnUse"
       id="clipPath5055">
      <circle
         inkscape:export-ydpi="648"
         inkscape:export-xdpi="648"
         inkscape:export-filename="/home/juergen/path4136.png"
         style="opacity:1;fill:#2196f3;fill-opacity:1;stroke:none;stroke-width:0.05069799;stroke-miterlimit:4;stroke-dasharray:none;stroke-opacity:1"
         id="circle5057"
         cx="9.9999781"
         cy="10.000005"
         r="10" />
    </clipPath>
    <clipPath
       id="clipPath5119"
       clipPathUnits="userSpaceOnUse">
      <circle
         inkscape:export-ydpi="648"
         inkscape:export-xdpi="648"
         inkscape:export-filename="/home/juergen/Schreibtisch/path4136.png"
         style="opacity:1;fill:#2196f3;fill-opacity:1;stroke:none;stroke-width:0.05069799;stroke-miterlimit:4;stroke-dasharray:none;stroke-opacity:1"
         id="circle5121"
         cx="9.9999781"
         cy="10.000005"
         r="10" />
    </clipPath>
    <clipPath
       clipPathUnits="userSpaceOnUse"
       id="clipPath5194">
      <circle
         inkscape:export-ydpi="648"
         inkscape:export-xdpi="648"
         inkscape:export-filename="/home/juergen/Schreibtisch/path4136.png"
         style="opacity:1;fill:#cddc39;fill-opacity:1;stroke:none;stroke-width:0.05069799;stroke-miterlimit:4;stroke-dasharray:none;stroke-opacity:1"
         id="circle5196"
         cx="9.9999781"
         cy="10.000005"
         r="10" />
    </clipPath>
    <clipPath
       id="clipPath6175"
       clipPathUnits="userSpaceOnUse">
      <circle
         inkscape:export-ydpi="648"
         inkscape:export-xdpi="648"
         inkscape:export-filename="/home/juergen/Schreibtisch/path4136.png"
         style="opacity:1;fill:#f44336;fill-opacity:1;stroke:none;stroke-width:0.05069799;stroke-miterlimit:4;stroke-dasharray:none;stroke-opacity:1"
         id="circle6177"
         cx="9.9999781"
         cy="10.000005"
         r="10" />
    </clipPath>
    <clipPath
       clipPathUnits="userSpaceOnUse"
       id="clipPath7176">
      <circle
         inkscape:export-ydpi="648"
         inkscape:export-xdpi="648"
         inkscape:export-filename="/home/juergen/Schreibtisch/path4136.png"
         style="opacity:1;fill:#9c27b0;fill-opacity:1;stroke:none;stroke-width:0.05069799;stroke-miterlimit:4;stroke-dasharray:none;stroke-opacity:1"
         id="circle7178"
         cx="9.9999781"
         cy="10.000005"
         r="10" />
    </clipPath>
    <clipPath
       id="clipPath8165"
       clipPathUnits="userSpaceOnUse">
      <circle
         inkscape:export-ydpi="648"
         inkscape:export-xdpi="648"
         inkscape:export-filename="/home/juergen/Schreibtisch/path4136.png"
         style="opacity:1;fill:#ffc107;fill-opacity:1;stroke:none;stroke-width:0.05069799;stroke-miterlimit:4;stroke-dasharray:none;stroke-opacity:1"
         id="circle8167"
         cx="9.9999781"
         cy="10.000005"
         r="10" />
    </clipPath>
    <clipPath
       clipPathUnits="userSpaceOnUse"
       id="clipPath9162">
      <circle
         inkscape:export-ydpi="648"
         inkscape:export-xdpi="648"
         inkscape:export-filename="/home/juergen/Schreibtisch/path4136.png"
         style="opacity:1;fill:#ff9800;fill-opacity:1;stroke:none;stroke-width:0.05069799;stroke-miterlimit:4;stroke-dasharray:none;stroke-opacity:1"
         id="circle9164"
         cx="9.9999781"
         cy="10.000005"
         r="10" />
    </clipPath>
    <clipPath
       id="clipPath10753"
       clipPathUnits="userSpaceOnUse">
      <circle
         inkscape:export-ydpi="648"
         inkscape:export-xdpi="648"
         inkscape:export-filename="/home/juergen/Schreibtisch/path4136.png"
         style="opacity:1;fill:#607d8b;fill-opacity:1;stroke:none;stroke-width:0.05069799;stroke-miterlimit:4;stroke-dasharray:none;stroke-opacity:1"
         id="circle10755"
         cx="9.9999781"
         cy="10.000005"
         r="10" />
    </clipPath>
    <clipPath
       clipPathUnits="userSpaceOnUse"
       id="clipPath5153">
      <circle
         inkscape:export-ydpi="648"
         inkscape:export-xdpi="648"
         inkscape:export-filename="/home/juergen/Schreibtisch/path4136.png"
         style="opacity:1;fill:#2196f3;fill-opacity:1;stroke:none;stroke-width:0.05069799;stroke-miterlimit:4;stroke-dasharray:none;stroke-opacity:1"
         id="circle5155"
         cx="9.9999781"
         cy="10.000005"
         r="10" />
    </clipPath>
    <clipPath
       id="clipPath6158"
       clipPathUnits="userSpaceOnUse">
      <circle
         r="10"
         cy="10.000005"
         cx="9.9999781"
         id="circle6160"
         style="opacity:1;fill:#ff9800;fill-opacity:1;stroke:none;stroke-width:0.05069799;stroke-miterlimit:4;stroke-dasharray:none;stroke-opacity:1"
         inkscape:export-filename="/home/juergen/Schreibtisch/path4136.png"
         inkscape:export-xdpi="648"
         inkscape:export-ydpi="648" />
    </clipPath>
    <linearGradient
       inkscape:collect="always"
       xlink:href="#linearGradient4551"
       id="linearGradient4557"
       x1="5"
       y1="17.5"
       x2="30"
       y2="17.5"
       gradientUnits="userSpaceOnUse" />
    <clipPath
       clipPathUnits="userSpaceOnUse"
       id="clipPath5479">
      <circle
         r="10"
         cy="10.000005"
         cx="9.9999781"
         id="circle5481"
         style="opacity:1;fill:#ff9800;fill-opacity:1;stroke:none;stroke-width:0.05069799;stroke-miterlimit:4;stroke-dasharray:none;stroke-opacity:1"
         inkscape:export-filename="/home/juergen/Schreibtisch/1.png"
         inkscape:export-xdpi="648"
         inkscape:export-ydpi="648" />
    </clipPath>
  </defs>
  <metadata
     id="metadata7">
    <rdf:RDF>
      <cc:Work
         rdf:about="">
        <dc:format>image/svg+xml</dc:format>
        <dc:type
           rdf:resource="http://purl.org/dc/dcmitype/StillImage" />
        <dc:title></dc:title>
      </cc:Work>
    </rdf:RDF>
  </metadata>
  <g
     transform="translate(1063.1428,-856.93365)"
     id="layer1"
     inkscape:groupmode="layer"
     inkscape:label="Hintergrund">
    <circle
       r="10"
       cy="871.93365"
       cx="-1048.1428"
       id="path4136"
       style="opacity:1;fill:#ff9800;fill-opacity:1;stroke:none;stroke-width:0.05069799;stroke-miterlimit:4;stroke-dasharray:none;stroke-opacity:1"
       inkscape:export-filename="/home/juergen/Schreibtisch/path4136.png"
       inkscape:export-xdpi="648"
       inkscape:export-ydpi="648" />
    <circle
       inkscape:export-ydpi="648"
       inkscape:export-xdpi="648"
       inkscape:export-filename="/home/juergen/Schreibtisch/ic_launcher.png"
       style="opacity:1;fill:#2196f3;fill-opacity:1;stroke:none;stroke-width:0.05069799;stroke-miterlimit:4;stroke-dasharray:none;stroke-opacity:1"
       id="circle6153"
       cx="-1048.1428"
       cy="871.93365"
       r="10" />
    <path
       d="m 5,6.8183594 0,6.3632816 0.074219,0 0,0.07422 0.074219,0 0,0.07422 0,0.002 0.076172,0 0,0.07422 0.074219,0 0,0.07422 0.074219,0 0,0.07422 0.074219,0 0,0.07422 0.074219,0 0,0.07422 0,0.002 0.076172,0 0,0.07422 0.074219,0 0,0.07422 0.074219,0 0,0.07422 0.074219,0 0,0.07422 0.074219,0 0,0.07422 0,0.002 0.076172,0 0,0.07422 0.074219,0 0,0.07422 0.074219,0 0,0.07422 0.074219,0 0,0.07422 0.076172,0 0,0.07617 0.074219,0 0,0.07422 0.074219,0 0,0.07422 0.074219,0 0,0.07422 0.074219,0 0,0.07422 0.076172,0 0,0.07617 0.074219,0 0,0.07422 0.074219,0 0,0.07422 0.074219,0 0,0.07422 0.074219,0 0,0.07422 0,0.002 0.076172,0 0,0.07422 0.074219,0 0,0.07422 0.074219,0 0,0.07422 0.074219,0 0,0.07422 0.074219,0 0,0.07422 0,0.002 0.076172,0 0,0.07422 0.074219,0 0,0.07422 0.074219,0 0,0.07422 0.074219,0 0,0.07422 0.076172,0 0,0.07422 0,0.002 0.074219,0 0,0.07422 0.074219,0 0,0.07422 0.074219,0 0,0.07422 0.074219,0 0,0.07422 0.076172,0 0,0.07617 0.074219,0 0,0.07422 0.074219,0 0,0.07422 0.074219,0 0,0.07422 0.074219,0 0,0.07422 0.076172,0 0,0.07617 0.074219,0 0,0.07422 0.074219,0 0,0.07422 0.074219,0 0,0.07422 0.074219,0 0,0.07422 0,0.002 0.076172,0 0,0.07422 0.074219,0 0,0.07422 0.074219,0 0,0.07422 0.074219,0 0,0.07422 0.074219,0 0,0.07422 0,0.002 0.076172,0 0,0.07422 0.074219,0 0,0.07422 0.074219,0 0,0.07422 0.074219,0 0,0.07422 0.076172,0 0,0.07617 0.074219,0 0,0.07422 0.074219,0 0,0.07422 0.074219,0 0,0.07422 0.074219,0 0,0.07422 0.076172,0 0,0.07617 0.074219,0 0,0.07422 0.074219,0 0,0.07422 0.07422,0 0,0.07422 0.07422,0 0,0.07422 0,0.002 0.07617,0 0,0.07422 0.07422,0 0,0.07422 0.07422,0 0,0.07422 0.07422,0 0,0.07422 0.07422,0 0,0.07422 0,0.002 0.07617,0 0,0.07422 0.07422,0 0,0.07422 0.07422,0 0,0.07422 0.07422,0 0,0.07422 0.07422,0 0,0.07617 0.07617,0 0,0.07422 0.07422,0 0,0.07422 0.07422,0 0,0.07422 0.07422,0 0,0.07422 0.07617,0 0,0.07617 0.07422,0 0,0.07422 0.07422,0 0,0.07422 0.07422,0 0,0.07422 0.07422,0 0,0.07422 0.07617,0 0,0.07617 0.07422,0 0,0.07422 0.07422,0 0,0.07422 0.07422,0 0,0.07422 0.07422,0 0,0.07422 0,0.002 0.07617,0 0,0.07422 0.07422,0 0,0.07422 0.07422,0 0,0.07422 0.07422,0 0,0.07422 0.07422,0 0,0.07422 0,0.002 0.07617,0 0,0.07422 0.07422,0 0,0.07422 0.07422,0 0,0.07422 0.07422,0 0,0.07422 0.07617,0 0,0.07617 0.07422,0 0,0.07422 0.07422,0 0,0.07422 0.07422,0 0,0.07422 0.07422,0 0,0.07422 0.07617,0 0,0.07617 0.07422,0 0,0.07422 0.07422,0 0,0.07422 0.07422,0 0,0.07422 0.07422,0 0,0.07422 0.07617,0 0,0.07617 0.07422,0 0,0.07422 0.07422,0 0,0.07422 0.07422,0 0,0.07422 0.07422,0 0,0.07422 0,0.002 0.07617,0 0,0.07422 0.07422,0 0,0.07422 0.07422,0 0,0.07422 0.07422,0 0,0.07422 0.07422,0 0,0.07617 0.07617,0 0,0.07422 0.07422,0 0,0.07422 0.07422,0 0,0.07422 0.07422,0 0,0.07422 0.07617,0 0,0.07617 0.07422,0 0,0.07422 0.07422,0 0,0.07422 0.07422,0 0,0.07422 0.07422,0 0,0.07422 0.07617,0 0,0.07617 0.07422,0 0,0.07422 0.07422,0 0,0.07422 0.07422,0 0,0.07422 0.07422,0 0,0.07422 0,0.002 0.07617,0 0,0.07422 0.07422,0 0,0.07422 0.07422,0 0,0.07422 0.07422,0 0,0.07422 0.07422,0 0,0.07617 0.07617,0 0,0.07422 0.07422,0 0,0.07422 0.07422,0 0,0.07422 0.07422,0 0,0.07422 0.07422,0 0,0.07617 0.07617,0 0,0.07422 0.07422,0 0,0.07422 0.07422,0 0,0.07422 0.07422,0 0,0.07422 0.07617,0 0,0.07617 0.07422,0 0,0.07422 0.07422,0 0,0.07422 0.07422,0 0,0.07422 0.07422,0 0,0.07422 0.07617,0 0,0.07617 0.07422,0 0,0.07422 0.07422,0 0,0.07422 0.07422,0 0,0.07422 0.07422,0 0,0.07422 0,0.002 0.07617,0 0,0.07422 0.07422,0 0,0.07422 0.07422,0 0,0.07422 0.07422,0 0,0.07422 0.07422,0 0,0.07617 0.07617,0 0,0.07422 0.07422,0 0,0.07422 0.07422,0 0,0.07422 0.07422,0 0,0.07422 0.07617,0 0,0.07617 0.07422,0 0,0.07422 0.07422,0 0,0.07422 0.07422,0 0,0.07422 0.07422,0 0,0.07422 0.07617,0 0,0.07617 0.07422,0 0,0.07422 0.07422,0 0,0.07422 0.07422,0 0,0.07422 0.07422,0 0,0.07422 0.07617,0 0,0.07617 0.07422,0 0,0.07422 0.07422,0 0,0.07422 0.07422,0 0,0.07422 0.07422,0 0,0.07617 0.07617,0 0,0.07422 0.07422,0 0,0.07422 0.07422,0 0,0.07422 0.07422,0 0,0.07422 0.07422,0 0,0.07617 0.07617,0 0,0.07422 0.07422,0 0,0.07422 0.07422,0 0,0.07422 0.07422,0 0,0.07422 0.07617,0 0,0.07617 0.07422,0 0,0.07422 0.07422,0 0,0.07422 0.07422,0 0,0.07422 0.07422,0 0,0.07422 0.07617,0 0,0.07617 0.07422,0 0,0.07422 0.07422,0 0,0.07422 0.908203,0 0,-0.970703 c 0.0018,0 0.01156,-1e-6 0.01367,0 l 0,0.07617 c 0,1e-6 0.06419,-10e-7 0.07617,0 l 0,0.07422 0.07422,0 0,0.07422 0.07422,0 0,0.07422 0.07422,0 0,0.07422 0.07422,0 0,0.07617 0.07617,0 0,0.07422 0.07422,0 0,0.07422 0.07422,0 0,0.07422 0.07422,0 0,0.07422 0.07422,0 0,0.01172 0,0.06445 0.07617,0 0,0.04297 0,0.03125 0.07422,0 0,0.07422 0.908203,0 0,-1.199219 c 0.01876,0.02239 0.03954,0.0405 0.0625,0.05859 0.02153,0.02807 0.04452,0.0523 0.07227,0.07422 0.02235,0.02906 0.0472,0.05371 0.07617,0.07617 0.02113,0.02697 0.04343,0.05103 0.07031,0.07227 0.02221,0.02866 0.04756,0.05195 0.07617,0.07422 0.02123,0.0272 0.0433,0.05081 0.07031,0.07227 0.02156,0.02791 0.04469,0.05226 0.07227,0.07422 0.02212,0.02864 0.0458,0.05378 0.07422,0.07617 0.02142,0.02741 0.04506,0.05061 0.07227,0.07227 0.02166,0.02793 0.04464,0.05218 0.07227,0.07422 0.02254,0.02903 0.04725,0.0535 0.07617,0.07617 0.02108,0.02664 0.04379,0.04908 0.07031,0.07031 0.02258,0.02903 0.04726,0.05344 0.07617,0.07617 0.02135,0.02707 0.04342,0.0507 0.07031,0.07227 0.08319,0.106542 0.20787,0.179688 0.353516,0.179688 l 5.453125,0 0.002,0 c 0.120151,-0.0011 0.235088,-0.04863 0.320166,-0.133699 C 29.952117,27.963628 30,27.84688 30,27.726562 l 0,-5.453124 c 0,-0.120554 -0.04757,-0.237022 -0.132812,-0.322266 -0.01286,-0.01286 -0.03076,-0.01817 -0.04492,-0.0293 -0.01116,-0.01423 -0.01638,-0.032 -0.0293,-0.04492 0,0 -0.002,0 -0.002,0 -0.0131,-0.0131 -0.03047,-0.01996 -0.04492,-0.03125 -0.0109,-0.01383 -0.01672,-0.03039 -0.0293,-0.04297 0,0 -0.002,-0.002 -0.002,-0.002 -0.01182,-0.01181 -0.02809,-0.01701 -0.04102,-0.02734 -0.01151,-0.01487 -0.01781,-0.03344 -0.03125,-0.04688 -0.0013,-0.0013 -0.0021,-0.002 -0.0039,-0.002 -0.01118,-0.01118 -0.02688,-0.01554 -0.03906,-0.02539 -0.0116,-0.01504 -0.01767,-0.0333 -0.03125,-0.04687 -0.0017,-0.0017 -0.0035,-0.002 -0.0059,-0.002 -0.01077,-0.01077 -0.0254,-0.01586 -0.03711,-0.02539 -0.01154,-0.01497 -0.01774,-0.03337 -0.03125,-0.04687 -0.0021,-0.0021 -0.0048,-0.0039 -0.0078,-0.0039 -0.01013,-0.01013 -0.02419,-0.01441 -0.03516,-0.02344 -0.01157,-0.01504 -0.01768,-0.03331 -0.03125,-0.04687 -0.0025,-0.0025 -0.0062,-0.0039 -0.0098,-0.0039 -0.0094,-0.0094 -0.02304,-0.01301 -0.0332,-0.02148 -0.01206,-0.01592 -0.01892,-0.03455 -0.0332,-0.04883 -0.003,-0.003 -0.0056,-0.0059 -0.0098,-0.0059 -0.0089,-0.0089 -0.02172,-0.0115 -0.03125,-0.01953 -0.01216,-0.01615 -0.01874,-0.03632 -0.0332,-0.05078 -0.0034,-0.0034 -0.0069,-0.0039 -0.01172,-0.0039 -0.008,-0.008 -0.0188,-0.01222 -0.02734,-0.01953 -0.01243,-0.01667 -0.02028,-0.0359 -0.03516,-0.05078 -0.0038,-0.0038 -0.0083,-0.0059 -0.01367,-0.0059 -0.0078,-0.0078 -0.01908,-0.01048 -0.02734,-0.01758 -0.0122,-0.01626 -0.01866,-0.03624 -0.0332,-0.05078 -0.0042,-0.0042 -0.0097,-0.0059 -0.01563,-0.0059 -0.0068,-0.0068 -0.0163,-0.0094 -0.02344,-0.01563 -0.01272,-0.01727 -0.0198,-0.03738 -0.03516,-0.05273 -0.0047,-0.0046 -0.011,-0.0078 -0.01758,-0.0078 -0.0074,-0.0074 -0.01757,-0.01081 -0.02539,-0.01758 -0.0119,-0.01579 -0.01906,-0.03469 -0.0332,-0.04883 -0.0051,-0.0051 -0.0104,-0.0078 -0.01758,-0.0078 -0.0061,-0.0061 -0.01507,-0.008 -0.02148,-0.01367 -0.01284,-0.01758 -0.01957,-0.0391 -0.03516,-0.05469 -0.0055,-0.0055 -0.01369,-0.0078 -0.02148,-0.0078 -0.0045,-0.0045 -0.01099,-0.0055 -0.01563,-0.0098 -0.01328,-0.01849 -0.0208,-0.04033 -0.03711,-0.05664 -0.0059,-0.0059 -0.01506,-0.0098 -0.02344,-0.0098 -0.0044,-0.0044 -0.01102,-0.0055 -0.01563,-0.0098 -0.01287,-0.01771 -0.01948,-0.03901 -0.03516,-0.05469 -0.0064,-0.0063 -0.01641,-0.0098 -0.02539,-0.0098 -0.0038,-0.0038 -0.0097,-0.0042 -0.01367,-0.0078 -0.01324,-0.01849 -0.02082,-0.04035 -0.03711,-0.05664 -0.0068,-0.0068 -0.01581,-0.01172 -0.02539,-0.01172 -0.0034,-0.0034 -0.0082,-0.0045 -0.01172,-0.0078 -0.01314,-0.01833 -0.02096,-0.04049 -0.03711,-0.05664 -0.0072,-0.0072 -0.01716,-0.0098 -0.02734,-0.0098 -0.0021,-0.0021 -0.0057,-0.0019 -0.0078,-0.0039 -0.01379,-0.01975 -0.0218,-0.04328 -0.03906,-0.06055 -0.0076,-0.0076 -0.01852,-0.01172 -0.0293,-0.01172 -0.0013,-0.0013 -0.0026,-0.0026 -0.0039,-0.0039 -0.01375,-0.0197 -0.0238,-0.04138 -0.04102,-0.05859 -0.0081,-0.008 -0.01987,-0.01172 -0.03125,-0.01172 0,0 -0.002,-0.002 -0.002,-0.002 -0.01397,-0.02023 -0.02339,-0.04292 -0.04102,-0.06055 -0.0085,-0.0085 -0.02123,-0.01367 -0.0332,-0.01367 0,0 -0.002,-0.002 -0.002,-0.002 -0.0137,-0.0197 -0.02381,-0.04139 -0.04102,-0.05859 -0.0089,-0.0089 -0.02063,-0.01367 -0.0332,-0.01367 -0.01403,-0.02051 -0.02319,-0.04468 -0.04102,-0.0625 -0.0089,-0.0089 -0.02072,-0.01319 -0.0332,-0.01367 0,0 -0.002,0 -0.002,0 -0.01369,-0.01979 -0.02181,-0.04329 -0.03906,-0.06055 -0.0093,-0.0093 -0.02205,-0.01516 -0.03516,-0.01563 0,0 -0.002,0 -0.002,0 -0.0133,-0.01901 -0.02048,-0.04196 -0.03711,-0.05859 -0.0087,-0.0087 -0.02114,-0.01227 -0.0332,-0.01367 -0.01386,-0.02029 -0.02339,-0.04293 -0.04102,-0.06055 -0.0096,-0.0095 -0.02374,-0.01459 -0.03711,-0.01563 -0.01351,-0.01957 -0.02201,-0.04154 -0.03906,-0.05859 -0.0089,-0.0088 -0.02098,-0.01177 -0.0332,-0.01367 -0.01392,-0.02056 -0.02321,-0.04469 -0.04102,-0.0625 -0.0093,-0.0093 -0.02232,-0.01176 -0.03516,-0.01367 -0.01365,-0.02001 -0.02169,-0.04318 -0.03906,-0.06055 -0.0088,-0.0088 -0.02116,-0.01121 -0.0332,-0.01367 -0.01371,-0.02022 -0.02349,-0.04302 -0.04102,-0.06055 -0.0091,-0.0091 -0.02272,-0.01111 -0.03516,-0.01367 -0.01366,-0.02018 -0.02158,-0.04307 -0.03906,-0.06055 -0.0091,-0.0091 -0.02279,-0.01087 -0.03516,-0.01367 -0.01376,-0.02048 -0.02331,-0.04284 -0.04102,-0.06055 -0.0088,-0.0088 -0.02133,-0.01055 -0.0332,-0.01367 -0.01379,-0.02061 -0.02322,-0.04471 -0.04102,-0.0625 -0.0089,-0.0089 -0.02122,-0.01039 -0.0332,-0.01367 -0.01367,-0.02041 -0.02339,-0.04292 -0.04102,-0.06055 -0.0088,-0.0088 -0.02148,-0.01017 -0.0332,-0.01367 -0.01359,-0.02028 -0.0235,-0.04303 -0.04102,-0.06055 -0.0098,-0.0097 -0.024,-0.01222 -0.03711,-0.01562 -0.01326,-0.01957 -0.02211,-0.04164 -0.03906,-0.05859 -0.0089,-0.0089 -0.02139,-0.0099 -0.0332,-0.01367 -0.01353,-0.02029 -0.02351,-0.04305 -0.04102,-0.06055 -0.009,-0.009 -0.02134,-0.01168 -0.0332,-0.01563 -0.01352,-0.02034 -0.02349,-0.04302 -0.04102,-0.06055 -0.0089,-0.0089 -0.02154,-0.0096 -0.0332,-0.01367 -0.01355,-0.02047 -0.0234,-0.04293 -0.04102,-0.06055 -0.0094,-0.0094 -0.02276,-0.01145 -0.03516,-0.01563 -0.01318,-0.01967 -0.02208,-0.04161 -0.03906,-0.05859 -0.0092,-0.0092 -0.02311,-0.0093 -0.03516,-0.01367 -0.01348,-0.02048 -0.02342,-0.04295 -0.04102,-0.06055 -0.0091,-0.0091 -0.02139,-0.01115 -0.0332,-0.01563 -0.01336,-0.02026 -0.02359,-0.04312 -0.04102,-0.06055 -0.009,-0.009 -0.0216,-0.0091 -0.0332,-0.01367 -0.01339,-0.0204 -0.0235,-0.04303 -0.04102,-0.06055 -0.0093,-0.0093 -0.02309,-0.009 -0.03516,-0.01367 -0.01334,-0.02038 -0.02158,-0.04306 -0.03906,-0.06055 -0.0093,-0.0093 -0.02316,-0.0088 -0.03516,-0.01367 -0.01326,-0.02025 -0.02169,-0.04317 -0.03906,-0.06055 -0.0092,-0.0092 -0.02335,-0.0087 -0.03516,-0.01367 -0.01334,-0.02055 -0.02343,-0.04296 -0.04102,-0.06055 -0.0091,-0.0091 -0.02165,-0.0106 -0.0332,-0.01563 -0.01322,-0.02033 -0.02361,-0.04314 -0.04102,-0.06055 -0.009,-0.009 -0.02186,-0.0086 -0.0332,-0.01367 -0.01324,-0.02047 -0.02351,-0.04304 -0.04102,-0.06055 -0.0093,-0.0093 -0.02334,-0.0084 -0.03516,-0.01367 -0.0132,-0.02045 -0.02158,-0.04307 -0.03906,-0.06055 -0.0087,-0.0087 -0.02236,-0.0084 -0.0332,-0.01367 -0.01325,-0.02067 -0.02339,-0.04292 -0.04102,-0.06055 -0.0092,-0.0092 -0.02358,-0.01024 -0.03516,-0.01563 -0.01307,-0.0203 -0.02368,-0.04126 -0.04102,-0.05859 -0.0088,-0.0088 -0.02229,-0.0083 -0.0332,-0.01367 -0.01326,-0.02091 -0.02323,-0.04472 -0.04102,-0.0625 -0.0092,-0.0092 -0.02366,-0.0081 -0.03516,-0.01367 -0.01303,-0.02039 -0.02169,-0.04317 -0.03906,-0.06055 -0.0088,-0.0087 -0.02238,-0.0082 -0.0332,-0.01367 -0.01307,-0.02059 -0.0235,-0.04303 -0.04102,-0.06055 -0.0097,-0.0097 -0.02492,-0.0098 -0.03711,-0.01563 -0.01277,-0.01988 -0.0221,-0.04163 -0.03906,-0.05859 -0.0088,-0.0088 -0.02242,-0.008 -0.0332,-0.01367 -0.0131,-0.0209 -0.0233,-0.04283 -0.04102,-0.06055 -0.01391,-0.01387 -0.0344,-0.01548 -0.05273,-0.02148 -0.01134,-0.01654 -0.0071,-0.0403 -0.02148,-0.05469 -0.01391,-0.01386 -0.03447,-0.01533 -0.05273,-0.02148 -0.01107,-0.016 -0.0075,-0.03879 -0.02148,-0.05273 -0.01389,-0.01385 -0.03454,-0.01518 -0.05273,-0.02148 -0.01107,-0.01607 -0.0075,-0.03874 -0.02148,-0.05273 -0.0144,-0.01436 -0.03577,-0.01706 -0.05469,-0.02344 -0.01077,-0.01547 -0.008,-0.03727 -0.02148,-0.05078 -0.01358,-0.01353 -0.03317,-0.01488 -0.05078,-0.02148 -0.01133,-0.01677 -0.0089,-0.04017 -0.02344,-0.05469 -0.01401,-0.01396 -0.03451,-0.01479 -0.05273,-0.02148 -0.01096,-0.01599 -0.0076,-0.03883 -0.02148,-0.05273 -0.014,-0.01396 -0.03458,-0.01466 -0.05273,-0.02148 -0.01097,-0.01607 -0.0075,-0.03878 -0.02148,-0.05273 -0.01389,-0.01385 -0.03479,-0.01453 -0.05273,-0.02148 -0.01097,-0.01614 -0.0075,-0.03874 -0.02148,-0.05273 -0.01432,-0.01428 -0.03614,-0.01443 -0.05469,-0.02148 -0.01093,-0.0161 -0.0075,-0.03878 -0.02148,-0.05273 -0.01401,-0.01396 -0.03471,-0.0143 -0.05273,-0.02148 -0.01111,-0.01661 -0.0071,-0.04034 -0.02148,-0.05469 -0.014,-0.01395 -0.03477,-0.01419 -0.05273,-0.02148 -0.01085,-0.01606 -0.0076,-0.03883 -0.02148,-0.05273 -0.01399,-0.01394 -0.03483,-0.01408 -0.05273,-0.02148 -0.01085,-0.01614 -0.0075,-0.03878 -0.02148,-0.05273 -0.01389,-0.01384 -0.03502,-0.01398 -0.05273,-0.02148 -0.01083,-0.01616 -0.0075,-0.03878 -0.02148,-0.05273 -0.01432,-0.01428 -0.03637,-0.01386 -0.05469,-0.02148 -0.01081,-0.01618 -0.0075,-0.03877 -0.02148,-0.05273 -0.01355,-0.01351 -0.03364,-0.01382 -0.05078,-0.02148 -0.01106,-0.01687 -0.009,-0.04021 -0.02344,-0.05469 -0.01407,-0.01403 -0.03487,-0.01368 -0.05273,-0.02148 -0.01073,-0.01614 -0.0076,-0.03883 -0.02148,-0.05273 -0.01398,-0.01393 -0.03505,-0.01359 -0.05273,-0.02148 -0.01071,-0.01616 -0.0076,-0.03882 -0.02148,-0.05273 -0.01441,-0.01437 -0.0364,-0.01346 -0.05469,-0.02148 -0.01068,-0.01618 -0.0076,-0.03882 -0.02148,-0.05273 -0.01408,-0.01403 -0.03498,-0.01341 -0.05273,-0.02148 -0.01069,-0.01627 -0.0075,-0.03876 -0.02148,-0.05273 -0.01363,-0.01358 -0.03373,-0.01339 -0.05078,-0.02148 -0.01092,-0.01695 -0.009,-0.04021 -0.02344,-0.05469 -0.01406,-0.01402 -0.03508,-0.01324 -0.05273,-0.02148 -0.0106,-0.01622 -0.0076,-0.03882 -0.02148,-0.05273 -0.01397,-0.01392 -0.03525,-0.01318 -0.05273,-0.02148 -0.01058,-0.01624 -0.0076,-0.03882 -0.02148,-0.05273 -0.01459,-0.01454 -0.03634,-0.01495 -0.05469,-0.02344 -0.01038,-0.01584 -0.0079,-0.03719 -0.02148,-0.05078 -0.01362,-0.01357 -0.03387,-0.01309 -0.05078,-0.02148 -0.01083,-0.01712 -0.0089,-0.04014 -0.02344,-0.05469 -0.01413,-0.01409 -0.03512,-0.01292 -0.05273,-0.02148 -0.01052,-0.01638 -0.0075,-0.03875 -0.02148,-0.05273 -0.01405,-0.014 -0.03528,-0.01286 -0.05273,-0.02149 -0.01049,-0.0164 -0.0075,-0.03875 -0.02148,-0.05273 -0.01404,-0.01399 -0.03533,-0.0128 -0.05273,-0.02148 -0.01049,-0.0165 -0.0074,-0.03869 -0.02148,-0.05274 -0.01458,-0.01454 -0.03653,-0.01456 -0.05469,-0.02344 -0.01025,-0.01593 -0.0079,-0.03718 -0.02148,-0.05078 -0.01368,-0.01363 -0.03395,-0.01275 -0.05078,-0.02148 -0.01067,-0.01722 -0.0089,-0.04013 -0.02344,-0.05469 -0.01411,-0.01407 -0.03531,-0.01258 -0.05273,-0.02149 -0.01037,-0.01648 -0.0075,-0.03875 -0.02148,-0.05273 -0.01386,-0.01382 -0.0357,-0.01258 -0.05273,-0.02148 -0.01034,-0.0165 -0.0075,-0.03874 -0.02148,-0.05274 -0.01386,-0.01381 -0.03574,-0.01252 -0.05273,-0.02148 -0.01034,-0.0166 -0.0074,-0.03868 -0.02148,-0.05274 -0.0144,-0.01436 -0.03695,-0.01427 -0.05469,-0.02344 -0.01007,-0.01596 -0.0079,-0.03722 -0.02148,-0.05078 -0.0135,-0.01346 -0.03434,-0.01251 -0.05078,-0.02149 -0.01049,-0.01732 -0.0089,-0.04013 -0.02344,-0.05469 -0.01393,-0.01389 -0.03571,-0.01232 -0.05273,-0.02149 -0.01018,-0.01651 -0.0075,-0.03879 -0.02148,-0.05273 -0.01393,-0.01389 -0.03575,-0.01227 -0.05273,-0.02148 -0.01018,-0.01661 -0.0075,-0.03874 -0.02148,-0.05274 -0.0143,-0.01425 -0.03722,-0.0121 -0.05469,-0.02148 -0.01012,-0.01656 -0.0075,-0.03879 -0.02148,-0.05273 -0.01401,-0.01396 -0.03569,-0.01214 -0.05273,-0.02149 -0.01011,-0.01667 -0.0075,-0.03872 -0.02148,-0.05273 -0.01394,-0.01389 -0.03582,-0.01211 -0.05273,-0.02149 -0.01022,-0.01719 -0.0071,-0.04031 -0.02148,-0.05469 -0.01399,-0.01395 -0.03577,-0.01204 -0.05273,-0.02149 -0.01,-0.01662 -0.0075,-0.03879 -0.02148,-0.05273 -0.01393,-0.01388 -0.03589,-0.01202 -0.05273,-0.02148 -0.01,-0.01672 -0.0075,-0.03873 -0.02148,-0.05274 -0.01448,-0.01443 -0.0371,-0.01373 -0.05469,-0.02344 -0.0097,-0.01608 -0.008,-0.03727 -0.02148,-0.05078 -0.01356,-0.01352 -0.03449,-0.01206 -0.05078,-0.02149 -0.0101,-0.01744 -0.0089,-0.04019 -0.02344,-0.05469 -0.01399,-0.01395 -0.03587,-0.01185 -0.05273,-0.02149 -0.0098,-0.01662 -0.0076,-0.03885 -0.02148,-0.05273 -0.01399,-0.01394 -0.0359,-0.01181 -0.05273,-0.02148 -0.0098,-0.01674 -0.0075,-0.03879 -0.02148,-0.05274 -0.01392,-0.01388 -0.03602,-0.01179 -0.05273,-0.02148 -0.0098,-0.01677 -0.0075,-0.03878 -0.02148,-0.05274 -0.01436,-0.01431 -0.0374,-0.01158 -0.05469,-0.02148 -0.0097,-0.0168 -0.0075,-0.03877 -0.02148,-0.05273 -0.01355,-0.01351 -0.03462,-0.01185 -0.05078,-0.02149 -0.0098,-0.01749 -0.009,-0.04024 -0.02344,-0.05469 -0.01405,-0.014 -0.03592,-0.01161 -0.05273,-0.02148 -0.0096,-0.01675 -0.0076,-0.03885 -0.02148,-0.05274 -0.01398,-0.01394 -0.03603,-0.01159 -0.05273,-0.02148 -0.0096,-0.01686 -0.0075,-0.03878 -0.02148,-0.05274 -0.01398,-0.01393 -0.03606,-0.01156 -0.05273,-0.02148 -0.0095,-0.0169 -0.0075,-0.03877 -0.02148,-0.05273 -0.01454,-0.01449 -0.03727,-0.01324 -0.05469,-0.02344 -0.0093,-0.01632 -0.008,-0.03725 -0.02148,-0.05078 -0.01354,-0.0135 -0.03473,-0.01167 -0.05078,-0.02149 -0.0096,-0.01762 -0.009,-0.04025 -0.02344,-0.05469 -0.01404,-0.01399 -0.03604,-0.01141 -0.05273,-0.02148 -0.0094,-0.01688 -0.0076,-0.03884 -0.02148,-0.05274 -0.01397,-0.01393 -0.03614,-0.0114 -0.05273,-0.02148 -0.0093,-0.01691 -0.0076,-0.03884 -0.02148,-0.05273 -0.01441,-0.01437 -0.03752,-0.01118 -0.05469,-0.02149 -0.0093,-0.01695 -0.0076,-0.03883 -0.02148,-0.05273 -0.01404,-0.014 -0.03609,-0.0113 -0.05273,-0.02149 -0.0092,-0.01698 -0.0076,-0.03883 -0.02148,-0.05273 -0.01403,-0.01399 -0.03612,-0.01127 -0.05273,-0.02148 -0.0093,-0.01751 -0.0072,-0.04043 -0.02148,-0.05469 -0.01403,-0.01399 -0.03615,-0.01124 -0.05273,-0.02148 -0.0091,-0.01716 -0.0075,-0.03874 -0.02148,-0.05274 -0.01402,-0.01398 -0.03618,-0.01121 -0.05273,-0.02148 -0.0091,-0.0173 -0.0074,-0.03866 -0.02148,-0.05273 -0.01459,-0.01454 -0.03739,-0.01287 -0.05469,-0.02344 -0.0089,-0.01671 -0.0078,-0.03715 -0.02148,-0.05078 -0.01364,-0.0136 -0.03477,-0.01132 -0.05078,-0.02148 -0.0091,-0.01803 -0.0089,-0.04015 -0.02344,-0.05469 -0.01408,-0.01404 -0.03616,-0.01108 -0.05273,-0.02148 -0.0089,-0.01728 -0.0075,-0.03874 -0.02148,-0.05274 -0.01402,-0.01398 -0.03625,-0.01108 -0.05273,-0.02148 -0.0088,-0.01732 -0.0075,-0.03873 -0.02148,-0.05274 -0.01402,-0.01397 -0.03628,-0.01105 -0.05273,-0.02148 -0.0088,-0.01748 -0.0074,-0.03865 -0.02148,-0.05273 -0.01458,-0.01454 -0.03749,-0.0127 -0.05469,-0.02344 -0.0086,-0.01678 -0.0079,-0.03721 -0.02148,-0.05078 -0.01351,-0.01347 -0.03502,-0.01124 -0.05078,-0.02148 -0.0087,-0.01821 -0.0089,-0.04014 -0.02344,-0.05469 -0.01395,-0.01391 -0.03642,-0.01099 -0.05273,-0.02148 -0.0085,-0.01735 -0.0076,-0.03881 -0.02148,-0.05274 -0.01394,-0.0139 -0.03644,-0.01097 -0.05273,-0.02148 -0.0085,-0.01751 -0.0075,-0.03872 -0.02148,-0.05273 -0.01389,-0.01385 -0.03653,-0.01096 -0.05273,-0.02149 -0.0084,-0.01767 -0.0074,-0.03863 -0.02148,-0.05273 -0.01433,-0.01428 -0.03792,-0.01072 -0.05469,-0.02149 -0.0083,-0.0176 -0.0075,-0.0387 -0.02148,-0.05273 -0.01395,-0.01391 -0.03648,-0.01088 -0.05273,-0.02148 -0.0083,-0.01813 -0.0071,-0.04032 -0.02148,-0.05469 -0.01394,-0.0139 -0.0365,-0.01086 -0.05273,-0.02148 -0.0081,-0.01754 -0.0075,-0.0388 -0.02148,-0.05273 -0.01394,-0.0139 -0.03653,-0.01083 -0.05273,-0.02149 -0.0081,-0.01771 -0.0075,-0.03871 -0.02148,-0.05273 -0.01433,-0.01429 -0.03799,-0.0106 -0.05469,-0.02149 -0.008,-0.01763 -0.0075,-0.03879 -0.02148,-0.05273 -0.014,-0.01395 -0.03648,-0.01075 -0.05273,-0.02148 -0.0079,-0.01782 -0.0074,-0.03869 -0.02148,-0.05274 -0.01351,-0.01346 -0.03518,-0.01099 -0.05078,-0.02148 -0.0078,-0.01848 -0.009,-0.04022 -0.02344,-0.05469 -0.01399,-0.01394 -0.03653,-0.0107 -0.05273,-0.02148 -0.0077,-0.01775 -0.0075,-0.03879 -0.02148,-0.05273 -0.01394,-0.0139 -0.03661,-0.01071 -0.05273,-0.02149 -0.0076,-0.0178 -0.0075,-0.03879 -0.02148,-0.05273 -0.01438,-0.01433 -0.03801,-0.01045 -0.05469,-0.02148 -0.0075,-0.01785 -0.0075,-0.03878 -0.02148,-0.05274 -0.01399,-0.01395 -0.03657,-0.01063 -0.05273,-0.02148 -0.0074,-0.01838 -0.0072,-0.04041 -0.02148,-0.05469 -0.01403,-0.01399 -0.03653,-0.01058 -0.05273,-0.02148 -0.0073,-0.01778 -0.0076,-0.03889 -0.02148,-0.05274 -0.01398,-0.01394 -0.03661,-0.01059 -0.05273,-0.02148 -0.0072,-0.01797 -0.0075,-0.03879 -0.02148,-0.05273 -0.01393,-0.01389 -0.03668,-0.01059 -0.05273,-0.02149 -0.007,-0.01804 -0.0075,-0.03877 -0.02148,-0.05273 -0.01437,-0.01433 -0.03808,-0.01033 -0.05469,-0.02148 -0.0069,-0.0181 -0.0075,-0.03876 -0.02148,-0.05274 -0.01354,-0.0135 -0.03526,-0.01077 -0.05078,-0.02148 -0.0068,-0.01873 -0.0091,-0.04033 -0.02344,-0.05469 -0.01402,-0.01398 -0.03661,-0.01047 -0.05273,-0.02148 -0.0067,-0.01801 -0.0076,-0.03889 -0.02148,-0.05273 -0.01398,-0.01393 -0.03668,-0.01048 -0.05273,-0.02149 -0.0065,-0.01807 -0.0076,-0.03888 -0.02148,-0.05273 -0.01397,-0.01393 -0.0367,-0.01046 -0.05273,-0.02149 -0.0064,-0.01829 -0.0075,-0.03876 -0.02148,-0.05273 -0.01393,-0.01388 -0.03677,-0.01047 -0.05273,-0.02148 -0.0062,-0.01848 -0.0094,-0.03867 -0.02344,-0.05274 -0.01358,-0.01354 -0.03527,-0.01065 -0.05078,-0.02148 -0.006,-0.01898 -0.0091,-0.04034 -0.02344,-0.05469 -0.01736,-0.01731 -0.04013,-0.02618 -0.06055,-0.03906 -0.0058,-0.01133 -0.0045,-0.02598 -0.01367,-0.03516 -0.0176,-0.01754 -0.03984,-0.02799 -0.06055,-0.04102 -0.0056,-0.01075 -0.0049,-0.02446 -0.01367,-0.0332 -0.0175,-0.01744 -0.03999,-0.02801 -0.06055,-0.04102 -0.0056,-0.01089 -0.0049,-0.02438 -0.01367,-0.0332 -0.01812,-0.01806 -0.04114,-0.02963 -0.0625,-0.04297 -0.0054,-0.01045 -0.0052,-0.02276 -0.01367,-0.03125 -0.0172,-0.01714 -0.03847,-0.02809 -0.05859,-0.04101 -0.0056,-0.01189 -0.0062,-0.02569 -0.01563,-0.03516 -0.01698,-0.01692 -0.03878,-0.02622 -0.05859,-0.03906 -0.0055,-0.01194 -0.0062,-0.02568 -0.01562,-0.03516 -0.01761,-0.01755 -0.03992,-0.02783 -0.06055,-0.04102 -0.0053,-0.01119 -0.0047,-0.02427 -0.01367,-0.0332 -0.01725,-0.0172 -0.0404,-0.02603 -0.06055,-0.03906 -0.0053,-0.01204 -0.0061,-0.02567 -0.01563,-0.03516 -0.0173,-0.01725 -0.0384,-0.02792 -0.05859,-0.04101 -0.0052,-0.01192 -0.0062,-0.02578 -0.01563,-0.03516 -0.01748,-0.01742 -0.04014,-0.02585 -0.06055,-0.03906 -0.0051,-0.01183 -0.0044,-0.02586 -0.01367,-0.03516 -0.01771,-0.01766 -0.03985,-0.02766 -0.06055,-0.04102 -0.005,-0.01123 -0.0048,-0.02435 -0.01367,-0.0332 -0.01736,-0.0173 -0.04033,-0.02586 -0.06055,-0.03906 -0.0049,-0.01209 -0.0043,-0.02574 -0.01367,-0.03516 -0.01739,-0.01733 -0.04031,-0.02777 -0.06055,-0.04101 -0.0048,-0.01163 -0.0066,-0.02413 -0.01563,-0.0332 -0.01731,-0.01726 -0.03847,-0.02779 -0.05859,-0.04102 -0.0047,-0.01214 -0.0062,-0.02577 -0.01563,-0.03516 -0.01735,-0.017292 -0.04039,-0.025788 -0.06055,-0.039063 -0.0046,-0.011922 -0.0045,-0.025949 -0.01367,-0.035156 -0.01772,-0.017662 -0.03992,-0.027521 -0.06055,-0.041016 -0.0045,-0.01147 -0.0048,-0.024328 -0.01367,-0.033203 -0.01697,-0.016917 -0.03896,-0.025938 -0.05859,-0.039063 -0.0043,-0.012495 -0.0061,-0.025636 -0.01563,-0.035156 -0.01779,-0.017733 -0.04181,-0.02743 -0.0625,-0.041016 -0.0042,-0.011601 -0.0048,-0.024305 -0.01367,-0.033203 -0.01705,-0.016997 -0.03888,-0.025846 -0.05859,-0.039063 -0.0039,-0.012895 -0.0059,-0.027397 -0.01563,-0.037109 -0.01736,-0.017301 -0.04046,-0.025657 -0.06055,-0.039063 -0.0039,-0.012189 -0.0044,-0.02594 -0.01367,-0.035156 -0.01772,-0.017666 -0.04,-0.027389 -0.06055,-0.041016 -0.0038,-0.01175 -0.0048,-0.024308 -0.01367,-0.033203 -0.0175,-0.017447 -0.0403,-0.027482 -0.06055,-0.041016 -0.0036,-0.011831 -0.0047,-0.02429 -0.01367,-0.033203 -0.0178,-0.017747 -0.04187,-0.027295 -0.0625,-0.041016 -0.0034,-0.011911 -0.0047,-0.024275 -0.01367,-0.033203 -0.01719,-0.017141 -0.03877,-0.027604 -0.05859,-0.041016 -0.0031,-0.012497 -0.0064,-0.025887 -0.01562,-0.035156 -0.01736,-0.017309 -0.04052,-0.025534 -0.06055,-0.039063 -0.0029,-0.01249 -0.0044,-0.02593 -0.01367,-0.035156 -0.0176,-0.017544 -0.04023,-0.027333 -0.06055,-0.041016 -0.0029,-0.011882 -0.0049,-0.024406 -0.01367,-0.033203 -0.0179,-0.017847 -0.0418,-0.027144 -0.0625,-0.041016 -0.0026,-0.011959 -0.0049,-0.024396 -0.01367,-0.033203 -0.01729,-0.017233 -0.0387,-0.027462 -0.05859,-0.041016 -0.0022,-0.012484 -0.0065,-0.02605 -0.01563,-0.035156 -0.01745,-0.0174 -0.04045,-0.025393 -0.06055,-0.039063 -0.002,-0.012497 -0.0046,-0.026081 -0.01367,-0.035156 -0.01698,-0.016922 -0.03913,-0.025645 -0.05859,-0.039063 -0.0015,-0.012854 -0.0063,-0.025891 -0.01563,-0.035156 -0.01761,-0.017552 -0.04029,-0.027216 -0.06055,-0.041016 -0.0015,-0.012207 -0.0048,-0.024391 -0.01367,-0.033203 -0.01791,-0.017857 -0.04186,-0.027022 -0.0625,-0.041016 -0.0012,-0.012294 -0.0049,-0.024374 -0.01367,-0.033203 -0.01703,-0.016973 -0.0391,-0.025554 -0.05859,-0.039063 0,0 0,-0.00195 0,-0.00195 -5.84e-4,-0.012695 -0.0065,-0.026102 -0.01563,-0.035156 -0.01746,-0.017405 -0.04051,-0.025282 -0.06055,-0.039063 -1.49e-4,-0.012744 -0.0046,-0.026101 -0.01367,-0.035156 -0.01687,-0.016815 -0.04128,-0.027561 -0.06055,-0.041016 -1.5e-4,-0.012145 -0.0051,-0.024571 -0.01367,-0.033203 -0.01761,-0.017559 -0.04229,-0.029058 -0.0625,-0.042969 -1.51e-4,-0.011546 -0.0035,-0.023042 -0.01172,-0.03125 -0.01677,-0.016718 -0.03947,-0.025628 -0.05859,-0.039063 -0.0017,-0.00173 -0.0022,-0.00416 -0.0039,-0.00586 -1.51e-4,-0.010947 -0.0059,-0.021511 -0.01367,-0.029297 -0.01664,-0.01659 -0.03769,-0.025687 -0.05664,-0.039063 -0.0023,-0.00239 -0.0035,-0.00547 -0.0059,-0.00781 -1.52e-4,-0.010348 -0.0044,-0.021935 -0.01172,-0.029297 -0.0163,-0.016252 -0.03813,-0.023923 -0.05664,-0.037109 -0.0027,-0.00282 -0.0031,-0.00702 -0.0059,-0.00977 -1.53e-4,-0.00975 -0.0048,-0.020406 -0.01172,-0.027344 -0.01665,-0.016599 -0.0377,-0.025646 -0.05664,-0.039062 -0.0029,-0.00309 -0.0048,-0.00676 -0.0078,-0.00977 -1.54e-4,-0.00915 -0.0033,-0.018876 -0.0098,-0.025391 -0.01621,-0.016158 -0.03827,-0.023948 -0.05664,-0.037109 -0.0042,-0.00455 -0.0054,-0.011242 -0.0098,-0.015625 -1.55e-4,-0.00855 -0.0017,-0.015392 -0.0078,-0.021484 -0.01549,-0.015444 -0.03722,-0.022432 -0.05469,-0.035156 -0.0051,-0.0057 -0.0063,-0.014087 -0.01172,-0.019531 -1.55e-4,-0.00795 -0.0041,-0.013862 -0.0098,-0.019531 -0.01494,-0.014895 -0.03401,-0.022774 -0.05078,-0.035156 -0.0059,-0.00669 -0.0093,-0.01514 -0.01563,-0.021484 -1.56e-4,-0.00735 -0.0026,-0.014286 -0.0078,-0.019531 -0.01526,-0.015218 -0.03557,-0.022549 -0.05274,-0.035156 -0.0057,-0.00642 -0.0076,-0.015387 -0.01367,-0.021484 -1.56e-4,-0.00675 -0.0029,-0.012756 -0.0078,-0.017578 -0.01534,-0.015298 -0.03548,-0.022482 -0.05273,-0.035156 -0.0062,-0.00712 -0.0089,-0.0167 -0.01563,-0.023437 -1.58e-4,-0.00616 -0.0015,-0.011226 -0.0059,-0.015625 -0.01453,-0.014486 -0.03454,-0.021054 -0.05078,-0.033203 -0.0071,-0.00833 -0.0098,-0.019529 -0.01758,-0.027344 -1.6e-4,-0.00556 -0.0039,-0.0097 -0.0078,-0.013672 -0.01356,-0.013522 -0.03182,-0.019751 -0.04687,-0.03125 -0.0081,-0.0097 -0.01246,-0.02223 -0.02148,-0.03125 -1.6e-4,-0.00496 -0.0023,-0.00817 -0.0059,-0.011719 -0.01355,-0.013504 -0.03185,-0.019752 -0.04687,-0.03125 -0.0085,-0.010261 -0.01197,-0.023688 -0.02149,-0.033203 -1.61e-4,-0.00436 -0.0028,-0.00859 -0.0059,-0.011719 -0.01397,-0.013924 -0.0333,-0.019449 -0.04883,-0.03125 -0.0085,-0.010244 -0.01198,-0.0237 -0.02149,-0.033203 -1.62e-4,-0.00376 -0.0012,-0.00706 -0.0039,-0.00977 -0.01356,-0.013516 -0.03185,-0.019723 -0.04687,-0.03125 -0.009,-0.010942 -0.01333,-0.025046 -0.02344,-0.035156 -1.63e-4,-0.00316 -0.0016,-0.00553 -0.0039,-0.00781 -0.01389,-0.013847 -0.03341,-0.01948 -0.04883,-0.03125 -0.0094,-0.011454 -0.01288,-0.026555 -0.02344,-0.037109 -1.63e-4,-0.00256 -0.0021,-0.004 -0.0039,-0.00586 -0.01361,-0.013567 -0.0318,-0.019666 -0.04687,-0.03125 -0.0099,-0.012194 -0.0142,-0.027872 -0.02539,-0.039063 -1.64e-4,-0.00196 -4.53e-4,-0.00442 -0.002,-0.00586 -0.01298,-0.012942 -0.03061,-0.018148 -0.04492,-0.029297 -0.01032,-0.012898 -0.01555,-0.029223 -0.02734,-0.041016 -1.65e-4,-0.00136 -9.59e-4,-0.0029 -0.002,-0.00391 -0.01311,-0.013066 -0.03046,-0.020003 -0.04492,-0.03125 -0.01051,-0.013186 -0.01726,-0.028975 -0.0293,-0.041016 0,0 0,-0.00195 0,-0.00195 -0.01291,-0.012871 -0.03071,-0.018181 -0.04492,-0.029297 -0.01119,-0.014272 -0.01634,-0.031964 -0.0293,-0.044922 C 14.781748,6.865935 14.665,6.8180544 14.544682,6.8180545 l -5.4531251,0 c -0.2510383,2e-7 -0.4550781,0.2040398 -0.4550781,0.4550781 l 0,0.515625 -0.013672,0 0,-0.074219 c 0,-1.82e-4 -0.053047,-0.00195 -0.054687,-0.00195 l -0.019531,0 0,-0.074219 c 0,-1.829e-4 -0.049271,0 -0.050781,0 l -0.025391,0 0,-0.074219 c 0,-1.839e-4 -0.043552,0 -0.044922,0 l -0.029297,0 0,-0.074219 c 0,-1.847e-4 -0.039786,0 -0.041016,0 l -0.033203,0 0,-0.074219 c 0,-1.857e-4 -0.034056,0 -0.035156,0 l -0.039063,0 0,-0.074219 c 0,-1.867e-4 -0.030291,-0.00195 -0.03125,-0.00195 l -0.042969,0 0,-0.074219 c 10e-8,-1.877e-4 -0.026522,0 -0.027344,0 l -0.048828,0 0,-0.074219 c 0,-1.886e-4 -0.0208,0 -0.021484,0 l -0.052734,0 0,-0.074219 c 0,-1.896e-4 -0.01703,0 -0.017578,0 l -0.056641,0 0,-0.074219 c 0,-1.905e-4 -0.013261,0 -0.013672,0 l -0.060547,0 0,-0.076172 c 0,-1.915e-4 -0.00949,0 -0.00977,0 l -0.064453,0 0,-0.074219 c 0,-1.925e-4 -0.00572,0 -0.00586,0 l -0.070312,0 0,-0.074219 -0.9082031,0 0,0.9707031 -0.013672,0 0,-0.074219 0,-0.00195 -0.074219,0 0,-0.074219 -0.074219,0 0,-0.074219 -0.076172,0 0,-0.074219 -0.074219,0 0,-0.074219 -0.074219,0 0,-0.074219 0,-0.00195 -0.074219,0 0,-0.074219 -0.076172,0 0,-0.074219 -0.074219,0 0,-0.074219 -0.074219,0 0,-0.074219 -0.074219,0 0,-0.076172 -0.074219,0 0,-0.074219 -0.076172,0 0,-0.074219 -0.9082031,0 z"
       id="path3682"
       style="display:inline;opacity:0.2;fill:url(#linearGradient4557)"
       transform="translate(-1058.1428,861.93365)"
       clip-path="url(#clipPath5479)"
       inkscape:connector-curvature="0" />
  </g>
  <g
     inkscape:label="Icon"
     id="layer2"
     inkscape:groupmode="layer"
     style="display:inline"
     transform="translate(5.0000223,4.9999952)">
    <path
       style="fill:none"
       inkscape:connector-curvature="0"
       id="path4"
       d="m 3.9999777,4.0333382 12.0000003,0 0,11.9333328 -12.0000003,0 z" />
    <path
       d="m 18.999978,19.033339 12,0 0,11.933333 -12,0 z"
       id="path9754"
       inkscape:connector-curvature="0"
       style="fill:none" />
    <rect
       style="opacity:1;fill:#9e9e9e"
       id="rect5483"
       width="5.078125"
       height="2.421875"
       x="9.046875"
       y="9.984375" />
    <path
       inkscape:connector-curvature="0"
       d="m 4.9999777,6.8181866 0.909091,0 0,6.3636364 -0.909091,0 0,-6.3636364 m 1.818182,0 0.909091,0 0,6.3636364 -0.909091,0 0,-6.3636364 m 7.7272723,0 -5.4545453,0 A 0.45454545,0.45454545 0 0 0 8.6363417,7.272732 l 0,5.454546 a 0.45454545,0.45454545 0 0 0 0.454545,0.454545 l 5.4545453,0 a 0.45454545,0.45454545 0 0 0 0.454546,-0.454545 l 0,-5.454546 A 0.45454545,0.45454545 0 0 0 14.545432,6.8181866 m -4.9999993,5.4545454 1.1363633,-1.431818 0.813636,0.977273 1.136364,-1.463637 1.459091,1.918182 -4.5454543,0 z"
       id="path3436"
       style="fill:#fafafa" />
  </g>
</svg>
