<?xml version="1.0" encoding="UTF-8" standalone="no"?>
<!-- Created with Inkscape (http://www.inkscape.org/) -->

<svg
   xmlns:dc="http://purl.org/dc/elements/1.1/"
   xmlns:cc="http://creativecommons.org/ns#"
   xmlns:rdf="http://www.w3.org/1999/02/22-rdf-syntax-ns#"
   xmlns:svg="http://www.w3.org/2000/svg"
   xmlns="http://www.w3.org/2000/svg"
   xmlns:xlink="http://www.w3.org/1999/xlink"
   xmlns:sodipodi="http://sodipodi.sourceforge.net/DTD/sodipodi-0.dtd"
   xmlns:inkscape="http://www.inkscape.org/namespaces/inkscape"
   inkscape:export-ydpi="648"
   inkscape:export-xdpi="648"
   inkscape:export-filename="/home/juergen/Projekte/Android/Android_Studio/Baumann_Theme/theme/src/main/assets/icons/res/drawable-xxhdpi/a102.png"
   sodipodi:docname="Geldbeutel.svg"
   inkscape:version="0.91 r13725"
   version="1.1"
   id="svg2"
   viewBox="0 0 20 20"
   height="5.6444445mm"
   width="5.6444445mm">
  <sodipodi:namedview
     inkscape:snap-page="false"
     inkscape:snap-to-guides="false"
     inkscape:snap-grids="false"
     inkscape:window-maximized="1"
     inkscape:window-y="24"
     inkscape:window-x="0"
     inkscape:window-height="744"
     inkscape:window-width="1366"
     inkscape:guide-bbox="true"
     showguides="true"
     fit-margin-bottom="0"
     fit-margin-right="0"
     fit-margin-left="0"
     fit-margin-top="0"
     showgrid="false"
     inkscape:current-layer="layer1"
     inkscape:document-units="px"
     inkscape:cy="7.8568733"
     inkscape:cx="1.2973716"
     inkscape:zoom="22.4"
     inkscape:pageshadow="2"
     inkscape:pageopacity="0.0"
     borderopacity="1.0"
     bordercolor="#666666"
     pagecolor="#ffffff"
     id="base">
    <inkscape:grid
       id="grid4138"
       type="xygrid" />
    <sodipodi:guide
       id="guide4140"
       orientation="0,1"
       position="10,18" />
    <sodipodi:guide
       id="guide4142"
       orientation="0,1"
       position="10,2" />
    <sodipodi:guide
       id="guide4144"
       orientation="1,0"
       position="2,10" />
    <sodipodi:guide
       id="guide4146"
       orientation="0,20"
       position="0,0" />
    <sodipodi:guide
       id="guide4148"
       orientation="-20,0"
       position="20,0" />
    <sodipodi:guide
       id="guide4150"
       orientation="0,-20"
       position="20,20" />
    <sodipodi:guide
       id="guide4152"
       orientation="20,0"
       position="0,20" />
    <sodipodi:guide
       id="guide4154"
       orientation="1,0"
       position="18,10" />
    <sodipodi:guide
       id="guide4156"
       orientation="-0.70710678,0.70710678"
       position="10,10" />
    <sodipodi:guide
       id="guide4160"
       orientation="1,0"
       position="4,10" />
    <sodipodi:guide
       id="guide4162"
       orientation="1,0"
       position="16,10" />
    <sodipodi:guide
       id="guide4164"
       orientation="0,1"
       position="10,16" />
    <sodipodi:guide
       id="guide4166"
       orientation="0,1"
       position="10,4" />
    <sodipodi:guide
       id="guide4168"
       orientation="0,1"
       position="10,15" />
    <sodipodi:guide
       id="guide4170"
       orientation="0,1"
       position="10,5" />
    <sodipodi:guide
       id="guide4172"
       orientation="1,0"
       position="5,10" />
    <sodipodi:guide
       id="guide4174"
       orientation="1,0"
       position="15,10" />
  </sodipodi:namedview>
  <defs
     id="defs4">
    <linearGradient
       inkscape:collect="always"
       id="linearGradient8979">
      <stop
         style="stop-color:#000000;stop-opacity:0.2"
         offset="0"
         id="stop8981" />
      <stop
         style="stop-color:#000000;stop-opacity:0;"
         offset="1"
         id="stop8983" />
    </linearGradient>
    <clipPath
       clipPathUnits="userSpaceOnUse"
       id="clipPath12478">
      <circle
         style="opacity:1;fill:#2196f3;fill-opacity:1;stroke:none;stroke-width:0.05069799;stroke-miterlimit:4;stroke-dasharray:none;stroke-opacity:1"
         id="circle12480"
         cx="9.9999781"
         cy="10.000005"
         r="10" />
    </clipPath>
    <clipPath
       id="clipPath5790"
       clipPathUnits="userSpaceOnUse">
      <circle
         inkscape:export-ydpi="648"
         inkscape:export-xdpi="648"
         inkscape:export-filename="/home/juergen/path4136.png"
         style="opacity:1;fill:#2196f3;fill-opacity:1;stroke:none;stroke-width:0.05069799;stroke-miterlimit:4;stroke-dasharray:none;stroke-opacity:1"
         id="circle5792"
         cx="9.9999781"
         cy="10.000005"
         r="10" />
    </clipPath>
    <clipPath
       clipPathUnits="userSpaceOnUse"
       id="clipPath5055">
      <circle
         inkscape:export-ydpi="648"
         inkscape:export-xdpi="648"
         inkscape:export-filename="/home/juergen/path4136.png"
         style="opacity:1;fill:#2196f3;fill-opacity:1;stroke:none;stroke-width:0.05069799;stroke-miterlimit:4;stroke-dasharray:none;stroke-opacity:1"
         id="circle5057"
         cx="9.9999781"
         cy="10.000005"
         r="10" />
    </clipPath>
    <clipPath
       id="clipPath5119"
       clipPathUnits="userSpaceOnUse">
      <circle
         inkscape:export-ydpi="648"
         inkscape:export-xdpi="648"
         inkscape:export-filename="/home/juergen/Schreibtisch/path4136.png"
         style="opacity:1;fill:#2196f3;fill-opacity:1;stroke:none;stroke-width:0.05069799;stroke-miterlimit:4;stroke-dasharray:none;stroke-opacity:1"
         id="circle5121"
         cx="9.9999781"
         cy="10.000005"
         r="10" />
    </clipPath>
    <clipPath
       clipPathUnits="userSpaceOnUse"
       id="clipPath5194">
      <circle
         inkscape:export-ydpi="648"
         inkscape:export-xdpi="648"
         inkscape:export-filename="/home/juergen/Schreibtisch/path4136.png"
         style="opacity:1;fill:#cddc39;fill-opacity:1;stroke:none;stroke-width:0.05069799;stroke-miterlimit:4;stroke-dasharray:none;stroke-opacity:1"
         id="circle5196"
         cx="9.9999781"
         cy="10.000005"
         r="10" />
    </clipPath>
    <clipPath
       id="clipPath6175"
       clipPathUnits="userSpaceOnUse">
      <circle
         inkscape:export-ydpi="648"
         inkscape:export-xdpi="648"
         inkscape:export-filename="/home/juergen/Schreibtisch/path4136.png"
         style="opacity:1;fill:#f44336;fill-opacity:1;stroke:none;stroke-width:0.05069799;stroke-miterlimit:4;stroke-dasharray:none;stroke-opacity:1"
         id="circle6177"
         cx="9.9999781"
         cy="10.000005"
         r="10" />
    </clipPath>
    <clipPath
       clipPathUnits="userSpaceOnUse"
       id="clipPath7176">
      <circle
         inkscape:export-ydpi="648"
         inkscape:export-xdpi="648"
         inkscape:export-filename="/home/juergen/Schreibtisch/path4136.png"
         style="opacity:1;fill:#9c27b0;fill-opacity:1;stroke:none;stroke-width:0.05069799;stroke-miterlimit:4;stroke-dasharray:none;stroke-opacity:1"
         id="circle7178"
         cx="9.9999781"
         cy="10.000005"
         r="10" />
    </clipPath>
    <clipPath
       id="clipPath8165"
       clipPathUnits="userSpaceOnUse">
      <circle
         inkscape:export-ydpi="648"
         inkscape:export-xdpi="648"
         inkscape:export-filename="/home/juergen/Schreibtisch/path4136.png"
         style="opacity:1;fill:#ffc107;fill-opacity:1;stroke:none;stroke-width:0.05069799;stroke-miterlimit:4;stroke-dasharray:none;stroke-opacity:1"
         id="circle8167"
         cx="9.9999781"
         cy="10.000005"
         r="10" />
    </clipPath>
    <clipPath
       clipPathUnits="userSpaceOnUse"
       id="clipPath9162">
      <circle
         inkscape:export-ydpi="648"
         inkscape:export-xdpi="648"
         inkscape:export-filename="/home/juergen/Schreibtisch/path4136.png"
         style="opacity:1;fill:#ff9800;fill-opacity:1;stroke:none;stroke-width:0.05069799;stroke-miterlimit:4;stroke-dasharray:none;stroke-opacity:1"
         id="circle9164"
         cx="9.9999781"
         cy="10.000005"
         r="10" />
    </clipPath>
    <clipPath
       id="clipPath5147"
       clipPathUnits="userSpaceOnUse">
      <circle
         inkscape:export-ydpi="648"
         inkscape:export-xdpi="648"
         inkscape:export-filename="/home/juergen/Schreibtisch/path4136.png"
         style="opacity:1;fill:#ff9800;fill-opacity:1;stroke:none;stroke-width:0.05069799;stroke-miterlimit:4;stroke-dasharray:none;stroke-opacity:1"
         id="circle5149"
         cx="9.9999781"
         cy="10.000005"
         r="10" />
    </clipPath>
    <clipPath
       clipPathUnits="userSpaceOnUse"
       id="clipPath6144">
      <circle
         inkscape:export-ydpi="648"
         inkscape:export-xdpi="648"
         inkscape:export-filename="/home/juergen/Schreibtisch/path4136.png"
         style="opacity:1;fill:#e91e63;fill-opacity:1;stroke:none;stroke-width:0.05069799;stroke-miterlimit:4;stroke-dasharray:none;stroke-opacity:1"
         id="circle6146"
         cx="9.9999781"
         cy="10.000005"
         r="10" />
    </clipPath>
    <clipPath
       id="clipPath7143"
       clipPathUnits="userSpaceOnUse">
      <circle
         inkscape:export-ydpi="648"
         inkscape:export-xdpi="648"
         inkscape:export-filename="/home/juergen/Schreibtisch/path4136.png"
         style="opacity:1;fill:#ffeb3b;fill-opacity:1;stroke:none;stroke-width:0.05069799;stroke-miterlimit:4;stroke-dasharray:none;stroke-opacity:1"
         id="circle7145"
         cx="9.9999781"
         cy="10.000005"
         r="10" />
    </clipPath>
    <clipPath
       clipPathUnits="userSpaceOnUse"
       id="clipPath8148">
      <circle
         inkscape:export-ydpi="648"
         inkscape:export-xdpi="648"
         inkscape:export-filename="/home/juergen/Schreibtisch/path4136.png"
         style="opacity:1;fill:#9c27b0;fill-opacity:1;stroke:none;stroke-width:0.05069799;stroke-miterlimit:4;stroke-dasharray:none;stroke-opacity:1"
         id="circle8150"
         cx="9.9999781"
         cy="10.000005"
         r="10" />
    </clipPath>
    <clipPath
       id="clipPath5171"
       clipPathUnits="userSpaceOnUse">
      <circle
         inkscape:export-ydpi="648"
         inkscape:export-xdpi="648"
         inkscape:export-filename="/home/juergen/Schreibtisch/path4136.png"
         style="opacity:1;fill:#f44336;fill-opacity:1;stroke:none;stroke-width:0.05069799;stroke-miterlimit:4;stroke-dasharray:none;stroke-opacity:1"
         id="circle5173"
         cx="9.9999781"
         cy="10.000005"
         r="10" />
    </clipPath>
    <clipPath
       clipPathUnits="userSpaceOnUse"
       id="clipPath6181">
      <circle
         inkscape:export-ydpi="648"
         inkscape:export-xdpi="648"
         inkscape:export-filename="/home/juergen/Schreibtisch/path4136.png"
         style="opacity:1;fill:#2196f3;fill-opacity:1;stroke:none;stroke-width:0.05069799;stroke-miterlimit:4;stroke-dasharray:none;stroke-opacity:1"
         id="circle6183"
         cx="9.9999781"
         cy="10.000005"
         r="10" />
    </clipPath>
    <clipPath
       id="clipPath7195"
       clipPathUnits="userSpaceOnUse">
      <circle
         inkscape:export-ydpi="648"
         inkscape:export-xdpi="648"
         inkscape:export-filename="/home/juergen/Schreibtisch/path4136.png"
         style="opacity:1;fill:#795548;fill-opacity:1;stroke:none;stroke-width:0.05069799;stroke-miterlimit:4;stroke-dasharray:none;stroke-opacity:1"
         id="circle7197"
         cx="9.9999781"
         cy="10.000005"
         r="10" />
    </clipPath>
    <clipPath
       clipPathUnits="userSpaceOnUse"
       id="clipPath8213">
      <circle
         inkscape:export-ydpi="648"
         inkscape:export-xdpi="648"
         inkscape:export-filename="/home/juergen/Schreibtisch/path4136.png"
         style="opacity:1;fill:#f44336;fill-opacity:1;stroke:none;stroke-width:0.05069799;stroke-miterlimit:4;stroke-dasharray:none;stroke-opacity:1"
         id="circle8215"
         cx="9.9999781"
         cy="10.000005"
         r="10" />
    </clipPath>
    <clipPath
       id="clipPath9235"
       clipPathUnits="userSpaceOnUse">
      <circle
         inkscape:export-ydpi="648"
         inkscape:export-xdpi="648"
         inkscape:export-filename="/home/juergen/Schreibtisch/path4136.png"
         style="opacity:1;fill:#f44336;fill-opacity:1;stroke:none;stroke-width:0.05069799;stroke-miterlimit:4;stroke-dasharray:none;stroke-opacity:1"
         id="circle9237"
         cx="9.9999781"
         cy="10.000005"
         r="10" />
    </clipPath>
    <clipPath
       clipPathUnits="userSpaceOnUse"
       id="clipPath5965">
      <circle
         inkscape:export-ydpi="648"
         inkscape:export-xdpi="648"
         inkscape:export-filename="/home/juergen/Schreibtisch/path4136.png"
         style="opacity:1;fill:#009688;fill-opacity:1;stroke:none;stroke-width:0.05069799;stroke-miterlimit:4;stroke-dasharray:none;stroke-opacity:1"
         id="circle5967"
         cx="9.9999781"
         cy="10.000005"
         r="10" />
    </clipPath>
    <clipPath
       id="clipPath7910"
       clipPathUnits="userSpaceOnUse">
      <circle
         inkscape:export-ydpi="648"
         inkscape:export-xdpi="648"
         inkscape:export-filename="/home/juergen/Schreibtisch/path4136.png"
         style="opacity:1;fill:#ffeb3b;fill-opacity:1;stroke:none;stroke-width:0.05069799;stroke-miterlimit:4;stroke-dasharray:none;stroke-opacity:1"
         id="circle7912"
         cx="9.9999781"
         cy="10.000005"
         r="10" />
    </clipPath>
    <linearGradient
       inkscape:collect="always"
       xlink:href="#linearGradient8979"
       id="linearGradient8985"
       x1="10"
       y1="10"
       x2="20"
       y2="20"
       gradientUnits="userSpaceOnUse" />
    <clipPath
       clipPathUnits="userSpaceOnUse"
       id="clipPath8990">
      <circle
         inkscape:export-ydpi="648"
         inkscape:export-xdpi="648"
         inkscape:export-filename="/home/juergen/Schreibtisch/path4136.png"
         style="opacity:1;fill:#ffc107;fill-opacity:1;stroke:none;stroke-width:0.05069799;stroke-miterlimit:4;stroke-dasharray:none;stroke-opacity:1"
         id="circle8992"
         cx="9.9999781"
         cy="10.000005"
         r="10" />
    </clipPath>
  </defs>
  <metadata
     id="metadata7">
    <rdf:RDF>
      <cc:Work
         rdf:about="">
        <dc:format>image/svg+xml</dc:format>
        <dc:type
           rdf:resource="http://purl.org/dc/dcmitype/StillImage" />
        <dc:title />
      </cc:Work>
    </rdf:RDF>
  </metadata>
  <g
     transform="translate(1058.1428,-861.93365)"
     id="layer1"
     inkscape:groupmode="layer"
     inkscape:label="Hintergrund">
    <circle
       r="10"
       cy="871.93365"
       cx="-1048.1428"
       id="path4136"
       style="opacity:1;fill:#29b6f6;fill-opacity:1;stroke:none;stroke-width:0.05069799;stroke-miterlimit:4;stroke-dasharray:none;stroke-opacity:1"
       inkscape:export-filename="/home/juergen/Projekte/Android/Android_Studio/Baumann_Theme/theme/src/main/assets/icons/res/drawable-xxhdpi/a161.png"
       inkscape:export-xdpi="648"
       inkscape:export-ydpi="648" />
    <ellipse
       style="opacity:1;fill:#fafafa;fill-opacity:1;stroke:none;stroke-width:1.25;stroke-linecap:round;stroke-linejoin:round;stroke-miterlimit:4;stroke-dasharray:none;stroke-opacity:1"
       id="path8994"
       cx="-1046.1785"
       cy="871.84436"
       rx="1.2946428"
       ry="1.25" />
  </g>
  <g
     inkscape:label="Icon"
     id="layer2"
     inkscape:groupmode="layer"
     style="display:inline">
    <path
       style="fill:url(#linearGradient8985);fill-opacity:1"
       d="M 6.2011719 5.4121094 C 5.6169616 5.4121094 5.1484375 5.8858964 5.1484375 6.4648438 L 5.1484375 13.833984 C 5.1484375 14.16076 5.307917 14.441308 5.5429688 14.634766 C 5.589057 14.691654 5.6384564 14.740908 5.6953125 14.787109 C 5.7388805 14.840158 5.7848563 14.886038 5.8378906 14.929688 C 5.8834951 14.985931 5.9321383 15.034282 5.9882812 15.080078 C 6.0318045 15.133044 6.0778961 15.179065 6.1308594 15.222656 C 6.1754616 15.277376 6.2227236 15.324351 6.2773438 15.369141 C 6.3209364 15.422343 6.3668187 15.467944 6.4199219 15.511719 C 6.4645774 15.566262 6.5117775 15.613579 6.5664062 15.658203 C 6.6086109 15.709322 6.6520865 15.754515 6.703125 15.796875 C 6.7470444 15.850632 6.794046 15.897247 6.8476562 15.941406 C 6.8906412 15.993703 6.9360833 16.038867 6.9882812 16.082031 C 7.0316107 16.134747 7.0781742 16.179226 7.1308594 16.222656 C 7.1727863 16.273413 7.2169359 16.317255 7.2675781 16.359375 C 7.3111708 16.412578 7.3570531 16.458178 7.4101562 16.501953 C 7.4513327 16.551567 7.4934352 16.595393 7.5429688 16.636719 C 7.585304 16.688266 7.6303478 16.732698 7.6816406 16.775391 C 7.7235289 16.826127 7.7677644 16.869997 7.8183594 16.912109 C 7.8609076 16.963645 7.9055102 17.008154 7.9570312 17.050781 C 7.9978929 17.099837 8.0407927 17.14267 8.0898438 17.183594 C 8.1305808 17.232756 8.1737132 17.275359 8.2226562 17.316406 C 8.2642842 17.366827 8.3071911 17.411217 8.3574219 17.453125 C 8.3980112 17.501878 8.4415546 17.543255 8.4902344 17.583984 C 8.5316719 17.633912 8.5751029 17.677219 8.625 17.71875 C 8.6645194 17.765971 8.7048104 17.807995 8.7519531 17.847656 C 8.793302 17.897545 8.8369279 17.940902 8.8867188 17.982422 C 8.9257257 18.028885 8.9672663 18.068299 9.0136719 18.107422 C 9.0542602 18.15629 9.0958236 18.199404 9.1445312 18.240234 C 9.1843895 18.287826 9.2258376 18.329239 9.2734375 18.369141 C 9.3126385 18.415813 9.3537251 18.456834 9.4003906 18.496094 C 9.4393976 18.542557 9.4809382 18.581971 9.5273438 18.621094 C 9.5660041 18.667265 9.6063824 18.707142 9.6523438 18.746094 C 9.6918951 18.793467 9.7320824 18.835214 9.7792969 18.875 C 9.8186387 18.921731 9.859418 18.962676 9.90625 19.001953 C 9.943384 19.045726 9.9816346 19.083896 10.025391 19.121094 C 10.064318 19.167574 10.104067 19.208889 10.150391 19.248047 C 10.188924 19.293675 10.229696 19.332588 10.275391 19.371094 C 10.312484 19.414799 10.350834 19.453087 10.394531 19.490234 C 10.431207 19.533693 10.468528 19.572351 10.511719 19.609375 C 10.549722 19.654642 10.589728 19.694109 10.634766 19.732422 C 10.672363 19.776943 10.711432 19.815765 10.755859 19.853516 C 10.792985 19.89725 10.831262 19.93549 10.875 19.972656 C 10.91146 20.015482 10.94937 20.053331 10.992188 20.089844 C 11.028687 20.132734 11.066501 20.17047 11.109375 20.207031 C 11.14505 20.248953 11.182835 20.284428 11.224609 20.320312 C 11.261382 20.363766 11.298502 20.402455 11.341797 20.439453 C 11.377793 20.481664 11.414849 20.518617 11.457031 20.554688 C 11.492504 20.596258 11.528833 20.632353 11.570312 20.667969 C 11.605724 20.709494 11.64219 20.745661 11.683594 20.78125 C 11.719241 20.823051 11.755158 20.860701 11.796875 20.896484 C 11.831706 20.937176 11.867601 20.972841 11.908203 21.007812 C 11.943337 21.048859 11.980481 21.083918 12.021484 21.119141 C 12.055768 21.15911 12.089044 21.196027 12.128906 21.230469 C 12.163974 21.271335 12.201294 21.30672 12.242188 21.341797 C 12.275266 21.380131 12.309419 21.414043 12.347656 21.447266 C 12.382848 21.488405 12.419852 21.523301 12.460938 21.558594 C 12.494169 21.597025 12.527986 21.630784 12.566406 21.664062 C 12.59954 21.70258 12.633542 21.736156 12.671875 21.769531 C 12.705567 21.808812 12.738257 21.844959 12.777344 21.878906 C 12.810812 21.917707 12.846017 21.950812 12.884766 21.984375 C 12.917434 22.022147 12.950596 22.055092 12.988281 22.087891 C 13.020894 22.125621 13.054179 22.158634 13.091797 22.191406 C 13.124647 22.229411 13.157386 22.263903 13.195312 22.296875 C 13.227284 22.333728 13.260114 22.366331 13.296875 22.398438 C 13.328837 22.4353 13.361685 22.467883 13.398438 22.5 C 13.43099 22.537544 13.464436 22.5709 13.501953 22.603516 C 13.532579 22.638545 13.564629 22.668509 13.599609 22.699219 C 13.632277 22.736991 13.66544 22.769936 13.703125 22.802734 C 13.733191 22.837052 13.762621 22.868272 13.796875 22.898438 C 13.828493 22.934883 13.860179 22.968194 13.896484 23 C 13.927655 23.035633 13.960421 23.0665 13.996094 23.097656 C 14.025257 23.13084 14.0548 23.160161 14.087891 23.189453 C 14.119906 23.226356 14.152636 23.258873 14.189453 23.291016 C 14.2181 23.323443 14.246886 23.352169 14.279297 23.380859 C 14.309572 23.415596 14.340447 23.446055 14.375 23.476562 C 14.405005 23.510811 14.434573 23.542153 14.46875 23.572266 C 14.497862 23.605375 14.527523 23.63483 14.560547 23.664062 C 14.589651 23.69718 14.619327 23.726618 14.652344 23.755859 C 14.681448 23.788977 14.711124 23.818415 14.744141 23.847656 C 14.773292 23.88081 14.802864 23.910186 14.835938 23.939453 C 14.864536 23.97181 14.893434 24.000663 14.925781 24.029297 C 14.953818 24.061019 14.982028 24.08904 15.013672 24.117188 C 15.041664 24.148874 15.069973 24.176956 15.101562 24.205078 C 15.129554 24.236764 15.157864 24.264847 15.189453 24.292969 C 15.217094 24.324243 15.244241 24.353057 15.275391 24.380859 C 15.302714 24.411693 15.330589 24.439347 15.361328 24.466797 C 15.389606 24.498708 15.419241 24.526407 15.451172 24.554688 C 15.476893 24.583415 15.502539 24.609007 15.53125 24.634766 C 15.559287 24.666488 15.587497 24.694509 15.619141 24.722656 C 15.644258 24.750709 15.669294 24.775556 15.697266 24.800781 C 15.724307 24.831377 15.750847 24.859442 15.78125 24.886719 C 15.808416 24.917203 15.836671 24.94355 15.867188 24.970703 C 15.89177 24.998017 15.916062 25.022258 15.943359 25.046875 C 15.969914 25.076766 15.995617 25.104155 16.025391 25.130859 C 16.050498 25.158889 16.075558 25.183779 16.103516 25.208984 C 16.129544 25.238054 16.156459 25.263034 16.185547 25.289062 C 16.209133 25.315262 16.231724 25.339559 16.257812 25.363281 C 16.284064 25.392753 16.310457 25.418948 16.339844 25.445312 C 16.363715 25.471747 16.38764 25.49563 16.414062 25.519531 C 16.437866 25.546027 16.461922 25.569782 16.488281 25.59375 C 16.512994 25.621339 16.536977 25.64702 16.564453 25.671875 C 16.58806 25.698023 16.612569 25.720469 16.638672 25.744141 C 16.663212 25.771396 16.687599 25.795743 16.714844 25.820312 C 16.737565 25.845344 16.760137 25.867875 16.785156 25.890625 C 16.807481 25.915353 16.828954 25.938419 16.853516 25.960938 C 16.877904 25.988092 16.902618 26.012612 16.929688 26.037109 C 16.951746 26.061342 16.973829 26.08338 16.998047 26.105469 C 17.020018 26.129725 17.042277 26.151706 17.066406 26.173828 C 17.08905 26.1989 17.111776 26.221343 17.136719 26.244141 C 17.158815 26.26849 17.180805 26.290307 17.205078 26.3125 C 17.227787 26.337515 17.250387 26.360077 17.275391 26.382812 C 17.296263 26.405619 17.317049 26.426368 17.339844 26.447266 C 17.360658 26.470126 17.381557 26.490763 17.404297 26.511719 C 17.425789 26.535393 17.447151 26.556488 17.470703 26.578125 C 17.491643 26.601081 17.512273 26.621548 17.535156 26.642578 C 17.556096 26.665534 17.576726 26.686001 17.599609 26.707031 C 17.620217 26.729615 17.63962 26.750764 17.662109 26.771484 C 17.682998 26.794306 17.703749 26.815028 17.726562 26.835938 C 17.745343 26.856294 17.764833 26.873753 17.785156 26.892578 C 17.805736 26.915132 17.825199 26.936336 17.847656 26.957031 C 17.867963 26.979103 17.888042 26.999257 17.910156 27.019531 C 17.928005 27.038778 17.94561 27.056348 17.964844 27.074219 C 17.98512 27.096371 18.005252 27.116365 18.027344 27.136719 C 18.044577 27.155302 18.061552 27.172151 18.080078 27.189453 C 18.099389 27.210558 18.117711 27.230524 18.138672 27.25 C 18.157414 27.270315 18.176987 27.28785 18.197266 27.306641 C 18.215197 27.326031 18.232618 27.34333 18.251953 27.361328 C 18.269857 27.380694 18.287337 27.398037 18.306641 27.416016 C 18.325156 27.436043 18.34327 27.454114 18.363281 27.472656 C 18.379326 27.489869 18.39495 27.505376 18.412109 27.521484 C 18.430849 27.541853 18.448467 27.561236 18.46875 27.580078 C 18.484082 27.596476 18.499278 27.61156 18.515625 27.626953 C 18.533391 27.64621 18.551163 27.663751 18.570312 27.681641 C 18.58694 27.699479 18.60327 27.715771 18.621094 27.732422 C 18.637131 27.749622 18.652772 27.765153 18.669922 27.78125 C 18.685967 27.798463 18.70159 27.81397 18.71875 27.830078 C 18.735382 27.847917 18.751703 27.864209 18.769531 27.880859 C 18.784285 27.896557 18.798767 27.91101 18.814453 27.925781 C 18.829786 27.94218 18.844981 27.957263 18.861328 27.972656 C 18.876024 27.988371 18.890622 28.002786 18.90625 28.017578 C 18.921668 28.034115 18.936677 28.048935 18.953125 28.064453 C 18.968588 28.080953 18.983508 28.095849 19 28.111328 C 19.013532 28.125651 19.026703 28.138797 19.041016 28.152344 C 19.055149 28.167382 19.068994 28.181124 19.083984 28.195312 C 19.097498 28.209691 19.110702 28.222726 19.125 28.236328 C 19.139453 28.251751 19.152615 28.266718 19.167969 28.28125 C 19.181489 28.295562 19.194684 28.308728 19.208984 28.322266 C 19.221905 28.33594 19.234414 28.34836 19.248047 28.361328 C 19.260949 28.374985 19.273497 28.387438 19.287109 28.400391 C 19.300011 28.414048 19.31256 28.4265 19.326172 28.439453 C 19.33872 28.452733 19.350061 28.465901 19.363281 28.478516 C 19.375833 28.491758 19.389122 28.503047 19.402344 28.515625 C 19.414053 28.527954 19.425209 28.539029 19.4375 28.550781 C 19.449192 28.563094 19.460384 28.5742 19.472656 28.585938 C 19.484348 28.59825 19.495541 28.609356 19.507812 28.621094 C 19.519148 28.633029 19.529134 28.644855 19.541016 28.65625 C 19.551981 28.667762 19.562745 28.678445 19.574219 28.689453 C 19.585806 28.701618 19.597221 28.713008 19.609375 28.724609 C 19.618405 28.734012 19.627346 28.742889 19.636719 28.751953 C 19.648664 28.764556 19.661276 28.775107 19.673828 28.787109 C 19.682361 28.795977 19.690381 28.803935 19.699219 28.8125 C 19.709916 28.823764 19.719285 28.83492 19.730469 28.845703 C 19.74084 28.856534 19.750896 28.866572 19.761719 28.876953 C 19.769514 28.885029 19.777107 28.892566 19.785156 28.900391 C 19.795137 28.910867 19.80405 28.921581 19.814453 28.931641 C 19.823224 28.940772 19.832703 28.948219 19.841797 28.957031 C 19.851312 28.966918 19.861201 28.974864 19.871094 28.984375 C 19.878004 28.991518 19.883516 28.998913 19.890625 29.005859 C 19.900369 29.016037 19.909778 29.025374 19.919922 29.035156 C 19.927098 29.042552 19.934017 29.049457 19.941406 29.056641 C 19.948189 29.063666 19.953963 29.071289 19.960938 29.078125 C 19.969069 29.086591 19.977919 29.093371 19.986328 29.101562 C 19.99361 29.109091 20.000309 29.115737 20.007812 29.123047 C 20.015721 29.131223 20.023081 29.138567 20.03125 29.146484 C 20.037188 29.152573 20.042744 29.158118 20.048828 29.164062 C 20.054377 29.169781 20.058777 29.176049 20.064453 29.181641 C 20.072233 29.1897 20.079858 29.197269 20.087891 29.205078 C 20.093082 29.210385 20.098213 29.215507 20.103516 29.220703 C 20.108439 29.225762 20.114116 29.229415 20.119141 29.234375 C 20.125422 29.240869 20.130273 29.247575 20.136719 29.253906 C 20.142015 29.259337 20.146932 29.264216 20.152344 29.269531 C 20.158269 29.275607 20.163852 29.281178 20.169922 29.287109 C 20.173856 29.29111 20.177643 29.29489 20.181641 29.298828 C 20.185189 29.302455 20.187806 29.306971 20.191406 29.310547 C 20.197204 29.316504 20.203047 29.322306 20.208984 29.328125 C 20.212285 29.331471 20.217358 29.332636 20.220703 29.335938 C 20.223737 29.339032 20.225444 29.342646 20.228516 29.345703 C 20.232808 29.350104 20.235866 29.35505 20.240234 29.359375 C 20.243528 29.362724 20.246662 29.365836 20.25 29.369141 C 20.252917 29.372107 20.254861 29.375975 20.257812 29.378906 C 20.260352 29.381481 20.263059 29.38417 20.265625 29.386719 C 20.268165 29.389293 20.270872 29.391983 20.273438 29.394531 C 20.275723 29.396849 20.278943 29.398094 20.28125 29.400391 C 20.283281 29.402445 20.285062 29.404212 20.287109 29.40625 C 20.288124 29.407277 20.289996 29.411087 20.291016 29.412109 C 20.291016 29.412109 20.292969 29.414062 20.292969 29.414062 C 20.29424 29.415338 20.297551 29.4167 20.298828 29.417969 C 20.300454 29.419614 20.301097 29.422194 20.302734 29.423828 C 20.303142 29.424235 20.304279 29.423422 20.304688 29.423828 C 20.305322 29.42447 20.306004 29.425141 20.306641 29.425781 C 20.48068 29.600959 20.719444 29.704456 20.982422 29.722656 C 21.006314 29.724271 21.026462 29.736328 21.050781 29.736328 C 21.051447 29.736329 21.052069 29.736328 21.052734 29.736328 L 28.419922 29.736328 C 28.99887 29.736328 29.472656 29.262542 29.472656 28.683594 L 29.472656 28.158203 L 29.472656 28.15625 L 29.470703 28.15625 L 29.470703 28.154297 L 29.466797 28.154297 L 29.466797 28.152344 L 29.464844 28.152344 L 29.464844 28.148438 L 29.460938 28.148438 L 29.460938 28.144531 L 29.455078 28.144531 L 29.455078 28.140625 L 29.449219 28.140625 L 29.449219 28.134766 L 29.443359 28.134766 L 29.443359 28.126953 L 29.4375 28.126953 L 29.4375 28.121094 L 29.429688 28.121094 L 29.429688 28.113281 L 29.419922 28.113281 L 29.419922 28.103516 L 29.410156 28.103516 L 29.410156 28.095703 L 29.400391 28.095703 L 29.400391 28.085938 L 29.390625 28.085938 L 29.390625 28.074219 L 29.378906 28.074219 L 29.378906 28.0625 L 29.367188 28.0625 L 29.367188 28.050781 L 29.353516 28.050781 L 29.353516 28.037109 L 29.339844 28.037109 L 29.339844 28.023438 L 29.324219 28.023438 L 29.324219 28.009766 L 29.310547 28.009766 L 29.310547 27.994141 L 29.294922 27.994141 L 29.294922 27.978516 L 29.277344 27.978516 L 29.277344 27.960938 L 29.259766 27.960938 L 29.259766 27.943359 L 29.242188 27.943359 L 29.242188 27.925781 L 29.222656 27.925781 L 29.222656 27.90625 L 29.203125 27.90625 L 29.203125 27.886719 L 29.181641 27.886719 L 29.181641 27.867188 L 29.162109 27.867188 L 29.162109 27.845703 L 29.138672 27.845703 L 29.138672 27.824219 L 29.117188 27.824219 L 29.117188 27.800781 L 29.09375 27.800781 L 29.09375 27.777344 L 29.070312 27.777344 L 29.070312 27.753906 L 29.044922 27.753906 L 29.044922 27.728516 L 29.019531 27.728516 L 29.019531 27.703125 L 28.992188 27.703125 L 28.992188 27.675781 L 28.964844 27.675781 L 28.964844 27.650391 L 28.9375 27.650391 L 28.9375 27.621094 L 28.908203 27.621094 L 28.908203 27.59375 L 28.878906 27.59375 L 28.878906 27.564453 L 28.849609 27.564453 L 28.849609 27.533203 L 28.818359 27.533203 L 28.818359 27.503906 L 28.787109 27.503906 L 28.787109 27.470703 L 28.755859 27.470703 L 28.755859 27.439453 L 28.722656 27.439453 L 28.722656 27.40625 L 28.6875 27.40625 L 28.6875 27.373047 L 28.654297 27.373047 L 28.654297 27.337891 L 28.619141 27.337891 L 28.619141 27.302734 L 28.582031 27.302734 L 28.582031 27.265625 L 28.544922 27.265625 L 28.544922 27.230469 L 28.507812 27.230469 L 28.507812 27.191406 L 28.470703 27.191406 L 28.470703 27.154297 L 28.431641 27.154297 L 28.431641 27.115234 L 28.390625 27.115234 L 28.390625 27.105469 L 30 27.105469 L 30 22.894531 L 29.998047 22.894531 L 29.998047 22.892578 L 29.996094 22.892578 L 29.996094 22.890625 L 29.994141 22.890625 L 29.994141 22.888672 L 29.990234 22.888672 L 29.990234 22.884766 L 29.986328 22.884766 L 29.986328 22.880859 L 29.982422 22.880859 L 29.982422 22.876953 L 29.976562 22.876953 L 29.976562 22.871094 L 29.970703 22.871094 L 29.970703 22.865234 L 29.962891 22.865234 L 29.962891 22.857422 L 29.955078 22.857422 L 29.955078 22.849609 L 29.947266 22.849609 L 29.947266 22.841797 L 29.9375 22.841797 L 29.9375 22.832031 L 29.927734 22.832031 L 29.927734 22.822266 L 29.916016 22.822266 L 29.916016 22.810547 L 29.904297 22.810547 L 29.904297 22.798828 L 29.892578 22.798828 L 29.892578 22.787109 L 29.878906 22.787109 L 29.878906 22.775391 L 29.865234 22.775391 L 29.865234 22.759766 L 29.851562 22.759766 L 29.851562 22.746094 L 29.835938 22.746094 L 29.835938 22.730469 L 29.820312 22.730469 L 29.820312 22.714844 L 29.802734 22.714844 L 29.802734 22.699219 L 29.787109 22.699219 L 29.787109 22.681641 L 29.767578 22.681641 L 29.767578 22.662109 L 29.748047 22.662109 L 29.748047 22.644531 L 29.728516 22.644531 L 29.728516 22.625 L 29.708984 22.625 L 29.708984 22.603516 L 29.6875 22.603516 L 29.6875 22.582031 L 29.666016 22.582031 L 29.666016 22.560547 L 29.642578 22.560547 L 29.642578 22.537109 L 29.619141 22.537109 L 29.619141 22.513672 L 29.595703 22.513672 L 29.595703 22.490234 L 29.570312 22.490234 L 29.570312 22.464844 L 29.544922 22.464844 L 29.544922 22.439453 L 29.519531 22.439453 L 29.519531 22.414062 L 29.492188 22.414062 L 29.492188 22.386719 L 29.464844 22.386719 L 29.464844 22.359375 L 29.435547 22.359375 L 29.435547 22.330078 L 29.40625 22.330078 L 29.40625 22.300781 L 29.375 22.300781 L 29.375 22.271484 L 29.345703 22.271484 L 29.345703 22.240234 L 29.314453 22.240234 L 29.314453 22.208984 L 29.28125 22.208984 L 29.28125 22.175781 L 29.248047 22.175781 L 29.248047 22.142578 L 29.214844 22.142578 L 29.214844 22.109375 L 29.179688 22.109375 L 29.179688 22.074219 L 29.144531 22.074219 L 29.144531 22.039062 L 29.109375 22.039062 L 29.109375 22.003906 L 29.072266 22.003906 L 29.072266 21.966797 L 29.035156 21.966797 L 29.035156 21.929688 L 28.996094 21.929688 L 28.996094 21.890625 L 28.957031 21.890625 L 28.957031 21.851562 L 28.917969 21.851562 L 28.917969 21.841797 L 29.472656 21.841797 L 29.472656 21.839844 L 29.472656 21.314453 C 29.472656 21.02498 29.354852 20.763055 29.164062 20.572266 C 29.162398 20.570601 29.159879 20.570013 29.158203 20.568359 C 29.158203 20.568359 29.158203 20.566406 29.158203 20.566406 C 29.158203 20.566406 29.15625 20.564453 29.15625 20.564453 C 29.15625 20.564453 29.154297 20.5625 29.154297 20.5625 C 29.154297 20.5625 29.152344 20.560547 29.152344 20.560547 C 29.152344 20.560547 29.150391 20.558594 29.150391 20.558594 C 29.150391 20.558594 29.148438 20.556641 29.148438 20.556641 C 29.148438 20.556641 29.146484 20.554688 29.146484 20.554688 C 29.145461 20.553664 29.143606 20.553753 29.142578 20.552734 C 29.14054 20.55068 29.138774 20.548913 29.136719 20.546875 C 29.134428 20.544566 29.133171 20.541351 29.130859 20.539062 C 29.128308 20.536485 29.125625 20.533802 29.123047 20.53125 C 29.120495 20.528672 29.117812 20.525989 29.115234 20.523438 C 29.112309 20.520482 29.108428 20.518546 29.105469 20.515625 C 29.102162 20.512274 29.099054 20.509166 29.095703 20.505859 C 29.092017 20.502124 29.087726 20.499774 29.083984 20.496094 C 29.080947 20.493007 29.079247 20.489378 29.076172 20.486328 C 29.070606 20.480642 29.066239 20.474311 29.060547 20.46875 C 29.057995 20.466172 29.055312 20.463489 29.052734 20.460938 C 29.047553 20.455633 29.042401 20.450508 29.037109 20.445312 C 29.031534 20.439635 29.025232 20.435239 29.019531 20.429688 C 29.015208 20.425307 29.010258 20.422274 29.005859 20.417969 C 29.000552 20.412547 28.995657 20.407651 28.990234 20.402344 C 28.985551 20.397559 28.981335 20.393368 28.976562 20.388672 C 28.969256 20.381147 28.962603 20.374494 28.955078 20.367188 C 28.94976 20.361782 28.944886 20.356854 28.939453 20.351562 C 28.933273 20.345218 28.928211 20.33822 28.921875 20.332031 C 28.91631 20.326334 28.909988 20.321977 28.904297 20.316406 C 28.895753 20.307562 28.887751 20.299559 28.878906 20.291016 C 28.872576 20.284549 28.865868 20.279741 28.859375 20.273438 C 28.852077 20.265921 28.845407 20.259251 28.837891 20.251953 C 28.831331 20.245197 28.827048 20.237048 28.820312 20.230469 C 28.811902 20.221745 28.803624 20.21351 28.794922 20.205078 C 28.786113 20.195987 28.776706 20.18846 28.767578 20.179688 C 28.759999 20.171905 28.751954 20.16575 28.744141 20.158203 C 28.735592 20.149354 28.7276 20.14136 28.71875 20.132812 C 28.710213 20.123976 28.702196 20.115958 28.693359 20.107422 C 28.684571 20.098324 28.677076 20.088858 28.667969 20.080078 C 28.658916 20.070687 28.650016 20.061787 28.640625 20.052734 C 28.631217 20.042975 28.621101 20.034785 28.611328 20.025391 C 28.601541 20.015207 28.592215 20.005881 28.582031 19.996094 C 28.572244 19.98591 28.562918 19.976584 28.552734 19.966797 C 28.542954 19.956619 28.533614 19.947282 28.523438 19.9375 C 28.512676 19.926245 28.501478 19.917023 28.490234 19.90625 C 28.479484 19.89503 28.470215 19.883787 28.458984 19.873047 C 28.44797 19.861527 28.437301 19.850858 28.425781 19.839844 C 28.414767 19.828324 28.404098 19.817655 28.392578 19.806641 C 28.38119 19.794731 28.369349 19.784807 28.357422 19.773438 C 28.345701 19.761144 28.33456 19.750001 28.322266 19.738281 C 28.310523 19.725963 28.299428 19.714868 28.287109 19.703125 C 28.275139 19.690567 28.264522 19.677975 28.251953 19.666016 C 28.239718 19.653154 28.227706 19.641142 28.214844 19.628906 C 28.202262 19.61568 28.189025 19.60436 28.175781 19.591797 C 28.162822 19.578132 28.150383 19.565694 28.136719 19.552734 C 28.123759 19.53907 28.111321 19.526631 28.097656 19.513672 C 28.084325 19.499615 28.070718 19.487919 28.056641 19.474609 C 28.042959 19.46014 28.030095 19.447275 28.015625 19.433594 C 28.002315 19.419517 27.990619 19.405909 27.976562 19.392578 C 27.961692 19.376771 27.947447 19.362527 27.931641 19.347656 C 27.917715 19.332973 27.903411 19.320509 27.888672 19.306641 C 27.874163 19.291221 27.861103 19.276248 27.845703 19.261719 C 27.831163 19.246309 27.816213 19.233267 27.800781 19.21875 C 27.785643 19.202657 27.771968 19.186997 27.755859 19.171875 C 27.740746 19.15578 27.725067 19.14208 27.708984 19.126953 C 27.694496 19.111551 27.681394 19.096545 27.666016 19.082031 C 27.64876 19.063501 27.631812 19.046553 27.613281 19.029297 C 27.598118 19.013227 27.582538 18.999473 27.566406 18.984375 C 27.55032 18.967187 27.534766 18.951633 27.517578 18.935547 C 27.501241 18.918091 27.486223 18.901085 27.46875 18.884766 C 27.452181 18.867025 27.435709 18.850554 27.417969 18.833984 C 27.401399 18.816244 27.384928 18.799772 27.367188 18.783203 C 27.350284 18.765105 27.332575 18.7493 27.314453 18.732422 C 27.297174 18.713865 27.280276 18.696966 27.261719 18.679688 C 27.244107 18.660773 27.22597 18.644539 27.207031 18.626953 C 27.189045 18.607578 27.171719 18.590252 27.152344 18.572266 C 27.134358 18.55289 27.117032 18.535564 27.097656 18.517578 C 27.079421 18.497934 27.062632 18.479153 27.042969 18.460938 C 27.024504 18.441006 27.00626 18.422761 26.986328 18.404297 C 26.967864 18.384365 26.949619 18.366121 26.929688 18.347656 C 26.910872 18.327341 26.891433 18.309806 26.871094 18.291016 C 26.852577 18.270966 26.834452 18.252946 26.814453 18.234375 C 26.793805 18.211837 26.77446 18.190605 26.751953 18.169922 C 26.732872 18.149325 26.714005 18.130357 26.693359 18.111328 C 26.673965 18.090285 26.653836 18.072151 26.632812 18.052734 C 26.611798 18.029796 26.591298 18.009296 26.568359 17.988281 C 26.548576 17.966861 26.529283 17.947463 26.507812 17.927734 C 26.487146 17.905243 26.465879 17.885871 26.443359 17.865234 C 26.422321 17.842268 26.401873 17.82182 26.378906 17.800781 C 26.357905 17.777863 26.337375 17.757325 26.314453 17.736328 C 26.293167 17.713091 26.273259 17.691184 26.25 17.669922 C 26.228501 17.646412 26.20711 17.625008 26.183594 17.603516 C 26.162123 17.580037 26.14067 17.558576 26.117188 17.537109 C 26.095313 17.513181 26.07279 17.492542 26.048828 17.470703 C 26.026626 17.446342 26.00483 17.424546 25.980469 17.402344 C 25.95863 17.378382 25.937991 17.355859 25.914062 17.333984 C 25.890977 17.308527 25.867231 17.286783 25.841797 17.263672 C 25.818321 17.237837 25.795427 17.214817 25.769531 17.191406 C 25.747369 17.167097 25.725485 17.145205 25.701172 17.123047 C 25.677518 17.096883 25.655034 17.072522 25.628906 17.048828 C 25.604605 17.02203 25.579632 16.998802 25.552734 16.974609 C 25.529557 16.949178 25.505995 16.927371 25.480469 16.904297 C 25.456424 16.877697 25.43285 16.854123 25.40625 16.830078 C 25.381959 16.803206 25.358929 16.77817 25.332031 16.753906 C 25.308142 16.727435 25.28423 16.703634 25.257812 16.679688 C 25.232047 16.651042 25.206446 16.625302 25.177734 16.599609 C 25.153403 16.572775 25.128497 16.549613 25.101562 16.525391 C 25.076416 16.497441 25.051393 16.472406 25.023438 16.447266 C 24.998291 16.419316 24.973268 16.394281 24.945312 16.369141 C 24.920172 16.341186 24.895137 16.316162 24.867188 16.291016 C 24.840858 16.261588 24.814584 16.235314 24.785156 16.208984 C 24.759382 16.180316 24.733804 16.154619 24.705078 16.128906 C 24.678749 16.099479 24.652474 16.073204 24.623047 16.046875 C 24.596718 16.017447 24.570443 15.991173 24.541016 15.964844 C 24.514708 15.935431 24.488387 15.909131 24.458984 15.882812 C 24.431767 15.852236 24.403595 15.826076 24.373047 15.798828 C 24.345854 15.768342 24.319571 15.74006 24.289062 15.712891 C 24.261602 15.68204 24.233975 15.654414 24.203125 15.626953 C 24.175712 15.596171 24.147976 15.568421 24.117188 15.541016 C 24.089367 15.509762 24.060594 15.482851 24.029297 15.455078 C 24.001214 15.423447 23.973044 15.395263 23.941406 15.367188 C 23.913275 15.335486 23.885217 15.307429 23.853516 15.279297 C 23.82544 15.247659 23.797256 15.219489 23.765625 15.191406 C 23.736731 15.158678 23.708465 15.128553 23.675781 15.099609 C 23.646896 15.066992 23.616639 15.03861 23.583984 15.009766 C 23.554732 14.976632 23.525321 14.947221 23.492188 14.917969 C 23.462986 14.884909 23.433458 14.855366 23.400391 14.826172 C 23.370781 14.792633 23.340225 14.763934 23.306641 14.734375 C 23.276724 14.700385 23.246881 14.670541 23.212891 14.640625 C 23.182732 14.60636 23.153437 14.575045 23.119141 14.544922 C 23.089315 14.511128 23.059249 14.480926 23.025391 14.451172 C 22.995682 14.417348 22.96538 14.387224 22.931641 14.357422 C 22.899552 14.320594 22.866906 14.287948 22.830078 14.255859 C 22.799868 14.221641 22.768718 14.192181 22.734375 14.162109 C 22.703706 14.127084 22.67365 14.095175 22.638672 14.064453 C 22.606584 14.027625 22.573938 13.994979 22.537109 13.962891 C 22.506145 13.927637 22.474787 13.896109 22.439453 13.865234 C 22.40769 13.828884 22.374281 13.797343 22.337891 13.765625 C 22.305763 13.728745 22.273208 13.69619 22.236328 13.664062 C 22.204255 13.627265 22.171572 13.594563 22.134766 13.5625 C 22.102042 13.524936 22.068899 13.491613 22.03125 13.458984 C 21.99858 13.421503 21.965309 13.388033 21.927734 13.355469 C 21.895306 13.318264 21.861483 13.286269 21.824219 13.253906 C 21.791197 13.215884 21.75876 13.18142 21.720703 13.148438 C 21.687481 13.110103 21.653569 13.076191 21.615234 13.042969 C 21.581658 13.004226 21.546607 12.971018 21.507812 12.9375 C 21.473997 12.898384 21.439516 12.863882 21.400391 12.830078 C 21.366529 12.790909 21.332155 12.756499 21.292969 12.722656 C 21.258504 12.682766 21.223573 12.647645 21.183594 12.613281 C 21.149732 12.574112 21.115358 12.539702 21.076172 12.505859 C 21.041627 12.465694 21.00692 12.429125 20.966797 12.394531 C 20.932133 12.354328 20.895726 12.319759 20.855469 12.285156 C 20.820514 12.244489 20.784808 12.208783 20.744141 12.173828 C 20.708833 12.132751 20.671991 12.097746 20.630859 12.0625 C 20.595023 12.02068 20.559436 11.983059 20.517578 11.947266 C 20.482328 11.906281 20.445347 11.871113 20.404297 11.835938 C 20.368461 11.794117 20.332874 11.756496 20.291016 11.720703 C 20.254984 11.678566 20.217918 11.6415 20.175781 11.605469 C 20.139988 11.563611 20.102367 11.528024 20.060547 11.492188 C 20.023047 11.448072 19.985561 11.408549 19.941406 11.371094 C 19.905305 11.329075 19.868358 11.29177 19.826172 11.255859 C 19.789369 11.212627 19.750238 11.175505 19.707031 11.138672 C 19.670435 11.095742 19.632762 11.058094 19.589844 11.021484 C 19.552185 10.977079 19.513143 10.938064 19.46875 10.900391 C 19.431663 10.85669 19.393226 10.818433 19.349609 10.78125 C 19.310702 10.735241 19.270719 10.695041 19.224609 10.65625 C 19.18741 10.612642 19.149185 10.574184 19.105469 10.537109 C 19.067385 10.492203 19.027387 10.454032 18.982422 10.416016 C 18.943819 10.370358 18.905073 10.329571 18.859375 10.291016 C 18.82109 10.245853 18.781569 10.206164 18.736328 10.167969 C 18.697536 10.12199 18.657307 10.081761 18.611328 10.042969 C 18.572187 9.9965769 18.530827 9.9570398 18.484375 9.9179688 C 18.445314 9.8715611 18.405745 9.8301198 18.359375 9.7910156 C 18.320036 9.7443677 18.279149 9.7033101 18.232422 9.6640625 C 18.193174 9.6173357 18.152117 9.5764481 18.105469 9.5371094 C 18.065626 9.4896401 18.024032 9.4480459 17.976562 9.4082031 C 17.936955 9.3610148 17.894803 9.3209051 17.847656 9.28125 C 17.806617 9.2320626 17.764031 9.1894771 17.714844 9.1484375 C 17.674922 9.1009733 17.633491 9.0593501 17.585938 9.0195312 C 17.545553 8.9712675 17.503327 8.9290733 17.455078 8.8886719 C 17.413574 8.8388118 17.370173 8.7954104 17.320312 8.7539062 C 17.279564 8.7052426 17.236241 8.6637051 17.1875 8.6230469 C 17.146761 8.5742089 17.105415 8.5310466 17.056641 8.4902344 C 17.014915 8.4399651 16.972079 8.3953168 16.921875 8.3535156 C 16.880074 8.3033113 16.835425 8.2604754 16.785156 8.21875 C 16.743306 8.1684744 16.698778 8.1257588 16.648438 8.0839844 C 16.606383 8.0333445 16.562374 7.9893016 16.511719 7.9472656 C 16.469365 7.8962269 16.426083 7.8508956 16.375 7.8085938 C 16.33319 7.7583412 16.288572 7.715593 16.238281 7.6738281 C 16.195795 7.6223634 16.150947 7.5777905 16.099609 7.5351562 C 16.055902 7.4820601 16.010127 7.4362857 15.957031 7.3925781 C 15.914418 7.3412273 15.869804 7.2964088 15.818359 7.2539062 C 15.774955 7.2013288 15.728409 7.1566266 15.675781 7.1132812 C 15.63278 7.0610708 15.589203 7.0138417 15.537109 6.9707031 C 15.492651 6.9165818 15.444816 6.870549 15.390625 6.8261719 C 15.347311 6.7737444 15.30249 6.7268347 15.25 6.6835938 C 15.206185 6.6304067 15.158706 6.5847716 15.105469 6.5410156 C 15.061302 6.4872351 15.014718 6.4406513 14.960938 6.3964844 C 14.916217 6.3418742 14.869063 6.2947208 14.814453 6.25 C 14.770375 6.1963271 14.723577 6.1495681 14.669922 6.1054688 C 14.625063 6.0505604 14.576327 6.0039204 14.521484 5.9589844 C 14.475705 5.9027745 14.427304 5.8543732 14.371094 5.8085938 C 14.177645 5.5724959 13.897518 5.4121094 13.570312 5.4121094 L 6.2011719 5.4121094 z "
       id="path8092"
       clip-path="url(#clipPath8990)" />
    <path
       id="path7987"
       d="m 14.473685,13.157895 0,0.526315 c 0,0.578948 -0.473684,1.052632 -1.052632,1.052632 l -7.3684214,0 c -0.5842102,0 -1.0526313,-0.473684 -1.0526313,-1.052632 l 0,-7.3684206 c 0,-0.5789474 0.4684211,-1.0526316 1.0526313,-1.0526316 l 7.3684214,0 c 0.578948,0 1.052632,0.4736842 1.052632,1.0526316 l 0,0.5263158 -4.7368432,0 c -0.58421,0 -1.052631,0.4736842 -1.052631,1.0526311 l 0,4.2105267 c 0,0.578947 0.468421,1.052632 1.052631,1.052632 l 4.7368432,0 z m -4.7368432,-1.052632 5.2631582,0 0,-4.2105267 -5.2631582,0 0,4.2105267 z m 2.1052642,-1.31579 c -0.436842,0 -0.789474,-0.352631 -0.789474,-0.789473 0,-0.4368417 0.352632,-0.7894737 0.789474,-0.7894737 0.436842,0 0.789473,0.352632 0.789473,0.7894737 0,0.436842 -0.352631,0.789473 -0.789473,0.789473 z"
       inkscape:connector-curvature="0"
       style="fill:#fafafa" />
    <path
       style="fill:none"
       inkscape:connector-curvature="0"
       id="path4"
       d="m 3.9999777,4.0333382 12.0000003,0 0,11.9333328 -12.0000003,0 z" />
    <path
       d="m 18.999978,19.033339 12,0 0,11.933333 -12,0 z"
       id="path9754"
       inkscape:connector-curvature="0"
       style="fill:none" />
    <g
       transform="matrix(0.03184582,0,0,0.03184582,4.9999993,4.9999873)"
       id="g4860" />
    <g
       transform="matrix(0.03184582,0,0,0.03184582,4.9999993,4.9999873)"
       id="g4862" />
    <g
       transform="matrix(0.03184582,0,0,0.03184582,4.9999993,4.9999873)"
       id="g4864" />
    <g
       transform="matrix(0.03184582,0,0,0.03184582,4.9999993,4.9999873)"
       id="g4866" />
    <g
       transform="matrix(0.03184582,0,0,0.03184582,4.9999993,4.9999873)"
       id="g4868" />
    <g
       transform="matrix(0.03184582,0,0,0.03184582,4.9999993,4.9999873)"
       id="g4870" />
    <g
       transform="matrix(0.03184582,0,0,0.03184582,4.9999993,4.9999873)"
       id="g4872" />
    <g
       transform="matrix(0.03184582,0,0,0.03184582,4.9999993,4.9999873)"
       id="g4874" />
    <g
       transform="matrix(0.03184582,0,0,0.03184582,4.9999993,4.9999873)"
       id="g4876" />
    <g
       transform="matrix(0.03184582,0,0,0.03184582,4.9999993,4.9999873)"
       id="g4878" />
    <g
       transform="matrix(0.03184582,0,0,0.03184582,4.9999993,4.9999873)"
       id="g4880" />
    <g
       transform="matrix(0.03184582,0,0,0.03184582,4.9999993,4.9999873)"
       id="g4882" />
    <g
       transform="matrix(0.03184582,0,0,0.03184582,4.9999993,4.9999873)"
       id="g4884" />
    <g
       transform="matrix(0.03184582,0,0,0.03184582,4.9999993,4.9999873)"
       id="g4886" />
    <g
       transform="matrix(0.03184582,0,0,0.03184582,4.9999993,4.9999873)"
       id="g4888" />
    <path
       style="fill:none"
       inkscape:connector-curvature="0"
       d="M 4.5000001,4.5000001 15.5,4.5000001 15.5,15.5 4.5000001,15.5 Z"
       id="path6048" />
    <path
       id="path6064"
       d="m 19.5,19.5 11,0 0,11 -11,0 z"
       inkscape:connector-curvature="0"
       style="fill:none" />
    <path
       id="path7985"
       d="m 5.6339285,-4.0982141 23.9999995,0 0,24.0000001 -23.9999995,0 z"
       inkscape:connector-curvature="0"
       style="fill:none" />
  </g>
</svg>
