<?xml version="1.0" encoding="UTF-8" standalone="no"?>
<!-- Created with Inkscape (http://www.inkscape.org/) -->

<svg
   xmlns:dc="http://purl.org/dc/elements/1.1/"
   xmlns:cc="http://creativecommons.org/ns#"
   xmlns:rdf="http://www.w3.org/1999/02/22-rdf-syntax-ns#"
   xmlns:svg="http://www.w3.org/2000/svg"
   xmlns="http://www.w3.org/2000/svg"
   xmlns:xlink="http://www.w3.org/1999/xlink"
   xmlns:sodipodi="http://sodipodi.sourceforge.net/DTD/sodipodi-0.dtd"
   xmlns:inkscape="http://www.inkscape.org/namespaces/inkscape"
   width="5.6444445mm"
   height="5.6444445mm"
   viewBox="0 0 20 20"
   id="svg2"
   version="1.1"
   inkscape:version="0.91 r13725"
   sodipodi:docname="Github.svg"
   inkscape:export-filename="/home/juergen/Projekte/Android/Android_Studio/Baumann_Theme/theme/src/main/assets/icons/res/drawable-xxhdpi/a083.png"
   inkscape:export-xdpi="648"
   inkscape:export-ydpi="648">
  <sodipodi:namedview
     id="base"
     pagecolor="#ffffff"
     bordercolor="#666666"
     borderopacity="1.0"
     inkscape:pageopacity="0.0"
     inkscape:pageshadow="2"
     inkscape:zoom="22.4"
     inkscape:cx="-0.45404071"
     inkscape:cy="10.970331"
     inkscape:document-units="px"
     inkscape:current-layer="layer1"
     showgrid="false"
     fit-margin-top="0"
     fit-margin-left="0"
     fit-margin-right="0"
     fit-margin-bottom="0"
     showguides="true"
     inkscape:guide-bbox="true"
     inkscape:window-width="1366"
     inkscape:window-height="744"
     inkscape:window-x="0"
     inkscape:window-y="24"
     inkscape:window-maximized="1"
     inkscape:snap-grids="true"
     inkscape:snap-to-guides="true"
     inkscape:snap-page="false">
    <inkscape:grid
       type="xygrid"
       id="grid4138" />
    <sodipodi:guide
       position="10,18"
       orientation="0,1"
       id="guide4140" />
    <sodipodi:guide
       position="10,2"
       orientation="0,1"
       id="guide4142" />
    <sodipodi:guide
       position="2,10"
       orientation="1,0"
       id="guide4144" />
    <sodipodi:guide
       position="0,0"
       orientation="0,20"
       id="guide4146" />
    <sodipodi:guide
       position="20,0"
       orientation="-20,0"
       id="guide4148" />
    <sodipodi:guide
       position="20,20"
       orientation="0,-20"
       id="guide4150" />
    <sodipodi:guide
       position="0,20"
       orientation="20,0"
       id="guide4152" />
    <sodipodi:guide
       position="18,10"
       orientation="1,0"
       id="guide4154" />
    <sodipodi:guide
       position="10,10"
       orientation="-0.70710678,0.70710678"
       id="guide4156" />
    <sodipodi:guide
       position="4,10"
       orientation="1,0"
       id="guide4160" />
    <sodipodi:guide
       position="16,10"
       orientation="1,0"
       id="guide4162" />
    <sodipodi:guide
       position="10,16"
       orientation="0,1"
       id="guide4164" />
    <sodipodi:guide
       position="10,4"
       orientation="0,1"
       id="guide4166" />
    <sodipodi:guide
       position="10,15"
       orientation="0,1"
       id="guide4168" />
    <sodipodi:guide
       position="10,5"
       orientation="0,1"
       id="guide4170" />
    <sodipodi:guide
       position="5,10"
       orientation="1,0"
       id="guide4172" />
    <sodipodi:guide
       position="15,10"
       orientation="1,0"
       id="guide4174" />
  </sodipodi:namedview>
  <defs
     id="defs4">
    <linearGradient
       inkscape:collect="always"
       id="linearGradient9225">
      <stop
         style="stop-color:#191819;stop-opacity:0.2"
         offset="0"
         id="stop9227" />
      <stop
         style="stop-color:#191819;stop-opacity:0;"
         offset="1"
         id="stop9229" />
    </linearGradient>
    <clipPath
       id="clipPath12478"
       clipPathUnits="userSpaceOnUse">
      <circle
         r="10"
         cy="10.000005"
         cx="9.9999781"
         id="circle12480"
         style="opacity:1;fill:#2196f3;fill-opacity:1;stroke:none;stroke-width:0.05069799;stroke-miterlimit:4;stroke-dasharray:none;stroke-opacity:1" />
    </clipPath>
    <clipPath
       clipPathUnits="userSpaceOnUse"
       id="clipPath5790">
      <circle
         r="10"
         cy="10.000005"
         cx="9.9999781"
         id="circle5792"
         style="opacity:1;fill:#2196f3;fill-opacity:1;stroke:none;stroke-width:0.05069799;stroke-miterlimit:4;stroke-dasharray:none;stroke-opacity:1"
         inkscape:export-filename="/home/juergen/path4136.png"
         inkscape:export-xdpi="648"
         inkscape:export-ydpi="648" />
    </clipPath>
    <clipPath
       id="clipPath5055"
       clipPathUnits="userSpaceOnUse">
      <circle
         r="10"
         cy="10.000005"
         cx="9.9999781"
         id="circle5057"
         style="opacity:1;fill:#2196f3;fill-opacity:1;stroke:none;stroke-width:0.05069799;stroke-miterlimit:4;stroke-dasharray:none;stroke-opacity:1"
         inkscape:export-filename="/home/juergen/path4136.png"
         inkscape:export-xdpi="648"
         inkscape:export-ydpi="648" />
    </clipPath>
    <clipPath
       clipPathUnits="userSpaceOnUse"
       id="clipPath5119">
      <circle
         r="10"
         cy="10.000005"
         cx="9.9999781"
         id="circle5121"
         style="opacity:1;fill:#2196f3;fill-opacity:1;stroke:none;stroke-width:0.05069799;stroke-miterlimit:4;stroke-dasharray:none;stroke-opacity:1"
         inkscape:export-filename="/home/juergen/Schreibtisch/path4136.png"
         inkscape:export-xdpi="648"
         inkscape:export-ydpi="648" />
    </clipPath>
    <clipPath
       id="clipPath5194"
       clipPathUnits="userSpaceOnUse">
      <circle
         r="10"
         cy="10.000005"
         cx="9.9999781"
         id="circle5196"
         style="opacity:1;fill:#cddc39;fill-opacity:1;stroke:none;stroke-width:0.05069799;stroke-miterlimit:4;stroke-dasharray:none;stroke-opacity:1"
         inkscape:export-filename="/home/juergen/Schreibtisch/path4136.png"
         inkscape:export-xdpi="648"
         inkscape:export-ydpi="648" />
    </clipPath>
    <clipPath
       clipPathUnits="userSpaceOnUse"
       id="clipPath6175">
      <circle
         r="10"
         cy="10.000005"
         cx="9.9999781"
         id="circle6177"
         style="opacity:1;fill:#f44336;fill-opacity:1;stroke:none;stroke-width:0.05069799;stroke-miterlimit:4;stroke-dasharray:none;stroke-opacity:1"
         inkscape:export-filename="/home/juergen/Schreibtisch/path4136.png"
         inkscape:export-xdpi="648"
         inkscape:export-ydpi="648" />
    </clipPath>
    <clipPath
       id="clipPath7176"
       clipPathUnits="userSpaceOnUse">
      <circle
         r="10"
         cy="10.000005"
         cx="9.9999781"
         id="circle7178"
         style="opacity:1;fill:#9c27b0;fill-opacity:1;stroke:none;stroke-width:0.05069799;stroke-miterlimit:4;stroke-dasharray:none;stroke-opacity:1"
         inkscape:export-filename="/home/juergen/Schreibtisch/path4136.png"
         inkscape:export-xdpi="648"
         inkscape:export-ydpi="648" />
    </clipPath>
    <clipPath
       clipPathUnits="userSpaceOnUse"
       id="clipPath8165">
      <circle
         r="10"
         cy="10.000005"
         cx="9.9999781"
         id="circle8167"
         style="opacity:1;fill:#ffc107;fill-opacity:1;stroke:none;stroke-width:0.05069799;stroke-miterlimit:4;stroke-dasharray:none;stroke-opacity:1"
         inkscape:export-filename="/home/juergen/Schreibtisch/path4136.png"
         inkscape:export-xdpi="648"
         inkscape:export-ydpi="648" />
    </clipPath>
    <clipPath
       id="clipPath9162"
       clipPathUnits="userSpaceOnUse">
      <circle
         r="10"
         cy="10.000005"
         cx="9.9999781"
         id="circle9164"
         style="opacity:1;fill:#ff9800;fill-opacity:1;stroke:none;stroke-width:0.05069799;stroke-miterlimit:4;stroke-dasharray:none;stroke-opacity:1"
         inkscape:export-filename="/home/juergen/Schreibtisch/path4136.png"
         inkscape:export-xdpi="648"
         inkscape:export-ydpi="648" />
    </clipPath>
    <clipPath
       clipPathUnits="userSpaceOnUse"
       id="clipPath5147">
      <circle
         r="10"
         cy="10.000005"
         cx="9.9999781"
         id="circle5149"
         style="opacity:1;fill:#ff9800;fill-opacity:1;stroke:none;stroke-width:0.05069799;stroke-miterlimit:4;stroke-dasharray:none;stroke-opacity:1"
         inkscape:export-filename="/home/juergen/Schreibtisch/path4136.png"
         inkscape:export-xdpi="648"
         inkscape:export-ydpi="648" />
    </clipPath>
    <clipPath
       id="clipPath6144"
       clipPathUnits="userSpaceOnUse">
      <circle
         r="10"
         cy="10.000005"
         cx="9.9999781"
         id="circle6146"
         style="opacity:1;fill:#e91e63;fill-opacity:1;stroke:none;stroke-width:0.05069799;stroke-miterlimit:4;stroke-dasharray:none;stroke-opacity:1"
         inkscape:export-filename="/home/juergen/Schreibtisch/path4136.png"
         inkscape:export-xdpi="648"
         inkscape:export-ydpi="648" />
    </clipPath>
    <clipPath
       clipPathUnits="userSpaceOnUse"
       id="clipPath7143">
      <circle
         r="10"
         cy="10.000005"
         cx="9.9999781"
         id="circle7145"
         style="opacity:1;fill:#ffeb3b;fill-opacity:1;stroke:none;stroke-width:0.05069799;stroke-miterlimit:4;stroke-dasharray:none;stroke-opacity:1"
         inkscape:export-filename="/home/juergen/Schreibtisch/path4136.png"
         inkscape:export-xdpi="648"
         inkscape:export-ydpi="648" />
    </clipPath>
    <clipPath
       id="clipPath8148"
       clipPathUnits="userSpaceOnUse">
      <circle
         r="10"
         cy="10.000005"
         cx="9.9999781"
         id="circle8150"
         style="opacity:1;fill:#9c27b0;fill-opacity:1;stroke:none;stroke-width:0.05069799;stroke-miterlimit:4;stroke-dasharray:none;stroke-opacity:1"
         inkscape:export-filename="/home/juergen/Schreibtisch/path4136.png"
         inkscape:export-xdpi="648"
         inkscape:export-ydpi="648" />
    </clipPath>
    <clipPath
       clipPathUnits="userSpaceOnUse"
       id="clipPath5171">
      <circle
         r="10"
         cy="10.000005"
         cx="9.9999781"
         id="circle5173"
         style="opacity:1;fill:#f44336;fill-opacity:1;stroke:none;stroke-width:0.05069799;stroke-miterlimit:4;stroke-dasharray:none;stroke-opacity:1"
         inkscape:export-filename="/home/juergen/Schreibtisch/path4136.png"
         inkscape:export-xdpi="648"
         inkscape:export-ydpi="648" />
    </clipPath>
    <clipPath
       id="clipPath6181"
       clipPathUnits="userSpaceOnUse">
      <circle
         r="10"
         cy="10.000005"
         cx="9.9999781"
         id="circle6183"
         style="opacity:1;fill:#2196f3;fill-opacity:1;stroke:none;stroke-width:0.05069799;stroke-miterlimit:4;stroke-dasharray:none;stroke-opacity:1"
         inkscape:export-filename="/home/juergen/Schreibtisch/path4136.png"
         inkscape:export-xdpi="648"
         inkscape:export-ydpi="648" />
    </clipPath>
    <clipPath
       clipPathUnits="userSpaceOnUse"
       id="clipPath7195">
      <circle
         r="10"
         cy="10.000005"
         cx="9.9999781"
         id="circle7197"
         style="opacity:1;fill:#795548;fill-opacity:1;stroke:none;stroke-width:0.05069799;stroke-miterlimit:4;stroke-dasharray:none;stroke-opacity:1"
         inkscape:export-filename="/home/juergen/Schreibtisch/path4136.png"
         inkscape:export-xdpi="648"
         inkscape:export-ydpi="648" />
    </clipPath>
    <clipPath
       id="clipPath8213"
       clipPathUnits="userSpaceOnUse">
      <circle
         r="10"
         cy="10.000005"
         cx="9.9999781"
         id="circle8215"
         style="opacity:1;fill:#f44336;fill-opacity:1;stroke:none;stroke-width:0.05069799;stroke-miterlimit:4;stroke-dasharray:none;stroke-opacity:1"
         inkscape:export-filename="/home/juergen/Schreibtisch/path4136.png"
         inkscape:export-xdpi="648"
         inkscape:export-ydpi="648" />
    </clipPath>
    <linearGradient
       inkscape:collect="always"
       xlink:href="#linearGradient9225"
       id="linearGradient9231"
       x1="10"
       y1="10"
       x2="20"
       y2="20"
       gradientUnits="userSpaceOnUse" />
    <clipPath
       clipPathUnits="userSpaceOnUse"
       id="clipPath9235">
      <circle
         r="10"
         cy="10.000005"
         cx="9.9999781"
         id="circle9237"
         style="opacity:1;fill:#f44336;fill-opacity:1;stroke:none;stroke-width:0.05069799;stroke-miterlimit:4;stroke-dasharray:none;stroke-opacity:1"
         inkscape:export-filename="/home/juergen/Schreibtisch/path4136.png"
         inkscape:export-xdpi="648"
         inkscape:export-ydpi="648" />
    </clipPath>
  </defs>
  <metadata
     id="metadata7">
    <rdf:RDF>
      <cc:Work
         rdf:about="">
        <dc:format>image/svg+xml</dc:format>
        <dc:type
           rdf:resource="http://purl.org/dc/dcmitype/StillImage" />
        <dc:title />
      </cc:Work>
    </rdf:RDF>
  </metadata>
  <g
     inkscape:label="Hintergrund"
     inkscape:groupmode="layer"
     id="layer1"
     transform="translate(1058.1428,-861.93365)">
    <circle
       inkscape:export-ydpi="648"
       inkscape:export-xdpi="648"
       inkscape:export-filename="/home/juergen/Schreibtisch/path4136.png"
       style="opacity:1;fill:#009688;fill-opacity:1;stroke:none;stroke-width:0.05069799;stroke-miterlimit:4;stroke-dasharray:none;stroke-opacity:1"
       id="path4136"
       cx="-1048.1428"
       cy="871.93365"
       r="10" />
    <path
       style="fill:url(#linearGradient9231);fill-opacity:1;fill-rule:evenodd;stroke-linejoin:round"
       d="M 10.144531 5.2714844 C 7.3874516 5.2757387 5.1523438 7.5142953 5.1523438 10.273438 C 5.1523438 11.6919 5.7483749 12.965176 6.6972656 13.875 C 6.7436267 13.923338 6.7896363 13.971131 6.8378906 14.017578 C 6.8879808 14.069976 6.9379265 14.121691 6.9902344 14.171875 C 7.0381289 14.221782 7.0868064 14.27047 7.1367188 14.318359 C 7.1843609 14.367999 7.2335645 14.415247 7.2832031 14.462891 C 7.3302193 14.511861 7.3768213 14.560395 7.4257812 14.607422 C 7.4752871 14.659008 7.5264645 14.708383 7.578125 14.757812 C 7.6210756 14.802372 7.6644185 14.845728 7.7089844 14.888672 C 7.759439 14.941389 7.8105807 14.992497 7.8632812 15.042969 C 7.9055944 15.086867 7.9483063 15.129544 7.9921875 15.171875 C 8.0403571 15.222208 8.0884533 15.272024 8.1386719 15.320312 C 8.1850293 15.368565 8.2330042 15.414573 8.28125 15.460938 C 8.3267283 15.508247 8.3726271 15.554115 8.4199219 15.599609 C 8.4653621 15.646883 8.5113398 15.69282 8.5585938 15.738281 C 8.6062806 15.787892 8.6534422 15.837152 8.703125 15.884766 C 8.746113 15.929289 8.7913353 15.970765 8.8359375 16.013672 C 8.8808096 16.060303 8.926018 16.105525 8.9726562 16.150391 C 9.0152751 16.19468 9.0573492 16.238552 9.1015625 16.28125 C 9.1479151 16.329575 9.1939425 16.377393 9.2421875 16.423828 C 9.2880033 16.471409 9.3351578 16.51676 9.3828125 16.5625 C 9.4248787 16.606046 9.4681075 16.647454 9.5117188 16.689453 C 9.5553418 16.734737 9.5992409 16.778649 9.6445312 16.822266 C 9.6858998 16.865209 9.7266621 16.907773 9.7695312 16.949219 C 9.8146464 16.996206 9.8593441 17.042691 9.90625 17.087891 C 9.9491591 17.132407 9.9925881 17.175846 10.037109 17.21875 C 10.079761 17.262996 10.123724 17.305002 10.167969 17.347656 C 10.209993 17.391235 10.251352 17.434529 10.294922 17.476562 C 10.337538 17.520774 10.381575 17.562847 10.425781 17.605469 C 10.467807 17.649043 10.509163 17.692346 10.552734 17.734375 C 10.594395 17.777546 10.636509 17.819675 10.679688 17.861328 C 10.721038 17.904178 10.761841 17.946927 10.804688 17.988281 C 10.846048 18.031121 10.888784 18.071936 10.931641 18.113281 C 10.972081 18.155147 11.012819 18.195891 11.054688 18.236328 C 11.095749 18.278881 11.137151 18.320249 11.179688 18.361328 C 11.220128 18.403193 11.260865 18.443938 11.302734 18.484375 C 11.345085 18.528218 11.387724 18.571006 11.431641 18.613281 C 11.467643 18.650407 11.503885 18.686659 11.541016 18.722656 C 11.584573 18.767892 11.628607 18.811896 11.673828 18.855469 C 11.709535 18.892289 11.746386 18.927179 11.783203 18.962891 C 11.824534 19.005795 11.865374 19.048435 11.908203 19.089844 C 11.94927 19.132308 11.990666 19.173852 12.033203 19.214844 C 12.067947 19.250631 12.102879 19.285574 12.138672 19.320312 C 12.17971 19.362888 12.221158 19.404211 12.263672 19.445312 C 12.303525 19.486475 12.343529 19.526629 12.384766 19.566406 C 12.421133 19.603866 12.458578 19.639471 12.496094 19.675781 C 12.53177 19.712632 12.566729 19.749414 12.603516 19.785156 C 12.645208 19.828365 12.687256 19.87042 12.730469 19.912109 C 12.765872 19.948536 12.8014 19.984193 12.837891 20.019531 C 12.87289 20.055662 12.907292 20.091889 12.943359 20.126953 C 12.984051 20.169098 13.02622 20.209302 13.068359 20.25 C 13.101202 20.283792 13.13419 20.316753 13.167969 20.349609 C 13.208409 20.391475 13.249147 20.43222 13.291016 20.472656 C 13.323236 20.505772 13.355551 20.538097 13.388672 20.570312 C 13.428475 20.611514 13.468578 20.651589 13.509766 20.691406 C 13.541986 20.724522 13.574301 20.756847 13.607422 20.789062 C 13.646611 20.829583 13.686034 20.869023 13.726562 20.908203 C 13.757519 20.939985 13.788526 20.971001 13.820312 21.001953 C 13.859499 21.042476 13.898927 21.081911 13.939453 21.121094 C 13.97041 21.152876 14.001416 21.183892 14.033203 21.214844 C 14.071134 21.254026 14.109252 21.29215 14.148438 21.330078 C 14.181021 21.36353 14.214544 21.395202 14.248047 21.427734 C 14.282208 21.462904 14.316388 21.497094 14.351562 21.53125 C 14.385379 21.566065 14.418315 21.600944 14.453125 21.634766 C 14.486608 21.669217 14.520231 21.70285 14.554688 21.736328 C 14.585905 21.768449 14.616373 21.800756 14.648438 21.832031 C 14.683111 21.867825 14.718185 21.902753 14.753906 21.9375 C 14.787012 21.971564 14.819458 22.00595 14.853516 22.039062 C 14.888258 22.074787 14.925149 22.107902 14.960938 22.142578 C 14.989017 22.171344 15.01616 22.200431 15.044922 22.228516 C 15.079004 22.263662 15.113344 22.297895 15.148438 22.332031 C 15.180013 22.364483 15.2117 22.396147 15.244141 22.427734 C 15.275691 22.460161 15.30743 22.491873 15.339844 22.523438 C 15.37369 22.558224 15.40852 22.591207 15.443359 22.625 C 15.472442 22.654761 15.501437 22.683861 15.53125 22.712891 C 15.559939 22.742345 15.587785 22.772039 15.617188 22.800781 C 15.651925 22.836565 15.68687 22.871515 15.722656 22.90625 C 15.751057 22.935295 15.779497 22.963838 15.808594 22.992188 C 15.836306 23.020622 15.864201 23.048402 15.892578 23.076172 C 15.92665 23.111267 15.961013 23.145601 15.996094 23.179688 C 16.021926 23.206106 16.047811 23.23197 16.074219 23.257812 C 16.107669 23.29223 16.141359 23.325929 16.175781 23.359375 C 16.202913 23.387092 16.230047 23.414324 16.257812 23.441406 C 16.284899 23.469168 16.312123 23.49631 16.339844 23.523438 C 16.372059 23.55655 16.404384 23.588881 16.4375 23.621094 C 16.464335 23.648507 16.492076 23.674379 16.519531 23.701172 C 16.545686 23.727966 16.570909 23.755047 16.597656 23.78125 C 16.627584 23.812009 16.656795 23.843064 16.6875 23.873047 C 16.715239 23.901447 16.743081 23.929296 16.771484 23.957031 C 16.801153 23.987406 16.8309 24.017261 16.861328 24.046875 C 16.886554 24.072602 16.91368 24.095915 16.939453 24.121094 C 16.964339 24.146559 16.988251 24.172334 17.013672 24.197266 C 17.042361 24.22672 17.070206 24.256414 17.099609 24.285156 C 17.12608 24.312228 17.152613 24.338767 17.179688 24.365234 C 17.207763 24.393947 17.23687 24.421186 17.265625 24.449219 C 17.289917 24.47398 17.315045 24.49723 17.339844 24.521484 C 17.365731 24.547946 17.391503 24.573726 17.417969 24.599609 C 17.441584 24.623748 17.464185 24.648217 17.488281 24.671875 C 17.515697 24.69999 17.542245 24.728394 17.570312 24.755859 C 17.597444 24.783575 17.624578 24.810809 17.652344 24.837891 C 17.674974 24.860919 17.697634 24.883661 17.720703 24.90625 C 17.745223 24.931285 17.769884 24.955952 17.794922 24.980469 C 17.817514 25.003535 17.840249 25.026201 17.863281 25.048828 C 17.889093 25.075253 17.915019 25.101103 17.941406 25.126953 C 17.967268 25.153343 17.993094 25.179265 18.019531 25.205078 C 18.038953 25.224821 18.05838 25.244253 18.078125 25.263672 C 18.10359 25.289742 18.128271 25.316286 18.154297 25.341797 C 18.179176 25.367169 18.205057 25.391176 18.230469 25.416016 C 18.251525 25.43742 18.273485 25.457492 18.294922 25.478516 C 18.315306 25.499293 18.334727 25.520595 18.355469 25.541016 C 18.380016 25.566121 18.404619 25.590648 18.429688 25.615234 C 18.451998 25.637975 18.473356 25.661281 18.496094 25.683594 C 18.519701 25.707642 18.544274 25.730337 18.568359 25.753906 C 18.588139 25.77399 18.608792 25.792751 18.628906 25.8125 C 18.650291 25.834274 18.671582 25.855571 18.693359 25.876953 C 18.712467 25.896409 18.730578 25.916404 18.75 25.935547 C 18.772911 25.958952 18.794996 25.982906 18.818359 26.005859 C 18.839054 26.02692 18.859797 26.047667 18.880859 26.068359 C 18.901538 26.089402 18.922313 26.110184 18.943359 26.130859 C 18.963124 26.150951 18.983806 26.169696 19.003906 26.189453 C 19.024013 26.209904 19.044 26.229896 19.064453 26.25 C 19.084213 26.270097 19.102952 26.290785 19.123047 26.310547 C 19.14245 26.33027 19.161915 26.34974 19.181641 26.369141 C 19.202995 26.390847 19.224349 26.412278 19.246094 26.433594 C 19.262972 26.450684 19.281706 26.465575 19.298828 26.482422 C 19.31538 26.499239 19.330869 26.516621 19.347656 26.533203 C 19.370313 26.556298 19.392918 26.578909 19.416016 26.601562 C 19.432253 26.617996 19.448382 26.634183 19.464844 26.650391 C 19.480707 26.666498 19.495639 26.683326 19.511719 26.699219 C 19.531449 26.719318 19.552201 26.738047 19.572266 26.757812 C 19.58947 26.775273 19.605589 26.793339 19.623047 26.810547 C 19.642826 26.830631 19.663479 26.849392 19.683594 26.869141 C 19.698548 26.884259 19.713371 26.899135 19.728516 26.914062 C 19.743098 26.928853 19.75672 26.944375 19.771484 26.958984 C 19.792163 26.980027 19.812939 27.000809 19.833984 27.021484 C 19.848248 27.035896 19.862516 27.050215 19.876953 27.064453 C 19.890895 27.078586 19.905814 27.091502 19.919922 27.105469 C 19.937747 27.123598 19.954559 27.142299 19.972656 27.160156 C 19.988239 27.175944 20.003741 27.191451 20.019531 27.207031 C 20.034466 27.222163 20.049327 27.237012 20.064453 27.251953 C 20.079377 27.267074 20.09426 27.281945 20.109375 27.296875 C 20.124596 27.312297 20.138878 27.328526 20.154297 27.34375 C 20.168889 27.358526 20.184444 27.372125 20.199219 27.386719 C 20.213519 27.401192 20.227712 27.415389 20.242188 27.429688 C 20.258426 27.446122 20.274552 27.462307 20.291016 27.478516 C 20.302708 27.490303 20.314364 27.502001 20.326172 27.513672 C 20.337845 27.525478 20.349539 27.537138 20.361328 27.548828 C 20.37819 27.565931 20.395004 27.58275 20.412109 27.599609 C 20.423503 27.611095 20.435762 27.621437 20.447266 27.632812 C 20.457997 27.643661 20.467686 27.655265 20.478516 27.666016 C 20.493086 27.680794 20.506732 27.69634 20.521484 27.710938 C 20.533807 27.723388 20.546141 27.735725 20.558594 27.748047 C 20.572544 27.762142 20.587447 27.775134 20.601562 27.789062 C 20.611668 27.799239 20.622621 27.80827 20.632812 27.818359 C 20.642257 27.827897 20.650636 27.838195 20.660156 27.847656 C 20.675737 27.863443 20.691243 27.878952 20.707031 27.894531 C 20.716146 27.9037 20.72519 27.912777 20.734375 27.921875 C 20.743127 27.930708 20.750948 27.940451 20.759766 27.949219 C 20.772424 27.962037 20.786032 27.973647 20.798828 27.986328 C 20.809272 27.996863 20.819542 28.007136 20.830078 28.017578 C 20.842453 28.030061 20.854683 28.042335 20.867188 28.054688 C 20.875012 28.062549 20.882749 28.070315 20.890625 28.078125 C 20.898088 28.085649 20.904599 28.094086 20.912109 28.101562 C 20.923782 28.113369 20.935477 28.125028 20.947266 28.136719 C 20.955727 28.14524 20.964134 28.153649 20.972656 28.162109 C 20.984037 28.173583 20.996322 28.183949 21.007812 28.195312 C 21.012399 28.199917 21.01688 28.204398 21.021484 28.208984 C 21.034151 28.22179 21.04579 28.235378 21.058594 28.248047 C 21.062484 28.25195 21.066409 28.255875 21.070312 28.259766 C 21.080346 28.269903 21.08949 28.280964 21.099609 28.291016 C 21.109371 28.300841 21.121016 28.308615 21.130859 28.318359 C 21.136098 28.323611 21.141223 28.328756 21.146484 28.333984 C 21.153657 28.341199 21.160753 28.348298 21.167969 28.355469 C 21.17285 28.360379 21.176739 28.366204 21.181641 28.371094 C 21.190382 28.379916 21.198225 28.389681 21.207031 28.398438 C 21.214857 28.406305 21.226497 28.414059 21.234375 28.421875 C 21.234375 28.421875 21.234375 28.423828 21.234375 28.423828 C 21.234375 28.423828 21.236328 28.425781 21.236328 28.425781 C 21.237332 28.426775 21.239229 28.426741 21.240234 28.427734 C 21.248391 28.435962 21.255459 28.444954 21.263672 28.453125 C 21.27149 28.460981 21.279239 28.468758 21.287109 28.476562 C 21.287109 28.476562 21.289062 28.478516 21.289062 28.478516 C 21.291673 28.481101 21.294259 28.483748 21.296875 28.486328 C 21.30206 28.491535 21.307292 28.496769 21.3125 28.501953 C 21.315092 28.504557 21.317714 28.507168 21.320312 28.509766 C 21.320312 28.509766 21.322266 28.509766 21.322266 28.509766 C 21.329129 28.516681 21.334894 28.524375 21.341797 28.53125 C 21.348325 28.537802 21.354764 28.544265 21.361328 28.550781 C 21.367496 28.556992 21.372706 28.564134 21.378906 28.570312 C 21.382497 28.573914 21.387024 28.576487 21.390625 28.580078 C 21.395213 28.584678 21.401644 28.591121 21.40625 28.595703 C 21.412125 28.601606 21.419877 28.60936 21.425781 28.615234 C 21.425781 28.615234 21.427734 28.617188 21.427734 28.617188 C 21.429032 28.618488 21.430342 28.619795 21.431641 28.621094 C 21.43493 28.624395 21.438108 28.627567 21.441406 28.630859 C 21.441406 28.630859 21.441406 28.632812 21.441406 28.632812 C 21.441406 28.632812 21.443359 28.634766 21.443359 28.634766 C 21.444357 28.635763 21.446267 28.635722 21.447266 28.636719 C 21.448266 28.63772 21.448218 28.639624 21.449219 28.640625 C 21.450233 28.641636 21.45211 28.641568 21.453125 28.642578 C 21.453125 28.642578 21.455078 28.644531 21.455078 28.644531 C 21.455078 28.644531 21.455078 28.646484 21.455078 28.646484 C 21.456343 28.647751 21.457719 28.649125 21.458984 28.650391 C 21.459284 28.650691 21.460638 28.65009 21.460938 28.650391 C 21.460938 28.650391 21.462891 28.652344 21.462891 28.652344 C 21.46419 28.653646 21.465496 28.654949 21.466797 28.65625 C 21.466797 28.65625 21.466797 28.658203 21.466797 28.658203 C 21.644508 28.835888 21.838294 28.999008 22.041016 29.148438 C 22.042499 29.149527 22.043437 29.151255 22.044922 29.152344 C 22.044922 29.152344 22.046875 29.154297 22.046875 29.154297 C 22.046875 29.154297 22.048828 29.15625 22.048828 29.15625 C 22.049569 29.156793 22.05004 29.15766 22.050781 29.158203 C 22.256911 29.309273 22.474676 29.443952 22.703125 29.5625 C 22.800644 29.613105 22.906668 29.647169 23.007812 29.691406 C 23.144526 29.751117 23.277158 29.817721 23.419922 29.865234 C 23.419922 29.865234 23.421875 29.867188 23.421875 29.867188 C 23.485338 29.87883 23.537931 29.877693 23.582031 29.867188 C 23.713206 29.836915 23.763672 29.726336 23.763672 29.626953 C 23.763672 29.626681 23.763672 29.625274 23.763672 29.625 C 23.763672 29.5063 23.753906 29.192641 23.753906 28.775391 C 23.753906 28.775391 23.751953 28.775391 23.751953 28.775391 C 23.751953 28.775391 23.751953 28.773438 23.751953 28.773438 C 23.750538 28.773745 23.74946 28.773133 23.748047 28.773438 C 23.748047 28.773438 23.748047 28.771484 23.748047 28.771484 C 23.748047 28.771484 23.746094 28.771484 23.746094 28.771484 C 23.746093 28.769571 23.746094 28.769496 23.746094 28.767578 C 23.743971 28.768039 23.742352 28.767123 23.740234 28.767578 C 23.740234 28.765664 23.740234 28.76559 23.740234 28.763672 C 23.738812 28.763981 23.737748 28.763366 23.736328 28.763672 C 23.736327 28.760811 23.736328 28.760683 23.736328 28.757812 C 23.734197 28.758275 23.732595 28.757356 23.730469 28.757812 C 23.730468 28.754952 23.730469 28.754824 23.730469 28.751953 C 23.728338 28.752416 23.726735 28.751496 23.724609 28.751953 C 23.724608 28.749092 23.724609 28.748964 23.724609 28.746094 C 23.72178 28.746709 23.719618 28.745489 23.716797 28.746094 C 23.716796 28.743226 23.716797 28.743112 23.716797 28.740234 C 23.713953 28.740852 23.711819 28.739627 23.708984 28.740234 C 23.708983 28.736416 23.708984 28.736258 23.708984 28.732422 C 23.70614 28.73304 23.704007 28.731815 23.701172 28.732422 C 23.701169 28.727665 23.701172 28.727441 23.701172 28.722656 C 23.697547 28.723444 23.695016 28.723839 23.691406 28.724609 C 23.691403 28.718907 23.691406 28.718632 23.691406 28.712891 C 23.687766 28.713681 23.685266 28.71407 23.681641 28.714844 C 23.681637 28.709142 23.681641 28.708866 23.681641 28.703125 C 23.678001 28.703916 23.6755 28.704305 23.671875 28.705078 C 23.671871 28.699363 23.671875 28.699114 23.671875 28.693359 C 23.667543 28.694301 23.664467 28.694396 23.660156 28.695312 C 23.660151 28.688653 23.660156 28.688354 23.660156 28.681641 C 23.655116 28.682736 23.651496 28.682532 23.646484 28.683594 C 23.646479 28.676934 23.646484 28.676635 23.646484 28.669922 C 23.642133 28.670867 23.639096 28.670954 23.634766 28.671875 C 23.634759 28.664273 23.634766 28.663923 23.634766 28.65625 C 23.629726 28.657345 23.626105 28.657141 23.621094 28.658203 C 23.621087 28.650601 23.621094 28.650251 23.621094 28.642578 C 23.615346 28.643827 23.611179 28.643326 23.605469 28.644531 C 23.605462 28.636929 23.605469 28.636579 23.605469 28.628906 C 23.599695 28.630161 23.59558 28.629649 23.589844 28.630859 C 23.589835 28.622317 23.589844 28.621912 23.589844 28.613281 C 23.58407 28.614536 23.579955 28.614024 23.574219 28.615234 C 23.57421 28.606692 23.574219 28.606288 23.574219 28.597656 C 23.568445 28.598911 23.56433 28.598399 23.558594 28.599609 C 23.558583 28.590128 23.558594 28.589669 23.558594 28.580078 C 23.552139 28.581481 23.547423 28.580684 23.541016 28.582031 C 23.541005 28.572572 23.541016 28.572069 23.541016 28.5625 C 23.534561 28.563902 23.529845 28.563105 23.523438 28.564453 C 23.523427 28.554972 23.523438 28.554513 23.523438 28.544922 C 23.516271 28.546479 23.511015 28.545385 23.503906 28.546875 C 23.503894 28.536482 23.503906 28.535916 23.503906 28.525391 C 23.496744 28.526947 23.491479 28.525855 23.484375 28.527344 C 23.484363 28.516927 23.484375 28.516409 23.484375 28.505859 C 23.476505 28.507569 23.47069 28.506184 23.462891 28.507812 C 23.462878 28.497396 23.462891 28.496878 23.462891 28.486328 C 23.454984 28.488046 23.449242 28.486645 23.441406 28.488281 C 23.441391 28.476931 23.441406 28.476352 23.441406 28.464844 C 23.433499 28.466562 23.427758 28.465161 23.419922 28.466797 C 23.419907 28.455446 23.419922 28.454868 23.419922 28.443359 C 23.412015 28.445077 23.406274 28.443677 23.398438 28.445312 C 23.39842 28.433031 23.398438 28.43239 23.398438 28.419922 C 23.38986 28.421785 23.383494 28.420108 23.375 28.421875 C 23.374983 28.409593 23.375 28.408952 23.375 28.396484 C 23.365628 28.398521 23.358882 28.398469 23.349609 28.400391 C 23.349589 28.38718 23.349609 28.386474 23.349609 28.373047 C 23.340992 28.374919 23.334706 28.373225 23.326172 28.375 C 23.326152 28.361789 23.326172 28.361083 23.326172 28.347656 C 23.316092 28.349846 23.308793 28.349506 23.298828 28.351562 C 23.298805 28.337425 23.298828 28.336651 23.298828 28.322266 C 23.289414 28.324311 23.282752 28.324243 23.273438 28.326172 C 23.273412 28.311143 23.273438 28.310232 23.273438 28.294922 C 23.263358 28.297112 23.256059 28.296771 23.246094 28.298828 C 23.246068 28.2838 23.246094 28.282888 23.246094 28.267578 C 23.235973 28.269777 23.228755 28.26942 23.21875 28.271484 C 23.218724 28.256456 23.21875 28.255544 23.21875 28.240234 C 23.207963 28.242578 23.200109 28.241949 23.189453 28.244141 C 23.189424 28.228192 23.189453 28.227204 23.189453 28.210938 C 23.178622 28.213291 23.170855 28.212644 23.160156 28.214844 C 23.160127 28.198895 23.160156 28.197907 23.160156 28.181641 C 23.149325 28.183994 23.141558 28.183347 23.130859 28.185547 C 23.13083 28.169562 23.130859 28.168648 23.130859 28.152344 C 23.119365 28.154841 23.110955 28.153925 23.099609 28.15625 C 23.099584 28.143131 23.099615 28.142242 23.099609 28.128906 C 23.236502 28.141396 23.368907 28.124521 23.484375 28.097656 C 23.599319 28.070913 23.698306 28.033953 23.769531 28.001953 C 23.76963 28.001244 23.769432 28.000708 23.769531 28 C 23.802781 27.763501 23.888523 27.599708 23.984375 27.470703 C 24.000275 27.490277 24.015221 27.507783 24.039062 27.521484 C 24.055375 27.543313 24.070097 27.563005 24.095703 27.578125 C 24.112569 27.601132 24.127225 27.621075 24.154297 27.636719 C 24.170929 27.658844 24.184706 27.678201 24.210938 27.693359 C 24.227042 27.714469 24.240704 27.733331 24.265625 27.748047 C 24.281662 27.76938 24.29537 27.787823 24.320312 27.802734 C 24.336627 27.824437 24.349458 27.844345 24.375 27.859375 C 24.390581 27.879409 24.404113 27.897912 24.427734 27.912109 C 24.443162 27.931971 24.45715 27.948746 24.480469 27.962891 C 24.495764 27.982913 24.508037 28.001297 24.53125 28.015625 C 24.546581 28.035656 24.558764 28.054042 24.582031 28.068359 C 24.597487 28.088195 24.611421 28.105029 24.634766 28.119141 C 24.649236 28.137282 24.660474 28.154675 24.681641 28.167969 C 24.696771 28.187388 24.709739 28.204792 24.732422 28.21875 C 24.74651 28.236115 24.759001 28.250811 24.779297 28.263672 C 24.794069 28.282495 24.806225 28.298823 24.828125 28.3125 C 24.842102 28.330021 24.852834 28.346345 24.873047 28.359375 C 24.887276 28.377185 24.899237 28.393106 24.919922 28.40625 C 24.933667 28.423175 24.945204 28.438511 24.964844 28.451172 C 24.978089 28.467481 24.989102 28.481764 25.007812 28.494141 C 25.021715 28.511541 25.032676 28.528048 25.052734 28.541016 C 25.065399 28.556334 25.076205 28.570228 25.09375 28.582031 C 25.107257 28.598636 25.119488 28.612494 25.138672 28.625 C 25.151244 28.640109 25.16039 28.654347 25.177734 28.666016 C 25.191008 28.682334 25.20195 28.696612 25.220703 28.708984 C 25.232997 28.72348 25.243016 28.736778 25.259766 28.748047 C 25.272089 28.762821 25.281937 28.775623 25.298828 28.787109 C 25.311413 28.802197 25.320539 28.816479 25.337891 28.828125 C 25.34939 28.841444 25.359692 28.852718 25.375 28.863281 C 25.386793 28.8772 25.396218 28.889425 25.412109 28.900391 C 25.423549 28.91388 25.431977 28.926774 25.447266 28.9375 C 25.458641 28.950895 25.467248 28.963941 25.482422 28.974609 C 25.493857 28.987836 25.504337 28.999259 25.519531 29.009766 C 25.529755 29.021319 25.537643 29.031565 25.550781 29.041016 C 25.561989 29.054214 25.571044 29.065615 25.585938 29.076172 C 25.596997 29.088872 25.604598 29.101145 25.619141 29.111328 C 25.62904 29.122305 25.637821 29.131583 25.650391 29.140625 C 25.660601 29.152154 25.668526 29.162442 25.681641 29.171875 C 25.691471 29.182954 25.698424 29.193976 25.710938 29.203125 C 25.720496 29.213731 25.728187 29.223613 25.740234 29.232422 C 25.749793 29.243028 25.757483 29.25291 25.769531 29.261719 C 25.778895 29.272103 25.787078 29.280399 25.798828 29.289062 C 25.807717 29.298854 25.813199 29.308148 25.824219 29.316406 C 25.832878 29.326008 25.838914 29.335605 25.849609 29.34375 C 25.858569 29.353675 25.865813 29.362734 25.876953 29.371094 C 25.885445 29.380266 25.891952 29.388686 25.902344 29.396484 C 25.910356 29.405139 25.916079 29.412483 25.925781 29.419922 C 25.933737 29.428514 25.939598 29.435964 25.949219 29.443359 C 25.957174 29.451952 25.963036 29.459401 25.972656 29.466797 C 25.980305 29.475058 25.984954 29.483075 25.994141 29.490234 C 26.001381 29.497914 26.007036 29.505009 26.015625 29.511719 C 26.022551 29.519066 26.026996 29.526741 26.035156 29.533203 C 26.042399 29.540748 26.050027 29.546149 26.058594 29.552734 C 26.064431 29.558774 26.067532 29.564883 26.074219 29.570312 C 26.081459 29.577992 26.087114 29.585087 26.095703 29.591797 C 26.101524 29.597711 26.106632 29.602107 26.113281 29.607422 C 26.118743 29.613067 26.120748 29.619886 26.126953 29.625 C 26.132953 29.63125 26.137626 29.636977 26.144531 29.642578 C 26.149948 29.648079 26.154023 29.653219 26.160156 29.658203 C 26.165237 29.663362 26.168118 29.669121 26.173828 29.673828 C 26.178469 29.678456 26.182344 29.683244 26.1875 29.6875 C 26.192141 29.692128 26.196016 29.696915 26.201172 29.701172 C 26.20525 29.705238 26.208416 29.709109 26.212891 29.712891 C 26.216969 29.716957 26.220134 29.720828 26.224609 29.724609 C 26.229065 29.729052 26.233351 29.732227 26.238281 29.736328 C 26.241797 29.739746 26.244245 29.742882 26.248047 29.746094 C 26.251562 29.749512 26.25401 29.752648 26.257812 29.755859 C 26.260742 29.758707 26.262497 29.760967 26.265625 29.763672 C 26.268989 29.767002 26.269806 29.770299 26.273438 29.773438 C 26.276567 29.776479 26.277893 29.780325 26.28125 29.783203 C 26.28125 29.783203 26.283203 29.785156 26.283203 29.785156 C 26.2842 29.786066 26.286091 29.786215 26.287109 29.787109 C 26.289218 29.789123 26.290759 29.791028 26.292969 29.792969 C 26.294103 29.794051 26.295712 29.797766 26.296875 29.798828 C 26.298002 29.799904 26.299625 29.803632 26.300781 29.804688 C 26.300781 29.804688 26.302734 29.806641 26.302734 29.806641 C 26.302734 29.806641 26.304688 29.808594 26.304688 29.808594 C 26.304688 29.808594 26.306641 29.810547 26.306641 29.810547 C 26.306641 29.810547 26.308594 29.810547 26.308594 29.810547 C 26.308594 29.810547 26.308594 29.8125 26.308594 29.8125 C 26.308594 29.8125 26.310547 29.8125 26.310547 29.8125 C 26.310547 29.8125 26.310547 29.814453 26.310547 29.814453 C 26.310743 29.814634 26.312303 29.814273 26.3125 29.814453 C 26.319354 29.82033 26.330065 29.823005 26.337891 29.828125 C 26.39242 29.866381 26.468578 29.888648 26.580078 29.867188 C 27.07587 29.70175 27.536192 29.459036 27.949219 29.15625 C 27.949618 29.155957 27.950773 29.156543 27.951172 29.15625 C 28.364539 28.853005 28.728256 28.487751 29.03125 28.074219 C 29.182747 27.867452 29.318737 27.649133 29.4375 27.419922 C 29.675026 26.961499 29.843658 26.46129 29.929688 25.933594 C 29.972702 25.669745 29.996094 25.399087 29.996094 25.123047 C 29.996094 24.431659 29.855266 23.774678 29.601562 23.175781 C 29.475231 22.877562 29.321815 22.593415 29.142578 22.328125 C 29.142063 22.327363 29.14114 22.326933 29.140625 22.326172 C 29.140625 22.326172 29.138672 22.324219 29.138672 22.324219 C 29.138672 22.324219 29.136719 22.322266 29.136719 22.322266 C 29.135689 22.320742 29.133844 22.319882 29.132812 22.318359 C 29.063491 22.216242 28.974926 22.12973 28.898438 22.033203 C 28.86447 21.990386 28.830246 21.947912 28.794922 21.90625 C 28.705836 21.801064 28.628607 21.685348 28.53125 21.587891 C 28.530602 21.587243 28.529945 21.586585 28.529297 21.585938 C 28.529297 21.585938 28.529297 21.583984 28.529297 21.583984 C 28.528292 21.58298 28.526396 21.583035 28.525391 21.582031 C 28.525391 21.582031 28.523438 21.580078 28.523438 21.580078 C 28.523438 21.580078 28.521484 21.578125 28.521484 21.578125 C 28.521484 21.578125 28.519531 21.576172 28.519531 21.576172 C 28.519531 21.576172 28.517578 21.574219 28.517578 21.574219 C 28.517578 21.574219 28.515625 21.572266 28.515625 21.572266 C 28.515625 21.572266 28.513672 21.570312 28.513672 21.570312 C 28.513672 21.570312 28.511719 21.568359 28.511719 21.568359 C 28.511719 21.568359 28.509766 21.568359 28.509766 21.568359 C 28.508822 21.56742 28.508757 21.565392 28.507812 21.564453 C 28.506878 21.563507 28.504841 21.563445 28.503906 21.5625 C 28.502964 21.56156 28.502896 21.559533 28.501953 21.558594 C 28.500663 21.557292 28.499338 21.555987 28.498047 21.554688 C 28.49675 21.553393 28.495439 21.552074 28.494141 21.550781 C 28.492848 21.549483 28.491529 21.548172 28.490234 21.546875 C 28.488937 21.545581 28.487627 21.544262 28.486328 21.542969 C 28.485043 21.541663 28.483709 21.540366 28.482422 21.539062 C 28.481125 21.537768 28.479814 21.536449 28.478516 21.535156 C 28.476936 21.533559 28.474238 21.532845 28.472656 21.53125 C 28.471065 21.529663 28.470343 21.526975 28.46875 21.525391 C 28.467165 21.523797 28.464477 21.523075 28.462891 21.521484 C 28.461299 21.519898 28.460578 21.51721 28.458984 21.515625 C 28.457041 21.513681 28.455072 21.511706 28.453125 21.509766 C 28.451184 21.507819 28.449209 21.50585 28.447266 21.503906 C 28.440089 21.496686 28.431048 21.487645 28.423828 21.480469 C 28.423828 21.480469 28.421875 21.478516 28.421875 21.478516 C 28.415992 21.472597 28.410209 21.466827 28.404297 21.460938 C 28.39776 21.454375 28.389386 21.445979 28.382812 21.439453 C 28.380221 21.436861 28.377597 21.434227 28.375 21.431641 C 28.369825 21.426443 28.364573 21.421191 28.359375 21.416016 C 28.356789 21.413418 28.354154 21.410795 28.351562 21.408203 C 28.340524 21.397061 28.329502 21.386038 28.318359 21.375 C 28.31512 21.37176 28.311842 21.368465 28.308594 21.365234 C 28.302416 21.359023 28.295273 21.353835 28.289062 21.347656 C 28.284468 21.343039 28.280003 21.338584 28.275391 21.333984 C 28.264932 21.323434 28.254692 21.313192 28.244141 21.302734 C 28.238903 21.297482 28.233777 21.292339 28.228516 21.287109 C 28.221344 21.279894 28.214247 21.272797 28.207031 21.265625 C 28.201156 21.259714 28.195358 21.253928 28.189453 21.248047 C 28.180286 21.238799 28.171348 21.229879 28.162109 21.220703 C 28.152286 21.210815 28.142718 21.201213 28.132812 21.191406 C 28.126284 21.184853 28.119846 21.178392 28.113281 21.171875 C 28.104814 21.163348 28.096418 21.154951 28.087891 21.146484 C 28.07943 21.137964 28.071021 21.129553 28.0625 21.121094 C 28.053686 21.112217 28.044036 21.104514 28.035156 21.095703 C 28.025997 21.086473 28.017043 21.077518 28.007812 21.068359 C 27.998348 21.058822 27.990009 21.048524 27.980469 21.039062 C 27.970728 21.029242 27.960993 21.019506 27.951172 21.009766 C 27.942722 21.001246 27.934292 20.992834 27.925781 20.984375 C 27.912754 20.971204 27.899891 20.958339 27.886719 20.945312 C 27.877906 20.936446 27.868254 20.928722 27.859375 20.919922 C 27.848624 20.909076 27.838974 20.897467 27.828125 20.886719 C 27.8171 20.875591 27.806051 20.86454 27.794922 20.853516 C 27.783897 20.842388 27.772847 20.831337 27.761719 20.820312 C 27.75034 20.808828 27.738051 20.798484 27.726562 20.787109 C 27.714834 20.775265 27.703251 20.76368 27.691406 20.751953 C 27.679678 20.740109 27.668095 20.728524 27.65625 20.716797 C 27.644214 20.704641 27.633253 20.69172 27.621094 20.679688 C 27.608786 20.667251 27.596422 20.654886 27.583984 20.642578 C 27.571306 20.629767 27.557737 20.618143 27.544922 20.605469 C 27.531912 20.592315 27.519014 20.579416 27.505859 20.566406 C 27.492849 20.553252 27.479952 20.540353 27.466797 20.527344 C 27.453434 20.513833 27.439297 20.50164 27.425781 20.488281 C 27.412069 20.47441 27.398638 20.460977 27.384766 20.447266 C 27.372695 20.435054 27.361805 20.422243 27.349609 20.410156 C 27.332038 20.392322 27.31471 20.374992 27.296875 20.357422 C 27.284127 20.344561 27.270698 20.333035 27.257812 20.320312 C 27.243152 20.305466 27.229687 20.290054 27.214844 20.275391 C 27.2002 20.260569 27.184749 20.24706 27.169922 20.232422 C 27.154639 20.216944 27.140483 20.200825 27.125 20.185547 C 27.109699 20.170043 27.093626 20.155929 27.078125 20.140625 C 27.064108 20.126429 27.051294 20.111685 27.037109 20.097656 C 27.018261 20.078505 26.999621 20.059863 26.980469 20.041016 C 26.965817 20.026202 26.950382 20.012677 26.935547 19.998047 C 26.919276 19.981551 26.903216 19.965488 26.886719 19.949219 C 26.870146 19.932417 26.854698 19.915005 26.837891 19.898438 C 26.821042 19.881347 26.804201 19.864504 26.787109 19.847656 C 26.770261 19.830566 26.75342 19.813723 26.736328 19.796875 C 26.719103 19.779402 26.701072 19.763313 26.683594 19.746094 C 26.666046 19.728283 26.648671 19.710906 26.630859 19.693359 C 26.612996 19.675228 26.596262 19.65653 26.578125 19.638672 C 26.56 19.620267 26.541844 19.602108 26.523438 19.583984 C 26.505312 19.565579 26.487157 19.547421 26.46875 19.529297 C 26.450273 19.510534 26.430879 19.49308 26.412109 19.474609 C 26.393286 19.455483 26.374596 19.436791 26.355469 19.417969 C 26.338283 19.400506 26.322127 19.382444 26.304688 19.365234 C 26.282016 19.342123 26.259441 19.319545 26.236328 19.296875 C 26.220104 19.280436 26.203949 19.264261 26.1875 19.248047 C 26.164829 19.224935 26.142254 19.202357 26.119141 19.179688 C 26.100653 19.160935 26.08128 19.14346 26.0625 19.125 C 26.043687 19.105864 26.024976 19.087192 26.005859 19.068359 C 25.982491 19.044522 25.959385 19.021414 25.935547 18.998047 C 25.91636 18.978574 25.896454 18.960564 25.876953 18.941406 C 25.855838 18.919914 25.835951 18.898062 25.814453 18.876953 C 25.793082 18.855191 25.771763 18.83387 25.75 18.8125 C 25.728615 18.790724 25.707324 18.76943 25.685547 18.748047 C 25.663824 18.725927 25.641268 18.705308 25.619141 18.683594 C 25.597041 18.661077 25.575253 18.639285 25.552734 18.617188 C 25.530635 18.594671 25.508847 18.572879 25.486328 18.550781 C 25.46397 18.528001 25.442709 18.504773 25.419922 18.482422 C 25.397279 18.45934 25.374646 18.436704 25.351562 18.414062 C 25.330203 18.392289 25.308861 18.370991 25.287109 18.349609 C 25.262484 18.324435 25.238039 18.300042 25.212891 18.275391 C 25.187595 18.249588 25.162564 18.22447 25.136719 18.199219 C 25.116621 18.178775 25.096616 18.158769 25.076172 18.138672 C 25.050629 18.112532 25.026106 18.086124 25 18.060547 C 24.974421 18.034442 24.948017 18.009916 24.921875 17.984375 C 24.898868 17.960948 24.875024 17.938988 24.851562 17.916016 C 24.826955 17.890888 24.802473 17.866403 24.777344 17.841797 C 24.752446 17.816373 24.728556 17.790515 24.703125 17.765625 C 24.677908 17.739862 24.652718 17.714668 24.626953 17.689453 C 24.601736 17.66369 24.576546 17.638496 24.550781 17.613281 C 24.525249 17.587197 24.49875 17.562632 24.472656 17.537109 C 24.446744 17.51062 24.421023 17.484894 24.394531 17.458984 C 24.368639 17.432516 24.342876 17.40675 24.316406 17.380859 C 24.290225 17.354095 24.265054 17.326955 24.238281 17.300781 C 24.211833 17.273731 24.185255 17.24715 24.158203 17.220703 C 24.131367 17.193255 24.103629 17.167452 24.076172 17.140625 C 24.04903 17.112849 24.021918 17.085734 23.994141 17.058594 C 23.96828 17.032129 23.942454 17.006357 23.916016 16.980469 C 23.885615 16.94927 23.85542 16.919071 23.824219 16.888672 C 23.797978 16.861877 23.770974 16.836749 23.744141 16.810547 C 23.715977 16.781706 23.689005 16.752765 23.660156 16.724609 C 23.631749 16.695507 23.603323 16.667077 23.574219 16.638672 C 23.545812 16.60957 23.517385 16.581139 23.488281 16.552734 C 23.459524 16.523273 23.429862 16.495544 23.400391 16.466797 C 23.371624 16.437308 23.343936 16.40768 23.314453 16.378906 C 23.284783 16.348476 23.255041 16.318731 23.224609 16.289062 C 23.195545 16.259285 23.166513 16.230219 23.136719 16.201172 C 23.107048 16.170742 23.077307 16.140997 23.046875 16.111328 C 23.016836 16.080519 22.985898 16.051513 22.955078 16.021484 C 22.924716 15.990327 22.894441 15.960047 22.863281 15.929688 C 22.8329 15.898509 22.802665 15.86827 22.771484 15.837891 C 22.740833 15.806436 22.711152 15.774782 22.679688 15.744141 C 22.648755 15.712382 22.617699 15.681321 22.585938 15.650391 C 22.555005 15.618632 22.523949 15.587571 22.492188 15.556641 C 22.460862 15.524475 22.42866 15.494206 22.396484 15.462891 C 22.36647 15.432054 22.337437 15.40115 22.306641 15.371094 C 22.271197 15.334561 22.235754 15.299113 22.199219 15.263672 C 22.168892 15.232603 22.138543 15.202149 22.107422 15.171875 C 22.076507 15.140099 22.045416 15.109073 22.013672 15.078125 C 21.977878 15.041231 21.941204 15.006483 21.904297 14.970703 C 21.87326 14.938886 21.842416 14.907937 21.810547 14.876953 C 21.777329 14.842787 21.745112 14.808599 21.710938 14.775391 C 21.677485 14.740969 21.643799 14.707278 21.609375 14.673828 C 21.57619 14.639682 21.541953 14.607409 21.507812 14.574219 C 21.473671 14.539067 21.439451 14.504842 21.404297 14.470703 C 21.370133 14.435529 21.335958 14.401348 21.300781 14.367188 C 21.266618 14.332013 21.232443 14.297832 21.197266 14.263672 C 21.162775 14.22816 21.127321 14.194634 21.091797 14.160156 C 21.056967 14.124274 21.022212 14.089515 20.986328 14.054688 C 20.951209 14.018508 20.91705 13.982373 20.880859 13.947266 C 20.84541 13.910728 20.809979 13.875289 20.773438 13.839844 C 20.737988 13.803306 20.702557 13.767867 20.666016 13.732422 C 20.630268 13.695576 20.593499 13.660734 20.556641 13.625 C 20.520503 13.58773 20.48454 13.551759 20.447266 13.515625 C 20.411506 13.478745 20.376716 13.442018 20.339844 13.40625 C 20.30319 13.368429 20.266339 13.331573 20.228516 13.294922 C 20.191862 13.257101 20.155011 13.220245 20.117188 13.183594 C 20.080184 13.145412 20.042101 13.109255 20.003906 13.072266 C 19.966565 13.033713 19.92918 12.996323 19.890625 12.958984 C 19.853284 12.920431 19.815899 12.883042 19.777344 12.845703 C 19.739714 12.806853 19.702925 12.768086 19.664062 12.730469 C 19.626154 12.691311 19.587988 12.65314 19.548828 12.615234 C 19.512195 12.577393 19.475303 12.540578 19.4375 12.503906 C 19.396351 12.461281 19.355128 12.420052 19.3125 12.378906 C 19.275138 12.340394 19.237793 12.302923 19.199219 12.265625 C 19.160291 12.22537 19.120328 12.187371 19.080078 12.148438 C 19.041142 12.10819 19.003148 12.068222 18.962891 12.029297 C 18.923327 11.98838 18.882726 11.949707 18.841797 11.910156 C 18.803837 11.870879 18.76578 11.832942 18.726562 11.794922 C 18.683478 11.750215 18.640412 11.707144 18.595703 11.664062 C 18.55703 11.624134 18.518491 11.5855 18.478516 11.546875 C 18.438321 11.505285 18.397074 11.465961 18.355469 11.425781 C 18.316272 11.385199 18.278821 11.343928 18.238281 11.304688 C 18.194633 11.259374 18.150785 11.21552 18.105469 11.171875 C 18.065937 11.13104 18.025268 11.092207 17.984375 11.052734 C 17.94293 11.009804 17.900368 10.969164 17.857422 10.927734 C 17.817207 10.886053 17.777958 10.844956 17.736328 10.804688 C 17.691709 10.758337 17.647927 10.712574 17.601562 10.667969 C 17.560718 10.625732 17.518861 10.585703 17.476562 10.544922 C 17.434804 10.501664 17.392892 10.459702 17.349609 10.417969 C 17.308536 10.375376 17.267159 10.334086 17.224609 10.292969 C 17.17903 10.24557 17.133339 10.199873 17.085938 10.154297 C 17.044444 10.111361 17.00198 10.070729 16.958984 10.029297 C 16.915608 9.984285 16.873148 9.9398488 16.828125 9.8964844 C 16.784532 9.8512297 16.74057 9.807262 16.695312 9.7636719 C 16.651979 9.7186865 16.607478 9.6761533 16.5625 9.6328125 C 16.519843 9.5885035 16.477846 9.5446683 16.433594 9.5019531 C 16.388041 9.4545293 16.342299 9.408883 16.294922 9.3632812 C 16.248968 9.315545 16.2021 9.2704937 16.154297 9.2246094 C 16.110956 9.1796877 16.06842 9.135075 16.023438 9.0917969 C 15.978857 9.0454664 15.933042 9.0016191 15.886719 8.9570312 C 15.841546 8.9100569 15.796964 8.8635435 15.75 8.8183594 C 15.704751 8.7713292 15.658372 8.726875 15.611328 8.6816406 C 15.567049 8.6355936 15.522563 8.5912024 15.476562 8.546875 C 15.427526 8.4957385 15.379277 8.4455046 15.328125 8.3964844 C 15.283497 8.3502034 15.237776 8.3062557 15.191406 8.2617188 C 15.145222 8.2136902 15.098837 8.1672502 15.050781 8.1210938 C 15.005893 8.0743643 14.960722 8.0293357 14.914062 7.984375 C 14.864072 7.9321857 14.813911 7.8820188 14.761719 7.8320312 C 14.716142 7.7846886 14.670444 7.7388806 14.623047 7.6933594 C 14.575905 7.6442819 14.527609 7.5979062 14.478516 7.5507812 C 14.4324 7.5027455 14.387829 7.4543705 14.339844 7.4082031 C 14.288945 7.3550396 14.236776 7.3047859 14.183594 7.2539062 C 14.137384 7.2059038 14.091049 7.1594108 14.042969 7.1132812 C 13.994548 7.0628136 13.945014 7.0152022 13.894531 6.9667969 C 13.845844 6.9160272 13.796867 6.8670431 13.746094 6.8183594 C 12.838068 5.8714924 11.569121 5.2742124 10.154297 5.2714844 L 10.152344 5.2714844 L 10.144531 5.2714844 z M 23.068359 28.121094 C 23.071574 28.121487 23.074915 28.122686 23.078125 28.123047 C 23.074526 28.123798 23.071943 28.124266 23.068359 28.125 C 23.068356 28.123126 23.068363 28.122972 23.068359 28.121094 z "
       transform="translate(-1058.1428,861.93365)"
       id="path8359"
       clip-path="url(#clipPath9235)" />
  </g>
  <g
     style="display:inline"
     inkscape:groupmode="layer"
     id="layer2"
     inkscape:label="Icon">
    <path
       style="fill:#f5f5f5;fill-opacity:1;fill-rule:evenodd;stroke-linejoin:round"
       inkscape:connector-curvature="0"
       d="M 10.003353,5.1197466 C 7.2405804,5.1197466 5,7.3600068 5,10.12385 c 0,2.210578 1.4335752,4.086054 3.4219665,4.747811 0.2503878,0.04593 0.3415561,-0.108582 0.3415561,-0.241191 0,-0.118789 -0.010008,-0.433475 -0.010008,-0.851039 C 7.3617713,14.081808 7.068051,13.108668 7.068051,13.108668 6.8404804,12.530625 6.5123343,12.376709 6.5123343,12.376709 c -0.4542407,-0.310483 0.034026,-0.304178 0.034026,-0.304178 0.5022767,0.03533 0.7664748,0.515687 0.7664748,0.515687 0.4462347,0.764633 1.1711784,0.543868 1.4562922,0.415772 0.045034,-0.323403 0.1747311,-0.543868 0.3176383,-0.668962 -1.1111334,-0.126295 -2.2793095,-0.555567 -2.2793095,-2.4730247 0,-0.5462697 0.1950463,-0.9929447 0.5151864,-1.342737 -0.052039,-0.126585 -0.2233675,-0.6353365 0.049037,-1.3242532 0,0 0.4199149,-0.1345409 1.3758318,0.5129547 C 9.1465099,7.5969946 9.574731,7.5414829 10.00015,7.5395515 c 0.425219,0.002 0.85314,0.057443 1.25274,0.1684163 0.955316,-0.6474956 1.374631,-0.5129547 1.374631,-0.5129547 0.273104,0.6889167 0.101376,1.1976682 0.05004,1.3242532 0.320741,0.3497923 0.514286,0.7964673 0.514286,1.342737 0,1.9222617 -1.170078,2.3452287 -2.284514,2.4691217 0.179435,0.154466 0.339455,0.459855 0.339455,0.926655 0,0.668912 -0.01001,1.208617 -0.01001,1.37269 0,0.13381 0.09007,0.289477 0.344058,0.24059 C 13.567626,14.208103 15,12.333827 15,10.12385 15,7.3600068 12.75942,5.1197466 9.9957468,5.1197466 Z"
       id="path8286" />
    <path
       d="m 3.9999777,4.0333382 12.0000003,0 0,11.9333328 -12.0000003,0 z"
       id="path4"
       inkscape:connector-curvature="0"
       style="fill:none" />
    <path
       style="fill:none"
       inkscape:connector-curvature="0"
       id="path9754"
       d="m 18.999978,19.033339 12,0 0,11.933333 -12,0 z" />
  </g>
</svg>
