<?xml version="1.0" encoding="UTF-8" standalone="no"?>
<!-- Created with Inkscape (http://www.inkscape.org/) -->

<svg
   xmlns:dc="http://purl.org/dc/elements/1.1/"
   xmlns:cc="http://creativecommons.org/ns#"
   xmlns:rdf="http://www.w3.org/1999/02/22-rdf-syntax-ns#"
   xmlns:svg="http://www.w3.org/2000/svg"
   xmlns="http://www.w3.org/2000/svg"
   xmlns:xlink="http://www.w3.org/1999/xlink"
   xmlns:sodipodi="http://sodipodi.sourceforge.net/DTD/sodipodi-0.dtd"
   xmlns:inkscape="http://www.inkscape.org/namespaces/inkscape"
   width="5.6444445mm"
   height="5.6444445mm"
   viewBox="0 0 20 20"
   id="svg2"
   version="1.1"
   inkscape:version="0.91 r13725"
   sodipodi:docname="gOOGLE.svg"
   inkscape:export-filename="/home/juergen/Projekte/Android/Android_Studio/Baumann_Theme/theme/src/main/assets/icons/res/drawable-xxhdpi/a116.png"
   inkscape:export-xdpi="648"
   inkscape:export-ydpi="648">
  <sodipodi:namedview
     id="base"
     pagecolor="#ffffff"
     bordercolor="#666666"
     borderopacity="1.0"
     inkscape:pageopacity="0.0"
     inkscape:pageshadow="2"
     inkscape:zoom="11.2"
     inkscape:cx="10.949219"
     inkscape:cy="8.8479972"
     inkscape:document-units="px"
     inkscape:current-layer="layer2"
     showgrid="false"
     fit-margin-top="0"
     fit-margin-left="0"
     fit-margin-right="0"
     fit-margin-bottom="0"
     showguides="true"
     inkscape:guide-bbox="true"
     inkscape:window-width="1366"
     inkscape:window-height="744"
     inkscape:window-x="0"
     inkscape:window-y="24"
     inkscape:window-maximized="1"
     inkscape:snap-grids="true"
     inkscape:snap-to-guides="true">
    <inkscape:grid
       type="xygrid"
       id="grid4138" />
    <sodipodi:guide
       position="10,18"
       orientation="0,1"
       id="guide4140" />
    <sodipodi:guide
       position="10,2"
       orientation="0,1"
       id="guide4142" />
    <sodipodi:guide
       position="2,10"
       orientation="1,0"
       id="guide4144" />
    <sodipodi:guide
       position="0,0"
       orientation="0,20"
       id="guide4146" />
    <sodipodi:guide
       position="20,0"
       orientation="-20,0"
       id="guide4148" />
    <sodipodi:guide
       position="20,20"
       orientation="0,-20"
       id="guide4150" />
    <sodipodi:guide
       position="0,20"
       orientation="20,0"
       id="guide4152" />
    <sodipodi:guide
       position="18,10"
       orientation="1,0"
       id="guide4154" />
    <sodipodi:guide
       position="10,10"
       orientation="-0.70710678,0.70710678"
       id="guide4156" />
    <sodipodi:guide
       position="4,10"
       orientation="1,0"
       id="guide4160" />
    <sodipodi:guide
       position="16,10"
       orientation="1,0"
       id="guide4162" />
    <sodipodi:guide
       position="10,16"
       orientation="0,1"
       id="guide4164" />
    <sodipodi:guide
       position="10,4"
       orientation="0,1"
       id="guide4166" />
    <sodipodi:guide
       position="10,15"
       orientation="0,1"
       id="guide4168" />
    <sodipodi:guide
       position="10,5"
       orientation="0,1"
       id="guide4170" />
    <sodipodi:guide
       position="5,10"
       orientation="1,0"
       id="guide4172" />
    <sodipodi:guide
       position="15,10"
       orientation="1,0"
       id="guide4174" />
  </sodipodi:namedview>
  <defs
     id="defs4">
    <linearGradient
       inkscape:collect="always"
       id="linearGradient5148">
      <stop
         style="stop-color:#000000;stop-opacity:0.2"
         offset="0"
         id="stop5150" />
      <stop
         style="stop-color:#000000;stop-opacity:0;"
         offset="1"
         id="stop5152" />
    </linearGradient>
    <clipPath
       id="clipPath12478"
       clipPathUnits="userSpaceOnUse">
      <circle
         r="10"
         cy="10.000005"
         cx="9.9999781"
         id="circle12480"
         style="opacity:1;fill:#2196f3;fill-opacity:1;stroke:none;stroke-width:0.05069799;stroke-miterlimit:4;stroke-dasharray:none;stroke-opacity:1" />
    </clipPath>
    <clipPath
       clipPathUnits="userSpaceOnUse"
       id="clipPath5790">
      <circle
         r="10"
         cy="10.000005"
         cx="9.9999781"
         id="circle5792"
         style="opacity:1;fill:#2196f3;fill-opacity:1;stroke:none;stroke-width:0.05069799;stroke-miterlimit:4;stroke-dasharray:none;stroke-opacity:1"
         inkscape:export-filename="/home/juergen/path4136.png"
         inkscape:export-xdpi="648"
         inkscape:export-ydpi="648" />
    </clipPath>
    <clipPath
       id="clipPath5055"
       clipPathUnits="userSpaceOnUse">
      <circle
         r="10"
         cy="10.000005"
         cx="9.9999781"
         id="circle5057"
         style="opacity:1;fill:#2196f3;fill-opacity:1;stroke:none;stroke-width:0.05069799;stroke-miterlimit:4;stroke-dasharray:none;stroke-opacity:1"
         inkscape:export-filename="/home/juergen/path4136.png"
         inkscape:export-xdpi="648"
         inkscape:export-ydpi="648" />
    </clipPath>
    <clipPath
       clipPathUnits="userSpaceOnUse"
       id="clipPath5119">
      <circle
         r="10"
         cy="10.000005"
         cx="9.9999781"
         id="circle5121"
         style="opacity:1;fill:#2196f3;fill-opacity:1;stroke:none;stroke-width:0.05069799;stroke-miterlimit:4;stroke-dasharray:none;stroke-opacity:1"
         inkscape:export-filename="/home/juergen/Schreibtisch/path4136.png"
         inkscape:export-xdpi="648"
         inkscape:export-ydpi="648" />
    </clipPath>
    <clipPath
       id="clipPath5194"
       clipPathUnits="userSpaceOnUse">
      <circle
         r="10"
         cy="10.000005"
         cx="9.9999781"
         id="circle5196"
         style="opacity:1;fill:#cddc39;fill-opacity:1;stroke:none;stroke-width:0.05069799;stroke-miterlimit:4;stroke-dasharray:none;stroke-opacity:1"
         inkscape:export-filename="/home/juergen/Schreibtisch/path4136.png"
         inkscape:export-xdpi="648"
         inkscape:export-ydpi="648" />
    </clipPath>
    <clipPath
       clipPathUnits="userSpaceOnUse"
       id="clipPath6175">
      <circle
         r="10"
         cy="10.000005"
         cx="9.9999781"
         id="circle6177"
         style="opacity:1;fill:#f44336;fill-opacity:1;stroke:none;stroke-width:0.05069799;stroke-miterlimit:4;stroke-dasharray:none;stroke-opacity:1"
         inkscape:export-filename="/home/juergen/Schreibtisch/path4136.png"
         inkscape:export-xdpi="648"
         inkscape:export-ydpi="648" />
    </clipPath>
    <clipPath
       id="clipPath7176"
       clipPathUnits="userSpaceOnUse">
      <circle
         r="10"
         cy="10.000005"
         cx="9.9999781"
         id="circle7178"
         style="opacity:1;fill:#9c27b0;fill-opacity:1;stroke:none;stroke-width:0.05069799;stroke-miterlimit:4;stroke-dasharray:none;stroke-opacity:1"
         inkscape:export-filename="/home/juergen/Schreibtisch/path4136.png"
         inkscape:export-xdpi="648"
         inkscape:export-ydpi="648" />
    </clipPath>
    <clipPath
       clipPathUnits="userSpaceOnUse"
       id="clipPath8165">
      <circle
         r="10"
         cy="10.000005"
         cx="9.9999781"
         id="circle8167"
         style="opacity:1;fill:#ffc107;fill-opacity:1;stroke:none;stroke-width:0.05069799;stroke-miterlimit:4;stroke-dasharray:none;stroke-opacity:1"
         inkscape:export-filename="/home/juergen/Schreibtisch/path4136.png"
         inkscape:export-xdpi="648"
         inkscape:export-ydpi="648" />
    </clipPath>
    <clipPath
       id="clipPath9162"
       clipPathUnits="userSpaceOnUse">
      <circle
         r="10"
         cy="10.000005"
         cx="9.9999781"
         id="circle9164"
         style="opacity:1;fill:#ff9800;fill-opacity:1;stroke:none;stroke-width:0.05069799;stroke-miterlimit:4;stroke-dasharray:none;stroke-opacity:1"
         inkscape:export-filename="/home/juergen/Schreibtisch/path4136.png"
         inkscape:export-xdpi="648"
         inkscape:export-ydpi="648" />
    </clipPath>
    <clipPath
       clipPathUnits="userSpaceOnUse"
       id="clipPath10753">
      <circle
         r="10"
         cy="10.000005"
         cx="9.9999781"
         id="circle10755"
         style="opacity:1;fill:#607d8b;fill-opacity:1;stroke:none;stroke-width:0.05069799;stroke-miterlimit:4;stroke-dasharray:none;stroke-opacity:1"
         inkscape:export-filename="/home/juergen/Schreibtisch/path4136.png"
         inkscape:export-xdpi="648"
         inkscape:export-ydpi="648" />
    </clipPath>
    <clipPath
       id="clipPath11748"
       clipPathUnits="userSpaceOnUse">
      <circle
         r="10"
         cy="10.000005"
         cx="9.9999781"
         id="circle11750"
         style="opacity:1;fill:#f44336;fill-opacity:1;stroke:none;stroke-width:0.05069799;stroke-miterlimit:4;stroke-dasharray:none;stroke-opacity:1"
         inkscape:export-filename="/home/juergen/Schreibtisch/path4136.png"
         inkscape:export-xdpi="648"
         inkscape:export-ydpi="648" />
    </clipPath>
    <linearGradient
       inkscape:collect="always"
       xlink:href="#linearGradient5148"
       id="linearGradient5154"
       x1="10"
       y1="10"
       x2="20"
       y2="20"
       gradientUnits="userSpaceOnUse" />
    <clipPath
       clipPathUnits="userSpaceOnUse"
       id="clipPath5159">
      <circle
         r="10"
         cy="10.000005"
         cx="9.9999781"
         id="circle5161"
         style="opacity:1;fill:#f44336;fill-opacity:1;stroke:none;stroke-width:0.05069799;stroke-miterlimit:4;stroke-dasharray:none;stroke-opacity:1"
         inkscape:export-filename="/home/juergen/Schreibtisch/path4136.png"
         inkscape:export-xdpi="648"
         inkscape:export-ydpi="648" />
    </clipPath>
  </defs>
  <metadata
     id="metadata7">
    <rdf:RDF>
      <cc:Work
         rdf:about="">
        <dc:format>image/svg+xml</dc:format>
        <dc:type
           rdf:resource="http://purl.org/dc/dcmitype/StillImage" />
        <dc:title></dc:title>
      </cc:Work>
    </rdf:RDF>
  </metadata>
  <g
     inkscape:label="Hintergrund"
     inkscape:groupmode="layer"
     id="layer1"
     transform="translate(1058.1428,-861.93365)">
    <circle
       inkscape:export-ydpi="648"
       inkscape:export-xdpi="648"
       inkscape:export-filename="/home/juergen/Schreibtisch/path4136.png"
       style="opacity:1;fill:#f44336;fill-opacity:1;stroke:none;stroke-width:0.05069799;stroke-miterlimit:4;stroke-dasharray:none;stroke-opacity:1"
       id="path4136"
       cx="-1048.1428"
       cy="871.93365"
       r="10" />
  </g>
  <g
     style="display:inline"
     inkscape:groupmode="layer"
     id="layer2"
     inkscape:label="Icon">
    <path
       d="m 3.9999777,4.0333382 12.0000003,0 0,11.9333328 -12.0000003,0 z"
       id="path4"
       inkscape:connector-curvature="0"
       style="fill:none" />
    <path
       style="fill:none"
       inkscape:connector-curvature="0"
       id="path9754"
       d="m 18.999978,19.033339 12,0 0,11.933333 -12,0 z" />
    <path
       d="M 10.167969 5 C 9.8129688 5 9.4685351 5.0386719 9.1367188 5.109375 C 8.1407491 5.3215953 7.2638954 5.8330398 6.5859375 6.5273438 C 5.6828204 7.4522357 5.1328125 8.70051 5.1328125 10 C 5.1328125 10.284121 5.168004 10.566303 5.21875 10.845703 C 5.2243769 10.876684 5.2222859 10.908578 5.2285156 10.939453 C 5.2909318 11.249439 5.3850252 11.55545 5.5058594 11.849609 C 5.6262663 12.142295 5.7732271 12.423838 5.9472656 12.691406 C 5.9475818 12.691893 5.9469493 12.692873 5.9472656 12.693359 C 5.9472656 12.693359 5.9492188 12.695312 5.9492188 12.695312 C 5.9507078 12.697602 5.9535853 12.698885 5.9550781 12.701172 C 5.9613925 12.710828 5.970181 12.718898 5.9765625 12.728516 C 6.020392 12.794687 6.0780309 12.851784 6.125 12.916016 C 6.2583958 13.098121 6.3892204 13.283019 6.546875 13.447266 C 6.5472308 13.447637 6.5484722 13.450801 6.5488281 13.451172 C 6.5488281 13.451172 6.5507812 13.453125 6.5507812 13.453125 C 6.5507812 13.453125 6.5527344 13.455078 6.5527344 13.455078 C 6.5527344 13.455078 6.5546875 13.457031 6.5546875 13.457031 C 6.5546875 13.457031 6.5566406 13.458984 6.5566406 13.458984 C 6.5566406 13.458984 6.5585938 13.460938 6.5585938 13.460938 C 6.5585938 13.460938 6.5605469 13.462891 6.5605469 13.462891 C 6.5615338 13.463918 6.5634653 13.463817 6.5644531 13.464844 C 6.5657161 13.46616 6.5670949 13.467435 6.5683594 13.46875 C 6.5683594 13.46875 6.5703125 13.470703 6.5703125 13.470703 C 6.5703125 13.470703 6.5722656 13.472656 6.5722656 13.472656 C 6.5722656 13.472656 6.5742188 13.474609 6.5742188 13.474609 C 6.5742188 13.474609 6.5761719 13.476562 6.5761719 13.476562 C 6.5800381 13.480606 6.5840102 13.48425 6.5878906 13.488281 C 6.591748 13.492307 6.597691 13.497939 6.6015625 13.501953 C 6.6073186 13.507973 6.613353 13.513537 6.6191406 13.519531 C 6.6191406 13.519531 6.6210938 13.521484 6.6210938 13.521484 C 6.6274798 13.52817 6.6342001 13.534362 6.640625 13.541016 C 6.640625 13.541016 6.6425781 13.542969 6.6425781 13.542969 C 6.6502294 13.550988 6.6583085 13.558433 6.6660156 13.566406 C 6.6688815 13.569392 6.6729076 13.57124 6.6757812 13.574219 C 6.6757812 13.574219 6.6757812 13.576172 6.6757812 13.576172 C 6.6782977 13.578799 6.6810713 13.581362 6.6835938 13.583984 C 6.6899863 13.590684 6.6966935 13.596848 6.703125 13.603516 C 6.7082485 13.608874 6.7136016 13.613803 6.71875 13.619141 C 6.7257669 13.626479 6.7331707 13.633325 6.7402344 13.640625 C 6.7402344 13.640625 6.7421875 13.642578 6.7421875 13.642578 C 6.7456848 13.646222 6.7503974 13.64871 6.7539062 13.652344 C 6.7580639 13.656692 6.7614509 13.661681 6.765625 13.666016 C 6.7751606 13.676021 6.7852996 13.685379 6.7949219 13.695312 C 6.7949219 13.695312 6.796875 13.697266 6.796875 13.697266 C 6.8006639 13.701213 6.8047913 13.705048 6.8085938 13.708984 C 6.8133717 13.713984 6.8194191 13.717675 6.8242188 13.722656 C 6.8328535 13.731722 6.8409035 13.740994 6.8496094 13.75 C 6.8566252 13.757345 6.8640311 13.764178 6.8710938 13.771484 C 6.8800024 13.780812 6.8894534 13.789564 6.8984375 13.798828 C 6.904462 13.805118 6.9119099 13.810145 6.9179688 13.816406 C 6.9240167 13.822738 6.9294641 13.829634 6.9355469 13.835938 C 6.9450885 13.84596 6.9552152 13.855284 6.9648438 13.865234 C 6.9731202 13.873909 6.9818927 13.882005 6.9902344 13.890625 C 7.0007377 13.901634 7.0128291 13.910954 7.0234375 13.921875 C 7.0304494 13.9292 7.0378633 13.936073 7.0449219 13.943359 C 7.053836 13.952702 7.0632758 13.961423 7.0722656 13.970703 C 7.0799184 13.978724 7.0879946 13.986166 7.0957031 13.994141 C 7.108448 14.007536 7.1218656 14.019937 7.1347656 14.033203 C 7.1427572 14.041561 7.152104 14.048333 7.1601562 14.056641 C 7.1700484 14.067015 7.1794677 14.077594 7.1894531 14.087891 C 7.1996177 14.098556 7.21044 14.108557 7.2207031 14.119141 C 7.2296165 14.128493 7.2390577 14.137195 7.2480469 14.146484 C 7.2601628 14.159232 7.2728998 14.170962 7.2851562 14.183594 C 7.297902 14.196975 7.311318 14.209403 7.3242188 14.222656 C 7.3322107 14.231024 7.3415567 14.237777 7.3496094 14.246094 C 7.3627034 14.259879 7.3754137 14.27346 7.3886719 14.287109 C 7.4020464 14.301151 7.4161424 14.314225 7.4296875 14.328125 C 7.4398566 14.338772 7.4506701 14.34881 7.4609375 14.359375 C 7.4729992 14.372044 7.4858463 14.38393 7.4980469 14.396484 C 7.5085576 14.407525 7.5206337 14.416781 7.53125 14.427734 C 7.5455977 14.442856 7.5596737 14.457698 7.5742188 14.472656 C 7.5888488 14.488033 7.6043062 14.502372 7.6191406 14.517578 C 7.6290146 14.527927 7.6404238 14.536603 7.6503906 14.546875 C 7.6653658 14.562658 7.6801224 14.578145 7.6953125 14.59375 C 7.7102808 14.609482 7.7270053 14.623118 7.7421875 14.638672 C 7.7543057 14.651381 7.7670388 14.663189 7.7792969 14.675781 C 7.7920428 14.689192 7.805458 14.701562 7.8183594 14.714844 C 7.835831 14.733278 7.8533293 14.751341 7.8710938 14.769531 C 7.8841128 14.783191 7.8989288 14.795068 7.9121094 14.808594 C 7.9251362 14.8223 7.9379827 14.836038 7.9511719 14.849609 C 7.9692562 14.868699 7.9894142 14.885468 8.0078125 14.904297 C 8.0211882 14.91834 8.0352818 14.931411 8.0488281 14.945312 C 8.0646995 14.96203 8.0815437 14.977624 8.0976562 14.994141 C 8.1116582 15.008889 8.1264353 15.022517 8.140625 15.037109 C 8.159982 15.057555 8.1795018 15.07751 8.1992188 15.097656 C 8.2122361 15.111329 8.2270553 15.12318 8.2402344 15.136719 C 8.2583381 15.155841 8.2765033 15.174499 8.2949219 15.193359 C 8.3130237 15.212426 8.3331471 15.229241 8.3515625 15.248047 C 8.3668225 15.264086 8.3829552 15.279068 8.3984375 15.294922 C 8.4155773 15.312995 8.4337504 15.329817 8.4511719 15.347656 C 8.467053 15.364402 8.4838771 15.379939 8.5 15.396484 C 8.519352 15.416947 8.5388815 15.436868 8.5585938 15.457031 C 8.5779459 15.477437 8.5994296 15.495518 8.6191406 15.515625 C 8.634404 15.531684 8.6505295 15.546626 8.6660156 15.5625 C 8.6857048 15.583319 8.7065005 15.602538 8.7265625 15.623047 C 8.746889 15.644493 8.7683398 15.66443 8.7890625 15.685547 C 8.8062044 15.703583 8.8243741 15.720479 8.8417969 15.738281 C 8.8608098 15.758351 8.8810308 15.777093 8.9003906 15.796875 C 8.9197409 15.817301 8.9412279 15.835341 8.9609375 15.855469 C 8.9806395 15.876278 9.0014096 15.895516 9.0214844 15.916016 C 9.0411864 15.936825 9.0619565 15.956063 9.0820312 15.976562 C 9.1023547 15.998029 9.1238112 16.017926 9.1445312 16.039062 C 9.1648423 16.060515 9.1863241 16.080439 9.2070312 16.101562 C 9.2257641 16.121349 9.2446019 16.14065 9.2636719 16.160156 C 9.2858525 16.183661 9.3093762 16.205405 9.3320312 16.228516 C 9.3529623 16.250647 9.3751321 16.271187 9.3964844 16.292969 C 9.4180523 16.315774 9.4408755 16.336942 9.4628906 16.359375 C 9.4844479 16.382169 9.5072928 16.403359 9.5292969 16.425781 C 9.552733 16.450562 9.5775985 16.473706 9.6015625 16.498047 C 9.6202966 16.517801 9.6410858 16.535213 9.6601562 16.554688 C 9.6839329 16.579898 9.7080999 16.604149 9.7324219 16.628906 C 9.7562056 16.654055 9.7823133 16.676476 9.8066406 16.701172 C 9.8275788 16.723264 9.8497353 16.743883 9.8710938 16.765625 C 9.8926586 16.788452 9.9154874 16.809576 9.9375 16.832031 C 9.9637551 16.8599 9.9906574 16.886748 10.017578 16.914062 C 10.039146 16.93683 10.063923 16.95612 10.085938 16.978516 C 10.108456 17.002367 10.131289 17.025383 10.154297 17.048828 C 10.179652 17.075742 10.206446 17.100556 10.232422 17.126953 C 10.25842 17.15449 10.285851 17.180037 10.3125 17.207031 C 10.333457 17.229167 10.355574 17.2497 10.376953 17.271484 C 10.403198 17.299372 10.43012 17.326181 10.457031 17.353516 C 10.481702 17.379658 10.507946 17.404033 10.533203 17.429688 C 10.558222 17.4562 10.585706 17.479849 10.611328 17.505859 C 10.636679 17.532739 10.663482 17.557621 10.689453 17.583984 C 10.71668 17.612853 10.745496 17.639696 10.773438 17.667969 C 10.79785 17.693783 10.824624 17.716851 10.849609 17.742188 C 10.875609 17.769755 10.903036 17.79524 10.929688 17.822266 C 10.95568 17.849826 10.983122 17.875326 11.009766 17.902344 C 11.03667 17.930902 11.064193 17.958352 11.091797 17.986328 C 11.118069 18.014198 11.14689 18.039091 11.173828 18.066406 C 11.201061 18.095314 11.229863 18.122079 11.257812 18.150391 C 11.285029 18.179279 11.313865 18.206082 11.341797 18.234375 C 11.36778 18.261956 11.39524 18.287415 11.421875 18.314453 C 11.450676 18.345109 11.480161 18.374309 11.509766 18.404297 C 11.539806 18.436217 11.572604 18.4649 11.603516 18.496094 C 11.628273 18.522316 11.65434 18.546535 11.679688 18.572266 C 11.709708 18.604254 11.74059 18.634754 11.771484 18.666016 C 11.801827 18.698258 11.834002 18.728265 11.865234 18.759766 C 11.892744 18.788916 11.922934 18.815207 11.951172 18.84375 C 11.980278 18.874678 12.011091 18.903348 12.041016 18.933594 C 12.06851 18.962809 12.096775 18.990924 12.125 19.019531 C 12.15593 19.052506 12.188844 19.083032 12.220703 19.115234 C 12.252603 19.149168 12.287428 19.179778 12.320312 19.212891 C 12.346939 19.241122 12.375034 19.267259 12.402344 19.294922 C 12.434238 19.328945 12.467118 19.36133 12.5 19.394531 C 12.531915 19.428481 12.566709 19.459059 12.599609 19.492188 C 12.629054 19.523442 12.661125 19.551475 12.691406 19.582031 C 12.722399 19.61502 12.755187 19.645521 12.787109 19.677734 C 12.818409 19.711051 12.850564 19.742865 12.882812 19.775391 C 12.914728 19.809378 12.949519 19.839882 12.982422 19.873047 C 13.013732 19.906373 13.045866 19.938168 13.078125 19.970703 C 13.110032 20.004682 13.144842 20.035203 13.177734 20.068359 C 13.209961 20.102699 13.24411 20.134468 13.277344 20.167969 C 13.308344 20.201002 13.341115 20.231414 13.373047 20.263672 C 13.407472 20.300456 13.442938 20.335269 13.478516 20.371094 C 13.513237 20.408091 13.550048 20.442494 13.585938 20.478516 C 13.615669 20.510108 13.647148 20.539432 13.677734 20.570312 C 13.71241 20.607381 13.749311 20.64164 13.785156 20.677734 C 13.820485 20.71542 13.857991 20.750434 13.894531 20.787109 C 13.9255 20.820052 13.958338 20.850643 13.990234 20.882812 C 14.027417 20.922563 14.066941 20.959418 14.105469 20.998047 C 14.136774 21.031347 14.170872 21.06124 14.203125 21.09375 C 14.239383 21.132534 14.276915 21.169313 14.314453 21.207031 C 14.349159 21.244052 14.386 21.278407 14.421875 21.314453 C 14.456598 21.351493 14.493404 21.385811 14.529297 21.421875 C 14.56461 21.459585 14.602147 21.49455 14.638672 21.53125 C 14.675854 21.570955 14.715382 21.6079 14.753906 21.646484 C 14.786447 21.681137 14.821903 21.712296 14.855469 21.746094 C 14.894552 21.787946 14.93599 21.826576 14.976562 21.867188 C 15.010037 21.902856 15.045518 21.93594 15.080078 21.970703 C 15.117918 22.011224 15.15803 22.048533 15.197266 22.087891 C 15.235761 22.129024 15.276471 22.1671 15.316406 22.207031 C 15.3502 22.24304 15.385021 22.277414 15.419922 22.3125 C 15.458316 22.353634 15.499231 22.391704 15.539062 22.431641 C 15.577825 22.47308 15.619932 22.510562 15.660156 22.550781 C 15.696435 22.589481 15.735882 22.624475 15.773438 22.662109 C 15.809719 22.70092 15.847202 22.737648 15.884766 22.775391 C 15.926278 22.819939 15.970476 22.861152 16.013672 22.904297 C 16.050268 22.943336 16.089058 22.979624 16.126953 23.017578 C 16.164125 23.057361 16.203669 23.094151 16.242188 23.132812 C 16.283699 23.177361 16.327898 23.218574 16.371094 23.261719 C 16.407387 23.300476 16.446802 23.335356 16.484375 23.373047 C 16.526843 23.418649 16.571003 23.461728 16.615234 23.505859 C 16.653374 23.546587 16.694823 23.583499 16.734375 23.623047 C 16.774097 23.665582 16.816163 23.704842 16.857422 23.746094 C 16.897419 23.788925 16.938913 23.829563 16.980469 23.871094 C 17.02108 23.914602 17.065203 23.953927 17.107422 23.996094 C 17.146186 24.037603 17.186334 24.076899 17.226562 24.117188 C 17.269917 24.163763 17.316135 24.206911 17.361328 24.251953 C 17.399474 24.292733 17.440908 24.329542 17.480469 24.369141 C 17.524778 24.416771 17.570957 24.461785 17.617188 24.507812 C 17.657177 24.550562 17.700643 24.589409 17.742188 24.630859 C 17.783432 24.675073 17.828189 24.714984 17.871094 24.757812 C 17.913574 24.80338 17.957711 24.846528 18.001953 24.890625 C 18.043485 24.935146 18.087645 24.976415 18.130859 25.019531 C 18.171777 25.063443 18.215259 25.103936 18.257812 25.146484 C 18.302123 25.19417 18.348296 25.239075 18.394531 25.285156 C 18.437285 25.331037 18.482804 25.373578 18.527344 25.417969 C 18.571695 25.465565 18.619744 25.508696 18.666016 25.554688 C 18.708179 25.599838 18.75298 25.641843 18.796875 25.685547 C 18.839002 25.730757 18.883874 25.772642 18.927734 25.816406 C 18.972665 25.864759 19.019497 25.910329 19.066406 25.957031 C 19.110715 26.004633 19.158849 26.047751 19.205078 26.09375 C 19.250385 26.142402 19.29839 26.187399 19.345703 26.234375 C 19.388837 26.280616 19.43552 26.322463 19.480469 26.367188 C 19.525139 26.415209 19.572517 26.459468 19.619141 26.505859 C 19.664396 26.554509 19.712506 26.599508 19.759766 26.646484 C 19.804695 26.694782 19.851532 26.740461 19.898438 26.787109 C 19.94242 26.834413 19.989279 26.878104 20.035156 26.923828 C 20.083784 26.976271 20.13655 27.023715 20.1875 27.074219 C 20.230601 27.120452 20.275398 27.164265 20.320312 27.208984 C 20.369226 27.261735 20.421393 27.310539 20.472656 27.361328 C 20.517634 27.409598 20.566328 27.453382 20.613281 27.5 C 20.659763 27.55002 20.709214 27.596279 20.757812 27.644531 C 20.804906 27.695212 20.855031 27.74215 20.904297 27.791016 C 20.950779 27.841035 21.000229 27.887294 21.048828 27.935547 C 21.094983 27.985271 21.143161 28.032097 21.191406 28.080078 C 21.24032 28.132889 21.292483 28.181575 21.34375 28.232422 C 22.243171 29.201353 23.537796 29.851562 25.09375 29.851562 C 27.76875 29.851562 29.71875 28.016641 29.71875 25.306641 C 29.71875 24.731641 29.644531 24.400391 29.644531 24.400391 L 29.519531 24.400391 C 29.509582 24.339474 29.496094 24.253906 29.496094 24.253906 L 29.371094 24.253906 C 29.360944 24.191429 29.347656 24.105469 29.347656 24.105469 L 29.224609 24.105469 C 29.21466 24.044552 29.201172 23.958984 29.201172 23.958984 L 29.078125 23.958984 C 29.068319 23.899169 29.054688 23.8125 29.054688 23.8125 L 28.933594 23.8125 C 28.923845 23.753126 28.910156 23.667969 28.910156 23.667969 L 28.789062 23.667969 C 28.779314 23.608595 28.765625 23.523438 28.765625 23.523438 L 28.646484 23.523438 C 28.636857 23.464991 28.623047 23.378906 28.623047 23.378906 L 28.501953 23.378906 C 28.492543 23.322099 28.478516 23.236328 28.478516 23.236328 L 28.359375 23.236328 C 28.349977 23.179614 28.337891 23.09375 28.337891 23.09375 L 28.216797 23.09375 C 28.207479 23.037638 28.195312 22.953125 28.195312 22.953125 L 28.076172 22.953125 C 28.066854 22.897013 28.054688 22.8125 28.054688 22.8125 L 27.9375 22.8125 C 27.928287 22.757168 27.914062 22.671875 27.914062 22.671875 L 27.796875 22.671875 C 27.787756 22.617245 27.775391 22.533203 27.775391 22.533203 L 27.658203 22.533203 C 27.649084 22.478573 27.636719 22.394531 27.636719 22.394531 L 27.521484 22.394531 C 27.512564 22.341365 27.5 22.257812 27.5 22.257812 L 27.384766 22.257812 C 27.375762 22.204037 27.363281 22.119141 27.363281 22.119141 L 27.248047 22.119141 C 27.239324 22.067418 27.226562 21.984375 27.226562 21.984375 L 27.111328 21.984375 C 27.103539 21.938108 27.092998 21.86872 27.091797 21.863281 C 27.346323 22.043546 27.519531 22.201172 27.519531 22.201172 L 28.46875 21.210938 C 28.46875 21.210938 28.384972 21.13087 28.316406 21.066406 L 28.320312 21.0625 C 28.320312 21.0625 28.23732 20.983391 28.169922 20.919922 L 28.173828 20.916016 C 28.173828 20.916016 28.090225 20.836385 28.023438 20.773438 L 28.027344 20.769531 C 28.027344 20.769531 27.94374 20.6899 27.876953 20.626953 L 27.880859 20.623047 C 27.880859 20.623047 27.796403 20.544639 27.730469 20.482422 L 27.734375 20.478516 C 27.734375 20.478516 27.65177 20.400298 27.587891 20.339844 L 27.591797 20.333984 C 27.591797 20.333984 27.508392 20.254804 27.443359 20.193359 L 27.447266 20.189453 C 27.447266 20.189453 27.364661 20.111235 27.300781 20.050781 L 27.304688 20.046875 C 27.304688 20.046875 27.221503 19.968158 27.158203 19.908203 L 27.162109 19.904297 C 27.162109 19.904297 27.079733 19.826545 27.017578 19.767578 L 27.021484 19.763672 C 27.021484 19.763672 26.938544 19.685433 26.876953 19.626953 L 26.880859 19.623047 C 26.880859 19.623047 26.797919 19.544808 26.736328 19.486328 L 26.740234 19.482422 C 26.740234 19.482422 26.657561 19.404675 26.597656 19.347656 L 26.601562 19.34375 C 26.601562 19.34375 26.51889 19.266003 26.458984 19.208984 L 26.462891 19.205078 C 26.462891 19.205078 26.380218 19.127331 26.320312 19.070312 L 26.324219 19.066406 C 26.324219 19.066406 26.242369 18.989629 26.183594 18.933594 L 26.1875 18.929688 C 26.1875 18.929688 26.10565 18.85291 26.046875 18.796875 L 26.050781 18.792969 C 26.050781 18.792969 25.969724 18.717132 25.912109 18.662109 L 25.916016 18.658203 C 25.916016 18.658203 25.833946 18.581482 25.777344 18.527344 L 25.78125 18.523438 C 25.78125 18.523438 25.699181 18.446716 25.642578 18.392578 L 25.646484 18.388672 C 25.646484 18.388672 25.565735 18.313348 25.509766 18.259766 L 25.513672 18.255859 C 25.513672 18.255859 25.432441 18.180114 25.376953 18.126953 L 25.380859 18.123047 C 25.380859 18.123047 25.299974 18.047839 25.246094 17.996094 L 25.25 17.992188 C 25.25 17.992188 25.168627 17.91655 25.115234 17.865234 L 25.119141 17.861328 C 25.119141 17.861328 25.037767 17.785691 24.984375 17.734375 L 24.988281 17.730469 C 24.988281 17.730469 24.906144 17.656109 24.853516 17.605469 L 24.857422 17.601562 C 24.857422 17.601562 24.776904 17.526908 24.724609 17.476562 L 24.728516 17.472656 C 24.728516 17.472656 24.649147 17.397289 24.597656 17.347656 L 24.601562 17.34375 C 24.601562 17.34375 24.520978 17.269255 24.470703 17.220703 L 24.474609 17.216797 C 24.474609 17.216797 24.394025 17.142302 24.34375 17.09375 L 24.347656 17.089844 C 24.347656 17.089844 24.267501 17.015943 24.21875 16.96875 L 24.220703 16.964844 C 24.220703 16.964844 24.140992 16.891341 24.091797 16.84375 L 24.095703 16.839844 C 24.095703 16.839844 24.017165 16.765643 23.96875 16.71875 L 23.972656 16.714844 C 23.972656 16.714844 23.892953 16.641553 23.845703 16.595703 L 23.847656 16.591797 C 23.847656 16.591797 23.768384 16.518892 23.720703 16.472656 L 23.724609 16.46875 C 23.724609 16.46875 23.646521 16.395156 23.599609 16.349609 L 23.603516 16.345703 C 23.603516 16.345703 23.524287 16.273038 23.478516 16.228516 L 23.482422 16.224609 C 23.482422 16.224609 23.403194 16.151944 23.357422 16.107422 L 23.361328 16.103516 C 23.361328 16.103516 23.283002 16.031856 23.238281 15.988281 L 23.242188 15.984375 C 23.242188 15.984375 23.163458 15.91235 23.119141 15.869141 L 23.123047 15.865234 C 23.123047 15.865234 23.044317 15.79321 23 15.75 L 23.003906 15.746094 C 23.003906 15.746094 22.925698 15.674726 22.882812 15.632812 L 22.886719 15.628906 C 22.886719 15.628906 22.808511 15.557538 22.765625 15.515625 L 22.769531 15.511719 C 22.769531 15.511719 22.691323 15.440351 22.648438 15.398438 L 22.652344 15.394531 C 22.652344 15.394531 22.575423 15.324512 22.533203 15.283203 L 22.537109 15.279297 C 22.537109 15.279297 22.461412 15.208613 22.419922 15.167969 L 22.421875 15.166016 C 22.421875 15.166016 22.345822 15.095008 22.304688 15.054688 L 22.308594 15.050781 C 22.308594 15.050781 22.231864 14.981109 22.191406 14.941406 L 22.195312 14.9375 C 22.195312 14.9375 22.120418 14.867884 22.082031 14.830078 L 22.083984 14.826172 C 22.083984 14.826172 22.00689 14.756166 21.966797 14.716797 L 21.970703 14.712891 C 21.970703 14.712891 21.896141 14.643579 21.857422 14.605469 L 21.859375 14.603516 C 21.859375 14.603516 21.784481 14.5339 21.746094 14.496094 L 21.75 14.492188 C 21.75 14.492188 21.67572 14.423292 21.638672 14.386719 L 21.640625 14.382812 C 21.640625 14.382812 21.564737 14.314235 21.527344 14.277344 L 21.53125 14.273438 C 21.53125 14.273438 21.456646 14.206196 21.419922 14.169922 L 21.423828 14.166016 C 21.423828 14.166016 21.348578 14.098177 21.3125 14.0625 L 21.316406 14.058594 C 21.316406 14.058594 21.242765 13.990436 21.207031 13.955078 L 21.208984 13.953125 C 21.208984 13.953125 21.135343 13.884967 21.099609 13.849609 L 21.103516 13.845703 C 21.103516 13.845703 21.030834 13.778578 20.996094 13.744141 L 20.998047 13.742188 C 20.998047 13.742188 20.925067 13.674785 20.890625 13.640625 L 20.894531 13.636719 C 20.894531 13.636719 20.82285 13.568708 20.789062 13.535156 L 20.791016 13.533203 C 20.791016 13.533203 20.719335 13.465192 20.685547 13.431641 L 20.6875 13.429688 C 20.6875 13.429688 20.614881 13.364709 20.582031 13.332031 L 20.585938 13.328125 C 20.585938 13.328125 20.514953 13.260895 20.482422 13.228516 L 20.484375 13.226562 C 20.484375 13.226562 20.412466 13.162373 20.380859 13.130859 L 20.384766 13.126953 C 20.384766 13.126953 20.312889 13.060841 20.28125 13.029297 L 20.283203 13.027344 C 20.283203 13.027344 20.212349 12.962311 20.181641 12.931641 L 20.185547 12.927734 C 20.185547 12.927734 20.114414 12.86244 20.083984 12.832031 L 20.085938 12.830078 C 20.085938 12.830078 20.016418 12.764464 19.986328 12.734375 L 19.988281 12.732422 C 19.988281 12.732422 19.918182 12.668215 19.888672 12.638672 L 19.892578 12.634766 C 19.892578 12.634766 19.823002 12.571159 19.794922 12.542969 L 19.796875 12.539062 C 19.796875 12.539062 19.727299 12.475456 19.699219 12.447266 L 19.701172 12.443359 C 19.701172 12.443359 19.631596 12.379753 19.603516 12.351562 L 19.605469 12.347656 C 19.605469 12.347656 19.537189 12.285379 19.509766 12.257812 L 19.511719 12.253906 C 19.511719 12.253906 19.443202 12.191404 19.416016 12.164062 L 19.417969 12.162109 C 19.417969 12.162109 19.349452 12.099608 19.322266 12.072266 L 19.326172 12.068359 C 19.326172 12.068359 19.259027 12.005304 19.232422 11.978516 L 19.234375 11.976562 C 19.234375 11.976562 19.168069 11.914398 19.142578 11.888672 L 19.144531 11.886719 C 19.144531 11.886719 19.077143 11.823432 19.050781 11.796875 L 19.052734 11.794922 C 19.052734 11.794922 18.9875 11.733867 18.962891 11.708984 L 18.964844 11.707031 C 18.964844 11.707031 18.898304 11.644644 18.873047 11.619141 L 18.875 11.617188 C 18.875 11.617188 18.809556 11.555931 18.785156 11.53125 L 18.787109 11.529297 C 18.787109 11.529297 18.721143 11.469492 18.697266 11.445312 L 18.699219 11.443359 C 18.699219 11.443359 18.633252 11.383555 18.609375 11.359375 L 18.613281 11.355469 C 18.613281 11.355469 18.548723 11.29514 18.525391 11.271484 L 18.527344 11.269531 C 18.527344 11.269531 18.463887 11.210335 18.441406 11.1875 L 18.443359 11.185547 C 18.443359 11.185547 18.378084 11.12648 18.355469 11.103516 L 18.357422 11.101562 C 18.357422 11.101562 18.293274 11.043651 18.271484 11.021484 L 18.275391 11.017578 C 18.275391 11.017578 18.211538 10.957999 18.189453 10.935547 L 18.191406 10.933594 C 18.191406 10.933594 18.128874 10.875355 18.107422 10.853516 L 18.109375 10.851562 C 18.109375 10.851562 18.047792 10.794302 18.027344 10.773438 L 18.029297 10.771484 C 18.029297 10.771484 17.965906 10.714366 17.945312 10.693359 L 17.947266 10.691406 C 17.947266 10.691406 17.885031 10.635465 17.865234 10.615234 L 17.869141 10.611328 C 17.869141 10.611328 17.807197 10.553717 17.787109 10.533203 L 17.789062 10.53125 C 17.789062 10.53125 17.728285 10.474824 17.708984 10.455078 L 17.710938 10.453125 C 17.710938 10.453125 17.65016 10.396699 17.630859 10.376953 L 17.632812 10.375 C 17.632812 10.375 17.573198 10.319754 17.554688 10.300781 L 17.556641 10.298828 C 17.556641 10.298828 17.4967 10.243263 17.478516 10.224609 L 17.480469 10.222656 C 17.480469 10.222656 17.420528 10.167091 17.402344 10.148438 L 17.404297 10.146484 C 17.404297 10.146484 17.345702 10.092276 17.328125 10.074219 L 17.330078 10.072266 C 17.330078 10.072266 17.271333 10.017909 17.253906 10 L 17.255859 9.9980469 C 17.255859 9.9980469 17.198309 9.9448968 17.181641 9.9277344 L 17.183594 9.9257812 C 17.183594 9.9257812 17.12575 9.8723413 17.109375 9.8554688 L 17.111328 9.8535156 C 17.111328 9.8535156 17.053484 9.8000756 17.037109 9.7832031 L 17.039062 9.78125 C 17.039062 9.78125 16.982444 9.7290438 16.966797 9.7128906 L 16.96875 9.7109375 C 16.96875 9.7109375 16.91199 9.6585903 16.896484 9.6425781 L 16.898438 9.640625 C 16.898438 9.640625 16.841677 9.5882778 16.826172 9.5722656 L 16.828125 9.5703125 C 16.828125 9.5703125 16.772735 9.5193399 16.757812 9.5039062 L 16.759766 9.5019531 C 16.759766 9.5019531 16.704247 9.4508528 16.689453 9.4355469 L 16.691406 9.4335938 C 16.691406 9.4335938 16.637132 9.3837411 16.623047 9.3691406 L 16.625 9.3671875 C 16.625 9.3671875 16.570478 9.3170872 16.556641 9.3027344 L 16.558594 9.3007812 C 16.558594 9.3007812 16.504071 9.250681 16.490234 9.2363281 L 16.492188 9.234375 C 16.492188 9.234375 16.439053 9.1856634 16.425781 9.171875 L 16.427734 9.1699219 C 16.427734 9.1699219 16.374486 9.1210957 16.361328 9.1074219 L 16.363281 9.1054688 C 16.363281 9.1054688 16.311204 9.0578111 16.298828 9.0449219 L 16.300781 9.0429688 C 16.300781 9.0429688 16.248591 8.9951984 16.236328 8.9824219 L 16.236328 8.9804688 C 16.236328 8.9804688 16.185811 8.9324166 16.173828 8.9199219 L 16.175781 8.9179688 C 16.175781 8.9179688 16.125154 8.8698056 16.113281 8.8574219 C 16.113281 8.8574219 16.062398 8.8109541 16.050781 8.7988281 L 16.052734 8.796875 C 16.052734 8.796875 16.003424 8.7500237 15.992188 8.7382812 L 15.994141 8.7363281 C 15.994141 8.7363281 15.944377 8.690972 15.933594 8.6796875 L 15.935547 8.6777344 C 15.935547 8.6777344 15.885784 8.6323782 15.875 8.6210938 L 15.876953 8.6191406 C 15.876953 8.6191406 15.82719 8.5737845 15.816406 8.5625 L 15.818359 8.5605469 C 15.818359 8.5605469 15.770026 8.5166136 15.759766 8.5058594 L 15.761719 8.5039062 C 15.761719 8.5039062 15.714978 8.4596071 15.705078 8.4492188 C 15.705078 8.4492188 15.658253 8.4048339 15.648438 8.3945312 L 15.650391 8.3925781 C 15.650391 8.3925781 15.603234 8.3498093 15.59375 8.3398438 L 15.595703 8.3378906 C 15.595703 8.3378906 15.549915 8.2964776 15.541016 8.2871094 L 15.542969 8.2851562 C 15.542969 8.2851562 15.497338 8.2419517 15.488281 8.2324219 C 15.488281 8.2324219 15.444037 8.1905911 15.435547 8.1816406 L 15.4375 8.1796875 C 15.4375 8.1796875 15.391554 8.138114 15.382812 8.1289062 L 15.384766 8.1269531 C 15.384766 8.1269531 15.340285 8.0868336 15.332031 8.078125 L 15.333984 8.0761719 C 15.333984 8.0761719 15.291134 8.035721 15.283203 8.0273438 C 15.283203 8.0273438 15.240285 7.9868233 15.232422 7.9785156 L 15.234375 7.9765625 C 15.234375 7.9765625 15.191227 7.937759 15.183594 7.9296875 L 15.185547 7.9277344 C 15.185547 7.9277344 15.143756 7.8902696 15.136719 7.8828125 L 15.138672 7.8808594 C 15.138672 7.8808594 15.096757 7.8432664 15.089844 7.8359375 L 15.091797 7.8339844 C 15.091797 7.8339844 15.049882 7.7963914 15.042969 7.7890625 L 15.044922 7.7871094 C 15.044922 7.7871094 15.004398 7.7508881 14.998047 7.7441406 L 15 7.7421875 C 15 7.7421875 14.959745 7.7042919 14.953125 7.6972656 C 14.953125 7.6972656 14.91433 7.6608116 14.908203 7.6542969 L 14.910156 7.6523438 C 14.910156 7.6523438 14.871047 7.6175168 14.865234 7.6113281 L 14.867188 7.609375 C 14.867188 7.609375 14.828078 7.5745481 14.822266 7.5683594 L 14.824219 7.5664062 C 14.824219 7.5664062 14.785109 7.5315793 14.779297 7.5253906 L 14.78125 7.5234375 C 14.78125 7.5234375 14.743674 7.4901271 14.738281 7.484375 L 14.740234 7.4824219 C 14.740234 7.4824219 14.704351 7.4488394 14.699219 7.4433594 C 14.699219 7.4433594 14.663291 7.4097309 14.658203 7.4042969 L 14.660156 7.4023438 C 14.660156 7.4023438 14.623991 7.3704196 14.619141 7.3652344 L 14.621094 7.3632812 C 14.621094 7.3632812 14.586449 7.3328574 14.582031 7.328125 L 14.583984 7.3261719 C 14.583984 7.3261719 14.549485 7.2939471 14.544922 7.2890625 C 14.544922 7.2890625 14.511959 7.258353 14.507812 7.2539062 L 14.509766 7.2519531 C 14.509766 7.2519531 14.475043 7.2214472 14.470703 7.2167969 L 14.472656 7.2148438 C 14.472656 7.2148438 14.44142 7.1838961 14.4375 7.1796875 C 14.4375 7.1796875 14.406055 7.1504729 14.402344 7.1464844 C 14.402344 7.1464844 14.370898 7.1172697 14.367188 7.1132812 L 14.369141 7.1113281 C 14.369141 7.1113281 14.339434 7.0818877 14.335938 7.078125 C 14.335938 7.078125 14.307626 7.0519993 14.304688 7.0488281 L 14.304688 7.046875 C 14.304688 7.046875 14.274754 7.0191476 14.271484 7.015625 C 14.271484 7.015625 14.243147 6.9894723 14.240234 6.9863281 L 14.242188 6.984375 C 14.242188 6.984375 14.212066 6.9584017 14.208984 6.9550781 L 14.210938 6.953125 C 14.210938 6.953125 14.182446 6.9287618 14.179688 6.9257812 L 14.181641 6.9238281 C 14.181641 6.9238281 14.156527 6.900855 14.154297 6.8984375 L 14.154297 6.8964844 C 14.154297 6.8964844 14.127527 6.8718743 14.125 6.8691406 C 14.125 6.8691406 14.099867 6.8461469 14.097656 6.84375 L 14.099609 6.8417969 C 14.099609 6.8417969 14.074457 6.8168286 14.072266 6.8144531 C 14.072266 6.8144531 14.048922 6.7912832 14.046875 6.7890625 C 14.046875 6.7890625 14.023512 6.7658721 14.021484 6.7636719 C 14.021484 6.7636719 13.999805 6.742146 13.998047 6.7402344 C 13.998047 6.7402344 13.976337 6.7186754 13.974609 6.7167969 C 13.974609 6.7167969 13.952899 6.6952379 13.951172 6.6933594 C 13.951172 6.6933594 13.931165 6.6734852 13.929688 6.671875 C 13.929688 6.671875 13.909669 6.6519879 13.908203 6.6503906 C 13.908203 6.6503906 13.889894 6.6321935 13.888672 6.6308594 C 13.888672 6.6308594 13.87034 6.6126384 13.869141 6.6113281 C 13.869141 6.6113281 13.850809 6.5931072 13.849609 6.5917969 C 13.849609 6.5917969 13.833013 6.5752929 13.832031 6.5742188 C 13.832031 6.5742188 13.815426 6.5577051 13.814453 6.5566406 C 13.814453 6.5566406 13.797847 6.5401266 13.796875 6.5390625 C 13.796875 6.5390625 13.782032 6.5242947 13.78125 6.5234375 C 13.78125 6.5234375 13.766401 6.5086631 13.765625 6.5078125 C 13.765625 6.5078125 13.752552 6.4947988 13.751953 6.4941406 C 13.751953 6.4941406 13.738869 6.4811151 13.738281 6.4804688 C 13.738281 6.4804688 13.725197 6.4674427 13.724609 6.4667969 C 13.724609 6.4667969 13.713327 6.4555586 13.712891 6.4550781 C 13.712891 6.4550781 13.701604 6.4438355 13.701172 6.4433594 C 13.701172 6.4433594 13.689819 6.4339968 13.689453 6.4335938 C 13.689453 6.4335938 13.678103 6.4242348 13.677734 6.4238281 L 13.679688 6.421875 C 13.679688 6.421875 13.672071 6.4142788 13.671875 6.4140625 C 13.671875 6.4140625 13.66241 6.4046282 13.662109 6.4042969 C 13.662109 6.4042969 13.654493 6.3967007 13.654297 6.3964844 C 13.654297 6.3964844 13.648548 6.3907469 13.648438 6.390625 C 13.648438 6.390625 13.640817 6.383025 13.640625 6.3828125 C 13.640625 6.3828125 13.634843 6.3789923 13.634766 6.3789062 C 13.634766 6.3789062 13.628983 6.3750849 13.628906 6.375 L 13.630859 6.3730469 C 13.630859 6.3730469 13.627002 6.3691945 13.626953 6.3691406 C 13.626953 6.3691406 13.623095 6.3652877 13.623047 6.3652344 C 13.623047 6.3652344 13.621094 6.3632812 13.621094 6.3632812 C 13.621094 6.3632812 13.619141 6.3613281 13.619141 6.3613281 C 13.619141 6.3613281 13.617191 6.3613318 13.617188 6.3613281 C 13.617188 6.3613281 13.570363 6.3169433 13.560547 6.3066406 C 13.558631 6.3046314 13.551106 6.2992349 13.548828 6.296875 C 13.541991 6.289888 13.530658 6.2786087 13.521484 6.2695312 C 13.515411 6.2634302 13.507388 6.2572413 13.5 6.25 C 13.497045 6.2471226 13.495334 6.2452216 13.492188 6.2421875 C 13.492188 6.2421875 13.490234 6.2402344 13.490234 6.2402344 C 13.490234 6.2402344 13.488281 6.2382812 13.488281 6.2382812 C 13.456576 6.207662 13.45754 6.2047694 13.40625 6.1601562 C 13.405254 6.1593056 13.403346 6.1571044 13.402344 6.15625 C 13.401687 6.155682 13.40105 6.1568199 13.400391 6.15625 C 13.400391 6.15625 13.398438 6.1542969 13.398438 6.1542969 C 13.39744 6.1534444 13.395536 6.1512469 13.394531 6.1503906 C 13.394531 6.1503906 13.392578 6.1484375 13.392578 6.1484375 C 13.244359 6.0217914 13.021415 5.8524533 12.732422 5.6835938 C 12.732422 5.6835938 12.730469 5.6816406 12.730469 5.6816406 C 12.729772 5.681235 12.729213 5.6800931 12.728516 5.6796875 C 12.583278 5.595095 12.421531 5.5129498 12.242188 5.4335938 C 12.242188 5.4335938 12.240234 5.4316406 12.240234 5.4316406 C 11.699121 5.1925781 11.004219 5 10.167969 5 z M 26.839844 21.691406 C 26.852628 21.698748 26.866465 21.705545 26.878906 21.712891 L 26.84375 21.712891 C 26.842367 21.704729 26.841076 21.698285 26.839844 21.691406 z M 26.964844 21.773438 C 27.006801 21.800224 27.03313 21.821762 27.070312 21.847656 L 26.976562 21.847656 C 26.971831 21.819694 26.967431 21.786265 26.964844 21.773438 z "
       id="path4297"
       style="fill-opacity:1;fill:url(#linearGradient5154)"
       clip-path="url(#clipPath5159)" />
    <path
       inkscape:connector-curvature="0"
       d="m 14.7925,9.5499999 -4.585,0 0,1.3650001 3.255,0 c -0.165,1.905 -1.75,2.72 -3.25,2.72 -1.9150002,0 -3.595,-1.51 -3.595,-3.6350001 0,-2.05 1.5999998,-3.6349999 3.6,-3.6349999 1.545,0 2.45,0.985 2.45,0.985 l 0.95,-0.99 c 0,0 -1.22,-1.36 -3.45,-1.36 C 7.3274998,5 5.1325002,7.4 5.1325002,9.9999999 5.1325002,12.525 7.1974998,15 10.2425,15 c 2.675,0 4.625,-1.835 4.625,-4.545 0,-0.5750001 -0.075,-0.9050001 -0.075,-0.9050001 l 0,0 z"
       id="path4233"
       style="fill:#f5f5f5" />
  </g>
</svg>
