<?xml version="1.0" encoding="UTF-8" standalone="no"?>
<!-- Created with Inkscape (http://www.inkscape.org/) -->

<svg
   xmlns:dc="http://purl.org/dc/elements/1.1/"
   xmlns:cc="http://creativecommons.org/ns#"
   xmlns:rdf="http://www.w3.org/1999/02/22-rdf-syntax-ns#"
   xmlns:svg="http://www.w3.org/2000/svg"
   xmlns="http://www.w3.org/2000/svg"
   xmlns:xlink="http://www.w3.org/1999/xlink"
   xmlns:sodipodi="http://sodipodi.sourceforge.net/DTD/sodipodi-0.dtd"
   xmlns:inkscape="http://www.inkscape.org/namespaces/inkscape"
   sodipodi:docname="GPS.svg"
   inkscape:version="0.91 r13725"
   version="1.1"
   id="svg2"
   viewBox="0 0 20 20"
   height="5.6444445mm"
   width="5.6444445mm"
   inkscape:export-filename="/home/juergen/Schreibtisch/qdad.png"
   inkscape:export-xdpi="648"
   inkscape:export-ydpi="648">
  <sodipodi:namedview
     inkscape:snap-to-guides="true"
     inkscape:snap-grids="true"
     inkscape:window-maximized="1"
     inkscape:window-y="24"
     inkscape:window-x="0"
     inkscape:window-height="744"
     inkscape:window-width="1366"
     inkscape:guide-bbox="true"
     showguides="true"
     fit-margin-bottom="0"
     fit-margin-right="0"
     fit-margin-left="0"
     fit-margin-top="0"
     showgrid="false"
     inkscape:current-layer="layer1"
     inkscape:document-units="px"
     inkscape:cy="12.947223"
     inkscape:cx="-21.937797"
     inkscape:zoom="15.839192"
     inkscape:pageshadow="2"
     inkscape:pageopacity="0.0"
     borderopacity="1.0"
     bordercolor="#666666"
     pagecolor="#ffffff"
     id="base">
    <inkscape:grid
       type="xygrid"
       id="grid4138" />
    <sodipodi:guide
       position="10,18"
       orientation="0,1"
       id="guide4140" />
    <sodipodi:guide
       position="10,2"
       orientation="0,1"
       id="guide4142" />
    <sodipodi:guide
       position="2,10"
       orientation="1,0"
       id="guide4144" />
    <sodipodi:guide
       position="0,0"
       orientation="0,20"
       id="guide4146" />
    <sodipodi:guide
       position="20,0"
       orientation="-20,0"
       id="guide4148" />
    <sodipodi:guide
       position="20,20"
       orientation="0,-20"
       id="guide4150" />
    <sodipodi:guide
       position="0,20"
       orientation="20,0"
       id="guide4152" />
    <sodipodi:guide
       position="18,10"
       orientation="1,0"
       id="guide4154" />
    <sodipodi:guide
       position="10,10"
       orientation="-0.70710678,0.70710678"
       id="guide4156" />
    <sodipodi:guide
       position="10,10"
       orientation="0.70710678,0.70710678"
       id="guide4158" />
    <sodipodi:guide
       position="4,10"
       orientation="1,0"
       id="guide4160" />
    <sodipodi:guide
       position="16,10"
       orientation="1,0"
       id="guide4162" />
    <sodipodi:guide
       position="10,16"
       orientation="0,1"
       id="guide4164" />
    <sodipodi:guide
       position="10,4"
       orientation="0,1"
       id="guide4166" />
    <sodipodi:guide
       position="10,15"
       orientation="0,1"
       id="guide4168" />
    <sodipodi:guide
       position="10,5"
       orientation="0,1"
       id="guide4170" />
    <sodipodi:guide
       position="5,10"
       orientation="1,0"
       id="guide4172" />
    <sodipodi:guide
       position="15,10"
       orientation="1,0"
       id="guide4174" />
  </sodipodi:namedview>
  <defs
     id="defs4">
    <linearGradient
       inkscape:collect="always"
       id="linearGradient5116">
      <stop
         style="stop-color:#000000;stop-opacity:1;"
         offset="0"
         id="stop5118" />
      <stop
         style="stop-color:#000000;stop-opacity:0;"
         offset="1"
         id="stop5120" />
    </linearGradient>
    <clipPath
       id="clipPath12478"
       clipPathUnits="userSpaceOnUse">
      <circle
         r="10"
         cy="10.000005"
         cx="9.9999781"
         id="circle12480"
         style="opacity:1;fill:#2196f3;fill-opacity:1;stroke:none;stroke-width:0.05069799;stroke-miterlimit:4;stroke-dasharray:none;stroke-opacity:1" />
    </clipPath>
    <clipPath
       clipPathUnits="userSpaceOnUse"
       id="clipPath13251">
      <circle
         r="10"
         cy="10.000005"
         cx="9.9999781"
         id="circle13253"
         style="opacity:1;fill:#2196f3;fill-opacity:1;stroke:none;stroke-width:0.05069799;stroke-miterlimit:4;stroke-dasharray:none;stroke-opacity:1"
         inkscape:export-filename="/home/juergen/path4136.png"
         inkscape:export-xdpi="648"
         inkscape:export-ydpi="648" />
    </clipPath>
    <clipPath
       id="clipPath5054"
       clipPathUnits="userSpaceOnUse">
      <circle
         r="10"
         cy="10.000005"
         cx="9.9999781"
         id="circle5056"
         style="opacity:1;fill:#2196f3;fill-opacity:1;stroke:none;stroke-width:0.05069799;stroke-miterlimit:4;stroke-dasharray:none;stroke-opacity:1"
         inkscape:export-filename="/home/juergen/path4136.png"
         inkscape:export-xdpi="648"
         inkscape:export-ydpi="648" />
    </clipPath>
    <clipPath
       clipPathUnits="userSpaceOnUse"
       id="clipPath5149">
      <circle
         r="10"
         cy="10.000005"
         cx="9.9999781"
         id="circle5151"
         style="opacity:1;fill:#3f51b5;fill-opacity:1;stroke:none;stroke-width:0.05069799;stroke-miterlimit:4;stroke-dasharray:none;stroke-opacity:1"
         inkscape:export-filename="/home/juergen/Schreibtisch/qqq.png"
         inkscape:export-xdpi="648"
         inkscape:export-ydpi="648" />
    </clipPath>
    <clipPath
       id="clipPath6126"
       clipPathUnits="userSpaceOnUse">
      <circle
         r="10"
         cy="10.000005"
         cx="9.9999781"
         id="circle6128"
         style="opacity:1;fill:#9ccc65;fill-opacity:1;stroke:none;stroke-width:0.05069799;stroke-miterlimit:4;stroke-dasharray:none;stroke-opacity:1"
         inkscape:export-filename="/home/juergen/Schreibtisch/qqq.png"
         inkscape:export-xdpi="648"
         inkscape:export-ydpi="648" />
    </clipPath>
    <linearGradient
       inkscape:collect="always"
       xlink:href="#linearGradient5116"
       id="linearGradient5122"
       x1="10"
       y1="10"
       x2="20"
       y2="20"
       gradientUnits="userSpaceOnUse" />
    <clipPath
       clipPathUnits="userSpaceOnUse"
       id="clipPath5127">
      <circle
         r="10"
         cy="10.000005"
         cx="9.9999781"
         id="circle5129"
         style="opacity:1;fill:#2196f3;fill-opacity:1;stroke:none;stroke-width:0.05069799;stroke-miterlimit:4;stroke-dasharray:none;stroke-opacity:1"
         inkscape:export-filename="/home/juergen/Schreibtisch/qqq.png"
         inkscape:export-xdpi="648"
         inkscape:export-ydpi="648" />
    </clipPath>
  </defs>
  <metadata
     id="metadata7">
    <rdf:RDF>
      <cc:Work
         rdf:about="">
        <dc:format>image/svg+xml</dc:format>
        <dc:type
           rdf:resource="http://purl.org/dc/dcmitype/StillImage" />
        <dc:title />
      </cc:Work>
    </rdf:RDF>
  </metadata>
  <g
     inkscape:label="Hintergrund"
     inkscape:groupmode="layer"
     id="layer1"
     transform="translate(1058.1428,-861.93365)">
    <circle
       inkscape:export-ydpi="648"
       inkscape:export-xdpi="648"
       inkscape:export-filename="/home/juergen/Projekte/Android/Android_Studio/Baumann_Theme/theme/src/main/assets/icons/res/drawable-xxhdpi/a178.png"
       style="opacity:1;fill:#9e9e9e;fill-opacity:1;stroke:none;stroke-width:0.05069799;stroke-miterlimit:4;stroke-dasharray:none;stroke-opacity:1"
       id="path4136"
       cx="-1048.1428"
       cy="871.93365"
       r="10" />
  </g>
  <g
     style="display:inline"
     inkscape:groupmode="layer"
     id="layer2"
     inkscape:label="Icon">
    <path
       d="m 3.9999777,4.0333382 12.0000003,0 0,11.9333328 -12.0000003,0 z"
       id="path4"
       inkscape:connector-curvature="0"
       style="fill:none" />
    <path
       style="fill:none"
       inkscape:connector-curvature="0"
       id="path9754"
       d="m 18.999978,19.033339 12,0 0,11.933333 -12,0 z" />
    <path
       d="M 10.59375 5.1484375 L 9.6933594 5.1582031 C 9.6745464 5.1602333 9.6602331 6.0983745 9.6582031 6.1171875 C 7.7815622 6.3197028 6.2747808 7.8167183 6.0722656 9.6933594 L 5.1484375 9.703125 L 5.1582031 10.603516 L 7.2421875 13.019531 C 7.277558 13.055834 7.3207003 13.084174 7.3574219 13.119141 L 7.3789062 13.144531 C 7.4160416 13.183633 7.4612832 13.21436 7.5 13.251953 L 7.5136719 13.267578 C 7.5527728 13.309798 7.60162 13.342304 7.6425781 13.382812 L 7.6484375 13.390625 C 7.7353488 13.486821 7.8391478 13.56697 7.9355469 13.654297 C 7.9926299 13.712357 8.0524791 13.767789 8.1132812 13.822266 C 8.2172445 13.926921 8.3156309 14.036407 8.4316406 14.128906 C 8.4788832 14.171207 8.5189261 14.219761 8.5683594 14.259766 C 8.6173583 14.304273 8.6595098 14.354479 8.7109375 14.396484 C 8.7549477 14.436811 8.7918722 14.483189 8.8378906 14.521484 C 8.8861881 14.566575 8.9277177 14.617553 8.9785156 14.660156 C 9.0260609 14.704867 9.0691265 14.75264 9.1191406 14.794922 C 9.1628843 14.836368 9.2021714 14.880544 9.2480469 14.919922 C 9.2930617 14.963259 9.333521 15.009664 9.3808594 15.050781 C 9.4253349 15.094046 9.4668798 15.138609 9.5136719 15.179688 C 9.5586235 15.223834 9.6010747 15.268654 9.6484375 15.310547 C 9.6902546 15.35195 9.7294959 15.394152 9.7734375 15.433594 C 9.8149362 15.47526 9.8547939 15.516928 9.8984375 15.556641 C 9.9429352 15.60191 9.9861857 15.646458 10.033203 15.689453 C 10.074025 15.73118 10.115235 15.77074 10.158203 15.810547 C 10.198085 15.851817 10.237321 15.892219 10.279297 15.931641 C 10.322453 15.976882 10.366453 16.01945 10.412109 16.0625 C 10.450975 16.103398 10.49229 16.14057 10.533203 16.179688 C 10.573115 16.222247 10.614132 16.262073 10.65625 16.302734 C 10.69557 16.345003 10.737806 16.383414 10.779297 16.423828 C 10.817822 16.465669 10.859745 16.502922 10.900391 16.542969 C 10.934675 16.580523 10.971822 16.614263 11.007812 16.650391 C 11.045606 16.692618 11.088977 16.729068 11.128906 16.769531 C 11.166525 16.811902 11.210238 16.84806 11.25 16.888672 C 11.302613 16.948394 11.359194 17.004321 11.416016 17.060547 C 11.446647 17.094172 11.481671 17.123768 11.513672 17.15625 C 11.610656 17.265489 11.713456 17.367779 11.824219 17.464844 C 11.838956 17.480675 11.854095 17.496146 11.869141 17.511719 C 11.894472 17.535412 11.91729 17.560999 11.943359 17.583984 C 11.983298 17.622951 12.018673 17.665977 12.060547 17.703125 C 12.100284 17.742111 12.138021 17.783133 12.179688 17.820312 C 12.217168 17.857247 12.251807 17.896316 12.291016 17.931641 C 12.332867 17.973242 12.371989 18.017063 12.416016 18.056641 C 12.45206 18.092408 12.485781 18.12979 12.523438 18.164062 C 12.562752 18.203518 12.599366 18.245542 12.640625 18.283203 C 12.682593 18.32538 12.723396 18.368076 12.767578 18.408203 C 12.800522 18.441137 12.830932 18.476131 12.865234 18.507812 C 12.902961 18.546151 12.93897 18.586373 12.978516 18.623047 C 13.017317 18.662584 13.054974 18.702461 13.095703 18.740234 C 13.130044 18.775199 13.163369 18.810163 13.199219 18.84375 C 13.238053 18.883701 13.275621 18.924717 13.316406 18.962891 C 13.352473 18.999927 13.388036 19.036757 13.425781 19.072266 C 13.459236 19.106741 13.492438 19.140668 13.527344 19.173828 C 13.565016 19.213042 13.603046 19.251531 13.642578 19.289062 C 13.677435 19.325297 13.711602 19.361686 13.748047 19.396484 C 13.782535 19.432477 13.817465 19.467369 13.853516 19.501953 C 13.885967 19.535973 13.919283 19.568791 13.953125 19.601562 C 13.987011 19.637385 14.021223 19.672578 14.056641 19.707031 C 14.092693 19.745309 14.130176 19.781637 14.167969 19.818359 C 14.198668 19.850888 14.229761 19.882656 14.261719 19.914062 C 14.297284 19.952143 14.33382 19.98883 14.371094 20.025391 C 14.403578 20.060071 14.438753 20.091583 14.472656 20.125 C 14.505646 20.160385 14.539759 20.194436 14.574219 20.228516 C 14.60626 20.26299 14.640396 20.294883 14.673828 20.328125 C 14.703862 20.360562 14.736317 20.390522 14.767578 20.421875 C 14.80093 20.458173 14.836216 20.492391 14.871094 20.527344 C 14.902261 20.56125 14.936253 20.592265 14.96875 20.625 C 14.997737 20.656648 15.028452 20.686163 15.058594 20.716797 C 15.091717 20.753255 15.127466 20.787141 15.162109 20.822266 C 15.190006 20.852905 15.221028 20.880458 15.25 20.910156 C 15.281444 20.944999 15.316786 20.976127 15.349609 21.009766 C 15.377701 21.040898 15.408308 21.069436 15.4375 21.099609 C 15.46888 21.134657 15.504344 21.165375 15.537109 21.199219 C 15.566296 21.231768 15.598525 21.261457 15.628906 21.292969 C 15.658017 21.325551 15.690401 21.35517 15.720703 21.386719 C 15.747656 21.41695 15.778664 21.443311 15.806641 21.472656 C 15.836209 21.506097 15.869579 21.535991 15.900391 21.568359 C 15.926538 21.597901 15.957257 21.623638 15.984375 21.652344 C 16.013862 21.685931 16.047393 21.71553 16.078125 21.748047 C 16.106001 21.77976 16.138984 21.807131 16.167969 21.837891 C 16.195297 21.869062 16.227463 21.895527 16.255859 21.925781 C 16.257405 21.927549 16.258217 21.929876 16.259766 21.931641 C 16.285666 21.959132 16.313084 21.985012 16.339844 22.011719 C 16.364918 22.040527 16.395894 22.063762 16.421875 22.091797 C 16.449913 22.124243 16.48254 22.152121 16.511719 22.183594 C 16.537853 22.213792 16.568581 22.240176 16.595703 22.269531 C 16.595703 22.269531 16.597656 22.271484 16.597656 22.271484 C 16.62133 22.297069 16.647469 22.320779 16.671875 22.345703 C 16.747455 22.4341 16.83421 22.512656 16.917969 22.59375 C 16.963986 22.648083 17.019238 22.694432 17.068359 22.746094 C 17.068359 22.746094 17.070312 22.748047 17.070312 22.748047 C 17.123878 22.804299 17.177305 22.861162 17.234375 22.914062 C 17.236124 22.916154 17.238481 22.917834 17.240234 22.919922 C 17.26697 22.944594 17.288936 22.974138 17.316406 22.998047 C 17.344451 23.024078 17.367627 23.05489 17.396484 23.080078 C 17.424524 23.106177 17.447709 23.136853 17.476562 23.162109 C 17.50453 23.188208 17.527861 23.21888 17.556641 23.244141 C 17.583948 23.269654 17.608638 23.301457 17.636719 23.326172 C 17.665732 23.353311 17.690818 23.383919 17.720703 23.410156 C 17.745313 23.433132 17.765779 23.460092 17.791016 23.482422 C 17.791016 23.482422 17.792969 23.482422 17.792969 23.482422 C 17.80634 23.495761 17.818457 23.510295 17.832031 23.523438 C 17.843284 23.534999 17.853831 23.547174 17.865234 23.558594 C 17.865234 23.558594 17.867188 23.560547 17.867188 23.560547 C 17.867188 23.560547 17.869141 23.5625 17.869141 23.5625 C 17.894988 23.586821 17.916817 23.615066 17.943359 23.638672 C 17.972555 23.666232 17.997261 23.697964 18.027344 23.724609 C 18.053538 23.749231 18.076612 23.776892 18.103516 23.800781 C 18.126066 23.822 18.144892 23.84651 18.167969 23.867188 C 18.195382 23.89321 18.217896 23.924002 18.246094 23.949219 C 18.272907 23.974601 18.296659 24.00273 18.324219 24.027344 C 18.34538 24.047334 18.36314 24.07033 18.384766 24.089844 C 18.413783 24.117534 18.438853 24.148995 18.46875 24.175781 C 18.491504 24.197337 18.511866 24.221183 18.535156 24.242188 C 18.560902 24.266686 18.582941 24.294569 18.609375 24.318359 C 18.631454 24.339336 18.651243 24.362355 18.673828 24.382812 C 18.695182 24.403216 18.714498 24.429301 18.736328 24.449219 C 18.763656 24.47546 18.788297 24.503856 18.816406 24.529297 C 18.838098 24.549987 18.856727 24.57356 18.878906 24.59375 C 18.901893 24.615783 18.921775 24.64064 18.945312 24.662109 C 18.969965 24.685751 18.992293 24.711381 19.017578 24.734375 C 19.038557 24.754445 19.05669 24.777272 19.078125 24.796875 C 19.099723 24.817635 19.118541 24.841064 19.140625 24.861328 C 19.162903 24.882784 19.182283 24.906807 19.205078 24.927734 C 19.226692 24.94856 19.245477 24.971859 19.267578 24.992188 C 19.291477 25.015254 19.313397 25.040041 19.337891 25.0625 C 19.356853 25.080731 19.373243 25.101291 19.392578 25.119141 C 19.415449 25.141262 19.435568 25.165935 19.458984 25.1875 C 19.477578 25.205426 19.494719 25.224628 19.513672 25.242188 C 19.534245 25.262126 19.553204 25.283245 19.574219 25.302734 C 19.594478 25.322388 19.612125 25.344063 19.632812 25.363281 C 19.653315 25.383202 19.670465 25.406306 19.691406 25.425781 C 19.714585 25.448291 19.736028 25.4722 19.759766 25.494141 C 19.773334 25.507236 19.785069 25.522254 19.798828 25.535156 C 19.82193 25.557758 19.843526 25.581482 19.867188 25.603516 C 19.886389 25.622171 19.904244 25.641891 19.923828 25.660156 C 19.938388 25.674305 19.950063 25.691153 19.964844 25.705078 C 19.987265 25.727082 20.008301 25.750015 20.03125 25.771484 C 20.047797 25.78761 20.063247 25.804476 20.080078 25.820312 C 20.099606 25.839413 20.116794 25.860209 20.136719 25.878906 C 20.152903 25.894702 20.167138 25.912215 20.183594 25.927734 C 20.201055 25.944847 20.216596 25.963678 20.234375 25.980469 C 20.253497 25.999235 20.271512 26.01873 20.291016 26.037109 C 20.306522 26.052284 20.320182 26.069063 20.335938 26.083984 C 20.354399 26.102125 20.371808 26.120891 20.390625 26.138672 C 20.405165 26.152918 20.418834 26.167617 20.433594 26.181641 C 20.450071 26.197862 20.463709 26.216486 20.480469 26.232422 C 20.498249 26.249935 20.515094 26.267976 20.533203 26.285156 C 20.547078 26.298783 20.560144 26.312748 20.574219 26.326172 C 20.591665 26.343387 20.607236 26.362012 20.625 26.378906 C 20.638484 26.39218 20.65039 26.406839 20.664062 26.419922 C 20.681171 26.43683 20.69743 26.454103 20.714844 26.470703 C 20.729637 26.485279 20.742792 26.501279 20.757812 26.515625 C 20.770291 26.527925 20.782281 26.540597 20.794922 26.552734 C 20.811361 26.569014 20.827029 26.585568 20.84375 26.601562 C 20.855919 26.613575 20.866584 26.626814 20.878906 26.638672 C 20.893001 26.652658 20.90562 26.667863 20.919922 26.681641 C 20.935007 26.696604 20.949522 26.711838 20.964844 26.726562 C 20.976354 26.737946 20.986399 26.750474 20.998047 26.761719 C 21.013412 26.776991 21.027357 26.79357 21.042969 26.808594 C 21.055767 26.821265 21.069063 26.833203 21.082031 26.845703 C 21.092873 26.856442 21.102317 26.868291 21.113281 26.878906 C 21.12735 26.89291 21.140022 26.908078 21.154297 26.921875 C 21.166437 26.933913 21.179113 26.945147 21.191406 26.957031 C 21.201575 26.96713 21.210427 26.978291 21.220703 26.988281 C 21.234472 27.002005 21.247752 27.015771 21.261719 27.029297 C 21.271233 27.038749 21.279454 27.049236 21.289062 27.058594 C 21.302448 27.071957 21.314553 27.086434 21.328125 27.099609 C 21.339251 27.110673 21.350073 27.121878 21.361328 27.132812 C 21.369848 27.141281 21.378123 27.149811 21.386719 27.158203 C 21.399458 27.170934 21.41092 27.184704 21.423828 27.197266 C 21.433642 27.207034 21.443212 27.216895 21.453125 27.226562 C 21.461277 27.234683 21.468342 27.243902 21.476562 27.251953 C 21.488287 27.263687 21.499851 27.275519 21.511719 27.287109 C 21.521525 27.296891 21.53111 27.306725 21.541016 27.316406 C 21.548227 27.323595 21.555235 27.330756 21.5625 27.337891 C 21.573915 27.349332 21.584152 27.361742 21.595703 27.373047 C 21.602258 27.379581 21.608635 27.386089 21.615234 27.392578 C 21.626019 27.403387 21.635579 27.415093 21.646484 27.425781 C 21.654986 27.434267 21.663298 27.442761 21.671875 27.451172 C 21.679724 27.459011 21.687399 27.466834 21.695312 27.474609 C 21.70316 27.482451 21.710839 27.490269 21.71875 27.498047 C 21.724654 27.503949 21.730388 27.509759 21.736328 27.515625 C 21.7458 27.525132 21.754107 27.535508 21.763672 27.544922 C 21.770864 27.552111 21.777911 27.559271 21.785156 27.566406 C 21.790056 27.571306 21.793904 27.577157 21.798828 27.582031 C 21.807295 27.590537 21.815677 27.598991 21.824219 27.607422 C 21.830759 27.613969 21.837165 27.620451 21.84375 27.626953 C 21.848646 27.631856 21.852501 27.6377 21.857422 27.642578 C 21.865247 27.650439 21.87297 27.658218 21.880859 27.666016 C 21.886756 27.671918 21.892505 27.677727 21.898438 27.683594 C 21.903978 27.689142 21.90849 27.695655 21.914062 27.701172 C 21.919253 27.706368 21.924469 27.711629 21.929688 27.716797 C 21.934578 27.721694 21.940397 27.725596 21.945312 27.730469 C 21.950559 27.735728 21.955663 27.740863 21.960938 27.746094 C 21.964888 27.75005 21.970643 27.755825 21.974609 27.759766 C 21.976547 27.761725 21.978527 27.76367 21.980469 27.765625 C 21.980469 27.765625 21.980469 27.767578 21.980469 27.767578 C 21.988931 27.776092 21.997323 27.784529 22.005859 27.792969 C 22.011393 27.798532 22.015919 27.805016 22.021484 27.810547 C 22.025073 27.814143 22.029601 27.816729 22.033203 27.820312 C 22.034851 27.821964 22.035458 27.824523 22.037109 27.826172 C 22.037109 27.826172 22.039062 27.828125 22.039062 27.828125 C 22.040083 27.829135 22.041948 27.829069 22.042969 27.830078 C 22.042969 27.830078 22.044922 27.832031 22.044922 27.832031 C 22.045935 27.833045 22.045861 27.834925 22.046875 27.835938 C 22.051114 27.840197 22.054336 27.845368 22.058594 27.849609 C 22.059892 27.85091 22.0612 27.852217 22.0625 27.853516 C 22.064162 27.855167 22.068648 27.857727 22.070312 27.859375 C 22.073604 27.86268 22.076776 27.865847 22.080078 27.869141 C 22.080078 27.869141 22.080078 27.871094 22.080078 27.871094 C 22.080078 27.871094 22.082031 27.873047 22.082031 27.873047 C 22.082031 27.873047 22.083984 27.875 22.083984 27.875 C 22.083984 27.875 22.085938 27.875 22.085938 27.875 C 22.085938 27.875 22.087891 27.876953 22.087891 27.876953 C 22.087891 27.876953 22.087891 27.878906 22.087891 27.878906 C 22.087891 27.878906 22.089844 27.880859 22.089844 27.880859 C 22.089844 27.880859 22.091797 27.882812 22.091797 27.882812 C 22.091797 27.882812 22.09375 27.884766 22.09375 27.884766 C 22.09375 27.884766 22.095703 27.886719 22.095703 27.886719 C 22.095703 27.886719 22.097656 27.888672 22.097656 27.888672 C 22.097656 27.888672 22.099609 27.890625 22.099609 27.890625 C 22.100556 27.891574 22.102568 27.89163 22.103516 27.892578 C 22.103516 27.892578 22.103516 27.894531 22.103516 27.894531 C 22.263187 28.053978 22.435071 28.200591 22.619141 28.332031 C 22.619141 28.332031 22.621094 28.333984 22.621094 28.333984 C 22.621499 28.334274 22.622642 28.333695 22.623047 28.333984 C 22.677813 28.373059 22.740157 28.401109 22.796875 28.4375 C 22.944918 28.532563 23.093709 28.625555 23.253906 28.701172 L 23.253906 28.707031 L 23.269531 28.707031 C 23.278257 28.711106 23.288116 28.712782 23.296875 28.716797 L 23.296875 28.751953 L 23.339844 28.751953 L 23.339844 28.792969 L 23.380859 28.792969 L 23.380859 28.835938 L 23.421875 28.835938 L 23.421875 28.876953 L 23.462891 28.876953 L 23.462891 28.917969 L 23.501953 28.917969 L 23.501953 28.957031 L 23.541016 28.957031 L 23.541016 28.996094 L 23.580078 28.996094 L 23.580078 29.035156 L 23.617188 29.035156 L 23.617188 29.072266 L 23.654297 29.072266 L 23.654297 29.109375 L 23.689453 29.109375 L 23.689453 29.144531 L 23.724609 29.144531 L 23.724609 29.179688 L 23.759766 29.179688 L 23.759766 29.214844 L 23.792969 29.214844 L 23.792969 29.248047 L 23.826172 29.248047 L 23.826172 29.28125 L 23.859375 29.28125 L 23.859375 29.314453 L 23.890625 29.314453 L 23.890625 29.345703 L 23.921875 29.345703 L 23.921875 29.375 L 23.951172 29.375 L 23.951172 29.40625 L 23.980469 29.40625 L 23.980469 29.435547 L 24.009766 29.435547 L 24.009766 29.464844 L 24.037109 29.464844 L 24.037109 29.492188 L 24.064453 29.492188 L 24.064453 29.519531 L 24.089844 29.519531 L 24.089844 29.544922 L 24.117188 29.544922 L 24.117188 29.570312 L 24.140625 29.570312 L 24.140625 29.595703 L 24.166016 29.595703 L 24.166016 29.619141 L 24.189453 29.619141 L 24.189453 29.642578 L 24.210938 29.642578 L 24.210938 29.666016 L 24.232422 29.666016 L 24.232422 29.6875 L 24.253906 29.6875 L 24.253906 29.708984 L 24.275391 29.708984 L 24.275391 29.728516 L 24.294922 29.728516 L 24.294922 29.748047 L 24.3125 29.748047 L 24.3125 29.767578 L 24.332031 29.767578 L 24.332031 29.787109 L 24.349609 29.787109 L 24.349609 29.802734 L 24.365234 29.802734 L 24.365234 29.820312 L 24.380859 29.820312 L 24.380859 29.835938 L 24.396484 29.835938 L 24.396484 29.851562 L 24.412109 29.851562 L 24.412109 29.865234 L 24.425781 29.865234 L 24.425781 29.878906 L 24.4375 29.878906 L 24.4375 29.892578 L 24.451172 29.892578 L 24.451172 29.904297 L 24.462891 29.904297 L 24.462891 29.916016 L 24.472656 29.916016 L 24.472656 29.927734 L 24.482422 29.927734 L 24.482422 29.9375 L 24.492188 29.9375 L 24.492188 29.947266 L 24.5 29.947266 L 24.5 29.955078 L 24.507812 29.955078 L 24.507812 29.962891 L 24.515625 29.962891 L 24.515625 29.970703 L 24.521484 29.970703 L 24.521484 29.976562 L 24.527344 29.976562 L 24.527344 29.982422 L 24.53125 29.982422 L 24.53125 29.986328 L 24.535156 29.986328 L 24.535156 29.990234 L 24.539062 29.990234 L 24.539062 29.994141 L 24.542969 29.994141 L 24.542969 29.996094 L 24.544922 29.996094 L 24.544922 29.998047 L 24.544922 30 L 25.455078 30 L 25.455078 29.068359 C 26.165283 28.991718 26.820782 28.72942 27.375 28.333984 C 27.744253 28.0703 28.070157 27.746096 28.333984 27.376953 C 28.334308 27.376499 28.333661 27.375454 28.333984 27.375 C 28.729424 26.820785 28.991713 26.165281 29.068359 25.455078 C 29.068375 25.455062 29.999997 25.455101 30 25.455078 L 30 24.544922 L 29.998047 24.544922 L 29.996094 24.544922 L 29.996094 24.542969 L 29.994141 24.542969 L 29.994141 24.539062 L 29.990234 24.539062 L 29.990234 24.537109 L 29.986328 24.537109 L 29.986328 24.533203 L 29.982422 24.533203 L 29.982422 24.527344 L 29.976562 24.527344 L 29.976562 24.523438 L 29.970703 24.523438 L 29.970703 24.517578 L 29.962891 24.517578 L 29.962891 24.509766 L 29.955078 24.509766 L 29.955078 24.503906 L 29.947266 24.503906 L 29.947266 24.496094 L 29.9375 24.496094 L 29.9375 24.486328 L 29.927734 24.486328 L 29.927734 24.476562 L 29.916016 24.476562 L 29.916016 24.466797 L 29.904297 24.466797 L 29.904297 24.457031 L 29.892578 24.457031 L 29.892578 24.445312 L 29.878906 24.445312 L 29.878906 24.431641 L 29.865234 24.431641 L 29.865234 24.419922 L 29.851562 24.419922 L 29.851562 24.40625 L 29.835938 24.40625 L 29.835938 24.392578 L 29.820312 24.392578 L 29.820312 24.376953 L 29.802734 24.376953 L 29.802734 24.361328 L 29.785156 24.361328 L 29.785156 24.34375 L 29.767578 24.34375 L 29.767578 24.328125 L 29.748047 24.328125 L 29.748047 24.310547 L 29.728516 24.310547 L 29.728516 24.291016 L 29.708984 24.291016 L 29.708984 24.271484 L 29.6875 24.271484 L 29.6875 24.251953 L 29.666016 24.251953 L 29.666016 24.232422 L 29.642578 24.232422 L 29.642578 24.210938 L 29.619141 24.210938 L 29.619141 24.1875 L 29.595703 24.1875 L 29.595703 24.166016 L 29.570312 24.166016 L 29.570312 24.142578 L 29.544922 24.142578 L 29.544922 24.119141 L 29.519531 24.119141 L 29.519531 24.09375 L 29.492188 24.09375 L 29.492188 24.068359 L 29.460938 24.066406 L 29.462891 24.041016 L 29.433594 24.039062 L 29.435547 24.015625 L 29.404297 24.013672 L 29.40625 23.988281 L 29.373047 23.986328 L 29.375 23.958984 L 29.34375 23.957031 L 29.345703 23.929688 L 29.3125 23.927734 L 29.314453 23.900391 L 29.279297 23.898438 L 29.28125 23.871094 L 29.246094 23.869141 L 29.248047 23.839844 L 29.212891 23.837891 L 29.214844 23.806641 L 29.177734 23.804688 L 29.179688 23.775391 L 29.142578 23.773438 L 29.144531 23.742188 L 29.107422 23.740234 L 29.109375 23.708984 L 29.070312 23.707031 L 29.072266 23.673828 L 29.033203 23.671875 L 29.035156 23.638672 L 28.994141 23.636719 L 28.996094 23.601562 L 28.955078 23.599609 L 28.957031 23.566406 L 28.916016 23.5625 L 28.917969 23.529297 L 28.873047 23.525391 L 28.876953 23.490234 L 28.832031 23.486328 L 28.835938 23.451172 L 28.789062 23.447266 L 28.792969 23.412109 L 28.759766 23.408203 C 28.756243 23.399868 28.753577 23.391119 28.75 23.382812 L 28.751953 23.373047 L 28.746094 23.371094 C 28.722926 23.317822 28.706993 23.261058 28.681641 23.208984 C 28.681641 23.208984 28.681641 23.207031 28.681641 23.207031 C 28.651312 23.144702 28.609539 23.089817 28.576172 23.029297 C 28.571786 23.021353 28.566937 23.013771 28.5625 23.005859 C 28.4897 22.875976 28.420092 22.743725 28.333984 22.623047 C 28.333695 22.622642 28.334274 22.621499 28.333984 22.621094 C 28.332914 22.619595 28.33115 22.618685 28.330078 22.617188 C 28.199183 22.433922 28.053206 22.262593 27.894531 22.103516 C 27.89418 22.103164 27.89293 22.103867 27.892578 22.103516 C 27.892578 22.103516 27.892578 22.101562 27.892578 22.101562 C 27.892227 22.101211 27.890977 22.101913 27.890625 22.101562 C 27.890625 22.101562 27.890625 22.099609 27.890625 22.099609 C 27.890273 22.099259 27.889024 22.09996 27.888672 22.099609 C 27.888672 22.099609 27.886719 22.097656 27.886719 22.097656 C 27.886719 22.097656 27.884766 22.095703 27.884766 22.095703 C 27.884766 22.095703 27.882812 22.09375 27.882812 22.09375 C 27.882812 22.09375 27.880859 22.091797 27.880859 22.091797 C 27.880859 22.091797 27.878906 22.089844 27.878906 22.089844 C 27.872373 22.083292 27.865952 22.07682 27.859375 22.070312 C 27.858079 22.069021 27.856766 22.067696 27.855469 22.066406 C 27.853168 22.064108 27.849962 22.062839 27.847656 22.060547 C 27.846358 22.05925 27.84505 22.057936 27.84375 22.056641 C 27.842446 22.055348 27.841149 22.054025 27.839844 22.052734 C 27.839844 22.052734 27.837891 22.050781 27.837891 22.050781 C 27.836875 22.049768 27.835001 22.047887 27.833984 22.046875 C 27.832755 22.045652 27.831309 22.04419 27.830078 22.042969 C 27.82712 22.040015 27.82328 22.038101 27.820312 22.035156 C 27.817677 22.032526 27.815142 22.029966 27.8125 22.027344 C 27.8125 22.027344 27.810547 22.025391 27.810547 22.025391 C 27.807299 22.02215 27.80404 22.018855 27.800781 22.015625 C 27.798838 22.013687 27.796869 22.0117 27.794922 22.009766 C 27.788727 22.003564 27.781625 21.998349 27.775391 21.992188 C 27.773442 21.990245 27.771484 21.988267 27.769531 21.986328 C 27.765288 21.982083 27.760122 21.978836 27.755859 21.974609 C 27.751264 21.970011 27.746804 21.965514 27.742188 21.960938 C 27.735652 21.954399 27.727283 21.945947 27.720703 21.939453 C 27.716447 21.935217 27.709353 21.929998 27.705078 21.925781 C 27.702478 21.923194 27.699873 21.920549 27.697266 21.917969 C 27.689118 21.909823 27.680092 21.902608 27.671875 21.894531 C 27.667268 21.889952 27.660879 21.88737 27.65625 21.882812 C 27.655292 21.88188 27.655255 21.879838 27.654297 21.878906 C 27.651339 21.875968 27.647498 21.874023 27.644531 21.871094 C 27.635389 21.861961 27.626417 21.852796 27.617188 21.84375 C 27.614235 21.84082 27.610383 21.838858 27.607422 21.835938 C 27.597628 21.826151 27.588019 21.816327 27.578125 21.806641 C 27.571273 21.799849 27.563541 21.793852 27.556641 21.787109 C 27.553034 21.783536 27.548542 21.780903 27.544922 21.777344 C 27.534483 21.766931 27.524224 21.756393 27.513672 21.746094 C 27.508114 21.740595 27.501683 21.735935 27.496094 21.730469 C 27.490534 21.724949 27.484108 21.720332 27.478516 21.714844 C 27.468704 21.705062 27.459131 21.695228 27.449219 21.685547 C 27.441354 21.67775 27.431757 21.671795 27.423828 21.664062 C 27.417554 21.657842 27.410612 21.652664 27.404297 21.646484 C 27.394142 21.636375 27.385263 21.625236 27.375 21.615234 C 27.366473 21.606787 27.356259 21.600168 27.347656 21.591797 C 27.338773 21.582997 27.329279 21.575124 27.320312 21.566406 C 27.311133 21.55732 27.302236 21.54806 27.292969 21.539062 C 27.285436 21.531607 27.277124 21.524974 27.269531 21.517578 C 27.2584 21.506533 27.24759 21.49529 27.236328 21.484375 C 27.223214 21.471418 27.208607 21.460041 27.195312 21.447266 C 27.188703 21.440786 27.180483 21.436122 27.173828 21.429688 C 27.16362 21.419612 27.152896 21.410356 27.142578 21.400391 C 27.134317 21.392245 27.12552 21.385027 27.117188 21.376953 C 27.102732 21.362643 27.088895 21.348073 27.074219 21.333984 C 27.065639 21.325571 27.055531 21.318883 27.046875 21.310547 C 27.037664 21.301478 27.028832 21.292182 27.019531 21.283203 C 27.006714 21.270544 26.99346 21.258578 26.980469 21.246094 C 26.968926 21.234737 26.956996 21.224106 26.945312 21.212891 C 26.931458 21.199274 26.916401 21.187241 26.902344 21.173828 C 26.892094 21.163807 26.881454 21.154441 26.871094 21.144531 C 26.858878 21.132552 26.846358 21.121196 26.833984 21.109375 C 26.822423 21.09805 26.810531 21.087354 26.798828 21.076172 C 26.785952 21.063556 26.772818 21.051502 26.759766 21.039062 C 26.745212 21.02482 26.729622 21.012063 26.714844 20.998047 C 26.703916 20.987411 26.692695 20.977306 26.681641 20.966797 C 26.668103 20.953563 26.654358 20.940772 26.640625 20.927734 C 26.625405 20.912895 26.609217 20.899357 26.59375 20.884766 C 26.582149 20.873501 26.570338 20.862683 26.558594 20.851562 C 26.545026 20.83835 26.531343 20.825515 26.517578 20.8125 C 26.503359 20.798652 26.489046 20.785115 26.474609 20.771484 C 26.458025 20.755355 26.440708 20.740443 26.423828 20.724609 C 26.41153 20.712718 26.399178 20.701183 26.386719 20.689453 C 26.370162 20.673396 26.352789 20.658339 26.335938 20.642578 C 26.322976 20.630063 26.310017 20.617803 26.296875 20.605469 C 26.281581 20.590659 26.265546 20.577057 26.25 20.5625 C 26.234365 20.547372 26.219024 20.532442 26.203125 20.517578 C 26.185506 20.500557 26.168346 20.483482 26.150391 20.466797 C 26.135058 20.452062 26.119102 20.438308 26.103516 20.423828 C 26.089183 20.410057 26.075101 20.396361 26.060547 20.382812 C 26.041923 20.36487 26.022907 20.347644 26.003906 20.330078 C 25.989583 20.316363 25.975483 20.302556 25.960938 20.289062 C 25.942265 20.271132 25.923349 20.253879 25.904297 20.236328 C 25.889263 20.221961 25.874655 20.207481 25.859375 20.193359 C 25.840314 20.175094 25.82024 20.158493 25.800781 20.140625 C 25.785384 20.125952 25.771515 20.110118 25.755859 20.095703 C 25.73612 20.07683 25.715479 20.059462 25.695312 20.041016 C 25.677547 20.024125 25.660689 20.00678 25.642578 19.990234 C 25.626143 19.974626 25.610482 19.958672 25.59375 19.943359 C 25.571341 19.922026 25.548352 19.901639 25.525391 19.880859 C 25.511228 19.867525 25.496803 19.854912 25.482422 19.841797 C 25.4613 19.821723 25.441538 19.800831 25.419922 19.78125 C 25.401093 19.763488 25.382501 19.745888 25.363281 19.728516 C 25.343787 19.710137 25.324602 19.691787 25.304688 19.673828 C 25.287131 19.657312 25.269851 19.641176 25.251953 19.625 C 25.228392 19.602765 25.20582 19.580212 25.181641 19.558594 C 25.16577 19.543776 25.150915 19.528211 25.134766 19.513672 C 25.112529 19.492732 25.091151 19.471561 25.068359 19.451172 C 25.048082 19.43221 25.028549 19.413036 25.007812 19.394531 C 24.986874 19.374969 24.966742 19.355011 24.945312 19.335938 C 24.924342 19.316393 24.904276 19.296398 24.882812 19.277344 C 24.861835 19.257842 24.841783 19.237761 24.820312 19.21875 C 24.799312 19.199245 24.779309 19.179168 24.757812 19.160156 C 24.73607 19.13998 24.715636 19.119256 24.693359 19.099609 C 24.671605 19.079475 24.651196 19.058666 24.628906 19.039062 C 24.607147 19.018947 24.58675 18.998099 24.564453 18.978516 C 24.541964 18.957748 24.521112 18.936214 24.498047 18.916016 C 24.47555 18.895298 24.454715 18.873663 24.431641 18.853516 C 24.408871 18.832575 24.388597 18.809418 24.365234 18.789062 C 24.342069 18.7678 24.320656 18.745265 24.296875 18.724609 C 24.27397 18.703648 24.252023 18.682477 24.228516 18.662109 C 24.204611 18.640247 24.182767 18.616917 24.158203 18.595703 C 24.132929 18.57266 24.109995 18.547707 24.083984 18.525391 C 24.061698 18.505186 24.040437 18.484485 24.017578 18.464844 C 23.993506 18.442994 23.972011 18.419627 23.947266 18.398438 C 23.921178 18.374797 23.897973 18.349035 23.871094 18.326172 C 23.848365 18.305696 23.828017 18.283559 23.804688 18.263672 C 23.779303 18.240731 23.75661 18.215562 23.730469 18.193359 C 23.705733 18.171082 23.683659 18.146576 23.658203 18.125 C 23.630973 18.100519 23.60623 18.07441 23.578125 18.050781 C 23.553903 18.029154 23.532726 18.005329 23.507812 17.984375 C 23.482611 17.961841 23.461504 17.935865 23.435547 17.914062 C 23.409263 17.890586 23.386484 17.864475 23.359375 17.841797 C 23.330639 17.816185 23.305115 17.788327 23.275391 17.763672 C 23.248598 17.740006 23.224913 17.714242 23.197266 17.691406 C 23.171793 17.668959 23.149296 17.644744 23.123047 17.623047 C 23.106421 17.604931 23.087464 17.588059 23.070312 17.570312 C 23.064818 17.564174 23.058291 17.558832 23.052734 17.552734 C 23.05163 17.551819 23.049934 17.551695 23.048828 17.550781 C 23.027241 17.52716 23.001003 17.507368 22.978516 17.484375 C 22.976683 17.48235 22.974496 17.480536 22.972656 17.478516 C 22.972656 17.478516 22.970703 17.476562 22.970703 17.476562 C 22.947949 17.451628 22.918299 17.428529 22.894531 17.404297 C 22.894531 17.404297 22.892578 17.402344 22.892578 17.402344 C 22.866237 17.373411 22.834359 17.348296 22.806641 17.320312 C 22.78356 17.295106 22.754613 17.274481 22.730469 17.25 C 22.730469 17.25 22.728516 17.248047 22.728516 17.248047 C 22.700454 17.217252 22.668335 17.189865 22.638672 17.160156 C 22.612035 17.131193 22.580811 17.106115 22.552734 17.078125 C 22.527313 17.050593 22.497446 17.026645 22.470703 17 C 22.442191 16.969076 22.409105 16.941909 22.378906 16.912109 C 22.351498 16.882635 22.319981 16.856565 22.291016 16.828125 C 22.261656 16.796687 22.22842 16.768529 22.197266 16.738281 C 22.172509 16.712036 22.143223 16.689468 22.117188 16.664062 C 22.086792 16.63162 22.053854 16.601471 22.021484 16.570312 C 21.992842 16.540061 21.960078 16.513493 21.929688 16.484375 C 21.900638 16.453868 21.868749 16.425825 21.837891 16.396484 C 21.809092 16.366394 21.778636 16.337538 21.748047 16.308594 C 21.718505 16.277848 21.685742 16.250242 21.654297 16.220703 C 21.624382 16.1897 21.592432 16.160622 21.560547 16.130859 C 21.530864 16.100262 21.500389 16.070392 21.46875 16.041016 C 21.440182 16.011694 21.409311 15.985222 21.378906 15.957031 C 21.346887 15.924116 21.313667 15.892811 21.279297 15.861328 C 21.248711 15.830221 21.21828 15.799338 21.185547 15.769531 C 21.153256 15.736844 21.120644 15.705063 21.085938 15.673828 C 21.056389 15.644216 21.025724 15.616294 20.994141 15.587891 C 20.961972 15.555569 20.931126 15.523063 20.896484 15.492188 C 20.865475 15.461277 20.834109 15.431914 20.800781 15.402344 C 20.767844 15.369526 20.736781 15.335984 20.701172 15.304688 C 20.669018 15.272916 20.63824 15.241264 20.603516 15.210938 C 20.570711 15.178668 20.539429 15.145996 20.503906 15.115234 C 20.469929 15.081968 20.437329 15.049224 20.400391 15.017578 C 20.370157 14.988283 20.343157 14.957708 20.310547 14.929688 C 20.274577 14.894498 20.242597 14.857569 20.203125 14.824219 C 20.188977 14.810607 20.176821 14.796539 20.162109 14.783203 C 20.13771 14.75472 20.111313 14.73172 20.085938 14.705078 C 20.060147 14.675012 20.032734 14.649149 20.005859 14.621094 C 19.979704 14.59076 19.951088 14.565424 19.923828 14.537109 C 19.896672 14.505805 19.868178 14.478393 19.839844 14.449219 C 19.811625 14.41693 19.781427 14.389411 19.751953 14.359375 C 19.727643 14.331886 19.702963 14.307117 19.677734 14.28125 C 19.647673 14.247073 19.617402 14.215323 19.585938 14.183594 C 19.558804 14.153253 19.530205 14.126055 19.501953 14.097656 C 19.474764 14.067361 19.446273 14.040107 19.417969 14.011719 C 19.390139 13.980808 19.362974 13.95083 19.333984 13.921875 C 19.3055 13.890426 19.275779 13.861473 19.246094 13.832031 C 19.215319 13.798246 19.184503 13.765858 19.152344 13.734375 C 19.126497 13.706348 19.101028 13.678792 19.074219 13.652344 C 19.043369 13.618707 19.01269 13.586106 18.980469 13.554688 C 18.950694 13.522577 18.921656 13.491026 18.890625 13.460938 C 18.860784 13.428967 18.83187 13.397167 18.800781 13.367188 C 18.770275 13.334647 18.740782 13.301983 18.708984 13.271484 C 18.678731 13.239422 18.650649 13.205876 18.619141 13.175781 C 18.586559 13.141436 18.553552 13.10827 18.519531 13.076172 C 18.491676 13.047142 18.466392 13.015711 18.4375 12.988281 C 18.405169 12.954443 18.375523 12.918429 18.341797 12.886719 C 18.309755 12.853434 18.279488 12.818344 18.246094 12.787109 C 18.214616 12.754674 18.185109 12.719947 18.152344 12.689453 C 18.121835 12.658142 18.094209 12.623273 18.0625 12.59375 C 18.026334 12.556625 17.992918 12.51706 17.955078 12.482422 C 17.92463 12.451694 17.896844 12.417682 17.865234 12.388672 C 17.832879 12.355954 17.803195 12.319869 17.769531 12.289062 C 17.734453 12.253693 17.702617 12.214795 17.666016 12.181641 C 17.643605 12.154871 17.618906 12.131376 17.595703 12.105469 C 17.589506 12.097925 17.582432 12.091465 17.576172 12.083984 C 17.576172 12.083984 17.574219 12.082031 17.574219 12.082031 C 17.549769 12.052866 17.52148 12.028149 17.496094 12 C 17.489874 11.992473 17.482845 11.985979 17.476562 11.978516 C 17.475484 11.977542 17.473736 11.977534 17.472656 11.976562 C 17.451695 11.951725 17.427892 11.930354 17.40625 11.90625 C 17.374562 11.867727 17.337978 11.835665 17.304688 11.798828 C 17.273586 11.761303 17.237701 11.729284 17.205078 11.693359 C 17.175678 11.658032 17.142076 11.627668 17.111328 11.59375 C 17.07811 11.55376 17.040794 11.518672 17.005859 11.480469 C 16.973404 11.441783 16.936408 11.4081 16.902344 11.371094 C 16.871853 11.334953 16.836583 11.304213 16.804688 11.269531 C 16.772921 11.231833 16.738365 11.198238 16.705078 11.162109 C 16.670941 11.121688 16.633535 11.0855 16.597656 11.046875 C 16.565184 11.008734 16.528165 10.975994 16.494141 10.939453 C 16.461927 10.901722 16.426308 10.868206 16.392578 10.832031 C 16.357589 10.791099 16.319969 10.753956 16.283203 10.714844 C 16.249584 10.675821 16.212969 10.640882 16.177734 10.603516 C 16.144989 10.565643 16.108484 10.532415 16.074219 10.496094 C 16.038724 10.45505 16.002114 10.416188 15.964844 10.376953 C 15.933821 10.341328 15.89955 10.309657 15.867188 10.275391 C 15.827975 10.230118 15.787446 10.187633 15.746094 10.144531 C 15.713623 10.107617 15.678435 10.074522 15.644531 10.039062 C 15.609096 9.9986572 15.572297 9.9605574 15.535156 9.921875 C 15.499898 9.8818103 15.462712 9.8450187 15.425781 9.8066406 C 15.388346 9.7642113 15.34985 9.7241387 15.310547 9.6835938 C 15.276398 9.6451672 15.240761 9.6091479 15.205078 9.5722656 C 15.168745 9.5313514 15.131813 9.4923037 15.09375 9.453125 C 15.055501 9.4101948 15.01671 9.3691497 14.976562 9.328125 C 14.940994 9.2884828 14.904376 9.2509088 14.867188 9.2128906 C 14.830108 9.1715464 14.792738 9.1313897 14.753906 9.0917969 C 14.716756 9.0504999 14.679519 9.0102601 14.640625 8.9707031 C 14.601265 8.9270879 14.560829 8.8854296 14.519531 8.84375 C 14.483411 8.8040165 14.447887 8.7646897 14.410156 8.7265625 C 14.371877 8.6844012 14.333049 8.6438847 14.292969 8.6035156 C 14.253955 8.5606982 14.216647 8.5175368 14.175781 8.4765625 C 14.137692 8.4349225 14.100385 8.3934184 14.060547 8.3535156 C 14.021202 8.3105685 13.982604 8.2676717 13.941406 8.2265625 C 13.902602 8.1843843 13.864807 8.1419725 13.824219 8.1015625 C 13.784727 8.0587556 13.746401 8.0156022 13.705078 7.9746094 C 13.6633 7.9294539 13.621932 7.8849396 13.578125 7.8417969 C 13.541539 7.8025279 13.506872 7.7623578 13.46875 7.7246094 C 13.426967 7.6795501 13.387537 7.6329247 13.34375 7.5898438 C 13.302773 7.5459238 13.263582 7.5010246 13.220703 7.4589844 C 13.179904 7.4154339 13.140321 7.3717847 13.097656 7.3300781 C 12.705722 6.9125777 12.227667 6.5850673 11.691406 6.3632812 L 11.6875 6.3125 L 11.587891 6.3222656 C 11.580767 6.3195491 11.573549 6.3171301 11.566406 6.3144531 L 11.554688 6.1699219 L 11.429688 6.1816406 L 11.417969 6.0273438 L 11.292969 6.0371094 L 11.283203 5.8828125 L 11.154297 5.890625 L 11.146484 5.7363281 L 11.015625 5.7441406 L 11.009766 5.5917969 L 10.875 5.5976562 L 10.871094 5.4453125 L 10.738281 5.4492188 L 10.734375 5.296875 L 10.595703 5.3007812 L 10.59375 5.1484375 z "
       id="path4276"
       style="fill-opacity:1;fill:url(#linearGradient5122);opacity:0.2"
       clip-path="url(#clipPath5127)" />
    <path
       inkscape:connector-curvature="0"
       d="M 9.9999777,8.1818231 A 1.8181818,1.8181818 0 0 1 11.818159,10.000005 1.8181818,1.8181818 0 0 1 9.9999777,11.818187 1.8181818,1.8181818 0 0 1 8.1817961,10.000005 1.8181818,1.8181818 0 0 1 9.9999777,8.1818231 m -4.0681815,2.2727269 -0.9318182,0 0,-0.9090906 0.9318182,0 C 6.1363416,7.6500049 7.649978,6.1363684 9.5454322,5.9318229 l 0,-0.9318181 0.9090908,0 0,0.9318181 c 1.895455,0.2045455 3.40909,1.718182 3.613636,3.6136365 l 0.931818,0 0,0.9090906 -0.931818,0 c -0.204546,1.895455 -1.718181,3.409091 -3.613636,3.613637 l 0,0.931818 -0.9090908,0 0,-0.931818 C 7.649978,13.863641 6.1363416,12.350005 5.9317962,10.45455 M 9.9999777,6.8181868 A 3.1818181,3.1818181 0 0 0 6.8181598,10.000005 3.1818181,3.1818181 0 0 0 9.9999777,13.181823 3.1818181,3.1818181 0 0 0 13.181795,10.000005 3.1818181,3.1818181 0 0 0 9.9999777,6.8181868 Z"
       id="path4223"
       style="fill:#ffffff" />
  </g>
</svg>
