<?xml version="1.0" encoding="UTF-8" standalone="no"?>
<!-- Created with Inkscape (http://www.inkscape.org/) -->

<svg
   xmlns:dc="http://purl.org/dc/elements/1.1/"
   xmlns:cc="http://creativecommons.org/ns#"
   xmlns:rdf="http://www.w3.org/1999/02/22-rdf-syntax-ns#"
   xmlns:svg="http://www.w3.org/2000/svg"
   xmlns="http://www.w3.org/2000/svg"
   xmlns:xlink="http://www.w3.org/1999/xlink"
   xmlns:sodipodi="http://sodipodi.sourceforge.net/DTD/sodipodi-0.dtd"
   xmlns:inkscape="http://www.inkscape.org/namespaces/inkscape"
   width="5.6444445mm"
   height="5.6444445mm"
   viewBox="0 0 20 20"
   id="svg2"
   version="1.1"
   inkscape:version="0.91 r13725"
   sodipodi:docname="Home.svg"
   inkscape:export-filename="/home/juergen/Schreibtisch/Icons/Email.svg.png"
   inkscape:export-xdpi="648"
   inkscape:export-ydpi="648">
  <sodipodi:namedview
     id="base"
     pagecolor="#ffffff"
     bordercolor="#666666"
     borderopacity="1.0"
     inkscape:pageopacity="0.0"
     inkscape:pageshadow="2"
     inkscape:zoom="11.2"
     inkscape:cx="9.7737152"
     inkscape:cy="9.1400923"
     inkscape:document-units="px"
     inkscape:current-layer="layer2"
     showgrid="false"
     fit-margin-top="0"
     fit-margin-left="0"
     fit-margin-right="0"
     fit-margin-bottom="0"
     showguides="true"
     inkscape:guide-bbox="true"
     inkscape:window-width="1366"
     inkscape:window-height="726"
     inkscape:window-x="0"
     inkscape:window-y="0"
     inkscape:window-maximized="1"
     inkscape:snap-grids="true"
     inkscape:snap-to-guides="true">
    <inkscape:grid
       type="xygrid"
       id="grid4138" />
    <sodipodi:guide
       position="10,18"
       orientation="0,1"
       id="guide4140" />
    <sodipodi:guide
       position="10,2"
       orientation="0,1"
       id="guide4142" />
    <sodipodi:guide
       position="2,10"
       orientation="1,0"
       id="guide4144" />
    <sodipodi:guide
       position="0,0"
       orientation="0,20"
       id="guide4146" />
    <sodipodi:guide
       position="20,0"
       orientation="-20,0"
       id="guide4148" />
    <sodipodi:guide
       position="20,20"
       orientation="0,-20"
       id="guide4150" />
    <sodipodi:guide
       position="0,20"
       orientation="20,0"
       id="guide4152" />
    <sodipodi:guide
       position="18,10"
       orientation="1,0"
       id="guide4154" />
    <sodipodi:guide
       position="10,10"
       orientation="-0.70710678,0.70710678"
       id="guide4156" />
    <sodipodi:guide
       position="4,10"
       orientation="1,0"
       id="guide4160" />
    <sodipodi:guide
       position="16,10"
       orientation="1,0"
       id="guide4162" />
    <sodipodi:guide
       position="10,16"
       orientation="0,1"
       id="guide4164" />
    <sodipodi:guide
       position="10,4"
       orientation="0,1"
       id="guide4166" />
    <sodipodi:guide
       position="10,15"
       orientation="0,1"
       id="guide4168" />
    <sodipodi:guide
       position="10,5"
       orientation="0,1"
       id="guide4170" />
    <sodipodi:guide
       position="5,10"
       orientation="1,0"
       id="guide4172" />
    <sodipodi:guide
       position="15,10"
       orientation="1,0"
       id="guide4174" />
  </sodipodi:namedview>
  <defs
     id="defs4">
    <linearGradient
       inkscape:collect="always"
       id="linearGradient6141">
      <stop
         style="stop-color:#000000;stop-opacity:1;"
         offset="0"
         id="stop6143" />
      <stop
         style="stop-color:#000000;stop-opacity:0;"
         offset="1"
         id="stop6145" />
    </linearGradient>
    <clipPath
       id="clipPath12478"
       clipPathUnits="userSpaceOnUse">
      <circle
         r="10"
         cy="10.000005"
         cx="9.9999781"
         id="circle12480"
         style="opacity:1;fill:#2196f3;fill-opacity:1;stroke:none;stroke-width:0.05069799;stroke-miterlimit:4;stroke-dasharray:none;stroke-opacity:1" />
    </clipPath>
    <clipPath
       clipPathUnits="userSpaceOnUse"
       id="clipPath5790">
      <circle
         r="10"
         cy="10.000005"
         cx="9.9999781"
         id="circle5792"
         style="opacity:1;fill:#2196f3;fill-opacity:1;stroke:none;stroke-width:0.05069799;stroke-miterlimit:4;stroke-dasharray:none;stroke-opacity:1"
         inkscape:export-filename="/home/juergen/path4136.png"
         inkscape:export-xdpi="648"
         inkscape:export-ydpi="648" />
    </clipPath>
    <clipPath
       id="clipPath5055"
       clipPathUnits="userSpaceOnUse">
      <circle
         r="10"
         cy="10.000005"
         cx="9.9999781"
         id="circle5057"
         style="opacity:1;fill:#2196f3;fill-opacity:1;stroke:none;stroke-width:0.05069799;stroke-miterlimit:4;stroke-dasharray:none;stroke-opacity:1"
         inkscape:export-filename="/home/juergen/path4136.png"
         inkscape:export-xdpi="648"
         inkscape:export-ydpi="648" />
    </clipPath>
    <clipPath
       clipPathUnits="userSpaceOnUse"
       id="clipPath5119">
      <circle
         r="10"
         cy="10.000005"
         cx="9.9999781"
         id="circle5121"
         style="opacity:1;fill:#2196f3;fill-opacity:1;stroke:none;stroke-width:0.05069799;stroke-miterlimit:4;stroke-dasharray:none;stroke-opacity:1"
         inkscape:export-filename="/home/juergen/Schreibtisch/path4136.png"
         inkscape:export-xdpi="648"
         inkscape:export-ydpi="648" />
    </clipPath>
    <clipPath
       id="clipPath5194"
       clipPathUnits="userSpaceOnUse">
      <circle
         r="10"
         cy="10.000005"
         cx="9.9999781"
         id="circle5196"
         style="opacity:1;fill:#cddc39;fill-opacity:1;stroke:none;stroke-width:0.05069799;stroke-miterlimit:4;stroke-dasharray:none;stroke-opacity:1"
         inkscape:export-filename="/home/juergen/Schreibtisch/path4136.png"
         inkscape:export-xdpi="648"
         inkscape:export-ydpi="648" />
    </clipPath>
    <clipPath
       clipPathUnits="userSpaceOnUse"
       id="clipPath6175">
      <circle
         r="10"
         cy="10.000005"
         cx="9.9999781"
         id="circle6177"
         style="opacity:1;fill:#f44336;fill-opacity:1;stroke:none;stroke-width:0.05069799;stroke-miterlimit:4;stroke-dasharray:none;stroke-opacity:1"
         inkscape:export-filename="/home/juergen/Schreibtisch/path4136.png"
         inkscape:export-xdpi="648"
         inkscape:export-ydpi="648" />
    </clipPath>
    <clipPath
       id="clipPath7176"
       clipPathUnits="userSpaceOnUse">
      <circle
         r="10"
         cy="10.000005"
         cx="9.9999781"
         id="circle7178"
         style="opacity:1;fill:#9c27b0;fill-opacity:1;stroke:none;stroke-width:0.05069799;stroke-miterlimit:4;stroke-dasharray:none;stroke-opacity:1"
         inkscape:export-filename="/home/juergen/Schreibtisch/path4136.png"
         inkscape:export-xdpi="648"
         inkscape:export-ydpi="648" />
    </clipPath>
    <clipPath
       clipPathUnits="userSpaceOnUse"
       id="clipPath8165">
      <circle
         r="10"
         cy="10.000005"
         cx="9.9999781"
         id="circle8167"
         style="opacity:1;fill:#ffc107;fill-opacity:1;stroke:none;stroke-width:0.05069799;stroke-miterlimit:4;stroke-dasharray:none;stroke-opacity:1"
         inkscape:export-filename="/home/juergen/Schreibtisch/path4136.png"
         inkscape:export-xdpi="648"
         inkscape:export-ydpi="648" />
    </clipPath>
    <clipPath
       id="clipPath9162"
       clipPathUnits="userSpaceOnUse">
      <circle
         r="10"
         cy="10.000005"
         cx="9.9999781"
         id="circle9164"
         style="opacity:1;fill:#ff9800;fill-opacity:1;stroke:none;stroke-width:0.05069799;stroke-miterlimit:4;stroke-dasharray:none;stroke-opacity:1"
         inkscape:export-filename="/home/juergen/Schreibtisch/path4136.png"
         inkscape:export-xdpi="648"
         inkscape:export-ydpi="648" />
    </clipPath>
    <clipPath
       clipPathUnits="userSpaceOnUse"
       id="clipPath10753">
      <circle
         r="10"
         cy="10.000005"
         cx="9.9999781"
         id="circle10755"
         style="opacity:1;fill:#607d8b;fill-opacity:1;stroke:none;stroke-width:0.05069799;stroke-miterlimit:4;stroke-dasharray:none;stroke-opacity:1"
         inkscape:export-filename="/home/juergen/Schreibtisch/path4136.png"
         inkscape:export-xdpi="648"
         inkscape:export-ydpi="648" />
    </clipPath>
    <clipPath
       id="clipPath5153"
       clipPathUnits="userSpaceOnUse">
      <circle
         r="10"
         cy="10.000005"
         cx="9.9999781"
         id="circle5155"
         style="opacity:1;fill:#2196f3;fill-opacity:1;stroke:none;stroke-width:0.05069799;stroke-miterlimit:4;stroke-dasharray:none;stroke-opacity:1"
         inkscape:export-filename="/home/juergen/Schreibtisch/path4136.png"
         inkscape:export-xdpi="648"
         inkscape:export-ydpi="648" />
    </clipPath>
    <linearGradient
       inkscape:collect="always"
       xlink:href="#linearGradient6141"
       id="linearGradient6147"
       x1="10"
       y1="10"
       x2="20"
       y2="20"
       gradientUnits="userSpaceOnUse" />
    <clipPath
       clipPathUnits="userSpaceOnUse"
       id="clipPath6152">
      <circle
         r="10"
         cy="10.000005"
         cx="9.9999781"
         id="circle6154"
         style="opacity:1;fill:#2196f3;fill-opacity:1;stroke:none;stroke-width:0.05069799;stroke-miterlimit:4;stroke-dasharray:none;stroke-opacity:1"
         inkscape:export-filename="/home/juergen/Schreibtisch/path4136.png"
         inkscape:export-xdpi="648"
         inkscape:export-ydpi="648" />
    </clipPath>
  </defs>
  <metadata
     id="metadata7">
    <rdf:RDF>
      <cc:Work
         rdf:about="">
        <dc:format>image/svg+xml</dc:format>
        <dc:type
           rdf:resource="http://purl.org/dc/dcmitype/StillImage" />
        <dc:title></dc:title>
      </cc:Work>
    </rdf:RDF>
  </metadata>
  <g
     inkscape:label="Hintergrund"
     inkscape:groupmode="layer"
     id="layer1"
     transform="translate(1058.1428,-861.93365)">
    <circle
       inkscape:export-ydpi="648"
       inkscape:export-xdpi="648"
       inkscape:export-filename="/home/juergen/Schreibtisch/path4136.png"
       style="opacity:1;fill:#2196f3;fill-opacity:1;stroke:none;stroke-width:0.05069799;stroke-miterlimit:4;stroke-dasharray:none;stroke-opacity:1"
       id="path4136"
       cx="-1048.1428"
       cy="871.93365"
       r="10" />
  </g>
  <g
     style="display:inline"
     inkscape:groupmode="layer"
     id="layer2"
     inkscape:label="Icon">
    <path
       d="M 10.148438 5.8984375 L 5.1484375 10.398438 L 5.4609375 10.398438 L 5.296875 10.546875 L 5.609375 10.546875 L 5.4453125 10.695312 L 5.7539062 10.695312 L 5.5917969 10.841797 L 5.8964844 10.841797 L 5.7363281 10.986328 L 6.0449219 10.986328 L 5.8828125 11.132812 L 6.1875 11.132812 L 6.0273438 11.277344 L 6.328125 11.277344 L 6.1699219 11.419922 L 6.4707031 11.419922 L 6.3125 11.5625 L 6.6132812 11.5625 L 6.4550781 11.705078 L 6.6484375 11.705078 L 6.6484375 11.802734 L 6.5976562 11.847656 L 6.6484375 11.847656 L 6.6484375 14.398438 L 6.796875 14.398438 L 6.796875 14.546875 L 6.9453125 14.546875 L 6.9453125 14.695312 L 7.0917969 14.695312 L 7.0917969 14.841797 L 7.2363281 14.841797 L 7.2363281 14.986328 L 7.3828125 14.986328 L 7.3828125 15.132812 L 7.5273438 15.132812 L 7.5273438 15.277344 L 7.6699219 15.277344 L 7.6699219 15.419922 L 7.8125 15.419922 L 7.8125 15.5625 L 7.9550781 15.5625 L 7.9550781 15.705078 L 8.0976562 15.705078 L 8.0976562 15.847656 L 8.2382812 15.847656 L 8.2382812 15.988281 L 8.3769531 15.988281 L 8.3769531 16.126953 L 8.5175781 16.126953 L 8.5175781 16.267578 L 8.6542969 16.267578 L 8.6542969 16.404297 L 8.7929688 16.404297 L 8.7929688 16.542969 L 8.9296875 16.542969 L 8.9296875 16.679688 L 9.0664062 16.679688 L 9.0664062 16.816406 L 9.2011719 16.816406 L 9.2011719 16.951172 L 9.3359375 16.951172 L 9.3359375 17.085938 L 9.4707031 17.085938 L 9.4707031 17.220703 L 9.6035156 17.220703 L 9.6035156 17.353516 L 9.7363281 17.353516 L 9.7363281 17.486328 L 9.8691406 17.486328 L 9.8691406 17.619141 L 10 17.619141 L 10 17.75 L 10.128906 17.75 L 10.128906 17.878906 L 10.259766 17.878906 L 10.259766 18.009766 L 10.388672 18.009766 L 10.388672 18.138672 L 10.515625 18.138672 L 10.515625 18.265625 L 10.642578 18.265625 L 10.642578 18.392578 L 10.769531 18.392578 L 10.769531 18.519531 L 10.896484 18.519531 L 10.896484 18.646484 L 11.021484 18.646484 L 11.021484 18.771484 L 11.144531 18.771484 L 11.144531 18.894531 L 11.269531 18.894531 L 11.269531 19.019531 L 11.392578 19.019531 L 11.392578 19.142578 L 11.513672 19.142578 L 11.513672 19.263672 L 11.634766 19.263672 L 11.634766 19.384766 L 11.755859 19.384766 L 11.755859 19.505859 L 11.876953 19.505859 L 11.876953 19.626953 L 11.996094 19.626953 L 11.996094 19.746094 L 12.113281 19.746094 L 12.113281 19.863281 L 12.230469 19.863281 L 12.230469 19.980469 L 12.347656 19.980469 L 12.347656 20.097656 L 12.464844 20.097656 L 12.464844 20.214844 L 12.580078 20.214844 L 12.580078 20.330078 L 12.695312 20.330078 L 12.695312 20.445312 L 12.808594 20.445312 L 12.808594 20.558594 L 12.921875 20.558594 L 12.921875 20.671875 L 13.035156 20.671875 L 13.035156 20.785156 L 13.146484 20.785156 L 13.146484 20.896484 L 13.257812 20.896484 L 13.257812 21.007812 L 13.367188 21.007812 L 13.367188 21.117188 L 13.476562 21.117188 L 13.476562 21.226562 L 13.585938 21.226562 L 13.585938 21.335938 L 13.693359 21.335938 L 13.693359 21.443359 L 13.800781 21.443359 L 13.800781 21.550781 L 13.908203 21.550781 L 13.908203 21.658203 L 14.013672 21.658203 L 14.013672 21.763672 L 14.119141 21.763672 L 14.119141 21.869141 L 14.222656 21.869141 L 14.222656 21.972656 L 14.326172 21.972656 L 14.326172 22.076172 L 14.429688 22.076172 L 14.429688 22.179688 L 14.53125 22.179688 L 14.53125 22.28125 L 14.632812 22.28125 L 14.632812 22.382812 L 14.734375 22.382812 L 14.734375 22.484375 L 14.833984 22.484375 L 14.833984 22.583984 L 14.931641 22.583984 L 14.931641 22.681641 L 15.03125 22.681641 L 15.03125 22.78125 L 15.128906 22.78125 L 15.128906 22.878906 L 15.224609 22.878906 L 15.224609 22.974609 L 15.322266 22.974609 L 15.322266 23.072266 L 15.416016 23.072266 L 15.416016 23.166016 L 15.511719 23.166016 L 15.511719 23.261719 L 15.605469 23.261719 L 15.605469 23.355469 L 15.699219 23.355469 L 15.699219 23.449219 L 15.791016 23.449219 L 15.791016 23.541016 L 15.882812 23.541016 L 15.882812 23.632812 L 15.974609 23.632812 L 15.974609 23.724609 L 16.064453 23.724609 L 16.064453 23.814453 L 16.154297 23.814453 L 16.154297 23.904297 L 16.242188 23.904297 L 16.242188 23.992188 L 16.330078 23.992188 L 16.330078 24.080078 L 16.417969 24.080078 L 16.417969 24.167969 L 16.503906 24.167969 L 16.503906 24.253906 L 16.589844 24.253906 L 16.589844 24.339844 L 16.675781 24.339844 L 16.675781 24.425781 L 16.759766 24.425781 L 16.759766 24.509766 L 16.841797 24.509766 L 16.841797 24.591797 L 16.925781 24.591797 L 16.925781 24.675781 L 17.007812 24.675781 L 17.007812 24.757812 L 17.087891 24.757812 L 17.087891 24.837891 L 17.169922 24.837891 L 17.169922 24.919922 L 17.25 24.919922 L 17.25 25 L 17.328125 25 L 17.328125 25.078125 L 17.40625 25.078125 L 17.40625 25.15625 L 17.484375 25.15625 L 17.484375 25.234375 L 17.560547 25.234375 L 17.560547 25.310547 L 17.636719 25.310547 L 17.636719 25.386719 L 17.712891 25.386719 L 17.712891 25.462891 L 17.787109 25.462891 L 17.787109 25.537109 L 17.861328 25.537109 L 17.861328 25.611328 L 17.933594 25.611328 L 17.933594 25.683594 L 18.005859 25.683594 L 18.005859 25.755859 L 18.078125 25.755859 L 18.078125 25.828125 L 18.148438 25.828125 L 18.148438 25.898438 L 18.21875 25.898438 L 18.21875 25.96875 L 18.289062 25.96875 L 18.289062 26.039062 L 18.357422 26.039062 L 18.357422 26.107422 L 18.425781 26.107422 L 18.425781 26.175781 L 18.492188 26.175781 L 18.492188 26.242188 L 18.558594 26.242188 L 18.558594 26.308594 L 18.625 26.308594 L 18.625 26.375 L 18.689453 26.375 L 18.689453 26.439453 L 18.753906 26.439453 L 18.753906 26.503906 L 18.818359 26.503906 L 18.818359 26.568359 L 18.880859 26.568359 L 18.880859 26.630859 L 18.941406 26.630859 L 18.941406 26.691406 L 19.003906 26.691406 L 19.003906 26.753906 L 19.064453 26.753906 L 19.064453 26.814453 L 19.123047 26.814453 L 19.123047 26.873047 L 19.183594 26.873047 L 19.183594 26.933594 L 19.240234 26.933594 L 19.240234 26.990234 L 19.298828 26.990234 L 19.298828 27.048828 L 19.355469 27.048828 L 19.355469 27.105469 L 19.412109 27.105469 L 19.412109 27.162109 L 19.466797 27.162109 L 19.466797 27.216797 L 19.521484 27.216797 L 19.521484 27.271484 L 19.576172 27.271484 L 19.576172 27.326172 L 19.628906 27.326172 L 19.628906 27.378906 L 19.681641 27.378906 L 19.681641 27.431641 L 19.732422 27.431641 L 19.732422 27.482422 L 19.783203 27.482422 L 19.783203 27.533203 L 19.833984 27.533203 L 19.833984 27.583984 L 19.882812 27.583984 L 19.882812 27.632812 L 19.931641 27.632812 L 19.931641 27.681641 L 19.978516 27.681641 L 19.978516 27.728516 L 20.027344 27.728516 L 20.027344 27.777344 L 20.072266 27.777344 L 20.072266 27.822266 L 20.119141 27.822266 L 20.119141 27.869141 L 20.164062 27.869141 L 20.164062 27.914062 L 20.207031 27.914062 L 20.207031 27.957031 L 20.251953 27.957031 L 20.251953 28.001953 L 20.292969 28.001953 L 20.292969 28.042969 L 20.335938 28.042969 L 20.335938 28.085938 L 20.376953 28.085938 L 20.376953 28.126953 L 20.417969 28.126953 L 20.417969 28.167969 L 20.457031 28.167969 L 20.457031 28.207031 L 20.496094 28.207031 L 20.496094 28.246094 L 20.535156 28.246094 L 20.535156 28.285156 L 20.572266 28.285156 L 20.572266 28.322266 L 20.609375 28.322266 L 20.609375 28.359375 L 20.644531 28.359375 L 20.644531 28.394531 L 20.679688 28.394531 L 20.679688 28.429688 L 20.714844 28.429688 L 20.714844 28.464844 L 20.748047 28.464844 L 20.748047 28.498047 L 20.78125 28.498047 L 20.78125 28.53125 L 20.814453 28.53125 L 20.814453 28.564453 L 20.845703 28.564453 L 20.845703 28.595703 L 20.875 28.595703 L 20.875 28.625 L 20.90625 28.625 L 20.90625 28.65625 L 20.935547 28.65625 L 20.935547 28.685547 L 20.962891 28.685547 L 20.962891 28.714844 L 20.992188 28.714844 L 20.992188 28.742188 L 21.019531 28.742188 L 21.019531 28.769531 L 21.044922 28.769531 L 21.044922 28.794922 L 21.070312 28.794922 L 21.070312 28.820312 L 21.095703 28.820312 L 21.095703 28.845703 L 21.119141 28.845703 L 21.119141 28.869141 L 21.142578 28.869141 L 21.142578 28.892578 L 21.166016 28.892578 L 21.166016 28.916016 L 21.1875 28.916016 L 21.1875 28.9375 L 21.208984 28.9375 L 21.208984 28.958984 L 21.228516 28.958984 L 21.228516 28.978516 L 21.248047 28.978516 L 21.248047 28.998047 L 21.267578 28.998047 L 21.267578 29.017578 L 21.285156 29.017578 L 21.285156 29.037109 L 21.302734 29.037109 L 21.302734 29.052734 L 21.320312 29.052734 L 21.320312 29.070312 L 21.335938 29.070312 L 21.335938 29.085938 L 21.351562 29.085938 L 21.351562 29.101562 L 21.365234 29.101562 L 21.365234 29.115234 L 21.378906 29.115234 L 21.378906 29.128906 L 21.392578 29.128906 L 21.392578 29.142578 L 21.404297 29.142578 L 21.404297 29.154297 L 21.416016 29.154297 L 21.416016 29.166016 L 21.427734 29.166016 L 21.427734 29.177734 L 21.4375 29.177734 L 21.4375 29.1875 L 21.447266 29.1875 L 21.447266 29.197266 L 21.455078 29.197266 L 21.455078 29.205078 L 21.462891 29.205078 L 21.462891 29.212891 L 21.470703 29.212891 L 21.470703 29.220703 L 21.476562 29.220703 L 21.476562 29.226562 L 21.482422 29.226562 L 21.482422 29.232422 L 21.486328 29.232422 L 21.486328 29.236328 L 21.490234 29.236328 L 21.490234 29.240234 L 21.494141 29.240234 L 21.494141 29.244141 L 21.496094 29.244141 L 21.496094 29.246094 L 21.498047 29.246094 L 21.498047 29.248047 L 21.5 29.248047 L 21.5 29.25 L 24 29.25 L 24 27.216797 L 24.021484 27.216797 L 24.021484 27.271484 L 24.076172 27.271484 L 24.076172 27.326172 L 24.128906 27.326172 L 24.128906 27.378906 L 24.181641 27.378906 L 24.181641 27.431641 L 24.232422 27.431641 L 24.232422 27.482422 L 24.283203 27.482422 L 24.283203 27.533203 L 24.333984 27.533203 L 24.333984 27.583984 L 24.382812 27.583984 L 24.382812 27.632812 L 24.431641 27.632812 L 24.431641 27.681641 L 24.478516 27.681641 L 24.478516 27.728516 L 24.527344 27.728516 L 24.527344 27.777344 L 24.572266 27.777344 L 24.572266 27.822266 L 24.619141 27.822266 L 24.619141 27.869141 L 24.664062 27.869141 L 24.664062 27.914062 L 24.707031 27.914062 L 24.707031 27.957031 L 24.751953 27.957031 L 24.751953 28.001953 L 24.792969 28.001953 L 24.792969 28.042969 L 24.835938 28.042969 L 24.835938 28.085938 L 24.876953 28.085938 L 24.876953 28.126953 L 24.917969 28.126953 L 24.917969 28.167969 L 24.957031 28.167969 L 24.957031 28.207031 L 24.996094 28.207031 L 24.996094 28.246094 L 25.035156 28.246094 L 25.035156 28.285156 L 25.072266 28.285156 L 25.072266 28.322266 L 25.109375 28.322266 L 25.109375 28.359375 L 25.144531 28.359375 L 25.144531 28.394531 L 25.179688 28.394531 L 25.179688 28.429688 L 25.214844 28.429688 L 25.214844 28.464844 L 25.248047 28.464844 L 25.248047 28.498047 L 25.28125 28.498047 L 25.28125 28.53125 L 25.314453 28.53125 L 25.314453 28.564453 L 25.345703 28.564453 L 25.345703 28.595703 L 25.375 28.595703 L 25.375 28.625 L 25.40625 28.625 L 25.40625 28.65625 L 25.435547 28.65625 L 25.435547 28.685547 L 25.462891 28.685547 L 25.462891 28.714844 L 25.492188 28.714844 L 25.492188 28.742188 L 25.519531 28.742188 L 25.519531 28.769531 L 25.544922 28.769531 L 25.544922 28.794922 L 25.570312 28.794922 L 25.570312 28.820312 L 25.595703 28.820312 L 25.595703 28.845703 L 25.619141 28.845703 L 25.619141 28.869141 L 25.642578 28.869141 L 25.642578 28.892578 L 25.666016 28.892578 L 25.666016 28.916016 L 25.6875 28.916016 L 25.6875 28.9375 L 25.708984 28.9375 L 25.708984 28.958984 L 25.728516 28.958984 L 25.728516 28.978516 L 25.748047 28.978516 L 25.748047 28.998047 L 25.767578 28.998047 L 25.767578 29.017578 L 25.785156 29.017578 L 25.785156 29.037109 L 25.802734 29.037109 L 25.802734 29.052734 L 25.820312 29.052734 L 25.820312 29.070312 L 25.835938 29.070312 L 25.835938 29.085938 L 25.851562 29.085938 L 25.851562 29.101562 L 25.865234 29.101562 L 25.865234 29.115234 L 25.878906 29.115234 L 25.878906 29.128906 L 25.892578 29.128906 L 25.892578 29.142578 L 25.904297 29.142578 L 25.904297 29.154297 L 25.916016 29.154297 L 25.916016 29.166016 L 25.927734 29.166016 L 25.927734 29.177734 L 25.9375 29.177734 L 25.9375 29.1875 L 25.947266 29.1875 L 25.947266 29.197266 L 25.955078 29.197266 L 25.955078 29.205078 L 25.962891 29.205078 L 25.962891 29.212891 L 25.970703 29.212891 L 25.970703 29.220703 L 25.976562 29.220703 L 25.976562 29.226562 L 25.982422 29.226562 L 25.982422 29.232422 L 25.986328 29.232422 L 25.986328 29.236328 L 25.990234 29.236328 L 25.990234 29.240234 L 25.994141 29.240234 L 25.994141 29.244141 L 25.996094 29.244141 L 25.996094 29.246094 L 25.998047 29.246094 L 25.998047 29.248047 L 26 29.248047 L 26 29.25 L 28.5 29.25 L 28.5 25.25 L 30 25.25 L 29.998047 25.248047 L 29.996094 25.246094 L 29.994141 25.244141 L 29.990234 25.240234 L 29.986328 25.236328 L 29.982422 25.232422 L 29.976562 25.226562 L 29.970703 25.220703 L 29.962891 25.212891 L 29.955078 25.205078 L 29.947266 25.197266 L 29.935547 25.1875 L 29.925781 25.177734 L 29.914062 25.166016 L 29.902344 25.154297 L 29.890625 25.142578 L 29.876953 25.128906 L 29.863281 25.115234 L 29.849609 25.101562 L 29.833984 25.085938 L 29.818359 25.070312 L 29.800781 25.052734 L 29.785156 25.037109 L 29.763672 25.017578 L 29.767578 25.017578 L 29.746094 24.998047 L 29.726562 24.978516 L 29.707031 24.958984 L 29.685547 24.9375 L 29.664062 24.916016 L 29.640625 24.892578 L 29.617188 24.869141 L 29.59375 24.845703 L 29.568359 24.820312 L 29.542969 24.794922 L 29.488281 24.742188 L 29.492188 24.742188 L 29.460938 24.714844 L 29.429688 24.685547 L 29.435547 24.685547 L 29.402344 24.65625 L 29.40625 24.65625 L 29.371094 24.625 L 29.375 24.625 L 29.341797 24.595703 L 29.345703 24.595703 L 29.310547 24.564453 L 29.314453 24.564453 L 29.277344 24.53125 L 29.28125 24.53125 L 29.244141 24.498047 L 29.248047 24.498047 L 29.210938 24.464844 L 29.214844 24.464844 L 29.175781 24.429688 L 29.179688 24.429688 L 29.140625 24.394531 L 29.144531 24.394531 L 29.105469 24.359375 L 29.109375 24.359375 L 29.068359 24.322266 L 29.072266 24.322266 L 29.03125 24.285156 L 29.035156 24.285156 L 28.992188 24.246094 L 28.996094 24.246094 L 28.953125 24.207031 L 28.957031 24.207031 L 28.914062 24.167969 L 28.917969 24.167969 L 28.873047 24.126953 L 28.876953 24.126953 L 28.832031 24.085938 L 28.835938 24.085938 L 28.789062 24.042969 L 28.792969 24.042969 L 28.748047 24.001953 L 28.751953 24.001953 L 28.701172 23.957031 L 28.707031 23.957031 L 28.660156 23.914062 L 28.664062 23.914062 L 28.613281 23.869141 L 28.619141 23.869141 L 28.566406 23.822266 L 28.572266 23.822266 L 28.521484 23.777344 L 28.527344 23.777344 L 28.472656 23.728516 L 28.478516 23.728516 L 28.425781 23.681641 L 28.431641 23.681641 L 28.376953 23.632812 L 28.382812 23.632812 L 28.328125 23.583984 L 28.333984 23.583984 L 28.277344 23.533203 L 28.283203 23.533203 L 28.226562 23.482422 L 28.232422 23.482422 L 28.175781 23.431641 L 28.181641 23.431641 L 28.123047 23.378906 L 28.128906 23.378906 L 28.070312 23.326172 L 28.076172 23.326172 L 28.015625 23.271484 L 28.021484 23.271484 L 27.960938 23.216797 L 27.966797 23.216797 L 27.90625 23.162109 L 27.912109 23.162109 L 27.849609 23.105469 L 27.855469 23.105469 L 27.792969 23.048828 L 27.798828 23.048828 L 27.734375 22.990234 L 27.740234 22.990234 L 27.677734 22.933594 L 27.683594 22.933594 L 27.617188 22.873047 L 27.623047 22.873047 L 27.558594 22.814453 L 27.564453 22.814453 L 27.498047 22.753906 L 27.503906 22.753906 L 27.433594 22.691406 L 27.441406 22.691406 L 27.375 22.630859 L 27.380859 22.630859 L 27.310547 22.568359 L 27.318359 22.568359 L 27.246094 22.503906 L 27.253906 22.503906 L 27.181641 22.439453 L 27.189453 22.439453 L 27.117188 22.375 L 27.125 22.375 L 27.050781 22.308594 L 27.058594 22.308594 L 26.984375 22.242188 L 26.992188 22.242188 L 26.917969 22.175781 L 26.925781 22.175781 L 26.849609 22.107422 L 26.857422 22.107422 L 26.78125 22.039062 L 26.789062 22.039062 L 26.710938 21.96875 L 26.71875 21.96875 L 26.640625 21.898438 L 26.648438 21.898438 L 26.570312 21.828125 L 26.578125 21.828125 L 26.498047 21.755859 L 26.505859 21.755859 L 26.425781 21.683594 L 26.433594 21.683594 L 26.353516 21.611328 L 26.361328 21.611328 L 26.279297 21.537109 L 26.287109 21.537109 L 26.205078 21.462891 L 26.212891 21.462891 L 26.128906 21.386719 L 26.136719 21.386719 L 26.052734 21.310547 L 26.060547 21.310547 L 25.976562 21.234375 L 25.984375 21.234375 L 25.898438 21.15625 L 25.90625 21.15625 L 25.820312 21.078125 L 25.828125 21.078125 L 25.742188 21 L 25.75 21 L 25.660156 20.919922 L 25.669922 20.919922 L 25.578125 20.837891 L 25.587891 20.837891 L 25.498047 20.757812 L 25.507812 20.757812 L 25.416016 20.675781 L 25.425781 20.675781 L 25.332031 20.591797 L 25.341797 20.591797 L 25.25 20.509766 L 25.259766 20.509766 L 25.166016 20.425781 L 25.175781 20.425781 L 25.080078 20.339844 L 25.089844 20.339844 L 24.994141 20.253906 L 25.003906 20.253906 L 24.908203 20.167969 L 24.917969 20.167969 L 24.820312 20.080078 L 24.830078 20.080078 L 24.732422 19.992188 L 24.742188 19.992188 L 24.644531 19.904297 L 24.654297 19.904297 L 24.554688 19.814453 L 24.564453 19.814453 L 24.464844 19.724609 L 24.474609 19.724609 L 24.373047 19.632812 L 24.382812 19.632812 L 24.28125 19.541016 L 24.291016 19.541016 L 24.189453 19.449219 L 24.199219 19.449219 L 24.095703 19.355469 L 24.105469 19.355469 L 24.001953 19.261719 L 24.011719 19.261719 L 23.90625 19.166016 L 23.916016 19.166016 L 23.8125 19.072266 L 23.822266 19.072266 L 23.712891 18.974609 L 23.724609 18.974609 L 23.619141 18.878906 L 23.628906 18.878906 L 23.519531 18.78125 L 23.53125 18.78125 L 23.419922 18.681641 L 23.431641 18.681641 L 23.322266 18.583984 L 23.333984 18.583984 L 23.222656 18.484375 L 23.234375 18.484375 L 23.121094 18.382812 L 23.132812 18.382812 L 23.019531 18.28125 L 23.03125 18.28125 L 22.917969 18.179688 L 22.929688 18.179688 L 22.814453 18.076172 L 22.826172 18.076172 L 22.710938 17.972656 L 22.722656 17.972656 L 22.607422 17.869141 L 22.619141 17.869141 L 22.501953 17.763672 L 22.513672 17.763672 L 22.396484 17.658203 L 22.408203 17.658203 L 22.289062 17.550781 L 22.300781 17.550781 L 22.181641 17.443359 L 22.193359 17.443359 L 22.074219 17.335938 L 22.085938 17.335938 L 21.964844 17.226562 L 21.976562 17.226562 L 21.855469 17.117188 L 21.867188 17.117188 L 21.746094 17.007812 L 21.757812 17.007812 L 21.634766 16.896484 L 21.646484 16.896484 L 21.523438 16.785156 L 21.535156 16.785156 L 21.410156 16.671875 L 21.421875 16.671875 L 21.296875 16.558594 L 21.308594 16.558594 L 21.183594 16.445312 L 21.195312 16.445312 L 21.066406 16.330078 L 21.080078 16.330078 L 20.951172 16.214844 L 20.964844 16.214844 L 20.833984 16.097656 L 20.847656 16.097656 L 20.716797 15.980469 L 20.730469 15.980469 L 20.599609 15.863281 L 20.613281 15.863281 L 20.482422 15.746094 L 20.496094 15.746094 L 20.363281 15.626953 L 20.376953 15.626953 L 20.242188 15.505859 L 20.255859 15.505859 L 20.121094 15.384766 L 20.134766 15.384766 L 20 15.263672 L 20.013672 15.263672 L 19.878906 15.142578 L 19.892578 15.142578 L 19.755859 15.019531 L 19.769531 15.019531 L 19.630859 14.894531 L 19.644531 14.894531 L 19.507812 14.771484 L 19.521484 14.771484 L 19.382812 14.646484 L 19.396484 14.646484 L 19.255859 14.519531 L 19.269531 14.519531 L 19.128906 14.392578 L 19.142578 14.392578 L 19.001953 14.265625 L 19.015625 14.265625 L 18.875 14.138672 L 18.888672 14.138672 L 18.746094 14.009766 L 18.759766 14.009766 L 18.615234 13.878906 L 18.628906 13.878906 L 18.486328 13.75 L 18.5 13.75 L 18.355469 13.619141 L 18.369141 13.619141 L 18.220703 13.486328 L 18.236328 13.486328 L 18.087891 13.353516 L 18.103516 13.353516 L 17.955078 13.220703 L 17.970703 13.220703 L 17.820312 13.085938 L 17.835938 13.085938 L 17.685547 12.951172 L 17.701172 12.951172 L 17.550781 12.816406 L 17.566406 12.816406 L 17.414062 12.679688 L 17.429688 12.679688 L 17.277344 12.542969 L 17.292969 12.542969 L 17.138672 12.404297 L 17.154297 12.404297 L 17.001953 12.267578 L 17.017578 12.267578 L 16.861328 12.126953 L 16.876953 12.126953 L 16.722656 11.988281 L 16.738281 11.988281 L 16.582031 11.847656 L 16.597656 11.847656 L 16.439453 11.705078 L 16.455078 11.705078 L 16.296875 11.5625 L 16.3125 11.5625 L 16.154297 11.419922 L 16.169922 11.419922 L 16.011719 11.277344 L 16.027344 11.277344 L 15.867188 11.132812 L 15.882812 11.132812 L 15.720703 10.986328 L 15.736328 10.986328 L 15.576172 10.841797 L 15.591797 10.841797 L 15.429688 10.695312 L 15.445312 10.695312 L 15.28125 10.546875 L 15.296875 10.546875 L 15.132812 10.398438 L 15.148438 10.398438 L 10.148438 5.8984375 z "
       id="path5290"
       style="fill-opacity:1;fill:url(#linearGradient6147);opacity:0.2"
       clip-path="url(#clipPath6152)" />
    <path
       d="m 3.9999777,4.0333382 12.0000003,0 0,11.9333328 -12.0000003,0 z"
       id="path4"
       inkscape:connector-curvature="0"
       style="fill:none" />
    <path
       style="fill:none"
       inkscape:connector-curvature="0"
       id="path9754"
       d="m 18.999978,19.033339 12,0 0,11.933333 -12,0 z" />
    <path
       inkscape:connector-curvature="0"
       d="m 8.9999779,14.250005 0,-3 2.0000001,0 0,3 2.5,0 0,-4 1.5,0 -5.0000001,-4.5000002 -5.0000003,4.5000002 1.5000001,0 0,4 2.5000002,0 z"
       id="path5226"
       style="fill:#ffffff" />
  </g>
</svg>
