<?xml version="1.0" encoding="UTF-8" standalone="no"?>
<!-- Created with Inkscape (http://www.inkscape.org/) -->

<svg
   xmlns:dc="http://purl.org/dc/elements/1.1/"
   xmlns:cc="http://creativecommons.org/ns#"
   xmlns:rdf="http://www.w3.org/1999/02/22-rdf-syntax-ns#"
   xmlns:svg="http://www.w3.org/2000/svg"
   xmlns="http://www.w3.org/2000/svg"
   xmlns:xlink="http://www.w3.org/1999/xlink"
   xmlns:sodipodi="http://sodipodi.sourceforge.net/DTD/sodipodi-0.dtd"
   xmlns:inkscape="http://www.inkscape.org/namespaces/inkscape"
   width="5.6444445mm"
   height="5.6444445mm"
   viewBox="0 0 20 20"
   id="svg2"
   version="1.1"
   inkscape:version="0.91 r13725"
   sodipodi:docname="i.svg"
   inkscape:export-filename="/home/juergen/Projekte/Android/Android_Studio/Baumann_Theme/theme/src/main/assets/icons/res/drawable-xxhdpi/a150.png"
   inkscape:export-xdpi="648"
   inkscape:export-ydpi="648">
  <sodipodi:namedview
     id="base"
     pagecolor="#ffffff"
     bordercolor="#666666"
     borderopacity="1.0"
     inkscape:pageopacity="0.0"
     inkscape:pageshadow="2"
     inkscape:zoom="15.839192"
     inkscape:cx="16.605972"
     inkscape:cy="9.3861105"
     inkscape:document-units="px"
     inkscape:current-layer="layer1"
     showgrid="false"
     fit-margin-top="0"
     fit-margin-left="0"
     fit-margin-right="0"
     fit-margin-bottom="0"
     showguides="true"
     inkscape:guide-bbox="true"
     inkscape:window-width="1366"
     inkscape:window-height="744"
     inkscape:window-x="0"
     inkscape:window-y="24"
     inkscape:window-maximized="1"
     inkscape:snap-grids="true"
     inkscape:snap-to-guides="false"
     inkscape:snap-page="true">
    <inkscape:grid
       type="xygrid"
       id="grid4138" />
    <sodipodi:guide
       position="10,18"
       orientation="0,1"
       id="guide4140" />
    <sodipodi:guide
       position="10,2"
       orientation="0,1"
       id="guide4142" />
    <sodipodi:guide
       position="2,10"
       orientation="1,0"
       id="guide4144" />
    <sodipodi:guide
       position="0,0"
       orientation="0,20"
       id="guide4146" />
    <sodipodi:guide
       position="20,0"
       orientation="-20,0"
       id="guide4148" />
    <sodipodi:guide
       position="20,20"
       orientation="0,-20"
       id="guide4150" />
    <sodipodi:guide
       position="0,20"
       orientation="20,0"
       id="guide4152" />
    <sodipodi:guide
       position="18,10"
       orientation="1,0"
       id="guide4154" />
    <sodipodi:guide
       position="10,10"
       orientation="-0.70710678,0.70710678"
       id="guide4156" />
    <sodipodi:guide
       position="4,10"
       orientation="1,0"
       id="guide4160" />
    <sodipodi:guide
       position="16,10"
       orientation="1,0"
       id="guide4162" />
    <sodipodi:guide
       position="10,16"
       orientation="0,1"
       id="guide4164" />
    <sodipodi:guide
       position="10,4"
       orientation="0,1"
       id="guide4166" />
    <sodipodi:guide
       position="10,15"
       orientation="0,1"
       id="guide4168" />
    <sodipodi:guide
       position="10,5"
       orientation="0,1"
       id="guide4170" />
    <sodipodi:guide
       position="5,10"
       orientation="1,0"
       id="guide4172" />
    <sodipodi:guide
       position="15,10"
       orientation="1,0"
       id="guide4174" />
  </sodipodi:namedview>
  <defs
     id="defs4">
    <linearGradient
       inkscape:collect="always"
       id="linearGradient8255">
      <stop
         style="stop-color:#000000;stop-opacity:0.2"
         offset="0"
         id="stop8257" />
      <stop
         style="stop-color:#000000;stop-opacity:0;"
         offset="1"
         id="stop8259" />
    </linearGradient>
    <clipPath
       id="clipPath12478"
       clipPathUnits="userSpaceOnUse">
      <circle
         r="10"
         cy="10.000005"
         cx="9.9999781"
         id="circle12480"
         style="opacity:1;fill:#2196f3;fill-opacity:1;stroke:none;stroke-width:0.05069799;stroke-miterlimit:4;stroke-dasharray:none;stroke-opacity:1" />
    </clipPath>
    <clipPath
       clipPathUnits="userSpaceOnUse"
       id="clipPath5790">
      <circle
         r="10"
         cy="10.000005"
         cx="9.9999781"
         id="circle5792"
         style="opacity:1;fill:#2196f3;fill-opacity:1;stroke:none;stroke-width:0.05069799;stroke-miterlimit:4;stroke-dasharray:none;stroke-opacity:1"
         inkscape:export-filename="/home/juergen/path4136.png"
         inkscape:export-xdpi="648"
         inkscape:export-ydpi="648" />
    </clipPath>
    <clipPath
       id="clipPath5055"
       clipPathUnits="userSpaceOnUse">
      <circle
         r="10"
         cy="10.000005"
         cx="9.9999781"
         id="circle5057"
         style="opacity:1;fill:#2196f3;fill-opacity:1;stroke:none;stroke-width:0.05069799;stroke-miterlimit:4;stroke-dasharray:none;stroke-opacity:1"
         inkscape:export-filename="/home/juergen/path4136.png"
         inkscape:export-xdpi="648"
         inkscape:export-ydpi="648" />
    </clipPath>
    <clipPath
       clipPathUnits="userSpaceOnUse"
       id="clipPath5119">
      <circle
         r="10"
         cy="10.000005"
         cx="9.9999781"
         id="circle5121"
         style="opacity:1;fill:#2196f3;fill-opacity:1;stroke:none;stroke-width:0.05069799;stroke-miterlimit:4;stroke-dasharray:none;stroke-opacity:1"
         inkscape:export-filename="/home/juergen/Schreibtisch/path4136.png"
         inkscape:export-xdpi="648"
         inkscape:export-ydpi="648" />
    </clipPath>
    <clipPath
       id="clipPath5194"
       clipPathUnits="userSpaceOnUse">
      <circle
         r="10"
         cy="10.000005"
         cx="9.9999781"
         id="circle5196"
         style="opacity:1;fill:#cddc39;fill-opacity:1;stroke:none;stroke-width:0.05069799;stroke-miterlimit:4;stroke-dasharray:none;stroke-opacity:1"
         inkscape:export-filename="/home/juergen/Schreibtisch/path4136.png"
         inkscape:export-xdpi="648"
         inkscape:export-ydpi="648" />
    </clipPath>
    <clipPath
       clipPathUnits="userSpaceOnUse"
       id="clipPath6175">
      <circle
         r="10"
         cy="10.000005"
         cx="9.9999781"
         id="circle6177"
         style="opacity:1;fill:#f44336;fill-opacity:1;stroke:none;stroke-width:0.05069799;stroke-miterlimit:4;stroke-dasharray:none;stroke-opacity:1"
         inkscape:export-filename="/home/juergen/Schreibtisch/path4136.png"
         inkscape:export-xdpi="648"
         inkscape:export-ydpi="648" />
    </clipPath>
    <clipPath
       id="clipPath7176"
       clipPathUnits="userSpaceOnUse">
      <circle
         r="10"
         cy="10.000005"
         cx="9.9999781"
         id="circle7178"
         style="opacity:1;fill:#9c27b0;fill-opacity:1;stroke:none;stroke-width:0.05069799;stroke-miterlimit:4;stroke-dasharray:none;stroke-opacity:1"
         inkscape:export-filename="/home/juergen/Schreibtisch/path4136.png"
         inkscape:export-xdpi="648"
         inkscape:export-ydpi="648" />
    </clipPath>
    <clipPath
       clipPathUnits="userSpaceOnUse"
       id="clipPath8165">
      <circle
         r="10"
         cy="10.000005"
         cx="9.9999781"
         id="circle8167"
         style="opacity:1;fill:#ffc107;fill-opacity:1;stroke:none;stroke-width:0.05069799;stroke-miterlimit:4;stroke-dasharray:none;stroke-opacity:1"
         inkscape:export-filename="/home/juergen/Schreibtisch/path4136.png"
         inkscape:export-xdpi="648"
         inkscape:export-ydpi="648" />
    </clipPath>
    <clipPath
       id="clipPath9162"
       clipPathUnits="userSpaceOnUse">
      <circle
         r="10"
         cy="10.000005"
         cx="9.9999781"
         id="circle9164"
         style="opacity:1;fill:#ff9800;fill-opacity:1;stroke:none;stroke-width:0.05069799;stroke-miterlimit:4;stroke-dasharray:none;stroke-opacity:1"
         inkscape:export-filename="/home/juergen/Schreibtisch/path4136.png"
         inkscape:export-xdpi="648"
         inkscape:export-ydpi="648" />
    </clipPath>
    <clipPath
       clipPathUnits="userSpaceOnUse"
       id="clipPath5147">
      <circle
         r="10"
         cy="10.000005"
         cx="9.9999781"
         id="circle5149"
         style="opacity:1;fill:#ff9800;fill-opacity:1;stroke:none;stroke-width:0.05069799;stroke-miterlimit:4;stroke-dasharray:none;stroke-opacity:1"
         inkscape:export-filename="/home/juergen/Schreibtisch/path4136.png"
         inkscape:export-xdpi="648"
         inkscape:export-ydpi="648" />
    </clipPath>
    <clipPath
       id="clipPath6144"
       clipPathUnits="userSpaceOnUse">
      <circle
         r="10"
         cy="10.000005"
         cx="9.9999781"
         id="circle6146"
         style="opacity:1;fill:#e91e63;fill-opacity:1;stroke:none;stroke-width:0.05069799;stroke-miterlimit:4;stroke-dasharray:none;stroke-opacity:1"
         inkscape:export-filename="/home/juergen/Schreibtisch/path4136.png"
         inkscape:export-xdpi="648"
         inkscape:export-ydpi="648" />
    </clipPath>
    <clipPath
       clipPathUnits="userSpaceOnUse"
       id="clipPath7143">
      <circle
         r="10"
         cy="10.000005"
         cx="9.9999781"
         id="circle7145"
         style="opacity:1;fill:#ffeb3b;fill-opacity:1;stroke:none;stroke-width:0.05069799;stroke-miterlimit:4;stroke-dasharray:none;stroke-opacity:1"
         inkscape:export-filename="/home/juergen/Schreibtisch/path4136.png"
         inkscape:export-xdpi="648"
         inkscape:export-ydpi="648" />
    </clipPath>
    <clipPath
       id="clipPath8148"
       clipPathUnits="userSpaceOnUse">
      <circle
         r="10"
         cy="10.000005"
         cx="9.9999781"
         id="circle8150"
         style="opacity:1;fill:#9c27b0;fill-opacity:1;stroke:none;stroke-width:0.05069799;stroke-miterlimit:4;stroke-dasharray:none;stroke-opacity:1"
         inkscape:export-filename="/home/juergen/Schreibtisch/path4136.png"
         inkscape:export-xdpi="648"
         inkscape:export-ydpi="648" />
    </clipPath>
    <clipPath
       clipPathUnits="userSpaceOnUse"
       id="clipPath5383">
      <circle
         r="10"
         cy="10.000005"
         cx="9.9999781"
         id="circle5385"
         style="opacity:1;fill:#f44336;fill-opacity:1;stroke:none;stroke-width:0.05069799;stroke-miterlimit:4;stroke-dasharray:none;stroke-opacity:1"
         inkscape:export-filename="/home/juergen/Schreibtisch/path4136.png"
         inkscape:export-xdpi="648"
         inkscape:export-ydpi="648" />
    </clipPath>
    <clipPath
       id="clipPath5185"
       clipPathUnits="userSpaceOnUse">
      <circle
         r="10"
         cy="10.000005"
         cx="9.9999781"
         id="circle5187"
         style="opacity:1;fill:#00bcd4;fill-opacity:1;stroke:none;stroke-width:0.05069799;stroke-miterlimit:4;stroke-dasharray:none;stroke-opacity:1"
         inkscape:export-filename="/home/juergen/Schreibtisch/path4136.png"
         inkscape:export-xdpi="648"
         inkscape:export-ydpi="648" />
    </clipPath>
    <clipPath
       clipPathUnits="userSpaceOnUse"
       id="clipPath6210">
      <circle
         r="10"
         cy="10.000005"
         cx="9.9999781"
         id="circle6212"
         style="opacity:1;fill:#673ab7;fill-opacity:1;stroke:none;stroke-width:0.05069799;stroke-miterlimit:4;stroke-dasharray:none;stroke-opacity:1"
         inkscape:export-filename="/home/juergen/Projekte/Android/Android_Studio/Baumann_Theme/theme/src/main/assets/icons/res/drawable-xxhdpi/a169.png"
         inkscape:export-xdpi="648"
         inkscape:export-ydpi="648" />
    </clipPath>
    <clipPath
       id="clipPath7239"
       clipPathUnits="userSpaceOnUse">
      <circle
         r="10"
         cy="10.000005"
         cx="9.9999781"
         id="circle7241"
         style="opacity:1;fill:#cddc39;fill-opacity:1;stroke:none;stroke-width:0.05069799;stroke-miterlimit:4;stroke-dasharray:none;stroke-opacity:1"
         inkscape:export-filename="/home/juergen/Projekte/Android/Android_Studio/Baumann_Theme/theme/src/main/assets/icons/res/drawable-xxhdpi/a171.png"
         inkscape:export-xdpi="648"
         inkscape:export-ydpi="648" />
    </clipPath>
    <clipPath
       id="clipPath7295"
       clipPathUnits="userSpaceOnUse">
      <path
         inkscape:connector-curvature="0"
         id="path7297"
         d="m 11.6964,14.46429 -0.089,-2.36608 -0.1785,-0.9375 -1.25,-1.20535 -0.3125,-3.75 -3.259,-0.13393 -1.4285,2.27678 -1.5179,3.16965 0.1339,2.14285 7.9018,0.9375 z"
         style="fill:none;fill-rule:evenodd;stroke:#000000;stroke-width:1px;stroke-linecap:butt;stroke-linejoin:miter;stroke-opacity:1" />
    </clipPath>
    <linearGradient
       inkscape:collect="always"
       xlink:href="#linearGradient8255"
       id="linearGradient8261"
       x1="10"
       y1="10.000001"
       x2="20"
       y2="20"
       gradientUnits="userSpaceOnUse" />
    <clipPath
       clipPathUnits="userSpaceOnUse"
       id="clipPath8265">
      <circle
         r="10"
         cy="10.000005"
         cx="9.9999781"
         id="circle8267"
         style="opacity:1;fill:#009688;fill-opacity:1;stroke:none;stroke-width:0.05069799;stroke-miterlimit:4;stroke-dasharray:none;stroke-opacity:1"
         inkscape:export-filename="/home/juergen/Projekte/Android/Android_Studio/Baumann_Theme/theme/src/main/assets/icons/res/drawable-xxhdpi/a172.png"
         inkscape:export-xdpi="648"
         inkscape:export-ydpi="648" />
    </clipPath>
  </defs>
  <metadata
     id="metadata7">
    <rdf:RDF>
      <cc:Work
         rdf:about="">
        <dc:format>image/svg+xml</dc:format>
        <dc:type
           rdf:resource="http://purl.org/dc/dcmitype/StillImage" />
        <dc:title></dc:title>
      </cc:Work>
    </rdf:RDF>
  </metadata>
  <g
     inkscape:label="Hintergrund"
     inkscape:groupmode="layer"
     id="layer1"
     transform="translate(1058.1428,-861.93365)">
    <circle
       inkscape:export-ydpi="648"
       inkscape:export-xdpi="648"
       inkscape:export-filename="/home/juergen/Projekte/Android/Android_Studio/Baumann_Theme/theme/src/main/assets/icons/res/drawable-xxhdpi/a172.png"
       style="opacity:1;fill:#fafafa;fill-opacity:1;stroke:none;stroke-width:0.05069799;stroke-miterlimit:4;stroke-dasharray:none;stroke-opacity:1"
       id="path4136"
       cx="-1048.1428"
       cy="871.93365"
       r="10" />
    <path
       style="font-style:normal;font-weight:normal;font-size:medium;line-height:125%;font-family:sans-serif;letter-spacing:0px;word-spacing:0px;opacity:0.2;fill:url(#linearGradient8261);fill-opacity:1;stroke:none;stroke-width:1;stroke-linecap:butt;stroke-linejoin:miter;stroke-opacity:1"
       d="M 9.3242188 5 L 9.3242188 15 L 9.3984375 15 L 9.3984375 15.074219 L 9.4726562 15.074219 L 9.4726562 15.148438 L 9.546875 15.148438 L 9.546875 15.224609 L 9.6210938 15.224609 L 9.6210938 15.298828 L 9.6972656 15.298828 L 9.6972656 15.373047 L 9.7714844 15.373047 L 9.7714844 15.447266 L 9.8457031 15.447266 L 9.8457031 15.521484 L 9.9199219 15.521484 L 9.9199219 15.597656 L 9.9941406 15.597656 L 9.9941406 15.671875 L 10.070312 15.671875 L 10.070312 15.746094 L 10.144531 15.746094 L 10.144531 15.820312 L 10.21875 15.820312 L 10.21875 15.896484 L 10.292969 15.896484 L 10.292969 15.970703 L 10.369141 15.970703 L 10.369141 16.044922 L 10.443359 16.044922 L 10.443359 16.119141 L 10.517578 16.119141 L 10.517578 16.193359 L 10.591797 16.193359 L 10.591797 16.269531 L 10.666016 16.269531 L 10.666016 16.34375 L 10.742188 16.34375 L 10.742188 16.417969 L 10.816406 16.417969 L 10.816406 16.492188 L 10.890625 16.492188 L 10.890625 16.566406 L 10.964844 16.566406 L 10.964844 16.642578 L 11.039062 16.642578 L 11.039062 16.716797 L 11.115234 16.716797 L 11.115234 16.791016 L 11.189453 16.791016 L 11.189453 16.865234 L 11.263672 16.865234 L 11.263672 16.939453 L 11.337891 16.939453 L 11.337891 17.015625 L 11.412109 17.015625 L 11.412109 17.089844 L 11.488281 17.089844 L 11.488281 17.164062 L 11.5625 17.164062 L 11.5625 17.238281 L 11.636719 17.238281 L 11.636719 17.3125 L 11.710938 17.3125 L 11.710938 17.388672 L 11.785156 17.388672 L 11.785156 17.462891 L 11.861328 17.462891 L 11.861328 17.537109 L 11.935547 17.537109 L 11.935547 17.611328 L 12.009766 17.611328 L 12.009766 17.6875 L 12.083984 17.6875 L 12.083984 17.761719 L 12.160156 17.761719 L 12.160156 17.835938 L 12.234375 17.835938 L 12.234375 17.910156 L 12.308594 17.910156 L 12.308594 17.984375 L 12.382812 17.984375 L 12.382812 18.060547 L 12.457031 18.060547 L 12.457031 18.134766 L 12.533203 18.134766 L 12.533203 18.208984 L 12.607422 18.208984 L 12.607422 18.283203 L 12.681641 18.283203 L 12.681641 18.357422 L 12.755859 18.357422 L 12.755859 18.433594 L 12.830078 18.433594 L 12.830078 18.507812 L 12.90625 18.507812 L 12.90625 18.582031 L 12.980469 18.582031 L 12.980469 18.65625 L 13.054688 18.65625 L 13.054688 18.730469 L 13.128906 18.730469 L 13.128906 18.806641 L 13.203125 18.806641 L 13.203125 18.880859 L 13.279297 18.880859 L 13.279297 18.955078 L 13.353516 18.955078 L 13.353516 19.029297 L 13.427734 19.029297 L 13.427734 19.103516 L 13.501953 19.103516 L 13.501953 19.179688 L 13.576172 19.179688 L 13.576172 19.253906 L 13.652344 19.253906 L 13.652344 19.328125 L 13.726562 19.328125 L 13.726562 19.402344 L 13.800781 19.402344 L 13.800781 19.478516 L 13.875 19.478516 L 13.875 19.552734 L 13.951172 19.552734 L 13.951172 19.626953 L 14.025391 19.626953 L 14.025391 19.701172 L 14.099609 19.701172 L 14.099609 19.775391 L 14.173828 19.775391 L 14.173828 19.851562 L 14.248047 19.851562 L 14.248047 19.925781 L 14.324219 19.925781 L 14.324219 20 L 14.398438 20 L 14.398438 20.074219 L 14.472656 20.074219 L 14.472656 20.148438 L 14.546875 20.148438 L 14.546875 20.224609 L 14.621094 20.224609 L 14.621094 20.298828 L 14.697266 20.298828 L 14.697266 20.373047 L 14.771484 20.373047 L 14.771484 20.447266 L 14.845703 20.447266 L 14.845703 20.521484 L 14.919922 20.521484 L 14.919922 20.597656 L 14.994141 20.597656 L 14.994141 20.671875 L 15.070312 20.671875 L 15.070312 20.746094 L 15.144531 20.746094 L 15.144531 20.820312 L 15.21875 20.820312 L 15.21875 20.896484 L 15.292969 20.896484 L 15.292969 20.970703 L 15.369141 20.970703 L 15.369141 21.044922 L 15.443359 21.044922 L 15.443359 21.119141 L 15.517578 21.119141 L 15.517578 21.193359 L 15.591797 21.193359 L 15.591797 21.269531 L 15.666016 21.269531 L 15.666016 21.34375 L 15.742188 21.34375 L 15.742188 21.417969 L 15.816406 21.417969 L 15.816406 21.492188 L 15.890625 21.492188 L 15.890625 21.566406 L 15.964844 21.566406 L 15.964844 21.642578 L 16.039062 21.642578 L 16.039062 21.716797 L 16.115234 21.716797 L 16.115234 21.791016 L 16.189453 21.791016 L 16.189453 21.865234 L 16.263672 21.865234 L 16.263672 21.939453 L 16.337891 21.939453 L 16.337891 22.015625 L 16.412109 22.015625 L 16.412109 22.089844 L 16.488281 22.089844 L 16.488281 22.164062 L 16.5625 22.164062 L 16.5625 22.238281 L 16.636719 22.238281 L 16.636719 22.3125 L 16.710938 22.3125 L 16.710938 22.388672 L 16.785156 22.388672 L 16.785156 22.462891 L 16.861328 22.462891 L 16.861328 22.537109 L 16.935547 22.537109 L 16.935547 22.611328 L 17.009766 22.611328 L 17.009766 22.6875 L 17.083984 22.6875 L 17.083984 22.761719 L 17.160156 22.761719 L 17.160156 22.835938 L 17.234375 22.835938 L 17.234375 22.910156 L 17.308594 22.910156 L 17.308594 22.984375 L 17.382812 22.984375 L 17.382812 23.060547 L 17.457031 23.060547 L 17.457031 23.134766 L 17.533203 23.134766 L 17.533203 23.208984 L 17.607422 23.208984 L 17.607422 23.283203 L 17.681641 23.283203 L 17.681641 23.357422 L 17.755859 23.357422 L 17.755859 23.433594 L 17.830078 23.433594 L 17.830078 23.507812 L 17.90625 23.507812 L 17.90625 23.582031 L 17.980469 23.582031 L 17.980469 23.65625 L 18.054688 23.65625 L 18.054688 23.730469 L 18.128906 23.730469 L 18.128906 23.806641 L 18.203125 23.806641 L 18.203125 23.880859 L 18.279297 23.880859 L 18.279297 23.955078 L 18.353516 23.955078 L 18.353516 24.029297 L 18.427734 24.029297 L 18.427734 24.103516 L 18.501953 24.103516 L 18.501953 24.179688 L 18.576172 24.179688 L 18.576172 24.253906 L 18.652344 24.253906 L 18.652344 24.328125 L 18.726562 24.328125 L 18.726562 24.402344 L 18.800781 24.402344 L 18.800781 24.478516 L 18.875 24.478516 L 18.875 24.552734 L 18.951172 24.552734 L 18.951172 24.626953 L 19.025391 24.626953 L 19.025391 24.701172 L 19.099609 24.701172 L 19.099609 24.775391 L 19.173828 24.775391 L 19.173828 24.851562 L 19.248047 24.851562 L 19.248047 24.925781 L 19.324219 24.925781 L 19.324219 25 L 19.398438 25 L 19.398438 25.074219 L 19.472656 25.074219 L 19.472656 25.148438 L 19.546875 25.148438 L 19.546875 25.224609 L 19.621094 25.224609 L 19.621094 25.298828 L 19.697266 25.298828 L 19.697266 25.373047 L 19.771484 25.373047 L 19.771484 25.447266 L 19.845703 25.447266 L 19.845703 25.521484 L 19.919922 25.521484 L 19.919922 25.597656 L 19.994141 25.597656 L 19.994141 25.671875 L 20.070312 25.671875 L 20.070312 25.746094 L 20.144531 25.746094 L 20.144531 25.820312 L 20.21875 25.820312 L 20.21875 25.896484 L 20.292969 25.896484 L 20.292969 25.970703 L 20.369141 25.970703 L 20.369141 26.044922 L 20.443359 26.044922 L 20.443359 26.119141 L 20.517578 26.119141 L 20.517578 26.193359 L 20.591797 26.193359 L 20.591797 26.269531 L 20.666016 26.269531 L 20.666016 26.34375 L 20.742188 26.34375 L 20.742188 26.417969 L 20.816406 26.417969 L 20.816406 26.492188 L 20.890625 26.492188 L 20.890625 26.566406 L 20.964844 26.566406 L 20.964844 26.642578 L 21.039062 26.642578 L 21.039062 26.716797 L 21.115234 26.716797 L 21.115234 26.791016 L 21.189453 26.791016 L 21.189453 26.865234 L 21.263672 26.865234 L 21.263672 26.939453 L 21.337891 26.939453 L 21.337891 27.015625 L 21.412109 27.015625 L 21.412109 27.089844 L 21.488281 27.089844 L 21.488281 27.164062 L 21.5625 27.164062 L 21.5625 27.238281 L 21.636719 27.238281 L 21.636719 27.3125 L 21.710938 27.3125 L 21.710938 27.388672 L 21.785156 27.388672 L 21.785156 27.462891 L 21.861328 27.462891 L 21.861328 27.537109 L 21.935547 27.537109 L 21.935547 27.611328 L 22.009766 27.611328 L 22.009766 27.6875 L 22.083984 27.6875 L 22.083984 27.761719 L 22.160156 27.761719 L 22.160156 27.835938 L 22.234375 27.835938 L 22.234375 27.910156 L 22.308594 27.910156 L 22.308594 27.984375 L 22.382812 27.984375 L 22.382812 28.060547 L 22.457031 28.060547 L 22.457031 28.134766 L 22.533203 28.134766 L 22.533203 28.208984 L 22.607422 28.208984 L 22.607422 28.283203 L 22.681641 28.283203 L 22.681641 28.357422 L 22.755859 28.357422 L 22.755859 28.433594 L 22.830078 28.433594 L 22.830078 28.507812 L 22.90625 28.507812 L 22.90625 28.582031 L 22.980469 28.582031 L 22.980469 28.65625 L 23.054688 28.65625 L 23.054688 28.730469 L 23.128906 28.730469 L 23.128906 28.806641 L 23.203125 28.806641 L 23.203125 28.880859 L 23.279297 28.880859 L 23.279297 28.955078 L 23.353516 28.955078 L 23.353516 29.029297 L 23.427734 29.029297 L 23.427734 29.103516 L 23.501953 29.103516 L 23.501953 29.179688 L 23.576172 29.179688 L 23.576172 29.253906 L 23.652344 29.253906 L 23.652344 29.328125 L 23.726562 29.328125 L 23.726562 29.402344 L 23.800781 29.402344 L 23.800781 29.478516 L 23.875 29.478516 L 23.875 29.552734 L 23.951172 29.552734 L 23.951172 29.626953 L 24.025391 29.626953 L 24.025391 29.701172 L 24.099609 29.701172 L 24.099609 29.775391 L 24.173828 29.775391 L 24.173828 29.851562 L 24.248047 29.851562 L 24.248047 29.925781 L 24.324219 29.925781 L 24.324219 30 L 25.675781 30 L 25.675781 20 L 25.601562 20 L 25.601562 19.925781 L 25.527344 19.925781 L 25.527344 19.851562 L 25.453125 19.851562 L 25.453125 19.775391 L 25.376953 19.775391 L 25.376953 19.701172 L 25.302734 19.701172 L 25.302734 19.626953 L 25.228516 19.626953 L 25.228516 19.552734 L 25.154297 19.552734 L 25.154297 19.478516 L 25.080078 19.478516 L 25.080078 19.402344 L 25.003906 19.402344 L 25.003906 19.328125 L 24.929688 19.328125 L 24.929688 19.253906 L 24.855469 19.253906 L 24.855469 19.179688 L 24.78125 19.179688 L 24.78125 19.103516 L 24.707031 19.103516 L 24.707031 19.029297 L 24.630859 19.029297 L 24.630859 18.955078 L 24.556641 18.955078 L 24.556641 18.880859 L 24.482422 18.880859 L 24.482422 18.806641 L 24.408203 18.806641 L 24.408203 18.730469 L 24.333984 18.730469 L 24.333984 18.65625 L 24.257812 18.65625 L 24.257812 18.582031 L 24.183594 18.582031 L 24.183594 18.507812 L 24.109375 18.507812 L 24.109375 18.433594 L 24.035156 18.433594 L 24.035156 18.357422 L 23.960938 18.357422 L 23.960938 18.283203 L 23.884766 18.283203 L 23.884766 18.208984 L 23.810547 18.208984 L 23.810547 18.134766 L 23.736328 18.134766 L 23.736328 18.060547 L 23.662109 18.060547 L 23.662109 17.984375 L 23.585938 17.984375 L 23.585938 17.910156 L 23.511719 17.910156 L 23.511719 17.835938 L 23.4375 17.835938 L 23.4375 17.761719 L 23.363281 17.761719 L 23.363281 17.6875 L 23.289062 17.6875 L 23.289062 17.611328 L 23.212891 17.611328 L 23.212891 17.537109 L 23.138672 17.537109 L 23.138672 17.462891 L 23.064453 17.462891 L 23.064453 17.388672 L 22.990234 17.388672 L 22.990234 17.3125 L 22.916016 17.3125 L 22.916016 17.238281 L 22.839844 17.238281 L 22.839844 17.164062 L 22.765625 17.164062 L 22.765625 17.089844 L 22.691406 17.089844 L 22.691406 17.015625 L 22.617188 17.015625 L 22.617188 16.939453 L 22.542969 16.939453 L 22.542969 16.865234 L 22.466797 16.865234 L 22.466797 16.791016 L 22.392578 16.791016 L 22.392578 16.716797 L 22.318359 16.716797 L 22.318359 16.642578 L 22.244141 16.642578 L 22.244141 16.566406 L 22.167969 16.566406 L 22.167969 16.492188 L 22.09375 16.492188 L 22.09375 16.417969 L 22.019531 16.417969 L 22.019531 16.34375 L 21.945312 16.34375 L 21.945312 16.269531 L 21.871094 16.269531 L 21.871094 16.193359 L 21.794922 16.193359 L 21.794922 16.119141 L 21.720703 16.119141 L 21.720703 16.044922 L 21.646484 16.044922 L 21.646484 15.970703 L 21.572266 15.970703 L 21.572266 15.896484 L 21.498047 15.896484 L 21.498047 15.820312 L 21.421875 15.820312 L 21.421875 15.746094 L 21.347656 15.746094 L 21.347656 15.671875 L 21.273438 15.671875 L 21.273438 15.597656 L 21.199219 15.597656 L 21.199219 15.521484 L 21.125 15.521484 L 21.125 15.447266 L 21.048828 15.447266 L 21.048828 15.373047 L 20.974609 15.373047 L 20.974609 15.298828 L 20.900391 15.298828 L 20.900391 15.224609 L 20.826172 15.224609 L 20.826172 15.148438 L 20.751953 15.148438 L 20.751953 15.074219 L 20.675781 15.074219 L 20.675781 15 L 20.601562 15 L 20.601562 14.925781 L 20.527344 14.925781 L 20.527344 14.851562 L 20.453125 14.851562 L 20.453125 14.775391 L 20.376953 14.775391 L 20.376953 14.701172 L 20.302734 14.701172 L 20.302734 14.626953 L 20.228516 14.626953 L 20.228516 14.552734 L 20.154297 14.552734 L 20.154297 14.478516 L 20.080078 14.478516 L 20.080078 14.402344 L 20.003906 14.402344 L 20.003906 14.328125 L 19.929688 14.328125 L 19.929688 14.253906 L 19.855469 14.253906 L 19.855469 14.179688 L 19.78125 14.179688 L 19.78125 14.103516 L 19.707031 14.103516 L 19.707031 14.029297 L 19.630859 14.029297 L 19.630859 13.955078 L 19.556641 13.955078 L 19.556641 13.880859 L 19.482422 13.880859 L 19.482422 13.806641 L 19.408203 13.806641 L 19.408203 13.730469 L 19.333984 13.730469 L 19.333984 13.65625 L 19.257812 13.65625 L 19.257812 13.582031 L 19.183594 13.582031 L 19.183594 13.507812 L 19.109375 13.507812 L 19.109375 13.433594 L 19.035156 13.433594 L 19.035156 13.357422 L 18.960938 13.357422 L 18.960938 13.283203 L 18.884766 13.283203 L 18.884766 13.208984 L 18.810547 13.208984 L 18.810547 13.134766 L 18.736328 13.134766 L 18.736328 13.060547 L 18.662109 13.060547 L 18.662109 12.984375 L 18.585938 12.984375 L 18.585938 12.910156 L 18.511719 12.910156 L 18.511719 12.835938 L 18.4375 12.835938 L 18.4375 12.761719 L 18.363281 12.761719 L 18.363281 12.6875 L 18.289062 12.6875 L 18.289062 12.611328 L 18.212891 12.611328 L 18.212891 12.537109 L 18.138672 12.537109 L 18.138672 12.462891 L 18.064453 12.462891 L 18.064453 12.388672 L 17.990234 12.388672 L 17.990234 12.3125 L 17.916016 12.3125 L 17.916016 12.238281 L 17.839844 12.238281 L 17.839844 12.164062 L 17.765625 12.164062 L 17.765625 12.089844 L 17.691406 12.089844 L 17.691406 12.015625 L 17.617188 12.015625 L 17.617188 11.939453 L 17.542969 11.939453 L 17.542969 11.865234 L 17.466797 11.865234 L 17.466797 11.791016 L 17.392578 11.791016 L 17.392578 11.716797 L 17.318359 11.716797 L 17.318359 11.642578 L 17.244141 11.642578 L 17.244141 11.566406 L 17.167969 11.566406 L 17.167969 11.492188 L 17.09375 11.492188 L 17.09375 11.417969 L 17.019531 11.417969 L 17.019531 11.34375 L 16.945312 11.34375 L 16.945312 11.269531 L 16.871094 11.269531 L 16.871094 11.193359 L 16.794922 11.193359 L 16.794922 11.119141 L 16.720703 11.119141 L 16.720703 11.044922 L 16.646484 11.044922 L 16.646484 10.970703 L 16.572266 10.970703 L 16.572266 10.896484 L 16.498047 10.896484 L 16.498047 10.820312 L 16.421875 10.820312 L 16.421875 10.746094 L 16.347656 10.746094 L 16.347656 10.671875 L 16.273438 10.671875 L 16.273438 10.597656 L 16.199219 10.597656 L 16.199219 10.521484 L 16.125 10.521484 L 16.125 10.447266 L 16.048828 10.447266 L 16.048828 10.373047 L 15.974609 10.373047 L 15.974609 10.298828 L 15.900391 10.298828 L 15.900391 10.224609 L 15.826172 10.224609 L 15.826172 10.148438 L 15.751953 10.148438 L 15.751953 10.074219 L 15.675781 10.074219 L 15.675781 10 L 15.601562 10 L 15.601562 9.9257812 L 15.527344 9.9257812 L 15.527344 9.8515625 L 15.453125 9.8515625 L 15.453125 9.7753906 L 15.376953 9.7753906 L 15.376953 9.7011719 L 15.302734 9.7011719 L 15.302734 9.6269531 L 15.228516 9.6269531 L 15.228516 9.5527344 L 15.154297 9.5527344 L 15.154297 9.4785156 L 15.080078 9.4785156 L 15.080078 9.4023438 L 15.003906 9.4023438 L 15.003906 9.328125 L 14.929688 9.328125 L 14.929688 9.2539062 L 14.855469 9.2539062 L 14.855469 9.1796875 L 14.78125 9.1796875 L 14.78125 9.1035156 L 14.707031 9.1035156 L 14.707031 9.0292969 L 14.630859 9.0292969 L 14.630859 8.9550781 L 14.556641 8.9550781 L 14.556641 8.8808594 L 14.482422 8.8808594 L 14.482422 8.8066406 L 14.408203 8.8066406 L 14.408203 8.7304688 L 14.333984 8.7304688 L 14.333984 8.65625 L 14.257812 8.65625 L 14.257812 8.5820312 L 14.183594 8.5820312 L 14.183594 8.5078125 L 14.109375 8.5078125 L 14.109375 8.4335938 L 14.035156 8.4335938 L 14.035156 8.3574219 L 13.960938 8.3574219 L 13.960938 8.2832031 L 13.884766 8.2832031 L 13.884766 8.2089844 L 13.810547 8.2089844 L 13.810547 8.1347656 L 13.736328 8.1347656 L 13.736328 8.0605469 L 13.662109 8.0605469 L 13.662109 7.984375 L 13.585938 7.984375 L 13.585938 7.9101562 L 13.511719 7.9101562 L 13.511719 7.8359375 L 13.4375 7.8359375 L 13.4375 7.7617188 L 13.363281 7.7617188 L 13.363281 7.6875 L 13.289062 7.6875 L 13.289062 7.6113281 L 13.212891 7.6113281 L 13.212891 7.5371094 L 13.138672 7.5371094 L 13.138672 7.4628906 L 13.064453 7.4628906 L 13.064453 7.3886719 L 12.990234 7.3886719 L 12.990234 7.3125 L 12.916016 7.3125 L 12.916016 7.2382812 L 12.839844 7.2382812 L 12.839844 7.1640625 L 12.765625 7.1640625 L 12.765625 7.0898438 L 12.691406 7.0898438 L 12.691406 7.015625 L 12.617188 7.015625 L 12.617188 6.9394531 L 12.542969 6.9394531 L 12.542969 6.8652344 L 12.466797 6.8652344 L 12.466797 6.7910156 L 12.392578 6.7910156 L 12.392578 6.7167969 L 12.318359 6.7167969 L 12.318359 6.6425781 L 12.244141 6.6425781 L 12.244141 6.5664062 L 12.167969 6.5664062 L 12.167969 6.4921875 L 12.09375 6.4921875 L 12.09375 6.4179688 L 12.019531 6.4179688 L 12.019531 6.34375 L 11.945312 6.34375 L 11.945312 6.2695312 L 11.871094 6.2695312 L 11.871094 6.1933594 L 11.794922 6.1933594 L 11.794922 6.1191406 L 11.720703 6.1191406 L 11.720703 6.0449219 L 11.646484 6.0449219 L 11.646484 5.9707031 L 11.572266 5.9707031 L 11.572266 5.8964844 L 11.498047 5.8964844 L 11.498047 5.8203125 L 11.421875 5.8203125 L 11.421875 5.7460938 L 11.347656 5.7460938 L 11.347656 5.671875 L 11.273438 5.671875 L 11.273438 5.5976562 L 11.199219 5.5976562 L 11.199219 5.5214844 L 11.125 5.5214844 L 11.125 5.4472656 L 11.048828 5.4472656 L 11.048828 5.3730469 L 10.974609 5.3730469 L 10.974609 5.2988281 L 10.900391 5.2988281 L 10.900391 5.2246094 L 10.826172 5.2246094 L 10.826172 5.1484375 L 10.751953 5.1484375 L 10.751953 5.0742188 L 10.675781 5.0742188 L 10.675781 5 L 9.3242188 5 z "
       transform="translate(-1058.1428,861.93365)"
       id="path7379"
       clip-path="url(#clipPath8265)" />
    <path
       d="m -1048.8194,866.93365 1.353,0 0,10 -1.353,0 0,-10 z"
       style="font-style:normal;font-weight:normal;font-size:medium;line-height:125%;font-family:sans-serif;letter-spacing:0px;word-spacing:0px;fill:#9e9e9e;fill-opacity:1;stroke:none;stroke-width:1px;stroke-linecap:butt;stroke-linejoin:miter;stroke-opacity:1"
       id="path7304" />
  </g>
  <g
     style="display:inline"
     inkscape:groupmode="layer"
     id="layer2"
     inkscape:label="Icon">
    <path
       d="m 3.9999777,4.0333382 12.0000003,0 0,11.9333328 -12.0000003,0 z"
       id="path4"
       inkscape:connector-curvature="0"
       style="fill:none" />
    <path
       style="fill:none"
       inkscape:connector-curvature="0"
       id="path9754"
       d="m 18.999978,19.033339 12,0 0,11.933333 -12,0 z" />
  </g>
</svg>
