<?xml version="1.0" encoding="UTF-8" standalone="no"?>
<!-- Created with Inkscape (http://www.inkscape.org/) -->

<svg
   xmlns:dc="http://purl.org/dc/elements/1.1/"
   xmlns:cc="http://creativecommons.org/ns#"
   xmlns:rdf="http://www.w3.org/1999/02/22-rdf-syntax-ns#"
   xmlns:svg="http://www.w3.org/2000/svg"
   xmlns="http://www.w3.org/2000/svg"
   xmlns:xlink="http://www.w3.org/1999/xlink"
   xmlns:sodipodi="http://sodipodi.sourceforge.net/DTD/sodipodi-0.dtd"
   xmlns:inkscape="http://www.inkscape.org/namespaces/inkscape"
   width="5.6444445mm"
   height="5.6444445mm"
   viewBox="0 0 20 20"
   id="svg2"
   version="1.1"
   inkscape:version="0.91 r13725"
   sodipodi:docname="IconRequest.svg"
   inkscape:export-filename="/home/juergen/Schreibtisch/Icons/Email.svg.png"
   inkscape:export-xdpi="648"
   inkscape:export-ydpi="648">
  <sodipodi:namedview
     id="base"
     pagecolor="#ffffff"
     bordercolor="#666666"
     borderopacity="1.0"
     inkscape:pageopacity="0.0"
     inkscape:pageshadow="2"
     inkscape:zoom="11.2"
     inkscape:cx="15.669643"
     inkscape:cy="13.777748"
     inkscape:document-units="px"
     inkscape:current-layer="layer2"
     showgrid="false"
     fit-margin-top="0"
     fit-margin-left="0"
     fit-margin-right="0"
     fit-margin-bottom="0"
     showguides="true"
     inkscape:guide-bbox="true"
     inkscape:window-width="1366"
     inkscape:window-height="726"
     inkscape:window-x="0"
     inkscape:window-y="0"
     inkscape:window-maximized="1"
     inkscape:snap-grids="false"
     inkscape:snap-to-guides="false"
     inkscape:snap-page="false">
    <inkscape:grid
       type="xygrid"
       id="grid4138" />
    <sodipodi:guide
       position="10,18"
       orientation="0,1"
       id="guide4140" />
    <sodipodi:guide
       position="10,2"
       orientation="0,1"
       id="guide4142" />
    <sodipodi:guide
       position="2,10"
       orientation="1,0"
       id="guide4144" />
    <sodipodi:guide
       position="0,0"
       orientation="0,20"
       id="guide4146" />
    <sodipodi:guide
       position="20,0"
       orientation="-20,0"
       id="guide4148" />
    <sodipodi:guide
       position="20,20"
       orientation="0,-20"
       id="guide4150" />
    <sodipodi:guide
       position="0,20"
       orientation="20,0"
       id="guide4152" />
    <sodipodi:guide
       position="18,10"
       orientation="1,0"
       id="guide4154" />
    <sodipodi:guide
       position="10,10"
       orientation="-0.70710678,0.70710678"
       id="guide4156" />
    <sodipodi:guide
       position="4,10"
       orientation="1,0"
       id="guide4160" />
    <sodipodi:guide
       position="16,10"
       orientation="1,0"
       id="guide4162" />
    <sodipodi:guide
       position="10,16"
       orientation="0,1"
       id="guide4164" />
    <sodipodi:guide
       position="10,4"
       orientation="0,1"
       id="guide4166" />
    <sodipodi:guide
       position="10,15"
       orientation="0,1"
       id="guide4168" />
    <sodipodi:guide
       position="10,5"
       orientation="0,1"
       id="guide4170" />
    <sodipodi:guide
       position="5,10"
       orientation="1,0"
       id="guide4172" />
    <sodipodi:guide
       position="15,10"
       orientation="1,0"
       id="guide4174" />
  </sodipodi:namedview>
  <defs
     id="defs4">
    <linearGradient
       inkscape:collect="always"
       id="linearGradient7132">
      <stop
         style="stop-color:#000000;stop-opacity:1;"
         offset="0"
         id="stop7134" />
      <stop
         style="stop-color:#000000;stop-opacity:0;"
         offset="1"
         id="stop7136" />
    </linearGradient>
    <clipPath
       id="clipPath12478"
       clipPathUnits="userSpaceOnUse">
      <circle
         r="10"
         cy="10.000005"
         cx="9.9999781"
         id="circle12480"
         style="opacity:1;fill:#2196f3;fill-opacity:1;stroke:none;stroke-width:0.05069799;stroke-miterlimit:4;stroke-dasharray:none;stroke-opacity:1" />
    </clipPath>
    <clipPath
       clipPathUnits="userSpaceOnUse"
       id="clipPath5790">
      <circle
         r="10"
         cy="10.000005"
         cx="9.9999781"
         id="circle5792"
         style="opacity:1;fill:#2196f3;fill-opacity:1;stroke:none;stroke-width:0.05069799;stroke-miterlimit:4;stroke-dasharray:none;stroke-opacity:1"
         inkscape:export-filename="/home/juergen/path4136.png"
         inkscape:export-xdpi="648"
         inkscape:export-ydpi="648" />
    </clipPath>
    <clipPath
       id="clipPath5055"
       clipPathUnits="userSpaceOnUse">
      <circle
         r="10"
         cy="10.000005"
         cx="9.9999781"
         id="circle5057"
         style="opacity:1;fill:#2196f3;fill-opacity:1;stroke:none;stroke-width:0.05069799;stroke-miterlimit:4;stroke-dasharray:none;stroke-opacity:1"
         inkscape:export-filename="/home/juergen/path4136.png"
         inkscape:export-xdpi="648"
         inkscape:export-ydpi="648" />
    </clipPath>
    <clipPath
       clipPathUnits="userSpaceOnUse"
       id="clipPath5119">
      <circle
         r="10"
         cy="10.000005"
         cx="9.9999781"
         id="circle5121"
         style="opacity:1;fill:#2196f3;fill-opacity:1;stroke:none;stroke-width:0.05069799;stroke-miterlimit:4;stroke-dasharray:none;stroke-opacity:1"
         inkscape:export-filename="/home/juergen/Schreibtisch/path4136.png"
         inkscape:export-xdpi="648"
         inkscape:export-ydpi="648" />
    </clipPath>
    <clipPath
       id="clipPath5194"
       clipPathUnits="userSpaceOnUse">
      <circle
         r="10"
         cy="10.000005"
         cx="9.9999781"
         id="circle5196"
         style="opacity:1;fill:#cddc39;fill-opacity:1;stroke:none;stroke-width:0.05069799;stroke-miterlimit:4;stroke-dasharray:none;stroke-opacity:1"
         inkscape:export-filename="/home/juergen/Schreibtisch/path4136.png"
         inkscape:export-xdpi="648"
         inkscape:export-ydpi="648" />
    </clipPath>
    <clipPath
       clipPathUnits="userSpaceOnUse"
       id="clipPath6175">
      <circle
         r="10"
         cy="10.000005"
         cx="9.9999781"
         id="circle6177"
         style="opacity:1;fill:#f44336;fill-opacity:1;stroke:none;stroke-width:0.05069799;stroke-miterlimit:4;stroke-dasharray:none;stroke-opacity:1"
         inkscape:export-filename="/home/juergen/Schreibtisch/path4136.png"
         inkscape:export-xdpi="648"
         inkscape:export-ydpi="648" />
    </clipPath>
    <clipPath
       id="clipPath7176"
       clipPathUnits="userSpaceOnUse">
      <circle
         r="10"
         cy="10.000005"
         cx="9.9999781"
         id="circle7178"
         style="opacity:1;fill:#9c27b0;fill-opacity:1;stroke:none;stroke-width:0.05069799;stroke-miterlimit:4;stroke-dasharray:none;stroke-opacity:1"
         inkscape:export-filename="/home/juergen/Schreibtisch/path4136.png"
         inkscape:export-xdpi="648"
         inkscape:export-ydpi="648" />
    </clipPath>
    <clipPath
       clipPathUnits="userSpaceOnUse"
       id="clipPath8165">
      <circle
         r="10"
         cy="10.000005"
         cx="9.9999781"
         id="circle8167"
         style="opacity:1;fill:#ffc107;fill-opacity:1;stroke:none;stroke-width:0.05069799;stroke-miterlimit:4;stroke-dasharray:none;stroke-opacity:1"
         inkscape:export-filename="/home/juergen/Schreibtisch/path4136.png"
         inkscape:export-xdpi="648"
         inkscape:export-ydpi="648" />
    </clipPath>
    <clipPath
       id="clipPath9162"
       clipPathUnits="userSpaceOnUse">
      <circle
         r="10"
         cy="10.000005"
         cx="9.9999781"
         id="circle9164"
         style="opacity:1;fill:#ff9800;fill-opacity:1;stroke:none;stroke-width:0.05069799;stroke-miterlimit:4;stroke-dasharray:none;stroke-opacity:1"
         inkscape:export-filename="/home/juergen/Schreibtisch/path4136.png"
         inkscape:export-xdpi="648"
         inkscape:export-ydpi="648" />
    </clipPath>
    <clipPath
       clipPathUnits="userSpaceOnUse"
       id="clipPath5147">
      <circle
         r="10"
         cy="10.000005"
         cx="9.9999781"
         id="circle5149"
         style="opacity:1;fill:#ff9800;fill-opacity:1;stroke:none;stroke-width:0.05069799;stroke-miterlimit:4;stroke-dasharray:none;stroke-opacity:1"
         inkscape:export-filename="/home/juergen/Schreibtisch/path4136.png"
         inkscape:export-xdpi="648"
         inkscape:export-ydpi="648" />
    </clipPath>
    <clipPath
       id="clipPath6144"
       clipPathUnits="userSpaceOnUse">
      <circle
         r="10"
         cy="10.000005"
         cx="9.9999781"
         id="circle6146"
         style="opacity:1;fill:#e91e63;fill-opacity:1;stroke:none;stroke-width:0.05069799;stroke-miterlimit:4;stroke-dasharray:none;stroke-opacity:1"
         inkscape:export-filename="/home/juergen/Schreibtisch/path4136.png"
         inkscape:export-xdpi="648"
         inkscape:export-ydpi="648" />
    </clipPath>
    <linearGradient
       inkscape:collect="always"
       xlink:href="#linearGradient7132"
       id="linearGradient7138"
       x1="10"
       y1="10"
       x2="20"
       y2="20"
       gradientUnits="userSpaceOnUse" />
    <clipPath
       clipPathUnits="userSpaceOnUse"
       id="clipPath7143">
      <circle
         r="10"
         cy="10.000005"
         cx="9.9999781"
         id="circle7145"
         style="opacity:1;fill:#ffeb3b;fill-opacity:1;stroke:none;stroke-width:0.05069799;stroke-miterlimit:4;stroke-dasharray:none;stroke-opacity:1"
         inkscape:export-filename="/home/juergen/Schreibtisch/path4136.png"
         inkscape:export-xdpi="648"
         inkscape:export-ydpi="648" />
    </clipPath>
  </defs>
  <metadata
     id="metadata7">
    <rdf:RDF>
      <cc:Work
         rdf:about="">
        <dc:format>image/svg+xml</dc:format>
        <dc:type
           rdf:resource="http://purl.org/dc/dcmitype/StillImage" />
        <dc:title></dc:title>
      </cc:Work>
    </rdf:RDF>
  </metadata>
  <g
     inkscape:label="Hintergrund"
     inkscape:groupmode="layer"
     id="layer1"
     transform="translate(1058.1428,-861.93365)">
    <circle
       inkscape:export-ydpi="648"
       inkscape:export-xdpi="648"
       inkscape:export-filename="/home/juergen/Schreibtisch/path4136.png"
       style="opacity:1;fill:#9c27b0;fill-opacity:1;stroke:none;stroke-width:0.05069799;stroke-miterlimit:4;stroke-dasharray:none;stroke-opacity:1"
       id="path4136"
       cx="-1048.1428"
       cy="871.93365"
       r="10" />
  </g>
  <g
     style="display:inline"
     inkscape:groupmode="layer"
     id="layer2"
     inkscape:label="Icon">
    <rect
       style="opacity:1;fill:#4caf50;fill-opacity:1;stroke:none;stroke-width:2;stroke-miterlimit:4;stroke-dasharray:none;stroke-opacity:1"
       id="rect7147"
       width="7.499999"
       height="7.857141"
       x="6.3392859"
       y="6.0714288" />
    <path
       d="M 6.8164062 5.1484375 C 6.3696298 5.1484373 5.9422709 5.329843 5.6328125 5.6484375 C 5.3233541 5.9578958 5.1484374 6.3954267 5.1484375 6.8496094 L 5.1484375 13.482422 C 5.1484374 13.92445 5.3241581 14.347595 5.6367188 14.660156 C 5.6617962 14.685234 5.692287 14.703268 5.71875 14.726562 C 5.7420441 14.753025 5.7600788 14.783516 5.7851562 14.808594 C 5.8092221 14.83266 5.8379376 14.850623 5.8632812 14.873047 C 5.8872172 14.900343 5.9058124 14.931203 5.9316406 14.957031 C 5.9574689 14.98286 5.9883285 15.001455 6.015625 15.025391 C 6.0380492 15.050734 6.0560123 15.07945 6.0800781 15.103516 C 6.1045955 15.128033 6.1343135 15.145155 6.1601562 15.167969 C 6.1829695 15.193812 6.200092 15.22353 6.2246094 15.248047 C 6.2493285 15.272766 6.2786215 15.291466 6.3046875 15.314453 C 6.3276741 15.340519 6.3463747 15.369812 6.3710938 15.394531 C 6.3949557 15.418393 6.4241002 15.434783 6.4492188 15.457031 C 6.4725129 15.483494 6.4905476 15.513985 6.515625 15.539062 C 6.5397814 15.563219 6.5683064 15.581013 6.59375 15.603516 C 6.6162523 15.628959 6.6340468 15.657484 6.6582031 15.681641 C 6.6829222 15.70636 6.7122153 15.72506 6.7382812 15.748047 C 6.7602171 15.772767 6.7772803 15.800718 6.8007812 15.824219 C 6.8255003 15.848938 6.8547934 15.867638 6.8808594 15.890625 C 6.9027953 15.915345 6.9198584 15.943296 6.9433594 15.966797 C 6.9674252 15.990863 6.9961407 16.008826 7.0214844 16.03125 C 7.0439086 16.056594 7.0618717 16.085309 7.0859375 16.109375 C 7.1095475 16.132985 7.1372688 16.149845 7.1621094 16.171875 C 7.1845336 16.197219 7.2024967 16.225934 7.2265625 16.25 C 7.2500634 16.273501 7.278014 16.290564 7.3027344 16.3125 C 7.3246703 16.33722 7.3417334 16.365171 7.3652344 16.388672 C 7.3889419 16.412379 7.4164581 16.43101 7.4414062 16.453125 C 7.4635209 16.478073 7.4821519 16.505589 7.5058594 16.529297 C 7.5281519 16.551589 7.5547333 16.567006 7.578125 16.587891 C 7.6009383 16.613733 7.6180607 16.643451 7.6425781 16.667969 C 7.6670955 16.692486 7.6968135 16.709609 7.7226562 16.732422 C 7.7433784 16.755609 7.759144 16.782581 7.78125 16.804688 C 7.8046626 16.8281 7.8327988 16.845328 7.8574219 16.867188 C 7.8787889 16.891186 7.8951232 16.918561 7.9179688 16.941406 C 7.941023 16.96446 7.967959 16.982358 7.9921875 17.003906 C 8.0137359 17.028135 8.0316333 17.055071 8.0546875 17.078125 C 8.0781001 17.101538 8.1062363 17.118766 8.1308594 17.140625 C 8.151655 17.163904 8.167263 17.190701 8.1894531 17.212891 C 8.2128657 17.236303 8.241002 17.253531 8.265625 17.275391 C 8.2864206 17.29867 8.3020287 17.325466 8.3242188 17.347656 C 8.3469781 17.370416 8.3745333 17.386911 8.3984375 17.408203 C 8.4197295 17.432107 8.4362251 17.459663 8.4589844 17.482422 C 8.4817437 17.505181 8.5092989 17.521677 8.5332031 17.542969 C 8.5539987 17.566248 8.5696068 17.593044 8.5917969 17.615234 C 8.6141978 17.637635 8.6405518 17.654802 8.6640625 17.675781 C 8.6850422 17.699292 8.7022084 17.725646 8.7246094 17.748047 C 8.7457038 17.769141 8.7708885 17.784853 8.7929688 17.804688 C 8.8149046 17.829408 8.8319678 17.857358 8.8554688 17.880859 C 8.8789697 17.90436 8.9069202 17.921423 8.9316406 17.943359 C 8.9514755 17.96544 8.9671868 17.990624 8.9882812 18.011719 C 9.0101103 18.033548 9.0357101 18.049833 9.0585938 18.070312 C 9.0790735 18.093196 9.0953585 18.118796 9.1171875 18.140625 C 9.1392935 18.162731 9.166266 18.178497 9.1894531 18.199219 C 9.2101753 18.222406 9.2259408 18.249378 9.2480469 18.271484 C 9.2695815 18.293019 9.295798 18.307903 9.3183594 18.328125 C 9.3390815 18.351312 9.3548471 18.378285 9.3769531 18.400391 C 9.3984878 18.421925 9.4247042 18.43681 9.4472656 18.457031 C 9.4674873 18.479593 9.4823716 18.505809 9.5039062 18.527344 C 9.5243474 18.547785 9.5489448 18.562772 9.5703125 18.582031 C 9.5916795 18.60603 9.6080139 18.633405 9.6308594 18.65625 C 9.6537049 18.679096 9.6810792 18.69543 9.7050781 18.716797 C 9.7238247 18.737535 9.7379497 18.761387 9.7578125 18.78125 C 9.7792653 18.802703 9.8056532 18.817741 9.828125 18.837891 C 9.8482748 18.860362 9.8633128 18.88675 9.8847656 18.908203 C 9.9052838 18.928721 9.9297203 18.943564 9.9511719 18.962891 C 9.9715804 18.985685 9.9880179 19.011455 10.009766 19.033203 C 10.028973 19.05241 10.052239 19.06582 10.072266 19.083984 C 10.093633 19.107983 10.109967 19.135358 10.132812 19.158203 C 10.155003 19.180393 10.181799 19.196001 10.205078 19.216797 C 10.223758 19.237454 10.238025 19.261462 10.257812 19.28125 C 10.278331 19.301768 10.302767 19.316611 10.324219 19.335938 C 10.344054 19.358018 10.359765 19.383202 10.380859 19.404297 C 10.401378 19.424815 10.425814 19.439658 10.447266 19.458984 C 10.466592 19.480436 10.481435 19.504872 10.501953 19.525391 C 10.523048 19.546485 10.548232 19.562196 10.570312 19.582031 C 10.589059 19.60277 10.603184 19.626622 10.623047 19.646484 C 10.644141 19.667579 10.669326 19.68329 10.691406 19.703125 C 10.710153 19.723863 10.724278 19.747715 10.744141 19.767578 C 10.763275 19.786713 10.786693 19.80026 10.806641 19.818359 C 10.826862 19.840921 10.841747 19.867137 10.863281 19.888672 C 10.884816 19.910207 10.911032 19.925091 10.933594 19.945312 C 10.951693 19.96526 10.96524 19.988678 10.984375 20.007812 C 11.004989 20.028426 11.029226 20.043089 11.050781 20.0625 C 11.068945 20.082527 11.082355 20.105793 11.101562 20.125 C 11.120339 20.143776 11.14255 20.158002 11.162109 20.175781 C 11.182014 20.197948 11.197576 20.222967 11.21875 20.244141 C 11.239924 20.265314 11.264943 20.280877 11.287109 20.300781 C 11.304365 20.319708 11.317747 20.341184 11.335938 20.359375 C 11.355725 20.379163 11.379734 20.393429 11.400391 20.412109 C 11.419071 20.432766 11.433337 20.456775 11.453125 20.476562 C 11.472332 20.49577 11.495598 20.50918 11.515625 20.527344 C 11.534305 20.548001 11.548571 20.572009 11.568359 20.591797 C 11.587789 20.611227 11.610592 20.626169 11.630859 20.644531 C 11.649221 20.664799 11.664164 20.687602 11.683594 20.707031 C 11.702146 20.725583 11.724824 20.738281 11.744141 20.755859 C 11.762821 20.776516 11.777087 20.800525 11.796875 20.820312 C 11.81601 20.839447 11.839427 20.852995 11.859375 20.871094 C 11.877474 20.891042 11.891022 20.914459 11.910156 20.933594 C 11.929291 20.952728 11.952708 20.966276 11.972656 20.984375 C 11.990755 21.004323 12.004303 21.02774 12.023438 21.046875 C 12.041989 21.065427 12.064667 21.078124 12.083984 21.095703 C 12.102084 21.115651 12.115631 21.139068 12.134766 21.158203 C 12.153542 21.176979 12.175753 21.191205 12.195312 21.208984 C 12.213092 21.228544 12.227317 21.250755 12.246094 21.269531 C 12.264646 21.288083 12.287324 21.300781 12.306641 21.318359 C 12.324219 21.337676 12.336917 21.360354 12.355469 21.378906 C 12.374245 21.397683 12.396456 21.411908 12.416016 21.429688 C 12.433271 21.448614 12.446653 21.47009 12.464844 21.488281 C 12.483325 21.506763 12.50615 21.519594 12.525391 21.537109 C 12.542906 21.55635 12.555737 21.579175 12.574219 21.597656 C 12.5927 21.616138 12.615525 21.628969 12.634766 21.646484 C 12.651757 21.665094 12.663744 21.687182 12.681641 21.705078 C 12.700122 21.72356 12.722947 21.736391 12.742188 21.753906 C 12.759179 21.772515 12.771166 21.794604 12.789062 21.8125 C 12.807186 21.830623 12.828803 21.844133 12.847656 21.861328 C 12.864851 21.880182 12.878361 21.901799 12.896484 21.919922 C 12.91402 21.937457 12.934905 21.95013 12.953125 21.966797 C 12.97032 21.985651 12.98383 22.007268 13.001953 22.025391 C 13.019781 22.043219 13.042011 22.055336 13.060547 22.072266 C 13.077477 22.090801 13.089594 22.113031 13.107422 22.130859 C 13.124957 22.148395 13.145842 22.161068 13.164062 22.177734 C 13.180729 22.195954 13.193402 22.21684 13.210938 22.234375 C 13.228766 22.252203 13.250996 22.26432 13.269531 22.28125 C 13.285932 22.299153 13.297212 22.32065 13.314453 22.337891 C 13.331923 22.35536 13.352944 22.368158 13.371094 22.384766 C 13.387701 22.402915 13.400499 22.423936 13.417969 22.441406 C 13.434849 22.458286 13.455141 22.470253 13.472656 22.486328 C 13.489264 22.504477 13.502061 22.525499 13.519531 22.542969 C 13.536706 22.560144 13.55834 22.571549 13.576172 22.587891 C 13.592513 22.605723 13.603919 22.627356 13.621094 22.644531 C 13.636899 22.660336 13.655513 22.6724 13.671875 22.6875 C 13.68913 22.706427 13.702512 22.727903 13.720703 22.746094 C 13.738894 22.764285 13.76037 22.777666 13.779297 22.794922 C 13.794396 22.811284 13.806461 22.829898 13.822266 22.845703 C 13.83849 22.861928 13.858188 22.873191 13.875 22.888672 C 13.891146 22.906271 13.902964 22.926401 13.919922 22.943359 C 13.936738 22.960176 13.957163 22.972264 13.974609 22.988281 C 13.990627 23.005728 14.002715 23.026152 14.019531 23.042969 C 14.035756 23.059193 14.055454 23.070456 14.072266 23.085938 C 14.088283 23.103384 14.100371 23.123808 14.117188 23.140625 C 14.133051 23.156489 14.151544 23.168441 14.167969 23.183594 C 14.183787 23.200805 14.196294 23.219731 14.212891 23.236328 C 14.229349 23.252786 14.248563 23.265557 14.265625 23.28125 C 14.281318 23.298312 14.294089 23.317526 14.310547 23.333984 C 14.3251 23.348537 14.342396 23.359092 14.357422 23.373047 C 14.374088 23.391267 14.386761 23.412152 14.404297 23.429688 C 14.421832 23.447223 14.442717 23.459896 14.460938 23.476562 C 14.474843 23.491531 14.485502 23.508939 14.5 23.523438 C 14.515805 23.539242 14.534419 23.551307 14.550781 23.566406 C 14.565881 23.582769 14.577945 23.601382 14.59375 23.617188 C 14.609555 23.632993 14.628169 23.645057 14.644531 23.660156 C 14.659631 23.676519 14.671695 23.695132 14.6875 23.710938 C 14.702708 23.726146 14.720603 23.737398 14.736328 23.751953 C 14.751428 23.768316 14.763492 23.786929 14.779297 23.802734 C 14.794807 23.818244 14.814031 23.828919 14.830078 23.84375 C 14.844909 23.859797 14.855584 23.879021 14.871094 23.894531 C 14.886604 23.910041 14.905828 23.920716 14.921875 23.935547 C 14.936706 23.951594 14.947381 23.970818 14.962891 23.986328 C 14.977804 24.001242 14.996308 24.011105 15.011719 24.025391 C 15.02655 24.041438 15.037224 24.060662 15.052734 24.076172 C 15.067648 24.091086 15.086152 24.100948 15.101562 24.115234 C 15.116393 24.131281 15.127068 24.150506 15.142578 24.166016 C 15.157131 24.180568 15.174427 24.191123 15.189453 24.205078 C 15.203957 24.220743 15.215317 24.238755 15.230469 24.253906 C 15.245326 24.268763 15.263947 24.278735 15.279297 24.292969 C 15.293531 24.308319 15.303503 24.32694 15.318359 24.341797 C 15.333216 24.356654 15.351837 24.366626 15.367188 24.380859 C 15.381421 24.396209 15.391393 24.414831 15.40625 24.429688 C 15.420508 24.443946 15.438412 24.453112 15.453125 24.466797 C 15.467359 24.482147 15.477331 24.500768 15.492188 24.515625 C 15.506686 24.530123 15.524094 24.540782 15.539062 24.554688 C 15.552968 24.569656 15.563627 24.587064 15.578125 24.601562 C 15.591317 24.614754 15.607512 24.624018 15.621094 24.636719 C 15.635978 24.652829 15.64654 24.671931 15.662109 24.6875 C 15.677679 24.703069 15.69678 24.713631 15.712891 24.728516 C 15.725592 24.742097 15.734855 24.758292 15.748047 24.771484 C 15.760633 24.784071 15.776121 24.792548 15.789062 24.804688 C 15.803947 24.820798 15.814509 24.8399 15.830078 24.855469 C 15.845647 24.871038 15.864749 24.8816 15.880859 24.896484 C 15.892955 24.909375 15.901524 24.924961 15.914062 24.9375 C 15.927665 24.951103 15.944967 24.959575 15.958984 24.972656 C 15.972619 24.987311 15.98189 25.005328 15.996094 25.019531 C 16.008025 25.031462 16.022906 25.039252 16.035156 25.050781 C 16.050041 25.066891 16.060603 25.085993 16.076172 25.101562 C 16.091086 25.116476 16.109589 25.126339 16.125 25.140625 C 16.137095 25.153516 16.145664 25.169102 16.158203 25.181641 C 16.171445 25.194882 16.187537 25.20405 16.201172 25.216797 C 16.214476 25.231071 16.224436 25.247874 16.238281 25.261719 C 16.251523 25.274961 16.267615 25.284128 16.28125 25.296875 C 16.293951 25.310457 16.303214 25.326652 16.316406 25.339844 C 16.329598 25.353036 16.345793 25.362299 16.359375 25.375 C 16.372122 25.388634 16.381289 25.404727 16.394531 25.417969 C 16.407723 25.431161 16.423918 25.440424 16.4375 25.453125 C 16.450201 25.466707 16.459464 25.482902 16.472656 25.496094 C 16.485848 25.509286 16.502043 25.518549 16.515625 25.53125 C 16.527765 25.544191 16.536242 25.559679 16.548828 25.572266 C 16.56202 25.585458 16.578215 25.594721 16.591797 25.607422 C 16.603937 25.620363 16.612414 25.635851 16.625 25.648438 C 16.637834 25.661271 16.652813 25.671225 16.666016 25.683594 C 16.678385 25.696796 16.688338 25.711776 16.701172 25.724609 C 16.713397 25.736835 16.727674 25.746009 16.740234 25.757812 C 16.752604 25.771015 16.762557 25.785995 16.775391 25.798828 C 16.787929 25.811367 16.803515 25.819936 16.816406 25.832031 C 16.828502 25.844922 16.837071 25.860508 16.849609 25.873047 C 16.862148 25.885586 16.877734 25.894155 16.890625 25.90625 C 16.902155 25.9185 16.909944 25.933382 16.921875 25.945312 C 16.934055 25.957493 16.948424 25.966754 16.960938 25.978516 C 16.972795 25.991137 16.981858 26.005295 16.994141 26.017578 C 17.006321 26.029758 17.02069 26.039019 17.033203 26.050781 C 17.044965 26.063294 17.054226 26.077663 17.066406 26.089844 C 17.078587 26.102024 17.092956 26.111285 17.105469 26.123047 C 17.116661 26.134917 17.125149 26.148586 17.136719 26.160156 C 17.148899 26.172337 17.163268 26.181597 17.175781 26.193359 C 17.186974 26.20523 17.195461 26.218899 17.207031 26.230469 C 17.218917 26.242354 17.233891 26.250232 17.246094 26.261719 C 17.257581 26.273921 17.265458 26.288896 17.277344 26.300781 C 17.288871 26.312308 17.302628 26.320879 17.314453 26.332031 C 17.325606 26.343857 17.334176 26.357613 17.345703 26.369141 C 17.35723 26.380668 17.370987 26.389238 17.382812 26.400391 C 17.393965 26.412216 17.402535 26.425973 17.414062 26.4375 C 17.425338 26.448776 17.439611 26.45588 17.451172 26.466797 C 17.462089 26.478358 17.469193 26.492631 17.480469 26.503906 C 17.491996 26.515433 17.505753 26.524004 17.517578 26.535156 C 17.528157 26.546338 17.53596 26.559398 17.546875 26.570312 C 17.558107 26.581545 17.572469 26.588733 17.583984 26.599609 C 17.594861 26.611125 17.602049 26.625487 17.613281 26.636719 C 17.624513 26.647951 17.638875 26.655139 17.650391 26.666016 C 17.660693 26.676889 17.667114 26.690552 17.677734 26.701172 C 17.688608 26.712046 17.701751 26.719928 17.712891 26.730469 C 17.723431 26.741608 17.731314 26.754751 17.742188 26.765625 C 17.751396 26.774834 17.762084 26.782045 17.771484 26.791016 C 17.783288 26.803576 17.792462 26.817853 17.804688 26.830078 C 17.816913 26.842303 17.831189 26.851477 17.84375 26.863281 C 17.85272 26.872681 17.859932 26.883369 17.869141 26.892578 C 17.878089 26.901526 17.889309 26.907293 17.898438 26.916016 C 17.909967 26.928266 17.917757 26.943147 17.929688 26.955078 C 17.941618 26.967009 17.9565 26.974798 17.96875 26.986328 C 17.97744 26.995421 17.983273 27.006711 17.992188 27.015625 C 18.002447 27.025884 18.014895 27.033006 18.025391 27.042969 C 18.035317 27.053424 18.042514 27.065951 18.052734 27.076172 C 18.062699 27.086137 18.075749 27.091877 18.085938 27.101562 C 18.095623 27.111751 18.101363 27.124801 18.111328 27.134766 C 18.121549 27.144986 18.134076 27.152183 18.144531 27.162109 C 18.154458 27.172565 18.161654 27.185092 18.171875 27.195312 C 18.180168 27.203605 18.190771 27.208698 18.199219 27.216797 C 18.210136 27.228358 18.21724 27.242631 18.228516 27.253906 C 18.239791 27.265182 18.254064 27.272286 18.265625 27.283203 C 18.273694 27.291618 18.278849 27.302286 18.287109 27.310547 C 18.296677 27.320114 18.308586 27.326628 18.318359 27.335938 C 18.327669 27.345711 18.334183 27.35762 18.34375 27.367188 C 18.353317 27.376755 18.365227 27.383269 18.375 27.392578 C 18.38431 27.402351 18.390823 27.414261 18.400391 27.423828 C 18.409339 27.432776 18.420559 27.438543 18.429688 27.447266 C 18.438997 27.457039 18.445511 27.468948 18.455078 27.478516 C 18.464287 27.487725 18.474975 27.494936 18.484375 27.503906 C 18.493345 27.513306 18.500557 27.523994 18.509766 27.533203 C 18.517373 27.540811 18.527418 27.54529 18.535156 27.552734 C 18.545459 27.563608 18.55188 27.57727 18.5625 27.587891 C 18.57312 27.598511 18.586783 27.604932 18.597656 27.615234 C 18.605101 27.622973 18.60958 27.633017 18.617188 27.640625 C 18.624464 27.647901 18.633229 27.653029 18.640625 27.660156 C 18.650588 27.670652 18.65771 27.6831 18.667969 27.693359 C 18.678228 27.703618 18.690676 27.710741 18.701172 27.720703 C 18.708273 27.728071 18.713454 27.736891 18.720703 27.744141 C 18.729259 27.752696 18.739326 27.759228 18.748047 27.767578 C 18.756397 27.776299 18.762929 27.786366 18.771484 27.794922 C 18.78004 27.803478 18.790107 27.81001 18.798828 27.818359 C 18.807178 27.82708 18.81371 27.837147 18.822266 27.845703 C 18.830197 27.853635 18.839583 27.859433 18.847656 27.867188 C 18.856006 27.875908 18.862538 27.885975 18.871094 27.894531 C 18.879355 27.902792 18.890023 27.907947 18.898438 27.916016 C 18.906506 27.92443 18.911661 27.935099 18.919922 27.943359 C 18.927854 27.951291 18.937239 27.957089 18.945312 27.964844 C 18.953067 27.972917 18.958865 27.982303 18.966797 27.990234 C 18.973393 27.99683 18.981587 28.001339 18.988281 28.007812 C 18.997625 28.017624 19.004068 28.029459 19.013672 28.039062 C 19.023276 28.048666 19.035111 28.055109 19.044922 28.064453 C 19.050787 28.070499 19.054581 28.078019 19.060547 28.083984 C 19.068449 28.091887 19.077894 28.097742 19.085938 28.105469 C 19.093664 28.113512 19.099519 28.122957 19.107422 28.130859 C 19.114698 28.138136 19.123463 28.143263 19.130859 28.150391 C 19.138586 28.158434 19.144441 28.167879 19.152344 28.175781 C 19.15962 28.183058 19.168385 28.188185 19.175781 28.195312 C 19.182909 28.202708 19.188036 28.211474 19.195312 28.21875 C 19.201255 28.224693 19.208821 28.228532 19.214844 28.234375 C 19.223567 28.243504 19.229333 28.254724 19.238281 28.263672 C 19.247229 28.27262 19.25845 28.278387 19.267578 28.287109 C 19.272809 28.292483 19.27594 28.299377 19.28125 28.304688 C 19.288499 28.311937 19.29732 28.317117 19.304688 28.324219 C 19.311789 28.331587 19.31697 28.340407 19.324219 28.347656 C 19.33084 28.354277 19.338983 28.358737 19.345703 28.365234 C 19.352805 28.372602 19.357985 28.381423 19.365234 28.388672 C 19.372189 28.395626 19.381608 28.399432 19.388672 28.40625 C 19.39549 28.413314 19.399296 28.422733 19.40625 28.429688 C 19.412871 28.436308 19.421014 28.440768 19.427734 28.447266 C 19.434208 28.45396 19.438717 28.462154 19.445312 28.46875 C 19.451908 28.475346 19.460103 28.479854 19.466797 28.486328 C 19.473271 28.493022 19.477779 28.501217 19.484375 28.507812 C 19.489306 28.512744 19.495014 28.516622 19.5 28.521484 C 19.507755 28.529558 19.513553 28.538943 19.521484 28.546875 C 19.529416 28.554807 19.538801 28.560605 19.546875 28.568359 C 19.551738 28.573346 19.555616 28.579053 19.560547 28.583984 C 19.566512 28.58995 19.574032 28.593744 19.580078 28.599609 C 19.586552 28.606304 19.59106 28.614498 19.597656 28.621094 C 19.603649 28.627087 19.611113 28.630827 19.617188 28.636719 C 19.623031 28.642741 19.62687 28.650307 19.632812 28.65625 C 19.638755 28.662193 19.646321 28.666032 19.652344 28.671875 C 19.658187 28.677898 19.662026 28.685464 19.667969 28.691406 C 19.673911 28.697349 19.681477 28.701188 19.6875 28.707031 C 19.693343 28.713054 19.697182 28.72062 19.703125 28.726562 C 19.708435 28.731873 19.715329 28.735004 19.720703 28.740234 C 19.726547 28.746257 19.730385 28.753823 19.736328 28.759766 C 19.741913 28.76535 19.748251 28.769894 19.753906 28.775391 C 19.759403 28.781046 19.763947 28.787384 19.769531 28.792969 C 19.773514 28.796952 19.779184 28.798796 19.783203 28.802734 C 19.790048 28.809826 19.793799 28.81919 19.800781 28.826172 C 19.807763 28.833154 19.817127 28.836905 19.824219 28.84375 C 19.828157 28.847769 19.830001 28.853439 19.833984 28.857422 C 19.837623 28.86106 19.842035 28.863586 19.845703 28.867188 C 19.852201 28.873907 19.85666 28.882051 19.863281 28.888672 C 19.869902 28.895293 19.878046 28.899752 19.884766 28.90625 C 19.888353 28.909904 19.890907 28.914344 19.894531 28.917969 C 19.89948 28.922918 19.905152 28.92676 19.910156 28.931641 C 19.915019 28.936627 19.918897 28.942334 19.923828 28.947266 C 19.926811 28.950248 19.930591 28.95212 19.933594 28.955078 C 19.940091 28.961798 19.944551 28.969942 19.951172 28.976562 C 19.957793 28.983183 19.965936 28.987643 19.972656 28.994141 C 19.975603 28.997132 19.977497 29.000935 19.980469 29.003906 C 19.985123 29.008561 19.99139 29.011031 19.996094 29.015625 C 20.00067 29.02031 20.003176 29.026614 20.007812 29.03125 C 20.012106 29.035544 20.017149 29.038727 20.021484 29.042969 C 20.025711 29.047288 20.028925 29.052363 20.033203 29.056641 C 20.037481 29.060919 20.042556 29.064133 20.046875 29.068359 C 20.051117 29.072695 20.0543 29.077738 20.058594 29.082031 C 20.062872 29.086309 20.067946 29.089524 20.072266 29.09375 C 20.076492 29.098069 20.079706 29.103144 20.083984 29.107422 C 20.088262 29.1117 20.093337 29.114914 20.097656 29.119141 C 20.101257 29.122809 20.103784 29.127221 20.107422 29.130859 C 20.1117 29.135137 20.116774 29.138352 20.121094 29.142578 C 20.124695 29.146246 20.127221 29.150659 20.130859 29.154297 C 20.134842 29.15828 20.140512 29.160124 20.144531 29.164062 C 20.14847 29.168081 20.150314 29.173751 20.154297 29.177734 C 20.157921 29.181359 20.162361 29.183912 20.166016 29.1875 C 20.169603 29.191154 20.172157 29.195594 20.175781 29.199219 C 20.179406 29.202843 20.183846 29.205397 20.1875 29.208984 C 20.191088 29.212639 20.193641 29.217079 20.197266 29.220703 C 20.20089 29.224328 20.20533 29.226881 20.208984 29.230469 C 20.211956 29.233486 20.2138 29.237238 20.216797 29.240234 C 20.218757 29.242194 20.220688 29.244145 20.222656 29.246094 C 20.227536 29.251098 20.231379 29.25677 20.236328 29.261719 C 20.240983 29.266373 20.247249 29.268844 20.251953 29.273438 C 20.253617 29.275116 20.254187 29.277625 20.255859 29.279297 C 20.257524 29.280962 20.260048 29.281546 20.261719 29.283203 C 20.266313 29.287907 20.268783 29.294173 20.273438 29.298828 C 20.27642 29.301811 20.2802 29.303683 20.283203 29.306641 C 20.286161 29.309644 20.288033 29.313424 20.291016 29.316406 C 20.295309 29.3207 20.300352 29.323883 20.304688 29.328125 C 20.305989 29.329435 20.307287 29.330725 20.308594 29.332031 C 20.311207 29.334644 20.313778 29.33725 20.316406 29.339844 C 20.319009 29.342481 20.321597 29.345035 20.324219 29.347656 C 20.326832 29.350269 20.329403 29.352875 20.332031 29.355469 C 20.334625 29.358097 20.337231 29.360668 20.339844 29.363281 C 20.342162 29.365599 20.345326 29.366838 20.347656 29.369141 C 20.349968 29.37148 20.351188 29.374626 20.353516 29.376953 C 20.355834 29.379271 20.358998 29.380509 20.361328 29.382812 C 20.363651 29.385163 20.36485 29.388287 20.367188 29.390625 C 20.369506 29.392943 20.37267 29.394181 20.375 29.396484 C 20.377303 29.398815 20.378541 29.401979 20.380859 29.404297 C 20.382819 29.406257 20.38475 29.408207 20.386719 29.410156 C 20.388674 29.412131 20.390612 29.414049 20.392578 29.416016 C 20.394538 29.417975 20.396469 29.419926 20.398438 29.421875 C 20.400393 29.42385 20.402331 29.425768 20.404297 29.427734 C 20.406257 29.429694 20.408188 29.431645 20.410156 29.433594 C 20.412105 29.435562 20.414056 29.437493 20.416016 29.439453 C 20.417688 29.441125 20.420197 29.441695 20.421875 29.443359 C 20.423532 29.445031 20.424116 29.447554 20.425781 29.449219 C 20.427446 29.450884 20.429969 29.451468 20.431641 29.453125 C 20.433298 29.454796 20.433882 29.45732 20.435547 29.458984 C 20.436863 29.460278 20.438134 29.461601 20.439453 29.462891 C 20.440755 29.464201 20.442053 29.46549 20.443359 29.466797 C 20.444665 29.468103 20.445956 29.469402 20.447266 29.470703 C 20.448567 29.472014 20.449865 29.473303 20.451172 29.474609 C 20.452478 29.475915 20.453768 29.477214 20.455078 29.478516 C 20.45638 29.479826 20.457678 29.481115 20.458984 29.482422 C 20.460005 29.483443 20.461867 29.483357 20.462891 29.484375 C 20.463899 29.485389 20.463832 29.48727 20.464844 29.488281 C 20.46587 29.489297 20.467722 29.489221 20.46875 29.490234 C 20.46875 29.490234 20.46875 29.492188 20.46875 29.492188 C 20.46875 29.492188 20.470703 29.494141 20.470703 29.494141 C 20.470703 29.494141 20.472656 29.496094 20.472656 29.496094 C 20.472656 29.496094 20.474609 29.498047 20.474609 29.498047 C 20.474609 29.498047 20.476562 29.5 20.476562 29.5 C 20.476562 29.5 20.478516 29.501953 20.478516 29.501953 C 20.478516 29.501953 20.480469 29.503906 20.480469 29.503906 C 20.480469 29.503906 20.482422 29.505859 20.482422 29.505859 C 20.484371 29.507828 20.486321 29.509759 20.488281 29.511719 C 20.541249 29.564686 20.601247 29.607431 20.660156 29.652344 C 20.684762 29.671059 20.706894 29.693672 20.732422 29.710938 C 20.733934 29.711953 20.734813 29.713834 20.736328 29.714844 C 20.736328 29.714844 20.738281 29.716797 20.738281 29.716797 C 20.738281 29.716797 20.740234 29.71875 20.740234 29.71875 C 20.740653 29.71903 20.741769 29.718471 20.742188 29.71875 C 20.774844 29.740477 20.811689 29.754118 20.845703 29.773438 C 20.905411 29.807449 20.964018 29.844746 21.027344 29.871094 C 21.097362 29.900226 21.17065 29.91813 21.244141 29.9375 C 21.275904 29.94583 21.305614 29.960345 21.337891 29.966797 C 21.338506 29.966921 21.339228 29.966674 21.339844 29.966797 C 21.349355 29.968687 21.359589 29.967025 21.369141 29.96875 C 21.466781 29.986491 21.565399 30 21.666016 30 L 28.332031 30 C 28.441887 30 28.552015 29.987895 28.658203 29.966797 C 28.658816 29.966674 28.659543 29.96692 28.660156 29.966797 C 28.873166 29.924218 29.075015 29.83907 29.255859 29.71875 C 29.256275 29.718473 29.257397 29.719027 29.257812 29.71875 C 29.348416 29.658334 29.433579 29.589859 29.511719 29.511719 C 29.589859 29.433579 29.658334 29.348416 29.71875 29.257812 C 29.719027 29.257397 29.718473 29.256275 29.71875 29.255859 C 29.83907 29.075015 29.924218 28.873166 29.966797 28.660156 C 29.96692 28.659543 29.966674 28.658816 29.966797 28.658203 C 29.987895 28.552015 30 28.441887 30 28.332031 L 30 25 L 30 21.666016 C 29.999999 21.550958 29.987046 21.438572 29.964844 21.330078 C 29.942459 21.220693 29.909859 21.116059 29.867188 21.015625 C 29.825211 20.916828 29.774254 20.822312 29.714844 20.734375 C 29.714353 20.733646 29.713382 20.73315 29.712891 20.732422 C 29.712891 20.732422 29.710938 20.730469 29.710938 20.730469 C 29.710938 20.730469 29.708984 20.728516 29.708984 20.728516 C 29.707952 20.726988 29.706115 20.726133 29.705078 20.724609 C 29.647211 20.64017 29.583751 20.560548 29.511719 20.488281 C 29.510713 20.487276 29.508821 20.487331 29.507812 20.486328 C 29.507812 20.486328 29.507812 20.484375 29.507812 20.484375 C 29.507161 20.483727 29.506512 20.483068 29.505859 20.482422 C 29.505859 20.482422 29.503906 20.480469 29.503906 20.480469 C 29.503906 20.480469 29.501953 20.478516 29.501953 20.478516 C 29.501953 20.478516 29.5 20.476562 29.5 20.476562 C 29.5 20.476562 29.498047 20.474609 29.498047 20.474609 C 29.498047 20.474609 29.496094 20.472656 29.496094 20.472656 C 29.496094 20.472656 29.494141 20.472656 29.494141 20.472656 C 29.494141 20.472656 29.494141 20.470703 29.494141 20.470703 C 29.494141 20.470703 29.492188 20.46875 29.492188 20.46875 C 29.491255 20.4678 29.489216 20.467745 29.488281 20.466797 C 29.487336 20.465857 29.487276 20.463829 29.486328 20.462891 C 29.48539 20.461944 29.483362 20.461882 29.482422 20.460938 C 29.481476 20.459997 29.481416 20.457969 29.480469 20.457031 C 29.479189 20.455719 29.477847 20.454433 29.476562 20.453125 C 29.47526 20.451832 29.473963 20.450508 29.472656 20.449219 C 29.471367 20.447914 29.470043 20.446613 29.46875 20.445312 C 29.467447 20.44402 29.466151 20.442695 29.464844 20.441406 C 29.463555 20.440102 29.462231 20.4388 29.460938 20.4375 C 29.459635 20.436208 29.458338 20.434882 29.457031 20.433594 C 29.455455 20.431994 29.452754 20.43128 29.451172 20.429688 C 29.449574 20.428105 29.44887 20.425404 29.447266 20.423828 C 29.443666 20.420235 29.439179 20.417623 29.435547 20.414062 C 29.430054 20.408481 29.425492 20.401988 29.419922 20.396484 C 29.414407 20.390929 29.405983 20.384384 29.400391 20.378906 C 29.398735 20.377255 29.394241 20.374691 29.392578 20.373047 C 29.387997 20.368426 29.383541 20.363942 29.378906 20.359375 C 29.374035 20.354464 29.370166 20.3486 29.365234 20.34375 C 29.360356 20.338826 29.354548 20.334941 29.349609 20.330078 C 29.344385 20.324797 29.339279 20.319664 29.333984 20.314453 C 29.328129 20.308537 29.32235 20.302703 29.316406 20.296875 C 29.310541 20.290952 29.304781 20.285131 29.298828 20.279297 C 29.292954 20.273367 29.287213 20.26756 29.28125 20.261719 C 29.274756 20.255145 29.268321 20.248653 29.261719 20.242188 C 29.2533 20.23367 29.244929 20.225132 29.236328 20.216797 C 29.232739 20.213198 29.228231 20.210598 29.224609 20.207031 C 29.214211 20.196433 29.204037 20.186099 29.193359 20.175781 C 29.18747 20.169871 29.181759 20.164024 29.175781 20.158203 C 29.168613 20.150966 29.161597 20.143824 29.154297 20.136719 C 29.144216 20.126513 29.133389 20.117364 29.123047 20.107422 C 29.118462 20.102829 29.114013 20.098289 29.109375 20.09375 C 29.097688 20.081833 29.08626 20.070155 29.074219 20.058594 C 29.068992 20.053348 29.063891 20.048145 29.058594 20.042969 C 29.046275 20.030383 29.034198 20.018048 29.021484 20.005859 C 29.013946 19.998303 29.00573 19.991786 28.998047 19.984375 C 28.988629 19.974832 28.98035 19.964391 28.970703 19.955078 C 28.959349 19.943599 28.947233 19.933019 28.935547 19.921875 C 28.929016 19.915322 28.922655 19.908787 28.916016 19.902344 C 28.902414 19.888452 28.889084 19.874734 28.875 19.861328 C 28.866794 19.853106 28.857987 19.845939 28.849609 19.837891 C 28.838905 19.827048 28.82936 19.815232 28.818359 19.804688 C 28.807351 19.79353 28.796478 19.782326 28.785156 19.771484 C 28.772163 19.758326 28.75757 19.747092 28.744141 19.734375 C 28.734317 19.724515 28.724915 19.714688 28.714844 19.705078 C 28.703122 19.693208 28.691765 19.681433 28.679688 19.669922 C 28.66797 19.658066 28.656604 19.646263 28.644531 19.634766 C 28.630892 19.620935 28.617638 19.607093 28.603516 19.59375 C 28.593734 19.583921 28.584247 19.574033 28.574219 19.564453 C 28.558693 19.548631 28.543499 19.532764 28.527344 19.517578 C 28.515909 19.506112 28.503958 19.495501 28.492188 19.484375 C 28.479195 19.471249 28.466555 19.457996 28.453125 19.445312 C 28.439469 19.431485 28.426251 19.417634 28.412109 19.404297 C 28.396795 19.388807 28.381158 19.374247 28.365234 19.359375 C 28.352797 19.346895 28.340961 19.334342 28.328125 19.322266 C 28.313833 19.307796 28.299981 19.293228 28.285156 19.279297 C 28.270838 19.264816 28.25704 19.250269 28.242188 19.236328 C 28.2256 19.219569 28.208709 19.203532 28.191406 19.1875 C 28.178337 19.174403 28.165854 19.161087 28.152344 19.148438 C 28.135736 19.131644 28.118889 19.115672 28.101562 19.099609 C 28.087204 19.085205 28.073485 19.070503 28.058594 19.056641 C 28.042941 19.040848 28.02801 19.02491 28.011719 19.009766 C 27.994479 18.992344 27.977001 18.975617 27.958984 18.958984 C 27.945639 18.945606 27.933729 18.930879 27.919922 18.917969 C 27.90015 18.897832 27.880179 18.878464 27.859375 18.859375 C 27.844312 18.844311 27.830104 18.828919 27.814453 18.814453 C 27.795896 18.795732 27.777269 18.777569 27.757812 18.759766 C 27.741765 18.743711 27.725699 18.728264 27.708984 18.712891 C 27.69172 18.695495 27.676248 18.676758 27.658203 18.660156 C 27.63897 18.640772 27.619811 18.621912 27.599609 18.603516 C 27.58357 18.587487 27.567488 18.571988 27.550781 18.556641 C 27.532242 18.537913 27.515538 18.517807 27.496094 18.5 C 27.477497 18.481275 27.458958 18.463113 27.439453 18.445312 C 27.418877 18.424592 27.39864 18.404351 27.376953 18.384766 C 27.35795 18.365793 27.340254 18.346135 27.320312 18.328125 C 27.302692 18.310535 27.286007 18.292153 27.267578 18.275391 C 27.248338 18.256014 27.229201 18.237133 27.208984 18.21875 C 27.189099 18.198717 27.17132 18.177172 27.150391 18.158203 C 27.130216 18.137883 27.111094 18.11688 27.089844 18.097656 C 27.067992 18.075682 27.046548 18.053889 27.023438 18.033203 C 27.004433 18.014254 26.986746 17.994545 26.966797 17.976562 C 26.944325 17.953966 26.922243 17.931387 26.898438 17.910156 C 26.879141 17.890931 26.860116 17.871742 26.839844 17.853516 C 26.818418 17.831953 26.798035 17.809382 26.775391 17.789062 C 26.752181 17.765734 26.729714 17.742569 26.705078 17.720703 C 26.684743 17.700449 26.665952 17.679297 26.644531 17.660156 C 26.622732 17.638263 26.60314 17.614354 26.580078 17.59375 C 26.55629 17.569862 26.533103 17.545785 26.507812 17.523438 C 26.486862 17.502583 26.467419 17.480606 26.445312 17.460938 C 26.420474 17.435998 26.39562 17.411926 26.369141 17.388672 C 26.347465 17.367146 26.327599 17.344473 26.304688 17.324219 C 26.281552 17.301055 26.260888 17.27561 26.236328 17.253906 C 26.211846 17.229401 26.188186 17.204508 26.162109 17.181641 C 26.1392 17.158834 26.11805 17.134659 26.09375 17.113281 C 26.068544 17.088062 26.044478 17.062541 26.017578 17.039062 C 25.994267 17.015879 25.972018 16.992405 25.947266 16.970703 C 25.922716 16.946121 25.901164 16.919412 25.875 16.896484 C 25.848545 16.870018 25.823248 16.842899 25.794922 16.818359 C 25.771563 16.795205 25.749416 16.771664 25.724609 16.75 C 25.697843 16.723206 25.673222 16.694737 25.644531 16.669922 C 25.611681 16.637287 25.57867 16.605818 25.542969 16.576172 C 25.517707 16.55204 25.495624 16.526325 25.46875 16.503906 C 25.44469 16.480767 25.423978 16.457125 25.398438 16.435547 C 25.370319 16.408044 25.346589 16.378854 25.316406 16.353516 C 25.289194 16.327109 25.265458 16.29978 25.236328 16.275391 C 25.209096 16.248941 25.185408 16.221691 25.15625 16.197266 C 25.128072 16.169827 25.104468 16.140497 25.074219 16.115234 C 25.045346 16.08719 25.021276 16.057009 24.990234 16.03125 C 24.962694 16.004629 24.939662 15.97572 24.910156 15.951172 C 24.880343 15.922229 24.854395 15.891733 24.822266 15.865234 C 24.794294 15.838256 24.770234 15.809994 24.740234 15.785156 C 24.710581 15.756464 24.68624 15.725493 24.654297 15.699219 C 24.625007 15.670926 24.599882 15.641169 24.568359 15.615234 C 24.537653 15.585597 24.511674 15.554383 24.478516 15.527344 C 24.449264 15.499215 24.426004 15.467183 24.394531 15.441406 C 24.363251 15.411247 24.336562 15.37902 24.302734 15.351562 C 24.273063 15.32315 24.248747 15.291618 24.216797 15.265625 C 24.184799 15.234853 24.157708 15.201768 24.123047 15.173828 C 24.092034 15.144211 24.066701 15.110952 24.033203 15.083984 C 24.00245 15.054655 23.976558 15.022817 23.943359 14.996094 C 23.911594 14.965723 23.885947 14.931877 23.851562 14.904297 C 23.818164 14.872373 23.790198 14.837424 23.753906 14.808594 C 23.723099 14.779415 23.697313 14.747268 23.664062 14.720703 C 23.63163 14.6898 23.605475 14.654941 23.570312 14.626953 C 23.536592 14.594824 23.509329 14.558266 23.472656 14.529297 C 23.440502 14.498836 23.413733 14.465099 23.378906 14.4375 C 23.345031 14.405324 23.318102 14.368829 23.28125 14.339844 C 23.248159 14.308494 23.221476 14.272449 23.185547 14.244141 C 23.150698 14.211121 23.121981 14.174167 23.083984 14.144531 C 23.050089 14.112652 23.023178 14.075567 22.986328 14.046875 C 22.951693 14.014254 22.922495 13.978502 22.884766 13.949219 C 22.850843 13.91734 22.824 13.880243 22.787109 13.851562 C 22.751861 13.818319 22.724016 13.779774 22.685547 13.75 C 22.649644 13.716287 22.621258 13.676601 22.582031 13.646484 C 22.546902 13.613678 22.518764 13.576248 22.480469 13.546875 C 22.445206 13.513861 22.417376 13.474858 22.378906 13.445312 C 22.341254 13.410074 22.310834 13.36916 22.269531 13.337891 C 22.235017 13.305908 22.207479 13.26891 22.169922 13.240234 C 22.133233 13.205947 22.104618 13.165284 22.064453 13.134766 C 22.026393 13.099218 21.996875 13.056873 21.955078 13.025391 C 21.918262 12.991353 21.889884 12.95018 21.849609 12.919922 C 21.812714 12.885791 21.782565 12.846735 21.742188 12.816406 C 21.703711 12.780704 21.67509 12.736627 21.632812 12.705078 C 21.594316 12.669547 21.563764 12.627085 21.521484 12.595703 C 21.484566 12.561793 21.456402 12.520343 21.416016 12.490234 C 21.376597 12.453812 21.346134 12.40901 21.302734 12.376953 C 21.263075 12.34056 21.231155 12.297611 21.1875 12.265625 C 21.183834 12.261471 21.179496 12.258019 21.175781 12.253906 C 21.142173 12.223976 21.118417 12.18504 21.082031 12.158203 C 21.041352 12.120829 21.009741 12.07569 20.964844 12.042969 C 20.958165 12.035379 20.948249 12.026982 20.941406 12.019531 C 20.941406 12.019531 20.941406 12.017578 20.941406 12.017578 C 20.909558 11.974139 20.86286 11.943934 20.826172 11.904297 C 20.79255 11.858447 20.746041 11.8248 20.707031 11.783203 C 20.674667 11.739598 20.629072 11.70768 20.591797 11.667969 C 20.557768 11.622083 20.510164 11.588437 20.470703 11.546875 C 20.436437 11.50112 20.389301 11.467186 20.349609 11.425781 C 20.315659 11.380896 20.269669 11.347292 20.230469 11.306641 C 20.195362 11.26039 20.148108 11.225319 20.107422 11.183594 C 20.072897 11.138574 20.02617 11.105136 19.986328 11.064453 C 19.951094 11.018577 19.905993 10.982763 19.865234 10.941406 C 19.829001 10.894538 19.782246 10.858512 19.740234 10.816406 C 19.704974 10.771287 19.65979 10.735968 19.619141 10.695312 C 19.582111 10.647951 19.535145 10.610783 19.492188 10.568359 C 19.456023 10.522619 19.410868 10.486391 19.369141 10.445312 C 19.330912 10.397002 19.284656 10.35754 19.240234 10.314453 C 19.202786 10.2678 19.156544 10.231158 19.113281 10.189453 C 19.076017 10.143268 19.031258 10.105759 18.988281 10.064453 C 18.949036 10.015898 18.902968 9.9747749 18.857422 9.9316406 C 18.819784 9.8857397 18.775735 9.8476261 18.732422 9.8066406 C 18.693633 9.7592532 18.648338 9.7198832 18.603516 9.6777344 C 18.563671 9.6293681 18.518789 9.5877812 18.472656 9.5449219 C 18.433446 9.4978543 18.388942 9.4578041 18.34375 9.4160156 C 18.30266 9.3668377 18.256589 9.3246296 18.208984 9.28125 C 18.169724 9.2348803 18.127122 9.193491 18.082031 9.1523438 C 18.040989 9.1037718 17.996627 9.0604203 17.949219 9.0175781 C 17.907682 8.9689009 17.862393 8.9256658 17.814453 8.8828125 C 17.773859 8.8357349 17.730198 8.7935238 17.683594 8.7519531 C 17.640836 8.702379 17.59626 8.6567325 17.546875 8.6132812 C 17.505339 8.5657637 17.461715 8.5222823 17.414062 8.4804688 C 17.372056 8.4324592 17.329478 8.3878833 17.28125 8.3457031 C 17.237436 8.2958308 17.193073 8.2486199 17.142578 8.2050781 C 17.100866 8.1582535 17.059349 8.1134347 17.011719 8.0722656 C 16.967009 8.0219299 16.92257 7.9734938 16.871094 7.9296875 C 16.827997 7.881901 16.785545 7.8347787 16.736328 7.7929688 C 16.691846 7.7437102 16.648593 7.6952396 16.597656 7.6523438 C 16.552921 7.6032701 16.510107 7.5544113 16.458984 7.5117188 C 16.415343 7.4642675 16.37382 7.4164359 16.324219 7.375 C 16.279117 7.3259511 16.236949 7.2750456 16.185547 7.2324219 C 16.140265 7.1835323 16.098377 7.1323031 16.046875 7.0898438 C 16.000559 7.0401791 15.956976 6.9882915 15.904297 6.9453125 C 15.891608 6.9318682 15.880363 6.91726 15.867188 6.9042969 C 15.861484 6.8969817 15.853492 6.891968 15.847656 6.8847656 C 15.819821 6.8583695 15.797357 6.8269586 15.767578 6.8027344 C 15.758034 6.7926553 15.748097 6.783246 15.738281 6.7734375 C 15.731809 6.7665901 15.727309 6.7566055 15.720703 6.75 C 15.683091 6.7030143 15.636554 6.6650885 15.59375 6.6230469 C 15.586047 6.6148393 15.580157 6.6035947 15.572266 6.5957031 C 15.537341 6.5532228 15.494239 6.5188049 15.455078 6.4804688 C 15.443501 6.4677961 15.433884 6.4514624 15.421875 6.4394531 C 15.390481 6.4022819 15.35104 6.3737602 15.316406 6.3398438 C 15.300851 6.3223857 15.289787 6.299553 15.273438 6.2832031 C 15.244027 6.2493169 15.207871 6.2225112 15.175781 6.1914062 C 15.157288 6.1703462 15.142675 6.1446278 15.123047 6.125 C 15.094319 6.0928021 15.05847 6.0686735 15.027344 6.0390625 C 15.007289 6.0161549 14.992094 5.9881873 14.970703 5.9667969 C 14.944592 5.9383383 14.912737 5.9170023 14.884766 5.890625 C 14.861773 5.8640651 14.843127 5.8333613 14.818359 5.8085938 C 14.795367 5.7842337 14.766532 5.7669287 14.742188 5.7441406 C 14.715607 5.7130115 14.695008 5.6774302 14.666016 5.6484375 C 14.356558 5.329843 13.929199 5.1484373 13.482422 5.1484375 L 6.8164062 5.1484375 z "
       id="path6281"
       style="fill-opacity:1;fill:url(#linearGradient7138);opacity:0.2"
       clip-path="url(#clipPath7143)" />
    <path
       d="m 3.9999777,4.0333382 12.0000003,0 0,11.9333328 -12.0000003,0 z"
       id="path4"
       inkscape:connector-curvature="0"
       style="fill:none" />
    <path
       style="fill:none"
       inkscape:connector-curvature="0"
       id="path9754"
       d="m 18.999978,19.033339 12,0 0,11.933333 -12,0 z" />
    <path
       inkscape:connector-curvature="0"
       d="m 6.6666447,5.0000048 6.6666663,0 a 1.6666666,1.6666666 0 0 1 1.666667,1.6666667 l 0,6.6666665 a 1.6666666,1.6666666 0 0 1 -1.666667,1.666667 l -6.6666663,0 a 1.6666666,1.6666666 0 0 1 -1.666667,-1.666667 l 0,-6.6666665 a 1.6666666,1.6666666 0 0 1 1.666667,-1.6666667 m 0.555555,1.6666667 a 0.55555555,0.55555555 0 0 0 -0.555555,0.5555556 l 0,5.5555559 a 0.55555555,0.55555555 0 0 0 0.555555,0.555555 l 5.5555563,0 a 0.55555555,0.55555555 0 0 0 0.555555,-0.555555 l 0,-5.5555559 A 0.55555555,0.55555555 0 0 0 12.777756,6.6666715 l -5.5555563,0 m 1.388889,1.6666667 2.7777783,0 a 0.27777777,0.27777777 0 0 1 0.277778,0.2777777 l 0,2.7777781 a 0.27777777,0.27777777 0 0 1 -0.277778,0.277777 l -2.7777783,0 a 0.27777777,0.27777777 0 0 1 -0.277778,-0.277777 l 0,-2.7777781 a 0.27777777,0.27777777 0 0 1 0.277778,-0.2777777 z"
       id="path6217"
       style="fill:#ffeb3b" />
  </g>
</svg>
