<?xml version="1.0" encoding="UTF-8" standalone="no"?>
<!-- Created with Inkscape (http://www.inkscape.org/) -->

<svg
   xmlns:dc="http://purl.org/dc/elements/1.1/"
   xmlns:cc="http://creativecommons.org/ns#"
   xmlns:rdf="http://www.w3.org/1999/02/22-rdf-syntax-ns#"
   xmlns:svg="http://www.w3.org/2000/svg"
   xmlns="http://www.w3.org/2000/svg"
   xmlns:xlink="http://www.w3.org/1999/xlink"
   xmlns:sodipodi="http://sodipodi.sourceforge.net/DTD/sodipodi-0.dtd"
   xmlns:inkscape="http://www.inkscape.org/namespaces/inkscape"
   inkscape:export-ydpi="648"
   inkscape:export-xdpi="648"
   inkscape:export-filename="/home/juergen/Projekte/Android/Android_Studio/Baumann_Theme/theme/src/main/assets/icons/res/drawable-xxhdpi/a003.png"
   width="5.6444445mm"
   height="5.6444445mm"
   viewBox="0 0 20 20"
   id="svg2"
   version="1.1"
   inkscape:version="0.91 r13725"
   sodipodi:docname="Igel.svg">
  <sodipodi:namedview
     id="base"
     pagecolor="#ffffff"
     bordercolor="#666666"
     borderopacity="1.0"
     inkscape:pageopacity="0.0"
     inkscape:pageshadow="2"
     inkscape:zoom="15.839192"
     inkscape:cx="4.6025594"
     inkscape:cy="8.322903"
     inkscape:document-units="px"
     inkscape:current-layer="layer1"
     showgrid="true"
     fit-margin-top="0"
     fit-margin-left="0"
     fit-margin-right="0"
     fit-margin-bottom="0"
     showguides="true"
     inkscape:guide-bbox="true"
     inkscape:window-width="1366"
     inkscape:window-height="744"
     inkscape:window-x="0"
     inkscape:window-y="24"
     inkscape:window-maximized="1"
     inkscape:snap-grids="false"
     inkscape:snap-to-guides="false">
    <inkscape:grid
       type="xygrid"
       id="grid4138" />
    <sodipodi:guide
       position="24,18"
       orientation="0,1"
       id="guide4140" />
    <sodipodi:guide
       position="10,2"
       orientation="0,1"
       id="guide4142" />
    <sodipodi:guide
       position="2,10"
       orientation="1,0"
       id="guide4144" />
    <sodipodi:guide
       position="0,0"
       orientation="0,20"
       id="guide4146" />
    <sodipodi:guide
       position="20,0"
       orientation="-20,0"
       id="guide4148" />
    <sodipodi:guide
       position="20,20"
       orientation="0,-20"
       id="guide4150" />
    <sodipodi:guide
       position="0,20"
       orientation="20,0"
       id="guide4152" />
    <sodipodi:guide
       position="18,10"
       orientation="1,0"
       id="guide4154" />
    <sodipodi:guide
       position="10,10"
       orientation="-0.70710678,0.70710678"
       id="guide4156" />
    <sodipodi:guide
       position="10,10"
       orientation="0.70710678,0.70710678"
       id="guide4158" />
    <sodipodi:guide
       position="4,10"
       orientation="1,0"
       id="guide4160" />
    <sodipodi:guide
       position="16,10"
       orientation="1,0"
       id="guide4162" />
    <sodipodi:guide
       position="10,16"
       orientation="0,1"
       id="guide4164" />
    <sodipodi:guide
       position="10,4"
       orientation="0,1"
       id="guide4166" />
    <sodipodi:guide
       position="10,15"
       orientation="0,1"
       id="guide4168" />
    <sodipodi:guide
       position="10,5"
       orientation="0,1"
       id="guide4170" />
    <sodipodi:guide
       position="5,10"
       orientation="1,0"
       id="guide4172" />
    <sodipodi:guide
       position="15,10"
       orientation="1,0"
       id="guide4174" />
  </sodipodi:namedview>
  <defs
     id="defs4">
    <linearGradient
       inkscape:collect="always"
       id="linearGradient10383">
      <stop
         style="stop-color:#000000;stop-opacity:0.2"
         offset="0"
         id="stop10385" />
      <stop
         style="stop-color:#000000;stop-opacity:0;"
         offset="1"
         id="stop10387" />
    </linearGradient>
    <clipPath
       id="clipPath12478"
       clipPathUnits="userSpaceOnUse">
      <circle
         r="10"
         cy="10.000005"
         cx="9.9999781"
         id="circle12480"
         style="opacity:1;fill:#2196f3;fill-opacity:1;stroke:none;stroke-width:0.05069799;stroke-miterlimit:4;stroke-dasharray:none;stroke-opacity:1" />
    </clipPath>
    <clipPath
       clipPathUnits="userSpaceOnUse"
       id="clipPath5790">
      <circle
         r="10"
         cy="10.000005"
         cx="9.9999781"
         id="circle5792"
         style="opacity:1;fill:#2196f3;fill-opacity:1;stroke:none;stroke-width:0.05069799;stroke-miterlimit:4;stroke-dasharray:none;stroke-opacity:1"
         inkscape:export-filename="/home/juergen/path4136.png"
         inkscape:export-xdpi="648"
         inkscape:export-ydpi="648" />
    </clipPath>
    <clipPath
       id="clipPath7690"
       clipPathUnits="userSpaceOnUse">
      <circle
         r="10"
         cy="10.000005"
         cx="9.9999781"
         id="circle7692"
         style="opacity:1;fill:#2196f3;fill-opacity:1;stroke:none;stroke-width:0.05069799;stroke-miterlimit:4;stroke-dasharray:none;stroke-opacity:1"
         inkscape:export-filename="/home/juergen/Schreibtisch/path4136.png"
         inkscape:export-xdpi="648"
         inkscape:export-ydpi="648" />
    </clipPath>
    <clipPath
       clipPathUnits="userSpaceOnUse"
       id="clipPath5119">
      <circle
         r="10"
         cy="10.000005"
         cx="9.9999781"
         id="circle5121"
         style="opacity:1;fill:#ff9800;fill-opacity:1;stroke:none;stroke-width:0.05069799;stroke-miterlimit:4;stroke-dasharray:none;stroke-opacity:1"
         inkscape:export-filename="/home/juergen/Schreibtisch/path4136.png"
         inkscape:export-xdpi="648"
         inkscape:export-ydpi="648" />
    </clipPath>
    <clipPath
       id="clipPath6101"
       clipPathUnits="userSpaceOnUse">
      <circle
         r="10"
         cy="10.000005"
         cx="9.9999781"
         id="circle6103"
         style="opacity:1;fill:#8bc34a;fill-opacity:1;stroke:none;stroke-width:0.05069799;stroke-miterlimit:4;stroke-dasharray:none;stroke-opacity:1"
         inkscape:export-filename="/home/juergen/Schreibtisch/path4136.png"
         inkscape:export-xdpi="648"
         inkscape:export-ydpi="648" />
    </clipPath>
    <clipPath
       clipPathUnits="userSpaceOnUse"
       id="clipPath5126">
      <circle
         r="10"
         cy="10.000005"
         cx="9.9999781"
         id="circle5128"
         style="opacity:1;fill:#9e9e9e;fill-opacity:1;stroke:none;stroke-width:0.05069799;stroke-miterlimit:4;stroke-dasharray:none;stroke-opacity:1"
         inkscape:export-filename="/home/juergen/Schreibtisch/path4136.png"
         inkscape:export-xdpi="648"
         inkscape:export-ydpi="648" />
    </clipPath>
    <clipPath
       id="clipPath6109"
       clipPathUnits="userSpaceOnUse">
      <circle
         r="10"
         cy="10.000005"
         cx="9.9999781"
         id="circle6111"
         style="opacity:1;fill:#9e9e9e;fill-opacity:1;stroke:none;stroke-width:0.05069799;stroke-miterlimit:4;stroke-dasharray:none;stroke-opacity:1"
         inkscape:export-filename="/home/juergen/Projekte/Android/Android_Studio/Baumann_Theme/theme/src/main/assets/icons/res/drawable-xxhdpi/a143.png"
         inkscape:export-xdpi="648"
         inkscape:export-ydpi="648" />
    </clipPath>
    <clipPath
       clipPathUnits="userSpaceOnUse"
       id="clipPath7094">
      <circle
         r="10"
         cy="10.000005"
         cx="9.9999781"
         id="circle7096"
         style="opacity:1;fill:#ff5722;fill-opacity:1;stroke:none;stroke-width:0.05069799;stroke-miterlimit:4;stroke-dasharray:none;stroke-opacity:1"
         inkscape:export-filename="/home/juergen/Projekte/Android/Android_Studio/Baumann_Theme/theme/src/main/assets/icons/res/drawable-xxhdpi/a144.png"
         inkscape:export-xdpi="648"
         inkscape:export-ydpi="648" />
    </clipPath>
    <clipPath
       clipPathUnits="userSpaceOnUse"
       id="clipPath7102">
      <path
         style="fill:none;fill-rule:evenodd;stroke:#000000;stroke-width:1px;stroke-linecap:butt;stroke-linejoin:miter;stroke-opacity:1"
         d="M 11,17 10,4 16,4 16,17 Z"
         id="path7104"
         inkscape:connector-curvature="0" />
    </clipPath>
    <clipPath
       id="clipPath8095"
       clipPathUnits="userSpaceOnUse">
      <circle
         r="10"
         cy="10.000005"
         cx="9.9999781"
         id="circle8097"
         style="opacity:1;fill:#03a9f4;fill-opacity:1;stroke:none;stroke-width:0.05069799;stroke-miterlimit:4;stroke-dasharray:none;stroke-opacity:1"
         inkscape:export-filename="/home/juergen/Projekte/Android/Android_Studio/Baumann_Theme/theme/src/main/assets/icons/res/drawable-xxhdpi/a145.png"
         inkscape:export-xdpi="648"
         inkscape:export-ydpi="648" />
    </clipPath>
    <linearGradient
       inkscape:collect="always"
       xlink:href="#linearGradient10383"
       id="linearGradient10389"
       x1="10"
       y1="10"
       x2="20"
       y2="20"
       gradientUnits="userSpaceOnUse" />
    <clipPath
       clipPathUnits="userSpaceOnUse"
       id="clipPath10394">
      <circle
         r="10"
         cy="10.000005"
         cx="9.9999781"
         id="circle10396"
         style="opacity:1;fill:#4caf50;fill-opacity:1;stroke:none;stroke-width:0.05069799;stroke-miterlimit:4;stroke-dasharray:none;stroke-opacity:1"
         inkscape:export-filename="/home/juergen/Projekte/Android/Android_Studio/Baumann_Theme/theme/src/main/assets/icons/res/drawable-xxhdpi/a146.png"
         inkscape:export-xdpi="648"
         inkscape:export-ydpi="648" />
    </clipPath>
  </defs>
  <metadata
     id="metadata7">
    <rdf:RDF>
      <cc:Work
         rdf:about="">
        <dc:format>image/svg+xml</dc:format>
        <dc:type
           rdf:resource="http://purl.org/dc/dcmitype/StillImage" />
        <dc:title></dc:title>
      </cc:Work>
    </rdf:RDF>
  </metadata>
  <g
     inkscape:label="Hintergrund"
     inkscape:groupmode="layer"
     id="layer1"
     transform="translate(1058.1428,-861.93365)">
    <circle
       inkscape:export-ydpi="648"
       inkscape:export-xdpi="648"
       inkscape:export-filename="/home/juergen/Projekte/Android/Android_Studio/Baumann_Theme/theme/src/main/assets/icons/res/drawable-xxhdpi/a147.png"
       style="opacity:1;fill:#8bc34a;fill-opacity:1;stroke:none;stroke-width:0.05069799;stroke-miterlimit:4;stroke-dasharray:none;stroke-opacity:1"
       id="path4136"
       cx="-1048.1428"
       cy="871.93365"
       r="10" />
  </g>
  <g
     style="display:inline"
     inkscape:groupmode="layer"
     id="layer2"
     inkscape:label="Icon">
    <path
       d="m 3.9999777,4.0333382 12.0000003,0 0,11.9333328 -12.0000003,0 z"
       id="path4"
       inkscape:connector-curvature="0"
       style="fill:none" />
    <path
       style="fill:none"
       inkscape:connector-curvature="0"
       id="path9754"
       d="m 18.999978,19.033339 12,0 0,11.933333 -12,0 z" />
    <path
       d="M 8.8847656 7.3242188 L 8.1289062 8.21875 L 6.9570312 8.2539062 L 6.6640625 9.3867188 L 5.6230469 9.9238281 L 5.8515625 11.074219 L 5.1484375 11.998047 L 5.8398438 12.908203 L 5.8730469 12.908203 L 5.9863281 13.056641 L 6.0234375 13.056641 L 6.1347656 13.203125 L 6.1699219 13.203125 L 6.28125 13.349609 L 6.3164062 13.349609 L 6.4277344 13.496094 L 6.4628906 13.496094 L 6.5722656 13.640625 L 6.6074219 13.640625 L 6.7167969 13.785156 L 6.7519531 13.785156 L 6.8613281 13.929688 L 6.8945312 13.929688 L 7.0039062 14.072266 L 7.0390625 14.072266 L 7.1464844 14.214844 L 7.1796875 14.214844 L 7.2871094 14.355469 L 7.3203125 14.355469 L 7.4277344 14.496094 L 7.4609375 14.496094 L 7.5683594 14.636719 L 7.6015625 14.636719 L 7.7070312 14.775391 L 7.7402344 14.775391 L 7.8457031 14.914062 L 7.8769531 14.914062 L 7.9824219 15.052734 L 8.0175781 15.052734 L 8.1210938 15.189453 L 8.1542969 15.189453 L 8.2558594 15.324219 L 8.2890625 15.324219 L 8.3925781 15.460938 L 8.4238281 15.460938 L 8.5273438 15.595703 L 8.5585938 15.595703 L 8.6601562 15.728516 L 8.6933594 15.728516 L 8.7949219 15.863281 L 8.8242188 15.863281 L 8.9257812 15.996094 L 8.9589844 15.996094 L 9.0585938 16.126953 L 9.0898438 16.126953 L 9.1894531 16.257812 L 9.2207031 16.257812 L 9.3203125 16.388672 L 9.3515625 16.388672 L 9.4492188 16.517578 L 9.4804688 16.517578 L 9.578125 16.646484 L 9.609375 16.646484 L 9.7070312 16.775391 L 9.7382812 16.775391 L 9.8339844 16.902344 L 9.8652344 16.902344 L 9.9609375 17.029297 L 9.9902344 17.029297 L 10.085938 17.154297 L 10.115234 17.154297 L 10.210938 17.279297 L 10.240234 17.279297 L 10.335938 17.404297 L 10.365234 17.404297 L 10.458984 17.527344 L 10.488281 17.527344 L 10.582031 17.650391 L 10.611328 17.650391 L 10.705078 17.773438 L 10.734375 17.773438 L 10.826172 17.894531 L 10.855469 17.894531 L 10.947266 18.015625 L 10.976562 18.015625 L 11.066406 18.134766 L 11.095703 18.134766 L 11.185547 18.253906 L 11.214844 18.253906 L 11.304688 18.373047 L 11.332031 18.373047 L 11.421875 18.490234 L 11.449219 18.490234 L 11.539062 18.607422 L 11.566406 18.607422 L 11.654297 18.722656 L 11.681641 18.722656 L 11.769531 18.839844 L 11.798828 18.839844 L 11.884766 18.953125 L 11.910156 18.953125 L 11.998047 19.068359 L 12.025391 19.068359 L 12.111328 19.181641 L 12.140625 19.181641 L 12.224609 19.292969 L 12.251953 19.292969 L 12.335938 19.404297 L 12.363281 19.404297 L 12.447266 19.515625 L 12.474609 19.515625 L 12.558594 19.626953 L 12.583984 19.626953 L 12.667969 19.736328 L 12.693359 19.736328 L 12.775391 19.845703 L 12.802734 19.845703 L 12.884766 19.953125 L 12.910156 19.953125 L 12.992188 20.060547 L 13.017578 20.060547 L 13.097656 20.166016 L 13.123047 20.166016 L 13.203125 20.271484 L 13.228516 20.271484 L 13.308594 20.376953 L 13.333984 20.376953 L 13.414062 20.482422 L 13.439453 20.482422 L 13.517578 20.585938 L 13.542969 20.585938 L 13.619141 20.6875 L 13.644531 20.6875 L 13.722656 20.791016 L 13.746094 20.791016 L 13.822266 20.892578 L 13.847656 20.892578 L 13.923828 20.992188 L 13.947266 20.992188 L 14.023438 21.091797 L 14.046875 21.091797 L 14.123047 21.191406 L 14.146484 21.191406 L 14.220703 21.289062 L 14.244141 21.289062 L 14.318359 21.386719 L 14.341797 21.386719 L 14.416016 21.484375 L 14.439453 21.484375 L 14.511719 21.580078 L 14.535156 21.580078 L 14.607422 21.675781 L 14.628906 21.675781 L 14.701172 21.771484 L 14.724609 21.771484 L 14.794922 21.865234 L 14.818359 21.865234 L 14.888672 21.957031 L 14.912109 21.957031 L 14.982422 22.050781 L 15.001953 22.050781 L 15.072266 22.142578 L 15.095703 22.142578 L 15.164062 22.232422 L 15.185547 22.232422 L 15.253906 22.322266 L 15.275391 22.322266 L 15.34375 22.412109 L 15.363281 22.412109 L 15.431641 22.501953 L 15.455078 22.501953 L 15.521484 22.589844 L 15.542969 22.589844 L 15.607422 22.675781 L 15.626953 22.675781 L 15.693359 22.763672 L 15.714844 22.763672 L 15.779297 22.849609 L 15.800781 22.849609 L 15.865234 22.933594 L 15.884766 22.933594 L 15.949219 23.017578 L 15.96875 23.017578 L 16.033203 23.101562 L 16.052734 23.101562 L 16.115234 23.183594 L 16.134766 23.183594 L 16.197266 23.265625 L 16.216797 23.265625 L 16.279297 23.347656 L 16.298828 23.347656 L 16.359375 23.427734 L 16.378906 23.427734 L 16.439453 23.507812 L 16.457031 23.507812 L 16.517578 23.587891 L 16.539062 23.587891 L 16.597656 23.666016 L 16.615234 23.666016 L 16.673828 23.742188 L 16.693359 23.742188 L 16.751953 23.820312 L 16.769531 23.820312 L 16.828125 23.896484 L 16.845703 23.896484 L 16.902344 23.970703 L 16.917969 23.970703 L 16.976562 24.046875 L 16.996094 24.046875 L 17.050781 24.119141 L 17.068359 24.119141 L 17.125 24.193359 L 17.142578 24.193359 L 17.197266 24.265625 L 17.212891 24.265625 L 17.267578 24.337891 L 17.287109 24.337891 L 17.339844 24.408203 L 17.357422 24.408203 L 17.410156 24.478516 L 17.425781 24.478516 L 17.478516 24.546875 L 17.494141 24.546875 L 17.546875 24.617188 L 17.564453 24.617188 L 17.615234 24.683594 L 17.630859 24.683594 L 17.683594 24.751953 L 17.699219 24.751953 L 17.75 24.818359 L 17.765625 24.818359 L 17.814453 24.882812 L 17.830078 24.882812 L 17.880859 24.949219 L 17.894531 24.949219 L 17.943359 25.013672 L 17.960938 25.013672 L 18.007812 25.076172 L 18.023438 25.076172 L 18.070312 25.138672 L 18.085938 25.138672 L 18.132812 25.201172 L 18.146484 25.201172 L 18.193359 25.261719 L 18.207031 25.261719 L 18.253906 25.322266 L 18.267578 25.322266 L 18.314453 25.382812 L 18.328125 25.382812 L 18.373047 25.441406 L 18.386719 25.441406 L 18.431641 25.5 L 18.445312 25.5 L 18.488281 25.556641 L 18.5 25.556641 L 18.544922 25.615234 L 18.560547 25.615234 L 18.601562 25.669922 L 18.613281 25.669922 L 18.65625 25.726562 L 18.669922 25.726562 L 18.710938 25.78125 L 18.726562 25.78125 L 18.765625 25.833984 L 18.779297 25.833984 L 18.818359 25.886719 L 18.832031 25.886719 L 18.871094 25.939453 L 18.882812 25.939453 L 18.921875 25.992188 L 18.933594 25.992188 L 18.972656 26.042969 L 18.986328 26.042969 L 19.023438 26.091797 L 19.033203 26.091797 L 19.072266 26.142578 L 19.085938 26.142578 L 19.121094 26.189453 L 19.132812 26.189453 L 19.169922 26.238281 L 19.181641 26.238281 L 19.216797 26.285156 L 19.228516 26.285156 L 19.263672 26.332031 L 19.275391 26.332031 L 19.308594 26.376953 L 19.320312 26.376953 L 19.353516 26.421875 L 19.363281 26.421875 L 19.398438 26.466797 L 19.408203 26.466797 L 19.441406 26.509766 L 19.451172 26.509766 L 19.484375 26.552734 L 19.494141 26.552734 L 19.525391 26.59375 L 19.533203 26.59375 L 19.566406 26.636719 L 19.578125 26.636719 L 19.607422 26.675781 L 19.615234 26.675781 L 19.646484 26.716797 L 19.65625 26.716797 L 19.685547 26.755859 L 19.697266 26.755859 L 19.724609 26.792969 L 19.734375 26.792969 L 19.761719 26.830078 L 19.771484 26.830078 L 19.798828 26.867188 L 19.806641 26.867188 L 19.833984 26.904297 L 19.841797 26.904297 L 19.869141 26.939453 L 19.878906 26.939453 L 19.904297 26.972656 L 19.910156 26.972656 L 19.9375 27.007812 L 19.945312 27.007812 L 19.970703 27.041016 L 19.980469 27.041016 L 20.003906 27.072266 L 20.011719 27.072266 L 20.035156 27.103516 L 20.042969 27.103516 L 20.066406 27.134766 L 20.074219 27.134766 L 20.095703 27.164062 L 20.103516 27.164062 L 20.125 27.193359 L 20.132812 27.193359 L 20.154297 27.222656 L 20.160156 27.222656 L 20.181641 27.25 L 20.1875 27.25 L 20.208984 27.277344 L 20.214844 27.277344 L 20.236328 27.304688 L 20.242188 27.304688 L 20.261719 27.330078 L 20.265625 27.330078 L 20.285156 27.355469 L 20.292969 27.355469 L 20.310547 27.378906 L 20.316406 27.378906 L 20.333984 27.402344 L 20.339844 27.402344 L 20.355469 27.423828 L 20.361328 27.423828 L 20.378906 27.447266 L 20.382812 27.447266 L 20.398438 27.46875 L 20.404297 27.46875 L 20.419922 27.488281 L 20.423828 27.488281 L 20.439453 27.507812 L 20.443359 27.507812 L 20.458984 27.527344 L 20.462891 27.527344 L 20.476562 27.544922 L 20.480469 27.544922 L 20.494141 27.5625 L 20.496094 27.5625 L 20.509766 27.580078 L 20.515625 27.580078 L 20.527344 27.595703 L 20.529297 27.595703 L 20.541016 27.611328 L 20.546875 27.611328 L 20.556641 27.625 L 20.560547 27.625 L 20.570312 27.638672 L 20.572266 27.638672 L 20.582031 27.652344 L 20.585938 27.652344 L 20.595703 27.664062 L 20.597656 27.664062 L 20.607422 27.675781 L 20.609375 27.675781 L 20.617188 27.685547 L 20.619141 27.685547 L 20.626953 27.695312 L 20.628906 27.695312 L 20.636719 27.705078 L 20.644531 27.714844 L 20.646484 27.714844 L 20.652344 27.722656 L 20.65625 27.722656 L 20.660156 27.728516 L 20.662109 27.728516 L 20.666016 27.734375 L 20.667969 27.734375 L 20.671875 27.740234 L 20.673828 27.740234 L 20.677734 27.746094 L 20.681641 27.75 L 20.683594 27.753906 L 20.685547 27.753906 L 20.6875 27.755859 L 20.689453 27.757812 L 24.855469 27.757812 L 24.857422 27.757812 L 29.023438 27.757812 L 29.119141 27.757812 C 29.201481 27.799592 29.293961 27.824229 29.392578 27.824219 C 29.559454 27.824215 29.710667 27.755557 29.820312 27.646484 C 29.875707 27.591379 29.920275 27.526179 29.951172 27.453125 C 29.981857 27.380574 30.000002 27.302478 30 27.21875 C 30.000011 27.140025 29.984329 27.063144 29.957031 26.994141 C 29.957031 26.994141 29.955078 26.992188 29.955078 26.992188 C 29.92762 26.923692 29.888924 26.862074 29.839844 26.808594 C 29.839844 26.808594 29.837891 26.806641 29.837891 26.806641 C 29.837505 26.806212 29.838278 26.805115 29.837891 26.804688 C 29.837266 26.804016 29.836565 26.803403 29.835938 26.802734 C 29.834967 26.801671 29.83301 26.801838 29.832031 26.800781 C 29.832031 26.800781 29.830078 26.798828 29.830078 26.798828 C 29.830078 26.798828 29.828125 26.796875 29.828125 26.796875 C 29.826867 26.795541 29.825489 26.794291 29.824219 26.792969 C 29.824219 26.792969 29.822266 26.791016 29.822266 26.791016 C 29.82102 26.789652 29.817664 26.786509 29.816406 26.785156 C 29.815162 26.783793 29.811804 26.780649 29.810547 26.779297 C 29.80897 26.777569 29.806284 26.7771 29.804688 26.775391 C 29.802139 26.772559 29.799476 26.770361 29.796875 26.767578 C 29.794328 26.764748 29.791662 26.762547 29.789062 26.759766 C 29.785923 26.756277 29.782516 26.753414 29.779297 26.75 C 29.776147 26.7465 29.772761 26.743659 29.769531 26.740234 C 29.766389 26.736742 29.762988 26.733886 29.759766 26.730469 C 29.756025 26.726276 29.751901 26.722837 29.748047 26.71875 C 29.744309 26.71456 29.74018 26.711115 29.736328 26.707031 C 29.731991 26.702169 29.727147 26.698078 29.722656 26.693359 C 29.717346 26.687405 29.710618 26.683473 29.705078 26.677734 C 29.701308 26.673545 29.697244 26.670097 29.693359 26.666016 C 29.688668 26.660756 29.682605 26.657435 29.677734 26.652344 C 29.672435 26.646368 29.667641 26.640524 29.662109 26.634766 C 29.656837 26.6288 29.650034 26.62489 29.644531 26.619141 C 29.639233 26.613166 29.634436 26.60732 29.628906 26.601562 C 29.623039 26.594921 29.615528 26.590358 29.609375 26.583984 C 29.603175 26.57693 29.596366 26.571206 29.589844 26.564453 C 29.583625 26.557378 29.576856 26.551694 29.570312 26.544922 C 29.562913 26.536502 29.554733 26.529473 29.546875 26.521484 C 29.540973 26.514864 29.533533 26.510255 29.527344 26.503906 C 29.519938 26.495476 29.511773 26.488465 29.503906 26.480469 C 29.496141 26.47163 29.486787 26.465392 29.478516 26.457031 C 29.472248 26.44996 29.465579 26.444262 29.458984 26.4375 C 29.449722 26.426801 29.439685 26.418209 29.429688 26.408203 C 29.422806 26.40044 29.41548 26.394108 29.408203 26.386719 C 29.400223 26.377549 29.391338 26.369986 29.382812 26.361328 C 29.374246 26.351484 29.364664 26.343236 29.355469 26.333984 C 29.346917 26.324158 29.337303 26.315876 29.328125 26.306641 C 29.318603 26.295696 29.307174 26.287551 29.296875 26.277344 C 29.288501 26.267807 29.278501 26.260925 29.269531 26.251953 C 29.260848 26.241912 29.251527 26.234034 29.242188 26.224609 C 29.231202 26.211721 29.219084 26.201335 29.207031 26.189453 C 29.198065 26.179181 29.189346 26.169773 29.179688 26.160156 C 29.16906 26.147823 29.156147 26.138349 29.144531 26.126953 C 29.135034 26.116029 29.123562 26.107838 29.113281 26.097656 C 29.102962 26.085605 29.093296 26.07366 29.082031 26.0625 L 29.080078 26.0625 L 29.0625 26.035156 L 28.941406 25.832031 L 29.142578 24.775391 L 29.142578 24.773438 L 29.140625 24.771484 L 29.138672 24.769531 L 29.134766 24.767578 L 29.134766 24.765625 L 29.130859 24.763672 L 29.130859 24.761719 L 29.125 24.757812 L 29.119141 24.753906 L 29.119141 24.751953 L 29.113281 24.748047 L 29.113281 24.746094 L 29.107422 24.742188 L 29.107422 24.738281 L 29.099609 24.734375 L 29.099609 24.730469 L 29.089844 24.724609 L 29.089844 24.722656 L 29.080078 24.71875 L 29.082031 24.712891 L 29.070312 24.707031 L 29.070312 24.703125 L 29.058594 24.697266 L 29.060547 24.691406 L 29.048828 24.685547 L 29.048828 24.681641 L 29.035156 24.675781 L 29.037109 24.667969 L 29.023438 24.660156 L 29.023438 24.65625 L 29.007812 24.648438 L 29.009766 24.642578 L 28.994141 24.634766 L 28.996094 24.626953 L 28.978516 24.619141 L 28.980469 24.611328 L 28.962891 24.603516 L 28.964844 24.595703 L 28.945312 24.585938 L 28.947266 24.580078 L 28.927734 24.570312 L 28.929688 24.5625 L 28.910156 24.552734 L 28.912109 24.542969 L 28.890625 24.533203 L 28.892578 24.525391 L 28.871094 24.513672 L 28.873047 24.505859 L 28.851562 24.494141 L 28.853516 24.484375 L 28.830078 24.472656 L 28.832031 24.462891 L 28.808594 24.451172 L 28.810547 24.441406 L 28.785156 24.427734 L 28.787109 24.419922 L 28.761719 24.40625 L 28.763672 24.396484 L 28.738281 24.382812 L 28.740234 24.371094 L 28.712891 24.357422 L 28.714844 24.345703 L 28.6875 24.332031 L 28.689453 24.320312 L 28.660156 24.304688 L 28.662109 24.294922 L 28.632812 24.279297 L 28.634766 24.267578 L 28.605469 24.251953 L 28.607422 24.240234 L 28.578125 24.224609 L 28.580078 24.210938 L 28.546875 24.193359 L 28.548828 24.181641 L 28.517578 24.166016 L 28.519531 24.152344 L 28.486328 24.134766 L 28.488281 24.121094 L 28.455078 24.103516 L 28.457031 24.089844 L 28.421875 24.072266 L 28.425781 24.056641 L 28.390625 24.039062 L 28.392578 24.023438 L 28.355469 24.003906 L 28.357422 23.990234 L 28.320312 23.970703 L 28.324219 23.955078 L 28.285156 23.935547 L 28.289062 23.919922 L 28.25 23.898438 L 28.251953 23.884766 L 28.210938 23.863281 L 28.214844 23.847656 L 28.173828 23.826172 L 28.177734 23.810547 L 28.136719 23.789062 L 28.140625 23.771484 L 28.097656 23.75 L 28.101562 23.732422 L 28.056641 23.708984 L 28.060547 23.693359 L 28.017578 23.671875 L 28.021484 23.652344 L 27.976562 23.628906 L 27.980469 23.611328 L 27.933594 23.587891 L 27.9375 23.570312 L 27.923828 23.5625 L 27.921875 23.5625 L 27.802734 23.103516 L 27.800781 23.103516 L 27.800781 23.101562 L 27.798828 23.097656 L 27.794922 23.097656 L 27.794922 23.095703 L 27.792969 23.095703 L 27.791016 23.091797 L 27.787109 23.091797 L 27.785156 23.085938 L 27.78125 23.085938 L 27.779297 23.080078 L 27.775391 23.080078 L 27.773438 23.074219 L 27.769531 23.074219 L 27.767578 23.066406 L 27.761719 23.066406 L 27.759766 23.058594 L 27.751953 23.058594 L 27.75 23.050781 L 27.742188 23.050781 L 27.740234 23.041016 L 27.732422 23.041016 L 27.730469 23.03125 L 27.722656 23.03125 L 27.720703 23.021484 L 27.712891 23.021484 L 27.708984 23.009766 L 27.701172 23.009766 L 27.697266 22.998047 L 27.6875 22.998047 L 27.683594 22.984375 L 27.673828 22.984375 L 27.669922 22.970703 L 27.660156 22.970703 L 27.65625 22.955078 L 27.644531 22.955078 L 27.640625 22.941406 L 27.628906 22.941406 L 27.625 22.923828 L 27.611328 22.923828 L 27.607422 22.908203 L 27.59375 22.908203 L 27.589844 22.890625 L 27.576172 22.890625 L 27.572266 22.873047 L 27.558594 22.873047 L 27.552734 22.853516 L 27.539062 22.853516 L 27.533203 22.833984 L 27.519531 22.833984 L 27.513672 22.8125 L 27.498047 22.8125 L 27.492188 22.792969 L 27.476562 22.792969 L 27.470703 22.769531 L 27.453125 22.769531 L 27.447266 22.748047 L 27.429688 22.748047 L 27.423828 22.724609 L 27.40625 22.724609 L 27.400391 22.699219 L 27.380859 22.699219 L 27.375 22.675781 L 27.355469 22.675781 L 27.349609 22.650391 L 27.330078 22.650391 L 27.322266 22.623047 L 27.302734 22.623047 L 27.294922 22.595703 L 27.275391 22.595703 L 27.267578 22.568359 L 27.246094 22.568359 L 27.238281 22.539062 L 27.216797 22.539062 L 27.208984 22.509766 L 27.1875 22.509766 L 27.179688 22.480469 L 27.15625 22.480469 L 27.148438 22.449219 L 27.125 22.449219 L 27.117188 22.417969 L 27.09375 22.417969 L 27.085938 22.384766 L 27.060547 22.384766 L 27.052734 22.353516 L 27.027344 22.353516 L 27.017578 22.318359 L 26.992188 22.318359 L 26.984375 22.285156 L 26.958984 22.285156 L 26.949219 22.248047 L 26.921875 22.248047 L 26.912109 22.212891 L 26.884766 22.212891 L 26.875 22.175781 L 26.847656 22.175781 L 26.837891 22.138672 L 26.810547 22.138672 L 26.800781 22.099609 L 26.771484 22.099609 L 26.761719 22.060547 L 26.730469 22.060547 L 26.720703 22.021484 L 26.691406 22.021484 L 26.681641 21.980469 L 26.648438 21.980469 L 26.638672 21.939453 L 26.607422 21.939453 L 26.597656 21.898438 L 26.566406 21.898438 L 26.554688 21.855469 L 26.523438 21.855469 L 26.511719 21.8125 L 26.478516 21.810547 L 26.466797 21.767578 L 26.433594 21.765625 L 26.421875 21.722656 L 26.388672 21.720703 L 26.376953 21.677734 L 26.341797 21.675781 L 26.330078 21.630859 L 26.294922 21.628906 L 26.283203 21.583984 L 26.246094 21.582031 L 26.234375 21.535156 L 26.199219 21.535156 L 26.1875 21.486328 L 26.148438 21.484375 L 26.136719 21.4375 L 26.101562 21.435547 L 26.087891 21.386719 L 26.050781 21.384766 L 26.037109 21.335938 L 25.998047 21.333984 L 25.984375 21.285156 L 25.945312 21.283203 L 25.931641 21.232422 L 25.892578 21.230469 L 25.878906 21.179688 L 25.839844 21.177734 L 25.826172 21.125 L 25.785156 21.123047 L 25.771484 21.072266 L 25.728516 21.070312 L 25.714844 21.015625 L 25.673828 21.013672 L 25.660156 20.958984 L 25.617188 20.957031 L 25.603516 20.902344 L 25.558594 20.900391 L 25.544922 20.845703 L 25.501953 20.84375 L 25.486328 20.787109 L 25.443359 20.785156 L 25.427734 20.728516 L 25.382812 20.726562 L 25.367188 20.667969 L 25.322266 20.666016 L 25.306641 20.607422 L 25.261719 20.605469 L 25.246094 20.546875 L 25.199219 20.544922 L 25.183594 20.484375 L 25.136719 20.482422 L 25.121094 20.421875 L 25.074219 20.419922 L 25.058594 20.359375 L 25.009766 20.357422 L 24.994141 20.294922 L 24.947266 20.292969 L 24.929688 20.228516 L 24.878906 20.226562 L 24.863281 20.164062 L 24.814453 20.162109 L 24.796875 20.097656 L 24.746094 20.095703 L 24.728516 20.029297 L 24.679688 20.027344 L 24.662109 19.962891 L 24.609375 19.960938 L 24.591797 19.892578 L 24.541016 19.890625 L 24.523438 19.824219 L 24.470703 19.822266 L 24.453125 19.753906 L 24.400391 19.751953 L 24.382812 19.683594 L 24.328125 19.681641 L 24.310547 19.611328 L 24.255859 19.609375 L 24.238281 19.539062 L 24.185547 19.537109 L 24.166016 19.464844 L 24.109375 19.462891 L 24.091797 19.392578 L 24.035156 19.390625 L 24.015625 19.316406 L 23.960938 19.314453 L 23.941406 19.242188 L 23.884766 19.240234 L 23.865234 19.166016 L 23.808594 19.164062 L 23.789062 19.087891 L 23.730469 19.085938 L 23.710938 19.011719 L 23.652344 19.009766 L 23.632812 18.933594 L 23.572266 18.931641 L 23.552734 18.853516 L 23.492188 18.851562 L 23.472656 18.773438 L 23.412109 18.771484 L 23.392578 18.693359 L 23.332031 18.691406 L 23.310547 18.611328 L 23.25 18.609375 L 23.228516 18.529297 L 23.167969 18.527344 L 23.146484 18.447266 L 23.083984 18.445312 L 23.0625 18.363281 L 23 18.361328 L 22.978516 18.279297 L 22.916016 18.277344 L 22.894531 18.193359 L 22.830078 18.191406 L 22.808594 18.109375 L 22.742188 18.107422 L 22.720703 18.021484 L 22.65625 18.019531 L 22.634766 17.935547 L 22.570312 17.933594 L 22.546875 17.847656 L 22.480469 17.845703 L 22.457031 17.757812 L 22.390625 17.755859 L 22.367188 17.667969 L 22.300781 17.666016 L 22.277344 17.578125 L 22.210938 17.576172 L 22.1875 17.488281 L 22.119141 17.486328 L 22.095703 17.396484 L 22.025391 17.394531 L 22.001953 17.302734 L 21.933594 17.300781 L 21.910156 17.210938 L 21.839844 17.208984 L 21.816406 17.115234 L 21.744141 17.113281 L 21.720703 17.021484 L 21.648438 17.019531 L 21.625 16.925781 L 21.552734 16.923828 L 21.529297 16.830078 L 21.457031 16.828125 L 21.431641 16.732422 L 21.359375 16.730469 L 21.333984 16.634766 L 21.261719 16.632812 L 21.236328 16.537109 L 21.162109 16.535156 L 21.136719 16.4375 L 21.0625 16.435547 L 21.037109 16.337891 L 20.962891 16.335938 L 20.9375 16.236328 L 20.861328 16.234375 L 20.835938 16.136719 L 20.759766 16.134766 L 20.732422 16.033203 L 20.65625 16.03125 L 20.630859 15.931641 L 20.552734 15.929688 L 20.527344 15.828125 L 20.449219 15.826172 L 20.421875 15.722656 L 20.345703 15.720703 L 20.318359 15.617188 L 20.238281 15.615234 L 20.210938 15.511719 L 20.132812 15.509766 L 20.105469 15.40625 L 20.025391 15.404297 L 19.998047 15.298828 L 19.917969 15.296875 L 19.890625 15.189453 L 19.808594 15.1875 L 19.78125 15.082031 L 19.699219 15.080078 L 19.671875 14.972656 L 19.589844 14.970703 L 19.560547 14.861328 L 19.478516 14.859375 L 19.449219 14.75 L 19.367188 14.748047 L 19.337891 14.638672 L 19.255859 14.636719 L 19.226562 14.527344 L 19.142578 14.525391 L 19.113281 14.414062 L 19.027344 14.412109 L 18.998047 14.298828 L 18.914062 14.296875 L 18.884766 14.183594 L 18.796875 14.181641 L 18.767578 14.068359 L 18.681641 14.066406 L 18.652344 13.953125 L 18.564453 13.951172 L 18.535156 13.835938 L 18.447266 13.833984 L 18.417969 13.71875 L 18.328125 13.716797 L 18.298828 13.599609 L 18.208984 13.597656 L 18.179688 13.480469 L 18.089844 13.478516 L 18.060547 13.361328 L 17.970703 13.359375 L 17.939453 13.240234 L 17.849609 13.238281 L 17.818359 13.119141 L 17.726562 13.117188 L 17.695312 12.996094 L 17.603516 12.994141 L 17.572266 12.873047 L 17.480469 12.871094 L 17.449219 12.75 L 17.355469 12.748047 L 17.324219 12.625 L 17.230469 12.623047 L 17.199219 12.5 L 17.105469 12.498047 L 17.074219 12.375 L 16.978516 12.373047 L 16.947266 12.248047 L 16.853516 12.246094 L 16.820312 12.121094 L 16.724609 12.119141 L 16.691406 11.992188 L 16.595703 11.990234 L 16.5625 11.863281 L 16.466797 11.861328 L 16.433594 11.734375 L 16.335938 11.732422 L 16.302734 11.603516 L 16.205078 11.601562 L 16.171875 11.472656 L 16.074219 11.470703 L 16.041016 11.341797 L 15.941406 11.337891 L 15.908203 11.208984 L 15.810547 11.205078 L 15.775391 11.074219 L 15.673828 11.072266 L 15.640625 10.941406 L 15.541016 10.9375 L 15.505859 10.806641 L 15.40625 10.802734 L 15.371094 10.669922 L 15.269531 10.667969 L 15.234375 10.535156 L 15.132812 10.53125 L 15.097656 10.396484 L 14.994141 10.392578 L 14.958984 10.259766 L 14.855469 10.255859 L 14.820312 10.121094 L 14.716797 10.117188 L 14.681641 9.9824219 L 14.576172 9.9785156 L 14.541016 9.8417969 L 14.435547 9.8378906 L 14.400391 9.7011719 L 14.294922 9.6972656 L 14.259766 9.5605469 L 14.154297 9.5566406 L 14.117188 9.4179688 L 14.011719 9.4140625 L 13.974609 9.2753906 L 13.867188 9.2714844 L 13.830078 9.1308594 L 13.722656 9.1269531 L 13.685547 8.9863281 L 13.578125 8.9824219 L 13.541016 8.8417969 L 13.431641 8.8378906 L 13.394531 8.6953125 L 13.285156 8.6914062 L 13.248047 8.5488281 L 13.138672 8.5449219 L 13.101562 8.4023438 L 12.990234 8.3984375 L 12.953125 8.2539062 L 11.917969 8.21875 L 11.902344 8.2011719 L 11.886719 8.2089844 L 11.757812 8.0566406 L 11.740234 8.0644531 L 11.611328 7.9121094 L 11.595703 7.9179688 L 11.466797 7.765625 L 11.451172 7.7734375 L 11.320312 7.6191406 L 11.302734 7.6269531 L 11.171875 7.4726562 L 11.15625 7.4804688 L 11.023438 7.3242188 L 9.9550781 7.8027344 L 8.8847656 7.3242188 z "
       id="path9502"
       style="fill-opacity:1;fill:url(#linearGradient10389)"
       clip-path="url(#clipPath10394)" />
    <path
       d="M 14.452886,11.614873 14.270712,11.377171 13.941835,10.831612 14.143847,9.7757905 13.09928,9.2380704 12.803948,8.1044307 11.632341,8.06966 10.87518,7.1752991 9.8056952,7.6537688 8.7362982,7.1752553 7.9796627,8.0696162 6.8089751,8.1043432 6.5155697,9.2380266 5.4749002,9.7756591 l 0.2275863,1.1491419 -0.7025089,0.925234 0.6902471,0.908856 8.3339833,0 3.94e-4,0 0.09516,0 c 0.08233,0.04178 0.175167,0.06586 0.273786,0.06586 0.33492,0 0.60643,-0.271509 0.60643,-0.606429 4.4e-5,-0.314907 -0.240023,-0.57363 -0.547092,-0.603452 z m -3.471993,0.473872 c -0.184933,-1.071324 0.573498,-1.931484 1.516424,-2.3815763 l 1.352512,2.2439383 c -0.02181,0.04427 -0.03876,0.09131 -0.04927,0.140878 l -2.81967,-0.0032 z m 1.667551,-1.221705 a 0.2729984,0.2729984 0 0 1 -0.272999,0.272998 0.2729984,0.2729984 0 0 1 -0.272998,-0.272998 0.2729984,0.2729984 0 0 1 0.272998,-0.272999 0.2729984,0.2729984 0 0 1 0.272999,0.272999 z"
       id="path8204"
       style="fill:#795548" />
    <g
       transform="matrix(0.04379185,0,0,0.04379185,4.9999776,4.9999827)"
       id="g8206" />
    <g
       transform="matrix(0.04379185,0,0,0.04379185,4.9999776,4.9999827)"
       id="g8208" />
    <g
       transform="matrix(0.04379185,0,0,0.04379185,4.9999776,4.9999827)"
       id="g8210" />
    <g
       transform="matrix(0.04379185,0,0,0.04379185,4.9999776,4.9999827)"
       id="g8212" />
    <g
       transform="matrix(0.04379185,0,0,0.04379185,4.9999776,4.9999827)"
       id="g8214" />
    <g
       transform="matrix(0.04379185,0,0,0.04379185,4.9999776,4.9999827)"
       id="g8216" />
    <g
       transform="matrix(0.04379185,0,0,0.04379185,4.9999776,4.9999827)"
       id="g8218" />
    <g
       transform="matrix(0.04379185,0,0,0.04379185,4.9999776,4.9999827)"
       id="g8220" />
    <g
       transform="matrix(0.04379185,0,0,0.04379185,4.9999776,4.9999827)"
       id="g8222" />
    <g
       transform="matrix(0.04379185,0,0,0.04379185,4.9999776,4.9999827)"
       id="g8224" />
    <g
       transform="matrix(0.04379185,0,0,0.04379185,4.9999776,4.9999827)"
       id="g8226" />
    <g
       transform="matrix(0.04379185,0,0,0.04379185,4.9999776,4.9999827)"
       id="g8228" />
    <g
       transform="matrix(0.04379185,0,0,0.04379185,4.9999776,4.9999827)"
       id="g8230" />
    <g
       transform="matrix(0.04379185,0,0,0.04379185,4.9999776,4.9999827)"
       id="g8232" />
    <g
       transform="matrix(0.04379185,0,0,0.04379185,4.9999776,4.9999827)"
       id="g8234" />
    <g
       id="g8540"
       transform="matrix(0.04379185,0,0,0.04379185,4.9999776,4.9999827)" />
    <g
       id="g8542"
       transform="matrix(0.04379185,0,0,0.04379185,4.9999776,4.9999827)" />
    <g
       id="g8544"
       transform="matrix(0.04379185,0,0,0.04379185,4.9999776,4.9999827)" />
    <g
       id="g8546"
       transform="matrix(0.04379185,0,0,0.04379185,4.9999776,4.9999827)" />
    <g
       id="g8548"
       transform="matrix(0.04379185,0,0,0.04379185,4.9999776,4.9999827)" />
    <g
       id="g8550"
       transform="matrix(0.04379185,0,0,0.04379185,4.9999776,4.9999827)" />
    <g
       id="g8552"
       transform="matrix(0.04379185,0,0,0.04379185,4.9999776,4.9999827)" />
    <g
       id="g8554"
       transform="matrix(0.04379185,0,0,0.04379185,4.9999776,4.9999827)" />
    <g
       id="g8556"
       transform="matrix(0.04379185,0,0,0.04379185,4.9999776,4.9999827)" />
    <g
       id="g8558"
       transform="matrix(0.04379185,0,0,0.04379185,4.9999776,4.9999827)" />
    <g
       id="g8560"
       transform="matrix(0.04379185,0,0,0.04379185,4.9999776,4.9999827)" />
    <g
       id="g8562"
       transform="matrix(0.04379185,0,0,0.04379185,4.9999776,4.9999827)" />
    <g
       id="g8564"
       transform="matrix(0.04379185,0,0,0.04379185,4.9999776,4.9999827)" />
    <g
       id="g8566"
       transform="matrix(0.04379185,0,0,0.04379185,4.9999776,4.9999827)" />
    <g
       id="g8568"
       transform="matrix(0.04379185,0,0,0.04379185,4.9999776,4.9999827)" />
    <path
       style="fill:#eeeeee;fill-rule:evenodd;stroke:none;stroke-width:1px;stroke-linecap:butt;stroke-linejoin:miter;stroke-opacity:1"
       d="m 10.417198,12.392289 4.166879,0 -2.146574,-3.4408324 -1.95717,1.1364214 z"
       id="path10400"
       inkscape:connector-curvature="0" />
    <path
       style="fill:#795548"
       id="path10398"
       d="M 14.452886,11.614873 14.270712,11.377171 13.941835,10.831612 14.143847,9.7757905 13.09928,9.2380704 12.803948,8.1044307 11.632341,8.06966 10.87518,7.1752991 9.8056952,7.6537688 8.7362982,7.1752553 7.9796627,8.0696162 6.8089751,8.1043432 6.5155697,9.2380266 5.4749002,9.7756591 l 0.2275863,1.1491419 -0.7025089,0.925234 0.6902471,0.908856 8.3339833,0 3.94e-4,0 0.09516,0 c 0.08233,0.04178 0.175167,0.06586 0.273786,0.06586 0.33492,0 0.60643,-0.271509 0.60643,-0.606429 4.4e-5,-0.314907 -0.240023,-0.57363 -0.547092,-0.603452 z m -3.471993,0.473872 c -0.184933,-1.071324 0.573498,-1.931484 1.516424,-2.3815763 l 1.352512,2.2439383 c -0.02181,0.04427 -0.03876,0.09131 -0.04927,0.140878 l -2.81967,-0.0032 z m 1.667551,-1.221705 a 0.2729984,0.2729984 0 0 1 -0.272999,0.272998 0.2729984,0.2729984 0 0 1 -0.272998,-0.272998 0.2729984,0.2729984 0 0 1 0.272998,-0.272999 0.2729984,0.2729984 0 0 1 0.272999,0.272999 z" />
  </g>
</svg>
