<?xml version="1.0" encoding="UTF-8" standalone="no"?>
<!-- Created with Inkscape (http://www.inkscape.org/) -->

<svg
   xmlns:dc="http://purl.org/dc/elements/1.1/"
   xmlns:cc="http://creativecommons.org/ns#"
   xmlns:rdf="http://www.w3.org/1999/02/22-rdf-syntax-ns#"
   xmlns:svg="http://www.w3.org/2000/svg"
   xmlns="http://www.w3.org/2000/svg"
   xmlns:xlink="http://www.w3.org/1999/xlink"
   xmlns:sodipodi="http://sodipodi.sourceforge.net/DTD/sodipodi-0.dtd"
   xmlns:inkscape="http://www.inkscape.org/namespaces/inkscape"
   width="23.333334"
   height="23.333334"
   viewBox="0 0 21.875 21.875"
   id="svg2"
   version="1.1"
   inkscape:version="0.92.2 (5c3e80d, 2017-08-06)"
   sodipodi:docname="Kalender.svg"
   inkscape:export-filename="/home/juergen/Desktop/kalender.png"
   inkscape:export-xdpi="592.45715"
   inkscape:export-ydpi="592.45715">
  <sodipodi:namedview
     id="base"
     pagecolor="#ffffff"
     bordercolor="#666666"
     borderopacity="1.0"
     inkscape:pageopacity="0.0"
     inkscape:pageshadow="2"
     inkscape:zoom="15.839192"
     inkscape:cx="-13.523217"
     inkscape:cy="10.20271"
     inkscape:document-units="px"
     inkscape:current-layer="layer1"
     showgrid="true"
     fit-margin-top="1"
     fit-margin-left="1"
     fit-margin-right="1"
     fit-margin-bottom="1"
     showguides="true"
     inkscape:guide-bbox="true"
     inkscape:window-width="1366"
     inkscape:window-height="699"
     inkscape:window-x="0"
     inkscape:window-y="33"
     inkscape:window-maximized="1"
     inkscape:snap-grids="false"
     inkscape:snap-to-guides="false"
     units="px">
    <inkscape:grid
       id="grid4138"
       type="xygrid"
       originx="0.93755914"
       originy="0.93750225" />
    <sodipodi:guide
       id="guide4140"
       orientation="0,1"
       position="10.937559,18.937502"
       inkscape:locked="false" />
    <sodipodi:guide
       id="guide4142"
       orientation="0,1"
       position="10.937559,2.9375023"
       inkscape:locked="false" />
    <sodipodi:guide
       id="guide4144"
       orientation="1,0"
       position="2.9375592,10.937502"
       inkscape:locked="false" />
    <sodipodi:guide
       id="guide4146"
       orientation="0,20"
       position="0.93755914,0.93750225"
       inkscape:locked="false" />
    <sodipodi:guide
       id="guide4148"
       orientation="-20,0"
       position="20.937559,0.93750225"
       inkscape:locked="false" />
    <sodipodi:guide
       id="guide4150"
       orientation="0,-20"
       position="20.937559,20.937502"
       inkscape:locked="false" />
    <sodipodi:guide
       id="guide4152"
       orientation="20,0"
       position="0.93755914,20.937502"
       inkscape:locked="false" />
    <sodipodi:guide
       id="guide4154"
       orientation="1,0"
       position="18.937559,10.937502"
       inkscape:locked="false" />
    <sodipodi:guide
       id="guide4156"
       orientation="-0.70710678,0.70710678"
       position="10.937559,10.937502"
       inkscape:locked="false" />
    <sodipodi:guide
       id="guide4158"
       orientation="0.70710678,0.70710678"
       position="10.937559,10.937502"
       inkscape:locked="false" />
    <sodipodi:guide
       id="guide4160"
       orientation="1,0"
       position="4.9375592,10.937502"
       inkscape:locked="false" />
    <sodipodi:guide
       id="guide4162"
       orientation="1,0"
       position="16.937559,10.937502"
       inkscape:locked="false" />
    <sodipodi:guide
       id="guide4164"
       orientation="0,1"
       position="10.937559,16.937502"
       inkscape:locked="false" />
    <sodipodi:guide
       id="guide4166"
       orientation="0,1"
       position="10.937559,4.9375023"
       inkscape:locked="false" />
    <sodipodi:guide
       id="guide4168"
       orientation="0,1"
       position="10.937559,15.937502"
       inkscape:locked="false" />
    <sodipodi:guide
       id="guide4170"
       orientation="0,1"
       position="10.937559,5.9375023"
       inkscape:locked="false" />
    <sodipodi:guide
       id="guide4172"
       orientation="1,0"
       position="5.9375592,10.937502"
       inkscape:locked="false" />
    <sodipodi:guide
       id="guide4174"
       orientation="1,0"
       position="15.937559,10.937502"
       inkscape:locked="false" />
  </sodipodi:namedview>
  <defs
     id="defs4">
    <linearGradient
       inkscape:collect="always"
       id="linearGradient5044">
      <stop
         style="stop-color:#000000;stop-opacity:1;"
         offset="0"
         id="stop5046" />
      <stop
         style="stop-color:#000000;stop-opacity:0;"
         offset="1"
         id="stop5048" />
    </linearGradient>
    <clipPath
       clipPathUnits="userSpaceOnUse"
       id="clipPath12478">
      <circle
         style="opacity:1;fill:#2196f3;fill-opacity:1;stroke:none;stroke-width:0.05069799;stroke-miterlimit:4;stroke-dasharray:none;stroke-opacity:1"
         id="circle12480"
         cx="9.9999781"
         cy="10.000005"
         r="10" />
    </clipPath>
    <clipPath
       id="clipPath5790"
       clipPathUnits="userSpaceOnUse">
      <circle
         inkscape:export-ydpi="648"
         inkscape:export-xdpi="648"
         inkscape:export-filename="/home/juergen/path4136.png"
         style="opacity:1;fill:#2196f3;fill-opacity:1;stroke:none;stroke-width:0.05069799;stroke-miterlimit:4;stroke-dasharray:none;stroke-opacity:1"
         id="circle5792"
         cx="9.9999781"
         cy="10.000005"
         r="10" />
    </clipPath>
    <linearGradient
       inkscape:collect="always"
       xlink:href="#linearGradient5044"
       id="linearGradient5050"
       x1="10"
       y1="10"
       x2="20"
       y2="20"
       gradientUnits="userSpaceOnUse" />
    <clipPath
       clipPathUnits="userSpaceOnUse"
       id="clipPath5055">
      <circle
         inkscape:export-ydpi="648"
         inkscape:export-xdpi="648"
         inkscape:export-filename="/home/juergen/path4136.png"
         style="opacity:1;fill:#2196f3;fill-opacity:1;stroke:none;stroke-width:0.05069799;stroke-miterlimit:4;stroke-dasharray:none;stroke-opacity:1"
         id="circle5057"
         cx="9.9999781"
         cy="10.000005"
         r="10" />
    </clipPath>
  </defs>
  <metadata
     id="metadata7">
    <rdf:RDF>
      <cc:Work
         rdf:about="">
        <dc:format>image/svg+xml</dc:format>
        <dc:type
           rdf:resource="http://purl.org/dc/dcmitype/StillImage" />
        <dc:title />
      </cc:Work>
    </rdf:RDF>
  </metadata>
  <g
     transform="translate(1059.0803,-860.99615)"
     id="layer1"
     inkscape:groupmode="layer"
     inkscape:label="Hintergrund">
    <circle
       r="10"
       cy="871.93365"
       cx="-1048.1428"
       id="path4136"
       style="opacity:1;fill:#689f38;fill-opacity:0.97715735;stroke:none;stroke-width:0.05069799;stroke-miterlimit:4;stroke-dasharray:none;stroke-opacity:1"
       inkscape:export-filename="/home/juergen/ic_launcher.png"
       inkscape:export-xdpi="648"
       inkscape:export-ydpi="648" />
    <rect
       style="opacity:1;fill:#616161;stroke-width:0.93749994"
       id="rect848"
       width="7.5150452"
       height="6.4721036"
       x="-1052.1578"
       y="869.46155" />
  </g>
  <g
     inkscape:label="Icon"
     id="layer2"
     inkscape:groupmode="layer"
     style="display:inline"
     transform="translate(0.93755913,0.93749728)">
    <path
       d="m 7.1484375,5.1484375 v 1 h -0.5 c -0.555,0 -1,0.445 -1,1 v 7.0000005 c 0,0.265216 0.1054324,0.519495 0.2929687,0.707031 0.025786,0.02579 0.061677,0.03598 0.089844,0.05859 0.022618,0.02817 0.032808,0.06406 0.058594,0.08984 0.025396,0.0254 0.060183,0.03627 0.087891,0.05859 0.022592,0.02813 0.032843,0.06409 0.058594,0.08984 0.026328,0.02633 0.06299,0.03752 0.091797,0.06055 0.02183,0.02694 0.031897,0.06119 0.056641,0.08594 0.025005,0.02501 0.058689,0.03657 0.085937,0.05859 0.022028,0.02725 0.033589,0.06093 0.058594,0.08594 0.025396,0.0254 0.060183,0.03627 0.087891,0.05859 0.022324,0.02771 0.033198,0.0625 0.058594,0.08789 0.025005,0.02501 0.058689,0.03657 0.085938,0.05859 0.022028,0.02725 0.033589,0.06093 0.058594,0.08594 0.024744,0.02474 0.058995,0.03481 0.085937,0.05664 0.02183,0.02694 0.031897,0.06119 0.056641,0.08594 0.024744,0.02474 0.058995,0.03481 0.085937,0.05664 0.02183,0.02694 0.031897,0.06119 0.056641,0.08594 0.024744,0.02474 0.058995,0.03481 0.085937,0.05664 0.02183,0.02694 0.031896,0.06119 0.056641,0.08594 0.024744,0.02474 0.058995,0.03481 0.085937,0.05664 0.02183,0.02694 0.031896,0.06119 0.056641,0.08594 0.024354,0.02435 0.057499,0.03511 0.083984,0.05664 0.021531,0.02649 0.032287,0.05963 0.056641,0.08398 0.024093,0.02409 0.057805,0.03336 0.083984,0.05469 0.021331,0.02618 0.030595,0.05989 0.054687,0.08398 0.024354,0.02435 0.057499,0.03511 0.083984,0.05664 0.021531,0.02649 0.032287,0.05963 0.056641,0.08398 0.023051,0.02305 0.055112,0.03221 0.080078,0.05273 0.021751,0.02682 0.031999,0.0613 0.056641,0.08594 0.024642,0.02464 0.059115,0.03489 0.085937,0.05664 0.020525,0.02497 0.029683,0.05703 0.052734,0.08008 0.023703,0.0237 0.056307,0.03366 0.082031,0.05469 0.02103,0.02572 0.030985,0.05833 0.054687,0.08203 0.023703,0.0237 0.056307,0.03366 0.082031,0.05469 0.02103,0.02572 0.030985,0.05833 0.054687,0.08203 0.023312,0.02331 0.054809,0.03396 0.080078,0.05469 0.020728,0.02527 0.031375,0.05677 0.054687,0.08008 0.023312,0.02331 0.054809,0.03396 0.080078,0.05469 0.020728,0.02527 0.031375,0.05677 0.054687,0.08008 0.023312,0.02331 0.054809,0.03396 0.080078,0.05469 0.020728,0.02527 0.031375,0.05677 0.054687,0.08008 0.023051,0.02305 0.055112,0.03221 0.080078,0.05273 0.020525,0.02497 0.029683,0.05703 0.052734,0.08008 0.023051,0.02305 0.055112,0.03221 0.080078,0.05273 0.020525,0.02497 0.029683,0.05703 0.052734,0.08008 0.022009,0.02201 0.052412,0.03107 0.076172,0.05078 0.020954,0.02561 0.031083,0.05843 0.054687,0.08203 0.023604,0.0236 0.056422,0.03373 0.082031,0.05469 0.019708,0.02376 0.028772,0.05416 0.050781,0.07617 0.0224,0.0224 0.053914,0.03077 0.078125,0.05078 0.020015,0.02421 0.028381,0.05573 0.050781,0.07813 0.022661,0.02266 0.053612,0.03251 0.078125,0.05273 0.02022,0.02451 0.030074,0.05546 0.052734,0.07813 0.0224,0.0224 0.053914,0.03077 0.078125,0.05078 0.020015,0.02421 0.028381,0.05572 0.050781,0.07813 0.02201,0.02201 0.052412,0.03107 0.076172,0.05078 0.019708,0.02376 0.028772,0.05416 0.050781,0.07617 0.022009,0.02201 0.052412,0.03107 0.076172,0.05078 0.019708,0.02376 0.028772,0.05416 0.050781,0.07617 0.021918,0.02192 0.052518,0.03115 0.076172,0.05078 0.01971,0.02376 0.02877,0.05416 0.05078,0.07617 0.02201,0.02201 0.05241,0.03107 0.07617,0.05078 0.01971,0.02376 0.02877,0.05416 0.05078,0.07617 0.02162,0.02162 0.05091,0.03138 0.07422,0.05078 0.0194,0.02331 0.02916,0.0526 0.05078,0.07422 0.02097,0.02097 0.04971,0.02995 0.07227,0.04883 0.01964,0.02365 0.02886,0.05425 0.05078,0.07617 0.02198,0.02198 0.05245,0.0311 0.07617,0.05078 0.01888,0.02256 0.02786,0.0513 0.04883,0.07227 0.02136,0.02136 0.05121,0.02964 0.07422,0.04883 0.01919,0.02301 0.02747,0.05286 0.04883,0.07422 0.02097,0.02097 0.0497,0.02995 0.07226,0.04883 0.01888,0.02256 0.02786,0.0513 0.04883,0.07227 0.02097,0.02097 0.0497,0.02995 0.07226,0.04883 0.01888,0.02256 0.02786,0.0513 0.04883,0.07227 0.02097,0.02097 0.04971,0.02995 0.07227,0.04883 0.01888,0.02256 0.02786,0.0513 0.04883,0.07227 0.02097,0.02097 0.04971,0.02995 0.07227,0.04883 0.01888,0.02256 0.02786,0.0513 0.04883,0.07227 0.02071,0.02071 0.05001,0.0282 0.07227,0.04687 0.01867,0.02226 0.02617,0.05156 0.04687,0.07227 0.02032,0.02032 0.0485,0.02852 0.07031,0.04687 0.01836,0.02181 0.02656,0.05 0.04687,0.07031 0.01966,0.01967 0.04729,0.02709 0.06836,0.04492 0.01912,0.02291 0.02756,0.05295 0.04883,0.07422 0.02088,0.02088 0.0498,0.03002 0.07226,0.04883 0.01751,0.02063 0.02565,0.04713 0.04492,0.06641 0.02032,0.02032 0.0485,0.02852 0.07031,0.04687 0.01836,0.02181 0.02656,0.05 0.04687,0.07031 0.01993,0.01993 0.04699,0.02883 0.06836,0.04687 0.01804,0.02137 0.02695,0.04843 0.04687,0.06836 0.01993,0.01993 0.04699,0.02883 0.06836,0.04687 0.01804,0.02137 0.02695,0.04843 0.04687,0.06836 0.01966,0.01966 0.04729,0.02709 0.06836,0.04492 0.01783,0.02107 0.02526,0.04869 0.04492,0.06836 0.01967,0.01966 0.04729,0.02709 0.06836,0.04492 0.01783,0.02107 0.02526,0.04869 0.04492,0.06836 0.01966,0.01966 0.04729,0.02709 0.06836,0.04492 0.01783,0.02107 0.02526,0.04869 0.04492,0.06836 0.01928,0.01927 0.04578,0.02741 0.06641,0.04492 0.01751,0.02063 0.02565,0.04713 0.04492,0.06641 0.01928,0.01927 0.04578,0.02741 0.06641,0.04492 0.01751,0.02063 0.02565,0.04713 0.04492,0.06641 0.01901,0.01901 0.04608,0.02567 0.06641,0.04297 0.0173,0.02033 0.02395,0.04739 0.04297,0.06641 0.01901,0.01901 0.04608,0.02567 0.06641,0.04297 0.0173,0.02033 0.02396,0.04739 0.04297,0.06641 0.01901,0.01901 0.04608,0.02567 0.06641,0.04297 0.0173,0.02033 0.02395,0.04739 0.04297,0.06641 0.01862,0.01862 0.04457,0.02599 0.06445,0.04297 0.01698,0.01989 0.02435,0.04583 0.04297,0.06445 0.01862,0.01862 0.04457,0.02599 0.06445,0.04297 0.01698,0.01989 0.02435,0.04583 0.04297,0.06445 0.01862,0.01862 0.04457,0.02599 0.06445,0.04297 0.01698,0.01989 0.02435,0.04583 0.04297,0.06445 0.01823,0.01823 0.04306,0.02631 0.0625,0.04297 0.01666,0.01945 0.02474,0.04427 0.04297,0.0625 0.01823,0.01823 0.04305,0.02631 0.0625,0.04297 0.01666,0.01945 0.02473,0.04427 0.04297,0.0625 0.01797,0.01797 0.04335,0.02457 0.0625,0.04102 0.01644,0.01915 0.02304,0.04453 0.04102,0.0625 0.01797,0.01797 0.04335,0.02457 0.0625,0.04102 0.01644,0.01915 0.02304,0.04453 0.04102,0.0625 0.01797,0.01797 0.04335,0.02457 0.0625,0.04102 0.01644,0.01915 0.02304,0.04453 0.04101,0.0625 0.01758,0.01758 0.04184,0.0249 0.06055,0.04102 0.01612,0.01871 0.02343,0.04297 0.04102,0.06055 0.01758,0.01758 0.04184,0.0249 0.06055,0.04102 0.01612,0.01871 0.02343,0.04296 0.04101,0.06055 0.01693,0.01693 0.04062,0.02349 0.05859,0.03906 0.01638,0.01907 0.02312,0.0446 0.04102,0.0625 0.0179,0.0179 0.04343,0.02463 0.0625,0.04102 0.01557,0.01798 0.02213,0.04166 0.03906,0.05859 0.01693,0.01693 0.04062,0.02349 0.05859,0.03906 0.01557,0.01798 0.02213,0.04166 0.03906,0.05859 0.01732,0.01732 0.04213,0.02316 0.06055,0.03906 0.0159,0.01842 0.02174,0.04323 0.03906,0.06055 0.01693,0.01693 0.04062,0.02349 0.05859,0.03906 0.01557,0.01798 0.02213,0.04166 0.03906,0.05859 0.01654,0.01654 0.0391,0.02382 0.05664,0.03906 0.01524,0.01754 0.02252,0.0401 0.03906,0.05664 0.01693,0.01693 0.04062,0.02349 0.05859,0.03906 0.01557,0.01798 0.02213,0.04166 0.03906,0.05859 0.01589,0.01589 0.03787,0.02241 0.05469,0.03711 0.01552,0.0179 0.0222,0.04173 0.03906,0.05859 0.01686,0.01686 0.0407,0.02355 0.05859,0.03906 0.01469,0.01681 0.02122,0.0388 0.03711,0.05469 0.01628,0.01628 0.03939,0.02208 0.05664,0.03711 0.01503,0.01725 0.02083,0.04036 0.03711,0.05664 0.01628,0.01628 0.03939,0.02208 0.05664,0.03711 0.01502,0.01725 0.02083,0.04036 0.03711,0.05664 0.01589,0.01589 0.03787,0.02241 0.05469,0.03711 0.01469,0.01681 0.02122,0.0388 0.03711,0.05469 0.01589,0.01589 0.03787,0.02241 0.05469,0.03711 0.01469,0.01681 0.02122,0.0388 0.03711,0.05469 0.01589,0.01589 0.03787,0.02241 0.05469,0.03711 0.0147,0.01681 0.02122,0.0388 0.03711,0.05469 0.01563,0.01563 0.03816,0.02068 0.05469,0.03516 0.01447,0.01652 0.01953,0.03906 0.03516,0.05469 0.01563,0.01563 0.03816,0.02068 0.05469,0.03516 0.01447,0.01652 0.01953,0.03906 0.03516,0.05469 0.01524,0.01524 0.03665,0.02102 0.05273,0.03516 0.01414,0.01609 0.01992,0.0375 0.03516,0.05273 0.01524,0.01524 0.03665,0.02102 0.05274,0.03516 0.01414,0.01609 0.01992,0.0375 0.03516,0.05273 0.01524,0.01524 0.03665,0.02102 0.05273,0.03516 0.01414,0.01609 0.01992,0.0375 0.03516,0.05273 0.01485,0.01485 0.03512,0.02135 0.05078,0.03516 0.01381,0.01566 0.02031,0.03593 0.03516,0.05078 0.01485,0.01485 0.03512,0.02135 0.05078,0.03516 0.01381,0.01566 0.02031,0.03593 0.03516,0.05078 0.0142,0.0142 0.03389,0.01996 0.04883,0.0332 0.01408,0.01602 0.01998,0.03756 0.03516,0.05273 0.01517,0.01517 0.03672,0.02107 0.05273,0.03516 0.01324,0.01494 0.01901,0.03463 0.0332,0.04883 0.0142,0.0142 0.03389,0.01996 0.04883,0.0332 0.01324,0.01494 0.01901,0.03463 0.0332,0.04883 0.01453,0.01453 0.03548,0.01967 0.05078,0.0332 0.01358,0.01537 0.01862,0.0362 0.0332,0.05078 0.0142,0.0142 0.03389,0.01996 0.04883,0.0332 0.01324,0.01494 0.01901,0.03463 0.0332,0.04883 0.01354,0.01354 0.03265,0.01857 0.04687,0.03125 0.01353,0.0153 0.01868,0.03626 0.0332,0.05078 0.01453,0.01453 0.03548,0.01967 0.05078,0.0332 0.01268,0.01422 0.0177,0.03333 0.03125,0.04687 0.01393,0.01394 0.03418,0.01823 0.04883,0.03125 0.01302,0.01465 0.01731,0.03489 0.03125,0.04883 0.01354,0.01354 0.03266,0.01857 0.04687,0.03125 0.01268,0.01422 0.01771,0.03333 0.03125,0.04687 0.01354,0.01354 0.03265,0.01857 0.04687,0.03125 0.01268,0.01422 0.0177,0.03333 0.03125,0.04687 0.01354,0.01354 0.03266,0.01857 0.04687,0.03125 0.01268,0.01422 0.01771,0.03333 0.03125,0.04687 0.01315,0.01315 0.03113,0.01891 0.04492,0.03125 0.01234,0.01379 0.0181,0.03177 0.03125,0.04492 0.01315,0.01315 0.03113,0.01891 0.04492,0.03125 0.01234,0.01379 0.0181,0.03177 0.03125,0.04492 0.01315,0.01315 0.03113,0.01891 0.04492,0.03125 0.01234,0.01379 0.0181,0.03177 0.03125,0.04492 0.01289,0.01289 0.03142,0.01719 0.04492,0.0293 0.01211,0.01351 0.0164,0.03203 0.0293,0.04492 0.01289,0.01289 0.03142,0.01719 0.04492,0.0293 0.01211,0.01351 0.0164,0.03203 0.0293,0.04492 0.0125,0.0125 0.02989,0.01753 0.04297,0.0293 0.01177,0.01308 0.01679,0.03047 0.0293,0.04297 0.0125,0.0125 0.02989,0.01753 0.04297,0.0293 0.01177,0.01308 0.01679,0.03047 0.0293,0.04297 0.0125,0.0125 0.02989,0.01753 0.04297,0.0293 0.01177,0.01308 0.01679,0.03047 0.0293,0.04297 0.01224,0.01224 0.03017,0.01581 0.04297,0.02734 0.01153,0.0128 0.0151,0.03073 0.02734,0.04297 0.01224,0.01224 0.03017,0.01581 0.04297,0.02734 0.01153,0.0128 0.0151,0.03073 0.02734,0.04297 0.01224,0.01224 0.03017,0.01581 0.04297,0.02734 0.01153,0.0128 0.0151,0.03073 0.02734,0.04297 0.01185,0.01185 0.02865,0.01616 0.04102,0.02734 0.01119,0.01237 0.01549,0.02916 0.02734,0.04102 0.01185,0.01185 0.02864,0.01616 0.04102,0.02734 0.01119,0.01237 0.01549,0.02916 0.02734,0.04102 0.01146,0.01146 0.02711,0.0165 0.03906,0.02734 0.01084,0.01195 0.01588,0.0276 0.02734,0.03906 0.01146,0.01146 0.02712,0.0165 0.03906,0.02734 0.01084,0.01195 0.01588,0.0276 0.02734,0.03906 0.01146,0.01146 0.02712,0.0165 0.03906,0.02734 0.01084,0.01195 0.01588,0.0276 0.02734,0.03906 0.0112,0.0112 0.0274,0.01478 0.03906,0.02539 0.01061,0.01166 0.01419,0.02786 0.02539,0.03906 0.0112,0.0112 0.0274,0.01478 0.03906,0.02539 0.01061,0.01167 0.01419,0.02786 0.02539,0.03906 0.0112,0.0112 0.0274,0.01478 0.03906,0.02539 0.01061,0.01167 0.01419,0.02786 0.02539,0.03906 0.01081,0.01081 0.02587,0.01513 0.03711,0.02539 0.01026,0.01124 0.01458,0.0263 0.02539,0.03711 0.01055,0.01055 0.02615,0.01341 0.03711,0.02344 0.01002,0.01096 0.01289,0.02656 0.02344,0.03711 0.01081,0.01081 0.02587,0.01513 0.03711,0.02539 0.01026,0.01124 0.01458,0.0263 0.02539,0.03711 0.01055,0.01055 0.02615,0.01341 0.03711,0.02344 0.01002,0.01096 0.01289,0.02656 0.02344,0.03711 0.01016,0.01016 0.02462,0.01377 0.03516,0.02344 0.0097,0.01054 0.01328,0.025 0.02344,0.03516 0.01055,0.01055 0.02615,0.01341 0.03711,0.02344 0.01002,0.01096 0.01289,0.02656 0.02344,0.03711 0.0091,0.0091 0.02182,0.01276 0.03125,0.02148 0.01022,0.01119 0.01463,0.02634 0.02539,0.03711 0.01054,0.01054 0.02616,0.01343 0.03711,0.02344 0.0091,0.0098 0.01198,0.0237 0.02148,0.0332 0.0098,0.0098 0.02308,0.01412 0.0332,0.02344 0.0093,0.01012 0.01367,0.02343 0.02344,0.0332 0.0098,0.0098 0.02308,0.01412 0.0332,0.02344 0.0093,0.01012 0.01367,0.02344 0.02344,0.0332 0.0095,0.0095 0.02336,0.0124 0.0332,0.02148 0.0091,0.0098 0.01198,0.0237 0.02148,0.0332 0.0095,0.0095 0.02336,0.0124 0.0332,0.02148 0.0091,0.0098 0.01198,0.0237 0.02148,0.0332 0.0095,0.0095 0.02336,0.0124 0.0332,0.02148 0.009,0.0098 0.01202,0.02373 0.02148,0.0332 0.0091,0.0091 0.02182,0.01276 0.03125,0.02148 0.0087,0.0094 0.01237,0.02213 0.02148,0.03125 0.0085,0.0085 0.02057,0.0114 0.0293,0.01953 0.0091,0.0098 0.01199,0.02371 0.02148,0.0332 0.0097,0.0097 0.02313,0.01416 0.0332,0.02344 0.0078,0.0083 0.01146,0.01927 0.01953,0.02734 0.0089,0.0089 0.0221,0.01104 0.03125,0.01953 0.0085,0.0091 0.01068,0.02239 0.01953,0.03125 0.0089,0.0089 0.0221,0.01104 0.03125,0.01953 0.0085,0.0091 0.01068,0.02239 0.01953,0.03125 0.0085,0.0085 0.02057,0.0114 0.0293,0.01953 0.0081,0.0087 0.01107,0.02083 0.01953,0.0293 0.0085,0.0085 0.02056,0.0114 0.0293,0.01953 0.0081,0.0087 0.01107,0.02083 0.01953,0.0293 0.0081,0.0081 0.01903,0.01176 0.02734,0.01953 0.0078,0.0083 0.01146,0.01927 0.01953,0.02734 0.0074,0.0074 0.01776,0.01041 0.02539,0.01758 0.0087,0.0094 0.01241,0.02217 0.02148,0.03125 0.0088,0.0088 0.02214,0.01108 0.03125,0.01953 0.0069,0.0074 0.0085,0.01823 0.01563,0.02539 0.0081,0.0081 0.01903,0.01176 0.02734,0.01953 0.0078,0.0083 0.01146,0.01927 0.01953,0.02734 0.0078,0.0078 0.0193,0.01005 0.02734,0.01758 0.0075,0.008 0.0098,0.01953 0.01758,0.02734 0.0074,0.0074 0.01776,0.01041 0.02539,0.01758 0.0072,0.0076 0.01015,0.01797 0.01758,0.02539 0.0068,0.0068 0.01649,0.0091 0.02344,0.01563 0.0081,0.0087 0.0111,0.02087 0.01953,0.0293 0.008,0.008 0.01906,0.01179 0.02734,0.01953 0.0062,0.0065 0.0092,0.0151 0.01563,0.02148 0.0074,0.0074 0.01776,0.01041 0.02539,0.01758 0.0072,0.0076 0.01016,0.01797 0.01758,0.02539 0.0072,0.0072 0.01804,0.0087 0.02539,0.01563 0.0069,0.0074 0.0085,0.01823 0.01563,0.02539 0.0072,0.0072 0.01804,0.0087 0.02539,0.01563 0.0069,0.0074 0.0085,0.01823 0.01563,0.02539 0.0068,0.0068 0.01649,0.0091 0.02344,0.01563 0.0066,0.0069 0.0089,0.01666 0.01563,0.02344 0.0068,0.0068 0.01649,0.0091 0.02344,0.01563 0.0066,0.0069 0.0089,0.01666 0.01562,0.02344 0.0068,0.0068 0.01649,0.0091 0.02344,0.01563 0.0066,0.0069 0.0089,0.01666 0.01563,0.02344 0.0064,0.0064 0.01495,0.0094 0.02148,0.01562 0.0062,0.0065 0.0092,0.0151 0.01563,0.02148 0.0064,0.0064 0.01495,0.0094 0.02148,0.01563 0.0062,0.0065 0.0092,0.0151 0.01563,0.02148 0.0061,0.0061 0.01522,0.0077 0.02148,0.01367 0.0059,0.0063 0.0076,0.01536 0.01367,0.02148 0.0061,0.0061 0.01522,0.0077 0.02148,0.01367 0.0059,0.0063 0.0076,0.01536 0.01367,0.02148 0.0061,0.0061 0.01522,0.0077 0.02148,0.01367 0.0059,0.0063 0.0076,0.01536 0.01367,0.02148 0.0057,0.0057 0.01368,0.0081 0.01953,0.01367 0.0056,0.0059 0.0079,0.0138 0.01367,0.01953 0.0057,0.0057 0.01368,0.0081 0.01953,0.01367 0.0056,0.0059 0.0079,0.0138 0.01367,0.01953 0.0047,0.0047 0.01085,0.0071 0.01563,0.01172 0.0062,0.0065 0.0093,0.01513 0.01563,0.02148 0.0064,0.0064 0.01498,0.0095 0.02148,0.01563 0.0046,0.0048 0.007,0.01094 0.01172,0.01563 0.0051,0.0051 0.0124,0.0068 0.01758,0.01172 0.005,0.0052 0.0066,0.0125 0.01172,0.01758 0.0054,0.0054 0.01397,0.0064 0.01953,0.01172 0.0053,0.0056 0.0062,0.01406 0.01172,0.01953 0.0051,0.0051 0.0124,0.0068 0.01758,0.01172 0.005,0.0052 0.0066,0.0125 0.01172,0.01758 0.004,0.004 0.0096,0.0058 0.01367,0.0098 0.0056,0.0058 0.008,0.01383 0.01367,0.01953 0.0057,0.0057 0.0137,0.0081 0.01953,0.01367 0.004,0.0041 0.0057,0.0096 0.0098,0.01367 0.0047,0.0047 0.01085,0.0071 0.01563,0.01172 0.0046,0.0048 0.007,0.01094 0.01172,0.01562 0.0044,0.0044 0.01112,0.0054 0.01563,0.0098 0.0043,0.0045 0.0053,0.0112 0.0098,0.01563 0.0044,0.0044 0.01112,0.0054 0.01563,0.0098 0.0043,0.0045 0.0053,0.0112 0.0098,0.01563 0.0044,0.0044 0.01112,0.0054 0.01563,0.0098 0.0043,0.0045 0.0053,0.0112 0.0098,0.01563 0.004,0.004 0.0096,0.0058 0.01367,0.0098 0.004,0.0041 0.0057,0.0096 0.0098,0.01367 0.004,0.004 0.0096,0.0058 0.01367,0.0098 0.004,0.0041 0.0057,0.0096 0.0098,0.01367 0.004,0.004 0.0096,0.0058 0.01367,0.0098 0.004,0.0041 0.0057,0.0096 0.0098,0.01367 0.0038,0.0038 0.0098,0.0041 0.01367,0.0078 0.0037,0.0038 0.004,0.0099 0.0078,0.01367 0.0038,0.0038 0.0098,0.0041 0.01367,0.0078 0.0037,0.0038 0.004,0.0099 0.0078,0.01367 0.0034,0.0034 0.0083,0.0045 0.01172,0.0078 0.0033,0.0034 0.0044,0.0083 0.0078,0.01172 0.0027,0.0027 0.007,0.0032 0.0098,0.0059 0.0043,0.0045 0.0054,0.01122 0.0098,0.01563 0.004,0.004 0.0096,0.0058 0.01367,0.0098 0.0023,0.0024 0.0035,0.0055 0.0059,0.0078 0.0023,0.0023 0.0054,0.0035 0.0078,0.0059 0.0039,0.0041 0.0057,0.0097 0.0098,0.01367 0.0038,0.0038 0.0099,0.0041 0.01367,0.0078 0.0021,0.0021 0.0018,0.0057 0.0039,0.0078 0.003,0.003 0.0067,0.0049 0.0098,0.0078 0.003,0.003 0.0048,0.0068 0.0078,0.0098 0.0027,0.0027 0.007,0.0032 0.0098,0.0059 0.0027,0.0028 0.0031,0.007 0.0059,0.0098 0.0027,0.0027 0.007,0.0032 0.0098,0.0059 0.0027,0.0028 0.0031,0.007 0.0059,0.0098 0.0023,0.0023 0.0054,0.0035 0.0078,0.0059 0.0023,0.0024 0.0035,0.0055 0.0059,0.0078 0.0023,0.0023 0.0054,0.0035 0.0078,0.0059 0.0023,0.0024 0.0035,0.0055 0.0059,0.0078 0.0023,0.0023 0.0054,0.0035 0.0078,0.0059 0.0023,0.0024 0.0035,0.0055 0.0059,0.0078 0.0021,0.0021 0.0057,0.0018 0.0078,0.0039 0.0021,0.0021 0.0018,0.0057 0.0039,0.0078 0.0021,0.0021 0.0057,0.0018 0.0078,0.0039 0.0021,0.0021 0.0018,0.0057 0.0039,0.0078 0.0021,0.0021 0.0057,0.0018 0.0078,0.0039 0.0021,0.0021 0.0018,0.0057 0.0039,0.0078 0.0017,0.0017 0.0042,0.0022 0.0059,0.0039 0.0017,0.0017 0.0022,0.0042 0.0039,0.0059 0.0017,0.0017 0.0042,0.0022 0.0059,0.0039 0.0017,0.0017 0.0022,0.0042 0.0039,0.0059 0.0013,0.0013 0.0026,0.0026 0.0039,0.0039 0.0013,0.0013 0.0026,0.0026 0.0039,0.0039 0.0013,0.0013 0.0026,0.0026 0.0039,0.0039 0.0013,0.0013 0.0026,0.0026 0.0039,0.0039 0.0013,0.0013 0.0026,0.0026 0.0039,0.0039 0.0013,0.0013 0.0026,0.0026 0.0039,0.0039 0.001,0.001 0.0029,9.17e-4 0.0039,0.002 10e-4,10e-4 9.12e-4,0.0029 0.002,0.0039 0.001,0.001 0.0029,9.16e-4 0.0039,0.002 0.001,0.001 9.11e-4,0.0029 0.002,0.0039 0,0 0.002,0.002 0.002,0.002 0,0 0.002,0.002 0.002,0.002 0,0 0.002,0.002 0.002,0.002 0,0 0.002,0.002 0.002,0.002 0,0 0.002,0.002 0.002,0.002 0,0 0.002,0.002 0.002,0.002 0,0 0.002,0 0.002,0 0,0 0,0.002 0,0.002 0.0013,0.0013 0.0026,0.0026 0.0039,0.0039 0.09247,0.09247 0.202067,0.163159 0.320312,0.212891 0,0 0.002,0.002 0.002,0.002 C 21.236116,29.97233 21.36647,30 21.5,30 h 7 c 0.265216,0 0.519494,-0.105433 0.707031,-0.292969 C 29.394567,29.519494 29.5,29.265216 29.5,29 v -7 c 0,-0.111027 -0.03124,-0.212959 -0.06445,-0.3125 -0.0085,-0.02538 -0.0052,-0.05567 -0.01563,-0.08008 0,0 -0.002,-0.002 -0.002,-0.002 0,0 -0.002,-0.002 -0.002,-0.002 -0.05038,-0.117899 -0.121838,-0.223226 -0.210938,-0.3125 -3.85e-4,-3.84e-4 -0.0016,3.83e-4 -0.002,0 0,0 0,-0.002 0,-0.002 -0.002,-0.002 -0.0038,-0.0038 -0.0059,-0.0059 0,0 -0.002,-0.002 -0.002,-0.002 0,0 -0.002,-0.002 -0.002,-0.002 -0.001,-10e-4 -0.0029,-9.39e-4 -0.0039,-0.002 -0.002,-0.002 -0.0038,-0.0038 -0.0059,-0.0059 -0.002,-0.0021 -0.0038,-0.0038 -0.0059,-0.0059 -0.001,-10e-4 -9.41e-4,-0.0029 -0.002,-0.0039 0,0 -0.002,0 -0.002,0 -0.0033,-0.0033 -0.0045,-0.0084 -0.0078,-0.01172 -0.0036,-0.0036 -0.01005,-0.0082 -0.01367,-0.01172 -0.0017,-0.0017 -0.0042,-0.0023 -0.0059,-0.0039 -0.0033,-0.0033 -0.0064,-0.0065 -0.0098,-0.0098 -0.0033,-0.0033 -0.0064,-0.0065 -0.0098,-0.0098 -0.0037,-0.0037 -0.008,-0.0061 -0.01172,-0.0098 -0.0041,-0.0041 -0.0076,-0.0077 -0.01172,-0.01172 -0.0043,-0.0044 -0.0073,-0.0094 -0.01172,-0.01367 -0.0046,-0.0046 -0.009,-0.0091 -0.01367,-0.01367 -0.0039,-0.004 -0.0077,-0.0078 -0.01172,-0.01172 -0.0066,-0.0067 -0.01278,-0.01299 -0.01953,-0.01953 -0.0037,-0.0037 -0.008,-0.0061 -0.01172,-0.0098 -0.0073,-0.0075 -0.01395,-0.01421 -0.02148,-0.02148 -0.0049,-0.005 -0.0086,-0.01072 -0.01367,-0.01563 -0.0058,-0.0059 -0.01162,-0.01178 -0.01758,-0.01758 -0.0062,-0.0063 -0.01317,-0.01141 -0.01953,-0.01758 -0.0066,-0.0067 -0.01278,-0.01299 -0.01953,-0.01953 -0.0059,-0.0061 -0.0115,-0.01166 -0.01758,-0.01758 -0.0085,-0.0088 -0.01653,-0.01688 -0.02539,-0.02539 -0.0056,-0.0057 -0.0099,-0.01203 -0.01563,-0.01758 -0.009,-0.0094 -0.01795,-0.01834 -0.02734,-0.02734 -0.0068,-0.007 -0.01445,-0.01275 -0.02148,-0.01953 -0.0072,-0.0074 -0.01408,-0.01431 -0.02148,-0.02148 -0.0098,-0.01016 -0.01911,-0.01956 -0.0293,-0.0293 -0.0076,-0.0078 -0.01562,-0.01397 -0.02344,-0.02148 -0.0088,-0.0091 -0.01625,-0.01858 -0.02539,-0.02734 -0.009,-0.0094 -0.01795,-0.01834 -0.02734,-0.02734 -0.0091,-0.0094 -0.01793,-0.01832 -0.02734,-0.02734 -0.0094,-0.0098 -0.0195,-0.01798 -0.0293,-0.02734 -0.0098,-0.01018 -0.01908,-0.01954 -0.0293,-0.0293 -0.0098,-0.01018 -0.01908,-0.01954 -0.0293,-0.0293 -0.01013,-0.01053 -0.02067,-0.01922 -0.03125,-0.0293 -0.01013,-0.01056 -0.01872,-0.02114 -0.0293,-0.03125 -0.01,-0.01045 -0.01886,-0.02125 -0.0293,-0.03125 -0.01221,-0.01283 -0.02424,-0.02494 -0.03711,-0.03711 -0.01042,-0.0108 -0.02231,-0.01898 -0.0332,-0.0293 -0.01138,-0.01192 -0.02126,-0.02381 -0.0332,-0.03516 -0.01075,-0.01124 -0.02194,-0.02052 -0.0332,-0.03125 -0.01329,-0.01405 -0.02499,-0.02776 -0.03906,-0.04102 -0.01162,-0.01215 -0.02294,-0.02361 -0.03516,-0.03516 -0.01224,-0.01286 -0.02421,-0.02492 -0.03711,-0.03711 -0.01159,-0.01217 -0.02297,-0.02358 -0.03516,-0.03516 -0.01352,-0.01433 -0.02668,-0.02751 -0.04102,-0.04102 -0.01393,-0.01469 -0.02818,-0.0272 -0.04297,-0.04102 -0.01173,-0.01229 -0.02283,-0.02348 -0.03516,-0.03516 -0.01511,-0.01606 -0.02879,-0.03184 -0.04492,-0.04687 -0.01299,-0.01365 -0.02728,-0.02422 -0.04102,-0.03711 -0.0068,-0.0072 -0.0086,-0.01839 -0.01563,-0.02539 V 20 h -0.002 v -0.002 h -0.002 v -0.002 h -0.002 v -0.002 h -0.0039 v -0.0039 h -0.0039 v -0.0039 h -0.0039 v -0.0039 h -0.0059 v -0.0059 h -0.0059 v -0.0059 h -0.0078 v -0.0078 h -0.0078 v -0.0078 h -0.0078 v -0.0078 h -0.0098 v -0.0098 h -0.0098 v -0.0098 h -0.01172 v -0.01172 h -0.01172 v -0.01172 h -0.01172 v -0.01172 h -0.01367 v -0.01367 h -0.01367 V 19.865 h -0.01367 v -0.01367 h -0.01562 v -0.01562 h -0.01563 v -0.01563 h -0.01758 V 19.8025 h -0.01758 v -0.01563 h -0.01758 v -0.01953 h -0.01953 v -0.01953 h -0.01953 v -0.01953 h -0.01953 V 19.70875 H 27.6875 V 19.6875 H 27.66602 V 19.66602 H 27.64258 V 19.64258 H 27.61914 V 19.61914 H 27.5957 V 19.5957 h -0.02539 v -0.02539 h -0.02539 v -0.02539 h -0.02539 v -0.02539 h -0.02734 v -0.02734 h -0.0293 v -0.02734 h -0.02734 v -0.0293 h -0.0293 v -0.0293 H 27.375 V 19.375 h -0.0293 v -0.0293 h -0.03125 v -0.03125 h -0.0332 v -0.0332 h -0.0332 v -0.0332 h -0.0332 v -0.0332 H 27.17969 V 19.17969 H 27.14453 V 19.14453 H 27.10937 V 19.10937 H 27.07226 V 19.07226 H 27.03515 V 19.03515 H 26.99609 V 18.99609 H 26.95703 V 18.95703 H 26.91797 V 18.91797 H 26.87695 V 18.87695 H 26.83593 V 18.83593 H 26.79296 V 18.79296 H 26.75194 V 18.75194 H 26.70702 V 18.70702 H 26.66405 V 18.66405 H 26.61913 V 18.61913 H 26.57226 V 18.57226 H 26.52734 V 18.52734 H 26.47851 V 18.47851 H 26.43164 V 18.43164 H 26.38281 V 18.38281 H 26.33398 V 18.33398 H 26.2832 V 18.2832 H 26.23242 V 18.23242 H 26.18164 V 18.18164 H 26.12891 V 18.12891 H 26.07618 V 18.07618 H 26.02149 V 18.02149 H 25.9668 V 17.9668 H 25.91211 V 17.91211 H 25.85547 V 17.85547 H 25.79883 V 17.79883 H 25.74024 V 17.74024 H 25.6836 V 17.6836 h -0.06055 v -0.06055 h -0.05859 v -0.05859 h -0.06055 v -0.06055 h -0.0625 v -0.0625 h -0.06055 v -0.06055 h -0.0625 v -0.0625 H 25.25391 V 17.25391 H 25.18946 V 17.18946 H 25.125 V 17.125 H 25.05859 V 17.05859 H 24.99218 V 16.99218 H 24.92577 V 16.92577 H 24.85741 V 16.85741 H 24.78905 V 16.78905 H 24.71874 V 16.71874 H 24.64843 V 16.64843 H 24.57812 V 16.57812 H 24.50585 V 16.50585 H 24.43358 V 16.43358 H 24.36131 V 16.36131 H 24.28709 V 16.28709 H 24.21287 V 16.21287 H 24.1367 V 16.1367 H 24.06053 V 16.06053 H 23.98436 V 15.98436 H 23.90623 V 15.90623 H 23.8281 V 15.8281 H 23.75 V 15.75 H 23.66992 V 15.66992 H 23.58789 V 15.58789 H 23.50781 V 15.50781 H 23.42578 V 15.42578 H 23.3418 V 15.3418 H 23.25977 V 15.25977 H 23.17579 V 15.17578 H 23.08985 V 15.08984 H 23.00391 V 15.0039 H 22.91797 V 14.91796 H 22.83008 V 14.83007 H 22.74219 V 14.74218 H 22.6543 v -0.08789 h -0.08984 v -0.08984 h -0.08984 v -0.08984 h -0.0918 v -0.0918 h -0.0918 v -0.0918 h -0.0918 v -0.0918 h -0.09375 v -0.09375 h -0.09375 v -0.09375 h -0.08789 c -0.0023,-0.0023 -0.0055,-0.0036 -0.0078,-0.0059 v -0.08984 h -0.08789 c -0.0017,-0.0017 -0.0042,-0.0062 -0.0059,-0.0078 V 13.82223 H 21.7324 c -0.0033,-0.0034 -0.0045,-0.0084 -0.0078,-0.01172 v -0.08594 h -0.09375 c 0,0 -0.002,-0.002 -0.002,-0.002 v -0.09375 h -0.09766 v -0.09766 h -0.09961 v -0.09961 h -0.09766 v -0.09766 h -0.09961 v -0.09961 h -0.101563 v -0.101563 h -0.09961 c 0,0 -0.002,-0.002 -0.002,-0.002 v -0.09961 h -0.0957 c -0.0017,-0.0016 -0.0041,-0.0023 -0.0059,-0.0039 v -0.09766 h -0.08984 c -0.004,-0.0039 -0.0096,-0.0059 -0.01367,-0.0098 v -0.09375 h -0.08594 c -0.005,-0.005 -0.01248,-0.0068 -0.01758,-0.01172 v -0.0918 h -0.08789 c -0.0049,-0.005 -0.01058,-0.0088 -0.01563,-0.01367 v -0.08984 h -0.0918 c -0.0049,-0.0051 -0.0087,-0.01454 -0.01367,-0.01953 v -0.08594 h -0.09375 c -0.0044,-0.0047 -0.0072,-0.01097 -0.01172,-0.01563 v -0.08984 h -0.0957 c -0.0048,-0.0052 -0.0069,-0.01249 -0.01172,-0.01758 v -0.08984 h -0.101562 c -0.0025,-0.0028 -0.0033,-0.007 -0.0059,-0.0098 v -0.09766 H 20.08965 c -0.0016,-0.0018 -0.0023,-0.0041 -0.0039,-0.0059 v -0.101562 h -0.107422 c -9.45e-4,-0.0011 -0.001,-0.0028 -0.002,-0.0039 v -0.105469 h -0.107421 c 0,0 -0.002,-0.002 -0.002,-0.002 v -0.107421 h -0.103516 c -0.0018,-0.0015 -0.0041,-0.0024 -0.0059,-0.0039 v -0.105469 h -0.09961 c -0.0035,-0.0031 -0.0082,-0.0047 -0.01172,-0.0078 V 11.64621 h -0.0957 c -0.0045,-0.0042 -0.01103,-0.0057 -0.01563,-0.0098 v -0.101563 h -0.09375 c -0.0058,-0.0055 -0.01364,-0.0083 -0.01953,-0.01367 v -0.09961 h -0.08984 c -0.0067,-0.0065 -0.01654,-0.0093 -0.02344,-0.01563 v -0.09766 h -0.08594 c 0,0 -0.002,-0.002 -0.002,-0.002 -0.0073,-0.0073 -0.01789,-0.01055 -0.02539,-0.01758 v -0.09375 h -0.08984 c -0.0082,-0.0084 -0.0169,-0.01532 -0.02539,-0.02344 v -0.0918 h -0.0918 c -0.0081,-0.0085 -0.01502,-0.01719 -0.02344,-0.02539 v -0.08984 h -0.0957 c -0.0084,-0.0089 -0.01275,-0.02067 -0.02148,-0.0293 v -0.08789 H 18.75 c -0.008,-0.0086 -0.01128,-0.02096 -0.01953,-0.0293 v -0.08789 h -0.09961 c -0.0069,-0.0076 -0.01045,-0.01798 -0.01758,-0.02539 v -0.0918 h -0.103515 c -0.0057,-0.0064 -0.0079,-0.01526 -0.01367,-0.02148 v -0.0957 h -0.105469 c -0.0052,-0.006 -0.0083,-0.01366 -0.01367,-0.01953 v -0.09961 h -0.109375 c -0.0046,-0.0054 -0.007,-0.01229 -0.01172,-0.01758 v -0.103516 h -0.109375 c -0.0045,-0.0054 -0.0071,-0.01227 -0.01172,-0.01758 v -0.103515 h -0.107422 c -0.0029,-0.0025 -0.0068,-0.0034 -0.0098,-0.0059 -0.0015,-0.0018 -0.0024,-0.0041 -0.0039,-0.0059 v -0.109375 h -0.103516 c -0.0053,-0.0046 -0.01216,-0.0072 -0.01758,-0.01172 V 9.8925781 h -0.09961 c -0.007,-0.00627 -0.01628,-0.00955 -0.02344,-0.015625 V 9.7695312 h -0.0957 c -0.0086,-0.00798 -0.02038,-0.011855 -0.0293,-0.019531 v -0.105469 h -0.09375 c -0.0086,-0.00806 -0.02046,-0.01177 -0.0293,-0.019531 V 9.5214844 h -0.08789 c -0.01076,-0.01048 -0.02589,-0.015402 -0.03711,-0.025391 v -0.099609 h -0.08594 c -0.01189,-0.01185 -0.02855,-0.018056 -0.04102,-0.029297 v -0.097656 h -0.08594 c -0.01218,-0.012377 -0.02821,-0.01952 -0.04102,-0.03125 v -0.095703 h -0.08984 c -0.01171,-0.012064 -0.02481,-0.021741 -0.03711,-0.033203 v -0.09375 h -0.0918 c -0.0116,-0.012189 -0.02296,-0.023566 -0.03516,-0.035156 v -0.091797 h -0.09375 c -0.01243,-0.013358 -0.02202,-0.028357 -0.03516,-0.041016 v -0.087891 h -0.09766 c -0.01237,-0.013482 -0.02012,-0.030185 -0.0332,-0.042969 v -0.087891 h -0.09961 C 16.517328,8.6156341 16.512654,8.5965946 16.5,8.5839844 V 8.5 H 16.396484 C 16.385604,8.487694 16.380604,8.470737 16.369144,8.458984 V 8.3691406 H 16.263672 C 16.252906,8.356726 16.247683,8.33999 16.236328,8.328125 V 8.236328 h -0.107422 c -0.0098,-0.011445 -0.01511,-0.026121 -0.02539,-0.037109 V 8.103516 H 15.994141 C 15.985441,8.093132 15.979811,8.08033 15.970701,8.070313 V 7.970704 H 15.85742 C 15.84902,7.960524 15.84471,7.947336 15.83594,7.937501 V 7.8359375 h -0.113282 c 0,0 -0.002,-0.00195 -0.002,-0.00195 -0.0074,-0.00915 -0.01177,-0.020424 -0.01953,-0.029297 V 7.7011719 h -0.109375 c -0.0043,-0.0036 -0.0093,-0.00623 -0.01367,-0.00977 -0.0045,-0.00549 -0.0071,-0.012188 -0.01172,-0.017578 V 7.5664062 h -0.105468 c -0.0078,-0.00674 -0.01741,-0.011082 -0.02539,-0.017578 -0.0021,-0.00253 -0.0038,-0.0053 -0.0059,-0.00781 V 7.4296875 h -0.101563 c -0.01054,-0.00933 -0.02423,-0.014549 -0.03516,-0.023437 V 7.2929688 h -0.09961 c -0.01152,-0.010463 -0.02706,-0.015469 -0.03906,-0.025391 V 7.1542969 h -0.0957 c -0.01206,-0.011208 -0.02841,-0.016738 -0.04102,-0.027344 v -0.109375 h -0.0918 c -0.01422,-0.013588 -0.03383,-0.020467 -0.04883,-0.033203 V 6.8769531 h -0.08789 c -0.0144,-0.014165 -0.03536,-0.019936 -0.05069,-0.033203 V 6.7382812 h -0.08594 c 0,0 -0.002,-0.00195 -0.002,-0.00195 -0.015,-0.014945 -0.03682,-0.021185 -0.05274,-0.035156 v -0.103519 h -0.08789 c -0.01609,-0.016345 -0.03752,-0.025806 -0.05469,-0.041016 V 6.4550781 h -0.08984 C 14.349256,6.438612 14.329567,6.4274447 14.3125,6.4121094 V 6.3125 H 14.169922 V 6.1699219 H 14.027344 V 6.0273438 H 13.882812 V 5.8828125 H 13.736328 V 5.7363281 H 13.591797 V 5.5917969 H 13.445312 V 5.4453125 H 13.296875 V 5.296875 H 13.148438 V 5.1484375 h -1 v 1 H 9.0273438 V 6.0273438 H 8.8828125 V 5.8828125 H 8.7363281 V 5.7363281 H 8.5917969 V 5.5917969 H 8.4453125 V 5.4453125 H 8.296875 V 5.296875 H 8.1484375 V 5.1484375 Z"
       id="path4208"
       style="opacity:0.2;fill:url(#linearGradient5050);fill-opacity:1"
       clip-path="url(#clipPath5055)"
       inkscape:connector-curvature="0" />
    <rect
       style="opacity:1;fill:#9e9e9e;stroke-width:0.93749994"
       id="rect849"
       width="7.0000005"
       height="5.5000005"
       x="6.4999771"
       y="8.5000048" />
    <path
       style="fill:#ffffff"
       inkscape:connector-curvature="0"
       d="M 13.499978,14.000005 H 6.4999775 V 8.5000046 h 7.0000005 m -1.5,-3.5 V 6.0000047 H 7.9999775 V 5.0000046 h -1 v 1.0000001 h -0.5 c -0.555,0 -1,0.445 -1,1 v 7.0000003 a 0.99999998,0.99999998 0 0 0 1,1 h 7.0000005 a 0.99999998,0.99999998 0 0 0 1,-1 V 7.0000047 c 0,-0.555 -0.45,-1 -1,-1 h -0.5 V 5.0000046 m -0.5,5.5000004 H 9.9999775 v 2.5 h 2.5000005 z"
       id="path4167" />
    <path
       style="fill:none"
       inkscape:connector-curvature="0"
       id="path4"
       d="M 3.9999777,4.0333382 H 15.999978 V 15.966671 H 3.9999777 Z" />
    <path
       d="m 18.999978,19.033339 h 12 v 11.933333 h -12 z"
       id="path9754"
       inkscape:connector-curvature="0"
       style="fill:none" />
  </g>
</svg>
