<?xml version="1.0" encoding="UTF-8" standalone="no"?>
<!-- Created with Inkscape (http://www.inkscape.org/) -->

<svg
   xmlns:dc="http://purl.org/dc/elements/1.1/"
   xmlns:cc="http://creativecommons.org/ns#"
   xmlns:rdf="http://www.w3.org/1999/02/22-rdf-syntax-ns#"
   xmlns:svg="http://www.w3.org/2000/svg"
   xmlns="http://www.w3.org/2000/svg"
   xmlns:xlink="http://www.w3.org/1999/xlink"
   xmlns:sodipodi="http://sodipodi.sourceforge.net/DTD/sodipodi-0.dtd"
   xmlns:inkscape="http://www.inkscape.org/namespaces/inkscape"
   width="5.6444445mm"
   height="5.6444445mm"
   viewBox="0 0 20 20"
   id="svg2"
   version="1.1"
   inkscape:version="0.91 r13725"
   sodipodi:docname="Kalender.svg"
   inkscape:export-filename="/home/juergen/Projekte/Android/Android_Studio/Baumann_Theme/theme/src/main/assets/icons/res/drawable-xxhdpi/a000.png"
   inkscape:export-xdpi="648"
   inkscape:export-ydpi="648">
  <sodipodi:namedview
     id="base"
     pagecolor="#ffffff"
     bordercolor="#666666"
     borderopacity="1.0"
     inkscape:pageopacity="0.0"
     inkscape:pageshadow="2"
     inkscape:zoom="22.4"
     inkscape:cx="8.204645"
     inkscape:cy="12.724359"
     inkscape:document-units="px"
     inkscape:current-layer="layer1"
     showgrid="true"
     fit-margin-top="0"
     fit-margin-left="0"
     fit-margin-right="0"
     fit-margin-bottom="0"
     showguides="true"
     inkscape:guide-bbox="true"
     inkscape:window-width="1366"
     inkscape:window-height="744"
     inkscape:window-x="0"
     inkscape:window-y="24"
     inkscape:window-maximized="1"
     inkscape:snap-grids="false"
     inkscape:snap-to-guides="false">
    <inkscape:grid
       id="grid4138"
       type="xygrid" />
    <sodipodi:guide
       id="guide4140"
       orientation="0,1"
       position="10,18" />
    <sodipodi:guide
       id="guide4142"
       orientation="0,1"
       position="10,2" />
    <sodipodi:guide
       id="guide4144"
       orientation="1,0"
       position="2,10" />
    <sodipodi:guide
       id="guide4146"
       orientation="0,20"
       position="0,0" />
    <sodipodi:guide
       id="guide4148"
       orientation="-20,0"
       position="20,0" />
    <sodipodi:guide
       id="guide4150"
       orientation="0,-20"
       position="20,20" />
    <sodipodi:guide
       id="guide4152"
       orientation="20,0"
       position="0,20" />
    <sodipodi:guide
       id="guide4154"
       orientation="1,0"
       position="18,10" />
    <sodipodi:guide
       id="guide4156"
       orientation="-0.70710678,0.70710678"
       position="10,10" />
    <sodipodi:guide
       id="guide4158"
       orientation="0.70710678,0.70710678"
       position="10,10" />
    <sodipodi:guide
       id="guide4160"
       orientation="1,0"
       position="4,10" />
    <sodipodi:guide
       id="guide4162"
       orientation="1,0"
       position="16,10" />
    <sodipodi:guide
       id="guide4164"
       orientation="0,1"
       position="10,16" />
    <sodipodi:guide
       id="guide4166"
       orientation="0,1"
       position="10,4" />
    <sodipodi:guide
       id="guide4168"
       orientation="0,1"
       position="10,15" />
    <sodipodi:guide
       id="guide4170"
       orientation="0,1"
       position="10,5" />
    <sodipodi:guide
       id="guide4172"
       orientation="1,0"
       position="5,10" />
    <sodipodi:guide
       id="guide4174"
       orientation="1,0"
       position="15,10" />
  </sodipodi:namedview>
  <defs
     id="defs4">
    <linearGradient
       inkscape:collect="always"
       id="linearGradient5044">
      <stop
         style="stop-color:#000000;stop-opacity:1;"
         offset="0"
         id="stop5046" />
      <stop
         style="stop-color:#000000;stop-opacity:0;"
         offset="1"
         id="stop5048" />
    </linearGradient>
    <clipPath
       clipPathUnits="userSpaceOnUse"
       id="clipPath12478">
      <circle
         style="opacity:1;fill:#2196f3;fill-opacity:1;stroke:none;stroke-width:0.05069799;stroke-miterlimit:4;stroke-dasharray:none;stroke-opacity:1"
         id="circle12480"
         cx="9.9999781"
         cy="10.000005"
         r="10" />
    </clipPath>
    <clipPath
       id="clipPath5790"
       clipPathUnits="userSpaceOnUse">
      <circle
         inkscape:export-ydpi="648"
         inkscape:export-xdpi="648"
         inkscape:export-filename="/home/juergen/path4136.png"
         style="opacity:1;fill:#2196f3;fill-opacity:1;stroke:none;stroke-width:0.05069799;stroke-miterlimit:4;stroke-dasharray:none;stroke-opacity:1"
         id="circle5792"
         cx="9.9999781"
         cy="10.000005"
         r="10" />
    </clipPath>
    <linearGradient
       inkscape:collect="always"
       xlink:href="#linearGradient5044"
       id="linearGradient5050"
       x1="10"
       y1="10"
       x2="20"
       y2="20"
       gradientUnits="userSpaceOnUse" />
    <clipPath
       clipPathUnits="userSpaceOnUse"
       id="clipPath5055">
      <circle
         inkscape:export-ydpi="648"
         inkscape:export-xdpi="648"
         inkscape:export-filename="/home/juergen/path4136.png"
         style="opacity:1;fill:#2196f3;fill-opacity:1;stroke:none;stroke-width:0.05069799;stroke-miterlimit:4;stroke-dasharray:none;stroke-opacity:1"
         id="circle5057"
         cx="9.9999781"
         cy="10.000005"
         r="10" />
    </clipPath>
  </defs>
  <metadata
     id="metadata7">
    <rdf:RDF>
      <cc:Work
         rdf:about="">
        <dc:format>image/svg+xml</dc:format>
        <dc:type
           rdf:resource="http://purl.org/dc/dcmitype/StillImage" />
        <dc:title />
      </cc:Work>
    </rdf:RDF>
  </metadata>
  <g
     transform="translate(1058.1428,-861.93365)"
     id="layer1"
     inkscape:groupmode="layer"
     inkscape:label="Hintergrund">
    <circle
       r="10"
       cy="871.93365"
       cx="-1048.1428"
       id="path4136"
       style="opacity:1;fill:#2196f3;fill-opacity:1;stroke:none;stroke-width:0.05069799;stroke-miterlimit:4;stroke-dasharray:none;stroke-opacity:1"
       inkscape:export-filename="/home/juergen/Schreibtisch/path4136.png"
       inkscape:export-xdpi="648"
       inkscape:export-ydpi="648" />
  </g>
  <g
     inkscape:label="Icon"
     id="layer2"
     inkscape:groupmode="layer"
     style="display:inline">
    <path
       style="fill:none"
       inkscape:connector-curvature="0"
       id="path4"
       d="m 3.9999777,4.0333382 12.0000003,0 0,11.9333328 -12.0000003,0 z" />
    <path
       d="m 18.999978,19.033339 12,0 0,11.933333 -12,0 z"
       id="path9754"
       inkscape:connector-curvature="0"
       style="fill:none" />
    <path
       id="path4214"
       d="m 13.499978,14.000005 -7.0000004,0 0,-5.5000003 7.0000004,0 m -1.5,-3.4999999 0,1 -4.0000004,0 0,-1 -1,0 0,1 -0.5,0 c -0.555,0 -1,0.445 -1,1 l 0,7.0000002 a 0.99999998,0.99999998 0 0 0 1,1 l 7.0000004,0 a 0.99999998,0.99999998 0 0 0 1,-1 l 0,-7.0000002 c 0,-0.555 -0.45,-1 -1,-1 l -0.5,0 0,-1 m -0.5,5.5000002 -2.5000004,0 0,2.5 2.5000004,0 0,-2.5 z"
       inkscape:connector-curvature="0" />
    <path
       d="M 7.1484375 5.1484375 L 7.1484375 6.1484375 L 6.6484375 6.1484375 C 6.0934375 6.1484375 5.6484375 6.5934375 5.6484375 7.1484375 L 5.6484375 14.148438 C 5.6484375 14.413654 5.7538699 14.667933 5.9414062 14.855469 C 5.9671921 14.881255 6.0030832 14.891444 6.03125 14.914062 C 6.0538683 14.942229 6.0640579 14.97812 6.0898438 15.003906 C 6.1152393 15.029302 6.1500273 15.040176 6.1777344 15.0625 C 6.2003266 15.090626 6.210577 15.126593 6.2363281 15.152344 C 6.262656 15.178672 6.2993182 15.189866 6.328125 15.212891 C 6.3499546 15.239833 6.3600215 15.274084 6.3847656 15.298828 C 6.4097708 15.323833 6.4434548 15.335394 6.4707031 15.357422 C 6.4927313 15.38467 6.5042917 15.418354 6.5292969 15.443359 C 6.5546924 15.468755 6.5894804 15.479629 6.6171875 15.501953 C 6.6395115 15.52966 6.6503857 15.564448 6.6757812 15.589844 C 6.7007864 15.614849 6.7344704 15.626409 6.7617188 15.648438 C 6.783747 15.675686 6.7953073 15.70937 6.8203125 15.734375 C 6.8450567 15.759119 6.8793079 15.769186 6.90625 15.791016 C 6.9280796 15.817958 6.9381465 15.852209 6.9628906 15.876953 C 6.9876348 15.901697 7.021886 15.911764 7.0488281 15.933594 C 7.0706577 15.960536 7.0807246 15.994787 7.1054688 16.019531 C 7.1302129 16.044275 7.1644642 16.054342 7.1914062 16.076172 C 7.2132358 16.103114 7.2233027 16.137365 7.2480469 16.162109 C 7.272791 16.186854 7.3070423 16.19692 7.3339844 16.21875 C 7.355814 16.245692 7.3658808 16.279943 7.390625 16.304688 C 7.4149788 16.329041 7.4481245 16.339797 7.4746094 16.361328 C 7.4961407 16.387813 7.5068962 16.420959 7.53125 16.445312 C 7.5553428 16.469405 7.5890546 16.478669 7.6152344 16.5 C 7.6365654 16.52618 7.6458291 16.559892 7.6699219 16.583984 C 7.6942757 16.608338 7.7274213 16.619094 7.7539062 16.640625 C 7.7754375 16.66711 7.7861931 16.700255 7.8105469 16.724609 C 7.833598 16.74766 7.8656588 16.756819 7.890625 16.777344 C 7.9123765 16.804166 7.9226238 16.838639 7.9472656 16.863281 C 7.9719075 16.887923 8.006381 16.89817 8.0332031 16.919922 C 8.053728 16.944888 8.0628864 16.976949 8.0859375 17 C 8.10964 17.023703 8.1422446 17.033657 8.1679688 17.054688 C 8.1889989 17.080412 8.1989538 17.113016 8.2226562 17.136719 C 8.2463587 17.160421 8.2789633 17.170376 8.3046875 17.191406 C 8.3257177 17.21713 8.3356725 17.249735 8.359375 17.273438 C 8.3826871 17.29675 8.4141835 17.307397 8.4394531 17.328125 C 8.460181 17.353395 8.4708285 17.384891 8.4941406 17.408203 C 8.5174528 17.431515 8.5489491 17.442163 8.5742188 17.462891 C 8.5949466 17.48816 8.6055941 17.519657 8.6289062 17.542969 C 8.6522184 17.566281 8.6837148 17.576928 8.7089844 17.597656 C 8.7297123 17.622926 8.7403597 17.654422 8.7636719 17.677734 C 8.786723 17.700785 8.8187838 17.709944 8.84375 17.730469 C 8.8642749 17.755435 8.8734333 17.787496 8.8964844 17.810547 C 8.9195355 17.833598 8.9515963 17.842756 8.9765625 17.863281 C 8.9970874 17.888248 9.0062458 17.920308 9.0292969 17.943359 C 9.0513063 17.965369 9.0817091 17.974432 9.1054688 17.994141 C 9.1264229 18.01975 9.1365521 18.052568 9.1601562 18.076172 C 9.1837604 18.099776 9.2165779 18.109905 9.2421875 18.130859 C 9.2618957 18.154619 9.2709593 18.185022 9.2929688 18.207031 C 9.3153685 18.229431 9.3468828 18.237797 9.3710938 18.257812 C 9.3911092 18.282023 9.3994752 18.313538 9.421875 18.335938 C 9.4445358 18.358598 9.4754867 18.368452 9.5 18.388672 C 9.5202201 18.413185 9.5300736 18.444136 9.5527344 18.466797 C 9.5751342 18.489197 9.6066484 18.497563 9.6308594 18.517578 C 9.6508748 18.541789 9.6592408 18.573303 9.6816406 18.595703 C 9.7036501 18.617713 9.7340529 18.626776 9.7578125 18.646484 C 9.7775207 18.670244 9.7865843 18.700647 9.8085938 18.722656 C 9.8306032 18.744666 9.861006 18.753729 9.8847656 18.773438 C 9.9044738 18.797197 9.9135374 18.8276 9.9355469 18.849609 C 9.957465 18.871527 9.9880646 18.880755 10.011719 18.900391 C 10.031427 18.92415 10.040491 18.954553 10.0625 18.976562 C 10.08451 18.998572 10.114912 19.007636 10.138672 19.027344 C 10.15838 19.051103 10.167444 19.081506 10.189453 19.103516 C 10.211072 19.125135 10.240363 19.134898 10.263672 19.154297 C 10.283071 19.177606 10.292834 19.206897 10.314453 19.228516 C 10.335421 19.249483 10.364159 19.258463 10.386719 19.277344 C 10.406355 19.300998 10.415582 19.331598 10.4375 19.353516 C 10.459478 19.375494 10.489948 19.384613 10.513672 19.404297 C 10.532553 19.426857 10.541532 19.455595 10.5625 19.476562 C 10.583858 19.497921 10.61371 19.506199 10.636719 19.525391 C 10.655911 19.548399 10.664189 19.578251 10.685547 19.599609 C 10.706515 19.620577 10.735252 19.629557 10.757812 19.648438 C 10.776693 19.670998 10.785673 19.699735 10.806641 19.720703 C 10.827608 19.741671 10.856346 19.75065 10.878906 19.769531 C 10.897787 19.792091 10.906767 19.820829 10.927734 19.841797 C 10.948702 19.862765 10.97744 19.871744 11 19.890625 C 11.018881 19.913185 11.02786 19.941923 11.048828 19.962891 C 11.069796 19.983858 11.098534 19.992838 11.121094 20.011719 C 11.139975 20.034279 11.148954 20.063017 11.169922 20.083984 C 11.190629 20.104691 11.219927 20.112188 11.242188 20.130859 C 11.260859 20.15312 11.268356 20.182418 11.289062 20.203125 C 11.309379 20.223441 11.337561 20.231642 11.359375 20.25 C 11.377733 20.271814 11.385934 20.299996 11.40625 20.320312 C 11.425915 20.339978 11.453539 20.347403 11.474609 20.365234 C 11.493731 20.388142 11.502168 20.418183 11.523438 20.439453 C 11.544318 20.460334 11.573243 20.46947 11.595703 20.488281 C 11.613216 20.508907 11.62135 20.535413 11.640625 20.554688 C 11.660941 20.575004 11.689124 20.583205 11.710938 20.601562 C 11.729295 20.623376 11.737496 20.651559 11.757812 20.671875 C 11.777739 20.691801 11.804804 20.700707 11.826172 20.71875 C 11.844215 20.740118 11.853121 20.767183 11.873047 20.787109 C 11.892973 20.807036 11.920039 20.815942 11.941406 20.833984 C 11.959449 20.855352 11.968355 20.882418 11.988281 20.902344 C 12.007946 20.922009 12.035571 20.929434 12.056641 20.947266 C 12.074472 20.968336 12.081897 20.99596 12.101562 21.015625 C 12.121228 21.03529 12.148852 21.042716 12.169922 21.060547 C 12.187753 21.081617 12.195179 21.109241 12.214844 21.128906 C 12.234509 21.148571 12.262133 21.155997 12.283203 21.173828 C 12.301034 21.194898 12.30846 21.222522 12.328125 21.242188 C 12.3474 21.261462 12.373906 21.269596 12.394531 21.287109 C 12.412045 21.307735 12.420178 21.334241 12.439453 21.353516 C 12.458728 21.37279 12.485234 21.380924 12.505859 21.398438 C 12.523373 21.419063 12.531507 21.445569 12.550781 21.464844 C 12.569795 21.483858 12.596858 21.490512 12.617188 21.507812 C 12.634488 21.528142 12.641143 21.555205 12.660156 21.574219 C 12.67917 21.593232 12.706233 21.599887 12.726562 21.617188 C 12.743863 21.637517 12.750518 21.66458 12.769531 21.683594 C 12.788545 21.702607 12.815608 21.709262 12.835938 21.726562 C 12.853238 21.746892 12.859893 21.773955 12.878906 21.792969 C 12.89753 21.811592 12.923473 21.818958 12.943359 21.835938 C 12.960339 21.855824 12.967705 21.881767 12.986328 21.900391 C 13.004952 21.919014 13.030895 21.92638 13.050781 21.943359 C 13.067761 21.963246 13.075127 21.989189 13.09375 22.007812 C 13.112373 22.026436 13.138317 22.033801 13.158203 22.050781 C 13.175183 22.070668 13.182549 22.096611 13.201172 22.115234 C 13.219405 22.133467 13.244227 22.141545 13.263672 22.158203 C 13.28033 22.177648 13.288408 22.20247 13.306641 22.220703 C 13.324874 22.238936 13.349696 22.247014 13.369141 22.263672 C 13.385799 22.283117 13.393876 22.307939 13.412109 22.326172 C 13.430081 22.344144 13.455459 22.350745 13.474609 22.367188 C 13.491052 22.386338 13.497653 22.411716 13.515625 22.429688 C 13.533597 22.44766 13.558975 22.454261 13.578125 22.470703 C 13.594567 22.489853 13.601169 22.515231 13.619141 22.533203 C 13.637113 22.551175 13.662491 22.557777 13.681641 22.574219 C 13.698083 22.593369 13.704684 22.618747 13.722656 22.636719 C 13.740238 22.6543 13.764493 22.661616 13.783203 22.677734 C 13.799321 22.696444 13.806637 22.7207 13.824219 22.738281 C 13.8418 22.755863 13.866055 22.763179 13.884766 22.779297 C 13.900884 22.798007 13.9082 22.822262 13.925781 22.839844 C 13.942712 22.856774 13.966397 22.863333 13.984375 22.878906 C 14.000756 22.897973 14.007493 22.923508 14.025391 22.941406 C 14.043288 22.959304 14.068824 22.966041 14.087891 22.982422 C 14.103464 23.0004 14.110023 23.024085 14.126953 23.041016 C 14.143884 23.057946 14.167569 23.064504 14.185547 23.080078 C 14.201121 23.098056 14.207679 23.121742 14.224609 23.138672 C 14.24193 23.155993 14.26674 23.161834 14.285156 23.177734 C 14.301057 23.196151 14.306898 23.220961 14.324219 23.238281 C 14.341149 23.255212 14.364834 23.26177 14.382812 23.277344 C 14.398386 23.295322 14.404945 23.319007 14.421875 23.335938 C 14.438415 23.352477 14.460974 23.359754 14.478516 23.375 C 14.493761 23.392541 14.501038 23.415101 14.517578 23.431641 C 14.534508 23.448571 14.558194 23.455129 14.576172 23.470703 C 14.591746 23.488681 14.598304 23.512366 14.615234 23.529297 C 14.631123 23.545185 14.653108 23.551711 14.669922 23.566406 C 14.685437 23.584306 14.692124 23.60814 14.708984 23.625 C 14.725845 23.64186 14.749679 23.648548 14.767578 23.664062 C 14.782273 23.680876 14.788799 23.702861 14.804688 23.71875 C 14.820967 23.735029 14.844079 23.740834 14.861328 23.755859 C 14.876354 23.773109 14.882158 23.796221 14.898438 23.8125 C 14.914716 23.828779 14.937829 23.834584 14.955078 23.849609 C 14.970103 23.866859 14.975909 23.889971 14.992188 23.90625 C 15.008076 23.922139 15.030061 23.928665 15.046875 23.943359 C 15.06157 23.960173 15.068096 23.982158 15.083984 23.998047 C 15.099873 24.013936 15.121858 24.020461 15.138672 24.035156 C 15.153367 24.05197 15.159893 24.073955 15.175781 24.089844 C 15.19167 24.105732 15.213655 24.112258 15.230469 24.126953 C 15.245164 24.143767 15.25169 24.165752 15.267578 24.181641 C 15.283206 24.197268 15.305742 24.202324 15.322266 24.216797 C 15.336739 24.23332 15.341794 24.255857 15.357422 24.271484 C 15.373049 24.287112 15.395586 24.292168 15.412109 24.306641 C 15.426582 24.323164 15.431638 24.345701 15.447266 24.361328 C 15.462503 24.376565 15.483911 24.382344 15.5 24.396484 C 15.51414 24.412574 15.519919 24.433981 15.535156 24.449219 C 15.550394 24.464456 15.571801 24.470235 15.587891 24.484375 C 15.60203 24.500465 15.60781 24.521872 15.623047 24.537109 C 15.638284 24.552347 15.659692 24.558126 15.675781 24.572266 C 15.689921 24.588355 15.6957 24.609763 15.710938 24.625 C 15.725785 24.639847 15.746062 24.646351 15.761719 24.660156 C 15.775524 24.675813 15.782028 24.69609 15.796875 24.710938 C 15.811722 24.725784 15.831999 24.732288 15.847656 24.746094 C 15.861462 24.761751 15.867966 24.782028 15.882812 24.796875 C 15.897008 24.811071 15.916704 24.816834 15.931641 24.830078 C 15.945726 24.846097 15.951623 24.867638 15.966797 24.882812 C 15.981971 24.897987 16.003512 24.903883 16.019531 24.917969 C 16.032775 24.932906 16.038539 24.952601 16.052734 24.966797 C 16.06693 24.980992 16.086625 24.986756 16.101562 25 C 16.114806 25.014937 16.12057 25.034633 16.134766 25.048828 C 16.149291 25.063354 16.170245 25.068502 16.185547 25.082031 C 16.199128 25.097399 16.204164 25.118227 16.21875 25.132812 C 16.232946 25.147008 16.252641 25.152772 16.267578 25.166016 C 16.280822 25.180953 16.286586 25.200648 16.300781 25.214844 C 16.314325 25.228388 16.333436 25.233416 16.347656 25.246094 C 16.361185 25.261395 16.366334 25.282349 16.380859 25.296875 C 16.395385 25.311401 16.416339 25.316549 16.431641 25.330078 C 16.444319 25.344298 16.449346 25.363409 16.462891 25.376953 C 16.476825 25.390888 16.497069 25.395185 16.511719 25.408203 C 16.524736 25.422853 16.529034 25.443097 16.542969 25.457031 C 16.556513 25.470575 16.575624 25.475603 16.589844 25.488281 C 16.602522 25.502502 16.60755 25.521612 16.621094 25.535156 C 16.634638 25.5487 16.653748 25.553728 16.667969 25.566406 C 16.680647 25.580627 16.685674 25.599737 16.699219 25.613281 C 16.712763 25.626825 16.731874 25.631853 16.746094 25.644531 C 16.758772 25.658752 16.7638 25.677862 16.777344 25.691406 C 16.790498 25.70456 16.808474 25.710319 16.822266 25.722656 C 16.834603 25.736448 16.840362 25.754424 16.853516 25.767578 C 16.86667 25.780732 16.884645 25.786491 16.898438 25.798828 C 16.910775 25.81262 16.916534 25.830596 16.929688 25.84375 C 16.942841 25.856904 16.960817 25.862663 16.974609 25.875 C 16.986947 25.888792 16.992705 25.906768 17.005859 25.919922 C 17.018752 25.932815 17.037275 25.93711 17.050781 25.949219 C 17.06289 25.962725 17.067185 25.981248 17.080078 25.994141 C 17.092971 26.007034 17.111494 26.011329 17.125 26.023438 C 17.137109 26.036944 17.141404 26.055466 17.154297 26.068359 C 17.166799 26.080862 17.184186 26.085891 17.197266 26.097656 C 17.209031 26.110736 17.21406 26.128122 17.226562 26.140625 C 17.239065 26.153128 17.256451 26.158157 17.269531 26.169922 C 17.281296 26.183002 17.286326 26.200388 17.298828 26.212891 C 17.311331 26.225393 17.328717 26.230422 17.341797 26.242188 C 17.353562 26.255267 17.358591 26.272654 17.371094 26.285156 C 17.383335 26.297398 17.401267 26.300965 17.414062 26.3125 C 17.425597 26.325295 17.429165 26.343227 17.441406 26.355469 C 17.453648 26.36771 17.47158 26.371278 17.484375 26.382812 C 17.49591 26.395608 17.499477 26.41354 17.511719 26.425781 C 17.52396 26.438023 17.541892 26.44159 17.554688 26.453125 C 17.566222 26.46592 17.56979 26.483852 17.582031 26.496094 C 17.593883 26.507945 17.610676 26.512249 17.623047 26.523438 C 17.634236 26.535808 17.638539 26.552602 17.650391 26.564453 C 17.662242 26.576304 17.679035 26.580608 17.691406 26.591797 C 17.702595 26.604168 17.706899 26.620961 17.71875 26.632812 C 17.730211 26.644273 17.745865 26.649314 17.757812 26.660156 C 17.768654 26.672103 17.773695 26.687758 17.785156 26.699219 C 17.796617 26.71068 17.812272 26.715721 17.824219 26.726562 C 17.835061 26.73851 17.840102 26.754164 17.851562 26.765625 C 17.863023 26.777086 17.878678 26.782127 17.890625 26.792969 C 17.901467 26.804916 17.906508 26.82057 17.917969 26.832031 C 17.929169 26.843231 17.945367 26.846813 17.957031 26.857422 C 17.96764 26.869086 17.971222 26.885285 17.982422 26.896484 C 17.993622 26.907684 18.00982 26.911266 18.021484 26.921875 C 18.032093 26.93354 18.035675 26.949738 18.046875 26.960938 C 18.058075 26.972137 18.074273 26.975719 18.085938 26.986328 C 18.096546 26.997993 18.100128 27.014191 18.111328 27.025391 C 18.122138 27.0362 18.137195 27.040522 18.148438 27.050781 C 18.158697 27.062024 18.163019 27.077081 18.173828 27.087891 C 18.184377 27.098439 18.199976 27.101304 18.210938 27.111328 C 18.220962 27.122289 18.223826 27.137889 18.234375 27.148438 C 18.245185 27.159247 18.260242 27.163569 18.271484 27.173828 C 18.281743 27.185071 18.286065 27.200128 18.296875 27.210938 C 18.307424 27.221486 18.323023 27.224351 18.333984 27.234375 C 18.344009 27.245336 18.346873 27.260936 18.357422 27.271484 C 18.36758 27.281643 18.382037 27.28525 18.392578 27.294922 C 18.40225 27.305463 18.405857 27.31992 18.416016 27.330078 C 18.426564 27.340627 18.442164 27.343491 18.453125 27.353516 C 18.463149 27.364477 18.466014 27.380076 18.476562 27.390625 C 18.485679 27.399742 18.498387 27.403384 18.507812 27.412109 C 18.518031 27.423303 18.522439 27.438454 18.533203 27.449219 C 18.543739 27.459754 18.559365 27.462644 18.570312 27.472656 C 18.579394 27.482499 18.58229 27.496353 18.591797 27.505859 C 18.601565 27.515627 18.614877 27.519978 18.625 27.529297 C 18.634319 27.539419 18.63867 27.552732 18.648438 27.5625 C 18.658205 27.572268 18.671518 27.576619 18.681641 27.585938 C 18.690959 27.59606 18.69531 27.609373 18.705078 27.619141 C 18.714585 27.628648 18.728438 27.631544 18.738281 27.640625 C 18.747363 27.650468 18.750259 27.664321 18.759766 27.673828 C 18.769273 27.683335 18.783126 27.686231 18.792969 27.695312 C 18.80205 27.705156 18.804946 27.719009 18.814453 27.728516 C 18.82396 27.738022 18.837813 27.740919 18.847656 27.75 C 18.856702 27.759801 18.859673 27.773735 18.869141 27.783203 C 18.878257 27.79232 18.890965 27.795962 18.900391 27.804688 C 18.909116 27.814113 18.912759 27.826821 18.921875 27.835938 C 18.93034 27.844403 18.94244 27.847341 18.951172 27.855469 C 18.960242 27.865298 18.963162 27.879178 18.972656 27.888672 C 18.982383 27.898398 18.995781 27.902828 19.005859 27.912109 C 19.013628 27.920428 19.017316 27.931378 19.025391 27.939453 C 19.034246 27.948309 19.047493 27.950498 19.056641 27.958984 C 19.065127 27.968132 19.067316 27.981379 19.076172 27.990234 C 19.085027 27.99909 19.098274 28.001279 19.107422 28.009766 C 19.115908 28.018913 19.118098 28.03216 19.126953 28.041016 C 19.135418 28.049481 19.147518 28.052419 19.15625 28.060547 C 19.164378 28.069279 19.167316 28.081379 19.175781 28.089844 C 19.184246 28.098309 19.196346 28.101247 19.205078 28.109375 C 19.213206 28.118107 19.216144 28.130207 19.224609 28.138672 C 19.232684 28.146747 19.243635 28.150435 19.251953 28.158203 C 19.259721 28.166521 19.26341 28.177472 19.271484 28.185547 C 19.278908 28.19297 19.289246 28.19596 19.296875 28.203125 C 19.305566 28.21251 19.309281 28.225297 19.318359 28.234375 C 19.327179 28.243194 19.3405 28.245453 19.349609 28.253906 C 19.356531 28.261261 19.358072 28.272134 19.365234 28.279297 C 19.373309 28.287372 19.38426 28.29106 19.392578 28.298828 C 19.400346 28.307146 19.404035 28.318097 19.412109 28.326172 C 19.419923 28.333986 19.431411 28.336223 19.439453 28.34375 C 19.44698 28.351792 19.449217 28.36328 19.457031 28.371094 C 19.464455 28.378517 19.474792 28.381507 19.482422 28.388672 C 19.489586 28.396301 19.492576 28.406639 19.5 28.414062 C 19.506772 28.420835 19.516494 28.423131 19.523438 28.429688 C 19.531533 28.438383 19.534539 28.450554 19.542969 28.458984 C 19.551009 28.467025 19.562031 28.470779 19.570312 28.478516 C 19.576503 28.48505 19.579556 28.493618 19.585938 28.5 C 19.593361 28.507423 19.603699 28.510414 19.611328 28.517578 C 19.618493 28.525208 19.621483 28.535545 19.628906 28.542969 C 19.636069 28.550131 19.646943 28.551672 19.654297 28.558594 C 19.661218 28.565948 19.662759 28.576822 19.669922 28.583984 C 19.677084 28.591147 19.687958 28.592688 19.695312 28.599609 C 19.702234 28.606964 19.703775 28.617838 19.710938 28.625 C 19.71771 28.631772 19.727431 28.634068 19.734375 28.640625 C 19.740932 28.647569 19.743228 28.65729 19.75 28.664062 C 19.756772 28.670835 19.766494 28.673131 19.773438 28.679688 C 19.779994 28.686631 19.78229 28.696353 19.789062 28.703125 C 19.795835 28.709897 19.805556 28.712193 19.8125 28.71875 C 19.819057 28.725694 19.821353 28.735415 19.828125 28.742188 C 19.834507 28.748569 19.843075 28.751622 19.849609 28.757812 C 19.8558 28.764347 19.858853 28.772915 19.865234 28.779297 C 19.871616 28.785679 19.880184 28.788731 19.886719 28.794922 C 19.892909 28.801456 19.895962 28.810024 19.902344 28.816406 C 19.908465 28.822527 19.917567 28.824133 19.923828 28.830078 C 19.929773 28.836339 19.931379 28.845442 19.9375 28.851562 C 19.943621 28.857683 19.952723 28.859289 19.958984 28.865234 C 19.964929 28.871496 19.966535 28.880598 19.972656 28.886719 C 19.978777 28.89284 19.987879 28.894446 19.994141 28.900391 C 20.000086 28.906652 20.001692 28.915754 20.007812 28.921875 C 20.013543 28.927605 20.02149 28.929971 20.027344 28.935547 C 20.03292 28.9414 20.035285 28.949348 20.041016 28.955078 C 20.046746 28.960809 20.054693 28.963174 20.060547 28.96875 C 20.066123 28.974604 20.068488 28.982551 20.074219 28.988281 C 20.078908 28.99297 20.085072 28.995414 20.089844 29 C 20.096009 29.006506 20.099114 29.01513 20.105469 29.021484 C 20.111823 29.027839 20.120447 29.030944 20.126953 29.037109 C 20.131539 29.041881 20.133983 29.048046 20.138672 29.052734 C 20.143751 29.057813 20.151074 29.059495 20.15625 29.064453 C 20.161208 29.069629 20.16289 29.076952 20.167969 29.082031 C 20.173416 29.087479 20.181941 29.088442 20.1875 29.09375 C 20.192829 29.099332 20.193749 29.107812 20.199219 29.113281 C 20.204298 29.11836 20.211621 29.120042 20.216797 29.125 C 20.221755 29.130176 20.223437 29.137499 20.228516 29.142578 C 20.232553 29.146616 20.238089 29.148383 20.242188 29.152344 C 20.247741 29.158172 20.250153 29.166169 20.255859 29.171875 C 20.261566 29.177581 20.269562 29.179993 20.275391 29.185547 C 20.279352 29.189646 20.281119 29.195181 20.285156 29.199219 C 20.289845 29.203908 20.29601 29.206352 20.300781 29.210938 C 20.305367 29.215709 20.307811 29.221874 20.3125 29.226562 C 20.316928 29.23099 20.323623 29.231992 20.328125 29.236328 C 20.332461 29.24083 20.333463 29.247525 20.337891 29.251953 C 20.342318 29.256381 20.349014 29.257383 20.353516 29.261719 C 20.357851 29.26622 20.358854 29.272916 20.363281 29.277344 C 20.367709 29.281772 20.374405 29.282774 20.378906 29.287109 C 20.383242 29.291611 20.384244 29.298307 20.388672 29.302734 C 20.392709 29.306772 20.398245 29.308539 20.402344 29.3125 C 20.406305 29.316599 20.408072 29.322134 20.412109 29.326172 C 20.416147 29.330209 20.421682 29.331976 20.425781 29.335938 C 20.429742 29.340036 20.431509 29.345572 20.435547 29.349609 C 20.439584 29.353647 20.44512 29.355414 20.449219 29.359375 C 20.45318 29.363474 20.454947 29.369009 20.458984 29.373047 C 20.462761 29.376823 20.468826 29.37715 20.472656 29.380859 C 20.476366 29.38469 20.476692 29.390755 20.480469 29.394531 C 20.484245 29.398308 20.49031 29.398634 20.494141 29.402344 C 20.49785 29.406174 20.498177 29.412239 20.501953 29.416016 C 20.505339 29.419402 20.510243 29.420496 20.513672 29.423828 C 20.517004 29.427257 20.518098 29.432161 20.521484 29.435547 C 20.524219 29.438282 20.528487 29.438707 20.53125 29.441406 C 20.535569 29.445889 20.536606 29.452622 20.541016 29.457031 C 20.545036 29.461052 20.550606 29.462852 20.554688 29.466797 C 20.557006 29.469162 20.558202 29.472265 20.560547 29.474609 C 20.562891 29.476954 20.565994 29.47815 20.568359 29.480469 C 20.572304 29.48455 20.574105 29.49012 20.578125 29.494141 C 20.581886 29.497902 20.587982 29.498258 20.591797 29.501953 C 20.59386 29.504053 20.59362 29.507682 20.595703 29.509766 C 20.598699 29.512761 20.602439 29.514624 20.605469 29.517578 C 20.608422 29.520608 20.610286 29.524348 20.613281 29.527344 C 20.616016 29.530078 20.620284 29.530503 20.623047 29.533203 C 20.625747 29.535966 20.626172 29.540234 20.628906 29.542969 C 20.631641 29.545703 20.635909 29.546128 20.638672 29.548828 C 20.641372 29.551591 20.641797 29.555859 20.644531 29.558594 C 20.646876 29.560938 20.649979 29.562134 20.652344 29.564453 C 20.654662 29.566818 20.655859 29.569921 20.658203 29.572266 C 20.660548 29.57461 20.66365 29.575806 20.666016 29.578125 C 20.668334 29.58049 20.669531 29.583593 20.671875 29.585938 C 20.674219 29.588282 20.677322 29.589478 20.679688 29.591797 C 20.682006 29.594162 20.683202 29.597265 20.685547 29.599609 C 20.68763 29.601693 20.69126 29.601453 20.693359 29.603516 C 20.695422 29.605615 20.695182 29.609245 20.697266 29.611328 C 20.699349 29.613411 20.702978 29.613171 20.705078 29.615234 C 20.707141 29.617334 20.706901 29.620964 20.708984 29.623047 C 20.711068 29.62513 20.714697 29.62489 20.716797 29.626953 C 20.71886 29.629053 20.71862 29.632682 20.720703 29.634766 C 20.722396 29.636459 20.724859 29.636992 20.726562 29.638672 C 20.728242 29.640376 20.728776 29.642838 20.730469 29.644531 C 20.732162 29.646224 20.734624 29.646758 20.736328 29.648438 C 20.738008 29.650141 20.738541 29.652604 20.740234 29.654297 C 20.741537 29.6556 20.742831 29.656908 20.744141 29.658203 C 20.745435 29.659512 20.746744 29.660807 20.748047 29.662109 C 20.74935 29.663412 20.750644 29.664721 20.751953 29.666016 C 20.753248 29.667325 20.754557 29.668619 20.755859 29.669922 C 20.757162 29.671225 20.758456 29.672533 20.759766 29.673828 C 20.76106 29.675137 20.762369 29.676432 20.763672 29.677734 C 20.764714 29.678776 20.766532 29.678651 20.767578 29.679688 C 20.768615 29.680733 20.76849 29.682552 20.769531 29.683594 C 20.770573 29.684635 20.772392 29.68451 20.773438 29.685547 C 20.774474 29.686593 20.774349 29.688411 20.775391 29.689453 C 20.775391 29.689453 20.777344 29.691406 20.777344 29.691406 C 20.777344 29.691406 20.779297 29.693359 20.779297 29.693359 C 20.779297 29.693359 20.78125 29.695312 20.78125 29.695312 C 20.78125 29.695312 20.783203 29.697266 20.783203 29.697266 C 20.783203 29.697266 20.785156 29.699219 20.785156 29.699219 C 20.785156 29.699219 20.787109 29.701172 20.787109 29.701172 C 20.787109 29.701172 20.789062 29.701172 20.789062 29.701172 C 20.789062 29.701172 20.789062 29.703125 20.789062 29.703125 C 20.790357 29.704434 20.791666 29.705729 20.792969 29.707031 C 20.885434 29.799497 20.995036 29.87019 21.113281 29.919922 C 21.113281 29.919922 21.115234 29.921875 21.115234 29.921875 C 21.236116 29.97233 21.36647 30 21.5 30 L 28.5 30 C 28.765216 30 29.019494 29.894567 29.207031 29.707031 C 29.394567 29.519494 29.5 29.265216 29.5 29 L 29.5 22 C 29.5 21.888973 29.468763 21.787041 29.435547 21.6875 C 29.427078 21.662121 29.430321 21.631835 29.419922 21.607422 C 29.419922 21.607422 29.417969 21.605469 29.417969 21.605469 C 29.417969 21.605469 29.416016 21.603516 29.416016 21.603516 C 29.365638 21.485617 29.294178 21.38029 29.205078 21.291016 C 29.204693 21.290632 29.203511 21.291399 29.203125 21.291016 C 29.203125 21.291016 29.203125 21.289062 29.203125 21.289062 C 29.201086 21.287013 29.199322 21.285235 29.197266 21.283203 C 29.197266 21.283203 29.195312 21.28125 29.195312 21.28125 C 29.195312 21.28125 29.193359 21.279297 29.193359 21.279297 C 29.192338 21.278279 29.190479 21.278358 29.189453 21.277344 C 29.187415 21.275295 29.18565 21.273516 29.183594 21.271484 C 29.181551 21.269432 29.179794 21.26766 29.177734 21.265625 C 29.176727 21.264592 29.176793 21.262747 29.175781 21.261719 C 29.175781 21.261719 29.173828 21.261719 29.173828 21.261719 C 29.170531 21.258376 29.169359 21.253296 29.166016 21.25 C 29.162448 21.246406 29.155965 21.241821 29.152344 21.238281 C 29.150677 21.236621 29.148162 21.236024 29.146484 21.234375 C 29.143173 21.231028 29.140077 21.227909 29.136719 21.224609 C 29.133407 21.221262 29.130311 21.218144 29.126953 21.214844 C 29.123267 21.211118 29.118978 21.208745 29.115234 21.205078 C 29.111175 21.200962 29.107646 21.197405 29.103516 21.193359 C 29.0992 21.188984 29.096192 21.183983 29.091797 21.179688 C 29.087239 21.175056 29.082772 21.170558 29.078125 21.166016 C 29.07419 21.162018 29.070407 21.158228 29.066406 21.154297 C 29.059843 21.147571 29.053623 21.141304 29.046875 21.134766 C 29.043189 21.13104 29.0389 21.128667 29.035156 21.125 C 29.02785 21.117488 29.021209 21.110795 29.013672 21.103516 C 29.00873 21.098505 29.005046 21.092796 29 21.087891 C 28.994183 21.081948 28.988384 21.076108 28.982422 21.070312 C 28.976222 21.063979 28.969255 21.058902 28.962891 21.052734 C 28.956328 21.046008 28.950108 21.039742 28.943359 21.033203 C 28.937437 21.027133 28.931855 21.021543 28.925781 21.015625 C 28.917238 21.006793 28.909251 20.998746 28.900391 20.990234 C 28.894819 20.984554 28.89047 20.978202 28.884766 20.972656 C 28.875727 20.963292 28.866816 20.954317 28.857422 20.945312 C 28.85059 20.938333 28.842969 20.932558 28.835938 20.925781 C 28.828757 20.918381 28.821857 20.911472 28.814453 20.904297 C 28.804679 20.894139 28.795347 20.884737 28.785156 20.875 C 28.777582 20.867237 28.76954 20.861029 28.761719 20.853516 C 28.752918 20.844417 28.745465 20.834931 28.736328 20.826172 C 28.727289 20.816808 28.718379 20.807833 28.708984 20.798828 C 28.699926 20.789444 28.691056 20.780508 28.681641 20.771484 C 28.672225 20.76173 28.662145 20.753505 28.652344 20.744141 C 28.642549 20.733961 28.63326 20.724601 28.623047 20.714844 C 28.613252 20.704664 28.603964 20.695304 28.59375 20.685547 C 28.583616 20.675015 28.573082 20.666329 28.5625 20.65625 C 28.552369 20.645687 28.543784 20.63511 28.533203 20.625 C 28.523207 20.614555 28.514342 20.603753 28.503906 20.59375 C 28.491693 20.580919 28.479669 20.568807 28.466797 20.556641 C 28.456375 20.545842 28.444488 20.537664 28.433594 20.527344 C 28.422219 20.51542 28.412336 20.503537 28.400391 20.492188 C 28.389638 20.48095 28.378448 20.471663 28.367188 20.460938 C 28.353901 20.446889 28.342197 20.433179 28.328125 20.419922 C 28.316502 20.407777 28.305184 20.396311 28.292969 20.384766 C 28.280729 20.371907 28.268761 20.359848 28.255859 20.347656 C 28.24427 20.335481 28.232886 20.324077 28.220703 20.3125 C 28.207182 20.298172 28.194024 20.284991 28.179688 20.271484 C 28.165754 20.256799 28.151511 20.244285 28.136719 20.230469 C 28.124993 20.218177 28.113894 20.206993 28.101562 20.195312 C 28.086455 20.179251 28.072769 20.163468 28.056641 20.148438 C 28.043651 20.134791 28.029359 20.124222 28.015625 20.111328 C 28.008806 20.104118 28.007028 20.092942 28 20.085938 L 28 20 L 27.998047 20 L 27.998047 19.998047 L 27.996094 19.998047 L 27.996094 19.996094 L 27.994141 19.996094 L 27.994141 19.994141 L 27.990234 19.994141 L 27.990234 19.990234 L 27.986328 19.990234 L 27.986328 19.986328 L 27.982422 19.986328 L 27.982422 19.982422 L 27.976562 19.982422 L 27.976562 19.976562 L 27.970703 19.976562 L 27.970703 19.970703 L 27.962891 19.970703 L 27.962891 19.962891 L 27.955078 19.962891 L 27.955078 19.955078 L 27.947266 19.955078 L 27.947266 19.947266 L 27.9375 19.947266 L 27.9375 19.9375 L 27.927734 19.9375 L 27.927734 19.927734 L 27.916016 19.927734 L 27.916016 19.916016 L 27.904297 19.916016 L 27.904297 19.904297 L 27.892578 19.904297 L 27.892578 19.892578 L 27.878906 19.892578 L 27.878906 19.878906 L 27.865234 19.878906 L 27.865234 19.865234 L 27.851562 19.865234 L 27.851562 19.851562 L 27.835938 19.851562 L 27.835938 19.835938 L 27.820312 19.835938 L 27.820312 19.820312 L 27.802734 19.820312 L 27.802734 19.802734 L 27.785156 19.802734 L 27.785156 19.787109 L 27.767578 19.787109 L 27.767578 19.767578 L 27.748047 19.767578 L 27.748047 19.748047 L 27.728516 19.748047 L 27.728516 19.728516 L 27.708984 19.728516 L 27.708984 19.708984 L 27.6875 19.708984 L 27.6875 19.6875 L 27.666016 19.6875 L 27.666016 19.666016 L 27.642578 19.666016 L 27.642578 19.642578 L 27.619141 19.642578 L 27.619141 19.619141 L 27.595703 19.619141 L 27.595703 19.595703 L 27.570312 19.595703 L 27.570312 19.570312 L 27.544922 19.570312 L 27.544922 19.544922 L 27.519531 19.544922 L 27.519531 19.519531 L 27.492188 19.519531 L 27.492188 19.492188 L 27.462891 19.492188 L 27.462891 19.464844 L 27.435547 19.464844 L 27.435547 19.435547 L 27.40625 19.435547 L 27.40625 19.40625 L 27.375 19.40625 L 27.375 19.375 L 27.345703 19.375 L 27.345703 19.345703 L 27.314453 19.345703 L 27.314453 19.314453 L 27.28125 19.314453 L 27.28125 19.28125 L 27.248047 19.28125 L 27.248047 19.248047 L 27.214844 19.248047 L 27.214844 19.214844 L 27.179688 19.214844 L 27.179688 19.179688 L 27.144531 19.179688 L 27.144531 19.144531 L 27.109375 19.144531 L 27.109375 19.109375 L 27.072266 19.109375 L 27.072266 19.072266 L 27.035156 19.072266 L 27.035156 19.035156 L 26.996094 19.035156 L 26.996094 18.996094 L 26.957031 18.996094 L 26.957031 18.957031 L 26.917969 18.957031 L 26.917969 18.917969 L 26.876953 18.917969 L 26.876953 18.876953 L 26.835938 18.876953 L 26.835938 18.835938 L 26.792969 18.835938 L 26.792969 18.792969 L 26.751953 18.792969 L 26.751953 18.751953 L 26.707031 18.751953 L 26.707031 18.707031 L 26.664062 18.707031 L 26.664062 18.664062 L 26.619141 18.664062 L 26.619141 18.619141 L 26.572266 18.619141 L 26.572266 18.572266 L 26.527344 18.572266 L 26.527344 18.527344 L 26.478516 18.527344 L 26.478516 18.478516 L 26.431641 18.478516 L 26.431641 18.431641 L 26.382812 18.431641 L 26.382812 18.382812 L 26.333984 18.382812 L 26.333984 18.333984 L 26.283203 18.333984 L 26.283203 18.283203 L 26.232422 18.283203 L 26.232422 18.232422 L 26.181641 18.232422 L 26.181641 18.181641 L 26.128906 18.181641 L 26.128906 18.128906 L 26.076172 18.128906 L 26.076172 18.076172 L 26.021484 18.076172 L 26.021484 18.021484 L 25.966797 18.021484 L 25.966797 17.966797 L 25.912109 17.966797 L 25.912109 17.912109 L 25.855469 17.912109 L 25.855469 17.855469 L 25.798828 17.855469 L 25.798828 17.798828 L 25.740234 17.798828 L 25.740234 17.740234 L 25.683594 17.740234 L 25.683594 17.683594 L 25.623047 17.683594 L 25.623047 17.623047 L 25.564453 17.623047 L 25.564453 17.564453 L 25.503906 17.564453 L 25.503906 17.503906 L 25.441406 17.503906 L 25.441406 17.441406 L 25.380859 17.441406 L 25.380859 17.380859 L 25.318359 17.380859 L 25.318359 17.318359 L 25.253906 17.318359 L 25.253906 17.253906 L 25.189453 17.253906 L 25.189453 17.189453 L 25.125 17.189453 L 25.125 17.125 L 25.058594 17.125 L 25.058594 17.058594 L 24.992188 17.058594 L 24.992188 16.992188 L 24.925781 16.992188 L 24.925781 16.925781 L 24.857422 16.925781 L 24.857422 16.857422 L 24.789062 16.857422 L 24.789062 16.789062 L 24.71875 16.789062 L 24.71875 16.71875 L 24.648438 16.71875 L 24.648438 16.648438 L 24.578125 16.648438 L 24.578125 16.578125 L 24.505859 16.578125 L 24.505859 16.505859 L 24.433594 16.505859 L 24.433594 16.433594 L 24.361328 16.433594 L 24.361328 16.361328 L 24.287109 16.361328 L 24.287109 16.287109 L 24.212891 16.287109 L 24.212891 16.212891 L 24.136719 16.212891 L 24.136719 16.136719 L 24.060547 16.136719 L 24.060547 16.060547 L 23.984375 16.060547 L 23.984375 15.984375 L 23.90625 15.984375 L 23.90625 15.90625 L 23.828125 15.90625 L 23.828125 15.828125 L 23.75 15.828125 L 23.75 15.75 L 23.669922 15.75 L 23.669922 15.669922 L 23.587891 15.669922 L 23.587891 15.587891 L 23.507812 15.587891 L 23.507812 15.507812 L 23.425781 15.507812 L 23.425781 15.425781 L 23.341797 15.425781 L 23.341797 15.341797 L 23.259766 15.341797 L 23.259766 15.259766 L 23.175781 15.259766 L 23.175781 15.175781 L 23.089844 15.175781 L 23.089844 15.089844 L 23.003906 15.089844 L 23.003906 15.003906 L 22.917969 15.003906 L 22.917969 14.917969 L 22.830078 14.917969 L 22.830078 14.830078 L 22.742188 14.830078 L 22.742188 14.742188 L 22.654297 14.742188 L 22.654297 14.654297 L 22.564453 14.654297 L 22.564453 14.564453 L 22.474609 14.564453 L 22.474609 14.474609 L 22.382812 14.474609 L 22.382812 14.382812 L 22.291016 14.382812 L 22.291016 14.291016 L 22.199219 14.291016 L 22.199219 14.199219 L 22.105469 14.199219 L 22.105469 14.105469 L 22.011719 14.105469 L 22.011719 14.011719 L 21.923828 14.011719 C 21.921509 14.00944 21.918357 14.008116 21.916016 14.005859 L 21.916016 13.916016 L 21.828125 13.916016 C 21.826475 13.914348 21.823927 13.909859 21.822266 13.908203 L 21.822266 13.822266 L 21.732422 13.822266 C 21.729169 13.818885 21.727909 13.813882 21.724609 13.810547 L 21.724609 13.724609 L 21.630859 13.724609 C 21.630859 13.724609 21.628906 13.722656 21.628906 13.722656 L 21.628906 13.628906 L 21.53125 13.628906 L 21.53125 13.53125 L 21.431641 13.53125 L 21.431641 13.431641 L 21.333984 13.431641 L 21.333984 13.333984 L 21.234375 13.333984 L 21.234375 13.234375 L 21.132812 13.234375 L 21.132812 13.132812 L 21.033203 13.132812 C 21.033203 13.132812 21.03125 13.130859 21.03125 13.130859 L 21.03125 13.03125 L 20.935547 13.03125 C 20.933821 13.029638 20.931425 13.028943 20.929688 13.027344 L 20.929688 12.929688 L 20.839844 12.929688 C 20.835796 12.925766 20.830285 12.923775 20.826172 12.919922 L 20.826172 12.826172 L 20.740234 12.826172 C 20.735236 12.821191 20.727758 12.819328 20.722656 12.814453 L 20.722656 12.722656 L 20.634766 12.722656 C 20.629822 12.717632 20.624189 12.713903 20.619141 12.708984 L 20.619141 12.619141 L 20.527344 12.619141 C 20.522444 12.614047 20.518677 12.604598 20.513672 12.599609 L 20.513672 12.513672 L 20.419922 12.513672 C 20.415472 12.508931 20.412743 12.5027 20.408203 12.498047 L 20.408203 12.408203 L 20.3125 12.408203 C 20.307741 12.403016 20.305648 12.39571 20.300781 12.390625 L 20.300781 12.300781 L 20.199219 12.300781 C 20.196682 12.297968 20.195928 12.293799 20.193359 12.291016 L 20.193359 12.193359 L 20.089844 12.193359 C 20.088283 12.191593 20.087511 12.189255 20.085938 12.1875 L 20.085938 12.085938 L 19.978516 12.085938 C 19.977571 12.084845 19.977512 12.08312 19.976562 12.082031 L 19.976562 11.976562 L 19.869141 11.976562 C 19.869141 11.976562 19.867188 11.974609 19.867188 11.974609 L 19.867188 11.867188 L 19.763672 11.867188 C 19.761901 11.865649 19.759594 11.864808 19.757812 11.863281 L 19.757812 11.757812 L 19.658203 11.757812 C 19.654703 11.754668 19.650029 11.753095 19.646484 11.75 L 19.646484 11.646484 L 19.550781 11.646484 C 19.546262 11.642309 19.539752 11.640811 19.535156 11.636719 L 19.535156 11.535156 L 19.441406 11.535156 C 19.435642 11.529696 19.427767 11.526807 19.421875 11.521484 L 19.421875 11.421875 L 19.332031 11.421875 C 19.325312 11.415329 19.315494 11.412606 19.308594 11.40625 L 19.308594 11.308594 L 19.222656 11.308594 C 19.222656 11.308594 19.220703 11.306641 19.220703 11.306641 C 19.213419 11.299381 19.202816 11.296095 19.195312 11.289062 L 19.195312 11.195312 L 19.105469 11.195312 C 19.097263 11.186903 19.088573 11.179991 19.080078 11.171875 L 19.080078 11.080078 L 18.988281 11.080078 C 18.98015 11.071582 18.973266 11.062892 18.964844 11.054688 L 18.964844 10.964844 L 18.869141 10.964844 C 18.860728 10.9559 18.856389 10.944175 18.847656 10.935547 L 18.847656 10.847656 L 18.75 10.847656 C 18.742045 10.839033 18.738719 10.826697 18.730469 10.818359 L 18.730469 10.730469 L 18.630859 10.730469 C 18.623955 10.722837 18.620414 10.712492 18.613281 10.705078 L 18.613281 10.613281 L 18.509766 10.613281 C 18.504105 10.606912 18.501913 10.598018 18.496094 10.591797 L 18.496094 10.496094 L 18.390625 10.496094 C 18.38542 10.490091 18.382298 10.482438 18.376953 10.476562 L 18.376953 10.376953 L 18.267578 10.376953 C 18.262994 10.37157 18.260555 10.364659 18.255859 10.359375 L 18.255859 10.255859 L 18.146484 10.255859 C 18.141974 10.250449 18.139387 10.243593 18.134766 10.238281 L 18.134766 10.134766 L 18.027344 10.134766 C 18.024445 10.132306 18.020505 10.131334 18.017578 10.128906 C 18.016077 10.1271 18.015185 10.124842 18.013672 10.123047 L 18.013672 10.013672 L 17.910156 10.013672 C 17.904839 10.009029 17.897993 10.006484 17.892578 10.001953 L 17.892578 9.8925781 L 17.792969 9.8925781 C 17.785988 9.8863061 17.776686 9.8830289 17.769531 9.8769531 L 17.769531 9.7695312 L 17.673828 9.7695312 C 17.665189 9.7615489 17.653448 9.7576763 17.644531 9.75 L 17.644531 9.6445312 L 17.550781 9.6445312 C 17.542221 9.6364663 17.530324 9.6327613 17.521484 9.625 L 17.521484 9.5214844 L 17.433594 9.5214844 C 17.422837 9.5110046 17.407702 9.5060828 17.396484 9.4960938 L 17.396484 9.3964844 L 17.310547 9.3964844 C 17.298656 9.3846342 17.282002 9.3784287 17.269531 9.3671875 L 17.269531 9.2695312 L 17.183594 9.2695312 C 17.171412 9.2571539 17.155384 9.2500114 17.142578 9.2382812 L 17.142578 9.1425781 L 17.052734 9.1425781 C 17.041027 9.1305136 17.027921 9.1208368 17.015625 9.109375 L 17.015625 9.015625 L 16.923828 9.015625 C 16.912229 9.003436 16.900866 8.9920586 16.888672 8.9804688 L 16.888672 8.8886719 L 16.794922 8.8886719 C 16.782492 8.8753139 16.772901 8.8603149 16.759766 8.8476562 L 16.759766 8.7597656 L 16.662109 8.7597656 C 16.649743 8.7462833 16.641985 8.7295803 16.628906 8.7167969 L 16.628906 8.6289062 L 16.529297 8.6289062 C 16.517328 8.6156341 16.512654 8.5965946 16.5 8.5839844 L 16.5 8.5 L 16.396484 8.5 C 16.385601 8.4876935 16.380608 8.4707369 16.369141 8.4589844 L 16.369141 8.3691406 L 16.263672 8.3691406 C 16.252906 8.356726 16.247683 8.33999 16.236328 8.328125 L 16.236328 8.2363281 L 16.128906 8.2363281 C 16.119127 8.2248826 16.113793 8.2102067 16.103516 8.1992188 L 16.103516 8.1035156 L 15.994141 8.1035156 C 15.985436 8.0931313 15.979815 8.0803298 15.970703 8.0703125 L 15.970703 7.9707031 L 15.857422 7.9707031 C 15.849037 7.9605234 15.844711 7.9473348 15.835938 7.9375 L 15.835938 7.8359375 L 15.722656 7.8359375 C 15.722656 7.8359375 15.720703 7.8339844 15.720703 7.8339844 C 15.713258 7.8248374 15.708929 7.8135605 15.701172 7.8046875 L 15.701172 7.7011719 L 15.591797 7.7011719 C 15.587515 7.6975674 15.582468 7.6949396 15.578125 7.6914062 C 15.573658 7.6859181 15.570986 7.6792183 15.566406 7.6738281 L 15.566406 7.5664062 L 15.460938 7.5664062 C 15.453159 7.5596706 15.443531 7.5553244 15.435547 7.5488281 C 15.433484 7.5462937 15.431775 7.5435293 15.429688 7.5410156 L 15.429688 7.4296875 L 15.328125 7.4296875 C 15.317588 7.4203526 15.303894 7.4151386 15.292969 7.40625 L 15.292969 7.2929688 L 15.193359 7.2929688 C 15.181837 7.2825055 15.166299 7.2774998 15.154297 7.2675781 L 15.154297 7.1542969 L 15.058594 7.1542969 C 15.046529 7.1430891 15.030184 7.1375592 15.017578 7.1269531 L 15.017578 7.0175781 L 14.925781 7.0175781 C 14.911561 7.0039897 14.891952 6.997111 14.876953 6.984375 L 14.876953 6.8769531 L 14.789062 6.8769531 C 14.774569 6.862788 14.753608 6.8570173 14.738281 6.84375 L 14.738281 6.7382812 L 14.652344 6.7382812 C 14.652344 6.7382812 14.650391 6.7363281 14.650391 6.7363281 C 14.635394 6.721383 14.61357 6.7151433 14.597656 6.7011719 L 14.597656 6.5976562 L 14.509766 6.5976562 C 14.49368 6.5813112 14.472245 6.5718498 14.455078 6.5566406 L 14.455078 6.4550781 L 14.365234 6.4550781 C 14.349256 6.438612 14.329567 6.4274447 14.3125 6.4121094 L 14.3125 6.3125 L 14.169922 6.3125 L 14.169922 6.1699219 L 14.027344 6.1699219 L 14.027344 6.0273438 L 13.882812 6.0273438 L 13.882812 5.8828125 L 13.736328 5.8828125 L 13.736328 5.7363281 L 13.591797 5.7363281 L 13.591797 5.5917969 L 13.445312 5.5917969 L 13.445312 5.4453125 L 13.296875 5.4453125 L 13.296875 5.296875 L 13.148438 5.296875 L 13.148438 5.1484375 L 12.148438 5.1484375 L 12.148438 6.1484375 L 9.0273438 6.1484375 L 9.0273438 6.0273438 L 8.8828125 6.0273438 L 8.8828125 5.8828125 L 8.7363281 5.8828125 L 8.7363281 5.7363281 L 8.5917969 5.7363281 L 8.5917969 5.5917969 L 8.4453125 5.5917969 L 8.4453125 5.4453125 L 8.296875 5.4453125 L 8.296875 5.296875 L 8.1484375 5.296875 L 8.1484375 5.1484375 L 7.1484375 5.1484375 z "
       id="path4208"
       style="fill:url(#linearGradient5050);fill-opacity:1;opacity:0.2"
       clip-path="url(#clipPath5055)" />
    <path
       style="fill:#ffffff"
       inkscape:connector-curvature="0"
       d="m 13.499978,14.000005 -7.0000005,0 0,-5.5000004 7.0000005,0 m -1.5,-3.5 0,1.0000001 -4.0000005,0 0,-1.0000001 -1,0 0,1.0000001 -0.5,0 c -0.555,0 -1,0.445 -1,1 l 0,7.0000003 a 0.99999998,0.99999998 0 0 0 1,1 l 7.0000005,0 a 0.99999998,0.99999998 0 0 0 1,-1 l 0,-7.0000003 c 0,-0.555 -0.45,-1 -1,-1 l -0.5,0 0,-1.0000001 m -0.5,5.5000004 -2.5000005,0 0,2.5 2.5000005,0 0,-2.5 z"
       id="path4167" />
  </g>
</svg>
