<?xml version="1.0" encoding="UTF-8" standalone="no"?>
<!-- Created with Inkscape (http://www.inkscape.org/) -->

<svg
   xmlns:dc="http://purl.org/dc/elements/1.1/"
   xmlns:cc="http://creativecommons.org/ns#"
   xmlns:rdf="http://www.w3.org/1999/02/22-rdf-syntax-ns#"
   xmlns:svg="http://www.w3.org/2000/svg"
   xmlns="http://www.w3.org/2000/svg"
   xmlns:xlink="http://www.w3.org/1999/xlink"
   xmlns:sodipodi="http://sodipodi.sourceforge.net/DTD/sodipodi-0.dtd"
   xmlns:inkscape="http://www.inkscape.org/namespaces/inkscape"
   sodipodi:docname="Keepass.svg"
   inkscape:version="0.92.2 (5c3e80d, 2017-08-06)"
   version="1.1"
   id="svg2"
   viewBox="0 0 21.875 21.875"
   height="23.333334"
   width="23.333334"
   inkscape:export-filename="/home/juergen/Desktop/keepass.png"
   inkscape:export-xdpi="648"
   inkscape:export-ydpi="648">
  <sodipodi:namedview
     inkscape:snap-to-guides="true"
     inkscape:snap-grids="true"
     inkscape:window-maximized="1"
     inkscape:window-y="33"
     inkscape:window-x="0"
     inkscape:window-height="699"
     inkscape:window-width="1366"
     inkscape:guide-bbox="true"
     showguides="true"
     fit-margin-bottom="1"
     fit-margin-right="1"
     fit-margin-left="1"
     fit-margin-top="1"
     showgrid="true"
     inkscape:current-layer="layer1"
     inkscape:document-units="px"
     inkscape:cy="13.679797"
     inkscape:cx="6.4824635"
     inkscape:zoom="15.839192"
     inkscape:pageshadow="2"
     inkscape:pageopacity="0.0"
     borderopacity="1.0"
     bordercolor="#666666"
     pagecolor="#ffffff"
     id="base"
     units="px">
    <inkscape:grid
       type="xygrid"
       id="grid4138"
       originx="0.93755144"
       originy="0.93750306" />
    <sodipodi:guide
       position="10.937551,18.937503"
       orientation="0,1"
       id="guide4140"
       inkscape:locked="false" />
    <sodipodi:guide
       position="10.937551,2.9375031"
       orientation="0,1"
       id="guide4142"
       inkscape:locked="false" />
    <sodipodi:guide
       position="2.9375515,10.937503"
       orientation="1,0"
       id="guide4144"
       inkscape:locked="false" />
    <sodipodi:guide
       position="0.93755144,0.93750306"
       orientation="0,20"
       id="guide4146"
       inkscape:locked="false" />
    <sodipodi:guide
       position="20.937551,0.93750306"
       orientation="-20,0"
       id="guide4148"
       inkscape:locked="false" />
    <sodipodi:guide
       position="20.937551,20.937503"
       orientation="0,-20"
       id="guide4150"
       inkscape:locked="false" />
    <sodipodi:guide
       position="0.93755144,20.937503"
       orientation="20,0"
       id="guide4152"
       inkscape:locked="false" />
    <sodipodi:guide
       position="18.937551,10.937503"
       orientation="1,0"
       id="guide4154"
       inkscape:locked="false" />
    <sodipodi:guide
       position="10.937551,10.937503"
       orientation="-0.70710678,0.70710678"
       id="guide4156"
       inkscape:locked="false" />
    <sodipodi:guide
       position="10.937551,10.937503"
       orientation="0.70710678,0.70710678"
       id="guide4158"
       inkscape:locked="false" />
    <sodipodi:guide
       position="4.9375515,10.937503"
       orientation="1,0"
       id="guide4160"
       inkscape:locked="false" />
    <sodipodi:guide
       position="16.937551,10.937503"
       orientation="1,0"
       id="guide4162"
       inkscape:locked="false" />
    <sodipodi:guide
       position="10.937551,16.937503"
       orientation="0,1"
       id="guide4164"
       inkscape:locked="false" />
    <sodipodi:guide
       position="10.937551,4.937503"
       orientation="0,1"
       id="guide4166"
       inkscape:locked="false" />
    <sodipodi:guide
       position="10.937551,15.937503"
       orientation="0,1"
       id="guide4168"
       inkscape:locked="false" />
    <sodipodi:guide
       position="10.937551,5.937503"
       orientation="0,1"
       id="guide4170"
       inkscape:locked="false" />
    <sodipodi:guide
       position="5.9375515,10.937503"
       orientation="1,0"
       id="guide4172"
       inkscape:locked="false" />
    <sodipodi:guide
       position="15.937551,10.937503"
       orientation="1,0"
       id="guide4174"
       inkscape:locked="false" />
  </sodipodi:namedview>
  <defs
     id="defs4">
    <linearGradient
       inkscape:collect="always"
       id="linearGradient7096">
      <stop
         style="stop-color:#000000;stop-opacity:1;"
         offset="0"
         id="stop7098" />
      <stop
         style="stop-color:#000000;stop-opacity:0;"
         offset="1"
         id="stop7100" />
    </linearGradient>
    <clipPath
       id="clipPath12478"
       clipPathUnits="userSpaceOnUse">
      <circle
         r="10"
         cy="10.000005"
         cx="9.9999781"
         id="circle12480"
         style="opacity:1;fill:#2196f3;fill-opacity:1;stroke:none;stroke-width:0.05069799;stroke-miterlimit:4;stroke-dasharray:none;stroke-opacity:1" />
    </clipPath>
    <clipPath
       clipPathUnits="userSpaceOnUse"
       id="clipPath13251">
      <circle
         r="10"
         cy="10.000005"
         cx="9.9999781"
         id="circle13253"
         style="opacity:1;fill:#2196f3;fill-opacity:1;stroke:none;stroke-width:0.05069799;stroke-miterlimit:4;stroke-dasharray:none;stroke-opacity:1"
         inkscape:export-filename="/home/juergen/path4136.png"
         inkscape:export-xdpi="648"
         inkscape:export-ydpi="648" />
    </clipPath>
    <clipPath
       id="clipPath5054"
       clipPathUnits="userSpaceOnUse">
      <circle
         r="10"
         cy="10.000005"
         cx="9.9999781"
         id="circle5056"
         style="opacity:1;fill:#2196f3;fill-opacity:1;stroke:none;stroke-width:0.05069799;stroke-miterlimit:4;stroke-dasharray:none;stroke-opacity:1"
         inkscape:export-filename="/home/juergen/path4136.png"
         inkscape:export-xdpi="648"
         inkscape:export-ydpi="648" />
    </clipPath>
    <clipPath
       clipPathUnits="userSpaceOnUse"
       id="clipPath5149">
      <circle
         r="10"
         cy="10.000005"
         cx="9.9999781"
         id="circle5151"
         style="opacity:1;fill:#3f51b5;fill-opacity:1;stroke:none;stroke-width:0.05069799;stroke-miterlimit:4;stroke-dasharray:none;stroke-opacity:1"
         inkscape:export-filename="/home/juergen/Schreibtisch/qqq.png"
         inkscape:export-xdpi="648"
         inkscape:export-ydpi="648" />
    </clipPath>
    <clipPath
       id="clipPath6126"
       clipPathUnits="userSpaceOnUse">
      <circle
         r="10"
         cy="10.000005"
         cx="9.9999781"
         id="circle6128"
         style="opacity:1;fill:#9ccc65;fill-opacity:1;stroke:none;stroke-width:0.05069799;stroke-miterlimit:4;stroke-dasharray:none;stroke-opacity:1"
         inkscape:export-filename="/home/juergen/Schreibtisch/qqq.png"
         inkscape:export-xdpi="648"
         inkscape:export-ydpi="648" />
    </clipPath>
    <linearGradient
       inkscape:collect="always"
       xlink:href="#linearGradient7096"
       id="linearGradient7102"
       x1="10"
       y1="10"
       x2="20"
       y2="20"
       gradientUnits="userSpaceOnUse" />
    <clipPath
       clipPathUnits="userSpaceOnUse"
       id="clipPath7107">
      <circle
         r="10"
         cy="10.000005"
         cx="9.9999781"
         id="circle7109"
         style="opacity:1;fill:#f44336;fill-opacity:1;stroke:none;stroke-width:0.05069799;stroke-miterlimit:4;stroke-dasharray:none;stroke-opacity:1"
         inkscape:export-filename="/home/juergen/Schreibtisch/qqq.png"
         inkscape:export-xdpi="648"
         inkscape:export-ydpi="648" />
    </clipPath>
  </defs>
  <metadata
     id="metadata7">
    <rdf:RDF>
      <cc:Work
         rdf:about="">
        <dc:format>image/svg+xml</dc:format>
        <dc:type
           rdf:resource="http://purl.org/dc/dcmitype/StillImage" />
        <dc:title></dc:title>
      </cc:Work>
    </rdf:RDF>
  </metadata>
  <g
     inkscape:label="Hintergrund"
     inkscape:groupmode="layer"
     id="layer1"
     transform="translate(1059.0803,-860.99615)">
    <circle
       inkscape:export-ydpi="648"
       inkscape:export-xdpi="648"
       inkscape:export-filename="/home/juergen/Schreibtisch/qqq.png"
       style="opacity:1;fill:#f44336;fill-opacity:1;stroke:none;stroke-width:0.05069799;stroke-miterlimit:4;stroke-dasharray:none;stroke-opacity:1"
       id="path4136"
       cx="-1048.1428"
       cy="871.93365"
       r="10" />
  </g>
  <g
     style="display:inline"
     inkscape:groupmode="layer"
     id="layer2"
     inkscape:label="Icon"
     transform="translate(0.93755143,0.93749738)">
    <path
       d="m 7.8769531,7.421875 c -0.7233179,-2e-7 -1.4182245,0.2873652 -1.9296875,0.7988281 -0.5114629,0.5114629 -0.7988282,1.204417 -0.7988281,1.9277349 2e-7,0.793075 0.3443456,1.50166 0.8847656,2 0.046376,0.04984 0.094576,0.09632 0.1445313,0.142578 0.047509,0.0513 0.095196,0.10091 0.1464844,0.148437 0.045892,0.0495 0.093162,0.09659 0.1425781,0.142578 0.049029,0.05306 0.099282,0.103315 0.1523437,0.152344 0.045994,0.04942 0.093065,0.09669 0.1425782,0.142578 0.044746,0.04817 0.090583,0.09384 0.1386718,0.138672 0.047442,0.05134 0.095262,0.100865 0.1464844,0.148437 0.045982,0.04951 0.093068,0.0966 0.1425781,0.142579 0.04723,0.05085 0.095535,0.09935 0.1464844,0.146484 0.043905,0.04702 0.089617,0.09094 0.1367187,0.134766 0.044353,0.04775 0.089081,0.0942 0.1367188,0.138671 0.047522,0.05127 0.09714,0.09899 0.1484375,0.146485 0.042043,0.04499 0.083932,0.0888 0.1289063,0.130859 0.046898,0.0506 0.095907,0.09761 0.1464843,0.144532 0.04199,0.04494 0.083992,0.08884 0.1289063,0.130859 0.046556,0.05023 0.094349,0.09793 0.1445312,0.144531 0.041672,0.04455 0.084359,0.08723 0.1289063,0.128906 0.044734,0.04817 0.090596,0.09384 0.1386719,0.138672 0.044204,0.0474 0.089269,0.09256 0.1367187,0.136719 0.041047,0.04388 0.083115,0.08586 0.1269531,0.126953 0.045358,0.04884 0.091833,0.09522 0.140625,0.140625 0.041759,0.04456 0.084267,0.08723 0.1289063,0.128906 0.042649,0.04568 0.087144,0.0882 0.1328125,0.13086 0.041025,0.0439 0.081183,0.08779 0.125,0.128906 0.044465,0.04773 0.090919,0.09228 0.1386718,0.136719 0.040855,0.0435 0.083349,0.08426 0.1269532,0.125 0.040158,0.04289 0.080219,0.08478 0.1230468,0.125 0.042328,0.04539 0.085552,0.08844 0.1308594,0.130859 0.041165,0.04397 0.082984,0.08579 0.1269534,0.126953 0.04242,0.04531 0.08547,0.08853 0.130859,0.13086 0.0393,0.04175 0.07926,0.08188 0.121094,0.121093 0.03927,0.0419 0.07928,0.08174 0.121094,0.121094 0.04265,0.04565 0.08519,0.09018 0.130859,0.132813 0.03898,0.04137 0.07962,0.08027 0.121094,0.11914 0.03828,0.04076 0.07649,0.0808 0.117187,0.119141 0.04046,0.04325 0.08183,0.08446 0.125,0.125 0.03929,0.04183 0.07926,0.0818 0.121094,0.121094 0.04054,0.04317 0.08175,0.08454 0.125,0.125 0.03746,0.03968 0.07547,0.07786 0.115234,0.115234 0.03709,0.03945 0.07588,0.0761 0.115235,0.113281 0.03957,0.04226 0.07893,0.08337 0.121093,0.123047 0.03807,0.04046 0.07673,0.07911 0.117188,0.117188 0.03905,0.04149 0.07954,0.08016 0.121094,0.11914 0.03657,0.0387 0.07257,0.07677 0.111328,0.113281 0.03737,0.03967 0.07557,0.07786 0.115234,0.115235 0.03737,0.03967 0.07556,0.07786 0.115235,0.115234 0.03654,0.03871 0.07455,0.07481 0.113281,0.111328 0.03686,0.0391 0.07419,0.07641 0.113281,0.113282 0.03648,0.03868 0.07266,0.07678 0.111328,0.113281 0.03615,0.0383 0.07303,0.07517 0.111328,0.111328 0.0349,0.03696 0.07053,0.07246 0.107422,0.107422 0.03682,0.03912 0.07423,0.07639 0.113281,0.113281 0.0369,0.03905 0.07416,0.07646 0.113282,0.113281 0.03248,0.0342 0.06541,0.06713 0.09961,0.09961 0.03647,0.03876 0.07267,0.07671 0.111328,0.113281 0.03622,0.0383 0.07296,0.07518 0.111328,0.111328 0.03314,0.03485 0.0686,0.06655 0.103516,0.09961 0.03438,0.03631 0.06916,0.07109 0.105469,0.105469 0.03306,0.03491 0.06476,0.07039 0.09961,0.103516 0.03493,0.037 0.07049,0.07242 0.107422,0.107422 0.03472,0.03663 0.07074,0.07081 0.107422,0.105469 0.0313,0.03289 0.06281,0.06441 0.0957,0.0957 0.03529,0.03735 0.07009,0.07407 0.107422,0.109375 0.03184,0.03342 0.06417,0.06588 0.09766,0.09766 0.03279,0.03456 0.06702,0.06681 0.101563,0.09961 0.03087,0.03251 0.06132,0.06475 0.09375,0.0957 0.03496,0.03696 0.07046,0.07246 0.107421,0.107422 0.03066,0.03212 0.06157,0.06316 0.09375,0.09375 0.03059,0.03218 0.06164,0.0631 0.09375,0.09375 0.03409,0.03596 0.06949,0.06945 0.105469,0.103516 0.02844,0.02976 0.05619,0.05944 0.08594,0.08789 0.03374,0.0356 0.06792,0.06978 0.103515,0.103516 0.02937,0.03071 0.05908,0.06053 0.08984,0.08984 0.03061,0.03214 0.06161,0.06313 0.09375,0.09375 0.03058,0.0321 0.06165,0.06317 0.09375,0.09375 0.02972,0.03114 0.06064,0.06013 0.0918,0.08984 0.03005,0.03152 0.06028,0.06174 0.0918,0.0918 0.02968,0.03112 0.05874,0.06211 0.08984,0.0918 0.02939,0.03079 0.05906,0.06046 0.08984,0.08984 0.02935,0.03074 0.0591,0.0605 0.08984,0.08984 0.02716,0.0284 0.05368,0.05678 0.08203,0.08398 0.03155,0.03319 0.06448,0.06414 0.09766,0.0957 0.02694,0.02805 0.05393,0.05515 0.08203,0.08203 0.02814,0.02942 0.05652,0.05779 0.08594,0.08594 0.02811,0.02939 0.05655,0.05783 0.08594,0.08594 0.02751,0.02876 0.05525,0.05645 0.08398,0.08398 0.02621,0.0274 0.05276,0.05379 0.08008,0.08008 0.03005,0.03151 0.06028,0.06175 0.0918,0.0918 0.02569,0.0267 0.05137,0.05249 0.07813,0.07813 0.02529,0.02639 0.04985,0.05277 0.07617,0.07813 0.02937,0.03077 0.05907,0.06047 0.08984,0.08984 0.02532,0.02629 0.05177,0.05091 0.07813,0.07617 0.02566,0.02672 0.0514,0.05247 0.07813,0.07813 0.02439,0.0254 0.04887,0.04978 0.07422,0.07422 0.02847,0.0298 0.05616,0.05941 0.08594,0.08789 0.02245,0.02326 0.0451,0.0459 0.06836,0.06836 0.02652,0.02773 0.05242,0.05544 0.08008,0.08203 0.02595,0.027 0.05304,0.05221 0.08008,0.07813 0.02376,0.02462 0.0476,0.04855 0.07227,0.07227 0.02408,0.025 0.04921,0.0482 0.07422,0.07227 0.02277,0.02366 0.04476,0.04748 0.06836,0.07031 0.02528,0.02638 0.04986,0.05278 0.07617,0.07813 0.02534,0.02631 0.05175,0.0509 0.07813,0.07617 0.01997,0.02061 0.03994,0.04057 0.06055,0.06055 0.02499,0.02608 0.05017,0.0511 0.07617,0.07617 0.02443,0.02534 0.04883,0.04984 0.07422,0.07422 0.02122,0.0219 0.04251,0.04327 0.06445,0.06445 0.02248,0.02329 0.04507,0.04588 0.06836,0.06836 0.02121,0.02198 0.04252,0.0432 0.06445,0.06445 0.02314,0.02404 0.04631,0.04713 0.07031,0.07031 0.02318,0.024 0.04627,0.04718 0.07031,0.07031 0.01869,0.01925 0.03739,0.03795 0.05664,0.05664 0.02406,0.025 0.04728,0.05015 0.07227,0.07422 0.01965,0.02022 0.04028,0.03899 0.06055,0.05859 0.02059,0.02129 0.04123,0.04189 0.0625,0.0625 0.01929,0.01994 0.03871,0.03924 0.05859,0.05859 0.02316,0.02402 0.04629,0.04715 0.07031,0.07031 0.01874,0.01926 0.03734,0.03794 0.05664,0.05664 0.01835,0.01894 0.0358,0.03824 0.05469,0.05664 0.02247,0.02328 0.04508,0.04588 0.06836,0.06836 0.01646,0.01689 0.0339,0.03237 0.05078,0.04883 0.02191,0.02268 0.04373,0.0445 0.06641,0.06641 0.01745,0.0179 0.0348,0.03532 0.05273,0.05273 0.01869,0.01925 0.03739,0.03795 0.05664,0.05664 0.01869,0.01925 0.03739,0.03795 0.05664,0.05664 0.01774,0.01824 0.03449,0.03695 0.05273,0.05469 0.018,0.01852 0.03617,0.03668 0.05469,0.05469 0.01774,0.01825 0.03645,0.03499 0.05469,0.05273 0.01743,0.01792 0.03482,0.0353 0.05273,0.05273 0.01711,0.01758 0.03321,0.03562 0.05078,0.05273 0.01675,0.01719 0.03359,0.03404 0.05078,0.05078 0.01675,0.01719 0.03359,0.03403 0.05078,0.05078 0.01646,0.01689 0.0339,0.03237 0.05078,0.04883 0.01617,0.01659 0.03224,0.03265 0.04883,0.04883 0.01456,0.01494 0.02807,0.03032 0.04297,0.04492 0.01708,0.01759 0.03323,0.03561 0.05078,0.05273 0.0155,0.01588 0.031,0.03138 0.04687,0.04687 0.01713,0.01755 0.03514,0.0337 0.05273,0.05078 0.01361,0.01386 0.02712,0.02745 0.04102,0.04102 0.01293,0.01322 0.02586,0.0261 0.03906,0.03906 0.01582,0.01626 0.03065,0.03296 0.04687,0.04883 0.01423,0.01455 0.02842,0.02874 0.04297,0.04297 0.01551,0.01586 0.03098,0.03139 0.04687,0.04687 0.01228,0.0125 0.02459,0.02485 0.03711,0.03711 0.01387,0.01417 0.02879,0.02715 0.04297,0.04102 0.01295,0.01321 0.02585,0.02611 0.03906,0.03906 0.01295,0.01321 0.02585,0.02611 0.03906,0.03906 0.01295,0.01321 0.02585,0.02611 0.03906,0.03906 0.01261,0.01287 0.02425,0.02644 0.03711,0.03906 0.0126,0.01285 0.02621,0.02451 0.03906,0.03711 0.01169,0.01191 0.02325,0.02346 0.03516,0.03516 0.01168,0.01189 0.02326,0.02348 0.03516,0.03516 0.01169,0.01191 0.02325,0.02346 0.03516,0.03516 0.01133,0.01153 0.02168,0.02382 0.0332,0.03516 0.01099,0.01118 0.02202,0.02221 0.0332,0.0332 0.0091,0.0092 0.01816,0.01826 0.02734,0.02734 0.01423,0.01455 0.02842,0.02874 0.04297,0.04297 0.0071,0.0072 0.01426,0.01434 0.02148,0.02148 0.01296,0.01323 0.02584,0.0261 0.03906,0.03906 0.0084,0.0085 0.01683,0.01696 0.02539,0.02539 0.0078,0.0079 0.01555,0.01563 0.02344,0.02344 0.01296,0.01323 0.02584,0.0261 0.03906,0.03906 0.0075,0.0076 0.01584,0.01399 0.02344,0.02148 0.0075,0.0076 0.01391,0.01593 0.02148,0.02344 0.01005,0.01024 0.01909,0.02117 0.0293,0.03125 0.01008,0.01021 0.02101,0.01924 0.03125,0.0293 0.0046,0.0046 0.0091,0.0091 0.01367,0.01367 0.0098,0.0099 0.01938,0.0195 0.0293,0.0293 0.0091,0.0093 0.01807,0.01822 0.02734,0.02734 0.0046,0.0046 0.0091,0.0091 0.01367,0.01367 0.01006,0.01023 0.01908,0.02118 0.0293,0.03125 0.0036,0.0036 0.0081,0.0062 0.01172,0.0098 0.0084,0.0086 0.0149,0.0189 0.02344,0.02734 0.0065,0.0065 0.01302,0.01308 0.01953,0.01953 0.0062,0.0062 0.01331,0.01142 0.01953,0.01758 0.0059,0.0059 0.01165,0.01171 0.01758,0.01758 0.0072,0.0072 0.01424,0.01434 0.02148,0.02148 0.0026,0.0026 0.0052,0.0052 0.0078,0.0078 0.0084,0.0085 0.01684,0.01695 0.02539,0.02539 0,0 0.002,0.002 0.002,0.002 0,0 0.002,0.002 0.002,0.002 0.0065,0.0066 0.01296,0.01301 0.01953,0.01953 0.0059,0.0059 0.01165,0.01171 0.01758,0.01758 0,0 0.002,0.002 0.002,0.002 0,0 0.002,0.002 0.002,0.002 0.0055,0.0056 0.01007,0.01205 0.01563,0.01758 0.0055,0.0056 0.012,0.01011 0.01758,0.01563 0.0017,0.0017 0.0042,0.0023 0.0059,0.0039 0.0016,0.0017 0.0023,0.0042 0.0039,0.0059 0.0017,0.0016 0.0042,0.0023 0.0059,0.0039 0.0029,0.003 0.0049,0.0068 0.0078,0.0098 0.0026,0.0026 0.0052,0.0052 0.0078,0.0078 0.0013,0.0013 0.0026,0.0026 0.0039,0.0039 0.0013,0.0013 0.0026,0.0026 0.0039,0.0039 0.0013,0.0013 0.0026,0.0026 0.0039,0.0039 0,0 0.002,0.002 0.002,0.002 0,0 0.002,0 0.002,0 0,0 0,0.002 0,0.002 0,0 0.002,0.002 0.002,0.002 0.0013,0.0013 0.0046,0.0046 0.0059,0.0059 0,0 0,0.002 0,0.002 0.0013,0.0013 0.0046,0.0046 0.0059,0.0059 0,0 0.002,0.002 0.002,0.002 0,0 0.002,0 0.002,0 0,0 0.002,0.002 0.002,0.002 0,0 0.002,0.002 0.002,0.002 0,0 0,0.002 0,0.002 2.94e-4,2.95e-4 0.0017,-2.94e-4 0.002,0 0,0 0,0.002 0,0.002 2.94e-4,2.95e-4 0.0017,-2.94e-4 0.002,0 0.03834,0.03822 0.08446,0.06762 0.125,0.103516 0.210149,0.186625 0.444484,0.345902 0.705078,0.460938 0.01154,0.0051 0.02353,0.0146 0.03516,0.01953 5.32e-4,2.25e-4 0.0014,-2.25e-4 0.002,0 0.05045,0.0213 0.10626,0.03053 0.158203,0.04883 0.284088,0.100297 0.583922,0.166015 0.902343,0.166015 0.148296,0 0.293688,-0.01233 0.435547,-0.03516 0.567436,-0.0913 1.07603,-0.357422 1.46875,-0.742187 0.29454,-0.288574 0.52429,-0.643857 0.664063,-1.041016 h 0.158203 0.05273 v 0.05078 h 0.05078 v 0.05078 h 0.04883 v 0.05078 h 0.05078 v 0.04883 h 0.04687 v 0.04883 h 0.04883 v 0.04883 h 0.04687 v 0.04687 h 0.04687 v 0.04687 h 0.04492 v 0.04492 h 0.04492 v 0.04492 h 0.04492 v 0.04492 h 0.04297 v 0.04297 h 0.04297 v 0.04297 h 0.04102 v 0.04102 h 0.04297 v 0.04102 h 0.03906 v 0.04102 h 0.04102 v 0.03906 h 0.03906 v 0.03906 h 0.03711 v 0.03906 h 0.03711 v 0.03711 h 0.03711 v 0.03711 h 0.03711 v 0.03516 h 0.03516 v 0.03516 h 0.0332 v 0.03516 h 0.03516 v 0.0332 h 0.0332 v 0.0332 h 0.03125 v 0.0332 h 0.03125 v 0.03125 h 0.03125 v 0.03125 h 0.0293 v 0.0293 h 0.0293 v 0.0293 h 0.0293 v 0.0293 h 0.02734 v 0.02734 h 0.02734 v 0.02734 h 0.02734 v 0.02734 h 0.02539 v 0.02539 h 0.02539 v 0.02344 h 0.02344 v 0.02539 h 0.02344 v 0.02344 h 0.02344 v 0.02148 h 0.02148 v 0.02148 h 0.02148 v 0.02148 h 0.01953 v 0.02148 h 0.01953 v 0.01953 h 0.01953 v 0.01953 h 0.01758 v 0.01758 h 0.01758 v 0.01758 h 0.01758 v 0.01563 h 0.01563 v 0.01758 H 27.125 v 0.01367 h 0.01367 v 0.01563 h 0.01367 v 0.01367 h 0.01367 v 0.01172 h 0.01172 v 0.01367 h 0.01172 v 0.01172 h 0.0098 v 0.0098 h 0.0098 v 0.0098 h 0.0098 v 0.0098 h 0.0098 v 0.0078 h 0.0078 v 0.0078 h 0.0059 v 0.0078 h 0.0059 v 0.0059 h 0.0059 v 0.0059 h 0.0059 v 0.0059 h 0.0039 v 0.0039 h 0.0039 v 0.002 h 0.002 v 0.0039 h 0.002 v 0.002 h 1.81836 V 25.908203 H 29.998047 30 v -1.818359 h -0.002 -0.002 v -0.002 h -0.002 v -0.002 h -0.0039 v -0.0039 h -0.0039 v -0.0039 h -0.0039 v -0.0059 h -0.0059 v -0.0059 h -0.0059 v -0.0059 h -0.0078 v -0.0059 h -0.0078 v -0.0078 h -0.0078 v -0.0098 h -0.0098 v -0.0098 h -0.0098 v -0.0098 h -0.01172 v -0.0098 h -0.01172 v -0.01172 h -0.01172 v -0.01172 h -0.01367 v -0.01367 H 29.865 v -0.01367 h -0.01367 v -0.01367 h -0.01562 v -0.01563 h -0.01563 v -0.01563 H 29.8025 v -0.01758 h -0.01758 v -0.01758 h -0.01758 v -0.01758 h -0.01953 v -0.01953 h -0.01953 v -0.01953 h -0.01953 v -0.01953 H 29.6875 v -0.02148 h -0.02148 v -0.02344 h -0.02344 v -0.02148 h -0.02344 v -0.02344 H 29.5957 V 23.6875 h -0.02539 v -0.02539 h -0.02539 v -0.02539 h -0.02539 v -0.02734 h -0.02734 v -0.02734 h -0.0293 V 23.5547 h -0.02734 v -0.0293 h -0.0293 V 23.4961 H 29.375 V 23.4668 H 29.3457 V 23.43555 H 29.31445 V 23.4043 h -0.0332 v -0.03125 h -0.0332 v -0.0332 h -0.0332 v -0.03516 h -0.03516 v -0.0332 H 29.14453 V 23.23633 H 29.10937 V 23.19922 H 29.07226 V 23.16211 H 29.03515 V 23.125 H 28.99609 V 23.08789 H 28.95703 V 23.04883 H 28.91797 V 23.00781 H 28.87695 V 22.96875 H 28.83593 V 22.92578 H 28.79296 V 22.88476 H 28.75194 V 22.84179 H 28.70702 V 22.79882 H 28.66405 V 22.7539 H 28.61913 V 22.70898 H 28.57226 V 22.66406 H 28.52734 V 22.61719 H 28.47851 V 22.57031 H 28.43164 V 22.52148 H 28.38281 V 22.47265 H 28.33398 V 22.42382 H 28.2832 V 22.375 H 28.23242 V 22.32422 H 28.18164 V 22.27149 H 28.12891 V 22.21876 H 28.07618 V 22.16603 H 28.02149 V 22.1133 H 27.9668 V 22.05861 H 27.91211 V 22.00197 H 27.85547 V 21.94728 H 27.79883 V 21.88869 H 27.74024 V 21.83205 H 27.6836 v -0.05859 h -0.06055 v -0.05859 h -0.05859 v -0.06055 h -0.06055 v -0.06055 h -0.0625 v -0.06055 h -0.06055 v -0.0625 h -0.0625 v -0.0625 h -0.06445 v -0.0625 H 27.18946 V 21.28125 H 27.125 V 21.21484 H 27.05859 V 21.15039 H 26.99218 V 21.08398 H 26.92577 V 21.01562 H 26.85741 V 20.94921 H 26.78905 V 20.8789 H 26.71874 V 20.81054 H 26.64843 V 20.74023 H 26.57812 V 20.66992 H 26.50585 V 20.59765 H 26.43358 V 20.52538 H 26.36131 V 20.45116 H 26.28709 V 20.37889 H 26.21287 V 20.30272 H 26.1367 V 20.2285 H 26.06053 V 20.15233 H 25.98436 V 20.0742 H 25.90623 V 19.99803 H 25.8281 V 19.9199 H 25.75 V 19.83982 H 25.66992 V 19.75974 H 25.58789 V 19.67966 H 25.50781 V 19.59763 H 25.42578 V 19.5156 H 25.3418 V 19.43357 H 25.25977 V 19.34959 H 25.17579 V 19.26561 H 25.08985 V 19.18163 H 25.00391 V 19.09569 H 24.91797 V 19.0078 H 24.83008 V 18.92186 H 24.74219 V 18.83397 H 24.6543 v -0.08984 h -0.08984 v -0.08984 h -0.08984 v -0.08984 h -0.0918 v -0.08984 h -0.0918 v -0.0918 h -0.0918 v -0.09375 h -0.09375 v -0.0918 h -0.09375 v -0.09375 h -0.0957 v -0.0957 h -0.09375 v -0.0957 h -0.09766 v -0.0957 h -0.0957 V 17.71875 H 23.53125 V 17.62109 H 23.43164 V 17.52343 H 23.33398 V 17.42382 H 23.23437 V 17.32421 H 23.132807 V 17.2246 H 23.03125 V 17.123047 H 22.929688 V 17.019531 H 22.826172 V 16.917969 H 22.722656 V 16.814453 H 22.619141 V 16.708984 H 22.513672 V 16.603516 H 22.408203 V 16.498047 H 22.300781 V 16.392578 H 22.193359 V 16.285156 H 22.085938 V 16.175781 H 21.976562 V 16.068359 H 21.867188 V 15.958984 H 21.757812 V 15.847656 H 21.646484 V 15.736328 H 21.535156 V 15.625 h -0.113281 v -0.111328 h -0.113281 v -0.113281 h -0.113282 v -0.115235 h -0.115234 v -0.113281 h -0.115234 v -0.117187 h -0.117188 v -0.115235 h -0.117187 v -0.117187 h -0.117188 v -0.117188 h -0.117187 v -0.11914 h -0.119141 v -0.119141 h -0.121094 v -0.119141 h -0.121093 v -0.121094 h -0.121094 v -0.121093 h -0.121094 v -0.123047 h -0.123047 v -0.123047 h -0.125 v -0.123047 h -0.123047 v -0.125 h -0.125 v -0.125 h -0.126953 v -0.125 h -0.126953 v -0.126953 h -0.126953 v -0.126953 h -0.126953 v -0.128906 h -0.128906 v -0.128907 h -0.13086 V 12.720703 H 18.5 v -0.130859 h -0.130859 v -0.13086 H 18.236328 V 12.328125 H 18.103516 V 12.195312 H 17.970703 V 12.060547 H 17.835938 V 11.927734 H 17.701172 V 11.792969 H 17.566406 V 11.65625 H 17.429688 V 11.521484 H 17.292969 V 11.384766 H 17.154297 V 11.246094 H 17.017578 V 11.107422 H 16.876953 V 10.96875 H 16.738281 V 10.828125 H 16.597656 V 10.6875 H 16.455078 V 10.546875 H 16.3125 V 10.404297 H 16.169922 V 10.261719 H 16.027344 V 10.117188 H 15.882812 V 9.9726562 H 15.736328 V 9.828125 H 15.591797 V 9.6816406 H 15.445312 V 9.5351562 H 15.296875 V 9.3886719 H 15.148438 V 9.2402344 h -4.328126 c -0.02774,-0.027705 -0.05898,-0.051632 -0.08789,-0.078125 -0.04684,-0.049855 -0.09409,-0.098318 -0.144531,-0.1445313 -0.04684,-0.049855 -0.09409,-0.098318 -0.144532,-0.1445312 -0.04642,-0.049412 -0.09262,-0.098696 -0.142578,-0.1445313 -0.04768,-0.050907 -0.097,-0.099362 -0.148437,-0.1464844 C 10.10527,8.5318225 10.058537,8.482071 10.007812,8.4355469 9.9601158,8.3846098 9.9108251,8.3362121 9.859375,8.2890625 9.3626755,7.7582119 8.6612342,7.421875 7.8769531,7.421875 Z"
       id="path6255"
       style="opacity:0.2;fill:url(#linearGradient7102);fill-opacity:1"
       clip-path="url(#clipPath7107)"
       inkscape:connector-curvature="0" />
    <path
       d="M 3.9999777,4.0333382 H 15.999978 V 15.966671 H 3.9999777 Z"
       id="path4"
       inkscape:connector-curvature="0"
       style="fill:none" />
    <path
       style="fill:none"
       inkscape:connector-curvature="0"
       id="path9754"
       d="m 18.999978,19.033339 h 12 v 11.933333 h -12 z" />
    <path
       inkscape:connector-curvature="0"
       d="m 7.7272508,10.909096 a 0.9090909,0.9090909 0 0 1 -0.909091,-0.909091 0.9090909,0.9090909 0 0 1 0.909091,-0.9090912 0.9090909,0.9090909 0 0 1 0.90909,0.9090912 0.9090909,0.9090909 0 0 1 -0.90909,0.909091 M 10.295432,9.0909138 C 9.9227048,8.031823 8.9136138,7.2727321 7.7272508,7.2727321 a 2.7272727,2.7272727 0 0 0 -2.7272732,2.7272729 2.7272727,2.7272727 0 0 0 2.7272732,2.727272 c 1.186363,0 2.195454,-0.75909 2.5681812,-1.818181 h 1.977273 v 1.818181 h 1.818182 v -1.818181 h 0.909091 V 9.0909138 Z"
       id="path6199"
       style="fill:#ffc107" />
  </g>
</svg>
