<?xml version="1.0" encoding="UTF-8" standalone="no"?>
<!-- Created with Inkscape (http://www.inkscape.org/) -->

<svg
   xmlns:dc="http://purl.org/dc/elements/1.1/"
   xmlns:cc="http://creativecommons.org/ns#"
   xmlns:rdf="http://www.w3.org/1999/02/22-rdf-syntax-ns#"
   xmlns:svg="http://www.w3.org/2000/svg"
   xmlns="http://www.w3.org/2000/svg"
   xmlns:xlink="http://www.w3.org/1999/xlink"
   xmlns:sodipodi="http://sodipodi.sourceforge.net/DTD/sodipodi-0.dtd"
   xmlns:inkscape="http://www.inkscape.org/namespaces/inkscape"
   sodipodi:docname="Keepass.svg"
   inkscape:version="0.91 r13725"
   version="1.1"
   id="svg2"
   viewBox="0 0 20 20"
   height="5.6444445mm"
   width="5.6444445mm"
   inkscape:export-filename="/home/juergen/Schreibtisch/qdad.png"
   inkscape:export-xdpi="648"
   inkscape:export-ydpi="648">
  <sodipodi:namedview
     inkscape:snap-to-guides="true"
     inkscape:snap-grids="true"
     inkscape:window-maximized="1"
     inkscape:window-y="0"
     inkscape:window-x="0"
     inkscape:window-height="726"
     inkscape:window-width="1366"
     inkscape:guide-bbox="true"
     showguides="true"
     fit-margin-bottom="0"
     fit-margin-right="0"
     fit-margin-left="0"
     fit-margin-top="0"
     showgrid="true"
     inkscape:current-layer="layer2"
     inkscape:document-units="px"
     inkscape:cy="12.679398"
     inkscape:cx="-3.6097144"
     inkscape:zoom="15.839192"
     inkscape:pageshadow="2"
     inkscape:pageopacity="0.0"
     borderopacity="1.0"
     bordercolor="#666666"
     pagecolor="#ffffff"
     id="base">
    <inkscape:grid
       type="xygrid"
       id="grid4138" />
    <sodipodi:guide
       position="10,18"
       orientation="0,1"
       id="guide4140" />
    <sodipodi:guide
       position="10,2"
       orientation="0,1"
       id="guide4142" />
    <sodipodi:guide
       position="2,10"
       orientation="1,0"
       id="guide4144" />
    <sodipodi:guide
       position="0,0"
       orientation="0,20"
       id="guide4146" />
    <sodipodi:guide
       position="20,0"
       orientation="-20,0"
       id="guide4148" />
    <sodipodi:guide
       position="20,20"
       orientation="0,-20"
       id="guide4150" />
    <sodipodi:guide
       position="0,20"
       orientation="20,0"
       id="guide4152" />
    <sodipodi:guide
       position="18,10"
       orientation="1,0"
       id="guide4154" />
    <sodipodi:guide
       position="10,10"
       orientation="-0.70710678,0.70710678"
       id="guide4156" />
    <sodipodi:guide
       position="10,10"
       orientation="0.70710678,0.70710678"
       id="guide4158" />
    <sodipodi:guide
       position="4,10"
       orientation="1,0"
       id="guide4160" />
    <sodipodi:guide
       position="16,10"
       orientation="1,0"
       id="guide4162" />
    <sodipodi:guide
       position="10,16"
       orientation="0,1"
       id="guide4164" />
    <sodipodi:guide
       position="10,4"
       orientation="0,1"
       id="guide4166" />
    <sodipodi:guide
       position="10,15"
       orientation="0,1"
       id="guide4168" />
    <sodipodi:guide
       position="10,5"
       orientation="0,1"
       id="guide4170" />
    <sodipodi:guide
       position="5,10"
       orientation="1,0"
       id="guide4172" />
    <sodipodi:guide
       position="15,10"
       orientation="1,0"
       id="guide4174" />
  </sodipodi:namedview>
  <defs
     id="defs4">
    <linearGradient
       inkscape:collect="always"
       id="linearGradient7096">
      <stop
         style="stop-color:#000000;stop-opacity:1;"
         offset="0"
         id="stop7098" />
      <stop
         style="stop-color:#000000;stop-opacity:0;"
         offset="1"
         id="stop7100" />
    </linearGradient>
    <clipPath
       id="clipPath12478"
       clipPathUnits="userSpaceOnUse">
      <circle
         r="10"
         cy="10.000005"
         cx="9.9999781"
         id="circle12480"
         style="opacity:1;fill:#2196f3;fill-opacity:1;stroke:none;stroke-width:0.05069799;stroke-miterlimit:4;stroke-dasharray:none;stroke-opacity:1" />
    </clipPath>
    <clipPath
       clipPathUnits="userSpaceOnUse"
       id="clipPath13251">
      <circle
         r="10"
         cy="10.000005"
         cx="9.9999781"
         id="circle13253"
         style="opacity:1;fill:#2196f3;fill-opacity:1;stroke:none;stroke-width:0.05069799;stroke-miterlimit:4;stroke-dasharray:none;stroke-opacity:1"
         inkscape:export-filename="/home/juergen/path4136.png"
         inkscape:export-xdpi="648"
         inkscape:export-ydpi="648" />
    </clipPath>
    <clipPath
       id="clipPath5054"
       clipPathUnits="userSpaceOnUse">
      <circle
         r="10"
         cy="10.000005"
         cx="9.9999781"
         id="circle5056"
         style="opacity:1;fill:#2196f3;fill-opacity:1;stroke:none;stroke-width:0.05069799;stroke-miterlimit:4;stroke-dasharray:none;stroke-opacity:1"
         inkscape:export-filename="/home/juergen/path4136.png"
         inkscape:export-xdpi="648"
         inkscape:export-ydpi="648" />
    </clipPath>
    <clipPath
       clipPathUnits="userSpaceOnUse"
       id="clipPath5149">
      <circle
         r="10"
         cy="10.000005"
         cx="9.9999781"
         id="circle5151"
         style="opacity:1;fill:#3f51b5;fill-opacity:1;stroke:none;stroke-width:0.05069799;stroke-miterlimit:4;stroke-dasharray:none;stroke-opacity:1"
         inkscape:export-filename="/home/juergen/Schreibtisch/qqq.png"
         inkscape:export-xdpi="648"
         inkscape:export-ydpi="648" />
    </clipPath>
    <clipPath
       id="clipPath6126"
       clipPathUnits="userSpaceOnUse">
      <circle
         r="10"
         cy="10.000005"
         cx="9.9999781"
         id="circle6128"
         style="opacity:1;fill:#9ccc65;fill-opacity:1;stroke:none;stroke-width:0.05069799;stroke-miterlimit:4;stroke-dasharray:none;stroke-opacity:1"
         inkscape:export-filename="/home/juergen/Schreibtisch/qqq.png"
         inkscape:export-xdpi="648"
         inkscape:export-ydpi="648" />
    </clipPath>
    <linearGradient
       inkscape:collect="always"
       xlink:href="#linearGradient7096"
       id="linearGradient7102"
       x1="10"
       y1="10"
       x2="20"
       y2="20"
       gradientUnits="userSpaceOnUse" />
    <clipPath
       clipPathUnits="userSpaceOnUse"
       id="clipPath7107">
      <circle
         r="10"
         cy="10.000005"
         cx="9.9999781"
         id="circle7109"
         style="opacity:1;fill:#f44336;fill-opacity:1;stroke:none;stroke-width:0.05069799;stroke-miterlimit:4;stroke-dasharray:none;stroke-opacity:1"
         inkscape:export-filename="/home/juergen/Schreibtisch/qqq.png"
         inkscape:export-xdpi="648"
         inkscape:export-ydpi="648" />
    </clipPath>
  </defs>
  <metadata
     id="metadata7">
    <rdf:RDF>
      <cc:Work
         rdf:about="">
        <dc:format>image/svg+xml</dc:format>
        <dc:type
           rdf:resource="http://purl.org/dc/dcmitype/StillImage" />
        <dc:title />
      </cc:Work>
    </rdf:RDF>
  </metadata>
  <g
     inkscape:label="Hintergrund"
     inkscape:groupmode="layer"
     id="layer1"
     transform="translate(1058.1428,-861.93365)">
    <circle
       inkscape:export-ydpi="648"
       inkscape:export-xdpi="648"
       inkscape:export-filename="/home/juergen/Schreibtisch/qqq.png"
       style="opacity:1;fill:#f44336;fill-opacity:1;stroke:none;stroke-width:0.05069799;stroke-miterlimit:4;stroke-dasharray:none;stroke-opacity:1"
       id="path4136"
       cx="-1048.1428"
       cy="871.93365"
       r="10" />
  </g>
  <g
     style="display:inline"
     inkscape:groupmode="layer"
     id="layer2"
     inkscape:label="Icon">
    <path
       d="m 3.9999777,4.0333382 12.0000003,0 0,11.9333328 -12.0000003,0 z"
       id="path4"
       inkscape:connector-curvature="0"
       style="fill:none" />
    <path
       style="fill:none"
       inkscape:connector-curvature="0"
       id="path9754"
       d="m 18.999978,19.033339 12,0 0,11.933333 -12,0 z" />
    <path
       inkscape:connector-curvature="0"
       d="m 7.7272508,10.909096 a 0.9090909,0.9090909 0 0 1 -0.909091,-0.909091 0.9090909,0.9090909 0 0 1 0.909091,-0.9090912 0.9090909,0.9090909 0 0 1 0.90909,0.9090912 0.9090909,0.9090909 0 0 1 -0.90909,0.909091 M 10.295432,9.0909138 C 9.9227048,8.031823 8.9136138,7.2727321 7.7272508,7.2727321 a 2.7272727,2.7272727 0 0 0 -2.7272732,2.7272729 2.7272727,2.7272727 0 0 0 2.7272732,2.727272 c 1.186363,0 2.195454,-0.75909 2.5681812,-1.818181 l 1.977273,0 0,1.818181 1.818182,0 0,-1.818181 0.909091,0 0,-1.8181822 -4.704546,0 z"
       id="path6199" />
    <path
       d="M 7.8769531 7.421875 C 7.1536352 7.4218748 6.4587286 7.7092402 5.9472656 8.2207031 C 5.4358027 8.732166 5.1484374 9.4251201 5.1484375 10.148438 C 5.1484377 10.941513 5.4927831 11.650098 6.0332031 12.148438 C 6.0795795 12.198282 6.1277794 12.244756 6.1777344 12.291016 C 6.2252437 12.34232 6.2729307 12.391926 6.3242188 12.439453 C 6.370111 12.488957 6.4173807 12.536046 6.4667969 12.582031 C 6.5158256 12.635093 6.5660787 12.685346 6.6191406 12.734375 C 6.665135 12.783791 6.7122055 12.831062 6.7617188 12.876953 C 6.8064651 12.925124 6.8523014 12.970792 6.9003906 13.015625 C 6.947833 13.06697 6.9956522 13.11649 7.046875 13.164062 C 7.0928569 13.213573 7.1399431 13.260659 7.1894531 13.306641 C 7.2366831 13.357494 7.2849883 13.405996 7.3359375 13.453125 C 7.3798425 13.50015 7.4255549 13.544067 7.4726562 13.587891 C 7.5170088 13.635638 7.5617372 13.682094 7.609375 13.726562 C 7.6568966 13.777833 7.7065153 13.825553 7.7578125 13.873047 C 7.7998559 13.918037 7.8417447 13.961846 7.8867188 14.003906 C 7.933617 14.054505 7.9826262 14.101517 8.0332031 14.148438 C 8.0751929 14.193379 8.1171954 14.237278 8.1621094 14.279297 C 8.2086653 14.329526 8.2564587 14.377222 8.3066406 14.423828 C 8.3483123 14.46838 8.3909992 14.511058 8.4355469 14.552734 C 8.4802808 14.600901 8.5261429 14.646576 8.5742188 14.691406 C 8.6184232 14.738811 8.6634877 14.783968 8.7109375 14.828125 C 8.7519841 14.872008 8.7940525 14.913984 8.8378906 14.955078 C 8.8832485 15.003916 8.9297233 15.050297 8.9785156 15.095703 C 9.0202747 15.140265 9.0627826 15.182931 9.1074219 15.224609 C 9.1500714 15.270289 9.1945662 15.312807 9.2402344 15.355469 C 9.281259 15.399368 9.3214175 15.443263 9.3652344 15.484375 C 9.4096994 15.532103 9.4561537 15.576655 9.5039062 15.621094 C 9.5447612 15.664589 9.5872554 15.705353 9.6308594 15.746094 C 9.6710177 15.78898 9.7110787 15.830873 9.7539062 15.871094 C 9.7962346 15.916487 9.8394579 15.959534 9.8847656 16.001953 C 9.925931 16.045922 9.9677497 16.087741 10.011719 16.128906 C 10.054138 16.174214 10.097185 16.217437 10.142578 16.259766 C 10.181876 16.30152 10.221835 16.341648 10.263672 16.380859 C 10.302937 16.422754 10.34295 16.462604 10.384766 16.501953 C 10.427421 16.547606 10.469953 16.59213 10.515625 16.634766 C 10.554602 16.676134 10.595247 16.715038 10.636719 16.753906 C 10.675002 16.794663 10.713205 16.834705 10.753906 16.873047 C 10.794364 16.916299 10.835736 16.957503 10.878906 16.998047 C 10.918195 17.039881 10.958166 17.079852 11 17.119141 C 11.040544 17.162311 11.081748 17.203683 11.125 17.244141 C 11.162462 17.28382 11.200473 17.321999 11.240234 17.359375 C 11.277325 17.39882 11.31611 17.435475 11.355469 17.472656 C 11.395037 17.514919 11.434402 17.556028 11.476562 17.595703 C 11.514636 17.636162 11.553291 17.674817 11.59375 17.712891 C 11.632797 17.754384 11.67329 17.793049 11.714844 17.832031 C 11.75141 17.870734 11.787416 17.908802 11.826172 17.945312 C 11.863543 17.984983 11.901739 18.023172 11.941406 18.060547 C 11.978781 18.100214 12.016971 18.13841 12.056641 18.175781 C 12.093177 18.214493 12.131196 18.250588 12.169922 18.287109 C 12.206783 18.326208 12.24411 18.363523 12.283203 18.400391 C 12.319682 18.439072 12.355867 18.477175 12.394531 18.513672 C 12.430684 18.551971 12.467563 18.588844 12.505859 18.625 C 12.540755 18.661962 12.576387 18.697456 12.613281 18.732422 C 12.650098 18.771545 12.687514 18.808809 12.726562 18.845703 C 12.763457 18.884752 12.800721 18.922168 12.839844 18.958984 C 12.872325 18.993187 12.905253 19.02611 12.939453 19.058594 C 12.975925 19.09735 13.012119 19.135305 13.050781 19.171875 C 13.087005 19.210172 13.123739 19.247056 13.162109 19.283203 C 13.195244 19.318051 13.230705 19.349753 13.265625 19.382812 C 13.300002 19.419125 13.334784 19.453901 13.371094 19.488281 C 13.404153 19.523196 13.435855 19.558667 13.470703 19.591797 C 13.50563 19.628797 13.541196 19.664218 13.578125 19.699219 C 13.612841 19.735848 13.648863 19.770028 13.685547 19.804688 C 13.716843 19.837577 13.748361 19.869095 13.78125 19.900391 C 13.816539 19.937741 13.851341 19.974456 13.888672 20.009766 C 13.920512 20.04319 13.952842 20.075646 13.986328 20.107422 C 14.01912 20.141978 14.053345 20.174229 14.087891 20.207031 C 14.118764 20.239537 14.149212 20.27178 14.181641 20.302734 C 14.216604 20.339699 14.252098 20.375192 14.289062 20.410156 C 14.319717 20.442271 14.350636 20.473316 14.382812 20.503906 C 14.413403 20.536083 14.444448 20.567002 14.476562 20.597656 C 14.510648 20.63362 14.546049 20.667106 14.582031 20.701172 C 14.610472 20.730936 14.638218 20.760608 14.667969 20.789062 C 14.701708 20.824661 14.735886 20.858839 14.771484 20.892578 C 14.800858 20.923289 14.83056 20.953108 14.861328 20.982422 C 14.89194 21.014561 14.922943 21.045556 14.955078 21.076172 C 14.985658 21.108269 15.016729 21.139344 15.048828 21.169922 C 15.078552 21.201065 15.109469 21.230055 15.140625 21.259766 C 15.170679 21.29129 15.200901 21.321504 15.232422 21.351562 C 15.262097 21.382682 15.291161 21.413669 15.322266 21.443359 C 15.351653 21.474146 15.381322 21.503816 15.412109 21.533203 C 15.441456 21.563944 15.471211 21.593702 15.501953 21.623047 C 15.529115 21.651448 15.555628 21.679823 15.583984 21.707031 C 15.615536 21.740218 15.648468 21.771167 15.681641 21.802734 C 15.708577 21.830784 15.735568 21.857886 15.763672 21.884766 C 15.791812 21.91419 15.820188 21.942559 15.849609 21.970703 C 15.877718 22.000092 15.90616 22.02853 15.935547 22.056641 C 15.963055 22.085398 15.990799 22.113092 16.019531 22.140625 C 16.045738 22.168022 16.07229 22.194416 16.099609 22.220703 C 16.129659 22.252218 16.159892 22.282451 16.191406 22.3125 C 16.217098 22.3392 16.242779 22.364987 16.269531 22.390625 C 16.294822 22.417015 16.319378 22.443392 16.345703 22.46875 C 16.375074 22.49952 16.404777 22.529223 16.435547 22.558594 C 16.460872 22.584881 16.487318 22.609509 16.513672 22.634766 C 16.539332 22.661484 16.565076 22.687233 16.591797 22.712891 C 16.616187 22.738292 16.640666 22.762666 16.666016 22.787109 C 16.694482 22.816904 16.722174 22.846518 16.751953 22.875 C 16.774407 22.898263 16.79705 22.920904 16.820312 22.943359 C 16.846831 22.971085 16.872733 22.998801 16.900391 23.025391 C 16.926345 23.052387 16.953432 23.077603 16.980469 23.103516 C 17.00423 23.128133 17.028069 23.152069 17.052734 23.175781 C 17.076811 23.200778 17.101946 23.223981 17.126953 23.248047 C 17.149721 23.271708 17.17171 23.29553 17.195312 23.318359 C 17.22059 23.344735 17.245174 23.37114 17.271484 23.396484 C 17.296829 23.422795 17.323234 23.447379 17.349609 23.472656 C 17.369582 23.493267 17.389547 23.513229 17.410156 23.533203 C 17.435148 23.55928 17.460327 23.584305 17.486328 23.609375 C 17.510761 23.634716 17.535157 23.659211 17.560547 23.683594 C 17.58177 23.705494 17.603059 23.726866 17.625 23.748047 C 17.64748 23.771339 17.67007 23.793924 17.693359 23.816406 C 17.714571 23.838382 17.735879 23.859604 17.757812 23.880859 C 17.780949 23.904904 17.804127 23.927987 17.828125 23.951172 C 17.851309 23.97517 17.874393 23.998348 17.898438 24.021484 C 17.917131 24.040735 17.935828 24.059431 17.955078 24.078125 C 17.979137 24.103128 18.002354 24.128271 18.027344 24.152344 C 18.046994 24.172559 18.067627 24.191337 18.087891 24.210938 C 18.108481 24.232225 18.129122 24.252828 18.150391 24.273438 C 18.169681 24.293381 18.189099 24.312682 18.208984 24.332031 C 18.232145 24.356052 18.255276 24.379183 18.279297 24.402344 C 18.298036 24.421603 18.31664 24.440284 18.335938 24.458984 C 18.354289 24.477921 18.371735 24.497225 18.390625 24.515625 C 18.413099 24.538909 18.435701 24.56151 18.458984 24.583984 C 18.475439 24.600876 18.492881 24.61635 18.509766 24.632812 C 18.531676 24.655491 18.553493 24.677308 18.576172 24.699219 C 18.593622 24.717118 18.610973 24.734538 18.628906 24.751953 C 18.6476 24.771204 18.666297 24.7899 18.685547 24.808594 C 18.704241 24.827844 18.722937 24.846541 18.742188 24.865234 C 18.759931 24.883472 18.776678 24.902185 18.794922 24.919922 C 18.812927 24.938444 18.831088 24.956603 18.849609 24.974609 C 18.867346 24.992854 18.886059 25.0096 18.904297 25.027344 C 18.921732 25.045261 18.939113 25.062644 18.957031 25.080078 C 18.974136 25.097657 18.990242 25.115699 19.007812 25.132812 C 19.024557 25.150003 19.041404 25.166848 19.058594 25.183594 C 19.075339 25.200784 19.092185 25.217629 19.109375 25.234375 C 19.12583 25.251267 19.143271 25.266741 19.160156 25.283203 C 19.176329 25.299792 19.192396 25.315858 19.208984 25.332031 C 19.223549 25.34697 19.237052 25.362351 19.251953 25.376953 C 19.269037 25.394546 19.285186 25.412559 19.302734 25.429688 C 19.31823 25.445564 19.333733 25.461067 19.349609 25.476562 C 19.366738 25.494111 19.384751 25.51026 19.402344 25.527344 C 19.415951 25.5412 19.429461 25.554795 19.443359 25.568359 C 19.456293 25.581583 19.469224 25.594462 19.482422 25.607422 C 19.498244 25.623683 19.513076 25.640386 19.529297 25.65625 C 19.543526 25.6708 19.557716 25.684989 19.572266 25.699219 C 19.587777 25.715079 19.603249 25.730614 19.619141 25.746094 C 19.631425 25.75859 19.643729 25.770944 19.65625 25.783203 C 19.670123 25.797373 19.685041 25.810353 19.699219 25.824219 C 19.712167 25.837431 19.725068 25.850333 19.738281 25.863281 C 19.751229 25.876494 19.764131 25.889395 19.777344 25.902344 C 19.790292 25.915557 19.803194 25.928458 19.816406 25.941406 C 19.829018 25.954275 19.840653 25.967851 19.853516 25.980469 C 19.86612 25.993317 19.879723 26.004981 19.892578 26.017578 C 19.90427 26.029485 19.915827 26.041043 19.927734 26.052734 C 19.939412 26.064627 19.950999 26.076213 19.962891 26.087891 C 19.974582 26.099798 19.98614 26.111355 19.998047 26.123047 C 20.009373 26.134581 20.019722 26.146871 20.03125 26.158203 C 20.042243 26.169387 20.05327 26.180412 20.064453 26.191406 C 20.07351 26.20062 20.082611 26.209665 20.091797 26.21875 C 20.106026 26.2333 20.120216 26.247489 20.134766 26.261719 C 20.141914 26.268947 20.149022 26.276055 20.15625 26.283203 C 20.169211 26.296429 20.182087 26.309305 20.195312 26.322266 C 20.203762 26.33081 20.212142 26.339224 20.220703 26.347656 C 20.228491 26.355563 20.236257 26.363282 20.244141 26.371094 C 20.257101 26.384319 20.269978 26.397196 20.283203 26.410156 C 20.290714 26.417736 20.299042 26.424149 20.306641 26.431641 C 20.314128 26.439235 20.32055 26.447572 20.328125 26.455078 C 20.338177 26.465315 20.347211 26.476251 20.357422 26.486328 C 20.367499 26.496539 20.378435 26.505573 20.388672 26.515625 C 20.393252 26.520238 20.397731 26.524717 20.402344 26.529297 C 20.412106 26.539238 20.421729 26.548802 20.431641 26.558594 C 20.440788 26.567854 20.449706 26.576809 20.458984 26.585938 C 20.463565 26.590551 20.468043 26.595029 20.472656 26.599609 C 20.482718 26.609836 20.491732 26.620792 20.501953 26.630859 C 20.505537 26.634465 20.510068 26.637039 20.513672 26.640625 C 20.522094 26.649185 20.528575 26.65952 20.537109 26.667969 C 20.54356 26.674484 20.550125 26.681049 20.556641 26.6875 C 20.5628 26.693722 20.569953 26.698916 20.576172 26.705078 C 20.582043 26.711003 20.587825 26.716785 20.59375 26.722656 C 20.600912 26.729884 20.607992 26.736993 20.615234 26.744141 C 20.617821 26.746738 20.62045 26.749366 20.623047 26.751953 C 20.631483 26.7605 20.63989 26.768908 20.648438 26.777344 C 20.648438 26.777344 20.650391 26.779297 20.650391 26.779297 C 20.650391 26.779297 20.652344 26.78125 20.652344 26.78125 C 20.658847 26.78784 20.665305 26.794258 20.671875 26.800781 C 20.677752 26.806701 20.683522 26.812494 20.689453 26.818359 C 20.689453 26.818359 20.691406 26.820312 20.691406 26.820312 C 20.691406 26.820312 20.693359 26.822266 20.693359 26.822266 C 20.698871 26.827839 20.703425 26.834318 20.708984 26.839844 C 20.71451 26.845403 20.720989 26.849957 20.726562 26.855469 C 20.728215 26.857121 20.730765 26.857727 20.732422 26.859375 C 20.73407 26.861032 20.734676 26.863582 20.736328 26.865234 C 20.737989 26.866879 20.740522 26.8675 20.742188 26.869141 C 20.745126 26.872094 20.747048 26.875966 20.75 26.878906 C 20.752587 26.881503 20.755215 26.884132 20.757812 26.886719 C 20.759108 26.888019 20.760421 26.889327 20.761719 26.890625 C 20.763018 26.891914 20.764323 26.893245 20.765625 26.894531 C 20.766916 26.895828 20.768237 26.897144 20.769531 26.898438 C 20.769531 26.898438 20.771484 26.900391 20.771484 26.900391 C 20.771484 26.900391 20.773438 26.900391 20.773438 26.900391 C 20.773438 26.900391 20.773438 26.902344 20.773438 26.902344 C 20.773438 26.902344 20.775391 26.904297 20.775391 26.904297 C 20.77668 26.905601 20.779958 26.908855 20.78125 26.910156 C 20.78125 26.910156 20.78125 26.912109 20.78125 26.912109 C 20.782519 26.913383 20.785838 26.916698 20.787109 26.917969 C 20.787109 26.917969 20.789062 26.919922 20.789062 26.919922 C 20.789062 26.919922 20.791016 26.919922 20.791016 26.919922 C 20.791016 26.919922 20.792969 26.921875 20.792969 26.921875 C 20.792969 26.921875 20.794922 26.923828 20.794922 26.923828 C 20.794922 26.923828 20.794922 26.925781 20.794922 26.925781 C 20.795216 26.926076 20.796581 26.925487 20.796875 26.925781 C 20.796875 26.925781 20.796875 26.927734 20.796875 26.927734 C 20.797169 26.928029 20.798534 26.92744 20.798828 26.927734 C 20.837163 26.965951 20.883285 26.995356 20.923828 27.03125 C 21.133977 27.217875 21.368312 27.377152 21.628906 27.492188 C 21.640446 27.497273 21.652439 27.506789 21.664062 27.511719 C 21.664594 27.511944 21.665484 27.511494 21.666016 27.511719 C 21.716463 27.533016 21.772276 27.542253 21.824219 27.560547 C 22.108307 27.660844 22.408141 27.726562 22.726562 27.726562 C 22.874858 27.726562 23.02025 27.714231 23.162109 27.691406 C 23.729545 27.600107 24.238139 27.333984 24.630859 26.949219 C 24.925399 26.660645 25.155149 26.305362 25.294922 25.908203 L 25.453125 25.908203 L 25.505859 25.908203 L 25.505859 25.958984 L 25.556641 25.958984 L 25.556641 26.009766 L 25.605469 26.009766 L 25.605469 26.060547 L 25.65625 26.060547 L 25.65625 26.109375 L 25.703125 26.109375 L 25.703125 26.158203 L 25.751953 26.158203 L 25.751953 26.207031 L 25.798828 26.207031 L 25.798828 26.253906 L 25.845703 26.253906 L 25.845703 26.300781 L 25.890625 26.300781 L 25.890625 26.345703 L 25.935547 26.345703 L 25.935547 26.390625 L 25.980469 26.390625 L 25.980469 26.435547 L 26.023438 26.435547 L 26.023438 26.478516 L 26.066406 26.478516 L 26.066406 26.521484 L 26.107422 26.521484 L 26.107422 26.5625 L 26.150391 26.5625 L 26.150391 26.603516 L 26.189453 26.603516 L 26.189453 26.644531 L 26.230469 26.644531 L 26.230469 26.683594 L 26.269531 26.683594 L 26.269531 26.722656 L 26.306641 26.722656 L 26.306641 26.761719 L 26.34375 26.761719 L 26.34375 26.798828 L 26.380859 26.798828 L 26.380859 26.835938 L 26.417969 26.835938 L 26.417969 26.871094 L 26.453125 26.871094 L 26.453125 26.90625 L 26.486328 26.90625 L 26.486328 26.941406 L 26.521484 26.941406 L 26.521484 26.974609 L 26.554688 26.974609 L 26.554688 27.007812 L 26.585938 27.007812 L 26.585938 27.041016 L 26.617188 27.041016 L 26.617188 27.072266 L 26.648438 27.072266 L 26.648438 27.103516 L 26.677734 27.103516 L 26.677734 27.132812 L 26.707031 27.132812 L 26.707031 27.162109 L 26.736328 27.162109 L 26.736328 27.191406 L 26.763672 27.191406 L 26.763672 27.21875 L 26.791016 27.21875 L 26.791016 27.246094 L 26.818359 27.246094 L 26.818359 27.273438 L 26.84375 27.273438 L 26.84375 27.298828 L 26.869141 27.298828 L 26.869141 27.322266 L 26.892578 27.322266 L 26.892578 27.347656 L 26.916016 27.347656 L 26.916016 27.371094 L 26.939453 27.371094 L 26.939453 27.392578 L 26.960938 27.392578 L 26.960938 27.414062 L 26.982422 27.414062 L 26.982422 27.435547 L 27.001953 27.435547 L 27.001953 27.457031 L 27.021484 27.457031 L 27.021484 27.476562 L 27.041016 27.476562 L 27.041016 27.496094 L 27.058594 27.496094 L 27.058594 27.513672 L 27.076172 27.513672 L 27.076172 27.53125 L 27.09375 27.53125 L 27.09375 27.546875 L 27.109375 27.546875 L 27.109375 27.564453 L 27.125 27.564453 L 27.125 27.578125 L 27.138672 27.578125 L 27.138672 27.59375 L 27.152344 27.59375 L 27.152344 27.607422 L 27.166016 27.607422 L 27.166016 27.619141 L 27.177734 27.619141 L 27.177734 27.632812 L 27.189453 27.632812 L 27.189453 27.644531 L 27.199219 27.644531 L 27.199219 27.654297 L 27.208984 27.654297 L 27.208984 27.664062 L 27.21875 27.664062 L 27.21875 27.673828 L 27.228516 27.673828 L 27.228516 27.681641 L 27.236328 27.681641 L 27.236328 27.689453 L 27.242188 27.689453 L 27.242188 27.697266 L 27.248047 27.697266 L 27.248047 27.703125 L 27.253906 27.703125 L 27.253906 27.708984 L 27.259766 27.708984 L 27.259766 27.714844 L 27.263672 27.714844 L 27.263672 27.71875 L 27.267578 27.71875 L 27.267578 27.720703 L 27.269531 27.720703 L 27.269531 27.724609 L 27.271484 27.724609 L 27.271484 27.726562 L 29.089844 27.726562 L 29.089844 25.908203 L 29.998047 25.908203 L 30 25.908203 L 30 24.089844 L 29.998047 24.089844 L 29.996094 24.089844 L 29.996094 24.087891 L 29.994141 24.087891 L 29.994141 24.085938 L 29.990234 24.085938 L 29.990234 24.082031 L 29.986328 24.082031 L 29.986328 24.078125 L 29.982422 24.078125 L 29.982422 24.072266 L 29.976562 24.072266 L 29.976562 24.066406 L 29.970703 24.066406 L 29.970703 24.060547 L 29.962891 24.060547 L 29.962891 24.054688 L 29.955078 24.054688 L 29.955078 24.046875 L 29.947266 24.046875 L 29.947266 24.037109 L 29.9375 24.037109 L 29.9375 24.027344 L 29.927734 24.027344 L 29.927734 24.017578 L 29.916016 24.017578 L 29.916016 24.007812 L 29.904297 24.007812 L 29.904297 23.996094 L 29.892578 23.996094 L 29.892578 23.984375 L 29.878906 23.984375 L 29.878906 23.970703 L 29.865234 23.970703 L 29.865234 23.957031 L 29.851562 23.957031 L 29.851562 23.943359 L 29.835938 23.943359 L 29.835938 23.927734 L 29.820312 23.927734 L 29.820312 23.912109 L 29.802734 23.912109 L 29.802734 23.894531 L 29.785156 23.894531 L 29.785156 23.876953 L 29.767578 23.876953 L 29.767578 23.859375 L 29.748047 23.859375 L 29.748047 23.839844 L 29.728516 23.839844 L 29.728516 23.820312 L 29.708984 23.820312 L 29.708984 23.800781 L 29.6875 23.800781 L 29.6875 23.779297 L 29.666016 23.779297 L 29.666016 23.755859 L 29.642578 23.755859 L 29.642578 23.734375 L 29.619141 23.734375 L 29.619141 23.710938 L 29.595703 23.710938 L 29.595703 23.6875 L 29.570312 23.6875 L 29.570312 23.662109 L 29.544922 23.662109 L 29.544922 23.636719 L 29.519531 23.636719 L 29.519531 23.609375 L 29.492188 23.609375 L 29.492188 23.582031 L 29.462891 23.582031 L 29.462891 23.554688 L 29.435547 23.554688 L 29.435547 23.525391 L 29.40625 23.525391 L 29.40625 23.496094 L 29.375 23.496094 L 29.375 23.466797 L 29.345703 23.466797 L 29.345703 23.435547 L 29.314453 23.435547 L 29.314453 23.404297 L 29.28125 23.404297 L 29.28125 23.373047 L 29.248047 23.373047 L 29.248047 23.339844 L 29.214844 23.339844 L 29.214844 23.304688 L 29.179688 23.304688 L 29.179688 23.271484 L 29.144531 23.271484 L 29.144531 23.236328 L 29.109375 23.236328 L 29.109375 23.199219 L 29.072266 23.199219 L 29.072266 23.162109 L 29.035156 23.162109 L 29.035156 23.125 L 28.996094 23.125 L 28.996094 23.087891 L 28.957031 23.087891 L 28.957031 23.048828 L 28.917969 23.048828 L 28.917969 23.007812 L 28.876953 23.007812 L 28.876953 22.96875 L 28.835938 22.96875 L 28.835938 22.925781 L 28.792969 22.925781 L 28.792969 22.884766 L 28.751953 22.884766 L 28.751953 22.841797 L 28.707031 22.841797 L 28.707031 22.798828 L 28.664062 22.798828 L 28.664062 22.753906 L 28.619141 22.753906 L 28.619141 22.708984 L 28.572266 22.708984 L 28.572266 22.664062 L 28.527344 22.664062 L 28.527344 22.617188 L 28.478516 22.617188 L 28.478516 22.570312 L 28.431641 22.570312 L 28.431641 22.521484 L 28.382812 22.521484 L 28.382812 22.472656 L 28.333984 22.472656 L 28.333984 22.423828 L 28.283203 22.423828 L 28.283203 22.375 L 28.232422 22.375 L 28.232422 22.324219 L 28.181641 22.324219 L 28.181641 22.271484 L 28.128906 22.271484 L 28.128906 22.21875 L 28.076172 22.21875 L 28.076172 22.166016 L 28.021484 22.166016 L 28.021484 22.113281 L 27.966797 22.113281 L 27.966797 22.058594 L 27.912109 22.058594 L 27.912109 22.001953 L 27.855469 22.001953 L 27.855469 21.947266 L 27.798828 21.947266 L 27.798828 21.888672 L 27.740234 21.888672 L 27.740234 21.832031 L 27.683594 21.832031 L 27.683594 21.773438 L 27.623047 21.773438 L 27.623047 21.714844 L 27.564453 21.714844 L 27.564453 21.654297 L 27.503906 21.654297 L 27.503906 21.59375 L 27.441406 21.59375 L 27.441406 21.533203 L 27.380859 21.533203 L 27.380859 21.470703 L 27.318359 21.470703 L 27.318359 21.408203 L 27.253906 21.408203 L 27.253906 21.345703 L 27.189453 21.345703 L 27.189453 21.28125 L 27.125 21.28125 L 27.125 21.214844 L 27.058594 21.214844 L 27.058594 21.150391 L 26.992188 21.150391 L 26.992188 21.083984 L 26.925781 21.083984 L 26.925781 21.015625 L 26.857422 21.015625 L 26.857422 20.949219 L 26.789062 20.949219 L 26.789062 20.878906 L 26.71875 20.878906 L 26.71875 20.810547 L 26.648438 20.810547 L 26.648438 20.740234 L 26.578125 20.740234 L 26.578125 20.669922 L 26.505859 20.669922 L 26.505859 20.597656 L 26.433594 20.597656 L 26.433594 20.525391 L 26.361328 20.525391 L 26.361328 20.451172 L 26.287109 20.451172 L 26.287109 20.378906 L 26.212891 20.378906 L 26.212891 20.302734 L 26.136719 20.302734 L 26.136719 20.228516 L 26.060547 20.228516 L 26.060547 20.152344 L 25.984375 20.152344 L 25.984375 20.074219 L 25.90625 20.074219 L 25.90625 19.998047 L 25.828125 19.998047 L 25.828125 19.919922 L 25.75 19.919922 L 25.75 19.839844 L 25.669922 19.839844 L 25.669922 19.759766 L 25.587891 19.759766 L 25.587891 19.679688 L 25.507812 19.679688 L 25.507812 19.597656 L 25.425781 19.597656 L 25.425781 19.515625 L 25.341797 19.515625 L 25.341797 19.433594 L 25.259766 19.433594 L 25.259766 19.349609 L 25.175781 19.349609 L 25.175781 19.265625 L 25.089844 19.265625 L 25.089844 19.181641 L 25.003906 19.181641 L 25.003906 19.095703 L 24.917969 19.095703 L 24.917969 19.007812 L 24.830078 19.007812 L 24.830078 18.921875 L 24.742188 18.921875 L 24.742188 18.833984 L 24.654297 18.833984 L 24.654297 18.744141 L 24.564453 18.744141 L 24.564453 18.654297 L 24.474609 18.654297 L 24.474609 18.564453 L 24.382812 18.564453 L 24.382812 18.474609 L 24.291016 18.474609 L 24.291016 18.382812 L 24.199219 18.382812 L 24.199219 18.289062 L 24.105469 18.289062 L 24.105469 18.197266 L 24.011719 18.197266 L 24.011719 18.103516 L 23.916016 18.103516 L 23.916016 18.007812 L 23.822266 18.007812 L 23.822266 17.912109 L 23.724609 17.912109 L 23.724609 17.816406 L 23.628906 17.816406 L 23.628906 17.71875 L 23.53125 17.71875 L 23.53125 17.621094 L 23.431641 17.621094 L 23.431641 17.523438 L 23.333984 17.523438 L 23.333984 17.423828 L 23.234375 17.423828 L 23.234375 17.324219 L 23.132812 17.324219 L 23.132812 17.224609 L 23.03125 17.224609 L 23.03125 17.123047 L 22.929688 17.123047 L 22.929688 17.019531 L 22.826172 17.019531 L 22.826172 16.917969 L 22.722656 16.917969 L 22.722656 16.814453 L 22.619141 16.814453 L 22.619141 16.708984 L 22.513672 16.708984 L 22.513672 16.603516 L 22.408203 16.603516 L 22.408203 16.498047 L 22.300781 16.498047 L 22.300781 16.392578 L 22.193359 16.392578 L 22.193359 16.285156 L 22.085938 16.285156 L 22.085938 16.175781 L 21.976562 16.175781 L 21.976562 16.068359 L 21.867188 16.068359 L 21.867188 15.958984 L 21.757812 15.958984 L 21.757812 15.847656 L 21.646484 15.847656 L 21.646484 15.736328 L 21.535156 15.736328 L 21.535156 15.625 L 21.421875 15.625 L 21.421875 15.513672 L 21.308594 15.513672 L 21.308594 15.400391 L 21.195312 15.400391 L 21.195312 15.285156 L 21.080078 15.285156 L 21.080078 15.171875 L 20.964844 15.171875 L 20.964844 15.054688 L 20.847656 15.054688 L 20.847656 14.939453 L 20.730469 14.939453 L 20.730469 14.822266 L 20.613281 14.822266 L 20.613281 14.705078 L 20.496094 14.705078 L 20.496094 14.585938 L 20.376953 14.585938 L 20.376953 14.466797 L 20.255859 14.466797 L 20.255859 14.347656 L 20.134766 14.347656 L 20.134766 14.226562 L 20.013672 14.226562 L 20.013672 14.105469 L 19.892578 14.105469 L 19.892578 13.982422 L 19.769531 13.982422 L 19.769531 13.859375 L 19.644531 13.859375 L 19.644531 13.736328 L 19.521484 13.736328 L 19.521484 13.611328 L 19.396484 13.611328 L 19.396484 13.486328 L 19.269531 13.486328 L 19.269531 13.361328 L 19.142578 13.361328 L 19.142578 13.234375 L 19.015625 13.234375 L 19.015625 13.107422 L 18.888672 13.107422 L 18.888672 12.978516 L 18.759766 12.978516 L 18.759766 12.849609 L 18.628906 12.849609 L 18.628906 12.720703 L 18.5 12.720703 L 18.5 12.589844 L 18.369141 12.589844 L 18.369141 12.458984 L 18.236328 12.458984 L 18.236328 12.328125 L 18.103516 12.328125 L 18.103516 12.195312 L 17.970703 12.195312 L 17.970703 12.060547 L 17.835938 12.060547 L 17.835938 11.927734 L 17.701172 11.927734 L 17.701172 11.792969 L 17.566406 11.792969 L 17.566406 11.65625 L 17.429688 11.65625 L 17.429688 11.521484 L 17.292969 11.521484 L 17.292969 11.384766 L 17.154297 11.384766 L 17.154297 11.246094 L 17.017578 11.246094 L 17.017578 11.107422 L 16.876953 11.107422 L 16.876953 10.96875 L 16.738281 10.96875 L 16.738281 10.828125 L 16.597656 10.828125 L 16.597656 10.6875 L 16.455078 10.6875 L 16.455078 10.546875 L 16.3125 10.546875 L 16.3125 10.404297 L 16.169922 10.404297 L 16.169922 10.261719 L 16.027344 10.261719 L 16.027344 10.117188 L 15.882812 10.117188 L 15.882812 9.9726562 L 15.736328 9.9726562 L 15.736328 9.828125 L 15.591797 9.828125 L 15.591797 9.6816406 L 15.445312 9.6816406 L 15.445312 9.5351562 L 15.296875 9.5351562 L 15.296875 9.3886719 L 15.148438 9.3886719 L 15.148438 9.2402344 L 10.820312 9.2402344 C 10.792572 9.2125294 10.761331 9.1886023 10.732422 9.1621094 C 10.685586 9.1122543 10.638331 9.0637911 10.587891 9.0175781 C 10.541055 8.9677233 10.493799 8.9192597 10.443359 8.8730469 C 10.39694 8.823635 10.350742 8.7743508 10.300781 8.7285156 C 10.253098 8.6776084 10.203777 8.6291539 10.152344 8.5820312 C 10.10527 8.5318225 10.058537 8.482071 10.007812 8.4355469 C 9.9601158 8.3846098 9.9108251 8.3362121 9.859375 8.2890625 C 9.3626755 7.7582119 8.6612342 7.421875 7.8769531 7.421875 z "
       id="path6255"
       style="fill-opacity:1;fill:url(#linearGradient7102);opacity:0.2"
       clip-path="url(#clipPath7107)" />
    <path
       style="fill:#ffc107"
       id="path6208"
       d="m 7.7272507,10.909096 a 0.9090909,0.9090909 0 0 1 -0.909091,-0.909091 0.9090909,0.9090909 0 0 1 0.909091,-0.909091 0.9090909,0.9090909 0 0 1 0.90909,0.909091 0.9090909,0.9090909 0 0 1 -0.90909,0.909091 M 10.295432,9.090914 C 9.9227047,8.0318232 8.9136137,7.2727323 7.7272507,7.2727323 a 2.7272727,2.7272727 0 0 0 -2.7272732,2.7272727 2.7272727,2.7272727 0 0 0 2.7272732,2.727272 c 1.186363,0 2.195454,-0.75909 2.5681813,-1.818181 l 1.977273,0 0,1.818181 1.818182,0 0,-1.818181 0.909091,0 0,-1.818182 -4.704546,0 z"
       inkscape:connector-curvature="0" />
  </g>
</svg>
