<?xml version="1.0" encoding="UTF-8" standalone="no"?>
<!-- Created with Inkscape (http://www.inkscape.org/) -->

<svg
   xmlns:dc="http://purl.org/dc/elements/1.1/"
   xmlns:cc="http://creativecommons.org/ns#"
   xmlns:rdf="http://www.w3.org/1999/02/22-rdf-syntax-ns#"
   xmlns:svg="http://www.w3.org/2000/svg"
   xmlns="http://www.w3.org/2000/svg"
   xmlns:sodipodi="http://sodipodi.sourceforge.net/DTD/sodipodi-0.dtd"
   xmlns:inkscape="http://www.inkscape.org/namespaces/inkscape"
   sodipodi:docname="KenKen.svg"
   inkscape:version="0.92.2 (5c3e80d, 2017-08-06)"
   version="1.1"
   id="svg2"
   viewBox="0 0 29.375 29.375"
   height="31.333334"
   width="31.333334"
   inkscape:export-filename="/home/juergen/Desktop/ic_background.png"
   inkscape:export-xdpi="441.19147"
   inkscape:export-ydpi="441.19147">
  <sodipodi:namedview
     inkscape:snap-to-guides="false"
     inkscape:snap-grids="false"
     inkscape:window-maximized="1"
     inkscape:window-y="33"
     inkscape:window-x="0"
     inkscape:window-height="699"
     inkscape:window-width="1366"
     inkscape:guide-bbox="true"
     showguides="true"
     fit-margin-bottom="5"
     fit-margin-right="5"
     fit-margin-left="5"
     fit-margin-top="5"
     showgrid="true"
     inkscape:current-layer="layer1"
     inkscape:document-units="px"
     inkscape:cy="11.275385"
     inkscape:cx="-4.4937638"
     inkscape:zoom="7.919596"
     inkscape:pageshadow="2"
     inkscape:pageopacity="0.0"
     borderopacity="1.0"
     bordercolor="#666666"
     pagecolor="#ffffff"
     id="base"
     units="px">
    <inkscape:grid
       type="xygrid"
       id="grid4138"
       originx="4.6875222"
       originy="4.6875047" />
    <sodipodi:guide
       position="14.687522,22.687505"
       orientation="0,1"
       id="guide4140"
       inkscape:locked="false" />
    <sodipodi:guide
       position="14.687522,6.6875047"
       orientation="0,1"
       id="guide4142"
       inkscape:locked="false" />
    <sodipodi:guide
       position="6.6875222,14.687505"
       orientation="1,0"
       id="guide4144"
       inkscape:locked="false" />
    <sodipodi:guide
       position="4.6875222,4.6875047"
       orientation="0,20"
       id="guide4146"
       inkscape:locked="false" />
    <sodipodi:guide
       position="24.687522,4.6875047"
       orientation="-20,0"
       id="guide4148"
       inkscape:locked="false" />
    <sodipodi:guide
       position="24.687522,24.687505"
       orientation="0,-20"
       id="guide4150"
       inkscape:locked="false" />
    <sodipodi:guide
       position="4.6875222,24.687505"
       orientation="20,0"
       id="guide4152"
       inkscape:locked="false" />
    <sodipodi:guide
       position="22.687522,14.687505"
       orientation="1,0"
       id="guide4154"
       inkscape:locked="false" />
    <sodipodi:guide
       position="14.687522,14.687505"
       orientation="-0.70710678,0.70710678"
       id="guide4156"
       inkscape:locked="false" />
    <sodipodi:guide
       position="14.687522,14.687505"
       orientation="0.70710678,0.70710678"
       id="guide4158"
       inkscape:locked="false" />
    <sodipodi:guide
       position="8.6875222,14.687505"
       orientation="1,0"
       id="guide4160"
       inkscape:locked="false" />
    <sodipodi:guide
       position="20.687522,14.687505"
       orientation="1,0"
       id="guide4162"
       inkscape:locked="false" />
    <sodipodi:guide
       position="14.687522,20.687505"
       orientation="0,1"
       id="guide4164"
       inkscape:locked="false" />
    <sodipodi:guide
       position="14.687522,8.6875047"
       orientation="0,1"
       id="guide4166"
       inkscape:locked="false" />
    <sodipodi:guide
       position="14.687522,19.687505"
       orientation="0,1"
       id="guide4168"
       inkscape:locked="false" />
    <sodipodi:guide
       position="14.687522,9.6875047"
       orientation="0,1"
       id="guide4170"
       inkscape:locked="false" />
    <sodipodi:guide
       position="9.6875222,14.687505"
       orientation="1,0"
       id="guide4172"
       inkscape:locked="false" />
    <sodipodi:guide
       position="19.687522,14.687505"
       orientation="1,0"
       id="guide4174"
       inkscape:locked="false" />
  </sodipodi:namedview>
  <defs
     id="defs4">
    <clipPath
       id="clipPath12478"
       clipPathUnits="userSpaceOnUse">
      <circle
         r="10"
         cy="10.000005"
         cx="9.9999781"
         id="circle12480"
         style="opacity:1;fill:#2196f3;fill-opacity:1;stroke:none;stroke-width:0.05069799;stroke-miterlimit:4;stroke-dasharray:none;stroke-opacity:1" />
    </clipPath>
    <clipPath
       clipPathUnits="userSpaceOnUse"
       id="clipPath13251">
      <circle
         r="10"
         cy="10.000005"
         cx="9.9999781"
         id="circle13253"
         style="opacity:1;fill:#2196f3;fill-opacity:1;stroke:none;stroke-width:0.05069799;stroke-miterlimit:4;stroke-dasharray:none;stroke-opacity:1"
         inkscape:export-filename="/home/juergen/path4136.png"
         inkscape:export-xdpi="648"
         inkscape:export-ydpi="648" />
    </clipPath>
    <clipPath
       id="clipPath5054"
       clipPathUnits="userSpaceOnUse">
      <circle
         r="10"
         cy="10.000005"
         cx="9.9999781"
         id="circle5056"
         style="opacity:1;fill:#2196f3;fill-opacity:1;stroke:none;stroke-width:0.05069799;stroke-miterlimit:4;stroke-dasharray:none;stroke-opacity:1"
         inkscape:export-filename="/home/juergen/path4136.png"
         inkscape:export-xdpi="648"
         inkscape:export-ydpi="648" />
    </clipPath>
    <clipPath
       clipPathUnits="userSpaceOnUse"
       id="clipPath5838">
      <circle
         r="10"
         cy="10.000005"
         cx="9.9999781"
         id="circle5840"
         style="opacity:1;fill:#f44336;fill-opacity:1;stroke:none;stroke-width:0.05069799;stroke-miterlimit:4;stroke-dasharray:none;stroke-opacity:1"
         inkscape:export-filename="/home/juergen/path4136.png"
         inkscape:export-xdpi="648"
         inkscape:export-ydpi="648" />
    </clipPath>
    <clipPath
       clipPathUnits="userSpaceOnUse"
       id="clipPath5850">
      <rect
         style="opacity:0.96300001;fill:#fdd835;fill-opacity:1;stroke:none;stroke-width:1.25;stroke-linecap:round;stroke-linejoin:round;stroke-miterlimit:4;stroke-dasharray:none;stroke-opacity:1"
         id="rect5852"
         width="5.7452426"
         height="4.0406103"
         x="7.0710678"
         y="3.9638286" />
    </clipPath>
    <clipPath
       clipPathUnits="userSpaceOnUse"
       id="clipPath6016">
      <circle
         r="10"
         cy="10.000005"
         cx="9.9999781"
         id="circle6018"
         style="opacity:1;fill:#03a9f4;fill-opacity:1;stroke:none;stroke-width:0.05069799;stroke-miterlimit:4;stroke-dasharray:none;stroke-opacity:1"
         inkscape:export-filename="/home/juergen/path4136.png"
         inkscape:export-xdpi="648"
         inkscape:export-ydpi="648" />
    </clipPath>
    <clipPath
       clipPathUnits="userSpaceOnUse"
       id="clipPath6024">
      <path
         style="fill:none;fill-rule:evenodd;stroke:#000000;stroke-width:1px;stroke-linecap:butt;stroke-linejoin:miter;stroke-opacity:1"
         d="M 4.5535714,14.642857 10.580357,14.598214 10.178571,11.830357 8.6160714,9.8214286 7.0535714,8.9285715 4.3303571,8.7500001 Z"
         id="path6026"
         inkscape:connector-curvature="0" />
    </clipPath>
    <clipPath
       clipPathUnits="userSpaceOnUse"
       id="clipPath12580">
      <circle
         r="10"
         cy="10.000005"
         cx="9.9999781"
         id="circle12582"
         style="opacity:1;fill:#03a9f4;fill-opacity:1;stroke:none;stroke-width:0.05069799;stroke-miterlimit:4;stroke-dasharray:none;stroke-opacity:1"
         inkscape:export-filename="/home/juergen/path4136.png"
         inkscape:export-xdpi="648"
         inkscape:export-ydpi="648" />
    </clipPath>
    <clipPath
       clipPathUnits="userSpaceOnUse"
       id="clipPath12584">
      <circle
         r="10"
         cy="10.000005"
         cx="9.9999781"
         id="circle12586"
         style="opacity:1;fill:#03a9f4;fill-opacity:1;stroke:none;stroke-width:0.05069799;stroke-miterlimit:4;stroke-dasharray:none;stroke-opacity:1"
         inkscape:export-filename="/home/juergen/path4136.png"
         inkscape:export-xdpi="648"
         inkscape:export-ydpi="648" />
    </clipPath>
    <clipPath
       clipPathUnits="userSpaceOnUse"
       id="clipPath12588">
      <circle
         r="10"
         cy="10.000005"
         cx="9.9999781"
         id="circle12590"
         style="opacity:1;fill:#03a9f4;fill-opacity:1;stroke:none;stroke-width:0.05069799;stroke-miterlimit:4;stroke-dasharray:none;stroke-opacity:1"
         inkscape:export-filename="/home/juergen/path4136.png"
         inkscape:export-xdpi="648"
         inkscape:export-ydpi="648" />
    </clipPath>
  </defs>
  <metadata
     id="metadata7">
    <rdf:RDF>
      <cc:Work
         rdf:about="">
        <dc:format>image/svg+xml</dc:format>
        <dc:type
           rdf:resource="http://purl.org/dc/dcmitype/StillImage" />
        <dc:title></dc:title>
      </cc:Work>
    </rdf:RDF>
  </metadata>
  <g
     inkscape:label="Hintergrund"
     inkscape:groupmode="layer"
     id="layer1"
     transform="translate(1062.8303,-857.24615)">
    <circle
       inkscape:export-ydpi="648"
       inkscape:export-xdpi="648"
       inkscape:export-filename="/home/juergen/path4136.png"
       style="opacity:1;fill:#616161;fill-opacity:1;stroke:none;stroke-width:0.05069799;stroke-miterlimit:4;stroke-dasharray:none;stroke-opacity:1"
       id="path4136"
       cx="-1048.1428"
       cy="871.93365"
       r="10" />
  </g>
  <g
     style="display:inline"
     inkscape:groupmode="layer"
     id="layer2"
     inkscape:label="Icon"
     transform="translate(4.6875221,4.6874951)">
    <path
       d="m 10.384766,5.1328125 v 4.6152344 h 0.002 V 9.75 9.75195 h 0.0039 V 9.7539 h 0.0039 v 0.00391 h 0.0039 v 0.00391 h 0.0039 v 0.00391 h 0.0059 v 0.00586 h 0.0059 v 0.00586 h 0.0078 v 0.00781 h 0.0078 v 0.00781 h 0.0078 v 0.00781 h 0.0098 v 0.00977 h 0.0098 v 0.00977 h 0.01172 v 0.011719 h 0.0098 V 9.84375 h 0.01367 v 0.011719 h 0.01172 v 0.013672 h 0.01367 v 0.013672 h 0.01563 v 0.013672 h 0.01563 V 9.91211 h 0.01563 v 0.015625 h 0.01563 v 0.017578 h 0.01758 v 0.017578 h 0.01953 v 0.017578 h 0.01758 V 10 h 0.01953 v 0.01953 h 0.02148 v 0.01953 h 0.02149 v 0.02149 h 0.02148 v 0.02148 h 0.02148 v 0.02344 h 0.02344 v 0.02344 h 0.02539 v 0.02344 h 0.02539 v 0.02539 h 0.02539 v 0.02539 h 0.02539 v 0.02539 h 0.02734 v 0.02734 h 0.02734 v 0.0293 h 0.0293 v 0.02734 h 0.0293 v 0.0293 h 0.0293 v 0.03125 h 0.03125 v 0.0293 h 0.03125 v 0.0332 h 0.0332 v 0.03125 h 0.0332 V 10.5 h 0.0332 v 0.0332 h 0.03516 v 0.03516 h 0.03516 v 0.03516 h 0.03516 v 0.03516 h 0.03711 v 0.03711 h 0.03711 v 0.03906 h 0.03906 v 0.03711 h 0.03906 v 0.03906 h 0.03906 v 0.03906 h 0.04101 v 0.04102 h 0.04102 v 0.04101 h 0.04102 v 0.04297 h 0.04297 v 0.04297 h 0.04492 v 0.04297 h 0.04297 v 0.04297 h 0.04492 v 0.04492 h 0.04687 v 0.04687 h 0.04492 v 0.04687 h 0.04687 v 0.04687 h 0.04883 v 0.04687 h 0.04883 v 0.04883 h 0.04883 v 0.04883 h 0.05078 v 0.05078 h 0.05078 v 0.05078 h 0.05078 v 0.05273 h 0.05273 v 0.05078 h 0.05274 v 0.05469 h 0.05469 v 0.05273 h 0.05469 v 0.05469 h 0.05469 v 0.05469 h 0.05664 v 0.05664 h 0.05664 v 0.05664 h 0.05664 v 0.05859 h 0.05859 v 0.05664 h 0.05859 V 12.125 h 0.06055 v 0.05859 h 0.06055 v 0.06055 h 0.06055 v 0.0625 h 0.0625 v 0.06055 h 0.0625 v 0.06445 h 0.06445 v 0.0625 h 0.06445 v 0.06445 h 0.06445 v 0.06445 h 0.06641 v 0.06641 h 0.06641 v 0.06641 h 0.06641 v 0.06641 h 0.06836 v 0.06836 h 0.06836 v 0.06836 h 0.06836 v 0.07031 h 0.07031 v 0.07031 h 0.07227 v 0.07031 h 0.07031 v 0.07227 h 0.07227 v 0.07226 h 0.07422 v 0.07227 h 0.07422 v 0.07422 h 0.07422 v 0.07422 h 0.07617 v 0.07617 h 0.07422 v 0.07617 h 0.07813 v 0.07617 h 0.07813 v 0.07813 h 0.07813 v 0.07813 h 0.07813 v 0.07813 h 0.08008 v 0.08008 h 0.08008 v 0.08203 h 0.08203 v 0.08008 h 0.08203 v 0.08203 h 0.08203 v 0.08398 H 15.125 v 0.08203 h 0.08398 v 0.08594 h 0.08594 v 0.08398 h 0.08594 v 0.08594 h 0.08594 v 0.08594 h 0.08789 v 0.08789 h 0.08789 v 0.08789 h 0.08789 v 0.08789 h 0.08984 v 0.08984 h 0.08984 v 0.08984 h 0.0918 v 0.0918 h 0.0918 v 0.0918 h 0.0918 v 0.0918 h 0.09375 v 0.09375 h 0.09375 v 0.09375 h 0.09375 v 0.0957 h 0.0957 v 0.09375 h 0.0957 v 0.09766 h 0.09766 v 0.0957 h 0.09766 v 0.09766 h 0.09766 v 0.09961 h 0.09961 v 0.09766 h 0.09961 v 0.101563 h 0.101562 v 0.09961 h 0.101563 v 0.101563 h 0.101562 v 0.101562 h 0.103516 v 0.103516 h 0.103515 v 0.103516 h 0.103516 v 0.103515 h 0.105469 v 0.105469 h 0.105468 v 0.105469 h 0.107422 v 0.107422 h 0.107422 v 0.107422 h 0.107422 v 0.107421 h 0.109375 v 0.109375 h 0.109375 v 0.109375 h 0.109375 v 0.109375 h 0.111328 v 0.111328 h 0.111328 V 18.21291 H 18.9629 v 0.113281 h 0.113281 v 0.113281 h 0.113281 v 0.113281 h 0.115235 v 0.115235 h 0.115234 v 0.115234 h 0.115234 v 0.117188 h 0.117188 v 0.117187 h 0.11914 v 0.117188 h 0.117188 v 0.117187 h 0.11914 v 0.121094 h 0.121094 v 0.119141 h 0.119141 V 19.6133 h 0.123047 v 0.121094 h 0.121094 v 0.121094 h 0.123046 v 0.123047 h 0.123047 v 0.125 h 0.125 v 0.123046 h 0.125 v 0.125 h 0.126953 v 0.126954 h 0.125 v 0.126953 h 0.128907 v 0.126953 h 0.126953 v 0.126953 H 21.625 V 20.9883 h 0.128906 v 0.13086 h 0.13086 v 0.128906 h 0.130859 v 0.132812 h 0.132813 v 0.13086 h 0.132812 v 0.132812 h 0.132812 v 0.132813 h 0.132813 v 0.134765 h 0.134766 v 0.134766 h 0.136718 v 0.134766 h 0.136719 v 0.136718 h 0.136719 v 0.136719 h 0.136719 v 0.138672 h 0.138672 v 0.136719 h 0.138671 v 0.140625 h 0.140625 v 0.138672 h 0.140625 v 0.140625 h 0.142579 v 0.142578 h 0.140624 v 0.142578 h 0.144532 v 0.142578 h 0.142578 v 0.142578 h 0.144531 v 0.144531 h 0.144531 v 0.146485 h 0.146485 v 0.144531 h 0.146484 v 0.148438 h 0.148438 v 0.146484 h 0.148437 v 0.148437 h 4.615234 V 19.984375 H 29.703125 V 19.835938 H 29.554688 V 19.6875 H 29.408203 V 19.541016 H 29.263672 V 19.396484 H 29.117188 V 19.25 H 28.972656 V 19.105469 H 28.830078 V 18.962891 H 28.6875 V 18.820312 H 28.544922 V 18.677734 H 28.402344 V 18.535156 H 28.261719 V 18.394531 H 28.123047 V 18.255859 H 27.982422 V 18.115234 H 27.84375 V 17.976562 H 27.707031 V 17.839844 H 27.570312 V 17.703125 H 27.433594 V 17.566406 H 27.298828 V 17.431641 H 27.164062 V 17.296875 H 27.029297 V 17.162109 H 26.896484 V 17.029297 H 26.763672 V 16.896484 H 26.630859 V 16.763672 H 26.5 v -0.13086 h -0.128906 v -0.128906 h -0.13086 v -0.130859 h -0.128906 v -0.128906 h -0.126953 v -0.126953 h -0.126953 v -0.128907 h -0.126953 v -0.125 h -0.126953 v -0.126953 h -0.125 v -0.125 h -0.123047 v -0.125 h -0.125 v -0.123047 h -0.123047 v -0.123047 h -0.121094 v -0.121093 h -0.121094 v -0.123047 h -0.121093 v -0.119141 h -0.121094 v -0.121094 h -0.119141 v -0.11914 h -0.117187 v -0.117188 h -0.117188 v -0.11914 H 24.152344 V 14.285156 H 24.035156 V 14.167969 H 23.919922 V 14.052734 H 23.804688 V 13.9375 H 23.691406 V 13.824219 H 23.578125 V 13.710938 H 23.464844 V 13.597656 H 23.353516 V 13.486328 H 23.242188 V 13.375 H 23.132812 V 13.265625 H 23.023438 V 13.15625 H 22.914062 V 13.046875 H 22.806641 V 12.939453 H 22.699219 V 12.832031 H 22.591797 V 12.724609 H 22.486328 V 12.619141 H 22.380859 V 12.513672 H 22.277344 V 12.410156 H 22.173828 V 12.306641 H 22.070312 V 12.203125 H 21.96875 V 12.101562 H 21.867188 V 12 h -0.101563 v -0.101562 h -0.09961 v -0.09961 h -0.09766 v -0.09961 h -0.09961 v -0.09766 h -0.09766 v -0.09766 h -0.0957 v -0.09766 h -0.09766 v -0.0957 h -0.0957 v -0.0957 h -0.09375 v -0.09375 h -0.09375 v -0.09375 h -0.09375 v -0.09375 h -0.0918 v -0.0918 h -0.0918 V 10.75 h -0.0918 v -0.0918 h -0.08984 v -0.08984 h -0.08984 v -0.08984 h -0.08789 v -0.08789 h -0.08789 v -0.08789 h -0.08789 v -0.08789 h -0.08594 v -0.08594 h -0.08594 v -0.08594 h -0.08594 V 9.957032 h -0.08398 V 9.873048 h -0.08203 V 9.789064 h -0.08398 V 9.707033 h -0.08203 V 9.625 h -0.08203 V 9.542969 h -0.08008 V 9.4628906 H 19.25 V 9.3828126 H 19.17187 V 9.3046876 H 19.09374 V 9.2265626 H 19.01561 V 9.1484376 H 18.93944 V 9.0722656 H 18.86327 V 8.9960936 H 18.7871 V 8.9199216 H 18.71288 V 8.8457026 H 18.63866 V 8.7714836 H 18.56639 V 8.6992176 H 18.49412 V 8.625 H 18.42185 V 8.554688 H 18.35154 V 8.482422 H 18.28123 V 8.414063 H 18.21092 V 8.34375 H 18.14256 V 8.275391 H 18.0742 V 8.207032 H 18.00779 V 8.140625 H 17.94138 V 8.0742188 H 17.875 V 8.0078128 H 17.81055 V 7.9433598 H 17.7461 v -0.064453 h -0.06445 v -0.064453 h -0.0625 v -0.0625 H 17.5586 v -0.0625 H 17.4961 V 7.6289068 H 17.43555 V 7.5683598 H 17.37696 V 7.5078128 H 17.31641 V 7.4492188 H 17.25977 V 7.390625 H 17.20118 V 7.333984 H 17.14454 V 7.277343 H 17.0879 V 7.220702 H 17.03321 V 7.166015 H 16.97852 V 7.111328 H 16.92383 V 7.056641 H 16.8711 V 7.003907 H 16.81837 V 6.951173 H 16.76759 V 6.900392 H 16.71681 V 6.849611 H 16.66603 V 6.79883 H 16.6172 V 6.75 H 16.56837 V 6.701172 H 16.5215 V 6.654297 H 16.47267 V 6.605469 H 16.42775 V 6.560547 H 16.38088 V 6.513672 H 16.33596 V 6.46875 H 16.29299 V 6.425781 H 16.24807 V 6.380859 H 16.20705 V 6.33789 H 16.16408 V 6.296875 H 16.12306 V 6.255859 H 16.08204 V 6.214843 H 16.04298 V 6.17578 H 16.00392 V 6.136718 H 15.96486 V 6.097655 H 15.92775 V 6.060546 H 15.89064 V 6.023437 H 15.85548 V 5.988281 H 15.82032 V 5.953125 H 15.78516 V 5.917969 h -0.0332 V 5.884766 h -0.0332 V 5.851563 h -0.0332 V 5.81836 H 15.65431 V 5.78711 H 15.625 V 5.75586 H 15.59375 V 5.726563 h -0.0293 V 5.697266 h -0.0293 V 5.667969 H 15.50781 V 5.640625 H 15.48047 V 5.613281 H 15.45508 V 5.58789 H 15.42969 V 5.5625 H 15.4043 V 5.537109 H 15.38086 V 5.513672 H 15.35742 V 5.490235 H 15.33398 V 5.4667969 H 15.3125 V 5.4453129 H 15.29102 V 5.4238289 H 15.27149 V 5.4023438 H 15.25 V 5.3828128 H 15.23242 V 5.3652348 H 15.21289 V 5.3457038 H 15.19726 V 5.328125 H 15.17968 V 5.3125 H 15.16405 V 5.296875 H 15.14843 V 5.28125 H 15.13476 V 5.267578 H 15.12109 V 5.251953 H 15.10742 V 5.240234 H 15.0957 V 5.228515 H 15.08398 V 5.216796 H 15.07226 V 5.205077 h -0.0098 v -0.00977 h -0.0098 v -0.00977 h -0.0078 v -0.00781 h -0.0078 v -0.00781 h -0.0078 v -0.00781 h -0.0059 V 5.15625 h -0.0059 V 5.15039 h -0.0039 V 5.14648 h -0.0039 V 5.14257 h -0.0039 V 5.13866 h -0.002 V 5.13671 h -0.002 V 5.13476 H 15 V 5.13281 Z"
       id="path11677"
       style="opacity:0.2"
       clip-path="url(#clipPath12580)"
       inkscape:connector-curvature="0" />
    <path
       id="path8680"
       d="m 5,10.251953 v 4.615235 h 0.00195 v 0.002 H 5.0039 v 0.002 h 0.00195 v 0.002 h 0.00391 v 0.0039 h 0.00391 v 0.0039 h 0.00391 v 0.0039 h 0.00586 v 0.0059 H 5.0293 v 0.0078 h 0.00781 v 0.0059 h 0.00781 v 0.0078 h 0.00781 v 0.0078 H 5.0625 v 0.0098 h 0.00977 v 0.0098 h 0.011719 v 0.01172 h 0.011719 v 0.01172 h 0.011719 v 0.01172 h 0.013672 v 0.01367 h 0.013672 v 0.01367 h 0.013672 v 0.01367 h 0.015625 v 0.01563 h 0.015625 v 0.01563 h 0.017578 v 0.01758 h 0.015625 v 0.01758 h 0.019531 v 0.01758 H 5.25 v 0.01953 h 0.021484 v 0.01953 h 0.019531 v 0.01953 H 5.3125 v 0.02149 h 0.021484 v 0.02148 h 0.023437 v 0.02344 h 0.023437 v 0.02344 h 0.023437 v 0.02344 h 0.025391 v 0.02539 h 0.025391 v 0.02539 h 0.025391 v 0.02539 H 5.507812 V 15.375 h 0.027344 v 0.0293 h 0.029297 v 0.02734 H 5.59375 v 0.0293 H 5.625 v 0.03125 h 0.029297 v 0.0293 h 0.03125 v 0.0332 H 5.71875 v 0.03125 h 0.033203 v 0.0332 h 0.033203 v 0.0332 h 0.035156 v 0.03516 h 0.035156 v 0.03516 h 0.035156 v 0.03711 h 0.037109 v 0.03516 h 0.037109 v 0.03906 h 0.039062 v 0.03711 h 0.039063 v 0.03906 h 0.039062 v 0.03906 h 0.041016 v 0.04101 h 0.041016 v 0.04102 H 6.20703 v 0.04297 h 0.041016 v 0.04297 h 0.044922 v 0.04297 h 0.042969 v 0.04297 h 0.044922 v 0.04492 h 0.046875 v 0.04687 h 0.044922 v 0.04687 h 0.048828 v 0.04687 h 0.046875 v 0.04687 h 0.048828 v 0.04883 h 0.048828 v 0.04883 h 0.050781 v 0.05078 h 0.050781 v 0.05078 h 0.050781 v 0.05273 h 0.052734 v 0.05078 h 0.052734 v 0.05469 h 0.054687 v 0.05273 H 7.0332 v 0.05469 h 0.054687 v 0.05469 h 0.056641 v 0.05664 h 0.056641 v 0.05664 h 0.058594 v 0.05859 h 0.056641 v 0.05859 h 0.060547 v 0.05859 h 0.058594 v 0.05859 h 0.060547 v 0.06055 h 0.0625 v 0.0625 h 0.060547 v 0.06055 h 0.0625 v 0.06445 h 0.064453 v 0.0625 H 7.810545 V 17.6777 H 7.875 v 0.06445 h 0.066406 v 0.06641 H 8.007812 V 17.875 h 0.066406 v 0.06641 h 0.068359 v 0.06836 h 0.068359 v 0.06836 H 8.28125 v 0.07031 h 0.070312 v 0.07031 h 0.070312 v 0.07031 H 8.49414 v 0.07227 h 0.072266 v 0.07227 h 0.072266 v 0.07227 h 0.074219 v 0.07422 H 8.78711 v 0.07422 h 0.076172 v 0.07617 h 0.076172 v 0.07617 h 0.076172 v 0.07617 H 9.09375 v 0.07813 h 0.078125 v 0.07812 H 9.25 v 0.08008 h 0.080078 v 0.07813 h 0.080078 v 0.08203 h 0.082031 v 0.08008 h 0.082031 v 0.08203 h 0.083984 v 0.08398 h 0.082031 v 0.08203 h 0.083984 v 0.08594 h 0.085937 v 0.08398 h 0.085938 v 0.08594 h 0.085937 v 0.08594 h 0.08789 v 0.08789 h 0.08789 V 20.125 h 0.08789 v 0.08789 h 0.08984 v 0.08984 h 0.08984 v 0.08984 h 0.0918 v 0.0918 h 0.0918 v 0.0918 h 0.0918 v 0.0918 h 0.09375 v 0.09375 h 0.09375 v 0.09375 h 0.09375 v 0.0957 h 0.0957 v 0.09375 h 0.09766 v 0.09766 h 0.0957 v 0.0957 h 0.09766 v 0.09766 h 0.09961 v 0.09961 h 0.09766 v 0.09766 h 0.09961 v 0.101563 h 0.101563 v 0.09961 h 0.101562 v 0.101563 h 0.101562 V 21.9375 h 0.103516 v 0.103516 h 0.103516 v 0.103515 h 0.103515 v 0.103516 h 0.105469 v 0.105469 h 0.105469 v 0.105468 h 0.107422 v 0.107422 h 0.107422 v 0.107422 h 0.107421 v 0.107422 h 0.109376 v 0.109375 h 0.109374 V 23 h 0.109376 v 0.109375 h 0.111328 v 0.111328 h 0.111328 v 0.111328 h 0.113281 v 0.113281 h 0.113281 v 0.113282 h 0.113282 v 0.113281 h 0.115234 v 0.115234 h 0.115234 v 0.115235 h 0.117188 v 0.117187 h 0.117187 v 0.117188 h 0.117188 v 0.117187 h 0.117187 v 0.119141 h 0.119141 v 0.119141 h 0.121094 v 0.11914 h 0.121093 v 0.121094 h 0.121094 v 0.121094 h 0.121094 v 0.121093 h 0.123047 v 0.123047 h 0.125 v 0.125 h 0.123047 v 0.123047 h 0.125 v 0.125 h 0.126953 v 0.126953 h 0.126953 v 0.126953 h 0.126953 v 0.126953 h 0.126953 v 0.126954 h 0.128906 v 0.128906 h 0.13086 v 0.130859 H 16.5 v 0.128907 h 0.130859 V 26.5 h 0.132813 v 0.130859 h 0.132812 v 0.132813 h 0.132813 v 0.132812 h 0.134765 v 0.134766 h 0.134766 v 0.134766 h 0.134766 v 0.134765 h 0.136718 V 27.4375 h 0.136719 v 0.136719 h 0.136719 v 0.138672 h 0.138672 v 0.138671 h 0.140625 v 0.138672 h 0.138672 v 0.138672 h 0.140625 v 0.142578 h 0.142578 v 0.140625 H 18.6875 v 0.142579 h 0.142578 v 0.142578 h 0.142578 v 0.144531 h 0.144532 v 0.142578 h 0.146484 v 0.146484 h 0.144531 v 0.144532 h 0.146485 v 0.148437 h 0.148437 v 0.146484 h 0.148437 v 0.148438 h 4.615235 V 25.103516 H 24.318359 V 24.955078 H 24.169922 V 24.808594 H 24.023438 V 24.662109 H 23.878906 V 24.515625 H 23.732422 V 24.371094 H 23.587891 V 24.226562 H 23.445312 V 24.082031 H 23.302734 V 23.939453 H 23.160156 V 23.796875 H 23.017578 V 23.65625 H 22.876953 V 23.515625 H 22.738281 V 23.375 H 22.597656 V 23.236328 H 22.458984 V 23.097656 H 22.322266 V 22.958984 H 22.185547 V 22.822266 H 22.048828 V 22.685547 H 21.914062 V 22.550781 H 21.779297 V 22.416016 H 21.644531 V 22.28125 h -0.132812 v -0.132812 h -0.132813 v -0.132813 h -0.132812 v -0.130859 h -0.13086 v -0.13086 h -0.128906 v -0.130859 h -0.130859 v -0.128906 h -0.128907 v -0.128907 h -0.126953 v -0.128906 h -0.128906 v -0.126953 h -0.125 V 20.982422 H 20.21875 v -0.125 h -0.125 v -0.126953 h -0.125 v -0.123047 h -0.123047 v -0.125 h -0.123047 v -0.121094 h -0.121094 v -0.123047 h -0.123046 v -0.121093 h -0.119141 v -0.121094 h -0.121094 v -0.119141 h -0.11914 v -0.119141 h -0.117188 v -0.11914 H 18.882812 V 19.521484 H 18.767578 V 19.404297 H 18.650391 V 19.287109 H 18.535156 V 19.171875 H 18.419922 V 19.058594 H 18.306641 V 18.943359 H 18.193359 V 18.830078 H 18.080078 V 18.71875 H 17.96875 V 18.605469 H 17.857422 V 18.496094 H 17.748047 V 18.384766 H 17.638672 V 18.275391 H 17.529297 V 18.166016 H 17.421875 V 18.058594 H 17.314453 V 17.951172 H 17.207031 V 17.84375 h -0.105469 v -0.105469 h -0.105468 v -0.103515 h -0.103516 v -0.105469 h -0.103516 v -0.103516 h -0.103515 v -0.103515 h -0.101563 v -0.101563 h -0.101562 v -0.101562 h -0.101563 v -0.09961 h -0.09961 v -0.09961 h -0.09961 v -0.09961 h -0.09766 v -0.09961 h -0.09766 v -0.09766 h -0.09766 v -0.0957 h -0.0957 v -0.0957 h -0.0957 v -0.0957 h -0.09375 v -0.0957 h -0.09375 v -0.09375 h -0.09375 v -0.09375 h -0.0918 v -0.0918 h -0.0918 v -0.0918 h -0.0918 v -0.08984 h -0.08984 v -0.0918 h -0.08984 v -0.08789 h -0.08789 v -0.08984 h -0.08789 v -0.08789 h -0.08789 v -0.08789 h -0.08594 v -0.08594 h -0.08594 v -0.08594 h -0.08594 v -0.08398 h -0.08398 v -0.08398 h -0.08399 v -0.08399 h -0.08203 v -0.08398 h -0.08203 v -0.08203 h -0.08203 v -0.08008 h -0.08008 v -0.08008 h -0.08008 v -0.08008 h -0.07813 v -0.08008 h -0.07813 v -0.07813 h -0.07813 v -0.07813 h -0.07617 v -0.07617 h -0.07617 v -0.07617 h -0.07617 v -0.07617 h -0.07422 v -0.07422 h -0.07422 v -0.07422 h -0.07226 v -0.07227 h -0.07422 v -0.07226 h -0.07031 v -0.07227 h -0.07226 v -0.07031 h -0.06836 v -0.07031 h -0.07031 v -0.07031 h -0.06836 v -0.06836 h -0.06836 v -0.06836 h -0.06641 v -0.06641 h -0.06641 v -0.06641 h -0.06641 v -0.06641 h -0.06445 V 13.0625 h -0.06445 v -0.06445 h -0.06445 v -0.0625 h -0.0625 v -0.0625 h -0.0625 v -0.0625 h -0.06055 v -0.0625 h -0.06055 V 12.6875 h -0.06055 v -0.05859 h -0.05859 v -0.05859 h -0.05859 v -0.05859 h -0.05664 v -0.05859 h -0.05664 V 12.3965 h -0.05664 v -0.05469 h -0.05469 v -0.05664 h -0.05469 v -0.05469 h -0.05469 v -0.05274 h -0.05273 V 12.125 h -0.05273 v -0.05273 h -0.05078 v -0.05274 h -0.05078 v -0.05078 h -0.05078 v -0.04883 h -0.04883 v -0.05078 h -0.04883 v -0.04883 h -0.04883 v -0.04687 h -0.04687 v -0.04688 h -0.04492 v -0.04687 h -0.04687 v -0.04492 h -0.04492 v -0.04492 h -0.04297 v -0.04492 h -0.04492 v -0.04297 h -0.04297 v -0.04297 h -0.04101 v -0.04297 h -0.04102 V 11.375 h -0.04101 v -0.03906 h -0.03906 v -0.04102 h -0.03906 v -0.03906 h -0.03906 v -0.03711 h -0.03711 v -0.03906 h -0.03711 v -0.03516 h -0.03516 v -0.03711 h -0.03516 v -0.03516 h -0.03516 V 11.0371 h -0.0332 v -0.0332 h -0.0332 v -0.0332 h -0.0332 v -0.03125 h -0.03125 V 10.9082 h -0.03125 v -0.03125 h -0.0293 V 10.8457 h -0.0293 v -0.0293 h -0.0293 v -0.02734 h -0.02734 v -0.0293 h -0.02734 v -0.02539 h -0.02539 v -0.02734 h -0.02539 v -0.02539 h -0.02539 V 10.65625 H 9.996102 V 10.63281 H 9.972664 V 10.60937 H 9.949227 V 10.58593 H 9.927743 V 10.56444 H 9.90625 V 10.54296 H 9.884766 V 10.52343 H 9.865235 V 10.5039 H 9.847657 V 10.48437 H 9.828125 V 10.46679 H 9.810547 V 10.44921 H 9.794922 V 10.43163 H 9.779297 V 10.416 H 9.763672 V 10.40037 H 9.748047 V 10.3867 H 9.734375 V 10.37303 H 9.722656 V 10.35936 H 9.710937 V 10.34764 H 9.699218 V 10.33592 H 9.6875 v -0.0098 H 9.67773 V 10.3144 H 9.66796 V 10.3066 H 9.66015 V 10.2968 H 9.65234 V 10.289 H 9.64453 V 10.2831 H 9.63867 V 10.2753 H 9.63281 V 10.2714 H 9.6289 V 10.2655 H 9.625 V 10.2616 H 9.62109 V 10.2577 H 9.61914 v -0.002 H 9.61719 v -0.002 H 9.61524 v -0.002 z"
       style="opacity:0.2"
       clip-path="url(#clipPath12588)"
       inkscape:connector-curvature="0" />
    <path
       d="M 3.9999777,4.0333382 H 15.999978 V 15.966671 H 3.9999777 Z"
       id="path4"
       inkscape:connector-curvature="0"
       style="fill:none" />
    <path
       style="fill:none"
       inkscape:connector-curvature="0"
       id="path9754"
       d="m 18.999978,19.033339 h 12 v 11.933333 h -12 z" />
    <rect
       style="opacity:0.96300001;fill:#37474f;fill-opacity:0;stroke:none;stroke-width:1.25;stroke-linecap:round;stroke-linejoin:round;stroke-miterlimit:4;stroke-dasharray:none;stroke-opacity:1"
       id="rect5842"
       width="9.2176418"
       height="6.8816643"
       x="7.0710678"
       y="8.1307077" />
    <rect
       style="opacity:0.96300001;fill:#37474f;fill-opacity:0;stroke:none;stroke-width:1.25;stroke-linecap:round;stroke-linejoin:round;stroke-miterlimit:4;stroke-dasharray:none;stroke-opacity:1"
       id="rect5844"
       width="11.743023"
       height="8.207489"
       x="4.4194174"
       y="8.0675735" />
    <g
       id="g6147"
       transform="matrix(0.31415915,0,0,0.31415915,4.9999778,5.0000048)" />
    <g
       id="g6149"
       transform="matrix(0.31415915,0,0,0.31415915,4.9999778,5.0000048)" />
    <g
       id="g6151"
       transform="matrix(0.31415915,0,0,0.31415915,4.9999778,5.0000048)" />
    <g
       id="g6153"
       transform="matrix(0.31415915,0,0,0.31415915,4.9999778,5.0000048)" />
    <g
       id="g6155"
       transform="matrix(0.31415915,0,0,0.31415915,4.9999778,5.0000048)" />
    <g
       id="g6157"
       transform="matrix(0.31415915,0,0,0.31415915,4.9999778,5.0000048)" />
    <g
       id="g6159"
       transform="matrix(0.31415915,0,0,0.31415915,4.9999778,5.0000048)" />
    <g
       id="g6161"
       transform="matrix(0.31415915,0,0,0.31415915,4.9999778,5.0000048)" />
    <g
       id="g6163"
       transform="matrix(0.31415915,0,0,0.31415915,4.9999778,5.0000048)" />
    <g
       id="g6165"
       transform="matrix(0.31415915,0,0,0.31415915,4.9999778,5.0000048)" />
    <g
       id="g6167"
       transform="matrix(0.31415915,0,0,0.31415915,4.9999778,5.0000048)" />
    <g
       id="g6169"
       transform="matrix(0.31415915,0,0,0.31415915,4.9999778,5.0000048)" />
    <g
       id="g6171"
       transform="matrix(0.31415915,0,0,0.31415915,4.9999778,5.0000048)" />
    <g
       id="g6173"
       transform="matrix(0.31415915,0,0,0.31415915,4.9999778,5.0000048)" />
    <g
       id="g6175"
       transform="matrix(0.31415915,0,0,0.31415915,4.9999778,5.0000048)" />
    <g
       id="g6220"
       transform="matrix(0.31415915,0,0,0.31415915,19.999978,20.000005)" />
    <g
       id="g6222"
       transform="matrix(0.31415915,0,0,0.31415915,19.999978,20.000005)" />
    <g
       id="g6224"
       transform="matrix(0.31415915,0,0,0.31415915,19.999978,20.000005)" />
    <g
       id="g6226"
       transform="matrix(0.31415915,0,0,0.31415915,19.999978,20.000005)" />
    <g
       id="g6228"
       transform="matrix(0.31415915,0,0,0.31415915,19.999978,20.000005)" />
    <g
       id="g6230"
       transform="matrix(0.31415915,0,0,0.31415915,19.999978,20.000005)" />
    <g
       id="g6232"
       transform="matrix(0.31415915,0,0,0.31415915,19.999978,20.000005)" />
    <g
       id="g6234"
       transform="matrix(0.31415915,0,0,0.31415915,19.999978,20.000005)" />
    <g
       id="g6236"
       transform="matrix(0.31415915,0,0,0.31415915,19.999978,20.000005)" />
    <g
       id="g6238"
       transform="matrix(0.31415915,0,0,0.31415915,19.999978,20.000005)" />
    <g
       id="g6240"
       transform="matrix(0.31415915,0,0,0.31415915,19.999978,20.000005)" />
    <g
       id="g6242"
       transform="matrix(0.31415915,0,0,0.31415915,19.999978,20.000005)" />
    <g
       id="g6244"
       transform="matrix(0.31415915,0,0,0.31415915,19.999978,20.000005)" />
    <g
       id="g6246"
       transform="matrix(0.31415915,0,0,0.31415915,19.999978,20.000005)" />
    <g
       id="g6248"
       transform="matrix(0.31415915,0,0,0.31415915,19.999978,20.000005)" />
    <rect
       style="opacity:1;fill:#fafafa;fill-opacity:1;stroke:none;stroke-width:1.25;stroke-linecap:round;stroke-linejoin:round;stroke-miterlimit:4;stroke-dasharray:none;stroke-opacity:1"
       id="rect12592"
       width="3.4723992"
       height="3.4723992"
       x="5.6189733"
       y="5.7315955" />
    <path
       inkscape:connector-curvature="0"
       d="M 4.9999778,9.7482062 H 9.6149757 V 5.13258 H 4.9999778 Z M 6.2786055,7.2038312 H 7.0706008 V 6.4112077 H 7.5434103 V 7.2038312 H 8.3357197 V 7.6766408 H 7.5437244 V 8.4692643 H 7.0709149 V 7.6769549 H 6.2786055 Z"
       id="path8463"
       style="fill:#9e9e9e" />
    <rect
       style="opacity:1;fill:#fafafa;fill-opacity:1;stroke:none;stroke-width:1.25;stroke-linecap:round;stroke-linejoin:round;stroke-miterlimit:4;stroke-dasharray:none;stroke-opacity:1"
       id="rect12596"
       width="3.1567266"
       height="2.7147849"
       x="5.7452426"
       y="11.161165" />
    <path
       inkscape:connector-curvature="0"
       d="M 4.9999778,14.86743 H 9.6149757 V 10.252432 H 4.9999778 Z m 1.2786277,-2.544061 h 2.0574283 v 0.472495 H 6.2786055 Z"
       id="path8465"
       style="fill:#9e9e9e" />
    <rect
       style="opacity:1;fill:#fafafa;fill-opacity:1;stroke:none;stroke-width:1.25;stroke-linecap:round;stroke-linejoin:round;stroke-miterlimit:4;stroke-dasharray:none;stroke-opacity:1"
       id="rect12594"
       width="3.4723992"
       height="3.3461304"
       x="11.111678"
       y="5.7947297" />
    <path
       inkscape:connector-curvature="0"
       d="m 10.384351,5.13258 v 4.6156262 h 4.615627 V 5.13258 Z M 13.735801,8.000853 13.40185,8.3348042 12.84139,7.7746584 12.280616,8.3354325 11.946665,8.0011672 12.506811,7.4403931 11.946665,6.8799332 12.280302,6.545982 l 0.56046,0.5604599 0.560774,-0.5604599 0.333951,0.3342653 -0.560146,0.5604599 z"
       id="path8467"
       style="fill:#9e9e9e" />
    <g
       id="g8471"
       transform="matrix(0.31415915,0,0,0.31415915,4.9999778,5.0000048)" />
    <g
       id="g8473"
       transform="matrix(0.31415915,0,0,0.31415915,4.9999778,5.0000048)" />
    <g
       id="g8475"
       transform="matrix(0.31415915,0,0,0.31415915,4.9999778,5.0000048)" />
    <g
       id="g8477"
       transform="matrix(0.31415915,0,0,0.31415915,4.9999778,5.0000048)" />
    <g
       id="g8479"
       transform="matrix(0.31415915,0,0,0.31415915,4.9999778,5.0000048)" />
    <g
       id="g8481"
       transform="matrix(0.31415915,0,0,0.31415915,4.9999778,5.0000048)" />
    <g
       id="g8483"
       transform="matrix(0.31415915,0,0,0.31415915,4.9999778,5.0000048)" />
    <g
       id="g8485"
       transform="matrix(0.31415915,0,0,0.31415915,4.9999778,5.0000048)" />
    <g
       id="g8487"
       transform="matrix(0.31415915,0,0,0.31415915,4.9999778,5.0000048)" />
    <g
       id="g8489"
       transform="matrix(0.31415915,0,0,0.31415915,4.9999778,5.0000048)" />
    <g
       id="g8491"
       transform="matrix(0.31415915,0,0,0.31415915,4.9999778,5.0000048)" />
    <g
       id="g8493"
       transform="matrix(0.31415915,0,0,0.31415915,4.9999778,5.0000048)" />
    <g
       id="g8495"
       transform="matrix(0.31415915,0,0,0.31415915,4.9999778,5.0000048)" />
    <g
       id="g8497"
       transform="matrix(0.31415915,0,0,0.31415915,4.9999778,5.0000048)" />
    <g
       id="g8499"
       transform="matrix(0.31415915,0,0,0.31415915,4.9999778,5.0000048)" />
    <path
       id="path8561"
       d="m 25.384352,29.86743 h 4.615626 v -4.614998 h -4.615626 z m 2.778737,-1.230876 c -0.01948,0.04618 -0.04712,0.08702 -0.08168,0.12158 -0.03393,0.03424 -0.07414,0.06189 -0.121894,0.08419 -0.04618,0.02105 -0.09676,0.03205 -0.14954,0.03205 -0.05403,0 -0.103358,-0.01037 -0.150482,-0.03205 -0.04618,-0.02199 -0.08671,-0.04964 -0.121579,-0.08419 -0.03393,-0.03424 -0.06158,-0.07477 -0.082,-0.12158 -0.01979,-0.04681 -0.03079,-0.09739 -0.03079,-0.150482 0,-0.05309 0.01037,-0.103358 0.03079,-0.150482 0.01979,-0.0465 0.04712,-0.08702 0.082,-0.12158 0.03393,-0.03393 0.07446,-0.06095 0.121579,-0.08199 0.04681,-0.01979 0.09676,-0.03016 0.150482,-0.03016 0.05278,0 0.103045,0.01005 0.14954,0.03016 0.04744,0.02042 0.08734,0.04744 0.121894,0.08199 0.03393,0.03424 0.06158,0.07477 0.08168,0.12158 0.02011,0.04681 0.0311,0.09708 0.0311,0.150482 0,0.05341 -0.01037,0.103358 -0.0311,0.150482 z M 27.45686,26.483307 c 0.01979,-0.0465 0.04712,-0.08702 0.082,-0.121579 0.03393,-0.03424 0.07446,-0.06189 0.12158,-0.0842 0.04681,-0.02105 0.09676,-0.03204 0.150482,-0.03204 0.05309,0 0.103044,0.01068 0.14954,0.03204 0.04744,0.02168 0.08734,0.04964 0.121893,0.0842 0.03393,0.03424 0.06158,0.07477 0.08168,0.121579 0.02011,0.04681 0.0311,0.09708 0.0311,0.150483 0,0.05278 -0.01037,0.103044 -0.0311,0.150168 -0.01948,0.04681 -0.04712,0.08734 -0.08168,0.121893 -0.03393,0.03393 -0.07383,0.06126 -0.121893,0.08168 -0.04618,0.02042 -0.09645,0.03047 -0.14954,0.03047 -0.05403,0 -0.103358,-0.0097 -0.150482,-0.03047 -0.04618,-0.02011 -0.08671,-0.04744 -0.12158,-0.08168 -0.03456,-0.03424 -0.06158,-0.07477 -0.082,-0.121893 -0.01979,-0.04681 -0.03079,-0.09739 -0.03079,-0.150168 9.42e-4,-0.05341 0.011,-0.103359 0.03079,-0.150483 z m -0.651252,0.797965 h 2.070308 v 0.581508 h -2.070308 z"
       inkscape:connector-curvature="0"
       style="opacity:0.2"
       clip-path="url(#clipPath12584)" />
    <rect
       style="opacity:1;fill:#fafafa;fill-opacity:1;stroke:none;stroke-width:1.25;stroke-linecap:round;stroke-linejoin:round;stroke-miterlimit:4;stroke-dasharray:none;stroke-opacity:1"
       id="rect12598"
       width="3.4723992"
       height="3.0935922"
       x="11.048543"
       y="11.034896" />
    <path
       inkscape:connector-curvature="0"
       d="m 10.384351,14.86743 h 4.615627 v -4.614998 h -4.615627 z m 2.778738,-1.230876 c -0.01948,0.04618 -0.04712,0.08702 -0.08168,0.12158 -0.03393,0.03424 -0.07414,0.06189 -0.121894,0.08419 -0.04618,0.02105 -0.09676,0.03204 -0.14954,0.03204 -0.05404,0 -0.103358,-0.01037 -0.150482,-0.03204 -0.04618,-0.02199 -0.08671,-0.04964 -0.12158,-0.08419 -0.03393,-0.03424 -0.06158,-0.07477 -0.082,-0.12158 -0.01979,-0.04681 -0.03079,-0.09739 -0.03079,-0.150482 0,-0.05309 0.01037,-0.103359 0.03079,-0.150482 0.01979,-0.0465 0.04712,-0.08702 0.082,-0.12158 0.03393,-0.03393 0.07446,-0.06095 0.12158,-0.082 0.04681,-0.01979 0.09676,-0.03016 0.150482,-0.03016 0.05278,0 0.103044,0.01005 0.14954,0.03016 0.04744,0.02042 0.08734,0.04744 0.121894,0.082 0.03393,0.03424 0.06157,0.07477 0.08168,0.12158 0.02011,0.04681 0.0311,0.09708 0.0311,0.150482 0,0.05341 -0.01037,0.103358 -0.0311,0.150482 z m -0.70623,-2.153247 c 0.01979,-0.0465 0.04712,-0.08702 0.082,-0.121579 0.03393,-0.03424 0.07446,-0.06189 0.12158,-0.08419 0.04681,-0.02105 0.09676,-0.03204 0.150482,-0.03204 0.05309,0 0.103044,0.01068 0.14954,0.03204 0.04744,0.02168 0.08734,0.04964 0.121893,0.08419 0.03393,0.03424 0.06157,0.07477 0.08168,0.121579 0.02011,0.04681 0.0311,0.09708 0.0311,0.150482 0,0.05278 -0.01037,0.103045 -0.0311,0.150168 -0.01948,0.04681 -0.04712,0.08734 -0.08168,0.121894 -0.03393,0.03393 -0.07383,0.06126 -0.121893,0.08168 -0.04618,0.02042 -0.09645,0.03047 -0.14954,0.03047 -0.05404,0 -0.103359,-0.0097 -0.150482,-0.03047 -0.04618,-0.02011 -0.08671,-0.04744 -0.12158,-0.08168 -0.03456,-0.03424 -0.06157,-0.07477 -0.082,-0.121894 -0.01979,-0.04681 -0.03079,-0.09739 -0.03079,-0.150168 9.42e-4,-0.05341 0.011,-0.103358 0.03079,-0.150482 z m -0.651252,0.797964 h 2.070309 v 0.581509 h -2.070309 z"
       id="path8469"
       style="fill:#1de9b6" />
  </g>
</svg>
