<?xml version="1.0" encoding="UTF-8" standalone="no"?>
<!-- Created with Inkscape (http://www.inkscape.org/) -->

<svg
   xmlns:dc="http://purl.org/dc/elements/1.1/"
   xmlns:cc="http://creativecommons.org/ns#"
   xmlns:rdf="http://www.w3.org/1999/02/22-rdf-syntax-ns#"
   xmlns:svg="http://www.w3.org/2000/svg"
   xmlns="http://www.w3.org/2000/svg"
   xmlns:xlink="http://www.w3.org/1999/xlink"
   xmlns:sodipodi="http://sodipodi.sourceforge.net/DTD/sodipodi-0.dtd"
   xmlns:inkscape="http://www.inkscape.org/namespaces/inkscape"
   width="5.6444445mm"
   height="5.6444445mm"
   viewBox="0 0 20 20"
   id="svg2"
   version="1.1"
   inkscape:version="0.91 r13725"
   sodipodi:docname="Key.svg"
   inkscape:export-filename="/home/juergen/Projekte/Android/Android_Studio/Baumann_Theme/theme/src/main/assets/icons/res/drawable-xxhdpi/a095.png"
   inkscape:export-xdpi="648"
   inkscape:export-ydpi="648">
  <sodipodi:namedview
     id="base"
     pagecolor="#ffffff"
     bordercolor="#666666"
     borderopacity="1.0"
     inkscape:pageopacity="0.0"
     inkscape:pageshadow="2"
     inkscape:zoom="22.4"
     inkscape:cx="9.7602122"
     inkscape:cy="5.2639319"
     inkscape:document-units="px"
     inkscape:current-layer="layer1"
     showgrid="false"
     fit-margin-top="0"
     fit-margin-left="0"
     fit-margin-right="0"
     fit-margin-bottom="0"
     showguides="true"
     inkscape:guide-bbox="true"
     inkscape:window-width="1366"
     inkscape:window-height="744"
     inkscape:window-x="0"
     inkscape:window-y="24"
     inkscape:window-maximized="1"
     inkscape:snap-grids="true"
     inkscape:snap-to-guides="false"
     inkscape:snap-page="true">
    <inkscape:grid
       type="xygrid"
       id="grid4138" />
    <sodipodi:guide
       position="10,18"
       orientation="0,1"
       id="guide4140" />
    <sodipodi:guide
       position="10,2"
       orientation="0,1"
       id="guide4142" />
    <sodipodi:guide
       position="2,10"
       orientation="1,0"
       id="guide4144" />
    <sodipodi:guide
       position="0,0"
       orientation="0,20"
       id="guide4146" />
    <sodipodi:guide
       position="20,0"
       orientation="-20,0"
       id="guide4148" />
    <sodipodi:guide
       position="20,20"
       orientation="0,-20"
       id="guide4150" />
    <sodipodi:guide
       position="0,20"
       orientation="20,0"
       id="guide4152" />
    <sodipodi:guide
       position="18,10"
       orientation="1,0"
       id="guide4154" />
    <sodipodi:guide
       position="10,10"
       orientation="-0.70710678,0.70710678"
       id="guide4156" />
    <sodipodi:guide
       position="4,10"
       orientation="1,0"
       id="guide4160" />
    <sodipodi:guide
       position="16,10"
       orientation="1,0"
       id="guide4162" />
    <sodipodi:guide
       position="10,4"
       orientation="0,1"
       id="guide4166" />
    <sodipodi:guide
       position="10,15"
       orientation="0,1"
       id="guide4168" />
    <sodipodi:guide
       position="10,5"
       orientation="0,1"
       id="guide4170" />
    <sodipodi:guide
       position="5,10"
       orientation="1,0"
       id="guide4172" />
    <sodipodi:guide
       position="15,10"
       orientation="1,0"
       id="guide4174" />
  </sodipodi:namedview>
  <defs
     id="defs4">
    <linearGradient
       inkscape:collect="always"
       id="linearGradient11423">
      <stop
         style="stop-color:#000000;stop-opacity:0.2"
         offset="0"
         id="stop11425" />
      <stop
         style="stop-color:#000000;stop-opacity:0;"
         offset="1"
         id="stop11427" />
    </linearGradient>
    <clipPath
       id="clipPath12478"
       clipPathUnits="userSpaceOnUse">
      <circle
         r="10"
         cy="10.000005"
         cx="9.9999781"
         id="circle12480"
         style="opacity:1;fill:#2196f3;fill-opacity:1;stroke:none;stroke-width:0.05069799;stroke-miterlimit:4;stroke-dasharray:none;stroke-opacity:1" />
    </clipPath>
    <clipPath
       clipPathUnits="userSpaceOnUse"
       id="clipPath5790">
      <circle
         r="10"
         cy="10.000005"
         cx="9.9999781"
         id="circle5792"
         style="opacity:1;fill:#2196f3;fill-opacity:1;stroke:none;stroke-width:0.05069799;stroke-miterlimit:4;stroke-dasharray:none;stroke-opacity:1"
         inkscape:export-filename="/home/juergen/path4136.png"
         inkscape:export-xdpi="648"
         inkscape:export-ydpi="648" />
    </clipPath>
    <clipPath
       id="clipPath5055"
       clipPathUnits="userSpaceOnUse">
      <circle
         r="10"
         cy="10.000005"
         cx="9.9999781"
         id="circle5057"
         style="opacity:1;fill:#2196f3;fill-opacity:1;stroke:none;stroke-width:0.05069799;stroke-miterlimit:4;stroke-dasharray:none;stroke-opacity:1"
         inkscape:export-filename="/home/juergen/path4136.png"
         inkscape:export-xdpi="648"
         inkscape:export-ydpi="648" />
    </clipPath>
    <clipPath
       clipPathUnits="userSpaceOnUse"
       id="clipPath5119">
      <circle
         r="10"
         cy="10.000005"
         cx="9.9999781"
         id="circle5121"
         style="opacity:1;fill:#2196f3;fill-opacity:1;stroke:none;stroke-width:0.05069799;stroke-miterlimit:4;stroke-dasharray:none;stroke-opacity:1"
         inkscape:export-filename="/home/juergen/Schreibtisch/path4136.png"
         inkscape:export-xdpi="648"
         inkscape:export-ydpi="648" />
    </clipPath>
    <clipPath
       id="clipPath5194"
       clipPathUnits="userSpaceOnUse">
      <circle
         r="10"
         cy="10.000005"
         cx="9.9999781"
         id="circle5196"
         style="opacity:1;fill:#cddc39;fill-opacity:1;stroke:none;stroke-width:0.05069799;stroke-miterlimit:4;stroke-dasharray:none;stroke-opacity:1"
         inkscape:export-filename="/home/juergen/Schreibtisch/path4136.png"
         inkscape:export-xdpi="648"
         inkscape:export-ydpi="648" />
    </clipPath>
    <clipPath
       clipPathUnits="userSpaceOnUse"
       id="clipPath6175">
      <circle
         r="10"
         cy="10.000005"
         cx="9.9999781"
         id="circle6177"
         style="opacity:1;fill:#f44336;fill-opacity:1;stroke:none;stroke-width:0.05069799;stroke-miterlimit:4;stroke-dasharray:none;stroke-opacity:1"
         inkscape:export-filename="/home/juergen/Schreibtisch/path4136.png"
         inkscape:export-xdpi="648"
         inkscape:export-ydpi="648" />
    </clipPath>
    <clipPath
       id="clipPath7176"
       clipPathUnits="userSpaceOnUse">
      <circle
         r="10"
         cy="10.000005"
         cx="9.9999781"
         id="circle7178"
         style="opacity:1;fill:#9c27b0;fill-opacity:1;stroke:none;stroke-width:0.05069799;stroke-miterlimit:4;stroke-dasharray:none;stroke-opacity:1"
         inkscape:export-filename="/home/juergen/Schreibtisch/path4136.png"
         inkscape:export-xdpi="648"
         inkscape:export-ydpi="648" />
    </clipPath>
    <clipPath
       clipPathUnits="userSpaceOnUse"
       id="clipPath8165">
      <circle
         r="10"
         cy="10.000005"
         cx="9.9999781"
         id="circle8167"
         style="opacity:1;fill:#ffc107;fill-opacity:1;stroke:none;stroke-width:0.05069799;stroke-miterlimit:4;stroke-dasharray:none;stroke-opacity:1"
         inkscape:export-filename="/home/juergen/Schreibtisch/path4136.png"
         inkscape:export-xdpi="648"
         inkscape:export-ydpi="648" />
    </clipPath>
    <clipPath
       id="clipPath9162"
       clipPathUnits="userSpaceOnUse">
      <circle
         r="10"
         cy="10.000005"
         cx="9.9999781"
         id="circle9164"
         style="opacity:1;fill:#ff9800;fill-opacity:1;stroke:none;stroke-width:0.05069799;stroke-miterlimit:4;stroke-dasharray:none;stroke-opacity:1"
         inkscape:export-filename="/home/juergen/Schreibtisch/path4136.png"
         inkscape:export-xdpi="648"
         inkscape:export-ydpi="648" />
    </clipPath>
    <clipPath
       clipPathUnits="userSpaceOnUse"
       id="clipPath5147">
      <circle
         r="10"
         cy="10.000005"
         cx="9.9999781"
         id="circle5149"
         style="opacity:1;fill:#ff9800;fill-opacity:1;stroke:none;stroke-width:0.05069799;stroke-miterlimit:4;stroke-dasharray:none;stroke-opacity:1"
         inkscape:export-filename="/home/juergen/Schreibtisch/path4136.png"
         inkscape:export-xdpi="648"
         inkscape:export-ydpi="648" />
    </clipPath>
    <clipPath
       id="clipPath6144"
       clipPathUnits="userSpaceOnUse">
      <circle
         r="10"
         cy="10.000005"
         cx="9.9999781"
         id="circle6146"
         style="opacity:1;fill:#e91e63;fill-opacity:1;stroke:none;stroke-width:0.05069799;stroke-miterlimit:4;stroke-dasharray:none;stroke-opacity:1"
         inkscape:export-filename="/home/juergen/Schreibtisch/path4136.png"
         inkscape:export-xdpi="648"
         inkscape:export-ydpi="648" />
    </clipPath>
    <clipPath
       clipPathUnits="userSpaceOnUse"
       id="clipPath7143">
      <circle
         r="10"
         cy="10.000005"
         cx="9.9999781"
         id="circle7145"
         style="opacity:1;fill:#ffeb3b;fill-opacity:1;stroke:none;stroke-width:0.05069799;stroke-miterlimit:4;stroke-dasharray:none;stroke-opacity:1"
         inkscape:export-filename="/home/juergen/Schreibtisch/path4136.png"
         inkscape:export-xdpi="648"
         inkscape:export-ydpi="648" />
    </clipPath>
    <clipPath
       id="clipPath8148"
       clipPathUnits="userSpaceOnUse">
      <circle
         r="10"
         cy="10.000005"
         cx="9.9999781"
         id="circle8150"
         style="opacity:1;fill:#9c27b0;fill-opacity:1;stroke:none;stroke-width:0.05069799;stroke-miterlimit:4;stroke-dasharray:none;stroke-opacity:1"
         inkscape:export-filename="/home/juergen/Schreibtisch/path4136.png"
         inkscape:export-xdpi="648"
         inkscape:export-ydpi="648" />
    </clipPath>
    <clipPath
       clipPathUnits="userSpaceOnUse"
       id="clipPath5332">
      <circle
         r="10"
         cy="10.000005"
         cx="9.9999781"
         id="circle5334"
         style="opacity:1;fill:#f44336;fill-opacity:1;stroke:none;stroke-width:0.05069799;stroke-miterlimit:4;stroke-dasharray:none;stroke-opacity:1"
         inkscape:export-filename="/home/juergen/Schreibtisch/path4136.png"
         inkscape:export-xdpi="648"
         inkscape:export-ydpi="648" />
    </clipPath>
    <clipPath
       id="clipPath6341"
       clipPathUnits="userSpaceOnUse">
      <circle
         r="10"
         cy="10.000005"
         cx="9.9999781"
         id="circle6343"
         style="opacity:1;fill:#4caf50;fill-opacity:1;stroke:none;stroke-width:0.05069799;stroke-miterlimit:4;stroke-dasharray:none;stroke-opacity:1"
         inkscape:export-filename="/home/juergen/Schreibtisch/path4136.png"
         inkscape:export-xdpi="648"
         inkscape:export-ydpi="648" />
    </clipPath>
    <clipPath
       clipPathUnits="userSpaceOnUse"
       id="clipPath7354">
      <circle
         r="10"
         cy="10.000005"
         cx="9.9999781"
         id="circle7356"
         style="opacity:1;fill:#f44336;fill-opacity:1;stroke:none;stroke-width:0.05069799;stroke-miterlimit:4;stroke-dasharray:none;stroke-opacity:1"
         inkscape:export-filename="/home/juergen/Schreibtisch/path4136.png"
         inkscape:export-xdpi="648"
         inkscape:export-ydpi="648" />
    </clipPath>
    <clipPath
       id="clipPath8344"
       clipPathUnits="userSpaceOnUse">
      <circle
         r="10"
         cy="10.000005"
         cx="9.9999781"
         id="circle8346"
         style="opacity:1;fill:#673ab7;fill-opacity:1;stroke:none;stroke-width:0.05069799;stroke-miterlimit:4;stroke-dasharray:none;stroke-opacity:1"
         inkscape:export-filename="/home/juergen/Schreibtisch/path4136.png"
         inkscape:export-xdpi="648"
         inkscape:export-ydpi="648" />
    </clipPath>
    <clipPath
       clipPathUnits="userSpaceOnUse"
       id="clipPath9436">
      <circle
         r="10"
         cy="10.000005"
         cx="9.9999781"
         id="circle9438"
         style="opacity:1;fill:#9e9e9e;fill-opacity:1;stroke:none;stroke-width:0.05069799;stroke-miterlimit:4;stroke-dasharray:none;stroke-opacity:1"
         inkscape:export-filename="/home/juergen/Schreibtisch/path4136.png"
         inkscape:export-xdpi="648"
         inkscape:export-ydpi="648" />
    </clipPath>
    <clipPath
       id="clipPath10432"
       clipPathUnits="userSpaceOnUse">
      <circle
         r="10"
         cy="10.000005"
         cx="9.9999781"
         id="circle10434"
         style="opacity:1;fill:#795548;fill-opacity:1;stroke:none;stroke-width:0.05069799;stroke-miterlimit:4;stroke-dasharray:none;stroke-opacity:1"
         inkscape:export-filename="/home/juergen/Schreibtisch/path4136.png"
         inkscape:export-xdpi="648"
         inkscape:export-ydpi="648" />
    </clipPath>
    <linearGradient
       inkscape:collect="always"
       xlink:href="#linearGradient11423"
       id="linearGradient11429"
       x1="10"
       y1="9.9553576"
       x2="20"
       y2="20"
       gradientUnits="userSpaceOnUse" />
    <clipPath
       clipPathUnits="userSpaceOnUse"
       id="clipPath11433">
      <circle
         r="10"
         cy="10.000005"
         cx="9.9999781"
         id="circle11435"
         style="opacity:1;fill:#03a9f4;fill-opacity:1;stroke:none;stroke-width:0.05069799;stroke-miterlimit:4;stroke-dasharray:none;stroke-opacity:1"
         inkscape:export-filename="/home/juergen/Schreibtisch/path4136.png"
         inkscape:export-xdpi="648"
         inkscape:export-ydpi="648" />
    </clipPath>
  </defs>
  <metadata
     id="metadata7">
    <rdf:RDF>
      <cc:Work
         rdf:about="">
        <dc:format>image/svg+xml</dc:format>
        <dc:type
           rdf:resource="http://purl.org/dc/dcmitype/StillImage" />
        <dc:title></dc:title>
      </cc:Work>
    </rdf:RDF>
  </metadata>
  <g
     inkscape:label="Hintergrund"
     inkscape:groupmode="layer"
     id="layer1"
     transform="translate(1058.1428,-861.93365)">
    <circle
       inkscape:export-ydpi="648"
       inkscape:export-xdpi="648"
       inkscape:export-filename="/home/juergen/Schreibtisch/path4136.png"
       style="opacity:1;fill:#ffc107;fill-opacity:1;stroke:none;stroke-width:0.05069799;stroke-miterlimit:4;stroke-dasharray:none;stroke-opacity:1"
       id="path4136"
       cx="-1048.1428"
       cy="871.93365"
       r="10" />
    <path
       style="fill:url(#linearGradient11429);fill-opacity:1;stroke-linejoin:round"
       d="M 7.3984375 5.1484375 C 6.1558375 5.1484375 5.1484375 6.1557975 5.1484375 7.3984375 C 5.1484375 8.0553393 5.4357981 8.6413909 5.8847656 9.0527344 C 5.9339004 9.1069442 5.9849125 9.1578319 6.0390625 9.2070312 C 6.0853014 9.2576088 6.1329589 9.3053853 6.1835938 9.3515625 C 6.2303087 9.4027858 6.2788619 9.4513244 6.3300781 9.4980469 C 6.376463 9.5488919 6.4237875 9.5981215 6.4746094 9.6445312 C 6.5204031 9.6946773 6.5690267 9.7412812 6.6191406 9.7871094 C 6.6655771 9.8380273 6.7147398 9.8851691 6.765625 9.9316406 C 6.8115442 9.9819198 6.857941 10.030234 6.9082031 10.076172 C 6.9543706 10.126656 7.0021863 10.174605 7.0527344 10.220703 C 7.0971685 10.269173 7.1429231 10.314955 7.1914062 10.359375 C 7.2363295 10.408513 7.2829544 10.455011 7.3320312 10.5 C 7.3778516 10.55012 7.4244709 10.598731 7.4746094 10.644531 C 7.4780404 10.648269 7.480919 10.652536 7.484375 10.65625 C 7.4553403 10.65514 7.4277441 10.648438 7.3984375 10.648438 C 6.1558375 10.648438 5.1484375 11.655787 5.1484375 12.898438 C 5.1484375 13.555345 5.4357981 14.141392 5.8847656 14.552734 C 5.9339004 14.606944 5.9849125 14.657832 6.0390625 14.707031 C 6.0853014 14.757609 6.1329589 14.805385 6.1835938 14.851562 C 6.2303087 14.902786 6.2788619 14.951325 6.3300781 14.998047 C 6.376463 15.048892 6.4237875 15.098122 6.4746094 15.144531 C 6.5204031 15.194677 6.5690267 15.241281 6.6191406 15.287109 C 6.6655771 15.338027 6.7147398 15.385169 6.765625 15.431641 C 6.8115442 15.48192 6.857941 15.530235 6.9082031 15.576172 C 6.9543706 15.626655 7.0021863 15.674605 7.0527344 15.720703 C 7.0971685 15.769173 7.1429231 15.814955 7.1914062 15.859375 C 7.2363295 15.908513 7.2829544 15.955011 7.3320312 16 C 7.3772334 16.049443 7.4232497 16.097337 7.4726562 16.142578 C 7.5172786 16.191307 7.5645696 16.236609 7.6132812 16.28125 C 7.6573049 16.329287 7.7019987 16.37586 7.75 16.419922 C 7.7937352 16.467697 7.8390507 16.512791 7.8867188 16.556641 C 7.9326516 16.60688 7.9809785 16.65332 8.03125 16.699219 C 8.0729725 16.74451 8.1148816 16.788338 8.1601562 16.830078 C 8.205749 16.879946 8.2528659 16.927064 8.3027344 16.972656 C 8.345332 17.018836 8.3892562 17.06299 8.4355469 17.105469 C 8.477465 17.151022 8.5208973 17.194362 8.5664062 17.236328 C 8.6114396 17.285464 8.6578395 17.33198 8.7070312 17.376953 C 8.7472521 17.42045 8.7885234 17.461744 8.8320312 17.501953 C 8.8764451 17.550413 8.9222424 17.596212 8.9707031 17.640625 C 9.0118937 17.685183 9.0549728 17.726472 9.0996094 17.767578 C 9.1416058 17.81318 9.1848726 17.856435 9.2304688 17.898438 C 9.2721317 17.943664 9.3141699 17.987611 9.359375 18.029297 C 9.4004414 18.073829 9.4437769 18.115154 9.4882812 18.15625 C 9.5299382 18.201483 9.5719879 18.245417 9.6171875 18.287109 C 9.6582582 18.331634 9.7015859 18.372974 9.7460938 18.414062 C 9.7872549 18.458648 9.8284378 18.501833 9.8730469 18.542969 C 9.9132097 18.586403 9.9546065 18.627813 9.9980469 18.667969 C 10.038204 18.711409 10.079612 18.752807 10.123047 18.792969 C 10.162976 18.836172 10.204875 18.876053 10.248047 18.916016 C 10.288585 18.959927 10.329162 19.002402 10.373047 19.042969 C 10.412063 19.085081 10.452038 19.125037 10.494141 19.164062 C 10.534017 19.207199 10.576031 19.247204 10.619141 19.287109 C 10.658479 19.329606 10.697754 19.3708 10.740234 19.410156 C 10.779487 19.452503 10.818954 19.49398 10.861328 19.533203 C 10.899415 19.574238 10.939446 19.612292 10.980469 19.650391 C 11.019159 19.692142 11.057883 19.732767 11.099609 19.771484 C 11.137919 19.81277 11.177469 19.852311 11.21875 19.890625 C 11.256493 19.93129 11.29531 19.97003 11.335938 20.007812 C 11.374314 20.04917 11.41372 20.088577 11.455078 20.126953 C 11.492536 20.167212 11.531976 20.204762 11.572266 20.242188 C 11.607918 20.280482 11.643422 20.317784 11.681641 20.353516 C 11.721221 20.396329 11.761922 20.436931 11.804688 20.476562 C 11.840642 20.515027 11.877467 20.552025 11.916016 20.587891 C 11.951305 20.625818 11.987584 20.661848 12.025391 20.697266 C 12.063776 20.738686 12.103157 20.777971 12.144531 20.816406 C 12.179861 20.854203 12.21607 20.890493 12.253906 20.925781 C 12.289582 20.964049 12.326994 20.999452 12.365234 21.035156 C 12.401461 21.074058 12.437689 21.112181 12.476562 21.148438 C 12.512245 21.186695 12.549644 21.222118 12.587891 21.257812 C 12.622291 21.294655 12.656577 21.33077 12.693359 21.365234 C 12.730595 21.405219 12.768563 21.443282 12.808594 21.480469 C 12.842484 21.516541 12.877881 21.55021 12.914062 21.583984 C 12.947931 21.620169 12.981408 21.655569 13.017578 21.689453 C 13.051034 21.725245 13.085387 21.759423 13.121094 21.792969 C 13.157361 21.831914 13.193501 21.869957 13.232422 21.90625 C 13.265357 21.941266 13.30084 21.97301 13.335938 22.005859 C 13.369806 22.042044 13.403283 22.077444 13.439453 22.111328 C 13.472719 22.146822 13.507486 22.179614 13.542969 22.212891 C 13.576246 22.248373 13.609037 22.283141 13.644531 22.316406 C 13.676193 22.350189 13.708515 22.382285 13.742188 22.414062 C 13.777251 22.451623 13.812072 22.48835 13.849609 22.523438 C 13.881042 22.556775 13.913868 22.587771 13.947266 22.619141 C 13.979552 22.653513 14.012506 22.686461 14.046875 22.71875 C 14.079217 22.753182 14.112052 22.786018 14.146484 22.818359 C 14.177882 22.85171 14.208825 22.884631 14.242188 22.916016 C 14.273568 22.949385 14.306497 22.980314 14.339844 23.011719 C 14.371557 23.045482 14.403775 23.077621 14.4375 23.109375 C 14.468228 23.142009 14.49864 23.174326 14.53125 23.205078 C 14.561384 23.237117 14.593051 23.266646 14.625 23.296875 C 14.656673 23.330639 14.68702 23.364726 14.720703 23.396484 C 14.752462 23.430167 14.786548 23.460515 14.820312 23.492188 C 14.849302 23.522756 14.877553 23.553128 14.908203 23.582031 C 14.936761 23.612314 14.96591 23.64126 14.996094 23.669922 C 15.028417 23.704332 15.061292 23.737209 15.095703 23.769531 C 15.123699 23.799008 15.152098 23.827542 15.181641 23.855469 C 15.210582 23.886094 15.240879 23.914396 15.271484 23.943359 C 15.299739 23.973293 15.327578 24.002901 15.357422 24.03125 C 15.38853 24.064286 15.420088 24.095846 15.453125 24.126953 C 15.480537 24.15581 15.508215 24.183566 15.537109 24.210938 C 15.565455 24.24086 15.595063 24.268545 15.625 24.296875 C 15.651719 24.325108 15.676942 24.35404 15.705078 24.380859 C 15.735233 24.412841 15.766863 24.442484 15.798828 24.472656 C 15.825359 24.500522 15.852943 24.526257 15.880859 24.552734 C 15.907923 24.581267 15.934378 24.609634 15.962891 24.636719 C 15.990271 24.665618 16.018009 24.693288 16.046875 24.720703 C 16.073648 24.748897 16.100717 24.775957 16.128906 24.802734 C 16.15568 24.830928 16.182748 24.857988 16.210938 24.884766 C 16.237375 24.912602 16.263197 24.940341 16.291016 24.966797 C 16.316795 24.993904 16.344003 25.019126 16.371094 25.044922 C 16.397485 25.072709 16.423404 25.100541 16.451172 25.126953 C 16.476989 25.154095 16.504118 25.179251 16.53125 25.205078 C 16.55518 25.230208 16.578457 25.255294 16.603516 25.279297 C 16.63151 25.308842 16.659907 25.337241 16.689453 25.365234 C 16.713433 25.390262 16.738568 25.4136 16.763672 25.4375 C 16.788236 25.463234 16.812141 25.489124 16.837891 25.513672 C 16.860604 25.537442 16.884476 25.559273 16.908203 25.582031 C 16.935298 25.610597 16.961687 25.638902 16.990234 25.666016 C 17.012998 25.689722 17.036773 25.711682 17.060547 25.734375 C 17.084477 25.759445 17.107757 25.784649 17.132812 25.808594 C 17.156799 25.833693 17.181915 25.856889 17.207031 25.880859 C 17.230106 25.904974 17.253225 25.928101 17.277344 25.951172 C 17.300672 25.975552 17.323261 26.000125 17.347656 26.023438 C 17.370019 26.046777 17.392674 26.069436 17.416016 26.091797 C 17.437142 26.113852 17.458467 26.135067 17.480469 26.15625 C 17.505658 26.182706 17.530201 26.209169 17.556641 26.234375 C 17.577477 26.255993 17.599414 26.276103 17.621094 26.296875 C 17.643201 26.319948 17.666389 26.341165 17.689453 26.363281 C 17.710907 26.385648 17.731552 26.40822 17.753906 26.429688 C 17.775403 26.452074 17.797914 26.472656 17.820312 26.494141 C 17.840174 26.514847 17.858272 26.536704 17.878906 26.556641 C 17.902245 26.581061 17.926764 26.603601 17.951172 26.626953 C 17.970759 26.64725 17.989433 26.667949 18.009766 26.6875 C 18.029919 26.708458 18.05132 26.727881 18.072266 26.748047 C 18.092787 26.769416 18.113421 26.79 18.134766 26.810547 C 18.15467 26.831225 18.174637 26.851188 18.195312 26.871094 C 18.215217 26.891772 18.235184 26.911734 18.255859 26.931641 C 18.275389 26.951925 18.294181 26.972646 18.314453 26.992188 C 18.33336 27.011802 18.353444 27.029909 18.373047 27.048828 C 18.391048 27.067527 18.409101 27.085447 18.427734 27.103516 C 18.447943 27.124587 18.467273 27.145742 18.488281 27.166016 C 18.508205 27.186661 18.528134 27.206689 18.548828 27.226562 C 18.564265 27.24246 18.579806 27.258 18.595703 27.273438 C 18.615228 27.293768 18.634027 27.314397 18.654297 27.333984 C 18.673247 27.353595 18.693244 27.371712 18.712891 27.390625 C 18.729344 27.407569 18.746696 27.423032 18.763672 27.439453 C 18.78105 27.457418 18.798442 27.474808 18.816406 27.492188 C 18.83219 27.508503 18.847015 27.525182 18.863281 27.541016 C 18.881559 27.560002 18.899039 27.57932 18.917969 27.597656 C 18.935667 27.615927 18.954352 27.632727 18.972656 27.650391 C 18.986197 27.664301 18.999778 27.677848 19.013672 27.691406 C 19.032935 27.711416 19.052279 27.730713 19.072266 27.75 C 19.086828 27.764925 19.102219 27.778452 19.117188 27.792969 C 19.132964 27.809236 19.147805 27.826011 19.164062 27.841797 C 19.179527 27.857723 19.195012 27.873208 19.210938 27.888672 C 19.226086 27.90427 19.242221 27.918438 19.257812 27.933594 C 19.272331 27.948529 19.285856 27.963987 19.300781 27.978516 C 19.315931 27.994117 19.332064 28.008279 19.347656 28.023438 C 19.362175 28.038372 19.3757 28.053832 19.390625 28.068359 C 19.404828 28.082951 19.419002 28.097125 19.433594 28.111328 C 19.447773 28.125894 19.461996 28.140119 19.476562 28.154297 C 19.488509 28.166541 19.499498 28.179436 19.511719 28.191406 C 19.528142 28.20836 19.545555 28.223802 19.5625 28.240234 C 19.572883 28.250824 19.583161 28.261101 19.59375 28.271484 C 19.608268 28.286455 19.621793 28.301843 19.636719 28.316406 C 19.650931 28.330971 19.665088 28.345199 19.679688 28.359375 C 19.69103 28.370927 19.703256 28.381272 19.714844 28.392578 C 19.726512 28.404508 19.738071 28.416065 19.75 28.427734 C 19.761001 28.439009 19.771969 28.449895 19.783203 28.460938 C 19.796461 28.474576 19.808668 28.488653 19.822266 28.501953 C 19.835213 28.51519 19.84806 28.5281 19.861328 28.541016 C 19.869754 28.549577 19.878157 28.55798 19.886719 28.566406 C 19.899283 28.579313 19.91096 28.592865 19.923828 28.605469 C 19.936432 28.618337 19.949983 28.630015 19.962891 28.642578 C 19.971683 28.65149 19.981296 28.659204 19.990234 28.667969 C 20.000618 28.678558 20.010895 28.688835 20.021484 28.699219 C 20.031534 28.709468 20.040539 28.720412 20.050781 28.730469 C 20.060482 28.74035 20.070197 28.750064 20.080078 28.759766 C 20.089779 28.769647 20.099494 28.779361 20.109375 28.789062 C 20.118788 28.79865 20.129089 28.806988 20.138672 28.816406 C 20.147784 28.825676 20.156746 28.834638 20.166016 28.84375 C 20.175127 28.85302 20.184089 28.861982 20.193359 28.871094 C 20.202132 28.880018 20.209831 28.88966 20.21875 28.898438 C 20.225525 28.905321 20.231419 28.913126 20.238281 28.919922 C 20.249602 28.93148 20.261872 28.941812 20.273438 28.953125 C 20.279952 28.959696 20.286374 28.966166 20.292969 28.972656 C 20.298818 28.978584 20.304633 28.984371 20.310547 28.990234 C 20.320943 29.000837 20.331194 29.011088 20.341797 29.021484 C 20.346025 29.025748 20.349254 29.030926 20.353516 29.035156 C 20.363213 29.045033 20.372936 29.054756 20.382812 29.064453 C 20.387985 29.069664 20.393214 29.074918 20.398438 29.080078 C 20.40524 29.086964 20.413031 29.092811 20.419922 29.099609 C 20.425789 29.105542 20.431567 29.11132 20.4375 29.117188 C 20.443369 29.123121 20.449144 29.128897 20.455078 29.134766 C 20.459303 29.139038 20.462538 29.144199 20.466797 29.148438 C 20.47522 29.156995 20.483629 29.165405 20.492188 29.173828 C 20.493477 29.175124 20.496754 29.178394 20.498047 29.179688 C 20.50647 29.188246 20.514879 29.196655 20.523438 29.205078 C 20.523438 29.205078 20.525391 29.207031 20.525391 29.207031 C 20.527692 29.209333 20.530892 29.210599 20.533203 29.212891 C 20.535495 29.215202 20.538714 29.220355 20.541016 29.222656 C 20.548162 29.229899 20.555257 29.236995 20.5625 29.244141 C 20.5625 29.244141 20.564453 29.246094 20.564453 29.246094 C 20.5664 29.248041 20.568358 29.250013 20.570312 29.251953 C 20.573897 29.255564 20.578422 29.258132 20.582031 29.261719 C 20.585321 29.265029 20.588487 29.268194 20.591797 29.271484 C 20.59345 29.273148 20.594045 29.275686 20.595703 29.277344 C 20.596723 29.278352 20.60054 29.280244 20.601562 29.28125 C 20.60321 29.282908 20.603816 29.285457 20.605469 29.287109 C 20.60969 29.291378 20.612932 29.296546 20.617188 29.300781 C 20.621775 29.305391 20.628185 29.30793 20.632812 29.3125 C 20.633818 29.313509 20.633758 29.315399 20.634766 29.316406 C 20.634766 29.316406 20.636719 29.318359 20.636719 29.318359 C 20.636719 29.318359 20.638672 29.318359 20.638672 29.318359 C 20.638672 29.318359 20.640625 29.320312 20.640625 29.320312 C 20.640625 29.320312 20.640625 29.322266 20.640625 29.322266 C 20.640625 29.322266 20.642578 29.324219 20.642578 29.324219 C 20.642578 29.324219 20.644531 29.326172 20.644531 29.326172 C 20.644531 29.326172 20.646484 29.328125 20.646484 29.328125 C 20.646484 29.328125 20.648438 29.330078 20.648438 29.330078 C 20.648438 29.330078 20.650391 29.332031 20.650391 29.332031 C 20.652395 29.334043 20.654238 29.335886 20.65625 29.337891 C 20.656543 29.338185 20.657909 29.337597 20.658203 29.337891 C 20.658203 29.337891 20.658203 29.339844 20.658203 29.339844 C 20.670334 29.351975 20.684861 29.361194 20.697266 29.373047 C 20.749941 29.423076 20.807913 29.466931 20.865234 29.511719 C 20.905135 29.542776 20.940439 29.579059 20.982422 29.607422 C 20.984705 29.608977 20.985992 29.611735 20.988281 29.613281 C 20.989457 29.614079 20.991011 29.614439 20.992188 29.615234 C 21.11085 29.695067 21.237853 29.763956 21.371094 29.820312 C 21.371094 29.820312 21.373047 29.822266 21.373047 29.822266 C 21.507639 29.879193 21.648455 29.923153 21.794922 29.953125 C 21.795538 29.953252 21.796259 29.952999 21.796875 29.953125 C 21.811382 29.956081 21.827189 29.954356 21.841797 29.957031 C 21.974679 29.981485 22.110048 30 22.25 30 C 22.371801 30 22.49087 29.989331 22.607422 29.970703 C 22.608053 29.970602 22.608744 29.970805 22.609375 29.970703 C 23.077983 29.895396 23.49772 29.674848 23.822266 29.357422 C 23.903052 29.278408 23.978673 29.193873 24.046875 29.103516 C 24.047202 29.103081 24.046548 29.101997 24.046875 29.101562 C 24.128495 28.993118 24.198558 28.874376 24.259766 28.751953 L 24.292969 28.751953 L 24.292969 28.792969 L 24.335938 28.792969 L 24.335938 28.835938 L 24.376953 28.835938 L 24.376953 28.876953 L 24.417969 28.876953 L 24.417969 28.917969 L 24.457031 28.917969 L 24.457031 28.957031 L 24.496094 28.957031 L 24.496094 28.996094 L 24.535156 28.996094 L 24.535156 29.035156 L 24.572266 29.035156 L 24.572266 29.072266 L 24.609375 29.072266 L 24.609375 29.109375 L 24.644531 29.109375 L 24.644531 29.144531 L 24.679688 29.144531 L 24.679688 29.179688 L 24.714844 29.179688 L 24.714844 29.214844 L 24.748047 29.214844 L 24.748047 29.248047 L 24.78125 29.248047 L 24.78125 29.28125 L 24.814453 29.28125 L 24.814453 29.314453 L 24.845703 29.314453 L 24.845703 29.345703 L 24.875 29.345703 L 24.875 29.375 L 24.90625 29.375 L 24.90625 29.40625 L 24.935547 29.40625 L 24.935547 29.435547 L 24.964844 29.435547 L 24.964844 29.464844 L 24.992188 29.464844 L 24.992188 29.492188 L 25.019531 29.492188 L 25.019531 29.519531 L 25.044922 29.519531 L 25.044922 29.544922 L 25.070312 29.544922 L 25.070312 29.570312 L 25.095703 29.570312 L 25.095703 29.595703 L 25.119141 29.595703 L 25.119141 29.619141 L 25.142578 29.619141 L 25.142578 29.642578 L 25.166016 29.642578 L 25.166016 29.666016 L 25.1875 29.666016 L 25.1875 29.6875 L 25.208984 29.6875 L 25.208984 29.708984 L 25.228516 29.708984 L 25.228516 29.728516 L 25.248047 29.728516 L 25.248047 29.748047 L 25.267578 29.748047 L 25.267578 29.767578 L 25.285156 29.767578 L 25.285156 29.787109 L 25.302734 29.787109 L 25.302734 29.802734 L 25.320312 29.802734 L 25.320312 29.820312 L 25.335938 29.820312 L 25.335938 29.835938 L 25.351562 29.835938 L 25.351562 29.851562 L 25.365234 29.851562 L 25.365234 29.865234 L 25.378906 29.865234 L 25.378906 29.878906 L 25.392578 29.878906 L 25.392578 29.892578 L 25.404297 29.892578 L 25.404297 29.904297 L 25.416016 29.904297 L 25.416016 29.916016 L 25.427734 29.916016 L 25.427734 29.927734 L 25.4375 29.927734 L 25.4375 29.9375 L 25.447266 29.9375 L 25.447266 29.947266 L 25.455078 29.947266 L 25.455078 29.955078 L 25.462891 29.955078 L 25.462891 29.962891 L 25.470703 29.962891 L 25.470703 29.970703 L 25.476562 29.970703 L 25.476562 29.976562 L 25.482422 29.976562 L 25.482422 29.982422 L 25.486328 29.982422 L 25.486328 29.986328 L 25.490234 29.986328 L 25.490234 29.990234 L 25.494141 29.990234 L 25.494141 29.994141 L 25.496094 29.994141 L 25.496094 29.996094 L 25.498047 29.996094 L 25.498047 29.998047 L 25.5 29.998047 L 25.5 30 L 27 30 L 27 28.996094 L 27.035156 28.996094 L 27.035156 29.035156 L 27.072266 29.035156 L 27.072266 29.072266 L 27.109375 29.072266 L 27.109375 29.109375 L 27.144531 29.109375 L 27.144531 29.144531 L 27.179688 29.144531 L 27.179688 29.179688 L 27.214844 29.179688 L 27.214844 29.214844 L 27.248047 29.214844 L 27.248047 29.248047 L 27.28125 29.248047 L 27.28125 29.28125 L 27.314453 29.28125 L 27.314453 29.314453 L 27.345703 29.314453 L 27.345703 29.345703 L 27.375 29.345703 L 27.375 29.375 L 27.40625 29.375 L 27.40625 29.40625 L 27.435547 29.40625 L 27.435547 29.435547 L 27.464844 29.435547 L 27.464844 29.464844 L 27.492188 29.464844 L 27.492188 29.492188 L 27.519531 29.492188 L 27.519531 29.519531 L 27.544922 29.519531 L 27.544922 29.544922 L 27.570312 29.544922 L 27.570312 29.570312 L 27.595703 29.570312 L 27.595703 29.595703 L 27.619141 29.595703 L 27.619141 29.619141 L 27.642578 29.619141 L 27.642578 29.642578 L 27.666016 29.642578 L 27.666016 29.666016 L 27.6875 29.666016 L 27.6875 29.6875 L 27.708984 29.6875 L 27.708984 29.708984 L 27.728516 29.708984 L 27.728516 29.728516 L 27.748047 29.728516 L 27.748047 29.748047 L 27.767578 29.748047 L 27.767578 29.767578 L 27.785156 29.767578 L 27.785156 29.787109 L 27.802734 29.787109 L 27.802734 29.802734 L 27.820312 29.802734 L 27.820312 29.820312 L 27.835938 29.820312 L 27.835938 29.835938 L 27.851562 29.835938 L 27.851562 29.851562 L 27.865234 29.851562 L 27.865234 29.865234 L 27.878906 29.865234 L 27.878906 29.878906 L 27.892578 29.878906 L 27.892578 29.892578 L 27.904297 29.892578 L 27.904297 29.904297 L 27.916016 29.904297 L 27.916016 29.916016 L 27.927734 29.916016 L 27.927734 29.927734 L 27.9375 29.927734 L 27.9375 29.9375 L 27.947266 29.9375 L 27.947266 29.947266 L 27.955078 29.947266 L 27.955078 29.955078 L 27.962891 29.955078 L 27.962891 29.962891 L 27.970703 29.962891 L 27.970703 29.970703 L 27.976562 29.970703 L 27.976562 29.976562 L 27.982422 29.976562 L 27.982422 29.982422 L 27.986328 29.982422 L 27.986328 29.986328 L 27.990234 29.986328 L 27.990234 29.990234 L 27.994141 29.990234 L 27.994141 29.994141 L 27.996094 29.994141 L 27.996094 29.996094 L 27.998047 29.996094 L 27.998047 29.998047 L 28 29.998047 L 28 30 L 29 30 L 29 28.5 L 30 28.5 L 30 27 L 29.998047 27 L 29.998047 26.998047 L 29.996094 26.998047 L 29.996094 26.996094 L 29.994141 26.996094 L 29.994141 26.994141 L 29.990234 26.994141 L 29.990234 26.990234 L 29.986328 26.990234 L 29.986328 26.986328 L 29.982422 26.986328 L 29.982422 26.982422 L 29.976562 26.982422 L 29.976562 26.976562 L 29.970703 26.976562 L 29.970703 26.970703 L 29.962891 26.970703 L 29.962891 26.962891 L 29.955078 26.962891 L 29.955078 26.955078 L 29.947266 26.955078 L 29.947266 26.947266 L 29.9375 26.947266 L 29.9375 26.9375 L 29.927734 26.9375 L 29.927734 26.927734 L 29.916016 26.927734 L 29.916016 26.916016 L 29.904297 26.916016 L 29.904297 26.904297 L 29.892578 26.904297 L 29.892578 26.892578 L 29.878906 26.892578 L 29.878906 26.878906 L 29.865234 26.878906 L 29.865234 26.865234 L 29.851562 26.865234 L 29.851562 26.851562 L 29.835938 26.851562 L 29.835938 26.835938 L 29.820312 26.835938 L 29.820312 26.820312 L 29.802734 26.820312 L 29.802734 26.802734 L 29.785156 26.802734 L 29.785156 26.787109 L 29.767578 26.787109 L 29.767578 26.767578 L 29.748047 26.767578 L 29.748047 26.748047 L 29.728516 26.748047 L 29.728516 26.728516 L 29.708984 26.728516 L 29.708984 26.708984 L 29.6875 26.708984 L 29.6875 26.6875 L 29.666016 26.6875 L 29.666016 26.666016 L 29.642578 26.666016 L 29.642578 26.642578 L 29.619141 26.642578 L 29.619141 26.619141 L 29.595703 26.619141 L 29.595703 26.595703 L 29.570312 26.595703 L 29.570312 26.570312 L 29.544922 26.570312 L 29.544922 26.544922 L 29.519531 26.544922 L 29.519531 26.519531 L 29.492188 26.519531 L 29.492188 26.492188 L 29.464844 26.492188 L 29.464844 26.464844 L 29.435547 26.464844 L 29.435547 26.435547 L 29.40625 26.435547 L 29.40625 26.40625 L 29.375 26.40625 L 29.375 26.375 L 29.345703 26.375 L 29.345703 26.345703 L 29.314453 26.345703 L 29.314453 26.314453 L 29.28125 26.314453 L 29.28125 26.28125 L 29.248047 26.28125 L 29.248047 26.248047 L 29.214844 26.248047 L 29.214844 26.214844 L 29.179688 26.214844 L 29.179688 26.179688 L 29.144531 26.179688 L 29.144531 26.144531 L 29.109375 26.144531 L 29.109375 26.109375 L 29.072266 26.109375 L 29.072266 26.072266 L 29.035156 26.072266 L 29.035156 26.035156 L 28.996094 26.035156 L 28.996094 25.996094 L 28.957031 25.996094 L 28.957031 25.957031 L 28.917969 25.957031 L 28.917969 25.917969 L 28.876953 25.917969 L 28.876953 25.876953 L 28.835938 25.876953 L 28.835938 25.835938 L 28.792969 25.835938 L 28.792969 25.792969 L 28.751953 25.792969 L 28.751953 25.751953 L 28.707031 25.751953 L 28.707031 25.707031 L 28.664062 25.707031 L 28.664062 25.664062 L 28.619141 25.664062 L 28.619141 25.619141 L 28.572266 25.619141 L 28.572266 25.572266 L 28.527344 25.572266 L 28.527344 25.527344 L 28.478516 25.527344 L 28.478516 25.478516 L 28.431641 25.478516 L 28.431641 25.431641 L 28.382812 25.431641 L 28.382812 25.382812 L 28.333984 25.382812 L 28.333984 25.333984 L 28.283203 25.333984 L 28.283203 25.283203 L 28.232422 25.283203 L 28.232422 25.232422 L 28.181641 25.232422 L 28.181641 25.181641 L 28.128906 25.181641 L 28.128906 25.128906 L 28.076172 25.128906 L 28.076172 25.076172 L 28.021484 25.076172 L 28.021484 25.021484 L 27.966797 25.021484 L 27.966797 24.966797 L 27.912109 24.966797 L 27.912109 24.912109 L 27.855469 24.912109 L 27.855469 24.855469 L 27.798828 24.855469 L 27.798828 24.798828 L 27.740234 24.798828 L 27.740234 24.740234 L 27.683594 24.740234 L 27.683594 24.683594 L 27.623047 24.683594 L 27.623047 24.623047 L 27.564453 24.623047 L 27.564453 24.564453 L 27.503906 24.564453 L 27.503906 24.503906 L 27.441406 24.503906 L 27.441406 24.5 L 28 24.5 L 28 23 L 30 23 L 30 21.5 L 29.998047 21.5 L 29.998047 21.498047 L 29.996094 21.498047 L 29.996094 21.496094 L 29.994141 21.496094 L 29.994141 21.494141 L 29.990234 21.494141 L 29.990234 21.490234 L 29.986328 21.490234 L 29.986328 21.486328 L 29.982422 21.486328 L 29.982422 21.482422 L 29.976562 21.482422 L 29.976562 21.476562 L 29.970703 21.476562 L 29.970703 21.470703 L 29.962891 21.470703 L 29.962891 21.462891 L 29.955078 21.462891 L 29.955078 21.455078 L 29.947266 21.455078 L 29.947266 21.447266 L 29.9375 21.447266 L 29.9375 21.4375 L 29.927734 21.4375 L 29.927734 21.427734 L 29.916016 21.427734 L 29.916016 21.416016 L 29.904297 21.416016 L 29.904297 21.404297 L 29.892578 21.404297 L 29.892578 21.392578 L 29.878906 21.392578 L 29.878906 21.378906 L 29.865234 21.378906 L 29.865234 21.365234 L 29.851562 21.365234 L 29.851562 21.351562 L 29.835938 21.351562 L 29.835938 21.335938 L 29.820312 21.335938 L 29.820312 21.320312 L 29.802734 21.320312 L 29.802734 21.302734 L 29.785156 21.302734 L 29.785156 21.287109 L 29.767578 21.287109 L 29.767578 21.267578 L 29.748047 21.267578 L 29.748047 21.248047 L 29.728516 21.248047 L 29.728516 21.228516 L 29.708984 21.228516 L 29.708984 21.208984 L 29.6875 21.208984 L 29.6875 21.1875 L 29.666016 21.1875 L 29.666016 21.166016 L 29.642578 21.166016 L 29.642578 21.142578 L 29.619141 21.142578 L 29.619141 21.119141 L 29.595703 21.119141 L 29.595703 21.095703 L 29.570312 21.095703 L 29.570312 21.070312 L 29.544922 21.070312 L 29.544922 21.044922 L 29.519531 21.044922 L 29.519531 21.019531 L 29.492188 21.019531 L 29.492188 20.992188 L 29.464844 20.992188 L 29.464844 20.964844 L 29.435547 20.964844 L 29.435547 20.935547 L 29.40625 20.935547 L 29.40625 20.90625 L 29.375 20.90625 L 29.375 20.875 L 29.345703 20.875 L 29.345703 20.845703 L 29.314453 20.845703 L 29.314453 20.814453 L 29.28125 20.814453 L 29.28125 20.78125 L 29.248047 20.78125 L 29.248047 20.748047 L 29.214844 20.748047 L 29.214844 20.714844 L 29.179688 20.714844 L 29.179688 20.679688 L 29.144531 20.679688 L 29.144531 20.644531 L 29.109375 20.644531 L 29.109375 20.609375 L 29.072266 20.609375 L 29.072266 20.572266 L 29.035156 20.572266 L 29.035156 20.535156 L 28.996094 20.535156 L 28.996094 20.496094 L 28.957031 20.496094 L 28.957031 20.457031 L 28.917969 20.457031 L 28.917969 20.417969 L 28.876953 20.417969 L 28.876953 20.376953 L 28.835938 20.376953 L 28.835938 20.335938 L 28.792969 20.335938 L 28.792969 20.292969 L 28.751953 20.292969 L 28.751953 20.251953 L 28.707031 20.251953 L 28.707031 20.207031 L 28.664062 20.207031 L 28.664062 20.164062 L 28.619141 20.164062 L 28.619141 20.119141 L 28.572266 20.119141 L 28.572266 20.072266 L 28.527344 20.072266 L 28.527344 20.027344 L 28.478516 20.027344 L 28.478516 19.978516 L 28.431641 19.978516 L 28.431641 19.931641 L 28.382812 19.931641 L 28.382812 19.882812 L 28.333984 19.882812 L 28.333984 19.833984 L 28.283203 19.833984 L 28.283203 19.783203 L 28.232422 19.783203 L 28.232422 19.732422 L 28.181641 19.732422 L 28.181641 19.681641 L 28.128906 19.681641 L 28.128906 19.628906 L 28.076172 19.628906 L 28.076172 19.576172 L 28.021484 19.576172 L 28.021484 19.521484 L 27.966797 19.521484 L 27.966797 19.466797 L 27.912109 19.466797 L 27.912109 19.412109 L 27.855469 19.412109 L 27.855469 19.355469 L 27.798828 19.355469 L 27.798828 19.298828 L 27.740234 19.298828 L 27.740234 19.240234 L 27.683594 19.240234 L 27.683594 19.183594 L 27.623047 19.183594 L 27.623047 19.123047 L 27.564453 19.123047 L 27.564453 19.064453 L 27.503906 19.064453 L 27.503906 19.003906 L 27.441406 19.003906 L 27.441406 18.941406 L 27.380859 18.941406 L 27.380859 18.880859 L 27.318359 18.880859 L 27.318359 18.818359 L 27.253906 18.818359 L 27.253906 18.753906 L 27.189453 18.753906 L 27.189453 18.689453 L 27.125 18.689453 L 27.125 18.625 L 27.058594 18.625 L 27.058594 18.558594 L 26.992188 18.558594 L 26.992188 18.492188 L 26.925781 18.492188 L 26.925781 18.425781 L 26.857422 18.425781 L 26.857422 18.357422 L 26.789062 18.357422 L 26.789062 18.289062 L 26.71875 18.289062 L 26.71875 18.21875 L 26.648438 18.21875 L 26.648438 18.148438 L 26.578125 18.148438 L 26.578125 18.078125 L 26.505859 18.078125 L 26.505859 18.005859 L 26.433594 18.005859 L 26.433594 17.933594 L 26.361328 17.933594 L 26.361328 17.861328 L 26.287109 17.861328 L 26.287109 17.787109 L 26.212891 17.787109 L 26.212891 17.712891 L 26.136719 17.712891 L 26.136719 17.636719 L 26.060547 17.636719 L 26.060547 17.560547 L 25.984375 17.560547 L 25.984375 17.484375 L 25.90625 17.484375 L 25.90625 17.40625 L 25.828125 17.40625 L 25.828125 17.328125 L 25.75 17.328125 L 25.75 17.25 L 25.669922 17.25 L 25.669922 17.169922 L 25.587891 17.169922 L 25.587891 17.087891 L 25.507812 17.087891 L 25.507812 17.007812 L 25.425781 17.007812 L 25.425781 16.925781 L 25.341797 16.925781 L 25.341797 16.841797 L 25.259766 16.841797 L 25.259766 16.759766 L 25.175781 16.759766 L 25.175781 16.675781 L 25.089844 16.675781 L 25.089844 16.589844 L 25.003906 16.589844 L 25.003906 16.503906 L 24.917969 16.503906 L 24.917969 16.417969 L 24.830078 16.417969 L 24.830078 16.330078 L 24.742188 16.330078 L 24.742188 16.242188 L 24.654297 16.242188 L 24.654297 16.154297 L 24.564453 16.154297 L 24.564453 16.064453 L 24.474609 16.064453 L 24.474609 15.974609 L 24.382812 15.974609 L 24.382812 15.882812 L 24.291016 15.882812 L 24.291016 15.791016 L 24.199219 15.791016 L 24.199219 15.699219 L 24.105469 15.699219 L 24.105469 15.605469 L 24.011719 15.605469 L 24.011719 15.511719 L 23.917969 15.511719 L 23.917969 15.416016 L 23.822266 15.416016 L 23.822266 15.322266 L 23.724609 15.322266 L 23.724609 15.224609 L 23.628906 15.224609 L 23.628906 15.128906 L 23.53125 15.128906 L 23.53125 15.03125 L 23.431641 15.03125 L 23.431641 14.931641 L 23.333984 14.931641 L 23.333984 14.833984 L 23.234375 14.833984 L 23.234375 14.734375 L 23.132812 14.734375 L 23.132812 14.632812 L 23.03125 14.632812 L 23.03125 14.53125 L 22.929688 14.53125 L 22.929688 14.429688 L 22.826172 14.429688 L 22.826172 14.326172 L 22.722656 14.326172 L 22.722656 14.222656 L 22.619141 14.222656 L 22.619141 14.119141 L 22.513672 14.119141 L 22.513672 14.013672 L 22.408203 14.013672 L 22.408203 13.908203 L 22.300781 13.908203 L 22.300781 13.800781 L 22.193359 13.800781 L 22.193359 13.693359 L 22.085938 13.693359 L 22.085938 13.585938 L 21.976562 13.585938 L 21.976562 13.476562 L 21.867188 13.476562 L 21.867188 13.367188 L 21.757812 13.367188 L 21.757812 13.257812 L 21.646484 13.257812 L 21.646484 13.146484 L 21.535156 13.146484 L 21.535156 13.035156 L 21.421875 13.035156 L 21.421875 12.921875 L 21.308594 12.921875 L 21.308594 12.808594 L 21.195312 12.808594 L 21.195312 12.695312 L 21.080078 12.695312 L 21.080078 12.580078 L 20.964844 12.580078 L 20.964844 12.464844 L 20.847656 12.464844 L 20.847656 12.347656 L 20.730469 12.347656 L 20.730469 12.230469 L 20.613281 12.230469 L 20.613281 12.113281 L 20.496094 12.113281 L 20.496094 11.996094 L 20.376953 11.996094 L 20.376953 11.876953 L 20.255859 11.876953 L 20.255859 11.755859 L 20.134766 11.755859 L 20.134766 11.634766 L 20.013672 11.634766 L 20.013672 11.513672 L 19.892578 11.513672 L 19.892578 11.392578 L 19.769531 11.392578 L 19.769531 11.269531 L 19.644531 11.269531 L 19.644531 11.144531 L 19.521484 11.144531 L 19.521484 11.021484 L 19.396484 11.021484 L 19.396484 10.896484 L 19.269531 10.896484 L 19.269531 10.769531 L 19.142578 10.769531 L 19.142578 10.642578 L 19.015625 10.642578 L 19.015625 10.515625 L 18.888672 10.515625 L 18.888672 10.388672 L 18.759766 10.388672 L 18.759766 10.259766 L 18.628906 10.259766 L 18.628906 10.128906 L 18.5 10.128906 L 18.5 10 L 18.369141 10 L 18.369141 9.8691406 L 18.236328 9.8691406 L 18.236328 9.7363281 L 18.103516 9.7363281 L 18.103516 9.6035156 L 17.970703 9.6035156 L 17.970703 9.4707031 L 17.835938 9.4707031 L 17.835938 9.3359375 L 17.701172 9.3359375 L 17.701172 9.2011719 L 17.566406 9.2011719 L 17.566406 9.0664062 L 17.429688 9.0664062 L 17.429688 8.9296875 L 17.292969 8.9296875 L 17.292969 8.7929688 L 17.15625 8.7929688 L 17.15625 8.6542969 L 17.017578 8.6542969 L 17.017578 8.5175781 L 16.876953 8.5175781 L 16.876953 8.3769531 L 16.738281 8.3769531 L 16.738281 8.2382812 L 16.597656 8.2382812 L 16.597656 8.0976562 L 16.455078 8.0976562 L 16.455078 7.9550781 L 16.3125 7.9550781 L 16.3125 7.8125 L 16.169922 7.8125 L 16.169922 7.6699219 L 16.027344 7.6699219 L 16.027344 7.5273438 L 15.882812 7.5273438 L 15.882812 7.3828125 L 15.736328 7.3828125 L 15.736328 7.2363281 L 15.591797 7.2363281 L 15.591797 7.0917969 L 15.445312 7.0917969 L 15.445312 6.9453125 L 15.296875 6.9453125 L 15.296875 6.796875 L 15.148438 6.796875 L 15.148438 6.6484375 L 9.8261719 6.6484375 C 9.8117637 6.6347213 9.7960175 6.6227091 9.78125 6.609375 C 9.7351394 6.5594562 9.6871358 6.5123712 9.6367188 6.4667969 C 9.5907342 6.4169497 9.5444167 6.3677886 9.4941406 6.3222656 C 9.4466223 6.2705708 9.3978225 6.2208885 9.3457031 6.1738281 C 9.300615 6.1248968 9.254302 6.0779769 9.2050781 6.0332031 C 9.1552845 5.9786965 9.1037107 5.9263395 9.0488281 5.8769531 C 8.6377412 5.4317188 8.0522348 5.1484375 7.3984375 5.1484375 z "
       transform="translate(-1058.1428,861.93365)"
       id="path10554"
       clip-path="url(#clipPath11433)" />
    <path
       style="fill:#e91e63;fill-opacity:1;stroke-linejoin:round"
       inkscape:connector-curvature="0"
       d="m -1050.8928,866.93365 c 0.9797,0 1.8131,0.62611 2.122,1.5 l 5.628,0 0,1.5 -2,0 0,1.5 -1.5,0 0,-1.5 -2.128,0 c -0.3089,0.87389 -1.1423,1.5 -2.122,1.5 -1.2426,0 -2.25,-1.00736 -2.25,-2.25 0,-1.24264 1.0074,-2.25 2.25,-2.25 z m 0,1.5 c -0.4142,0 -0.75,0.33579 -0.75,0.75 0,0.41422 0.3358,0.75 0.75,0.75 0.4142,0 0.75,-0.33578 0.75,-0.75 0,-0.41421 -0.3358,-0.75 -0.75,-0.75 z m 0,4 c 0.9797,0 1.8131,0.6261 2.122,1.5 l 5.628,0 0,1.5 -1,0 0,1.5 -1,0 0,-1.5 -1,0 0,1.5 -1.5,0 0,-1.5 -1.128,0 c -0.3089,0.8739 -1.1423,1.5 -2.122,1.5 -1.2426,0 -2.25,-1.00735 -2.25,-2.25 0,-1.24265 1.0074,-2.25 2.25,-2.25 z m 0,1.5 c -0.4142,0 -0.75,0.3358 -0.75,0.75 0,0.4142 0.3358,0.75 0.75,0.75 0.4142,0 0.75,-0.3358 0.75,-0.75 0,-0.4142 -0.3358,-0.75 -0.75,-0.75 z"
       id="path10478" />
  </g>
  <g
     style="display:inline"
     inkscape:groupmode="layer"
     id="layer2"
     inkscape:label="Icon">
    <path
       d="m 3.9999777,4.0333382 12.0000003,0 0,11.9333328 -12.0000003,0 z"
       id="path4"
       inkscape:connector-curvature="0"
       style="fill:none" />
    <path
       style="fill:none"
       inkscape:connector-curvature="0"
       id="path9956"
       d="m 18.999978,19.033339 12,0 0,11.933333 -12,0 z" />
  </g>
</svg>
