<?xml version="1.0" encoding="UTF-8" standalone="no"?>
<!-- Created with Inkscape (http://www.inkscape.org/) -->

<svg
   xmlns:dc="http://purl.org/dc/elements/1.1/"
   xmlns:cc="http://creativecommons.org/ns#"
   xmlns:rdf="http://www.w3.org/1999/02/22-rdf-syntax-ns#"
   xmlns:svg="http://www.w3.org/2000/svg"
   xmlns="http://www.w3.org/2000/svg"
   xmlns:xlink="http://www.w3.org/1999/xlink"
   xmlns:sodipodi="http://sodipodi.sourceforge.net/DTD/sodipodi-0.dtd"
   xmlns:inkscape="http://www.inkscape.org/namespaces/inkscape"
   width="5.6444445mm"
   height="5.6444445mm"
   viewBox="0 0 20 20"
   id="svg2"
   version="1.1"
   inkscape:version="0.91 r13725"
   sodipodi:docname="Keyboard.svg"
   inkscape:export-filename="/home/juergen/Schreibtisch/Icons/Email.svg.png"
   inkscape:export-xdpi="648"
   inkscape:export-ydpi="648">
  <sodipodi:namedview
     id="base"
     pagecolor="#ffffff"
     bordercolor="#666666"
     borderopacity="1.0"
     inkscape:pageopacity="0.0"
     inkscape:pageshadow="2"
     inkscape:zoom="11.2"
     inkscape:cx="9.7737152"
     inkscape:cy="9.1400923"
     inkscape:document-units="px"
     inkscape:current-layer="layer2"
     showgrid="false"
     fit-margin-top="0"
     fit-margin-left="0"
     fit-margin-right="0"
     fit-margin-bottom="0"
     showguides="true"
     inkscape:guide-bbox="true"
     inkscape:window-width="1366"
     inkscape:window-height="726"
     inkscape:window-x="0"
     inkscape:window-y="0"
     inkscape:window-maximized="1"
     inkscape:snap-grids="true"
     inkscape:snap-to-guides="true">
    <inkscape:grid
       id="grid4138"
       type="xygrid" />
    <sodipodi:guide
       id="guide4140"
       orientation="0,1"
       position="10,18" />
    <sodipodi:guide
       id="guide4142"
       orientation="0,1"
       position="10,2" />
    <sodipodi:guide
       id="guide4144"
       orientation="1,0"
       position="2,10" />
    <sodipodi:guide
       id="guide4146"
       orientation="0,20"
       position="0,0" />
    <sodipodi:guide
       id="guide4148"
       orientation="-20,0"
       position="20,0" />
    <sodipodi:guide
       id="guide4150"
       orientation="0,-20"
       position="20,20" />
    <sodipodi:guide
       id="guide4152"
       orientation="20,0"
       position="0,20" />
    <sodipodi:guide
       id="guide4154"
       orientation="1,0"
       position="18,10" />
    <sodipodi:guide
       id="guide4156"
       orientation="-0.70710678,0.70710678"
       position="10,10" />
    <sodipodi:guide
       id="guide4160"
       orientation="1,0"
       position="4,10" />
    <sodipodi:guide
       id="guide4162"
       orientation="1,0"
       position="16,10" />
    <sodipodi:guide
       id="guide4164"
       orientation="0,1"
       position="10,16" />
    <sodipodi:guide
       id="guide4166"
       orientation="0,1"
       position="10,4" />
    <sodipodi:guide
       id="guide4168"
       orientation="0,1"
       position="10,15" />
    <sodipodi:guide
       id="guide4170"
       orientation="0,1"
       position="10,5" />
    <sodipodi:guide
       id="guide4172"
       orientation="1,0"
       position="5,10" />
    <sodipodi:guide
       id="guide4174"
       orientation="1,0"
       position="15,10" />
  </sodipodi:namedview>
  <defs
     id="defs4">
    <linearGradient
       inkscape:collect="always"
       id="linearGradient7144">
      <stop
         style="stop-color:#000000;stop-opacity:1;"
         offset="0"
         id="stop7146" />
      <stop
         style="stop-color:#000000;stop-opacity:0;"
         offset="1"
         id="stop7148" />
    </linearGradient>
    <clipPath
       clipPathUnits="userSpaceOnUse"
       id="clipPath12478">
      <circle
         style="opacity:1;fill:#2196f3;fill-opacity:1;stroke:none;stroke-width:0.05069799;stroke-miterlimit:4;stroke-dasharray:none;stroke-opacity:1"
         id="circle12480"
         cx="9.9999781"
         cy="10.000005"
         r="10" />
    </clipPath>
    <clipPath
       id="clipPath5790"
       clipPathUnits="userSpaceOnUse">
      <circle
         inkscape:export-ydpi="648"
         inkscape:export-xdpi="648"
         inkscape:export-filename="/home/juergen/path4136.png"
         style="opacity:1;fill:#2196f3;fill-opacity:1;stroke:none;stroke-width:0.05069799;stroke-miterlimit:4;stroke-dasharray:none;stroke-opacity:1"
         id="circle5792"
         cx="9.9999781"
         cy="10.000005"
         r="10" />
    </clipPath>
    <clipPath
       clipPathUnits="userSpaceOnUse"
       id="clipPath5055">
      <circle
         inkscape:export-ydpi="648"
         inkscape:export-xdpi="648"
         inkscape:export-filename="/home/juergen/path4136.png"
         style="opacity:1;fill:#2196f3;fill-opacity:1;stroke:none;stroke-width:0.05069799;stroke-miterlimit:4;stroke-dasharray:none;stroke-opacity:1"
         id="circle5057"
         cx="9.9999781"
         cy="10.000005"
         r="10" />
    </clipPath>
    <clipPath
       id="clipPath5119"
       clipPathUnits="userSpaceOnUse">
      <circle
         inkscape:export-ydpi="648"
         inkscape:export-xdpi="648"
         inkscape:export-filename="/home/juergen/Schreibtisch/path4136.png"
         style="opacity:1;fill:#2196f3;fill-opacity:1;stroke:none;stroke-width:0.05069799;stroke-miterlimit:4;stroke-dasharray:none;stroke-opacity:1"
         id="circle5121"
         cx="9.9999781"
         cy="10.000005"
         r="10" />
    </clipPath>
    <clipPath
       clipPathUnits="userSpaceOnUse"
       id="clipPath5194">
      <circle
         inkscape:export-ydpi="648"
         inkscape:export-xdpi="648"
         inkscape:export-filename="/home/juergen/Schreibtisch/path4136.png"
         style="opacity:1;fill:#cddc39;fill-opacity:1;stroke:none;stroke-width:0.05069799;stroke-miterlimit:4;stroke-dasharray:none;stroke-opacity:1"
         id="circle5196"
         cx="9.9999781"
         cy="10.000005"
         r="10" />
    </clipPath>
    <clipPath
       id="clipPath6175"
       clipPathUnits="userSpaceOnUse">
      <circle
         inkscape:export-ydpi="648"
         inkscape:export-xdpi="648"
         inkscape:export-filename="/home/juergen/Schreibtisch/path4136.png"
         style="opacity:1;fill:#f44336;fill-opacity:1;stroke:none;stroke-width:0.05069799;stroke-miterlimit:4;stroke-dasharray:none;stroke-opacity:1"
         id="circle6177"
         cx="9.9999781"
         cy="10.000005"
         r="10" />
    </clipPath>
    <clipPath
       clipPathUnits="userSpaceOnUse"
       id="clipPath7176">
      <circle
         inkscape:export-ydpi="648"
         inkscape:export-xdpi="648"
         inkscape:export-filename="/home/juergen/Schreibtisch/path4136.png"
         style="opacity:1;fill:#9c27b0;fill-opacity:1;stroke:none;stroke-width:0.05069799;stroke-miterlimit:4;stroke-dasharray:none;stroke-opacity:1"
         id="circle7178"
         cx="9.9999781"
         cy="10.000005"
         r="10" />
    </clipPath>
    <clipPath
       id="clipPath8165"
       clipPathUnits="userSpaceOnUse">
      <circle
         inkscape:export-ydpi="648"
         inkscape:export-xdpi="648"
         inkscape:export-filename="/home/juergen/Schreibtisch/path4136.png"
         style="opacity:1;fill:#ffc107;fill-opacity:1;stroke:none;stroke-width:0.05069799;stroke-miterlimit:4;stroke-dasharray:none;stroke-opacity:1"
         id="circle8167"
         cx="9.9999781"
         cy="10.000005"
         r="10" />
    </clipPath>
    <clipPath
       clipPathUnits="userSpaceOnUse"
       id="clipPath9162">
      <circle
         inkscape:export-ydpi="648"
         inkscape:export-xdpi="648"
         inkscape:export-filename="/home/juergen/Schreibtisch/path4136.png"
         style="opacity:1;fill:#ff9800;fill-opacity:1;stroke:none;stroke-width:0.05069799;stroke-miterlimit:4;stroke-dasharray:none;stroke-opacity:1"
         id="circle9164"
         cx="9.9999781"
         cy="10.000005"
         r="10" />
    </clipPath>
    <clipPath
       id="clipPath10753"
       clipPathUnits="userSpaceOnUse">
      <circle
         inkscape:export-ydpi="648"
         inkscape:export-xdpi="648"
         inkscape:export-filename="/home/juergen/Schreibtisch/path4136.png"
         style="opacity:1;fill:#607d8b;fill-opacity:1;stroke:none;stroke-width:0.05069799;stroke-miterlimit:4;stroke-dasharray:none;stroke-opacity:1"
         id="circle10755"
         cx="9.9999781"
         cy="10.000005"
         r="10" />
    </clipPath>
    <clipPath
       clipPathUnits="userSpaceOnUse"
       id="clipPath5153">
      <circle
         inkscape:export-ydpi="648"
         inkscape:export-xdpi="648"
         inkscape:export-filename="/home/juergen/Schreibtisch/path4136.png"
         style="opacity:1;fill:#2196f3;fill-opacity:1;stroke:none;stroke-width:0.05069799;stroke-miterlimit:4;stroke-dasharray:none;stroke-opacity:1"
         id="circle5155"
         cx="9.9999781"
         cy="10.000005"
         r="10" />
    </clipPath>
    <clipPath
       id="clipPath6152"
       clipPathUnits="userSpaceOnUse">
      <circle
         inkscape:export-ydpi="648"
         inkscape:export-xdpi="648"
         inkscape:export-filename="/home/juergen/Schreibtisch/path4136.png"
         style="opacity:1;fill:#2196f3;fill-opacity:1;stroke:none;stroke-width:0.05069799;stroke-miterlimit:4;stroke-dasharray:none;stroke-opacity:1"
         id="circle6154"
         cx="9.9999781"
         cy="10.000005"
         r="10" />
    </clipPath>
    <linearGradient
       inkscape:collect="always"
       xlink:href="#linearGradient7144"
       id="linearGradient7150"
       x1="10"
       y1="10"
       x2="20"
       y2="20"
       gradientUnits="userSpaceOnUse" />
    <clipPath
       clipPathUnits="userSpaceOnUse"
       id="clipPath7155">
      <circle
         inkscape:export-ydpi="648"
         inkscape:export-xdpi="648"
         inkscape:export-filename="/home/juergen/Schreibtisch/path4136.png"
         style="opacity:1;fill:#2196f3;fill-opacity:1;stroke:none;stroke-width:0.05069799;stroke-miterlimit:4;stroke-dasharray:none;stroke-opacity:1"
         id="circle7157"
         cx="9.9999781"
         cy="10.000005"
         r="10" />
    </clipPath>
  </defs>
  <metadata
     id="metadata7">
    <rdf:RDF>
      <cc:Work
         rdf:about="">
        <dc:format>image/svg+xml</dc:format>
        <dc:type
           rdf:resource="http://purl.org/dc/dcmitype/StillImage" />
        <dc:title></dc:title>
      </cc:Work>
    </rdf:RDF>
  </metadata>
  <g
     transform="translate(1058.1428,-861.93365)"
     id="layer1"
     inkscape:groupmode="layer"
     inkscape:label="Hintergrund">
    <circle
       r="10"
       cy="871.93365"
       cx="-1048.1428"
       id="path4136"
       style="opacity:1;fill:#2196f3;fill-opacity:1;stroke:none;stroke-width:0.05069799;stroke-miterlimit:4;stroke-dasharray:none;stroke-opacity:1"
       inkscape:export-filename="/home/juergen/Schreibtisch/path4136.png"
       inkscape:export-xdpi="648"
       inkscape:export-ydpi="648" />
  </g>
  <g
     inkscape:label="Icon"
     id="layer2"
     inkscape:groupmode="layer"
     style="display:inline">
    <path
       d="M 6.1484375 6.6484375 C 5.5934375 6.6484375 5.1484375 7.0934375 5.1484375 7.6484375 L 5.1484375 12.648438 C 5.1484375 12.913654 5.2538699 13.167933 5.4414062 13.355469 C 5.4671921 13.381255 5.5030832 13.391444 5.53125 13.414062 C 5.5538683 13.442229 5.5640579 13.47812 5.5898438 13.503906 C 5.6152393 13.529302 5.6500273 13.540176 5.6777344 13.5625 C 5.7003266 13.590626 5.710577 13.626593 5.7363281 13.652344 C 5.762656 13.678672 5.7993182 13.689866 5.828125 13.712891 C 5.8499546 13.739833 5.8600215 13.774084 5.8847656 13.798828 C 5.9097708 13.823833 5.9434548 13.835394 5.9707031 13.857422 C 5.9927313 13.88467 6.0042917 13.918354 6.0292969 13.943359 C 6.0546924 13.968755 6.0894804 13.979629 6.1171875 14.001953 C 6.1395115 14.02966 6.1503857 14.064448 6.1757812 14.089844 C 6.2007864 14.114849 6.2344704 14.126409 6.2617188 14.148438 C 6.283747 14.175686 6.2953073 14.20937 6.3203125 14.234375 C 6.3450567 14.259119 6.3793079 14.269186 6.40625 14.291016 C 6.4280796 14.317958 6.4381465 14.352209 6.4628906 14.376953 C 6.4876348 14.401697 6.521886 14.411764 6.5488281 14.433594 C 6.5706577 14.460536 6.5807246 14.494787 6.6054688 14.519531 C 6.6302129 14.544275 6.6644642 14.554342 6.6914062 14.576172 C 6.7132358 14.603114 6.7233027 14.637365 6.7480469 14.662109 C 6.772791 14.686854 6.8070423 14.69692 6.8339844 14.71875 C 6.855814 14.745692 6.8658808 14.779943 6.890625 14.804688 C 6.9149788 14.829041 6.9481245 14.839797 6.9746094 14.861328 C 6.9961407 14.887813 7.0068962 14.920959 7.03125 14.945312 C 7.0553428 14.969405 7.0890546 14.978669 7.1152344 15 C 7.1365654 15.02618 7.1458291 15.059892 7.1699219 15.083984 C 7.1942757 15.108338 7.2274213 15.119094 7.2539062 15.140625 C 7.2754375 15.16711 7.2861931 15.200255 7.3105469 15.224609 C 7.333598 15.24766 7.3656588 15.256819 7.390625 15.277344 C 7.4123765 15.304166 7.4226238 15.338639 7.4472656 15.363281 C 7.4719075 15.387923 7.506381 15.39817 7.5332031 15.419922 C 7.553728 15.444888 7.5628864 15.476949 7.5859375 15.5 C 7.60964 15.523703 7.6422446 15.533657 7.6679688 15.554688 C 7.6889989 15.580412 7.6989538 15.613016 7.7226562 15.636719 C 7.7463587 15.660421 7.7789633 15.670376 7.8046875 15.691406 C 7.8257177 15.71713 7.8356725 15.749735 7.859375 15.773438 C 7.8826871 15.79675 7.9141835 15.807397 7.9394531 15.828125 C 7.960181 15.853395 7.9708285 15.884891 7.9941406 15.908203 C 8.0174528 15.931515 8.0489491 15.942163 8.0742188 15.962891 C 8.0949466 15.98816 8.1055941 16.019657 8.1289062 16.042969 C 8.1522184 16.066281 8.1837148 16.076928 8.2089844 16.097656 C 8.2297123 16.122926 8.2403597 16.154422 8.2636719 16.177734 C 8.286723 16.200785 8.3187838 16.209944 8.34375 16.230469 C 8.3642749 16.255435 8.3734333 16.287496 8.3964844 16.310547 C 8.4195355 16.333598 8.4515963 16.342756 8.4765625 16.363281 C 8.4970874 16.388248 8.5062458 16.420308 8.5292969 16.443359 C 8.5513063 16.465369 8.5817091 16.474432 8.6054688 16.494141 C 8.6264229 16.51975 8.6365521 16.552568 8.6601562 16.576172 C 8.6837604 16.599776 8.7165779 16.609905 8.7421875 16.630859 C 8.7618957 16.654619 8.7709593 16.685022 8.7929688 16.707031 C 8.8153685 16.729431 8.8468828 16.737797 8.8710938 16.757812 C 8.8911092 16.782023 8.8994752 16.813538 8.921875 16.835938 C 8.9445358 16.858598 8.9754867 16.868452 9 16.888672 C 9.0202201 16.913185 9.0300736 16.944136 9.0527344 16.966797 C 9.0751342 16.989197 9.1066484 16.997563 9.1308594 17.017578 C 9.1508748 17.041789 9.1592408 17.073303 9.1816406 17.095703 C 9.2036501 17.117713 9.2340529 17.126776 9.2578125 17.146484 C 9.2775207 17.170244 9.2865843 17.200647 9.3085938 17.222656 C 9.3306032 17.244666 9.361006 17.253729 9.3847656 17.273438 C 9.4044738 17.297197 9.4135374 17.3276 9.4355469 17.349609 C 9.457465 17.371527 9.4880646 17.380755 9.5117188 17.400391 C 9.5314269 17.42415 9.5404906 17.454553 9.5625 17.476562 C 9.5845094 17.498572 9.6149123 17.507636 9.6386719 17.527344 C 9.65838 17.551103 9.6674437 17.581506 9.6894531 17.603516 C 9.7110722 17.625135 9.7403626 17.634898 9.7636719 17.654297 C 9.7830712 17.677606 9.792834 17.706897 9.8144531 17.728516 C 9.8354209 17.749483 9.8641587 17.758463 9.8867188 17.777344 C 9.9063548 17.800998 9.9155819 17.831598 9.9375 17.853516 C 9.9594783 17.875494 9.9899482 17.884613 10.013672 17.904297 C 10.032553 17.926857 10.041532 17.955595 10.0625 17.976562 C 10.083858 17.997921 10.11371 18.006199 10.136719 18.025391 C 10.155911 18.048399 10.164189 18.078251 10.185547 18.099609 C 10.206515 18.120577 10.235252 18.129557 10.257812 18.148438 C 10.276693 18.170998 10.285673 18.199735 10.306641 18.220703 C 10.327608 18.241671 10.356346 18.25065 10.378906 18.269531 C 10.397787 18.292091 10.406767 18.320829 10.427734 18.341797 C 10.448702 18.362765 10.47744 18.371744 10.5 18.390625 C 10.518881 18.413185 10.52786 18.441923 10.548828 18.462891 C 10.569796 18.483858 10.598534 18.492838 10.621094 18.511719 C 10.639975 18.534279 10.648954 18.563017 10.669922 18.583984 C 10.690629 18.604691 10.719927 18.612188 10.742188 18.630859 C 10.760859 18.65312 10.768356 18.682418 10.789062 18.703125 C 10.809379 18.723441 10.837561 18.731642 10.859375 18.75 C 10.877733 18.771814 10.885934 18.799996 10.90625 18.820312 C 10.925915 18.839978 10.953539 18.847403 10.974609 18.865234 C 10.993731 18.888142 11.002168 18.918183 11.023438 18.939453 C 11.044318 18.960334 11.073243 18.96947 11.095703 18.988281 C 11.113216 19.008907 11.12135 19.035413 11.140625 19.054688 C 11.160941 19.075004 11.189124 19.083205 11.210938 19.101562 C 11.229295 19.123376 11.237496 19.151559 11.257812 19.171875 C 11.277739 19.191801 11.304804 19.200707 11.326172 19.21875 C 11.344215 19.240118 11.353121 19.267183 11.373047 19.287109 C 11.392973 19.307036 11.420039 19.315942 11.441406 19.333984 C 11.459449 19.355352 11.468355 19.382418 11.488281 19.402344 C 11.507946 19.422009 11.535571 19.429434 11.556641 19.447266 C 11.574472 19.468336 11.581897 19.49596 11.601562 19.515625 C 11.621228 19.53529 11.648852 19.542716 11.669922 19.560547 C 11.687753 19.581617 11.695179 19.609241 11.714844 19.628906 C 11.734509 19.648571 11.762133 19.655997 11.783203 19.673828 C 11.801034 19.694898 11.80846 19.722522 11.828125 19.742188 C 11.8474 19.761462 11.873906 19.769596 11.894531 19.787109 C 11.912045 19.807735 11.920178 19.834241 11.939453 19.853516 C 11.958728 19.87279 11.985234 19.880924 12.005859 19.898438 C 12.023373 19.919063 12.031506 19.945569 12.050781 19.964844 C 12.069795 19.983858 12.096858 19.990512 12.117188 20.007812 C 12.134488 20.028142 12.141143 20.055205 12.160156 20.074219 C 12.17917 20.093232 12.206233 20.099887 12.226562 20.117188 C 12.243863 20.137517 12.250518 20.16458 12.269531 20.183594 C 12.288545 20.202607 12.315608 20.209262 12.335938 20.226562 C 12.353238 20.246892 12.359892 20.273955 12.378906 20.292969 C 12.39753 20.311592 12.423473 20.318958 12.443359 20.335938 C 12.460339 20.355824 12.467705 20.381767 12.486328 20.400391 C 12.504952 20.419014 12.530895 20.42638 12.550781 20.443359 C 12.567761 20.463246 12.575127 20.489189 12.59375 20.507812 C 12.612373 20.526436 12.638317 20.533801 12.658203 20.550781 C 12.675183 20.570668 12.682549 20.596611 12.701172 20.615234 C 12.719405 20.633467 12.744227 20.641545 12.763672 20.658203 C 12.78033 20.677648 12.788408 20.70247 12.806641 20.720703 C 12.824874 20.738936 12.849696 20.747014 12.869141 20.763672 C 12.885799 20.783117 12.893876 20.807939 12.912109 20.826172 C 12.930081 20.844144 12.955459 20.850745 12.974609 20.867188 C 12.991052 20.886338 12.997653 20.911716 13.015625 20.929688 C 13.033597 20.94766 13.058975 20.954261 13.078125 20.970703 C 13.094567 20.989853 13.101169 21.015231 13.119141 21.033203 C 13.137113 21.051175 13.162491 21.057777 13.181641 21.074219 C 13.198083 21.093369 13.204684 21.118747 13.222656 21.136719 C 13.240238 21.1543 13.264493 21.161616 13.283203 21.177734 C 13.299321 21.196444 13.306637 21.2207 13.324219 21.238281 C 13.3418 21.255863 13.366055 21.263179 13.384766 21.279297 C 13.400884 21.298007 13.4082 21.322262 13.425781 21.339844 C 13.442712 21.356774 13.466397 21.363333 13.484375 21.378906 C 13.500756 21.397973 13.507493 21.423508 13.525391 21.441406 C 13.543288 21.459304 13.568824 21.466041 13.587891 21.482422 C 13.603464 21.5004 13.610023 21.524085 13.626953 21.541016 C 13.643884 21.557946 13.667569 21.564504 13.685547 21.580078 C 13.701121 21.598056 13.707679 21.621742 13.724609 21.638672 C 13.74193 21.655993 13.76674 21.661834 13.785156 21.677734 C 13.801057 21.696151 13.806898 21.720961 13.824219 21.738281 C 13.841149 21.755212 13.864834 21.76177 13.882812 21.777344 C 13.898386 21.795322 13.904945 21.819007 13.921875 21.835938 C 13.938415 21.852477 13.960974 21.859754 13.978516 21.875 C 13.993761 21.892541 14.001038 21.915101 14.017578 21.931641 C 14.034508 21.948571 14.058194 21.955129 14.076172 21.970703 C 14.091746 21.988681 14.098304 22.012366 14.115234 22.029297 C 14.131123 22.045185 14.153108 22.051711 14.169922 22.066406 C 14.185437 22.084306 14.192124 22.10814 14.208984 22.125 C 14.225845 22.14186 14.249679 22.148548 14.267578 22.164062 C 14.282273 22.180876 14.288799 22.202861 14.304688 22.21875 C 14.320967 22.235029 14.344079 22.240834 14.361328 22.255859 C 14.376354 22.273109 14.382158 22.296221 14.398438 22.3125 C 14.414716 22.328779 14.437829 22.334584 14.455078 22.349609 C 14.470103 22.366859 14.475909 22.389971 14.492188 22.40625 C 14.508076 22.422139 14.530061 22.428665 14.546875 22.443359 C 14.56157 22.460173 14.568096 22.482158 14.583984 22.498047 C 14.599873 22.513936 14.621858 22.520461 14.638672 22.535156 C 14.653367 22.55197 14.659893 22.573955 14.675781 22.589844 C 14.69167 22.605732 14.713655 22.612258 14.730469 22.626953 C 14.745164 22.643767 14.75169 22.665752 14.767578 22.681641 C 14.783206 22.697268 14.805742 22.702324 14.822266 22.716797 C 14.836739 22.73332 14.841794 22.755857 14.857422 22.771484 C 14.873049 22.787112 14.895586 22.792168 14.912109 22.806641 C 14.926582 22.823164 14.931638 22.845701 14.947266 22.861328 C 14.962503 22.876565 14.983911 22.882344 15 22.896484 C 15.01414 22.912574 15.019919 22.933981 15.035156 22.949219 C 15.050394 22.964456 15.071801 22.970235 15.087891 22.984375 C 15.10203 23.000465 15.10781 23.021872 15.123047 23.037109 C 15.138284 23.052347 15.159692 23.058126 15.175781 23.072266 C 15.189921 23.088355 15.1957 23.109763 15.210938 23.125 C 15.225785 23.139847 15.246062 23.146351 15.261719 23.160156 C 15.275524 23.175813 15.282028 23.19609 15.296875 23.210938 C 15.311722 23.225784 15.331999 23.232288 15.347656 23.246094 C 15.361462 23.261751 15.367966 23.282028 15.382812 23.296875 C 15.397008 23.311071 15.416704 23.316834 15.431641 23.330078 C 15.445726 23.346097 15.451623 23.367638 15.466797 23.382812 C 15.481971 23.397987 15.503512 23.403883 15.519531 23.417969 C 15.532775 23.432906 15.538539 23.452601 15.552734 23.466797 C 15.56693 23.480992 15.586625 23.486756 15.601562 23.5 C 15.614806 23.514937 15.62057 23.534633 15.634766 23.548828 C 15.649291 23.563354 15.670245 23.568502 15.685547 23.582031 C 15.699128 23.597399 15.704164 23.618227 15.71875 23.632812 C 15.732946 23.647008 15.752641 23.652772 15.767578 23.666016 C 15.780822 23.680953 15.786586 23.700648 15.800781 23.714844 C 15.814325 23.728388 15.833436 23.733416 15.847656 23.746094 C 15.861185 23.761395 15.866334 23.782349 15.880859 23.796875 C 15.895385 23.811401 15.916339 23.816549 15.931641 23.830078 C 15.944319 23.844298 15.949346 23.863409 15.962891 23.876953 C 15.976825 23.890888 15.997069 23.895185 16.011719 23.908203 C 16.024736 23.922853 16.029034 23.943097 16.042969 23.957031 C 16.056513 23.970575 16.075624 23.975603 16.089844 23.988281 C 16.102522 24.002502 16.10755 24.021612 16.121094 24.035156 C 16.134638 24.0487 16.153748 24.053728 16.167969 24.066406 C 16.180647 24.080627 16.185674 24.099737 16.199219 24.113281 C 16.212763 24.126825 16.231874 24.131853 16.246094 24.144531 C 16.258772 24.158752 16.2638 24.177862 16.277344 24.191406 C 16.290498 24.20456 16.308474 24.210319 16.322266 24.222656 C 16.334603 24.236448 16.340362 24.254424 16.353516 24.267578 C 16.36667 24.280732 16.384645 24.286491 16.398438 24.298828 C 16.410775 24.31262 16.416534 24.330596 16.429688 24.34375 C 16.442841 24.356904 16.460817 24.362663 16.474609 24.375 C 16.486947 24.388792 16.492705 24.406768 16.505859 24.419922 C 16.518752 24.432815 16.537275 24.43711 16.550781 24.449219 C 16.56289 24.462725 16.567185 24.481248 16.580078 24.494141 C 16.592971 24.507034 16.611494 24.511329 16.625 24.523438 C 16.637109 24.536944 16.641404 24.555466 16.654297 24.568359 C 16.666799 24.580862 16.684186 24.585891 16.697266 24.597656 C 16.709031 24.610736 16.71406 24.628122 16.726562 24.640625 C 16.739065 24.653128 16.756451 24.658157 16.769531 24.669922 C 16.781296 24.683002 16.786326 24.700388 16.798828 24.712891 C 16.811331 24.725393 16.828717 24.730422 16.841797 24.742188 C 16.853562 24.755267 16.858591 24.772654 16.871094 24.785156 C 16.883335 24.797398 16.901267 24.800965 16.914062 24.8125 C 16.925597 24.825295 16.929165 24.843227 16.941406 24.855469 C 16.953648 24.86771 16.97158 24.871278 16.984375 24.882812 C 16.99591 24.895608 16.999477 24.91354 17.011719 24.925781 C 17.02396 24.938023 17.041892 24.94159 17.054688 24.953125 C 17.066222 24.96592 17.06979 24.983852 17.082031 24.996094 C 17.093883 25.007945 17.110676 25.012249 17.123047 25.023438 C 17.134236 25.035808 17.138539 25.052602 17.150391 25.064453 C 17.162242 25.076304 17.179035 25.080608 17.191406 25.091797 C 17.202595 25.104168 17.206899 25.120961 17.21875 25.132812 C 17.230211 25.144273 17.245865 25.149314 17.257812 25.160156 C 17.268654 25.172103 17.273695 25.187758 17.285156 25.199219 C 17.296617 25.21068 17.312272 25.215721 17.324219 25.226562 C 17.335061 25.23851 17.340102 25.254164 17.351562 25.265625 C 17.363023 25.277086 17.378678 25.282127 17.390625 25.292969 C 17.401467 25.304916 17.406508 25.32057 17.417969 25.332031 C 17.429169 25.343231 17.445367 25.346813 17.457031 25.357422 C 17.46764 25.369086 17.471222 25.385285 17.482422 25.396484 C 17.493622 25.407684 17.50982 25.411266 17.521484 25.421875 C 17.532093 25.43354 17.535675 25.449738 17.546875 25.460938 C 17.558075 25.472137 17.574273 25.475719 17.585938 25.486328 C 17.596546 25.497993 17.600128 25.514191 17.611328 25.525391 C 17.622138 25.5362 17.637195 25.540522 17.648438 25.550781 C 17.658697 25.562024 17.663019 25.577081 17.673828 25.587891 C 17.684377 25.598439 17.699976 25.601304 17.710938 25.611328 C 17.720962 25.622289 17.723826 25.637889 17.734375 25.648438 C 17.745185 25.659247 17.760242 25.663569 17.771484 25.673828 C 17.781743 25.685071 17.786065 25.700128 17.796875 25.710938 C 17.807424 25.721486 17.823023 25.724351 17.833984 25.734375 C 17.844009 25.745336 17.846873 25.760936 17.857422 25.771484 C 17.86758 25.781643 17.882037 25.78525 17.892578 25.794922 C 17.90225 25.805463 17.905857 25.81992 17.916016 25.830078 C 17.926564 25.840627 17.942164 25.843491 17.953125 25.853516 C 17.963149 25.864477 17.966014 25.880076 17.976562 25.890625 C 17.985679 25.899742 17.998387 25.903384 18.007812 25.912109 C 18.018031 25.923303 18.022439 25.938454 18.033203 25.949219 C 18.043739 25.959754 18.059365 25.962644 18.070312 25.972656 C 18.079394 25.982499 18.08229 25.996353 18.091797 26.005859 C 18.101565 26.015627 18.114877 26.019978 18.125 26.029297 C 18.134319 26.039419 18.13867 26.052732 18.148438 26.0625 C 18.158205 26.072268 18.171518 26.076619 18.181641 26.085938 C 18.190959 26.09606 18.19531 26.109373 18.205078 26.119141 C 18.214585 26.128648 18.228438 26.131544 18.238281 26.140625 C 18.247363 26.150468 18.250259 26.164321 18.259766 26.173828 C 18.269273 26.183335 18.283126 26.186231 18.292969 26.195312 C 18.30205 26.205156 18.304946 26.219009 18.314453 26.228516 C 18.32396 26.238022 18.337813 26.240919 18.347656 26.25 C 18.356702 26.259801 18.359673 26.273735 18.369141 26.283203 C 18.378257 26.29232 18.390965 26.295962 18.400391 26.304688 C 18.409116 26.314113 18.412759 26.326821 18.421875 26.335938 C 18.43034 26.344403 18.44244 26.347341 18.451172 26.355469 C 18.460242 26.365298 18.463162 26.379178 18.472656 26.388672 C 18.482383 26.398398 18.495781 26.402828 18.505859 26.412109 C 18.513628 26.420428 18.517316 26.431378 18.525391 26.439453 C 18.534246 26.448309 18.547493 26.450498 18.556641 26.458984 C 18.565127 26.468132 18.567316 26.481379 18.576172 26.490234 C 18.585027 26.49909 18.598274 26.501279 18.607422 26.509766 C 18.615908 26.518913 18.618098 26.53216 18.626953 26.541016 C 18.635418 26.549481 18.647518 26.552419 18.65625 26.560547 C 18.664378 26.569279 18.667316 26.581379 18.675781 26.589844 C 18.684246 26.598309 18.696346 26.601247 18.705078 26.609375 C 18.713206 26.618107 18.716144 26.630207 18.724609 26.638672 C 18.732684 26.646747 18.743635 26.650435 18.751953 26.658203 C 18.759721 26.666521 18.76341 26.677472 18.771484 26.685547 C 18.778908 26.69297 18.789246 26.69596 18.796875 26.703125 C 18.805566 26.71251 18.809281 26.725297 18.818359 26.734375 C 18.827179 26.743194 18.8405 26.745453 18.849609 26.753906 C 18.856531 26.761261 18.858072 26.772134 18.865234 26.779297 C 18.873309 26.787372 18.88426 26.79106 18.892578 26.798828 C 18.900346 26.807146 18.904035 26.818097 18.912109 26.826172 C 18.919923 26.833986 18.931411 26.836223 18.939453 26.84375 C 18.94698 26.851792 18.949217 26.86328 18.957031 26.871094 C 18.964455 26.878517 18.974792 26.881507 18.982422 26.888672 C 18.989586 26.896301 18.992576 26.906639 19 26.914062 C 19.006772 26.920835 19.016494 26.923131 19.023438 26.929688 C 19.031533 26.938383 19.034539 26.950554 19.042969 26.958984 C 19.051009 26.967025 19.062031 26.970779 19.070312 26.978516 C 19.076503 26.98505 19.079556 26.993618 19.085938 27 C 19.093361 27.007423 19.103699 27.010414 19.111328 27.017578 C 19.118493 27.025208 19.121483 27.035545 19.128906 27.042969 C 19.136069 27.050131 19.146943 27.051672 19.154297 27.058594 C 19.161218 27.065948 19.162759 27.076822 19.169922 27.083984 C 19.177084 27.091147 19.187958 27.092688 19.195312 27.099609 C 19.202234 27.106964 19.203775 27.117838 19.210938 27.125 C 19.21771 27.131772 19.227431 27.134068 19.234375 27.140625 C 19.240932 27.147569 19.243228 27.15729 19.25 27.164062 C 19.256772 27.170835 19.266494 27.173131 19.273438 27.179688 C 19.279994 27.186631 19.28229 27.196353 19.289062 27.203125 C 19.295835 27.209897 19.305556 27.212193 19.3125 27.21875 C 19.319057 27.225694 19.321353 27.235415 19.328125 27.242188 C 19.334507 27.248569 19.343075 27.251622 19.349609 27.257812 C 19.3558 27.264347 19.358853 27.272915 19.365234 27.279297 C 19.371616 27.285679 19.380184 27.288731 19.386719 27.294922 C 19.392909 27.301456 19.395962 27.310024 19.402344 27.316406 C 19.408465 27.322527 19.417567 27.324133 19.423828 27.330078 C 19.429773 27.336339 19.431379 27.345442 19.4375 27.351562 C 19.443621 27.357683 19.452723 27.359289 19.458984 27.365234 C 19.464929 27.371496 19.466535 27.380598 19.472656 27.386719 C 19.478777 27.39284 19.487879 27.394446 19.494141 27.400391 C 19.500086 27.406652 19.501692 27.415754 19.507812 27.421875 C 19.513543 27.427605 19.52149 27.429971 19.527344 27.435547 C 19.53292 27.4414 19.535285 27.449348 19.541016 27.455078 C 19.546746 27.460809 19.554693 27.463174 19.560547 27.46875 C 19.566123 27.474604 19.568488 27.482551 19.574219 27.488281 C 19.578908 27.49297 19.585072 27.495414 19.589844 27.5 C 19.596009 27.506506 19.599114 27.51513 19.605469 27.521484 C 19.611823 27.527839 19.620447 27.530944 19.626953 27.537109 C 19.631539 27.541881 19.633983 27.548046 19.638672 27.552734 C 19.643751 27.557813 19.651074 27.559495 19.65625 27.564453 C 19.661208 27.569629 19.66289 27.576952 19.667969 27.582031 C 19.673416 27.587479 19.681941 27.588442 19.6875 27.59375 C 19.692829 27.599332 19.693749 27.607812 19.699219 27.613281 C 19.704298 27.61836 19.711621 27.620042 19.716797 27.625 C 19.721755 27.630176 19.723437 27.637499 19.728516 27.642578 C 19.732553 27.646616 19.738089 27.648383 19.742188 27.652344 C 19.747741 27.658172 19.750153 27.666169 19.755859 27.671875 C 19.761566 27.677581 19.769562 27.679993 19.775391 27.685547 C 19.779352 27.689646 19.781119 27.695181 19.785156 27.699219 C 19.789845 27.703908 19.79601 27.706352 19.800781 27.710938 C 19.805367 27.715709 19.807811 27.721874 19.8125 27.726562 C 19.816928 27.73099 19.823623 27.731992 19.828125 27.736328 C 19.832461 27.74083 19.833463 27.747525 19.837891 27.751953 C 19.842318 27.756381 19.849014 27.757383 19.853516 27.761719 C 19.857851 27.76622 19.858854 27.772916 19.863281 27.777344 C 19.867709 27.781772 19.874405 27.782774 19.878906 27.787109 C 19.883242 27.791611 19.884244 27.798307 19.888672 27.802734 C 19.892709 27.806772 19.898245 27.808539 19.902344 27.8125 C 19.906305 27.816599 19.908072 27.822134 19.912109 27.826172 C 19.916147 27.830209 19.921682 27.831976 19.925781 27.835938 C 19.929742 27.840036 19.931509 27.845572 19.935547 27.849609 C 19.939584 27.853647 19.94512 27.855414 19.949219 27.859375 C 19.95318 27.863474 19.954947 27.869009 19.958984 27.873047 C 19.962761 27.876823 19.968826 27.87715 19.972656 27.880859 C 19.976366 27.88469 19.976692 27.890755 19.980469 27.894531 C 19.984245 27.898308 19.99031 27.898634 19.994141 27.902344 C 19.99785 27.906174 19.998177 27.912239 20.001953 27.916016 C 20.005339 27.919402 20.010243 27.920496 20.013672 27.923828 C 20.017004 27.927257 20.018098 27.932161 20.021484 27.935547 C 20.024219 27.938282 20.028487 27.938707 20.03125 27.941406 C 20.035569 27.945889 20.036606 27.952622 20.041016 27.957031 C 20.045036 27.961052 20.050606 27.962852 20.054688 27.966797 C 20.057006 27.969162 20.058202 27.972265 20.060547 27.974609 C 20.062891 27.976954 20.065994 27.97815 20.068359 27.980469 C 20.072304 27.98455 20.074105 27.99012 20.078125 27.994141 C 20.081886 27.997902 20.087982 27.998258 20.091797 28.001953 C 20.09386 28.004053 20.09362 28.007682 20.095703 28.009766 C 20.098699 28.012761 20.102439 28.014624 20.105469 28.017578 C 20.108422 28.020608 20.110286 28.024348 20.113281 28.027344 C 20.116016 28.030078 20.120284 28.030503 20.123047 28.033203 C 20.125747 28.035966 20.126172 28.040234 20.128906 28.042969 C 20.131641 28.045703 20.135909 28.046128 20.138672 28.048828 C 20.141372 28.051591 20.141797 28.055859 20.144531 28.058594 C 20.146876 28.060938 20.149979 28.062134 20.152344 28.064453 C 20.154662 28.066818 20.155859 28.069921 20.158203 28.072266 C 20.160548 28.07461 20.16365 28.075806 20.166016 28.078125 C 20.168334 28.08049 20.169531 28.083593 20.171875 28.085938 C 20.174219 28.088282 20.177322 28.089478 20.179688 28.091797 C 20.182006 28.094162 20.183202 28.097265 20.185547 28.099609 C 20.18763 28.101693 20.19126 28.101453 20.193359 28.103516 C 20.195422 28.105615 20.195182 28.109245 20.197266 28.111328 C 20.199349 28.113411 20.202978 28.113171 20.205078 28.115234 C 20.207141 28.117334 20.206901 28.120964 20.208984 28.123047 C 20.211068 28.12513 20.214697 28.12489 20.216797 28.126953 C 20.21886 28.129053 20.21862 28.132682 20.220703 28.134766 C 20.222396 28.136459 20.224859 28.136992 20.226562 28.138672 C 20.228242 28.140376 20.228776 28.142838 20.230469 28.144531 C 20.232162 28.146224 20.234624 28.146758 20.236328 28.148438 C 20.238008 28.150141 20.238541 28.152604 20.240234 28.154297 C 20.241537 28.1556 20.242831 28.156908 20.244141 28.158203 C 20.245435 28.159512 20.246744 28.160807 20.248047 28.162109 C 20.24935 28.163412 20.250644 28.164721 20.251953 28.166016 C 20.253248 28.167325 20.254557 28.168619 20.255859 28.169922 C 20.257162 28.171225 20.258456 28.172533 20.259766 28.173828 C 20.26106 28.175137 20.262369 28.176432 20.263672 28.177734 C 20.264714 28.178776 20.266532 28.178651 20.267578 28.179688 C 20.268615 28.180733 20.26849 28.182552 20.269531 28.183594 C 20.270573 28.184635 20.272392 28.18451 20.273438 28.185547 C 20.274474 28.186593 20.274349 28.188411 20.275391 28.189453 C 20.275391 28.189453 20.277344 28.191406 20.277344 28.191406 C 20.277344 28.191406 20.279297 28.193359 20.279297 28.193359 C 20.279297 28.193359 20.28125 28.195312 20.28125 28.195312 C 20.28125 28.195312 20.283203 28.197266 20.283203 28.197266 C 20.283203 28.197266 20.285156 28.199219 20.285156 28.199219 C 20.285156 28.199219 20.287109 28.201172 20.287109 28.201172 C 20.287109 28.201172 20.289062 28.201172 20.289062 28.201172 C 20.289062 28.201172 20.289062 28.203125 20.289062 28.203125 C 20.290357 28.204434 20.291666 28.205729 20.292969 28.207031 C 20.385434 28.299497 20.495036 28.37019 20.613281 28.419922 C 20.613281 28.419922 20.615234 28.421875 20.615234 28.421875 C 20.736116 28.47233 20.86647 28.5 21 28.5 L 29 28.5 C 29.265216 28.5 29.519494 28.394567 29.707031 28.207031 C 29.894567 28.019494 30 27.765216 30 27.5 L 30 22.5 C 30 22.388973 29.968763 22.287041 29.935547 22.1875 C 29.927078 22.162121 29.930321 22.131835 29.919922 22.107422 C 29.919922 22.107422 29.917969 22.105469 29.917969 22.105469 C 29.917969 22.105469 29.916016 22.103516 29.916016 22.103516 C 29.865638 21.985617 29.794178 21.88029 29.705078 21.791016 C 29.704693 21.790632 29.703511 21.791399 29.703125 21.791016 C 29.703125 21.791016 29.703125 21.789062 29.703125 21.789062 C 29.701086 21.787013 29.699322 21.785235 29.697266 21.783203 C 29.697266 21.783203 29.695312 21.78125 29.695312 21.78125 C 29.695312 21.78125 29.693359 21.779297 29.693359 21.779297 C 29.692338 21.778279 29.690479 21.778358 29.689453 21.777344 C 29.687415 21.775295 29.68565 21.773516 29.683594 21.771484 C 29.681551 21.769432 29.679794 21.76766 29.677734 21.765625 C 29.676727 21.764592 29.676793 21.762747 29.675781 21.761719 C 29.675781 21.761719 29.673828 21.761719 29.673828 21.761719 C 29.670531 21.758376 29.669359 21.753296 29.666016 21.75 C 29.662448 21.746406 29.655965 21.741821 29.652344 21.738281 C 29.650677 21.736621 29.648162 21.736024 29.646484 21.734375 C 29.643173 21.731028 29.640077 21.727909 29.636719 21.724609 C 29.633407 21.721262 29.630311 21.718144 29.626953 21.714844 C 29.623267 21.711118 29.618978 21.708745 29.615234 21.705078 C 29.611175 21.700962 29.607646 21.697405 29.603516 21.693359 C 29.5992 21.688984 29.596192 21.683983 29.591797 21.679688 C 29.587239 21.675056 29.582772 21.670558 29.578125 21.666016 C 29.57419 21.662018 29.570407 21.658228 29.566406 21.654297 C 29.559843 21.647571 29.553623 21.641304 29.546875 21.634766 C 29.543189 21.63104 29.5389 21.628667 29.535156 21.625 C 29.52785 21.617488 29.521209 21.610795 29.513672 21.603516 C 29.50873 21.598505 29.505046 21.592796 29.5 21.587891 C 29.494183 21.581948 29.488384 21.576108 29.482422 21.570312 C 29.476222 21.563979 29.469255 21.558902 29.462891 21.552734 C 29.456328 21.546008 29.450108 21.539742 29.443359 21.533203 C 29.437437 21.527133 29.431855 21.521543 29.425781 21.515625 C 29.417238 21.506793 29.409251 21.498746 29.400391 21.490234 C 29.394819 21.484554 29.39047 21.478202 29.384766 21.472656 C 29.375727 21.463292 29.366816 21.454317 29.357422 21.445312 C 29.35059 21.438333 29.342969 21.432558 29.335938 21.425781 C 29.328757 21.418381 29.321857 21.411472 29.314453 21.404297 C 29.304679 21.394139 29.295347 21.384737 29.285156 21.375 C 29.277582 21.367237 29.26954 21.361029 29.261719 21.353516 C 29.252918 21.344417 29.245465 21.334931 29.236328 21.326172 C 29.227289 21.316808 29.218379 21.307833 29.208984 21.298828 C 29.199926 21.289444 29.191056 21.280508 29.181641 21.271484 C 29.172225 21.26173 29.162145 21.253505 29.152344 21.244141 C 29.142549 21.233961 29.13326 21.224601 29.123047 21.214844 C 29.113252 21.204664 29.103964 21.195304 29.09375 21.185547 C 29.083616 21.175015 29.073082 21.166329 29.0625 21.15625 C 29.052369 21.145687 29.043784 21.13511 29.033203 21.125 C 29.023207 21.114555 29.014342 21.103753 29.003906 21.09375 C 28.991693 21.080919 28.979669 21.068807 28.966797 21.056641 C 28.956375 21.045842 28.944488 21.037664 28.933594 21.027344 C 28.922219 21.01542 28.912336 21.003537 28.900391 20.992188 C 28.889638 20.98095 28.878448 20.971663 28.867188 20.960938 C 28.853901 20.946889 28.842197 20.933179 28.828125 20.919922 C 28.816502 20.907777 28.805184 20.896311 28.792969 20.884766 C 28.780729 20.871907 28.768761 20.859848 28.755859 20.847656 C 28.74427 20.835481 28.732886 20.824077 28.720703 20.8125 C 28.707182 20.798172 28.694024 20.784991 28.679688 20.771484 C 28.665754 20.756799 28.651511 20.744285 28.636719 20.730469 C 28.624993 20.718177 28.613894 20.706993 28.601562 20.695312 C 28.586455 20.679251 28.572769 20.663468 28.556641 20.648438 C 28.543651 20.634791 28.529359 20.624222 28.515625 20.611328 C 28.501737 20.596643 28.489355 20.582179 28.474609 20.568359 C 28.460467 20.553373 28.446674 20.539477 28.431641 20.525391 C 28.41712 20.509999 28.402179 20.496864 28.386719 20.482422 C 28.371859 20.466625 28.357644 20.452301 28.341797 20.4375 C 28.326937 20.421703 28.312722 20.407379 28.296875 20.392578 C 28.281759 20.376504 28.268091 20.360746 28.251953 20.345703 C 28.236862 20.329624 28.221191 20.31583 28.205078 20.300781 C 28.189017 20.283609 28.173472 20.267954 28.15625 20.251953 C 28.141156 20.23582 28.127449 20.220179 28.111328 20.205078 C 28.093719 20.186155 28.075651 20.169851 28.056641 20.152344 C 28.041781 20.136547 28.027566 20.122223 28.011719 20.107422 C 27.994758 20.089136 27.979206 20.071658 27.960938 20.054688 C 27.943082 20.035499 27.925546 20.017732 27.90625 20 C 27.889919 19.982601 27.872992 19.967363 27.855469 19.951172 C 27.838193 19.932606 27.82136 19.915641 27.802734 19.898438 C 27.786112 19.880574 27.769827 19.86426 27.751953 19.847656 C 27.733447 19.827596 27.715384 19.8095 27.695312 19.791016 C 27.676752 19.771004 27.658795 19.752807 27.638672 19.734375 C 27.622015 19.716475 27.605803 19.700229 27.587891 19.683594 C 27.568827 19.662817 27.550033 19.644096 27.529297 19.625 C 27.509563 19.603609 27.49026 19.584049 27.46875 19.564453 C 27.450525 19.544867 27.431834 19.527833 27.412109 19.509766 C 27.392989 19.48904 27.374304 19.470214 27.353516 19.451172 C 27.334057 19.430079 27.314155 19.411926 27.292969 19.392578 C 27.273476 19.37138 27.255609 19.351474 27.234375 19.332031 C 27.214659 19.310543 27.195331 19.291173 27.173828 19.271484 C 27.153569 19.249404 27.133472 19.229163 27.111328 19.208984 C 27.09104 19.186873 27.071005 19.166688 27.048828 19.146484 C 27.02854 19.124373 27.008505 19.104188 26.986328 19.083984 C 26.965665 19.061456 26.944498 19.042033 26.921875 19.021484 C 26.900638 18.998255 26.880737 18.976209 26.857422 18.955078 C 26.836174 18.931795 26.814349 18.911805 26.791016 18.890625 C 26.769778 18.867395 26.749878 18.84535 26.726562 18.824219 C 26.704739 18.800296 26.682225 18.779514 26.658203 18.757812 C 26.636996 18.734498 26.617045 18.71262 26.59375 18.691406 C 26.570099 18.665264 26.545788 18.642649 26.519531 18.619141 C 26.49789 18.595479 26.476921 18.574216 26.453125 18.552734 C 26.430731 18.528106 26.409483 18.504703 26.384766 18.482422 C 26.36244 18.457825 26.339095 18.436324 26.314453 18.414062 C 26.291155 18.388299 26.268018 18.365006 26.242188 18.341797 C 26.218933 18.316093 26.195697 18.292691 26.169922 18.269531 C 26.146262 18.243368 26.121973 18.220793 26.095703 18.197266 C 26.072655 18.171708 26.050928 18.148054 26.025391 18.125 C 26.000283 18.097006 25.97534 18.071875 25.947266 18.046875 C 25.923928 18.02108 25.900876 17.997842 25.875 17.974609 C 25.850559 17.947435 25.826072 17.922784 25.798828 17.898438 C 25.774992 17.871935 25.751115 17.848034 25.724609 17.824219 C 25.698372 17.794806 25.672075 17.768311 25.642578 17.742188 C 25.618312 17.715354 25.593414 17.692027 25.566406 17.667969 C 25.541045 17.639679 25.51667 17.613123 25.488281 17.587891 C 25.46296 17.559598 25.43655 17.535007 25.408203 17.509766 C 25.382515 17.480969 25.35694 17.455334 25.328125 17.429688 C 25.301887 17.400275 25.27559 17.37378 25.246094 17.347656 C 25.2198 17.318181 25.193629 17.291797 25.164062 17.265625 C 25.137769 17.23615 25.111598 17.209766 25.082031 17.183594 C 25.055471 17.15382 25.027944 17.127964 24.998047 17.101562 C 24.971497 17.071704 24.945916 17.044059 24.916016 17.017578 C 24.889858 16.988095 24.863408 16.961748 24.833984 16.935547 C 24.805444 16.903098 24.776602 16.874203 24.744141 16.845703 C 24.716931 16.815186 24.688914 16.788691 24.658203 16.761719 C 24.630718 16.73064 24.603364 16.70322 24.572266 16.675781 C 24.544227 16.644059 24.516174 16.615819 24.484375 16.587891 C 24.456095 16.555896 24.428588 16.526181 24.396484 16.498047 C 24.36825 16.46605 24.338697 16.4383 24.306641 16.410156 C 24.278041 16.37764 24.249334 16.348863 24.216797 16.320312 C 24.188257 16.287864 24.159415 16.258969 24.126953 16.230469 C 24.097803 16.197308 24.068395 16.167707 24.035156 16.138672 C 24.00565 16.105106 23.975099 16.076211 23.941406 16.046875 C 23.911903 16.013222 23.883316 15.982541 23.849609 15.953125 C 23.820816 15.92037 23.792552 15.890061 23.759766 15.861328 C 23.728667 15.825583 23.695965 15.794668 23.660156 15.763672 C 23.630659 15.730136 23.600084 15.701186 23.566406 15.671875 C 23.536104 15.637122 23.505469 15.60643 23.470703 15.576172 C 23.439849 15.540786 23.408523 15.509237 23.373047 15.478516 C 23.342083 15.443004 23.311009 15.411672 23.275391 15.380859 C 23.244427 15.345348 23.213352 15.314016 23.177734 15.283203 C 23.146641 15.247543 23.115864 15.214515 23.080078 15.183594 C 23.048979 15.147849 23.016277 15.116934 22.980469 15.085938 C 22.949667 15.050418 22.91826 15.019133 22.882812 14.988281 C 22.849686 14.949746 22.815891 14.915889 22.777344 14.882812 C 22.745487 14.846255 22.712561 14.814777 22.675781 14.783203 C 22.64343 14.745775 22.611705 14.711939 22.574219 14.679688 C 22.542219 14.642764 22.509663 14.609998 22.472656 14.578125 C 22.439572 14.53974 22.405657 14.505608 22.367188 14.472656 C 22.335233 14.435606 22.30261 14.403089 22.265625 14.371094 C 22.230836 14.330404 22.195094 14.294392 22.154297 14.259766 C 22.121883 14.222388 22.088323 14.190397 22.050781 14.158203 C 22.017054 14.118944 21.982704 14.084373 21.943359 14.050781 C 21.910221 14.012208 21.876458 13.978421 21.837891 13.945312 C 21.802816 13.904154 21.767771 13.867007 21.726562 13.832031 C 21.693126 13.793237 21.658074 13.759804 21.619141 13.726562 C 21.584341 13.685832 21.54863 13.649894 21.507812 13.615234 C 21.472949 13.574457 21.437381 13.538593 21.396484 13.503906 C 21.361621 13.463129 21.326052 13.427265 21.285156 13.392578 C 21.250603 13.352164 21.214311 13.317638 21.173828 13.283203 C 21.138742 13.242003 21.10373 13.204932 21.0625 13.169922 C 21.026635 13.127714 20.989562 13.090407 20.947266 13.054688 C 20.912515 13.013819 20.876733 12.978152 20.835938 12.943359 C 20.798399 12.898825 20.759492 12.859624 20.714844 12.822266 C 20.679627 12.781075 20.642931 12.745909 20.601562 12.710938 C 20.565067 12.667846 20.527556 12.630098 20.484375 12.59375 C 20.44824 12.551114 20.411827 12.512595 20.369141 12.476562 C 20.332219 12.432871 20.293781 12.394194 20.25 12.357422 C 20.213325 12.314053 20.174299 12.276782 20.130859 12.240234 C 20.093905 12.196393 20.055571 12.157989 20.011719 12.121094 C 19.97417 12.076514 19.935295 12.037395 19.890625 12 C 19.85314 11.955529 19.814107 11.916223 19.769531 11.878906 C 19.731635 11.833914 19.69163 11.795482 19.646484 11.757812 C 19.60867 11.712803 19.570452 11.67247 19.525391 11.634766 C 19.48696 11.588922 19.446322 11.549996 19.400391 11.511719 C 19.362227 11.466294 19.322884 11.426652 19.277344 11.388672 C 19.238405 11.34207 19.199014 11.300525 19.152344 11.261719 C 19.113914 11.215876 19.073275 11.176949 19.027344 11.138672 C 18.988131 11.091705 18.947449 11.050771 18.900391 11.011719 C 18.861243 10.964866 18.820397 10.923736 18.773438 10.884766 C 18.733991 10.837519 18.693867 10.795093 18.646484 10.755859 C 18.607097 10.708616 18.564896 10.668152 18.517578 10.628906 C 18.477921 10.581183 18.436405 10.53959 18.388672 10.5 C 18.348427 10.45153 18.306376 10.40922 18.257812 10.369141 C 18.217576 10.32072 18.175493 10.27832 18.126953 10.238281 C 18.087643 10.190975 18.047251 10.148695 18 10.109375 C 17.958298 10.058635 17.914029 10.014287 17.863281 9.9726562 C 17.823651 9.9250831 17.78204 9.8832178 17.734375 9.84375 C 17.692328 9.7925902 17.64694 9.7489238 17.595703 9.7070312 C 17.55488 9.6578651 17.512262 9.6147423 17.462891 9.5742188 C 17.422196 9.5249357 17.379342 9.4820639 17.330078 9.4414062 C 17.28777 9.3897591 17.243061 9.3449685 17.191406 9.3027344 C 17.150368 9.253035 17.106387 9.210844 17.056641 9.1699219 C 17.0135 9.1170844 16.968908 9.0703518 16.916016 9.0273438 C 16.874409 8.9769978 16.829834 8.9338986 16.779297 8.8925781 C 16.736989 8.840931 16.69228 8.7961404 16.640625 8.7539062 C 16.597735 8.701503 16.552497 8.6559932 16.5 8.6132812 C 16.457118 8.5609331 16.411849 8.5153238 16.359375 8.4726562 C 16.317067 8.4210091 16.272358 8.3762185 16.220703 8.3339844 C 16.177379 8.2807568 16.131327 8.2346914 16.078125 8.1914062 C 16.034801 8.1381786 15.988749 8.0921133 15.935547 8.0488281 C 15.891652 7.994899 15.845039 7.9480088 15.791016 7.9042969 C 15.747358 7.8507075 15.700152 7.8052133 15.646484 7.7617188 C 15.602571 7.7076377 15.55604 7.6610218 15.501953 7.6171875 C 15.457463 7.5623457 15.410405 7.5150075 15.355469 7.4707031 C 15.311327 7.4163402 15.265355 7.3682235 15.210938 7.3242188 C 15.166853 7.2698054 15.118823 7.2237511 15.064453 7.1796875 C 15.019538 7.1240142 14.971659 7.0761246 14.916016 7.03125 C 14.732329 6.8035646 14.462388 6.6484375 14.148438 6.6484375 L 6.1484375 6.6484375 z "
       id="path6291"
       style="fill-opacity:1;fill:url(#linearGradient7150);opacity:0.2"
       clip-path="url(#clipPath7155)" />
    <path
       style="fill:none"
       inkscape:connector-curvature="0"
       id="path4"
       d="m 3.9999777,4.0333382 12.0000003,0 0,11.9333328 -12.0000003,0 z" />
    <path
       d="m 18.999978,19.033339 12,0 0,11.933333 -12,0 z"
       id="path9754"
       inkscape:connector-curvature="0"
       style="fill:none" />
    <path
       inkscape:connector-curvature="0"
       d="m 13.499978,9.0000048 -1,0 0,-1 1,0 m 0,2.5000002 -1,0 0,-1.0000002 1,0 m -1.5,-0.5 -1,0 0,-1 1,0 m 0,2.5000002 -1,0 0,-1.0000002 1,0 m 0,3.0000002 -4.0000003,0 0,-1 4.0000003,0 m -4.5000003,-2.5000002 -1,0 0,-1 1,0 m 0,2.5000002 -1,0 0,-1.0000002 1,0 m 0.5,0 1,0 0,1.0000002 -1,0 m 0,-2.5000002 1,0 0,1 -1,0 m 1.5,0.5 1.0000003,0 0,1.0000002 -1.0000003,0 m 0,-2.5000002 1.0000003,0 0,1 -1.0000003,0 m 4.5000003,-2.5 -8.0000003,0 c -0.555,0 -1,0.445 -1,1 l 0,5.0000002 a 1,1 0 0 0 1,1 l 8.0000003,0 a 1,1 0 0 0 1,-1 l 0,-5.0000002 c 0,-0.555 -0.45,-1 -1,-1 z"
       id="path6225"
       style="fill:#ffffff" />
  </g>
</svg>
