<?xml version="1.0" encoding="UTF-8" standalone="no"?>
<!-- Created with Inkscape (http://www.inkscape.org/) -->

<svg
   xmlns:dc="http://purl.org/dc/elements/1.1/"
   xmlns:cc="http://creativecommons.org/ns#"
   xmlns:rdf="http://www.w3.org/1999/02/22-rdf-syntax-ns#"
   xmlns:svg="http://www.w3.org/2000/svg"
   xmlns="http://www.w3.org/2000/svg"
   xmlns:xlink="http://www.w3.org/1999/xlink"
   xmlns:sodipodi="http://sodipodi.sourceforge.net/DTD/sodipodi-0.dtd"
   xmlns:inkscape="http://www.inkscape.org/namespaces/inkscape"
   sodipodi:docname="Kontakte.svg"
   inkscape:version="0.91 r13725"
   version="1.1"
   id="svg2"
   viewBox="0 0 20 20"
   height="5.6444445mm"
   width="5.6444445mm">
  <sodipodi:namedview
     inkscape:snap-to-guides="true"
     inkscape:snap-grids="true"
     inkscape:window-maximized="1"
     inkscape:window-y="0"
     inkscape:window-x="0"
     inkscape:window-height="726"
     inkscape:window-width="1366"
     inkscape:guide-bbox="true"
     showguides="true"
     fit-margin-bottom="0"
     fit-margin-right="0"
     fit-margin-left="0"
     fit-margin-top="0"
     showgrid="true"
     inkscape:current-layer="layer1"
     inkscape:document-units="px"
     inkscape:cy="9.8814962"
     inkscape:cx="9.5677949"
     inkscape:zoom="11.2"
     inkscape:pageshadow="2"
     inkscape:pageopacity="0.0"
     borderopacity="1.0"
     bordercolor="#666666"
     pagecolor="#ffffff"
     id="base">
    <inkscape:grid
       id="grid4138"
       type="xygrid" />
    <sodipodi:guide
       id="guide4140"
       orientation="0,1"
       position="10,18" />
    <sodipodi:guide
       id="guide4142"
       orientation="0,1"
       position="10,2" />
    <sodipodi:guide
       id="guide4144"
       orientation="1,0"
       position="2,10" />
    <sodipodi:guide
       id="guide4146"
       orientation="0,20"
       position="0,0" />
    <sodipodi:guide
       id="guide4148"
       orientation="-20,0"
       position="20,0" />
    <sodipodi:guide
       id="guide4150"
       orientation="0,-20"
       position="20,20" />
    <sodipodi:guide
       id="guide4152"
       orientation="20,0"
       position="0,20" />
    <sodipodi:guide
       id="guide4154"
       orientation="1,0"
       position="18,10" />
    <sodipodi:guide
       id="guide4156"
       orientation="-0.70710678,0.70710678"
       position="10,10" />
    <sodipodi:guide
       id="guide4158"
       orientation="0.70710678,0.70710678"
       position="10,10" />
    <sodipodi:guide
       id="guide4160"
       orientation="1,0"
       position="4,10" />
    <sodipodi:guide
       id="guide4162"
       orientation="1,0"
       position="16,10" />
    <sodipodi:guide
       id="guide4164"
       orientation="0,1"
       position="10,16" />
    <sodipodi:guide
       id="guide4166"
       orientation="0,1"
       position="10,4" />
    <sodipodi:guide
       id="guide4168"
       orientation="0,1"
       position="10,15" />
    <sodipodi:guide
       id="guide4170"
       orientation="0,1"
       position="10,5" />
    <sodipodi:guide
       id="guide4172"
       orientation="1,0"
       position="5,10" />
    <sodipodi:guide
       id="guide4174"
       orientation="1,0"
       position="15,10" />
  </sodipodi:namedview>
  <defs
     id="defs4">
    <linearGradient
       inkscape:collect="always"
       id="linearGradient7679">
      <stop
         style="stop-color:#000000;stop-opacity:1;"
         offset="0"
         id="stop7681" />
      <stop
         style="stop-color:#000000;stop-opacity:0;"
         offset="1"
         id="stop7683" />
    </linearGradient>
    <clipPath
       clipPathUnits="userSpaceOnUse"
       id="clipPath12478">
      <circle
         style="opacity:1;fill:#2196f3;fill-opacity:1;stroke:none;stroke-width:0.05069799;stroke-miterlimit:4;stroke-dasharray:none;stroke-opacity:1"
         id="circle12480"
         cx="9.9999781"
         cy="10.000005"
         r="10" />
    </clipPath>
    <clipPath
       id="clipPath5790"
       clipPathUnits="userSpaceOnUse">
      <circle
         inkscape:export-ydpi="648"
         inkscape:export-xdpi="648"
         inkscape:export-filename="/home/juergen/path4136.png"
         style="opacity:1;fill:#2196f3;fill-opacity:1;stroke:none;stroke-width:0.05069799;stroke-miterlimit:4;stroke-dasharray:none;stroke-opacity:1"
         id="circle5792"
         cx="9.9999781"
         cy="10.000005"
         r="10" />
    </clipPath>
    <linearGradient
       inkscape:collect="always"
       xlink:href="#linearGradient7679"
       id="linearGradient7685"
       x1="10"
       y1="10"
       x2="20"
       y2="20"
       gradientUnits="userSpaceOnUse" />
    <clipPath
       clipPathUnits="userSpaceOnUse"
       id="clipPath7690">
      <circle
         inkscape:export-ydpi="648"
         inkscape:export-xdpi="648"
         inkscape:export-filename="/home/juergen/Schreibtisch/path4136.png"
         style="opacity:1;fill:#2196f3;fill-opacity:1;stroke:none;stroke-width:0.05069799;stroke-miterlimit:4;stroke-dasharray:none;stroke-opacity:1"
         id="circle7692"
         cx="9.9999781"
         cy="10.000005"
         r="10" />
    </clipPath>
  </defs>
  <metadata
     id="metadata7">
    <rdf:RDF>
      <cc:Work
         rdf:about="">
        <dc:format>image/svg+xml</dc:format>
        <dc:type
           rdf:resource="http://purl.org/dc/dcmitype/StillImage" />
        <dc:title />
      </cc:Work>
    </rdf:RDF>
  </metadata>
  <g
     transform="translate(1058.1428,-861.93365)"
     id="layer1"
     inkscape:groupmode="layer"
     inkscape:label="Hintergrund">
    <circle
       r="10"
       cy="871.93365"
       cx="-1048.1428"
       id="path4136"
       style="opacity:1;fill:#2196f3;fill-opacity:1;stroke:none;stroke-width:0.05069799;stroke-miterlimit:4;stroke-dasharray:none;stroke-opacity:1"
       inkscape:export-filename="/home/juergen/Schreibtisch/path4136.png"
       inkscape:export-xdpi="648"
       inkscape:export-ydpi="648" />
  </g>
  <g
     inkscape:label="Icon"
     id="layer2"
     inkscape:groupmode="layer"
     style="display:inline">
    <path
       style="fill:none"
       inkscape:connector-curvature="0"
       id="path4"
       d="m 3.9999777,4.0333382 12.0000003,0 0,11.9333328 -12.0000003,0 z" />
    <path
       d="m 18.999978,19.033339 12,0 0,11.933333 -12,0 z"
       id="path9754"
       inkscape:connector-curvature="0"
       style="fill:none" />
    <path
       inkscape:connector-curvature="0"
       d="M 9.9999775,5.0000048 A 2.5,2.5 0 0 1 12.499978,7.5000047 2.5,2.5 0 0 1 9.9999775,10.000005 2.5,2.5 0 0 1 7.4999776,7.5000047 2.5,2.5 0 0 1 9.9999775,5.0000048 m 0,6.2500002 c 2.7625005,0 5.0000005,1.11875 5.0000005,2.5 l 0,1.25 -10.0000004,0 0,-1.25 c 0,-1.38125 2.2375,-2.5 4.9999999,-2.5 z"
       id="path5882" />
    <path
       d="M 10.148438 5.1484375 L 7.6738281 7.625 C 7.6601238 8.2814603 7.9088594 8.9205457 8.3730469 9.3984375 C 8.4096635 9.4361352 8.4534465 9.4648984 8.4921875 9.5 C 8.5007207 9.5093231 8.5069315 9.5200862 8.515625 9.5292969 C 8.5507313 9.5664918 8.593652 9.5941551 8.6308594 9.6289062 C 8.639621 9.6387698 8.6453553 9.6504107 8.6542969 9.6601562 C 8.6941856 9.7036317 8.7423741 9.7371075 8.7851562 9.7773438 C 8.7885603 9.7812078 8.7914898 9.7852158 8.7949219 9.7890625 C 8.8348333 9.8337955 8.8847269 9.866794 8.9277344 9.9082031 C 8.9302472 9.9111263 8.9310648 9.915055 8.9335938 9.9179688 C 8.9750167 9.9656949 9.027291 10.000869 9.0722656 10.044922 C 9.0722656 10.044922 9.0722656 10.046875 9.0722656 10.046875 C 9.1418109 10.129218 9.2247748 10.196016 9.3046875 10.267578 C 9.3917741 10.361595 9.4788857 10.455033 9.5800781 10.533203 C 9.6281681 10.577969 9.6689681 10.629423 9.7207031 10.669922 C 9.7693921 10.715847 9.8126867 10.767091 9.8652344 10.808594 C 9.9122443 10.853283 9.9532066 10.902819 10.003906 10.943359 C 10.050281 10.988021 10.090546 11.037541 10.140625 11.078125 C 10.187018 11.123405 10.229086 11.171736 10.279297 11.212891 C 10.324893 11.25782 10.366642 11.304789 10.416016 11.345703 C 10.437665 11.367285 10.454019 11.39338 10.476562 11.414062 C 10.366005 11.410415 10.260849 11.398438 10.148438 11.398438 C 10.121017 11.398438 10.099609 11.410118 10.099609 11.423828 C 7.3645296 11.423828 5.1484375 12.544569 5.1484375 13.912109 C 5.1484375 13.912109 5.1744047 15.148438 5.1992188 15.148438 L 5.3808594 15.148438 C 5.3867586 15.179943 5.3904975 15.296875 5.3964844 15.296875 L 5.5507812 15.296875 C 5.5647264 15.371651 5.5772959 15.445313 5.5917969 15.445312 L 5.7304688 15.445312 C 5.7489826 15.519084 5.7678607 15.591797 5.7871094 15.591797 L 5.9121094 15.591797 C 5.935141 15.664504 5.9584808 15.736328 5.9824219 15.736328 L 6.0898438 15.736328 C 6.1180215 15.811362 6.1464343 15.882812 6.1757812 15.882812 L 6.2597656 15.882812 C 6.2946338 15.966323 6.3326068 16.027344 6.3691406 16.027344 L 6.4375 16.027344 C 6.4774482 16.110791 6.5186679 16.169922 6.5605469 16.169922 L 6.6113281 16.169922 C 6.6564099 16.253404 6.7027105 16.3125 6.75 16.3125 L 6.7851562 16.3125 C 6.8353358 16.395799 6.8887447 16.455078 6.9414062 16.455078 L 6.9589844 16.455078 C 7.0140495 16.537531 7.0711164 16.597656 7.1289062 16.597656 L 7.1308594 16.597656 C 7.1826001 16.668108 7.2367626 16.714649 7.2910156 16.726562 C 7.3420338 16.793324 7.3955238 16.834832 7.4492188 16.855469 C 7.5005528 16.919873 7.5551934 16.962493 7.609375 16.988281 C 7.6620408 17.051056 7.7177529 17.092687 7.7734375 17.121094 C 7.8262129 17.180334 7.87977 17.224183 7.9355469 17.253906 C 7.9870991 17.308586 8.0393398 17.35621 8.09375 17.386719 C 8.142755 17.436073 8.1925338 17.477228 8.2441406 17.507812 C 8.2929347 17.555529 8.3411269 17.597214 8.3925781 17.628906 C 8.4384047 17.672522 8.4829755 17.710647 8.53125 17.742188 C 8.5793178 17.787361 8.6249012 17.829608 8.6757812 17.863281 C 8.7244085 17.907656 8.7687613 17.952263 8.8203125 17.986328 C 8.8673136 18.027953 8.9091939 18.072238 8.9589844 18.105469 C 8.9705803 18.115475 8.9803967 18.127087 8.9921875 18.136719 C 9.0172898 18.163641 9.0374216 18.176299 9.0644531 18.203125 C 9.0708431 18.207676 9.0755989 18.214341 9.0820312 18.21875 C 9.0905965 18.227103 9.1006399 18.233902 9.109375 18.242188 C 9.1544168 18.290105 9.1806694 18.309483 9.2324219 18.357422 C 9.2814434 18.408531 9.299849 18.422658 9.3574219 18.474609 C 9.4089866 18.527026 9.4188976 18.537721 9.4804688 18.591797 C 9.4819927 18.593547 9.4885221 18.601563 9.4902344 18.603516 C 9.507401 18.620332 9.5050798 18.621435 9.5234375 18.638672 C 9.5234032 18.641873 9.5214844 18.645241 9.5214844 18.648438 C 9.5214844 18.648438 9.622934 18.738203 9.6484375 18.765625 C 9.6483247 18.771408 9.6445312 18.777435 9.6445312 18.783203 C 9.6445312 18.783203 9.7477751 18.871879 9.7734375 18.898438 C 9.7733235 18.904217 9.7695312 18.910252 9.7695312 18.916016 C 9.7695312 18.916016 9.8721387 19.001061 9.8964844 19.025391 C 9.8962821 19.033056 9.8925781 19.041193 9.8925781 19.048828 C 9.8925781 19.048828 9.9957496 19.131361 10.019531 19.154297 C 10.019252 19.163267 10.013672 19.172715 10.013672 19.181641 C 10.013672 19.181641 10.117422 19.261594 10.140625 19.283203 C 10.140264 19.293344 10.134766 19.304373 10.134766 19.314453 C 10.134766 19.314453 10.239004 19.391671 10.261719 19.412109 C 10.26135 19.422305 10.255859 19.43323 10.255859 19.443359 C 10.255859 19.443359 10.36035 19.519532 10.382812 19.539062 C 10.382344 19.5505 10.376953 19.56287 10.376953 19.574219 C 10.376953 19.574219 10.482262 19.645851 10.503906 19.664062 C 10.503322 19.676778 10.496094 19.690526 10.496094 19.703125 C 10.496094 19.703125 10.600538 19.77231 10.621094 19.789062 C 10.620385 19.803005 10.613281 19.818238 10.613281 19.832031 C 10.613281 19.832031 10.718032 19.900043 10.738281 19.916016 C 10.737565 19.929948 10.730469 19.94521 10.730469 19.958984 C 10.730469 19.958984 10.835507 20.025769 10.855469 20.041016 C 10.854679 20.055576 10.847656 20.07156 10.847656 20.085938 C 10.847656 20.085938 10.953201 20.149663 10.972656 20.164062 C 10.971788 20.179255 10.964844 20.195956 10.964844 20.210938 C 10.964844 20.210938 11.070683 20.273367 11.089844 20.287109 C 11.088881 20.303037 11.080078 20.320255 11.080078 20.335938 C 11.080078 20.335938 11.186217 20.397041 11.205078 20.410156 C 11.204039 20.426623 11.195312 20.444747 11.195312 20.460938 C 11.195312 20.460938 11.300417 20.519138 11.318359 20.53125 C 11.31723 20.548337 11.308594 20.567211 11.308594 20.583984 C 11.308594 20.583984 11.414074 20.640837 11.431641 20.652344 C 11.430416 20.670055 11.421875 20.689676 11.421875 20.707031 C 11.421875 20.707031 11.527611 20.762434 11.544922 20.773438 C 11.54368 20.791172 11.535156 20.810766 11.535156 20.828125 C 11.535156 20.828125 11.641114 20.882034 11.658203 20.892578 C 11.656843 20.911061 11.646484 20.931164 11.646484 20.949219 C 11.646484 20.949219 11.75274 21.001658 11.769531 21.011719 C 11.768077 21.030737 11.757812 21.051771 11.757812 21.070312 C 11.757812 21.070312 11.862985 21.119632 11.878906 21.128906 C 11.87734 21.148563 11.867188 21.17033 11.867188 21.189453 C 11.867188 21.189453 11.972646 21.237244 11.988281 21.246094 C 11.986617 21.266261 11.976562 21.289016 11.976562 21.308594 C 11.976562 21.308594 12.082271 21.354819 12.097656 21.363281 C 12.095968 21.383488 12.085938 21.406196 12.085938 21.425781 C 12.085938 21.425781 12.190369 21.470646 12.205078 21.478516 C 12.203265 21.499372 12.193359 21.522805 12.193359 21.542969 C 12.193359 21.542969 12.297892 21.588106 12.3125 21.595703 C 12.310688 21.61644 12.300781 21.640138 12.300781 21.660156 C 12.300781 21.660156 12.405562 21.703675 12.419922 21.710938 C 12.418083 21.731725 12.408203 21.755359 12.408203 21.775391 C 12.408203 21.775391 12.511626 21.817444 12.525391 21.824219 C 12.523444 21.845517 12.513672 21.870156 12.513672 21.890625 C 12.513672 21.890625 12.617334 21.931024 12.630859 21.9375 C 12.628882 21.958857 12.619141 21.983422 12.619141 22.003906 C 12.619141 22.003906 12.721428 22.042793 12.734375 22.048828 C 12.732285 22.070697 12.722656 22.096273 12.722656 22.117188 C 12.722656 22.117188 12.825192 22.154396 12.837891 22.160156 C 12.835773 22.182063 12.826172 22.20761 12.826172 22.228516 C 12.826172 22.228516 12.928816 22.265926 12.941406 22.271484 C 12.939254 22.293463 12.929688 22.318917 12.929688 22.339844 C 12.929688 22.339844 13.030933 22.375684 13.042969 22.380859 C 13.040697 22.403356 13.03125 22.429823 13.03125 22.451172 C 13.03125 22.451172 13.132664 22.485266 13.144531 22.490234 C 13.142227 22.512781 13.132812 22.539203 13.132812 22.560547 C 13.132812 22.560547 13.234351 22.594823 13.246094 22.599609 C 13.243784 22.62207 13.234375 22.648708 13.234375 22.669922 C 13.234375 22.669922 13.334477 22.702573 13.345703 22.707031 C 13.34336 22.729551 13.333984 22.756131 13.333984 22.777344 C 13.333984 22.777344 13.43426 22.808225 13.445312 22.8125 C 13.442782 22.835843 13.431641 22.862878 13.431641 22.884766 C 13.431641 22.884766 13.532023 22.915799 13.542969 22.919922 C 13.540454 22.943069 13.53125 22.970534 13.53125 22.992188 C 13.53125 22.992188 13.630186 23.021558 13.640625 23.025391 C 13.638072 23.048613 13.628906 23.075999 13.628906 23.097656 C 13.628906 23.097656 13.728004 23.125231 13.738281 23.128906 C 13.735568 23.152779 13.724609 23.180966 13.724609 23.203125 C 13.724609 23.203125 13.823809 23.23083 13.833984 23.234375 C 13.831382 23.257605 13.822266 23.285108 13.822266 23.306641 C 13.822266 23.306641 13.919956 23.332632 13.929688 23.335938 C 13.926931 23.359789 13.916016 23.388158 13.916016 23.410156 C 13.916016 23.410156 14.015434 23.43616 14.025391 23.439453 C 14.022721 23.462783 14.011719 23.490241 14.011719 23.511719 C 14.011719 23.511719 14.108019 23.536104 14.117188 23.539062 C 14.114296 23.56331 14.105469 23.59305 14.105469 23.615234 C 14.105469 23.615234 14.201821 23.639712 14.210938 23.642578 C 14.208237 23.66583 14.199219 23.693582 14.199219 23.714844 C 14.199219 23.714844 14.295608 23.739406 14.304688 23.742188 C 14.301866 23.765897 14.291016 23.794838 14.291016 23.816406 C 14.291016 23.816406 14.38757 23.839135 14.396484 23.841797 C 14.39371 23.865181 14.382812 23.892848 14.382812 23.914062 C 14.382812 23.914062 14.477755 23.936957 14.486328 23.939453 C 14.483471 23.963108 14.474609 23.992317 14.474609 24.013672 C 14.474609 24.013672 14.568027 24.034797 14.576172 24.037109 C 14.573264 24.060893 14.564453 24.089955 14.564453 24.111328 C 14.564453 24.111328 14.65793 24.132528 14.666016 24.134766 C 14.663096 24.158498 14.654297 24.187745 14.654297 24.208984 C 14.654297 24.208984 14.746202 24.22839 14.753906 24.230469 C 14.750984 24.254111 14.742188 24.283614 14.742188 24.304688 C 14.742188 24.304688 14.834178 24.324168 14.841797 24.326172 C 14.838819 24.349963 14.830078 24.379294 14.830078 24.400391 C 14.830078 24.400391 14.930331 24.421495 14.939453 24.423828 C 14.937243 24.443901 14.917969 24.476139 14.917969 24.494141 C 14.917969 24.494141 15.016703 24.513458 15.025391 24.515625 C 15.023065 24.536177 15.003906 24.56958 15.003906 24.587891 C 15.003906 24.587891 15.102713 24.607281 15.111328 24.609375 C 15.109001 24.629844 15.089844 24.66348 15.089844 24.681641 C 15.089844 24.681641 15.187079 24.69922 15.195312 24.701172 C 15.192993 24.721518 15.175781 24.755461 15.175781 24.773438 C 15.175781 24.773438 15.271391 24.791141 15.279297 24.792969 C 15.277071 24.812762 15.259766 24.845829 15.259766 24.863281 C 15.259766 24.863281 15.35377 24.881109 15.361328 24.882812 C 15.359009 24.902979 15.341797 24.937419 15.341797 24.955078 C 15.341797 24.955078 15.437533 24.972901 15.445312 24.974609 C 15.443101 24.994163 15.425781 25.027832 15.425781 25.044922 C 15.425781 25.044922 15.519926 25.060911 15.527344 25.0625 C 15.525112 25.082075 15.507812 25.115795 15.507812 25.132812 C 15.507812 25.132812 15.600313 25.148906 15.607422 25.150391 C 15.605193 25.169871 15.587891 25.203851 15.587891 25.220703 C 15.587891 25.220703 15.682135 25.236793 15.689453 25.238281 C 15.687217 25.25772 15.669922 25.291867 15.669922 25.308594 C 15.669922 25.308594 15.762559 25.322836 15.769531 25.324219 C 15.767293 25.343593 15.75 25.37795 15.75 25.394531 C 15.75 25.394531 15.840982 25.408866 15.847656 25.410156 C 15.845415 25.429468 15.828125 25.464033 15.828125 25.480469 C 15.828125 25.480469 15.919163 25.494847 15.925781 25.496094 C 15.923538 25.515345 15.90625 25.550116 15.90625 25.566406 C 15.90625 25.566406 15.995658 25.578922 16.001953 25.580078 C 15.999738 25.599123 15.984375 25.634356 15.984375 25.650391 C 15.984375 25.650391 16.072108 25.662986 16.078125 25.664062 C 16.076001 25.682581 16.060547 25.716875 16.060547 25.732422 C 16.060547 25.732422 16.148314 25.745051 16.154297 25.746094 C 16.152171 25.76456 16.136719 25.799047 16.136719 25.814453 C 16.136719 25.814453 16.224521 25.827115 16.230469 25.828125 C 16.22834 25.846543 16.212891 25.881218 16.212891 25.896484 C 16.212891 25.896484 16.299041 25.907269 16.304688 25.908203 C 16.302462 25.927047 16.287109 25.963058 16.287109 25.978516 C 16.287109 25.978516 16.37329 25.989329 16.378906 25.990234 C 16.376793 26.00846 16.361328 26.043681 16.361328 26.058594 C 16.361328 26.058594 16.444087 26.069506 16.449219 26.070312 C 16.447222 26.087882 16.433594 26.122373 16.433594 26.136719 C 16.433594 26.136719 16.516384 26.147657 16.521484 26.148438 C 16.519485 26.165968 16.505859 26.200634 16.505859 26.214844 C 16.505859 26.214844 16.58868 26.225807 16.59375 26.226562 C 16.591768 26.243956 16.578125 26.278965 16.578125 26.292969 C 16.578125 26.292969 16.659264 26.302038 16.664062 26.302734 C 16.662078 26.320094 16.648438 26.355273 16.648438 26.369141 C 16.648438 26.369141 16.729605 26.378233 16.734375 26.378906 C 16.732388 26.396235 16.71875 26.431581 16.71875 26.445312 C 16.71875 26.445312 16.799931 26.454424 16.804688 26.455078 C 16.802698 26.472379 16.789062 26.50789 16.789062 26.521484 C 16.789062 26.521484 16.868526 26.530645 16.873047 26.53125 C 16.871164 26.547947 16.857422 26.582621 16.857422 26.595703 C 16.857422 26.595703 16.9369 26.604882 16.941406 26.605469 C 16.939541 26.622037 16.925781 26.657041 16.925781 26.669922 C 16.925781 26.669922 17.0018 26.67722 17.005859 26.677734 C 17.00402 26.694128 16.992188 26.729538 16.992188 26.742188 C 16.992188 26.742188 17.068232 26.749502 17.072266 26.75 C 17.070424 26.766377 17.058594 26.801936 17.058594 26.814453 C 17.058594 26.814453 17.134652 26.821783 17.138672 26.822266 C 17.136928 26.838073 17.125 26.872724 17.125 26.884766 C 17.125 26.884766 17.19932 26.892134 17.203125 26.892578 C 17.201384 26.908351 17.189453 26.94318 17.189453 26.955078 C 17.189453 26.955078 17.263785 26.96246 17.267578 26.962891 C 17.265854 26.978547 17.253906 27.013686 17.253906 27.025391 C 17.253906 27.025391 17.328262 27.032787 17.332031 27.033203 C 17.330406 27.048274 17.318359 27.082521 17.318359 27.09375 C 17.318359 27.09375 17.390963 27.099227 17.394531 27.099609 C 17.392823 27.115147 17.380859 27.150728 17.380859 27.162109 C 17.380859 27.162109 17.44993 27.167636 17.453125 27.167969 C 17.451539 27.182783 17.441406 27.217683 17.441406 27.228516 C 17.441406 27.228516 17.51228 27.234036 17.515625 27.234375 C 17.514034 27.249214 17.503906 27.2842 17.503906 27.294922 C 17.503906 27.294922 17.57301 27.30047 17.576172 27.300781 C 17.574598 27.315516 17.564453 27.350793 17.564453 27.361328 C 17.564453 27.361328 17.631781 27.366902 17.634766 27.367188 C 17.633289 27.381328 17.623047 27.415706 17.623047 27.425781 C 17.623047 27.425781 17.692183 27.43135 17.695312 27.431641 C 17.693852 27.445681 17.683594 27.48034 17.683594 27.490234 C 17.683594 27.490234 17.749151 27.495841 17.751953 27.496094 C 17.750587 27.509549 17.740234 27.543286 17.740234 27.552734 C 17.740234 27.552734 17.805822 27.556398 17.808594 27.556641 C 17.807149 27.570599 17.798828 27.605641 17.798828 27.615234 C 17.798828 27.615234 17.862628 27.618919 17.865234 27.619141 C 17.86381 27.632987 17.855469 27.668331 17.855469 27.677734 C 17.855469 27.677734 17.919278 27.681427 17.921875 27.681641 C 17.920556 27.694819 17.912109 27.729355 17.912109 27.738281 C 17.912109 27.738281 17.974118 27.741992 17.976562 27.742188 C 17.97533 27.754811 17.966797 27.78836 17.966797 27.796875 C 17.966797 27.796875 18.028823 27.800593 18.03125 27.800781 C 18.02995 27.813877 18.021484 27.848795 18.021484 27.857422 C 18.021484 27.857422 18.081703 27.861157 18.083984 27.861328 C 18.082863 27.873222 18.076172 27.906162 18.076172 27.914062 C 18.076172 27.914062 18.136401 27.917804 18.138672 27.917969 C 18.137473 27.930433 18.128906 27.964598 18.128906 27.972656 C 18.128906 27.972656 18.190956 27.976393 18.193359 27.976562 C 18.192723 27.984776 18.181641 28.023523 18.181641 28.029297 C 18.181641 28.029297 18.241883 28.033049 18.244141 28.033203 C 18.243515 28.041328 18.232422 28.080293 18.232422 28.085938 C 18.232422 28.085938 18.29268 28.089696 18.294922 28.089844 C 18.294349 28.097515 18.283203 28.135305 18.283203 28.140625 C 18.283203 28.140625 18.343465 28.144388 18.345703 28.144531 C 18.34514 28.152122 18.333984 28.190114 18.333984 28.195312 C 18.333984 28.195312 18.390624 28.197145 18.392578 28.197266 C 18.392034 28.204696 18.382812 28.243012 18.382812 28.248047 C 18.382812 28.248047 18.439461 28.249884 18.441406 28.25 C 18.440871 28.257355 18.431641 28.295865 18.431641 28.300781 C 18.431641 28.300781 18.486466 28.302629 18.488281 28.302734 C 18.487794 28.309654 18.478516 28.346944 18.478516 28.351562 C 18.478516 28.351562 18.535176 28.353408 18.537109 28.353516 C 18.536596 28.360691 18.527344 28.399631 18.527344 28.404297 C 18.527344 28.404297 18.580349 28.406159 18.582031 28.40625 C 18.581598 28.41267 18.572266 28.448907 18.572266 28.453125 C 18.572266 28.453125 18.627111 28.454985 18.628906 28.455078 C 18.628449 28.461749 18.619141 28.499643 18.619141 28.503906 C 18.619141 28.503906 18.67032 28.505781 18.671875 28.505859 C 18.671469 28.512034 18.664062 28.548782 18.664062 28.552734 C 18.664062 28.552734 18.713404 28.554618 18.714844 28.554688 C 18.714476 28.560477 18.707031 28.595912 18.707031 28.599609 C 18.707031 28.599609 18.758222 28.60149 18.759766 28.601562 C 18.759405 28.607287 18.751953 28.642887 18.751953 28.646484 C 18.751953 28.646484 18.799459 28.648378 18.800781 28.648438 C 18.800431 28.654071 18.792969 28.689874 18.792969 28.693359 C 18.792969 28.693359 18.842328 28.695251 18.84375 28.695312 C 18.843436 28.700561 18.835938 28.735039 18.835938 28.738281 C 18.835938 28.738281 18.881602 28.740184 18.882812 28.740234 C 18.882512 28.745352 18.876953 28.780086 18.876953 28.783203 C 18.876953 28.783203 18.922621 28.785108 18.923828 28.785156 C 18.92356 28.789903 18.917969 28.823283 18.917969 28.826172 C 18.917969 28.826172 18.961784 28.828082 18.962891 28.828125 C 18.962606 28.833102 18.957031 28.86817 18.957031 28.871094 C 18.957031 28.871094 19.000849 28.873006 19.001953 28.873047 C 19.001723 28.877362 18.996094 28.90953 18.996094 28.912109 C 18.996094 28.912109 19.039915 28.914023 19.041016 28.914062 C 19.040791 28.918322 19.035156 28.950629 19.035156 28.953125 C 19.035156 28.953125 19.07712 28.955044 19.078125 28.955078 C 19.077908 28.959266 19.072266 28.991733 19.072266 28.994141 C 19.072266 28.994141 19.114232 28.996061 19.115234 28.996094 C 19.115024 29.000212 19.109375 29.032837 19.109375 29.035156 C 19.109375 29.035156 19.14761 29.037083 19.148438 29.037109 C 19.148256 29.040843 19.144531 29.072109 19.144531 29.074219 C 19.144531 29.074219 19.182771 29.074194 19.183594 29.074219 C 19.183418 29.077903 19.179688 29.109293 19.179688 29.111328 C 19.179688 29.111328 19.217929 29.111305 19.21875 29.111328 C 19.218579 29.114965 19.214844 29.146475 19.214844 29.148438 C 19.214844 29.148438 19.251664 29.14843 19.251953 29.148438 C 19.251789 29.152011 19.248047 29.183663 19.248047 29.185547 C 19.248047 29.185547 19.284868 29.185539 19.285156 29.185547 C 19.285014 29.188796 19.28125 29.21899 19.28125 29.220703 C 19.28125 29.220703 19.318071 29.220696 19.318359 29.220703 C 19.318223 29.223895 19.314453 29.254218 19.314453 29.255859 C 19.314453 29.255859 19.349351 29.255853 19.349609 29.255859 C 19.349478 29.258995 19.345703 29.289444 19.345703 29.291016 C 19.345703 29.291016 19.378677 29.29101 19.378906 29.291016 C 19.378794 29.293846 19.375 29.3228 19.375 29.324219 C 19.375 29.324219 19.407974 29.324214 19.408203 29.324219 C 19.408096 29.326977 19.40625 29.356074 19.40625 29.357422 C 19.40625 29.357422 19.437297 29.357418 19.4375 29.357422 C 19.437409 29.359907 19.435547 29.387457 19.435547 29.388672 C 19.435547 29.388672 19.464666 29.388668 19.464844 29.388672 C 19.464757 29.39111 19.462891 29.418765 19.462891 29.419922 C 19.462891 29.419922 19.493939 29.419918 19.494141 29.419922 C 19.494068 29.422093 19.492188 29.448187 19.492188 29.449219 C 19.492188 29.449219 19.521307 29.449216 19.521484 29.449219 C 19.521415 29.451348 19.519531 29.477536 19.519531 29.478516 C 19.519531 29.478516 19.546721 29.478513 19.546875 29.478516 C 19.546809 29.480604 19.544922 29.506883 19.544922 29.507812 C 19.544922 29.507812 19.572112 29.50781 19.572266 29.507812 C 19.572211 29.509654 19.570312 29.534335 19.570312 29.535156 C 19.570312 29.535156 19.597503 29.535154 19.597656 29.535156 C 19.597604 29.536961 19.595703 29.561724 19.595703 29.5625 C 19.595703 29.5625 19.620962 29.562498 19.621094 29.5625 C 19.621051 29.564076 19.619141 29.587211 19.619141 29.587891 C 19.619141 29.587891 19.644399 29.587889 19.644531 29.587891 C 19.644491 29.589435 19.642578 29.612641 19.642578 29.613281 C 19.642578 29.613281 19.667837 29.61328 19.667969 29.613281 C 19.667931 29.614794 19.666016 29.63807 19.666016 29.638672 C 19.666016 29.638672 19.689341 29.638671 19.689453 29.638672 C 19.689423 29.639976 19.6875 29.661589 19.6875 29.662109 C 19.6875 29.662109 19.710826 29.662108 19.710938 29.662109 C 19.710909 29.66338 19.708984 29.685062 19.708984 29.685547 C 19.708984 29.685547 19.728438 29.685546 19.728516 29.685547 C 19.728494 29.686622 19.728516 29.706618 19.728516 29.707031 C 19.728516 29.707031 19.747969 29.707031 19.748047 29.707031 C 19.748026 29.708083 19.748047 29.728131 19.748047 29.728516 C 19.748047 29.728516 19.767501 29.728515 19.767578 29.728516 C 19.767562 29.729396 19.767578 29.747723 19.767578 29.748047 C 19.767578 29.748047 19.785094 29.748046 19.785156 29.748047 C 19.785142 29.748908 19.785156 29.767278 19.785156 29.767578 C 19.785156 29.767578 19.802672 29.767578 19.802734 29.767578 C 19.802721 29.768416 19.802734 29.786834 19.802734 29.787109 C 19.802734 29.787109 19.82025 29.787109 19.820312 29.787109 C 19.820302 29.787807 19.820312 29.804458 19.820312 29.804688 C 19.820312 29.804688 19.835888 29.804687 19.835938 29.804688 C 19.835928 29.805366 19.835938 29.822056 19.835938 29.822266 C 19.835938 29.822266 19.851513 29.822265 19.851562 29.822266 C 19.851554 29.822926 19.851562 29.839654 19.851562 29.839844 C 19.851562 29.839844 19.865197 29.839844 19.865234 29.839844 C 19.865228 29.84037 19.865234 29.855316 19.865234 29.855469 C 19.865234 29.855469 19.878869 29.855469 19.878906 29.855469 C 19.878902 29.855877 19.878906 29.869021 19.878906 29.869141 C 19.878906 29.869141 19.892541 29.86914 19.892578 29.869141 C 19.892573 29.869639 19.892578 29.884643 19.892578 29.884766 C 19.892578 29.884766 19.904269 29.884766 19.904297 29.884766 C 19.904294 29.885061 19.904297 29.896402 19.904297 29.896484 C 19.904297 29.896484 19.915988 29.896484 19.916016 29.896484 C 19.916013 29.896858 19.916016 29.910073 19.916016 29.910156 C 19.916016 29.910156 19.927707 29.910156 19.927734 29.910156 C 19.927732 29.910433 19.927734 29.921813 19.927734 29.921875 C 19.927734 29.921875 19.937481 29.921875 19.9375 29.921875 C 19.937499 29.92207 19.9375 29.931595 19.9375 29.931641 C 19.9375 29.931641 19.947246 29.931641 19.947266 29.931641 C 19.947265 29.931829 19.947266 29.941368 19.947266 29.941406 C 19.947266 29.941406 19.955066 29.941406 19.955078 29.941406 C 19.955077 29.941588 19.955078 29.95114 19.955078 29.951172 C 19.955078 29.951172 19.962878 29.951172 19.962891 29.951172 C 19.96289 29.95129 19.962891 29.958963 19.962891 29.958984 C 19.962891 29.958984 19.970691 29.958984 19.970703 29.958984 C 19.970703 29.959098 19.970703 29.966779 19.970703 29.966797 C 19.970703 29.966797 19.976556 29.966797 19.976562 29.966797 C 19.976562 29.966907 19.976562 29.974596 19.976562 29.974609 C 19.976562 29.974609 19.982415 29.974609 19.982422 29.974609 C 19.982422 29.974672 19.982422 29.980461 19.982422 29.980469 C 19.982422 29.980469 19.986325 29.980469 19.986328 29.980469 C 19.986328 29.980529 19.986328 29.986323 19.986328 29.986328 C 19.986328 29.986328 19.990231 29.986328 19.990234 29.986328 C 19.990234 29.986355 19.990234 29.990232 19.990234 29.990234 C 19.990234 29.990234 19.994138 29.990234 19.994141 29.990234 C 19.994141 29.99026 19.994141 29.994139 19.994141 29.994141 C 19.994141 29.994141 19.996094 29.994141 19.996094 29.994141 C 19.996094 29.994141 19.996094 29.996094 19.996094 29.996094 C 19.996094 29.996094 19.998047 29.996094 19.998047 29.996094 C 19.998047 29.996094 19.998047 29.998047 19.998047 29.998047 C 19.998047 29.998047 19.999999 29.998047 20 29.998047 C 20 29.998053 20 30 20 30 C 20 30 22.500062 30 25 30 L 30 30 L 30 28.75 C 30 28.576505 29.963694 28.407656 29.896484 28.244141 C 29.896484 28.244141 29.894531 28.242188 29.894531 28.242188 C 29.827839 28.080726 29.731124 27.923808 29.605469 27.775391 C 29.605469 27.775391 29.603516 27.773438 29.603516 27.773438 C 29.603516 27.773438 29.601562 27.771484 29.601562 27.771484 C 29.60045 27.770169 29.598773 27.768893 29.597656 27.767578 C 29.596544 27.766262 29.594867 27.764986 29.59375 27.763672 C 29.593135 27.762939 29.592413 27.762451 29.591797 27.761719 C 29.59096 27.760747 29.590683 27.758784 29.589844 27.757812 C 29.588439 27.756151 29.585396 27.755566 29.583984 27.753906 C 29.583984 27.753906 29.583984 27.751953 29.583984 27.751953 C 29.583984 27.751953 29.582031 27.75 29.582031 27.75 C 29.580616 27.74833 29.577595 27.747762 29.576172 27.746094 C 29.574488 27.744119 29.572006 27.742206 29.570312 27.740234 C 29.570312 27.740234 29.568359 27.738281 29.568359 27.738281 C 29.568359 27.738281 29.566406 27.736328 29.566406 27.736328 C 29.565266 27.735017 29.563644 27.733732 29.5625 27.732422 C 29.5625 27.732422 29.560547 27.730469 29.560547 27.730469 C 29.560547 27.730469 29.558594 27.728516 29.558594 27.728516 C 29.554489 27.723627 29.549087 27.719716 29.544922 27.714844 C 29.543253 27.71287 29.540741 27.710955 29.539062 27.708984 C 29.539062 27.708984 29.537109 27.707031 29.537109 27.707031 C 29.536271 27.70606 29.535997 27.704096 29.535156 27.703125 C 29.532079 27.699486 29.526548 27.69699 29.523438 27.693359 C 29.520656 27.69007 29.514527 27.684923 29.511719 27.681641 C 29.508869 27.678362 29.50483 27.675147 29.501953 27.671875 C 29.501953 27.671875 29.5 27.669922 29.5 27.669922 C 29.496663 27.665975 29.489705 27.660187 29.486328 27.65625 C 29.482984 27.652295 29.47604 27.646523 29.472656 27.642578 C 29.469312 27.638623 29.462368 27.632851 29.458984 27.628906 C 29.455091 27.624301 29.447307 27.617872 29.443359 27.613281 C 29.439466 27.608676 29.431682 27.602247 29.427734 27.597656 C 29.422728 27.591736 29.415251 27.585975 29.410156 27.580078 C 29.40514 27.574146 29.397683 27.568409 29.392578 27.5625 C 29.387562 27.556568 29.380105 27.550831 29.375 27.544922 C 29.369438 27.538344 29.36114 27.53194 29.355469 27.525391 C 29.349895 27.518799 29.341621 27.512422 29.335938 27.505859 C 29.330364 27.499268 29.322089 27.492891 29.316406 27.486328 C 29.310288 27.479092 29.301172 27.472045 29.294922 27.464844 C 29.288803 27.457608 29.279688 27.45056 29.273438 27.443359 C 29.266763 27.435465 29.256832 27.427774 29.25 27.419922 C 29.244136 27.412987 29.234501 27.407293 29.228516 27.400391 C 29.221679 27.39227 29.212081 27.385029 29.205078 27.376953 C 29.1977 27.368189 29.187259 27.360275 29.179688 27.351562 C 29.172309 27.342799 29.161869 27.334884 29.154297 27.326172 C 29.148027 27.318725 29.139222 27.312098 29.132812 27.304688 C 29.123872 27.293994 29.112744 27.284055 29.103516 27.273438 C 29.093869 27.261949 29.080291 27.251634 29.070312 27.240234 C 29.063891 27.23264 29.053442 27.226305 29.046875 27.21875 C 29.038347 27.208593 29.026366 27.199541 29.017578 27.189453 C 29.008497 27.178638 28.995704 27.16894 28.986328 27.158203 C 28.978339 27.148689 28.967201 27.140313 28.958984 27.130859 C 28.947835 27.117524 28.931518 27.103061 28.919922 27.089844 C 28.912386 27.080931 28.900314 27.073312 28.892578 27.064453 C 28.882944 27.052979 28.86934 27.042636 28.859375 27.03125 C 28.850294 27.020435 28.837501 27.010737 28.828125 27 C 28.816423 26.986004 28.799303 26.970897 28.787109 26.957031 C 28.778477 26.946822 28.764755 26.937874 28.755859 26.927734 C 28.745119 26.914943 28.729902 26.903307 28.71875 26.890625 C 28.709354 26.879436 28.695257 26.870481 28.685547 26.859375 C 28.672382 26.843603 28.654413 26.826152 28.640625 26.810547 C 28.63224 26.800631 28.616054 26.7911 28.607422 26.78125 C 28.596031 26.767662 28.580214 26.755652 28.568359 26.742188 C 28.557808 26.729601 28.544152 26.717559 28.533203 26.705078 C 28.518716 26.687704 28.499619 26.67147 28.484375 26.654297 C 28.474341 26.64243 28.457654 26.632866 28.447266 26.621094 C 28.43477 26.606188 28.41735 26.592882 28.404297 26.578125 C 28.392067 26.563536 28.376045 26.549603 28.363281 26.535156 C 28.350831 26.520289 28.333317 26.506907 28.320312 26.492188 C 28.308412 26.477977 28.291704 26.465248 28.279297 26.451172 C 28.26536 26.434458 28.247058 26.418871 28.232422 26.402344 C 28.21721 26.38418 28.195726 26.367553 28.179688 26.349609 C 28.168274 26.336111 28.150544 26.323923 28.138672 26.310547 C 28.125381 26.294676 28.10572 26.281328 28.091797 26.265625 C 28.078143 26.249294 28.059244 26.234903 28.044922 26.21875 C 28.030476 26.201472 28.011288 26.185047 27.996094 26.167969 C 27.982823 26.152122 27.96312 26.138726 27.949219 26.123047 C 27.932989 26.103551 27.911712 26.085649 27.894531 26.066406 C 27.880738 26.049979 27.860174 26.035777 27.845703 26.019531 C 27.83042 26.001251 27.809089 25.984853 27.792969 25.966797 C 27.778768 25.949812 27.759065 25.934761 27.744141 25.917969 C 27.72681 25.897151 27.703961 25.87795 27.685547 25.857422 C 27.671181 25.840313 27.649866 25.825506 27.634766 25.808594 C 27.618931 25.789654 27.596811 25.772605 27.580078 25.753906 C 27.565081 25.735969 27.5451 25.718894 27.529297 25.701172 C 27.5112 25.67941 27.486078 25.660117 27.466797 25.638672 C 27.451344 25.620269 27.428411 25.604113 27.412109 25.585938 C 27.395173 25.56568 27.371479 25.547326 27.353516 25.527344 C 27.338206 25.509031 27.316931 25.492697 27.300781 25.474609 C 27.281237 25.451068 27.255304 25.429421 27.234375 25.40625 C 27.219447 25.388472 27.197361 25.373034 27.181641 25.355469 C 27.163194 25.33325 27.13882 25.312905 27.119141 25.291016 C 27.100222 25.268327 27.07294 25.248906 27.052734 25.226562 C 27.036896 25.207669 27.01478 25.190529 26.998047 25.171875 C 26.977668 25.147328 26.949618 25.125707 26.927734 25.101562 C 26.910798 25.08136 26.887099 25.062897 26.869141 25.042969 C 26.850532 25.020651 26.824541 25.000499 26.804688 24.978516 C 26.786079 24.956198 26.760088 24.936046 26.740234 24.914062 C 26.721076 24.891086 26.694306 24.870279 26.673828 24.847656 C 26.65467 24.824679 26.6279 24.803873 26.607422 24.78125 C 26.588814 24.758933 26.562822 24.738781 26.542969 24.716797 C 26.521777 24.691272 26.493521 24.667667 26.470703 24.642578 C 26.451914 24.620141 26.424346 24.600224 26.404297 24.578125 C 26.402095 24.575484 26.400657 24.572949 26.398438 24.570312 C 26.529637 24.481671 26.653997 24.381159 26.767578 24.267578 C 27.001999 24.033158 27.18414 23.757488 27.308594 23.457031 C 27.308832 23.456456 27.308356 23.455653 27.308594 23.455078 C 27.432585 23.155104 27.5 22.830886 27.5 22.5 C 27.5 22.218417 27.442133 21.944666 27.351562 21.683594 C 27.335311 21.636749 27.327593 21.586793 27.308594 21.541016 C 27.308594 21.541016 27.306641 21.539062 27.306641 21.539062 C 27.244932 21.390529 27.169572 21.247801 27.080078 21.113281 C 27.079572 21.112523 27.078631 21.112086 27.078125 21.111328 C 27.078125 21.111328 27.076172 21.109375 27.076172 21.109375 C 27.076172 21.109375 27.074219 21.107422 27.074219 21.107422 C 27.073207 21.105905 27.071327 21.10503 27.070312 21.103516 C 26.981621 20.971761 26.88138 20.846476 26.767578 20.732422 C 26.766565 20.731409 26.764687 20.73148 26.763672 20.730469 C 26.763672 20.730469 26.763672 20.728516 26.763672 20.728516 C 26.763017 20.727863 26.762375 20.727214 26.761719 20.726562 C 26.761719 20.726562 26.759766 20.724609 26.759766 20.724609 C 26.759766 20.724609 26.757812 20.722656 26.757812 20.722656 C 26.757812 20.722656 26.755859 20.720703 26.755859 20.720703 C 26.755859 20.720703 26.753906 20.71875 26.753906 20.71875 C 26.753906 20.71875 26.751953 20.716797 26.751953 20.716797 C 26.751953 20.716797 26.75 20.714844 26.75 20.714844 C 26.75 20.714844 26.748047 20.712891 26.748047 20.712891 C 26.748047 20.712891 26.746094 20.712891 26.746094 20.712891 C 26.745142 20.711946 26.745094 20.709927 26.744141 20.708984 C 26.742179 20.707022 26.740249 20.70508 26.738281 20.703125 C 26.735665 20.700509 26.733095 20.697916 26.730469 20.695312 C 26.727853 20.692697 26.725283 20.690103 26.722656 20.6875 C 26.72004 20.684884 26.71747 20.682291 26.714844 20.679688 C 26.711574 20.676418 26.708364 20.673172 26.705078 20.669922 C 26.701808 20.666652 26.698599 20.663406 26.695312 20.660156 C 26.693351 20.658194 26.691421 20.656252 26.689453 20.654297 C 26.687498 20.652329 26.685556 20.650399 26.683594 20.648438 C 26.681632 20.646476 26.679702 20.644533 26.677734 20.642578 C 26.67578 20.64061 26.673837 20.638681 26.671875 20.636719 C 26.669913 20.634757 26.667983 20.632814 26.666016 20.630859 C 26.664061 20.628892 26.662118 20.626962 26.660156 20.625 C 26.657835 20.622679 26.654673 20.621452 26.652344 20.619141 C 26.650033 20.616811 26.648806 20.613649 26.646484 20.611328 C 26.644156 20.609 26.641008 20.607787 26.638672 20.605469 C 26.636361 20.603139 26.635134 20.599977 26.632812 20.597656 C 26.630484 20.595328 26.627336 20.594115 26.625 20.591797 C 26.622689 20.589468 26.621462 20.586306 26.619141 20.583984 C 26.616525 20.581368 26.613954 20.578775 26.611328 20.576172 C 26.608725 20.573546 26.606132 20.570975 26.603516 20.568359 C 26.6009 20.565743 26.598329 20.56315 26.595703 20.560547 C 26.5931 20.557921 26.590507 20.55535 26.587891 20.552734 C 26.586583 20.551426 26.585295 20.550133 26.583984 20.548828 C 26.579725 20.544507 26.576559 20.53945 26.572266 20.535156 C 26.56929 20.532181 26.565489 20.530302 26.5625 20.527344 C 26.559534 20.524348 26.55767 20.520561 26.554688 20.517578 C 26.548428 20.511318 26.541475 20.506186 26.535156 20.5 C 26.533489 20.498333 26.530968 20.497756 26.529297 20.496094 C 26.524683 20.491406 26.522233 20.485123 26.517578 20.480469 C 26.514234 20.477125 26.50922 20.475979 26.505859 20.472656 C 26.502537 20.469296 26.501391 20.464281 26.498047 20.460938 C 26.492751 20.455641 26.485808 20.452509 26.480469 20.447266 C 26.478807 20.445594 26.47823 20.443073 26.476562 20.441406 C 26.472933 20.437777 26.468493 20.435245 26.464844 20.431641 C 26.461239 20.427992 26.458707 20.423551 26.455078 20.419922 C 26.451449 20.416293 26.447008 20.413761 26.443359 20.410156 C 26.439755 20.406507 26.437223 20.402067 26.433594 20.398438 C 26.429605 20.394449 26.423934 20.39263 26.419922 20.388672 C 26.415963 20.384659 26.414145 20.378988 26.410156 20.375 C 26.406168 20.371012 26.400497 20.369193 26.396484 20.365234 C 26.392526 20.361222 26.390707 20.355551 26.386719 20.351562 C 26.38273 20.347574 26.377059 20.345755 26.373047 20.341797 C 26.369088 20.337784 26.36727 20.332113 26.363281 20.328125 C 26.358998 20.323842 26.35392 20.320655 26.349609 20.316406 C 26.345361 20.312095 26.342174 20.307018 26.337891 20.302734 C 26.333607 20.298451 26.32853 20.295264 26.324219 20.291016 C 26.31997 20.286705 26.316783 20.281627 26.3125 20.277344 C 26.308217 20.273061 26.303139 20.269874 26.298828 20.265625 C 26.294566 20.261301 26.291406 20.25625 26.287109 20.251953 C 26.282467 20.247311 26.276159 20.244836 26.271484 20.240234 C 26.266882 20.235559 26.264408 20.229252 26.259766 20.224609 C 26.25679 20.221634 26.252989 20.219755 26.25 20.216797 C 26.243461 20.21011 26.239043 20.201933 26.232422 20.195312 C 26.225801 20.188692 26.217625 20.184273 26.210938 20.177734 C 26.207979 20.174746 26.2061 20.170944 26.203125 20.167969 C 26.198188 20.163032 26.192474 20.159188 26.1875 20.154297 C 26.182609 20.149323 26.178765 20.143609 26.173828 20.138672 C 26.170199 20.135043 26.165758 20.132511 26.162109 20.128906 C 26.155571 20.122219 26.151152 20.114043 26.144531 20.107422 C 26.13791 20.100801 26.129734 20.096383 26.123047 20.089844 C 26.119442 20.086195 26.11691 20.081754 26.113281 20.078125 C 26.109652 20.074496 26.105212 20.071964 26.101562 20.068359 C 26.094385 20.061003 26.089308 20.052198 26.082031 20.044922 C 26.074755 20.037646 26.06595 20.032568 26.058594 20.025391 C 26.054989 20.021742 26.052457 20.017301 26.048828 20.013672 C 26.043237 20.008081 26.036888 20.003579 26.03125 19.998047 C 26.025717 19.992409 26.021216 19.98606 26.015625 19.980469 C 26.010034 19.974878 26.003685 19.970376 25.998047 19.964844 C 25.992514 19.959205 25.988013 19.952857 25.982422 19.947266 C 25.976472 19.941315 25.968894 19.937525 25.962891 19.931641 C 25.957007 19.925637 25.953216 19.91806 25.947266 19.912109 C 25.941315 19.906159 25.933738 19.902368 25.927734 19.896484 C 25.92185 19.890481 25.91806 19.882903 25.912109 19.876953 C 25.907826 19.87267 25.902748 19.869483 25.898438 19.865234 C 25.890643 19.857228 25.884865 19.847756 25.876953 19.839844 C 25.869316 19.832206 25.859288 19.827841 25.851562 19.820312 C 25.84696 19.815638 25.844486 19.80933 25.839844 19.804688 C 25.834907 19.79975 25.829193 19.795907 25.824219 19.791016 C 25.816405 19.782989 25.810666 19.773557 25.802734 19.765625 C 25.794803 19.757693 25.78537 19.751955 25.777344 19.744141 C 25.772452 19.739167 25.768609 19.733453 25.763672 19.728516 C 25.757068 19.721911 25.748858 19.71746 25.742188 19.710938 C 25.735665 19.704267 25.731214 19.696057 25.724609 19.689453 C 25.718005 19.682849 25.709795 19.678398 25.703125 19.671875 C 25.696602 19.665205 25.692151 19.656995 25.685547 19.650391 C 25.678583 19.643427 25.669146 19.639685 25.662109 19.632812 C 25.655237 19.625776 25.651495 19.616339 25.644531 19.609375 C 25.637568 19.602411 25.628131 19.59867 25.621094 19.591797 C 25.614221 19.58476 25.610479 19.575323 25.603516 19.568359 C 25.596257 19.561101 25.587416 19.555988 25.580078 19.548828 C 25.572919 19.54149 25.567805 19.532649 25.560547 19.525391 C 25.554938 19.519782 25.548625 19.515316 25.542969 19.509766 C 25.53452 19.501067 25.528118 19.491009 25.519531 19.482422 C 25.510583 19.473474 25.499303 19.467783 25.490234 19.458984 C 25.48435 19.452981 25.48056 19.445403 25.474609 19.439453 C 25.467351 19.432195 25.45851 19.427081 25.451172 19.419922 C 25.444012 19.412584 25.438899 19.403743 25.431641 19.396484 C 25.424023 19.388867 25.413955 19.384462 25.40625 19.376953 C 25.398741 19.369248 25.394336 19.35918 25.386719 19.351562 C 25.378806 19.34365 25.369335 19.337873 25.361328 19.330078 C 25.353533 19.322071 25.347756 19.3126 25.339844 19.304688 C 25.333599 19.298442 25.326617 19.293281 25.320312 19.287109 C 25.31123 19.277738 25.304165 19.267055 25.294922 19.257812 C 25.285318 19.248209 25.273415 19.241853 25.263672 19.232422 C 25.257149 19.225752 25.252698 19.217542 25.246094 19.210938 C 25.238157 19.203001 25.228735 19.197272 25.220703 19.189453 C 25.212908 19.181446 25.207131 19.171975 25.199219 19.164062 C 25.190947 19.155791 25.18025 19.150721 25.171875 19.142578 C 25.163732 19.134203 25.158662 19.123506 25.150391 19.115234 C 25.142119 19.106963 25.131422 19.101893 25.123047 19.09375 C 25.114904 19.085375 25.109834 19.074678 25.101562 19.066406 C 25.092996 19.05784 25.082896 19.051397 25.074219 19.042969 C 25.06579 19.034292 25.059348 19.024191 25.050781 19.015625 C 25.042215 19.007059 25.032114 19.000616 25.023438 18.992188 C 25.015009 18.983511 25.008566 18.97341 25 18.964844 C 24.992742 18.957585 24.9839 18.952472 24.976562 18.945312 C 24.966501 18.934895 24.959478 18.922368 24.949219 18.912109 C 24.93896 18.90185 24.926433 18.894827 24.916016 18.884766 C 24.908856 18.877428 24.903743 18.868586 24.896484 18.861328 C 24.888867 18.853711 24.878799 18.849306 24.871094 18.841797 C 24.860685 18.831007 24.85437 18.817261 24.84375 18.806641 C 24.83313 18.79602 24.819384 18.789705 24.808594 18.779297 C 24.801085 18.771592 24.79668 18.761524 24.789062 18.753906 C 24.779842 18.744686 24.769114 18.737577 24.759766 18.728516 C 24.750705 18.719167 24.743595 18.708439 24.734375 18.699219 C 24.725155 18.689999 24.714427 18.682889 24.705078 18.673828 C 24.696017 18.66448 24.688908 18.653751 24.679688 18.644531 C 24.670108 18.634952 24.658155 18.628548 24.648438 18.619141 C 24.63903 18.609423 24.632626 18.59747 24.623047 18.587891 C 24.613467 18.578311 24.601515 18.571907 24.591797 18.5625 C 24.582389 18.552782 24.575986 18.540829 24.566406 18.53125 C 24.558135 18.522979 24.547437 18.517909 24.539062 18.509766 C 24.528025 18.498299 24.521041 18.483932 24.509766 18.472656 C 24.49849 18.461381 24.484123 18.454396 24.472656 18.443359 C 24.464489 18.434959 24.459468 18.424312 24.451172 18.416016 C 24.440938 18.405782 24.42836 18.398709 24.417969 18.388672 C 24.407932 18.378281 24.400858 18.365702 24.390625 18.355469 C 24.38036 18.345204 24.367845 18.338192 24.357422 18.328125 C 24.348014 18.318407 24.341611 18.306454 24.332031 18.296875 C 24.321798 18.286642 24.309219 18.279568 24.298828 18.269531 C 24.288791 18.25914 24.281718 18.246562 24.271484 18.236328 C 24.262559 18.227403 24.251233 18.221667 24.242188 18.212891 C 24.230524 18.200746 24.222868 18.185759 24.210938 18.173828 C 24.199037 18.161927 24.183989 18.154213 24.171875 18.142578 C 24.163099 18.133533 24.157363 18.122207 24.148438 18.113281 C 24.139512 18.104356 24.128186 18.09862 24.119141 18.089844 C 24.106882 18.077052 24.098492 18.061383 24.085938 18.048828 C 24.073712 18.036603 24.059325 18.02757 24.046875 18.015625 C 24.037814 18.006277 24.030705 17.995548 24.021484 17.986328 C 24.010597 17.975441 23.997394 17.967696 23.986328 17.957031 C 23.975663 17.945965 23.967919 17.932762 23.957031 17.921875 C 23.946144 17.910988 23.932941 17.903243 23.921875 17.892578 C 23.91121 17.881512 23.903466 17.868309 23.892578 17.857422 C 23.881331 17.846175 23.866906 17.839134 23.855469 17.828125 C 23.844459 17.816688 23.837419 17.802262 23.826172 17.791016 C 23.814925 17.779769 23.800499 17.772728 23.789062 17.761719 C 23.778053 17.750282 23.771012 17.735856 23.759766 17.724609 C 23.748519 17.713363 23.734093 17.706322 23.722656 17.695312 C 23.711647 17.683876 23.704606 17.66945 23.693359 17.658203 C 23.681818 17.646662 23.667992 17.638245 23.65625 17.626953 C 23.644958 17.615211 23.636541 17.601385 23.625 17.589844 C 23.613459 17.578302 23.599632 17.569885 23.587891 17.558594 C 23.576599 17.546852 23.568182 17.533026 23.556641 17.521484 C 23.54474 17.509584 23.529692 17.501869 23.517578 17.490234 C 23.505943 17.478121 23.498229 17.463073 23.486328 17.451172 C 23.474427 17.439271 23.459379 17.431557 23.447266 17.419922 C 23.435631 17.407808 23.427916 17.39276 23.416016 17.380859 C 23.404079 17.368923 23.389104 17.361279 23.376953 17.349609 C 23.365318 17.337496 23.357604 17.322448 23.345703 17.310547 C 23.333508 17.298351 23.31906 17.28926 23.306641 17.277344 C 23.294724 17.264925 23.285633 17.250477 23.273438 17.238281 C 23.260845 17.225688 23.245253 17.217373 23.232422 17.205078 C 23.220787 17.192965 23.213073 17.177916 23.201172 17.166016 C 23.188976 17.15382 23.174528 17.144729 23.162109 17.132812 C 23.150193 17.120394 23.141102 17.105945 23.128906 17.09375 C 23.116352 17.081195 23.100682 17.072806 23.087891 17.060547 C 23.075632 17.047755 23.067242 17.032086 23.054688 17.019531 C 23.042133 17.006977 23.026463 16.998587 23.013672 16.986328 C 23.001413 16.973537 22.993023 16.957867 22.980469 16.945312 C 22.967619 16.932463 22.952551 16.922696 22.939453 16.910156 C 22.926914 16.897059 22.917146 16.88199 22.904297 16.869141 C 22.891447 16.856291 22.876379 16.846524 22.863281 16.833984 C 22.850742 16.820887 22.840974 16.805818 22.828125 16.792969 C 22.815276 16.780119 22.800207 16.770352 22.787109 16.757812 C 22.77457 16.744715 22.764803 16.729646 22.751953 16.716797 C 22.738745 16.703588 22.722455 16.694522 22.708984 16.681641 C 22.696103 16.66817 22.687037 16.65188 22.673828 16.638672 C 22.66062 16.625463 22.64433 16.616397 22.630859 16.603516 C 22.617978 16.590045 22.608912 16.573755 22.595703 16.560547 C 22.582495 16.547338 22.566205 16.538272 22.552734 16.525391 C 22.539815 16.511878 22.530827 16.495671 22.517578 16.482422 C 22.50401 16.468854 22.486501 16.460488 22.472656 16.447266 C 22.459434 16.433421 22.451068 16.415912 22.4375 16.402344 C 22.425305 16.390148 22.410856 16.381057 22.398438 16.369141 C 22.383664 16.353586 22.37263 16.335521 22.357422 16.320312 C 22.342214 16.305104 22.324149 16.294071 22.308594 16.279297 C 22.296677 16.266878 22.287586 16.25243 22.275391 16.240234 C 22.261528 16.226372 22.24462 16.216627 22.230469 16.203125 C 22.216967 16.188974 22.207222 16.172066 22.193359 16.158203 C 22.180805 16.145649 22.165135 16.137259 22.152344 16.125 C 22.13723 16.109068 22.126897 16.089788 22.111328 16.074219 C 22.095759 16.05865 22.076479 16.048317 22.060547 16.033203 C 22.048288 16.020412 22.039898 16.004742 22.027344 15.992188 C 22.014135 15.978979 21.997846 15.969912 21.984375 15.957031 C 21.969261 15.941099 21.958929 15.921819 21.943359 15.90625 C 21.92779 15.890681 21.908511 15.880348 21.892578 15.865234 C 21.879697 15.851764 21.87063 15.835474 21.857422 15.822266 C 21.842905 15.807749 21.82538 15.797324 21.810547 15.783203 C 21.796426 15.76837 21.786001 15.750845 21.771484 15.736328 C 21.756968 15.721812 21.739442 15.711387 21.724609 15.697266 C 21.710488 15.682433 21.700063 15.664907 21.685547 15.650391 C 21.670671 15.635515 21.651926 15.625788 21.636719 15.611328 C 21.622258 15.59612 21.612532 15.577376 21.597656 15.5625 C 21.58278 15.547624 21.564036 15.537898 21.548828 15.523438 C 21.534368 15.50823 21.524641 15.489485 21.509766 15.474609 C 21.495249 15.460093 21.477723 15.449668 21.462891 15.435547 C 21.448108 15.419982 21.437093 15.401936 21.421875 15.386719 C 21.406704 15.371548 21.388562 15.360441 21.373047 15.345703 C 21.358308 15.330188 21.347202 15.312046 21.332031 15.296875 C 21.317155 15.281999 21.298411 15.272273 21.283203 15.257812 C 21.268082 15.241872 21.257765 15.222608 21.242188 15.207031 C 21.226658 15.191501 21.207298 15.181092 21.191406 15.166016 C 21.176329 15.150124 21.16592 15.130764 21.150391 15.115234 C 21.134861 15.099705 21.115501 15.089296 21.099609 15.074219 C 21.084533 15.058327 21.074124 15.038967 21.058594 15.023438 C 21.043064 15.007908 21.023704 14.997499 21.007812 14.982422 C 20.992736 14.966531 20.982327 14.94717 20.966797 14.931641 C 20.950972 14.915816 20.932215 14.904026 20.916016 14.888672 C 20.900661 14.872472 20.888871 14.853715 20.873047 14.837891 C 20.857222 14.822066 20.838465 14.810276 20.822266 14.794922 C 20.806911 14.778722 20.795121 14.759965 20.779297 14.744141 C 20.76478 14.729624 20.747255 14.719199 20.732422 14.705078 C 20.715464 14.687083 20.703082 14.665973 20.685547 14.648438 C 20.668306 14.631196 20.646592 14.620198 20.628906 14.603516 C 20.614403 14.588261 20.604765 14.569608 20.589844 14.554688 C 20.573365 14.538209 20.553995 14.525734 20.537109 14.509766 C 20.521141 14.492881 20.508666 14.47351 20.492188 14.457031 C 20.475954 14.440798 20.456081 14.429801 20.439453 14.414062 C 20.423761 14.397486 20.412668 14.377512 20.396484 14.361328 C 20.380006 14.34485 20.360635 14.332375 20.34375 14.316406 C 20.327782 14.299521 20.315307 14.28015 20.298828 14.263672 C 20.283658 14.248501 20.265516 14.237395 20.25 14.222656 C 20.232431 14.203971 20.219363 14.182253 20.201172 14.164062 C 20.182667 14.145558 20.159642 14.133096 20.140625 14.115234 C 20.126165 14.100027 20.116438 14.081282 20.101562 14.066406 C 20.086033 14.050876 20.066673 14.040467 20.050781 14.025391 C 20.032876 14.006324 20.020505 13.983396 20.001953 13.964844 C 19.983401 13.946292 19.960473 13.933921 19.941406 13.916016 C 19.926329 13.900124 19.91592 13.880764 19.900391 13.865234 C 19.883194 13.848037 19.86139 13.836954 19.84375 13.820312 C 19.827109 13.802673 19.816025 13.780869 19.798828 13.763672 C 19.781631 13.746475 19.759827 13.735391 19.742188 13.71875 C 19.725546 13.70111 19.714463 13.679306 19.697266 13.662109 C 19.679774 13.644618 19.658575 13.632151 19.640625 13.615234 C 19.623708 13.597285 19.611242 13.576085 19.59375 13.558594 C 19.576258 13.541102 19.555059 13.528636 19.537109 13.511719 C 19.520193 13.493769 19.507726 13.47257 19.490234 13.455078 C 19.472743 13.437586 19.451543 13.42512 19.433594 13.408203 C 19.416677 13.390254 19.40421 13.369054 19.386719 13.351562 C 19.368868 13.333712 19.346453 13.32194 19.328125 13.304688 C 19.310873 13.28636 19.299101 13.263945 19.28125 13.246094 C 19.263399 13.228243 19.240984 13.216471 19.222656 13.199219 C 19.205404 13.180891 19.193632 13.158476 19.175781 13.140625 C 19.157636 13.122479 19.135826 13.109324 19.117188 13.091797 C 19.099661 13.073159 19.086505 13.051349 19.068359 13.033203 C 19.050214 13.015057 19.028404 13.001902 19.009766 12.984375 C 18.992239 12.965737 18.979083 12.943927 18.960938 12.925781 C 18.942792 12.907636 18.920982 12.89448 18.902344 12.876953 C 18.884817 12.858315 18.871661 12.836505 18.853516 12.818359 C 18.835011 12.799854 18.811986 12.787393 18.792969 12.769531 C 18.775107 12.750514 18.762646 12.727489 18.744141 12.708984 C 18.725636 12.690479 18.702611 12.678018 18.683594 12.660156 C 18.665732 12.641139 18.653271 12.618114 18.634766 12.599609 C 18.616261 12.581104 18.593236 12.568643 18.574219 12.550781 C 18.556357 12.531764 18.543896 12.508739 18.525391 12.490234 C 18.506591 12.471435 18.484172 12.457588 18.464844 12.439453 C 18.446708 12.420125 18.432862 12.397706 18.414062 12.378906 C 18.395263 12.360107 18.372843 12.34626 18.353516 12.328125 C 18.33538 12.308797 18.321534 12.286378 18.302734 12.267578 C 18.283575 12.248419 18.259942 12.235266 18.240234 12.216797 C 18.221766 12.19709 18.208612 12.173456 18.189453 12.154297 C 18.170294 12.135138 18.14666 12.121984 18.126953 12.103516 C 18.108484 12.083808 18.095331 12.060175 18.076172 12.041016 C 18.057013 12.021857 18.033379 12.008703 18.013672 11.990234 C 17.995203 11.970527 17.98205 11.946893 17.962891 11.927734 C 17.943437 11.908281 17.92041 11.893742 17.900391 11.875 C 17.881649 11.854981 17.86711 11.831954 17.847656 11.8125 C 17.828203 11.793046 17.805175 11.778508 17.785156 11.759766 C 17.766414 11.739747 17.751876 11.716719 17.732422 11.697266 C 17.712609 11.677453 17.688368 11.663606 17.667969 11.644531 C 17.648894 11.624132 17.635047 11.599891 17.615234 11.580078 C 17.597089 11.561932 17.575279 11.548777 17.556641 11.53125 C 17.53631 11.509408 17.521174 11.484064 17.5 11.462891 C 17.478465 11.441356 17.451913 11.426912 17.429688 11.40625 C 17.411826 11.387233 17.399364 11.364208 17.380859 11.345703 C 17.362714 11.327557 17.340904 11.314402 17.322266 11.296875 C 17.301383 11.274394 17.285447 11.248337 17.263672 11.226562 C 17.243448 11.206339 17.2181 11.193283 17.197266 11.173828 C 17.177811 11.152994 17.164755 11.127646 17.144531 11.107422 C 17.122997 11.085887 17.096445 11.071443 17.074219 11.050781 C 17.05575 11.031074 17.042596 11.00744 17.023438 10.988281 C 17.002971 10.967814 16.978123 10.953273 16.957031 10.933594 C 16.937352 10.912502 16.922811 10.887654 16.902344 10.867188 C 16.881814 10.846658 16.857096 10.832237 16.835938 10.8125 C 16.816258 10.791408 16.801717 10.766561 16.78125 10.746094 C 16.760783 10.725627 16.735936 10.711085 16.714844 10.691406 C 16.695165 10.670314 16.680623 10.645467 16.660156 10.625 C 16.63933 10.604174 16.61327 10.590323 16.591797 10.570312 C 16.571787 10.548839 16.557935 10.522779 16.537109 10.501953 C 16.517296 10.48214 16.493055 10.468293 16.472656 10.449219 C 16.451393 10.426295 16.436253 10.399143 16.414062 10.376953 C 16.391872 10.354763 16.364721 10.339623 16.341797 10.318359 C 16.322722 10.29796 16.308875 10.273719 16.289062 10.253906 C 16.267942 10.232785 16.242489 10.217547 16.220703 10.197266 C 16.200421 10.17548 16.185183 10.150027 16.164062 10.128906 C 16.142582 10.107426 16.115918 10.092878 16.09375 10.072266 C 16.073138 10.050098 16.058589 10.023433 16.037109 10.001953 C 16.017296 9.9821402 15.993055 9.9682935 15.972656 9.9492188 C 15.950793 9.9255962 15.934955 9.8978455 15.912109 9.875 C 15.889264 9.8521545 15.861513 9.8363163 15.837891 9.8144531 C 15.818212 9.7933612 15.80367 9.7685138 15.783203 9.7480469 C 15.761723 9.7265668 15.735059 9.7120183 15.712891 9.6914062 C 15.692279 9.6692383 15.67773 9.6425738 15.65625 9.6210938 C 15.634475 9.5993189 15.608419 9.5833827 15.585938 9.5625 C 15.565055 9.5400185 15.549119 9.5139624 15.527344 9.4921875 C 15.50521 9.4700534 15.477942 9.4548059 15.455078 9.4335938 C 15.433866 9.4107298 15.418618 9.3834622 15.396484 9.3613281 C 15.375004 9.339848 15.34834 9.3252995 15.326172 9.3046875 C 15.304898 9.2817515 15.28978 9.2546235 15.267578 9.2324219 C 15.246457 9.211301 15.221005 9.1960629 15.199219 9.1757812 C 15.176758 9.1514585 15.16022 9.1231103 15.136719 9.0996094 C 15.113218 9.0761085 15.08487 9.0595706 15.060547 9.0371094 C 15.040265 9.0153233 15.025027 8.9898709 15.003906 8.96875 C 14.981477 8.9463212 14.954819 8.9296852 14.931641 8.9082031 C 14.910158 8.885025 14.893523 8.8583663 14.871094 8.8359375 C 14.848665 8.8135087 14.822006 8.7968728 14.798828 8.7753906 C 14.777346 8.7522125 14.76071 8.7255538 14.738281 8.703125 C 14.715493 8.6803369 14.687624 8.6643888 14.664062 8.6425781 C 14.642252 8.6190169 14.626304 8.5911474 14.603516 8.5683594 C 14.580728 8.5455713 14.552858 8.5296232 14.529297 8.5078125 C 14.507486 8.4842512 14.491538 8.4563818 14.46875 8.4335938 C 14.445962 8.4108057 14.418093 8.3948576 14.394531 8.3730469 C 14.372721 8.3494856 14.356772 8.3216162 14.333984 8.2988281 C 14.310902 8.2757453 14.283642 8.258408 14.259766 8.2363281 C 14.237686 8.2124522 14.220348 8.1851922 14.197266 8.1621094 C 14.174183 8.1390266 14.146923 8.1216893 14.123047 8.0996094 C 14.100967 8.0757334 14.08363 8.0484734 14.060547 8.0253906 C 14.038413 8.0032565 14.011145 7.9880091 13.988281 7.9667969 C 13.964896 7.9413859 13.948346 7.9112361 13.923828 7.8867188 C 13.900622 7.8635122 13.871664 7.8483647 13.847656 7.8261719 C 13.824921 7.8015279 13.808958 7.7718482 13.785156 7.7480469 C 13.759983 7.7228741 13.729239 7.7056199 13.703125 7.6816406 C 13.681913 7.6587766 13.666665 7.6315091 13.644531 7.609375 C 13.621448 7.5862922 13.594188 7.5689549 13.570312 7.546875 C 13.547569 7.5222211 13.52967 7.4945137 13.505859 7.4707031 C 13.482417 7.4472611 13.453947 7.4306107 13.429688 7.4082031 C 13.406617 7.3831643 13.389404 7.3542482 13.365234 7.3300781 C 13.341138 7.3059821 13.312069 7.2886278 13.287109 7.265625 C 13.264107 7.2406655 13.246752 7.211596 13.222656 7.1875 C 13.19856 7.163404 13.169491 7.1460497 13.144531 7.1230469 C 13.121528 7.0980874 13.104174 7.0690179 13.080078 7.0449219 C 13.055982 7.0208258 13.026913 7.0034716 13.001953 6.9804688 C 12.97895 6.9555092 12.961596 6.9264398 12.9375 6.9023438 C 12.913699 6.8785425 12.884019 6.8625785 12.859375 6.8398438 C 12.835978 6.8144196 12.819452 6.7842953 12.794922 6.7597656 C 12.770467 6.7353104 12.740188 6.7186416 12.714844 6.6953125 C 12.691515 6.6699681 12.674846 6.6396896 12.650391 6.6152344 C 12.625641 6.5904844 12.595973 6.5724245 12.570312 6.5488281 C 12.546716 6.5231677 12.528656 6.4935 12.503906 6.46875 C 12.47981 6.444654 12.450741 6.4272997 12.425781 6.4042969 C 12.402116 6.3785546 12.384201 6.349045 12.359375 6.3242188 C 12.335933 6.3007767 12.307463 6.2841263 12.283203 6.2617188 C 12.258041 6.2341943 12.239374 6.2022649 12.212891 6.1757812 C 12.186407 6.1492976 12.154478 6.1306309 12.126953 6.1054688 C 12.104546 6.081209 12.087895 6.0527389 12.064453 6.0292969 C 12.039344 6.0041876 12.008468 5.9868124 11.982422 5.9628906 C 11.9585 5.9368446 11.941125 5.9059686 11.916016 5.8808594 C 11.447175 5.4120185 10.811479 5.1484373 10.148438 5.1484375 z "
       id="path6844"
       style="fill:url(#linearGradient7685);fill-opacity:1;opacity:0.2"
       clip-path="url(#clipPath7690)" />
    <path
       inkscape:connector-curvature="0"
       d="M 9.9999772,5.0000048 A 2.5,2.5 0 0 1 12.499978,7.5000047 2.5,2.5 0 0 1 9.9999772,10.000005 2.5,2.5 0 0 1 7.4999773,7.5000047 2.5,2.5 0 0 1 9.9999772,5.0000048 m 0,6.2500002 c 2.7625008,0 5.0000008,1.11875 5.0000008,2.5 l 0,1.25 -10.0000003,0 0,-1.25 c 0,-1.38125 2.2374996,-2.5 4.9999995,-2.5 z"
       id="path5882-9"
       style="display:inline;fill:#ffffff" />
  </g>
</svg>
