<?xml version="1.0" encoding="UTF-8" standalone="no"?>
<!-- Created with Inkscape (http://www.inkscape.org/) -->

<svg
   xmlns:dc="http://purl.org/dc/elements/1.1/"
   xmlns:cc="http://creativecommons.org/ns#"
   xmlns:rdf="http://www.w3.org/1999/02/22-rdf-syntax-ns#"
   xmlns:svg="http://www.w3.org/2000/svg"
   xmlns="http://www.w3.org/2000/svg"
   xmlns:xlink="http://www.w3.org/1999/xlink"
   xmlns:sodipodi="http://sodipodi.sourceforge.net/DTD/sodipodi-0.dtd"
   xmlns:inkscape="http://www.inkscape.org/namespaces/inkscape"
   inkscape:export-ydpi="648"
   inkscape:export-xdpi="648"
   inkscape:export-filename="/home/juergen/Schreibtisch/Icons/Email.svg.png"
   sodipodi:docname="Night.svg"
   inkscape:version="0.91 r13725"
   version="1.1"
   id="svg2"
   viewBox="0 0 20 20"
   height="5.6444445mm"
   width="5.6444445mm">
  <sodipodi:namedview
     inkscape:snap-page="false"
     inkscape:snap-to-guides="false"
     inkscape:snap-grids="false"
     inkscape:window-maximized="1"
     inkscape:window-y="24"
     inkscape:window-x="0"
     inkscape:window-height="744"
     inkscape:window-width="1366"
     inkscape:guide-bbox="true"
     showguides="true"
     fit-margin-bottom="0"
     fit-margin-right="0"
     fit-margin-left="0"
     fit-margin-top="0"
     showgrid="false"
     inkscape:current-layer="layer1"
     inkscape:document-units="px"
     inkscape:cy="9.7920673"
     inkscape:cx="5.0314626"
     inkscape:zoom="22.4"
     inkscape:pageshadow="2"
     inkscape:pageopacity="0.0"
     borderopacity="1.0"
     bordercolor="#666666"
     pagecolor="#ffffff"
     id="base">
    <inkscape:grid
       type="xygrid"
       id="grid4138" />
    <sodipodi:guide
       position="10,18"
       orientation="0,1"
       id="guide4140" />
    <sodipodi:guide
       position="10,2"
       orientation="0,1"
       id="guide4142" />
    <sodipodi:guide
       position="2,10"
       orientation="1,0"
       id="guide4144" />
    <sodipodi:guide
       position="0,0"
       orientation="0,20"
       id="guide4146" />
    <sodipodi:guide
       position="20,0"
       orientation="-20,0"
       id="guide4148" />
    <sodipodi:guide
       position="20,20"
       orientation="0,-20"
       id="guide4150" />
    <sodipodi:guide
       position="0,20"
       orientation="20,0"
       id="guide4152" />
    <sodipodi:guide
       position="18,10"
       orientation="1,0"
       id="guide4154" />
    <sodipodi:guide
       position="10,10"
       orientation="-0.70710678,0.70710678"
       id="guide4156" />
    <sodipodi:guide
       position="4,10"
       orientation="1,0"
       id="guide4160" />
    <sodipodi:guide
       position="16,10"
       orientation="1,0"
       id="guide4162" />
    <sodipodi:guide
       position="10,16"
       orientation="0,1"
       id="guide4164" />
    <sodipodi:guide
       position="10,4"
       orientation="0,1"
       id="guide4166" />
    <sodipodi:guide
       position="10,15"
       orientation="0,1"
       id="guide4168" />
    <sodipodi:guide
       position="10,5"
       orientation="0,1"
       id="guide4170" />
    <sodipodi:guide
       position="5,10"
       orientation="1,0"
       id="guide4172" />
    <sodipodi:guide
       position="15,10"
       orientation="1,0"
       id="guide4174" />
  </sodipodi:namedview>
  <defs
     id="defs4">
    <linearGradient
       inkscape:collect="always"
       id="linearGradient4553">
      <stop
         style="stop-color:#000000;stop-opacity:0.2"
         offset="0"
         id="stop4555" />
      <stop
         style="stop-color:#000000;stop-opacity:0;"
         offset="1"
         id="stop4557" />
    </linearGradient>
    <clipPath
       id="clipPath12478"
       clipPathUnits="userSpaceOnUse">
      <circle
         r="10"
         cy="10.000005"
         cx="9.9999781"
         id="circle12480"
         style="opacity:1;fill:#2196f3;fill-opacity:1;stroke:none;stroke-width:0.05069799;stroke-miterlimit:4;stroke-dasharray:none;stroke-opacity:1" />
    </clipPath>
    <clipPath
       clipPathUnits="userSpaceOnUse"
       id="clipPath5790">
      <circle
         r="10"
         cy="10.000005"
         cx="9.9999781"
         id="circle5792"
         style="opacity:1;fill:#2196f3;fill-opacity:1;stroke:none;stroke-width:0.05069799;stroke-miterlimit:4;stroke-dasharray:none;stroke-opacity:1"
         inkscape:export-filename="/home/juergen/path4136.png"
         inkscape:export-xdpi="648"
         inkscape:export-ydpi="648" />
    </clipPath>
    <clipPath
       id="clipPath5055"
       clipPathUnits="userSpaceOnUse">
      <circle
         r="10"
         cy="10.000005"
         cx="9.9999781"
         id="circle5057"
         style="opacity:1;fill:#2196f3;fill-opacity:1;stroke:none;stroke-width:0.05069799;stroke-miterlimit:4;stroke-dasharray:none;stroke-opacity:1"
         inkscape:export-filename="/home/juergen/path4136.png"
         inkscape:export-xdpi="648"
         inkscape:export-ydpi="648" />
    </clipPath>
    <clipPath
       clipPathUnits="userSpaceOnUse"
       id="clipPath5119">
      <circle
         r="10"
         cy="10.000005"
         cx="9.9999781"
         id="circle5121"
         style="opacity:1;fill:#2196f3;fill-opacity:1;stroke:none;stroke-width:0.05069799;stroke-miterlimit:4;stroke-dasharray:none;stroke-opacity:1"
         inkscape:export-filename="/home/juergen/Schreibtisch/path4136.png"
         inkscape:export-xdpi="648"
         inkscape:export-ydpi="648" />
    </clipPath>
    <clipPath
       id="clipPath5194"
       clipPathUnits="userSpaceOnUse">
      <circle
         r="10"
         cy="10.000005"
         cx="9.9999781"
         id="circle5196"
         style="opacity:1;fill:#cddc39;fill-opacity:1;stroke:none;stroke-width:0.05069799;stroke-miterlimit:4;stroke-dasharray:none;stroke-opacity:1"
         inkscape:export-filename="/home/juergen/Schreibtisch/path4136.png"
         inkscape:export-xdpi="648"
         inkscape:export-ydpi="648" />
    </clipPath>
    <clipPath
       clipPathUnits="userSpaceOnUse"
       id="clipPath6175">
      <circle
         r="10"
         cy="10.000005"
         cx="9.9999781"
         id="circle6177"
         style="opacity:1;fill:#f44336;fill-opacity:1;stroke:none;stroke-width:0.05069799;stroke-miterlimit:4;stroke-dasharray:none;stroke-opacity:1"
         inkscape:export-filename="/home/juergen/Schreibtisch/path4136.png"
         inkscape:export-xdpi="648"
         inkscape:export-ydpi="648" />
    </clipPath>
    <clipPath
       id="clipPath7176"
       clipPathUnits="userSpaceOnUse">
      <circle
         r="10"
         cy="10.000005"
         cx="9.9999781"
         id="circle7178"
         style="opacity:1;fill:#9c27b0;fill-opacity:1;stroke:none;stroke-width:0.05069799;stroke-miterlimit:4;stroke-dasharray:none;stroke-opacity:1"
         inkscape:export-filename="/home/juergen/Schreibtisch/path4136.png"
         inkscape:export-xdpi="648"
         inkscape:export-ydpi="648" />
    </clipPath>
    <clipPath
       clipPathUnits="userSpaceOnUse"
       id="clipPath8165">
      <circle
         r="10"
         cy="10.000005"
         cx="9.9999781"
         id="circle8167"
         style="opacity:1;fill:#ffc107;fill-opacity:1;stroke:none;stroke-width:0.05069799;stroke-miterlimit:4;stroke-dasharray:none;stroke-opacity:1"
         inkscape:export-filename="/home/juergen/Schreibtisch/path4136.png"
         inkscape:export-xdpi="648"
         inkscape:export-ydpi="648" />
    </clipPath>
    <clipPath
       id="clipPath9162"
       clipPathUnits="userSpaceOnUse">
      <circle
         r="10"
         cy="10.000005"
         cx="9.9999781"
         id="circle9164"
         style="opacity:1;fill:#ff9800;fill-opacity:1;stroke:none;stroke-width:0.05069799;stroke-miterlimit:4;stroke-dasharray:none;stroke-opacity:1"
         inkscape:export-filename="/home/juergen/Schreibtisch/path4136.png"
         inkscape:export-xdpi="648"
         inkscape:export-ydpi="648" />
    </clipPath>
    <clipPath
       clipPathUnits="userSpaceOnUse"
       id="clipPath5147">
      <circle
         r="10"
         cy="10.000005"
         cx="9.9999781"
         id="circle5149"
         style="opacity:1;fill:#ff9800;fill-opacity:1;stroke:none;stroke-width:0.05069799;stroke-miterlimit:4;stroke-dasharray:none;stroke-opacity:1"
         inkscape:export-filename="/home/juergen/Schreibtisch/path4136.png"
         inkscape:export-xdpi="648"
         inkscape:export-ydpi="648" />
    </clipPath>
    <clipPath
       id="clipPath6144"
       clipPathUnits="userSpaceOnUse">
      <circle
         r="10"
         cy="10.000005"
         cx="9.9999781"
         id="circle6146"
         style="opacity:1;fill:#e91e63;fill-opacity:1;stroke:none;stroke-width:0.05069799;stroke-miterlimit:4;stroke-dasharray:none;stroke-opacity:1"
         inkscape:export-filename="/home/juergen/Schreibtisch/path4136.png"
         inkscape:export-xdpi="648"
         inkscape:export-ydpi="648" />
    </clipPath>
    <clipPath
       clipPathUnits="userSpaceOnUse"
       id="clipPath7143">
      <circle
         r="10"
         cy="10.000005"
         cx="9.9999781"
         id="circle7145"
         style="opacity:1;fill:#ffeb3b;fill-opacity:1;stroke:none;stroke-width:0.05069799;stroke-miterlimit:4;stroke-dasharray:none;stroke-opacity:1"
         inkscape:export-filename="/home/juergen/Schreibtisch/path4136.png"
         inkscape:export-xdpi="648"
         inkscape:export-ydpi="648" />
    </clipPath>
    <clipPath
       id="clipPath8148"
       clipPathUnits="userSpaceOnUse">
      <circle
         r="10"
         cy="10.000005"
         cx="9.9999781"
         id="circle8150"
         style="opacity:1;fill:#9c27b0;fill-opacity:1;stroke:none;stroke-width:0.05069799;stroke-miterlimit:4;stroke-dasharray:none;stroke-opacity:1"
         inkscape:export-filename="/home/juergen/Schreibtisch/path4136.png"
         inkscape:export-xdpi="648"
         inkscape:export-ydpi="648" />
    </clipPath>
    <linearGradient
       inkscape:collect="always"
       xlink:href="#linearGradient4553"
       id="linearGradient4559"
       x1="10"
       y1="10"
       x2="20"
       y2="20"
       gradientUnits="userSpaceOnUse" />
    <clipPath
       clipPathUnits="userSpaceOnUse"
       id="clipPath5364">
      <circle
         r="10"
         cy="10.000005"
         cx="9.9999781"
         id="circle5366"
         style="opacity:1;fill:#f44336;fill-opacity:1;stroke:none;stroke-width:0.05069799;stroke-miterlimit:4;stroke-dasharray:none;stroke-opacity:1"
         inkscape:export-filename="/home/juergen/Schreibtisch/path4136.png"
         inkscape:export-xdpi="648"
         inkscape:export-ydpi="648" />
    </clipPath>
  </defs>
  <metadata
     id="metadata7">
    <rdf:RDF>
      <cc:Work
         rdf:about="">
        <dc:format>image/svg+xml</dc:format>
        <dc:type
           rdf:resource="http://purl.org/dc/dcmitype/StillImage" />
        <dc:title></dc:title>
      </cc:Work>
    </rdf:RDF>
  </metadata>
  <g
     inkscape:label="Hintergrund"
     inkscape:groupmode="layer"
     id="layer1"
     transform="translate(1058.1428,-861.93365)">
    <circle
       inkscape:export-ydpi="648"
       inkscape:export-xdpi="648"
       inkscape:export-filename="/home/juergen/Projekte/Android/Android_Studio/Baumann_Theme/theme/src/main/assets/icons/res/drawable-xxhdpi/a148.png"
       style="opacity:1;fill:#673ab7;fill-opacity:1;stroke:none;stroke-width:0.05069799;stroke-miterlimit:4;stroke-dasharray:none;stroke-opacity:1"
       id="path4136"
       cx="-1048.1428"
       cy="871.93365"
       r="10" />
  </g>
  <g
     style="display:inline"
     inkscape:groupmode="layer"
     id="layer2"
     inkscape:label="Icon">
    <path
       d="M 10 5 L 8.5371094 6.4628906 L 6.4628906 6.4628906 L 6.4628906 8.5371094 L 5 10 L 5.0742188 10.074219 C 5.0742188 10.074219 5.0818512 10.081931 5.0820312 10.082031 L 5.1484375 10.148438 L 5.1640625 10.164062 L 5.2246094 10.224609 L 5.2460938 10.246094 L 5.2988281 10.298828 L 5.328125 10.328125 L 5.3730469 10.373047 L 5.4101562 10.410156 L 5.4472656 10.447266 L 5.4921875 10.492188 L 5.5214844 10.521484 L 5.5742188 10.574219 L 5.5976562 10.597656 L 5.65625 10.65625 L 5.671875 10.671875 L 5.7382812 10.738281 L 5.7460938 10.746094 L 5.8183594 10.818359 L 5.8203125 10.820312 L 5.8945312 10.894531 L 5.8945312 10.896484 L 5.9003906 10.900391 L 5.9824219 10.982422 L 6.0644531 11.064453 L 6.1464844 11.146484 L 6.2285156 11.228516 L 6.3105469 11.310547 L 6.3925781 11.392578 L 6.4179688 11.417969 L 6.4628906 11.462891 L 6.4628906 13.537109 L 6.5371094 13.537109 L 6.5371094 13.611328 L 6.5488281 13.611328 L 6.6132812 13.611328 L 6.6132812 13.685547 L 6.6328125 13.685547 L 6.6875 13.685547 L 6.6875 13.759766 L 6.71875 13.759766 L 6.7617188 13.759766 L 6.7617188 13.835938 L 6.8027344 13.835938 L 6.8359375 13.835938 L 6.8359375 13.910156 L 6.8886719 13.910156 L 6.9101562 13.910156 L 6.9101562 13.984375 L 6.9726562 13.984375 L 6.9863281 13.984375 L 6.9863281 14.058594 L 7.0585938 14.058594 L 7.0605469 14.058594 L 7.0605469 14.132812 L 7.1347656 14.132812 L 7.1347656 14.208984 L 7.2089844 14.208984 L 7.2089844 14.283203 L 7.2851562 14.283203 L 7.2851562 14.357422 L 7.359375 14.357422 L 7.359375 14.431641 L 7.4335938 14.431641 L 7.4335938 14.507812 L 7.5078125 14.507812 L 7.5078125 14.582031 L 7.5820312 14.582031 L 7.5820312 14.65625 L 7.6582031 14.65625 L 7.6582031 14.730469 L 7.7324219 14.730469 L 7.7324219 14.804688 L 7.8066406 14.804688 L 7.8066406 14.880859 L 7.8808594 14.880859 L 7.8808594 14.955078 L 7.9550781 14.955078 L 7.9550781 15.029297 L 8.03125 15.029297 L 8.03125 15.103516 L 8.1054688 15.103516 L 8.1054688 15.177734 L 8.1796875 15.177734 L 8.1796875 15.253906 L 8.2539062 15.253906 L 8.2539062 15.328125 L 8.328125 15.328125 L 8.328125 15.402344 L 8.4042969 15.402344 L 8.4042969 15.476562 L 8.4785156 15.476562 L 8.4785156 15.550781 L 8.5527344 15.550781 L 8.5527344 15.626953 L 8.6269531 15.626953 L 8.6269531 15.701172 L 8.7011719 15.701172 L 8.7011719 15.775391 L 8.7773438 15.775391 L 8.7773438 15.849609 L 8.8515625 15.849609 L 8.8515625 15.923828 L 8.9257812 15.923828 L 8.9257812 16 L 9 16 L 9 16.074219 L 9.0761719 16.074219 L 9.0761719 16.148438 L 9.1503906 16.148438 L 9.1503906 16.222656 L 9.2246094 16.222656 L 9.2246094 16.298828 L 9.2988281 16.298828 L 9.2988281 16.373047 L 9.3730469 16.373047 L 9.3730469 16.447266 L 9.4492188 16.447266 L 9.4492188 16.521484 L 9.5234375 16.521484 L 9.5234375 16.595703 L 9.5976562 16.595703 L 9.5976562 16.671875 L 9.671875 16.671875 L 9.671875 16.746094 L 9.7460938 16.746094 L 9.7460938 16.820312 L 9.8222656 16.820312 L 9.8222656 16.894531 L 9.8964844 16.894531 L 9.8964844 16.96875 L 9.9707031 16.96875 L 9.9707031 17.044922 L 10.044922 17.044922 L 10.044922 17.119141 L 10.119141 17.119141 L 10.119141 17.193359 L 10.195312 17.193359 L 10.195312 17.267578 L 10.269531 17.267578 L 10.269531 17.341797 L 10.34375 17.341797 L 10.34375 17.417969 L 10.417969 17.417969 L 10.417969 17.492188 L 10.492188 17.492188 L 10.492188 17.566406 L 10.568359 17.566406 L 10.568359 17.640625 L 10.642578 17.640625 L 10.642578 17.714844 L 10.716797 17.714844 L 10.716797 17.791016 L 10.791016 17.791016 L 10.791016 17.865234 L 10.867188 17.865234 L 10.867188 17.939453 L 10.941406 17.939453 L 10.941406 18.013672 L 11.015625 18.013672 L 11.015625 18.089844 L 11.089844 18.089844 L 11.089844 18.164062 L 11.164062 18.164062 L 11.164062 18.238281 L 11.240234 18.238281 L 11.240234 18.3125 L 11.314453 18.3125 L 11.314453 18.386719 L 11.388672 18.386719 L 11.388672 18.462891 L 11.462891 18.462891 L 11.462891 18.537109 L 11.537109 18.537109 L 11.537109 18.611328 L 11.613281 18.611328 L 11.613281 18.685547 L 11.6875 18.685547 L 11.6875 18.759766 L 11.761719 18.759766 L 11.761719 18.835938 L 11.835938 18.835938 L 11.835938 18.910156 L 11.910156 18.910156 L 11.910156 18.984375 L 11.986328 18.984375 L 11.986328 19.058594 L 12.060547 19.058594 L 12.060547 19.132812 L 12.134766 19.132812 L 12.134766 19.208984 L 12.208984 19.208984 L 12.208984 19.283203 L 12.285156 19.283203 L 12.285156 19.357422 L 12.359375 19.357422 L 12.359375 19.431641 L 12.433594 19.431641 L 12.433594 19.507812 L 12.507812 19.507812 L 12.507812 19.582031 L 12.582031 19.582031 L 12.582031 19.65625 L 12.658203 19.65625 L 12.658203 19.730469 L 12.732422 19.730469 L 12.732422 19.804688 L 12.806641 19.804688 L 12.806641 19.880859 L 12.880859 19.880859 L 12.880859 19.955078 L 12.955078 19.955078 L 12.955078 20.029297 L 13.03125 20.029297 L 13.03125 20.103516 L 13.105469 20.103516 L 13.105469 20.177734 L 13.179688 20.177734 L 13.179688 20.253906 L 13.253906 20.253906 L 13.253906 20.328125 L 13.328125 20.328125 L 13.328125 20.402344 L 13.404297 20.402344 L 13.404297 20.476562 L 13.478516 20.476562 L 13.478516 20.550781 L 13.552734 20.550781 L 13.552734 20.626953 L 13.626953 20.626953 L 13.626953 20.701172 L 13.701172 20.701172 L 13.701172 20.775391 L 13.777344 20.775391 L 13.777344 20.849609 L 13.851562 20.849609 L 13.851562 20.923828 L 13.925781 20.923828 L 13.925781 21 L 14 21 L 14 21.074219 L 14.076172 21.074219 L 14.076172 21.148438 L 14.150391 21.148438 L 14.150391 21.222656 L 14.224609 21.222656 L 14.224609 21.298828 L 14.298828 21.298828 L 14.298828 21.373047 L 14.373047 21.373047 L 14.373047 21.447266 L 14.449219 21.447266 L 14.449219 21.521484 L 14.523438 21.521484 L 14.523438 21.595703 L 14.597656 21.595703 L 14.597656 21.671875 L 14.671875 21.671875 L 14.671875 21.746094 L 14.746094 21.746094 L 14.746094 21.820312 L 14.822266 21.820312 L 14.822266 21.894531 L 14.896484 21.894531 L 14.896484 21.96875 L 14.970703 21.96875 L 14.970703 22.044922 L 15.044922 22.044922 L 15.044922 22.119141 L 15.119141 22.119141 L 15.119141 22.193359 L 15.195312 22.193359 L 15.195312 22.267578 L 15.269531 22.267578 L 15.269531 22.341797 L 15.34375 22.341797 L 15.34375 22.417969 L 15.417969 22.417969 L 15.417969 22.492188 L 15.492188 22.492188 L 15.492188 22.566406 L 15.568359 22.566406 L 15.568359 22.640625 L 15.642578 22.640625 L 15.642578 22.714844 L 15.716797 22.714844 L 15.716797 22.791016 L 15.791016 22.791016 L 15.791016 22.865234 L 15.867188 22.865234 L 15.867188 22.939453 L 15.941406 22.939453 L 15.941406 23.013672 L 16.015625 23.013672 L 16.015625 23.089844 L 16.089844 23.089844 L 16.089844 23.164062 L 16.164062 23.164062 L 16.164062 23.238281 L 16.240234 23.238281 L 16.240234 23.3125 L 16.314453 23.3125 L 16.314453 23.386719 L 16.388672 23.386719 L 16.388672 23.462891 L 16.462891 23.462891 L 16.462891 23.537109 L 16.537109 23.537109 L 16.537109 23.611328 L 16.613281 23.611328 L 16.613281 23.685547 L 16.6875 23.685547 L 16.6875 23.759766 L 16.761719 23.759766 L 16.761719 23.835938 L 16.835938 23.835938 L 16.835938 23.910156 L 16.910156 23.910156 L 16.910156 23.984375 L 16.986328 23.984375 L 16.986328 24.058594 L 17.060547 24.058594 L 17.060547 24.132812 L 17.134766 24.132812 L 17.134766 24.208984 L 17.208984 24.208984 L 17.208984 24.283203 L 17.285156 24.283203 L 17.285156 24.357422 L 17.359375 24.357422 L 17.359375 24.431641 L 17.433594 24.431641 L 17.433594 24.507812 L 17.507812 24.507812 L 17.507812 24.582031 L 17.582031 24.582031 L 17.582031 24.65625 L 17.658203 24.65625 L 17.658203 24.730469 L 17.732422 24.730469 L 17.732422 24.804688 L 17.806641 24.804688 L 17.806641 24.880859 L 17.880859 24.880859 L 17.880859 24.955078 L 17.955078 24.955078 L 17.955078 25.029297 L 18.03125 25.029297 L 18.03125 25.103516 L 18.105469 25.103516 L 18.105469 25.177734 L 18.179688 25.177734 L 18.179688 25.253906 L 18.253906 25.253906 L 18.253906 25.328125 L 18.328125 25.328125 L 18.328125 25.402344 L 18.404297 25.402344 L 18.404297 25.476562 L 18.478516 25.476562 L 18.478516 25.550781 L 18.552734 25.550781 L 18.552734 25.626953 L 18.626953 25.626953 L 18.626953 25.701172 L 18.701172 25.701172 L 18.701172 25.775391 L 18.777344 25.775391 L 18.777344 25.849609 L 18.851562 25.849609 L 18.851562 25.923828 L 18.925781 25.923828 L 18.925781 26 L 19 26 L 19 26.074219 L 19.076172 26.074219 L 19.076172 26.148438 L 19.150391 26.148438 L 19.150391 26.222656 L 19.224609 26.222656 L 19.224609 26.298828 L 19.298828 26.298828 L 19.298828 26.373047 L 19.373047 26.373047 L 19.373047 26.447266 L 19.449219 26.447266 L 19.449219 26.521484 L 19.523438 26.521484 L 19.523438 26.595703 L 19.597656 26.595703 L 19.597656 26.671875 L 19.671875 26.671875 L 19.671875 26.746094 L 19.746094 26.746094 L 19.746094 26.820312 L 19.822266 26.820312 L 19.822266 26.894531 L 19.896484 26.894531 L 19.896484 26.96875 L 19.970703 26.96875 L 19.970703 27.044922 L 20.044922 27.044922 L 20.044922 27.119141 L 20.119141 27.119141 L 20.119141 27.193359 L 20.195312 27.193359 L 20.195312 27.267578 L 20.269531 27.267578 L 20.269531 27.341797 L 20.34375 27.341797 L 20.34375 27.417969 L 20.417969 27.417969 L 20.417969 27.492188 L 20.492188 27.492188 L 20.492188 27.566406 L 20.568359 27.566406 L 20.568359 27.640625 L 20.642578 27.640625 L 20.642578 27.714844 L 20.716797 27.714844 L 20.716797 27.791016 L 20.791016 27.791016 L 20.791016 27.865234 L 20.867188 27.865234 L 20.867188 27.939453 L 20.941406 27.939453 L 20.941406 27.941406 L 20.941406 28.013672 L 21.015625 28.013672 L 21.015625 28.027344 L 21.015625 28.089844 L 21.089844 28.089844 L 21.089844 28.111328 L 21.089844 28.164062 L 21.164062 28.164062 L 21.164062 28.197266 L 21.164062 28.238281 L 21.240234 28.238281 L 21.240234 28.28125 L 21.240234 28.3125 L 21.314453 28.3125 L 21.314453 28.367188 L 21.314453 28.386719 L 21.388672 28.386719 L 21.388672 28.451172 L 21.388672 28.462891 L 21.462891 28.462891 L 21.462891 28.537109 L 23.535156 28.537109 L 23.537109 28.537109 L 23.582031 28.582031 L 23.607422 28.607422 L 23.65625 28.65625 L 23.689453 28.689453 L 23.730469 28.730469 L 23.771484 28.771484 L 23.806641 28.806641 L 23.853516 28.853516 L 23.880859 28.880859 L 23.935547 28.935547 L 23.955078 28.955078 L 24.017578 29.017578 L 24.029297 29.029297 L 24.099609 29.099609 L 24.103516 29.103516 L 24.179688 29.179688 L 24.181641 29.181641 L 24.253906 29.253906 L 24.263672 29.263672 L 24.328125 29.328125 L 24.34375 29.345703 L 24.425781 29.425781 L 24.478516 29.478516 L 24.507812 29.507812 L 24.552734 29.552734 L 24.589844 29.589844 L 24.626953 29.626953 L 24.671875 29.671875 L 24.701172 29.701172 L 24.753906 29.753906 L 24.775391 29.775391 L 24.835938 29.835938 L 24.917969 29.917969 L 24.925781 29.925781 L 25 30 L 26.462891 28.537109 L 28.537109 28.537109 L 28.537109 26.462891 L 30 25 L 29.925781 24.925781 L 29.851562 24.851562 L 29.775391 24.775391 L 29.701172 24.701172 L 29.626953 24.626953 L 29.552734 24.552734 L 29.478516 24.478516 L 29.402344 24.402344 L 29.328125 24.328125 L 29.253906 24.253906 L 29.179688 24.179688 L 29.103516 24.105469 L 29.029297 24.029297 L 28.955078 23.955078 L 28.880859 23.880859 L 28.806641 23.806641 L 28.730469 23.730469 L 28.65625 23.65625 L 28.582031 23.582031 L 28.537109 23.537109 L 28.537109 21.462891 L 28.462891 21.462891 L 28.462891 21.398438 L 28.462891 21.388672 L 28.386719 21.388672 L 28.386719 21.333984 L 28.386719 21.314453 L 28.3125 21.314453 L 28.3125 21.269531 L 28.3125 21.240234 L 28.238281 21.240234 L 28.238281 21.207031 L 28.238281 21.164062 L 28.164062 21.164062 L 28.164062 21.142578 L 28.164062 21.089844 L 28.089844 21.089844 L 28.089844 21.078125 L 28.089844 21.015625 L 28.013672 21.015625 L 28.013672 21.013672 L 28.013672 20.941406 L 27.939453 20.941406 L 27.939453 20.867188 L 27.865234 20.867188 L 27.865234 20.791016 L 27.791016 20.791016 L 27.791016 20.716797 L 27.714844 20.716797 L 27.714844 20.642578 L 27.640625 20.642578 L 27.640625 20.568359 L 27.566406 20.568359 L 27.566406 20.492188 L 27.492188 20.492188 L 27.492188 20.417969 L 27.417969 20.417969 L 27.417969 20.34375 L 27.341797 20.34375 L 27.341797 20.269531 L 27.267578 20.269531 L 27.267578 20.195312 L 27.193359 20.195312 L 27.193359 20.119141 L 27.119141 20.119141 L 27.119141 20.044922 L 27.044922 20.044922 L 27.044922 19.970703 L 26.96875 19.970703 L 26.96875 19.896484 L 26.894531 19.896484 L 26.894531 19.822266 L 26.820312 19.822266 L 26.820312 19.746094 L 26.746094 19.746094 L 26.746094 19.671875 L 26.671875 19.671875 L 26.671875 19.597656 L 26.595703 19.597656 L 26.595703 19.523438 L 26.521484 19.523438 L 26.521484 19.449219 L 26.447266 19.449219 L 26.447266 19.373047 L 26.373047 19.373047 L 26.373047 19.298828 L 26.298828 19.298828 L 26.298828 19.224609 L 26.222656 19.224609 L 26.222656 19.150391 L 26.148438 19.150391 L 26.148438 19.076172 L 26.074219 19.076172 L 26.074219 19 L 26 19 L 26 18.925781 L 25.923828 18.925781 L 25.923828 18.851562 L 25.849609 18.851562 L 25.849609 18.777344 L 25.775391 18.777344 L 25.775391 18.701172 L 25.701172 18.701172 L 25.701172 18.626953 L 25.626953 18.626953 L 25.626953 18.552734 L 25.550781 18.552734 L 25.550781 18.478516 L 25.476562 18.478516 L 25.476562 18.404297 L 25.402344 18.404297 L 25.402344 18.328125 L 25.328125 18.328125 L 25.328125 18.253906 L 25.253906 18.253906 L 25.253906 18.179688 L 25.177734 18.179688 L 25.177734 18.105469 L 25.103516 18.105469 L 25.103516 18.03125 L 25.029297 18.03125 L 25.029297 17.955078 L 24.955078 17.955078 L 24.955078 17.880859 L 24.880859 17.880859 L 24.880859 17.806641 L 24.804688 17.806641 L 24.804688 17.732422 L 24.730469 17.732422 L 24.730469 17.658203 L 24.65625 17.658203 L 24.65625 17.582031 L 24.582031 17.582031 L 24.582031 17.507812 L 24.505859 17.507812 L 24.505859 17.433594 L 24.431641 17.433594 L 24.431641 17.359375 L 24.357422 17.359375 L 24.357422 17.285156 L 24.283203 17.285156 L 24.283203 17.208984 L 24.208984 17.208984 L 24.208984 17.134766 L 24.132812 17.134766 L 24.132812 17.060547 L 24.058594 17.060547 L 24.058594 16.986328 L 23.984375 16.986328 L 23.984375 16.910156 L 23.910156 16.910156 L 23.910156 16.835938 L 23.835938 16.835938 L 23.835938 16.761719 L 23.759766 16.761719 L 23.759766 16.6875 L 23.685547 16.6875 L 23.685547 16.613281 L 23.611328 16.613281 L 23.611328 16.537109 L 23.537109 16.537109 L 23.537109 16.462891 L 23.462891 16.462891 L 23.462891 16.388672 L 23.386719 16.388672 L 23.386719 16.314453 L 23.3125 16.314453 L 23.3125 16.240234 L 23.238281 16.240234 L 23.238281 16.164062 L 23.164062 16.164062 L 23.164062 16.089844 L 23.089844 16.089844 L 23.089844 16.015625 L 23.013672 16.015625 L 23.013672 15.941406 L 22.939453 15.941406 L 22.939453 15.867188 L 22.865234 15.867188 L 22.865234 15.791016 L 22.791016 15.791016 L 22.791016 15.716797 L 22.714844 15.716797 L 22.714844 15.642578 L 22.640625 15.642578 L 22.640625 15.568359 L 22.566406 15.568359 L 22.566406 15.492188 L 22.492188 15.492188 L 22.492188 15.417969 L 22.417969 15.417969 L 22.417969 15.34375 L 22.341797 15.34375 L 22.341797 15.269531 L 22.267578 15.269531 L 22.267578 15.195312 L 22.193359 15.195312 L 22.193359 15.119141 L 22.119141 15.119141 L 22.119141 15.044922 L 22.044922 15.044922 L 22.044922 14.970703 L 21.96875 14.970703 L 21.96875 14.896484 L 21.894531 14.896484 L 21.894531 14.822266 L 21.820312 14.822266 L 21.820312 14.746094 L 21.746094 14.746094 L 21.746094 14.671875 L 21.671875 14.671875 L 21.671875 14.597656 L 21.595703 14.597656 L 21.595703 14.523438 L 21.521484 14.523438 L 21.521484 14.449219 L 21.447266 14.449219 L 21.447266 14.373047 L 21.373047 14.373047 L 21.373047 14.298828 L 21.298828 14.298828 L 21.298828 14.224609 L 21.222656 14.224609 L 21.222656 14.150391 L 21.148438 14.150391 L 21.148438 14.076172 L 21.074219 14.076172 L 21.074219 14 L 21 14 L 21 13.925781 L 20.923828 13.925781 L 20.923828 13.851562 L 20.849609 13.851562 L 20.849609 13.777344 L 20.775391 13.777344 L 20.775391 13.701172 L 20.701172 13.701172 L 20.701172 13.626953 L 20.626953 13.626953 L 20.626953 13.552734 L 20.550781 13.552734 L 20.550781 13.478516 L 20.476562 13.478516 L 20.476562 13.404297 L 20.402344 13.404297 L 20.402344 13.328125 L 20.328125 13.328125 L 20.328125 13.253906 L 20.253906 13.253906 L 20.253906 13.179688 L 20.177734 13.179688 L 20.177734 13.105469 L 20.103516 13.105469 L 20.103516 13.03125 L 20.029297 13.03125 L 20.029297 12.955078 L 19.955078 12.955078 L 19.955078 12.880859 L 19.880859 12.880859 L 19.880859 12.806641 L 19.804688 12.806641 L 19.804688 12.732422 L 19.730469 12.732422 L 19.730469 12.658203 L 19.65625 12.658203 L 19.65625 12.582031 L 19.582031 12.582031 L 19.582031 12.507812 L 19.505859 12.507812 L 19.505859 12.433594 L 19.431641 12.433594 L 19.431641 12.359375 L 19.357422 12.359375 L 19.357422 12.285156 L 19.283203 12.285156 L 19.283203 12.208984 L 19.208984 12.208984 L 19.208984 12.134766 L 19.132812 12.134766 L 19.132812 12.060547 L 19.058594 12.060547 L 19.058594 11.986328 L 18.984375 11.986328 L 18.984375 11.910156 L 18.910156 11.910156 L 18.910156 11.835938 L 18.835938 11.835938 L 18.835938 11.761719 L 18.759766 11.761719 L 18.759766 11.6875 L 18.685547 11.6875 L 18.685547 11.613281 L 18.611328 11.613281 L 18.611328 11.537109 L 18.537109 11.537109 L 18.537109 11.462891 L 18.462891 11.462891 L 18.462891 11.388672 L 18.386719 11.388672 L 18.386719 11.314453 L 18.3125 11.314453 L 18.3125 11.240234 L 18.238281 11.240234 L 18.238281 11.164062 L 18.164062 11.164062 L 18.164062 11.089844 L 18.089844 11.089844 L 18.089844 11.015625 L 18.013672 11.015625 L 18.013672 10.941406 L 17.939453 10.941406 L 17.939453 10.867188 L 17.865234 10.867188 L 17.865234 10.791016 L 17.791016 10.791016 L 17.791016 10.716797 L 17.714844 10.716797 L 17.714844 10.642578 L 17.640625 10.642578 L 17.640625 10.568359 L 17.566406 10.568359 L 17.566406 10.492188 L 17.492188 10.492188 L 17.492188 10.417969 L 17.417969 10.417969 L 17.417969 10.34375 L 17.341797 10.34375 L 17.341797 10.269531 L 17.267578 10.269531 L 17.267578 10.195312 L 17.193359 10.195312 L 17.193359 10.119141 L 17.119141 10.119141 L 17.119141 10.044922 L 17.044922 10.044922 L 17.044922 9.9707031 L 16.96875 9.9707031 L 16.96875 9.8964844 L 16.894531 9.8964844 L 16.894531 9.8222656 L 16.820312 9.8222656 L 16.820312 9.7460938 L 16.746094 9.7460938 L 16.746094 9.671875 L 16.671875 9.671875 L 16.671875 9.5976562 L 16.595703 9.5976562 L 16.595703 9.5234375 L 16.521484 9.5234375 L 16.521484 9.4492188 L 16.447266 9.4492188 L 16.447266 9.3730469 L 16.373047 9.3730469 L 16.373047 9.2988281 L 16.298828 9.2988281 L 16.298828 9.2246094 L 16.222656 9.2246094 L 16.222656 9.1503906 L 16.148438 9.1503906 L 16.148438 9.0761719 L 16.074219 9.0761719 L 16.074219 9 L 16 9 L 16 8.9257812 L 15.923828 8.9257812 L 15.923828 8.8515625 L 15.849609 8.8515625 L 15.849609 8.7773438 L 15.775391 8.7773438 L 15.775391 8.7011719 L 15.701172 8.7011719 L 15.701172 8.6269531 L 15.626953 8.6269531 L 15.626953 8.5527344 L 15.550781 8.5527344 L 15.550781 8.4785156 L 15.476562 8.4785156 L 15.476562 8.4042969 L 15.402344 8.4042969 L 15.402344 8.328125 L 15.328125 8.328125 L 15.328125 8.2539062 L 15.253906 8.2539062 L 15.253906 8.1796875 L 15.177734 8.1796875 L 15.177734 8.1054688 L 15.103516 8.1054688 L 15.103516 8.03125 L 15.029297 8.03125 L 15.029297 7.9550781 L 14.955078 7.9550781 L 14.955078 7.8808594 L 14.880859 7.8808594 L 14.880859 7.8066406 L 14.804688 7.8066406 L 14.804688 7.7324219 L 14.730469 7.7324219 L 14.730469 7.6582031 L 14.65625 7.6582031 L 14.65625 7.5820312 L 14.582031 7.5820312 L 14.582031 7.5078125 L 14.505859 7.5078125 L 14.505859 7.4335938 L 14.431641 7.4335938 L 14.431641 7.359375 L 14.357422 7.359375 L 14.357422 7.2851562 L 14.283203 7.2851562 L 14.283203 7.2089844 L 14.208984 7.2089844 L 14.208984 7.1347656 L 14.132812 7.1347656 L 14.132812 7.0605469 L 14.058594 7.0605469 L 14.058594 6.9863281 L 13.986328 6.9863281 L 13.984375 6.9863281 L 13.984375 6.9101562 L 13.921875 6.9101562 L 13.910156 6.9101562 L 13.910156 6.8359375 L 13.857422 6.8359375 L 13.835938 6.8359375 L 13.835938 6.7617188 L 13.792969 6.7617188 L 13.759766 6.7617188 L 13.759766 6.6875 L 13.728516 6.6875 L 13.685547 6.6875 L 13.685547 6.6132812 L 13.664062 6.6132812 L 13.611328 6.6132812 L 13.611328 6.5371094 L 13.601562 6.5371094 L 13.537109 6.5371094 L 13.537109 6.4628906 L 11.462891 6.4628906 L 11.417969 6.4179688 L 11.34375 6.34375 L 11.269531 6.2695312 L 11.193359 6.1933594 L 11.119141 6.1191406 L 11.044922 6.0449219 L 10.970703 5.9707031 L 10.894531 5.8964844 L 10.820312 5.8203125 L 10.746094 5.7460938 L 10.671875 5.671875 L 10.597656 5.5976562 L 10.521484 5.5214844 L 10.447266 5.4472656 L 10.373047 5.3730469 L 10.298828 5.2988281 L 10.224609 5.2246094 L 10.148438 5.1484375 L 10.074219 5.0742188 L 10 5 z "
       id="path3690"
       style="fill-opacity:1;fill:url(#linearGradient4559)"
       clip-path="url(#clipPath5364)" />
    <path
       d="m 3.9999777,4.0333382 12.0000003,0 0,11.9333328 -12.0000003,0 z"
       id="path4"
       inkscape:connector-curvature="0"
       style="fill:none" />
    <path
       style="fill:none"
       inkscape:connector-curvature="0"
       id="path9754"
       d="m 18.999978,19.033339 12,0 0,11.933333 -12,0 z" />
    <path
       style="fill:#ffeb3b;fill-rule:evenodd;stroke:none;stroke-width:1px;stroke-linecap:butt;stroke-linejoin:miter;stroke-opacity:1"
       d="M 7.6785714,9.6428571 8.1696429,7.0982143 10.133929,6.4285714 12.767857,7.4553571 13.4375,10 l -0.535714,2.633929 -2.8125,0.9375 L 7.5,12.455357 Z"
       id="path5368"
       inkscape:connector-curvature="0" />
    <path
       inkscape:connector-curvature="0"
       d="m 9.9999778,12.652525 c -0.3934572,0 -0.7692309,-0.08842 -1.1052167,-0.243148 0.9106985,-0.419982 1.5473029,-1.339523 1.5473029,-2.409372 0,-1.06985 -0.6366044,-1.9893901 -1.5473029,-2.4093724 C 9.2307469,7.4359023 9.6065206,7.3474849 9.9999778,7.3474849 a 2.6525199,2.6525199 0 0 1 2.6525202,2.6525201 2.6525199,2.6525199 0 0 1 -2.6525202,2.65252 m 3.5366932,-4.1158271 0,-2.0733863 -2.073386,0 -1.4633072,-1.4633068 -1.4633069,1.4633068 -2.0733863,0 0,2.0733863 -1.463307,1.4633071 1.463307,1.463306 0,2.073387 2.0733863,0 1.4633069,1.463307 1.4633072,-1.463307 2.073386,0 0,-2.073387 1.463307,-1.463306 -1.463307,-1.4633071 z"
       id="path3437"
       style="fill:#212121" />
  </g>
</svg>
