<?xml version="1.0" encoding="UTF-8" standalone="no"?>
<!-- Created with Inkscape (http://www.inkscape.org/) -->

<svg
   xmlns:dc="http://purl.org/dc/elements/1.1/"
   xmlns:cc="http://creativecommons.org/ns#"
   xmlns:rdf="http://www.w3.org/1999/02/22-rdf-syntax-ns#"
   xmlns:svg="http://www.w3.org/2000/svg"
   xmlns="http://www.w3.org/2000/svg"
   xmlns:xlink="http://www.w3.org/1999/xlink"
   xmlns:sodipodi="http://sodipodi.sourceforge.net/DTD/sodipodi-0.dtd"
   xmlns:inkscape="http://www.inkscape.org/namespaces/inkscape"
   width="5.6444445mm"
   height="5.6444445mm"
   viewBox="0 0 20 20"
   id="svg2"
   version="1.1"
   inkscape:version="0.91 r13725"
   sodipodi:docname="Oandbackup.svg">
  <sodipodi:namedview
     id="base"
     pagecolor="#ffffff"
     bordercolor="#666666"
     borderopacity="1.0"
     inkscape:pageopacity="0.0"
     inkscape:pageshadow="2"
     inkscape:zoom="15.839192"
     inkscape:cx="9.5448121"
     inkscape:cy="11.116905"
     inkscape:document-units="px"
     inkscape:current-layer="layer2"
     showgrid="false"
     fit-margin-top="0"
     fit-margin-left="0"
     fit-margin-right="0"
     fit-margin-bottom="0"
     showguides="true"
     inkscape:guide-bbox="true"
     inkscape:window-width="1366"
     inkscape:window-height="726"
     inkscape:window-x="0"
     inkscape:window-y="0"
     inkscape:window-maximized="1"
     inkscape:snap-grids="true"
     inkscape:snap-to-guides="true">
    <inkscape:grid
       type="xygrid"
       id="grid4138" />
    <sodipodi:guide
       position="10,18"
       orientation="0,1"
       id="guide4140" />
    <sodipodi:guide
       position="10,2"
       orientation="0,1"
       id="guide4142" />
    <sodipodi:guide
       position="2,10"
       orientation="1,0"
       id="guide4144" />
    <sodipodi:guide
       position="0,0"
       orientation="0,20"
       id="guide4146" />
    <sodipodi:guide
       position="20,0"
       orientation="-20,0"
       id="guide4148" />
    <sodipodi:guide
       position="20,20"
       orientation="0,-20"
       id="guide4150" />
    <sodipodi:guide
       position="0,20"
       orientation="20,0"
       id="guide4152" />
    <sodipodi:guide
       position="18,10"
       orientation="1,0"
       id="guide4154" />
    <sodipodi:guide
       position="10,10"
       orientation="-0.70710678,0.70710678"
       id="guide4156" />
    <sodipodi:guide
       position="10,10"
       orientation="0.70710678,0.70710678"
       id="guide4158" />
    <sodipodi:guide
       position="4,10"
       orientation="1,0"
       id="guide4160" />
    <sodipodi:guide
       position="16,10"
       orientation="1,0"
       id="guide4162" />
    <sodipodi:guide
       position="10,16"
       orientation="0,1"
       id="guide4164" />
    <sodipodi:guide
       position="10,4"
       orientation="0,1"
       id="guide4166" />
    <sodipodi:guide
       position="10,15"
       orientation="0,1"
       id="guide4168" />
    <sodipodi:guide
       position="10,5"
       orientation="0,1"
       id="guide4170" />
    <sodipodi:guide
       position="5,10"
       orientation="1,0"
       id="guide4172" />
    <sodipodi:guide
       position="15,10"
       orientation="1,0"
       id="guide4174" />
  </sodipodi:namedview>
  <defs
     id="defs4">
    <linearGradient
       inkscape:collect="always"
       id="linearGradient6164">
      <stop
         style="stop-color:#000000;stop-opacity:1;"
         offset="0"
         id="stop6166" />
      <stop
         style="stop-color:#000000;stop-opacity:0;"
         offset="1"
         id="stop6168" />
    </linearGradient>
    <clipPath
       id="clipPath12478"
       clipPathUnits="userSpaceOnUse">
      <circle
         r="10"
         cy="10.000005"
         cx="9.9999781"
         id="circle12480"
         style="opacity:1;fill:#2196f3;fill-opacity:1;stroke:none;stroke-width:0.05069799;stroke-miterlimit:4;stroke-dasharray:none;stroke-opacity:1" />
    </clipPath>
    <clipPath
       clipPathUnits="userSpaceOnUse"
       id="clipPath5790">
      <circle
         r="10"
         cy="10.000005"
         cx="9.9999781"
         id="circle5792"
         style="opacity:1;fill:#2196f3;fill-opacity:1;stroke:none;stroke-width:0.05069799;stroke-miterlimit:4;stroke-dasharray:none;stroke-opacity:1"
         inkscape:export-filename="/home/juergen/path4136.png"
         inkscape:export-xdpi="648"
         inkscape:export-ydpi="648" />
    </clipPath>
    <clipPath
       id="clipPath5055"
       clipPathUnits="userSpaceOnUse">
      <circle
         r="10"
         cy="10.000005"
         cx="9.9999781"
         id="circle5057"
         style="opacity:1;fill:#2196f3;fill-opacity:1;stroke:none;stroke-width:0.05069799;stroke-miterlimit:4;stroke-dasharray:none;stroke-opacity:1"
         inkscape:export-filename="/home/juergen/path4136.png"
         inkscape:export-xdpi="648"
         inkscape:export-ydpi="648" />
    </clipPath>
    <clipPath
       clipPathUnits="userSpaceOnUse"
       id="clipPath5119">
      <circle
         r="10"
         cy="10.000005"
         cx="9.9999781"
         id="circle5121"
         style="opacity:1;fill:#2196f3;fill-opacity:1;stroke:none;stroke-width:0.05069799;stroke-miterlimit:4;stroke-dasharray:none;stroke-opacity:1"
         inkscape:export-filename="/home/juergen/Schreibtisch/path4136.png"
         inkscape:export-xdpi="648"
         inkscape:export-ydpi="648" />
    </clipPath>
    <clipPath
       id="clipPath5194"
       clipPathUnits="userSpaceOnUse">
      <circle
         r="10"
         cy="10.000005"
         cx="9.9999781"
         id="circle5196"
         style="opacity:1;fill:#cddc39;fill-opacity:1;stroke:none;stroke-width:0.05069799;stroke-miterlimit:4;stroke-dasharray:none;stroke-opacity:1"
         inkscape:export-filename="/home/juergen/Schreibtisch/path4136.png"
         inkscape:export-xdpi="648"
         inkscape:export-ydpi="648" />
    </clipPath>
    <linearGradient
       inkscape:collect="always"
       xlink:href="#linearGradient6164"
       id="linearGradient6170"
       x1="10"
       y1="10"
       x2="20"
       y2="20"
       gradientUnits="userSpaceOnUse" />
    <clipPath
       clipPathUnits="userSpaceOnUse"
       id="clipPath6175">
      <circle
         r="10"
         cy="10.000005"
         cx="9.9999781"
         id="circle6177"
         style="opacity:1;fill:#f44336;fill-opacity:1;stroke:none;stroke-width:0.05069799;stroke-miterlimit:4;stroke-dasharray:none;stroke-opacity:1"
         inkscape:export-filename="/home/juergen/Schreibtisch/path4136.png"
         inkscape:export-xdpi="648"
         inkscape:export-ydpi="648" />
    </clipPath>
  </defs>
  <metadata
     id="metadata7">
    <rdf:RDF>
      <cc:Work
         rdf:about="">
        <dc:format>image/svg+xml</dc:format>
        <dc:type
           rdf:resource="http://purl.org/dc/dcmitype/StillImage" />
        <dc:title></dc:title>
      </cc:Work>
    </rdf:RDF>
  </metadata>
  <g
     inkscape:label="Hintergrund"
     inkscape:groupmode="layer"
     id="layer1"
     transform="translate(1058.1428,-861.93365)">
    <circle
       inkscape:export-ydpi="648"
       inkscape:export-xdpi="648"
       inkscape:export-filename="/home/juergen/Schreibtisch/path4136.png"
       style="opacity:1;fill:#f44336;fill-opacity:1;stroke:none;stroke-width:0.05069799;stroke-miterlimit:4;stroke-dasharray:none;stroke-opacity:1"
       id="path4136"
       cx="-1048.1428"
       cy="871.93365"
       r="10" />
  </g>
  <g
     style="display:inline"
     inkscape:groupmode="layer"
     id="layer2"
     inkscape:label="Icon">
    <path
       d="m 3.9999777,4.0333382 12.0000003,0 0,11.9333328 -12.0000003,0 z"
       id="path4"
       inkscape:connector-curvature="0"
       style="fill:none" />
    <path
       style="fill:none"
       inkscape:connector-curvature="0"
       id="path9754"
       d="m 18.999978,19.033339 12,0 0,11.933333 -12,0 z" />
    <path
       style="fill:#000000"
       inkscape:connector-curvature="0"
       d="M 9.9999779,12.727278 A 2.7272728,2.7272728 0 0 1 7.2727051,10.000005 c 0,-0.4545452 0.1136364,-0.8954552 0.3181818,-1.2727272 L 6.9272506,8.0636408 C 6.5727051,8.6227318 6.3636142,9.2863688 6.3636142,10.000005 a 3.6363637,3.6363637 0 0 0 3.6363637,3.636364 l 0,1.363636 1.8181821,-1.818182 -1.8181821,-1.818182 m 0,-4.9999999 0,-1.3636363 -1.8181819,1.8181818 1.8181819,1.8181822 0,-1.3636368 a 2.7272728,2.7272728 0 0 1 2.7272721,2.727273 c 0,0.454545 -0.113636,0.895455 -0.318181,1.272727 l 0.663636,0.663637 c 0.354545,-0.559091 0.563636,-1.222728 0.563636,-1.936364 A 3.6363637,3.6363637 0 0 0 9.9999779,6.3636411 Z"
       id="path5267" />
    <path
       style="fill:url(#linearGradient6170);fill-opacity:1;opacity:0.2"
       d="M 10.148438 5.1484375 L 8.3300781 6.9667969 L 8.4785156 7.1152344 L 8.7734375 7.4101562 L 9.5214844 8.1582031 L 10.148438 8.7851562 L 10.251953 8.8886719 L 10.253906 8.8886719 L 10.296875 8.9316406 L 10.296875 8.9335938 L 10.378906 9.015625 L 10.445312 9.0800781 L 10.476562 9.109375 L 10.474609 9.1113281 L 10.591797 9.2265625 L 10.613281 9.2480469 L 10.736328 9.3710938 L 10.736328 9.3730469 L 10.882812 9.5175781 L 10.882812 9.5195312 L 11.027344 9.6621094 L 11.042969 9.6777344 L 11.056641 9.6914062 L 11.060547 9.6972656 L 11.068359 9.7050781 L 11.169922 9.8066406 L 11.3125 9.9492188 L 11.455078 10.089844 L 11.455078 10.091797 L 11.552734 10.1875 L 11.597656 10.232422 L 11.683594 10.316406 L 11.681641 10.318359 L 11.738281 10.373047 L 11.8125 10.445312 L 11.810547 10.447266 L 11.876953 10.511719 L 11.876953 10.513672 L 12.017578 10.652344 L 12.070312 10.707031 L 12.119141 10.755859 L 12.121094 10.757812 L 12.154297 10.791016 L 12.292969 10.929688 L 12.429688 11.066406 L 12.566406 11.203125 L 12.621094 11.257812 C 12.596877 11.31087 12.586172 11.371009 12.558594 11.421875 L 12.707031 11.570312 L 13.220703 12.083984 C 13.220703 12.083984 13.220703 12.085938 13.220703 12.085938 L 13.369141 12.232422 L 13.517578 12.380859 L 13.664062 12.527344 L 13.810547 12.673828 L 13.865234 12.728516 L 13.955078 12.818359 L 14.005859 12.869141 L 14.099609 12.962891 L 14.242188 13.105469 L 14.242188 13.107422 L 14.292969 13.158203 L 14.386719 13.25 L 14.527344 13.390625 C 14.527344 13.390625 14.527344 13.392578 14.527344 13.392578 L 14.669922 13.533203 L 14.701172 13.564453 C 14.701172 13.564453 14.701172 13.566406 14.701172 13.566406 L 14.810547 13.673828 L 14.951172 13.814453 L 14.974609 13.837891 C 14.974609 13.837891 14.974609 13.839844 14.974609 13.839844 L 15.228516 14.091797 L 15.365234 14.228516 L 15.378906 14.242188 C 15.378906 14.242188 15.378906 14.244141 15.378906 14.244141 L 15.501953 14.365234 L 15.501953 14.367188 L 15.638672 14.501953 L 15.644531 14.507812 C 15.644531 14.507812 15.644531 14.509766 15.644531 14.509766 L 15.777344 14.640625 L 15.910156 14.773438 L 16.042969 14.90625 L 16.175781 15.039062 C 16.175781 15.039062 16.175781 15.041016 16.175781 15.041016 L 16.308594 15.171875 L 16.441406 15.304688 L 16.572266 15.435547 L 16.703125 15.566406 L 16.960938 15.824219 L 17.087891 15.951172 L 17.087891 15.953125 L 17.216797 16.080078 L 17.341797 16.205078 C 17.341797 16.205078 17.341797 16.207031 17.341797 16.207031 L 17.46875 16.332031 L 17.59375 16.457031 L 17.71875 16.582031 L 17.964844 16.828125 L 18.085938 16.949219 L 18.085938 16.951172 L 18.208984 17.072266 L 18.328125 17.191406 C 18.328125 17.191406 18.328125 17.193359 18.328125 17.193359 L 18.384766 17.25 L 18.488281 17.351562 C 18.488281 17.351562 18.488281 17.353516 18.488281 17.353516 L 18.568359 17.431641 L 18.685547 17.548828 L 18.685547 17.550781 L 18.921875 17.785156 L 19.037109 17.900391 L 19.054688 17.917969 C 19.054688 17.917969 19.054688 17.919922 19.054688 17.919922 L 19.267578 18.130859 L 19.380859 18.244141 L 19.380859 18.246094 L 19.494141 18.357422 C 19.494141 18.357422 19.494141 18.359375 19.494141 18.359375 L 19.607422 18.470703 L 19.830078 18.693359 L 19.869141 18.732422 L 19.890625 18.753906 L 19.898438 18.761719 L 19.939453 18.804688 L 20.048828 18.912109 L 20.048828 18.914062 L 20.158203 19.021484 L 20.160156 19.023438 L 20.207031 19.072266 L 20.265625 19.130859 L 20.373047 19.236328 C 20.373047 19.236328 20.373047 19.238281 20.373047 19.238281 L 20.480469 19.34375 L 20.541016 19.404297 C 20.541016 19.404297 20.541016 19.40625 20.541016 19.40625 L 20.691406 19.554688 L 20.728516 19.591797 L 20.759766 19.625 L 20.794922 19.660156 L 20.898438 19.761719 L 20.898438 19.763672 L 21.001953 19.865234 L 21.103516 19.966797 C 21.103516 19.966797 21.103516 19.96875 21.103516 19.96875 L 21.205078 20.068359 L 21.306641 20.169922 L 21.40625 20.269531 L 21.419922 20.283203 C 21.419922 20.283203 21.419922 20.285156 21.419922 20.285156 L 21.505859 20.369141 L 21.603516 20.466797 L 21.701172 20.564453 L 21.798828 20.662109 L 21.990234 20.853516 L 22.083984 20.947266 L 22.271484 21.134766 L 22.363281 21.226562 C 22.363281 21.226562 22.363281 21.228516 22.363281 21.228516 L 22.429688 21.292969 L 22.455078 21.318359 L 22.498047 21.361328 C 22.498047 21.361328 22.498047 21.363281 22.498047 21.363281 L 22.546875 21.410156 L 22.636719 21.5 L 22.814453 21.677734 L 22.902344 21.765625 L 22.902344 21.767578 L 22.990234 21.853516 L 23.076172 21.939453 C 23.076172 21.939453 23.076172 21.941406 23.076172 21.941406 L 23.078125 21.941406 L 23.162109 22.025391 L 23.248047 22.111328 L 23.332031 22.195312 L 23.392578 22.255859 C 23.392578 22.255859 23.392578 22.257812 23.392578 22.257812 L 23.416016 22.279297 L 23.498047 22.361328 L 23.580078 22.443359 L 23.662109 22.525391 L 23.769531 22.632812 C 23.769531 22.632812 23.769531 22.634766 23.769531 22.634766 L 23.822266 22.685547 L 23.832031 22.695312 L 23.841797 22.707031 L 23.84375 22.708984 L 23.900391 22.765625 L 23.978516 22.841797 L 23.978516 22.84375 L 24.023438 22.886719 L 24.058594 22.921875 L 24.134766 22.998047 L 24.197266 23.060547 C 24.197266 23.060547 24.197266 23.0625 24.197266 23.0625 L 24.208984 23.072266 L 24.208984 23.074219 L 24.265625 23.128906 C 24.265625 23.128906 24.265625 23.130859 24.265625 23.130859 L 24.359375 23.222656 L 24.433594 23.296875 L 24.533203 23.396484 C 24.533203 23.396484 24.533203 23.398438 24.533203 23.398438 L 24.580078 23.443359 L 24.650391 23.513672 L 24.650391 23.515625 L 24.705078 23.570312 L 24.710938 23.576172 L 24.712891 23.576172 L 24.714844 23.578125 L 24.716797 23.580078 L 24.792969 23.65625 L 24.861328 23.724609 L 24.998047 23.861328 L 25.007812 23.873047 L 25.013672 23.878906 L 25.064453 23.929688 L 25.130859 23.994141 L 25.130859 23.996094 L 25.197266 24.060547 L 25.207031 24.070312 C 25.207031 24.070312 25.207031 24.072266 25.207031 24.072266 L 25.261719 24.125 L 25.261719 24.126953 L 25.263672 24.128906 L 25.326172 24.189453 L 25.375 24.238281 C 25.375 24.238281 25.375 24.240234 25.375 24.240234 L 25.390625 24.253906 L 25.429688 24.292969 C 25.429688 24.292969 25.429688 24.294922 25.429688 24.294922 L 25.453125 24.316406 L 25.515625 24.378906 L 25.576172 24.439453 L 25.636719 24.5 L 25.640625 24.503906 C 25.640625 24.503906 25.640625 24.505859 25.640625 24.505859 L 25.691406 24.554688 C 25.691406 24.554688 25.691406 24.556641 25.691406 24.556641 L 25.697266 24.560547 L 25.791016 24.654297 C 25.791016 24.654297 25.791016 24.65625 25.791016 24.65625 L 25.814453 24.677734 L 25.871094 24.734375 L 25.984375 24.847656 L 26.039062 24.902344 L 26.09375 24.957031 L 26.148438 25.011719 L 26.203125 25.066406 L 26.244141 25.107422 C 26.244141 25.107422 26.244141 25.109375 26.244141 25.109375 L 26.253906 25.117188 L 26.285156 25.148438 C 26.285156 25.148438 26.285156 25.150391 26.285156 25.150391 L 26.304688 25.167969 L 26.365234 25.228516 C 26.365234 25.228516 26.365234 25.230469 26.365234 25.230469 L 26.404297 25.267578 C 26.404297 25.267578 26.404297 25.269531 26.404297 25.269531 L 26.40625 25.269531 L 26.455078 25.318359 L 26.503906 25.367188 L 26.552734 25.416016 C 26.552734 25.416016 26.552734 25.417969 26.552734 25.417969 L 26.599609 25.462891 L 26.689453 25.552734 C 26.689453 25.552734 26.689453 25.554688 26.689453 25.554688 L 26.691406 25.554688 L 26.78125 25.644531 L 26.84375 25.707031 C 26.84375 25.707031 26.84375 25.708984 26.84375 25.708984 L 26.867188 25.730469 L 26.908203 25.771484 L 26.990234 25.853516 L 27.003906 25.867188 C 27.003906 25.867188 27.003906 25.869141 27.003906 25.869141 L 27.029297 25.892578 L 27.068359 25.931641 L 27.074219 25.9375 C 27.074219 25.9375 27.074219 25.939453 27.074219 25.939453 L 27.107422 25.970703 L 27.117188 25.980469 C 27.117188 25.980469 27.117188 25.982422 27.117188 25.982422 L 27.144531 26.007812 L 27.181641 26.044922 L 27.216797 26.080078 L 27.228516 26.091797 C 27.228516 26.091797 27.228516 26.09375 27.228516 26.09375 L 27.251953 26.115234 L 27.251953 26.117188 L 27.277344 26.142578 L 27.279297 26.142578 L 27.28125 26.144531 L 27.283203 26.146484 L 27.289062 26.152344 L 27.320312 26.183594 L 27.345703 26.208984 C 27.345703 26.208984 27.345703 26.210938 27.345703 26.210938 L 27.353516 26.216797 L 27.355469 26.21875 L 27.363281 26.226562 C 27.363281 26.226562 27.363281 26.228516 27.363281 26.228516 L 27.386719 26.25 L 27.396484 26.259766 L 27.400391 26.263672 L 27.402344 26.265625 C 27.402344 26.265625 27.402344 26.267578 27.402344 26.267578 L 27.408203 26.271484 L 27.417969 26.28125 L 27.449219 26.3125 L 27.507812 26.371094 L 27.537109 26.400391 L 27.591797 26.455078 L 27.59375 26.457031 L 27.597656 26.460938 L 27.597656 26.462891 L 27.617188 26.482422 L 27.626953 26.492188 L 27.628906 26.494141 L 27.630859 26.494141 L 27.642578 26.505859 L 27.642578 26.507812 L 27.646484 26.511719 L 27.650391 26.515625 L 27.652344 26.517578 L 27.654297 26.517578 L 27.667969 26.53125 L 27.716797 26.580078 L 27.738281 26.601562 L 27.740234 26.603516 L 27.759766 26.623047 L 27.759766 26.625 L 27.761719 26.626953 L 27.767578 26.632812 L 27.769531 26.632812 L 27.777344 26.640625 L 27.78125 26.644531 L 27.802734 26.666016 L 27.839844 26.703125 L 27.839844 26.705078 L 27.857422 26.722656 L 27.859375 26.722656 L 27.876953 26.740234 L 27.892578 26.755859 L 27.908203 26.771484 L 27.908203 26.773438 L 27.910156 26.775391 L 27.912109 26.777344 L 27.914062 26.777344 L 27.919922 26.783203 L 27.921875 26.785156 L 27.923828 26.787109 L 27.939453 26.802734 L 27.953125 26.816406 L 27.978516 26.841797 L 27.988281 26.851562 L 27.988281 26.853516 L 27.990234 26.855469 L 27.992188 26.855469 L 28 26.863281 L 28.019531 26.882812 L 28.027344 26.890625 L 28.035156 26.898438 L 28.042969 26.90625 L 28.054688 26.917969 L 28.058594 26.923828 L 28.070312 26.933594 L 28.072266 26.935547 C 28.249538 26.656001 28.389737 26.350391 28.486328 26.025391 C 28.582919 25.700391 28.636719 25.356818 28.636719 25 C 28.636719 24.497923 28.533619 24.019033 28.349609 23.583984 C 28.349609 23.583984 28.347656 23.582031 28.347656 23.582031 C 28.256343 23.366142 28.145068 23.158996 28.015625 22.966797 C 28.015111 22.966036 28.014186 22.965604 28.013672 22.964844 C 28.013672 22.964844 28.011719 22.962891 28.011719 22.962891 C 28.011719 22.962891 28.009766 22.960938 28.009766 22.960938 C 28.008738 22.959416 28.00689 22.958551 28.005859 22.957031 C 27.876664 22.767043 27.732228 22.58965 27.570312 22.427734 C 27.569957 22.427379 27.568715 22.42809 27.568359 22.427734 C 27.568359 22.427734 27.568359 22.425781 27.568359 22.425781 C 27.568359 22.425781 27.566406 22.423828 27.566406 22.423828 C 27.566406 22.423828 27.564453 22.421875 27.564453 22.421875 C 27.563802 22.421227 27.563151 22.420569 27.5625 22.419922 C 27.5625 22.419922 27.560547 22.417969 27.560547 22.417969 C 27.560547 22.417969 27.558594 22.416016 27.558594 22.416016 C 27.558594 22.416016 27.556641 22.414062 27.556641 22.414062 C 27.556641 22.414062 27.554688 22.414062 27.554688 22.414062 C 27.554688 22.414062 27.554688 22.412109 27.554688 22.412109 C 27.554688 22.412109 27.552734 22.410156 27.552734 22.410156 C 27.550786 22.408208 27.548828 22.406241 27.546875 22.404297 C 27.544927 22.402348 27.542969 22.400382 27.541016 22.398438 C 27.538418 22.39584 27.535809 22.393215 27.533203 22.390625 C 27.530605 22.388027 27.527996 22.385403 27.525391 22.382812 C 27.522793 22.380215 27.520184 22.37759 27.517578 22.375 C 27.514331 22.371753 27.511072 22.36847 27.507812 22.365234 C 27.504565 22.361987 27.501307 22.358704 27.498047 22.355469 C 27.494799 22.352221 27.491541 22.348938 27.488281 22.345703 C 27.48634 22.343762 27.484367 22.34178 27.482422 22.339844 C 27.478541 22.335946 27.474601 22.332006 27.470703 22.328125 C 27.466469 22.323872 27.461286 22.320639 27.457031 22.316406 C 27.45244 22.31179 27.447975 22.307326 27.443359 22.302734 C 27.438476 22.297825 27.434598 22.291991 27.429688 22.287109 C 27.42481 22.282203 27.418968 22.278317 27.414062 22.273438 C 27.40883 22.268177 27.403702 22.263041 27.398438 22.257812 C 27.392916 22.252254 27.388369 22.245758 27.382812 22.240234 C 27.377284 22.234672 27.370799 22.230136 27.365234 22.224609 C 27.35936 22.218694 27.353571 22.212906 27.347656 22.207031 C 27.341136 22.200466 27.334695 22.194016 27.328125 22.1875 C 27.32225 22.181585 27.316462 22.175797 27.310547 22.169922 C 27.303378 22.162693 27.296291 22.155606 27.289062 22.148438 C 27.282254 22.141573 27.276394 22.133764 27.269531 22.126953 C 27.262368 22.119735 27.253317 22.11458 27.246094 22.107422 C 27.238582 22.099841 27.232187 22.091499 27.224609 22.083984 C 27.217094 22.076406 27.208753 22.070012 27.201172 22.0625 C 27.193014 22.054267 27.18597 22.045264 27.177734 22.037109 C 27.16958 22.028874 27.160576 22.021829 27.152344 22.013672 C 27.144186 22.005439 27.137142 21.996436 27.128906 21.988281 C 27.120107 21.979395 27.110453 21.971687 27.101562 21.962891 C 27.092404 21.953634 27.083475 21.944705 27.074219 21.935547 C 27.065069 21.926299 27.056123 21.917353 27.046875 21.908203 C 27.037435 21.898662 27.029075 21.888343 27.019531 21.878906 C 27.009802 21.869066 27.000075 21.859339 26.990234 21.849609 C 26.980505 21.839769 26.970778 21.830042 26.960938 21.820312 C 26.950846 21.810106 26.939898 21.801103 26.929688 21.791016 C 26.919256 21.780457 26.908997 21.770197 26.898438 21.759766 C 26.887717 21.748914 26.878043 21.737279 26.867188 21.726562 C 26.856469 21.715705 26.844838 21.706035 26.833984 21.695312 C 26.82291 21.684102 26.811999 21.673175 26.800781 21.662109 C 26.789423 21.650596 26.779088 21.638315 26.767578 21.626953 C 26.756216 21.615444 26.743936 21.605108 26.732422 21.59375 C 26.720069 21.581226 26.707845 21.568985 26.695312 21.556641 C 26.683299 21.544462 26.672339 21.53154 26.660156 21.519531 C 26.647514 21.506706 26.633924 21.495059 26.621094 21.482422 C 26.608727 21.469885 26.596531 21.45767 26.583984 21.445312 C 26.571349 21.432484 26.559699 21.418891 26.546875 21.40625 C 26.533944 21.393131 26.52094 21.380109 26.507812 21.367188 C 26.494538 21.353701 26.480279 21.341404 26.466797 21.328125 C 26.453176 21.314276 26.439621 21.30074 26.425781 21.287109 C 26.411808 21.272901 26.397016 21.260071 26.382812 21.246094 C 26.368822 21.231877 26.356018 21.217111 26.341797 21.203125 C 26.327535 21.188624 26.313329 21.174418 26.298828 21.160156 C 26.283922 21.144999 26.269074 21.130129 26.253906 21.115234 C 26.239276 21.100359 26.223866 21.086889 26.208984 21.072266 C 26.194008 21.057025 26.179303 21.04232 26.164062 21.027344 C 26.14881 21.011822 26.134667 20.995716 26.119141 20.980469 C 26.103606 20.964649 26.088085 20.949128 26.072266 20.933594 C 26.056362 20.917398 26.03964 20.902616 26.023438 20.886719 C 26.007202 20.870173 25.991156 20.854125 25.974609 20.837891 C 25.958374 20.821345 25.942328 20.805297 25.925781 20.789062 C 25.907616 20.77055 25.889648 20.752498 25.871094 20.734375 C 25.857459 20.720532 25.843931 20.706983 25.830078 20.693359 C 25.811672 20.674516 25.794199 20.65516 25.775391 20.636719 C 25.758233 20.61922 25.740162 20.603088 25.722656 20.585938 C 25.70515 20.56807 25.687791 20.550708 25.669922 20.533203 C 25.652419 20.515338 25.635053 20.497971 25.617188 20.480469 C 25.599055 20.461934 25.581022 20.443927 25.5625 20.425781 C 25.544354 20.407259 25.526348 20.389226 25.507812 20.371094 C 25.48939 20.352262 25.47195 20.332883 25.453125 20.314453 C 25.434406 20.295332 25.415619 20.276518 25.396484 20.257812 C 25.377427 20.238318 25.357379 20.220235 25.337891 20.201172 C 25.31883 20.181688 25.300741 20.161632 25.28125 20.142578 C 25.261886 20.12277 25.242465 20.103348 25.222656 20.083984 C 25.202941 20.063816 25.182286 20.045098 25.162109 20.025391 C 25.142068 20.004873 25.122081 19.984884 25.101562 19.964844 C 25.081521 19.944326 25.061534 19.924337 25.041016 19.904297 C 25.020957 19.88376 25.001005 19.863809 24.980469 19.84375 C 24.959162 19.821905 24.937862 19.800602 24.916016 19.779297 C 24.895605 19.758401 24.874421 19.739151 24.853516 19.71875 C 24.832493 19.697208 24.812563 19.675313 24.791016 19.654297 C 24.769361 19.632092 24.746822 19.611491 24.724609 19.589844 C 24.702962 19.567631 24.682361 19.545093 24.660156 19.523438 C 24.638501 19.501233 24.615963 19.480631 24.59375 19.458984 C 24.571464 19.436114 24.550221 19.412904 24.527344 19.390625 C 24.505064 19.367748 24.481855 19.346505 24.458984 19.324219 C 24.436349 19.300989 24.41387 19.278479 24.390625 19.255859 C 24.367716 19.232316 24.3458 19.208464 24.322266 19.185547 C 24.299348 19.162012 24.275496 19.140097 24.251953 19.117188 C 24.228673 19.093261 24.205566 19.070155 24.181641 19.046875 C 24.158093 19.022673 24.135536 18.99815 24.111328 18.974609 C 24.087479 18.950081 24.063591 18.926194 24.039062 18.902344 C 24.014885 18.877477 23.989719 18.854247 23.964844 18.830078 C 23.940675 18.805203 23.917445 18.780037 23.892578 18.755859 C 23.868112 18.730696 23.84354 18.70609 23.818359 18.681641 C 23.79356 18.656099 23.767722 18.632229 23.742188 18.607422 C 23.717381 18.581887 23.69351 18.55605 23.667969 18.53125 C 23.642532 18.50505 23.616053 18.480505 23.589844 18.455078 C 23.564417 18.428869 23.539872 18.40239 23.513672 18.376953 C 23.488235 18.350753 23.461756 18.326209 23.435547 18.300781 C 23.409134 18.273552 23.382716 18.247097 23.355469 18.220703 C 23.32938 18.19381 23.304247 18.166704 23.277344 18.140625 C 23.250648 18.113089 23.222861 18.08723 23.195312 18.060547 C 23.168902 18.033323 23.142478 18.006859 23.115234 17.980469 C 23.088201 17.952562 23.061112 17.925469 23.033203 17.898438 C 23.00617 17.870531 22.97908 17.843438 22.951172 17.816406 C 22.924116 17.788473 22.897073 17.761432 22.869141 17.734375 C 22.840853 17.70513 22.81245 17.676723 22.783203 17.648438 C 22.754263 17.618561 22.725255 17.58942 22.695312 17.560547 C 22.670219 17.534701 22.644986 17.509469 22.619141 17.484375 C 22.589276 17.453402 22.558282 17.424431 22.527344 17.394531 C 22.49872 17.364914 22.471013 17.335274 22.441406 17.306641 C 22.412773 17.277034 22.383133 17.249327 22.353516 17.220703 C 22.324257 17.190425 22.295911 17.16011 22.265625 17.130859 C 22.236061 17.100246 22.206395 17.070579 22.175781 17.041016 C 22.146242 17.01043 22.116525 16.980709 22.085938 16.951172 C 22.056373 16.920559 22.026708 16.890891 21.996094 16.861328 C 21.966209 16.83038 21.935255 16.801359 21.904297 16.771484 C 21.873788 16.739864 21.844128 16.708235 21.8125 16.677734 C 21.781999 16.646106 21.75037 16.616447 21.71875 16.585938 C 21.687893 16.553957 21.657002 16.523023 21.625 16.492188 C 21.593527 16.459524 21.561962 16.427955 21.529297 16.396484 C 21.498443 16.364509 21.467545 16.333564 21.435547 16.302734 C 21.404047 16.270041 21.372538 16.23853 21.339844 16.207031 C 21.308345 16.174337 21.276834 16.142828 21.244141 16.111328 C 21.21177 16.077683 21.180119 16.044101 21.146484 16.011719 C 21.114447 15.978448 21.082102 15.946097 21.048828 15.914062 C 21.016417 15.880398 20.982896 15.848805 20.949219 15.816406 C 20.916499 15.782398 20.88362 15.749514 20.849609 15.716797 C 20.816897 15.682794 20.784003 15.6499 20.75 15.617188 C 20.716649 15.582518 20.68313 15.548953 20.648438 15.515625 C 20.615086 15.480955 20.581568 15.447391 20.546875 15.414062 C 20.513259 15.37907 20.480293 15.344174 20.445312 15.310547 C 20.411685 15.275566 20.376789 15.2426 20.341797 15.208984 C 20.307488 15.173265 20.272059 15.139766 20.236328 15.105469 C 20.201683 15.069375 20.166956 15.034642 20.130859 15 C 20.096214 14.963907 20.061487 14.929174 20.025391 14.894531 C 19.990745 14.858438 19.956018 14.823705 19.919922 14.789062 C 19.884993 14.752668 19.850857 14.71656 19.814453 14.681641 C 19.778902 14.644572 19.742158 14.609758 19.705078 14.574219 C 19.669539 14.537139 19.634724 14.500395 19.597656 14.464844 C 19.562105 14.427776 19.525361 14.392961 19.488281 14.357422 C 19.452111 14.319677 19.416661 14.282254 19.378906 14.246094 C 19.342458 14.208039 19.305636 14.17121 19.267578 14.134766 C 19.230782 14.096348 19.192733 14.060215 19.154297 14.023438 C 19.118092 13.985659 19.082714 13.9483 19.044922 13.912109 C 19.008131 13.87369 18.970072 13.83756 18.931641 13.800781 C 18.894231 13.761684 18.857466 13.722947 18.818359 13.685547 C 18.780673 13.64614 18.742535 13.607996 18.703125 13.570312 C 18.665438 13.530906 18.627301 13.492762 18.587891 13.455078 C 18.550204 13.415671 18.512066 13.377527 18.472656 13.339844 C 18.434592 13.300036 18.395291 13.262659 18.355469 13.224609 C 18.317113 13.184467 18.278424 13.145778 18.238281 13.107422 C 18.199288 13.066608 18.15998 13.027247 18.119141 12.988281 C 18.080109 12.947431 18.040881 12.90814 18 12.869141 C 17.961316 12.828654 17.923314 12.788668 17.882812 12.75 C 17.843547 12.708873 17.802859 12.670112 17.761719 12.630859 C 17.722087 12.589315 17.682168 12.549399 17.640625 12.509766 C 17.600743 12.467958 17.561348 12.426591 17.519531 12.386719 C 17.479659 12.344902 17.438292 12.305507 17.396484 12.265625 C 17.35565 12.222764 17.31435 12.181455 17.271484 12.140625 C 17.231261 12.098464 17.190629 12.05777 17.148438 12.017578 C 17.107604 11.974717 17.066303 11.933408 17.023438 11.892578 C 16.982604 11.849717 16.941303 11.808408 16.898438 11.767578 C 16.857262 11.72435 16.814726 11.68374 16.771484 11.642578 C 16.730289 11.599293 16.68975 11.55684 16.646484 11.515625 C 16.604423 11.4714 16.561799 11.428784 16.517578 11.386719 C 16.475512 11.342498 16.432897 11.299874 16.388672 11.257812 C 16.346606 11.213592 16.30399 11.170968 16.259766 11.128906 C 16.217321 11.084278 16.17355 11.042429 16.128906 11 C 16.085844 10.954691 16.043373 10.910232 15.998047 10.867188 C 15.955992 10.822974 15.913354 10.780336 15.869141 10.738281 C 15.82585 10.692695 15.78191 10.648764 15.736328 10.605469 C 15.692692 10.559519 15.647526 10.516278 15.601562 10.472656 C 15.557941 10.426693 15.5147 10.381527 15.46875 10.337891 C 15.425114 10.291941 15.379948 10.2487 15.333984 10.205078 C 15.289736 10.158445 15.245862 10.112597 15.199219 10.068359 C 15.154981 10.021716 15.109133 9.977842 15.0625 9.9335938 C 15.018252 9.8869608 14.974378 9.8411123 14.927734 9.796875 C 14.882871 9.7495619 14.836389 9.7050049 14.789062 9.6601562 C 14.743879 9.6124709 14.698076 9.5666683 14.650391 9.5214844 C 14.605158 9.4737475 14.559458 9.4280425 14.511719 9.3828125 C 14.4659 9.3344512 14.419485 9.2879755 14.371094 9.2421875 C 14.325229 9.1937839 14.27891 9.1473879 14.230469 9.1015625 C 14.18495 9.0535241 14.139853 9.0064368 14.091797 8.9609375 C 14.045709 8.9122589 13.997911 8.866386 13.949219 8.8203125 C 13.902764 8.7712057 13.855745 8.7241925 13.806641 8.6777344 C 13.759598 8.6280064 13.711868 8.5802142 13.662109 8.5332031 C 13.615651 8.4840991 13.568638 8.4370802 13.519531 8.390625 C 13.472175 8.340501 13.42316 8.2934618 13.373047 8.2460938 C 13.325335 8.1956164 13.27707 8.1472895 13.226562 8.0996094 C 13.179148 8.0494532 13.132207 8.0005195 13.082031 7.953125 C 13.034401 7.9027067 12.985965 7.8542705 12.935547 7.8066406 C 12.887566 7.755845 12.837919 7.7081216 12.787109 7.6601562 C 12.560639 7.4202001 12.301687 7.2143572 12.017578 7.0429688 L 12.017578 7.0175781 L 12 7.0351562 C 11.959677 7.011121 11.918265 6.9892964 11.876953 6.9667969 L 11.876953 6.8769531 L 11.818359 6.9355469 C 11.791395 6.9214969 11.765637 6.9059666 11.738281 6.8925781 L 11.738281 6.7382812 L 11.638672 6.8378906 C 11.624494 6.8314988 11.61193 6.8226209 11.597656 6.8164062 L 11.597656 6.5976562 L 11.455078 6.7402344 L 11.455078 6.4550781 L 11.3125 6.5976562 L 11.3125 6.3125 L 11.169922 6.4550781 L 11.169922 6.1699219 L 11.027344 6.3125 L 11.027344 6.0273438 L 10.882812 6.171875 L 10.882812 5.8828125 L 10.736328 6.0292969 L 10.736328 5.7363281 L 10.591797 5.8808594 L 10.591797 5.5917969 L 10.445312 5.7382812 L 10.445312 5.4453125 L 10.296875 5.59375 L 10.296875 5.296875 L 10.148438 5.4453125 L 10.148438 5.1484375 z M 7.0761719 8.2128906 C 6.7216264 8.7719816 6.5117188 9.4348018 6.5117188 10.148438 C 6.5117186 11.112861 6.8961745 12.038753 7.578125 12.720703 C 7.6032997 12.745878 7.6343295 12.762753 7.6601562 12.787109 C 7.684422 12.812835 7.7014843 12.844062 7.7265625 12.869141 C 7.7517372 12.894315 7.782767 12.911191 7.8085938 12.935547 C 7.8322881 12.960631 7.8485792 12.991157 7.8730469 13.015625 C 7.8977663 13.040344 7.9277768 13.058101 7.953125 13.082031 C 7.977144 13.107479 7.9947168 13.137295 8.0195312 13.162109 C 8.0442507 13.186829 8.0742612 13.204586 8.0996094 13.228516 C 8.1235395 13.253864 8.1412962 13.283874 8.1660156 13.308594 C 8.1905347 13.333113 8.220956 13.349304 8.2460938 13.373047 C 8.2698363 13.398185 8.2860278 13.428606 8.3105469 13.453125 C 8.3349719 13.47755 8.3655859 13.493924 8.390625 13.517578 C 8.4143675 13.542716 8.4305591 13.573137 8.4550781 13.597656 C 8.4795032 13.622081 8.5101172 13.638455 8.5351562 13.662109 C 8.5588107 13.687148 8.5751843 13.717762 8.5996094 13.742188 C 8.6237681 13.766346 8.6529748 13.783236 8.6777344 13.806641 C 8.7010526 13.831303 8.7181213 13.860699 8.7421875 13.884766 C 8.7663463 13.908924 8.7955529 13.925814 8.8203125 13.949219 C 8.8436307 13.973881 8.8606994 14.003278 8.8847656 14.027344 C 8.908629 14.051207 8.9384409 14.066716 8.9628906 14.089844 C 8.9860186 14.114293 9.0015272 14.144105 9.0253906 14.167969 C 9.0494569 14.192035 9.0788531 14.209104 9.1035156 14.232422 C 9.1263054 14.256494 9.1425125 14.285091 9.1660156 14.308594 C 9.1897875 14.332366 9.2197869 14.348052 9.2441406 14.371094 C 9.2671827 14.395447 9.2828688 14.425447 9.3066406 14.449219 C 9.3301437 14.472722 9.3587405 14.488929 9.3828125 14.511719 C 9.4056022 14.535791 9.4218094 14.564388 9.4453125 14.587891 C 9.4687256 14.611304 9.4975067 14.627685 9.5214844 14.650391 C 9.5441895 14.674368 9.5605713 14.703149 9.5839844 14.726562 C 9.6073974 14.749976 9.6361786 14.766357 9.6601562 14.789062 C 9.6828614 14.81304 9.6992432 14.841821 9.7226562 14.865234 C 9.7455037 14.888082 9.7734898 14.903608 9.796875 14.925781 C 9.8195802 14.949759 9.8359619 14.97854 9.859375 15.001953 C 9.8822225 15.024801 9.9102085 15.040327 9.9335938 15.0625 C 9.9557672 15.085885 9.9712932 15.113871 9.9941406 15.136719 C 10.017195 15.159773 10.044758 15.176851 10.068359 15.199219 C 10.090727 15.222821 10.107805 15.250383 10.130859 15.273438 C 10.153707 15.296285 10.181693 15.311811 10.205078 15.333984 C 10.227169 15.357278 10.242865 15.385443 10.265625 15.408203 C 10.288112 15.43069 10.314882 15.446916 10.337891 15.46875 C 10.359725 15.491758 10.37595 15.518528 10.398438 15.541016 C 10.421197 15.563776 10.449363 15.579471 10.472656 15.601562 C 10.494747 15.624856 10.510443 15.653021 10.533203 15.675781 C 10.55569 15.698268 10.582461 15.714494 10.605469 15.736328 C 10.627222 15.759246 10.643615 15.786193 10.666016 15.808594 C 10.688207 15.830786 10.715582 15.845632 10.738281 15.867188 C 10.759793 15.889838 10.77473 15.917308 10.796875 15.939453 C 10.818982 15.96156 10.84653 15.976571 10.869141 15.998047 C 10.890697 16.020746 10.905543 16.048121 10.927734 16.070312 C 10.949841 16.092419 10.97739 16.10743 11 16.128906 C 11.021476 16.151517 11.036487 16.179065 11.058594 16.201172 C 11.080425 16.223003 11.106583 16.238549 11.128906 16.259766 C 11.150122 16.282088 11.165669 16.308247 11.1875 16.330078 C 11.209248 16.351826 11.235577 16.367535 11.257812 16.388672 C 11.279029 16.410995 11.294575 16.437153 11.316406 16.458984 C 11.338154 16.480732 11.364483 16.496441 11.386719 16.517578 C 11.407856 16.539814 11.423565 16.566143 11.445312 16.587891 C 11.466849 16.609427 11.493611 16.623594 11.515625 16.644531 C 11.536484 16.666459 11.550812 16.69339 11.572266 16.714844 C 11.593397 16.735975 11.619034 16.75093 11.640625 16.771484 C 11.661762 16.79372 11.677471 16.820049 11.699219 16.841797 C 11.720395 16.862973 11.74594 16.87784 11.767578 16.898438 C 11.788175 16.920076 11.803043 16.945621 11.824219 16.966797 C 11.845314 16.987892 11.871024 17.002917 11.892578 17.023438 C 11.913175 17.045076 11.928043 17.070621 11.949219 17.091797 C 11.970313 17.112892 11.996024 17.127917 12.017578 17.148438 C 12.038099 17.169991 12.053124 17.195702 12.074219 17.216797 C 12.094696 17.237274 12.119716 17.251549 12.140625 17.271484 C 12.161222 17.293123 12.17609 17.318668 12.197266 17.339844 C 12.218066 17.360644 12.244378 17.374289 12.265625 17.394531 C 12.285943 17.415861 12.299432 17.44201 12.320312 17.462891 C 12.341113 17.483691 12.367425 17.497336 12.388672 17.517578 C 12.408914 17.538825 12.422559 17.565137 12.443359 17.585938 C 12.46388 17.606458 12.488811 17.620648 12.509766 17.640625 C 12.529668 17.661498 12.544012 17.68659 12.564453 17.707031 C 12.584973 17.727551 12.609905 17.741742 12.630859 17.761719 C 12.650762 17.782591 12.665105 17.807683 12.685547 17.828125 C 12.705772 17.84835 12.731306 17.861162 12.751953 17.880859 C 12.77165 17.901506 12.784463 17.927041 12.804688 17.947266 C 12.825129 17.967707 12.850221 17.982051 12.871094 18.001953 C 12.890449 18.022225 12.903964 18.046542 12.923828 18.066406 C 12.943975 18.086553 12.969668 18.099517 12.990234 18.119141 C 13.009858 18.139707 13.022822 18.1654 13.042969 18.185547 C 13.062833 18.205411 13.08715 18.218926 13.107422 18.238281 C 13.126705 18.258474 13.140368 18.282946 13.160156 18.302734 C 13.179979 18.322557 13.204381 18.336153 13.224609 18.355469 C 13.243892 18.375661 13.257555 18.400133 13.277344 18.419922 C 13.296848 18.439426 13.319947 18.453643 13.339844 18.472656 C 13.358857 18.492553 13.373074 18.515652 13.392578 18.535156 C 13.412008 18.554586 13.435259 18.568948 13.455078 18.587891 C 13.474092 18.607788 13.488308 18.630886 13.507812 18.650391 C 13.527242 18.66982 13.550493 18.684182 13.570312 18.703125 C 13.589326 18.723022 13.603543 18.746121 13.623047 18.765625 C 13.642476 18.785055 13.665728 18.799417 13.685547 18.818359 C 13.704489 18.838179 13.718852 18.86143 13.738281 18.880859 C 13.75749 18.900068 13.781191 18.912908 13.800781 18.931641 C 13.819444 18.951154 13.832427 18.975005 13.851562 18.994141 C 13.870411 19.012989 13.892894 19.026532 13.912109 19.044922 C 13.9305 19.064137 13.944042 19.08662 13.962891 19.105469 C 13.981667 19.124245 14.004297 19.137928 14.023438 19.15625 C 14.041828 19.175465 14.05537 19.197948 14.074219 19.216797 C 14.092995 19.235573 14.115625 19.249257 14.134766 19.267578 C 14.153156 19.286794 14.166698 19.309276 14.185547 19.328125 C 14.204323 19.346901 14.226953 19.360585 14.246094 19.378906 C 14.264415 19.398047 14.278099 19.420677 14.296875 19.439453 C 14.315428 19.458006 14.338513 19.470172 14.357422 19.488281 C 14.375463 19.507116 14.387768 19.530346 14.40625 19.548828 C 14.424443 19.567021 14.446309 19.57989 14.464844 19.597656 C 14.48261 19.616191 14.495479 19.638057 14.513672 19.65625 C 14.532154 19.674732 14.555384 19.687037 14.574219 19.705078 C 14.59226 19.723913 14.604565 19.747143 14.623047 19.765625 C 14.64124 19.783818 14.663106 19.796687 14.681641 19.814453 C 14.69934 19.832916 14.712345 19.854924 14.730469 19.873047 C 14.748366 19.890944 14.770834 19.902437 14.789062 19.919922 C 14.806547 19.93815 14.81804 19.960618 14.835938 19.978516 C 14.853766 19.996345 14.876374 20.007972 14.894531 20.025391 C 14.912016 20.043619 14.923509 20.066087 14.941406 20.083984 C 14.959235 20.101813 14.981843 20.11344 15 20.130859 C 15.017484 20.149088 15.028977 20.171556 15.046875 20.189453 C 15.064704 20.207282 15.087311 20.218909 15.105469 20.236328 C 15.122888 20.254486 15.134515 20.277093 15.152344 20.294922 C 15.169881 20.312459 15.191129 20.324656 15.208984 20.341797 C 15.226061 20.359582 15.238389 20.380967 15.255859 20.398438 C 15.273101 20.415679 15.294951 20.426501 15.3125 20.443359 C 15.329358 20.460909 15.34018 20.482758 15.357422 20.5 C 15.374892 20.51747 15.396277 20.529799 15.414062 20.546875 C 15.431139 20.564661 15.443467 20.586046 15.460938 20.603516 C 15.478179 20.620758 15.500029 20.631579 15.517578 20.648438 C 15.534373 20.665918 15.545324 20.687902 15.5625 20.705078 C 15.579382 20.72196 15.600011 20.733486 15.617188 20.75 C 15.633667 20.767139 15.645263 20.787842 15.662109 20.804688 C 15.678926 20.821504 15.699687 20.833157 15.716797 20.849609 C 15.733311 20.866786 15.744837 20.887415 15.761719 20.904297 C 15.778536 20.921114 15.799297 20.932767 15.816406 20.949219 C 15.832858 20.966328 15.844511 20.987089 15.861328 21.003906 C 15.877849 21.020428 15.897259 21.032659 15.914062 21.048828 C 15.930232 21.065632 15.942463 21.085041 15.958984 21.101562 C 15.975801 21.118379 15.996562 21.130032 16.013672 21.146484 C 16.029558 21.162983 16.040415 21.182993 16.056641 21.199219 C 16.073099 21.215677 16.092637 21.228032 16.109375 21.244141 C 16.125484 21.260879 16.137839 21.280417 16.154297 21.296875 C 16.170523 21.313101 16.190533 21.323957 16.207031 21.339844 C 16.222918 21.356342 16.233774 21.376352 16.25 21.392578 C 16.266164 21.408742 16.2863 21.41972 16.302734 21.435547 C 16.318561 21.451981 16.329539 21.472117 16.345703 21.488281 C 16.361508 21.504086 16.380421 21.515767 16.396484 21.53125 C 16.412025 21.547376 16.423587 21.566166 16.439453 21.582031 C 16.455617 21.598195 16.475753 21.609173 16.492188 21.625 C 16.508014 21.641434 16.518992 21.661571 16.535156 21.677734 C 16.550727 21.693305 16.570116 21.703492 16.585938 21.71875 C 16.601195 21.734571 16.611383 21.753961 16.626953 21.769531 C 16.642758 21.785336 16.661671 21.797017 16.677734 21.8125 C 16.693217 21.828563 16.704898 21.847476 16.720703 21.863281 C 16.736273 21.878852 16.755663 21.889039 16.771484 21.904297 C 16.786685 21.920056 16.796989 21.939568 16.8125 21.955078 C 16.82771 21.970288 16.845879 21.981182 16.861328 21.996094 C 16.87624 22.011543 16.887134 22.029712 16.902344 22.044922 C 16.917496 22.060074 16.935782 22.071082 16.951172 22.085938 C 16.966084 22.101387 16.976977 22.119556 16.992188 22.134766 C 17.007339 22.149917 17.025626 22.160925 17.041016 22.175781 C 17.055927 22.191231 17.066821 22.209399 17.082031 22.224609 C 17.097183 22.239761 17.11547 22.250769 17.130859 22.265625 C 17.145715 22.281014 17.156723 22.299301 17.171875 22.314453 C 17.18679 22.329368 17.205558 22.338888 17.220703 22.353516 C 17.235276 22.368602 17.244908 22.387486 17.259766 22.402344 C 17.27432 22.416898 17.291867 22.427125 17.306641 22.441406 C 17.320922 22.45618 17.331149 22.473727 17.345703 22.488281 C 17.360561 22.503139 17.379445 22.512771 17.394531 22.527344 C 17.409104 22.54243 17.418736 22.561314 17.433594 22.576172 C 17.446476 22.589055 17.461555 22.598659 17.474609 22.611328 C 17.490118 22.627419 17.501746 22.646278 17.517578 22.662109 C 17.53377 22.678301 17.55385 22.689224 17.570312 22.705078 C 17.58267 22.717803 17.590955 22.733533 17.603516 22.746094 C 17.61772 22.760298 17.635977 22.769259 17.650391 22.783203 C 17.664388 22.797673 17.673241 22.815819 17.6875 22.830078 C 17.701704 22.844282 17.719962 22.853243 17.734375 22.867188 C 17.748319 22.881601 17.75728 22.899858 17.771484 22.914062 C 17.785354 22.927932 17.802338 22.937551 17.816406 22.951172 C 17.830056 22.965271 17.839617 22.982195 17.853516 22.996094 C 17.867361 23.009939 17.884393 23.019605 17.898438 23.033203 C 17.912087 23.047302 17.921648 23.064226 17.935547 23.078125 C 17.949392 23.09197 17.966425 23.101636 17.980469 23.115234 C 17.994067 23.129278 18.003733 23.146311 18.017578 23.160156 C 18.031424 23.174002 18.048456 23.183667 18.0625 23.197266 C 18.075517 23.21069 18.084413 23.226991 18.097656 23.240234 C 18.111502 23.25408 18.128534 23.263745 18.142578 23.277344 C 18.155595 23.290769 18.164491 23.307069 18.177734 23.320312 C 18.191285 23.333864 18.208915 23.342154 18.222656 23.355469 C 18.235971 23.36921 18.244261 23.38684 18.257812 23.400391 C 18.271056 23.413634 18.287356 23.42253 18.300781 23.435547 C 18.313749 23.44892 18.322745 23.465323 18.335938 23.478516 C 18.34882 23.491398 18.363898 23.501003 18.376953 23.513672 C 18.389622 23.526727 18.399227 23.541805 18.412109 23.554688 C 18.425302 23.56788 18.441705 23.576876 18.455078 23.589844 C 18.468046 23.603216 18.477042 23.61962 18.490234 23.632812 C 18.503117 23.645695 18.518195 23.6553 18.53125 23.667969 C 18.543871 23.680973 18.553573 23.696151 18.566406 23.708984 C 18.578994 23.721572 18.59467 23.729804 18.607422 23.742188 C 18.619805 23.754939 18.628038 23.770616 18.640625 23.783203 C 18.653458 23.796037 18.668636 23.805738 18.681641 23.818359 C 18.694262 23.831364 18.703963 23.846542 18.716797 23.859375 C 18.729024 23.871602 18.743477 23.880544 18.755859 23.892578 C 18.767894 23.90496 18.776835 23.919414 18.789062 23.931641 C 18.801602 23.94418 18.817376 23.952507 18.830078 23.964844 C 18.842415 23.977546 18.850742 23.99332 18.863281 24.005859 C 18.875508 24.018086 18.889962 24.027028 18.902344 24.039062 C 18.914333 24.051397 18.923367 24.065945 18.935547 24.078125 C 18.947774 24.090352 18.962227 24.099294 18.974609 24.111328 C 18.986599 24.123662 18.995632 24.13821 19.007812 24.150391 C 19.019744 24.162322 19.034796 24.169892 19.046875 24.181641 C 19.058579 24.193673 19.066239 24.208817 19.078125 24.220703 C 19.090057 24.232635 19.105108 24.240205 19.117188 24.251953 C 19.128891 24.263986 19.136552 24.27913 19.148438 24.291016 C 19.160009 24.302587 19.173837 24.310867 19.185547 24.322266 C 19.196946 24.333976 19.205225 24.347804 19.216797 24.359375 C 19.228683 24.371261 19.243827 24.378921 19.255859 24.390625 C 19.267563 24.402657 19.275223 24.417802 19.287109 24.429688 C 19.298385 24.440964 19.312811 24.447872 19.324219 24.458984 C 19.335331 24.470392 19.34224 24.484818 19.353516 24.496094 C 19.365043 24.507621 19.37896 24.515988 19.390625 24.527344 C 19.401981 24.539009 19.410348 24.552926 19.421875 24.564453 C 19.433151 24.575729 19.447576 24.582638 19.458984 24.59375 C 19.470055 24.605114 19.477048 24.619627 19.488281 24.630859 C 19.499197 24.641775 19.512398 24.649394 19.523438 24.660156 C 19.5342 24.671196 19.541819 24.684397 19.552734 24.695312 C 19.563967 24.706545 19.57848 24.713539 19.589844 24.724609 C 19.600914 24.735973 19.607908 24.750486 19.619141 24.761719 C 19.630056 24.772635 19.643257 24.780253 19.654297 24.791016 C 19.665019 24.802012 19.67272 24.815298 19.683594 24.826172 C 19.694214 24.836792 19.708013 24.843041 19.71875 24.853516 C 19.729225 24.864253 19.735473 24.878051 19.746094 24.888672 C 19.756673 24.899251 19.770554 24.90558 19.78125 24.916016 C 19.791725 24.926753 19.797973 24.940551 19.808594 24.951172 C 19.819173 24.961751 19.833054 24.96808 19.84375 24.978516 C 19.854185 24.989211 19.860514 25.003092 19.871094 25.013672 C 19.881354 25.023932 19.893927 25.030891 19.904297 25.041016 C 19.914421 25.051385 19.921381 25.063959 19.931641 25.074219 C 19.941861 25.08444 19.954514 25.091476 19.964844 25.101562 C 19.974968 25.111932 19.981927 25.124506 19.992188 25.134766 C 20.002408 25.144986 20.015061 25.152023 20.025391 25.162109 C 20.035477 25.172439 20.042514 25.185092 20.052734 25.195312 C 20.062634 25.205212 20.073983 25.212883 20.083984 25.222656 C 20.093758 25.232658 20.101428 25.244006 20.111328 25.253906 C 20.12119 25.263768 20.132615 25.271513 20.142578 25.28125 C 20.152315 25.291213 20.16006 25.302638 20.169922 25.3125 C 20.179506 25.322084 20.191492 25.328425 20.201172 25.337891 C 20.210658 25.347591 20.216958 25.359536 20.226562 25.369141 C 20.234824 25.377402 20.245574 25.382452 20.253906 25.390625 C 20.264996 25.402009 20.271951 25.416482 20.283203 25.427734 C 20.294096 25.438627 20.307344 25.446292 20.318359 25.457031 C 20.326211 25.46503 20.331911 25.474489 20.339844 25.482422 C 20.349411 25.49199 20.361431 25.498363 20.371094 25.507812 C 20.380543 25.517475 20.386917 25.529495 20.396484 25.539062 C 20.405433 25.548011 20.416749 25.553654 20.425781 25.5625 C 20.434627 25.571532 20.44027 25.582848 20.449219 25.591797 C 20.458786 25.601364 20.470806 25.607738 20.480469 25.617188 C 20.489296 25.6262 20.494976 25.637554 20.503906 25.646484 C 20.512821 25.655399 20.524206 25.66111 20.533203 25.669922 C 20.542049 25.678954 20.547692 25.69027 20.556641 25.699219 C 20.565555 25.708133 20.57694 25.713844 20.585938 25.722656 C 20.594765 25.731669 20.600445 25.743023 20.609375 25.751953 C 20.617931 25.760509 20.628087 25.766929 20.636719 25.775391 C 20.645212 25.784056 20.651568 25.794146 20.660156 25.802734 C 20.667406 25.809984 20.67629 25.815084 20.683594 25.822266 C 20.693697 25.832613 20.700699 25.84523 20.710938 25.855469 C 20.721176 25.865707 20.733793 25.872709 20.744141 25.882812 C 20.750706 25.88948 20.755097 25.897675 20.761719 25.904297 C 20.76998 25.912558 20.78073 25.917608 20.789062 25.925781 C 20.797267 25.934146 20.802254 25.944832 20.810547 25.953125 C 20.818808 25.961386 20.829558 25.966436 20.837891 25.974609 C 20.846095 25.982974 20.851082 25.99366 20.859375 26.001953 C 20.867636 26.010214 20.878387 26.015264 20.886719 26.023438 C 20.894892 26.03177 20.899942 26.04252 20.908203 26.050781 C 20.916136 26.058714 20.925595 26.064414 20.933594 26.072266 C 20.941416 26.080233 20.947176 26.089754 20.955078 26.097656 C 20.962981 26.105559 20.972501 26.111319 20.980469 26.119141 C 20.988291 26.127108 20.994051 26.136629 21.001953 26.144531 C 21.009591 26.152169 21.019646 26.1565 21.027344 26.164062 C 21.034906 26.171761 21.039238 26.181816 21.046875 26.189453 C 21.054483 26.197061 21.064597 26.201451 21.072266 26.208984 C 21.079828 26.216682 21.084159 26.226738 21.091797 26.234375 C 21.099405 26.241983 21.109519 26.246373 21.117188 26.253906 C 21.124721 26.261575 21.129111 26.271689 21.136719 26.279297 C 21.143996 26.286574 21.152824 26.291619 21.160156 26.298828 C 21.16735 26.306145 21.172426 26.315004 21.179688 26.322266 C 21.186937 26.329515 21.195821 26.334615 21.203125 26.341797 C 21.210307 26.349101 21.215407 26.357985 21.222656 26.365234 C 21.229638 26.372216 21.239061 26.375893 21.246094 26.382812 C 21.253013 26.389845 21.25669 26.399268 21.263672 26.40625 C 21.270627 26.413205 21.280104 26.416935 21.287109 26.423828 C 21.294028 26.430861 21.297706 26.440284 21.304688 26.447266 C 21.311642 26.454221 21.32112 26.457951 21.328125 26.464844 C 21.335044 26.471876 21.338721 26.481299 21.345703 26.488281 C 21.352658 26.495236 21.362135 26.498967 21.369141 26.505859 C 21.376033 26.512865 21.379764 26.522342 21.386719 26.529297 C 21.39298 26.535558 21.399948 26.540664 21.40625 26.546875 C 21.412461 26.553177 21.417567 26.560145 21.423828 26.566406 C 21.430424 26.573002 21.438671 26.577444 21.445312 26.583984 C 21.451878 26.590652 21.456269 26.598847 21.462891 26.605469 C 21.469128 26.611706 21.476144 26.61686 21.482422 26.623047 C 21.488633 26.629349 21.493739 26.636317 21.5 26.642578 C 21.506237 26.648815 21.513253 26.653969 21.519531 26.660156 C 21.525742 26.666458 21.530848 26.673426 21.537109 26.679688 C 21.543347 26.685925 21.550363 26.691078 21.556641 26.697266 C 21.562828 26.703543 21.567981 26.71056 21.574219 26.716797 C 21.580185 26.722763 21.587747 26.726502 21.59375 26.732422 C 21.599648 26.738402 21.603432 26.74601 21.609375 26.751953 C 21.614981 26.757559 21.621315 26.762013 21.626953 26.767578 C 21.632518 26.773216 21.636973 26.779551 21.642578 26.785156 C 21.648521 26.791099 21.65613 26.794884 21.662109 26.800781 C 21.668007 26.806761 21.671791 26.81437 21.677734 26.820312 C 21.683045 26.825623 21.689973 26.82871 21.695312 26.833984 C 21.700586 26.839324 21.703674 26.846252 21.708984 26.851562 C 21.714569 26.857147 21.720946 26.861643 21.726562 26.867188 C 21.732107 26.872804 21.736603 26.879181 21.742188 26.884766 C 21.747477 26.890055 21.754447 26.893184 21.759766 26.898438 C 21.76504 26.903777 21.768127 26.910705 21.773438 26.916016 C 21.778727 26.921305 21.785697 26.924434 21.791016 26.929688 C 21.796269 26.935006 21.799398 26.941976 21.804688 26.947266 C 21.809627 26.952205 21.815348 26.95603 21.820312 26.960938 C 21.825231 26.965913 21.829034 26.971613 21.833984 26.976562 C 21.838915 26.981493 21.844653 26.985335 21.849609 26.990234 C 21.854528 26.99521 21.858331 27.000909 21.863281 27.005859 C 21.868212 27.01079 21.87395 27.014632 21.878906 27.019531 C 21.883806 27.024488 21.887647 27.030225 21.892578 27.035156 C 21.897215 27.039793 21.903544 27.042266 21.908203 27.046875 C 21.91283 27.051552 21.915267 27.057845 21.919922 27.0625 C 21.924558 27.067137 21.930888 27.06961 21.935547 27.074219 C 21.940174 27.078896 21.942611 27.085189 21.947266 27.089844 C 21.951902 27.09448 21.958232 27.096954 21.962891 27.101562 C 21.9675 27.106222 21.969973 27.112551 21.974609 27.117188 C 21.978904 27.121482 21.983968 27.124636 21.988281 27.128906 C 21.992536 27.133203 21.995722 27.1383 22 27.142578 C 22.003999 27.146577 22.009656 27.148365 22.013672 27.152344 C 22.01765 27.156359 22.019439 27.162017 22.023438 27.166016 C 22.027715 27.170293 22.032812 27.17348 22.037109 27.177734 C 22.041364 27.182031 22.04455 27.187128 22.048828 27.191406 C 22.052827 27.195405 22.058484 27.197194 22.0625 27.201172 C 22.066463 27.205172 22.068282 27.21086 22.072266 27.214844 C 22.075904 27.218482 22.080332 27.220988 22.083984 27.224609 C 22.087606 27.228262 22.090111 27.23269 22.09375 27.236328 C 22.097733 27.240312 22.103422 27.242131 22.107422 27.246094 C 22.111385 27.250094 22.113204 27.255782 22.117188 27.259766 C 22.120466 27.263044 22.123664 27.266267 22.126953 27.269531 C 22.130218 27.272821 22.13344 27.276019 22.136719 27.279297 C 22.140343 27.282922 22.144799 27.285455 22.148438 27.289062 C 22.152045 27.292701 22.154578 27.297157 22.158203 27.300781 C 22.161186 27.303764 22.164977 27.305622 22.167969 27.308594 C 22.171577 27.312232 22.17411 27.316688 22.177734 27.320312 C 22.181 27.323578 22.184223 27.326826 22.1875 27.330078 C 22.190752 27.333355 22.194 27.336578 22.197266 27.339844 C 22.200249 27.342827 22.204039 27.344685 22.207031 27.347656 C 22.209991 27.350637 22.211872 27.35445 22.214844 27.357422 C 22.217815 27.360393 22.221629 27.362274 22.224609 27.365234 C 22.22757 27.368215 22.22945 27.372029 22.232422 27.375 C 22.233733 27.376311 22.235015 27.377597 22.236328 27.378906 C 22.24059 27.38321 22.243762 27.388293 22.248047 27.392578 C 22.252332 27.396863 22.257415 27.400035 22.261719 27.404297 C 22.263023 27.405605 22.264319 27.406897 22.265625 27.408203 C 22.267952 27.41053 22.271105 27.411742 22.273438 27.414062 C 22.275758 27.416395 22.27697 27.419548 22.279297 27.421875 C 22.28191 27.424488 22.28449 27.427084 22.287109 27.429688 C 22.289713 27.432307 22.292309 27.434887 22.294922 27.4375 C 22.297249 27.439827 22.300401 27.441039 22.302734 27.443359 C 22.305046 27.445683 22.306275 27.448854 22.308594 27.451172 C 22.310921 27.453499 22.314073 27.454711 22.316406 27.457031 C 22.318718 27.459355 22.319947 27.462525 22.322266 27.464844 C 22.324233 27.466811 22.326154 27.468741 22.328125 27.470703 C 22.33008 27.472667 22.332025 27.474603 22.333984 27.476562 C 22.335951 27.478529 22.337873 27.48046 22.339844 27.482422 C 22.341798 27.484385 22.343744 27.486322 22.345703 27.488281 C 22.347375 27.489953 22.349888 27.490519 22.351562 27.492188 C 22.353231 27.493862 22.353797 27.496375 22.355469 27.498047 C 22.357134 27.499712 22.35966 27.500292 22.361328 27.501953 C 22.362996 27.503628 22.363563 27.506141 22.365234 27.507812 C 22.366263 27.508833 22.370064 27.5107 22.371094 27.511719 C 22.372762 27.513393 22.373328 27.515907 22.375 27.517578 C 22.377965 27.520564 22.379836 27.524367 22.382812 27.527344 C 22.386443 27.530974 22.390887 27.533496 22.394531 27.537109 C 22.39584 27.538422 22.397126 27.539704 22.398438 27.541016 C 22.39945 27.542028 22.40133 27.541958 22.402344 27.542969 C 22.403358 27.543986 22.403281 27.545859 22.404297 27.546875 C 22.405309 27.547887 22.40719 27.547817 22.408203 27.548828 C 22.409218 27.549845 22.40914 27.551718 22.410156 27.552734 C 22.411168 27.553747 22.413049 27.553677 22.414062 27.554688 C 22.414062 27.554688 22.414062 27.556641 22.414062 27.556641 C 22.414062 27.556641 22.416016 27.558594 22.416016 27.558594 C 22.416016 27.558594 22.417969 27.560547 22.417969 27.560547 C 22.417969 27.560547 22.419922 27.5625 22.419922 27.5625 C 22.420216 27.562796 22.421581 27.562204 22.421875 27.5625 C 22.421875 27.5625 22.421875 27.564453 22.421875 27.564453 C 22.421875 27.564453 22.423828 27.566406 22.423828 27.566406 C 22.423828 27.566406 22.425781 27.568359 22.425781 27.568359 C 22.426076 27.568655 22.427439 27.568064 22.427734 27.568359 C 22.427734 27.568359 22.427734 27.570312 22.427734 27.570312 C 22.595599 27.738177 22.778382 27.885231 22.972656 28.015625 C 22.97417 28.016637 22.975048 28.018521 22.976562 28.019531 C 22.976562 28.019531 22.978516 28.021484 22.978516 28.021484 C 22.978516 28.021484 22.980469 28.023438 22.980469 28.023438 C 22.981226 28.023943 22.981665 28.024886 22.982422 28.025391 C 23.011849 28.044982 23.046224 28.055517 23.076172 28.074219 C 23.093297 28.084929 23.111616 28.093099 23.128906 28.103516 L 23.128906 28.128906 L 23.144531 28.113281 C 23.156322 28.120303 23.169776 28.123974 23.181641 28.130859 C 23.181907 28.131014 23.181374 28.132658 23.181641 28.132812 L 23.181641 28.181641 L 23.214844 28.148438 C 23.220693 28.151751 23.226555 28.154922 23.232422 28.158203 L 23.232422 28.232422 L 23.28125 28.183594 C 23.282027 28.184013 23.282425 28.185128 23.283203 28.185547 L 23.283203 28.283203 L 23.333984 28.232422 L 23.333984 28.333984 L 23.382812 28.285156 L 23.382812 28.382812 L 23.431641 28.333984 L 23.431641 28.431641 L 23.478516 28.384766 L 23.478516 28.478516 L 23.527344 28.429688 L 23.527344 28.527344 L 23.572266 28.482422 L 23.572266 28.572266 L 23.619141 28.525391 L 23.619141 28.619141 L 23.664062 28.574219 L 23.664062 28.664062 L 23.707031 28.621094 L 23.707031 28.707031 L 23.751953 28.662109 L 23.751953 28.751953 L 23.792969 28.710938 L 23.792969 28.792969 L 23.835938 28.75 L 23.835938 28.835938 L 23.876953 28.794922 L 23.876953 28.876953 L 23.917969 28.835938 L 23.917969 28.917969 L 23.957031 28.878906 L 23.957031 28.957031 L 23.996094 28.917969 L 23.996094 28.996094 L 24.035156 28.957031 L 24.035156 29.035156 L 24.072266 28.998047 L 24.072266 29.072266 L 24.109375 29.035156 L 24.109375 29.109375 L 24.144531 29.074219 L 24.144531 29.144531 L 24.179688 29.109375 L 24.179688 29.179688 L 24.214844 29.144531 L 24.214844 29.214844 L 24.248047 29.181641 L 24.248047 29.248047 L 24.28125 29.214844 L 24.28125 29.28125 L 24.314453 29.248047 L 24.314453 29.314453 L 24.345703 29.283203 L 24.345703 29.345703 L 24.375 29.316406 L 24.375 29.375 L 24.40625 29.34375 L 24.40625 29.40625 L 24.435547 29.376953 L 24.435547 29.435547 L 24.462891 29.408203 L 24.462891 29.464844 L 24.492188 29.435547 L 24.492188 29.492188 L 24.519531 29.464844 L 24.519531 29.519531 L 24.544922 29.494141 L 24.544922 29.544922 L 24.570312 29.519531 L 24.570312 29.570312 L 24.595703 29.544922 L 24.595703 29.595703 L 24.619141 29.572266 L 24.619141 29.619141 L 24.642578 29.595703 L 24.642578 29.642578 L 24.666016 29.619141 L 24.666016 29.666016 L 24.6875 29.644531 L 24.6875 29.6875 L 24.708984 29.666016 L 24.708984 29.708984 L 24.728516 29.689453 L 24.728516 29.728516 L 24.748047 29.708984 L 24.748047 29.748047 L 24.767578 29.728516 L 24.767578 29.767578 L 24.785156 29.75 L 24.785156 29.787109 L 24.802734 29.769531 L 24.802734 29.802734 L 24.820312 29.785156 L 24.820312 29.820312 L 24.835938 29.804688 L 24.835938 29.835938 L 24.851562 29.820312 L 24.851562 29.851562 L 24.865234 29.837891 L 24.865234 29.865234 L 24.878906 29.851562 L 24.878906 29.878906 L 24.892578 29.865234 L 24.892578 29.892578 L 24.904297 29.880859 L 24.904297 29.904297 L 24.916016 29.892578 L 24.916016 29.916016 L 24.927734 29.904297 L 24.927734 29.927734 L 24.9375 29.917969 L 24.9375 29.9375 L 24.947266 29.927734 L 24.947266 29.947266 L 24.955078 29.939453 L 24.955078 29.955078 L 24.962891 29.947266 L 24.962891 29.962891 L 24.970703 29.955078 L 24.970703 29.970703 L 24.976562 29.964844 L 24.976562 29.976562 L 24.982422 29.970703 L 24.982422 29.982422 L 24.986328 29.978516 L 24.986328 29.986328 L 24.990234 29.982422 L 24.990234 29.990234 L 24.994141 29.986328 L 24.994141 29.994141 L 24.996094 29.992188 L 24.996094 29.996094 L 24.998047 29.994141 L 24.998047 29.998047 L 25 29.996094 L 25 30 L 26.818359 28.181641 L 26.816406 28.179688 L 26.814453 28.177734 L 26.8125 28.175781 L 26.808594 28.171875 L 26.804688 28.167969 L 26.800781 28.164062 L 26.794922 28.158203 L 26.789062 28.152344 L 26.78125 28.144531 L 26.773438 28.136719 L 26.765625 28.128906 L 26.755859 28.119141 L 26.746094 28.109375 L 26.734375 28.097656 L 26.722656 28.085938 L 26.710938 28.074219 L 26.697266 28.0625 L 26.683594 28.046875 L 26.669922 28.033203 L 26.654297 28.017578 L 26.638672 28.001953 L 26.621094 27.986328 L 26.603516 27.96875 L 26.585938 27.951172 L 26.585938 27.949219 L 26.583984 27.949219 L 26.566406 27.931641 L 26.546875 27.912109 L 26.53125 27.894531 L 26.529297 27.892578 L 26.527344 27.890625 L 26.505859 27.869141 L 26.484375 27.847656 L 26.460938 27.824219 L 26.4375 27.800781 L 26.414062 27.777344 L 26.388672 27.751953 L 26.363281 27.726562 L 26.337891 27.701172 L 26.310547 27.673828 L 26.308594 27.671875 L 26.306641 27.669922 L 26.28125 27.646484 L 26.257812 27.623047 L 26.255859 27.621094 L 26.255859 27.619141 L 26.253906 27.617188 L 26.193359 27.558594 L 26.181641 27.546875 L 26.177734 27.541016 L 26.171875 27.535156 L 26.167969 27.53125 L 26.164062 27.527344 L 26.162109 27.525391 L 26.160156 27.525391 L 26.158203 27.523438 L 26.130859 27.496094 L 26.121094 27.486328 L 26.117188 27.480469 L 26.111328 27.474609 L 26.105469 27.46875 L 26.099609 27.462891 L 26.066406 27.429688 L 26.033203 27.396484 L 25.998047 27.361328 L 25.962891 27.326172 L 25.960938 27.324219 L 25.958984 27.324219 L 25.957031 27.322266 L 25.925781 27.291016 L 25.921875 27.287109 L 25.90625 27.271484 L 25.902344 27.267578 L 25.900391 27.265625 L 25.900391 27.263672 L 25.890625 27.253906 L 25.880859 27.244141 L 25.878906 27.244141 L 25.876953 27.242188 L 25.851562 27.216797 L 25.849609 27.214844 L 25.84375 27.208984 L 25.830078 27.195312 L 25.826172 27.191406 L 25.824219 27.189453 L 25.824219 27.1875 L 25.814453 27.177734 L 25.775391 27.138672 L 25.736328 27.099609 L 25.695312 27.058594 L 25.654297 27.017578 L 25.611328 26.974609 L 25.580078 26.943359 L 25.578125 26.943359 L 25.576172 26.941406 L 25.574219 26.939453 L 25.568359 26.933594 L 25.566406 26.931641 L 25.564453 26.929688 L 25.5625 26.927734 L 25.5625 26.925781 L 25.527344 26.890625 L 25.525391 26.888672 L 25.482422 26.845703 L 25.4375 26.800781 L 25.390625 26.753906 L 25.388672 26.751953 L 25.386719 26.751953 L 25.384766 26.75 L 25.34375 26.708984 L 25.337891 26.703125 L 25.328125 26.693359 L 25.320312 26.685547 L 25.3125 26.677734 L 25.308594 26.673828 L 25.306641 26.671875 L 25.304688 26.667969 L 25.296875 26.660156 L 25.25 26.613281 L 25.201172 26.564453 L 25.152344 26.515625 L 25.101562 26.464844 L 25.050781 26.414062 L 25.009766 26.373047 L 25.007812 26.373047 L 25.005859 26.371094 L 25 26.365234 L 24.998047 26.363281 L 24.996094 26.361328 L 24.996094 26.359375 L 24.994141 26.359375 L 24.994141 26.357422 L 24.990234 26.355469 L 24.990234 26.353516 L 24.986328 26.349609 L 24.982422 26.345703 L 24.978516 26.34375 L 24.976562 26.341797 L 24.976562 26.339844 L 24.974609 26.339844 L 24.972656 26.337891 L 24.972656 26.335938 L 24.970703 26.333984 L 24.964844 26.328125 L 24.962891 26.326172 L 24.957031 26.320312 L 24.955078 26.318359 L 24.947266 26.310547 L 24.916016 26.279297 L 24.914062 26.277344 L 24.912109 26.277344 L 24.910156 26.275391 L 24.904297 26.269531 L 24.892578 26.257812 L 24.892578 26.255859 L 24.888672 26.253906 L 24.878906 26.244141 L 24.875 26.240234 L 24.873047 26.238281 L 24.873047 26.236328 L 24.869141 26.232422 L 24.851562 26.214844 L 24.839844 26.203125 L 24.820312 26.183594 L 24.785156 26.148438 L 24.730469 26.09375 L 24.728516 26.09375 L 24.673828 26.037109 L 24.617188 25.980469 L 24.595703 25.958984 L 24.59375 25.957031 L 24.591797 25.957031 L 24.589844 25.955078 L 24.570312 25.933594 L 24.568359 25.933594 L 24.546875 25.912109 L 24.544922 25.910156 L 24.544922 25.908203 L 24.535156 25.900391 L 24.519531 25.882812 L 24.515625 25.880859 L 24.511719 25.876953 L 24.511719 25.875 L 24.509766 25.873047 L 24.501953 25.865234 L 24.441406 25.804688 L 24.382812 25.746094 L 24.322266 25.685547 L 24.287109 25.650391 L 24.285156 25.650391 L 24.283203 25.648438 L 24.28125 25.646484 L 24.28125 25.644531 L 24.279297 25.644531 L 24.259766 25.625 L 24.248047 25.611328 L 24.240234 25.605469 L 24.234375 25.599609 L 24.232422 25.595703 L 24.230469 25.59375 L 24.226562 25.589844 L 24.207031 25.570312 L 24.199219 25.5625 L 24.197266 25.560547 L 24.195312 25.560547 L 24.193359 25.558594 L 24.179688 25.542969 L 24.144531 25.507812 L 24.134766 25.5 L 24.130859 25.496094 L 24.126953 25.492188 L 24.126953 25.490234 L 24.125 25.488281 L 24.113281 25.476562 L 24.083984 25.447266 L 24.072266 25.435547 L 24.007812 25.371094 L 23.943359 25.306641 L 23.876953 25.240234 L 23.810547 25.173828 L 23.744141 25.107422 L 23.675781 25.039062 L 23.607422 24.970703 L 23.537109 24.900391 L 23.466797 24.830078 L 23.396484 24.759766 L 23.324219 24.6875 L 23.251953 24.615234 L 23.179688 24.542969 L 23.105469 24.46875 L 23.03125 24.394531 L 22.955078 24.318359 L 22.878906 24.242188 L 22.802734 24.166016 L 22.724609 24.087891 L 22.646484 24.009766 L 22.568359 23.931641 L 22.527344 23.890625 C 22.551538 23.837628 22.562296 23.777373 22.589844 23.726562 L 22.587891 23.724609 L 22.583984 23.720703 L 22.582031 23.71875 L 22.578125 23.714844 L 22.572266 23.708984 L 22.566406 23.703125 L 22.560547 23.697266 L 22.554688 23.691406 L 22.554688 23.689453 L 22.546875 23.681641 L 22.537109 23.673828 L 22.527344 23.664062 L 22.517578 23.654297 L 22.507812 23.644531 L 22.496094 23.632812 L 22.484375 23.621094 L 22.482422 23.619141 L 22.470703 23.607422 L 22.457031 23.59375 L 22.441406 23.578125 L 22.427734 23.564453 L 22.412109 23.548828 L 22.412109 23.546875 L 22.410156 23.544922 L 22.396484 23.53125 L 22.394531 23.53125 L 22.376953 23.513672 L 22.359375 23.496094 L 22.339844 23.476562 L 22.320312 23.457031 L 22.300781 23.4375 L 22.300781 23.435547 L 22.279297 23.414062 L 22.261719 23.396484 L 22.259766 23.394531 L 22.257812 23.394531 L 22.255859 23.392578 L 22.234375 23.371094 L 22.210938 23.347656 L 22.1875 23.324219 L 22.1875 23.322266 L 22.185547 23.322266 L 22.183594 23.320312 L 22.162109 23.298828 L 22.136719 23.273438 L 22.109375 23.246094 L 22.082031 23.21875 L 22.054688 23.191406 L 22.025391 23.162109 L 21.996094 23.132812 L 21.966797 23.103516 L 21.935547 23.072266 L 21.927734 23.064453 L 21.923828 23.060547 L 21.921875 23.058594 L 21.904297 23.041016 L 21.904297 23.039062 L 21.873047 23.009766 L 21.873047 23.007812 L 21.839844 22.974609 L 21.837891 22.972656 L 21.806641 22.941406 L 21.804688 22.941406 L 21.771484 22.908203 L 21.771484 22.90625 L 21.736328 22.871094 L 21.734375 22.869141 L 21.730469 22.865234 L 21.716797 22.851562 L 21.714844 22.849609 L 21.712891 22.849609 L 21.699219 22.835938 L 21.662109 22.798828 L 21.625 22.761719 L 21.59375 22.728516 L 21.587891 22.724609 L 21.587891 22.722656 L 21.548828 22.683594 L 21.546875 22.681641 L 21.544922 22.679688 L 21.542969 22.679688 L 21.507812 22.644531 L 21.466797 22.603516 L 21.425781 22.5625 L 21.419922 22.554688 L 21.384766 22.521484 L 21.363281 22.498047 L 21.341797 22.478516 L 21.333984 22.46875 L 21.298828 22.435547 L 21.253906 22.390625 L 21.208984 22.345703 L 21.164062 22.300781 L 21.142578 22.277344 L 21.117188 22.253906 L 21.070312 22.207031 L 21.021484 22.158203 L 21 22.134766 L 20.972656 22.109375 L 20.923828 22.060547 L 20.875 22.011719 L 20.875 22.009766 L 20.835938 21.970703 L 20.822266 21.958984 L 20.771484 21.908203 L 20.763672 21.898438 L 20.71875 21.855469 L 20.666016 21.802734 L 20.613281 21.748047 L 20.558594 21.693359 L 20.544922 21.679688 L 20.501953 21.638672 L 20.5 21.636719 L 20.447266 21.583984 L 20.447266 21.582031 L 20.445312 21.580078 L 20.443359 21.580078 L 20.388672 21.525391 L 20.359375 21.494141 L 20.332031 21.46875 L 20.273438 21.410156 L 20.214844 21.351562 L 20.154297 21.291016 L 20.09375 21.230469 L 20.033203 21.169922 L 19.970703 21.107422 L 19.908203 21.044922 L 19.845703 20.982422 L 19.845703 20.980469 L 19.826172 20.962891 L 19.78125 20.917969 L 19.714844 20.851562 L 19.650391 20.787109 L 19.583984 20.720703 L 19.515625 20.652344 L 19.492188 20.626953 L 19.449219 20.585938 L 19.449219 20.583984 L 19.431641 20.566406 L 19.429688 20.566406 L 19.378906 20.515625 L 19.310547 20.447266 L 19.240234 20.376953 L 19.169922 20.306641 L 19.169922 20.304688 L 19.150391 20.285156 L 19.148438 20.283203 L 19.138672 20.275391 L 19.125 20.261719 L 19.097656 20.234375 L 19.052734 20.1875 L 19.025391 20.162109 L 18.951172 20.087891 L 18.878906 20.015625 L 18.878906 20.013672 L 18.873047 20.007812 L 18.871094 20.007812 L 18.853516 19.988281 L 18.802734 19.939453 L 18.728516 19.865234 L 18.716797 19.851562 L 18.652344 19.789062 L 18.574219 19.710938 L 18.498047 19.634766 L 18.419922 19.556641 L 18.419922 19.554688 L 18.339844 19.476562 L 18.289062 19.423828 L 18.259766 19.396484 L 18.179688 19.316406 L 18.140625 19.275391 L 18.097656 19.234375 L 18.015625 19.152344 L 17.933594 19.070312 L 17.849609 18.986328 L 17.765625 18.902344 L 17.681641 18.816406 L 17.595703 18.730469 L 17.507812 18.644531 L 17.435547 18.570312 L 17.421875 18.556641 L 17.333984 18.46875 L 17.269531 18.40625 L 17.244141 18.380859 L 17.154297 18.291016 L 17.064453 18.201172 L 16.974609 18.111328 L 16.974609 18.109375 L 16.882812 18.017578 L 16.796875 17.933594 L 16.789062 17.925781 L 16.697266 17.833984 L 16.697266 17.832031 L 16.603516 17.738281 L 16.507812 17.644531 L 16.492188 17.626953 L 16.412109 17.548828 L 16.316406 17.453125 L 16.21875 17.355469 L 16.126953 17.261719 L 16.121094 17.257812 L 16.023438 17.160156 L 15.923828 17.060547 L 15.824219 16.960938 L 15.724609 16.859375 L 15.623047 16.757812 L 15.617188 16.751953 L 15.556641 16.691406 L 15.519531 16.65625 L 15.458984 16.59375 L 15.417969 16.554688 L 15.314453 16.451172 L 15.208984 16.345703 L 15.103516 16.240234 L 14.998047 16.134766 L 14.892578 16.029297 L 14.857422 15.992188 L 14.785156 15.921875 L 14.675781 15.8125 L 14.568359 15.705078 L 14.458984 15.595703 L 14.347656 15.484375 L 14.335938 15.470703 L 14.236328 15.373047 L 14.125 15.261719 L 14.013672 15.150391 L 14.013672 15.148438 L 13.900391 15.035156 L 13.785156 14.921875 L 13.671875 14.808594 L 13.671875 14.806641 L 13.574219 14.708984 L 13.554688 14.691406 L 13.439453 14.576172 L 13.322266 14.458984 L 13.205078 14.341797 L 13.085938 14.222656 L 12.966797 14.103516 L 12.892578 14.027344 L 12.847656 13.984375 L 12.726562 13.863281 L 12.605469 13.742188 L 12.482422 13.619141 L 12.359375 13.496094 L 12.236328 13.373047 L 12.111328 13.248047 L 11.986328 13.123047 L 11.861328 12.998047 L 11.734375 12.871094 L 11.697266 12.832031 L 11.607422 12.744141 L 11.478516 12.615234 L 11.449219 12.583984 L 11.349609 12.486328 L 11.220703 12.357422 L 11.089844 12.226562 L 10.958984 12.095703 L 10.828125 11.962891 L 10.695312 11.832031 L 10.560547 11.697266 L 10.427734 11.564453 L 10.425781 11.5625 L 10.292969 11.429688 L 10.15625 11.292969 L 10.021484 11.158203 L 9.8847656 11.019531 L 9.7460938 10.882812 L 9.6074219 10.744141 L 9.46875 10.605469 L 9.328125 10.464844 L 9.1875 10.324219 L 9.046875 10.183594 L 8.9042969 10.041016 L 8.7617188 9.8984375 L 8.6171875 9.7539062 L 8.4726562 9.609375 L 8.328125 9.4648438 L 8.1816406 9.3183594 L 8.0351562 9.171875 L 7.8886719 9.0234375 L 7.7402344 8.8769531 L 7.0761719 8.2128906 z "
       id="path5323"
       clip-path="url(#clipPath6175)" />
    <path
       id="path5276"
       d="M 9.9999781,12.727278 A 2.7272728,2.7272728 0 0 1 7.2727052,10.000005 c 0,-0.4545453 0.1136364,-0.8954553 0.3181818,-1.2727273 L 6.9272507,8.0636407 C 6.5727052,8.6227317 6.3636143,9.2863687 6.3636143,10.000005 a 3.6363637,3.6363637 0 0 0 3.6363638,3.636364 l 0,1.363636 1.8181819,-1.818182 -1.8181819,-1.818182 m 0,-5 0,-1.3636363 -1.818182,1.8181818 1.818182,1.8181822 0,-1.3636368 A 2.7272728,2.7272728 0 0 1 12.72725,10.000005 c 0,0.454545 -0.113636,0.895455 -0.318181,1.272727 l 0.663636,0.663637 c 0.354545,-0.559091 0.563636,-1.222728 0.563636,-1.936364 A 3.6363637,3.6363637 0 0 0 9.9999781,6.363641 Z"
       inkscape:connector-curvature="0"
       style="fill:#ffffff" />
  </g>
</svg>
