<?xml version="1.0" encoding="UTF-8" standalone="no"?>
<!-- Created with Inkscape (http://www.inkscape.org/) -->

<svg
   xmlns:dc="http://purl.org/dc/elements/1.1/"
   xmlns:cc="http://creativecommons.org/ns#"
   xmlns:rdf="http://www.w3.org/1999/02/22-rdf-syntax-ns#"
   xmlns:svg="http://www.w3.org/2000/svg"
   xmlns="http://www.w3.org/2000/svg"
   xmlns:xlink="http://www.w3.org/1999/xlink"
   xmlns:sodipodi="http://sodipodi.sourceforge.net/DTD/sodipodi-0.dtd"
   xmlns:inkscape="http://www.inkscape.org/namespaces/inkscape"
   width="5.6444445mm"
   height="5.6444445mm"
   viewBox="0 0 20 20"
   id="svg2"
   version="1.1"
   inkscape:version="0.91 r13725"
   sodipodi:docname="OPR.svg"
   inkscape:export-filename="/home/juergen/Schreibtisch/Icons/Email.svg.png"
   inkscape:export-xdpi="648"
   inkscape:export-ydpi="648">
  <sodipodi:namedview
     id="base"
     pagecolor="#ffffff"
     bordercolor="#666666"
     borderopacity="1.0"
     inkscape:pageopacity="0.0"
     inkscape:pageshadow="2"
     inkscape:zoom="11.2"
     inkscape:cx="8.0990244"
     inkscape:cy="7.6186279"
     inkscape:document-units="px"
     inkscape:current-layer="layer2"
     showgrid="false"
     fit-margin-top="0"
     fit-margin-left="0"
     fit-margin-right="0"
     fit-margin-bottom="0"
     showguides="true"
     inkscape:guide-bbox="true"
     inkscape:window-width="1366"
     inkscape:window-height="726"
     inkscape:window-x="0"
     inkscape:window-y="0"
     inkscape:window-maximized="1"
     inkscape:snap-grids="true"
     inkscape:snap-to-guides="true">
    <inkscape:grid
       type="xygrid"
       id="grid4138" />
    <sodipodi:guide
       position="10,18"
       orientation="0,1"
       id="guide4140" />
    <sodipodi:guide
       position="10,2"
       orientation="0,1"
       id="guide4142" />
    <sodipodi:guide
       position="2,10"
       orientation="1,0"
       id="guide4144" />
    <sodipodi:guide
       position="0,0"
       orientation="0,20"
       id="guide4146" />
    <sodipodi:guide
       position="20,0"
       orientation="-20,0"
       id="guide4148" />
    <sodipodi:guide
       position="20,20"
       orientation="0,-20"
       id="guide4150" />
    <sodipodi:guide
       position="0,20"
       orientation="20,0"
       id="guide4152" />
    <sodipodi:guide
       position="18,10"
       orientation="1,0"
       id="guide4154" />
    <sodipodi:guide
       position="10,10"
       orientation="-0.70710678,0.70710678"
       id="guide4156" />
    <sodipodi:guide
       position="4,10"
       orientation="1,0"
       id="guide4160" />
    <sodipodi:guide
       position="16,10"
       orientation="1,0"
       id="guide4162" />
    <sodipodi:guide
       position="10,16"
       orientation="0,1"
       id="guide4164" />
    <sodipodi:guide
       position="10,4"
       orientation="0,1"
       id="guide4166" />
    <sodipodi:guide
       position="10,15"
       orientation="0,1"
       id="guide4168" />
    <sodipodi:guide
       position="10,5"
       orientation="0,1"
       id="guide4170" />
    <sodipodi:guide
       position="5,10"
       orientation="1,0"
       id="guide4172" />
    <sodipodi:guide
       position="15,10"
       orientation="1,0"
       id="guide4174" />
  </sodipodi:namedview>
  <defs
     id="defs4">
    <linearGradient
       inkscape:collect="always"
       id="linearGradient5196">
      <stop
         style="stop-color:#000000;stop-opacity:1;"
         offset="0"
         id="stop5198" />
      <stop
         style="stop-color:#000000;stop-opacity:0;"
         offset="1"
         id="stop5200" />
    </linearGradient>
    <clipPath
       id="clipPath12478"
       clipPathUnits="userSpaceOnUse">
      <circle
         r="10"
         cy="10.000005"
         cx="9.9999781"
         id="circle12480"
         style="opacity:1;fill:#2196f3;fill-opacity:1;stroke:none;stroke-width:0.05069799;stroke-miterlimit:4;stroke-dasharray:none;stroke-opacity:1" />
    </clipPath>
    <clipPath
       clipPathUnits="userSpaceOnUse"
       id="clipPath5790">
      <circle
         r="10"
         cy="10.000005"
         cx="9.9999781"
         id="circle5792"
         style="opacity:1;fill:#2196f3;fill-opacity:1;stroke:none;stroke-width:0.05069799;stroke-miterlimit:4;stroke-dasharray:none;stroke-opacity:1"
         inkscape:export-filename="/home/juergen/path4136.png"
         inkscape:export-xdpi="648"
         inkscape:export-ydpi="648" />
    </clipPath>
    <clipPath
       id="clipPath5055"
       clipPathUnits="userSpaceOnUse">
      <circle
         r="10"
         cy="10.000005"
         cx="9.9999781"
         id="circle5057"
         style="opacity:1;fill:#2196f3;fill-opacity:1;stroke:none;stroke-width:0.05069799;stroke-miterlimit:4;stroke-dasharray:none;stroke-opacity:1"
         inkscape:export-filename="/home/juergen/path4136.png"
         inkscape:export-xdpi="648"
         inkscape:export-ydpi="648" />
    </clipPath>
    <clipPath
       clipPathUnits="userSpaceOnUse"
       id="clipPath5119">
      <circle
         r="10"
         cy="10.000005"
         cx="9.9999781"
         id="circle5121"
         style="opacity:1;fill:#2196f3;fill-opacity:1;stroke:none;stroke-width:0.05069799;stroke-miterlimit:4;stroke-dasharray:none;stroke-opacity:1"
         inkscape:export-filename="/home/juergen/Schreibtisch/path4136.png"
         inkscape:export-xdpi="648"
         inkscape:export-ydpi="648" />
    </clipPath>
    <clipPath
       id="clipPath5194"
       clipPathUnits="userSpaceOnUse">
      <circle
         r="10"
         cy="10.000005"
         cx="9.9999781"
         id="circle5196"
         style="opacity:1;fill:#cddc39;fill-opacity:1;stroke:none;stroke-width:0.05069799;stroke-miterlimit:4;stroke-dasharray:none;stroke-opacity:1"
         inkscape:export-filename="/home/juergen/Schreibtisch/path4136.png"
         inkscape:export-xdpi="648"
         inkscape:export-ydpi="648" />
    </clipPath>
    <clipPath
       clipPathUnits="userSpaceOnUse"
       id="clipPath6175">
      <circle
         r="10"
         cy="10.000005"
         cx="9.9999781"
         id="circle6177"
         style="opacity:1;fill:#f44336;fill-opacity:1;stroke:none;stroke-width:0.05069799;stroke-miterlimit:4;stroke-dasharray:none;stroke-opacity:1"
         inkscape:export-filename="/home/juergen/Schreibtisch/path4136.png"
         inkscape:export-xdpi="648"
         inkscape:export-ydpi="648" />
    </clipPath>
    <clipPath
       id="clipPath7176"
       clipPathUnits="userSpaceOnUse">
      <circle
         r="10"
         cy="10.000005"
         cx="9.9999781"
         id="circle7178"
         style="opacity:1;fill:#9c27b0;fill-opacity:1;stroke:none;stroke-width:0.05069799;stroke-miterlimit:4;stroke-dasharray:none;stroke-opacity:1"
         inkscape:export-filename="/home/juergen/Schreibtisch/path4136.png"
         inkscape:export-xdpi="648"
         inkscape:export-ydpi="648" />
    </clipPath>
    <clipPath
       clipPathUnits="userSpaceOnUse"
       id="clipPath8165">
      <circle
         r="10"
         cy="10.000005"
         cx="9.9999781"
         id="circle8167"
         style="opacity:1;fill:#ffc107;fill-opacity:1;stroke:none;stroke-width:0.05069799;stroke-miterlimit:4;stroke-dasharray:none;stroke-opacity:1"
         inkscape:export-filename="/home/juergen/Schreibtisch/path4136.png"
         inkscape:export-xdpi="648"
         inkscape:export-ydpi="648" />
    </clipPath>
    <clipPath
       id="clipPath9162"
       clipPathUnits="userSpaceOnUse">
      <circle
         r="10"
         cy="10.000005"
         cx="9.9999781"
         id="circle9164"
         style="opacity:1;fill:#ff9800;fill-opacity:1;stroke:none;stroke-width:0.05069799;stroke-miterlimit:4;stroke-dasharray:none;stroke-opacity:1"
         inkscape:export-filename="/home/juergen/Schreibtisch/path4136.png"
         inkscape:export-xdpi="648"
         inkscape:export-ydpi="648" />
    </clipPath>
    <clipPath
       clipPathUnits="userSpaceOnUse"
       id="clipPath10753">
      <circle
         r="10"
         cy="10.000005"
         cx="9.9999781"
         id="circle10755"
         style="opacity:1;fill:#607d8b;fill-opacity:1;stroke:none;stroke-width:0.05069799;stroke-miterlimit:4;stroke-dasharray:none;stroke-opacity:1"
         inkscape:export-filename="/home/juergen/Schreibtisch/path4136.png"
         inkscape:export-xdpi="648"
         inkscape:export-ydpi="648" />
    </clipPath>
    <clipPath
       id="clipPath5153"
       clipPathUnits="userSpaceOnUse">
      <circle
         r="10"
         cy="10.000005"
         cx="9.9999781"
         id="circle5155"
         style="opacity:1;fill:#2196f3;fill-opacity:1;stroke:none;stroke-width:0.05069799;stroke-miterlimit:4;stroke-dasharray:none;stroke-opacity:1"
         inkscape:export-filename="/home/juergen/Schreibtisch/path4136.png"
         inkscape:export-xdpi="648"
         inkscape:export-ydpi="648" />
    </clipPath>
    <clipPath
       clipPathUnits="userSpaceOnUse"
       id="clipPath6152">
      <circle
         r="10"
         cy="10.000005"
         cx="9.9999781"
         id="circle6154"
         style="opacity:1;fill:#2196f3;fill-opacity:1;stroke:none;stroke-width:0.05069799;stroke-miterlimit:4;stroke-dasharray:none;stroke-opacity:1"
         inkscape:export-filename="/home/juergen/Schreibtisch/path4136.png"
         inkscape:export-xdpi="648"
         inkscape:export-ydpi="648" />
    </clipPath>
    <clipPath
       id="clipPath7155"
       clipPathUnits="userSpaceOnUse">
      <circle
         r="10"
         cy="10.000005"
         cx="9.9999781"
         id="circle7157"
         style="opacity:1;fill:#2196f3;fill-opacity:1;stroke:none;stroke-width:0.05069799;stroke-miterlimit:4;stroke-dasharray:none;stroke-opacity:1"
         inkscape:export-filename="/home/juergen/Schreibtisch/path4136.png"
         inkscape:export-xdpi="648"
         inkscape:export-ydpi="648" />
    </clipPath>
    <clipPath
       clipPathUnits="userSpaceOnUse"
       id="clipPath8162">
      <circle
         r="10"
         cy="10.000005"
         cx="9.9999781"
         id="circle8164"
         style="opacity:1;fill:#2196f3;fill-opacity:1;stroke:none;stroke-width:0.05069799;stroke-miterlimit:4;stroke-dasharray:none;stroke-opacity:1"
         inkscape:export-filename="/home/juergen/Schreibtisch/path4136.png"
         inkscape:export-xdpi="648"
         inkscape:export-ydpi="648" />
    </clipPath>
    <clipPath
       id="clipPath5177"
       clipPathUnits="userSpaceOnUse">
      <circle
         r="10"
         cy="10.000005"
         cx="9.9999781"
         id="circle5179"
         style="opacity:1;fill:#8bc34a;fill-opacity:1;stroke:none;stroke-width:0.05069799;stroke-miterlimit:4;stroke-dasharray:none;stroke-opacity:1"
         inkscape:export-filename="/home/juergen/Schreibtisch/path4136.png"
         inkscape:export-xdpi="648"
         inkscape:export-ydpi="648" />
    </clipPath>
    <clipPath
       clipPathUnits="userSpaceOnUse"
       id="clipPath6194">
      <circle
         r="10"
         cy="10.000005"
         cx="9.9999781"
         id="circle6196"
         style="opacity:1;fill:#4caf50;fill-opacity:1;stroke:none;stroke-width:0.05069799;stroke-miterlimit:4;stroke-dasharray:none;stroke-opacity:1"
         inkscape:export-filename="/home/juergen/Schreibtisch/path4136.png"
         inkscape:export-xdpi="648"
         inkscape:export-ydpi="648" />
    </clipPath>
    <clipPath
       id="clipPath7213"
       clipPathUnits="userSpaceOnUse">
      <circle
         r="10"
         cy="10.000005"
         cx="9.9999781"
         id="circle7215"
         style="opacity:1;fill:#4caf50;fill-opacity:1;stroke:none;stroke-width:0.05069799;stroke-miterlimit:4;stroke-dasharray:none;stroke-opacity:1"
         inkscape:export-filename="/home/juergen/Schreibtisch/path4136.png"
         inkscape:export-xdpi="648"
         inkscape:export-ydpi="648" />
    </clipPath>
    <clipPath
       clipPathUnits="userSpaceOnUse"
       id="clipPath8236">
      <circle
         r="10"
         cy="10.000005"
         cx="9.9999781"
         id="circle8238"
         style="opacity:1;fill:#4caf50;fill-opacity:1;stroke:none;stroke-width:0.05069799;stroke-miterlimit:4;stroke-dasharray:none;stroke-opacity:1"
         inkscape:export-filename="/home/juergen/Schreibtisch/path4136.png"
         inkscape:export-xdpi="648"
         inkscape:export-ydpi="648" />
    </clipPath>
    <clipPath
       id="clipPath9263"
       clipPathUnits="userSpaceOnUse">
      <circle
         r="10"
         cy="10.000005"
         cx="9.9999781"
         id="circle9265"
         style="opacity:1;fill:#607d8b;fill-opacity:1;stroke:none;stroke-width:0.05069799;stroke-miterlimit:4;stroke-dasharray:none;stroke-opacity:1"
         inkscape:export-filename="/home/juergen/Schreibtisch/path4136.png"
         inkscape:export-xdpi="648"
         inkscape:export-ydpi="648" />
    </clipPath>
    <linearGradient
       inkscape:collect="always"
       xlink:href="#linearGradient5196"
       id="linearGradient5202"
       x1="10"
       y1="10"
       x2="20"
       y2="20"
       gradientUnits="userSpaceOnUse" />
    <clipPath
       clipPathUnits="userSpaceOnUse"
       id="clipPath5207">
      <circle
         r="10"
         cy="10.000005"
         cx="9.9999781"
         id="circle5209"
         style="opacity:1;fill:#009688;fill-opacity:1;stroke:none;stroke-width:0.05069799;stroke-miterlimit:4;stroke-dasharray:none;stroke-opacity:1"
         inkscape:export-filename="/home/juergen/Schreibtisch/path4136.png"
         inkscape:export-xdpi="648"
         inkscape:export-ydpi="648" />
    </clipPath>
  </defs>
  <metadata
     id="metadata7">
    <rdf:RDF>
      <cc:Work
         rdf:about="">
        <dc:format>image/svg+xml</dc:format>
        <dc:type
           rdf:resource="http://purl.org/dc/dcmitype/StillImage" />
        <dc:title />
      </cc:Work>
    </rdf:RDF>
  </metadata>
  <g
     inkscape:label="Hintergrund"
     inkscape:groupmode="layer"
     id="layer1"
     transform="translate(1058.1428,-861.93365)">
    <circle
       inkscape:export-ydpi="648"
       inkscape:export-xdpi="648"
       inkscape:export-filename="/home/juergen/Schreibtisch/path4136.png"
       style="opacity:1;fill:#009688;fill-opacity:1;stroke:none;stroke-width:0.05069799;stroke-miterlimit:4;stroke-dasharray:none;stroke-opacity:1"
       id="path4136"
       cx="-1048.1428"
       cy="871.93365"
       r="10" />
  </g>
  <g
     style="display:inline"
     inkscape:groupmode="layer"
     id="layer2"
     inkscape:label="Icon">
    <path
       d="M 5.90625 5.2539062 L 5.1484375 8.0917969 L 5.3242188 8.1386719 L 5.296875 8.2402344 L 5.4726562 8.2871094 L 5.4453125 8.3886719 L 5.6191406 8.4355469 L 5.5917969 8.5351562 L 5.7636719 8.5820312 L 5.7363281 8.6816406 L 5.9082031 8.7285156 L 5.8828125 8.8261719 L 6.0527344 8.8730469 L 6.0273438 8.9707031 L 6.1953125 9.015625 L 6.1699219 9.1132812 L 6.3378906 9.1582031 L 6.3125 9.2578125 L 6.4804688 9.3027344 L 6.4550781 9.3984375 L 6.6230469 9.4433594 L 6.5976562 9.5410156 L 6.7636719 9.5859375 L 6.7382812 9.6816406 L 6.9023438 9.7265625 L 6.8769531 9.8222656 L 7.0429688 9.8671875 L 7.0175781 9.9609375 L 7.1796875 10.005859 L 7.1542969 10.099609 L 7.3183594 10.144531 L 7.2929688 10.236328 L 7.4550781 10.279297 L 7.4296875 10.373047 L 7.5917969 10.416016 L 7.5664062 10.509766 L 7.7265625 10.552734 L 7.7011719 10.646484 L 7.8613281 10.689453 L 7.8359375 10.78125 L 7.9941406 10.824219 L 7.9707031 10.914062 L 8.1269531 10.957031 L 8.1035156 11.046875 L 8.2597656 11.089844 L 8.2363281 11.179688 L 8.3925781 11.222656 L 8.3691406 11.3125 L 8.5234375 11.355469 L 8.5 11.443359 L 8.6523438 11.484375 L 8.6289062 11.574219 L 8.7832031 11.615234 L 8.7597656 11.703125 L 8.9121094 11.744141 L 8.8886719 11.832031 L 9.0390625 11.873047 L 9.015625 11.960938 L 9.1660156 12.001953 L 9.1425781 12.087891 L 9.2929688 12.128906 L 9.2695312 12.214844 L 9.4199219 12.253906 L 9.3964844 12.339844 L 9.4960938 12.367188 L 9.4960938 13.412109 C 9.4960938 13.73848 9.496654 14.065331 9.28125 14.228516 C 9.059318 14.391702 8.6287433 14.392578 8.1914062 14.392578 L 8.1914062 15.044922 L 8.3378906 15.044922 L 8.3378906 15.193359 L 8.4863281 15.193359 L 8.4863281 15.339844 L 8.6328125 15.339844 L 8.6328125 15.486328 L 8.7792969 15.486328 L 8.7792969 15.632812 L 8.9238281 15.632812 L 8.9238281 15.777344 L 9.0683594 15.777344 L 9.0683594 15.921875 L 9.2128906 15.921875 L 9.2128906 16.066406 L 9.3554688 16.066406 L 9.3554688 16.208984 L 9.4980469 16.208984 L 9.4980469 16.351562 L 9.6386719 16.351562 L 9.6386719 16.492188 L 9.7792969 16.492188 L 9.7792969 16.632812 L 9.9199219 16.632812 L 9.9199219 16.773438 L 10.058594 16.773438 L 10.058594 16.912109 L 10.197266 16.912109 L 10.197266 17.050781 L 10.333984 17.050781 L 10.333984 17.189453 L 10.472656 17.189453 L 10.472656 17.326172 L 10.607422 17.326172 L 10.607422 17.460938 L 10.744141 17.460938 L 10.744141 17.597656 L 10.878906 17.597656 L 10.878906 17.732422 L 11.011719 17.732422 L 11.011719 17.865234 L 11.146484 17.865234 L 11.146484 18 L 11.277344 18 L 11.277344 18.132812 L 11.410156 18.132812 L 11.410156 18.263672 L 11.541016 18.263672 L 11.541016 18.394531 L 11.671875 18.394531 L 11.671875 18.525391 L 11.800781 18.525391 L 11.800781 18.654297 L 11.929688 18.654297 L 11.929688 18.783203 L 12.058594 18.783203 L 12.058594 18.912109 L 12.185547 18.912109 L 12.185547 19.039062 L 12.3125 19.039062 L 12.3125 19.166016 L 12.4375 19.166016 L 12.4375 19.291016 L 12.5625 19.291016 L 12.5625 19.416016 L 12.6875 19.416016 L 12.6875 19.541016 L 12.810547 19.541016 L 12.810547 19.664062 L 12.933594 19.664062 L 12.933594 19.787109 L 13.056641 19.787109 L 13.056641 19.910156 L 13.177734 19.910156 L 13.177734 20.03125 L 13.298828 20.03125 L 13.298828 20.152344 L 13.417969 20.152344 L 13.417969 20.271484 L 13.537109 20.271484 L 13.537109 20.390625 L 13.65625 20.390625 L 13.65625 20.509766 L 13.773438 20.509766 L 13.773438 20.626953 L 13.890625 20.626953 L 13.890625 20.744141 L 14.005859 20.744141 L 14.005859 20.859375 L 14.121094 20.859375 L 14.121094 20.976562 L 14.236328 20.976562 L 14.236328 21.089844 L 14.349609 21.089844 L 14.349609 21.205078 L 14.462891 21.205078 L 14.462891 21.318359 L 14.576172 21.318359 L 14.576172 21.429688 L 14.6875 21.429688 L 14.6875 21.541016 L 14.798828 21.541016 L 14.798828 21.652344 L 14.910156 21.652344 L 14.910156 21.763672 L 15.019531 21.763672 L 15.019531 21.873047 L 15.126953 21.873047 L 15.126953 21.980469 L 15.236328 21.980469 L 15.236328 22.089844 L 15.34375 22.089844 L 15.34375 22.197266 L 15.449219 22.197266 L 15.449219 22.302734 L 15.554688 22.302734 L 15.554688 22.408203 L 15.660156 22.408203 L 15.660156 22.513672 L 15.765625 22.513672 L 15.765625 22.619141 L 15.869141 22.619141 L 15.869141 22.722656 L 15.970703 22.722656 L 15.970703 22.824219 L 16.072266 22.824219 L 16.072266 22.927734 L 16.173828 22.927734 L 16.173828 23.029297 L 16.275391 23.029297 L 16.275391 23.128906 L 16.375 23.128906 L 16.375 23.228516 L 16.474609 23.228516 L 16.474609 23.328125 L 16.572266 23.328125 L 16.572266 23.425781 L 16.669922 23.425781 L 16.669922 23.523438 L 16.767578 23.523438 L 16.767578 23.621094 L 16.863281 23.621094 L 16.863281 23.716797 L 16.958984 23.716797 L 16.958984 23.8125 L 17.052734 23.8125 L 17.052734 23.90625 L 17.146484 23.90625 L 17.146484 24.001953 L 17.240234 24.001953 L 17.240234 24.09375 L 17.332031 24.09375 L 17.332031 24.1875 L 17.423828 24.1875 L 17.423828 24.279297 L 17.515625 24.279297 L 17.515625 24.369141 L 17.605469 24.369141 L 17.605469 24.458984 L 17.695312 24.458984 L 17.695312 24.548828 L 17.783203 24.548828 L 17.783203 24.638672 L 17.873047 24.638672 L 17.873047 24.726562 L 17.958984 24.726562 L 17.958984 24.8125 L 18.044922 24.8125 L 18.044922 24.900391 L 18.130859 24.900391 L 18.130859 24.986328 L 18.216797 24.986328 L 18.216797 25.070312 L 18.300781 25.070312 L 18.300781 25.154297 L 18.384766 25.154297 L 18.384766 25.238281 L 18.466797 25.238281 L 18.466797 25.320312 L 18.548828 25.320312 L 18.548828 25.402344 L 18.630859 25.402344 L 18.630859 25.484375 L 18.710938 25.484375 L 18.710938 25.564453 L 18.791016 25.564453 L 18.791016 25.644531 L 18.869141 25.644531 L 18.869141 25.724609 L 18.949219 25.724609 L 18.949219 25.802734 L 19.025391 25.802734 L 19.025391 25.878906 L 19.103516 25.878906 L 19.103516 25.957031 L 19.179688 25.957031 L 19.179688 26.033203 L 19.253906 26.033203 L 19.253906 26.107422 L 19.328125 26.107422 L 19.328125 26.183594 L 19.402344 26.183594 L 19.402344 26.255859 L 19.476562 26.255859 L 19.476562 26.330078 L 19.548828 26.330078 L 19.548828 26.402344 L 19.619141 26.402344 L 19.619141 26.474609 L 19.691406 26.474609 L 19.691406 26.544922 L 19.761719 26.544922 L 19.761719 26.615234 L 19.830078 26.615234 L 19.830078 26.683594 L 19.898438 26.683594 L 19.898438 26.753906 L 19.966797 26.753906 L 19.966797 26.820312 L 20.035156 26.820312 L 20.035156 26.888672 L 20.101562 26.888672 L 20.101562 26.955078 L 20.166016 26.955078 L 20.166016 27.019531 L 20.232422 27.019531 L 20.232422 27.085938 L 20.294922 27.085938 L 20.294922 27.150391 L 20.359375 27.150391 L 20.359375 27.212891 L 20.421875 27.212891 L 20.421875 27.275391 L 20.484375 27.275391 L 20.484375 27.337891 L 20.544922 27.337891 L 20.544922 27.398438 L 20.605469 27.398438 L 20.605469 27.458984 L 20.666016 27.458984 L 20.666016 27.519531 L 20.724609 27.519531 L 20.724609 27.578125 L 20.783203 27.578125 L 20.783203 27.636719 L 20.839844 27.636719 L 20.839844 27.693359 L 20.896484 27.693359 L 20.896484 27.751953 L 20.953125 27.751953 L 20.953125 27.806641 L 21.007812 27.806641 L 21.007812 27.863281 L 21.0625 27.863281 L 21.0625 27.917969 L 21.117188 27.917969 L 21.117188 27.970703 L 21.169922 27.970703 L 21.169922 28.023438 L 21.222656 28.023438 L 21.222656 28.076172 L 21.273438 28.076172 L 21.273438 28.126953 L 21.324219 28.126953 L 21.324219 28.179688 L 21.375 28.179688 L 21.375 28.228516 L 21.423828 28.228516 L 21.423828 28.277344 L 21.472656 28.277344 L 21.472656 28.326172 L 21.521484 28.326172 L 21.521484 28.375 L 21.568359 28.375 L 21.568359 28.421875 L 21.615234 28.421875 L 21.615234 28.46875 L 21.660156 28.46875 L 21.660156 28.513672 L 21.705078 28.513672 L 21.705078 28.558594 L 21.75 28.558594 L 21.75 28.603516 L 21.792969 28.603516 L 21.792969 28.646484 L 21.835938 28.646484 L 21.835938 28.689453 L 21.876953 28.689453 L 21.876953 28.730469 L 21.917969 28.730469 L 21.917969 28.771484 L 21.958984 28.771484 L 21.958984 28.8125 L 21.998047 28.8125 L 21.998047 28.853516 L 22.037109 28.853516 L 22.037109 28.892578 L 22.076172 28.892578 L 22.076172 28.929688 L 22.113281 28.929688 L 22.113281 28.966797 L 22.150391 28.966797 L 22.150391 29.003906 L 22.185547 29.003906 L 22.185547 29.041016 L 22.220703 29.041016 L 22.220703 29.076172 L 22.255859 29.076172 L 22.255859 29.109375 L 22.289062 29.109375 L 22.289062 29.144531 L 22.322266 29.144531 L 22.322266 29.177734 L 22.355469 29.177734 L 22.355469 29.208984 L 22.386719 29.208984 L 22.386719 29.240234 L 22.417969 29.240234 L 22.417969 29.271484 L 22.447266 29.271484 L 22.447266 29.300781 L 22.476562 29.300781 L 22.476562 29.330078 L 22.505859 29.330078 L 22.505859 29.359375 L 22.533203 29.359375 L 22.533203 29.386719 L 22.560547 29.386719 L 22.560547 29.414062 L 22.587891 29.414062 L 22.587891 29.441406 L 22.613281 29.441406 L 22.613281 29.466797 L 22.636719 29.466797 L 22.636719 29.492188 L 22.662109 29.492188 L 22.662109 29.515625 L 22.685547 29.515625 L 22.685547 29.539062 L 22.707031 29.539062 L 22.707031 29.560547 L 22.730469 29.560547 L 22.730469 29.583984 L 22.75 29.583984 L 22.75 29.603516 L 22.771484 29.603516 L 22.771484 29.625 L 22.791016 29.625 L 22.791016 29.644531 L 22.810547 29.644531 L 22.810547 29.664062 L 22.828125 29.664062 L 22.828125 29.681641 L 22.845703 29.681641 L 22.845703 29.699219 L 22.861328 29.699219 L 22.861328 29.716797 L 22.878906 29.716797 L 22.878906 29.732422 L 22.892578 29.732422 L 22.892578 29.746094 L 22.908203 29.746094 L 22.908203 29.761719 L 22.921875 29.761719 L 22.921875 29.775391 L 22.933594 29.775391 L 22.933594 29.789062 L 22.947266 29.789062 L 22.947266 29.800781 L 22.958984 29.800781 L 22.958984 29.8125 L 22.96875 29.8125 L 22.96875 29.822266 L 22.978516 29.822266 L 22.978516 29.832031 L 22.988281 29.832031 L 22.988281 29.841797 L 22.996094 29.841797 L 22.996094 29.851562 L 23.003906 29.851562 L 23.003906 29.859375 L 23.011719 29.859375 L 23.011719 29.865234 L 23.017578 29.865234 L 23.017578 29.871094 L 23.023438 29.871094 L 23.023438 29.876953 L 23.029297 29.876953 L 23.029297 29.882812 L 23.033203 29.882812 L 23.033203 29.886719 L 23.035156 29.886719 L 23.035156 29.888672 L 23.039062 29.888672 L 23.039062 29.892578 L 23.041016 29.892578 L 23.041016 29.894531 L 26.957031 29.894531 L 26.957031 29.242188 C 26.956349 29.242188 26.955761 29.242188 26.955078 29.242188 L 26.955078 29.240234 C 26.955078 29.240234 26.953125 29.240234 26.953125 29.240234 L 26.953125 29.236328 C 26.951764 29.236328 26.95058 29.236328 26.949219 29.236328 L 26.949219 29.234375 C 26.947858 29.234375 26.946673 29.234375 26.945312 29.234375 L 26.945312 29.228516 C 26.943271 29.228516 26.941494 29.228516 26.939453 29.228516 L 26.939453 29.224609 C 26.937405 29.224609 26.935641 29.224609 26.933594 29.224609 L 26.933594 29.21875 C 26.931546 29.21875 26.929782 29.21875 26.927734 29.21875 L 26.927734 29.212891 C 26.925687 29.212891 26.923922 29.212891 26.921875 29.212891 L 26.921875 29.205078 C 26.919153 29.205078 26.916784 29.205078 26.914062 29.205078 L 26.914062 29.197266 C 26.91066 29.197266 26.907699 29.197266 26.904297 29.197266 L 26.904297 29.189453 C 26.900884 29.189453 26.897944 29.189453 26.894531 29.189453 L 26.894531 29.179688 C 26.891118 29.179688 26.888178 29.179688 26.884766 29.179688 L 26.884766 29.169922 C 26.881352 29.169922 26.878412 29.169922 26.875 29.169922 L 26.875 29.160156 C 26.870918 29.160156 26.867362 29.160156 26.863281 29.160156 L 26.863281 29.148438 C 26.859186 29.148438 26.855656 29.148438 26.851562 29.148438 L 26.851562 29.134766 C 26.846799 29.134766 26.842653 29.134766 26.837891 29.134766 L 26.837891 29.123047 C 26.833113 29.123047 26.828995 29.123047 26.824219 29.123047 L 26.824219 29.109375 C 26.819441 29.109375 26.815323 29.109375 26.810547 29.109375 L 26.810547 29.09375 C 26.805102 29.09375 26.800364 29.09375 26.794922 29.09375 L 26.794922 29.078125 C 26.789477 29.078125 26.784739 29.078125 26.779297 29.078125 L 26.779297 29.0625 C 26.773172 29.0625 26.767841 29.0625 26.761719 29.0625 L 26.761719 29.046875 C 26.755576 29.046875 26.75028 29.046875 26.744141 29.046875 L 26.744141 29.029297 C 26.737998 29.029297 26.732702 29.029297 26.726562 29.029297 L 26.726562 29.011719 C 26.719758 29.011719 26.713831 29.011719 26.707031 29.011719 L 26.707031 28.992188 C 26.700206 28.992188 26.694321 28.992188 26.6875 28.992188 L 26.6875 28.972656 C 26.680675 28.972656 26.67479 28.972657 26.667969 28.972656 L 26.667969 28.951172 C 26.660483 28.951172 26.653966 28.951173 26.646484 28.951172 L 26.646484 28.929688 C 26.638998 28.929688 26.632481 28.929688 26.625 28.929688 L 26.625 28.908203 C 26.616833 28.908203 26.609723 28.908204 26.601562 28.908203 L 26.601562 28.886719 C 26.593372 28.886719 26.586309 28.88672 26.578125 28.886719 L 26.578125 28.863281 C 26.569935 28.863281 26.562872 28.863282 26.554688 28.863281 L 26.554688 28.837891 C 26.54584 28.837891 26.538137 28.837892 26.529297 28.837891 L 26.529297 28.814453 C 26.520452 28.814453 26.512745 28.814454 26.503906 28.814453 L 26.503906 28.787109 C 26.494379 28.787109 26.486082 28.787111 26.476562 28.787109 L 26.476562 28.761719 C 26.467005 28.761719 26.458768 28.76172 26.449219 28.761719 L 26.449219 28.734375 C 26.439661 28.734375 26.431424 28.734377 26.421875 28.734375 L 26.421875 28.707031 C 26.411614 28.707031 26.40283 28.70508 26.392578 28.705078 L 26.392578 28.677734 C 26.382338 28.677734 26.373512 28.677736 26.363281 28.677734 L 26.363281 28.648438 C 26.353041 28.648438 26.344215 28.64844 26.333984 28.648438 L 26.333984 28.619141 C 26.32304 28.619141 26.313667 28.61719 26.302734 28.617188 L 26.302734 28.587891 C 26.29179 28.587891 26.282417 28.58594 26.271484 28.585938 L 26.271484 28.556641 C 26.26054 28.556641 26.251167 28.55469 26.240234 28.554688 L 26.240234 28.523438 C 26.228644 28.523438 26.218609 28.521487 26.207031 28.521484 L 26.207031 28.490234 C 26.19476 28.490234 26.184131 28.488285 26.171875 28.488281 L 26.171875 28.457031 C 26.160248 28.457031 26.150286 28.455081 26.138672 28.455078 L 26.138672 28.421875 C 26.126401 28.421875 26.115772 28.419925 26.103516 28.419922 L 26.103516 28.386719 C 26.090564 28.386719 26.079341 28.38477 26.066406 28.384766 L 26.066406 28.351562 C 26.053415 28.351562 26.042272 28.349614 26.029297 28.349609 L 26.029297 28.314453 C 26.016305 28.314453 26.005163 28.312504 25.992188 28.3125 L 25.992188 28.277344 C 25.979196 28.277344 25.968053 28.275395 25.955078 28.275391 L 25.955078 28.238281 C 25.941446 28.238281 25.929629 28.236333 25.916016 28.236328 L 25.916016 28.199219 C 25.901703 28.199219 25.889292 28.197271 25.875 28.197266 L 25.875 28.160156 C 25.861325 28.160156 25.849593 28.158208 25.835938 28.158203 L 25.835938 28.119141 C 25.820944 28.119141 25.807939 28.117194 25.792969 28.117188 L 25.792969 28.078125 C 25.778611 28.078125 25.766289 28.076178 25.751953 28.076172 L 25.751953 28.037109 C 25.736914 28.037109 25.724 28.035163 25.708984 28.035156 L 25.708984 27.994141 C 25.693945 27.994141 25.681031 27.992194 25.666016 27.992188 L 25.666016 27.951172 C 25.661205 27.951172 25.657153 27.949219 25.652344 27.949219 L 25.652344 21.410156 L 27.285156 21.410156 C 27.423319 21.410156 27.560258 21.421867 27.697266 21.433594 C 27.697304 21.433597 27.697227 21.435544 27.697266 21.435547 C 27.699653 21.440161 27.704645 21.442651 27.707031 21.447266 L 27.726562 21.441406 C 27.736356 21.460299 27.746082 21.47719 27.755859 21.496094 L 27.775391 21.490234 C 27.785174 21.509108 27.79492 21.526038 27.804688 21.544922 L 27.824219 21.539062 C 27.833984 21.557902 27.843766 21.5749 27.853516 21.59375 L 27.871094 21.587891 C 27.88059 21.606211 27.89091 21.622295 27.900391 21.640625 L 27.917969 21.636719 C 27.926802 21.653763 27.936492 21.668495 27.945312 21.685547 L 27.962891 21.679688 C 27.972404 21.698041 27.982689 21.714058 27.992188 21.732422 L 28.009766 21.728516 C 28.01859 21.745543 28.028298 21.760309 28.037109 21.777344 L 28.054688 21.773438 C 28.063101 21.789675 28.071676 21.804069 28.080078 21.820312 L 28.097656 21.816406 C 28.10648 21.833434 28.116189 21.848199 28.125 21.865234 L 28.142578 21.861328 C 28.150968 21.877519 28.159591 21.892005 28.167969 21.908203 L 28.183594 21.904297 C 28.191729 21.919998 28.20086 21.933512 28.208984 21.949219 L 28.224609 21.945312 C 28.232753 21.961029 28.241868 21.974512 28.25 21.990234 L 28.265625 21.986328 C 28.27376 22.002029 28.282891 22.015543 28.291016 22.03125 L 28.306641 22.027344 C 28.314365 22.042253 28.322364 22.055398 28.330078 22.070312 L 28.345703 22.066406 C 28.353427 22.081315 28.361426 22.094461 28.369141 22.109375 L 28.384766 22.105469 C 28.392482 22.120363 28.400497 22.133539 28.408203 22.148438 L 28.421875 22.144531 C 28.429321 22.158905 28.437875 22.171168 28.445312 22.185547 L 28.458984 22.181641 C 28.466431 22.196015 28.474985 22.208278 28.482422 22.222656 L 28.496094 22.21875 C 28.503128 22.232331 28.510552 22.244228 28.517578 22.257812 L 28.53125 22.253906 C 28.538284 22.267487 28.545708 22.279384 28.552734 22.292969 L 28.566406 22.289062 C 28.573434 22.302629 28.580871 22.314554 28.587891 22.328125 L 28.601562 22.324219 C 28.608178 22.336992 28.614485 22.348552 28.621094 22.361328 L 28.634766 22.357422 C 28.641381 22.370195 28.647689 22.381755 28.654297 22.394531 L 28.667969 22.390625 C 28.674565 22.403361 28.680911 22.414995 28.6875 22.427734 L 28.699219 22.423828 C 28.705557 22.436068 28.712418 22.446742 28.71875 22.458984 L 28.730469 22.455078 C 28.736796 22.467295 28.743679 22.478014 28.75 22.490234 L 28.761719 22.486328 C 28.767639 22.49776 28.773383 22.508097 28.779297 22.519531 L 28.791016 22.515625 C 28.796936 22.527057 28.802679 22.537394 28.808594 22.548828 L 28.820312 22.544922 C 28.826222 22.556333 28.831987 22.566711 28.837891 22.578125 L 28.847656 22.576172 C 28.853037 22.586564 28.859858 22.595075 28.865234 22.605469 L 28.875 22.603516 C 28.880381 22.613908 28.887202 22.622419 28.892578 22.632812 L 28.902344 22.630859 C 28.907311 22.640453 28.913006 22.648608 28.917969 22.658203 L 28.927734 22.65625 C 28.932701 22.665844 28.938396 22.673999 28.943359 22.683594 L 28.953125 22.681641 C 28.958092 22.691234 28.963787 22.699389 28.96875 22.708984 L 28.978516 22.707031 C 28.983064 22.715817 28.987643 22.723635 28.992188 22.732422 L 29.001953 22.730469 C 29.006501 22.739255 29.01108 22.747073 29.015625 22.755859 L 29.025391 22.753906 C 29.029934 22.762683 29.034522 22.770519 29.039062 22.779297 L 29.046875 22.777344 C 29.051153 22.785608 29.056272 22.792516 29.060547 22.800781 L 29.068359 22.798828 C 29.072637 22.807093 29.077756 22.814 29.082031 22.822266 L 29.089844 22.820312 C 29.09411 22.828554 29.099252 22.835508 29.103516 22.84375 L 29.111328 22.841797 C 29.115177 22.849232 29.119201 22.855845 29.123047 22.863281 L 29.130859 22.861328 C 29.1343 22.867976 29.137186 22.874211 29.140625 22.880859 L 29.148438 22.878906 C 29.152286 22.886341 29.15631 22.892955 29.160156 22.900391 L 29.167969 22.898438 C 29.1714 22.905067 29.174305 22.911339 29.177734 22.917969 L 29.183594 22.916016 C 29.186765 22.922143 29.19019 22.927466 29.193359 22.933594 L 29.199219 22.931641 C 29.20239 22.937768 29.205815 22.943091 29.208984 22.949219 L 29.214844 22.947266 C 29.218015 22.953393 29.22144 22.958716 29.224609 22.964844 L 29.230469 22.962891 C 29.233631 22.969 29.237074 22.974359 29.240234 22.980469 L 29.246094 22.978516 C 29.248838 22.983819 29.251163 22.988837 29.253906 22.994141 L 29.257812 22.992188 C 29.260295 22.996985 29.263143 23.001062 29.265625 23.005859 L 29.269531 23.003906 C 29.272014 23.008704 29.274862 23.012781 29.277344 23.017578 L 29.28125 23.015625 C 29.283732 23.020422 29.286581 23.024499 29.289062 23.029297 L 29.292969 23.027344 C 29.295449 23.032136 29.298302 23.036223 29.300781 23.041016 L 29.304688 23.039062 C 29.306749 23.043047 29.308486 23.046796 29.310547 23.050781 L 29.314453 23.048828 C 29.316515 23.052813 29.318251 23.056562 29.320312 23.060547 L 29.324219 23.060547 C 29.325595 23.063206 29.326749 23.0657 29.328125 23.068359 L 29.332031 23.068359 C 29.333407 23.071019 29.334562 23.073512 29.335938 23.076172 L 29.339844 23.076172 C 29.341218 23.078828 29.342376 23.081328 29.34375 23.083984 L 29.345703 23.083984 C 29.346808 23.086121 29.348504 23.087708 29.349609 23.089844 L 29.351562 23.089844 C 29.352668 23.09198 29.354364 23.093567 29.355469 23.095703 L 29.357422 23.095703 C 29.35811 23.097033 29.358687 23.09828 29.359375 23.099609 L 29.361328 23.099609 C 29.362016 23.100939 29.362593 23.102186 29.363281 23.103516 L 29.365234 23.103516 C 29.365922 23.104845 29.368453 23.108045 29.369141 23.109375 C 29.369141 23.109375 29.371094 23.111328 29.371094 23.111328 C 29.371512 23.112136 29.372629 23.112473 29.373047 23.113281 L 29.998047 22.943359 L 30 22.943359 L 29.242188 20.103516 L 29.240234 20.103516 L 29.240234 20.101562 L 29.238281 20.101562 L 29.236328 20.097656 L 29.234375 20.097656 L 29.234375 20.095703 L 29.230469 20.095703 L 29.228516 20.091797 L 29.226562 20.091797 L 29.224609 20.085938 L 29.220703 20.085938 L 29.21875 20.080078 L 29.214844 20.080078 L 29.212891 20.074219 L 29.207031 20.074219 L 29.205078 20.066406 L 29.199219 20.066406 L 29.197266 20.058594 L 29.191406 20.058594 L 29.189453 20.050781 L 29.181641 20.050781 L 29.179688 20.041016 L 29.171875 20.041016 L 29.169922 20.03125 L 29.162109 20.03125 L 29.160156 20.021484 L 29.152344 20.021484 L 29.148438 20.009766 L 29.138672 20.009766 L 29.134766 19.998047 L 29.126953 19.998047 L 29.123047 19.984375 L 29.113281 19.984375 L 29.109375 19.970703 L 29.097656 19.970703 L 29.09375 19.955078 L 29.082031 19.955078 L 29.078125 19.941406 L 29.066406 19.941406 L 29.0625 19.923828 L 29.050781 19.923828 L 29.046875 19.908203 L 29.033203 19.908203 L 29.029297 19.890625 L 29.015625 19.890625 L 29.011719 19.873047 L 28.998047 19.873047 L 28.992188 19.853516 L 28.978516 19.853516 L 28.972656 19.833984 L 28.957031 19.833984 L 28.951172 19.8125 L 28.935547 19.8125 L 28.929688 19.792969 L 28.914062 19.792969 L 28.908203 19.769531 L 28.892578 19.769531 L 28.886719 19.748047 L 28.869141 19.748047 L 28.863281 19.724609 L 28.84375 19.724609 L 28.837891 19.699219 L 28.820312 19.699219 L 28.814453 19.675781 L 28.792969 19.675781 L 28.787109 19.650391 L 28.769531 19.650391 L 28.761719 19.623047 L 28.742188 19.623047 L 28.734375 19.595703 L 28.714844 19.595703 L 28.707031 19.568359 L 28.685547 19.568359 L 28.677734 19.539062 L 28.65625 19.539062 L 28.648438 19.509766 L 28.626953 19.509766 L 28.619141 19.480469 L 28.595703 19.480469 L 28.587891 19.449219 L 28.564453 19.449219 L 28.556641 19.417969 L 28.533203 19.417969 L 28.523438 19.384766 L 28.498047 19.384766 L 28.490234 19.353516 L 28.466797 19.353516 L 28.457031 19.318359 L 28.431641 19.318359 L 28.421875 19.285156 L 28.396484 19.285156 L 28.386719 19.248047 L 28.361328 19.248047 L 28.351562 19.212891 L 28.324219 19.212891 L 28.314453 19.175781 L 28.287109 19.175781 L 28.277344 19.138672 L 28.248047 19.138672 L 28.238281 19.099609 L 28.208984 19.099609 L 28.199219 19.060547 L 28.169922 19.060547 L 28.160156 19.021484 L 28.130859 19.021484 L 28.119141 18.980469 L 28.089844 18.980469 L 28.078125 18.939453 L 28.048828 18.939453 L 28.037109 18.898438 L 28.005859 18.898438 L 27.994141 18.855469 L 27.962891 18.855469 L 27.951172 18.8125 L 27.917969 18.8125 L 27.90625 18.767578 L 27.873047 18.767578 L 27.861328 18.722656 L 27.828125 18.722656 L 27.816406 18.677734 L 27.78125 18.677734 L 27.769531 18.630859 L 27.734375 18.630859 L 27.722656 18.583984 L 27.6875 18.583984 L 27.673828 18.535156 L 27.638672 18.535156 L 27.625 18.486328 L 27.589844 18.486328 L 27.576172 18.4375 L 27.539062 18.4375 L 27.525391 18.386719 L 27.488281 18.386719 L 27.474609 18.335938 L 27.4375 18.335938 L 27.423828 18.285156 L 27.384766 18.285156 L 27.371094 18.232422 L 27.332031 18.232422 L 27.318359 18.179688 L 27.277344 18.179688 L 27.263672 18.125 L 27.222656 18.125 L 27.208984 18.072266 L 27.169922 18.072266 L 27.154297 18.015625 L 27.113281 18.015625 L 27.097656 17.958984 L 27.056641 17.958984 L 27.041016 17.902344 L 27 17.902344 L 26.984375 17.845703 L 26.941406 17.845703 L 26.925781 17.787109 L 26.882812 17.787109 L 26.867188 17.728516 L 26.822266 17.728516 L 26.806641 17.667969 L 26.761719 17.667969 L 26.746094 17.607422 L 26.701172 17.607422 L 26.685547 17.546875 L 26.640625 17.546875 L 26.623047 17.484375 L 26.578125 17.484375 L 26.560547 17.421875 L 26.513672 17.421875 L 26.496094 17.359375 L 26.449219 17.359375 L 26.431641 17.294922 L 26.384766 17.294922 L 26.367188 17.228516 L 26.320312 17.228516 L 26.302734 17.164062 L 26.253906 17.164062 L 26.236328 17.097656 L 26.185547 17.097656 L 26.167969 17.029297 L 26.117188 17.029297 L 26.099609 16.962891 L 26.050781 16.962891 L 26.03125 16.892578 L 25.980469 16.892578 L 25.962891 16.824219 L 25.912109 16.824219 L 25.892578 16.753906 L 25.839844 16.753906 L 25.820312 16.683594 L 25.769531 16.683594 L 25.75 16.611328 L 25.697266 16.611328 L 25.677734 16.539062 L 25.623047 16.539062 L 25.603516 16.464844 L 25.548828 16.464844 L 25.529297 16.392578 L 25.474609 16.392578 L 25.455078 16.316406 L 25.400391 16.316406 L 25.380859 16.242188 L 25.324219 16.242188 L 25.304688 16.166016 L 25.248047 16.166016 L 25.226562 16.087891 L 25.169922 16.087891 L 25.150391 16.011719 L 25.091797 16.011719 L 25.070312 15.933594 L 25.013672 15.933594 L 24.992188 15.853516 L 24.933594 15.853516 L 24.912109 15.773438 L 24.853516 15.773438 L 24.832031 15.693359 L 24.771484 15.693359 L 24.75 15.611328 L 24.689453 15.611328 L 24.667969 15.529297 L 24.607422 15.529297 L 24.585938 15.447266 L 24.523438 15.447266 L 24.501953 15.363281 L 24.439453 15.363281 L 24.417969 15.279297 L 24.355469 15.279297 L 24.332031 15.193359 L 24.267578 15.193359 L 24.246094 15.109375 L 24.183594 15.109375 L 24.160156 15.021484 L 24.095703 15.021484 L 24.072266 14.935547 L 24.007812 14.935547 L 23.984375 14.847656 L 23.919922 14.847656 L 23.896484 14.757812 L 23.830078 14.757812 L 23.806641 14.667969 L 23.740234 14.667969 L 23.716797 14.578125 L 23.648438 14.578125 L 23.625 14.488281 L 23.558594 14.488281 L 23.533203 14.396484 L 23.466797 14.396484 L 23.441406 14.302734 L 23.373047 14.302734 L 23.347656 14.210938 L 23.279297 14.210938 L 23.253906 14.115234 L 23.185547 14.115234 L 23.160156 14.021484 L 23.089844 14.021484 L 23.064453 13.925781 L 22.994141 13.925781 L 22.96875 13.830078 L 22.896484 13.830078 L 22.871094 13.732422 L 22.798828 13.732422 L 22.773438 13.634766 L 22.701172 13.634766 L 22.675781 13.537109 L 22.603516 13.537109 L 22.576172 13.4375 L 22.503906 13.4375 L 22.476562 13.337891 L 22.402344 13.337891 L 22.375 13.236328 L 22.300781 13.236328 L 22.273438 13.136719 L 22.199219 13.136719 L 22.171875 13.033203 L 22.097656 13.033203 L 22.070312 12.931641 L 21.992188 12.931641 L 21.964844 12.828125 L 21.888672 12.828125 L 21.861328 12.722656 L 21.783203 12.722656 L 21.755859 12.617188 L 21.677734 12.617188 L 21.650391 12.511719 L 21.572266 12.511719 L 21.544922 12.40625 L 21.466797 12.40625 L 21.4375 12.298828 L 21.357422 12.298828 L 21.328125 12.189453 L 21.25 12.189453 L 21.220703 12.082031 L 21.138672 12.082031 L 21.109375 11.972656 L 21.029297 11.972656 L 21 11.861328 L 20.917969 11.861328 L 20.888672 11.75 L 20.806641 11.75 L 20.777344 11.638672 L 20.693359 11.638672 L 20.664062 11.527344 L 20.580078 11.527344 L 20.550781 11.414062 L 20.46875 11.414062 L 20.4375 11.298828 L 20.353516 11.298828 L 20.322266 11.183594 L 20.238281 11.183594 L 20.207031 11.068359 L 20.123047 11.068359 L 20.091797 10.953125 L 20.005859 10.953125 L 19.974609 10.835938 L 19.888672 10.835938 L 19.857422 10.71875 L 19.769531 10.71875 L 19.738281 10.599609 L 19.650391 10.599609 L 19.619141 10.480469 L 19.529297 10.480469 L 19.498047 10.361328 L 19.412109 10.361328 L 19.378906 10.240234 L 19.291016 10.240234 L 19.257812 10.119141 L 19.167969 10.119141 L 19.134766 9.9960938 L 19.044922 9.9960938 L 19.011719 9.8730469 L 18.921875 9.8730469 L 18.888672 9.75 L 18.796875 9.75 L 18.763672 9.625 L 18.671875 9.625 L 18.638672 9.5 L 18.546875 9.5 L 18.513672 9.375 L 18.419922 9.375 L 18.386719 9.2480469 L 18.292969 9.2480469 L 18.259766 9.1210938 L 18.166016 9.1210938 L 18.130859 8.9921875 L 18.037109 8.9921875 L 18.001953 8.8632812 L 17.908203 8.8632812 L 17.873047 8.734375 L 17.777344 8.734375 L 17.742188 8.6035156 L 17.646484 8.6035156 L 17.611328 8.4726562 L 17.513672 8.4726562 L 17.478516 8.3417969 L 17.382812 8.3417969 L 17.347656 8.2089844 L 17.248047 8.2089844 L 17.212891 8.0742188 L 17.115234 8.0742188 L 17.080078 7.9414062 L 16.980469 7.9414062 L 16.945312 7.8066406 L 16.845703 7.8066406 L 16.808594 7.6699219 L 16.707031 7.6699219 L 16.671875 7.5351562 L 16.572266 7.5351562 L 16.535156 7.3964844 L 16.435547 7.3964844 L 16.398438 7.2597656 L 16.296875 7.2597656 L 16.259766 7.1210938 L 16.158203 7.1210938 L 16.121094 6.9824219 L 16.017578 6.9824219 L 15.980469 6.8417969 L 15.876953 6.8417969 L 15.839844 6.7011719 L 15.734375 6.7011719 L 15.697266 6.5605469 L 15.59375 6.5605469 L 15.556641 6.4179688 L 15.449219 6.4179688 L 15.412109 6.2753906 L 15.308594 6.2753906 L 15.269531 6.1308594 L 15.164062 6.1308594 L 15.125 5.9863281 L 15.019531 5.9863281 L 14.980469 5.8417969 L 14.873047 5.8417969 L 14.833984 5.6953125 L 14.726562 5.6953125 L 14.6875 5.5488281 L 14.578125 5.5488281 L 14.539062 5.4023438 L 14.431641 5.4023438 L 14.392578 5.2539062 L 5.90625 5.2539062 z "
       id="path4329"
       style="fill-opacity:1;fill:url(#linearGradient5202);opacity:0.2"
       clip-path="url(#clipPath5207)" />
    <path
       d="m 3.9999777,4.0333382 12.0000003,0 0,11.9333328 -12.0000003,0 z"
       id="path4"
       inkscape:connector-curvature="0"
       style="fill:none" />
    <path
       style="fill:none"
       inkscape:connector-curvature="0"
       id="path9754"
       d="m 18.999978,19.033339 12,0 0,11.933333 -12,0 z" />
    <path
       inkscape:connector-curvature="0"
       d="m 14.242798,5.1044434 0.75718,2.8394256 -0.626632,0.1697128 C 14.079612,7.5456966 13.779351,6.9778116 13.433398,6.6906053 13.087445,6.4099265 12.682746,6.4099265 12.284573,6.4099265 l -1.631853,0 0,6.8537855 c 0,0.326371 0,0.652742 0.215404,0.815927 0.221932,0.163186 0.652742,0.163186 1.090079,0.163186 l 0,0.652741 -3.9164503,0 0,-0.652741 c 0.437337,0 0.868147,0 1.090079,-0.163186 0.215404,-0.163185 0.215404,-0.489556 0.215404,-0.815927 l 0,-6.8537855 -1.631853,0 c -0.398173,0 -0.802872,0 -1.148825,0.2806788 -0.345953,0.2872063 -0.646214,0.8550913 -0.939948,1.4229765 l -0.626632,-0.1697128 0.75718,-2.8394256 8.4856403,0 z"
       id="path4249"
       style="fill:#ffc107" />
  </g>
</svg>
