<?xml version="1.0" encoding="UTF-8" standalone="no"?>
<!-- Created with Inkscape (http://www.inkscape.org/) -->

<svg
   xmlns:dc="http://purl.org/dc/elements/1.1/"
   xmlns:cc="http://creativecommons.org/ns#"
   xmlns:rdf="http://www.w3.org/1999/02/22-rdf-syntax-ns#"
   xmlns:svg="http://www.w3.org/2000/svg"
   xmlns="http://www.w3.org/2000/svg"
   xmlns:xlink="http://www.w3.org/1999/xlink"
   xmlns:sodipodi="http://sodipodi.sourceforge.net/DTD/sodipodi-0.dtd"
   xmlns:inkscape="http://www.inkscape.org/namespaces/inkscape"
   width="5.6444445mm"
   height="5.6444445mm"
   viewBox="0 0 20 20"
   id="svg2"
   version="1.1"
   inkscape:version="0.91 r13725"
   sodipodi:docname="Octa.svg"
   inkscape:export-filename="/home/juergen/Projekte/Android/Android_Studio/Baumann_Theme/theme/src/main/assets/icons/res/drawable-xxhdpi/a100.png"
   inkscape:export-xdpi="648"
   inkscape:export-ydpi="648">
  <sodipodi:namedview
     id="base"
     pagecolor="#ffffff"
     bordercolor="#666666"
     borderopacity="1.0"
     inkscape:pageopacity="0.0"
     inkscape:pageshadow="2"
     inkscape:zoom="22.4"
     inkscape:cx="-2.9604513"
     inkscape:cy="10.621075"
     inkscape:document-units="px"
     inkscape:current-layer="layer2"
     showgrid="false"
     fit-margin-top="0"
     fit-margin-left="0"
     fit-margin-right="0"
     fit-margin-bottom="0"
     showguides="true"
     inkscape:guide-bbox="true"
     inkscape:window-width="1366"
     inkscape:window-height="744"
     inkscape:window-x="0"
     inkscape:window-y="24"
     inkscape:window-maximized="1"
     inkscape:snap-grids="true"
     inkscape:snap-to-guides="false"
     inkscape:snap-page="true">
    <inkscape:grid
       type="xygrid"
       id="grid4138" />
    <sodipodi:guide
       position="10,18"
       orientation="0,1"
       id="guide4140" />
    <sodipodi:guide
       position="10,2"
       orientation="0,1"
       id="guide4142" />
    <sodipodi:guide
       position="2,10"
       orientation="1,0"
       id="guide4144" />
    <sodipodi:guide
       position="0,0"
       orientation="0,20"
       id="guide4146" />
    <sodipodi:guide
       position="20,0"
       orientation="-20,0"
       id="guide4148" />
    <sodipodi:guide
       position="20,20"
       orientation="0,-20"
       id="guide4150" />
    <sodipodi:guide
       position="0,20"
       orientation="20,0"
       id="guide4152" />
    <sodipodi:guide
       position="18,10"
       orientation="1,0"
       id="guide4154" />
    <sodipodi:guide
       position="10,10"
       orientation="-0.70710678,0.70710678"
       id="guide4156" />
    <sodipodi:guide
       position="4,10"
       orientation="1,0"
       id="guide4160" />
    <sodipodi:guide
       position="16,10"
       orientation="1,0"
       id="guide4162" />
    <sodipodi:guide
       position="10,4"
       orientation="0,1"
       id="guide4166" />
    <sodipodi:guide
       position="10,15"
       orientation="0,1"
       id="guide4168" />
    <sodipodi:guide
       position="10,5"
       orientation="0,1"
       id="guide4170" />
    <sodipodi:guide
       position="5,10"
       orientation="1,0"
       id="guide4172" />
    <sodipodi:guide
       position="15,10"
       orientation="1,0"
       id="guide4174" />
  </sodipodi:namedview>
  <defs
     id="defs4">
    <linearGradient
       inkscape:collect="always"
       id="linearGradient15490">
      <stop
         style="stop-color:#000000;stop-opacity:0.2"
         offset="0"
         id="stop15492" />
      <stop
         style="stop-color:#000000;stop-opacity:0;"
         offset="1"
         id="stop15494" />
    </linearGradient>
    <clipPath
       id="clipPath12478"
       clipPathUnits="userSpaceOnUse">
      <circle
         r="10"
         cy="10.000005"
         cx="9.9999781"
         id="circle12480"
         style="opacity:1;fill:#2196f3;fill-opacity:1;stroke:none;stroke-width:0.05069799;stroke-miterlimit:4;stroke-dasharray:none;stroke-opacity:1" />
    </clipPath>
    <clipPath
       clipPathUnits="userSpaceOnUse"
       id="clipPath5790">
      <circle
         r="10"
         cy="10.000005"
         cx="9.9999781"
         id="circle5792"
         style="opacity:1;fill:#2196f3;fill-opacity:1;stroke:none;stroke-width:0.05069799;stroke-miterlimit:4;stroke-dasharray:none;stroke-opacity:1"
         inkscape:export-filename="/home/juergen/path4136.png"
         inkscape:export-xdpi="648"
         inkscape:export-ydpi="648" />
    </clipPath>
    <clipPath
       id="clipPath5055"
       clipPathUnits="userSpaceOnUse">
      <circle
         r="10"
         cy="10.000005"
         cx="9.9999781"
         id="circle5057"
         style="opacity:1;fill:#2196f3;fill-opacity:1;stroke:none;stroke-width:0.05069799;stroke-miterlimit:4;stroke-dasharray:none;stroke-opacity:1"
         inkscape:export-filename="/home/juergen/path4136.png"
         inkscape:export-xdpi="648"
         inkscape:export-ydpi="648" />
    </clipPath>
    <clipPath
       clipPathUnits="userSpaceOnUse"
       id="clipPath5119">
      <circle
         r="10"
         cy="10.000005"
         cx="9.9999781"
         id="circle5121"
         style="opacity:1;fill:#2196f3;fill-opacity:1;stroke:none;stroke-width:0.05069799;stroke-miterlimit:4;stroke-dasharray:none;stroke-opacity:1"
         inkscape:export-filename="/home/juergen/Schreibtisch/path4136.png"
         inkscape:export-xdpi="648"
         inkscape:export-ydpi="648" />
    </clipPath>
    <clipPath
       id="clipPath5194"
       clipPathUnits="userSpaceOnUse">
      <circle
         r="10"
         cy="10.000005"
         cx="9.9999781"
         id="circle5196"
         style="opacity:1;fill:#cddc39;fill-opacity:1;stroke:none;stroke-width:0.05069799;stroke-miterlimit:4;stroke-dasharray:none;stroke-opacity:1"
         inkscape:export-filename="/home/juergen/Schreibtisch/path4136.png"
         inkscape:export-xdpi="648"
         inkscape:export-ydpi="648" />
    </clipPath>
    <clipPath
       clipPathUnits="userSpaceOnUse"
       id="clipPath6175">
      <circle
         r="10"
         cy="10.000005"
         cx="9.9999781"
         id="circle6177"
         style="opacity:1;fill:#f44336;fill-opacity:1;stroke:none;stroke-width:0.05069799;stroke-miterlimit:4;stroke-dasharray:none;stroke-opacity:1"
         inkscape:export-filename="/home/juergen/Schreibtisch/path4136.png"
         inkscape:export-xdpi="648"
         inkscape:export-ydpi="648" />
    </clipPath>
    <clipPath
       id="clipPath7176"
       clipPathUnits="userSpaceOnUse">
      <circle
         r="10"
         cy="10.000005"
         cx="9.9999781"
         id="circle7178"
         style="opacity:1;fill:#9c27b0;fill-opacity:1;stroke:none;stroke-width:0.05069799;stroke-miterlimit:4;stroke-dasharray:none;stroke-opacity:1"
         inkscape:export-filename="/home/juergen/Schreibtisch/path4136.png"
         inkscape:export-xdpi="648"
         inkscape:export-ydpi="648" />
    </clipPath>
    <clipPath
       clipPathUnits="userSpaceOnUse"
       id="clipPath8165">
      <circle
         r="10"
         cy="10.000005"
         cx="9.9999781"
         id="circle8167"
         style="opacity:1;fill:#ffc107;fill-opacity:1;stroke:none;stroke-width:0.05069799;stroke-miterlimit:4;stroke-dasharray:none;stroke-opacity:1"
         inkscape:export-filename="/home/juergen/Schreibtisch/path4136.png"
         inkscape:export-xdpi="648"
         inkscape:export-ydpi="648" />
    </clipPath>
    <clipPath
       id="clipPath9162"
       clipPathUnits="userSpaceOnUse">
      <circle
         r="10"
         cy="10.000005"
         cx="9.9999781"
         id="circle9164"
         style="opacity:1;fill:#ff9800;fill-opacity:1;stroke:none;stroke-width:0.05069799;stroke-miterlimit:4;stroke-dasharray:none;stroke-opacity:1"
         inkscape:export-filename="/home/juergen/Schreibtisch/path4136.png"
         inkscape:export-xdpi="648"
         inkscape:export-ydpi="648" />
    </clipPath>
    <clipPath
       clipPathUnits="userSpaceOnUse"
       id="clipPath5147">
      <circle
         r="10"
         cy="10.000005"
         cx="9.9999781"
         id="circle5149"
         style="opacity:1;fill:#ff9800;fill-opacity:1;stroke:none;stroke-width:0.05069799;stroke-miterlimit:4;stroke-dasharray:none;stroke-opacity:1"
         inkscape:export-filename="/home/juergen/Schreibtisch/path4136.png"
         inkscape:export-xdpi="648"
         inkscape:export-ydpi="648" />
    </clipPath>
    <clipPath
       id="clipPath6144"
       clipPathUnits="userSpaceOnUse">
      <circle
         r="10"
         cy="10.000005"
         cx="9.9999781"
         id="circle6146"
         style="opacity:1;fill:#e91e63;fill-opacity:1;stroke:none;stroke-width:0.05069799;stroke-miterlimit:4;stroke-dasharray:none;stroke-opacity:1"
         inkscape:export-filename="/home/juergen/Schreibtisch/path4136.png"
         inkscape:export-xdpi="648"
         inkscape:export-ydpi="648" />
    </clipPath>
    <clipPath
       clipPathUnits="userSpaceOnUse"
       id="clipPath7143">
      <circle
         r="10"
         cy="10.000005"
         cx="9.9999781"
         id="circle7145"
         style="opacity:1;fill:#ffeb3b;fill-opacity:1;stroke:none;stroke-width:0.05069799;stroke-miterlimit:4;stroke-dasharray:none;stroke-opacity:1"
         inkscape:export-filename="/home/juergen/Schreibtisch/path4136.png"
         inkscape:export-xdpi="648"
         inkscape:export-ydpi="648" />
    </clipPath>
    <clipPath
       id="clipPath8148"
       clipPathUnits="userSpaceOnUse">
      <circle
         r="10"
         cy="10.000005"
         cx="9.9999781"
         id="circle8150"
         style="opacity:1;fill:#9c27b0;fill-opacity:1;stroke:none;stroke-width:0.05069799;stroke-miterlimit:4;stroke-dasharray:none;stroke-opacity:1"
         inkscape:export-filename="/home/juergen/Schreibtisch/path4136.png"
         inkscape:export-xdpi="648"
         inkscape:export-ydpi="648" />
    </clipPath>
    <clipPath
       clipPathUnits="userSpaceOnUse"
       id="clipPath5332">
      <circle
         r="10"
         cy="10.000005"
         cx="9.9999781"
         id="circle5334"
         style="opacity:1;fill:#f44336;fill-opacity:1;stroke:none;stroke-width:0.05069799;stroke-miterlimit:4;stroke-dasharray:none;stroke-opacity:1"
         inkscape:export-filename="/home/juergen/Schreibtisch/path4136.png"
         inkscape:export-xdpi="648"
         inkscape:export-ydpi="648" />
    </clipPath>
    <clipPath
       id="clipPath6341"
       clipPathUnits="userSpaceOnUse">
      <circle
         r="10"
         cy="10.000005"
         cx="9.9999781"
         id="circle6343"
         style="opacity:1;fill:#4caf50;fill-opacity:1;stroke:none;stroke-width:0.05069799;stroke-miterlimit:4;stroke-dasharray:none;stroke-opacity:1"
         inkscape:export-filename="/home/juergen/Schreibtisch/path4136.png"
         inkscape:export-xdpi="648"
         inkscape:export-ydpi="648" />
    </clipPath>
    <clipPath
       clipPathUnits="userSpaceOnUse"
       id="clipPath7354">
      <circle
         r="10"
         cy="10.000005"
         cx="9.9999781"
         id="circle7356"
         style="opacity:1;fill:#f44336;fill-opacity:1;stroke:none;stroke-width:0.05069799;stroke-miterlimit:4;stroke-dasharray:none;stroke-opacity:1"
         inkscape:export-filename="/home/juergen/Schreibtisch/path4136.png"
         inkscape:export-xdpi="648"
         inkscape:export-ydpi="648" />
    </clipPath>
    <clipPath
       id="clipPath8344"
       clipPathUnits="userSpaceOnUse">
      <circle
         r="10"
         cy="10.000005"
         cx="9.9999781"
         id="circle8346"
         style="opacity:1;fill:#673ab7;fill-opacity:1;stroke:none;stroke-width:0.05069799;stroke-miterlimit:4;stroke-dasharray:none;stroke-opacity:1"
         inkscape:export-filename="/home/juergen/Schreibtisch/path4136.png"
         inkscape:export-xdpi="648"
         inkscape:export-ydpi="648" />
    </clipPath>
    <clipPath
       clipPathUnits="userSpaceOnUse"
       id="clipPath9436">
      <circle
         r="10"
         cy="10.000005"
         cx="9.9999781"
         id="circle9438"
         style="opacity:1;fill:#9e9e9e;fill-opacity:1;stroke:none;stroke-width:0.05069799;stroke-miterlimit:4;stroke-dasharray:none;stroke-opacity:1"
         inkscape:export-filename="/home/juergen/Schreibtisch/path4136.png"
         inkscape:export-xdpi="648"
         inkscape:export-ydpi="648" />
    </clipPath>
    <clipPath
       id="clipPath10432"
       clipPathUnits="userSpaceOnUse">
      <circle
         r="10"
         cy="10.000005"
         cx="9.9999781"
         id="circle10434"
         style="opacity:1;fill:#795548;fill-opacity:1;stroke:none;stroke-width:0.05069799;stroke-miterlimit:4;stroke-dasharray:none;stroke-opacity:1"
         inkscape:export-filename="/home/juergen/Schreibtisch/path4136.png"
         inkscape:export-xdpi="648"
         inkscape:export-ydpi="648" />
    </clipPath>
    <clipPath
       clipPathUnits="userSpaceOnUse"
       id="clipPath11433">
      <circle
         r="10"
         cy="10.000005"
         cx="9.9999781"
         id="circle11435"
         style="opacity:1;fill:#03a9f4;fill-opacity:1;stroke:none;stroke-width:0.05069799;stroke-miterlimit:4;stroke-dasharray:none;stroke-opacity:1"
         inkscape:export-filename="/home/juergen/Schreibtisch/path4136.png"
         inkscape:export-xdpi="648"
         inkscape:export-ydpi="648" />
    </clipPath>
    <clipPath
       id="clipPath12452"
       clipPathUnits="userSpaceOnUse">
      <circle
         r="10"
         cy="10.000005"
         cx="9.9999781"
         id="circle12454"
         style="opacity:1;fill:#ffc107;fill-opacity:1;stroke:none;stroke-width:0.05069799;stroke-miterlimit:4;stroke-dasharray:none;stroke-opacity:1"
         inkscape:export-filename="/home/juergen/Schreibtisch/path4136.png"
         inkscape:export-xdpi="648"
         inkscape:export-ydpi="648" />
    </clipPath>
    <clipPath
       clipPathUnits="userSpaceOnUse"
       id="clipPath13465">
      <circle
         r="10"
         cy="10.000005"
         cx="9.9999781"
         id="circle13467"
         style="opacity:1;fill:#e91e63;fill-opacity:1;stroke:none;stroke-width:0.05069799;stroke-miterlimit:4;stroke-dasharray:none;stroke-opacity:1"
         inkscape:export-filename="/home/juergen/Schreibtisch/path4136.png"
         inkscape:export-xdpi="648"
         inkscape:export-ydpi="648" />
    </clipPath>
    <clipPath
       id="clipPath14480"
       clipPathUnits="userSpaceOnUse">
      <circle
         r="10"
         cy="10.000005"
         cx="9.9999781"
         id="circle14482"
         style="opacity:1;fill:#607d8b;fill-opacity:1;stroke:none;stroke-width:0.05069799;stroke-miterlimit:4;stroke-dasharray:none;stroke-opacity:1"
         inkscape:export-filename="/home/juergen/Schreibtisch/path4136.png"
         inkscape:export-xdpi="648"
         inkscape:export-ydpi="648" />
    </clipPath>
    <linearGradient
       inkscape:collect="always"
       xlink:href="#linearGradient15490"
       id="linearGradient15496"
       x1="10.089286"
       y1="10.044643"
       x2="20"
       y2="20"
       gradientUnits="userSpaceOnUse" />
    <clipPath
       clipPathUnits="userSpaceOnUse"
       id="clipPath15501">
      <circle
         r="10"
         cy="10.000005"
         cx="9.9999781"
         id="circle15503"
         style="opacity:1;fill:#4caf50;fill-opacity:1;stroke:none;stroke-width:0.05069799;stroke-miterlimit:4;stroke-dasharray:none;stroke-opacity:1"
         inkscape:export-filename="/home/juergen/Schreibtisch/path4136.png"
         inkscape:export-xdpi="648"
         inkscape:export-ydpi="648" />
    </clipPath>
  </defs>
  <metadata
     id="metadata7">
    <rdf:RDF>
      <cc:Work
         rdf:about="">
        <dc:format>image/svg+xml</dc:format>
        <dc:type
           rdf:resource="http://purl.org/dc/dcmitype/StillImage" />
        <dc:title />
      </cc:Work>
    </rdf:RDF>
  </metadata>
  <g
     inkscape:label="Hintergrund"
     inkscape:groupmode="layer"
     id="layer1"
     transform="translate(1058.1428,-861.93365)">
    <circle
       inkscape:export-ydpi="648"
       inkscape:export-xdpi="648"
       inkscape:export-filename="/home/juergen/Schreibtisch/path4136.png"
       style="opacity:1;fill:#eeeeee;fill-opacity:1;stroke:none;stroke-width:0.05069799;stroke-miterlimit:4;stroke-dasharray:none;stroke-opacity:1"
       id="path4136"
       cx="-1048.1428"
       cy="871.93365"
       r="10" />
    <path
       inkscape:connector-curvature="0"
       id="path12456"
       d="m -1050.6874,868.40686 0.1339,3.79465 0.2678,0.89285 1.1161,0.75893 1.5179,0.0446 1.6071,-0.40178 0.5357,-1.25 -0.1339,-3.83929 -4.9107,0 z"
       style="fill:none;fill-rule:evenodd;stroke:none;stroke-width:1px;stroke-linecap:butt;stroke-linejoin:miter;stroke-opacity:1" />
  </g>
  <g
     style="display:inline"
     inkscape:groupmode="layer"
     id="layer2"
     inkscape:label="Icon">
    <path
       d="m 3.9999777,4.0333382 12.0000003,0 0,11.9333328 -12.0000003,0 z"
       id="path4"
       inkscape:connector-curvature="0"
       style="fill:none" />
    <path
       style="fill:none"
       inkscape:connector-curvature="0"
       id="path9956"
       d="m 18.999978,19.033339 12,0 0,11.933333 -12,0 z" />
    <path
       style="fill:url(#linearGradient15496);fill-opacity:1;stroke-width:0.2;stroke-linejoin:round"
       d="M 9.4902344 5.1542969 L 6.1484375 7.0859375 L 5.1484375 10.8125 L 7.0800781 14.154297 L 7.1523438 14.173828 L 7.2285156 14.306641 L 7.296875 14.324219 L 7.375 14.458984 L 7.4433594 14.476562 L 7.5214844 14.611328 L 7.5917969 14.630859 L 7.6679688 14.761719 L 7.7363281 14.779297 L 7.8125 14.912109 L 7.8828125 14.931641 L 7.9570312 15.060547 L 8.0273438 15.080078 L 8.1015625 15.208984 L 8.1679688 15.226562 L 8.2441406 15.357422 L 8.3125 15.375 L 8.3867188 15.503906 L 8.453125 15.521484 L 8.5273438 15.650391 L 8.5957031 15.667969 L 8.6679688 15.794922 L 8.7363281 15.8125 L 8.8085938 15.939453 L 8.8730469 15.957031 L 8.9472656 16.083984 L 9.0136719 16.101562 L 9.0859375 16.226562 L 9.1523438 16.244141 L 9.2246094 16.369141 L 9.2890625 16.386719 L 9.3613281 16.511719 L 9.4277344 16.529297 L 9.4980469 16.652344 L 9.5625 16.669922 L 9.6328125 16.791016 L 9.6953125 16.808594 L 9.7675781 16.931641 L 9.8320312 16.949219 L 9.9023438 17.070312 L 9.9667969 17.087891 L 10.035156 17.207031 L 10.099609 17.224609 L 10.167969 17.34375 L 10.228516 17.359375 L 10.298828 17.480469 L 10.361328 17.498047 L 10.429688 17.615234 L 10.492188 17.632812 L 10.560547 17.75 L 10.621094 17.765625 L 10.689453 17.884766 L 10.751953 17.900391 L 10.818359 18.017578 L 10.880859 18.033203 L 10.947266 18.150391 L 11.007812 18.166016 L 11.074219 18.28125 L 11.134766 18.296875 L 11.201172 18.412109 L 11.259766 18.427734 L 11.326172 18.542969 L 11.386719 18.558594 L 11.451172 18.671875 L 11.511719 18.6875 L 11.576172 18.800781 L 11.634766 18.816406 L 11.699219 18.927734 L 11.757812 18.943359 L 11.822266 19.054688 L 11.880859 19.070312 L 11.945312 19.181641 L 12.003906 19.197266 L 12.066406 19.306641 L 12.125 19.322266 L 12.1875 19.431641 L 12.244141 19.447266 L 12.306641 19.554688 L 12.363281 19.570312 L 12.425781 19.677734 L 12.482422 19.693359 L 12.544922 19.800781 L 12.601562 19.816406 L 12.662109 19.921875 L 12.71875 19.9375 L 12.779297 20.042969 L 12.832031 20.056641 L 12.894531 20.164062 L 12.951172 20.179688 L 13.011719 20.283203 L 13.066406 20.296875 L 13.125 20.400391 L 13.179688 20.416016 L 13.240234 20.519531 L 13.294922 20.533203 L 13.353516 20.636719 L 13.40625 20.650391 L 13.464844 20.751953 L 13.517578 20.765625 L 13.576172 20.867188 L 13.628906 20.880859 L 13.6875 20.982422 L 13.742188 20.996094 L 13.798828 21.095703 L 13.851562 21.109375 L 13.908203 21.208984 L 13.960938 21.222656 L 14.017578 21.322266 L 14.068359 21.335938 L 14.125 21.433594 L 14.175781 21.447266 L 14.232422 21.544922 L 14.283203 21.558594 L 14.337891 21.654297 L 14.390625 21.667969 L 14.445312 21.763672 L 14.492188 21.777344 L 14.548828 21.873047 L 14.599609 21.886719 L 14.654297 21.980469 L 14.703125 21.994141 L 14.757812 22.087891 L 14.806641 22.101562 L 14.859375 22.193359 L 14.910156 22.207031 L 14.962891 22.298828 L 15.011719 22.3125 L 15.064453 22.404297 L 15.111328 22.416016 L 15.164062 22.507812 L 15.210938 22.519531 L 15.263672 22.611328 L 15.3125 22.625 L 15.363281 22.712891 L 15.410156 22.724609 L 15.460938 22.814453 L 15.507812 22.826172 L 15.558594 22.916016 L 15.605469 22.927734 L 15.65625 23.015625 L 15.701172 23.027344 L 15.751953 23.115234 L 15.796875 23.126953 L 15.847656 23.214844 L 15.894531 23.226562 L 15.943359 23.3125 L 15.988281 23.324219 L 16.037109 23.408203 L 16.078125 23.419922 L 16.128906 23.505859 L 16.173828 23.517578 L 16.222656 23.601562 L 16.267578 23.613281 L 16.314453 23.695312 L 16.357422 23.707031 L 16.404297 23.789062 L 16.447266 23.800781 L 16.494141 23.882812 L 16.537109 23.894531 L 16.583984 23.974609 L 16.626953 23.986328 L 16.673828 24.066406 L 16.714844 24.078125 L 16.761719 24.158203 L 16.802734 24.169922 L 16.847656 24.248047 L 16.890625 24.259766 L 16.935547 24.337891 L 16.976562 24.349609 L 17.021484 24.425781 L 17.060547 24.435547 L 17.105469 24.513672 L 17.144531 24.523438 L 17.189453 24.601562 L 17.230469 24.613281 L 17.273438 24.6875 L 17.3125 24.697266 L 17.355469 24.773438 L 17.394531 24.783203 L 17.4375 24.857422 L 17.476562 24.867188 L 17.519531 24.941406 L 17.556641 24.951172 L 17.599609 25.025391 L 17.638672 25.035156 L 17.679688 25.107422 L 17.71875 25.117188 L 17.759766 25.189453 L 17.796875 25.199219 L 17.837891 25.269531 L 17.875 25.279297 L 17.916016 25.349609 L 17.951172 25.359375 L 17.992188 25.429688 L 18.029297 25.439453 L 18.068359 25.507812 L 18.103516 25.517578 L 18.142578 25.585938 L 18.179688 25.595703 L 18.21875 25.664062 L 18.251953 25.673828 L 18.291016 25.740234 L 18.328125 25.75 L 18.365234 25.814453 L 18.398438 25.824219 L 18.4375 25.890625 L 18.472656 25.900391 L 18.509766 25.964844 L 18.542969 25.974609 L 18.580078 26.037109 L 18.613281 26.046875 L 18.650391 26.109375 L 18.681641 26.117188 L 18.71875 26.181641 L 18.753906 26.191406 L 18.789062 26.251953 L 18.820312 26.259766 L 18.855469 26.322266 L 18.888672 26.332031 L 18.923828 26.392578 L 18.955078 26.400391 L 18.990234 26.460938 L 19.019531 26.46875 L 19.054688 26.529297 L 19.087891 26.539062 L 19.121094 26.595703 L 19.152344 26.603516 L 19.185547 26.662109 L 19.214844 26.669922 L 19.248047 26.728516 L 19.277344 26.736328 L 19.310547 26.792969 L 19.339844 26.800781 L 19.373047 26.857422 L 19.402344 26.865234 L 19.433594 26.919922 L 19.462891 26.927734 L 19.494141 26.982422 L 19.523438 26.990234 L 19.554688 27.044922 L 19.582031 27.052734 L 19.613281 27.105469 L 19.640625 27.113281 L 19.671875 27.166016 L 19.701172 27.173828 L 19.730469 27.224609 L 19.757812 27.232422 L 19.787109 27.283203 L 19.8125 27.289062 L 19.841797 27.341797 L 19.869141 27.349609 L 19.898438 27.398438 L 19.923828 27.40625 L 19.953125 27.455078 L 19.976562 27.460938 L 20.005859 27.511719 L 20.03125 27.517578 L 20.058594 27.566406 L 20.083984 27.574219 L 20.111328 27.619141 L 20.136719 27.625 L 20.164062 27.673828 L 20.1875 27.679688 L 20.214844 27.726562 L 20.238281 27.732422 L 20.263672 27.777344 L 20.289062 27.783203 L 20.314453 27.828125 L 20.335938 27.833984 L 20.361328 27.878906 L 20.384766 27.884766 L 20.410156 27.927734 L 20.431641 27.933594 L 20.457031 27.976562 L 20.478516 27.982422 L 20.503906 28.025391 L 20.525391 28.03125 L 20.548828 28.072266 L 20.570312 28.078125 L 20.59375 28.119141 L 20.615234 28.125 L 20.638672 28.164062 L 20.658203 28.169922 L 20.681641 28.208984 L 20.701172 28.214844 L 20.724609 28.253906 L 20.744141 28.259766 L 20.765625 28.296875 L 20.787109 28.302734 L 20.808594 28.339844 L 20.826172 28.34375 L 20.847656 28.380859 L 20.867188 28.386719 L 20.888672 28.421875 L 20.90625 28.425781 L 20.927734 28.462891 L 20.945312 28.466797 L 20.964844 28.501953 L 20.982422 28.505859 L 21.001953 28.541016 L 21.019531 28.546875 L 21.039062 28.578125 L 21.056641 28.583984 L 21.076172 28.615234 L 21.091797 28.619141 L 21.111328 28.652344 L 21.126953 28.65625 L 21.144531 28.6875 L 21.162109 28.691406 L 21.179688 28.722656 L 21.195312 28.726562 L 21.212891 28.757812 L 21.226562 28.761719 L 21.244141 28.791016 L 21.259766 28.794922 L 21.275391 28.822266 L 21.289062 28.826172 L 21.306641 28.855469 L 21.320312 28.859375 L 21.335938 28.886719 L 21.349609 28.890625 L 21.365234 28.916016 L 21.378906 28.919922 L 21.394531 28.945312 L 21.40625 28.949219 L 21.421875 28.974609 L 21.435547 28.978516 L 21.449219 29.001953 L 21.462891 29.005859 L 21.476562 29.029297 L 21.488281 29.033203 L 21.501953 29.056641 L 21.513672 29.060547 L 21.527344 29.082031 L 21.537109 29.083984 L 21.550781 29.107422 L 21.5625 29.111328 L 21.574219 29.130859 L 21.583984 29.132812 L 21.595703 29.154297 L 21.607422 29.158203 L 21.619141 29.177734 L 21.628906 29.179688 L 21.640625 29.199219 L 21.648438 29.201172 L 21.660156 29.220703 L 21.669922 29.222656 L 21.679688 29.240234 L 21.689453 29.242188 L 21.699219 29.259766 L 21.707031 29.261719 L 21.716797 29.279297 L 21.724609 29.28125 L 21.734375 29.296875 L 21.742188 29.298828 L 21.751953 29.314453 L 21.759766 29.316406 L 21.767578 29.330078 L 21.775391 29.332031 L 21.783203 29.345703 L 21.789062 29.347656 L 21.796875 29.361328 L 21.802734 29.363281 L 21.810547 29.375 L 21.816406 29.376953 L 21.824219 29.388672 L 21.828125 29.390625 L 21.835938 29.402344 L 21.841797 29.404297 L 21.847656 29.414062 L 21.851562 29.416016 L 21.857422 29.423828 L 21.861328 29.423828 L 21.867188 29.435547 L 21.871094 29.4375 L 21.876953 29.445312 L 21.882812 29.447266 L 21.886719 29.453125 L 21.890625 29.455078 L 21.894531 29.460938 L 21.896484 29.460938 L 21.900391 29.46875 L 21.902344 29.46875 L 21.90625 29.474609 L 21.908203 29.474609 L 21.912109 29.480469 L 21.914062 29.480469 L 21.917969 29.486328 L 21.919922 29.486328 L 21.921875 29.490234 L 21.923828 29.490234 L 21.925781 29.494141 L 21.927734 29.496094 L 21.929688 29.498047 L 21.929688 29.5 L 24.869141 30.287109 L 25.658203 30.498047 L 29 28.570312 L 30 24.84375 L 29.998047 24.841797 L 28.070312 21.5 L 28.068359 21.5 L 28.068359 21.498047 L 28.066406 21.498047 L 28.066406 21.496094 L 28.064453 21.496094 L 28.064453 21.494141 L 28.0625 21.494141 L 28.060547 21.490234 L 28.058594 21.490234 L 28.056641 21.486328 L 28.054688 21.486328 L 28.050781 21.480469 L 28.048828 21.480469 L 28.046875 21.476562 L 28.042969 21.474609 L 28.039062 21.46875 L 28.037109 21.46875 L 28.033203 21.460938 L 28.029297 21.458984 L 28.025391 21.453125 L 28.019531 21.451172 L 28.015625 21.445312 L 28.013672 21.445312 L 28.007812 21.435547 L 28 21.433594 L 27.996094 21.425781 L 27.992188 21.425781 L 27.986328 21.414062 L 27.980469 21.412109 L 27.974609 21.402344 L 27.970703 21.400391 L 27.962891 21.388672 L 27.955078 21.386719 L 27.949219 21.375 L 27.941406 21.373047 L 27.935547 21.361328 L 27.929688 21.359375 L 27.921875 21.347656 L 27.916016 21.345703 L 27.90625 21.330078 L 27.898438 21.328125 L 27.890625 21.314453 L 27.880859 21.3125 L 27.873047 21.296875 L 27.865234 21.294922 L 27.855469 21.279297 L 27.847656 21.277344 L 27.837891 21.259766 L 27.828125 21.257812 L 27.818359 21.240234 L 27.808594 21.238281 L 27.798828 21.220703 L 27.791016 21.21875 L 27.779297 21.199219 L 27.767578 21.197266 L 27.757812 21.177734 L 27.748047 21.175781 L 27.736328 21.154297 L 27.724609 21.150391 L 27.712891 21.130859 L 27.701172 21.126953 L 27.689453 21.107422 L 27.679688 21.105469 L 27.666016 21.082031 L 27.652344 21.078125 L 27.640625 21.056641 L 27.628906 21.052734 L 27.615234 21.029297 L 27.599609 21.025391 L 27.587891 21.003906 L 27.576172 21 L 27.560547 20.974609 L 27.548828 20.970703 L 27.533203 20.945312 L 27.521484 20.941406 L 27.505859 20.916016 L 27.492188 20.912109 L 27.476562 20.886719 L 27.460938 20.882812 L 27.445312 20.855469 L 27.429688 20.851562 L 27.414062 20.824219 L 27.400391 20.820312 L 27.382812 20.791016 L 27.369141 20.787109 L 27.351562 20.757812 L 27.335938 20.753906 L 27.318359 20.722656 L 27.300781 20.71875 L 27.283203 20.6875 L 27.267578 20.683594 L 27.25 20.652344 L 27.232422 20.648438 L 27.214844 20.617188 L 27.197266 20.613281 L 27.177734 20.578125 L 27.160156 20.572266 L 27.140625 20.541016 L 27.123047 20.537109 L 27.103516 20.501953 L 27.085938 20.498047 L 27.066406 20.462891 L 27.048828 20.458984 L 27.027344 20.421875 L 27.007812 20.416016 L 26.986328 20.380859 L 26.96875 20.376953 L 26.947266 20.339844 L 26.927734 20.333984 L 26.90625 20.296875 L 26.884766 20.291016 L 26.863281 20.253906 L 26.84375 20.248047 L 26.820312 20.208984 L 26.800781 20.203125 L 26.777344 20.164062 L 26.755859 20.158203 L 26.732422 20.119141 L 26.710938 20.113281 L 26.6875 20.072266 L 26.666016 20.066406 L 26.642578 20.025391 L 26.621094 20.019531 L 26.595703 19.976562 L 26.572266 19.970703 L 26.548828 19.929688 L 26.527344 19.923828 L 26.501953 19.878906 L 26.478516 19.873047 L 26.453125 19.828125 L 26.427734 19.822266 L 26.402344 19.777344 L 26.378906 19.771484 L 26.353516 19.726562 L 26.330078 19.720703 L 26.302734 19.673828 L 26.277344 19.666016 L 26.25 19.621094 L 26.224609 19.615234 L 26.197266 19.566406 L 26.171875 19.560547 L 26.144531 19.511719 L 26.121094 19.505859 L 26.091797 19.455078 L 26.066406 19.447266 L 26.037109 19.398438 L 26.009766 19.390625 L 25.980469 19.341797 L 25.955078 19.333984 L 25.925781 19.285156 L 25.900391 19.277344 L 25.869141 19.224609 L 25.839844 19.216797 L 25.810547 19.166016 L 25.783203 19.158203 L 25.751953 19.105469 L 25.724609 19.097656 L 25.693359 19.044922 L 25.666016 19.037109 L 25.634766 18.982422 L 25.605469 18.974609 L 25.574219 18.919922 L 25.542969 18.912109 L 25.511719 18.857422 L 25.482422 18.849609 L 25.449219 18.792969 L 25.419922 18.785156 L 25.386719 18.728516 L 25.357422 18.720703 L 25.324219 18.662109 L 25.292969 18.654297 L 25.259766 18.595703 L 25.228516 18.587891 L 25.195312 18.529297 L 25.164062 18.521484 L 25.128906 18.460938 L 25.097656 18.453125 L 25.0625 18.392578 L 25.03125 18.384766 L 24.996094 18.322266 L 24.962891 18.3125 L 24.927734 18.253906 L 24.896484 18.246094 L 24.859375 18.181641 L 24.826172 18.171875 L 24.789062 18.109375 L 24.755859 18.099609 L 24.71875 18.037109 L 24.685547 18.027344 L 24.648438 17.964844 L 24.613281 17.955078 L 24.576172 17.890625 L 24.541016 17.880859 L 24.503906 17.816406 L 24.470703 17.806641 L 24.431641 17.740234 L 24.396484 17.730469 L 24.357422 17.664062 L 24.322266 17.654297 L 24.283203 17.585938 L 24.246094 17.576172 L 24.207031 17.507812 L 24.169922 17.498047 L 24.130859 17.429688 L 24.09375 17.419922 L 24.054688 17.351562 L 24.017578 17.341797 L 23.976562 17.269531 L 23.939453 17.259766 L 23.898438 17.189453 L 23.859375 17.179688 L 23.818359 17.107422 L 23.779297 17.097656 L 23.738281 17.025391 L 23.701172 17.015625 L 23.658203 16.941406 L 23.621094 16.931641 L 23.578125 16.857422 L 23.539062 16.847656 L 23.496094 16.773438 L 23.455078 16.761719 L 23.412109 16.6875 L 23.371094 16.675781 L 23.328125 16.601562 L 23.289062 16.591797 L 23.244141 16.513672 L 23.205078 16.503906 L 23.160156 16.425781 L 23.119141 16.414062 L 23.074219 16.337891 L 23.033203 16.326172 L 22.988281 16.248047 L 22.945312 16.236328 L 22.900391 16.158203 L 22.859375 16.146484 L 22.8125 16.066406 L 22.769531 16.054688 L 22.722656 15.974609 L 22.681641 15.962891 L 22.634766 15.882812 L 22.589844 15.871094 L 22.542969 15.789062 L 22.5 15.777344 L 22.453125 15.695312 L 22.408203 15.683594 L 22.361328 15.601562 L 22.316406 15.589844 L 22.267578 15.505859 L 22.224609 15.494141 L 22.175781 15.410156 L 22.130859 15.398438 L 22.082031 15.3125 L 22.035156 15.300781 L 21.986328 15.214844 L 21.941406 15.203125 L 21.890625 15.115234 L 21.845703 15.103516 L 21.794922 15.015625 L 21.75 15.003906 L 21.699219 14.916016 L 21.652344 14.904297 L 21.601562 14.814453 L 21.552734 14.800781 L 21.501953 14.712891 L 21.453125 14.699219 L 21.402344 14.611328 L 21.355469 14.599609 L 21.302734 14.507812 L 21.255859 14.496094 L 21.203125 14.404297 L 21.154297 14.390625 L 21.101562 14.298828 L 21.052734 14.285156 L 21 14.193359 L 20.949219 14.179688 L 20.896484 14.087891 L 20.847656 14.074219 L 20.792969 13.980469 L 20.742188 13.966797 L 20.6875 13.873047 L 20.640625 13.859375 L 20.583984 13.763672 L 20.53125 13.75 L 20.476562 13.654297 L 20.425781 13.640625 L 20.371094 13.544922 L 20.320312 13.53125 L 20.263672 13.433594 L 20.212891 13.419922 L 20.15625 13.322266 L 20.103516 13.308594 L 20.046875 13.208984 L 19.994141 13.195312 L 19.9375 13.095703 L 19.882812 13.082031 L 19.826172 12.982422 L 19.775391 12.96875 L 19.716797 12.867188 L 19.662109 12.851562 L 19.603516 12.751953 L 19.550781 12.738281 L 19.492188 12.636719 L 19.4375 12.623047 L 19.378906 12.519531 L 19.322266 12.503906 L 19.263672 12.402344 L 19.210938 12.388672 L 19.150391 12.283203 L 19.095703 12.267578 L 19.035156 12.164062 L 18.978516 12.148438 L 18.917969 12.042969 L 18.861328 12.027344 L 18.800781 11.921875 L 18.744141 11.90625 L 18.683594 11.800781 L 18.626953 11.785156 L 18.564453 11.677734 L 18.507812 11.662109 L 18.445312 11.554688 L 18.388672 11.539062 L 18.326172 11.431641 L 18.267578 11.416016 L 18.205078 11.306641 L 18.146484 11.291016 L 18.083984 11.181641 L 18.025391 11.166016 L 17.960938 11.054688 L 17.902344 11.039062 L 17.837891 10.927734 L 17.779297 10.912109 L 17.714844 10.800781 L 17.658203 10.785156 L 17.591797 10.671875 L 17.529297 10.654297 L 17.464844 10.542969 L 17.40625 10.527344 L 17.339844 10.412109 L 17.279297 10.396484 L 17.212891 10.28125 L 17.152344 10.265625 L 17.085938 10.150391 L 17.023438 10.134766 L 16.957031 10.017578 L 16.894531 10.001953 L 16.828125 9.8847656 L 16.767578 9.8691406 L 16.699219 9.75 L 16.636719 9.7324219 L 16.568359 9.6152344 L 16.505859 9.5976562 L 16.4375 9.4804688 L 16.376953 9.4648438 L 16.306641 9.34375 L 16.242188 9.3261719 L 16.173828 9.2070312 L 16.109375 9.1894531 L 16.041016 9.0703125 L 15.976562 9.0527344 L 15.90625 8.9316406 L 15.841797 8.9140625 L 15.771484 8.7929688 L 15.708984 8.7753906 L 15.636719 8.6523438 L 15.570312 8.6347656 L 15.5 8.5117188 L 15.435547 8.4941406 L 15.363281 8.3691406 L 15.296875 8.3515625 L 15.224609 8.2265625 L 15.158203 8.2089844 L 15.085938 8.0839844 L 15.021484 8.0664062 L 14.947266 7.9394531 L 14.878906 7.921875 L 14.806641 7.7949219 L 14.738281 7.7773438 L 14.666016 7.6503906 L 14.599609 7.6328125 L 14.525391 7.5039062 L 14.457031 7.4863281 L 14.382812 7.3574219 L 14.316406 7.3398438 L 14.240234 7.2089844 L 14.169922 7.1894531 L 14.095703 7.0605469 L 14.025391 7.0410156 L 13.951172 6.9121094 L 13.882812 6.8945312 L 13.806641 6.7617188 L 13.736328 6.7421875 L 13.660156 6.6113281 L 13.591797 6.5917969 L 13.513672 6.4589844 L 13.445312 6.4414062 L 13.367188 6.3066406 L 13.294922 6.2871094 L 13.21875 6.1542969 L 9.4902344 5.1542969 z "
       id="path14615"
       clip-path="url(#clipPath15501)" />
    <path
       style="fill:#424242;fill-opacity:1;stroke-width:0.2;stroke-linejoin:round"
       inkscape:connector-curvature="0"
       d="M 13.069772,6.0001884 9.3419631,5.001325 5.9988634,6.9313378 5.0000001,10.659147 6.930826,13.999812 10.658635,14.998675 14.001137,13.070994 15,9.343185"
       id="path14527" />
  </g>
</svg>
