<?xml version="1.0" encoding="UTF-8" standalone="no"?>
<!-- Created with Inkscape (http://www.inkscape.org/) -->

<svg
   xmlns:dc="http://purl.org/dc/elements/1.1/"
   xmlns:cc="http://creativecommons.org/ns#"
   xmlns:rdf="http://www.w3.org/1999/02/22-rdf-syntax-ns#"
   xmlns:svg="http://www.w3.org/2000/svg"
   xmlns="http://www.w3.org/2000/svg"
   xmlns:xlink="http://www.w3.org/1999/xlink"
   xmlns:sodipodi="http://sodipodi.sourceforge.net/DTD/sodipodi-0.dtd"
   xmlns:inkscape="http://www.inkscape.org/namespaces/inkscape"
   sodipodi:docname="office.svg"
   inkscape:version="0.91 r13725"
   version="1.1"
   id="svg2"
   viewBox="0 0 20 20"
   height="5.6444445mm"
   width="5.6444445mm">
  <sodipodi:namedview
     inkscape:snap-to-guides="false"
     inkscape:snap-grids="false"
     inkscape:window-maximized="1"
     inkscape:window-y="24"
     inkscape:window-x="0"
     inkscape:window-height="744"
     inkscape:window-width="1366"
     inkscape:guide-bbox="true"
     showguides="true"
     fit-margin-bottom="0"
     fit-margin-right="0"
     fit-margin-left="0"
     fit-margin-top="0"
     showgrid="true"
     inkscape:current-layer="layer1"
     inkscape:document-units="px"
     inkscape:cy="4.7429868"
     inkscape:cx="11.917346"
     inkscape:zoom="22.4"
     inkscape:pageshadow="2"
     inkscape:pageopacity="0.0"
     borderopacity="1.0"
     bordercolor="#666666"
     pagecolor="#ffffff"
     id="base">
    <inkscape:grid
       type="xygrid"
       id="grid4138" />
    <sodipodi:guide
       position="10,18"
       orientation="0,1"
       id="guide4140" />
    <sodipodi:guide
       position="10,2"
       orientation="0,1"
       id="guide4142" />
    <sodipodi:guide
       position="2,10"
       orientation="1,0"
       id="guide4144" />
    <sodipodi:guide
       position="0,0"
       orientation="0,20"
       id="guide4146" />
    <sodipodi:guide
       position="20,0"
       orientation="-20,0"
       id="guide4148" />
    <sodipodi:guide
       position="20,20"
       orientation="0,-20"
       id="guide4150" />
    <sodipodi:guide
       position="0,20"
       orientation="20,0"
       id="guide4152" />
    <sodipodi:guide
       position="18,10"
       orientation="1,0"
       id="guide4154" />
    <sodipodi:guide
       position="4,10"
       orientation="1,0"
       id="guide4160" />
    <sodipodi:guide
       position="16,10"
       orientation="1,0"
       id="guide4162" />
    <sodipodi:guide
       position="10,4"
       orientation="0,1"
       id="guide4166" />
    <sodipodi:guide
       position="10,15"
       orientation="0,1"
       id="guide4168" />
    <sodipodi:guide
       position="10,5"
       orientation="0,1"
       id="guide4170" />
    <sodipodi:guide
       position="5,10"
       orientation="1,0"
       id="guide4172" />
    <sodipodi:guide
       position="15,10"
       orientation="1,0"
       id="guide4174" />
  </sodipodi:namedview>
  <defs
     id="defs4">
    <linearGradient
       inkscape:collect="always"
       id="linearGradient14790">
      <stop
         style="stop-color:#000000;stop-opacity:1;"
         offset="0"
         id="stop14792" />
      <stop
         style="stop-color:#000000;stop-opacity:0;"
         offset="1"
         id="stop14794" />
    </linearGradient>
    <clipPath
       id="clipPath12478"
       clipPathUnits="userSpaceOnUse">
      <circle
         r="10"
         cy="10.000005"
         cx="9.9999781"
         id="circle12480"
         style="opacity:1;fill:#2196f3;fill-opacity:1;stroke:none;stroke-width:0.05069799;stroke-miterlimit:4;stroke-dasharray:none;stroke-opacity:1" />
    </clipPath>
    <clipPath
       clipPathUnits="userSpaceOnUse"
       id="clipPath5790">
      <circle
         r="10"
         cy="10.000005"
         cx="9.9999781"
         id="circle5792"
         style="opacity:1;fill:#2196f3;fill-opacity:1;stroke:none;stroke-width:0.05069799;stroke-miterlimit:4;stroke-dasharray:none;stroke-opacity:1"
         inkscape:export-filename="/home/juergen/path4136.png"
         inkscape:export-xdpi="648"
         inkscape:export-ydpi="648" />
    </clipPath>
    <clipPath
       id="clipPath7690"
       clipPathUnits="userSpaceOnUse">
      <circle
         r="10"
         cy="10.000005"
         cx="9.9999781"
         id="circle7692"
         style="opacity:1;fill:#2196f3;fill-opacity:1;stroke:none;stroke-width:0.05069799;stroke-miterlimit:4;stroke-dasharray:none;stroke-opacity:1"
         inkscape:export-filename="/home/juergen/Schreibtisch/path4136.png"
         inkscape:export-xdpi="648"
         inkscape:export-ydpi="648" />
    </clipPath>
    <clipPath
       clipPathUnits="userSpaceOnUse"
       id="clipPath5119">
      <circle
         r="10"
         cy="10.000005"
         cx="9.9999781"
         id="circle5121"
         style="opacity:1;fill:#ff9800;fill-opacity:1;stroke:none;stroke-width:0.05069799;stroke-miterlimit:4;stroke-dasharray:none;stroke-opacity:1"
         inkscape:export-filename="/home/juergen/Schreibtisch/path4136.png"
         inkscape:export-xdpi="648"
         inkscape:export-ydpi="648" />
    </clipPath>
    <clipPath
       id="clipPath5125"
       clipPathUnits="userSpaceOnUse">
      <circle
         r="10"
         cy="10.000005"
         cx="9.9999781"
         id="circle5127"
         style="opacity:1;fill:#e91e63;fill-opacity:1;stroke:none;stroke-width:0.05069799;stroke-miterlimit:4;stroke-dasharray:none;stroke-opacity:1"
         inkscape:export-filename="/home/juergen/Schreibtisch/path4136.png"
         inkscape:export-xdpi="648"
         inkscape:export-ydpi="648" />
    </clipPath>
    <clipPath
       clipPathUnits="userSpaceOnUse"
       id="clipPath6122">
      <circle
         r="10"
         cy="10.000005"
         cx="9.9999781"
         id="circle6124"
         style="opacity:1;fill:#ffc107;fill-opacity:1;stroke:none;stroke-width:0.05069799;stroke-miterlimit:4;stroke-dasharray:none;stroke-opacity:1"
         inkscape:export-filename="/home/juergen/Schreibtisch/path4136.png"
         inkscape:export-xdpi="648"
         inkscape:export-ydpi="648" />
    </clipPath>
    <clipPath
       id="clipPath5142"
       clipPathUnits="userSpaceOnUse">
      <circle
         r="10"
         cy="10.000005"
         cx="9.9999781"
         id="circle5144"
         style="opacity:1;fill:#ffc107;fill-opacity:1;stroke:none;stroke-width:0.05069799;stroke-miterlimit:4;stroke-dasharray:none;stroke-opacity:1"
         inkscape:export-filename="/home/juergen/Schreibtisch/path4136.png"
         inkscape:export-xdpi="648"
         inkscape:export-ydpi="648" />
    </clipPath>
    <clipPath
       clipPathUnits="userSpaceOnUse"
       id="clipPath6137">
      <circle
         r="10"
         cy="10.000005"
         cx="9.9999781"
         id="circle6139"
         style="opacity:1;fill:#ffc107;fill-opacity:1;stroke:none;stroke-width:0.05069799;stroke-miterlimit:4;stroke-dasharray:none;stroke-opacity:1"
         inkscape:export-filename="/home/juergen/Projekte/Android/Android_Studio/Baumann_Theme/theme/src/main/assets/icons/res/drawable-xxhdpi/a159.png"
         inkscape:export-xdpi="648"
         inkscape:export-ydpi="648" />
    </clipPath>
    <clipPath
       clipPathUnits="userSpaceOnUse"
       id="clipPath8232">
      <circle
         r="10"
         cy="10.000005"
         cx="9.9999781"
         id="circle8234"
         style="opacity:1;fill:#3f51b5;fill-opacity:1;stroke:none;stroke-width:0.05069799;stroke-miterlimit:4;stroke-dasharray:none;stroke-opacity:1"
         inkscape:export-filename="/home/juergen/Projekte/Android/Android_Studio/Baumann_Theme/theme/src/main/assets/icons/res/drawable-xxhdpi/a161.png"
         inkscape:export-xdpi="648"
         inkscape:export-ydpi="648" />
    </clipPath>
    <clipPath
       clipPathUnits="userSpaceOnUse"
       id="clipPath8239">
      <circle
         r="10"
         cy="10.000005"
         cx="9.9999781"
         id="circle8241"
         style="opacity:1;fill:#3f51b5;fill-opacity:1;stroke:none;stroke-width:0.05069799;stroke-miterlimit:4;stroke-dasharray:none;stroke-opacity:1"
         inkscape:export-filename="/home/juergen/Projekte/Android/Android_Studio/Baumann_Theme/theme/src/main/assets/icons/res/drawable-xxhdpi/a161.png"
         inkscape:export-xdpi="648"
         inkscape:export-ydpi="648" />
    </clipPath>
    <clipPath
       id="clipPath9250"
       clipPathUnits="userSpaceOnUse">
      <circle
         r="10"
         cy="10.000005"
         cx="9.9999781"
         id="circle9252"
         style="opacity:1;fill:#03a9f4;fill-opacity:1;stroke:none;stroke-width:0.05069799;stroke-miterlimit:4;stroke-dasharray:none;stroke-opacity:1"
         inkscape:export-filename="/home/juergen/Projekte/Android/Android_Studio/Baumann_Theme/theme/src/main/assets/icons/res/drawable-xxhdpi/a162.png"
         inkscape:export-xdpi="648"
         inkscape:export-ydpi="648" />
    </clipPath>
    <clipPath
       id="clipPath9257"
       clipPathUnits="userSpaceOnUse">
      <circle
         r="10"
         cy="10.000005"
         cx="9.9999781"
         id="circle9259"
         style="opacity:1;fill:#03a9f4;fill-opacity:1;stroke:none;stroke-width:0.05069799;stroke-miterlimit:4;stroke-dasharray:none;stroke-opacity:1"
         inkscape:export-filename="/home/juergen/Projekte/Android/Android_Studio/Baumann_Theme/theme/src/main/assets/icons/res/drawable-xxhdpi/a162.png"
         inkscape:export-xdpi="648"
         inkscape:export-ydpi="648" />
    </clipPath>
    <clipPath
       clipPathUnits="userSpaceOnUse"
       id="clipPath10280">
      <circle
         r="10"
         cy="10.000005"
         cx="9.9999781"
         id="circle10282"
         style="opacity:1;fill:#4caf50;fill-opacity:1;stroke:none;stroke-width:0.05069799;stroke-miterlimit:4;stroke-dasharray:none;stroke-opacity:1"
         inkscape:export-filename="/home/juergen/Projekte/Android/Android_Studio/Baumann_Theme/theme/src/main/assets/icons/res/drawable-xxhdpi/a162.png"
         inkscape:export-xdpi="648"
         inkscape:export-ydpi="648" />
    </clipPath>
    <clipPath
       id="clipPath11439"
       clipPathUnits="userSpaceOnUse">
      <circle
         r="10"
         cy="10.000005"
         cx="9.9999781"
         id="circle11441"
         style="opacity:1;fill:#03a9f4;fill-opacity:1;stroke:none;stroke-width:0.05069799;stroke-miterlimit:4;stroke-dasharray:none;stroke-opacity:1"
         inkscape:export-filename="/home/juergen/Projekte/Android/Android_Studio/Baumann_Theme/theme/src/main/assets/icons/res/drawable-xxhdpi/a163.png"
         inkscape:export-xdpi="648"
         inkscape:export-ydpi="648" />
    </clipPath>
    <clipPath
       clipPathUnits="userSpaceOnUse"
       id="clipPath12494">
      <circle
         r="10"
         cy="10.000005"
         cx="9.9999781"
         id="circle12496"
         style="opacity:1;fill:#f44336;fill-opacity:1;stroke:none;stroke-width:0.05069799;stroke-miterlimit:4;stroke-dasharray:none;stroke-opacity:1"
         inkscape:export-filename="/home/juergen/Projekte/Android/Android_Studio/Baumann_Theme/theme/src/main/assets/icons/res/drawable-xxhdpi/a164.png"
         inkscape:export-xdpi="648"
         inkscape:export-ydpi="648" />
    </clipPath>
    <clipPath
       id="clipPath13708"
       clipPathUnits="userSpaceOnUse">
      <circle
         r="10"
         cy="10.000005"
         cx="9.9999781"
         id="circle13710"
         style="opacity:1;fill:#f44336;fill-opacity:1;stroke:none;stroke-width:0.05069799;stroke-miterlimit:4;stroke-dasharray:none;stroke-opacity:1"
         inkscape:export-filename="/home/juergen/Projekte/Android/Android_Studio/Baumann_Theme/theme/src/main/assets/icons/res/drawable-xxhdpi/a165.png"
         inkscape:export-xdpi="648"
         inkscape:export-ydpi="648" />
    </clipPath>
    <linearGradient
       inkscape:collect="always"
       xlink:href="#linearGradient14790"
       id="linearGradient14796"
       x1="10"
       y1="10"
       x2="20.139915"
       y2="20.126268"
       gradientUnits="userSpaceOnUse" />
    <clipPath
       clipPathUnits="userSpaceOnUse"
       id="clipPath14800">
      <circle
         r="10"
         cy="10.000005"
         cx="9.9999781"
         id="circle14802"
         style="opacity:1;fill:#9c27b0;fill-opacity:1;stroke:none;stroke-width:0.05069799;stroke-miterlimit:4;stroke-dasharray:none;stroke-opacity:1"
         inkscape:export-filename="/home/juergen/Projekte/Android/Android_Studio/Baumann_Theme/theme/src/main/assets/icons/res/drawable-xxhdpi/a166.png"
         inkscape:export-xdpi="648"
         inkscape:export-ydpi="648" />
    </clipPath>
  </defs>
  <metadata
     id="metadata7">
    <rdf:RDF>
      <cc:Work
         rdf:about="">
        <dc:format>image/svg+xml</dc:format>
        <dc:type
           rdf:resource="http://purl.org/dc/dcmitype/StillImage" />
        <dc:title></dc:title>
      </cc:Work>
    </rdf:RDF>
  </metadata>
  <g
     inkscape:label="Hintergrund"
     inkscape:groupmode="layer"
     id="layer1"
     transform="translate(1058.1428,-861.93365)">
    <path
       d="M 7 5 C 6.7348 5 6.4804688 5.1054387 6.2929688 5.2929688 C 6.1054687 5.4805087 6 5.73478 6 6 L 6 14 C 6 14.26522 6.1054688 14.519491 6.2929688 14.707031 C 6.3058592 14.719924 6.324386 14.72422 6.3378906 14.736328 C 6.3499974 14.749834 6.3542971 14.768358 6.3671875 14.78125 C 6.3800848 14.794143 6.3985997 14.798438 6.4121094 14.810547 C 6.4242153 14.824053 6.4285158 14.842576 6.4414062 14.855469 C 6.4545646 14.868623 6.4725327 14.874381 6.4863281 14.886719 C 6.4986688 14.900511 6.5044197 14.918486 6.5175781 14.931641 C 6.5304685 14.944533 6.5489954 14.948829 6.5625 14.960938 C 6.5746068 14.974444 6.5789065 14.992967 6.5917969 15.005859 C 6.6046873 15.018753 6.6232142 15.023047 6.6367188 15.035156 C 6.6488255 15.048663 6.6531252 15.067185 6.6660156 15.080078 C 6.6789129 15.092971 6.6974278 15.097266 6.7109375 15.109375 C 6.7230494 15.122882 6.7273371 15.141404 6.7402344 15.154297 C 6.7531248 15.167189 6.7716525 15.171486 6.7851562 15.183594 C 6.7972681 15.1971 6.8015558 15.215623 6.8144531 15.228516 C 6.8272904 15.241356 6.8459285 15.24575 6.859375 15.257812 C 6.8720514 15.272032 6.8770834 15.291144 6.890625 15.304688 C 6.9035154 15.317581 6.9220423 15.321876 6.9355469 15.333984 C 6.9476536 15.347491 6.9519533 15.366013 6.9648438 15.378906 C 6.977741 15.391799 6.996256 15.396095 7.0097656 15.408203 C 7.0218775 15.42171 7.0261652 15.440232 7.0390625 15.453125 C 7.0519529 15.466017 7.0704798 15.470314 7.0839844 15.482422 C 7.0960911 15.495928 7.1003908 15.514451 7.1132812 15.527344 C 7.1257814 15.539847 7.1431718 15.544875 7.15625 15.556641 C 7.1688774 15.570799 7.1740145 15.590027 7.1875 15.603516 C 7.2009926 15.617004 7.2202131 15.622136 7.234375 15.634766 C 7.2461385 15.647846 7.2511717 15.665232 7.2636719 15.677734 C 7.2765692 15.690627 7.2950841 15.694923 7.3085938 15.707031 C 7.3207056 15.720537 7.3249933 15.739061 7.3378906 15.751953 C 7.350781 15.764846 7.3693079 15.769141 7.3828125 15.78125 C 7.3949193 15.794757 7.399219 15.813279 7.4121094 15.826172 C 7.4249998 15.839065 7.4435267 15.84336 7.4570312 15.855469 C 7.469138 15.868975 7.4734377 15.887497 7.4863281 15.900391 C 7.4988349 15.912893 7.5162137 15.917923 7.5292969 15.929688 C 7.5419556 15.943886 7.5470244 15.963038 7.5605469 15.976562 C 7.5740395 15.990051 7.5932599 15.995183 7.6074219 16.007812 C 7.6191903 16.020893 7.6242119 16.038278 7.6367188 16.050781 C 7.6496092 16.063674 7.668136 16.067969 7.6816406 16.080078 C 7.6937474 16.093585 7.6980471 16.112107 7.7109375 16.125 C 7.7238279 16.137892 7.7423548 16.142189 7.7558594 16.154297 C 7.7679661 16.167803 7.7722658 16.186326 7.7851562 16.199219 C 7.7980535 16.212112 7.8165685 16.216407 7.8300781 16.228516 C 7.84219 16.242022 7.8464777 16.260544 7.859375 16.273438 C 7.8725264 16.286592 7.8905075 16.29235 7.9042969 16.304688 C 7.9166375 16.31848 7.9223885 16.336455 7.9355469 16.349609 C 7.9484373 16.362502 7.9669642 16.366798 7.9804688 16.378906 C 7.9925755 16.392412 7.9968752 16.410936 8.0097656 16.423828 C 8.022656 16.436721 8.0411829 16.441016 8.0546875 16.453125 C 8.0667943 16.466631 8.071094 16.485154 8.0839844 16.498047 C 8.0968817 16.51094 8.1153966 16.515235 8.1289062 16.527344 C 8.1410181 16.54085 8.1453058 16.559372 8.1582031 16.572266 C 8.1710935 16.585158 8.1896204 16.589454 8.203125 16.601562 C 8.2152318 16.615069 8.2195315 16.633591 8.2324219 16.646484 C 8.2455733 16.659638 8.2635535 16.665397 8.2773438 16.677734 C 8.2896793 16.691526 8.2954424 16.709503 8.3085938 16.722656 C 8.321491 16.735549 8.340006 16.739844 8.3535156 16.751953 C 8.3656215 16.76546 8.3699221 16.783982 8.3828125 16.796875 C 8.3957098 16.809768 8.4142247 16.814063 8.4277344 16.826172 C 8.4398462 16.839678 8.444134 16.858201 8.4570312 16.871094 C 8.4699217 16.883986 8.4884485 16.888282 8.5019531 16.900391 C 8.5140599 16.913897 8.5183596 16.93242 8.53125 16.945312 C 8.5437502 16.957815 8.5611405 16.962844 8.5742188 16.974609 C 8.5868462 16.988768 8.5919833 17.007996 8.6054688 17.021484 C 8.6189614 17.034973 8.6381818 17.040105 8.6523438 17.052734 C 8.6641122 17.065815 8.6691338 17.0832 8.6816406 17.095703 C 8.694531 17.108596 8.7130588 17.112892 8.7265625 17.125 C 8.7386744 17.138506 8.7429621 17.157029 8.7558594 17.169922 C 8.7687498 17.182815 8.7872767 17.18711 8.8007812 17.199219 C 8.812888 17.212725 8.8171877 17.231247 8.8300781 17.244141 C 8.8429685 17.257034 8.8614954 17.261329 8.875 17.273438 C 8.8871068 17.286944 8.8914065 17.305466 8.9042969 17.318359 C 8.9178457 17.331903 8.9369482 17.336932 8.9511719 17.349609 C 8.9632371 17.363057 8.9676246 17.381692 8.9804688 17.394531 C 8.9933592 17.407424 9.011886 17.411719 9.0253906 17.423828 C 9.0374974 17.437335 9.0417971 17.455857 9.0546875 17.46875 C 9.0675779 17.481643 9.0861048 17.485938 9.0996094 17.498047 C 9.1117161 17.511553 9.1160158 17.530076 9.1289062 17.542969 C 9.1418035 17.555861 9.1603185 17.560157 9.1738281 17.572266 C 9.1859349 17.585772 9.1902346 17.604295 9.203125 17.617188 C 9.2160223 17.630081 9.2345372 17.634376 9.2480469 17.646484 C 9.2601587 17.65999 9.2644465 17.678514 9.2773438 17.691406 C 9.2904951 17.70456 9.3084753 17.710319 9.3222656 17.722656 C 9.3346011 17.736449 9.3403642 17.754424 9.3535156 17.767578 C 9.366406 17.780471 9.3849329 17.784767 9.3984375 17.796875 C 9.4105443 17.810382 9.414844 17.828904 9.4277344 17.841797 C 9.4406317 17.854689 9.4591466 17.858986 9.4726562 17.871094 C 9.4847621 17.8846 9.4890627 17.903123 9.5019531 17.916016 C 9.5148504 17.928909 9.5333653 17.933204 9.546875 17.945312 C 9.5589869 17.958819 9.5632746 17.977341 9.5761719 17.990234 C 9.5890623 18.003128 9.6075892 18.007423 9.6210938 18.019531 C 9.6332005 18.033038 9.6375002 18.05156 9.6503906 18.064453 C 9.663542 18.077607 9.6815222 18.083366 9.6953125 18.095703 C 9.707648 18.109495 9.7134111 18.127472 9.7265625 18.140625 C 9.7394598 18.153518 9.7579747 18.157813 9.7714844 18.169922 C 9.7835962 18.183428 9.787884 18.201951 9.8007812 18.214844 C 9.8136717 18.227737 9.8321994 18.232032 9.8457031 18.244141 C 9.857815 18.257647 9.8621027 18.276169 9.875 18.289062 C 9.8878904 18.301955 9.9064173 18.306251 9.9199219 18.318359 C 9.9320286 18.331865 9.9363283 18.350389 9.9492188 18.363281 C 9.9621092 18.376174 9.980636 18.380469 9.9941406 18.392578 C 10.006247 18.406085 10.010547 18.424607 10.023438 18.4375 C 10.036282 18.45034 10.054908 18.454735 10.068359 18.466797 C 10.081041 18.481017 10.086061 18.500127 10.099609 18.513672 C 10.1125 18.526564 10.131027 18.530861 10.144531 18.542969 C 10.156638 18.556475 10.160938 18.574998 10.173828 18.587891 C 10.186719 18.600784 10.205245 18.605079 10.21875 18.617188 C 10.230857 18.630694 10.235156 18.649216 10.248047 18.662109 C 10.260944 18.675003 10.279459 18.679298 10.292969 18.691406 C 10.305075 18.704913 10.309375 18.723435 10.322266 18.736328 C 10.334772 18.74883 10.352151 18.75386 10.365234 18.765625 C 10.377867 18.779783 10.382992 18.799012 10.396484 18.8125 C 10.40997 18.825988 10.429203 18.831121 10.443359 18.84375 C 10.455123 18.85683 10.460156 18.874216 10.472656 18.886719 C 10.485547 18.899612 10.504074 18.903907 10.517578 18.916016 C 10.529685 18.929522 10.533985 18.948044 10.546875 18.960938 C 10.559772 18.97383 10.578287 18.978126 10.591797 18.990234 C 10.603909 19.00374 10.608196 19.022264 10.621094 19.035156 C 10.633984 19.048049 10.652512 19.052344 10.666016 19.064453 C 10.678127 19.077959 10.682415 19.096483 10.695312 19.109375 C 10.707813 19.121878 10.725203 19.126906 10.738281 19.138672 C 10.750941 19.152871 10.756009 19.172022 10.769531 19.185547 C 10.783017 19.199035 10.80225 19.204167 10.816406 19.216797 C 10.82817 19.229877 10.833203 19.247263 10.845703 19.259766 C 10.8586 19.272658 10.877115 19.276954 10.890625 19.289062 C 10.902737 19.302569 10.907025 19.321092 10.919922 19.333984 C 10.932812 19.346878 10.95134 19.351172 10.964844 19.363281 C 10.976956 19.376788 10.981243 19.39531 10.994141 19.408203 C 11.007031 19.421096 11.025558 19.425391 11.039062 19.4375 C 11.051169 19.451007 11.055469 19.469529 11.068359 19.482422 C 11.081511 19.495575 11.099491 19.501335 11.113281 19.513672 C 11.125617 19.527464 11.13138 19.54544 11.144531 19.558594 C 11.157429 19.571487 11.175943 19.575782 11.189453 19.587891 C 11.201565 19.601397 11.205853 19.619919 11.21875 19.632812 C 11.23164 19.645706 11.250167 19.650001 11.263672 19.662109 C 11.275779 19.675616 11.280078 19.694138 11.292969 19.707031 C 11.305859 19.719924 11.324386 19.72422 11.337891 19.736328 C 11.349997 19.749834 11.354297 19.768358 11.367188 19.78125 C 11.380085 19.794143 11.3986 19.798438 11.412109 19.810547 C 11.424215 19.824053 11.428516 19.842576 11.441406 19.855469 C 11.454565 19.868623 11.472533 19.874381 11.486328 19.886719 C 11.498669 19.900511 11.50442 19.918486 11.517578 19.931641 C 11.530469 19.944533 11.548995 19.948829 11.5625 19.960938 C 11.574607 19.974444 11.578906 19.992967 11.591797 20.005859 C 11.604687 20.018753 11.623214 20.023047 11.636719 20.035156 C 11.648826 20.048663 11.653125 20.067185 11.666016 20.080078 C 11.678913 20.092971 11.697428 20.097266 11.710938 20.109375 C 11.723049 20.122882 11.727337 20.141404 11.740234 20.154297 C 11.753125 20.167189 11.771653 20.171486 11.785156 20.183594 C 11.797268 20.1971 11.801556 20.215623 11.814453 20.228516 C 11.82729 20.241356 11.845929 20.24575 11.859375 20.257812 C 11.872051 20.272032 11.877083 20.291144 11.890625 20.304688 C 11.903515 20.317581 11.922042 20.321876 11.935547 20.333984 C 11.947654 20.347491 11.951953 20.366013 11.964844 20.378906 C 11.977741 20.391799 11.996256 20.396095 12.009766 20.408203 C 12.021877 20.42171 12.026165 20.440232 12.039062 20.453125 C 12.051953 20.466017 12.07048 20.470314 12.083984 20.482422 C 12.096091 20.495928 12.100391 20.514451 12.113281 20.527344 C 12.125781 20.539847 12.143172 20.544875 12.15625 20.556641 C 12.168877 20.570799 12.174015 20.590027 12.1875 20.603516 C 12.200993 20.617004 12.220213 20.622136 12.234375 20.634766 C 12.246138 20.647846 12.251172 20.665232 12.263672 20.677734 C 12.276569 20.690627 12.295084 20.694923 12.308594 20.707031 C 12.320706 20.720537 12.324993 20.739061 12.337891 20.751953 C 12.350781 20.764846 12.369308 20.769141 12.382812 20.78125 C 12.394919 20.794757 12.399219 20.813279 12.412109 20.826172 C 12.425 20.839065 12.443527 20.84336 12.457031 20.855469 C 12.469138 20.868975 12.473438 20.887497 12.486328 20.900391 C 12.498835 20.912893 12.516214 20.917923 12.529297 20.929688 C 12.541956 20.943886 12.547024 20.963038 12.560547 20.976562 C 12.57404 20.990051 12.59326 20.995183 12.607422 21.007812 C 12.61919 21.020893 12.624212 21.038278 12.636719 21.050781 C 12.649609 21.063674 12.668136 21.067969 12.681641 21.080078 C 12.693747 21.093585 12.698047 21.112107 12.710938 21.125 C 12.723828 21.137892 12.742355 21.142189 12.755859 21.154297 C 12.767966 21.167803 12.772266 21.186326 12.785156 21.199219 C 12.798054 21.212112 12.816568 21.216407 12.830078 21.228516 C 12.84219 21.242022 12.846478 21.260544 12.859375 21.273438 C 12.872526 21.286592 12.890507 21.29235 12.904297 21.304688 C 12.916638 21.31848 12.922388 21.336455 12.935547 21.349609 C 12.948437 21.362502 12.966964 21.366798 12.980469 21.378906 C 12.992576 21.392412 12.996875 21.410936 13.009766 21.423828 C 13.022656 21.436721 13.041183 21.441016 13.054688 21.453125 C 13.066794 21.466631 13.071094 21.485154 13.083984 21.498047 C 13.096882 21.51094 13.115397 21.515235 13.128906 21.527344 C 13.141018 21.54085 13.145306 21.559372 13.158203 21.572266 C 13.171094 21.585158 13.18962 21.589454 13.203125 21.601562 C 13.215232 21.615069 13.219531 21.633591 13.232422 21.646484 C 13.245573 21.659638 13.263553 21.665397 13.277344 21.677734 C 13.289679 21.691526 13.295442 21.709503 13.308594 21.722656 C 13.321491 21.735549 13.340006 21.739844 13.353516 21.751953 C 13.365622 21.76546 13.369922 21.783982 13.382812 21.796875 C 13.39571 21.809768 13.414225 21.814063 13.427734 21.826172 C 13.439846 21.839678 13.444134 21.858201 13.457031 21.871094 C 13.469922 21.883986 13.488449 21.888282 13.501953 21.900391 C 13.51406 21.913897 13.51836 21.93242 13.53125 21.945312 C 13.54375 21.957815 13.561141 21.962844 13.574219 21.974609 C 13.586846 21.988768 13.591983 22.007996 13.605469 22.021484 C 13.618961 22.034973 13.638182 22.040105 13.652344 22.052734 C 13.664112 22.065815 13.669134 22.0832 13.681641 22.095703 C 13.694531 22.108596 13.713059 22.112892 13.726562 22.125 C 13.738674 22.138506 13.742962 22.157029 13.755859 22.169922 C 13.76875 22.182815 13.787277 22.18711 13.800781 22.199219 C 13.812888 22.212725 13.817188 22.231247 13.830078 22.244141 C 13.842969 22.257034 13.861495 22.261329 13.875 22.273438 C 13.887107 22.286944 13.891406 22.305466 13.904297 22.318359 C 13.917846 22.331903 13.936948 22.336932 13.951172 22.349609 C 13.963237 22.363057 13.967625 22.381692 13.980469 22.394531 C 13.993359 22.407424 14.011886 22.411719 14.025391 22.423828 C 14.037497 22.437335 14.041797 22.455857 14.054688 22.46875 C 14.067578 22.481643 14.086105 22.485938 14.099609 22.498047 C 14.111716 22.511553 14.116016 22.530076 14.128906 22.542969 C 14.141804 22.555861 14.160318 22.560157 14.173828 22.572266 C 14.185935 22.585772 14.190235 22.604295 14.203125 22.617188 C 14.216022 22.630081 14.234537 22.634376 14.248047 22.646484 C 14.260159 22.65999 14.264446 22.678514 14.277344 22.691406 C 14.290495 22.70456 14.308475 22.710319 14.322266 22.722656 C 14.334601 22.736449 14.340364 22.754424 14.353516 22.767578 C 14.366406 22.780471 14.384933 22.784767 14.398438 22.796875 C 14.410544 22.810382 14.414844 22.828904 14.427734 22.841797 C 14.440632 22.854689 14.459147 22.858986 14.472656 22.871094 C 14.484762 22.8846 14.489063 22.903123 14.501953 22.916016 C 14.51485 22.928909 14.533365 22.933204 14.546875 22.945312 C 14.558987 22.958819 14.563275 22.977341 14.576172 22.990234 C 14.589062 23.003128 14.607589 23.007423 14.621094 23.019531 C 14.633201 23.033038 14.6375 23.05156 14.650391 23.064453 C 14.663542 23.077607 14.681522 23.083366 14.695312 23.095703 C 14.707648 23.109495 14.713411 23.127472 14.726562 23.140625 C 14.73946 23.153518 14.757975 23.157813 14.771484 23.169922 C 14.783596 23.183428 14.787884 23.201951 14.800781 23.214844 C 14.813672 23.227737 14.832199 23.232032 14.845703 23.244141 C 14.857815 23.257647 14.862103 23.276169 14.875 23.289062 C 14.88789 23.301955 14.906417 23.306251 14.919922 23.318359 C 14.932029 23.331865 14.936328 23.350389 14.949219 23.363281 C 14.962109 23.376174 14.980636 23.380469 14.994141 23.392578 C 15.006247 23.406085 15.010547 23.424607 15.023438 23.4375 C 15.036282 23.45034 15.054908 23.454735 15.068359 23.466797 C 15.081041 23.481017 15.086061 23.500127 15.099609 23.513672 C 15.1125 23.526564 15.131027 23.530861 15.144531 23.542969 C 15.156638 23.556475 15.160938 23.574998 15.173828 23.587891 C 15.186719 23.600784 15.205245 23.605079 15.21875 23.617188 C 15.230857 23.630694 15.235156 23.649216 15.248047 23.662109 C 15.260944 23.675003 15.279459 23.679298 15.292969 23.691406 C 15.305075 23.704913 15.309375 23.723435 15.322266 23.736328 C 15.334772 23.74883 15.352151 23.75386 15.365234 23.765625 C 15.377867 23.779783 15.382992 23.799012 15.396484 23.8125 C 15.40997 23.825988 15.429203 23.831121 15.443359 23.84375 C 15.455123 23.85683 15.460156 23.874216 15.472656 23.886719 C 15.485547 23.899612 15.504074 23.903907 15.517578 23.916016 C 15.529685 23.929522 15.533985 23.948044 15.546875 23.960938 C 15.559772 23.97383 15.578287 23.978126 15.591797 23.990234 C 15.603909 24.00374 15.608196 24.022264 15.621094 24.035156 C 15.633984 24.048049 15.652512 24.052344 15.666016 24.064453 C 15.678127 24.077959 15.682415 24.096483 15.695312 24.109375 C 15.707813 24.121878 15.725203 24.126906 15.738281 24.138672 C 15.750941 24.152871 15.756009 24.172022 15.769531 24.185547 C 15.783017 24.199035 15.80225 24.204167 15.816406 24.216797 C 15.82817 24.229877 15.833203 24.247263 15.845703 24.259766 C 15.8586 24.272658 15.877115 24.276954 15.890625 24.289062 C 15.902737 24.302569 15.907025 24.321092 15.919922 24.333984 C 15.932812 24.346878 15.95134 24.351172 15.964844 24.363281 C 15.976956 24.376788 15.981243 24.39531 15.994141 24.408203 C 16.007031 24.421096 16.025558 24.425391 16.039062 24.4375 C 16.051169 24.451007 16.055469 24.469529 16.068359 24.482422 C 16.081511 24.495575 16.099491 24.501335 16.113281 24.513672 C 16.125617 24.527464 16.13138 24.54544 16.144531 24.558594 C 16.157429 24.571487 16.175943 24.575782 16.189453 24.587891 C 16.201565 24.601397 16.205853 24.619919 16.21875 24.632812 C 16.23164 24.645706 16.250167 24.650001 16.263672 24.662109 C 16.275779 24.675616 16.280078 24.694138 16.292969 24.707031 C 16.305859 24.719924 16.324386 24.72422 16.337891 24.736328 C 16.349997 24.749834 16.354297 24.768358 16.367188 24.78125 C 16.380085 24.794143 16.3986 24.798438 16.412109 24.810547 C 16.424215 24.824053 16.428516 24.842576 16.441406 24.855469 C 16.454565 24.868623 16.472533 24.874381 16.486328 24.886719 C 16.498669 24.900511 16.50442 24.918486 16.517578 24.931641 C 16.530469 24.944533 16.548995 24.948829 16.5625 24.960938 C 16.574607 24.974444 16.578906 24.992967 16.591797 25.005859 C 16.604687 25.018753 16.623214 25.023047 16.636719 25.035156 C 16.648826 25.048663 16.653125 25.067185 16.666016 25.080078 C 16.678913 25.092971 16.697428 25.097266 16.710938 25.109375 C 16.723049 25.122882 16.727337 25.141404 16.740234 25.154297 C 16.753125 25.167189 16.771653 25.171486 16.785156 25.183594 C 16.797268 25.1971 16.801556 25.215623 16.814453 25.228516 C 16.82729 25.241356 16.845929 25.24575 16.859375 25.257812 C 16.872051 25.272032 16.877083 25.291144 16.890625 25.304688 C 16.903515 25.317581 16.922042 25.321876 16.935547 25.333984 C 16.947654 25.347491 16.951953 25.366013 16.964844 25.378906 C 16.977741 25.391799 16.996256 25.396095 17.009766 25.408203 C 17.021877 25.42171 17.026165 25.440232 17.039062 25.453125 C 17.051953 25.466017 17.07048 25.470314 17.083984 25.482422 C 17.096091 25.495928 17.100391 25.514451 17.113281 25.527344 C 17.125781 25.539847 17.143172 25.544875 17.15625 25.556641 C 17.168877 25.570799 17.174015 25.590027 17.1875 25.603516 C 17.200993 25.617004 17.220213 25.622136 17.234375 25.634766 C 17.246138 25.647846 17.251172 25.665232 17.263672 25.677734 C 17.276569 25.690627 17.295084 25.694923 17.308594 25.707031 C 17.320706 25.720537 17.324993 25.739061 17.337891 25.751953 C 17.350781 25.764846 17.369308 25.769141 17.382812 25.78125 C 17.394919 25.794757 17.399219 25.813279 17.412109 25.826172 C 17.425 25.839065 17.443527 25.84336 17.457031 25.855469 C 17.469138 25.868975 17.473438 25.887497 17.486328 25.900391 C 17.498835 25.912893 17.516214 25.917923 17.529297 25.929688 C 17.541956 25.943886 17.547024 25.963038 17.560547 25.976562 C 17.57404 25.990051 17.59326 25.995183 17.607422 26.007812 C 17.61919 26.020893 17.624212 26.038278 17.636719 26.050781 C 17.649609 26.063674 17.668136 26.067969 17.681641 26.080078 C 17.693747 26.093585 17.698047 26.112107 17.710938 26.125 C 17.723828 26.137892 17.742355 26.142189 17.755859 26.154297 C 17.767966 26.167803 17.772266 26.186326 17.785156 26.199219 C 17.798054 26.212112 17.816568 26.216407 17.830078 26.228516 C 17.84219 26.242022 17.846478 26.260544 17.859375 26.273438 C 17.872526 26.286592 17.890507 26.29235 17.904297 26.304688 C 17.916638 26.31848 17.922388 26.336455 17.935547 26.349609 C 17.948437 26.362502 17.966964 26.366798 17.980469 26.378906 C 17.992576 26.392412 17.996875 26.410936 18.009766 26.423828 C 18.022656 26.436721 18.041183 26.441016 18.054688 26.453125 C 18.066794 26.466631 18.071094 26.485154 18.083984 26.498047 C 18.096882 26.51094 18.115397 26.515235 18.128906 26.527344 C 18.141018 26.54085 18.145306 26.559372 18.158203 26.572266 C 18.171094 26.585158 18.18962 26.589454 18.203125 26.601562 C 18.215232 26.615069 18.219531 26.633591 18.232422 26.646484 C 18.245573 26.659638 18.263553 26.665397 18.277344 26.677734 C 18.289679 26.691526 18.295442 26.709503 18.308594 26.722656 C 18.321491 26.735549 18.340006 26.739844 18.353516 26.751953 C 18.365622 26.76546 18.369922 26.783982 18.382812 26.796875 C 18.39571 26.809768 18.414225 26.814063 18.427734 26.826172 C 18.439846 26.839678 18.444134 26.858201 18.457031 26.871094 C 18.469922 26.883986 18.488449 26.888282 18.501953 26.900391 C 18.51406 26.913897 18.51836 26.93242 18.53125 26.945312 C 18.54375 26.957815 18.561141 26.962844 18.574219 26.974609 C 18.586846 26.988768 18.591983 27.007996 18.605469 27.021484 C 18.618961 27.034973 18.638182 27.040105 18.652344 27.052734 C 18.664112 27.065815 18.669134 27.0832 18.681641 27.095703 C 18.694531 27.108596 18.713059 27.112892 18.726562 27.125 C 18.738674 27.138506 18.742962 27.157029 18.755859 27.169922 C 18.76875 27.182815 18.787277 27.18711 18.800781 27.199219 C 18.812888 27.212725 18.817188 27.231247 18.830078 27.244141 C 18.842969 27.257034 18.861495 27.261329 18.875 27.273438 C 18.887107 27.286944 18.891406 27.305466 18.904297 27.318359 C 18.917846 27.331903 18.936948 27.336932 18.951172 27.349609 C 18.963237 27.363057 18.967625 27.381692 18.980469 27.394531 C 18.993359 27.407424 19.011886 27.411719 19.025391 27.423828 C 19.037497 27.437335 19.041797 27.455857 19.054688 27.46875 C 19.067578 27.481643 19.086105 27.485938 19.099609 27.498047 C 19.111716 27.511553 19.116016 27.530076 19.128906 27.542969 C 19.141804 27.555861 19.160318 27.560157 19.173828 27.572266 C 19.185935 27.585772 19.190235 27.604295 19.203125 27.617188 C 19.216022 27.630081 19.234537 27.634376 19.248047 27.646484 C 19.260159 27.65999 19.264446 27.678514 19.277344 27.691406 C 19.290495 27.70456 19.308475 27.710319 19.322266 27.722656 C 19.334601 27.736449 19.340364 27.754424 19.353516 27.767578 C 19.366406 27.780471 19.384933 27.784767 19.398438 27.796875 C 19.410544 27.810382 19.414844 27.828904 19.427734 27.841797 C 19.440632 27.854689 19.459147 27.858986 19.472656 27.871094 C 19.484762 27.8846 19.489063 27.903123 19.501953 27.916016 C 19.51485 27.928909 19.533365 27.933204 19.546875 27.945312 C 19.558987 27.958819 19.563275 27.977341 19.576172 27.990234 C 19.589062 28.003128 19.607589 28.007423 19.621094 28.019531 C 19.633201 28.033038 19.6375 28.05156 19.650391 28.064453 C 19.663542 28.077607 19.681522 28.083366 19.695312 28.095703 C 19.707648 28.109495 19.713411 28.127472 19.726562 28.140625 C 19.73946 28.153518 19.757975 28.157813 19.771484 28.169922 C 19.783596 28.183428 19.787884 28.201951 19.800781 28.214844 C 19.813672 28.227737 19.832199 28.232032 19.845703 28.244141 C 19.857815 28.257647 19.862103 28.276169 19.875 28.289062 C 19.88789 28.301955 19.906417 28.306251 19.919922 28.318359 C 19.932029 28.331865 19.936328 28.350389 19.949219 28.363281 C 19.962109 28.376174 19.980636 28.380469 19.994141 28.392578 C 20.006247 28.406085 20.010547 28.424607 20.023438 28.4375 C 20.036282 28.45034 20.054908 28.454735 20.068359 28.466797 C 20.081041 28.481017 20.086061 28.500127 20.099609 28.513672 C 20.1125 28.526564 20.131027 28.530861 20.144531 28.542969 C 20.156638 28.556475 20.160938 28.574998 20.173828 28.587891 C 20.186719 28.600784 20.205245 28.605079 20.21875 28.617188 C 20.230857 28.630694 20.235156 28.649216 20.248047 28.662109 C 20.260944 28.675003 20.279459 28.679298 20.292969 28.691406 C 20.305075 28.704913 20.309375 28.723435 20.322266 28.736328 C 20.334772 28.74883 20.352151 28.75386 20.365234 28.765625 C 20.377867 28.779783 20.382992 28.799012 20.396484 28.8125 C 20.40997 28.825988 20.429203 28.831121 20.443359 28.84375 C 20.455123 28.85683 20.460156 28.874216 20.472656 28.886719 C 20.485547 28.899612 20.504074 28.903907 20.517578 28.916016 C 20.529685 28.929522 20.533985 28.948044 20.546875 28.960938 C 20.559772 28.97383 20.578287 28.978126 20.591797 28.990234 C 20.603909 29.00374 20.608196 29.022264 20.621094 29.035156 C 20.633984 29.048049 20.652512 29.052344 20.666016 29.064453 C 20.678127 29.077959 20.682415 29.096483 20.695312 29.109375 C 20.707813 29.121878 20.725203 29.126906 20.738281 29.138672 C 20.750941 29.152871 20.756009 29.172022 20.769531 29.185547 C 20.783017 29.199035 20.80225 29.204167 20.816406 29.216797 C 20.82817 29.229877 20.833203 29.247263 20.845703 29.259766 C 20.8586 29.272658 20.877115 29.276954 20.890625 29.289062 C 20.902737 29.302569 20.907025 29.321092 20.919922 29.333984 C 20.932812 29.346878 20.95134 29.351172 20.964844 29.363281 C 20.976956 29.376788 20.981243 29.39531 20.994141 29.408203 C 21.007031 29.421096 21.025558 29.425391 21.039062 29.4375 C 21.051169 29.451007 21.055469 29.469529 21.068359 29.482422 C 21.081511 29.495575 21.099491 29.501335 21.113281 29.513672 C 21.125617 29.527464 21.13138 29.54544 21.144531 29.558594 C 21.157429 29.571487 21.175943 29.575782 21.189453 29.587891 C 21.201565 29.601397 21.205853 29.619919 21.21875 29.632812 C 21.23164 29.645706 21.250167 29.650001 21.263672 29.662109 C 21.275779 29.675616 21.280078 29.694138 21.292969 29.707031 C 21.480469 29.894561 21.7348 30 22 30 L 28 30 C 28.2652 30 28.519531 29.894561 28.707031 29.707031 C 28.894531 29.519491 29 29.26522 29 29 L 29 23 L 28.925781 22.925781 L 28.851562 22.851562 L 28.775391 22.775391 L 28.701172 22.701172 L 28.626953 22.626953 L 28.552734 22.552734 L 28.478516 22.478516 L 28.402344 22.402344 L 28.328125 22.328125 L 28.253906 22.253906 L 28.179688 22.179688 L 28.105469 22.103516 L 28.029297 22.029297 L 27.955078 21.955078 L 27.880859 21.880859 L 27.806641 21.806641 L 27.730469 21.730469 L 27.65625 21.65625 L 27.582031 21.582031 L 27.507812 21.507812 L 27.433594 21.433594 L 27.357422 21.357422 L 27.283203 21.283203 L 27.208984 21.208984 L 27.134766 21.134766 L 27.060547 21.060547 L 26.984375 20.984375 L 26.910156 20.910156 L 26.835938 20.835938 L 26.761719 20.761719 L 26.6875 20.6875 L 26.611328 20.611328 L 26.537109 20.537109 L 26.462891 20.462891 L 26.388672 20.388672 L 26.3125 20.3125 L 26.238281 20.238281 L 26.164062 20.164062 L 26.089844 20.089844 L 26.015625 20.015625 L 26 20 L 25.939453 19.939453 L 25.865234 19.865234 L 25.791016 19.791016 L 25.716797 19.716797 L 25.642578 19.642578 L 25.566406 19.566406 L 25.492188 19.492188 L 25.417969 19.417969 L 25.34375 19.34375 L 25.269531 19.269531 L 25.193359 19.193359 L 25.119141 19.119141 L 25.103516 19.103516 L 25.044922 19.044922 L 24.970703 18.970703 L 24.894531 18.896484 L 24.878906 18.880859 L 24.820312 18.820312 L 24.746094 18.746094 L 24.671875 18.671875 L 24.597656 18.597656 L 24.521484 18.521484 L 24.447266 18.447266 L 24.373047 18.373047 L 24.298828 18.298828 L 24.224609 18.224609 L 24.148438 18.148438 L 24.074219 18.074219 L 24 18 L 23.925781 17.925781 L 23.851562 17.851562 L 23.775391 17.775391 L 23.701172 17.701172 L 23.626953 17.626953 L 23.552734 17.552734 L 23.478516 17.478516 L 23.402344 17.402344 L 23.328125 17.328125 L 23.253906 17.253906 L 23.179688 17.179688 L 23.105469 17.103516 L 23.029297 17.029297 L 22.955078 16.955078 L 22.880859 16.880859 L 22.806641 16.806641 L 22.730469 16.730469 L 22.65625 16.65625 L 22.582031 16.582031 L 22.507812 16.507812 L 22.433594 16.433594 L 22.357422 16.357422 L 22.283203 16.283203 L 22.208984 16.208984 L 22.134766 16.134766 L 22.060547 16.060547 L 21.984375 15.984375 L 21.910156 15.910156 L 21.835938 15.835938 L 21.761719 15.761719 L 21.6875 15.6875 L 21.611328 15.611328 L 21.537109 15.537109 L 21.462891 15.462891 L 21.388672 15.388672 L 21.3125 15.3125 L 21.238281 15.238281 L 21.164062 15.164062 L 21.089844 15.089844 L 21.015625 15.015625 L 20.939453 14.939453 L 20.865234 14.865234 L 20.791016 14.791016 L 20.716797 14.716797 L 20.642578 14.642578 L 20.566406 14.566406 L 20.492188 14.492188 L 20.417969 14.417969 L 20.34375 14.34375 L 20.269531 14.269531 L 20.193359 14.193359 L 20.119141 14.119141 L 20.103516 14.103516 L 20.044922 14.044922 L 19.970703 13.970703 L 19.894531 13.896484 L 19.878906 13.880859 L 19.820312 13.820312 L 19.746094 13.746094 L 19.671875 13.671875 L 19.597656 13.597656 L 19.521484 13.521484 L 19.447266 13.447266 L 19.373047 13.373047 L 19.298828 13.298828 L 19.224609 13.224609 L 19.148438 13.148438 L 19.074219 13.074219 L 19 13 L 18.925781 12.925781 L 18.851562 12.851562 L 18.775391 12.775391 L 18.701172 12.701172 L 18.626953 12.626953 L 18.552734 12.552734 L 18.478516 12.478516 L 18.402344 12.402344 L 18.328125 12.328125 L 18.253906 12.253906 L 18.179688 12.179688 L 18.105469 12.103516 L 18.029297 12.029297 L 17.955078 11.955078 L 17.880859 11.880859 L 17.806641 11.806641 L 17.730469 11.730469 L 17.65625 11.65625 L 17.582031 11.582031 L 17.507812 11.507812 L 17.433594 11.433594 L 17.357422 11.357422 L 17.283203 11.283203 L 17.208984 11.208984 L 17.134766 11.134766 L 17.060547 11.060547 L 16.984375 10.984375 L 16.910156 10.910156 L 16.835938 10.835938 L 16.761719 10.761719 L 16.6875 10.6875 L 16.611328 10.611328 L 16.537109 10.537109 L 16.462891 10.462891 L 16.388672 10.388672 L 16.3125 10.3125 L 16.238281 10.238281 L 16.164062 10.164062 L 16.089844 10.089844 L 16.015625 10.015625 L 15.939453 9.9394531 L 15.865234 9.8652344 L 15.791016 9.7910156 L 15.716797 9.7167969 L 15.642578 9.6425781 L 15.566406 9.5664062 L 15.492188 9.4921875 L 15.417969 9.4179688 L 15.34375 9.34375 L 15.269531 9.2695312 L 15.193359 9.1933594 L 15.119141 9.1191406 L 15.103516 9.1035156 L 15.044922 9.0449219 L 14.970703 8.9707031 L 14.894531 8.8964844 L 14.878906 8.8808594 L 14.820312 8.8203125 L 14.746094 8.7460938 L 14.671875 8.671875 L 14.597656 8.5976562 L 14.521484 8.5214844 L 14.447266 8.4472656 L 14.373047 8.3730469 L 14.298828 8.2988281 L 14.224609 8.2246094 L 14.148438 8.1484375 L 14.074219 8.0742188 L 14 8 L 11.96875 5.9707031 L 11 5 L 7 5 z "
       transform="translate(-1058.1428,861.93365)"
       id="path13854"
       style="fill-opacity:1;fill:url(#linearGradient14796);opacity:0.2"
       clip-path="url(#clipPath14800)" />
    <circle
       inkscape:export-ydpi="648"
       inkscape:export-xdpi="648"
       inkscape:export-filename="/home/juergen/Projekte/Android/Android_Studio/Baumann_Theme/theme/src/main/assets/icons/res/drawable-xxhdpi/a161.png"
       style="opacity:1;fill:#3f51b5;fill-opacity:1;stroke:none;stroke-width:0.05069799;stroke-miterlimit:4;stroke-dasharray:none;stroke-opacity:1"
       id="path4136"
       cx="-1048.1428"
       cy="871.93365"
       r="10" />
    <circle
       r="10"
       cy="871.93365"
       cx="-1048.1428"
       id="circle6169"
       style="opacity:1;fill:#3f51b5;fill-opacity:1;stroke:none;stroke-width:0.05069799;stroke-miterlimit:4;stroke-dasharray:none;stroke-opacity:1"
       inkscape:export-filename="/home/juergen/Projekte/Android/Android_Studio/Baumann_Theme/theme/src/main/assets/icons/res/drawable-xxhdpi/a161.png"
       inkscape:export-xdpi="648"
       inkscape:export-ydpi="648" />
    <circle
       inkscape:export-ydpi="648"
       inkscape:export-xdpi="648"
       inkscape:export-filename="/home/juergen/Projekte/Android/Android_Studio/Baumann_Theme/theme/src/main/assets/icons/res/drawable-xxhdpi/a166.png"
       style="opacity:1;fill:#f44336;fill-opacity:1;stroke:none;stroke-width:0.05069799;stroke-miterlimit:4;stroke-dasharray:none;stroke-opacity:1"
       id="circle8216"
       cx="-1048.1428"
       cy="871.93365"
       r="10" />
    <path
       style="fill:#607d8b;fill-rule:evenodd;stroke:none;stroke-width:1px;stroke-linecap:butt;stroke-linejoin:miter;stroke-opacity:1"
       d="m -1051.0717,875.999 c 0.2841,-0.0947 2.4306,0.63135 2.4306,0.63135 0,0 2.9042,0 3.0936,-0.12627 0.1894,-0.12627 1.1049,-6.50286 1.1049,-6.50286 l -2.9042,-2.62008 -4.1669,0.34724 0,7.89182 z"
       id="path14804"
       inkscape:connector-curvature="0" />
    <path
       inkscape:connector-curvature="0"
       d="m -1051.1428,866.93365 4,0 3,3 0,6 a 1,1 0 0 1 -1,1 l -6,0 a 1,1 0 0 1 -1,-1 l 0,-8 a 1,1 0 0 1 1,-1 m 3.5,0.75 0,2.75 2.75,0 -2.75,-2.75 m -3,4.75 0.75,3.5 1,0 0.75,-1.5 0.75,1.5 1,0 0.75,-3.5 0.5,0 0,-1 -2,0 0,1 0.5,0 -0.45,2.1 -0.55,-1.1 0,0 -1,0 0,0 -0.55,1.1 -0.45,-2.1 0.5,0 0,-1 -2,0 0,1 0.5,0 z"
       id="path13783"
       style="fill:#fafafa" />
  </g>
  <g
     style="display:inline"
     inkscape:groupmode="layer"
     id="layer2"
     inkscape:label="Icon">
    <path
       d="m 3.9999777,4.0333382 12.0000003,0 0,11.9333328 -12.0000003,0 z"
       id="path4"
       inkscape:connector-curvature="0"
       style="fill:none" />
    <path
       style="fill:none"
       inkscape:connector-curvature="0"
       id="path9754"
       d="m 18.999978,19.033339 12,0 0,11.933333 -12,0 z" />
    <path
       d="m 22.806408,25.224385 0,3.663765 2.170127,0 q 1.091762,0 1.6142,-0.448761 0.529136,-0.455459 0.529136,-1.38647 0,-0.93771 -0.529136,-1.379773 -0.522438,-0.448761 -1.6142,-0.448761 l -2.170127,0 z m 0,-4.112525 0,3.014066 2.002679,0 q 0.991293,0 1.473543,-0.368386 0.488949,-0.375084 0.488949,-1.138647 0,-0.756865 -0.488949,-1.131949 -0.48225,-0.375084 -1.473543,-0.375084 l -2.002679,0 z m -1.352981,-1.111855 3.456129,0 q 1.54722,0 2.384461,0.643001 0.83724,0.643 0.83724,1.828533 0,0.917615 -0.428667,1.460147 -0.428667,0.542532 -1.259209,0.67649 0.99799,0.214334 1.54722,0.897522 0.555927,0.67649 0.555927,1.694575 0,1.339585 -0.910917,2.069658 -0.910918,0.730074 -2.592097,0.730074 l -3.590087,0 0,-10 z"
       style="font-style:normal;font-weight:normal;font-size:medium;line-height:125%;font-family:sans-serif;letter-spacing:0px;word-spacing:0px;fill:#000000;fill-opacity:1;stroke:none;stroke-width:1px;stroke-linecap:butt;stroke-linejoin:miter;stroke-opacity:1"
       id="path6185"
       inkscape:connector-curvature="0"
       clip-path="url(#clipPath8232)" />
    <path
       clip-path="url(#clipPath9250)"
       inkscape:connector-curvature="0"
       d="m 23.333311,24.76191 a 1.1904762,1.1904762 0 0 0 1.190476,-1.190476 1.1904762,1.1904762 0 0 0 -1.190476,-1.190476 1.1904762,1.1904762 0 0 0 -1.190476,1.190476 1.1904762,1.1904762 0 0 0 1.190476,1.190476 m 0,-4.52381 c 1.838095,0 3.333333,1.490477 3.333333,3.333334 0,2.5 -3.333333,6.190476 -3.333333,6.190476 0,0 -3.333334,-3.690476 -3.333334,-6.190476 A 3.3333333,3.3333333 0 0 1 23.333311,20.2381 m 2.857143,7.142858 3.809524,0 0,0.952381 -3.809524,0 0,-0.952381 z"
       id="path8321" />
    <g
       id="g10391"
       transform="matrix(0.02324943,0,0,0.02324943,4.9999786,5.0000172)" />
    <g
       id="g10393"
       transform="matrix(0.02324943,0,0,0.02324943,4.9999786,5.0000172)" />
    <g
       id="g10395"
       transform="matrix(0.02324943,0,0,0.02324943,4.9999786,5.0000172)" />
    <g
       id="g10397"
       transform="matrix(0.02324943,0,0,0.02324943,4.9999786,5.0000172)" />
    <g
       id="g10399"
       transform="matrix(0.02324943,0,0,0.02324943,4.9999786,5.0000172)" />
    <g
       id="g10401"
       transform="matrix(0.02324943,0,0,0.02324943,4.9999786,5.0000172)" />
    <g
       id="g10403"
       transform="matrix(0.02324943,0,0,0.02324943,4.9999786,5.0000172)" />
    <g
       id="g10405"
       transform="matrix(0.02324943,0,0,0.02324943,4.9999786,5.0000172)" />
    <g
       id="g10407"
       transform="matrix(0.02324943,0,0,0.02324943,4.9999786,5.0000172)" />
    <g
       id="g10409"
       transform="matrix(0.02324943,0,0,0.02324943,4.9999786,5.0000172)" />
    <g
       id="g10411"
       transform="matrix(0.02324943,0,0,0.02324943,4.9999786,5.0000172)" />
    <g
       id="g10413"
       transform="matrix(0.02324943,0,0,0.02324943,4.9999786,5.0000172)" />
    <g
       id="g10415"
       transform="matrix(0.02324943,0,0,0.02324943,4.9999786,5.0000172)" />
    <g
       id="g10417"
       transform="matrix(0.02324943,0,0,0.02324943,4.9999786,5.0000172)" />
    <g
       id="g10419"
       transform="matrix(0.02324943,0,0,0.02324943,4.9999786,5.0000172)" />
    <g
       id="g12601"
       transform="matrix(0.02061856,0,0,0.02061856,4.9999769,5.000004)" />
    <g
       id="g12603"
       transform="matrix(0.02061856,0,0,0.02061856,4.9999769,5.000004)" />
    <g
       id="g12605"
       transform="matrix(0.02061856,0,0,0.02061856,4.9999769,5.000004)" />
    <g
       id="g12607"
       transform="matrix(0.02061856,0,0,0.02061856,4.9999769,5.000004)" />
    <g
       id="g12609"
       transform="matrix(0.02061856,0,0,0.02061856,4.9999769,5.000004)" />
    <g
       id="g12611"
       transform="matrix(0.02061856,0,0,0.02061856,4.9999769,5.000004)" />
    <g
       id="g12613"
       transform="matrix(0.02061856,0,0,0.02061856,4.9999769,5.000004)" />
    <g
       id="g12615"
       transform="matrix(0.02061856,0,0,0.02061856,4.9999769,5.000004)" />
    <g
       id="g12617"
       transform="matrix(0.02061856,0,0,0.02061856,4.9999769,5.000004)" />
    <g
       id="g12619"
       transform="matrix(0.02061856,0,0,0.02061856,4.9999769,5.000004)" />
    <g
       id="g12621"
       transform="matrix(0.02061856,0,0,0.02061856,4.9999769,5.000004)" />
    <g
       id="g12623"
       transform="matrix(0.02061856,0,0,0.02061856,4.9999769,5.000004)" />
    <g
       id="g12625"
       transform="matrix(0.02061856,0,0,0.02061856,4.9999769,5.000004)" />
    <g
       id="g12627"
       transform="matrix(0.02061856,0,0,0.02061856,4.9999769,5.000004)" />
    <g
       id="g12629"
       transform="matrix(0.02061856,0,0,0.02061856,4.9999769,5.000004)" />
  </g>
</svg>
