<?xml version="1.0" encoding="UTF-8" standalone="no"?>
<!-- Created with Inkscape (http://www.inkscape.org/) -->

<svg
   xmlns:dc="http://purl.org/dc/elements/1.1/"
   xmlns:cc="http://creativecommons.org/ns#"
   xmlns:rdf="http://www.w3.org/1999/02/22-rdf-syntax-ns#"
   xmlns:svg="http://www.w3.org/2000/svg"
   xmlns="http://www.w3.org/2000/svg"
   xmlns:xlink="http://www.w3.org/1999/xlink"
   xmlns:sodipodi="http://sodipodi.sourceforge.net/DTD/sodipodi-0.dtd"
   xmlns:inkscape="http://www.inkscape.org/namespaces/inkscape"
   sodipodi:docname="oPENVPN.svg"
   inkscape:version="0.91 r13725"
   version="1.1"
   id="svg2"
   viewBox="0 0 20 20"
   height="5.6444445mm"
   width="5.6444445mm"
   inkscape:export-filename="/home/juergen/Projekte/Android/Android_Studio/Baumann_Theme/theme/src/main/assets/icons/res/drawable-xxhdpi/a138.png"
   inkscape:export-xdpi="648"
   inkscape:export-ydpi="648">
  <sodipodi:namedview
     inkscape:snap-to-guides="true"
     inkscape:snap-grids="true"
     inkscape:window-maximized="1"
     inkscape:window-y="24"
     inkscape:window-x="0"
     inkscape:window-height="744"
     inkscape:window-width="1366"
     inkscape:guide-bbox="true"
     showguides="true"
     fit-margin-bottom="0"
     fit-margin-right="0"
     fit-margin-left="0"
     fit-margin-top="0"
     showgrid="true"
     inkscape:current-layer="layer2"
     inkscape:document-units="px"
     inkscape:cy="0.50699606"
     inkscape:cx="7.4486531"
     inkscape:zoom="15.839192"
     inkscape:pageshadow="2"
     inkscape:pageopacity="0.0"
     borderopacity="1.0"
     bordercolor="#666666"
     pagecolor="#ffffff"
     id="base">
    <inkscape:grid
       type="xygrid"
       id="grid4138" />
    <sodipodi:guide
       position="10,18"
       orientation="0,1"
       id="guide4140" />
    <sodipodi:guide
       position="10,2"
       orientation="0,1"
       id="guide4142" />
    <sodipodi:guide
       position="2,10"
       orientation="1,0"
       id="guide4144" />
    <sodipodi:guide
       position="0,0"
       orientation="0,20"
       id="guide4146" />
    <sodipodi:guide
       position="20,20"
       orientation="0,-20"
       id="guide4150" />
    <sodipodi:guide
       position="0,20"
       orientation="20,0"
       id="guide4152" />
    <sodipodi:guide
       position="18,10"
       orientation="1,0"
       id="guide4154" />
    <sodipodi:guide
       position="10,10"
       orientation="-0.70710678,0.70710678"
       id="guide4156" />
    <sodipodi:guide
       position="10,10"
       orientation="0.70710678,0.70710678"
       id="guide4158" />
    <sodipodi:guide
       position="4,10"
       orientation="1,0"
       id="guide4160" />
    <sodipodi:guide
       position="16,10"
       orientation="1,0"
       id="guide4162" />
    <sodipodi:guide
       position="10,16"
       orientation="0,1"
       id="guide4164" />
    <sodipodi:guide
       position="10,4"
       orientation="0,1"
       id="guide4166" />
    <sodipodi:guide
       position="10,15"
       orientation="0,1"
       id="guide4168" />
    <sodipodi:guide
       position="10,5"
       orientation="0,1"
       id="guide4170" />
    <sodipodi:guide
       position="5,10"
       orientation="1,0"
       id="guide4172" />
    <sodipodi:guide
       position="15,10"
       orientation="1,0"
       id="guide4174" />
  </sodipodi:namedview>
  <defs
     id="defs4">
    <linearGradient
       inkscape:collect="always"
       id="linearGradient24307">
      <stop
         style="stop-color:#000000;stop-opacity:1;"
         offset="0"
         id="stop24309" />
      <stop
         style="stop-color:#000000;stop-opacity:0;"
         offset="1"
         id="stop24311" />
    </linearGradient>
    <clipPath
       id="clipPath12478"
       clipPathUnits="userSpaceOnUse">
      <circle
         r="10"
         cy="10.000005"
         cx="9.9999781"
         id="circle12480"
         style="opacity:1;fill:#2196f3;fill-opacity:1;stroke:none;stroke-width:0.05069799;stroke-miterlimit:4;stroke-dasharray:none;stroke-opacity:1" />
    </clipPath>
    <clipPath
       clipPathUnits="userSpaceOnUse"
       id="clipPath13251">
      <circle
         r="10"
         cy="10.000005"
         cx="9.9999781"
         id="circle13253"
         style="opacity:1;fill:#2196f3;fill-opacity:1;stroke:none;stroke-width:0.05069799;stroke-miterlimit:4;stroke-dasharray:none;stroke-opacity:1"
         inkscape:export-filename="/home/juergen/path4136.png"
         inkscape:export-xdpi="648"
         inkscape:export-ydpi="648" />
    </clipPath>
    <clipPath
       id="clipPath5054"
       clipPathUnits="userSpaceOnUse">
      <circle
         r="10"
         cy="10.000005"
         cx="9.9999781"
         id="circle5056"
         style="opacity:1;fill:#2196f3;fill-opacity:1;stroke:none;stroke-width:0.05069799;stroke-miterlimit:4;stroke-dasharray:none;stroke-opacity:1"
         inkscape:export-filename="/home/juergen/path4136.png"
         inkscape:export-xdpi="648"
         inkscape:export-ydpi="648" />
    </clipPath>
    <clipPath
       clipPathUnits="userSpaceOnUse"
       id="clipPath5838">
      <circle
         r="10"
         cy="10.000005"
         cx="9.9999781"
         id="circle5840"
         style="opacity:1;fill:#f44336;fill-opacity:1;stroke:none;stroke-width:0.05069799;stroke-miterlimit:4;stroke-dasharray:none;stroke-opacity:1"
         inkscape:export-filename="/home/juergen/path4136.png"
         inkscape:export-xdpi="648"
         inkscape:export-ydpi="648" />
    </clipPath>
    <clipPath
       clipPathUnits="userSpaceOnUse"
       id="clipPath5850">
      <rect
         style="opacity:0.96300001;fill:#fdd835;fill-opacity:1;stroke:none;stroke-width:1.25;stroke-linecap:round;stroke-linejoin:round;stroke-miterlimit:4;stroke-dasharray:none;stroke-opacity:1"
         id="rect5852"
         width="5.7452426"
         height="4.0406103"
         x="7.0710678"
         y="3.9638286" />
    </clipPath>
    <clipPath
       id="clipPath22302"
       clipPathUnits="userSpaceOnUse">
      <circle
         r="10"
         cy="10.000005"
         cx="9.9999781"
         id="circle22304"
         style="opacity:1;fill:#9c27b0;fill-opacity:1;stroke:none;stroke-width:0.05069799;stroke-miterlimit:4;stroke-dasharray:none;stroke-opacity:1"
         inkscape:export-filename="/home/juergen/path4136.png"
         inkscape:export-xdpi="648"
         inkscape:export-ydpi="648" />
    </clipPath>
    <linearGradient
       inkscape:collect="always"
       xlink:href="#linearGradient24307"
       id="linearGradient24313"
       x1="10"
       y1="10"
       x2="20"
       y2="20"
       gradientUnits="userSpaceOnUse" />
    <clipPath
       clipPathUnits="userSpaceOnUse"
       id="clipPath24318">
      <circle
         r="10"
         cy="10.000005"
         cx="9.9999781"
         id="circle24320"
         style="opacity:1;fill:#ff9800;fill-opacity:1;stroke:none;stroke-width:0.05069799;stroke-miterlimit:4;stroke-dasharray:none;stroke-opacity:1"
         inkscape:export-filename="/home/juergen/path4136.png"
         inkscape:export-xdpi="648"
         inkscape:export-ydpi="648" />
    </clipPath>
  </defs>
  <metadata
     id="metadata7">
    <rdf:RDF>
      <cc:Work
         rdf:about="">
        <dc:format>image/svg+xml</dc:format>
        <dc:type
           rdf:resource="http://purl.org/dc/dcmitype/StillImage" />
        <dc:title></dc:title>
      </cc:Work>
    </rdf:RDF>
  </metadata>
  <g
     inkscape:label="Hintergrund"
     inkscape:groupmode="layer"
     id="layer1"
     transform="translate(1058.1428,-861.93365)">
    <circle
       inkscape:export-ydpi="648"
       inkscape:export-xdpi="648"
       inkscape:export-filename="/home/juergen/path4136.png"
       style="opacity:1;fill:#ff9800;fill-opacity:1;stroke:none;stroke-width:0.05069799;stroke-miterlimit:4;stroke-dasharray:none;stroke-opacity:1"
       id="path4136"
       cx="-1048.1428"
       cy="871.93365"
       r="10" />
  </g>
  <g
     style="display:inline"
     inkscape:groupmode="layer"
     id="layer2"
     inkscape:label="Icon">
    <path
       d="M 13.410156 5 C 13.091975 5 12.808061 5.1255327 12.603516 5.3300781 C 12.501243 5.4323508 12.418146 5.5550426 12.361328 5.6914062 C 12.30451 5.8277699 12.273438 5.9776279 12.273438 6.1367188 L 12.273438 6.3632812 C 12.068892 6.3632812 11.915483 6.4666193 11.851562 6.6328125 C 11.830256 6.6882102 11.818359 6.7501776 11.818359 6.8183594 L 11.818359 7.0605469 C 11.812814 7.0587279 11.806359 7.0564897 11.800781 7.0546875 L 11.800781 7.0273438 C 11.78934 7.0235299 11.775253 7.0213198 11.763672 7.0175781 L 11.763672 6.9921875 C 11.752914 6.9886015 11.739397 6.9878973 11.728516 6.984375 L 11.728516 6.9570312 C 11.718324 6.953634 11.705615 6.9525589 11.695312 6.9492188 L 11.695312 6.921875 C 11.684576 6.9182961 11.671016 6.9175779 11.660156 6.9140625 L 11.660156 6.8886719 C 11.649964 6.8852746 11.637256 6.8841995 11.626953 6.8808594 L 11.626953 6.8554688 C 11.617327 6.8522602 11.605428 6.8508139 11.595703 6.8476562 L 11.595703 6.8222656 C 11.586071 6.8190549 11.574185 6.8176129 11.564453 6.8144531 L 11.564453 6.7910156 C 11.554847 6.7878138 11.542907 6.7863543 11.533203 6.7832031 L 11.533203 6.7597656 C 11.524138 6.7567439 11.513059 6.7549297 11.503906 6.7519531 L 11.503906 6.7304688 C 11.494866 6.7274554 11.483737 6.7256247 11.474609 6.7226562 L 11.474609 6.7011719 C 11.465569 6.6981585 11.45444 6.6963279 11.445312 6.6933594 L 11.445312 6.671875 C 11.436954 6.6690889 11.426402 6.6687634 11.417969 6.6660156 L 11.417969 6.6445312 C 11.409633 6.6417528 11.399035 6.6414122 11.390625 6.6386719 L 11.390625 6.6171875 C 11.38229 6.6144091 11.371691 6.6140684 11.363281 6.6113281 L 11.363281 6.5917969 C 11.355496 6.5892017 11.345741 6.5884994 11.337891 6.5859375 L 11.337891 6.5664062 C 11.330105 6.5638111 11.32035 6.5631088 11.3125 6.5605469 L 11.3125 6.5410156 C 11.305281 6.5386092 11.296338 6.5375341 11.289062 6.5351562 L 11.289062 6.515625 C 11.281838 6.5132169 11.272905 6.5121451 11.265625 6.5097656 L 11.265625 6.4941406 C 11.258972 6.4919229 11.250841 6.4904747 11.244141 6.4882812 L 11.244141 6.4707031 C 11.236936 6.4683017 11.227963 6.4672167 11.220703 6.4648438 L 11.220703 6.4492188 C 11.21405 6.4470011 11.205919 6.4455528 11.199219 6.4433594 L 11.199219 6.4277344 C 11.193132 6.4257054 11.185814 6.4238837 11.179688 6.421875 L 11.179688 6.40625 C 11.173737 6.4042666 11.166144 6.4043078 11.160156 6.4023438 L 11.160156 6.3867188 C 11.154206 6.3847354 11.146613 6.3847765 11.140625 6.3828125 L 11.140625 6.3691406 C 11.135246 6.3673476 11.128457 6.3670116 11.123047 6.3652344 L 11.123047 6.3496094 C 11.117664 6.347815 11.110883 6.3474817 11.105469 6.3457031 L 11.105469 6.3320312 C 11.100086 6.3302369 11.093305 6.3299035 11.087891 6.328125 L 11.087891 6.3164062 C 11.083078 6.314802 11.077103 6.3140916 11.072266 6.3125 L 11.072266 6.3007812 C 11.067453 6.299177 11.061478 6.2984666 11.056641 6.296875 L 11.056641 6.2851562 C 11.052394 6.2837407 11.047235 6.2826557 11.042969 6.28125 L 11.042969 6.2695312 C 11.03872 6.2681149 11.033566 6.2670315 11.029297 6.265625 L 11.029297 6.2558594 C 11.025048 6.254443 11.019894 6.2533596 11.015625 6.2519531 L 11.015625 6.2441406 C 11.012086 6.242961 11.007459 6.2433603 11.003906 6.2421875 L 11.003906 6.2304688 C 11.000364 6.2292881 10.995743 6.2296895 10.992188 6.2285156 L 10.992188 6.2207031 C 10.989215 6.2197122 10.985404 6.2197361 10.982422 6.21875 L 10.982422 6.2089844 C 10.979455 6.2079954 10.975633 6.2080154 10.972656 6.2070312 L 10.972656 6.1992188 C 10.969689 6.1982298 10.965867 6.1982498 10.962891 6.1972656 L 10.962891 6.1894531 C 10.959924 6.1884641 10.956101 6.1884842 10.953125 6.1875 L 10.953125 6.1816406 C 10.950719 6.1808385 10.947725 6.1804865 10.945312 6.1796875 L 10.945312 6.1738281 C 10.943472 6.1732147 10.941297 6.1724866 10.939453 6.171875 L 10.939453 6.1660156 C 10.937617 6.1654037 10.935433 6.1646726 10.933594 6.1640625 L 10.933594 6.1601562 C 10.931758 6.1595443 10.929574 6.1588132 10.927734 6.1582031 L 10.927734 6.1542969 C 10.925898 6.1536849 10.923715 6.1529539 10.921875 6.1523438 L 10.921875 6.1503906 C 10.920601 6.149966 10.919245 6.1488613 10.917969 6.1484375 L 10.917969 6.1464844 C 10.916695 6.1460597 10.915338 6.144955 10.914062 6.1445312 L 10.914062 6.1425781 C 10.914062 6.1425781 10.912109 6.1425781 10.912109 6.1425781 L 10.912109 6.140625 C 10.912109 6.140625 10.910156 6.140625 10.910156 6.140625 L 10.910156 6.1386719 L 10.910156 6.1367188 C 10.746433 6.0821449 10.561056 6.042959 10.376953 6.0058594 C 10.331683 5.9967368 10.291937 5.9805028 10.246094 5.9726562 C 10.245448 5.972546 10.244786 5.9727662 10.244141 5.9726562 C 10.011185 5.9328835 9.7721945 5.9101562 9.5449219 5.9101562 C 8.607422 5.9101562 7.735529 6.1980647 7.0097656 6.6894531 C 6.7674277 6.8535315 6.5421908 7.0397056 6.3359375 7.2460938 C 5.9244951 7.6578051 5.59 8.1465974 5.359375 8.6894531 C 5.3591499 8.6899825 5.3595999 8.6908768 5.359375 8.6914062 C 5.2443117 8.9625558 5.1544361 9.2464445 5.09375 9.5410156 C 5.0936226 9.5416325 5.0938771 9.5423517 5.09375 9.5429688 C 5.0331872 9.8375758 5 10.143239 5 10.455078 C 5 10.738833 5.035562 11.013486 5.0859375 11.283203 C 5.0910408 11.310527 5.0881561 11.340034 5.09375 11.367188 C 5.1545695 11.663043 5.2456721 11.95042 5.3613281 12.222656 C 5.4772739 12.495128 5.6185847 12.753588 5.7832031 12.996094 C 5.7832031 12.996094 5.7851562 12.998047 5.7851562 12.998047 C 5.8559987 13.102679 5.9463301 13.190827 6.0253906 13.289062 C 6.1277449 13.415812 6.2208435 13.550922 6.3359375 13.666016 C 6.3359375 13.666016 6.3378906 13.666016 6.3378906 13.666016 C 6.3385396 13.666664 6.3391944 13.667321 6.3398438 13.667969 C 6.3398438 13.667969 6.3417969 13.669922 6.3417969 13.669922 C 6.3417969 13.669922 6.34375 13.671875 6.34375 13.671875 C 6.34375 13.671875 6.34375 13.673828 6.34375 13.673828 C 6.34375 13.673828 6.3457031 13.675781 6.3457031 13.675781 C 6.3457031 13.675781 6.3476562 13.677734 6.3476562 13.677734 C 6.3476562 13.677734 6.3496094 13.679688 6.3496094 13.679688 C 6.3496094 13.679688 6.3515625 13.679688 6.3515625 13.679688 C 6.3515625 13.679688 6.3515625 13.681641 6.3515625 13.681641 C 6.3515625 13.681641 6.3535156 13.683594 6.3535156 13.683594 C 6.3545203 13.684598 6.3564163 13.684543 6.3574219 13.685547 C 6.3594277 13.687556 6.3612717 13.6894 6.3632812 13.691406 C 6.3678749 13.696008 6.3723401 13.700495 6.3769531 13.705078 C 6.3782503 13.706378 6.3795607 13.707686 6.3808594 13.708984 C 6.386737 13.714894 6.3925279 13.720685 6.3984375 13.726562 C 6.4036683 13.731828 6.4088063 13.736947 6.4140625 13.742188 C 6.4176544 13.74579 6.4202243 13.750315 6.4238281 13.753906 C 6.4293593 13.759457 6.4358469 13.764009 6.4414062 13.769531 C 6.4414062 13.769531 6.4433594 13.771484 6.4433594 13.771484 C 6.4433594 13.771484 6.4453125 13.773438 6.4453125 13.773438 C 6.4511865 13.779351 6.4569846 13.785135 6.4628906 13.791016 C 6.4694183 13.797571 6.4758548 13.804031 6.4824219 13.810547 C 6.4824219 13.810547 6.484375 13.8125 6.484375 13.8125 C 6.484375 13.8125 6.4863281 13.814453 6.4863281 13.814453 C 6.4951396 13.823334 6.5047884 13.831035 6.5136719 13.839844 C 6.5156785 13.841854 6.5175209 13.843697 6.5195312 13.845703 C 6.5270436 13.853279 6.5334508 13.861617 6.5410156 13.869141 C 6.5468932 13.87505 6.5526842 13.880841 6.5585938 13.886719 C 6.5647679 13.892927 6.5699624 13.900077 6.5761719 13.90625 C 6.5826323 13.912749 6.589204 13.919321 6.5957031 13.925781 C 6.6041633 13.934292 6.6145205 13.940774 6.6230469 13.949219 C 6.6263487 13.952531 6.6295006 13.955683 6.6328125 13.958984 C 6.6435522 13.969828 6.6532156 13.981451 6.6640625 13.992188 C 6.668305 13.996445 6.6734752 13.999665 6.6777344 14.003906 C 6.6868927 14.013154 6.6958418 14.022081 6.7050781 14.03125 C 6.7148915 14.041135 6.7244724 14.050751 6.734375 14.060547 C 6.7389704 14.065162 6.7434319 14.069623 6.7480469 14.074219 C 6.7581365 14.084419 6.7671593 14.095364 6.7773438 14.105469 C 6.7861553 14.11435 6.7958039 14.122051 6.8046875 14.130859 C 6.8138437 14.140093 6.8227972 14.149047 6.8320312 14.158203 C 6.8411943 14.167444 6.850134 14.176384 6.859375 14.185547 C 6.8704669 14.196733 6.8813721 14.207678 6.8925781 14.21875 C 6.8991069 14.225314 6.9055412 14.231756 6.9121094 14.238281 C 6.9234793 14.249789 6.933822 14.26205 6.9453125 14.273438 C 6.9554031 14.283619 6.9663773 14.292647 6.9765625 14.302734 C 6.9870106 14.313284 6.9972629 14.323536 7.0078125 14.333984 C 7.0201874 14.346479 7.0324047 14.358741 7.0449219 14.371094 C 7.054041 14.380274 7.0630695 14.389335 7.0722656 14.398438 C 7.0820142 14.408286 7.0917255 14.417974 7.1015625 14.427734 C 7.1158562 14.442219 7.1300469 14.45641 7.1445312 14.470703 C 7.1546452 14.480897 7.1655724 14.489902 7.1757812 14.5 C 7.1858797 14.510209 7.1948847 14.521136 7.2050781 14.53125 C 7.2190008 14.545375 7.2319899 14.560275 7.2460938 14.574219 C 7.2584048 14.586671 7.2707509 14.599017 7.2832031 14.611328 C 7.2971472 14.625432 7.3120468 14.638421 7.3261719 14.652344 C 7.3375722 14.663847 7.3498071 14.674164 7.3613281 14.685547 C 7.372711 14.697068 7.3830276 14.709303 7.3945312 14.720703 C 7.4110903 14.737523 7.428497 14.752968 7.4453125 14.769531 C 7.4557703 14.780091 7.466003 14.790323 7.4765625 14.800781 C 7.491828 14.816297 7.5060005 14.832358 7.5214844 14.847656 C 7.535768 14.86213 7.5499792 14.876341 7.5644531 14.890625 C 7.5787367 14.905099 7.5929479 14.91931 7.6074219 14.933594 C 7.6220679 14.948435 7.6374976 14.961921 7.6523438 14.976562 C 7.6673385 14.991767 7.682061 15.00649 7.6972656 15.021484 C 7.7122603 15.036689 7.7269828 15.051412 7.7421875 15.066406 C 7.7574731 15.081906 7.7716056 15.098 7.7871094 15.113281 C 7.8026709 15.129069 7.8181966 15.144595 7.8339844 15.160156 C 7.8498982 15.176301 7.8666621 15.191123 7.8828125 15.207031 C 7.9003729 15.224859 7.9176983 15.242227 7.9355469 15.259766 C 7.9485731 15.27295 7.961425 15.285802 7.9746094 15.298828 C 7.9947063 15.319304 8.0146803 15.339278 8.0351562 15.359375 C 8.0501183 15.374519 8.0649076 15.389362 8.0800781 15.404297 C 8.0956571 15.420122 8.111147 15.435574 8.1269531 15.451172 C 8.1457519 15.470325 8.1644632 15.488991 8.1835938 15.507812 C 8.2011427 15.52565 8.2184909 15.542998 8.2363281 15.560547 C 8.2557924 15.580331 8.2751032 15.599712 8.2949219 15.619141 C 8.3111646 15.6356 8.3272612 15.651756 8.34375 15.667969 C 8.3606069 15.685112 8.3774081 15.701873 8.3945312 15.71875 C 8.4158998 15.740547 8.4371868 15.761835 8.4589844 15.783203 C 8.4762142 15.800684 8.4942117 15.816781 8.5117188 15.833984 C 8.528922 15.851491 8.5450192 15.869489 8.5625 15.886719 C 8.5834894 15.908155 8.6035959 15.93015 8.625 15.951172 C 8.644386 15.97091 8.6638553 15.99038 8.6835938 16.009766 C 8.7033314 16.029862 8.7240377 16.048628 8.7441406 16.068359 C 8.7642376 16.088835 8.7842116 16.10881 8.8046875 16.128906 C 8.8247844 16.149382 8.8447585 16.169356 8.8652344 16.189453 C 8.8856685 16.210272 8.9069085 16.229573 8.9277344 16.25 C 8.948176 16.27084 8.9674472 16.292052 8.9882812 16.3125 C 9.0112691 16.335949 9.0351098 16.357907 9.0585938 16.380859 C 9.0764513 16.399011 9.0931721 16.417694 9.1113281 16.435547 C 9.1355858 16.460351 9.1607351 16.483563 9.1855469 16.507812 C 9.204389 16.526987 9.2230126 16.545611 9.2421875 16.564453 C 9.2657976 16.588611 9.2883644 16.613086 9.3125 16.636719 C 9.3345098 16.659171 9.3564414 16.681128 9.3789062 16.703125 C 9.4028288 16.727557 9.4267113 16.751498 9.4511719 16.775391 C 9.4722302 16.796832 9.4941511 16.816865 9.515625 16.837891 C 9.5369848 16.859706 9.558289 16.880958 9.5800781 16.902344 C 9.6046652 16.927531 9.6291391 16.951945 9.6542969 16.976562 C 9.6795368 17.002356 9.7046296 17.027541 9.7304688 17.052734 C 9.7505856 17.073231 9.770519 17.093164 9.7910156 17.113281 C 9.8164989 17.139417 9.8410904 17.165883 9.8671875 17.191406 C 9.8927266 17.217521 9.9191595 17.242078 9.9453125 17.267578 C 9.9683184 17.291046 9.9921222 17.312967 10.015625 17.335938 C 10.038616 17.359462 10.060495 17.383223 10.083984 17.40625 C 10.110459 17.433435 10.136924 17.459805 10.164062 17.486328 C 10.189304 17.512156 10.214392 17.537273 10.240234 17.5625 C 10.266757 17.589638 10.293127 17.616103 10.320312 17.642578 C 10.342974 17.665723 10.365527 17.688276 10.388672 17.710938 C 10.417706 17.740752 10.446731 17.769811 10.476562 17.798828 C 10.499205 17.821952 10.521797 17.844546 10.544922 17.867188 C 10.57293 17.895981 10.600155 17.925073 10.628906 17.953125 C 10.655056 17.979927 10.682189 18.005093 10.708984 18.03125 C 10.736097 18.059057 10.763208 18.086168 10.791016 18.113281 C 10.818148 18.141109 10.845219 18.168181 10.873047 18.195312 C 10.900179 18.22314 10.92725 18.250212 10.955078 18.277344 C 10.982542 18.305511 11.010887 18.331921 11.039062 18.359375 C 11.066536 18.387571 11.092907 18.415877 11.121094 18.443359 C 11.151098 18.474169 11.182036 18.503246 11.212891 18.533203 C 11.239441 18.56037 11.265754 18.586779 11.292969 18.613281 C 11.320111 18.641154 11.34716 18.668137 11.375 18.695312 C 11.404977 18.726188 11.434013 18.757086 11.464844 18.787109 C 11.495507 18.818596 11.527042 18.848309 11.558594 18.878906 C 11.584487 18.905432 11.610193 18.931138 11.636719 18.957031 C 11.667954 18.989241 11.698306 19.021451 11.730469 19.052734 C 11.760125 19.083223 11.789823 19.112922 11.820312 19.142578 C 11.851576 19.174719 11.883827 19.205113 11.916016 19.236328 C 11.944807 19.265858 11.974332 19.293519 12.003906 19.322266 C 12.032628 19.351812 12.06034 19.381391 12.089844 19.410156 C 12.123325 19.444723 12.156859 19.478218 12.191406 19.511719 C 12.221111 19.542222 12.250711 19.571894 12.28125 19.601562 C 12.310918 19.632101 12.34059 19.661702 12.371094 19.691406 C 12.403914 19.725291 12.436858 19.758155 12.470703 19.791016 C 12.502309 19.823569 12.533852 19.855113 12.566406 19.886719 C 12.598279 19.919546 12.629273 19.952511 12.662109 19.984375 C 12.693996 20.017234 12.726914 20.048184 12.759766 20.080078 C 12.79199 20.113308 12.82421 20.145491 12.857422 20.177734 C 12.890262 20.211599 12.923167 20.244504 12.957031 20.277344 C 12.989895 20.311233 13.022751 20.34409 13.056641 20.376953 C 13.091395 20.412791 13.126209 20.447732 13.162109 20.482422 C 13.194066 20.515277 13.226842 20.546238 13.259766 20.578125 C 13.291645 20.610999 13.322623 20.643872 13.355469 20.675781 C 13.390532 20.712068 13.426655 20.746135 13.462891 20.78125 C 13.49673 20.81617 13.529525 20.850935 13.564453 20.884766 C 13.598921 20.920353 13.634324 20.953824 13.669922 20.988281 C 13.706005 21.025559 13.741975 21.061618 13.779297 21.097656 C 13.810934 21.130243 13.842413 21.161722 13.875 21.193359 C 13.911651 21.23136 13.948393 21.267969 13.986328 21.304688 C 14.021423 21.340945 14.05553 21.377024 14.091797 21.412109 C 14.128793 21.450352 14.16678 21.486499 14.205078 21.523438 C 14.237974 21.557361 14.270764 21.590151 14.304688 21.623047 C 14.342264 21.662009 14.379043 21.700668 14.417969 21.738281 C 14.453979 21.775505 14.490099 21.811668 14.527344 21.847656 C 14.564957 21.886582 14.603616 21.923361 14.642578 21.960938 C 14.676702 21.99617 14.710863 22.030329 14.746094 22.064453 C 14.785904 22.105779 14.825861 22.145737 14.867188 22.185547 C 14.902967 22.222489 14.939566 22.257245 14.976562 22.292969 C 15.012286 22.329965 15.047042 22.366564 15.083984 22.402344 C 15.124406 22.444353 15.165045 22.484945 15.207031 22.525391 C 15.24244 22.561993 15.27785 22.597404 15.314453 22.632812 C 15.353602 22.6735 15.392976 22.712732 15.433594 22.751953 C 15.472128 22.791906 15.510828 22.830606 15.550781 22.869141 C 15.589316 22.909094 15.628016 22.947794 15.667969 22.986328 C 15.706818 23.026609 15.744866 23.06663 15.785156 23.105469 C 15.824256 23.146029 15.863736 23.18551 15.904297 23.224609 C 15.943744 23.265531 15.984456 23.304316 16.025391 23.34375 C 16.064588 23.384392 16.103867 23.423716 16.144531 23.462891 C 16.184314 23.504187 16.224329 23.544202 16.265625 23.583984 C 16.305722 23.62561 16.345084 23.666944 16.386719 23.707031 C 16.426806 23.748666 16.46814 23.788028 16.509766 23.828125 C 16.550187 23.870135 16.590826 23.910726 16.632812 23.951172 C 16.673841 23.993813 16.715172 24.035143 16.757812 24.076172 C 16.79887 24.118843 16.84014 24.160115 16.882812 24.201172 C 16.92387 24.243843 16.96514 24.285115 17.007812 24.326172 C 17.049217 24.369206 17.091719 24.40978 17.134766 24.451172 C 17.176763 24.494848 17.218031 24.538092 17.261719 24.580078 C 17.303411 24.623411 17.345316 24.665364 17.388672 24.707031 C 17.430975 24.751049 17.473559 24.793636 17.517578 24.835938 C 17.559881 24.879955 17.602465 24.922542 17.646484 24.964844 C 17.689105 25.009192 17.732981 25.051143 17.777344 25.09375 C 17.81998 25.138144 17.861869 25.18196 17.90625 25.224609 C 17.951383 25.271628 17.997835 25.316266 18.044922 25.361328 C 18.085408 25.403358 18.125915 25.443914 18.167969 25.484375 C 18.214071 25.532495 18.260448 25.578925 18.308594 25.625 C 18.349692 25.667716 18.390878 25.708902 18.433594 25.75 C 18.479034 25.797486 18.524835 25.843173 18.572266 25.888672 C 18.618395 25.936763 18.664718 25.983252 18.712891 26.029297 C 18.754625 26.072674 18.796441 26.114541 18.839844 26.15625 C 18.887185 26.205722 18.934876 26.253468 18.984375 26.300781 C 19.02672 26.344846 19.069217 26.387343 19.113281 26.429688 C 19.159928 26.47849 19.207113 26.525561 19.255859 26.572266 C 19.301296 26.619688 19.347109 26.665501 19.394531 26.710938 C 19.440286 26.758695 19.485435 26.805819 19.533203 26.851562 C 19.578946 26.899331 19.626071 26.94448 19.673828 26.990234 C 19.720504 27.039008 19.767632 27.086137 19.816406 27.132812 C 19.862508 27.180932 19.908885 27.227363 19.957031 27.273438 C 20.003707 27.322212 20.050835 27.36934 20.099609 27.416016 C 20.146664 27.465189 20.194954 27.511554 20.244141 27.558594 C 20.291494 27.608109 20.339157 27.655771 20.388672 27.703125 C 20.43606 27.752676 20.483651 27.80027 20.533203 27.847656 C 20.580876 27.897508 20.627871 27.94648 20.677734 27.994141 C 20.725648 28.044268 20.774092 28.092712 20.824219 28.140625 C 20.873745 28.19244 20.924672 28.241568 20.976562 28.291016 C 21.022076 28.338522 21.067728 28.384174 21.115234 28.429688 C 21.944583 29.300058 23.106727 29.851562 24.396484 29.851562 C 26.896484 29.851562 28.941406 27.806641 28.941406 25.306641 C 28.941406 25.170277 28.941934 24.987927 28.896484 24.851562 L 28.763672 24.851562 C 28.756941 24.800531 28.762881 24.747633 28.748047 24.703125 L 28.617188 24.703125 C 28.610456 24.652094 28.616397 24.599195 28.601562 24.554688 L 28.46875 24.554688 C 28.462023 24.504434 28.4697 24.452074 28.455078 24.408203 L 28.322266 24.408203 C 28.315542 24.358433 28.323084 24.307148 28.308594 24.263672 L 28.177734 24.263672 C 28.171007 24.213419 28.178685 24.161058 28.164062 24.117188 L 28.033203 24.117188 C 28.026481 24.067643 28.03396 24.015947 28.019531 23.972656 L 27.888672 23.972656 C 27.887205 23.961987 27.888492 23.951887 27.886719 23.941406 L 29.396484 23.941406 C 29.669211 23.941406 29.851562 23.761008 29.851562 23.488281 L 29.851562 21.669922 C 29.851562 21.490848 29.767758 21.356202 29.636719 21.28125 C 29.60114 21.219048 29.550367 21.170488 29.488281 21.134766 C 29.463764 21.091812 29.434036 21.054191 29.396484 21.023438 L 29.396484 20.988281 C 29.396484 20.630921 29.229474 20.32805 28.978516 20.121094 C 28.933714 20.066766 28.886246 20.019541 28.832031 19.974609 C 28.786713 19.919533 28.738567 19.871608 28.683594 19.826172 C 28.638776 19.771972 28.591309 19.724505 28.537109 19.679688 C 28.492811 19.626117 28.446049 19.579569 28.392578 19.535156 C 28.348104 19.481373 28.301764 19.433222 28.248047 19.388672 C 28.203497 19.334955 28.155346 19.288614 28.101562 19.244141 C 28.058241 19.192127 28.012951 19.146837 27.960938 19.103516 C 27.916639 19.049945 27.869877 19.003397 27.816406 18.958984 C 27.773665 18.907667 27.728945 18.863176 27.677734 18.820312 C 27.633836 18.767224 27.588069 18.719881 27.535156 18.675781 C 27.491979 18.623977 27.446336 18.578333 27.394531 18.535156 C 27.351879 18.483982 27.306937 18.439247 27.255859 18.396484 C 27.213208 18.34531 27.168265 18.300575 27.117188 18.257812 C 27.074536 18.206638 27.029594 18.161903 26.978516 18.119141 C 26.935691 18.067953 26.891114 18.0232 26.839844 17.980469 C 26.79842 17.931124 26.754381 17.889128 26.705078 17.847656 C 26.662619 17.79679 26.619152 17.751527 26.568359 17.708984 C 26.526745 17.6593 26.483183 17.61594 26.433594 17.574219 C 26.39198 17.524535 26.348418 17.481175 26.298828 17.439453 C 26.257107 17.389864 26.213747 17.346301 26.164062 17.304688 C 26.123105 17.256139 26.07986 17.214717 26.03125 17.173828 C 25.990945 17.125912 25.950099 17.083457 25.902344 17.042969 C 25.86131 16.993977 25.818327 16.951412 25.769531 16.910156 C 25.72878 16.861741 25.687027 16.818164 25.638672 16.777344 C 25.598382 16.729618 25.555507 16.688763 25.507812 16.648438 C 25.467721 16.601019 25.426316 16.559633 25.378906 16.519531 C 25.338856 16.472182 25.297349 16.430675 25.25 16.390625 C 25.210175 16.343542 25.170091 16.301587 25.123047 16.261719 C 25.083578 16.215195 25.042626 16.174225 24.996094 16.134766 C 24.956551 16.088154 24.915773 16.047332 24.869141 16.007812 C 24.830157 15.962066 24.789976 15.921697 24.744141 15.882812 C 24.705507 15.837477 24.66646 15.796412 24.621094 15.757812 C 24.582494 15.712447 24.541429 15.673399 24.496094 15.634766 C 24.45746 15.58943 24.418413 15.548365 24.373047 15.509766 C 24.33435 15.46449 24.293468 15.425252 24.248047 15.386719 C 24.21127 15.343893 24.173685 15.306308 24.130859 15.269531 C 24.091975 15.223696 24.051606 15.183515 24.005859 15.144531 C 23.969435 15.102116 23.932986 15.063828 23.890625 15.027344 C 23.852963 14.983079 23.813616 14.944115 23.769531 14.90625 C 23.731762 14.862078 23.692617 14.822917 23.648438 14.785156 C 23.612544 14.743481 23.574842 14.707809 23.533203 14.671875 C 23.495733 14.627923 23.457872 14.58841 23.414062 14.550781 C 23.377719 14.508484 23.341079 14.46999 23.298828 14.433594 C 23.262784 14.391752 23.225429 14.354411 23.183594 14.318359 C 23.14714 14.276019 23.108784 14.239537 23.066406 14.203125 C 23.030205 14.161184 22.993196 14.123999 22.951172 14.087891 C 22.915771 14.04699 22.878844 14.011905 22.837891 13.976562 C 22.80314 13.936295 22.768645 13.900139 22.728516 13.865234 C 22.692803 13.823672 22.656655 13.78587 22.615234 13.75 C 22.580272 13.709613 22.544287 13.673642 22.503906 13.638672 C 22.468353 13.597603 22.431776 13.560853 22.390625 13.525391 C 22.357325 13.487218 22.323329 13.453222 22.285156 13.419922 C 22.25022 13.379382 22.21421 13.343705 22.173828 13.308594 C 22.139599 13.269248 22.103844 13.235351 22.064453 13.201172 C 22.029616 13.161023 21.995278 13.124625 21.955078 13.089844 C 21.922524 13.052709 21.888746 13.020782 21.851562 12.988281 C 21.817388 12.948882 21.783483 12.913144 21.744141 12.878906 C 21.710768 12.840732 21.676923 12.806726 21.638672 12.773438 C 21.605299 12.735263 21.571455 12.701257 21.533203 12.667969 C 21.500649 12.630834 21.466871 12.598907 21.429688 12.566406 C 21.397782 12.529905 21.366453 12.496888 21.330078 12.464844 C 21.296204 12.425905 21.261589 12.391303 21.222656 12.357422 C 21.191568 12.322132 21.160289 12.290854 21.125 12.259766 C 21.092523 12.222598 21.060544 12.188795 21.023438 12.15625 C 20.991907 12.120301 20.959704 12.088251 20.923828 12.056641 C 20.891981 12.02033 20.858545 11.988914 20.822266 11.957031 C 20.79094 11.921385 20.760214 11.888793 20.724609 11.857422 C 20.693595 11.822222 20.662148 11.790786 20.626953 11.759766 C 20.595939 11.724566 20.564492 11.693129 20.529297 11.662109 C 20.498874 11.627592 20.468041 11.596906 20.433594 11.566406 C 20.402969 11.53166 20.372591 11.499424 20.337891 11.46875 C 20.307776 11.434682 20.27623 11.405142 20.242188 11.375 C 20.211639 11.340483 20.181065 11.309776 20.146484 11.279297 C 20.117782 11.24697 20.088896 11.218233 20.056641 11.189453 C 20.025626 11.154253 19.994179 11.122817 19.958984 11.091797 C 19.930205 11.059542 19.901467 11.030655 19.869141 11.001953 C 19.840797 10.970031 19.81306 10.940575 19.78125 10.912109 C 19.751531 10.878489 19.721047 10.848159 19.6875 10.818359 C 19.659031 10.786457 19.629597 10.758897 19.597656 10.730469 C 19.568305 10.697491 19.538909 10.667944 19.505859 10.638672 C 19.478211 10.607836 19.450826 10.580309 19.419922 10.552734 C 19.392347 10.52183 19.36482 10.494445 19.333984 10.466797 C 19.30496 10.434177 19.276785 10.403998 19.244141 10.375 C 19.217776 10.345682 19.191427 10.319333 19.162109 10.292969 C 19.134313 10.261806 19.107283 10.23293 19.076172 10.205078 C 19.048975 10.174699 19.020591 10.148316 18.990234 10.121094 C 18.963254 10.091007 18.936333 10.064094 18.90625 10.037109 C 18.879628 10.00743 18.853862 9.979786 18.824219 9.953125 C 18.797919 9.9238825 18.771426 9.8973977 18.742188 9.8710938 C 18.715887 9.8418513 18.689395 9.8153664 18.660156 9.7890625 C 18.634093 9.7600916 18.607074 9.7350711 18.578125 9.7089844 C 18.55228 9.6803044 18.526723 9.6547546 18.498047 9.6289062 C 18.471628 9.5995971 18.44539 9.5732235 18.416016 9.546875 C 18.391336 9.5196979 18.367082 9.4953173 18.339844 9.4707031 C 18.315592 9.4438664 18.292366 9.4188858 18.265625 9.3945312 C 18.239928 9.365959 18.214052 9.3402225 18.185547 9.3144531 C 18.1607 9.2869681 18.136831 9.261206 18.109375 9.2363281 C 18.085095 9.2095486 18.059966 9.1864068 18.033203 9.1621094 C 18.008583 9.1350008 17.984197 9.1104959 17.957031 9.0859375 C 17.93426 9.0609347 17.911665 9.0384566 17.886719 9.015625 C 17.862163 8.9884547 17.837654 8.9640775 17.810547 8.9394531 C 17.786894 8.9134162 17.764286 8.8889214 17.738281 8.8652344 C 17.714589 8.8392302 17.690104 8.8166201 17.664062 8.7929688 C 17.642207 8.7690887 17.621504 8.7464992 17.597656 8.7246094 C 17.574392 8.69895 17.550938 8.6757277 17.525391 8.6523438 C 17.502672 8.6274079 17.479961 8.6048067 17.455078 8.5820312 C 17.431938 8.5567507 17.408181 8.5347643 17.382812 8.5117188 C 17.362125 8.4892249 17.342776 8.4679856 17.320312 8.4472656 C 17.297596 8.422326 17.274881 8.3997324 17.25 8.3769531 C 17.228156 8.3530931 17.207428 8.330466 17.183594 8.3085938 C 17.162326 8.2854309 17.140335 8.2654248 17.117188 8.2441406 C 17.095574 8.2206419 17.074331 8.1992943 17.050781 8.1777344 C 17.030061 8.155271 17.008822 8.135922 16.986328 8.1152344 C 16.966253 8.0934067 16.94753 8.0728932 16.925781 8.0527344 C 16.904588 8.029585 16.884396 8.0076082 16.861328 7.9863281 C 16.841025 7.964319 16.820835 7.9441334 16.798828 7.9238281 C 16.778767 7.902086 16.758053 7.8833608 16.736328 7.8632812 C 16.716249 7.8415568 16.697523 7.820842 16.675781 7.8007812 C 16.656285 7.7797493 16.636293 7.7616556 16.615234 7.7421875 C 16.595766 7.7211288 16.577673 7.701137 16.556641 7.6816406 C 16.537533 7.661032 16.518656 7.6421545 16.498047 7.6230469 C 16.479284 7.6028101 16.461617 7.5832433 16.441406 7.5644531 C 16.422983 7.5446374 16.40458 7.526237 16.384766 7.5078125 C 16.365943 7.487561 16.346447 7.4699699 16.326172 7.4511719 C 16.307608 7.4312432 16.289504 7.413049 16.269531 7.3945312 C 16.252867 7.3766926 16.236548 7.3604571 16.21875 7.34375 C 16.2002 7.3237331 16.182076 7.3057122 16.162109 7.2871094 C 16.144528 7.2682385 16.128222 7.2500291 16.109375 7.2324219 C 16.092136 7.2139695 16.075092 7.1969279 16.056641 7.1796875 C 16.039646 7.1615 16.022079 7.1459165 16.003906 7.1289062 C 15.987114 7.1109629 15.971065 7.0949206 15.953125 7.078125 C 15.936333 7.0601816 15.920284 7.0441393 15.902344 7.0273438 C 15.88597 7.0098541 15.870981 6.9929617 15.853516 6.9765625 C 15.837467 6.9594676 15.821781 6.9437843 15.804688 6.9277344 C 15.788639 6.9106394 15.772953 6.8949562 15.755859 6.8789062 C 15.740427 6.8624707 15.725383 6.8475015 15.708984 6.8320312 C 15.693552 6.8155957 15.678508 6.8006265 15.662109 6.7851562 C 15.64665 6.7686913 15.631664 6.7537774 15.615234 6.7382812 C 15.6004 6.7225591 15.586035 6.7081934 15.570312 6.6933594 C 15.555478 6.6776372 15.541113 6.6632716 15.525391 6.6484375 C 15.510883 6.6330611 15.49778 6.618043 15.482422 6.6035156 C 15.46829 6.5885807 15.454389 6.5746781 15.439453 6.5605469 C 15.425569 6.5458738 15.411145 6.5334289 15.396484 6.5195312 C 15.382836 6.5051333 15.369866 6.4921655 15.355469 6.4785156 C 15.341547 6.4638274 15.329153 6.4494564 15.314453 6.4355469 C 15.301529 6.4219529 15.288984 6.4094096 15.275391 6.3964844 C 15.262443 6.3828636 15.249947 6.3703714 15.236328 6.3574219 C 15.223381 6.3438011 15.210884 6.3313089 15.197266 6.3183594 C 15.184714 6.3051591 15.173339 6.2918667 15.160156 6.2792969 C 15.147959 6.2665047 15.135838 6.2543858 15.123047 6.2421875 C 15.111097 6.2296569 15.098457 6.2189921 15.085938 6.2070312 C 15.073211 6.1937077 15.060246 6.1825992 15.046875 6.1699219 C 15.036734 6.1593586 15.028127 6.1488278 15.017578 6.1386719 C 15.004654 6.1250779 14.992109 6.1125346 14.978516 6.0996094 C 14.96911 6.0898397 14.960928 6.0797327 14.951172 6.0703125 C 14.939574 6.0581467 14.928151 6.0467855 14.916016 6.0351562 C 14.905284 6.0239572 14.894002 6.0146481 14.882812 6.0039062 C 14.872321 5.9929779 14.86249 5.9831483 14.851562 5.9726562 C 14.841446 5.9621196 14.832788 5.9515375 14.822266 5.9414062 C 14.812509 5.9312725 14.803102 5.9218669 14.792969 5.9121094 C 14.783212 5.9019756 14.773805 5.89257 14.763672 5.8828125 C 14.75429 5.8730698 14.746058 5.8629108 14.736328 5.8535156 C 14.727308 5.8441743 14.718325 5.8351926 14.708984 5.8261719 C 14.699224 5.8160655 14.687869 5.8085588 14.677734 5.7988281 C 14.670427 5.7913122 14.663766 5.7846508 14.65625 5.7773438 C 14.647119 5.7678338 14.640321 5.757227 14.630859 5.7480469 C 14.622682 5.739619 14.613908 5.732775 14.605469 5.7246094 C 14.597318 5.7161858 14.590443 5.7073813 14.582031 5.6992188 C 14.574495 5.6914529 14.566353 5.6852777 14.558594 5.6777344 C 14.550422 5.6693295 14.543589 5.660487 14.535156 5.6523438 C 14.529594 5.6466556 14.523261 5.6422866 14.517578 5.6367188 C 14.509662 5.628536 14.502303 5.6212178 14.494141 5.6132812 C 14.487227 5.6061707 14.48171 5.5987205 14.474609 5.5917969 C 14.467432 5.5844364 14.460503 5.5774719 14.453125 5.5703125 C 14.448562 5.5656689 14.444097 5.5612036 14.439453 5.5566406 C 14.432672 5.5496529 14.426883 5.541964 14.419922 5.5351562 C 14.414373 5.5294826 14.408012 5.5250853 14.402344 5.5195312 C 14.396025 5.5130821 14.389286 5.5082471 14.382812 5.5019531 C 14.379135 5.4982184 14.376776 5.4939169 14.373047 5.4902344 C 14.367117 5.4841521 14.361536 5.4786014 14.355469 5.4726562 C 14.350547 5.4676335 14.346813 5.4619601 14.341797 5.4570312 C 14.336613 5.4517566 14.331459 5.4465768 14.326172 5.4414062 C 14.323625 5.4388345 14.320931 5.4361406 14.318359 5.4335938 C 14.312811 5.4279201 14.30645 5.4235228 14.300781 5.4179688 C 14.298745 5.4159167 14.296974 5.4141455 14.294922 5.4121094 C 14.290629 5.4077281 14.287568 5.4027473 14.283203 5.3984375 C 14.279909 5.3951011 14.276774 5.3919665 14.273438 5.3886719 C 14.270526 5.3857235 14.268569 5.381822 14.265625 5.3789062 C 14.263081 5.3763376 14.260381 5.3736375 14.257812 5.3710938 C 14.255269 5.3685251 14.252569 5.365825 14.25 5.3632812 C 14.247718 5.3609773 14.244489 5.3597058 14.242188 5.3574219 C 14.240155 5.3553738 14.238376 5.3535948 14.236328 5.3515625 C 14.233661 5.3488748 14.23121 5.3464104 14.228516 5.34375 C 14.22687 5.3420839 14.224312 5.3395463 14.222656 5.3378906 C 14.222656 5.3378906 14.222656 5.3359375 14.222656 5.3359375 C 14.222656 5.3359375 14.220703 5.3339844 14.220703 5.3339844 C 14.220703 5.3339844 14.21875 5.3320312 14.21875 5.3320312 C 14.218496 5.3317757 14.217051 5.3322865 14.216797 5.3320312 C 14.216797 5.3320312 14.216797 5.3300781 14.216797 5.3300781 C 14.115798 5.2290797 13.993689 5.1485354 13.859375 5.0917969 C 13.859375 5.0917969 13.857422 5.0898438 13.857422 5.0898438 C 13.720387 5.0323513 13.570238 5 13.410156 5 z "
       id="path23435"
       style="fill-opacity:1;fill:url(#linearGradient24313);opacity:0.2"
       clip-path="url(#clipPath24318)" />
    <path
       d="m 3.9999777,4.0333382 12.0000003,0 0,11.9333328 -12.0000003,0 z"
       id="path4"
       inkscape:connector-curvature="0"
       style="fill:none" />
    <path
       style="fill:none"
       inkscape:connector-curvature="0"
       id="path9754"
       d="m 18.999978,19.033339 12,0 0,11.933333 -12,0 z" />
    <rect
       style="opacity:0.96300001;fill:#37474f;fill-opacity:0;stroke:none;stroke-width:1.25;stroke-linecap:round;stroke-linejoin:round;stroke-miterlimit:4;stroke-dasharray:none;stroke-opacity:1"
       id="rect5844"
       width="11.743023"
       height="8.207489"
       x="4.4194174"
       y="8.0675735" />
    <path
       inkscape:connector-curvature="0"
       d="m 14.545432,6.3636415 0,-0.2272727 c 0,-0.6363636 -0.5,-1.1363635 -1.136364,-1.1363635 -0.636363,0 -1.136363,0.4999999 -1.136363,1.1363635 l 0,0.2272727 c -0.272727,0 -0.454546,0.1818182 -0.454546,0.4545454 l 0,1.8181816 c 0,0.2727273 0.181819,0.4545454 0.454546,0.4545454 l 2.272727,0 c 0.272727,0 0.454545,-0.1818181 0.454545,-0.4545454 l 0,-1.8181816 c 0,-0.2727272 -0.181818,-0.4545454 -0.454545,-0.4545454 z m -0.363637,0 -1.545454,0 0,-0.2272727 c 0,-0.4090909 0.363619,-0.7727272 0.772727,-0.7727272 0.409109,0 0.772727,0.3636363 0.772727,0.7727272 l 0,0.2272727 0,0 z m -1.045454,3.6363635 c 0,0.136363 0.04546,0.318182 0.04546,0.454545 0,0.954546 -0.363637,1.818182 -0.954546,2.454545 -0.136363,-0.363636 -0.454545,-0.636363 -0.863636,-0.636363 l -0.454545,0 0,-1.363636 c 0,-0.272728 -0.181819,-0.454546 -0.454546,-0.454546 l -2.7272723,0 0,-0.9090906 0.9090908,0 c 0.2727273,0 0.4545454,-0.1818182 0.4545454,-0.4545455 l 0,-0.9090908 0.9090909,0 c 0.5000002,0 0.9090912,-0.4090908 0.9090912,-0.9090908 l 0,-1.1363635 C 10.499978,6.0000052 9.9999778,5.9090961 9.5454324,5.9090961 c -2.4999998,0 -4.5454541,2.0454543 -4.5454541,4.5454539 0,2.5 2.0454543,4.545454 4.5454541,4.545454 2.4999996,0 4.5454536,-2.045454 4.5454536,-4.545454 0,-0.136363 0,-0.318182 -0.04545,-0.454545 l -0.909091,0 z M 9.0908869,14.045459 C 7.3181599,13.818186 5.9090691,12.272732 5.9090691,10.45455 c 0,-0.272727 0.045455,-0.5454543 0.090909,-0.8181816 l 2.1818179,2.1818176 0,0.454546 c 0,0.5 0.4090909,0.909091 0.9090908,0.909091 l 0,0.863636 z"
       id="path22406"
       style="fill:#673ab7" />
    <g
       transform="matrix(0.01782531,0,0,0.01782531,4.9999783,5.0000053)"
       id="g22408" />
    <g
       transform="matrix(0.01782531,0,0,0.01782531,4.9999783,5.0000053)"
       id="g22410" />
    <g
       transform="matrix(0.01782531,0,0,0.01782531,4.9999783,5.0000053)"
       id="g22412" />
    <g
       transform="matrix(0.01782531,0,0,0.01782531,4.9999783,5.0000053)"
       id="g22414" />
    <g
       transform="matrix(0.01782531,0,0,0.01782531,4.9999783,5.0000053)"
       id="g22416" />
    <g
       transform="matrix(0.01782531,0,0,0.01782531,4.9999783,5.0000053)"
       id="g22418" />
    <g
       transform="matrix(0.01782531,0,0,0.01782531,4.9999783,5.0000053)"
       id="g22420" />
    <g
       transform="matrix(0.01782531,0,0,0.01782531,4.9999783,5.0000053)"
       id="g22422" />
    <g
       transform="matrix(0.01782531,0,0,0.01782531,4.9999783,5.0000053)"
       id="g22424" />
    <g
       transform="matrix(0.01782531,0,0,0.01782531,4.9999783,5.0000053)"
       id="g22426" />
    <g
       transform="matrix(0.01782531,0,0,0.01782531,4.9999783,5.0000053)"
       id="g22428" />
    <g
       transform="matrix(0.01782531,0,0,0.01782531,4.9999783,5.0000053)"
       id="g22430" />
    <g
       transform="matrix(0.01782531,0,0,0.01782531,4.9999783,5.0000053)"
       id="g22432" />
    <g
       transform="matrix(0.01782531,0,0,0.01782531,4.9999783,5.0000053)"
       id="g22434" />
    <g
       transform="matrix(0.01782531,0,0,0.01782531,4.9999783,5.0000053)"
       id="g22436" />
    <g
       transform="matrix(0.01782531,0,0,0.01782531,19.999978,20.000005)"
       id="g22472" />
    <g
       transform="matrix(0.01782531,0,0,0.01782531,19.999978,20.000005)"
       id="g22474" />
    <g
       transform="matrix(0.01782531,0,0,0.01782531,19.999978,20.000005)"
       id="g22476" />
    <g
       transform="matrix(0.01782531,0,0,0.01782531,19.999978,20.000005)"
       id="g22478" />
    <g
       transform="matrix(0.01782531,0,0,0.01782531,19.999978,20.000005)"
       id="g22480" />
    <g
       transform="matrix(0.01782531,0,0,0.01782531,19.999978,20.000005)"
       id="g22482" />
    <g
       transform="matrix(0.01782531,0,0,0.01782531,19.999978,20.000005)"
       id="g22484" />
    <g
       transform="matrix(0.01782531,0,0,0.01782531,19.999978,20.000005)"
       id="g22486" />
    <g
       transform="matrix(0.01782531,0,0,0.01782531,19.999978,20.000005)"
       id="g22488" />
    <g
       transform="matrix(0.01782531,0,0,0.01782531,19.999978,20.000005)"
       id="g22490" />
    <g
       transform="matrix(0.01782531,0,0,0.01782531,19.999978,20.000005)"
       id="g22492" />
    <g
       transform="matrix(0.01782531,0,0,0.01782531,19.999978,20.000005)"
       id="g22494" />
    <g
       transform="matrix(0.01782531,0,0,0.01782531,19.999978,20.000005)"
       id="g22496" />
    <g
       transform="matrix(0.01782531,0,0,0.01782531,19.999978,20.000005)"
       id="g22498" />
    <g
       transform="matrix(0.01782531,0,0,0.01782531,19.999978,20.000005)"
       id="g22500" />
  </g>
</svg>
