<?xml version="1.0" encoding="UTF-8" standalone="no"?>
<!-- Created with Inkscape (http://www.inkscape.org/) -->

<svg
   xmlns:dc="http://purl.org/dc/elements/1.1/"
   xmlns:cc="http://creativecommons.org/ns#"
   xmlns:rdf="http://www.w3.org/1999/02/22-rdf-syntax-ns#"
   xmlns:svg="http://www.w3.org/2000/svg"
   xmlns="http://www.w3.org/2000/svg"
   xmlns:xlink="http://www.w3.org/1999/xlink"
   xmlns:sodipodi="http://sodipodi.sourceforge.net/DTD/sodipodi-0.dtd"
   xmlns:inkscape="http://www.inkscape.org/namespaces/inkscape"
   width="5.6444445mm"
   height="5.6444445mm"
   viewBox="0 0 20 20"
   id="svg2"
   version="1.1"
   inkscape:version="0.91 r13725"
   sodipodi:docname="Performance.svg"
   inkscape:export-filename="/home/juergen/Projekte/Android/Android_Studio/Baumann_Theme/theme/src/main/assets/icons/res/drawable-xxhdpi/a002.png"
   inkscape:export-xdpi="648"
   inkscape:export-ydpi="648">
  <sodipodi:namedview
     id="base"
     pagecolor="#ffffff"
     bordercolor="#666666"
     borderopacity="1.0"
     inkscape:pageopacity="0.0"
     inkscape:pageshadow="2"
     inkscape:zoom="22.4"
     inkscape:cx="8.4572725"
     inkscape:cy="5.7572305"
     inkscape:document-units="px"
     inkscape:current-layer="layer2"
     showgrid="false"
     fit-margin-top="0"
     fit-margin-left="0"
     fit-margin-right="0"
     fit-margin-bottom="0"
     showguides="true"
     inkscape:guide-bbox="true"
     inkscape:window-width="1366"
     inkscape:window-height="744"
     inkscape:window-x="0"
     inkscape:window-y="24"
     inkscape:window-maximized="1"
     inkscape:snap-grids="false"
     inkscape:snap-to-guides="false">
    <inkscape:grid
       id="grid4138"
       type="xygrid" />
    <sodipodi:guide
       id="guide4140"
       orientation="0,1"
       position="10,18" />
    <sodipodi:guide
       id="guide4142"
       orientation="0,1"
       position="10,2" />
    <sodipodi:guide
       id="guide4144"
       orientation="1,0"
       position="2,10" />
    <sodipodi:guide
       id="guide4146"
       orientation="0,20"
       position="0,0" />
    <sodipodi:guide
       id="guide4148"
       orientation="-20,0"
       position="20,0" />
    <sodipodi:guide
       id="guide4150"
       orientation="0,-20"
       position="20,20" />
    <sodipodi:guide
       id="guide4152"
       orientation="20,0"
       position="0,20" />
    <sodipodi:guide
       id="guide4154"
       orientation="1,0"
       position="18,10" />
    <sodipodi:guide
       id="guide4156"
       orientation="-0.70710678,0.70710678"
       position="10,10" />
    <sodipodi:guide
       id="guide4160"
       orientation="1,0"
       position="4,10" />
    <sodipodi:guide
       id="guide4162"
       orientation="1,0"
       position="16,10" />
    <sodipodi:guide
       id="guide4164"
       orientation="0,1"
       position="10,16" />
    <sodipodi:guide
       id="guide4166"
       orientation="0,1"
       position="10,4" />
    <sodipodi:guide
       id="guide4168"
       orientation="0,1"
       position="10,15" />
    <sodipodi:guide
       id="guide4170"
       orientation="0,1"
       position="10,5" />
    <sodipodi:guide
       id="guide4172"
       orientation="1,0"
       position="5,10" />
    <sodipodi:guide
       id="guide4174"
       orientation="1,0"
       position="15,10" />
  </sodipodi:namedview>
  <defs
     id="defs4">
    <linearGradient
       inkscape:collect="always"
       id="linearGradient11737">
      <stop
         style="stop-color:#000000;stop-opacity:1;"
         offset="0"
         id="stop11739" />
      <stop
         style="stop-color:#000000;stop-opacity:0;"
         offset="1"
         id="stop11741" />
    </linearGradient>
    <clipPath
       clipPathUnits="userSpaceOnUse"
       id="clipPath12478">
      <circle
         style="opacity:1;fill:#2196f3;fill-opacity:1;stroke:none;stroke-width:0.05069799;stroke-miterlimit:4;stroke-dasharray:none;stroke-opacity:1"
         id="circle12480"
         cx="9.9999781"
         cy="10.000005"
         r="10" />
    </clipPath>
    <clipPath
       id="clipPath5790"
       clipPathUnits="userSpaceOnUse">
      <circle
         inkscape:export-ydpi="648"
         inkscape:export-xdpi="648"
         inkscape:export-filename="/home/juergen/path4136.png"
         style="opacity:1;fill:#2196f3;fill-opacity:1;stroke:none;stroke-width:0.05069799;stroke-miterlimit:4;stroke-dasharray:none;stroke-opacity:1"
         id="circle5792"
         cx="9.9999781"
         cy="10.000005"
         r="10" />
    </clipPath>
    <clipPath
       clipPathUnits="userSpaceOnUse"
       id="clipPath5055">
      <circle
         inkscape:export-ydpi="648"
         inkscape:export-xdpi="648"
         inkscape:export-filename="/home/juergen/path4136.png"
         style="opacity:1;fill:#2196f3;fill-opacity:1;stroke:none;stroke-width:0.05069799;stroke-miterlimit:4;stroke-dasharray:none;stroke-opacity:1"
         id="circle5057"
         cx="9.9999781"
         cy="10.000005"
         r="10" />
    </clipPath>
    <clipPath
       id="clipPath5119"
       clipPathUnits="userSpaceOnUse">
      <circle
         inkscape:export-ydpi="648"
         inkscape:export-xdpi="648"
         inkscape:export-filename="/home/juergen/Schreibtisch/path4136.png"
         style="opacity:1;fill:#2196f3;fill-opacity:1;stroke:none;stroke-width:0.05069799;stroke-miterlimit:4;stroke-dasharray:none;stroke-opacity:1"
         id="circle5121"
         cx="9.9999781"
         cy="10.000005"
         r="10" />
    </clipPath>
    <clipPath
       clipPathUnits="userSpaceOnUse"
       id="clipPath5194">
      <circle
         inkscape:export-ydpi="648"
         inkscape:export-xdpi="648"
         inkscape:export-filename="/home/juergen/Schreibtisch/path4136.png"
         style="opacity:1;fill:#cddc39;fill-opacity:1;stroke:none;stroke-width:0.05069799;stroke-miterlimit:4;stroke-dasharray:none;stroke-opacity:1"
         id="circle5196"
         cx="9.9999781"
         cy="10.000005"
         r="10" />
    </clipPath>
    <clipPath
       id="clipPath6175"
       clipPathUnits="userSpaceOnUse">
      <circle
         inkscape:export-ydpi="648"
         inkscape:export-xdpi="648"
         inkscape:export-filename="/home/juergen/Schreibtisch/path4136.png"
         style="opacity:1;fill:#f44336;fill-opacity:1;stroke:none;stroke-width:0.05069799;stroke-miterlimit:4;stroke-dasharray:none;stroke-opacity:1"
         id="circle6177"
         cx="9.9999781"
         cy="10.000005"
         r="10" />
    </clipPath>
    <clipPath
       clipPathUnits="userSpaceOnUse"
       id="clipPath7176">
      <circle
         inkscape:export-ydpi="648"
         inkscape:export-xdpi="648"
         inkscape:export-filename="/home/juergen/Schreibtisch/path4136.png"
         style="opacity:1;fill:#9c27b0;fill-opacity:1;stroke:none;stroke-width:0.05069799;stroke-miterlimit:4;stroke-dasharray:none;stroke-opacity:1"
         id="circle7178"
         cx="9.9999781"
         cy="10.000005"
         r="10" />
    </clipPath>
    <clipPath
       id="clipPath8165"
       clipPathUnits="userSpaceOnUse">
      <circle
         inkscape:export-ydpi="648"
         inkscape:export-xdpi="648"
         inkscape:export-filename="/home/juergen/Schreibtisch/path4136.png"
         style="opacity:1;fill:#ffc107;fill-opacity:1;stroke:none;stroke-width:0.05069799;stroke-miterlimit:4;stroke-dasharray:none;stroke-opacity:1"
         id="circle8167"
         cx="9.9999781"
         cy="10.000005"
         r="10" />
    </clipPath>
    <clipPath
       clipPathUnits="userSpaceOnUse"
       id="clipPath9162">
      <circle
         inkscape:export-ydpi="648"
         inkscape:export-xdpi="648"
         inkscape:export-filename="/home/juergen/Schreibtisch/path4136.png"
         style="opacity:1;fill:#ff9800;fill-opacity:1;stroke:none;stroke-width:0.05069799;stroke-miterlimit:4;stroke-dasharray:none;stroke-opacity:1"
         id="circle9164"
         cx="9.9999781"
         cy="10.000005"
         r="10" />
    </clipPath>
    <clipPath
       id="clipPath10753"
       clipPathUnits="userSpaceOnUse">
      <circle
         inkscape:export-ydpi="648"
         inkscape:export-xdpi="648"
         inkscape:export-filename="/home/juergen/Schreibtisch/path4136.png"
         style="opacity:1;fill:#607d8b;fill-opacity:1;stroke:none;stroke-width:0.05069799;stroke-miterlimit:4;stroke-dasharray:none;stroke-opacity:1"
         id="circle10755"
         cx="9.9999781"
         cy="10.000005"
         r="10" />
    </clipPath>
    <linearGradient
       inkscape:collect="always"
       xlink:href="#linearGradient11737"
       id="linearGradient11743"
       x1="10"
       y1="10"
       x2="20"
       y2="20"
       gradientUnits="userSpaceOnUse" />
    <clipPath
       clipPathUnits="userSpaceOnUse"
       id="clipPath11748">
      <circle
         inkscape:export-ydpi="648"
         inkscape:export-xdpi="648"
         inkscape:export-filename="/home/juergen/Schreibtisch/path4136.png"
         style="opacity:1;fill:#f44336;fill-opacity:1;stroke:none;stroke-width:0.05069799;stroke-miterlimit:4;stroke-dasharray:none;stroke-opacity:1"
         id="circle11750"
         cx="9.9999781"
         cy="10.000005"
         r="10" />
    </clipPath>
    <clipPath
       clipPathUnits="userSpaceOnUse"
       id="clipPath4187">
      <path
         style="fill:none;fill-rule:evenodd;stroke:#000000;stroke-width:1px;stroke-linecap:butt;stroke-linejoin:miter;stroke-opacity:1"
         d="M 7.5,9.5535715 14.017857,5.9375001 15.044643,6.7857144 13.705357,8.5267858 11.5625,12.589286 8.0803571,13.035714 Z"
         id="path4189"
         inkscape:connector-curvature="0" />
    </clipPath>
  </defs>
  <metadata
     id="metadata7">
    <rdf:RDF>
      <cc:Work
         rdf:about="">
        <dc:format>image/svg+xml</dc:format>
        <dc:type
           rdf:resource="http://purl.org/dc/dcmitype/StillImage" />
        <dc:title />
      </cc:Work>
    </rdf:RDF>
  </metadata>
  <g
     transform="translate(1058.1428,-861.93365)"
     id="layer1"
     inkscape:groupmode="layer"
     inkscape:label="Hintergrund">
    <circle
       r="10"
       cy="871.93365"
       cx="-1048.1428"
       id="path4136"
       style="opacity:1;fill:#f44336;fill-opacity:1;stroke:none;stroke-width:0.05069799;stroke-miterlimit:4;stroke-dasharray:none;stroke-opacity:1"
       inkscape:export-filename="/home/juergen/Schreibtisch/path4136.png"
       inkscape:export-xdpi="648"
       inkscape:export-ydpi="648" />
  </g>
  <g
     inkscape:label="Icon"
     id="layer2"
     inkscape:groupmode="layer"
     style="display:inline">
    <path
       style="fill:none"
       inkscape:connector-curvature="0"
       id="path4"
       d="m 3.9999777,4.0333382 12.0000003,0 0,11.9333328 -12.0000003,0 z" />
    <path
       d="m 18.999978,19.033339 12,0 0,11.933333 -12,0 z"
       id="path9754"
       inkscape:connector-curvature="0"
       style="fill:none" />
    <path
       d="M 10.148438 5.8105469 C 8.768268 5.8105469 7.5184295 6.3702425 6.6132812 7.2753906 C 5.7081331 8.1805387 5.1484375 9.4303778 5.1484375 10.810547 C 5.1484375 12.190547 5.7082812 13.440703 6.6132812 14.345703 C 6.6293093 14.36132 6.6503905 14.367812 6.6679688 14.380859 C 6.7015984 14.416512 6.7270654 14.459487 6.7617188 14.494141 C 6.7789094 14.51089 6.8013503 14.517457 6.8203125 14.53125 C 6.8527217 14.565534 6.8767989 14.607268 6.9101562 14.640625 C 6.9265836 14.656631 6.9467917 14.664428 6.9648438 14.677734 C 6.9975292 14.712328 7.0229901 14.753459 7.0566406 14.787109 C 7.0715986 14.801684 7.0911058 14.807976 7.1074219 14.820312 C 7.1410937 14.856013 7.1664737 14.898896 7.2011719 14.933594 C 7.21827 14.950254 7.2409139 14.956968 7.2597656 14.970703 C 7.2915635 15.004304 7.3149469 15.045416 7.3476562 15.078125 C 7.3636843 15.093742 7.3847655 15.100234 7.4023438 15.113281 C 7.4347529 15.147565 7.4588301 15.189299 7.4921875 15.222656 C 7.5071454 15.237231 7.5266527 15.243523 7.5429688 15.255859 C 7.57603 15.290874 7.6007162 15.333138 7.6347656 15.367188 C 7.6502112 15.382237 7.6706102 15.387728 7.6875 15.400391 C 7.71995 15.43472 7.743943 15.476365 7.7773438 15.509766 C 7.7933718 15.525383 7.814453 15.531875 7.8320312 15.544922 C 7.8638693 15.578567 7.8871699 15.619592 7.9199219 15.652344 C 7.9360357 15.668044 7.9569295 15.674397 7.9746094 15.6875 C 8.0060721 15.720727 8.0301455 15.760614 8.0625 15.792969 C 8.0778622 15.807937 8.0984428 15.813564 8.1152344 15.826172 C 8.1470322 15.859772 8.1704156 15.900884 8.203125 15.933594 C 8.2174171 15.947519 8.2364165 15.952961 8.2519531 15.964844 C 8.2844032 15.999174 8.3083962 16.040818 8.3417969 16.074219 C 8.3584908 16.090485 8.3800682 16.09785 8.3984375 16.111328 C 8.4286746 16.143191 8.4513634 16.181832 8.4824219 16.212891 C 8.4977841 16.227859 8.5183647 16.233486 8.5351562 16.246094 C 8.5663421 16.279012 8.5890324 16.319501 8.6210938 16.351562 C 8.6355045 16.365604 8.6542466 16.370849 8.6699219 16.382812 C 8.7017197 16.416413 8.7251031 16.457525 8.7578125 16.490234 C 8.7725899 16.504633 8.7924895 16.50927 8.8085938 16.521484 C 8.8398191 16.554446 8.862428 16.59485 8.8945312 16.626953 C 8.9093086 16.641352 8.9292082 16.645989 8.9453125 16.658203 C 8.9764983 16.691121 8.9991886 16.731611 9.03125 16.763672 C 9.0460274 16.77807 9.065927 16.782708 9.0820312 16.794922 C 9.1126432 16.827201 9.1345612 16.866983 9.1660156 16.898438 C 9.1809736 16.913012 9.2004808 16.919304 9.2167969 16.931641 C 9.247072 16.963545 9.2696826 17.002104 9.3007812 17.033203 C 9.3157392 17.047778 9.3352464 17.05407 9.3515625 17.066406 C 9.3817996 17.098269 9.4044884 17.13691 9.4355469 17.167969 C 9.4499157 17.181969 9.4687488 17.187284 9.484375 17.199219 C 9.5146501 17.231123 9.5372607 17.269683 9.5683594 17.300781 C 9.5826514 17.314707 9.6016509 17.320149 9.6171875 17.332031 C 9.6474246 17.363894 9.6701134 17.402535 9.7011719 17.433594 C 9.7166175 17.448643 9.7370164 17.454134 9.7539062 17.466797 C 9.7829148 17.497298 9.8042219 17.534691 9.8339844 17.564453 C 9.8486611 17.578754 9.8668261 17.585511 9.8828125 17.597656 C 9.9120991 17.628465 9.9347882 17.665257 9.9648438 17.695312 C 9.9780657 17.708195 9.9954722 17.713475 10.009766 17.724609 C 10.040041 17.756514 10.062651 17.795073 10.09375 17.826172 C 10.109112 17.84114 10.129693 17.846768 10.146484 17.859375 C 10.174878 17.889196 10.195495 17.925964 10.224609 17.955078 C 10.238901 17.969004 10.257901 17.974446 10.273438 17.986328 C 10.302446 18.016829 10.323753 18.054222 10.353516 18.083984 C 10.366738 18.096867 10.384144 18.102147 10.398438 18.113281 C 10.428098 18.144504 10.450019 18.182441 10.480469 18.212891 C 10.495427 18.227465 10.514934 18.233758 10.53125 18.246094 C 10.559306 18.275543 10.580615 18.311084 10.609375 18.339844 C 10.622707 18.352834 10.639876 18.357928 10.654297 18.369141 C 10.683342 18.399682 10.704574 18.436996 10.734375 18.466797 C 10.749333 18.481371 10.76884 18.487664 10.785156 18.5 C 10.812596 18.528771 10.833217 18.563685 10.861328 18.591797 C 10.874954 18.605074 10.893441 18.609674 10.908203 18.621094 C 10.936596 18.650915 10.957214 18.687682 10.986328 18.716797 C 10.999954 18.730074 11.018441 18.734674 11.033203 18.746094 C 11.061596 18.775915 11.082214 18.812682 11.111328 18.841797 C 11.125333 18.855442 11.143002 18.861363 11.158203 18.873047 C 11.185642 18.901818 11.206263 18.936732 11.234375 18.964844 C 11.248001 18.978121 11.266488 18.982721 11.28125 18.994141 C 11.309027 19.023283 11.328955 19.059424 11.357422 19.087891 C 11.369978 19.100125 11.386865 19.104577 11.400391 19.115234 C 11.42882 19.145096 11.449363 19.181785 11.478516 19.210938 C 11.491738 19.22382 11.509144 19.2291 11.523438 19.240234 C 11.550911 19.269043 11.571462 19.303883 11.599609 19.332031 C 11.612831 19.344914 11.630238 19.350194 11.644531 19.361328 C 11.672005 19.390137 11.692555 19.424977 11.720703 19.453125 C 11.734663 19.466727 11.752428 19.472722 11.767578 19.484375 C 11.794062 19.512097 11.814688 19.545157 11.841797 19.572266 C 11.855019 19.585149 11.872425 19.590428 11.886719 19.601562 C 11.913541 19.629655 11.933474 19.663943 11.960938 19.691406 C 11.973089 19.703246 11.988891 19.708387 12.001953 19.71875 C 12.029427 19.747559 12.049977 19.782399 12.078125 19.810547 C 12.092417 19.824472 12.111417 19.829915 12.126953 19.841797 C 12.152539 19.868536 12.171098 19.901567 12.197266 19.927734 C 12.20952 19.939674 12.225102 19.94464 12.238281 19.955078 C 12.265137 19.983208 12.285001 20.017423 12.3125 20.044922 C 12.325318 20.057411 12.341642 20.063373 12.355469 20.074219 C 12.381952 20.101941 12.402579 20.135001 12.429688 20.162109 C 12.442311 20.174409 12.459053 20.178747 12.472656 20.189453 C 12.49886 20.216869 12.518106 20.250528 12.544922 20.277344 C 12.558214 20.290295 12.575469 20.295457 12.589844 20.306641 C 12.61509 20.33301 12.634344 20.364812 12.660156 20.390625 C 12.671642 20.401816 12.686916 20.406144 12.699219 20.416016 C 12.726041 20.444109 12.745974 20.478396 12.773438 20.505859 C 12.785393 20.517508 12.801615 20.521031 12.814453 20.53125 C 12.840657 20.558666 12.859903 20.592325 12.886719 20.619141 C 12.900011 20.632092 12.917266 20.637254 12.931641 20.648438 C 12.956267 20.674131 12.974835 20.705304 13 20.730469 C 13.011486 20.74166 13.02676 20.745987 13.039062 20.755859 C 13.065267 20.783275 13.084513 20.816934 13.111328 20.84375 C 13.12436 20.856448 13.142176 20.860094 13.15625 20.871094 C 13.180596 20.896482 13.197785 20.928254 13.222656 20.953125 C 13.233738 20.963923 13.247922 20.968946 13.259766 20.978516 C 13.285663 21.005596 13.305537 21.037959 13.332031 21.064453 C 13.343987 21.076102 13.360209 21.079624 13.373047 21.089844 C 13.398045 21.115942 13.415853 21.148275 13.441406 21.173828 C 13.453558 21.185668 13.46936 21.190809 13.482422 21.201172 C 13.507048 21.226865 13.525617 21.258039 13.550781 21.283203 C 13.562328 21.294454 13.577472 21.298676 13.589844 21.308594 C 13.614501 21.334321 13.633006 21.365428 13.658203 21.390625 C 13.670093 21.40221 13.686456 21.405844 13.699219 21.416016 C 13.723596 21.441438 13.740721 21.473143 13.765625 21.498047 C 13.778181 21.510281 13.795068 21.514733 13.808594 21.525391 C 13.831978 21.549735 13.849178 21.579647 13.873047 21.603516 C 13.883463 21.613664 13.897112 21.617889 13.908203 21.626953 C 13.933449 21.653322 13.952703 21.685125 13.978516 21.710938 C 13.991139 21.723238 14.007881 21.727575 14.021484 21.738281 C 14.044247 21.761952 14.060764 21.791233 14.083984 21.814453 C 14.0944 21.824602 14.10805 21.828827 14.119141 21.837891 C 14.143798 21.863618 14.162303 21.894725 14.1875 21.919922 C 14.198787 21.93092 14.214486 21.933636 14.226562 21.943359 C 14.250318 21.968106 14.26676 21.999182 14.291016 22.023438 C 14.303167 22.035278 14.318969 22.040418 14.332031 22.050781 C 14.354488 22.074121 14.371629 22.102098 14.394531 22.125 C 14.404947 22.135149 14.418596 22.139374 14.429688 22.148438 C 14.453724 22.173489 14.471546 22.203967 14.496094 22.228516 C 14.506972 22.239115 14.52159 22.242537 14.533203 22.251953 C 14.556588 22.276298 14.573788 22.30621 14.597656 22.330078 C 14.609612 22.341727 14.625834 22.345249 14.638672 22.355469 C 14.660812 22.378467 14.676646 22.407115 14.699219 22.429688 C 14.710394 22.440577 14.724378 22.445438 14.736328 22.455078 C 14.75875 22.478381 14.775962 22.506431 14.798828 22.529297 C 14.808578 22.538797 14.821687 22.542232 14.832031 22.550781 C 14.855446 22.575158 14.872585 22.605007 14.896484 22.628906 C 14.908375 22.640492 14.924737 22.644125 14.9375 22.654297 C 14.959049 22.676659 14.974135 22.704604 14.996094 22.726562 C 15.006914 22.737105 15.021656 22.740628 15.033203 22.75 C 15.055377 22.773035 15.071142 22.801611 15.09375 22.824219 C 15.1035 22.833719 15.116609 22.837154 15.126953 22.845703 C 15.149745 22.869406 15.166202 22.898624 15.189453 22.921875 C 15.200939 22.933066 15.216213 22.937394 15.228516 22.947266 C 15.24969 22.969224 15.26554 22.996008 15.287109 23.017578 C 15.297525 23.027727 15.311175 23.031952 15.322266 23.041016 C 15.344064 23.063646 15.360595 23.091064 15.382812 23.113281 C 15.392238 23.122465 15.404082 23.126471 15.414062 23.134766 C 15.436484 23.158068 15.453697 23.186119 15.476562 23.208984 C 15.486773 23.218933 15.500859 23.221563 15.511719 23.230469 C 15.533235 23.252795 15.548388 23.28081 15.570312 23.302734 C 15.581191 23.313334 15.595808 23.316756 15.607422 23.326172 C 15.627972 23.34746 15.643141 23.37361 15.664062 23.394531 C 15.673147 23.403382 15.685711 23.406036 15.695312 23.414062 C 15.717452 23.437061 15.733287 23.465709 15.755859 23.488281 C 15.765661 23.497832 15.778661 23.501176 15.789062 23.509766 C 15.810237 23.531724 15.826087 23.558508 15.847656 23.580078 C 15.858535 23.590678 15.873152 23.594099 15.884766 23.603516 C 15.904691 23.624133 15.919179 23.649648 15.939453 23.669922 C 15.949203 23.679422 15.962312 23.682857 15.972656 23.691406 C 15.993238 23.712728 16.008342 23.738811 16.029297 23.759766 C 16.039047 23.769266 16.052156 23.772701 16.0625 23.78125 C 16.08305 23.802538 16.098219 23.828688 16.119141 23.849609 C 16.127821 23.858067 16.139284 23.861437 16.148438 23.869141 C 16.169612 23.891099 16.185462 23.917883 16.207031 23.939453 C 16.216833 23.949004 16.229833 23.952348 16.240234 23.960938 C 16.260185 23.981582 16.274622 24.007044 16.294922 24.027344 C 16.305132 24.037292 16.319218 24.039922 16.330078 24.048828 C 16.349407 24.068808 16.363156 24.093625 16.382812 24.113281 C 16.391492 24.121739 16.402956 24.125109 16.412109 24.132812 C 16.43266 24.1541 16.447828 24.18025 16.46875 24.201172 C 16.477884 24.210071 16.490343 24.212638 16.5 24.220703 C 16.519925 24.241321 16.534414 24.266836 16.554688 24.287109 C 16.564898 24.297058 16.578984 24.299688 16.589844 24.308594 C 16.608516 24.327873 16.621647 24.352116 16.640625 24.371094 C 16.65005 24.380277 16.661894 24.384283 16.671875 24.392578 C 16.690831 24.41216 16.705339 24.435807 16.724609 24.455078 C 16.733694 24.463929 16.746258 24.466583 16.755859 24.474609 C 16.775158 24.494557 16.788968 24.519437 16.808594 24.539062 C 16.817753 24.547987 16.830159 24.550508 16.839844 24.558594 C 16.858545 24.577903 16.871618 24.602087 16.890625 24.621094 C 16.899709 24.629945 16.912274 24.632599 16.921875 24.640625 C 16.940576 24.659935 16.953649 24.684118 16.972656 24.703125 C 16.98174 24.711976 16.994305 24.71463 17.003906 24.722656 C 17.022578 24.741935 17.03571 24.766179 17.054688 24.785156 C 17.063847 24.79408 17.076253 24.796602 17.085938 24.804688 C 17.103982 24.823298 17.116436 24.846905 17.134766 24.865234 C 17.143446 24.873692 17.154909 24.877062 17.164062 24.884766 C 17.182391 24.903679 17.196221 24.92669 17.214844 24.945312 C 17.222454 24.952727 17.232259 24.956055 17.240234 24.962891 C 17.25919 24.982472 17.273698 25.00612 17.292969 25.025391 C 17.301434 25.033639 17.313349 25.035437 17.322266 25.042969 C 17.340334 25.061604 17.35274 25.085162 17.371094 25.103516 C 17.379774 25.111973 17.391237 25.115343 17.400391 25.123047 C 17.418091 25.141292 17.431244 25.163666 17.449219 25.181641 C 17.457276 25.189491 17.468096 25.192018 17.476562 25.199219 C 17.494286 25.217488 17.507393 25.239815 17.525391 25.257812 C 17.534071 25.26627 17.545534 25.26964 17.554688 25.277344 C 17.571782 25.294945 17.584213 25.316635 17.601562 25.333984 C 17.610908 25.34309 17.62292 25.347236 17.632812 25.355469 C 17.648936 25.372042 17.661385 25.391853 17.677734 25.408203 C 17.684678 25.414969 17.693922 25.417544 17.701172 25.423828 C 17.719501 25.442741 17.73333 25.465752 17.751953 25.484375 C 17.76001 25.492225 17.770831 25.494752 17.779297 25.501953 C 17.796369 25.519531 17.808845 25.541267 17.826172 25.558594 C 17.834229 25.566444 17.84505 25.568971 17.853516 25.576172 C 17.86998 25.593106 17.881737 25.614159 17.898438 25.630859 C 17.906452 25.638668 17.917362 25.641271 17.925781 25.648438 C 17.942245 25.665371 17.954003 25.686425 17.970703 25.703125 C 17.978717 25.710934 17.989628 25.713537 17.998047 25.720703 C 18.01449 25.737615 18.02629 25.758712 18.042969 25.775391 C 18.050357 25.78259 18.060625 25.784362 18.068359 25.791016 C 18.084823 25.80795 18.096581 25.829003 18.113281 25.845703 C 18.121295 25.853512 18.132206 25.856115 18.140625 25.863281 C 18.156458 25.879549 18.167542 25.899964 18.183594 25.916016 C 18.191204 25.92343 18.201009 25.926758 18.208984 25.933594 C 18.225082 25.950141 18.237582 25.970004 18.253906 25.986328 C 18.261295 25.993527 18.271563 25.9953 18.279297 26.001953 C 18.29511 26.018199 18.306235 26.038657 18.322266 26.054688 C 18.330323 26.062538 18.341143 26.065064 18.349609 26.072266 C 18.364469 26.087507 18.375573 26.106042 18.390625 26.121094 C 18.396903 26.127211 18.405581 26.129043 18.412109 26.134766 C 18.428573 26.1517 18.440331 26.172753 18.457031 26.189453 C 18.464379 26.196613 18.474732 26.198458 18.482422 26.205078 C 18.497624 26.22068 18.508035 26.240457 18.523438 26.255859 C 18.530786 26.263019 18.541138 26.264864 18.548828 26.271484 C 18.56401 26.287065 18.574461 26.306883 18.589844 26.322266 C 18.596824 26.329067 18.605992 26.331577 18.613281 26.337891 C 18.628137 26.353127 18.63925 26.371672 18.654297 26.386719 C 18.661277 26.39352 18.670445 26.39603 18.677734 26.402344 C 18.692571 26.417561 18.703722 26.436144 18.71875 26.451172 C 18.726807 26.459022 18.737628 26.461549 18.746094 26.46875 C 18.759666 26.48264 18.769471 26.49994 18.783203 26.513672 C 18.790147 26.520438 18.799391 26.523013 18.806641 26.529297 C 18.820845 26.54385 18.831323 26.561792 18.845703 26.576172 C 18.852647 26.582938 18.861891 26.585513 18.869141 26.591797 C 18.883345 26.60635 18.893823 26.624292 18.908203 26.638672 C 18.915205 26.645495 18.924328 26.647964 18.931641 26.654297 C 18.945234 26.668209 18.954997 26.685465 18.96875 26.699219 C 18.975028 26.705336 18.983706 26.707168 18.990234 26.712891 C 19.004461 26.727467 19.014894 26.745363 19.029297 26.759766 C 19.034909 26.765234 19.043015 26.766331 19.048828 26.771484 C 19.063398 26.786421 19.073137 26.805558 19.087891 26.820312 C 19.0955 26.827727 19.105306 26.831055 19.113281 26.837891 C 19.125873 26.850755 19.135709 26.866177 19.148438 26.878906 C 19.154716 26.885023 19.163393 26.886855 19.169922 26.892578 C 19.183494 26.906468 19.193299 26.923768 19.207031 26.9375 C 19.212283 26.942617 19.219181 26.944377 19.224609 26.949219 C 19.238814 26.963772 19.249292 26.981714 19.263672 26.996094 C 19.269984 27.002244 19.278591 27.004014 19.285156 27.009766 C 19.298095 27.022993 19.307229 27.039651 19.320312 27.052734 C 19.327293 27.059535 19.336461 27.062045 19.34375 27.068359 C 19.355707 27.080563 19.364872 27.095341 19.376953 27.107422 C 19.382161 27.112496 19.38915 27.114337 19.394531 27.119141 C 19.408103 27.13303 19.417909 27.150331 19.431641 27.164062 C 19.437544 27.169814 19.445046 27.172331 19.451172 27.177734 C 19.463764 27.190599 19.473599 27.206021 19.486328 27.21875 C 19.493308 27.225551 19.502477 27.228061 19.509766 27.234375 C 19.521088 27.245918 19.529583 27.260052 19.541016 27.271484 C 19.54694 27.277256 19.554399 27.279735 19.560547 27.285156 C 19.572504 27.29736 19.581669 27.312138 19.59375 27.324219 C 19.599624 27.329942 19.607187 27.332512 19.613281 27.337891 C 19.625239 27.350094 19.634404 27.364872 19.646484 27.376953 C 19.651064 27.381415 19.657395 27.382466 19.662109 27.386719 C 19.675048 27.399946 19.684182 27.416604 19.697266 27.429688 C 19.702909 27.435186 19.71095 27.436226 19.716797 27.441406 C 19.728467 27.453311 19.736259 27.468681 19.748047 27.480469 C 19.754359 27.486619 19.762966 27.488389 19.769531 27.494141 C 19.780218 27.505023 19.788043 27.518512 19.798828 27.529297 C 19.80337 27.533722 19.809779 27.534843 19.814453 27.539062 C 19.826758 27.551628 19.835221 27.567642 19.847656 27.580078 C 19.853968 27.586228 19.862575 27.587998 19.869141 27.59375 C 19.879206 27.603989 19.886332 27.6168 19.896484 27.626953 C 19.900622 27.630985 19.905908 27.632858 19.910156 27.636719 C 19.922129 27.648938 19.931263 27.663685 19.943359 27.675781 C 19.949637 27.681898 19.958315 27.68373 19.964844 27.689453 C 19.974894 27.699676 19.982051 27.712519 19.992188 27.722656 C 19.996361 27.726723 20.001574 27.72853 20.005859 27.732422 C 20.017196 27.743979 20.025662 27.758084 20.037109 27.769531 C 20.043387 27.775648 20.052065 27.77748 20.058594 27.783203 C 20.068006 27.792768 20.074496 27.804964 20.083984 27.814453 C 20.089192 27.819528 20.096181 27.821369 20.101562 27.826172 C 20.111612 27.836395 20.118769 27.849238 20.128906 27.859375 C 20.132782 27.863152 20.138605 27.863561 20.142578 27.867188 C 20.153627 27.878446 20.16072 27.893142 20.171875 27.904297 C 20.177749 27.91002 20.185312 27.912591 20.191406 27.917969 C 20.20047 27.927173 20.207663 27.938132 20.216797 27.947266 C 20.220298 27.950677 20.224935 27.951789 20.228516 27.955078 C 20.239216 27.965975 20.247014 27.979436 20.257812 27.990234 C 20.262355 27.99466 20.268763 27.995781 20.273438 28 C 20.283487 28.010223 20.290644 28.023066 20.300781 28.033203 C 20.305348 28.037653 20.311705 28.038727 20.316406 28.042969 C 20.325819 28.052533 20.332308 28.06473 20.341797 28.074219 C 20.347032 28.07932 20.353965 28.081111 20.359375 28.085938 C 20.3678 28.094484 20.374327 28.104795 20.382812 28.113281 C 20.386284 28.116664 20.390981 28.117831 20.394531 28.121094 C 20.404581 28.131317 20.411738 28.14416 20.421875 28.154297 C 20.426033 28.158348 20.431277 28.160184 20.435547 28.164062 C 20.44461 28.173266 20.451804 28.184225 20.460938 28.193359 C 20.466173 28.19846 20.473105 28.200251 20.478516 28.205078 C 20.486302 28.212968 20.492162 28.222631 20.5 28.230469 C 20.504138 28.2345 20.509424 28.236374 20.513672 28.240234 C 20.522097 28.248781 20.528623 28.259092 20.537109 28.267578 C 20.541247 28.27161 20.546533 28.273483 20.550781 28.277344 C 20.559206 28.28589 20.565733 28.296202 20.574219 28.304688 C 20.577025 28.307422 20.581127 28.307891 20.583984 28.310547 C 20.593397 28.320111 20.599886 28.332308 20.609375 28.341797 C 20.613274 28.345596 20.61905 28.345963 20.623047 28.349609 C 20.631183 28.357859 20.636338 28.36876 20.644531 28.376953 C 20.649098 28.381403 20.655455 28.382477 20.660156 28.386719 C 20.667302 28.393952 20.672498 28.402966 20.679688 28.410156 C 20.682494 28.41289 20.686596 28.41336 20.689453 28.416016 C 20.698228 28.424922 20.70405 28.436472 20.712891 28.445312 C 20.716381 28.448713 20.721041 28.449846 20.724609 28.453125 C 20.732395 28.461015 20.738256 28.470678 20.746094 28.478516 C 20.750661 28.482965 20.757018 28.48404 20.761719 28.488281 C 20.768224 28.494859 20.772755 28.503224 20.779297 28.509766 C 20.782798 28.513177 20.787435 28.514289 20.791016 28.517578 C 20.798162 28.524811 20.803357 28.533826 20.810547 28.541016 C 20.814019 28.544399 20.818716 28.545566 20.822266 28.548828 C 20.829412 28.556061 20.834607 28.565076 20.841797 28.572266 C 20.845298 28.575677 20.849935 28.576789 20.853516 28.580078 C 20.860031 28.586666 20.864542 28.59501 20.871094 28.601562 C 20.873234 28.603648 20.876736 28.603429 20.878906 28.605469 C 20.887042 28.613718 20.892198 28.62462 20.900391 28.632812 C 20.904549 28.636864 20.909793 28.638699 20.914062 28.642578 C 20.919576 28.648143 20.924149 28.654617 20.929688 28.660156 C 20.932516 28.662913 20.936572 28.663339 20.939453 28.666016 C 20.945959 28.672593 20.950489 28.680958 20.957031 28.6875 C 20.959837 28.690234 20.96394 28.690704 20.966797 28.693359 C 20.973303 28.699937 20.977833 28.708302 20.984375 28.714844 C 20.986111 28.716535 20.988479 28.717089 20.990234 28.71875 C 20.99739 28.725993 21.002566 28.734988 21.009766 28.742188 C 21.012587 28.744937 21.016658 28.745377 21.019531 28.748047 C 21.025403 28.753978 21.029255 28.761676 21.035156 28.767578 C 21.037962 28.770312 21.042065 28.770782 21.044922 28.773438 C 21.050786 28.779361 21.054653 28.787075 21.060547 28.792969 C 21.06296 28.79532 21.065908 28.796535 21.068359 28.798828 C 21.073879 28.8044 21.078439 28.81086 21.083984 28.816406 C 21.08679 28.81914 21.090893 28.81961 21.09375 28.822266 C 21.09898 28.827542 21.102169 28.834591 21.107422 28.839844 C 21.109824 28.842184 21.112795 28.843421 21.115234 28.845703 C 21.120747 28.851268 21.12532 28.857742 21.130859 28.863281 C 21.133273 28.865633 21.136221 28.866847 21.138672 28.869141 C 21.143549 28.874058 21.147447 28.879869 21.152344 28.884766 C 21.154757 28.887117 21.157705 28.888332 21.160156 28.890625 C 21.165027 28.895536 21.168937 28.901359 21.173828 28.90625 C 21.175982 28.908348 21.179457 28.908104 21.181641 28.910156 C 21.186227 28.914778 21.188755 28.921177 21.193359 28.925781 C 21.196831 28.929164 21.201528 28.930331 21.205078 28.933594 C 21.208662 28.9372 21.211249 28.941718 21.214844 28.945312 C 21.215922 28.946363 21.217664 28.946227 21.21875 28.947266 C 21.22398 28.952542 21.227169 28.959591 21.232422 28.964844 C 21.235894 28.968227 21.240591 28.969394 21.244141 28.972656 C 21.24708 28.97561 21.249006 28.979475 21.251953 28.982422 C 21.253704 28.984128 21.256042 28.984653 21.257812 28.986328 C 21.26204 28.990586 21.265288 28.995757 21.269531 29 C 21.269531 29 21.271484 29.001953 21.271484 29.001953 C 21.276355 29.006864 21.280265 29.012687 21.285156 29.017578 C 21.286901 29.019278 21.289251 29.019815 21.291016 29.021484 C 21.294604 29.025095 21.297182 29.029604 21.300781 29.033203 C 21.302526 29.034903 21.304876 29.03544 21.306641 29.037109 C 21.310225 29.040715 21.312811 29.045233 21.316406 29.048828 C 21.318151 29.050528 21.320501 29.051065 21.322266 29.052734 C 21.325209 29.055693 21.327127 29.059549 21.330078 29.0625 C 21.331814 29.064191 21.334182 29.064745 21.335938 29.066406 C 21.338881 29.069364 21.340799 29.073221 21.34375 29.076172 C 21.345486 29.077863 21.347854 29.078417 21.349609 29.080078 C 21.352549 29.083032 21.354475 29.086897 21.357422 29.089844 C 21.358499 29.090893 21.360244 29.090759 21.361328 29.091797 C 21.364272 29.094755 21.36619 29.098612 21.369141 29.101562 C 21.370211 29.102605 21.371969 29.102484 21.373047 29.103516 C 21.37599 29.106474 21.377909 29.11033 21.380859 29.113281 C 21.383261 29.115621 21.386233 29.116858 21.388672 29.119141 C 21.389966 29.120438 21.391282 29.121751 21.392578 29.123047 C 21.396162 29.126653 21.398749 29.131171 21.402344 29.134766 C 21.403851 29.136235 21.408634 29.137226 21.410156 29.138672 C 21.411158 29.139676 21.411106 29.141575 21.412109 29.142578 C 21.415049 29.145532 21.416975 29.149397 21.419922 29.152344 C 21.419922 29.152344 21.421875 29.154297 21.421875 29.154297 C 21.423816 29.156244 21.42579 29.158212 21.427734 29.160156 C 21.429479 29.161857 21.431829 29.162393 21.433594 29.164062 C 21.433594 29.164062 21.435547 29.166016 21.435547 29.166016 C 21.435547 29.166016 21.4375 29.167969 21.4375 29.167969 C 21.438797 29.169268 21.440108 29.170577 21.441406 29.171875 C 21.441406 29.171875 21.443359 29.173828 21.443359 29.173828 C 21.443359 29.173828 21.445312 29.175781 21.445312 29.175781 C 21.445312 29.175781 21.447266 29.177734 21.447266 29.177734 C 21.447266 29.177734 21.447266 29.179688 21.447266 29.179688 C 21.448536 29.180961 21.4499 29.182322 21.451172 29.183594 C 21.451172 29.183594 21.453125 29.183594 21.453125 29.183594 C 21.453125 29.183594 21.453125 29.185547 21.453125 29.185547 C 21.453125 29.185547 21.455078 29.1875 21.455078 29.1875 C 21.455078 29.1875 21.457031 29.1875 21.457031 29.1875 C 21.457031 29.1875 21.458984 29.189453 21.458984 29.189453 C 21.458984 29.189453 21.458984 29.191406 21.458984 29.191406 C 21.458984 29.191406 21.460938 29.193359 21.460938 29.193359 C 21.460938 29.193359 21.462891 29.195312 21.462891 29.195312 C 21.463297 29.195704 21.464436 29.194922 21.464844 29.195312 C 21.512857 29.241259 21.567813 29.277629 21.626953 29.300781 C 21.626953 29.300781 21.628906 29.302734 21.628906 29.302734 C 21.689811 29.326802 21.755404 29.338206 21.820312 29.337891 C 21.884048 29.337345 21.947944 29.324992 22.007812 29.300781 C 22.008414 29.300541 22.009165 29.301024 22.009766 29.300781 C 22.070234 29.276328 22.125078 29.240156 22.173828 29.191406 C 22.174224 29.191011 22.173434 29.18985 22.173828 29.189453 C 22.270538 29.092107 22.320312 28.964873 22.320312 28.837891 C 22.320312 28.727985 22.277526 28.62194 22.205078 28.53125 C 22.193481 28.516732 22.187282 28.499782 22.173828 28.486328 C 22.173431 28.485924 22.172274 28.482825 22.171875 28.482422 C 22.171875 28.482422 22.169922 28.480469 22.169922 28.480469 C 22.169922 28.480469 22.167969 28.480469 22.167969 28.480469 C 22.166931 28.479389 22.165112 28.477635 22.164062 28.476562 C 22.163011 28.475492 22.163173 28.47372 22.162109 28.472656 L 22.158203 28.472656 C 22.157802 28.472255 22.158604 28.471105 22.158203 28.470703 C 22.157262 28.469759 22.155237 28.469695 22.154297 28.46875 C 22.154297 28.46875 22.152344 28.466797 22.152344 28.466797 C 22.151342 28.465792 22.151391 28.463897 22.150391 28.462891 C 22.148453 28.460936 22.146465 28.45899 22.144531 28.457031 C 22.144531 28.457031 22.142578 28.455078 22.142578 28.455078 C 22.140934 28.453418 22.140313 28.450882 22.138672 28.449219 C 21.970992 28.278556 21.81621 28.095302 21.681641 27.896484 C 21.681147 27.895756 21.68018 27.89526 21.679688 27.894531 C 21.589642 27.761303 21.522817 27.612918 21.449219 27.46875 C 21.405625 27.383357 21.349967 27.305651 21.3125 27.216797 C 21.211562 26.977734 21.133125 26.727187 21.080078 26.466797 C 21.027031 26.206406 21 25.938359 21 25.662109 C 21 25.120403 21.11289 24.590811 21.320312 24.101562 C 21.329238 24.110488 21.340485 24.116324 21.349609 24.125 C 21.361066 24.137253 21.368959 24.152162 21.380859 24.164062 C 21.391452 24.174655 21.405143 24.181165 21.416016 24.191406 C 21.426257 24.202279 21.432767 24.21597 21.443359 24.226562 C 21.453636 24.236839 21.466023 24.243961 21.476562 24.253906 C 21.486468 24.264401 21.493673 24.276876 21.503906 24.287109 C 21.513526 24.296729 21.525305 24.30317 21.535156 24.3125 C 21.545062 24.322995 21.552267 24.33547 21.5625 24.345703 C 21.574401 24.357604 21.589309 24.365496 21.601562 24.376953 C 21.60962 24.385396 21.614775 24.396025 21.623047 24.404297 C 21.630959 24.412209 21.640369 24.418065 21.648438 24.425781 C 21.659562 24.437654 21.668146 24.451349 21.679688 24.462891 C 21.689562 24.472765 21.70082 24.480665 21.710938 24.490234 C 21.720506 24.500352 21.728407 24.51161 21.738281 24.521484 C 21.747861 24.531064 21.759723 24.537583 21.769531 24.546875 C 21.778823 24.556684 21.785342 24.568546 21.794922 24.578125 C 21.805809 24.589012 21.818895 24.596906 21.830078 24.607422 C 21.837834 24.615533 21.843609 24.624859 21.851562 24.632812 C 21.859475 24.640725 21.868884 24.64658 21.876953 24.654297 C 21.887469 24.66548 21.895363 24.678566 21.90625 24.689453 C 21.91547 24.698673 21.926114 24.70589 21.935547 24.714844 C 21.944501 24.724276 21.951717 24.73492 21.960938 24.744141 C 21.969863 24.753066 21.98111 24.758902 21.990234 24.767578 C 21.998946 24.776742 22.004708 24.787912 22.013672 24.796875 C 22.022892 24.806095 22.033536 24.813311 22.042969 24.822266 C 22.051923 24.831698 22.059139 24.842342 22.068359 24.851562 C 22.07696 24.860164 22.086917 24.86663 22.095703 24.875 C 22.104073 24.883786 22.110539 24.893743 22.119141 24.902344 C 22.128066 24.911269 22.139313 24.917105 22.148438 24.925781 C 22.157114 24.934906 22.16295 24.946153 22.171875 24.955078 C 22.180441 24.963644 22.190469 24.970179 22.199219 24.978516 C 22.207555 24.987265 22.21409 24.997293 22.222656 25.005859 C 22.23289 25.016093 22.245365 25.023298 22.255859 25.033203 C 22.262327 25.039917 22.266833 25.048083 22.273438 25.054688 C 22.280042 25.061292 22.288208 25.065798 22.294922 25.072266 C 22.304827 25.08276 22.312032 25.095235 22.322266 25.105469 C 22.330537 25.11374 22.341167 25.118896 22.349609 25.126953 C 22.357667 25.135396 22.362822 25.146025 22.371094 25.154297 C 22.379006 25.162209 22.388415 25.168065 22.396484 25.175781 C 22.404201 25.18385 22.410056 25.19326 22.417969 25.201172 C 22.42624 25.209443 22.43687 25.214599 22.445312 25.222656 C 22.45278 25.230453 22.457193 25.240396 22.464844 25.248047 C 22.472756 25.255959 22.482165 25.261815 22.490234 25.269531 C 22.497951 25.2776 22.503806 25.28701 22.511719 25.294922 C 22.521298 25.304501 22.53316 25.31102 22.542969 25.320312 C 22.548808 25.326352 22.552643 25.333893 22.558594 25.339844 C 22.566211 25.347461 22.576222 25.351939 22.583984 25.359375 C 22.59142 25.367138 22.595898 25.377148 22.603516 25.384766 C 22.609466 25.390716 22.617008 25.394551 22.623047 25.400391 C 22.631723 25.409515 22.637559 25.420762 22.646484 25.429688 C 22.653743 25.436946 22.662532 25.442125 22.669922 25.449219 C 22.677044 25.45664 22.682165 25.465368 22.689453 25.472656 C 22.696711 25.479915 22.7055 25.485094 22.712891 25.492188 C 22.719984 25.499578 22.725164 25.508367 22.732422 25.515625 C 22.73968 25.522883 22.748469 25.528063 22.755859 25.535156 C 22.762953 25.542547 22.768132 25.551335 22.775391 25.558594 C 22.782354 25.565557 22.791743 25.56936 22.798828 25.576172 C 22.80564 25.583257 22.809443 25.592646 22.816406 25.599609 C 22.824973 25.608176 22.835 25.61471 22.84375 25.623047 C 22.848611 25.628045 22.852485 25.633735 22.857422 25.638672 C 22.862359 25.643609 22.868048 25.647483 22.873047 25.652344 C 22.881384 25.661093 22.887918 25.671121 22.896484 25.679688 C 22.903089 25.686292 22.911255 25.690798 22.917969 25.697266 C 22.924437 25.703979 22.928943 25.712146 22.935547 25.71875 C 22.942151 25.725354 22.950318 25.72986 22.957031 25.736328 C 22.962895 25.742393 22.966681 25.749884 22.972656 25.755859 C 22.979261 25.762464 22.987427 25.76697 22.994141 25.773438 C 23.000609 25.780151 23.005114 25.788318 23.011719 25.794922 C 23.019369 25.802572 23.029312 25.806986 23.037109 25.814453 C 23.041684 25.81915 23.044186 25.825436 23.048828 25.830078 C 23.053493 25.834743 23.059733 25.8372 23.064453 25.841797 C 23.071889 25.84956 23.076367 25.85957 23.083984 25.867188 C 23.089935 25.873138 23.097476 25.876973 23.103516 25.882812 C 23.109355 25.888852 23.11319 25.896393 23.119141 25.902344 C 23.125091 25.908294 23.132633 25.912129 23.138672 25.917969 C 23.144512 25.924008 23.148347 25.93155 23.154297 25.9375 C 23.159616 25.942819 23.166485 25.945941 23.171875 25.951172 C 23.177715 25.957211 23.18155 25.964753 23.1875 25.970703 C 23.193091 25.976294 23.199409 25.980835 23.205078 25.986328 C 23.210572 25.991998 23.215112 25.998315 23.220703 26.003906 C 23.225999 26.009203 23.232914 26.012369 23.238281 26.017578 C 23.243512 26.022968 23.246634 26.029837 23.251953 26.035156 C 23.259211 26.042415 23.268 26.047594 23.275391 26.054688 C 23.278979 26.05835 23.281527 26.062777 23.285156 26.066406 C 23.288785 26.070035 23.293213 26.072584 23.296875 26.076172 C 23.303343 26.082886 23.307849 26.091052 23.314453 26.097656 C 23.319749 26.102953 23.326664 26.106119 23.332031 26.111328 C 23.33724 26.116695 23.340407 26.12361 23.345703 26.128906 C 23.35064 26.133843 23.35633 26.137717 23.361328 26.142578 C 23.366189 26.147577 23.370063 26.153266 23.375 26.158203 C 23.379642 26.162845 23.385928 26.165347 23.390625 26.169922 C 23.39522 26.174639 23.397681 26.180884 23.402344 26.185547 C 23.407281 26.190484 23.41297 26.194358 23.417969 26.199219 C 23.42283 26.204217 23.426704 26.209907 23.431641 26.214844 C 23.437616 26.220819 23.445107 26.224605 23.451172 26.230469 C 23.454119 26.233466 23.456009 26.237259 23.458984 26.240234 C 23.46196 26.24321 23.465753 26.245099 23.46875 26.248047 C 23.47459 26.254086 23.478425 26.261628 23.484375 26.267578 C 23.488658 26.271861 23.493718 26.275071 23.498047 26.279297 C 23.502273 26.283626 23.505482 26.288686 23.509766 26.292969 C 23.514049 26.297252 23.519108 26.300462 23.523438 26.304688 C 23.527663 26.309017 23.530873 26.314076 23.535156 26.318359 C 23.539145 26.322348 23.5448 26.324186 23.548828 26.328125 C 23.552767 26.332153 23.554605 26.337808 23.558594 26.341797 C 23.562582 26.345785 23.568237 26.347624 23.572266 26.351562 C 23.576204 26.355591 23.578043 26.361246 23.582031 26.365234 C 23.58602 26.369223 23.591675 26.371061 23.595703 26.375 C 23.599642 26.379028 23.60148 26.384683 23.605469 26.388672 C 23.609098 26.392301 23.613525 26.394849 23.617188 26.398438 C 23.620776 26.4021 23.623324 26.406527 23.626953 26.410156 C 23.630582 26.413785 23.63501 26.416334 23.638672 26.419922 C 23.64226 26.423584 23.644808 26.428011 23.648438 26.431641 C 23.651707 26.434911 23.654906 26.43817 23.658203 26.441406 C 23.66144 26.444703 23.664699 26.447902 23.667969 26.451172 C 23.671598 26.454801 23.676025 26.457349 23.679688 26.460938 C 23.682647 26.463948 23.684512 26.467715 23.6875 26.470703 C 23.69077 26.473973 23.693969 26.477232 23.697266 26.480469 C 23.700502 26.483766 23.703761 26.486964 23.707031 26.490234 C 23.710006 26.49321 23.713799 26.495099 23.716797 26.498047 C 23.719757 26.501057 23.721622 26.504825 23.724609 26.507812 C 23.727585 26.510788 23.731378 26.512677 23.734375 26.515625 C 23.737323 26.518622 23.739212 26.522415 23.742188 26.525391 C 23.745163 26.528366 23.748956 26.530256 23.751953 26.533203 C 23.754901 26.536201 23.75679 26.539994 23.759766 26.542969 C 23.762382 26.545585 23.764945 26.548187 23.767578 26.550781 C 23.770173 26.553414 23.772775 26.555978 23.775391 26.558594 C 23.778007 26.56121 23.78057 26.563812 23.783203 26.566406 C 23.785798 26.569039 23.7884 26.571603 23.791016 26.574219 C 23.793337 26.57654 23.796493 26.577774 23.798828 26.580078 C 23.801132 26.582413 23.802366 26.585569 23.804688 26.587891 C 23.807009 26.590212 23.810165 26.591446 23.8125 26.59375 C 23.814804 26.596085 23.816038 26.599241 23.818359 26.601562 C 23.820681 26.603884 23.823837 26.605117 23.826172 26.607422 C 23.828476 26.609757 23.82971 26.612913 23.832031 26.615234 C 23.833993 26.617196 23.835919 26.619144 23.837891 26.621094 C 23.839841 26.623065 23.841788 26.624991 23.84375 26.626953 C 23.845712 26.628915 23.847638 26.630863 23.849609 26.632812 C 23.851559 26.634784 23.853507 26.63671 23.855469 26.638672 C 23.857431 26.640634 23.859356 26.642581 23.861328 26.644531 C 23.863278 26.646503 23.865226 26.648429 23.867188 26.650391 C 23.868863 26.652066 23.871365 26.65263 23.873047 26.654297 C 23.874705 26.655971 23.875286 26.658489 23.876953 26.660156 C 23.879928 26.663131 23.883721 26.665021 23.886719 26.667969 C 23.889666 26.670966 23.891556 26.674759 23.894531 26.677734 C 23.895839 26.679042 23.897125 26.680338 23.898438 26.681641 C 23.89974 26.682953 23.901036 26.684239 23.902344 26.685547 C 23.904026 26.687205 23.908467 26.689757 23.910156 26.691406 C 23.912461 26.693741 23.913694 26.696898 23.916016 26.699219 C 23.917042 26.700245 23.920846 26.702102 23.921875 26.703125 C 23.921875 26.703125 23.921875 26.705078 23.921875 26.705078 C 23.923152 26.706365 23.924499 26.707702 23.925781 26.708984 C 23.925781 26.708984 23.927734 26.710938 23.927734 26.710938 C 23.927734 26.710938 23.929688 26.712891 23.929688 26.712891 C 23.929688 26.712891 23.931641 26.714844 23.931641 26.714844 C 23.931641 26.714844 23.933594 26.716797 23.933594 26.716797 C 23.935544 26.718769 23.937491 26.720694 23.939453 26.722656 C 23.99054 26.773743 24.048274 26.814675 24.105469 26.857422 C 24.123603 26.870941 24.139523 26.887737 24.158203 26.900391 C 24.159716 26.901408 24.160593 26.903286 24.162109 26.904297 C 24.162109 26.904297 24.164062 26.90625 24.164062 26.90625 C 24.164062 26.90625 24.166016 26.908203 24.166016 26.908203 C 24.166435 26.908484 24.167549 26.907923 24.167969 26.908203 C 24.205106 26.932904 24.246094 26.949471 24.285156 26.970703 C 24.321005 26.990256 24.355302 27.012752 24.392578 27.029297 C 24.402706 27.033757 24.411652 27.040687 24.421875 27.044922 C 24.422404 27.045143 24.423299 27.044702 24.423828 27.044922 C 24.604784 27.12025 24.800189 27.162109 25 27.162109 C 25.233184 27.162109 25.445899 27.095054 25.642578 27 C 25.648619 27.005638 25.655866 27.008389 25.662109 27.013672 C 25.671119 27.024321 25.675502 27.03683 25.685547 27.046875 C 25.695993 27.057321 25.709605 27.060985 25.720703 27.070312 C 25.729436 27.080574 25.73249 27.093818 25.742188 27.103516 C 25.751964 27.113292 25.765041 27.116203 25.775391 27.125 C 25.784187 27.13535 25.787098 27.148426 25.796875 27.158203 C 25.806652 27.16798 25.819728 27.17089 25.830078 27.179688 C 25.838875 27.190037 25.841786 27.203114 25.851562 27.212891 C 25.860268 27.221596 25.871697 27.224493 25.880859 27.232422 C 25.890119 27.243424 25.893936 27.257217 25.904297 27.267578 C 25.914658 27.277939 25.928451 27.281755 25.939453 27.291016 C 25.947323 27.300099 25.95035 27.311679 25.958984 27.320312 C 25.96769 27.329018 25.979119 27.331915 25.988281 27.339844 C 25.997014 27.350105 26.000068 27.36335 26.009766 27.373047 C 26.019463 27.382744 26.032707 27.385798 26.042969 27.394531 C 26.050897 27.403694 26.053795 27.415123 26.0625 27.423828 C 26.071607 27.432935 26.084144 27.435102 26.09375 27.443359 C 26.102006 27.452966 26.104174 27.465502 26.113281 27.474609 C 26.121987 27.483315 26.133416 27.486212 26.142578 27.494141 C 26.150949 27.503903 26.154814 27.516142 26.164062 27.525391 C 26.172768 27.534096 26.184197 27.536993 26.193359 27.544922 C 26.201287 27.554084 26.204185 27.565513 26.212891 27.574219 C 26.221596 27.582924 26.233025 27.585821 26.242188 27.59375 C 26.250057 27.602834 26.253085 27.614413 26.261719 27.623047 C 26.270022 27.63135 26.280342 27.634981 26.289062 27.642578 C 26.296659 27.651298 26.30029 27.661618 26.308594 27.669922 C 26.316125 27.677453 26.326109 27.680551 26.333984 27.6875 C 26.342395 27.697317 26.346171 27.709453 26.355469 27.71875 C 26.364103 27.727384 26.375682 27.730411 26.384766 27.738281 C 26.391802 27.746269 26.39471 27.756038 26.402344 27.763672 C 26.410535 27.771864 26.42109 27.775699 26.429688 27.783203 C 26.437191 27.791801 26.441027 27.802355 26.449219 27.810547 C 26.457254 27.818583 26.468136 27.820751 26.476562 27.828125 C 26.483845 27.836432 26.486214 27.847542 26.494141 27.855469 C 26.501775 27.863103 26.511544 27.86601 26.519531 27.873047 C 26.526567 27.881034 26.529475 27.890804 26.537109 27.898438 C 26.543979 27.905307 26.55339 27.907676 26.560547 27.914062 C 26.568416 27.923146 26.571444 27.934725 26.580078 27.943359 C 26.588049 27.95133 26.599067 27.953618 26.607422 27.960938 C 26.613889 27.968197 26.616083 27.977411 26.623047 27.984375 C 26.630578 27.991906 26.640563 27.995004 26.648438 28.001953 C 26.65542 28.009871 26.658445 28.019773 26.666016 28.027344 C 26.673382 28.03471 26.683711 28.036159 26.691406 28.042969 C 26.698216 28.050664 26.699665 28.060993 26.707031 28.068359 C 26.714397 28.075725 26.724726 28.077175 26.732422 28.083984 C 26.739146 28.091571 26.740781 28.10211 26.748047 28.109375 C 26.755011 28.116339 26.764225 28.118533 26.771484 28.125 C 26.777951 28.132259 26.780145 28.141473 26.787109 28.148438 C 26.794074 28.155402 26.803287 28.157595 26.810547 28.164062 C 26.817014 28.171322 26.819208 28.180536 26.826172 28.1875 C 26.833136 28.194464 26.84235 28.196658 26.849609 28.203125 C 26.855995 28.210282 26.858365 28.219693 26.865234 28.226562 C 26.872199 28.233527 26.881412 28.23572 26.888672 28.242188 C 26.894516 28.248669 26.8961 28.257428 26.902344 28.263672 C 26.908906 28.270234 26.917003 28.273176 26.923828 28.279297 C 26.929872 28.286027 26.932979 28.294307 26.939453 28.300781 C 26.945748 28.307076 26.954401 28.308565 26.960938 28.314453 C 26.966826 28.32099 26.968315 28.329643 26.974609 28.335938 C 26.980904 28.342232 26.989557 28.343721 26.996094 28.349609 C 27.001982 28.356146 27.003471 28.364799 27.009766 28.371094 C 27.016009 28.377337 27.024768 28.378922 27.03125 28.384766 C 27.037094 28.391248 27.038678 28.400006 27.044922 28.40625 C 27.050815 28.412143 27.058348 28.414385 27.064453 28.419922 C 27.06999 28.426027 27.072232 28.43356 27.078125 28.439453 C 27.084018 28.445346 27.091551 28.447588 27.097656 28.453125 C 27.103193 28.45923 27.105435 28.466763 27.111328 28.472656 C 27.116551 28.477879 27.123515 28.479432 27.128906 28.484375 C 27.13475 28.490857 27.136334 28.499616 27.142578 28.505859 C 27.148822 28.512103 27.157581 28.513687 27.164062 28.519531 C 27.168943 28.524847 27.170629 28.531957 27.175781 28.537109 C 27.180335 28.541663 27.186725 28.542534 27.191406 28.546875 C 27.19725 28.553357 27.198834 28.562116 27.205078 28.568359 C 27.211322 28.574603 27.220081 28.576187 27.226562 28.582031 C 27.23087 28.586674 27.231811 28.593139 27.236328 28.597656 C 27.241551 28.602879 27.248515 28.604432 27.253906 28.609375 C 27.258811 28.61472 27.260445 28.621773 27.265625 28.626953 C 27.269777 28.631105 27.275039 28.632744 27.279297 28.636719 C 27.28479 28.642772 27.287125 28.650406 27.292969 28.65625 C 27.298813 28.662094 27.306447 28.664428 27.3125 28.669922 C 27.316443 28.674144 27.318149 28.679477 27.322266 28.683594 C 27.327087 28.688415 27.332926 28.690729 27.337891 28.695312 C 27.342415 28.700209 27.344853 28.706181 27.349609 28.710938 C 27.354163 28.715491 27.360553 28.716362 27.365234 28.720703 C 27.369575 28.725385 27.370446 28.731775 27.375 28.736328 C 27.379517 28.740845 27.385982 28.741786 27.390625 28.746094 C 27.394966 28.750775 27.395837 28.757165 27.400391 28.761719 C 27.404882 28.76621 27.4114 28.7672 27.416016 28.771484 C 27.420357 28.776166 27.421228 28.782556 27.425781 28.787109 C 27.429933 28.791261 27.435195 28.7929 27.439453 28.796875 C 27.443428 28.801133 27.445067 28.806395 27.449219 28.810547 C 27.453315 28.814643 27.458691 28.816389 27.462891 28.820312 C 27.466866 28.824571 27.468504 28.829833 27.472656 28.833984 C 27.476752 28.83808 27.482129 28.839826 27.486328 28.84375 C 27.490303 28.848008 27.491942 28.85327 27.496094 28.857422 C 27.499978 28.861306 27.505788 28.861505 27.509766 28.865234 C 27.513495 28.869212 27.513694 28.875022 27.517578 28.878906 C 27.521432 28.88276 27.527305 28.883018 27.53125 28.886719 C 27.534979 28.890696 27.535179 28.896507 27.539062 28.900391 C 27.541875 28.903203 27.545966 28.903519 27.548828 28.90625 C 27.553136 28.910893 27.554077 28.917358 27.558594 28.921875 C 27.562047 28.925329 27.566785 28.926356 27.570312 28.929688 C 27.573644 28.933215 27.574671 28.937953 27.578125 28.941406 C 27.582242 28.945523 27.587575 28.947229 27.591797 28.951172 C 27.594148 28.953619 27.595246 28.956574 27.597656 28.958984 C 27.600046 28.961375 27.603043 28.962512 27.605469 28.964844 C 27.609412 28.969065 27.611117 28.974399 27.615234 28.978516 C 27.618288 28.981569 27.621888 28.98337 27.625 28.986328 C 27.627958 28.98944 27.629759 28.99304 27.632812 28.996094 C 27.636666 28.999947 27.642539 29.000205 27.646484 29.003906 C 27.64858 29.006078 27.648248 29.009576 27.650391 29.011719 C 27.653203 29.014531 27.657295 29.014847 27.660156 29.017578 C 27.662888 29.02044 27.663203 29.024531 27.666016 29.027344 C 27.668806 29.030134 27.672943 29.030493 27.675781 29.033203 C 27.678513 29.036065 27.678828 29.040156 27.681641 29.042969 C 27.684051 29.045379 27.687006 29.046477 27.689453 29.048828 C 27.691804 29.051275 27.692902 29.05423 27.695312 29.056641 C 27.697691 29.059019 27.700711 29.06018 27.703125 29.0625 C 27.705476 29.064947 27.706574 29.067902 27.708984 29.070312 C 27.711363 29.072691 27.714383 29.073851 27.716797 29.076172 C 27.719148 29.078619 27.720246 29.081574 27.722656 29.083984 C 27.724799 29.086127 27.728297 29.085795 27.730469 29.087891 C 27.732565 29.090062 27.732232 29.09356 27.734375 29.095703 C 27.736488 29.097816 27.740047 29.097542 27.742188 29.099609 C 27.744283 29.101781 27.743951 29.105279 27.746094 29.107422 C 27.748207 29.109535 27.751765 29.109261 27.753906 29.111328 C 27.755987 29.113483 27.755686 29.117014 27.757812 29.119141 C 27.759554 29.120882 27.761912 29.121337 27.763672 29.123047 C 27.765368 29.124792 27.765851 29.127179 27.767578 29.128906 C 27.769319 29.130647 27.771677 29.131103 27.773438 29.132812 C 27.775125 29.134548 27.775626 29.136954 27.777344 29.138672 C 27.778683 29.140011 27.779899 29.141257 27.78125 29.142578 C 27.782571 29.143929 27.783817 29.145145 27.785156 29.146484 C 27.786496 29.147824 27.787712 29.14907 27.789062 29.150391 C 27.790383 29.151741 27.791629 29.152958 27.792969 29.154297 C 27.794308 29.155636 27.795524 29.156882 27.796875 29.158203 C 27.798179 29.159536 27.799459 29.160788 27.800781 29.162109 C 27.801853 29.163181 27.803609 29.163003 27.804688 29.164062 C 27.805739 29.165133 27.805577 29.166905 27.806641 29.167969 C 27.807712 29.16904 27.809468 29.168862 27.810547 29.169922 C 27.811592 29.170985 27.811443 29.172772 27.8125 29.173828 C 27.8125 29.173828 27.814453 29.175781 27.814453 29.175781 C 27.814453 29.175781 27.816406 29.177734 27.816406 29.177734 C 27.816406 29.177734 27.818359 29.179688 27.818359 29.179688 C 27.818359 29.179688 27.820312 29.181641 27.820312 29.181641 C 27.820312 29.181641 27.822266 29.183594 27.822266 29.183594 C 27.822266 29.183594 27.824219 29.185547 27.824219 29.185547 C 27.824219 29.185547 27.826172 29.185547 27.826172 29.185547 C 27.826172 29.185547 27.826172 29.1875 27.826172 29.1875 C 27.827481 29.188838 27.828751 29.190079 27.830078 29.191406 C 27.877704 29.238513 27.933914 29.274718 27.992188 29.298828 C 28.052907 29.323954 28.117015 29.337574 28.181641 29.337891 C 28.309141 29.338516 28.435703 29.290312 28.533203 29.195312 C 28.533608 29.19492 28.534752 29.195706 28.535156 29.195312 C 28.761406 28.969062 28.964766 28.723047 29.144531 28.457031 C 29.14485 28.45656 29.144213 28.45555 29.144531 28.455078 C 29.683245 27.657309 30 26.696498 30 25.662109 C 30 25.449883 29.983148 25.241468 29.957031 25.037109 C 29.95507 25.021761 29.955227 25.005536 29.953125 24.990234 C 29.923291 24.772436 29.87921 24.559731 29.822266 24.351562 C 29.822102 24.350965 29.822429 24.350206 29.822266 24.349609 C 29.822266 24.349609 29.820312 24.347656 29.820312 24.347656 C 29.792922 24.247673 29.753898 24.152342 29.720703 24.054688 C 29.684781 23.949297 29.65561 23.840874 29.613281 23.738281 C 29.613281 23.738281 29.611328 23.736328 29.611328 23.736328 C 29.606097 23.723637 29.599076 23.711866 29.59375 23.699219 C 29.516216 23.515521 29.430394 23.336343 29.333984 23.162109 C 29.3337 23.161595 29.332315 23.158717 29.332031 23.158203 L 29.330078 23.160156 C 29.328671 23.157604 29.327583 23.154894 29.326172 23.152344 L 29.324219 23.154297 C 29.323231 23.152507 29.323255 23.150226 29.322266 23.148438 L 29.320312 23.150391 C 29.318909 23.147845 29.317814 23.145122 29.316406 23.142578 L 29.314453 23.146484 C 29.313046 23.143932 29.311958 23.141222 29.310547 23.138672 L 29.308594 23.140625 C 29.306908 23.137566 29.306379 23.133915 29.304688 23.130859 L 29.302734 23.134766 C 29.300908 23.13145 29.298708 23.128312 29.296875 23.125 L 29.294922 23.126953 C 29.293229 23.123881 29.292714 23.120256 29.291016 23.117188 L 29.289062 23.121094 C 29.286544 23.116512 29.283781 23.111996 29.28125 23.107422 L 29.277344 23.113281 C 29.274954 23.108936 29.273886 23.103949 29.271484 23.099609 L 29.269531 23.103516 C 29.266732 23.09842 29.264534 23.092978 29.261719 23.087891 L 29.259766 23.091797 C 29.25724 23.087203 29.254492 23.082713 29.251953 23.078125 L 29.248047 23.083984 C 29.244967 23.078375 29.243333 23.072006 29.240234 23.066406 L 29.236328 23.072266 C 29.233236 23.066633 29.231627 23.06031 29.228516 23.054688 L 29.224609 23.060547 C 29.221115 23.054175 29.218362 23.047374 29.214844 23.041016 L 29.210938 23.046875 C 29.207443 23.040503 29.20469 23.033703 29.201172 23.027344 L 29.195312 23.035156 C 29.191528 23.028251 29.189359 23.020562 29.185547 23.013672 L 29.181641 23.019531 C 29.177856 23.012626 29.175687 23.004937 29.171875 22.998047 L 29.167969 23.005859 C 29.163764 22.998179 29.160489 22.990083 29.15625 22.982422 L 29.150391 22.990234 C 29.145924 22.98207 29.143178 22.972987 29.138672 22.964844 L 29.132812 22.972656 C 29.128346 22.964492 29.1256 22.955409 29.121094 22.947266 L 29.115234 22.955078 C 29.110756 22.946892 29.108034 22.937853 29.103516 22.929688 L 29.097656 22.939453 C 29.092499 22.93001 29.089194 22.919571 29.083984 22.910156 L 29.078125 22.919922 C 29.072968 22.910479 29.069663 22.90004 29.064453 22.890625 L 29.058594 22.902344 C 29.05301 22.892108 29.048614 22.881296 29.042969 22.871094 L 29.037109 22.878906 C 29.031931 22.869424 29.028668 22.859063 29.023438 22.849609 L 29.015625 22.861328 C 29.009763 22.850576 29.005929 22.838841 29 22.828125 L 28.994141 22.837891 C 28.988295 22.827168 28.984429 22.815374 28.978516 22.804688 L 28.972656 22.816406 C 28.9664 22.804919 28.961412 22.792696 28.955078 22.78125 L 28.947266 22.794922 C 28.940715 22.782885 28.936323 22.769804 28.929688 22.757812 L 28.923828 22.767578 C 28.917555 22.756059 28.912601 22.743899 28.90625 22.732422 L 28.898438 22.744141 C 28.891879 22.732087 28.887503 22.719038 28.880859 22.707031 L 28.873047 22.720703 C 28.865829 22.707417 28.860836 22.692918 28.853516 22.679688 L 28.845703 22.693359 C 28.838486 22.680073 28.833493 22.665574 28.826172 22.652344 L 28.818359 22.666016 C 28.811142 22.65273 28.806149 22.63823 28.798828 22.625 L 28.791016 22.640625 C 28.783369 22.626534 28.777293 22.611684 28.769531 22.597656 L 28.761719 22.611328 C 28.754073 22.597237 28.747997 22.582387 28.740234 22.568359 L 28.732422 22.582031 C 28.724521 22.567462 28.718962 22.551611 28.710938 22.537109 L 28.701172 22.552734 C 28.692997 22.537648 28.687995 22.520874 28.679688 22.505859 L 28.669922 22.521484 C 28.661747 22.506398 28.656745 22.489624 28.648438 22.474609 L 28.638672 22.492188 C 28.630067 22.476291 28.623986 22.459176 28.615234 22.443359 L 28.607422 22.457031 C 28.602839 22.44857 28.598375 22.44008 28.59375 22.431641 L 29.105469 21.546875 L 29.101562 21.548828 L 29.103516 21.544922 L 29.099609 21.546875 L 29.101562 21.542969 L 29.097656 21.544922 L 29.099609 21.541016 L 29.089844 21.546875 L 29.095703 21.537109 L 29.085938 21.542969 L 29.091797 21.533203 L 29.080078 21.541016 L 29.085938 21.529297 L 29.074219 21.535156 L 29.082031 21.523438 L 29.064453 21.533203 L 29.074219 21.515625 L 29.060547 21.523438 L 29.068359 21.509766 L 29.050781 21.519531 L 29.060547 21.501953 L 29.037109 21.515625 L 29.050781 21.492188 L 29.033203 21.501953 L 29.042969 21.484375 L 29.017578 21.5 L 29.03125 21.474609 L 29.005859 21.488281 L 29.021484 21.462891 L 28.994141 21.478516 L 29.009766 21.451172 L 28.982422 21.466797 L 28.998047 21.439453 L 28.964844 21.458984 L 28.984375 21.425781 L 28.951172 21.445312 L 28.970703 21.412109 L 28.9375 21.431641 L 28.957031 21.398438 L 28.919922 21.419922 L 28.941406 21.382812 L 28.904297 21.404297 L 28.925781 21.367188 L 28.884766 21.390625 L 28.908203 21.349609 L 28.867188 21.373047 L 28.890625 21.332031 L 28.849609 21.355469 L 28.873047 21.314453 L 28.826172 21.341797 L 28.853516 21.294922 L 28.806641 21.322266 L 28.833984 21.275391 L 28.787109 21.302734 L 28.814453 21.255859 L 28.763672 21.285156 L 28.792969 21.234375 L 28.742188 21.263672 L 28.771484 21.212891 L 28.716797 21.244141 L 28.748047 21.189453 L 28.693359 21.220703 L 28.724609 21.166016 L 28.669922 21.197266 L 28.701172 21.142578 L 28.640625 21.177734 L 28.675781 21.117188 L 28.615234 21.152344 L 28.650391 21.091797 L 28.585938 21.128906 L 28.623047 21.064453 L 28.5625 21.099609 L 28.597656 21.039062 L 28.527344 21.080078 L 28.568359 21.009766 L 28.503906 21.046875 L 28.541016 20.982422 L 28.472656 21.023438 L 28.511719 20.953125 L 28.4375 20.996094 L 28.480469 20.921875 L 28.408203 20.962891 L 28.449219 20.892578 L 28.373047 20.935547 L 28.417969 20.859375 L 28.34375 20.902344 L 28.386719 20.828125 L 28.308594 20.873047 L 28.353516 20.794922 L 28.275391 20.839844 L 28.320312 20.761719 L 28.236328 20.810547 L 28.285156 20.726562 L 28.201172 20.775391 L 28.25 20.691406 L 28.162109 20.742188 L 28.212891 20.654297 L 28.128906 20.703125 L 28.177734 20.619141 L 28.085938 20.671875 L 28.138672 20.580078 L 28.050781 20.630859 L 28.101562 20.542969 L 28.009766 20.595703 L 28.0625 20.503906 L 27.966797 20.558594 L 28.021484 20.464844 L 27.927734 20.519531 L 27.982422 20.423828 L 27.884766 20.480469 L 27.941406 20.382812 L 27.839844 20.441406 L 27.898438 20.339844 L 27.796875 20.398438 L 27.855469 20.296875 L 27.753906 20.355469 L 27.8125 20.253906 L 27.707031 20.314453 L 27.767578 20.210938 L 27.660156 20.273438 L 27.722656 20.164062 L 27.617188 20.224609 L 27.677734 20.119141 L 27.566406 20.183594 L 27.630859 20.072266 L 27.519531 20.136719 L 27.583984 20.025391 L 27.472656 20.089844 L 27.537109 19.978516 L 27.421875 20.044922 L 27.488281 19.929688 L 27.369141 19.998047 L 27.4375 19.880859 L 27.320312 19.949219 L 27.388672 19.830078 L 27.267578 19.900391 L 27.337891 19.779297 L 27.212891 19.851562 L 27.285156 19.726562 L 27.162109 19.798828 L 27.232422 19.675781 L 27.105469 19.748047 L 27.179688 19.621094 L 27.054688 19.693359 L 27.126953 19.568359 L 26.998047 19.642578 L 27.072266 19.513672 L 26.939453 19.589844 L 27.015625 19.458984 L 26.884766 19.535156 L 26.960938 19.402344 L 26.826172 19.480469 L 26.904297 19.345703 L 26.765625 19.425781 L 26.845703 19.287109 L 26.707031 19.367188 L 26.787109 19.228516 L 26.648438 19.308594 L 26.728516 19.169922 L 26.589844 19.25 L 26.669922 19.111328 L 26.527344 19.195312 L 26.609375 19.050781 L 26.460938 19.136719 L 26.546875 18.988281 L 26.400391 19.072266 L 26.484375 18.927734 L 26.333984 19.013672 L 26.421875 18.863281 L 26.273438 18.949219 L 26.359375 18.800781 L 26.207031 18.888672 L 26.294922 18.736328 L 26.142578 18.824219 L 26.230469 18.671875 L 26.074219 18.763672 L 26.164062 18.605469 L 26.005859 18.697266 L 26.097656 18.539062 L 25.939453 18.630859 L 26.03125 18.472656 L 25.869141 18.566406 L 25.962891 18.404297 L 25.800781 18.498047 L 25.894531 18.335938 L 25.728516 18.431641 L 25.824219 18.265625 L 25.658203 18.361328 L 25.753906 18.195312 L 25.587891 18.291016 L 25.683594 18.125 L 25.511719 18.224609 L 25.611328 18.052734 L 25.439453 18.152344 L 25.539062 17.980469 L 25.367188 18.080078 L 25.466797 17.908203 L 25.291016 18.009766 L 25.392578 17.833984 L 25.216797 17.935547 L 25.318359 17.759766 L 25.138672 17.863281 L 25.242188 17.683594 L 25.0625 17.787109 L 25.166016 17.607422 L 24.986328 17.710938 L 25.089844 17.53125 L 24.904297 17.638672 L 25.011719 17.453125 L 24.826172 17.560547 L 24.933594 17.375 L 24.744141 17.484375 L 24.853516 17.294922 L 24.666016 17.404297 L 24.773438 17.216797 L 24.582031 17.328125 L 24.693359 17.134766 L 24.503906 17.244141 L 24.613281 17.054688 L 24.419922 17.167969 L 24.53125 16.972656 L 24.332031 17.087891 L 24.447266 16.888672 L 24.25 17.001953 L 24.363281 16.806641 L 24.162109 16.921875 L 24.279297 16.720703 L 24.080078 16.835938 L 24.195312 16.636719 L 23.992188 16.753906 L 24.109375 16.550781 L 23.90625 16.667969 L 24.023438 16.464844 L 23.814453 16.585938 L 23.935547 16.376953 L 23.726562 16.498047 L 23.847656 16.289062 L 23.634766 16.412109 L 23.757812 16.199219 L 23.548828 16.320312 L 23.669922 16.111328 L 23.453125 16.236328 L 23.578125 16.019531 L 23.365234 16.142578 L 23.488281 15.929688 L 23.271484 16.054688 L 23.396484 15.837891 L 23.179688 15.962891 L 23.304688 15.746094 L 23.082031 15.875 L 23.210938 15.652344 L 22.988281 15.78125 L 23.117188 15.558594 L 22.890625 15.689453 L 23.021484 15.462891 L 22.794922 15.59375 L 22.925781 15.367188 L 22.699219 15.498047 L 22.830078 15.271484 L 22.603516 15.402344 L 22.734375 15.175781 L 22.501953 15.310547 L 22.636719 15.078125 L 22.402344 15.214844 L 22.537109 14.978516 L 22.302734 15.113281 L 22.4375 14.880859 L 22.201172 15.017578 L 22.337891 14.779297 L 22.101562 14.916016 L 22.238281 14.679688 L 21.998047 14.818359 L 22.136719 14.578125 L 21.896484 14.716797 L 22.035156 14.476562 L 21.791016 14.619141 L 21.931641 14.373047 L 21.685547 14.515625 L 21.828125 14.269531 L 21.580078 14.414062 L 21.722656 14.166016 L 21.476562 14.308594 L 21.619141 14.060547 L 21.369141 14.205078 L 21.513672 13.955078 L 21.259766 14.101562 L 21.40625 13.847656 L 21.152344 13.994141 L 21.298828 13.740234 L 21.044922 13.886719 L 21.191406 13.632812 L 20.931641 13.783203 L 21.082031 13.523438 L 20.822266 13.673828 L 20.972656 13.414062 L 20.710938 13.566406 L 20.861328 13.304688 L 20.601562 13.455078 L 20.751953 13.193359 L 20.484375 13.347656 L 20.638672 13.082031 L 20.373047 13.236328 L 20.527344 12.96875 L 20.257812 13.125 L 20.414062 12.855469 L 20.142578 13.011719 L 20.298828 12.742188 L 20.029297 12.898438 L 20.185547 12.626953 L 19.912109 12.785156 L 20.070312 12.511719 L 19.792969 12.671875 L 19.953125 12.394531 L 19.675781 12.554688 L 19.835938 12.277344 L 19.558594 12.4375 L 19.71875 12.160156 L 19.435547 12.324219 L 19.599609 12.041016 L 19.318359 12.205078 L 19.480469 11.921875 L 19.199219 12.085938 L 19.361328 11.802734 L 19.074219 11.96875 L 19.240234 11.681641 L 18.953125 11.847656 L 19.119141 11.560547 L 18.830078 11.728516 L 18.996094 11.439453 L 18.707031 11.605469 L 18.875 11.316406 L 18.580078 11.486328 L 18.75 11.191406 L 18.458984 11.359375 L 18.626953 11.068359 L 18.328125 11.240234 L 18.5 10.943359 L 18.203125 11.115234 L 18.375 10.816406 L 18.074219 10.990234 L 18.248047 10.689453 L 17.947266 10.863281 L 18.121094 10.5625 L 17.818359 10.738281 L 17.992188 10.435547 L 17.6875 10.611328 L 17.863281 10.306641 L 17.556641 10.484375 L 17.734375 10.175781 L 17.423828 10.355469 L 17.603516 10.044922 L 17.294922 10.224609 L 17.472656 9.9140625 L 17.164062 10.09375 L 17.341797 9.7832031 L 17.027344 9.9648438 L 17.208984 9.6503906 L 16.894531 9.8320312 L 17.076172 9.5175781 L 16.755859 9.703125 L 16.941406 9.3828125 L 16.621094 9.5683594 L 16.806641 9.2480469 L 16.486328 9.4335938 L 16.671875 9.1132812 L 16.347656 9.3007812 L 16.535156 8.9765625 L 16.210938 9.1640625 L 16.398438 8.8398438 L 16.070312 9.0292969 L 16.259766 8.7011719 L 15.931641 8.890625 L 16.121094 8.5625 L 15.792969 8.7519531 L 15.982422 8.4238281 L 15.650391 8.6171875 L 15.841797 8.2832031 L 15.507812 8.4765625 L 15.701172 8.1425781 L 15.367188 8.3359375 L 15.560547 8.0019531 L 15.222656 8.1972656 L 15.417969 7.859375 L 15.080078 8.0546875 L 15.275391 7.7167969 L 14.933594 7.9140625 L 15.130859 7.5722656 L 14.791016 7.7695312 L 14.986328 7.4296875 L 14.642578 7.6289062 L 14.841797 7.2832031 L 14.494141 7.484375 L 14.695312 7.1367188 L 14.347656 7.3378906 L 14.548828 6.9902344 L 14.201172 7.1914062 L 14.402344 6.84375 L 14.050781 7.046875 L 14.253906 6.6953125 L 13.302734 7.2460938 C 13.300909 7.2451751 13.298701 7.2450573 13.296875 7.2441406 L 13.367188 7.203125 C 13.297995 7.164528 13.223444 7.1352954 13.152344 7.0996094 L 13.222656 7.0585938 C 13.152392 7.0193989 13.076137 6.9893168 13.003906 6.953125 L 13.076172 6.9121094 C 13.005713 6.8728056 12.929859 6.8429244 12.857422 6.8066406 L 12.929688 6.765625 C 12.859424 6.7264301 12.783168 6.6963481 12.710938 6.6601562 L 12.78125 6.6191406 C 12.710638 6.5797518 12.635098 6.5480743 12.5625 6.5117188 L 12.634766 6.4707031 C 11.899766 6.0607031 11.053437 5.8105469 10.148438 5.8105469 z "
       id="path10888"
       style="fill-opacity:1;fill:url(#linearGradient11743);opacity:0.2"
       clip-path="url(#clipPath11748)" />
    <path
       inkscape:connector-curvature="0"
       d="m 9.9999776,12.161564 a 1.5,1.5 0 0 1 -1.5,-1.5 c 0,-0.56 0.305,-1.0499999 0.75,-1.3049999 l 4.8550004,-2.81 -2.765,4.7899999 c -0.25,0.49 -0.755,0.825 -1.3400004,0.825 m 0,-6.4999996 c 0.9050004,0 1.7500004,0.25 2.4850004,0.66 l -1.05,0.6049997 c -0.435,-0.17 -0.935,-0.265 -1.4350004,-0.265 A 3.9999999,3.9999999 0 0 0 5.9999777,10.661564 c 0,1.105 0.445,2.105 1.17,2.825 l 0.005,0 c 0.195,0.195 0.195,0.51 0,0.705 -0.195,0.195 -0.515,0.195 -0.71,0.005 l 0,0 c -0.905,-0.905 -1.465,-2.155 -1.465,-3.535 A 4.9999999,4.9999999 0 0 1 9.9999776,5.6615644 m 5.0000004,4.9999996 c 0,1.38 -0.56,2.63 -1.465,3.535 l 0,0 c -0.195,0.19 -0.51,0.19 -0.705,-0.005 -0.195,-0.195 -0.195,-0.51 0,-0.705 l 0,0 c 0.725,-0.725 1.17,-1.72 1.17,-2.825 0,-0.5 -0.095,-0.9999999 -0.27,-1.4499999 l 0.605,-1.05 c 0.415,0.75 0.665,1.59 0.665,2.4999999 z"
       id="path10826"
       style="fill:#ffeb3b" />
    <path
       style="fill:#f5f5f5"
       id="path4183"
       d="m 9.9999776,12.161564 a 1.5,1.5 0 0 1 -1.5,-1.5 c 0,-0.56 0.305,-1.0499999 0.75,-1.3049999 l 4.8550004,-2.81 -2.765,4.7899999 c -0.25,0.49 -0.755,0.825 -1.3400004,0.825 m 0,-6.4999996 c 0.9050004,0 1.7500004,0.25 2.4850004,0.66 l -1.05,0.6049997 c -0.435,-0.17 -0.935,-0.265 -1.4350004,-0.265 A 3.9999999,3.9999999 0 0 0 5.9999777,10.661564 c 0,1.105 0.445,2.105 1.17,2.825 l 0.005,0 c 0.195,0.195 0.195,0.51 0,0.705 -0.195,0.195 -0.515,0.195 -0.71,0.005 l 0,0 c -0.905,-0.905 -1.465,-2.155 -1.465,-3.535 A 4.9999999,4.9999999 0 0 1 9.9999776,5.6615644 m 5.0000004,4.9999996 c 0,1.38 -0.56,2.63 -1.465,3.535 l 0,0 c -0.195,0.19 -0.51,0.19 -0.705,-0.005 -0.195,-0.195 -0.195,-0.51 0,-0.705 l 0,0 c 0.725,-0.725 1.17,-1.72 1.17,-2.825 0,-0.5 -0.095,-0.9999999 -0.27,-1.4499999 l 0.605,-1.05 c 0.415,0.75 0.665,1.59 0.665,2.4999999 z"
       inkscape:connector-curvature="0"
       clip-path="url(#clipPath4187)" />
  </g>
</svg>
