<?xml version="1.0" encoding="UTF-8" standalone="no"?>
<!-- Created with Inkscape (http://www.inkscape.org/) -->

<svg
   xmlns:dc="http://purl.org/dc/elements/1.1/"
   xmlns:cc="http://creativecommons.org/ns#"
   xmlns:rdf="http://www.w3.org/1999/02/22-rdf-syntax-ns#"
   xmlns:svg="http://www.w3.org/2000/svg"
   xmlns="http://www.w3.org/2000/svg"
   xmlns:xlink="http://www.w3.org/1999/xlink"
   xmlns:sodipodi="http://sodipodi.sourceforge.net/DTD/sodipodi-0.dtd"
   xmlns:inkscape="http://www.inkscape.org/namespaces/inkscape"
   sodipodi:docname="PhoneProfiles.svg"
   inkscape:version="0.91 r13725"
   version="1.1"
   id="svg2"
   viewBox="0 0 20 20"
   height="5.6444445mm"
   width="5.6444445mm"
   inkscape:export-filename="/home/juergen/Schreibtisch/qdad.png"
   inkscape:export-xdpi="648"
   inkscape:export-ydpi="648">
  <sodipodi:namedview
     inkscape:snap-to-guides="false"
     inkscape:snap-grids="false"
     inkscape:window-maximized="1"
     inkscape:window-y="0"
     inkscape:window-x="0"
     inkscape:window-height="726"
     inkscape:window-width="1366"
     inkscape:guide-bbox="true"
     showguides="true"
     fit-margin-bottom="0"
     fit-margin-right="0"
     fit-margin-left="0"
     fit-margin-top="0"
     showgrid="false"
     inkscape:current-layer="layer2"
     inkscape:document-units="px"
     inkscape:cy="12.947223"
     inkscape:cx="13.417542"
     inkscape:zoom="15.839192"
     inkscape:pageshadow="2"
     inkscape:pageopacity="0.0"
     borderopacity="1.0"
     bordercolor="#666666"
     pagecolor="#ffffff"
     id="base">
    <inkscape:grid
       id="grid4138"
       type="xygrid" />
    <sodipodi:guide
       id="guide4140"
       orientation="0,1"
       position="10,18" />
    <sodipodi:guide
       id="guide4142"
       orientation="0,1"
       position="10,2" />
    <sodipodi:guide
       id="guide4144"
       orientation="1,0"
       position="2,10" />
    <sodipodi:guide
       id="guide4146"
       orientation="0,20"
       position="0,0" />
    <sodipodi:guide
       id="guide4148"
       orientation="-20,0"
       position="20,0" />
    <sodipodi:guide
       id="guide4150"
       orientation="0,-20"
       position="20,20" />
    <sodipodi:guide
       id="guide4152"
       orientation="20,0"
       position="0,20" />
    <sodipodi:guide
       id="guide4154"
       orientation="1,0"
       position="18,10" />
    <sodipodi:guide
       id="guide4156"
       orientation="-0.70710678,0.70710678"
       position="10,10" />
    <sodipodi:guide
       id="guide4158"
       orientation="0.70710678,0.70710678"
       position="10,10" />
    <sodipodi:guide
       id="guide4160"
       orientation="1,0"
       position="4,10" />
    <sodipodi:guide
       id="guide4162"
       orientation="1,0"
       position="16,10" />
    <sodipodi:guide
       id="guide4164"
       orientation="0,1"
       position="10,16" />
    <sodipodi:guide
       id="guide4166"
       orientation="0,1"
       position="10,4" />
    <sodipodi:guide
       id="guide4168"
       orientation="0,1"
       position="10,15" />
    <sodipodi:guide
       id="guide4170"
       orientation="0,1"
       position="10,5" />
    <sodipodi:guide
       id="guide4172"
       orientation="1,0"
       position="5,10" />
    <sodipodi:guide
       id="guide4174"
       orientation="1,0"
       position="15,10" />
  </sodipodi:namedview>
  <defs
     id="defs4">
    <linearGradient
       inkscape:collect="always"
       id="linearGradient6097">
      <stop
         style="stop-color:#000000;stop-opacity:1;"
         offset="0"
         id="stop6099" />
      <stop
         style="stop-color:#000000;stop-opacity:0;"
         offset="1"
         id="stop6101" />
    </linearGradient>
    <clipPath
       clipPathUnits="userSpaceOnUse"
       id="clipPath12478">
      <circle
         style="opacity:1;fill:#2196f3;fill-opacity:1;stroke:none;stroke-width:0.05069799;stroke-miterlimit:4;stroke-dasharray:none;stroke-opacity:1"
         id="circle12480"
         cx="9.9999781"
         cy="10.000005"
         r="10" />
    </clipPath>
    <clipPath
       id="clipPath13251"
       clipPathUnits="userSpaceOnUse">
      <circle
         inkscape:export-ydpi="648"
         inkscape:export-xdpi="648"
         inkscape:export-filename="/home/juergen/path4136.png"
         style="opacity:1;fill:#2196f3;fill-opacity:1;stroke:none;stroke-width:0.05069799;stroke-miterlimit:4;stroke-dasharray:none;stroke-opacity:1"
         id="circle13253"
         cx="9.9999781"
         cy="10.000005"
         r="10" />
    </clipPath>
    <clipPath
       clipPathUnits="userSpaceOnUse"
       id="clipPath5054">
      <circle
         inkscape:export-ydpi="648"
         inkscape:export-xdpi="648"
         inkscape:export-filename="/home/juergen/path4136.png"
         style="opacity:1;fill:#2196f3;fill-opacity:1;stroke:none;stroke-width:0.05069799;stroke-miterlimit:4;stroke-dasharray:none;stroke-opacity:1"
         id="circle5056"
         cx="9.9999781"
         cy="10.000005"
         r="10" />
    </clipPath>
    <clipPath
       id="clipPath5149"
       clipPathUnits="userSpaceOnUse">
      <circle
         inkscape:export-ydpi="648"
         inkscape:export-xdpi="648"
         inkscape:export-filename="/home/juergen/Schreibtisch/qqq.png"
         style="opacity:1;fill:#3f51b5;fill-opacity:1;stroke:none;stroke-width:0.05069799;stroke-miterlimit:4;stroke-dasharray:none;stroke-opacity:1"
         id="circle5151"
         cx="9.9999781"
         cy="10.000005"
         r="10" />
    </clipPath>
    <clipPath
       clipPathUnits="userSpaceOnUse"
       id="clipPath6126">
      <circle
         inkscape:export-ydpi="648"
         inkscape:export-xdpi="648"
         inkscape:export-filename="/home/juergen/Schreibtisch/qqq.png"
         style="opacity:1;fill:#9ccc65;fill-opacity:1;stroke:none;stroke-width:0.05069799;stroke-miterlimit:4;stroke-dasharray:none;stroke-opacity:1"
         id="circle6128"
         cx="9.9999781"
         cy="10.000005"
         r="10" />
    </clipPath>
    <clipPath
       id="clipPath5127"
       clipPathUnits="userSpaceOnUse">
      <circle
         inkscape:export-ydpi="648"
         inkscape:export-xdpi="648"
         inkscape:export-filename="/home/juergen/Schreibtisch/qqq.png"
         style="opacity:1;fill:#2196f3;fill-opacity:1;stroke:none;stroke-width:0.05069799;stroke-miterlimit:4;stroke-dasharray:none;stroke-opacity:1"
         id="circle5129"
         cx="9.9999781"
         cy="10.000005"
         r="10" />
    </clipPath>
    <linearGradient
       inkscape:collect="always"
       xlink:href="#linearGradient6097"
       id="linearGradient6103"
       x1="10"
       y1="10"
       x2="20"
       y2="20"
       gradientUnits="userSpaceOnUse" />
    <clipPath
       clipPathUnits="userSpaceOnUse"
       id="clipPath6108">
      <circle
         inkscape:export-ydpi="648"
         inkscape:export-xdpi="648"
         inkscape:export-filename="/home/juergen/Schreibtisch/qqq.png"
         style="opacity:1;fill:#cddc39;fill-opacity:1;stroke:none;stroke-width:0.05069799;stroke-miterlimit:4;stroke-dasharray:none;stroke-opacity:1"
         id="circle6110"
         cx="9.9999781"
         cy="10.000005"
         r="10" />
    </clipPath>
  </defs>
  <metadata
     id="metadata7">
    <rdf:RDF>
      <cc:Work
         rdf:about="">
        <dc:format>image/svg+xml</dc:format>
        <dc:type
           rdf:resource="http://purl.org/dc/dcmitype/StillImage" />
        <dc:title></dc:title>
      </cc:Work>
    </rdf:RDF>
  </metadata>
  <g
     transform="translate(1058.1428,-861.93365)"
     id="layer1"
     inkscape:groupmode="layer"
     inkscape:label="Hintergrund">
    <circle
       r="10"
       cy="871.93365"
       cx="-1048.1428"
       id="path4136"
       style="opacity:1;fill:#cddc39;fill-opacity:1;stroke:none;stroke-width:0.05069799;stroke-miterlimit:4;stroke-dasharray:none;stroke-opacity:1"
       inkscape:export-filename="/home/juergen/Schreibtisch/qqq.png"
       inkscape:export-xdpi="648"
       inkscape:export-ydpi="648" />
  </g>
  <g
     inkscape:label="Icon"
     id="layer2"
     inkscape:groupmode="layer"
     style="display:inline">
    <path
       d="M 10.15625 5.3808594 C 9.9645006 5.3808592 9.7812524 5.4570142 9.6484375 5.59375 C 9.515623 5.7265647 9.4414062 5.9117809 9.4414062 6.0996094 C 9.4278223 6.102828 9.4179688 6.4346877 9.4179688 6.4492188 C 9.091701 6.5265226 8.7863609 6.6600816 8.5097656 6.8339844 L 8.5039062 6.8261719 C 8.4983727 6.8303857 8.4172435 6.759005 8.3828125 6.734375 C 8.3881429 6.7306242 8.3930875 6.7263803 8.3984375 6.7226562 L 8.3652344 6.6875 C 8.3603557 6.6912151 8.2753762 6.6163428 8.2382812 6.5878906 C 8.2431931 6.5844373 8.2470246 6.5796025 8.2519531 6.5761719 L 8.2246094 6.5488281 C 8.2204625 6.551986 8.1340578 6.4724131 8.09375 6.4394531 C 8.0979154 6.436529 8.1012914 6.4325953 8.1054688 6.4296875 L 8.0859375 6.4082031 C 8.0826558 6.4107021 7.9925568 6.3265847 7.9492188 6.2890625 C 7.9522216 6.2869594 7.9540221 6.2833446 7.9570312 6.28125 L 7.9453125 6.2675781 C 7.9430123 6.2693297 7.8490962 6.1809564 7.8027344 6.1386719 C 7.8053971 6.1368084 7.8078793 6.1346693 7.8105469 6.1328125 L 7.8027344 6.1269531 C 7.7970782 6.1312603 7.1166712 5.46244 7.1132812 5.46875 C 5.9814794 6.334355 5.2338515 7.672151 5.1484375 9.1953125 L 5.3125 9.1953125 C 5.3082594 9.2450348 5.2996863 9.2936164 5.296875 9.34375 L 5.4609375 9.34375 C 5.456754 9.3929433 5.4480937 9.4406377 5.4453125 9.4902344 L 5.6074219 9.4902344 C 5.6032239 9.5395235 5.5945836 9.5870236 5.5917969 9.6367188 L 5.7539062 9.6367188 C 5.7497071 9.6859877 5.7391138 9.7335274 5.7363281 9.7832031 L 5.8984375 9.7832031 C 5.8943034 9.8318741 5.8855641 9.8786657 5.8828125 9.9277344 L 6.0429688 9.9277344 C 6.0388371 9.9763538 6.0300925 10.023248 6.0273438 10.072266 L 6.1855469 10.072266 C 6.1814221 10.120797 6.1726656 10.167869 6.1699219 10.216797 L 6.328125 10.216797 C 6.3240778 10.264617 6.3152033 10.311168 6.3125 10.359375 L 6.4707031 10.359375 C 6.4666389 10.407317 6.4577884 10.453621 6.4550781 10.501953 L 6.6132812 10.501953 C 6.6092943 10.549187 6.6003262 10.594966 6.5976562 10.642578 L 6.7539062 10.642578 C 6.7499043 10.689917 6.7409573 10.735482 6.7382812 10.783203 L 6.8925781 10.783203 C 6.8885803 10.830479 6.8796256 10.876171 6.8769531 10.923828 L 7.0332031 10.923828 C 7.0292799 10.970417 7.0202115 11.01554 7.0175781 11.0625 L 7.0546875 11.0625 L 7.046875 12.066406 L 6.1035156 13.015625 C 6.1035156 13.015625 6.1224621 13.486328 6.1425781 13.486328 L 6.2949219 13.486328 C 6.3064334 13.551249 6.3172584 13.634766 6.3300781 13.634766 L 6.4648438 13.634766 C 6.4820729 13.699074 6.4983895 13.783203 6.5175781 13.783203 L 6.6210938 13.783203 C 6.6464837 13.861492 6.6757214 13.929688 6.7050781 13.929688 L 6.7871094 13.929688 C 6.8188228 14.007466 6.8539274 14.074219 6.890625 14.074219 L 6.9492188 14.074219 C 6.9874986 14.152554 7.0297485 14.220703 7.0742188 14.220703 L 7.1132812 14.220703 C 7.1576759 14.297688 7.2063223 14.365234 7.2578125 14.365234 L 7.2734375 14.365234 C 7.3214015 14.437824 7.3739542 14.495504 7.4296875 14.501953 C 7.4732016 14.5614 7.5196661 14.602854 7.5703125 14.625 C 7.6134184 14.681015 7.6617137 14.721836 7.7128906 14.751953 C 7.7558962 14.804697 7.8036874 14.848681 7.8554688 14.882812 C 7.8977199 14.931349 7.9449518 14.976266 7.9960938 15.011719 C 8.0315254 15.050143 8.0729163 15.084441 8.1152344 15.117188 C 8.1531279 15.159105 8.1834372 15.184741 8.2324219 15.224609 C 8.2699366 15.266434 8.2877361 15.282411 8.3417969 15.328125 C 8.3796211 15.370437 8.3953359 15.388905 8.4628906 15.445312 C 8.4796279 15.463516 8.4963329 15.477648 8.5234375 15.503906 L 8.5195312 15.509766 C 8.5195312 15.509766 8.6001106 15.582261 8.6640625 15.640625 L 8.65625 15.648438 C 8.65625 15.648438 8.7385039 15.719897 8.8027344 15.775391 L 8.7910156 15.787109 C 8.7910156 15.787109 8.8764287 15.856373 8.9394531 15.908203 L 8.9238281 15.925781 C 8.9238281 15.925781 9.0140713 15.992362 9.0761719 16.041016 L 9.0566406 16.064453 C 9.0566406 16.064453 9.1500889 16.129004 9.2128906 16.175781 L 9.1894531 16.201172 C 9.1894531 16.201172 9.2850295 16.264093 9.3476562 16.308594 L 9.3222656 16.335938 C 9.3222656 16.335938 9.4194214 16.397897 9.4804688 16.439453 L 9.453125 16.472656 C 9.453125 16.472656 9.5527306 16.53282 9.6132812 16.572266 L 9.5839844 16.605469 C 9.5839844 16.605469 9.6867164 16.664064 9.7460938 16.701172 L 9.7128906 16.740234 C 9.7128906 16.740234 9.8181402 16.796775 9.8769531 16.832031 L 9.8417969 16.873047 C 9.8417969 16.873047 9.948831 16.928986 10.007812 16.962891 L 9.9707031 17.005859 C 9.9707031 17.005859 10.079128 17.059934 10.136719 17.091797 L 10.097656 17.136719 C 10.097656 17.136719 10.208909 17.18855 10.265625 17.21875 L 10.224609 17.267578 C 10.224609 17.267578 10.336262 17.317753 10.390625 17.345703 L 10.349609 17.396484 C 10.349609 17.396484 10.463789 17.446014 10.517578 17.472656 L 10.474609 17.525391 C 10.474609 17.525391 10.591105 17.574106 10.644531 17.599609 L 10.599609 17.654297 C 10.599609 17.654297 10.716248 17.700914 10.767578 17.724609 L 10.722656 17.78125 C 10.722656 17.78125 10.841365 17.826804 10.892578 17.849609 L 10.845703 17.908203 C 10.845703 17.908203 10.965314 17.952958 11.015625 17.974609 L 10.96875 18.035156 C 10.96875 18.035156 11.08912 18.078993 11.138672 18.099609 L 11.089844 18.160156 C 11.089844 18.160156 11.21182 18.201384 11.259766 18.220703 L 11.208984 18.285156 C 11.208984 18.285156 11.333222 18.325186 11.380859 18.34375 L 11.330078 18.408203 C 11.330078 18.408203 11.45379 18.447392 11.5 18.464844 L 11.449219 18.53125 C 11.449219 18.53125 11.574835 18.569034 11.621094 18.585938 L 11.568359 18.654297 C 11.568359 18.654297 11.693761 18.691244 11.738281 18.707031 L 11.685547 18.775391 C 11.685547 18.775391 11.812079 18.811247 11.855469 18.826172 L 11.802734 18.896484 C 11.802734 18.896484 11.928969 18.931373 11.970703 18.945312 L 11.917969 19.015625 C 11.917969 19.015625 12.044976 19.049226 12.085938 19.0625 L 12.033203 19.134766 C 12.033203 19.134766 12.161853 19.168679 12.203125 19.181641 L 12.148438 19.253906 C 12.148438 19.253906 12.275589 19.286951 12.314453 19.298828 L 12.261719 19.371094 C 12.261719 19.371094 12.390735 19.402515 12.429688 19.414062 L 12.375 19.488281 C 12.375 19.488281 12.503576 19.518504 12.541016 19.529297 L 12.488281 19.603516 C 12.488281 19.603516 12.616006 19.634347 12.652344 19.644531 L 12.599609 19.71875 C 12.599609 19.71875 12.729413 19.747956 12.765625 19.757812 L 12.710938 19.833984 C 12.710938 19.833984 12.838792 19.862014 12.873047 19.871094 L 12.820312 19.947266 C 12.820312 19.947266 12.949831 19.975483 12.984375 19.984375 L 12.931641 20.060547 C 12.931641 20.060547 13.059152 20.087517 13.091797 20.095703 L 13.039062 20.171875 C 13.039062 20.171875 13.168482 20.199064 13.201172 20.207031 L 13.148438 20.283203 C 13.148438 20.283203 13.277016 20.308913 13.308594 20.316406 L 13.255859 20.394531 C 13.255859 20.394531 13.383573 20.418736 13.414062 20.425781 L 13.361328 20.503906 C 13.361328 20.503906 13.489455 20.528394 13.519531 20.535156 L 13.466797 20.613281 C 13.466797 20.613281 13.595461 20.636113 13.625 20.642578 L 13.572266 20.722656 C 13.572266 20.722656 13.698717 20.744057 13.726562 20.75 L 13.675781 20.830078 C 13.675781 20.830078 13.803907 20.851583 13.832031 20.857422 L 13.779297 20.9375 C 13.779297 20.9375 13.906499 20.959362 13.933594 20.964844 L 13.882812 21.042969 C 13.882812 21.042969 14.009025 21.063207 14.035156 21.068359 L 13.984375 21.148438 C 13.984375 21.148438 14.109632 21.168998 14.134766 21.173828 L 14.085938 21.251953 C 14.085938 21.251953 14.212838 21.270632 14.238281 21.275391 L 14.1875 21.357422 C 14.1875 21.357422 14.311916 21.376476 14.335938 21.380859 L 14.287109 21.458984 C 14.287109 21.458984 14.411745 21.478191 14.435547 21.482422 L 14.386719 21.5625 C 14.386719 21.5625 14.510257 21.580008 14.533203 21.583984 L 14.484375 21.664062 C 14.484375 21.664062 14.606925 21.679878 14.628906 21.683594 L 14.582031 21.763672 C 14.582031 21.763672 14.704782 21.779616 14.726562 21.783203 L 14.679688 21.863281 C 14.679688 21.863281 14.801225 21.879433 14.822266 21.882812 L 14.775391 21.962891 C 14.775391 21.962891 14.897108 21.979157 14.917969 21.982422 L 14.871094 22.0625 C 14.871094 22.0625 14.990225 22.077093 15.009766 22.080078 L 14.964844 22.160156 C 14.964844 22.160156 15.08424 22.174864 15.103516 22.177734 L 15.058594 22.255859 C 15.058594 22.255859 15.178168 22.270666 15.197266 22.273438 L 15.152344 22.351562 C 15.152344 22.351562 15.26926 22.364659 15.287109 22.367188 L 15.244141 22.447266 C 15.244141 22.447266 15.361211 22.460447 15.378906 22.462891 L 15.335938 22.542969 C 15.335938 22.542969 15.453153 22.556231 15.470703 22.558594 L 15.427734 22.636719 C 15.427734 22.636719 15.542219 22.648239 15.558594 22.650391 L 15.517578 22.728516 C 15.517578 22.728516 15.632214 22.740109 15.648438 22.742188 L 15.607422 22.822266 C 15.607422 22.822266 15.720628 22.833976 15.736328 22.835938 L 15.695312 22.914062 C 15.695312 22.914062 15.807229 22.925901 15.822266 22.927734 L 15.783203 23.003906 C 15.783203 23.003906 15.895235 23.013852 15.910156 23.015625 L 15.871094 23.09375 C 15.871094 23.09375 15.98175 23.103806 15.996094 23.105469 L 15.957031 23.183594 C 15.957031 23.183594 16.06629 23.193754 16.080078 23.195312 L 16.042969 23.271484 C 16.042969 23.271484 16.15235 23.281697 16.166016 23.283203 L 16.128906 23.359375 C 16.128906 23.359375 16.236851 23.367727 16.25 23.369141 L 16.212891 23.447266 C 16.212891 23.447266 16.319406 23.455707 16.332031 23.457031 L 16.296875 23.533203 C 16.296875 23.533203 16.401899 23.541725 16.414062 23.542969 L 16.378906 23.617188 C 16.378906 23.617188 16.484045 23.625752 16.496094 23.626953 L 16.460938 23.703125 C 16.460938 23.703125 16.564563 23.711762 16.576172 23.712891 L 16.542969 23.787109 C 16.542969 23.787109 16.645128 23.79582 16.65625 23.796875 L 16.623047 23.869141 C 16.623047 23.869141 16.725264 23.877884 16.736328 23.878906 L 16.703125 23.953125 C 16.703125 23.953125 16.802287 23.960017 16.8125 23.960938 L 16.78125 24.033203 C 16.78125 24.033203 16.882105 24.040096 16.892578 24.041016 L 16.861328 24.115234 C 16.861328 24.115234 16.958993 24.122211 16.96875 24.123047 L 16.9375 24.195312 C 16.9375 24.195312 17.035254 24.202318 17.044922 24.203125 L 17.015625 24.273438 C 17.015625 24.273438 17.111818 24.280495 17.121094 24.28125 L 17.091797 24.351562 C 17.091797 24.351562 17.186419 24.35867 17.195312 24.359375 L 17.166016 24.429688 C 17.166016 24.429688 17.260741 24.434868 17.269531 24.435547 L 17.240234 24.507812 C 17.240234 24.507812 17.333373 24.513038 17.341797 24.513672 L 17.314453 24.583984 C 17.314453 24.583984 17.405997 24.589252 17.414062 24.589844 L 17.388672 24.658203 C 17.388672 24.658203 17.480261 24.66349 17.488281 24.664062 L 17.460938 24.734375 C 17.460938 24.734375 17.549267 24.739721 17.556641 24.740234 L 17.53125 24.808594 C 17.53125 24.808594 17.621305 24.813938 17.628906 24.814453 L 17.603516 24.880859 C 17.603516 24.880859 17.690263 24.886256 17.697266 24.886719 L 17.673828 24.953125 C 17.673828 24.953125 17.758946 24.958555 17.765625 24.958984 L 17.742188 25.025391 C 17.742188 25.025391 17.827382 25.028884 17.833984 25.029297 L 17.810547 25.095703 C 17.810547 25.095703 17.894099 25.099226 17.900391 25.099609 L 17.878906 25.166016 C 17.878906 25.166016 17.962493 25.169551 17.96875 25.169922 L 17.947266 25.234375 C 17.947266 25.234375 18.029177 25.237936 18.035156 25.238281 L 18.013672 25.304688 C 18.013672 25.304688 18.09222 25.308288 18.097656 25.308594 L 18.078125 25.371094 C 18.078125 25.371094 18.156706 25.374705 18.162109 25.375 L 18.142578 25.439453 C 18.142578 25.439453 18.22121 25.443075 18.226562 25.443359 L 18.207031 25.503906 C 18.207031 25.503906 18.285676 25.507537 18.291016 25.507812 L 18.271484 25.570312 C 18.271484 25.570312 18.346712 25.573975 18.351562 25.574219 L 18.333984 25.634766 C 18.333984 25.634766 18.409241 25.638436 18.414062 25.638672 L 18.396484 25.699219 C 18.396484 25.699219 18.470045 25.702908 18.474609 25.703125 L 18.457031 25.761719 C 18.457031 25.761719 18.528888 25.765426 18.533203 25.765625 L 18.517578 25.824219 C 18.517578 25.824219 18.589454 25.825979 18.59375 25.826172 L 18.578125 25.886719 C 18.578125 25.886719 18.648287 25.888495 18.652344 25.888672 L 18.636719 25.947266 C 18.636719 25.947266 18.706891 25.949048 18.710938 25.949219 L 18.695312 26.007812 C 18.695312 26.007812 18.762012 26.009617 18.765625 26.009766 L 18.751953 26.066406 C 18.751953 26.066406 18.818675 26.068216 18.822266 26.068359 L 18.808594 26.125 C 18.808594 26.125 18.875325 26.126815 18.878906 26.126953 L 18.865234 26.183594 C 18.865234 26.183594 18.932266 26.185497 18.933594 26.185547 L 18.919922 26.240234 C 18.919922 26.240234 18.98696 26.242139 18.988281 26.242188 L 18.974609 26.296875 C 18.974609 26.296875 19.039774 26.298784 19.041016 26.298828 L 19.029297 26.351562 C 19.029297 26.351562 19.092584 26.353476 19.09375 26.353516 L 19.082031 26.40625 C 19.082031 26.40625 19.145323 26.408165 19.146484 26.408203 L 19.134766 26.460938 C 19.134766 26.460938 19.196177 26.462856 19.197266 26.462891 L 19.185547 26.513672 C 19.185547 26.513672 19.245077 26.515593 19.246094 26.515625 L 19.236328 26.566406 C 19.236328 26.566406 19.295863 26.566376 19.296875 26.566406 L 19.287109 26.619141 C 19.287109 26.619141 19.344759 26.619113 19.345703 26.619141 L 19.335938 26.669922 C 19.335938 26.669922 19.39359 26.669895 19.394531 26.669922 L 19.384766 26.71875 C 19.384766 26.71875 19.442421 26.718724 19.443359 26.71875 L 19.433594 26.769531 C 19.433594 26.769531 19.487467 26.76951 19.488281 26.769531 L 19.480469 26.818359 C 19.480469 26.818359 19.534344 26.818339 19.535156 26.818359 L 19.527344 26.865234 C 19.527344 26.865234 19.579325 26.865216 19.580078 26.865234 L 19.572266 26.912109 C 19.572266 26.912109 19.62425 26.912092 19.625 26.912109 L 19.617188 26.958984 C 19.617188 26.958984 19.669174 26.958967 19.669922 26.958984 L 19.662109 27.003906 C 19.662109 27.003906 19.710298 27.003892 19.710938 27.003906 L 19.705078 27.048828 C 19.705078 27.048828 19.753269 27.048815 19.753906 27.048828 L 19.748047 27.09375 C 19.748047 27.09375 19.794336 27.093738 19.794922 27.09375 L 19.789062 27.136719 C 19.789062 27.136719 19.835353 27.136707 19.835938 27.136719 L 19.830078 27.179688 C 19.830078 27.179688 19.876371 27.179676 19.876953 27.179688 L 19.871094 27.220703 C 19.871094 27.220703 19.915483 27.220693 19.916016 27.220703 L 19.910156 27.261719 C 19.910156 27.261719 19.954546 27.261709 19.955078 27.261719 L 19.949219 27.302734 C 19.949219 27.302734 19.991702 27.302726 19.992188 27.302734 L 19.988281 27.341797 C 19.988281 27.341797 20.028856 27.34179 20.029297 27.341797 L 20.025391 27.380859 C 20.025391 27.380859 20.065966 27.380853 20.066406 27.380859 L 20.0625 27.417969 C 20.0625 27.417969 20.101164 27.417963 20.101562 27.417969 L 20.097656 27.455078 C 20.097656 27.455078 20.136322 27.455073 20.136719 27.455078 L 20.132812 27.492188 C 20.132812 27.492188 20.171479 27.492182 20.171875 27.492188 L 20.167969 27.527344 C 20.167969 27.527344 20.204721 27.527339 20.205078 27.527344 L 20.201172 27.5625 C 20.201172 27.5625 20.237926 27.562496 20.238281 27.5625 L 20.234375 27.595703 C 20.234375 27.595703 20.269212 27.595699 20.269531 27.595703 L 20.267578 27.628906 C 20.267578 27.628906 20.300497 27.628903 20.300781 27.628906 L 20.298828 27.662109 C 20.298828 27.662109 20.331748 27.662106 20.332031 27.662109 L 20.330078 27.693359 C 20.330078 27.693359 20.361078 27.693357 20.361328 27.693359 L 20.359375 27.724609 C 20.359375 27.724609 20.390375 27.724607 20.390625 27.724609 L 20.388672 27.755859 C 20.388672 27.755859 20.419672 27.755857 20.419922 27.755859 L 20.417969 27.785156 C 20.417969 27.785156 20.447047 27.785154 20.447266 27.785156 L 20.445312 27.814453 C 20.445312 27.814453 20.474391 27.814451 20.474609 27.814453 L 20.472656 27.841797 C 20.472656 27.841797 20.49981 27.841795 20.5 27.841797 L 20.498047 27.869141 C 20.498047 27.869141 20.527126 27.869139 20.527344 27.869141 L 20.525391 27.894531 C 20.525391 27.894531 20.550618 27.89453 20.550781 27.894531 L 20.548828 27.921875 C 20.548828 27.921875 20.575983 27.921874 20.576172 27.921875 L 20.574219 27.945312 C 20.574219 27.945312 20.599447 27.945312 20.599609 27.945312 L 20.597656 27.970703 C 20.597656 27.970703 20.620955 27.970702 20.621094 27.970703 L 20.619141 27.994141 C 20.619141 27.994141 20.640509 27.99414 20.640625 27.994141 L 20.640625 28.015625 C 20.640625 28.015625 20.661993 28.015624 20.662109 28.015625 L 20.662109 28.037109 C 20.662109 28.037109 20.683478 28.037109 20.683594 28.037109 L 20.683594 28.058594 C 20.683594 28.058594 20.703029 28.058593 20.703125 28.058594 L 20.703125 28.080078 C 20.703125 28.080078 20.720626 28.080078 20.720703 28.080078 L 20.720703 28.099609 C 20.720703 28.099609 20.740139 28.099609 20.740234 28.099609 L 20.740234 28.117188 C 20.740234 28.117188 20.757735 28.117187 20.757812 28.117188 L 20.757812 28.134766 C 20.757812 28.134766 20.773377 28.134765 20.773438 28.134766 L 20.773438 28.152344 C 20.773438 28.152344 20.789002 28.152344 20.789062 28.152344 L 20.789062 28.169922 C 20.789062 28.169922 20.804627 28.169922 20.804688 28.169922 L 20.804688 28.185547 C 20.804688 28.185547 20.820252 28.185547 20.820312 28.185547 L 20.820312 28.199219 C 20.820312 28.199219 20.833938 28.199219 20.833984 28.199219 L 20.833984 28.214844 C 20.833984 28.214844 20.845669 28.214844 20.845703 28.214844 L 20.845703 28.226562 C 20.845703 28.226562 20.859329 28.226562 20.859375 28.226562 L 20.859375 28.240234 C 20.859375 28.240234 20.87106 28.240234 20.871094 28.240234 L 20.871094 28.251953 C 20.871094 28.251953 20.880836 28.251953 20.880859 28.251953 L 20.880859 28.263672 C 20.880859 28.263672 20.890601 28.263672 20.890625 28.263672 L 20.890625 28.273438 C 20.890625 28.273438 20.900367 28.273437 20.900391 28.273438 L 20.900391 28.283203 C 20.900391 28.283203 20.908188 28.283203 20.908203 28.283203 L 20.908203 28.291016 C 20.908203 28.291016 20.916001 28.291016 20.916016 28.291016 L 20.916016 28.298828 C 20.916016 28.298828 20.923813 28.298828 20.923828 28.298828 L 20.923828 28.306641 C 20.923828 28.306641 20.929679 28.306641 20.929688 28.306641 L 20.929688 28.314453 C 20.929688 28.314453 20.935538 28.314453 20.935547 28.314453 L 20.935547 28.320312 C 20.935547 28.320312 20.939449 28.320312 20.939453 28.320312 L 20.939453 28.324219 C 20.939453 28.324219 20.945304 28.324219 20.945312 28.324219 L 20.945312 28.328125 C 20.945312 28.328125 20.947266 28.328125 20.947266 28.328125 L 20.947266 28.332031 C 20.947266 28.332031 20.951168 28.332031 20.951172 28.332031 L 20.951172 28.333984 C 20.951172 28.333984 20.953125 28.333984 20.953125 28.333984 L 20.953125 28.335938 L 20.953125 28.337891 L 23.1875 28.337891 C 23.188161 28.338519 23.18879 28.339217 23.189453 28.339844 C 23.197181 28.348144 23.200937 28.35914 23.208984 28.367188 C 23.216795 28.374998 23.228279 28.377255 23.236328 28.384766 C 23.24227 28.39104 23.243873 28.400123 23.25 28.40625 C 23.256127 28.412377 23.26521 28.41398 23.271484 28.419922 C 23.278995 28.427971 23.281252 28.439455 23.289062 28.447266 C 23.295831 28.454035 23.305551 28.456347 23.3125 28.462891 C 23.319025 28.469819 23.321376 28.479579 23.328125 28.486328 C 23.335544 28.493747 23.345881 28.496758 23.353516 28.503906 C 23.35909 28.509772 23.361451 28.517701 23.367188 28.523438 C 23.373576 28.529826 23.382123 28.532875 23.388672 28.539062 C 23.39486 28.545611 23.397908 28.554158 23.404297 28.560547 C 23.410657 28.566907 23.419262 28.570011 23.425781 28.576172 C 23.431969 28.582721 23.435018 28.591268 23.441406 28.597656 C 23.447143 28.603393 23.455072 28.605754 23.460938 28.611328 C 23.467481 28.618277 23.469794 28.627997 23.476562 28.634766 C 23.482681 28.640884 23.491781 28.642503 23.498047 28.648438 C 23.503981 28.654703 23.5056 28.663803 23.511719 28.669922 C 23.518488 28.676691 23.528208 28.679004 23.535156 28.685547 C 23.540113 28.690733 23.541791 28.698041 23.546875 28.703125 C 23.551937 28.708187 23.55929 28.709908 23.564453 28.714844 C 23.570996 28.721792 23.573309 28.731512 23.580078 28.738281 C 23.585805 28.744008 23.593753 28.746387 23.599609 28.751953 C 23.60516 28.757792 23.60757 28.765773 23.613281 28.771484 C 23.6194 28.777603 23.6285 28.779222 23.634766 28.785156 C 23.639723 28.790342 23.6414 28.79765 23.646484 28.802734 C 23.651959 28.808209 23.660423 28.809126 23.666016 28.814453 C 23.671343 28.820046 23.67226 28.82851 23.677734 28.833984 C 23.683209 28.839459 23.691673 28.840376 23.697266 28.845703 C 23.702593 28.851296 23.70351 28.85976 23.708984 28.865234 C 23.714069 28.870319 23.721377 28.871996 23.726562 28.876953 C 23.73152 28.882139 23.733197 28.889447 23.738281 28.894531 C 23.743343 28.899593 23.750696 28.901314 23.755859 28.90625 C 23.760816 28.911436 23.762494 28.918744 23.767578 28.923828 C 23.77264 28.92889 23.779993 28.930611 23.785156 28.935547 C 23.790113 28.940733 23.791791 28.948041 23.796875 28.953125 C 23.801569 28.957819 23.807719 28.960258 23.8125 28.964844 C 23.817086 28.969624 23.819525 28.975775 23.824219 28.980469 C 23.828891 28.985141 23.835085 28.987622 23.839844 28.992188 C 23.844429 28.996968 23.846869 29.003119 23.851562 29.007812 C 23.856256 29.012506 23.862407 29.014946 23.867188 29.019531 C 23.871753 29.02429 23.874234 29.030484 23.878906 29.035156 C 23.883338 29.039588 23.890022 29.040586 23.894531 29.044922 C 23.898849 29.049412 23.899884 29.056134 23.904297 29.060547 C 23.907686 29.063936 23.912581 29.065026 23.916016 29.068359 C 23.920952 29.073522 23.922672 29.080875 23.927734 29.085938 C 23.932811 29.091014 23.940134 29.092706 23.945312 29.097656 C 23.948631 29.101076 23.94975 29.106 23.953125 29.109375 C 23.957167 29.113417 23.962691 29.115179 23.966797 29.119141 C 23.970741 29.123228 23.972539 29.128789 23.976562 29.132812 C 23.980342 29.136592 23.986398 29.136915 23.990234 29.140625 C 23.993944 29.144461 23.994267 29.150517 23.998047 29.154297 C 24.002071 29.158321 24.007631 29.160118 24.011719 29.164062 C 24.015663 29.16815 24.017461 29.173711 24.021484 29.177734 C 24.024222 29.180472 24.028483 29.180893 24.03125 29.183594 C 24.035567 29.188084 24.036602 29.194806 24.041016 29.199219 C 24.045442 29.203645 24.052137 29.204654 24.056641 29.208984 C 24.059341 29.211751 24.059763 29.216013 24.0625 29.21875 C 24.065889 29.222139 24.070784 29.223229 24.074219 29.226562 C 24.077552 29.229997 24.078642 29.234892 24.082031 29.238281 C 24.085421 29.241671 24.090315 29.242761 24.09375 29.246094 C 24.097069 29.249514 24.098188 29.254438 24.101562 29.257812 C 24.104562 29.260812 24.108293 29.26267 24.111328 29.265625 C 24.114283 29.26866 24.116141 29.272391 24.119141 29.275391 C 24.12214 29.27839 24.125872 29.280248 24.128906 29.283203 C 24.131861 29.286238 24.13372 29.28997 24.136719 29.292969 C 24.138804 29.295054 24.142429 29.294811 24.144531 29.296875 C 24.148226 29.300695 24.14858 29.306783 24.152344 29.310547 C 24.15612 29.314323 24.162183 29.314653 24.166016 29.318359 C 24.168071 29.320453 24.167845 29.324095 24.169922 29.326172 C 24.171617 29.327867 24.174075 29.328397 24.175781 29.330078 C 24.1791 29.333498 24.180219 29.338422 24.183594 29.341797 C 24.186978 29.345181 24.191883 29.346281 24.195312 29.349609 C 24.196986 29.351308 24.197531 29.353781 24.199219 29.355469 C 24.201566 29.357816 24.204662 29.359008 24.207031 29.361328 C 24.209351 29.363697 24.210544 29.366794 24.212891 29.369141 C 24.214195 29.370445 24.215486 29.371751 24.216797 29.373047 C 24.219746 29.376075 24.221617 29.37982 24.224609 29.382812 C 24.227602 29.385805 24.231347 29.387676 24.234375 29.390625 C 24.235665 29.39193 24.236983 29.393233 24.238281 29.394531 C 24.240366 29.396616 24.243991 29.396374 24.246094 29.398438 C 24.248149 29.400531 24.247923 29.404173 24.25 29.40625 C 24.251695 29.407945 24.254153 29.408476 24.255859 29.410156 C 24.25754 29.411862 24.258071 29.414321 24.259766 29.416016 C 24.26146 29.41771 24.263919 29.418241 24.265625 29.419922 C 24.267306 29.421628 24.267837 29.424087 24.269531 29.425781 C 24.271219 29.427469 24.273692 29.428014 24.275391 29.429688 C 24.277071 29.431394 24.277602 29.433852 24.279297 29.435547 C 24.279297 29.435547 24.28125 29.4375 24.28125 29.4375 C 24.28356 29.439858 24.284773 29.442976 24.287109 29.445312 C 24.288409 29.446612 24.289709 29.447927 24.291016 29.449219 C 24.292305 29.450523 24.293624 29.451827 24.294922 29.453125 C 24.297006 29.455209 24.300633 29.454969 24.302734 29.457031 C 24.302734 29.457031 24.302734 29.458984 24.302734 29.458984 C 24.303777 29.460027 24.305594 29.4599 24.306641 29.460938 C 24.307678 29.461984 24.307551 29.463801 24.308594 29.464844 C 24.309632 29.465882 24.311457 29.465764 24.3125 29.466797 C 24.315198 29.469561 24.315625 29.473828 24.318359 29.476562 C 24.319657 29.47786 24.322914 29.479179 24.324219 29.480469 C 24.325252 29.481511 24.325133 29.483337 24.326172 29.484375 C 24.327214 29.485417 24.329032 29.485291 24.330078 29.486328 C 24.330339 29.486591 24.33177 29.486066 24.332031 29.486328 C 24.332031 29.486328 24.332031 29.488281 24.332031 29.488281 C 24.345658 29.501705 24.364578 29.507017 24.378906 29.519531 C 24.458244 29.589456 24.542262 29.653425 24.638672 29.693359 C 24.638672 29.693359 24.640625 29.695312 24.640625 29.695312 C 24.755666 29.743193 24.878834 29.767578 25.005859 29.767578 C 25.258808 29.767578 25.500826 29.667143 25.679688 29.488281 C 25.680077 29.487893 25.681251 29.488671 25.681641 29.488281 C 25.860502 29.309419 25.960938 29.067401 25.960938 28.814453 L 25.958984 28.814453 L 25.957031 28.814453 C 25.957031 28.814453 25.957031 28.8125 25.957031 28.8125 L 25.955078 28.8125 C 25.955083 28.811199 25.955078 28.809895 25.955078 28.808594 L 25.951172 28.808594 C 25.951172 28.808594 25.951172 28.806641 25.951172 28.806641 L 25.945312 28.806641 C 25.945326 28.804561 25.947266 28.802863 25.947266 28.800781 L 25.943359 28.800781 C 25.943365 28.799483 25.943359 28.798174 25.943359 28.796875 L 25.935547 28.796875 C 25.93556 28.794795 25.9375 28.793097 25.9375 28.791016 L 25.929688 28.791016 C 25.929701 28.788937 25.931641 28.787237 25.931641 28.785156 L 25.921875 28.785156 C 25.921898 28.782427 25.923828 28.780076 25.923828 28.777344 L 25.914062 28.777344 C 25.914086 28.774614 25.916016 28.772263 25.916016 28.769531 L 25.90625 28.769531 C 25.906273 28.766804 25.908203 28.764449 25.908203 28.761719 L 25.896484 28.761719 C 25.89652 28.75834 25.898438 28.755336 25.898438 28.751953 L 25.886719 28.751953 C 25.886755 28.748574 25.888672 28.745571 25.888672 28.742188 L 25.875 28.742188 C 25.875051 28.738159 25.876953 28.734503 25.876953 28.730469 L 25.863281 28.730469 C 25.863318 28.727072 25.865234 28.724104 25.865234 28.720703 L 25.851562 28.720703 C 25.851631 28.716026 25.853516 28.711716 25.853516 28.707031 L 25.837891 28.707031 C 25.837942 28.703003 25.839844 28.699346 25.839844 28.695312 L 25.824219 28.695312 C 25.824288 28.690611 25.826172 28.686349 25.826172 28.681641 L 25.808594 28.681641 C 25.808687 28.676186 25.8125 28.67148 25.8125 28.666016 L 25.792969 28.666016 C 25.793062 28.660561 25.796875 28.655855 25.796875 28.650391 L 25.777344 28.650391 C 25.777437 28.644936 25.78125 28.64023 25.78125 28.634766 L 25.759766 28.634766 C 25.759859 28.629311 25.763672 28.624605 25.763672 28.619141 L 25.742188 28.619141 C 25.742305 28.613038 25.746094 28.607678 25.746094 28.601562 L 25.724609 28.601562 C 25.724753 28.594812 25.728516 28.588797 25.728516 28.582031 L 25.705078 28.582031 C 25.705195 28.575929 25.708984 28.570568 25.708984 28.564453 L 25.685547 28.564453 C 25.68569 28.557703 25.689453 28.551688 25.689453 28.544922 L 25.666016 28.544922 C 25.666188 28.537524 25.669922 28.530854 25.669922 28.523438 L 25.644531 28.523438 C 25.644703 28.51604 25.648438 28.50937 25.648438 28.501953 L 25.623047 28.501953 C 25.623219 28.494555 25.626953 28.487886 25.626953 28.480469 L 25.599609 28.480469 C 25.599783 28.473033 25.603516 28.46644 25.603516 28.458984 L 25.576172 28.458984 C 25.576378 28.450898 25.580078 28.443656 25.580078 28.435547 L 25.550781 28.435547 C 25.551026 28.426727 25.556641 28.419004 25.556641 28.410156 L 25.527344 28.410156 C 25.52755 28.40207 25.53125 28.394828 25.53125 28.386719 L 25.5 28.386719 C 25.500282 28.377253 25.505859 28.368873 25.505859 28.359375 L 25.474609 28.359375 C 25.474818 28.351847 25.480438 28.345439 25.480469 28.337891 L 29.060547 28.337891 L 29.060547 27.861328 L 29.058594 27.859375 L 29.056641 27.857422 L 29.054688 27.855469 L 29.050781 27.851562 L 29.046875 27.847656 L 29.042969 27.84375 L 29.037109 27.837891 L 29.03125 27.832031 L 29.023438 27.824219 L 29.015625 27.816406 L 29.007812 27.808594 L 28.998047 27.798828 L 28.988281 27.789062 L 28.976562 27.777344 L 28.964844 27.765625 L 28.953125 27.753906 L 28.939453 27.740234 L 28.925781 27.726562 L 28.912109 27.712891 L 28.896484 27.697266 L 28.880859 27.681641 L 28.863281 27.664062 L 28.847656 27.648438 L 28.847656 27.646484 L 28.828125 27.628906 L 28.808594 27.609375 L 28.789062 27.589844 L 28.769531 27.570312 L 28.748047 27.548828 L 28.726562 27.527344 L 28.703125 27.503906 L 28.679688 27.480469 L 28.630859 27.431641 L 28.605469 27.40625 L 28.580078 27.380859 L 28.552734 27.353516 L 28.525391 27.326172 L 28.525391 27.324219 L 28.496094 27.296875 L 28.466797 27.267578 L 28.435547 27.236328 L 28.40625 27.207031 L 28.375 27.175781 L 28.375 27.173828 L 28.371094 27.169922 L 28.357422 27.158203 L 28.341797 27.142578 L 28.308594 27.109375 L 28.275391 27.076172 L 28.240234 27.041016 L 28.205078 27.005859 L 28.169922 26.970703 L 28.132812 26.933594 L 28.105469 26.90625 C 28.105469 26.906105 28.105604 24.289089 28.105469 24.285156 C 28.105469 24.284495 28.105469 24.283864 28.105469 24.283203 C 28.105469 24.2679 28.101785 24.253532 28.101562 24.238281 C 28.096245 23.888608 28.036253 23.552543 27.923828 23.240234 C 27.881597 23.12292 27.825064 23.012613 27.769531 22.902344 C 27.748118 22.859824 27.734227 22.812857 27.710938 22.771484 C 27.710938 22.771484 27.708984 22.769531 27.708984 22.769531 C 27.669892 22.700142 27.620329 22.638216 27.576172 22.572266 L 27.613281 22.572266 C 27.614362 22.588104 27.618242 22.603257 27.619141 22.619141 L 27.658203 22.619141 C 27.659232 22.63433 27.6632 22.648831 27.664062 22.664062 L 27.703125 22.664062 C 27.704154 22.679252 27.708122 22.693753 27.708984 22.708984 L 27.748047 22.708984 C 27.749076 22.724173 27.753044 22.738675 27.753906 22.753906 L 27.792969 22.753906 C 27.793941 22.768373 27.796054 22.78237 27.796875 22.796875 L 27.835938 22.796875 C 27.83691 22.811342 27.839023 22.825339 27.839844 22.839844 L 27.876953 22.839844 C 27.877931 22.854378 27.881988 22.86824 27.882812 22.882812 L 27.919922 22.882812 C 27.920844 22.896622 27.923044 22.909984 27.923828 22.923828 L 27.958984 22.923828 C 27.959857 22.936996 27.962143 22.949691 27.962891 22.962891 L 28 22.962891 C 28.000922 22.9767 28.003123 22.990062 28.003906 23.003906 L 28.039062 23.003906 C 28.039935 23.017067 28.042222 23.029776 28.042969 23.042969 L 28.076172 23.042969 C 28.076996 23.055487 28.079368 23.067531 28.080078 23.080078 L 28.113281 23.080078 C 28.114109 23.092648 28.116474 23.104589 28.117188 23.117188 L 28.150391 23.117188 C 28.151214 23.129706 28.153587 23.14175 28.154297 23.154297 L 28.1875 23.154297 C 28.188323 23.166809 28.190696 23.178866 28.191406 23.191406 L 28.222656 23.191406 C 28.223431 23.203269 28.22589 23.214674 28.226562 23.226562 L 28.255859 23.226562 C 28.25659 23.237828 28.259127 23.248477 28.259766 23.259766 L 28.291016 23.259766 C 28.29179 23.271629 28.294249 23.283033 28.294922 23.294922 L 28.324219 23.294922 C 28.324946 23.306136 28.327489 23.316888 28.328125 23.328125 L 28.355469 23.328125 C 28.356149 23.338694 28.358776 23.348786 28.359375 23.359375 L 28.386719 23.359375 C 28.387399 23.369944 28.390026 23.380036 28.390625 23.390625 L 28.417969 23.390625 C 28.418649 23.401194 28.421276 23.411286 28.421875 23.421875 L 28.449219 23.421875 C 28.449899 23.432439 28.452526 23.44254 28.453125 23.453125 L 28.478516 23.453125 C 28.479149 23.46304 28.48186 23.472489 28.482422 23.482422 L 28.505859 23.482422 C 28.506447 23.49169 28.50924 23.500482 28.509766 23.509766 L 28.533203 23.509766 C 28.533794 23.519073 28.536582 23.527787 28.537109 23.537109 L 28.560547 23.537109 C 28.561135 23.546378 28.563928 23.555169 28.564453 23.564453 L 28.587891 23.564453 C 28.588478 23.573722 28.591271 23.582513 28.591797 23.591797 L 28.615234 23.591797 C 28.615772 23.600341 28.616703 23.60863 28.617188 23.617188 L 28.638672 23.617188 C 28.639214 23.625803 28.64209 23.63395 28.642578 23.642578 L 28.664062 23.642578 C 28.664555 23.650472 28.665568 23.658111 28.666016 23.666016 L 28.6875 23.666016 C 28.687993 23.673909 28.689006 23.681548 28.689453 23.689453 L 28.710938 23.689453 C 28.71143 23.697342 28.712443 23.70499 28.712891 23.712891 L 28.732422 23.712891 C 28.73287 23.720134 28.733964 23.727123 28.734375 23.734375 L 28.753906 23.734375 C 28.754354 23.741614 28.755449 23.748611 28.755859 23.755859 L 28.773438 23.755859 C 28.773843 23.762451 28.775017 23.768791 28.775391 23.775391 L 28.792969 23.775391 C 28.793374 23.781983 28.794548 23.788322 28.794922 23.794922 L 28.8125 23.794922 C 28.812905 23.80151 28.81408 23.807857 28.814453 23.814453 L 28.830078 23.814453 C 28.83044 23.820394 28.831695 23.826084 28.832031 23.832031 L 28.847656 23.832031 C 28.848018 23.837972 28.849273 23.843662 28.849609 23.849609 L 28.865234 23.849609 C 28.865596 23.855547 28.866851 23.861243 28.867188 23.867188 L 28.880859 23.867188 C 28.881179 23.872477 28.882513 23.877518 28.882812 23.882812 L 28.896484 23.882812 C 28.896804 23.8881 28.898138 23.893145 28.898438 23.898438 L 28.910156 23.898438 C 28.910435 23.903076 28.911847 23.907467 28.912109 23.912109 L 28.923828 23.912109 C 28.924106 23.916747 28.925518 23.921139 28.925781 23.925781 L 28.9375 23.925781 C 28.937778 23.930418 28.93919 23.934813 28.939453 23.939453 L 28.949219 23.939453 C 28.949456 23.94344 28.950946 23.947183 28.951172 23.951172 L 28.960938 23.951172 C 28.961175 23.955158 28.962665 23.958901 28.962891 23.962891 L 28.970703 23.962891 C 28.970901 23.966239 28.972467 23.969306 28.972656 23.972656 L 28.982422 23.972656 C 28.982659 23.976642 28.984149 23.980387 28.984375 23.984375 L 28.992188 23.984375 C 28.99234 23.986984 28.99204 23.989577 28.992188 23.992188 L 29 23.992188 C 29.000197 23.995522 29.001764 23.998617 29.001953 24.001953 L 29.009766 24.001953 C 29.009918 24.00456 29.009618 24.007158 29.009766 24.009766 L 29.015625 24.009766 C 29.015739 24.011723 29.015514 24.013667 29.015625 24.015625 L 29.023438 24.015625 C 29.023551 24.017588 29.023326 24.01952 29.023438 24.021484 L 29.027344 24.021484 C 29.027458 24.02345 29.027232 24.025378 29.027344 24.027344 L 29.033203 24.027344 C 29.033317 24.029299 29.033092 24.031247 29.033203 24.033203 L 29.037109 24.033203 C 29.037184 24.034508 29.037035 24.035804 29.037109 24.037109 L 29.041016 24.037109 C 29.041091 24.038413 29.040942 24.039712 29.041016 24.041016 L 29.042969 24.041016 C 29.042969 24.041016 29.042969 24.042969 29.042969 24.042969 L 29.044922 24.042969 C 29.044922 24.042969 29.044922 24.044922 29.044922 24.044922 L 29.998047 24.044922 L 30 24.044922 C 29.983695 23.695994 29.927417 23.359359 29.84375 23.033203 C 29.8355 23.001041 29.831134 22.967451 29.822266 22.935547 C 29.822266 22.935547 29.820312 22.933594 29.820312 22.933594 C 29.796463 22.847668 29.764567 22.765606 29.736328 22.681641 C 29.706445 22.593041 29.681106 22.502281 29.646484 22.416016 C 29.646484 22.416016 29.644531 22.414062 29.644531 22.414062 C 29.577503 22.246879 29.501942 22.083367 29.417969 21.925781 C 29.417546 21.92499 29.416439 21.924619 29.416016 21.923828 C 29.416016 21.923828 29.414062 21.921875 29.414062 21.921875 C 29.329801 21.764553 29.238722 21.611451 29.138672 21.464844 C 29.138156 21.464088 29.137235 21.463646 29.136719 21.462891 C 29.136719 21.462891 29.134766 21.460938 29.134766 21.460938 C 29.134766 21.460938 29.132812 21.458984 29.132812 21.458984 C 29.085087 21.389216 29.031585 21.324964 28.980469 21.257812 C 28.924408 21.184231 28.872481 21.107394 28.8125 21.037109 C 28.8125 21.037109 28.810547 21.035156 28.810547 21.035156 C 28.808754 21.033054 28.806484 21.031396 28.804688 21.029297 C 28.801699 21.025794 28.797919 21.023026 28.794922 21.019531 C 28.791326 21.015316 28.786812 21.012016 28.783203 21.007812 C 28.675509 20.883503 28.562707 20.763496 28.443359 20.650391 C 28.443016 20.650065 28.443703 20.648763 28.443359 20.648438 C 28.443359 20.648438 28.441406 20.646484 28.441406 20.646484 C 28.440382 20.645515 28.438525 20.6455 28.4375 20.644531 C 28.4375 20.644531 28.435547 20.642578 28.435547 20.642578 C 28.435547 20.642578 28.435547 20.640625 28.435547 20.640625 C 28.433858 20.639027 28.429426 20.636361 28.427734 20.634766 C 28.427734 20.634766 28.425781 20.632812 28.425781 20.632812 C 28.425781 20.632812 28.423828 20.630859 28.423828 20.630859 C 28.423828 20.630859 28.421875 20.628906 28.421875 20.628906 C 28.421875 20.628906 28.419922 20.626953 28.419922 20.626953 C 28.415215 20.622483 28.410974 20.617733 28.40625 20.613281 C 28.40625 20.613281 28.404297 20.611328 28.404297 20.611328 C 28.402963 20.610067 28.401726 20.608681 28.400391 20.607422 C 28.400391 20.607422 28.398438 20.605469 28.398438 20.605469 C 28.3924 20.599728 28.386926 20.593602 28.380859 20.587891 C 28.380859 20.587891 28.378906 20.585938 28.378906 20.585938 C 28.378906 20.585938 28.376953 20.583984 28.376953 20.583984 C 28.374942 20.582095 28.373108 20.580011 28.371094 20.578125 C 28.367429 20.574613 28.365004 20.569907 28.361328 20.566406 C 28.35734 20.562633 28.35361 20.558447 28.349609 20.554688 C 28.345262 20.550574 28.3403 20.547067 28.335938 20.542969 C 28.330272 20.53757 28.326003 20.530763 28.320312 20.525391 C 28.312642 20.518094 28.302639 20.509202 28.294922 20.501953 C 28.28425 20.491772 28.274434 20.48079 28.263672 20.470703 C 28.256678 20.464024 28.251173 20.455858 28.244141 20.449219 C 28.233127 20.438718 28.222047 20.42837 28.210938 20.417969 C 28.204641 20.411882 28.199688 20.404491 28.193359 20.398438 C 28.191662 20.396831 28.1892 20.396135 28.1875 20.394531 C 28.175517 20.3831 28.16444 20.370688 28.152344 20.359375 C 28.150344 20.357483 28.148487 20.355404 28.146484 20.353516 C 28.141188 20.348399 28.136178 20.342984 28.130859 20.337891 C 28.129166 20.336289 28.126695 20.335584 28.125 20.333984 C 28.119333 20.328573 28.115067 20.321792 28.109375 20.316406 C 28.101771 20.309024 28.095541 20.300303 28.087891 20.292969 C 28.085897 20.291082 28.084028 20.288993 28.082031 20.287109 C 28.071053 20.276619 28.059902 20.26625 28.048828 20.255859 C 28.034893 20.242418 28.021903 20.228124 28.007812 20.214844 C 28.001529 20.208743 27.996549 20.20138 27.990234 20.195312 C 27.987881 20.193086 27.98478 20.191675 27.982422 20.189453 C 27.970421 20.177966 27.959381 20.165665 27.947266 20.154297 C 27.928052 20.135703 27.910135 20.115942 27.890625 20.097656 C 27.883609 20.090974 27.876196 20.084767 27.869141 20.078125 C 27.862149 20.071433 27.85664 20.063293 27.849609 20.056641 C 27.834349 20.041954 27.820134 20.026213 27.804688 20.011719 C 27.799345 20.00662 27.794427 20.001169 27.789062 19.996094 C 27.77246 19.980097 27.757058 19.963033 27.740234 19.947266 C 27.731894 19.939305 27.723239 19.931732 27.714844 19.923828 C 27.703525 19.91297 27.693062 19.901377 27.681641 19.890625 C 27.670321 19.879767 27.659859 19.868174 27.648438 19.857422 C 27.639641 19.848628 27.631909 19.838807 27.623047 19.830078 C 27.62002 19.827215 27.616315 19.825122 27.613281 19.822266 C 27.586263 19.795785 27.560818 19.768054 27.533203 19.742188 C 27.508116 19.717681 27.484583 19.691947 27.458984 19.667969 C 27.448678 19.658105 27.440078 19.646495 27.429688 19.636719 C 27.419817 19.627012 27.410342 19.617047 27.400391 19.607422 C 27.397364 19.604558 27.393659 19.602465 27.390625 19.599609 C 27.376646 19.586155 27.363744 19.571886 27.349609 19.558594 C 27.335658 19.545166 27.322701 19.530844 27.308594 19.517578 C 27.298423 19.507555 27.289553 19.496264 27.279297 19.486328 C 27.279297 19.486328 27.277344 19.486328 27.277344 19.486328 C 27.259797 19.469338 27.244357 19.450327 27.226562 19.433594 C 27.211946 19.419511 27.198381 19.40453 27.183594 19.390625 C 27.168996 19.376561 27.155393 19.361544 27.140625 19.347656 C 27.125354 19.332927 27.111161 19.31727 27.095703 19.302734 C 27.080432 19.288005 27.066239 19.272348 27.050781 19.257812 C 27.035529 19.243101 27.021298 19.227409 27.005859 19.212891 C 26.989935 19.197513 26.975113 19.181182 26.958984 19.166016 C 26.939788 19.147479 26.921836 19.127605 26.902344 19.109375 C 26.888723 19.096288 26.875097 19.083246 26.861328 19.070312 C 26.845412 19.054944 26.830573 19.038596 26.814453 19.023438 C 26.79719 19.006749 26.781174 18.989097 26.763672 18.972656 C 26.746443 18.956001 26.730358 18.938283 26.712891 18.921875 C 26.700161 18.909205 26.688647 18.895346 26.675781 18.882812 C 26.674448 18.881551 26.67321 18.880166 26.671875 18.878906 C 26.648387 18.856075 26.625496 18.832916 26.601562 18.810547 C 26.591425 18.80049 26.582489 18.789267 26.572266 18.779297 C 26.570932 18.778035 26.569694 18.776651 26.568359 18.775391 C 26.544224 18.751905 26.5207 18.728076 26.496094 18.705078 C 26.480165 18.689731 26.465351 18.67334 26.449219 18.658203 C 26.431337 18.640899 26.414623 18.622507 26.396484 18.605469 C 26.377558 18.587132 26.359058 18.56882 26.339844 18.550781 C 26.320318 18.531854 26.303036 18.510797 26.283203 18.492188 C 26.269207 18.47818 26.256349 18.46306 26.242188 18.449219 C 26.240494 18.447617 26.238024 18.446912 26.236328 18.445312 C 26.213547 18.423108 26.193124 18.398723 26.169922 18.376953 C 26.150068 18.357697 26.1315 18.337287 26.111328 18.318359 C 26.088517 18.296235 26.066199 18.273643 26.042969 18.251953 C 26.025376 18.234965 26.008075 18.217902 25.990234 18.201172 C 25.975282 18.18615 25.962407 18.169129 25.947266 18.154297 C 25.945266 18.152405 25.943409 18.150326 25.941406 18.148438 C 25.914717 18.122381 25.888596 18.095772 25.861328 18.070312 C 25.846401 18.055882 25.833466 18.039636 25.818359 18.025391 C 25.790985 17.998636 25.764311 17.971438 25.736328 17.945312 C 25.717431 17.927025 25.698872 17.908615 25.679688 17.890625 C 25.657556 17.8691 25.637762 17.845334 25.615234 17.824219 C 25.599348 17.808197 25.584461 17.791197 25.568359 17.775391 C 25.566 17.773158 25.562911 17.771759 25.560547 17.769531 C 25.5355 17.745037 25.511886 17.71928 25.486328 17.695312 C 25.460588 17.670251 25.436433 17.643647 25.410156 17.619141 C 25.390305 17.599909 25.371731 17.57945 25.351562 17.560547 C 25.328113 17.537703 25.305145 17.514571 25.28125 17.492188 C 25.264416 17.475144 25.249499 17.456255 25.232422 17.439453 C 25.229755 17.43693 25.227281 17.434158 25.224609 17.431641 C 25.198305 17.405875 25.173353 17.3787 25.146484 17.353516 C 25.11913 17.326838 25.092414 17.299487 25.064453 17.273438 C 25.049871 17.258715 25.036248 17.243057 25.021484 17.228516 C 25.018818 17.225993 25.016344 17.22322 25.013672 17.220703 C 24.986371 17.193931 24.95955 17.166769 24.931641 17.140625 C 24.904256 17.113904 24.877602 17.086639 24.849609 17.060547 C 24.827468 17.039036 24.807694 17.015241 24.785156 16.994141 C 24.759758 16.969344 24.734907 16.944177 24.708984 16.919922 C 24.690907 16.901518 24.67461 16.881404 24.65625 16.863281 C 24.653224 16.860418 24.649518 16.858325 24.646484 16.855469 C 24.617913 16.827404 24.59174 16.796908 24.5625 16.769531 C 24.533858 16.741537 24.505871 16.712852 24.476562 16.685547 C 24.456088 16.665624 24.43683 16.644573 24.416016 16.625 C 24.384425 16.593968 24.354672 16.561441 24.322266 16.53125 C 24.301143 16.510673 24.28125 16.488954 24.259766 16.46875 C 24.227544 16.437065 24.197134 16.403855 24.164062 16.373047 C 24.14294 16.35247 24.123047 16.330751 24.101562 16.310547 C 24.068347 16.277849 24.036072 16.244656 24.001953 16.212891 C 23.977515 16.18907 23.95461 16.163945 23.929688 16.140625 C 23.905003 16.116432 23.882604 16.090087 23.857422 16.066406 C 23.823924 16.033394 23.792232 15.99886 23.757812 15.966797 C 23.735346 15.944861 23.714283 15.921904 23.691406 15.900391 C 23.656616 15.866068 23.623675 15.830173 23.587891 15.796875 C 23.561836 15.771438 23.536372 15.745571 23.509766 15.720703 C 23.480809 15.692292 23.45347 15.66247 23.423828 15.634766 C 23.394872 15.606355 23.367532 15.576533 23.337891 15.548828 C 23.308293 15.519756 23.280314 15.489271 23.25 15.460938 C 23.223375 15.434785 23.199081 15.406415 23.171875 15.380859 C 23.136095 15.345521 23.101286 15.309644 23.064453 15.275391 C 23.040402 15.251871 23.018663 15.226159 22.994141 15.203125 C 22.957726 15.16712 22.922273 15.130584 22.884766 15.095703 C 22.856792 15.068317 22.831346 15.038447 22.802734 15.011719 C 22.771884 14.981367 22.742568 14.949471 22.710938 14.919922 C 22.679734 14.889222 22.649189 14.858003 22.617188 14.828125 C 22.585656 14.797085 22.555784 14.764575 22.523438 14.734375 C 22.494875 14.706258 22.468685 14.675866 22.439453 14.648438 C 22.404718 14.614055 22.371668 14.57828 22.335938 14.544922 C 22.303749 14.513201 22.273273 14.480064 22.240234 14.449219 C 22.205127 14.414621 22.170883 14.379258 22.134766 14.345703 C 22.105154 14.316649 22.077203 14.286128 22.046875 14.257812 C 22.017033 14.228371 21.989559 14.196657 21.958984 14.167969 C 21.920423 14.129715 21.883541 14.089724 21.84375 14.052734 C 21.816098 14.025556 21.789997 13.997237 21.761719 13.970703 C 21.722118 13.931375 21.683477 13.891508 21.642578 13.853516 C 21.611032 13.822495 21.581189 13.789946 21.548828 13.759766 C 21.514731 13.726089 21.48232 13.690895 21.447266 13.658203 C 21.41578 13.627106 21.385818 13.594712 21.353516 13.564453 C 21.31356 13.524789 21.275652 13.483618 21.234375 13.445312 C 21.20219 13.413629 21.171706 13.380418 21.138672 13.349609 C 21.103939 13.315267 21.070884 13.279414 21.035156 13.246094 C 20.999788 13.211085 20.966088 13.174573 20.929688 13.140625 C 20.896628 13.107901 20.865994 13.072813 20.832031 13.041016 C 20.794082 13.003281 20.757894 12.964242 20.71875 12.927734 C 20.67982 12.889157 20.641744 12.849789 20.601562 12.8125 C 20.571068 12.782414 20.542979 12.750003 20.511719 12.720703 C 20.468987 12.678125 20.427061 12.634769 20.382812 12.59375 C 20.349352 12.560739 20.317584 12.526205 20.283203 12.494141 C 20.245843 12.457074 20.21039 12.418693 20.171875 12.382812 C 20.137544 12.348756 20.105619 12.312353 20.070312 12.279297 C 20.02689 12.235983 19.984444 12.192093 19.939453 12.150391 C 19.904703 12.116069 19.871681 12.080173 19.835938 12.046875 C 19.798668 12.009862 19.76303 11.971378 19.724609 11.935547 C 19.68563 11.896788 19.647662 11.857777 19.607422 11.820312 C 19.568825 11.78196 19.532019 11.742162 19.492188 11.705078 C 19.456546 11.669662 19.423414 11.631992 19.386719 11.597656 C 19.345349 11.556321 19.30647 11.512528 19.263672 11.472656 C 19.223462 11.432635 19.18413 11.392158 19.142578 11.353516 C 19.103936 11.315113 19.067223 11.275412 19.027344 11.238281 C 18.987462 11.198565 18.949406 11.157501 18.908203 11.119141 C 18.865064 11.07618 18.823981 11.031606 18.779297 10.990234 C 18.745249 10.956496 18.71274 10.921427 18.677734 10.888672 C 18.633816 10.844694 18.592406 10.798185 18.546875 10.755859 C 18.5047 10.713877 18.463573 10.671324 18.419922 10.630859 C 18.380925 10.592126 18.342991 10.553064 18.302734 10.515625 C 18.264546 10.477553 18.228856 10.437219 18.189453 10.400391 C 18.142556 10.353378 18.097566 10.304891 18.048828 10.259766 C 18.010556 10.221757 17.973079 10.183247 17.933594 10.146484 C 17.894063 10.106981 17.857242 10.065511 17.816406 10.027344 C 17.771533 9.9823107 17.728202 9.9358828 17.681641 9.8925781 C 17.638947 9.8499201 17.598902 9.8047707 17.554688 9.7636719 C 17.510053 9.7190996 17.466216 9.6737269 17.419922 9.6308594 C 17.380011 9.5911302 17.342015 9.5500897 17.300781 9.5117188 C 17.260014 9.4709131 17.221845 9.4280552 17.179688 9.3886719 C 17.13359 9.3423342 17.088898 9.2945111 17.041016 9.25 C 16.997365 9.2063147 16.955399 9.1611938 16.910156 9.1191406 C 16.863554 9.0725013 16.817946 9.025246 16.769531 8.9804688 C 16.730367 8.9414453 16.692784 8.9009964 16.652344 8.8632812 C 16.603185 8.8138851 16.555092 8.7641141 16.503906 8.7167969 C 16.465068 8.6780769 16.428766 8.6370425 16.388672 8.5996094 C 16.341283 8.551894 16.295373 8.5028134 16.246094 8.4570312 C 16.198266 8.4090855 16.151304 8.3604348 16.101562 8.3144531 C 16.058847 8.2718206 16.018844 8.2266196 15.974609 8.1855469 C 15.929084 8.1398844 15.885153 8.0927118 15.837891 8.0488281 C 15.795604 8.0064146 15.754724 7.9627555 15.710938 7.921875 C 15.66225 7.8727443 15.615141 7.822477 15.564453 7.7753906 C 15.518255 7.7289766 15.473771 7.6812987 15.425781 7.6367188 C 15.378993 7.5897119 15.333782 7.5412191 15.285156 7.4960938 C 15.238661 7.4493809 15.194794 7.4003237 15.146484 7.3554688 C 15.096389 7.3051121 15.046342 7.2552278 14.994141 7.2070312 C 14.952766 7.1656456 14.913899 7.1219522 14.871094 7.0820312 C 14.818275 7.0286726 14.766111 6.9747758 14.710938 6.9238281 C 14.668935 6.8817684 14.629416 6.8374239 14.585938 6.796875 C 14.535363 6.745728 14.486332 6.693468 14.433594 6.6445312 C 14.385502 6.5961079 14.339101 6.5464319 14.289062 6.5 C 14.241029 6.4516355 14.194506 6.4018466 14.144531 6.3554688 C 14.095818 6.3063655 14.04876 6.2560425 13.998047 6.2089844 C 13.946095 6.1566172 13.89602 6.102773 13.841797 6.0527344 C 13.797567 6.0083715 13.754854 5.9626065 13.708984 5.9199219 C 13.544084 5.7531254 13.370598 5.5935768 13.183594 5.4511719 L 12.501953 6.1328125 C 12.559712 6.1730172 12.612549 6.2204033 12.667969 6.2636719 L 12.650391 6.28125 C 12.70773 6.3211629 12.759418 6.3691765 12.814453 6.4121094 L 12.796875 6.4296875 C 12.854461 6.4697717 12.90763 6.5154639 12.962891 6.5585938 L 12.945312 6.5761719 C 13.002344 6.6158704 13.054623 6.6604386 13.109375 6.703125 L 13.089844 6.7226562 C 13.146678 6.7622173 13.199336 6.8070808 13.253906 6.8496094 L 13.236328 6.8671875 C 13.284131 6.9004618 13.32684 6.9392291 13.373047 6.9746094 C 13.379547 6.9831232 13.386145 6.9914311 13.392578 7 L 13.380859 7.0117188 C 13.402242 7.026603 13.420339 7.0452372 13.441406 7.0605469 C 13.87659 7.6645359 14.149098 8.3977331 14.195312 9.1875 C 14.158833 9.1514055 14.132702 9.1084431 14.087891 9.0820312 C 14.045642 9.0356506 14.012065 8.9832841 13.957031 8.9511719 C 13.914612 8.9047071 13.881402 8.8504715 13.826172 8.8183594 C 13.784294 8.7727968 13.751497 8.7211369 13.697266 8.6894531 C 13.68484 8.6757953 13.673806 8.6609597 13.660156 8.6484375 C 13.628286 8.5920782 13.57374 8.5552136 13.525391 8.5117188 C 13.494554 8.4584573 13.440187 8.4244356 13.394531 8.3828125 C 13.392131 8.380264 13.391121 8.3754957 13.388672 8.3730469 C 13.35756 8.3205692 13.30528 8.2870586 13.259766 8.2460938 C 13.256784 8.2428898 13.25501 8.2374314 13.251953 8.234375 C 13.221564 8.1843244 13.170509 8.1526962 13.126953 8.1132812 C 13.122193 8.107962 13.120189 8.0987045 13.115234 8.09375 C 13.084862 8.0449171 13.033161 8.0150796 12.990234 7.9765625 C 12.984568 7.9701215 12.982506 7.9590688 12.976562 7.953125 C 12.94672 7.906293 12.896897 7.8770209 12.855469 7.8398438 C 12.848392 7.8315777 12.845407 7.8180634 12.837891 7.8105469 C 12.815568 7.7763611 12.776731 7.757585 12.748047 7.7285156 C 12.734112 7.7104842 12.719391 7.6934944 12.705078 7.6757812 C 12.702962 7.6735693 12.70137 7.6701201 12.699219 7.6679688 C 12.695353 7.6621935 12.687653 7.6599319 12.683594 7.6542969 C 12.660924 7.6267922 12.634897 7.602866 12.611328 7.5761719 C 12.441671 7.3546516 12.239267 7.162554 12.017578 6.9941406 C 12.00581 6.9795294 12.001293 6.9583244 11.988281 6.9453125 C 11.959401 6.907294 11.915413 6.886102 11.878906 6.8554688 C 11.865285 6.8380569 11.859085 6.8141632 11.84375 6.7988281 C 11.816035 6.7632823 11.774622 6.7437934 11.740234 6.7148438 C 11.724837 6.6946248 11.716867 6.6680391 11.699219 6.6503906 C 11.672541 6.6170645 11.63215 6.5996598 11.599609 6.5722656 C 11.582907 6.5499559 11.574087 6.5213527 11.554688 6.5019531 C 11.526706 6.4679177 11.485209 6.4495441 11.451172 6.421875 C 11.434755 6.4002744 11.42717 6.3724822 11.408203 6.3535156 C 11.381039 6.3213524 11.341148 6.3036783 11.308594 6.2773438 C 11.29084 6.2535918 11.280559 6.2239179 11.259766 6.203125 C 11.232816 6.1720744 11.194049 6.1563293 11.162109 6.1308594 C 11.143518 6.1058259 11.133274 6.0746796 11.111328 6.0527344 C 11.08496 6.0231809 11.048435 6.0067804 11.017578 5.9824219 C 10.998015 5.9558472 10.986207 5.9237065 10.962891 5.9003906 C 10.936929 5.8720945 10.901134 5.8573809 10.871094 5.8339844 C 10.850704 5.8061308 10.838946 5.7725402 10.814453 5.7480469 C 10.789061 5.7211439 10.753651 5.7078898 10.724609 5.6855469 C 10.70308 5.655797 10.690239 5.6199263 10.664062 5.59375 C 10.531248 5.4570142 10.348 5.3808592 10.15625 5.3808594 z M 14.201172 9.1953125 L 14.326172 9.1953125 C 14.330582 9.2424972 14.340964 9.2883285 14.34375 9.3359375 C 14.34375 9.3359375 14.341797 9.3359375 14.341797 9.3359375 C 14.301005 9.2918314 14.269333 9.2419411 14.216797 9.2109375 C 14.211785 9.2054255 14.206389 9.2006436 14.201172 9.1953125 z M 14.359375 9.34375 L 14.474609 9.34375 C 14.478624 9.3869351 14.485627 9.429115 14.488281 9.4726562 C 14.482918 9.4692882 14.476176 9.4680557 14.470703 9.4648438 C 14.433083 9.4240217 14.407168 9.3734872 14.359375 9.34375 z M 14.503906 9.4902344 L 14.621094 9.4902344 C 14.625108 9.5334199 14.632111 9.575599 14.634766 9.6191406 C 14.620305 9.6090869 14.609087 9.5967462 14.59375 9.5878906 C 14.563128 9.5553176 14.541238 9.5157125 14.503906 9.4902344 z M 14.650391 9.6367188 L 14.767578 9.6367188 C 14.771352 9.6773163 14.778678 9.7168996 14.78125 9.7578125 C 14.760909 9.7424664 14.740978 9.727705 14.71875 9.7148438 C 14.694763 9.6893077 14.6786 9.6579781 14.650391 9.6367188 z M 14.810547 9.7832031 L 14.912109 9.7832031 C 14.915738 9.8224431 14.921321 9.8608561 14.923828 9.9003906 C 14.917057 9.8948524 14.911312 9.8880733 14.904297 9.8828125 C 14.87711 9.8458834 14.845648 9.8132854 14.810547 9.7832031 z M 14.957031 9.9277344 L 15.056641 9.9277344 C 15.060149 9.9656798 15.065899 10.002794 15.068359 10.041016 C 15.05428 10.028488 15.040625 10.015158 15.025391 10.003906 C 15.004766 9.9765101 14.982152 9.9513635 14.957031 9.9277344 z M 15.103516 10.072266 L 15.201172 10.072266 C 15.204621 10.109564 15.210455 10.146029 15.212891 10.183594 C 15.193457 10.164572 15.174259 10.145315 15.152344 10.128906 C 15.137252 10.108695 15.121094 10.090485 15.103516 10.072266 z M 15.251953 10.216797 L 15.34375 10.216797 C 15.347063 10.252806 15.3531 10.287961 15.355469 10.324219 C 15.331217 10.298401 15.303955 10.275353 15.275391 10.253906 C 15.26665 10.242123 15.261555 10.227924 15.251953 10.216797 z M 15.388672 10.359375 L 15.486328 10.359375 C 15.489522 10.39409 15.495731 10.427944 15.498047 10.462891 C 15.468527 10.428549 15.433202 10.400335 15.396484 10.373047 C 15.393301 10.368832 15.391969 10.363506 15.388672 10.359375 z M 15.525391 10.501953 L 15.626953 10.501953 C 15.630367 10.539261 15.636271 10.575707 15.638672 10.613281 C 15.606352 10.570997 15.568015 10.534764 15.525391 10.501953 z M 15.669922 10.642578 L 15.767578 10.642578 C 15.770992 10.679886 15.776896 10.716332 15.779297 10.753906 C 15.772894 10.748682 15.768338 10.741306 15.761719 10.736328 C 15.735215 10.701261 15.703628 10.671339 15.669922 10.642578 z M 15.8125 10.783203 L 15.908203 10.783203 C 15.911558 10.819864 15.917546 10.85566 15.919922 10.892578 C 15.908585 10.882419 15.898816 10.870664 15.886719 10.861328 C 15.865365 10.832482 15.838776 10.807953 15.8125 10.783203 z M 15.953125 10.923828 L 16.046875 10.923828 C 16.050154 10.959847 16.056259 10.994984 16.058594 11.03125 C 16.041907 11.014793 16.026359 10.996963 16.007812 10.982422 C 15.991928 10.960738 15.971831 10.943271 15.953125 10.923828 z M 16.091797 11.0625 L 16.185547 11.0625 C 16.188708 11.097225 16.194982 11.13106 16.197266 11.166016 C 16.173668 11.140667 16.14882 11.116908 16.121094 11.095703 C 16.112153 11.083785 16.101616 11.073742 16.091797 11.0625 z M 16.234375 11.201172 L 16.324219 11.201172 C 16.327437 11.236526 16.33363 11.271047 16.335938 11.306641 C 16.309494 11.275177 16.278549 11.24648 16.246094 11.220703 C 16.24215 11.215257 16.238503 11.206485 16.234375 11.201172 z M 16.367188 11.339844 L 16.460938 11.339844 C 16.464024 11.373926 16.470415 11.407102 16.472656 11.441406 C 16.442966 11.402426 16.405644 11.370917 16.367188 11.339844 z M 16.503906 11.476562 L 16.597656 11.476562 C 16.600858 11.511921 16.607084 11.546434 16.609375 11.582031 C 16.601956 11.575712 16.597568 11.566527 16.589844 11.560547 C 16.565841 11.528726 16.533838 11.503277 16.503906 11.476562 z M 16.642578 11.613281 L 16.732422 11.613281 C 16.73555 11.648014 16.74189 11.681834 16.744141 11.716797 C 16.7309 11.704367 16.721366 11.68901 16.707031 11.677734 C 16.688834 11.653377 16.664302 11.634742 16.642578 11.613281 z M 16.777344 11.748047 L 16.867188 11.748047 C 16.870258 11.782133 16.876682 11.815301 16.878906 11.849609 C 16.86018 11.830274 16.84346 11.809814 16.822266 11.792969 C 16.80959 11.77584 16.791788 11.763788 16.777344 11.748047 z M 16.912109 11.882812 L 17.001953 11.882812 C 17.005021 11.916883 17.011448 11.950083 17.013672 11.984375 C 16.989897 11.957243 16.965829 11.930952 16.9375 11.908203 C 16.930391 11.898506 16.919793 11.892079 16.912109 11.882812 z M 17.046875 12.017578 L 17.134766 12.017578 C 17.137762 12.051021 17.144302 12.083531 17.146484 12.117188 C 17.144998 12.11607 17.144075 12.114386 17.142578 12.113281 C 17.116064 12.080538 17.085594 12.050315 17.052734 12.023438 C 17.051107 12.021197 17.048534 12.019797 17.046875 12.017578 z M 17.179688 12.150391 L 17.267578 12.150391 C 17.270573 12.183819 17.277116 12.216359 17.279297 12.25 C 17.269997 12.242229 17.263667 12.231853 17.253906 12.224609 C 17.253906 12.224609 17.251953 12.222656 17.251953 12.222656 C 17.230374 12.196284 17.205462 12.172979 17.179688 12.150391 z M 17.3125 12.283203 L 17.398438 12.283203 C 17.40136 12.316003 17.408016 12.347854 17.410156 12.380859 C 17.392607 12.364713 17.378751 12.344208 17.359375 12.330078 C 17.345212 12.312953 17.32848 12.298754 17.3125 12.283203 z M 17.443359 12.414062 L 17.529297 12.414062 C 17.53222 12.446863 17.538875 12.478713 17.541016 12.511719 C 17.517501 12.487841 17.497923 12.461373 17.470703 12.441406 C 17.46258 12.431567 17.452092 12.423394 17.443359 12.414062 z M 17.574219 12.544922 L 17.660156 12.544922 C 17.663079 12.577722 17.669735 12.609573 17.671875 12.642578 C 17.64326 12.61045 17.614962 12.578542 17.580078 12.552734 C 17.578014 12.550209 17.576324 12.547415 17.574219 12.544922 z M 17.708984 12.675781 L 17.791016 12.675781 C 17.793743 12.70657 17.798743 12.736609 17.800781 12.767578 C 17.798013 12.765485 17.79382 12.765722 17.791016 12.763672 C 17.765147 12.732789 17.74053 12.701287 17.708984 12.675781 z M 17.835938 12.804688 L 17.919922 12.804688 C 17.922649 12.835475 17.92765 12.865516 17.929688 12.896484 C 17.918588 12.887174 17.908235 12.877699 17.896484 12.869141 C 17.877527 12.846699 17.857966 12.824328 17.835938 12.804688 z M 17.962891 12.933594 L 18.048828 12.933594 C 18.051555 12.964382 18.056556 12.994421 18.058594 13.025391 C 18.039643 13.007712 18.023045 12.987969 18.001953 12.972656 C 17.990005 12.95861 17.97607 12.946559 17.962891 12.933594 z M 18.091797 13.0625 L 18.175781 13.0625 C 18.178551 13.093942 18.183496 13.12462 18.185547 13.15625 C 18.160184 13.129846 18.137185 13.101858 18.107422 13.080078 C 18.102358 13.074102 18.097087 13.068286 18.091797 13.0625 z M 18.220703 13.189453 L 18.302734 13.189453 C 18.305562 13.221543 18.310422 13.252871 18.3125 13.285156 C 18.283475 13.251486 18.256429 13.216487 18.220703 13.189453 z M 18.349609 13.316406 L 18.427734 13.316406 C 18.430214 13.34466 18.433648 13.371985 18.435547 13.400391 C 18.429657 13.395787 18.422074 13.393074 18.416016 13.388672 C 18.394797 13.364039 18.374498 13.337579 18.349609 13.316406 z M 18.474609 13.441406 L 18.552734 13.441406 C 18.555214 13.46966 18.558648 13.496985 18.560547 13.525391 C 18.546872 13.513442 18.534231 13.501018 18.519531 13.490234 C 18.505024 13.473399 18.490864 13.45666 18.474609 13.441406 z M 18.597656 13.566406 L 18.677734 13.566406 C 18.680257 13.595193 18.683627 13.6234 18.685547 13.652344 C 18.664112 13.63141 18.645401 13.609618 18.621094 13.591797 C 18.613606 13.583102 18.605619 13.57469 18.597656 13.566406 z M 18.720703 13.691406 L 18.800781 13.691406 C 18.803424 13.721684 18.808571 13.750798 18.810547 13.78125 C 18.783181 13.751109 18.757456 13.719852 18.724609 13.695312 C 18.72341 13.693901 18.721916 13.692807 18.720703 13.691406 z M 18.851562 13.814453 L 18.923828 13.814453 C 18.926286 13.842663 18.931714 13.870076 18.933594 13.898438 C 18.929712 13.895428 18.923875 13.895501 18.919922 13.892578 C 18.897358 13.866519 18.878185 13.836623 18.851562 13.814453 z M 18.972656 13.9375 L 19.046875 13.9375 C 19.049214 13.964345 19.052872 13.990596 19.054688 14.017578 C 19.043255 14.007804 19.031658 13.999213 19.019531 13.990234 C 19.004133 13.972437 18.989985 13.953527 18.972656 13.9375 z M 19.09375 14.060547 L 19.167969 14.060547 C 19.170414 14.08876 19.175868 14.116167 19.177734 14.144531 C 19.158662 14.126036 19.142412 14.105915 19.121094 14.089844 C 19.112359 14.079652 19.103126 14.070178 19.09375 14.060547 z M 19.210938 14.181641 L 19.289062 14.181641 C 19.291564 14.210503 19.296932 14.238557 19.298828 14.267578 C 19.271974 14.238401 19.246828 14.209427 19.214844 14.185547 C 19.213638 14.184154 19.212156 14.183023 19.210938 14.181641 z M 19.341797 14.302734 L 19.408203 14.302734 C 19.410523 14.329657 19.416175 14.355753 19.417969 14.382812 C 19.413833 14.379583 19.408515 14.378132 19.404297 14.375 C 19.383192 14.350963 19.36636 14.323442 19.341797 14.302734 z M 19.458984 14.421875 L 19.527344 14.421875 C 19.52949 14.446781 19.53346 14.471069 19.535156 14.496094 C 19.524477 14.486938 19.513236 14.479168 19.501953 14.470703 C 19.487602 14.454211 19.474987 14.43685 19.458984 14.421875 z M 19.574219 14.541016 L 19.646484 14.541016 C 19.648805 14.567939 19.654456 14.594033 19.65625 14.621094 C 19.63622 14.601473 19.618216 14.581393 19.595703 14.564453 C 19.588643 14.556372 19.581684 14.54874 19.574219 14.541016 z M 19.693359 14.660156 L 19.763672 14.660156 C 19.76598 14.687083 19.771657 14.71317 19.773438 14.740234 C 19.747523 14.711893 19.724067 14.683585 19.693359 14.660156 z M 19.818359 14.777344 L 19.880859 14.777344 C 19.882994 14.802253 19.886988 14.826536 19.888672 14.851562 C 19.884313 14.848063 19.879452 14.845187 19.875 14.841797 C 19.856068 14.820154 19.840081 14.796334 19.818359 14.777344 z M 19.931641 14.894531 L 19.998047 14.894531 C 20.000069 14.918133 20.004241 14.941136 20.005859 14.964844 C 19.992897 14.953231 19.978736 14.944165 19.964844 14.933594 C 19.953552 14.920707 19.943943 14.906498 19.931641 14.894531 z M 20.044922 15.011719 L 20.113281 15.011719 C 20.115355 15.03605 20.121404 15.059541 20.123047 15.083984 C 20.100696 15.061335 20.078281 15.040721 20.052734 15.021484 C 20.04995 15.018348 20.047768 15.014802 20.044922 15.011719 z M 20.169922 15.126953 L 20.226562 15.126953 C 20.228692 15.152048 20.234656 15.175958 20.236328 15.201172 C 20.235177 15.200287 20.233579 15.200096 20.232422 15.199219 C 20.211032 15.175175 20.194729 15.147647 20.169922 15.126953 z M 20.283203 15.240234 L 20.341797 15.240234 C 20.343643 15.261898 20.348104 15.282934 20.349609 15.304688 C 20.342722 15.298873 20.333304 15.296551 20.326172 15.291016 C 20.311527 15.274231 20.299528 15.255458 20.283203 15.240234 z M 20.392578 15.355469 L 20.455078 15.355469 C 20.456914 15.377132 20.461396 15.398169 20.462891 15.419922 C 20.444875 15.402724 20.426182 15.388145 20.40625 15.373047 C 20.401245 15.367482 20.397776 15.360861 20.392578 15.355469 z M 20.507812 15.46875 L 20.568359 15.46875 C 20.570349 15.492372 20.574588 15.515335 20.576172 15.539062 C 20.553691 15.514671 20.533834 15.489543 20.507812 15.46875 z M 20.625 15.580078 L 20.679688 15.580078 C 20.681469 15.601097 20.68604 15.621475 20.6875 15.642578 C 20.681649 15.637745 20.673991 15.635494 20.667969 15.630859 C 20.652993 15.614125 20.641651 15.595217 20.625 15.580078 z M 20.734375 15.693359 L 20.791016 15.693359 C 20.792677 15.713178 20.797451 15.73206 20.798828 15.751953 C 20.784724 15.738842 20.769147 15.728659 20.753906 15.716797 C 20.747124 15.709181 20.741511 15.700655 20.734375 15.693359 z M 20.841797 15.802734 L 20.902344 15.802734 C 20.904278 15.825708 20.908605 15.84802 20.910156 15.871094 C 20.887854 15.847262 20.867483 15.823082 20.841797 15.802734 z M 20.960938 15.914062 L 21.011719 15.914062 C 21.01342 15.934376 21.016177 15.954218 21.017578 15.974609 C 21.013543 15.971278 21.008023 15.970034 21.003906 15.966797 C 20.988713 15.949721 20.977857 15.929497 20.960938 15.914062 z M 21.064453 16.023438 L 21.119141 16.023438 C 21.120739 16.04252 21.125619 16.060926 21.126953 16.080078 C 21.1135 16.067631 21.09846 16.058196 21.083984 16.046875 C 21.077167 16.039264 21.071622 16.030728 21.064453 16.023438 z M 21.173828 16.132812 L 21.228516 16.132812 C 21.230267 16.153849 21.234898 16.174193 21.236328 16.195312 C 21.215804 16.173515 21.197186 16.151701 21.173828 16.132812 z M 21.289062 16.240234 L 21.335938 16.240234 C 21.337521 16.259253 21.340476 16.277788 21.341797 16.296875 C 21.336422 16.292349 21.329739 16.289515 21.324219 16.285156 C 21.311368 16.270931 21.303119 16.253312 21.289062 16.240234 z M 21.390625 16.347656 L 21.441406 16.347656 C 21.442773 16.364149 21.446096 16.37994 21.447266 16.396484 C 21.433559 16.383668 21.417119 16.374926 21.402344 16.363281 C 21.397983 16.358451 21.395128 16.352357 21.390625 16.347656 z M 21.5 16.453125 L 21.548828 16.453125 C 21.550578 16.47415 21.555211 16.494516 21.556641 16.515625 C 21.537419 16.494563 21.521816 16.4716 21.5 16.453125 z M 21.607422 16.560547 L 21.652344 16.560547 C 21.653703 16.577044 21.657041 16.592826 21.658203 16.609375 C 21.651101 16.603199 21.642132 16.599629 21.634766 16.59375 C 21.625106 16.583105 21.61776 16.570554 21.607422 16.560547 z M 21.705078 16.664062 L 21.757812 16.664062 C 21.759278 16.681776 21.762434 16.699024 21.763672 16.716797 C 21.746068 16.699309 21.728473 16.683441 21.708984 16.667969 C 21.707756 16.666618 21.706317 16.665403 21.705078 16.664062 z M 21.822266 16.769531 L 21.861328 16.769531 C 21.862793 16.787337 21.867905 16.8044 21.869141 16.822266 C 21.866912 16.820423 21.863582 16.820174 21.861328 16.818359 C 21.847297 16.802845 21.83771 16.783685 21.822266 16.769531 z M 21.919922 16.873047 L 21.964844 16.873047 C 21.966088 16.888173 21.969624 16.9028 21.970703 16.917969 C 21.960731 16.908753 21.948028 16.903142 21.9375 16.894531 C 21.931319 16.887628 21.926387 16.87969 21.919922 16.873047 z M 22.027344 16.976562 L 22.066406 16.976562 C 22.067803 16.993633 22.071081 17.010218 22.072266 17.027344 C 22.05659 17.010668 22.044668 16.991583 22.027344 16.976562 z M 22.126953 17.078125 L 22.167969 17.078125 C 22.169153 17.092606 22.172796 17.106573 22.173828 17.121094 C 22.167071 17.115131 22.157389 17.113116 22.150391 17.107422 C 22.142008 17.098159 22.135844 17.086912 22.126953 17.078125 z M 22.224609 17.179688 L 22.267578 17.179688 C 22.268809 17.194823 22.272373 17.20943 22.273438 17.224609 C 22.257623 17.208635 22.241973 17.194038 22.224609 17.179688 z M 22.332031 17.279297 L 22.367188 17.279297 C 22.36836 17.293711 22.370072 17.307812 22.371094 17.322266 C 22.366822 17.318616 22.361786 17.316045 22.357422 17.3125 C 22.347929 17.302188 22.342154 17.289006 22.332031 17.279297 z M 22.423828 17.378906 L 22.466797 17.378906 C 22.467916 17.392671 22.469721 17.406121 22.470703 17.419922 C 22.456249 17.40582 22.439513 17.391689 22.423828 17.378906 z M 22.535156 17.478516 L 22.564453 17.478516 C 22.565578 17.492415 22.569327 17.505595 22.570312 17.519531 C 22.567674 17.517297 22.563221 17.51782 22.560547 17.515625 C 22.550397 17.50458 22.546024 17.488871 22.535156 17.478516 z M 22.625 17.576172 L 22.662109 17.576172 C 22.662965 17.586735 22.665241 17.596838 22.666016 17.607422 C 22.655152 17.597157 22.640438 17.591574 22.628906 17.582031 C 22.627318 17.580293 22.626606 17.577894 22.625 17.576172 z M 22.730469 17.673828 L 22.759766 17.673828 C 22.760885 17.687672 22.764645 17.700964 22.765625 17.714844 C 22.763423 17.712967 22.760039 17.712787 22.757812 17.710938 C 22.747381 17.69957 22.741655 17.684468 22.730469 17.673828 z M 22.820312 17.771484 L 22.855469 17.771484 C 22.856315 17.782007 22.858609 17.792191 22.859375 17.802734 C 22.848536 17.792382 22.83573 17.785022 22.824219 17.775391 C 22.822992 17.774048 22.82155 17.772817 22.820312 17.771484 z M 22.923828 17.867188 L 22.951172 17.867188 C 22.952174 17.879653 22.954189 17.891802 22.955078 17.904297 C 22.952216 17.901834 22.948216 17.900854 22.945312 17.898438 C 22.936677 17.889126 22.932973 17.876008 22.923828 17.867188 z M 23.011719 17.962891 L 23.046875 17.962891 C 23.047772 17.974058 23.049974 17.984903 23.050781 17.996094 C 23.038436 17.983895 23.024971 17.974133 23.011719 17.962891 z M 23.113281 18.058594 L 23.140625 18.058594 C 23.141466 18.069115 23.143771 18.079301 23.144531 18.089844 C 23.139279 18.085182 23.132349 18.082627 23.126953 18.078125 C 23.121496 18.072285 23.11894 18.064241 23.113281 18.058594 z M 23.208984 18.152344 L 23.234375 18.152344 C 23.235215 18.162911 23.237522 18.173005 23.238281 18.183594 C 23.228175 18.173182 23.219736 18.162104 23.208984 18.152344 z M 23.296875 18.244141 L 23.326172 18.244141 C 23.326857 18.252719 23.329446 18.260939 23.330078 18.269531 C 23.322137 18.262205 23.311018 18.258905 23.302734 18.251953 C 23.300495 18.249563 23.299149 18.246498 23.296875 18.244141 z M 23.398438 18.337891 L 23.417969 18.337891 C 23.418804 18.348413 23.42112 18.358597 23.421875 18.369141 C 23.421875 18.369141 23.419922 18.367188 23.419922 18.367188 C 23.411654 18.358269 23.407168 18.346363 23.398438 18.337891 z M 23.486328 18.429688 L 23.509766 18.429688 C 23.510392 18.437624 23.513091 18.445176 23.513672 18.453125 C 23.505056 18.444604 23.495386 18.43775 23.486328 18.429688 z M 23.576172 18.519531 L 23.599609 18.519531 C 23.600291 18.528114 23.602887 18.536326 23.603516 18.544922 C 23.597968 18.539825 23.589698 18.53812 23.583984 18.533203 C 23.580415 18.529348 23.579829 18.523305 23.576172 18.519531 z M 23.671875 18.611328 L 23.689453 18.611328 C 23.690177 18.620561 23.692697 18.629423 23.693359 18.638672 C 23.692268 18.637718 23.690551 18.637666 23.689453 18.636719 C 23.682368 18.629137 23.679295 18.618586 23.671875 18.611328 z M 23.757812 18.699219 L 23.779297 18.699219 C 23.779974 18.707798 23.78258 18.716016 23.783203 18.724609 C 23.774707 18.71597 23.766753 18.707407 23.757812 18.699219 z M 23.84375 18.789062 L 23.867188 18.789062 C 23.8676 18.794324 23.868748 18.799421 23.869141 18.804688 C 23.861919 18.797834 23.851263 18.795605 23.84375 18.789062 z M 23.935547 18.876953 L 23.953125 18.876953 C 23.953639 18.88354 23.954596 18.88989 23.955078 18.896484 C 23.951634 18.893326 23.946868 18.891762 23.943359 18.888672 C 23.940164 18.885232 23.938811 18.880328 23.935547 18.876953 z M 24.023438 18.962891 L 24.041016 18.962891 C 24.04158 18.970093 24.042442 18.977162 24.042969 18.984375 C 24.040549 18.982212 24.037606 18.980646 24.035156 18.978516 C 24.03069 18.973794 24.028034 18.967487 24.023438 18.962891 z M 24.113281 19.050781 L 24.126953 19.050781 C 24.127521 19.058075 24.13033 19.064962 24.130859 19.072266 C 24.130859 19.072266 24.128906 19.072266 24.128906 19.072266 C 24.122822 19.065814 24.119608 19.056998 24.113281 19.050781 z M 24.203125 19.136719 L 24.210938 19.136719 C 24.211295 19.141333 24.212549 19.145772 24.212891 19.150391 C 24.208951 19.146368 24.207161 19.140646 24.203125 19.136719 z M 24.283203 19.220703 L 24.294922 19.220703 C 24.29533 19.225967 24.296487 19.231059 24.296875 19.236328 C 24.291912 19.231288 24.288317 19.225592 24.283203 19.220703 z M 24.369141 19.304688 L 24.378906 19.304688 C 24.379213 19.308653 24.380564 19.312437 24.380859 19.316406 C 24.37689 19.312416 24.373205 19.308582 24.369141 19.304688 z M 24.455078 19.388672 L 24.462891 19.388672 C 24.463298 19.393932 24.464456 19.399032 24.464844 19.404297 C 24.460585 19.3999 24.459451 19.392956 24.455078 19.388672 z M 24.539062 19.472656 L 24.544922 19.472656 C 24.545172 19.475912 24.544679 19.479164 24.544922 19.482422 C 24.542276 19.479684 24.541752 19.475351 24.539062 19.472656 z M 24.617188 19.554688 L 24.625 19.554688 C 24.625254 19.558012 24.626707 19.561127 24.626953 19.564453 C 24.625227 19.562864 24.622836 19.562119 24.621094 19.560547 C 24.619466 19.558846 24.618833 19.556372 24.617188 19.554688 z M 24.697266 19.634766 L 24.705078 19.634766 C 24.705228 19.636717 24.704931 19.638673 24.705078 19.640625 C 24.702716 19.638385 24.699659 19.636973 24.697266 19.634766 z M 24.783203 19.714844 L 24.785156 19.714844 C 24.785255 19.716132 24.785059 19.717461 24.785156 19.71875 C 24.78413 19.717731 24.784236 19.715857 24.783203 19.714844 z M 24.859375 19.794922 L 24.865234 19.794922 C 24.865384 19.796874 24.865088 19.798828 24.865234 19.800781 C 24.864177 19.799789 24.862392 19.799814 24.861328 19.798828 C 24.860334 19.797784 24.860375 19.79596 24.859375 19.794922 z M 25.539062 20.480469 L 25.544922 20.480469 C 25.545275 20.485212 25.548491 20.489394 25.548828 20.494141 C 25.545228 20.489806 25.542762 20.484716 25.539062 20.480469 z M 25.609375 20.552734 L 25.617188 20.552734 C 25.617388 20.555421 25.618946 20.557859 25.619141 20.560547 C 25.616054 20.557733 25.612473 20.555535 25.609375 20.552734 z M 25.683594 20.625 L 25.6875 20.625 C 25.687595 20.626287 25.687406 20.627618 25.6875 20.628906 C 25.686152 20.627653 25.684944 20.626251 25.683594 20.625 z M 27.511719 22.478516 L 27.519531 22.478516 C 27.519899 22.483902 27.523091 22.488749 27.523438 22.494141 C 27.522387 22.492672 27.520584 22.491701 27.519531 22.490234 C 27.516799 22.486417 27.514468 22.482321 27.511719 22.478516 z M 27.544922 22.525391 L 27.566406 22.525391 C 27.567354 22.539281 27.571457 22.552481 27.572266 22.566406 C 27.563387 22.553223 27.553997 22.540382 27.544922 22.527344 C 27.544922 22.527344 27.544922 22.525391 27.544922 22.525391 z "
       id="path5255"
       style="fill-opacity:1;fill:url(#linearGradient6103);opacity:0.2"
       clip-path="url(#clipPath6108)" />
    <path
       style="fill:none"
       inkscape:connector-curvature="0"
       id="path4"
       d="m 3.9999777,4.0333382 12.0000003,0 0,11.9333328 -12.0000003,0 z" />
    <path
       d="m 18.999978,19.033339 12,0 0,11.933333 -12,0 z"
       id="path9754"
       inkscape:connector-curvature="0"
       style="fill:none" />
    <path
       style="fill:#ff5722;fill-rule:evenodd;stroke:none;stroke-width:1px;stroke-linecap:butt;stroke-linejoin:miter;stroke-opacity:1"
       d="m 7.2604714,12.865798 5.4927046,0 L 12.626907,8.762053 11.364216,7.0574206 10.227794,6.5523443 9.1545074,6.7417479 8.2706239,7.3730933 7.7024131,8.1938422 7.449875,9.3933984 Z"
       id="path6112"
       inkscape:connector-curvature="0" />
    <path
       inkscape:connector-curvature="0"
       d="m 12.153054,12.384363 0,-3.0996658 c 0,-1.1921793 -0.953744,-2.1459228 -2.145923,-2.1459228 -1.1921793,0 -2.1459233,0.9537435 -2.1459233,2.1459228 l 0,3.0996658 4.2918463,0 m 0.953743,-0.476871 0.953744,0.953743 0,0.476872 -8.1068203,0 0,-0.476872 0.953744,-0.953743 0,-2.6227948 c 0,-1.4639962 1.015737,-2.6895566 2.384358,-3.0138293 l 0,-0.3242728 a 0.71530758,0.71530758 0 0 1 0.7153083,-0.7153075 0.71530758,0.71530758 0 0 1 0.715308,0.7153075 l 0,0.3242728 c 1.363853,0.3242727 2.384358,1.5498331 2.384358,3.0138293 l 0,2.6227948 m -3.099666,2.86123 A 0.95374344,0.95374344 0 0 1 9.0533877,13.814978 l 1.9074873,0 a 0.95374344,0.95374344 0 0 1 -0.953744,0.953744 M 14.046235,9.0462613 C 13.974704,7.7825512 13.326158,6.6619027 12.35334,5.9847448 l 0.681927,-0.6819265 c 1.139723,0.8679065 1.89318,2.2126848 1.964711,3.743443 l -0.953743,0 M 7.6609217,5.9847448 c -0.972818,0.6771579 -1.621364,1.7978064 -1.707201,3.0615165 l -0.953743,0 c 0.08584,-1.5307582 0.839294,-2.8755365 1.979018,-3.743443 l 0.681926,0.6819265 z"
       id="path5200"
       style="fill:#3f51b5" />
  </g>
</svg>
