<?xml version="1.0" encoding="UTF-8" standalone="no"?>
<!-- Created with Inkscape (http://www.inkscape.org/) -->

<svg
   xmlns:dc="http://purl.org/dc/elements/1.1/"
   xmlns:cc="http://creativecommons.org/ns#"
   xmlns:rdf="http://www.w3.org/1999/02/22-rdf-syntax-ns#"
   xmlns:svg="http://www.w3.org/2000/svg"
   xmlns="http://www.w3.org/2000/svg"
   xmlns:xlink="http://www.w3.org/1999/xlink"
   xmlns:sodipodi="http://sodipodi.sourceforge.net/DTD/sodipodi-0.dtd"
   xmlns:inkscape="http://www.inkscape.org/namespaces/inkscape"
   width="5.6444445mm"
   height="5.6444445mm"
   viewBox="0 0 20 20"
   id="svg2"
   version="1.1"
   inkscape:version="0.91 r13725"
   sodipodi:docname="Piano.svg"
   inkscape:export-filename="/home/juergen/Projekte/Android/Android_Studio/Baumann_Theme/theme/src/main/assets/icons/res/drawable-xxhdpi/a129.png"
   inkscape:export-xdpi="648"
   inkscape:export-ydpi="648">
  <sodipodi:namedview
     id="base"
     pagecolor="#ffffff"
     bordercolor="#666666"
     borderopacity="1.0"
     inkscape:pageopacity="0.0"
     inkscape:pageshadow="2"
     inkscape:zoom="22.627417"
     inkscape:cx="5.5034164"
     inkscape:cy="11.958398"
     inkscape:document-units="px"
     inkscape:current-layer="layer2"
     showgrid="false"
     fit-margin-top="0"
     fit-margin-left="0"
     fit-margin-right="0"
     fit-margin-bottom="0"
     showguides="true"
     inkscape:guide-bbox="true"
     inkscape:window-width="1366"
     inkscape:window-height="744"
     inkscape:window-x="0"
     inkscape:window-y="24"
     inkscape:window-maximized="1"
     inkscape:snap-grids="false"
     inkscape:snap-to-guides="false">
    <inkscape:grid
       id="grid4138"
       type="xygrid" />
    <sodipodi:guide
       id="guide4140"
       orientation="0,1"
       position="10,18" />
    <sodipodi:guide
       id="guide4142"
       orientation="0,1"
       position="10,2" />
    <sodipodi:guide
       id="guide4144"
       orientation="1,0"
       position="2,10" />
    <sodipodi:guide
       id="guide4146"
       orientation="0,20"
       position="0,0" />
    <sodipodi:guide
       id="guide4148"
       orientation="-20,0"
       position="20,0" />
    <sodipodi:guide
       id="guide4150"
       orientation="0,-20"
       position="20,20" />
    <sodipodi:guide
       id="guide4152"
       orientation="20,0"
       position="0,20" />
    <sodipodi:guide
       id="guide4154"
       orientation="1,0"
       position="18,10" />
    <sodipodi:guide
       id="guide4156"
       orientation="-0.70710678,0.70710678"
       position="10,10" />
    <sodipodi:guide
       id="guide4160"
       orientation="1,0"
       position="4,10" />
    <sodipodi:guide
       id="guide4162"
       orientation="1,0"
       position="16,10" />
    <sodipodi:guide
       id="guide4164"
       orientation="0,1"
       position="10,16" />
    <sodipodi:guide
       id="guide4166"
       orientation="0,1"
       position="10,4" />
    <sodipodi:guide
       id="guide4168"
       orientation="0,1"
       position="10,15" />
    <sodipodi:guide
       id="guide4170"
       orientation="0,1"
       position="10,5" />
    <sodipodi:guide
       id="guide4172"
       orientation="1,0"
       position="5,10" />
    <sodipodi:guide
       id="guide4174"
       orientation="1,0"
       position="15,10" />
  </sodipodi:namedview>
  <defs
     id="defs4">
    <linearGradient
       inkscape:collect="always"
       id="linearGradient5327">
      <stop
         style="stop-color:#000000;stop-opacity:0.2"
         offset="0"
         id="stop5329" />
      <stop
         style="stop-color:#000000;stop-opacity:0;"
         offset="1"
         id="stop5331" />
    </linearGradient>
    <clipPath
       clipPathUnits="userSpaceOnUse"
       id="clipPath12478">
      <circle
         style="opacity:1;fill:#2196f3;fill-opacity:1;stroke:none;stroke-width:0.05069799;stroke-miterlimit:4;stroke-dasharray:none;stroke-opacity:1"
         id="circle12480"
         cx="9.9999781"
         cy="10.000005"
         r="10" />
    </clipPath>
    <clipPath
       id="clipPath5790"
       clipPathUnits="userSpaceOnUse">
      <circle
         inkscape:export-ydpi="648"
         inkscape:export-xdpi="648"
         inkscape:export-filename="/home/juergen/path4136.png"
         style="opacity:1;fill:#2196f3;fill-opacity:1;stroke:none;stroke-width:0.05069799;stroke-miterlimit:4;stroke-dasharray:none;stroke-opacity:1"
         id="circle5792"
         cx="9.9999781"
         cy="10.000005"
         r="10" />
    </clipPath>
    <clipPath
       clipPathUnits="userSpaceOnUse"
       id="clipPath5055">
      <circle
         inkscape:export-ydpi="648"
         inkscape:export-xdpi="648"
         inkscape:export-filename="/home/juergen/path4136.png"
         style="opacity:1;fill:#2196f3;fill-opacity:1;stroke:none;stroke-width:0.05069799;stroke-miterlimit:4;stroke-dasharray:none;stroke-opacity:1"
         id="circle5057"
         cx="9.9999781"
         cy="10.000005"
         r="10" />
    </clipPath>
    <clipPath
       id="clipPath5119"
       clipPathUnits="userSpaceOnUse">
      <circle
         inkscape:export-ydpi="648"
         inkscape:export-xdpi="648"
         inkscape:export-filename="/home/juergen/Schreibtisch/path4136.png"
         style="opacity:1;fill:#2196f3;fill-opacity:1;stroke:none;stroke-width:0.05069799;stroke-miterlimit:4;stroke-dasharray:none;stroke-opacity:1"
         id="circle5121"
         cx="9.9999781"
         cy="10.000005"
         r="10" />
    </clipPath>
    <clipPath
       clipPathUnits="userSpaceOnUse"
       id="clipPath5194">
      <circle
         inkscape:export-ydpi="648"
         inkscape:export-xdpi="648"
         inkscape:export-filename="/home/juergen/Schreibtisch/path4136.png"
         style="opacity:1;fill:#cddc39;fill-opacity:1;stroke:none;stroke-width:0.05069799;stroke-miterlimit:4;stroke-dasharray:none;stroke-opacity:1"
         id="circle5196"
         cx="9.9999781"
         cy="10.000005"
         r="10" />
    </clipPath>
    <clipPath
       id="clipPath6175"
       clipPathUnits="userSpaceOnUse">
      <circle
         inkscape:export-ydpi="648"
         inkscape:export-xdpi="648"
         inkscape:export-filename="/home/juergen/Schreibtisch/path4136.png"
         style="opacity:1;fill:#f44336;fill-opacity:1;stroke:none;stroke-width:0.05069799;stroke-miterlimit:4;stroke-dasharray:none;stroke-opacity:1"
         id="circle6177"
         cx="9.9999781"
         cy="10.000005"
         r="10" />
    </clipPath>
    <clipPath
       clipPathUnits="userSpaceOnUse"
       id="clipPath7176">
      <circle
         inkscape:export-ydpi="648"
         inkscape:export-xdpi="648"
         inkscape:export-filename="/home/juergen/Schreibtisch/path4136.png"
         style="opacity:1;fill:#9c27b0;fill-opacity:1;stroke:none;stroke-width:0.05069799;stroke-miterlimit:4;stroke-dasharray:none;stroke-opacity:1"
         id="circle7178"
         cx="9.9999781"
         cy="10.000005"
         r="10" />
    </clipPath>
    <clipPath
       id="clipPath8165"
       clipPathUnits="userSpaceOnUse">
      <circle
         inkscape:export-ydpi="648"
         inkscape:export-xdpi="648"
         inkscape:export-filename="/home/juergen/Schreibtisch/path4136.png"
         style="opacity:1;fill:#ffc107;fill-opacity:1;stroke:none;stroke-width:0.05069799;stroke-miterlimit:4;stroke-dasharray:none;stroke-opacity:1"
         id="circle8167"
         cx="9.9999781"
         cy="10.000005"
         r="10" />
    </clipPath>
    <clipPath
       clipPathUnits="userSpaceOnUse"
       id="clipPath9162">
      <circle
         inkscape:export-ydpi="648"
         inkscape:export-xdpi="648"
         inkscape:export-filename="/home/juergen/Schreibtisch/path4136.png"
         style="opacity:1;fill:#ff9800;fill-opacity:1;stroke:none;stroke-width:0.05069799;stroke-miterlimit:4;stroke-dasharray:none;stroke-opacity:1"
         id="circle9164"
         cx="9.9999781"
         cy="10.000005"
         r="10" />
    </clipPath>
    <clipPath
       id="clipPath10753"
       clipPathUnits="userSpaceOnUse">
      <circle
         inkscape:export-ydpi="648"
         inkscape:export-xdpi="648"
         inkscape:export-filename="/home/juergen/Schreibtisch/path4136.png"
         style="opacity:1;fill:#607d8b;fill-opacity:1;stroke:none;stroke-width:0.05069799;stroke-miterlimit:4;stroke-dasharray:none;stroke-opacity:1"
         id="circle10755"
         cx="9.9999781"
         cy="10.000005"
         r="10" />
    </clipPath>
    <clipPath
       clipPathUnits="userSpaceOnUse"
       id="clipPath5153">
      <circle
         inkscape:export-ydpi="648"
         inkscape:export-xdpi="648"
         inkscape:export-filename="/home/juergen/Schreibtisch/path4136.png"
         style="opacity:1;fill:#2196f3;fill-opacity:1;stroke:none;stroke-width:0.05069799;stroke-miterlimit:4;stroke-dasharray:none;stroke-opacity:1"
         id="circle5155"
         cx="9.9999781"
         cy="10.000005"
         r="10" />
    </clipPath>
    <clipPath
       id="clipPath6158"
       clipPathUnits="userSpaceOnUse">
      <circle
         r="10"
         cy="10.000005"
         cx="9.9999781"
         id="circle6160"
         style="opacity:1;fill:#ff9800;fill-opacity:1;stroke:none;stroke-width:0.05069799;stroke-miterlimit:4;stroke-dasharray:none;stroke-opacity:1"
         inkscape:export-filename="/home/juergen/Schreibtisch/path4136.png"
         inkscape:export-xdpi="648"
         inkscape:export-ydpi="648" />
    </clipPath>
    <linearGradient
       inkscape:collect="always"
       xlink:href="#linearGradient5327"
       id="linearGradient5333"
       x1="10"
       y1="10"
       x2="20"
       y2="20"
       gradientUnits="userSpaceOnUse" />
    <clipPath
       clipPathUnits="userSpaceOnUse"
       id="clipPath5338">
      <circle
         r="10"
         cy="10.000005"
         cx="9.9999781"
         id="circle5340"
         style="opacity:1;fill:#ff9800;fill-opacity:1;stroke:none;stroke-width:0.05069799;stroke-miterlimit:4;stroke-dasharray:none;stroke-opacity:1"
         inkscape:export-filename="/home/juergen/Schreibtisch/path4136.png"
         inkscape:export-xdpi="648"
         inkscape:export-ydpi="648" />
    </clipPath>
  </defs>
  <metadata
     id="metadata7">
    <rdf:RDF>
      <cc:Work
         rdf:about="">
        <dc:format>image/svg+xml</dc:format>
        <dc:type
           rdf:resource="http://purl.org/dc/dcmitype/StillImage" />
        <dc:title></dc:title>
      </cc:Work>
    </rdf:RDF>
  </metadata>
  <g
     transform="translate(1058.1428,-861.93365)"
     id="layer1"
     inkscape:groupmode="layer"
     inkscape:label="Hintergrund">
    <circle
       r="10"
       cy="871.93365"
       cx="-1048.1428"
       id="path4136"
       style="opacity:1;fill:#ff9800;fill-opacity:1;stroke:none;stroke-width:0.05069799;stroke-miterlimit:4;stroke-dasharray:none;stroke-opacity:1"
       inkscape:export-filename="/home/juergen/Schreibtisch/path4136.png"
       inkscape:export-xdpi="648"
       inkscape:export-ydpi="648" />
    <circle
       inkscape:export-ydpi="648"
       inkscape:export-xdpi="648"
       inkscape:export-filename="/home/juergen/Schreibtisch/path4136.png"
       style="opacity:1;fill:#2196f3;fill-opacity:1;stroke:none;stroke-width:0.05069799;stroke-miterlimit:4;stroke-dasharray:none;stroke-opacity:1"
       id="circle6153"
       cx="-1048.1428"
       cy="871.93365"
       r="10" />
  </g>
  <g
     inkscape:label="Icon"
     id="layer2"
     inkscape:groupmode="layer"
     style="display:inline">
    <path
       style="fill:none"
       inkscape:connector-curvature="0"
       id="path4"
       d="m 3.9999777,4.0333382 12.0000003,0 0,11.9333328 -12.0000003,0 z" />
    <path
       d="m 18.999978,19.033339 12,0 0,11.933333 -12,0 z"
       id="path9754"
       inkscape:connector-curvature="0"
       style="fill:none" />
    <path
       d="M 5.2285156 5 C 5.1030611 5 5 5.1030611 5 5.2285156 L 5 14.773438 C 5 14.836165 5.0252699 14.892457 5.0664062 14.933594 C 5.0669963 14.934197 5.0677627 14.93495 5.0683594 14.935547 C 5.0687885 14.935967 5.0698801 14.935131 5.0703125 14.935547 C 5.0703125 14.935547 5.0703125 14.9375 5.0703125 14.9375 C 5.0703125 14.9375 5.0722656 14.9375 5.0722656 14.9375 C 5.0722656 14.9375 5.0722656 14.939453 5.0722656 14.939453 C 5.0722656 14.939453 5.0742188 14.941406 5.0742188 14.941406 C 5.0742188 14.941406 5.0761719 14.943359 5.0761719 14.943359 C 5.0761719 14.943359 5.078125 14.945312 5.078125 14.945312 C 5.078125 14.945312 5.0800781 14.947266 5.0800781 14.947266 C 5.0800781 14.947266 5.0820312 14.949219 5.0820312 14.949219 C 5.0820312 14.949219 5.0839844 14.951172 5.0839844 14.951172 C 5.085007 14.952195 5.0868487 14.952122 5.0878906 14.953125 C 5.0899072 14.95522 5.091655 14.956967 5.09375 14.958984 C 5.0961828 14.961512 5.099016 14.96243 5.1015625 14.964844 C 5.1044058 14.967845 5.1063733 14.969813 5.109375 14.972656 C 5.1122183 14.975658 5.1141858 14.977625 5.1171875 14.980469 C 5.1204294 14.983891 5.123506 14.985065 5.1269531 14.988281 C 5.1305984 14.992191 5.1328087 14.994402 5.1367188 14.998047 C 5.140514 15.002118 5.1424024 15.005982 5.1464844 15.009766 C 5.1504386 15.014032 5.1539354 15.017532 5.1582031 15.021484 C 5.1621574 15.02575 5.1656542 15.029251 5.1699219 15.033203 C 5.1743069 15.037938 5.1788241 15.040574 5.1835938 15.044922 C 5.1879679 15.049645 5.1925088 15.052303 5.1972656 15.056641 C 5.2023596 15.062313 5.2053035 15.06713 5.2109375 15.072266 C 5.2161009 15.07793 5.2208567 15.080819 5.2265625 15.085938 C 5.2320611 15.09206 5.2360618 15.096067 5.2421875 15.101562 C 5.2482825 15.108357 5.2529025 15.113122 5.2597656 15.119141 C 5.2650873 15.124979 5.2694935 15.129508 5.2753906 15.134766 C 5.2810512 15.141115 5.2866373 15.144711 5.2929688 15.150391 C 5.2998579 15.158361 5.3045803 15.164929 5.3125 15.171875 C 5.3187164 15.178848 5.3250093 15.183291 5.3320312 15.189453 C 5.3386011 15.196944 5.3440732 15.202412 5.3515625 15.208984 C 5.3588787 15.217461 5.3645698 15.223153 5.3730469 15.230469 C 5.3803631 15.238946 5.3860542 15.244637 5.3945312 15.251953 C 5.4024073 15.261079 5.4087536 15.267616 5.4179688 15.275391 C 5.4258143 15.284467 5.4322346 15.291091 5.4414062 15.298828 C 5.4488557 15.307447 5.4542417 15.314851 5.4628906 15.322266 C 5.4709004 15.331608 5.4788741 15.337767 5.4882812 15.345703 C 5.4965732 15.355514 5.5038531 15.36281 5.5136719 15.371094 C 5.5219987 15.380964 5.5291923 15.388158 5.5390625 15.396484 C 5.5477332 15.406762 5.5560669 15.413275 5.5664062 15.421875 C 5.5757668 15.433151 5.5843611 15.439935 5.5957031 15.449219 C 5.6043232 15.459594 5.610785 15.467866 5.6210938 15.476562 C 5.6309178 15.488672 5.640268 15.495996 5.6523438 15.505859 C 5.6625347 15.518336 5.6710121 15.527043 5.6835938 15.537109 C 5.6925965 15.547954 5.7000963 15.555446 5.7109375 15.564453 C 5.7215245 15.577717 5.7308895 15.587054 5.7441406 15.597656 C 5.7539494 15.609736 5.7633397 15.61711 5.7753906 15.626953 C 5.7863023 15.640849 5.7947876 15.651089 5.8085938 15.662109 C 5.8192356 15.675442 5.8284644 15.684671 5.8417969 15.695312 C 5.8527587 15.709046 5.8631444 15.717645 5.8769531 15.728516 C 5.8882391 15.742888 5.8977368 15.752386 5.9121094 15.763672 C 5.9233954 15.778044 5.9328931 15.787542 5.9472656 15.798828 C 5.958494 15.813127 5.9681368 15.822739 5.9824219 15.833984 C 5.9945294 15.849766 6.00572 15.860918 6.0214844 15.873047 C 6.0328623 15.887621 6.044053 15.896785 6.0585938 15.908203 C 6.0710053 15.924651 6.0813115 15.936679 6.0976562 15.949219 C 6.1098268 15.965082 6.1208551 15.976111 6.1367188 15.988281 C 6.1491922 16.00454 6.1613922 16.014975 6.1777344 16.027344 C 6.1905112 16.044275 6.2018185 16.055583 6.21875 16.068359 C 6.2318922 16.085775 6.2441952 16.096369 6.2617188 16.109375 C 6.2751945 16.127475 6.2865205 16.140906 6.3046875 16.154297 C 6.3172101 16.1706 6.3292899 16.180974 6.3457031 16.193359 C 6.3593313 16.212097 6.3720252 16.224477 6.390625 16.238281 C 6.4040711 16.256398 6.4154527 16.269788 6.4335938 16.283203 C 6.4474872 16.302053 6.4615281 16.314349 6.4804688 16.328125 C 6.4946019 16.347556 6.5078884 16.360898 6.5273438 16.375 C 6.5412942 16.393902 6.5551929 16.406131 6.5742188 16.419922 C 6.5885511 16.439959 6.6011513 16.454295 6.6210938 16.46875 C 6.6355488 16.488692 6.6498853 16.501293 6.6699219 16.515625 C 6.6846484 16.536287 6.698088 16.549727 6.71875 16.564453 C 6.7335443 16.58521 6.7467973 16.600471 6.7675781 16.615234 C 6.7825285 16.636358 6.7972357 16.651065 6.8183594 16.666016 C 6.8336604 16.687635 6.8493474 16.701665 6.8710938 16.716797 C 6.8858821 16.73766 6.9010518 16.750784 6.921875 16.765625 C 6.9377833 16.788881 6.9533381 16.804361 6.9765625 16.820312 C 6.9920243 16.842496 7.0071005 16.857602 7.0292969 16.873047 C 7.0452873 16.896423 7.060608 16.911744 7.0839844 16.927734 C 7.0999748 16.951111 7.1152955 16.966431 7.1386719 16.982422 C 7.1545802 17.005678 7.170135 17.021158 7.1933594 17.037109 C 7.209568 17.06139 7.2259145 17.077275 7.25 17.09375 C 7.2670232 17.119251 7.2849029 17.13552 7.3105469 17.152344 C 7.3266461 17.175879 7.3416559 17.192943 7.3652344 17.208984 C 7.3821682 17.234351 7.4003096 17.25079 7.4257812 17.267578 C 7.4425694 17.29305 7.4590083 17.311191 7.484375 17.328125 C 7.5013088 17.353492 7.5194503 17.369931 7.5449219 17.386719 C 7.5623212 17.41324 7.5807936 17.430017 7.6074219 17.447266 C 7.6245408 17.47336 7.6418915 17.49067 7.6679688 17.507812 C 7.6856239 17.535199 7.7030619 17.554639 7.7304688 17.572266 C 7.7476654 17.59862 7.7666598 17.615552 7.7929688 17.632812 C 7.8108699 17.661285 7.8291037 17.681096 7.8574219 17.699219 C 7.875185 17.726838 7.8942135 17.745969 7.921875 17.763672 C 7.9399976 17.79199 7.959809 17.810224 7.9882812 17.828125 C 8.0064774 17.856917 8.0258499 17.8764 8.0546875 17.894531 C 8.0728836 17.923324 8.0922562 17.942807 8.1210938 17.960938 C 8.1395455 17.990286 8.1599945 18.009053 8.1894531 18.027344 C 8.2080908 18.057522 8.2276342 18.077066 8.2578125 18.095703 C 8.2769024 18.126614 8.296983 18.147268 8.328125 18.166016 C 8.347191 18.196722 8.3674516 18.217675 8.3984375 18.236328 C 8.4171826 18.266518 8.4364922 18.288064 8.4667969 18.306641 C 8.4859186 18.337834 8.5077043 18.358075 8.5390625 18.376953 C 8.5582331 18.408616 8.5796133 18.430126 8.6113281 18.449219 C 8.6304987 18.480881 8.6518789 18.502392 8.6835938 18.521484 C 8.7030994 18.553886 8.7252426 18.574498 8.7578125 18.59375 C 8.7773746 18.626844 8.7989371 18.648407 8.8320312 18.667969 C 8.8518 18.701412 8.8746449 18.722593 8.9082031 18.742188 C 8.9281047 18.776272 8.9502328 18.798547 8.984375 18.818359 C 9.0042766 18.852444 9.0264046 18.874718 9.0605469 18.894531 C 9.0805885 18.929068 9.1021097 18.952727 9.1367188 18.972656 C 9.156763 19.007244 9.1801962 19.030829 9.2148438 19.050781 C 9.2348995 19.085609 9.2581407 19.10885 9.2929688 19.128906 C 9.3132221 19.164077 9.3377606 19.186957 9.3730469 19.207031 C 9.3936223 19.243436 9.4185569 19.266717 9.4550781 19.287109 C 9.4754133 19.322988 9.4992773 19.346852 9.5351562 19.367188 C 9.5558486 19.404498 9.5798766 19.428526 9.6171875 19.449219 C 9.6381871 19.487084 9.6631143 19.512512 9.7011719 19.533203 C 9.7216369 19.569413 9.7449907 19.594847 9.78125 19.615234 C 9.8022487 19.653398 9.8289076 19.678406 9.8671875 19.699219 C 9.8878806 19.73672 9.9137198 19.760479 9.9511719 19.78125 C 9.9722499 19.821066 9.9974837 19.847752 10.037109 19.869141 C 10.058208 19.908229 10.083958 19.933979 10.123047 19.955078 C 10.144324 19.994497 10.171402 20.019928 10.210938 20.041016 C 10.232301 20.081372 10.258472 20.107543 10.298828 20.128906 C 10.320192 20.169262 10.346363 20.195433 10.386719 20.216797 C 10.407973 20.256945 10.434535 20.283313 10.474609 20.304688 C 10.495813 20.345874 10.523616 20.37275 10.564453 20.394531 C 10.586048 20.436477 10.614383 20.464602 10.65625 20.486328 C 10.677957 20.528492 10.705883 20.556418 10.748047 20.578125 C 10.769754 20.620289 10.79768 20.648215 10.839844 20.669922 C 10.861716 20.712406 10.890993 20.740043 10.933594 20.761719 C 10.955521 20.80517 10.983892 20.833542 11.027344 20.855469 C 11.049546 20.899466 11.078847 20.927362 11.123047 20.949219 C 11.144937 20.992443 11.173573 21.021079 11.216797 21.042969 C 11.238922 21.08771 11.267761 21.118496 11.3125 21.140625 C 11.334629 21.185364 11.365415 21.214203 11.410156 21.236328 C 11.432171 21.280847 11.461426 21.309871 11.505859 21.332031 C 11.528124 21.378387 11.559204 21.409217 11.605469 21.431641 C 11.627627 21.476832 11.65797 21.507076 11.703125 21.529297 C 11.725653 21.576199 11.757669 21.606583 11.804688 21.628906 C 11.827086 21.675361 11.857803 21.706184 11.904297 21.728516 C 11.926833 21.776427 11.957948 21.807542 12.005859 21.830078 C 12.028395 21.87799 12.05951 21.909105 12.107422 21.931641 C 12.1301 21.979856 12.162606 22.010732 12.210938 22.033203 C 12.233774 22.08232 12.26515 22.11617 12.314453 22.138672 C 12.337148 22.186473 12.368033 22.219815 12.416016 22.242188 C 12.43875 22.290946 12.472611 22.323175 12.521484 22.345703 C 12.544207 22.39549 12.577166 22.428449 12.626953 22.451172 C 12.649811 22.501254 12.684178 22.533992 12.734375 22.556641 C 12.757276 22.607396 12.790939 22.641349 12.841797 22.664062 C 12.864698 22.714818 12.898361 22.748771 12.949219 22.771484 C 12.972404 22.823398 13.006369 22.858254 13.058594 22.880859 C 13.081851 22.932406 13.116008 22.967744 13.167969 22.990234 C 13.191122 23.041549 13.225707 23.075098 13.277344 23.097656 C 13.300146 23.149851 13.33463 23.184033 13.386719 23.207031 C 13.409491 23.260841 13.444461 23.297118 13.498047 23.320312 C 13.52112 23.373619 13.557909 23.408779 13.611328 23.431641 C 13.634339 23.486016 13.670234 23.521911 13.724609 23.544922 C 13.747621 23.599297 13.783516 23.635192 13.837891 23.658203 C 13.861021 23.712859 13.898358 23.748568 13.953125 23.771484 C 13.976177 23.827219 14.012624 23.863667 14.068359 23.886719 C 14.091744 23.943258 14.128684 23.981154 14.185547 24.003906 C 14.209036 24.060043 14.24616 24.098457 14.302734 24.121094 C 14.326034 24.176149 14.362641 24.213552 14.417969 24.236328 C 14.44093 24.293011 14.478583 24.332294 14.535156 24.355469 C 14.558562 24.412606 14.598774 24.449915 14.65625 24.472656 C 14.679375 24.53015 14.717846 24.568772 14.775391 24.591797 C 14.798585 24.650418 14.837741 24.689942 14.896484 24.712891 C 14.919679 24.771511 14.958834 24.811035 15.017578 24.833984 C 15.040773 24.892605 15.079928 24.932129 15.138672 24.955078 C 15.161621 25.013822 15.201145 25.052977 15.259766 25.076172 C 15.282884 25.137435 15.32535 25.178269 15.386719 25.201172 C 15.40983 25.260331 15.448608 25.301198 15.507812 25.324219 C 15.530627 25.384676 15.572579 25.423997 15.632812 25.447266 C 15.655659 25.509344 15.697819 25.5511 15.759766 25.574219 C 15.782884 25.636165 15.82464 25.678326 15.886719 25.701172 C 15.909999 25.762863 15.9517 25.805425 16.013672 25.828125 C 16.036791 25.890071 16.078547 25.932232 16.140625 25.955078 C 16.163683 26.017731 16.206775 26.05919 16.269531 26.082031 C 16.292507 26.146079 16.33624 26.188179 16.400391 26.210938 C 16.423149 26.275088 16.465249 26.318821 16.529297 26.341797 C 16.552357 26.406081 16.595671 26.450021 16.660156 26.472656 C 16.682991 26.536601 16.727114 26.578639 16.791016 26.601562 C 16.813431 26.668181 16.857454 26.713385 16.923828 26.736328 C 16.946753 26.801638 16.99119 26.846517 17.056641 26.869141 C 17.079583 26.935515 17.124788 26.979538 17.191406 27.001953 C 17.214215 27.068668 17.259313 27.114223 17.326172 27.136719 C 17.34898 27.203434 17.394079 27.248988 17.460938 27.271484 C 17.483829 27.339519 17.529274 27.386079 17.597656 27.408203 C 17.620548 27.475161 17.665219 27.522565 17.732422 27.544922 C 17.75517 27.613302 17.802467 27.659437 17.871094 27.681641 C 17.893682 27.749083 17.94037 27.795771 18.007812 27.818359 C 18.03028 27.887802 18.0789 27.934776 18.148438 27.957031 C 18.170693 28.026569 18.217667 28.075189 18.287109 28.097656 C 18.309577 28.167099 18.358196 28.214073 18.427734 28.236328 C 18.450019 28.307196 18.499352 28.354881 18.570312 28.376953 C 18.592645 28.448752 18.640832 28.499747 18.712891 28.521484 C 18.735602 28.592448 18.784 28.642503 18.855469 28.664062 C 18.878102 28.734781 18.926926 28.782967 18.998047 28.804688 C 19.019947 28.876397 19.069072 28.925009 19.140625 28.947266 C 19.162205 29.021002 19.213535 29.071794 19.287109 29.09375 C 19.308888 29.166729 19.358751 29.218247 19.431641 29.240234 C 19.453628 29.313124 19.505146 29.362987 19.578125 29.384766 C 19.599754 29.459011 19.652355 29.509532 19.726562 29.53125 C 19.748 29.606816 19.799434 29.65825 19.875 29.679688 C 19.902419 29.774396 19.974619 29.851562 20.078125 29.851562 L 29.623047 29.851562 C 29.748502 29.851562 29.851562 29.748502 29.851562 29.623047 L 29.851562 20.078125 C 29.851562 19.974619 29.774396 19.902419 29.679688 19.875 C 29.65825 19.799434 29.606816 19.748 29.53125 19.726562 C 29.509532 19.652355 29.459011 19.599754 29.384766 19.578125 C 29.362987 19.505146 29.313124 19.453628 29.240234 19.431641 C 29.218247 19.358751 29.166729 19.308888 29.09375 19.287109 C 29.071794 19.213535 29.021002 19.162205 28.947266 19.140625 C 28.925009 19.069072 28.876397 19.019947 28.804688 18.998047 C 28.782967 18.926926 28.734781 18.878102 28.664062 18.855469 C 28.642503 18.784 28.592448 18.735602 28.521484 18.712891 C 28.499747 18.640832 28.448752 18.592645 28.376953 18.570312 C 28.354709 18.499574 28.307106 18.449889 28.236328 18.427734 C 28.214073 18.358196 28.167099 18.309577 28.097656 18.287109 C 28.075189 18.217667 28.026569 18.170693 27.957031 18.148438 C 27.934605 18.079123 27.887715 18.030146 27.818359 18.007812 C 27.795888 17.940263 27.749089 17.895741 27.681641 17.873047 C 27.659798 17.803585 27.61389 17.755365 27.544922 17.732422 C 27.522565 17.665219 27.475161 17.620548 27.408203 17.597656 C 27.386079 17.529274 27.339519 17.483829 27.271484 17.460938 C 27.248988 17.394079 27.203434 17.34898 27.136719 17.326172 C 27.114223 17.259313 27.068668 17.214215 27.001953 17.191406 C 26.979538 17.124788 26.935515 17.079583 26.869141 17.056641 C 26.846517 16.99119 26.801638 16.946753 26.736328 16.923828 C 26.713385 16.857454 26.668181 16.813431 26.601562 16.791016 C 26.578639 16.727114 26.536601 16.682991 26.472656 16.660156 C 26.450021 16.595671 26.406081 16.552357 26.341797 16.529297 C 26.318821 16.465249 26.275088 16.423149 26.210938 16.400391 C 26.188179 16.33624 26.146079 16.292507 26.082031 16.269531 C 26.05919 16.206775 26.017731 16.163683 25.955078 16.140625 C 25.932232 16.078547 25.890071 16.036791 25.828125 16.013672 C 25.805425 15.9517 25.762863 15.909999 25.701172 15.886719 C 25.678326 15.82464 25.636165 15.782884 25.574219 15.759766 C 25.5511 15.697819 25.509344 15.655659 25.447266 15.632812 C 25.423997 15.572579 25.384676 15.530627 25.324219 15.507812 C 25.301198 15.448608 25.260331 15.40983 25.201172 15.386719 C 25.178269 15.32535 25.137435 15.282884 25.076172 15.259766 C 25.052977 15.201145 25.013822 15.161621 24.955078 15.138672 C 24.932129 15.079928 24.892605 15.040773 24.833984 15.017578 C 24.811035 14.958834 24.771511 14.919679 24.712891 14.896484 C 24.689942 14.837741 24.650418 14.798585 24.591797 14.775391 C 24.568675 14.717604 24.53049 14.677326 24.472656 14.654297 C 24.449642 14.598116 24.411601 14.560217 24.355469 14.537109 C 24.332512 14.479736 24.293581 14.441161 24.236328 14.417969 C 24.213552 14.362641 24.176149 14.326034 24.121094 14.302734 C 24.09823 14.245593 24.058881 14.208828 24.001953 14.185547 C 23.979002 14.129424 23.942731 14.091526 23.886719 14.068359 C 23.863667 14.012624 23.827219 13.976177 23.771484 13.953125 C 23.748568 13.898358 23.712859 13.861021 23.658203 13.837891 C 23.635192 13.783516 23.599297 13.747621 23.544922 13.724609 C 23.521911 13.670234 23.486016 13.634339 23.431641 13.611328 C 23.408779 13.557909 23.373619 13.52112 23.320312 13.498047 C 23.297118 13.444461 23.260841 13.409491 23.207031 13.386719 C 23.184033 13.33463 23.149851 13.300146 23.097656 13.277344 C 23.075098 13.225707 23.041549 13.191122 22.990234 13.167969 C 22.967744 13.116008 22.932406 13.081851 22.880859 13.058594 C 22.858254 13.006369 22.823398 12.972404 22.771484 12.949219 C 22.748771 12.898361 22.714818 12.864698 22.664062 12.841797 C 22.641349 12.790939 22.607396 12.757276 22.556641 12.734375 C 22.533992 12.684178 22.501254 12.649811 22.451172 12.626953 C 22.428449 12.577166 22.39549 12.544207 22.345703 12.521484 C 22.323175 12.472611 22.290946 12.43875 22.242188 12.416016 C 22.219815 12.368033 22.186473 12.337148 22.138672 12.314453 C 22.11617 12.26515 22.08232 12.233774 22.033203 12.210938 C 22.010732 12.162606 21.979856 12.1301 21.931641 12.107422 C 21.909105 12.05951 21.87799 12.028395 21.830078 12.005859 C 21.807542 11.957948 21.776427 11.926833 21.728516 11.904297 C 21.706184 11.857803 21.675361 11.827086 21.628906 11.804688 C 21.606583 11.757669 21.576199 11.725653 21.529297 11.703125 C 21.507076 11.65797 21.476832 11.627627 21.431641 11.605469 C 21.409217 11.559204 21.378387 11.528124 21.332031 11.505859 C 21.309757 11.461199 21.281158 11.430185 21.236328 11.408203 C 21.214417 11.364567 21.184211 11.336448 21.140625 11.314453 C 21.118469 11.268739 21.088567 11.237202 21.042969 11.214844 C 21.021262 11.17268 20.993336 11.144754 20.951172 11.123047 C 20.929347 11.078536 20.899693 11.04966 20.855469 11.027344 C 20.833542 10.983892 20.80517 10.955521 20.761719 10.933594 C 20.740043 10.890993 20.712406 10.861716 20.669922 10.839844 C 20.648215 10.79768 20.620289 10.769754 20.578125 10.748047 C 20.556418 10.705883 20.528492 10.677957 20.486328 10.65625 C 20.464602 10.614383 20.436477 10.586048 20.394531 10.564453 C 20.37275 10.523616 20.345874 10.495813 20.304688 10.474609 C 20.283313 10.434535 20.256945 10.407973 20.216797 10.386719 C 20.195433 10.346363 20.169262 10.320192 20.128906 10.298828 C 20.107652 10.25868 20.08109 10.232312 20.041016 10.210938 C 20.019928 10.171402 19.994497 10.144324 19.955078 10.123047 C 19.933979 10.083958 19.908229 10.058208 19.869141 10.037109 C 19.847752 9.9974837 19.821066 9.9722499 19.78125 9.9511719 C 19.760479 9.9137198 19.73672 9.8878806 19.699219 9.8671875 C 19.678406 9.8289076 19.653398 9.8022487 19.615234 9.78125 C 19.594847 9.7449907 19.569413 9.7216369 19.533203 9.7011719 C 19.512512 9.6631143 19.487084 9.6381871 19.449219 9.6171875 C 19.428405 9.579913 19.404604 9.5537909 19.367188 9.5332031 C 19.346828 9.497847 19.322644 9.4751613 19.287109 9.4550781 C 19.266717 9.4185569 19.243436 9.3936223 19.207031 9.3730469 C 19.186957 9.3377606 19.164077 9.3132221 19.128906 9.2929688 C 19.10885 9.2581407 19.085609 9.2348995 19.050781 9.2148438 C 19.030829 9.1801962 19.007244 9.156763 18.972656 9.1367188 C 18.952727 9.1021097 18.929068 9.0805885 18.894531 9.0605469 C 18.874718 9.0264046 18.852444 9.0042766 18.818359 8.984375 C 18.798547 8.9502328 18.776272 8.9281047 18.742188 8.9082031 C 18.722593 8.8746449 18.701412 8.8518 18.667969 8.8320312 C 18.648407 8.7989371 18.626844 8.7773746 18.59375 8.7578125 C 18.574498 8.7252426 18.553886 8.7030994 18.521484 8.6835938 C 18.502081 8.6513618 18.479611 8.6305617 18.447266 8.6113281 C 18.428528 8.5802767 18.407795 8.5600632 18.376953 8.5410156 C 18.357701 8.5084458 18.337089 8.4863026 18.304688 8.4667969 C 18.286344 8.4369395 18.26598 8.4170804 18.236328 8.3984375 C 18.217675 8.3674516 18.196722 8.347191 18.166016 8.328125 C 18.147268 8.296983 18.126614 8.2769024 18.095703 8.2578125 C 18.077066 8.2276342 18.057522 8.2080908 18.027344 8.1894531 C 18.009053 8.1599945 17.990286 8.1395455 17.960938 8.1210938 C 17.942807 8.0922562 17.923324 8.0728836 17.894531 8.0546875 C 17.8764 8.0258499 17.856917 8.0064774 17.828125 7.9882812 C 17.810224 7.959809 17.79199 7.9399976 17.763672 7.921875 C 17.745969 7.8942135 17.726838 7.875185 17.699219 7.8574219 C 17.681096 7.8291037 17.661285 7.8108699 17.632812 7.7929688 C 17.615552 7.7666598 17.59862 7.7476654 17.572266 7.7304688 C 17.554639 7.7030619 17.535199 7.6856239 17.507812 7.6679688 C 17.49067 7.6418915 17.47336 7.6245408 17.447266 7.6074219 C 17.430017 7.5807936 17.41324 7.5623212 17.386719 7.5449219 C 17.369596 7.5189428 17.352189 7.5014438 17.326172 7.484375 C 17.309501 7.4594481 17.29252 7.4424314 17.267578 7.4257812 C 17.25079 7.4003096 17.234351 7.3821682 17.208984 7.3652344 C 17.192943 7.3416559 17.175879 7.3266461 17.152344 7.3105469 C 17.13552 7.2849029 17.119251 7.2670232 17.09375 7.25 C 17.077275 7.2259145 17.06139 7.209568 17.037109 7.1933594 C 17.021158 7.170135 17.005678 7.1545802 16.982422 7.1386719 C 16.966431 7.1152955 16.951111 7.0999748 16.927734 7.0839844 C 16.911744 7.060608 16.896423 7.0452873 16.873047 7.0292969 C 16.857602 7.0071005 16.842496 6.9920243 16.820312 6.9765625 C 16.804361 6.9533381 16.788881 6.9377833 16.765625 6.921875 C 16.750784 6.9010518 16.73766 6.8858821 16.716797 6.8710938 C 16.701665 6.8493474 16.687635 6.8336604 16.666016 6.8183594 C 16.651065 6.7972357 16.636358 6.7825285 16.615234 6.7675781 C 16.600471 6.7467973 16.58521 6.7335443 16.564453 6.71875 C 16.549727 6.698088 16.536287 6.6846484 16.515625 6.6699219 C 16.501293 6.6498853 16.488692 6.6355488 16.46875 6.6210938 C 16.454295 6.6011513 16.439959 6.5885511 16.419922 6.5742188 C 16.406131 6.5551929 16.393902 6.5412942 16.375 6.5273438 C 16.360898 6.5078884 16.347556 6.4946019 16.328125 6.4804688 C 16.314349 6.4615281 16.302053 6.4474872 16.283203 6.4335938 C 16.269788 6.4154527 16.256398 6.4040711 16.238281 6.390625 C 16.224477 6.3720252 16.212097 6.3593313 16.193359 6.3457031 C 16.180974 6.3292899 16.1706 6.3172101 16.154297 6.3046875 C 16.140906 6.2865205 16.127475 6.2751945 16.109375 6.2617188 C 16.096412 6.244307 16.085684 6.2318235 16.068359 6.21875 C 16.055583 6.2018185 16.044275 6.1905112 16.027344 6.1777344 C 16.014975 6.1613922 16.00454 6.1491922 15.988281 6.1367188 C 15.976111 6.1208551 15.965082 6.1098268 15.949219 6.0976562 C 15.936679 6.0813115 15.924651 6.0710053 15.908203 6.0585938 C 15.896785 6.044053 15.887621 6.0328623 15.873047 6.0214844 C 15.860918 6.00572 15.849766 5.9945294 15.833984 5.9824219 C 15.823366 5.9691186 15.814079 5.9598437 15.800781 5.9492188 C 15.789133 5.9340356 15.778719 5.923925 15.763672 5.9121094 C 15.752386 5.8977368 15.742888 5.8882391 15.728516 5.8769531 C 15.717645 5.8631444 15.709046 5.8527587 15.695312 5.8417969 C 15.684671 5.8284644 15.675442 5.8192356 15.662109 5.8085938 C 15.651089 5.7947876 15.640849 5.7863023 15.626953 5.7753906 C 15.61711 5.7633397 15.609736 5.7539494 15.597656 5.7441406 C 15.587054 5.7308895 15.577717 5.7215245 15.564453 5.7109375 C 15.555446 5.7000963 15.547954 5.6925965 15.537109 5.6835938 C 15.527043 5.6710121 15.518336 5.6625347 15.505859 5.6523438 C 15.495996 5.640268 15.488672 5.6309178 15.476562 5.6210938 C 15.467866 5.610785 15.459594 5.6043232 15.449219 5.5957031 C 15.439935 5.5843611 15.433151 5.5757668 15.421875 5.5664062 C 15.413275 5.5560669 15.406762 5.5477332 15.396484 5.5390625 C 15.388201 5.5292438 15.380905 5.5219639 15.371094 5.5136719 C 15.36281 5.5038531 15.355514 5.4965732 15.345703 5.4882812 C 15.337767 5.4788741 15.331608 5.4709004 15.322266 5.4628906 C 15.314851 5.4542417 15.307447 5.4488557 15.298828 5.4414062 C 15.291091 5.4322346 15.284467 5.4258143 15.275391 5.4179688 C 15.267616 5.4087536 15.261079 5.4024073 15.251953 5.3945312 C 15.244674 5.3860973 15.238897 5.3803321 15.230469 5.3730469 C 15.223153 5.3645698 15.217461 5.3588787 15.208984 5.3515625 C 15.202412 5.3440732 15.196944 5.3386011 15.189453 5.3320312 C 15.183434 5.3251682 15.178669 5.3205481 15.171875 5.3144531 C 15.164596 5.3060192 15.158819 5.300254 15.150391 5.2929688 C 15.144711 5.2866373 15.141115 5.2810512 15.134766 5.2753906 C 15.129508 5.2694935 15.124979 5.2650873 15.119141 5.2597656 C 15.113122 5.2529025 15.108357 5.2482825 15.101562 5.2421875 C 15.096067 5.2360618 15.09206 5.2320611 15.085938 5.2265625 C 15.080819 5.2208567 15.07793 5.2161009 15.072266 5.2109375 C 15.06713 5.2053035 15.062313 5.2023596 15.056641 5.1972656 C 15.052303 5.1925088 15.049645 5.1879679 15.044922 5.1835938 C 15.040574 5.1788241 15.037938 5.1743069 15.033203 5.1699219 C 15.029251 5.1656542 15.02575 5.1621574 15.021484 5.1582031 C 15.017532 5.1539354 15.014032 5.1504386 15.009766 5.1464844 C 15.005982 5.1424024 15.002118 5.140514 14.998047 5.1367188 C 14.994402 5.1328087 14.992191 5.1305984 14.988281 5.1269531 C 14.985065 5.123506 14.983891 5.1204294 14.980469 5.1171875 C 14.977625 5.1141858 14.975658 5.1122183 14.972656 5.109375 C 14.969813 5.1063733 14.967845 5.1044058 14.964844 5.1015625 C 14.96243 5.099016 14.961512 5.0961828 14.958984 5.09375 C 14.956967 5.091655 14.95522 5.0899072 14.953125 5.0878906 C 14.952122 5.0868487 14.950241 5.0830539 14.949219 5.0820312 C 14.949219 5.0820312 14.947266 5.0800781 14.947266 5.0800781 C 14.947266 5.0800781 14.945312 5.078125 14.945312 5.078125 C 14.945312 5.078125 14.943359 5.0761719 14.943359 5.0761719 C 14.943359 5.0761719 14.941406 5.0742188 14.941406 5.0742188 C 14.941406 5.0742188 14.939453 5.0722656 14.939453 5.0722656 C 14.939453 5.0722656 14.9375 5.0722656 14.9375 5.0722656 C 14.9375 5.0722656 14.9375 5.0703125 14.9375 5.0703125 C 14.9375 5.0703125 14.935547 5.0703125 14.935547 5.0703125 C 14.935547 5.0703125 14.935547 5.0683594 14.935547 5.0683594 C 14.93495 5.0677627 14.934197 5.0669963 14.933594 5.0664062 C 14.892457 5.0252699 14.836165 5 14.773438 5 L 5.2285156 5 z "
       id="path4458"
       style="fill-opacity:1;fill:url(#linearGradient5333)"
       clip-path="url(#clipPath5338)" />
    <rect
       style="opacity:1;fill:#fafafa;fill-opacity:1;stroke:none;stroke-width:1.25;stroke-linecap:round;stroke-linejoin:round;stroke-miterlimit:4;stroke-dasharray:none;stroke-opacity:1"
       id="rect5344"
       width="9.5459414"
       height="9.5017471"
       x="5.2149124"
       y="5.2391458" />
    <path
       id="path4269"
       d="m 4.9999778,5.2272775 0,9.5454545 c 0,0.125455 0.1018182,0.227273 0.2272727,0.227273 l 9.5454545,0 c 0.125455,0 0.227273,-0.101818 0.227273,-0.227273 l 0,-9.5454545 c 0,-0.1254545 -0.101818,-0.2272727 -0.227273,-0.2272727 l -9.5454545,0 c -0.1254545,0 -0.2272727,0.1018182 -0.2272727,0.2272727 z m 2.7145454,4.7727275 0.5681818,0 0,-4.5454547 0.8080303,0 0,4.5454547 0.5681818,0 0,4.526515 c 0,0.0065 0.00136,0.01258 0.00197,0.01894 l -1.9481818,0 c 6.061e-4,-0.0064 0.00197,-0.01242 0.00197,-0.01894 l -1.515e-4,-4.526515 0,0 z m 4.3434848,0 0,4.545454 -1.946515,0 c 6.06e-4,-0.0064 0.0021,-0.01242 0.0021,-0.01894 l 0,-4.526515 0.568182,0 0,-4.5454547 0.80803,0 0,4.5454547 0.568182,0 z m 2.487424,4.545454 -2.032879,0 0,-4.545454 0.568182,0 0,-4.5454547 1.464697,0 0,9.0909087 z m -9.0909088,-9.0909087 1.2372728,0 0,4.5454547 0.5681818,0 0,4.526515 c 0,0.0065 0.00136,0.01258 0.00197,0.01894 l -1.8074243,0 0,-9.0909087 z"
       inkscape:connector-curvature="0" />
    <g
       transform="matrix(0.15151515,0,0,0.15151515,4.9999778,5.0000048)"
       id="g4271" />
    <g
       transform="matrix(0.15151515,0,0,0.15151515,4.9999778,5.0000048)"
       id="g4273" />
    <g
       transform="matrix(0.15151515,0,0,0.15151515,4.9999778,5.0000048)"
       id="g4275" />
    <g
       transform="matrix(0.15151515,0,0,0.15151515,4.9999778,5.0000048)"
       id="g4277" />
    <g
       transform="matrix(0.15151515,0,0,0.15151515,4.9999778,5.0000048)"
       id="g4279" />
    <g
       transform="matrix(0.15151515,0,0,0.15151515,4.9999778,5.0000048)"
       id="g4281" />
    <g
       transform="matrix(0.15151515,0,0,0.15151515,4.9999778,5.0000048)"
       id="g4283" />
    <g
       transform="matrix(0.15151515,0,0,0.15151515,4.9999778,5.0000048)"
       id="g4285" />
    <g
       transform="matrix(0.15151515,0,0,0.15151515,4.9999778,5.0000048)"
       id="g4287" />
    <g
       transform="matrix(0.15151515,0,0,0.15151515,4.9999778,5.0000048)"
       id="g4289" />
    <g
       transform="matrix(0.15151515,0,0,0.15151515,4.9999778,5.0000048)"
       id="g4291" />
    <g
       transform="matrix(0.15151515,0,0,0.15151515,4.9999778,5.0000048)"
       id="g4293" />
    <g
       transform="matrix(0.15151515,0,0,0.15151515,4.9999778,5.0000048)"
       id="g4295" />
    <g
       transform="matrix(0.15151515,0,0,0.15151515,4.9999778,5.0000048)"
       id="g4297" />
    <g
       transform="matrix(0.15151515,0,0,0.15151515,4.9999778,5.0000048)"
       id="g4299" />
  </g>
</svg>
