<?xml version="1.0" encoding="UTF-8" standalone="no"?>
<!-- Created with Inkscape (http://www.inkscape.org/) -->

<svg
   xmlns:dc="http://purl.org/dc/elements/1.1/"
   xmlns:cc="http://creativecommons.org/ns#"
   xmlns:rdf="http://www.w3.org/1999/02/22-rdf-syntax-ns#"
   xmlns:svg="http://www.w3.org/2000/svg"
   xmlns="http://www.w3.org/2000/svg"
   xmlns:xlink="http://www.w3.org/1999/xlink"
   xmlns:sodipodi="http://sodipodi.sourceforge.net/DTD/sodipodi-0.dtd"
   xmlns:inkscape="http://www.inkscape.org/namespaces/inkscape"
   sodipodi:docname="Playstore.svg"
   inkscape:version="0.92.2 (5c3e80d, 2017-08-06)"
   version="1.1"
   id="svg2"
   viewBox="0 0 21.875 21.875"
   height="23.333334"
   width="23.333334"
   inkscape:export-filename="/home/juergen/Desktop/store.png"
   inkscape:export-xdpi="592.45715"
   inkscape:export-ydpi="592.45715">
  <sodipodi:namedview
     inkscape:snap-to-guides="false"
     inkscape:snap-grids="false"
     inkscape:window-maximized="1"
     inkscape:window-y="33"
     inkscape:window-x="0"
     inkscape:window-height="699"
     inkscape:window-width="1366"
     inkscape:guide-bbox="true"
     showguides="true"
     fit-margin-bottom="1"
     fit-margin-right="1"
     fit-margin-left="1"
     fit-margin-top="1"
     showgrid="true"
     inkscape:current-layer="layer1"
     inkscape:document-units="px"
     inkscape:cy="9.0469489"
     inkscape:cx="3.6400588"
     inkscape:zoom="31.678384"
     inkscape:pageshadow="2"
     inkscape:pageopacity="0.0"
     borderopacity="1.0"
     bordercolor="#666666"
     pagecolor="#ffffff"
     id="base"
     units="px">
    <inkscape:grid
       id="grid4138"
       type="xygrid"
       originx="0.93752224"
       originy="0.93750476" />
    <sodipodi:guide
       id="guide4140"
       orientation="0,1"
       position="10.937522,18.937505"
       inkscape:locked="false" />
    <sodipodi:guide
       id="guide4142"
       orientation="0,1"
       position="10.937522,2.9375048"
       inkscape:locked="false" />
    <sodipodi:guide
       id="guide4144"
       orientation="1,0"
       position="2.9375222,10.937505"
       inkscape:locked="false" />
    <sodipodi:guide
       id="guide4146"
       orientation="0,20"
       position="0.93752224,0.93750476"
       inkscape:locked="false" />
    <sodipodi:guide
       id="guide4148"
       orientation="-20,0"
       position="20.937522,0.93750476"
       inkscape:locked="false" />
    <sodipodi:guide
       id="guide4150"
       orientation="0,-20"
       position="20.937522,20.937505"
       inkscape:locked="false" />
    <sodipodi:guide
       id="guide4152"
       orientation="20,0"
       position="0.93752224,20.937505"
       inkscape:locked="false" />
    <sodipodi:guide
       id="guide4154"
       orientation="1,0"
       position="18.937522,10.937505"
       inkscape:locked="false" />
    <sodipodi:guide
       id="guide4156"
       orientation="-0.70710678,0.70710678"
       position="10.937522,10.937505"
       inkscape:locked="false" />
    <sodipodi:guide
       id="guide4158"
       orientation="0.70710678,0.70710678"
       position="10.937522,10.937505"
       inkscape:locked="false" />
    <sodipodi:guide
       id="guide4160"
       orientation="1,0"
       position="4.9375223,10.937505"
       inkscape:locked="false" />
    <sodipodi:guide
       id="guide4162"
       orientation="1,0"
       position="16.937522,10.937505"
       inkscape:locked="false" />
    <sodipodi:guide
       id="guide4164"
       orientation="0,1"
       position="10.937522,16.937505"
       inkscape:locked="false" />
    <sodipodi:guide
       id="guide4166"
       orientation="0,1"
       position="10.937522,4.9375048"
       inkscape:locked="false" />
    <sodipodi:guide
       id="guide4168"
       orientation="0,1"
       position="10.937522,15.937505"
       inkscape:locked="false" />
    <sodipodi:guide
       id="guide4170"
       orientation="0,1"
       position="10.937522,5.9375048"
       inkscape:locked="false" />
    <sodipodi:guide
       id="guide4172"
       orientation="1,0"
       position="5.9375223,10.937505"
       inkscape:locked="false" />
    <sodipodi:guide
       id="guide4174"
       orientation="1,0"
       position="15.937522,10.937505"
       inkscape:locked="false" />
  </sodipodi:namedview>
  <defs
     id="defs4">
    <linearGradient
       inkscape:collect="always"
       id="linearGradient5122">
      <stop
         style="stop-color:#000000;stop-opacity:0.2"
         offset="0"
         id="stop5124" />
      <stop
         style="stop-color:#000000;stop-opacity:0;"
         offset="1"
         id="stop5126" />
    </linearGradient>
    <clipPath
       clipPathUnits="userSpaceOnUse"
       id="clipPath12478">
      <circle
         style="opacity:1;fill:#2196f3;fill-opacity:1;stroke:none;stroke-width:0.05069799;stroke-miterlimit:4;stroke-dasharray:none;stroke-opacity:1"
         id="circle12480"
         cx="9.9999781"
         cy="10.000005"
         r="10" />
    </clipPath>
    <clipPath
       id="clipPath13251"
       clipPathUnits="userSpaceOnUse">
      <circle
         inkscape:export-ydpi="648"
         inkscape:export-xdpi="648"
         inkscape:export-filename="/home/juergen/path4136.png"
         style="opacity:1;fill:#2196f3;fill-opacity:1;stroke:none;stroke-width:0.05069799;stroke-miterlimit:4;stroke-dasharray:none;stroke-opacity:1"
         id="circle13253"
         cx="9.9999781"
         cy="10.000005"
         r="10" />
    </clipPath>
    <clipPath
       clipPathUnits="userSpaceOnUse"
       id="clipPath5054">
      <circle
         inkscape:export-ydpi="648"
         inkscape:export-xdpi="648"
         inkscape:export-filename="/home/juergen/path4136.png"
         style="opacity:1;fill:#2196f3;fill-opacity:1;stroke:none;stroke-width:0.05069799;stroke-miterlimit:4;stroke-dasharray:none;stroke-opacity:1"
         id="circle5056"
         cx="9.9999781"
         cy="10.000005"
         r="10" />
    </clipPath>
    <clipPath
       id="clipPath5119"
       clipPathUnits="userSpaceOnUse">
      <circle
         inkscape:export-ydpi="648"
         inkscape:export-xdpi="648"
         inkscape:export-filename="/home/juergen/path4136.png"
         style="opacity:1;fill:#2196f3;fill-opacity:1;stroke:none;stroke-width:0.05069799;stroke-miterlimit:4;stroke-dasharray:none;stroke-opacity:1"
         id="circle5121"
         cx="9.9999781"
         cy="10.000005"
         r="10" />
    </clipPath>
    <clipPath
       clipPathUnits="userSpaceOnUse"
       id="clipPath6096">
      <circle
         inkscape:export-ydpi="648"
         inkscape:export-xdpi="648"
         inkscape:export-filename="/home/juergen/path4136.png"
         style="opacity:1;fill:#4caf50;fill-opacity:1;stroke:none;stroke-width:0.05069799;stroke-miterlimit:4;stroke-dasharray:none;stroke-opacity:1"
         id="circle6098"
         cx="9.9999781"
         cy="10.000005"
         r="10" />
    </clipPath>
    <clipPath
       id="clipPath5131"
       clipPathUnits="userSpaceOnUse">
      <circle
         inkscape:export-ydpi="648"
         inkscape:export-xdpi="648"
         inkscape:export-filename="/home/juergen/path4136.png"
         style="opacity:1;fill:#4caf50;fill-opacity:1;stroke:none;stroke-width:0.05069799;stroke-miterlimit:4;stroke-dasharray:none;stroke-opacity:1"
         id="circle5133"
         cx="9.9999781"
         cy="10.000005"
         r="10" />
    </clipPath>
    <linearGradient
       inkscape:collect="always"
       xlink:href="#linearGradient5122"
       id="linearGradient5128"
       x1="10"
       y1="10"
       x2="20"
       y2="20"
       gradientUnits="userSpaceOnUse" />
    <clipPath
       clipPathUnits="userSpaceOnUse"
       id="clipPath5133">
      <circle
         inkscape:export-ydpi="648"
         inkscape:export-xdpi="648"
         inkscape:export-filename="/home/juergen/path4136.png"
         style="opacity:1;fill:#4caf50;fill-opacity:1;stroke:none;stroke-width:0.05069799;stroke-miterlimit:4;stroke-dasharray:none;stroke-opacity:1"
         id="circle5135"
         cx="9.9999781"
         cy="10.000005"
         r="10" />
    </clipPath>
    <clipPath
       clipPathUnits="userSpaceOnUse"
       id="clipPath5147">
      <path
         style="fill:none;fill-rule:evenodd;stroke:#000000;stroke-width:1px;stroke-linecap:butt;stroke-linejoin:miter;stroke-opacity:1"
         d="M 5.9346462,4.3742029 11.458918,10.151013 13.068848,8.3832458 7.7655476,4.2163666 Z"
         id="path5149"
         inkscape:connector-curvature="0" />
    </clipPath>
    <clipPath
       clipPathUnits="userSpaceOnUse"
       id="clipPath5155">
      <path
         style="fill:none;fill-rule:evenodd;stroke:#000000;stroke-width:1px;stroke-linecap:butt;stroke-linejoin:miter;stroke-opacity:1"
         d="M 5.7452426,16.022524 8.4600275,12.83423 11.364216,9.9616091 5.4927044,4.2479339 4.1037447,8.3832458 4.3247156,14.665132 Z"
         id="path5157"
         inkscape:connector-curvature="0" />
    </clipPath>
    <clipPath
       clipPathUnits="userSpaceOnUse"
       id="clipPath5163">
      <path
         style="fill:none;fill-rule:evenodd;stroke:#000000;stroke-width:1px;stroke-linecap:butt;stroke-linejoin:miter;stroke-opacity:1"
         d="m 5.9662134,15.643717 1.2311234,-1.641498 5.9346462,-5.9030786 3.093592,0.2841054 -0.662912,4.3878502 -4.450985,2.209709 z"
         id="path5165"
         inkscape:connector-curvature="0" />
    </clipPath>
  </defs>
  <metadata
     id="metadata7">
    <rdf:RDF>
      <cc:Work
         rdf:about="">
        <dc:format>image/svg+xml</dc:format>
        <dc:type
           rdf:resource="http://purl.org/dc/dcmitype/StillImage" />
        <dc:title></dc:title>
      </cc:Work>
    </rdf:RDF>
  </metadata>
  <g
     transform="translate(1059.0803,-860.99615)"
     id="layer1"
     inkscape:groupmode="layer"
     inkscape:label="Hintergrund">
    <circle
       r="10"
       cy="871.93365"
       cx="-1048.1428"
       id="path4136"
       style="opacity:1;fill:#8bc34a;fill-opacity:1;stroke:none;stroke-width:0.05069799;stroke-miterlimit:4;stroke-dasharray:none;stroke-opacity:1"
       inkscape:export-filename="/home/juergen/path4136.png"
       inkscape:export-xdpi="648"
       inkscape:export-ydpi="648" />
  </g>
  <g
     inkscape:label="Icon"
     id="layer2"
     inkscape:groupmode="layer"
     style="display:inline"
     transform="translate(0.93752224,0.93749519)">
    <path
       d="M 6.0703125,5.1484375 C 5.8165055,5.2702648 5.6445313,5.534492 5.6445312,5.8339844 v 8.6289066 c 0,0.248222 0.1215483,0.465057 0.3066407,0.605468 0.041589,0.0548 0.089734,0.102444 0.1445312,0.144532 0.042866,0.05698 0.093347,0.107077 0.1503907,0.15039 0.042156,0.0552 0.090908,0.104286 0.1464843,0.146485 0.041678,0.05458 0.08972,0.102649 0.1445313,0.144531 0.042156,0.05521 0.090908,0.104285 0.1464844,0.146484 0.041792,0.05432 0.089689,0.10289 0.1445312,0.144531 0.041312,0.0537 0.088499,0.101256 0.1425781,0.142579 0.041312,0.0537 0.088499,0.101255 0.1425781,0.142578 0.040304,0.05232 0.086212,0.09809 0.1386719,0.138672 0.04161,0.05449 0.089828,0.102694 0.1445313,0.144531 0.040872,0.05274 0.087385,0.09991 0.140625,0.140625 0.040611,0.0524 0.085844,0.100084 0.1386718,0.140625 0.040668,0.05226 0.087782,0.09826 0.140625,0.138672 0.040564,0.05195 0.086056,0.09847 0.1386719,0.138672 0.039538,0.05057 0.083774,0.09532 0.1347657,0.134765 0.039924,0.05144 0.084993,0.0967 0.1367187,0.136719 0.039373,0.05073 0.083898,0.09513 0.1347656,0.134766 0.040058,0.05169 0.084757,0.09851 0.1367188,0.138672 0.040024,0.05106 0.085018,0.09704 0.1367187,0.136718 0.038046,0.04811 0.080403,0.09095 0.1289063,0.128906 0.040183,0.05164 0.086589,0.09663 0.1386719,0.136719 0.037861,0.04771 0.078786,0.09122 0.1269531,0.128907 0.039404,0.05027 0.084026,0.09551 0.1347656,0.134765 0.038619,0.04855 0.081577,0.09273 0.1308594,0.130859 0.039018,0.04905 0.08292,0.09246 0.1328125,0.13086 0.038144,0.04754 0.078532,0.09145 0.1269531,0.128906 0.038218,0.04769 0.080352,0.09134 0.1289063,0.128906 0.037718,0.04707 0.079155,0.08974 0.1269531,0.126954 0.037718,0.04707 0.079155,0.08974 0.1269531,0.126953 0.038282,0.04777 0.080255,0.0913 0.128906,0.128906 0.03807,0.04691 0.07881,0.08998 0.126953,0.126953 0.03578,0.04383 0.0745,0.084 0.119141,0.119141 0.03828,0.04777 0.08025,0.0913 0.128906,0.128906 0.03636,0.04453 0.0756,0.08554 0.121094,0.121094 0.03694,0.04552 0.07661,0.08686 0.123047,0.123047 0.03633,0.04467 0.07559,0.08541 0.121094,0.121093 0.03689,0.04537 0.0767,0.08696 0.123047,0.123047 0.03483,0.04245 0.07205,0.08096 0.115234,0.115234 0.03691,0.04573 0.07657,0.08863 0.123047,0.125 0.03584,0.04359 0.07451,0.08422 0.11914,0.119141 0.03533,0.04296 0.07331,0.08263 0.117188,0.117188 0.03533,0.04296 0.07331,0.08263 0.117187,0.117187 0.03567,0.04338 0.07476,0.08238 0.119141,0.117188 0.03439,0.04161 0.07083,0.07958 0.113281,0.113281 0.0354,0.04314 0.07317,0.0825 0.117188,0.117187 0.03458,0.04175 0.07058,0.08147 0.113281,0.115235 0.03416,0.04116 0.07122,0.07794 0.113281,0.111328 0.03348,0.04051 0.06824,0.0783 0.109375,0.111328 0.03584,0.04359 0.07451,0.08422 0.119141,0.119141 0.03292,0.03909 0.0673,0.07544 0.107422,0.107422 0.03417,0.04102 0.0693,0.08001 0.111328,0.113281 0.03364,0.04016 0.07012,0.07669 0.111328,0.109375 0.03344,0.03979 0.0685,0.07695 0.109375,0.109375 0.03234,0.0384 0.06617,0.07392 0.105469,0.105469 0.03354,0.0402 0.06827,0.07858 0.109375,0.111328 0.03377,0.04003 0.07001,0.07684 0.111328,0.109375 0.03196,0.03733 0.06492,0.07278 0.103515,0.103515 0.03246,0.03827 0.06608,0.07407 0.105469,0.105469 0.03183,0.03745 0.06503,0.07265 0.103516,0.103516 0.0313,0.0369 0.0638,0.07103 0.101562,0.101562 0.03309,0.03937 0.06704,0.0772 0.107422,0.109375 0.03116,0.03633 0.0641,0.06953 0.101563,0.09961 0.03141,0.03677 0.06371,0.07117 0.101562,0.101562 0.03048,0.03568 0.0611,0.06992 0.09766,0.09961 0.03176,0.03737 0.06513,0.0727 0.103516,0.103516 0.03082,0.03575 0.06266,0.06995 0.09961,0.09961 0.03123,0.03622 0.06406,0.06965 0.101562,0.09961 0.03047,0.03514 0.06125,0.06843 0.09766,0.09766 0.02882,0.03319 0.05765,0.06583 0.0918,0.09375 0.03076,0.03593 0.06269,0.06977 0.09961,0.09961 0.03,0.03455 0.05995,0.06883 0.0957,0.09766 0.03014,0.03457 0.06174,0.06689 0.09766,0.0957 0.02878,0.03283 0.05779,0.06418 0.0918,0.0918 0.02962,0.03403 0.06049,0.06528 0.0957,0.09375 0.029,0.03315 0.05747,0.0659 0.0918,0.09375 0.02854,0.03255 0.05811,0.06241 0.0918,0.08984 0.02786,0.03191 0.05509,0.06283 0.08789,0.08984 0.03035,0.03495 0.06143,0.06857 0.09766,0.09766 0.02659,0.0299 0.053,0.05846 0.08399,0.08398 0.02952,0.03375 0.05872,0.06746 0.09375,0.0957 0.02692,0.03015 0.05455,0.05831 0.08594,0.08398 0.02769,0.03136 0.0554,0.06132 0.08789,0.08789 0.02769,0.03136 0.0554,0.06132 0.08789,0.08789 0.02719,0.03057 0.05416,0.05995 0.08594,0.08594 0.02624,0.0295 0.05151,0.05874 0.08203,0.08398 0.02817,0.03186 0.05672,0.06294 0.08984,0.08984 0.02615,0.02898 0.05171,0.05724 0.08203,0.08203 0.02698,0.03007 0.0545,0.0584 0.08594,0.08398 0.02557,0.02834 0.05052,0.05574 0.08008,0.08008 0.02513,0.02805 0.0491,0.0559 0.07813,0.08008 0.02772,0.03112 0.05541,0.06153 0.08789,0.08789 0.02375,0.026 0.04707,0.05162 0.07422,0.07422 0.02693,0.03002 0.05456,0.05843 0.08594,0.08398 0.02356,0.02574 0.04538,0.05182 0.07227,0.07422 0.02662,0.02967 0.05302,0.05867 0.08398,0.08398 0.02327,0.02532 0.04576,0.05019 0.07227,0.07227 0.02514,0.02783 0.04913,0.05611 0.07813,0.08008 0.02507,0.02744 0.05124,0.05253 0.08008,0.07617 0.02339,0.02536 0.04563,0.05017 0.07227,0.07227 0.02392,0.02613 0.04687,0.05154 0.07422,0.07422 0.02295,0.02507 0.0442,0.05036 0.07031,0.07227 0.02438,0.02679 0.0482,0.05298 0.07617,0.07617 0.02394,0.02593 0.04688,0.05172 0.07422,0.07422 0.02122,0.02276 0.04059,0.04631 0.06445,0.06641 0.02373,0.02598 0.0471,0.05164 0.07422,0.07422 0.02365,0.02552 0.04727,0.05008 0.07422,0.07227 0.02128,0.02266 0.04054,0.04641 0.06445,0.06641 0.02208,0.02376 0.04341,0.04749 0.06836,0.06836 0.02122,0.02284 0.04253,0.04428 0.06641,0.06445 0.02235,0.02421 0.04304,0.04908 0.06836,0.07031 0.0225,0.02411 0.04485,0.04725 0.07031,0.06836 0.01949,0.02061 0.03691,0.04215 0.05859,0.06055 0.02267,0.02446 0.0446,0.04891 0.07031,0.07031 0.01919,0.02021 0.03729,0.04052 0.05859,0.05859 0.0221,0.02368 0.0434,0.04757 0.06836,0.06836 0.01991,0.02089 0.03838,0.04195 0.06055,0.06055 0.02104,0.02223 0.04086,0.04481 0.06445,0.06445 0.01961,0.02051 0.03875,0.04031 0.06055,0.05859 0.01823,0.01911 0.03456,0.03945 0.05469,0.05664 0.02036,0.02165 0.03973,0.04328 0.0625,0.0625 0.01947,0.02041 0.03696,0.04233 0.05859,0.06055 0.01957,0.02044 0.03881,0.04037 0.06055,0.05859 0.01805,0.01874 0.03479,0.03781 0.05469,0.05469 0.01899,0.01986 0.03755,0.03886 0.05859,0.05664 0.01832,0.01908 0.03446,0.03949 0.05469,0.05664 0.01805,0.01874 0.03479,0.03781 0.05469,0.05469 0.01706,0.01771 0.03207,0.03669 0.05078,0.05273 0.01978,0.02067 0.03854,0.04214 0.06055,0.06055 0.01528,0.01557 0.0303,0.03067 0.04687,0.04492 0.01927,0.02007 0.03722,0.04067 0.05859,0.05859 0.01568,0.01593 0.02984,0.03232 0.04687,0.04687 0.01586,0.01634 0.02961,0.03391 0.04687,0.04883 0.0186,0.01929 0.0361,0.03934 0.05664,0.05664 0.01536,0.01555 0.03022,0.03069 0.04688,0.04492 0.01527,0.01563 0.02836,0.03256 0.04492,0.04687 0.0168,0.0173 0.0324,0.03508 0.05078,0.05078 0.01561,0.01585 0.02992,0.03239 0.04687,0.04687 0.01526,0.01549 0.02838,0.03269 0.04492,0.04687 0.01529,0.01547 0.0303,0.03076 0.04687,0.04492 0.01502,0.01515 0.02867,0.03104 0.04492,0.04492 0.01441,0.01453 0.02742,0.0296 0.04297,0.04297 0.01465,0.01477 0.02715,0.03135 0.04297,0.04492 0.01536,0.01543 0.03023,0.03081 0.04687,0.04492 0.01254,0.01243 0.02373,0.02555 0.03711,0.03711 0.01312,0.01319 0.025,0.02683 0.03906,0.03906 0.01571,0.01585 0.02982,0.03241 0.04687,0.04687 0.01193,0.01173 0.02247,0.0242 0.03516,0.03516 0.01214,0.01211 0.02222,0.02581 0.03516,0.03711 0.0147,0.01476 0.02905,0.02941 0.04492,0.04297 0.01061,0.01043 0.02004,0.02143 0.03125,0.03125 0.01443,0.01444 0.02742,0.02968 0.04297,0.04297 0.01067,0.01042 0.01999,0.02145 0.03125,0.03125 0.01254,0.01243 0.02373,0.02555 0.03711,0.03711 0.01126,0.01107 0.02127,0.02283 0.0332,0.0332 0.01129,0.0111 0.02124,0.0228 0.0332,0.0332 0.01027,0.0101 0.01847,0.02172 0.0293,0.03125 0.01185,0.01173 0.02256,0.0242 0.03516,0.03516 0.01066,0.01041 0.01999,0.02146 0.03125,0.03125 0.01167,0.01139 0.02277,0.02255 0.03516,0.0332 0.009,0.0087 0.01594,0.01909 0.02539,0.02734 0.0087,0.0084 0.01634,0.01737 0.02539,0.02539 0.01226,0.01205 0.02406,0.02393 0.03711,0.03516 0.0071,0.0068 0.01221,0.015 0.01953,0.02148 0.01126,0.01099 0.02128,0.0229 0.0332,0.0332 0.0067,0.0064 0.01256,0.01335 0.01953,0.01953 0.01102,0.01076 0.02154,0.02115 0.0332,0.03125 0.0064,0.0061 0.01093,0.01364 0.01758,0.01953 0.009,0.0087 0.01599,0.01908 0.02539,0.02734 0.009,0.0087 0.01788,0.01716 0.02734,0.02539 0.0067,0.0064 0.01255,0.01339 0.01953,0.01953 0.0074,0.007 0.01381,0.01474 0.02148,0.02148 0.0061,0.0058 0.0113,0.01198 0.01758,0.01758 0.0081,0.0078 0.01501,0.016 0.02344,0.02344 0.0068,0.0065 0.01248,0.01331 0.01953,0.01953 0.0064,0.0061 0.01095,0.01366 0.01758,0.01953 0.0061,0.0057 0.01133,0.01204 0.01758,0.01758 0.0071,0.0067 0.01411,0.01307 0.02148,0.01953 0.0048,0.0045 0.0088,0.0093 0.01367,0.01367 0.0054,0.0051 0.01004,0.01068 0.01563,0.01563 0.0037,0.0035 0.006,0.0083 0.0098,0.01172 0,0 0.002,0 0.002,0 0.0064,0.0061 0.01095,0.01366 0.01758,0.01953 0.0054,0.0051 0.01005,0.01072 0.01563,0.01563 0.002,0.0019 0.0038,0.004 0.0059,0.0059 0.0054,0.0051 0.01006,0.01066 0.01563,0.01562 0.0054,0.0051 0.01005,0.01072 0.01563,0.01563 0.0014,0.0012 0.0045,0.0046 0.0059,0.0059 0,0 0.002,0 0.002,0 0.0024,0.0022 0.0034,0.0056 0.0059,0.0078 0.0054,0.005 0.01006,0.01073 0.01563,0.01563 0,0 0.002,0.002 0.002,0.002 0,0 0.002,0.002 0.002,0.002 0,0 0.002,0.002 0.002,0.002 0.0014,0.0012 0.0025,0.0027 0.0039,0.0039 0.0037,0.0034 0.0079,0.0084 0.01172,0.01172 0,0 0.002,0.002 0.002,0.002 0.0028,0.0026 0.0069,0.0072 0.0098,0.0098 0.0017,0.0016 0.0022,0.0043 0.0039,0.0059 0,0 0.002,0 0.002,0 0,0 0.002,0.002 0.002,0.002 10e-4,9.59e-4 0.0029,0.0049 0.0039,0.0059 4.03e-4,3.62e-4 0.0015,-3.6e-4 0.002,0 0.02102,0.01875 0.04728,0.03045 0.07031,0.04687 0.0326,0.02356 0.06339,0.04993 0.09961,0.06836 0,0 0.002,0.002 0.002,0.002 8.16e-4,4.11e-4 0.0011,0.0015 0.002,0.002 l 0.777344,-0.777344 0.0098,-0.0059 -0.0957,0.0957 0.115235,-0.06641 -0.08984,0.08984 0.115234,-0.06641 -0.0918,0.0918 0.111329,-0.06445 -0.08789,0.08789 0.107422,-0.0625 -0.08398,0.08398 0.105469,-0.06055 -0.08398,0.08398 0.09766,-0.05664 -0.07617,0.07617 0.101563,-0.05859 -0.08008,0.08008 0.0918,-0.05273 -0.07227,0.07227 0.08789,-0.05078 -0.07031,0.07031 0.08789,-0.05078 -0.06836,0.06836 0.08398,-0.04883 -0.06641,0.06641 0.07422,-0.04297 -0.05859,0.05859 0.07813,-0.04492 -0.0625,0.0625 0.07031,-0.04102 -0.05469,0.05469 0.07031,-0.04102 -0.05664,0.05664 0.07031,-0.04102 -0.05469,0.05469 0.06055,-0.03516 -0.04883,0.04883 0.05469,-0.03125 -0.04297,0.04297 0.05469,-0.03125 -0.04297,0.04297 0.05078,-0.0293 -0.03906,0.03906 0.04687,-0.02734 -0.03711,0.03711 0.04687,-0.02734 -0.03711,0.03711 0.03711,-0.02148 -0.0293,0.0293 0.03711,-0.02148 -0.0293,0.0293 0.03711,-0.02148 -0.0293,0.0293 0.02734,-0.01563 -0.02148,0.02148 0.02734,-0.01563 -0.02148,0.02148 0.02344,-0.01367 -0.01953,0.01953 0.01758,-0.0098 -0.01367,0.01367 0.01367,-0.0078 -0.0098,0.0098 0.01367,-0.0078 -0.01172,0.01172 0.0098,-0.0059 -0.0039,0.0059 5.458984,-3.154297 v -0.002 h -0.002 v -0.002 l -0.002,-0.002 -0.0039,-0.0039 -0.0039,-0.0039 -0.0059,-0.0039 -0.0059,-0.0059 -0.0059,-0.0078 h -0.002 l -0.0039,-0.0059 -0.0078,-0.0078 -0.0098,-0.0078 -0.0098,-0.0098 -0.0098,-0.0098 -0.0098,-0.01172 h -0.002 l -0.0098,-0.01172 -0.01172,-0.01172 -0.01367,-0.01367 -0.01367,-0.01367 -0.01367,-0.01367 -0.01563,-0.01563 -0.01563,-0.01563 -0.01758,-0.01758 -0.01758,-0.01758 -0.01758,-0.01758 -0.01953,-0.01953 -0.01953,-0.01953 -0.01953,-0.01953 -0.02148,-0.02148 -0.02148,-0.02148 -0.02344,-0.02344 -0.02344,-0.02344 -0.02344,-0.02344 -0.02539,-0.02539 -0.02539,-0.02539 -0.02734,-0.02539 -0.02734,-0.02734 -0.01172,-0.01172 -0.0098,-0.0098 -0.0059,-0.0078 h -0.002 l -0.02734,-0.02734 -0.0293,-0.0293 -0.0078,-0.0078 -0.0059,-0.0078 -0.01563,-0.01563 h -0.002 l -0.0293,-0.0293 -0.0078,-0.0078 -0.0078,-0.0098 -0.01563,-0.01563 h -0.002 l -0.0059,-0.0078 -0.0098,-0.0098 -0.01367,-0.01367 -0.0332,-0.0332 -0.03516,-0.0332 -0.0078,-0.0078 -0.01367,-0.01563 -0.01172,-0.01172 h -0.002 l -0.02344,-0.02344 -0.002,-0.0039 -0.0078,-0.0078 -0.03711,-0.03711 -0.03711,-0.03516 -0.0059,-0.0059 -0.02344,-0.02539 -0.0078,-0.0078 h -0.002 l -0.0293,-0.0293 v -0.002 l -0.0059,-0.0059 -0.03906,-0.03906 -0.04102,-0.03906 -0.0039,-0.0039 -0.03125,-0.0332 -0.0039,-0.0039 h -0.002 l -0.0293,-0.0293 -0.002,-0.0039 -0.002,-0.002 -0.0078,-0.0059 v -0.002 l -0.01758,-0.01563 -0.01367,-0.01563 h -0.002 l -0.0078,-0.0098 h -0.002 l -0.0059,-0.0078 h -0.002 l -0.0332,-0.03516 -0.04297,-0.04297 -0.04492,-0.04297 -0.01172,-0.01367 -0.01758,-0.01758 -0.01563,-0.01367 -0.04492,-0.04687 h -0.002 l -0.04492,-0.04687 -0.04687,-0.04687 -0.04883,-0.04687 L 25.921875,25 l -0.002,-0.002 -0.002,-0.002 -0.002,-0.002 -0.0039,-0.0039 -0.0039,-0.0039 -0.0059,-0.0039 -0.0039,-0.0059 -0.0078,-0.0059 -0.002,-0.0039 h -0.002 l -0.002,-0.0039 -0.0078,-0.0078 -0.0059,-0.0039 -0.0039,-0.0039 -0.0078,-0.0098 -0.01172,-0.0098 -0.0039,-0.0039 -0.0059,-0.0059 v -0.002 l -0.01172,-0.01172 -0.0098,-0.0098 -0.002,-0.002 -0.01367,-0.01367 -0.01172,-0.01172 h -0.002 v -0.002 l -0.01367,-0.01367 -0.01563,-0.01367 v -0.002 l -0.01562,-0.01563 -0.0039,-0.0039 -0.01367,-0.01367 -0.01758,-0.01563 -0.0098,-0.0098 -0.0078,-0.0098 -0.0039,-0.0039 -0.01563,-0.01563 -0.0039,-0.0039 -0.01563,-0.01563 -0.01563,-0.01563 h -0.002 l -0.002,-0.0039 -0.02148,-0.02148 -0.0078,-0.0078 -0.01367,-0.01367 -0.0078,-0.0078 h -0.002 l -0.01367,-0.01563 -0.02344,-0.02344 -0.0078,-0.0078 -0.0059,-0.0059 -0.0098,-0.0098 -0.01953,-0.01953 -0.0059,-0.0059 -0.01953,-0.01953 -0.0332,-0.03125 -0.01563,-0.01563 -0.0078,-0.0078 -0.05664,-0.05664 -0.002,-0.0039 -0.0078,-0.0078 -0.02148,-0.02148 -0.01758,-0.01758 -0.0059,-0.0059 -0.0078,-0.0078 -0.02734,-0.02539 -0.0039,-0.0039 -0.01953,-0.02148 -0.01172,-0.0098 -0.0039,-0.0059 -0.02734,-0.02734 -0.01563,-0.01367 -0.01758,-0.01953 -0.02344,-0.02344 -0.01172,-0.0098 -0.0078,-0.0078 -0.02344,-0.02539 -0.002,-0.002 -0.0332,-0.03125 -0.002,-0.0039 -0.0059,-0.0059 -0.03125,-0.0293 -0.01367,-0.01367 -0.0078,-0.0078 -0.01562,-0.01563 -0.02148,-0.02148 -0.02344,-0.02539 -0.0293,-0.0293 -0.0332,-0.03125 -0.0625,-0.06445 h -0.002 l -0.02148,-0.02344 -0.01563,-0.01367 -0.02344,-0.02539 -0.002,-0.002 -0.02148,-0.02148 -0.02148,-0.02148 -0.01953,-0.01953 -0.02344,-0.02148 -0.03516,-0.03711 -0.0059,-0.0059 -0.002,-0.002 -0.04297,-0.04297 -0.02148,-0.02148 -0.02539,-0.02344 -0.0059,-0.0078 -0.03516,-0.03516 -0.0039,-0.0039 -0.01367,-0.01172 -0.0332,-0.0332 -0.01758,-0.01758 -0.0293,-0.03125 -0.02539,-0.02539 -0.01172,-0.01172 h -0.002 l -0.0078,-0.0098 -0.0332,-0.0332 h -0.002 l -0.01367,-0.01563 -0.01172,-0.0098 -0.03906,-0.03906 -0.03125,-0.03125 -0.01367,-0.01563 -0.0039,-0.0039 -0.05078,-0.05078 -0.002,-0.002 -0.05078,-0.04883 -0.0078,-0.0098 -0.0098,-0.0098 -0.03516,-0.0332 -0.01367,-0.01367 -0.02344,-0.02539 -0.01563,-0.01367 -0.01953,-0.02148 -0.0332,-0.0332 -0.0039,-0.0039 -0.04883,-0.04687 -0.002,-0.0039 -0.02344,-0.02148 -0.0293,-0.0293 -0.0039,-0.0039 -0.03711,-0.03906 -0.002,-0.002 h -0.002 l -0.01367,-0.01563 -0.04492,-0.04297 -0.0059,-0.0059 -0.0059,-0.0078 -0.0039,-0.002 -0.0098,-0.0098 -0.03516,-0.03516 -0.0098,-0.01172 -0.01953,-0.01953 h -0.002 l -0.01563,-0.01563 -0.02148,-0.02148 -0.01367,-0.01563 -0.02344,-0.02344 -0.02148,-0.02148 -0.002,-0.002 -0.05273,-0.05273 -0.0039,-0.0039 -0.0078,-0.0078 -0.05273,-0.05273 -0.01367,-0.01367 -0.04883,-0.04883 -0.01758,-0.01758 -0.01172,-0.01172 -0.0332,-0.03125 -0.02344,-0.02344 -0.02344,-0.02539 -0.01563,-0.01367 -0.01953,-0.02148 -0.002,-0.002 -0.04102,-0.04102 h -0.002 l -0.04492,-0.04687 -0.01758,-0.01758 -0.0078,-0.0078 -0.0098,-0.0098 h -0.002 l -0.01953,-0.02148 -0.02539,-0.02539 -0.03516,-0.0332 -0.03125,-0.0332 -0.04883,-0.04883 h -0.002 l -0.01563,-0.01758 -0.03125,-0.03125 -0.0078,-0.0078 -0.02734,-0.02734 h -0.002 l -0.05859,-0.06055 -0.0078,-0.0078 -0.01563,-0.01367 -0.04492,-0.04687 -0.0039,-0.0039 -0.0039,-0.0039 -0.03125,-0.03125 h -0.002 l -0.03711,-0.03906 h -0.002 l -0.04297,-0.04492 -0.02539,-0.02539 -0.0059,-0.0039 -0.05469,-0.05664 -0.0098,-0.0098 -0.0098,-0.0098 -0.0625,-0.0625 -0.0059,-0.0039 -0.02148,-0.02344 -0.04492,-0.04492 -0.01758,-0.01758 -0.002,-0.002 h -0.002 l -0.01563,-0.01562 -0.03516,-0.03711 -0.02344,-0.02344 -0.01172,-0.01172 -0.03906,-0.03906 -0.02734,-0.02734 -0.01953,-0.01758 -0.0039,-0.0039 -0.02344,-0.02539 -0.0332,-0.03125 -0.0332,-0.0332 -0.0098,-0.01172 -0.03711,-0.03516 -0.03906,-0.04102 -0.0039,-0.002 -0.07227,-0.07422 -0.01758,-0.01758 h -0.002 l -0.05859,-0.06055 -0.03125,-0.03125 -0.01953,-0.01758 -0.02734,-0.0293 -0.04687,-0.04492 -0.0078,-0.0098 -0.02539,-0.02344 -0.05859,-0.05859 v -0.002 h -0.002 l -0.01953,-0.01953 -0.0625,-0.06445 -0.0098,-0.0098 -0.0078,-0.0078 -0.06641,-0.06641 -0.01367,-0.01367 -0.0078,-0.0078 -0.07422,-0.07422 -0.02148,-0.01953 -0.05664,-0.05664 -0.0059,-0.0078 -0.0332,-0.0332 h -0.002 l -0.04883,-0.04883 -0.04688,-0.04687 -0.03711,-0.03906 -0.06055,-0.05859 -0.02344,-0.02539 -0.0059,-0.0039 -0.06836,-0.07031 h -0.002 l -0.0098,-0.01172 -0.0039,-0.0039 -0.0039,-0.0039 h -0.002 v -0.002 l -0.0078,-0.0078 c 0,0 -0.002,0 -0.002,0 l -0.0078,-0.0098 c 0,0 -0.002,0 -0.002,0 l -0.01953,-0.02148 c 0,0 -0.002,0 -0.002,0 l -0.01563,-0.01758 c 0,0 -0.002,0 -0.002,0 l -0.01758,-0.01953 h -0.002 v -0.002 c 0,0 -0.002,0 -0.002,0 l -0.0098,-0.01172 c 0,0 -0.002,0 -0.002,0 l -0.07227,-0.07422 -0.01367,-0.01367 h -0.002 v -0.002 l -0.07227,-0.07227 -0.01953,-0.01953 -0.0059,-0.0059 -0.06445,-0.0625 -0.0098,-0.01172 c 0,0 -0.002,0 -0.002,0 l -0.01172,-0.01172 -0.01367,-0.01563 -0.05078,-0.05078 -0.02734,-0.02734 -0.02539,-0.02344 -0.03906,-0.03906 -0.0293,-0.03125 -0.0332,-0.0332 h -0.002 l -0.002,-0.0039 c 0,0 -0.002,0 -0.002,0 l -0.02148,-0.02344 -0.03516,-0.03516 -0.04102,-0.04102 -0.01563,-0.01563 -0.03906,-0.03711 -0.0039,-0.0059 c 0,0 -0.002,0 -0.002,0 l -0.04492,-0.04492 -0.0039,-0.0039 -0.04102,-0.04297 -0.05078,-0.05078 -0.0078,-0.0078 h -0.002 l -0.08398,-0.08594 -0.02148,-0.01953 -0.0332,-0.03516 c 0,0 -0.002,0 -0.002,0 l -0.03906,-0.04102 -0.03125,-0.03125 h -0.002 l -0.0625,-0.0625 -0.04297,-0.04492 -0.05273,-0.05273 -0.05469,-0.05469 -0.0059,-0.0059 h -0.002 l -0.0332,-0.03516 -0.06445,-0.06445 -0.0039,-0.0039 -0.0293,-0.0293 -0.06836,-0.06836 -0.01172,-0.01172 -0.01953,-0.01953 -0.07227,-0.07031 -0.01953,-0.01953 -0.0078,-0.0078 -0.07422,-0.07617 -0.02539,-0.02344 v -0.002 c 0,0 -0.002,0 -0.002,0 l -0.002,-0.002 -0.07422,-0.07617 -0.02148,-0.02148 -0.01563,-0.01367 -0.01172,-0.01172 -0.07422,-0.07617 -0.02539,-0.02539 h -0.002 l -0.02344,-0.02539 -0.05078,-0.05078 -0.03711,-0.03711 -0.05469,-0.05273 -0.01172,-0.01367 -0.0078,-0.0059 -0.01953,-0.02148 c 0,0 -0.002,0 -0.002,0 l -0.01953,-0.01953 -0.04883,-0.05078 -0.0059,-0.0059 -0.05859,-0.05859 h -0.002 l -0.03906,-0.04102 -0.0059,-0.0039 -0.05273,-0.05469 c 0,0 -0.002,0 -0.002,0 l -0.01563,-0.01563 -0.0332,-0.03516 -0.04297,-0.04297 -0.03906,-0.03906 h -0.002 l -0.02148,-0.02344 h -0.002 l -0.06641,-0.06641 -0.02539,-0.02734 -0.01367,-0.01367 -0.002,-0.002 -0.101562,-0.101562 -0.0039,-0.0039 -0.0059,-0.0039 -0.101563,-0.103515 -0.0078,-0.0078 -0.101562,-0.101563 -0.01172,-0.0098 -0.0059,-0.0078 -0.0918,-0.0918 -0.01367,-0.01367 -0.01367,-0.01367 -0.121094,-0.121094 -0.07227,-0.07227 -0.02148,-0.01953 -0.02734,-0.0293 -0.06445,-0.0625 -0.02148,-0.02344 -0.03711,-0.03516 -0.05273,-0.05469 -0.02734,-0.02539 -0.0332,-0.03516 c 0,0 -0.002,0 -0.002,0 l -0.0078,-0.0078 -0.04297,-0.04492 -0.0293,-0.0293 -0.05078,-0.05078 h -0.002 l -0.01367,-0.01563 c 0,0 -0.002,0 -0.002,0 l -0.04883,-0.05078 -0.05859,-0.05664 -0.02344,-0.02539 -0.03516,-0.03516 -0.06055,-0.06055 c 0,0 -0.002,0 -0.002,0 l -0.0039,-0.0039 -0.01367,-0.01563 -0.03906,-0.03906 -0.07227,-0.07226 h -0.002 l -0.0039,-0.0059 -0.04102,-0.04101 -0.07617,-0.07617 -0.0039,-0.0039 -0.113282,-0.113281 -0.01367,-0.01367 -0.105468,-0.103515 -0.02344,-0.02344 -0.02539,-0.02734 -0.103516,-0.101562 v -0.002 c 0,0 -0.002,0 -0.002,0 l -0.08398,-0.08594 -0.04297,-0.04297 h -0.002 l -0.01172,-0.01172 -0.06445,-0.06641 -0.04492,-0.04492 c 0,0 -0.002,0 -0.002,0 l -0.0059,-0.0059 -0.0059,-0.0078 -0.0625,-0.0625 -0.0625,-0.06055 v -0.002 h -0.002 l -0.03125,-0.0332 c 0,0 -0.002,0 -0.002,0 l -0.02539,-0.02539 -0.06055,-0.0625 c 0,0 -0.002,0 -0.002,0 l -0.002,-0.002 -0.0059,-0.0078 -0.05274,-0.05078 -0.06641,-0.06836 -0.01367,-0.01367 -0.04297,-0.04297 -0.07031,-0.07031 -0.01953,-0.01953 -0.03516,-0.0332 -0.07226,-0.07422 -0.02734,-0.02734 -0.02539,-0.02344 -0.01172,-0.01367 c 0,0 -0.002,0 -0.002,0 l -0.0625,-0.0625 -0.0332,-0.03516 -0.01563,-0.01563 -0.08008,-0.07813 -0.03906,-0.04101 -0.0078,-0.0078 -0.08203,-0.08203 -0.04492,-0.04492 -0.002,-0.002 -0.002,-0.002 -0.0957,-0.0957 c 0,0 -0.002,0 -0.002,0 l -0.02734,-0.02734 -0.0098,-0.01172 -0.11914,-0.117187 -0.01953,-0.02149 -0.109375,-0.109375 -0.0293,-0.0293 -0.138672,-0.138671 -0.01953,-0.01953 -0.03906,-0.03906 -0.03516,-0.0332 -0.04687,-0.04687 -0.05274,-0.05469 -0.03125,-0.03125 -0.01172,-0.0098 -0.04492,-0.04687 h -0.002 l -0.07422,-0.07617 -0.0039,-0.0039 -0.06055,-0.06055 -0.06836,-0.06836 -0.07422,-0.07422 -0.06055,-0.06055 -0.08203,-0.08203 -0.03125,-0.03125 -0.02148,-0.02148 -0.0918,-0.0918 -0.04297,-0.04297 -0.0332,-0.03125 -0.01953,-0.02148 c 0,0 -0.002,0 -0.002,0 l -0.04687,-0.04687 -0.03516,-0.03711 -0.07812,-0.07617 -0.0078,-0.0098 -0.02344,-0.02344 h -0.002 l -0.0098,-0.01172 -0.01563,-0.01563 -0.09961,-0.09961 c 0,0 -0.002,0 -0.002,0 l -0.01758,-0.01758 -0.0098,-0.0098 -0.0098,-0.01172 -0.06055,-0.06055 -0.06641,-0.06641 h -0.002 l -0.0098,-0.0098 -0.05273,-0.05469 -0.08203,-0.08203 -0.0039,-0.0039 -0.132812,-0.132812 -0.01172,-0.01172 -0.275391,-0.273438 -0.002,-0.0039 -0.142578,-0.140625 v -0.002 l -0.142578,-0.142578 -0.002,-0.002 -0.142578,-0.140625 -0.0039,-0.0039 -0.05664,-0.05859 c 0,0 -0.002,0 -0.002,0 l -0.08203,-0.08203 -0.0059,-0.0078 -0.138672,-0.138672 -0.0078,-0.0078 -0.115235,-0.115235 c 0,0 -0.002,0 -0.002,0 l -0.02148,-0.02148 -0.0098,-0.01172 L 11.365234,10.445312 11.21875,10.296875 11.070312,10.148438 9.9375,9.015625 c 0,0 -0.00195,0 -0.00195,0 L 9.5507812,8.6289062 c 0,0 -0.00195,0 -0.00195,0 L 8.0761719,7.1542969 c 0,0 -0.00195,0 -0.00195,0 L 7.7988281,6.8769531 c 0,0 -0.00195,0 -0.00195,0 L 7.0917969,6.1699219 c 0,0 -0.00195,0 -0.00195,0 L 6.6582031,5.7363281 c 0,0 -0.00195,0 -0.00195,0 z m 1.1210937,0.2597656 0.5878907,0.5878907 0.00391,0.00195 0.4296875,0.4316406 0.00391,0.00195 0.1386719,0.140625 0.00391,0.00195 0.1386719,0.140625 0.00391,0.00195 0.2617188,0.2636719 0.027344,0.027344 0.064453,0.064453 0.1386718,0.1386719 0.3417969,0.3417969 0.00195,0.00195 0.1777344,0.1777344 0.2285156,0.2285156 0.00391,0.00195 0.1308593,0.1328125 0.00391,0.00195 0.263671,0.265625 0.03125,0.03125 0.002,0.00195 0.0332,0.033203 L 11.033203,9.25 h 0.002 l 0.002,0.00195 0.002,0.00195 0.01953,0.021484 0.0039,0.00195 0.25,0.2519531 0.0039,0.00195 0.185547,0.1855469 0.148438,0.1484375 0.01367,0.013672 0.01953,0.019531 0.01758,0.017578 0.01563,0.015625 0.0332,0.033203 0.002,0.00195 v 0.00195 l 0.0059,0.00586 0.0039,0.00391 0.01563,0.015625 0.03516,0.033203 0.04883,0.05078 h 0.002 l 0.002,0.002 0.0625,0.0625 0.0059,0.0059 0.002,0.002 0.002,0.002 v 0.002 l 0.0039,0.0039 0.002,0.002 h 0.002 l 0.111329,0.113282 0.0039,0.002 0.02148,0.02148 0.0078,0.0078 0.01367,0.01367 0.01563,0.01563 0.01563,0.01563 0.002,0.002 0.002,0.002 v 0.002 l 0.002,0.002 0.0039,0.0039 0.0039,0.0039 0.04297,0.04297 0.01563,0.01563 0.01563,0.01563 0.0078,0.0059 0.0039,0.0039 v 0.002 l 0.04492,0.04492 h 0.002 l 0.002,0.002 0.002,0.002 0.01367,0.01563 0.0039,0.002 0.07227,0.07227 v 0.002 l 0.140625,0.140625 h 0.002 l 0.0039,0.0039 0.002,0.002 0.132812,0.134766 0.0039,0.002 0.0059,0.0059 v 0.002 h 0.002 l 0.0039,0.0039 0.103516,0.103515 0.0332,0.0332 v 0.002 l 0.002,0.002 h 0.002 l 0.07813,0.08008 0.0039,0.002 0.05469,0.05469 v 0.002 l 0.0059,0.0039 0.134766,0.134766 v 0.002 l 0.0078,0.0059 0.02539,0.02734 0.0039,0.002 0.07617,0.07617 0.03125,0.03125 v 0.002 l 0.002,0.002 0.002,0.002 h 0.002 v 0.002 l 0.0059,0.0059 0.0059,0.0059 0.01563,0.01563 0.08203,0.08203 h 0.002 v 0.002 h 0.002 l 0.002,0.002 0.002,0.002 0.002,0.002 v 0.002 l 0.002,0.002 0.0078,0.0078 0.01367,0.01172 0.08203,0.08399 0.0039,0.002 0.0293,0.0293 0.002,0.002 0.002,0.002 0.002,0.002 0.002,0.002 0.002,0.002 v 0.002 l 0.01563,0.01367 0.123046,0.123047 0.01563,0.01563 0.128907,0.128906 0.0098,0.0098 v 0.002 l 0.01563,0.01563 h 0.002 l 0.002,0.002 0.01172,0.01172 0.04687,0.04687 0.03125,0.0332 0.0039,0.002 0.002,0.002 0.0039,0.0039 0.01563,0.01563 0.0039,0.0039 0.08008,0.08203 0.0039,0.002 0.03125,0.03125 0.02344,0.02344 0.002,0.002 0.02344,0.02344 0.002,0.002 0.002,0.002 0.002,0.002 0.0039,0.0039 v 0.002 l 0.002,0.002 0.002,0.002 0.0059,0.0059 0.0625,0.0625 0.002,0.002 h 0.002 l 0.02539,0.02539 0.0078,0.0078 v 0.002 h 0.002 l 0.01172,0.01367 0.0039,0.002 0.08399,0.08398 0.002,0.002 0.0039,0.0039 0.01367,0.01367 v 0.002 h 0.002 v 0.002 l 0.002,0.002 0.002,0.002 h 0.002 l 0.01563,0.01563 0.0098,0.0098 0.0098,0.0098 0.002,0.002 v 0.002 l 0.0059,0.0059 0.01953,0.01953 0.002,0.002 h 0.002 l 0.002,0.002 0.03125,0.03125 0.0059,0.0059 0.0293,0.0293 0.002,0.002 0.002,0.002 0.002,0.002 0.002,0.002 v 0.002 l 0.002,0.002 0.002,0.002 0.002,0.002 0.002,0.002 0.002,0.002 0.002,0.002 0.002,0.002 h 0.002 l 0.08008,0.08008 0.03125,0.03125 0.0293,0.0293 0.0059,0.0059 0.0078,0.0078 0.0078,0.0078 0.002,0.002 v 0.002 l 0.002,0.002 0.002,0.002 0.0039,0.0039 0.0039,0.0039 0.0059,0.0059 0.0059,0.0059 0.0078,0.0078 0.0078,0.0078 0.0059,0.0059 0.002,0.002 h 0.002 l 0.03125,0.03125 v 0.002 l 0.002,0.002 0.0098,0.0098 0.002,0.002 0.0059,0.0059 0.002,0.002 0.002,0.002 0.002,0.002 h 0.002 l 0.0098,0.0098 0.06055,0.06055 v 0.002 l 0.002,0.002 0.0039,0.0039 0.0039,0.0039 0.0078,0.0078 h 0.002 l 0.002,0.002 0.0078,0.0078 0.0078,0.0078 0.04297,0.04297 0.05078,0.05078 0.03906,0.03906 0.04883,0.04883 0.002,0.002 0.002,0.0039 h 0.002 l 0.002,0.002 0.01953,0.01953 0.0039,0.0039 v 0.002 l 0.0039,0.0039 0.0039,0.0039 0.002,0.002 h 0.002 l 0.03906,0.03906 v 0.002 l 0.002,0.002 0.0293,0.0293 h 0.002 l 0.002,0.002 0.02148,0.02148 0.002,0.002 0.002,0.002 0.01172,0.01172 v 0.002 l 0.002,0.002 0.0039,0.0039 0.0039,0.0039 0.0039,0.0039 0.002,0.002 0.04297,0.04297 h 0.002 l 0.04492,0.04492 0.0059,0.0059 v 0.002 l 0.002,0.002 0.0078,0.0078 0.002,0.002 0.002,0.002 0.002,0.002 0.002,0.002 0.002,0.002 0.002,0.002 h 0.002 l 0.002,0.002 0.002,0.002 0.002,0.002 0.002,0.002 0.002,0.002 0.0078,0.0078 0.03711,0.03711 0.0039,0.0039 0.04883,0.04883 0.0059,0.0059 v 0.002 l 0.0059,0.0059 0.01758,0.01758 0.04687,0.04687 0.07617,0.07617 h 0.002 l 0.002,0.002 0.0059,0.0059 v 0.002 l 0.0039,0.0039 h 0.002 l 0.03711,0.03711 v 0.002 l 0.002,0.002 0.08008,0.08008 h 0.002 l 0.01172,0.01367 0.0039,0.002 0.0293,0.0293 0.0078,0.0078 0.0078,0.0078 0.0078,0.0078 0.02344,0.02344 0.002,0.002 v 0.002 l 0.002,0.002 0.002,0.002 0.0078,0.0078 0.0059,0.0059 0.0039,0.0039 0.002,0.002 h 0.002 l 0.01563,0.01563 0.03516,0.03516 0.002,0.002 0.02344,0.02344 0.01367,0.01367 v 0.002 l 0.0039,0.0039 0.0098,0.0098 0.01953,0.01953 0.02539,0.02539 0.002,0.002 0.0098,0.0098 0.002,0.002 h 0.002 l 0.002,0.002 0.002,0.002 0.002,0.002 0.002,0.002 0.0059,0.0059 0.002,0.002 v 0.002 l 0.0039,0.002 0.0059,0.0059 0.0059,0.0078 0.04883,0.04883 0.002,0.002 0.03516,0.03516 0.02344,0.02344 0.06445,0.06445 0.04492,0.04492 h 0.002 l 0.01367,0.01367 v 0.002 l 0.01172,0.01172 h 0.002 l 0.0059,0.0059 0.0098,0.01172 0.0039,0.002 0.0293,0.0293 0.05469,0.05469 0.0039,0.0059 0.0039,0.002 0.123046,0.123047 v 0.002 h 0.002 l 0.05469,0.05469 0.06641,0.06641 v 0.002 h 0.002 l 0.0059,0.0059 0.002,0.002 0.0039,0.0039 0.0059,0.0059 0.002,0.002 0.01758,0.01758 v 0.002 l 0.0039,0.0039 0.0039,0.0039 0.0039,0.0039 0.002,0.002 h 0.002 l 0.05469,0.05664 0.0039,0.002 0.0098,0.0098 0.01367,0.01367 0.03516,0.03516 v 0.002 l 0.0039,0.0039 0.0059,0.0059 h 0.002 l 0.01367,0.01563 0.0039,0.002 0.03906,0.03906 0.0039,0.0039 0.02148,0.02148 0.02539,0.02539 0.07422,0.07422 0.0059,0.0078 0.0039,0.002 0.01953,0.01953 0.002,0.002 0.002,0.002 0.002,0.002 0.0039,0.0039 v 0.002 l 0.002,0.002 0.002,0.002 h 0.002 l 0.04687,0.04883 0.0039,0.002 0.02344,0.02344 v 0.002 l 0.002,0.002 0.002,0.002 h 0.002 l 0.03125,0.03125 0.0039,0.0039 0.0039,0.0039 0.0078,0.0078 0.0078,0.0078 0.002,0.002 0.002,0.002 0.002,0.002 0.002,0.002 v 0.002 l 0.0293,0.0293 0.0098,0.0098 0.0078,0.0078 0.0039,0.0039 h 0.002 l 0.03516,0.03516 v 0.002 h 0.002 l 0.0059,0.0059 0.0625,0.0625 0.01172,0.01172 0.05078,0.05078 0.04492,0.04492 0.02148,0.02149 0.0098,0.0098 0.002,0.002 0.002,0.002 0.002,0.002 v 0.002 l 0.002,0.002 0.0098,0.0098 0.002,0.002 0.002,0.002 0.0039,0.0039 0.0078,0.0078 0.01563,0.01563 0.01758,0.01758 h 0.002 l 0.0332,0.0332 0.0059,0.0059 0.06641,0.06641 0.02148,0.02149 0.002,0.002 0.002,0.002 0.002,0.002 v 0.002 l 0.01172,0.01172 0.002,0.002 0.0078,0.0078 0.0039,0.0039 0.002,0.002 0.01367,0.01367 h 0.002 l 0.002,0.002 0.002,0.002 0.002,0.002 v 0.002 l 0.0039,0.0039 0.04297,0.04297 h 0.002 l 0.04102,0.04102 0.0059,0.0078 0.0039,0.002 0.01172,0.01172 v 0.002 h 0.002 l 0.002,0.002 0.05469,0.05469 0.002,0.002 0.002,0.002 v 0.002 l 0.0039,0.002 0.0039,0.0039 0.0039,0.0039 0.002,0.002 0.002,0.002 v 0.002 l 0.002,0.002 0.002,0.002 0.0039,0.0039 0.0039,0.0039 0.002,0.002 h 0.002 l 0.01005,0.0092 0.06836,0.06836 0.02539,0.02539 0.0098,0.01172 0.0039,0.002 0.002,0.002 v 0.002 l 0.01953,0.01953 h 0.002 l 0.002,0.002 0.002,0.002 0.002,0.002 0.03711,0.03711 0.0059,0.0078 h 0.002 l 0.002,0.002 0.0059,0.0059 0.01758,0.01758 0.0039,0.0039 0.0039,0.0039 v 0.002 l 0.002,0.002 0.002,0.002 h 0.002 l 0.002,0.002 0.002,0.002 0.002,0.002 v 0.002 l 0.0039,0.0039 0.002,0.002 0.002,0.002 0.07422,0.07422 0.0098,0.0098 0.0098,0.0098 h 0.002 v 0.002 h 0.002 l 0.002,0.002 0.0039,0.0039 0.0039,0.0039 v 0.002 l 0.002,0.002 0.0098,0.0098 0.0039,0.0039 0.0039,0.0039 0.002,0.002 0.0039,0.0039 h 0.002 l 0.06055,0.06055 v 0.002 l 0.002,0.002 0.0059,0.0059 h 0.002 l 0.002,0.002 v 0.002 l 0.0039,0.0039 0.03125,0.03125 0.06641,0.06445 0.0039,0.0039 0.002,0.002 v 0.002 l 0.0039,0.002 0.06836,0.07031 0.03125,0.0293 0.002,0.002 0.01367,0.01367 0.0078,0.0078 0.0098,0.0098 0.0625,0.0625 0.002,0.002 0.002,0.002 0.0039,0.0039 v 0.002 l 0.0059,0.0039 v 0.002 l 0.0039,0.002 0.01953,0.01953 0.08203,0.08203 0.002,0.002 v 0.002 h 0.002 l 0.0293,0.03125 h 0.002 v 0.002 l 0.002,0.002 0.002,0.002 0.0039,0.0039 0.0078,0.0078 0.0098,0.0098 0.04297,0.04297 h 0.002 l 0.0059,0.0059 0.002,0.002 0.002,0.002 0.002,0.002 0.01563,0.01563 0.002,0.002 v 0.002 l 0.002,0.002 0.002,0.002 0.01172,0.01172 0.01758,0.01758 0.01953,0.01953 h 0.002 l 0.002,0.002 0.002,0.002 0.002,0.002 0.01367,0.01367 0.0098,0.0098 0.002,0.002 0.0039,0.0039 0.0039,0.0039 0.0039,0.0039 0.002,0.0039 0.0039,0.002 0.0039,0.0039 0.002,0.002 v 0.002 l 0.0039,0.0039 0.0039,0.0039 0.0039,0.0039 0.0039,0.0039 0.0039,0.0039 0.002,0.002 0.002,0.002 0.02539,0.02539 h 0.002 l 0.0078,0.0078 0.0098,0.0098 0.0059,0.0059 v 0.002 l 0.002,0.002 0.002,0.002 0.002,0.002 0.002,0.002 0.002,0.002 0.002,0.002 0.002,0.002 0.002,0.002 0.002,0.002 0.002,0.002 h 0.002 l 0.002,0.002 0.002,0.002 0.002,0.002 0.002,0.002 0.002,0.002 0.002,0.002 0.01367,0.01563 0.0039,0.002 0.01172,0.01172 0.02539,0.02539 0.0078,0.0078 v 0.002 h 0.002 l 0.01367,0.01367 v 0.002 h 0.002 l 0.002,0.002 0.0039,0.0039 0.0039,0.0039 0.002,0.002 v 0.002 l 0.0039,0.0039 0.002,0.002 0.002,0.002 0.002,0.002 0.002,0.002 0.002,0.002 0.002,0.002 0.002,0.002 0.0332,0.0332 0.002,0.002 0.002,0.002 0.002,0.002 0.002,0.002 0.002,0.002 0.002,0.002 0.002,0.002 h 0.002 l 0.002,0.002 0.002,0.002 0.002,0.002 0.002,0.002 0.002,0.002 v 0.002 l 0.0039,0.0039 0.002,0.002 0.002,0.002 0.002,0.002 0.002,0.002 0.002,0.002 0.002,0.002 0.07227,0.07227 h 0.002 l 0.0098,0.0098 0.002,0.002 0.002,0.002 v 0.002 l 0.0039,0.0039 0.002,0.002 0.002,0.002 0.002,0.002 0.002,0.002 0.002,0.002 0.002,0.002 h 0.002 l 0.0039,0.0039 v 0.002 l 0.002,0.002 0.01172,0.01172 0.0039,0.0039 0.0039,0.0039 0.0039,0.0039 0.002,0.002 0.002,0.002 0.002,0.002 0.002,0.002 0.002,0.002 0.002,0.002 0.002,0.002 0.002,0.002 0.002,0.002 h 0.002 l 0.0059,0.0059 0.002,0.002 0.002,0.002 0.01953,0.01953 v 0.002 h 0.002 l 0.01953,0.01953 0.0039,0.0039 0.02734,0.02734 0.0039,0.0039 0.002,0.002 0.02148,0.02148 v 0.002 h 0.002 v 0.002 l 0.002,0.002 0.002,0.002 0.0098,0.0098 0.0039,0.0039 0.01367,0.01367 0.01367,0.01367 0.03906,0.03906 h 0.002 l 0.0098,0.0098 0.002,0.002 0.0132,0.01305 v 0.002 l 0.002,0.002 0.002,0.002 0.002,0.002 0.002,0.002 0.002,0.002 0.002,0.002 h 0.002 l 0.002,0.002 0.002,0.002 0.002,0.002 0.002,0.002 0.002,0.002 0.002,0.002 0.0059,0.0059 0.03906,0.03906 0.002,0.002 v 0.002 l 0.0039,0.0039 0.01758,0.01758 0.0039,0.0039 0.002,0.002 0.002,0.002 0.02539,0.02539 h 0.002 l 0.002,0.002 0.002,0.002 0.002,0.002 v 0.002 l 0.03516,0.03516 0.02539,0.02539 0.0098,0.0098 0.01367,0.01367 h 0.002 l 0.002,0.002 0.002,0.0039 0.0039,0.002 0.002,0.002 v 0.002 l 0.002,0.002 h 0.002 l 0.01172,0.01172 0.01758,0.01758 0.002,0.002 v 0.002 l 0.0059,0.0059 0.01563,0.01562 h 0.002 l 0.0039,0.0039 0.002,0.002 0.0039,0.0039 0.0039,0.0039 0.0039,0.0039 0.002,0.002 0.002,0.002 0.002,0.002 v 0.002 l 0.002,0.002 0.002,0.002 0.002,0.002 0.0039,0.0039 0.0039,0.0039 0.0039,0.0039 0.002,0.002 0.002,0.002 0.01953,0.01953 0.0332,0.0332 0.002,0.002 0.0332,0.0332 h 0.002 l 0.01563,0.01563 0.02344,0.02344 0.02148,0.02148 v 0.002 l 0.0098,0.0098 h 0.002 l 0.0098,0.0098 0.0039,0.0039 v 0.002 l 0.01172,0.01172 0.0078,0.0078 0.01367,0.01367 0.02539,0.02539 0.0098,0.0098 h 0.002 l 0.002,0.002 0.002,0.002 0.0039,0.0039 0.0039,0.0039 0.0039,0.0039 0.0039,0.0039 0.002,0.002 0.002,0.002 v 0.002 l 0.002,0.002 0.002,0.002 0.002,0.002 0.0039,0.0039 0.0039,0.0039 0.0039,0.0039 0.0039,0.0039 0.002,0.002 0.002,0.002 0.0039,0.0039 0.0039,0.0039 0.0039,0.0039 0.01367,0.01367 h 0.002 l 0.002,0.002 0.0078,0.0078 0.0039,0.0039 0.002,0.002 0.002,0.002 0.002,0.002 v 0.002 h 0.002 l 0.01172,0.01172 0.03516,0.03516 0.002,0.002 0.002,0.002 0.0039,0.0039 0.0039,0.0039 v 0.002 l 0.0039,0.002 0.002,0.002 0.002,0.002 v 0.002 l 0.002,0.002 0.002,0.002 0.002,0.002 0.002,0.002 0.0039,0.0039 0.0039,0.0039 0.0039,0.0039 0.002,0.002 0.01563,0.01563 0.03906,0.03906 0.02734,0.02734 h 0.002 l 0.03711,0.03711 0.01172,0.01172 v 0.002 l 0.0078,0.0078 0.0078,0.0078 h 0.002 l 0.01367,0.01367 v 0.002 h 0.002 l 0.01953,0.01953 0.0039,0.0039 v 0.002 l 0.02539,0.02539 0.0098,0.0098 0.002,0.002 0.002,0.002 0.002,0.002 0.002,0.002 h 0.002 l 0.0059,0.0059 0.002,0.002 0.002,0.002 0.002,0.002 0.002,0.002 0.002,0.002 0.002,0.002 v 0.002 l 0.01953,0.01953 0.002,0.002 0.002,0.002 0.05273,0.05273 h 0.002 l 0.0098,0.0098 0.002,0.002 0.002,0.002 0.002,0.002 0.002,0.002 0.002,0.002 v 0.002 l 0.002,0.002 0.002,0.002 0.002,0.002 0.002,0.002 0.002,0.002 0.002,0.002 0.002,0.002 0.002,0.002 0.0039,0.0039 0.0625,0.0625 0.05664,0.05664 h 0.002 l 0.002,0.002 0.002,0.002 0.0293,0.0293 0.002,0.002 0.002,0.002 0.0059,0.0059 v 0.002 l 0.002,0.002 h 0.002 l 0.0078,0.0078 0.01953,0.01953 0.03711,0.03711 0.01563,0.01562 0.01563,0.01563 v 0.002 l 0.002,0.002 0.002,0.002 0.03125,0.03125 h 0.002 l 0.002,0.0039 0.0039,0.002 0.0059,0.0059 0.02539,0.02539 v 0.002 l 0.01172,0.01172 h 0.002 l 0.01563,0.01563 0.0039,0.0059 0.0039,0.002 0.0293,0.03125 0.0039,0.002 0.01953,0.01953 v 0.002 h 0.002 l 0.0078,0.0078 0.03125,0.03125 0.04883,0.04883 v 0.002 l 0.0039,0.0039 h 0.002 l 0.04297,0.04297 0.02734,0.02734 0.01367,0.01367 v 0.002 l 0.002,0.002 0.002,0.002 0.002,0.002 0.002,0.002 0.002,0.002 0.002,0.002 0.002,0.002 0.002,0.002 h 0.002 l 0.002,0.002 0.002,0.002 0.002,0.002 0.002,0.002 0.002,0.002 0.002,0.002 0.01563,0.01563 0.002,0.002 0.002,0.002 v 0.002 l 0.0078,0.0078 0.02734,0.02734 0.002,0.002 h 0.002 l 0.002,0.002 0.02148,0.02344 0.0039,0.002 0.01953,0.02148 0.0039,0.002 0.0039,0.0039 v 0.002 l 0.0039,0.0039 0.0039,0.0039 0.002,0.002 0.002,0.002 0.01367,0.01367 0.0059,0.0059 0.0293,0.0293 0.01953,0.01953 h 0.002 v 0.002 h 0.002 l 0.002,0.002 0.02148,0.02148 v 0.002 h 0.002 l 0.0098,0.0098 0.02148,0.02344 0.0039,0.002 0.04492,0.04492 v 0.002 l 0.0039,0.0039 0.01172,0.0098 0.0039,0.0039 v 0.002 l 0.0039,0.002 0.002,0.002 0.0059,0.0059 0.0039,0.0059 h 0.002 l 0.002,0.002 0.0039,0.0039 0.0059,0.0059 v 0.002 l 0.0039,0.002 0.002,0.002 0.0039,0.0039 0.0039,0.0039 v 0.002 l 0.002,0.002 0.0078,0.0078 0.0059,0.0059 0.002,0.002 0.002,0.002 0.0059,0.0059 0.01172,0.01172 h 0.002 l 0.002,0.002 0.0078,0.0078 0.0039,0.0039 0.002,0.002 v 0.002 l 0.0039,0.0039 0.0078,0.0078 h 0.002 l 0.0078,0.0098 0.002,0.002 0.01367,0.01367 0.0078,0.0078 0.0078,0.0078 0.002,0.002 0.002,0.002 0.002,0.002 0.002,0.002 0.002,0.002 0.002,0.002 h 0.002 v 0.002 l 0.05859,0.05859 0.002,0.002 0.002,0.002 0.002,0.002 h 0.002 l 0.002,0.002 0.002,0.002 0.002,0.002 0.002,0.002 0.002,0.002 0.002,0.002 0.002,0.002 0.002,0.002 0.002,0.002 v 0.002 l 0.03125,0.03125 0.002,0.002 0.0039,0.0039 h 0.002 l 0.002,0.002 0.002,0.002 0.002,0.002 0.002,0.002 0.002,0.002 0.002,0.002 0.002,0.002 0.002,0.002 0.002,0.002 0.002,0.002 0.002,0.002 0.002,0.002 v 0.002 l 0.01758,0.01758 0.002,0.002 0.04297,0.04297 0.0059,0.0059 h 0.002 l 0.002,0.002 0.002,0.002 0.002,0.002 v 0.002 l 0.002,0.002 0.02148,0.02148 0.002,0.002 0.002,0.002 0.04102,0.04102 h 0.002 l 0.002,0.002 v 0.002 l 0.0059,0.0059 0.002,0.002 0.01367,0.01367 h 0.002 l 0.002,0.002 0.002,0.002 0.002,0.002 0.002,0.002 0.002,0.002 0.002,0.002 0.04102,0.04102 0.002,0.002 0.002,0.002 0.002,0.002 0.002,0.002 0.002,0.002 0.002,0.002 0.002,0.002 0.002,0.002 v 0.002 l 0.0039,0.0039 0.002,0.002 0.002,0.002 h 0.002 l 0.01367,0.01367 v 0.002 l 0.002,0.002 h 0.002 l 0.07031,0.07031 v 0.002 l 0.0078,0.0059 0.0039,0.0039 0.01758,0.01758 0.0078,0.0078 v 0.002 l 0.0039,0.002 0.002,0.002 v 0.002 l 0.01953,0.01953 0.01563,0.01563 0.0078,0.0059 v 0.002 l 0.0039,0.0039 0.002,0.002 0.0039,0.0039 h 0.002 l 0.002,0.002 0.002,0.002 0.002,0.002 0.002,0.002 0.002,0.002 0.002,0.002 0.002,0.002 0.002,0.002 v 0.002 l 0.0059,0.0059 0.0059,0.0059 0.0078,0.0059 0.0098,0.0098 0.02148,0.02148 0.01563,0.01563 0.0078,0.0078 0.002,0.002 0.002,0.002 0.0039,0.0039 0.0039,0.0039 0.0039,0.0039 v 0.002 l 0.0039,0.0039 0.0293,0.0293 0.0059,0.0039 0.002,0.002 0.0039,0.0039 0.0039,0.0039 0.002,0.002 v 0.002 l 0.002,0.002 h 0.002 l 0.002,0.002 0.002,0.002 v 0.002 l 0.0059,0.0059 0.03125,0.03125 h 0.002 l 0.01367,0.01367 0.0039,0.0039 0.01367,0.01367 0.002,0.002 0.002,0.002 0.002,0.002 0.002,0.002 0.002,0.002 0.002,0.002 0.0039,0.0039 v 0.002 l 0.002,0.002 0.002,0.002 0.002,0.002 0.002,0.002 0.03125,0.03125 h 0.002 l 0.002,0.002 0.002,0.002 0.002,0.002 0.0098,0.0098 0.002,0.002 0.002,0.002 0.0039,0.0039 0.0039,0.0039 0.0039,0.0039 0.0039,0.0039 0.01563,0.01563 0.002,0.002 v 0.002 l 0.002,0.002 0.02734,0.02539 0.0039,0.0039 0.002,0.002 0.0039,0.0039 0.0039,0.0039 0.0059,0.0059 0.0059,0.0059 v 0.002 l 0.002,0.002 0.0098,0.0098 0.0039,0.0039 0.0039,0.0039 0.0039,0.0039 0.0039,0.0039 0.0039,0.0039 0.002,0.002 0.01563,0.01367 0.07031,0.07031 v 0.002 l 0.002,0.002 0.02148,0.02148 h 0.002 l 0.04297,0.04297 0.0078,0.0078 0.0098,0.0098 0.04883,0.04883 v 0.002 l 0.03516,0.0332 0.0332,0.0332 0.01758,0.01758 0.0332,0.0332 0.01953,0.01953 0.01172,0.01172 0.0059,0.0059 v 0.002 l 0.002,0.002 0.002,0.002 0.01172,0.01172 h 0.002 l 0.002,0.002 0.02539,0.02539 v 0.002 l 0.002,0.002 0.002,0.002 0.002,0.002 0.002,0.002 0.002,0.002 0.002,0.002 0.002,0.002 0.002,0.002 0.0039,0.0039 H 23.5 l 0.002,0.002 0.04102,0.04102 0.01758,0.01758 v 0.002 l 0.01172,0.01172 0.002,0.002 0.002,0.002 0.002,0.002 0.002,0.002 0.002,0.002 0.002,0.002 0.01758,0.01758 h 0.002 l 0.002,0.002 0.002,0.002 v 0.002 l 0.002,0.002 0.002,0.002 0.002,0.002 0.002,0.002 0.002,0.002 0.002,0.002 0.002,0.002 h 0.002 l 0.0039,0.0039 0.002,0.002 0.002,0.002 0.002,0.002 0.002,0.002 0.0078,0.0078 0.002,0.002 0.002,0.002 0.002,0.002 0.002,0.002 v 0.002 l 0.0039,0.0039 0.002,0.002 0.002,0.002 0.002,0.002 0.002,0.002 0.002,0.002 0.002,0.002 0.002,0.002 0.002,0.002 0.05273,0.05078 0.0098,0.0098 v 0.002 l 0.04492,0.04297 0.002,0.002 0.002,0.002 0.002,0.002 0.0059,0.0059 v 0.002 l 0.002,0.002 0.002,0.002 0.002,0.002 h 0.002 l 0.0059,0.0059 0.04102,0.04102 0.0078,0.0078 0.0039,0.0039 v 0.002 h 0.002 l 0.0059,0.0059 0.0039,0.0039 0.002,0.002 0.002,0.002 v 0.002 l 0.0078,0.0078 0.002,0.002 0.02734,0.02734 0.02148,0.02148 h 0.002 l 0.0293,0.0293 0.0078,0.0078 0.0059,0.0059 0.002,0.002 v 0.002 l 0.01172,0.01172 0.0293,0.0293 0.01758,0.01758 0.0039,0.002 0.05469,0.05469 v 0.002 h 0.002 l 0.0059,0.0059 0.002,0.002 0.01172,0.01172 0.03711,0.03711 0.01172,0.01172 v 0.002 l 0.002,0.002 0.002,0.002 0.002,0.002 0.002,0.002 0.002,0.002 0.002,0.002 h 0.002 l 0.0059,0.0059 0.002,0.002 0.002,0.002 0.002,0.002 0.002,0.002 0.0039,0.0039 0.01367,0.01563 0.002,0.002 0.002,0.002 0.01367,0.01172 0.01367,0.01367 v 0.002 l 0.02148,0.02148 0.002,0.002 0.002,0.002 0.02148,0.02148 0.002,0.002 0.002,0.002 0.002,0.002 0.002,0.002 0.002,0.002 0.002,0.002 0.002,0.002 0.002,0.002 0.002,0.002 0.0039,0.0039 h 0.002 l 0.002,0.002 0.002,0.002 0.002,0.002 0.002,0.002 0.002,0.002 0.002,0.002 0.002,0.002 0.002,0.002 0.002,0.002 0.0059,0.0059 v 0.002 l 0.002,0.002 0.002,0.002 0.0098,0.0098 0.002,0.002 0.002,0.002 0.002,0.002 0.002,0.002 0.002,0.002 0.002,0.002 0.0059,0.0059 h 0.002 l 0.002,0.002 0.002,0.002 0.002,0.002 0.002,0.002 0.0332,0.0332 0.0059,0.0059 0.01367,0.01563 0.01367,0.01367 h 0.002 l 0.01758,0.01758 0.0059,0.0059 0.0039,0.0039 0.0098,0.0098 v 0.002 l 0.0059,0.0059 0.04883,0.04687 0.02539,0.02539 0.02344,0.02344 0.002,0.002 0.0293,0.0293 0.0039,0.0039 0.002,0.002 v 0.002 l 0.002,0.002 0.0078,0.0078 h 0.002 l 0.0039,0.0039 0.0039,0.0039 0.0059,0.0059 v 0.002 l 0.02539,0.02539 h 0.002 l 0.002,0.002 0.0039,0.0039 v 0.002 l 0.0059,0.0059 h 0.002 l 0.0078,0.0078 0.002,0.002 0.0059,0.0059 0.0332,0.0332 0.01563,0.01563 0.02148,0.02148 v 0.002 L 24.783203,23 h 0.002 l 0.0078,0.0078 v 0.002 l 0.0039,0.0039 0.002,0.002 0.0078,0.0059 0.0098,0.0098 0.002,0.002 0.01367,0.01367 0.0059,0.0059 v 0.002 l 0.0039,0.0039 0.01758,0.01758 0.01953,0.01953 0.03125,0.03125 0.0039,0.002 0.01172,0.01172 0.002,0.002 0.002,0.002 0.002,0.002 0.002,0.002 0.002,0.002 0.002,0.002 0.002,0.002 0.002,0.002 0.002,0.002 0.0039,0.0059 0.002,0.002 0.002,0.002 0.002,0.002 0.002,0.002 0.002,0.002 0.002,0.002 0.002,0.002 0.002,0.002 0.002,0.002 0.0059,0.0059 0.0078,0.0078 0.01953,0.01953 0.002,0.002 h 0.002 l 0.0039,0.0039 0.01172,0.01172 0.0293,0.0293 0.01367,0.01367 0.0078,0.0078 0.002,0.002 0.002,0.002 0.002,0.002 0.002,0.002 0.002,0.002 0.002,0.002 0.002,0.002 0.0059,0.0078 0.002,0.002 0.002,0.002 0.002,0.002 0.002,0.002 0.002,0.002 0.002,0.002 0.002,0.002 0.002,0.002 h 0.002 l 0.0078,0.0078 0.0039,0.0039 0.002,0.002 0.02734,0.02734 0.02148,0.02344 0.0098,0.0098 0.0098,0.0098 0.02734,0.02734 0.01367,0.01367 h 0.002 l 0.01172,0.01172 v 0.002 l 0.002,0.002 0.01953,0.01758 0.0059,0.0059 v 0.002 l 0.03711,0.03711 0.0039,0.002 v 0.002 l 0.01172,0.01172 0.0039,0.002 0.002,0.002 0.02344,0.02344 0.0059,0.0059 0.01367,0.01367 0.01563,0.01562 0.002,0.002 0.01367,0.01367 v 0.002 l 0.02148,0.02148 h 0.002 l 0.0078,0.0078 0.01367,0.01367 0.002,0.002 0.01172,0.01172 0.03125,0.03125 0.0039,0.0039 0.002,0.002 0.0098,0.0098 0.02734,0.02734 0.002,0.002 0.0059,0.0059 0.002,0.002 v 0.002 l 0.002,0.002 0.0098,0.0098 0.0098,0.0098 0.01172,0.0098 0.02344,0.02344 0.01563,0.01563 0.002,0.0039 0.01172,0.01172 0.0039,0.002 0.0332,0.0332 0.002,0.002 0.0078,0.0078 0.002,0.002 0.002,0.002 v 0.002 l 0.01563,0.01562 0.0059,0.0039 0.002,0.002 0.002,0.002 0.002,0.002 0.002,0.002 0.002,0.002 0.002,0.002 0.002,0.002 0.01172,0.01172 0.002,0.002 0.0059,0.0059 0.0059,0.0059 0.01562,0.01563 0.02344,0.02344 0.0059,0.0059 0.002,0.002 0.0059,0.0059 0.0078,0.0078 0.002,0.002 0.002,0.002 0.002,0.002 v 0.002 l 0.002,0.002 0.0059,0.0059 0.002,0.002 0.01758,0.01758 0.0078,0.0078 0.0078,0.0078 0.04102,0.04102 0.0059,0.0039 v 0.002 l 0.0098,0.0098 0.02734,0.02734 0.01172,0.01172 0.002,0.002 0.0039,0.0039 0.01172,0.0098 0.0059,0.0059 0.002,0.002 0.0059,0.0059 0.0078,0.0078 0.0098,0.0098 0.0039,0.0039 0.01172,0.01172 0.002,0.002 v 0.002 l 0.002,0.002 0.002,0.002 0.01563,0.01367 0.0293,0.0293 0.01172,0.01367 0.0078,0.0078 0.002,0.002 0.0039,0.0039 0.0039,0.002 0.002,0.002 0.0039,0.0039 v 0.002 l 0.0039,0.0039 0.0078,0.0059 0.01953,0.01953 v 0.002 l 0.02734,0.02734 0.01758,0.01563 0.0078,0.0078 0.0078,0.0078 0.002,0.002 0.02734,0.02734 v 0.002 l 0.01367,0.01172 0.002,0.002 0.0059,0.0059 0.0059,0.0059 0.0039,0.0039 0.002,0.002 0.0098,0.0098 0.0078,0.0078 0.0059,0.0059 0.002,0.002 0.002,0.002 v 0.002 l 0.002,0.002 0.002,0.002 0.002,0.002 0.0059,0.0039 0.01172,0.01367 0.0059,0.0039 0.0078,0.0078 0.0078,0.0078 0.0039,0.0039 0.0059,0.0078 0.002,0.002 0.0039,0.002 0.0098,0.0098 0.002,0.002 v 0.002 l 0.0078,0.0078 0.0059,0.0059 0.002,0.002 0.01172,0.0098 0.002,0.002 0.0059,0.0059 0.0078,0.0078 0.002,0.002 0.002,0.002 v 0.002 l 0.002,0.002 0.002,0.002 h 0.002 l 0.03125,0.0332 0.04883,0.04883 0.0293,0.0293 0.0039,0.0039 0.002,0.002 0.01367,0.01172 0.03711,0.03906 0.05664,0.05469 0.04492,0.04492 0.03906,0.04102 0.0059,0.0039 0.0059,0.0059 0.0078,0.0098 0.01758,0.01563 0.0059,0.0078 0.0078,0.0059 0.0039,0.0059 0.01563,0.01367 0.002,0.002 V 25 l 0.01953,0.01953 0.04492,0.04297 0.0039,0.0039 0.0059,0.0059 0.0059,0.0059 0.0059,0.0059 0.002,0.002 v 0.002 l 0.0039,0.0039 0.0039,0.0039 0.0039,0.0039 0.0059,0.0059 0.04102,0.04102 0.002,0.002 0.002,0.002 0.002,0.002 0.0078,0.0078 0.0059,0.0059 0.002,0.002 0.002,0.002 0.0078,0.0059 0.002,0.002 0.002,0.002 0.0059,0.0059 0.0039,0.0039 0.0039,0.0039 v 0.002 l 0.03125,0.03125 0.03906,0.03906 0.01367,0.01367 0.01172,0.01172 0.002,0.002 0.002,0.002 0.002,0.002 0.002,0.002 0.0039,0.002 0.002,0.002 0.002,0.002 v 0.002 l 0.0039,0.0039 0.01758,0.01758 0.0039,0.0039 0.0039,0.0039 0.0039,0.0039 0.002,0.002 0.0039,0.0039 0.01172,0.01172 0.0039,0.002 0.0078,0.0078 0.04102,0.04102 v 0.002 l 0.002,0.002 0.002,0.002 0.03516,0.03516 0.03516,0.03516 0.0332,0.0332 0.0332,0.0332 0.02344,0.02344 0.002,0.002 0.0039,0.002 0.0039,0.0039 0.0625,0.0625 0.002,0.002 0.0039,0.0039 0.0078,0.0078 v 0.002 l 0.002,0.002 0.0039,0.0039 0.0039,0.0039 0.0039,0.0039 0.002,0.002 0.0293,0.0293 0.002,0.002 0.002,0.002 0.02344,0.02148 0.002,0.002 0.002,0.002 0.002,0.002 v 0.002 l 0.0078,0.0078 0.0039,0.0039 0.0039,0.0039 0.0039,0.0039 0.002,0.002 0.002,0.002 0.02344,0.02344 0.002,0.002 0.02344,0.02148 0.002,0.002 v 0.002 l 0.002,0.002 0.002,0.002 0.0059,0.0059 0.0039,0.0039 0.0078,0.0059 0.0078,0.0078 0.01758,0.01758 v 0.002 l 0.002,0.002 0.002,0.002 0.05078,0.04883 0.002,0.002 0.002,0.002 0.002,0.002 0.0039,0.0039 v 0.002 l 0.002,0.002 0.002,0.002 0.002,0.002 0.002,0.002 0.002,0.002 0.002,0.002 0.02148,0.02148 0.02148,0.02148 0.0039,0.0039 0.002,0.002 0.002,0.002 0.0059,0.0039 0.002,0.002 0.002,0.002 0.0039,0.0039 0.01953,0.01953 0.01758,0.01758 v 0.002 l 0.002,0.002 0.002,0.002 0.002,0.002 0.002,0.002 0.0078,0.0059 0.002,0.002 0.002,0.002 0.01758,0.01758 0.01563,0.01563 v 0.002 l 0.01563,0.01563 0.01563,0.01563 0.01367,0.01367 0.002,0.002 0.01172,0.0098 0.002,0.002 v 0.002 l 0.01172,0.01172 0.01367,0.01172 0.01172,0.01172 0.0098,0.0098 0.0098,0.01172 0.0098,0.0078 0.0078,0.0098 0.0078,0.0078 0.0078,0.0059 0.0059,0.0078 0.0059,0.0039 0.0039,0.0059 0.0059,0.0039 0.002,0.0039 0.0039,0.002 0.002,0.002 v 0.002 l 1.16211,-0.671875 C 29.392026,25.45591 29.503302,25.252843 29.503906,25 c 0,-0.0316 -0.01771,-0.05567 -0.02148,-0.08594 -0.01152,-0.0923 -0.02372,-0.184342 -0.06445,-0.261718 0,0 -0.002,-0.002 -0.002,-0.002 0,0 -0.002,-0.002 -0.002,-0.002 -8.73e-4,-0.0017 -0.003,-0.0022 -0.0039,-0.0039 -0.03347,-0.06191 -0.08382,-0.108344 -0.130859,-0.158203 -0.0048,-0.0051 -0.0088,-0.01069 -0.01367,-0.01563 -0.02247,-0.02264 -0.03597,-0.05457 -0.06055,-0.07422 l -0.002,-0.002 c 0,0 0,-0.002 0,-0.002 l -0.0039,-0.002 c -0.0011,-8.79e-4 -8.54e-4,-0.003 -0.002,-0.0039 l -0.0059,-0.0039 c -0.0018,-0.0014 -0.0021,-0.0044 -0.0039,-0.0059 l -0.0059,-0.0039 c -0.0025,-0.002 -0.0034,-0.0058 -0.0059,-0.0078 l -0.0078,-0.0059 -0.0039,-0.002 c -0.0018,-0.0015 -0.0021,-0.0044 -0.0039,-0.0059 -0.0032,-0.0026 -0.0046,-0.0072 -0.0078,-0.0098 l -0.0059,-0.0039 c -0.0052,-0.0044 -0.0084,-0.01141 -0.01367,-0.01563 l -0.0078,-0.0039 c -0.0018,-0.0014 -0.0021,-0.0044 -0.0039,-0.0059 -0.0039,-0.0032 -0.0058,-0.0086 -0.0098,-0.01172 l -0.0078,-0.0039 c -0.0025,-0.002 -0.0034,-0.0058 -0.0059,-0.0078 -0.0046,-0.0038 -0.0071,-0.01 -0.01172,-0.01367 l -0.0039,-0.002 c -0.0039,-0.0032 -0.0058,-0.0086 -0.0098,-0.01172 l -0.0078,-0.0039 c -0.0032,-0.0026 -0.0046,-0.0072 -0.0078,-0.0098 l -0.0059,-0.002 c -0.0042,-0.0035 -0.0055,-0.01025 -0.0098,-0.01367 l -0.0059,-0.0039 c -0.0038,-0.0033 -0.0059,-0.0085 -0.0098,-0.01172 l -0.002,-0.002 c -0.0052,-0.0044 -0.0083,-0.01139 -0.01367,-0.01563 l -0.0059,-0.0039 c -0.0046,-0.0038 -0.0071,-0.01 -0.01172,-0.01367 l -0.0098,-0.0059 c -0.0038,-0.0033 -0.0059,-0.0085 -0.0098,-0.01172 l -0.002,-0.002 c -0.0059,-0.005 -0.0096,-0.01278 -0.01563,-0.01758 l -0.0059,-0.0039 c -0.0053,-0.0044 -0.0083,-0.01137 -0.01367,-0.01563 l -0.0098,-0.0059 c -0.0046,-0.0038 -0.0071,-0.01 -0.01172,-0.01367 l -0.0078,-0.0039 c -0.0056,-0.0047 -0.0079,-0.01303 -0.01367,-0.01758 l -0.0078,-0.0039 c -0.0056,-0.0047 -0.0079,-0.01303 -0.01367,-0.01758 l -0.0039,-0.002 c -0.007,-0.0059 -0.01041,-0.0158 -0.01758,-0.02148 l -0.0078,-0.0039 c -0.0063,-0.0053 -0.0092,-0.01441 -0.01563,-0.01953 l -0.01172,-0.0059 c -0.0056,-0.0047 -0.0079,-0.01303 -0.01367,-0.01758 l -0.0039,-0.002 c -0.0077,-0.0066 -0.01166,-0.01718 -0.01953,-0.02344 l -0.01172,-0.0078 c -0.0059,-0.005 -0.0096,-0.01278 -0.01563,-0.01758 l -0.0059,-0.0039 c -0.0076,-0.0065 -0.01172,-0.01723 -0.01953,-0.02344 l -0.0098,-0.0059 c -0.0069,-0.0059 -0.01047,-0.01584 -0.01758,-0.02148 l -0.0078,-0.0059 c -0.0073,-0.0062 -0.01207,-0.01556 -0.01953,-0.02148 l -0.01172,-0.0078 c -0.0066,-0.0056 -0.01083,-0.01417 -0.01758,-0.01953 l -0.0098,-0.0059 c -0.0076,-0.0065 -0.01169,-0.01721 -0.01953,-0.02344 l -0.0059,-0.0039 c -0.009,-0.0078 -0.01418,-0.01999 -0.02344,-0.02734 l -0.0098,-0.0059 c -0.0083,-0.0071 -0.01297,-0.01863 -0.02148,-0.02539 l -0.0098,-0.0059 c -0.0083,-0.0072 -0.01293,-0.0186 -0.02148,-0.02539 l -0.01367,-0.0078 c -0.0076,-0.0065 -0.01169,-0.01721 -0.01953,-0.02344 l -0.0098,-0.0059 c -0.009,-0.0078 -0.01418,-0.01999 -0.02344,-0.02734 l -0.0078,-0.0039 c -0.01,-0.0087 -0.01508,-0.02306 -0.02539,-0.03125 l -0.01367,-0.0078 c -0.0083,-0.0072 -0.01293,-0.0186 -0.02148,-0.02539 l -0.01172,-0.0059 c -0.0093,-0.0081 -0.01379,-0.02164 -0.02344,-0.0293 l -0.0078,-0.0059 c -0.01026,-0.009 -0.01672,-0.02281 -0.02734,-0.03125 l -0.01172,-0.0078 c -0.0096,-0.0084 -0.01547,-0.02142 -0.02539,-0.0293 l -0.01172,-0.0078 c -0.0096,-0.0084 -0.01547,-0.02142 -0.02539,-0.0293 l -0.01563,-0.0098 c -0.009,-0.0078 -0.01418,-0.01999 -0.02344,-0.02734 l -0.01172,-0.0078 c -0.0103,-0.0091 -0.01667,-0.02277 -0.02734,-0.03125 l -0.0098,-0.0059 c -0.01127,-0.01 -0.01758,-0.02585 -0.0293,-0.03516 l -0.01563,-0.0098 c -0.0096,-0.0084 -0.01542,-0.02138 -0.02539,-0.0293 l -0.01367,-0.0078 c -0.01066,-0.0094 -0.01628,-0.02442 -0.02734,-0.0332 l -0.0098,-0.0059 c -0.01101,-0.0095 -0.01773,-0.02598 -0.03025,-0.03593 l -0.01367,-0.0078 c -0.01132,-0.01004 -0.01753,-0.02581 -0.0293,-0.03516 l -0.01367,-0.0078 c -0.01136,-0.01008 -0.01749,-0.02578 -0.0293,-0.03516 l -0.01562,-0.0078 c -0.01162,-0.01035 -0.0172,-0.0275 -0.0293,-0.03711 l -0.01563,-0.0078 c -0.01162,-0.01035 -0.0172,-0.0275 -0.0293,-0.03711 l -0.01563,-0.0078 c -0.01171,-0.01044 -0.0171,-0.02742 -0.0293,-0.03711 l -0.01563,-0.0078 c -0.01232,-0.01104 -0.01839,-0.02885 -0.03125,-0.03906 l -0.01563,-0.0098 c -0.01201,-0.01073 -0.01873,-0.02717 -0.03125,-0.03711 l -0.01953,-0.01172 c -0.01132,-0.01004 -0.01753,-0.02581 -0.0293,-0.03516 l -0.01563,-0.0098 c -0.01261,-0.01134 -0.02002,-0.02859 -0.0332,-0.03906 l -0.01367,-0.0078 c -0.01355,-0.0123 -0.02095,-0.03168 -0.03516,-0.04297 l -0.01953,-0.01172 c -0.01197,-0.01069 -0.01878,-0.0272 -0.03125,-0.03711 l -0.01563,-0.0098 c -0.01326,-0.012 -0.02127,-0.02999 -0.03516,-0.04102 l -0.01367,-0.0078 c -0.01424,-0.01302 -0.02213,-0.03302 -0.03711,-0.04492 l -0.01758,-0.0098 c -0.01355,-0.0123 -0.02094,-0.03168 -0.03516,-0.04297 l -0.01758,-0.0098 c -0.0136,-0.01236 -0.02088,-0.03163 -0.03516,-0.04297 l -0.02148,-0.01172 c -0.01296,-0.0117 -0.01964,-0.03024 -0.0332,-0.04102 l -0.01758,-0.0098 c -0.01424,-0.01302 -0.02213,-0.03302 -0.03711,-0.04492 l -0.01563,-0.0078 c -0.01516,-0.01399 -0.02306,-0.03612 -0.03906,-0.04883 l -0.02148,-0.01172 c -0.0136,-0.01236 -0.02088,-0.03163 -0.03516,-0.04297 l -0.01758,-0.0098 c -0.01487,-0.01369 -0.02337,-0.03442 -0.03906,-0.04688 l -0.01563,-0.0078 c -0.01584,-0.01474 -0.02423,-0.03745 -0.04102,-0.05078 L 26.927734,22.125 c -0.01481,-0.01363 -0.02344,-0.03447 -0.03906,-0.04687 l -0.01953,-0.01172 c -0.01493,-0.01375 -0.02332,-0.03437 -0.03906,-0.04687 l -0.02344,-0.01367 c -0.01424,-0.01302 -0.02213,-0.03302 -0.03711,-0.04492 L 26.75,21.949219 c -0.0155,-0.01437 -0.02462,-0.03581 -0.04102,-0.04883 l -0.01563,-0.0098 c -0.01675,-0.01573 -0.02711,-0.03859 -0.04492,-0.05273 l -0.02148,-0.01172 c -0.01578,-0.01466 -0.02431,-0.03751 -0.04102,-0.05078 l -0.02148,-0.01172 c -0.01578,-0.01466 -0.02431,-0.03751 -0.04102,-0.05078 L 26.5,21.699219 c -0.0155,-0.01437 -0.02462,-0.03581 -0.04102,-0.04883 l -0.02148,-0.01172 c -0.01647,-0.01542 -0.02548,-0.03884 -0.04297,-0.05273 l -0.02148,-0.01172 c -0.01647,-0.01542 -0.02548,-0.03884 -0.04297,-0.05273 l -0.01758,-0.0098 c -0.01776,-0.01686 -0.0279,-0.04157 -0.04687,-0.05664 l -0.02539,-0.01367 c -0.01647,-0.01542 -0.02548,-0.03885 -0.04297,-0.05273 l -0.02148,-0.01172 c -0.01709,-0.0161 -0.02672,-0.04024 -0.04492,-0.05469 l -0.02148,-0.01367 c -0.01737,-0.01642 -0.02836,-0.03998 -0.04687,-0.05469 l -0.02148,-0.01367 c -0.01737,-0.01642 -0.02836,-0.03998 -0.04687,-0.05469 l -0.01953,-0.01172 c -0.01838,-0.01756 -0.02914,-0.04296 -0.04883,-0.05859 l -0.02344,-0.01367 c -0.01776,-0.01686 -0.0279,-0.04157 -0.04687,-0.05664 l -0.02539,-0.01563 c -0.01737,-0.01642 -0.02836,-0.03998 -0.04687,-0.05469 l -0.01953,-0.01172 c -0.01899,-0.01826 -0.03039,-0.04435 -0.05078,-0.06055 l -0.02344,-0.01367 c -0.01838,-0.01756 -0.02914,-0.04296 -0.04883,-0.05859 l -0.02734,-0.01563 c -0.0177,-0.01679 -0.02797,-0.04163 -0.04687,-0.05664 l -0.02344,-0.01367 c -0.01892,-0.01819 -0.03046,-0.04441 -0.05078,-0.06055 l -0.02344,-0.01367 c -0.01892,-0.01819 -0.03046,-0.04441 -0.05078,-0.06055 l -0.02148,-0.01172 c -0.01992,-0.01936 -0.03124,-0.04739 -0.05273,-0.06445 l -0.02539,-0.01367 c -0.01932,-0.01865 -0.03,-0.046 -0.05078,-0.0625 l -0.02734,-0.01563 c -0.01892,-0.01819 -0.03046,-0.04441 -0.05078,-0.06055 l -0.02539,-0.01367 c -0.01985,-0.01928 -0.03132,-0.04745 -0.05273,-0.06445 L 25.086,20.289029 c -0.01985,-0.01928 -0.03132,-0.04745 -0.05273,-0.06445 l -0.02344,-0.01367 c -0.02037,-0.01989 -0.03267,-0.04892 -0.05469,-0.06641 l -0.02734,-0.01563 c -0.01977,-0.01919 -0.03142,-0.04752 -0.05273,-0.06445 l -0.02539,-0.01563 c -0.02012,-0.0196 -0.03295,-0.04719 -0.05469,-0.06445 l -0.0293,-0.01758 c -0.01952,-0.01889 -0.03171,-0.0458 -0.05273,-0.0625 l -0.02734,-0.01563 c -0.02045,-0.01999 -0.03257,-0.04884 -0.05469,-0.06641 l -0.02344,-0.01367 c -0.02163,-0.02143 -0.03506,-0.05162 -0.05859,-0.07031 l -0.02734,-0.01563 c -0.02096,-0.02061 -0.03391,-0.05031 -0.05664,-0.06836 l -0.02734,-0.01563 c -0.02104,-0.02071 -0.03381,-0.05023 -0.05664,-0.06836 l -0.03125,-0.01758 c -0.02045,-0.01999 -0.03257,-0.04884 -0.05469,-0.06641 l -0.02734,-0.01563 c -0.02163,-0.02143 -0.03506,-0.05162 -0.05859,-0.07031 l -0.02734,-0.01563 c -0.02163,-0.02143 -0.03506,-0.05162 -0.05859,-0.07031 l -0.02734,-0.01563 c -0.02221,-0.02216 -0.0363,-0.05301 -0.06055,-0.07227 l -0.02734,-0.01562 c -0.02221,-0.02216 -0.0363,-0.05301 -0.06055,-0.07227 l -0.02539,-0.01563 c -0.0227,-0.02277 -0.03766,-0.05449 -0.0625,-0.07422 l -0.03125,-0.01758 c -0.02163,-0.02143 -0.03506,-0.05162 -0.05859,-0.07031 l -0.02734,-0.01563 c -0.02302,-0.02317 -0.03728,-0.05614 -0.0625,-0.07617 l -0.0332,-0.01953 c -0.02163,-0.02143 -0.03506,-0.05162 -0.05859,-0.07031 l -0.0293,-0.01758 c -0.02279,-0.02289 -0.03755,-0.05441 -0.0625,-0.07422 l -0.02734,-0.01563 c -0.02359,-0.0239 -0.03853,-0.05754 -0.06445,-0.07813 l -0.0332,-0.01953 c -0.02221,-0.02216 -0.0363,-0.05301 -0.06055,-0.07227 l -0.0293,-0.01758 c -0.02337,-0.02362 -0.0388,-0.0558 -0.06445,-0.07617 l -0.02734,-0.01563 c -0.02425,-0.02477 -0.03966,-0.05884 -0.06641,-0.08008 l -0.03125,-0.01758 c -0.02359,-0.0239 -0.03853,-0.05754 -0.06445,-0.07813 l -0.03125,-0.01758 c -0.02376,-0.02413 -0.03831,-0.05737 -0.06445,-0.07813 l -0.03516,-0.01953 c -0.02311,-0.02329 -0.03716,-0.05605 -0.0625,-0.07617 l -0.03125,-0.01758 c -0.02425,-0.02477 -0.03966,-0.05884 -0.06641,-0.08008 l -0.0293,-0.01758 c -0.0249,-0.02562 -0.0408,-0.06015 -0.06836,-0.08203 l -0.0332,-0.01953 c -0.02416,-0.02464 -0.03978,-0.05893 -0.06641,-0.08008 l -0.03125,-0.01758 c -0.02482,-0.02552 -0.0409,-0.06023 -0.06836,-0.08203 l -0.03516,-0.02148 c -0.02394,-0.02436 -0.04004,-0.05719 -0.06641,-0.07813 l -0.0332,-0.01953 c -0.02482,-0.02552 -0.0409,-0.06023 -0.06836,-0.08203 l -0.0332,-0.01953 c -0.02482,-0.02551 -0.0409,-0.06023 -0.06836,-0.08203 l -0.0332,-0.01953 c -0.02538,-0.02627 -0.04215,-0.06162 -0.07031,-0.08398 l -0.0332,-0.01953 c -0.02538,-0.02627 -0.04215,-0.06162 -0.07031,-0.08398 l -0.03125,-0.01758 c -0.02614,-0.0273 -0.04314,-0.06476 -0.07227,-0.08789 l -0.03711,-0.02148 c -0.02482,-0.02552 -0.0409,-0.06023 -0.06836,-0.08203 l -0.03125,-0.01758 c -0.02668,-0.02806 -0.04439,-0.06615 -0.07422,-0.08984 l -0.03711,-0.02148 c -0.02538,-0.02627 -0.04215,-0.06162 -0.07031,-0.08398 l -0.03125,-0.01758 c -0.02687,-0.02832 -0.04414,-0.06596 -0.07422,-0.08984 l -0.03906,-0.02148 c -0.02568,-0.02668 -0.04176,-0.06327 -0.07031,-0.08594 l -0.0332,-0.01953 c -0.02687,-0.02832 -0.04414,-0.06596 -0.07422,-0.08984 l -0.03906,-0.02148 c -0.02624,-0.02744 -0.04301,-0.06466 -0.07227,-0.08789 l -0.0332,-0.01953 c -0.02723,-0.02882 -0.04564,-0.06755 -0.07617,-0.0918 l -0.03906,-0.02148 c -0.02624,-0.02744 -0.04301,-0.06466 -0.07227,-0.08789 l -0.0332,-0.01953 c -0.02776,-0.02959 -0.04688,-0.06894 -0.07813,-0.09375 l -0.03906,-0.02344 c -0.02649,-0.02778 -0.04464,-0.0644 -0.07422,-0.08789 l -0.03711,-0.02148 c -0.02733,-0.02897 -0.0455,-0.06744 -0.07617,-0.0918 l -0.03516,-0.01953 c -0.02806,-0.03001 -0.0465,-0.07059 -0.07813,-0.0957 l -0.04102,-0.02344 c -0.02679,-0.0282 -0.04425,-0.06605 -0.07422,-0.08984 l -0.03711,-0.02148 c -0.02787,-0.02974 -0.04675,-0.06883 -0.07813,-0.09375 l -0.03516,-0.01953 c -0.02879,-0.03108 -0.04748,-0.07177 -0.08008,-0.09766 l -0.03711,-0.02149 c -0.02841,-0.03052 -0.04799,-0.07022 -0.08008,-0.0957 l -0.04102,-0.02344 c -0.02787,-0.02974 -0.04675,-0.06883 -0.07813,-0.09375 l -0.03516,-0.02149 c -0.02883,-0.03113 -0.04938,-0.07173 -0.08203,-0.09766 l -0.03906,-0.02344 c -0.0283,-0.03036 -0.04813,-0.07034 -0.08008,-0.0957 l -0.04102,-0.02344 c -0.02841,-0.03052 -0.04799,-0.07022 -0.08008,-0.0957 l -0.03711,-0.02149 c -0.02932,-0.03186 -0.04873,-0.07316 -0.08203,-0.09961 l -0.04297,-0.02539 c -0.02841,-0.03052 -0.04799,-0.07022 -0.08008,-0.0957 l -0.03711,-0.02148 c -0.02964,-0.03234 -0.05025,-0.07477 -0.08398,-0.101563 l -0.04102,-0.02344 c -0.02912,-0.03156 -0.049,-0.07338 -0.08203,-0.09961 l -0.03906,-0.02344 c -0.02946,-0.03208 -0.05048,-0.07301 -0.08398,-0.09961 l -0.04102,-0.02344 c -0.02964,-0.03234 -0.05025,-0.07477 -0.08398,-0.101562 l -0.04102,-0.02344 c -0.02964,-0.03234 -0.05025,-0.07477 -0.08398,-0.101562 l -0.04102,-0.02344 c -0.02984,-0.03265 -0.04997,-0.07455 -0.08398,-0.101562 l -0.04102,-0.02344 c -0.03027,-0.03331 -0.05134,-0.07604 -0.08594,-0.103516 l -0.04297,-0.02344 c -0.03013,-0.03309 -0.04958,-0.0762 -0.08398,-0.103516 l -0.04297,-0.02539 c -0.03016,-0.03313 -0.0515,-0.07617 -0.08594,-0.103516 l -0.04297,-0.02539 c -0.03016,-0.03313 -0.0515,-0.07616 -0.08594,-0.103515 l -0.04297,-0.02539 C 17.89158,13.095367 17.87073,13.052877 17.836,13.025302 L 17.792969,13 c -0.03067,-0.03392 -0.05275,-0.07756 -0.08789,-0.105469 l -0.04102,-0.02344 c -0.03129,-0.0349 -0.05383,-0.07883 -0.08984,-0.107422 l -0.04492,-0.02539 c -0.03078,-0.0341 -0.05259,-0.07743 -0.08789,-0.105469 l -0.04297,-0.02539 c -0.0313,-0.0349 -0.05383,-0.07883 -0.08984,-0.107422 l -0.04297,-0.02539 c -0.03129,-0.0349 -0.05383,-0.07883 -0.08984,-0.107421 l -0.04102,-0.02344 c -0.03217,-0.03631 -0.05456,-0.08175 -0.0918,-0.111328 l -0.04492,-0.02539 c -0.03167,-0.0355 -0.05331,-0.08036 -0.08984,-0.109375 l -0.04687,-0.02734 c -0.03129,-0.0349 -0.05383,-0.07883 -0.08984,-0.107421 l -0.04492,-0.02539 c -0.03207,-0.03615 -0.05469,-0.08186 -0.0918,-0.111328 l -0.04492,-0.02539 c -0.03207,-0.03615 -0.05469,-0.08186 -0.0918,-0.111328 l -0.04102,-0.02344 c -0.03306,-0.03778 -0.05719,-0.08465 -0.0957,-0.115235 l -0.04492,-0.02734 c -0.03218,-0.03632 -0.05649,-0.08174 -0.09375,-0.111329 l -0.04687,-0.02734 c -0.03217,-0.03631 -0.05456,-0.08175 -0.0918,-0.111328 l -0.04687,-0.02734 c -0.03245,-0.03677 -0.05611,-0.08339 -0.09375,-0.113282 l -0.04687,-0.02734 c -0.03245,-0.03677 -0.05611,-0.08339 -0.09375,-0.113281 l -0.04883,-0.02734 c -0.03257,-0.03696 -0.05594,-0.08326 -0.09375,-0.113282 l -0.04297,-0.02539 c -0.03365,-0.03877 -0.05829,-0.08592 -0.09766,-0.117188 l -0.04883,-0.0293 c -0.0328,-0.03733 -0.05757,-0.083 -0.0957,-0.113282 l -0.04492,-0.02539 c -0.0337,-0.03884 -0.05822,-0.08783 -0.09766,-0.119141 l -0.04687,-0.02734 c -0.03343,-0.03839 -0.05861,-0.08618 -0.09766,-0.117187 L 15.039062,10.25 c -0.03343,-0.03839 -0.05665,-0.08618 -0.0957,-0.117188 l -0.04883,-0.02734 c -0.0337,-0.03884 -0.05822,-0.08782 -0.09766,-0.1191409 L 14.75,9.9589844 C 14.71597,9.9195614 14.69032,9.8715544 14.65039,9.8398438 L 14.59961,9.8105468 C 14.56606,9.7719488 14.54118,9.7245078 14.50195,9.6933593 L 14.45508,9.6660153 C 14.42057,9.6257633 14.39416,9.5771943 14.353518,9.5449216 L 13.203125,8.8789062 13.082031,9 12.910156,8.900391 l 0.03906,-0.039063 -0.1875,-0.1074219 0.04101,-0.041016 -0.1875,-0.109375 0.03906,-0.039063 z"
       id="path4280"
       style="fill:url(#linearGradient5128);fill-opacity:1"
       clip-path="url(#clipPath5133)"
       inkscape:connector-curvature="0" />
    <path
       style="fill:none"
       inkscape:connector-curvature="0"
       id="path4"
       d="M 3.9999777,4.0333382 H 15.999978 V 15.966671 H 3.9999777 Z" />
    <path
       d="m 18.999978,19.033339 h 12 v 11.933333 h -12 z"
       id="path9754"
       inkscape:connector-curvature="0"
       style="fill:none" />
    <path
       id="path5151"
       d="M 5.494924,14.314721 V 5.6852792 C 5.494924,5.3857868 5.667513,5.1218274 5.92132,5 l 5,5 -5,5 C 5.667513,14.873096 5.494924,14.614213 5.494924,14.314721 m 7.010152,-2.730965 -5.461929,3.157361 4.309645,-4.309645 1.152284,1.152284 M 14.205584,9.3959391 C 14.378173,9.5329949 14.505076,9.746193 14.505076,10 c 0,0.253807 -0.111675,0.456853 -0.28934,0.598985 L 13.0533,11.269036 11.784264,10 13.0533,8.7309644 14.205584,9.3959391 M 7.043147,5.2588832 12.505076,8.4162436 11.352792,9.5685279 Z"
       inkscape:connector-curvature="0"
       style="fill:#d32f2f" />
    <path
       inkscape:connector-curvature="0"
       d="M 5.494924,14.314721 V 5.6852792 C 5.494924,5.3857868 5.667513,5.1218274 5.92132,5 l 5,5 -5,5 C 5.667513,14.873096 5.494924,14.614213 5.494924,14.314721 m 7.010152,-2.730965 -5.461929,3.157361 4.309645,-4.309645 1.152284,1.152284 M 14.205584,9.3959391 C 14.378173,9.5329949 14.505076,9.746193 14.505076,10 c 0,0.253807 -0.111675,0.456853 -0.28934,0.598985 L 13.0533,11.269036 11.784264,10 13.0533,8.7309644 14.205584,9.3959391 M 7.043147,5.2588832 12.505076,8.4162436 11.352792,9.5685279 Z"
       id="path4225"
       style="fill:#f44336"
       clip-path="url(#clipPath5155)" />
    <path
       id="path5137"
       d="M 5.494924,14.314721 V 5.6852792 C 5.494924,5.3857868 5.667513,5.1218274 5.92132,5 l 5,5 -5,5 C 5.667513,14.873096 5.494924,14.614213 5.494924,14.314721 m 7.010152,-2.730965 -5.461929,3.157361 4.309645,-4.309645 1.152284,1.152284 M 14.205584,9.3959391 C 14.378173,9.5329949 14.505076,9.746193 14.505076,10 c 0,0.253807 -0.111675,0.456853 -0.28934,0.598985 L 13.0533,11.269036 11.784264,10 13.0533,8.7309644 14.205584,9.3959391 M 7.043147,5.2588832 12.505076,8.4162436 11.352792,9.5685279 Z"
       inkscape:connector-curvature="0"
       style="fill:#2196f3"
       clip-path="url(#clipPath5147)" />
    <path
       style="fill:#ffeb3b"
       inkscape:connector-curvature="0"
       d="M 5.494924,14.314721 V 5.6852792 C 5.494924,5.3857868 5.667513,5.1218274 5.92132,5 l 5,5 -5,5 C 5.667513,14.873096 5.494924,14.614213 5.494924,14.314721 m 7.010152,-2.730965 -5.461929,3.157361 4.309645,-4.309645 1.152284,1.152284 M 14.205584,9.3959391 C 14.378173,9.5329949 14.505076,9.746193 14.505076,10 c 0,0.253807 -0.111675,0.456853 -0.28934,0.598985 L 13.0533,11.269036 11.784264,10 13.0533,8.7309644 14.205584,9.3959391 M 7.043147,5.2588832 12.505076,8.4162436 11.352792,9.5685279 Z"
       id="path5159"
       clip-path="url(#clipPath5163)" />
  </g>
</svg>
