<?xml version="1.0" encoding="UTF-8" standalone="no"?>
<!-- Created with Inkscape (http://www.inkscape.org/) -->

<svg
   xmlns:dc="http://purl.org/dc/elements/1.1/"
   xmlns:cc="http://creativecommons.org/ns#"
   xmlns:rdf="http://www.w3.org/1999/02/22-rdf-syntax-ns#"
   xmlns:svg="http://www.w3.org/2000/svg"
   xmlns="http://www.w3.org/2000/svg"
   xmlns:xlink="http://www.w3.org/1999/xlink"
   xmlns:sodipodi="http://sodipodi.sourceforge.net/DTD/sodipodi-0.dtd"
   xmlns:inkscape="http://www.inkscape.org/namespaces/inkscape"
   sodipodi:docname="Puzzles.svg"
   inkscape:version="0.91 r13725"
   version="1.1"
   id="svg2"
   viewBox="0 0 20 20"
   height="5.6444445mm"
   width="5.6444445mm"
   inkscape:export-filename="/home/juergen/Schreibtisch/qdad.png"
   inkscape:export-xdpi="648"
   inkscape:export-ydpi="648">
  <sodipodi:namedview
     inkscape:snap-to-guides="false"
     inkscape:snap-grids="false"
     inkscape:window-maximized="1"
     inkscape:window-y="0"
     inkscape:window-x="0"
     inkscape:window-height="726"
     inkscape:window-width="1366"
     inkscape:guide-bbox="true"
     showguides="true"
     fit-margin-bottom="0"
     fit-margin-right="0"
     fit-margin-left="0"
     fit-margin-top="0"
     showgrid="true"
     inkscape:current-layer="layer2"
     inkscape:document-units="px"
     inkscape:cy="10.611674"
     inkscape:cx="11.936141"
     inkscape:zoom="15.839192"
     inkscape:pageshadow="2"
     inkscape:pageopacity="0.0"
     borderopacity="1.0"
     bordercolor="#666666"
     pagecolor="#ffffff"
     id="base">
    <inkscape:grid
       id="grid4138"
       type="xygrid" />
    <sodipodi:guide
       id="guide4140"
       orientation="0,1"
       position="10,18" />
    <sodipodi:guide
       id="guide4142"
       orientation="0,1"
       position="10,2" />
    <sodipodi:guide
       id="guide4144"
       orientation="1,0"
       position="2,10" />
    <sodipodi:guide
       id="guide4146"
       orientation="0,20"
       position="0,0" />
    <sodipodi:guide
       id="guide4148"
       orientation="-20,0"
       position="20,0" />
    <sodipodi:guide
       id="guide4150"
       orientation="0,-20"
       position="20,20" />
    <sodipodi:guide
       id="guide4152"
       orientation="20,0"
       position="0,20" />
    <sodipodi:guide
       id="guide4154"
       orientation="1,0"
       position="18,10" />
    <sodipodi:guide
       id="guide4156"
       orientation="-0.70710678,0.70710678"
       position="10,10" />
    <sodipodi:guide
       id="guide4158"
       orientation="0.70710678,0.70710678"
       position="10,10" />
    <sodipodi:guide
       id="guide4160"
       orientation="1,0"
       position="4,10" />
    <sodipodi:guide
       id="guide4162"
       orientation="1,0"
       position="16,10" />
    <sodipodi:guide
       id="guide4164"
       orientation="0,1"
       position="10,16" />
    <sodipodi:guide
       id="guide4166"
       orientation="0,1"
       position="10,4" />
    <sodipodi:guide
       id="guide4168"
       orientation="0,1"
       position="10,15" />
    <sodipodi:guide
       id="guide4170"
       orientation="0,1"
       position="10,5" />
    <sodipodi:guide
       id="guide4172"
       orientation="1,0"
       position="5,10" />
    <sodipodi:guide
       id="guide4174"
       orientation="1,0"
       position="15,10" />
  </sodipodi:namedview>
  <defs
     id="defs4">
    <linearGradient
       inkscape:collect="always"
       id="linearGradient5071">
      <stop
         style="stop-color:#000000;stop-opacity:1;"
         offset="0"
         id="stop5073" />
      <stop
         style="stop-color:#000000;stop-opacity:0;"
         offset="1"
         id="stop5075" />
    </linearGradient>
    <clipPath
       clipPathUnits="userSpaceOnUse"
       id="clipPath12478">
      <circle
         style="opacity:1;fill:#2196f3;fill-opacity:1;stroke:none;stroke-width:0.05069799;stroke-miterlimit:4;stroke-dasharray:none;stroke-opacity:1"
         id="circle12480"
         cx="9.9999781"
         cy="10.000005"
         r="10" />
    </clipPath>
    <clipPath
       id="clipPath13251"
       clipPathUnits="userSpaceOnUse">
      <circle
         inkscape:export-ydpi="648"
         inkscape:export-xdpi="648"
         inkscape:export-filename="/home/juergen/path4136.png"
         style="opacity:1;fill:#2196f3;fill-opacity:1;stroke:none;stroke-width:0.05069799;stroke-miterlimit:4;stroke-dasharray:none;stroke-opacity:1"
         id="circle13253"
         cx="9.9999781"
         cy="10.000005"
         r="10" />
    </clipPath>
    <clipPath
       clipPathUnits="userSpaceOnUse"
       id="clipPath5054">
      <circle
         inkscape:export-ydpi="648"
         inkscape:export-xdpi="648"
         inkscape:export-filename="/home/juergen/path4136.png"
         style="opacity:1;fill:#2196f3;fill-opacity:1;stroke:none;stroke-width:0.05069799;stroke-miterlimit:4;stroke-dasharray:none;stroke-opacity:1"
         id="circle5056"
         cx="9.9999781"
         cy="10.000005"
         r="10" />
    </clipPath>
    <clipPath
       id="clipPath5149"
       clipPathUnits="userSpaceOnUse">
      <circle
         inkscape:export-ydpi="648"
         inkscape:export-xdpi="648"
         inkscape:export-filename="/home/juergen/Schreibtisch/qqq.png"
         style="opacity:1;fill:#3f51b5;fill-opacity:1;stroke:none;stroke-width:0.05069799;stroke-miterlimit:4;stroke-dasharray:none;stroke-opacity:1"
         id="circle5151"
         cx="9.9999781"
         cy="10.000005"
         r="10" />
    </clipPath>
    <clipPath
       clipPathUnits="userSpaceOnUse"
       id="clipPath6126">
      <circle
         inkscape:export-ydpi="648"
         inkscape:export-xdpi="648"
         inkscape:export-filename="/home/juergen/Schreibtisch/qqq.png"
         style="opacity:1;fill:#9ccc65;fill-opacity:1;stroke:none;stroke-width:0.05069799;stroke-miterlimit:4;stroke-dasharray:none;stroke-opacity:1"
         id="circle6128"
         cx="9.9999781"
         cy="10.000005"
         r="10" />
    </clipPath>
    <clipPath
       id="clipPath7107"
       clipPathUnits="userSpaceOnUse">
      <circle
         inkscape:export-ydpi="648"
         inkscape:export-xdpi="648"
         inkscape:export-filename="/home/juergen/Schreibtisch/qqq.png"
         style="opacity:1;fill:#f44336;fill-opacity:1;stroke:none;stroke-width:0.05069799;stroke-miterlimit:4;stroke-dasharray:none;stroke-opacity:1"
         id="circle7109"
         cx="9.9999781"
         cy="10.000005"
         r="10" />
    </clipPath>
    <clipPath
       clipPathUnits="userSpaceOnUse"
       id="clipPath8092">
      <circle
         inkscape:export-ydpi="648"
         inkscape:export-xdpi="648"
         inkscape:export-filename="/home/juergen/Schreibtisch/qqq.png"
         style="opacity:1;fill:#00bcd4;fill-opacity:1;stroke:none;stroke-width:0.05069799;stroke-miterlimit:4;stroke-dasharray:none;stroke-opacity:1"
         id="circle8094"
         cx="9.9999781"
         cy="10.000005"
         r="10" />
    </clipPath>
    <clipPath
       id="clipPath5132"
       clipPathUnits="userSpaceOnUse">
      <circle
         inkscape:export-ydpi="648"
         inkscape:export-xdpi="648"
         inkscape:export-filename="/home/juergen/Schreibtisch/qqq.png"
         style="opacity:1;fill:#009688;fill-opacity:1;stroke:none;stroke-width:0.05069799;stroke-miterlimit:4;stroke-dasharray:none;stroke-opacity:1"
         id="circle5134"
         cx="9.9999781"
         cy="10.000005"
         r="10" />
    </clipPath>
    <linearGradient
       inkscape:collect="always"
       xlink:href="#linearGradient5071"
       id="linearGradient5077"
       x1="10"
       y1="10"
       x2="20"
       y2="20"
       gradientUnits="userSpaceOnUse" />
    <clipPath
       clipPathUnits="userSpaceOnUse"
       id="clipPath5082">
      <circle
         inkscape:export-ydpi="648"
         inkscape:export-xdpi="648"
         inkscape:export-filename="/home/juergen/Schreibtisch/qqq.png"
         style="opacity:1;fill:#009688;fill-opacity:1;stroke:none;stroke-width:0.05069799;stroke-miterlimit:4;stroke-dasharray:none;stroke-opacity:1"
         id="circle5084"
         cx="9.9999781"
         cy="10.000005"
         r="10" />
    </clipPath>
  </defs>
  <metadata
     id="metadata7">
    <rdf:RDF>
      <cc:Work
         rdf:about="">
        <dc:format>image/svg+xml</dc:format>
        <dc:type
           rdf:resource="http://purl.org/dc/dcmitype/StillImage" />
        <dc:title />
      </cc:Work>
    </rdf:RDF>
  </metadata>
  <g
     transform="translate(1058.1428,-861.93365)"
     id="layer1"
     inkscape:groupmode="layer"
     inkscape:label="Hintergrund">
    <circle
       r="10"
       cy="871.93365"
       cx="-1048.1428"
       id="path4136"
       style="opacity:1;fill:#009688;fill-opacity:1;stroke:none;stroke-width:0.05069799;stroke-miterlimit:4;stroke-dasharray:none;stroke-opacity:1"
       inkscape:export-filename="/home/juergen/Schreibtisch/qqq.png"
       inkscape:export-xdpi="648"
       inkscape:export-ydpi="648" />
  </g>
  <g
     inkscape:label="Icon"
     id="layer2"
     inkscape:groupmode="layer"
     style="display:inline">
    <path
       style="fill:url(#linearGradient5077);fill-opacity:1;opacity:0.2"
       d="M 7.421875 6.2851562 L 7.421875 8.5585938 L 5.1484375 8.5585938 L 5.1484375 11.740234 L 5.296875 11.740234 L 5.296875 11.888672 L 5.4453125 11.888672 L 5.4453125 12.035156 L 5.5917969 12.035156 L 5.5917969 12.181641 L 5.7363281 12.181641 L 5.7363281 12.328125 L 5.8828125 12.328125 L 5.8828125 12.472656 L 6.0273438 12.472656 L 6.0273438 12.617188 L 6.1699219 12.617188 L 6.1699219 12.761719 L 6.3125 12.761719 L 6.3125 12.904297 L 6.4550781 12.904297 L 6.4550781 13.046875 L 6.5976562 13.046875 L 6.5976562 13.1875 L 6.7382812 13.1875 L 6.7382812 13.328125 L 6.8769531 13.328125 L 6.8769531 13.46875 L 7.0175781 13.46875 L 7.0175781 13.607422 L 7.1542969 13.607422 L 7.1542969 13.746094 L 7.2929688 13.746094 L 7.2929688 13.884766 L 7.4296875 13.884766 L 7.4296875 14.021484 L 7.5664062 14.021484 L 7.5664062 14.15625 L 7.7011719 14.15625 L 7.7011719 14.292969 L 7.8359375 14.292969 L 7.8359375 14.427734 L 7.9707031 14.427734 L 7.9707031 14.560547 L 8.1035156 14.560547 L 8.1035156 14.695312 L 8.2363281 14.695312 L 8.2363281 14.828125 L 8.3691406 14.828125 L 8.3691406 14.958984 L 8.5 14.958984 L 8.5 15.089844 L 8.6289062 15.089844 L 8.6289062 15.220703 L 8.7597656 15.220703 L 8.7597656 15.349609 L 8.8886719 15.349609 L 8.8886719 15.478516 L 9.015625 15.478516 L 9.015625 15.607422 L 9.1425781 15.607422 L 9.1425781 15.734375 L 9.2695312 15.734375 L 9.2695312 15.861328 L 9.3964844 15.861328 L 9.3964844 15.986328 L 9.5214844 15.986328 L 9.5214844 16.111328 L 9.6445312 16.111328 L 9.6445312 16.236328 L 9.7695312 16.236328 L 9.7695312 16.359375 L 9.8925781 16.359375 L 9.8925781 16.482422 L 10.013672 16.482422 L 10.013672 16.605469 L 10.134766 16.605469 L 10.134766 16.726562 L 10.255859 16.726562 L 10.255859 16.847656 L 10.376953 16.847656 L 10.376953 16.966797 L 10.496094 16.966797 L 10.496094 17.085938 L 10.613281 17.085938 L 10.613281 17.205078 L 10.730469 17.205078 L 10.730469 17.322266 L 10.847656 17.322266 L 10.847656 17.439453 L 10.964844 17.439453 L 10.964844 17.554688 L 11.080078 17.554688 L 11.080078 17.671875 L 11.195312 17.671875 L 11.195312 17.785156 L 11.308594 17.785156 L 11.308594 17.900391 L 11.421875 17.900391 L 11.421875 18.013672 L 11.535156 18.013672 L 11.535156 18.125 L 11.646484 18.125 L 11.646484 18.236328 L 11.757812 18.236328 L 11.757812 18.347656 L 11.867188 18.347656 L 11.867188 18.458984 L 11.976562 18.458984 L 11.976562 18.568359 L 12.085938 18.568359 L 12.085938 18.675781 L 12.193359 18.675781 L 12.193359 18.785156 L 12.300781 18.785156 L 12.300781 18.892578 L 12.408203 18.892578 L 12.408203 18.998047 L 12.513672 18.998047 L 12.513672 19.103516 L 12.619141 19.103516 L 12.619141 19.208984 L 12.722656 19.208984 L 12.722656 19.314453 L 12.826172 19.314453 L 12.826172 19.417969 L 12.929688 19.417969 L 12.929688 19.519531 L 13.03125 19.519531 L 13.03125 19.623047 L 13.132812 19.623047 L 13.132812 19.724609 L 13.234375 19.724609 L 13.234375 19.824219 L 13.333984 19.824219 L 13.333984 19.923828 L 13.431641 19.923828 L 13.431641 20.023438 L 13.53125 20.023438 L 13.53125 20.121094 L 13.628906 20.121094 L 13.628906 20.21875 L 13.724609 20.21875 L 13.724609 20.316406 L 13.822266 20.316406 L 13.822266 20.412109 L 13.916016 20.412109 L 13.916016 20.507812 L 14.011719 20.507812 L 14.011719 20.603516 L 14.105469 20.603516 L 14.105469 20.697266 L 14.199219 20.697266 L 14.199219 20.789062 L 14.291016 20.789062 L 14.291016 20.882812 L 14.382812 20.882812 L 14.382812 20.974609 L 14.474609 20.974609 L 14.474609 21.064453 L 14.564453 21.064453 L 14.564453 21.154297 L 14.654297 21.154297 L 14.654297 21.244141 L 14.742188 21.244141 L 14.742188 21.333984 L 14.830078 21.333984 L 14.830078 21.421875 L 14.917969 21.421875 L 14.917969 21.507812 L 15.003906 21.507812 L 15.003906 21.595703 L 15.089844 21.595703 L 15.089844 21.681641 L 15.175781 21.681641 L 15.175781 21.765625 L 15.259766 21.765625 L 15.259766 21.849609 L 15.341797 21.849609 L 15.341797 21.933594 L 15.425781 21.933594 L 15.425781 22.015625 L 15.507812 22.015625 L 15.507812 22.097656 L 15.587891 22.097656 L 15.587891 22.179688 L 15.669922 22.179688 L 15.669922 22.259766 L 15.75 22.259766 L 15.75 22.339844 L 15.828125 22.339844 L 15.828125 22.419922 L 15.90625 22.419922 L 15.90625 22.498047 L 15.984375 22.498047 L 15.984375 22.574219 L 16.060547 22.574219 L 16.060547 22.652344 L 16.136719 22.652344 L 16.136719 22.728516 L 16.212891 22.728516 L 16.212891 22.802734 L 16.287109 22.802734 L 16.287109 22.878906 L 16.361328 22.878906 L 16.361328 22.951172 L 16.433594 22.951172 L 16.433594 23.025391 L 16.505859 23.025391 L 16.505859 23.097656 L 16.578125 23.097656 L 16.578125 23.169922 L 16.648438 23.169922 L 16.648438 23.240234 L 16.71875 23.240234 L 16.71875 23.310547 L 16.789062 23.310547 L 16.789062 23.378906 L 16.857422 23.378906 L 16.857422 23.449219 L 16.925781 23.449219 L 16.925781 23.515625 L 16.992188 23.515625 L 16.992188 23.583984 L 17.058594 23.583984 L 17.058594 23.650391 L 17.125 23.650391 L 17.125 23.714844 L 17.189453 23.714844 L 17.189453 23.78125 L 17.253906 23.78125 L 17.253906 23.845703 L 17.318359 23.845703 L 17.318359 23.908203 L 17.380859 23.908203 L 17.380859 23.970703 L 17.441406 23.970703 L 17.441406 24.033203 L 17.503906 24.033203 L 17.503906 24.09375 L 17.564453 24.09375 L 17.564453 24.154297 L 17.623047 24.154297 L 17.623047 24.214844 L 17.683594 24.214844 L 17.683594 24.273438 L 17.740234 24.273438 L 17.740234 24.332031 L 17.798828 24.332031 L 17.798828 24.388672 L 17.855469 24.388672 L 17.855469 24.447266 L 17.912109 24.447266 L 17.912109 24.501953 L 17.966797 24.501953 L 17.966797 24.558594 L 18.021484 24.558594 L 18.021484 24.613281 L 18.076172 24.613281 L 18.076172 24.666016 L 18.128906 24.666016 L 18.128906 24.71875 L 18.181641 24.71875 L 18.181641 24.771484 L 18.232422 24.771484 L 18.232422 24.824219 L 18.283203 24.824219 L 18.283203 24.875 L 18.333984 24.875 L 18.333984 24.923828 L 18.382812 24.923828 L 18.382812 24.972656 L 18.431641 24.972656 L 18.431641 25.021484 L 18.478516 25.021484 L 18.478516 25.070312 L 18.527344 25.070312 L 18.527344 25.117188 L 18.572266 25.117188 L 18.572266 25.164062 L 18.619141 25.164062 L 18.619141 25.208984 L 18.664062 25.208984 L 18.664062 25.253906 L 18.707031 25.253906 L 18.707031 25.298828 L 18.751953 25.298828 L 18.751953 25.341797 L 18.792969 25.341797 L 18.792969 25.384766 L 18.835938 25.384766 L 18.835938 25.425781 L 18.876953 25.425781 L 18.876953 25.46875 L 18.917969 25.46875 L 18.917969 25.507812 L 18.957031 25.507812 L 18.957031 25.548828 L 18.996094 25.548828 L 18.996094 25.587891 L 19.035156 25.587891 L 19.035156 25.625 L 19.072266 25.625 L 19.072266 25.662109 L 19.109375 25.662109 L 19.109375 25.699219 L 19.144531 25.699219 L 19.144531 25.736328 L 19.179688 25.736328 L 19.179688 25.771484 L 19.214844 25.771484 L 19.214844 25.804688 L 19.248047 25.804688 L 19.248047 25.839844 L 19.28125 25.839844 L 19.28125 25.873047 L 19.314453 25.873047 L 19.314453 25.904297 L 19.345703 25.904297 L 19.345703 25.935547 L 19.375 25.935547 L 19.375 25.966797 L 19.40625 25.966797 L 19.40625 25.996094 L 19.435547 25.996094 L 19.435547 26.025391 L 19.462891 26.025391 L 19.462891 26.054688 L 19.492188 26.054688 L 19.492188 26.082031 L 19.519531 26.082031 L 19.519531 26.109375 L 19.544922 26.109375 L 19.544922 26.136719 L 19.570312 26.136719 L 19.570312 26.162109 L 19.595703 26.162109 L 19.595703 26.1875 L 19.619141 26.1875 L 19.619141 26.210938 L 19.642578 26.210938 L 19.642578 26.234375 L 19.666016 26.234375 L 19.666016 26.255859 L 19.6875 26.255859 L 19.6875 26.279297 L 19.708984 26.279297 L 19.708984 26.300781 L 19.728516 26.300781 L 19.728516 26.320312 L 19.748047 26.320312 L 19.748047 26.339844 L 19.767578 26.339844 L 19.767578 26.359375 L 19.785156 26.359375 L 19.785156 26.376953 L 19.802734 26.376953 L 19.802734 26.394531 L 19.820312 26.394531 L 19.820312 26.412109 L 19.835938 26.412109 L 19.835938 26.427734 L 19.851562 26.427734 L 19.851562 26.443359 L 19.865234 26.443359 L 19.865234 26.457031 L 19.878906 26.457031 L 19.878906 26.470703 L 19.892578 26.470703 L 19.892578 26.484375 L 19.904297 26.484375 L 19.904297 26.496094 L 19.916016 26.496094 L 19.916016 26.507812 L 19.927734 26.507812 L 19.927734 26.517578 L 19.9375 26.517578 L 19.9375 26.527344 L 19.947266 26.527344 L 19.947266 26.537109 L 19.955078 26.537109 L 19.955078 26.546875 L 19.962891 26.546875 L 19.962891 26.554688 L 19.970703 26.554688 L 19.970703 26.560547 L 19.976562 26.560547 L 19.976562 26.566406 L 19.982422 26.566406 L 19.982422 26.572266 L 19.986328 26.572266 L 19.986328 26.578125 L 19.990234 26.578125 L 19.990234 26.582031 L 19.994141 26.582031 L 19.994141 26.585938 L 19.996094 26.585938 L 19.996094 26.587891 L 19.998047 26.587891 L 19.998047 26.589844 L 20 26.589844 L 22.287109 26.589844 L 22.287109 26.605469 L 22.34375 26.605469 L 22.34375 26.662109 L 22.400391 26.662109 L 22.400391 26.71875 L 22.457031 26.71875 L 22.457031 26.775391 L 22.511719 26.775391 L 22.511719 26.830078 L 22.566406 26.830078 L 22.566406 26.884766 L 22.621094 26.884766 L 22.621094 26.939453 L 22.673828 26.939453 L 22.673828 26.992188 L 22.726562 26.992188 L 22.726562 27.044922 L 22.777344 27.044922 L 22.777344 27.095703 L 22.828125 27.095703 L 22.828125 27.146484 L 22.878906 27.146484 L 22.878906 27.197266 L 22.927734 27.197266 L 22.927734 27.246094 L 22.976562 27.246094 L 22.976562 27.294922 L 23.025391 27.294922 L 23.025391 27.34375 L 23.072266 27.34375 L 23.072266 27.390625 L 23.119141 27.390625 L 23.119141 27.435547 L 23.164062 27.435547 L 23.164062 27.482422 L 23.208984 27.482422 L 23.208984 27.527344 L 23.253906 27.527344 L 23.253906 27.570312 L 23.296875 27.570312 L 23.296875 27.615234 L 23.339844 27.615234 L 23.339844 27.658203 L 23.380859 27.658203 L 23.380859 27.699219 L 23.421875 27.699219 L 23.421875 27.740234 L 23.462891 27.740234 L 23.462891 27.78125 L 23.501953 27.78125 L 23.501953 27.820312 L 23.541016 27.820312 L 23.541016 27.859375 L 23.580078 27.859375 L 23.580078 27.898438 L 23.617188 27.898438 L 23.617188 27.935547 L 23.654297 27.935547 L 23.654297 27.972656 L 23.689453 27.972656 L 23.689453 28.007812 L 23.724609 28.007812 L 23.724609 28.042969 L 23.759766 28.042969 L 23.759766 28.078125 L 23.792969 28.078125 L 23.792969 28.111328 L 23.826172 28.111328 L 23.826172 28.144531 L 23.859375 28.144531 L 23.859375 28.177734 L 23.890625 28.177734 L 23.890625 28.208984 L 23.921875 28.208984 L 23.921875 28.240234 L 23.951172 28.240234 L 23.951172 28.269531 L 23.980469 28.269531 L 23.980469 28.298828 L 24.009766 28.298828 L 24.009766 28.328125 L 24.037109 28.328125 L 24.037109 28.355469 L 24.064453 28.355469 L 24.064453 28.382812 L 24.089844 28.382812 L 24.089844 28.408203 L 24.117188 28.408203 L 24.117188 28.433594 L 24.140625 28.433594 L 24.140625 28.458984 L 24.166016 28.458984 L 24.166016 28.484375 L 24.189453 28.484375 L 24.189453 28.507812 L 24.210938 28.507812 L 24.210938 28.529297 L 24.232422 28.529297 L 24.232422 28.550781 L 24.253906 28.550781 L 24.253906 28.572266 L 24.275391 28.572266 L 24.275391 28.59375 L 24.294922 28.59375 L 24.294922 28.613281 L 24.3125 28.613281 L 24.3125 28.630859 L 24.332031 28.630859 L 24.332031 28.650391 L 24.349609 28.650391 L 24.349609 28.667969 L 24.365234 28.667969 L 24.365234 28.683594 L 24.380859 28.683594 L 24.380859 28.699219 L 24.396484 28.699219 L 24.396484 28.714844 L 24.412109 28.714844 L 24.412109 28.730469 L 24.425781 28.730469 L 24.425781 28.744141 L 24.4375 28.744141 L 24.4375 28.755859 L 24.451172 28.755859 L 24.451172 28.769531 L 24.460938 28.769531 L 24.460938 28.779297 L 24.472656 28.779297 L 24.472656 28.791016 L 24.482422 28.791016 L 24.482422 28.800781 L 24.492188 28.800781 L 24.492188 28.810547 L 24.5 28.810547 L 24.5 28.818359 L 24.507812 28.818359 L 24.507812 28.826172 L 24.515625 28.826172 L 24.515625 28.833984 L 24.521484 28.833984 L 24.521484 28.839844 L 24.527344 28.839844 L 24.527344 28.845703 L 24.53125 28.845703 L 24.53125 28.849609 L 24.537109 28.849609 L 24.537109 28.853516 L 24.539062 28.853516 L 24.539062 28.857422 L 24.542969 28.857422 L 24.542969 28.859375 L 24.544922 28.859375 L 24.544922 28.861328 L 24.544922 28.863281 L 27.726562 28.863281 L 27.726562 28.861328 L 27.726562 26.589844 L 29.998047 26.589844 L 30 26.589844 L 30 23.408203 L 29.998047 23.408203 L 29.996094 23.408203 L 29.996094 23.40625 L 29.994141 23.40625 L 29.994141 23.402344 L 29.990234 23.402344 L 29.990234 23.400391 L 29.986328 23.400391 L 29.986328 23.396484 L 29.982422 23.396484 L 29.982422 23.390625 L 29.976562 23.390625 L 29.976562 23.384766 L 29.970703 23.384766 L 29.970703 23.378906 L 29.962891 23.378906 L 29.962891 23.371094 L 29.955078 23.371094 L 29.955078 23.363281 L 29.947266 23.363281 L 29.947266 23.355469 L 29.9375 23.355469 L 29.9375 23.345703 L 29.927734 23.345703 L 29.927734 23.335938 L 29.916016 23.335938 L 29.916016 23.326172 L 29.904297 23.326172 L 29.904297 23.314453 L 29.892578 23.314453 L 29.892578 23.302734 L 29.878906 23.302734 L 29.878906 23.289062 L 29.865234 23.289062 L 29.865234 23.275391 L 29.851562 23.275391 L 29.851562 23.259766 L 29.835938 23.259766 L 29.835938 23.246094 L 29.820312 23.246094 L 29.820312 23.228516 L 29.802734 23.228516 L 29.802734 23.212891 L 29.785156 23.212891 L 29.785156 23.195312 L 29.767578 23.195312 L 29.767578 23.177734 L 29.748047 23.177734 L 29.748047 23.158203 L 29.728516 23.158203 L 29.728516 23.138672 L 29.708984 23.138672 L 29.708984 23.117188 L 29.6875 23.117188 L 29.6875 23.097656 L 29.666016 23.097656 L 29.666016 23.074219 L 29.642578 23.074219 L 29.642578 23.052734 L 29.619141 23.052734 L 29.619141 23.029297 L 29.595703 23.029297 L 29.595703 23.003906 L 29.570312 23.003906 L 29.570312 22.980469 L 29.544922 22.980469 L 29.544922 22.955078 L 29.519531 22.955078 L 29.519531 22.927734 L 29.492188 22.927734 L 29.492188 22.900391 L 29.462891 22.900391 L 29.462891 22.873047 L 29.435547 22.873047 L 29.435547 22.84375 L 29.40625 22.84375 L 29.40625 22.814453 L 29.375 22.814453 L 29.375 22.785156 L 29.345703 22.785156 L 29.345703 22.753906 L 29.314453 22.753906 L 29.314453 22.722656 L 29.28125 22.722656 L 29.28125 22.689453 L 29.248047 22.689453 L 29.248047 22.658203 L 29.214844 22.658203 L 29.214844 22.623047 L 29.179688 22.623047 L 29.179688 22.589844 L 29.144531 22.589844 L 29.144531 22.552734 L 29.109375 22.552734 L 29.109375 22.517578 L 29.072266 22.517578 L 29.072266 22.480469 L 29.035156 22.480469 L 29.035156 22.443359 L 28.996094 22.443359 L 28.996094 22.404297 L 28.957031 22.404297 L 28.957031 22.365234 L 28.917969 22.365234 L 28.917969 22.326172 L 28.876953 22.326172 L 28.876953 22.285156 L 28.835938 22.285156 L 28.835938 22.244141 L 28.792969 22.244141 L 28.792969 22.203125 L 28.751953 22.203125 L 28.751953 22.160156 L 28.707031 22.160156 L 28.707031 22.117188 L 28.664062 22.117188 L 28.664062 22.072266 L 28.619141 22.072266 L 28.619141 22.027344 L 28.572266 22.027344 L 28.572266 21.982422 L 28.527344 21.982422 L 28.527344 21.935547 L 28.478516 21.935547 L 28.478516 21.888672 L 28.431641 21.888672 L 28.431641 21.839844 L 28.382812 21.839844 L 28.382812 21.791016 L 28.333984 21.791016 L 28.333984 21.742188 L 28.283203 21.742188 L 28.283203 21.691406 L 28.232422 21.691406 L 28.232422 21.640625 L 28.181641 21.640625 L 28.181641 21.589844 L 28.128906 21.589844 L 28.128906 21.537109 L 28.076172 21.537109 L 28.076172 21.484375 L 28.021484 21.484375 L 28.021484 21.429688 L 27.966797 21.429688 L 27.966797 21.376953 L 27.912109 21.376953 L 27.912109 21.320312 L 27.855469 21.320312 L 27.855469 21.263672 L 27.798828 21.263672 L 27.798828 21.207031 L 27.740234 21.207031 L 27.740234 21.150391 L 27.683594 21.150391 L 27.683594 21.091797 L 27.623047 21.091797 L 27.623047 21.033203 L 27.564453 21.033203 L 27.564453 20.972656 L 27.503906 20.972656 L 27.503906 20.912109 L 27.441406 20.912109 L 27.441406 20.851562 L 27.380859 20.851562 L 27.380859 20.789062 L 27.318359 20.789062 L 27.318359 20.726562 L 27.253906 20.726562 L 27.253906 20.664062 L 27.189453 20.664062 L 27.189453 20.599609 L 27.125 20.599609 L 27.125 20.533203 L 27.058594 20.533203 L 27.058594 20.46875 L 26.992188 20.46875 L 26.992188 20.402344 L 26.925781 20.402344 L 26.925781 20.333984 L 26.857422 20.333984 L 26.857422 20.265625 L 26.789062 20.265625 L 26.789062 20.197266 L 26.71875 20.197266 L 26.71875 20.128906 L 26.648438 20.128906 L 26.648438 20.058594 L 26.578125 20.058594 L 26.578125 19.988281 L 26.505859 19.988281 L 26.505859 19.916016 L 26.433594 19.916016 L 26.433594 19.84375 L 26.361328 19.84375 L 26.361328 19.769531 L 26.287109 19.769531 L 26.287109 19.697266 L 26.212891 19.697266 L 26.212891 19.621094 L 26.136719 19.621094 L 26.136719 19.546875 L 26.060547 19.546875 L 26.060547 19.470703 L 25.984375 19.470703 L 25.984375 19.392578 L 25.90625 19.392578 L 25.90625 19.316406 L 25.828125 19.316406 L 25.828125 19.238281 L 25.75 19.238281 L 25.75 19.158203 L 25.669922 19.158203 L 25.669922 19.078125 L 25.587891 19.078125 L 25.587891 18.998047 L 25.507812 18.998047 L 25.507812 18.916016 L 25.425781 18.916016 L 25.425781 18.833984 L 25.341797 18.833984 L 25.341797 18.751953 L 25.259766 18.751953 L 25.259766 18.667969 L 25.175781 18.667969 L 25.175781 18.583984 L 25.089844 18.583984 L 25.089844 18.498047 L 25.003906 18.498047 L 25.003906 18.414062 L 24.917969 18.414062 L 24.917969 18.326172 L 24.830078 18.326172 L 24.830078 18.240234 L 24.742188 18.240234 L 24.742188 18.152344 L 24.654297 18.152344 L 24.654297 18.0625 L 24.564453 18.0625 L 24.564453 17.972656 L 24.474609 17.972656 L 24.474609 17.882812 L 24.382812 17.882812 L 24.382812 17.792969 L 24.291016 17.792969 L 24.291016 17.701172 L 24.199219 17.701172 L 24.199219 17.607422 L 24.105469 17.607422 L 24.105469 17.515625 L 24.011719 17.515625 L 24.011719 17.419922 L 23.916016 17.419922 L 23.916016 17.326172 L 23.822266 17.326172 L 23.822266 17.230469 L 23.724609 17.230469 L 23.724609 17.134766 L 23.628906 17.134766 L 23.628906 17.037109 L 23.53125 17.037109 L 23.53125 16.939453 L 23.431641 16.939453 L 23.431641 16.841797 L 23.333984 16.841797 L 23.333984 16.742188 L 23.234375 16.742188 L 23.234375 16.642578 L 23.132812 16.642578 L 23.132812 16.541016 L 23.03125 16.541016 L 23.03125 16.441406 L 22.929688 16.441406 L 22.929688 16.337891 L 22.826172 16.337891 L 22.826172 16.236328 L 22.722656 16.236328 L 22.722656 16.132812 L 22.619141 16.132812 L 22.619141 16.027344 L 22.513672 16.027344 L 22.513672 15.921875 L 22.408203 15.921875 L 22.408203 15.816406 L 22.300781 15.816406 L 22.300781 15.710938 L 22.193359 15.710938 L 22.193359 15.603516 L 22.085938 15.603516 L 22.085938 15.494141 L 21.976562 15.494141 L 21.976562 15.386719 L 21.867188 15.386719 L 21.867188 15.277344 L 21.757812 15.277344 L 21.757812 15.166016 L 21.646484 15.166016 L 21.646484 15.054688 L 21.535156 15.054688 L 21.535156 14.943359 L 21.421875 14.943359 L 21.421875 14.832031 L 21.308594 14.832031 L 21.308594 14.71875 L 21.195312 14.71875 L 21.195312 14.603516 L 21.080078 14.603516 L 21.080078 14.488281 L 20.964844 14.488281 L 20.964844 14.373047 L 20.847656 14.373047 L 20.847656 14.257812 L 20.730469 14.257812 L 20.730469 14.140625 L 20.613281 14.140625 L 20.613281 14.023438 L 20.496094 14.023438 L 20.496094 13.904297 L 20.376953 13.904297 L 20.376953 13.785156 L 20.255859 13.785156 L 20.255859 13.666016 L 20.134766 13.666016 L 20.134766 13.544922 L 20.013672 13.544922 L 20.013672 13.423828 L 19.892578 13.423828 L 19.892578 13.300781 L 19.769531 13.300781 L 19.769531 13.177734 L 19.644531 13.177734 L 19.644531 13.054688 L 19.521484 13.054688 L 19.521484 12.929688 L 19.396484 12.929688 L 19.396484 12.804688 L 19.269531 12.804688 L 19.269531 12.679688 L 19.142578 12.679688 L 19.142578 12.552734 L 19.015625 12.552734 L 19.015625 12.425781 L 18.888672 12.425781 L 18.888672 12.296875 L 18.759766 12.296875 L 18.759766 12.167969 L 18.628906 12.167969 L 18.628906 12.039062 L 18.5 12.039062 L 18.5 11.908203 L 18.369141 11.908203 L 18.369141 11.777344 L 18.236328 11.777344 L 18.236328 11.646484 L 18.103516 11.646484 L 18.103516 11.513672 L 17.970703 11.513672 L 17.970703 11.378906 L 17.835938 11.378906 L 17.835938 11.246094 L 17.701172 11.246094 L 17.701172 11.111328 L 17.566406 11.111328 L 17.566406 10.974609 L 17.429688 10.974609 L 17.429688 10.839844 L 17.292969 10.839844 L 17.292969 10.701172 L 17.154297 10.701172 L 17.154297 10.564453 L 17.017578 10.564453 L 17.017578 10.425781 L 16.876953 10.425781 L 16.876953 10.287109 L 16.738281 10.287109 L 16.738281 10.146484 L 16.597656 10.146484 L 16.597656 10.005859 L 16.455078 10.005859 L 16.455078 9.8652344 L 16.3125 9.8652344 L 16.3125 9.7226562 L 16.169922 9.7226562 L 16.169922 9.5800781 L 16.027344 9.5800781 L 16.027344 9.4355469 L 15.882812 9.4355469 L 15.882812 9.2910156 L 15.736328 9.2910156 L 15.736328 9.1464844 L 15.591797 9.1464844 L 15.591797 9 L 15.445312 9 L 15.445312 8.8535156 L 15.296875 8.8535156 L 15.296875 8.7070312 L 15.148438 8.7070312 L 15.148438 8.5585938 L 12.748047 8.5585938 L 12.748047 8.4296875 L 12.609375 8.4296875 L 12.609375 8.2910156 L 12.470703 8.2910156 L 12.470703 8.1523438 L 12.332031 8.1523438 L 12.332031 8.0136719 L 12.191406 8.0136719 L 12.191406 7.8730469 L 12.050781 7.8730469 L 12.050781 7.7324219 L 11.910156 7.7324219 L 11.910156 7.5917969 L 11.767578 7.5917969 L 11.767578 7.4492188 L 11.625 7.4492188 L 11.625 7.3066406 L 11.480469 7.3066406 L 11.480469 7.1621094 L 11.335938 7.1621094 L 11.335938 7.0175781 L 11.191406 7.0175781 L 11.191406 6.8730469 L 11.044922 6.8730469 L 11.044922 6.7265625 L 10.898438 6.7265625 L 10.898438 6.5800781 L 10.751953 6.5800781 L 10.751953 6.4335938 L 10.603516 6.4335938 L 10.603516 6.2851562 L 7.421875 6.2851562 z "
       id="path4224"
       clip-path="url(#clipPath5082)" />
    <rect
       style="opacity:1;fill:#000000;fill-opacity:1;stroke:none;stroke-width:2;stroke-miterlimit:4;stroke-dasharray:none;stroke-opacity:1"
       id="rect5090"
       width="2.2525382"
       height="2.2423856"
       x="10"
       y="11" />
    <rect
       style="opacity:1;fill:#000000;fill-opacity:1;stroke:none;stroke-width:2;stroke-miterlimit:4;stroke-dasharray:none;stroke-opacity:1"
       id="rect5088"
       width="9"
       height="2"
       x="5.5580583"
       y="8.9368658" />
    <rect
       style="opacity:1;fill:#ffffff;fill-opacity:1;stroke:none;stroke-width:2;stroke-miterlimit:4;stroke-dasharray:none;stroke-opacity:1"
       id="rect5086"
       width="2.4949238"
       height="4.2097087"
       x="7.6944799"
       y="6.6843271" />
    <path
       style="fill:#ff9800"
       id="path4228"
       d="m 7.2727046,8.4090956 0,-2.2727273 3.1818184,0 0,2.2727273 4.545455,0 0,3.1818184 -2.272727,0 0,2.272727 -3.1818184,0 0,-2.272727 -4.545455,0 0,-3.1818184 2.272727,0 m 4.5454554,3.1818184 -1.363637,0 0,1.363636 1.363637,0 0,-1.363636 m -3.6363644,-3.1818184 1.363637,0 0,-1.3636364 -1.363637,0 0,1.3636364 m -0.909091,2.2727274 0,-1.3636365 -1.363636,0 0,1.3636365 1.363636,0 m 5.4545464,-1.3636365 0,1.3636365 1.363636,0 0,-1.3636365 -1.363636,0 m -2.272728,0 0,1.3636365 1.363637,0 0,-1.3636365 -1.363637,0 m -2.2727274,0 0,1.3636365 1.363637,0 0,-1.3636365 -1.363637,0 z"
       inkscape:connector-curvature="0" />
    <path
       style="fill:none"
       inkscape:connector-curvature="0"
       id="path4"
       d="m 3.9999777,4.0333382 12.0000003,0 0,11.9333328 -12.0000003,0 z" />
    <path
       d="m 18.999978,19.033339 12,0 0,11.933333 -12,0 z"
       id="path9754"
       inkscape:connector-curvature="0"
       style="fill:none" />
  </g>
</svg>
