<?xml version="1.0" encoding="UTF-8" standalone="no"?>
<!-- Created with Inkscape (http://www.inkscape.org/) -->

<svg
   xmlns:dc="http://purl.org/dc/elements/1.1/"
   xmlns:cc="http://creativecommons.org/ns#"
   xmlns:rdf="http://www.w3.org/1999/02/22-rdf-syntax-ns#"
   xmlns:svg="http://www.w3.org/2000/svg"
   xmlns="http://www.w3.org/2000/svg"
   xmlns:xlink="http://www.w3.org/1999/xlink"
   xmlns:sodipodi="http://sodipodi.sourceforge.net/DTD/sodipodi-0.dtd"
   xmlns:inkscape="http://www.inkscape.org/namespaces/inkscape"
   sodipodi:docname="Road.svg"
   inkscape:version="0.91 r13725"
   version="1.1"
   id="svg2"
   viewBox="0 0 20 20"
   height="5.6444445mm"
   width="5.6444445mm"
   inkscape:export-filename="/home/juergen/Projekte/Android/Android_Studio/Baumann_Theme/theme/src/main/assets/icons/res/drawable-xxhdpi/a003.png"
   inkscape:export-xdpi="648"
   inkscape:export-ydpi="648">
  <sodipodi:namedview
     inkscape:snap-to-guides="true"
     inkscape:snap-grids="true"
     inkscape:window-maximized="1"
     inkscape:window-y="24"
     inkscape:window-x="0"
     inkscape:window-height="744"
     inkscape:window-width="1366"
     inkscape:guide-bbox="true"
     showguides="true"
     fit-margin-bottom="0"
     fit-margin-right="0"
     fit-margin-left="0"
     fit-margin-top="0"
     showgrid="true"
     inkscape:current-layer="layer2"
     inkscape:document-units="px"
     inkscape:cy="5.1607123"
     inkscape:cx="8.4734765"
     inkscape:zoom="22.4"
     inkscape:pageshadow="2"
     inkscape:pageopacity="0.0"
     borderopacity="1.0"
     bordercolor="#666666"
     pagecolor="#ffffff"
     id="base">
    <inkscape:grid
       id="grid4138"
       type="xygrid" />
    <sodipodi:guide
       id="guide4140"
       orientation="0,1"
       position="24,18" />
    <sodipodi:guide
       id="guide4142"
       orientation="0,1"
       position="10,2" />
    <sodipodi:guide
       id="guide4144"
       orientation="1,0"
       position="2,10" />
    <sodipodi:guide
       id="guide4146"
       orientation="0,20"
       position="0,0" />
    <sodipodi:guide
       id="guide4148"
       orientation="-20,0"
       position="20,0" />
    <sodipodi:guide
       id="guide4150"
       orientation="0,-20"
       position="20,20" />
    <sodipodi:guide
       id="guide4152"
       orientation="20,0"
       position="0,20" />
    <sodipodi:guide
       id="guide4154"
       orientation="1,0"
       position="18,10" />
    <sodipodi:guide
       id="guide4156"
       orientation="-0.70710678,0.70710678"
       position="10,10" />
    <sodipodi:guide
       id="guide4158"
       orientation="0.70710678,0.70710678"
       position="10,10" />
    <sodipodi:guide
       id="guide4160"
       orientation="1,0"
       position="4,10" />
    <sodipodi:guide
       id="guide4162"
       orientation="1,0"
       position="16,10" />
    <sodipodi:guide
       id="guide4164"
       orientation="0,1"
       position="10,16" />
    <sodipodi:guide
       id="guide4166"
       orientation="0,1"
       position="10,4" />
    <sodipodi:guide
       id="guide4168"
       orientation="0,1"
       position="10,15" />
    <sodipodi:guide
       id="guide4170"
       orientation="0,1"
       position="10,5" />
    <sodipodi:guide
       id="guide4172"
       orientation="1,0"
       position="5,10" />
    <sodipodi:guide
       id="guide4174"
       orientation="1,0"
       position="15,10" />
  </sodipodi:namedview>
  <defs
     id="defs4">
    <linearGradient
       inkscape:collect="always"
       id="linearGradient6098">
      <stop
         style="stop-color:#000000;stop-opacity:0.2"
         offset="0"
         id="stop6100" />
      <stop
         style="stop-color:#000000;stop-opacity:0;"
         offset="1"
         id="stop6102" />
    </linearGradient>
    <clipPath
       clipPathUnits="userSpaceOnUse"
       id="clipPath12478">
      <circle
         style="opacity:1;fill:#2196f3;fill-opacity:1;stroke:none;stroke-width:0.05069799;stroke-miterlimit:4;stroke-dasharray:none;stroke-opacity:1"
         id="circle12480"
         cx="9.9999781"
         cy="10.000005"
         r="10" />
    </clipPath>
    <clipPath
       id="clipPath5790"
       clipPathUnits="userSpaceOnUse">
      <circle
         inkscape:export-ydpi="648"
         inkscape:export-xdpi="648"
         inkscape:export-filename="/home/juergen/path4136.png"
         style="opacity:1;fill:#2196f3;fill-opacity:1;stroke:none;stroke-width:0.05069799;stroke-miterlimit:4;stroke-dasharray:none;stroke-opacity:1"
         id="circle5792"
         cx="9.9999781"
         cy="10.000005"
         r="10" />
    </clipPath>
    <clipPath
       clipPathUnits="userSpaceOnUse"
       id="clipPath7690">
      <circle
         inkscape:export-ydpi="648"
         inkscape:export-xdpi="648"
         inkscape:export-filename="/home/juergen/Schreibtisch/path4136.png"
         style="opacity:1;fill:#2196f3;fill-opacity:1;stroke:none;stroke-width:0.05069799;stroke-miterlimit:4;stroke-dasharray:none;stroke-opacity:1"
         id="circle7692"
         cx="9.9999781"
         cy="10.000005"
         r="10" />
    </clipPath>
    <clipPath
       id="clipPath5119"
       clipPathUnits="userSpaceOnUse">
      <circle
         inkscape:export-ydpi="648"
         inkscape:export-xdpi="648"
         inkscape:export-filename="/home/juergen/Schreibtisch/path4136.png"
         style="opacity:1;fill:#ff9800;fill-opacity:1;stroke:none;stroke-width:0.05069799;stroke-miterlimit:4;stroke-dasharray:none;stroke-opacity:1"
         id="circle5121"
         cx="9.9999781"
         cy="10.000005"
         r="10" />
    </clipPath>
    <clipPath
       clipPathUnits="userSpaceOnUse"
       id="clipPath6101">
      <circle
         inkscape:export-ydpi="648"
         inkscape:export-xdpi="648"
         inkscape:export-filename="/home/juergen/Schreibtisch/path4136.png"
         style="opacity:1;fill:#8bc34a;fill-opacity:1;stroke:none;stroke-width:0.05069799;stroke-miterlimit:4;stroke-dasharray:none;stroke-opacity:1"
         id="circle6103"
         cx="9.9999781"
         cy="10.000005"
         r="10" />
    </clipPath>
    <clipPath
       id="clipPath5126"
       clipPathUnits="userSpaceOnUse">
      <circle
         inkscape:export-ydpi="648"
         inkscape:export-xdpi="648"
         inkscape:export-filename="/home/juergen/Schreibtisch/path4136.png"
         style="opacity:1;fill:#9e9e9e;fill-opacity:1;stroke:none;stroke-width:0.05069799;stroke-miterlimit:4;stroke-dasharray:none;stroke-opacity:1"
         id="circle5128"
         cx="9.9999781"
         cy="10.000005"
         r="10" />
    </clipPath>
    <linearGradient
       inkscape:collect="always"
       xlink:href="#linearGradient6098"
       id="linearGradient6104"
       x1="10"
       y1="10"
       x2="20"
       y2="20"
       gradientUnits="userSpaceOnUse" />
    <clipPath
       clipPathUnits="userSpaceOnUse"
       id="clipPath6109">
      <circle
         inkscape:export-ydpi="648"
         inkscape:export-xdpi="648"
         inkscape:export-filename="/home/juergen/Projekte/Android/Android_Studio/Baumann_Theme/theme/src/main/assets/icons/res/drawable-xxhdpi/a143.png"
         style="opacity:1;fill:#9e9e9e;fill-opacity:1;stroke:none;stroke-width:0.05069799;stroke-miterlimit:4;stroke-dasharray:none;stroke-opacity:1"
         id="circle6111"
         cx="9.9999781"
         cy="10.000005"
         r="10" />
    </clipPath>
  </defs>
  <metadata
     id="metadata7">
    <rdf:RDF>
      <cc:Work
         rdf:about="">
        <dc:format>image/svg+xml</dc:format>
        <dc:type
           rdf:resource="http://purl.org/dc/dcmitype/StillImage" />
        <dc:title></dc:title>
      </cc:Work>
    </rdf:RDF>
  </metadata>
  <g
     transform="translate(1058.1428,-861.93365)"
     id="layer1"
     inkscape:groupmode="layer"
     inkscape:label="Hintergrund">
    <circle
       r="10"
       cy="871.93365"
       cx="-1048.1428"
       id="path4136"
       style="opacity:1;fill:#ff5722;fill-opacity:1;stroke:none;stroke-width:0.05069799;stroke-miterlimit:4;stroke-dasharray:none;stroke-opacity:1"
       inkscape:export-filename="/home/juergen/Projekte/Android/Android_Studio/Baumann_Theme/theme/src/main/assets/icons/res/drawable-xxhdpi/a143.png"
       inkscape:export-xdpi="648"
       inkscape:export-ydpi="648" />
  </g>
  <g
     inkscape:label="Icon"
     id="layer2"
     inkscape:groupmode="layer"
     style="display:inline">
    <path
       style="fill:none"
       inkscape:connector-curvature="0"
       id="path4"
       d="m 3.9999777,4.0333382 12.0000003,0 0,11.9333328 -12.0000003,0 z" />
    <path
       d="m 18.999978,19.033339 12,0 0,11.933333 -12,0 z"
       id="path9754"
       inkscape:connector-curvature="0"
       style="fill:none" />
    <path
       d="M 7.2441406 5.6347656 C 6.9620628 5.6347656 6.7361031 5.8622283 6.6796875 6.0878906 L 5.15625 13.984375 C 5.1193354 14.205861 5.2342923 14.418264 5.4082031 14.544922 C 5.4493869 14.605688 5.499297 14.654769 5.5585938 14.697266 C 5.5985293 14.754972 5.6486192 14.80083 5.7050781 14.841797 C 5.7451824 14.900089 5.7946397 14.946977 5.8515625 14.988281 C 5.8910531 15.045681 5.9402545 15.089882 5.9960938 15.130859 C 6.036075 15.189316 6.0837517 15.237808 6.140625 15.279297 C 6.1792182 15.335064 6.2271411 15.379686 6.28125 15.419922 C 6.3215211 15.478991 6.372206 15.52463 6.4296875 15.566406 C 6.4675604 15.620959 6.5136279 15.663433 6.5664062 15.703125 C 6.606549 15.762355 6.655465 15.809601 6.7128906 15.851562 C 6.7515027 15.906855 6.7996093 15.950361 6.8535156 15.990234 C 6.8923052 16.046107 6.9397734 16.090645 6.9941406 16.130859 C 7.0322481 16.18575 7.0776757 16.229704 7.1308594 16.269531 C 7.1694526 16.325298 7.2173754 16.369921 7.2714844 16.410156 C 7.3088805 16.463707 7.354437 16.505749 7.40625 16.544922 C 7.4437918 16.599169 7.4906823 16.642015 7.5429688 16.681641 C 7.5813479 16.737425 7.62775 16.781909 7.6816406 16.822266 C 7.7192475 16.875804 7.7663284 16.917971 7.8183594 16.957031 C 7.8555201 17.010245 7.9017148 17.050811 7.953125 17.089844 C 7.9901743 17.14321 8.0345765 17.185408 8.0859375 17.224609 C 8.1223774 17.276791 8.1666153 17.318829 8.2167969 17.357422 C 8.2539446 17.4111 8.2999551 17.452798 8.3515625 17.492188 C 8.3886835 17.545277 8.4350163 17.586042 8.4863281 17.625 C 8.5227704 17.676717 8.5672094 17.717623 8.6171875 17.755859 C 8.6536298 17.807576 8.6980688 17.848483 8.7480469 17.886719 C 8.7835536 17.937108 8.8265954 17.976022 8.875 18.013672 C 8.9112038 18.065515 8.9560785 18.106086 9.0058594 18.144531 C 9.0417696 18.195493 9.085684 18.235532 9.1347656 18.273438 C 9.1704331 18.324055 9.2130448 18.362639 9.2617188 18.400391 C 9.296928 18.450358 9.3388119 18.489886 9.3867188 18.527344 C 9.4217969 18.577282 9.4659164 18.614849 9.5136719 18.652344 C 9.5487555 18.702133 9.5909748 18.741921 9.6386719 18.779297 C 9.673558 18.828518 9.7164262 18.867274 9.7636719 18.904297 C 9.79791 18.952603 9.8405454 18.988797 9.8867188 19.025391 C 9.9212703 19.074424 9.9629544 19.113365 10.009766 19.150391 C 10.044118 19.198858 10.086451 19.236767 10.132812 19.273438 C 10.167124 19.321818 10.207624 19.359865 10.253906 19.396484 C 10.286565 19.442295 10.327615 19.47643 10.371094 19.511719 C 10.40607 19.561804 10.448384 19.601017 10.496094 19.638672 C 10.529387 19.684957 10.570892 19.720459 10.615234 19.755859 C 10.648439 19.80229 10.688115 19.839446 10.732422 19.875 C 10.765749 19.92172 10.807009 19.956454 10.851562 19.992188 C 10.884347 20.03803 10.923172 20.074113 10.966797 20.109375 C 10.999455 20.155186 11.040505 20.189321 11.083984 20.224609 C 11.116651 20.270288 11.155783 20.306617 11.199219 20.341797 C 11.231674 20.386917 11.271463 20.422213 11.314453 20.457031 C 11.34583 20.500652 11.384517 20.534317 11.425781 20.568359 C 11.458112 20.613974 11.497963 20.648326 11.541016 20.683594 C 11.573561 20.729102 11.613012 20.763735 11.65625 20.798828 C 11.687288 20.841595 11.725043 20.874724 11.765625 20.908203 C 11.797001 20.951824 11.835689 20.985489 11.876953 21.019531 C 11.90779 21.062402 11.94592 21.095263 11.986328 21.128906 C 12.018333 21.17366 12.05724 21.20748 12.099609 21.242188 C 12.130356 21.284553 12.166908 21.316345 12.207031 21.349609 C 12.238069 21.392376 12.275824 21.425505 12.316406 21.458984 C 12.3463 21.500175 12.381135 21.531831 12.419922 21.564453 C 12.450869 21.607477 12.488714 21.640103 12.529297 21.673828 C 12.559022 21.714551 12.596326 21.745046 12.634766 21.777344 C 12.664719 21.818616 12.701355 21.850145 12.740234 21.882812 C 12.769344 21.922923 12.804228 21.954312 12.841797 21.986328 C 12.871661 22.027846 12.908391 22.058893 12.947266 22.091797 C 12.977327 22.133219 13.013685 22.164516 13.052734 22.197266 C 13.080706 22.235247 13.114766 22.264285 13.150391 22.294922 C 13.180255 22.33644 13.216985 22.367487 13.255859 22.400391 C 13.284378 22.439116 13.31901 22.46893 13.355469 22.5 C 13.384105 22.539231 13.420273 22.568156 13.457031 22.599609 C 13.485542 22.638546 13.520119 22.667968 13.556641 22.699219 C 13.584402 22.737133 13.616963 22.766222 13.652344 22.796875 C 13.680679 22.835693 13.715658 22.86527 13.751953 22.896484 C 13.779924 22.934466 13.813985 22.963503 13.849609 22.994141 C 13.876889 23.031183 13.910734 23.057811 13.945312 23.087891 C 13.972975 23.12567 14.005786 23.154974 14.041016 23.185547 C 14.067989 23.222173 14.100648 23.249468 14.134766 23.279297 C 14.161338 23.315379 14.193045 23.343548 14.226562 23.373047 C 14.254452 23.411255 14.288604 23.439846 14.324219 23.470703 C 14.349611 23.504684 14.3805 23.530523 14.412109 23.558594 C 14.438905 23.595303 14.471902 23.622384 14.505859 23.652344 C 14.532833 23.68897 14.565492 23.716264 14.599609 23.746094 C 14.625002 23.780075 14.655891 23.805913 14.6875 23.833984 C 14.713278 23.868788 14.745073 23.895169 14.777344 23.923828 C 14.802572 23.957889 14.833774 23.983527 14.865234 24.011719 C 14.890801 24.046436 14.921105 24.072911 14.953125 24.101562 C 14.978996 24.13649 15.010562 24.16267 15.042969 24.191406 C 15.066998 24.22338 15.097382 24.246699 15.126953 24.273438 C 15.15252 24.308154 15.182823 24.33463 15.214844 24.363281 C 15.239428 24.395993 15.270408 24.420048 15.300781 24.447266 C 15.325068 24.479767 15.354768 24.504126 15.384766 24.53125 C 15.409053 24.563752 15.438752 24.588111 15.46875 24.615234 C 15.49257 24.647111 15.521459 24.670551 15.550781 24.697266 C 15.574762 24.729358 15.603258 24.754394 15.632812 24.78125 C 15.656535 24.812815 15.685714 24.836811 15.714844 24.863281 C 15.737847 24.893889 15.76682 24.915572 15.794922 24.941406 C 15.81835 24.972759 15.846241 24.997069 15.875 25.023438 C 15.897365 25.053196 15.925929 25.07435 15.953125 25.099609 C 15.976341 25.130856 16.002745 25.155305 16.03125 25.181641 C 16.054253 25.212249 16.083226 25.233932 16.111328 25.259766 C 16.133839 25.289457 16.162121 25.310778 16.189453 25.335938 C 16.211445 25.365109 16.237027 25.38727 16.263672 25.412109 C 16.285907 25.441696 16.312831 25.463139 16.339844 25.488281 C 16.36093 25.516093 16.386771 25.536684 16.412109 25.560547 C 16.434784 25.590868 16.462559 25.613 16.490234 25.638672 C 16.511459 25.666422 16.537032 25.687165 16.5625 25.710938 C 16.583662 25.73885 16.609321 25.75927 16.634766 25.783203 C 16.654808 25.809638 16.679227 25.828678 16.703125 25.851562 C 16.725526 25.88154 16.752004 25.904244 16.779297 25.929688 C 16.799194 25.955554 16.824047 25.973686 16.847656 25.996094 C 16.867698 26.022528 16.892117 26.041568 16.916016 26.064453 C 16.935986 26.090794 16.960575 26.109995 16.984375 26.132812 C 17.005217 26.160441 17.029652 26.181318 17.054688 26.205078 C 17.074198 26.230443 17.098008 26.24944 17.121094 26.271484 C 17.140931 26.297492 17.165873 26.315342 17.189453 26.337891 C 17.208841 26.363239 17.230954 26.382239 17.253906 26.404297 C 17.272291 26.428198 17.294834 26.445828 17.316406 26.466797 C 17.335888 26.492492 17.35968 26.510853 17.382812 26.533203 C 17.402426 26.558846 17.42596 26.577337 17.449219 26.599609 C 17.467159 26.62273 17.488828 26.639805 17.509766 26.660156 C 17.52815 26.684057 17.550693 26.701688 17.572266 26.722656 C 17.590152 26.745909 17.611904 26.76272 17.632812 26.783203 C 17.650634 26.806372 17.672536 26.823329 17.693359 26.84375 C 17.711181 26.866919 17.733083 26.883876 17.753906 26.904297 C 17.771227 26.926814 17.792339 26.942963 17.8125 26.962891 C 17.83001 26.985655 17.850683 27.003323 17.871094 27.023438 C 17.887807 27.045043 17.908396 27.060868 17.927734 27.080078 C 17.944702 27.102012 17.966657 27.117256 17.986328 27.136719 C 18.003137 27.158381 18.023519 27.174116 18.042969 27.193359 C 18.058898 27.213888 18.077394 27.229681 18.095703 27.248047 C 18.112995 27.270514 18.134177 27.286753 18.154297 27.306641 C 18.169778 27.326307 18.189351 27.339774 18.207031 27.357422 C 18.22296 27.37795 18.241457 27.393743 18.259766 27.412109 C 18.275396 27.432139 18.294597 27.446885 18.3125 27.464844 C 18.327562 27.484146 18.346104 27.498241 18.363281 27.515625 C 18.378344 27.534927 18.396886 27.549022 18.414062 27.566406 C 18.429125 27.585708 18.447667 27.599804 18.464844 27.617188 C 18.479338 27.635762 18.497215 27.649213 18.513672 27.666016 C 18.528166 27.68459 18.546044 27.698041 18.5625 27.714844 C 18.576994 27.733418 18.594872 27.746869 18.611328 27.763672 C 18.625304 27.781581 18.6424 27.79428 18.658203 27.810547 C 18.672698 27.829121 18.690575 27.842572 18.707031 27.859375 C 18.720533 27.876527 18.736768 27.888666 18.751953 27.904297 C 18.765405 27.921386 18.781751 27.933639 18.796875 27.949219 C 18.810327 27.966308 18.826673 27.978561 18.841797 27.994141 C 18.854725 28.010564 18.87029 28.022077 18.884766 28.037109 C 18.897647 28.053473 18.913317 28.065095 18.927734 28.080078 C 18.940089 28.095773 18.95498 28.106666 18.96875 28.121094 C 18.981315 28.137056 18.995737 28.149412 19.009766 28.164062 C 19.022016 28.179538 19.037151 28.190843 19.050781 28.205078 C 19.062459 28.219829 19.07691 28.230513 19.089844 28.244141 C 19.101521 28.258892 19.115972 28.269576 19.128906 28.283203 C 19.140584 28.297954 19.155035 28.308638 19.167969 28.322266 C 19.179073 28.336293 19.192835 28.346361 19.205078 28.359375 C 19.216183 28.373402 19.229945 28.38347 19.242188 28.396484 C 19.253292 28.410512 19.267054 28.42058 19.279297 28.433594 C 19.28933 28.446158 19.301547 28.455051 19.3125 28.466797 C 19.323962 28.481357 19.336925 28.492384 19.349609 28.505859 C 19.358738 28.517227 19.370974 28.524461 19.380859 28.535156 C 19.392299 28.549683 19.405312 28.560773 19.417969 28.574219 C 19.427167 28.585575 19.439263 28.592839 19.449219 28.603516 C 19.458933 28.615681 19.469891 28.62532 19.480469 28.636719 C 19.489855 28.648408 19.501533 28.656992 19.511719 28.667969 C 19.520559 28.678977 19.531466 28.686887 19.541016 28.697266 C 19.549824 28.708235 19.560799 28.716218 19.570312 28.726562 C 19.579121 28.737532 19.590095 28.745515 19.599609 28.755859 C 19.607869 28.766145 19.618072 28.773466 19.626953 28.783203 C 19.635184 28.793453 19.645449 28.800842 19.654297 28.810547 C 19.661949 28.820077 19.6715 28.826877 19.679688 28.835938 C 19.688857 28.84742 19.699045 28.856385 19.708984 28.867188 C 19.715838 28.875602 19.725148 28.880629 19.732422 28.888672 C 19.740137 28.898196 19.749562 28.905013 19.757812 28.914062 C 19.764973 28.922902 19.773628 28.929068 19.78125 28.9375 C 19.787827 28.945619 19.795767 28.951208 19.802734 28.958984 C 19.808706 28.966357 19.815971 28.971425 19.822266 28.978516 C 19.830278 28.98855 19.839053 28.996342 19.847656 29.005859 C 19.853336 29.012772 19.861223 29.016778 19.867188 29.023438 C 19.873181 29.030837 19.8804 29.035854 19.886719 29.042969 C 19.891804 29.049246 19.897024 29.054473 19.902344 29.060547 C 19.909442 29.069386 19.918222 29.075547 19.925781 29.083984 C 19.93055 29.089789 19.936435 29.093982 19.941406 29.099609 C 19.946144 29.105425 19.952092 29.109594 19.957031 29.115234 C 19.961493 29.120712 19.968015 29.123584 19.972656 29.128906 C 19.978667 29.136369 19.983894 29.143215 19.990234 29.150391 C 19.990234 29.150391 19.992188 29.152344 19.992188 29.152344 C 19.995796 29.156674 20.002138 29.15788 20.005859 29.162109 C 20.01015 29.167361 20.015075 29.170673 20.019531 29.175781 C 20.022908 29.179914 20.025818 29.183456 20.029297 29.1875 C 20.034707 29.194179 20.0412 29.19863 20.046875 29.205078 C 20.046875 29.205078 20.046875 29.207031 20.046875 29.207031 C 20.04967 29.210195 20.053783 29.211738 20.056641 29.214844 C 20.059672 29.218533 20.063293 29.220991 20.066406 29.224609 C 20.069417 29.228274 20.07308 29.23078 20.076172 29.234375 C 20.079183 29.23804 20.082845 29.240546 20.085938 29.244141 C 20.088624 29.247411 20.090999 29.250692 20.09375 29.253906 C 20.09375 29.253906 20.095703 29.255859 20.095703 29.255859 C 20.097511 29.257953 20.099727 29.259649 20.101562 29.261719 C 20.101562 29.261719 20.103516 29.263672 20.103516 29.263672 C 20.105287 29.265798 20.107576 29.267429 20.109375 29.269531 C 20.109375 29.269531 20.111328 29.271484 20.111328 29.271484 C 20.112509 29.272902 20.114041 29.273984 20.115234 29.275391 C 20.115234 29.275391 20.117188 29.277344 20.117188 29.277344 C 20.118369 29.278761 20.1199 29.279843 20.121094 29.28125 C 20.121094 29.28125 20.123047 29.283203 20.123047 29.283203 C 20.123047 29.283203 20.125 29.285156 20.125 29.285156 C 20.127434 29.288119 20.132279 29.292005 20.134766 29.294922 C 20.135707 29.296016 20.137723 29.295788 20.138672 29.296875 C 20.138672 29.296875 20.138672 29.298828 20.138672 29.298828 C 20.138672 29.298828 20.140625 29.300781 20.140625 29.300781 C 20.191742 29.362122 20.255978 29.412415 20.326172 29.449219 C 20.327817 29.450071 20.328425 29.452289 20.330078 29.453125 C 20.40388 29.490919 20.484744 29.513672 20.570312 29.513672 L 23.900391 29.513672 L 24.027344 27.369141 L 24.064453 27.369141 L 24.068359 27.425781 L 24.119141 27.425781 L 24.123047 27.480469 L 24.173828 27.480469 L 24.177734 27.535156 L 24.228516 27.535156 L 24.232422 27.587891 L 24.28125 27.587891 L 24.285156 27.642578 L 24.333984 27.642578 L 24.337891 27.693359 L 24.384766 27.693359 L 24.388672 27.746094 L 24.435547 27.746094 L 24.439453 27.796875 L 24.486328 27.796875 L 24.490234 27.845703 L 24.535156 27.845703 L 24.539062 27.896484 L 24.583984 27.896484 L 24.587891 27.945312 L 24.634766 27.945312 L 24.636719 27.992188 L 24.681641 27.992188 L 24.683594 28.039062 L 24.726562 28.039062 L 24.728516 28.085938 L 24.773438 28.085938 L 24.775391 28.130859 L 24.818359 28.130859 L 24.820312 28.175781 L 24.861328 28.175781 L 24.863281 28.220703 L 24.90625 28.220703 L 24.908203 28.263672 L 24.949219 28.263672 L 24.951172 28.306641 L 24.990234 28.306641 L 24.992188 28.349609 L 25.03125 28.349609 L 25.033203 28.390625 L 25.072266 28.390625 L 25.074219 28.429688 L 25.111328 28.429688 L 25.113281 28.470703 L 25.150391 28.470703 L 25.152344 28.509766 L 25.189453 28.509766 L 25.191406 28.546875 L 25.226562 28.546875 L 25.228516 28.585938 L 25.263672 28.585938 L 25.265625 28.621094 L 25.298828 28.621094 L 25.300781 28.658203 L 25.333984 28.658203 L 25.335938 28.693359 L 25.369141 28.693359 L 25.371094 28.728516 L 25.402344 28.728516 L 25.404297 28.761719 L 25.435547 28.761719 L 25.4375 28.794922 L 25.46875 28.794922 L 25.470703 28.826172 L 25.5 28.826172 L 25.501953 28.857422 L 25.53125 28.857422 L 25.533203 28.888672 L 25.560547 28.888672 L 25.5625 28.919922 L 25.589844 28.919922 L 25.591797 28.949219 L 25.619141 28.949219 L 25.621094 28.976562 L 25.646484 28.976562 L 25.648438 29.005859 L 25.673828 29.005859 L 25.675781 29.03125 L 25.699219 29.03125 L 25.701172 29.058594 L 25.724609 29.058594 L 25.726562 29.083984 L 25.75 29.083984 L 25.751953 29.109375 L 25.773438 29.109375 L 25.775391 29.132812 L 25.796875 29.132812 L 25.798828 29.15625 L 25.820312 29.15625 L 25.822266 29.179688 L 25.841797 29.179688 L 25.84375 29.201172 L 25.863281 29.201172 L 25.865234 29.222656 L 25.884766 29.222656 L 25.886719 29.242188 L 25.904297 29.242188 L 25.90625 29.261719 L 25.921875 29.261719 L 25.923828 29.28125 L 25.941406 29.28125 L 25.943359 29.298828 L 25.958984 29.298828 L 25.960938 29.316406 L 25.974609 29.316406 L 25.976562 29.333984 L 25.992188 29.333984 L 25.992188 29.349609 L 26.007812 29.349609 L 26.007812 29.365234 L 26.023438 29.365234 L 26.023438 29.378906 L 26.037109 29.378906 L 26.037109 29.392578 L 26.048828 29.392578 L 26.048828 29.40625 L 26.060547 29.40625 L 26.060547 29.417969 L 26.072266 29.417969 L 26.072266 29.429688 L 26.083984 29.429688 L 26.083984 29.441406 L 26.09375 29.441406 L 26.09375 29.451172 L 26.103516 29.451172 L 26.103516 29.458984 L 26.111328 29.458984 L 26.111328 29.46875 L 26.119141 29.46875 L 26.119141 29.476562 L 26.126953 29.476562 L 26.126953 29.482422 L 26.132812 29.482422 L 26.132812 29.490234 L 26.138672 29.490234 L 26.138672 29.494141 L 26.142578 29.494141 L 26.142578 29.5 L 26.146484 29.5 L 26.146484 29.503906 L 26.150391 29.503906 L 26.150391 29.507812 L 26.152344 29.507812 L 26.152344 29.509766 L 26.154297 29.509766 L 26.154297 29.511719 L 26.15625 29.511719 L 26.15625 29.513672 L 29.427734 29.513672 C 29.596981 29.513672 29.751643 29.427716 29.857422 29.300781 C 29.963201 29.173846 30.020395 29.005184 29.992188 28.835938 L 29.992188 28.833984 L 28.46875 20.9375 C 28.46875 20.9375 28.466797 20.935547 28.466797 20.935547 C 28.452867 20.865904 28.429348 20.803085 28.396484 20.748047 C 28.396484 20.748047 28.394531 20.746094 28.394531 20.746094 C 28.393557 20.744479 28.391614 20.743789 28.390625 20.742188 C 28.390625 20.742188 28.388672 20.740234 28.388672 20.740234 C 28.387698 20.73862 28.385754 20.737929 28.384766 20.736328 C 28.384766 20.736328 28.384766 20.734375 28.384766 20.734375 C 28.358841 20.691395 28.322776 20.658067 28.287109 20.625 C 28.280879 20.619549 28.277965 20.610615 28.271484 20.605469 C 28.271484 20.605469 28.269531 20.603516 28.269531 20.603516 C 28.2684 20.602627 28.266764 20.602442 28.265625 20.601562 C 28.263405 20.599789 28.260061 20.595487 28.257812 20.59375 C 28.256013 20.592297 28.253772 20.58932 28.251953 20.587891 C 28.250176 20.586409 28.249843 20.583489 28.248047 20.582031 C 28.248047 20.582031 28.246094 20.582031 28.246094 20.582031 C 28.242724 20.57931 28.239765 20.576856 28.236328 20.574219 C 28.235239 20.57331 28.235471 20.571212 28.234375 20.570312 C 28.234375 20.570312 28.232422 20.568359 28.232422 20.568359 C 28.23028 20.566621 28.228732 20.564204 28.226562 20.5625 C 28.223371 20.559868 28.22005 20.553337 28.216797 20.550781 C 28.213975 20.548467 28.209901 20.54327 28.207031 20.541016 C 28.20425 20.538608 28.202049 20.53555 28.199219 20.533203 C 28.199219 20.533203 28.197266 20.53125 28.197266 20.53125 C 28.193308 20.528003 28.189598 20.524614 28.185547 20.521484 C 28.180573 20.517382 28.176998 20.511729 28.171875 20.507812 C 28.169031 20.505479 28.166955 20.502273 28.164062 20.5 C 28.159645 20.495991 28.156893 20.490181 28.152344 20.486328 C 28.151212 20.485439 28.149576 20.485255 28.148438 20.484375 C 28.142785 20.479663 28.138659 20.47322 28.132812 20.46875 C 28.129419 20.465687 28.126518 20.461956 28.123047 20.458984 C 28.121905 20.458087 28.12029 20.457919 28.119141 20.457031 C 28.113469 20.452252 28.109386 20.44594 28.103516 20.441406 C 28.092342 20.4311 28.084285 20.417488 28.072266 20.408203 C 28.06483 20.401871 28.058561 20.394579 28.050781 20.388672 C 28.04622 20.384828 28.043753 20.378685 28.039062 20.375 C 28.031407 20.36834 28.025608 20.359718 28.017578 20.353516 C 28.009495 20.346558 28.002635 20.338482 27.994141 20.332031 C 27.987763 20.326596 27.983194 20.319575 27.976562 20.314453 C 27.968897 20.307784 27.963119 20.299179 27.955078 20.292969 C 27.948464 20.287211 27.942441 20.278854 27.935547 20.273438 C 27.926475 20.265417 27.91976 20.255416 27.910156 20.248047 C 27.901075 20.240102 27.894374 20.229953 27.884766 20.222656 C 27.878152 20.216898 27.872128 20.206589 27.865234 20.201172 C 27.855213 20.192268 27.846611 20.181934 27.835938 20.173828 C 27.82871 20.167473 27.822018 20.156335 27.814453 20.150391 C 27.804213 20.141195 27.796086 20.129449 27.785156 20.121094 C 27.775551 20.112559 27.768017 20.101551 27.757812 20.09375 C 27.748208 20.085216 27.740673 20.074207 27.730469 20.066406 C 27.720228 20.05721 27.712102 20.045465 27.701172 20.037109 C 27.690931 20.027914 27.682805 20.016168 27.671875 20.007812 C 27.661219 19.998243 27.652027 19.987175 27.640625 19.978516 C 27.629623 19.96858 27.621177 19.956226 27.609375 19.947266 C 27.597725 19.936745 27.588717 19.92349 27.576172 19.914062 C 27.565434 19.90441 27.556418 19.893493 27.544922 19.884766 C 27.534293 19.875054 27.527012 19.86231 27.515625 19.853516 C 27.502132 19.840938 27.491297 19.825526 27.476562 19.814453 C 27.465193 19.804123 27.455588 19.792487 27.443359 19.783203 C 27.431684 19.772421 27.422755 19.759666 27.410156 19.75 C 27.396979 19.737648 27.387417 19.721848 27.373047 19.710938 C 27.360193 19.698956 27.34992 19.684445 27.335938 19.673828 C 27.322025 19.660859 27.310153 19.646133 27.294922 19.634766 C 27.282599 19.623385 27.273116 19.609745 27.259766 19.599609 C 27.246635 19.587222 27.236981 19.571496 27.222656 19.560547 C 27.207551 19.546166 27.194429 19.530038 27.177734 19.517578 C 27.165214 19.505892 27.156171 19.490859 27.142578 19.480469 C 27.127301 19.46577 27.11458 19.448264 27.097656 19.435547 C 27.083573 19.42228 27.072091 19.406144 27.056641 19.394531 C 27.041951 19.380546 27.029866 19.363732 27.013672 19.351562 C 26.998994 19.337589 26.986883 19.320755 26.970703 19.308594 C 26.955426 19.293895 26.942705 19.276389 26.925781 19.263672 C 26.910504 19.248973 26.897783 19.231467 26.880859 19.21875 C 26.865184 19.203668 26.851391 19.186823 26.833984 19.173828 C 26.818396 19.158745 26.806375 19.139963 26.789062 19.126953 C 26.772807 19.111147 26.758373 19.093619 26.740234 19.080078 C 26.723032 19.063257 26.708774 19.043567 26.689453 19.029297 C 26.67471 19.015089 26.662766 18.998689 26.646484 18.986328 C 26.628156 18.968024 26.612586 18.946996 26.591797 18.931641 C 26.575423 18.915693 26.561257 18.898412 26.542969 18.884766 C 26.52675 18.86871 26.514229 18.849706 26.496094 18.835938 C 26.477829 18.817503 26.462148 18.796731 26.441406 18.78125 C 26.423698 18.763565 26.408682 18.74345 26.388672 18.728516 C 26.370344 18.710212 26.354774 18.689184 26.333984 18.673828 C 26.316465 18.656397 26.301013 18.637794 26.28125 18.623047 C 26.263275 18.60487 26.248898 18.583672 26.228516 18.568359 C 26.208686 18.548134 26.190745 18.526474 26.167969 18.509766 C 26.15015 18.491937 26.135388 18.47207 26.115234 18.457031 C 26.09673 18.438118 26.081633 18.416239 26.060547 18.400391 C 26.040597 18.379826 26.022971 18.356816 26 18.339844 C 25.980573 18.320029 25.963664 18.29769 25.941406 18.28125 C 25.921996 18.261452 25.90505 18.239086 25.882812 18.222656 C 25.862847 18.202075 25.845258 18.179092 25.822266 18.162109 C 25.8023 18.141528 25.784711 18.118545 25.761719 18.101562 C 25.741769 18.080998 25.724143 18.057987 25.701172 18.041016 C 25.680674 18.019661 25.662399 17.996041 25.638672 17.978516 C 25.617377 17.956331 25.597038 17.934064 25.572266 17.916016 C 25.552504 17.895487 25.536429 17.87245 25.513672 17.855469 C 25.492099 17.832508 25.472503 17.807698 25.447266 17.789062 C 25.426747 17.76741 25.408572 17.744335 25.384766 17.726562 C 25.362577 17.702819 25.342493 17.677346 25.316406 17.658203 C 25.29473 17.635253 25.27535 17.6104 25.25 17.591797 C 25.227192 17.567391 25.206606 17.541026 25.179688 17.521484 C 25.158534 17.499162 25.139877 17.475227 25.115234 17.457031 C 25.09252 17.432466 25.071771 17.406415 25.044922 17.386719 C 25.022733 17.362975 25.002649 17.337502 24.976562 17.318359 C 24.952886 17.292754 24.930501 17.266403 24.902344 17.246094 C 24.880396 17.222553 24.861712 17.196767 24.835938 17.177734 C 24.812152 17.151738 24.790087 17.124117 24.761719 17.103516 C 24.738429 17.078329 24.717082 17.051315 24.689453 17.03125 C 24.665258 17.004805 24.642213 16.97789 24.613281 16.957031 C 24.590824 16.932684 24.571437 16.906298 24.544922 16.886719 C 24.520146 16.859058 24.496671 16.830281 24.466797 16.808594 C 24.443012 16.782597 24.420946 16.754976 24.392578 16.734375 C 24.367921 16.707138 24.344092 16.679581 24.314453 16.658203 C 24.291029 16.632259 24.27014 16.604636 24.242188 16.583984 C 24.216252 16.554636 24.191761 16.524666 24.160156 16.501953 C 24.136084 16.475157 24.112861 16.448911 24.083984 16.427734 C 24.058484 16.398797 24.034914 16.368213 24.003906 16.345703 C 23.978656 16.317211 23.954442 16.287849 23.923828 16.265625 C 23.898195 16.236701 23.872951 16.208008 23.841797 16.185547 C 23.815915 16.156176 23.791315 16.126261 23.759766 16.103516 C 23.733884 16.074145 23.709283 16.04423 23.677734 16.021484 C 23.651877 15.992141 23.627218 15.962184 23.595703 15.939453 C 23.56936 15.909239 23.544008 15.878749 23.511719 15.855469 C 23.484798 15.824591 23.458903 15.793161 23.425781 15.769531 C 23.399917 15.739947 23.375334 15.71042 23.34375 15.6875 C 23.31697 15.656202 23.290887 15.625564 23.257812 15.601562 C 23.230569 15.56964 23.203693 15.53802 23.169922 15.513672 C 23.142881 15.482157 23.11546 15.451827 23.082031 15.427734 C 23.055013 15.395978 23.029563 15.364132 22.996094 15.339844 C 22.96841 15.307057 22.940762 15.274882 22.90625 15.25 C 22.878567 15.217214 22.850918 15.185038 22.816406 15.160156 C 22.788154 15.126697 22.759962 15.093581 22.724609 15.068359 C 22.697382 15.036194 22.670538 15.005011 22.636719 14.980469 C 22.608738 14.94679 22.580027 14.914147 22.544922 14.888672 C 22.515451 14.853011 22.484663 14.819466 22.447266 14.792969 C 22.419232 14.759661 22.392481 14.726346 22.357422 14.701172 C 22.328955 14.666806 22.299532 14.63522 22.263672 14.609375 C 22.234348 14.573688 22.205204 14.538284 22.167969 14.511719 C 22.138866 14.476504 22.109105 14.442298 22.072266 14.416016 C 22.042822 14.380388 22.011964 14.346793 21.974609 14.320312 C 21.945285 14.284625 21.916142 14.249222 21.878906 14.222656 C 21.84939 14.186554 21.818833 14.151813 21.78125 14.125 C 21.751394 14.088483 21.719741 14.054353 21.681641 14.027344 C 21.651541 13.990316 21.620571 13.955041 21.582031 13.927734 C 21.55174 13.890471 21.521256 13.853587 21.482422 13.826172 C 21.453117 13.790019 21.42212 13.757391 21.384766 13.730469 C 21.354013 13.691598 21.321128 13.655391 21.28125 13.626953 C 21.250717 13.588572 21.219154 13.551594 21.179688 13.523438 C 21.149695 13.485743 21.116749 13.451665 21.078125 13.423828 C 21.046988 13.384041 21.013279 13.347329 20.972656 13.318359 C 20.94083 13.277915 20.906876 13.240132 20.865234 13.210938 C 20.834801 13.17276 20.802958 13.137416 20.763672 13.109375 C 20.732371 13.069164 20.699157 13.031171 20.658203 13.001953 C 20.626095 12.960784 20.591042 12.924143 20.548828 12.894531 C 20.516674 12.853671 20.481615 12.816483 20.439453 12.787109 C 20.408376 12.747467 20.376443 12.710526 20.335938 12.681641 C 20.303748 12.639835 20.269088 12.600349 20.226562 12.570312 C 20.194872 12.529162 20.158909 12.492644 20.117188 12.462891 C 20.084259 12.419656 20.047792 12.380378 20.003906 12.349609 C 19.971337 12.307311 19.935716 12.268525 19.892578 12.238281 C 19.859654 12.195522 19.823009 12.157388 19.779297 12.126953 C 19.746922 12.084739 19.712804 12.045883 19.669922 12.015625 C 19.637207 11.972269 19.60032 11.935232 19.556641 11.904297 C 19.522826 11.859147 19.485065 11.818866 19.439453 11.787109 C 19.406717 11.74395 19.37176 11.704617 19.328125 11.673828 C 19.2945 11.628699 19.25632 11.588458 19.210938 11.556641 C 19.177337 11.512038 19.138911 11.472869 19.09375 11.441406 C 19.060634 11.397188 19.024924 11.355603 18.980469 11.324219 C 18.946053 11.277586 18.906244 11.23761 18.859375 11.205078 C 18.825402 11.159482 18.786197 11.119892 18.740234 11.087891 C 18.706429 11.042253 18.668828 11.000847 18.623047 10.96875 C 18.588889 10.922132 18.548514 10.882236 18.501953 10.849609 C 18.467842 10.803049 18.429296 10.761122 18.382812 10.728516 C 18.347556 10.679923 18.306421 10.638976 18.257812 10.605469 C 18.223149 10.558154 18.184136 10.515316 18.136719 10.482422 C 18.101904 10.434655 18.06144 10.392513 18.013672 10.359375 C 17.978545 10.31118 17.936973 10.269624 17.888672 10.236328 C 17.853345 10.187571 17.812428 10.144916 17.763672 10.111328 C 17.728345 10.062571 17.687428 10.019916 17.638672 9.9863281 C 17.603376 9.9376141 17.562374 9.8949007 17.513672 9.8613281 C 17.478064 9.8116354 17.436174 9.7684663 17.386719 9.734375 C 17.351111 9.6846824 17.30922 9.6415131 17.259766 9.6074219 C 17.223824 9.5567006 17.181121 9.5131409 17.130859 9.4785156 C 17.094917 9.4277943 17.052215 9.3842346 17.001953 9.3496094 C 16.965707 9.2984592 16.921888 9.2554769 16.871094 9.2207031 C 16.834993 9.1694542 16.79285 9.1247453 16.742188 9.0898438 C 16.705614 9.0376515 16.660984 8.9942909 16.609375 8.9589844 C 16.573832 8.9080161 16.532311 8.8650371 16.482422 8.8300781 C 16.445446 8.775795 16.398665 8.7317771 16.345703 8.6953125 C 16.309413 8.64268 16.266299 8.5982154 16.214844 8.5625 C 16.177565 8.5080933 16.1315 8.4621867 16.078125 8.4257812 C 16.040792 8.3719056 15.99462 8.3270604 15.941406 8.2910156 C 15.905621 8.2391163 15.863053 8.1956183 15.8125 8.1601562 C 15.774996 8.1038339 15.726345 8.0589873 15.671875 8.0214844 C 15.634649 7.966252 15.588822 7.9217152 15.535156 7.8847656 C 15.497609 7.8290104 15.450759 7.7832236 15.396484 7.7460938 C 15.358938 7.6903385 15.312087 7.6445517 15.257812 7.6074219 C 15.2198 7.5509759 15.172318 7.5041403 15.117188 7.4667969 C 15.079469 7.410787 15.033106 7.3633812 14.978516 7.3261719 C 14.941174 7.2704272 14.893869 7.2247178 14.839844 7.1875 C 14.802088 7.1301484 14.75249 7.0848971 14.697266 7.046875 C 14.659245 6.9891167 14.61041 6.942444 14.554688 6.9042969 C 14.516803 6.8464018 14.46773 6.8000137 14.412109 6.7617188 C 14.373326 6.7021238 14.323091 6.6541307 14.265625 6.6152344 C 14.227079 6.5566786 14.177803 6.509087 14.121094 6.4707031 C 14.082582 6.4121984 14.033208 6.3645408 13.976562 6.3261719 C 13.937779 6.2665769 13.887544 6.2185838 13.830078 6.1796875 C 13.791295 6.1200926 13.74106 6.0720995 13.683594 6.0332031 C 13.645686 5.9743089 13.597114 5.9275644 13.541016 5.8886719 C 13.439584 5.7273688 13.262598 5.6347656 13.054688 5.6347656 L 10.742188 5.6347656 L 10.828125 6.9414062 L 10.767578 6.9414062 L 10.777344 6.8007812 L 10.625 6.8007812 L 10.634766 6.65625 L 10.480469 6.65625 L 10.490234 6.5136719 L 10.335938 6.5136719 L 10.345703 6.3691406 L 10.191406 6.3691406 L 10.201172 6.2246094 L 10.044922 6.2246094 L 10.054688 6.078125 L 9.8984375 6.078125 L 9.9082031 5.9316406 L 9.7519531 5.9316406 L 9.7617188 5.7832031 L 9.6035156 5.7832031 L 9.6132812 5.6347656 L 7.2441406 5.6347656 z "
       id="path5256"
       style="fill-opacity:1;fill:url(#linearGradient6104)"
       clip-path="url(#clipPath6109)" />
    <path
       inkscape:connector-curvature="0"
       d="M 13.469534,5.9380857 C 13.413119,5.656008 13.187456,5.4867613 12.905379,5.4867613 l -2.313038,0 0.112831,1.692466 -1.353973,0 0.1128311,-1.692466 -2.369453,0 c -0.2820778,0 -0.5077399,0.2256622 -0.5641555,0.4513244 L 5.007202,13.836261 c -0.056416,0.338494 0.2256621,0.676987 0.5641554,0.676987 l 3.3285173,0 0.1692466,-2.820777 1.9181287,0 0.169247,2.820777 3.272101,0 c 0.338494,0 0.620571,-0.338493 0.564156,-0.676987 L 13.469534,5.9380857 M 9.1255368,10.56416 9.2383679,8.3075383 l 1.4668041,0 0.112831,2.2566217 -1.6924662,0 z"
       id="path5201"
       style="fill:#212121" />
  </g>
</svg>
