<?xml version="1.0" encoding="UTF-8" standalone="no"?>
<!-- Created with Inkscape (http://www.inkscape.org/) -->

<svg
   xmlns:dc="http://purl.org/dc/elements/1.1/"
   xmlns:cc="http://creativecommons.org/ns#"
   xmlns:rdf="http://www.w3.org/1999/02/22-rdf-syntax-ns#"
   xmlns:svg="http://www.w3.org/2000/svg"
   xmlns="http://www.w3.org/2000/svg"
   xmlns:xlink="http://www.w3.org/1999/xlink"
   xmlns:sodipodi="http://sodipodi.sourceforge.net/DTD/sodipodi-0.dtd"
   xmlns:inkscape="http://www.inkscape.org/namespaces/inkscape"
   inkscape:export-ydpi="648"
   inkscape:export-xdpi="648"
   inkscape:export-filename="/home/juergen/Projekte/Android/Android_Studio/Baumann_Theme/theme/src/main/assets/icons/res/drawable-xxhdpi/a118.png"
   width="5.6444445mm"
   height="5.6444445mm"
   viewBox="0 0 20 20"
   id="svg2"
   version="1.1"
   inkscape:version="0.91 r13725"
   sodipodi:docname="Screencast.svg">
  <sodipodi:namedview
     id="base"
     pagecolor="#ffffff"
     bordercolor="#666666"
     borderopacity="1.0"
     inkscape:pageopacity="0.0"
     inkscape:pageshadow="2"
     inkscape:zoom="15.839192"
     inkscape:cx="14.816048"
     inkscape:cy="9.6592547"
     inkscape:document-units="px"
     inkscape:current-layer="layer2"
     showgrid="true"
     fit-margin-top="0"
     fit-margin-left="0"
     fit-margin-right="0"
     fit-margin-bottom="0"
     showguides="true"
     inkscape:guide-bbox="true"
     inkscape:window-width="1366"
     inkscape:window-height="744"
     inkscape:window-x="0"
     inkscape:window-y="24"
     inkscape:window-maximized="1"
     inkscape:snap-grids="false"
     inkscape:snap-to-guides="false"
     inkscape:snap-page="false">
    <inkscape:grid
       id="grid4138"
       type="xygrid" />
    <sodipodi:guide
       id="guide4140"
       orientation="0,1"
       position="24,18" />
    <sodipodi:guide
       id="guide4142"
       orientation="0,1"
       position="10,2" />
    <sodipodi:guide
       id="guide4144"
       orientation="1,0"
       position="2,10" />
    <sodipodi:guide
       id="guide4146"
       orientation="0,20"
       position="0,0" />
    <sodipodi:guide
       id="guide4148"
       orientation="-20,0"
       position="20,0" />
    <sodipodi:guide
       id="guide4150"
       orientation="0,-20"
       position="20,20" />
    <sodipodi:guide
       id="guide4152"
       orientation="20,0"
       position="0,20" />
    <sodipodi:guide
       id="guide4154"
       orientation="1,0"
       position="18,10" />
    <sodipodi:guide
       id="guide4156"
       orientation="-0.70710678,0.70710678"
       position="10,10" />
    <sodipodi:guide
       id="guide4158"
       orientation="0.70710678,0.70710678"
       position="10,10" />
    <sodipodi:guide
       id="guide4160"
       orientation="1,0"
       position="4,10" />
    <sodipodi:guide
       id="guide4162"
       orientation="1,0"
       position="16,10" />
    <sodipodi:guide
       id="guide4164"
       orientation="0,1"
       position="10,16" />
    <sodipodi:guide
       id="guide4166"
       orientation="0,1"
       position="10,4" />
    <sodipodi:guide
       id="guide4168"
       orientation="0,1"
       position="10,15" />
    <sodipodi:guide
       id="guide4170"
       orientation="0,1"
       position="10,5" />
    <sodipodi:guide
       id="guide4172"
       orientation="1,0"
       position="5,10" />
    <sodipodi:guide
       id="guide4174"
       orientation="1,0"
       position="15,10" />
  </sodipodi:namedview>
  <defs
     id="defs4">
    <linearGradient
       inkscape:collect="always"
       id="linearGradient7678">
      <stop
         style="stop-color:#000000;stop-opacity:1;"
         offset="0"
         id="stop7680" />
      <stop
         style="stop-color:#000000;stop-opacity:0;"
         offset="1"
         id="stop7682" />
    </linearGradient>
    <clipPath
       clipPathUnits="userSpaceOnUse"
       id="clipPath12478">
      <circle
         style="opacity:1;fill:#2196f3;fill-opacity:1;stroke:none;stroke-width:0.05069799;stroke-miterlimit:4;stroke-dasharray:none;stroke-opacity:1"
         id="circle12480"
         cx="9.9999781"
         cy="10.000005"
         r="10" />
    </clipPath>
    <clipPath
       id="clipPath5790"
       clipPathUnits="userSpaceOnUse">
      <circle
         inkscape:export-ydpi="648"
         inkscape:export-xdpi="648"
         inkscape:export-filename="/home/juergen/path4136.png"
         style="opacity:1;fill:#2196f3;fill-opacity:1;stroke:none;stroke-width:0.05069799;stroke-miterlimit:4;stroke-dasharray:none;stroke-opacity:1"
         id="circle5792"
         cx="9.9999781"
         cy="10.000005"
         r="10" />
    </clipPath>
    <clipPath
       clipPathUnits="userSpaceOnUse"
       id="clipPath7690">
      <circle
         inkscape:export-ydpi="648"
         inkscape:export-xdpi="648"
         inkscape:export-filename="/home/juergen/Schreibtisch/path4136.png"
         style="opacity:1;fill:#2196f3;fill-opacity:1;stroke:none;stroke-width:0.05069799;stroke-miterlimit:4;stroke-dasharray:none;stroke-opacity:1"
         id="circle7692"
         cx="9.9999781"
         cy="10.000005"
         r="10" />
    </clipPath>
    <clipPath
       id="clipPath5119"
       clipPathUnits="userSpaceOnUse">
      <circle
         inkscape:export-ydpi="648"
         inkscape:export-xdpi="648"
         inkscape:export-filename="/home/juergen/Schreibtisch/path4136.png"
         style="opacity:1;fill:#ff9800;fill-opacity:1;stroke:none;stroke-width:0.05069799;stroke-miterlimit:4;stroke-dasharray:none;stroke-opacity:1"
         id="circle5121"
         cx="9.9999781"
         cy="10.000005"
         r="10" />
    </clipPath>
    <clipPath
       clipPathUnits="userSpaceOnUse"
       id="clipPath6101">
      <circle
         inkscape:export-ydpi="648"
         inkscape:export-xdpi="648"
         inkscape:export-filename="/home/juergen/Schreibtisch/path4136.png"
         style="opacity:1;fill:#8bc34a;fill-opacity:1;stroke:none;stroke-width:0.05069799;stroke-miterlimit:4;stroke-dasharray:none;stroke-opacity:1"
         id="circle6103"
         cx="9.9999781"
         cy="10.000005"
         r="10" />
    </clipPath>
    <clipPath
       id="clipPath5127"
       clipPathUnits="userSpaceOnUse">
      <circle
         inkscape:export-ydpi="648"
         inkscape:export-xdpi="648"
         inkscape:export-filename="/home/juergen/Schreibtisch/path4136.png"
         style="opacity:1;fill:#8bc34a;fill-opacity:1;stroke:none;stroke-width:0.05069799;stroke-miterlimit:4;stroke-dasharray:none;stroke-opacity:1"
         id="circle5129"
         cx="9.9999781"
         cy="10.000005"
         r="10" />
    </clipPath>
    <clipPath
       clipPathUnits="userSpaceOnUse"
       id="clipPath5293">
      <circle
         inkscape:export-ydpi="648"
         inkscape:export-xdpi="648"
         inkscape:export-filename="/home/juergen/Schreibtisch/path4136.png"
         style="opacity:1;fill:#8bc34a;fill-opacity:1;stroke:none;stroke-width:0.05069799;stroke-miterlimit:4;stroke-dasharray:none;stroke-opacity:1"
         id="circle5295"
         cx="9.9999781"
         cy="10.000005"
         r="10" />
    </clipPath>
    <clipPath
       id="clipPath6369"
       clipPathUnits="userSpaceOnUse">
      <circle
         inkscape:export-ydpi="648"
         inkscape:export-xdpi="648"
         inkscape:export-filename="/home/juergen/Schreibtisch/path4136.png"
         style="opacity:1;fill:#8bc34a;fill-opacity:1;stroke:none;stroke-width:0.05069799;stroke-miterlimit:4;stroke-dasharray:none;stroke-opacity:1"
         id="circle6371"
         cx="9.9999781"
         cy="10.000005"
         r="10" />
    </clipPath>
    <linearGradient
       inkscape:collect="always"
       xlink:href="#linearGradient7678"
       id="linearGradient7684"
       x1="10"
       y1="10"
       x2="20"
       y2="20"
       gradientUnits="userSpaceOnUse" />
    <clipPath
       clipPathUnits="userSpaceOnUse"
       id="clipPath7689">
      <circle
         inkscape:export-ydpi="648"
         inkscape:export-xdpi="648"
         inkscape:export-filename="/home/juergen/Schreibtisch/path4136.png"
         style="opacity:1;fill:#ff5722;fill-opacity:1;stroke:none;stroke-width:0.05069799;stroke-miterlimit:4;stroke-dasharray:none;stroke-opacity:1"
         id="circle7691"
         cx="9.9999781"
         cy="10.000005"
         r="10" />
    </clipPath>
  </defs>
  <metadata
     id="metadata7">
    <rdf:RDF>
      <cc:Work
         rdf:about="">
        <dc:format>image/svg+xml</dc:format>
        <dc:type
           rdf:resource="http://purl.org/dc/dcmitype/StillImage" />
        <dc:title></dc:title>
      </cc:Work>
    </rdf:RDF>
  </metadata>
  <g
     transform="translate(1058.1428,-861.93365)"
     id="layer1"
     inkscape:groupmode="layer"
     inkscape:label="Hintergrund">
    <circle
       r="10"
       cy="871.93365"
       cx="-1048.1428"
       id="path4136"
       style="opacity:1;fill:#f44336;fill-opacity:1;stroke:none;stroke-width:0.05069799;stroke-miterlimit:4;stroke-dasharray:none;stroke-opacity:1"
       inkscape:export-filename="/home/juergen/Schreibtisch/path4136.png"
       inkscape:export-xdpi="648"
       inkscape:export-ydpi="648" />
  </g>
  <g
     inkscape:label="Icon"
     id="layer2"
     inkscape:groupmode="layer"
     style="display:inline">
    <path
       style="fill:none"
       inkscape:connector-curvature="0"
       id="path4"
       d="m 3.9999777,4.0333382 12.0000003,0 0,11.9333328 -12.0000003,0 z" />
    <path
       d="m 18.999978,19.033339 12,0 0,11.933333 -12,0 z"
       id="path9754"
       inkscape:connector-curvature="0"
       style="fill:none" />
    <g
       transform="matrix(0.21880402,0,0,0.21880402,5,5)"
       id="g4258" />
    <g
       transform="matrix(0.21880402,0,0,0.21880402,5,5)"
       id="g4260" />
    <g
       transform="matrix(0.21880402,0,0,0.21880402,5,5)"
       id="g4262" />
    <g
       transform="matrix(0.21880402,0,0,0.21880402,5,5)"
       id="g4264" />
    <g
       transform="matrix(0.21880402,0,0,0.21880402,5,5)"
       id="g4266" />
    <g
       transform="matrix(0.21880402,0,0,0.21880402,5,5)"
       id="g4268" />
    <g
       transform="matrix(0.21880402,0,0,0.21880402,5,5)"
       id="g4270" />
    <g
       transform="matrix(0.21880402,0,0,0.21880402,5,5)"
       id="g4272" />
    <g
       transform="matrix(0.21880402,0,0,0.21880402,5,5)"
       id="g4274" />
    <g
       transform="matrix(0.21880402,0,0,0.21880402,5,5)"
       id="g4276" />
    <g
       transform="matrix(0.21880402,0,0,0.21880402,5,5)"
       id="g4278" />
    <g
       transform="matrix(0.21880402,0,0,0.21880402,5,5)"
       id="g4280" />
    <g
       transform="matrix(0.21880402,0,0,0.21880402,5,5)"
       id="g4282" />
    <g
       transform="matrix(0.21880402,0,0,0.21880402,5,5)"
       id="g4284" />
    <g
       transform="matrix(0.21880402,0,0,0.21880402,5,5)"
       id="g4286" />
    <path
       id="path6734"
       d="m 19.946074,-2.1015253 24,0 0,24.0000003 -24,0 0,-24.0000003 z"
       inkscape:connector-curvature="0"
       style="fill:none" />
    <path
       style="fill:url(#linearGradient7684);fill-opacity:1;opacity:0.2"
       d="M 6.8164062 6.8164062 C 6.3539062 6.8164062 5.9824219 7.1859375 5.9824219 7.6484375 L 5.9824219 11.816406 C 5.9824219 12.084283 6.1168403 12.312129 6.3144531 12.464844 C 6.3581244 12.52141 6.4062796 12.569572 6.4628906 12.613281 C 6.4715725 12.624496 6.4770957 12.637686 6.4863281 12.648438 L 5.1484375 12.648438 L 5.1484375 13.482422 L 5.296875 13.482422 L 5.296875 13.630859 L 5.4453125 13.630859 L 5.4453125 13.777344 L 5.5917969 13.777344 L 5.5917969 13.923828 L 5.7363281 13.923828 L 5.7363281 14.070312 L 5.8828125 14.070312 L 5.8828125 14.214844 L 6.0273438 14.214844 L 6.0273438 14.359375 L 6.1699219 14.359375 L 6.1699219 14.503906 L 6.3125 14.503906 L 6.3125 14.646484 L 6.4550781 14.646484 L 6.4550781 14.789062 L 6.5976562 14.789062 L 6.5976562 14.929688 L 6.7382812 14.929688 L 6.7382812 15.070312 L 6.8769531 15.070312 L 6.8769531 15.210938 L 7.0175781 15.210938 L 7.0175781 15.349609 L 7.1542969 15.349609 L 7.1542969 15.488281 L 7.2929688 15.488281 L 7.2929688 15.626953 L 7.4296875 15.626953 L 7.4296875 15.763672 L 7.5664062 15.763672 L 7.5664062 15.900391 L 7.7011719 15.900391 L 7.7011719 16.035156 L 7.8359375 16.035156 L 7.8359375 16.169922 L 7.9707031 16.169922 L 7.9707031 16.304688 L 8.1035156 16.304688 L 8.1035156 16.4375 L 8.2363281 16.4375 L 8.2363281 16.570312 L 8.3691406 16.570312 L 8.3691406 16.701172 L 8.5 16.701172 L 8.5 16.832031 L 8.6289062 16.832031 L 8.6289062 16.962891 L 8.7597656 16.962891 L 8.7597656 17.091797 L 8.8886719 17.091797 L 8.8886719 17.220703 L 9.015625 17.220703 L 9.015625 17.349609 L 9.1425781 17.349609 L 9.1425781 17.476562 L 9.2695312 17.476562 L 9.2695312 17.603516 L 9.3964844 17.603516 L 9.3964844 17.728516 L 9.5214844 17.728516 L 9.5214844 17.853516 L 9.6445312 17.853516 L 9.6445312 17.978516 L 9.7695312 17.978516 L 9.7695312 18.101562 L 9.8925781 18.101562 L 9.8925781 18.224609 L 10.013672 18.224609 L 10.013672 18.347656 L 10.134766 18.347656 L 10.134766 18.46875 L 10.255859 18.46875 L 10.255859 18.589844 L 10.376953 18.589844 L 10.376953 18.708984 L 10.496094 18.708984 L 10.496094 18.828125 L 10.613281 18.828125 L 10.613281 18.947266 L 10.730469 18.947266 L 10.730469 19.064453 L 10.847656 19.064453 L 10.847656 19.181641 L 10.964844 19.181641 L 10.964844 19.298828 L 11.080078 19.298828 L 11.080078 19.414062 L 11.195312 19.414062 L 11.195312 19.527344 L 11.308594 19.527344 L 11.308594 19.642578 L 11.421875 19.642578 L 11.421875 19.755859 L 11.535156 19.755859 L 11.535156 19.867188 L 11.646484 19.867188 L 11.646484 19.980469 L 11.757812 19.980469 L 11.757812 20.089844 L 11.867188 20.089844 L 11.867188 20.201172 L 11.976562 20.201172 L 11.976562 20.310547 L 12.085938 20.310547 L 12.085938 20.419922 L 12.193359 20.419922 L 12.193359 20.527344 L 12.300781 20.527344 L 12.300781 20.634766 L 12.408203 20.634766 L 12.408203 20.740234 L 12.513672 20.740234 L 12.513672 20.847656 L 12.619141 20.847656 L 12.619141 20.951172 L 12.722656 20.951172 L 12.722656 21.056641 L 12.826172 21.056641 L 12.826172 21.160156 L 12.929688 21.160156 L 12.929688 21.263672 L 13.03125 21.263672 L 13.03125 21.365234 L 13.132812 21.365234 L 13.132812 21.466797 L 13.234375 21.466797 L 13.234375 21.566406 L 13.333984 21.566406 L 13.333984 21.666016 L 13.431641 21.666016 L 13.431641 21.765625 L 13.53125 21.765625 L 13.53125 21.863281 L 13.628906 21.863281 L 13.628906 21.960938 L 13.724609 21.960938 L 13.724609 22.058594 L 13.822266 22.058594 L 13.822266 22.154297 L 13.916016 22.154297 L 13.916016 22.25 L 14.011719 22.25 L 14.011719 22.345703 L 14.105469 22.345703 L 14.105469 22.439453 L 14.199219 22.439453 L 14.199219 22.53125 L 14.291016 22.53125 L 14.291016 22.625 L 14.382812 22.625 L 14.382812 22.716797 L 14.474609 22.716797 L 14.474609 22.806641 L 14.564453 22.806641 L 14.564453 22.896484 L 14.654297 22.896484 L 14.654297 22.986328 L 14.742188 22.986328 L 14.742188 23.076172 L 14.830078 23.076172 L 14.830078 23.164062 L 14.917969 23.164062 L 14.917969 23.25 L 15.003906 23.25 L 15.003906 23.337891 L 15.089844 23.337891 L 15.089844 23.423828 L 15.175781 23.423828 L 15.175781 23.507812 L 15.259766 23.507812 L 15.259766 23.591797 L 15.341797 23.591797 L 15.341797 23.675781 L 15.425781 23.675781 L 15.425781 23.759766 L 15.507812 23.759766 L 15.507812 23.841797 L 15.587891 23.841797 L 15.587891 23.921875 L 15.669922 23.921875 L 15.669922 24.001953 L 15.75 24.001953 L 15.75 24.082031 L 15.828125 24.082031 L 15.828125 24.162109 L 15.90625 24.162109 L 15.90625 24.240234 L 15.984375 24.240234 L 15.984375 24.318359 L 16.060547 24.318359 L 16.060547 24.394531 L 16.136719 24.394531 L 16.136719 24.470703 L 16.212891 24.470703 L 16.212891 24.546875 L 16.287109 24.546875 L 16.287109 24.621094 L 16.361328 24.621094 L 16.361328 24.695312 L 16.433594 24.695312 L 16.433594 24.767578 L 16.505859 24.767578 L 16.505859 24.839844 L 16.578125 24.839844 L 16.578125 24.912109 L 16.648438 24.912109 L 16.648438 24.982422 L 16.71875 24.982422 L 16.71875 25.052734 L 16.789062 25.052734 L 16.789062 25.123047 L 16.857422 25.123047 L 16.857422 25.191406 L 16.925781 25.191406 L 16.925781 25.257812 L 16.992188 25.257812 L 16.992188 25.326172 L 17.058594 25.326172 L 17.058594 25.392578 L 17.125 25.392578 L 17.125 25.458984 L 17.189453 25.458984 L 17.189453 25.523438 L 17.253906 25.523438 L 17.253906 25.587891 L 17.318359 25.587891 L 17.318359 25.650391 L 17.380859 25.650391 L 17.380859 25.712891 L 17.441406 25.712891 L 17.441406 25.775391 L 17.503906 25.775391 L 17.503906 25.835938 L 17.564453 25.835938 L 17.564453 25.896484 L 17.623047 25.896484 L 17.623047 25.957031 L 17.683594 25.957031 L 17.683594 26.015625 L 17.740234 26.015625 L 17.740234 26.074219 L 17.798828 26.074219 L 17.798828 26.132812 L 17.855469 26.132812 L 17.855469 26.189453 L 17.912109 26.189453 L 17.912109 26.244141 L 17.966797 26.244141 L 17.966797 26.300781 L 18.021484 26.300781 L 18.021484 26.355469 L 18.076172 26.355469 L 18.076172 26.408203 L 18.128906 26.408203 L 18.128906 26.460938 L 18.181641 26.460938 L 18.181641 26.513672 L 18.232422 26.513672 L 18.232422 26.566406 L 18.283203 26.566406 L 18.283203 26.617188 L 18.333984 26.617188 L 18.333984 26.666016 L 18.382812 26.666016 L 18.382812 26.716797 L 18.431641 26.716797 L 18.431641 26.765625 L 18.478516 26.765625 L 18.478516 26.8125 L 18.527344 26.8125 L 18.527344 26.859375 L 18.572266 26.859375 L 18.572266 26.90625 L 18.619141 26.90625 L 18.619141 26.951172 L 18.664062 26.951172 L 18.664062 26.996094 L 18.707031 26.996094 L 18.707031 27.041016 L 18.751953 27.041016 L 18.751953 27.083984 L 18.792969 27.083984 L 18.792969 27.126953 L 18.835938 27.126953 L 18.835938 27.169922 L 18.876953 27.169922 L 18.876953 27.210938 L 18.917969 27.210938 L 18.917969 27.25 L 18.957031 27.25 L 18.957031 27.291016 L 18.996094 27.291016 L 18.996094 27.330078 L 19.035156 27.330078 L 19.035156 27.367188 L 19.072266 27.367188 L 19.072266 27.404297 L 19.109375 27.404297 L 19.109375 27.441406 L 19.144531 27.441406 L 19.144531 27.478516 L 19.179688 27.478516 L 19.179688 27.513672 L 19.214844 27.513672 L 19.214844 27.546875 L 19.248047 27.546875 L 19.248047 27.582031 L 19.28125 27.582031 L 19.28125 27.615234 L 19.314453 27.615234 L 19.314453 27.646484 L 19.345703 27.646484 L 19.345703 27.677734 L 19.375 27.677734 L 19.375 27.708984 L 19.40625 27.708984 L 19.40625 27.740234 L 19.435547 27.740234 L 19.435547 27.769531 L 19.464844 27.769531 L 19.464844 27.796875 L 19.492188 27.796875 L 19.492188 27.824219 L 19.519531 27.824219 L 19.519531 27.851562 L 19.544922 27.851562 L 19.544922 27.878906 L 19.570312 27.878906 L 19.570312 27.904297 L 19.595703 27.904297 L 19.595703 27.929688 L 19.619141 27.929688 L 19.619141 27.953125 L 19.642578 27.953125 L 19.642578 27.976562 L 19.666016 27.976562 L 19.666016 28 L 19.6875 28 L 19.6875 28.021484 L 19.708984 28.021484 L 19.708984 28.042969 L 19.728516 28.042969 L 19.728516 28.0625 L 19.748047 28.0625 L 19.748047 28.082031 L 19.767578 28.082031 L 19.767578 28.101562 L 19.787109 28.101562 L 19.787109 28.119141 L 19.802734 28.119141 L 19.802734 28.136719 L 19.820312 28.136719 L 19.820312 28.154297 L 19.835938 28.154297 L 19.835938 28.169922 L 19.851562 28.169922 L 19.851562 28.185547 L 19.865234 28.185547 L 19.865234 28.199219 L 19.878906 28.199219 L 19.878906 28.212891 L 19.892578 28.212891 L 19.892578 28.226562 L 19.904297 28.226562 L 19.904297 28.238281 L 19.916016 28.238281 L 19.916016 28.25 L 19.927734 28.25 L 19.927734 28.259766 L 19.9375 28.259766 L 19.9375 28.271484 L 19.947266 28.271484 L 19.947266 28.279297 L 19.955078 28.279297 L 19.955078 28.289062 L 19.962891 28.289062 L 19.962891 28.296875 L 19.970703 28.296875 L 19.970703 28.302734 L 19.976562 28.302734 L 19.976562 28.310547 L 19.982422 28.310547 L 19.982422 28.314453 L 19.986328 28.314453 L 19.986328 28.320312 L 19.990234 28.320312 L 19.990234 28.324219 L 19.994141 28.324219 L 19.994141 28.328125 L 19.996094 28.328125 L 19.996094 28.330078 L 19.998047 28.330078 L 19.998047 28.332031 L 20 28.332031 L 29.998047 28.332031 L 30 28.332031 L 30 27.5 L 29.998047 27.5 L 29.998047 27.498047 L 29.996094 27.498047 L 29.996094 27.496094 L 29.994141 27.496094 L 29.994141 27.494141 L 29.990234 27.494141 L 29.990234 27.490234 L 29.986328 27.490234 L 29.986328 27.486328 L 29.982422 27.486328 L 29.982422 27.482422 L 29.976562 27.482422 L 29.976562 27.476562 L 29.970703 27.476562 L 29.970703 27.470703 L 29.962891 27.470703 L 29.962891 27.462891 L 29.955078 27.462891 L 29.955078 27.455078 L 29.947266 27.455078 L 29.947266 27.447266 L 29.9375 27.447266 L 29.9375 27.4375 L 29.927734 27.4375 L 29.927734 27.427734 L 29.916016 27.427734 L 29.916016 27.416016 L 29.904297 27.416016 L 29.904297 27.404297 L 29.892578 27.404297 L 29.892578 27.392578 L 29.878906 27.392578 L 29.878906 27.378906 L 29.865234 27.378906 L 29.865234 27.365234 L 29.851562 27.365234 L 29.851562 27.351562 L 29.835938 27.351562 L 29.835938 27.335938 L 29.820312 27.335938 L 29.820312 27.320312 L 29.802734 27.320312 L 29.802734 27.302734 L 29.787109 27.302734 L 29.787109 27.287109 L 29.767578 27.287109 L 29.767578 27.267578 L 29.748047 27.267578 L 29.748047 27.248047 L 29.728516 27.248047 L 29.728516 27.228516 L 29.708984 27.228516 L 29.708984 27.208984 L 29.6875 27.208984 L 29.6875 27.1875 L 29.666016 27.1875 L 29.666016 27.166016 L 29.642578 27.166016 L 29.642578 27.142578 L 29.619141 27.142578 L 29.619141 27.119141 L 29.595703 27.119141 L 29.595703 27.095703 L 29.570312 27.095703 L 29.570312 27.070312 L 29.544922 27.070312 L 29.544922 27.044922 L 29.519531 27.044922 L 29.519531 27.019531 L 29.492188 27.019531 L 29.492188 26.992188 L 29.464844 26.992188 L 29.464844 26.964844 L 29.435547 26.964844 L 29.435547 26.935547 L 29.40625 26.935547 L 29.40625 26.90625 L 29.375 26.90625 L 29.375 26.875 L 29.345703 26.875 L 29.345703 26.845703 L 29.314453 26.845703 L 29.314453 26.814453 L 29.28125 26.814453 L 29.28125 26.78125 L 29.248047 26.78125 L 29.248047 26.748047 L 29.214844 26.748047 L 29.214844 26.714844 L 29.179688 26.714844 L 29.179688 26.679688 L 29.160156 26.679688 C 29.160237 26.674926 29.162109 26.670796 29.162109 26.666016 L 29.166016 22.5 C 29.166016 22.499335 29.166017 22.498711 29.166016 22.498047 C 29.166016 22.382422 29.139974 22.27168 29.097656 22.171875 C 29.097656 22.171875 29.095703 22.169922 29.095703 22.169922 C 29.095703 22.169922 29.095703 22.167969 29.095703 22.167969 C 29.054464 22.070708 28.994757 21.984214 28.921875 21.910156 C 28.920211 21.908498 28.917693 21.907894 28.916016 21.90625 C 28.916016 21.90625 28.916016 21.904297 28.916016 21.904297 C 28.916016 21.904297 28.914062 21.902344 28.914062 21.902344 C 28.914062 21.902344 28.912109 21.900391 28.912109 21.900391 C 28.912109 21.900391 28.910156 21.898438 28.910156 21.898438 C 28.910156 21.898438 28.908203 21.896484 28.908203 21.896484 C 28.908203 21.896484 28.90625 21.894531 28.90625 21.894531 C 28.90625 21.894531 28.904297 21.892578 28.904297 21.892578 C 28.903277 21.891562 28.901415 21.891636 28.900391 21.890625 C 28.899372 21.889599 28.897509 21.88774 28.896484 21.886719 C 28.892431 21.882595 28.888903 21.877086 28.884766 21.873047 C 28.883485 21.871771 28.882148 21.870408 28.880859 21.869141 C 28.879583 21.867852 28.878238 21.866515 28.876953 21.865234 C 28.876953 21.865234 28.875 21.863281 28.875 21.863281 C 28.870446 21.858636 28.864036 21.852194 28.859375 21.847656 C 28.857711 21.845998 28.855193 21.845394 28.853516 21.84375 C 28.849835 21.84002 28.845546 21.837645 28.841797 21.833984 C 28.837743 21.82986 28.834217 21.826305 28.830078 21.822266 C 28.826024 21.818141 28.822498 21.814586 28.818359 21.810547 C 28.814051 21.806164 28.811044 21.801162 28.806641 21.796875 C 28.802081 21.792224 28.797636 21.787746 28.792969 21.783203 C 28.788409 21.778552 28.783964 21.774074 28.779297 21.769531 C 28.774358 21.764493 28.768736 21.760771 28.763672 21.755859 C 28.758366 21.750426 28.753498 21.745521 28.748047 21.740234 C 28.742488 21.734542 28.73814 21.728188 28.732422 21.722656 C 28.727503 21.717607 28.721841 21.713908 28.716797 21.708984 C 28.709261 21.701188 28.703144 21.693045 28.695312 21.685547 C 28.689736 21.679859 28.68347 21.675448 28.677734 21.669922 C 28.671185 21.663172 28.664976 21.656916 28.658203 21.650391 C 28.651653 21.643641 28.645445 21.637384 28.638672 21.630859 C 28.631746 21.623721 28.624363 21.618215 28.617188 21.611328 C 28.610293 21.604196 28.604799 21.596726 28.597656 21.589844 C 28.589872 21.581768 28.58232 21.574162 28.574219 21.566406 C 28.566434 21.558331 28.558883 21.550724 28.550781 21.542969 C 28.542996 21.534894 28.535446 21.527286 28.527344 21.519531 C 28.519184 21.511066 28.510461 21.504207 28.501953 21.496094 C 28.493435 21.487224 28.485462 21.479188 28.476562 21.470703 C 28.468065 21.461856 28.460048 21.453777 28.451172 21.445312 C 28.442403 21.436179 28.434954 21.426695 28.425781 21.417969 C 28.417395 21.40921 28.409148 21.400963 28.400391 21.392578 C 28.389449 21.381035 28.378767 21.370276 28.367188 21.359375 C 28.3584 21.350259 28.349034 21.342692 28.339844 21.333984 C 28.330105 21.323776 28.320787 21.31439 28.310547 21.304688 C 28.300219 21.293794 28.290193 21.283759 28.279297 21.273438 C 28.26993 21.263617 28.261784 21.253493 28.251953 21.244141 C 28.240057 21.231509 28.227499 21.220851 28.214844 21.208984 C 28.204481 21.198122 28.194523 21.188023 28.183594 21.177734 C 28.172642 21.16618 28.16198 21.155442 28.150391 21.144531 C 28.13907 21.132585 28.127237 21.122586 28.115234 21.111328 C 28.10359 21.098999 28.092447 21.08777 28.080078 21.076172 C 28.069027 21.064467 28.058579 21.054015 28.046875 21.042969 C 28.033301 21.028443 28.020429 21.015474 28.005859 21.001953 C 27.995146 20.990677 27.985932 20.979411 27.974609 20.96875 C 27.96056 20.953676 27.94676 20.939776 27.931641 20.925781 C 27.919695 20.913178 27.907235 20.902461 27.894531 20.890625 C 27.881661 20.876904 27.869231 20.864384 27.855469 20.851562 C 27.8426 20.83784 27.830167 20.825323 27.816406 20.8125 C 27.802962 20.798073 27.789816 20.784924 27.775391 20.771484 C 27.76133 20.756396 27.747554 20.742523 27.732422 20.728516 C 27.719348 20.714492 27.707361 20.700591 27.693359 20.6875 C 27.677762 20.670656 27.661455 20.656129 27.644531 20.640625 C 27.631036 20.626243 27.617989 20.613002 27.603516 20.599609 C 27.589089 20.584125 27.574147 20.570986 27.558594 20.556641 C 27.54358 20.540463 27.529912 20.524704 27.513672 20.509766 C 27.499043 20.493972 27.484547 20.479461 27.46875 20.464844 C 27.452204 20.446906 27.436012 20.430484 27.417969 20.414062 C 27.403285 20.398311 27.388897 20.383711 27.373047 20.369141 C 27.357436 20.35228 27.341158 20.337783 27.324219 20.322266 C 27.308275 20.304978 27.292728 20.28932 27.275391 20.273438 C 27.259448 20.256147 27.243898 20.240494 27.226562 20.224609 C 27.210061 20.206601 27.193787 20.190323 27.175781 20.173828 C 27.159646 20.156219 27.144528 20.13921 27.126953 20.123047 C 27.108697 20.102996 27.090421 20.084589 27.070312 20.066406 C 27.054706 20.049546 27.038419 20.035049 27.021484 20.019531 C 27.002539 19.998642 26.983839 19.979806 26.962891 19.960938 C 26.946334 19.942985 26.930167 19.926591 26.912109 19.910156 C 26.894082 19.890353 26.875303 19.87345 26.855469 19.855469 C 26.837421 19.835689 26.820634 19.816786 26.800781 19.798828 C 26.782754 19.779025 26.763975 19.762122 26.744141 19.744141 C 26.725181 19.723233 26.706512 19.704431 26.685547 19.685547 C 26.667558 19.665719 26.650657 19.646916 26.630859 19.628906 C 26.610407 19.606209 26.589207 19.58673 26.566406 19.566406 C 26.547983 19.546231 26.530066 19.528041 26.509766 19.509766 C 26.490204 19.488185 26.470915 19.468641 26.449219 19.449219 C 26.429623 19.427601 26.410409 19.408124 26.388672 19.388672 C 26.368806 19.366633 26.348255 19.347928 26.326172 19.328125 C 26.306892 19.306773 26.288944 19.28683 26.267578 19.267578 C 26.245678 19.243019 26.223844 19.221027 26.199219 19.199219 C 26.179288 19.17724 26.158861 19.158409 26.136719 19.138672 C 26.116291 19.115921 26.097002 19.094596 26.074219 19.074219 C 26.05322 19.050757 26.031309 19.03071 26.007812 19.009766 C 25.986251 18.985596 25.96561 18.962912 25.941406 18.941406 C 25.920158 18.91768 25.898802 18.896149 25.875 18.875 C 25.853728 18.851224 25.832429 18.829785 25.808594 18.808594 C 25.786826 18.784114 25.764707 18.761992 25.740234 18.740234 C 25.718107 18.715349 25.694842 18.693945 25.669922 18.671875 C 25.647479 18.646553 25.624937 18.62398 25.599609 18.601562 C 25.577167 18.57624 25.554625 18.553667 25.529297 18.53125 C 25.50631 18.505314 25.483042 18.481869 25.457031 18.458984 C 25.433985 18.432982 25.41085 18.409654 25.384766 18.386719 C 25.36172 18.360716 25.338584 18.337389 25.3125 18.314453 C 25.289463 18.288444 25.266311 18.26513 25.240234 18.242188 C 25.216681 18.215421 25.192773 18.191511 25.166016 18.167969 C 25.142105 18.140795 25.117054 18.117598 25.089844 18.09375 C 25.065381 18.06586 25.041601 18.040022 25.013672 18.015625 C 24.989754 17.988462 24.964716 17.965243 24.9375 17.941406 C 24.912689 17.9131 24.887752 17.887989 24.859375 17.863281 C 24.834554 17.834983 24.809637 17.809855 24.78125 17.785156 C 24.757088 17.757609 24.732623 17.733125 24.705078 17.708984 C 24.678533 17.678388 24.651768 17.65143 24.621094 17.625 C 24.596202 17.596775 24.571416 17.571495 24.542969 17.546875 C 24.517645 17.517815 24.491958 17.492088 24.462891 17.466797 C 24.437219 17.437316 24.410379 17.412321 24.380859 17.386719 C 24.354653 17.356505 24.329064 17.328889 24.298828 17.302734 C 24.272411 17.272221 24.245364 17.245132 24.214844 17.21875 C 24.18894 17.188988 24.162635 17.162528 24.132812 17.136719 C 24.105184 17.104664 24.077056 17.076336 24.044922 17.048828 C 24.018656 17.018665 23.991226 16.992895 23.960938 16.966797 C 23.933939 16.93549 23.906304 16.907832 23.875 16.880859 C 23.847361 16.848767 23.819263 16.820507 23.787109 16.792969 C 23.75952 16.760977 23.731298 16.732539 23.699219 16.705078 C 23.67163 16.673086 23.643407 16.644648 23.611328 16.617188 C 23.5831 16.584412 23.554415 16.555364 23.521484 16.527344 C 23.493798 16.495197 23.46581 16.467031 23.433594 16.439453 C 23.40488 16.405892 23.37542 16.376266 23.341797 16.347656 C 23.313075 16.314105 23.28363 16.284459 23.25 16.255859 C 23.221337 16.222404 23.191748 16.19259 23.158203 16.164062 C 23.129489 16.130502 23.10003 16.100875 23.066406 16.072266 C 23.037204 16.037927 23.006977 16.007703 22.972656 15.978516 C 22.943103 15.943764 22.911745 15.914237 22.876953 15.884766 C 22.847105 15.84956 22.816463 15.818866 22.78125 15.789062 C 22.751313 15.753934 22.720837 15.723074 22.685547 15.693359 C 22.655462 15.657874 22.625376 15.625697 22.589844 15.595703 C 22.559715 15.560256 22.527757 15.529951 22.492188 15.5 C 22.461541 15.4638 22.430835 15.430879 22.394531 15.400391 C 22.363905 15.364172 22.331208 15.333244 22.294922 15.302734 C 22.26451 15.266812 22.233251 15.235379 22.197266 15.205078 C 22.165189 15.166821 22.132095 15.133494 22.09375 15.101562 C 22.062744 15.06496 22.030927 15.032707 21.994141 15.001953 C 21.963314 14.965354 21.931124 14.933138 21.894531 14.902344 C 21.862596 14.864143 21.829194 14.830746 21.791016 14.798828 C 21.758717 14.760228 21.724218 14.727485 21.685547 14.695312 C 21.653862 14.657547 21.621785 14.623399 21.583984 14.591797 C 21.55148 14.55289 21.517486 14.518714 21.478516 14.486328 C 21.446233 14.447712 21.411704 14.415004 21.373047 14.382812 C 21.339925 14.343009 21.305492 14.308392 21.265625 14.275391 C 21.232472 14.235614 21.198096 14.200939 21.158203 14.167969 C 21.125398 14.12861 21.092144 14.093247 21.052734 14.060547 C 21.019417 14.020428 20.983519 13.986347 20.943359 13.953125 C 20.909757 13.912544 20.874573 13.877295 20.833984 13.84375 C 20.800149 13.802886 20.765525 13.766148 20.724609 13.732422 C 20.690728 13.691598 20.654236 13.656727 20.613281 13.623047 C 20.57912 13.581749 20.543337 13.545729 20.501953 13.511719 C 20.467804 13.470408 20.431999 13.434416 20.390625 13.400391 C 20.356019 13.358277 20.319429 13.321696 20.277344 13.287109 C 20.242806 13.245122 20.20604 13.208326 20.164062 13.173828 C 20.128895 13.131002 20.091717 13.093633 20.048828 13.058594 C 20.013878 13.016062 19.976167 12.980162 19.933594 12.945312 C 19.898153 12.902012 19.861677 12.86349 19.818359 12.828125 C 19.782378 12.784092 19.74333 12.74677 19.699219 12.710938 C 19.663412 12.667235 19.62586 12.629353 19.582031 12.59375 C 19.546569 12.550468 19.510133 12.511906 19.466797 12.476562 C 19.43026 12.431642 19.390671 12.393844 19.345703 12.357422 C 19.308767 12.31213 19.270119 12.272946 19.224609 12.236328 C 19.18832 12.192036 19.149988 12.153151 19.105469 12.117188 C 19.068656 12.07196 19.029732 12.032694 18.984375 11.996094 C 18.947562 11.950866 18.908638 11.9116 18.863281 11.875 C 18.825939 11.829038 18.786382 11.789013 18.740234 11.751953 C 18.702892 11.705991 18.663335 11.665966 18.617188 11.628906 C 18.579609 11.582431 18.538744 11.543278 18.492188 11.505859 C 18.454591 11.4594 18.415712 11.41826 18.369141 11.380859 C 18.331036 11.333644 18.289539 11.293736 18.242188 11.255859 C 18.203788 11.208181 18.163047 11.167079 18.115234 11.128906 C 18.076835 11.081228 18.036094 11.040125 17.988281 11.001953 C 17.949882 10.954275 17.90914 10.913172 17.861328 10.875 C 17.822407 10.826581 17.781031 10.784719 17.732422 10.746094 C 17.693501 10.697675 17.652124 10.655813 17.603516 10.617188 C 17.564475 10.56839 17.523466 10.525229 17.474609 10.486328 C 17.435858 10.437991 17.394101 10.396032 17.345703 10.357422 C 17.305632 10.306961 17.261444 10.264551 17.210938 10.224609 C 17.171586 10.175366 17.129413 10.132921 17.080078 10.09375 C 17.040293 10.043689 16.997332 10.000643 16.947266 9.9609375 C 16.90717 9.9104255 16.863049 9.8681011 16.8125 9.828125 C 16.77191 9.7768487 16.729071 9.7318469 16.677734 9.6914062 C 16.63761 9.6409198 16.593541 9.59854 16.542969 9.5585938 C 16.502409 9.5072932 16.459514 9.4623453 16.408203 9.421875 C 16.367453 9.3702579 16.323107 9.3258223 16.271484 9.2851562 C 16.230427 9.2330853 16.18492 9.1893716 16.132812 9.1484375 C 16.091827 9.0963155 16.048139 9.0507648 15.996094 9.0097656 C 15.953931 8.9561014 15.907365 8.9109935 15.853516 8.8691406 C 15.81236 8.8171504 15.768985 8.7713052 15.716797 8.7304688 C 15.675534 8.6780937 15.630557 8.63291 15.578125 8.5917969 C 15.535353 8.5369912 15.4885 8.4898262 15.433594 8.4472656 C 15.391942 8.3945068 15.345954 8.3498881 15.292969 8.3085938 C 15.250698 8.2544764 15.204513 8.2081958 15.150391 8.1660156 C 15.108119 8.1118982 15.061935 8.0656177 15.007812 8.0234375 C 14.964479 7.9676891 14.917178 7.9200712 14.861328 7.8769531 C 14.818607 7.8225086 14.771524 7.7766639 14.716797 7.734375 C 14.674297 7.6797478 14.628766 7.6323549 14.574219 7.5898438 C 14.53051 7.5332329 14.482347 7.4850774 14.425781 7.4414062 C 14.381892 7.3849428 14.334055 7.3364592 14.277344 7.2929688 C 14.234288 7.2378464 14.186187 7.1911528 14.130859 7.1484375 C 13.978145 6.950825 13.750299 6.8164062 13.482422 6.8164062 L 6.8164062 6.8164062 z "
       id="path6816"
       clip-path="url(#clipPath7689)" />
    <rect
       style="opacity:1;fill:#424242;fill-opacity:1;stroke:none;stroke-width:1.25;stroke-linecap:round;stroke-linejoin:round;stroke-miterlimit:4;stroke-dasharray:none;stroke-opacity:1"
       id="rect7693"
       width="5.9346461"
       height="4.4825521"
       x="6.9447985"
       y="7.4362278"
       ry="0" />
    <path
       id="path6736"
       d="m 13.3333,12.500001 c 0.458334,0 0.829167,-0.375 0.829167,-0.833334 l 0.0042,-4.1666675 c 0,-0.4625 -0.375,-0.833333 -0.833334,-0.833333 l -6.666666,0 c -0.4625,0 -0.833334,0.370833 -0.833334,0.833333 l 0,4.1666675 c 0,0.458334 0.370834,0.833334 0.833334,0.833334 l -1.666667,0 0,0.833333 10,0 0,-0.833333 -1.666667,0 z m -2.916666,-1.470834 0,-0.9125 c -1.158334,0 -1.920834,0.354167 -2.5,1.133334 0.233333,-1.1125 0.879166,-2.2208345 2.5,-2.4458345 l 0,-0.8875 1.666666,1.554167 -1.666666,1.5583335 z"
       inkscape:connector-curvature="0"
       style="fill:#fafafa" />
  </g>
</svg>
