<?xml version="1.0" encoding="UTF-8" standalone="no"?>
<!-- Created with Inkscape (http://www.inkscape.org/) -->

<svg
   xmlns:dc="http://purl.org/dc/elements/1.1/"
   xmlns:cc="http://creativecommons.org/ns#"
   xmlns:rdf="http://www.w3.org/1999/02/22-rdf-syntax-ns#"
   xmlns:svg="http://www.w3.org/2000/svg"
   xmlns="http://www.w3.org/2000/svg"
   xmlns:xlink="http://www.w3.org/1999/xlink"
   xmlns:sodipodi="http://sodipodi.sourceforge.net/DTD/sodipodi-0.dtd"
   xmlns:inkscape="http://www.inkscape.org/namespaces/inkscape"
   sodipodi:docname="Seven.svg"
   inkscape:version="0.91 r13725"
   version="1.1"
   id="svg2"
   viewBox="0 0 20 20"
   height="5.6444445mm"
   width="5.6444445mm"
   inkscape:export-filename="/home/juergen/Desktop/ic_launcher.png"
   inkscape:export-xdpi="648"
   inkscape:export-ydpi="648">
  <sodipodi:namedview
     inkscape:snap-to-guides="true"
     inkscape:snap-grids="true"
     inkscape:window-maximized="1"
     inkscape:window-y="24"
     inkscape:window-x="0"
     inkscape:window-height="744"
     inkscape:window-width="1366"
     inkscape:guide-bbox="true"
     showguides="true"
     fit-margin-bottom="0"
     fit-margin-right="0"
     fit-margin-left="0"
     fit-margin-top="0"
     showgrid="false"
     inkscape:current-layer="layer1"
     inkscape:document-units="px"
     inkscape:cy="13.182631"
     inkscape:cx="-28.816642"
     inkscape:zoom="7.919596"
     inkscape:pageshadow="2"
     inkscape:pageopacity="0.0"
     borderopacity="1.0"
     bordercolor="#666666"
     pagecolor="#ffffff"
     id="base">
    <inkscape:grid
       id="grid4138"
       type="xygrid" />
    <sodipodi:guide
       id="guide4140"
       orientation="0,1"
       position="10,18" />
    <sodipodi:guide
       id="guide4142"
       orientation="0,1"
       position="10,2" />
    <sodipodi:guide
       id="guide4144"
       orientation="1,0"
       position="2,10" />
    <sodipodi:guide
       id="guide4146"
       orientation="0,20"
       position="0,0" />
    <sodipodi:guide
       id="guide4148"
       orientation="-20,0"
       position="20,0" />
    <sodipodi:guide
       id="guide4150"
       orientation="0,-20"
       position="20,20" />
    <sodipodi:guide
       id="guide4152"
       orientation="20,0"
       position="0,20" />
    <sodipodi:guide
       id="guide4154"
       orientation="1,0"
       position="18,10" />
    <sodipodi:guide
       id="guide4156"
       orientation="-0.70710678,0.70710678"
       position="10,10" />
    <sodipodi:guide
       id="guide4158"
       orientation="0.70710678,0.70710678"
       position="10,10" />
    <sodipodi:guide
       id="guide4160"
       orientation="1,0"
       position="4,10" />
    <sodipodi:guide
       id="guide4162"
       orientation="1,0"
       position="16,10" />
    <sodipodi:guide
       id="guide4164"
       orientation="0,1"
       position="10,16" />
    <sodipodi:guide
       id="guide4166"
       orientation="0,1"
       position="10,4" />
    <sodipodi:guide
       id="guide4168"
       orientation="0,1"
       position="10,15" />
    <sodipodi:guide
       id="guide4170"
       orientation="0,1"
       position="10,5" />
    <sodipodi:guide
       id="guide4172"
       orientation="1,0"
       position="5,10" />
    <sodipodi:guide
       id="guide4174"
       orientation="1,0"
       position="15,10" />
  </sodipodi:namedview>
  <defs
     id="defs4">
    <linearGradient
       inkscape:collect="always"
       id="linearGradient6065">
      <stop
         style="stop-color:#000000;stop-opacity:1;"
         offset="0"
         id="stop6067" />
      <stop
         style="stop-color:#000000;stop-opacity:0;"
         offset="1"
         id="stop6069" />
    </linearGradient>
    <clipPath
       clipPathUnits="userSpaceOnUse"
       id="clipPath12478">
      <circle
         style="opacity:1;fill:#2196f3;fill-opacity:1;stroke:none;stroke-width:0.05069799;stroke-miterlimit:4;stroke-dasharray:none;stroke-opacity:1"
         id="circle12480"
         cx="9.9999781"
         cy="10.000005"
         r="10" />
    </clipPath>
    <clipPath
       id="clipPath13251"
       clipPathUnits="userSpaceOnUse">
      <circle
         inkscape:export-ydpi="648"
         inkscape:export-xdpi="648"
         inkscape:export-filename="/home/juergen/path4136.png"
         style="opacity:1;fill:#2196f3;fill-opacity:1;stroke:none;stroke-width:0.05069799;stroke-miterlimit:4;stroke-dasharray:none;stroke-opacity:1"
         id="circle13253"
         cx="9.9999781"
         cy="10.000005"
         r="10" />
    </clipPath>
    <clipPath
       clipPathUnits="userSpaceOnUse"
       id="clipPath5054">
      <circle
         inkscape:export-ydpi="648"
         inkscape:export-xdpi="648"
         inkscape:export-filename="/home/juergen/path4136.png"
         style="opacity:1;fill:#2196f3;fill-opacity:1;stroke:none;stroke-width:0.05069799;stroke-miterlimit:4;stroke-dasharray:none;stroke-opacity:1"
         id="circle5056"
         cx="9.9999781"
         cy="10.000005"
         r="10" />
    </clipPath>
    <clipPath
       id="clipPath5149"
       clipPathUnits="userSpaceOnUse">
      <circle
         inkscape:export-ydpi="648"
         inkscape:export-xdpi="648"
         inkscape:export-filename="/home/juergen/Schreibtisch/qqq.png"
         style="opacity:1;fill:#3f51b5;fill-opacity:1;stroke:none;stroke-width:0.05069799;stroke-miterlimit:4;stroke-dasharray:none;stroke-opacity:1"
         id="circle5151"
         cx="9.9999781"
         cy="10.000005"
         r="10" />
    </clipPath>
    <clipPath
       clipPathUnits="userSpaceOnUse"
       id="clipPath6126">
      <circle
         inkscape:export-ydpi="648"
         inkscape:export-xdpi="648"
         inkscape:export-filename="/home/juergen/Schreibtisch/qqq.png"
         style="opacity:1;fill:#9ccc65;fill-opacity:1;stroke:none;stroke-width:0.05069799;stroke-miterlimit:4;stroke-dasharray:none;stroke-opacity:1"
         id="circle6128"
         cx="9.9999781"
         cy="10.000005"
         r="10" />
    </clipPath>
    <clipPath
       id="clipPath7107"
       clipPathUnits="userSpaceOnUse">
      <circle
         inkscape:export-ydpi="648"
         inkscape:export-xdpi="648"
         inkscape:export-filename="/home/juergen/Schreibtisch/qqq.png"
         style="opacity:1;fill:#f44336;fill-opacity:1;stroke:none;stroke-width:0.05069799;stroke-miterlimit:4;stroke-dasharray:none;stroke-opacity:1"
         id="circle7109"
         cx="9.9999781"
         cy="10.000005"
         r="10" />
    </clipPath>
    <clipPath
       clipPathUnits="userSpaceOnUse"
       id="clipPath8092">
      <circle
         inkscape:export-ydpi="648"
         inkscape:export-xdpi="648"
         inkscape:export-filename="/home/juergen/Schreibtisch/qqq.png"
         style="opacity:1;fill:#00bcd4;fill-opacity:1;stroke:none;stroke-width:0.05069799;stroke-miterlimit:4;stroke-dasharray:none;stroke-opacity:1"
         id="circle8094"
         cx="9.9999781"
         cy="10.000005"
         r="10" />
    </clipPath>
    <clipPath
       id="clipPath5147"
       clipPathUnits="userSpaceOnUse">
      <circle
         r="10"
         cy="10.000005"
         cx="9.9999781"
         id="circle5149"
         style="opacity:1;fill:#00bcd4;fill-opacity:1;stroke:none;stroke-width:0.05069799;stroke-miterlimit:4;stroke-dasharray:none;stroke-opacity:1"
         inkscape:export-filename="/home/juergen/Schreibtisch/qqq.png"
         inkscape:export-xdpi="648"
         inkscape:export-ydpi="648" />
    </clipPath>
    <linearGradient
       inkscape:collect="always"
       xlink:href="#linearGradient6065"
       id="linearGradient6071"
       x1="10"
       y1="10"
       x2="20"
       y2="20"
       gradientUnits="userSpaceOnUse" />
    <clipPath
       clipPathUnits="userSpaceOnUse"
       id="clipPath6076">
      <circle
         r="10"
         cy="10.000005"
         cx="9.9999781"
         id="circle6078"
         style="opacity:1;fill:#8bc34a;fill-opacity:1;stroke:none;stroke-width:0.05069799;stroke-miterlimit:4;stroke-dasharray:none;stroke-opacity:1"
         inkscape:export-filename="/home/juergen/Schreibtisch/qqq.png"
         inkscape:export-xdpi="648"
         inkscape:export-ydpi="648" />
    </clipPath>
  </defs>
  <metadata
     id="metadata7">
    <rdf:RDF>
      <cc:Work
         rdf:about="">
        <dc:format>image/svg+xml</dc:format>
        <dc:type
           rdf:resource="http://purl.org/dc/dcmitype/StillImage" />
        <dc:title />
      </cc:Work>
    </rdf:RDF>
  </metadata>
  <g
     transform="translate(1058.1428,-861.93365)"
     id="layer1"
     inkscape:groupmode="layer"
     inkscape:label="Hintergrund">
    <circle
       r="10"
       cy="871.93365"
       cx="-1048.1428"
       id="path4136"
       style="opacity:1;fill:#00bcd4;fill-opacity:1;stroke:none;stroke-width:0.05069799;stroke-miterlimit:4;stroke-dasharray:none;stroke-opacity:1"
       inkscape:export-filename="/home/juergen/Schreibtisch/qqq.png"
       inkscape:export-xdpi="2250"
       inkscape:export-ydpi="2250" />
    <circle
       inkscape:export-ydpi="648"
       inkscape:export-xdpi="648"
       inkscape:export-filename="/home/juergen/Desktop/1.png"
       style="opacity:1;fill:#0598bf;fill-opacity:0;stroke:none;stroke-width:0.05069799;stroke-miterlimit:4;stroke-dasharray:none;stroke-opacity:1"
       id="circle5129"
       cx="-1048.1428"
       cy="871.93365"
       r="10" />
  </g>
  <g
     inkscape:label="Icon"
     id="layer2"
     inkscape:groupmode="layer"
     style="display:inline">
    <path
       style="font-style:normal;font-variant:normal;font-weight:bold;font-stretch:normal;font-size:medium;line-height:125%;font-family:Roboto;-inkscape-font-specification:'Roboto Bold';letter-spacing:0px;word-spacing:0px;fill:url(#linearGradient6071);fill-opacity:1;stroke:none;stroke-width:1;stroke-linecap:butt;stroke-linejoin:miter;stroke-opacity:1;opacity:0.2"
       d="M 6.4667969 5 L 6.4667969 6.5449219 L 6.46875 6.5449219 L 6.46875 6.546875 L 6.46875 6.5488281 L 6.4726562 6.5488281 L 6.4726562 6.5507812 L 6.4765625 6.5507812 L 6.4765625 6.5546875 L 6.4804688 6.5546875 L 6.4804688 6.5585938 L 6.484375 6.5585938 L 6.484375 6.5644531 L 6.4902344 6.5644531 L 6.4902344 6.5683594 L 6.4960938 6.5683594 L 6.4960938 6.5761719 L 6.5039062 6.5761719 L 6.5039062 6.5820312 L 6.5117188 6.5820312 L 6.5117188 6.5898438 L 6.5195312 6.5898438 L 6.5195312 6.5996094 L 6.5292969 6.5996094 L 6.5292969 6.6074219 L 6.5390625 6.6074219 L 6.5390625 6.6171875 L 6.5507812 6.6171875 L 6.5507812 6.6289062 L 6.5605469 6.6289062 L 6.5605469 6.640625 L 6.5742188 6.640625 L 6.5742188 6.6523438 L 6.5859375 6.6523438 L 6.5859375 6.6660156 L 6.5996094 6.6660156 L 6.5996094 6.6796875 L 6.6152344 6.6796875 L 6.6152344 6.6933594 L 6.6308594 6.6933594 L 6.6308594 6.7089844 L 6.6464844 6.7089844 L 6.6464844 6.7246094 L 6.6621094 6.7246094 L 6.6621094 6.7421875 L 6.6796875 6.7421875 L 6.6796875 6.7597656 L 6.6992188 6.7597656 L 6.6992188 6.7773438 L 6.7167969 6.7773438 L 6.7167969 6.796875 L 6.7363281 6.796875 L 6.7363281 6.8164062 L 6.7578125 6.8164062 L 6.7578125 6.8359375 L 6.7792969 6.8359375 L 6.7792969 6.8574219 L 6.8007812 6.8574219 L 6.8007812 6.8789062 L 6.8222656 6.8789062 L 6.8222656 6.9023438 L 6.8457031 6.9023438 L 6.8457031 6.9257812 L 6.8710938 6.9257812 L 6.8710938 6.9492188 L 6.8964844 6.9492188 L 6.8964844 6.9746094 L 6.921875 6.9746094 L 6.921875 7 L 6.9472656 7 L 6.9472656 7.0273438 L 6.9746094 7.0273438 L 6.9746094 7.0527344 L 7.0019531 7.0527344 L 7.0019531 7.0820312 L 7.03125 7.0820312 L 7.03125 7.109375 L 7.0605469 7.109375 L 7.0605469 7.1386719 L 7.0898438 7.1386719 L 7.0898438 7.1699219 L 7.1210938 7.1699219 L 7.1210938 7.2011719 L 7.1523438 7.2011719 L 7.1523438 7.2324219 L 7.1855469 7.2324219 L 7.1855469 7.2636719 L 7.21875 7.2636719 L 7.21875 7.296875 L 7.2519531 7.296875 L 7.2519531 7.3300781 L 7.2871094 7.3300781 L 7.2871094 7.3652344 L 7.3222656 7.3652344 L 7.3222656 7.4003906 L 7.3574219 7.4003906 L 7.3574219 7.4375 L 7.3945312 7.4375 L 7.3945312 7.4726562 L 7.4316406 7.4726562 L 7.4316406 7.5117188 L 7.4707031 7.5117188 L 7.4707031 7.5488281 L 7.5097656 7.5488281 L 7.5097656 7.5878906 L 7.5488281 7.5878906 L 7.5488281 7.6289062 L 7.5898438 7.6289062 L 7.5898438 7.6679688 L 7.6308594 7.6679688 L 7.6308594 7.7089844 L 7.671875 7.7089844 L 7.671875 7.7519531 L 7.7148438 7.7519531 L 7.7148438 7.7949219 L 7.7578125 7.7949219 L 7.7578125 7.8378906 L 7.8027344 7.8378906 L 7.8027344 7.8828125 L 7.8476562 7.8828125 L 7.8476562 7.9277344 L 7.8925781 7.9277344 L 7.8925781 7.9726562 L 7.9394531 7.9726562 L 7.9394531 8.0195312 L 7.9863281 8.0195312 L 7.9863281 8.0664062 L 8.0351562 8.0664062 L 8.0351562 8.1132812 L 8.0839844 8.1132812 L 8.0839844 8.1621094 L 8.1328125 8.1621094 L 8.1328125 8.2128906 L 8.1835938 8.2128906 L 8.1835938 8.2617188 L 8.234375 8.2617188 L 8.234375 8.3125 L 8.2851562 8.3125 L 8.2851562 8.3652344 L 8.3378906 8.3652344 L 8.3378906 8.4160156 L 8.390625 8.4160156 L 8.390625 8.4707031 L 8.4453125 8.4707031 L 8.4453125 8.5234375 L 8.5 8.5234375 L 8.5 8.578125 L 8.5546875 8.578125 L 8.5546875 8.6328125 L 8.6113281 8.6328125 L 8.6113281 8.6894531 L 8.6679688 8.6894531 L 8.6679688 8.7460938 L 8.7246094 8.7460938 L 8.7246094 8.8046875 L 8.7832031 8.8046875 L 8.7832031 8.8632812 L 8.8417969 8.8632812 L 8.8417969 8.921875 L 8.9023438 8.921875 L 8.9023438 8.9804688 L 8.9628906 8.9804688 L 8.9628906 9.0410156 L 9.0234375 9.0410156 L 9.0234375 9.1035156 L 9.0859375 9.1035156 L 9.0859375 9.1660156 L 9.1484375 9.1660156 L 9.1484375 9.2285156 L 9.2128906 9.2285156 L 9.2128906 9.2910156 L 9.2773438 9.2910156 L 9.2773438 9.3554688 L 9.3417969 9.3554688 L 9.3417969 9.4199219 L 9.40625 9.4199219 L 9.40625 9.4863281 L 9.4746094 9.4863281 L 9.4746094 9.5527344 L 9.5410156 9.5527344 L 9.5410156 9.6191406 L 9.609375 9.6191406 L 9.609375 9.6875 L 9.6132812 9.6875 C 9.5757058 9.772339 9.5318243 9.8536361 9.4960938 9.9394531 C 8.9832732 11.166559 8.6478624 12.514595 8.4921875 13.984375 L 8.3964844 15 L 8.3984375 15 L 8.3984375 15.001953 L 8.4003906 15.001953 L 8.4003906 15.003906 L 8.4023438 15.003906 L 8.4023438 15.005859 L 8.40625 15.005859 L 8.40625 15.009766 L 8.4101562 15.009766 L 8.4101562 15.013672 L 8.4140625 15.013672 L 8.4140625 15.017578 L 8.4199219 15.017578 L 8.4199219 15.023438 L 8.4257812 15.023438 L 8.4257812 15.029297 L 8.4335938 15.029297 L 8.4335938 15.037109 L 8.4414062 15.037109 L 8.4414062 15.044922 L 8.4492188 15.044922 L 8.4492188 15.052734 L 8.4589844 15.052734 L 8.4589844 15.0625 L 8.46875 15.0625 L 8.46875 15.072266 L 8.4824219 15.072266 L 8.4804688 15.083984 L 8.4941406 15.083984 L 8.4921875 15.095703 L 8.5058594 15.095703 L 8.5039062 15.107422 L 8.5175781 15.107422 L 8.515625 15.121094 L 8.5332031 15.121094 L 8.53125 15.134766 L 8.546875 15.134766 L 8.5449219 15.148438 L 8.5625 15.148438 L 8.5605469 15.164062 L 8.578125 15.164062 L 8.5761719 15.179688 L 8.59375 15.179688 L 8.5917969 15.197266 L 8.6113281 15.197266 L 8.609375 15.212891 L 8.6308594 15.212891 L 8.6289062 15.232422 L 8.6484375 15.232422 L 8.6464844 15.251953 L 8.6679688 15.251953 L 8.6660156 15.271484 L 8.6894531 15.271484 L 8.6875 15.291016 L 8.7109375 15.291016 L 8.7089844 15.3125 L 8.7324219 15.3125 L 8.7304688 15.333984 L 8.7558594 15.333984 L 8.7539062 15.357422 L 8.7792969 15.357422 L 8.7773438 15.380859 L 8.8027344 15.380859 L 8.8007812 15.404297 L 8.828125 15.404297 L 8.8261719 15.429688 L 8.8535156 15.429688 L 8.8515625 15.455078 L 8.8789062 15.455078 L 8.8769531 15.480469 L 8.90625 15.480469 L 8.9042969 15.507812 L 8.9335938 15.507812 L 8.9316406 15.535156 L 8.9628906 15.535156 L 8.9609375 15.564453 L 8.9921875 15.564453 L 8.9902344 15.59375 L 9.0234375 15.59375 L 9.0195312 15.625 L 9.0527344 15.625 L 9.0507812 15.654297 L 9.0859375 15.654297 L 9.0820312 15.685547 L 9.1191406 15.685547 L 9.1152344 15.71875 L 9.1523438 15.71875 L 9.1484375 15.751953 L 9.1855469 15.751953 L 9.1816406 15.785156 L 9.2207031 15.785156 L 9.2167969 15.820312 L 9.2558594 15.820312 L 9.2519531 15.855469 L 9.2910156 15.855469 L 9.2871094 15.890625 L 9.328125 15.890625 L 9.3242188 15.927734 L 9.3652344 15.927734 L 9.3613281 15.964844 L 9.4042969 15.964844 L 9.4003906 16.003906 L 9.4433594 16.003906 L 9.4394531 16.042969 L 9.4824219 16.042969 L 9.4785156 16.082031 L 9.5234375 16.082031 L 9.5195312 16.123047 L 9.5644531 16.123047 L 9.5605469 16.164062 L 9.6074219 16.164062 L 9.6035156 16.207031 L 9.6484375 16.207031 L 9.6445312 16.248047 L 9.6933594 16.248047 L 9.6894531 16.292969 L 9.7363281 16.292969 L 9.7324219 16.335938 L 9.78125 16.335938 L 9.7773438 16.380859 L 9.828125 16.380859 L 9.8242188 16.427734 L 9.8730469 16.427734 L 9.8691406 16.472656 L 9.921875 16.472656 L 9.9179688 16.521484 L 9.96875 16.521484 L 9.9648438 16.568359 L 10.017578 16.568359 L 10.013672 16.617188 L 10.066406 16.617188 L 10.0625 16.666016 L 10.117188 16.666016 L 10.113281 16.716797 L 10.167969 16.716797 L 10.164062 16.767578 L 10.21875 16.767578 L 10.214844 16.818359 L 10.273438 16.818359 L 10.267578 16.871094 L 10.326172 16.871094 L 10.320312 16.923828 L 10.380859 16.923828 L 10.375 16.978516 L 10.435547 16.978516 L 10.429688 17.033203 L 10.490234 17.033203 L 10.484375 17.087891 L 10.546875 17.087891 L 10.541016 17.144531 L 10.603516 17.144531 L 10.597656 17.201172 L 10.660156 17.201172 L 10.654297 17.259766 L 10.71875 17.259766 L 10.712891 17.316406 L 10.777344 17.316406 L 10.771484 17.376953 L 10.837891 17.376953 L 10.832031 17.435547 L 10.898438 17.435547 L 10.892578 17.496094 L 10.958984 17.496094 L 10.953125 17.558594 L 11.021484 17.558594 L 11.015625 17.619141 L 11.083984 17.619141 L 11.078125 17.681641 L 11.148438 17.681641 L 11.142578 17.746094 L 11.212891 17.746094 L 11.207031 17.810547 L 11.277344 17.810547 L 11.271484 17.875 L 11.34375 17.875 L 11.337891 17.941406 L 11.410156 17.941406 L 11.404297 18.007812 L 11.476562 18.007812 L 11.470703 18.074219 L 11.544922 18.074219 L 11.539062 18.142578 L 11.613281 18.142578 L 11.607422 18.210938 L 11.683594 18.210938 L 11.677734 18.28125 L 11.751953 18.28125 L 11.746094 18.351562 L 11.824219 18.351562 L 11.818359 18.421875 L 11.896484 18.421875 L 11.888672 18.494141 L 11.96875 18.494141 L 11.962891 18.566406 L 12.041016 18.566406 L 12.035156 18.638672 L 12.117188 18.638672 L 12.109375 18.712891 L 12.191406 18.712891 L 12.183594 18.787109 L 12.267578 18.787109 L 12.259766 18.863281 L 12.34375 18.863281 L 12.335938 18.939453 L 12.419922 18.939453 L 12.412109 19.015625 L 12.498047 19.015625 L 12.490234 19.09375 L 12.576172 19.09375 L 12.568359 19.171875 L 12.654297 19.171875 L 12.646484 19.25 L 12.734375 19.25 L 12.726562 19.330078 L 12.814453 19.330078 L 12.806641 19.412109 L 12.896484 19.412109 L 12.888672 19.492188 L 12.978516 19.492188 L 12.970703 19.574219 L 13.060547 19.574219 L 13.052734 19.658203 L 13.144531 19.658203 L 13.136719 19.740234 L 13.228516 19.740234 L 13.220703 19.824219 L 13.314453 19.824219 L 13.306641 19.910156 L 13.400391 19.910156 L 13.392578 19.996094 L 13.486328 19.996094 L 13.478516 20.082031 L 13.574219 20.082031 L 13.566406 20.169922 L 13.662109 20.169922 L 13.654297 20.257812 L 13.75 20.257812 L 13.742188 20.345703 L 13.839844 20.345703 L 13.832031 20.435547 L 13.929688 20.435547 L 13.921875 20.525391 L 14.021484 20.525391 L 14.013672 20.617188 L 14.113281 20.617188 L 14.105469 20.708984 L 14.205078 20.708984 L 14.197266 20.800781 L 14.300781 20.800781 L 14.291016 20.894531 L 14.394531 20.894531 L 14.384766 20.988281 L 14.488281 20.988281 L 14.478516 21.083984 L 14.583984 21.083984 L 14.574219 21.177734 L 14.679688 21.177734 L 14.669922 21.275391 L 14.777344 21.275391 L 14.767578 21.371094 L 14.875 21.371094 L 14.865234 21.46875 L 14.972656 21.46875 L 14.962891 21.568359 L 15.072266 21.568359 L 15.0625 21.666016 L 15.171875 21.666016 L 15.162109 21.765625 L 15.273438 21.765625 L 15.263672 21.867188 L 15.375 21.867188 L 15.365234 21.96875 L 15.476562 21.96875 L 15.466797 22.070312 L 15.580078 22.070312 L 15.570312 22.173828 L 15.683594 22.173828 L 15.673828 22.277344 L 15.787109 22.277344 L 15.777344 22.380859 L 15.892578 22.380859 L 15.882812 22.486328 L 15.998047 22.486328 L 15.988281 22.591797 L 16.105469 22.591797 L 16.095703 22.699219 L 16.212891 22.699219 L 16.203125 22.806641 L 16.320312 22.806641 L 16.310547 22.914062 L 16.429688 22.914062 L 16.419922 23.023438 L 16.539062 23.023438 L 16.529297 23.132812 L 16.648438 23.132812 L 16.638672 23.242188 L 16.759766 23.242188 L 16.75 23.353516 L 16.871094 23.353516 L 16.861328 23.464844 L 16.984375 23.464844 L 16.974609 23.578125 L 17.097656 23.578125 L 17.087891 23.691406 L 17.210938 23.691406 L 17.201172 23.804688 L 17.328125 23.804688 L 17.316406 23.919922 L 17.443359 23.919922 L 17.431641 24.035156 L 17.560547 24.035156 L 17.548828 24.152344 L 17.675781 24.152344 L 17.664062 24.269531 L 17.794922 24.269531 L 17.783203 24.386719 L 17.912109 24.386719 L 17.900391 24.503906 L 18.03125 24.503906 L 18.019531 24.623047 L 18.152344 24.623047 L 18.140625 24.744141 L 18.273438 24.744141 L 18.261719 24.865234 L 18.394531 24.865234 L 18.382812 24.986328 L 18.515625 24.986328 L 18.503906 25.107422 L 18.638672 25.107422 L 18.626953 25.230469 L 18.761719 25.230469 L 18.75 25.355469 L 18.886719 25.355469 L 18.875 25.478516 L 19.011719 25.478516 L 19 25.603516 L 19.138672 25.603516 L 19.126953 25.730469 L 19.263672 25.730469 L 19.251953 25.857422 L 19.392578 25.857422 L 19.380859 25.984375 L 19.519531 25.984375 L 19.507812 26.111328 L 19.648438 26.111328 L 19.636719 26.240234 L 19.779297 26.240234 L 19.767578 26.371094 L 19.908203 26.371094 L 19.896484 26.5 L 20.039062 26.5 L 20.027344 26.630859 L 20.171875 26.630859 L 20.160156 26.763672 L 20.304688 26.763672 L 20.292969 26.896484 L 20.4375 26.896484 L 20.425781 27.029297 L 20.572266 27.029297 L 20.560547 27.164062 L 20.707031 27.164062 L 20.695312 27.298828 L 20.84375 27.298828 L 20.830078 27.433594 L 20.980469 27.433594 L 20.966797 27.570312 L 21.117188 27.570312 L 21.103516 27.707031 L 21.253906 27.707031 L 21.240234 27.845703 L 21.392578 27.845703 L 21.378906 27.982422 L 21.533203 27.982422 L 21.519531 28.123047 L 21.671875 28.123047 L 21.658203 28.261719 L 21.8125 28.261719 L 21.798828 28.402344 L 21.955078 28.402344 L 21.941406 28.544922 L 22.097656 28.544922 L 22.083984 28.6875 L 22.240234 28.6875 L 22.226562 28.830078 L 22.382812 28.830078 L 22.369141 28.972656 L 22.527344 28.972656 L 22.513672 29.117188 L 22.673828 29.117188 L 22.660156 29.263672 L 22.818359 29.263672 L 22.804688 29.408203 L 22.964844 29.408203 L 22.951172 29.554688 L 23.113281 29.554688 L 23.099609 29.703125 L 23.261719 29.703125 L 23.248047 29.851562 L 25.251953 29.851562 L 25.349609 28.833984 C 25.519023 27.300101 25.798306 25.991414 26.1875 24.90625 C 26.581272 23.821085 27.313337 22.651063 28.384766 21.396484 L 28.384766 19.851562 L 28.236328 19.851562 L 28.236328 19.703125 L 28.089844 19.703125 L 28.089844 19.554688 L 27.943359 19.554688 L 27.943359 19.408203 L 27.796875 19.408203 L 27.796875 19.263672 L 27.652344 19.263672 L 27.652344 19.117188 L 27.507812 19.117188 L 27.507812 18.972656 L 27.363281 18.972656 L 27.363281 18.830078 L 27.220703 18.830078 L 27.220703 18.6875 L 27.078125 18.6875 L 27.078125 18.544922 L 26.9375 18.544922 L 26.9375 18.402344 L 26.796875 18.402344 L 26.796875 18.261719 L 26.65625 18.261719 L 26.65625 18.123047 L 26.517578 18.123047 L 26.517578 17.982422 L 26.378906 17.982422 L 26.378906 17.845703 L 26.240234 17.845703 L 26.240234 17.707031 L 26.103516 17.707031 L 26.103516 17.570312 L 25.966797 17.570312 L 25.966797 17.433594 L 25.832031 17.433594 L 25.832031 17.298828 L 25.697266 17.298828 L 25.697266 17.164062 L 25.5625 17.164062 L 25.5625 17.029297 L 25.429688 17.029297 L 25.429688 16.896484 L 25.296875 16.896484 L 25.296875 16.763672 L 25.166016 16.763672 L 25.166016 16.630859 L 25.035156 16.630859 L 25.035156 16.5 L 24.904297 16.5 L 24.904297 16.371094 L 24.775391 16.371094 L 24.775391 16.240234 L 24.646484 16.240234 L 24.646484 16.111328 L 24.517578 16.111328 L 24.517578 15.984375 L 24.390625 15.984375 L 24.390625 15.857422 L 24.263672 15.857422 L 24.263672 15.730469 L 24.138672 15.730469 L 24.138672 15.603516 L 24.011719 15.603516 L 24.011719 15.478516 L 23.888672 15.478516 L 23.888672 15.355469 L 23.763672 15.355469 L 23.763672 15.230469 L 23.642578 15.230469 L 23.642578 15.107422 L 23.519531 15.107422 L 23.519531 14.986328 L 23.398438 14.986328 L 23.398438 14.865234 L 23.277344 14.865234 L 23.277344 14.744141 L 23.158203 14.744141 L 23.158203 14.623047 L 23.039062 14.623047 L 23.039062 14.503906 L 22.919922 14.503906 L 22.919922 14.386719 L 22.802734 14.386719 L 22.802734 14.269531 L 22.685547 14.269531 L 22.685547 14.152344 L 22.568359 14.152344 L 22.568359 14.035156 L 22.453125 14.035156 L 22.453125 13.919922 L 22.337891 13.919922 L 22.337891 13.804688 L 22.224609 13.804688 L 22.224609 13.691406 L 22.111328 13.691406 L 22.111328 13.578125 L 22 13.578125 L 22 13.464844 L 21.886719 13.464844 L 21.886719 13.353516 L 21.777344 13.353516 L 21.777344 13.242188 L 21.666016 13.242188 L 21.666016 13.132812 L 21.556641 13.132812 L 21.556641 13.023438 L 21.447266 13.023438 L 21.447266 12.914062 L 21.339844 12.914062 L 21.339844 12.806641 L 21.232422 12.806641 L 21.232422 12.699219 L 21.125 12.699219 L 21.125 12.591797 L 21.019531 12.591797 L 21.019531 12.486328 L 20.914062 12.486328 L 20.914062 12.380859 L 20.810547 12.380859 L 20.810547 12.277344 L 20.707031 12.277344 L 20.707031 12.173828 L 20.603516 12.173828 L 20.603516 12.070312 L 20.501953 12.070312 L 20.501953 11.96875 L 20.400391 11.96875 L 20.400391 11.867188 L 20.300781 11.867188 L 20.300781 11.765625 L 20.201172 11.765625 L 20.201172 11.666016 L 20.101562 11.666016 L 20.101562 11.568359 L 20.001953 11.568359 L 20.001953 11.46875 L 19.904297 11.46875 L 19.904297 11.371094 L 19.808594 11.371094 L 19.808594 11.275391 L 19.712891 11.275391 L 19.712891 11.177734 L 19.617188 11.177734 L 19.617188 11.083984 L 19.521484 11.083984 L 19.521484 10.988281 L 19.427734 10.988281 L 19.427734 10.894531 L 19.333984 10.894531 L 19.333984 10.800781 L 19.242188 10.800781 L 19.242188 10.708984 L 19.150391 10.708984 L 19.150391 10.617188 L 19.060547 10.617188 L 19.060547 10.525391 L 18.96875 10.525391 L 18.96875 10.435547 L 18.880859 10.435547 L 18.880859 10.345703 L 18.791016 10.345703 L 18.791016 10.257812 L 18.703125 10.257812 L 18.703125 10.169922 L 18.615234 10.169922 L 18.615234 10.082031 L 18.529297 10.082031 L 18.529297 9.9960938 L 18.443359 9.9960938 L 18.443359 9.9101562 L 18.359375 9.9101562 L 18.359375 9.8242188 L 18.275391 9.8242188 L 18.275391 9.7402344 L 18.191406 9.7402344 L 18.191406 9.6582031 L 18.107422 9.6582031 L 18.107422 9.5742188 L 18.025391 9.5742188 L 18.025391 9.4921875 L 17.945312 9.4921875 L 17.945312 9.4121094 L 17.863281 9.4121094 L 17.863281 9.3300781 L 17.785156 9.3300781 L 17.785156 9.25 L 17.705078 9.25 L 17.705078 9.171875 L 17.626953 9.171875 L 17.626953 9.09375 L 17.548828 9.09375 L 17.548828 9.015625 L 17.472656 9.015625 L 17.472656 8.9394531 L 17.396484 8.9394531 L 17.396484 8.8632812 L 17.320312 8.8632812 L 17.320312 8.7871094 L 17.246094 8.7871094 L 17.246094 8.7128906 L 17.171875 8.7128906 L 17.171875 8.6386719 L 17.099609 8.6386719 L 17.099609 8.5664062 L 17.027344 8.5664062 L 17.027344 8.4941406 L 16.955078 8.4941406 L 16.955078 8.421875 L 16.884766 8.421875 L 16.884766 8.3515625 L 16.814453 8.3515625 L 16.814453 8.28125 L 16.744141 8.28125 L 16.744141 8.2109375 L 16.675781 8.2109375 L 16.675781 8.1425781 L 16.607422 8.1425781 L 16.607422 8.0742188 L 16.541016 8.0742188 L 16.541016 8.0078125 L 16.474609 8.0078125 L 16.474609 7.9414062 L 16.408203 7.9414062 L 16.408203 7.875 L 16.34375 7.875 L 16.34375 7.8105469 L 16.279297 7.8105469 L 16.279297 7.7460938 L 16.216797 7.7460938 L 16.216797 7.6816406 L 16.154297 7.6816406 L 16.154297 7.6191406 L 16.091797 7.6191406 L 16.091797 7.5585938 L 16.029297 7.5585938 L 16.029297 7.4960938 L 15.96875 7.4960938 L 15.96875 7.4355469 L 15.910156 7.4355469 L 15.910156 7.3769531 L 15.851562 7.3769531 L 15.851562 7.3164062 L 15.792969 7.3164062 L 15.792969 7.2597656 L 15.734375 7.2597656 L 15.734375 7.2011719 L 15.677734 7.2011719 L 15.677734 7.1445312 L 15.621094 7.1445312 L 15.621094 7.0878906 L 15.566406 7.0878906 L 15.566406 7.0332031 L 15.511719 7.0332031 L 15.511719 6.9785156 L 15.458984 6.9785156 L 15.458984 6.9238281 L 15.404297 6.9238281 L 15.404297 6.8710938 L 15.353516 6.8710938 L 15.353516 6.8183594 L 15.300781 6.8183594 L 15.300781 6.7675781 L 15.25 6.7675781 L 15.25 6.7167969 L 15.201172 6.7167969 L 15.201172 6.6660156 L 15.150391 6.6660156 L 15.150391 6.6171875 L 15.101562 6.6171875 L 15.101562 6.5683594 L 15.054688 6.5683594 L 15.054688 6.5214844 L 15.007812 6.5214844 L 15.007812 6.4726562 L 14.960938 6.4726562 L 14.960938 6.4277344 L 14.916016 6.4277344 L 14.916016 6.3808594 L 14.871094 6.3808594 L 14.871094 6.3359375 L 14.826172 6.3359375 L 14.826172 6.2929688 L 14.783203 6.2929688 L 14.783203 6.2480469 L 14.740234 6.2480469 L 14.740234 6.2070312 L 14.697266 6.2070312 L 14.697266 6.1640625 L 14.65625 6.1640625 L 14.65625 6.1230469 L 14.617188 6.1230469 L 14.617188 6.0820312 L 14.576172 6.0820312 L 14.576172 6.0429688 L 14.537109 6.0429688 L 14.537109 6.0039062 L 14.5 6.0039062 L 14.5 5.9648438 L 14.460938 5.9648438 L 14.460938 5.9277344 L 14.425781 5.9277344 L 14.425781 5.890625 L 14.388672 5.890625 L 14.388672 5.8554688 L 14.353516 5.8554688 L 14.353516 5.8203125 L 14.318359 5.8203125 L 14.318359 5.7851562 L 14.285156 5.7851562 L 14.285156 5.7519531 L 14.251953 5.7519531 L 14.251953 5.71875 L 14.220703 5.71875 L 14.220703 5.6855469 L 14.189453 5.6855469 L 14.189453 5.6542969 L 14.158203 5.6542969 L 14.158203 5.625 L 14.126953 5.625 L 14.126953 5.59375 L 14.097656 5.59375 L 14.097656 5.5644531 L 14.070312 5.5644531 L 14.070312 5.5351562 L 14.041016 5.5351562 L 14.041016 5.5078125 L 14.015625 5.5078125 L 14.015625 5.4804688 L 13.988281 5.4804688 L 13.988281 5.4550781 L 13.962891 5.4550781 L 13.962891 5.4296875 L 13.9375 5.4296875 L 13.9375 5.4042969 L 13.914062 5.4042969 L 13.914062 5.3808594 L 13.890625 5.3808594 L 13.890625 5.3574219 L 13.867188 5.3574219 L 13.867188 5.3339844 L 13.845703 5.3339844 L 13.845703 5.3125 L 13.824219 5.3125 L 13.824219 5.2910156 L 13.804688 5.2910156 L 13.804688 5.2714844 L 13.785156 5.2714844 L 13.785156 5.2519531 L 13.765625 5.2519531 L 13.765625 5.2324219 L 13.748047 5.2324219 L 13.748047 5.2128906 L 13.730469 5.2128906 L 13.730469 5.1972656 L 13.712891 5.1972656 L 13.712891 5.1796875 L 13.697266 5.1796875 L 13.697266 5.1640625 L 13.681641 5.1640625 L 13.681641 5.1484375 L 13.667969 5.1484375 L 13.667969 5.1347656 L 13.654297 5.1347656 L 13.654297 5.1210938 L 13.640625 5.1210938 L 13.640625 5.1074219 L 13.628906 5.1074219 L 13.628906 5.0957031 L 13.617188 5.0957031 L 13.617188 5.0839844 L 13.605469 5.0839844 L 13.605469 5.0722656 L 13.595703 5.0722656 L 13.595703 5.0625 L 13.587891 5.0625 L 13.587891 5.0527344 L 13.578125 5.0527344 L 13.578125 5.0449219 L 13.570312 5.0449219 L 13.570312 5.0371094 L 13.564453 5.0371094 L 13.564453 5.0292969 L 13.556641 5.0292969 L 13.556641 5.0234375 L 13.552734 5.0234375 L 13.552734 5.0175781 L 13.546875 5.0175781 L 13.546875 5.0136719 L 13.542969 5.0136719 L 13.542969 5.0097656 L 13.539062 5.0097656 L 13.539062 5.0058594 L 13.537109 5.0058594 L 13.537109 5.0039062 L 13.535156 5.0039062 L 13.535156 5.0019531 L 13.533203 5.0019531 L 13.533203 5 L 6.4667969 5 z "
       id="path5218"
       clip-path="url(#clipPath6076)" />
    <path
       style="fill:none"
       inkscape:connector-curvature="0"
       id="path4"
       d="m 3.9999777,4.0333382 12.0000003,0 0,11.9333328 -12.0000003,0 z" />
    <path
       d="m 18.999978,19.033339 12,0 0,11.933333 -12,0 z"
       id="path9754"
       inkscape:connector-curvature="0"
       style="fill:none" />
    <path
       d="m 13.533632,6.5453344 q -1.607143,1.8818681 -2.197803,3.5096156 -0.583791,1.627747 -0.837912,3.928571 l -0.09615,1.016484 -2.0054941,0 0.096154,-1.016484 Q 8.7259393,11.778851 9.49517,9.9381915 10.264401,8.0906641 11.603687,6.5453344 l -5.1373631,0 0,-1.5453297 7.0673081,0 0,1.5453297 z"
       style="font-style:normal;font-variant:normal;font-weight:bold;font-stretch:normal;font-size:medium;line-height:125%;font-family:Roboto;-inkscape-font-specification:'Roboto Bold';letter-spacing:0px;word-spacing:0px;fill:#ff9800;fill-opacity:1;stroke:none;stroke-width:1px;stroke-linecap:butt;stroke-linejoin:miter;stroke-opacity:1"
       id="path5162"
       inkscape:connector-curvature="0" />
  </g>
</svg>
