<?xml version="1.0" encoding="UTF-8" standalone="no"?>
<!-- Created with Inkscape (http://www.inkscape.org/) -->

<svg
   xmlns:dc="http://purl.org/dc/elements/1.1/"
   xmlns:cc="http://creativecommons.org/ns#"
   xmlns:rdf="http://www.w3.org/1999/02/22-rdf-syntax-ns#"
   xmlns:svg="http://www.w3.org/2000/svg"
   xmlns="http://www.w3.org/2000/svg"
   xmlns:xlink="http://www.w3.org/1999/xlink"
   xmlns:sodipodi="http://sodipodi.sourceforge.net/DTD/sodipodi-0.dtd"
   xmlns:inkscape="http://www.inkscape.org/namespaces/inkscape"
   width="5.6444445mm"
   height="5.6444445mm"
   viewBox="0 0 20 20"
   id="svg2"
   version="1.1"
   inkscape:version="0.91 r13725"
   sodipodi:docname="SMSBackup.svg"
   inkscape:export-filename="/home/juergen/Schreibtisch/Icons/Email.svg.png"
   inkscape:export-xdpi="648"
   inkscape:export-ydpi="648">
  <sodipodi:namedview
     id="base"
     pagecolor="#ffffff"
     bordercolor="#666666"
     borderopacity="1.0"
     inkscape:pageopacity="0.0"
     inkscape:pageshadow="2"
     inkscape:zoom="11.2"
     inkscape:cx="6.594025"
     inkscape:cy="12.286174"
     inkscape:document-units="px"
     inkscape:current-layer="layer2"
     showgrid="false"
     fit-margin-top="0"
     fit-margin-left="0"
     fit-margin-right="0"
     fit-margin-bottom="0"
     showguides="true"
     inkscape:guide-bbox="true"
     inkscape:window-width="1366"
     inkscape:window-height="726"
     inkscape:window-x="0"
     inkscape:window-y="0"
     inkscape:window-maximized="1"
     inkscape:snap-grids="false"
     inkscape:snap-to-guides="false">
    <inkscape:grid
       id="grid4138"
       type="xygrid" />
    <sodipodi:guide
       id="guide4140"
       orientation="0,1"
       position="10,18" />
    <sodipodi:guide
       id="guide4142"
       orientation="0,1"
       position="10,2" />
    <sodipodi:guide
       id="guide4144"
       orientation="1,0"
       position="2,10" />
    <sodipodi:guide
       id="guide4146"
       orientation="0,20"
       position="0,0" />
    <sodipodi:guide
       id="guide4148"
       orientation="-20,0"
       position="20,0" />
    <sodipodi:guide
       id="guide4150"
       orientation="0,-20"
       position="20,20" />
    <sodipodi:guide
       id="guide4152"
       orientation="20,0"
       position="0,20" />
    <sodipodi:guide
       id="guide4154"
       orientation="1,0"
       position="18,10" />
    <sodipodi:guide
       id="guide4156"
       orientation="-0.70710678,0.70710678"
       position="10,10" />
    <sodipodi:guide
       id="guide4160"
       orientation="1,0"
       position="4,10" />
    <sodipodi:guide
       id="guide4162"
       orientation="1,0"
       position="16,10" />
    <sodipodi:guide
       id="guide4164"
       orientation="0,1"
       position="10,16" />
    <sodipodi:guide
       id="guide4166"
       orientation="0,1"
       position="10,4" />
    <sodipodi:guide
       id="guide4168"
       orientation="0,1"
       position="10,15" />
    <sodipodi:guide
       id="guide4170"
       orientation="0,1"
       position="10,5" />
    <sodipodi:guide
       id="guide4172"
       orientation="1,0"
       position="5,10" />
    <sodipodi:guide
       id="guide4174"
       orientation="1,0"
       position="15,10" />
  </sodipodi:namedview>
  <defs
     id="defs4">
    <linearGradient
       inkscape:collect="always"
       id="linearGradient5166">
      <stop
         style="stop-color:#000000;stop-opacity:1;"
         offset="0"
         id="stop5168" />
      <stop
         style="stop-color:#000000;stop-opacity:0;"
         offset="1"
         id="stop5170" />
    </linearGradient>
    <clipPath
       clipPathUnits="userSpaceOnUse"
       id="clipPath12478">
      <circle
         style="opacity:1;fill:#2196f3;fill-opacity:1;stroke:none;stroke-width:0.05069799;stroke-miterlimit:4;stroke-dasharray:none;stroke-opacity:1"
         id="circle12480"
         cx="9.9999781"
         cy="10.000005"
         r="10" />
    </clipPath>
    <clipPath
       id="clipPath5790"
       clipPathUnits="userSpaceOnUse">
      <circle
         inkscape:export-ydpi="648"
         inkscape:export-xdpi="648"
         inkscape:export-filename="/home/juergen/path4136.png"
         style="opacity:1;fill:#2196f3;fill-opacity:1;stroke:none;stroke-width:0.05069799;stroke-miterlimit:4;stroke-dasharray:none;stroke-opacity:1"
         id="circle5792"
         cx="9.9999781"
         cy="10.000005"
         r="10" />
    </clipPath>
    <clipPath
       clipPathUnits="userSpaceOnUse"
       id="clipPath5055">
      <circle
         inkscape:export-ydpi="648"
         inkscape:export-xdpi="648"
         inkscape:export-filename="/home/juergen/path4136.png"
         style="opacity:1;fill:#2196f3;fill-opacity:1;stroke:none;stroke-width:0.05069799;stroke-miterlimit:4;stroke-dasharray:none;stroke-opacity:1"
         id="circle5057"
         cx="9.9999781"
         cy="10.000005"
         r="10" />
    </clipPath>
    <clipPath
       id="clipPath5119"
       clipPathUnits="userSpaceOnUse">
      <circle
         inkscape:export-ydpi="648"
         inkscape:export-xdpi="648"
         inkscape:export-filename="/home/juergen/Schreibtisch/path4136.png"
         style="opacity:1;fill:#2196f3;fill-opacity:1;stroke:none;stroke-width:0.05069799;stroke-miterlimit:4;stroke-dasharray:none;stroke-opacity:1"
         id="circle5121"
         cx="9.9999781"
         cy="10.000005"
         r="10" />
    </clipPath>
    <clipPath
       clipPathUnits="userSpaceOnUse"
       id="clipPath5194">
      <circle
         inkscape:export-ydpi="648"
         inkscape:export-xdpi="648"
         inkscape:export-filename="/home/juergen/Schreibtisch/path4136.png"
         style="opacity:1;fill:#cddc39;fill-opacity:1;stroke:none;stroke-width:0.05069799;stroke-miterlimit:4;stroke-dasharray:none;stroke-opacity:1"
         id="circle5196"
         cx="9.9999781"
         cy="10.000005"
         r="10" />
    </clipPath>
    <clipPath
       id="clipPath6175"
       clipPathUnits="userSpaceOnUse">
      <circle
         inkscape:export-ydpi="648"
         inkscape:export-xdpi="648"
         inkscape:export-filename="/home/juergen/Schreibtisch/path4136.png"
         style="opacity:1;fill:#f44336;fill-opacity:1;stroke:none;stroke-width:0.05069799;stroke-miterlimit:4;stroke-dasharray:none;stroke-opacity:1"
         id="circle6177"
         cx="9.9999781"
         cy="10.000005"
         r="10" />
    </clipPath>
    <clipPath
       clipPathUnits="userSpaceOnUse"
       id="clipPath7176">
      <circle
         inkscape:export-ydpi="648"
         inkscape:export-xdpi="648"
         inkscape:export-filename="/home/juergen/Schreibtisch/path4136.png"
         style="opacity:1;fill:#9c27b0;fill-opacity:1;stroke:none;stroke-width:0.05069799;stroke-miterlimit:4;stroke-dasharray:none;stroke-opacity:1"
         id="circle7178"
         cx="9.9999781"
         cy="10.000005"
         r="10" />
    </clipPath>
    <clipPath
       id="clipPath8165"
       clipPathUnits="userSpaceOnUse">
      <circle
         inkscape:export-ydpi="648"
         inkscape:export-xdpi="648"
         inkscape:export-filename="/home/juergen/Schreibtisch/path4136.png"
         style="opacity:1;fill:#ffc107;fill-opacity:1;stroke:none;stroke-width:0.05069799;stroke-miterlimit:4;stroke-dasharray:none;stroke-opacity:1"
         id="circle8167"
         cx="9.9999781"
         cy="10.000005"
         r="10" />
    </clipPath>
    <clipPath
       clipPathUnits="userSpaceOnUse"
       id="clipPath9162">
      <circle
         inkscape:export-ydpi="648"
         inkscape:export-xdpi="648"
         inkscape:export-filename="/home/juergen/Schreibtisch/path4136.png"
         style="opacity:1;fill:#ff9800;fill-opacity:1;stroke:none;stroke-width:0.05069799;stroke-miterlimit:4;stroke-dasharray:none;stroke-opacity:1"
         id="circle9164"
         cx="9.9999781"
         cy="10.000005"
         r="10" />
    </clipPath>
    <clipPath
       id="clipPath10753"
       clipPathUnits="userSpaceOnUse">
      <circle
         inkscape:export-ydpi="648"
         inkscape:export-xdpi="648"
         inkscape:export-filename="/home/juergen/Schreibtisch/path4136.png"
         style="opacity:1;fill:#607d8b;fill-opacity:1;stroke:none;stroke-width:0.05069799;stroke-miterlimit:4;stroke-dasharray:none;stroke-opacity:1"
         id="circle10755"
         cx="9.9999781"
         cy="10.000005"
         r="10" />
    </clipPath>
    <clipPath
       clipPathUnits="userSpaceOnUse"
       id="clipPath5153">
      <circle
         inkscape:export-ydpi="648"
         inkscape:export-xdpi="648"
         inkscape:export-filename="/home/juergen/Schreibtisch/path4136.png"
         style="opacity:1;fill:#2196f3;fill-opacity:1;stroke:none;stroke-width:0.05069799;stroke-miterlimit:4;stroke-dasharray:none;stroke-opacity:1"
         id="circle5155"
         cx="9.9999781"
         cy="10.000005"
         r="10" />
    </clipPath>
    <clipPath
       id="clipPath6152"
       clipPathUnits="userSpaceOnUse">
      <circle
         inkscape:export-ydpi="648"
         inkscape:export-xdpi="648"
         inkscape:export-filename="/home/juergen/Schreibtisch/path4136.png"
         style="opacity:1;fill:#2196f3;fill-opacity:1;stroke:none;stroke-width:0.05069799;stroke-miterlimit:4;stroke-dasharray:none;stroke-opacity:1"
         id="circle6154"
         cx="9.9999781"
         cy="10.000005"
         r="10" />
    </clipPath>
    <clipPath
       clipPathUnits="userSpaceOnUse"
       id="clipPath7155">
      <circle
         inkscape:export-ydpi="648"
         inkscape:export-xdpi="648"
         inkscape:export-filename="/home/juergen/Schreibtisch/path4136.png"
         style="opacity:1;fill:#2196f3;fill-opacity:1;stroke:none;stroke-width:0.05069799;stroke-miterlimit:4;stroke-dasharray:none;stroke-opacity:1"
         id="circle7157"
         cx="9.9999781"
         cy="10.000005"
         r="10" />
    </clipPath>
    <clipPath
       id="clipPath8162"
       clipPathUnits="userSpaceOnUse">
      <circle
         inkscape:export-ydpi="648"
         inkscape:export-xdpi="648"
         inkscape:export-filename="/home/juergen/Schreibtisch/path4136.png"
         style="opacity:1;fill:#2196f3;fill-opacity:1;stroke:none;stroke-width:0.05069799;stroke-miterlimit:4;stroke-dasharray:none;stroke-opacity:1"
         id="circle8164"
         cx="9.9999781"
         cy="10.000005"
         r="10" />
    </clipPath>
    <linearGradient
       inkscape:collect="always"
       xlink:href="#linearGradient5166"
       id="linearGradient5172"
       x1="10"
       y1="10"
       x2="20"
       y2="20"
       gradientUnits="userSpaceOnUse" />
    <clipPath
       clipPathUnits="userSpaceOnUse"
       id="clipPath5177">
      <circle
         inkscape:export-ydpi="648"
         inkscape:export-xdpi="648"
         inkscape:export-filename="/home/juergen/Schreibtisch/path4136.png"
         style="opacity:1;fill:#8bc34a;fill-opacity:1;stroke:none;stroke-width:0.05069799;stroke-miterlimit:4;stroke-dasharray:none;stroke-opacity:1"
         id="circle5179"
         cx="9.9999781"
         cy="10.000005"
         r="10" />
    </clipPath>
  </defs>
  <metadata
     id="metadata7">
    <rdf:RDF>
      <cc:Work
         rdf:about="">
        <dc:format>image/svg+xml</dc:format>
        <dc:type
           rdf:resource="http://purl.org/dc/dcmitype/StillImage" />
        <dc:title></dc:title>
      </cc:Work>
    </rdf:RDF>
  </metadata>
  <g
     transform="translate(1058.1428,-861.93365)"
     id="layer1"
     inkscape:groupmode="layer"
     inkscape:label="Hintergrund">
    <circle
       r="10"
       cy="871.93365"
       cx="-1048.1428"
       id="path4136"
       style="opacity:1;fill:#00bcd4;fill-opacity:1;stroke:none;stroke-width:0.05069799;stroke-miterlimit:4;stroke-dasharray:none;stroke-opacity:1"
       inkscape:export-filename="/home/juergen/Schreibtisch/path4136.png"
       inkscape:export-xdpi="648"
       inkscape:export-ydpi="648" />
  </g>
  <g
     inkscape:label="Icon"
     id="layer2"
     inkscape:groupmode="layer"
     style="display:inline">
    <path
       d="M 5.1484375 5.1484375 L 5.1484375 12.148438 L 5.296875 12.148438 L 5.296875 12.296875 L 5.4453125 12.296875 L 5.4453125 12.445312 L 5.5917969 12.445312 L 5.5917969 12.591797 L 5.7363281 12.591797 L 5.7363281 12.736328 L 5.8828125 12.736328 L 5.8828125 12.882812 L 6.0273438 12.882812 L 6.0273438 13.027344 L 6.1699219 13.027344 L 6.1699219 13.169922 L 6.3125 13.169922 L 6.3125 13.3125 L 6.4550781 13.3125 L 6.4550781 13.455078 L 6.5976562 13.455078 L 6.5976562 13.597656 L 6.7382812 13.597656 L 6.7382812 13.738281 L 6.8769531 13.738281 L 6.8769531 13.876953 L 7.0175781 13.876953 L 7.0175781 14.017578 L 7.1542969 14.017578 L 7.1542969 14.154297 L 7.2929688 14.154297 L 7.2929688 14.292969 L 7.4296875 14.292969 L 7.4296875 14.429688 L 7.5664062 14.429688 L 7.5664062 14.566406 L 7.7011719 14.566406 L 7.7011719 14.701172 L 7.8359375 14.701172 L 7.8359375 14.835938 L 7.9707031 14.835938 L 7.9707031 14.970703 L 8.1035156 14.970703 L 8.1035156 15.103516 L 8.1484375 15.103516 L 8.1484375 15.148438 L 8.2363281 15.148438 L 8.2363281 15.236328 L 8.296875 15.236328 L 8.296875 15.296875 L 8.3691406 15.296875 L 8.3691406 15.369141 L 8.4453125 15.369141 L 8.4453125 15.445312 L 8.5 15.445312 L 8.5 15.5 L 8.5917969 15.5 L 8.5917969 15.591797 L 8.6289062 15.591797 L 8.6289062 15.628906 L 8.7363281 15.628906 L 8.7363281 15.736328 L 8.7597656 15.736328 L 8.7597656 15.759766 L 8.8828125 15.759766 L 8.8828125 15.882812 L 8.8886719 15.882812 L 8.8886719 15.888672 L 9.015625 15.888672 L 9.015625 16.015625 L 9.0273438 16.015625 L 9.0273438 16.027344 L 9.1425781 16.027344 L 9.1425781 16.142578 L 9.1699219 16.142578 L 9.1699219 16.169922 L 9.2695312 16.169922 L 9.2695312 16.269531 L 9.3125 16.269531 L 9.3125 16.3125 L 9.3964844 16.3125 L 9.3964844 16.396484 L 9.4550781 16.396484 L 9.4550781 16.455078 L 9.5214844 16.455078 L 9.5214844 16.521484 L 9.5976562 16.521484 L 9.5976562 16.597656 L 9.6445312 16.597656 L 9.6445312 16.644531 L 9.7382812 16.644531 L 9.7382812 16.738281 L 9.7695312 16.738281 L 9.7695312 16.769531 L 9.8769531 16.769531 L 9.8769531 16.876953 L 9.8925781 16.876953 L 9.8925781 16.892578 L 10.013672 16.892578 L 10.013672 17.013672 L 10.017578 17.013672 L 10.017578 17.017578 L 10.134766 17.017578 L 10.134766 17.134766 L 10.154297 17.134766 L 10.154297 17.154297 L 10.255859 17.154297 L 10.255859 17.255859 L 10.292969 17.255859 L 10.292969 17.292969 L 10.376953 17.292969 L 10.376953 17.376953 L 10.429688 17.376953 L 10.429688 17.429688 L 10.496094 17.429688 L 10.496094 17.496094 L 10.566406 17.496094 L 10.566406 17.566406 L 10.613281 17.566406 L 10.613281 17.613281 L 10.701172 17.613281 L 10.701172 17.701172 L 10.730469 17.701172 L 10.730469 17.730469 L 10.835938 17.730469 L 10.835938 17.835938 L 10.847656 17.835938 L 10.847656 17.847656 L 10.964844 17.847656 L 10.964844 17.964844 L 10.970703 17.964844 L 10.970703 17.970703 L 11.080078 17.970703 L 11.080078 18.080078 L 11.103516 18.080078 L 11.103516 18.103516 L 11.195312 18.103516 L 11.195312 18.195312 L 11.236328 18.195312 L 11.236328 18.236328 L 11.308594 18.236328 L 11.308594 18.308594 L 11.369141 18.308594 L 11.369141 18.369141 L 11.421875 18.369141 L 11.421875 18.421875 L 11.5 18.421875 L 11.5 18.5 L 11.535156 18.5 L 11.535156 18.535156 L 11.628906 18.535156 L 11.628906 18.628906 L 11.646484 18.628906 L 11.646484 18.646484 L 11.757812 18.646484 L 11.757812 18.757812 L 11.759766 18.757812 L 11.759766 18.759766 L 11.867188 18.759766 L 11.867188 18.867188 L 11.888672 18.867188 L 11.888672 18.888672 L 11.976562 18.888672 L 11.976562 18.976562 L 12.015625 18.976562 L 12.015625 19.015625 L 12.085938 19.015625 L 12.085938 19.085938 L 12.142578 19.085938 L 12.142578 19.142578 L 12.193359 19.142578 L 12.193359 19.193359 L 12.269531 19.193359 L 12.269531 19.269531 L 12.300781 19.269531 L 12.300781 19.300781 L 12.396484 19.300781 L 12.396484 19.396484 L 12.408203 19.396484 L 12.408203 19.408203 L 12.513672 19.408203 L 12.513672 19.513672 L 12.521484 19.513672 L 12.521484 19.521484 L 12.619141 19.521484 L 12.619141 19.619141 L 12.644531 19.619141 L 12.644531 19.644531 L 12.722656 19.644531 L 12.722656 19.722656 L 12.769531 19.722656 L 12.769531 19.769531 L 12.826172 19.769531 L 12.826172 19.826172 L 12.892578 19.826172 L 12.892578 19.892578 L 12.929688 19.892578 L 12.929688 19.929688 L 13.013672 19.929688 L 13.013672 20.013672 L 13.03125 20.013672 L 13.03125 20.03125 L 13.132812 20.03125 L 13.132812 20.132812 L 13.134766 20.132812 L 13.134766 20.134766 L 13.234375 20.134766 L 13.234375 20.234375 L 13.255859 20.234375 L 13.255859 20.255859 L 13.333984 20.255859 L 13.333984 20.333984 L 13.376953 20.333984 L 13.376953 20.376953 L 13.431641 20.376953 L 13.431641 20.431641 L 13.496094 20.431641 L 13.496094 20.496094 L 13.53125 20.496094 L 13.53125 20.53125 L 13.613281 20.53125 L 13.613281 20.613281 L 13.628906 20.613281 L 13.628906 20.628906 L 13.724609 20.628906 L 13.724609 20.724609 L 13.730469 20.724609 L 13.730469 20.730469 L 13.822266 20.730469 L 13.822266 20.822266 L 13.847656 20.822266 L 13.847656 20.847656 L 13.916016 20.847656 L 13.916016 20.916016 L 13.964844 20.916016 L 13.964844 20.964844 L 14.011719 20.964844 L 14.011719 21.011719 L 14.080078 21.011719 L 14.080078 21.080078 L 14.105469 21.080078 L 14.105469 21.105469 L 14.195312 21.105469 L 14.195312 21.195312 L 14.199219 21.195312 L 14.199219 21.199219 L 14.291016 21.199219 L 14.291016 21.291016 L 14.308594 21.291016 L 14.308594 21.308594 L 14.382812 21.308594 L 14.382812 21.382812 L 14.421875 21.382812 L 14.421875 21.421875 L 14.474609 21.421875 L 14.474609 21.474609 L 14.535156 21.474609 L 14.535156 21.535156 L 14.564453 21.535156 L 14.564453 21.564453 L 14.646484 21.564453 L 14.646484 21.646484 L 14.654297 21.646484 L 14.654297 21.654297 L 14.742188 21.654297 L 14.742188 21.742188 L 14.757812 21.742188 L 14.757812 21.757812 L 14.830078 21.757812 L 14.830078 21.830078 L 14.867188 21.830078 L 14.867188 21.867188 L 14.917969 21.867188 L 14.917969 21.917969 L 14.976562 21.917969 L 14.976562 21.976562 L 15.003906 21.976562 L 15.003906 22.003906 L 15.085938 22.003906 L 15.085938 22.085938 L 15.089844 22.085938 L 15.089844 22.089844 L 15.175781 22.089844 L 15.175781 22.175781 L 15.193359 22.175781 L 15.193359 22.193359 L 15.259766 22.193359 L 15.259766 22.259766 L 15.300781 22.259766 L 15.300781 22.300781 L 15.341797 22.300781 L 15.341797 22.341797 L 15.408203 22.341797 L 15.408203 22.408203 L 15.425781 22.408203 L 15.425781 22.425781 L 15.507812 22.425781 L 15.507812 22.507812 L 15.513672 22.507812 L 15.513672 22.513672 L 15.587891 22.513672 L 15.587891 22.587891 L 15.619141 22.587891 L 15.619141 22.619141 L 15.669922 22.619141 L 15.669922 22.669922 L 15.722656 22.669922 L 15.722656 22.722656 L 15.75 22.722656 L 15.75 22.75 L 15.826172 22.75 L 15.826172 22.826172 L 15.828125 22.826172 L 15.828125 22.828125 L 15.90625 22.828125 L 15.90625 22.90625 L 15.929688 22.90625 L 15.929688 22.929688 L 15.984375 22.929688 L 15.984375 22.984375 L 16.03125 22.984375 L 16.03125 23.03125 L 16.060547 23.03125 L 16.060547 23.060547 L 16.132812 23.060547 L 16.132812 23.132812 L 16.136719 23.132812 L 16.136719 23.136719 L 16.212891 23.136719 L 16.212891 23.212891 L 16.234375 23.212891 L 16.234375 23.234375 L 16.287109 23.234375 L 16.287109 23.287109 L 16.333984 23.287109 L 16.333984 23.333984 L 16.361328 23.333984 L 16.361328 23.361328 L 16.431641 23.361328 L 16.431641 23.431641 L 16.433594 23.431641 L 16.433594 23.433594 L 16.505859 23.433594 L 16.505859 23.505859 L 16.53125 23.505859 L 16.53125 23.53125 L 16.578125 23.53125 L 16.578125 23.578125 L 16.628906 23.578125 L 16.628906 23.628906 L 16.648438 23.628906 L 16.648438 23.648438 L 16.71875 23.648438 L 16.71875 23.71875 L 16.724609 23.71875 L 16.724609 23.724609 L 16.789062 23.724609 L 16.789062 23.789062 L 16.822266 23.789062 L 16.822266 23.822266 L 16.857422 23.822266 L 16.857422 23.857422 L 16.916016 23.857422 L 16.916016 23.916016 L 16.925781 23.916016 L 16.925781 23.925781 L 16.992188 23.925781 L 16.992188 23.992188 L 17.011719 23.992188 L 17.011719 24.011719 L 17.058594 24.011719 L 17.058594 24.058594 L 17.105469 24.058594 L 17.105469 24.105469 L 17.125 24.105469 L 17.125 24.125 L 17.189453 24.125 L 17.189453 24.189453 L 17.199219 24.189453 L 17.199219 24.199219 L 17.253906 24.199219 L 17.253906 24.253906 L 17.291016 24.253906 L 17.291016 24.291016 L 17.318359 24.291016 L 17.318359 24.318359 L 17.380859 24.318359 L 17.380859 24.380859 L 17.382812 24.380859 L 17.382812 24.382812 L 17.441406 24.382812 L 17.441406 24.441406 L 17.474609 24.441406 L 17.474609 24.474609 L 17.503906 24.474609 L 17.503906 24.503906 L 17.564453 24.503906 L 17.564453 24.564453 L 17.623047 24.564453 L 17.623047 24.623047 L 17.654297 24.623047 L 17.654297 24.654297 L 17.683594 24.654297 L 17.683594 24.683594 L 17.740234 24.683594 L 17.740234 24.740234 L 17.742188 24.740234 L 17.742188 24.742188 L 17.798828 24.742188 L 17.798828 24.798828 L 17.830078 24.798828 L 17.830078 24.830078 L 17.855469 24.830078 L 17.855469 24.855469 L 17.912109 24.855469 L 17.912109 24.912109 L 17.917969 24.912109 L 17.917969 24.917969 L 17.966797 24.917969 L 17.966797 24.966797 L 18.003906 24.966797 L 18.003906 25.003906 L 18.021484 25.003906 L 18.021484 25.021484 L 18.076172 25.021484 L 18.076172 25.076172 L 18.089844 25.076172 L 18.089844 25.089844 L 18.128906 25.089844 L 18.128906 25.128906 L 18.175781 25.128906 L 18.175781 25.175781 L 18.181641 25.175781 L 18.181641 25.181641 L 18.232422 25.181641 L 18.232422 25.232422 L 18.259766 25.232422 L 18.259766 25.259766 L 18.283203 25.259766 L 18.283203 25.283203 L 18.333984 25.283203 L 18.333984 25.333984 L 18.341797 25.333984 L 18.341797 25.341797 L 18.382812 25.341797 L 18.382812 25.382812 L 18.425781 25.382812 L 18.425781 25.425781 L 18.431641 25.425781 L 18.431641 25.431641 L 18.478516 25.431641 L 18.478516 25.478516 L 18.507812 25.478516 L 18.507812 25.507812 L 18.527344 25.507812 L 18.527344 25.527344 L 18.572266 25.527344 L 18.572266 25.572266 L 18.587891 25.572266 L 18.587891 25.587891 L 18.619141 25.587891 L 18.619141 25.619141 L 18.664062 25.619141 L 18.664062 25.664062 L 18.669922 25.664062 L 18.669922 25.669922 L 18.707031 25.669922 L 18.707031 25.707031 L 18.75 25.707031 L 18.75 25.75 L 18.751953 25.75 L 18.751953 25.751953 L 18.792969 25.751953 L 18.792969 25.792969 L 18.828125 25.792969 L 18.828125 25.828125 L 18.835938 25.828125 L 18.835938 25.835938 L 18.876953 25.835938 L 18.876953 25.876953 L 18.90625 25.876953 L 18.90625 25.90625 L 18.917969 25.90625 L 18.917969 25.917969 L 18.957031 25.917969 L 18.957031 25.957031 L 18.984375 25.957031 L 18.984375 25.984375 L 18.996094 25.984375 L 18.996094 25.996094 L 19.035156 25.996094 L 19.035156 26.035156 L 19.060547 26.035156 L 19.060547 26.060547 L 19.072266 26.060547 L 19.072266 26.072266 L 19.109375 26.072266 L 19.109375 26.109375 L 19.136719 26.109375 L 19.136719 26.136719 L 19.144531 26.136719 L 19.144531 26.144531 L 19.179688 26.144531 L 19.179688 26.179688 L 19.212891 26.179688 L 19.212891 26.212891 L 19.214844 26.212891 L 19.214844 26.214844 L 19.248047 26.214844 L 19.248047 26.248047 L 19.28125 26.248047 L 19.28125 26.28125 L 19.287109 26.28125 L 19.287109 26.287109 L 19.314453 26.287109 L 19.314453 26.314453 L 19.345703 26.314453 L 19.345703 26.345703 L 19.361328 26.345703 L 19.361328 26.361328 L 19.375 26.361328 L 19.375 26.375 L 19.40625 26.375 L 19.40625 26.40625 L 19.433594 26.40625 L 19.433594 26.433594 L 19.435547 26.433594 L 19.435547 26.435547 L 19.462891 26.435547 L 19.462891 26.464844 L 19.492188 26.464844 L 19.492188 26.492188 L 19.505859 26.492188 L 19.505859 26.505859 L 19.519531 26.505859 L 19.519531 26.519531 L 19.544922 26.519531 L 19.544922 26.544922 L 19.570312 26.544922 L 19.570312 26.570312 L 19.578125 26.570312 L 19.578125 26.578125 L 19.595703 26.578125 L 19.595703 26.595703 L 19.619141 26.595703 L 19.619141 26.619141 L 19.642578 26.619141 L 19.642578 26.642578 L 19.648438 26.642578 L 19.648438 26.648438 L 19.666016 26.648438 L 19.666016 26.666016 L 19.6875 26.666016 L 19.6875 26.6875 L 19.708984 26.6875 L 19.708984 26.708984 L 19.71875 26.708984 L 19.71875 26.71875 L 19.728516 26.71875 L 19.728516 26.728516 L 19.748047 26.728516 L 19.748047 26.748047 L 19.767578 26.748047 L 19.767578 26.767578 L 19.785156 26.767578 L 19.785156 26.787109 L 19.789062 26.787109 L 19.789062 26.789062 L 19.802734 26.789062 L 19.802734 26.802734 L 19.820312 26.802734 L 19.820312 26.820312 L 19.835938 26.820312 L 19.835938 26.835938 L 19.851562 26.835938 L 19.851562 26.851562 L 19.857422 26.851562 L 19.857422 26.857422 L 19.865234 26.857422 L 19.865234 26.865234 L 19.878906 26.865234 L 19.878906 26.878906 L 19.892578 26.878906 L 19.892578 26.892578 L 19.904297 26.892578 L 19.904297 26.904297 L 19.916016 26.904297 L 19.916016 26.916016 L 19.925781 26.916016 L 19.925781 26.925781 L 19.927734 26.925781 L 19.927734 26.927734 L 19.9375 26.927734 L 19.9375 26.9375 L 19.947266 26.9375 L 19.947266 26.947266 L 19.955078 26.947266 L 19.955078 26.955078 L 19.962891 26.955078 L 19.962891 26.962891 L 19.970703 26.962891 L 19.970703 26.970703 L 19.976562 26.970703 L 19.976562 26.976562 L 19.982422 26.976562 L 19.982422 26.982422 L 19.986328 26.982422 L 19.986328 26.986328 L 19.990234 26.986328 L 19.990234 26.990234 L 19.992188 26.990234 L 19.992188 26.992188 L 19.994141 26.992188 L 19.994141 26.994141 L 19.996094 26.994141 L 19.996094 26.996094 L 19.998047 26.996094 L 19.998047 26.998047 L 20 26.998047 L 20 27 L 20.058594 27 L 20.058594 27.058594 L 20.125 27.058594 L 20.125 27.125 L 20.189453 27.125 L 20.189453 27.189453 L 20.253906 27.189453 L 20.253906 27.253906 L 20.318359 27.253906 L 20.318359 27.318359 L 20.380859 27.318359 L 20.380859 27.380859 L 20.441406 27.380859 L 20.441406 27.441406 L 20.503906 27.441406 L 20.503906 27.503906 L 20.564453 27.503906 L 20.564453 27.564453 L 20.623047 27.564453 L 20.623047 27.623047 L 20.683594 27.623047 L 20.683594 27.683594 L 20.740234 27.683594 L 20.740234 27.740234 L 20.798828 27.740234 L 20.798828 27.798828 L 20.855469 27.798828 L 20.855469 27.855469 L 20.912109 27.855469 L 20.912109 27.912109 L 20.966797 27.912109 L 20.966797 27.966797 L 21.021484 27.966797 L 21.021484 28.021484 L 21.076172 28.021484 L 21.076172 28.076172 L 21.128906 28.076172 L 21.128906 28.128906 L 21.181641 28.128906 L 21.181641 28.181641 L 21.232422 28.181641 L 21.232422 28.232422 L 21.283203 28.232422 L 21.283203 28.283203 L 21.333984 28.283203 L 21.333984 28.333984 L 21.382812 28.333984 L 21.382812 28.382812 L 21.431641 28.382812 L 21.431641 28.431641 L 21.478516 28.431641 L 21.478516 28.478516 L 21.527344 28.478516 L 21.527344 28.527344 L 21.572266 28.527344 L 21.572266 28.572266 L 21.619141 28.572266 L 21.619141 28.619141 L 21.664062 28.619141 L 21.664062 28.664062 L 21.707031 28.664062 L 21.707031 28.707031 L 21.751953 28.707031 L 21.751953 28.751953 L 21.792969 28.751953 L 21.792969 28.792969 L 21.835938 28.792969 L 21.835938 28.835938 L 21.876953 28.835938 L 21.876953 28.876953 L 21.917969 28.876953 L 21.917969 28.917969 L 21.957031 28.917969 L 21.957031 28.957031 L 21.996094 28.957031 L 21.996094 28.996094 L 22.035156 28.996094 L 22.035156 29.035156 L 22.072266 29.035156 L 22.072266 29.072266 L 22.109375 29.072266 L 22.109375 29.109375 L 22.144531 29.109375 L 22.144531 29.144531 L 22.179688 29.144531 L 22.179688 29.179688 L 22.214844 29.179688 L 22.214844 29.214844 L 22.248047 29.214844 L 22.248047 29.248047 L 22.28125 29.248047 L 22.28125 29.28125 L 22.314453 29.28125 L 22.314453 29.314453 L 22.345703 29.314453 L 22.345703 29.345703 L 22.375 29.345703 L 22.375 29.375 L 22.40625 29.375 L 22.40625 29.40625 L 22.435547 29.40625 L 22.435547 29.435547 L 22.462891 29.435547 L 22.462891 29.464844 L 22.492188 29.464844 L 22.492188 29.492188 L 22.519531 29.492188 L 22.519531 29.519531 L 22.544922 29.519531 L 22.544922 29.544922 L 22.570312 29.544922 L 22.570312 29.570312 L 22.595703 29.570312 L 22.595703 29.595703 L 22.619141 29.595703 L 22.619141 29.619141 L 22.642578 29.619141 L 22.642578 29.642578 L 22.666016 29.642578 L 22.666016 29.666016 L 22.6875 29.666016 L 22.6875 29.6875 L 22.708984 29.6875 L 22.708984 29.708984 L 22.728516 29.708984 L 22.728516 29.728516 L 22.748047 29.728516 L 22.748047 29.748047 L 22.767578 29.748047 L 22.767578 29.767578 L 22.785156 29.767578 L 22.785156 29.787109 L 22.802734 29.787109 L 22.802734 29.802734 L 22.820312 29.802734 L 22.820312 29.820312 L 22.835938 29.820312 L 22.835938 29.835938 L 22.851562 29.835938 L 22.851562 29.851562 L 22.865234 29.851562 L 22.865234 29.865234 L 22.878906 29.865234 L 22.878906 29.878906 L 22.892578 29.878906 L 22.892578 29.892578 L 22.904297 29.892578 L 22.904297 29.904297 L 22.916016 29.904297 L 22.916016 29.916016 L 22.927734 29.916016 L 22.927734 29.927734 L 22.9375 29.927734 L 22.9375 29.9375 L 22.947266 29.9375 L 22.947266 29.947266 L 22.955078 29.947266 L 22.955078 29.955078 L 22.962891 29.955078 L 22.962891 29.962891 L 22.970703 29.962891 L 22.970703 29.970703 L 22.976562 29.970703 L 22.976562 29.976562 L 22.982422 29.976562 L 22.982422 29.982422 L 22.986328 29.982422 L 22.986328 29.986328 L 22.990234 29.986328 L 22.990234 29.990234 L 22.994141 29.990234 L 22.994141 29.994141 L 22.996094 29.994141 L 22.996094 29.996094 L 22.998047 29.996094 L 22.998047 29.998047 L 23 29.998047 L 23 30 L 30 30 L 30 23 L 29.998047 23 L 29.998047 22.998047 L 29.996094 22.998047 L 29.996094 22.996094 L 29.994141 22.996094 L 29.994141 22.994141 L 29.990234 22.994141 L 29.990234 22.990234 L 29.986328 22.990234 L 29.986328 22.986328 L 29.982422 22.986328 L 29.982422 22.982422 L 29.976562 22.982422 L 29.976562 22.976562 L 29.970703 22.976562 L 29.970703 22.970703 L 29.962891 22.970703 L 29.962891 22.962891 L 29.955078 22.962891 L 29.955078 22.955078 L 29.947266 22.955078 L 29.947266 22.947266 L 29.9375 22.947266 L 29.9375 22.9375 L 29.927734 22.9375 L 29.927734 22.927734 L 29.916016 22.927734 L 29.916016 22.916016 L 29.904297 22.916016 L 29.904297 22.904297 L 29.892578 22.904297 L 29.892578 22.892578 L 29.878906 22.892578 L 29.878906 22.878906 L 29.865234 22.878906 L 29.865234 22.865234 L 29.851562 22.865234 L 29.851562 22.851562 L 29.835938 22.851562 L 29.835938 22.835938 L 29.820312 22.835938 L 29.820312 22.820312 L 29.802734 22.820312 L 29.802734 22.802734 L 29.785156 22.802734 L 29.785156 22.787109 L 29.767578 22.787109 L 29.767578 22.767578 L 29.748047 22.767578 L 29.748047 22.748047 L 29.728516 22.748047 L 29.728516 22.728516 L 29.708984 22.728516 L 29.708984 22.708984 L 29.6875 22.708984 L 29.6875 22.6875 L 29.666016 22.6875 L 29.666016 22.666016 L 29.642578 22.666016 L 29.642578 22.642578 L 29.619141 22.642578 L 29.619141 22.619141 L 29.595703 22.619141 L 29.595703 22.595703 L 29.570312 22.595703 L 29.570312 22.570312 L 29.544922 22.570312 L 29.544922 22.544922 L 29.519531 22.544922 L 29.519531 22.519531 L 29.492188 22.519531 L 29.492188 22.492188 L 29.462891 22.492188 L 29.462891 22.464844 L 29.435547 22.464844 L 29.435547 22.435547 L 29.40625 22.435547 L 29.40625 22.40625 L 29.375 22.40625 L 29.375 22.375 L 29.345703 22.375 L 29.345703 22.345703 L 29.314453 22.345703 L 29.314453 22.314453 L 29.28125 22.314453 L 29.28125 22.28125 L 29.248047 22.28125 L 29.248047 22.248047 L 29.214844 22.248047 L 29.214844 22.214844 L 29.179688 22.214844 L 29.179688 22.179688 L 29.144531 22.179688 L 29.144531 22.144531 L 29.109375 22.144531 L 29.109375 22.109375 L 29.072266 22.109375 L 29.072266 22.072266 L 29.035156 22.072266 L 29.035156 22.035156 L 28.996094 22.035156 L 28.996094 21.996094 L 28.957031 21.996094 L 28.957031 21.957031 L 28.917969 21.957031 L 28.917969 21.917969 L 28.876953 21.917969 L 28.876953 21.876953 L 28.835938 21.876953 L 28.835938 21.835938 L 28.792969 21.835938 L 28.792969 21.792969 L 28.751953 21.792969 L 28.751953 21.751953 L 28.707031 21.751953 L 28.707031 21.707031 L 28.664062 21.707031 L 28.664062 21.664062 L 28.619141 21.664062 L 28.619141 21.619141 L 28.572266 21.619141 L 28.572266 21.572266 L 28.527344 21.572266 L 28.527344 21.527344 L 28.478516 21.527344 L 28.478516 21.478516 L 28.431641 21.478516 L 28.431641 21.431641 L 28.382812 21.431641 L 28.382812 21.382812 L 28.333984 21.382812 L 28.333984 21.333984 L 28.283203 21.333984 L 28.283203 21.283203 L 28.232422 21.283203 L 28.232422 21.232422 L 28.181641 21.232422 L 28.181641 21.181641 L 28.128906 21.181641 L 28.128906 21.128906 L 28.076172 21.128906 L 28.076172 21.076172 L 28.021484 21.076172 L 28.021484 21.021484 L 27.966797 21.021484 L 27.966797 20.966797 L 27.912109 20.966797 L 27.912109 20.912109 L 27.855469 20.912109 L 27.855469 20.855469 L 27.798828 20.855469 L 27.798828 20.798828 L 27.740234 20.798828 L 27.740234 20.740234 L 27.683594 20.740234 L 27.683594 20.683594 L 27.623047 20.683594 L 27.623047 20.623047 L 27.564453 20.623047 L 27.564453 20.564453 L 27.503906 20.564453 L 27.503906 20.503906 L 27.441406 20.503906 L 27.441406 20.441406 L 27.380859 20.441406 L 27.380859 20.380859 L 27.318359 20.380859 L 27.318359 20.318359 L 27.253906 20.318359 L 27.253906 20.253906 L 27.189453 20.253906 L 27.189453 20.189453 L 27.125 20.189453 L 27.125 20.125 L 27.058594 20.125 L 27.058594 20.058594 L 27 20.058594 L 27 20 L 26.998047 20 L 26.998047 19.998047 L 26.996094 19.998047 L 26.996094 19.996094 L 26.994141 19.996094 L 26.994141 19.994141 L 26.992188 19.994141 L 26.992188 19.992188 L 26.990234 19.992188 L 26.990234 19.990234 L 26.986328 19.990234 L 26.986328 19.986328 L 26.982422 19.986328 L 26.982422 19.982422 L 26.976562 19.982422 L 26.976562 19.976562 L 26.970703 19.976562 L 26.970703 19.970703 L 26.962891 19.970703 L 26.962891 19.962891 L 26.955078 19.962891 L 26.955078 19.955078 L 26.947266 19.955078 L 26.947266 19.947266 L 26.9375 19.947266 L 26.9375 19.9375 L 26.927734 19.9375 L 26.927734 19.927734 L 26.925781 19.927734 L 26.925781 19.925781 L 26.916016 19.925781 L 26.916016 19.916016 L 26.904297 19.916016 L 26.904297 19.904297 L 26.892578 19.904297 L 26.892578 19.892578 L 26.878906 19.892578 L 26.878906 19.878906 L 26.865234 19.878906 L 26.865234 19.865234 L 26.857422 19.865234 L 26.857422 19.857422 L 26.851562 19.857422 L 26.851562 19.851562 L 26.835938 19.851562 L 26.835938 19.835938 L 26.820312 19.835938 L 26.820312 19.820312 L 26.802734 19.820312 L 26.802734 19.802734 L 26.789062 19.802734 L 26.789062 19.789062 L 26.785156 19.789062 L 26.785156 19.787109 L 26.767578 19.787109 L 26.767578 19.767578 L 26.748047 19.767578 L 26.748047 19.748047 L 26.728516 19.748047 L 26.728516 19.728516 L 26.71875 19.728516 L 26.71875 19.71875 L 26.708984 19.71875 L 26.708984 19.708984 L 26.6875 19.708984 L 26.6875 19.6875 L 26.666016 19.6875 L 26.666016 19.666016 L 26.648438 19.666016 L 26.648438 19.648438 L 26.642578 19.648438 L 26.642578 19.642578 L 26.619141 19.642578 L 26.619141 19.619141 L 26.595703 19.619141 L 26.595703 19.595703 L 26.578125 19.595703 L 26.578125 19.578125 L 26.570312 19.578125 L 26.570312 19.570312 L 26.544922 19.570312 L 26.544922 19.544922 L 26.519531 19.544922 L 26.519531 19.519531 L 26.505859 19.519531 L 26.505859 19.505859 L 26.492188 19.505859 L 26.492188 19.492188 L 26.462891 19.492188 L 26.462891 19.464844 L 26.435547 19.464844 L 26.435547 19.435547 L 26.433594 19.435547 L 26.433594 19.433594 L 26.40625 19.433594 L 26.40625 19.40625 L 26.375 19.40625 L 26.375 19.375 L 26.361328 19.375 L 26.361328 19.361328 L 26.345703 19.361328 L 26.345703 19.345703 L 26.314453 19.345703 L 26.314453 19.314453 L 26.287109 19.314453 L 26.287109 19.287109 L 26.28125 19.287109 L 26.28125 19.28125 L 26.248047 19.28125 L 26.248047 19.248047 L 26.214844 19.248047 L 26.214844 19.214844 L 26.212891 19.214844 L 26.212891 19.212891 L 26.179688 19.212891 L 26.179688 19.179688 L 26.144531 19.179688 L 26.144531 19.144531 L 26.136719 19.144531 L 26.136719 19.136719 L 26.109375 19.136719 L 26.109375 19.109375 L 26.072266 19.109375 L 26.072266 19.072266 L 26.060547 19.072266 L 26.060547 19.060547 L 26.035156 19.060547 L 26.035156 19.035156 L 25.996094 19.035156 L 25.996094 18.996094 L 25.984375 18.996094 L 25.984375 18.984375 L 25.957031 18.984375 L 25.957031 18.957031 L 25.917969 18.957031 L 25.917969 18.917969 L 25.90625 18.917969 L 25.90625 18.90625 L 25.876953 18.90625 L 25.876953 18.876953 L 25.835938 18.876953 L 25.835938 18.835938 L 25.828125 18.835938 L 25.828125 18.828125 L 25.792969 18.828125 L 25.792969 18.792969 L 25.751953 18.792969 L 25.751953 18.751953 L 25.75 18.751953 L 25.75 18.75 L 25.707031 18.75 L 25.707031 18.707031 L 25.669922 18.707031 L 25.669922 18.669922 L 25.664062 18.669922 L 25.664062 18.664062 L 25.619141 18.664062 L 25.619141 18.619141 L 25.587891 18.619141 L 25.587891 18.587891 L 25.572266 18.587891 L 25.572266 18.572266 L 25.527344 18.572266 L 25.527344 18.527344 L 25.507812 18.527344 L 25.507812 18.507812 L 25.478516 18.507812 L 25.478516 18.478516 L 25.431641 18.478516 L 25.431641 18.431641 L 25.425781 18.431641 L 25.425781 18.425781 L 25.382812 18.425781 L 25.382812 18.382812 L 25.341797 18.382812 L 25.341797 18.341797 L 25.333984 18.341797 L 25.333984 18.333984 L 25.283203 18.333984 L 25.283203 18.283203 L 25.259766 18.283203 L 25.259766 18.259766 L 25.232422 18.259766 L 25.232422 18.232422 L 25.181641 18.232422 L 25.181641 18.181641 L 25.175781 18.181641 L 25.175781 18.175781 L 25.128906 18.175781 L 25.128906 18.128906 L 25.089844 18.128906 L 25.089844 18.089844 L 25.076172 18.089844 L 25.076172 18.076172 L 25.021484 18.076172 L 25.021484 18.021484 L 25.003906 18.021484 L 25.003906 18.003906 L 24.966797 18.003906 L 24.966797 17.966797 L 24.917969 17.966797 L 24.917969 17.917969 L 24.912109 17.917969 L 24.912109 17.912109 L 24.855469 17.912109 L 24.855469 17.855469 L 24.830078 17.855469 L 24.830078 17.830078 L 24.798828 17.830078 L 24.798828 17.798828 L 24.742188 17.798828 L 24.742188 17.742188 L 24.740234 17.742188 L 24.740234 17.740234 L 24.683594 17.740234 L 24.683594 17.683594 L 24.654297 17.683594 L 24.654297 17.654297 L 24.623047 17.654297 L 24.623047 17.623047 L 24.564453 17.623047 L 24.564453 17.564453 L 24.503906 17.564453 L 24.503906 17.503906 L 24.474609 17.503906 L 24.474609 17.474609 L 24.441406 17.474609 L 24.441406 17.441406 L 24.382812 17.441406 L 24.382812 17.382812 L 24.380859 17.382812 L 24.380859 17.380859 L 24.318359 17.380859 L 24.318359 17.318359 L 24.291016 17.318359 L 24.291016 17.291016 L 24.253906 17.291016 L 24.253906 17.253906 L 24.199219 17.253906 L 24.199219 17.199219 L 24.189453 17.199219 L 24.189453 17.189453 L 24.125 17.189453 L 24.125 17.125 L 24.105469 17.125 L 24.105469 17.105469 L 24.058594 17.105469 L 24.058594 17.058594 L 24.011719 17.058594 L 24.011719 17.011719 L 23.992188 17.011719 L 23.992188 16.992188 L 23.925781 16.992188 L 23.925781 16.925781 L 23.916016 16.925781 L 23.916016 16.916016 L 23.857422 16.916016 L 23.857422 16.857422 L 23.822266 16.857422 L 23.822266 16.822266 L 23.789062 16.822266 L 23.789062 16.789062 L 23.724609 16.789062 L 23.724609 16.724609 L 23.71875 16.724609 L 23.71875 16.71875 L 23.648438 16.71875 L 23.648438 16.648438 L 23.628906 16.648438 L 23.628906 16.628906 L 23.578125 16.628906 L 23.578125 16.578125 L 23.53125 16.578125 L 23.53125 16.53125 L 23.505859 16.53125 L 23.505859 16.505859 L 23.433594 16.505859 L 23.433594 16.433594 L 23.431641 16.433594 L 23.431641 16.431641 L 23.361328 16.431641 L 23.361328 16.361328 L 23.333984 16.361328 L 23.333984 16.333984 L 23.287109 16.333984 L 23.287109 16.287109 L 23.234375 16.287109 L 23.234375 16.234375 L 23.212891 16.234375 L 23.212891 16.212891 L 23.136719 16.212891 L 23.136719 16.136719 L 23.132812 16.136719 L 23.132812 16.132812 L 23.060547 16.132812 L 23.060547 16.060547 L 23.03125 16.060547 L 23.03125 16.03125 L 22.984375 16.03125 L 22.984375 15.984375 L 22.929688 15.984375 L 22.929688 15.929688 L 22.90625 15.929688 L 22.90625 15.90625 L 22.828125 15.90625 L 22.828125 15.828125 L 22.826172 15.828125 L 22.826172 15.826172 L 22.75 15.826172 L 22.75 15.75 L 22.722656 15.75 L 22.722656 15.722656 L 22.669922 15.722656 L 22.669922 15.669922 L 22.619141 15.669922 L 22.619141 15.619141 L 22.587891 15.619141 L 22.587891 15.587891 L 22.513672 15.587891 L 22.513672 15.513672 L 22.507812 15.513672 L 22.507812 15.507812 L 22.425781 15.507812 L 22.425781 15.425781 L 22.408203 15.425781 L 22.408203 15.408203 L 22.341797 15.408203 L 22.341797 15.341797 L 22.300781 15.341797 L 22.300781 15.300781 L 22.259766 15.300781 L 22.259766 15.259766 L 22.193359 15.259766 L 22.193359 15.193359 L 22.175781 15.193359 L 22.175781 15.175781 L 22.089844 15.175781 L 22.089844 15.089844 L 22.085938 15.089844 L 22.085938 15.085938 L 22.003906 15.085938 L 22.003906 15.003906 L 21.976562 15.003906 L 21.976562 14.976562 L 21.917969 14.976562 L 21.917969 14.917969 L 21.867188 14.917969 L 21.867188 14.867188 L 21.830078 14.867188 L 21.830078 14.830078 L 21.757812 14.830078 L 21.757812 14.757812 L 21.742188 14.757812 L 21.742188 14.742188 L 21.654297 14.742188 L 21.654297 14.654297 L 21.646484 14.654297 L 21.646484 14.646484 L 21.564453 14.646484 L 21.564453 14.564453 L 21.535156 14.564453 L 21.535156 14.535156 L 21.474609 14.535156 L 21.474609 14.474609 L 21.421875 14.474609 L 21.421875 14.421875 L 21.382812 14.421875 L 21.382812 14.382812 L 21.308594 14.382812 L 21.308594 14.308594 L 21.291016 14.308594 L 21.291016 14.291016 L 21.199219 14.291016 L 21.199219 14.199219 L 21.195312 14.199219 L 21.195312 14.195312 L 21.105469 14.195312 L 21.105469 14.105469 L 21.080078 14.105469 L 21.080078 14.080078 L 21.011719 14.080078 L 21.011719 14.011719 L 20.964844 14.011719 L 20.964844 13.964844 L 20.916016 13.964844 L 20.916016 13.916016 L 20.847656 13.916016 L 20.847656 13.847656 L 20.822266 13.847656 L 20.822266 13.822266 L 20.730469 13.822266 L 20.730469 13.730469 L 20.724609 13.730469 L 20.724609 13.724609 L 20.628906 13.724609 L 20.628906 13.628906 L 20.613281 13.628906 L 20.613281 13.613281 L 20.53125 13.613281 L 20.53125 13.53125 L 20.496094 13.53125 L 20.496094 13.496094 L 20.431641 13.496094 L 20.431641 13.431641 L 20.376953 13.431641 L 20.376953 13.376953 L 20.333984 13.376953 L 20.333984 13.333984 L 20.255859 13.333984 L 20.255859 13.255859 L 20.234375 13.255859 L 20.234375 13.234375 L 20.134766 13.234375 L 20.134766 13.134766 L 20.132812 13.134766 L 20.132812 13.132812 L 20.03125 13.132812 L 20.03125 13.03125 L 20.013672 13.03125 L 20.013672 13.013672 L 19.929688 13.013672 L 19.929688 12.929688 L 19.892578 12.929688 L 19.892578 12.892578 L 19.826172 12.892578 L 19.826172 12.826172 L 19.769531 12.826172 L 19.769531 12.769531 L 19.722656 12.769531 L 19.722656 12.722656 L 19.644531 12.722656 L 19.644531 12.644531 L 19.619141 12.644531 L 19.619141 12.619141 L 19.521484 12.619141 L 19.521484 12.521484 L 19.513672 12.521484 L 19.513672 12.513672 L 19.408203 12.513672 L 19.408203 12.408203 L 19.396484 12.408203 L 19.396484 12.396484 L 19.300781 12.396484 L 19.300781 12.300781 L 19.269531 12.300781 L 19.269531 12.269531 L 19.193359 12.269531 L 19.193359 12.193359 L 19.142578 12.193359 L 19.142578 12.142578 L 19.085938 12.142578 L 19.085938 12.085938 L 19.015625 12.085938 L 19.015625 12.015625 L 18.976562 12.015625 L 18.976562 11.976562 L 18.888672 11.976562 L 18.888672 11.888672 L 18.867188 11.888672 L 18.867188 11.867188 L 18.759766 11.867188 L 18.759766 11.759766 L 18.757812 11.759766 L 18.757812 11.757812 L 18.646484 11.757812 L 18.646484 11.646484 L 18.628906 11.646484 L 18.628906 11.628906 L 18.535156 11.628906 L 18.535156 11.535156 L 18.5 11.535156 L 18.5 11.5 L 18.421875 11.5 L 18.421875 11.421875 L 18.369141 11.421875 L 18.369141 11.369141 L 18.308594 11.369141 L 18.308594 11.308594 L 18.236328 11.308594 L 18.236328 11.236328 L 18.195312 11.236328 L 18.195312 11.195312 L 18.103516 11.195312 L 18.103516 11.103516 L 18.080078 11.103516 L 18.080078 11.080078 L 17.970703 11.080078 L 17.970703 10.970703 L 17.964844 10.970703 L 17.964844 10.964844 L 17.847656 10.964844 L 17.847656 10.847656 L 17.835938 10.847656 L 17.835938 10.835938 L 17.730469 10.835938 L 17.730469 10.730469 L 17.701172 10.730469 L 17.701172 10.701172 L 17.613281 10.701172 L 17.613281 10.613281 L 17.566406 10.613281 L 17.566406 10.566406 L 17.496094 10.566406 L 17.496094 10.496094 L 17.429688 10.496094 L 17.429688 10.429688 L 17.376953 10.429688 L 17.376953 10.376953 L 17.292969 10.376953 L 17.292969 10.292969 L 17.255859 10.292969 L 17.255859 10.255859 L 17.154297 10.255859 L 17.154297 10.154297 L 17.134766 10.154297 L 17.134766 10.134766 L 17.017578 10.134766 L 17.017578 10.017578 L 17.013672 10.017578 L 17.013672 10.013672 L 16.892578 10.013672 L 16.892578 9.8925781 L 16.876953 9.8925781 L 16.876953 9.8769531 L 16.769531 9.8769531 L 16.769531 9.7695312 L 16.738281 9.7695312 L 16.738281 9.7382812 L 16.644531 9.7382812 L 16.644531 9.6445312 L 16.597656 9.6445312 L 16.597656 9.5976562 L 16.521484 9.5976562 L 16.521484 9.5214844 L 16.455078 9.5214844 L 16.455078 9.4550781 L 16.396484 9.4550781 L 16.396484 9.3964844 L 16.3125 9.3964844 L 16.3125 9.3125 L 16.269531 9.3125 L 16.269531 9.2695312 L 16.169922 9.2695312 L 16.169922 9.1699219 L 16.142578 9.1699219 L 16.142578 9.1425781 L 16.027344 9.1425781 L 16.027344 9.0273438 L 16.015625 9.0273438 L 16.015625 9.015625 L 15.888672 9.015625 L 15.888672 8.8886719 L 15.882812 8.8886719 L 15.882812 8.8828125 L 15.759766 8.8828125 L 15.759766 8.7597656 L 15.736328 8.7597656 L 15.736328 8.7363281 L 15.628906 8.7363281 L 15.628906 8.6289062 L 15.591797 8.6289062 L 15.591797 8.5917969 L 15.5 8.5917969 L 15.5 8.5 L 15.445312 8.5 L 15.445312 8.4453125 L 15.369141 8.4453125 L 15.369141 8.3691406 L 15.296875 8.3691406 L 15.296875 8.296875 L 15.236328 8.296875 L 15.236328 8.2363281 L 15.148438 8.2363281 L 15.148438 8.1484375 L 15.103516 8.1484375 L 15.103516 8.1035156 L 14.970703 8.1035156 L 14.970703 7.9707031 L 14.835938 7.9707031 L 14.835938 7.8359375 L 14.701172 7.8359375 L 14.701172 7.7011719 L 14.566406 7.7011719 L 14.566406 7.5664062 L 14.429688 7.5664062 L 14.429688 7.4296875 L 14.292969 7.4296875 L 14.292969 7.2929688 L 14.154297 7.2929688 L 14.154297 7.1542969 L 14.017578 7.1542969 L 14.017578 7.0175781 L 13.876953 7.0175781 L 13.876953 6.8769531 L 13.738281 6.8769531 L 13.738281 6.7382812 L 13.597656 6.7382812 L 13.597656 6.5976562 L 13.455078 6.5976562 L 13.455078 6.4550781 L 13.3125 6.4550781 L 13.3125 6.3125 L 13.169922 6.3125 L 13.169922 6.1699219 L 13.027344 6.1699219 L 13.027344 6.0273438 L 12.882812 6.0273438 L 12.882812 5.8828125 L 12.736328 5.8828125 L 12.736328 5.7363281 L 12.591797 5.7363281 L 12.591797 5.5917969 L 12.445312 5.5917969 L 12.445312 5.4453125 L 12.296875 5.4453125 L 12.296875 5.296875 L 12.148438 5.296875 L 12.148438 5.1484375 L 5.1484375 5.1484375 z "
       id="path4309"
       style="fill-opacity:1;fill:url(#linearGradient5172);opacity:0.2"
       clip-path="url(#clipPath5177)" />
    <path
       style="fill:none"
       inkscape:connector-curvature="0"
       id="path4"
       d="m 3.9999777,4.0333382 12.0000003,0 0,11.9333328 -12.0000003,0 z" />
    <path
       d="m 18.999978,19.033339 12,0 0,11.933333 -12,0 z"
       id="path9754"
       inkscape:connector-curvature="0"
       style="fill:none" />
    <rect
       style="opacity:1;fill:#8bc34a;fill-opacity:1;stroke:none;stroke-width:2;stroke-miterlimit:4;stroke-dasharray:none;stroke-opacity:1"
       id="rect5181"
       width="6.25"
       height="5.8928571"
       x="5.5357141"
       y="5.7142859" />
    <path
       inkscape:connector-curvature="0"
       d="m 4.9999779,5.0000048 7.0000001,0 0,7.0000002 -7.0000001,0 0,-7.0000002 m 10.0000001,2.9999998 0,7.0000004 -7,0 0,-2 5,0 0,-5.0000004 2,0 m -9.0000001,-1.9999998 0,5.0000002 5.0000001,0 0,-5.0000002 -5.0000001,0 z"
       id="path4239"
       style="fill:#e91e63" />
  </g>
</svg>
