<?xml version="1.0" encoding="UTF-8" standalone="no"?>
<!-- Created with Inkscape (http://www.inkscape.org/) -->

<svg
   xmlns:dc="http://purl.org/dc/elements/1.1/"
   xmlns:cc="http://creativecommons.org/ns#"
   xmlns:rdf="http://www.w3.org/1999/02/22-rdf-syntax-ns#"
   xmlns:svg="http://www.w3.org/2000/svg"
   xmlns="http://www.w3.org/2000/svg"
   xmlns:xlink="http://www.w3.org/1999/xlink"
   xmlns:sodipodi="http://sodipodi.sourceforge.net/DTD/sodipodi-0.dtd"
   xmlns:inkscape="http://www.inkscape.org/namespaces/inkscape"
   sodipodi:docname="SuperSU.svg"
   inkscape:version="0.91 r13725"
   version="1.1"
   id="svg2"
   viewBox="0 0 20 20"
   height="5.6444445mm"
   width="5.6444445mm"
   inkscape:export-filename="/home/juergen/Projekte/Android/Android_Studio/Baumann_Theme/theme/src/main/assets/icons/res/drawable-xxhdpi/a032.png"
   inkscape:export-xdpi="648"
   inkscape:export-ydpi="648">
  <sodipodi:namedview
     inkscape:snap-to-guides="true"
     inkscape:snap-grids="true"
     inkscape:window-maximized="1"
     inkscape:window-y="24"
     inkscape:window-x="0"
     inkscape:window-height="744"
     inkscape:window-width="1366"
     inkscape:guide-bbox="true"
     showguides="true"
     fit-margin-bottom="0"
     fit-margin-right="0"
     fit-margin-left="0"
     fit-margin-top="0"
     showgrid="false"
     inkscape:current-layer="layer1"
     inkscape:document-units="px"
     inkscape:cy="10.559324"
     inkscape:cx="8.0423448"
     inkscape:zoom="15.839192"
     inkscape:pageshadow="2"
     inkscape:pageopacity="0.0"
     borderopacity="1.0"
     bordercolor="#666666"
     pagecolor="#ffffff"
     id="base">
    <inkscape:grid
       id="grid4138"
       type="xygrid" />
    <sodipodi:guide
       id="guide4140"
       orientation="0,1"
       position="10,18" />
    <sodipodi:guide
       id="guide4142"
       orientation="0,1"
       position="10,2" />
    <sodipodi:guide
       id="guide4144"
       orientation="1,0"
       position="2,10" />
    <sodipodi:guide
       id="guide4146"
       orientation="0,20"
       position="0,0" />
    <sodipodi:guide
       id="guide4148"
       orientation="-20,0"
       position="20,0" />
    <sodipodi:guide
       id="guide4150"
       orientation="0,-20"
       position="20,20" />
    <sodipodi:guide
       id="guide4152"
       orientation="20,0"
       position="0,20" />
    <sodipodi:guide
       id="guide4154"
       orientation="1,0"
       position="18,10" />
    <sodipodi:guide
       id="guide4156"
       orientation="-0.70710678,0.70710678"
       position="10,10" />
    <sodipodi:guide
       id="guide4158"
       orientation="0.70710678,0.70710678"
       position="10,10" />
    <sodipodi:guide
       id="guide4160"
       orientation="1,0"
       position="4,10" />
    <sodipodi:guide
       id="guide4162"
       orientation="1,0"
       position="16,10" />
    <sodipodi:guide
       id="guide4164"
       orientation="0,1"
       position="10,16" />
    <sodipodi:guide
       id="guide4166"
       orientation="0,1"
       position="10,4" />
    <sodipodi:guide
       id="guide4168"
       orientation="0,1"
       position="10,15" />
    <sodipodi:guide
       id="guide4170"
       orientation="0,1"
       position="10,5" />
    <sodipodi:guide
       id="guide4172"
       orientation="1,0"
       position="5,10" />
    <sodipodi:guide
       id="guide4174"
       orientation="1,0"
       position="15,10" />
  </sodipodi:namedview>
  <defs
     id="defs4">
    <linearGradient
       inkscape:collect="always"
       id="linearGradient9010">
      <stop
         style="stop-color:#000000;stop-opacity:0.2"
         offset="0"
         id="stop9012" />
      <stop
         style="stop-color:#000000;stop-opacity:0;"
         offset="1"
         id="stop9014" />
    </linearGradient>
    <clipPath
       clipPathUnits="userSpaceOnUse"
       id="clipPath12478">
      <circle
         style="opacity:1;fill:#2196f3;fill-opacity:1;stroke:none;stroke-width:0.05069799;stroke-miterlimit:4;stroke-dasharray:none;stroke-opacity:1"
         id="circle12480"
         cx="9.9999781"
         cy="10.000005"
         r="10" />
    </clipPath>
    <clipPath
       id="clipPath5790"
       clipPathUnits="userSpaceOnUse">
      <circle
         inkscape:export-ydpi="648"
         inkscape:export-xdpi="648"
         inkscape:export-filename="/home/juergen/path4136.png"
         style="opacity:1;fill:#2196f3;fill-opacity:1;stroke:none;stroke-width:0.05069799;stroke-miterlimit:4;stroke-dasharray:none;stroke-opacity:1"
         id="circle5792"
         cx="9.9999781"
         cy="10.000005"
         r="10" />
    </clipPath>
    <clipPath
       clipPathUnits="userSpaceOnUse"
       id="clipPath7690">
      <circle
         inkscape:export-ydpi="648"
         inkscape:export-xdpi="648"
         inkscape:export-filename="/home/juergen/Schreibtisch/path4136.png"
         style="opacity:1;fill:#2196f3;fill-opacity:1;stroke:none;stroke-width:0.05069799;stroke-miterlimit:4;stroke-dasharray:none;stroke-opacity:1"
         id="circle7692"
         cx="9.9999781"
         cy="10.000005"
         r="10" />
    </clipPath>
    <clipPath
       id="clipPath5119"
       clipPathUnits="userSpaceOnUse">
      <circle
         inkscape:export-ydpi="648"
         inkscape:export-xdpi="648"
         inkscape:export-filename="/home/juergen/Schreibtisch/path4136.png"
         style="opacity:1;fill:#ff9800;fill-opacity:1;stroke:none;stroke-width:0.05069799;stroke-miterlimit:4;stroke-dasharray:none;stroke-opacity:1"
         id="circle5121"
         cx="9.9999781"
         cy="10.000005"
         r="10" />
    </clipPath>
    <linearGradient
       inkscape:collect="always"
       xlink:href="#linearGradient9010"
       id="linearGradient9016"
       x1="10"
       y1="10"
       x2="20"
       y2="20"
       gradientUnits="userSpaceOnUse" />
    <clipPath
       clipPathUnits="userSpaceOnUse"
       id="clipPath9021">
      <circle
         inkscape:export-ydpi="648"
         inkscape:export-xdpi="648"
         inkscape:export-filename="/home/juergen/Schreibtisch/path4136.png"
         style="opacity:1;fill:#ff9800;fill-opacity:1;stroke:none;stroke-width:0.05069799;stroke-miterlimit:4;stroke-dasharray:none;stroke-opacity:1"
         id="circle9023"
         cx="9.9999781"
         cy="10.000005"
         r="10" />
    </clipPath>
  </defs>
  <metadata
     id="metadata7">
    <rdf:RDF>
      <cc:Work
         rdf:about="">
        <dc:format>image/svg+xml</dc:format>
        <dc:type
           rdf:resource="http://purl.org/dc/dcmitype/StillImage" />
        <dc:title></dc:title>
      </cc:Work>
    </rdf:RDF>
  </metadata>
  <g
     transform="translate(1058.1428,-861.93365)"
     id="layer1"
     inkscape:groupmode="layer"
     inkscape:label="Hintergrund">
    <circle
       r="10"
       cy="871.93365"
       cx="-1048.1428"
       id="path4136"
       style="opacity:1;fill:#f44336;fill-opacity:1;stroke:none;stroke-width:0.05069799;stroke-miterlimit:4;stroke-dasharray:none;stroke-opacity:1"
       inkscape:export-filename="/home/juergen/Projekte/Android/Android_Studio/Baumann_Theme/theme/src/main/assets/icons/res/drawable-xxhdpi/a032.png"
       inkscape:export-xdpi="648"
       inkscape:export-ydpi="648" />
  </g>
  <g
     inkscape:label="Icon"
     id="layer2"
     inkscape:groupmode="layer"
     style="display:inline">
    <path
       style="font-style:normal;font-weight:normal;font-size:medium;line-height:125%;font-family:sans-serif;letter-spacing:0px;word-spacing:0px;fill:url(#linearGradient9016);fill-opacity:1;stroke:none;stroke-width:1;stroke-linecap:butt;stroke-linejoin:miter;stroke-opacity:1;image-rendering:auto"
       d="M 9.1601562 5 L 8.4667969 7.8242188 L 6.0117188 7.8242188 L 6.0097656 7.8242188 L 6.0097656 8.8710938 L 6.0117188 8.8710938 L 6.0117188 8.8730469 L 6.0136719 8.8730469 L 6.0136719 8.875 L 6.015625 8.875 L 6.015625 8.8769531 L 6.0195312 8.8769531 L 6.0195312 8.8808594 L 6.0234375 8.8808594 L 6.0234375 8.8847656 L 6.0292969 8.8847656 L 6.0292969 8.8886719 L 6.0332031 8.8886719 L 6.0332031 8.8945312 L 6.0410156 8.8945312 L 6.0410156 8.9003906 L 6.046875 8.9003906 L 6.046875 8.9082031 L 6.0546875 8.9082031 L 6.0546875 8.9160156 L 6.0644531 8.9160156 L 6.0644531 8.9238281 L 6.0722656 8.9238281 L 6.0722656 8.9335938 L 6.0820312 8.9335938 L 6.0820312 8.9433594 L 6.09375 8.9433594 L 6.09375 8.9550781 L 6.1054688 8.9550781 L 6.1054688 8.9648438 L 6.1171875 8.9648438 L 6.1171875 8.9785156 L 6.1308594 8.9785156 L 6.1308594 8.9902344 L 6.1445312 8.9902344 L 6.1445312 9.0039062 L 6.1582031 9.0039062 L 6.1582031 9.0195312 L 6.1738281 9.0195312 L 6.1738281 9.0351562 L 6.1894531 9.0351562 L 6.1894531 9.0507812 L 6.2070312 9.0507812 L 6.2070312 9.0664062 L 6.2246094 9.0664062 L 6.2246094 9.0839844 L 6.2421875 9.0839844 L 6.2421875 9.1035156 L 6.2617188 9.1035156 L 6.2617188 9.1210938 L 6.28125 9.1210938 L 6.28125 9.140625 L 6.3007812 9.140625 L 6.3007812 9.1621094 L 6.3222656 9.1621094 L 6.3222656 9.1835938 L 6.34375 9.1835938 L 6.34375 9.2050781 L 6.3671875 9.2050781 L 6.3671875 9.2285156 L 6.390625 9.2285156 L 6.390625 9.25 L 6.4140625 9.25 L 6.4140625 9.2753906 L 6.4394531 9.2753906 L 6.4394531 9.3007812 L 6.4648438 9.3007812 L 6.4648438 9.3261719 L 6.4921875 9.3261719 L 6.4921875 9.3515625 L 6.5175781 9.3515625 L 6.5175781 9.3789062 L 6.546875 9.3789062 L 6.546875 9.40625 L 6.5742188 9.40625 L 6.5742188 9.4355469 L 6.6035156 9.4355469 L 6.6035156 9.4648438 L 6.6347656 9.4648438 L 6.6347656 9.4941406 L 6.6660156 9.4941406 L 6.6660156 9.5253906 L 6.6972656 9.5253906 L 6.6972656 9.5566406 L 6.7285156 9.5566406 L 6.7285156 9.5898438 L 6.7617188 9.5898438 L 6.7617188 9.6230469 L 6.7949219 9.6230469 L 6.7949219 9.65625 L 6.8300781 9.65625 L 6.8300781 9.6914062 L 6.8652344 9.6914062 L 6.8652344 9.7265625 L 6.9023438 9.7265625 L 6.9023438 9.7617188 L 6.9375 9.7617188 L 6.9375 9.7988281 L 6.9765625 9.7988281 L 6.9765625 9.8359375 L 7.0136719 9.8359375 L 7.0136719 9.875 L 7.0527344 9.875 L 7.0527344 9.9140625 L 7.09375 9.9140625 L 7.09375 9.953125 L 7.1328125 9.953125 L 7.1328125 9.9941406 L 7.1738281 9.9941406 L 7.1738281 10.035156 L 7.2167969 10.035156 L 7.2167969 10.076172 L 7.2597656 10.076172 L 7.2597656 10.119141 L 7.3027344 10.119141 L 7.3027344 10.164062 L 7.3476562 10.164062 L 7.3476562 10.207031 L 7.3925781 10.207031 L 7.3925781 10.251953 L 7.4375 10.251953 L 7.4375 10.298828 L 7.484375 10.298828 L 7.484375 10.34375 L 7.53125 10.34375 L 7.53125 10.390625 L 7.578125 10.390625 L 7.578125 10.439453 L 7.6269531 10.439453 L 7.6269531 10.488281 L 7.6777344 10.488281 L 7.6777344 10.537109 L 7.7265625 10.537109 L 7.7265625 10.587891 L 7.7695312 10.587891 L 7.6289062 11.142578 L 5.234375 11.142578 L 5.234375 12.183594 L 5.2363281 12.183594 L 5.2363281 12.185547 L 5.2382812 12.185547 L 5.2382812 12.1875 L 5.2402344 12.1875 L 5.2402344 12.189453 L 5.2441406 12.189453 L 5.2441406 12.193359 L 5.2480469 12.193359 L 5.2480469 12.197266 L 5.2519531 12.197266 L 5.2519531 12.201172 L 5.2578125 12.201172 L 5.2578125 12.207031 L 5.265625 12.207031 L 5.265625 12.212891 L 5.2714844 12.212891 L 5.2714844 12.220703 L 5.2792969 12.220703 L 5.2792969 12.228516 L 5.2890625 12.228516 L 5.2890625 12.236328 L 5.296875 12.236328 L 5.296875 12.246094 L 5.3066406 12.246094 L 5.3066406 12.255859 L 5.3183594 12.255859 L 5.3183594 12.267578 L 5.3300781 12.267578 L 5.3300781 12.279297 L 5.3417969 12.279297 L 5.3417969 12.291016 L 5.3554688 12.291016 L 5.3554688 12.304688 L 5.3691406 12.304688 L 5.3691406 12.318359 L 5.3828125 12.318359 L 5.3828125 12.332031 L 5.3984375 12.332031 L 5.3984375 12.347656 L 5.4140625 12.347656 L 5.4140625 12.363281 L 5.4316406 12.363281 L 5.4316406 12.380859 L 5.4492188 12.380859 L 5.4492188 12.398438 L 5.4667969 12.398438 L 5.4667969 12.416016 L 5.4863281 12.416016 L 5.4863281 12.435547 L 5.5058594 12.435547 L 5.5058594 12.455078 L 5.5253906 12.455078 L 5.5253906 12.474609 L 5.546875 12.474609 L 5.546875 12.496094 L 5.5683594 12.496094 L 5.5683594 12.517578 L 5.5917969 12.517578 L 5.5917969 12.541016 L 5.6152344 12.541016 L 5.6152344 12.564453 L 5.6386719 12.564453 L 5.6386719 12.587891 L 5.6640625 12.587891 L 5.6640625 12.613281 L 5.6894531 12.613281 L 5.6894531 12.638672 L 5.7167969 12.638672 L 5.7167969 12.664062 L 5.7421875 12.664062 L 5.7421875 12.691406 L 5.7714844 12.691406 L 5.7714844 12.720703 L 5.7988281 12.720703 L 5.7988281 12.748047 L 5.828125 12.748047 L 5.828125 12.777344 L 5.859375 12.777344 L 5.859375 12.808594 L 5.8886719 12.808594 L 5.8886719 12.837891 L 5.921875 12.837891 L 5.921875 12.871094 L 5.953125 12.871094 L 5.953125 12.902344 L 5.9863281 12.902344 L 5.9863281 12.935547 L 6.0195312 12.935547 L 6.0195312 12.96875 L 6.0546875 12.96875 L 6.0546875 13.003906 L 6.0898438 13.003906 L 6.0898438 13.039062 L 6.1269531 13.039062 L 6.1269531 13.074219 L 6.1621094 13.074219 L 6.1621094 13.111328 L 6.2011719 13.111328 L 6.2011719 13.148438 L 6.2382812 13.148438 L 6.2382812 13.1875 L 6.2773438 13.1875 L 6.2773438 13.226562 L 6.3164062 13.226562 L 6.3164062 13.265625 L 6.3574219 13.265625 L 6.3574219 13.306641 L 6.3984375 13.306641 L 6.3984375 13.347656 L 6.4414062 13.347656 L 6.4414062 13.390625 L 6.484375 13.390625 L 6.484375 13.433594 L 6.5273438 13.433594 L 6.5273438 13.476562 L 6.5703125 13.476562 L 6.5703125 13.519531 L 6.6152344 13.519531 L 6.6152344 13.564453 L 6.6621094 13.564453 L 6.6621094 13.611328 L 6.7089844 13.611328 L 6.7089844 13.658203 L 6.7558594 13.658203 L 6.7558594 13.705078 L 6.8027344 13.705078 L 6.8027344 13.751953 L 6.8515625 13.751953 L 6.8515625 13.800781 L 6.9003906 13.800781 L 6.9003906 13.849609 L 6.9511719 13.849609 L 6.9511719 13.878906 L 6.6699219 15 L 6.671875 15 L 6.671875 15.001953 L 6.6738281 15.001953 L 6.6738281 15.003906 L 6.6757812 15.003906 L 6.6757812 15.005859 L 6.6816406 15.005859 L 6.6796875 15.009766 L 6.6855469 15.009766 L 6.6835938 15.013672 L 6.6894531 15.013672 L 6.6875 15.017578 L 6.6953125 15.017578 L 6.6933594 15.023438 L 6.7011719 15.023438 L 6.6992188 15.029297 L 6.7089844 15.029297 L 6.7070312 15.037109 L 6.7167969 15.037109 L 6.7148438 15.044922 L 6.7246094 15.044922 L 6.7226562 15.052734 L 6.734375 15.052734 L 6.7324219 15.0625 L 6.7441406 15.0625 L 6.7421875 15.072266 L 6.7578125 15.072266 L 6.7539062 15.083984 L 6.7695312 15.083984 L 6.765625 15.095703 L 6.78125 15.095703 L 6.7773438 15.107422 L 6.7949219 15.107422 L 6.7910156 15.121094 L 6.8085938 15.121094 L 6.8046875 15.134766 L 6.8222656 15.134766 L 6.8183594 15.148438 L 6.8378906 15.148438 L 6.8339844 15.164062 L 6.8535156 15.164062 L 6.8496094 15.179688 L 6.8710938 15.179688 L 6.8671875 15.197266 L 6.8886719 15.197266 L 6.8847656 15.212891 L 6.9082031 15.212891 L 6.9023438 15.232422 L 6.9277344 15.232422 L 6.921875 15.251953 L 6.9472656 15.251953 L 6.9414062 15.271484 L 6.9667969 15.271484 L 6.9609375 15.291016 L 6.9882812 15.291016 L 6.9824219 15.3125 L 7.0097656 15.3125 L 7.0039062 15.333984 L 7.0332031 15.333984 L 7.0273438 15.357422 L 7.0566406 15.357422 L 7.0507812 15.380859 L 7.0800781 15.380859 L 7.0742188 15.404297 L 7.1054688 15.404297 L 7.0996094 15.429688 L 7.1308594 15.429688 L 7.125 15.455078 L 7.15625 15.455078 L 7.1503906 15.480469 L 7.1855469 15.480469 L 7.1777344 15.507812 L 7.2148438 15.507812 L 7.2070312 15.535156 L 7.2421875 15.535156 L 7.234375 15.564453 L 7.2714844 15.564453 L 7.2636719 15.59375 L 7.3027344 15.59375 L 7.2949219 15.625 L 7.3320312 15.625 L 7.3242188 15.654297 L 7.3652344 15.654297 L 7.3574219 15.685547 L 7.3964844 15.685547 L 7.3886719 15.71875 L 7.4296875 15.71875 L 7.421875 15.751953 L 7.4628906 15.751953 L 7.4550781 15.785156 L 7.5 15.785156 L 7.4902344 15.820312 L 7.5351562 15.820312 L 7.5253906 15.855469 L 7.5703125 15.855469 L 7.5605469 15.890625 L 7.6074219 15.890625 L 7.5976562 15.927734 L 7.6445312 15.927734 L 7.6347656 15.964844 L 7.6835938 15.964844 L 7.6738281 16.003906 L 7.7226562 16.003906 L 7.7128906 16.042969 L 7.7617188 16.042969 L 7.7519531 16.082031 L 7.8027344 16.082031 L 7.7929688 16.123047 L 7.84375 16.123047 L 7.8339844 16.164062 L 7.8886719 16.164062 L 7.8769531 16.207031 L 7.9296875 16.207031 L 7.9199219 16.248047 L 7.9746094 16.248047 L 7.9628906 16.292969 L 8.0175781 16.292969 L 8.0058594 16.335938 L 8.0625 16.335938 L 8.0507812 16.380859 L 8.109375 16.380859 L 8.0976562 16.427734 L 8.15625 16.427734 L 8.1445312 16.472656 L 8.203125 16.472656 L 8.1914062 16.521484 L 8.25 16.521484 L 8.2382812 16.568359 L 8.2988281 16.568359 L 8.2871094 16.617188 L 8.3476562 16.617188 L 8.3359375 16.666016 L 8.4003906 16.666016 L 8.3867188 16.716797 L 8.4511719 16.716797 L 8.4375 16.767578 L 8.5039062 16.767578 L 8.4902344 16.818359 L 8.5546875 16.818359 L 8.5410156 16.871094 L 8.609375 16.871094 L 8.5957031 16.923828 L 8.6621094 16.923828 L 8.6484375 16.978516 L 8.7167969 16.978516 L 8.703125 17.033203 L 8.7714844 17.033203 L 8.7578125 17.087891 L 8.828125 17.087891 L 8.8144531 17.144531 L 8.8847656 17.144531 L 8.8710938 17.201172 L 8.9453125 17.201172 L 8.9296875 17.259766 L 9 17.259766 L 8.9863281 17.316406 L 9.0625 17.316406 L 9.046875 17.376953 L 9.1210938 17.376953 L 9.1054688 17.435547 L 9.1816406 17.435547 L 9.1660156 17.496094 L 9.2441406 17.496094 L 9.2285156 17.558594 L 9.3046875 17.558594 L 9.2890625 17.619141 L 9.3671875 17.619141 L 9.3515625 17.681641 L 9.4316406 17.681641 L 9.4160156 17.746094 L 9.4960938 17.746094 L 9.4804688 17.810547 L 9.5605469 17.810547 L 9.5449219 17.875 L 9.6289062 17.875 L 9.6113281 17.941406 L 9.6953125 17.941406 L 9.6777344 18.007812 L 9.7617188 18.007812 L 9.7441406 18.074219 L 9.8300781 18.074219 L 9.8125 18.142578 L 9.8984375 18.142578 L 9.8808594 18.210938 L 9.96875 18.210938 L 9.9511719 18.28125 L 10.039062 18.28125 L 10.021484 18.351562 L 10.109375 18.351562 L 10.091797 18.421875 L 10.181641 18.421875 L 10.164062 18.494141 L 10.253906 18.494141 L 10.236328 18.566406 L 10.326172 18.566406 L 10.308594 18.638672 L 10.402344 18.638672 L 10.382812 18.712891 L 10.476562 18.712891 L 10.457031 18.787109 L 10.552734 18.787109 L 10.533203 18.863281 L 10.628906 18.863281 L 10.609375 18.939453 L 10.705078 18.939453 L 10.685547 19.015625 L 10.783203 19.015625 L 10.763672 19.09375 L 10.861328 19.09375 L 10.841797 19.171875 L 10.939453 19.171875 L 10.919922 19.25 L 11.019531 19.25 L 11 19.330078 L 11.103516 19.330078 L 11.082031 19.412109 L 11.181641 19.412109 L 11.162109 19.492188 L 11.265625 19.492188 L 11.244141 19.574219 L 11.349609 19.574219 L 11.328125 19.658203 L 11.431641 19.658203 L 11.410156 19.740234 L 11.517578 19.740234 L 11.496094 19.824219 L 11.601562 19.824219 L 11.580078 19.910156 L 11.6875 19.910156 L 11.666016 19.996094 L 11.773438 19.996094 L 11.751953 20.082031 L 11.861328 20.082031 L 11.839844 20.169922 L 11.949219 20.169922 L 11.927734 20.257812 L 12.037109 20.257812 L 12.015625 20.345703 L 12.128906 20.345703 L 12.105469 20.435547 L 12.21875 20.435547 L 12.195312 20.525391 L 12.310547 20.525391 L 12.287109 20.617188 L 12.402344 20.617188 L 12.378906 20.708984 L 12.494141 20.708984 L 12.470703 20.800781 L 12.587891 20.800781 L 12.564453 20.894531 L 12.681641 20.894531 L 12.658203 20.988281 L 12.777344 20.988281 L 12.753906 21.083984 L 12.871094 21.083984 L 12.847656 21.177734 L 12.970703 21.177734 L 12.945312 21.275391 L 13.064453 21.275391 L 13.041016 21.371094 L 13.164062 21.371094 L 13.138672 21.46875 L 13.263672 21.46875 L 13.238281 21.568359 L 13.361328 21.568359 L 13.335938 21.666016 L 13.462891 21.666016 L 13.4375 21.765625 L 13.5625 21.765625 L 13.537109 21.867188 L 13.664062 21.867188 L 13.638672 21.96875 L 13.765625 21.96875 L 13.740234 22.070312 L 13.869141 22.070312 L 13.84375 22.173828 L 13.972656 22.173828 L 13.947266 22.277344 L 14.076172 22.277344 L 14.050781 22.380859 L 14.183594 22.380859 L 14.15625 22.486328 L 14.289062 22.486328 L 14.261719 22.591797 L 14.396484 22.591797 L 14.369141 22.699219 L 14.503906 22.699219 L 14.476562 22.806641 L 14.611328 22.806641 L 14.583984 22.914062 L 14.720703 22.914062 L 14.693359 23.023438 L 14.830078 23.023438 L 14.802734 23.132812 L 14.939453 23.132812 L 14.912109 23.242188 L 15.050781 23.242188 L 15.023438 23.353516 L 15.162109 23.353516 L 15.134766 23.464844 L 15.277344 23.464844 L 15.248047 23.578125 L 15.390625 23.578125 L 15.361328 23.691406 L 15.503906 23.691406 L 15.474609 23.804688 L 15.619141 23.804688 L 15.589844 23.919922 L 15.734375 23.919922 L 15.705078 24.035156 L 15.851562 24.035156 L 15.822266 24.152344 L 15.96875 24.152344 L 15.939453 24.269531 L 16.085938 24.269531 L 16.056641 24.386719 L 16.203125 24.386719 L 16.173828 24.503906 L 16.322266 24.503906 L 16.292969 24.623047 L 16.445312 24.623047 L 16.414062 24.744141 L 16.566406 24.744141 L 16.535156 24.865234 L 16.6875 24.865234 L 16.65625 24.986328 L 16.808594 24.986328 L 16.777344 25.107422 L 16.931641 25.107422 L 16.900391 25.230469 L 17.056641 25.230469 L 17.025391 25.355469 L 17.179688 25.355469 L 17.148438 25.478516 L 17.304688 25.478516 L 17.273438 25.603516 L 17.431641 25.603516 L 17.400391 25.730469 L 17.558594 25.730469 L 17.527344 25.857422 L 17.685547 25.857422 L 17.654297 25.984375 L 17.8125 25.984375 L 17.78125 26.111328 L 17.943359 26.111328 L 17.910156 26.240234 L 18.074219 26.240234 L 18.041016 26.371094 L 18.203125 26.371094 L 18.169922 26.5 L 18.335938 26.5 L 18.302734 26.630859 L 18.466797 26.630859 L 18.433594 26.763672 L 18.599609 26.763672 L 18.566406 26.896484 L 18.732422 26.896484 L 18.699219 27.029297 L 18.867188 27.029297 L 18.833984 27.164062 L 19.001953 27.164062 L 18.96875 27.298828 L 19.136719 27.298828 L 19.103516 27.433594 L 19.275391 27.433594 L 19.240234 27.570312 L 19.412109 27.570312 L 19.376953 27.707031 L 19.550781 27.707031 L 19.515625 27.845703 L 19.6875 27.845703 L 19.652344 27.982422 L 19.828125 27.982422 L 19.792969 28.123047 L 19.966797 28.123047 L 19.931641 28.261719 L 20.107422 28.261719 L 20.072266 28.402344 L 20.25 28.402344 L 20.214844 28.544922 L 20.392578 28.544922 L 20.357422 28.6875 L 20.535156 28.6875 L 20.5 28.830078 L 20.677734 28.830078 L 20.642578 28.972656 L 20.824219 28.972656 L 20.787109 29.117188 L 20.970703 29.117188 L 20.933594 29.263672 L 21.115234 29.263672 L 21.078125 29.408203 L 21.263672 29.408203 L 21.226562 29.554688 L 21.410156 29.554688 L 21.373047 29.703125 L 21.558594 29.703125 L 21.521484 29.851562 L 22.617188 29.851562 L 23.046875 28.123047 L 23.056641 28.123047 L 23.021484 28.261719 L 23.197266 28.261719 L 23.162109 28.402344 L 23.337891 28.402344 L 23.302734 28.544922 L 23.480469 28.544922 L 23.445312 28.6875 L 23.623047 28.6875 L 23.587891 28.830078 L 23.767578 28.830078 L 23.732422 28.972656 L 23.912109 28.972656 L 23.876953 29.117188 L 24.058594 29.117188 L 24.021484 29.263672 L 24.203125 29.263672 L 24.167969 29.408203 L 24.351562 29.408203 L 24.314453 29.554688 L 24.498047 29.554688 L 24.460938 29.703125 L 24.646484 29.703125 L 24.609375 29.851562 L 25.697266 29.851562 L 26.40625 27.035156 L 28.833984 27.035156 L 28.833984 25.994141 L 28.685547 25.994141 L 28.685547 25.845703 L 28.539062 25.845703 L 28.539062 25.699219 L 28.392578 25.699219 L 28.392578 25.552734 L 28.246094 25.552734 L 28.246094 25.40625 L 28.101562 25.40625 L 28.101562 25.259766 L 27.957031 25.259766 L 27.957031 25.117188 L 27.8125 25.117188 L 27.8125 24.972656 L 27.669922 24.972656 L 27.669922 24.830078 L 27.527344 24.830078 L 27.527344 24.6875 L 27.386719 24.6875 L 27.386719 24.546875 L 27.246094 24.546875 L 27.246094 24.40625 L 27.105469 24.40625 L 27.105469 24.265625 L 27.095703 24.265625 L 27.228516 23.722656 L 29.617188 23.722656 L 29.617188 22.673828 L 29.46875 22.673828 L 29.46875 22.525391 L 29.320312 22.525391 L 29.320312 22.378906 L 29.173828 22.378906 L 29.173828 22.232422 L 29.027344 22.232422 L 29.027344 22.085938 L 28.882812 22.085938 L 28.882812 21.941406 L 28.738281 21.941406 L 28.738281 21.796875 L 28.595703 21.796875 L 28.595703 21.652344 L 28.451172 21.652344 L 28.451172 21.509766 L 28.310547 21.509766 L 28.310547 21.367188 L 28.167969 21.367188 L 28.167969 21.226562 L 28.027344 21.226562 L 28.027344 21.085938 L 27.888672 21.085938 L 28.195312 19.851562 L 28.009766 19.851562 L 28.046875 19.703125 L 27.861328 19.703125 L 27.898438 19.554688 L 27.714844 19.554688 L 27.751953 19.408203 L 27.572266 19.408203 L 27.607422 19.263672 L 27.423828 19.263672 L 27.460938 19.117188 L 27.28125 19.117188 L 27.316406 18.972656 L 27.138672 18.972656 L 27.173828 18.830078 L 26.996094 18.830078 L 27.03125 18.6875 L 26.853516 18.6875 L 26.888672 18.544922 L 26.710938 18.544922 L 26.746094 18.402344 L 26.570312 18.402344 L 26.605469 18.261719 L 26.431641 18.261719 L 26.466797 18.123047 L 26.291016 18.123047 L 26.326172 17.982422 L 26.154297 17.982422 L 26.1875 17.845703 L 26.015625 17.845703 L 26.050781 17.707031 L 25.880859 17.707031 L 25.914062 17.570312 L 25.744141 17.570312 L 25.777344 17.433594 L 25.609375 17.433594 L 25.642578 17.298828 L 25.474609 17.298828 L 25.507812 17.164062 L 25.339844 17.164062 L 25.373047 17.029297 L 25.207031 17.029297 L 25.240234 16.896484 L 25.074219 16.896484 L 25.107422 16.763672 L 24.941406 16.763672 L 24.974609 16.630859 L 24.810547 16.630859 L 24.84375 16.5 L 24.683594 16.5 L 24.714844 16.371094 L 24.550781 16.371094 L 24.583984 16.240234 L 24.423828 16.240234 L 24.455078 16.111328 L 24.296875 16.111328 L 24.328125 15.984375 L 24.167969 15.984375 L 24.199219 15.857422 L 24.042969 15.857422 L 24.074219 15.730469 L 23.916016 15.730469 L 23.947266 15.603516 L 23.791016 15.603516 L 23.822266 15.478516 L 23.666016 15.478516 L 23.697266 15.355469 L 23.542969 15.355469 L 23.574219 15.230469 L 23.419922 15.230469 L 23.451172 15.107422 L 23.300781 15.107422 L 23.330078 14.986328 L 23.177734 14.986328 L 23.207031 14.865234 L 23.058594 14.865234 L 23.087891 14.744141 L 22.9375 14.744141 L 22.966797 14.623047 L 22.818359 14.623047 L 22.847656 14.503906 L 22.701172 14.503906 L 22.730469 14.386719 L 22.582031 14.386719 L 22.611328 14.269531 L 22.466797 14.269531 L 22.496094 14.152344 L 22.349609 14.152344 L 22.378906 14.035156 L 22.234375 14.035156 L 22.263672 13.919922 L 22.119141 13.919922 L 22.148438 13.804688 L 22.007812 13.804688 L 22.035156 13.691406 L 21.894531 13.691406 L 21.921875 13.578125 L 21.78125 13.578125 L 21.808594 13.464844 L 21.669922 13.464844 L 21.697266 13.353516 L 21.558594 13.353516 L 21.585938 13.242188 L 21.449219 13.242188 L 21.476562 13.132812 L 21.339844 13.132812 L 21.367188 13.023438 L 21.230469 13.023438 L 21.257812 12.914062 L 21.123047 12.914062 L 21.150391 12.806641 L 21.015625 12.806641 L 21.042969 12.699219 L 20.908203 12.699219 L 20.935547 12.591797 L 20.804688 12.591797 L 20.830078 12.486328 L 20.699219 12.486328 L 20.724609 12.380859 L 20.595703 12.380859 L 20.621094 12.277344 L 20.492188 12.277344 L 20.517578 12.173828 L 20.388672 12.173828 L 20.414062 12.070312 L 20.287109 12.070312 L 20.3125 11.96875 L 20.185547 11.96875 L 20.210938 11.867188 L 20.083984 11.867188 L 20.109375 11.765625 L 19.984375 11.765625 L 20.009766 11.666016 L 19.886719 11.666016 L 19.910156 11.568359 L 19.787109 11.568359 L 19.8125 11.46875 L 19.691406 11.46875 L 19.714844 11.371094 L 19.59375 11.371094 L 19.617188 11.275391 L 19.498047 11.275391 L 19.521484 11.177734 L 19.402344 11.177734 L 19.425781 11.083984 L 19.308594 11.083984 L 19.332031 10.988281 L 19.214844 10.988281 L 19.238281 10.894531 L 19.121094 10.894531 L 19.144531 10.800781 L 19.029297 10.800781 L 19.052734 10.708984 L 18.9375 10.708984 L 18.960938 10.617188 L 18.845703 10.617188 L 18.869141 10.525391 L 18.757812 10.525391 L 18.779297 10.435547 L 18.667969 10.435547 L 18.689453 10.345703 L 18.580078 10.345703 L 18.601562 10.257812 L 18.492188 10.257812 L 18.513672 10.169922 L 18.404297 10.169922 L 18.425781 10.082031 L 18.318359 10.082031 L 18.339844 9.9960938 L 18.232422 9.9960938 L 18.253906 9.9101562 L 18.146484 9.9101562 L 18.167969 9.8242188 L 18.0625 9.8242188 L 18.083984 9.7402344 L 17.980469 9.7402344 L 18 9.6582031 L 17.896484 9.6582031 L 17.917969 9.5742188 L 17.816406 9.5742188 L 17.835938 9.4921875 L 17.734375 9.4921875 L 17.753906 9.4121094 L 17.654297 9.4121094 L 17.673828 9.3300781 L 17.574219 9.3300781 L 17.59375 9.25 L 17.496094 9.25 L 17.515625 9.171875 L 17.417969 9.171875 L 17.4375 9.09375 L 17.339844 9.09375 L 17.359375 9.015625 L 17.263672 9.015625 L 17.283203 8.9394531 L 17.1875 8.9394531 L 17.207031 8.8632812 L 17.111328 8.8632812 L 17.130859 8.7871094 L 17.039062 8.7871094 L 17.056641 8.7128906 L 16.964844 8.7128906 L 16.982422 8.6386719 L 16.892578 8.6386719 L 16.910156 8.5664062 L 16.818359 8.5664062 L 16.835938 8.4941406 L 16.748047 8.4941406 L 16.765625 8.421875 L 16.675781 8.421875 L 16.693359 8.3515625 L 16.607422 8.3515625 L 16.625 8.28125 L 16.537109 8.28125 L 16.554688 8.2109375 L 16.46875 8.2109375 L 16.486328 8.1425781 L 16.400391 8.1425781 L 16.417969 8.0742188 L 16.335938 8.0742188 L 16.351562 8.0078125 L 16.269531 8.0078125 L 16.285156 7.9414062 L 16.203125 7.9414062 L 16.21875 7.875 L 16.138672 7.875 L 16.154297 7.8105469 L 16.074219 7.8105469 L 16.089844 7.7460938 L 16.009766 7.7460938 L 16.025391 7.6816406 L 15.947266 7.6816406 L 15.962891 7.6191406 L 15.884766 7.6191406 L 15.900391 7.5585938 L 15.824219 7.5585938 L 15.839844 7.4960938 L 15.763672 7.4960938 L 15.779297 7.4355469 L 15.705078 7.4355469 L 15.71875 7.3769531 L 15.644531 7.3769531 L 15.660156 7.3164062 L 15.587891 7.3164062 L 15.601562 7.2597656 L 15.53125 7.2597656 L 15.544922 7.2011719 L 15.474609 7.2011719 L 15.488281 7.1445312 L 15.417969 7.1445312 L 15.431641 7.0878906 L 15.363281 7.0878906 L 15.376953 7.0332031 L 15.308594 7.0332031 L 15.322266 6.9785156 L 15.253906 6.9785156 L 15.267578 6.9238281 L 15.201172 6.9238281 L 15.214844 6.8710938 L 15.148438 6.8710938 L 15.162109 6.8183594 L 15.099609 6.8183594 L 15.111328 6.7675781 L 15.048828 6.7675781 L 15.060547 6.7167969 L 14.998047 6.7167969 L 15.009766 6.6660156 L 14.949219 6.6660156 L 14.960938 6.6171875 L 14.900391 6.6171875 L 14.912109 6.5683594 L 14.853516 6.5683594 L 14.865234 6.5214844 L 14.804688 6.5214844 L 14.816406 6.4726562 L 14.759766 6.4726562 L 14.771484 6.4277344 L 14.712891 6.4277344 L 14.724609 6.3808594 L 14.667969 6.3808594 L 14.679688 6.3359375 L 14.626953 6.3359375 L 14.636719 6.2929688 L 14.580078 6.2929688 L 14.591797 6.2480469 L 14.539062 6.2480469 L 14.548828 6.2070312 L 14.498047 6.2070312 L 14.507812 6.1640625 L 14.457031 6.1640625 L 14.466797 6.1230469 L 14.416016 6.1230469 L 14.425781 6.0820312 L 14.376953 6.0820312 L 14.386719 6.0429688 L 14.337891 6.0429688 L 14.347656 6.0039062 L 14.298828 6.0039062 L 14.308594 5.9648438 L 14.261719 5.9648438 L 14.271484 5.9277344 L 14.224609 5.9277344 L 14.234375 5.890625 L 14.191406 5.890625 L 14.199219 5.8554688 L 14.15625 5.8554688 L 14.164062 5.8203125 L 14.121094 5.8203125 L 14.128906 5.7851562 L 14.087891 5.7851562 L 14.095703 5.7519531 L 14.054688 5.7519531 L 14.0625 5.71875 L 14.021484 5.71875 L 14.029297 5.6855469 L 13.990234 5.6855469 L 13.998047 5.6542969 L 13.958984 5.6542969 L 13.966797 5.625 L 13.929688 5.625 L 13.9375 5.59375 L 13.900391 5.59375 L 13.908203 5.5644531 L 13.871094 5.5644531 L 13.878906 5.5351562 L 13.845703 5.5351562 L 13.851562 5.5078125 L 13.818359 5.5078125 L 13.824219 5.4804688 L 13.792969 5.4804688 L 13.798828 5.4550781 L 13.767578 5.4550781 L 13.773438 5.4296875 L 13.742188 5.4296875 L 13.748047 5.4042969 L 13.71875 5.4042969 L 13.724609 5.3808594 L 13.695312 5.3808594 L 13.701172 5.3574219 L 13.671875 5.3574219 L 13.677734 5.3339844 L 13.650391 5.3339844 L 13.65625 5.3125 L 13.628906 5.3125 L 13.634766 5.2910156 L 13.609375 5.2910156 L 13.613281 5.2714844 L 13.589844 5.2714844 L 13.59375 5.2519531 L 13.572266 5.2519531 L 13.576172 5.2324219 L 13.552734 5.2324219 L 13.556641 5.2128906 L 13.535156 5.2128906 L 13.539062 5.1972656 L 13.519531 5.1972656 L 13.523438 5.1796875 L 13.503906 5.1796875 L 13.507812 5.1640625 L 13.488281 5.1640625 L 13.492188 5.1484375 L 13.474609 5.1484375 L 13.478516 5.1347656 L 13.458984 5.1347656 L 13.462891 5.1210938 L 13.447266 5.1210938 L 13.451172 5.1074219 L 13.4375 5.1074219 L 13.439453 5.0957031 L 13.425781 5.0957031 L 13.427734 5.0839844 L 13.414062 5.0839844 L 13.416016 5.0722656 L 13.404297 5.0722656 L 13.40625 5.0625 L 13.394531 5.0625 L 13.396484 5.0527344 L 13.386719 5.0527344 L 13.388672 5.0449219 L 13.378906 5.0449219 L 13.380859 5.0371094 L 13.371094 5.0371094 L 13.373047 5.0292969 L 13.365234 5.0292969 L 13.367188 5.0234375 L 13.359375 5.0234375 L 13.361328 5.0175781 L 13.357422 5.0175781 L 13.357422 5.0136719 L 13.353516 5.0136719 L 13.353516 5.0097656 L 13.349609 5.0097656 L 13.349609 5.0058594 L 13.347656 5.0058594 L 13.347656 5.0039062 L 13.345703 5.0039062 L 13.345703 5.0019531 L 13.34375 5.0019531 L 13.34375 5 L 12.255859 5 L 12.255859 5.0019531 L 11.845703 6.6171875 L 11.818359 6.6171875 L 11.830078 6.5683594 L 11.771484 6.5683594 L 11.783203 6.5214844 L 11.724609 6.5214844 L 11.736328 6.4726562 L 11.677734 6.4726562 L 11.689453 6.4277344 L 11.630859 6.4277344 L 11.642578 6.3808594 L 11.585938 6.3808594 L 11.597656 6.3359375 L 11.542969 6.3359375 L 11.554688 6.2929688 L 11.5 6.2929688 L 11.511719 6.2480469 L 11.458984 6.2480469 L 11.46875 6.2070312 L 11.414062 6.2070312 L 11.425781 6.1640625 L 11.375 6.1640625 L 11.384766 6.1230469 L 11.333984 6.1230469 L 11.34375 6.0820312 L 11.294922 6.0820312 L 11.304688 6.0429688 L 11.255859 6.0429688 L 11.265625 6.0039062 L 11.21875 6.0039062 L 11.228516 5.9648438 L 11.179688 5.9648438 L 11.189453 5.9277344 L 11.144531 5.9277344 L 11.154297 5.890625 L 11.107422 5.890625 L 11.117188 5.8554688 L 11.072266 5.8554688 L 11.082031 5.8203125 L 11.037109 5.8203125 L 11.046875 5.7851562 L 11.005859 5.7851562 L 11.013672 5.7519531 L 10.972656 5.7519531 L 10.980469 5.71875 L 10.941406 5.71875 L 10.949219 5.6855469 L 10.908203 5.6855469 L 10.916016 5.6542969 L 10.878906 5.6542969 L 10.886719 5.625 L 10.847656 5.625 L 10.855469 5.59375 L 10.818359 5.59375 L 10.826172 5.5644531 L 10.791016 5.5644531 L 10.798828 5.5351562 L 10.761719 5.5351562 L 10.769531 5.5078125 L 10.734375 5.5078125 L 10.742188 5.4804688 L 10.710938 5.4804688 L 10.716797 5.4550781 L 10.685547 5.4550781 L 10.691406 5.4296875 L 10.660156 5.4296875 L 10.666016 5.4042969 L 10.636719 5.4042969 L 10.642578 5.3808594 L 10.613281 5.3808594 L 10.619141 5.3574219 L 10.589844 5.3574219 L 10.595703 5.3339844 L 10.568359 5.3339844 L 10.574219 5.3125 L 10.546875 5.3125 L 10.552734 5.2910156 L 10.527344 5.2910156 L 10.533203 5.2714844 L 10.507812 5.2714844 L 10.513672 5.2519531 L 10.488281 5.2519531 L 10.494141 5.2324219 L 10.470703 5.2324219 L 10.476562 5.2128906 L 10.455078 5.2128906 L 10.458984 5.1972656 L 10.4375 5.1972656 L 10.441406 5.1796875 L 10.421875 5.1796875 L 10.425781 5.1640625 L 10.40625 5.1640625 L 10.410156 5.1484375 L 10.392578 5.1484375 L 10.396484 5.1347656 L 10.378906 5.1347656 L 10.382812 5.1210938 L 10.365234 5.1210938 L 10.369141 5.1074219 L 10.353516 5.1074219 L 10.357422 5.0957031 L 10.341797 5.0957031 L 10.345703 5.0839844 L 10.330078 5.0839844 L 10.333984 5.0722656 L 10.322266 5.0722656 L 10.324219 5.0625 L 10.3125 5.0625 L 10.314453 5.0527344 L 10.304688 5.0527344 L 10.306641 5.0449219 L 10.296875 5.0449219 L 10.298828 5.0371094 L 10.289062 5.0371094 L 10.291016 5.0292969 L 10.283203 5.0292969 L 10.285156 5.0234375 L 10.277344 5.0234375 L 10.279297 5.0175781 L 10.273438 5.0175781 L 10.275391 5.0136719 L 10.269531 5.0136719 L 10.271484 5.0097656 L 10.265625 5.0097656 L 10.267578 5.0058594 L 10.265625 5.0058594 L 10.265625 5.0039062 L 10.263672 5.0039062 L 10.263672 5.0019531 L 10.261719 5.0019531 L 10.261719 5 L 9.1601562 5 z "
       id="path8172"
       clip-path="url(#clipPath9021)" />
    <path
       style="fill:none"
       inkscape:connector-curvature="0"
       id="path4"
       d="m 3.9999777,4.0333382 12.0000003,0 0,11.9333328 -12.0000003,0 z" />
    <path
       d="m 18.999978,19.033339 12,0 0,11.933333 -12,0 z"
       id="path9754"
       inkscape:connector-curvature="0"
       style="fill:none" />
    <path
       d="m 11.282291,8.8707532 -1.9795919,0 -0.5714286,2.2721088 1.9931975,0 0.557823,-2.2721088 z M 10.261883,5.000005 9.5543997,7.8231342 l 1.9863943,0 0.714286,-2.8231292 1.088435,0 -0.70068,2.8231292 2.122449,0 0,1.047619 -2.387755,0 -0.557823,2.2721088 2.163265,0 0,1.040816 -2.428571,0 -0.707483,2.816327 -1.0884356,0 0.7006806,-2.816327 -1.9931976,0 -0.7006803,2.816327 -1.0952381,0 0.707483,-2.816327 -2.1428571,0 0,-1.040816 2.3945578,0 0.5714286,-2.2721088 -2.1904762,0 0,-1.047619 2.4557823,0 0.6938775,-2.8231292 1.1020411,0 z"
       style="font-style:normal;font-weight:normal;font-size:medium;line-height:125%;font-family:sans-serif;letter-spacing:0px;word-spacing:0px;fill:#f5f5f5;fill-opacity:1;stroke:none;stroke-width:1px;stroke-linecap:butt;stroke-linejoin:miter;stroke-opacity:1;image-rendering:auto"
       id="path8124"
       inkscape:connector-curvature="0" />
  </g>
</svg>
