<?xml version="1.0" encoding="UTF-8" standalone="no"?>
<!-- Created with Inkscape (http://www.inkscape.org/) -->

<svg
   xmlns:dc="http://purl.org/dc/elements/1.1/"
   xmlns:cc="http://creativecommons.org/ns#"
   xmlns:rdf="http://www.w3.org/1999/02/22-rdf-syntax-ns#"
   xmlns:svg="http://www.w3.org/2000/svg"
   xmlns="http://www.w3.org/2000/svg"
   xmlns:xlink="http://www.w3.org/1999/xlink"
   xmlns:sodipodi="http://sodipodi.sourceforge.net/DTD/sodipodi-0.dtd"
   xmlns:inkscape="http://www.inkscape.org/namespaces/inkscape"
   width="5.6444445mm"
   height="5.6444445mm"
   viewBox="0 0 20 20"
   id="svg2"
   version="1.1"
   inkscape:version="0.91 r13725"
   sodipodi:docname="Sword.svg"
   inkscape:export-filename="/home/juergen/Projekte/Android/Android_Studio/Baumann_Theme/theme/src/main/assets/icons/res/drawable-xxhdpi/a124.png"
   inkscape:export-xdpi="648"
   inkscape:export-ydpi="648">
  <sodipodi:namedview
     id="base"
     pagecolor="#ffffff"
     bordercolor="#666666"
     borderopacity="1.0"
     inkscape:pageopacity="0.0"
     inkscape:pageshadow="2"
     inkscape:zoom="22.627417"
     inkscape:cx="15.291251"
     inkscape:cy="7.8525743"
     inkscape:document-units="px"
     inkscape:current-layer="layer1"
     showgrid="false"
     fit-margin-top="0"
     fit-margin-left="0"
     fit-margin-right="0"
     fit-margin-bottom="0"
     showguides="true"
     inkscape:guide-bbox="true"
     inkscape:window-width="1366"
     inkscape:window-height="744"
     inkscape:window-x="0"
     inkscape:window-y="24"
     inkscape:window-maximized="1"
     inkscape:snap-grids="false"
     inkscape:snap-to-guides="false">
    <inkscape:grid
       id="grid4138"
       type="xygrid" />
    <sodipodi:guide
       id="guide4140"
       orientation="0,1"
       position="10,18" />
    <sodipodi:guide
       id="guide4142"
       orientation="0,1"
       position="10,2" />
    <sodipodi:guide
       id="guide4144"
       orientation="1,0"
       position="2,10" />
    <sodipodi:guide
       id="guide4146"
       orientation="0,20"
       position="0,0" />
    <sodipodi:guide
       id="guide4148"
       orientation="-20,0"
       position="20,0" />
    <sodipodi:guide
       id="guide4150"
       orientation="0,-20"
       position="20,20" />
    <sodipodi:guide
       id="guide4152"
       orientation="20,0"
       position="0,20" />
    <sodipodi:guide
       id="guide4154"
       orientation="1,0"
       position="18,10" />
    <sodipodi:guide
       id="guide4156"
       orientation="-0.70710678,0.70710678"
       position="10,10" />
    <sodipodi:guide
       id="guide4160"
       orientation="1,0"
       position="4,10" />
    <sodipodi:guide
       id="guide4162"
       orientation="1,0"
       position="16,10" />
    <sodipodi:guide
       id="guide4164"
       orientation="0,1"
       position="10,16" />
    <sodipodi:guide
       id="guide4166"
       orientation="0,1"
       position="10,4" />
    <sodipodi:guide
       id="guide4168"
       orientation="0,1"
       position="10,15" />
    <sodipodi:guide
       id="guide4170"
       orientation="0,1"
       position="10,5" />
    <sodipodi:guide
       id="guide4172"
       orientation="1,0"
       position="5,10" />
    <sodipodi:guide
       id="guide4174"
       orientation="1,0"
       position="15,10" />
  </sodipodi:namedview>
  <defs
     id="defs4">
    <linearGradient
       inkscape:collect="always"
       id="linearGradient11916">
      <stop
         style="stop-color:#000000;stop-opacity:0.2"
         offset="0"
         id="stop11918" />
      <stop
         style="stop-color:#000000;stop-opacity:0;"
         offset="1"
         id="stop11920" />
    </linearGradient>
    <clipPath
       clipPathUnits="userSpaceOnUse"
       id="clipPath12478">
      <circle
         style="opacity:1;fill:#2196f3;fill-opacity:1;stroke:none;stroke-width:0.05069799;stroke-miterlimit:4;stroke-dasharray:none;stroke-opacity:1"
         id="circle12480"
         cx="9.9999781"
         cy="10.000005"
         r="10" />
    </clipPath>
    <clipPath
       id="clipPath5790"
       clipPathUnits="userSpaceOnUse">
      <circle
         inkscape:export-ydpi="648"
         inkscape:export-xdpi="648"
         inkscape:export-filename="/home/juergen/path4136.png"
         style="opacity:1;fill:#2196f3;fill-opacity:1;stroke:none;stroke-width:0.05069799;stroke-miterlimit:4;stroke-dasharray:none;stroke-opacity:1"
         id="circle5792"
         cx="9.9999781"
         cy="10.000005"
         r="10" />
    </clipPath>
    <clipPath
       clipPathUnits="userSpaceOnUse"
       id="clipPath5055">
      <circle
         inkscape:export-ydpi="648"
         inkscape:export-xdpi="648"
         inkscape:export-filename="/home/juergen/path4136.png"
         style="opacity:1;fill:#2196f3;fill-opacity:1;stroke:none;stroke-width:0.05069799;stroke-miterlimit:4;stroke-dasharray:none;stroke-opacity:1"
         id="circle5057"
         cx="9.9999781"
         cy="10.000005"
         r="10" />
    </clipPath>
    <clipPath
       id="clipPath5119"
       clipPathUnits="userSpaceOnUse">
      <circle
         inkscape:export-ydpi="648"
         inkscape:export-xdpi="648"
         inkscape:export-filename="/home/juergen/Schreibtisch/path4136.png"
         style="opacity:1;fill:#2196f3;fill-opacity:1;stroke:none;stroke-width:0.05069799;stroke-miterlimit:4;stroke-dasharray:none;stroke-opacity:1"
         id="circle5121"
         cx="9.9999781"
         cy="10.000005"
         r="10" />
    </clipPath>
    <clipPath
       clipPathUnits="userSpaceOnUse"
       id="clipPath5194">
      <circle
         inkscape:export-ydpi="648"
         inkscape:export-xdpi="648"
         inkscape:export-filename="/home/juergen/Schreibtisch/path4136.png"
         style="opacity:1;fill:#cddc39;fill-opacity:1;stroke:none;stroke-width:0.05069799;stroke-miterlimit:4;stroke-dasharray:none;stroke-opacity:1"
         id="circle5196"
         cx="9.9999781"
         cy="10.000005"
         r="10" />
    </clipPath>
    <clipPath
       id="clipPath6175"
       clipPathUnits="userSpaceOnUse">
      <circle
         inkscape:export-ydpi="648"
         inkscape:export-xdpi="648"
         inkscape:export-filename="/home/juergen/Schreibtisch/path4136.png"
         style="opacity:1;fill:#f44336;fill-opacity:1;stroke:none;stroke-width:0.05069799;stroke-miterlimit:4;stroke-dasharray:none;stroke-opacity:1"
         id="circle6177"
         cx="9.9999781"
         cy="10.000005"
         r="10" />
    </clipPath>
    <clipPath
       clipPathUnits="userSpaceOnUse"
       id="clipPath7176">
      <circle
         inkscape:export-ydpi="648"
         inkscape:export-xdpi="648"
         inkscape:export-filename="/home/juergen/Schreibtisch/path4136.png"
         style="opacity:1;fill:#9c27b0;fill-opacity:1;stroke:none;stroke-width:0.05069799;stroke-miterlimit:4;stroke-dasharray:none;stroke-opacity:1"
         id="circle7178"
         cx="9.9999781"
         cy="10.000005"
         r="10" />
    </clipPath>
    <clipPath
       id="clipPath8165"
       clipPathUnits="userSpaceOnUse">
      <circle
         inkscape:export-ydpi="648"
         inkscape:export-xdpi="648"
         inkscape:export-filename="/home/juergen/Schreibtisch/path4136.png"
         style="opacity:1;fill:#ffc107;fill-opacity:1;stroke:none;stroke-width:0.05069799;stroke-miterlimit:4;stroke-dasharray:none;stroke-opacity:1"
         id="circle8167"
         cx="9.9999781"
         cy="10.000005"
         r="10" />
    </clipPath>
    <clipPath
       clipPathUnits="userSpaceOnUse"
       id="clipPath9162">
      <circle
         inkscape:export-ydpi="648"
         inkscape:export-xdpi="648"
         inkscape:export-filename="/home/juergen/Schreibtisch/path4136.png"
         style="opacity:1;fill:#ff9800;fill-opacity:1;stroke:none;stroke-width:0.05069799;stroke-miterlimit:4;stroke-dasharray:none;stroke-opacity:1"
         id="circle9164"
         cx="9.9999781"
         cy="10.000005"
         r="10" />
    </clipPath>
    <clipPath
       id="clipPath10753"
       clipPathUnits="userSpaceOnUse">
      <circle
         inkscape:export-ydpi="648"
         inkscape:export-xdpi="648"
         inkscape:export-filename="/home/juergen/Schreibtisch/path4136.png"
         style="opacity:1;fill:#607d8b;fill-opacity:1;stroke:none;stroke-width:0.05069799;stroke-miterlimit:4;stroke-dasharray:none;stroke-opacity:1"
         id="circle10755"
         cx="9.9999781"
         cy="10.000005"
         r="10" />
    </clipPath>
    <clipPath
       clipPathUnits="userSpaceOnUse"
       id="clipPath5153">
      <circle
         inkscape:export-ydpi="648"
         inkscape:export-xdpi="648"
         inkscape:export-filename="/home/juergen/Schreibtisch/path4136.png"
         style="opacity:1;fill:#2196f3;fill-opacity:1;stroke:none;stroke-width:0.05069799;stroke-miterlimit:4;stroke-dasharray:none;stroke-opacity:1"
         id="circle5155"
         cx="9.9999781"
         cy="10.000005"
         r="10" />
    </clipPath>
    <clipPath
       id="clipPath6158"
       clipPathUnits="userSpaceOnUse">
      <circle
         r="10"
         cy="10.000005"
         cx="9.9999781"
         id="circle6160"
         style="opacity:1;fill:#ff9800;fill-opacity:1;stroke:none;stroke-width:0.05069799;stroke-miterlimit:4;stroke-dasharray:none;stroke-opacity:1"
         inkscape:export-filename="/home/juergen/Schreibtisch/path4136.png"
         inkscape:export-xdpi="648"
         inkscape:export-ydpi="648" />
    </clipPath>
    <clipPath
       clipPathUnits="userSpaceOnUse"
       id="clipPath5168">
      <circle
         r="10"
         cy="10.000005"
         cx="9.9999781"
         id="circle5170"
         style="opacity:1;fill:#ff9800;fill-opacity:1;stroke:none;stroke-width:0.05069799;stroke-miterlimit:4;stroke-dasharray:none;stroke-opacity:1"
         inkscape:export-filename="/home/juergen/Schreibtisch/path4136.png"
         inkscape:export-xdpi="648"
         inkscape:export-ydpi="648" />
    </clipPath>
    <clipPath
       clipPathUnits="userSpaceOnUse"
       id="clipPath9831">
      <circle
         r="10"
         cy="10.000005"
         cx="9.9999781"
         id="circle9833"
         style="opacity:1;fill:#3f51b5;fill-opacity:1;stroke:none;stroke-width:0.05069799;stroke-miterlimit:4;stroke-dasharray:none;stroke-opacity:1"
         inkscape:export-filename="/home/juergen/Schreibtisch/path4136.png"
         inkscape:export-xdpi="648"
         inkscape:export-ydpi="648" />
    </clipPath>
    <clipPath
       id="clipPath10876"
       clipPathUnits="userSpaceOnUse">
      <circle
         r="10"
         cy="10.000005"
         cx="9.9999781"
         id="circle10878"
         style="opacity:1;fill:#ffc107;fill-opacity:1;stroke:none;stroke-width:0.05069799;stroke-miterlimit:4;stroke-dasharray:none;stroke-opacity:1"
         inkscape:export-filename="/home/juergen/Schreibtisch/path4136.png"
         inkscape:export-xdpi="648"
         inkscape:export-ydpi="648" />
    </clipPath>
    <linearGradient
       inkscape:collect="always"
       xlink:href="#linearGradient11916"
       id="linearGradient11922"
       x1="10"
       y1="10"
       x2="20"
       y2="20"
       gradientUnits="userSpaceOnUse" />
    <clipPath
       clipPathUnits="userSpaceOnUse"
       id="clipPath11927">
      <circle
         r="10"
         cy="10.000005"
         cx="9.9999781"
         id="circle11929"
         style="opacity:1;fill:#00bcd4;fill-opacity:1;stroke:none;stroke-width:0.05069799;stroke-miterlimit:4;stroke-dasharray:none;stroke-opacity:1"
         inkscape:export-filename="/home/juergen/Schreibtisch/path4136.png"
         inkscape:export-xdpi="648"
         inkscape:export-ydpi="648" />
    </clipPath>
  </defs>
  <metadata
     id="metadata7">
    <rdf:RDF>
      <cc:Work
         rdf:about="">
        <dc:format>image/svg+xml</dc:format>
        <dc:type
           rdf:resource="http://purl.org/dc/dcmitype/StillImage" />
        <dc:title></dc:title>
      </cc:Work>
    </rdf:RDF>
  </metadata>
  <g
     transform="translate(1058.1428,-861.93365)"
     id="layer1"
     inkscape:groupmode="layer"
     inkscape:label="Hintergrund">
    <circle
       r="10"
       cy="871.93365"
       cx="-1048.1428"
       id="path4136"
       style="opacity:1;fill:#ff9800;fill-opacity:1;stroke:none;stroke-width:0.05069799;stroke-miterlimit:4;stroke-dasharray:none;stroke-opacity:1"
       inkscape:export-filename="/home/juergen/Schreibtisch/path4136.png"
       inkscape:export-xdpi="648"
       inkscape:export-ydpi="648" />
    <circle
       inkscape:export-ydpi="648"
       inkscape:export-xdpi="648"
       inkscape:export-filename="/home/juergen/Schreibtisch/path4136.png"
       style="opacity:1;fill:#9c27b0;fill-opacity:1;stroke:none;stroke-width:0.05069799;stroke-miterlimit:4;stroke-dasharray:none;stroke-opacity:1"
       id="circle6153"
       cx="-1048.1428"
       cy="871.93365"
       r="10" />
    <path
       style="fill:#ff9800;fill-rule:evenodd;stroke:none;stroke-width:1px;stroke-linecap:butt;stroke-linejoin:miter;stroke-opacity:1"
       d="m -1052.7069,867.57054 2.0771,0 5.2591,5.12653 -1.7678,1.67938 -5.3474,-5.61266 z"
       id="path11931"
       inkscape:connector-curvature="0" />
  </g>
  <g
     inkscape:label="Icon"
     id="layer2"
     inkscape:groupmode="layer"
     style="display:inline">
    <path
       style="fill:none"
       inkscape:connector-curvature="0"
       id="path4"
       d="m 3.9999777,4.0333382 12.0000003,0 0,11.9333328 -12.0000003,0 z" />
    <path
       d="m 18.999978,19.033339 12,0 0,11.933333 -12,0 z"
       id="path9754"
       inkscape:connector-curvature="0"
       style="fill:none" />
    <path
       style="fill-opacity:0;fill:#000000"
       id="path4278"
       d="M 10.466797 5 C 10.255715 5 10.075827 5.0796978 9.9257812 5.2402344 C 9.776371 5.4004531 9.7011719 5.5942897 9.7011719 5.8203125 C 9.7011719 5.9296681 9.7223733 6.0340545 9.7597656 6.1289062 C 9.7597656 6.1289062 9.7617188 6.1308594 9.7617188 6.1308594 C 9.7802493 6.1774001 9.8162364 6.2167406 9.84375 6.2597656 C 9.871422 6.3027285 9.889155 6.3492343 9.9257812 6.3886719 C 9.9257812 6.3886719 9.9257812 6.390625 9.9257812 6.390625 C 9.9257812 6.390625 9.9277344 6.390625 9.9277344 6.390625 C 9.9277344 6.390625 9.9296875 6.3925781 9.9296875 6.3925781 C 9.9296875 6.3925781 9.9316406 6.3945312 9.9316406 6.3945312 C 9.9326989 6.3956454 9.9344856 6.3973312 9.9355469 6.3984375 C 9.9355469 6.3984375 9.9375 6.4003906 9.9375 6.4003906 C 9.9375 6.4003906 9.9394531 6.4023438 9.9394531 6.4023438 C 9.9411132 6.4041589 9.9416806 6.4063954 9.9433594 6.4082031 C 9.9446927 6.4096299 9.9459274 6.4106953 9.9472656 6.4121094 C 9.9472656 6.4121094 9.9492188 6.4140625 9.9492188 6.4140625 C 9.9505521 6.4154892 9.9517868 6.4165547 9.953125 6.4179688 C 9.953125 6.4179688 9.9550781 6.4199219 9.9550781 6.4199219 C 9.9574647 6.4224757 9.9604884 6.423268 9.9628906 6.4257812 C 9.9639449 6.4269093 9.9676927 6.4285673 9.96875 6.4296875 C 9.9697865 6.4308143 9.9696593 6.4324698 9.9707031 6.4335938 C 9.9707031 6.4335938 9.9726562 6.4355469 9.9726562 6.4355469 C 9.9749428 6.4380619 9.9761931 6.4408586 9.9785156 6.4433594 C 9.9802356 6.4451998 9.9826469 6.4454462 9.984375 6.4472656 C 9.9860352 6.4490809 9.9866023 6.4513171 9.9882812 6.453125 C 9.9900012 6.4549654 9.9924126 6.4552119 9.9941406 6.4570312 C 9.9958005 6.4588462 9.9963682 6.4610831 9.9980469 6.4628906 C 10.0011 6.4661578 10.004734 6.4675023 10.007812 6.4707031 C 10.007812 6.4707031 10.009766 6.4726562 10.009766 6.4726562 C 10.012143 6.4752007 10.015185 6.4760114 10.017578 6.4785156 C 10.019247 6.4803405 10.019797 6.4825576 10.021484 6.484375 C 10.023871 6.4869288 10.026895 6.4877211 10.029297 6.4902344 C 10.030965 6.4920588 10.031516 6.4942768 10.033203 6.4960938 C 10.036246 6.4993495 10.039901 6.5007164 10.042969 6.5039062 C 10.044637 6.5057309 10.045187 6.5079485 10.046875 6.5097656 C 10.049662 6.5127475 10.053833 6.5126984 10.056641 6.515625 C 10.058694 6.5178789 10.058464 6.521195 10.060547 6.5234375 C 10.063334 6.5264194 10.067504 6.5263703 10.070312 6.5292969 C 10.072364 6.5315487 10.072138 6.534869 10.074219 6.5371094 C 10.077261 6.5403651 10.080916 6.5417321 10.083984 6.5449219 C 10.086282 6.5474491 10.08751 6.5502215 10.089844 6.5527344 C 10.092886 6.5559901 10.096541 6.5573571 10.099609 6.5605469 C 10.101908 6.5630755 10.103134 6.5658451 10.105469 6.5683594 C 10.109176 6.5723264 10.113442 6.5742558 10.117188 6.578125 C 10.119473 6.5806386 10.120726 6.5834381 10.123047 6.5859375 C 10.125446 6.5885047 10.128444 6.5892707 10.130859 6.5917969 C 10.134142 6.5954419 10.135314 6.5999003 10.138672 6.6035156 C 10.143445 6.6086232 10.149461 6.610289 10.154297 6.6152344 C 10.155966 6.6170591 10.156515 6.6192765 10.158203 6.6210938 C 10.161246 6.6243495 10.164901 6.6257164 10.167969 6.6289062 C 10.171251 6.6325515 10.172423 6.6370095 10.175781 6.640625 C 10.180941 6.6461463 10.188126 6.647012 10.193359 6.6523438 C 10.195411 6.6545959 10.195185 6.6579155 10.197266 6.6601562 C 10.201393 6.6645731 10.206763 6.6656263 10.210938 6.6699219 C 10.213616 6.6728795 10.214068 6.6767494 10.216797 6.6796875 C 10.220888 6.6840651 10.226332 6.6851947 10.230469 6.6894531 C 10.233769 6.693118 10.234905 6.697537 10.238281 6.7011719 C 10.241989 6.7051389 10.246255 6.7070683 10.25 6.7109375 C 10.253895 6.7152884 10.255764 6.7203006 10.259766 6.7246094 C 10.265205 6.7304304 10.271822 6.7326709 10.277344 6.7382812 C 10.279642 6.7408095 10.280868 6.7435799 10.283203 6.7460938 C 10.287976 6.7512014 10.293992 6.7528671 10.298828 6.7578125 C 10.302128 6.7614773 10.303265 6.7658964 10.306641 6.7695312 C 10.311414 6.7746389 10.31743 6.7763046 10.322266 6.78125 C 10.325565 6.7849148 10.326702 6.789334 10.330078 6.7929688 C 10.335218 6.7984682 10.342444 6.7993761 10.347656 6.8046875 C 10.351331 6.8087834 10.3517 6.8143009 10.355469 6.8183594 C 10.360608 6.8238589 10.367835 6.8247667 10.373047 6.8300781 C 10.376722 6.8341745 10.37709 6.839691 10.380859 6.84375 C 10.385615 6.8488389 10.391666 6.8505409 10.396484 6.8554688 C 10.400749 6.8602502 10.401856 6.8663631 10.40625 6.8710938 C 10.41169 6.8769147 10.418307 6.8791553 10.423828 6.8847656 C 10.427722 6.8891155 10.429593 6.8941297 10.433594 6.8984375 C 10.439034 6.9042585 10.445651 6.9064991 10.451172 6.9121094 C 10.455066 6.9164592 10.456937 6.9214735 10.460938 6.9257812 C 10.466764 6.9320159 10.474549 6.9334601 10.480469 6.9394531 C 10.484734 6.9442346 10.485841 6.9503474 10.490234 6.9550781 C 10.496061 6.9613128 10.503846 6.962757 10.509766 6.96875 C 10.51403 6.9735315 10.515138 6.9796443 10.519531 6.984375 C 10.526691 6.9920364 10.535668 6.9946567 10.542969 7.0019531 C 10.546251 7.0055982 10.547424 7.0100565 10.550781 7.0136719 C 10.55625 7.0195237 10.562808 7.0217048 10.568359 7.0273438 C 10.573227 7.0328336 10.575042 7.0394988 10.580078 7.0449219 C 10.586571 7.0518699 10.594953 7.053899 10.601562 7.0605469 C 10.605827 7.0653284 10.606935 7.0714412 10.611328 7.0761719 C 10.618874 7.084247 10.629016 7.0860804 10.636719 7.09375 C 10.640394 7.0978464 10.640762 7.1033629 10.644531 7.1074219 C 10.651 7.1143439 10.659432 7.1164228 10.666016 7.1230469 C 10.670908 7.1285664 10.672671 7.1351729 10.677734 7.140625 C 10.683819 7.1471364 10.691079 7.1500022 10.697266 7.15625 C 10.70273 7.1624503 10.705258 7.1696658 10.710938 7.1757812 C 10.718764 7.184156 10.728333 7.1873738 10.736328 7.1953125 C 10.740243 7.1996864 10.742071 7.2046531 10.746094 7.2089844 C 10.746094 7.2089844 10.748047 7.2109375 10.748047 7.2109375 L 9.7714844 7.2109375 L 9.7695312 7.2109375 L 9.7695312 7.4394531 C 9.5558902 7.5228175 9.3479791 7.5867865 9.1523438 7.6289062 C 8.956203 7.6710272 8.7709544 7.6914062 8.5996094 7.6914062 C 8.4474681 7.604265 8.2902353 7.5378899 8.1289062 7.4941406 C 7.9673124 7.4505554 7.7970482 7.4298517 7.6191406 7.4296875 C 7.3936942 7.4296875 7.184905 7.4674423 6.9882812 7.5351562 C 6.9691783 7.541738 6.9465671 7.5455134 6.9277344 7.5527344 C 6.7609488 7.6168875 6.6085901 7.7137917 6.4628906 7.828125 C 6.422586 7.8597355 6.3785463 7.8864256 6.3398438 7.921875 C 5.9679075 8.2721945 5.78125 8.7095315 5.78125 9.234375 C 5.78125 9.4095347 5.8084722 9.5801072 5.859375 9.7441406 C 5.8739807 9.7909593 5.9050351 9.8349309 5.9238281 9.8808594 C 5.9705318 9.9949984 6.015147 10.110029 6.0878906 10.21875 C 6.0878906 10.21875 6.0878906 10.220703 6.0878906 10.220703 C 6.0878906 10.220703 6.0898438 10.222656 6.0898438 10.222656 C 6.091504 10.22525 6.0940414 10.225939 6.0957031 10.228516 C 6.1217124 10.268739 6.1512054 10.292054 6.1777344 10.328125 C 6.2191017 10.38454 6.2611624 10.438073 6.3046875 10.484375 C 6.3145896 10.494868 6.3239349 10.509561 6.3339844 10.519531 C 6.3477653 10.533152 6.3609122 10.557673 6.375 10.570312 C 6.375 10.570312 6.3769531 10.572266 6.3769531 10.572266 C 6.3769531 10.572266 6.3789062 10.574219 6.3789062 10.574219 C 6.3801391 10.575335 6.3815772 10.577017 6.3828125 10.578125 C 6.3874235 10.582345 6.3918385 10.587683 6.3964844 10.591797 C 6.4004925 10.595449 6.4041686 10.599943 6.4082031 10.603516 C 6.4082031 10.603516 6.4101562 10.605469 6.4101562 10.605469 C 6.4101562 10.605469 6.4121094 10.607422 6.4121094 10.607422 C 6.413963 10.609107 6.4161096 10.611613 6.4179688 10.613281 C 6.4225859 10.617507 6.4269886 10.622834 6.4316406 10.626953 C 6.434009 10.629097 6.4370756 10.630697 6.4394531 10.632812 C 6.4427728 10.635838 6.445881 10.639608 6.4492188 10.642578 C 6.4531475 10.646174 6.4569835 10.650778 6.4609375 10.654297 C 6.4648664 10.657893 6.4687022 10.662497 6.4726562 10.666016 C 6.4772871 10.670254 6.4816621 10.675556 6.4863281 10.679688 C 6.4902478 10.683275 6.4941021 10.687896 6.4980469 10.691406 C 6.5032797 10.696216 6.5083942 10.702358 6.5136719 10.707031 C 6.5183027 10.71127 6.5226777 10.716572 6.5273438 10.720703 C 6.5325765 10.725513 6.5376911 10.731655 6.5429688 10.736328 C 6.5482107 10.741147 6.5533068 10.747272 6.5585938 10.751953 C 6.5644218 10.757333 6.5702882 10.764322 6.5761719 10.769531 C 6.5819995 10.774911 6.5878668 10.7819 6.59375 10.787109 C 6.599591 10.792502 6.6054312 10.799466 6.6113281 10.804688 C 6.6181976 10.811056 6.6258656 10.818087 6.6328125 10.824219 C 6.6349821 10.826226 6.6364947 10.830047 6.6386719 10.832031 C 6.6076422 10.85115 6.5745271 10.869298 6.5488281 10.894531 C 6.5265133 10.916582 6.5105718 10.947921 6.4921875 10.974609 C 6.4736853 11.001554 6.45016 11.023027 6.4355469 11.054688 C 6.4355469 11.054688 6.4355469 11.056641 6.4355469 11.056641 C 6.4064484 11.120112 6.3852774 11.193052 6.3710938 11.275391 C 6.3710938 11.275391 6.3710938 11.277344 6.3710938 11.277344 C 6.3641391 11.318073 6.362847 11.36873 6.359375 11.414062 C 6.3558578 11.460344 6.3496094 11.501661 6.3496094 11.552734 C 6.3496094 11.552734 6.3496094 11.554688 6.3496094 11.554688 C 6.3496094 11.614888 6.3568706 11.668377 6.3652344 11.722656 C 6.3677531 11.738953 6.3677977 11.757675 6.3710938 11.773438 C 6.3710938 11.773438 6.3710938 11.775391 6.3710938 11.775391 C 6.3710938 11.775391 6.3730469 11.777344 6.3730469 11.777344 C 6.3787057 11.804015 6.3905021 11.826426 6.3984375 11.851562 C 6.4104837 11.889494 6.4181565 11.930415 6.4355469 11.964844 C 6.4647722 12.022703 6.503837 12.075078 6.5488281 12.123047 C 6.5488281 12.123047 6.5488281 12.125 6.5488281 12.125 C 6.5488281 12.125 6.5507812 12.126953 6.5507812 12.126953 C 6.5507812 12.126953 6.5527344 12.126953 6.5527344 12.126953 C 6.5527344 12.126953 6.5546875 12.128906 6.5546875 12.128906 C 6.5546875 12.128906 6.5546875 12.130859 6.5546875 12.130859 C 6.5546875 12.130859 6.5566406 12.132812 6.5566406 12.132812 C 6.5566406 12.132812 6.5585938 12.134766 6.5585938 12.134766 C 6.5585938 12.134766 6.5605469 12.136719 6.5605469 12.136719 C 6.5617464 12.137992 6.5632422 12.139359 6.5644531 12.140625 C 6.5644531 12.140625 6.5664062 12.142578 6.5664062 12.142578 C 6.5676119 12.143858 6.5690953 12.145212 6.5703125 12.146484 C 6.5703125 12.146484 6.5722656 12.148438 6.5722656 12.148438 C 6.573481 12.149727 6.5749448 12.151061 6.5761719 12.152344 C 6.5761719 12.152344 6.578125 12.154297 6.578125 12.154297 C 6.5802692 12.156572 6.5837567 12.157903 6.5859375 12.160156 C 6.5874792 12.161792 6.5902362 12.162438 6.5917969 12.164062 C 6.5917969 12.164062 6.5917969 12.166016 6.5917969 12.166016 C 6.5917969 12.166016 6.59375 12.167969 6.59375 12.167969 C 6.59375 12.167969 6.5957031 12.169922 6.5957031 12.169922 C 6.6000443 12.174663 6.6048783 12.178948 6.609375 12.183594 C 6.6121801 12.186608 6.6143188 12.190384 6.6171875 12.193359 C 6.6202248 12.196634 6.6238409 12.199896 6.6269531 12.203125 C 6.6303217 12.206757 6.6352111 12.209314 6.6386719 12.212891 C 6.6435785 12.218206 6.6491935 12.22332 6.6542969 12.228516 C 6.6542969 12.228516 6.65625 12.230469 6.65625 12.230469 C 6.657436 12.231727 6.6609122 12.233123 6.6621094 12.234375 C 6.6673921 12.240171 6.6722201 12.246298 6.6777344 12.251953 C 6.6832342 12.257911 6.6895654 12.263724 6.6953125 12.269531 C 6.6953125 12.269531 6.6972656 12.271484 6.6972656 12.271484 C 6.6994119 12.273762 6.7028952 12.275088 6.7050781 12.277344 C 6.363116 12.38977 6.1116901 12.551536 5.9472656 12.759766 C 5.7821195 12.969457 5.7050781 13.226753 5.7050781 13.533203 C 5.7050781 13.533203 5.7050781 13.535156 5.7050781 13.535156 C 5.705227 13.667574 5.7193964 13.79151 5.7480469 13.90625 C 5.7480469 13.90625 5.7480469 13.908203 5.7480469 13.908203 C 5.7480469 13.908203 5.75 13.910156 5.75 13.910156 C 5.7606375 13.952398 5.7823969 13.9875 5.796875 14.027344 C 5.8215012 14.094871 5.8413457 14.165924 5.8769531 14.226562 C 5.8778739 14.228131 5.8799313 14.228905 5.8808594 14.230469 C 5.8808594 14.230469 5.8828125 14.232422 5.8828125 14.232422 C 5.9032997 14.266749 5.9349686 14.29407 5.9589844 14.326172 C 6.0011857 14.382537 6.0368224 14.442676 6.0898438 14.492188 C 6.0898438 14.492188 6.0917969 14.492188 6.0917969 14.492188 C 6.0917969 14.492188 6.0917969 14.494141 6.0917969 14.494141 C 6.0917969 14.494141 6.09375 14.494141 6.09375 14.494141 C 6.09375 14.494141 6.09375 14.496094 6.09375 14.496094 C 6.09375 14.496094 6.0957031 14.496094 6.0957031 14.496094 C 6.0957031 14.496094 6.0957031 14.498047 6.0957031 14.498047 C 6.0957031 14.498047 6.0976562 14.5 6.0976562 14.5 C 6.0976562 14.5 6.0996094 14.501953 6.0996094 14.501953 C 6.0996094 14.501953 6.1015625 14.503906 6.1015625 14.503906 C 6.1015625 14.503906 6.1035156 14.505859 6.1035156 14.505859 C 6.1051589 14.507394 6.1077214 14.508238 6.109375 14.509766 C 6.110383 14.510707 6.1122694 14.51078 6.1132812 14.511719 C 6.1132812 14.511719 6.1132812 14.513672 6.1132812 14.513672 C 6.1132812 14.513672 6.1152344 14.515625 6.1152344 14.515625 C 6.1162423 14.516566 6.1181288 14.516639 6.1191406 14.517578 C 6.1202094 14.518583 6.1200206 14.520482 6.1210938 14.521484 C 6.1245137 14.524729 6.1273938 14.528035 6.1308594 14.53125 C 6.1348626 14.535031 6.1385126 14.539227 6.1425781 14.542969 C 6.1425781 14.542969 6.1445312 14.544922 6.1445312 14.544922 C 6.1458052 14.546112 6.1471573 14.547642 6.1484375 14.548828 C 6.1517458 14.551959 6.1548521 14.55549 6.1582031 14.558594 C 6.1602452 14.560526 6.1620042 14.562531 6.1640625 14.564453 C 6.1704279 14.570545 6.1770684 14.576041 6.1835938 14.582031 C 6.1846582 14.583032 6.1864311 14.586893 6.1875 14.587891 C 6.1941319 14.594238 6.2002257 14.601184 6.2070312 14.607422 C 6.2100256 14.610243 6.2137678 14.612435 6.2167969 14.615234 C 6.2198849 14.618177 6.223437 14.624035 6.2265625 14.626953 C 6.233231 14.633364 6.2392487 14.640185 6.2460938 14.646484 C 6.2514441 14.651583 6.2562559 14.657082 6.2617188 14.662109 C 6.2680545 14.668147 6.2747566 14.67375 6.28125 14.679688 C 6.2859164 14.684114 6.2901704 14.688987 6.2949219 14.693359 C 6.2999335 14.698156 6.3034829 14.704251 6.3085938 14.708984 C 6.3168912 14.716996 6.3254121 14.724585 6.3339844 14.732422 C 6.3396935 14.737862 6.3457253 14.742688 6.3515625 14.748047 C 6.3572988 14.75355 6.3613209 14.760204 6.3671875 14.765625 C 6.3754965 14.773669 6.3820395 14.783147 6.390625 14.791016 C 6.3979241 14.798033 6.4045987 14.805617 6.4121094 14.8125 C 6.4203875 14.820459 6.4289498 14.828151 6.4375 14.835938 C 6.4441198 14.842273 6.4502384 14.849243 6.4570312 14.855469 C 6.4643402 14.862527 6.4709934 14.870031 6.4785156 14.876953 C 6.4878356 14.886017 6.4961897 14.895456 6.5058594 14.904297 C 6.5145177 14.912678 6.5222916 14.921497 6.53125 14.929688 C 6.5411752 14.939297 6.5502272 14.949626 6.5605469 14.958984 C 6.5684625 14.966594 6.57582 14.97497 6.5839844 14.982422 C 6.5931996 14.99136 6.601772 15.001044 6.6113281 15.009766 C 6.620906 15.019056 6.6306789 15.028053 6.640625 15.037109 C 6.650559 15.046769 6.6595906 15.056999 6.6699219 15.066406 C 6.6798559 15.076066 6.6888874 15.086296 6.6992188 15.095703 C 6.7091528 15.105362 6.7181843 15.115593 6.7285156 15.125 C 6.7390911 15.135329 6.7487375 15.146209 6.7597656 15.15625 C 6.769721 15.165973 6.7787059 15.176078 6.7890625 15.185547 C 6.801252 15.197538 6.8114225 15.211051 6.8242188 15.222656 C 6.8363949 15.234551 6.8485518 15.246299 6.8613281 15.257812 C 6.8706404 15.266867 6.8790104 15.276323 6.8886719 15.285156 C 6.9014938 15.297826 6.9122844 15.311978 6.9257812 15.324219 C 6.9385928 15.33679 6.9513641 15.349181 6.9648438 15.361328 C 6.9764003 15.372615 6.9879028 15.383587 7 15.394531 C 7.0125413 15.406866 7.023926 15.419714 7.0371094 15.431641 C 7.0486737 15.443014 7.0582022 15.45577 7.0703125 15.466797 C 7.0843741 15.480754 7.0964502 15.496327 7.1113281 15.509766 C 7.125385 15.523621 7.1394313 15.53744 7.1542969 15.550781 C 7.1655101 15.561782 7.175775 15.573308 7.1875 15.583984 C 7.203506 15.599943 7.2192587 15.615576 7.2363281 15.630859 C 7.2494869 15.643801 7.2615251 15.657429 7.2753906 15.669922 C 7.2891541 15.683519 7.3018653 15.697834 7.3164062 15.710938 C 7.330203 15.724629 7.3428395 15.738761 7.3574219 15.751953 C 7.3740018 15.76852 7.3885259 15.786894 7.40625 15.802734 C 7.4199475 15.816233 7.4328004 15.830739 7.4472656 15.84375 C 7.4615972 15.858001 7.475053 15.873008 7.4902344 15.886719 C 7.5074425 15.903948 7.5245252 15.921056 7.5429688 15.9375 C 7.5573711 15.951728 7.5706838 15.966781 7.5859375 15.980469 C 7.6015553 15.996037 7.6161825 16.012419 7.6328125 16.027344 C 7.6481052 16.042656 7.6614657 16.059526 7.6777344 16.074219 C 7.696181 16.092777 7.7145003 16.111255 7.734375 16.128906 C 7.7487858 16.143207 7.7620758 16.158119 7.7773438 16.171875 C 7.7951685 16.189853 7.8109157 16.209434 7.8300781 16.226562 C 7.8479156 16.244428 7.8656002 16.262275 7.8847656 16.279297 C 7.9010219 16.295501 7.9162409 16.312617 7.9335938 16.328125 C 7.9510736 16.345706 7.9675663 16.364092 7.9863281 16.380859 C 8.0031989 16.397828 8.0190443 16.41543 8.0371094 16.431641 C 8.0558926 16.450671 8.0734731 16.4702 8.09375 16.488281 C 8.1131382 16.507836 8.1313731 16.528325 8.1523438 16.546875 C 8.1686029 16.563155 8.1838096 16.580124 8.2011719 16.595703 C 8.2208069 16.615687 8.2384892 16.637309 8.2597656 16.65625 C 8.279422 16.676115 8.2990255 16.696014 8.3203125 16.714844 C 8.3387561 16.733394 8.3570824 16.751887 8.3769531 16.769531 C 8.3963326 16.78916 8.414578 16.809506 8.4355469 16.828125 C 8.454894 16.847721 8.4732094 16.868129 8.4941406 16.886719 C 8.5141182 16.907045 8.5330114 16.928019 8.5546875 16.947266 C 8.5746651 16.967592 8.5935583 16.988565 8.6152344 17.007812 C 8.6351797 17.028106 8.6541429 17.049142 8.6757812 17.068359 C 8.6967045 17.089744 8.7174376 17.110665 8.7402344 17.130859 C 8.7599372 17.150956 8.777468 17.172362 8.7988281 17.191406 C 8.8212767 17.214519 8.8425624 17.238035 8.8671875 17.259766 C 8.8890338 17.282047 8.9097104 17.305185 8.9335938 17.326172 C 8.9535713 17.346498 8.9724646 17.367472 8.9941406 17.386719 C 9.0165587 17.40979 9.0379126 17.433384 9.0625 17.455078 C 9.0849335 17.478062 9.1062658 17.501826 9.1308594 17.523438 C 9.1514314 17.544463 9.1709761 17.566063 9.1933594 17.585938 C 9.2175836 17.610992 9.2408052 17.63672 9.2675781 17.660156 C 9.2891044 17.682157 9.310475 17.703868 9.3339844 17.724609 C 9.3566354 17.747923 9.3774779 17.773016 9.4023438 17.794922 C 9.4246586 17.817936 9.4462331 17.841636 9.4707031 17.863281 C 9.4958514 17.88941 9.5209174 17.915079 9.5488281 17.939453 C 9.5712435 17.96242 9.5926153 17.986216 9.6171875 18.007812 C 9.6407684 18.032193 9.6634582 18.057231 9.6894531 18.080078 C 9.7127049 18.104227 9.7341532 18.129694 9.7597656 18.152344 C 9.7860789 18.179808 9.8124422 18.206889 9.8417969 18.232422 C 9.8644857 18.255774 9.8852451 18.280794 9.9101562 18.302734 C 9.9354962 18.329169 9.9601223 18.356215 9.9882812 18.380859 C 10.01305 18.406582 10.037006 18.43301 10.064453 18.457031 C 10.089601 18.48316 10.114667 18.508829 10.142578 18.533203 C 10.167665 18.559322 10.190907 18.58696 10.21875 18.611328 C 10.24531 18.63905 10.271123 18.667606 10.300781 18.693359 C 10.325606 18.719077 10.3514 18.743564 10.378906 18.767578 C 10.404933 18.7948 10.429974 18.822329 10.458984 18.847656 C 10.485259 18.875138 10.509747 18.904137 10.539062 18.929688 C 10.56559 18.95749 10.591459 18.985889 10.621094 19.011719 C 10.647621 19.039522 10.67349 19.067921 10.703125 19.09375 C 10.729998 19.121915 10.757047 19.149641 10.787109 19.175781 C 10.814294 19.204344 10.840636 19.233282 10.871094 19.259766 C 10.89734 19.287343 10.921874 19.316157 10.951172 19.341797 C 10.979729 19.37209 11.006849 19.403669 11.039062 19.431641 C 11.067684 19.461788 11.096645 19.491695 11.128906 19.519531 C 11.155186 19.547074 11.181608 19.574003 11.210938 19.599609 C 11.240144 19.630671 11.267738 19.662781 11.300781 19.691406 C 11.330056 19.72232 11.359484 19.752763 11.392578 19.78125 C 11.420356 19.810436 11.447321 19.840172 11.478516 19.867188 C 11.507406 19.897821 11.535729 19.928773 11.568359 19.957031 C 11.59666 19.987039 11.62436 20.017193 11.65625 20.044922 C 11.686348 20.077078 11.715804 20.109118 11.75 20.138672 C 11.78072 20.171342 11.81074 20.2044 11.845703 20.234375 C 11.873448 20.263659 11.900467 20.293206 11.931641 20.320312 C 11.962527 20.353462 11.992117 20.387575 12.027344 20.417969 C 12.058307 20.450965 12.089715 20.483421 12.125 20.513672 C 12.15448 20.54493 12.183423 20.576684 12.216797 20.605469 C 12.247372 20.638185 12.277688 20.671146 12.3125 20.701172 C 12.343366 20.7342 12.374973 20.76659 12.410156 20.796875 C 12.441372 20.830362 12.472166 20.863858 12.507812 20.894531 C 12.539028 20.928018 12.569823 20.961514 12.605469 20.992188 C 12.636634 21.02562 12.667543 21.059216 12.703125 21.089844 C 12.735124 21.124328 12.766053 21.159896 12.802734 21.191406 C 12.833851 21.224855 12.86486 21.258416 12.900391 21.289062 C 12.933273 21.324681 12.966047 21.360121 13.003906 21.392578 C 13.037173 21.428447 13.071045 21.463441 13.109375 21.496094 C 13.140591 21.529581 13.171385 21.563077 13.207031 21.59375 C 13.240168 21.629711 13.272344 21.666475 13.310547 21.699219 C 13.344387 21.735874 13.378858 21.771379 13.417969 21.804688 C 13.449724 21.838909 13.481212 21.873004 13.517578 21.904297 C 13.552774 21.942695 13.587957 21.98088 13.628906 22.015625 C 13.661245 22.050475 13.693348 22.085374 13.730469 22.117188 C 13.765049 22.154888 13.799714 22.192386 13.839844 22.226562 C 13.87356 22.263152 13.906352 22.300725 13.945312 22.333984 C 13.97988 22.371601 14.014588 22.409256 14.054688 22.443359 C 14.088976 22.480646 14.124336 22.516948 14.164062 22.550781 C 14.199301 22.589226 14.234385 22.627327 14.275391 22.662109 C 14.309953 22.699699 14.344677 22.737404 14.384766 22.771484 C 14.419851 22.809819 14.45528 22.848116 14.496094 22.882812 C 14.530601 22.920515 14.56542 22.958004 14.605469 22.992188 C 14.641704 23.032086 14.678297 23.071442 14.720703 23.107422 C 14.757331 23.147567 14.794996 23.186492 14.837891 23.222656 C 14.872164 23.260026 14.905588 23.298124 14.945312 23.332031 C 14.983204 23.373947 15.021728 23.415519 15.066406 23.453125 C 15.101829 23.491828 15.138426 23.529458 15.179688 23.564453 C 15.215855 23.604253 15.252612 23.643788 15.294922 23.679688 C 15.331661 23.720303 15.368994 23.760308 15.412109 23.796875 C 15.450242 23.839133 15.488181 23.882039 15.533203 23.919922 C 15.569721 23.960005 15.607631 23.999037 15.650391 24.035156 C 15.68713 24.075772 15.724463 24.115777 15.767578 24.152344 C 15.806635 24.195861 15.846243 24.238448 15.892578 24.277344 C 15.928984 24.317406 15.965183 24.358421 16.007812 24.394531 C 16.047004 24.438253 16.088235 24.480471 16.134766 24.519531 C 16.172653 24.561416 16.211192 24.603046 16.255859 24.640625 C 16.294253 24.683266 16.333509 24.725479 16.378906 24.763672 C 16.4173 24.806313 16.456556 24.848526 16.501953 24.886719 C 16.540849 24.930117 16.580827 24.972912 16.626953 25.011719 C 16.665849 25.055117 16.705827 25.097912 16.751953 25.136719 C 16.79199 25.181498 16.833138 25.225725 16.880859 25.265625 C 16.919253 25.308266 16.958509 25.350479 17.003906 25.388672 C 17.044437 25.434213 17.086313 25.479021 17.134766 25.519531 C 17.174232 25.563567 17.214808 25.607176 17.261719 25.646484 C 17.301682 25.691281 17.342983 25.73547 17.390625 25.775391 C 17.430522 25.820113 17.471981 25.864434 17.519531 25.904297 C 17.559988 25.949857 17.602018 25.994623 17.650391 26.035156 C 17.69028 26.080077 17.731711 26.124028 17.779297 26.164062 C 17.821411 26.211867 17.865235 26.25848 17.916016 26.300781 C 17.956546 26.346323 17.998422 26.39113 18.046875 26.431641 C 18.089067 26.47931 18.132757 26.52618 18.183594 26.568359 C 18.223821 26.613452 18.266445 26.657113 18.314453 26.697266 C 18.355369 26.743676 18.398177 26.788857 18.447266 26.830078 C 18.490129 26.879087 18.534013 26.927448 18.585938 26.970703 C 18.6281 27.018563 18.671807 27.065078 18.722656 27.107422 C 18.76566 27.156236 18.811242 27.203017 18.863281 27.246094 C 18.904905 27.293089 18.948016 27.339203 18.998047 27.380859 C 19.0412 27.430036 19.086373 27.478114 19.138672 27.521484 C 19.180786 27.569289 19.22461 27.615902 19.275391 27.658203 C 19.31902 27.708154 19.364935 27.756801 19.417969 27.800781 C 19.460559 27.849316 19.505142 27.896574 19.556641 27.939453 C 19.600915 27.990313 19.647171 28.039301 19.701172 28.083984 C 19.74402 28.132814 19.789932 28.179552 19.841797 28.222656 C 19.886795 28.274432 19.933215 28.325711 19.988281 28.371094 C 20.031763 28.420644 20.078094 28.468064 20.130859 28.511719 C 20.175077 28.562474 20.221481 28.611649 20.275391 28.65625 C 20.319536 28.706922 20.366116 28.756243 20.419922 28.800781 C 20.464609 28.852315 20.511761 28.902055 20.566406 28.947266 C 20.610768 28.998424 20.656761 29.048823 20.710938 29.09375 C 20.757206 29.1474 20.806261 29.19927 20.863281 29.246094 C 20.908019 29.297436 20.95511 29.347534 21.009766 29.392578 C 21.112739 29.511422 21.233012 29.619815 21.388672 29.705078 C 21.745667 29.901853 22.205359 30 22.759766 30 C 24.10891 30 24.785156 29.435755 24.785156 28.304688 C 24.785156 27.946746 24.64948 27.659367 24.382812 27.441406 C 24.339159 27.390009 24.291484 27.340287 24.236328 27.294922 C 24.192247 27.242756 24.143784 27.192457 24.087891 27.146484 C 24.043747 27.09451 23.995359 27.043853 23.939453 26.998047 C 23.896064 26.947117 23.849627 26.898512 23.794922 26.853516 C 23.750779 26.801541 23.70239 26.750885 23.646484 26.705078 C 23.603036 26.654339 23.556669 26.605378 23.501953 26.560547 C 23.459 26.510387 23.413339 26.462355 23.359375 26.417969 C 23.316154 26.367338 23.269262 26.318197 23.214844 26.273438 C 23.172062 26.223575 23.125942 26.175009 23.072266 26.130859 C 23.0317 26.08358 22.989814 26.036284 22.939453 25.994141 C 22.950994 25.991974 22.958665 25.986156 22.970703 25.984375 C 23.091703 25.96646 23.205553 25.935157 23.314453 25.896484 L 23.314453 25.957031 L 23.457031 25.957031 L 23.457031 26.099609 L 23.599609 26.099609 L 23.599609 26.242188 L 23.744141 26.242188 L 23.744141 26.386719 L 23.888672 26.386719 L 23.888672 26.53125 L 24.033203 26.53125 L 24.033203 26.675781 L 24.179688 26.675781 L 24.179688 26.822266 L 24.326172 26.822266 L 24.326172 26.96875 L 24.472656 26.96875 L 24.472656 27.115234 L 24.621094 27.115234 L 24.621094 27.263672 L 24.769531 27.263672 L 24.769531 27.412109 L 26.091797 27.412109 L 26.091797 25.763672 C 26.121101 25.794773 26.156549 25.818891 26.189453 25.845703 C 26.233294 25.899693 26.282817 25.947341 26.335938 25.990234 C 26.378882 26.042852 26.426712 26.088835 26.478516 26.130859 C 26.521497 26.18397 26.567212 26.232983 26.619141 26.275391 C 26.663806 26.330947 26.715138 26.379907 26.769531 26.423828 C 26.813177 26.477593 26.861217 26.525596 26.914062 26.568359 C 26.957457 26.622103 27.006059 26.670082 27.058594 26.712891 C 27.104157 26.769783 27.155211 26.820497 27.210938 26.865234 C 27.255618 26.92043 27.305024 26.970038 27.359375 27.013672 C 27.572906 27.277456 27.888607 27.417969 28.332031 27.417969 C 28.711279 27.417969 29.044739 27.34513 29.294922 27.199219 L 29.294922 26.105469 C 29.244695 26.136871 29.19578 26.152353 29.146484 26.175781 L 29.146484 25.955078 C 29.096386 25.9864 29.047216 26.002002 28.998047 26.025391 L 28.998047 25.808594 C 28.948614 25.839499 28.900079 25.853771 28.851562 25.876953 L 28.851562 25.660156 C 28.802002 25.691142 28.753721 25.707247 28.705078 25.730469 L 28.705078 25.513672 C 28.655517 25.544657 28.607236 25.560763 28.558594 25.583984 L 28.558594 25.367188 C 28.509827 25.397676 28.461927 25.412575 28.414062 25.435547 L 28.414062 25.222656 C 28.365039 25.253306 28.317647 25.269916 28.269531 25.292969 L 28.269531 25.078125 C 28.248478 25.091288 28.227831 25.095662 28.207031 25.107422 L 28.207031 23.628906 L 29.214844 23.628906 L 29.214844 22.421875 L 29.066406 22.421875 L 29.066406 22.273438 L 28.917969 22.273438 L 28.917969 22.125 L 28.771484 22.125 L 28.771484 21.978516 L 28.625 21.978516 L 28.625 21.830078 L 28.478516 21.830078 L 28.478516 21.685547 L 28.333984 21.685547 L 28.333984 21.539062 L 28.189453 21.539062 L 28.189453 21.394531 L 28.044922 21.394531 L 28.044922 21.251953 L 27.902344 21.251953 L 27.902344 21.109375 L 27.759766 21.109375 L 27.759766 20.966797 L 27.619141 20.966797 L 27.619141 20.824219 L 27.478516 20.824219 L 27.478516 20.683594 L 27.337891 20.683594 L 27.337891 20.544922 L 27.199219 20.544922 L 27.199219 20.404297 L 27.060547 20.404297 L 27.060547 20.267578 L 26.921875 20.267578 L 26.921875 20.128906 L 26.785156 20.128906 L 26.785156 19.992188 L 26.650391 19.992188 L 26.650391 19.855469 L 26.513672 19.855469 L 26.513672 19.720703 L 26.378906 19.720703 L 26.378906 19.585938 L 26.246094 19.585938 L 26.246094 19.451172 L 26.111328 19.451172 L 26.111328 19.318359 L 25.978516 19.318359 L 25.978516 19.185547 L 25.847656 19.185547 L 25.847656 19.054688 L 25.716797 19.054688 L 25.716797 18.921875 L 25.585938 18.921875 L 25.585938 18.792969 L 25.457031 18.792969 L 25.457031 18.662109 L 25.328125 18.662109 L 25.328125 18.533203 L 25.199219 18.533203 L 25.199219 18.40625 L 25.072266 18.40625 L 25.072266 18.279297 L 24.945312 18.279297 L 24.945312 18.152344 L 24.820312 18.152344 L 24.820312 18.025391 L 24.695312 18.025391 L 24.695312 17.900391 L 24.570312 17.900391 L 24.570312 17.777344 L 24.447266 17.777344 L 24.447266 17.652344 L 24.324219 17.652344 L 24.324219 17.529297 L 24.201172 17.529297 L 24.201172 17.408203 L 24.080078 17.408203 L 24.080078 17.287109 L 23.958984 17.287109 L 23.958984 17.166016 L 23.839844 17.166016 L 23.839844 17.046875 L 23.720703 17.046875 L 23.720703 16.925781 L 23.601562 16.925781 L 23.601562 16.808594 L 23.484375 16.808594 L 23.484375 16.691406 L 23.367188 16.691406 L 23.367188 16.574219 L 23.251953 16.574219 L 23.251953 16.457031 L 23.134766 16.457031 L 23.134766 16.341797 L 23.021484 16.341797 L 23.021484 16.226562 L 22.90625 16.226562 L 22.90625 16.113281 L 22.792969 16.113281 L 22.792969 16 L 22.681641 16 L 22.681641 15.886719 L 22.570312 15.886719 L 22.570312 15.775391 L 22.458984 15.775391 L 22.458984 15.664062 L 22.347656 15.664062 L 22.347656 15.554688 L 22.238281 15.554688 L 22.238281 15.445312 L 22.130859 15.445312 L 22.130859 15.335938 L 22.021484 15.335938 L 22.021484 15.228516 L 21.914062 15.228516 L 21.914062 15.121094 L 21.808594 15.121094 L 21.808594 15.013672 L 21.703125 15.013672 L 21.703125 14.908203 L 21.597656 14.908203 L 21.597656 14.802734 L 21.492188 14.802734 L 21.492188 14.699219 L 21.388672 14.699219 L 21.388672 14.595703 L 21.287109 14.595703 L 21.287109 14.492188 L 21.183594 14.492188 L 21.183594 14.390625 L 21.082031 14.390625 L 21.082031 14.289062 L 20.982422 14.289062 L 20.982422 14.189453 L 20.882812 14.189453 L 20.882812 14.087891 L 20.783203 14.087891 L 20.783203 13.990234 L 20.685547 13.990234 L 20.685547 13.890625 L 20.587891 13.890625 L 20.587891 13.792969 L 20.490234 13.792969 L 20.490234 13.697266 L 20.394531 13.697266 L 20.394531 13.599609 L 20.298828 13.599609 L 20.298828 13.505859 L 20.203125 13.505859 L 20.203125 13.410156 L 20.109375 13.410156 L 20.109375 13.316406 L 20.017578 13.316406 L 20.017578 13.222656 L 19.923828 13.222656 L 19.923828 13.130859 L 19.832031 13.130859 L 19.832031 13.039062 L 19.742188 13.039062 L 19.742188 12.947266 L 19.652344 12.947266 L 19.652344 12.857422 L 19.5625 12.857422 L 19.5625 12.767578 L 19.472656 12.767578 L 19.472656 12.679688 L 19.384766 12.679688 L 19.384766 12.591797 L 19.298828 12.591797 L 19.298828 12.503906 L 19.210938 12.503906 L 19.210938 12.417969 L 19.125 12.417969 L 19.125 12.332031 L 19.041016 12.332031 L 19.041016 12.248047 L 18.957031 12.248047 L 18.957031 12.162109 L 18.873047 12.162109 L 18.873047 12.080078 L 18.791016 12.080078 L 18.791016 11.996094 L 18.708984 11.996094 L 18.708984 11.914062 L 18.626953 11.914062 L 18.626953 11.833984 L 18.546875 11.833984 L 18.546875 11.751953 L 18.466797 11.751953 L 18.466797 11.671875 L 18.386719 11.671875 L 18.386719 11.59375 L 18.308594 11.59375 L 18.308594 11.515625 L 18.232422 11.515625 L 18.232422 11.4375 L 18.154297 11.4375 L 18.154297 11.361328 L 18.078125 11.361328 L 18.078125 11.285156 L 18.003906 11.285156 L 18.003906 11.208984 L 17.927734 11.208984 L 17.927734 11.134766 L 17.855469 11.134766 L 17.855469 11.060547 L 17.78125 11.060547 L 17.78125 10.988281 L 17.708984 10.988281 L 17.708984 10.916016 L 17.636719 10.916016 L 17.636719 10.84375 L 17.566406 10.84375 L 17.566406 10.773438 L 17.496094 10.773438 L 17.496094 10.703125 L 17.427734 10.703125 L 17.427734 10.632812 L 17.357422 10.632812 L 17.357422 10.564453 L 17.291016 10.564453 L 17.291016 10.496094 L 17.222656 10.496094 L 17.222656 10.429688 L 17.15625 10.429688 L 17.15625 10.363281 L 17.091797 10.363281 L 17.091797 10.296875 L 17.025391 10.296875 L 17.025391 10.232422 L 16.960938 10.232422 L 16.960938 10.167969 L 16.898438 10.167969 L 16.898438 10.105469 L 16.835938 10.105469 L 16.835938 10.041016 L 16.773438 10.041016 L 16.773438 9.9804688 L 16.712891 9.9804688 L 16.712891 9.9179688 L 16.652344 9.9179688 L 16.652344 9.8574219 L 16.591797 9.8574219 L 16.591797 9.7988281 L 16.533203 9.7988281 L 16.533203 9.7382812 L 16.474609 9.7382812 L 16.474609 9.6816406 L 16.417969 9.6816406 L 16.417969 9.6230469 L 16.359375 9.6230469 L 16.359375 9.5664062 L 16.304688 9.5664062 L 16.304688 9.5097656 L 16.248047 9.5097656 L 16.248047 9.4550781 L 16.193359 9.4550781 L 16.193359 9.4003906 L 16.140625 9.4003906 L 16.140625 9.3476562 L 16.087891 9.3476562 L 16.087891 9.2929688 L 16.035156 9.2929688 L 16.035156 9.2421875 L 15.984375 9.2421875 L 15.984375 9.1894531 L 15.931641 9.1894531 L 15.931641 9.1386719 L 15.882812 9.1386719 L 15.882812 9.0878906 L 15.833984 9.0878906 L 15.833984 9.0390625 L 15.785156 9.0390625 L 15.785156 8.9902344 L 15.736328 8.9902344 L 15.736328 8.9433594 L 15.689453 8.9433594 L 15.689453 8.8964844 L 15.642578 8.8964844 L 15.642578 8.8496094 L 15.597656 8.8496094 L 15.597656 8.8027344 L 15.552734 8.8027344 L 15.552734 8.7578125 L 15.507812 8.7578125 L 15.507812 8.7148438 L 15.464844 8.7148438 L 15.464844 8.671875 L 15.421875 8.671875 L 15.421875 8.6289062 L 15.380859 8.6289062 L 15.380859 8.5859375 L 15.339844 8.5859375 L 15.339844 8.5449219 L 15.298828 8.5449219 L 15.298828 8.5039062 L 15.257812 8.5039062 L 15.257812 8.4648438 L 15.21875 8.4648438 L 15.21875 8.4257812 L 15.181641 8.4257812 L 15.181641 8.3886719 L 15.144531 8.3886719 L 15.144531 8.3496094 L 15.107422 8.3496094 L 15.107422 8.3125 L 15.070312 8.3125 L 15.070312 8.2773438 L 15.035156 8.2773438 L 15.035156 8.2421875 L 15.001953 8.2421875 L 15.001953 8.2070312 L 14.966797 8.2070312 L 14.966797 8.1738281 L 14.933594 8.1738281 L 14.933594 8.140625 L 14.902344 8.140625 L 14.902344 8.109375 L 14.871094 8.109375 L 14.871094 8.0761719 L 14.839844 8.0761719 L 14.839844 8.046875 L 14.810547 8.046875 L 14.810547 8.015625 L 14.78125 8.015625 L 14.78125 7.9863281 L 14.751953 7.9863281 L 14.751953 7.9589844 L 14.724609 7.9589844 L 14.724609 7.9296875 L 14.697266 7.9296875 L 14.697266 7.9023438 L 14.669922 7.9023438 L 14.669922 7.8769531 L 14.644531 7.8769531 L 14.644531 7.8515625 L 14.619141 7.8515625 L 14.619141 7.8261719 L 14.595703 7.8261719 L 14.595703 7.8027344 L 14.572266 7.8027344 L 14.572266 7.7792969 L 14.550781 7.7792969 L 14.550781 7.7558594 L 14.527344 7.7558594 L 14.527344 7.734375 L 14.507812 7.734375 L 14.507812 7.7128906 L 14.486328 7.7128906 L 14.486328 7.6933594 L 14.466797 7.6933594 L 14.466797 7.6738281 L 14.447266 7.6738281 L 14.447266 7.6542969 L 14.429688 7.6542969 L 14.429688 7.6367188 L 14.412109 7.6367188 L 14.412109 7.6191406 L 14.394531 7.6191406 L 14.394531 7.6015625 L 14.378906 7.6015625 L 14.378906 7.5859375 L 14.365234 7.5859375 L 14.365234 7.5703125 L 14.349609 7.5703125 L 14.349609 7.5566406 L 14.335938 7.5566406 L 14.335938 7.5429688 L 14.322266 7.5429688 L 14.322266 7.5292969 L 14.310547 7.5292969 L 14.310547 7.5175781 L 14.298828 7.5175781 L 14.298828 7.5058594 L 14.289062 7.5058594 L 14.289062 7.4941406 L 14.279297 7.4941406 L 14.279297 7.484375 L 14.269531 7.484375 L 14.269531 7.4746094 L 14.259766 7.4746094 L 14.259766 7.4667969 L 14.251953 7.4667969 L 14.251953 7.4589844 L 14.246094 7.4589844 L 14.246094 7.4511719 L 14.240234 7.4511719 L 14.240234 7.4453125 L 14.234375 7.4453125 L 14.234375 7.4394531 L 14.228516 7.4394531 L 14.228516 7.4355469 L 14.224609 7.4355469 L 14.224609 7.4316406 L 14.222656 7.4316406 L 14.222656 7.4277344 L 14.21875 7.4277344 L 14.21875 7.4257812 L 14.216797 7.4257812 L 14.216797 7.4238281 L 14.216797 7.421875 L 14.214844 7.421875 L 13.873047 7.421875 C 13.872957 7.4193973 13.873136 7.4145121 13.873047 7.4121094 L 13.839844 7.4121094 C 13.839549 7.4036532 13.840129 7.3885685 13.839844 7.3808594 L 13.810547 7.3808594 C 13.810253 7.3724274 13.810831 7.3572981 13.810547 7.3496094 L 13.779297 7.3496094 C 13.779021 7.3417235 13.779564 7.3275398 13.779297 7.3203125 L 13.75 7.3203125 C 13.749724 7.3124266 13.750267 7.2982429 13.75 7.2910156 L 13.722656 7.2910156 C 13.722381 7.2831522 13.722923 7.2689269 13.722656 7.2617188 L 13.693359 7.2617188 C 13.693102 7.2543978 13.693609 7.2411205 13.693359 7.234375 L 13.666016 7.234375 C 13.665759 7.2270541 13.666265 7.2137767 13.666016 7.2070312 L 13.640625 7.2070312 C 13.640369 7.1997323 13.640874 7.1864141 13.640625 7.1796875 L 13.615234 7.1796875 C 13.614997 7.1729464 13.615465 7.160543 13.615234 7.1542969 L 13.589844 7.1542969 C 13.589606 7.1475558 13.590075 7.1351524 13.589844 7.1289062 L 13.566406 7.1289062 C 13.566187 7.1227176 13.56662 7.1112344 13.566406 7.1054688 L 13.542969 7.1054688 C 13.54275 7.0992801 13.543182 7.0877969 13.542969 7.0820312 L 13.519531 7.0820312 C 13.519331 7.0763727 13.519727 7.0658469 13.519531 7.0605469 L 13.498047 7.0605469 C 13.497828 7.0543582 13.49826 7.042875 13.498047 7.0371094 L 13.476562 7.0371094 C 13.47638 7.031994 13.476741 7.0223963 13.476562 7.0175781 L 13.457031 7.0175781 C 13.456831 7.0119355 13.457227 7.0013797 13.457031 6.9960938 L 13.4375 6.9960938 C 13.437318 6.9909927 13.437678 6.9813679 13.4375 6.9765625 L 13.417969 6.9765625 C 13.417787 6.9714623 13.418146 6.961836 13.417969 6.9570312 L 13.400391 6.9570312 C 13.400228 6.9524662 13.400551 6.943778 13.400391 6.9394531 L 13.382812 6.9394531 C 13.382649 6.9348881 13.382972 6.9261999 13.382812 6.921875 L 13.365234 6.921875 C 13.365071 6.9173107 13.365394 6.9086211 13.365234 6.9042969 L 13.349609 6.9042969 C 13.349465 6.9002628 13.349752 6.8925156 13.349609 6.8886719 L 13.333984 6.8886719 C 13.333858 6.8851522 13.334109 6.8783727 13.333984 6.875 L 13.320312 6.875 C 13.320168 6.870966 13.320455 6.8632188 13.320312 6.859375 L 13.306641 6.859375 C 13.306514 6.8558651 13.306765 6.8490669 13.306641 6.8457031 L 13.292969 6.8457031 C 13.292842 6.8421937 13.293093 6.8353946 13.292969 6.8320312 L 13.28125 6.8320312 C 13.281142 6.8290408 13.281357 6.8231953 13.28125 6.8203125 L 13.269531 6.8203125 C 13.269423 6.817322 13.269638 6.8114766 13.269531 6.8085938 L 13.257812 6.8085938 C 13.257722 6.8061093 13.257902 6.8012372 13.257812 6.7988281 L 13.248047 6.7988281 C 13.247957 6.7963436 13.248136 6.7914716 13.248047 6.7890625 L 13.238281 6.7890625 C 13.238191 6.786578 13.23837 6.781706 13.238281 6.7792969 L 13.230469 6.7792969 C 13.230379 6.7768195 13.230558 6.7719336 13.230469 6.7695312 L 13.222656 6.7695312 C 13.222585 6.7675612 13.222727 6.7636406 13.222656 6.7617188 L 13.216797 6.7617188 C 13.216743 6.7602458 13.21685 6.757305 13.216797 6.7558594 L 13.208984 6.7558594 C 13.208931 6.7543866 13.209038 6.7514455 13.208984 6.75 L 13.203125 6.75 C 13.203071 6.7485272 13.203178 6.7455861 13.203125 6.7441406 L 13.199219 6.7441406 C 13.199165 6.7426721 13.199272 6.7397227 13.199219 6.7382812 L 13.195312 6.7382812 C 13.195277 6.7373082 13.195348 6.7353359 13.195312 6.734375 L 13.191406 6.734375 C 13.191406 6.734375 13.191406 6.7324219 13.191406 6.7324219 L 13.189453 6.7324219 C 13.189417 6.7314488 13.189489 6.7294766 13.189453 6.7285156 L 13.1875 6.7285156 C 13.1875 6.7285156 13.1875 6.7265625 13.1875 6.7265625 C 13.1875 6.7265625 13.185547 6.7265625 13.185547 6.7265625 C 13.185547 6.7265625 13.185547 6.7246094 13.185547 6.7246094 L 12.478516 6.7246094 C 12.475858 6.72168 12.475363 6.7177517 12.472656 6.7148438 C 12.46269 6.7041806 12.449658 6.7013598 12.439453 6.6914062 C 12.433285 6.6843587 12.432227 6.6748944 12.425781 6.6679688 C 12.416448 6.657983 12.404074 6.6558478 12.394531 6.6464844 C 12.388333 6.6393999 12.387338 6.6300082 12.380859 6.6230469 C 12.371278 6.6127961 12.359411 6.6092044 12.349609 6.5996094 C 12.343772 6.5929624 12.342023 6.5846634 12.335938 6.578125 C 12.326357 6.5678742 12.314489 6.5642825 12.304688 6.5546875 C 12.298879 6.548076 12.297069 6.5397072 12.291016 6.5332031 C 12.282071 6.5236329 12.270856 6.5207174 12.261719 6.5117188 C 12.255911 6.5051072 12.2541 6.4967384 12.248047 6.4902344 C 12.239136 6.4807004 12.227852 6.4777167 12.21875 6.46875 C 12.212942 6.4621385 12.211132 6.4537697 12.205078 6.4472656 C 12.196167 6.4377316 12.184883 6.434748 12.175781 6.4257812 C 12.169992 6.419192 12.168143 6.4107793 12.162109 6.4042969 C 12.153507 6.3950935 12.143545 6.3914873 12.134766 6.3828125 C 12.129319 6.3766361 12.126755 6.3693637 12.121094 6.3632812 C 12.112778 6.3543844 12.102231 6.3521529 12.09375 6.34375 C 12.088507 6.3378171 12.087472 6.3300648 12.082031 6.3242188 C 12.073506 6.3150971 12.063388 6.3113367 12.054688 6.3027344 C 12.049241 6.2965579 12.046677 6.2892856 12.041016 6.2832031 C 12.0327 6.2743063 12.022153 6.2720747 12.013672 6.2636719 C 12.008455 6.2577701 12.007366 6.2499565 12.001953 6.2441406 C 11.994027 6.2356603 11.984639 6.2326409 11.976562 6.2246094 C 11.971711 6.2191412 11.969864 6.2124255 11.964844 6.2070312 C 11.957658 6.1993432 11.948716 6.1967723 11.941406 6.1894531 C 11.935598 6.1828416 11.933788 6.1744728 11.927734 6.1679688 C 11.919462 6.1591175 11.908828 6.1567998 11.900391 6.1484375 C 11.896117 6.1436499 11.895028 6.1375432 11.890625 6.1328125 C 11.882769 6.1244076 11.873238 6.1212452 11.865234 6.1132812 C 11.860383 6.1078131 11.858536 6.1010973 11.853516 6.0957031 C 11.846265 6.0879459 11.837455 6.0855067 11.830078 6.078125 C 11.825226 6.0726569 11.82338 6.0659411 11.818359 6.0605469 C 11.811785 6.0535127 11.803553 6.0516473 11.796875 6.0449219 C 11.791658 6.0390201 11.790569 6.0312064 11.785156 6.0253906 C 11.777272 6.0169549 11.767799 6.013851 11.759766 6.0058594 C 11.755884 6.0015284 11.753988 5.9964719 11.75 5.9921875 C 11.74275 5.9844302 11.733939 5.9819911 11.726562 5.9746094 C 11.722311 5.9698471 11.721177 5.9636904 11.716797 5.9589844 C 11.710222 5.9519502 11.701991 5.9500848 11.695312 5.9433594 C 11.691061 5.9385971 11.689927 5.9324404 11.685547 5.9277344 C 11.679031 5.9207631 11.67068 5.9187774 11.664062 5.9121094 C 11.659789 5.9073218 11.6587 5.9012151 11.654297 5.8964844 C 11.647781 5.8895131 11.63943 5.8875274 11.632812 5.8808594 C 11.628561 5.8760971 11.627427 5.8699404 11.623047 5.8652344 C 11.616531 5.8582631 11.60818 5.8562774 11.601562 5.8496094 C 11.597325 5.8448633 11.596162 5.8386745 11.591797 5.8339844 C 11.585612 5.8273667 11.578543 5.8247037 11.572266 5.8183594 C 11.568396 5.8140417 11.566475 5.8089588 11.5625 5.8046875 C 11.556601 5.7983764 11.548951 5.7970782 11.542969 5.7910156 C 11.539323 5.7869569 11.538896 5.7813615 11.535156 5.7773438 C 11.530366 5.7722184 11.524377 5.7705864 11.519531 5.765625 C 11.514679 5.7601569 11.512833 5.7534411 11.507812 5.7480469 C 11.501272 5.741049 11.492971 5.7391142 11.486328 5.7324219 C 11.483657 5.7294772 11.483189 5.7255793 11.480469 5.7226562 C 11.474623 5.7164017 11.466865 5.7149948 11.460938 5.7089844 C 11.457292 5.7049256 11.456864 5.6993303 11.453125 5.6953125 C 11.447616 5.6894179 11.441129 5.6873184 11.435547 5.6816406 C 11.432275 5.6780116 11.431081 5.673518 11.427734 5.6699219 C 11.422538 5.6643618 11.415418 5.6635703 11.410156 5.6582031 C 11.40651 5.6541444 11.406083 5.648549 11.402344 5.6445312 C 11.39751 5.6393597 11.391608 5.6378171 11.386719 5.6328125 C 11.383447 5.6291835 11.382253 5.6246899 11.378906 5.6210938 C 11.374116 5.6159684 11.368127 5.6143364 11.363281 5.609375 C 11.360009 5.605746 11.358816 5.6012524 11.355469 5.5976562 C 11.350678 5.5925309 11.344689 5.5908989 11.339844 5.5859375 C 11.336572 5.5823085 11.335378 5.5778149 11.332031 5.5742188 C 11.327198 5.5690472 11.321296 5.5675047 11.316406 5.5625 C 11.313749 5.5595706 11.313253 5.5556423 11.310547 5.5527344 C 11.305713 5.5475628 11.299812 5.5460203 11.294922 5.5410156 C 11.292264 5.5380862 11.291769 5.5341579 11.289062 5.53125 C 11.284905 5.5268017 11.27959 5.5258092 11.275391 5.5214844 C 11.272733 5.518555 11.272238 5.5146267 11.269531 5.5117188 C 11.265411 5.5073102 11.260021 5.5062404 11.255859 5.5019531 C 11.253202 5.4990237 11.252706 5.4950954 11.25 5.4921875 C 11.24588 5.4877791 11.240489 5.486709 11.236328 5.4824219 C 11.233671 5.4794925 11.233175 5.4755642 11.230469 5.4726562 C 11.226701 5.4686251 11.222552 5.4668204 11.21875 5.4628906 C 11.216472 5.4603886 11.215205 5.4575644 11.212891 5.4550781 C 11.209156 5.4510821 11.20494 5.4492089 11.201172 5.4453125 C 11.198894 5.4428105 11.197627 5.4399863 11.195312 5.4375 C 11.191577 5.4335031 11.187363 5.4316316 11.183594 5.4277344 C 11.181316 5.4252324 11.180048 5.4224082 11.177734 5.4199219 C 11.174254 5.4161978 11.169525 5.4157469 11.166016 5.4121094 C 11.163978 5.4098772 11.164175 5.4065166 11.162109 5.4042969 C 11.158628 5.4005716 11.153902 5.400123 11.150391 5.3964844 C 11.148353 5.3942522 11.14855 5.3908916 11.146484 5.3886719 C 11.143677 5.3856687 11.139545 5.3857594 11.136719 5.3828125 C 11.134681 5.3805803 11.134878 5.3772197 11.132812 5.375 C 11.13003 5.3720234 11.125848 5.372062 11.123047 5.3691406 C 11.12101 5.3669084 11.121207 5.3635478 11.119141 5.3613281 C 11.116358 5.3583512 11.112176 5.3583904 11.109375 5.3554688 C 11.107338 5.3532365 11.107535 5.3498759 11.105469 5.3476562 C 11.103052 5.3450704 11.100087 5.3443409 11.097656 5.3417969 C 11.096001 5.3399906 11.095424 5.3377356 11.09375 5.3359375 C 11.091356 5.3333757 11.088346 5.3325989 11.085938 5.3300781 C 11.084283 5.3282718 11.083705 5.3260168 11.082031 5.3242188 C 11.080686 5.3227793 11.079475 5.321739 11.078125 5.3203125 C 11.075847 5.3178105 11.07458 5.3149863 11.072266 5.3125 C 11.069188 5.3092075 11.063647 5.3059592 11.060547 5.3027344 C 11.058799 5.3009276 11.056442 5.3006134 11.054688 5.2988281 C 11.053657 5.2977096 11.053772 5.2960372 11.052734 5.2949219 C 11.050725 5.2927718 11.048894 5.2911837 11.046875 5.2890625 C 11.045605 5.2876812 11.04425 5.2865327 11.042969 5.2851562 C 11.041227 5.2832927 11.038858 5.2830919 11.037109 5.28125 C 11.036084 5.280137 11.036189 5.2784536 11.035156 5.2773438 C 11.033134 5.2751796 11.031329 5.2736192 11.029297 5.2714844 C 11.027572 5.2696392 11.025169 5.269402 11.023438 5.2675781 C 11.022416 5.2664695 11.022513 5.2647774 11.021484 5.2636719 C 11.021484 5.2636719 11.019531 5.2617188 11.019531 5.2617188 C 11.019531 5.2617188 11.017578 5.2597656 11.017578 5.2597656 C 11.015551 5.2576234 11.013756 5.2560193 11.011719 5.2539062 C 11.011719 5.2539062 11.009766 5.2519531 11.009766 5.2519531 C 11.009766 5.2519531 11.007812 5.25 11.007812 5.25 C 11.007812 5.25 11.005859 5.2480469 11.005859 5.2480469 C 11.005859 5.2480469 11.003906 5.2460938 11.003906 5.2460938 C 11.003906 5.2460938 11.001953 5.2460938 11.001953 5.2460938 C 11.001953 5.2460938 11.001953 5.2441406 11.001953 5.2441406 C 11.001953 5.2441406 11 5.2441406 11 5.2441406 C 11 5.2441406 11 5.2421875 11 5.2421875 C 11 5.2421875 11 5.2402344 11 5.2402344 C 11 5.2402344 10.998047 5.2402344 10.998047 5.2402344 C 10.9237 5.1606892 10.843475 5.1025915 10.755859 5.0625 C 10.755859 5.0625 10.753906 5.0625 10.753906 5.0625 C 10.753906 5.0625 10.753906 5.0605469 10.753906 5.0605469 C 10.665949 5.0207136 10.568089 5.0002592 10.466797 5 z " />
    <g
       id="g4284"
       transform="matrix(0.31789427,0,0,0.31789427,5,5)" />
    <g
       id="g4286"
       transform="matrix(0.31789427,0,0,0.31789427,5,5)" />
    <g
       id="g4288"
       transform="matrix(0.31789427,0,0,0.31789427,5,5)" />
    <g
       id="g4290"
       transform="matrix(0.31789427,0,0,0.31789427,5,5)" />
    <g
       id="g4292"
       transform="matrix(0.31789427,0,0,0.31789427,5,5)" />
    <g
       id="g4294"
       transform="matrix(0.31789427,0,0,0.31789427,5,5)" />
    <g
       id="g4296"
       transform="matrix(0.31789427,0,0,0.31789427,5,5)" />
    <g
       id="g4298"
       transform="matrix(0.31789427,0,0,0.31789427,5,5)" />
    <g
       id="g4300"
       transform="matrix(0.31789427,0,0,0.31789427,5,5)" />
    <g
       id="g4302"
       transform="matrix(0.31789427,0,0,0.31789427,5,5)" />
    <g
       id="g4304"
       transform="matrix(0.31789427,0,0,0.31789427,5,5)" />
    <g
       id="g4306"
       transform="matrix(0.31789427,0,0,0.31789427,5,5)" />
    <g
       id="g4308"
       transform="matrix(0.31789427,0,0,0.31789427,5,5)" />
    <g
       id="g4310"
       transform="matrix(0.31789427,0,0,0.31789427,5,5)" />
    <g
       id="g4312"
       transform="matrix(0.31789427,0,0,0.31789427,5,5)" />
    <path
       d="M 5.1484375 5.1484375 L 5.1484375 7.9023438 L 6.1699219 8.921875 L 6.1699219 8.9238281 L 6.4550781 9.2070312 L 6.4550781 9.2089844 L 6.8769531 9.6289062 L 6.8769531 9.6308594 L 7.2929688 10.044922 L 7.2929688 10.046875 L 7.9707031 10.722656 L 7.9707031 10.724609 L 8.4375 11.189453 L 8.9472656 11.699219 L 9.015625 11.767578 L 9.015625 11.769531 L 9.1113281 11.863281 L 9.1601562 11.912109 L 9.1601562 11.914062 L 9.171875 11.925781 L 9.2871094 12.041016 L 10.013672 12.765625 L 10.013672 12.767578 L 10.255859 13.009766 L 10.292969 13.046875 L 10.294922 13.048828 L 10.318359 13.072266 L 9.4960938 13.894531 L 9.7929688 14.191406 L 10.085938 14.484375 L 10.314453 14.712891 L 10.359375 14.757812 L 10.419922 14.818359 L 10.460938 14.861328 L 10.660156 15.058594 L 10.660156 15.060547 L 10.755859 15.154297 L 10.902344 15.300781 L 11.046875 15.445312 L 11.226562 15.625 L 11.335938 15.734375 L 11.478516 15.876953 L 11.503906 15.902344 L 11.621094 16.019531 L 11.902344 16.300781 L 12.050781 16.449219 L 12.181641 16.580078 L 12.183594 16.582031 L 12.183594 16.583984 L 12.320312 16.71875 L 12.402344 16.800781 L 12.431641 16.830078 L 12.449219 16.847656 L 12.451172 16.849609 L 12.457031 16.857422 L 12.458984 16.857422 L 12.595703 16.994141 L 12.634766 17.033203 L 12.673828 17.072266 L 12.701172 17.099609 L 12.705078 17.103516 L 12.714844 17.115234 L 12.730469 17.130859 L 12.867188 17.265625 L 12.976562 17.375 L 12.976562 17.376953 L 13.001953 17.400391 L 13.083984 17.482422 L 13.105469 17.505859 L 13.107422 17.505859 L 13.109375 17.509766 L 13.134766 17.535156 L 13.136719 17.535156 L 13.269531 17.667969 L 13.306641 17.705078 L 13.357422 17.755859 L 13.400391 17.800781 L 13.492188 17.890625 L 13.617188 18.015625 L 13.617188 18.017578 L 13.664062 18.0625 L 13.794922 18.193359 L 13.923828 18.322266 L 13.992188 18.390625 L 13.992188 18.392578 L 14.181641 18.580078 L 14.308594 18.707031 L 14.435547 18.833984 L 14.484375 18.882812 L 14.685547 19.083984 L 14.810547 19.208984 L 14.933594 19.332031 L 15.078125 19.476562 L 15.078125 19.478516 L 15.179688 19.578125 L 15.195312 19.59375 L 15.195312 19.595703 L 15.300781 19.699219 L 15.421875 19.820312 L 15.541016 19.939453 L 15.542969 19.941406 L 15.779297 20.177734 L 15.896484 20.294922 L 16.013672 20.412109 L 16.029297 20.427734 L 16.03125 20.429688 L 16.060547 20.460938 L 16.128906 20.529297 L 16.244141 20.644531 L 16.246094 20.644531 L 16.359375 20.757812 L 16.455078 20.853516 L 16.464844 20.865234 L 16.472656 20.873047 L 16.585938 20.986328 L 16.587891 20.986328 L 16.699219 21.097656 L 16.730469 21.130859 L 16.740234 21.140625 L 16.810547 21.210938 L 16.8125 21.210938 L 16.921875 21.320312 L 17.142578 21.541016 L 17.167969 21.566406 L 17.203125 21.601562 L 17.25 21.650391 L 17.300781 21.699219 L 17.359375 21.757812 L 17.572266 21.970703 L 17.578125 21.976562 L 17.580078 21.980469 L 17.613281 22.013672 L 17.615234 22.015625 L 17.677734 22.078125 L 17.679688 22.078125 L 17.681641 22.080078 L 17.78125 22.179688 L 17.783203 22.181641 L 17.992188 22.390625 L 18.025391 22.423828 L 18.050781 22.451172 L 18.064453 22.464844 L 18.09375 22.494141 L 18.095703 22.494141 L 18.197266 22.595703 L 18.21875 22.617188 L 18.251953 22.650391 L 18.263672 22.664062 L 18.285156 22.685547 L 18.296875 22.697266 L 18.498047 22.896484 L 18.597656 22.996094 L 18.792969 23.191406 L 18.986328 23.384766 L 19.082031 23.480469 L 19.089844 23.490234 L 19.121094 23.521484 L 19.175781 23.576172 L 19.177734 23.576172 L 19.269531 23.669922 L 19.271484 23.669922 L 19.457031 23.855469 L 19.490234 23.888672 L 19.496094 23.894531 L 19.498047 23.896484 L 19.521484 23.921875 L 19.523438 23.923828 L 19.546875 23.947266 L 19.548828 23.947266 L 19.638672 24.037109 L 19.644531 24.042969 L 19.644531 24.044922 L 19.664062 24.064453 L 19.707031 24.107422 L 19.728516 24.128906 L 19.730469 24.128906 L 19.818359 24.216797 L 19.875 24.273438 L 19.892578 24.291016 L 19.900391 24.298828 L 19.904297 24.304688 L 19.90625 24.306641 L 19.908203 24.306641 L 19.9375 24.335938 L 20.082031 24.480469 L 20.09375 24.492188 L 20.097656 24.496094 L 20.099609 24.498047 L 20.103516 24.501953 L 20.103516 24.503906 L 20.167969 24.568359 L 20.253906 24.654297 L 20.298828 24.697266 L 20.410156 24.808594 L 20.423828 24.822266 L 20.507812 24.90625 L 20.527344 24.925781 L 20.533203 24.931641 L 20.546875 24.947266 L 20.550781 24.951172 L 20.589844 24.990234 L 20.671875 25.072266 L 20.724609 25.123047 L 20.753906 25.152344 L 20.78125 25.179688 L 20.78125 25.181641 L 20.855469 25.253906 L 20.914062 25.3125 L 20.976562 25.375 L 20.976562 25.376953 L 20.978516 25.378906 L 20.980469 25.380859 L 20.992188 25.392578 L 20.994141 25.392578 L 20.996094 25.394531 L 20.996094 25.396484 L 21.072266 25.470703 L 21.085938 25.484375 L 21.111328 25.509766 L 21.121094 25.519531 L 21.123047 25.523438 L 21.125 25.525391 L 21.128906 25.529297 L 21.148438 25.548828 L 21.177734 25.578125 L 21.179688 25.580078 L 21.181641 25.580078 L 21.302734 25.701172 L 21.310547 25.708984 L 21.3125 25.710938 L 21.3125 25.712891 L 21.314453 25.714844 L 21.320312 25.720703 L 21.355469 25.755859 L 21.376953 25.777344 L 21.451172 25.851562 L 21.582031 25.982422 L 21.583984 25.982422 L 21.585938 25.984375 L 21.599609 25.998047 L 21.601562 26 L 21.671875 26.070312 L 21.683594 26.082031 L 21.697266 26.095703 L 21.730469 26.128906 L 21.730469 26.130859 L 21.732422 26.132812 L 21.734375 26.134766 L 21.738281 26.138672 L 21.789062 26.1875 L 21.789062 26.189453 L 21.814453 26.212891 L 21.884766 26.283203 L 21.888672 26.287109 L 21.894531 26.292969 L 21.894531 26.294922 L 21.904297 26.304688 L 21.935547 26.335938 L 21.953125 26.353516 L 22.021484 26.421875 L 22.087891 26.488281 L 22.089844 26.490234 L 22.091797 26.490234 L 22.158203 26.556641 L 22.224609 26.623047 L 22.248047 26.646484 L 22.267578 26.666016 L 22.269531 26.667969 L 22.275391 26.675781 L 22.277344 26.677734 L 22.289062 26.689453 L 22.291016 26.689453 L 22.355469 26.753906 L 22.373047 26.771484 L 22.376953 26.775391 L 22.378906 26.777344 L 22.386719 26.787109 L 22.394531 26.794922 L 22.417969 26.818359 L 22.419922 26.818359 L 22.421875 26.820312 L 22.421875 26.822266 L 22.527344 26.925781 L 22.527344 26.927734 L 22.544922 26.943359 L 22.607422 27.005859 L 22.728516 27.126953 L 22.730469 27.128906 L 22.828125 27.226562 L 22.847656 27.246094 L 22.875 27.273438 L 22.90625 27.304688 L 22.921875 27.320312 L 22.935547 27.333984 L 22.9375 27.335938 L 22.9375 27.337891 L 22.939453 27.339844 L 22.947266 27.347656 L 22.962891 27.363281 L 23.019531 27.419922 L 23.021484 27.419922 L 23.054688 27.453125 L 23.054688 27.455078 L 23.076172 27.474609 L 23.085938 27.484375 L 23.09375 27.492188 L 23.09375 27.494141 L 23.095703 27.496094 L 23.097656 27.498047 L 23.130859 27.53125 L 23.185547 27.585938 L 23.216797 27.617188 L 23.21875 27.617188 L 23.220703 27.619141 L 23.292969 27.691406 L 23.345703 27.744141 L 23.355469 27.753906 L 23.363281 27.761719 L 23.365234 27.763672 L 23.365234 27.765625 L 23.367188 27.767578 L 23.373047 27.773438 L 23.382812 27.783203 L 23.396484 27.796875 L 23.447266 27.847656 L 23.449219 27.847656 L 23.498047 27.896484 L 23.505859 27.904297 L 23.513672 27.912109 L 23.521484 27.919922 L 23.53125 27.929688 L 23.537109 27.935547 L 23.541016 27.939453 L 23.541016 27.941406 L 23.542969 27.943359 L 23.546875 27.947266 L 23.595703 27.996094 L 23.642578 28.042969 L 23.644531 28.042969 L 23.660156 28.058594 L 23.660156 28.060547 L 23.691406 28.089844 L 23.693359 28.091797 L 23.722656 28.121094 L 23.722656 28.123047 L 23.738281 28.136719 L 23.8125 28.210938 L 23.828125 28.226562 L 23.873047 28.271484 L 23.916016 28.314453 L 23.917969 28.316406 L 23.958984 28.357422 L 23.96875 28.367188 L 23.974609 28.373047 L 23.980469 28.378906 L 23.982422 28.380859 L 23.982422 28.382812 L 23.984375 28.384766 L 23.992188 28.392578 L 24 28.400391 L 24.041016 28.441406 L 24.042969 28.441406 L 24.078125 28.476562 L 24.082031 28.480469 L 24.083984 28.482422 L 24.083984 28.484375 L 24.087891 28.488281 L 24.09375 28.494141 L 24.095703 28.496094 L 24.101562 28.501953 L 24.109375 28.509766 L 24.121094 28.521484 L 24.160156 28.560547 L 24.162109 28.560547 L 24.199219 28.597656 L 24.214844 28.613281 L 24.226562 28.625 L 24.226562 28.626953 L 24.253906 28.652344 L 24.273438 28.671875 L 24.275391 28.673828 L 24.279297 28.677734 L 24.285156 28.683594 L 24.287109 28.685547 L 24.287109 28.6875 L 24.289062 28.689453 L 24.292969 28.693359 L 24.294922 28.693359 L 24.296875 28.697266 L 24.302734 28.703125 L 24.308594 28.708984 L 24.310547 28.708984 L 24.34375 28.744141 L 24.345703 28.744141 L 24.347656 28.746094 L 24.378906 28.777344 L 24.382812 28.78125 L 24.388672 28.787109 L 24.392578 28.791016 L 24.398438 28.796875 L 24.400391 28.798828 L 24.400391 28.800781 L 24.402344 28.802734 L 24.40625 28.806641 L 24.412109 28.8125 L 24.445312 28.845703 L 24.458984 28.859375 L 24.460938 28.859375 L 24.478516 28.876953 L 24.509766 28.908203 L 24.541016 28.939453 L 24.542969 28.941406 L 24.542969 28.943359 L 24.570312 28.970703 L 24.599609 29 L 24.615234 29.015625 L 24.617188 29.015625 L 24.619141 29.017578 L 24.621094 29.019531 L 24.628906 29.027344 L 24.65625 29.054688 L 24.683594 29.082031 L 24.736328 29.134766 L 24.738281 29.136719 L 24.740234 29.138672 L 24.740234 29.140625 L 24.742188 29.142578 L 24.755859 29.15625 L 24.757812 29.158203 L 24.759766 29.160156 L 24.761719 29.162109 L 24.763672 29.162109 L 24.765625 29.164062 L 24.785156 29.183594 L 24.808594 29.207031 L 24.810547 29.208984 L 24.8125 29.210938 L 24.814453 29.212891 L 24.816406 29.214844 L 24.818359 29.216797 L 24.820312 29.21875 L 24.820312 29.220703 L 24.822266 29.222656 L 24.824219 29.224609 L 24.826172 29.226562 L 24.828125 29.228516 L 24.830078 29.230469 L 24.832031 29.230469 L 24.853516 29.251953 L 24.853516 29.253906 L 24.875 29.275391 L 24.876953 29.277344 L 24.878906 29.279297 L 24.880859 29.28125 L 24.882812 29.28125 L 24.884766 29.283203 L 24.886719 29.285156 L 24.888672 29.287109 L 24.890625 29.289062 L 24.892578 29.291016 L 24.894531 29.292969 L 24.933594 29.332031 L 24.951172 29.349609 L 24.96875 29.367188 L 24.970703 29.369141 L 24.972656 29.371094 L 24.974609 29.373047 L 24.978516 29.376953 L 24.978516 29.378906 L 24.980469 29.380859 L 24.982422 29.382812 L 24.984375 29.384766 L 24.986328 29.384766 L 25.001953 29.400391 L 25.003906 29.402344 L 25.009766 29.408203 L 25.009766 29.410156 L 25.011719 29.412109 L 25.013672 29.414062 L 25.015625 29.416016 L 25.017578 29.417969 L 25.019531 29.419922 L 25.021484 29.421875 L 25.023438 29.423828 L 25.025391 29.423828 L 25.03125 29.429688 L 25.044922 29.443359 L 25.056641 29.455078 L 25.056641 29.457031 L 25.058594 29.457031 L 25.070312 29.46875 L 25.091797 29.490234 L 25.091797 29.492188 L 25.101562 29.501953 L 25.103516 29.501953 L 25.111328 29.509766 L 25.119141 29.519531 L 25.126953 29.527344 L 25.128906 29.527344 L 25.134766 29.533203 L 25.140625 29.541016 L 25.142578 29.541016 L 25.146484 29.544922 L 25.15625 29.554688 L 25.158203 29.558594 L 25.162109 29.560547 L 25.164062 29.5625 L 26.716797 28.021484 L 26.746094 28.050781 L 26.748047 28.052734 L 26.759766 28.0625 L 26.810547 28.113281 L 26.818359 28.121094 L 26.828125 28.130859 L 26.835938 28.138672 L 26.835938 28.140625 L 26.839844 28.144531 L 26.859375 28.164062 C 26.860708 28.165395 26.861939 28.166652 26.863281 28.167969 L 26.865234 28.169922 L 26.910156 28.212891 L 26.958984 28.261719 L 26.962891 28.265625 L 26.96875 28.271484 L 26.980469 28.283203 L 26.984375 28.289062 L 26.986328 28.291016 L 27.005859 28.310547 L 27.052734 28.357422 C 27.052734 28.357422 27.054688 28.359375 27.054688 28.359375 L 27.058594 28.361328 L 27.099609 28.402344 L 27.103516 28.40625 L 27.126953 28.429688 L 27.136719 28.439453 L 27.138672 28.441406 L 27.142578 28.445312 L 27.142578 28.447266 L 27.144531 28.449219 L 27.189453 28.494141 C 27.189453 28.494141 27.191406 28.496094 27.191406 28.496094 L 27.193359 28.498047 L 27.195312 28.498047 L 27.197266 28.5 L 27.205078 28.507812 L 27.234375 28.537109 L 27.261719 28.564453 L 27.269531 28.572266 L 27.275391 28.578125 L 27.275391 28.580078 L 27.277344 28.582031 L 27.320312 28.625 C 27.320312 28.625 27.322266 28.626953 27.322266 28.626953 C 27.322266 28.626953 27.324219 28.628906 27.324219 28.628906 L 27.335938 28.640625 L 27.337891 28.640625 L 27.339844 28.642578 L 27.363281 28.666016 L 27.404297 28.707031 L 27.410156 28.712891 L 27.412109 28.714844 L 27.414062 28.716797 L 27.414062 28.71875 L 27.431641 28.736328 L 27.443359 28.748047 C 27.443359 28.748047 27.445312 28.75 27.445312 28.75 C 27.445312 28.75 27.447266 28.751953 27.447266 28.751953 L 27.457031 28.761719 L 27.458984 28.761719 L 27.460938 28.763672 L 27.484375 28.787109 L 27.523438 28.826172 L 27.533203 28.835938 L 27.542969 28.845703 L 27.544922 28.847656 L 27.544922 28.849609 L 27.546875 28.851562 L 27.552734 28.857422 L 27.560547 28.865234 L 27.597656 28.902344 L 27.634766 28.939453 C 27.634766 28.939453 27.636719 28.941406 27.636719 28.941406 L 27.638672 28.943359 L 27.640625 28.943359 L 27.671875 28.974609 L 27.707031 29.009766 L 27.712891 29.015625 L 27.722656 29.025391 L 27.726562 29.029297 L 27.728516 29.03125 L 27.728516 29.033203 L 27.730469 29.035156 L 27.736328 29.041016 L 27.740234 29.044922 C 27.741567 29.046255 27.742798 29.047511 27.744141 29.048828 L 27.759766 29.064453 L 27.761719 29.064453 L 27.763672 29.066406 L 27.775391 29.078125 L 27.808594 29.111328 L 27.810547 29.113281 L 27.8125 29.115234 L 27.8125 29.117188 L 27.837891 29.142578 L 27.839844 29.144531 L 27.871094 29.175781 L 27.902344 29.207031 L 27.931641 29.236328 L 27.933594 29.238281 L 27.935547 29.238281 C 27.935547 29.238281 27.9375 29.240234 27.9375 29.240234 L 27.962891 29.265625 L 27.964844 29.267578 L 27.966797 29.269531 L 27.966797 29.271484 L 27.96875 29.273438 L 27.970703 29.275391 L 27.990234 29.294922 L 28.017578 29.322266 L 28.044922 29.349609 C 28.046255 29.350942 28.047486 29.352198 28.048828 29.353516 L 28.064453 29.367188 L 28.072266 29.375 L 28.097656 29.400391 L 28.123047 29.425781 L 28.126953 29.429688 L 28.130859 29.433594 L 28.132812 29.4375 L 28.142578 29.447266 L 28.146484 29.451172 L 28.169922 29.474609 L 28.173828 29.478516 L 28.175781 29.478516 L 28.193359 29.496094 L 28.214844 29.517578 L 28.236328 29.539062 L 28.238281 29.541016 L 28.240234 29.542969 L 28.242188 29.544922 L 28.244141 29.546875 L 28.251953 29.556641 L 28.253906 29.558594 L 28.255859 29.560547 L 28.275391 29.580078 C 28.277123 29.581811 28.279501 29.582278 28.28125 29.583984 L 28.294922 29.597656 L 28.296875 29.599609 L 28.298828 29.601562 L 28.300781 29.603516 L 28.302734 29.605469 L 28.310547 29.613281 L 28.310547 29.615234 L 28.3125 29.617188 L 28.330078 29.634766 C 28.331811 29.636498 28.334189 29.636966 28.335938 29.638672 L 28.347656 29.650391 L 28.363281 29.666016 L 28.378906 29.681641 L 28.380859 29.683594 L 28.380859 29.685547 L 28.392578 29.697266 L 28.40625 29.710938 C 28.407983 29.71267 28.41036 29.713138 28.412109 29.714844 L 28.419922 29.722656 L 28.431641 29.736328 C 28.433373 29.738061 28.435751 29.738528 28.4375 29.740234 L 28.443359 29.746094 L 28.453125 29.757812 C 28.454858 29.759545 28.457235 29.760013 28.458984 29.761719 L 28.464844 29.767578 L 28.472656 29.777344 C 28.474389 29.779076 28.476767 29.779544 28.478516 29.78125 L 28.482422 29.785156 L 28.490234 29.792969 L 28.496094 29.800781 L 28.501953 29.806641 L 28.507812 29.8125 C 28.509545 29.814233 28.511923 29.8147 28.513672 29.816406 L 28.517578 29.820312 L 28.521484 29.824219 L 28.523438 29.826172 L 28.525391 29.828125 L 28.525391 29.830078 C 28.581238 29.885926 28.64621 29.926825 28.714844 29.955078 C 28.714844 29.955078 28.716797 29.957031 28.716797 29.957031 C 28.855304 30.0133 29.011734 30.012812 29.150391 29.957031 C 29.150879 29.956833 29.151856 29.957231 29.152344 29.957031 C 29.221899 29.928774 29.287236 29.886592 29.34375 29.830078 L 29.830078 29.34375 C 29.830479 29.34335 29.829679 29.342198 29.830078 29.341797 C 29.88619 29.285684 29.928865 29.221433 29.957031 29.152344 C 29.957273 29.151745 29.956791 29.15099 29.957031 29.150391 C 30.012956 29.010743 30.012019 28.853648 29.953125 28.712891 C 29.952922 28.712406 29.953329 28.711422 29.953125 28.710938 C 29.933698 28.663914 29.897548 28.624145 29.865234 28.582031 C 29.849731 28.562053 29.842649 28.537961 29.824219 28.519531 L 29.822266 28.517578 L 29.818359 28.513672 L 29.816406 28.511719 L 29.8125 28.507812 L 29.806641 28.501953 L 29.800781 28.496094 L 29.794922 28.490234 L 29.787109 28.482422 L 29.779297 28.474609 L 29.771484 28.466797 L 29.761719 28.457031 L 29.751953 28.447266 L 29.742188 28.4375 L 29.730469 28.425781 L 29.716797 28.414062 L 29.708984 28.40625 L 29.705078 28.400391 L 29.691406 28.386719 L 29.675781 28.371094 L 29.662109 28.357422 L 29.644531 28.339844 L 29.628906 28.324219 L 29.611328 28.306641 L 29.59375 28.289062 L 29.574219 28.269531 L 29.554688 28.25 L 29.533203 28.228516 L 29.513672 28.208984 L 29.490234 28.185547 L 29.46875 28.164062 L 29.419922 28.115234 L 29.396484 28.091797 L 29.371094 28.066406 L 29.34375 28.039062 L 29.316406 28.011719 L 29.289062 27.984375 L 29.259766 27.955078 L 29.230469 27.925781 L 29.201172 27.896484 L 29.169922 27.865234 L 29.138672 27.833984 L 29.105469 27.800781 L 29.087891 27.783203 L 29.085938 27.783203 L 29.083984 27.78125 L 29.082031 27.779297 L 29.072266 27.769531 L 29.039062 27.736328 L 29.039062 27.734375 L 29.037109 27.732422 L 29.03125 27.726562 L 29.029297 27.724609 L 29.027344 27.722656 L 29.025391 27.720703 L 29.023438 27.720703 L 29.005859 27.703125 L 29.003906 27.701172 L 28.96875 27.666016 L 28.9375 27.634766 L 28.935547 27.632812 L 28.935547 27.630859 L 28.933594 27.628906 L 28.896484 27.591797 L 28.859375 27.554688 L 28.820312 27.515625 L 28.796875 27.492188 L 28.794922 27.492188 L 28.792969 27.490234 L 28.789062 27.486328 L 28.785156 27.482422 L 28.78125 27.478516 L 28.746094 27.443359 L 28.746094 27.441406 L 28.742188 27.4375 L 28.701172 27.396484 L 28.660156 27.355469 L 28.619141 27.314453 L 28.576172 27.271484 L 28.533203 27.228516 L 28.488281 27.183594 L 28.443359 27.138672 L 28.398438 27.09375 L 28.351562 27.046875 L 28.304688 27 L 28.255859 26.951172 L 28.207031 26.902344 L 28.158203 26.853516 L 28.15625 26.851562 L 28.144531 26.839844 L 28.142578 26.837891 L 28.140625 26.837891 L 28.107422 26.804688 L 28.060547 26.757812 L 28.060547 26.755859 L 28.058594 26.753906 L 28.056641 26.751953 L 28.015625 26.710938 L 29.564453 25.164062 L 29.5625 25.162109 L 29.560547 25.160156 L 29.558594 25.158203 L 29.554688 25.154297 L 29.550781 25.150391 L 29.546875 25.146484 L 29.541016 25.140625 L 29.533203 25.134766 L 29.527344 25.126953 L 29.519531 25.119141 L 29.509766 25.111328 L 29.501953 25.101562 L 29.492188 25.091797 L 29.480469 25.080078 L 29.478516 25.080078 L 29.46875 25.070312 L 29.457031 25.058594 L 29.457031 25.056641 L 29.445312 25.044922 L 29.443359 25.044922 L 29.429688 25.03125 L 29.429688 25.029297 L 29.419922 25.019531 L 29.417969 25.017578 L 29.416016 25.015625 L 29.400391 25 L 29.384766 24.984375 L 29.382812 24.982422 L 29.380859 24.980469 L 29.378906 24.980469 L 29.371094 24.972656 L 29.369141 24.970703 L 29.367188 24.96875 L 29.347656 24.949219 L 29.345703 24.947266 L 29.34375 24.945312 L 29.339844 24.941406 L 29.339844 24.939453 L 29.337891 24.9375 L 29.335938 24.935547 L 29.333984 24.933594 L 29.332031 24.931641 L 29.330078 24.929688 L 29.328125 24.927734 L 29.326172 24.925781 L 29.324219 24.925781 L 29.318359 24.919922 L 29.316406 24.917969 L 29.314453 24.916016 L 29.3125 24.914062 L 29.291016 24.892578 L 29.289062 24.890625 L 29.287109 24.888672 L 29.285156 24.886719 L 29.283203 24.884766 L 29.28125 24.882812 L 29.28125 24.880859 L 29.279297 24.878906 L 29.277344 24.876953 L 29.275391 24.875 L 29.273438 24.873047 L 29.251953 24.851562 L 29.230469 24.830078 L 29.228516 24.828125 L 29.226562 24.826172 L 29.224609 24.824219 L 29.222656 24.822266 L 29.220703 24.820312 L 29.21875 24.820312 L 29.216797 24.818359 L 29.214844 24.816406 L 29.212891 24.814453 L 29.210938 24.8125 L 29.208984 24.810547 L 29.207031 24.808594 L 29.164062 24.765625 L 29.162109 24.763672 L 29.162109 24.761719 L 29.160156 24.759766 L 29.134766 24.734375 L 29.109375 24.708984 L 29.083984 24.683594 L 29.056641 24.65625 L 29.037109 24.636719 L 29.035156 24.636719 L 29.027344 24.628906 L 29.005859 24.607422 L 29.005859 24.605469 L 29.001953 24.601562 L 29 24.599609 L 28.970703 24.570312 L 28.96875 24.568359 L 28.943359 24.542969 L 28.941406 24.542969 L 28.939453 24.541016 L 28.914062 24.515625 L 28.912109 24.513672 L 28.912109 24.511719 L 28.910156 24.509766 L 28.908203 24.507812 L 28.890625 24.490234 L 28.888672 24.490234 L 28.886719 24.488281 L 28.876953 24.478516 L 28.875 24.476562 L 28.871094 24.472656 L 28.867188 24.46875 L 28.865234 24.466797 L 28.863281 24.464844 L 28.863281 24.462891 L 28.857422 24.457031 L 28.853516 24.453125 L 28.849609 24.449219 L 28.845703 24.445312 L 28.8125 24.412109 L 28.779297 24.378906 L 28.746094 24.347656 L 28.744141 24.34375 L 28.742188 24.341797 L 28.740234 24.341797 L 28.708984 24.308594 L 28.701172 24.300781 L 28.693359 24.292969 L 28.691406 24.291016 L 28.689453 24.289062 L 28.6875 24.289062 L 28.671875 24.273438 L 28.664062 24.263672 L 28.662109 24.263672 L 28.65625 24.257812 L 28.654297 24.255859 L 28.654297 24.253906 L 28.652344 24.251953 L 28.646484 24.246094 L 28.640625 24.240234 L 28.638672 24.240234 L 28.636719 24.236328 L 28.613281 24.212891 L 28.611328 24.212891 L 28.609375 24.210938 L 28.597656 24.199219 L 28.59375 24.195312 L 28.59375 24.193359 L 28.591797 24.191406 L 28.585938 24.185547 L 28.583984 24.183594 L 28.582031 24.181641 L 28.576172 24.175781 L 28.570312 24.169922 L 28.564453 24.164062 L 28.560547 24.160156 L 28.521484 24.121094 L 28.482422 24.082031 L 28.441406 24.041016 L 28.400391 24 L 28.398438 23.998047 L 28.390625 23.990234 L 28.369141 23.96875 L 28.367188 23.966797 L 28.365234 23.966797 L 28.357422 23.958984 L 28.341797 23.943359 L 28.318359 23.917969 L 28.316406 23.917969 L 28.314453 23.916016 L 28.3125 23.914062 L 28.292969 23.892578 L 28.291016 23.892578 L 28.283203 23.884766 L 28.283203 23.882812 L 28.28125 23.880859 L 28.279297 23.878906 L 28.277344 23.876953 L 28.271484 23.871094 L 28.228516 23.828125 L 28.183594 23.783203 L 28.181641 23.783203 L 28.136719 23.736328 L 28.126953 23.726562 L 28.125 23.726562 L 28.121094 23.722656 L 28.091797 23.691406 L 28.089844 23.691406 L 28.060547 23.660156 L 28.042969 23.644531 L 28.042969 23.642578 L 28.041016 23.640625 L 27.996094 23.595703 L 27.994141 23.595703 L 27.947266 23.546875 L 27.898438 23.498047 L 27.847656 23.447266 L 27.796875 23.396484 L 27.78125 23.380859 L 27.767578 23.367188 L 27.763672 23.363281 L 27.761719 23.363281 L 27.744141 23.345703 L 27.742188 23.34375 L 27.716797 23.318359 L 27.716797 23.316406 L 27.714844 23.314453 L 27.710938 23.310547 L 27.707031 23.306641 L 27.699219 23.298828 L 27.693359 23.292969 L 27.6875 23.287109 L 27.685547 23.287109 L 27.683594 23.285156 L 27.664062 23.263672 L 27.638672 23.240234 L 27.630859 23.232422 L 27.623047 23.224609 L 27.619141 23.220703 L 27.617188 23.21875 L 27.617188 23.216797 L 27.607422 23.207031 L 27.597656 23.197266 L 27.585938 23.185547 L 27.53125 23.130859 L 27.476562 23.076172 L 27.419922 23.019531 L 27.363281 22.962891 L 27.337891 22.9375 L 27.335938 22.9375 L 27.333984 22.935547 L 27.320312 22.919922 L 27.318359 22.919922 L 27.304688 22.90625 L 27.273438 22.873047 L 27.246094 22.847656 L 27.226562 22.826172 L 27.1875 22.789062 L 27.183594 22.785156 L 27.181641 22.783203 L 27.181641 22.78125 L 27.179688 22.779297 L 27.177734 22.777344 L 27.175781 22.775391 L 27.128906 22.728516 L 27.068359 22.667969 L 27.064453 22.664062 L 27.0625 22.664062 L 27.005859 22.607422 L 26.962891 22.564453 L 26.962891 22.5625 L 26.960938 22.560547 L 26.953125 22.552734 L 26.945312 22.544922 L 26.943359 22.542969 L 26.941406 22.541016 L 26.939453 22.541016 L 26.9375 22.539062 L 26.935547 22.537109 L 26.927734 22.527344 L 26.880859 22.482422 L 26.875 22.474609 L 26.871094 22.472656 L 26.861328 22.462891 L 26.857422 22.458984 L 26.857422 22.457031 L 26.855469 22.455078 L 26.847656 22.447266 L 26.833984 22.433594 L 26.818359 22.417969 L 26.753906 22.353516 L 26.689453 22.289062 L 26.623047 22.222656 L 26.556641 22.15625 L 26.490234 22.089844 L 26.488281 22.087891 L 26.421875 22.021484 L 26.353516 21.953125 L 26.310547 21.912109 L 26.304688 21.904297 L 26.283203 21.884766 L 26.212891 21.814453 L 26.207031 21.808594 L 26.189453 21.789062 L 26.1875 21.789062 L 26.185547 21.787109 L 26.185547 21.785156 L 26.181641 21.78125 L 26.173828 21.773438 L 26.158203 21.757812 L 26.142578 21.742188 L 26.128906 21.730469 L 26.126953 21.728516 L 26.126953 21.726562 L 26.070312 21.671875 L 26.064453 21.664062 L 25.998047 21.599609 L 25.990234 21.591797 L 25.970703 21.572266 L 25.960938 21.5625 L 25.957031 21.558594 L 25.955078 21.556641 L 25.953125 21.552734 L 25.925781 21.525391 L 25.851562 21.451172 L 25.777344 21.376953 L 25.701172 21.300781 L 25.625 21.224609 L 25.548828 21.148438 L 25.470703 21.070312 L 25.392578 20.992188 L 25.378906 20.980469 L 25.326172 20.925781 L 25.324219 20.925781 L 25.3125 20.914062 L 25.291016 20.892578 L 25.28125 20.882812 L 25.277344 20.878906 L 25.263672 20.863281 L 25.261719 20.861328 L 25.234375 20.833984 L 25.205078 20.806641 L 25.181641 20.78125 L 25.179688 20.78125 L 25.152344 20.753906 L 25.085938 20.6875 L 25.082031 20.683594 L 25.078125 20.677734 L 25.072266 20.671875 L 24.990234 20.589844 L 24.90625 20.507812 L 24.890625 20.492188 L 24.884766 20.484375 L 24.882812 20.484375 L 24.880859 20.482422 L 24.878906 20.480469 L 24.873047 20.472656 L 24.857422 20.457031 L 24.839844 20.439453 L 24.824219 20.423828 L 24.800781 20.400391 L 24.738281 20.339844 L 24.71875 20.320312 L 24.697266 20.298828 L 24.693359 20.294922 L 24.689453 20.289062 L 24.6875 20.287109 L 24.679688 20.279297 L 24.654297 20.253906 L 24.568359 20.167969 L 24.482422 20.082031 L 24.394531 19.994141 L 24.306641 19.90625 L 24.21875 19.818359 L 24.128906 19.728516 L 24.039062 19.638672 L 23.947266 19.546875 L 23.855469 19.455078 L 23.763672 19.363281 L 23.669922 19.269531 L 23.576172 19.175781 L 23.480469 19.082031 L 23.427734 19.029297 L 23.423828 19.023438 L 23.416016 19.015625 L 23.40625 19.005859 L 23.386719 18.986328 L 23.308594 18.910156 L 23.289062 18.890625 L 23.263672 18.865234 L 23.244141 18.845703 L 23.236328 18.837891 L 23.234375 18.835938 L 23.224609 18.824219 L 23.193359 18.792969 L 23.095703 18.695312 L 22.996094 18.597656 L 22.992188 18.59375 L 22.990234 18.591797 L 22.984375 18.583984 L 22.976562 18.576172 L 22.943359 18.542969 L 22.919922 18.519531 L 22.898438 18.498047 L 22.851562 18.453125 L 22.818359 18.419922 L 22.796875 18.398438 L 22.769531 18.371094 L 22.759766 18.359375 L 22.757812 18.357422 L 22.751953 18.351562 L 22.730469 18.330078 L 22.697266 18.296875 L 22.595703 18.195312 L 22.494141 18.09375 L 22.390625 17.990234 L 22.287109 17.886719 L 22.183594 17.783203 L 22.078125 17.677734 L 21.972656 17.572266 L 21.865234 17.464844 L 21.757812 17.357422 L 21.650391 17.25 L 21.541016 17.140625 L 21.431641 17.03125 L 21.322266 16.921875 L 21.210938 16.810547 L 21.099609 16.699219 L 20.986328 16.585938 L 20.873047 16.472656 L 20.759766 16.359375 L 20.644531 16.244141 L 20.529297 16.128906 L 20.412109 16.013672 L 20.294922 15.896484 L 20.28125 15.880859 L 20.275391 15.876953 L 20.214844 15.816406 L 20.197266 15.798828 L 20.177734 15.777344 L 20.058594 15.660156 L 20.056641 15.65625 L 20.054688 15.65625 L 19.941406 15.541016 L 19.939453 15.541016 L 19.9375 15.539062 L 19.935547 15.535156 L 19.931641 15.53125 L 19.919922 15.519531 L 19.820312 15.419922 L 19.761719 15.361328 L 19.699219 15.300781 L 19.679688 15.28125 L 19.662109 15.263672 L 19.658203 15.257812 L 19.578125 15.177734 L 19.457031 15.056641 L 19.333984 14.933594 L 19.242188 14.841797 L 19.208984 14.810547 L 19.150391 14.75 L 19.148438 14.748047 L 19.119141 14.71875 L 19.085938 14.685547 L 18.960938 14.560547 L 18.833984 14.433594 L 18.761719 14.361328 L 18.759766 14.361328 L 18.707031 14.308594 L 18.699219 14.298828 L 18.667969 14.267578 L 18.648438 14.248047 L 18.580078 14.179688 L 18.453125 14.052734 L 18.324219 13.923828 L 18.193359 13.794922 L 18.097656 13.697266 L 18.064453 13.664062 L 17.931641 13.533203 L 17.890625 13.490234 L 17.880859 13.482422 L 17.800781 13.400391 L 17.667969 13.267578 L 17.535156 13.134766 L 17.400391 13.001953 L 17.376953 12.976562 L 17.375 12.976562 L 17.265625 12.867188 L 17.246094 12.845703 L 17.238281 12.839844 L 17.220703 12.822266 L 17.181641 12.78125 L 17.177734 12.777344 L 17.130859 12.730469 L 16.994141 12.59375 L 16.857422 12.457031 L 16.849609 12.451172 L 16.847656 12.449219 L 16.71875 12.320312 L 16.716797 12.318359 L 16.583984 12.183594 L 16.582031 12.183594 L 16.580078 12.181641 L 16.449219 12.048828 L 16.447266 12.048828 L 16.441406 12.042969 L 16.412109 12.013672 L 16.410156 12.011719 L 16.392578 11.992188 L 16.365234 11.964844 L 16.302734 11.902344 L 16.177734 11.777344 L 16.175781 11.777344 L 16.160156 11.761719 L 16.101562 11.703125 L 16.097656 11.699219 L 16.058594 11.658203 L 16.048828 11.648438 L 16.019531 11.619141 L 15.902344 11.503906 L 15.902344 11.501953 L 15.876953 11.478516 L 15.816406 11.417969 L 15.746094 11.345703 L 15.734375 11.333984 L 15.625 11.224609 L 15.623047 11.224609 L 15.589844 11.191406 L 15.544922 11.144531 L 15.529297 11.128906 L 15.447266 11.046875 L 15.34375 10.943359 L 15.300781 10.902344 L 15.203125 10.802734 L 15.201172 10.802734 L 15.154297 10.755859 L 15.060547 10.660156 L 15.058594 10.660156 L 15.007812 10.609375 L 14.996094 10.597656 L 14.982422 10.582031 L 14.976562 10.576172 L 14.861328 10.460938 L 14.712891 10.3125 L 13.896484 9.4960938 L 13.072266 10.318359 L 12.533203 9.7792969 L 11.511719 8.7597656 L 11.396484 8.6445312 L 11.380859 8.6289062 L 11.121094 8.3691406 L 10.988281 8.2363281 L 10.855469 8.1035156 L 10.181641 7.4296875 L 10.171875 7.4199219 L 10.044922 7.2929688 L 10.042969 7.2910156 L 10.023438 7.2714844 L 9.90625 7.1542969 L 9.7695312 7.0175781 L 9.6289062 6.8769531 L 9.3496094 6.5976562 L 8.921875 6.1699219 L 8.6347656 5.8828125 L 8.4882812 5.7363281 L 7.9023438 5.1484375 L 5.1484375 5.1484375 z "
       id="path11040"
       style="fill-opacity:1;fill:url(#linearGradient11922)"
       clip-path="url(#clipPath11927)" />
    <path
       inkscape:connector-curvature="0"
       d="m 7.2724935,6.1592519 -1.112883,0 5.2166355,5.2166351 0.579626,-0.544848 m 2.874946,3.512534 -0.486886,0.486886 c -0.226055,0.226055 -0.591219,0.226055 -0.817273,0 l -1.808434,-1.808433 -1.553398,1.541805 -0.8172725,-0.817273 0.8230685,-0.823069 -5.1702645,-5.1702651 0,-2.753224 2.753224,0 5.1702655,5.1702651 0.823069,-0.8230691 0.817273,0.8172731 -1.547602,1.547602 1.808433,1.808433 c 0.231851,0.231851 0.231851,0.597015 0.0058,0.823069 z"
       id="path10951"
       style="fill:#fafafa" />
  </g>
</svg>
