<?xml version="1.0" encoding="UTF-8" standalone="no"?>
<!-- Created with Inkscape (http://www.inkscape.org/) -->

<svg
   xmlns:dc="http://purl.org/dc/elements/1.1/"
   xmlns:cc="http://creativecommons.org/ns#"
   xmlns:rdf="http://www.w3.org/1999/02/22-rdf-syntax-ns#"
   xmlns:svg="http://www.w3.org/2000/svg"
   xmlns="http://www.w3.org/2000/svg"
   xmlns:xlink="http://www.w3.org/1999/xlink"
   xmlns:sodipodi="http://sodipodi.sourceforge.net/DTD/sodipodi-0.dtd"
   xmlns:inkscape="http://www.inkscape.org/namespaces/inkscape"
   width="31.333334"
   height="31.333334"
   viewBox="0 0 29.375 29.375"
   id="svg2"
   version="1.1"
   inkscape:version="0.92.2 (5c3e80d, 2017-08-06)"
   sodipodi:docname="Telefon.svg"
   inkscape:export-filename="/home/juergen/Desktop/ic_background.png"
   inkscape:export-xdpi="441.19147"
   inkscape:export-ydpi="441.19147">
  <sodipodi:namedview
     id="base"
     pagecolor="#ffffff"
     bordercolor="#666666"
     borderopacity="1.0"
     inkscape:pageopacity="0.0"
     inkscape:pageshadow="2"
     inkscape:zoom="11.2"
     inkscape:cx="9.7928897"
     inkscape:cy="13.956643"
     inkscape:document-units="px"
     inkscape:current-layer="layer1"
     showgrid="false"
     fit-margin-top="5"
     fit-margin-left="5"
     fit-margin-right="5"
     fit-margin-bottom="5"
     showguides="true"
     inkscape:guide-bbox="true"
     inkscape:window-width="1366"
     inkscape:window-height="699"
     inkscape:window-x="0"
     inkscape:window-y="33"
     inkscape:window-maximized="1"
     inkscape:snap-grids="true"
     inkscape:snap-to-guides="true"
     units="px">
    <inkscape:grid
       id="grid4138"
       type="xygrid"
       originx="4.6875222"
       originy="4.6875047" />
    <sodipodi:guide
       id="guide4140"
       orientation="0,1"
       position="14.687522,22.687505"
       inkscape:locked="false" />
    <sodipodi:guide
       id="guide4142"
       orientation="0,1"
       position="14.687522,6.6875047"
       inkscape:locked="false" />
    <sodipodi:guide
       id="guide4144"
       orientation="1,0"
       position="6.6875222,14.687505"
       inkscape:locked="false" />
    <sodipodi:guide
       id="guide4146"
       orientation="0,20"
       position="4.6875222,4.6875047"
       inkscape:locked="false" />
    <sodipodi:guide
       id="guide4148"
       orientation="-20,0"
       position="24.687522,4.6875047"
       inkscape:locked="false" />
    <sodipodi:guide
       id="guide4150"
       orientation="0,-20"
       position="24.687522,24.687505"
       inkscape:locked="false" />
    <sodipodi:guide
       id="guide4152"
       orientation="20,0"
       position="4.6875222,24.687505"
       inkscape:locked="false" />
    <sodipodi:guide
       id="guide4154"
       orientation="1,0"
       position="22.687522,14.687505"
       inkscape:locked="false" />
    <sodipodi:guide
       id="guide4156"
       orientation="-0.70710678,0.70710678"
       position="14.687522,14.687505"
       inkscape:locked="false" />
    <sodipodi:guide
       id="guide4160"
       orientation="1,0"
       position="8.6875222,14.687505"
       inkscape:locked="false" />
    <sodipodi:guide
       id="guide4162"
       orientation="1,0"
       position="20.687522,14.687505"
       inkscape:locked="false" />
    <sodipodi:guide
       id="guide4164"
       orientation="0,1"
       position="14.687522,20.687505"
       inkscape:locked="false" />
    <sodipodi:guide
       id="guide4166"
       orientation="0,1"
       position="14.687522,8.6875047"
       inkscape:locked="false" />
    <sodipodi:guide
       id="guide4168"
       orientation="0,1"
       position="14.687522,19.687505"
       inkscape:locked="false" />
    <sodipodi:guide
       id="guide4170"
       orientation="0,1"
       position="14.687522,9.6875047"
       inkscape:locked="false" />
    <sodipodi:guide
       id="guide4172"
       orientation="1,0"
       position="9.6875222,14.687505"
       inkscape:locked="false" />
    <sodipodi:guide
       id="guide4174"
       orientation="1,0"
       position="19.687522,14.687505"
       inkscape:locked="false" />
  </sodipodi:namedview>
  <defs
     id="defs4">
    <linearGradient
       inkscape:collect="always"
       id="linearGradient7202">
      <stop
         style="stop-color:#000000;stop-opacity:1;"
         offset="0"
         id="stop7204" />
      <stop
         style="stop-color:#000000;stop-opacity:0;"
         offset="1"
         id="stop7206" />
    </linearGradient>
    <clipPath
       clipPathUnits="userSpaceOnUse"
       id="clipPath12478">
      <circle
         style="opacity:1;fill:#2196f3;fill-opacity:1;stroke:none;stroke-width:0.05069799;stroke-miterlimit:4;stroke-dasharray:none;stroke-opacity:1"
         id="circle12480"
         cx="9.9999781"
         cy="10.000005"
         r="10" />
    </clipPath>
    <clipPath
       id="clipPath5790"
       clipPathUnits="userSpaceOnUse">
      <circle
         inkscape:export-ydpi="648"
         inkscape:export-xdpi="648"
         inkscape:export-filename="/home/juergen/path4136.png"
         style="opacity:1;fill:#2196f3;fill-opacity:1;stroke:none;stroke-width:0.05069799;stroke-miterlimit:4;stroke-dasharray:none;stroke-opacity:1"
         id="circle5792"
         cx="9.9999781"
         cy="10.000005"
         r="10" />
    </clipPath>
    <clipPath
       clipPathUnits="userSpaceOnUse"
       id="clipPath5055">
      <circle
         inkscape:export-ydpi="648"
         inkscape:export-xdpi="648"
         inkscape:export-filename="/home/juergen/path4136.png"
         style="opacity:1;fill:#2196f3;fill-opacity:1;stroke:none;stroke-width:0.05069799;stroke-miterlimit:4;stroke-dasharray:none;stroke-opacity:1"
         id="circle5057"
         cx="9.9999781"
         cy="10.000005"
         r="10" />
    </clipPath>
    <clipPath
       id="clipPath5119"
       clipPathUnits="userSpaceOnUse">
      <circle
         inkscape:export-ydpi="648"
         inkscape:export-xdpi="648"
         inkscape:export-filename="/home/juergen/Schreibtisch/path4136.png"
         style="opacity:1;fill:#2196f3;fill-opacity:1;stroke:none;stroke-width:0.05069799;stroke-miterlimit:4;stroke-dasharray:none;stroke-opacity:1"
         id="circle5121"
         cx="9.9999781"
         cy="10.000005"
         r="10" />
    </clipPath>
    <clipPath
       clipPathUnits="userSpaceOnUse"
       id="clipPath5194">
      <circle
         inkscape:export-ydpi="648"
         inkscape:export-xdpi="648"
         inkscape:export-filename="/home/juergen/Schreibtisch/path4136.png"
         style="opacity:1;fill:#cddc39;fill-opacity:1;stroke:none;stroke-width:0.05069799;stroke-miterlimit:4;stroke-dasharray:none;stroke-opacity:1"
         id="circle5196"
         cx="9.9999781"
         cy="10.000005"
         r="10" />
    </clipPath>
    <clipPath
       id="clipPath6175"
       clipPathUnits="userSpaceOnUse">
      <circle
         inkscape:export-ydpi="648"
         inkscape:export-xdpi="648"
         inkscape:export-filename="/home/juergen/Schreibtisch/path4136.png"
         style="opacity:1;fill:#f44336;fill-opacity:1;stroke:none;stroke-width:0.05069799;stroke-miterlimit:4;stroke-dasharray:none;stroke-opacity:1"
         id="circle6177"
         cx="9.9999781"
         cy="10.000005"
         r="10" />
    </clipPath>
    <clipPath
       clipPathUnits="userSpaceOnUse"
       id="clipPath7176">
      <circle
         inkscape:export-ydpi="648"
         inkscape:export-xdpi="648"
         inkscape:export-filename="/home/juergen/Schreibtisch/path4136.png"
         style="opacity:1;fill:#9c27b0;fill-opacity:1;stroke:none;stroke-width:0.05069799;stroke-miterlimit:4;stroke-dasharray:none;stroke-opacity:1"
         id="circle7178"
         cx="9.9999781"
         cy="10.000005"
         r="10" />
    </clipPath>
    <clipPath
       id="clipPath8165"
       clipPathUnits="userSpaceOnUse">
      <circle
         inkscape:export-ydpi="648"
         inkscape:export-xdpi="648"
         inkscape:export-filename="/home/juergen/Schreibtisch/path4136.png"
         style="opacity:1;fill:#ffc107;fill-opacity:1;stroke:none;stroke-width:0.05069799;stroke-miterlimit:4;stroke-dasharray:none;stroke-opacity:1"
         id="circle8167"
         cx="9.9999781"
         cy="10.000005"
         r="10" />
    </clipPath>
    <clipPath
       clipPathUnits="userSpaceOnUse"
       id="clipPath9162">
      <circle
         inkscape:export-ydpi="648"
         inkscape:export-xdpi="648"
         inkscape:export-filename="/home/juergen/Schreibtisch/path4136.png"
         style="opacity:1;fill:#ff9800;fill-opacity:1;stroke:none;stroke-width:0.05069799;stroke-miterlimit:4;stroke-dasharray:none;stroke-opacity:1"
         id="circle9164"
         cx="9.9999781"
         cy="10.000005"
         r="10" />
    </clipPath>
    <clipPath
       id="clipPath10753"
       clipPathUnits="userSpaceOnUse">
      <circle
         inkscape:export-ydpi="648"
         inkscape:export-xdpi="648"
         inkscape:export-filename="/home/juergen/Schreibtisch/path4136.png"
         style="opacity:1;fill:#607d8b;fill-opacity:1;stroke:none;stroke-width:0.05069799;stroke-miterlimit:4;stroke-dasharray:none;stroke-opacity:1"
         id="circle10755"
         cx="9.9999781"
         cy="10.000005"
         r="10" />
    </clipPath>
    <clipPath
       clipPathUnits="userSpaceOnUse"
       id="clipPath5153">
      <circle
         inkscape:export-ydpi="648"
         inkscape:export-xdpi="648"
         inkscape:export-filename="/home/juergen/Schreibtisch/path4136.png"
         style="opacity:1;fill:#2196f3;fill-opacity:1;stroke:none;stroke-width:0.05069799;stroke-miterlimit:4;stroke-dasharray:none;stroke-opacity:1"
         id="circle5155"
         cx="9.9999781"
         cy="10.000005"
         r="10" />
    </clipPath>
    <clipPath
       id="clipPath6152"
       clipPathUnits="userSpaceOnUse">
      <circle
         inkscape:export-ydpi="648"
         inkscape:export-xdpi="648"
         inkscape:export-filename="/home/juergen/Schreibtisch/path4136.png"
         style="opacity:1;fill:#2196f3;fill-opacity:1;stroke:none;stroke-width:0.05069799;stroke-miterlimit:4;stroke-dasharray:none;stroke-opacity:1"
         id="circle6154"
         cx="9.9999781"
         cy="10.000005"
         r="10" />
    </clipPath>
    <clipPath
       clipPathUnits="userSpaceOnUse"
       id="clipPath7155">
      <circle
         inkscape:export-ydpi="648"
         inkscape:export-xdpi="648"
         inkscape:export-filename="/home/juergen/Schreibtisch/path4136.png"
         style="opacity:1;fill:#2196f3;fill-opacity:1;stroke:none;stroke-width:0.05069799;stroke-miterlimit:4;stroke-dasharray:none;stroke-opacity:1"
         id="circle7157"
         cx="9.9999781"
         cy="10.000005"
         r="10" />
    </clipPath>
    <clipPath
       id="clipPath8162"
       clipPathUnits="userSpaceOnUse">
      <circle
         inkscape:export-ydpi="648"
         inkscape:export-xdpi="648"
         inkscape:export-filename="/home/juergen/Schreibtisch/path4136.png"
         style="opacity:1;fill:#2196f3;fill-opacity:1;stroke:none;stroke-width:0.05069799;stroke-miterlimit:4;stroke-dasharray:none;stroke-opacity:1"
         id="circle8164"
         cx="9.9999781"
         cy="10.000005"
         r="10" />
    </clipPath>
    <clipPath
       clipPathUnits="userSpaceOnUse"
       id="clipPath5177">
      <circle
         inkscape:export-ydpi="648"
         inkscape:export-xdpi="648"
         inkscape:export-filename="/home/juergen/Schreibtisch/path4136.png"
         style="opacity:1;fill:#8bc34a;fill-opacity:1;stroke:none;stroke-width:0.05069799;stroke-miterlimit:4;stroke-dasharray:none;stroke-opacity:1"
         id="circle5179"
         cx="9.9999781"
         cy="10.000005"
         r="10" />
    </clipPath>
    <clipPath
       id="clipPath6194"
       clipPathUnits="userSpaceOnUse">
      <circle
         inkscape:export-ydpi="648"
         inkscape:export-xdpi="648"
         inkscape:export-filename="/home/juergen/Schreibtisch/path4136.png"
         style="opacity:1;fill:#4caf50;fill-opacity:1;stroke:none;stroke-width:0.05069799;stroke-miterlimit:4;stroke-dasharray:none;stroke-opacity:1"
         id="circle6196"
         cx="9.9999781"
         cy="10.000005"
         r="10" />
    </clipPath>
    <linearGradient
       inkscape:collect="always"
       xlink:href="#linearGradient7202"
       id="linearGradient7208"
       x1="10"
       y1="10"
       x2="20"
       y2="20"
       gradientUnits="userSpaceOnUse" />
    <clipPath
       clipPathUnits="userSpaceOnUse"
       id="clipPath7213">
      <circle
         inkscape:export-ydpi="648"
         inkscape:export-xdpi="648"
         inkscape:export-filename="/home/juergen/Schreibtisch/path4136.png"
         style="opacity:1;fill:#4caf50;fill-opacity:1;stroke:none;stroke-width:0.05069799;stroke-miterlimit:4;stroke-dasharray:none;stroke-opacity:1"
         id="circle7215"
         cx="9.9999781"
         cy="10.000005"
         r="10" />
    </clipPath>
  </defs>
  <metadata
     id="metadata7">
    <rdf:RDF>
      <cc:Work
         rdf:about="">
        <dc:format>image/svg+xml</dc:format>
        <dc:type
           rdf:resource="http://purl.org/dc/dcmitype/StillImage" />
        <dc:title></dc:title>
      </cc:Work>
    </rdf:RDF>
  </metadata>
  <g
     transform="translate(1062.8303,-857.24615)"
     id="layer1"
     inkscape:groupmode="layer"
     inkscape:label="Hintergrund">
    <circle
       r="10"
       cy="871.93365"
       cx="-1048.1428"
       id="path4136"
       style="opacity:1;fill:#4caf50;fill-opacity:1;stroke:none;stroke-width:0.05069799;stroke-miterlimit:4;stroke-dasharray:none;stroke-opacity:1"
       inkscape:export-filename="/home/juergen/Schreibtisch/path4136.png"
       inkscape:export-xdpi="648"
       inkscape:export-ydpi="648" />
  </g>
  <g
     inkscape:label="Icon"
     id="layer2"
     inkscape:groupmode="layer"
     style="display:inline"
     transform="translate(4.6875221,4.6874951)">
    <path
       d="m 7.6289062,5.1484375 c -0.00305,0 -1.9296875,0.00281 -1.9296874,0.00586 C 5.5533386,5.1801826 5.4240796,5.2607429 5.3378906,5.3808594 5.2432196,5.492494 5.1958163,5.640392 5.2070312,5.7910156 c 0.00634,2.9215572 1.3507149,5.5281234 3.453125,7.2441404 0.060196,0.05178 0.1162147,0.107942 0.1777344,0.158203 0.066782,0.0575 0.1307956,0.118215 0.1992188,0.173829 0.059823,0.05125 0.1146394,0.108473 0.1757812,0.158203 0.065997,0.05658 0.129653,0.115203 0.1972656,0.169921 0.026107,0.02474 0.053674,0.04784 0.080078,0.07227 0.00244,0.0021 0.00537,0.0037 0.00781,0.0059 0.029112,0.02419 0.054566,0.05233 0.083984,0.07617 0.065324,0.0558 0.1264377,0.115962 0.1933594,0.169922 0.029905,0.02542 0.057648,0.05309 0.087891,0.07813 0.00264,0.0026 0.00517,0.0053 0.00781,0.0078 0.025305,0.0209 0.04868,0.04383 0.074219,0.06445 0.030804,0.02914 0.064478,0.05528 0.095704,0.08398 0.0024,0.0021 0.0054,0.0037 0.0078,0.0059 0.003,0.0029 0.0048,0.0069 0.0078,0.0098 0.0038,0.0033 0.0079,0.0064 0.01172,0.0098 0.02074,0.01701 0.04161,0.03786 0.0625,0.05469 0.0349,0.02962 0.06816,0.06076 0.103516,0.08984 0.003,0.0029 0.0048,0.0069 0.0078,0.0098 0.02396,0.01966 0.04614,0.04114 0.07031,0.06055 0.02988,0.02811 0.06152,0.05433 0.0918,0.08203 0.05678,0.05477 0.119455,0.103012 0.177734,0.15625 0.06248,0.06017 0.129056,0.115525 0.19336,0.173828 0.05765,0.0551 0.120493,0.104693 0.179687,0.158203 0.05142,0.04901 0.107502,0.09288 0.160156,0.140625 0.06263,0.05987 0.128879,0.11586 0.19336,0.173828 0.05153,0.04885 0.107381,0.09306 0.160156,0.140625 0.05478,0.05206 0.113713,0.09979 0.169922,0.150391 0.05826,0.0553 0.119804,0.106516 0.179687,0.160156 0.05969,0.05638 0.122203,0.109429 0.183594,0.164063 0.05242,0.0492 0.108373,0.09473 0.162109,0.142578 0.05142,0.04828 0.105507,0.09365 0.158204,0.140625 0.05823,0.05474 0.119808,0.105152 0.179687,0.158203 0.05496,0.05135 0.111543,0.100546 0.167969,0.150391 0.05469,0.05096 0.111827,0.09898 0.167969,0.148437 0.05104,0.04742 0.103937,0.09256 0.15625,0.138672 0.05752,0.05345 0.116637,0.104464 0.175781,0.15625 0.05431,0.05015 0.110253,0.09783 0.166016,0.146484 0.04685,0.04312 0.09464,0.08494 0.142578,0.126953 0.05923,0.05473 0.118707,0.109173 0.179687,0.16211 0.0537,0.04916 0.108936,0.09685 0.164063,0.144531 0.04565,0.04163 0.09198,0.08248 0.138672,0.123047 0.05985,0.05483 0.119987,0.109126 0.18164,0.162109 0.04856,0.04399 0.09674,0.08808 0.146484,0.13086 0.05467,0.0496 0.109837,0.09844 0.166016,0.146484 0.0446,0.04021 0.08916,0.07996 0.134766,0.119141 0.05576,0.05051 0.110621,0.10151 0.167968,0.15039 0.05456,0.04903 0.107986,0.09901 0.164063,0.146485 0.0434,0.03874 0.08649,0.07748 0.130859,0.115234 0.05361,0.04808 0.105067,0.09797 0.160157,0.144531 0.05203,0.04637 0.102825,0.09373 0.15625,0.138672 0.04628,0.04104 0.09129,0.08314 0.138671,0.123047 0.05389,0.04783 0.10476,0.09824 0.160157,0.144531 0.04847,0.04268 0.09485,0.08747 0.144531,0.128906 0.04959,0.04359 0.09756,0.08858 0.148438,0.13086 0.0447,0.03915 0.08706,0.08106 0.132812,0.11914 0.0493,0.04323 0.0959,0.08893 0.146484,0.13086 0.05078,0.04436 0.09825,0.09179 0.150391,0.134766 0.06532,0.05672 0.1297,0.113566 0.197266,0.167968 0.04912,0.04167 0.09417,0.08658 0.144531,0.126953 0.04288,0.03623 0.08117,0.07609 0.125,0.111329 0.04839,0.041 0.09101,0.08722 0.140625,0.126953 0.04818,0.04064 0.09123,0.08562 0.140625,0.125 0.04832,0.04058 0.09108,0.08568 0.140625,0.125 0.04776,0.03992 0.08971,0.08437 0.138672,0.123047 0.04741,0.03945 0.08813,0.08482 0.136719,0.123046 0.04787,0.03968 0.08959,0.08462 0.138671,0.123047 0.04723,0.03893 0.08832,0.08338 0.136719,0.121094 0.0054,0.0044 0.01023,0.0093 0.01563,0.01367 0.01171,0.01233 0.02529,0.02291 0.03711,0.03516 0.02566,0.02058 0.04822,0.04618 0.07422,0.06641 0.0032,0.0032 0.0065,0.0065 0.0098,0.0098 0.0029,0.0023 0.0049,0.0055 0.0078,0.0078 0.02725,0.0286 0.06005,0.05195 0.08789,0.08008 0.0098,0.01226 0.02137,0.02296 0.03125,0.03516 0.02457,0.03145 0.04914,0.06272 0.07422,0.09375 0.02428,0.03115 0.04749,0.06301 0.07227,0.09375 0.03128,0.04023 0.0636,0.07958 0.0957,0.11914 0.02351,0.02999 0.04635,0.06023 0.07031,0.08984 0.02599,0.03326 0.05158,0.06681 0.07813,0.09961 0.02768,0.03539 0.05568,0.07059 0.08398,0.105468 0.02263,0.02882 0.04532,0.05746 0.06836,0.08594 0.02747,0.03509 0.05395,0.07088 0.08203,0.105469 0.02436,0.03099 0.04939,0.0612 0.07422,0.0918 0.025,0.03179 0.04873,0.06433 0.07422,0.0957 0.02436,0.03093 0.04939,0.06125 0.07422,0.0918 0.02355,0.02988 0.04633,0.06032 0.07031,0.08984 0.02643,0.03353 0.05311,0.06653 0.08008,0.09961 0.02048,0.02588 0.03975,0.05251 0.06055,0.07813 0.02357,0.02988 0.04632,0.06032 0.07031,0.08984 0.02586,0.03276 0.05175,0.06532 0.07813,0.09766 0.02221,0.02801 0.04382,0.05628 0.06641,0.08398 0.01931,0.02436 0.03705,0.05009 0.05664,0.07422 0.02498,0.0316 0.05073,0.06254 0.07617,0.09375 0.02423,0.03053 0.0476,0.06163 0.07227,0.0918 0.0165,0.02072 0.03213,0.04195 0.04883,0.0625 0.0262,0.03309 0.05142,0.06694 0.07813,0.09961 0.02139,0.02683 0.04273,0.05352 0.06445,0.08008 0.01822,0.02283 0.03623,0.04573 0.05469,0.06836 0.02053,0.02581 0.03971,0.05257 0.06055,0.07813 0.02284,0.0287 0.04514,0.05756 0.06836,0.08594 0.02001,0.02504 0.0383,0.05137 0.05859,0.07617 0.01937,0.02424 0.03896,0.04825 0.05859,0.07227 0.01946,0.02434 0.03691,0.0501 0.05664,0.07422 0.02199,0.0275 0.04407,0.05481 0.06641,0.08203 0.01626,0.02026 0.03239,0.04045 0.04883,0.06055 0.01799,0.02248 0.03452,0.04607 0.05273,0.06836 0.02143,0.02678 0.0427,0.05357 0.06445,0.08008 0.01544,0.01921 0.02932,0.03952 0.04492,0.05859 0.02028,0.02531 0.03999,0.0511 0.06055,0.07617 0.01774,0.02207 0.03477,0.04452 0.05273,0.06641 0.02005,0.02493 0.04022,0.04952 0.06055,0.07422 0.01401,0.01736 0.02687,0.03549 0.04102,0.05273 0.01398,0.01737 0.0269,0.03547 0.04102,0.05273 0.02179,0.02716 0.04234,0.05514 0.06445,0.08203 0.01401,0.01735 0.02687,0.0355 0.04102,0.05273 0.01776,0.02203 0.03477,0.04455 0.05273,0.06641 0.01574,0.01947 0.03098,0.03926 0.04687,0.05859 0.01574,0.01948 0.03097,0.03926 0.04687,0.05859 0.0146,0.01805 0.02823,0.03676 0.04297,0.05469 0.01196,0.0148 0.0231,0.0302 0.03516,0.04492 0.01749,0.0217 0.03309,0.04488 0.05078,0.06641 0.01689,0.02088 0.0337,0.04178 0.05078,0.0625 0.01111,0.01368 0.02201,0.0274 0.0332,0.04102 0.01666,0.02058 0.03199,0.04207 0.04883,0.0625 0.01374,0.01691 0.02715,0.03397 0.04102,0.05078 0.01258,0.01548 0.02443,0.03148 0.03711,0.04687 0.0097,0.01191 0.01761,0.02525 0.02734,0.03711 0.01517,0.01874 0.0296,0.03803 0.04492,0.05664 0.01257,0.01547 0.02444,0.03149 0.03711,0.04687 0.01198,0.01474 0.02309,0.03026 0.03516,0.04492 0.01199,0.01475 0.02308,0.03025 0.03516,0.04492 0.0111,0.01365 0.02203,0.02744 0.0332,0.04102 0.01406,0.01729 0.02683,0.03555 0.04102,0.05273 0.01082,0.01326 0.02231,0.02586 0.0332,0.03906 0.01029,0.01261 0.01894,0.02651 0.0293,0.03906 0.01054,0.01292 0.02064,0.0262 0.03125,0.03906 0.0067,0.0083 0.01471,0.01911 0.02148,0.02734 0.01522,0.01871 0.02955,0.03805 0.04492,0.05664 0.0062,0.0075 0.01138,0.01591 0.01758,0.02344 0.0094,0.0115 0.01791,0.0237 0.02734,0.03516 0.0117,0.01434 0.02337,0.02871 0.03516,0.04297 0.0059,0.0072 0.01169,0.01434 0.01758,0.02148 0.01113,0.01364 0.02199,0.02744 0.0332,0.04102 0.0077,0.0094 0.01379,0.01997 0.02148,0.0293 0.0082,0.01001 0.01715,0.01932 0.02539,0.0293 0.0015,0.0018 0.0024,0.004 0.0039,0.0059 0.0035,0.0043 0.0062,0.0094 0.0098,0.01367 0.0094,0.0115 0.01789,0.0237 0.02734,0.03516 0.0068,0.0083 0.01273,0.01715 0.01953,0.02539 0.01,0.0122 0.01924,0.02496 0.0293,0.03711 0.0026,0.0032 0.0052,0.0066 0.0078,0.0098 0.0062,0.0075 0.01137,0.01591 0.01758,0.02344 0.0088,0.01076 0.01653,0.02248 0.02539,0.0332 0.0079,0.0096 0.01941,0.01972 0.02734,0.0293 0,0 0,0.002 0,0.002 0,0 0.002,0.002 0.002,0.002 0.0012,0.0014 0.0027,0.0025 0.0039,0.0039 0.0036,0.0043 0.0062,0.0094 0.0098,0.01367 0.0021,0.0025 0.0038,0.0053 0.0059,0.0078 0.0041,0.005 0.0076,0.01059 0.01172,0.01562 0.0071,0.0086 0.01439,0.01682 0.02148,0.02539 0.0077,0.0094 0.01377,0.01997 0.02148,0.0293 0,0 0.002,0.002 0.002,0.002 0,0 0.002,0.002 0.002,0.002 0.0047,0.0057 0.01089,0.0138 0.01562,0.01953 0,0 0,0.002 0,0.002 0,0 0.002,0.002 0.002,0.002 0,0 0.002,0.002 0.002,0.002 0.0018,0.0021 0.0041,0.0037 0.0059,0.0059 0.0015,0.0018 0.0024,0.0041 0.0039,0.0059 9.07e-4,0.0011 10e-4,0.0028 0.002,0.0039 0.0017,0.0021 0.0041,0.0038 0.0059,0.0059 0.0065,0.008 0.01103,0.01746 0.01758,0.02539 0.0017,0.0021 0.0041,0.0038 0.0059,0.0059 0,0 0.002,0.002 0.002,0.002 0,0 0.002,0.002 0.002,0.002 0,0 0,0.002 0,0.002 0,0 0.002,0.002 0.002,0.002 0,0 0.002,0.002 0.002,0.002 5.8e-4,7.03e-4 0.0014,0.0012 0.002,0.002 0.07596,0.09159 0.160924,0.175049 0.240234,0.263672 0.06354,0.07135 0.125762,0.14351 0.191407,0.21289 0.05887,0.0622 0.113303,0.128875 0.173828,0.189454 9.9e-4,9.91e-4 9.62e-4,0.0029 0.002,0.0039 3.41e-4,3.41e-4 0.0016,-3.41e-4 0.002,0 0.101593,0.101565 0.212245,0.194143 0.318359,0.291016 0.33882,0.309395 0.694883,0.601458 1.076172,0.859374 0,0 0.002,0.002 0.002,0.002 7.56e-4,5.1e-4 0.0012,0.0014 0.002,0.002 0.161127,0.108791 0.332006,0.203833 0.5,0.302734 0.09212,0.05419 0.179351,0.114902 0.273438,0.166016 0.268362,0.145982 0.544829,0.280472 0.828125,0.40039 8.03e-4,3.4e-4 0.0011,0.0016 0.002,0.002 0.281725,0.119201 0.572237,0.224571 0.867188,0.316407 C 27.52198,29.850244 28.465282,30 29.443359,30 c 0.07367,0 0.146123,-0.01531 0.212891,-0.04297 0.06677,-0.02766 0.127594,-0.06705 0.179688,-0.11914 3.87e-4,-3.88e-4 -3.87e-4,-0.0016 0,-0.002 0.05209,-0.05209 0.09344,-0.11292 0.121093,-0.179688 C 29.984687,29.589482 30,29.51703 30,29.443359 V 27.5 c 0,-0.05951 -0.01691,-0.116383 -0.03516,-0.171875 -0.0045,-0.01372 -0.0023,-0.02965 -0.0078,-0.04297 0,0 -0.002,-0.002 -0.002,-0.002 -0.02742,-0.0653 -0.06826,-0.124593 -0.11914,-0.175781 -3.89e-4,-3.91e-4 3.9e-4,-0.0016 0,-0.002 0,0 -0.002,0 -0.002,0 0,0 0,-0.002 0,-0.002 0,0 -0.002,0 -0.002,0 0,0 0,-0.002 0,-0.002 0,0 -0.002,-0.002 -0.002,-0.002 0,0 -0.002,-0.002 -0.002,-0.002 0,0 -0.002,-0.002 -0.002,-0.002 0,0 -0.002,-0.002 -0.002,-0.002 -0.0017,-0.0017 -0.0041,-0.0022 -0.0059,-0.0039 -0.0017,-0.0017 -0.0022,-0.0042 -0.0039,-0.0059 -0.0013,-0.0013 -0.0026,-0.0026 -0.0039,-0.0039 -0.0013,-0.0013 -0.0026,-0.0026 -0.0039,-0.0039 -0.001,-10e-4 -0.0029,-9.15e-4 -0.0039,-0.002 -10e-4,-0.0011 -9.05e-4,-0.0029 -0.002,-0.0039 -0.0013,-0.0013 -0.0026,-0.0026 -0.0039,-0.0039 -0.0013,-0.0013 -0.0026,-0.0026 -0.0039,-0.0039 -0.0017,-0.0017 -0.0042,-0.0023 -0.0059,-0.0039 -0.0017,-0.0017 -0.0022,-0.0042 -0.0039,-0.0059 -0.0013,-0.0013 -0.0026,-0.0026 -0.0039,-0.0039 -0.0013,-0.0013 -0.0026,-0.0026 -0.0039,-0.0039 -0.0027,-0.0027 -0.007,-0.0032 -0.0098,-0.0059 -0.001,-0.001 -9.12e-4,-0.0029 -0.002,-0.0039 -0.001,-10e-4 -0.0029,-9.21e-4 -0.0039,-0.002 -0.0027,-0.0028 -0.0031,-0.007 -0.0059,-0.0098 -0.0021,-0.0021 -0.0057,-0.0019 -0.0078,-0.0039 -0.002,-0.0021 -0.0018,-0.0057 -0.0039,-0.0078 -0.0021,-0.0021 -0.0057,-0.0018 -0.0078,-0.0039 -0.0021,-0.0021 -0.0018,-0.0057 -0.0039,-0.0078 -0.0023,-0.0023 -0.0054,-0.0036 -0.0078,-0.0059 -0.0023,-0.0024 -0.0035,-0.0055 -0.0059,-0.0078 -0.0024,-0.0024 -0.0054,-0.0036 -0.0078,-0.0059 -0.0023,-0.0024 -0.0035,-0.0055 -0.0059,-0.0078 -0.0024,-0.0024 -0.0054,-0.0036 -0.0078,-0.0059 -0.0023,-0.0024 -0.0035,-0.0055 -0.0059,-0.0078 -0.0027,-0.0027 -0.007,-0.0032 -0.0098,-0.0059 -0.0027,-0.0028 -0.0031,-0.007 -0.0059,-0.0098 -0.0027,-0.0027 -0.007,-0.0032 -0.0098,-0.0059 -0.0027,-0.0028 -0.0031,-0.007 -0.0059,-0.0098 -0.003,-0.003 -0.0067,-0.0049 -0.0098,-0.0078 -0.0029,-0.003 -0.0048,-0.0068 -0.0078,-0.0098 -0.003,-0.003 -0.0067,-0.0049 -0.0098,-0.0078 -0.0029,-0.003 -0.0048,-0.0068 -0.0078,-0.0098 -0.003,-0.003 -0.0067,-0.0049 -0.0098,-0.0078 -0.0029,-0.0031 -0.0048,-0.0068 -0.0078,-0.0098 -0.0034,-0.0034 -0.0083,-0.0045 -0.01172,-0.0078 -0.0033,-0.0034 -0.0045,-0.0084 -0.0078,-0.01172 -0.0034,-0.0034 -0.0082,-0.0045 -0.01172,-0.0078 -0.0033,-0.0034 -0.0045,-0.0084 -0.0078,-0.01172 -0.0034,-0.0034 -0.0082,-0.0045 -0.01172,-0.0078 -0.0033,-0.0035 -0.0044,-0.0083 -0.0078,-0.01172 -0.0037,-0.0037 -0.0098,-0.0042 -0.01367,-0.0078 -0.0037,-0.0039 -0.004,-0.0099 -0.0078,-0.01367 -0.004,-0.004 -0.0095,-0.0059 -0.01367,-0.0098 -0.0033,-0.0035 -0.0044,-0.0083 -0.0078,-0.01172 -0.004,-0.004 -0.0096,-0.0059 -0.01367,-0.0098 -0.0039,-0.0041 -0.0057,-0.0096 -0.0098,-0.01367 -0.0041,-0.0041 -0.0095,-0.0058 -0.01367,-0.0098 -0.0039,-0.0041 -0.0057,-0.0096 -0.0098,-0.01367 -0.0041,-0.0041 -0.0095,-0.0058 -0.01367,-0.0098 -0.0039,-0.0042 -0.0057,-0.0096 -0.0098,-0.01367 -0.0044,-0.0044 -0.0111,-0.0055 -0.01563,-0.0098 -0.0043,-0.0046 -0.0053,-0.0112 -0.0098,-0.01563 -0.0044,-0.0044 -0.01107,-0.0055 -0.01563,-0.0098 -0.0043,-0.0046 -0.0053,-0.01117 -0.0098,-0.01563 -0.0055,-0.0055 -0.01386,-0.0065 -0.01953,-0.01172 -0.0037,-0.0039 -0.004,-0.0099 -0.0078,-0.01367 -0.0047,-0.0047 -0.01079,-0.0072 -0.01563,-0.01172 -0.0045,-0.0048 -0.007,-0.01093 -0.01172,-0.01563 -0.004,-0.004 -0.0095,-0.0059 -0.01367,-0.0098 -0.0054,-0.0059 -0.008,-0.01384 -0.01367,-0.01953 -0.0047,-0.0047 -0.01076,-0.0072 -0.01563,-0.01172 -0.0045,-0.0049 -0.007,-0.01091 -0.01172,-0.01563 -0.005,-0.005 -0.01237,-0.0069 -0.01758,-0.01172 -0.0049,-0.0053 -0.0066,-0.01247 -0.01172,-0.01758 -0.0054,-0.0054 -0.0139,-0.0065 -0.01953,-0.01172 -0.0052,-0.0056 -0.0063,-0.0141 -0.01172,-0.01953 -0.0062,-0.0062 -0.01508,-0.0078 -0.02148,-0.01367 -0.0043,-0.0046 -0.0053,-0.0112 -0.0098,-0.01563 -0.0047,-0.0047 -0.01079,-0.0072 -0.01563,-0.01172 -0.006,-0.0066 -0.0093,-0.01515 -0.01563,-0.02148 -0.0055,-0.0055 -0.01383,-0.0065 -0.01953,-0.01172 -0.0052,-0.0057 -0.0062,-0.01403 -0.01172,-0.01953 -0.0057,-0.0057 -0.01363,-0.0083 -0.01953,-0.01367 -0.0055,-0.006 -0.0079,-0.01377 -0.01367,-0.01953 -0.0067,-0.0067 -0.01642,-0.0093 -0.02344,-0.01563 -0.0049,-0.0053 -0.0066,-0.0125 -0.01172,-0.01758 -0.0051,-0.0051 -0.01233,-0.0069 -0.01758,-0.01172 -0.0064,-0.0071 -0.0088,-0.01663 -0.01563,-0.02344 -0.0061,-0.0061 -0.01516,-0.0079 -0.02148,-0.01367 -0.0058,-0.0064 -0.0075,-0.01533 -0.01367,-0.02148 -0.0063,-0.0063 -0.01488,-0.0096 -0.02148,-0.01563 -0.006,-0.0066 -0.0093,-0.01515 -0.01563,-0.02148 -0.0068,-0.0068 -0.01632,-0.0092 -0.02344,-0.01563 -0.0055,-0.0059 -0.0079,-0.0138 -0.01367,-0.01953 -0.0057,-0.0057 -0.01358,-0.0082 -0.01953,-0.01367 -0.0069,-0.0077 -0.01021,-0.01802 -0.01758,-0.02539 -0.0064,-0.0064 -0.0148,-0.0096 -0.02148,-0.01563 -0.0061,-0.0067 -0.0092,-0.01507 -0.01563,-0.02148 -0.0067,-0.0067 -0.01642,-0.0093 -0.02344,-0.01563 -0.0064,-0.0071 -0.0088,-0.01663 -0.01563,-0.02344 -0.0078,-0.0078 -0.01919,-0.01033 -0.02734,-0.01758 -0.0058,-0.0064 -0.0076,-0.01536 -0.01367,-0.02148 -0.0061,-0.0061 -0.01511,-0.0079 -0.02148,-0.01367 -0.0073,-0.0083 -0.0097,-0.01949 -0.01758,-0.02734 -0.0071,-0.0071 -0.01795,-0.0089 -0.02539,-0.01563 -0.0068,-0.0075 -0.0084,-0.01819 -0.01563,-0.02539 -0.0074,-0.0074 -0.01766,-0.01067 -0.02539,-0.01758 -0.0069,-0.0077 -0.01021,-0.01802 -0.01758,-0.02539 -0.0075,-0.0075 -0.01756,-0.01059 -0.02539,-0.01758 -0.0069,-0.0077 -0.01021,-0.01802 -0.01758,-0.02539 -0.0075,-0.0075 -0.01756,-0.01059 -0.02539,-0.01758 -0.007,-0.0078 -0.01015,-0.01797 -0.01758,-0.02539 -0.0085,-0.0085 -0.02036,-0.01168 -0.0293,-0.01953 -0.0064,-0.0071 -0.0089,-0.01667 -0.01563,-0.02344 -0.0078,-0.0078 -0.01913,-0.01028 -0.02734,-0.01758 -0.0073,-0.0082 -0.0098,-0.01953 -0.01758,-0.02734 -0.0072,-0.0072 -0.01789,-0.0089 -0.02539,-0.01562 -0.0082,-0.0094 -0.01068,-0.0224 -0.01953,-0.03125 -0.0085,-0.0085 -0.02036,-0.01168 -0.0293,-0.01953 -0.0072,-0.0082 -0.0098,-0.01959 -0.01758,-0.02734 -0.0081,-0.0081 -0.01879,-0.01198 -0.02734,-0.01953 -0.0075,-0.0084 -0.01152,-0.01933 -0.01953,-0.02734 -0.0081,-0.0081 -0.01879,-0.01198 -0.02734,-0.01953 -0.0076,-0.0085 -0.01142,-0.01923 -0.01953,-0.02734 -0.0084,-0.0084 -0.02043,-0.01173 -0.0293,-0.01953 -0.0079,-0.009 -0.01102,-0.02079 -0.01953,-0.0293 -0.0094,-0.0094 -0.02318,-0.01281 -0.0332,-0.02148 -0.0073,-0.0082 -0.0098,-0.01953 -0.01758,-0.02734 -0.0078,-0.0078 -0.01913,-0.01028 -0.02734,-0.01758 -0.0088,-0.01016 -0.01193,-0.02365 -0.02148,-0.0332 -0.0088,-0.0088 -0.02195,-0.0114 -0.03125,-0.01953 -0.0082,-0.0094 -0.01063,-0.02235 -0.01953,-0.03125 -0.009,-0.009 -0.02166,-0.01313 -0.03125,-0.02148 -0.0084,-0.0096 -0.01243,-0.0222 -0.02148,-0.03125 -0.0096,-0.0096 -0.02305,-0.01271 -0.0332,-0.02148 -0.0079,-0.0089 -0.01107,-0.02083 -0.01953,-0.0293 -0.0085,-0.0085 -0.02036,-0.01168 -0.0293,-0.01953 -0.0092,-0.01075 -0.01336,-0.02507 -0.02344,-0.03516 -0.0092,-0.0092 -0.02154,-0.01304 -0.03125,-0.02148 -0.0084,-0.0097 -0.01232,-0.02209 -0.02148,-0.03125 -0.0094,-0.0094 -0.02318,-0.01281 -0.0332,-0.02148 -0.0088,-0.01016 -0.01193,-0.02365 -0.02148,-0.0332 -0.01008,-0.01008 -0.02441,-0.01422 -0.03516,-0.02344 -0.0084,-0.0097 -0.01237,-0.02213 -0.02148,-0.03125 -0.0091,-0.0091 -0.02159,-0.01308 -0.03125,-0.02148 -0.0093,-0.01089 -0.01323,-0.02495 -0.02344,-0.03516 -0.01008,-0.01008 -0.02441,-0.01422 -0.03516,-0.02344 -0.0088,-0.01016 -0.01193,-0.02365 -0.02148,-0.0332 -0.01008,-0.01008 -0.02441,-0.01422 -0.03516,-0.02344 -0.0092,-0.01075 -0.01335,-0.02507 -0.02344,-0.03516 -0.01021,-0.01021 -0.02426,-0.01412 -0.03516,-0.02344 -0.0092,-0.01075 -0.01336,-0.02507 -0.02344,-0.03516 -0.01021,-0.01021 -0.02426,-0.01412 -0.03516,-0.02344 -0.0092,-0.01075 -0.01336,-0.02507 -0.02344,-0.03516 -0.01086,-0.01086 -0.02548,-0.01553 -0.03711,-0.02539 -0.009,-0.0104 -0.01367,-0.02343 -0.02344,-0.0332 -0.01055,-0.01055 -0.02583,-0.01384 -0.03711,-0.02344 -0.0096,-0.01128 -0.01289,-0.02656 -0.02344,-0.03711 -0.01016,-0.01016 -0.02432,-0.01416 -0.03516,-0.02344 -0.01006,-0.01192 -0.01427,-0.02795 -0.02539,-0.03906 -0.01126,-0.01126 -0.02698,-0.01522 -0.03906,-0.02539 -0.0093,-0.01084 -0.01328,-0.025 -0.02344,-0.03516 -0.01016,-0.01016 -0.02432,-0.01416 -0.03516,-0.02344 -0.01058,-0.01266 -0.01558,-0.02925 -0.02734,-0.04102 -0.01086,-0.01086 -0.02547,-0.01553 -0.03711,-0.02539 -0.0099,-0.01164 -0.01453,-0.02625 -0.02539,-0.03711 -0.01112,-0.01112 -0.02714,-0.01533 -0.03906,-0.02539 -0.01013,-0.01202 -0.01419,-0.02786 -0.02539,-0.03906 -0.01146,-0.01146 -0.02674,-0.017 -0.03906,-0.02734 -0.0099,-0.01164 -0.01453,-0.02625 -0.02539,-0.03711 -0.01112,-0.01112 -0.02714,-0.01533 -0.03906,-0.02539 -0.01065,-0.01277 -0.01549,-0.02916 -0.02734,-0.04102 -0.01146,-0.01146 -0.02674,-0.017 -0.03906,-0.02734 -0.01034,-0.01232 -0.01588,-0.0276 -0.02734,-0.03906 -0.01185,-0.01185 -0.02825,-0.01669 -0.04102,-0.02734 -0.01017,-0.01208 -0.01413,-0.02781 -0.02539,-0.03906 -0.01176,-0.01176 -0.02835,-0.01676 -0.04102,-0.02734 -0.0107,-0.01283 -0.01543,-0.0291 -0.02734,-0.04102 -0.01176,-0.01176 -0.02835,-0.01676 -0.04102,-0.02734 -0.0107,-0.01283 -0.01543,-0.02911 -0.02734,-0.04102 -0.01176,-0.01176 -0.02835,-0.01676 -0.04102,-0.02734 -0.01117,-0.01352 -0.01679,-0.03047 -0.0293,-0.04297 -0.0123,-0.0123 -0.02968,-0.01633 -0.04297,-0.02734 -0.01089,-0.01311 -0.01519,-0.03082 -0.02734,-0.04297 -0.0123,-0.0123 -0.02968,-0.01633 -0.04297,-0.02734 -0.01101,-0.01329 -0.01504,-0.03066 -0.02734,-0.04297 -0.01241,-0.01241 -0.02956,-0.0182 -0.04297,-0.0293 -0.01109,-0.01341 -0.01689,-0.03056 -0.0293,-0.04297 -0.0123,-0.0123 -0.02968,-0.01633 -0.04297,-0.02734 -0.01147,-0.01397 -0.0164,-0.03203 -0.0293,-0.04492 -0.01256,-0.01256 -0.02938,-0.01808 -0.04297,-0.0293 -0.01121,-0.01359 -0.01673,-0.0304 -0.0293,-0.04297 -0.0128,-0.0128 -0.03106,-0.0179 -0.04492,-0.0293 -0.01152,-0.01405 -0.01634,-0.03196 -0.0293,-0.04492 -0.0128,-0.0128 -0.03106,-0.0179 -0.04492,-0.0293 -0.01152,-0.01405 -0.01634,-0.03196 -0.0293,-0.04492 -0.0128,-0.0128 -0.03106,-0.0179 -0.04492,-0.0293 -0.01197,-0.01473 -0.01771,-0.03333 -0.03125,-0.04687 -0.01315,-0.01315 -0.03065,-0.01958 -0.04492,-0.03125 -0.01167,-0.01428 -0.0181,-0.03177 -0.03125,-0.04492 -0.01354,-0.01354 -0.03214,-0.01928 -0.04688,-0.03125 -0.01152,-0.01405 -0.01634,-0.03196 -0.0293,-0.04492 -0.01344,-0.01344 -0.03226,-0.01936 -0.04687,-0.03125 -0.01197,-0.01473 -0.01771,-0.03333 -0.03125,-0.04687 -0.01354,-0.01354 -0.03214,-0.01928 -0.04687,-0.03125 -0.01202,-0.01481 -0.01764,-0.03326 -0.03125,-0.04687 -0.01383,-0.01383 -0.03376,-0.01906 -0.04883,-0.03125 -0.01219,-0.01507 -0.01742,-0.035 -0.03125,-0.04883 -0.01427,-0.01427 -0.03325,-0.02068 -0.04883,-0.0332 -0.01167,-0.01428 -0.0181,-0.03177 -0.03125,-0.04492 -0.01354,-0.01354 -0.03214,-0.01928 -0.04687,-0.03125 -0.01268,-0.01583 -0.01872,-0.0363 -0.0332,-0.05078 -0.01401,-0.01401 -0.03356,-0.01893 -0.04883,-0.03125 -0.01232,-0.01527 -0.01724,-0.03482 -0.03125,-0.04883 -0.01409,-0.01409 -0.03346,-0.02082 -0.04883,-0.0332 -0.01252,-0.01558 -0.01894,-0.03456 -0.0332,-0.04883 -0.01448,-0.01448 -0.03495,-0.02052 -0.05078,-0.0332 -0.01268,-0.01583 -0.01873,-0.0363 -0.0332,-0.05078 -0.01531,-0.01531 -0.03592,-0.02186 -0.05273,-0.03516 -0.01197,-0.01473 -0.01771,-0.03333 -0.03125,-0.04687 -0.0142,-0.0142 -0.03333,-0.02074 -0.04883,-0.0332 -0.01316,-0.01659 -0.02003,-0.03761 -0.03516,-0.05273 -0.01466,-0.01466 -0.03474,-0.02039 -0.05078,-0.0332 -0.01282,-0.01604 -0.01854,-0.03612 -0.0332,-0.05078 -0.01512,-0.01512 -0.03614,-0.022 -0.05273,-0.03516 -0.01282,-0.01604 -0.01854,-0.03612 -0.0332,-0.05078 -0.01577,-0.01577 -0.03732,-0.02348 -0.05469,-0.03711 -0.01247,-0.0155 -0.01901,-0.03463 -0.0332,-0.04883 -0.01459,-0.01459 -0.03483,-0.02044 -0.05078,-0.0332 -0.01359,-0.01729 -0.01945,-0.03898 -0.03516,-0.05469 -0.01524,-0.01524 -0.03601,-0.02191 -0.05273,-0.03516 -0.0133,-0.01682 -0.01984,-0.03742 -0.03516,-0.05273 -0.01577,-0.01577 -0.03732,-0.02348 -0.05469,-0.03711 -0.01296,-0.01627 -0.02031,-0.03593 -0.03516,-0.05078 -0.01485,-0.01485 -0.03452,-0.0222 -0.05078,-0.03516 -0.01378,-0.0176 -0.02114,-0.03872 -0.03711,-0.05469 -0.01616,-0.01616 -0.03881,-0.0232 -0.05664,-0.03711 -0.01324,-0.01673 -0.01992,-0.0375 -0.03516,-0.05273 -0.01524,-0.01524 -0.03601,-0.02191 -0.05273,-0.03516 -0.01406,-0.01807 -0.02075,-0.04028 -0.03711,-0.05664 -0.01577,-0.01577 -0.03732,-0.02348 -0.05469,-0.03711 -0.01378,-0.0176 -0.02114,-0.03872 -0.03711,-0.05469 -0.01693,-0.01693 -0.03984,-0.0246 -0.05859,-0.03906 -0.01324,-0.01673 -0.01992,-0.0375 -0.03516,-0.05273 -0.01524,-0.01524 -0.03601,-0.02191 -0.05273,-0.03516 -0.01452,-0.01886 -0.02205,-0.04158 -0.03906,-0.05859 -0.01616,-0.01616 -0.03881,-0.0232 -0.05664,-0.03711 -0.01406,-0.01807 -0.02075,-0.04028 -0.03711,-0.05664 -0.01642,-0.01642 -0.0385,-0.02496 -0.05664,-0.03906 -0.0141,-0.01814 -0.02265,-0.04022 -0.03906,-0.05664 -0.01702,-0.01702 -0.03973,-0.02454 -0.05859,-0.03906 -0.01372,-0.0175 -0.02122,-0.0388 -0.03711,-0.05469 -0.01589,-0.01589 -0.03718,-0.02339 -0.05469,-0.03711 -0.01483,-0.01939 -0.02356,-0.0431 -0.04102,-0.06055 -0.01741,-0.01741 -0.04121,-0.02426 -0.06055,-0.03906 -0.014,-0.01797 -0.02083,-0.04036 -0.03711,-0.05664 -0.01693,-0.01693 -0.03984,-0.0246 -0.05859,-0.03906 -0.01446,-0.01876 -0.02213,-0.04166 -0.03906,-0.05859 -0.01654,-0.01654 -0.03835,-0.02487 -0.05664,-0.03906 -0.01483,-0.01939 -0.02357,-0.0431 -0.04102,-0.06055 -0.01767,-0.01767 -0.04089,-0.02604 -0.06055,-0.04102 -0.01419,-0.01829 -0.02252,-0.0401 -0.03906,-0.05664 -0.01693,-0.01693 -0.03984,-0.0246 -0.05859,-0.03906 -0.0151,-0.01986 -0.02318,-0.04466 -0.04102,-0.0625 -0.01741,-0.01741 -0.04121,-0.02426 -0.06055,-0.03906 -0.0148,-0.01934 -0.02165,-0.04314 -0.03906,-0.06055 -0.01435,-0.01435 -0.03315,-0.02257 -0.04883,-0.03516 -0.01139,-0.01372 -0.01861,-0.03041 -0.03125,-0.04297 -3.84e-4,-3.81e-4 -0.0016,3.81e-4 -0.002,0 0,0 0,-0.002 0,-0.002 -4.05e-4,-4.11e-4 4.06e-4,-0.0015 0,-0.002 -0.0016,-0.0016 -0.0042,-0.0023 -0.0059,-0.0039 0,0 -0.002,-0.002 -0.002,-0.002 0,0 -0.002,-0.002 -0.002,-0.002 -0.0027,-0.0027 -0.0051,-0.0051 -0.0078,-0.0078 -0.001,-0.0011 -9.07e-4,-0.0029 -0.002,-0.0039 -10e-4,-10e-4 -0.0029,-9.24e-4 -0.0039,-0.002 0,0 0,-0.002 0,-0.002 0,0 -0.002,-0.002 -0.002,-0.002 -0.002,-0.002 -0.0057,-0.0019 -0.0078,-0.0039 0,0 0,-0.002 0,-0.002 -0.0017,-0.0017 -0.0042,-0.0023 -0.0059,-0.0039 -9.86e-4,-0.001 -9.58e-4,-0.0029 -0.002,-0.0039 0,0 -0.002,-0.002 -0.002,-0.002 -0.0045,-0.0047 -0.01095,-0.01111 -0.01563,-0.01563 -0.0017,-0.0017 -0.0042,-0.0023 -0.0059,-0.0039 -0.0026,-0.0027 -0.0051,-0.0051 -0.0078,-0.0078 -0.0043,-0.0045 -0.0073,-0.0094 -0.01172,-0.01367 -0.0045,-0.0047 -0.009,-0.0091 -0.01367,-0.01367 -0.0039,-0.004 -0.0077,-0.0078 -0.01172,-0.01172 -0.0032,-0.0034 -0.0064,-0.0065 -0.0098,-0.0098 -0.001,-0.0011 -9.04e-4,-0.0029 -0.002,-0.0039 -0.0021,-0.0021 -0.0057,-0.0038 -0.0078,-0.0059 -0.001,-0.001 -0.0029,-9.39e-4 -0.0039,-0.002 0,0 0,-0.002 0,-0.002 -0.0061,-0.0065 -0.01314,-0.01142 -0.01953,-0.01758 -0.0052,-0.0055 -0.01017,-0.01036 -0.01563,-0.01563 -0.0059,-0.0062 -0.01142,-0.0117 -0.01758,-0.01758 -0.0045,-0.0047 -0.009,-0.0091 -0.01367,-0.01367 -0.0061,-0.0064 -0.0112,-0.0134 -0.01758,-0.01953 -0.0029,-0.0031 -0.0048,-0.0068 -0.0078,-0.0098 0,0 -0.002,0 -0.002,0 -0.0037,-0.0036 -0.008,-0.0062 -0.01172,-0.0098 -0.0055,-0.0058 -0.0099,-0.01206 -0.01563,-0.01758 -0.0077,-0.0082 -0.01723,-0.0138 -0.02539,-0.02148 -0.0052,-0.0055 -0.01018,-0.01036 -0.01563,-0.01563 -0.0083,-0.009 -0.01647,-0.01698 -0.02539,-0.02539 -0.0033,-0.0035 -0.0044,-0.01026 -0.0078,-0.01367 -0.0047,-0.0047 -0.01078,-0.0072 -0.01563,-0.01172 -0.0059,-0.0061 -0.01339,-0.0098 -0.01953,-0.01563 -0.008,-0.0086 -0.01493,-0.0173 -0.02344,-0.02539 -0.008,-0.0086 -0.01686,-0.01537 -0.02539,-0.02344 -0.0058,-0.0062 -0.0096,-0.01358 -0.01562,-0.01953 -0.0023,-0.0024 -0.0035,-0.0055 -0.0059,-0.0078 -0.0023,-0.0023 -0.0054,-0.0036 -0.0078,-0.0059 -0.0068,-0.0071 -0.01436,-0.01282 -0.02148,-0.01953 -0.0082,-0.0089 -0.0166,-0.01709 -0.02539,-0.02539 -0.0089,-0.0096 -0.01783,-0.01836 -0.02734,-0.02734 -0.0054,-0.0059 -0.01,-0.01194 -0.01563,-0.01758 -0.0027,-0.0028 -0.0031,-0.007 -0.0059,-0.0098 -0.0044,-0.0044 -0.0111,-0.0055 -0.01562,-0.0098 -0.0065,-0.0068 -0.01465,-0.01115 -0.02148,-0.01758 -0.01012,-0.01109 -0.02027,-0.02102 -0.03125,-0.03125 -0.0083,-0.0091 -0.01647,-0.01691 -0.02539,-0.02539 -0.0058,-0.0064 -0.0076,-0.01536 -0.01367,-0.02148 0,0 -0.002,0 -0.002,0 -0.006,-0.006 -0.01328,-0.0099 -0.01953,-0.01563 -0.0098,-0.0107 -0.02065,-0.01941 -0.03125,-0.0293 -0.01011,-0.01113 -0.02027,-0.02098 -0.03125,-0.03125 -0.0084,-0.0097 -0.01237,-0.02213 -0.02148,-0.03125 -0.0057,-0.0057 -0.01358,-0.0082 -0.01953,-0.01367 -0.0071,-0.0075 -0.01593,-0.01243 -0.02344,-0.01953 -0.01304,-0.01477 -0.02647,-0.02773 -0.04102,-0.04102 -0.0051,-0.0056 -0.0083,-0.01218 -0.01367,-0.01758 -0.0043,-0.0046 -0.0053,-0.0112 -0.0098,-0.01563 -0.0055,-0.0055 -0.01386,-0.0065 -0.01953,-0.01172 -0.0085,-0.009 -0.01829,-0.01507 -0.02734,-0.02344 -0.01196,-0.01332 -0.02392,-0.02502 -0.03711,-0.03711 -0.005,-0.0059 -0.0064,-0.01386 -0.01172,-0.01953 0,0 -0.002,-0.002 -0.002,-0.002 -0.0039,-0.0042 -0.0057,-0.0096 -0.0098,-0.01367 -0.0061,-0.0061 -0.01516,-0.0079 -0.02148,-0.01367 -0.01027,-0.01099 -0.02207,-0.01919 -0.0332,-0.0293 -0.01004,-0.01115 -0.02034,-0.02097 -0.03125,-0.03125 -0.0093,-0.01084 -0.01328,-0.025 -0.02344,-0.03516 -0.0081,-0.0081 -0.01883,-0.01201 -0.02734,-0.01953 -0.01016,-0.01103 -0.02218,-0.01915 -0.0332,-0.0293 -0.0099,-0.01128 -0.01856,-0.02278 -0.0293,-0.0332 -0.0075,-0.0085 -0.01145,-0.01927 -0.01953,-0.02734 -0.0112,-0.0112 -0.02705,-0.01526 -0.03906,-0.02539 -0.01313,-0.01478 -0.02636,-0.02776 -0.04102,-0.04102 -0.0072,-0.0082 -0.01189,-0.01768 -0.01953,-0.02539 -0.0049,-0.0053 -0.0066,-0.0125 -0.01172,-0.01758 -0.0064,-0.0064 -0.01483,-0.0096 -0.02148,-0.01563 -0.01027,-0.01104 -0.02401,-0.0172 -0.03516,-0.02734 -0.01079,-0.0125 -0.01938,-0.02565 -0.03125,-0.03711 -0.0084,-0.0097 -0.01232,-0.02209 -0.02148,-0.03125 -0.01112,-0.01112 -0.02714,-0.01533 -0.03906,-0.02539 -0.01419,-0.01623 -0.02892,-0.0305 -0.04492,-0.04492 -0.0071,-0.0082 -0.01198,-0.01765 -0.01953,-0.02539 -0.0043,-0.0046 -0.0053,-0.0112 -0.0098,-0.01563 -0.0078,-0.0078 -0.01913,-0.01028 -0.02734,-0.01758 -0.01137,-0.0125 -0.02463,-0.02182 -0.03711,-0.0332 -0.01003,-0.01182 -0.0183,-0.02425 -0.0293,-0.03516 -0.0073,-0.0083 -0.0097,-0.01949 -0.01758,-0.02734 -0.005,-0.005 -0.01432,-0.0088 -0.01953,-0.01367 -0.01037,-0.01085 -0.02588,-0.01544 -0.03711,-0.02539 -0.01076,-0.01248 -0.01941,-0.02567 -0.03125,-0.03711 -0.0099,-0.01163 -0.01453,-0.02625 -0.02539,-0.03711 -0.0128,-0.0128 -0.03106,-0.0179 -0.04492,-0.0293 -0.01295,-0.01497 -0.02651,-0.02757 -0.04102,-0.04102 -0.01117,-0.01352 -0.01679,-0.03047 -0.0293,-0.04297 -0.01081,-0.01081 -0.02554,-0.01558 -0.03711,-0.02539 -0.01302,-0.01472 -0.02843,-0.02587 -0.04297,-0.03906 -0.01282,-0.01604 -0.01854,-0.03612 -0.0332,-0.05078 -0.01008,-0.01008 -0.02441,-0.01422 -0.03516,-0.02344 -0.01327,-0.01466 -0.03013,-0.02401 -0.04492,-0.03711 -0.01359,-0.01729 -0.01945,-0.03898 -0.03516,-0.05469 -0.0097,-0.0097 -0.02289,-0.01454 -0.0332,-0.02344 -0.01227,-0.0133 -0.02942,-0.02122 -0.04297,-0.0332 -0.0066,-0.0086 -0.01046,-0.0191 -0.01758,-0.02734 0,0 -0.002,-0.002 -0.002,-0.002 -0.0084,-0.0096 -0.01244,-0.0222 -0.02148,-0.03125 -0.0092,-0.0092 -0.02349,-0.01499 -0.0332,-0.02344 -0.01153,-0.01229 -0.02838,-0.01816 -0.04102,-0.0293 -0.0081,-0.0099 -0.01267,-0.02199 -0.02148,-0.03125 -0.0087,-0.01002 -0.01205,-0.02377 -0.02148,-0.0332 -0.0092,-0.0092 -0.02349,-0.01499 -0.0332,-0.02344 -0.01155,-0.01235 -0.02835,-0.0181 -0.04102,-0.0293 -0.0069,-0.0092 -0.0101,-0.02053 -0.01758,-0.0293 -9.82e-4,-0.0011 -0.0029,-9.08e-4 -0.0039,-0.002 -0.0087,-0.0101 -0.01198,-0.0237 -0.02148,-0.0332 -0.0098,-0.0098 -0.02476,-0.01644 -0.03516,-0.02539 -0.01118,-0.01201 -0.02878,-0.02034 -0.04102,-0.03125 -0.0071,-0.0094 -0.01182,-0.02036 -0.01953,-0.0293 0,0 -0.002,-0.002 -0.002,-0.002 -0.0084,-0.0096 -0.01244,-0.0222 -0.02148,-0.03125 -0.01021,-0.01021 -0.02426,-0.01412 -0.03516,-0.02344 -0.01192,-0.01306 -0.02786,-0.02141 -0.04102,-0.0332 -0.01528,-0.02018 -0.02487,-0.0444 -0.04297,-0.0625 -0.01191,-0.01191 -0.02818,-0.01665 -0.04102,-0.02734 -0.01076,-0.01195 -0.02532,-0.01838 -0.03711,-0.0293 -0.01519,-0.02002 -0.02304,-0.04453 -0.04102,-0.0625 -0.01328,-0.01328 -0.03245,-0.01752 -0.04687,-0.0293 -0.01183,-0.01351 -0.02594,-0.02294 -0.03906,-0.03516 -0.01373,-0.01752 -0.01925,-0.04074 -0.03516,-0.05664 -0.01466,-0.01466 -0.03474,-0.02039 -0.05078,-0.0332 -0.01143,-0.01352 -0.02441,-0.02483 -0.03711,-0.03711 -0.01276,-0.01596 -0.01862,-0.0362 -0.0332,-0.05078 -0.01823,-0.01823 -0.04216,-0.0276 -0.0625,-0.04297 -0.0093,-0.01113 -0.01916,-0.02094 -0.0293,-0.03125 -0.01197,-0.01473 -0.01771,-0.03333 -0.03125,-0.04687 -0.01966,-0.01966 -0.04821,-0.03055 -0.07031,-0.04687 -0.0096,-0.01225 -0.01667,-0.02579 -0.02734,-0.03711 -0.01013,-0.01202 -0.01419,-0.02786 -0.02539,-0.03906 -0.01081,-0.01081 -0.02553,-0.01558 -0.03711,-0.02539 -0.01128,-0.01245 -0.02665,-0.01995 -0.03906,-0.03125 -0.0164,-0.02224 -0.0271,-0.04858 -0.04687,-0.06836 -0.01466,-0.01466 -0.03474,-0.02039 -0.05078,-0.0332 -0.01049,-0.01202 -0.02364,-0.02025 -0.03516,-0.03125 -0.01446,-0.01876 -0.02213,-0.04166 -0.03906,-0.05859 -0.01862,-0.01862 -0.04364,-0.02734 -0.06445,-0.04297 -0.0081,-0.0098 -0.01462,-0.02013 -0.02344,-0.0293 -0.01344,-0.01704 -0.02161,-0.03723 -0.03711,-0.05273 -0.02097,-0.02097 -0.04854,-0.03166 -0.07227,-0.04883 -0.01821,-0.02585 -0.03007,-0.05546 -0.05273,-0.07813 -0.01354,-0.01354 -0.03215,-0.01928 -0.04687,-0.03125 -0.0037,-0.0042 -0.0098,-0.0057 -0.01367,-0.0098 -0.0052,-0.004 -0.01028,-0.0079 -0.01563,-0.01172 -0.01747,-0.02434 -0.02932,-0.05276 -0.05078,-0.07422 -0.01806,-0.01806 -0.04237,-0.02576 -0.0625,-0.04102 -0.0081,-0.0097 -0.01661,-0.01824 -0.02539,-0.02734 -0.01446,-0.01876 -0.02213,-0.04166 -0.03906,-0.05859 -0.02305,-0.02305 -0.05373,-0.03429 -0.08008,-0.05273 -0.01741,-0.02421 -0.02747,-0.05286 -0.04883,-0.07422 -0.01419,-0.01419 -0.03333,-0.02074 -0.04883,-0.0332 -0.0087,-0.0099 -0.02184,-0.01425 -0.03125,-0.02344 -0.01716,-0.02372 -0.02786,-0.0513 -0.04883,-0.07226 -0.01966,-0.01967 -0.04626,-0.0286 -0.06836,-0.04492 -0.0074,-0.0092 -0.01347,-0.01869 -0.02148,-0.02734 -0.01437,-0.0186 -0.02226,-0.04179 -0.03906,-0.05859 -0.02317,-0.02317 -0.05358,-0.03422 -0.08008,-0.05273 -0.01781,-0.02503 -0.02877,-0.05416 -0.05078,-0.07617 -0.01719,-0.01719 -0.03952,-0.02637 -0.05859,-0.04102 -0.0075,-0.0089 -0.01733,-0.01508 -0.02539,-0.02344 -0.0164,-0.02224 -0.0271,-0.04858 -0.04687,-0.06836 -0.02277,-0.02277 -0.05213,-0.03446 -0.07813,-0.05273 -0.01828,-0.026 -0.02996,-0.05535 -0.05273,-0.07813 -0.02249,-0.02249 -0.05249,-0.03463 -0.07813,-0.05273 -0.0186,-0.02668 -0.03138,-0.05677 -0.05469,-0.08008 -0.02331,-0.02331 -0.0534,-0.03609 -0.08008,-0.05469 -0.0036,-0.0051 -0.006,-0.01066 -0.0098,-0.01563 0,0 -0.002,-0.002 -0.002,-0.002 -0.01498,-0.01965 -0.02335,-0.04288 -0.04102,-0.06055 -0.02288,-0.02288 -0.05395,-0.03439 -0.08008,-0.05273 -0.01882,-0.02718 -0.03099,-0.05833 -0.05469,-0.08203 -0.02251,-0.02251 -0.05246,-0.03266 -0.07813,-0.05078 -0.0044,-0.0055 -0.0071,-0.01223 -0.01172,-0.01758 -0.01607,-0.02162 -0.02565,-0.04713 -0.04492,-0.06641 -0.02343,-0.02343 -0.05325,-0.03602 -0.08008,-0.05469 -0.01866,-0.02683 -0.03126,-0.05665 -0.05469,-0.08008 -0.02314,-0.02314 -0.05362,-0.03619 -0.08008,-0.05469 -10e-4,-0.0015 -0.0029,-0.0044 -0.0039,-0.0059 -0.01797,-0.02536 -0.03046,-0.0539 -0.05273,-0.07617 -0.02435,-0.02435 -0.05597,-0.03744 -0.08398,-0.05664 -0.01851,-0.0265 -0.02957,-0.05691 -0.05273,-0.08008 -0.02327,-0.02327 -0.05736,-0.03612 -0.08398,-0.05469 -0.0024,-0.003 -0.0034,-0.0068 -0.0059,-0.0098 -0.01731,-0.02401 -0.02763,-0.05302 -0.04883,-0.07422 -0.02382,-0.02382 -0.0547,-0.03579 -0.08203,-0.05469 -0.0191,-0.02778 -0.03247,-0.05981 -0.05664,-0.08398 -0.02382,-0.02382 -0.0547,-0.03579 -0.08203,-0.05469 -0.0192,-0.02801 -0.03229,-0.05963 -0.05664,-0.08398 -0.02487,-0.02487 -0.05726,-0.03715 -0.08594,-0.05664 -0.01882,-0.02718 -0.03099,-0.05833 -0.05469,-0.08203 -0.02397,-0.02396 -0.05452,-0.03766 -0.08203,-0.05664 -0.01946,-0.02861 -0.03378,-0.06112 -0.05859,-0.08594 -0.02382,-0.02382 -0.0547,-0.03579 -0.08203,-0.05469 -0.01957,-0.02885 -0.03359,-0.06093 -0.05859,-0.08594 -0.02501,-0.02501 -0.05709,-0.03903 -0.08594,-0.05859 -0.0191,-0.02778 -0.03247,-0.05981 -0.05664,-0.08398 -0.02448,-0.02448 -0.05581,-0.03737 -0.08398,-0.05664 -0.01957,-0.02885 -0.03359,-0.06093 -0.05859,-0.08594 -0.02539,-0.0254 -0.05854,-0.03881 -0.08789,-0.05859 -0.01932,-0.02828 -0.03208,-0.06138 -0.05664,-0.08594 -0.02487,-0.02487 -0.05726,-0.03715 -0.08594,-0.05664 0,0 -0.002,-0.002 -0.002,-0.002 -0.0192,-0.02801 -0.03229,-0.05963 -0.05664,-0.08399 -0.02435,-0.02435 -0.05597,-0.03744 -0.08398,-0.05664 -0.02014,-0.0302 -0.0345,-0.0638 -0.06055,-0.08984 -0.02552,-0.02552 -0.05837,-0.03874 -0.08789,-0.05859 -0.01968,-0.02911 -0.03339,-0.06268 -0.05859,-0.08789 -0.02552,-0.02552 -0.05837,-0.03874 -0.08789,-0.05859 -0.01968,-0.02911 -0.03339,-0.06268 -0.05859,-0.08789 -0.02552,-0.02552 -0.05837,-0.03874 -0.08789,-0.05859 -0.01985,-0.02952 -0.03307,-0.06237 -0.05859,-0.08789 -0.02521,-0.02521 -0.05878,-0.03891 -0.08789,-0.05859 -0.02014,-0.0302 -0.0345,-0.0638 -0.06055,-0.08984 -0.03047,-0.03047 -0.06942,-0.04797 -0.105469,-0.07031 -0.01867,-0.01844 -0.03333,-0.04157 -0.05469,-0.05664 0,0 -0.002,0 -0.002,0 -0.02979,-0.03991 -0.06736,-0.07873 -0.107422,-0.107422 0,0 0,-0.002 0,-0.002 -0.0213,-0.02886 -0.05909,-0.03726 -0.08594,-0.06055 -0.02693,-0.04695 -0.06935,-0.07427 -0.109375,-0.109375 -0.03047,-0.05394 -0.07957,-0.08489 -0.126953,-0.123047 -0.02871,-0.04733 -0.06722,-0.07681 -0.109375,-0.111328 -0.0293,-0.04877 -0.07174,-0.07806 -0.115234,-0.113281 -0.02921,-0.04885 -0.06984,-0.07798 -0.113281,-0.113281 -0.02975,-0.05014 -0.07056,-0.08129 -0.115235,-0.117188 -0.02923,-0.04878 -0.07179,-0.07808 -0.115234,-0.113281 -0.0294,-0.0498 -0.0711,-0.08138 -0.115234,-0.117187 -0.02959,-0.05009 -0.0727,-0.0813 -0.117188,-0.117188 -0.02989,-0.05092 -0.07391,-0.08285 -0.119141,-0.11914 -0.03002,-0.051 -0.07371,-0.08288 -0.11914,-0.119141 -0.03006,-0.05103 -0.07364,-0.08289 -0.119141,-0.119141 -0.03008,-0.05142 -0.07342,-0.0846 -0.11914,-0.121094 -0.03052,-0.05215 -0.07647,-0.08435 -0.123047,-0.121093 -0.03016,-0.05139 -0.0753,-0.08273 -0.121094,-0.119141 -0.0303,-0.05254 -0.07454,-0.08594 -0.121094,-0.123047 -0.03067,-0.05319 -0.07575,-0.087668 -0.123047,-0.1249998 -0.0308,-0.053382 -0.07746,-0.087618 -0.125,-0.125 -0.03067,-0.052623 -0.07799,-0.086094 -0.125,-0.1230468 -0.03058,-0.053367 -0.07575,-0.087503 -0.123047,-0.125 -0.03111,-0.054346 -0.07855,-0.091055 -0.126953,-0.1289063 -0.03055,-0.052932 -0.07796,-0.08776 -0.125,-0.125 -0.03181,-0.056119 -0.08072,-0.094189 -0.130859,-0.1328125 -0.03134,-0.054253 -0.07834,-0.091203 -0.126953,-0.1289062 -0.03153,-0.054645 -0.08183,-0.09103 -0.13086,-0.1289063 -0.03151,-0.054553 -0.07994,-0.091053 -0.128906,-0.1289062 -0.03193,-0.055869 -0.08072,-0.094318 -0.130859,-0.1328125 -0.0313,-0.054841 -0.08002,-0.092637 -0.128907,-0.1308594 -0.03236,-0.056846 -0.08361,-0.097769 -0.134765,-0.1367188 -0.0047,-0.00815 -0.01437,-0.011691 -0.01953,-0.019531 -0.01073,-0.00719 -0.01603,-0.021093 -0.02734,-0.027344 -0.02499,-0.032068 -0.052,-0.061386 -0.08398,-0.085937 -0.03204,-0.055908 -0.08448,-0.094171 -0.134766,-0.1328126 -0.01001,-0.017674 -0.02901,-0.02676 -0.04102,-0.042969 0,0 -0.002,0 -0.002,0 -0.03756,-0.050394 -0.07526,-0.1010106 -0.128906,-0.1328125 -5.28e-4,-5.277e-4 -0.0033,-0.00143 -0.0039,-0.00195 -0.03681,-0.04967 -0.0745,-0.099009 -0.126953,-0.1308594 -10e-4,-0.00102 -0.0067,-9.456e-4 -0.0078,-0.00195 -0.03621,-0.049451 -0.07136,-0.1006677 -0.123047,-0.1328125 -0.0016,-0.00161 -0.0099,-0.00232 -0.01172,-0.00391 -0.03546,-0.048725 -0.0706,-0.098682 -0.121093,-0.1308594 -0.0025,-0.00249 -0.01454,-0.00343 -0.01758,-0.00586 -0.03457,-0.047542 -0.06825,-0.096948 -0.117188,-0.1289063 -0.0023,-0.00231 -0.01287,-0.0036 -0.01563,-0.00586 -0.03435,-0.048616 -0.06798,-0.097927 -0.1171875,-0.1308593 -0.00326,-0.00326 -0.017418,-0.00466 -0.021484,-0.00781 C 9.9372455,7.2396763 9.9050762,7.1909 9.8574219,7.1582031 c -0.00374,-0.00374 -0.018728,-0.00616 -0.023437,-0.00977 -0.032977,-0.04766 -0.066053,-0.095679 -0.1132813,-0.1289063 -0.00443,-0.00443 -0.021667,-0.00552 -0.027344,-0.00977 -0.032133,-0.046633 -0.063569,-0.095853 -0.109375,-0.1289062 -0.00499,-0.00499 -0.022869,-0.00697 -0.029297,-0.011719 -0.031481,-0.046275 -0.062508,-0.093705 -0.1074219,-0.1269531 -0.00587,-0.00587 -0.025533,-0.00813 -0.033203,-0.013672 -0.030728,-0.045575 -0.059761,-0.093716 -0.1035156,-0.1269531 -0.00709,-0.00709 -0.02963,-0.00901 -0.039063,-0.015625 -0.029843,-0.044437 -0.057355,-0.092054 -0.099609,-0.125 -0.00822,-0.00822 -0.031934,-0.011941 -0.042969,-0.019531 -0.028883,-0.043074 -0.055118,-0.088605 -0.095703,-0.1210937 -0.00929,-0.00929 -0.034405,-0.012992 -0.046875,-0.021484 C 8.9580491,6.2559437 8.9324051,6.2104687 8.8925781,6.177726 8.8821181,6.167266 8.8557811,6.163745 8.8417971,6.154289 8.8144032,6.11253 8.7903186,6.0675592 8.7519531,6.0351562 8.7401183,6.0233215 8.7129961,6.0183742 8.6972656,6.0078125 8.6707347,5.9670703 8.6483041,5.9246706 8.6113281,5.8925781 8.5977726,5.8790226 8.5686706,5.8732267 8.5507812,5.8613281 8.5252454,5.8220079 8.5040392,5.7795323 8.46875,5.7480469 8.4535253,5.7328222 8.4240735,5.7260419 8.4042969,5.7128906 8.3795679,5.6744089 8.3602303,5.6328112 8.3261719,5.6015625 8.3088874,5.584278 8.2778907,5.5771322 8.2558594,5.5625 8.2324461,5.5263336 8.2133527,5.4869626 8.1816406,5.4570312 8.1616788,5.4370694 8.1303505,5.4266042 8.1054688,5.4101562 8.083369,5.3762075 8.0665652,5.339158 8.0371094,5.3105469 7.9339566,5.2073937 7.7747864,5.1484373 7.6289062,5.1484375 Z"
       id="path6341"
       style="opacity:0.2;fill:url(#linearGradient7208);fill-opacity:1"
       clip-path="url(#clipPath7213)"
       inkscape:connector-curvature="0" />
    <path
       style="fill:none"
       inkscape:connector-curvature="0"
       id="path4"
       d="M 3.9999777,4.0333382 H 15.999978 V 15.966671 H 3.9999777 Z" />
    <path
       d="m 18.999978,19.033339 h 12 v 11.933333 h -12 z"
       id="path9754"
       inkscape:connector-curvature="0"
       style="fill:none" />
    <path
       inkscape:connector-curvature="0"
       d="m 7.0110887,9.3277828 c 0.8,1.5722222 2.088889,2.8611112 3.6611113,3.6611112 l 1.222222,-1.222222 c 0.155556,-0.155556 0.372223,-0.2 0.566667,-0.138889 0.622222,0.205555 1.288889,0.316666 1.983333,0.316666 a 0.55555556,0.55555556 0 0 1 0.555556,0.555556 v 1.944444 A 0.55555556,0.55555556 0 0 1 14.444422,15.000005 9.4444445,9.4444445 0 0 1 4.9999777,5.5555603 0.55555556,0.55555556 0 0 1 5.5555337,5.0000048 h 1.944444 a 0.55555556,0.55555556 0 0 1 0.555556,0.5555555 c 0,0.6944445 0.111111,1.3611115 0.316666,1.9833335 0.06111,0.194444 0.01667,0.411111 -0.138889,0.566667 z"
       id="path6267"
       style="fill:#ffffff" />
  </g>
</svg>
