<?xml version="1.0" encoding="UTF-8" standalone="no"?>
<!-- Created with Inkscape (http://www.inkscape.org/) -->

<svg
   xmlns:dc="http://purl.org/dc/elements/1.1/"
   xmlns:cc="http://creativecommons.org/ns#"
   xmlns:rdf="http://www.w3.org/1999/02/22-rdf-syntax-ns#"
   xmlns:svg="http://www.w3.org/2000/svg"
   xmlns="http://www.w3.org/2000/svg"
   xmlns:xlink="http://www.w3.org/1999/xlink"
   xmlns:sodipodi="http://sodipodi.sourceforge.net/DTD/sodipodi-0.dtd"
   xmlns:inkscape="http://www.inkscape.org/namespaces/inkscape"
   width="5.6444445mm"
   height="5.6444445mm"
   viewBox="0 0 20 20"
   id="svg2"
   version="1.1"
   inkscape:version="0.91 r13725"
   sodipodi:docname="Timer.svg"
   inkscape:export-filename="/home/juergen/Projekte/Android/Android_Studio/Baumann_Theme/theme/src/main/assets/icons/res/drawable-xxhdpi/a094.png"
   inkscape:export-xdpi="648"
   inkscape:export-ydpi="648">
  <sodipodi:namedview
     id="base"
     pagecolor="#ffffff"
     bordercolor="#666666"
     borderopacity="1.0"
     inkscape:pageopacity="0.0"
     inkscape:pageshadow="2"
     inkscape:zoom="22.4"
     inkscape:cx="9.7602122"
     inkscape:cy="5.2639319"
     inkscape:document-units="px"
     inkscape:current-layer="layer1"
     showgrid="false"
     fit-margin-top="0"
     fit-margin-left="0"
     fit-margin-right="0"
     fit-margin-bottom="0"
     showguides="true"
     inkscape:guide-bbox="true"
     inkscape:window-width="1366"
     inkscape:window-height="744"
     inkscape:window-x="0"
     inkscape:window-y="24"
     inkscape:window-maximized="1"
     inkscape:snap-grids="true"
     inkscape:snap-to-guides="false"
     inkscape:snap-page="true">
    <inkscape:grid
       id="grid4138"
       type="xygrid" />
    <sodipodi:guide
       id="guide4140"
       orientation="0,1"
       position="10,18" />
    <sodipodi:guide
       id="guide4142"
       orientation="0,1"
       position="10,2" />
    <sodipodi:guide
       id="guide4144"
       orientation="1,0"
       position="2,10" />
    <sodipodi:guide
       id="guide4146"
       orientation="0,20"
       position="0,0" />
    <sodipodi:guide
       id="guide4148"
       orientation="-20,0"
       position="20,0" />
    <sodipodi:guide
       id="guide4150"
       orientation="0,-20"
       position="20,20" />
    <sodipodi:guide
       id="guide4152"
       orientation="20,0"
       position="0,20" />
    <sodipodi:guide
       id="guide4154"
       orientation="1,0"
       position="18,10" />
    <sodipodi:guide
       id="guide4156"
       orientation="-0.70710678,0.70710678"
       position="10,10" />
    <sodipodi:guide
       id="guide4160"
       orientation="1,0"
       position="4,10" />
    <sodipodi:guide
       id="guide4162"
       orientation="1,0"
       position="16,10" />
    <sodipodi:guide
       id="guide4166"
       orientation="0,1"
       position="10,4" />
    <sodipodi:guide
       id="guide4168"
       orientation="0,1"
       position="10,15" />
    <sodipodi:guide
       id="guide4170"
       orientation="0,1"
       position="10,5" />
    <sodipodi:guide
       id="guide4172"
       orientation="1,0"
       position="5,10" />
    <sodipodi:guide
       id="guide4174"
       orientation="1,0"
       position="15,10" />
  </sodipodi:namedview>
  <defs
     id="defs4">
    <linearGradient
       inkscape:collect="always"
       id="linearGradient10422">
      <stop
         style="stop-color:#000000;stop-opacity:0.2"
         offset="0"
         id="stop10424" />
      <stop
         style="stop-color:#000000;stop-opacity:0;"
         offset="1"
         id="stop10426" />
    </linearGradient>
    <clipPath
       clipPathUnits="userSpaceOnUse"
       id="clipPath12478">
      <circle
         style="opacity:1;fill:#2196f3;fill-opacity:1;stroke:none;stroke-width:0.05069799;stroke-miterlimit:4;stroke-dasharray:none;stroke-opacity:1"
         id="circle12480"
         cx="9.9999781"
         cy="10.000005"
         r="10" />
    </clipPath>
    <clipPath
       id="clipPath5790"
       clipPathUnits="userSpaceOnUse">
      <circle
         inkscape:export-ydpi="648"
         inkscape:export-xdpi="648"
         inkscape:export-filename="/home/juergen/path4136.png"
         style="opacity:1;fill:#2196f3;fill-opacity:1;stroke:none;stroke-width:0.05069799;stroke-miterlimit:4;stroke-dasharray:none;stroke-opacity:1"
         id="circle5792"
         cx="9.9999781"
         cy="10.000005"
         r="10" />
    </clipPath>
    <clipPath
       clipPathUnits="userSpaceOnUse"
       id="clipPath5055">
      <circle
         inkscape:export-ydpi="648"
         inkscape:export-xdpi="648"
         inkscape:export-filename="/home/juergen/path4136.png"
         style="opacity:1;fill:#2196f3;fill-opacity:1;stroke:none;stroke-width:0.05069799;stroke-miterlimit:4;stroke-dasharray:none;stroke-opacity:1"
         id="circle5057"
         cx="9.9999781"
         cy="10.000005"
         r="10" />
    </clipPath>
    <clipPath
       id="clipPath5119"
       clipPathUnits="userSpaceOnUse">
      <circle
         inkscape:export-ydpi="648"
         inkscape:export-xdpi="648"
         inkscape:export-filename="/home/juergen/Schreibtisch/path4136.png"
         style="opacity:1;fill:#2196f3;fill-opacity:1;stroke:none;stroke-width:0.05069799;stroke-miterlimit:4;stroke-dasharray:none;stroke-opacity:1"
         id="circle5121"
         cx="9.9999781"
         cy="10.000005"
         r="10" />
    </clipPath>
    <clipPath
       clipPathUnits="userSpaceOnUse"
       id="clipPath5194">
      <circle
         inkscape:export-ydpi="648"
         inkscape:export-xdpi="648"
         inkscape:export-filename="/home/juergen/Schreibtisch/path4136.png"
         style="opacity:1;fill:#cddc39;fill-opacity:1;stroke:none;stroke-width:0.05069799;stroke-miterlimit:4;stroke-dasharray:none;stroke-opacity:1"
         id="circle5196"
         cx="9.9999781"
         cy="10.000005"
         r="10" />
    </clipPath>
    <clipPath
       id="clipPath6175"
       clipPathUnits="userSpaceOnUse">
      <circle
         inkscape:export-ydpi="648"
         inkscape:export-xdpi="648"
         inkscape:export-filename="/home/juergen/Schreibtisch/path4136.png"
         style="opacity:1;fill:#f44336;fill-opacity:1;stroke:none;stroke-width:0.05069799;stroke-miterlimit:4;stroke-dasharray:none;stroke-opacity:1"
         id="circle6177"
         cx="9.9999781"
         cy="10.000005"
         r="10" />
    </clipPath>
    <clipPath
       clipPathUnits="userSpaceOnUse"
       id="clipPath7176">
      <circle
         inkscape:export-ydpi="648"
         inkscape:export-xdpi="648"
         inkscape:export-filename="/home/juergen/Schreibtisch/path4136.png"
         style="opacity:1;fill:#9c27b0;fill-opacity:1;stroke:none;stroke-width:0.05069799;stroke-miterlimit:4;stroke-dasharray:none;stroke-opacity:1"
         id="circle7178"
         cx="9.9999781"
         cy="10.000005"
         r="10" />
    </clipPath>
    <clipPath
       id="clipPath8165"
       clipPathUnits="userSpaceOnUse">
      <circle
         inkscape:export-ydpi="648"
         inkscape:export-xdpi="648"
         inkscape:export-filename="/home/juergen/Schreibtisch/path4136.png"
         style="opacity:1;fill:#ffc107;fill-opacity:1;stroke:none;stroke-width:0.05069799;stroke-miterlimit:4;stroke-dasharray:none;stroke-opacity:1"
         id="circle8167"
         cx="9.9999781"
         cy="10.000005"
         r="10" />
    </clipPath>
    <clipPath
       clipPathUnits="userSpaceOnUse"
       id="clipPath9162">
      <circle
         inkscape:export-ydpi="648"
         inkscape:export-xdpi="648"
         inkscape:export-filename="/home/juergen/Schreibtisch/path4136.png"
         style="opacity:1;fill:#ff9800;fill-opacity:1;stroke:none;stroke-width:0.05069799;stroke-miterlimit:4;stroke-dasharray:none;stroke-opacity:1"
         id="circle9164"
         cx="9.9999781"
         cy="10.000005"
         r="10" />
    </clipPath>
    <clipPath
       id="clipPath5147"
       clipPathUnits="userSpaceOnUse">
      <circle
         inkscape:export-ydpi="648"
         inkscape:export-xdpi="648"
         inkscape:export-filename="/home/juergen/Schreibtisch/path4136.png"
         style="opacity:1;fill:#ff9800;fill-opacity:1;stroke:none;stroke-width:0.05069799;stroke-miterlimit:4;stroke-dasharray:none;stroke-opacity:1"
         id="circle5149"
         cx="9.9999781"
         cy="10.000005"
         r="10" />
    </clipPath>
    <clipPath
       clipPathUnits="userSpaceOnUse"
       id="clipPath6144">
      <circle
         inkscape:export-ydpi="648"
         inkscape:export-xdpi="648"
         inkscape:export-filename="/home/juergen/Schreibtisch/path4136.png"
         style="opacity:1;fill:#e91e63;fill-opacity:1;stroke:none;stroke-width:0.05069799;stroke-miterlimit:4;stroke-dasharray:none;stroke-opacity:1"
         id="circle6146"
         cx="9.9999781"
         cy="10.000005"
         r="10" />
    </clipPath>
    <clipPath
       id="clipPath7143"
       clipPathUnits="userSpaceOnUse">
      <circle
         inkscape:export-ydpi="648"
         inkscape:export-xdpi="648"
         inkscape:export-filename="/home/juergen/Schreibtisch/path4136.png"
         style="opacity:1;fill:#ffeb3b;fill-opacity:1;stroke:none;stroke-width:0.05069799;stroke-miterlimit:4;stroke-dasharray:none;stroke-opacity:1"
         id="circle7145"
         cx="9.9999781"
         cy="10.000005"
         r="10" />
    </clipPath>
    <clipPath
       clipPathUnits="userSpaceOnUse"
       id="clipPath8148">
      <circle
         inkscape:export-ydpi="648"
         inkscape:export-xdpi="648"
         inkscape:export-filename="/home/juergen/Schreibtisch/path4136.png"
         style="opacity:1;fill:#9c27b0;fill-opacity:1;stroke:none;stroke-width:0.05069799;stroke-miterlimit:4;stroke-dasharray:none;stroke-opacity:1"
         id="circle8150"
         cx="9.9999781"
         cy="10.000005"
         r="10" />
    </clipPath>
    <clipPath
       id="clipPath5332"
       clipPathUnits="userSpaceOnUse">
      <circle
         inkscape:export-ydpi="648"
         inkscape:export-xdpi="648"
         inkscape:export-filename="/home/juergen/Schreibtisch/path4136.png"
         style="opacity:1;fill:#f44336;fill-opacity:1;stroke:none;stroke-width:0.05069799;stroke-miterlimit:4;stroke-dasharray:none;stroke-opacity:1"
         id="circle5334"
         cx="9.9999781"
         cy="10.000005"
         r="10" />
    </clipPath>
    <clipPath
       clipPathUnits="userSpaceOnUse"
       id="clipPath6341">
      <circle
         inkscape:export-ydpi="648"
         inkscape:export-xdpi="648"
         inkscape:export-filename="/home/juergen/Schreibtisch/path4136.png"
         style="opacity:1;fill:#4caf50;fill-opacity:1;stroke:none;stroke-width:0.05069799;stroke-miterlimit:4;stroke-dasharray:none;stroke-opacity:1"
         id="circle6343"
         cx="9.9999781"
         cy="10.000005"
         r="10" />
    </clipPath>
    <clipPath
       id="clipPath7354"
       clipPathUnits="userSpaceOnUse">
      <circle
         inkscape:export-ydpi="648"
         inkscape:export-xdpi="648"
         inkscape:export-filename="/home/juergen/Schreibtisch/path4136.png"
         style="opacity:1;fill:#f44336;fill-opacity:1;stroke:none;stroke-width:0.05069799;stroke-miterlimit:4;stroke-dasharray:none;stroke-opacity:1"
         id="circle7356"
         cx="9.9999781"
         cy="10.000005"
         r="10" />
    </clipPath>
    <clipPath
       clipPathUnits="userSpaceOnUse"
       id="clipPath8344">
      <circle
         inkscape:export-ydpi="648"
         inkscape:export-xdpi="648"
         inkscape:export-filename="/home/juergen/Schreibtisch/path4136.png"
         style="opacity:1;fill:#673ab7;fill-opacity:1;stroke:none;stroke-width:0.05069799;stroke-miterlimit:4;stroke-dasharray:none;stroke-opacity:1"
         id="circle8346"
         cx="9.9999781"
         cy="10.000005"
         r="10" />
    </clipPath>
    <clipPath
       id="clipPath9436"
       clipPathUnits="userSpaceOnUse">
      <circle
         inkscape:export-ydpi="648"
         inkscape:export-xdpi="648"
         inkscape:export-filename="/home/juergen/Schreibtisch/path4136.png"
         style="opacity:1;fill:#9e9e9e;fill-opacity:1;stroke:none;stroke-width:0.05069799;stroke-miterlimit:4;stroke-dasharray:none;stroke-opacity:1"
         id="circle9438"
         cx="9.9999781"
         cy="10.000005"
         r="10" />
    </clipPath>
    <linearGradient
       inkscape:collect="always"
       xlink:href="#linearGradient10422"
       id="linearGradient10428"
       x1="10.089286"
       y1="10"
       x2="20"
       y2="20"
       gradientUnits="userSpaceOnUse" />
    <clipPath
       clipPathUnits="userSpaceOnUse"
       id="clipPath10432">
      <circle
         inkscape:export-ydpi="648"
         inkscape:export-xdpi="648"
         inkscape:export-filename="/home/juergen/Schreibtisch/path4136.png"
         style="opacity:1;fill:#795548;fill-opacity:1;stroke:none;stroke-width:0.05069799;stroke-miterlimit:4;stroke-dasharray:none;stroke-opacity:1"
         id="circle10434"
         cx="9.9999781"
         cy="10.000005"
         r="10" />
    </clipPath>
  </defs>
  <metadata
     id="metadata7">
    <rdf:RDF>
      <cc:Work
         rdf:about="">
        <dc:format>image/svg+xml</dc:format>
        <dc:type
           rdf:resource="http://purl.org/dc/dcmitype/StillImage" />
        <dc:title></dc:title>
      </cc:Work>
    </rdf:RDF>
  </metadata>
  <g
     transform="translate(1058.1428,-861.93365)"
     id="layer1"
     inkscape:groupmode="layer"
     inkscape:label="Hintergrund">
    <circle
       r="10"
       cy="871.93365"
       cx="-1048.1428"
       id="path4136"
       style="opacity:1;fill:#03a9f4;fill-opacity:1;stroke:none;stroke-width:0.05069799;stroke-miterlimit:4;stroke-dasharray:none;stroke-opacity:1"
       inkscape:export-filename="/home/juergen/Schreibtisch/path4136.png"
       inkscape:export-xdpi="648"
       inkscape:export-ydpi="648" />
    <path
       style="fill:url(#linearGradient10428);fill-opacity:1;stroke-linejoin:round"
       d="M 8.7207031 5.1484375 L 8.7207031 6.1015625 L 8.8691406 6.1015625 L 8.8691406 6.25 L 9.015625 6.25 L 9.015625 6.3964844 L 9.1621094 6.3964844 L 9.1621094 6.5429688 L 9.3085938 6.5429688 L 9.3085938 6.6621094 C 7.3444745 7.0529891 5.8632812 8.7844262 5.8632812 10.863281 C 5.8632812 12.084628 6.3798564 13.178287 7.1992188 13.958984 C 7.2461677 14.008334 7.2925586 14.056448 7.3417969 14.103516 C 7.3911222 14.155491 7.4403287 14.206409 7.4921875 14.255859 C 7.5400216 14.306104 7.5884646 14.354468 7.6386719 14.402344 C 7.6865157 14.452595 7.7349385 14.500947 7.7851562 14.548828 C 7.8321038 14.598078 7.8804573 14.644435 7.9296875 14.691406 C 7.9781945 14.742324 8.0271806 14.791361 8.078125 14.839844 C 8.1223017 14.886069 8.1666979 14.930396 8.2128906 14.974609 C 8.262249 15.026554 8.3113907 15.077535 8.3632812 15.126953 C 8.4067796 15.172437 8.4506422 15.216231 8.4960938 15.259766 C 8.5438618 15.310001 8.5924393 15.358378 8.6425781 15.40625 C 8.6882304 15.45408 8.7334422 15.501197 8.78125 15.546875 C 8.8268973 15.594724 8.874071 15.63985 8.921875 15.685547 C 8.9672087 15.73304 9.0130875 15.778847 9.0605469 15.824219 C 9.1071456 15.873037 9.1542814 15.920221 9.203125 15.966797 C 9.2466524 16.012253 9.290458 16.056104 9.3359375 16.099609 C 9.3794069 16.145121 9.4233264 16.188859 9.46875 16.232422 C 9.5143726 16.280282 9.5596425 16.327338 9.6074219 16.373047 C 9.6518329 16.41954 9.6976909 16.463353 9.7441406 16.507812 C 9.7882789 16.553994 9.8327556 16.598405 9.8789062 16.642578 C 9.9236982 16.689387 9.9687649 16.734556 10.015625 16.779297 C 10.057911 16.8234 10.100405 16.865939 10.144531 16.908203 C 10.186126 16.951697 10.228102 16.993444 10.271484 17.035156 C 10.316441 17.082315 10.361151 17.128757 10.408203 17.173828 C 10.450762 17.218272 10.494636 17.260154 10.539062 17.302734 C 10.581923 17.347522 10.625166 17.390698 10.669922 17.433594 C 10.712208 17.477727 10.7547 17.520206 10.798828 17.5625 C 10.840767 17.606271 10.882031 17.649444 10.925781 17.691406 C 10.967747 17.735227 11.010907 17.77635 11.054688 17.818359 C 11.096309 17.861796 11.138234 17.903656 11.181641 17.945312 C 11.222984 17.988459 11.263537 18.030877 11.306641 18.072266 C 11.347612 18.114997 11.388941 18.156259 11.431641 18.197266 C 11.472612 18.239997 11.513941 18.281259 11.556641 18.322266 C 11.597582 18.364963 11.638973 18.40629 11.681641 18.447266 C 11.722004 18.489309 11.76265 18.529941 11.804688 18.570312 C 11.846033 18.613379 11.888539 18.654002 11.931641 18.695312 C 11.968919 18.734043 12.006219 18.771285 12.044922 18.808594 C 12.087435 18.853018 12.12945 18.896889 12.173828 18.939453 C 12.210423 18.977447 12.247189 19.014157 12.285156 19.050781 C 12.325724 19.093143 12.365938 19.135112 12.408203 19.175781 C 12.448552 19.217778 12.491182 19.256549 12.533203 19.296875 C 12.569232 19.33426 12.60522 19.370192 12.642578 19.40625 C 12.682585 19.448002 12.722015 19.48919 12.763672 19.529297 C 12.802129 19.569301 12.840884 19.607996 12.880859 19.646484 C 12.920004 19.687154 12.959285 19.726525 13 19.765625 C 13.035313 19.80224 13.070832 19.837706 13.107422 19.873047 C 13.147785 19.91509 13.188431 19.955723 13.230469 19.996094 C 13.266186 20.033082 13.302824 20.06783 13.339844 20.103516 C 13.375501 20.140562 13.410304 20.177145 13.447266 20.212891 C 13.485726 20.252951 13.524471 20.291534 13.564453 20.330078 C 13.60108 20.368083 13.637781 20.404772 13.675781 20.441406 C 13.71368 20.480731 13.751647 20.518785 13.791016 20.556641 C 13.823855 20.590605 13.856685 20.623384 13.890625 20.65625 C 13.928133 20.695317 13.96495 20.73386 14.003906 20.771484 C 14.039561 20.808455 14.076326 20.843234 14.113281 20.878906 C 14.150232 20.917246 14.186261 20.955244 14.224609 20.992188 C 14.257111 21.02578 14.29064 21.057327 14.324219 21.089844 C 14.362093 21.129193 14.400108 21.167197 14.439453 21.205078 C 14.47101 21.237672 14.502585 21.2692 14.535156 21.300781 C 14.572395 21.339471 14.609777 21.376792 14.648438 21.414062 C 14.681299 21.448006 14.714086 21.480827 14.748047 21.513672 C 14.780516 21.547296 14.812156 21.580732 14.845703 21.613281 C 14.882258 21.651234 14.919107 21.688024 14.957031 21.724609 C 14.989205 21.75782 15.02146 21.790108 15.054688 21.822266 C 15.08653 21.855218 15.119465 21.886049 15.152344 21.917969 C 15.186689 21.953604 15.220306 21.989007 15.255859 22.023438 C 15.288664 22.057366 15.321566 22.090215 15.355469 22.123047 C 15.388249 22.156948 15.421201 22.189849 15.455078 22.222656 C 15.487266 22.255904 15.519491 22.288119 15.552734 22.320312 C 15.584573 22.3532 15.615566 22.386113 15.648438 22.417969 C 15.680244 22.45084 15.713256 22.48183 15.746094 22.513672 C 15.777645 22.546262 15.809231 22.577798 15.841797 22.609375 C 15.874599 22.643256 15.907508 22.676199 15.941406 22.708984 C 15.971039 22.739492 16.000725 22.769211 16.03125 22.798828 C 16.060869 22.829402 16.09058 22.85899 16.121094 22.888672 C 16.154535 22.923258 16.188074 22.956787 16.222656 22.990234 C 16.251404 23.019795 16.280961 23.047449 16.310547 23.076172 C 16.339247 23.105779 16.366945 23.135291 16.396484 23.164062 C 16.427666 23.196313 16.458059 23.228505 16.490234 23.259766 C 16.519841 23.290286 16.54958 23.319978 16.580078 23.349609 C 16.61131 23.381806 16.643558 23.412154 16.675781 23.443359 C 16.703268 23.471586 16.731514 23.497928 16.759766 23.525391 C 16.787206 23.553663 16.81359 23.581867 16.841797 23.609375 C 16.873348 23.641965 16.904934 23.673501 16.9375 23.705078 C 16.964636 23.732945 16.99165 23.759987 17.019531 23.787109 C 17.045992 23.814353 17.072437 23.840653 17.099609 23.867188 C 17.129513 23.898075 17.158637 23.929006 17.189453 23.958984 C 17.216892 23.987199 17.245235 24.013564 17.273438 24.041016 C 17.300847 24.069218 17.327297 24.097559 17.355469 24.125 C 17.382558 24.152854 17.409666 24.17992 17.4375 24.207031 C 17.464589 24.234886 17.491698 24.261951 17.519531 24.289062 C 17.5466 24.316895 17.57375 24.344003 17.601562 24.371094 C 17.627679 24.397914 17.65288 24.425041 17.679688 24.451172 C 17.707694 24.479948 17.736824 24.507174 17.765625 24.535156 C 17.78989 24.559994 17.814985 24.583178 17.839844 24.607422 C 17.865699 24.633974 17.891436 24.659671 17.917969 24.685547 C 17.94217 24.710399 17.965439 24.735505 17.990234 24.759766 C 18.017309 24.78764 18.044446 24.814665 18.072266 24.841797 C 18.096853 24.867014 18.121285 24.891409 18.146484 24.916016 C 18.172968 24.943178 18.19937 24.969641 18.226562 24.996094 C 18.247924 25.017932 18.269193 25.039168 18.291016 25.060547 C 18.316827 25.087088 18.342653 25.112805 18.369141 25.138672 C 18.393359 25.16351 18.416594 25.188645 18.441406 25.212891 C 18.466891 25.239009 18.493391 25.2636 18.519531 25.289062 C 18.539623 25.309576 18.55958 25.329502 18.580078 25.349609 C 18.605231 25.375472 18.630454 25.400558 18.65625 25.425781 C 18.679203 25.449292 18.701124 25.473115 18.724609 25.496094 C 18.748846 25.520903 18.773998 25.544143 18.798828 25.568359 C 18.818568 25.588514 18.837289 25.609144 18.857422 25.628906 C 18.882908 25.65506 18.909404 25.679581 18.935547 25.705078 C 18.954366 25.724268 18.973012 25.742885 18.992188 25.761719 C 19.015764 25.78593 19.038359 25.810335 19.0625 25.833984 C 19.085471 25.857467 19.10931 25.879392 19.132812 25.902344 C 19.152917 25.922844 19.172848 25.942796 19.193359 25.962891 C 19.212796 25.982761 19.232135 26.001994 19.251953 26.021484 C 19.27487 26.044988 19.296864 26.068823 19.320312 26.091797 C 19.340734 26.112647 19.361971 26.131913 19.382812 26.152344 C 19.403212 26.173185 19.422541 26.194421 19.443359 26.214844 C 19.463429 26.235335 19.483431 26.255304 19.503906 26.275391 C 19.523976 26.295882 19.543978 26.315851 19.564453 26.335938 C 19.584508 26.356413 19.60454 26.376413 19.625 26.396484 C 19.644089 26.415949 19.662185 26.435979 19.681641 26.455078 C 19.70071 26.474534 19.720799 26.492628 19.740234 26.511719 C 19.760958 26.53285 19.781579 26.553519 19.802734 26.574219 C 19.818305 26.590045 19.833795 26.605511 19.849609 26.621094 C 19.870948 26.642908 19.892265 26.664191 19.914062 26.685547 C 19.930921 26.702681 19.947701 26.719478 19.964844 26.736328 C 19.981021 26.752811 19.997232 26.768935 20.013672 26.785156 C 20.033073 26.80499 20.052484 26.824295 20.072266 26.84375 C 20.089793 26.861599 20.107164 26.878943 20.125 26.896484 C 20.142162 26.913961 20.158323 26.932037 20.175781 26.949219 C 20.194246 26.968009 20.213615 26.985457 20.232422 27.003906 C 20.246071 27.017761 20.259602 27.031254 20.273438 27.044922 C 20.291585 27.06345 20.309646 27.081412 20.328125 27.099609 C 20.344378 27.11614 20.360435 27.132171 20.376953 27.148438 C 20.393206 27.164968 20.409263 27.180999 20.425781 27.197266 C 20.44167 27.213425 20.456514 27.230187 20.472656 27.246094 C 20.488199 27.26189 20.503747 27.277414 20.519531 27.292969 C 20.534808 27.308496 20.550895 27.322597 20.566406 27.337891 C 20.581384 27.353105 20.596126 27.367823 20.611328 27.382812 C 20.626306 27.398026 20.641048 27.412745 20.65625 27.427734 C 20.670888 27.442603 20.684366 27.458002 20.699219 27.472656 C 20.713485 27.487138 20.727717 27.501347 20.742188 27.515625 C 20.756454 27.530106 20.770686 27.544316 20.785156 27.558594 C 20.800438 27.574086 20.816516 27.588257 20.832031 27.603516 C 20.84247 27.614071 20.852734 27.624319 20.863281 27.634766 C 20.879825 27.651592 20.895291 27.668995 20.912109 27.685547 C 20.923499 27.697056 20.935747 27.70737 20.947266 27.71875 C 20.958625 27.730266 20.96898 27.742519 20.980469 27.753906 C 20.994726 27.768397 21.008976 27.782588 21.023438 27.796875 C 21.035448 27.809035 21.04644 27.821968 21.058594 27.833984 C 21.072522 27.848094 21.08744 27.861084 21.101562 27.875 C 21.111668 27.885198 21.122606 27.8942 21.132812 27.904297 C 21.142901 27.914511 21.151919 27.925434 21.162109 27.935547 C 21.176387 27.950039 21.190597 27.964227 21.205078 27.978516 C 21.21483 27.988357 21.224529 27.998066 21.234375 28.007812 C 21.243458 28.017003 21.252553 28.026048 21.261719 28.035156 C 21.274057 28.04768 21.286337 28.059894 21.298828 28.072266 C 21.309266 28.08282 21.319532 28.09307 21.330078 28.103516 C 21.340155 28.113705 21.349197 28.124677 21.359375 28.134766 C 21.369109 28.144602 21.378843 28.154321 21.388672 28.164062 C 21.398406 28.173899 21.40814 28.183618 21.417969 28.193359 C 21.427405 28.202894 21.437741 28.211257 21.447266 28.220703 C 21.45642 28.229948 21.465371 28.238885 21.474609 28.248047 C 21.485046 28.258586 21.495315 28.268866 21.505859 28.279297 C 21.511742 28.285219 21.51752 28.290987 21.523438 28.296875 C 21.535168 28.308751 21.546726 28.320292 21.558594 28.332031 C 21.563182 28.336644 21.567657 28.341111 21.572266 28.345703 C 21.582052 28.355611 21.591681 28.365187 21.601562 28.375 C 21.609079 28.382581 21.615474 28.390913 21.623047 28.398438 C 21.632147 28.407609 21.641209 28.416692 21.650391 28.425781 C 21.655925 28.431341 21.662404 28.435877 21.667969 28.441406 C 21.673195 28.446674 21.67834 28.451791 21.683594 28.457031 C 21.692029 28.465561 21.698525 28.475916 21.707031 28.484375 C 21.71513 28.492532 21.724258 28.499721 21.732422 28.507812 C 21.735014 28.510413 21.737636 28.513031 21.740234 28.515625 C 21.748028 28.523501 21.755817 28.531247 21.763672 28.539062 C 21.771189 28.546629 21.779536 28.553036 21.787109 28.560547 C 21.790703 28.564151 21.793268 28.568675 21.796875 28.572266 C 21.802052 28.577473 21.807297 28.58271 21.8125 28.587891 C 21.815083 28.590489 21.819676 28.595064 21.822266 28.597656 C 21.828775 28.604226 21.835245 28.61066 21.841797 28.617188 C 21.847673 28.623095 21.853465 28.628892 21.859375 28.634766 C 21.859375 28.634766 21.861328 28.636719 21.861328 28.636719 C 21.861328 28.636719 21.863281 28.638672 21.863281 28.638672 C 21.87044 28.645887 21.877556 28.652992 21.884766 28.660156 C 21.889994 28.665426 21.895135 28.670538 21.900391 28.675781 C 21.902041 28.677438 21.902644 28.679987 21.904297 28.681641 C 21.905952 28.683287 21.908498 28.683903 21.910156 28.685547 C 21.916035 28.691449 21.921821 28.697257 21.927734 28.703125 C 21.929028 28.704423 21.930346 28.705735 21.931641 28.707031 C 21.934933 28.710341 21.938103 28.713498 21.941406 28.716797 C 21.943411 28.718807 21.945257 28.72065 21.947266 28.722656 C 21.949283 28.724679 21.951103 28.726496 21.953125 28.728516 C 21.953125 28.728516 21.955078 28.730469 21.955078 28.730469 C 21.956725 28.732123 21.957335 28.734677 21.958984 28.736328 C 21.959276 28.736622 21.960646 28.736035 21.960938 28.736328 C 21.960938 28.736328 21.962891 28.738281 21.962891 28.738281 C 21.963538 28.738931 21.964196 28.739585 21.964844 28.740234 C 21.965245 28.740636 21.964443 28.741786 21.964844 28.742188 C 21.965136 28.74248 21.966505 28.741895 21.966797 28.742188 C 22.00801 28.783461 22.058699 28.813943 22.101562 28.853516 C 22.208894 28.952605 22.322373 29.045001 22.439453 29.132812 C 22.49476 29.174215 22.540321 29.226879 22.597656 29.265625 C 22.598835 29.266423 22.600383 29.266781 22.601562 29.267578 C 22.6853 29.324042 22.781322 29.361549 22.869141 29.412109 C 22.974311 29.472802 23.078861 29.534165 23.189453 29.585938 C 23.236619 29.607992 23.280037 29.641741 23.328125 29.662109 C 23.328657 29.662334 23.329546 29.661885 23.330078 29.662109 C 23.586039 29.770207 23.854136 29.855139 24.132812 29.912109 C 24.133431 29.912236 24.134147 29.911983 24.134766 29.912109 C 24.162487 29.917764 24.192787 29.914805 24.220703 29.919922 C 24.474047 29.966482 24.732985 30 25 30 C 25.295763 30 25.584566 29.968957 25.863281 29.912109 C 26.143153 29.854895 26.412973 29.770879 26.669922 29.662109 C 27.183335 29.445021 27.643531 29.130476 28.03125 28.742188 C 28.805624 27.966677 29.285156 26.897632 29.285156 25.714844 C 29.285157 25.714181 29.285156 25.713553 29.285156 25.712891 C 29.285156 25.461169 29.262676 25.214492 29.220703 24.974609 C 29.220593 24.973982 29.220813 24.973284 29.220703 24.972656 C 29.178624 24.732807 29.115507 24.499848 29.035156 24.275391 C 29.034955 24.274829 29.035358 24.273999 29.035156 24.273438 C 29.035156 24.273438 29.033203 24.271484 29.033203 24.271484 C 28.952708 24.047366 28.853263 23.830202 28.738281 23.625 C 28.737574 23.623737 28.737037 23.622356 28.736328 23.621094 C 28.622258 23.417519 28.492059 23.224464 28.347656 23.042969 L 29.023438 22.367188 C 29.022842 22.366482 29.02208 22.36594 29.021484 22.365234 C 29.021484 22.365234 29.019531 22.363281 29.019531 22.363281 C 29.019531 22.363281 29.017578 22.361328 29.017578 22.361328 C 29.016388 22.359916 29.014863 22.358833 29.013672 22.357422 C 29.01248 22.356008 29.010959 22.354929 29.009766 22.353516 C 29.008271 22.351751 29.007356 22.349419 29.005859 22.347656 C 29.004369 22.345888 29.001492 22.345517 29 22.34375 C 28.998215 22.341632 28.995929 22.340006 28.994141 22.337891 C 28.994141 22.337891 28.994141 22.335938 28.994141 22.335938 C 28.992054 22.333462 28.988418 22.33255 28.986328 22.330078 C 28.983948 22.327254 28.980901 22.325086 28.978516 22.322266 C 28.976135 22.319442 28.973089 22.317273 28.970703 22.314453 C 28.970703 22.314453 28.970703 22.3125 28.970703 22.3125 C 28.968021 22.309318 28.963626 22.307865 28.960938 22.304688 C 28.957962 22.301158 28.954155 22.298446 28.951172 22.294922 C 28.951172 22.294922 28.951172 22.292969 28.951172 22.292969 C 28.948813 22.29017 28.945724 22.287951 28.943359 22.285156 C 28.943359 22.285156 28.941406 22.285156 28.941406 22.285156 C 28.941406 22.285156 28.939453 22.283203 28.939453 22.283203 C 28.936498 22.279697 28.932651 22.276938 28.929688 22.273438 C 28.929688 22.273438 28.929688 22.271484 28.929688 22.271484 C 28.929688 22.271484 28.927734 22.269531 28.927734 22.269531 C 28.927734 22.269531 28.925781 22.267578 28.925781 22.267578 C 28.924019 22.265491 28.921687 22.263804 28.919922 22.261719 C 28.919922 22.261719 28.917969 22.261719 28.917969 22.261719 C 28.917969 22.261719 28.916016 22.259766 28.916016 22.259766 C 28.916016 22.259766 28.916016 22.257812 28.916016 22.257812 C 28.914181 22.255729 28.911994 22.254034 28.910156 22.251953 C 28.910156 22.251953 28.908203 22.25 28.908203 22.25 C 28.908203 22.25 28.90625 22.248047 28.90625 22.248047 C 28.90625 22.248047 28.904297 22.246094 28.904297 22.246094 C 28.904297 22.246094 28.902344 22.246094 28.902344 22.246094 C 28.900562 22.244016 28.898269 22.24231 28.896484 22.240234 C 28.896484 22.240234 28.896484 22.238281 28.896484 22.238281 C 28.896484 22.238281 28.894531 22.236328 28.894531 22.236328 C 28.894531 22.236328 28.892578 22.234375 28.892578 22.234375 C 28.892578 22.234375 28.890625 22.232422 28.890625 22.232422 C 28.890625 22.232422 28.888672 22.230469 28.888672 22.230469 C 28.888672 22.230469 28.886719 22.228516 28.886719 22.228516 C 28.886719 22.228516 28.884766 22.226562 28.884766 22.226562 C 28.884766 22.226562 28.882812 22.224609 28.882812 22.224609 C 28.881648 22.223233 28.880072 22.222079 28.878906 22.220703 C 28.878906 22.220703 28.876953 22.220703 28.876953 22.220703 C 28.876953 22.220703 28.875 22.21875 28.875 22.21875 C 28.87024 22.213102 28.864156 22.208757 28.859375 22.203125 C 28.854608 22.197469 28.846585 22.191187 28.841797 22.185547 C 28.841797 22.185547 28.839844 22.183594 28.839844 22.183594 C 28.839844 22.183594 28.837891 22.181641 28.837891 22.181641 C 28.837891 22.181641 28.837891 22.179688 28.837891 22.179688 C 28.837891 22.179688 28.835938 22.177734 28.835938 22.177734 C 28.835938 22.177734 28.833984 22.175781 28.833984 22.175781 C 28.833984 22.175781 28.832031 22.173828 28.832031 22.173828 C 28.832031 22.173828 28.830078 22.171875 28.830078 22.171875 C 28.830078 22.171875 28.828125 22.169922 28.828125 22.169922 C 28.828125 22.169922 28.826172 22.169922 28.826172 22.169922 C 28.826172 22.169922 28.824219 22.167969 28.824219 22.167969 C 28.824219 22.167969 28.824219 22.166016 28.824219 22.166016 C 28.819912 22.161176 28.814869 22.157169 28.810547 22.152344 C 28.810547 22.152344 28.808594 22.150391 28.808594 22.150391 C 28.808594 22.150391 28.806641 22.148438 28.806641 22.148438 C 28.806641 22.148438 28.804688 22.146484 28.804688 22.146484 C 28.804688 22.146484 28.802734 22.144531 28.802734 22.144531 C 28.802734 22.144531 28.800781 22.142578 28.800781 22.142578 C 28.800781 22.142578 28.798828 22.142578 28.798828 22.142578 C 28.798828 22.142578 28.796875 22.140625 28.796875 22.140625 C 28.795684 22.139221 28.792207 22.136169 28.791016 22.134766 C 28.791016 22.134766 28.789062 22.132812 28.789062 22.132812 C 28.787851 22.131422 28.786369 22.130296 28.785156 22.128906 C 28.785156 22.128906 28.785156 22.126953 28.785156 22.126953 C 28.785156 22.126953 28.783203 22.125 28.783203 22.125 C 28.783203 22.125 28.78125 22.123047 28.78125 22.123047 C 28.78125 22.123047 28.779297 22.121094 28.779297 22.121094 C 28.779297 22.121094 28.777344 22.119141 28.777344 22.119141 C 28.776094 22.117775 28.774688 22.116598 28.773438 22.115234 C 28.767487 22.108174 28.759889 22.102739 28.753906 22.095703 C 28.753906 22.095703 28.751953 22.095703 28.751953 22.095703 C 28.751953 22.095703 28.75 22.09375 28.75 22.09375 C 28.745256 22.088129 28.737186 22.081777 28.732422 22.076172 C 28.725876 22.068406 28.717522 22.062424 28.710938 22.054688 C 28.703193 22.045499 28.693346 22.038444 28.685547 22.029297 C 28.685547 22.029297 28.683594 22.027344 28.683594 22.027344 C 28.683594 22.027344 28.681641 22.025391 28.681641 22.025391 C 28.681641 22.025391 28.681641 22.023438 28.681641 22.023438 C 28.677262 22.018664 28.672363 22.014524 28.667969 22.009766 C 28.667969 22.009766 28.666016 22.009766 28.666016 22.009766 C 28.666016 22.009766 28.664062 22.007812 28.664062 22.007812 C 28.662858 22.006414 28.661362 22.005304 28.660156 22.003906 C 28.660156 22.003906 28.658203 22.001953 28.658203 22.001953 C 28.658203 22.001953 28.65625 22 28.65625 22 C 28.65625 22 28.65625 21.998047 28.65625 21.998047 C 28.652471 21.99398 28.648321 21.990384 28.644531 21.986328 C 28.63978 21.980691 28.633678 21.976324 28.628906 21.970703 C 28.628906 21.970703 28.626953 21.96875 28.626953 21.96875 C 28.626953 21.96875 28.625 21.96875 28.625 21.96875 C 28.625 21.96875 28.623047 21.966797 28.623047 21.966797 C 28.621852 21.965392 28.620337 21.964294 28.619141 21.962891 C 28.611405 21.953713 28.60154 21.946636 28.59375 21.9375 C 28.586003 21.928309 28.576161 21.921259 28.568359 21.912109 C 28.568359 21.912109 28.566406 21.910156 28.566406 21.910156 C 28.564608 21.908049 28.562348 21.906402 28.560547 21.904297 C 28.560547 21.904297 28.558594 21.902344 28.558594 21.902344 C 28.558594 21.902344 28.558594 21.900391 28.558594 21.900391 C 28.557302 21.899068 28.555981 21.897805 28.554688 21.896484 C 28.550876 21.89245 28.546792 21.888788 28.542969 21.884766 C 28.534626 21.874867 28.524031 21.867272 28.515625 21.857422 C 28.507282 21.847524 28.496688 21.839928 28.488281 21.830078 C 28.488281 21.830078 28.486328 21.828125 28.486328 21.828125 C 28.486328 21.828125 28.484375 21.826172 28.484375 21.826172 C 28.482597 21.824067 28.480296 21.822416 28.478516 21.820312 C 28.478516 21.820312 28.476562 21.818359 28.476562 21.818359 C 28.476562 21.818359 28.474609 21.818359 28.474609 21.818359 C 28.474609 21.818359 28.472656 21.816406 28.472656 21.816406 C 28.468482 21.811487 28.463174 21.807642 28.458984 21.802734 C 28.450059 21.792145 28.438686 21.783972 28.429688 21.773438 C 28.42196 21.764269 28.412079 21.757174 28.404297 21.748047 C 28.403116 21.746716 28.401573 21.74547 28.400391 21.744141 C 28.400391 21.744141 28.400391 21.742188 28.400391 21.742188 C 28.400391 21.742188 28.398438 21.742188 28.398438 21.742188 C 28.398438 21.742188 28.396484 21.740234 28.396484 21.740234 C 28.396484 21.740234 28.396484 21.738281 28.396484 21.738281 C 28.396484 21.738281 28.394531 21.736328 28.394531 21.736328 C 28.390157 21.731551 28.38525 21.727419 28.380859 21.722656 C 28.378991 21.720603 28.376871 21.718848 28.375 21.716797 C 28.373142 21.714734 28.371001 21.712998 28.369141 21.710938 C 28.364085 21.704939 28.356642 21.701293 28.351562 21.695312 C 28.351264 21.694961 28.349908 21.691758 28.349609 21.691406 C 28.346602 21.68787 28.340906 21.683217 28.337891 21.679688 C 28.337891 21.679688 28.335938 21.677734 28.335938 21.677734 C 28.335938 21.677734 28.333984 21.677734 28.333984 21.677734 C 28.332235 21.675662 28.329877 21.671992 28.328125 21.669922 C 28.325742 21.667107 28.320748 21.662967 28.318359 21.660156 C 28.318359 21.660156 28.316406 21.660156 28.316406 21.660156 C 28.316406 21.660156 28.314453 21.658203 28.314453 21.658203 C 28.312071 21.655406 28.307075 21.651231 28.304688 21.648438 C 28.294572 21.636436 28.281694 21.627165 28.271484 21.615234 C 28.270591 21.614175 28.270425 21.612387 28.269531 21.611328 L 28.267578 21.611328 C 28.264598 21.607799 28.260801 21.603132 28.257812 21.599609 C 28.256916 21.598553 28.254804 21.598712 28.253906 21.597656 C 28.252005 21.595668 28.249951 21.593782 28.248047 21.591797 C 28.248047 21.591797 28.246094 21.589844 28.246094 21.589844 C 28.246094 21.589844 28.244141 21.587891 28.244141 21.587891 C 28.244141 21.587891 28.244141 21.585938 28.244141 21.585938 C 28.242291 21.583867 28.240134 21.582146 28.238281 21.580078 C 28.236495 21.577959 28.232258 21.574383 28.230469 21.572266 C 28.230469 21.572266 28.228516 21.572266 28.228516 21.572266 C 28.228516 21.572266 28.226562 21.570312 28.226562 21.570312 C 28.22478 21.568208 28.220536 21.564603 28.21875 21.5625 C 28.21875 21.5625 28.21875 21.560547 28.21875 21.560547 C 28.214261 21.555268 28.207632 21.552139 28.203125 21.546875 C 28.198662 21.54158 28.193934 21.536531 28.189453 21.53125 L 28.1875 21.53125 C 28.181524 21.52421 28.173977 21.518734 28.167969 21.511719 C 28.164398 21.507483 28.159832 21.502274 28.15625 21.498047 C 28.151174 21.492059 28.143771 21.486438 28.138672 21.480469 C 28.137172 21.478713 28.134315 21.478316 28.132812 21.476562 C 28.132812 21.476562 28.132812 21.474609 28.132812 21.474609 C 28.129241 21.470372 28.122724 21.465166 28.119141 21.460938 C 28.11736 21.458838 28.115065 21.457175 28.113281 21.455078 C 28.113281 21.455078 28.111328 21.455078 28.111328 21.455078 C 28.111328 21.455078 28.109375 21.453125 28.109375 21.453125 C 28.107581 21.451019 28.103359 21.447417 28.101562 21.445312 C 28.101562 21.445312 28.101562 21.443359 28.101562 21.443359 C 28.100061 21.441603 28.097207 21.441208 28.095703 21.439453 C 28.091538 21.434511 28.086212 21.428758 28.082031 21.423828 C 28.075758 21.416434 28.064903 21.40971 28.058594 21.402344 C 28.058594 21.402344 28.058594 21.400391 28.058594 21.400391 C 28.048734 21.388693 28.033385 21.378817 28.023438 21.367188 C 28.022245 21.365795 28.020725 21.364673 28.019531 21.363281 C 28.019531 21.363281 28.017578 21.361328 28.017578 21.361328 C 28.011029 21.353565 28.002682 21.345624 27.996094 21.337891 C 27.991601 21.332619 27.98498 21.329476 27.980469 21.324219 C 27.978089 21.321395 27.975042 21.317273 27.972656 21.314453 C 27.96341 21.303527 27.95073 21.296022 27.941406 21.285156 C 27.941406 21.285156 27.941406 21.283203 27.941406 21.283203 C 27.935118 21.275743 27.924293 21.269152 27.917969 21.261719 C 27.912587 21.255398 27.905799 21.25044 27.900391 21.244141 C 27.899498 21.243082 27.899331 21.241293 27.898438 21.240234 L 27.896484 21.240234 C 27.885166 21.22683 27.87081 21.216439 27.859375 21.203125 C 27.857597 21.201015 27.855297 21.199373 27.853516 21.197266 C 27.853516 21.197266 27.853516 21.195312 27.853516 21.195312 C 27.852153 21.194075 27.850973 21.192642 27.849609 21.191406 C 27.849609 21.191406 27.847656 21.189453 27.847656 21.189453 C 27.84444 21.186132 27.841115 21.183 27.837891 21.179688 C 27.834096 21.175637 27.829979 21.172008 27.826172 21.167969 C 27.823712 21.165203 27.820825 21.162918 27.818359 21.160156 C 27.818359 21.160156 27.816406 21.160156 27.816406 21.160156 C 27.816406 21.160156 27.816406 21.158203 27.816406 21.158203 C 27.810754 21.151504 27.802556 21.147302 27.796875 21.140625 C 27.794969 21.138632 27.792924 21.136756 27.791016 21.134766 C 27.791016 21.134766 27.789062 21.132812 27.789062 21.132812 C 27.789062 21.132812 27.787109 21.130859 27.787109 21.130859 C 27.787109 21.130859 27.787109 21.128906 27.787109 21.128906 C 27.787109 21.128906 27.785156 21.126953 27.785156 21.126953 C 27.782047 21.123526 27.778508 21.120607 27.775391 21.117188 C 27.771822 21.112954 27.765299 21.107741 27.761719 21.103516 C 27.760785 21.102415 27.756794 21.100709 27.755859 21.099609 C 27.755859 21.099609 27.753906 21.097656 27.753906 21.097656 C 27.746734 21.089227 27.737687 21.082612 27.730469 21.074219 C 27.730469 21.074219 27.728516 21.072266 27.728516 21.072266 C 27.728516 21.072266 27.728516 21.070312 27.728516 21.070312 C 27.725238 21.066429 27.720084 21.064423 27.716797 21.060547 C 27.714848 21.058594 27.712889 21.056637 27.710938 21.054688 C 27.710938 21.054688 27.708984 21.052734 27.708984 21.052734 C 27.706975 21.050925 27.705137 21.048681 27.703125 21.046875 C 27.703125 21.046875 27.703125 21.044922 27.703125 21.044922 C 27.698042 21.039544 27.692604 21.034653 27.6875 21.029297 C 27.673794 21.013036 27.656456 21.000504 27.642578 20.984375 C 27.630063 20.969526 27.614221 20.958098 27.601562 20.943359 L 27.599609 20.943359 C 27.598404 20.941957 27.59691 20.940855 27.595703 20.939453 C 27.595703 20.939453 27.595703 20.9375 27.595703 20.9375 C 27.595703 20.9375 27.59375 20.935547 27.59375 20.935547 C 27.592443 20.934241 27.591152 20.932945 27.589844 20.931641 C 27.581792 20.922702 27.57256 20.915138 27.564453 20.90625 C 27.561988 20.903489 27.559111 20.901194 27.556641 20.898438 C 27.55481 20.89635 27.552615 20.894663 27.550781 20.892578 C 27.5365 20.875634 27.518374 20.862503 27.503906 20.845703 C 27.501825 20.843234 27.498179 20.840357 27.496094 20.837891 C 27.494322 20.835795 27.490056 20.832171 27.488281 20.830078 C 27.488281 20.830078 27.486328 20.830078 27.486328 20.830078 C 27.47677 20.818823 27.464719 20.810019 27.455078 20.798828 C 27.440202 20.781178 27.421328 20.767493 27.40625 20.75 C 27.391374 20.73235 27.3725 20.718665 27.357422 20.701172 C 27.357422 20.701172 27.357422 20.699219 27.357422 20.699219 C 27.342821 20.681896 27.321436 20.667563 27.306641 20.650391 C 27.291169 20.632035 27.271549 20.617796 27.255859 20.599609 C 27.243368 20.584789 27.227478 20.573305 27.214844 20.558594 C 27.213001 20.556548 27.21083 20.554777 27.208984 20.552734 C 27.208984 20.552734 27.207031 20.550781 27.207031 20.550781 C 27.207031 20.550781 27.207031 20.548828 27.207031 20.548828 C 27.207031 20.548828 27.205078 20.546875 27.205078 20.546875 C 27.205078 20.546875 27.203125 20.546875 27.203125 20.546875 C 27.191803 20.533449 27.177454 20.523102 27.166016 20.509766 C 27.162892 20.506381 27.159381 20.503377 27.15625 20.5 C 27.15625 20.5 27.154297 20.498047 27.154297 20.498047 C 27.153271 20.497125 27.15337 20.495061 27.152344 20.494141 C 27.136254 20.475051 27.115935 20.460312 27.099609 20.441406 C 27.097238 20.438593 27.094173 20.436403 27.091797 20.433594 C 27.091797 20.433594 27.089844 20.433594 27.089844 20.433594 C 27.080619 20.422694 27.069848 20.413184 27.060547 20.402344 L 27.058594 20.402344 C 27.054377 20.397432 27.049154 20.393571 27.044922 20.388672 C 27.02826 20.368904 27.007149 20.353555 26.990234 20.333984 C 26.973573 20.314217 26.952462 20.298868 26.935547 20.279297 C 26.935547 20.279297 26.935547 20.277344 26.935547 20.277344 C 26.935547 20.277344 26.933594 20.275391 26.933594 20.275391 C 26.933594 20.275391 26.931641 20.273438 26.931641 20.273438 C 26.931641 20.273438 26.929688 20.273438 26.929688 20.273438 C 26.928201 20.271678 26.92727 20.269336 26.925781 20.267578 L 26.923828 20.267578 C 26.910089 20.251357 26.892817 20.238743 26.878906 20.222656 C 26.878906 20.222656 26.878906 20.220703 26.878906 20.220703 C 26.864919 20.204115 26.846197 20.190278 26.832031 20.173828 C 26.829318 20.170679 26.824986 20.16916 26.822266 20.166016 C 26.818699 20.161784 26.814125 20.158519 26.810547 20.154297 C 26.810547 20.154297 26.810547 20.152344 26.810547 20.152344 C 26.809174 20.151121 26.808015 20.149659 26.806641 20.148438 C 26.803993 20.145866 26.801481 20.143191 26.798828 20.140625 C 26.79237 20.134011 26.785787 20.127672 26.779297 20.121094 C 26.774944 20.116296 26.769994 20.112205 26.765625 20.107422 C 26.765625 20.107422 26.763672 20.107422 26.763672 20.107422 C 26.761296 20.104604 26.758241 20.102423 26.755859 20.099609 C 26.754547 20.098333 26.753266 20.096978 26.751953 20.095703 C 26.749517 20.09361 26.748534 20.089979 26.746094 20.087891 C 26.738894 20.080723 26.731848 20.073529 26.724609 20.066406 C 26.718931 20.060316 26.712735 20.054893 26.707031 20.048828 C 26.689154 20.027618 26.666607 20.011217 26.648438 19.990234 C 26.630623 19.969099 26.607948 19.95255 26.589844 19.931641 C 26.589844 19.931641 26.587891 19.931641 26.587891 19.931641 C 26.569444 19.909755 26.546101 19.892737 26.527344 19.871094 C 26.522585 19.865448 26.516498 19.861099 26.511719 19.855469 C 26.510389 19.854194 26.509144 19.852835 26.507812 19.851562 C 26.499733 19.84479 26.49445 19.834834 26.486328 19.828125 C 26.480003 19.821374 26.473154 19.815313 26.466797 19.808594 C 26.466797 19.808594 26.464844 19.808594 26.464844 19.808594 C 26.461869 19.805066 26.458061 19.802349 26.455078 19.798828 C 26.455078 19.798828 26.453125 19.796875 26.453125 19.796875 C 26.444339 19.789519 26.438524 19.778765 26.429688 19.771484 C 26.429688 19.771484 26.427734 19.771484 26.427734 19.771484 C 26.419709 19.763168 26.412373 19.754356 26.404297 19.746094 C 26.385227 19.723469 26.361198 19.705959 26.341797 19.683594 C 26.322429 19.660615 26.297054 19.643804 26.277344 19.621094 C 26.257707 19.597796 26.232879 19.579663 26.212891 19.556641 C 26.193821 19.534016 26.167839 19.514552 26.148438 19.492188 C 26.131776 19.47242 26.110665 19.455118 26.09375 19.435547 C 26.090427 19.431703 26.085364 19.429617 26.082031 19.425781 C 26.06177 19.401743 26.036261 19.38312 26.015625 19.359375 C 26.003707 19.345235 25.98861 19.3324 25.976562 19.318359 C 25.968428 19.308884 25.957412 19.302397 25.949219 19.292969 C 25.928392 19.268259 25.902082 19.249008 25.880859 19.224609 C 25.860032 19.1999 25.833722 19.180649 25.8125 19.15625 C 25.807146 19.149897 25.800302 19.143052 25.794922 19.136719 C 25.793427 19.13496 25.79056 19.13457 25.789062 19.132812 C 25.782097 19.1254 25.774583 19.118701 25.767578 19.111328 C 25.767578 19.111328 25.765625 19.109375 25.765625 19.109375 C 25.760363 19.104948 25.757233 19.098151 25.751953 19.09375 C 25.749263 19.09123 25.746836 19.088451 25.744141 19.085938 C 25.744141 19.085938 25.742188 19.085938 25.742188 19.085938 C 25.732666 19.074646 25.720542 19.065916 25.710938 19.054688 C 25.705128 19.04875 25.699195 19.043018 25.693359 19.037109 C 25.691602 19.03564 25.691213 19.032717 25.689453 19.03125 C 25.684164 19.026099 25.679138 19.020751 25.673828 19.015625 C 25.664309 19.004331 25.650227 18.993652 25.640625 18.982422 C 25.62891 18.968732 25.6134 18.958903 25.601562 18.945312 C 25.590535 18.932229 25.577544 18.921201 25.566406 18.908203 C 25.566406 18.908203 25.564453 18.90625 25.564453 18.90625 C 25.560362 18.902543 25.556837 18.898223 25.552734 18.894531 C 25.545333 18.887605 25.53869 18.879923 25.53125 18.873047 C 25.508935 18.846572 25.4798 18.826898 25.457031 18.800781 C 25.443027 18.784166 25.426292 18.770383 25.412109 18.753906 L 25.410156 18.753906 C 25.402308 18.744793 25.392668 18.737584 25.384766 18.728516 C 25.372567 18.714043 25.358037 18.701868 25.345703 18.6875 L 25.34375 18.6875 C 25.333519 18.675587 25.320871 18.666134 25.310547 18.654297 C 25.287935 18.627469 25.259406 18.606538 25.236328 18.580078 C 25.213121 18.552545 25.183855 18.531052 25.160156 18.503906 C 25.136915 18.476333 25.107718 18.454919 25.083984 18.427734 C 25.080111 18.423139 25.076153 18.418648 25.072266 18.414062 L 25.070312 18.414062 C 25.05117 18.391493 25.027286 18.373868 25.007812 18.351562 C 24.984308 18.323676 24.953696 18.300926 24.929688 18.273438 C 24.908234 18.247985 24.881248 18.226294 24.859375 18.201172 C 24.857248 18.19873 24.853694 18.197751 24.851562 18.195312 C 24.848583 18.191778 24.844784 18.189075 24.841797 18.185547 C 24.833252 18.175813 24.823062 18.167882 24.814453 18.158203 C 24.80677 18.150205 24.798746 18.142715 24.791016 18.134766 C 24.784773 18.128603 24.77971 18.121363 24.773438 18.115234 C 24.749005 18.086247 24.718336 18.063712 24.693359 18.035156 C 24.668927 18.006169 24.638258 17.983634 24.613281 17.955078 C 24.592462 17.930378 24.564183 17.909155 24.542969 17.884766 C 24.539622 17.880921 24.534607 17.878836 24.53125 17.875 C 24.518456 17.859821 24.503177 17.847095 24.490234 17.832031 L 24.488281 17.832031 C 24.476238 17.818021 24.461391 17.806873 24.449219 17.792969 C 24.438212 17.77991 24.42518 17.768833 24.414062 17.755859 L 24.412109 17.755859 C 24.409104 17.752353 24.405357 17.749593 24.402344 17.746094 C 24.397196 17.740792 24.391887 17.735749 24.386719 17.730469 C 24.382423 17.726267 24.379309 17.720982 24.375 17.716797 C 24.375 17.716797 24.373047 17.714844 24.373047 17.714844 C 24.371021 17.712965 24.369217 17.71086 24.367188 17.708984 C 24.367188 17.708984 24.365234 17.708984 24.365234 17.708984 C 24.36107 17.704046 24.355743 17.700239 24.351562 17.695312 C 24.346251 17.690219 24.341269 17.682803 24.335938 17.677734 C 24.335938 17.677734 24.333984 17.675781 24.333984 17.675781 C 24.331939 17.673928 24.330174 17.671772 24.328125 17.669922 C 24.313026 17.654986 24.298473 17.639734 24.283203 17.625 C 24.257578 17.594598 24.225442 17.570941 24.199219 17.541016 C 24.177498 17.515246 24.14715 17.494181 24.125 17.46875 C 24.121358 17.464572 24.116935 17.4612 24.113281 17.457031 C 24.087099 17.425968 24.054151 17.40166 24.027344 17.371094 C 24.001123 17.339985 23.968254 17.315766 23.941406 17.285156 C 23.941406 17.285156 23.941406 17.283203 23.941406 17.283203 C 23.914919 17.251792 23.880642 17.228167 23.853516 17.197266 C 23.826699 17.16545 23.793097 17.140668 23.765625 17.109375 C 23.744203 17.083959 23.717153 17.062196 23.695312 17.037109 C 23.690154 17.031187 23.682916 17.027387 23.677734 17.021484 C 23.677734 17.021484 23.677734 17.019531 23.677734 17.019531 C 23.650619 16.987362 23.615676 16.963276 23.587891 16.931641 C 23.569444 16.909755 23.546101 16.890784 23.527344 16.869141 C 23.518568 16.859019 23.506891 16.849909 23.498047 16.839844 C 23.498047 16.839844 23.496094 16.837891 23.496094 16.837891 C 23.468962 16.805729 23.434052 16.781625 23.40625 16.75 C 23.391076 16.731997 23.372806 16.717059 23.357422 16.699219 L 23.355469 16.699219 C 23.342796 16.68453 23.327268 16.672774 23.314453 16.658203 C 23.286445 16.624973 23.25138 16.599064 23.222656 16.566406 C 23.210458 16.551933 23.195928 16.539759 23.183594 16.525391 L 23.181641 16.525391 C 23.165391 16.50647 23.145391 16.491383 23.128906 16.472656 C 23.100343 16.438769 23.064463 16.412198 23.035156 16.378906 C 23.030992 16.373966 23.025664 16.370163 23.021484 16.365234 C 23.015848 16.360546 23.011516 16.354267 23.005859 16.349609 C 23.000097 16.344303 22.99602 16.337307 22.990234 16.332031 C 22.973989 16.315608 22.957854 16.299396 22.941406 16.283203 C 22.941406 16.283203 22.939453 16.283203 22.939453 16.283203 C 22.936478 16.279674 22.932671 16.27696 22.929688 16.273438 C 22.911404 16.257355 22.897417 16.236466 22.878906 16.220703 C 22.867545 16.209903 22.857157 16.198182 22.845703 16.1875 C 22.816503 16.152856 22.779978 16.125818 22.75 16.091797 C 22.745538 16.086503 22.738856 16.081453 22.734375 16.076172 C 22.709572 16.046954 22.677702 16.024861 22.652344 15.996094 C 22.649666 15.992917 22.647216 15.9895 22.644531 15.986328 L 22.642578 15.986328 C 22.615728 15.954613 22.582191 15.929624 22.554688 15.898438 C 22.539813 15.88079 22.520936 15.867101 22.505859 15.849609 C 22.489564 15.833257 22.473529 15.814948 22.457031 15.798828 C 22.457031 15.798828 22.455078 15.798828 22.455078 15.798828 C 22.444065 15.785767 22.431046 15.774694 22.419922 15.761719 C 22.398594 15.74132 22.379081 15.719201 22.357422 15.699219 C 22.32703 15.663161 22.289047 15.63499 22.257812 15.599609 C 22.227167 15.563251 22.187752 15.53567 22.15625 15.5 C 22.132448 15.47176 22.102444 15.447753 22.078125 15.419922 C 22.071131 15.411922 22.061724 15.406401 22.054688 15.398438 C 22.0237 15.361673 21.984988 15.332935 21.953125 15.296875 C 21.921587 15.259458 21.882054 15.230046 21.849609 15.193359 C 21.829944 15.170028 21.805174 15.150008 21.785156 15.126953 C 21.773324 15.113332 21.758049 15.103361 21.746094 15.089844 C 21.740135 15.082774 21.732554 15.077358 21.726562 15.070312 C 21.726562 15.070312 21.724609 15.068359 21.724609 15.068359 C 21.710596 15.056524 21.699689 15.040942 21.685547 15.029297 C 21.68336 15.026896 21.681878 15.023882 21.679688 15.021484 C 21.667181 15.009185 21.655202 14.996535 21.642578 14.984375 C 21.610696 14.946549 21.569918 14.917938 21.537109 14.880859 C 21.504976 14.842736 21.464715 14.812754 21.431641 14.775391 C 21.431641 14.775391 21.431641 14.773438 21.431641 14.773438 C 21.417337 14.756467 21.399256 14.743388 21.384766 14.726562 L 21.382812 14.726562 C 21.364698 14.705538 21.342624 14.68875 21.324219 14.667969 C 21.291443 14.629083 21.250552 14.598641 21.216797 14.560547 C 21.205176 14.54676 21.191431 14.535176 21.179688 14.521484 L 21.177734 14.521484 C 21.15665 14.496913 21.130856 14.477367 21.109375 14.453125 C 21.098961 14.44077 21.086684 14.430248 21.076172 14.417969 L 21.074219 14.417969 C 21.051386 14.391311 21.023299 14.370022 21 14.34375 C 20.966628 14.304157 20.925012 14.273146 20.890625 14.234375 C 20.88407 14.226598 20.875735 14.220638 20.869141 14.212891 C 20.852467 14.194284 20.833316 14.178545 20.816406 14.160156 C 20.816406 14.160156 20.814453 14.158203 20.814453 14.158203 C 20.80503 14.150164 20.798545 14.138813 20.789062 14.130859 C 20.786323 14.128403 20.783994 14.125496 20.78125 14.123047 C 20.774995 14.115626 20.766056 14.108957 20.759766 14.101562 C 20.732486 14.069513 20.697872 14.04517 20.669922 14.013672 C 20.664864 14.007671 20.659378 14.002077 20.654297 13.996094 L 20.652344 13.996094 C 20.623642 13.962312 20.58804 13.935516 20.558594 13.902344 C 20.558594 13.902344 20.558594 13.900391 20.558594 13.900391 C 20.524328 13.859737 20.480649 13.828849 20.445312 13.789062 C 20.410799 13.748115 20.367631 13.715848 20.332031 13.675781 C 20.331137 13.674721 20.330973 13.672935 20.330078 13.671875 L 20.328125 13.671875 C 20.309632 13.649974 20.286382 13.632985 20.267578 13.611328 C 20.264031 13.607675 20.261369 13.603252 20.257812 13.599609 C 20.244841 13.58789 20.231838 13.572108 20.21875 13.560547 C 20.194614 13.531911 20.161386 13.508684 20.136719 13.480469 C 20.12636 13.468631 20.113968 13.459023 20.103516 13.447266 C 20.068407 13.405612 20.024513 13.372772 19.988281 13.332031 C 19.976977 13.31862 19.962593 13.308244 19.951172 13.294922 C 19.951172 13.294922 19.949219 13.292969 19.949219 13.292969 C 19.939813 13.284905 19.933293 13.273604 19.923828 13.265625 C 19.907063 13.248402 19.890031 13.231824 19.873047 13.214844 C 19.873047 13.214844 19.871094 13.214844 19.871094 13.214844 C 19.860383 13.202142 19.846753 13.192309 19.835938 13.179688 C 19.831529 13.175639 19.828641 13.170046 19.824219 13.166016 C 19.801073 13.143486 19.779402 13.1197 19.755859 13.097656 C 19.719858 13.054944 19.673901 13.022219 19.636719 12.980469 C 19.632548 12.97552 19.627234 12.971734 19.623047 12.966797 C 19.595961 12.943374 19.574453 12.913332 19.546875 12.890625 C 19.538016 12.880543 19.528458 12.871351 19.519531 12.861328 C 19.48318 12.8182 19.437947 12.784334 19.400391 12.742188 C 19.363741 12.698706 19.317171 12.665531 19.279297 12.623047 C 19.270956 12.613151 19.260357 12.60555 19.251953 12.595703 C 19.245026 12.588924 19.239385 12.580956 19.232422 12.574219 C 19.220839 12.56227 19.208954 12.550897 19.197266 12.539062 C 19.185303 12.52618 19.172235 12.514719 19.160156 12.501953 C 19.137245 12.474771 19.107374 12.452586 19.083984 12.425781 C 19.069706 12.409426 19.051566 12.397062 19.037109 12.380859 C 19.035324 12.378741 19.033038 12.377116 19.03125 12.375 C 19.026173 12.370313 19.022673 12.364038 19.017578 12.359375 C 19.017578 12.359375 19.015625 12.357422 19.015625 12.357422 C 19.00507 12.347092 18.995013 12.336403 18.984375 12.326172 C 18.961801 12.302994 18.938986 12.280548 18.916016 12.257812 C 18.878472 12.213271 18.831797 12.178258 18.792969 12.134766 C 18.755426 12.090224 18.70875 12.055211 18.669922 12.011719 C 18.632136 11.966888 18.58401 11.932438 18.544922 11.888672 C 18.527665 11.868198 18.505809 11.85034 18.488281 11.830078 C 18.467423 11.805978 18.441164 11.787446 18.419922 11.763672 C 18.419922 11.763672 18.419922 11.761719 18.419922 11.761719 C 18.381484 11.716116 18.332753 11.681219 18.292969 11.636719 C 18.266749 11.605612 18.233877 11.581389 18.207031 11.550781 C 18.205447 11.549083 18.204711 11.546619 18.203125 11.544922 C 18.190638 11.534091 18.18056 11.520447 18.167969 11.509766 C 18.128992 11.463523 18.079424 11.42792 18.039062 11.382812 C 18.031913 11.37433 18.022821 11.367822 18.015625 11.359375 C 18.003364 11.347499 17.99284 11.334007 17.980469 11.322266 C 17.957793 11.299198 17.935182 11.276523 17.912109 11.253906 C 17.872778 11.207243 17.823944 11.170507 17.783203 11.125 C 17.743872 11.078337 17.695038 11.0416 17.654297 10.996094 C 17.614428 10.948793 17.564755 10.911346 17.523438 10.865234 C 17.483511 10.817864 17.433958 10.780552 17.392578 10.734375 C 17.38335 10.723427 17.36868 10.714013 17.359375 10.703125 C 17.328757 10.66733 17.291223 10.638606 17.259766 10.603516 C 17.219302 10.555508 17.16891 10.517483 17.126953 10.470703 C 17.08643 10.422626 17.03616 10.384737 16.994141 10.337891 C 16.99057 10.333655 16.986004 10.328446 16.982422 10.324219 C 16.976152 10.316823 16.967243 10.312056 16.960938 10.304688 C 16.956574 10.299901 16.951645 10.295787 16.947266 10.291016 C 16.916505 10.264088 16.890777 10.229131 16.859375 10.203125 C 16.839139 10.179127 16.813578 10.160424 16.792969 10.136719 C 16.770499 10.114111 16.749418 10.090521 16.726562 10.068359 C 16.685206 10.019293 16.63276 9.9813756 16.589844 9.9335938 C 16.589844 9.9335938 16.587891 9.9316406 16.587891 9.9316406 C 16.547702 9.8840027 16.49869 9.8452546 16.457031 9.7988281 L 16.455078 9.7988281 C 16.455078 9.7988281 16.453125 9.796875 16.453125 9.796875 C 16.41141 9.747384 16.359707 9.7083395 16.316406 9.6601562 C 16.305696 9.6474491 16.292065 9.6376269 16.28125 9.625 C 16.248468 9.5891435 16.213362 9.5564513 16.179688 9.5214844 C 16.179688 9.5214844 16.177734 9.5214844 16.177734 9.5214844 C 16.156008 9.495719 16.129579 9.4746448 16.107422 9.4492188 C 16.085207 9.4270195 16.063605 9.4045733 16.041016 9.3828125 C 15.998705 9.3326145 15.946286 9.2929915 15.902344 9.2441406 C 15.8595 9.1933095 15.806236 9.1529638 15.761719 9.1035156 C 15.718812 9.0526106 15.665679 9.0124085 15.621094 8.9628906 C 15.577889 8.9116316 15.523422 8.8721172 15.478516 8.8222656 C 15.464215 8.8052986 15.446128 8.7922133 15.431641 8.7753906 C 15.43034 8.7740789 15.429036 8.7727947 15.427734 8.7714844 C 15.41274 8.7586611 15.401862 8.7411213 15.386719 8.7285156 C 15.370849 8.7116938 15.353962 8.6962996 15.337891 8.6796875 C 15.305459 8.6412105 15.263859 8.6099684 15.230469 8.5722656 C 15.219132 8.5594708 15.204806 8.5498061 15.193359 8.5371094 C 15.185613 8.5279192 15.17577 8.5208672 15.167969 8.5117188 C 15.165957 8.5098233 15.164124 8.5077512 15.162109 8.5058594 C 15.145774 8.4917674 15.133702 8.4728187 15.117188 8.4589844 C 15.094884 8.4368858 15.073459 8.4142318 15.050781 8.3925781 C 15.006683 8.3402591 14.952121 8.2988968 14.90625 8.2480469 C 14.862152 8.1957278 14.80759 8.1543655 14.761719 8.1035156 C 14.717089 8.0505665 14.66168 8.0084739 14.615234 7.9570312 C 14.57054 7.9040052 14.515265 7.8620618 14.46875 7.8105469 C 14.423757 7.7571668 14.367151 7.7159102 14.320312 7.6640625 C 14.275088 7.6104074 14.218964 7.5677311 14.171875 7.515625 C 14.146846 7.4859304 14.115444 7.4608819 14.089844 7.4316406 C 13.906329 7.2221189 13.7148 7.0190048 13.501953 6.84375 L 13.326172 7.0175781 L 13.306641 7.0175781 L 13.306641 6.8769531 L 13.166016 6.8769531 L 13.166016 6.7382812 L 13.025391 6.7382812 L 13.025391 6.5976562 L 12.884766 6.5976562 L 12.884766 6.4550781 L 12.742188 6.4550781 L 12.742188 6.3125 L 12.599609 6.3125 L 12.599609 6.1699219 L 12.455078 6.1699219 L 12.455078 6.0273438 L 12.310547 6.0273438 L 12.310547 5.8828125 L 12.166016 5.8828125 L 12.166016 5.7363281 L 12.019531 5.7363281 L 12.019531 5.5917969 L 11.873047 5.5917969 L 11.873047 5.4453125 L 11.726562 5.4453125 L 11.726562 5.296875 L 11.578125 5.296875 L 11.578125 5.1484375 L 8.7207031 5.1484375 z "
       transform="translate(-1058.1428,861.93365)"
       id="path9554"
       clip-path="url(#clipPath10432)" />
    <ellipse
       style="opacity:1;fill:#fafafa;fill-opacity:1;stroke:none;stroke-width:1.25;stroke-linecap:round;stroke-linejoin:round;stroke-miterlimit:4;stroke-dasharray:none;stroke-opacity:1"
       id="path10436"
       cx="-1048.2097"
       cy="872.75952"
       rx="3.9508929"
       ry="3.8616071" />
    <path
       style="fill:#ff9800;fill-opacity:1;stroke-linejoin:round"
       inkscape:connector-curvature="0"
       d="m -1048.1428,875.98127 c -1.8428,0 -3.3333,-1.49048 -3.3333,-3.33333 0,-1.84286 1.4905,-3.33334 3.3333,-3.33334 1.8429,0 3.3333,1.49048 3.3333,3.33334 0,1.84285 -1.4904,3.33333 -3.3333,3.33333 z m 3.3476,-6.00476 0.6762,-0.67619 c -0.2047,-0.24286 -0.4285,-0.47143 -0.6714,-0.67143 l -0.6762,0.67619 c -0.7381,-0.59048 -1.6667,-0.94286 -2.6762,-0.94286 -2.3667,0 -4.2857,1.91905 -4.2857,4.28572 0,2.36666 1.9143,4.28571 4.2857,4.28571 2.3714,0 4.2857,-1.91905 4.2857,-4.28571 0,-1.00953 -0.3524,-1.9381 -0.9381,-2.67143 z m -3.8238,3.14762 0.9524,0 0,-2.85715 -0.9524,0 m 1.9048,-3.33333 -2.8572,0 0,0.95238 2.8572,0 0,-0.95238 z"
       id="path9480" />
  </g>
  <g
     inkscape:label="Icon"
     id="layer2"
     inkscape:groupmode="layer"
     style="display:inline">
    <path
       style="fill:none"
       inkscape:connector-curvature="0"
       id="path4"
       d="m 3.9999777,4.0333382 12.0000003,0 0,11.9333328 -12.0000003,0 z" />
    <path
       d="m 18.999978,19.033339 12,0 0,11.933333 -12,0 z"
       id="path9956"
       inkscape:connector-curvature="0"
       style="fill:none" />
  </g>
</svg>
