<?xml version="1.0" encoding="UTF-8" standalone="no"?>
<!-- Created with Inkscape (http://www.inkscape.org/) -->

<svg
   xmlns:dc="http://purl.org/dc/elements/1.1/"
   xmlns:cc="http://creativecommons.org/ns#"
   xmlns:rdf="http://www.w3.org/1999/02/22-rdf-syntax-ns#"
   xmlns:svg="http://www.w3.org/2000/svg"
   xmlns="http://www.w3.org/2000/svg"
   xmlns:xlink="http://www.w3.org/1999/xlink"
   xmlns:sodipodi="http://sodipodi.sourceforge.net/DTD/sodipodi-0.dtd"
   xmlns:inkscape="http://www.inkscape.org/namespaces/inkscape"
   width="31.333334"
   height="31.333334"
   viewBox="0 0 29.375 29.375"
   id="svg2"
   version="1.1"
   inkscape:version="0.92.2 (5c3e80d, 2017-08-06)"
   sodipodi:docname="Uhr.svg"
   inkscape:export-filename="/home/juergen/Desktop/launcher_clock.png"
   inkscape:export-xdpi="441.19147"
   inkscape:export-ydpi="441.19147">
  <sodipodi:namedview
     id="base"
     pagecolor="#ffffff"
     bordercolor="#666666"
     borderopacity="1.0"
     inkscape:pageopacity="0.0"
     inkscape:pageshadow="2"
     inkscape:zoom="5.6568542"
     inkscape:cx="29.197101"
     inkscape:cy="40.205689"
     inkscape:document-units="px"
     inkscape:current-layer="layer1"
     showgrid="false"
     fit-margin-top="5"
     fit-margin-left="5"
     fit-margin-right="5"
     fit-margin-bottom="5"
     showguides="true"
     inkscape:guide-bbox="true"
     inkscape:window-width="1366"
     inkscape:window-height="699"
     inkscape:window-x="0"
     inkscape:window-y="33"
     inkscape:window-maximized="1"
     inkscape:snap-grids="false"
     inkscape:snap-to-guides="false"
     units="px">
    <inkscape:grid
       type="xygrid"
       id="grid4138"
       originx="4.6875444"
       originy="4.6875095" />
    <sodipodi:guide
       position="14.687544,22.68751"
       orientation="0,1"
       id="guide4140"
       inkscape:locked="false" />
    <sodipodi:guide
       position="14.687544,6.6875095"
       orientation="0,1"
       id="guide4142"
       inkscape:locked="false" />
    <sodipodi:guide
       position="6.6875444,14.68751"
       orientation="1,0"
       id="guide4144"
       inkscape:locked="false" />
    <sodipodi:guide
       position="24.687544,4.6875095"
       orientation="-20,0"
       id="guide4148"
       inkscape:locked="false" />
    <sodipodi:guide
       position="24.687544,24.68751"
       orientation="0,-20"
       id="guide4150"
       inkscape:locked="false" />
    <sodipodi:guide
       position="4.6875444,24.68751"
       orientation="20,0"
       id="guide4152"
       inkscape:locked="false" />
    <sodipodi:guide
       position="22.687544,14.68751"
       orientation="1,0"
       id="guide4154"
       inkscape:locked="false" />
    <sodipodi:guide
       position="14.687544,14.68751"
       orientation="-0.70710678,0.70710678"
       id="guide4156"
       inkscape:locked="false" />
    <sodipodi:guide
       position="14.687544,14.68751"
       orientation="0.70710678,0.70710678"
       id="guide4158"
       inkscape:locked="false" />
    <sodipodi:guide
       position="8.6875445,14.68751"
       orientation="1,0"
       id="guide4160"
       inkscape:locked="false" />
    <sodipodi:guide
       position="20.687544,14.68751"
       orientation="1,0"
       id="guide4162"
       inkscape:locked="false" />
    <sodipodi:guide
       position="14.687544,20.68751"
       orientation="0,1"
       id="guide4164"
       inkscape:locked="false" />
    <sodipodi:guide
       position="14.687544,8.6875095"
       orientation="0,1"
       id="guide4166"
       inkscape:locked="false" />
    <sodipodi:guide
       position="14.687544,19.68751"
       orientation="0,1"
       id="guide4168"
       inkscape:locked="false" />
    <sodipodi:guide
       position="14.687544,9.6875095"
       orientation="0,1"
       id="guide4170"
       inkscape:locked="false" />
    <sodipodi:guide
       position="9.6875445,14.68751"
       orientation="1,0"
       id="guide4172"
       inkscape:locked="false" />
    <sodipodi:guide
       position="19.687544,14.68751"
       orientation="1,0"
       id="guide4174"
       inkscape:locked="false" />
  </sodipodi:namedview>
  <defs
     id="defs4">
    <linearGradient
       inkscape:collect="always"
       id="linearGradient5059">
      <stop
         style="stop-color:#000000;stop-opacity:1;"
         offset="0"
         id="stop5061" />
      <stop
         style="stop-color:#000000;stop-opacity:0;"
         offset="1"
         id="stop5063" />
    </linearGradient>
    <clipPath
       id="clipPath12478"
       clipPathUnits="userSpaceOnUse">
      <circle
         r="10"
         cy="10.000005"
         cx="9.9999781"
         id="circle12480"
         style="opacity:1;fill:#2196f3;fill-opacity:1;stroke:none;stroke-width:0.05069799;stroke-miterlimit:4;stroke-dasharray:none;stroke-opacity:1" />
    </clipPath>
    <clipPath
       clipPathUnits="userSpaceOnUse"
       id="clipPath5790">
      <circle
         r="10"
         cy="10.000005"
         cx="9.9999781"
         id="circle5792"
         style="opacity:1;fill:#2196f3;fill-opacity:1;stroke:none;stroke-width:0.05069799;stroke-miterlimit:4;stroke-dasharray:none;stroke-opacity:1"
         inkscape:export-filename="/home/juergen/path4136.png"
         inkscape:export-xdpi="648"
         inkscape:export-ydpi="648" />
    </clipPath>
    <clipPath
       id="clipPath5055"
       clipPathUnits="userSpaceOnUse">
      <circle
         r="10"
         cy="10.000005"
         cx="9.9999781"
         id="circle5057"
         style="opacity:1;fill:#2196f3;fill-opacity:1;stroke:none;stroke-width:0.05069799;stroke-miterlimit:4;stroke-dasharray:none;stroke-opacity:1"
         inkscape:export-filename="/home/juergen/path4136.png"
         inkscape:export-xdpi="648"
         inkscape:export-ydpi="648" />
    </clipPath>
    <clipPath
       clipPathUnits="userSpaceOnUse"
       id="clipPath5119">
      <circle
         r="10"
         cy="10.000005"
         cx="9.9999781"
         id="circle5121"
         style="opacity:1;fill:#2196f3;fill-opacity:1;stroke:none;stroke-width:0.05069799;stroke-miterlimit:4;stroke-dasharray:none;stroke-opacity:1"
         inkscape:export-filename="/home/juergen/Schreibtisch/path4136.png"
         inkscape:export-xdpi="648"
         inkscape:export-ydpi="648" />
    </clipPath>
    <clipPath
       id="clipPath6096"
       clipPathUnits="userSpaceOnUse">
      <circle
         r="10"
         cy="10.000005"
         cx="9.9999781"
         id="circle6098"
         style="opacity:1;fill:#2196f3;fill-opacity:1;stroke:none;stroke-width:0.05069799;stroke-miterlimit:4;stroke-dasharray:none;stroke-opacity:1"
         inkscape:export-filename="/home/juergen/Schreibtisch/path4136.png"
         inkscape:export-xdpi="648"
         inkscape:export-ydpi="648" />
    </clipPath>
    <linearGradient
       inkscape:collect="always"
       xlink:href="#linearGradient5059"
       id="linearGradient5065"
       x1="10"
       y1="10"
       x2="20"
       y2="20"
       gradientUnits="userSpaceOnUse" />
    <clipPath
       clipPathUnits="userSpaceOnUse"
       id="clipPath5070">
      <circle
         r="10"
         cy="10.000005"
         cx="9.9999781"
         id="circle5072"
         style="opacity:1;fill:#2196f3;fill-opacity:1;stroke:none;stroke-width:0.05069799;stroke-miterlimit:4;stroke-dasharray:none;stroke-opacity:1"
         inkscape:export-filename="/home/juergen/Schreibtisch/path4136.png"
         inkscape:export-xdpi="648"
         inkscape:export-ydpi="648" />
    </clipPath>
  </defs>
  <metadata
     id="metadata7">
    <rdf:RDF>
      <cc:Work
         rdf:about="">
        <dc:format>image/svg+xml</dc:format>
        <dc:type
           rdf:resource="http://purl.org/dc/dcmitype/StillImage" />
        <dc:title></dc:title>
      </cc:Work>
    </rdf:RDF>
  </metadata>
  <g
     inkscape:label="Hintergrund"
     inkscape:groupmode="layer"
     id="layer1"
     transform="translate(1062.8303,-857.24615)">
    <circle
       inkscape:export-ydpi="648"
       inkscape:export-xdpi="648"
       inkscape:export-filename="/home/juergen/Schreibtisch/path4136.png"
       style="opacity:1;fill:#2196f3;fill-opacity:1;stroke:none;stroke-width:0.05069799;stroke-miterlimit:4;stroke-dasharray:none;stroke-opacity:1"
       id="path4136"
       cx="-1048.1428"
       cy="871.93365"
       r="10" />
    <ellipse
       style="opacity:1;fill:#616161;stroke-width:0.93749994"
       id="path853"
       cx="-1048.1304"
       cy="871.89166"
       rx="4.7054958"
       ry="4.5575242" />
  </g>
  <g
     style="display:inline"
     inkscape:groupmode="layer"
     id="layer2"
     inkscape:label="Icon"
     transform="translate(4.6875444,4.6874903)">
    <path
       d="M 3.9999777,4.0333382 H 15.999978 V 15.966671 H 3.9999777 Z"
       id="path4"
       inkscape:connector-curvature="0"
       style="fill:none" />
    <path
       style="fill:none"
       inkscape:connector-curvature="0"
       id="path9754"
       d="m 18.999978,19.033339 h 12 v 11.933333 h -12 z" />
    <path
       id="path5192"
       d="m 9.9999773,14.000005 a 3.9999999,3.9999999 0 0 0 4.0000007,-4 3.9999999,3.9999999 0 0 0 -4.0000007,-4.0000002 3.9999999,3.9999999 0 0 0 -3.9999997,4.0000002 3.9999999,3.9999999 0 0 0 3.9999997,4 m 0,-9.0000002 a 4.9999999,4.9999999 0 0 1 5.0000007,5.0000002 4.9999999,4.9999999 0 0 1 -5.0000007,5 c -2.7649998,0 -4.9999997,-2.25 -4.9999997,-5 A 4.9999999,4.9999999 0 0 1 9.9999773,5.0000048 m 0.2500007,2.5 v 2.6250002 l 2.25,1.335 -0.375,0.615 -2.6250006,-1.575 V 7.5000048 Z"
       inkscape:connector-curvature="0" />
    <path
       d="m 10.148438,5.1484375 -0.03516,0.015625 C 8.7913799,5.1730434 7.5279843,5.7063583 6.5996094,6.6484375 5.6712345,7.5904601 5.155086,8.8616782 5.1640625,10.183594 c 0.00465,1.413901 0.6086619,2.687469 1.5664063,3.59375 0.052439,0.05415 0.1072698,0.104508 0.1621093,0.15625 0.052268,0.05383 0.1074565,0.102861 0.1621094,0.154297 0.050382,0.05173 0.1016994,0.100888 0.1542969,0.15039 0.053298,0.05469 0.1082799,0.106006 0.1640625,0.158203 0.05052,0.05159 0.1015503,0.101042 0.1542969,0.150391 0.053156,0.0542 0.1064862,0.106487 0.1621093,0.158203 0.049998,0.05069 0.10017,0.09994 0.1523438,0.148438 0.050652,0.05133 0.1014052,0.101315 0.1542969,0.15039 0.052372,0.05293 0.1053919,0.10378 0.1601562,0.154297 0.050597,0.05083 0.101477,0.09986 0.1542969,0.148438 0.049068,0.04916 0.097278,0.09749 0.1484375,0.144531 0.050999,0.05106 0.1010341,0.101617 0.1542968,0.15039 0.051742,0.0516 0.1021826,0.103098 0.15625,0.152344 0.050209,0.04978 0.099955,0.09892 0.1523438,0.146485 0.048018,0.04742 0.094522,0.09522 0.1445312,0.140625 0.049331,0.0487 0.097,0.09798 0.1484376,0.144531 0.051107,0.05031 0.1009304,0.100432 0.1542968,0.148437 0.047625,0.04658 0.092999,0.09408 0.1425782,0.138672 0.048942,0.04784 0.095474,0.09684 0.1464843,0.142578 0.050279,0.049 0.097932,0.09971 0.1503907,0.146485 0.047145,0.04568 0.09157,0.09299 0.140625,0.136719 0.048424,0.04689 0.094089,0.0958 0.1445312,0.140624 0.04963,0.04787 0.09669,0.09688 0.148438,0.142579 0.04634,0.04445 0.08854,0.0922 0.136718,0.134765 0.04842,0.04639 0.0941,0.09435 0.144532,0.138672 0.0488,0.04658 0.0937,0.09614 0.144531,0.140625 0.04453,0.04225 0.08464,0.08839 0.130859,0.128906 0.04995,0.04747 0.09636,0.0973 0.148438,0.142579 0.0454,0.04276 0.08566,0.0899 0.132812,0.130859 0.04746,0.0447 0.09125,0.09204 0.140625,0.134765 0.04619,0.04329 0.08676,0.09139 0.134766,0.132813 0.04825,0.0451 0.09236,0.09366 0.142578,0.136719 0.04435,0.04118 0.0829,0.08749 0.128906,0.126953 0.04637,0.04305 0.08853,0.08969 0.136719,0.130859 0.04583,0.04234 0.08522,0.09036 0.132812,0.13086 0.04558,0.04195 0.08549,0.08877 0.132813,0.128906 0.04521,0.04147 0.08393,0.08922 0.130859,0.128906 0.04503,0.04116 0.08413,0.08757 0.13086,0.126953 0.04685,0.04268 0.08804,0.0901 0.136718,0.13086 0.04318,0.03906 0.08027,0.08366 0.125,0.121093 0.0418,0.03778 0.07589,0.08288 0.119141,0.119141 0,0 0.002,0 0.002,0 0,0 0.002,0.002 0.002,0.002 0.01216,0.01378 0.02673,0.02543 0.03906,0.03906 0.03363,0.02963 0.06116,0.06509 0.0957,0.09375 0.02599,0.02917 0.05721,0.05353 0.08398,0.08203 0,0 0.002,0.002 0.002,0.002 0,0 0.002,0.002 0.002,0.002 0.03755,0.04297 0.08381,0.0776 0.123046,0.119141 0.03663,0.0418 0.08091,0.07674 0.119141,0.117187 0.04009,0.04569 0.08689,0.08484 0.128906,0.128906 0.03839,0.04335 0.08292,0.08118 0.123047,0.123047 0.03549,0.03987 0.07826,0.07272 0.115234,0.111329 0.03947,0.04435 0.08564,0.08221 0.126954,0.125 0.03601,0.04013 0.0777,0.07445 0.115234,0.113281 0.03946,0.0439 0.08372,0.08265 0.125,0.125 0.03498,0.03856 0.07493,0.07203 0.111328,0.109375 0.03904,0.04302 0.08224,0.08154 0.123047,0.123047 0.03638,0.03971 0.07734,0.07488 0.115234,0.113281 0.03524,0.03834 0.07467,0.07226 0.111329,0.109375 0.03623,0.03935 0.07555,0.07522 0.113281,0.113281 0.03977,0.04299 0.08344,0.08161 0.125,0.123047 0.03118,0.0333 0.06539,0.06335 0.09766,0.0957 0.0396,0.04253 0.08168,0.08205 0.123047,0.123047 0.03602,0.03823 0.07386,0.07436 0.111328,0.111328 0.03364,0.03551 0.07058,0.06715 0.105469,0.101563 0.03748,0.03952 0.0762,0.07708 0.115234,0.115234 0.03351,0.03505 0.06877,0.06759 0.103516,0.101562 0.037,0.03863 0.07479,0.07597 0.113281,0.113282 0.03331,0.0345 0.06705,0.06813 0.101562,0.101562 0.03655,0.03777 0.07334,0.07484 0.111329,0.111328 0.03446,0.03532 0.06974,0.06933 0.105468,0.103516 0.03458,0.03527 0.06962,0.06938 0.105469,0.103516 0.03274,0.03322 0.06574,0.06545 0.09961,0.09766 0.03404,0.03449 0.0663,0.07013 0.101562,0.103516 0.03578,0.03605 0.07225,0.07063 0.109375,0.105468 0.03396,0.03393 0.0664,0.06872 0.101563,0.101563 0.03142,0.03122 0.06131,0.06346 0.09375,0.09375 0.03344,0.03319 0.06501,0.06746 0.09961,0.09961 0.03518,0.03474 0.06902,0.06993 0.105469,0.103516 0.03106,0.0304 0.05976,0.06229 0.0918,0.0918 0.03534,0.03455 0.06886,0.07012 0.105469,0.103515 0.03055,0.02957 0.05836,0.06114 0.08984,0.08984 0.03458,0.03343 0.06579,0.06923 0.101563,0.101562 0.03175,0.03041 0.061,0.06231 0.09375,0.0918 0.0301,0.02872 0.0569,0.06 0.08789,0.08789 0.03208,0.03057 0.06065,0.06412 0.09375,0.09375 0.03186,0.03017 0.05895,0.0645 0.0918,0.09375 0.03338,0.03144 0.06319,0.06527 0.09766,0.0957 0.0044,0.0041 0.0073,0.0096 0.01172,0.01367 0.01743,0.02007 0.03881,0.03688 0.05664,0.05664 0.0035,0.0031 0.0082,0.0086 0.01172,0.01172 0.0024,0.0021 0.0073,0.0057 0.0098,0.0078 0.0037,0.0041 0.008,0.0077 0.01172,0.01172 0.0022,0.0025 0.0037,0.0054 0.0059,0.0078 0.0028,0.003 0.0069,0.0048 0.0098,0.0078 0.01129,0.01088 0.02178,0.02244 0.0332,0.0332 0.0076,0.0068 0.01579,0.01671 0.02344,0.02344 0,0 0.002,0.002 0.002,0.002 0.0299,0.03431 0.06267,0.06622 0.09375,0.09961 0.02916,0.03302 0.06349,0.06159 0.09375,0.09375 0.02265,0.02535 0.04897,0.04743 0.07227,0.07227 0.02817,0.03163 0.05871,0.06096 0.08789,0.0918 0.02825,0.03137 0.06059,0.05927 0.08984,0.08984 0.02199,0.02417 0.04577,0.04662 0.06836,0.07031 0.02809,0.03095 0.05882,0.05967 0.08789,0.08984 0.02581,0.02814 0.05346,0.05455 0.08008,0.08203 0.0253,0.02742 0.05205,0.05329 0.07813,0.08008 0.02789,0.03004 0.05712,0.05861 0.08594,0.08789 0.0208,0.02217 0.04314,0.0427 0.06445,0.06445 0.02709,0.02896 0.05408,0.05769 0.08203,0.08594 0.02501,0.02645 0.05043,0.05227 0.07617,0.07813 0.02699,0.02837 0.05421,0.05631 0.08203,0.08398 0.02237,0.02326 0.04543,0.04558 0.06836,0.06836 0.02402,0.02493 0.0476,0.04983 0.07227,0.07422 0.0222,0.02292 0.04365,0.04591 0.06641,0.06836 0.02831,0.02918 0.05478,0.05947 0.08398,0.08789 0.02139,0.02171 0.04257,0.04317 0.06445,0.06445 0.02432,0.02465 0.04731,0.05012 0.07227,0.07422 0.02567,0.02584 0.0498,0.0529 0.07617,0.07813 0.02094,0.02085 0.0411,0.04205 0.0625,0.0625 0.02261,0.02248 0.04326,0.04634 0.06641,0.06836 0.023,0.02274 0.04286,0.04805 0.06641,0.07031 0.02273,0.02233 0.04315,0.0465 0.06641,0.06836 0.0026,0.0026 0.0052,0.0052 0.0078,0.0078 0.0099,0.01154 0.02122,0.02176 0.03125,0.0332 0.009,0.0086 0.01629,0.01883 0.02539,0.02734 0.0013,0.0013 0.0026,0.0026 0.0039,0.0039 0.0021,0.0025 0.0037,0.0053 0.0059,0.0078 0.01864,0.01796 0.0357,0.03703 0.05469,0.05469 0.01813,0.02086 0.03809,0.04001 0.05664,0.06055 0.01875,0.02146 0.03939,0.04138 0.05859,0.0625 0.01799,0.02045 0.03825,0.03846 0.05664,0.05859 0.01864,0.02107 0.03757,0.04176 0.05664,0.0625 0.01594,0.01789 0.03258,0.03509 0.04883,0.05273 0.01966,0.02203 0.04041,0.0428 0.06055,0.06445 0.02038,0.02259 0.04163,0.04421 0.0625,0.06641 0.01522,0.01668 0.03139,0.03237 0.04688,0.04883 0.01743,0.01906 0.03495,0.03787 0.05273,0.05664 0.0172,0.0187 0.03324,0.03822 0.05078,0.05664 0.01693,0.01828 0.03353,0.03667 0.05078,0.05469 0.01667,0.01789 0.0338,0.0351 0.05078,0.05273 0.01926,0.02054 0.03892,0.04035 0.05859,0.06055 0.01337,0.0141 0.0255,0.02903 0.03906,0.04297 0.01624,0.01712 0.03035,0.03586 0.04687,0.05273 0.0163,0.01707 0.03225,0.03395 0.04883,0.05078 0.01854,0.0193 0.03578,0.0396 0.05469,0.05859 0.01191,0.01226 0.02506,0.02693 0.03711,0.03906 9.66e-4,0.0011 9.86e-4,0.0028 0.002,0.0039 0.0056,0.0067 0.01192,0.01286 0.01758,0.01953 0.0062,0.0063 0.01135,0.01329 0.01758,0.01953 0.0016,0.0017 0.0023,0.0041 0.0039,0.0059 0.0098,0.01159 0.02136,0.02171 0.03125,0.0332 0.0028,0.0031 0.005,0.0067 0.0078,0.0098 0.0095,0.01118 0.02165,0.02015 0.03125,0.03125 0.0032,0.0035 0.0046,0.0083 0.0078,0.01172 0.0089,0.01047 0.02025,0.01891 0.0293,0.0293 0.0032,0.0034 0.0046,0.0083 0.0078,0.01172 0.006,0.007 0.01349,0.0126 0.01953,0.01953 0.006,0.0065 0.0096,0.01499 0.01563,0.02148 0.0057,0.0066 0.01184,0.01298 0.01758,0.01953 0.0063,0.0068 0.01126,0.01471 0.01758,0.02148 0.0076,0.0087 0.01581,0.01677 0.02344,0.02539 0.0041,0.0044 0.0076,0.0093 0.01172,0.01367 0.0067,0.0076 0.01475,0.0139 0.02148,0.02148 0.0044,0.0048 0.0073,0.01087 0.01172,0.01563 0.0067,0.0076 0.01476,0.01395 0.02148,0.02148 0.0044,0.0048 0.0073,0.01088 0.01172,0.01563 0.0067,0.0075 0.01474,0.01398 0.02148,0.02148 0.0045,0.0048 0.0072,0.01089 0.01172,0.01563 0.0055,0.0062 0.01203,0.01142 0.01758,0.01758 0.0051,0.0054 0.0086,0.01219 0.01367,0.01758 0.0049,0.0055 0.01069,0.01017 0.01563,0.01563 0.0051,0.0054 0.0086,0.01219 0.01367,0.01758 0.0055,0.0061 0.01202,0.01148 0.01758,0.01758 0.0051,0.0054 0.0086,0.01221 0.01367,0.01758 0.0068,0.0075 0.01462,0.01401 0.02148,0.02148 0.0029,0.003 0.0049,0.0068 0.0078,0.0098 0.0012,0.0014 0.0027,0.0025 0.0039,0.0039 0.0086,0.0091 0.01479,0.02026 0.02344,0.0293 0.004,0.0044 0.0096,0.0073 0.01367,0.01172 0.0051,0.0054 0.0085,0.01221 0.01367,0.01758 0,0 0.002,0.002 0.002,0.002 0.0086,0.0091 0.01477,0.02028 0.02344,0.0293 0.0059,0.0064 0.01356,0.01119 0.01953,0.01758 0.0029,0.003 0.0049,0.0068 0.0078,0.0098 0.0086,0.0091 0.01474,0.02029 0.02344,0.0293 0.0053,0.0057 0.01221,0.0099 0.01758,0.01563 0.0029,0.003 0.0049,0.0068 0.0078,0.0098 0.0016,0.0017 0.0043,0.0022 0.0059,0.0039 0,0 0,0.002 0,0.002 0.0064,0.0067 0.01115,0.01486 0.01758,0.02148 0.0013,0.0013 0.0026,0.0026 0.0039,0.0039 0.0064,0.0067 0.01113,0.01485 0.01758,0.02148 0.0025,0.0027 0.0053,0.0052 0.0078,0.0078 0.0048,0.005 0.0088,0.01066 0.01367,0.01563 0.0025,0.0027 0.0053,0.0052 0.0078,0.0078 0.0048,0.005 0.0088,0.01067 0.01367,0.01563 0,0 0.002,0.002 0.002,0.002 0.0064,0.0067 0.0111,0.01486 0.01758,0.02148 0.0022,0.0023 0.0056,0.0035 0.0078,0.0059 0.0045,0.0047 0.0072,0.01098 0.01172,0.01562 0.0019,0.002 0.0039,0.0039 0.0059,0.0059 0.0042,0.0043 0.0075,0.0094 0.01172,0.01367 0.0016,0.0017 0.0042,0.0022 0.0059,0.0039 0.0046,0.0047 0.0072,0.01097 0.01172,0.01563 0.0016,0.0017 0.0042,0.0022 0.0059,0.0039 0.0045,0.0047 0.0072,0.01098 0.01172,0.01563 0.0013,0.0013 0.0026,0.0026 0.0039,0.0039 0.0042,0.0043 0.0075,0.0094 0.01172,0.01367 0.0013,0.0013 0.0026,0.0026 0.0039,0.0039 0.0042,0.0043 0.0075,0.0094 0.01172,0.01367 9.87e-4,0.001 0.0029,9.41e-4 0.0039,0.002 0.0013,0.0013 0.0026,0.0026 0.0039,0.0039 0,0 0.002,0.002 0.002,0.002 0,0 0,0.002 0,0.002 0.0016,0.0016 0.0023,0.0042 0.0039,0.0059 0,0 0.002,0.002 0.002,0.002 0,0 0.002,0 0.002,0 9.91e-4,10e-4 9.62e-4,0.0029 0.002,0.0039 0.0013,0.0013 0.0026,0.0026 0.0039,0.0039 0.0016,0.0017 0.0023,0.0042 0.0039,0.0059 0,0 0.002,0.002 0.002,0.002 0.0036,0.0036 0.0062,0.0081 0.0098,0.01172 0,0 0.002,0.002 0.002,0.002 0.0036,0.0036 0.0062,0.0081 0.0098,0.01172 0.0019,0.002 0.0039,0.0039 0.0059,0.0059 0.0019,0.002 0.0039,0.0039 0.0059,0.0059 0.0036,0.0036 0.0062,0.0081 0.0098,0.01172 0.0036,0.0036 0.0062,0.0081 0.0098,0.01172 0.0029,0.003 0.0049,0.0068 0.0078,0.0098 0.0013,0.0013 0.0026,0.0026 0.0039,0.0039 0.0013,0.0013 0.0026,0.0026 0.0039,0.0039 0.0013,0.0013 0.0026,0.0026 0.0039,0.0039 0.0013,0.0013 0.0026,0.0026 0.0039,0.0039 0.0013,0.0013 0.0046,0.0046 0.0059,0.0059 0.0016,0.0017 0.0023,0.0042 0.0039,0.0059 0,0 0.002,0.002 0.002,0.002 0,0 0.002,0.002 0.002,0.002 0,0 0.002,0.002 0.002,0.002 0,0 0.002,0.002 0.002,0.002 0,0 0.002,0.002 0.002,0.002 0,0 0.002,0.002 0.002,0.002 0.0016,0.0017 0.0023,0.0042 0.0039,0.0059 0.143237,0.143318 0.309042,0.261502 0.46875,0.386719 0.0029,0.0023 0.0049,0.0055 0.0078,0.0078 0.0026,0.002 0.0052,0.0039 0.0078,0.0059 0.08494,0.06595 0.158861,0.144604 0.248046,0.205078 0,0 0.002,0.002 0.002,0.002 4.16e-4,2.83e-4 0.0015,-2.83e-4 0.002,0 0,0 0.002,0.002 0.002,0.002 7.61e-4,5.16e-4 0.0012,0.0014 0.002,0.002 0.265238,0.179693 0.549374,0.334169 0.847656,0.460938 C 23.649804,29.858096 24.307786,30 25,30 c 0.330867,0 0.658757,-0.03387 0.978516,-0.09766 6.13e-4,-1.23e-4 0.0013,1.23e-4 0.002,0 0.96108,-0.192112 1.851426,-0.663926 2.554687,-1.367188 0.703262,-0.703261 1.175076,-1.593607 1.367188,-2.554687 1.26e-4,-6.32e-4 -1.26e-4,-0.0013 0,-0.002 C 29.966132,25.658757 30,25.330867 30,25 c 0,-0.299153 -0.0356,-0.594352 -0.08789,-0.884766 -0.0058,-0.03204 -0.0034,-0.06577 -0.0098,-0.09766 -0.0149,-0.07455 -0.04816,-0.143139 -0.06641,-0.216797 -0.13864,-0.558802 -0.355757,-1.09429 -0.675782,-1.574219 -5.05e-4,-7.58e-4 -0.0014,-0.0012 -0.002,-0.002 0,0 -0.002,-0.002 -0.002,-0.002 0,0 -0.002,-0.002 -0.002,-0.002 -0.001,-0.0015 -0.0029,-0.0024 -0.0039,-0.0039 -0.179325,-0.267655 -0.384225,-0.520688 -0.615235,-0.751953 -0.001,-10e-4 -0.0029,-9.41e-4 -0.0039,-0.002 0,0 0,-0.002 0,-0.002 -6.55e-4,-6.54e-4 -0.0013,-0.0013 -0.002,-0.002 0,0 -0.002,-0.002 -0.002,-0.002 0,0 -0.002,-0.002 -0.002,-0.002 0,0 -0.002,-0.002 -0.002,-0.002 0,0 -0.002,-0.002 -0.002,-0.002 -0.0017,-0.0017 -0.0022,-0.0042 -0.0039,-0.0059 -0.0017,-0.0017 -0.0042,-0.0022 -0.0059,-0.0039 0,0 -0.002,-0.002 -0.002,-0.002 -0.0017,-0.0017 -0.0022,-0.0042 -0.0039,-0.0059 -0.0023,-0.0023 -0.0055,-0.0035 -0.0078,-0.0059 0,0 -0.002,-0.002 -0.002,-0.002 0,0 -0.002,-0.002 -0.002,-0.002 -0.0013,-0.0013 -0.0026,-0.0026 -0.0039,-0.0039 -0.003,-0.003 -0.0048,-0.0068 -0.0078,-0.0098 -0.003,-0.003 -0.0068,-0.0048 -0.0098,-0.0078 -0.0017,-0.0017 -0.0061,-0.0042 -0.0078,-0.0059 -9.53e-4,-9.44e-4 -10e-4,-0.003 -0.002,-0.0039 -0.002,-0.002 -0.0039,-0.0039 -0.0059,-0.0059 -0.002,-0.002 -0.0039,-0.0039 -0.0059,-0.0059 -0.0036,-0.0036 -0.0061,-0.0081 -0.0098,-0.01172 -0.0036,-0.0036 -0.01003,-0.0081 -0.01367,-0.01172 0,0 -0.002,-0.002 -0.002,-0.002 -0.0036,-0.0036 -0.0061,-0.0081 -0.0098,-0.01172 -0.0023,-0.0023 -0.0055,-0.0035 -0.0078,-0.0059 -0.0023,-0.0023 -0.0035,-0.0055 -0.0059,-0.0078 -0.0043,-0.0043 -0.01133,-0.0094 -0.01563,-0.01367 -0.0026,-0.0026 -0.0052,-0.0052 -0.0078,-0.0078 -0.0026,-0.0026 -0.0052,-0.0052 -0.0078,-0.0078 -0.0026,-0.0026 -0.0052,-0.0052 -0.0078,-0.0078 -0.0026,-0.0026 -0.0052,-0.0052 -0.0078,-0.0078 -0.0013,-0.0013 -0.0026,-0.0026 -0.0039,-0.0039 -0.0043,-0.0043 -0.0074,-0.0094 -0.01172,-0.01367 -0.003,-0.003 -0.0068,-0.0048 -0.0098,-0.0078 -0.003,-0.003 -0.0048,-0.0068 -0.0078,-0.0098 -0.0063,-0.0063 -0.01325,-0.01136 -0.01953,-0.01758 -0.0013,-0.0013 -0.0026,-0.0026 -0.0039,-0.0039 -0.0049,-0.005 -0.0087,-0.01068 -0.01367,-0.01563 -0.0033,-0.0033 -0.0084,-0.0045 -0.01172,-0.0078 -0.0033,-0.0033 -0.0045,-0.0084 -0.0078,-0.01172 -0.0049,-0.0049 -0.01066,-0.0088 -0.01563,-0.01367 -0.002,-0.002 -0.0039,-0.0039 -0.0059,-0.0059 -0.0036,-0.0036 -0.0081,-0.0061 -0.01172,-0.0098 -0.0036,-0.0036 -0.0061,-0.0081 -0.0098,-0.01172 -0.0036,-0.0036 -0.0081,-0.0061 -0.01172,-0.0098 -0.0036,-0.0036 -0.0061,-0.0081 -0.0098,-0.01172 -0.0023,-0.0023 -0.0055,-0.0035 -0.0078,-0.0059 -0.0053,-0.0053 -0.0084,-0.01227 -0.01367,-0.01758 -0.004,-0.004 -0.0097,-0.0058 -0.01367,-0.0098 -0.004,-0.004 -0.0058,-0.0097 -0.0098,-0.01367 -0.0059,-0.006 -0.01355,-0.0097 -0.01953,-0.01563 -0.0023,-0.0023 -0.0035,-0.0055 -0.0059,-0.0078 -0.0043,-0.0043 -0.0094,-0.0075 -0.01367,-0.01172 -0.0043,-0.0043 -0.0074,-0.0094 -0.01172,-0.01367 -0.0043,-0.0043 -0.0094,-0.0074 -0.01367,-0.01172 -0.0043,-0.0043 -0.0074,-0.0094 -0.01172,-0.01367 -0.003,-0.003 -0.0068,-0.0048 -0.0098,-0.0078 -0.0059,-0.006 -0.0097,-0.01358 -0.01562,-0.01953 -0.006,-0.006 -0.01355,-0.0097 -0.01953,-0.01563 -0.003,-0.003 -0.0048,-0.0068 -0.0078,-0.0098 -0.003,-0.003 -0.0068,-0.0048 -0.0098,-0.0078 -0.0066,-0.0066 -0.01096,-0.01487 -0.01758,-0.02148 -0.0066,-0.0066 -0.01484,-0.01101 -0.02148,-0.01758 -0.003,-0.003 -0.0048,-0.0068 -0.0078,-0.0098 -0.0049,-0.0049 -0.01067,-0.0088 -0.01563,-0.01367 -0.0049,-0.005 -0.0087,-0.01069 -0.01367,-0.01563 -0.0036,-0.0036 -0.0081,-0.0061 -0.01172,-0.0098 -0.0066,-0.0066 -0.01097,-0.01487 -0.01758,-0.02148 -0.0053,-0.0053 -0.01225,-0.0084 -0.01758,-0.01367 -0.0053,-0.0053 -0.0084,-0.01228 -0.01367,-0.01758 -0.0053,-0.0053 -0.01225,-0.0084 -0.01758,-0.01367 -0.0053,-0.0053 -0.0084,-0.01227 -0.01367,-0.01758 -0.0073,-0.0073 -0.01613,-0.01231 -0.02344,-0.01953 -0.0036,-0.0036 -0.0061,-0.0081 -0.0098,-0.01172 -0.0056,-0.0056 -0.01196,-0.01006 -0.01758,-0.01563 -0.0056,-0.0056 -0.01003,-0.01199 -0.01563,-0.01758 -0.0056,-0.0056 -0.01196,-0.01006 -0.01758,-0.01563 -0.0056,-0.0056 -0.01002,-0.01198 -0.01563,-0.01758 -0.0059,-0.006 -0.01355,-0.0097 -0.01953,-0.01563 -0.0059,-0.006 -0.0097,-0.01358 -0.01563,-0.01953 -0.006,-0.006 -0.01355,-0.0097 -0.01953,-0.01563 -0.0059,-0.006 -0.0097,-0.01358 -0.01562,-0.01953 -0.0043,-0.0043 -0.0094,-0.0075 -0.01367,-0.01172 -0.0079,-0.008 -0.01356,-0.01747 -0.02148,-0.02539 -0.0076,-0.0076 -0.01772,-0.01196 -0.02539,-0.01953 -0.0046,-0.0047 -0.0071,-0.01098 -0.01172,-0.01563 -0.0049,-0.0049 -0.01067,-0.0088 -0.01563,-0.01367 -0.0079,-0.008 -0.01356,-0.01747 -0.02148,-0.02539 -0.0079,-0.0079 -0.01742,-0.01362 -0.02539,-0.02148 -0.0049,-0.005 -0.0087,-0.01069 -0.01367,-0.01562 -0.0066,-0.0066 -0.01485,-0.01102 -0.02148,-0.01758 -0.0066,-0.0066 -0.01097,-0.01488 -0.01758,-0.02148 -0.0049,-0.0049 -0.01067,-0.0088 -0.01563,-0.01367 -0.0085,-0.0086 -0.01487,-0.01878 -0.02344,-0.02734 -0.0083,-0.0083 -0.01901,-0.01327 -0.02734,-0.02148 -0.0053,-0.0053 -0.0084,-0.01228 -0.01367,-0.01758 -0.007,-0.007 -0.01644,-0.01066 -0.02344,-0.01758 -0.0069,-0.007 -0.01062,-0.01647 -0.01758,-0.02344 -0.0053,-0.0053 -0.01226,-0.0084 -0.01758,-0.01367 -0.0089,-0.009 -0.0145,-0.02036 -0.02344,-0.0293 -0.0073,-0.0073 -0.01614,-0.01232 -0.02344,-0.01953 -0.0072,-0.0073 -0.01226,-0.01617 -0.01953,-0.02344 -0.0089,-0.0089 -0.0203,-0.01458 -0.0293,-0.02344 -0.0059,-0.006 -0.0097,-0.01358 -0.01562,-0.01953 -0.006,-0.006 -0.01354,-0.0097 -0.01953,-0.01563 -0.0089,-0.009 -0.01451,-0.02037 -0.02344,-0.0293 -0.0076,-0.0076 -0.01772,-0.01196 -0.02539,-0.01953 -0.0076,-0.0077 -0.01191,-0.01777 -0.01953,-0.02539 -0.0096,-0.0096 -0.02159,-0.01589 -0.03125,-0.02539 -0.0059,-0.006 -0.0097,-0.01358 -0.01563,-0.01953 -0.006,-0.006 -0.01355,-0.0097 -0.01953,-0.01563 -0.0095,-0.0097 -0.0158,-0.02166 -0.02539,-0.03125 -0.0079,-0.0079 -0.01742,-0.01362 -0.02539,-0.02148 -0.0079,-0.008 -0.01356,-0.01747 -0.02148,-0.02539 -0.0096,-0.0096 -0.0216,-0.0159 -0.03125,-0.02539 -0.0066,-0.0066 -0.01097,-0.01488 -0.01758,-0.02148 -0.0083,-0.0083 -0.01902,-0.01328 -0.02734,-0.02148 -0.0082,-0.0083 -0.01321,-0.01907 -0.02148,-0.02734 -0.0066,-0.0066 -0.01485,-0.01101 -0.02148,-0.01758 -0.01014,-0.01031 -0.01711,-0.02297 -0.02734,-0.0332 -0.01025,-0.01025 -0.02288,-0.0172 -0.0332,-0.02734 -0.0066,-0.0066 -0.01097,-0.01488 -0.01758,-0.02148 -0.0086,-0.0086 -0.01872,-0.01494 -0.02734,-0.02344 -0.0085,-0.0086 -0.01487,-0.01878 -0.02344,-0.02734 -0.0073,-0.0073 -0.01614,-0.01232 -0.02344,-0.01953 -0.01015,-0.01033 -0.0171,-0.02296 -0.02734,-0.0332 -0.01025,-0.01025 -0.02288,-0.0172 -0.0332,-0.02734 -0.0072,-0.0073 -0.01226,-0.01617 -0.01953,-0.02344 -0.0073,-0.0073 -0.01614,-0.01232 -0.02344,-0.01953 -0.01079,-0.01099 -0.0184,-0.02426 -0.0293,-0.03516 -0.0109,-0.0109 -0.02416,-0.01851 -0.03516,-0.0293 -0.0072,-0.0073 -0.01227,-0.01618 -0.01953,-0.02344 -0.0092,-0.0092 -0.02001,-0.01625 -0.0293,-0.02539 -0.0091,-0.0093 -0.01617,-0.02008 -0.02539,-0.0293 -0.0092,-0.0092 -0.02001,-0.01625 -0.0293,-0.02539 -0.0092,-0.0093 -0.01616,-0.02006 -0.02539,-0.0293 -0.0096,-0.0096 -0.0216,-0.0159 -0.03125,-0.02539 -0.0095,-0.0096 -0.01581,-0.02167 -0.02539,-0.03125 -0.0096,-0.0096 -0.0216,-0.0159 -0.03125,-0.02539 -0.0095,-0.0096 -0.01581,-0.02167 -0.02539,-0.03125 -0.0083,-0.0083 -0.01902,-0.01328 -0.02734,-0.02148 -0.01114,-0.01136 -0.01804,-0.02585 -0.0293,-0.03711 -0.01,-0.01 -0.02318,-0.01553 -0.0332,-0.02539 -0.0099,-0.01003 -0.01544,-0.02325 -0.02539,-0.0332 -0.01,-0.01 -0.02318,-0.01553 -0.0332,-0.02539 -0.0099,-0.01003 -0.01544,-0.02325 -0.02539,-0.0332 -0.01156,-0.01156 -0.02545,-0.01982 -0.03711,-0.03125 -0.0085,-0.0086 -0.01487,-0.01878 -0.02344,-0.02734 -0.01023,-0.01023 -0.02289,-0.01721 -0.0332,-0.02734 -0.01014,-0.01031 -0.01711,-0.02297 -0.02734,-0.0332 -0.0089,-0.0089 -0.02031,-0.01459 -0.0293,-0.02344 -0.01178,-0.01202 -0.01933,-0.02715 -0.03125,-0.03906 -0.01192,-0.01192 -0.02704,-0.01947 -0.03906,-0.03125 -0.0089,-0.009 -0.0145,-0.02036 -0.02344,-0.0293 -0.0089,-0.0089 -0.02031,-0.01459 -0.0293,-0.02344 -0.01242,-0.01269 -0.02063,-0.02844 -0.0332,-0.04102 -0.01257,-0.01257 -0.02833,-0.02078 -0.04102,-0.0332 -0.0089,-0.009 -0.01451,-0.02037 -0.02344,-0.0293 -0.01089,-0.01089 -0.02418,-0.01852 -0.03516,-0.0293 -0.01078,-0.01098 -0.01841,-0.02427 -0.0293,-0.03516 -0.01089,-0.01089 -0.02418,-0.01852 -0.03516,-0.0293 -0.01078,-0.01098 -0.01841,-0.02427 -0.0293,-0.03516 -0.01125,-0.01125 -0.02577,-0.01817 -0.03711,-0.0293 -0.01113,-0.01134 -0.01805,-0.02586 -0.0293,-0.03711 -0.01126,-0.01126 -0.02575,-0.01815 -0.03711,-0.0293 -0.01113,-0.01134 -0.01805,-0.02586 -0.0293,-0.03711 -0.01126,-0.01126 -0.02575,-0.01815 -0.03711,-0.0293 -0.01113,-0.01134 -0.01805,-0.02586 -0.0293,-0.03711 -0.01154,-0.01154 -0.02547,-0.01983 -0.03711,-0.03125 -0.01142,-0.01164 -0.01971,-0.02557 -0.03125,-0.03711 -0.01154,-0.01154 -0.02547,-0.01983 -0.03711,-0.03125 -0.01142,-0.01164 -0.01971,-0.02557 -0.03125,-0.03711 -0.01023,-0.01023 -0.02289,-0.01721 -0.0332,-0.02734 -0.01306,-0.01336 -0.02193,-0.02974 -0.03516,-0.04297 -0.0119,-0.0119 -0.02705,-0.01948 -0.03906,-0.03125 -0.01178,-0.01202 -0.01933,-0.02715 -0.03125,-0.03906 -0.01388,-0.01388 -0.0309,-0.02341 -0.04492,-0.03711 -0.01013,-0.01031 -0.01711,-0.02297 -0.02734,-0.0332 -0.01023,-0.01023 -0.02289,-0.01721 -0.0332,-0.02734 -0.0137,-0.01403 -0.02323,-0.03104 -0.03711,-0.04492 -0.01221,-0.01221 -0.02674,-0.02113 -0.03906,-0.0332 -0.01207,-0.01232 -0.02099,-0.02685 -0.0332,-0.03906 -0.01386,-0.01386 -0.03091,-0.02343 -0.04492,-0.03711 -0.01078,-0.01098 -0.01841,-0.02427 -0.0293,-0.03516 -0.01255,-0.01255 -0.02834,-0.0208 -0.04102,-0.0332 -0.01241,-0.01267 -0.02065,-0.02846 -0.0332,-0.04102 -0.01255,-0.01255 -0.02834,-0.0208 -0.04102,-0.0332 -0.01241,-0.01267 -0.02065,-0.02846 -0.0332,-0.04102 -0.01285,-0.01285 -0.02804,-0.02246 -0.04102,-0.03516 -0.0127,-0.01297 -0.02231,-0.02817 -0.03516,-0.04102 -0.01323,-0.01323 -0.02961,-0.02209 -0.04297,-0.03516 -0.01241,-0.01267 -0.02065,-0.02846 -0.0332,-0.04102 -0.01323,-0.01323 -0.02961,-0.02209 -0.04297,-0.03516 -0.01241,-0.01267 -0.02065,-0.02846 -0.0332,-0.04102 -0.01321,-0.01321 -0.02963,-0.02211 -0.04297,-0.03516 -0.01305,-0.01334 -0.02195,-0.02976 -0.03516,-0.04297 -0.01321,-0.01321 -0.02963,-0.02211 -0.04297,-0.03516 -0.01305,-0.01334 -0.02195,-0.02976 -0.03516,-0.04297 -0.0119,-0.0119 -0.02706,-0.01948 -0.03906,-0.03125 -0.01469,-0.01506 -0.02417,-0.03393 -0.03906,-0.04883 -0.01489,-0.01489 -0.03377,-0.02438 -0.04883,-0.03906 -0.01179,-0.01203 -0.01933,-0.02714 -0.03125,-0.03906 -0.0122,-0.0122 -0.02676,-0.02115 -0.03906,-0.0332 -0.01497,-0.01536 -0.02583,-0.03364 -0.04102,-0.04883 -0.01519,-0.01519 -0.03346,-0.02604 -0.04883,-0.04102 -0.01206,-0.01231 -0.02101,-0.02687 -0.0332,-0.03906 -0.01386,-0.01386 -0.03091,-0.02343 -0.04492,-0.03711 -0.01368,-0.01401 -0.02325,-0.03106 -0.03711,-0.04492 -0.01255,-0.01255 -0.02834,-0.0208 -0.04102,-0.0332 -0.01532,-0.01573 -0.02547,-0.03523 -0.04102,-0.05078 -0.01388,-0.01388 -0.0309,-0.02341 -0.04492,-0.03711 -0.01432,-0.01468 -0.02455,-0.03236 -0.03906,-0.04687 -0.01424,-0.01424 -0.03248,-0.02306 -0.04687,-0.03711 -0.01405,-0.01439 -0.02287,-0.03263 -0.03711,-0.04687 -0.0162,-0.0162 -0.03633,-0.02701 -0.05273,-0.04297 -0.01241,-0.01267 -0.02065,-0.02846 -0.0332,-0.04102 -0.01452,-0.01452 -0.0322,-0.02474 -0.04687,-0.03906 -0.01432,-0.01468 -0.02455,-0.03236 -0.03906,-0.04687 -0.01452,-0.01452 -0.0322,-0.02474 -0.04687,-0.03906 -0.01432,-0.01468 -0.02455,-0.03236 -0.03906,-0.04688 -0.01488,-0.01487 -0.03379,-0.02439 -0.04883,-0.03906 -0.01467,-0.01504 -0.02419,-0.03395 -0.03906,-0.04883 -0.01487,-0.01488 -0.03379,-0.02439 -0.04883,-0.03906 -0.01467,-0.01504 -0.02419,-0.03395 -0.03906,-0.04883 -0.01321,-0.01321 -0.02963,-0.02211 -0.04297,-0.03516 -0.01657,-0.01705 -0.02808,-0.03785 -0.04492,-0.05469 -0.01686,-0.01686 -0.03761,-0.02833 -0.05469,-0.04492 -0.01305,-0.01334 -0.02195,-0.02976 -0.03516,-0.04297 -0.01386,-0.01386 -0.03091,-0.02343 -0.04492,-0.03711 -0.01657,-0.01705 -0.02808,-0.03785 -0.04492,-0.05469 -0.01686,-0.01686 -0.03761,-0.02833 -0.05469,-0.04492 -0.01368,-0.01401 -0.02325,-0.03106 -0.03711,-0.04492 -0.01553,-0.01553 -0.03507,-0.02571 -0.05078,-0.04101 -0.0153,-0.01571 -0.02549,-0.03525 -0.04102,-0.05078 -0.01553,-0.01553 -0.03507,-0.02571 -0.05078,-0.04101 -0.01533,-0.01574 -0.02546,-0.03523 -0.04102,-0.05078 -0.01582,-0.01582 -0.03477,-0.02738 -0.05078,-0.04297 -0.01559,-0.01601 -0.02714,-0.03496 -0.04297,-0.05078 -0.01582,-0.01582 -0.03477,-0.02738 -0.05078,-0.04297 -0.01559,-0.01601 -0.02714,-0.03496 -0.04297,-0.05078 -0.01452,-0.01452 -0.0322,-0.02474 -0.04687,-0.03906 -0.01723,-0.01774 -0.02936,-0.03913 -0.04687,-0.05664 -0.0162,-0.0162 -0.03633,-0.02701 -0.05273,-0.04297 -0.01594,-0.01638 -0.02679,-0.03655 -0.04297,-0.05274 -0.0162,-0.0162 -0.03633,-0.02701 -0.05273,-0.04297 -0.01596,-0.0164 -0.02676,-0.03653 -0.04297,-0.05274 -0.01787,-0.01787 -0.04048,-0.0293 -0.05859,-0.04687 -0.01467,-0.01504 -0.02419,-0.03395 -0.03906,-0.04883 -0.01648,-0.01648 -0.03605,-0.0287 -0.05273,-0.04492 -0.01622,-0.01668 -0.02844,-0.03626 -0.04492,-0.05273 -0.01517,-0.01517 -0.03348,-0.02606 -0.04883,-0.04102 -0.01786,-0.01842 -0.03066,-0.04043 -0.04883,-0.05859 -0.01686,-0.01686 -0.03761,-0.02833 -0.05469,-0.04492 -0.01657,-0.01705 -0.02808,-0.03785 -0.04492,-0.05469 -0.01686,-0.01686 -0.03761,-0.02833 -0.05469,-0.04492 -0.01659,-0.01707 -0.02806,-0.03783 -0.04492,-0.05469 -0.01853,-0.01853 -0.04176,-0.03062 -0.06055,-0.04883 -0.0153,-0.01571 -0.02548,-0.03525 -0.04102,-0.05078 -0.0172,-0.0172 -0.03922,-0.028 -0.05664,-0.04492 -0.01692,-0.01742 -0.02773,-0.03944 -0.04492,-0.05664 -0.0172,-0.0172 -0.03922,-0.028 -0.05664,-0.04492 -0.01692,-0.01742 -0.02773,-0.03944 -0.04492,-0.05664 -0.01749,-0.01749 -0.03892,-0.02967 -0.05664,-0.04687 -0.01721,-0.01772 -0.02938,-0.03915 -0.04687,-0.05664 -0.01749,-0.01749 -0.03892,-0.02967 -0.05664,-0.04687 -0.01721,-0.01772 -0.02938,-0.03915 -0.04688,-0.05664 -0.01749,-0.01749 -0.03892,-0.02967 -0.05664,-0.04687 -0.01723,-0.01775 -0.02936,-0.03912 -0.04687,-0.05664 -0.01785,-0.01785 -0.0405,-0.02932 -0.05859,-0.04687 -0.01755,-0.01809 -0.02902,-0.04074 -0.04687,-0.05859 -0.01749,-0.01749 -0.03892,-0.02967 -0.05664,-0.04687 -0.01787,-0.01842 -0.03065,-0.04042 -0.04883,-0.05859 -0.01815,-0.01815 -0.0402,-0.03099 -0.05859,-0.04883 -0.01784,-0.01839 -0.03068,-0.04045 -0.04883,-0.05859 -0.01815,-0.01815 -0.0402,-0.03099 -0.05859,-0.04883 -0.01784,-0.01839 -0.03068,-0.04045 -0.04883,-0.05859 -0.01817,-0.01817 -0.04017,-0.03096 -0.05859,-0.04883 -0.01784,-0.01839 -0.03068,-0.04045 -0.04883,-0.05859 -0.01851,-0.01851 -0.04178,-0.03064 -0.06055,-0.04883 -0.01818,-0.01876 -0.03032,-0.04204 -0.04883,-0.06055 -0.01853,-0.01853 -0.04175,-0.03062 -0.06055,-0.04883 -0.01818,-0.01876 -0.03032,-0.04204 -0.04883,-0.06055 -0.01851,-0.01851 -0.04178,-0.03064 -0.06055,-0.04883 -0.01821,-0.01879 -0.03029,-0.04201 -0.04883,-0.06055 -0.0188,-0.0188 -0.04148,-0.03231 -0.06055,-0.05078 -0.01847,-0.01907 -0.03198,-0.04175 -0.05078,-0.06055 -0.01749,-0.01749 -0.03892,-0.02967 -0.05664,-0.04687 -0.02007,-0.02078 -0.03422,-0.04594 -0.05469,-0.06641 -0.02049,-0.02049 -0.0456,-0.03459 -0.06641,-0.05469 -0.01721,-0.01772 -0.02938,-0.03915 -0.04687,-0.05664 -0.01916,-0.01916 -0.04306,-0.03197 -0.0625,-0.05078 -0.01882,-0.01944 -0.03162,-0.04334 -0.05078,-0.0625 -0.01916,-0.01916 -0.04306,-0.03197 -0.0625,-0.05078 -0.01884,-0.01947 -0.03159,-0.04331 -0.05078,-0.0625 -0.01945,-0.01945 -0.04276,-0.03364 -0.0625,-0.05273 -0.0191,-0.01974 -0.03328,-0.04305 -0.05273,-0.0625 -0.01945,-0.01945 -0.04276,-0.03364 -0.0625,-0.05273 -0.0191,-0.01974 -0.03328,-0.04305 -0.05273,-0.0625 -0.01815,-0.01815 -0.0402,-0.03099 -0.05859,-0.04883 -0.02073,-0.02148 -0.03549,-0.04721 -0.05664,-0.06836 -0.01981,-0.01981 -0.04434,-0.03329 -0.06445,-0.05273 -0.01947,-0.02014 -0.0329,-0.04462 -0.05273,-0.06445 -0.02151,-0.02151 -0.04846,-0.03557 -0.07031,-0.05664 -0.01818,-0.01876 -0.03032,-0.04204 -0.04883,-0.06055 -0.01853,-0.01853 -0.04175,-0.03062 -0.06055,-0.04883 -0.02107,-0.02186 -0.03513,-0.0488 -0.05664,-0.07031 -0.0202,-0.0202 -0.0459,-0.03292 -0.06641,-0.05273 -0.01982,-0.0205 -0.03254,-0.04621 -0.05273,-0.06641 -0.0218,-0.0218 -0.04815,-0.03724 -0.07031,-0.05859 -0.01847,-0.01907 -0.03198,-0.04175 -0.05078,-0.06055 -0.0188,-0.0188 -0.04148,-0.03231 -0.06055,-0.05078 -0.02136,-0.02216 -0.03679,-0.04851 -0.05859,-0.07031 -0.02213,-0.02213 -0.04976,-0.03692 -0.07227,-0.05859 -0.01881,-0.01944 -0.03162,-0.04334 -0.05078,-0.0625 -0.01919,-0.01919 -0.04303,-0.03194 -0.0625,-0.05078 -0.02168,-0.0225 -0.03646,-0.05013 -0.05859,-0.07226 -0.02216,-0.02216 -0.04973,-0.03689 -0.07227,-0.05859 -0.01884,-0.01947 -0.03159,-0.04331 -0.05078,-0.0625 -0.01945,-0.01945 -0.04276,-0.03364 -0.0625,-0.05273 -0.02198,-0.02284 -0.03809,-0.04981 -0.06055,-0.07227 -0.02216,-0.02216 -0.04973,-0.03689 -0.07227,-0.05859 -0.01947,-0.02014 -0.03289,-0.04461 -0.05273,-0.06445 -0.02112,-0.02112 -0.0469,-0.03594 -0.06836,-0.05664 -0.02073,-0.02149 -0.03549,-0.04721 -0.05664,-0.06836 -0.02148,-0.02148 -0.04848,-0.03559 -0.07031,-0.05664 -0.02105,-0.02183 -0.03516,-0.04883 -0.05664,-0.07031 -0.01984,-0.01984 -0.04431,-0.03326 -0.06445,-0.05273 -0.02233,-0.02321 -0.03773,-0.0514 -0.06055,-0.07422 -0.02347,-0.02347 -0.05229,-0.03955 -0.07617,-0.0625 -0.01944,-0.02011 -0.03292,-0.04464 -0.05273,-0.06445 -0.01984,-0.01984 -0.04431,-0.03326 -0.06445,-0.05274 -0.02293,-0.02385 -0.03906,-0.05273 -0.0625,-0.07617 -0.02282,-0.02282 -0.05101,-0.03822 -0.07422,-0.06055 -0.0201,-0.02082 -0.03419,-0.04591 -0.05469,-0.06641 -0.02047,-0.02047 -0.04562,-0.03461 -0.06641,-0.05469 -0.02295,-0.02389 -0.03903,-0.0527 -0.0625,-0.07617 -0.02213,-0.02213 -0.04976,-0.03692 -0.07227,-0.05859 -0.02167,-0.0225 -0.03646,-0.050131 -0.05859,-0.072265 -0.02216,-0.022162 -0.04973,-0.036892 -0.07227,-0.058594 -0.0217,-0.022532 -0.03643,-0.050104 -0.05859,-0.072266 -0.02383,-0.023832 -0.05387,-0.039201 -0.07813,-0.0625 -0.02042,-0.021153 -0.03386,-0.047533 -0.05469,-0.068359 -0.02243,-0.022429 -0.04946,-0.03859 -0.07227,-0.060547 -0.02196,-0.022807 -0.03812,-0.049837 -0.06055,-0.072266 -0.02243,-0.022429 -0.04946,-0.03859 -0.07227,-0.060547 -0.02196,-0.022807 -0.03812,-0.049837 -0.06055,-0.072266 -0.02112,-0.021121 -0.0469,-0.035938 -0.06836,-0.056641 -0.02358,-0.024564 -0.04033,-0.053999 -0.06445,-0.078125 -0.02475,-0.02475 -0.05487,-0.042231 -0.08008,-0.066406 -0.0207,-0.021457 -0.03552,-0.047239 -0.05664,-0.068359 -0.02282,-0.022823 -0.051,-0.038212 -0.07422,-0.060547 -0.0223,-0.023179 -0.03776,-0.051431 -0.06055,-0.074219 -0.02308,-0.023083 -0.05073,-0.039917 -0.07422,-0.0625 -0.02258,-0.023484 -0.03942,-0.051136 -0.0625,-0.074219 -0.02308,-0.023083 -0.05073,-0.039917 -0.07422,-0.0625 -0.02258,-0.023483 -0.03942,-0.051136 -0.0625,-0.074219 -0.02177,-0.021775 -0.04818,-0.037263 -0.07031,-0.058594 -0.0242,-0.025243 -0.04162,-0.055297 -0.06641,-0.080078 -0.02347,-0.023471 -0.05229,-0.039545 -0.07617,-0.0625 -0.02295,-0.023886 -0.03903,-0.0527 -0.0625,-0.076172 -0.02514,-0.025141 -0.05641,-0.041858 -0.08203,-0.066406 -0.02168,-0.022503 -0.03646,-0.050132 -0.05859,-0.072266 -0.02217,-0.022168 -0.04973,-0.036887 -0.07226,-0.058594 -0.02452,-0.025583 -0.0413,-0.056922 -0.06641,-0.082031 -0.02383,-0.023832 -0.05387,-0.039201 -0.07813,-0.0625 -0.0233,-0.024259 -0.03867,-0.054293 -0.0625,-0.078125 C 15.106363,8.034028 15.075683,8.015933 15.049763,7.991105 15.027803,7.968298 15.011643,7.941268 14.989213,7.918839 14.966783,7.89641 14.939753,7.880249 14.916953,7.858292 14.892123,7.83237 14.874033,7.801696 14.848593,7.776261 14.822833,7.750498 14.790873,7.733042 14.764613,7.707902 14.742313,7.684723 14.726853,7.656471 14.704063,7.633683 14.681273,7.610895 14.653023,7.595437 14.629843,7.573136 14.604673,7.54684 14.587283,7.514947 14.561483,7.489152 14.537353,7.465026 14.507923,7.448279 14.483353,7.424699 14.459183,7.399489 14.441693,7.369371 14.416943,7.344621 14.392453,7.320135 14.361803,7.304092 14.336863,7.280168 14.312943,7.255231 14.296893,7.224576 14.272413,7.20009 14.247663,7.17534 14.217543,7.157859 14.192333,7.133684 14.168163,7.108474 14.150673,7.078356 14.125923,7.053606 14.101143,7.028825 14.071083,7.011405 14.045843,6.9872 14.021633,6.961958 14.004223,6.931903 13.979433,6.907122 13.952983,6.880672 13.920473,6.862604 13.893493,6.83681 13.870563,6.812955 13.854433,6.78408 13.830993,6.760638 13.805883,6.735529 13.774543,6.718749 13.748963,6.694232 13.724443,6.668649 13.707663,6.63731 13.682553,6.612201 12.745912,5.6755993 11.47452,5.1484372 10.148438,5.1484375 Z"
       id="path4218"
       style="opacity:0.2;fill:url(#linearGradient5065);fill-opacity:1"
       clip-path="url(#clipPath5070)"
       inkscape:connector-curvature="0" />
    <ellipse
       style="opacity:1;fill:#9e9e9e;stroke-width:0.93749994"
       id="path854"
       cx="10.101156"
       cy="10.002406"
       rx="4.3207693"
       ry="4.2763782" />
    <path
       inkscape:connector-curvature="0"
       d="m 9.9999776,14.000005 a 3.9999998,3.9999998 0 0 0 4.0000004,-4 3.9999998,3.9999998 0 0 0 -4.0000004,-4.0000003 3.9999998,3.9999998 0 0 0 -3.9999996,4.0000003 3.9999998,3.9999998 0 0 0 3.9999996,4 m 0,-9.0000002 a 4.9999998,4.9999998 0 0 1 4.9999994,5.0000002 4.9999998,4.9999998 0 0 1 -4.9999994,5 c -2.7649998,0 -4.9999996,-2.25 -4.9999996,-5 A 4.9999998,4.9999998 0 0 1 9.9999776,5.0000048 m 0.2500004,2.4999999 v 2.6250003 l 2.25,1.335 -0.375,0.615 -2.6250004,-1.575 V 7.5000047 Z"
       id="path5201"
       style="fill:#ffffff" />
  </g>
</svg>
