<?xml version="1.0" encoding="UTF-8" standalone="no"?>
<!-- Created with Inkscape (http://www.inkscape.org/) -->

<svg
   xmlns:dc="http://purl.org/dc/elements/1.1/"
   xmlns:cc="http://creativecommons.org/ns#"
   xmlns:rdf="http://www.w3.org/1999/02/22-rdf-syntax-ns#"
   xmlns:svg="http://www.w3.org/2000/svg"
   xmlns="http://www.w3.org/2000/svg"
   xmlns:xlink="http://www.w3.org/1999/xlink"
   xmlns:sodipodi="http://sodipodi.sourceforge.net/DTD/sodipodi-0.dtd"
   xmlns:inkscape="http://www.inkscape.org/namespaces/inkscape"
   width="5.6444445mm"
   height="5.6444445mm"
   viewBox="0 0 20 20"
   id="svg2"
   version="1.1"
   inkscape:version="0.91 r13725"
   sodipodi:docname="Uninstaller.svg"
   inkscape:export-filename="/home/juergen/Projekte/Android/Android_Studio/Baumann_Theme/theme/src/main/assets/icons/res/drawable-xxhdpi/a090.png"
   inkscape:export-xdpi="648"
   inkscape:export-ydpi="648">
  <sodipodi:namedview
     id="base"
     pagecolor="#ffffff"
     bordercolor="#666666"
     borderopacity="1.0"
     inkscape:pageopacity="0.0"
     inkscape:pageshadow="2"
     inkscape:zoom="11.2"
     inkscape:cx="10.991226"
     inkscape:cy="2.5296612"
     inkscape:document-units="px"
     inkscape:current-layer="layer2"
     showgrid="false"
     fit-margin-top="0"
     fit-margin-left="0"
     fit-margin-right="0"
     fit-margin-bottom="0"
     showguides="true"
     inkscape:guide-bbox="true"
     inkscape:window-width="1366"
     inkscape:window-height="744"
     inkscape:window-x="0"
     inkscape:window-y="24"
     inkscape:window-maximized="1"
     inkscape:snap-grids="true"
     inkscape:snap-to-guides="true"
     inkscape:snap-page="false">
    <inkscape:grid
       id="grid4138"
       type="xygrid" />
    <sodipodi:guide
       id="guide4140"
       orientation="0,1"
       position="10,18" />
    <sodipodi:guide
       id="guide4142"
       orientation="0,1"
       position="10,2" />
    <sodipodi:guide
       id="guide4144"
       orientation="1,0"
       position="2,10" />
    <sodipodi:guide
       id="guide4146"
       orientation="0,20"
       position="0,0" />
    <sodipodi:guide
       id="guide4148"
       orientation="-20,0"
       position="20,0" />
    <sodipodi:guide
       id="guide4150"
       orientation="0,-20"
       position="20,20" />
    <sodipodi:guide
       id="guide4152"
       orientation="20,0"
       position="0,20" />
    <sodipodi:guide
       id="guide4154"
       orientation="1,0"
       position="18,10" />
    <sodipodi:guide
       id="guide4156"
       orientation="-0.70710678,0.70710678"
       position="10,10" />
    <sodipodi:guide
       id="guide4160"
       orientation="1,0"
       position="4,10" />
    <sodipodi:guide
       id="guide4162"
       orientation="1,0"
       position="16,10" />
    <sodipodi:guide
       id="guide4166"
       orientation="0,1"
       position="10,4" />
    <sodipodi:guide
       id="guide4168"
       orientation="0,1"
       position="10,15" />
    <sodipodi:guide
       id="guide4170"
       orientation="0,1"
       position="10,5" />
    <sodipodi:guide
       id="guide4172"
       orientation="1,0"
       position="5,10" />
    <sodipodi:guide
       id="guide4174"
       orientation="1,0"
       position="15,10" />
  </sodipodi:namedview>
  <defs
     id="defs4">
    <linearGradient
       inkscape:collect="always"
       id="linearGradient6330">
      <stop
         style="stop-color:#000000;stop-opacity:0.2"
         offset="0"
         id="stop6332" />
      <stop
         style="stop-color:#000000;stop-opacity:0;"
         offset="1"
         id="stop6334" />
    </linearGradient>
    <clipPath
       clipPathUnits="userSpaceOnUse"
       id="clipPath12478">
      <circle
         style="opacity:1;fill:#2196f3;fill-opacity:1;stroke:none;stroke-width:0.05069799;stroke-miterlimit:4;stroke-dasharray:none;stroke-opacity:1"
         id="circle12480"
         cx="9.9999781"
         cy="10.000005"
         r="10" />
    </clipPath>
    <clipPath
       id="clipPath5790"
       clipPathUnits="userSpaceOnUse">
      <circle
         inkscape:export-ydpi="648"
         inkscape:export-xdpi="648"
         inkscape:export-filename="/home/juergen/path4136.png"
         style="opacity:1;fill:#2196f3;fill-opacity:1;stroke:none;stroke-width:0.05069799;stroke-miterlimit:4;stroke-dasharray:none;stroke-opacity:1"
         id="circle5792"
         cx="9.9999781"
         cy="10.000005"
         r="10" />
    </clipPath>
    <clipPath
       clipPathUnits="userSpaceOnUse"
       id="clipPath5055">
      <circle
         inkscape:export-ydpi="648"
         inkscape:export-xdpi="648"
         inkscape:export-filename="/home/juergen/path4136.png"
         style="opacity:1;fill:#2196f3;fill-opacity:1;stroke:none;stroke-width:0.05069799;stroke-miterlimit:4;stroke-dasharray:none;stroke-opacity:1"
         id="circle5057"
         cx="9.9999781"
         cy="10.000005"
         r="10" />
    </clipPath>
    <clipPath
       id="clipPath5119"
       clipPathUnits="userSpaceOnUse">
      <circle
         inkscape:export-ydpi="648"
         inkscape:export-xdpi="648"
         inkscape:export-filename="/home/juergen/Schreibtisch/path4136.png"
         style="opacity:1;fill:#2196f3;fill-opacity:1;stroke:none;stroke-width:0.05069799;stroke-miterlimit:4;stroke-dasharray:none;stroke-opacity:1"
         id="circle5121"
         cx="9.9999781"
         cy="10.000005"
         r="10" />
    </clipPath>
    <clipPath
       clipPathUnits="userSpaceOnUse"
       id="clipPath5194">
      <circle
         inkscape:export-ydpi="648"
         inkscape:export-xdpi="648"
         inkscape:export-filename="/home/juergen/Schreibtisch/path4136.png"
         style="opacity:1;fill:#cddc39;fill-opacity:1;stroke:none;stroke-width:0.05069799;stroke-miterlimit:4;stroke-dasharray:none;stroke-opacity:1"
         id="circle5196"
         cx="9.9999781"
         cy="10.000005"
         r="10" />
    </clipPath>
    <clipPath
       id="clipPath6175"
       clipPathUnits="userSpaceOnUse">
      <circle
         inkscape:export-ydpi="648"
         inkscape:export-xdpi="648"
         inkscape:export-filename="/home/juergen/Schreibtisch/path4136.png"
         style="opacity:1;fill:#f44336;fill-opacity:1;stroke:none;stroke-width:0.05069799;stroke-miterlimit:4;stroke-dasharray:none;stroke-opacity:1"
         id="circle6177"
         cx="9.9999781"
         cy="10.000005"
         r="10" />
    </clipPath>
    <clipPath
       clipPathUnits="userSpaceOnUse"
       id="clipPath7176">
      <circle
         inkscape:export-ydpi="648"
         inkscape:export-xdpi="648"
         inkscape:export-filename="/home/juergen/Schreibtisch/path4136.png"
         style="opacity:1;fill:#9c27b0;fill-opacity:1;stroke:none;stroke-width:0.05069799;stroke-miterlimit:4;stroke-dasharray:none;stroke-opacity:1"
         id="circle7178"
         cx="9.9999781"
         cy="10.000005"
         r="10" />
    </clipPath>
    <clipPath
       id="clipPath8165"
       clipPathUnits="userSpaceOnUse">
      <circle
         inkscape:export-ydpi="648"
         inkscape:export-xdpi="648"
         inkscape:export-filename="/home/juergen/Schreibtisch/path4136.png"
         style="opacity:1;fill:#ffc107;fill-opacity:1;stroke:none;stroke-width:0.05069799;stroke-miterlimit:4;stroke-dasharray:none;stroke-opacity:1"
         id="circle8167"
         cx="9.9999781"
         cy="10.000005"
         r="10" />
    </clipPath>
    <clipPath
       clipPathUnits="userSpaceOnUse"
       id="clipPath9162">
      <circle
         inkscape:export-ydpi="648"
         inkscape:export-xdpi="648"
         inkscape:export-filename="/home/juergen/Schreibtisch/path4136.png"
         style="opacity:1;fill:#ff9800;fill-opacity:1;stroke:none;stroke-width:0.05069799;stroke-miterlimit:4;stroke-dasharray:none;stroke-opacity:1"
         id="circle9164"
         cx="9.9999781"
         cy="10.000005"
         r="10" />
    </clipPath>
    <clipPath
       id="clipPath5147"
       clipPathUnits="userSpaceOnUse">
      <circle
         inkscape:export-ydpi="648"
         inkscape:export-xdpi="648"
         inkscape:export-filename="/home/juergen/Schreibtisch/path4136.png"
         style="opacity:1;fill:#ff9800;fill-opacity:1;stroke:none;stroke-width:0.05069799;stroke-miterlimit:4;stroke-dasharray:none;stroke-opacity:1"
         id="circle5149"
         cx="9.9999781"
         cy="10.000005"
         r="10" />
    </clipPath>
    <clipPath
       clipPathUnits="userSpaceOnUse"
       id="clipPath6144">
      <circle
         inkscape:export-ydpi="648"
         inkscape:export-xdpi="648"
         inkscape:export-filename="/home/juergen/Schreibtisch/path4136.png"
         style="opacity:1;fill:#e91e63;fill-opacity:1;stroke:none;stroke-width:0.05069799;stroke-miterlimit:4;stroke-dasharray:none;stroke-opacity:1"
         id="circle6146"
         cx="9.9999781"
         cy="10.000005"
         r="10" />
    </clipPath>
    <clipPath
       id="clipPath7143"
       clipPathUnits="userSpaceOnUse">
      <circle
         inkscape:export-ydpi="648"
         inkscape:export-xdpi="648"
         inkscape:export-filename="/home/juergen/Schreibtisch/path4136.png"
         style="opacity:1;fill:#ffeb3b;fill-opacity:1;stroke:none;stroke-width:0.05069799;stroke-miterlimit:4;stroke-dasharray:none;stroke-opacity:1"
         id="circle7145"
         cx="9.9999781"
         cy="10.000005"
         r="10" />
    </clipPath>
    <clipPath
       clipPathUnits="userSpaceOnUse"
       id="clipPath8148">
      <circle
         inkscape:export-ydpi="648"
         inkscape:export-xdpi="648"
         inkscape:export-filename="/home/juergen/Schreibtisch/path4136.png"
         style="opacity:1;fill:#9c27b0;fill-opacity:1;stroke:none;stroke-width:0.05069799;stroke-miterlimit:4;stroke-dasharray:none;stroke-opacity:1"
         id="circle8150"
         cx="9.9999781"
         cy="10.000005"
         r="10" />
    </clipPath>
    <clipPath
       id="clipPath5332"
       clipPathUnits="userSpaceOnUse">
      <circle
         inkscape:export-ydpi="648"
         inkscape:export-xdpi="648"
         inkscape:export-filename="/home/juergen/Schreibtisch/path4136.png"
         style="opacity:1;fill:#f44336;fill-opacity:1;stroke:none;stroke-width:0.05069799;stroke-miterlimit:4;stroke-dasharray:none;stroke-opacity:1"
         id="circle5334"
         cx="9.9999781"
         cy="10.000005"
         r="10" />
    </clipPath>
    <linearGradient
       inkscape:collect="always"
       xlink:href="#linearGradient6330"
       id="linearGradient6336"
       x1="10"
       y1="10"
       x2="20"
       y2="20"
       gradientUnits="userSpaceOnUse" />
    <clipPath
       clipPathUnits="userSpaceOnUse"
       id="clipPath6341">
      <circle
         inkscape:export-ydpi="648"
         inkscape:export-xdpi="648"
         inkscape:export-filename="/home/juergen/Schreibtisch/path4136.png"
         style="opacity:1;fill:#4caf50;fill-opacity:1;stroke:none;stroke-width:0.05069799;stroke-miterlimit:4;stroke-dasharray:none;stroke-opacity:1"
         id="circle6343"
         cx="9.9999781"
         cy="10.000005"
         r="10" />
    </clipPath>
  </defs>
  <metadata
     id="metadata7">
    <rdf:RDF>
      <cc:Work
         rdf:about="">
        <dc:format>image/svg+xml</dc:format>
        <dc:type
           rdf:resource="http://purl.org/dc/dcmitype/StillImage" />
        <dc:title></dc:title>
      </cc:Work>
    </rdf:RDF>
  </metadata>
  <g
     transform="translate(1058.1428,-861.93365)"
     id="layer1"
     inkscape:groupmode="layer"
     inkscape:label="Hintergrund">
    <circle
       r="10"
       cy="871.93365"
       cx="-1048.1428"
       id="path4136"
       style="opacity:1;fill:#f44336;fill-opacity:1;stroke:none;stroke-width:0.05069799;stroke-miterlimit:4;stroke-dasharray:none;stroke-opacity:1"
       inkscape:export-filename="/home/juergen/Schreibtisch/path4136.png"
       inkscape:export-xdpi="648"
       inkscape:export-ydpi="648" />
  </g>
  <g
     inkscape:label="Icon"
     id="layer2"
     inkscape:groupmode="layer"
     style="display:inline">
    <path
       style="fill:none"
       inkscape:connector-curvature="0"
       id="path4"
       d="m 3.9999777,4.0333382 12.0000003,0 0,11.9333328 -12.0000003,0 z" />
    <path
       d="m 18.999978,19.033339 12,0 0,11.933333 -12,0 z"
       id="path9754"
       inkscape:connector-curvature="0"
       style="fill:none" />
    <path
       style="fill:url(#linearGradient6336);fill-opacity:1;stroke-width:0.2;stroke-linejoin:round"
       d="M 8.7597656 5.1484375 L 8.2050781 5.7050781 L 6.2597656 5.7050781 L 6.2597656 6.8164062 L 6.4082031 6.8164062 L 6.4082031 6.9628906 L 6.5546875 6.9628906 L 6.5546875 7.1113281 L 6.703125 7.1113281 L 6.703125 7.2578125 L 6.8476562 7.2578125 L 6.8476562 7.3710938 L 6.8164062 7.3710938 L 6.8164062 14.037109 C 6.8164062 14.382928 6.9827464 14.680986 7.2304688 14.884766 C 7.2748513 14.938332 7.3214499 14.984896 7.375 15.029297 C 7.4213369 15.085653 7.47093 15.133418 7.5273438 15.179688 C 7.5709831 15.232214 7.6154916 15.27857 7.6679688 15.322266 C 7.7139174 15.378121 7.7625032 15.426708 7.8183594 15.472656 C 7.8623096 15.525401 7.908068 15.57143 7.9609375 15.615234 C 8.0047588 15.668085 8.0507585 15.713883 8.1035156 15.757812 C 8.1475786 15.811111 8.192959 15.85809 8.2460938 15.902344 C 8.2901779 15.955511 8.3375015 16.000787 8.390625 16.044922 C 8.4351638 16.098531 8.4814258 16.145056 8.5351562 16.189453 C 8.5780684 16.240698 8.6224617 16.285354 8.6738281 16.328125 C 8.7162681 16.379057 8.7597687 16.424179 8.8105469 16.466797 C 8.8548636 16.520245 8.9016301 16.567012 8.9550781 16.611328 C 8.9967832 16.660985 9.0401726 16.704406 9.0898438 16.746094 C 9.1331732 16.798117 9.1784549 16.843378 9.2304688 16.886719 C 9.2719234 16.93611 9.3158977 16.978013 9.3652344 17.019531 C 9.4088466 17.072025 9.4534199 17.118435 9.5058594 17.162109 C 9.5464364 17.210185 9.5886426 17.252392 9.6367188 17.292969 C 9.6790795 17.343806 9.7227685 17.389086 9.7734375 17.431641 C 9.8156449 17.481895 9.8597967 17.526273 9.9101562 17.568359 C 9.9501037 17.61555 9.9918714 17.657319 10.039062 17.697266 C 10.081202 17.747688 10.125454 17.791736 10.175781 17.833984 C 10.215555 17.881001 10.257724 17.921104 10.304688 17.960938 C 10.346979 18.011464 10.390889 18.055354 10.441406 18.097656 C 10.480653 18.143927 10.520181 18.185311 10.566406 18.224609 C 10.608032 18.274171 10.65161 18.31775 10.701172 18.359375 C 10.741074 18.406281 10.783002 18.446621 10.830078 18.486328 C 10.869325 18.532599 10.908853 18.573983 10.955078 18.613281 C 10.995072 18.660666 11.036699 18.702081 11.083984 18.742188 C 11.123506 18.788783 11.164342 18.829619 11.210938 18.869141 C 11.251044 18.916426 11.292459 18.958054 11.339844 18.998047 C 11.378328 19.043064 11.417766 19.082732 11.462891 19.121094 C 11.500842 19.165707 11.539521 19.206019 11.583984 19.244141 C 11.623932 19.291331 11.6657 19.3331 11.712891 19.373047 C 11.750776 19.417233 11.791639 19.45443 11.835938 19.492188 C 11.873529 19.536289 11.911113 19.575534 11.955078 19.613281 C 11.993665 19.658774 12.032784 19.699521 12.078125 19.738281 C 12.115947 19.782523 12.154976 19.821554 12.199219 19.859375 C 12.237442 19.904086 12.27749 19.942319 12.322266 19.980469 C 12.359676 20.024015 12.397756 20.062317 12.441406 20.099609 C 12.477872 20.142056 12.514237 20.180283 12.556641 20.216797 C 12.593875 20.260351 12.632319 20.2986 12.675781 20.335938 C 12.712569 20.378776 12.750137 20.416329 12.792969 20.453125 C 12.830307 20.496587 12.868555 20.535032 12.912109 20.572266 C 12.947722 20.613396 12.984173 20.650033 13.025391 20.685547 C 13.061553 20.72754 13.098642 20.764608 13.140625 20.800781 C 13.176559 20.842486 13.21418 20.8781 13.255859 20.914062 C 13.291231 20.955057 13.326255 20.991902 13.367188 21.027344 C 13.403112 21.069061 13.44075 21.104649 13.482422 21.140625 C 13.517804 21.181609 13.552808 21.218477 13.59375 21.253906 C 13.628771 21.294352 13.664632 21.330214 13.705078 21.365234 C 13.739217 21.404661 13.773198 21.440331 13.8125 21.474609 C 13.847467 21.515192 13.883412 21.550784 13.923828 21.585938 C 13.958849 21.626384 13.99471 21.662245 14.035156 21.697266 C 14.068246 21.735203 14.102728 21.767645 14.140625 21.800781 C 14.17535 21.841003 14.209915 21.877231 14.25 21.912109 C 14.284524 21.951786 14.319613 21.987056 14.359375 22.021484 C 14.392146 22.058853 14.425441 22.09232 14.462891 22.125 C 14.496166 22.16313 14.530229 22.197194 14.568359 22.230469 C 14.600685 22.267511 14.633007 22.301517 14.669922 22.333984 C 14.703146 22.372244 14.73729 22.406052 14.775391 22.439453 C 14.809065 22.478041 14.844169 22.51131 14.882812 22.544922 C 14.913879 22.580174 14.945217 22.611512 14.980469 22.642578 C 15.013848 22.680939 15.047652 22.714583 15.085938 22.748047 C 15.117054 22.783373 15.148275 22.814578 15.183594 22.845703 C 15.216703 22.883581 15.249204 22.918094 15.287109 22.951172 C 15.317326 22.985359 15.348648 23.01468 15.382812 23.044922 C 15.415645 23.082471 15.448779 23.115605 15.486328 23.148438 C 15.516879 23.182936 15.547458 23.213673 15.582031 23.244141 C 15.612142 23.278308 15.641732 23.309602 15.675781 23.339844 C 15.707956 23.376532 15.740655 23.409232 15.777344 23.441406 C 15.806682 23.474438 15.836102 23.503873 15.869141 23.533203 C 15.900241 23.568505 15.9315 23.599754 15.966797 23.630859 C 15.996128 23.663898 16.025562 23.693318 16.058594 23.722656 C 16.088804 23.756853 16.120137 23.786155 16.154297 23.816406 C 16.18389 23.849823 16.212721 23.880515 16.246094 23.910156 C 16.275425 23.943195 16.304859 23.972615 16.337891 24.001953 C 16.367222 24.034992 16.396655 24.064412 16.429688 24.09375 C 16.459026 24.126782 16.488446 24.156216 16.521484 24.185547 C 16.549884 24.217366 16.577528 24.247022 16.609375 24.275391 C 16.637797 24.307298 16.667333 24.334835 16.699219 24.363281 C 16.72682 24.39422 16.754291 24.421536 16.785156 24.449219 C 16.814787 24.482677 16.843534 24.513296 16.876953 24.542969 C 16.903904 24.57293 16.93091 24.600075 16.960938 24.626953 C 16.988466 24.657719 17.016115 24.685356 17.046875 24.712891 C 17.0738 24.742982 17.100839 24.769872 17.130859 24.796875 C 17.15965 24.829142 17.188369 24.858001 17.220703 24.886719 C 17.245954 24.914654 17.270888 24.939598 17.298828 24.964844 C 17.326985 24.996391 17.355171 25.024578 17.386719 25.052734 C 17.412529 25.081287 17.438181 25.107072 17.466797 25.132812 C 17.492538 25.161429 17.518322 25.187081 17.546875 25.212891 C 17.574174 25.243336 17.60039 25.271554 17.630859 25.298828 C 17.655984 25.326543 17.681208 25.351895 17.708984 25.376953 C 17.734452 25.405183 17.760852 25.429588 17.789062 25.455078 C 17.813702 25.482347 17.838031 25.50654 17.865234 25.53125 C 17.891899 25.560979 17.917575 25.588528 17.947266 25.615234 C 17.97063 25.640882 17.993884 25.664136 18.019531 25.6875 C 18.044911 25.715714 18.069541 25.74209 18.097656 25.767578 C 18.123144 25.795693 18.14952 25.820324 18.177734 25.845703 C 18.200915 25.871024 18.224588 25.892933 18.25 25.916016 C 18.274095 25.942551 18.297687 25.966135 18.324219 25.990234 C 18.347302 26.015646 18.36921 26.03932 18.394531 26.0625 C 18.418766 26.08931 18.442035 26.114335 18.46875 26.138672 C 18.492724 26.164988 18.516594 26.188981 18.542969 26.212891 C 18.564516 26.236367 18.585902 26.257746 18.609375 26.279297 C 18.633041 26.305402 18.65757 26.327809 18.683594 26.351562 C 18.707102 26.377317 18.730047 26.400382 18.755859 26.423828 C 18.777511 26.447364 18.798677 26.46864 18.822266 26.490234 C 18.844509 26.51454 18.866323 26.536347 18.890625 26.558594 C 18.911855 26.581784 18.931971 26.603682 18.955078 26.625 C 18.97747 26.649579 18.998946 26.672827 19.023438 26.695312 C 19.045924 26.719804 19.06917 26.74128 19.09375 26.763672 C 19.112913 26.784341 19.131674 26.803103 19.152344 26.822266 C 19.175128 26.847276 19.197699 26.869737 19.222656 26.892578 C 19.242834 26.914349 19.26331 26.933028 19.285156 26.953125 C 19.305868 26.97564 19.325168 26.996837 19.347656 27.017578 C 19.367051 27.0386 19.385301 27.058652 19.40625 27.078125 C 19.427759 27.101552 19.449229 27.123022 19.472656 27.144531 C 19.491849 27.165173 19.512506 27.182039 19.533203 27.201172 C 19.552089 27.221602 19.569488 27.240802 19.589844 27.259766 C 19.610883 27.282636 19.631426 27.30318 19.654297 27.324219 C 19.671941 27.343158 19.688115 27.361237 19.707031 27.378906 C 19.72737 27.400952 19.747486 27.421067 19.769531 27.441406 C 19.787418 27.46055 19.805031 27.478253 19.824219 27.496094 C 19.842708 27.515985 19.860971 27.534242 19.880859 27.552734 C 19.899102 27.572354 19.917896 27.589163 19.9375 27.607422 C 19.955511 27.62676 19.972852 27.644096 19.992188 27.662109 C 20.009214 27.68039 20.024757 27.697745 20.042969 27.714844 C 20.062154 27.735542 20.080866 27.75425 20.101562 27.773438 C 20.117269 27.790166 20.131731 27.806535 20.148438 27.822266 C 20.166915 27.842142 20.185203 27.860427 20.205078 27.878906 C 20.220837 27.895646 20.237145 27.910045 20.253906 27.925781 C 20.270958 27.944036 20.288404 27.959491 20.306641 27.976562 C 20.323092 27.994136 20.337918 28.010869 20.355469 28.027344 C 20.371574 28.044501 20.387141 28.060065 20.404297 28.076172 C 20.419385 28.092242 20.433208 28.107897 20.449219 28.123047 C 20.465502 28.140475 20.480682 28.157478 20.498047 28.173828 C 20.513425 28.190162 20.528589 28.205324 20.544922 28.220703 C 20.561023 28.237802 20.578557 28.251527 20.595703 28.267578 C 20.610024 28.282683 20.62353 28.296265 20.638672 28.310547 C 20.652582 28.32529 20.664997 28.339551 20.679688 28.353516 C 20.694775 28.369585 20.708598 28.385241 20.724609 28.400391 C 20.738783 28.415372 20.752598 28.429185 20.767578 28.443359 C 20.782357 28.458978 20.796845 28.473541 20.8125 28.488281 C 20.825094 28.501488 20.838337 28.512816 20.851562 28.525391 C 20.865495 28.540118 20.879819 28.552458 20.894531 28.566406 C 20.907855 28.580459 20.919559 28.59408 20.933594 28.607422 C 20.946564 28.621065 20.959014 28.633513 20.972656 28.646484 C 20.985626 28.660128 20.998076 28.672576 21.011719 28.685547 C 21.024317 28.698797 21.035595 28.711993 21.048828 28.724609 C 21.061049 28.737425 21.073122 28.749498 21.085938 28.761719 C 21.097929 28.774294 21.110482 28.784872 21.123047 28.796875 C 21.134798 28.809176 21.145903 28.820279 21.158203 28.832031 C 21.169954 28.844332 21.181059 28.855435 21.193359 28.867188 C 21.204717 28.879074 21.214692 28.890969 21.226562 28.902344 C 21.237583 28.913847 21.248263 28.924525 21.259766 28.935547 C 21.269787 28.946007 21.278642 28.956734 21.289062 28.966797 C 21.301297 28.979629 21.313341 28.991671 21.326172 29.003906 C 21.334973 29.01302 21.34441 29.020487 21.353516 29.029297 C 21.365246 29.041574 21.376394 29.052723 21.388672 29.064453 C 21.397842 29.07393 21.406516 29.08265 21.416016 29.091797 C 21.424788 29.100907 21.43233 29.110333 21.441406 29.119141 C 21.45242 29.130636 21.463115 29.14133 21.474609 29.152344 C 21.483041 29.161032 21.491291 29.169324 21.5 29.177734 C 21.50817 29.186195 21.516957 29.192973 21.525391 29.201172 C 21.534909 29.211086 21.542857 29.220912 21.552734 29.230469 C 21.561904 29.239946 21.570579 29.248666 21.580078 29.257812 C 21.586649 29.264551 21.592871 29.270773 21.599609 29.277344 C 21.608382 29.286454 21.615924 29.29588 21.625 29.304688 C 21.633431 29.313376 21.641682 29.321668 21.650391 29.330078 C 21.656203 29.336022 21.662025 29.341843 21.667969 29.347656 C 21.676766 29.356766 21.686211 29.364242 21.695312 29.373047 C 21.700631 29.378475 21.705509 29.383353 21.710938 29.388672 C 21.718474 29.396461 21.724662 29.404543 21.732422 29.412109 C 21.738989 29.418844 21.745219 29.425074 21.751953 29.431641 C 21.758141 29.437986 21.763194 29.444975 21.769531 29.451172 C 21.77535 29.457123 21.781159 29.462931 21.787109 29.46875 C 21.793678 29.475466 21.801858 29.47978 21.808594 29.486328 C 21.812654 29.490452 21.816189 29.493987 21.820312 29.498047 C 21.827246 29.505178 21.832722 29.512588 21.839844 29.519531 C 21.84315 29.52288 21.846261 29.52599 21.849609 29.529297 C 21.855159 29.534989 21.859564 29.541303 21.865234 29.546875 C 21.870428 29.55216 21.875562 29.557319 21.880859 29.5625 C 21.88341 29.565075 21.886097 29.567762 21.888672 29.570312 C 21.893598 29.57535 21.899276 29.579041 21.904297 29.583984 C 21.908985 29.588745 21.913196 29.59298 21.917969 29.597656 C 21.92064 29.600349 21.923082 29.602804 21.925781 29.605469 C 21.929082 29.608811 21.932205 29.611934 21.935547 29.615234 C 21.938473 29.618198 21.9404 29.62207 21.943359 29.625 C 21.945909 29.627575 21.948597 29.630263 21.951172 29.632812 C 21.953722 29.635388 21.956409 29.638075 21.958984 29.640625 C 21.961277 29.64294 21.964484 29.64419 21.966797 29.646484 C 21.967814 29.64751 21.969682 29.651322 21.970703 29.652344 C 21.970703 29.652344 21.972656 29.652344 21.972656 29.652344 C 21.973674 29.653369 21.973588 29.655229 21.974609 29.65625 C 21.97626 29.657921 21.978808 29.662402 21.980469 29.664062 C 21.980469 29.664062 21.982422 29.666016 21.982422 29.666016 C 21.982422 29.666016 21.984375 29.667969 21.984375 29.667969 C 21.984375 29.667969 21.986328 29.667969 21.986328 29.667969 C 21.987345 29.668994 21.98726 29.670854 21.988281 29.671875 C 21.988281 29.671875 21.990234 29.671875 21.990234 29.671875 C 21.990234 29.671875 21.990234 29.673828 21.990234 29.673828 C 21.990492 29.674086 21.99193 29.673571 21.992188 29.673828 C 22.092086 29.772954 22.210217 29.854504 22.341797 29.910156 C 22.341797 29.910156 22.34375 29.912109 22.34375 29.912109 C 22.344255 29.912324 22.345198 29.911896 22.345703 29.912109 C 22.37222 29.923271 22.404123 29.920571 22.431641 29.929688 C 22.542128 29.96651 22.654481 30 22.777344 30 L 27.222656 30 C 27.375406 30 27.519875 29.967871 27.652344 29.912109 C 27.785275 29.855886 27.905325 29.774362 28.005859 29.673828 C 28.207601 29.47267 28.332031 29.196086 28.332031 28.888672 C 28.332032 28.888008 28.332031 28.887383 28.332031 28.886719 L 28.332031 22.222656 L 28.332031 22.220703 L 28.330078 22.220703 L 28.330078 22.21875 L 28.328125 22.21875 L 28.328125 22.216797 L 28.324219 22.216797 L 28.324219 22.212891 L 28.320312 22.212891 L 28.320312 22.208984 L 28.314453 22.208984 L 28.314453 22.203125 L 28.308594 22.203125 L 28.308594 22.199219 L 28.302734 22.199219 L 28.302734 22.191406 L 28.296875 22.191406 L 28.296875 22.185547 L 28.289062 22.185547 L 28.289062 22.177734 L 28.279297 22.177734 L 28.279297 22.167969 L 28.271484 22.167969 L 28.271484 22.160156 L 28.259766 22.160156 L 28.259766 22.150391 L 28.25 22.150391 L 28.25 22.138672 L 28.238281 22.138672 L 28.238281 22.126953 L 28.226562 22.126953 L 28.226562 22.115234 L 28.212891 22.115234 L 28.212891 22.101562 L 28.199219 22.101562 L 28.199219 22.087891 L 28.185547 22.087891 L 28.185547 22.074219 L 28.169922 22.074219 L 28.169922 22.058594 L 28.154297 22.058594 L 28.154297 22.042969 L 28.136719 22.042969 L 28.136719 22.025391 L 28.119141 22.025391 L 28.119141 22.007812 L 28.101562 22.007812 L 28.101562 21.990234 L 28.082031 21.990234 L 28.082031 21.970703 L 28.0625 21.970703 L 28.0625 21.951172 L 28.042969 21.951172 L 28.042969 21.931641 L 28.021484 21.931641 L 28.021484 21.910156 L 28 21.910156 L 28 21.888672 L 27.976562 21.888672 L 27.976562 21.865234 L 27.953125 21.865234 L 27.953125 21.841797 L 27.929688 21.841797 L 27.929688 21.818359 L 27.904297 21.818359 L 27.904297 21.792969 L 27.878906 21.792969 L 27.878906 21.767578 L 27.851562 21.767578 L 27.851562 21.740234 L 27.824219 21.740234 L 27.824219 21.714844 L 27.796875 21.714844 L 27.796875 21.685547 L 27.769531 21.685547 L 27.769531 21.666016 L 28.886719 21.666016 L 28.888672 21.666016 L 28.888672 20.554688 L 28.886719 20.554688 L 28.884766 20.554688 L 28.884766 20.552734 L 28.882812 20.552734 L 28.882812 20.548828 L 28.878906 20.548828 L 28.878906 20.546875 L 28.875 20.546875 L 28.875 20.542969 L 28.871094 20.542969 L 28.871094 20.537109 L 28.865234 20.537109 L 28.865234 20.53125 L 28.859375 20.53125 L 28.859375 20.525391 L 28.851562 20.525391 L 28.851562 20.517578 L 28.84375 20.517578 L 28.84375 20.509766 L 28.835938 20.509766 L 28.835938 20.501953 L 28.826172 20.501953 L 28.826172 20.492188 L 28.816406 20.492188 L 28.816406 20.482422 L 28.804688 20.482422 L 28.804688 20.472656 L 28.792969 20.472656 L 28.792969 20.460938 L 28.78125 20.460938 L 28.78125 20.449219 L 28.769531 20.449219 L 28.769531 20.435547 L 28.753906 20.435547 L 28.753906 20.421875 L 28.740234 20.421875 L 28.740234 20.40625 L 28.724609 20.40625 L 28.724609 20.392578 L 28.708984 20.392578 L 28.708984 20.375 L 28.693359 20.375 L 28.693359 20.359375 L 28.675781 20.359375 L 28.675781 20.341797 L 28.65625 20.341797 L 28.65625 20.324219 L 28.638672 20.324219 L 28.638672 20.304688 L 28.619141 20.304688 L 28.619141 20.285156 L 28.597656 20.285156 L 28.597656 20.263672 L 28.576172 20.263672 L 28.576172 20.244141 L 28.554688 20.244141 L 28.554688 20.220703 L 28.53125 20.220703 L 28.53125 20.199219 L 28.507812 20.199219 L 28.507812 20.175781 L 28.484375 20.175781 L 28.484375 20.150391 L 28.458984 20.150391 L 28.458984 20.126953 L 28.433594 20.126953 L 28.433594 20.101562 L 28.408203 20.101562 L 28.408203 20.074219 L 28.380859 20.074219 L 28.380859 20.046875 L 28.353516 20.046875 L 28.353516 20.019531 L 28.324219 20.019531 L 28.324219 19.990234 L 28.294922 19.990234 L 28.294922 19.960938 L 28.265625 19.960938 L 28.265625 19.931641 L 28.234375 19.931641 L 28.234375 19.900391 L 28.203125 19.900391 L 28.203125 19.869141 L 28.169922 19.869141 L 28.169922 19.835938 L 28.136719 19.835938 L 28.136719 19.804688 L 28.103516 19.804688 L 28.103516 19.769531 L 28.068359 19.769531 L 28.068359 19.736328 L 28.033203 19.736328 L 28.033203 19.699219 L 27.998047 19.699219 L 27.998047 19.664062 L 27.960938 19.664062 L 27.960938 19.626953 L 27.923828 19.626953 L 27.923828 19.589844 L 27.884766 19.589844 L 27.884766 19.550781 L 27.845703 19.550781 L 27.845703 19.511719 L 27.806641 19.511719 L 27.806641 19.472656 L 27.765625 19.472656 L 27.765625 19.431641 L 27.724609 19.431641 L 27.724609 19.390625 L 27.681641 19.390625 L 27.681641 19.349609 L 27.640625 19.349609 L 27.640625 19.306641 L 27.595703 19.306641 L 27.595703 19.263672 L 27.552734 19.263672 L 27.552734 19.21875 L 27.507812 19.21875 L 27.507812 19.173828 L 27.460938 19.173828 L 27.460938 19.128906 L 27.416016 19.128906 L 27.416016 19.082031 L 27.367188 19.082031 L 27.367188 19.035156 L 27.320312 19.035156 L 27.320312 18.986328 L 27.271484 18.986328 L 27.271484 18.9375 L 27.222656 18.9375 L 27.222656 18.888672 L 27.171875 18.888672 L 27.171875 18.837891 L 27.121094 18.837891 L 27.121094 18.787109 L 27.070312 18.787109 L 27.070312 18.736328 L 27.017578 18.736328 L 27.017578 18.683594 L 26.964844 18.683594 L 26.964844 18.630859 L 26.910156 18.630859 L 26.910156 18.576172 L 26.855469 18.576172 L 26.855469 18.523438 L 26.800781 18.523438 L 26.800781 18.466797 L 26.744141 18.466797 L 26.744141 18.410156 L 26.6875 18.410156 L 26.6875 18.353516 L 26.630859 18.353516 L 26.630859 18.296875 L 26.572266 18.296875 L 26.572266 18.238281 L 26.513672 18.238281 L 26.513672 18.179688 L 26.453125 18.179688 L 26.453125 18.119141 L 26.392578 18.119141 L 26.392578 18.058594 L 26.332031 18.058594 L 26.332031 17.998047 L 26.269531 17.998047 L 26.269531 17.935547 L 26.207031 17.935547 L 26.207031 17.873047 L 26.142578 17.873047 L 26.142578 17.810547 L 26.078125 17.810547 L 26.078125 17.746094 L 26.013672 17.746094 L 26.013672 17.679688 L 25.947266 17.679688 L 25.947266 17.615234 L 25.880859 17.615234 L 25.880859 17.548828 L 25.814453 17.548828 L 25.814453 17.480469 L 25.746094 17.480469 L 25.746094 17.412109 L 25.677734 17.412109 L 25.677734 17.34375 L 25.607422 17.34375 L 25.607422 17.275391 L 25.539062 17.275391 L 25.539062 17.205078 L 25.466797 17.205078 L 25.466797 17.134766 L 25.396484 17.134766 L 25.396484 17.0625 L 25.322266 17.0625 L 25.322266 16.990234 L 25.25 16.990234 L 25.25 16.916016 L 25.175781 16.916016 L 25.175781 16.84375 L 25.101562 16.84375 L 25.101562 16.767578 L 25.025391 16.767578 L 25.025391 16.693359 L 24.949219 16.693359 L 24.949219 16.617188 L 24.873047 16.617188 L 24.873047 16.539062 L 24.794922 16.539062 L 24.794922 16.462891 L 24.716797 16.462891 L 24.716797 16.384766 L 24.638672 16.384766 L 24.638672 16.304688 L 24.558594 16.304688 L 24.558594 16.224609 L 24.478516 16.224609 L 24.478516 16.144531 L 24.396484 16.144531 L 24.396484 16.0625 L 24.314453 16.0625 L 24.314453 15.980469 L 24.232422 15.980469 L 24.232422 15.898438 L 24.148438 15.898438 L 24.148438 15.814453 L 24.064453 15.814453 L 24.064453 15.730469 L 23.978516 15.730469 L 23.978516 15.644531 L 23.892578 15.644531 L 23.892578 15.560547 L 23.806641 15.560547 L 23.806641 15.472656 L 23.71875 15.472656 L 23.71875 15.386719 L 23.630859 15.386719 L 23.630859 15.298828 L 23.542969 15.298828 L 23.542969 15.208984 L 23.453125 15.208984 L 23.453125 15.119141 L 23.363281 15.119141 L 23.363281 15.029297 L 23.271484 15.029297 L 23.271484 14.939453 L 23.179688 14.939453 L 23.179688 14.847656 L 23.087891 14.847656 L 23.087891 14.753906 L 22.994141 14.753906 L 22.994141 14.662109 L 22.900391 14.662109 L 22.900391 14.566406 L 22.806641 14.566406 L 22.806641 14.472656 L 22.710938 14.472656 L 22.710938 14.376953 L 22.615234 14.376953 L 22.615234 14.28125 L 22.517578 14.28125 L 22.517578 14.183594 L 22.419922 14.183594 L 22.419922 14.085938 L 22.322266 14.085938 L 22.322266 13.988281 L 22.222656 13.988281 L 22.222656 13.888672 L 22.123047 13.888672 L 22.123047 13.789062 L 22.021484 13.789062 L 22.021484 13.6875 L 21.919922 13.6875 L 21.919922 13.587891 L 21.818359 13.587891 L 21.818359 13.484375 L 21.714844 13.484375 L 21.714844 13.382812 L 21.611328 13.382812 L 21.611328 13.279297 L 21.507812 13.279297 L 21.507812 13.173828 L 21.402344 13.173828 L 21.402344 13.068359 L 21.296875 13.068359 L 21.296875 12.962891 L 21.189453 12.962891 L 21.189453 12.857422 L 21.082031 12.857422 L 21.082031 12.75 L 20.974609 12.75 L 20.974609 12.640625 L 20.865234 12.640625 L 20.865234 12.533203 L 20.755859 12.533203 L 20.755859 12.423828 L 20.646484 12.423828 L 20.646484 12.3125 L 20.535156 12.3125 L 20.535156 12.201172 L 20.423828 12.201172 L 20.423828 12.089844 L 20.310547 12.089844 L 20.310547 11.978516 L 20.197266 11.978516 L 20.197266 11.865234 L 20.083984 11.865234 L 20.083984 11.75 L 19.96875 11.75 L 19.96875 11.634766 L 19.853516 11.634766 L 19.853516 11.519531 L 19.736328 11.519531 L 19.736328 11.404297 L 19.621094 11.404297 L 19.621094 11.287109 L 19.501953 11.287109 L 19.501953 11.169922 L 19.384766 11.169922 L 19.384766 11.050781 L 19.265625 11.050781 L 19.265625 10.931641 L 19.144531 10.931641 L 19.144531 10.8125 L 19.023438 10.8125 L 19.023438 10.691406 L 18.902344 10.691406 L 18.902344 10.570312 L 18.78125 10.570312 L 18.78125 10.447266 L 18.658203 10.447266 L 18.658203 10.324219 L 18.535156 10.324219 L 18.535156 10.201172 L 18.410156 10.201172 L 18.410156 10.076172 L 18.285156 10.076172 L 18.285156 9.9511719 L 18.158203 9.9511719 L 18.158203 9.8261719 L 18.033203 9.8261719 L 18.033203 9.6992188 L 17.904297 9.6992188 L 17.904297 9.5722656 L 17.777344 9.5722656 L 17.777344 9.4433594 L 17.648438 9.4433594 L 17.648438 9.3144531 L 17.517578 9.3144531 L 17.517578 9.1855469 L 17.388672 9.1855469 L 17.388672 9.0546875 L 17.257812 9.0546875 L 17.257812 8.9238281 L 17.125 8.9238281 L 17.125 8.7929688 L 16.992188 8.7929688 L 16.992188 8.6601562 L 16.859375 8.6601562 L 16.859375 8.5253906 L 16.724609 8.5253906 L 16.724609 8.3925781 L 16.589844 8.3925781 L 16.589844 8.2578125 L 16.455078 8.2578125 L 16.455078 8.1210938 L 16.318359 8.1210938 L 16.318359 7.9863281 L 16.181641 7.9863281 L 16.181641 7.8476562 L 16.044922 7.8476562 L 16.044922 7.7109375 L 15.90625 7.7109375 L 15.90625 7.5722656 L 15.765625 7.5722656 L 15.765625 7.4335938 L 15.626953 7.4335938 L 15.626953 7.2929688 L 15.486328 7.2929688 L 15.486328 7.1523438 L 15.34375 7.1523438 L 15.34375 7.0117188 L 15.201172 7.0117188 L 15.201172 6.8691406 L 15.058594 6.8691406 L 15.058594 6.7265625 L 14.916016 6.7265625 L 14.916016 6.5820312 L 14.771484 6.5820312 L 14.771484 6.4375 L 14.625 6.4375 L 14.625 6.2929688 L 14.480469 6.2929688 L 14.480469 6.1464844 L 14.333984 6.1464844 L 14.333984 6 L 14.185547 6 L 14.185547 5.8535156 L 14.037109 5.8535156 L 14.037109 5.7050781 L 12.09375 5.7050781 L 11.537109 5.1484375 L 8.7597656 5.1484375 z "
       id="path5474"
       clip-path="url(#clipPath6341)" />
    <path
       style="fill:#fafafa;fill-opacity:1;stroke-width:0.2;stroke-linejoin:round"
       inkscape:connector-curvature="0"
       d="M 7.777754,15 C 7.164108,15 6.666649,14.502558 6.666649,13.888895 l 5e-5,-6.6666852 6.66663,0 -5.6e-5,6.6666852 C 13.333273,14.502558 12.835832,15 12.222168,15 l -4.444414,0 z m -1.666635,-8.333326 0,-1.1110938 1.944434,0 L 8.611105,5.0000277 11.388895,5 l 0.555553,0.5555524 1.944433,2.78e-5 -5.5e-5,1.1110994 -7.777707,-5.6e-6 z"
       id="path5405" />
  </g>
</svg>
