<?xml version="1.0" encoding="UTF-8" standalone="no"?>
<!-- Created with Inkscape (http://www.inkscape.org/) -->

<svg
   xmlns:dc="http://purl.org/dc/elements/1.1/"
   xmlns:cc="http://creativecommons.org/ns#"
   xmlns:rdf="http://www.w3.org/1999/02/22-rdf-syntax-ns#"
   xmlns:svg="http://www.w3.org/2000/svg"
   xmlns="http://www.w3.org/2000/svg"
   xmlns:xlink="http://www.w3.org/1999/xlink"
   xmlns:sodipodi="http://sodipodi.sourceforge.net/DTD/sodipodi-0.dtd"
   xmlns:inkscape="http://www.inkscape.org/namespaces/inkscape"
   sodipodi:docname="vESPUCCI.svg"
   inkscape:version="0.91 r13725"
   version="1.1"
   id="svg2"
   viewBox="0 0 20 20"
   height="5.6444445mm"
   width="5.6444445mm">
  <sodipodi:namedview
     inkscape:snap-to-guides="false"
     inkscape:snap-grids="false"
     inkscape:window-maximized="1"
     inkscape:window-y="24"
     inkscape:window-x="0"
     inkscape:window-height="744"
     inkscape:window-width="1366"
     inkscape:guide-bbox="true"
     showguides="true"
     fit-margin-bottom="0"
     fit-margin-right="0"
     fit-margin-left="0"
     fit-margin-top="0"
     showgrid="true"
     inkscape:current-layer="layer2"
     inkscape:document-units="px"
     inkscape:cy="8.2474115"
     inkscape:cx="1.8768815"
     inkscape:zoom="11.2"
     inkscape:pageshadow="2"
     inkscape:pageopacity="0.0"
     borderopacity="1.0"
     bordercolor="#666666"
     pagecolor="#ffffff"
     id="base">
    <inkscape:grid
       id="grid4138"
       type="xygrid" />
    <sodipodi:guide
       id="guide4140"
       orientation="0,1"
       position="10,18" />
    <sodipodi:guide
       id="guide4142"
       orientation="0,1"
       position="10,2" />
    <sodipodi:guide
       id="guide4144"
       orientation="1,0"
       position="2,10" />
    <sodipodi:guide
       id="guide4146"
       orientation="0,20"
       position="0,0" />
    <sodipodi:guide
       id="guide4148"
       orientation="-20,0"
       position="20,0" />
    <sodipodi:guide
       id="guide4150"
       orientation="0,-20"
       position="20,20" />
    <sodipodi:guide
       id="guide4152"
       orientation="20,0"
       position="0,20" />
    <sodipodi:guide
       id="guide4154"
       orientation="1,0"
       position="18,10" />
    <sodipodi:guide
       id="guide4156"
       orientation="-0.70710678,0.70710678"
       position="10,10" />
    <sodipodi:guide
       id="guide4158"
       orientation="0.70710678,0.70710678"
       position="10,10" />
    <sodipodi:guide
       id="guide4160"
       orientation="1,0"
       position="4,10" />
    <sodipodi:guide
       id="guide4162"
       orientation="1,0"
       position="16,10" />
    <sodipodi:guide
       id="guide4164"
       orientation="0,1"
       position="10,16" />
    <sodipodi:guide
       id="guide4166"
       orientation="0,1"
       position="10,4" />
    <sodipodi:guide
       id="guide4168"
       orientation="0,1"
       position="10,15" />
    <sodipodi:guide
       id="guide4170"
       orientation="0,1"
       position="10,5" />
    <sodipodi:guide
       id="guide4172"
       orientation="1,0"
       position="5,10" />
    <sodipodi:guide
       id="guide4174"
       orientation="1,0"
       position="15,10" />
  </sodipodi:namedview>
  <defs
     id="defs4">
    <linearGradient
       inkscape:collect="always"
       id="linearGradient9239">
      <stop
         style="stop-color:#000000;stop-opacity:0.2"
         offset="0"
         id="stop9241" />
      <stop
         style="stop-color:#000000;stop-opacity:0;"
         offset="1"
         id="stop9243" />
    </linearGradient>
    <clipPath
       clipPathUnits="userSpaceOnUse"
       id="clipPath12478">
      <circle
         style="opacity:1;fill:#2196f3;fill-opacity:1;stroke:none;stroke-width:0.05069799;stroke-miterlimit:4;stroke-dasharray:none;stroke-opacity:1"
         id="circle12480"
         cx="9.9999781"
         cy="10.000005"
         r="10" />
    </clipPath>
    <clipPath
       id="clipPath5790"
       clipPathUnits="userSpaceOnUse">
      <circle
         inkscape:export-ydpi="648"
         inkscape:export-xdpi="648"
         inkscape:export-filename="/home/juergen/path4136.png"
         style="opacity:1;fill:#2196f3;fill-opacity:1;stroke:none;stroke-width:0.05069799;stroke-miterlimit:4;stroke-dasharray:none;stroke-opacity:1"
         id="circle5792"
         cx="9.9999781"
         cy="10.000005"
         r="10" />
    </clipPath>
    <clipPath
       clipPathUnits="userSpaceOnUse"
       id="clipPath7690">
      <circle
         inkscape:export-ydpi="648"
         inkscape:export-xdpi="648"
         inkscape:export-filename="/home/juergen/Schreibtisch/path4136.png"
         style="opacity:1;fill:#2196f3;fill-opacity:1;stroke:none;stroke-width:0.05069799;stroke-miterlimit:4;stroke-dasharray:none;stroke-opacity:1"
         id="circle7692"
         cx="9.9999781"
         cy="10.000005"
         r="10" />
    </clipPath>
    <clipPath
       id="clipPath5119"
       clipPathUnits="userSpaceOnUse">
      <circle
         inkscape:export-ydpi="648"
         inkscape:export-xdpi="648"
         inkscape:export-filename="/home/juergen/Schreibtisch/path4136.png"
         style="opacity:1;fill:#ff9800;fill-opacity:1;stroke:none;stroke-width:0.05069799;stroke-miterlimit:4;stroke-dasharray:none;stroke-opacity:1"
         id="circle5121"
         cx="9.9999781"
         cy="10.000005"
         r="10" />
    </clipPath>
    <clipPath
       clipPathUnits="userSpaceOnUse"
       id="clipPath5125">
      <circle
         inkscape:export-ydpi="648"
         inkscape:export-xdpi="648"
         inkscape:export-filename="/home/juergen/Schreibtisch/path4136.png"
         style="opacity:1;fill:#e91e63;fill-opacity:1;stroke:none;stroke-width:0.05069799;stroke-miterlimit:4;stroke-dasharray:none;stroke-opacity:1"
         id="circle5127"
         cx="9.9999781"
         cy="10.000005"
         r="10" />
    </clipPath>
    <clipPath
       id="clipPath6122"
       clipPathUnits="userSpaceOnUse">
      <circle
         inkscape:export-ydpi="648"
         inkscape:export-xdpi="648"
         inkscape:export-filename="/home/juergen/Schreibtisch/path4136.png"
         style="opacity:1;fill:#ffc107;fill-opacity:1;stroke:none;stroke-width:0.05069799;stroke-miterlimit:4;stroke-dasharray:none;stroke-opacity:1"
         id="circle6124"
         cx="9.9999781"
         cy="10.000005"
         r="10" />
    </clipPath>
    <clipPath
       clipPathUnits="userSpaceOnUse"
       id="clipPath5142">
      <circle
         inkscape:export-ydpi="648"
         inkscape:export-xdpi="648"
         inkscape:export-filename="/home/juergen/Schreibtisch/path4136.png"
         style="opacity:1;fill:#ffc107;fill-opacity:1;stroke:none;stroke-width:0.05069799;stroke-miterlimit:4;stroke-dasharray:none;stroke-opacity:1"
         id="circle5144"
         cx="9.9999781"
         cy="10.000005"
         r="10" />
    </clipPath>
    <clipPath
       id="clipPath6137"
       clipPathUnits="userSpaceOnUse">
      <circle
         inkscape:export-ydpi="648"
         inkscape:export-xdpi="648"
         inkscape:export-filename="/home/juergen/Projekte/Android/Android_Studio/Baumann_Theme/theme/src/main/assets/icons/res/drawable-xxhdpi/a159.png"
         style="opacity:1;fill:#ffc107;fill-opacity:1;stroke:none;stroke-width:0.05069799;stroke-miterlimit:4;stroke-dasharray:none;stroke-opacity:1"
         id="circle6139"
         cx="9.9999781"
         cy="10.000005"
         r="10" />
    </clipPath>
    <clipPath
       id="clipPath8232"
       clipPathUnits="userSpaceOnUse">
      <circle
         inkscape:export-ydpi="648"
         inkscape:export-xdpi="648"
         inkscape:export-filename="/home/juergen/Projekte/Android/Android_Studio/Baumann_Theme/theme/src/main/assets/icons/res/drawable-xxhdpi/a161.png"
         style="opacity:1;fill:#3f51b5;fill-opacity:1;stroke:none;stroke-width:0.05069799;stroke-miterlimit:4;stroke-dasharray:none;stroke-opacity:1"
         id="circle8234"
         cx="9.9999781"
         cy="10.000005"
         r="10" />
    </clipPath>
    <clipPath
       id="clipPath8239"
       clipPathUnits="userSpaceOnUse">
      <circle
         inkscape:export-ydpi="648"
         inkscape:export-xdpi="648"
         inkscape:export-filename="/home/juergen/Projekte/Android/Android_Studio/Baumann_Theme/theme/src/main/assets/icons/res/drawable-xxhdpi/a161.png"
         style="opacity:1;fill:#3f51b5;fill-opacity:1;stroke:none;stroke-width:0.05069799;stroke-miterlimit:4;stroke-dasharray:none;stroke-opacity:1"
         id="circle8241"
         cx="9.9999781"
         cy="10.000005"
         r="10" />
    </clipPath>
    <linearGradient
       inkscape:collect="always"
       xlink:href="#linearGradient9239"
       id="linearGradient9245"
       x1="10"
       y1="10"
       x2="20"
       y2="20"
       gradientUnits="userSpaceOnUse" />
    <clipPath
       clipPathUnits="userSpaceOnUse"
       id="clipPath9250">
      <circle
         inkscape:export-ydpi="648"
         inkscape:export-xdpi="648"
         inkscape:export-filename="/home/juergen/Projekte/Android/Android_Studio/Baumann_Theme/theme/src/main/assets/icons/res/drawable-xxhdpi/a162.png"
         style="opacity:1;fill:#03a9f4;fill-opacity:1;stroke:none;stroke-width:0.05069799;stroke-miterlimit:4;stroke-dasharray:none;stroke-opacity:1"
         id="circle9252"
         cx="9.9999781"
         cy="10.000005"
         r="10" />
    </clipPath>
    <clipPath
       clipPathUnits="userSpaceOnUse"
       id="clipPath9257">
      <circle
         inkscape:export-ydpi="648"
         inkscape:export-xdpi="648"
         inkscape:export-filename="/home/juergen/Projekte/Android/Android_Studio/Baumann_Theme/theme/src/main/assets/icons/res/drawable-xxhdpi/a162.png"
         style="opacity:1;fill:#03a9f4;fill-opacity:1;stroke:none;stroke-width:0.05069799;stroke-miterlimit:4;stroke-dasharray:none;stroke-opacity:1"
         id="circle9259"
         cx="9.9999781"
         cy="10.000005"
         r="10" />
    </clipPath>
  </defs>
  <metadata
     id="metadata7">
    <rdf:RDF>
      <cc:Work
         rdf:about="">
        <dc:format>image/svg+xml</dc:format>
        <dc:type
           rdf:resource="http://purl.org/dc/dcmitype/StillImage" />
        <dc:title></dc:title>
      </cc:Work>
    </rdf:RDF>
  </metadata>
  <g
     transform="translate(1058.1428,-861.93365)"
     id="layer1"
     inkscape:groupmode="layer"
     inkscape:label="Hintergrund">
    <circle
       r="10"
       cy="871.93365"
       cx="-1048.1428"
       id="path4136"
       style="opacity:1;fill:#3f51b5;fill-opacity:1;stroke:none;stroke-width:0.05069799;stroke-miterlimit:4;stroke-dasharray:none;stroke-opacity:1"
       inkscape:export-filename="/home/juergen/Projekte/Android/Android_Studio/Baumann_Theme/theme/src/main/assets/icons/res/drawable-xxhdpi/a161.png"
       inkscape:export-xdpi="648"
       inkscape:export-ydpi="648" />
    <circle
       inkscape:export-ydpi="648"
       inkscape:export-xdpi="648"
       inkscape:export-filename="/home/juergen/Projekte/Android/Android_Studio/Baumann_Theme/theme/src/main/assets/icons/res/drawable-xxhdpi/a161.png"
       style="opacity:1;fill:#3f51b5;fill-opacity:1;stroke:none;stroke-width:0.05069799;stroke-miterlimit:4;stroke-dasharray:none;stroke-opacity:1"
       id="circle6169"
       cx="-1048.1428"
       cy="871.93365"
       r="10" />
    <circle
       r="10"
       cy="871.93365"
       cx="-1048.1428"
       id="circle8216"
       style="opacity:1;fill:#4caf50;fill-opacity:1;stroke:none;stroke-width:0.05069799;stroke-miterlimit:4;stroke-dasharray:none;stroke-opacity:1"
       inkscape:export-filename="/home/juergen/Projekte/Android/Android_Studio/Baumann_Theme/theme/src/main/assets/icons/res/drawable-xxhdpi/a162.png"
       inkscape:export-xdpi="648"
       inkscape:export-ydpi="648" />
  </g>
  <g
     inkscape:label="Icon"
     id="layer2"
     inkscape:groupmode="layer"
     style="display:inline">
    <path
       d="M 8.3339844 5.2382812 C 7.4499293 5.2382812 6.6016838 5.5897223 5.9765625 6.2148438 C 5.3514412 6.8399652 4.9999998 7.6882105 5 8.5722656 C 5 11.072266 8.3339844 14.761719 8.3339844 14.761719 C 8.3339844 14.761719 8.3398001 14.755908 8.3398438 14.755859 C 8.3467715 14.763618 8.4082031 14.835938 8.4082031 14.835938 C 8.4082031 14.835938 8.4104191 14.830222 8.4121094 14.828125 C 8.4195823 14.836498 8.4824219 14.912109 8.4824219 14.912109 C 8.4824219 14.912109 8.4854431 14.905323 8.4863281 14.904297 C 8.4936645 14.912516 8.5566406 14.986328 8.5566406 14.986328 C 8.5566406 14.986328 8.5599346 14.979214 8.5605469 14.978516 C 8.5679236 14.986781 8.6308594 15.060547 8.6308594 15.060547 C 8.6308594 15.060547 8.6359121 15.051701 8.6367188 15.050781 C 8.6443385 15.059321 8.7070312 15.134766 8.7070312 15.134766 C 8.7070312 15.134766 8.7105442 15.127396 8.7109375 15.126953 C 8.7183961 15.135311 8.78125 15.208984 8.78125 15.208984 C 8.78125 15.208984 8.7847967 15.203529 8.7851562 15.203125 C 8.7926235 15.211493 8.8554688 15.285156 8.8554688 15.285156 C 8.8554688 15.285156 8.8607594 15.277985 8.8613281 15.277344 C 8.8686661 15.285566 8.9296875 15.359375 8.9296875 15.359375 C 8.9296875 15.359375 8.9350349 15.352138 8.9355469 15.351562 C 8.9430982 15.360026 9.0058594 15.433594 9.0058594 15.433594 C 9.0058594 15.433594 9.0112533 15.426304 9.0117188 15.425781 C 9.0191392 15.434097 9.0800781 15.507812 9.0800781 15.507812 C 9.0800781 15.507812 9.0855204 15.500468 9.0859375 15.5 C 9.0933959 15.508359 9.1542969 15.582031 9.1542969 15.582031 C 9.1542969 15.582031 9.158005 15.576393 9.1582031 15.576172 C 9.1658494 15.584743 9.2285156 15.658203 9.2285156 15.658203 C 9.2285156 15.658203 9.2340283 15.650778 9.234375 15.650391 C 9.2419145 15.658842 9.3027344 15.732422 9.3027344 15.732422 C 9.3027344 15.732422 9.3082789 15.724961 9.3085938 15.724609 C 9.3163281 15.733281 9.3789062 15.806641 9.3789062 15.806641 C 9.3789062 15.806641 9.3844653 15.799164 9.3847656 15.798828 C 9.3923922 15.807378 9.453125 15.880859 9.453125 15.880859 C 9.453125 15.880859 9.4587007 15.873364 9.4589844 15.873047 C 9.4666511 15.881642 9.5273438 15.955078 9.5273438 15.955078 C 9.5273438 15.955078 9.5311117 15.949373 9.53125 15.949219 C 9.53911 15.958033 9.6015625 16.03125 9.6015625 16.03125 C 9.6015625 16.03125 9.6071759 16.023712 9.6074219 16.023438 C 9.6151743 16.03213 9.6757812 16.105469 9.6757812 16.105469 C 9.6757812 16.105469 9.6814083 16.097915 9.6816406 16.097656 C 9.6895937 16.106576 9.7519531 16.179688 9.7519531 16.179688 C 9.7519531 16.179688 9.7575882 16.172125 9.7578125 16.171875 C 9.7656257 16.180637 9.8261719 16.253906 9.8261719 16.253906 C 9.8261719 16.253906 9.8318207 16.246328 9.8320312 16.246094 C 9.839891 16.254909 9.9003906 16.328125 9.9003906 16.328125 C 9.9003906 16.328125 9.9041917 16.322383 9.9042969 16.322266 C 9.912383 16.331337 9.9746094 16.404297 9.9746094 16.404297 C 9.9746094 16.404297 9.9802778 16.396697 9.9804688 16.396484 C 9.9884187 16.405402 10.048828 16.478516 10.048828 16.478516 C 10.048828 16.478516 10.054503 16.470908 10.054688 16.470703 C 10.062872 16.479886 10.125 16.552734 10.125 16.552734 C 10.125 16.552734 10.130683 16.545118 10.130859 16.544922 C 10.138873 16.553912 10.199219 16.626953 10.199219 16.626953 C 10.199219 16.626953 10.203037 16.621192 10.203125 16.621094 C 10.21137 16.630346 10.273438 16.703125 10.273438 16.703125 C 10.273438 16.703125 10.279134 16.695494 10.279297 16.695312 C 10.287404 16.704409 10.347656 16.777344 10.347656 16.777344 C 10.347656 16.777344 10.35336 16.769705 10.353516 16.769531 C 10.361863 16.7789 10.423828 16.851562 10.423828 16.851562 C 10.423828 16.851562 10.429535 16.843919 10.429688 16.84375 C 10.437891 16.852956 10.498047 16.925781 10.498047 16.925781 C 10.498047 16.925781 10.503759 16.918132 10.503906 16.917969 C 10.512161 16.927233 10.572266 17 10.572266 17 C 10.572266 17 10.576098 16.994223 10.576172 16.994141 C 10.584666 17.003677 10.646484 17.076172 10.646484 17.076172 C 10.646484 17.076172 10.652208 17.068511 10.652344 17.068359 C 10.660698 17.077737 10.720703 17.150391 10.720703 17.150391 C 10.720703 17.150391 10.72643 17.142725 10.726562 17.142578 C 10.735166 17.152238 10.796875 17.224609 10.796875 17.224609 C 10.796875 17.224609 10.802605 17.21694 10.802734 17.216797 C 10.811159 17.226255 10.871094 17.298828 10.871094 17.298828 C 10.871094 17.298828 10.876828 17.291155 10.876953 17.291016 C 10.885464 17.300572 10.945312 17.373047 10.945312 17.373047 C 10.945312 17.373047 10.949156 17.367257 10.949219 17.367188 C 10.957945 17.376988 11.019531 17.449219 11.019531 17.449219 C 11.019531 17.449219 11.025273 17.441537 11.025391 17.441406 C 11.034007 17.451083 11.09375 17.523438 11.09375 17.523438 C 11.09375 17.523438 11.099494 17.515753 11.099609 17.515625 C 11.108411 17.525512 11.169922 17.597656 11.169922 17.597656 C 11.169922 17.597656 11.175669 17.589968 11.175781 17.589844 C 11.184473 17.599606 11.244141 17.671875 11.244141 17.671875 C 11.244141 17.671875 11.24989 17.664184 11.25 17.664062 C 11.258749 17.67389 11.318359 17.746094 11.318359 17.746094 C 11.318359 17.746094 11.32221 17.740296 11.322266 17.740234 C 11.331272 17.750354 11.392578 17.822266 11.392578 17.822266 C 11.392578 17.822266 11.398334 17.814568 11.398438 17.814453 C 11.407298 17.824409 11.466797 17.896484 11.466797 17.896484 C 11.466797 17.896484 11.472555 17.888784 11.472656 17.888672 C 11.481743 17.898883 11.542969 17.970703 11.542969 17.970703 C 11.542969 17.970703 11.548729 17.963001 11.548828 17.962891 C 11.557804 17.972977 11.617188 18.044922 11.617188 18.044922 C 11.617188 18.044922 11.621043 18.039118 11.621094 18.039062 C 11.630298 18.049408 11.691406 18.121094 11.691406 18.121094 C 11.691406 18.121094 11.697171 18.113386 11.697266 18.113281 C 11.706359 18.123502 11.765625 18.195312 11.765625 18.195312 C 11.765625 18.195312 11.771392 18.187602 11.771484 18.1875 C 11.780598 18.197744 11.839844 18.269531 11.839844 18.269531 C 11.839844 18.269531 11.845612 18.261819 11.845703 18.261719 C 11.855093 18.272277 11.916016 18.34375 11.916016 18.34375 C 11.916016 18.34375 11.921786 18.336036 11.921875 18.335938 C 11.931116 18.346327 11.990234 18.417969 11.990234 18.417969 C 11.990234 18.417969 11.994095 18.41216 11.994141 18.412109 C 12.003656 18.422811 12.064453 18.494141 12.064453 18.494141 C 12.064453 18.494141 12.070227 18.486423 12.070312 18.486328 C 12.079633 18.49681 12.138672 18.568359 12.138672 18.568359 C 12.138672 18.568359 12.144448 18.56064 12.144531 18.560547 C 12.154136 18.571351 12.214844 18.642578 12.214844 18.642578 C 12.214844 18.642578 12.220621 18.634857 12.220703 18.634766 C 12.230158 18.6454 12.289062 18.716797 12.289062 18.716797 C 12.289062 18.716797 12.294841 18.709074 12.294922 18.708984 C 12.304485 18.719742 12.363281 18.791016 12.363281 18.791016 C 12.363281 18.791016 12.367146 18.785202 12.367188 18.785156 C 12.376995 18.796192 12.4375 18.867188 12.4375 18.867188 C 12.4375 18.867188 12.443282 18.859461 12.443359 18.859375 C 12.453008 18.870231 12.511719 18.941406 12.511719 18.941406 C 12.511719 18.941406 12.517502 18.933678 12.517578 18.933594 C 12.527523 18.944787 12.587891 19.015625 12.587891 19.015625 C 12.587891 19.015625 12.593675 19.007896 12.59375 19.007812 C 12.603542 19.018832 12.662109 19.089844 12.662109 19.089844 C 12.662109 19.089844 12.667895 19.082113 12.667969 19.082031 C 12.677877 19.093184 12.736328 19.164062 12.736328 19.164062 C 12.736328 19.164062 12.740197 19.158245 12.740234 19.158203 C 12.750344 19.169585 12.810547 19.240234 12.810547 19.240234 C 12.810547 19.240234 12.816335 19.232501 12.816406 19.232422 C 12.826406 19.24368 12.884766 19.314453 12.884766 19.314453 C 12.884766 19.314453 12.890555 19.306718 12.890625 19.306641 C 12.900889 19.3182 12.960938 19.388672 12.960938 19.388672 C 12.960938 19.388672 12.966728 19.380936 12.966797 19.380859 C 12.97695 19.392294 13.035156 19.462891 13.035156 19.462891 C 13.035156 19.462891 13.040948 19.455154 13.041016 19.455078 C 13.051248 19.466603 13.109375 19.537109 13.109375 19.537109 C 13.109375 19.537109 13.113247 19.531288 13.113281 19.53125 C 13.123767 19.543064 13.183594 19.613281 13.183594 19.613281 C 13.183594 19.613281 13.189388 19.605541 13.189453 19.605469 C 13.199783 19.617106 13.257812 19.6875 13.257812 19.6875 C 13.257812 19.6875 13.263607 19.679759 13.263672 19.679688 C 13.274325 19.691693 13.333984 19.761719 13.333984 19.761719 C 13.333984 19.761719 13.339798 19.75591 13.339844 19.755859 C 13.350055 19.767363 13.408203 19.835938 13.408203 19.835938 C 13.408203 19.835938 13.412077 19.830114 13.412109 19.830078 C 13.422864 19.842202 13.482422 19.912109 13.482422 19.912109 C 13.482422 19.912109 13.488219 19.904365 13.488281 19.904297 C 13.498878 19.916242 13.556641 19.986328 13.556641 19.986328 C 13.556641 19.986328 13.562439 19.978583 13.5625 19.978516 C 13.573234 19.990617 13.630859 20.060547 13.630859 20.060547 C 13.630859 20.060547 13.636549 20.052923 13.636719 20.052734 C 13.647791 20.065221 13.707031 20.134766 13.707031 20.134766 C 13.707031 20.134766 13.712769 20.129041 13.712891 20.128906 C 13.723508 20.140876 13.78125 20.208984 13.78125 20.208984 C 13.78125 20.208984 13.786989 20.203258 13.787109 20.203125 C 13.79804 20.215453 13.855469 20.285156 13.855469 20.285156 C 13.855469 20.285156 13.861164 20.277526 13.861328 20.277344 C 13.87235 20.289777 13.929688 20.359375 13.929688 20.359375 C 13.929688 20.359375 13.935386 20.351741 13.935547 20.351562 C 13.946919 20.364395 14.005859 20.433594 14.005859 20.433594 C 14.005859 20.433594 14.011603 20.427863 14.011719 20.427734 C 14.022626 20.440039 14.080078 20.507812 14.080078 20.507812 C 14.080078 20.507812 14.08578 20.500175 14.085938 20.5 C 14.097233 20.512749 14.154297 20.582031 14.154297 20.582031 C 14.154297 20.582031 14.160044 20.576297 14.160156 20.576172 C 14.171483 20.588956 14.228516 20.658203 14.228516 20.658203 C 14.228516 20.658203 14.234222 20.650561 14.234375 20.650391 C 14.245858 20.663354 14.302734 20.732422 14.302734 20.732422 C 14.302734 20.732422 14.308443 20.724777 14.308594 20.724609 C 14.320385 20.737926 14.378906 20.806641 14.378906 20.806641 C 14.378906 20.806641 14.384658 20.800901 14.384766 20.800781 C 14.396137 20.813621 14.453125 20.880859 14.453125 20.880859 C 14.453125 20.880859 14.458878 20.875119 14.458984 20.875 C 14.470388 20.887877 14.527344 20.955078 14.527344 20.955078 C 14.527344 20.955078 14.533098 20.949336 14.533203 20.949219 C 14.545017 20.962565 14.601562 21.03125 14.601562 21.03125 C 14.601562 21.03125 14.607278 21.023597 14.607422 21.023438 C 14.619405 21.036979 14.675781 21.105469 14.675781 21.105469 C 14.675781 21.105469 14.681498 21.097815 14.681641 21.097656 C 14.693947 21.111568 14.751953 21.179688 14.751953 21.179688 C 14.751953 21.179688 14.757671 21.172032 14.757812 21.171875 C 14.769941 21.185585 14.826172 21.253906 14.826172 21.253906 C 14.826172 21.253906 14.83193 21.248159 14.832031 21.248047 C 14.843943 21.26151 14.900391 21.328125 14.900391 21.328125 C 14.900391 21.328125 14.90615 21.322376 14.90625 21.322266 C 14.918594 21.336224 14.974609 21.404297 14.974609 21.404297 C 14.974609 21.404297 14.980371 21.398546 14.980469 21.398438 C 14.992594 21.412148 15.048828 21.478516 15.048828 21.478516 C 15.048828 21.478516 15.054553 21.470852 15.054688 21.470703 C 15.067556 21.485266 15.125 21.552734 15.125 21.552734 C 15.125 21.552734 15.130763 21.546982 15.130859 21.546875 C 15.143138 21.560763 15.199219 21.626953 15.199219 21.626953 C 15.199219 21.626953 15.204983 21.621199 15.205078 21.621094 C 15.217804 21.635496 15.273438 21.703125 15.273438 21.703125 C 15.273438 21.703125 15.279203 21.69737 15.279297 21.697266 C 15.291802 21.711417 15.347656 21.777344 15.347656 21.777344 C 15.347656 21.777344 15.353387 21.769674 15.353516 21.769531 C 15.36679 21.784566 15.423828 21.851562 15.423828 21.851562 C 15.423828 21.851562 15.429596 21.845805 15.429688 21.845703 C 15.442355 21.860043 15.498047 21.925781 15.498047 21.925781 C 15.498047 21.925781 15.503815 21.920023 15.503906 21.919922 C 15.516775 21.934495 15.572266 22 15.572266 22 C 15.572266 22 15.578035 21.99424 15.578125 21.994141 C 15.59139 22.009169 15.646484 22.076172 15.646484 22.076172 C 15.646484 22.076172 15.65222 22.068497 15.652344 22.068359 C 15.665824 22.083637 15.720703 22.150391 15.720703 22.150391 C 15.720703 22.150391 15.72644 22.142714 15.726562 22.142578 C 15.740494 22.158376 15.796875 22.224609 15.796875 22.224609 C 15.796875 22.224609 15.802647 22.218847 15.802734 22.21875 C 15.816032 22.233821 15.871094 22.298828 15.871094 22.298828 C 15.871094 22.298828 15.876866 22.293065 15.876953 22.292969 C 15.890472 22.308297 15.945312 22.373047 15.945312 22.373047 C 15.945312 22.373047 15.951086 22.367283 15.951172 22.367188 C 15.965109 22.382998 16.019531 22.449219 16.019531 22.449219 C 16.019531 22.449219 16.025273 22.441537 16.025391 22.441406 C 16.039565 22.457492 16.09375 22.523438 16.09375 22.523438 C 16.09375 22.523438 16.099492 22.515755 16.099609 22.515625 C 16.114065 22.532036 16.169922 22.597656 16.169922 22.597656 C 16.169922 22.597656 16.175698 22.591889 16.175781 22.591797 C 16.189774 22.607678 16.244141 22.671875 16.244141 22.671875 C 16.244141 22.671875 16.249917 22.666108 16.25 22.666016 C 16.264147 22.682077 16.318359 22.746094 16.318359 22.746094 C 16.318359 22.746094 16.324137 22.740325 16.324219 22.740234 C 16.338899 22.756912 16.392578 22.822266 16.392578 22.822266 C 16.392578 22.822266 16.398357 22.816496 16.398438 22.816406 C 16.412886 22.83282 16.466797 22.896484 16.466797 22.896484 C 16.466797 22.896484 16.472545 22.888795 16.472656 22.888672 C 16.487893 22.905996 16.542969 22.970703 16.542969 22.970703 C 16.542969 22.970703 16.548748 22.964932 16.548828 22.964844 C 16.563493 22.981512 16.617188 23.044922 16.617188 23.044922 C 16.617188 23.044922 16.622968 23.03915 16.623047 23.039062 C 16.638269 23.056376 16.691406 23.121094 16.691406 23.121094 C 16.691406 23.121094 16.697157 23.113401 16.697266 23.113281 C 16.712772 23.130926 16.765625 23.195312 16.765625 23.195312 C 16.765625 23.195312 16.771377 23.18762 16.771484 23.1875 C 16.787047 23.205213 16.839844 23.269531 16.839844 23.269531 C 16.839844 23.269531 16.845597 23.261836 16.845703 23.261719 C 16.861809 23.280063 16.916016 23.34375 16.916016 23.34375 C 16.916016 23.34375 16.921799 23.337975 16.921875 23.337891 C 16.93739 23.355554 16.990234 23.417969 16.990234 23.417969 C 16.990234 23.417969 16.996018 23.412193 16.996094 23.412109 C 17.012206 23.430468 17.064453 23.494141 17.064453 23.494141 C 17.064453 23.494141 17.070238 23.488364 17.070312 23.488281 C 17.08619 23.506372 17.138672 23.568359 17.138672 23.568359 C 17.138672 23.568359 17.144428 23.560661 17.144531 23.560547 C 17.161276 23.579645 17.214844 23.642578 17.214844 23.642578 C 17.214844 23.642578 17.22063 23.6368 17.220703 23.636719 C 17.236842 23.655119 17.289062 23.716797 17.289062 23.716797 C 17.289062 23.716797 17.294849 23.711018 17.294922 23.710938 C 17.311389 23.729723 17.363281 23.791016 17.363281 23.791016 C 17.363281 23.791016 17.367135 23.785214 17.367188 23.785156 C 17.384554 23.80499 17.4375 23.867188 17.4375 23.867188 C 17.4375 23.867188 17.44326 23.859485 17.443359 23.859375 C 17.460539 23.878995 17.511719 23.941406 17.511719 23.941406 C 17.511719 23.941406 17.51748 23.933703 17.517578 23.933594 C 17.53524 23.953779 17.587891 24.015625 17.587891 24.015625 C 17.587891 24.015625 17.593679 24.009844 17.59375 24.009766 C 17.610922 24.029386 17.662109 24.089844 17.662109 24.089844 C 17.662109 24.089844 17.667899 24.084062 17.667969 24.083984 C 17.685373 24.10388 17.736328 24.164062 17.736328 24.164062 C 17.736328 24.164062 17.742118 24.15828 17.742188 24.158203 C 17.760283 24.178908 17.810547 24.240234 17.810547 24.240234 C 17.810547 24.240234 17.816311 24.232528 17.816406 24.232422 C 17.834725 24.253393 17.884766 24.314453 17.884766 24.314453 C 17.884766 24.314453 17.89053 24.306746 17.890625 24.306641 C 17.909463 24.328224 17.960938 24.388672 17.960938 24.388672 C 17.960938 24.388672 17.966729 24.382888 17.966797 24.382812 C 17.985142 24.403825 18.035156 24.462891 18.035156 24.462891 C 18.035156 24.462891 18.042815 24.453296 18.042969 24.453125 C 18.049952 24.461013 18.109375 24.537109 18.109375 24.537109 C 18.109375 24.537109 18.117035 24.527513 18.117188 24.527344 C 18.124426 24.535525 18.183594 24.613281 18.183594 24.613281 C 18.183594 24.613281 18.193176 24.603719 18.193359 24.603516 C 18.200368 24.611435 18.257812 24.6875 18.257812 24.6875 C 18.257812 24.6875 18.267356 24.676028 18.267578 24.675781 C 18.275034 24.684214 18.333984 24.761719 18.333984 24.761719 C 18.333984 24.761719 18.343568 24.752155 18.34375 24.751953 C 18.350949 24.760093 18.408203 24.835938 18.408203 24.835938 C 18.408203 24.835938 18.415867 24.826337 18.416016 24.826172 C 18.423671 24.834835 18.482422 24.912109 18.482422 24.912109 C 18.482422 24.912109 18.49201 24.902541 18.492188 24.902344 C 18.499607 24.910739 18.556641 24.986328 18.556641 24.986328 C 18.556641 24.986328 18.56623 24.976758 18.566406 24.976562 C 18.573944 24.985095 18.630859 25.060547 18.630859 25.060547 C 18.630859 25.060547 18.64041 25.049067 18.640625 25.048828 C 18.648622 25.057889 18.707031 25.134766 18.707031 25.134766 C 18.707031 25.134766 18.7147 25.12516 18.714844 25.125 C 18.722772 25.133984 18.78125 25.208984 18.78125 25.208984 C 18.78125 25.208984 18.788919 25.199378 18.789062 25.199219 C 18.797319 25.208581 18.855469 25.285156 18.855469 25.285156 C 18.855469 25.285156 18.865063 25.27558 18.865234 25.275391 C 18.87322 25.284443 18.929688 25.359375 18.929688 25.359375 C 18.929688 25.359375 18.939244 25.347888 18.939453 25.347656 C 18.947961 25.357311 19.005859 25.433594 19.005859 25.433594 C 19.005859 25.433594 19.013531 25.423984 19.013672 25.423828 C 19.022117 25.433414 19.080078 25.507812 19.080078 25.507812 C 19.080078 25.507812 19.087752 25.498201 19.087891 25.498047 C 19.096486 25.507808 19.154297 25.582031 19.154297 25.582031 C 19.154297 25.582031 19.161971 25.572419 19.162109 25.572266 C 19.171061 25.582439 19.228516 25.658203 19.228516 25.658203 C 19.228516 25.658203 19.238115 25.648621 19.238281 25.648438 C 19.24696 25.6583 19.302734 25.732422 19.302734 25.732422 C 19.302734 25.732422 19.312298 25.720927 19.3125 25.720703 C 19.321785 25.731268 19.378906 25.806641 19.378906 25.806641 C 19.378906 25.806641 19.388508 25.797057 19.388672 25.796875 C 19.397643 25.80708 19.453125 25.880859 19.453125 25.880859 C 19.453125 25.880859 19.460802 25.871244 19.460938 25.871094 C 19.470282 25.881733 19.527344 25.955078 19.527344 25.955078 C 19.527344 25.955078 19.535023 25.945461 19.535156 25.945312 C 19.544939 25.956463 19.601562 26.03125 19.601562 26.03125 C 19.601562 26.03125 19.611167 26.021663 19.611328 26.021484 C 19.620789 26.032265 19.675781 26.105469 19.675781 26.105469 C 19.675781 26.105469 19.685351 26.093967 19.685547 26.09375 C 19.695684 26.105318 19.751953 26.179688 19.751953 26.179688 C 19.751953 26.179688 19.759635 26.170067 19.759766 26.169922 C 19.769834 26.181415 19.826172 26.253906 19.826172 26.253906 C 19.826172 26.253906 19.833854 26.244285 19.833984 26.244141 C 19.844304 26.25593 19.900391 26.328125 19.900391 26.328125 C 19.900391 26.328125 19.908074 26.318502 19.908203 26.318359 C 19.918934 26.330633 19.974609 26.404297 19.974609 26.404297 C 19.974609 26.404297 19.98422 26.394703 19.984375 26.394531 C 19.994862 26.406525 20.048828 26.478516 20.048828 26.478516 C 20.048828 26.478516 20.058404 26.467007 20.058594 26.466797 C 20.069807 26.479643 20.125 26.552734 20.125 26.552734 C 20.125 26.552734 20.134612 26.543139 20.134766 26.542969 C 20.145681 26.555473 20.199219 26.626953 20.199219 26.626953 C 20.199219 26.626953 20.206905 26.617327 20.207031 26.617188 C 20.218696 26.630574 20.273438 26.703125 20.273438 26.703125 C 20.273438 26.703125 20.283051 26.693528 20.283203 26.693359 C 20.294583 26.70642 20.347656 26.777344 20.347656 26.777344 C 20.347656 26.777344 20.357238 26.765829 20.357422 26.765625 C 20.369657 26.779696 20.423828 26.851562 20.423828 26.851562 C 20.423828 26.851562 20.431517 26.841935 20.431641 26.841797 C 20.44378 26.855764 20.498047 26.925781 20.498047 26.925781 C 20.498047 26.925781 20.507663 26.916181 20.507812 26.916016 C 20.520057 26.930114 20.572266 27 20.572266 27 C 20.572266 27 20.579956 26.99037 20.580078 26.990234 C 20.593185 27.00536 20.646484 27.076172 20.646484 27.076172 C 20.646484 27.076172 20.656103 27.066569 20.65625 27.066406 C 20.669062 27.081194 20.720703 27.150391 20.720703 27.150391 C 20.720703 27.150391 20.73029 27.13887 20.730469 27.138672 C 20.744212 27.154574 20.796875 27.224609 20.796875 27.224609 C 20.796875 27.224609 20.804567 27.214977 20.804688 27.214844 C 20.818514 27.230857 20.871094 27.298828 20.871094 27.298828 C 20.871094 27.298828 20.880715 27.289223 20.880859 27.289062 C 20.894702 27.305108 20.945312 27.373047 20.945312 27.373047 C 20.945312 27.373047 20.953006 27.363413 20.953125 27.363281 C 20.968048 27.380632 21.019531 27.449219 21.019531 27.449219 C 21.019531 27.449219 21.029155 27.439611 21.029297 27.439453 C 21.043966 27.456517 21.09375 27.523438 21.09375 27.523438 C 21.09375 27.523438 21.103341 27.511912 21.103516 27.511719 C 21.119288 27.530126 21.169922 27.597656 21.169922 27.597656 C 21.169922 27.597656 21.179546 27.588047 21.179688 27.587891 C 21.195195 27.606 21.244141 27.671875 21.244141 27.671875 C 21.244141 27.671875 21.251837 27.662238 21.251953 27.662109 C 21.26831 27.681269 21.318359 27.746094 21.318359 27.746094 C 21.318359 27.746094 21.326056 27.736456 21.326172 27.736328 C 21.343504 27.756701 21.392578 27.822266 21.392578 27.822266 C 21.392578 27.822266 21.402205 27.812653 21.402344 27.8125 C 21.419333 27.832485 21.466797 27.896484 21.466797 27.896484 C 21.466797 27.896484 21.476393 27.884953 21.476562 27.884766 C 21.494999 27.906559 21.542969 27.970703 21.542969 27.970703 C 21.542969 27.970703 21.550667 27.961064 21.550781 27.960938 C 21.569421 27.983022 21.617188 28.044922 21.617188 28.044922 C 21.617188 28.044922 21.624887 28.035281 21.625 28.035156 C 21.644818 28.058752 21.691406 28.121094 21.691406 28.121094 C 21.691406 28.121094 21.701036 28.111479 21.701172 28.111328 C 21.72068 28.13459 21.765625 28.195312 21.765625 28.195312 C 21.765625 28.195312 21.775256 28.185696 21.775391 28.185547 C 21.795701 28.209877 21.839844 28.269531 21.839844 28.269531 C 21.839844 28.269531 21.849445 28.257994 21.849609 28.257812 C 21.871746 28.284538 21.916016 28.34375 21.916016 28.34375 C 21.916016 28.34375 21.923718 28.334107 21.923828 28.333984 C 21.946126 28.361008 21.990234 28.417969 21.990234 28.417969 C 21.990234 28.417969 21.997937 28.408324 21.998047 28.408203 C 22.021855 28.4373 22.064453 28.494141 22.064453 28.494141 C 22.064453 28.494141 22.074087 28.484521 22.074219 28.484375 C 22.098076 28.513668 22.138672 28.568359 22.138672 28.568359 C 22.138672 28.568359 22.148277 28.556819 22.148438 28.556641 C 22.174186 28.588631 22.214844 28.642578 22.214844 28.642578 C 22.214844 28.642578 22.222548 28.632932 22.222656 28.632812 C 22.249014 28.665849 22.289062 28.716797 22.289062 28.716797 C 22.289062 28.716797 22.296768 28.70715 22.296875 28.707031 C 22.324811 28.742556 22.363281 28.791016 22.363281 28.791016 C 22.363281 28.791016 22.370987 28.781369 22.371094 28.78125 C 22.400618 28.819466 22.4375 28.867188 22.4375 28.867188 C 22.4375 28.867188 22.447108 28.855643 22.447266 28.855469 C 22.47757 28.895401 22.511719 28.941406 22.511719 28.941406 C 22.511719 28.941406 22.521327 28.929862 22.521484 28.929688 C 22.553199 28.972655 22.587891 29.015625 22.587891 29.015625 C 22.587891 29.015625 22.595598 29.005976 22.595703 29.005859 C 22.627931 29.050924 22.662109 29.089844 22.662109 29.089844 C 22.662109 29.089844 22.671748 29.080219 22.671875 29.080078 C 22.704278 29.127473 22.736328 29.164062 22.736328 29.164062 C 22.736328 29.164062 22.745939 29.152516 22.746094 29.152344 C 22.777489 29.201034 22.810547 29.240234 22.810547 29.240234 C 22.810547 29.240234 22.823894 29.223017 22.824219 29.222656 C 22.853312 29.27208 22.884766 29.314453 22.884766 29.314453 C 22.884766 29.314453 22.905529 29.289864 22.90625 29.289062 C 22.93092 29.333207 22.960938 29.388672 22.960938 29.388672 C 22.960938 29.388672 22.981702 29.364081 22.982422 29.363281 C 22.999396 29.408132 23.035156 29.462891 23.035156 29.462891 C 23.035156 29.462891 23.054084 29.440123 23.054688 29.439453 C 23.054823 29.439603 23.058487 29.445194 23.058594 29.445312 C 23.058994 29.483073 23.109375 29.537109 23.109375 29.537109 C 23.109375 29.537109 23.124643 29.519928 23.125 29.519531 C 23.126536 29.521243 23.149777 29.5501 23.150391 29.550781 C 23.150791 29.576101 23.183594 29.613281 23.183594 29.613281 C 23.183594 29.613281 23.195104 29.599841 23.195312 29.599609 C 23.199464 29.604253 23.241067 29.655007 23.242188 29.65625 C 23.242587 29.66913 23.257812 29.6875 23.257812 29.6875 C 23.257812 29.6875 23.263611 29.679755 23.263672 29.679688 C 23.271617 29.688606 23.330402 29.75991 23.332031 29.761719 L 23.333984 29.761719 C 23.333984 29.761719 24.304296 28.674625 25.199219 27.289062 L 25.220703 27.289062 L 25.220703 27.363281 L 25.294922 27.363281 L 25.294922 27.4375 L 25.369141 27.4375 L 25.369141 27.511719 L 25.443359 27.511719 L 25.443359 27.587891 L 25.519531 27.587891 L 25.519531 27.662109 L 25.59375 27.662109 L 25.59375 27.736328 L 25.667969 27.736328 L 25.667969 27.810547 L 25.742188 27.810547 L 25.742188 27.884766 L 25.816406 27.884766 L 25.816406 27.960938 L 25.892578 27.960938 L 25.892578 28.035156 L 25.966797 28.035156 L 25.966797 28.109375 L 26.023438 28.109375 L 26.041016 28.109375 L 26.041016 28.183594 L 26.078125 28.183594 L 26.115234 28.183594 L 26.115234 28.257812 L 26.134766 28.257812 L 26.191406 28.257812 L 26.191406 28.333984 L 30 28.333984 L 30 27.380859 L 29.925781 27.380859 L 29.925781 27.306641 L 29.90625 27.306641 L 29.851562 27.306641 L 29.851562 27.232422 L 29.8125 27.232422 L 29.775391 27.232422 L 29.775391 27.15625 L 29.71875 27.15625 L 29.701172 27.15625 L 29.701172 27.082031 L 29.626953 27.082031 L 29.626953 27.007812 L 29.552734 27.007812 L 29.552734 26.933594 L 29.478516 26.933594 L 29.478516 26.859375 L 29.402344 26.859375 L 29.402344 26.783203 L 29.328125 26.783203 L 29.328125 26.708984 L 29.253906 26.708984 L 29.253906 26.634766 L 29.179688 26.634766 L 29.179688 26.560547 L 29.103516 26.560547 L 29.103516 26.486328 L 29.029297 26.486328 L 29.029297 26.410156 L 28.955078 26.410156 L 28.955078 26.335938 L 28.880859 26.335938 L 28.880859 26.261719 L 28.806641 26.261719 L 28.806641 26.1875 L 28.730469 26.1875 L 28.730469 26.111328 L 28.65625 26.111328 L 28.65625 26.037109 L 28.582031 26.037109 L 28.582031 25.962891 L 28.507812 25.962891 L 28.507812 25.888672 L 28.433594 25.888672 L 28.433594 25.814453 L 28.357422 25.814453 L 28.357422 25.738281 L 28.283203 25.738281 L 28.283203 25.664062 L 28.208984 25.664062 L 28.208984 25.589844 L 28.134766 25.589844 L 28.134766 25.515625 L 28.060547 25.515625 L 28.060547 25.441406 L 27.984375 25.441406 L 27.984375 25.365234 L 27.910156 25.365234 L 27.910156 25.291016 L 27.835938 25.291016 L 27.835938 25.216797 L 27.761719 25.216797 L 27.761719 25.142578 L 27.6875 25.142578 L 27.6875 25.068359 L 27.611328 25.068359 L 27.611328 24.992188 L 27.537109 24.992188 L 27.537109 24.917969 L 27.462891 24.917969 L 27.462891 24.84375 L 27.388672 24.84375 L 27.388672 24.769531 L 27.3125 24.769531 L 27.3125 24.695312 L 27.238281 24.695312 L 27.238281 24.619141 L 27.164062 24.619141 L 27.164062 24.544922 L 27.089844 24.544922 L 27.089844 24.470703 L 27.015625 24.470703 L 27.015625 24.396484 L 26.939453 24.396484 L 26.939453 24.320312 L 26.865234 24.320312 L 26.865234 24.246094 L 26.791016 24.246094 L 26.791016 24.171875 L 26.716797 24.171875 L 26.716797 24.097656 L 26.642578 24.097656 L 26.642578 24.023438 L 26.630859 24.023438 C 26.652345 23.870143 26.665968 23.718404 26.666016 23.572266 C 26.666016 22.625517 26.267785 21.776349 25.634766 21.169922 C 25.612978 21.147824 25.588801 21.128904 25.566406 21.107422 C 25.54301 21.083689 25.516288 21.064034 25.492188 21.041016 C 25.469725 21.018305 25.444987 20.998613 25.421875 20.976562 C 25.399727 20.954188 25.374345 20.935792 25.351562 20.914062 C 25.332689 20.894995 25.310353 20.879926 25.291016 20.861328 C 25.265713 20.835544 25.239037 20.812038 25.212891 20.787109 C 25.190782 20.764772 25.165328 20.746295 25.142578 20.724609 C 25.122369 20.70419 25.098873 20.687841 25.078125 20.667969 C 25.056374 20.645893 25.032148 20.626905 25.009766 20.605469 C 24.985693 20.580993 24.958445 20.560796 24.933594 20.537109 C 24.911154 20.51441 24.886397 20.494669 24.863281 20.472656 C 24.843092 20.452252 24.819567 20.435862 24.798828 20.416016 C 24.775163 20.391989 24.749037 20.370908 24.724609 20.347656 C 24.703795 20.326618 24.679607 20.309501 24.658203 20.289062 C 24.634782 20.265281 24.60816 20.245671 24.583984 20.222656 C 24.563428 20.201856 24.54067 20.184271 24.519531 20.164062 C 24.495834 20.139996 24.469791 20.118976 24.445312 20.095703 C 24.423221 20.073367 24.397771 20.054848 24.375 20.033203 C 24.355803 20.013793 24.334166 19.997402 24.314453 19.978516 C 24.289811 19.953391 24.261833 19.932452 24.236328 19.908203 C 24.21385 19.88545 24.189209 19.865775 24.166016 19.84375 C 24.144188 19.821675 24.118209 19.804587 24.095703 19.783203 C 24.074883 19.762125 24.052691 19.743103 24.03125 19.722656 C 24.009221 19.700291 23.983669 19.681809 23.960938 19.660156 C 23.937243 19.636076 23.91123 19.615046 23.886719 19.591797 C 23.866546 19.571391 23.843031 19.55496 23.822266 19.535156 C 23.798583 19.511081 23.772556 19.490032 23.748047 19.466797 C 23.726246 19.444739 23.700236 19.427595 23.677734 19.40625 C 23.656608 19.384852 23.633117 19.366428 23.611328 19.345703 C 23.589538 19.323546 23.565471 19.304637 23.542969 19.283203 C 23.5193 19.259133 23.493263 19.238055 23.46875 19.214844 C 23.44662 19.192447 23.421305 19.173988 23.398438 19.152344 C 23.37827 19.131933 23.354769 19.115486 23.333984 19.095703 C 23.311932 19.073269 23.288424 19.052926 23.265625 19.03125 C 23.241693 19.00688 23.214271 18.98636 23.189453 18.962891 C 23.167336 18.940499 23.142013 18.922012 23.119141 18.900391 C 23.098985 18.879985 23.075475 18.863513 23.054688 18.84375 C 23.031029 18.819672 23.005007 18.798573 22.980469 18.775391 C 22.960036 18.7547 22.937105 18.736818 22.916016 18.716797 C 22.893958 18.694323 22.868537 18.675982 22.845703 18.654297 C 22.822367 18.630538 22.795693 18.610761 22.771484 18.587891 C 22.749079 18.565172 22.724383 18.545335 22.701172 18.523438 C 22.679114 18.501094 22.653702 18.482481 22.630859 18.460938 C 22.611989 18.441822 22.589762 18.42673 22.570312 18.408203 C 22.545325 18.382613 22.518208 18.360478 22.492188 18.335938 C 22.470043 18.313475 22.444827 18.295077 22.421875 18.273438 C 22.399437 18.250675 22.374834 18.230896 22.351562 18.208984 C 22.331416 18.188569 22.307932 18.17207 22.287109 18.152344 C 22.26473 18.129535 22.240022 18.109838 22.216797 18.087891 C 22.193433 18.064079 22.166869 18.044351 22.142578 18.021484 C 22.122058 18.000659 22.099363 17.982985 22.078125 17.962891 C 22.054774 17.939083 22.028196 17.919335 22.003906 17.896484 C 21.981514 17.873753 21.956851 17.853879 21.933594 17.832031 C 21.912844 17.810992 21.888684 17.793715 21.867188 17.773438 C 21.845448 17.751266 21.8214 17.732263 21.798828 17.710938 C 21.775495 17.687136 21.748906 17.66735 21.724609 17.644531 C 21.702476 17.622053 21.677299 17.603622 21.654297 17.582031 C 21.63377 17.561183 21.611124 17.543518 21.589844 17.523438 C 21.567544 17.500679 21.542731 17.480826 21.519531 17.458984 C 21.495869 17.434832 21.469994 17.413736 21.445312 17.390625 C 21.423243 17.36823 21.397957 17.349612 21.375 17.328125 C 21.354839 17.307666 21.331455 17.291182 21.310547 17.271484 C 21.288572 17.249044 21.265063 17.228555 21.242188 17.207031 C 21.218527 17.182842 21.190727 17.163742 21.166016 17.140625 C 21.145553 17.119824 21.122813 17.102029 21.101562 17.082031 C 21.07797 17.057929 21.051996 17.036693 21.027344 17.013672 C 21.005323 16.991311 20.979975 16.972588 20.957031 16.951172 C 20.936258 16.930075 20.912227 16.912828 20.890625 16.892578 C 20.868902 16.870374 20.844909 16.851345 20.822266 16.830078 C 20.799283 16.806584 20.774019 16.786108 20.75 16.763672 C 20.727318 16.74057 20.701429 16.721285 20.677734 16.699219 C 20.655691 16.676822 20.630426 16.658131 20.607422 16.636719 C 20.588253 16.617239 20.566777 16.600762 20.546875 16.582031 C 20.522327 16.556786 20.494526 16.535712 20.46875 16.511719 C 20.446325 16.488893 20.421882 16.469046 20.398438 16.447266 C 20.37829 16.426784 20.354962 16.410258 20.333984 16.390625 C 20.310414 16.366497 20.284488 16.345215 20.259766 16.322266 C 20.239046 16.301195 20.21497 16.28383 20.193359 16.263672 C 20.169738 16.239485 20.143938 16.218295 20.119141 16.195312 C 20.099009 16.174836 20.075675 16.158273 20.054688 16.138672 C 20.031373 16.114786 20.004949 16.094958 19.980469 16.072266 C 19.958384 16.049759 19.93329 16.031198 19.910156 16.009766 C 19.890729 15.989965 19.869857 15.972088 19.849609 15.953125 C 19.825149 15.927907 19.797271 15.906676 19.771484 15.882812 C 19.74941 15.860307 19.724321 15.841716 19.701172 15.820312 C 19.678745 15.797442 19.654405 15.777581 19.630859 15.755859 C 19.610739 15.735371 19.587435 15.718777 19.566406 15.699219 C 19.544159 15.676392 19.519471 15.656438 19.496094 15.634766 C 19.47254 15.610593 19.446705 15.589271 19.421875 15.566406 C 19.401751 15.545904 19.378479 15.529311 19.357422 15.509766 C 19.334196 15.485916 19.307694 15.465913 19.283203 15.443359 C 19.260855 15.420545 19.236411 15.400515 19.212891 15.378906 C 19.192521 15.358141 19.16979 15.34007 19.148438 15.320312 C 19.126515 15.297756 19.101209 15.279182 19.078125 15.257812 C 19.054928 15.233969 19.028413 15.213907 19.003906 15.191406 C 18.981582 15.168598 18.957133 15.148511 18.933594 15.126953 C 18.911614 15.104529 18.886448 15.085655 18.863281 15.064453 C 18.844464 15.045253 18.822432 15.030017 18.802734 15.011719 C 18.777899 14.985952 18.751021 14.963606 18.724609 14.939453 C 18.702311 14.916652 18.677855 14.896503 18.654297 14.875 C 18.633914 14.854191 18.611289 14.836123 18.589844 14.816406 C 18.566697 14.792608 18.540166 14.772364 18.515625 14.75 C 18.494933 14.728865 18.471029 14.711391 18.449219 14.691406 C 18.425969 14.667448 18.399689 14.647479 18.375 14.625 C 18.354536 14.60405 18.33213 14.586205 18.310547 14.566406 C 18.287105 14.542229 18.261265 14.520686 18.236328 14.498047 C 18.214381 14.475609 18.189272 14.456631 18.166016 14.435547 C 18.14699 14.416089 18.125493 14.399292 18.105469 14.380859 C 18.08143 14.355867 18.054975 14.333858 18.029297 14.310547 C 18.007031 14.28768 17.980697 14.269469 17.957031 14.248047 C 17.935333 14.225794 17.911712 14.206414 17.888672 14.185547 C 17.868664 14.164991 17.845385 14.148272 17.824219 14.128906 C 17.814605 14.118929 17.806766 14.107357 17.796875 14.097656 C 17.792608 14.093395 17.787522 14.090146 17.783203 14.085938 C 17.760614 14.060941 17.739073 14.035116 17.714844 14.011719 C 17.69546 13.990517 17.678765 13.967317 17.658203 13.947266 C 17.636711 13.923519 17.616694 13.899289 17.59375 13.876953 C 17.570092 13.850894 17.548823 13.823195 17.523438 13.798828 C 17.504931 13.778755 17.488285 13.757347 17.46875 13.738281 C 17.447636 13.715039 17.428714 13.689898 17.40625 13.667969 C 17.38474 13.644311 17.364692 13.619966 17.341797 13.597656 C 17.319306 13.572981 17.299373 13.546655 17.275391 13.523438 C 17.254361 13.500585 17.235195 13.47668 17.212891 13.455078 C 17.192879 13.433282 17.175457 13.409347 17.154297 13.388672 C 17.131902 13.364146 17.111716 13.33758 17.087891 13.314453 C 17.068148 13.293021 17.05013 13.270366 17.029297 13.25 C 17.007765 13.226456 16.987671 13.201968 16.964844 13.179688 C 16.941984 13.154739 16.922738 13.127054 16.898438 13.103516 C 16.877466 13.080814 16.858098 13.056691 16.835938 13.035156 C 16.816149 13.013742 16.798182 12.991091 16.777344 12.970703 C 16.756096 12.947549 16.7373 12.922365 16.714844 12.900391 C 16.693579 12.877234 16.674807 12.852065 16.652344 12.830078 C 16.628276 12.803897 16.605661 12.776647 16.580078 12.751953 C 16.561419 12.731943 16.544938 12.710544 16.525391 12.691406 C 16.504093 12.66827 16.485354 12.643091 16.462891 12.621094 C 16.439974 12.596215 16.418782 12.570446 16.394531 12.546875 C 16.373372 12.524123 16.354305 12.500172 16.332031 12.478516 C 16.311936 12.456869 16.294532 12.432777 16.273438 12.412109 C 16.251809 12.388688 16.231768 12.364088 16.208984 12.341797 C 16.186352 12.317337 16.16646 12.290813 16.142578 12.267578 C 16.122643 12.246197 16.104872 12.223571 16.083984 12.203125 C 16.061307 12.178645 16.041486 12.152178 16.017578 12.128906 C 15.997429 12.107268 15.980092 12.083198 15.958984 12.0625 C 15.936436 12.038171 15.916322 12.011438 15.892578 11.988281 C 15.872385 11.966652 15.853167 11.944531 15.832031 11.923828 C 15.810902 11.901077 15.793645 11.875257 15.771484 11.853516 C 15.747242 11.827395 15.724805 11.800189 15.699219 11.775391 C 15.680543 11.755529 15.663987 11.733938 15.644531 11.714844 C 15.62311 11.691792 15.604486 11.666571 15.582031 11.644531 C 15.560647 11.621538 15.541936 11.596213 15.519531 11.574219 C 15.49647 11.54943 15.475408 11.523634 15.451172 11.5 C 15.429911 11.477337 15.410913 11.453337 15.388672 11.431641 C 15.368466 11.410065 15.351166 11.385943 15.330078 11.365234 C 15.307403 11.340908 15.287454 11.314254 15.263672 11.291016 C 15.243757 11.2698 15.225834 11.246952 15.205078 11.226562 C 15.183284 11.203204 15.163425 11.178621 15.140625 11.15625 C 15.117833 11.131862 15.098099 11.105347 15.074219 11.082031 C 15.052354 11.058741 15.032619 11.034034 15.009766 11.011719 C 14.990093 10.990824 14.97359 10.96738 14.953125 10.947266 C 14.931639 10.924284 14.913058 10.899005 14.890625 10.876953 C 14.867576 10.852317 14.846394 10.826308 14.822266 10.802734 C 14.800413 10.779504 14.780622 10.754709 14.757812 10.732422 C 14.738112 10.711534 14.721643 10.688098 14.701172 10.667969 C 14.679639 10.644982 14.661127 10.619738 14.638672 10.597656 C 14.615931 10.573396 14.596025 10.546696 14.572266 10.523438 C 14.550648 10.500518 14.530336 10.477103 14.507812 10.455078 C 14.487523 10.433555 14.470302 10.409413 14.449219 10.388672 C 14.427756 10.365811 14.409068 10.340348 14.386719 10.318359 C 14.3636 10.29374 14.342498 10.267754 14.318359 10.244141 C 14.29864 10.223293 14.28217 10.199814 14.261719 10.179688 C 14.238566 10.155051 14.217521 10.129112 14.193359 10.105469 C 14.171807 10.082655 14.153274 10.057118 14.130859 10.035156 C 14.110853 10.014008 14.09301 9.991124 14.072266 9.9707031 C 14.050748 9.9478394 14.032137 9.9224153 14.009766 9.9003906 C 13.987838 9.8770959 13.96812 9.8525073 13.945312 9.8300781 C 13.921171 9.8044713 13.900197 9.7765174 13.875 9.7519531 C 13.85619 9.7321852 13.839753 9.7105516 13.820312 9.6914062 C 13.798766 9.6685484 13.780191 9.6431336 13.757812 9.6210938 C 13.736232 9.5982081 13.717721 9.5728519 13.695312 9.5507812 C 13.670911 9.5249172 13.648497 9.4974836 13.623047 9.4726562 C 13.604203 9.4528784 13.587819 9.4312792 13.568359 9.4121094 C 13.546785 9.3892571 13.528244 9.3638512 13.505859 9.3417969 C 13.483041 9.3176384 13.463171 9.2908492 13.439453 9.2675781 C 13.419397 9.2464603 13.401602 9.2235654 13.380859 9.203125 C 13.357678 9.1785978 13.336597 9.1525295 13.3125 9.1289062 C 13.292116 9.1074343 13.274991 9.0832807 13.253906 9.0625 C 13.23106 9.0383466 13.211224 9.0115684 13.1875 8.9882812 C 13.167423 8.9671676 13.149654 8.9442804 13.128906 8.9238281 C 13.107303 8.9010022 13.088785 8.8755774 13.066406 8.8535156 C 13.043191 8.8289938 13.022151 8.8029411 12.998047 8.7792969 C 12.976091 8.756211 12.956335 8.731293 12.933594 8.7089844 C 12.913761 8.6881724 12.897422 8.6647146 12.876953 8.6445312 C 12.855326 8.6217099 12.836838 8.5962935 12.814453 8.5742188 C 12.791196 8.5496849 12.77022 8.5236751 12.746094 8.5 C 12.724675 8.4775432 12.70574 8.453377 12.683594 8.4316406 C 12.663165 8.4101881 12.646089 8.3860352 12.625 8.3652344 C 12.603388 8.3424606 12.584849 8.3169684 12.5625 8.2949219 C 12.539219 8.270393 12.518271 8.2443923 12.494141 8.2207031 C 12.473963 8.1995715 12.456354 8.1767582 12.435547 8.15625 C 12.41256 8.1320676 12.392945 8.1054055 12.369141 8.0820312 C 12.347461 8.059299 12.329041 8.0337384 12.306641 8.0117188 C 12.286553 7.9906829 12.268748 7.9676943 12.248047 7.9472656 C 12.226048 7.9241232 12.206329 7.8993685 12.183594 7.8769531 C 12.160584 7.8527743 12.140997 7.8261225 12.117188 7.8027344 C 12.095139 7.7796401 12.07551 7.7547962 12.052734 7.7324219 C 12.032907 7.7116964 12.016505 7.6881168 11.996094 7.6679688 C 11.974408 7.6451813 11.955979 7.6197537 11.933594 7.5976562 C 11.911935 7.5749062 11.893445 7.5494096 11.871094 7.5273438 C 11.846188 7.5011894 11.82269 7.4744718 11.796875 7.4492188 C 11.778264 7.4298532 11.763252 7.4075416 11.744141 7.3886719 C 11.722435 7.3658877 11.704031 7.3404678 11.681641 7.3183594 C 11.658695 7.2942831 11.638939 7.2674656 11.615234 7.2441406 C 11.59507 7.2230799 11.577385 7.2001738 11.556641 7.1796875 C 11.533335 7.1552439 11.512362 7.1291457 11.488281 7.1054688 C 11.467858 7.0841327 11.4507 7.0598154 11.429688 7.0390625 C 11.406385 7.0146365 11.385396 6.9885118 11.361328 6.9648438 C 11.341466 6.9441356 11.3251 6.9205539 11.304688 6.9003906 C 11.282972 6.8776374 11.264562 6.8521808 11.242188 6.8300781 C 11.218884 6.8056692 11.197885 6.7795225 11.173828 6.7558594 C 11.151765 6.7328347 11.132107 6.7079085 11.109375 6.6855469 C 11.089497 6.6648399 11.073152 6.6412666 11.052734 6.6210938 C 11.03099 6.5983324 11.012625 6.5729042 10.990234 6.5507812 C 10.966911 6.5263743 10.945937 6.5002382 10.921875 6.4765625 C 10.900353 6.4541557 10.881519 6.4299931 10.859375 6.4082031 C 10.838895 6.3868529 10.821823 6.3625912 10.800781 6.3417969 C 10.779053 6.3190749 10.760641 6.2935821 10.738281 6.2714844 C 10.130956 5.6365233 9.2804261 5.2382812 8.3339844 5.2382812 z "
       id="path8378"
       style="fill-opacity:1;fill:url(#linearGradient9245)"
       clip-path="url(#clipPath9257)" />
    <path
       style="fill:none"
       inkscape:connector-curvature="0"
       id="path4"
       d="m 3.9999777,4.0333382 12.0000003,0 0,11.9333328 -12.0000003,0 z" />
    <path
       d="m 18.999978,19.033339 12,0 0,11.933333 -12,0 z"
       id="path9754"
       inkscape:connector-curvature="0"
       style="fill:none" />
    <path
       clip-path="url(#clipPath8232)"
       inkscape:connector-curvature="0"
       id="path6185"
       style="font-style:normal;font-weight:normal;font-size:medium;line-height:125%;font-family:sans-serif;letter-spacing:0px;word-spacing:0px;fill:#000000;fill-opacity:1;stroke:none;stroke-width:1px;stroke-linecap:butt;stroke-linejoin:miter;stroke-opacity:1"
       d="m 22.806408,25.224385 0,3.663765 2.170127,0 q 1.091762,0 1.6142,-0.448761 0.529136,-0.455459 0.529136,-1.38647 0,-0.93771 -0.529136,-1.379773 -0.522438,-0.448761 -1.6142,-0.448761 l -2.170127,0 z m 0,-4.112525 0,3.014066 2.002679,0 q 0.991293,0 1.473543,-0.368386 0.488949,-0.375084 0.488949,-1.138647 0,-0.756865 -0.488949,-1.131949 -0.48225,-0.375084 -1.473543,-0.375084 l -2.002679,0 z m -1.352981,-1.111855 3.456129,0 q 1.54722,0 2.384461,0.643001 0.83724,0.643 0.83724,1.828533 0,0.917615 -0.428667,1.460147 -0.428667,0.542532 -1.259209,0.67649 0.99799,0.214334 1.54722,0.897522 0.555927,0.67649 0.555927,1.694575 0,1.339585 -0.910917,2.069658 -0.910918,0.730074 -2.592097,0.730074 l -3.590087,0 0,-10 z" />
    <ellipse
       style="opacity:1;fill:#795548;fill-opacity:1;stroke:none"
       id="path9261"
       cx="8.3653259"
       cy="8.683135"
       rx="1.8309015"
       ry="1.7519833" />
    <path
       inkscape:connector-curvature="0"
       d="m 8.3333109,9.7619098 a 1.1904762,1.1904762 0 0 0 1.190476,-1.190476 1.1904762,1.1904762 0 0 0 -1.190476,-1.190476 1.1904762,1.1904762 0 0 0 -1.190476,1.190476 1.1904762,1.1904762 0 0 0 1.190476,1.190476 m 0,-4.52381 c 1.8380951,0 3.3333331,1.490477 3.3333331,3.333334 0,2.5000002 -3.3333331,6.1904762 -3.3333331,6.1904762 0,0 -3.3333334,-3.690476 -3.3333334,-6.1904762 a 3.3333333,3.3333333 0 0 1 3.3333334,-3.333334 m 2.8571431,7.1428582 3.809524,0 0,0.952381 -3.809524,0 0,-0.952381 z"
       id="path8312"
       style="fill:#fafafa" />
    <path
       id="path8321"
       d="m 23.333311,24.76191 a 1.1904762,1.1904762 0 0 0 1.190476,-1.190476 1.1904762,1.1904762 0 0 0 -1.190476,-1.190476 1.1904762,1.1904762 0 0 0 -1.190476,1.190476 1.1904762,1.1904762 0 0 0 1.190476,1.190476 m 0,-4.52381 c 1.838095,0 3.333333,1.490477 3.333333,3.333334 0,2.5 -3.333333,6.190476 -3.333333,6.190476 0,0 -3.333334,-3.690476 -3.333334,-6.190476 A 3.3333333,3.3333333 0 0 1 23.333311,20.2381 m 2.857143,7.142858 3.809524,0 0,0.952381 -3.809524,0 0,-0.952381 z"
       inkscape:connector-curvature="0"
       clip-path="url(#clipPath9250)" />
  </g>
</svg>
