<?xml version="1.0" encoding="UTF-8" standalone="no"?>
<!-- Created with Inkscape (http://www.inkscape.org/) -->

<svg
   xmlns:dc="http://purl.org/dc/elements/1.1/"
   xmlns:cc="http://creativecommons.org/ns#"
   xmlns:rdf="http://www.w3.org/1999/02/22-rdf-syntax-ns#"
   xmlns:svg="http://www.w3.org/2000/svg"
   xmlns="http://www.w3.org/2000/svg"
   xmlns:xlink="http://www.w3.org/1999/xlink"
   xmlns:sodipodi="http://sodipodi.sourceforge.net/DTD/sodipodi-0.dtd"
   xmlns:inkscape="http://www.inkscape.org/namespaces/inkscape"
   width="5.6444445mm"
   height="5.6444445mm"
   viewBox="0 0 20 20"
   id="svg2"
   version="1.1"
   inkscape:version="0.91 r13725"
   sodipodi:docname="VLC.svg"
   inkscape:export-filename="/home/juergen/Schreibtisch/Icons/Email.svg.png"
   inkscape:export-xdpi="648"
   inkscape:export-ydpi="648">
  <sodipodi:namedview
     id="base"
     pagecolor="#ffffff"
     bordercolor="#666666"
     borderopacity="1.0"
     inkscape:pageopacity="0.0"
     inkscape:pageshadow="2"
     inkscape:zoom="11.2"
     inkscape:cx="8.0990244"
     inkscape:cy="7.6186279"
     inkscape:document-units="px"
     inkscape:current-layer="layer1"
     showgrid="false"
     fit-margin-top="0"
     fit-margin-left="0"
     fit-margin-right="0"
     fit-margin-bottom="0"
     showguides="true"
     inkscape:guide-bbox="true"
     inkscape:window-width="1366"
     inkscape:window-height="726"
     inkscape:window-x="0"
     inkscape:window-y="0"
     inkscape:window-maximized="1"
     inkscape:snap-grids="true"
     inkscape:snap-to-guides="true">
    <inkscape:grid
       id="grid4138"
       type="xygrid" />
    <sodipodi:guide
       id="guide4140"
       orientation="0,1"
       position="10,18" />
    <sodipodi:guide
       id="guide4142"
       orientation="0,1"
       position="10,2" />
    <sodipodi:guide
       id="guide4144"
       orientation="1,0"
       position="2,10" />
    <sodipodi:guide
       id="guide4146"
       orientation="0,20"
       position="0,0" />
    <sodipodi:guide
       id="guide4148"
       orientation="-20,0"
       position="20,0" />
    <sodipodi:guide
       id="guide4150"
       orientation="0,-20"
       position="20,20" />
    <sodipodi:guide
       id="guide4152"
       orientation="20,0"
       position="0,20" />
    <sodipodi:guide
       id="guide4154"
       orientation="1,0"
       position="18,10" />
    <sodipodi:guide
       id="guide4156"
       orientation="-0.70710678,0.70710678"
       position="10,10" />
    <sodipodi:guide
       id="guide4160"
       orientation="1,0"
       position="4,10" />
    <sodipodi:guide
       id="guide4162"
       orientation="1,0"
       position="16,10" />
    <sodipodi:guide
       id="guide4164"
       orientation="0,1"
       position="10,16" />
    <sodipodi:guide
       id="guide4166"
       orientation="0,1"
       position="10,4" />
    <sodipodi:guide
       id="guide4168"
       orientation="0,1"
       position="10,15" />
    <sodipodi:guide
       id="guide4170"
       orientation="0,1"
       position="10,5" />
    <sodipodi:guide
       id="guide4172"
       orientation="1,0"
       position="5,10" />
    <sodipodi:guide
       id="guide4174"
       orientation="1,0"
       position="15,10" />
  </sodipodi:namedview>
  <defs
     id="defs4">
    <linearGradient
       inkscape:collect="always"
       id="linearGradient6212">
      <stop
         style="stop-color:#000000;stop-opacity:1;"
         offset="0"
         id="stop6214" />
      <stop
         style="stop-color:#000000;stop-opacity:0;"
         offset="1"
         id="stop6216" />
    </linearGradient>
    <clipPath
       clipPathUnits="userSpaceOnUse"
       id="clipPath12478">
      <circle
         style="opacity:1;fill:#2196f3;fill-opacity:1;stroke:none;stroke-width:0.05069799;stroke-miterlimit:4;stroke-dasharray:none;stroke-opacity:1"
         id="circle12480"
         cx="9.9999781"
         cy="10.000005"
         r="10" />
    </clipPath>
    <clipPath
       id="clipPath5790"
       clipPathUnits="userSpaceOnUse">
      <circle
         inkscape:export-ydpi="648"
         inkscape:export-xdpi="648"
         inkscape:export-filename="/home/juergen/path4136.png"
         style="opacity:1;fill:#2196f3;fill-opacity:1;stroke:none;stroke-width:0.05069799;stroke-miterlimit:4;stroke-dasharray:none;stroke-opacity:1"
         id="circle5792"
         cx="9.9999781"
         cy="10.000005"
         r="10" />
    </clipPath>
    <clipPath
       clipPathUnits="userSpaceOnUse"
       id="clipPath5055">
      <circle
         inkscape:export-ydpi="648"
         inkscape:export-xdpi="648"
         inkscape:export-filename="/home/juergen/path4136.png"
         style="opacity:1;fill:#2196f3;fill-opacity:1;stroke:none;stroke-width:0.05069799;stroke-miterlimit:4;stroke-dasharray:none;stroke-opacity:1"
         id="circle5057"
         cx="9.9999781"
         cy="10.000005"
         r="10" />
    </clipPath>
    <clipPath
       id="clipPath5119"
       clipPathUnits="userSpaceOnUse">
      <circle
         inkscape:export-ydpi="648"
         inkscape:export-xdpi="648"
         inkscape:export-filename="/home/juergen/Schreibtisch/path4136.png"
         style="opacity:1;fill:#2196f3;fill-opacity:1;stroke:none;stroke-width:0.05069799;stroke-miterlimit:4;stroke-dasharray:none;stroke-opacity:1"
         id="circle5121"
         cx="9.9999781"
         cy="10.000005"
         r="10" />
    </clipPath>
    <clipPath
       clipPathUnits="userSpaceOnUse"
       id="clipPath5194">
      <circle
         inkscape:export-ydpi="648"
         inkscape:export-xdpi="648"
         inkscape:export-filename="/home/juergen/Schreibtisch/path4136.png"
         style="opacity:1;fill:#cddc39;fill-opacity:1;stroke:none;stroke-width:0.05069799;stroke-miterlimit:4;stroke-dasharray:none;stroke-opacity:1"
         id="circle5196"
         cx="9.9999781"
         cy="10.000005"
         r="10" />
    </clipPath>
    <clipPath
       id="clipPath6175"
       clipPathUnits="userSpaceOnUse">
      <circle
         inkscape:export-ydpi="648"
         inkscape:export-xdpi="648"
         inkscape:export-filename="/home/juergen/Schreibtisch/path4136.png"
         style="opacity:1;fill:#f44336;fill-opacity:1;stroke:none;stroke-width:0.05069799;stroke-miterlimit:4;stroke-dasharray:none;stroke-opacity:1"
         id="circle6177"
         cx="9.9999781"
         cy="10.000005"
         r="10" />
    </clipPath>
    <clipPath
       clipPathUnits="userSpaceOnUse"
       id="clipPath7176">
      <circle
         inkscape:export-ydpi="648"
         inkscape:export-xdpi="648"
         inkscape:export-filename="/home/juergen/Schreibtisch/path4136.png"
         style="opacity:1;fill:#9c27b0;fill-opacity:1;stroke:none;stroke-width:0.05069799;stroke-miterlimit:4;stroke-dasharray:none;stroke-opacity:1"
         id="circle7178"
         cx="9.9999781"
         cy="10.000005"
         r="10" />
    </clipPath>
    <clipPath
       id="clipPath8165"
       clipPathUnits="userSpaceOnUse">
      <circle
         inkscape:export-ydpi="648"
         inkscape:export-xdpi="648"
         inkscape:export-filename="/home/juergen/Schreibtisch/path4136.png"
         style="opacity:1;fill:#ffc107;fill-opacity:1;stroke:none;stroke-width:0.05069799;stroke-miterlimit:4;stroke-dasharray:none;stroke-opacity:1"
         id="circle8167"
         cx="9.9999781"
         cy="10.000005"
         r="10" />
    </clipPath>
    <clipPath
       clipPathUnits="userSpaceOnUse"
       id="clipPath9162">
      <circle
         inkscape:export-ydpi="648"
         inkscape:export-xdpi="648"
         inkscape:export-filename="/home/juergen/Schreibtisch/path4136.png"
         style="opacity:1;fill:#ff9800;fill-opacity:1;stroke:none;stroke-width:0.05069799;stroke-miterlimit:4;stroke-dasharray:none;stroke-opacity:1"
         id="circle9164"
         cx="9.9999781"
         cy="10.000005"
         r="10" />
    </clipPath>
    <clipPath
       id="clipPath10753"
       clipPathUnits="userSpaceOnUse">
      <circle
         inkscape:export-ydpi="648"
         inkscape:export-xdpi="648"
         inkscape:export-filename="/home/juergen/Schreibtisch/path4136.png"
         style="opacity:1;fill:#607d8b;fill-opacity:1;stroke:none;stroke-width:0.05069799;stroke-miterlimit:4;stroke-dasharray:none;stroke-opacity:1"
         id="circle10755"
         cx="9.9999781"
         cy="10.000005"
         r="10" />
    </clipPath>
    <clipPath
       clipPathUnits="userSpaceOnUse"
       id="clipPath5153">
      <circle
         inkscape:export-ydpi="648"
         inkscape:export-xdpi="648"
         inkscape:export-filename="/home/juergen/Schreibtisch/path4136.png"
         style="opacity:1;fill:#2196f3;fill-opacity:1;stroke:none;stroke-width:0.05069799;stroke-miterlimit:4;stroke-dasharray:none;stroke-opacity:1"
         id="circle5155"
         cx="9.9999781"
         cy="10.000005"
         r="10" />
    </clipPath>
    <clipPath
       id="clipPath6152"
       clipPathUnits="userSpaceOnUse">
      <circle
         inkscape:export-ydpi="648"
         inkscape:export-xdpi="648"
         inkscape:export-filename="/home/juergen/Schreibtisch/path4136.png"
         style="opacity:1;fill:#2196f3;fill-opacity:1;stroke:none;stroke-width:0.05069799;stroke-miterlimit:4;stroke-dasharray:none;stroke-opacity:1"
         id="circle6154"
         cx="9.9999781"
         cy="10.000005"
         r="10" />
    </clipPath>
    <clipPath
       clipPathUnits="userSpaceOnUse"
       id="clipPath7155">
      <circle
         inkscape:export-ydpi="648"
         inkscape:export-xdpi="648"
         inkscape:export-filename="/home/juergen/Schreibtisch/path4136.png"
         style="opacity:1;fill:#2196f3;fill-opacity:1;stroke:none;stroke-width:0.05069799;stroke-miterlimit:4;stroke-dasharray:none;stroke-opacity:1"
         id="circle7157"
         cx="9.9999781"
         cy="10.000005"
         r="10" />
    </clipPath>
    <clipPath
       id="clipPath8162"
       clipPathUnits="userSpaceOnUse">
      <circle
         inkscape:export-ydpi="648"
         inkscape:export-xdpi="648"
         inkscape:export-filename="/home/juergen/Schreibtisch/path4136.png"
         style="opacity:1;fill:#2196f3;fill-opacity:1;stroke:none;stroke-width:0.05069799;stroke-miterlimit:4;stroke-dasharray:none;stroke-opacity:1"
         id="circle8164"
         cx="9.9999781"
         cy="10.000005"
         r="10" />
    </clipPath>
    <clipPath
       clipPathUnits="userSpaceOnUse"
       id="clipPath5177">
      <circle
         inkscape:export-ydpi="648"
         inkscape:export-xdpi="648"
         inkscape:export-filename="/home/juergen/Schreibtisch/path4136.png"
         style="opacity:1;fill:#8bc34a;fill-opacity:1;stroke:none;stroke-width:0.05069799;stroke-miterlimit:4;stroke-dasharray:none;stroke-opacity:1"
         id="circle5179"
         cx="9.9999781"
         cy="10.000005"
         r="10" />
    </clipPath>
    <clipPath
       id="clipPath6194"
       clipPathUnits="userSpaceOnUse">
      <circle
         inkscape:export-ydpi="648"
         inkscape:export-xdpi="648"
         inkscape:export-filename="/home/juergen/Schreibtisch/path4136.png"
         style="opacity:1;fill:#4caf50;fill-opacity:1;stroke:none;stroke-width:0.05069799;stroke-miterlimit:4;stroke-dasharray:none;stroke-opacity:1"
         id="circle6196"
         cx="9.9999781"
         cy="10.000005"
         r="10" />
    </clipPath>
    <clipPath
       clipPathUnits="userSpaceOnUse"
       id="clipPath7213">
      <circle
         inkscape:export-ydpi="648"
         inkscape:export-xdpi="648"
         inkscape:export-filename="/home/juergen/Schreibtisch/path4136.png"
         style="opacity:1;fill:#4caf50;fill-opacity:1;stroke:none;stroke-width:0.05069799;stroke-miterlimit:4;stroke-dasharray:none;stroke-opacity:1"
         id="circle7215"
         cx="9.9999781"
         cy="10.000005"
         r="10" />
    </clipPath>
    <clipPath
       id="clipPath8236"
       clipPathUnits="userSpaceOnUse">
      <circle
         inkscape:export-ydpi="648"
         inkscape:export-xdpi="648"
         inkscape:export-filename="/home/juergen/Schreibtisch/path4136.png"
         style="opacity:1;fill:#4caf50;fill-opacity:1;stroke:none;stroke-width:0.05069799;stroke-miterlimit:4;stroke-dasharray:none;stroke-opacity:1"
         id="circle8238"
         cx="9.9999781"
         cy="10.000005"
         r="10" />
    </clipPath>
    <clipPath
       clipPathUnits="userSpaceOnUse"
       id="clipPath9263">
      <circle
         inkscape:export-ydpi="648"
         inkscape:export-xdpi="648"
         inkscape:export-filename="/home/juergen/Schreibtisch/path4136.png"
         style="opacity:1;fill:#607d8b;fill-opacity:1;stroke:none;stroke-width:0.05069799;stroke-miterlimit:4;stroke-dasharray:none;stroke-opacity:1"
         id="circle9265"
         cx="9.9999781"
         cy="10.000005"
         r="10" />
    </clipPath>
    <clipPath
       id="clipPath5207"
       clipPathUnits="userSpaceOnUse">
      <circle
         inkscape:export-ydpi="648"
         inkscape:export-xdpi="648"
         inkscape:export-filename="/home/juergen/Schreibtisch/path4136.png"
         style="opacity:1;fill:#009688;fill-opacity:1;stroke:none;stroke-width:0.05069799;stroke-miterlimit:4;stroke-dasharray:none;stroke-opacity:1"
         id="circle5209"
         cx="9.9999781"
         cy="10.000005"
         r="10" />
    </clipPath>
    <linearGradient
       inkscape:collect="always"
       xlink:href="#linearGradient6212"
       id="linearGradient6218"
       x1="10"
       y1="10"
       x2="20"
       y2="20"
       gradientUnits="userSpaceOnUse" />
    <clipPath
       clipPathUnits="userSpaceOnUse"
       id="clipPath6223">
      <circle
         inkscape:export-ydpi="648"
         inkscape:export-xdpi="648"
         inkscape:export-filename="/home/juergen/Schreibtisch/path4136.png"
         style="opacity:1;fill:#009688;fill-opacity:1;stroke:none;stroke-width:0.05069799;stroke-miterlimit:4;stroke-dasharray:none;stroke-opacity:1"
         id="circle6225"
         cx="9.9999781"
         cy="10.000005"
         r="10" />
    </clipPath>
  </defs>
  <metadata
     id="metadata7">
    <rdf:RDF>
      <cc:Work
         rdf:about="">
        <dc:format>image/svg+xml</dc:format>
        <dc:type
           rdf:resource="http://purl.org/dc/dcmitype/StillImage" />
        <dc:title></dc:title>
      </cc:Work>
    </rdf:RDF>
  </metadata>
  <g
     transform="translate(1058.1428,-861.93365)"
     id="layer1"
     inkscape:groupmode="layer"
     inkscape:label="Hintergrund">
    <circle
       r="10"
       cy="871.93365"
       cx="-1048.1428"
       id="path4136"
       style="opacity:1;fill:#ff9800;fill-opacity:1;stroke:none;stroke-width:0.05069799;stroke-miterlimit:4;stroke-dasharray:none;stroke-opacity:1"
       inkscape:export-filename="/home/juergen/Schreibtisch/path4136.png"
       inkscape:export-xdpi="648"
       inkscape:export-ydpi="648" />
  </g>
  <g
     inkscape:label="Icon"
     id="layer2"
     inkscape:groupmode="layer"
     style="display:inline">
    <path
       d="M 6.1484375 6.1484375 C 5.883221 6.1484375 5.6289426 6.2538699 5.4414062 6.4414062 C 5.2538699 6.6289426 5.1484375 6.883221 5.1484375 7.1484375 L 5.1484375 13.148438 C 5.1484375 13.413654 5.2538699 13.667933 5.4414062 13.855469 C 5.4671921 13.881255 5.5030832 13.891444 5.53125 13.914062 C 5.5538683 13.942229 5.5640579 13.97812 5.5898438 14.003906 C 5.6152393 14.029302 5.6500273 14.040176 5.6777344 14.0625 C 5.7003266 14.090626 5.710577 14.126593 5.7363281 14.152344 C 5.762656 14.178672 5.7993182 14.189866 5.828125 14.212891 C 5.8499546 14.239833 5.8600215 14.274084 5.8847656 14.298828 C 5.9097708 14.323833 5.9434548 14.335394 5.9707031 14.357422 C 5.9927313 14.38467 6.0042917 14.418354 6.0292969 14.443359 C 6.0546924 14.468755 6.0894804 14.479629 6.1171875 14.501953 C 6.1395115 14.52966 6.1503857 14.564448 6.1757812 14.589844 C 6.2007864 14.614849 6.2344704 14.626409 6.2617188 14.648438 C 6.283747 14.675686 6.2953073 14.70937 6.3203125 14.734375 C 6.3450567 14.759119 6.3793079 14.769186 6.40625 14.791016 C 6.4280796 14.817958 6.4381465 14.852209 6.4628906 14.876953 C 6.4876348 14.901697 6.521886 14.911764 6.5488281 14.933594 C 6.5706577 14.960536 6.5807246 14.994787 6.6054688 15.019531 C 6.6302129 15.044275 6.6644642 15.054342 6.6914062 15.076172 C 6.7132358 15.103114 6.7233027 15.137365 6.7480469 15.162109 C 6.772791 15.186854 6.8070423 15.19692 6.8339844 15.21875 C 6.855814 15.245692 6.8658808 15.279943 6.890625 15.304688 C 6.9149788 15.329041 6.9481245 15.339797 6.9746094 15.361328 C 6.9961407 15.387813 7.0068962 15.420959 7.03125 15.445312 C 7.0553428 15.469405 7.0890546 15.478669 7.1152344 15.5 C 7.1365654 15.52618 7.1458291 15.559892 7.1699219 15.583984 C 7.1942757 15.608338 7.2274213 15.619094 7.2539062 15.640625 C 7.2754375 15.66711 7.2861931 15.700255 7.3105469 15.724609 C 7.333598 15.74766 7.3656588 15.756819 7.390625 15.777344 C 7.4123765 15.804166 7.4226238 15.838639 7.4472656 15.863281 C 7.4719075 15.887923 7.506381 15.89817 7.5332031 15.919922 C 7.553728 15.944888 7.5628864 15.976949 7.5859375 16 C 7.60964 16.023703 7.6422446 16.033657 7.6679688 16.054688 C 7.6889989 16.080412 7.6989538 16.113016 7.7226562 16.136719 C 7.7463587 16.160421 7.7789633 16.170376 7.8046875 16.191406 C 7.8257177 16.21713 7.8356725 16.249735 7.859375 16.273438 C 7.8826871 16.29675 7.9141835 16.307397 7.9394531 16.328125 C 7.960181 16.353395 7.9708285 16.384891 7.9941406 16.408203 C 8.0174528 16.431515 8.0489491 16.442163 8.0742188 16.462891 C 8.0949466 16.48816 8.1055941 16.519657 8.1289062 16.542969 C 8.1522184 16.566281 8.1837148 16.576928 8.2089844 16.597656 C 8.2297123 16.622926 8.2403597 16.654422 8.2636719 16.677734 C 8.286723 16.700785 8.3187838 16.709944 8.34375 16.730469 C 8.3642749 16.755435 8.3734333 16.787496 8.3964844 16.810547 C 8.4195355 16.833598 8.4515963 16.842756 8.4765625 16.863281 C 8.4970874 16.888248 8.5062458 16.920308 8.5292969 16.943359 C 8.5513063 16.965369 8.5817091 16.974432 8.6054688 16.994141 C 8.6264229 17.01975 8.6365521 17.052568 8.6601562 17.076172 C 8.6837604 17.099776 8.7165779 17.109905 8.7421875 17.130859 C 8.7618957 17.154619 8.7709593 17.185022 8.7929688 17.207031 C 8.8153685 17.229431 8.8468828 17.237797 8.8710938 17.257812 C 8.8911092 17.282023 8.8994752 17.313538 8.921875 17.335938 C 8.9445358 17.358598 8.9754867 17.368452 9 17.388672 C 9.0202201 17.413185 9.0300736 17.444136 9.0527344 17.466797 C 9.0751342 17.489197 9.1066484 17.497563 9.1308594 17.517578 C 9.1508748 17.541789 9.1592408 17.573303 9.1816406 17.595703 C 9.2036501 17.617713 9.2340529 17.626776 9.2578125 17.646484 C 9.2775207 17.670244 9.2865843 17.700647 9.3085938 17.722656 C 9.3306032 17.744666 9.361006 17.753729 9.3847656 17.773438 C 9.4044738 17.797197 9.4135374 17.8276 9.4355469 17.849609 C 9.457465 17.871527 9.4880646 17.880755 9.5117188 17.900391 C 9.5314269 17.92415 9.5404906 17.954553 9.5625 17.976562 C 9.5845094 17.998572 9.6149123 18.007636 9.6386719 18.027344 C 9.65838 18.051103 9.6674437 18.081506 9.6894531 18.103516 C 9.7110722 18.125135 9.7403626 18.134898 9.7636719 18.154297 C 9.7830712 18.177606 9.792834 18.206897 9.8144531 18.228516 C 9.8354209 18.249483 9.8641587 18.258463 9.8867188 18.277344 C 9.9063548 18.300998 9.9155819 18.331598 9.9375 18.353516 C 9.9594783 18.375494 9.9899482 18.384613 10.013672 18.404297 C 10.032553 18.426857 10.041532 18.455595 10.0625 18.476562 C 10.083858 18.497921 10.11371 18.506199 10.136719 18.525391 C 10.155911 18.548399 10.164189 18.578251 10.185547 18.599609 C 10.206515 18.620577 10.235252 18.629557 10.257812 18.648438 C 10.276693 18.670998 10.285673 18.699735 10.306641 18.720703 C 10.327608 18.741671 10.356346 18.75065 10.378906 18.769531 C 10.397787 18.792091 10.406767 18.820829 10.427734 18.841797 C 10.448702 18.862765 10.47744 18.871744 10.5 18.890625 C 10.518881 18.913185 10.52786 18.941923 10.548828 18.962891 C 10.569796 18.983858 10.598534 18.992838 10.621094 19.011719 C 10.639975 19.034279 10.648954 19.063017 10.669922 19.083984 C 10.690629 19.104691 10.719927 19.112188 10.742188 19.130859 C 10.760859 19.15312 10.768356 19.182418 10.789062 19.203125 C 10.809379 19.223441 10.837561 19.231642 10.859375 19.25 C 10.877733 19.271814 10.885934 19.299996 10.90625 19.320312 C 10.925915 19.339978 10.953539 19.347403 10.974609 19.365234 C 10.993731 19.388142 11.002168 19.418183 11.023438 19.439453 C 11.044318 19.460334 11.073243 19.46947 11.095703 19.488281 C 11.113216 19.508907 11.12135 19.535413 11.140625 19.554688 C 11.160941 19.575004 11.189124 19.583205 11.210938 19.601562 C 11.229295 19.623376 11.237496 19.651559 11.257812 19.671875 C 11.277739 19.691801 11.304804 19.700707 11.326172 19.71875 C 11.344215 19.740118 11.353121 19.767183 11.373047 19.787109 C 11.392973 19.807036 11.420039 19.815942 11.441406 19.833984 C 11.459449 19.855352 11.468355 19.882418 11.488281 19.902344 C 11.507946 19.922009 11.535571 19.929434 11.556641 19.947266 C 11.574472 19.968336 11.581897 19.99596 11.601562 20.015625 C 11.621228 20.03529 11.648852 20.042716 11.669922 20.060547 C 11.687753 20.081617 11.695179 20.109241 11.714844 20.128906 C 11.734509 20.148571 11.762133 20.155997 11.783203 20.173828 C 11.801034 20.194898 11.80846 20.222522 11.828125 20.242188 C 11.8474 20.261462 11.873906 20.269596 11.894531 20.287109 C 11.912045 20.307735 11.920178 20.334241 11.939453 20.353516 C 11.958728 20.37279 11.985234 20.380924 12.005859 20.398438 C 12.023373 20.419063 12.031506 20.445569 12.050781 20.464844 C 12.069795 20.483858 12.096858 20.490512 12.117188 20.507812 C 12.134488 20.528142 12.141143 20.555205 12.160156 20.574219 C 12.17917 20.593232 12.206233 20.599887 12.226562 20.617188 C 12.243863 20.637517 12.250518 20.66458 12.269531 20.683594 C 12.288545 20.702607 12.315608 20.709262 12.335938 20.726562 C 12.353238 20.746892 12.359892 20.773955 12.378906 20.792969 C 12.39753 20.811592 12.423473 20.818958 12.443359 20.835938 C 12.460339 20.855824 12.467705 20.881767 12.486328 20.900391 C 12.504952 20.919014 12.530895 20.92638 12.550781 20.943359 C 12.567761 20.963246 12.575127 20.989189 12.59375 21.007812 C 12.612373 21.026436 12.638317 21.033801 12.658203 21.050781 C 12.675183 21.070668 12.682549 21.096611 12.701172 21.115234 C 12.719405 21.133467 12.744227 21.141545 12.763672 21.158203 C 12.78033 21.177648 12.788408 21.20247 12.806641 21.220703 C 12.824874 21.238936 12.849696 21.247014 12.869141 21.263672 C 12.885799 21.283117 12.893876 21.307939 12.912109 21.326172 C 12.930081 21.344144 12.955459 21.350745 12.974609 21.367188 C 12.991052 21.386338 12.997653 21.411716 13.015625 21.429688 C 13.033597 21.44766 13.058975 21.454261 13.078125 21.470703 C 13.094567 21.489853 13.101169 21.515231 13.119141 21.533203 C 13.137113 21.551175 13.162491 21.557777 13.181641 21.574219 C 13.198083 21.593369 13.204684 21.618747 13.222656 21.636719 C 13.240238 21.6543 13.264493 21.661616 13.283203 21.677734 C 13.299321 21.696444 13.306637 21.7207 13.324219 21.738281 C 13.3418 21.755863 13.366055 21.763179 13.384766 21.779297 C 13.400884 21.798007 13.4082 21.822262 13.425781 21.839844 C 13.442712 21.856774 13.466397 21.863333 13.484375 21.878906 C 13.500756 21.897973 13.507493 21.923508 13.525391 21.941406 C 13.543288 21.959304 13.568824 21.966041 13.587891 21.982422 C 13.603464 22.0004 13.610023 22.024085 13.626953 22.041016 C 13.643884 22.057946 13.667569 22.064504 13.685547 22.080078 C 13.701121 22.098056 13.707679 22.121742 13.724609 22.138672 C 13.74193 22.155993 13.76674 22.161834 13.785156 22.177734 C 13.801057 22.196151 13.806898 22.220961 13.824219 22.238281 C 13.841149 22.255212 13.864834 22.26177 13.882812 22.277344 C 13.898386 22.295322 13.904945 22.319007 13.921875 22.335938 C 13.938415 22.352477 13.960974 22.359754 13.978516 22.375 C 13.993761 22.392541 14.001038 22.415101 14.017578 22.431641 C 14.034508 22.448571 14.058194 22.455129 14.076172 22.470703 C 14.091746 22.488681 14.098304 22.512366 14.115234 22.529297 C 14.131123 22.545185 14.153108 22.551711 14.169922 22.566406 C 14.185437 22.584306 14.192124 22.60814 14.208984 22.625 C 14.225845 22.64186 14.249679 22.648548 14.267578 22.664062 C 14.282273 22.680876 14.288799 22.702861 14.304688 22.71875 C 14.320967 22.735029 14.344079 22.740834 14.361328 22.755859 C 14.376354 22.773109 14.382158 22.796221 14.398438 22.8125 C 14.414716 22.828779 14.437829 22.834584 14.455078 22.849609 C 14.470103 22.866859 14.475909 22.889971 14.492188 22.90625 C 14.508076 22.922139 14.530061 22.928665 14.546875 22.943359 C 14.56157 22.960173 14.568096 22.982158 14.583984 22.998047 C 14.599873 23.013936 14.621858 23.020461 14.638672 23.035156 C 14.653367 23.05197 14.659893 23.073955 14.675781 23.089844 C 14.69167 23.105732 14.713655 23.112258 14.730469 23.126953 C 14.745164 23.143767 14.75169 23.165752 14.767578 23.181641 C 14.783206 23.197268 14.805742 23.202324 14.822266 23.216797 C 14.836739 23.23332 14.841794 23.255857 14.857422 23.271484 C 14.873049 23.287112 14.895586 23.292168 14.912109 23.306641 C 14.926582 23.323164 14.931638 23.345701 14.947266 23.361328 C 14.962503 23.376565 14.983911 23.382344 15 23.396484 C 15.01414 23.412574 15.019919 23.433981 15.035156 23.449219 C 15.050394 23.464456 15.071801 23.470235 15.087891 23.484375 C 15.10203 23.500465 15.10781 23.521872 15.123047 23.537109 C 15.138284 23.552347 15.159692 23.558126 15.175781 23.572266 C 15.189921 23.588355 15.1957 23.609763 15.210938 23.625 C 15.225785 23.639847 15.246062 23.646351 15.261719 23.660156 C 15.275524 23.675813 15.282028 23.69609 15.296875 23.710938 C 15.311722 23.725784 15.331999 23.732288 15.347656 23.746094 C 15.361462 23.761751 15.367966 23.782028 15.382812 23.796875 C 15.397008 23.811071 15.416704 23.816834 15.431641 23.830078 C 15.445726 23.846097 15.451623 23.867638 15.466797 23.882812 C 15.481971 23.897987 15.503512 23.903883 15.519531 23.917969 C 15.532775 23.932906 15.538539 23.952601 15.552734 23.966797 C 15.56693 23.980992 15.586625 23.986756 15.601562 24 C 15.614806 24.014937 15.62057 24.034633 15.634766 24.048828 C 15.649291 24.063354 15.670245 24.068502 15.685547 24.082031 C 15.699128 24.097399 15.704164 24.118227 15.71875 24.132812 C 15.732946 24.147008 15.752641 24.152772 15.767578 24.166016 C 15.780822 24.180953 15.786586 24.200648 15.800781 24.214844 C 15.814325 24.228388 15.833436 24.233416 15.847656 24.246094 C 15.861185 24.261395 15.866334 24.282349 15.880859 24.296875 C 15.895385 24.311401 15.916339 24.316549 15.931641 24.330078 C 15.944319 24.344298 15.949346 24.363409 15.962891 24.376953 C 15.976825 24.390888 15.997069 24.395185 16.011719 24.408203 C 16.024736 24.422853 16.029034 24.443097 16.042969 24.457031 C 16.056513 24.470575 16.075624 24.475603 16.089844 24.488281 C 16.102522 24.502502 16.10755 24.521612 16.121094 24.535156 C 16.134638 24.5487 16.153748 24.553728 16.167969 24.566406 C 16.180647 24.580627 16.185674 24.599737 16.199219 24.613281 C 16.212763 24.626825 16.231874 24.631853 16.246094 24.644531 C 16.258772 24.658752 16.2638 24.677862 16.277344 24.691406 C 16.290498 24.70456 16.308474 24.710319 16.322266 24.722656 C 16.334603 24.736448 16.340362 24.754424 16.353516 24.767578 C 16.36667 24.780732 16.384645 24.786491 16.398438 24.798828 C 16.410775 24.81262 16.416534 24.830596 16.429688 24.84375 C 16.442841 24.856904 16.460817 24.862663 16.474609 24.875 C 16.486947 24.888792 16.492705 24.906768 16.505859 24.919922 C 16.518752 24.932815 16.537275 24.93711 16.550781 24.949219 C 16.56289 24.962725 16.567185 24.981248 16.580078 24.994141 C 16.592971 25.007034 16.611494 25.011329 16.625 25.023438 C 16.637109 25.036944 16.641404 25.055466 16.654297 25.068359 C 16.666799 25.080862 16.684186 25.085891 16.697266 25.097656 C 16.709031 25.110736 16.71406 25.128122 16.726562 25.140625 C 16.739065 25.153128 16.756451 25.158157 16.769531 25.169922 C 16.781296 25.183002 16.786326 25.200388 16.798828 25.212891 C 16.811331 25.225393 16.828717 25.230422 16.841797 25.242188 C 16.853562 25.255267 16.858591 25.272654 16.871094 25.285156 C 16.883335 25.297398 16.901267 25.300965 16.914062 25.3125 C 16.925597 25.325295 16.929165 25.343227 16.941406 25.355469 C 16.953648 25.36771 16.97158 25.371278 16.984375 25.382812 C 16.99591 25.395608 16.999477 25.41354 17.011719 25.425781 C 17.02396 25.438023 17.041892 25.44159 17.054688 25.453125 C 17.066222 25.46592 17.06979 25.483852 17.082031 25.496094 C 17.093883 25.507945 17.110676 25.512249 17.123047 25.523438 C 17.134236 25.535808 17.138539 25.552602 17.150391 25.564453 C 17.162242 25.576304 17.179035 25.580608 17.191406 25.591797 C 17.202595 25.604168 17.206899 25.620961 17.21875 25.632812 C 17.230211 25.644273 17.245865 25.649314 17.257812 25.660156 C 17.268654 25.672103 17.273695 25.687758 17.285156 25.699219 C 17.296617 25.71068 17.312272 25.715721 17.324219 25.726562 C 17.335061 25.73851 17.340102 25.754164 17.351562 25.765625 C 17.363023 25.777086 17.378678 25.782127 17.390625 25.792969 C 17.401467 25.804916 17.406508 25.82057 17.417969 25.832031 C 17.429169 25.843231 17.445367 25.846813 17.457031 25.857422 C 17.46764 25.869086 17.471222 25.885285 17.482422 25.896484 C 17.493622 25.907684 17.50982 25.911266 17.521484 25.921875 C 17.532093 25.93354 17.535675 25.949738 17.546875 25.960938 C 17.558075 25.972137 17.574273 25.975719 17.585938 25.986328 C 17.596546 25.997993 17.600128 26.014191 17.611328 26.025391 C 17.622138 26.0362 17.637195 26.040522 17.648438 26.050781 C 17.658697 26.062024 17.663019 26.077081 17.673828 26.087891 C 17.684377 26.098439 17.699976 26.101304 17.710938 26.111328 C 17.720962 26.122289 17.723826 26.137889 17.734375 26.148438 C 17.745185 26.159247 17.760242 26.163569 17.771484 26.173828 C 17.781743 26.185071 17.786065 26.200128 17.796875 26.210938 C 17.807424 26.221486 17.823023 26.224351 17.833984 26.234375 C 17.844009 26.245336 17.846873 26.260936 17.857422 26.271484 C 17.86758 26.281643 17.882037 26.28525 17.892578 26.294922 C 17.90225 26.305463 17.905857 26.31992 17.916016 26.330078 C 17.926564 26.340627 17.942164 26.343491 17.953125 26.353516 C 17.963149 26.364477 17.966014 26.380076 17.976562 26.390625 C 17.985679 26.399742 17.998387 26.403384 18.007812 26.412109 C 18.018031 26.423303 18.022439 26.438454 18.033203 26.449219 C 18.043739 26.459754 18.059365 26.462644 18.070312 26.472656 C 18.079394 26.482499 18.08229 26.496353 18.091797 26.505859 C 18.101565 26.515627 18.114877 26.519978 18.125 26.529297 C 18.134319 26.539419 18.13867 26.552732 18.148438 26.5625 C 18.158205 26.572268 18.171518 26.576619 18.181641 26.585938 C 18.190959 26.59606 18.19531 26.609373 18.205078 26.619141 C 18.214585 26.628648 18.228438 26.631544 18.238281 26.640625 C 18.247363 26.650468 18.250259 26.664321 18.259766 26.673828 C 18.269273 26.683335 18.283126 26.686231 18.292969 26.695312 C 18.30205 26.705156 18.304946 26.719009 18.314453 26.728516 C 18.32396 26.738022 18.337813 26.740919 18.347656 26.75 C 18.356702 26.759801 18.359673 26.773735 18.369141 26.783203 C 18.378257 26.79232 18.390965 26.795962 18.400391 26.804688 C 18.409116 26.814113 18.412759 26.826821 18.421875 26.835938 C 18.43034 26.844403 18.44244 26.847341 18.451172 26.855469 C 18.460242 26.865298 18.463162 26.879178 18.472656 26.888672 C 18.482383 26.898398 18.495781 26.902828 18.505859 26.912109 C 18.513628 26.920428 18.517316 26.931378 18.525391 26.939453 C 18.534246 26.948309 18.547493 26.950498 18.556641 26.958984 C 18.565127 26.968132 18.567316 26.981379 18.576172 26.990234 C 18.585027 26.99909 18.598274 27.001279 18.607422 27.009766 C 18.615908 27.018913 18.618098 27.03216 18.626953 27.041016 C 18.635418 27.049481 18.647518 27.052419 18.65625 27.060547 C 18.664378 27.069279 18.667316 27.081379 18.675781 27.089844 C 18.684246 27.098309 18.696346 27.101247 18.705078 27.109375 C 18.713206 27.118107 18.716144 27.130207 18.724609 27.138672 C 18.732684 27.146747 18.743635 27.150435 18.751953 27.158203 C 18.759721 27.166521 18.76341 27.177472 18.771484 27.185547 C 18.778908 27.19297 18.789246 27.19596 18.796875 27.203125 C 18.805566 27.21251 18.809281 27.225297 18.818359 27.234375 C 18.827179 27.243194 18.8405 27.245453 18.849609 27.253906 C 18.856531 27.261261 18.858072 27.272134 18.865234 27.279297 C 18.873309 27.287372 18.88426 27.29106 18.892578 27.298828 C 18.900346 27.307146 18.904035 27.318097 18.912109 27.326172 C 18.919923 27.333986 18.931411 27.336223 18.939453 27.34375 C 18.94698 27.351792 18.949217 27.36328 18.957031 27.371094 C 18.964455 27.378517 18.974792 27.381507 18.982422 27.388672 C 18.989586 27.396301 18.992576 27.406639 19 27.414062 C 19.006772 27.420835 19.016494 27.423131 19.023438 27.429688 C 19.031533 27.438383 19.034539 27.450554 19.042969 27.458984 C 19.051009 27.467025 19.062031 27.470779 19.070312 27.478516 C 19.076503 27.48505 19.079556 27.493618 19.085938 27.5 C 19.093361 27.507423 19.103699 27.510414 19.111328 27.517578 C 19.118493 27.525208 19.121483 27.535545 19.128906 27.542969 C 19.136069 27.550131 19.146943 27.551672 19.154297 27.558594 C 19.161218 27.565948 19.162759 27.576822 19.169922 27.583984 C 19.177084 27.591147 19.187958 27.592688 19.195312 27.599609 C 19.202234 27.606964 19.203775 27.617838 19.210938 27.625 C 19.21771 27.631772 19.227431 27.634068 19.234375 27.640625 C 19.240932 27.647569 19.243228 27.65729 19.25 27.664062 C 19.256772 27.670835 19.266494 27.673131 19.273438 27.679688 C 19.279994 27.686631 19.28229 27.696353 19.289062 27.703125 C 19.295835 27.709897 19.305556 27.712193 19.3125 27.71875 C 19.319057 27.725694 19.321353 27.735415 19.328125 27.742188 C 19.334507 27.748569 19.343075 27.751622 19.349609 27.757812 C 19.3558 27.764347 19.358853 27.772915 19.365234 27.779297 C 19.371616 27.785679 19.380184 27.788731 19.386719 27.794922 C 19.392909 27.801456 19.395962 27.810024 19.402344 27.816406 C 19.408465 27.822527 19.417567 27.824133 19.423828 27.830078 C 19.429773 27.836339 19.431379 27.845442 19.4375 27.851562 C 19.443621 27.857683 19.452723 27.859289 19.458984 27.865234 C 19.464929 27.871496 19.466535 27.880598 19.472656 27.886719 C 19.478777 27.89284 19.487879 27.894446 19.494141 27.900391 C 19.500086 27.906652 19.501692 27.915754 19.507812 27.921875 C 19.513543 27.927605 19.52149 27.929971 19.527344 27.935547 C 19.53292 27.9414 19.535285 27.949348 19.541016 27.955078 C 19.546746 27.960809 19.554693 27.963174 19.560547 27.96875 C 19.566123 27.974604 19.568488 27.982551 19.574219 27.988281 C 19.578908 27.99297 19.585072 27.995414 19.589844 28 C 19.596009 28.006506 19.599114 28.01513 19.605469 28.021484 C 19.611823 28.027839 19.620447 28.030944 19.626953 28.037109 C 19.631539 28.041881 19.633983 28.048046 19.638672 28.052734 C 19.643751 28.057813 19.651074 28.059495 19.65625 28.064453 C 19.661208 28.069629 19.66289 28.076952 19.667969 28.082031 C 19.673416 28.087479 19.681941 28.088442 19.6875 28.09375 C 19.692829 28.099332 19.693749 28.107812 19.699219 28.113281 C 19.704298 28.11836 19.711621 28.120042 19.716797 28.125 C 19.721755 28.130176 19.723437 28.137499 19.728516 28.142578 C 19.732553 28.146616 19.738089 28.148383 19.742188 28.152344 C 19.747741 28.158172 19.750153 28.166169 19.755859 28.171875 C 19.761566 28.177581 19.769562 28.179993 19.775391 28.185547 C 19.779352 28.189646 19.781119 28.195181 19.785156 28.199219 C 19.789845 28.203908 19.79601 28.206352 19.800781 28.210938 C 19.805367 28.215709 19.807811 28.221874 19.8125 28.226562 C 19.816928 28.23099 19.823623 28.231992 19.828125 28.236328 C 19.832461 28.24083 19.833463 28.247525 19.837891 28.251953 C 19.842318 28.256381 19.849014 28.257383 19.853516 28.261719 C 19.857851 28.26622 19.858854 28.272916 19.863281 28.277344 C 19.867709 28.281772 19.874405 28.282774 19.878906 28.287109 C 19.883242 28.291611 19.884244 28.298307 19.888672 28.302734 C 19.892709 28.306772 19.898245 28.308539 19.902344 28.3125 C 19.906305 28.316599 19.908072 28.322134 19.912109 28.326172 C 19.916147 28.330209 19.921682 28.331976 19.925781 28.335938 C 19.929742 28.340036 19.931509 28.345572 19.935547 28.349609 C 19.939584 28.353647 19.94512 28.355414 19.949219 28.359375 C 19.95318 28.363474 19.954947 28.369009 19.958984 28.373047 C 19.962761 28.376823 19.968826 28.37715 19.972656 28.380859 C 19.976366 28.38469 19.976692 28.390755 19.980469 28.394531 C 19.984245 28.398308 19.99031 28.398634 19.994141 28.402344 C 19.99785 28.406174 19.998177 28.412239 20.001953 28.416016 C 20.005339 28.419402 20.010243 28.420496 20.013672 28.423828 C 20.017004 28.427257 20.018098 28.432161 20.021484 28.435547 C 20.024219 28.438282 20.028487 28.438707 20.03125 28.441406 C 20.035569 28.445889 20.036606 28.452622 20.041016 28.457031 C 20.045036 28.461052 20.050606 28.462852 20.054688 28.466797 C 20.057006 28.469162 20.058202 28.472265 20.060547 28.474609 C 20.062891 28.476954 20.065994 28.47815 20.068359 28.480469 C 20.072304 28.48455 20.074105 28.49012 20.078125 28.494141 C 20.081886 28.497902 20.087982 28.498258 20.091797 28.501953 C 20.09386 28.504053 20.09362 28.507682 20.095703 28.509766 C 20.098699 28.512761 20.102439 28.514624 20.105469 28.517578 C 20.108422 28.520608 20.110286 28.524348 20.113281 28.527344 C 20.116016 28.530078 20.120284 28.530503 20.123047 28.533203 C 20.125747 28.535966 20.126172 28.540234 20.128906 28.542969 C 20.131641 28.545703 20.135909 28.546128 20.138672 28.548828 C 20.141372 28.551591 20.141797 28.555859 20.144531 28.558594 C 20.146876 28.560938 20.149979 28.562134 20.152344 28.564453 C 20.154662 28.566818 20.155859 28.569921 20.158203 28.572266 C 20.160548 28.57461 20.16365 28.575806 20.166016 28.578125 C 20.168334 28.58049 20.169531 28.583593 20.171875 28.585938 C 20.174219 28.588282 20.177322 28.589478 20.179688 28.591797 C 20.182006 28.594162 20.183202 28.597265 20.185547 28.599609 C 20.18763 28.601693 20.19126 28.601453 20.193359 28.603516 C 20.195422 28.605615 20.195182 28.609245 20.197266 28.611328 C 20.199349 28.613411 20.202978 28.613171 20.205078 28.615234 C 20.207141 28.617334 20.206901 28.620964 20.208984 28.623047 C 20.211068 28.62513 20.214697 28.62489 20.216797 28.626953 C 20.21886 28.629053 20.21862 28.632682 20.220703 28.634766 C 20.222396 28.636459 20.224859 28.636992 20.226562 28.638672 C 20.228242 28.640376 20.228776 28.642838 20.230469 28.644531 C 20.232162 28.646224 20.234624 28.646758 20.236328 28.648438 C 20.238008 28.650141 20.238541 28.652604 20.240234 28.654297 C 20.241537 28.6556 20.242831 28.656908 20.244141 28.658203 C 20.245435 28.659512 20.246744 28.660807 20.248047 28.662109 C 20.24935 28.663412 20.250644 28.664721 20.251953 28.666016 C 20.253248 28.667325 20.254557 28.668619 20.255859 28.669922 C 20.257162 28.671225 20.258456 28.672533 20.259766 28.673828 C 20.26106 28.675137 20.262369 28.676432 20.263672 28.677734 C 20.264714 28.678776 20.266532 28.678651 20.267578 28.679688 C 20.268615 28.680733 20.26849 28.682552 20.269531 28.683594 C 20.270573 28.684635 20.272392 28.68451 20.273438 28.685547 C 20.274474 28.686593 20.274349 28.688411 20.275391 28.689453 C 20.275391 28.689453 20.277344 28.691406 20.277344 28.691406 C 20.277344 28.691406 20.279297 28.693359 20.279297 28.693359 C 20.279297 28.693359 20.28125 28.695312 20.28125 28.695312 C 20.28125 28.695312 20.283203 28.697266 20.283203 28.697266 C 20.283203 28.697266 20.285156 28.699219 20.285156 28.699219 C 20.285156 28.699219 20.287109 28.701172 20.287109 28.701172 C 20.287109 28.701172 20.289062 28.701172 20.289062 28.701172 C 20.289062 28.701172 20.289062 28.703125 20.289062 28.703125 C 20.290357 28.704434 20.291666 28.705729 20.292969 28.707031 C 20.385434 28.799497 20.495036 28.87019 20.613281 28.919922 C 20.613281 28.919922 20.615234 28.921875 20.615234 28.921875 C 20.736116 28.97233 20.86647 29 21 29 L 29 29 C 29.265216 29 29.519494 28.894567 29.707031 28.707031 C 29.894567 28.519494 30 28.265216 30 28 L 30 21 L 29.998047 21 L 29.998047 20.998047 L 29.996094 20.998047 L 29.996094 20.996094 L 29.994141 20.996094 L 29.994141 20.994141 L 29.990234 20.994141 L 29.990234 20.990234 L 29.986328 20.990234 L 29.986328 20.986328 L 29.982422 20.986328 L 29.982422 20.982422 L 29.976562 20.982422 L 29.976562 20.976562 L 29.970703 20.976562 L 29.970703 20.970703 L 29.962891 20.970703 L 29.962891 20.962891 L 29.955078 20.962891 L 29.955078 20.955078 L 29.947266 20.955078 L 29.947266 20.947266 L 29.9375 20.947266 L 29.9375 20.9375 L 29.927734 20.9375 L 29.927734 20.927734 L 29.916016 20.927734 L 29.916016 20.916016 L 29.904297 20.916016 L 29.904297 20.904297 L 29.892578 20.904297 L 29.892578 20.892578 L 29.878906 20.892578 L 29.878906 20.878906 L 29.865234 20.878906 L 29.865234 20.865234 L 29.851562 20.865234 L 29.851562 20.851562 L 29.835938 20.851562 L 29.835938 20.835938 L 29.820312 20.835938 L 29.820312 20.820312 L 29.802734 20.820312 L 29.802734 20.802734 L 29.785156 20.802734 L 29.785156 20.787109 L 29.767578 20.787109 L 29.767578 20.767578 L 29.748047 20.767578 L 29.748047 20.748047 L 29.728516 20.748047 L 29.728516 20.728516 L 29.708984 20.728516 L 29.708984 20.708984 L 29.6875 20.708984 L 29.6875 20.6875 L 29.666016 20.6875 L 29.666016 20.666016 L 29.642578 20.666016 L 29.642578 20.642578 L 29.619141 20.642578 L 29.619141 20.619141 L 29.595703 20.619141 L 29.595703 20.595703 L 29.570312 20.595703 L 29.570312 20.570312 L 29.544922 20.570312 L 29.544922 20.544922 L 29.519531 20.544922 L 29.519531 20.519531 L 29.492188 20.519531 L 29.492188 20.492188 L 29.462891 20.492188 L 29.462891 20.464844 L 29.435547 20.464844 L 29.435547 20.435547 L 29.40625 20.435547 L 29.40625 20.40625 L 29.375 20.40625 L 29.375 20.375 L 29.345703 20.375 L 29.345703 20.345703 L 29.314453 20.345703 L 29.314453 20.314453 L 29.28125 20.314453 L 29.28125 20.28125 L 29.248047 20.28125 L 29.248047 20.248047 L 29.214844 20.248047 L 29.214844 20.214844 L 29.179688 20.214844 L 29.179688 20.179688 L 29.144531 20.179688 L 29.144531 20.144531 L 29.109375 20.144531 L 29.109375 20.109375 L 29.072266 20.109375 L 29.072266 20.072266 L 29.035156 20.072266 L 29.035156 20.035156 L 28.996094 20.035156 L 28.996094 19.996094 L 28.957031 19.996094 L 28.957031 19.957031 L 28.917969 19.957031 L 28.917969 19.917969 L 28.876953 19.917969 L 28.876953 19.876953 L 28.835938 19.876953 L 28.835938 19.835938 L 28.792969 19.835938 L 28.792969 19.792969 L 28.751953 19.792969 L 28.751953 19.751953 L 28.707031 19.751953 L 28.707031 19.707031 L 28.664062 19.707031 L 28.664062 19.664062 L 28.619141 19.664062 L 28.619141 19.619141 L 28.572266 19.619141 L 28.572266 19.572266 L 28.527344 19.572266 L 28.527344 19.527344 L 28.478516 19.527344 L 28.478516 19.478516 L 28.431641 19.478516 L 28.431641 19.431641 L 28.382812 19.431641 L 28.382812 19.382812 L 28.333984 19.382812 L 28.333984 19.333984 L 28.283203 19.333984 L 28.283203 19.283203 L 28.232422 19.283203 L 28.232422 19.232422 L 28.181641 19.232422 L 28.181641 19.181641 L 28.128906 19.181641 L 28.128906 19.128906 L 28.076172 19.128906 L 28.076172 19.076172 L 28.021484 19.076172 L 28.021484 19.021484 L 27.966797 19.021484 L 27.966797 18.966797 L 27.912109 18.966797 L 27.912109 18.912109 L 27.855469 18.912109 L 27.855469 18.855469 L 27.798828 18.855469 L 27.798828 18.798828 L 27.740234 18.798828 L 27.740234 18.740234 L 27.683594 18.740234 L 27.683594 18.683594 L 27.623047 18.683594 L 27.623047 18.623047 L 27.564453 18.623047 L 27.564453 18.564453 L 27.503906 18.564453 L 27.503906 18.503906 L 27.441406 18.503906 L 27.441406 18.441406 L 27.380859 18.441406 L 27.380859 18.380859 L 27.318359 18.380859 L 27.318359 18.318359 L 27.253906 18.318359 L 27.253906 18.253906 L 27.189453 18.253906 L 27.189453 18.189453 L 27.125 18.189453 L 27.125 18.125 L 27.058594 18.125 L 27.058594 18.058594 L 26.992188 18.058594 L 26.992188 17.992188 L 26.925781 17.992188 L 26.925781 17.925781 L 26.857422 17.925781 L 26.857422 17.857422 L 26.789062 17.857422 L 26.789062 17.789062 L 26.71875 17.789062 L 26.71875 17.71875 L 26.648438 17.71875 L 26.648438 17.648438 L 26.578125 17.648438 L 26.578125 17.578125 L 26.505859 17.578125 L 26.505859 17.505859 L 26.433594 17.505859 L 26.433594 17.433594 L 26.361328 17.433594 L 26.361328 17.361328 L 26.287109 17.361328 L 26.287109 17.287109 L 26.212891 17.287109 L 26.212891 17.212891 L 26.136719 17.212891 L 26.136719 17.136719 L 26.060547 17.136719 L 26.060547 17.060547 L 25.984375 17.060547 L 25.984375 16.984375 L 25.90625 16.984375 L 25.90625 16.90625 L 25.828125 16.90625 L 25.828125 16.828125 L 25.75 16.828125 L 25.75 16.75 L 25.669922 16.75 L 25.669922 16.669922 L 25.587891 16.669922 L 25.587891 16.587891 L 25.507812 16.587891 L 25.507812 16.507812 L 25.425781 16.507812 L 25.425781 16.425781 L 25.341797 16.425781 L 25.341797 16.341797 L 25.259766 16.341797 L 25.259766 16.259766 L 25.175781 16.259766 L 25.175781 16.175781 L 25.089844 16.175781 L 25.089844 16.089844 L 25.003906 16.089844 L 25.003906 16.003906 L 24.917969 16.003906 L 24.917969 15.917969 L 24.830078 15.917969 L 24.830078 15.830078 L 24.742188 15.830078 L 24.742188 15.742188 L 24.654297 15.742188 L 24.654297 15.654297 L 24.564453 15.654297 L 24.564453 15.564453 L 24.474609 15.564453 L 24.474609 15.474609 L 24.382812 15.474609 L 24.382812 15.382812 L 24.291016 15.382812 L 24.291016 15.291016 L 24.199219 15.291016 L 24.199219 15.199219 L 24.105469 15.199219 L 24.105469 15.105469 L 24.011719 15.105469 L 24.011719 15.011719 L 23.916016 15.011719 L 23.916016 14.916016 L 23.822266 14.916016 L 23.822266 14.822266 L 23.724609 14.822266 L 23.724609 14.724609 L 23.628906 14.724609 L 23.628906 14.628906 L 23.53125 14.628906 L 23.53125 14.53125 L 23.431641 14.53125 L 23.431641 14.431641 L 23.333984 14.431641 L 23.333984 14.333984 L 23.234375 14.333984 L 23.234375 14.234375 L 23.132812 14.234375 L 23.132812 14.132812 L 23.03125 14.132812 L 23.03125 14.03125 L 22.929688 14.03125 L 22.929688 13.929688 L 22.826172 13.929688 L 22.826172 13.826172 L 22.722656 13.826172 L 22.722656 13.722656 L 22.619141 13.722656 L 22.619141 13.619141 L 22.513672 13.619141 L 22.513672 13.513672 L 22.408203 13.513672 L 22.408203 13.408203 L 22.300781 13.408203 L 22.300781 13.300781 L 22.193359 13.300781 L 22.193359 13.193359 L 22.085938 13.193359 L 22.085938 13.085938 L 21.976562 13.085938 L 21.976562 12.976562 L 21.867188 12.976562 L 21.867188 12.867188 L 21.757812 12.867188 L 21.757812 12.757812 L 21.646484 12.757812 L 21.646484 12.646484 L 21.535156 12.646484 L 21.535156 12.535156 L 21.421875 12.535156 L 21.421875 12.421875 L 21.308594 12.421875 L 21.308594 12.308594 L 21.195312 12.308594 L 21.195312 12.195312 L 21.080078 12.195312 L 21.080078 12.080078 L 20.964844 12.080078 L 20.964844 11.964844 L 20.847656 11.964844 L 20.847656 11.847656 L 20.730469 11.847656 L 20.730469 11.730469 L 20.613281 11.730469 L 20.613281 11.613281 L 20.496094 11.613281 L 20.496094 11.496094 L 20.376953 11.496094 L 20.376953 11.376953 L 20.255859 11.376953 L 20.255859 11.255859 L 20.134766 11.255859 L 20.134766 11.134766 L 20.013672 11.134766 L 20.013672 11.013672 L 19.892578 11.013672 L 19.892578 10.892578 L 19.769531 10.892578 L 19.769531 10.769531 L 19.644531 10.769531 L 19.644531 10.644531 L 19.521484 10.644531 L 19.521484 10.521484 L 19.396484 10.521484 L 19.396484 10.396484 L 19.269531 10.396484 L 19.269531 10.269531 L 19.142578 10.269531 L 19.142578 10.142578 L 19.015625 10.142578 L 19.015625 10.015625 L 18.888672 10.015625 L 18.888672 9.8886719 L 18.759766 9.8886719 L 18.759766 9.7597656 L 18.628906 9.7597656 L 18.628906 9.6289062 L 18.5 9.6289062 L 18.5 9.5 L 18.369141 9.5 L 18.369141 9.3691406 L 18.236328 9.3691406 L 18.236328 9.2363281 L 18.103516 9.2363281 L 18.103516 9.1035156 L 17.970703 9.1035156 L 17.970703 8.9707031 L 17.835938 8.9707031 L 17.835938 8.8359375 L 17.701172 8.8359375 L 17.701172 8.7011719 L 17.566406 8.7011719 L 17.566406 8.5664062 L 17.429688 8.5664062 L 17.429688 8.4296875 L 17.292969 8.4296875 L 17.292969 8.2929688 L 17.154297 8.2929688 L 17.154297 8.1542969 L 17.017578 8.1542969 L 17.017578 8.0175781 L 16.876953 8.0175781 L 16.876953 7.8769531 L 16.738281 7.8769531 L 16.738281 7.7382812 L 16.597656 7.7382812 L 16.597656 7.5976562 L 16.455078 7.5976562 L 16.455078 7.4550781 L 16.3125 7.4550781 L 16.3125 7.3125 L 16.169922 7.3125 L 16.169922 7.1699219 L 16.027344 7.1699219 L 16.027344 7.0273438 L 15.882812 7.0273438 L 15.882812 6.8828125 L 15.736328 6.8828125 L 15.736328 6.7363281 L 15.591797 6.7363281 L 15.591797 6.5917969 L 15.445312 6.5917969 L 15.445312 6.4453125 L 15.296875 6.4453125 L 15.296875 6.296875 L 15.148438 6.296875 L 15.148438 6.1484375 L 13.148438 6.1484375 L 14.148438 8.1484375 L 13.582031 8.1484375 L 13.517578 8.0175781 L 13.447266 8.0175781 L 13.376953 7.8769531 L 13.308594 7.8769531 L 13.238281 7.7382812 L 13.167969 7.7382812 L 13.097656 7.5976562 L 13.025391 7.5976562 L 12.955078 7.4550781 L 12.882812 7.4550781 L 12.8125 7.3125 L 12.742188 7.3125 L 12.669922 7.1699219 L 12.597656 7.1699219 L 12.527344 7.0273438 L 12.455078 7.0273438 L 12.382812 6.8828125 L 12.308594 6.8828125 L 12.236328 6.7363281 L 12.164062 6.7363281 L 12.091797 6.5917969 L 12.019531 6.5917969 L 11.945312 6.4453125 L 11.871094 6.4453125 L 11.796875 6.296875 L 11.722656 6.296875 L 11.648438 6.1484375 L 10.648438 6.1484375 L 11.648438 8.1484375 L 11.082031 8.1484375 L 11.017578 8.0175781 L 10.947266 8.0175781 L 10.876953 7.8769531 L 10.808594 7.8769531 L 10.738281 7.7382812 L 10.667969 7.7382812 L 10.597656 7.5976562 L 10.525391 7.5976562 L 10.455078 7.4550781 L 10.382812 7.4550781 L 10.3125 7.3125 L 10.242188 7.3125 L 10.169922 7.1699219 L 10.097656 7.1699219 L 10.027344 7.0273438 L 9.9550781 7.0273438 L 9.8828125 6.8828125 L 9.8085938 6.8828125 L 9.7363281 6.7363281 L 9.6640625 6.7363281 L 9.5917969 6.5917969 L 9.5195312 6.5917969 L 9.4453125 6.4453125 L 9.3710938 6.4453125 L 9.296875 6.296875 L 9.2226562 6.296875 L 9.1484375 6.1484375 L 8.1484375 6.1484375 L 9.1484375 8.1484375 L 8.5820312 8.1484375 L 8.5175781 8.0175781 L 8.4472656 8.0175781 L 8.3769531 7.8769531 L 8.3085938 7.8769531 L 8.2382812 7.7382812 L 8.1679688 7.7382812 L 8.0976562 7.5976562 L 8.0253906 7.5976562 L 7.9550781 7.4550781 L 7.8828125 7.4550781 L 7.8125 7.3125 L 7.7421875 7.3125 L 7.6699219 7.1699219 L 7.5976562 7.1699219 L 7.5273438 7.0273438 L 7.4550781 7.0273438 L 7.3828125 6.8828125 L 7.3085938 6.8828125 L 7.2363281 6.7363281 L 7.1640625 6.7363281 L 7.0917969 6.5917969 L 7.0195312 6.5917969 L 6.9453125 6.4453125 L 6.8710938 6.4453125 L 6.796875 6.296875 L 6.7226562 6.296875 L 6.6484375 6.1484375 L 6.1484375 6.1484375 z "
       id="path5343"
       style="fill-opacity:1;fill:url(#linearGradient6218);opacity:0.2"
       clip-path="url(#clipPath6223)" />
    <path
       style="fill:none"
       inkscape:connector-curvature="0"
       id="path4"
       d="m 3.9999777,4.0333382 12.0000003,0 0,11.9333328 -12.0000003,0 z" />
    <path
       d="m 18.999978,19.033339 12,0 0,11.933333 -12,0 z"
       id="path9754"
       inkscape:connector-curvature="0"
       style="fill:none" />
    <path
       inkscape:connector-curvature="0"
       d="m 12.999978,6.0000048 1,2 -1.5,0 -1,-2 -1,0 1,2 -1.5000003,0 -1,-2 -1,0 1,2 -1.5,0 -1,-2 -0.5,0 a 1,1 0 0 0 -1,1 l 0,6.0000002 a 1,1 0 0 0 1,1 l 8.0000003,0 a 1,1 0 0 0 1,-1 l 0,-7.0000002 -2,0 z"
       id="path5261"
       style="fill:#ffffff" />
  </g>
</svg>
