<?xml version="1.0" encoding="UTF-8" standalone="no"?>
<!-- Created with Inkscape (http://www.inkscape.org/) -->

<svg
   xmlns:dc="http://purl.org/dc/elements/1.1/"
   xmlns:cc="http://creativecommons.org/ns#"
   xmlns:rdf="http://www.w3.org/1999/02/22-rdf-syntax-ns#"
   xmlns:svg="http://www.w3.org/2000/svg"
   xmlns="http://www.w3.org/2000/svg"
   xmlns:xlink="http://www.w3.org/1999/xlink"
   xmlns:sodipodi="http://sodipodi.sourceforge.net/DTD/sodipodi-0.dtd"
   xmlns:inkscape="http://www.inkscape.org/namespaces/inkscape"
   inkscape:export-ydpi="648"
   inkscape:export-xdpi="648"
   inkscape:export-filename="/home/juergen/Schreibtisch/qdad.png"
   width="5.6444445mm"
   height="5.6444445mm"
   viewBox="0 0 20 20"
   id="svg2"
   version="1.1"
   inkscape:version="0.91 r13725"
   sodipodi:docname="Weather.svg">
  <sodipodi:namedview
     id="base"
     pagecolor="#ffffff"
     bordercolor="#666666"
     borderopacity="1.0"
     inkscape:pageopacity="0.0"
     inkscape:pageshadow="2"
     inkscape:zoom="22.4"
     inkscape:cx="9.902542"
     inkscape:cy="8.5527676"
     inkscape:document-units="px"
     inkscape:current-layer="layer1"
     showgrid="true"
     fit-margin-top="0"
     fit-margin-left="0"
     fit-margin-right="0"
     fit-margin-bottom="0"
     showguides="true"
     inkscape:guide-bbox="true"
     inkscape:window-width="1366"
     inkscape:window-height="726"
     inkscape:window-x="0"
     inkscape:window-y="0"
     inkscape:window-maximized="1"
     inkscape:snap-grids="true"
     inkscape:snap-to-guides="true">
    <inkscape:grid
       type="xygrid"
       id="grid4138" />
    <sodipodi:guide
       position="10,18"
       orientation="0,1"
       id="guide4140" />
    <sodipodi:guide
       position="10,2"
       orientation="0,1"
       id="guide4142" />
    <sodipodi:guide
       position="2,10"
       orientation="1,0"
       id="guide4144" />
    <sodipodi:guide
       position="0,0"
       orientation="0,20"
       id="guide4146" />
    <sodipodi:guide
       position="20,0"
       orientation="-20,0"
       id="guide4148" />
    <sodipodi:guide
       position="20,20"
       orientation="0,-20"
       id="guide4150" />
    <sodipodi:guide
       position="0,20"
       orientation="20,0"
       id="guide4152" />
    <sodipodi:guide
       position="18,10"
       orientation="1,0"
       id="guide4154" />
    <sodipodi:guide
       position="10,10"
       orientation="-0.70710678,0.70710678"
       id="guide4156" />
    <sodipodi:guide
       position="10,10"
       orientation="0.70710678,0.70710678"
       id="guide4158" />
    <sodipodi:guide
       position="4,10"
       orientation="1,0"
       id="guide4160" />
    <sodipodi:guide
       position="16,10"
       orientation="1,0"
       id="guide4162" />
    <sodipodi:guide
       position="10,16"
       orientation="0,1"
       id="guide4164" />
    <sodipodi:guide
       position="10,4"
       orientation="0,1"
       id="guide4166" />
    <sodipodi:guide
       position="10,15"
       orientation="0,1"
       id="guide4168" />
    <sodipodi:guide
       position="10,5"
       orientation="0,1"
       id="guide4170" />
    <sodipodi:guide
       position="5,10"
       orientation="1,0"
       id="guide4172" />
    <sodipodi:guide
       position="15,10"
       orientation="1,0"
       id="guide4174" />
  </sodipodi:namedview>
  <defs
     id="defs4">
    <linearGradient
       inkscape:collect="always"
       id="linearGradient7111">
      <stop
         style="stop-color:#ffeb3b;stop-opacity:1;"
         offset="0"
         id="stop7113" />
      <stop
         style="stop-color:#ffeb3b;stop-opacity:0;"
         offset="1"
         id="stop7115" />
    </linearGradient>
    <clipPath
       id="clipPath12478"
       clipPathUnits="userSpaceOnUse">
      <circle
         r="10"
         cy="10.000005"
         cx="9.9999781"
         id="circle12480"
         style="opacity:1;fill:#2196f3;fill-opacity:1;stroke:none;stroke-width:0.05069799;stroke-miterlimit:4;stroke-dasharray:none;stroke-opacity:1" />
    </clipPath>
    <clipPath
       clipPathUnits="userSpaceOnUse"
       id="clipPath13251">
      <circle
         r="10"
         cy="10.000005"
         cx="9.9999781"
         id="circle13253"
         style="opacity:1;fill:#2196f3;fill-opacity:1;stroke:none;stroke-width:0.05069799;stroke-miterlimit:4;stroke-dasharray:none;stroke-opacity:1"
         inkscape:export-filename="/home/juergen/path4136.png"
         inkscape:export-xdpi="648"
         inkscape:export-ydpi="648" />
    </clipPath>
    <clipPath
       id="clipPath5054"
       clipPathUnits="userSpaceOnUse">
      <circle
         r="10"
         cy="10.000005"
         cx="9.9999781"
         id="circle5056"
         style="opacity:1;fill:#2196f3;fill-opacity:1;stroke:none;stroke-width:0.05069799;stroke-miterlimit:4;stroke-dasharray:none;stroke-opacity:1"
         inkscape:export-filename="/home/juergen/path4136.png"
         inkscape:export-xdpi="648"
         inkscape:export-ydpi="648" />
    </clipPath>
    <filter
       id="filter4280"
       inkscape:label="Colorize"
       style="color-interpolation-filters:sRGB;">
      <feComposite
         id="feComposite4282"
         result="composite1"
         k2="1"
         k1="0"
         operator="arithmetic"
         in2="SourceGraphic" />
      <feColorMatrix
         id="feColorMatrix4284"
         result="colormatrix1"
         type="saturate"
         values="1"
         in="composite1" />
      <feFlood
         id="feFlood4286"
         result="flood1"
         flood-color="rgb(0,0,0)"
         flood-opacity="1" />
      <feBlend
         id="feBlend4288"
         result="blend1"
         mode="multiply"
         in2="colormatrix1"
         in="flood1" />
      <feBlend
         id="feBlend4290"
         result="blend2"
         mode="screen"
         in2="blend1" />
      <feColorMatrix
         id="feColorMatrix4292"
         result="colormatrix2"
         type="saturate"
         values="1"
         in="blend2" />
      <feComposite
         id="feComposite4294"
         result="composite2"
         k2="1"
         operator="in"
         in2="SourceGraphic"
         in="colormatrix2" />
    </filter>
    <linearGradient
       inkscape:collect="always"
       xlink:href="#linearGradient7111"
       id="linearGradient7117"
       x1="10"
       y1="10"
       x2="20"
       y2="20"
       gradientUnits="userSpaceOnUse" />
    <clipPath
       clipPathUnits="userSpaceOnUse"
       id="clipPath7122">
      <circle
         r="10"
         cy="10.000005"
         cx="9.9999781"
         id="circle7124"
         style="opacity:1;fill:#2196f3;fill-opacity:1;stroke:none;stroke-width:0.05069799;stroke-miterlimit:4;stroke-dasharray:none;stroke-opacity:1"
         inkscape:export-filename="/home/juergen/path4136.png"
         inkscape:export-xdpi="648"
         inkscape:export-ydpi="648" />
    </clipPath>
  </defs>
  <metadata
     id="metadata7">
    <rdf:RDF>
      <cc:Work
         rdf:about="">
        <dc:format>image/svg+xml</dc:format>
        <dc:type
           rdf:resource="http://purl.org/dc/dcmitype/StillImage" />
        <dc:title />
      </cc:Work>
    </rdf:RDF>
  </metadata>
  <g
     inkscape:label="Hintergrund"
     inkscape:groupmode="layer"
     id="layer1"
     transform="translate(1058.1428,-861.93365)">
    <circle
       inkscape:export-ydpi="648"
       inkscape:export-xdpi="648"
       inkscape:export-filename="/home/juergen/Schreibtisch/www.png"
       style="opacity:1;fill:#2196f3;fill-opacity:1;stroke:none;stroke-width:0.05069799;stroke-miterlimit:4;stroke-dasharray:none;stroke-opacity:1"
       id="path4136"
       cx="-1048.1428"
       cy="871.93365"
       r="10" />
  </g>
  <g
     style="display:inline"
     inkscape:groupmode="layer"
     id="layer2"
     inkscape:label="Icon">
    <path
       d="m 3.9999777,4.0333382 12.0000003,0 0,11.9333328 -12.0000003,0 z"
       id="path4"
       inkscape:connector-curvature="0"
       style="fill:none" />
    <path
       style="fill:none"
       inkscape:connector-curvature="0"
       id="path9754"
       d="m 18.999978,19.033339 12,0 0,11.933333 -12,0 z" />
    <path
       transform="matrix(0.45416667,0,0,0.45416667,5.0041444,5.0497917)"
       d="m -1,-0.55 24,0 0,24 -24,0 z"
       id="path4244"
       inkscape:connector-curvature="0"
       style="fill:none;filter:url(#filter4280)" />
    <path
       transform="matrix(0.45416667,0,0,0.45416667,5.0041444,5.0497917)"
       d="M 5.76,4.29 3.96,2.5 2.55,3.91 4.34,5.7 5.76,4.29 Z M 3,9.95 l -3,0 0,2 3,0 0,-2 z M 12,0 l -2,0 0,2.95 2,0 L 12,0 Z M 19.45,3.91 18.04,2.5 16.25,4.29 17.66,5.7 19.45,3.91 Z m -3.21,13.7 1.79,1.8 1.41,-1.41 -1.8,-1.79 -1.4,1.4 z M 19,9.95 l 0,2 3,0 0,-2 -3,0 z m -8,-5 c -3.31,0 -6,2.69 -6,6 0,3.31 2.69,6 6,6 3.31,0 6,-2.69 6,-6 0,-3.31 -2.69,-6 -6,-6 z m -1,16.95 2,0 0,-2.95 -2,0 0,2.95 z M 2.55,17.99 3.96,19.4 5.75,17.6 4.34,16.19 2.55,17.99 Z"
       id="path4246"
       style="fill:#ffeb3b;filter:url(#filter4280)"
       inkscape:connector-curvature="0" />
    <path
       transform="matrix(0.45416667,0,0,0.45416667,20.004144,20.049792)"
       style="fill:none;filter:url(#filter4280)"
       inkscape:connector-curvature="0"
       id="path4298"
       d="m -1,-0.55 24,0 0,24 -24,0 z" />
    <path
       style="fill:url(#linearGradient7117);filter:url(#filter4280);fill-opacity:1;opacity:0.2"
       d="M 9.6953125 5.1992188 L 9.6953125 6.5390625 L 9.84375 6.5390625 L 9.84375 6.6875 L 9.9902344 6.6875 L 9.9902344 6.8339844 L 10.136719 6.8339844 L 10.136719 6.9804688 L 10.283203 6.9804688 L 10.283203 7.1269531 L 10.427734 7.1269531 L 10.427734 7.2714844 L 10.572266 7.2714844 L 10.572266 7.4160156 L 10.716797 7.4160156 L 10.716797 7.5078125 C 10.533275 7.468729 10.343495 7.4472656 10.148438 7.4472656 C 9.5608682 7.4472656 9.0215725 7.6379378 8.5761719 7.9550781 L 8.5019531 7.8808594 L 8.3886719 7.7695312 L 8.3554688 7.7363281 L 8.3574219 7.734375 L 8.2109375 7.5898438 L 8.0839844 7.4628906 L 8.0644531 7.4433594 L 8.0625 7.4414062 L 7.9160156 7.296875 L 7.9179688 7.2949219 L 7.7695312 7.1464844 L 6.9511719 6.3339844 L 6.3105469 6.9746094 L 7.125 7.7871094 L 7.2070312 7.8691406 L 7.2148438 7.8769531 L 7.2148438 7.8789062 L 7.2441406 7.9082031 L 7.2714844 7.9355469 L 7.2734375 7.9355469 L 7.4199219 8.0820312 L 7.4648438 8.1269531 L 7.4765625 8.1367188 L 7.4746094 8.1386719 L 7.5253906 8.1875 L 7.5410156 8.2050781 L 7.5429688 8.2070312 L 7.5683594 8.2324219 L 7.7128906 8.375 L 7.7832031 8.4472656 L 7.9335938 8.5976562 C 7.6163299 9.0431097 7.4238281 9.5841802 7.4238281 10.171875 C 7.4238281 10.366279 7.445546 10.555329 7.484375 10.738281 L 7.3925781 10.738281 L 7.3925781 10.595703 L 7.2480469 10.595703 L 7.2480469 10.451172 L 7.1035156 10.451172 L 7.1035156 10.306641 L 6.9570312 10.306641 L 6.9570312 10.160156 L 6.8105469 10.160156 L 6.8105469 10.013672 L 6.6640625 10.013672 L 6.6640625 9.8652344 L 6.515625 9.8652344 L 6.515625 9.7167969 L 5.1523438 9.7167969 L 5.1523438 10.625 L 5.3007812 10.625 L 5.3007812 10.773438 L 5.4492188 10.773438 L 5.4492188 10.921875 L 5.5957031 10.921875 L 5.5957031 11.068359 L 5.7402344 11.068359 L 5.7402344 11.214844 L 5.8867188 11.214844 L 5.8867188 11.359375 L 6.03125 11.359375 L 6.03125 11.503906 L 6.1738281 11.503906 L 6.1738281 11.646484 L 6.3164062 11.646484 L 6.3164062 11.791016 L 6.4589844 11.791016 L 6.4589844 11.931641 L 6.6015625 11.931641 L 6.6015625 12.074219 L 6.7421875 12.074219 L 6.7421875 12.214844 L 6.8808594 12.214844 L 6.8808594 12.355469 L 7.0214844 12.355469 L 7.0214844 12.494141 L 7.1601562 12.494141 L 7.1601562 12.585938 L 7.125 12.550781 L 6.3105469 13.369141 L 6.4589844 13.517578 L 6.9511719 14.009766 L 7.0996094 14.158203 L 7.2460938 14.302734 L 7.2460938 14.304688 L 7.3945312 14.451172 L 7.4746094 14.53125 L 7.4746094 14.533203 L 7.5390625 14.595703 L 7.5390625 14.597656 L 7.8300781 14.886719 L 7.9726562 15.03125 L 8.1152344 15.173828 L 8.2578125 15.314453 L 8.2578125 15.316406 L 8.4550781 15.511719 L 8.4550781 15.513672 L 8.5410156 15.597656 L 8.5917969 15.648438 L 8.5917969 15.650391 L 8.6796875 15.736328 L 8.6796875 15.738281 L 8.7304688 15.787109 L 8.8203125 15.876953 L 8.9570312 16.015625 L 9.0957031 16.154297 L 9.2324219 16.291016 L 9.3691406 16.427734 L 9.5039062 16.5625 L 9.6386719 16.697266 L 9.7734375 16.832031 L 9.90625 16.964844 L 10.039062 17.097656 L 10.169922 17.226562 L 10.169922 17.228516 L 10.302734 17.359375 L 10.431641 17.488281 L 10.431641 17.490234 L 10.683594 17.740234 L 10.683594 17.742188 L 10.691406 17.748047 L 10.773438 17.832031 L 10.945312 18.003906 L 11.072266 18.128906 L 11.072266 18.130859 L 11.175781 18.232422 L 11.175781 18.234375 L 11.199219 18.255859 L 11.296875 18.353516 L 11.296875 18.355469 L 11.324219 18.380859 L 11.447266 18.505859 L 11.695312 18.751953 L 11.816406 18.875 L 11.9375 18.996094 L 12.058594 19.115234 L 12.058594 19.117188 L 12.242188 19.298828 L 12.242188 19.300781 L 12.298828 19.355469 L 12.533203 19.591797 L 12.650391 19.708984 L 12.767578 19.826172 L 12.882812 19.939453 L 12.882812 19.941406 L 12.998047 20.054688 L 13.111328 20.169922 L 13.224609 20.28125 L 13.224609 20.283203 L 13.337891 20.394531 L 13.355469 20.412109 L 13.355469 20.414062 L 13.449219 20.505859 L 13.449219 20.507812 L 13.560547 20.617188 L 13.570312 20.628906 L 13.65625 20.712891 L 13.669922 20.728516 L 13.779297 20.837891 L 13.78125 20.839844 L 13.888672 20.947266 L 13.996094 21.054688 L 14.210938 21.267578 L 14.234375 21.291016 L 14.421875 21.478516 L 14.423828 21.480469 L 14.464844 21.523438 L 14.525391 21.583984 L 14.693359 21.75 L 14.693359 21.751953 L 14.732422 21.789062 L 14.791016 21.847656 L 14.791016 21.849609 L 14.796875 21.853516 L 14.806641 21.865234 L 14.808594 21.867188 L 14.833984 21.892578 L 14.935547 21.994141 L 15.035156 22.091797 L 15.035156 22.09375 L 15.111328 22.167969 L 15.136719 22.193359 L 15.148438 22.205078 L 15.150391 22.207031 L 15.333984 22.390625 L 15.361328 22.417969 L 15.361328 22.419922 L 15.431641 22.488281 L 15.453125 22.509766 L 15.453125 22.511719 L 15.527344 22.583984 L 15.527344 22.585938 L 15.625 22.681641 L 15.673828 22.730469 L 15.71875 22.777344 L 15.814453 22.873047 L 15.816406 22.873047 L 16.001953 23.058594 L 16.046875 23.105469 L 16.09375 23.152344 L 16.185547 23.242188 L 16.185547 23.244141 L 16.277344 23.333984 L 16.457031 23.513672 L 16.462891 23.519531 L 16.488281 23.546875 L 16.544922 23.603516 L 16.707031 23.765625 L 16.720703 23.777344 L 16.742188 23.798828 L 16.769531 23.826172 L 16.777344 23.835938 L 16.779297 23.837891 L 16.806641 23.865234 L 16.892578 23.951172 L 16.923828 23.982422 L 16.976562 24.033203 L 16.976562 24.035156 L 17.0625 24.119141 L 17.068359 24.125 L 17.068359 24.126953 L 17.082031 24.138672 L 17.087891 24.146484 L 17.091797 24.150391 L 17.101562 24.160156 L 17.146484 24.205078 L 17.222656 24.279297 L 17.222656 24.28125 L 17.228516 24.285156 L 17.298828 24.355469 L 17.298828 24.357422 L 17.310547 24.367188 L 17.375 24.433594 L 17.388672 24.447266 L 17.390625 24.449219 L 17.392578 24.451172 L 17.523438 24.580078 L 17.523438 24.582031 L 17.552734 24.609375 L 17.595703 24.652344 L 17.595703 24.654297 L 17.603516 24.660156 L 17.630859 24.689453 L 17.708984 24.767578 L 17.787109 24.845703 L 17.863281 24.921875 L 18.015625 25.072266 L 18.089844 25.148438 L 18.164062 25.222656 L 18.236328 25.294922 L 18.308594 25.367188 L 18.380859 25.439453 L 18.451172 25.509766 L 18.521484 25.580078 L 18.591797 25.650391 L 18.726562 25.783203 L 18.726562 25.785156 L 18.728516 25.785156 L 18.740234 25.798828 L 18.742188 25.800781 L 18.794922 25.853516 L 18.861328 25.919922 L 18.927734 25.986328 L 18.992188 26.050781 L 19.017578 26.074219 L 19.017578 26.076172 L 19.056641 26.113281 L 19.056641 26.115234 L 19.074219 26.132812 L 19.128906 26.185547 L 19.128906 26.1875 L 19.183594 26.240234 L 19.183594 26.242188 L 19.185547 26.244141 L 19.306641 26.363281 L 19.367188 26.423828 L 19.394531 26.451172 L 19.394531 26.453125 L 19.425781 26.482422 L 19.425781 26.484375 L 19.447266 26.505859 L 19.486328 26.542969 L 19.523438 26.580078 L 19.529297 26.585938 L 19.542969 26.601562 L 19.544922 26.603516 L 19.601562 26.660156 L 19.644531 26.703125 L 19.646484 26.703125 L 19.658203 26.714844 L 19.658203 26.716797 L 19.695312 26.753906 L 19.714844 26.771484 L 19.732422 26.789062 L 19.734375 26.791016 L 19.734375 26.792969 L 19.75 26.808594 L 19.755859 26.814453 L 19.769531 26.828125 L 19.824219 26.880859 L 19.824219 26.882812 L 19.826172 26.882812 L 19.873047 26.931641 L 19.875 26.933594 L 19.876953 26.935547 L 19.931641 26.988281 L 19.939453 26.998047 L 19.953125 27.011719 L 19.955078 27.013672 L 19.982422 27.041016 L 20.035156 27.09375 L 20.078125 27.134766 L 20.080078 27.136719 L 20.085938 27.142578 L 20.085938 27.144531 L 20.119141 27.175781 L 20.119141 27.177734 L 20.136719 27.193359 L 20.144531 27.201172 L 20.15625 27.212891 L 20.175781 27.234375 L 20.197266 27.253906 L 20.234375 27.291016 L 20.234375 27.292969 L 20.257812 27.314453 L 20.275391 27.333984 L 20.277344 27.335938 L 20.328125 27.386719 L 20.34375 27.402344 L 20.375 27.431641 L 20.375 27.433594 L 20.376953 27.435547 L 20.410156 27.466797 L 20.410156 27.46875 L 20.443359 27.5 L 20.443359 27.501953 L 20.466797 27.523438 L 20.486328 27.544922 L 20.490234 27.548828 L 20.507812 27.564453 L 20.552734 27.611328 L 20.595703 27.654297 L 20.597656 27.65625 L 20.638672 27.697266 L 20.652344 27.710938 L 20.654297 27.712891 L 20.662109 27.71875 L 20.679688 27.736328 L 20.679688 27.738281 L 20.681641 27.738281 L 20.693359 27.751953 L 20.695312 27.751953 L 20.707031 27.763672 L 20.707031 27.765625 L 20.708984 27.765625 L 20.710938 27.767578 L 20.720703 27.777344 L 20.730469 27.787109 L 20.732422 27.789062 L 20.732422 27.791016 L 20.734375 27.791016 L 20.734375 27.792969 L 20.742188 27.800781 L 20.759766 27.818359 L 20.794922 27.853516 L 20.796875 27.855469 L 20.798828 27.857422 L 20.824219 27.882812 L 20.826172 27.884766 L 20.828125 27.886719 L 20.830078 27.886719 L 20.837891 27.894531 L 20.849609 27.90625 L 20.849609 27.908203 L 20.912109 27.96875 L 20.917969 27.974609 L 20.929688 27.986328 L 20.929688 27.988281 L 20.931641 27.988281 L 20.935547 27.992188 L 20.9375 27.994141 L 20.939453 27.996094 L 20.939453 27.998047 L 20.947266 28.005859 L 20.949219 28.005859 L 20.984375 28.042969 L 20.988281 28.044922 L 20.990234 28.046875 L 20.998047 28.054688 L 20.998047 28.056641 L 21.017578 28.074219 L 21.021484 28.078125 L 21.021484 28.080078 L 21.023438 28.082031 L 21.041016 28.099609 L 21.046875 28.105469 L 21.050781 28.109375 L 21.083984 28.142578 L 21.089844 28.148438 L 21.107422 28.166016 L 21.109375 28.167969 L 21.115234 28.171875 L 21.115234 28.173828 L 21.117188 28.175781 L 21.125 28.181641 L 21.125 28.183594 L 21.126953 28.183594 L 21.132812 28.189453 L 21.138672 28.195312 L 21.138672 28.197266 L 21.148438 28.205078 L 21.148438 28.207031 L 21.150391 28.207031 L 21.152344 28.208984 L 21.152344 28.210938 L 21.15625 28.212891 L 21.15625 28.214844 L 21.158203 28.216797 L 21.160156 28.21875 L 21.162109 28.220703 L 21.164062 28.220703 L 21.167969 28.224609 L 21.169922 28.226562 L 21.171875 28.228516 L 21.173828 28.232422 L 21.201172 28.259766 L 21.205078 28.261719 L 21.208984 28.265625 L 21.212891 28.269531 L 21.21875 28.275391 L 21.21875 28.277344 L 21.220703 28.279297 L 21.224609 28.283203 L 21.238281 28.296875 L 21.265625 28.324219 L 21.279297 28.337891 L 21.28125 28.339844 L 21.285156 28.341797 L 21.322266 28.378906 L 21.330078 28.386719 L 21.332031 28.388672 L 21.332031 28.390625 L 21.333984 28.392578 L 21.339844 28.398438 L 21.347656 28.40625 L 21.373047 28.431641 L 21.398438 28.457031 L 21.421875 28.480469 L 21.445312 28.503906 L 21.46875 28.527344 L 21.490234 28.548828 L 21.511719 28.570312 L 21.550781 28.609375 L 21.570312 28.628906 L 21.605469 28.664062 L 21.623047 28.681641 L 21.638672 28.697266 L 21.654297 28.712891 L 21.667969 28.726562 L 21.681641 28.740234 L 21.695312 28.753906 L 21.707031 28.765625 L 21.730469 28.787109 L 21.740234 28.796875 L 21.740234 28.798828 L 21.75 28.806641 L 21.757812 28.816406 L 21.765625 28.822266 L 21.765625 28.824219 L 21.773438 28.830078 L 21.785156 28.841797 L 21.789062 28.847656 L 21.792969 28.851562 L 21.796875 28.855469 L 21.798828 28.857422 L 21.800781 28.857422 L 21.800781 28.859375 L 21.802734 28.859375 L 22.615234 28.042969 L 22.613281 28.041016 L 22.611328 28.039062 L 22.609375 28.037109 L 22.605469 28.033203 L 22.601562 28.029297 L 22.597656 28.025391 L 22.591797 28.019531 L 22.589844 28.017578 L 22.621094 28.017578 L 22.621094 28.072266 L 22.673828 28.072266 L 22.673828 28.125 L 22.726562 28.125 L 22.726562 28.177734 L 22.777344 28.177734 L 22.777344 28.228516 L 22.828125 28.228516 L 22.828125 28.279297 L 22.878906 28.279297 L 22.878906 28.330078 L 22.927734 28.330078 L 22.927734 28.378906 L 22.976562 28.378906 L 22.976562 28.427734 L 23.025391 28.427734 L 23.025391 28.474609 L 23.072266 28.474609 L 23.072266 28.521484 L 23.119141 28.521484 L 23.119141 28.568359 L 23.164062 28.568359 L 23.164062 28.615234 L 23.208984 28.615234 L 23.208984 28.660156 L 23.253906 28.660156 L 23.253906 28.703125 L 23.296875 28.703125 L 23.296875 28.746094 L 23.339844 28.746094 L 23.339844 28.789062 L 23.380859 28.789062 L 23.380859 28.832031 L 23.421875 28.832031 L 23.421875 28.873047 L 23.462891 28.873047 L 23.462891 28.914062 L 23.501953 28.914062 L 23.501953 28.953125 L 23.541016 28.953125 L 23.541016 28.992188 L 23.580078 28.992188 L 23.580078 29.03125 L 23.617188 29.03125 L 23.617188 29.068359 L 23.654297 29.068359 L 23.654297 29.105469 L 23.689453 29.105469 L 23.689453 29.140625 L 23.726562 29.140625 L 23.726562 29.175781 L 23.759766 29.175781 L 23.759766 29.210938 L 23.794922 29.210938 L 23.794922 29.244141 L 23.826172 29.244141 L 23.826172 29.277344 L 23.859375 29.277344 L 23.859375 29.308594 L 23.890625 29.308594 L 23.890625 29.341797 L 23.921875 29.341797 L 23.921875 29.371094 L 23.951172 29.371094 L 23.951172 29.402344 L 23.980469 29.402344 L 23.980469 29.431641 L 24.009766 29.431641 L 24.009766 29.458984 L 24.037109 29.458984 L 24.037109 29.488281 L 24.064453 29.488281 L 24.064453 29.515625 L 24.091797 29.515625 L 24.091797 29.541016 L 24.117188 29.541016 L 24.117188 29.566406 L 24.140625 29.566406 L 24.140625 29.591797 L 24.166016 29.591797 L 24.166016 29.615234 L 24.189453 29.615234 L 24.189453 29.638672 L 24.210938 29.638672 L 24.210938 29.662109 L 24.234375 29.662109 L 24.234375 29.683594 L 24.253906 29.683594 L 24.253906 29.705078 L 24.275391 29.705078 L 24.275391 29.724609 L 24.294922 29.724609 L 24.294922 29.744141 L 24.314453 29.744141 L 24.314453 29.763672 L 24.332031 29.763672 L 24.332031 29.78125 L 24.349609 29.78125 L 24.349609 29.798828 L 24.365234 29.798828 L 24.365234 29.816406 L 24.382812 29.816406 L 24.382812 29.832031 L 24.396484 29.832031 L 24.396484 29.847656 L 24.412109 29.847656 L 24.412109 29.861328 L 24.425781 29.861328 L 24.425781 29.875 L 24.439453 29.875 L 24.439453 29.888672 L 24.451172 29.888672 L 24.451172 29.900391 L 24.462891 29.900391 L 24.462891 29.912109 L 24.472656 29.912109 L 24.472656 29.923828 L 24.482422 29.923828 L 24.482422 29.933594 L 24.492188 29.933594 L 24.492188 29.943359 L 24.5 29.943359 L 24.5 29.951172 L 24.507812 29.951172 L 24.507812 29.958984 L 24.515625 29.958984 L 24.515625 29.966797 L 24.521484 29.966797 L 24.521484 29.972656 L 24.527344 29.972656 L 24.527344 29.978516 L 24.533203 29.978516 L 24.533203 29.982422 L 24.537109 29.982422 L 24.537109 29.986328 L 24.539062 29.986328 L 24.539062 29.990234 L 24.542969 29.990234 L 24.542969 29.992188 L 24.544922 29.992188 L 24.544922 29.994141 L 24.544922 29.996094 L 25.453125 29.996094 L 25.453125 29.994141 L 25.453125 28.65625 L 25.453125 28.654297 L 25.451172 28.654297 L 25.451172 28.652344 L 25.447266 28.652344 L 25.447266 28.650391 L 25.445312 28.650391 L 25.445312 28.646484 L 25.441406 28.646484 L 25.441406 28.642578 L 25.435547 28.642578 L 25.435547 28.638672 L 25.429688 28.638672 L 25.429688 28.632812 L 25.423828 28.632812 L 25.423828 28.626953 L 25.417969 28.626953 L 25.417969 28.619141 L 25.410156 28.619141 L 25.410156 28.611328 L 25.400391 28.611328 L 25.400391 28.603516 L 25.390625 28.603516 L 25.390625 28.59375 L 25.380859 28.59375 L 25.380859 28.583984 L 25.371094 28.583984 L 25.371094 28.572266 L 25.359375 28.572266 L 25.359375 28.560547 L 25.347656 28.560547 L 25.347656 28.548828 L 25.333984 28.548828 L 25.333984 28.535156 L 25.320312 28.535156 L 25.320312 28.521484 L 25.304688 28.521484 L 25.304688 28.507812 L 25.291016 28.507812 L 25.291016 28.492188 L 25.275391 28.492188 L 25.275391 28.476562 L 25.257812 28.476562 L 25.257812 28.458984 L 25.240234 28.458984 L 25.240234 28.443359 L 25.222656 28.443359 L 25.222656 28.423828 L 25.203125 28.423828 L 25.203125 28.404297 L 25.183594 28.404297 L 25.183594 28.384766 L 25.162109 28.384766 L 25.162109 28.365234 L 25.142578 28.365234 L 25.142578 28.34375 L 25.119141 28.34375 L 25.119141 28.322266 L 25.097656 28.322266 L 25.097656 28.298828 L 25.074219 28.298828 L 25.074219 28.275391 L 25.050781 28.275391 L 25.050781 28.251953 L 25.025391 28.251953 L 25.025391 28.226562 L 25 28.226562 L 25 28.201172 L 24.972656 28.201172 L 24.972656 28.175781 L 24.945312 28.175781 L 24.945312 28.148438 L 24.917969 28.148438 L 24.917969 28.121094 L 24.888672 28.121094 L 24.888672 28.091797 L 24.859375 28.091797 L 24.859375 28.0625 L 24.830078 28.0625 L 24.830078 28.03125 L 24.798828 28.03125 L 24.798828 28.001953 L 24.767578 28.001953 L 24.767578 27.970703 L 24.734375 27.970703 L 24.734375 27.9375 L 24.703125 27.9375 L 24.703125 27.904297 L 24.667969 27.904297 L 24.667969 27.871094 L 24.634766 27.871094 L 24.634766 27.835938 L 24.599609 27.835938 L 24.599609 27.800781 L 24.5625 27.800781 L 24.5625 27.765625 L 24.525391 27.765625 L 24.525391 27.728516 L 24.488281 27.728516 L 24.488281 27.695312 C 24.495249 27.696637 24.502779 27.695994 24.509766 27.697266 C 24.669292 27.726421 24.832144 27.748047 25 27.748047 C 25.18725 27.748047 25.37018 27.727499 25.546875 27.691406 C 25.547491 27.69128 25.548212 27.691533 25.548828 27.691406 C 25.90338 27.618722 26.23151 27.477269 26.521484 27.28125 C 26.538812 27.269537 26.553271 27.254286 26.570312 27.242188 L 26.572266 27.244141 L 26.574219 27.246094 L 26.576172 27.248047 L 26.625 27.296875 L 26.671875 27.34375 L 26.765625 27.4375 L 26.855469 27.529297 L 26.884766 27.556641 L 26.900391 27.572266 L 26.943359 27.615234 L 26.986328 27.658203 L 27.070312 27.742188 L 27.089844 27.761719 L 27.097656 27.769531 L 27.101562 27.773438 L 27.123047 27.794922 L 27.128906 27.800781 L 27.146484 27.818359 L 27.189453 27.861328 L 27.210938 27.882812 L 27.212891 27.886719 L 27.226562 27.900391 L 27.263672 27.9375 L 27.332031 28.003906 L 27.373047 28.044922 L 27.431641 28.103516 L 27.439453 28.111328 L 27.441406 28.113281 L 27.505859 28.177734 L 27.509766 28.181641 L 27.556641 28.228516 L 27.5625 28.234375 L 27.568359 28.240234 L 27.599609 28.271484 L 27.65625 28.328125 L 27.710938 28.384766 L 27.712891 28.384766 L 27.714844 28.386719 L 27.716797 28.388672 L 27.720703 28.392578 L 27.724609 28.396484 L 27.728516 28.400391 L 27.732422 28.404297 L 27.738281 28.410156 L 27.763672 28.435547 L 27.789062 28.460938 L 27.8125 28.484375 L 27.835938 28.507812 L 27.859375 28.53125 L 27.880859 28.552734 L 27.902344 28.574219 L 27.921875 28.59375 L 27.941406 28.613281 L 27.960938 28.632812 L 27.978516 28.650391 L 27.996094 28.667969 L 28.013672 28.685547 L 28.029297 28.701172 L 28.044922 28.716797 L 28.058594 28.730469 L 28.072266 28.744141 L 28.085938 28.757812 L 28.109375 28.78125 L 28.115234 28.789062 L 28.117188 28.791016 L 28.119141 28.792969 L 28.121094 28.794922 L 28.123047 28.796875 L 28.130859 28.802734 L 28.136719 28.810547 L 28.138672 28.8125 L 28.140625 28.814453 L 28.148438 28.820312 L 28.15625 28.828125 L 28.169922 28.841797 L 28.173828 28.847656 L 28.175781 28.845703 L 28.179688 28.851562 L 28.183594 28.855469 L 28.1875 28.859375 L 28.189453 28.861328 L 28.191406 28.863281 L 28.193359 28.865234 L 28.830078 28.224609 L 28.832031 28.224609 L 28.832031 28.222656 L 28.830078 28.220703 L 28.828125 28.21875 L 28.824219 28.214844 L 28.820312 28.210938 L 28.814453 28.207031 L 28.808594 28.201172 L 28.802734 28.195312 L 28.796875 28.189453 L 28.796875 28.1875 L 28.789062 28.179688 L 28.787109 28.179688 L 28.779297 28.171875 L 28.769531 28.162109 L 28.759766 28.152344 L 28.757812 28.150391 L 28.757812 28.148438 L 28.755859 28.146484 L 28.753906 28.144531 L 28.751953 28.142578 L 28.75 28.140625 L 28.738281 28.128906 L 28.726562 28.117188 L 28.724609 28.115234 L 28.722656 28.113281 L 28.720703 28.111328 L 28.71875 28.111328 L 28.716797 28.109375 L 28.710938 28.103516 L 28.710938 28.101562 L 28.708984 28.099609 L 28.707031 28.097656 L 28.703125 28.09375 L 28.701172 28.091797 L 28.699219 28.089844 L 28.685547 28.076172 L 28.669922 28.060547 L 28.654297 28.044922 L 28.652344 28.044922 L 28.636719 28.029297 L 28.619141 28.011719 L 28.615234 28.007812 L 28.613281 28.005859 L 28.613281 28.003906 L 28.609375 28 L 28.605469 27.996094 L 28.601562 27.992188 L 28.587891 27.978516 L 28.585938 27.978516 L 28.582031 27.974609 L 28.5625 27.955078 L 28.558594 27.951172 L 28.558594 27.949219 L 28.556641 27.947266 L 28.550781 27.941406 L 28.542969 27.933594 L 28.521484 27.912109 L 28.519531 27.910156 L 28.513672 27.904297 L 28.511719 27.904297 L 28.480469 27.873047 L 28.480469 27.871094 L 28.478516 27.869141 L 28.476562 27.867188 L 28.453125 27.84375 L 28.429688 27.820312 L 28.404297 27.794922 L 28.378906 27.769531 L 28.376953 27.767578 L 28.365234 27.755859 L 28.359375 27.75 L 28.353516 27.744141 L 28.351562 27.744141 L 28.328125 27.720703 L 28.324219 27.716797 L 28.296875 27.689453 L 28.269531 27.662109 L 28.267578 27.660156 L 28.248047 27.640625 L 28.238281 27.630859 L 28.208984 27.601562 L 28.203125 27.595703 L 28.179688 27.572266 L 28.177734 27.570312 L 28.15625 27.548828 L 28.146484 27.539062 L 28.144531 27.537109 L 28.130859 27.523438 L 28.126953 27.519531 L 28.125 27.517578 L 28.117188 27.509766 L 28.115234 27.505859 L 28.082031 27.472656 L 28.025391 27.416016 L 28.013672 27.404297 L 27.978516 27.369141 L 27.941406 27.333984 L 27.904297 27.296875 L 27.867188 27.259766 L 27.859375 27.251953 L 27.847656 27.240234 L 27.845703 27.238281 L 27.830078 27.220703 L 27.791016 27.181641 L 27.783203 27.175781 L 27.746094 27.138672 L 27.726562 27.117188 L 27.710938 27.101562 L 27.648438 27.041016 L 27.642578 27.033203 L 27.626953 27.017578 L 27.580078 26.972656 L 27.578125 26.970703 L 27.564453 26.955078 L 27.541016 26.931641 L 27.517578 26.910156 L 27.496094 26.888672 L 27.451172 26.84375 L 27.445312 26.837891 L 27.4375 26.830078 L 27.433594 26.826172 L 27.40625 26.796875 L 27.353516 26.746094 L 27.345703 26.738281 L 27.3125 26.703125 L 27.244141 26.636719 L 27.216797 26.607422 L 27.210938 26.601562 C 27.327042 26.439409 27.43105 26.267913 27.509766 26.082031 C 27.64779 25.756096 27.724609 25.39926 27.724609 25.023438 C 27.724609 24.848239 27.705527 24.67778 27.673828 24.511719 L 27.705078 24.511719 L 27.705078 24.548828 L 27.742188 24.548828 L 27.742188 24.585938 L 27.777344 24.585938 L 27.777344 24.621094 L 27.8125 24.621094 L 27.8125 24.65625 L 27.847656 24.65625 L 27.847656 24.691406 L 27.880859 24.691406 L 27.880859 24.724609 L 27.914062 24.724609 L 27.914062 24.757812 L 27.947266 24.757812 L 27.947266 24.791016 L 27.978516 24.791016 L 27.978516 24.822266 L 28.009766 24.822266 L 28.009766 24.853516 L 28.039062 24.853516 L 28.039062 24.882812 L 28.068359 24.882812 L 28.068359 24.912109 L 28.097656 24.912109 L 28.097656 24.941406 L 28.125 24.941406 L 28.125 24.96875 L 28.152344 24.96875 L 28.152344 24.996094 L 28.177734 24.996094 L 28.177734 25.021484 L 28.205078 25.021484 L 28.205078 25.048828 L 28.228516 25.048828 L 28.228516 25.072266 L 28.253906 25.072266 L 28.253906 25.097656 L 28.277344 25.097656 L 28.277344 25.121094 L 28.298828 25.121094 L 28.298828 25.142578 L 28.320312 25.142578 L 28.320312 25.164062 L 28.341797 25.164062 L 28.341797 25.185547 L 28.363281 25.185547 L 28.363281 25.207031 L 28.382812 25.207031 L 28.382812 25.226562 L 28.400391 25.226562 L 28.400391 25.244141 L 28.419922 25.244141 L 28.419922 25.263672 L 28.4375 25.263672 L 28.4375 25.28125 L 28.453125 25.28125 L 28.453125 25.296875 L 28.46875 25.296875 L 28.46875 25.3125 L 28.484375 25.3125 L 28.484375 25.328125 L 28.5 25.328125 L 28.5 25.34375 L 28.513672 25.34375 L 28.513672 25.357422 L 28.525391 25.357422 L 28.525391 25.369141 L 28.539062 25.369141 L 28.539062 25.382812 L 28.548828 25.382812 L 28.548828 25.392578 L 28.560547 25.392578 L 28.560547 25.404297 L 28.570312 25.404297 L 28.570312 25.414062 L 28.580078 25.414062 L 28.580078 25.423828 L 28.587891 25.423828 L 28.587891 25.431641 L 28.595703 25.431641 L 28.595703 25.439453 L 28.603516 25.439453 L 28.603516 25.447266 L 28.609375 25.447266 L 28.609375 25.453125 L 28.615234 25.453125 L 28.615234 25.458984 L 28.619141 25.458984 L 28.619141 25.462891 L 28.625 25.462891 L 28.625 25.46875 L 28.626953 25.46875 L 28.626953 25.470703 L 28.630859 25.470703 L 28.630859 25.474609 L 28.630859 25.476562 L 28.632812 25.476562 L 29.994141 25.476562 L 29.996094 25.476562 L 29.996094 24.568359 L 29.994141 24.568359 L 29.994141 24.566406 L 29.992188 24.566406 L 29.992188 24.564453 L 29.990234 24.564453 L 29.990234 24.5625 L 29.986328 24.5625 L 29.986328 24.558594 L 29.982422 24.558594 L 29.982422 24.554688 L 29.978516 24.554688 L 29.978516 24.550781 L 29.972656 24.550781 L 29.972656 24.544922 L 29.964844 24.544922 L 29.964844 24.539062 L 29.958984 24.539062 L 29.958984 24.53125 L 29.951172 24.53125 L 29.951172 24.523438 L 29.941406 24.523438 L 29.941406 24.515625 L 29.933594 24.515625 L 29.933594 24.505859 L 29.923828 24.505859 L 29.923828 24.496094 L 29.912109 24.496094 L 29.912109 24.484375 L 29.900391 24.484375 L 29.900391 24.474609 L 29.888672 24.474609 L 29.888672 24.460938 L 29.875 24.460938 L 29.875 24.449219 L 29.861328 24.449219 L 29.861328 24.435547 L 29.847656 24.435547 L 29.847656 24.419922 L 29.832031 24.419922 L 29.832031 24.404297 L 29.816406 24.404297 L 29.816406 24.388672 L 29.798828 24.388672 L 29.798828 24.373047 L 29.78125 24.373047 L 29.78125 24.355469 L 29.763672 24.355469 L 29.763672 24.335938 L 29.744141 24.335938 L 29.744141 24.318359 L 29.724609 24.318359 L 29.724609 24.298828 L 29.705078 24.298828 L 29.705078 24.277344 L 29.683594 24.277344 L 29.683594 24.255859 L 29.662109 24.255859 L 29.662109 24.234375 L 29.638672 24.234375 L 29.638672 24.212891 L 29.615234 24.212891 L 29.615234 24.189453 L 29.591797 24.189453 L 29.591797 24.164062 L 29.566406 24.164062 L 29.566406 24.138672 L 29.541016 24.138672 L 29.541016 24.113281 L 29.513672 24.113281 L 29.513672 24.087891 L 29.488281 24.087891 L 29.488281 24.060547 L 29.458984 24.060547 L 29.458984 24.033203 L 29.431641 24.033203 L 29.431641 24.003906 L 29.402344 24.003906 L 29.402344 23.974609 L 29.371094 23.974609 L 29.371094 23.945312 L 29.341797 23.945312 L 29.341797 23.914062 L 29.308594 23.914062 L 29.308594 23.882812 L 29.277344 23.882812 L 29.277344 23.849609 L 29.244141 23.849609 L 29.244141 23.816406 L 29.210938 23.816406 L 29.210938 23.783203 L 29.175781 23.783203 L 29.175781 23.748047 L 29.140625 23.748047 L 29.140625 23.712891 L 29.103516 23.712891 L 29.103516 23.677734 L 29.068359 23.677734 L 29.068359 23.640625 L 29.029297 23.640625 L 29.029297 23.603516 L 28.992188 23.603516 L 28.992188 23.564453 L 28.953125 23.564453 L 28.953125 23.525391 L 28.914062 23.525391 L 28.914062 23.486328 L 28.873047 23.486328 L 28.873047 23.445312 L 28.832031 23.445312 L 28.832031 23.404297 L 28.789062 23.404297 L 28.789062 23.363281 L 28.746094 23.363281 L 28.746094 23.320312 L 28.703125 23.320312 L 28.703125 23.275391 L 28.660156 23.275391 L 28.660156 23.232422 L 28.615234 23.232422 L 28.615234 23.1875 L 28.568359 23.1875 L 28.568359 23.140625 L 28.521484 23.140625 L 28.521484 23.095703 L 28.474609 23.095703 L 28.474609 23.048828 L 28.427734 23.048828 L 28.427734 23 L 28.378906 23 L 28.378906 22.951172 L 28.330078 22.951172 L 28.330078 22.902344 L 28.279297 22.902344 L 28.279297 22.851562 L 28.228516 22.851562 L 28.228516 22.800781 L 28.175781 22.800781 L 28.175781 22.75 L 28.125 22.75 L 28.125 22.697266 L 28.070312 22.697266 L 28.070312 22.644531 L 28.017578 22.644531 L 28.017578 22.632812 L 28.019531 22.632812 L 28.021484 22.634766 L 28.023438 22.636719 L 28.837891 21.826172 L 28.835938 21.824219 L 28.833984 21.822266 L 28.832031 21.820312 L 28.828125 21.816406 L 28.824219 21.8125 L 28.820312 21.806641 L 28.814453 21.802734 L 28.806641 21.794922 L 28.800781 21.789062 L 28.792969 21.78125 L 28.785156 21.773438 L 28.785156 21.771484 L 28.775391 21.763672 L 28.765625 21.753906 L 28.765625 21.751953 L 28.763672 21.751953 L 28.753906 21.742188 L 28.742188 21.730469 L 28.730469 21.71875 L 28.716797 21.705078 L 28.703125 21.691406 L 28.689453 21.677734 L 28.673828 21.662109 L 28.658203 21.646484 L 28.640625 21.628906 L 28.623047 21.611328 L 28.605469 21.59375 L 28.585938 21.574219 L 28.566406 21.554688 L 28.546875 21.535156 L 28.525391 21.513672 L 28.503906 21.492188 L 28.480469 21.46875 L 28.457031 21.445312 L 28.433594 21.421875 L 28.408203 21.396484 L 28.382812 21.371094 L 28.378906 21.367188 L 28.376953 21.365234 L 28.375 21.363281 L 28.375 21.361328 L 28.357422 21.34375 L 28.355469 21.34375 L 28.345703 21.333984 L 28.337891 21.326172 L 28.335938 21.324219 L 28.335938 21.322266 L 28.330078 21.316406 L 28.300781 21.289062 L 28.273438 21.261719 L 28.244141 21.232422 L 28.212891 21.201172 L 28.197266 21.185547 L 28.193359 21.181641 L 28.191406 21.179688 L 28.183594 21.171875 L 28.183594 21.169922 L 28.175781 21.162109 L 28.173828 21.162109 L 28.167969 21.15625 L 28.167969 21.154297 L 28.158203 21.146484 L 28.150391 21.138672 L 28.144531 21.130859 L 28.119141 21.107422 L 28.085938 21.074219 L 28.082031 21.070312 L 28.078125 21.066406 L 28.078125 21.064453 L 28.076172 21.064453 L 28.074219 21.060547 L 28.058594 21.044922 L 28.052734 21.039062 L 28.050781 21.039062 L 28.048828 21.037109 L 28.017578 21.005859 L 27.984375 20.970703 L 27.982422 20.970703 L 27.945312 20.933594 L 27.935547 20.923828 L 27.929688 20.917969 L 27.927734 20.916016 L 27.925781 20.914062 L 27.925781 20.912109 L 27.917969 20.904297 L 27.910156 20.896484 L 27.884766 20.871094 L 27.882812 20.869141 L 27.880859 20.869141 L 27.871094 20.859375 L 27.833984 20.822266 L 27.794922 20.783203 L 27.792969 20.78125 L 27.789062 20.777344 L 27.785156 20.773438 L 27.783203 20.771484 L 27.783203 20.769531 L 27.763672 20.75 L 27.755859 20.742188 L 27.753906 20.742188 L 27.714844 20.703125 L 27.673828 20.662109 L 27.662109 20.648438 L 27.660156 20.648438 L 27.630859 20.619141 L 27.587891 20.576172 L 27.544922 20.533203 L 27.542969 20.53125 L 27.541016 20.529297 L 27.515625 20.503906 L 27.511719 20.5 L 27.511719 20.498047 L 27.509766 20.496094 L 27.507812 20.494141 L 27.501953 20.488281 L 27.5 20.488281 L 27.494141 20.482422 L 27.472656 20.460938 L 27.46875 20.457031 L 27.464844 20.451172 L 27.462891 20.449219 L 27.457031 20.443359 L 27.410156 20.398438 L 27.363281 20.351562 L 27.316406 20.304688 L 27.306641 20.292969 L 27.304688 20.292969 L 27.269531 20.257812 L 27.232422 20.21875 L 27.230469 20.21875 L 27.220703 20.208984 L 27.171875 20.160156 L 27.171875 20.158203 L 27.121094 20.109375 L 27.070312 20.058594 L 27.017578 20.005859 L 26.990234 19.976562 L 26.988281 19.974609 L 26.966797 19.953125 L 26.949219 19.935547 L 26.912109 19.900391 L 26.859375 19.847656 L 26.816406 19.802734 L 26.804688 19.792969 L 26.75 19.738281 L 26.75 19.736328 L 26.722656 19.710938 L 26.693359 19.681641 L 26.636719 19.625 L 26.578125 19.566406 L 26.556641 19.544922 L 26.550781 19.539062 L 26.542969 19.53125 L 26.541016 19.527344 L 26.521484 19.507812 L 26.519531 19.507812 L 26.460938 19.449219 L 26.402344 19.390625 L 26.402344 19.388672 L 26.378906 19.365234 L 26.341797 19.330078 L 26.279297 19.267578 L 26.273438 19.259766 L 26.21875 19.207031 L 26.21875 19.205078 L 26.154297 19.142578 L 26.091797 19.080078 L 26.027344 19.015625 L 25.962891 18.951172 L 25.896484 18.884766 L 25.880859 18.867188 L 25.878906 18.867188 L 25.830078 18.818359 L 25.763672 18.751953 L 25.761719 18.75 L 25.695312 18.683594 L 25.626953 18.615234 L 25.556641 18.544922 L 25.515625 18.501953 L 25.486328 18.474609 L 25.416016 18.404297 L 25.34375 18.332031 L 25.271484 18.259766 L 25.199219 18.1875 L 25.125 18.113281 L 25.123047 18.111328 L 25.050781 18.039062 L 24.974609 17.962891 L 24.898438 17.886719 L 24.822266 17.810547 L 24.744141 17.732422 L 24.666016 17.654297 L 24.587891 17.574219 L 24.585938 17.574219 L 24.507812 17.494141 L 24.425781 17.414062 L 24.345703 17.333984 L 24.263672 17.251953 L 24.179688 17.167969 L 24.097656 17.085938 L 24.097656 17.083984 L 24.011719 17 L 23.947266 16.933594 L 23.945312 16.933594 L 23.927734 16.916016 L 23.841797 16.830078 L 23.814453 16.802734 L 23.785156 16.771484 L 23.755859 16.742188 L 23.753906 16.742188 L 23.667969 16.65625 L 23.580078 16.568359 L 23.492188 16.480469 L 23.492188 16.478516 L 23.402344 16.390625 L 23.373047 16.359375 L 23.371094 16.359375 L 23.3125 16.300781 L 23.3125 16.298828 L 23.220703 16.208984 L 23.128906 16.117188 L 23.126953 16.115234 L 23.115234 16.103516 L 23.037109 16.023438 L 23.035156 16.023438 L 22.943359 15.931641 L 22.851562 15.837891 L 22.849609 15.837891 L 22.753906 15.742188 L 22.708984 15.695312 L 22.660156 15.646484 L 22.5625 15.550781 L 22.554688 15.542969 L 22.529297 15.515625 L 22.466797 15.453125 L 22.464844 15.453125 L 22.458984 15.447266 L 22.414062 15.400391 L 22.369141 15.355469 L 22.269531 15.257812 L 22.171875 15.158203 L 22.132812 15.119141 L 22.070312 15.058594 L 22.019531 15.005859 L 21.970703 14.958984 L 21.869141 14.857422 L 21.767578 14.755859 L 21.664062 14.652344 L 21.560547 14.548828 L 21.53125 14.517578 L 21.457031 14.443359 L 21.351562 14.339844 L 21.246094 14.232422 L 21.138672 14.126953 L 21.03125 14.019531 L 20.923828 13.912109 L 20.814453 13.802734 L 20.705078 13.693359 L 20.691406 13.677734 L 20.605469 13.59375 L 20.595703 13.582031 L 20.59375 13.582031 L 20.484375 13.472656 L 20.40625 13.392578 L 20.373047 13.359375 L 20.371094 13.359375 L 20.259766 13.248047 L 20.146484 13.134766 L 20.117188 13.105469 L 20.03125 13.019531 L 19.917969 12.90625 L 19.802734 12.791016 L 19.732422 12.71875 L 19.730469 12.71875 L 19.685547 12.673828 L 19.568359 12.556641 L 19.451172 12.439453 L 19.332031 12.320312 L 19.212891 12.201172 L 19.09375 12.082031 L 18.972656 11.960938 L 18.929688 11.916016 L 18.851562 11.839844 L 18.730469 11.716797 L 18.607422 11.59375 L 18.482422 11.470703 L 18.359375 11.347656 L 18.359375 11.345703 L 18.234375 11.220703 L 18.107422 11.095703 L 17.980469 10.96875 L 17.853516 10.841797 L 17.726562 10.714844 L 17.726562 10.712891 L 17.597656 10.583984 L 17.466797 10.455078 L 17.380859 10.369141 L 17.337891 10.324219 L 17.335938 10.324219 L 17.205078 10.193359 L 17.085938 10.072266 L 17.074219 10.0625 L 16.941406 9.9296875 L 16.808594 9.796875 L 16.697266 9.6835938 L 16.695312 9.6835938 L 16.673828 9.6621094 L 16.566406 9.5527344 L 16.539062 9.5273438 L 16.404297 9.3925781 L 16.267578 9.2558594 L 16.130859 9.1191406 L 15.992188 8.9804688 L 15.853516 8.8417969 L 15.714844 8.703125 L 15.675781 8.6640625 L 15.617188 8.6035156 L 15.576172 8.5625 L 15.574219 8.5625 L 15.433594 8.421875 L 15.353516 8.3398438 L 15.351562 8.3398438 L 15.292969 8.28125 L 15.214844 8.2011719 L 15.150391 8.1386719 L 15.007812 7.9960938 L 14.884766 7.8710938 L 14.863281 7.8515625 L 14.720703 7.7070312 L 14.574219 7.5625 L 14.429688 7.4160156 L 14.28125 7.2695312 L 14.224609 7.2109375 L 14.222656 7.2109375 L 14.134766 7.1230469 L 14.080078 7.0664062 L 14.078125 7.0664062 L 13.986328 6.9746094 L 13.642578 6.6289062 L 13.640625 6.6289062 L 13.345703 6.3339844 L 12.533203 7.1464844 L 12.591797 7.2050781 L 12.470703 7.2050781 L 12.470703 7.0664062 L 12.332031 7.0664062 L 12.332031 6.9277344 L 12.191406 6.9277344 L 12.191406 6.7871094 L 12.050781 6.7871094 L 12.050781 6.6464844 L 11.910156 6.6464844 L 11.910156 6.5058594 L 11.767578 6.5058594 L 11.767578 6.3632812 L 11.625 6.3632812 L 11.625 6.2207031 L 11.480469 6.2207031 L 11.480469 6.0761719 L 11.335938 6.0761719 L 11.335938 5.9316406 L 11.191406 5.9316406 L 11.191406 5.7871094 L 11.044922 5.7871094 L 11.044922 5.640625 L 10.898438 5.640625 L 10.898438 5.4941406 L 10.751953 5.4941406 L 10.751953 5.3476562 L 10.603516 5.3476562 L 10.603516 5.1992188 L 9.6953125 5.1992188 z M 12.609375 7.2226562 L 12.681641 7.2949219 L 12.730469 7.34375 L 12.609375 7.34375 L 12.609375 7.2226562 z M 12.748047 7.3613281 L 12.828125 7.4414062 L 12.828125 7.4433594 L 12.865234 7.4804688 L 12.748047 7.4804688 L 12.748047 7.3613281 z M 12.884766 7.5 L 13 7.6152344 L 12.884766 7.6152344 L 12.884766 7.5 z M 13.019531 7.6347656 L 13.138672 7.7519531 L 13.019531 7.7519531 L 13.019531 7.6347656 z M 13.15625 7.7695312 L 13.265625 7.8789062 L 13.265625 7.8808594 L 13.271484 7.8867188 L 13.15625 7.8867188 L 13.15625 7.7695312 z M 13.291016 7.90625 L 13.322266 7.9355469 L 13.40625 8.0195312 L 13.291016 8.0195312 L 13.291016 7.90625 z M 13.423828 8.0390625 L 13.46875 8.0820312 L 13.541016 8.1542969 L 13.423828 8.1542969 L 13.423828 8.0390625 z M 13.558594 8.171875 L 13.615234 8.2304688 L 13.673828 8.2871094 L 13.558594 8.2871094 L 13.558594 8.171875 z M 13.691406 8.3046875 L 13.804688 8.4179688 L 13.691406 8.4179688 L 13.691406 8.3046875 z M 13.822266 8.4355469 L 13.90625 8.5214844 L 13.933594 8.5488281 L 13.822266 8.5488281 L 13.822266 8.4355469 z M 13.953125 8.5683594 L 14.050781 8.6640625 L 14.050781 8.6660156 L 14.064453 8.6796875 L 13.953125 8.6796875 L 13.953125 8.5683594 z M 14.083984 8.6992188 L 14.195312 8.8085938 L 14.083984 8.8085938 L 14.083984 8.6992188 z M 14.212891 8.8261719 L 14.324219 8.9375 L 14.212891 8.9375 L 14.212891 8.8261719 z M 14.341797 8.9550781 L 14.402344 9.015625 L 14.453125 9.0664062 L 14.341797 9.0664062 L 14.341797 8.9550781 z M 14.470703 9.0839844 L 14.480469 9.09375 L 14.539062 9.1542969 L 14.578125 9.1933594 L 14.470703 9.1933594 L 14.470703 9.0839844 z M 14.597656 9.2128906 L 14.605469 9.2207031 L 14.621094 9.2363281 L 14.707031 9.3203125 L 14.597656 9.3203125 L 14.597656 9.2128906 z M 14.724609 9.3378906 L 14.761719 9.375 L 14.761719 9.3769531 L 14.830078 9.4453125 L 14.724609 9.4453125 L 14.724609 9.3378906 z M 14.849609 9.4648438 L 14.902344 9.515625 L 14.951172 9.5664062 L 14.955078 9.5703125 L 14.849609 9.5703125 L 14.849609 9.4648438 z M 14.974609 9.5898438 L 15.082031 9.6953125 L 14.974609 9.6953125 L 14.974609 9.5898438 z M 15.099609 9.7128906 L 15.103516 9.7167969 L 15.099609 9.7167969 L 15.099609 9.7128906 z M 15.144531 9.7578125 L 15.179688 9.7929688 L 15.205078 9.8183594 L 15.144531 9.8183594 L 15.144531 9.7578125 z M 15.222656 9.8359375 L 15.251953 9.8652344 L 15.222656 9.8652344 L 15.222656 9.8359375 z M 15.292969 9.90625 L 15.318359 9.9316406 L 15.328125 9.9414062 L 15.292969 9.9414062 L 15.292969 9.90625 z M 15.345703 9.9589844 L 15.400391 10.013672 L 15.345703 10.013672 L 15.345703 9.9589844 z M 15.439453 10.052734 L 15.451172 10.064453 L 15.439453 10.064453 L 15.439453 10.052734 z M 15.46875 10.082031 L 15.546875 10.160156 L 15.46875 10.160156 L 15.46875 10.082031 z M 15.589844 10.203125 L 15.591797 10.205078 L 15.693359 10.306641 L 15.589844 10.306641 L 15.589844 10.203125 z M 15.732422 10.345703 L 15.753906 10.367188 L 15.810547 10.425781 L 15.732422 10.425781 L 15.732422 10.345703 z M 15.830078 10.445312 L 15.835938 10.451172 L 15.830078 10.451172 L 15.830078 10.445312 z M 15.878906 10.494141 L 15.929688 10.544922 L 15.878906 10.544922 L 15.878906 10.494141 z M 15.949219 10.564453 L 15.980469 10.595703 L 15.949219 10.595703 L 15.949219 10.564453 z M 16.021484 10.636719 L 16.048828 10.664062 L 16.021484 10.664062 L 16.021484 10.636719 z M 16.068359 10.683594 L 16.123047 10.738281 L 16.068359 10.738281 L 16.068359 10.683594 z M 16.185547 10.800781 L 16.261719 10.875 L 16.267578 10.882812 L 16.185547 10.882812 L 16.185547 10.800781 z M 16.308594 10.923828 L 16.392578 11.005859 L 16.400391 11.013672 L 16.308594 11.013672 L 16.308594 10.923828 z M 16.451172 11.066406 L 16.515625 11.128906 L 16.451172 11.128906 L 16.451172 11.066406 z M 16.535156 11.150391 L 16.550781 11.166016 L 16.535156 11.166016 L 16.535156 11.150391 z M 16.591797 11.207031 L 16.630859 11.244141 L 16.591797 11.244141 L 16.591797 11.207031 z M 16.648438 11.261719 L 16.654297 11.267578 L 16.681641 11.296875 L 16.691406 11.306641 L 16.648438 11.306641 L 16.648438 11.261719 z M 16.732422 11.347656 L 16.744141 11.359375 L 16.732422 11.359375 L 16.732422 11.347656 z M 16.763672 11.376953 L 16.783203 11.398438 L 16.832031 11.447266 L 16.763672 11.447266 L 16.763672 11.376953 z M 16.876953 11.492188 L 16.912109 11.527344 L 16.914062 11.527344 L 16.970703 11.583984 L 16.876953 11.583984 L 16.876953 11.492188 z M 17.011719 11.625 L 17.029297 11.642578 L 17.029297 11.644531 L 17.041016 11.654297 L 17.056641 11.671875 L 17.080078 11.695312 L 17.011719 11.695312 L 17.011719 11.625 z M 17.099609 11.714844 L 17.109375 11.724609 L 17.099609 11.724609 L 17.099609 11.714844 z M 17.150391 11.765625 L 17.162109 11.777344 L 17.167969 11.78125 L 17.193359 11.806641 L 17.150391 11.806641 L 17.150391 11.765625 z M 17.210938 11.824219 L 17.232422 11.847656 L 17.246094 11.861328 L 17.210938 11.861328 L 17.210938 11.824219 z M 17.289062 11.904297 L 17.291016 11.90625 L 17.294922 11.908203 L 17.304688 11.917969 L 17.289062 11.917969 L 17.289062 11.904297 z M 17.322266 11.935547 L 17.357422 11.970703 L 17.361328 11.974609 L 17.369141 11.984375 L 17.382812 11.998047 L 17.322266 11.998047 L 17.322266 11.935547 z M 17.431641 12.046875 L 17.519531 12.134766 L 17.431641 12.134766 L 17.431641 12.046875 z M 17.5625 12.177734 L 17.630859 12.244141 L 17.5625 12.244141 L 17.5625 12.177734 z M 17.648438 12.261719 L 17.65625 12.271484 L 17.648438 12.271484 L 17.648438 12.261719 z M 17.697266 12.3125 L 17.736328 12.351562 L 17.697266 12.351562 L 17.697266 12.3125 z M 17.755859 12.371094 L 17.791016 12.40625 L 17.755859 12.40625 L 17.755859 12.371094 z M 17.832031 12.447266 L 17.841797 12.457031 L 17.832031 12.457031 L 17.832031 12.447266 z M 17.861328 12.476562 L 17.916016 12.53125 L 17.917969 12.53125 L 17.923828 12.539062 L 17.861328 12.539062 L 17.861328 12.476562 z M 17.966797 12.582031 L 18.039062 12.652344 L 18.052734 12.667969 L 17.966797 12.667969 L 17.966797 12.582031 z M 7.2050781 12.632812 L 7.296875 12.632812 L 7.296875 12.724609 L 7.2050781 12.632812 z M 18.099609 12.714844 L 18.160156 12.773438 L 18.099609 12.773438 L 18.099609 12.714844 z M 7.3417969 12.769531 L 7.4335938 12.769531 L 7.4335938 12.861328 L 7.3417969 12.769531 z M 18.177734 12.792969 L 18.185547 12.800781 L 18.189453 12.804688 L 18.177734 12.804688 L 18.177734 12.792969 z M 18.232422 12.847656 L 18.263672 12.876953 L 18.232422 12.876953 L 18.232422 12.847656 z M 18.28125 12.894531 L 18.310547 12.923828 L 18.322266 12.9375 L 18.28125 12.9375 L 18.28125 12.894531 z M 7.4785156 12.90625 L 7.5703125 12.90625 L 7.5703125 12.998047 L 7.4785156 12.90625 z M 18.382812 12.996094 L 18.400391 13.013672 L 18.427734 13.041016 L 18.453125 13.068359 L 18.382812 13.068359 L 18.382812 12.996094 z M 7.6152344 13.042969 L 7.7050781 13.042969 L 7.7050781 13.132812 L 7.6152344 13.042969 z M 18.494141 13.109375 L 18.519531 13.132812 L 18.519531 13.134766 L 18.566406 13.179688 L 18.570312 13.183594 L 18.494141 13.183594 L 18.494141 13.109375 z M 7.7519531 13.179688 L 7.8398438 13.179688 L 7.8398438 13.267578 L 7.7636719 13.191406 L 7.7519531 13.179688 z M 18.625 13.238281 L 18.638672 13.251953 L 18.669922 13.283203 L 18.625 13.283203 L 18.625 13.238281 z M 18.6875 13.300781 L 18.714844 13.328125 L 18.6875 13.328125 L 18.6875 13.300781 z M 7.8867188 13.314453 L 7.9746094 13.314453 L 7.9746094 13.402344 L 7.9121094 13.339844 L 7.8867188 13.314453 z M 18.755859 13.369141 L 18.769531 13.382812 L 18.755859 13.382812 L 18.755859 13.369141 z M 18.787109 13.400391 L 18.84375 13.457031 L 18.787109 13.457031 L 18.787109 13.400391 z M 8.0195312 13.447266 L 8.1074219 13.447266 L 8.1074219 13.535156 L 8.0605469 13.488281 L 8.0195312 13.447266 z M 18.886719 13.5 L 18.917969 13.533203 L 18.964844 13.580078 L 18.886719 13.580078 L 18.886719 13.5 z M 8.1523438 13.580078 L 8.2402344 13.580078 L 8.2402344 13.667969 L 8.2070312 13.634766 L 8.1523438 13.580078 z M 19.011719 13.626953 L 19.064453 13.677734 L 19.011719 13.677734 L 19.011719 13.626953 z M 19.082031 13.697266 L 19.097656 13.712891 L 19.082031 13.712891 L 19.082031 13.697266 z M 8.2851562 13.712891 L 8.3730469 13.712891 L 8.3730469 13.800781 L 8.3535156 13.78125 L 8.3535156 13.779297 L 8.2851562 13.712891 z M 19.138672 13.753906 L 19.162109 13.775391 L 19.138672 13.775391 L 19.138672 13.753906 z M 19.179688 13.792969 L 19.21875 13.832031 L 19.21875 13.833984 L 19.222656 13.837891 L 19.179688 13.837891 L 19.179688 13.792969 z M 8.4179688 13.845703 L 8.5039062 13.845703 L 8.5039062 13.931641 L 8.4980469 13.925781 L 8.4179688 13.845703 z M 19.275391 13.890625 L 19.333984 13.947266 L 19.337891 13.953125 L 19.349609 13.964844 L 19.275391 13.964844 L 19.275391 13.890625 z M 8.5488281 13.976562 L 8.6328125 13.976562 L 8.6328125 14.060547 L 8.5488281 13.976562 z M 19.392578 14.007812 L 19.447266 14.060547 L 19.392578 14.060547 L 19.392578 14.007812 z M 19.464844 14.078125 L 19.474609 14.089844 L 19.464844 14.089844 L 19.464844 14.078125 z M 8.6796875 14.107422 L 8.7636719 14.107422 L 8.7636719 14.191406 L 8.6796875 14.107422 z M 19.517578 14.132812 L 19.541016 14.15625 L 19.517578 14.15625 L 19.517578 14.132812 z M 19.560547 14.175781 L 19.572266 14.1875 L 19.599609 14.214844 L 19.560547 14.214844 L 19.560547 14.175781 z M 8.8085938 14.236328 L 8.8925781 14.236328 L 8.8925781 14.318359 L 8.8085938 14.236328 z M 19.652344 14.267578 L 19.671875 14.285156 L 19.722656 14.337891 L 19.652344 14.337891 L 19.652344 14.267578 z M 8.9375 14.365234 L 9.0195312 14.365234 L 9.0195312 14.447266 L 8.9375 14.365234 z M 19.765625 14.380859 L 19.78125 14.394531 L 19.78125 14.396484 L 19.820312 14.433594 L 19.765625 14.433594 L 19.765625 14.380859 z M 19.837891 14.451172 L 19.841797 14.455078 L 19.847656 14.460938 L 19.837891 14.460938 L 19.837891 14.451172 z M 9.0664062 14.494141 L 9.1484375 14.494141 L 9.1484375 14.576172 L 9.0703125 14.498047 L 9.0664062 14.494141 z M 19.888672 14.501953 L 19.892578 14.505859 L 19.910156 14.523438 L 19.888672 14.523438 L 19.888672 14.501953 z M 19.927734 14.541016 L 19.96875 14.582031 L 19.927734 14.582031 L 19.927734 14.541016 z M 9.1933594 14.621094 L 9.2734375 14.621094 L 9.2734375 14.701172 L 9.2128906 14.640625 L 9.1933594 14.621094 z M 20.017578 14.630859 L 20.089844 14.703125 L 20.017578 14.703125 L 20.017578 14.630859 z M 20.130859 14.746094 L 20.177734 14.792969 L 20.130859 14.792969 L 20.130859 14.746094 z M 9.3203125 14.748047 L 9.4003906 14.748047 L 9.4003906 14.828125 L 9.3535156 14.78125 L 9.3203125 14.748047 z M 20.197266 14.8125 L 20.208984 14.824219 L 20.197266 14.824219 L 20.197266 14.8125 z M 20.251953 14.867188 L 20.265625 14.880859 L 20.251953 14.880859 L 20.251953 14.867188 z M 9.4453125 14.873047 L 9.5253906 14.873047 L 9.5253906 14.953125 L 9.4921875 14.919922 L 9.4453125 14.873047 z M 20.285156 14.898438 L 20.326172 14.939453 L 20.328125 14.943359 L 20.330078 14.945312 L 20.285156 14.945312 L 20.285156 14.898438 z M 20.371094 14.986328 L 20.431641 15.046875 L 20.433594 15.046875 L 20.441406 15.054688 L 20.371094 15.054688 L 20.371094 14.986328 z M 9.5703125 14.998047 L 9.6503906 14.998047 L 9.6503906 15.078125 L 9.6328125 15.060547 L 9.5703125 14.998047 z M 20.490234 15.105469 L 20.525391 15.138672 L 20.490234 15.138672 L 20.490234 15.105469 z M 9.7167969 15.144531 L 9.7734375 15.144531 L 9.7734375 15.201172 L 9.7714844 15.199219 L 9.7167969 15.144531 z M 20.544922 15.158203 L 20.566406 15.181641 L 20.544922 15.181641 L 20.544922 15.158203 z M 20.628906 15.244141 L 20.642578 15.257812 L 20.644531 15.257812 L 20.685547 15.300781 L 20.628906 15.300781 L 20.628906 15.244141 z M 9.8183594 15.246094 L 9.84375 15.246094 L 9.84375 15.271484 L 9.8183594 15.246094 z M 9.8652344 15.292969 L 9.8964844 15.292969 L 9.8964844 15.324219 L 9.8652344 15.292969 z M 20.726562 15.341797 L 20.748047 15.361328 L 20.777344 15.392578 L 20.726562 15.392578 L 20.726562 15.341797 z M 9.9414062 15.369141 L 9.9902344 15.369141 L 9.9902344 15.417969 L 9.9453125 15.373047 L 9.9414062 15.369141 z M 20.796875 15.412109 L 20.802734 15.417969 L 20.796875 15.417969 L 20.796875 15.412109 z M 20.84375 15.458984 L 20.851562 15.464844 L 20.861328 15.474609 L 20.84375 15.474609 L 20.84375 15.458984 z M 10.064453 15.490234 L 10.136719 15.490234 L 10.136719 15.5625 L 10.064453 15.490234 z M 20.878906 15.492188 L 20.917969 15.533203 L 20.878906 15.533203 L 20.878906 15.492188 z M 20.960938 15.576172 L 21.023438 15.638672 L 20.960938 15.638672 L 20.960938 15.576172 z M 10.185547 15.613281 L 10.259766 15.613281 L 10.259766 15.685547 L 10.185547 15.613281 z M 21.076172 15.691406 L 21.105469 15.71875 L 21.076172 15.71875 L 21.076172 15.691406 z M 10.306641 15.732422 L 10.380859 15.732422 L 10.380859 15.808594 L 10.318359 15.744141 L 10.306641 15.732422 z M 21.123047 15.736328 L 21.148438 15.763672 L 21.123047 15.763672 L 21.123047 15.736328 z M 21.203125 15.818359 L 21.205078 15.820312 L 21.257812 15.871094 L 21.257812 15.873047 L 21.259766 15.875 L 21.261719 15.876953 L 21.203125 15.876953 L 21.203125 15.818359 z M 10.453125 15.878906 L 10.5 15.878906 L 10.5 15.927734 L 10.474609 15.902344 L 10.453125 15.878906 z M 21.304688 15.919922 L 21.341797 15.957031 L 21.304688 15.957031 L 21.304688 15.919922 z M 10.544922 15.972656 L 10.572266 15.972656 L 10.572266 16 L 10.544922 15.972656 z M 21.361328 15.976562 L 21.375 15.990234 L 21.361328 15.990234 L 21.361328 15.976562 z M 10.595703 16.023438 L 10.617188 16.023438 L 10.617188 16.044922 L 10.605469 16.033203 L 10.595703 16.023438 z M 21.4375 16.052734 L 21.457031 16.070312 L 21.480469 16.09375 L 21.486328 16.101562 L 21.488281 16.103516 L 21.4375 16.103516 L 21.4375 16.052734 z M 10.662109 16.089844 L 10.716797 16.089844 L 10.716797 16.144531 L 10.662109 16.089844 z M 21.53125 16.146484 L 21.554688 16.169922 L 21.574219 16.1875 L 21.53125 16.1875 L 21.53125 16.146484 z M 21.591797 16.207031 L 21.599609 16.214844 L 21.591797 16.214844 L 21.591797 16.207031 z M 10.78125 16.208984 L 10.851562 16.208984 L 10.851562 16.279297 L 10.78125 16.208984 z M 21.642578 16.257812 L 21.648438 16.261719 L 21.642578 16.261719 L 21.642578 16.257812 z M 21.666016 16.279297 L 21.710938 16.326172 L 21.666016 16.326172 L 21.666016 16.279297 z M 10.898438 16.326172 L 10.96875 16.326172 L 10.96875 16.396484 L 10.898438 16.326172 z M 21.753906 16.369141 L 21.794922 16.410156 L 21.753906 16.410156 L 21.753906 16.369141 z M 21.814453 16.429688 L 21.820312 16.435547 L 21.814453 16.435547 L 21.814453 16.429688 z M 11.025391 16.451172 L 11.083984 16.451172 L 11.083984 16.511719 L 11.03125 16.457031 L 11.025391 16.451172 z M 21.863281 16.478516 L 21.869141 16.484375 L 21.863281 16.484375 L 21.863281 16.478516 z M 21.888672 16.503906 L 21.929688 16.544922 L 21.888672 16.544922 L 21.888672 16.503906 z M 11.130859 16.556641 L 11.142578 16.556641 L 11.142578 16.568359 L 11.130859 16.556641 z M 21.972656 16.587891 L 22.015625 16.628906 L 21.972656 16.628906 L 21.972656 16.587891 z M 11.167969 16.59375 L 11.199219 16.59375 L 11.199219 16.625 L 11.167969 16.59375 z M 22.033203 16.646484 L 22.037109 16.650391 L 22.037109 16.652344 L 22.039062 16.654297 L 22.033203 16.654297 L 22.033203 16.646484 z M 11.246094 16.671875 L 11.283203 16.671875 L 11.283203 16.708984 L 11.28125 16.707031 L 11.246094 16.673828 L 11.246094 16.671875 z M 22.103516 16.71875 L 22.130859 16.744141 L 22.134766 16.75 L 22.146484 16.761719 L 22.103516 16.761719 L 22.103516 16.71875 z M 11.308594 16.734375 L 11.3125 16.734375 L 11.3125 16.738281 L 11.308594 16.734375 z M 11.357422 16.785156 L 11.423828 16.785156 L 11.423828 16.849609 L 11.375 16.802734 L 11.357422 16.785156 z M 22.189453 16.804688 L 22.222656 16.835938 L 22.222656 16.837891 L 22.189453 16.837891 L 22.189453 16.804688 z M 22.242188 16.857422 L 22.253906 16.869141 L 22.242188 16.869141 L 22.242188 16.857422 z M 11.472656 16.898438 L 11.539062 16.898438 L 11.539062 16.964844 L 11.503906 16.931641 L 11.472656 16.898438 z M 22.3125 16.925781 L 22.316406 16.929688 L 22.34375 16.958984 L 22.359375 16.974609 L 22.3125 16.974609 L 22.3125 16.925781 z M 11.585938 17.013672 L 11.650391 17.013672 L 11.650391 17.078125 L 11.630859 17.058594 L 11.585938 17.013672 z M 22.404297 17.019531 L 22.40625 17.019531 L 22.408203 17.021484 L 22.416016 17.029297 L 22.429688 17.042969 L 22.404297 17.042969 L 22.404297 17.019531 z M 22.447266 17.0625 L 22.455078 17.070312 L 22.466797 17.082031 L 22.447266 17.082031 L 22.447266 17.0625 z M 11.695312 17.123047 L 11.701172 17.123047 L 11.701172 17.128906 L 11.695312 17.123047 z M 22.513672 17.128906 L 22.558594 17.173828 L 22.513672 17.173828 L 22.513672 17.128906 z M 11.722656 17.150391 L 11.761719 17.150391 L 11.761719 17.189453 L 11.759766 17.1875 L 11.722656 17.150391 z M 22.615234 17.230469 L 22.625 17.240234 L 22.615234 17.240234 L 22.615234 17.230469 z M 11.806641 17.234375 L 11.837891 17.234375 L 11.837891 17.265625 L 11.806641 17.234375 z M 22.644531 17.259766 L 22.675781 17.291016 L 22.644531 17.291016 L 22.644531 17.259766 z M 11.861328 17.289062 L 11.871094 17.289062 L 11.871094 17.298828 L 11.861328 17.289062 z M 22.71875 17.333984 L 22.753906 17.367188 L 22.71875 17.367188 L 22.71875 17.333984 z M 11.916016 17.34375 L 11.976562 17.34375 L 11.976562 17.404297 L 11.916016 17.34375 z M 22.771484 17.386719 L 22.775391 17.390625 L 22.779297 17.394531 L 22.771484 17.394531 L 22.771484 17.386719 z M 22.833984 17.449219 L 22.835938 17.451172 L 22.855469 17.46875 L 22.865234 17.480469 L 22.869141 17.484375 L 22.876953 17.492188 L 22.833984 17.492188 L 22.833984 17.449219 z M 12.027344 17.455078 L 12.089844 17.455078 L 12.089844 17.515625 L 12.027344 17.455078 z M 22.925781 17.541016 L 22.939453 17.552734 L 22.925781 17.552734 L 22.925781 17.541016 z M 12.136719 17.5625 L 12.197266 17.5625 L 12.197266 17.625 L 12.136719 17.564453 L 12.136719 17.5625 z M 22.957031 17.572266 L 22.970703 17.583984 L 22.972656 17.587891 L 22.978516 17.59375 L 22.984375 17.599609 L 22.957031 17.599609 L 22.957031 17.572266 z M 23.027344 17.642578 L 23.029297 17.642578 L 23.052734 17.667969 L 23.054688 17.667969 L 23.056641 17.671875 L 23.058594 17.673828 L 23.027344 17.673828 L 23.027344 17.642578 z M 23.078125 17.693359 L 23.085938 17.701172 L 23.078125 17.701172 L 23.078125 17.693359 z M 12.271484 17.697266 L 12.304688 17.697266 L 12.304688 17.730469 L 12.271484 17.697266 z M 23.136719 17.751953 L 23.175781 17.791016 L 23.136719 17.791016 L 23.136719 17.751953 z M 12.349609 17.777344 L 12.382812 17.777344 L 12.382812 17.810547 L 12.351562 17.779297 L 12.349609 17.777344 z M 12.404297 17.832031 L 12.412109 17.832031 L 12.412109 17.839844 L 12.404297 17.832031 z M 23.228516 17.84375 L 23.232422 17.847656 L 23.228516 17.847656 L 23.228516 17.84375 z M 23.251953 17.867188 L 23.285156 17.900391 L 23.287109 17.902344 L 23.251953 17.902344 L 23.251953 17.867188 z M 12.457031 17.884766 L 12.515625 17.884766 L 12.515625 17.941406 L 12.507812 17.935547 L 12.457031 17.884766 z M 23.330078 17.945312 L 23.345703 17.960938 L 23.330078 17.960938 L 23.330078 17.945312 z M 23.365234 17.978516 L 23.367188 17.980469 L 23.369141 17.982422 L 23.386719 18.001953 L 23.365234 18.001953 L 23.365234 17.978516 z M 12.564453 17.990234 L 12.623047 17.990234 L 12.623047 18.050781 L 12.564453 17.990234 z M 23.427734 18.042969 L 23.451172 18.064453 L 23.457031 18.070312 L 23.427734 18.070312 L 23.427734 18.042969 z M 23.476562 18.091797 L 23.484375 18.099609 L 23.476562 18.099609 L 23.476562 18.091797 z M 12.673828 18.099609 L 12.726562 18.099609 L 12.726562 18.154297 L 12.673828 18.099609 z M 23.529297 18.144531 L 23.533203 18.146484 L 23.5625 18.177734 L 23.529297 18.177734 L 23.529297 18.144531 z M 12.773438 18.199219 L 12.783203 18.199219 L 12.783203 18.208984 L 12.773438 18.199219 z M 12.806641 18.232422 L 12.830078 18.232422 L 12.830078 18.257812 L 12.824219 18.251953 L 12.806641 18.232422 z M 23.634766 18.25 L 23.667969 18.28125 L 23.634766 18.28125 L 23.634766 18.25 z M 12.875 18.302734 L 12.914062 18.302734 L 12.914062 18.341797 L 12.875 18.302734 z M 23.738281 18.351562 L 23.769531 18.382812 L 23.738281 18.382812 L 23.738281 18.351562 z M 12.978516 18.40625 L 13.035156 18.40625 L 13.035156 18.462891 L 12.992188 18.419922 L 12.978516 18.40625 z M 23.835938 18.449219 L 23.853516 18.466797 L 23.867188 18.480469 L 23.835938 18.480469 L 23.835938 18.449219 z M 13.080078 18.507812 L 13.136719 18.507812 L 13.136719 18.564453 L 13.111328 18.539062 L 13.080078 18.507812 z M 23.912109 18.525391 L 23.916016 18.529297 L 23.912109 18.529297 L 23.912109 18.525391 z M 23.933594 18.546875 L 23.962891 18.576172 L 23.933594 18.576172 L 23.933594 18.546875 z M 13.199219 18.625 L 13.238281 18.625 L 13.238281 18.666016 L 13.228516 18.65625 L 13.199219 18.625 z M 24.027344 18.640625 L 24.054688 18.667969 L 24.027344 18.667969 L 24.027344 18.640625 z M 13.283203 18.710938 L 13.304688 18.710938 L 13.304688 18.730469 L 13.283203 18.710938 z M 24.117188 18.730469 L 24.144531 18.757812 L 24.117188 18.757812 L 24.117188 18.730469 z M 13.330078 18.755859 L 13.337891 18.755859 L 13.337891 18.763672 L 13.330078 18.755859 z M 13.382812 18.810547 L 13.433594 18.810547 L 13.433594 18.859375 L 13.382812 18.810547 z M 24.205078 18.818359 L 24.230469 18.84375 L 24.205078 18.84375 L 24.205078 18.818359 z M 24.289062 18.902344 L 24.3125 18.925781 L 24.289062 18.925781 L 24.289062 18.902344 z M 13.482422 18.910156 L 13.535156 18.910156 L 13.535156 18.962891 L 13.509766 18.9375 L 13.482422 18.910156 z M 24.330078 18.943359 L 24.337891 18.951172 L 24.330078 18.951172 L 24.330078 18.943359 z M 24.378906 18.992188 L 24.386719 19 L 24.394531 19.007812 L 24.378906 19.007812 L 24.378906 18.992188 z M 13.583984 19.011719 L 13.632812 19.011719 L 13.632812 19.060547 L 13.621094 19.048828 L 13.583984 19.011719 z M 24.412109 19.025391 L 24.429688 19.042969 L 24.412109 19.042969 L 24.412109 19.025391 z M 24.488281 19.101562 L 24.507812 19.121094 L 24.488281 19.121094 L 24.488281 19.101562 z M 13.677734 19.105469 L 13.689453 19.105469 L 13.689453 19.117188 L 13.677734 19.105469 z M 13.710938 19.138672 L 13.730469 19.138672 L 13.730469 19.158203 L 13.710938 19.138672 z M 24.5625 19.175781 L 24.582031 19.195312 L 24.5625 19.195312 L 24.5625 19.175781 z M 13.775391 19.203125 L 13.816406 19.203125 L 13.816406 19.244141 L 13.810547 19.238281 L 13.775391 19.203125 z M 24.599609 19.212891 L 24.603516 19.216797 L 24.609375 19.222656 L 24.599609 19.222656 L 24.599609 19.212891 z M 24.667969 19.28125 L 24.673828 19.287109 L 24.683594 19.298828 L 24.667969 19.298828 L 24.667969 19.28125 z M 13.871094 19.298828 L 13.921875 19.298828 L 13.921875 19.349609 L 13.871094 19.298828 z M 24.738281 19.353516 L 24.744141 19.357422 L 24.75 19.363281 L 24.738281 19.363281 L 24.738281 19.353516 z M 24.767578 19.382812 L 24.779297 19.394531 L 24.767578 19.394531 L 24.767578 19.382812 z M 13.96875 19.394531 L 14.015625 19.394531 L 14.015625 19.443359 L 13.96875 19.394531 z M 24.830078 19.445312 L 24.839844 19.455078 L 24.830078 19.455078 L 24.830078 19.445312 z M 24.859375 19.474609 L 24.869141 19.484375 L 24.859375 19.484375 L 24.859375 19.474609 z M 14.060547 19.488281 L 14.066406 19.488281 L 14.066406 19.492188 L 14.060547 19.488281 z M 14.091797 19.517578 L 14.109375 19.517578 L 14.109375 19.535156 L 14.091797 19.517578 z M 24.917969 19.533203 L 24.925781 19.541016 L 24.917969 19.541016 L 24.917969 19.533203 z M 24.945312 19.558594 L 24.949219 19.564453 L 24.953125 19.568359 L 24.945312 19.568359 L 24.945312 19.558594 z M 14.154297 19.582031 L 14.191406 19.582031 L 14.191406 19.617188 L 14.189453 19.615234 L 14.154297 19.582031 z M 25 19.615234 L 25.003906 19.619141 L 25.005859 19.619141 L 25.007812 19.621094 L 25 19.621094 L 25 19.615234 z M 25.025391 19.638672 L 25.03125 19.644531 L 25.025391 19.644531 L 25.025391 19.638672 z M 14.248047 19.675781 L 14.294922 19.675781 L 14.294922 19.720703 L 14.261719 19.689453 L 14.248047 19.675781 z M 25.119141 19.734375 L 25.123047 19.738281 L 25.119141 19.738281 L 25.119141 19.734375 z M 14.341797 19.767578 L 14.386719 19.767578 L 14.386719 19.814453 L 14.373047 19.800781 L 14.34375 19.769531 L 14.341797 19.767578 z M 14.433594 19.859375 L 14.4375 19.859375 L 14.4375 19.863281 L 14.433594 19.859375 z M 14.462891 19.888672 L 14.478516 19.888672 L 14.478516 19.90625 L 14.46875 19.894531 L 14.462891 19.888672 z M 14.523438 19.951172 L 14.560547 19.951172 L 14.560547 19.986328 L 14.523438 19.951172 z M 14.613281 20.041016 L 14.658203 20.041016 L 14.658203 20.085938 L 14.613281 20.041016 z M 25.453125 20.068359 L 25.460938 20.076172 L 25.453125 20.076172 L 25.453125 20.068359 z M 25.503906 20.119141 L 25.527344 20.142578 L 25.542969 20.158203 L 25.503906 20.158203 L 25.503906 20.119141 z M 14.703125 20.130859 L 14.746094 20.130859 L 14.746094 20.173828 L 14.703125 20.130859 z M 25.583984 20.199219 L 25.587891 20.203125 L 25.623047 20.238281 L 25.583984 20.238281 L 25.583984 20.199219 z M 14.792969 20.21875 L 14.802734 20.21875 L 14.802734 20.228516 L 14.792969 20.21875 z M 14.826172 20.251953 L 14.833984 20.251953 L 14.833984 20.259766 L 14.826172 20.251953 z M 25.666016 20.28125 L 25.667969 20.28125 L 25.703125 20.318359 L 25.666016 20.318359 L 25.666016 20.28125 z M 14.878906 20.306641 L 14.921875 20.306641 L 14.921875 20.347656 L 14.916016 20.34375 L 14.878906 20.306641 z M 25.744141 20.359375 L 25.755859 20.371094 L 25.765625 20.378906 L 25.767578 20.380859 L 25.769531 20.382812 L 25.771484 20.386719 L 25.773438 20.388672 L 25.78125 20.396484 L 25.744141 20.396484 L 25.744141 20.359375 z M 14.96875 20.394531 L 15.007812 20.394531 L 15.007812 20.435547 L 15.005859 20.433594 L 14.96875 20.394531 z M 25.824219 20.439453 L 25.859375 20.474609 L 25.824219 20.474609 L 25.824219 20.439453 z M 15.066406 20.492188 L 15.09375 20.492188 L 15.09375 20.521484 L 15.066406 20.492188 z M 25.902344 20.517578 L 25.935547 20.550781 L 25.9375 20.552734 L 25.902344 20.552734 L 25.902344 20.517578 z M 15.138672 20.566406 L 15.160156 20.566406 L 15.160156 20.587891 L 15.138672 20.566406 z M 25.980469 20.595703 L 25.992188 20.605469 L 26 20.613281 L 26.011719 20.626953 L 26.013672 20.628906 L 25.980469 20.628906 L 25.980469 20.595703 z M 15.224609 20.652344 L 15.263672 20.652344 L 15.263672 20.691406 L 15.234375 20.662109 L 15.224609 20.652344 z M 26.056641 20.671875 L 26.089844 20.705078 L 26.056641 20.705078 L 26.056641 20.671875 z M 15.308594 20.736328 L 15.347656 20.736328 L 15.347656 20.775391 L 15.337891 20.765625 L 15.308594 20.736328 z M 26.132812 20.748047 L 26.134766 20.75 L 26.152344 20.767578 L 26.166016 20.78125 L 26.132812 20.78125 L 26.132812 20.748047 z M 26.208984 20.824219 L 26.240234 20.855469 L 26.208984 20.855469 L 26.208984 20.824219 z M 15.416016 20.84375 L 15.429688 20.84375 L 15.429688 20.857422 L 15.416016 20.84375 z M 26.283203 20.898438 L 26.302734 20.916016 L 26.308594 20.921875 L 26.310547 20.923828 L 26.3125 20.927734 L 26.314453 20.929688 L 26.283203 20.929688 L 26.283203 20.898438 z M 15.474609 20.902344 L 15.509766 20.902344 L 15.509766 20.9375 L 15.505859 20.933594 L 15.474609 20.902344 z M 26.357422 20.972656 L 26.359375 20.972656 L 26.376953 20.992188 L 26.388672 21.003906 L 26.357422 21.003906 L 26.357422 20.972656 z M 15.556641 20.984375 L 15.59375 20.984375 L 15.59375 21.021484 L 15.556641 20.984375 z M 26.429688 21.044922 L 26.457031 21.070312 L 26.458984 21.072266 L 26.460938 21.076172 L 26.429688 21.076172 L 26.429688 21.044922 z M 15.648438 21.076172 L 15.673828 21.076172 L 15.673828 21.101562 L 15.648438 21.076172 z M 26.501953 21.117188 L 26.503906 21.117188 L 26.515625 21.128906 L 26.529297 21.142578 L 26.53125 21.146484 L 26.501953 21.146484 L 26.501953 21.117188 z M 15.71875 21.146484 L 15.740234 21.146484 L 15.740234 21.167969 L 15.71875 21.146484 z M 26.574219 21.189453 L 26.591797 21.205078 L 26.597656 21.210938 L 26.599609 21.212891 L 26.601562 21.216797 L 26.603516 21.21875 L 26.574219 21.21875 L 26.574219 21.189453 z M 15.798828 21.226562 L 15.832031 21.226562 L 15.832031 21.259766 L 15.798828 21.226562 z M 26.644531 21.259766 L 26.673828 21.289062 L 26.644531 21.289062 L 26.644531 21.259766 z M 15.876953 21.304688 L 15.910156 21.304688 L 15.910156 21.337891 L 15.876953 21.304688 z M 26.714844 21.330078 L 26.726562 21.341797 L 26.728516 21.341797 L 26.728516 21.34375 L 26.730469 21.34375 L 26.732422 21.345703 L 26.738281 21.351562 L 26.740234 21.353516 L 26.742188 21.357422 L 26.714844 21.357422 L 26.714844 21.330078 z M 15.955078 21.382812 L 15.96875 21.382812 L 15.96875 21.396484 L 15.955078 21.382812 z M 26.785156 21.400391 L 26.810547 21.425781 L 26.785156 21.425781 L 26.785156 21.400391 z M 16.033203 21.460938 L 16.064453 21.460938 L 16.064453 21.492188 L 16.048828 21.476562 L 16.033203 21.460938 z M 26.853516 21.46875 L 26.855469 21.470703 L 26.857422 21.472656 L 26.861328 21.474609 L 26.867188 21.480469 L 26.871094 21.484375 L 26.873047 21.488281 L 26.875 21.490234 L 26.876953 21.490234 L 26.878906 21.494141 L 26.853516 21.494141 L 26.853516 21.46875 z M 26.921875 21.537109 L 26.927734 21.542969 L 26.929688 21.542969 L 26.931641 21.544922 L 26.941406 21.554688 L 26.941406 21.556641 L 26.945312 21.560547 L 26.921875 21.560547 L 26.921875 21.537109 z M 16.113281 21.539062 L 16.140625 21.539062 L 16.140625 21.568359 L 16.113281 21.539062 z M 26.988281 21.603516 L 27.011719 21.626953 L 26.988281 21.626953 L 26.988281 21.603516 z M 27.054688 21.669922 L 27.056641 21.669922 L 27.058594 21.671875 L 27.064453 21.677734 L 27.064453 21.679688 L 27.066406 21.681641 L 27.068359 21.683594 L 27.072266 21.6875 L 27.078125 21.693359 L 27.054688 21.693359 L 27.054688 21.669922 z M 16.261719 21.689453 L 16.291016 21.689453 L 16.291016 21.716797 L 16.261719 21.689453 z M 27.121094 21.736328 L 27.123047 21.738281 L 27.130859 21.746094 L 27.132812 21.748047 L 27.134766 21.75 L 27.142578 21.757812 L 27.121094 21.757812 L 27.121094 21.736328 z M 16.337891 21.763672 L 16.365234 21.763672 L 16.365234 21.792969 L 16.357422 21.785156 L 16.341797 21.767578 L 16.337891 21.763672 z M 27.185547 21.800781 L 27.1875 21.802734 L 27.195312 21.810547 L 27.199219 21.8125 L 27.201172 21.814453 L 27.205078 21.818359 L 27.205078 21.820312 L 27.207031 21.822266 L 27.185547 21.822266 L 27.185547 21.800781 z M 16.410156 21.837891 L 16.414062 21.837891 L 16.414062 21.841797 L 16.410156 21.837891 z M 27.25 21.865234 L 27.271484 21.886719 L 27.25 21.886719 L 27.25 21.865234 z M 16.484375 21.912109 L 16.511719 21.912109 L 16.511719 21.939453 L 16.484375 21.912109 z M 27.3125 21.927734 L 27.330078 21.945312 L 27.333984 21.949219 L 27.3125 21.949219 L 27.3125 21.927734 z M 16.556641 21.984375 L 16.582031 21.984375 L 16.582031 22.009766 L 16.556641 21.984375 z M 27.376953 21.992188 L 27.378906 21.992188 L 27.380859 21.994141 L 27.382812 21.996094 L 27.384766 21.998047 L 27.396484 22.011719 L 27.376953 22.011719 L 27.376953 21.992188 z M 27.4375 22.052734 L 27.457031 22.072266 L 27.4375 22.072266 L 27.4375 22.052734 z M 16.626953 22.054688 L 16.630859 22.054688 L 16.630859 22.058594 L 16.628906 22.056641 L 16.626953 22.054688 z M 27.5 22.115234 L 27.515625 22.130859 L 27.517578 22.132812 L 27.5 22.132812 L 27.5 22.115234 z M 16.699219 22.126953 L 16.722656 22.126953 L 16.722656 22.150391 L 16.720703 22.148438 L 16.699219 22.126953 z M 27.560547 22.175781 L 27.570312 22.183594 L 27.570312 22.185547 L 27.572266 22.1875 L 27.578125 22.193359 L 27.560547 22.193359 L 27.560547 22.175781 z M 16.769531 22.197266 L 16.792969 22.197266 L 16.792969 22.220703 L 16.769531 22.197266 z M 27.619141 22.234375 L 27.623047 22.236328 L 27.626953 22.242188 L 27.636719 22.251953 L 27.619141 22.251953 L 27.619141 22.234375 z M 16.837891 22.265625 L 16.847656 22.265625 L 16.847656 22.275391 L 16.837891 22.265625 z M 27.677734 22.292969 L 27.691406 22.304688 L 27.691406 22.306641 L 27.693359 22.308594 L 27.695312 22.310547 L 27.677734 22.310547 L 27.677734 22.292969 z M 16.90625 22.333984 L 16.929688 22.333984 L 16.929688 22.357422 L 16.90625 22.333984 z M 27.736328 22.351562 L 27.751953 22.367188 L 27.736328 22.367188 L 27.736328 22.351562 z M 16.976562 22.404297 L 16.996094 22.404297 L 16.996094 22.423828 L 16.976562 22.404297 z M 27.794922 22.410156 L 27.808594 22.423828 L 27.794922 22.423828 L 27.794922 22.410156 z M 27.851562 22.466797 L 27.853516 22.46875 L 27.861328 22.474609 L 27.865234 22.478516 L 27.865234 22.480469 L 27.851562 22.480469 L 27.851562 22.466797 z M 17.042969 22.470703 L 17.058594 22.470703 L 17.058594 22.486328 L 17.042969 22.470703 z M 27.908203 22.523438 L 27.910156 22.525391 L 27.917969 22.53125 L 27.919922 22.535156 L 27.908203 22.535156 L 27.908203 22.523438 z M 17.109375 22.537109 L 17.128906 22.537109 L 17.128906 22.556641 L 17.109375 22.537109 z M 27.962891 22.578125 L 27.970703 22.585938 L 27.974609 22.589844 L 27.962891 22.589844 L 27.962891 22.578125 z M 17.1875 22.615234 L 17.193359 22.615234 L 17.193359 22.621094 L 17.1875 22.615234 z M 17.238281 22.666016 L 17.257812 22.666016 L 17.257812 22.685547 L 17.238281 22.666016 z M 17.302734 22.730469 L 17.322266 22.730469 L 17.322266 22.75 L 17.302734 22.730469 z M 17.367188 22.794922 L 17.373047 22.794922 L 17.373047 22.800781 L 17.367188 22.794922 z M 17.429688 22.857422 L 17.447266 22.857422 L 17.447266 22.875 L 17.445312 22.873047 L 17.429688 22.857422 z M 17.498047 22.925781 L 17.507812 22.925781 L 17.507812 22.935547 L 17.498047 22.925781 z M 17.552734 22.980469 L 17.568359 22.980469 L 17.568359 22.996094 L 17.564453 22.992188 L 17.552734 22.980469 z M 17.613281 23.041016 L 17.628906 23.041016 L 17.628906 23.056641 L 17.619141 23.046875 L 17.613281 23.041016 z M 17.673828 23.101562 L 17.677734 23.101562 L 17.677734 23.105469 L 17.673828 23.101562 z M 17.732422 23.160156 L 17.746094 23.160156 L 17.746094 23.173828 L 17.732422 23.160156 z M 17.847656 23.275391 L 17.859375 23.275391 L 17.859375 23.287109 L 17.847656 23.275391 z M 17.90625 23.332031 L 17.916016 23.332031 L 17.916016 23.341797 L 17.90625 23.332031 z M 17.960938 23.388672 L 17.970703 23.388672 L 17.970703 23.396484 L 17.960938 23.388672 z M 18.017578 23.443359 L 18.025391 23.443359 L 18.025391 23.451172 L 18.017578 23.443359 z M 18.072266 23.498047 L 18.076172 23.498047 L 18.076172 23.501953 L 18.074219 23.5 L 18.072266 23.498047 z M 18.125 23.552734 L 18.132812 23.552734 L 18.132812 23.560547 L 18.125 23.552734 z M 18.230469 23.658203 L 18.236328 23.658203 L 18.236328 23.664062 L 18.230469 23.658203 z M 18.332031 23.759766 L 18.337891 23.759766 L 18.337891 23.765625 L 18.335938 23.763672 L 18.332031 23.759766 z M 18.431641 23.859375 L 18.435547 23.859375 L 18.435547 23.863281 L 18.431641 23.859375 z M 20.048828 25.476562 L 20.052734 25.476562 L 20.052734 25.478516 L 20.050781 25.478516 L 20.048828 25.476562 z M 20.078125 25.503906 L 20.134766 25.503906 L 20.134766 25.560547 L 20.119141 25.546875 L 20.078125 25.503906 z M 20.158203 25.583984 L 20.214844 25.583984 L 20.214844 25.640625 L 20.179688 25.607422 L 20.158203 25.583984 z M 20.240234 25.666016 L 20.294922 25.666016 L 20.294922 25.722656 L 20.257812 25.685547 L 20.240234 25.666016 z M 20.318359 25.746094 L 20.375 25.746094 L 20.375 25.802734 L 20.357422 25.785156 L 20.318359 25.746094 z M 20.396484 25.824219 L 20.453125 25.824219 L 20.453125 25.880859 L 20.414062 25.841797 L 20.396484 25.824219 z M 20.474609 25.902344 L 20.529297 25.902344 L 20.529297 25.957031 L 20.527344 25.955078 L 20.474609 25.902344 z M 20.554688 25.980469 L 20.607422 25.980469 L 20.607422 26.033203 L 20.582031 26.009766 L 20.554688 25.980469 z M 20.630859 26.056641 L 20.683594 26.056641 L 20.683594 26.109375 L 20.636719 26.064453 L 20.630859 26.056641 z M 20.707031 26.132812 L 20.757812 26.132812 L 20.757812 26.183594 L 20.755859 26.181641 L 20.744141 26.171875 L 20.708984 26.134766 L 20.707031 26.132812 z M 20.783203 26.208984 L 20.833984 26.208984 L 20.833984 26.259766 L 20.796875 26.224609 L 20.791016 26.216797 L 20.789062 26.214844 L 20.783203 26.208984 z M 20.857422 26.283203 L 20.90625 26.283203 L 20.90625 26.332031 L 20.902344 26.328125 L 20.900391 26.328125 L 20.898438 26.326172 L 20.896484 26.322266 L 20.884766 26.310547 L 20.878906 26.304688 L 20.857422 26.283203 z M 20.931641 26.357422 L 20.980469 26.357422 L 20.980469 26.40625 L 20.955078 26.382812 L 20.949219 26.376953 L 20.945312 26.373047 L 20.945312 26.371094 L 20.943359 26.369141 L 20.931641 26.357422 z M 21.003906 26.429688 L 21.052734 26.429688 L 21.052734 26.478516 L 21.048828 26.474609 L 21.046875 26.474609 L 21.037109 26.464844 L 21.021484 26.449219 L 21.015625 26.441406 L 21.003906 26.429688 z M 21.076172 26.501953 L 21.125 26.501953 L 21.125 26.550781 L 21.095703 26.523438 L 21.095703 26.521484 L 21.076172 26.501953 z M 21.148438 26.574219 L 21.195312 26.574219 L 21.195312 26.621094 L 21.1875 26.615234 L 21.148438 26.574219 z M 21.21875 26.644531 L 21.265625 26.644531 L 21.265625 26.691406 L 21.234375 26.662109 L 21.21875 26.644531 z M 21.289062 26.714844 L 21.333984 26.714844 L 21.333984 26.759766 L 21.322266 26.75 L 21.320312 26.748047 L 21.289062 26.714844 z M 21.359375 26.785156 L 21.402344 26.785156 L 21.402344 26.828125 L 21.367188 26.794922 L 21.359375 26.785156 z M 21.425781 26.853516 L 21.470703 26.853516 L 21.470703 26.898438 L 21.466797 26.894531 L 21.451172 26.878906 L 21.425781 26.853516 z M 21.494141 26.921875 L 21.539062 26.921875 L 21.539062 26.966797 L 21.533203 26.960938 L 21.494141 26.921875 z M 21.5625 26.988281 L 21.605469 26.988281 L 21.605469 27.03125 L 21.572266 27 L 21.570312 26.998047 L 21.5625 26.988281 z M 21.628906 27.054688 L 21.669922 27.054688 L 21.669922 27.095703 L 21.650391 27.078125 L 21.648438 27.076172 L 21.628906 27.054688 z M 21.695312 27.121094 L 21.736328 27.121094 L 21.736328 27.162109 L 21.726562 27.154297 L 21.724609 27.152344 L 21.71875 27.146484 L 21.714844 27.142578 L 21.695312 27.121094 z M 21.759766 27.185547 L 21.800781 27.185547 L 21.800781 27.226562 L 21.798828 27.224609 L 21.796875 27.224609 L 21.794922 27.222656 L 21.759766 27.1875 L 21.759766 27.185547 z M 21.824219 27.25 L 21.863281 27.25 L 21.863281 27.289062 L 21.841797 27.267578 L 21.830078 27.257812 L 21.828125 27.255859 L 21.826172 27.253906 L 21.824219 27.25 z M 21.888672 27.314453 L 21.925781 27.314453 L 21.925781 27.351562 L 21.896484 27.324219 L 21.888672 27.314453 z M 21.951172 27.376953 L 21.988281 27.376953 L 21.988281 27.414062 L 21.974609 27.402344 L 21.974609 27.400391 L 21.972656 27.398438 L 21.970703 27.398438 L 21.96875 27.396484 L 21.966797 27.394531 L 21.966797 27.392578 L 21.960938 27.388672 L 21.955078 27.382812 L 21.953125 27.378906 L 21.951172 27.376953 z M 22.011719 27.4375 L 22.048828 27.4375 L 22.048828 27.474609 L 22.044922 27.470703 L 22.042969 27.46875 L 22.041016 27.46875 L 22.039062 27.466797 L 22.021484 27.449219 L 22.017578 27.445312 L 22.017578 27.443359 L 22.015625 27.441406 L 22.011719 27.4375 z M 22.074219 27.5 L 22.109375 27.5 L 22.109375 27.535156 L 22.107422 27.535156 L 22.080078 27.507812 L 22.078125 27.505859 L 22.078125 27.503906 L 22.076172 27.501953 L 22.074219 27.5 z M 22.134766 27.560547 L 22.169922 27.560547 L 22.169922 27.595703 L 22.167969 27.59375 L 22.166016 27.591797 L 22.164062 27.589844 L 22.162109 27.589844 L 22.160156 27.587891 L 22.134766 27.5625 L 22.134766 27.560547 z M 22.193359 27.619141 L 22.228516 27.619141 L 22.228516 27.654297 L 22.226562 27.652344 L 22.224609 27.652344 L 22.222656 27.650391 L 22.210938 27.638672 L 22.207031 27.634766 L 22.203125 27.630859 L 22.201172 27.628906 L 22.201172 27.626953 L 22.195312 27.621094 L 22.193359 27.619141 z M 22.253906 27.679688 L 22.287109 27.679688 L 22.287109 27.712891 L 22.285156 27.710938 L 22.283203 27.710938 L 22.28125 27.708984 L 22.259766 27.6875 L 22.259766 27.685547 L 22.253906 27.679688 z M 22.310547 27.736328 L 22.34375 27.736328 L 22.34375 27.769531 L 22.332031 27.757812 L 22.330078 27.755859 L 22.328125 27.755859 L 22.324219 27.751953 L 22.322266 27.75 L 22.320312 27.748047 L 22.320312 27.746094 L 22.318359 27.744141 L 22.314453 27.740234 L 22.310547 27.736328 z M 22.369141 27.794922 L 22.400391 27.794922 L 22.400391 27.826172 L 22.398438 27.824219 L 22.396484 27.822266 L 22.394531 27.822266 L 22.382812 27.810547 L 22.371094 27.798828 L 22.371094 27.796875 L 22.369141 27.794922 z M 22.425781 27.851562 L 22.457031 27.851562 L 22.457031 27.882812 L 22.453125 27.878906 L 22.451172 27.878906 L 22.435547 27.863281 L 22.435547 27.861328 L 22.429688 27.855469 L 22.427734 27.853516 L 22.425781 27.851562 z M 22.482422 27.908203 L 22.511719 27.908203 L 22.511719 27.9375 L 22.507812 27.935547 L 22.496094 27.923828 L 22.496094 27.921875 L 22.482422 27.908203 z M 22.535156 27.962891 L 22.566406 27.962891 L 22.566406 27.994141 L 22.5625 27.990234 L 22.552734 27.980469 L 22.542969 27.970703 L 22.535156 27.962891 z "
       id="path6262"
       clip-path="url(#clipPath7122)" />
    <g
       transform="matrix(0.45416667,0,0,0.45416667,5.0041444,5.0497917)"
       id="g4219"
       style="fill:#000000">
      <path
         d="m -1,-0.55 24,0 0,24 -24,0 z"
         id="path4-6"
         inkscape:connector-curvature="0"
         style="fill:none" />
      <path
         d="M 5.76,4.29 3.96,2.5 2.55,3.91 4.34,5.7 5.76,4.29 Z M 3,9.95 l -3,0 0,2 3,0 0,-2 z M 12,0 l -2,0 0,2.95 2,0 L 12,0 Z M 19.45,3.91 18.04,2.5 16.25,4.29 17.66,5.7 19.45,3.91 Z m -3.21,13.7 1.79,1.8 1.41,-1.41 -1.8,-1.79 -1.4,1.4 z M 19,9.95 l 0,2 3,0 0,-2 -3,0 z m -8,-5 c -3.31,0 -6,2.69 -6,6 0,3.31 2.69,6 6,6 3.31,0 6,-2.69 6,-6 0,-3.31 -2.69,-6 -6,-6 z m -1,16.95 2,0 0,-2.95 -2,0 0,2.95 z M 2.55,17.99 3.96,19.4 5.75,17.6 4.34,16.19 2.55,17.99 Z"
         id="path6"
         style="fill:#ffeb3b"
         inkscape:connector-curvature="0" />
    </g>
  </g>
</svg>
