<?xml version="1.0" encoding="UTF-8" standalone="no"?>
<!-- Created with Inkscape (http://www.inkscape.org/) -->

<svg
   xmlns:dc="http://purl.org/dc/elements/1.1/"
   xmlns:cc="http://creativecommons.org/ns#"
   xmlns:rdf="http://www.w3.org/1999/02/22-rdf-syntax-ns#"
   xmlns:svg="http://www.w3.org/2000/svg"
   xmlns="http://www.w3.org/2000/svg"
   xmlns:xlink="http://www.w3.org/1999/xlink"
   xmlns:sodipodi="http://sodipodi.sourceforge.net/DTD/sodipodi-0.dtd"
   xmlns:inkscape="http://www.inkscape.org/namespaces/inkscape"
   width="5.6444445mm"
   height="5.6444445mm"
   viewBox="0 0 20 20"
   id="svg2"
   version="1.1"
   inkscape:version="0.91 r13725"
   sodipodi:docname="Wonderlist.svg"
   inkscape:export-filename="/home/juergen/Projekte/Android/Android_Studio/Baumann_Theme/theme/src/main/assets/icons/res/drawable-xxhdpi/a090.png"
   inkscape:export-xdpi="648"
   inkscape:export-ydpi="648">
  <sodipodi:namedview
     id="base"
     pagecolor="#ffffff"
     bordercolor="#666666"
     borderopacity="1.0"
     inkscape:pageopacity="0.0"
     inkscape:pageshadow="2"
     inkscape:zoom="15.839192"
     inkscape:cx="4.0858553"
     inkscape:cy="3.0701484"
     inkscape:document-units="px"
     inkscape:current-layer="layer1"
     showgrid="false"
     fit-margin-top="0"
     fit-margin-left="0"
     fit-margin-right="0"
     fit-margin-bottom="0"
     showguides="true"
     inkscape:guide-bbox="true"
     inkscape:window-width="1366"
     inkscape:window-height="744"
     inkscape:window-x="0"
     inkscape:window-y="24"
     inkscape:window-maximized="1"
     inkscape:snap-grids="false"
     inkscape:snap-to-guides="false"
     inkscape:snap-page="false">
    <inkscape:grid
       id="grid4138"
       type="xygrid" />
    <sodipodi:guide
       id="guide4140"
       orientation="0,1"
       position="10,18" />
    <sodipodi:guide
       id="guide4142"
       orientation="0,1"
       position="10,2" />
    <sodipodi:guide
       id="guide4144"
       orientation="1,0"
       position="2,10" />
    <sodipodi:guide
       id="guide4146"
       orientation="0,20"
       position="0,0" />
    <sodipodi:guide
       id="guide4148"
       orientation="-20,0"
       position="20,0" />
    <sodipodi:guide
       id="guide4150"
       orientation="0,-20"
       position="20,20" />
    <sodipodi:guide
       id="guide4152"
       orientation="20,0"
       position="0,20" />
    <sodipodi:guide
       id="guide4154"
       orientation="1,0"
       position="18,10" />
    <sodipodi:guide
       id="guide4156"
       orientation="-0.70710678,0.70710678"
       position="10,10" />
    <sodipodi:guide
       id="guide4160"
       orientation="1,0"
       position="4,10" />
    <sodipodi:guide
       id="guide4162"
       orientation="1,0"
       position="16,10" />
    <sodipodi:guide
       id="guide4166"
       orientation="0,1"
       position="10,4" />
    <sodipodi:guide
       id="guide4168"
       orientation="0,1"
       position="10,15" />
    <sodipodi:guide
       id="guide4170"
       orientation="0,1"
       position="10,5" />
    <sodipodi:guide
       id="guide4172"
       orientation="1,0"
       position="5,10" />
    <sodipodi:guide
       id="guide4174"
       orientation="1,0"
       position="15,10" />
  </sodipodi:namedview>
  <defs
     id="defs4">
    <linearGradient
       inkscape:collect="always"
       id="linearGradient5163">
      <stop
         style="stop-color:#000000;stop-opacity:0.2"
         offset="0"
         id="stop5165" />
      <stop
         style="stop-color:#000000;stop-opacity:0;"
         offset="1"
         id="stop5167" />
    </linearGradient>
    <clipPath
       clipPathUnits="userSpaceOnUse"
       id="clipPath12478">
      <circle
         style="opacity:1;fill:#2196f3;fill-opacity:1;stroke:none;stroke-width:0.05069799;stroke-miterlimit:4;stroke-dasharray:none;stroke-opacity:1"
         id="circle12480"
         cx="9.9999781"
         cy="10.000005"
         r="10" />
    </clipPath>
    <clipPath
       id="clipPath5790"
       clipPathUnits="userSpaceOnUse">
      <circle
         inkscape:export-ydpi="648"
         inkscape:export-xdpi="648"
         inkscape:export-filename="/home/juergen/path4136.png"
         style="opacity:1;fill:#2196f3;fill-opacity:1;stroke:none;stroke-width:0.05069799;stroke-miterlimit:4;stroke-dasharray:none;stroke-opacity:1"
         id="circle5792"
         cx="9.9999781"
         cy="10.000005"
         r="10" />
    </clipPath>
    <clipPath
       clipPathUnits="userSpaceOnUse"
       id="clipPath5055">
      <circle
         inkscape:export-ydpi="648"
         inkscape:export-xdpi="648"
         inkscape:export-filename="/home/juergen/path4136.png"
         style="opacity:1;fill:#2196f3;fill-opacity:1;stroke:none;stroke-width:0.05069799;stroke-miterlimit:4;stroke-dasharray:none;stroke-opacity:1"
         id="circle5057"
         cx="9.9999781"
         cy="10.000005"
         r="10" />
    </clipPath>
    <clipPath
       id="clipPath5119"
       clipPathUnits="userSpaceOnUse">
      <circle
         inkscape:export-ydpi="648"
         inkscape:export-xdpi="648"
         inkscape:export-filename="/home/juergen/Schreibtisch/path4136.png"
         style="opacity:1;fill:#2196f3;fill-opacity:1;stroke:none;stroke-width:0.05069799;stroke-miterlimit:4;stroke-dasharray:none;stroke-opacity:1"
         id="circle5121"
         cx="9.9999781"
         cy="10.000005"
         r="10" />
    </clipPath>
    <clipPath
       clipPathUnits="userSpaceOnUse"
       id="clipPath5194">
      <circle
         inkscape:export-ydpi="648"
         inkscape:export-xdpi="648"
         inkscape:export-filename="/home/juergen/Schreibtisch/path4136.png"
         style="opacity:1;fill:#cddc39;fill-opacity:1;stroke:none;stroke-width:0.05069799;stroke-miterlimit:4;stroke-dasharray:none;stroke-opacity:1"
         id="circle5196"
         cx="9.9999781"
         cy="10.000005"
         r="10" />
    </clipPath>
    <clipPath
       id="clipPath6175"
       clipPathUnits="userSpaceOnUse">
      <circle
         inkscape:export-ydpi="648"
         inkscape:export-xdpi="648"
         inkscape:export-filename="/home/juergen/Schreibtisch/path4136.png"
         style="opacity:1;fill:#f44336;fill-opacity:1;stroke:none;stroke-width:0.05069799;stroke-miterlimit:4;stroke-dasharray:none;stroke-opacity:1"
         id="circle6177"
         cx="9.9999781"
         cy="10.000005"
         r="10" />
    </clipPath>
    <clipPath
       clipPathUnits="userSpaceOnUse"
       id="clipPath7176">
      <circle
         inkscape:export-ydpi="648"
         inkscape:export-xdpi="648"
         inkscape:export-filename="/home/juergen/Schreibtisch/path4136.png"
         style="opacity:1;fill:#9c27b0;fill-opacity:1;stroke:none;stroke-width:0.05069799;stroke-miterlimit:4;stroke-dasharray:none;stroke-opacity:1"
         id="circle7178"
         cx="9.9999781"
         cy="10.000005"
         r="10" />
    </clipPath>
    <clipPath
       id="clipPath8165"
       clipPathUnits="userSpaceOnUse">
      <circle
         inkscape:export-ydpi="648"
         inkscape:export-xdpi="648"
         inkscape:export-filename="/home/juergen/Schreibtisch/path4136.png"
         style="opacity:1;fill:#ffc107;fill-opacity:1;stroke:none;stroke-width:0.05069799;stroke-miterlimit:4;stroke-dasharray:none;stroke-opacity:1"
         id="circle8167"
         cx="9.9999781"
         cy="10.000005"
         r="10" />
    </clipPath>
    <clipPath
       clipPathUnits="userSpaceOnUse"
       id="clipPath9162">
      <circle
         inkscape:export-ydpi="648"
         inkscape:export-xdpi="648"
         inkscape:export-filename="/home/juergen/Schreibtisch/path4136.png"
         style="opacity:1;fill:#ff9800;fill-opacity:1;stroke:none;stroke-width:0.05069799;stroke-miterlimit:4;stroke-dasharray:none;stroke-opacity:1"
         id="circle9164"
         cx="9.9999781"
         cy="10.000005"
         r="10" />
    </clipPath>
    <clipPath
       id="clipPath5147"
       clipPathUnits="userSpaceOnUse">
      <circle
         inkscape:export-ydpi="648"
         inkscape:export-xdpi="648"
         inkscape:export-filename="/home/juergen/Schreibtisch/path4136.png"
         style="opacity:1;fill:#ff9800;fill-opacity:1;stroke:none;stroke-width:0.05069799;stroke-miterlimit:4;stroke-dasharray:none;stroke-opacity:1"
         id="circle5149"
         cx="9.9999781"
         cy="10.000005"
         r="10" />
    </clipPath>
    <clipPath
       clipPathUnits="userSpaceOnUse"
       id="clipPath6144">
      <circle
         inkscape:export-ydpi="648"
         inkscape:export-xdpi="648"
         inkscape:export-filename="/home/juergen/Schreibtisch/path4136.png"
         style="opacity:1;fill:#e91e63;fill-opacity:1;stroke:none;stroke-width:0.05069799;stroke-miterlimit:4;stroke-dasharray:none;stroke-opacity:1"
         id="circle6146"
         cx="9.9999781"
         cy="10.000005"
         r="10" />
    </clipPath>
    <clipPath
       id="clipPath7143"
       clipPathUnits="userSpaceOnUse">
      <circle
         inkscape:export-ydpi="648"
         inkscape:export-xdpi="648"
         inkscape:export-filename="/home/juergen/Schreibtisch/path4136.png"
         style="opacity:1;fill:#ffeb3b;fill-opacity:1;stroke:none;stroke-width:0.05069799;stroke-miterlimit:4;stroke-dasharray:none;stroke-opacity:1"
         id="circle7145"
         cx="9.9999781"
         cy="10.000005"
         r="10" />
    </clipPath>
    <clipPath
       clipPathUnits="userSpaceOnUse"
       id="clipPath8148">
      <circle
         inkscape:export-ydpi="648"
         inkscape:export-xdpi="648"
         inkscape:export-filename="/home/juergen/Schreibtisch/path4136.png"
         style="opacity:1;fill:#9c27b0;fill-opacity:1;stroke:none;stroke-width:0.05069799;stroke-miterlimit:4;stroke-dasharray:none;stroke-opacity:1"
         id="circle8150"
         cx="9.9999781"
         cy="10.000005"
         r="10" />
    </clipPath>
    <clipPath
       id="clipPath5332"
       clipPathUnits="userSpaceOnUse">
      <circle
         inkscape:export-ydpi="648"
         inkscape:export-xdpi="648"
         inkscape:export-filename="/home/juergen/Schreibtisch/path4136.png"
         style="opacity:1;fill:#f44336;fill-opacity:1;stroke:none;stroke-width:0.05069799;stroke-miterlimit:4;stroke-dasharray:none;stroke-opacity:1"
         id="circle5334"
         cx="9.9999781"
         cy="10.000005"
         r="10" />
    </clipPath>
    <linearGradient
       inkscape:collect="always"
       xlink:href="#linearGradient5163"
       id="linearGradient5169"
       x1="10"
       y1="10"
       x2="20"
       y2="20"
       gradientUnits="userSpaceOnUse" />
    <clipPath
       clipPathUnits="userSpaceOnUse"
       id="clipPath5174">
      <circle
         inkscape:export-ydpi="648"
         inkscape:export-xdpi="648"
         inkscape:export-filename="/home/juergen/Schreibtisch/path4136.png"
         style="opacity:1;fill:#4caf50;fill-opacity:1;stroke:none;stroke-width:0.05069799;stroke-miterlimit:4;stroke-dasharray:none;stroke-opacity:1"
         id="circle5176"
         cx="9.9999781"
         cy="10.000005"
         r="10" />
    </clipPath>
  </defs>
  <metadata
     id="metadata7">
    <rdf:RDF>
      <cc:Work
         rdf:about="">
        <dc:format>image/svg+xml</dc:format>
        <dc:type
           rdf:resource="http://purl.org/dc/dcmitype/StillImage" />
        <dc:title />
      </cc:Work>
    </rdf:RDF>
  </metadata>
  <g
     transform="translate(1058.1428,-861.93365)"
     id="layer1"
     inkscape:groupmode="layer"
     inkscape:label="Hintergrund">
    <circle
       r="10"
       cy="871.93365"
       cx="-1048.1428"
       id="path4136"
       style="opacity:1;fill:#cddc39;fill-opacity:1;stroke:none;stroke-width:0.05069799;stroke-miterlimit:4;stroke-dasharray:none;stroke-opacity:1"
       inkscape:export-filename="/home/juergen/Schreibtisch/path4136.png"
       inkscape:export-xdpi="648"
       inkscape:export-ydpi="648" />
    <path
       style="fill:#ffffff;fill-rule:evenodd;stroke:none;stroke-width:1px;stroke-linecap:butt;stroke-linejoin:miter;stroke-opacity:1"
       d="m -1052.3976,867.53898 8.2707,-0.0631 0.3788,0.94702 0.063,7.38674 -0.5051,0.63135 -7.5761,-0.0631 -0.8208,-1.01016 z"
       id="path5178"
       inkscape:connector-curvature="0" />
  </g>
  <g
     inkscape:label="Icon"
     id="layer2"
     inkscape:groupmode="layer"
     style="display:inline">
    <path
       style="fill:url(#linearGradient5169);fill-opacity:1;stroke-width:0.2;stroke-linejoin:round"
       d="M 6.2597656 5.1484375 C 5.6461155 5.1484375 5.1484375 5.6461156 5.1484375 6.2597656 L 5.1484375 14.037109 C 5.1484375 14.382931 5.3167295 14.680985 5.5644531 14.884766 C 5.6086034 14.938051 5.6557586 14.983124 5.7089844 15.027344 C 5.7546222 15.082986 5.8019605 15.131885 5.8574219 15.177734 C 5.9023511 15.232081 5.949559 15.27929 6.0039062 15.324219 C 6.0484911 15.378149 6.0945731 15.426042 6.1484375 15.470703 C 6.1927544 15.524151 6.2395204 15.570918 6.2929688 15.615234 C 6.3372857 15.668682 6.3840517 15.715449 6.4375 15.759766 C 6.4812944 15.812583 6.5273585 15.858436 6.5800781 15.902344 C 6.6241625 15.955511 6.6714856 16.000787 6.7246094 16.044922 C 6.7682218 16.097416 6.8127947 16.143825 6.8652344 16.1875 C 6.9085207 16.239447 6.9539115 16.284839 7.0058594 16.328125 C 7.0491457 16.380072 7.0945365 16.425464 7.1464844 16.46875 C 7.1894246 16.520282 7.2336873 16.566362 7.2851562 16.609375 C 7.3278236 16.660429 7.372774 16.70538 7.4238281 16.748047 C 7.4668421 16.799515 7.5129206 16.843779 7.5644531 16.886719 C 7.6062217 16.936485 7.6494526 16.979716 7.6992188 17.021484 C 7.7425603 17.073498 7.7878194 17.11878 7.8398438 17.162109 C 7.8804983 17.210277 7.9225218 17.25233 7.9707031 17.292969 C 8.0130641 17.343806 8.0567526 17.389086 8.1074219 17.431641 C 8.1496295 17.481896 8.1937808 17.526273 8.2441406 17.568359 C 8.2845149 17.616054 8.3272319 17.656975 8.375 17.697266 C 8.4169543 17.747367 8.4597171 17.79197 8.5097656 17.833984 C 8.5495398 17.881001 8.5917077 17.921104 8.6386719 17.960938 C 8.6799927 18.010282 8.7223035 18.054194 8.7714844 18.095703 C 8.8120616 18.143779 8.8542673 18.185986 8.9023438 18.226562 C 8.9425724 18.274226 8.9836461 18.317126 9.03125 18.357422 C 9.0711977 18.404613 9.1129649 18.446381 9.1601562 18.486328 C 9.2001039 18.533519 9.2418712 18.575287 9.2890625 18.615234 C 9.3287748 18.662147 9.371095 18.70243 9.4179688 18.742188 C 9.4574907 18.788783 9.498326 18.829619 9.5449219 18.869141 C 9.5840942 18.915324 9.6237961 18.956856 9.6699219 18.996094 C 9.7088101 19.041808 9.7492077 19.082206 9.7949219 19.121094 C 9.8338102 19.166808 9.8742077 19.207206 9.9199219 19.246094 C 9.9585741 19.29153 9.9995237 19.330445 10.044922 19.369141 C 10.083382 19.414261 10.122848 19.453728 10.167969 19.492188 C 10.206429 19.537308 10.245895 19.576775 10.291016 19.615234 C 10.329125 19.659944 10.367456 19.700109 10.412109 19.738281 C 10.449931 19.782523 10.488961 19.821553 10.533203 19.859375 C 10.570484 19.902985 10.608819 19.941139 10.652344 19.978516 C 10.689815 20.022347 10.727708 20.062076 10.771484 20.099609 C 10.808666 20.142975 10.847259 20.181569 10.890625 20.21875 C 10.92757 20.261839 10.966713 20.298952 11.009766 20.335938 C 11.046515 20.378714 11.084177 20.416376 11.126953 20.453125 C 11.163702 20.495901 11.201364 20.533564 11.244141 20.570312 C 11.28103 20.613059 11.318407 20.650808 11.361328 20.6875 C 11.396472 20.72811 11.432046 20.763685 11.472656 20.798828 C 11.509405 20.841604 11.547067 20.879267 11.589844 20.916016 C 11.624921 20.956549 11.660648 20.992256 11.701172 21.027344 C 11.736153 21.067967 11.77206 21.103485 11.8125 21.138672 C 11.849249 21.181448 11.886911 21.219111 11.929688 21.255859 C 11.963327 21.29452 11.996536 21.329597 12.035156 21.363281 C 12.070671 21.404499 12.107307 21.44095 12.148438 21.476562 C 12.18291 21.516375 12.218078 21.551377 12.257812 21.585938 C 12.292833 21.626384 12.328694 21.662245 12.369141 21.697266 C 12.402534 21.735551 12.436324 21.769341 12.474609 21.802734 C 12.509038 21.842497 12.544307 21.877586 12.583984 21.912109 C 12.617364 21.950471 12.651168 21.984114 12.689453 22.017578 C 12.723977 22.057255 12.759065 22.092525 12.798828 22.126953 C 12.831064 22.163711 12.863624 22.196289 12.900391 22.228516 C 12.933966 22.267103 12.967321 22.302307 13.005859 22.335938 C 13.038581 22.373433 13.071954 22.406648 13.109375 22.439453 C 13.142097 22.476949 13.17547 22.510164 13.212891 22.542969 C 13.246052 22.580796 13.280407 22.613462 13.318359 22.646484 C 13.350074 22.682489 13.381893 22.714457 13.417969 22.746094 C 13.449301 22.78184 13.480002 22.814234 13.515625 22.845703 C 13.547951 22.882745 13.580273 22.916752 13.617188 22.949219 C 13.648701 22.985048 13.680967 23.017315 13.716797 23.048828 C 13.74807 23.084384 13.780881 23.115178 13.816406 23.146484 C 13.847507 23.181787 13.878765 23.213035 13.914062 23.244141 C 13.945129 23.279393 13.976467 23.310731 14.011719 23.341797 C 14.042428 23.376643 14.07262 23.408694 14.107422 23.439453 C 14.137823 23.47385 14.168728 23.504755 14.203125 23.535156 C 14.233884 23.569958 14.265934 23.600151 14.300781 23.630859 C 14.330528 23.664366 14.360981 23.692958 14.394531 23.722656 C 14.423574 23.755466 14.451686 23.785277 14.484375 23.814453 C 14.515441 23.849705 14.546779 23.881043 14.582031 23.912109 C 14.610837 23.944398 14.639522 23.973218 14.671875 24.001953 C 14.700247 24.033911 14.727925 24.063296 14.759766 24.091797 C 14.789568 24.125516 14.81987 24.155664 14.853516 24.185547 C 14.881947 24.217411 14.909518 24.246986 14.941406 24.275391 C 14.970736 24.308317 15.002144 24.335999 15.035156 24.365234 C 15.062226 24.395428 15.088952 24.422143 15.119141 24.449219 C 15.14781 24.481592 15.174808 24.51218 15.207031 24.541016 C 15.235507 24.572836 15.264947 24.600549 15.296875 24.628906 C 15.32387 24.658929 15.350776 24.685962 15.380859 24.712891 C 15.407835 24.743039 15.434762 24.769827 15.464844 24.796875 C 15.492399 24.827748 15.519976 24.855184 15.550781 24.882812 C 15.577807 24.912944 15.604634 24.939772 15.634766 24.966797 C 15.66143 24.996526 15.687106 25.024074 15.716797 25.050781 C 15.743172 25.080111 15.769502 25.106433 15.798828 25.132812 C 15.825204 25.162142 15.851533 25.188465 15.880859 25.214844 C 15.906844 25.243731 15.932088 25.270849 15.960938 25.296875 C 15.986602 25.325323 16.012568 25.351289 16.041016 25.376953 C 16.067404 25.406203 16.095672 25.430728 16.125 25.457031 C 16.149095 25.483567 16.172687 25.507151 16.199219 25.53125 C 16.225883 25.560979 16.251559 25.588527 16.28125 25.615234 C 16.304659 25.640931 16.327815 25.664095 16.353516 25.6875 C 16.378895 25.715715 16.403525 25.74209 16.431641 25.767578 C 16.455914 25.794353 16.481061 25.817498 16.507812 25.841797 C 16.532503 25.868985 16.556738 25.893341 16.583984 25.917969 C 16.607753 25.944069 16.632072 25.966499 16.658203 25.990234 C 16.681328 26.015693 16.703144 26.039282 16.728516 26.0625 C 16.75275 26.08931 16.776019 26.114335 16.802734 26.138672 C 16.826708 26.164988 16.850578 26.188981 16.876953 26.212891 C 16.8985 26.236367 16.919886 26.257746 16.943359 26.279297 C 16.967025 26.305402 16.991555 26.327809 17.017578 26.351562 C 17.040113 26.37625 17.061283 26.399305 17.085938 26.421875 C 17.109144 26.44723 17.13276 26.469076 17.158203 26.492188 C 17.178951 26.514749 17.198172 26.53586 17.220703 26.556641 C 17.243485 26.581655 17.26606 26.604108 17.291016 26.626953 C 17.312856 26.650811 17.333596 26.673438 17.357422 26.695312 C 17.379908 26.719804 17.403155 26.74128 17.427734 26.763672 C 17.447551 26.785047 17.466855 26.804457 17.488281 26.824219 C 17.510515 26.848506 17.532351 26.870347 17.556641 26.892578 C 17.575837 26.91329 17.594526 26.931973 17.615234 26.951172 C 17.636464 26.974362 17.65658 26.99626 17.679688 27.017578 C 17.700027 27.039624 17.720142 27.059739 17.742188 27.080078 C 17.762527 27.102124 17.782642 27.122239 17.804688 27.142578 C 17.82424 27.163672 17.844113 27.181648 17.865234 27.201172 C 17.885101 27.222663 17.90429 27.241853 17.925781 27.261719 C 17.945281 27.282813 17.963309 27.302736 17.984375 27.322266 C 18.003538 27.342935 18.022299 27.361697 18.042969 27.380859 C 18.062746 27.402192 18.082135 27.42168 18.103516 27.441406 C 18.121439 27.460589 18.138974 27.47822 18.158203 27.496094 C 18.17611 27.515358 18.19367 27.532828 18.212891 27.550781 C 18.232053 27.571451 18.250815 27.590212 18.271484 27.609375 C 18.289188 27.628327 18.307194 27.644434 18.326172 27.662109 C 18.343229 27.680423 18.358706 27.697716 18.376953 27.714844 C 18.395134 27.734454 18.412101 27.753229 18.431641 27.771484 C 18.448911 27.789968 18.465891 27.806949 18.484375 27.824219 C 18.502262 27.843363 18.519874 27.861065 18.539062 27.878906 C 18.555103 27.895945 18.570812 27.911735 18.587891 27.927734 C 18.603639 27.944545 18.619962 27.958804 18.636719 27.974609 C 18.654698 27.993909 18.672107 28.011317 18.691406 28.029297 C 18.705966 28.044732 18.718961 28.059637 18.734375 28.074219 C 18.751048 28.092066 18.767351 28.108283 18.785156 28.125 C 18.800863 28.141729 18.815325 28.158097 18.832031 28.173828 C 18.847392 28.190141 18.862593 28.205343 18.878906 28.220703 C 18.894017 28.236751 18.909748 28.250499 18.925781 28.265625 C 18.940658 28.281393 18.954935 28.29567 18.970703 28.310547 C 18.98558 28.326315 18.999857 28.340592 19.015625 28.355469 C 19.030131 28.370844 19.04324 28.385863 19.058594 28.400391 C 19.072751 28.415352 19.086601 28.429203 19.101562 28.443359 C 19.115719 28.458321 19.129569 28.472171 19.144531 28.486328 C 19.15874 28.501274 19.172486 28.51516 19.1875 28.529297 C 19.199514 28.541898 19.21202 28.552427 19.224609 28.564453 C 19.239486 28.580221 19.253763 28.594498 19.269531 28.609375 C 19.281932 28.622356 19.293629 28.634116 19.306641 28.646484 C 19.318637 28.659103 19.329225 28.671549 19.341797 28.683594 C 19.354961 28.697506 19.366998 28.711392 19.380859 28.724609 C 19.39308 28.737425 19.405153 28.749498 19.417969 28.761719 C 19.430935 28.775316 19.445349 28.785901 19.458984 28.798828 C 19.470159 28.810468 19.48052 28.820885 19.492188 28.832031 C 19.502941 28.843288 19.512223 28.854437 19.523438 28.865234 C 19.536384 28.878851 19.548883 28.89135 19.5625 28.904297 C 19.572919 28.915119 19.582903 28.925153 19.59375 28.935547 C 19.603789 28.946026 19.612607 28.956717 19.623047 28.966797 C 19.634393 28.978695 19.646344 28.988614 19.658203 29 C 19.668711 29.010944 19.678509 29.020743 19.689453 29.03125 C 19.699587 29.041805 19.70821 29.052351 19.71875 29.0625 C 19.728536 29.072664 19.737883 29.08201 19.748047 29.091797 C 19.757833 29.101961 19.76718 29.111307 19.777344 29.121094 C 19.786743 29.130855 19.794939 29.140977 19.804688 29.150391 C 19.813726 29.15975 19.822672 29.168696 19.832031 29.177734 C 19.84107 29.187094 19.850016 29.19604 19.859375 29.205078 C 19.868172 29.214187 19.877618 29.221664 19.886719 29.230469 C 19.895889 29.239946 19.904563 29.248666 19.914062 29.257812 C 19.920646 29.264564 19.926842 29.270761 19.933594 29.277344 C 19.942366 29.286454 19.949908 29.29588 19.958984 29.304688 C 19.967416 29.313376 19.975666 29.321668 19.984375 29.330078 C 19.9902 29.336034 19.995997 29.341832 20.001953 29.347656 C 20.01075 29.356766 20.020196 29.364242 20.029297 29.373047 C 20.034625 29.378485 20.039484 29.383344 20.044922 29.388672 C 20.052459 29.396461 20.058646 29.404543 20.066406 29.412109 C 20.072965 29.418835 20.079212 29.425082 20.085938 29.431641 C 20.092125 29.437986 20.097179 29.444975 20.103516 29.451172 C 20.109328 29.457116 20.11515 29.462937 20.121094 29.46875 C 20.127662 29.475466 20.135843 29.479779 20.142578 29.486328 C 20.146645 29.490459 20.150166 29.49398 20.154297 29.498047 C 20.161231 29.505178 20.166707 29.512588 20.173828 29.519531 C 20.177141 29.522886 20.180239 29.525984 20.183594 29.529297 C 20.189144 29.534989 20.193549 29.541303 20.199219 29.546875 C 20.204412 29.55216 20.209546 29.557319 20.214844 29.5625 C 20.217394 29.565075 20.220081 29.567762 20.222656 29.570312 C 20.227582 29.57535 20.233261 29.579041 20.238281 29.583984 C 20.241956 29.587716 20.24432 29.592023 20.248047 29.595703 C 20.251347 29.599045 20.25447 29.602168 20.257812 29.605469 C 20.261117 29.608815 20.264232 29.61193 20.267578 29.615234 C 20.271514 29.61922 20.275302 29.623027 20.279297 29.626953 C 20.279297 29.626953 20.28125 29.628906 20.28125 29.628906 C 20.282534 29.63019 20.283866 29.631535 20.285156 29.632812 C 20.286434 29.634103 20.287778 29.635435 20.289062 29.636719 C 20.289062 29.636719 20.291016 29.636719 20.291016 29.636719 C 20.294056 29.639806 20.295752 29.643432 20.298828 29.646484 C 20.300866 29.648538 20.302634 29.650306 20.304688 29.652344 C 20.306722 29.654394 20.308496 29.656168 20.310547 29.658203 C 20.311564 29.659228 20.313432 29.663041 20.314453 29.664062 C 20.314453 29.664062 20.316406 29.666016 20.316406 29.666016 C 20.316406 29.666016 20.318359 29.667969 20.318359 29.667969 C 20.318359 29.667969 20.320312 29.667969 20.320312 29.667969 C 20.32133 29.668994 20.321244 29.670854 20.322266 29.671875 C 20.322522 29.672132 20.323962 29.671618 20.324219 29.671875 C 20.324219 29.671875 20.324219 29.673828 20.324219 29.673828 C 20.424115 29.773723 20.545816 29.855926 20.677734 29.912109 C 20.810666 29.968333 20.957916 30 21.111328 30 L 28.888672 30 C 29.042089 30 29.18738 29.968333 29.320312 29.912109 C 29.586177 29.799662 29.799662 29.586177 29.912109 29.320312 C 29.968333 29.18738 30 29.042089 30 28.888672 L 30 21.111328 C 30 20.957916 29.968333 20.810666 29.912109 20.677734 C 29.912109 20.677734 29.910156 20.675781 29.910156 20.675781 C 29.853972 20.543862 29.773723 20.424115 29.673828 20.324219 C 29.673444 20.323835 29.672259 20.324602 29.671875 20.324219 C 29.671875 20.324219 29.671875 20.322266 29.671875 20.322266 C 29.670854 20.321244 29.668994 20.32133 29.667969 20.320312 C 29.667969 20.320312 29.667969 20.318359 29.667969 20.318359 C 29.667969 20.318359 29.666016 20.316406 29.666016 20.316406 C 29.666016 20.316406 29.664062 20.314453 29.664062 20.314453 C 29.664062 20.314453 29.662109 20.3125 29.662109 20.3125 C 29.661088 20.311479 29.659228 20.311564 29.658203 20.310547 C 29.656168 20.308496 29.654394 20.306722 29.652344 20.304688 C 29.650306 20.302634 29.648538 20.300866 29.646484 20.298828 C 29.643432 20.295752 29.639806 20.292103 29.636719 20.289062 C 29.635435 20.287778 29.634103 20.286434 29.632812 20.285156 C 29.631535 20.283866 29.63019 20.282534 29.628906 20.28125 C 29.628906 20.28125 29.626953 20.279297 29.626953 20.279297 C 29.623027 20.275302 29.61922 20.271514 29.615234 20.267578 C 29.61193 20.264232 29.608815 20.261117 29.605469 20.257812 C 29.602168 20.25447 29.599045 20.251347 29.595703 20.248047 C 29.592023 20.24432 29.587716 20.241956 29.583984 20.238281 C 29.579041 20.233261 29.57535 20.227582 29.570312 20.222656 C 29.567762 20.220081 29.565075 20.217394 29.5625 20.214844 C 29.557319 20.209546 29.55216 20.204412 29.546875 20.199219 C 29.541303 20.193549 29.534989 20.189144 29.529297 20.183594 C 29.525984 20.180239 29.522886 20.177141 29.519531 20.173828 C 29.512588 20.166707 29.505178 20.161231 29.498047 20.154297 C 29.49398 20.150166 29.490459 20.146645 29.486328 20.142578 C 29.479779 20.135843 29.475466 20.127662 29.46875 20.121094 C 29.462937 20.11515 29.457116 20.109328 29.451172 20.103516 C 29.444975 20.097179 29.437986 20.092125 29.431641 20.085938 C 29.425082 20.079212 29.418835 20.072965 29.412109 20.066406 C 29.404543 20.058646 29.396461 20.052459 29.388672 20.044922 C 29.383344 20.039484 29.378485 20.034625 29.373047 20.029297 C 29.364242 20.020196 29.356766 20.01075 29.347656 20.001953 C 29.341832 19.995997 29.336034 19.9902 29.330078 19.984375 C 29.321668 19.975666 29.313376 19.967416 29.304688 19.958984 C 29.29588 19.949908 29.286454 19.942366 29.277344 19.933594 C 29.270761 19.926842 29.264564 19.920646 29.257812 19.914062 C 29.248666 19.904563 29.239946 19.895889 29.230469 19.886719 C 29.221664 19.877618 29.214187 19.868172 29.205078 19.859375 C 29.19604 19.850016 29.187094 19.84107 29.177734 19.832031 C 29.168696 19.822672 29.15975 19.813726 29.150391 19.804688 C 29.140977 19.794939 29.130855 19.786743 29.121094 19.777344 C 29.111307 19.76718 29.101961 19.757833 29.091797 19.748047 C 29.08201 19.737883 29.072664 19.728536 29.0625 19.71875 C 29.052351 19.70821 29.041805 19.699587 29.03125 19.689453 C 29.020743 19.678509 29.010944 19.668711 29 19.658203 C 28.988614 19.646344 28.978695 19.634393 28.966797 19.623047 C 28.956717 19.612607 28.946026 19.603789 28.935547 19.59375 C 28.925153 19.582903 28.915119 19.572919 28.904297 19.5625 C 28.89135 19.548883 28.878851 19.536384 28.865234 19.523438 C 28.854437 19.512223 28.843288 19.502941 28.832031 19.492188 C 28.820885 19.48052 28.810468 19.470159 28.798828 19.458984 C 28.785901 19.445349 28.775316 19.430935 28.761719 19.417969 C 28.749498 19.405153 28.737425 19.39308 28.724609 19.380859 C 28.711392 19.366998 28.697506 19.354961 28.683594 19.341797 C 28.671549 19.329225 28.659103 19.318637 28.646484 19.306641 C 28.634116 19.293629 28.622356 19.281932 28.609375 19.269531 C 28.594498 19.253763 28.580221 19.239486 28.564453 19.224609 C 28.552427 19.21202 28.541898 19.199514 28.529297 19.1875 C 28.51516 19.172486 28.501274 19.15874 28.486328 19.144531 C 28.472171 19.129569 28.458321 19.115719 28.443359 19.101562 C 28.429203 19.086601 28.415352 19.072751 28.400391 19.058594 C 28.385863 19.04324 28.370844 19.030131 28.355469 19.015625 C 28.340592 18.999857 28.326315 18.98558 28.310547 18.970703 C 28.29567 18.954935 28.281393 18.940658 28.265625 18.925781 C 28.250499 18.909748 28.236751 18.894017 28.220703 18.878906 C 28.205343 18.862593 28.190141 18.847392 28.173828 18.832031 C 28.158097 18.815325 28.141729 18.800863 28.125 18.785156 C 28.108283 18.767351 28.092066 18.751048 28.074219 18.734375 C 28.059637 18.718961 28.044732 18.705966 28.029297 18.691406 C 28.011317 18.672107 27.993909 18.654698 27.974609 18.636719 C 27.958804 18.619962 27.944545 18.603639 27.927734 18.587891 C 27.911735 18.570812 27.895945 18.555103 27.878906 18.539062 C 27.861065 18.519874 27.843363 18.502262 27.824219 18.484375 C 27.806949 18.465891 27.789968 18.448911 27.771484 18.431641 C 27.753229 18.412101 27.734454 18.395134 27.714844 18.376953 C 27.697716 18.358706 27.680423 18.343229 27.662109 18.326172 C 27.644434 18.307194 27.628327 18.289188 27.609375 18.271484 C 27.590212 18.250815 27.571451 18.232053 27.550781 18.212891 C 27.532828 18.19367 27.515358 18.17611 27.496094 18.158203 C 27.47822 18.138974 27.460589 18.121439 27.441406 18.103516 C 27.42168 18.082135 27.402192 18.062746 27.380859 18.042969 C 27.361697 18.022299 27.342935 18.003538 27.322266 17.984375 C 27.302736 17.963309 27.282813 17.945281 27.261719 17.925781 C 27.241853 17.90429 27.222663 17.885101 27.201172 17.865234 C 27.181648 17.844113 27.163672 17.82424 27.142578 17.804688 C 27.122239 17.782642 27.102124 17.762527 27.080078 17.742188 C 27.059739 17.720142 27.039624 17.700027 27.017578 17.679688 C 26.99626 17.65658 26.974362 17.636464 26.951172 17.615234 C 26.931973 17.594526 26.91329 17.575837 26.892578 17.556641 C 26.870347 17.532351 26.848506 17.510515 26.824219 17.488281 C 26.804457 17.466855 26.785047 17.447551 26.763672 17.427734 C 26.74128 17.403155 26.719804 17.379908 26.695312 17.357422 C 26.673438 17.333596 26.650811 17.312856 26.626953 17.291016 C 26.604108 17.26606 26.581655 17.243485 26.556641 17.220703 C 26.53586 17.198172 26.514749 17.178951 26.492188 17.158203 C 26.469076 17.13276 26.44723 17.109144 26.421875 17.085938 C 26.399305 17.061283 26.37625 17.040113 26.351562 17.017578 C 26.327809 16.991555 26.305402 16.967025 26.279297 16.943359 C 26.257746 16.919886 26.236367 16.8985 26.212891 16.876953 C 26.188981 16.850578 26.164988 16.826708 26.138672 16.802734 C 26.114335 16.776019 26.08931 16.75275 26.0625 16.728516 C 26.039282 16.703144 26.015693 16.681328 25.990234 16.658203 C 25.966499 16.632072 25.944069 16.607753 25.917969 16.583984 C 25.893341 16.556738 25.868985 16.532503 25.841797 16.507812 C 25.817498 16.481061 25.794353 16.455914 25.767578 16.431641 C 25.74209 16.403525 25.715715 16.378895 25.6875 16.353516 C 25.664095 16.327815 25.640931 16.304659 25.615234 16.28125 C 25.588527 16.251559 25.560979 16.225883 25.53125 16.199219 C 25.507151 16.172687 25.483567 16.149095 25.457031 16.125 C 25.430728 16.095672 25.406203 16.067404 25.376953 16.041016 C 25.351289 16.012568 25.325323 15.986602 25.296875 15.960938 C 25.270849 15.932088 25.243731 15.906844 25.214844 15.880859 C 25.188465 15.851533 25.162142 15.825204 25.132812 15.798828 C 25.106433 15.769502 25.080111 15.743172 25.050781 15.716797 C 25.024074 15.687106 24.996526 15.66143 24.966797 15.634766 C 24.939772 15.604634 24.912944 15.577807 24.882812 15.550781 C 24.855184 15.519976 24.827748 15.492399 24.796875 15.464844 C 24.769827 15.434762 24.743039 15.407835 24.712891 15.380859 C 24.685962 15.350776 24.658929 15.32387 24.628906 15.296875 C 24.600549 15.264947 24.572836 15.235507 24.541016 15.207031 C 24.51218 15.174808 24.481592 15.14781 24.449219 15.119141 C 24.422143 15.088952 24.395428 15.062226 24.365234 15.035156 C 24.335999 15.002144 24.308317 14.970736 24.275391 14.941406 C 24.246986 14.909518 24.217411 14.881947 24.185547 14.853516 C 24.155664 14.81987 24.125516 14.789568 24.091797 14.759766 C 24.063296 14.727925 24.033911 14.700247 24.001953 14.671875 C 23.973218 14.639522 23.944398 14.610837 23.912109 14.582031 C 23.881043 14.546779 23.849705 14.515441 23.814453 14.484375 C 23.785277 14.451686 23.755466 14.423574 23.722656 14.394531 C 23.692958 14.360981 23.664366 14.330528 23.630859 14.300781 C 23.600151 14.265934 23.569958 14.233884 23.535156 14.203125 C 23.504755 14.168728 23.47385 14.137823 23.439453 14.107422 C 23.408694 14.07262 23.376643 14.042428 23.341797 14.011719 C 23.310731 13.976467 23.279393 13.945129 23.244141 13.914062 C 23.213035 13.878765 23.181787 13.847507 23.146484 13.816406 C 23.115178 13.780881 23.084384 13.74807 23.048828 13.716797 C 23.017315 13.680967 22.985048 13.648701 22.949219 13.617188 C 22.916752 13.580273 22.882745 13.547951 22.845703 13.515625 C 22.814234 13.480002 22.78184 13.449301 22.746094 13.417969 C 22.714457 13.381893 22.682489 13.350074 22.646484 13.318359 C 22.613462 13.280407 22.580796 13.246052 22.542969 13.212891 C 22.510164 13.17547 22.476949 13.142097 22.439453 13.109375 C 22.406648 13.071954 22.373433 13.038581 22.335938 13.005859 C 22.302307 12.967321 22.267103 12.933966 22.228516 12.900391 C 22.196289 12.863624 22.163711 12.831064 22.126953 12.798828 C 22.092525 12.759065 22.057255 12.723977 22.017578 12.689453 C 21.984114 12.651168 21.950471 12.617364 21.912109 12.583984 C 21.877586 12.544307 21.842497 12.509038 21.802734 12.474609 C 21.769341 12.436324 21.735551 12.402534 21.697266 12.369141 C 21.662245 12.328694 21.626384 12.292833 21.585938 12.257812 C 21.551377 12.218078 21.516375 12.18291 21.476562 12.148438 C 21.44095 12.107307 21.404499 12.070671 21.363281 12.035156 C 21.329597 11.996536 21.29452 11.963327 21.255859 11.929688 C 21.219111 11.886911 21.181448 11.849249 21.138672 11.8125 C 21.103485 11.77206 21.067967 11.736153 21.027344 11.701172 C 20.992256 11.660648 20.956549 11.624921 20.916016 11.589844 C 20.879267 11.547067 20.841604 11.509405 20.798828 11.472656 C 20.763685 11.432046 20.72811 11.396472 20.6875 11.361328 C 20.650808 11.318407 20.613059 11.28103 20.570312 11.244141 C 20.533564 11.201364 20.495901 11.163702 20.453125 11.126953 C 20.416376 11.084177 20.378714 11.046515 20.335938 11.009766 C 20.298952 10.966713 20.261839 10.92757 20.21875 10.890625 C 20.181569 10.847259 20.142975 10.808666 20.099609 10.771484 C 20.062076 10.727708 20.022347 10.689815 19.978516 10.652344 C 19.941139 10.608819 19.902985 10.570484 19.859375 10.533203 C 19.821553 10.488961 19.782523 10.449931 19.738281 10.412109 C 19.700109 10.367456 19.659944 10.329125 19.615234 10.291016 C 19.576775 10.245895 19.537308 10.206429 19.492188 10.167969 C 19.453728 10.122848 19.414261 10.083382 19.369141 10.044922 C 19.330445 9.9995237 19.29153 9.9585741 19.246094 9.9199219 C 19.207206 9.8742077 19.166808 9.8338102 19.121094 9.7949219 C 19.082206 9.7492077 19.041808 9.7088101 18.996094 9.6699219 C 18.956856 9.6237961 18.915324 9.5840942 18.869141 9.5449219 C 18.829619 9.498326 18.788783 9.4574907 18.742188 9.4179688 C 18.70243 9.371095 18.662147 9.3287748 18.615234 9.2890625 C 18.575287 9.2418712 18.533519 9.2001039 18.486328 9.1601562 C 18.446381 9.1129649 18.404613 9.0711977 18.357422 9.03125 C 18.317126 8.9836461 18.274226 8.9425724 18.226562 8.9023438 C 18.185986 8.8542673 18.143779 8.8120616 18.095703 8.7714844 C 18.054194 8.7223035 18.010282 8.6799927 17.960938 8.6386719 C 17.921104 8.5917077 17.881001 8.5495398 17.833984 8.5097656 C 17.79197 8.4597171 17.747367 8.4169543 17.697266 8.375 C 17.656975 8.3272319 17.616054 8.2845149 17.568359 8.2441406 C 17.526273 8.1937808 17.481896 8.1496295 17.431641 8.1074219 C 17.389086 8.0567526 17.343806 8.0130641 17.292969 7.9707031 C 17.25233 7.9225218 17.210277 7.8804983 17.162109 7.8398438 C 17.11878 7.7878194 17.073498 7.7425603 17.021484 7.6992188 C 16.979716 7.6494526 16.936485 7.6062217 16.886719 7.5644531 C 16.843779 7.5129206 16.799515 7.4668421 16.748047 7.4238281 C 16.70538 7.372774 16.660429 7.3278236 16.609375 7.2851562 C 16.566362 7.2336873 16.520282 7.1894246 16.46875 7.1464844 C 16.425464 7.0945365 16.380072 7.0491457 16.328125 7.0058594 C 16.284839 6.9539115 16.239447 6.9085207 16.1875 6.8652344 C 16.143825 6.8127947 16.097416 6.7682218 16.044922 6.7246094 C 16.000787 6.6714856 15.955511 6.6241625 15.902344 6.5800781 C 15.858436 6.5273584 15.812583 6.4812944 15.759766 6.4375 C 15.715449 6.3840517 15.668682 6.3372857 15.615234 6.2929688 C 15.570918 6.2395204 15.524151 6.1927544 15.470703 6.1484375 C 15.426042 6.0945731 15.378149 6.0484911 15.324219 6.0039062 C 15.27929 5.949559 15.232081 5.9023511 15.177734 5.8574219 C 15.131885 5.8019605 15.082986 5.7546222 15.027344 5.7089844 C 14.983124 5.6557586 14.938051 5.6086034 14.884766 5.5644531 C 14.680985 5.3167295 14.382931 5.1484375 14.037109 5.1484375 L 6.2597656 5.1484375 z "
       id="path4307"
       clip-path="url(#clipPath5174)" />
    <path
       style="fill:none"
       inkscape:connector-curvature="0"
       id="path4"
       d="m 3.9999777,4.0333382 12.0000003,0 0,11.9333328 -12.0000003,0 z" />
    <path
       d="m 18.999978,19.033339 12,0 0,11.933333 -12,0 z"
       id="path9754"
       inkscape:connector-curvature="0"
       style="fill:none" />
    <path
       style="fill:#f44336;fill-opacity:1;stroke-width:0.2;stroke-linejoin:round"
       inkscape:connector-curvature="0"
       d="M 12.777778,13.055556 10,11.666667 l -2.7777777,1.388889 0,-6.9444449 -1.1111111,0 0,7.7777779 7.7777778,0 0,-7.7777779 -1.111111,0 0,6.9444449 z m -2.777889,-2.824112 1.248444,0.752945 -0.330277,-1.42 1.102,-0.954733 -1.452723,-0.12485 -0.567444,-1.3387727 -0.5675,1.3387727 -1.4526834,0.12485 1.1020167,0.954733 -0.3303111,1.42 1.2484778,-0.752945 z M 6.1111112,5 13.888889,5 C 14.502556,5 15,5.4974611 15,6.1111111 l 0,7.7777779 C 15,14.502556 14.502556,15 13.888889,15 L 6.1111112,15 C 5.4974611,15 5.0000001,14.502556 5.0000001,13.888889 l 0,-7.7777779 C 5.0000001,5.4974611 5.4974611,5 6.1111112,5 Z"
       id="path4238" />
  </g>
</svg>
