<?xml version="1.0" encoding="UTF-8" standalone="no"?>
<!-- Created with Inkscape (http://www.inkscape.org/) -->

<svg
   xmlns:dc="http://purl.org/dc/elements/1.1/"
   xmlns:cc="http://creativecommons.org/ns#"
   xmlns:rdf="http://www.w3.org/1999/02/22-rdf-syntax-ns#"
   xmlns:svg="http://www.w3.org/2000/svg"
   xmlns="http://www.w3.org/2000/svg"
   xmlns:xlink="http://www.w3.org/1999/xlink"
   xmlns:sodipodi="http://sodipodi.sourceforge.net/DTD/sodipodi-0.dtd"
   xmlns:inkscape="http://www.inkscape.org/namespaces/inkscape"
   inkscape:export-ydpi="648"
   inkscape:export-xdpi="648"
   inkscape:export-filename="/home/juergen/Projekte/Android/Android_Studio/Baumann_Theme/theme/src/main/assets/icons/res/drawable-xxhdpi/a132.png"
   width="5.6444445mm"
   height="5.6444445mm"
   viewBox="0 0 20 20"
   id="svg2"
   version="1.1"
   inkscape:version="0.91 r13725"
   sodipodi:docname="xkdc.svg">
  <sodipodi:namedview
     id="base"
     pagecolor="#ffffff"
     bordercolor="#666666"
     borderopacity="1.0"
     inkscape:pageopacity="0.0"
     inkscape:pageshadow="2"
     inkscape:zoom="15.839192"
     inkscape:cx="16.323139"
     inkscape:cy="9.4833324"
     inkscape:document-units="px"
     inkscape:current-layer="layer1"
     showgrid="true"
     fit-margin-top="0"
     fit-margin-left="0"
     fit-margin-right="0"
     fit-margin-bottom="0"
     showguides="true"
     inkscape:guide-bbox="true"
     inkscape:window-width="1366"
     inkscape:window-height="744"
     inkscape:window-x="0"
     inkscape:window-y="24"
     inkscape:window-maximized="1"
     inkscape:snap-grids="true"
     inkscape:snap-to-guides="true">
    <inkscape:grid
       id="grid4138"
       type="xygrid" />
    <sodipodi:guide
       id="guide4140"
       orientation="0,1"
       position="10,18" />
    <sodipodi:guide
       id="guide4142"
       orientation="0,1"
       position="10,2" />
    <sodipodi:guide
       id="guide4144"
       orientation="1,0"
       position="2,10" />
    <sodipodi:guide
       id="guide4146"
       orientation="0,20"
       position="0,0" />
    <sodipodi:guide
       id="guide4150"
       orientation="0,-20"
       position="20,20" />
    <sodipodi:guide
       id="guide4152"
       orientation="20,0"
       position="0,20" />
    <sodipodi:guide
       id="guide4154"
       orientation="1,0"
       position="18,10" />
    <sodipodi:guide
       id="guide4156"
       orientation="-0.70710678,0.70710678"
       position="10,10" />
    <sodipodi:guide
       id="guide4158"
       orientation="0.70710678,0.70710678"
       position="10,10" />
    <sodipodi:guide
       id="guide4160"
       orientation="1,0"
       position="4,10" />
    <sodipodi:guide
       id="guide4162"
       orientation="1,0"
       position="16,10" />
    <sodipodi:guide
       id="guide4164"
       orientation="0,1"
       position="10,16" />
    <sodipodi:guide
       id="guide4166"
       orientation="0,1"
       position="10,4" />
    <sodipodi:guide
       id="guide4168"
       orientation="0,1"
       position="10,15" />
    <sodipodi:guide
       id="guide4170"
       orientation="0,1"
       position="10,5" />
    <sodipodi:guide
       id="guide4172"
       orientation="1,0"
       position="5,10" />
    <sodipodi:guide
       id="guide4174"
       orientation="1,0"
       position="15,10" />
  </sodipodi:namedview>
  <defs
     id="defs4">
    <linearGradient
       inkscape:collect="always"
       id="linearGradient22291">
      <stop
         style="stop-color:#000000;stop-opacity:1;"
         offset="0"
         id="stop22293" />
      <stop
         style="stop-color:#000000;stop-opacity:0;"
         offset="1"
         id="stop22295" />
    </linearGradient>
    <clipPath
       clipPathUnits="userSpaceOnUse"
       id="clipPath12478">
      <circle
         style="opacity:1;fill:#2196f3;fill-opacity:1;stroke:none;stroke-width:0.05069799;stroke-miterlimit:4;stroke-dasharray:none;stroke-opacity:1"
         id="circle12480"
         cx="9.9999781"
         cy="10.000005"
         r="10" />
    </clipPath>
    <clipPath
       id="clipPath13251"
       clipPathUnits="userSpaceOnUse">
      <circle
         inkscape:export-ydpi="648"
         inkscape:export-xdpi="648"
         inkscape:export-filename="/home/juergen/path4136.png"
         style="opacity:1;fill:#2196f3;fill-opacity:1;stroke:none;stroke-width:0.05069799;stroke-miterlimit:4;stroke-dasharray:none;stroke-opacity:1"
         id="circle13253"
         cx="9.9999781"
         cy="10.000005"
         r="10" />
    </clipPath>
    <clipPath
       clipPathUnits="userSpaceOnUse"
       id="clipPath5054">
      <circle
         inkscape:export-ydpi="648"
         inkscape:export-xdpi="648"
         inkscape:export-filename="/home/juergen/path4136.png"
         style="opacity:1;fill:#2196f3;fill-opacity:1;stroke:none;stroke-width:0.05069799;stroke-miterlimit:4;stroke-dasharray:none;stroke-opacity:1"
         id="circle5056"
         cx="9.9999781"
         cy="10.000005"
         r="10" />
    </clipPath>
    <clipPath
       id="clipPath5838"
       clipPathUnits="userSpaceOnUse">
      <circle
         inkscape:export-ydpi="648"
         inkscape:export-xdpi="648"
         inkscape:export-filename="/home/juergen/path4136.png"
         style="opacity:1;fill:#f44336;fill-opacity:1;stroke:none;stroke-width:0.05069799;stroke-miterlimit:4;stroke-dasharray:none;stroke-opacity:1"
         id="circle5840"
         cx="9.9999781"
         cy="10.000005"
         r="10" />
    </clipPath>
    <clipPath
       id="clipPath5850"
       clipPathUnits="userSpaceOnUse">
      <rect
         y="3.9638286"
         x="7.0710678"
         height="4.0406103"
         width="5.7452426"
         id="rect5852"
         style="opacity:0.96300001;fill:#fdd835;fill-opacity:1;stroke:none;stroke-width:1.25;stroke-linecap:round;stroke-linejoin:round;stroke-miterlimit:4;stroke-dasharray:none;stroke-opacity:1" />
    </clipPath>
    <linearGradient
       inkscape:collect="always"
       xlink:href="#linearGradient22291"
       id="linearGradient22297"
       x1="10"
       y1="10"
       x2="20"
       y2="20"
       gradientUnits="userSpaceOnUse" />
    <clipPath
       clipPathUnits="userSpaceOnUse"
       id="clipPath22302">
      <circle
         inkscape:export-ydpi="648"
         inkscape:export-xdpi="648"
         inkscape:export-filename="/home/juergen/path4136.png"
         style="opacity:1;fill:#9c27b0;fill-opacity:1;stroke:none;stroke-width:0.05069799;stroke-miterlimit:4;stroke-dasharray:none;stroke-opacity:1"
         id="circle22304"
         cx="9.9999781"
         cy="10.000005"
         r="10" />
    </clipPath>
  </defs>
  <metadata
     id="metadata7">
    <rdf:RDF>
      <cc:Work
         rdf:about="">
        <dc:format>image/svg+xml</dc:format>
        <dc:type
           rdf:resource="http://purl.org/dc/dcmitype/StillImage" />
        <dc:title></dc:title>
      </cc:Work>
    </rdf:RDF>
  </metadata>
  <g
     transform="translate(1058.1428,-861.93365)"
     id="layer1"
     inkscape:groupmode="layer"
     inkscape:label="Hintergrund">
    <circle
       r="10"
       cy="871.93365"
       cx="-1048.1428"
       id="path4136"
       style="opacity:1;fill:#eeeeee;fill-opacity:1;stroke:none;stroke-width:0.05069799;stroke-miterlimit:4;stroke-dasharray:none;stroke-opacity:1"
       inkscape:export-filename="/home/juergen/path4136.png"
       inkscape:export-xdpi="648"
       inkscape:export-ydpi="648" />
  </g>
  <g
     inkscape:label="Icon"
     id="layer2"
     inkscape:groupmode="layer"
     style="display:inline">
    <path
       style="fill:none"
       inkscape:connector-curvature="0"
       id="path4"
       d="m 3.9999777,4.0333382 12.0000003,0 0,11.9333328 -12.0000003,0 z" />
    <path
       d="m 18.999978,19.033339 12,0 0,11.933333 -12,0 z"
       id="path9754"
       inkscape:connector-curvature="0"
       style="fill:none" />
    <rect
       y="8.0675735"
       x="4.4194174"
       height="8.207489"
       width="11.743023"
       id="rect5844"
       style="opacity:0.96300001;fill:#37474f;fill-opacity:0;stroke:none;stroke-width:1.25;stroke-linecap:round;stroke-linejoin:round;stroke-miterlimit:4;stroke-dasharray:none;stroke-opacity:1" />
    <path
       id="path21402"
       style="font-style:normal;font-weight:normal;font-size:medium;line-height:125%;font-family:sans-serif;letter-spacing:0px;word-spacing:0px;fill:#000000;fill-opacity:1;stroke:none;stroke-width:1px;stroke-linecap:butt;stroke-linejoin:miter;stroke-opacity:1"
       d="m 14.999978,9.3243585 0,0.3706897 q -0.168104,-0.092672 -0.338362,-0.1379311 -0.168104,-0.047414 -0.340518,-0.047414 -0.385775,0 -0.599137,0.2456897 -0.213363,0.2435345 -0.213363,0.6853452 0,0.44181 0.213363,0.6875 0.213362,0.243534 0.599137,0.243534 0.172414,0 0.340518,-0.04526 0.170258,-0.04741 0.338362,-0.140087 l 0,0.36638 q -0.165948,0.07759 -0.344828,0.116379 -0.176724,0.03879 -0.377155,0.03879 -0.545259,0 -0.866379,-0.342672 -0.321121,-0.342673 -0.321121,-0.924569 0,-0.5905176 0.323276,-0.9288797 0.325431,-0.338362 0.890086,-0.338362 0.18319,0 0.357759,0.038793 0.174569,0.036638 0.338362,0.1120689 z m -2.950432,0.2737069 0,-1.3060345 0.396552,0 0,3.3534481 -0.396552,0 0,-0.362069 q -0.125,0.215517 -0.31681,0.321121 -0.189655,0.103448 -0.456896,0.103448 -0.4375,0 -0.713363,-0.349138 -0.273706,-0.349138 -0.273706,-0.918103 0,-0.5689657 0.273706,-0.9181036 0.275863,-0.3491379 0.713363,-0.3491379 0.267241,0 0.456896,0.1056034 0.19181,0.1034483 0.31681,0.3189655 z m -1.351293,0.8426726 q 0,0.4375 0.17888,0.6875 0.181034,0.247845 0.495689,0.247845 0.314655,0 0.49569,-0.247845 0.181034,-0.25 0.181034,-0.6875 0,-0.4375 -0.181034,-0.685345 -0.181035,-0.25 -0.49569,-0.25 -0.314655,0 -0.495689,0.25 -0.17888,0.247845 -0.17888,0.685345 z m -2.8124998,-2.1487071 0.3987069,0 0,1.9806031 1.1831897,-1.0409479 0.5064655,0 -1.2801724,1.1293099 1.3340521,1.284483 -0.5172418,0 -1.2262931,-1.178879 0,1.178879 -0.3987069,0 0,-3.3534481 z m -0.5905171,0.9396552 -0.8728449,1.1745689 0.9181035,1.239224 -0.4676724,0 -0.7025862,-0.948276 -0.7025862,0.948276 -0.4676724,0 0.9375,-1.262931 -0.8577587,-1.1508619 0.4676724,0 0.6400863,0.8599139 0.6400862,-0.8599139 0.4676724,0 z"
       inkscape:connector-curvature="0" />
    <path
       style="font-style:normal;font-weight:normal;font-size:medium;line-height:125%;font-family:sans-serif;letter-spacing:0px;word-spacing:0px;fill:url(#linearGradient22297);fill-opacity:1;stroke:none;stroke-width:1;stroke-linecap:butt;stroke-linejoin:miter;stroke-opacity:1;opacity:0.2"
       d="M 7.8867188 8.2929688 L 7.8867188 9.8261719 L 7.8378906 9.8261719 L 7.859375 9.796875 L 7.8105469 9.796875 L 7.8320312 9.7675781 L 7.7832031 9.7675781 L 7.8027344 9.7402344 L 7.7578125 9.7402344 L 7.7773438 9.7128906 L 7.7304688 9.7128906 L 7.75 9.6855469 L 7.7050781 9.6855469 L 7.7246094 9.6601562 L 7.6816406 9.6601562 L 7.6992188 9.6367188 L 7.65625 9.6367188 L 7.6757812 9.6113281 L 7.6347656 9.6113281 L 7.6523438 9.5878906 L 7.6132812 9.5878906 L 7.6289062 9.5664062 L 7.5898438 9.5664062 L 7.6074219 9.5429688 L 7.5722656 9.5429688 L 7.5859375 9.5234375 L 7.5507812 9.5234375 L 7.5664062 9.5019531 L 7.5332031 9.5019531 L 7.546875 9.4824219 L 7.5136719 9.4824219 L 7.5273438 9.4628906 L 7.4960938 9.4628906 L 7.5097656 9.4453125 L 7.4785156 9.4453125 L 7.4921875 9.4277344 L 7.4628906 9.4277344 L 7.4746094 9.4121094 L 7.4453125 9.4121094 L 7.4589844 9.3945312 L 7.4335938 9.3945312 L 7.4433594 9.3808594 L 7.4179688 9.3808594 L 7.4296875 9.3652344 L 7.40625 9.3652344 L 7.4160156 9.3515625 L 7.3945312 9.3515625 L 7.4023438 9.3398438 L 7.3808594 9.3398438 L 7.390625 9.3261719 L 7.3710938 9.3261719 L 7.3789062 9.3144531 L 7.359375 9.3144531 L 7.3671875 9.3046875 L 7.3496094 9.3046875 L 7.3574219 9.2949219 L 7.3417969 9.2949219 L 7.3496094 9.2851562 L 7.3339844 9.2851562 L 7.3398438 9.2773438 L 7.3261719 9.2773438 L 7.3320312 9.2695312 L 7.3203125 9.2695312 L 7.3261719 9.2617188 L 7.3144531 9.2617188 L 7.3183594 9.2558594 L 7.3085938 9.2558594 L 7.3125 9.25 L 7.3046875 9.25 L 7.3085938 9.2441406 L 7.3027344 9.2441406 L 7.3046875 9.2402344 L 7.2988281 9.2402344 L 7.3007812 9.2382812 L 7.296875 9.2382812 L 7.2988281 9.234375 L 7.2949219 9.234375 L 7.2949219 9.2324219 L 6.828125 9.2324219 L 6.2773438 9.9707031 L 6.265625 9.9511719 L 6.2597656 9.9511719 L 6.234375 9.9179688 L 6.2265625 9.9179688 L 6.203125 9.8867188 L 6.1953125 9.8867188 L 6.171875 9.8554688 L 6.1621094 9.8554688 L 6.140625 9.8261719 L 6.1328125 9.8261719 L 6.1113281 9.796875 L 6.1054688 9.796875 L 6.0839844 9.7675781 L 6.0761719 9.7675781 L 6.0566406 9.7402344 L 6.0488281 9.7402344 L 6.0292969 9.7128906 L 6.0214844 9.7128906 L 6.0019531 9.6855469 L 5.9960938 9.6855469 L 5.9765625 9.6601562 L 5.96875 9.6601562 L 5.9511719 9.6367188 L 5.9472656 9.6367188 L 5.9277344 9.6113281 L 5.921875 9.6113281 L 5.9042969 9.5878906 L 5.8964844 9.5878906 L 5.8808594 9.5664062 L 5.8769531 9.5664062 L 5.859375 9.5429688 L 5.8515625 9.5429688 L 5.8378906 9.5234375 L 5.8339844 9.5234375 L 5.8183594 9.5019531 L 5.8125 9.5019531 L 5.7988281 9.4824219 L 5.7929688 9.4824219 L 5.7792969 9.4628906 L 5.7753906 9.4628906 L 5.7617188 9.4453125 L 5.7578125 9.4453125 L 5.7441406 9.4277344 L 5.7382812 9.4277344 L 5.7265625 9.4121094 L 5.7246094 9.4121094 L 5.7109375 9.3945312 L 5.7050781 9.3945312 L 5.6953125 9.3808594 L 5.6933594 9.3808594 L 5.6816406 9.3652344 L 5.6777344 9.3652344 L 5.6679688 9.3515625 L 5.6621094 9.3515625 L 5.6542969 9.3398438 L 5.6523438 9.3398438 L 5.6425781 9.3261719 L 5.6386719 9.3261719 L 5.6308594 9.3144531 L 5.6289062 9.3144531 L 5.6210938 9.3046875 L 5.6171875 9.3046875 L 5.609375 9.2949219 L 5.6015625 9.2851562 L 5.5976562 9.2851562 L 5.5917969 9.2773438 L 5.5898438 9.2773438 L 5.5839844 9.2695312 L 5.578125 9.2617188 L 5.5742188 9.2617188 L 5.5703125 9.2558594 L 5.5644531 9.25 L 5.5585938 9.2441406 L 5.5566406 9.2402344 L 5.5546875 9.2402344 L 5.5527344 9.2382812 L 5.5527344 9.2363281 L 5.5507812 9.234375 L 5.5488281 9.2324219 L 5.546875 9.2324219 L 5.0820312 9.2324219 L 5.0800781 9.2324219 L 5.0859375 9.2382812 L 5.9375 10.382812 L 5 11.646484 L 5.0019531 11.646484 L 5.0058594 11.646484 L 5.0039062 11.648438 L 5.0078125 11.648438 L 5.0058594 11.652344 L 5.0117188 11.652344 L 5.0097656 11.654297 L 5.015625 11.654297 L 5.0136719 11.658203 L 5.0214844 11.658203 L 5.0175781 11.664062 L 5.0273438 11.664062 L 5.0234375 11.669922 L 5.0332031 11.669922 L 5.0292969 11.675781 L 5.0410156 11.675781 L 5.0371094 11.681641 L 5.0507812 11.681641 L 5.0449219 11.689453 L 5.0605469 11.689453 L 5.0527344 11.699219 L 5.0703125 11.699219 L 5.0625 11.708984 L 5.0800781 11.708984 L 5.0722656 11.71875 L 5.0917969 11.71875 L 5.0839844 11.728516 L 5.1035156 11.728516 L 5.0957031 11.740234 L 5.1152344 11.740234 L 5.1074219 11.751953 L 5.1308594 11.751953 L 5.1210938 11.765625 L 5.1445312 11.765625 L 5.1347656 11.779297 L 5.1601562 11.779297 L 5.1484375 11.794922 L 5.1738281 11.794922 L 5.1640625 11.808594 L 5.1914062 11.808594 L 5.1796875 11.824219 L 5.2109375 11.824219 L 5.1972656 11.841797 L 5.2265625 11.841797 L 5.2128906 11.859375 L 5.2460938 11.859375 L 5.2324219 11.876953 L 5.2636719 11.876953 L 5.25 11.896484 L 5.2851562 11.896484 L 5.2714844 11.916016 L 5.3066406 11.916016 L 5.2910156 11.9375 L 5.3261719 11.9375 L 5.3125 11.957031 L 5.3515625 11.957031 L 5.3339844 11.980469 L 5.3730469 11.980469 L 5.3574219 12.001953 L 5.3984375 12.001953 L 5.3808594 12.025391 L 5.421875 12.025391 L 5.4042969 12.048828 L 5.4492188 12.048828 L 5.4296875 12.074219 L 5.4746094 12.074219 L 5.4550781 12.099609 L 5.5 12.099609 L 5.4804688 12.126953 L 5.5273438 12.126953 L 5.5078125 12.154297 L 5.5546875 12.154297 L 5.5351562 12.181641 L 5.5859375 12.181641 L 5.5644531 12.210938 L 5.6152344 12.210938 L 5.59375 12.240234 L 5.6464844 12.240234 L 5.625 12.269531 L 5.6777344 12.269531 L 5.6542969 12.300781 L 5.7089844 12.300781 L 5.6855469 12.332031 L 5.7441406 12.332031 L 5.71875 12.365234 L 5.7753906 12.365234 L 5.7519531 12.396484 L 5.8105469 12.396484 L 5.7851562 12.431641 L 5.8457031 12.431641 L 5.8203125 12.464844 L 5.8808594 12.464844 L 5.8554688 12.5 L 5.9179688 12.5 L 5.890625 12.537109 L 5.9550781 12.537109 L 5.9277344 12.574219 L 5.9921875 12.574219 L 5.9648438 12.611328 L 6.0332031 12.611328 L 6.0039062 12.650391 L 6.0703125 12.650391 L 6.0429688 12.6875 L 6.1132812 12.6875 L 6.0820312 12.728516 L 6.1542969 12.728516 L 6.1230469 12.769531 L 6.1953125 12.769531 L 6.1640625 12.810547 L 6.2382812 12.810547 L 6.2070312 12.851562 L 6.2792969 12.851562 L 6.2480469 12.894531 L 6.3242188 12.894531 L 6.2929688 12.9375 L 6.3691406 12.9375 L 6.3359375 12.982422 L 6.4140625 12.982422 L 6.3808594 13.027344 L 6.4609375 13.027344 L 6.4277344 13.072266 L 6.5078125 13.072266 L 6.4726562 13.119141 L 6.5566406 13.119141 L 6.5214844 13.166016 L 6.6054688 13.166016 L 6.5683594 13.214844 L 6.6542969 13.214844 L 6.6171875 13.263672 L 6.703125 13.263672 L 6.6660156 13.3125 L 6.7539062 13.3125 L 6.7167969 13.361328 L 6.8066406 13.361328 L 6.7675781 13.414062 L 6.8554688 13.414062 L 6.8183594 13.464844 L 6.9101562 13.464844 L 6.8710938 13.517578 L 6.9628906 13.517578 L 6.9238281 13.570312 L 7.0175781 13.570312 L 6.9785156 13.623047 L 7.0742188 13.623047 L 7.0332031 13.677734 L 7.1308594 13.677734 L 7.0878906 13.734375 L 7.1855469 13.734375 L 7.1445312 13.789062 L 7.2441406 13.789062 L 7.2011719 13.847656 L 7.3027344 13.847656 L 7.2597656 13.904297 L 7.359375 13.904297 L 7.3164062 13.962891 L 7.4199219 13.962891 L 7.3769531 14.021484 L 7.4804688 14.021484 L 7.4355469 14.082031 L 7.5410156 14.082031 L 7.4960938 14.142578 L 7.6035156 14.142578 L 7.5585938 14.203125 L 7.6660156 14.203125 L 7.6191406 14.265625 L 7.7285156 14.265625 L 7.6816406 14.328125 L 7.7929688 14.328125 L 7.7460938 14.390625 L 7.859375 14.390625 L 7.8105469 14.455078 L 7.9238281 14.455078 L 7.875 14.521484 L 7.9902344 14.521484 L 7.9414062 14.585938 L 8.0566406 14.585938 L 8.0078125 14.652344 L 8.125 14.652344 L 8.0742188 14.720703 L 8.1914062 14.720703 L 8.1425781 14.787109 L 8.2636719 14.787109 L 8.2109375 14.857422 L 8.3320312 14.857422 L 8.28125 14.925781 L 8.4042969 14.925781 L 8.3515625 14.996094 L 8.4746094 14.996094 L 8.421875 15.066406 L 8.546875 15.066406 L 8.4941406 15.138672 L 8.6191406 15.138672 L 8.5664062 15.210938 L 8.6933594 15.210938 L 8.6386719 15.285156 L 8.765625 15.285156 L 8.7128906 15.357422 L 8.84375 15.357422 L 8.7871094 15.433594 L 8.9179688 15.433594 L 8.8632812 15.507812 L 8.9960938 15.507812 L 8.9394531 15.583984 L 9.0742188 15.583984 L 9.015625 15.662109 L 9.1503906 15.662109 L 9.09375 15.738281 L 9.2304688 15.738281 L 9.171875 15.816406 L 9.3085938 15.816406 L 9.25 15.896484 L 9.3886719 15.896484 L 9.3300781 15.976562 L 9.46875 15.976562 L 9.4101562 16.056641 L 9.5527344 16.056641 L 9.4921875 16.138672 L 9.6347656 16.138672 L 9.5742188 16.220703 L 9.71875 16.220703 L 9.6582031 16.302734 L 9.8027344 16.302734 L 9.7402344 16.386719 L 9.8867188 16.386719 L 9.8242188 16.470703 L 9.9726562 16.470703 L 9.9101562 16.554688 L 10.060547 16.554688 L 9.9960938 16.640625 L 10.146484 16.640625 L 10.082031 16.728516 L 10.234375 16.728516 L 10.169922 16.814453 L 10.322266 16.814453 L 10.257812 16.902344 L 10.412109 16.902344 L 10.345703 16.992188 L 10.501953 16.992188 L 10.435547 17.082031 L 10.591797 17.082031 L 10.525391 17.171875 L 10.683594 17.171875 L 10.617188 17.261719 L 10.777344 17.261719 L 10.708984 17.353516 L 10.871094 17.353516 L 10.800781 17.447266 L 10.962891 17.447266 L 10.894531 17.539062 L 11.058594 17.539062 L 10.988281 17.634766 L 11.152344 17.634766 L 11.082031 17.728516 L 11.248047 17.728516 L 11.177734 17.824219 L 11.345703 17.824219 L 11.275391 17.919922 L 11.443359 17.919922 L 11.371094 18.017578 L 11.541016 18.017578 L 11.46875 18.115234 L 11.640625 18.115234 L 11.568359 18.212891 L 11.740234 18.212891 L 11.666016 18.3125 L 11.839844 18.3125 L 11.765625 18.412109 L 11.941406 18.412109 L 11.867188 18.511719 L 12.044922 18.511719 L 11.96875 18.613281 L 12.146484 18.613281 L 12.070312 18.716797 L 12.25 18.716797 L 12.173828 18.818359 L 12.353516 18.818359 L 12.277344 18.921875 L 12.458984 18.921875 L 12.380859 19.027344 L 12.564453 19.027344 L 12.486328 19.132812 L 12.669922 19.132812 L 12.591797 19.238281 L 12.777344 19.238281 L 12.699219 19.34375 L 12.886719 19.34375 L 12.806641 19.451172 L 12.996094 19.451172 L 12.914062 19.560547 L 13.103516 19.560547 L 13.023438 19.667969 L 13.214844 19.667969 L 13.132812 19.777344 L 13.324219 19.777344 L 13.242188 19.888672 L 13.435547 19.888672 L 13.353516 20 L 13.546875 20 L 13.464844 20.111328 L 13.660156 20.111328 L 13.578125 20.222656 L 13.775391 20.222656 L 13.691406 20.335938 L 13.890625 20.335938 L 13.804688 20.451172 L 14.005859 20.451172 L 13.919922 20.566406 L 14.121094 20.566406 L 14.035156 20.681641 L 14.238281 20.681641 L 14.152344 20.796875 L 14.357422 20.796875 L 14.269531 20.914062 L 14.474609 20.914062 L 14.386719 21.03125 L 14.591797 21.03125 L 14.503906 21.150391 L 14.710938 21.150391 L 14.623047 21.269531 L 14.832031 21.269531 L 14.744141 21.388672 L 14.955078 21.388672 L 14.865234 21.509766 L 15.076172 21.509766 L 14.986328 21.630859 L 15.199219 21.630859 L 15.107422 21.753906 L 15.322266 21.753906 L 15.230469 21.876953 L 15.447266 21.876953 L 15.355469 22 L 15.570312 22 L 15.478516 22.125 L 15.695312 22.125 L 15.603516 22.25 L 15.824219 22.25 L 15.730469 22.375 L 15.951172 22.375 L 15.857422 22.501953 L 16.078125 22.501953 L 15.984375 22.628906 L 16.207031 22.628906 L 16.111328 22.757812 L 16.335938 22.757812 L 16.240234 22.886719 L 16.466797 22.886719 L 16.371094 23.015625 L 16.597656 23.015625 L 16.5 23.146484 L 16.728516 23.146484 L 16.630859 23.277344 L 16.861328 23.277344 L 16.763672 23.408203 L 16.996094 23.408203 L 16.896484 23.541016 L 17.128906 23.541016 L 17.029297 23.675781 L 17.263672 23.675781 L 17.164062 23.808594 L 17.398438 23.808594 L 17.298828 23.943359 L 17.535156 23.943359 L 17.433594 24.080078 L 17.669922 24.080078 L 17.570312 24.214844 L 17.808594 24.214844 L 17.707031 24.351562 L 17.947266 24.351562 L 17.84375 24.490234 L 18.085938 24.490234 L 17.982422 24.628906 L 18.226562 24.628906 L 18.123047 24.767578 L 18.365234 24.767578 L 18.261719 24.908203 L 18.505859 24.908203 L 18.402344 25.048828 L 18.648438 25.048828 L 18.544922 25.189453 L 18.792969 25.189453 L 18.6875 25.332031 L 18.935547 25.332031 L 18.830078 25.474609 L 19.080078 25.474609 L 18.972656 25.619141 L 19.224609 25.619141 L 19.117188 25.763672 L 19.371094 25.763672 L 19.263672 25.908203 L 19.517578 25.908203 L 19.408203 26.054688 L 19.664062 26.054688 L 19.554688 26.201172 L 19.8125 26.201172 L 19.703125 26.347656 L 19.960938 26.347656 L 19.851562 26.496094 L 20.318359 26.496094 L 20.925781 25.675781 L 20.990234 25.763672 L 21.029297 25.763672 L 21.136719 25.908203 L 21.171875 25.908203 L 21.28125 26.054688 L 21.318359 26.054688 L 21.427734 26.201172 L 21.466797 26.201172 L 21.576172 26.347656 L 21.615234 26.347656 L 21.724609 26.496094 L 22.191406 26.496094 L 21.273438 25.257812 L 21.429688 25.048828 L 21.429688 25.189453 L 21.572266 25.189453 L 21.572266 25.332031 L 21.714844 25.332031 L 21.714844 25.474609 L 21.859375 25.474609 L 21.859375 25.619141 L 22.003906 25.619141 L 22.003906 25.763672 L 22.148438 25.763672 L 22.148438 25.908203 L 22.294922 25.908203 L 22.294922 26.054688 L 22.441406 26.054688 L 22.441406 26.201172 L 22.587891 26.201172 L 22.587891 26.347656 L 22.736328 26.347656 L 22.736328 26.496094 L 23.134766 26.496094 L 23.134766 25.318359 L 24.361328 26.496094 L 24.878906 26.496094 L 24.724609 26.347656 L 24.730469 26.347656 L 24.578125 26.201172 L 24.583984 26.201172 L 24.431641 26.054688 L 24.4375 26.054688 L 24.285156 25.908203 L 24.291016 25.908203 L 24.140625 25.763672 L 24.146484 25.763672 L 23.996094 25.619141 L 24.001953 25.619141 L 23.851562 25.474609 L 23.857422 25.474609 L 23.708984 25.332031 L 23.714844 25.332031 L 23.568359 25.191406 L 23.570312 25.189453 L 23.572266 25.189453 L 24.011719 24.800781 C 24.034102 24.825911 24.062089 24.839365 24.085938 24.861328 C 24.095093 24.874071 24.097754 24.891965 24.107422 24.904297 C 24.143151 24.949516 24.190673 24.969425 24.230469 25.005859 C 24.238835 25.017411 24.241211 25.03371 24.25 25.044922 C 24.284776 25.088935 24.330511 25.10884 24.369141 25.144531 C 24.378767 25.157996 24.382382 25.176446 24.392578 25.189453 C 24.427691 25.233893 24.47463 25.253107 24.513672 25.289062 C 24.522828 25.301807 24.525488 25.319699 24.535156 25.332031 C 24.570885 25.377251 24.618407 25.397159 24.658203 25.433594 C 24.667359 25.446338 24.670019 25.46423 24.679688 25.476562 C 24.716369 25.522988 24.765672 25.542913 24.806641 25.580078 C 24.815323 25.592104 24.817032 25.609435 24.826172 25.621094 C 24.861285 25.665534 24.908224 25.684748 24.947266 25.720703 C 24.957203 25.734647 24.960156 25.754124 24.970703 25.767578 C 25.007048 25.813577 25.05515 25.834185 25.095703 25.871094 C 25.104859 25.883838 25.107519 25.90173 25.117188 25.914062 C 25.153869 25.960488 25.203172 25.980413 25.244141 26.017578 C 25.253609 26.0308 25.255606 26.04972 25.265625 26.0625 C 25.302586 26.109278 25.351265 26.130592 25.392578 26.167969 C 25.401452 26.180285 25.404709 26.197053 25.414062 26.208984 C 25.597971 26.441742 25.835286 26.558594 26.126953 26.558594 C 26.305113 26.558594 26.457547 26.524038 26.583984 26.455078 C 26.645087 26.421437 26.70102 26.378497 26.751953 26.328125 L 26.751953 26.347656 L 26.900391 26.347656 L 26.900391 26.496094 L 27.296875 26.496094 L 27.296875 25.242188 C 27.317946 25.261836 27.338956 25.281169 27.361328 25.298828 C 27.371228 25.310309 27.37436 25.326787 27.384766 25.337891 C 27.420985 25.376541 27.46341 25.407342 27.503906 25.439453 C 27.5147 25.452071 27.517896 25.470256 27.529297 25.482422 C 27.565405 25.520953 27.606126 25.551952 27.646484 25.583984 C 27.657823 25.597305 27.661816 25.616088 27.673828 25.628906 C 27.710593 25.668139 27.75375 25.697974 27.794922 25.730469 C 27.805715 25.743087 27.808912 25.761272 27.820312 25.773438 C 27.858047 25.813705 27.900982 25.845737 27.943359 25.878906 C 27.953604 25.890824 27.956008 25.908409 27.966797 25.919922 C 28.003653 25.959252 28.046605 25.990879 28.087891 26.023438 C 28.099206 26.036729 28.103248 26.055568 28.115234 26.068359 C 28.153266 26.108944 28.195533 26.142407 28.238281 26.175781 C 28.248711 26.187934 28.252678 26.205065 28.263672 26.216797 C 28.477752 26.445245 28.7654 26.558594 29.128906 26.558594 C 29.262526 26.558594 29.388043 26.545391 29.505859 26.519531 C 29.625112 26.493672 29.740931 26.456027 29.851562 26.404297 L 29.851562 26.037109 C 29.802244 26.0643 29.752721 26.078265 29.703125 26.099609 L 29.703125 25.888672 C 29.653807 25.915862 29.604283 25.929827 29.554688 25.951172 L 29.554688 25.742188 C 29.506152 25.768947 29.457008 25.781637 29.408203 25.802734 L 29.408203 25.595703 C 29.360219 25.622158 29.311919 25.635329 29.263672 25.65625 L 29.263672 25.449219 C 29.215374 25.475847 29.165752 25.488744 29.117188 25.509766 L 29.117188 25.304688 C 29.069204 25.331142 29.020903 25.344313 28.972656 25.365234 L 28.972656 25.160156 C 28.925455 25.18618 28.877535 25.198081 28.830078 25.21875 L 28.830078 25.015625 C 28.782877 25.041649 28.734957 25.05355 28.6875 25.074219 L 28.6875 24.873047 C 28.64053 24.898943 28.592145 24.911047 28.544922 24.931641 L 28.544922 24.730469 C 28.528038 24.739777 28.511057 24.74333 28.494141 24.751953 C 28.520526 24.704007 28.53727 24.647366 28.572266 24.607422 C 28.714507 24.443632 28.914691 24.361328 29.171875 24.361328 C 29.286817 24.361328 29.401602 24.376593 29.513672 24.408203 C 29.627177 24.438377 29.739493 24.485095 29.851562 24.546875 L 29.851562 24.175781 C 29.803683 24.153731 29.752385 24.14403 29.703125 24.126953 L 29.703125 24.027344 C 29.655162 24.005255 29.604036 23.995613 29.554688 23.978516 L 29.554688 23.880859 C 29.507376 23.85907 29.456863 23.848964 29.408203 23.832031 L 29.408203 23.732422 C 29.361567 23.710944 29.311619 23.702306 29.263672 23.685547 L 29.263672 23.587891 C 29.216605 23.566214 29.165589 23.555932 29.117188 23.539062 L 29.117188 23.441406 C 29.070551 23.419928 29.020603 23.41129 28.972656 23.394531 L 28.972656 23.296875 C 28.92659 23.275659 28.877424 23.266611 28.830078 23.25 L 28.830078 23.154297 C 28.784011 23.133081 28.734846 23.124033 28.6875 23.107422 L 28.6875 23.011719 C 28.641751 22.990649 28.591932 22.981372 28.544922 22.964844 L 28.544922 22.869141 C 28.498855 22.847925 28.449689 22.838877 28.402344 22.822266 L 28.402344 22.726562 C 28.356846 22.705609 28.308463 22.69615 28.261719 22.679688 L 28.261719 22.585938 C 28.216978 22.565333 28.168993 22.557277 28.123047 22.541016 L 28.123047 22.447266 C 28.077863 22.426456 28.028836 22.41677 27.982422 22.400391 L 27.982422 22.306641 C 27.937681 22.286036 27.889697 22.277981 27.84375 22.261719 L 27.84375 22.169922 C 27.799656 22.149615 27.752297 22.141089 27.707031 22.125 L 27.707031 22.03125 C 27.66286 22.010907 27.615659 22.002438 27.570312 21.986328 L 27.570312 21.894531 C 27.526141 21.874189 27.47894 21.865719 27.433594 21.849609 L 27.433594 21.757812 C 27.389992 21.737732 27.343575 21.728846 27.298828 21.712891 L 27.298828 21.623047 C 27.255527 21.603105 27.208494 21.593999 27.164062 21.578125 L 27.164062 21.488281 C 27.120761 21.468339 27.073728 21.459233 27.029297 21.443359 L 27.029297 21.353516 C 26.986452 21.333784 26.940435 21.326296 26.896484 21.310547 L 26.896484 21.220703 C 26.85364 21.200971 26.807623 21.193483 26.763672 21.177734 L 26.763672 21.087891 C 26.720827 21.068159 26.67481 21.060671 26.630859 21.044922 L 26.630859 20.957031 C 26.588658 20.937596 26.543275 20.929634 26.5 20.914062 L 26.5 20.824219 C 26.458294 20.805011 26.413848 20.796683 26.371094 20.78125 L 26.371094 20.695312 C 26.32911 20.675977 26.28328 20.667855 26.240234 20.652344 L 26.240234 20.564453 C 26.198528 20.545246 26.154082 20.536918 26.111328 20.521484 L 26.111328 20.435547 C 26.070379 20.416688 26.026334 20.409752 25.984375 20.394531 L 25.984375 20.308594 C 25.943521 20.289779 25.899282 20.280819 25.857422 20.265625 L 25.857422 20.181641 C 25.816568 20.162826 25.772328 20.153866 25.730469 20.138672 L 25.730469 20.054688 C 25.689615 20.035872 25.645375 20.026912 25.603516 20.011719 L 25.603516 19.927734 C 25.563136 19.909138 25.519878 19.901778 25.478516 19.886719 L 25.478516 19.802734 C 25.438705 19.7844 25.396234 19.776614 25.355469 19.761719 L 25.355469 19.679688 C 25.315368 19.661219 25.271539 19.653651 25.230469 19.638672 L 25.230469 19.554688 C 25.190659 19.536353 25.148187 19.528567 25.107422 19.513672 L 25.107422 19.431641 C 25.068369 19.413655 25.0263 19.407255 24.986328 19.392578 L 24.986328 19.310547 C 24.947154 19.292505 24.905333 19.284243 24.865234 19.269531 L 24.865234 19.189453 C 24.826263 19.171505 24.784027 19.16309 24.744141 19.148438 L 24.744141 19.068359 C 24.705087 19.050374 24.663019 19.043973 24.623047 19.029297 L 24.623047 18.949219 C 24.58463 18.931526 24.543212 18.924647 24.503906 18.910156 L 24.503906 18.828125 C 24.465992 18.810664 24.425499 18.803405 24.386719 18.789062 L 24.386719 18.710938 C 24.348869 18.693506 24.308244 18.686198 24.269531 18.671875 L 24.269531 18.59375 C 24.231878 18.576409 24.190851 18.568952 24.152344 18.554688 L 24.152344 18.476562 C 24.11469 18.459221 24.073664 18.451765 24.035156 18.4375 L 24.035156 18.359375 C 23.997999 18.342262 23.957911 18.336382 23.919922 18.322266 L 23.919922 18.244141 C 23.882764 18.227028 23.842677 18.221148 23.804688 18.207031 L 23.804688 18.128906 C 23.768099 18.112056 23.728801 18.105743 23.691406 18.091797 L 23.691406 18.015625 C 23.654818 17.998775 23.61552 17.992461 23.578125 17.978516 L 23.578125 17.902344 C 23.541537 17.885493 23.502238 17.87918 23.464844 17.865234 L 23.464844 17.789062 C 23.428825 17.772474 23.390316 17.765726 23.353516 17.751953 L 23.353516 17.677734 C 23.317497 17.661146 23.278988 17.654398 23.242188 17.640625 L 23.242188 17.566406 C 23.206925 17.550167 23.168824 17.544792 23.132812 17.53125 L 23.132812 17.457031 C 23.097551 17.440792 23.059449 17.435417 23.023438 17.421875 L 23.023438 17.347656 C 22.988232 17.331442 22.950015 17.324071 22.914062 17.310547 L 22.914062 17.238281 C 22.87937 17.222304 22.842058 17.216491 22.806641 17.203125 L 22.806641 17.130859 C 22.772187 17.114992 22.734387 17.108995 22.699219 17.095703 L 22.699219 17.023438 C 22.664587 17.007488 22.627151 17.001628 22.591797 16.988281 L 22.591797 16.916016 C 22.557674 16.900301 22.521153 16.894048 22.486328 16.880859 L 22.486328 16.810547 C 22.452205 16.794832 22.415684 16.788579 22.380859 16.775391 L 22.380859 16.705078 C 22.347493 16.689712 22.311381 16.684826 22.277344 16.671875 L 22.277344 16.601562 C 22.243977 16.586196 22.207865 16.58131 22.173828 16.568359 L 22.173828 16.498047 C 22.140462 16.48268 22.104349 16.477795 22.070312 16.464844 L 22.070312 16.394531 C 22.037516 16.379427 22.002195 16.374098 21.96875 16.361328 L 21.96875 16.292969 C 21.935953 16.277864 21.900632 16.272536 21.867188 16.259766 L 21.867188 16.191406 C 21.834391 16.176302 21.79907 16.170973 21.765625 16.158203 L 21.765625 16.091797 C 21.733453 16.07698 21.698811 16.071164 21.666016 16.058594 L 21.666016 15.990234 C 21.634545 15.975741 21.600427 15.971329 21.568359 15.958984 L 21.568359 15.892578 C 21.536354 15.877838 21.501373 15.871892 21.46875 15.859375 L 21.46875 15.792969 C 21.437279 15.778475 21.403161 15.774063 21.371094 15.761719 L 21.371094 15.695312 C 21.340193 15.681081 21.306867 15.676222 21.275391 15.664062 L 21.275391 15.599609 C 21.24395 15.58513 21.209771 15.578741 21.177734 15.566406 L 21.177734 15.501953 C 21.146833 15.487722 21.113508 15.482862 21.082031 15.470703 L 21.082031 15.408203 C 21.051752 15.394258 21.019113 15.388909 20.988281 15.376953 L 20.988281 15.3125 C 20.95795 15.298531 20.925417 15.293223 20.894531 15.28125 L 20.894531 15.21875 C 20.864199 15.204781 20.831667 15.199473 20.800781 15.1875 L 20.800781 15.125 C 20.771206 15.11138 20.739086 15.107426 20.708984 15.095703 L 20.708984 15.033203 C 20.679409 15.019583 20.647289 15.015629 20.617188 15.003906 L 20.617188 14.941406 C 20.587613 14.927786 20.555492 14.923832 20.525391 14.912109 L 20.525391 14.849609 C 20.496385 14.836251 20.465059 14.831845 20.435547 14.820312 L 20.435547 14.759766 C 20.406542 14.746407 20.375215 14.742001 20.345703 14.730469 L 20.345703 14.669922 C 20.317267 14.656826 20.286736 14.651966 20.257812 14.640625 L 20.257812 14.582031 C 20.229377 14.568935 20.198845 14.564076 20.169922 14.552734 L 20.169922 14.494141 C 20.141486 14.481045 20.110954 14.476186 20.082031 14.464844 L 20.082031 14.40625 C 20.054352 14.393503 20.024234 14.389991 19.996094 14.378906 L 19.996094 14.320312 C 19.968415 14.307565 19.938297 14.304054 19.910156 14.292969 L 19.910156 14.234375 C 19.882477 14.221628 19.852359 14.218116 19.824219 14.207031 L 19.824219 14.150391 C 19.797157 14.137928 19.767737 14.133922 19.740234 14.123047 L 19.740234 14.064453 C 19.713694 14.05223 19.685168 14.047804 19.658203 14.037109 L 19.658203 13.982422 C 19.631281 13.970023 19.601578 13.965904 19.574219 13.955078 L 19.574219 13.898438 C 19.547679 13.886215 19.519152 13.881788 19.492188 13.871094 L 19.492188 13.816406 C 19.465647 13.804184 19.437121 13.799758 19.410156 13.789062 L 19.410156 13.736328 C 19.384229 13.724388 19.35641 13.719467 19.330078 13.708984 L 19.330078 13.654297 C 19.304107 13.642336 19.276377 13.63745 19.25 13.626953 L 19.25 13.574219 C 19.224786 13.562607 19.197472 13.559061 19.171875 13.548828 L 19.171875 13.496094 C 19.146661 13.484482 19.119347 13.480936 19.09375 13.470703 L 19.09375 13.417969 C 19.068581 13.406377 19.041176 13.402795 19.015625 13.392578 L 19.015625 13.339844 C 18.990981 13.328494 18.964463 13.324486 18.939453 13.314453 L 18.939453 13.263672 C 18.914978 13.2524 18.888117 13.248253 18.863281 13.238281 L 18.863281 13.1875 C 18.838806 13.176228 18.811945 13.172081 18.787109 13.162109 L 18.787109 13.111328 C 18.763034 13.100241 18.737315 13.095768 18.712891 13.085938 L 18.712891 13.037109 C 18.688816 13.026022 18.663096 13.021549 18.638672 13.011719 L 18.638672 12.962891 C 18.615354 12.952152 18.590052 12.949012 18.566406 12.939453 L 18.566406 12.890625 C 18.543249 12.87996 18.517621 12.876689 18.494141 12.867188 L 18.494141 12.818359 C 18.470984 12.807695 18.445355 12.804423 18.421875 12.794922 L 18.421875 12.746094 C 18.399126 12.735617 18.374623 12.73201 18.351562 12.722656 L 18.351562 12.675781 C 18.32897 12.665377 18.30415 12.661641 18.28125 12.652344 L 18.28125 12.605469 C 18.258658 12.595064 18.233837 12.591328 18.210938 12.582031 L 18.210938 12.535156 C 18.188758 12.524942 18.165054 12.520866 18.142578 12.511719 L 18.142578 12.466797 C 18.120399 12.456582 18.096694 12.452506 18.074219 12.443359 L 18.074219 12.398438 C 18.052796 12.388572 18.029511 12.385823 18.007812 12.376953 L 18.007812 12.332031 C 17.986428 12.322183 17.963066 12.319403 17.941406 12.310547 L 17.941406 12.265625 C 17.920132 12.255827 17.896547 12.252956 17.875 12.244141 L 17.875 12.199219 C 17.854147 12.189615 17.831662 12.186394 17.810547 12.177734 L 17.810547 12.134766 C 17.789694 12.125162 17.767209 12.121941 17.746094 12.113281 L 17.746094 12.070312 C 17.725241 12.060709 17.702756 12.057488 17.681641 12.048828 L 17.681641 12.007812 C 17.661391 11.998487 17.639637 11.994764 17.619141 11.986328 L 17.619141 11.943359 C 17.599614 11.934367 17.57835 11.931994 17.558594 11.923828 L 17.558594 11.882812 C 17.538449 11.873535 17.516483 11.869725 17.496094 11.861328 L 17.496094 11.820312 C 17.476567 11.81132 17.455303 11.808947 17.435547 11.800781 L 17.435547 11.759766 C 17.416589 11.751035 17.396127 11.748185 17.376953 11.740234 L 17.376953 11.701172 C 17.357561 11.692241 17.336024 11.689755 17.316406 11.681641 L 17.316406 11.640625 C 17.298018 11.632157 17.278357 11.628828 17.259766 11.621094 L 17.259766 11.583984 C 17.240939 11.575314 17.220212 11.572354 17.201172 11.564453 L 17.201172 11.525391 C 17.182784 11.516922 17.163123 11.513594 17.144531 11.505859 L 17.144531 11.46875 C 17.126143 11.460282 17.106482 11.456953 17.087891 11.449219 L 17.087891 11.412109 C 17.07026 11.40399 17.051021 11.401976 17.033203 11.394531 L 17.033203 11.357422 C 17.015572 11.349302 16.996334 11.347289 16.978516 11.339844 L 16.978516 11.302734 C 16.960885 11.294615 16.941646 11.292602 16.923828 11.285156 L 16.923828 11.25 C 16.906796 11.242156 16.888301 11.239636 16.871094 11.232422 L 16.871094 11.195312 C 16.854032 11.187455 16.835596 11.18496 16.818359 11.177734 L 16.818359 11.144531 C 16.801895 11.136949 16.784206 11.133948 16.767578 11.126953 L 16.767578 11.091797 C 16.751086 11.084202 16.733453 11.081224 16.716797 11.074219 L 16.716797 11.041016 C 16.700305 11.03342 16.682672 11.030442 16.666016 11.023438 L 16.666016 10.990234 C 16.65028 10.982988 16.633072 10.981319 16.617188 10.974609 L 16.617188 10.941406 C 16.601452 10.93416 16.584244 10.932491 16.568359 10.925781 L 16.568359 10.892578 C 16.553194 10.885594 16.536789 10.883439 16.521484 10.876953 L 16.521484 10.845703 C 16.505858 10.838507 16.48843 10.836745 16.472656 10.830078 L 16.472656 10.798828 C 16.458084 10.792117 16.442435 10.789453 16.427734 10.783203 L 16.427734 10.751953 C 16.412673 10.745017 16.396057 10.742772 16.380859 10.736328 L 16.380859 10.705078 C 16.366263 10.698356 16.350662 10.695713 16.335938 10.689453 L 16.335938 10.660156 C 16.322098 10.653783 16.306924 10.652443 16.292969 10.646484 L 16.292969 10.617188 C 16.278472 10.610511 16.26267 10.607783 16.248047 10.601562 L 16.248047 10.574219 C 16.2348 10.568118 16.220384 10.566267 16.207031 10.560547 L 16.207031 10.53125 C 16.193288 10.524921 16.17792 10.523498 16.164062 10.517578 L 16.164062 10.488281 C 16.150792 10.48217 16.136423 10.480339 16.123047 10.474609 L 16.123047 10.447266 C 16.109777 10.441154 16.095408 10.439323 16.082031 10.433594 L 16.082031 10.40625 C 16.069331 10.400401 16.055767 10.398077 16.042969 10.392578 L 16.042969 10.367188 C 16.030268 10.361338 16.016704 10.359015 16.003906 10.353516 L 16.003906 10.328125 C 15.991205 10.322276 15.977642 10.319952 15.964844 10.314453 L 15.964844 10.291016 C 15.952922 10.285525 15.939742 10.284479 15.927734 10.279297 L 15.927734 10.251953 C 15.915791 10.246453 15.902655 10.245425 15.890625 10.240234 L 15.890625 10.214844 C 15.879251 10.209605 15.866921 10.208083 15.855469 10.203125 L 15.855469 10.179688 C 15.844094 10.174449 15.831765 10.172927 15.820312 10.167969 L 15.820312 10.144531 C 15.808938 10.139293 15.796609 10.13777 15.785156 10.132812 L 15.785156 10.109375 C 15.774351 10.104399 15.762828 10.102379 15.751953 10.097656 L 15.751953 10.076172 C 15.741148 10.071196 15.729625 10.069176 15.71875 10.064453 L 15.71875 10.042969 C 15.707945 10.037993 15.696422 10.035973 15.685547 10.03125 L 15.685547 10.011719 C 15.675517 10.0071 15.664387 10.006354 15.654297 10.001953 L 15.654297 9.9785156 C 15.644818 9.9741505 15.634533 9.9729203 15.625 9.96875 L 15.625 9.9492188 C 15.615022 9.9446236 15.603788 9.9438324 15.59375 9.9394531 L 15.59375 9.9179688 C 15.584271 9.9136036 15.573986 9.9123734 15.564453 9.9082031 L 15.564453 9.8886719 C 15.554974 9.8843067 15.544689 9.8830765 15.535156 9.8789062 L 15.535156 9.8613281 C 15.526261 9.8572318 15.516755 9.8554872 15.507812 9.8515625 L 15.507812 9.8320312 C 15.498903 9.8279283 15.489426 9.8261964 15.480469 9.8222656 L 15.480469 9.8046875 C 15.472316 9.8009332 15.46327 9.8004852 15.455078 9.796875 L 15.455078 9.7792969 C 15.446926 9.7755426 15.43788 9.7750946 15.429688 9.7714844 L 15.429688 9.7539062 C 15.421592 9.7501781 15.412432 9.7496798 15.404297 9.7460938 L 15.404297 9.7285156 C 15.396714 9.7250235 15.388477 9.7240705 15.380859 9.7207031 L 15.380859 9.7050781 C 15.373329 9.7016101 15.364987 9.7006107 15.357422 9.6972656 L 15.357422 9.6816406 C 15.349891 9.6781726 15.341549 9.6771732 15.333984 9.6738281 L 15.333984 9.6582031 C 15.326971 9.6549732 15.319543 9.6535138 15.3125 9.6503906 L 15.3125 9.6367188 C 15.305486 9.6334889 15.298059 9.6320295 15.291016 9.6289062 L 15.291016 9.6152344 C 15.284759 9.6123531 15.277765 9.6121714 15.271484 9.609375 L 15.271484 9.5957031 C 15.264518 9.5924952 15.256995 9.5909933 15.25 9.5878906 L 15.25 9.5761719 C 15.244323 9.5735573 15.238119 9.5728572 15.232422 9.5703125 L 15.232422 9.5566406 C 15.226177 9.5537648 15.219159 9.5535725 15.212891 9.5507812 L 15.212891 9.5390625 C 15.207781 9.5367092 15.202391 9.5354998 15.197266 9.5332031 L 15.197266 9.5214844 C 15.191618 9.5188833 15.185355 9.5181569 15.179688 9.515625 L 15.179688 9.5039062 C 15.17457 9.5015494 15.169196 9.5003469 15.164062 9.4980469 L 15.164062 9.4882812 C 15.158945 9.4859244 15.153571 9.4847219 15.148438 9.4824219 L 15.148438 9.4726562 C 15.144077 9.470648 15.139138 9.470717 15.134766 9.46875 L 15.134766 9.4589844 C 15.130435 9.4569902 15.125435 9.4570316 15.121094 9.4550781 L 15.121094 9.4453125 C 15.116764 9.4433184 15.111763 9.4433597 15.107422 9.4414062 L 15.107422 9.4316406 C 15.10363 9.4298946 15.099503 9.4294493 15.095703 9.4277344 L 15.095703 9.4199219 C 15.091938 9.4181878 15.087758 9.4177189 15.083984 9.4160156 L 15.083984 9.4082031 C 15.080199 9.4064601 15.076059 9.4060088 15.072266 9.4042969 L 15.072266 9.3964844 C 15.069044 9.3950005 15.065728 9.3940394 15.0625 9.3925781 L 15.0625 9.3867188 C 15.059278 9.3852349 15.055963 9.3842738 15.052734 9.3828125 L 15.052734 9.3769531 C 15.050269 9.3758179 15.047391 9.3761221 15.044922 9.375 L 15.044922 9.3691406 C 15.042457 9.3680054 15.039578 9.3683096 15.037109 9.3671875 L 15.037109 9.3613281 C 15.034644 9.3601929 15.031766 9.3604971 15.029297 9.359375 L 15.029297 9.3535156 C 15.027401 9.3526426 15.025335 9.3524277 15.023438 9.3515625 L 15.023438 9.3476562 C 15.021542 9.3467832 15.019476 9.3465684 15.017578 9.3457031 L 15.017578 9.3417969 C 15.016252 9.3411861 15.014999 9.3404507 15.013672 9.3398438 L 15.013672 9.3378906 C 15.012346 9.3372798 15.011093 9.3365445 15.009766 9.3359375 L 15.009766 9.3339844 C 15.008448 9.3333775 15.007178 9.3326344 15.005859 9.3320312 L 15.005859 9.3300781 C 15.005859 9.3300781 15.003906 9.3300781 15.003906 9.3300781 L 15.003906 9.328125 C 15.003906 9.328125 15.001953 9.328125 15.001953 9.328125 C 15.001953 9.328125 15.001953 9.3261719 15.001953 9.3261719 C 15.001386 9.3259106 15.000568 9.3264325 15 9.3261719 C 14.99981 9.3260845 15.00019 9.324306 15 9.3242188 C 14.891374 9.2741941 14.779798 9.2373224 14.664062 9.2128906 C 14.663437 9.2127516 14.662735 9.2130289 14.662109 9.2128906 C 14.651288 9.210486 14.639777 9.2111654 14.628906 9.2089844 C 14.522863 9.1877081 14.415459 9.1738281 14.304688 9.1738281 C 13.989127 9.1738281 13.732786 9.2575 13.529297 9.4160156 L 13.529297 9.375 L 13.488281 9.375 L 13.488281 9.3339844 L 13.449219 9.3339844 L 13.449219 9.296875 L 13.412109 9.296875 L 13.412109 9.2578125 L 13.375 9.2578125 L 13.375 9.2207031 L 13.337891 9.2207031 L 13.337891 9.1835938 L 13.300781 9.1835938 L 13.300781 9.1464844 L 13.265625 9.1464844 L 13.265625 9.1113281 L 13.232422 9.1113281 L 13.232422 9.078125 L 13.197266 9.078125 L 13.197266 9.0429688 L 13.164062 9.0429688 L 13.164062 9.0117188 L 13.132812 9.0117188 L 13.132812 8.9785156 L 13.101562 8.9785156 L 13.101562 8.9472656 L 13.070312 8.9472656 L 13.070312 8.9160156 L 13.041016 8.9160156 L 13.041016 8.8867188 L 13.011719 8.8867188 L 13.011719 8.8574219 L 12.982422 8.8574219 L 12.982422 8.828125 L 12.955078 8.828125 L 12.955078 8.8007812 L 12.927734 8.8007812 L 12.927734 8.7734375 L 12.900391 8.7734375 L 12.900391 8.7460938 L 12.875 8.7460938 L 12.875 8.7207031 L 12.849609 8.7207031 L 12.849609 8.6972656 L 12.826172 8.6972656 L 12.826172 8.671875 L 12.802734 8.671875 L 12.802734 8.6484375 L 12.779297 8.6484375 L 12.779297 8.6269531 L 12.757812 8.6269531 L 12.757812 8.6035156 L 12.736328 8.6035156 L 12.736328 8.5839844 L 12.716797 8.5839844 L 12.716797 8.5625 L 12.697266 8.5625 L 12.697266 8.5429688 L 12.677734 8.5429688 L 12.677734 8.5234375 L 12.660156 8.5234375 L 12.660156 8.5058594 L 12.642578 8.5058594 L 12.642578 8.4882812 L 12.625 8.4882812 L 12.625 8.4726562 L 12.609375 8.4726562 L 12.609375 8.4550781 L 12.59375 8.4550781 L 12.59375 8.4414062 L 12.580078 8.4414062 L 12.580078 8.4257812 L 12.566406 8.4257812 L 12.566406 8.4121094 L 12.552734 8.4121094 L 12.552734 8.3984375 L 12.541016 8.3984375 L 12.541016 8.3867188 L 12.529297 8.3867188 L 12.529297 8.375 L 12.519531 8.375 L 12.519531 8.3652344 L 12.509766 8.3652344 L 12.509766 8.3554688 L 12.5 8.3554688 L 12.5 8.3457031 L 12.490234 8.3457031 L 12.490234 8.3378906 L 12.482422 8.3378906 L 12.482422 8.3300781 L 12.476562 8.3300781 L 12.476562 8.3222656 L 12.470703 8.3222656 L 12.470703 8.3164062 L 12.464844 8.3164062 L 12.464844 8.3105469 L 12.458984 8.3105469 L 12.458984 8.3046875 L 12.455078 8.3046875 L 12.455078 8.3007812 L 12.451172 8.3007812 L 12.451172 8.2988281 L 12.449219 8.2988281 L 12.449219 8.2949219 L 12.447266 8.2949219 L 12.447266 8.2929688 L 12.050781 8.2929688 L 12.050781 9.5527344 C 12.049077 9.5510548 12.046637 9.5504885 12.044922 9.5488281 C 12.041343 9.5451772 12.036834 9.5426268 12.033203 9.5390625 C 12.030007 9.5357688 12.026675 9.5325209 12.023438 9.5292969 C 12.016038 9.5215922 12.009577 9.5131877 12.001953 9.5058594 C 12.001953 9.5058594 12 9.5039062 12 9.5039062 C 11.99554 9.4992799 11.990869 9.4947244 11.986328 9.4902344 C 11.982479 9.4862675 11.978519 9.4823815 11.974609 9.4785156 C 11.970961 9.4747796 11.96464 9.4704425 11.960938 9.4667969 C 11.960938 9.4667969 11.960938 9.4648438 11.960938 9.4648438 C 11.960938 9.4648438 11.958984 9.4648438 11.958984 9.4648438 C 11.955155 9.4608826 11.953108 9.4550327 11.949219 9.4511719 C 11.945651 9.4475329 11.941119 9.4449592 11.9375 9.4414062 C 11.93365 9.4374394 11.929691 9.4335534 11.925781 9.4296875 C 11.924207 9.4280759 11.921506 9.4234698 11.919922 9.421875 C 11.919922 9.421875 11.917969 9.4199219 11.917969 9.4199219 C 11.917969 9.4199219 11.916016 9.4179688 11.916016 9.4179688 C 11.916016 9.4179688 11.914062 9.4160156 11.914062 9.4160156 C 11.91319 9.4151203 11.911031 9.4149527 11.910156 9.4140625 C 11.910156 9.4140625 11.910156 9.4121094 11.910156 9.4121094 C 11.909498 9.4114468 11.908863 9.410816 11.908203 9.4101562 C 11.857377 9.3589843 11.799425 9.3190218 11.738281 9.2851562 C 11.738281 9.2851562 11.736328 9.2832031 11.736328 9.2832031 C 11.736328 9.2832031 11.734375 9.28125 11.734375 9.28125 C 11.733664 9.2808541 11.733134 9.2796905 11.732422 9.2792969 C 11.669722 9.2443843 11.60081 9.2187712 11.525391 9.2011719 C 11.524797 9.2010347 11.524032 9.201308 11.523438 9.2011719 C 11.515671 9.1993768 11.505948 9.2008308 11.498047 9.1992188 C 11.42848 9.1850253 11.355386 9.1738281 11.275391 9.1738281 C 11.130242 9.1738281 10.999321 9.2040743 10.880859 9.2617188 C 10.761716 9.3196948 10.656601 9.4071518 10.564453 9.5234375 C 10.564116 9.5238633 10.562837 9.523011 10.5625 9.5234375 C 10.513632 9.5857748 10.488906 9.6673854 10.453125 9.7402344 L 10.423828 9.7402344 L 10.455078 9.7128906 L 10.398438 9.7128906 L 10.429688 9.6855469 L 10.373047 9.6855469 L 10.402344 9.6601562 L 10.351562 9.6601562 L 10.378906 9.6367188 L 10.324219 9.6367188 L 10.353516 9.6113281 L 10.302734 9.6113281 L 10.330078 9.5878906 L 10.285156 9.5878906 L 10.308594 9.5664062 L 10.259766 9.5664062 L 10.287109 9.5429688 L 10.244141 9.5429688 L 10.265625 9.5234375 L 10.220703 9.5234375 L 10.244141 9.5019531 L 10.203125 9.5019531 L 10.224609 9.4824219 L 10.185547 9.4824219 L 10.207031 9.4628906 L 10.167969 9.4628906 L 10.1875 9.4453125 L 10.150391 9.4453125 L 10.169922 9.4277344 L 10.136719 9.4277344 L 10.154297 9.4121094 L 10.119141 9.4121094 L 10.138672 9.3945312 L 10.107422 9.3945312 L 10.123047 9.3808594 L 10.089844 9.3808594 L 10.107422 9.3652344 L 10.078125 9.3652344 L 10.09375 9.3515625 L 10.068359 9.3515625 L 10.082031 9.3398438 L 10.052734 9.3398438 L 10.068359 9.3261719 L 10.044922 9.3261719 L 10.058594 9.3144531 L 10.035156 9.3144531 L 10.046875 9.3046875 L 10.025391 9.3046875 L 10.037109 9.2949219 L 10.015625 9.2949219 L 10.027344 9.2851562 L 10.009766 9.2851562 L 10.019531 9.2773438 L 10.001953 9.2773438 L 10.011719 9.2695312 L 9.9941406 9.2695312 L 10.003906 9.2617188 L 9.9921875 9.2617188 L 9.9980469 9.2558594 L 9.9863281 9.2558594 L 9.9921875 9.25 L 9.9824219 9.25 L 9.9882812 9.2441406 L 9.9785156 9.2441406 L 9.9824219 9.2402344 L 9.9785156 9.2402344 L 9.9804688 9.2382812 L 9.9726562 9.2382812 L 9.9746094 9.234375 L 9.9765625 9.234375 L 9.9765625 9.2324219 L 9.9746094 9.2324219 L 9.46875 9.2324219 L 9.328125 9.3554688 L 9.328125 9.3339844 L 9.2890625 9.3339844 L 9.2890625 9.296875 L 9.25 9.296875 L 9.25 9.2578125 L 9.2128906 9.2578125 L 9.2128906 9.2207031 L 9.1757812 9.2207031 L 9.1757812 9.1835938 L 9.140625 9.1835938 L 9.140625 9.1464844 L 9.1054688 9.1464844 L 9.1054688 9.1113281 L 9.0703125 9.1113281 L 9.0703125 9.078125 L 9.0371094 9.078125 L 9.0371094 9.0429688 L 9.0039062 9.0429688 L 9.0039062 9.0117188 L 8.9707031 9.0117188 L 8.9707031 8.9785156 L 8.9394531 8.9785156 L 8.9394531 8.9472656 L 8.9082031 8.9472656 L 8.9082031 8.9160156 L 8.8789062 8.9160156 L 8.8789062 8.8867188 L 8.8496094 8.8867188 L 8.8496094 8.8574219 L 8.8203125 8.8574219 L 8.8203125 8.828125 L 8.7929688 8.828125 L 8.7929688 8.8007812 L 8.765625 8.8007812 L 8.765625 8.7734375 L 8.7402344 8.7734375 L 8.7402344 8.7460938 L 8.7128906 8.7460938 L 8.7128906 8.7207031 L 8.6894531 8.7207031 L 8.6894531 8.6972656 L 8.6640625 8.6972656 L 8.6640625 8.671875 L 8.640625 8.671875 L 8.640625 8.6484375 L 8.6191406 8.6484375 L 8.6191406 8.6269531 L 8.5976562 8.6269531 L 8.5976562 8.6035156 L 8.5761719 8.6035156 L 8.5761719 8.5839844 L 8.5546875 8.5839844 L 8.5546875 8.5625 L 8.5351562 8.5625 L 8.5351562 8.5429688 L 8.515625 8.5429688 L 8.515625 8.5234375 L 8.4980469 8.5234375 L 8.4980469 8.5058594 L 8.4804688 8.5058594 L 8.4804688 8.4882812 L 8.4648438 8.4882812 L 8.4648438 8.4726562 L 8.4472656 8.4726562 L 8.4472656 8.4550781 L 8.4335938 8.4550781 L 8.4335938 8.4414062 L 8.4179688 8.4414062 L 8.4179688 8.4257812 L 8.4042969 8.4257812 L 8.4042969 8.4121094 L 8.3925781 8.4121094 L 8.3925781 8.3984375 L 8.3789062 8.3984375 L 8.3789062 8.3867188 L 8.3671875 8.3867188 L 8.3671875 8.375 L 8.3574219 8.375 L 8.3574219 8.3652344 L 8.3476562 8.3652344 L 8.3476562 8.3554688 L 8.3378906 8.3554688 L 8.3378906 8.3457031 L 8.3300781 8.3457031 L 8.3300781 8.3378906 L 8.3222656 8.3378906 L 8.3222656 8.3300781 L 8.3144531 8.3300781 L 8.3144531 8.3222656 L 8.3085938 8.3222656 L 8.3085938 8.3164062 L 8.3027344 8.3164062 L 8.3027344 8.3105469 L 8.296875 8.3105469 L 8.296875 8.3046875 L 8.2929688 8.3046875 L 8.2929688 8.3007812 L 8.2910156 8.3007812 L 8.2910156 8.2988281 L 8.2871094 8.2988281 L 8.2871094 8.2949219 L 8.2851562 8.2949219 L 8.2851562 8.2929688 L 7.8867188 8.2929688 z M 7.8867188 9.828125 L 7.8867188 9.8554688 L 7.8671875 9.8554688 L 7.8867188 9.828125 z "
       id="path21451"
       clip-path="url(#clipPath22302)" />
  </g>
</svg>
